<svg xmlns="http://www.w3.org/2000/svg" xmlns:xlink="http://www.w3.org/1999/xlink" viewBox="0 0 400 200"><path fill="none" d="M0 0h400v200H0z"/><defs><use xlink:href="#15585__a" id="15585__g" fill="currentColor" stroke="none"/><use xlink:href="#15585__b" id="15585__c" stroke="currentColor" transform="rotate(180)"/><use xlink:href="#15585__c" id="15585__f" fill="currentColor" stroke="none"/><use xlink:href="#15585__d" id="15585__e" stroke="currentColor" transform="rotate(45)"/><use xlink:href="#15585__e" id="15585__h" fill="currentColor" stroke="none"/><path id="15585__d" stroke="currentColor" stroke-width=".267" d="M-1-1h2v2h-2z"/><path id="15585__b" stroke="currentColor" stroke-width=".267" d="m0-1.33-1.33 2h2.66z"/><path id="15585__i" stroke="currentColor" stroke-width=".267" d="M0 1.33 1.265.411.782-1.067l-1.564-.009-.483 1.487z"/><circle id="15585__a" cx="0" cy="0" r="1" stroke="currentColor" stroke-width=".267"/></defs><path fill="none" stroke="#CCC" stroke-linecap="round" stroke-linejoin="round" stroke-width=".1" d="M46.1 162.5V75.01" class="15585__gridline" color="#000"/><g fill="none" stroke-linecap="round" stroke-linejoin="round" stroke-width="0" color="#000"><path d="M46.1 162.5V155m0-79.99v7.5"/><text fill="#000" font-family="KaTeX_Main" font-size="8" text-anchor="middle" transform="translate(46.1 172.6)"><tspan> 1</tspan></text></g><path fill="none" stroke="#CCC" stroke-linecap="round" stroke-linejoin="round" stroke-width=".1" d="M82.31 162.5V75.01" class="15585__gridline" color="#000"/><g fill="none" stroke-linecap="round" stroke-linejoin="round" stroke-width="0" color="#000"><path d="M82.31 162.5V155m0-79.99v7.5"/><text fill="#000" font-family="KaTeX_Main" font-size="8" text-anchor="middle" transform="translate(82.31 172.6)"><tspan> 2</tspan></text></g><path fill="none" stroke="#CCC" stroke-linecap="round" stroke-linejoin="round" stroke-width=".1" d="M118.52 162.5V75.01" class="15585__gridline" color="#000"/><g fill="none" stroke-linecap="round" stroke-linejoin="round" stroke-width="0" color="#000"><path d="M118.52 162.5V155m0-79.99v7.5"/><text fill="#000" font-family="KaTeX_Main" font-size="8" text-anchor="middle" transform="translate(118.52 172.6)"><tspan> 3</tspan></text></g><path fill="none" stroke="#CCC" stroke-linecap="round" stroke-linejoin="round" stroke-width=".1" d="M154.73 162.5V75.01" class="15585__gridline" color="#000"/><g fill="none" stroke-linecap="round" stroke-linejoin="round" stroke-width="0" color="#000"><path d="M154.73 162.5V155m0-79.99v7.5"/><text fill="#000" font-family="KaTeX_Main" font-size="8" text-anchor="middle" transform="translate(154.73 172.6)"><tspan> 4</tspan></text></g><path fill="none" stroke="#CCC" stroke-linecap="round" stroke-linejoin="round" stroke-width=".1" d="M190.94 162.5V75.01" class="15585__gridline" color="#000"/><g fill="none" stroke-linecap="round" stroke-linejoin="round" stroke-width="0" color="#000"><path d="M190.94 162.5V155m0-79.99v7.5"/><text fill="#000" font-family="KaTeX_Main" font-size="8" text-anchor="middle" transform="translate(190.94 172.6)"><tspan> 5</tspan></text></g><path fill="none" stroke="#CCC" stroke-linecap="round" stroke-linejoin="round" stroke-width=".1" d="M227.15 162.5V75.01" class="15585__gridline" color="#000"/><g fill="none" stroke-linecap="round" stroke-linejoin="round" stroke-width="0" color="#000"><path d="M227.15 162.5V155m0-79.99v7.5"/><text fill="#000" font-family="KaTeX_Main" font-size="8" text-anchor="middle" transform="translate(227.15 172.6)"><tspan> 6</tspan></text></g><path fill="none" stroke="#CCC" stroke-linecap="round" stroke-linejoin="round" stroke-width=".1" d="M263.36 162.5V75.01" class="15585__gridline" color="#000"/><g fill="none" stroke-linecap="round" stroke-linejoin="round" stroke-width="0" color="#000"><path d="M263.36 162.5V155m0-79.99v7.5"/><text fill="#000" font-family="KaTeX_Main" font-size="8" text-anchor="middle" transform="translate(263.36 172.6)"><tspan> 7</tspan></text></g><path fill="none" stroke="#CCC" stroke-linecap="round" stroke-linejoin="round" stroke-width=".1" d="M299.57 162.5V75.01" class="15585__gridline" color="#000"/><g fill="none" stroke-linecap="round" stroke-linejoin="round" stroke-width="0" color="#000"><path d="M299.57 162.5V155m0-79.99v7.5"/><text fill="#000" font-family="KaTeX_Main" font-size="8" text-anchor="middle" transform="translate(299.57 172.6)"><tspan> 8</tspan></text></g><path fill="none" stroke="#CCC" stroke-linecap="round" stroke-linejoin="round" stroke-width=".1" d="M335.78 162.5V75.01" class="15585__gridline" color="#000"/><g fill="none" stroke-linecap="round" stroke-linejoin="round" stroke-width="0" color="#000"><path d="M335.78 162.5V155m0-79.99v7.5"/><text fill="#000" font-family="KaTeX_Main" font-size="8" text-anchor="middle" transform="translate(335.78 172.6)"><tspan> 9</tspan></text></g><path fill="none" stroke="#CCC" stroke-linecap="round" stroke-linejoin="round" stroke-width=".1" d="M371.99 162.5V75.01" class="15585__gridline" color="#000"/><g fill="none" stroke-linecap="round" stroke-linejoin="round" stroke-width="0" color="#000"><path d="M371.99 162.5V155m0-79.99v7.5"/><text fill="#000" font-family="KaTeX_Main" font-size="8" text-anchor="middle" transform="translate(371.99 172.6)"><tspan> 10</tspan></text></g><g fill="none" stroke-linecap="round" stroke-linejoin="round" stroke-width="0" color="#000"><path d="M371.99 162.5h-7.5"/><text fill="#000" font-family="KaTeX_Main" font-size="8" transform="translate(378.99 165.1)"><tspan>0.00</tspan></text></g><g fill="none" stroke-linecap="round" stroke-linejoin="round" stroke-width="0" color="#000"><path d="M371.99 152.78h-7.5"/><text fill="#000" font-family="KaTeX_Main" font-size="8" transform="translate(378.99 155.38)"><tspan>5.00</tspan></text></g><g fill="none" stroke-linecap="round" stroke-linejoin="round" stroke-width="0" color="#000"><path d="M371.99 143.06h-7.5"/><text fill="#000" font-family="KaTeX_Main" font-size="8" transform="translate(378.99 145.66)"><tspan>10.00</tspan></text></g><g fill="none" stroke-linecap="round" stroke-linejoin="round" stroke-width="0" color="#000"><path d="M371.99 133.34h-7.5"/><text fill="#000" font-family="KaTeX_Main" font-size="8" transform="translate(378.99 135.94)"><tspan>15.00</tspan></text></g><g fill="none" stroke-linecap="round" stroke-linejoin="round" stroke-width="0" color="#000"><path d="M371.99 123.62h-7.5"/><text fill="#000" font-family="KaTeX_Main" font-size="8" transform="translate(378.99 126.22)"><tspan>20.00</tspan></text></g><g fill="none" stroke-linecap="round" stroke-linejoin="round" stroke-width="0" color="#000"><path d="M371.99 113.89h-7.5"/><text fill="#000" font-family="KaTeX_Main" font-size="8" transform="translate(378.99 116.49)"><tspan>25.00</tspan></text></g><g fill="none" stroke-linecap="round" stroke-linejoin="round" stroke-width="0" color="#000"><path d="M371.99 104.17h-7.5"/><text fill="#000" font-family="KaTeX_Main" font-size="8" transform="translate(378.99 106.77)"><tspan>30.00</tspan></text></g><g fill="none" stroke-linecap="round" stroke-linejoin="round" stroke-width="0" color="#000"><path d="M371.99 94.45h-7.5"/><text fill="#000" font-family="KaTeX_Main" font-size="8" transform="translate(378.99 97.05)"><tspan>35.00</tspan></text></g><g fill="none" stroke-linecap="round" stroke-linejoin="round" stroke-width="0" color="#000"><path d="M371.99 84.73h-7.5"/><text fill="#000" font-family="KaTeX_Main" font-size="8" transform="translate(378.99 87.33)"><tspan>40.00</tspan></text></g><g fill="none" stroke-linecap="round" stroke-linejoin="round" stroke-width="0" color="#000"><path d="M371.99 75.01h-7.5"/><text fill="#000" font-family="KaTeX_Main" font-size="8" transform="translate(378.99 77.61)"><tspan>45.00</tspan></text></g><path fill="none" d="M28 75.01v87.49m343.99-87.49H28" color="#000"/><text stroke-linecap="round" stroke-linejoin="round" stroke-width="0" color="#000" font-family="KaTeX_Main" font-size="10" text-anchor="middle" transform="rotate(-90 65.13 53.63)"><tspan font-weight="bold">Duration </tspan><tspan> in milliseconds</tspan></text><text stroke-linecap="round" stroke-linejoin="round" stroke-width="0" color="#000" font-family="KaTeX_Main" font-size="10" text-anchor="middle" transform="translate(199.99 195.75)"><tspan>Operations / 10</tspan><tspan dy="-5" font-size="8">6</tspan></text><text stroke-linecap="round" stroke-linejoin="round" color="#000" font-family="KaTeX_Main" font-size="8" transform="translate(76.8 10.11)"><tspan>AVLTopDown</tspan></text><g fill="none" stroke="currentColor" stroke-linecap="round" stroke-linejoin="round" color="#000"><path stroke="#29C3F6" stroke-dasharray="2.5,4.0" d="M41.3 7.51h29.9M28 159.05l.36-.38.36.38.37-.39.36.35.36-.35h.36l.36.35.37-.36h.36l.36.34.36-.34.37.35.36-.37.36.36.36-.38.36.38.37-.36.36-.01.36.35.36-.36.36.38.37-.38.36.38.36-.37.36.36.36-.38.37-.04.36.42.36-.41.36.38.36-.38.37.03.36.34.36-.38.36.37.37-.37.36.34.36-.39.36.4.36-.38h.37l.36.35.36-.39.36.01.36.38.37-.39.36.39.36-.37.36.34.36-.36.37.35.36-.38.36.02.36.37.37-.37.36.34.36-.36.36.36.36-.37.37.35.36-.38h.36l.36.39.36-.37.37.41.36-.41h.36l.36.35.36-.35.37.35.36-.37.36.37.36-.37.37.36.36-.39.36.03.36.37.36-.37h.37l.36.35.36-.39.36.37.36-.37.37.39.36-.38.36.33.36-.31.36-.01.37.34.36-.36.36.38.36-.4.36.4.37-.39.36.36.36-.38.36-.03.37.4.36-.36.36-.01.36.34.36-.35.37.37.36-.36.36.35.36-.38.36.38.37-.37.36-.03.36.39.36-.36.36.37.37-.35.36-.02.36.34.36-.36.37.33.36-.35.36.33.36-.32.36.38.37-.37.36-.02.36.37.36-.37.36.4.37-.39.36.37.36-.42.36.37.36-.38h.37l.36.4.36-.34.36.02.36.36.37-.39.36.34.36-.36.36.33.37-.36.36.37.36-.34.36-.02.36.37.37-.35.36.35.36-.36h.36l.36.36.37-.38.36.38.36-.4.36.37.36-.37.37.01.36.37.36-.38.36.36.37-.34.36.35.36-.38.36.34.36-.33.37.37.36-.36.36.01.36.37.36-.4.37.03.36.33.36-.36.36.32.36-.35.37.33.36-.32.36.4.36-.37.36.01.37.31.36-.35.36.38.36-.37.37-.01.36.35.36-.35.36.38.36-.36.37.33.36-.37.36.03.36.36.36-.34.37.31.36-.33.36.35.36-.35.36.33.37-.36.36-.01.36.35.36-.35.37.34.36-.35.36-.01.36.36.36-.36.37.38.36-.36.36.34.36-.34.36.38.37-.37h.36l.36.34.36-.36.36.34.37-.36.36-.04.36.36.36-.32.37.33.36-.31.36.38.36-.38.36-.02.37.37.36-.37.36.38.36-.38.36.36.37-.36.36.35.36-.4.36.04.36.35.37-.35.36.01.36.33.36-.33.36.32.37-.33.36.34.36-.35.36.33.37-.34h.36l.36.35.36-.35.36.36.37-.36.36.34.36-.37h.36l.36.37.37-.39.36.36.36-.36.36.37.36-.35h.37l.36.34.36-.33.36.37.37-.39.36.37.36-.36.36.33.36-.34.37.02.36.35.36-.39.36-.04.36.41.37-.35.36.38.36-.38.36.35.36-.36.37.37.36-.36.36-.01.36.36.36-.36.37.36.36-.36.36.38.36-.4h.37l.36.37.36-.33.36.34.36-.36.37-.02.36.36.36-.36.36.36.36-.36.37.35.36-.37.36.4.36-.39.36.38.37-.38.36.02.36.35.36-.37.37.01.36.33.36-.32.36.33.36-.33.37.35.36-.36.36.34.36-.37.36.02.37.32.36-.35.36.34.36-.35.36.35.37-.31.36-.02.36.37.36-.39.36.36.37-.38.36.02.36.36.36-.33.37.34.36-.34.36.38.36-.41.36.38.37-.37.36.01.36.35.36-.39.36.38.37-.38.36.02.36.37.36-.42.36.42.37-.36.36.36.36-.38.36.38.37-.37.36.01.36.3.36-.35.36.4.37-.41.36.38.36-.36.36-.03.36.41.37-.36.36.36.36-.39h.36l.36.34.37-.33.36.35.36-.39.36.39.37-.37.36.38.36-.36.36.01.36.36.37-.35.36-.01.36.31.36-.35.36.36.37-.37.36.35.36-.35.36.38.36-.37.37.02.36.34.36-.34.36.36.36-.35.37.36.36-.37.36.36.36-.41.37.03.36.33.36-.32.36.37.36-.36.37-.03.36.37.36-.4.36.4.36-.36.37.34.36-.36.36.33.36-.35h.36l.37.37.36-.34.36-.01.36.36.37-.32.36.31.36-.33.36.36.36-.36.37.35.36-.4.36.02.36.33.36-.32.37.34.36-.33.36.34.36-.4.36.41.37-.38.36.01.36.39.36-.38.36.37.37-.4.36-.02.36.41.36-.41.37.38.36-.38.36.41.36-.38.36.37.37-.37.36.02.36.32.36-.33.36.02.37.34.36-.38.36.36.36-.37.36.32.37-.33.36.38.36-.36.36-.01.37.36.36-.36.36.32.36-.36.36.41.37-.42.36.41.36-.34.36-.03.36.33.37-.36.36.01.36.36.36-.34.36.33.37-.31.36.31.36-.39.36.39.37-.34.36.02.36.29.36-.31.36.36.37-.36.36.02.36.34.36-.36.36.36.37-.38.36.35.36-.34.36.34.36-.37.37-.01.36.38.36-.38.36.37.36-.36.37.38.36-.36.36.37.36-.36.37-.01.36.38.36-.39.36.01.36.33.37-.38.36.36.36-.33.36.36.36-.37.37.35.36-.35h.36l.36.35.36-.33.37.33.36-.4h.36l.36.38.37-.33.36.31.36-.36.36.39.36-.32.37-.02.36.35.36-.34.36.37.36-.37.37.38.36-.44.36.38.36-.38.36.37.37-.36.36.05.36.33.36-.37.36.02.37.33.36-.33.36.36.36-.37.37.32.36-.3.36.33.36-.38.36-.02.37.35.36-.37.36.37.36-.36.36-.02.37.39.36-.35.36.37.36-.36.36.36.37-.37.36.02.36.32.36-.33.37.35.36-.36.36.35.36-.33.36.38.37-.41.36.06.36.33.36-.37.36.39.37-.36h.36l.36.31.36-.3.36.3.37-.33.36.33.36-.36.36.37.36-.36.37.01.36.33.36-.35.36.36.37-.37.36.05.36.35.36-.37.36.37.37-.34.36.32.36-.36.36.03.36.35.37-.37.36.39.36-.37.36.37.36-.38.37.34.36-.38.36.03.36.35.37-.36.36-.02.36.31.36-.29.36.37.37-.36.36.35.36-.41.36.37.36-.35.37.05.36.29.36-.31.36.31.36-.36.37.4.36-.35.36-.03.36.37.37-.35.36.35.36-.35.36.35.36-.37.37.03.36.36.36-.4.36.36.36-.33.37.33.36-.38.36.35.36-.34h.36l.37.35.36-.33.36-.02.36.36.36-.33.37.35.36-.37.36.35.36-.41.37.38.36-.37.36.03.36.32.36-.31.37.35.36-.39.36.39.36-.35h.36l.37.36.36-.34.36.35.36-.41.36.05.37.36.36-.36.36.33.36-.38.37.38.36-.36.36.37.36-.38.36.37.37-.36.36-.03.36.4.36-.36.36.02.37.32.36-.33.36.36.36-.38.36.36.37-.36.36.39.36-.35.36.01.36.29.37-.35.36.34.36-.32.36.38.37-.4.36.03.36.36.36-.4.36.38.37-.38.36-.01.36.37.36-.34.36.34.37-.35.36.34.36-.39.36.38.36-.4.37.01.36.35.36-.36.36.37.37-.36h.36l.36.39.36-.33.36.34.37-.38.36.38.36-.36.36.35.36-.34.37-.04.36.38.36-.31.36.34.36-.4.37.36.36-.34h.36l.36.37.36-.34.37.32.36-.33.36-.02.36.34.37-.36.36.37.36-.35.36.36.36-.35.37.35.36-.39.36.03.36.31.36-.33.37-.02.36.39.36-.36.36.34.36-.33.37.35.36-.4.36.38.36-.35h.37l.36.35.36-.39.36.3.36-.31.37.42.36-.38.36.35.36-.36.36.01.37.32.36-.31.36.33.36-.34.36.03.37.32.36-.36.36.41.36-.35.37.33.36-.37.36.37.36-.37.36-.07.37.39.36-.38.36.03.36.36.36-.4.37.41.36-.34.36.3.36-.35.36.36.37-.38.36.07.36.31.36-.33.36.34.37-.36.36.34.36-.34.36.36.37-.39.36.03.36.37.36-.39.36.39.37-.35h.36l.36.37.36-.39.36.33.37-.36.36.34.36-.35.36.38.36-.35.37.03.36.29.36-.36.36.02.37.38.36-.32.36.31.36-.37.36.39.37-.36.36.38.36-.4h.36l.36.35.37-.34.36.4.36-.4.36.37.36-.34.37.31.36-.3.36-.02.36.36.36-.36.37.02.36.29.36-.3.36.33.37-.35.36.36.36-.36.36.38.36-.36.37-.02.36.33.36-.37.36.37.36-.35.37-.02.36.33.36-.35.36.33.36-.32.37.36.36-.37.36.37.36-.39h.37l.36.33.36-.34.36.38.36-.37.37.39.36-.38.36.32.36-.29.36-.04.37.37.36-.35h.36l.36.36.36-.34.37.37.36-.39.36.36.36-.31.36.3.37-.31h.36l.36.32.36-.33.37.33.36-.36.36.02.36.35.36-.33.37.35.36-.4.36.38.36-.35h.36l.37.35.36-.3.36.3.36-.35.36.36.37-.35.36.33.36-.35.36.34.37-.36.36.02.36.31.36-.35.36-.01.37.38.36-.37.36.39.36-.37.36.36.37-.34.36.36.36-.4.36.02.36.37.37-.38.36.39.36-.36.36-.02.37.31.36-.33.36.37.36-.36.36.35.37-.35.36.02.36.3.36-.38.36.37.37-.33.36.35.36-.36.36.37.36-.38.37.02.36.34.36-.32.36.34.36-.39.37.06.36.3.36-.34.36.4.37-.33.36.34.36-.37.36.35.36-.32h.37l.36.33.36-.39"/><use xlink:href="#15585__f" color="#29C3F6" transform="matrix(3.75 0 0 3.75 354.25 157.52)"/><use xlink:href="#15585__f" color="#29C3F6" transform="matrix(3.75 0 0 3.75 56.25 7.51)"/></g><text stroke-linecap="round" stroke-linejoin="round" color="#000" font-family="KaTeX_Main" font-size="8" transform="translate(76.8 25.11)"><tspan>AVLRelaxedBottomUp</tspan></text><g fill="none" stroke="currentColor" stroke-linecap="round" stroke-linejoin="round" color="#000"><path stroke="#D336C8" d="M41.3 22.51h29.9M28 158.93l.36.33.36-.36.37.36.36-.36.36.37.36-.39.36-.01.37.38.36-.37.36.36.36-.36.37.35.36-.38h.36l.36.36.36-.36.37.34.36-.38.36.4.36-.39.36.38.37-.4.36.02.36.35.36-.36.36-.01.37.36.36-.37.36.35.36-.37.36.37.37-.38.36.38.36-.4.36.02.37.35.36-.38.36.37.36-.4.36.39.37-.39h.36l.36.35.36-.37.36.39.37-.38.36.01.36.36.36-.37.36.35.37-.38.36.37.36-.37.36.37.37-.38.36-.01.36.36.36-.35.36.35.37-.36h.36l.36.34.36-.35.36.36.37-.35.36.35.36-.38.36.37.36-.37h.37l.36.34.36-.36.36.37.37-.37.36.38.36-.38.36-.01.36.37.37-.36.36.36.36-.41.36.03.36.36.37-.39.36.38.36-.38.36.4.36-.39.37.37.36-.4.36.02.36.34.36-.35.37.02.36.33.36-.37.36.37.37-.37.36.36.36-.38.36.37.36-.39.37.39.36-.39h.36l.36.36.36-.37.37.35.36-.36.36.36.36-.35.36-.03.37.39.36-.38.36.37.36-.37.37-.02.36.36.36-.37.36.38.36-.37.37.38.36-.38.36.36.36-.38.36.03.37.35.36-.37.36-.01.36.33.36-.35.37.36.36-.35.36.37.36-.37.36.38.37-.41.36.02.36.36.36-.36.37.36.36-.38.36.37.36-.37.36.38.37-.35.36-.03.36.37.36-.38.36.38.37-.37.36-.02.36.37.36-.35.36.35.37-.37.36.39.36-.39.36.37.37-.39.36.02.36.35.36-.35.36-.01.37.36.36-.35.36.35.36-.37.36.37.37-.37.36.37.36-.39.36.01.36.37.37-.37.36.37.36-.36.36.36.36-.38.37.35.36-.36.36.01.36.37.37-.39.36.03.36.35.36-.35.36.34.37-.36.36.37.36-.38.36.35.36-.33.37.32.36-.35.36.01.36.35.36-.35.37.01.36.35.36-.38.36.36.37-.36.36.36.36-.37.36.38.36-.38.37-.01.36.38.36-.38.36.36.36-.35.37.36.36-.37.36.36.36-.37.36-.01.37.38.36-.38.36.03.36.33.37-.36.36.37.36-.36.36.34.36-.34.37.38.36-.39.36.01.36.33.36-.34.37.34.36-.35.36.01.36.34.36-.36.37.37.36-.37.36.37.36-.38.36.38.37-.38.36.01.36.33.36-.38.37.36.36-.35.36.39.36-.38.36.38.37-.4.36-.01.36.37.36-.36h.36l.37.33.36-.35.36.35.36-.36.36.36.37-.35.36.36.36-.36h.36l.37.35.36-.35.36.35.36-.38.36.02.37.38.36-.4.36.37.36-.37.36.38.37-.36h.36l.36.35.36-.37.36.36.37-.35.36.37.36-.38.36.36.36-.36.37.01.36.35.36-.39.36.38.37-.36.36-.01.36.36.36-.36.36.36.37-.35.36.35.36-.36.36.36.36-.36.37.01.36.35.36-.35.36.34.36-.34.37-.04.36.38.36-.37.36.35.37-.36.36.36.36-.36.36-.01.36.37.37-.34.36.34.36-.35.36.36.36-.39.37.38.36-.38.36.01.36.33.36-.37.37.05.36.31.36-.31.36.33.36-.37.37.37.36-.37.36.37.36-.37.37.38.36-.38.36.04.36.33.36-.38.37.38.36-.37.36.01.36.34.36-.36.37.36.36-.37.36.37.36-.37.36.02.37.35.36-.35.36.34.36-.37.37.38.36-.37.36.35.36-.38.36.05.37.3.36-.32.36.01.36.33.36-.36.37.36.36-.35.36.34.36-.37.36.39.37-.37h.36l.36.34.36-.33.37.35.36-.36.36.36.36-.38.36.03.37.35.36-.39.36.37.36-.37.36.38.37-.38h.36l.36.37.36-.36.36.37.37-.38.36.37.36-.36.36.36.36-.37.37.03.36.33.36-.38h.36l.37.36.36-.37.36.38.36-.37.36.39.37-.39.36.4.36-.42.36.02.36.35.37-.34.36.35.36-.36.36.34.36-.35.37.01.36.34.36-.38.36.38.37-.35.36-.01.36.36.36-.36.36.35.37-.35.36.37.36-.39.36.38.36-.36.37-.01.36.35.36-.35.36.33.36-.36h.37l.36.34.36-.31.36.35.36-.36.37.35.36-.38.36.39.36-.39.37.02.36.33.36-.33.36.35.36-.35.37.35.36-.36.36-.01.36.37.36-.36.37.37.36-.38.36.02.36.33.36-.38.37.38.36-.36.36.36.36-.37.37.37.36-.37.36-.02.36.35.36-.35h.37l.36.37.36-.38.36.36.36-.37.37.38.36-.39.36.37.36-.34.36.35.37-.34.36-.03.36.35.36-.34.37.36.36-.37.36.38.36-.37.36.01.37.33.36-.35.36.36.36-.35h.36l.37.34.36-.36.36.36.36-.35.36.36.37-.38.36.37.36-.37.36.02.36.36.37-.36.36-.02.36.35.36-.37.37.37.36-.34.36.34.36-.38.36.37.37-.37h.36l.36.31.36-.29.36.34.37-.35.36.36.36-.36.36.36.36-.36.37-.04.36.38.36-.36.36.35.37-.35h.36l.36.36.36-.37.36.36.37-.37.36.38.36-.37.36.39.36-.39h.37l.36.36.36-.36.36-.01.36.36.37-.37.36.38.36-.4.36.38.36-.36.37.37.36-.37h.36l.36.35.37-.38.36.37.36-.36.36.34.36-.38.37.37.36-.36.36.01.36.39.36-.38h.37l.36.35.36-.35.36.36.36-.36.37.37.36-.35.36.35.36-.39.37.38.36-.37.36.01.36.36.36-.35.37-.01.36.37.36-.37.36.37.36-.36.37.34.36-.34.36.35.36-.35.36-.01.37.35.36-.35.36.36.36-.38.36.36.37-.35.36.36.36-.37.36.01.37.35.36-.36.36.01.36.33.36-.32.37.33.36-.35.36.36.36-.35.36.35.37-.35.36.02.36.33.36-.34.36.34.37-.35h.36l.36.35.36-.35.37.36.36-.37.36.38.36-.38.36.35.37-.34.36-.01.36.34.36-.36.36.35.37-.34.36.35.36-.36.36.35.36-.36.37.02.36.34.36-.36.36.01.37.34.36-.34.36.36.36-.38.36.38.37-.36.36.37.36-.39h.36l.36.36.37-.36.36.36.36-.35h.36l.36.34.37-.34.36.37.36-.42.36.41.36-.39.37.03.36.31.36-.31.36.33.37-.34.36.35.36-.38.36.38.36-.36h.37l.36.32.36-.33.36.38.36-.38.37.01.36.36.36-.35.36.33.36-.31.37.35.36-.4.36.37.36-.37.37.01.36.35.36-.37.36.36.36-.34.37.01.36.34.36-.33.36.33.36-.35.37.36.36-.37h.36l.36.33.36-.35.37.36.36-.33.36.35.36-.35.36.35.37-.36h.36l.36.35.36-.35.37.01.36.33.36-.35.36.35.36-.36.37.36.36-.39.36.38.36-.34.36.38.37-.36h.36l.36.32.36-.37.36.37.37-.35h.36l.36.35.36-.38.37.39.36-.39.36.39.36-.36h.36l.37.34.36-.35.36.36.36-.37.36.35.37-.37.36.38.36-.35.36-.03.36.36.37-.38.36.02.36.34.36-.33.36.35.37-.35.36.36.36-.36.36.35.37-.37.36.01.36.35.36-.35.36.37.37-.36.36.35.36-.36.36-.01.36.38.37-.38.36.39.36-.39.36.37.36-.33.37-.02.36.35.36-.37.36.38.37-.38.36.37.36-.36.36.34.36-.36.37.03.36.34.36-.34.36-.01.36.34.37-.38.36.38.36-.37.36.39.36-.37.37.36.36-.39.36.02.36.36.37-.38.36.36.36-.37.36.38.36-.35.37.02.36.34.36-.38.36.37.36-.36.37.01.36.37.36-.39.36.38.36-.39.37.38.36-.35.36.35.36-.37.36.01.37.34.36-.33.36.32.36-.34.37-.01.36.36.36-.34.36.33.36-.35.37.38.36-.38.36.37.36-.38.36.01.37.34.36-.33.36.35.36-.35.36.36.37-.37.36-.01.36.34.36-.35.37.38.36-.37.36.02.36.33.36-.34.37.34.36-.32.36.34.36-.38.36.37.37-.37.36.03.36.31.36-.32h.36l.37.36.36-.35.36.33.36-.35.36.35.37-.34.36.33.36-.33.36.36.37-.4.36.04.36.34.36-.35.36.35.37-.35.36.35.36-.36.36.01.36.37.37-.38.36.37.36-.38h.36l.36.36.37-.35.36.33.36-.32.36.32.37-.33.36.34.36-.39.36.05.36.31.37-.34h.36l.36.33.36-.31.36.32.37-.39.36.4.36-.35.36.39.36-.4.37.04.36.29.36-.34.36.38.36-.36.37.37.36-.36.36.36.36-.38.37.01.36.34.36-.36.36.37.36-.35h.37l.36.32.36-.37.36.41.36-.37.37.36.36-.36.36.38.36-.39.36.02.37.36.36-.36h.36l.36.32.37-.32.36.36.36-.37.36.36.36-.39.37.36.36-.35.36.01.36.36.36-.36.37.34.36-.36.36.35.36-.36.36.38.37-.35.36.01.36.36.36-.37h.37l.36.33.36-.33.36.33.36-.34.37.36.36-.36.36.36.36-.36.36.37.37-.37.36.01.36.35.36-.36.36-.02.37.36.36-.37.36.39.36-.39.36.36.37-.35.36.35.36-.34.36.01.37.37.36-.37.36.33.36-.35.36.36.37-.36.36.38.36-.39"/><use xlink:href="#15585__b" color="#D336C8" transform="matrix(3.75 0 0 3.75 67.83 158.81)"/><use xlink:href="#15585__b" color="#D336C8" transform="matrix(3.75 0 0 3.75 56.25 22.51)"/></g><text stroke-linecap="round" stroke-linejoin="round" color="#000" font-family="KaTeX_Main" font-size="8" transform="translate(76.8 40.11)"><tspan>RedBlackBottomUp</tspan></text><g fill="none" stroke="currentColor" stroke-linecap="round" stroke-linejoin="round" color="#000"><path stroke="#F44336" d="M41.3 37.51h29.9M28 157.21l.36.34.36-.37.37.02.36.33.36-.35.36-.01.36.33.37-.34.36.37.36-.34.36.33.37-.37.36.37.36-.38.36.38.36-.38.37.02.36.32.36-.36.36.37.36-.35.37.34.36-.37.36.02.36.38.36-.45.37.36.36-.38.36.01.36.34.36-.38.37.38.36-.36.36.35.36-.36.37.35.36-.37.36.02.36.35.36-.37.37.01.36.34.36-.38.36.37.36-.33.37.37.36-.38.36.39.36-.39h.36l.37.31.36-.36.36.37.36-.38.37.38.36-.38.36.37.36-.49.36-.01.37.36.36-.38.36.38.36-.38h.36l.37.36.36-.35.36.34.36-.38.36.39.37-.38.36.37.36-.38h.36l.37.38.36-.36.36-.02.36.36.36-.38.37.39.36-.37.36.36.36-.38.36.4.37-.41.36.01.36.35.36-.33.36.37.37-.4.36.39.36-.37.36.4.36-.4.37-.01.36.37.36-.39.36.01.37.36.36-.38.36.36.36-.34.36.35.37-.37.36.38.36-.37.36.37.36-.39.37.02.36.29.36-.3.36.02.36.33.37-.36.36.37.36-.38.36.37.37-.38.36.39.36-.38.36.02.36.34.37-.39.36.38.36-.37.36.39.36-.38.37.38.36-.37.36.03.36.33.36-.44h.37l.36.35.36-.37.36.39.36-.38.37.36.36-.37.36.38.36-.38h.37l.36.36.36-.37.36.37.36-.37.37.02.36.34.36-.36.36.4.36-.41.37.36.36-.36.36.35.36-.36h.36l.37.38.36-.38.36.36.36-.35.37.36.36-.38.36.38.36-.37h.36l.37.37.36-.38.36.02.36.33.36-.34.37.39.36-.41.36.36.36-.36.36.37.37-.37.36.01.36.33.36-.35.36.35.37-.37h.36l.36.36.36-.35.37.37.36-.36.36.37.36-.38.36.01.37.34.36-.34.36.38.36-.41.36.39.37-.39.36.37.36-.37.36.38.36-.37.37.01.36.36.36-.38.36.02.37.31.36-.36.36.36.36-.34.36.38.37-.38.36.36.36-.35h.36l.36.38.37-.37.36.24.36-.38.36-.01.36.35.37-.36.36.36.36-.37.36.37.37-.42.36.06.36.36.36-.38.36.37.37-.34.36.32.36-.35.36.35.36-.36h.37l.36.37.36-.38.36.05.36.33.37-.35.36.35.36-.37.36.35.36-.34.37.34.36-.35.36.36.36-.4.37.02.36.37.36-.36.36.34.36-.36.37-.01.36.37.36-.38.36.37.36-.36.37.34.36-.36.36.05.36.35.36-.4.37.36.36-.34.36.35.36-.38.37.39.36-.38.36-.01.36.34.36-.34.37.03.36.32.36-.35.36.34.36-.34.37.36.36-.36.36.38.36-.39.36.04.37.34.36-.36.36.39.36-.4.36.35.37-.35h.36l.36.35.36-.36.37.35.36-.37.36.37.36-.36.36.01.37.39.36-.38.36.34.36-.36.36.37.37-.38.36.41.36-.4h.36l.36.37.37-.39.36.04.36.37.36-.37.37.34.36-.39.36.38.36-.38.36.36.37-.34.36-.01.36.36.36-.36.36.35.37-.37.36.38.36-.38.36.02.36.33.37-.33.36.33.36-.35.36.01.36.34.37-.34.36.34.36-.35.36.38.37-.36.36.34.36-.34.36.34.36-.39.37.03.36.34.36-.35.36.01.36.35.37-.36.36.37.36-.36.36.34.36-.35.37.36.36-.36.36-.01.36.37.37-.37.36.35.36-.35.36.34.36-.32.37-.01.36.38.36-.4.36.35.36-.37.37.02.36.35.36-.36.36.35.36-.35.37.37.36-.38.36.36.36-.32.37-.03.36.32.36-.33h.36l.36.35.37-.33.36.33.36-.38.36.41.36-.39.37.37.36-.36.36.41.36-.42.36.01.37.36.36-.38.36.37.36-.35.36.34.37-.35h.36l.36.36.36-.36.37.38.36-.4.36.02.36.35.36-.35.37.35.36-.33.36.36.36-.4.36.36.37-.32h.36l.36.38.36-.36.36-.07.37.32.36-.36.36.34.36-.35.37.37.36-.37.36.37.36-.38h.36l.37.34.36-.36.36.36.36-.33.36.37.37-.4.36.38.36-.38.36-.02.36.38.37-.37.36.35.36-.34.36.01.36.35.37-.35.36.36.36-.36.36.35.37-.37.36.35.36-.35.36.01.36.35.37-.37h.36l.36.35.36-.35.36.37.37-.35.36.34.36-.35.36.36.36-.39.37.04.36.35.36-.36.36.34.37-.34.36.34.36-.39.36.4.36-.32.37-.05.36.37.36-.38.36.01.36.33.37-.34.36.35.36-.37.36.38.36-.4.37.39.36-.38.36.38.36-.37.37-.01.36.33.36-.3.36-.01.36.35.37-.35.36.36.36-.38.36.4.36-.38.37.36.36-.34.36.01.36.33.36-.35.37.34.36-.35.36.34.36-.34.36.34.37-.37.36.02.36.37.36-.39.37.01.36.39.36-.39.36.35.36-.36.37.35.36-.37.36.4.36-.39h.36l.37.36.36-.35.36.36.36-.34.36.03.37.34.36-.38.36.35.36-.37.37.37.36-.37.36.35.36-.34.36-.01.37.33.36-.33.36.34.36-.35.36.38.37-.39.36.36.36-.37.36-.02.36.4.37-.4.36.04.36.32.36-.33.36.37.37-.37.36.36.36-.36.36.4.37-.4.36.02.36.34.36-.35.36.35.37-.36.36.01.36.36.36-.35.36.32.37-.37.36.38.36-.35.36.01.36.31.37-.34.36.39.36-.36.36.32.37-.33.36.35.36-.36.36.38.36-.37.37-.03.36.41.36-.35.36-.03.36.34.37-.37.36.37.36-.37.36.4.36-.38.37.36.36-.38h.36l.36.35.36-.35.37.37.36-.35.36-.02.36.36.37-.37.36.37.36-.35.36.35.36-.34.37-.01.36.33.36-.33.36.37.36-.37.37.36.36-.35.36.32.36-.35h.36l.37.33.36-.33.36.03.36.33.37-.37.36.35.36-.32.36.33.36-.33.37.38.36-.39.36.34.36-.41.36.05.37.36.36-.36.36.39.36-.37h.36l.37.37.36-.34.36.34.36-.36.37.38.36-.49h.36l.36.32.36-.36.37.36.36-.36.36.33.36-.33.36.35.37-.35h.36l.36.33.36-.34h.36l.37.36.36-.34.36.3.36-.32.36.33.37-.36.36.36.36-.31.36-.03.37.35.36-.32.36.31.36-.36.36.4.37-.39.36-.01.36.37.36-.35.36.34.37-.38.36.37.36-.34.36-.04.36.39.37-.36.36.33.36-.33.36.35.37-.34.36.35.36-.37h.36l.36.36.37-.35.36-.01.36.38.36-.37.36.34.37-.35.36.34.36-.36.36.4.36-.35.37-.03.36.35.36-.36.36.39.36-.4.37.35.36-.34.36-.01.36.38.37-.37.36.37.36-.39.36.01.36.37.37-.35.36.33.36-.36.36.38.36-.35.37.36.36-.36.36.34.36-.37h.36l.37.38.36-.37.36-.01.36.38.37-.33.36.32.36-.35.36.35.36-.35.37.35.36-.35.36-.01.36.34.36-.37.37.36.36-.37.36.39.36-.37h.36l.37.34.36-.42.36.42.36-.36.36.02.37.35.36-.35.36.32.36-.39.37.38.36-.36.36.39.36-.31.36.04.37.3.36-.37h.36l.36.3.36-.33.37.35.36-.31.36.33.36-.37.36.37.37-.36.36.36.36-.36.36.04.37.31.36-.34.36.34.36-.34.36.33.37-.34.36-.01.36.38.36-.36.36.33.37-.38.36.02.36.32.36-.29.36.36.37-.38.36.34.36-.33.36.36.37-.4.36.03.36.33.36-.33.36.02.37.34.36-.37.36.36.36-.36.36.37.37-.37.36.38.36-.4.36.05.36.3.37-.32.36.35.36-.35.36.34.36-.35.37.35.36-.35.36-.02.36.41.37-.4.36.36.36-.38.36.01.36.36.37-.34.36.34.36-.34.36.34.36-.39.37.36.36-.34.36.01.36.36.36-.36.37-.02.36.34.36-.38.36.37.37-.34.36.36.36-.35.36.35.36-.35.37.02.36.33.36-.34.36.34.36-.33.37.35.36-.36.36.35.36-.36h.36l.37.37.36-.34.36-.02.36.33.36-.33.37.36.36-.41.36.4.36-.35.37.34.36-.35.36.34.36-.37h.36l.37.36.36-.35.36.02.36.36.36-.36.37.35.36-.34.36.37.36-.34.36.37.37-.37.36-.03.36.35.36-.38.37.38.36-.39.36.35.36-.31.36.33.37-.35.36-.02.36.33.36-.33.36.02.37.31.36-.33.36.35.36-.35.36.33.37-.32.36.32.36-.36.36.06.36.31.37-.33.36.34.36-.37.36.01.37.36.36-.37.36.34.36-.37.36.38.37-.37.36.35.36-.4.36.05.36.36.37-.36.36.37.36-.36.36.34.36-.35.37.38.36-.39h.36l.36.34.37-.35.36.03.36.34.36-.35.36.34.37-.38.36.39.36-.35.36.34.36-.36.37.06.36.32.36-.38.36.34.36-.35.37.03.36.33.36-.33.36.37.37-.4.36.35.36-.36.36.01.36.34.37-.31.36.37.36-.36.36.35.36-.36.37.39.36-.37.36.34.36-.35.36-.04.37.39.36-.39.36.04.36.33.36-.35.37.39.36-.4.36.35.36-.35.37.4.36-.4.36-.01.36.37.36-.36.37.36.36-.34.36-.02"/><use xlink:href="#15585__b" color="#F44336" transform="matrix(3.75 0 0 3.75 125.4 156.25)"/><use xlink:href="#15585__b" color="#F44336" transform="matrix(3.75 0 0 3.75 56.25 37.51)"/></g><text stroke-linecap="round" stroke-linejoin="round" color="#000" font-family="KaTeX_Main" font-size="8" transform="translate(76.8 55.11)"><tspan>RedBlackRelaxedTopDown</tspan></text><g fill="none" stroke="currentColor" stroke-linecap="round" stroke-linejoin="round" color="#000"><path stroke="violet" stroke-dasharray="4.0,2.0,1.0,2.0" d="M41.3 52.51h29.9M28 158.83l.36.34.36-.39.37.35.36-.35h.36l.36.32.36-.36.37.02.36.22.36-.29.36.46.37-.41.36.32.36-.31.36.37.36-.42.37-.03.36.37.36-.33.36.34.36-.36.37-.11.36.26.36-.43.36.6.36-.24.37.31.36-.41.36.03.36.33.36-.36.37.32.36-.3.36.35.36-.35.37.33.36-.42.36.02.36.32.36-.43.37.18.36.3.36-.37.36.31.36-.25.37.3.36-.4.36.29.36-.26.36.32.37-.38.36-.04.36.48.36-.5.37.2.36-.43.36.29.36.52.36-.43.37.36.36-.4.36.39.36-.39.36-.01.37.31.36-.3.36.37.36-.34.36.33.37-.37.36.33.36-.41.36.02.37.3.36-.27.36.01.36.31.36-.38.37.46.36-.43.36.36.36-.43.36.42.37-.37.36-.01.36.32.36-.35.36.41.37-.41.36.16.36-.42.36.3.36.43.37-.41.36.35.36-.41.36.4.37-.43.36-.01.36.31.36-.21.36.31.37-.37.36.39.36-.37.36.34.36-.43.37.01.36.32.36-.39.36.17.36.3.37-.35.36.3.36-.34.36.35.37-.38.36.37.36-.49.36.19.36.33.37-.51.36.28.36-.4.36.34.36-.43.37.03.36.38.36-.18.36.51.36-.32.37.02.36.32.36-.35.36.32.36-.39.37.37.36-.49.36.54.36-.43.37.38.36-.4.36-.02.36.39.36-.41.37.03.36.28.36-.29.36.41.36-.38.37.36.36-.38.36.4.36-.38.36-.08.37.43.36-.38.36.36.36-.38.37.35.36-.36.36-.02.36.33.36-.3.37.3.36-.33.36-.11.36.26.36-.04.37.33.36-.37.36.34.36-.41.36.38.37-.35.36-.03.36.34.36-.41.36.12.37.39.36-.41.36.34.36-.35.37.31.36-.36.36.33.36-.29.36.18.37-.38.36.29.36.3.36-.42.36.35.37-.43.36.45.36-.43.36-.01.36.35.37-.36.36.44.36-.34.36-.06.37.33.36-.36.36.25.36-.48.36.29.37-.34.36.37.36-.34.36.31.36.48.37-.34h.36l.36.31.36-.36.36.32.37-.35.36.35.36-.35.36.24.37-.21.36-.02.36.31.36-.38.36.33.37-.33.36.36.36-.4.36.36.36-.38.37-.08.36.58.36-.41.36.36.36-.38.37-.02.36.42.36-.38.36.32.36-.35.37.32.36-.35.36.4.36-.43.37-.01.36.37.36-.41.36.07.36.34.37-.42.36.42.36-.55.36.37.36-.05.37.29.36-.38.36.01.36.34.36-.39.37.39.36-.39.36.33.36-.38.37.33.36-.3.36.08.36.31.36-.36.37-.06.36.35.36-.31.36.3.36-.37.37.42.36-.5.36.25.36-.07.36.39.37-.44.36.02.36.31.36-.41.36.07.37.31.36-.34.36.32.36-.38.37.38.36-.23.36.3.36-.39.36-.02.37.36.36-.49.36.22.36-.39.36.36.37-.38.36.43.36-.16.36.15.36.37.37-.4.36.02.36.29.36-.32.37.4.36-.43.36.34.36-.37.36.29.37-.28.36.06.36.24.36-.32.36.38.37-.4.36.03.36.33.36-.38.36.37.37-.37.36.14.36-.1.36.47.36-.47.37-.01.36.32.36-.36.36.44.37-.36.36.29.36-.27.36.3.36-.4.37.03.36.4.36-.43.36.03.36.29.37-.36.36.34.36-.32.36.32.36-.35.37.32.36-.52.36.2.36.53.37-.4.36.3.36-.36.36-.02.36.36.37-.34.36.3.36-.32.36.32.36-.41.37-.02.36.46.36-.38.36.34.36-.36.37.35.36-.43.36.43.36-.39.37.35.36-.32.36-.15.36.29.36-.04.37-.02.36.31.36-.37.36.36.36-.42.37.29.36-.43.36.35.36-.39.36-.03.37.31.36-.31.36.35.36-.4.36-.01.37.33.36-.4.36.39.36-.29.37.3.36-.4.36.08.36.34.36-.24.37.48.36-.29.36.38.36-.23.36.34.37-.39.36.06.36.33.36-.42.36.04.37.32.36-.41.36.39.36-.33.37.32.36-.36.36.36.36-.39.36.33.37-.31.36-.03.36.34.36-.32.36.17.37-.34.36.26.36.32.36-.42.36.34.37-.37.36.29.36-.23.36-.03.36.31.37-.36.36.33.36-.39.36.44.37-.36.36.35.36-.36.36-.01.36.3.37-.36.36.07.36.28.36-.35.36.37.37-.52.36.39.36-.06.36.37.36-.45.37.01.36.34.36-.37.36.36.37-.35.36.33.36-.37.36-.04.36.36.37-.38.36.51.36-.41.36.34.36-.48h.37l.36.43.36-.29.36.31.36-.41.37.38.36-.38.36.32.36-.33.37.09.36.31.36-.36.36-.01.36.33.37-.44.36.47.36-.41.36.38.36-.33.37.27.36-.36.36.02.36.39.36-.33.37.32.36-.34.36.3.36-.39.36.13.37.29.36-.38.36.23.36-.5.37.06.36.58.36-.16.36.27.36-.37.37.37.36-.37.36.31.36-.29.36.35.37-.39h.36l.36.29.36-.35.36.01.37.41.36-.38.36.35.36-.41.37.38.36-.43.36.44.36-.38.36-.03.37.35.36-.37.36.2.36-.18.36.51.37-.37.36-.05.36.37.36-.42.36.33.37-.26.36-.09.36.3.36-.28.36.35.37-.4.36.34.36-.33.36.36.37-.41.36.09.36.26.36-.38.36.07.37.33.36-.31.36.23.36-.53.36.37.37-.29.36.63.36-.31.36.32.36-.37.37-.03.36.36.36-.42.36.39.37-.38.36.33.36-.37h.36l.36.3.37-.28.36.41.36-.43.36.04.36.25.37-.32.36.36.36-.31.36.34.36-.41.37.39.36-.39.36-.07.36.45.36-.25h.37l.36.32.36-.35.36.3.37-.41.36.45.36-.38.36.33.36-.35h.37l.36.28.36-.41.36.31.36-.44.37.31.36-.35.36.33.36-.34h.36l.37.42.36-.4.36.35.36-.28.37-.04.36.34.36-.1.36.41.36-.28.37.37.36-.25.36.27.36-.36.36.04.37.35.36-.43.36.02.36.34.36-.34.37.38.36-.34.36.33.36-.39.37.36.36-.37.36.01.36.3.36-.31.37.35.36-.34.36.37.36-.51.36.3.37-.09h.36l.36.28.36-.35.36-.01.37.36.36-.39.36.36.36-.34.36.31.37-.33.36.31.36-.35.36.34.37-.28.36-.01.36.32.36-.36h.36l.37.3.36-.33.36.39.36-.38.36.35.37-.34.36.24.36-.46.36.28.36.44.37-.4.36.29.36-.37.36.35.37-.38.36.42.36-.37.36-.06.36.43.37-.44.36.01.36.33.36-.22.36.35.37-.37.36.34.36-.52.36.48.36-.37.37.03.36.3.36-.35.36.35.36-.38.37-.06.36.4.36-.26.36.32.37-.36.36.38.36-.41.36.31.36-.38.37.07.36.3.36-.31.36.37.36-.4.37.33.36-.29.36.35.36-.37.36-.04.37.38.36-.39.36-.04.36.46.37-.34.36.32.36-.47.36.24.36-.36.37.41.36-.06.36.08.36.26.36-.4.37.35.36-.33.36-.03.36.37.36-.37.37.25.36-.23.36.32.36-.35.36-.06.37.44.36-.39.36.35.36-.36.37.31.36-.37.36.35.36-.3.36.36.37-.4.36.03.36.33.36-.57.36.19.37.49.36-.34.36.28.36-.31.36.35.37-.45.36.44.36-.36.36-.15.37.4.36-.3.36.32.36-.4.36.02.37.37.36-.34.36.33.36-.35.36.3.37-.37.36.03.36.41.36-.34.36.28.37-.5.36.23.36-.27.36.54.37-.15.36-.01.36.26.36-.34.36-.03.37.36.36-.41.36.37.36-.35.36.33.37-.35.36.35.36-.43.36.38.36-.28.37-.01.36.33.36-.35.36.27.36-.32.37.05.36.35.36-.41.36.36.37-.35.36.35.36-.42.36.07.36.52.37-.39.36.3.36-.35.36.32.36-.39.37.41.36-.38h.36l.36.3.36-.33.37.01.36.31.36-.46.36.27.37-.4.36.33.36-.33.36.31.36-.39h.37l.36.47.36-.39.36.29.36-.32.37.37.36-.31.36.14.36.59.36-.35.37.34.36-.34.36.3.36-.36.36.03.37.34.36-.39.36.37.36-.34.37.32.36-.37.36.35.36-.31.36-.01.37.33.36-.34.36-.05.36.39.36-.37.37.38.36-.38.36.34.36-.35.36.3.37-.5.36.1.36.53.36-.44.37.38.36-.37.36.36.36-.36.36-.1.37.47.36-.42.36.34.36-.34h.36l.37.28.36-.34.36.45.36-.31.36.3.37-.37.36.33.36-.39.36.36.36-.3h.37l.36.33.36-.46.36-.13.37.35.36-.24.36.55.36-.28.36.29.37-.39.36.39.36-.44.36.03.36.33.37-.33.36.35.36-.38.36.33.36-.34.37-.03.36.46.36-.34.36.31.37-.35.36-.01.36.27.36-.27.36.39.37-.39.36.32.36-.31.36.34.36-.38.37-.07.36.41.36-.31.36.02.36.28.37-.34.36.32.36-.34.36.36.37-.34.36.21.36-.32.36.4.36-.36.37-.05.36.39.36-.25.36.3.36-.39.37.4.36-.4.36-.03.36.38.36-.33.37.31.36-.39.36-.1.36.26.36-.32.37.51.36-.14.36.4.36-.4.37.35.36-.39.36-.03.36.3.36-.29.37-.01.36.31.36-.35"/><use xlink:href="#15585__g" color="violet" transform="matrix(3.75 0 0 3.75 182.98 157.98)"/><use xlink:href="#15585__g" color="violet" transform="matrix(3.75 0 0 3.75 56.25 52.51)"/></g><text stroke-linecap="round" stroke-linejoin="round" color="#000" font-family="KaTeX_Main" font-size="8" transform="translate(241.1 10.11)"><tspan>LBSTBottomUp</tspan></text><g fill="none" stroke="currentColor" stroke-linecap="round" stroke-linejoin="round" color="#000"><path stroke="#3B75EA" d="M205.6 7.51h29.9M28 159.4l.36-.38.36-.03.37.39.36-.37.36.35.36-.37.36.37.37-.38.36.39.36-.38h.36l.37.32.36-.35.36.39.36-.39.36.37.37-.37.36.34.36-.34.36-.01.36.35.37-.36.36.02.36.32.36-.39.36.35.37-.33.36.39.36-.38.36.37.36-.4.37.03.36.34.36-.35.36.36.37-.37.36-.05.36.39.36-.35.36.36.37-.38.36.39.36-.42.36.4.36-.37h.37l.36.38.36-.37.36.34.36-.41.37.35.36-.38.36.38.36-.38.37-.01.36.34.36-.34.36.01.36.33.37-.34.36.37.36-.42.36.38.36-.35.37.38.36-.38h.36l.36.34.36-.35.37.37.36-.38h.36l.36.35.37-.35.36.33.36-.4.36.42.36-.38.37.03.36.36.36-.41.36.39.36-.36.37.34.36-.35.36.37.36-.39.36.34.37-.34h.36l.36.38.36-.37h.36l.37.35.36-.36.36.37.36-.39.37.4.36-.39.36.33.36-.39h.36l.37.35.36-.35.36.43.36-.41h.36l.37.39.36-.39.36.37.36-.36.36.36.37-.4.36.03.36.36.36-.36.37.37.36-.37.36.34.36-.35.36.38.37-.39.36.01.36.36.36-.41.36.01.37.36.36-.34.36.38.36-.38.36.34.37-.36.36.4.36-.39.36.4.36-.38.37-.03.36.34.36-.35.36.39.37-.39h.36l.36.38.36-.4.36.4.37-.36.36.35.36-.38.36.03.36.32.37-.38.36.36.36-.38.36.39.36-.39.37.37.36-.39.36.02.36.36.37-.38.36.02.36.35.36-.39.36.37.37-.35.36.36.36-.34.36.35.36-.4.37.01.36.38.36-.37.36.37.36-.37.37.35.36-.37.36-.03.36.39.36-.34.37.36.36-.37.36.36.36-.35h.37l.36.35.36-.36.36.38.36-.4.37.35.36-.33.36.35.36-.35.36.01.37.32.36-.35.36.01.36.36.36-.36.37.37.36-.38.36.32.36-.38.37.32.36-.33.36.02.36.39.36-.36.37.36.36-.36.36.36.36-.36.36-.01.37.36.36-.38.36.37.36-.34h.36l.37.35.36-.36.36.35.36-.35.37.35.36-.35.36.36.36-.38.36.35.37-.36.36-.03.36.39.36-.35.36.01.37.34.36-.35.36.36.36-.36.36.37.37-.36.36.34.36-.38.36.01.36.36.37-.35.36.37.36-.37.36.33.37-.35h.36l.36.38.36-.37.36.37.37-.41.36-.01.36.35.36-.35.36.35.37-.39.36.36.36-.36.36.37.36-.36.37.07.36.35.36-.36.36-.03.37.36.36-.33.36.35.36-.37.36.37.37-.36.36.35.36-.35.36.35.36-.35.37.01.36.34.36-.38.36.34.36-.35.37.39.36-.37h.36l.36.36.36-.36.37.37.36-.36.36-.01.36.35.37-.37.36.34.36-.34.36.36.36-.35.37.37.36-.39.36.01.36.36.36-.35h.37l.36.35.36-.37.36.33.36-.36.37.34.36-.36.36.37.36-.37.37.05.36.33.36-.33.36.34.36-.35.37.37.36-.39.36.37.36-.36h.36l.37.38.36-.4.36.36.36-.35h.36l.37.37.36-.38.36.37.36-.37.36.35.37-.39.36.36.36-.34.36.01.37.37.36-.36.36.03.36.33.36-.35.37.37.36-.37.36.35.36-.39.36.38.37-.37.36.03.36.34.36-.35.36.36.37-.36.36.36.36-.38.36.38.37-.38.36-.03.36.36.36-.39.36.04.37.31.36-.33.36.34.36-.36.36.35.37-.34.36.37.36-.38.36.35.36-.36.37.02.36.34.36-.35.36.02.37.34.36-.36.36.36.36-.38.36.38.37-.38.36.36.36-.38.36-.01.36.34.37-.34.36.38.36-.34.36.35.36-.36.37.35.36-.35h.36l.36.36.36-.38.37.02.36.32.36-.35.36.37.37-.35.36.34.36-.34.36.36.36-.36h.37l.36.36.36-.37.36.34.36-.38.37-.01.36.35.36-.35.36.34.36-.33.37.39.36-.38.36.35.36-.34.37.02.36.34.36-.38.36.37.36-.37.37.38.36-.36.36.35.36-.36.36.01.37.35.36-.35h.36l.36.34.36-.37.37.34.36-.37.36.37.36-.35.36.38.37-.38.36.02.36.36.36-.36.37.36.36-.36.36.01.36.33.36-.36.37.34.36-.34.36.37.36-.37.36.01.37.36.36-.34.36.35.36-.36.36.36.37-.37.36.34.36-.4.36.38.37-.37h.36l.36.33.36-.36.36.04.37.32.36-.32.36.35.36-.33.36.35.37-.35.36.34.36-.36.36.06.36.32.37-.35.36.35.36-.37h.36l.37.37.36-.37.36.38.36-.38.36.34.37-.4.36.04.36.35.36-.32.36.34.37-.36.36.36.36-.37.36.4.36-.38.37-.01.36.35.36-.37.36.02.36.36.37-.35.36.35.36-.36.36.35.37-.36.36.39.36-.39.36.38.36-.39.37-.01.36.32.36-.35.36.37.36-.36h.37l.36.36.36-.34.36.37.36-.34.37.34.36-.35.36-.02.36.34.37-.33.36.37.36-.39.36.39.36-.38.37.35.36-.33.36-.01.36.37.36-.37.37.02.36.24.36-.3.36.35.36-.36.37.38.36-.34.36.33.36-.34.36.01.37.35.36-.35.36.37.36-.39.37.33.36-.33h.36l.36.37.36-.36.37.35.36-.36.36.38.36-.38.36.01.37.34.36-.35.36.34.36-.36.36.35.37-.38.36.39.36-.38.36-.04.37.39.36-.38.36.02.36.36.36-.36.37.34.36-.37.36.37.36-.35.36.37.37-.38.36.03.36.36.36-.3.36.33.37-.36.36.35.36-.35.36-.04.36.37.37-.37.36.35.36-.33.36.02.37.35.36-.36.36.37.36-.38.36.39.37-.38.36.35.36-.38.36.39.36-.38h.37l.36.37.36-.37.36.03.36.32.37-.34.36.36.36-.35.36.35.37-.37.36.33.36-.36.36.01.36.34.37-.35.36.34.36-.36.36.39.36-.36.37.01.36.37.36-.36.36.35.36-.38.37.03.36.34.36-.35.36.35.37-.36.36.36.36-.34.36.34.36-.34.37.03.36.31.36-.37.36-.01.36.35.37-.34.36.35.36-.35.36.38.36-.39.37.4.36-.37.36.34.36-.33.36-.04.37.36.36-.35.36.38.36-.38.37.39.36-.36.36-.02.36.35.36-.36.37.37.36-.39.36.02.36.33.36-.36.37.36.36-.38.36.35.36-.38.36.39.37-.37.36-.01.36.34.36-.32.37.01.36.36.36-.34.36.35.36-.34.37.37.36-.37.36.39.36-.37.36.01.37.33.36-.36.36.34.36-.36.36.37.37-.4.36.39.36-.36.36-.01.36.35.37-.34.36.37.36-.37.36.04.37.33.36-.36.36.36.36-.36.36.35.37-.35.36.33.36-.37.36.06.36.33.37-.34.36.01.36.32.36-.35.36.36.37-.36.36.36.36-.38.36.36.37-.37h.36l.36.36.36-.34.36.35.37-.35.36.38.36-.37.36.38.36-.4.37-.03.36.38.36-.34h.36l.36.32.37-.34.36.35.36-.34.36.36.36-.37.37.35.36-.34.36.36.36-.38h.37l.36.33.36-.33.36.02.36.36.37-.35.36.34.36-.34.36.34.36-.34.37.36.36-.38.36-.01.36.35.36-.33.37.35.36-.36.36.35.36-.35.37.36.36-.36.36-.02.36.37.36-.37.37.02.36.32.36-.34.36.35.36-.38.37.34.36-.35.36.36.36-.36.36.01.37.34.36-.36.36.36.36-.34.37-.02.36.37.36-.38.36.37.36-.37.37.4.36-.39.36.36.36-.36.36.01.37.33.36-.32.36.33.36-.35.36.33.37-.35.36.38.36-.38h.36l.36.36.37-.34.36.03.36.29.36-.32.37.33.36-.33.36.36.36-.39.36.37.37-.36.36.02.36.35.36-.35.36.34.37-.36.36-.02.36.37.36-.37.36.35.37-.35.36.35.36-.4.36.03.37.36.36-.32.36.34.36-.37.36.36.37-.35.36.4.36-.37.36.34.36-.37.37-.02.36.38.36-.37.36.03.36.35.37-.36.36.36.36-.39.36.38.36-.38.37.4.36-.4.36.04.36.32.37-.35.36.39.36-.37h.36l.36.35.37-.35.36.36.36-.38.36.38.36-.35.37-.01.36.34.36-.34.36.32.36-.33.37.38.36-.39.36.37.36-.38.37.03.36.3.36-.37.36.07.36.28.37-.32.36.34.36-.4.36.4.36-.37.37.33.36-.33.36.37.36-.36h.36l.37.39.36-.39.36.34.36-.31.36-.03.37.35.36-.33.36.34.36-.36.37.35.36-.36.36.01.36.37.36-.34.37.33.36-.37.36.36.36-.34.36.37.37-.36.36.03.36.32.36-.37.36.02.37.35.36-.34.36.35.36-.39.37.38.36-.34.36.34.36-.37.36.02.37.31.36-.34.36.38.36-.38.36.37.37-.38.36.01.36.32.36-.34.36.35.37-.33.36.37.36-.35.36.01.37.32.36-.34.36.35.36-.37.36.38.37-.36.36.36.36-.37h.36l.36.35.37-.34h.36l.36.33.36-.34.36.33.37-.33.36.34.36-.34.36.34.36-.37.37.02.36.33.36-.32.36.38.37-.36.36.34.36-.38h.36l.36.38.37-.35.36.34.36-.38"/><use xlink:href="#15585__a" color="#3B75EA" transform="matrix(3.75 0 0 3.75 240.55 158.35)"/><use xlink:href="#15585__a" color="#3B75EA" transform="matrix(3.75 0 0 3.75 220.55 7.51)"/></g><text stroke-linecap="round" stroke-linejoin="round" color="#000" font-family="KaTeX_Main" font-size="8" transform="translate(241.1 25.11)"><tspan>LBSTRelaxed</tspan></text><g fill="none" stroke="currentColor" stroke-linecap="round" stroke-linejoin="round" color="#000"><path stroke="#FFAB00" stroke-dasharray="4.0,2.0,1.0,2.0" d="M205.6 22.51h29.9M28 158.52l.36-.22.36.5.37-3.29.36 3.37.36-.56.36.64.36-.53.37-.49.36.89.36-.55.36.56.37-1.62.36 1.58.36-.54.36.51.36-.46.37-.24.36.69.36-.55.36.18.36-7.28.37 7.25.36.16.36-.06.36-.22.36.17.37.18.36-.2.36-1.18.36 1.65.36-.48.37.21.36-.22.36-.12.36.08.37-.15.36.51.36-3.38.36 3.43.36-.26.37.08.36-.25.36-.51.36.94.36-.59.37.53.36-1.58.36 1.6.36-.58.36.69.37-.53.36-.48.36.84.36-.48.37.09.36-7.37.36 7.47.36.13.36-.18.37-.16.36.13.36.51.36-.67.36.15.37-.85.36.88.36.24.36-.27.36-.07.37.04.36.12.36.09.36-.23.37-2.53.36 2.6.36-.2.36.57.36-.91.37.89.36-.57.36.65.36-1.54.36 1.27.37-.27.36.26.36-.21.36-.52.36.88.37-.57.36.23.36-17.3.36 17.22.36.09.37-.01.36-.36.36.34.36.18.37-.08.36-.13.36-.92.36.91.36.22.37-.22.36-.12.36.14.36-.22.36.68.37-3.61.36 3.54.36-.37.36-.21.36.58.37-.91.36.86.36-.54.36.54.37-1.61.36 1.7.36-.5.36-.16.36.57.37-.89.36.85.36-.55.36.2.36-7.53.37 7.53.36.2.36-.09.36.22.36-.85.37.88.36-.56.36.19.36-.89.36.87.37.19.36-.08.36.22.36-.8.37.41.36.28.36-.31.36-2.66.36 2.73.37-.16.36.51.36-.9.36 1.04.36-.52.37.19.36-.19.36-.9.36.93.36-.19.37.51.36-.7.36.28.36.4.37-.56.36-16.73.36 16.85.36.25.36-.13.37.36.36-.95.36.58.36.17.36-.19.37-.92.36.91.36.21.36-.1.36.26.37-.83.36.45.36.24.36-.27.36-2.68.37 2.73.36-.16.36.5.36-.49.37.24.36-.08.36.15.36-.14.36-.86.37.8.36-.13.36.51.36-.32.36-.56.37.85.36-.51.36.49.36-8.15.36 8.18.37-.48.36.48.36-.97.36.61.37.14.36-.04.36.23.36-1.57.36 1.58.37-.48.36.46.36-.86.36.5.36.48.37-.67.36-2 .36 1.6.36.55.36.13.37-.06.36-.23.36.2.36.17.37-.09.36.26.36-1.58.36 1.23.36.2.37-.21.36-.55.36.89.36-.4.36-35.65.37 35.51.36.21.36-.05.36-.57.36.58.37.12.36.04.36-.17.36-1.58.36 1.7.37.11.36-.17.36-.17.36.26.37-.12.36.16.36-.13.36-3.19.36 3.52.37-.54.36.56.36-.92.36 1.03.36-.5.37.2.36-.24.36-1.17.36 1.64.36-.59.37.51.36-.92.36.69.36.22.37-.55.36-7.29.36 7.4.36.47.36-.57.37.63.36-.99.36.51.36.19.36-.06.37-.28.36-.51.36 1.09.36-.6.36.62.37-.97.36.55.36.17.36-.08.36-3.27.37 3.49.36-.23h.36l.36-.06.37-.21.36.16.36.18.36-.11.36-.21.37-.59.36.7.36.18.36-.16.36-.56.37.89.36-.44.36-1.29.36-14.76.36 16.46.37-.51.36.17.36-.24.36.21.37.52.36-.73.36.57.36-1.77.36 1.83.37-.57.36.55.36-.96.36.57.36.48.37-.68.36.15.36-2.82.36 2.84.36.17.37-.15.36-.18.36.18.36.51.36-.69.37.16.36-.91.36 1 .36.08.37-.16.36-.57.36 1.02.36-.53.36.17.37-8.27.36 8.59.36-.41.36-.18.36.58.37-1.04.36 1.01.36-.61.36.54.36-1.63.37 1.79.36-.45.36-.22.36.57.37-.97.36.94.36-.57.36.28.36-2.92.37 2.77.36.59.36-.72.36.61.36-.99.37.97.36-.6.36.28.36-.97.36.84.37.4.36-.57.36.24.36-.23.37.16.36-35.71.36 35.41.36.54.36-.53.37.32.36-.3.36.29.36.35.36-.41.37.43.36-1.76.36 1.76.36-.49.36.17.37-.25.36.31.36-.06.36.15.36-.18.37-2.83.36 2.83.36.24.36-.22.37-.18.36.17.36.15.36.02.36-.18.37-.9.36.99.36.08.36-.17.36-.58.37 1.08.36-.52.36.17.36-8.01.36 8.17.37-.29.36-.19.36.6.36-1 .37.94.36-.57.36.68.36-1.46.36 1.01h.37l.36-.21.36.57.36-.97.36.57.37.35.36-.48.36-2.68.36 2.86.36.3.37-.57.36.6.36-.99.36.6.36.13.37-.06.36.24.36-1.6.36 1.62.37-.53.36.15.36-.17.36.15.36.48.37-.72.36-17.24.36 17.85.36-.57.36.61.37-.93.36 1.01.36-.45.36.17.36-.16.37-1.02.36 1.1.36-.25.36.52.37-.93.36.7.36.21.36-.58.36.64.37-3.59.36 3.57.36-.57.36.58.36-.99.37.73.36.2.36-.58.36.65.36-1.7.37 1.67.36-.57.36.19.36.41.37-.99.36.86.36-.48.36-7.76.36 8.21.37-.22.36.07.36-.14.36-.37.36.4.37.19.36-.14.36-.06.36-.96.36.96.37.16.36-.17.36-.58.36 1.06.36-.5.37.17.36-.16.36-2.77.36 2.75.37.25.36-.21.36-.6.36 1 .36-.43.37.16.36-.17.36-.98.36 1.04.36-.28.37.58.36-.65.36-72.13.36 71.93h.36l.37.68.36-1.03.36 1.12.36-.28.37.16.36-.21.36-1.66.36 1.73.36-.18.37.52.36-.34.36-.39.36.76.36-.5.37.49.36-4.85.36 4.91.36-.46.36.45.37-.39.36-.53.36.93.36-.61.36.55.37-1.66.36 1.83.36-.5.36.16.37-.18.36-.59.36.95.36-.6.36.7.37-8.73.36 8.27.36.15.36-.05.36.28.37-1.03.36 1.01.36-.53.36.52.36-1.71.37 1.38.36.5.36-.7.36.13.37-.14.36.15.36.18.36-.19.36-2.78.37 2.81.36.49.36-.65.36.18.36-.25.37.27.36.11.36-.22.36-.86.36 1.06.37.24.36-.6.36.23.36-.26.36.22.37.14.36-17.26.36 16.68.36.72.37-.42.36.48.36-.95.36.96.36-.31.37.2.36-.67.36-.45.36 1.21.36-.58.37.24.36-.19.36.17.36.53.36-.69.37-1.35.36.32.36 1.62.36-.54.37.18.36-.25.36.19.36.5.36-.68.37.52.36-1.58.36 1.68.36-.62.36.19.37-.19.36.28.36-.11.36.12.36-7.96.37 8.19.36-.53.36.54.36-.38.37-.38.36.42.36-.18.36.63.36-.5.37-.89.36.94.36-.15.36.49.36-.94.37.96.36-.33.36.09.36-.45.36-2.16.37 2.47.36-.13.36.44.36-.89.36.91.37-.31.36.09.36-.17.36-.92.37 1.01.36-.28.36.57.36-.72.36.23.37-3.09.36-30.46.36 33.85.36-.53.36.64.37-.86.36.92.36-.39.36-.17.36.6.37-1.68.36 1.68.36-.57.36.33.37.23.36-.92.36.91.36-.54.36.56.37-3.62.36 3.36.36.12.36-.18.36.27.37-.68.36.71.36-.52.36.5.36-1.61.37 1.67.36-.59.36.33.36.24.36-.98.37.64.36.05.36-.12.36-7.5.37 7.52.36.13.36-.14.36-.43.36.56.37-.07.36.08.36-.11.36-1 .36 1 .37-.19.36.68.36-.51.36-.2.36.18.37.2.36-.19.36-3.05.36 3.42.37-.53.36.64.36-.46.36-.23.36.21.37.19.36-.2.36-1.28.36 1.63.36-.24.37.05.36-.25.36-.42.36.8.36-.56.37-17.35.36 17.57.36.31.36-.57.36.64.37-.99.36.65.36.12.36-.07.37-1.15.36 1.02.36.18.36.07.36-.13.37-.26.36.19.36.17.36-.06.36-3.3.37 3.67.36-.41.36.11.36-.11.36-.25.37.2.36.16.36-.06.36-.11.37-.93.36.95.36-.18.36.49.36-.93.37 1.06.36-.48.36.15.36-8.15.36 8.32.37-.68.36.5.36.18.36-1.1.36 1.13.37-.53.36.61.36-1.91.36 1.62.37.23.36-.54.36.51.36-.92.36.9.37-.2.36-.32.36-2.61.36 2.85.36.33.37-.53.36.54.36-.96.36.91.36-.25.37-.29.36.51.36-1.62.36 1.35.36.08.37-.14.36-73.73.36 73.14.36.63.37-.47.36.68.36-1.01.36.66.36.54.37-.64.36.53.36-1.7.36 1.82.36-.62.37.18.36.11.36-.25.36.51.36-.51.37.19.36-2.89.36 2.94.36.09.37-.15.36.37.36-.83.36.79.36-.5.37.54.36-1.66.36 1.33.36.31.36-.42.37.05.36-.21.36.24.36.12.36-.14.37-7.63.36 7.59.36.12.36-.09.36-.67.37 1.16.36-.52.36.2.36-.18.37-1.01.36 1.02.36-.23.36.72.36-.53.37-.18.36.21.36-.23.36.57.36-3.46.37 3.49.36-.59.36.7.36-.5.36-.19.37.24.36-.25.36.54.36-1.65.37 1.82.36-.55.36-.19.36.62.36-1 .37.95.36-.56.36-17.16.36 16.84.36.76.37-.48.36.19.36-.2.36.24.36.3.37-.31.36-1.07.36 1.16.36-.04.36.16.37-.19.36-.21.36.18.36.16.37.03.36-3.13.36 3.04.36-.06.36.23.37-.23.36-.23.36.19.36.16.36.02.37-.11.36-1.32.36 1.68.36-.62.36.54.37-.44.36.08.36-.02.36.2.37-8.24.36 7.98.36.54.36-.74.36.67.37-1 .36.97.36-.27.36.12.36-.24.37-1.3.36 1.74.36-.64.36.6.36-.95.37.69.36.24.36-.54.36.58.37-3.6.36 3.63.36-.62.36.56.36-.92.37.64.36.26.36-.52.36.16.36-.98.37 1.01.36.17.36-.09.36.23.36-.97.37.98.36-37.88.36 37.23.36.27.36-.01.37.3.36-.99.36 1.1.36-.6.37.6.36-1.69.36 1.28.36.52.36-.65.37.54.36-.95.36.61"/><use xlink:href="#15585__h" color="#FFAB00" transform="matrix(3.75 0 0 3.75 298.12 157.51)"/><use xlink:href="#15585__h" color="#FFAB00" transform="matrix(3.75 0 0 3.75 220.55 22.51)"/></g><text stroke-linecap="round" stroke-linejoin="round" color="#000" font-family="KaTeX_Main" font-size="8" transform="translate(241.1 40.11)"><tspan>TreapTopDown</tspan></text><g fill="none" stroke="currentColor" stroke-linecap="round" stroke-linejoin="round" color="#000"><path stroke="#00C853" stroke-dasharray="4.5,2.0,0.5,2.0,0.5,2.0" d="M205.6 37.51h29.9M28 159.91l.36.34.36-.37.37.36.36-.38h.36l.36.38.36-.39.37.37.36-.38.36.38.36-.38.37.37.36-.39h.36l.36.35.36-.36h.37l.36.35.36-.36.36.35.36-.38.37.37.36-.36.36.37.36-.37h.36l.37.35.36-.36.36.35.36-.37.36.36.37-.36.36.35.36-.36h.36l.37.35.36-.38.36.39.36-.39h.36l.37.36.36-.36.36.37.36-.38.36.37.37-.38.36.39.36-.38.36-.01.36.36.37-.41h.36l.36.37.36-.39.37.36.36-.38.36.38.36-.37.36.36.37-.37.36.01.36.35.36-.37.36.37.37-.37.36.37.36-.39.36.37.36-.35.37-.02.36.38.36-.39.36.38.37-.38.36.01.36.35.36-.36.36.37.37-.37.36.37.36-.4.36.39.36-.38h.37l.36.36.36-.39.36.02.36.35.37-.38.36.39.36-.37.36.36.36-.36.37.37.36-.38h.36l.36.36.37-.37.36.38.36-.4.36.39.36-.39.37.38.36-.38h.36l.36.37.36-.4.37.02.36.35.36-.37.36.38.36-.39.37.39.36-.38.36.37.36-.39.37.01.36.37.36-.38.36.37.36-.36.37-.01.36.36.36-.4.36.39.36-.36.37.38.36-.37.36.36.36-.4.36.01.37.37.36-.36.36.37.36-.37.36.37.37-.4.36.39.36-.38.36-.01.37.4.36-.39h.36l.36.36.36-.36.37.39.36-.41.36.38.36-.37.36.37.37-.4h.36l.36.35.36-.35.36.35.37-.36.36-.02.36.39.36-.38.37.38.36-.38.36.39.36-.4.36.38.37-.39.36-.01.36.38.36-.38.36.37.37-.39.36.39.36-.39.36.37.36-.35.37-.03.36.41.36-.4.36.02.36.36.37-.37.36.35.36-.35.36.37.37-.37.36.37.36-.39.36.02.36.35.37-.36.36.37.36-.37.36-.01.36.38.37-.39.36.37.36-.37.36.37.36-.38.37.03.36.34.36-.38.36.37.37-.37.36.37.36-.37.36.39.36-.41.37.03.36.35.36-.38.36.38.36-.36.37-.01.36.37.36-.36.36.35.36-.37.37.37.36-.38.36.4.36-.39h.37l.36.37.36-.37.36.35.36-.37.37.04.36.33.36-.35.36.34.36-.36.37.37.36-.36.36.01.36.34.36-.36.37.37.36-.37.36.38.36-.39.36.39.37-.4.36.03.36.35.36-.41.37.02.36.33.36-.33.36.36.36-.35.37.35.36-.37.36.38.36-.36.36.01.37.3.36-.33.36.34.36-.35.36.35.37-.36h.36l.36.37.36-.38.37.38.36-.37.36.36.36-.4.36.04.37.35.36-.38.36.38.36-.4.36.38.37-.35.36.37.36-.38.36-.02.36.36.37-.36.36-.01.36.35.36-.35.36.35.37-.33.36.4.36-.41.36.37.37-.37.36.01.36.34.36-.36.36.37.37-.36.36.35.36-.37h.36l.36.37.37-.38.36.38.36-.38.36.37.36-.36h.37l.36.35.36-.37.36.36.37-.35.36.34.36-.35.36.35.36-.35.37.01.36.33.36-.34.36.01.36.34.37-.36.36.36.36-.38.36.39.36-.4.37.4.36-.41.36.04.36.36.36-.37.37.35.36-.37.36.36.36-.36.37.02.36.36.36-.35.36.34.36-.38.37.03.36.32.36-.33.36.34.36-.38.37.34.36-.35.36.36.36-.36.36.02.37.33.36-.34.36.32.36-.35.37.01.36.35.36-.36.36.36.36-.33.37.34.36-.36.36.37.36-.39h.36l.37.36.36-.36.36.36.36-.36.36.38.37-.37.36-.01.36.37.36-.36.37.37.36-.38.36.03.36.32.36-.34.37.36.36-.38.36.37.36-.37.36.38.37-.39.36.01.36.36.36-.36.36.01.37.34.36-.35.36.36.36-.37.36.36.37-.36.36.36.36-.37.36.03.37.3.36-.34.36.36.36-.33.36.36.37-.39.36.4.36-.41.36-.01.36.38.37-.37.36.37.36-.35.36-.03.36.38.37-.35.36.34.36-.39.36.39.37-.37.36.38.36-.37h.36l.36.35.37-.35.36-.01.36.32.36-.31.36.38.37-.4.36.39.36-.39.36.36.36-.37.37.01.36.33.36-.33.36.36.36-.35.37.34.36-.38.36.4.36-.37.37-.01.36.37.36-.35.36.36.36-.39.37-.01.36.36.36-.36.36.37.36-.39.37.41.36-.39.36.37.36-.37.36-.01.37.38.36-.38h.36l.36.36.37-.35.36.35.36-.4.36.38.36-.35.37.35.36-.34h.36l.36.32.36-.35.37.38.36-.4.36.37.36-.34.36.36.37-.35.36-.03.36.37.36-.34.37.01.36.31.36-.33.36.36.36-.38.37.35.36-.34.36.35.36-.36.36.03.37.31.36-.34.36.36.36-.37.36.01.37.35.36-.34.36.35.36-.36.36.37.37-.38.36.38.36-.38.36.01.37.35.36-.34.36.32.36-.35.36.37.37-.38.36.37.36-.36h.36l.36.36.37-.37.36-.01.36.36.36-.36.36.39.37-.42.36.38.36-.35.36.37.37-.38.36.02.36.32.36-.32.36.34.37-.39.36.04.36.36.36-.35.36.36.37-.38.36.36.36-.36.36.37.36-.38.37-.01.36.39.36-.39.36.39.36-.38.37.39.36-.38.36.37.36-.4.37-.02.36.42.36-.38.36-.01.36.35.37-.35.36.39.36-.38.36.37.36-.39.37.36.36-.38.36.03.36.35.36-.34.37.35.36-.35.36-.02.36.35.37-.35.36.36.36-.38.36.39.36-.38.37.01.36.36.36-.36.36.36.36-.37.37.35.36-.35.36.36.36-.35h.36l.37.32.36-.37.36.39.36-.39.36.02.37.35.36-.35.36.37.36-.36.37.36.36-.38.36.39.36-.42.36.06.37.32.36-.35.36.36.36-.34.36-.01.37.34.36-.35.36.38.36-.37.36.35.37-.37.36.04.36.32.36-.34.37.34.36-.37.36.39.36-.37.36.37.37-.38.36.02.36.31.36-.34h.36l.37.36.36-.35.36.36.36-.37.36.37.37-.36.36.37.36-.4.36.03.37.32.36-.33.36.37.36-.39.36.37.37-.36.36.02.36.32.36-.37.36.39.37-.38.36.37.36-.37.36.04.36.32.37-.35.36.38.36-.4.36.41.36-.42.37.39.36-.39.36.07.36.29.37-.31.36.01.36.3.36-.34.36.37.37-.36.36.34.36-.35.36.39.36-.38.37.03.36.31.36-.36.36.33.36-.3.37.37.36-.39h.36l.36.34.37-.38.36.4.36-.39.36.37.36-.33h.37l.36.32.36-.33.36.35.36-.35.37.34.36-.38.36.36.36-.37.36.02.37.33.36-.34.36.01.36.36.36-.38.37.34.36-.36.36.38.36-.34.37.38.36-.39.36-.01.36.34.36-.33.37.36.36-.38.36.36.36-.34.36-.01.37.39.36-.36.36.34.36-.38.36.01.37.34.36-.34.36.35.36-.37.37.4.36-.39.36.37.36-.35.36.03.37.31.36-.34.36.36.36-.37.36-.03.37.34.36-.34.36.39.36-.38.36.36.37-.39.36.38.36-.37.36.02.36.35.37-.42.36.44.36-.37.36.36.37-.39.36-.02.36.38.36-.33.36.37.37-.36h.36l.36.33.36-.37.36.38.37-.35.36.36.36-.41.36.39.36-.34h.37l.36.33.36-.36.36.03.37.31.36-.33.36.35.36-.35.36.35.37-.35.36.37.36-.37.36.37.36-.39h.37l.36.35.36-.35.36.37.36-.36.37.39.36-.43.36.05.36.37.37-.41.36.39.36-.41.36.06.36.34.37-.34.36.31.36-.34.36.35.36-.35.37.36.36-.35.36-.02.36.38.36-.37.37-.01.36.38.36-.38.36.34.36-.37.37.41.36-.35.36.28.36-.33.37-.01.36.37.36-.34.36.32.36-.36.37.39.36-.38.36.37.36-.36.36-.01.37.35.36-.35.36.38.36-.39.36.02.37.36.36-.36.36.33.36-.36.37.39.36-.37.36.38.36-.4.36.02.37.35.36-.32.36-.02.36.34.36-.35.37.33.36-.35.36.36.36-.33.36.34.37-.37h.36l.36.32.36-.34.36.35.37-.32.36.33.36-.33.36.35.37-.38.36.01.36.36.36-.35.36.04.37.32.36-.35.36.33.36-.33.36.37.37-.4.36.37.36-.35.36.02.36.32.37-.33.36.33.36-.33.36-.03.37.37.36-.38.36.33.36-.29.36.32.37-.33.36.34.36-.43.36.1.36.32.37-.39.36.38.36-.34.36.38.36-.39.37.41.36-.43.36-.03.36.44.36-.4.37.02.36.36.36-.35.36.35.37-.38.36.39.36-.39.36.36.36-.37.37.03.36.32.36-.38.36.4.36-.35.37-.02.36.39.36-.34.36.31.36-.35.37.38.36-.4.36.39.36-.41.37.04.36.36.36-.36.36.36.36-.4.37.36.36-.37.36.41.36-.39h.36l.37.37.36-.37.36-.02.36.37.36-.36.37.38.36-.34.36.38.36-.38.37.34.36-.37.36.02.36.32.36-.33.37.34.36-.34.36-.01.36.35.36-.37.37.38.36-.35.36.37.36-.38.36-.01.37.34.36-.33.36.37.36-.39.36.37.37-.36.36.34.36-.34.36.04.37.35.36-.38.36.33.36-.35.36.04.37.35.36-.39.36.34"/><use xlink:href="#15585__i" color="#00C853" transform="matrix(3.75 0 0 3.75 355.7 158.72)"/><use xlink:href="#15585__i" color="#00C853" transform="matrix(3.75 0 0 3.75 220.55 37.51)"/></g><text stroke-linecap="round" stroke-linejoin="round" color="#000" font-family="KaTeX_Main" font-size="8" transform="translate(241.1 55.11)"><tspan>Splay</tspan></text><g fill="none" stroke="currentColor" stroke-linecap="round" stroke-linejoin="round" color="#000"><path stroke="#29C3F6" d="M205.6 52.51h29.9M28 160.05l.36-.4.36.37.37-.37.36.35.36-.38.36.37.36-.38h.37l.36.36.36-.38.36.37.37-.38.36.37.36-.38.36-.02.36.38.37-.38.36.36.36-.35.36.36.36-.39.37-.01.36.38.36-.38.36.38.36-.4.37.38.36-.38.36.37.36-.38.36-.01.37.38.36-.39.36.01.36.35.37-.37.36.36.36-.38.36.37.36-.38.37.37.36-.38h.36l.36.35.36-.36.37.37.36-.36.36.36.36-.38.36-.02.37.36.36-.37.36.37.36-.39h.37l.36.35.36-.35.36.37.36-.4.37.39.36-.39.36.38.36-.39.36.38.37-.38h.36l.36.36.36-.38.36.03.37.34.36-.37.36.37.36-.39.37.38.36-.37.36.36.36-.39.36.01.37.38.36-.39.36.35.36-.37.36.39.37-.4.36.01.36.35.36-.37.36.38.37-.39.36.02.36.34.36-.36.36.38.37-.38.36.37.36-.39.36.37.37-.38.36.01.36.34.36-.35.36-.02.37.36.36-.36.36.39.36-.38.36.35.37-.39.36.39.36-.41.36.42.36-.4.37.02.36.37.36-.4.36.39.37-.4.36.39.36-.39.36.01.36.38.37-.4.36.39.36-.39.36-.01.36.39.37-.37.36.37.36-.38.36.34.36-.38.37.39.36-.38.36.01.36.37.36-.36.37-.05.36.38.36-.35.36.35.37-.37.36.37.36-.38.36.38.36-.38.37.04.36.31.36-.35.36.36.36-.38.37.37.36-.37.36.37.36-.37.36-.03.37.41.36-.4.36.38.36-.39h.37l.36.37.36-.37.36.37.36-.38.37.38.36-.4.36.41.36-.41.36.02.37.35.36-.36.36-.03.36.38.36-.35.37.35.36-.35.36.36.36-.37.36.37.37-.38.36-.01.36.38.36-.37.37.33.36-.34.36.36.36-.35.36.35.37-.38h.36l.36.37.36-.38.36.03.37.32.36-.33.36.35.36-.37.36.37.37-.35.36.36.36-.42.36.4.37-.41.36.02.36.36.36-.32.36-.03.37.35.36-.36.36.36.36-.37.36.38.37-.39.36.38.36-.39.36.01.36.35.37-.35.36.34.36-.35.36.38.37-.4.36.41.36-.38.36-.04.36.39.37-.33.36-.03.36.36.36-.4.36.38.37-.38.36.39.36-.36.36.38.36-.4.37.02.36.34.36-.34.36.33.36-.35.37-.02.36.39.36-.38.36.33.37-.35.36.35.36-.35.36.37.36-.36.37-.03.36.35.36-.35.36.4.36-.4.37.34.36-.35.36.35.36-.34.36-.02.37.37.36-.37.36.01.36.34.37-.35.36.38.36-.38.36.34.36-.35.37.38.36-.41.36.03.36.33.36-.35.37.39.36-.39.36.02.36.34.36-.35.37.38.36-.39.36.37.36-.38.36.02.37.33.36-.32.36.32.36-.35.37.36.36-.38.36.37.36-.38.36.38.37-.36.36-.01.36.37.36-.38.36.01.37.35.36-.36.36.37.36-.38.36.39.37-.4.36.37.36-.39h.36l.37.38.36-.39.36.38.36-.4.36.02.37.38.36-.38.36.39.36-.39.36.37.37-.36h.36l.36.33.36-.33.36.33.37-.33.36.33.36-.35.36.37.36-.38.37.02.36.32.36-.37.36.02.37.36.36-.36.36.41.36-.41.36.35.37-.34.36.35.36-.38.36.38.36-.37.37-.02.36.39.36-.39.36.39.36-.37h.37l.36.38.36-.4.36.38.37-.38.36.36.36-.41.36.02.36.39.37-.38.36.39.36-.38.36.35.36-.37.37.38.36-.37h.36l.36.36.36-.36.37.02.36.32.36-.35.36.38.37-.38.36.36.36-.36.36.35.36-.36.37.03.36.31.36-.35.36.36.36-.36.37.35.36-.38.36.02.36.38.36-.39.37.37.36-.37.36.4.36-.38.36-.02.37.37.36-.39.36.39.36-.38.37.37.36-.38.36.39.36-.37.36.02.37.31.36-.32.36-.02.36.35.36-.36.37.37.36-.39.36.4.36-.43.36.4.37-.36h.36l.36.33.36-.34.37.35.36-.35.36.38.36-.44.36.03.37.39.36-.39.36.36.36-.37.36.03.37.3.36-.3.36.34.36-.4.36.39.37-.38.36.39.36-.38.36.38.36-.38.37-.02.36.37.36-.32.36-.03.37.37.36-.4.36.43.36-.38.36.37.37-.42.36.39.36-.38.36.02.36.34.37-.31.36.34.36-.39.36.38.36-.4.37.04.36.36.36-.38.36.37.37-.38.36.02.36.3.36-.33.36.34.37-.36.36.41.36-.38.36.36.36-.39.37.02.36.31.36-.34.36.06.36.28.37-.29.36.33.36-.39.36.41.37-.39.36.35.36-.35.36.39.36-.41.37.02.36.4.36-.4.36.38.36-.38.37.36.36-.39.36.01.36.38.36-.37.37.37.36-.35.36-.02.36.38.36-.38.37.38.36-.39.36.37.36-.39.37.38.36-.35.36-.01.36.34.36-.34.37-.02.36.34.36-.33.36.37.36-.38.37.38.36-.39.36.37.36-.38.36.05.37.29.36-.33.36.37.36-.39.37.39.36-.36.36.33.36-.34.36-.02.37.37.36-.35.36.37.36-.34.36-.03.37.37.36-.38.36.38.36-.41.36.4.37-.41.36.42.36-.42.36.02.36.36.37-.37h.36l.36.36.36-.37.37.34.36-.38.36.42.36-.39.36.37.37-.37.36.02.36.36.36-.37.36.33.37-.39.36.38.36-.34.36.39.36-.39.37.01.36.39.36-.39.36-.03.37.35.36-.35.36.37.36-.36.36.36.37-.39.36.41.36-.42.36.41.36-.4.37.01.36.38.36-.39.36.04.36.33.37-.34.36.34.36-.36.36.36.36-.37.37.37.36-.39.36.04.36.35.37-.35.36.34.36-.35.36.34.36-.33.37.35.36-.39.36-.01.36.42.36-.41.37.03.36.34.36-.35.36.37.36-.4.37.37.36-.35.36.37.36-.37.37-.01.36.32.36-.31.36.35.36-.36.37.01.36.34.36-.38.36.38.36-.4.37.42.36-.39.36.38.36-.39.36.01.37.37.36-.37.36.35.36-.39.37.38.36-.35.36.38.36-.39.36.01.37.39.36-.37.36-.03.36.35.36-.33.37.36.36-.37.36.37.36-.38.36.36.37-.35.36.02.36.3.36-.28.36.28.37-.36h.36l.36.42.36-.42.37.42.36-.37.36.32.36-.39.36.07.37.31.36-.37.36.38.36-.34.36.35.37-.36.36.36.36-.38.36.34.36-.32.37.01.36.32.36-.35.36.01.37.33.36-.36.36.36.36-.37.36.42.37-.37.36.33.36-.34h.36l.36.35.37-.38.36.34.36-.37h.36l.36.36.37-.34.36.39.36-.42.36.4.36-.37h.37l.36.33.36-.33.36.39.37-.37.36.36.36-.42.36.37.36-.36.37.02.36.31.36-.35.36.06.36.33.37-.32.36.36.36-.42.36.37.36-.38.37.38.36-.37.36.37.36-.39.37.07.36.3.36-.34.36.38.36-.37.37-.01.36.36.36-.36.36.37.36-.41.37.37.36-.35.36.05.36.31.36-.37.37.35.36-.36.36.37.36-.35.36.36.37-.38.36.04.36.33.36-.36.37-.02.36.36.36-.33.36.36.36-.35.37.37.36-.39.36.37.36-.4.36.06.37.32.36-.32.36.31.36-.35.36.39.37-.4h.36l.36.38.36-.36.37.36.36-.38.36.38.36-.37.36.01.37.36.36-.38.36.39.36-.38.36.37.37-.41.36.39.36-.37.36.02.36.34.37-.34.36-.01.36.35.36-.33.37.34.36-.36.36.34.36-.34.36.36.37-.36h.36l.36.32.36-.33.36.36.37-.38.36.44.36-.44.36.02.36.35.37-.36.36.4.36-.41.36.02.36.33.37-.34.36.37.36-.42.36.41.37-.41.36.42.36-.38.36.35.36-.36.37.01.36.34.36-.35.36.01.36.33.37-.35.36.37.36-.37.36.38.36-.37.37.37.36-.37.36-.04.36.34.37-.31.36.35.36-.36.36.33.36-.33.37-.02.36.41.36-.4.36.36.36-.36h.37l.36.36.36-.39.36.39.36-.35.37.37.36-.38.36.36.36-.37.36.02.37.36.36-.39.36.05.36.31.37-.34.36.39.36-.4.36.37.36-.34.37.37.36-.4.36.37.36-.36.36.01.37.34.36-.36.36.36.36-.35.36.36.37-.35.36-.04.36.39.36-.42.37.41.36-.4.36-.01.36.42.36-.4.37.39.36-.38.36.31.36-.3.36.33.37-.41.36.05.36.37.36-.33.36-.07.37.41.36-.43.36.37.36-.29.36.34.37-.36.36.37.36-.38.36.03.37.32.36-.34.36.34.36-.36.36.39.37-.37.36.31.36-.38.36.04.36.37.37-.37.36.41.36-.39.36-.01.36.35.37-.33.36.34.36-.35.36.33.37-.34.36.37.36-.44.36.07.36.31.37-.34.36-.01.36.36.36-.35.36.35.37-.34.36.33.36-.36.36.37.36-.37.37.04.36.35.36-.34.36.35.37-.38.36.37.36-.37.36.33.36-.32.37-.01.36.37.36-.37.36.04.36.32.37-.34.36.34.36-.36.36.37.36-.41.37.4.36-.37.36.39.36-.42.36.02.37.36.36-.39.36.03.36.4.37-.35.36.32.36-.37.36.37.36-.36.37.39.36-.39.36-.01"/><use xlink:href="#15585__d" color="#29C3F6" transform="matrix(3.75 0 0 3.75 69.28 159.51)"/><use xlink:href="#15585__d" color="#29C3F6" transform="matrix(3.75 0 0 3.75 220.55 52.51)"/></g><path fill="none" d="M28 75.01v87.49m343.99-87.49H28" color="#000"/></svg>