<svg xmlns="http://www.w3.org/2000/svg" xmlns:xlink="http://www.w3.org/1999/xlink" viewBox="0 0 400 200"><path fill="none" d="M0 0h400v200H0z"/><defs><path id="716f9__b" stroke="currentColor" stroke-width=".267" d="M-1-1h2v2h-2z"/><path id="716f9__a" stroke="currentColor" stroke-width=".267" d="m0-1.33-1.33 2h2.66z"/><path id="716f9__f" stroke="currentColor" stroke-width=".267" d="M0 1.33 1.265.411.782-1.067l-1.564-.009-.483 1.487z"/><use xlink:href="#716f9__a" id="716f9__d" fill="currentColor" stroke="none"/><use xlink:href="#716f9__b" id="716f9__c" stroke="currentColor" transform="rotate(45)"/><use xlink:href="#716f9__c" id="716f9__e" fill="currentColor" stroke="none"/></defs><path fill="none" stroke="#CCC" stroke-linecap="round" stroke-linejoin="round" stroke-width=".1" d="M46.1 162.5V45.01" class="716f9__gridline" color="#000"/><g fill="none" stroke-linecap="round" stroke-linejoin="round" stroke-width="0" color="#000"><path d="M46.1 162.5V155m0-109.99v7.5"/><text fill="#000" font-family="KaTeX_Main" font-size="8" text-anchor="middle" transform="translate(46.1 172.6)"><tspan> 1</tspan></text></g><path fill="none" stroke="#CCC" stroke-linecap="round" stroke-linejoin="round" stroke-width=".1" d="M82.31 162.5V45.01" class="716f9__gridline" color="#000"/><g fill="none" stroke-linecap="round" stroke-linejoin="round" stroke-width="0" color="#000"><path d="M82.31 162.5V155m0-109.99v7.5"/><text fill="#000" font-family="KaTeX_Main" font-size="8" text-anchor="middle" transform="translate(82.31 172.6)"><tspan> 2</tspan></text></g><path fill="none" stroke="#CCC" stroke-linecap="round" stroke-linejoin="round" stroke-width=".1" d="M118.52 162.5V45.01" class="716f9__gridline" color="#000"/><g fill="none" stroke-linecap="round" stroke-linejoin="round" stroke-width="0" color="#000"><path d="M118.52 162.5V155m0-109.99v7.5"/><text fill="#000" font-family="KaTeX_Main" font-size="8" text-anchor="middle" transform="translate(118.52 172.6)"><tspan> 3</tspan></text></g><path fill="none" stroke="#CCC" stroke-linecap="round" stroke-linejoin="round" stroke-width=".1" d="M154.73 162.5V45.01" class="716f9__gridline" color="#000"/><g fill="none" stroke-linecap="round" stroke-linejoin="round" stroke-width="0" color="#000"><path d="M154.73 162.5V155m0-109.99v7.5"/><text fill="#000" font-family="KaTeX_Main" font-size="8" text-anchor="middle" transform="translate(154.73 172.6)"><tspan> 4</tspan></text></g><path fill="none" stroke="#CCC" stroke-linecap="round" stroke-linejoin="round" stroke-width=".1" d="M190.94 162.5V45.01" class="716f9__gridline" color="#000"/><g fill="none" stroke-linecap="round" stroke-linejoin="round" stroke-width="0" color="#000"><path d="M190.94 162.5V155m0-109.99v7.5"/><text fill="#000" font-family="KaTeX_Main" font-size="8" text-anchor="middle" transform="translate(190.94 172.6)"><tspan> 5</tspan></text></g><path fill="none" stroke="#CCC" stroke-linecap="round" stroke-linejoin="round" stroke-width=".1" d="M227.15 162.5V45.01" class="716f9__gridline" color="#000"/><g fill="none" stroke-linecap="round" stroke-linejoin="round" stroke-width="0" color="#000"><path d="M227.15 162.5V155m0-109.99v7.5"/><text fill="#000" font-family="KaTeX_Main" font-size="8" text-anchor="middle" transform="translate(227.15 172.6)"><tspan> 6</tspan></text></g><path fill="none" stroke="#CCC" stroke-linecap="round" stroke-linejoin="round" stroke-width=".1" d="M263.36 162.5V45.01" class="716f9__gridline" color="#000"/><g fill="none" stroke-linecap="round" stroke-linejoin="round" stroke-width="0" color="#000"><path d="M263.36 162.5V155m0-109.99v7.5"/><text fill="#000" font-family="KaTeX_Main" font-size="8" text-anchor="middle" transform="translate(263.36 172.6)"><tspan> 7</tspan></text></g><path fill="none" stroke="#CCC" stroke-linecap="round" stroke-linejoin="round" stroke-width=".1" d="M299.57 162.5V45.01" class="716f9__gridline" color="#000"/><g fill="none" stroke-linecap="round" stroke-linejoin="round" stroke-width="0" color="#000"><path d="M299.57 162.5V155m0-109.99v7.5"/><text fill="#000" font-family="KaTeX_Main" font-size="8" text-anchor="middle" transform="translate(299.57 172.6)"><tspan> 8</tspan></text></g><path fill="none" stroke="#CCC" stroke-linecap="round" stroke-linejoin="round" stroke-width=".1" d="M335.78 162.5V45.01" class="716f9__gridline" color="#000"/><g fill="none" stroke-linecap="round" stroke-linejoin="round" stroke-width="0" color="#000"><path d="M335.78 162.5V155m0-109.99v7.5"/><text fill="#000" font-family="KaTeX_Main" font-size="8" text-anchor="middle" transform="translate(335.78 172.6)"><tspan> 9</tspan></text></g><path fill="none" stroke="#CCC" stroke-linecap="round" stroke-linejoin="round" stroke-width=".1" d="M371.99 162.5V45.01" class="716f9__gridline" color="#000"/><g fill="none" stroke-linecap="round" stroke-linejoin="round" stroke-width="0" color="#000"><path d="M371.99 162.5V155m0-109.99v7.5"/><text fill="#000" font-family="KaTeX_Main" font-size="8" text-anchor="middle" transform="translate(371.99 172.6)"><tspan> 10</tspan></text></g><g fill="none" stroke-linecap="round" stroke-linejoin="round" stroke-width="0" color="#000"><path d="M371.99 162.5h-7.5"/><text fill="#000" font-family="KaTeX_Main" font-size="8" transform="translate(378.99 165.1)"><tspan>0</tspan></text></g><g fill="none" stroke-linecap="round" stroke-linejoin="round" stroke-width="0" color="#000"><path d="M371.99 123.34h-7.5"/><text fill="#000" font-family="KaTeX_Main" font-size="8" transform="translate(378.99 125.94)"><tspan>1</tspan></text></g><g fill="none" stroke-linecap="round" stroke-linejoin="round" stroke-width="0" color="#000"><path d="M371.99 84.17h-7.5"/><text fill="#000" font-family="KaTeX_Main" font-size="8" transform="translate(378.99 86.77)"><tspan>2</tspan></text></g><g fill="none" stroke-linecap="round" stroke-linejoin="round" stroke-width="0" color="#000"><path d="M371.99 45.01h-7.5"/><text fill="#000" font-family="KaTeX_Main" font-size="8" transform="translate(378.99 47.61)"><tspan>3</tspan></text></g><path fill="none" d="M28 45.01V162.5M371.99 45.01H28" color="#000"/><text stroke-linecap="round" stroke-linejoin="round" stroke-width="0" color="#000" font-family="KaTeX_Main" font-size="10" text-anchor="middle" transform="rotate(-90 57.63 46.13)"><tspan>log</tspan><tspan dy="3" font-size="8">2</tspan><tspan dy="-3">(</tspan><tspan font-weight="bold">Maximum Path Length </tspan><tspan> / log</tspan><tspan dy="3" font-size="8">2</tspan><tspan dy="-3">(Size))</tspan></text><text stroke-linecap="round" stroke-linejoin="round" stroke-width="0" color="#000" font-family="KaTeX_Main" font-size="10" text-anchor="middle" transform="translate(199.99 195.75)"><tspan>Operations / 10</tspan><tspan dy="-5" font-size="8">6</tspan></text><text stroke-linecap="round" stroke-linejoin="round" color="#000" font-family="KaTeX_Main" font-size="8" transform="translate(132.8 10.11)"><tspan>Splay</tspan></text><g fill="none" stroke="currentColor" stroke-linecap="round" stroke-linejoin="round" color="#000"><path stroke="#29C3F6" d="M97.3 7.51h29.9M28 82.86l.36 3.43.36-8.21.37 6.47.36-7.23.36 6.38.36-1.66.36 8.84.37-9.66.36-9.62.36 3.51.36 6.11.37 4.19.36-8.09.36 7.23.36-5.7.36.78.37 5.78.36-6.56.36-.77.36 9.1.36-3.48.37-5.62.36 2.34.36 4.13.36-4.13.36.8.37 5.96.36-5.96.36 1.64.36-9.18.36 10.87.37-4.13.36 4.13.36-6.47.36 7.33.37-9.57.36 6.2.36-4.72.36 3.1.36 4.99.37-5.78.36 2.41.36 4.25.36 5.56.36-8.15.37-3.28.36-6.74.36 7.54.36-6.11.36 2.97.37 7.33.36-8.83.36 3.05.36 3.23.37-5.54.36-1.48.36-.73.36 9.44.36-2.51.37 4.25.36-2.59.36-5.62.36 5.62.36-4.85.37-2.27.36 5.46.36-.82.36-2.37.36 10.15.37-7.78.36 6.86.36-6.04.36-3.19.37 4.85.36-6.38.36 4.72.36-4.72.36 6.38h.37l.36-7.12.36 6.28.36-5.54.36 3.1.37-12.13.36 10.56.36 7.44.36-5.07.36 2.48.37 2.59.36 4.59.36-.95.36-7.89.36-3.19.37 4.85.36 6.23h.36l.36-7.89.37-6.93h.36l.36 12.07.36-11.34.36 2.24.37 3.14.36 1.64.36-1.64.36-3.9.36-.74.37 13.35.36-11.08.36.78.36 2.41.36.82.37-3.23h.72L70 89l.37-2.71.36-10.45.36-2.86.36 7.44h.36l.37.8.36 5.96.36-1.77.36-6.56.36 1.57.37-5.31.36 11.18.36.89.36-5.14.36 11.79.37-12.61.36 5.96.36-3.48.36-8.59.36 8.59.37-5.62.36 7.33.36-6.56.36 1.57.37 4.99.36-5.78.36 6.66.36-7.44.36 4.01.37-6.28.36 7.97.36-5.7.36.78.36-1.55.37 5.62.36 4.38.36-9.23.36 3.19.36 2.51.37-2.51.36 5.14.36-3.48h.36l.37-5.62.36 6.47.36-4.13.36-1.57.36 9.23.37-10 .36 7.33.36-5.78.36 4.92.36-11.57.37 16.95.36-12.61.36 8.97.36-5.07.36-.8.37 4.99.36-4.99h.36l.36 7.66.36-5.22.37 1.69.36-10.87.36 2.9.36 7.97.37-6.47.36 11.85.36-15.54.36 7.65.36 4.25.37-4.25.36.82.36-3.23.36 5.78.36 1.77.37-5.96h.36l.36-1.59.36 6.66.36-1.74.37-2.51.36-1.62.36 4.99.36 2.67.37-7.66.36 1.62.36-.82.36 1.64.36-.82.37 5.14.36-5.96.36.82.36-.82.36 4.19.37-8.09.36 1.53.36-.77.36 6.47.36-2.51.37 4.25.36-1.74.36-10.87.36-4.09.37 5.52.36 3.74.36 5.7.36-10.87.36 7.54.37-5.38.36 3.79.36 4.92.36.86.36-18.39.37 10.3.36-1.48.36 16.99.36-6.54.36-.88.37-10.3.36 12.97.36-10 .36 11.85.36-14.82.37 5.31.36-6.03.36 3.69.36 7.33.37-4.99.36-6.03.36 3.69.36.77.36-1.53.37 5.54.36-6.28.36 5.46.36 7.89.36-11.08.37 4.01.36-2.44.36-1.57.36-1.53.36 2.31.37.79.36-.79.36 9.37.36-5.3.37 3.48.36-10.6.36 4.64.36 3.33.36-5.7.37-4.46.36.72.36.73.36 10.45h.36l.37.89.36-2.63.36-1.69.36-9.88.36 11.57.37-1.69.36-9.18.36 10.02.36-12.78.36 11.12.37 6.04.36-13.69.36 9.31.36-1.66.37 8.84.36 3.97.36-15.22h.36l.36-3.05.37 6.28.36-5.54.36 3.9.36 3.33.36-5.7.37 3.19.36.82.36 1.69.36-.85.36-1.66.37 1.66.36-8.59.36 5.31.36.8.37 6.86.36-5.22.36-7.75.36 2.21.36-.74.37 13.35.36-9.51.36 5.87.36-8.97.36 5.54.37-1.64.36-5.38.36-1.45.36 10.16.36-2.51.37-3.96.36-3.69.36 11.9.36-6.66.36 4.07.37-4.07.36 4.07.36-3.28.36-11.48.37 22.91.36-13.77.36-2.24.36 8.71.36-2.51.37-5.46.36-2.9.36 7.54h.36l.36-.8.37-10.83.36 6.99.36 2.27.36 6.56h.73l.36 4.52.36-12.61.36-4.34.37 9.06.36-3.19h.36l.36 6.56.36-4.99.37-3.84.36 6.28.36-9.88.36 17.9.36-6.33.37 4.45.36-15.32.36 5.17.36-3.01.36 7.86.37-4.85.36-3.74.36-1.43.36.71.37 5.24.36-3.05.36 10.6.36-.89.36-8.21.37 3.14.36-1.59.36 7.55.36.9.36-4.38.37-1.66.36-.82.36 6.86.36-2.67h.36l.37-7.33.36 9.1.36-10.6.36 3.84.36 3.28.37-6.38.36 3.9.36-2.37.36 9.23.37-9.23.36-2.27.36 11.5.36-2.67.36.88.37.89.36-16.26.36 12.78.36-16.68.36 8.82.37 6.2.36 2.51.36-1.69.36-1.64.36 8.71.37-16.25.36 2.16.36.74.36 11.5.37-8.45.36 4.07.36-7.86.36 2.24.36 7.33.37-1.71.36-2.48.36 5.07.36-1.74.36 1.74.37-5.87.36 4.13.36 5.38.36-20.34.36 14.11.37-6.38.36 8.09.36-8.09.36-1.48.36.74.37-.74.36 5.38.36 6.86.36.92.37-3.59.36-.86.36-11.57.36 5.87.36.78.37-3.05.36 2.27.36 10.15.36-7.78.36-5.38.37 10.45.36-7.44.36 2.37.36.82.36 6.04.37-.9.36-7.55.36 6.66.36-1.74.37-2.51.36-4.72.36.76.36 8.21.36-2.59.37 3.48.36-2.63.36-2.51.36 1.66.36-7.12.37 7.97.36-5.7.36.78.36 1.59.36 5.96.37-5.96h.36l.36 5.96.36-11.34.37-4.92.36 16.26.36-1.77.36 3.59.36-3.59.37-2.55.36 1.69.36-4.92.36-6.65.36 13.31.37-14.69.36 13.81.36-8.09.36.76.36 7.33.37-8.83.36 8.83.36-2.55.36-7.75.36 13.89.37-3.59.36-12.43.36 12.43.36-4.19.37-3.14.36.77.36-.77.36 6.47.36-3.33.37-.8h.36l.36-3.84.36-2.9.36 16.25.37-8.71.36.82.36 4.25.36-14.01.36 13.13.37-9.57.36 3.79.36 5.78.36-.86.37 2.63.36.9.36-8.45h.36l.36 4.92.37-4.13.36-.79.36-3.05.36 1.5.36 6.47.37 6.33.36-8.84.36-4.72.36 6.38.36-3.28h.37l.36-5.31.36-.72.36 10.16.36-11.57.37 13.31.36-10.45.36 4.58.36 3.28.37 4.38.36-4.38.36 1.71.36-1.71.36-1.66.37-11.12.36 11.94.36-7.02.36 3.01.36-3.74.37 6.93.36 3.37.36.88.36-2.59.36-7.12.37 7.97.36-4.13.36 2.44.36-4.78.37-.76.36 11.68.36-1.82.36-4.32.36 3.43.37-8.97.36 6.38.36-7.86.36 7.02.36 3.43.37-21.12.36 23.83.36-12.42.36 13.35.36-4.52.37-14.49.36 16.26.36-6.76.36.8.36.82.37.82.36-1.64.36 2.48.36 6.23.37-7.89.36-3.19h.36l.36 3.19.36-1.62.37-6.74.36 11.73.36-5.78h.36l.36.79.37 4.99.36 1.77.36-5.14.36-.82.36 2.48.37.85.36-7.97.36 2.27h.36l.37 6.56.36-4.19.36 2.48.36-4.85.36-4.46.37 7.65h.36l.36-9.76.36 14.9.36-10.6.37 10.6.36-14.2.36.7.36 10.87.36-5.7.37 6.56.36-1.71.36 2.59.36-7.44.37 2.37.36-6.83.36 14.61.36-10.15.36 4.85.37-4.07.36 9.37.36-5.3.36 4.38.36-4.38.37 1.71.36-13.13.36 11.42.36-4.07.36 4.07.37-2.48.36-3.9.36 2.31.36.79.36 7.66.37-.9.36-5.14.36 2.51.36.86.37 1.77.36-2.63.36-4.92.36 4.07.36-4.85.37-6.57.36 14.9.36-5.14.36 1.66.36-3.28.37 4.99.36-7.33.36 8.21.36-4.25.36 5.14.37-6.76.36.8.36-7.54.36 6.74.37 3.28.36 1.71.36 7.42.36-13.2.36-8.71.37 18.08.36-10.92.36 10.92.36-3.59.36 1.77.37-11.34.36 6.2.36-5.46.36 3.84h.36l.37.8h.36l.36 4.19.36-9.57.36 13.16.37 1.88.36-4.59.36-15.37.36 12.78.37 7.18.36-12.03.36-5.87.36 9.06.36 3.37.37 2.67.36-6.86.36-4.64.36 7.12.36-3.28.37.8.36.82.36 2.51.36 3.53.36-19.14.37 19.14.36-10 .36-1.5.36 8.83.37-6.56.36 7.44h.36l.36-3.43.36-7.75.37 2.97.36 8.21.36-10.45.36 5.38.36.82.37 5.14.36-18.24.36 9.14.36 3.14.36-3.14.37-5.1.36 9.88.36-5.54.36 3.1.36 4.99.37-1.71.36 1.71.36-2.55.36 3.43.37-7.44.36 12.03.36-12.03.36 3.19.36 6.04.37-4.38.36 3.48.36-7.55.36 6.66.36.89.37-1.77h.72l.36-8.09.36.76.37 1.55.36 5.78.36-4.19.36 1.64.37 1.69.36-9.44.36 4.52.36 4.07.36-8.59.37 3.74.36-.77.36 5.62.36-2.48.36 4.19.37-9.57.36 4.58.36 4.13.36-2.51.36 5.14h.37l.36-12.79.36 11.02.36 1.77.37-5.96.36-5.38.36 11.34h.36l.36-12.79.37 7.65.36-6.2.36-4.92.36 16.26.36-7.55.37 4.07h.36l.36 7.18.36-17.2.36 4.4.37-.76.36 5.54.36.84.36-5.62h.36l.37 3.14h.36l.36 1.64h.36l.37 3.43.36-.88.36-4.99h.36l.36-9.5.37 8.71.36 5.78.36 4.52.36-14.09.36 14.09.37-10.3.36-5.24.36 6.03.36 10.46.36-8.02.37-3.23.36-2.31.36-2.21.36 3.74h.37l.36 4.85.36-4.07.36.79.36-10.17.37 11.79.36 1.66.36-2.48.36.82.36 3.37.37-7.33.36-1.5.36 7.97.36-3.33.36 7.78.37-2.71.36-.88.36-2.55.36-10.58.36 12.27.37-3.33.36.82.36-6.93.36-1.43.37 7.54.36 1.64.36 8.99.36-8.15.36.85.37 8.28.36-8.28.36-1.69.36 5.22.36-1.79.37-11.18.36-.72.36 10.16.36-3.33.36-9.62.37 13.81.36-4.99.36 2.44.36-7.02.37 3.01.36 3.19.36-2.41.36-.78.36 4.85.37-3.28.36-3.84.36 2.27.36 5.7h.36l.37-3.33.36-3.9h.36l.36 3.1h.36l.37 2.44.36-4.01.36 7.44.36-8.21.36 3.14.37 5.96.36-8.33.36 2.37.36 3.33.37-4.92.36-2.31.36 4.72.36 4.25.36-7.44.37.78.36 3.23.36-3.23.36 10.3.36-10.3.37 5.78.36-3.37.36 4.25.36-2.59.36-4.85.37-3.01.36 4.58.36 9.51.36-9.51h.37l.36.8.36 2.48.36-2.48.36 11.61.37-8.28.36-1.69.36-.82.36 1.66.36.85.37-7.23.36 6.38.36 3.48.36 2.75.36-7.89h.37l.36 3.37.36-6.56.36 8.33.37-2.63.36-8.71.36 7.86.36-.84h.36l.37-5.54.36-3.64.36 12.61.36-4.25.36-2.41.37 4.07.36 6.23.36-5.38.36 1.74.36-6.66.37 7.55.36-6.76.36 14.43.36-15.22.36-.78.37 4.01.36 3.43.36-1.74.36.86.37-4.99.36.8.36-2.37.36 10.15.36-7.78.37 4.19.36-9.57.36 5.38"/><use xlink:href="#716f9__b" color="#29C3F6" transform="matrix(3.75 0 0 3.75 354.25 81.22)"/><use xlink:href="#716f9__b" color="#29C3F6" transform="matrix(3.75 0 0 3.75 112.25 7.51)"/></g><text stroke-linecap="round" stroke-linejoin="round" stroke-width=".5" color="#000" font-family="KaTeX_Main" font-size="8" transform="translate(132.8 25.11)"><tspan>AVLBottomUp</tspan></text><g fill="none" stroke="currentColor" stroke-linecap="round" stroke-linejoin="round" stroke-width=".5" color="#000"><path stroke="#000" d="M97.3 22.51h29.9M28 154.01l.36.09.36.08.37.08.36.08.36.08.36.08.36.07.37.08.36.07.36.07.36.07.37.07.36.07.36.07.36.06.36.07.37.06.36.06.36.06.36-2.45.36.06.37.06.36.06.36.05.36.06.36.06.37.05.36.05.36.06.36.05.36.05.37.05.36.05.36.05.36.05.37.05.36.05.36.04.36.05.36.05.37.04.36.05.36.04.36.05.36.04.37.04.36.04.36.05.36.04.36.04h226.31l.37-2.4h.36l.36 2.4h98.49"/><use xlink:href="#716f9__d" transform="matrix(3.75 0 0 3.75 67.83 154.41)"/><use xlink:href="#716f9__d" transform="matrix(3.75 0 0 3.75 112.25 22.51)"/></g><text stroke-linecap="round" stroke-linejoin="round" color="#000" font-family="KaTeX_Main" font-size="8" transform="translate(241.1 10.11)"><tspan>LBSTRelaxed</tspan></text><g fill="none" stroke="currentColor" stroke-linecap="round" stroke-linejoin="round" color="#000"><path stroke="#FFAB00" stroke-dasharray="4.0,2.0,1.0,2.0" d="M205.6 7.51h29.9M28 125.45l.36 5.56.36 4.04.37 2.13.36 2.22.36-12.16.36 7.81.36 4.35.37 9.85.36-2.63.36-9.44.36 4.52.37-6.65.36-5.95.36 1.91.36 15.61.36-21.17.37 7.54.36-7.54.36 16.25.36-2.3.36-15.69.37 17.99.36 7.55.36-7.55.36-17.99.36 25.54.37-7.55.36 4.92.36-9.44.36-9.94.36 7.81.37-5.95.36 5.95.36-5.95.36 1.91.37-7.3.36 11.34.36-11.34.36 11.34.36-11.34.37 9.28.36-5.75.36 1.86.36 10.3.36 7.22.37-13.63.36 6.41.36-12.16.36-3.53.36 7.3.37-5.56.36 7.54.36 13.63.36-22.91.37 13.47.36-11.73.36 16.25.36-16.25.36-1.74.37 7.3.36 4.04.36 11.57.36-11.57.36 4.35.37 2.3.36 2.41.36-11.12.36 6.41.36 7.22.37-9.44.36-11.73.36 5.56.36-3.77.37 9.94h.36l.36-13.47.36 15.69.36 7.22.37-19.38.36 5.75h.36l.36 11.12.36 2.51.37-22.91.36 25.54.36-7.55.36 7.55.36-2.63.37-13.63.36-5.75.36 16.87.36 5.14.36-5.14.37-11.12.36 8.71.36 4.92.36-15.61.37-1.91.36-1.86.36 5.75.36 11.12h.36l.37-20.4.36 5.39.36 3.89.36-9.28.36 1.74.37 11.73.36-8.08.36 10.3.36 4.71.36-4.71.37 7.22.36-7.22.36-15.69.36 25.54.37-12.07.36-2.13.36 6.65.36 2.41.36-4.71.37-10.3.36 8.08.36-11.73.36 1.79.36 1.86.37 12.6.36-4.52.36-2.13.36 14.2.36-18.24.37 15.61.36-9.44.36-6.17.36-7.3.36 20.4.37 2.51.36-4.92.36-17.99.36 20.4.37-9.06.36 9.06.36-16.87.36 12.16.36 7.22.37-9.44h.36l.36 9.44.36-21.17.36-1.74.37 7.3.36 10.69.36-4.52.36-13.47.36 13.47.37-4.19.36 11.12.36-18.66.36 5.56.37 6.17.36 6.93.36-20.4.36 7.3.36 4.04.37-2.06.36-3.89.36-5.39h.36l.36 11.34.37 14.2.36-5.14.36-18.66.36 18.66.36-9.06.37 9.06.36 5.14.36-7.55.36-6.65.36-7.81.37 16.87.36-20.4.36 15.69.36-4.35.37 4.35.36-2.22.36-8.08.36-3.65.36 7.54.37-3.89h.36l.36 5.95.36 14.2.36-12.07.37 12.07.36-18.24.36 1.98.36 11.12.36 2.51.37-4.92.36 7.55.36-7.55.36-16.25.37 13.95.36 4.71.36-13.1.36-1.91.36-5.39.37 5.39.36 10.3.36-4.35.36 2.13.36 2.22.37-2.22.36 12.07.36-14.2.36 4.35.36-15.69.37 9.28.36 16.26.36-12.07.36 4.52.37-12.6.36 5.95.36 2.13.36 4.52.36-2.3.37-2.22.36 9.44.36-7.22.36 2.3h.73l.36-4.52.36-6.17.36-7.3.36 22.91.37-11.57.36 14.2.36-9.85.36 9.85.36-16.26.37-1.98.36-7.3.36 13.47.36-6.17.37 8.39.36-15.69.36 7.3.36 4.04.36-7.81.37 16.87.36-20.4.36 22.91.36-11.57.36 9.06.37-11.12.36-1.98.36 8.39.36-6.41.36-7.54.37 13.95.36-13.95.36 18.66.36-13.1.37-1.91.36 10.3.36 4.71.36-6.93.36-2.13.37-7.81.36 5.75h.36l.36-1.98.36 15.61.37-13.63.36-1.98.36 4.04.36-4.04.36 13.1.37-4.71h.36l.36 2.3.36-6.65h.36l.37-7.81.36 16.87.36-9.06h.36l.37 6.65.36-12.6.36-3.65.36 23.8.36-7.55.37 4.92.36-4.92h.36l.36-10.69.36 15.61.37-22.91.36 3.53.36 19.38.36-4.92.36 2.41.37-11.12.36-1.98.36-7.3.36 9.28.37 2.06.36-7.81.36 5.75.36 6.41.36-12.16.37-3.53.36 5.39.36 20.15.36-16.26h.36l.37 8.71.36-4.52.36 9.44.36-11.57.36 6.65.37-10.69.36 8.39.36-4.35.36-7.81.36-1.79.37 16.25.36 4.92.36-9.44.36-2.13.37 9.06.36-16.87.36 19.38h.36l.36-22.91.37 11.34.36 9.06.36 5.14.36-14.2.36-4.04.37-7.3.36 13.47.36-11.73h.36l.36 1.79.37 14.46.36-12.6.36 10.3.36-13.95.37 3.65.36-3.65.36 23.8.36-16.26.36-7.54.37-1.74.36 17.99.36-17.99.36 7.3.36 13.1.37-20.4h.36l.36 5.39.36 5.95.36 4.35.37-6.41.36 8.71.36-6.65.36 9.06.37-11.12.36 4.19.36 9.44.36 2.63h.36l.37-25.54.36 22.91.36-2.51.36-13.1h.36l.37-5.56h.36l.36 1.79.36-3.53.36 3.53.37 14.46.36 4.92.36-11.57.36 14.2.36-22.01.37 5.75.36-7.54.36 11.73.36-8.08.37 8.08.36-2.13.36 11.57.36-22.91.36 20.4.37-2.41.36-12.6.36 15.01.36-4.71.36-6.41.37 6.41.36-4.35.36-5.95.36 8.08.36-9.94.37 12.16.36-6.41.36 6.41.36 4.71.37-2.41.36-4.52.36-2.13.36-4.04.36-3.77.37-3.53h.36l.36 15.69.36 2.3.36 2.41.37 2.51.36-17.52.36 5.95.36 6.65.36-14.46.37 22.01.36-16.26.36-7.54.36 11.73.36 9.44.37-4.92h.36l.36-17.99.36 17.99.37-6.65.36 11.57.36-9.44.36-2.13.36 11.57.37-21.17.36 11.73.36 2.22.36-8.39.36 13.1.37 2.51h.36l.36-19.38.36 1.86.36 20.15.37-18.24.36 4.04.36-7.81.36 1.86.37 20.15.36-22.01.36 19.38.36-2.51h.36l.37-9.06.36-11.34.36 11.34.36 14.2.36-18.24.37-3.77h.36l.36 9.94.36-4.19.36-7.54.37 21.17.36-15.61.36 4.04.36-4.04.37 10.69.36-16.25.36 16.25.36-4.52.36 12.07.37-23.8.36 7.54.36 4.19.36 9.44.36-19.38.37-3.53.36 7.3.36 8.39.36-2.22.36 2.22.37 2.3h.36l.36-14.46.36 9.94.36-8.08.37 17.52.36-13.63.36-1.98.36 4.04.37-4.04.36 13.1h.36l.36-13.1.36-3.77.37 22.01.36-5.14h.36l.36 2.51.36-9.44.37-6.17h.36l.36 1.98.36 6.41.36-12.16.37 5.75.36-5.75.36 7.81.36 14.2.37-20.15.36 10.3.36-10.3.36 3.89h.36l.37 8.71.36 4.92.36-19.38.36 3.77.36 13.1h.37l.36-6.93.36 4.52.36-16.25.36 23.8.37-2.63.36-11.57h.36l.36-5.95.36 1.91.37 18.24.36-25.54.36 7.3.36-5.56.37 9.6.36 9.06.36-18.66.36 21.17.36 2.63.37-14.2.36-7.81h.36l.36 19.38.36-19.38.37 22.01.36-25.54.36 9.28.36 8.71.36 7.55.37-7.55.36-6.65.36 11.57.36-4.92.37 2.41.36 2.51.36-9.44.36 2.22.36-15.69.37 22.91.36-11.57.36-9.6.36 11.73.36-9.94.37 1.86.36 20.15.36-12.07h.36l.36-4.19.37-7.54.36 13.95.36 4.71.36-9.06.36-4.04.37-5.56.36 11.73.36-6.17.36-5.56.37 5.56.36 13.1.36-9.06.36 2.13.36-8.08.37 12.6.36 2.41.36-20.4.36 9.28h.36l.37 6.41.36-8.39.36 6.17.36-11.73h.36l.37 21.17.36-9.44.36-13.47.36 1.74.37 11.73.36-11.73.36 13.95.36-6.41.36 4.19.37-8.08.36 8.08.36 9.44.36-9.44.36 2.22.37-6.41.36 11.12.36-16.87.36 7.81h.36l.37-9.6.36 7.54.36 13.63.36 2.63.37-9.85.36 2.3.36-16.25.36 13.95h.73l.36 7.22.36-11.57.36-4.04.36 15.61.37-15.61.36 18.24.36-7.55.36-8.71.36 2.06.37 6.65.36 7.55.36-7.55.36-14.46.36 9.94.37 2.22.36-10.3.36 17.52.36-13.63.37 13.63.36-21.17.36-1.74.36 17.99.36-12.6.37 8.08.36 9.44.36-2.51.36-9.06.36 11.57h.37l.36-21.17.36 7.54.36 13.63.36-7.22.37-2.22.36 2.22.36-15.69.36 22.91.37-2.51.36-15.01.36 15.01.36-20.4.36 7.3.37 6.17.36-11.73h.36l.36-1.74.36 7.3.37-3.77.36 9.94.36 4.52.36-17.99h.36l.37 9.28.36 13.63.36-13.63.36-5.75.36 14.46.37-16.25.36 3.65.36 3.89.36-7.54.37 7.54.36-9.28.36 22.91.36-15.61.36-3.77.37 7.81.36 11.57.36-17.52.36 15.01h.36l.37-2.41.36-6.65.36-9.6.36 21.17.36-22.91.37 5.39.36 8.08.36 9.44.36-11.57h.37l.36 6.65.36-12.6.36 12.6.36-6.65.37 6.65.36-6.65.36-9.6.36 18.66.36 5.14.37-9.85.36-13.95.36 9.6.36 14.2.36-18.24.37-3.77.36 3.77.36 13.1.36-16.87.36 16.87.37-6.93.36-6.17.36-1.91.36-3.65.37 7.54.36 8.71.36 2.41.36 2.51.36-19.38.37 9.94.36-11.73.36 3.65.36 1.91.36 13.1.37-9.06.36-11.34.36 7.3.36 18.24.36-5.14.37-4.71.36 7.22.36-21.17.36-1.74h.37l.36 3.53h.36l.36 12.16.36 2.3.37-6.65.36-9.6.36 7.54.36-5.75.36 3.77.37-5.56.36 18.66.36-11.12.36 13.63.36-15.61.37 10.69.36 2.41.36 2.51.36-2.51.37-11.12.36-3.89.36 15.01.36-18.66.36 11.73h.37l.36 2.22.36-4.35.36-4.04h.36l.37 6.17.36 9.44.36-13.63.36 11.12.36-20.4.37 20.4.36-15.01.36 8.08.36 12.07h.36l.37-9.85.36-2.22.36-8.08.36 8.08.37 2.22.36-10.3.36 8.08.36-11.73.36 9.6.37 14.2.36-18.24.36 8.39.36-15.69.36 22.91.37 2.63.36-22.01.36 1.86.36 17.52.36-15.61h1.09l.36 1.98.37-3.89.36 15.01.36-13.1.36 10.69.36 7.55.37-25.54.36 5.39.36 10.3.36 2.3.36-12.6h.37l.36-1.86.36 9.94.36-9.94.36 7.81.37 14.2.36-5.14h.72l.36 2.51.37-17.52.36-5.39.36 9.28.36 11.12.37 2.51.36-4.92.36-2.3.36-10.3.36 5.95.37 11.57.36-19.38.36 14.46.36-10.69.36 4.04.37 4.35.36-4.35.36 9.06.36 2.51.36-17.52.37 15.01.36 2.51.36-11.57h.36l.37-7.81.36 5.75.36 8.71.36-4.52.36-8.08.37 1.91.36-3.77.36 22.01.36-12.07.36-11.73.37 18.66.36-11.12h.36l.36 11.12h.36l.37-11.12.36 11.12h.36l.36-6.93.36 4.52.37-8.71.36 11.12.36-11.12.36-7.54.37 3.65.36-1.86.36 19.38h.36l.36-19.38.37 14.46.36-6.65.36-9.6.36 11.73.36 12.07.37-7.55.36 2.41.36 2.51.36-2.51.36 2.51.37-17.52.36 20.15.36-7.55.36-4.52.37 4.52.36-14.46.36 1.86h.36l.36-3.65.37 1.79.36-3.53.36 9.28.36 11.12.36-13.1.37 13.1.36-6.93.36-2.13.36-7.81h.36l.37 14.46.36-6.65.36-2.06.36 16.26.37-12.07.36-13.47.36 5.39h.36l.36 1.91.37-1.91h.36l.36-3.65.36 21.17.36-11.57.37-5.95.36 8.08h.36l.36-13.47.36 9.28.37 13.63.36-13.63.36 4.19.36 4.52.36-8.71.37-9.28.36 11.34h.36l.36-7.81.37 7.81.36-7.81.36 1.86.36 20.15.36-22.01.37 19.38h.36l.36-7.22"/><use xlink:href="#716f9__e" color="#FFAB00" transform="matrix(3.75 0 0 3.75 125.4 135.05)"/><use xlink:href="#716f9__e" color="#FFAB00" transform="matrix(3.75 0 0 3.75 220.55 7.51)"/></g><text stroke-linecap="round" stroke-linejoin="round" color="#000" font-family="KaTeX_Main" font-size="8" transform="translate(241.1 25.11)"><tspan>TreapTopDown</tspan></text><g fill="none" stroke="currentColor" stroke-linecap="round" stroke-linejoin="round" color="#000"><path stroke="#00C853" stroke-dasharray="4.5,2.0,0.5,2.0,0.5,2.0" d="M205.6 22.51h29.9M28 110.09l.36 1.36.36 1.39h5.07l.37 1.43.36 2.98h1.81l.36-2.98h.72l.37-1.43h1.08l.36 1.43h.37l.36-1.43.36-1.39h.36l.37-1.36.36-1.33h3.62l.36 1.33.36 1.36.36 4.29h2.54l.36-1.47h1.45l.36 1.47.36-1.47h1.09l.36 1.47h1.81l.37-1.47h.72l.36-1.43h.36l.37-1.39h.72l.36-1.36h.36l.37 1.36h4.34l.36-1.36h.37l.36 1.36h.72l.36-1.36.37 1.36h.72l.36 1.39h1.09l.36 1.43H70l.37 1.47h1.44l.37-1.47h1.08l.36 1.47h.73l.36 3.05.36 1.6h.36l.37-1.6.36-1.54h.36l.36-1.51h2.9l.36 1.51.36-1.51h.73l.36-2.9h2.53l.37 1.43h1.08l.37-1.43h.36l.36 1.43h1.81l.36 1.47h.36l.37-1.47.36-1.43H91l.37 1.43h.36l.36 1.47.36 3.05h1.45l.36-1.54h.37l.36-1.51h.36l.36-1.47h.73l.36 2.98h1.45l.36 1.54.36-1.54h.36l.36-1.51h.73l.36-1.47.36 1.47.37-1.47h.36l.36 1.47h1.45l.36 1.51h.72l.37-1.51h.72l.36-4.29.36 1.39.37 2.9.36-1.47h.72l.37-1.43h3.62l.36 1.43h1.08l.37-1.43.36-1.39h1.08l.37 1.39h.72l.36 1.43h.73l.36 1.47h.36l.36-2.9h1.09l.36-1.39h1.09l.36 1.39.36 1.43h1.09l.36-2.82.36-1.36h1.09l.36 1.36h1.45l.36-1.36h.36l.37 1.36h1.08l.36 1.39.37 1.43h1.08l.36 1.47h1.45l.37-1.47h1.08l.36 1.47.37 3.05.36-3.05.36-1.47h.36l.36-1.43h1.09l.36-1.39.36 1.39h1.82l.36 1.43h.72l.36 2.98.37-1.51h.72l.36-1.47h.73l.36-1.43h.72l.36 1.43h2.18l.36-2.82h1.81l.36-2.69.36-1.3h.37l.36-2.52.36 1.25.36-1.25.36-1.21h.37l.36 2.46h.72l.36 1.27h1.09l.36 1.3.37 2.69.36 2.82h1.45l.36-1.43h1.08l.37 1.43h.36l.36-2.82.36 2.82h.73l.36-1.43h1.45l.36 1.43h1.45l.36 1.47h1.45l.36-1.47h1.45l.36 1.47h.36l.36 3.05h.37l.36-3.05h.72l.37-1.47h2.53l.36 1.47.36 1.51.37 1.54h1.81l.36-4.52.36-2.82.36-1.36h.37l.36-1.33.36 4.08h.72l.37-1.39h1.44l.37 1.39h.72l.36-1.39.36 2.82.37 1.47h3.26l.36-1.47h.36l.36-2.82h2.17l.37 2.82.36 1.47.36 1.51h1.09l.36-2.98.36-4.18h.36l.37-1.33.36-1.3h.36l.36 1.3h1.81l.36-1.3.37 1.3h1.08l.36 1.33.37 4.18h2.53l.36-1.43h1.45l.36-1.39.37 1.39h.72l.36 1.43h1.45l.36 4.52h1.09l.36-3.05h.36l.37-1.47h.72l.36-1.43h2.17l.37 1.43h.36l.36 1.47.36 1.51h3.62l.37-2.98.36 1.47.36-1.47h.72l.37 1.47h.36l.36-1.47.36 1.47h.36l.37 1.51.36 1.54.36-1.54h3.26l.36 1.54h1.81l.36-1.54h.73l.36-1.51h3.98l.37-1.47h.72l.36 2.98h2.17l.37 1.54.36-1.54h1.81l.36-2.98h1.45l.36 1.47.36-1.47h.73l.36-1.43.36-1.39h1.09l.36 1.39h1.81l.36-2.75.37 1.36.36 2.82.36 1.47h.36l.36-4.29.37-1.36h.72l.36-1.33h.73l.36 4.08h1.08l.37-1.39.36 2.82h1.09l.36 1.47h.72l.36 1.51h1.45l.36-1.51.37-1.47h1.81l.36 1.47h1.08l.37-1.47h2.53l.36-4.18h.37l.36-1.33h3.26l.36 1.33.36 1.36h.73l.36 1.39.36 1.43h1.09l.36-1.43h1.08l.37-1.39.36 1.39h.72l.36 2.9h.37l.36 1.51h.72l.36 1.54.37-1.54.36-1.51h2.53l.37-2.9h.72l.36 1.43h1.09l.36 1.47H284l.36 1.51.37-1.51h1.81l.36 1.51h2.17l.36-1.51h1.81l.36-1.47.37 1.47h1.45l.36 1.51h.72l.36-1.51h1.45l.36 1.51h.37l.36 1.54h.72l.36-1.54.37-1.51h1.08l.37-1.47h1.81l.36 2.98.36 1.54h.36l.36-1.54.37-1.51.36-1.47h.36l.36-1.43h1.09l.36-2.75h.73l.36 1.36h.36l.36 1.39.36 1.43h.73l.36-2.82h.36l.36 2.82h1.45l.36-1.43.37 1.43.36-1.43h.36l.36 1.43h.73l.36-1.43.36 1.43.36 1.47h.73l.36-2.9h1.81l.36-1.39h.36l.37-1.36.36-1.33h3.98l.36 4.08h.37l.36-1.39h.36l.36-1.36h1.09l.36 2.75h1.45l.36-1.39h2.17l.37-1.36h1.08l.36 1.36h.73l.36-1.36.36 1.36.36 1.39h1.45l.36 1.43h.37l.36 2.98h1.81l.36-1.51h.36l.37-1.47h2.89l.36 1.47h2.18l.36-2.9h.72l.37-1.39h.72l.36-1.36.36 1.36.37-1.36h2.53l.36 1.36.36 1.39.37 4.41.36-1.51h1.09l.36-1.47h1.08l.37-1.43.36 1.43.36 1.47.36 1.51.36 1.54h1.09l.36-1.54.36-1.51h3.99l.36-1.47.36-1.43h2.17l.37 1.43h.72l.36-1.43h1.09l.36 2.9h.36l.37 1.51.36 1.54h.72l.36-4.52h.37l.36-1.43.36-1.39"/><use xlink:href="#716f9__f" color="#00C853" transform="matrix(3.75 0 0 3.75 182.98 115.74)"/><use xlink:href="#716f9__f" color="#00C853" transform="matrix(3.75 0 0 3.75 220.55 22.51)"/></g><path fill="none" d="M28 45.01V162.5M371.99 45.01H28" color="#000"/></svg>