<svg xmlns="http://www.w3.org/2000/svg" xmlns:xlink="http://www.w3.org/1999/xlink" viewBox="0 0 400 200"><path fill="none" d="M0 0h400v200H0z"/><defs><use xlink:href="#577a3__a" id="577a3__d" fill="currentColor" stroke="none"/><use xlink:href="#577a3__b" id="577a3__c" stroke="currentColor" transform="rotate(180)"/><circle id="577a3__a" cx="0" cy="0" r="1" stroke="currentColor" stroke-width=".267"/><path id="577a3__b" stroke="currentColor" stroke-width=".267" d="m0-1.33-1.33 2h2.66z"/></defs><path fill="none" stroke="#CCC" stroke-linecap="round" stroke-linejoin="round" stroke-width=".1" d="M46.1 162.5V45.01" class="577a3__gridline" color="#000"/><g fill="none" stroke-linecap="round" stroke-linejoin="round" stroke-width="0" color="#000"><path d="M46.1 162.5V155m0-109.99v7.5"/><text fill="#000" font-family="KaTeX_Main" font-size="8" text-anchor="middle" transform="translate(46.1 172.6)"><tspan> 1</tspan></text></g><path fill="none" stroke="#CCC" stroke-linecap="round" stroke-linejoin="round" stroke-width=".1" d="M82.31 162.5V45.01" class="577a3__gridline" color="#000"/><g fill="none" stroke-linecap="round" stroke-linejoin="round" stroke-width="0" color="#000"><path d="M82.31 162.5V155m0-109.99v7.5"/><text fill="#000" font-family="KaTeX_Main" font-size="8" text-anchor="middle" transform="translate(82.31 172.6)"><tspan> 2</tspan></text></g><path fill="none" stroke="#CCC" stroke-linecap="round" stroke-linejoin="round" stroke-width=".1" d="M118.52 162.5V45.01" class="577a3__gridline" color="#000"/><g fill="none" stroke-linecap="round" stroke-linejoin="round" stroke-width="0" color="#000"><path d="M118.52 162.5V155m0-109.99v7.5"/><text fill="#000" font-family="KaTeX_Main" font-size="8" text-anchor="middle" transform="translate(118.52 172.6)"><tspan> 3</tspan></text></g><path fill="none" stroke="#CCC" stroke-linecap="round" stroke-linejoin="round" stroke-width=".1" d="M154.73 162.5V45.01" class="577a3__gridline" color="#000"/><g fill="none" stroke-linecap="round" stroke-linejoin="round" stroke-width="0" color="#000"><path d="M154.73 162.5V155m0-109.99v7.5"/><text fill="#000" font-family="KaTeX_Main" font-size="8" text-anchor="middle" transform="translate(154.73 172.6)"><tspan> 4</tspan></text></g><path fill="none" stroke="#CCC" stroke-linecap="round" stroke-linejoin="round" stroke-width=".1" d="M190.94 162.5V45.01" class="577a3__gridline" color="#000"/><g fill="none" stroke-linecap="round" stroke-linejoin="round" stroke-width="0" color="#000"><path d="M190.94 162.5V155m0-109.99v7.5"/><text fill="#000" font-family="KaTeX_Main" font-size="8" text-anchor="middle" transform="translate(190.94 172.6)"><tspan> 5</tspan></text></g><path fill="none" stroke="#CCC" stroke-linecap="round" stroke-linejoin="round" stroke-width=".1" d="M227.15 162.5V45.01" class="577a3__gridline" color="#000"/><g fill="none" stroke-linecap="round" stroke-linejoin="round" stroke-width="0" color="#000"><path d="M227.15 162.5V155m0-109.99v7.5"/><text fill="#000" font-family="KaTeX_Main" font-size="8" text-anchor="middle" transform="translate(227.15 172.6)"><tspan> 6</tspan></text></g><path fill="none" stroke="#CCC" stroke-linecap="round" stroke-linejoin="round" stroke-width=".1" d="M263.36 162.5V45.01" class="577a3__gridline" color="#000"/><g fill="none" stroke-linecap="round" stroke-linejoin="round" stroke-width="0" color="#000"><path d="M263.36 162.5V155m0-109.99v7.5"/><text fill="#000" font-family="KaTeX_Main" font-size="8" text-anchor="middle" transform="translate(263.36 172.6)"><tspan> 7</tspan></text></g><path fill="none" stroke="#CCC" stroke-linecap="round" stroke-linejoin="round" stroke-width=".1" d="M299.57 162.5V45.01" class="577a3__gridline" color="#000"/><g fill="none" stroke-linecap="round" stroke-linejoin="round" stroke-width="0" color="#000"><path d="M299.57 162.5V155m0-109.99v7.5"/><text fill="#000" font-family="KaTeX_Main" font-size="8" text-anchor="middle" transform="translate(299.57 172.6)"><tspan> 8</tspan></text></g><path fill="none" stroke="#CCC" stroke-linecap="round" stroke-linejoin="round" stroke-width=".1" d="M335.78 162.5V45.01" class="577a3__gridline" color="#000"/><g fill="none" stroke-linecap="round" stroke-linejoin="round" stroke-width="0" color="#000"><path d="M335.78 162.5V155m0-109.99v7.5"/><text fill="#000" font-family="KaTeX_Main" font-size="8" text-anchor="middle" transform="translate(335.78 172.6)"><tspan> 9</tspan></text></g><path fill="none" stroke="#CCC" stroke-linecap="round" stroke-linejoin="round" stroke-width=".1" d="M371.99 162.5V45.01" class="577a3__gridline" color="#000"/><g fill="none" stroke-linecap="round" stroke-linejoin="round" stroke-width="0" color="#000"><path d="M371.99 162.5V155m0-109.99v7.5"/><text fill="#000" font-family="KaTeX_Main" font-size="8" text-anchor="middle" transform="translate(371.99 172.6)"><tspan> 10</tspan></text></g><g fill="none" stroke-linecap="round" stroke-linejoin="round" stroke-width="0" color="#000"><path d="M371.99 162.5h-7.5"/><text fill="#000" font-family="KaTeX_Main" font-size="8" transform="translate(378.99 165.1)"><tspan>0.900</tspan></text></g><g fill="none" stroke-linecap="round" stroke-linejoin="round" stroke-width="0" color="#000"><path d="M371.99 145.72h-7.5"/><text fill="#000" font-family="KaTeX_Main" font-size="8" transform="translate(378.99 148.32)"><tspan>0.910</tspan></text></g><g fill="none" stroke-linecap="round" stroke-linejoin="round" stroke-width="0" color="#000"><path d="M371.99 128.93h-7.5"/><text fill="#000" font-family="KaTeX_Main" font-size="8" transform="translate(378.99 131.53)"><tspan>0.920</tspan></text></g><g fill="none" stroke-linecap="round" stroke-linejoin="round" stroke-width="0" color="#000"><path d="M371.99 112.15h-7.5"/><text fill="#000" font-family="KaTeX_Main" font-size="8" transform="translate(378.99 114.75)"><tspan>0.930</tspan></text></g><g fill="none" stroke-linecap="round" stroke-linejoin="round" stroke-width="0" color="#000"><path d="M371.99 95.36h-7.5"/><text fill="#000" font-family="KaTeX_Main" font-size="8" transform="translate(378.99 97.96)"><tspan>0.940</tspan></text></g><g fill="none" stroke-linecap="round" stroke-linejoin="round" stroke-width="0" color="#000"><path d="M371.99 78.58h-7.5"/><text fill="#000" font-family="KaTeX_Main" font-size="8" transform="translate(378.99 81.18)"><tspan>0.950</tspan></text></g><g fill="none" stroke-linecap="round" stroke-linejoin="round" stroke-width="0" color="#000"><path d="M371.99 61.79h-7.5"/><text fill="#000" font-family="KaTeX_Main" font-size="8" transform="translate(378.99 64.39)"><tspan>0.960</tspan></text></g><g fill="none" stroke-linecap="round" stroke-linejoin="round" stroke-width="0" color="#000"><path d="M371.99 45.01h-7.5"/><text fill="#000" font-family="KaTeX_Main" font-size="8" transform="translate(378.99 47.61)"><tspan>0.970</tspan></text></g><path fill="none" d="M28 45.01V162.5M371.99 45.01H28" color="#000"/><text stroke-linecap="round" stroke-linejoin="round" stroke-width="0" color="#000" font-family="KaTeX_Main" font-size="10" text-anchor="middle" transform="rotate(-90 57.63 46.13)"><tspan font-weight="bold">Average Path Length </tspan><tspan> / log</tspan><tspan dy="3" font-size="8">2</tspan><tspan dy="-3">(Size)</tspan></text><text stroke-linecap="round" stroke-linejoin="round" stroke-width="0" color="#000" font-family="KaTeX_Main" font-size="10" text-anchor="middle" transform="translate(199.99 195.75)"><tspan>Operations / 10</tspan><tspan dy="-5" font-size="8">6</tspan></text><text stroke-linecap="round" stroke-linejoin="round" color="#000" font-family="KaTeX_Main" font-size="8" transform="translate(71.2 10.11)"><tspan>RedBlackBottomUp</tspan></text><g fill="none" stroke="currentColor" stroke-linecap="round" stroke-linejoin="round" color="#000"><path stroke="#F44336" d="M35.7 7.51h29.9M28 85.73l.36-1.88.36-5.42.37 15.35.36-5.29.36.1.36 3.23.36-4.5.37-1.89.36-3.59.36 36.24.36-4.76.37-1.89.36-4.36.36 2.97.36.22.36-4.14.37 12.43.36-3.64.36-1.67.36-3.83.36 3.16.37-3.65.36-.4.36-3.49.36-5.88.36-4.38.37-2.09.36-4 .36 2.69.36-3.89.36-1.68.37-3.54.36 10.4.36-3.59.36-1.56.37-3.24.36 2.3.36-3.27.36-1.32.36-3.06.37 24.98.36-3.22.36-1.35.36-3.08.36 2.16.37-3.01.36-1.24.36-2.82.36 9.1.36-2.81.37-1.18.36-2.6.36 1.96.36-2.47.37-.73.36-3.05.36-4.2.36-3.13.36-1.23.37-3.12.36 2 .36-2.9.36-4.05.36-1.19.37-2.65.36 7.71.36-2.56.36-1.09.36-3.12.37 2.05.36-2.49.36-1.17.36-2.29.37 19.45.36-3.63.36-2.45.36-1.17.36-2.19.37 1.86.36-2.78.36-.89.36-2.1.36 7.35.37-2.17.36-3.22.36-.82.36-1.97.36 1.68.37-2.01.36-1.19.36-1.96.36 40.33.36-2.3.37-.93.36-3.15.36-2.04.36 1.44.37-2.04.36-1.2.36-1.98.36 6.26.36-1.88.37-2.85.36-.73.36-1.9.36 1.18.36-1.71.37-.7.36-1.74.36-2.66.36 15.89.36-1.85.37-1.07.36-1.67.36 1.59.36-1.62.37-2.63.36-.62.36-1.55.36 5.74.36-1.78.37-.48.36-2.39.36-1.68.36 1.71.36-1.81.37-.58.36-1.45.36-2.25.36-2.93.36-1.77.37-1.08.36-1.93.36 1.3.36-2.56.36-1.87.37-.68.36-1.98.36 5.28.36-1.62.37-2.49.36-.72.36-1.95.36 1.34.36-1.62.37-2.4.36-.55.36-1.67.36 12.69.36-1.48.37-.73.36-2.29.36-1.57.36 1.06.36-1.5.37-2.2.36-.48.36-1.7.36 5.08.37-2.18.36-1.34.36-.66.36-1.4.36-2.08.37 1.52.36-1.61.36-.44.36-2.03.36-1.34.37 27.71.36-1.65.36-.54.36-2.06.36-1.38.37 1.12.36-1.37.36-1.97.36-.45.36-1.51.37 5.1.36-1.95.36-1.28.36-.61.37-1.29.36-1.88.36 1.34.36-1.43.36-.39.37-1.99.36-1.39.36 11.77.36-1.83.36-1.19.37-.56.36-1.18.36-1.76.36 1.31.36-1.35.37-.36.36-1.72.36-1.11.36 4.45.37-1.15.36-1.68.36-.31.36-1.24.36 1.32.37-1.79.36-1.23.36-.23.36-1.59.36-1.06.37-2.07.36-1.29.36-1.82.36-.49.36-1.59.37-1.79.36 1.11.36-1.38.36-.46.37-1.8.36-1.18.36 4.02.36-1.16.36-1.88.37-.61.36-1.14.36-1.71.36 1.09.36-1.31.37-.39.36-1.76.36-1.26.36 10.43.36-1.62.37-1.14.36-.54.36-1.11.36-1.74.36.93.37-1.04.36-1.6.36-.38.36-1.2.37 4 .36-1.55.36-1.31.36-.33.36-1.54.37-1.07.36.78.36-1.42.36-.97.36-.52.37-1.42.36-.94.36 21.19.36-1.46.36-1.01.37-.46.36-1.47.36-.96.36.9.37-1.42.36-.95.36-.54.36-1.39.36-.93.37 3.66.36-1.37.36-.94.36-.36.36-1.49.37-.93.36 1.07.36-1.45.36-.89.36-.35.37-1.44.36-.85.36 9 .36-1.32.36-.87.37-.46.36-1.28.36-.84.36.86.37-1.28.36-.83.36-.43.36-1.24.36-.83.37 3.67.36-1.27.36-1.05.36-.11.36-1.26.37-1.02.36 1.13.36-1.18.36-1.01.36-.13.37-1.29.36-.9.36-1.3.36 42.14.37-1.02.36-1.37.36-.23.36-.95.36-1.36.37 1.06.36-1.05.36-1.26.36-.43.36-.78.37-1.25.36 3.31.36-.8.36-1.31.36-.34.37-.75.36-1.31.36.89.36-1.28.36-.73.37-.35.36-1.24.36-.75.36 8.34.37-1.2.36-.93.36-.15.36-1.23.36-.88.37-1.25.36 1.07.36-.89.36-1.24.36-.12.37-.93.36-1.13.36 3.18.36-.66.36-1.14.37-.36.36-.68.36-1.18.36.88.37-.67.36-1.16.36-.26.36-1.15.36-.67.37 17.5.36-1.11.36-.89.36-.14.36-1.17.37-.78.36.96.36-1.19.36-.86.36-1.02.37-.11.36-.85.36-1.06.36 3 .37-.65.36-1.11.36-.22.36-1.1.36-.65.37.81.36-1.01.36-.82.36-.11.36-1.07.37-.74.36-1.06.36 7.56.36-.82.36-1.01.37-.29.36-.62.36-.95.36.73.36-.57.37-1.04.36-.23.36-1.02.36-.6.37 2.89.36-.96.36-.77.36-.09.36-1.01.37-.69.36-1.01.36.95.36-.75.36-.92.37-.24.36-.56.36-.97.36-1.21.36-1.12.37-.69.36-.37.36-1.07.36-.91.37-1.11.36.83.36-.85.36-1.04.36-.34.37-.67.36-1.08.36 2.69.36-1.08.36-.66.37-.35.36-1.02.36-.81.36.79.36-1.05.37-.76.36-1.03.36-.16.36-.79.36-.98.37 6.51.36-1.02.36-.62.36-.33.37-.97.36-.79.36.81.36-1.02.36-.73.37-.99.36-.14.36-.75.36-.95.36 2.56.37-1.03.36-.6.36-.29.36-.91.36-.77.37.82.36-1 .36-.71.36-.92.37-.24.36-1 .36-.52.36 14.29.36-.9.37-.76.36-.96.36-.09.36-.75.36-.93.37.74.36-.95.36-.55.36-.3.36-.93.37-.65.36-.95.36 2.55.36-.55.37-.9.36-.28.36-.87.36-.7.36.85.37-.89.36-.72.36-.85.36-.24.36-.92.37-.51.36 6.11.36-.85.36-.68.36-.09.37-.92.36-.66.36-.83.36.64.36-.9.37-.5.36-.24.36-.81.36-.64.37-.89.36 2.61.36-.65.36-.81.36-.22.37-.88.36-.48.36.62.36-.77.36-.67.37-.83.36-.05.36-.61.36-.86.36 28.69.37-.87.36-.68.36-.09.36-.86.37-.69.36-.79.36.61.36-.52.36-.88.37-.22.36-.79.36-.67.36-.83.36 2.41.37-.64.36-.77.36-.26.36-.83.36-.48.37.56.36-.81.36-.58.36-.81.36-.24.37-.47.36-.81.36 5.72.36-.83.37-.61.36-.08.36-.81.36-.63.36-.73.37.58.36-.46.36-.81.36-.2.36-.75.37-.62.36-.77.36 2.34.36-.61.36-.77.37-.2.36-.72.36-.57.36-.8.37.76.36-.59.36-.79.36-.12.36-.75.37-.42.36 11.95.36-.78.36-.52.36-.78.37-.21.36-.44.36-.79.36.6.36-.7.37-.59.36-.74.36-.21.36-.4.36-.74.37 2.13.36-.71.36-.54.36-.76.37-.03.36-.55.36-.75.36.63.36-.75.37-.54.36-.03.36-.74.36-.53.36-.67.37 5.13.36-.72.36-.4.36-.19.36-.71.37-.55.36-.65.36.58.36-.72.37-.4.36-.16.36-.71.36-.48.36-.71.37 2.08.36-.39.36-.68.36-.18.36-.63.37-.54.36-.68.36.72.36-.53.36-.68.37-.16.36-.62.36-.52.36-.66.37-.81.36-.61.36-.77.36-.19.36-.77.37-.61.36-.74.36.6.36-.6.36-.76.37-.19.36-.77.36-.58.36 2.04.36-.76.37-.58.36-.69.36-.26.36-.74.36-.59.37.6.36-.73.36-.58.36-.69.37-.21.36-.75.36-.44.36 4.73.36-.72.37-.58.36-.67.36-.23.36-.71.36-.55.37.6.36-.73.36-.53.36-.73.36-.13.37-.72.36-.54.36-.71.36 1.99.37-.56.36-.69.36-.15.36-.71.36-.53.37-.7.36.63.36-.53.36-.68.36-.22.37-.64.36-.52.36-.67.36 10.23.36-.41.37-.71.36-.17.36-.7.36-.48.36-.69.37.48.36-.69.36-.39.36-.21.37-.67.36-.52.36-.63.36 1.84.36-.66.37-.51.36-.06.36-.68.36-.49.36-.67.37.52.36-.67.36-.48.36-.66.36-.05.37-.52.36-.63.36 4.46.36-.66.37-.45.36-.65.36-.16.36-.66.36-.38.37.47.36-.64.36-.49.36-.59.36-.15.37-.64.36-.51.36 1.89.36-.64.36-.47.37-.64.36-.13.36-.64.36-.46.36.57.37-.63.36-.47.36-.61.36-.14.37-.6.36-.49.36 20.77.36-.64.36-.48.37-.65.36-.19.36-.59.36-.48.36-.62.37.42.36-.36.36-.63.36-.16.36-.62.37-.44.36-.63.36 1.7.36-.64.37-.35.36-.18.36-.62.36-.45.36-.61.37.49.36-.61.36-.45.36-.61.36-.05.37-.47.36-.59.36 4.18.36-.56.36-.46.37-.61.36-.15.36-.6.36-.34.37.44.36-.58.36-.45.36-.55.36-.15.37-.6.36-.43.36-.6.36 1.66.36-.32.37-.6.36-.13.36-.58.36-.41.36-.58.37.46.36-.59.36-.44.36-.03.36-.58.37-.42.36-.58.36 9.02.36-.58.37-.43.36-.58.36-.03.36-.44.36-.57.37.42.36-.53.36-.44.36-.58.36-.14.37-.56.36-.31.36 1.61.36-.55.36-.42.37-.53.36-.15.36-.54.36-.43.37-.58.36.55.36-.43.36-.54.36-.15.37-.55.36-.36.36-.55.36 3.92.36-.55.37-.31.36-.13.36-.53.36-.42.36-.51.37.43.36-.53.36-.42.36-.54.36-.03.37-.4.36-.54.36 1.54.36-.54.37-.35.36-.54.36-.11.36-.54.36-.29.37.41.36-.52.36-.39.36-.52.36-.08.37-.53.36-.39.36-.5.36 41.57.36-.57.37-.32.36-.17.36-.55.36-.41.37-.57.36.39.36-.52.36-.42.36-.55.37-.16.36-.32.36-.56.36 1.5.36-.56.37-.37.36-.56.36-.18.36-.53.36-.41.37-.55.36.48.36-.41.36-.53.36-.15.37-.5.36-.42.36-.53.36 3.64.37-.31.36-.53.36-.17.36-.53.36-.4.37-.49.36.36.36-.53.36-.39.36-.53.37-.05.36-.4.36-.54.36 1.45.36-.53.37-.36.36-.52.36-.13.36-.53.37-.4.36.46.36-.5.36-.41.36-.52.37-.1.36-.51.36-.39.36-.51.36 7.96.37-.4.36-.53.36-.13.36-.52.36-.38.37-.48.36.36.36-.51.36-.39.37-.51.36-.03.36-.39.36-.49.36 1.38.37-.47.36-.39.36-.51.36-.12.36-.5.37-.29.36.37.36-.51.36-.36.36-.49.37-.1.36-.5.36-.38.36-.48.36 3.42.37-.49.36-.27.36-.13.36-.48.37-.37.36-.5.36.42.36-.49.36-.36.37-.49.36-.14.36-.27"/><use xlink:href="#577a3__b" color="#F44336" transform="matrix(3.75 0 0 3.75 354.25 80.59)"/><use xlink:href="#577a3__b" color="#F44336" transform="matrix(3.75 0 0 3.75 50.65 7.51)"/></g><text stroke-linecap="round" stroke-linejoin="round" color="#000" font-family="KaTeX_Main" font-size="8" transform="translate(71.2 25.11)"><tspan>RedBlackTopDown</tspan></text><g fill="none" stroke="currentColor" stroke-linecap="round" stroke-linejoin="round" color="#000"><path stroke="#3B75EA" d="M35.7 22.51h29.9M28 148.09l.36-2.9.36-5.6.37 6.33.36-4.27.36-1.78.36-1.13.36-4.05.37-3.91.36-5.29.36 15.76.36-2.99.37-2.3.36-4.47.36 1.19.36-3.05.36-4.47.37 3.52.36-3.14.36-2.69.36-4.27.36-1.05.37-3.64.36-3.53.36-5.15.36 32.22.36-1.95.37-1.33.36-3.14.36.55.36-2.96.36-2.17.37-3.89.36 4.5.36-2.9.36-1.13.37-.97.36-2.66.36-2.68.36-3.47.36 9.48.37-1.61.36-1.61.36-2.43.36-.66.36-2.36.37-2.27.36-3.07.36 1.97.36-2.11.36-2.05.37-2.86.36-1.1.36-3.26.36-3.23.37-2.44.36-3.9.36 55.48.36-1.08.36-.63.37-1.97.36.56.36-1.53.36-1.19.36-2.18.37 2.79.36-1.27.36-2.44.36-.96.36-2.29.37.14.36-2.07.36-1.66.36-2.64.37 8.5.36-1.18.36-1.06.36-1.62.36-.26.37-2.03.36-1.97.36-1.37.36-2.49.36 2.61.37-1.7.36-1.51.36-2.09.36-.62.36-1.91.37-1.89.36-2.79.36-2.74.36 18.68.36-1.01.37-.68.36-1.64.36.16.36-1.39.37-1.19.36-1.69.36-2.54.36 2.77.36-1.5.37-1.01.36-1.94.36-.22.36-1.71.36-2.51.37-1.31.36-2.34.36 6.95.36-1.38.36-.89.37-1.56.36-.36.36-1.7.36-1.73.37-1.24.36-2.14.36 1.72.36-1.43.36-2.23.37-1.06.36-2.01.36-.31.36-1.97.36-1.62.37-2.1.36-2.75.36 34.35.36-.64.36-.48.37-.93.36.14.36-1.17.36-1.08.36-.72.37-1.56.36 2.02.36-.88.36-1.57.37-.56.36-1.4.36-.07.36-1.19.36-1.11.37-1.85.36-1.7.36 5.89.36-1.02.36-.58.37-1.13.36-1.71.36.35.36-1.32.36-.96.37-1.76.36-1.53.36 2.06.36-1.19.37-.96.36-1.57.36-1.52.36-.21.36-1.39.37-1.94.36-1.11.36-1.93.36 12.93.36-.65.37-1.12.36-.44.36-1.09.36.07.36-1.15.37-1.09.36-.86.36-1.24.36-1.85.36 2.16.37-1.1.36-.65.36-1.2.36-1.6.37.02.36-1.29.36-1.07.36-1.61.36-1.57.37 4.83.36-.83.36-1.26.36-.6.36-1.22.37-.15.36-1.25.36-1.18.36-.99.36-1.37.37-1.82.36 1.68.36-1.18.36-.88.37-1.49.36-1.39.36-.3.36-1.31.36-1.72.37-1.05.36-1.64.36 56.43.36-.39.36-.35.37-.18.36-.55.36-.88.36.38.36-.51.37-1.02.36-.28.36-.94.36 1.62.37-.68.36-.59.36-.43.36-.77.36-1.16.37.33.36-.86.36-.66.36-1.08.36-1.09.37 4.24.36-.66.36-.54.36-.37.36-.72.37-1.1.36.33.36-.8.36-.6.36-1.05.37-1.01.36 1.29.36-.92.36-.75.37-.59.36-.91.36-1.31.36.15.36-1.02.37-.78.36-1.22.36-1.29.36 9.5.36-.52.37-.47.36-.36.36-.79.36-.68.36.25.37-.86.36-.66.36-.53.36-.84.37-1.18.36 1.57.36-.61.36-.91.36-.53.37-.77.36-1.18.36.21.36-.88.36-1.24.37-.56.36-1.11.36 3.66.36-.65.36-.65.37-.44.36-.85.36-.91.36.04.36-.88.37-.79.36-.7.36-1.08.36-1.01.37 1.12.36-.94.36-.75.36-.63.36-1.16.37-.94.36-.14.36-.9.36-1.19.36-.79.37-1.11.36-1.39.36 19.78.36-.3.36-.56.37-.21.36-.48.36-.76.36.28.37-.47.36-.76.36-.4.36-.66.36-.96.37 1.4.36-.45.36-.76.36-.39.36-.63.37-.94.36.11.36-.62.36-.93.36-.59.37-.79.36-1.13.36 3.73.36-.51.36-.73.37-.25.36-.69.36-.91.36.14.37-.57.36-.89.36-.51.36-.78.36-1.04.37 1.17.36-.58.36-.84.36-.52.36-.76.37-1.01.36-.06.36-.75.36-.99.36-.68.37-.91.36-1.16.36 7.82.36-.38.37-.61.36-.31.36-.53.36-.81.36.17.37-.54.36-.78.36-.45.36-.7.36-.94.37 1.09.36-.73.36-.54.36-.42.36-.85.37-.72.36-.09.36-.79.36-.72.37-.62.36-.94.36-.88.36 2.87.36-.58.37-.6.36-.39.36-.71.36-.75.36-.06.37-.73.36-.71.36-.56.36-.85.36-.87.37-1.16.36 1.19.36-.69.36-.95.36-.43.37-.83.36-1.09h.36l.36-.85.37-1.01.36-.6.36-.98.36-1.16.36 34.76.37-.15.36-.38.36-.09.36-.32.36-.53.37.3.36-.48.36-.33.36-.27.36-.56.37-.5.36 1.05.36-.39.36-.41.37-.21.36-.54.36-.51.36.06.36-.5.37-.5.36-.75.36-.28.36-.67.36-.83.37 3.02.36-.25.36-.51.36-.22.36-.42.37-.65.36.17.36-.59.36-.44.36-.39.37-.66.36-.6.36.86.36-.49.37-.51.36-.34.36-.62.36-.61.36-.84.37.18.36-.61.36-.78.36-.48.36-.68.37-.91.36 6.46.36-.25.36-.44.36-.18.37-.51.36-.43.36.11.36-.46.37-.48.36-.32.36-.56.36-.59.36-.74.37 1.05.36-.36.36-.58.36-.3.36-.64.37-.54.36-.01.36-.58.36-.58.36-.44.37-.68.36-.71.36-.85.36 2.77.37-.35.36-.55.36-.29.36-.62.36-.51.37-.01.36-.56.36-.55.36-.41.36-.66.37-.66.36-.86.36.96.36-.53.36-.68.37-.4.36-.58.36-.77.36-.08.36-.71.37-.61.36-.55.36-.77.36-.78.37 12.53.36-.24.36-.26.36-.44.36-.06.37-.37.36-.51.36.19.36-.32.36-.49.37-.27.36-.52.36-.51.36.81.36-.35.37-.37.36-.54.36-.19.36-.49.37-.62.36.1.36-.56.36-.45.36-.4.37-.61.36-.61.36-.81.36 2.7.36-.36.37-.48.36-.24.36-.41.36-.58.36.07.37-.52.36-.5.36-.32.36-.59.36-.57.37-.76.36.93.36-.45.36-.58.37-.33.36-.52.36-.67.36-.08.36-.58.37-.58.36-.43.36-.67.36-.67.36-.83.37 5.43.36-.25.36-.44.36-.2.36-.48.37-.46.36.08.36-.44.36-.41.37-.61.36-.24.36-.53.36-.68.36.8.37-.49.36-.39.36-.34.36-.54.36-.53.37-.09.36-.51.36-.52.36-.65.36-.41.37-.57.36-.72.36 2.06.36-.41.36-.42.37-.57.36-.21.36-.51.36-.62.37.01.36-.6.36-.46.36-.41.36-.62.37-.62.36-.8.36.84.36-.49.36-.61.37-.39.36-.67.36-.55.36-.15.36-.6.37-.59.36-.78.36-.39.36-.69.37-.81.36 55.65.36-.2.36-.08.36-.02.37-.23.36-.24.36-.39.36.39.36-.21.37-.35.36-.09.36-.38.36-.29.36.78.37-.21.36-.21.36-.35.36-.1.37-.28.36-.4.36.11.36-.32.36-.33.37-.49.36-.11.36-.41.36-.52.36 2.2.37-.28.36-.17.36-.12.36-.31.36-.32.37-.47.36.26.36-.29.36-.43.36-.18.37-.46.36-.36.36.64.36-.31.37-.29.36-.45.36-.14.36-.39.36-.49.37.07.36-.44.36-.4.36-.28.36-.48.37-.48.36-.59.36 4.75.36-.25.36-.16.37-.12.36-.29.36-.27.36-.42.37.19.36-.24.36-.36.36-.21.36-.39.37-.38.36-.55.36.91.36-.28.36-.39.37-.17.36-.41.36-.38.36.04.36-.35.37-.39.36-.46.36-.27.36-.54.36-.41.37 1.86.36-.29.36-.26.36-.4.37-.17.36-.31.36-.44.36.05.36-.37.37-.36.36-.52.36-.18.36-.44.36-.54.37.63.36-.39.36-.36.36-.52.36-.16.37-.44.36-.55.36.01.36-.48.37-.45.36-.33.36-.52.36-.52.36-.62.37 9.61.36-.23.36-.12.36-.1.36-.26.37-.24.36-.37.36.2.36-.21.36-.32.37-.18.36-.34.36-.34.36-.48.36.83.37-.25.36-.33.36-.15.36-.36.37-.35.36.04.36-.31.36-.34.36-.41.37-.24.36-.46.36-.38.36 1.67.36-.23.37-.23.36-.35.36-.14.36-.39.36-.28.37.05.36-.34.36-.31.36-.44.37-.22.36-.36.36-.47.36.57.36-.34.37-.3.36-.44.36-.22.36-.35.36-.47.37-.02.36-.4.36-.4.36-.52.36-.3.37-.42.36-.55.36 3.99.36-.23.37-.22.36-.35.36-.13.36-.24.36-.38.37.07.36-.31.36-.3.36-.42.36-.21.37-.33.36-.46.36.57.36-.3.36-.3.37-.42.36-.21.36-.32.36-.44.36-.02.37-.38.36-.38.36-.49.36-.28.37-.4.36-.53.36 1.59.36-.29.36-.29.37-.42.36-.13.36-.36.36-.44.36-.01.37-.36.36-.37.36-.48.36-.22.36-.43.37-.52.36.49.36-.39.36-.36.37-.49.36-.2.36-.43.36-.51.36-.07.37-.43.36-.44.36-.55.36-.29.36-.5.37-.57.36 17.68.36-.13.36-.13.36-.24.37.01.36-.19.36-.27.36.15.36-.2.37-.21.36-.31.36-.1.36-.23.37-.34.36.6.36-.2.36-.2.36-.31.37-.1.36-.22.36-.34.36.08.36-.29.37-.26.36-.37.36-.17.36-.39.36-.31.37 1.55.36-.18.36-.19.36-.27.37-.11.36-.29.36-.28.36.07.36-.25.37-.26.36-.34.36-.17.36-.37.36-.35.37.49.36-.25.36-.25.36-.34.36-.17.37-.35.36-.33.36-.46.36.12.36-.32.37-.39.36-.27.36-.4.36-.41.37-.5.36 3.76.36-.17.36-.24.36-.11.37-.27.36-.23.36-.35.36.13.36-.21.37-.31.36-.17.36-.33.36-.31.36-.41.37.57.36-.29.36-.21.36-.19.37-.31.36-.32.36-.39.36.04.36-.36.37-.28.36-.25.36-.38.36-.38.36-.45.37 1.48.36-.27.36-.24.36-.16.36-.29.37-.3.36-.39.36.04.36-.32.37-.3.36-.42.36-.18.36-.36.36-.43.37.42.36-.3.36-.3.36-.4.36-.21.37-.32.36-.43.36-.06.36-.38.36-.35.37-.45.36-.29.36-.47.36-.4.36 7.2.37-.16.36-.15.36-.22.36-.09.37-.25.36-.22.36-.34.36.2.36-.22.37-.28.36-.17.36-.29"/><use xlink:href="#577a3__c" color="#3B75EA" transform="matrix(3.75 0 0 3.75 67.83 116.54)"/><use xlink:href="#577a3__c" color="#3B75EA" transform="matrix(3.75 0 0 3.75 50.65 22.51)"/></g><text stroke-linecap="round" stroke-linejoin="round" color="#000" font-family="KaTeX_Main" font-size="8" transform="translate(241.1 10.11)"><tspan>RedBlackRelaxedBottomUp</tspan></text><g fill="none" stroke="currentColor" stroke-linecap="round" stroke-linejoin="round" color="#000"><path stroke="#EC6F1A" stroke-dasharray="1.0,2.0" d="M205.6 7.51h29.9M28 85.73l.36-1.88.36-5.42.37 15.35.36-5.29.36.1.36 3.23.36-4.5.37-1.89.36-3.59.36 36.24.36-4.76.37-1.89.36-4.36.36 2.97.36.22.36-4.14.37 12.43.36-3.64.36-1.67.36-3.83.36 3.16.37-3.65.36-.4.36-3.49.36-5.88.36-4.38.37-2.09.36-4 .36 2.69.36-3.89.36-1.68.37-3.54.36 10.4.36-3.59.36-1.56.37-3.24.36 2.3.36-3.27.36-1.32.36-3.06.37 24.98.36-3.22.36-1.35.36-3.08.36 2.16.37-3.01.36-1.24.36-2.82.36 9.1.36-2.81.37-1.18.36-2.6.36 1.96.36-2.47.37-.73.36-3.05.36-4.2.36-3.13.36-1.23.37-3.12.36 2 .36-2.9.36-4.05.36-1.19.37-2.65.36 7.71.36-2.56.36-1.09.36-3.12.37 2.05.36-2.49.36-1.17.36-2.29.37 19.45.36-3.63.36-2.45.36-1.17.36-2.19.37 1.86.36-2.78.36-.89.36-2.1.36 7.35.37-2.17.36-3.22.36-.82.36-1.97.36 1.68.37-2.01.36-1.19.36-1.96.36 40.33.36-2.3.37-.93.36-3.15.36-2.04.36 1.44.37-2.04.36-1.2.36-1.98.36 6.26.36-1.88.37-2.85.36-.73.36-1.9.36 1.18.36-1.71.37-.7.36-1.74.36-2.66.36 15.89.36-1.85.37-1.07.36-1.67.36 1.59.36-1.62.37-2.63.36-.62.36-1.55.36 5.74.36-1.78.37-.48.36-2.39.36-1.68.36 1.71.36-1.81.37-.58.36-1.45.36-2.25.36-2.93.36-1.77.37-1.08.36-1.93.36 1.3.36-2.56.36-1.87.37-.68.36-1.98.36 5.28.36-1.62.37-2.49.36-.72.36-1.95.36 1.34.36-1.62.37-2.4.36-.55.36-1.67.36 12.69.36-1.48.37-.73.36-2.29.36-1.57.36 1.06.36-1.5.37-2.2.36-.48.36-1.7.36 5.08.37-2.18.36-1.34.36-.66.36-1.4.36-2.08.37 1.52.36-1.61.36-.44.36-2.03.36-1.34.37 27.71.36-1.65.36-.54.36-2.06.36-1.38.37 1.12.36-1.37.36-1.97.36-.45.36-1.51.37 5.1.36-1.95.36-1.28.36-.61.37-1.29.36-1.88.36 1.34.36-1.43.36-.39.37-1.99.36-1.39.36 11.77.36-1.83.36-1.19.37-.56.36-1.18.36-1.76.36 1.31.36-1.35.37-.36.36-1.72.36-1.11.36 4.45.37-1.15.36-1.68.36-.31.36-1.24.36 1.32.37-1.79.36-1.23.36-.23.36-1.59.36-1.06.37-2.07.36-1.29.36-1.82.36-.49.36-1.59.37-1.79.36 1.11.36-1.38.36-.46.37-1.8.36-1.18.36 4.02.36-1.16.36-1.88.37-.61.36-1.14.36-1.71.36 1.09.36-1.31.37-.39.36-1.76.36-1.26.36 10.43.36-1.62.37-1.14.36-.54.36-1.11.36-1.74.36.93.37-1.04.36-1.6.36-.38.36-1.2.37 4 .36-1.55.36-1.31.36-.33.36-1.54.37-1.07.36.78.36-1.42.36-.97.36-.52.37-1.42.36-.94.36 21.19.36-1.46.36-1.01.37-.46.36-1.47.36-.96.36.9.37-1.42.36-.95.36-.54.36-1.39.36-.93.37 3.66.36-1.37.36-.94.36-.36.36-1.49.37-.93.36 1.07.36-1.45.36-.89.36-.35.37-1.44.36-.85.36 9 .36-1.32.36-.87.37-.46.36-1.28.36-.84.36.86.37-1.28.36-.83.36-.43.36-1.24.36-.83.37 3.67.36-1.27.36-1.05.36-.11.36-1.26.37-1.02.36 1.13.36-1.18.36-1.01.36-.13.37-1.29.36-.9.36-1.3.36 42.14.37-1.02.36-1.37.36-.23.36-.95.36-1.36.37 1.06.36-1.05.36-1.26.36-.43.36-.78.37-1.25.36 3.31.36-.8.36-1.31.36-.34.37-.75.36-1.31.36.89.36-1.28.36-.73.37-.35.36-1.24.36-.75.36 8.34.37-1.2.36-.93.36-.15.36-1.23.36-.88.37-1.25.36 1.07.36-.89.36-1.24.36-.12.37-.93.36-1.13.36 3.18.36-.66.36-1.14.37-.36.36-.68.36-1.18.36.88.37-.67.36-1.16.36-.26.36-1.15.36-.67.37 17.5.36-1.11.36-.89.36-.14.36-1.17.37-.78.36.96.36-1.19.36-.86.36-1.02.37-.11.36-.85.36-1.06.36 3 .37-.65.36-1.11.36-.22.36-1.1.36-.65.37.81.36-1.01.36-.82.36-.11.36-1.07.37-.74.36-1.06.36 7.56.36-.82.36-1.01.37-.29.36-.62.36-.95.36.73.36-.57.37-1.04.36-.23.36-1.02.36-.6.37 2.89.36-.96.36-.77.36-.09.36-1.01.37-.69.36-1.01.36.95.36-.75.36-.92.37-.24.36-.56.36-.97.36-1.21.36-1.12.37-.69.36-.37.36-1.07.36-.91.37-1.11.36.83.36-.85.36-1.04.36-.34.37-.67.36-1.08.36 2.69.36-1.08.36-.66.37-.35.36-1.02.36-.81.36.79.36-1.05.37-.76.36-1.03.36-.16.36-.79.36-.98.37 6.51.36-1.02.36-.62.36-.33.37-.97.36-.79.36.81.36-1.02.36-.73.37-.99.36-.14.36-.75.36-.95.36 2.56.37-1.03.36-.6.36-.29.36-.91.36-.77.37.82.36-1 .36-.71.36-.92.37-.24.36-1 .36-.52.36 14.29.36-.9.37-.76.36-.96.36-.09.36-.75.36-.93.37.74.36-.95.36-.55.36-.3.36-.93.37-.65.36-.95.36 2.55.36-.55.37-.9.36-.28.36-.87.36-.7.36.85.37-.89.36-.72.36-.85.36-.24.36-.92.37-.51.36 6.11.36-.85.36-.68.36-.09.37-.92.36-.66.36-.83.36.64.36-.9.37-.5.36-.24.36-.81.36-.64.37-.89.36 2.61.36-.65.36-.81.36-.22.37-.88.36-.48.36.62.36-.77.36-.67.37-.83.36-.05.36-.61.36-.86.36 28.69.37-.87.36-.68.36-.09.36-.86.37-.69.36-.79.36.61.36-.52.36-.88.37-.22.36-.79.36-.67.36-.83.36 2.41.37-.64.36-.77.36-.26.36-.83.36-.48.37.56.36-.81.36-.58.36-.81.36-.24.37-.47.36-.81.36 5.72.36-.83.37-.61.36-.08.36-.81.36-.63.36-.73.37.58.36-.46.36-.81.36-.2.36-.75.37-.62.36-.77.36 2.34.36-.61.36-.77.37-.2.36-.72.36-.57.36-.8.37.76.36-.59.36-.79.36-.12.36-.75.37-.42.36 11.95.36-.78.36-.52.36-.78.37-.21.36-.44.36-.79.36.6.36-.7.37-.59.36-.74.36-.21.36-.4.36-.74.37 2.13.36-.71.36-.54.36-.76.37-.03.36-.55.36-.75.36.63.36-.75.37-.54.36-.03.36-.74.36-.53.36-.67.37 5.13.36-.72.36-.4.36-.19.36-.71.37-.55.36-.65.36.58.36-.72.37-.4.36-.16.36-.71.36-.48.36-.71.37 2.08.36-.39.36-.68.36-.18.36-.63.37-.54.36-.68.36.72.36-.53.36-.68.37-.16.36-.62.36-.52.36-.66.37-.81.36-.61.36-.77.36-.19.36-.77.37-.61.36-.74.36.6.36-.6.36-.76.37-.19.36-.77.36-.58.36 2.04.36-.76.37-.58.36-.69.36-.26.36-.74.36-.59.37.6.36-.73.36-.58.36-.69.37-.21.36-.75.36-.44.36 4.73.36-.72.37-.58.36-.67.36-.23.36-.71.36-.55.37.6.36-.73.36-.53.36-.73.36-.13.37-.72.36-.54.36-.71.36 1.99.37-.56.36-.69.36-.15.36-.71.36-.53.37-.7.36.63.36-.53.36-.68.36-.22.37-.64.36-.52.36-.67.36 10.23.36-.41.37-.71.36-.17.36-.7.36-.48.36-.69.37.48.36-.69.36-.39.36-.21.37-.67.36-.52.36-.63.36 1.84.36-.66.37-.51.36-.06.36-.68.36-.49.36-.67.37.52.36-.67.36-.48.36-.66.36-.05.37-.52.36-.63.36 4.46.36-.66.37-.45.36-.65.36-.16.36-.66.36-.38.37.47.36-.64.36-.49.36-.59.36-.15.37-.64.36-.51.36 1.89.36-.64.36-.47.37-.64.36-.13.36-.64.36-.46.36.57.37-.63.36-.47.36-.61.36-.14.37-.6.36-.49.36 20.77.36-.64.36-.48.37-.65.36-.19.36-.59.36-.48.36-.62.37.42.36-.36.36-.63.36-.16.36-.62.37-.44.36-.63.36 1.7.36-.64.37-.35.36-.18.36-.62.36-.45.36-.61.37.49.36-.61.36-.45.36-.61.36-.05.37-.47.36-.59.36 4.18.36-.56.36-.46.37-.61.36-.15.36-.6.36-.34.37.44.36-.58.36-.45.36-.55.36-.15.37-.6.36-.43.36-.6.36 1.66.36-.32.37-.6.36-.13.36-.58.36-.41.36-.58.37.46.36-.59.36-.44.36-.03.36-.58.37-.42.36-.58.36 9.02.36-.58.37-.43.36-.58.36-.03.36-.44.36-.57.37.42.36-.53.36-.44.36-.58.36-.14.37-.56.36-.31.36 1.61.36-.55.36-.42.37-.53.36-.15.36-.54.36-.43.37-.58.36.55.36-.43.36-.54.36-.15.37-.55.36-.36.36-.55.36 3.92.36-.55.37-.31.36-.13.36-.53.36-.42.36-.51.37.43.36-.53.36-.42.36-.54.36-.03.37-.4.36-.54.36 1.54.36-.54.37-.35.36-.54.36-.11.36-.54.36-.29.37.41.36-.52.36-.39.36-.52.36-.08.37-.53.36-.39.36-.5.36 41.57.36-.57.37-.32.36-.17.36-.55.36-.41.37-.57.36.39.36-.52.36-.42.36-.55.37-.16.36-.32.36-.56.36 1.5.36-.56.37-.37.36-.56.36-.18.36-.53.36-.41.37-.55.36.48.36-.41.36-.53.36-.15.37-.5.36-.42.36-.53.36 3.64.37-.31.36-.53.36-.17.36-.53.36-.4.37-.49.36.36.36-.53.36-.39.36-.53.37-.05.36-.4.36-.54.36 1.45.36-.53.37-.36.36-.52.36-.13.36-.53.37-.4.36.46.36-.5.36-.41.36-.52.37-.1.36-.51.36-.39.36-.51.36 7.96.37-.4.36-.53.36-.13.36-.52.36-.38.37-.48.36.36.36-.51.36-.39.37-.51.36-.03.36-.39.36-.49.36 1.38.37-.47.36-.39.36-.51.36-.12.36-.5.37-.29.36.37.36-.51.36-.36.36-.49.37-.1.36-.5.36-.38.36-.48.36 3.42.37-.49.36-.27.36-.13.36-.48.37-.37.36-.5.36.42.36-.49.36-.36.37-.49.36-.14.36-.27"/><use xlink:href="#577a3__a" color="#EC6F1A" transform="matrix(3.75 0 0 3.75 125.4 63.21)"/><use xlink:href="#577a3__a" color="#EC6F1A" transform="matrix(3.75 0 0 3.75 220.55 7.51)"/></g><text stroke-linecap="round" stroke-linejoin="round" color="#000" font-family="KaTeX_Main" font-size="8" transform="translate(241.1 25.11)"><tspan>RedBlackRelaxedTopDown</tspan></text><g fill="none" stroke="currentColor" stroke-linecap="round" stroke-linejoin="round" color="#000"><path stroke="violet" stroke-dasharray="4.0,2.0,1.0,2.0" d="M205.6 22.51h29.9M28 148.09l.36-2.9.36-5.6.37 6.33.36-4.27.36-1.78.36-1.13.36-4.05.37-3.91.36-5.29.36 15.76.36-2.99.37-2.3.36-4.47.36 1.19.36-3.05.36-4.47.37 3.52.36-3.14.36-2.69.36-4.27.36-1.05.37-3.64.36-3.53.36-5.15.36 32.22.36-1.95.37-1.33.36-3.14.36.55.36-2.96.36-2.17.37-3.89.36 4.5.36-2.9.36-1.13.37-.97.36-2.66.36-2.68.36-3.47.36 9.48.37-1.61.36-1.61.36-2.43.36-.66.36-2.36.37-2.27.36-3.07.36 1.97.36-2.11.36-2.05.37-2.86.36-1.1.36-3.26.36-3.23.37-2.44.36-3.9.36 55.48.36-1.08.36-.63.37-1.97.36.56.36-1.53.36-1.19.36-2.18.37 2.79.36-1.27.36-2.44.36-.96.36-2.29.37.14.36-2.07.36-1.66.36-2.64.37 8.5.36-1.18.36-1.06.36-1.62.36-.26.37-2.03.36-1.97.36-1.37.36-2.49.36 2.61.37-1.7.36-1.51.36-2.09.36-.62.36-1.91.37-1.89.36-2.79.36-2.74.36 18.68.36-1.01.37-.68.36-1.64.36.16.36-1.39.37-1.19.36-1.69.36-2.54.36 2.77.36-1.5.37-1.01.36-1.94.36-.22.36-1.71.36-2.51.37-1.31.36-2.34.36 6.95.36-1.38.36-.89.37-1.56.36-.36.36-1.7.36-1.73.37-1.24.36-2.14.36 1.72.36-1.43.36-2.23.37-1.06.36-2.01.36-.31.36-1.97.36-1.62.37-2.1.36-2.75.36 34.35.36-.64.36-.48.37-.93.36.14.36-1.17.36-1.08.36-.72.37-1.56.36 2.02.36-.88.36-1.57.37-.56.36-1.4.36-.07.36-1.19.36-1.11.37-1.85.36-1.7.36 5.89.36-1.02.36-.58.37-1.13.36-1.71.36.35.36-1.32.36-.96.37-1.76.36-1.53.36 2.06.36-1.19.37-.96.36-1.57.36-1.52.36-.21.36-1.39.37-1.94.36-1.11.36-1.93.36 12.93.36-.65.37-1.12.36-.44.36-1.09.36.07.36-1.15.37-1.09.36-.86.36-1.24.36-1.85.36 2.16.37-1.1.36-.65.36-1.2.36-1.6.37.02.36-1.29.36-1.07.36-1.61.36-1.57.37 4.83.36-.83.36-1.26.36-.6.36-1.22.37-.15.36-1.25.36-1.18.36-.99.36-1.37.37-1.82.36 1.68.36-1.18.36-.88.37-1.49.36-1.39.36-.3.36-1.31.36-1.72.37-1.05.36-1.64.36 56.43.36-.39.36-.35.37-.18.36-.55.36-.88.36.38.36-.51.37-1.02.36-.28.36-.94.36 1.62.37-.68.36-.59.36-.43.36-.77.36-1.16.37.33.36-.86.36-.66.36-1.08.36-1.09.37 4.24.36-.66.36-.54.36-.37.36-.72.37-1.1.36.33.36-.8.36-.6.36-1.05.37-1.01.36 1.29.36-.92.36-.75.37-.59.36-.91.36-1.31.36.15.36-1.02.37-.78.36-1.22.36-1.29.36 9.5.36-.52.37-.47.36-.36.36-.79.36-.68.36.25.37-.86.36-.66.36-.53.36-.84.37-1.18.36 1.57.36-.61.36-.91.36-.53.37-.77.36-1.18.36.21.36-.88.36-1.24.37-.56.36-1.11.36 3.66.36-.65.36-.65.37-.44.36-.85.36-.91.36.04.36-.88.37-.79.36-.7.36-1.08.36-1.01.37 1.12.36-.94.36-.75.36-.63.36-1.16.37-.94.36-.14.36-.9.36-1.19.36-.79.37-1.11.36-1.39.36 19.78.36-.3.36-.56.37-.21.36-.48.36-.76.36.28.37-.47.36-.76.36-.4.36-.66.36-.96.37 1.4.36-.45.36-.76.36-.39.36-.63.37-.94.36.11.36-.62.36-.93.36-.59.37-.79.36-1.13.36 3.73.36-.51.36-.73.37-.25.36-.69.36-.91.36.14.37-.57.36-.89.36-.51.36-.78.36-1.04.37 1.17.36-.58.36-.84.36-.52.36-.76.37-1.01.36-.06.36-.75.36-.99.36-.68.37-.91.36-1.16.36 7.82.36-.38.37-.61.36-.31.36-.53.36-.81.36.17.37-.54.36-.78.36-.45.36-.7.36-.94.37 1.09.36-.73.36-.54.36-.42.36-.85.37-.72.36-.09.36-.79.36-.72.37-.62.36-.94.36-.88.36 2.87.36-.58.37-.6.36-.39.36-.71.36-.75.36-.06.37-.73.36-.71.36-.56.36-.85.36-.87.37-1.16.36 1.19.36-.69.36-.95.36-.43.37-.83.36-1.09h.36l.36-.85.37-1.01.36-.6.36-.98.36-1.16.36 34.76.37-.15.36-.38.36-.09.36-.32.36-.53.37.3.36-.48.36-.33.36-.27.36-.56.37-.5.36 1.05.36-.39.36-.41.37-.21.36-.54.36-.51.36.06.36-.5.37-.5.36-.75.36-.28.36-.67.36-.83.37 3.02.36-.25.36-.51.36-.22.36-.42.37-.65.36.17.36-.59.36-.44.36-.39.37-.66.36-.6.36.86.36-.49.37-.51.36-.34.36-.62.36-.61.36-.84.37.18.36-.61.36-.78.36-.48.36-.68.37-.91.36 6.46.36-.25.36-.44.36-.18.37-.51.36-.43.36.11.36-.46.37-.48.36-.32.36-.56.36-.59.36-.74.37 1.05.36-.36.36-.58.36-.3.36-.64.37-.54.36-.01.36-.58.36-.58.36-.44.37-.68.36-.71.36-.85.36 2.77.37-.35.36-.55.36-.29.36-.62.36-.51.37-.01.36-.56.36-.55.36-.41.36-.66.37-.66.36-.86.36.96.36-.53.36-.68.37-.4.36-.58.36-.77.36-.08.36-.71.37-.61.36-.55.36-.77.36-.78.37 12.53.36-.24.36-.26.36-.44.36-.06.37-.37.36-.51.36.19.36-.32.36-.49.37-.27.36-.52.36-.51.36.81.36-.35.37-.37.36-.54.36-.19.36-.49.37-.62.36.1.36-.56.36-.45.36-.4.37-.61.36-.61.36-.81.36 2.7.36-.36.37-.48.36-.24.36-.41.36-.58.36.07.37-.52.36-.5.36-.32.36-.59.36-.57.37-.76.36.93.36-.45.36-.58.37-.33.36-.52.36-.67.36-.08.36-.58.37-.58.36-.43.36-.67.36-.67.36-.83.37 5.43.36-.25.36-.44.36-.2.36-.48.37-.46.36.08.36-.44.36-.41.37-.61.36-.24.36-.53.36-.68.36.8.37-.49.36-.39.36-.34.36-.54.36-.53.37-.09.36-.51.36-.52.36-.65.36-.41.37-.57.36-.72.36 2.06.36-.41.36-.42.37-.57.36-.21.36-.51.36-.62.37.01.36-.6.36-.46.36-.41.36-.62.37-.62.36-.8.36.84.36-.49.36-.61.37-.39.36-.67.36-.55.36-.15.36-.6.37-.59.36-.78.36-.39.36-.69.37-.81.36 55.65.36-.2.36-.08.36-.02.37-.23.36-.24.36-.39.36.39.36-.21.37-.35.36-.09.36-.38.36-.29.36.78.37-.21.36-.21.36-.35.36-.1.37-.28.36-.4.36.11.36-.32.36-.33.37-.49.36-.11.36-.41.36-.52.36 2.2.37-.28.36-.17.36-.12.36-.31.36-.32.37-.47.36.26.36-.29.36-.43.36-.18.37-.46.36-.36.36.64.36-.31.37-.29.36-.45.36-.14.36-.39.36-.49.37.07.36-.44.36-.4.36-.28.36-.48.37-.48.36-.59.36 4.75.36-.25.36-.16.37-.12.36-.29.36-.27.36-.42.37.19.36-.24.36-.36.36-.21.36-.39.37-.38.36-.55.36.91.36-.28.36-.39.37-.17.36-.41.36-.38.36.04.36-.35.37-.39.36-.46.36-.27.36-.54.36-.41.37 1.86.36-.29.36-.26.36-.4.37-.17.36-.31.36-.44.36.05.36-.37.37-.36.36-.52.36-.18.36-.44.36-.54.37.63.36-.39.36-.36.36-.52.36-.16.37-.44.36-.55.36.01.36-.48.37-.45.36-.33.36-.52.36-.52.36-.62.37 9.61.36-.23.36-.12.36-.1.36-.26.37-.24.36-.37.36.2.36-.21.36-.32.37-.18.36-.34.36-.34.36-.48.36.83.37-.25.36-.33.36-.15.36-.36.37-.35.36.04.36-.31.36-.34.36-.41.37-.24.36-.46.36-.38.36 1.67.36-.23.37-.23.36-.35.36-.14.36-.39.36-.28.37.05.36-.34.36-.31.36-.44.37-.22.36-.36.36-.47.36.57.36-.34.37-.3.36-.44.36-.22.36-.35.36-.47.37-.02.36-.4.36-.4.36-.52.36-.3.37-.42.36-.55.36 3.99.36-.23.37-.22.36-.35.36-.13.36-.24.36-.38.37.07.36-.31.36-.3.36-.42.36-.21.37-.33.36-.46.36.57.36-.3.36-.3.37-.42.36-.21.36-.32.36-.44.36-.02.37-.38.36-.38.36-.49.36-.28.37-.4.36-.53.36 1.59.36-.29.36-.29.37-.42.36-.13.36-.36.36-.44.36-.01.37-.36.36-.37.36-.48.36-.22.36-.43.37-.52.36.49.36-.39.36-.36.37-.49.36-.2.36-.43.36-.51.36-.07.37-.43.36-.44.36-.55.36-.29.36-.5.37-.57.36 17.68.36-.13.36-.13.36-.24.37.01.36-.19.36-.27.36.15.36-.2.37-.21.36-.31.36-.1.36-.23.37-.34.36.6.36-.2.36-.2.36-.31.37-.1.36-.22.36-.34.36.08.36-.29.37-.26.36-.37.36-.17.36-.39.36-.31.37 1.55.36-.18.36-.19.36-.27.37-.11.36-.29.36-.28.36.07.36-.25.37-.26.36-.34.36-.17.36-.37.36-.35.37.49.36-.25.36-.25.36-.34.36-.17.37-.35.36-.33.36-.46.36.12.36-.32.37-.39.36-.27.36-.4.36-.41.37-.5.36 3.76.36-.17.36-.24.36-.11.37-.27.36-.23.36-.35.36.13.36-.21.37-.31.36-.17.36-.33.36-.31.36-.41.37.57.36-.29.36-.21.36-.19.37-.31.36-.32.36-.39.36.04.36-.36.37-.28.36-.25.36-.38.36-.38.36-.45.37 1.48.36-.27.36-.24.36-.16.36-.29.37-.3.36-.39.36.04.36-.32.37-.3.36-.42.36-.18.36-.36.36-.43.37.42.36-.3.36-.3.36-.4.36-.21.37-.32.36-.43.36-.06.36-.38.36-.35.37-.45.36-.29.36-.47.36-.4.36 7.2.37-.16.36-.15.36-.22.36-.09.37-.25.36-.22.36-.34.36.2.36-.22.37-.28.36-.17.36-.29"/><use xlink:href="#577a3__d" color="violet" transform="matrix(3.75 0 0 3.75 182.98 108.66)"/><use xlink:href="#577a3__d" color="violet" transform="matrix(3.75 0 0 3.75 220.55 22.51)"/></g><path fill="none" d="M28 45.01V162.5M371.99 45.01H28" color="#000"/></svg>