<svg xmlns="http://www.w3.org/2000/svg" xmlns:xlink="http://www.w3.org/1999/xlink" viewBox="0 0 400 200"><path fill="none" d="M0 0h400v200H0z"/><defs><use xlink:href="#a568e__a" id="a568e__g" fill="currentColor" stroke="none"/><use xlink:href="#a568e__b" id="a568e__c" stroke="currentColor" transform="rotate(180)"/><use xlink:href="#a568e__c" id="a568e__f" fill="currentColor" stroke="none"/><use xlink:href="#a568e__d" id="a568e__e" stroke="currentColor" transform="rotate(45)"/><use xlink:href="#a568e__e" id="a568e__h" fill="currentColor" stroke="none"/><path id="a568e__d" stroke="currentColor" stroke-width=".267" d="M-1-1h2v2h-2z"/><path id="a568e__b" stroke="currentColor" stroke-width=".267" d="m0-1.33-1.33 2h2.66z"/><path id="a568e__i" stroke="currentColor" stroke-width=".267" d="M0 1.33 1.265.411.782-1.067l-1.564-.009-.483 1.487z"/><circle id="a568e__a" cx="0" cy="0" r="1" stroke="currentColor" stroke-width=".267"/></defs><path fill="none" stroke="#CCC" stroke-linecap="round" stroke-linejoin="round" stroke-width=".1" d="M46.1 162.5V75.01" class="a568e__gridline" color="#000"/><g fill="none" stroke-linecap="round" stroke-linejoin="round" stroke-width="0" color="#000"><path d="M46.1 162.5V155m0-79.99v7.5"/><text fill="#000" font-family="KaTeX_Main" font-size="8" text-anchor="middle" transform="translate(46.1 172.6)"><tspan> 1</tspan></text></g><path fill="none" stroke="#CCC" stroke-linecap="round" stroke-linejoin="round" stroke-width=".1" d="M82.31 162.5V75.01" class="a568e__gridline" color="#000"/><g fill="none" stroke-linecap="round" stroke-linejoin="round" stroke-width="0" color="#000"><path d="M82.31 162.5V155m0-79.99v7.5"/><text fill="#000" font-family="KaTeX_Main" font-size="8" text-anchor="middle" transform="translate(82.31 172.6)"><tspan> 2</tspan></text></g><path fill="none" stroke="#CCC" stroke-linecap="round" stroke-linejoin="round" stroke-width=".1" d="M118.52 162.5V75.01" class="a568e__gridline" color="#000"/><g fill="none" stroke-linecap="round" stroke-linejoin="round" stroke-width="0" color="#000"><path d="M118.52 162.5V155m0-79.99v7.5"/><text fill="#000" font-family="KaTeX_Main" font-size="8" text-anchor="middle" transform="translate(118.52 172.6)"><tspan> 3</tspan></text></g><path fill="none" stroke="#CCC" stroke-linecap="round" stroke-linejoin="round" stroke-width=".1" d="M154.73 162.5V75.01" class="a568e__gridline" color="#000"/><g fill="none" stroke-linecap="round" stroke-linejoin="round" stroke-width="0" color="#000"><path d="M154.73 162.5V155m0-79.99v7.5"/><text fill="#000" font-family="KaTeX_Main" font-size="8" text-anchor="middle" transform="translate(154.73 172.6)"><tspan> 4</tspan></text></g><path fill="none" stroke="#CCC" stroke-linecap="round" stroke-linejoin="round" stroke-width=".1" d="M190.94 162.5V75.01" class="a568e__gridline" color="#000"/><g fill="none" stroke-linecap="round" stroke-linejoin="round" stroke-width="0" color="#000"><path d="M190.94 162.5V155m0-79.99v7.5"/><text fill="#000" font-family="KaTeX_Main" font-size="8" text-anchor="middle" transform="translate(190.94 172.6)"><tspan> 5</tspan></text></g><path fill="none" stroke="#CCC" stroke-linecap="round" stroke-linejoin="round" stroke-width=".1" d="M227.15 162.5V75.01" class="a568e__gridline" color="#000"/><g fill="none" stroke-linecap="round" stroke-linejoin="round" stroke-width="0" color="#000"><path d="M227.15 162.5V155m0-79.99v7.5"/><text fill="#000" font-family="KaTeX_Main" font-size="8" text-anchor="middle" transform="translate(227.15 172.6)"><tspan> 6</tspan></text></g><path fill="none" stroke="#CCC" stroke-linecap="round" stroke-linejoin="round" stroke-width=".1" d="M263.36 162.5V75.01" class="a568e__gridline" color="#000"/><g fill="none" stroke-linecap="round" stroke-linejoin="round" stroke-width="0" color="#000"><path d="M263.36 162.5V155m0-79.99v7.5"/><text fill="#000" font-family="KaTeX_Main" font-size="8" text-anchor="middle" transform="translate(263.36 172.6)"><tspan> 7</tspan></text></g><path fill="none" stroke="#CCC" stroke-linecap="round" stroke-linejoin="round" stroke-width=".1" d="M299.57 162.5V75.01" class="a568e__gridline" color="#000"/><g fill="none" stroke-linecap="round" stroke-linejoin="round" stroke-width="0" color="#000"><path d="M299.57 162.5V155m0-79.99v7.5"/><text fill="#000" font-family="KaTeX_Main" font-size="8" text-anchor="middle" transform="translate(299.57 172.6)"><tspan> 8</tspan></text></g><path fill="none" stroke="#CCC" stroke-linecap="round" stroke-linejoin="round" stroke-width=".1" d="M335.78 162.5V75.01" class="a568e__gridline" color="#000"/><g fill="none" stroke-linecap="round" stroke-linejoin="round" stroke-width="0" color="#000"><path d="M335.78 162.5V155m0-79.99v7.5"/><text fill="#000" font-family="KaTeX_Main" font-size="8" text-anchor="middle" transform="translate(335.78 172.6)"><tspan> 9</tspan></text></g><path fill="none" stroke="#CCC" stroke-linecap="round" stroke-linejoin="round" stroke-width=".1" d="M371.99 162.5V75.01" class="a568e__gridline" color="#000"/><g fill="none" stroke-linecap="round" stroke-linejoin="round" stroke-width="0" color="#000"><path d="M371.99 162.5V155m0-79.99v7.5"/><text fill="#000" font-family="KaTeX_Main" font-size="8" text-anchor="middle" transform="translate(371.99 172.6)"><tspan> 10</tspan></text></g><g fill="none" stroke-linecap="round" stroke-linejoin="round" stroke-width="0" color="#000"><path d="M371.99 156.25h-7.5"/><text fill="#000" font-family="KaTeX_Main" font-size="8" transform="translate(378.99 158.85)"><tspan>0</tspan></text></g><g fill="none" stroke-linecap="round" stroke-linejoin="round" stroke-width="0" color="#000"><path d="M371.99 143.75h-7.5"/><text fill="#000" font-family="KaTeX_Main" font-size="8" transform="translate(378.99 146.35)"><tspan>2</tspan></text></g><g fill="none" stroke-linecap="round" stroke-linejoin="round" stroke-width="0" color="#000"><path d="M371.99 131.25h-7.5"/><text fill="#000" font-family="KaTeX_Main" font-size="8" transform="translate(378.99 133.85)"><tspan>4</tspan></text></g><g fill="none" stroke-linecap="round" stroke-linejoin="round" stroke-width="0" color="#000"><path d="M371.99 118.75h-7.5"/><text fill="#000" font-family="KaTeX_Main" font-size="8" transform="translate(378.99 121.35)"><tspan>6</tspan></text></g><g fill="none" stroke-linecap="round" stroke-linejoin="round" stroke-width="0" color="#000"><path d="M371.99 106.26h-7.5"/><text fill="#000" font-family="KaTeX_Main" font-size="8" transform="translate(378.99 108.86)"><tspan>8</tspan></text></g><g fill="none" stroke-linecap="round" stroke-linejoin="round" stroke-width="0" color="#000"><path d="M371.99 93.76h-7.5"/><text fill="#000" font-family="KaTeX_Main" font-size="8" transform="translate(378.99 96.36)"><tspan>10</tspan></text></g><g fill="none" stroke-linecap="round" stroke-linejoin="round" stroke-width="0" color="#000"><path d="M371.99 81.26h-7.5"/><text fill="#000" font-family="KaTeX_Main" font-size="8" transform="translate(378.99 83.86)"><tspan>12</tspan></text></g><path fill="none" d="M28 75.01v87.49m343.99-87.49H28" color="#000"/><text stroke-linecap="round" stroke-linejoin="round" stroke-width="0" color="#000" font-family="KaTeX_Main" font-size="10" text-anchor="middle" transform="rotate(-90 65.13 53.63)"><tspan>log</tspan><tspan dy="3" font-size="8">2</tspan><tspan dy="-3">(</tspan><tspan font-weight="bold">Average Path Length </tspan><tspan> / log</tspan><tspan dy="3" font-size="8">2</tspan><tspan dy="-3">(Size))</tspan></text><text stroke-linecap="round" stroke-linejoin="round" stroke-width="0" color="#000" font-family="KaTeX_Main" font-size="10" text-anchor="middle" transform="translate(199.99 195.75)"><tspan>Operations / 10</tspan><tspan dy="-5" font-size="8">6</tspan></text><text stroke-linecap="round" stroke-linejoin="round" color="#000" font-family="KaTeX_Main" font-size="8" transform="translate(76.8 10.11)"><tspan>AVLTopDown</tspan></text><g fill="none" stroke="currentColor" stroke-linecap="round" stroke-linejoin="round" color="#000"><path stroke="#29C3F6" stroke-dasharray="2.5,4.0" d="M41.3 7.51h29.9M28 157.07h1.45l.36-.01h2.17l.37-.01h1.44l.37-.01h1.08l.36-.01h1.09l.36-.01h1.45l.36-.01h18.47l.36-.01h4.71l.36.01h3.62l.36.01h8.33l.36-.01h28.25l.36.01h30.05l.37-.01h5.07l.36.01h11.95l.36-.01h38.38l.36-.01h1.45l.36.01h75.68l.36.01h14.85l.36-.01h30.78l.36.01h.36l.37-.01h11.58l.36.01h8.69l.37-.01h2.89l.37-.01h6.15l.36.01h2.54l.36.01h7.24l.36-.01h7.97l.36-.01h2.17l.37.01h1.08l.37.01h2.53"/><use xlink:href="#a568e__f" color="#29C3F6" transform="matrix(3.75 0 0 3.75 353.89 157.02)"/><use xlink:href="#a568e__f" color="#29C3F6" transform="matrix(3.75 0 0 3.75 56.25 7.51)"/></g><text stroke-linecap="round" stroke-linejoin="round" color="#000" font-family="KaTeX_Main" font-size="8" transform="translate(76.8 25.11)"><tspan>AVLRelaxedBottomUp</tspan></text><g fill="none" stroke="currentColor" stroke-linecap="round" stroke-linejoin="round" color="#000"><path stroke="#D336C8" d="M41.3 22.51h29.9M28 157.07h1.45l.36-.01h2.17l.37-.01h1.44l.37-.01h1.08l.36-.01h1.09l.36-.01h1.45l.36-.01H49l.36-.01h3.62l.37-.01h1.81l.36-.01h1.45l.36-.01h1.09l.36-.01h1.08l.37-.01h1.08l.36-.01h1.09l.36-.01h1.09l.36-.01h1.45l.36-.01h1.81l.36-.01h2.18l.36-.01h2.17l.36-.01h2.54l.36-.01h4.35l.36.01h1.81l.36.01h1.45l.36.01h1.09l.36.01h2.17l.36.01h4.35l.36-.01h3.26l.36-.01h3.26l.36-.01h3.62l.37-.01h2.17l.36-.01h1.45l.36-.01h1.45l.36-.01h1.09l.36-.01h1.81l.36-.01h6.52l.36.01h1.45l.36.01h1.45l.36.01h1.81l.37.01h5.07l.36-.01h1.81l.36-.01h1.45l.36-.01h1.45l.36-.01h1.09l.36-.01h1.45l.36-.01h1.09l.36-.01h1.45l.36-.01h1.81l.36-.01h8.69l.36.01h2.18l.36.01h2.9l.36.01h8.33l.36-.01h3.98l.36-.01h2.54l.36-.01h2.17l.36-.01h2.18l.36-.01h1.81l.36-.01h2.9l.36-.01h2.53l.37.01h2.17l.36.01h1.45l.36.01h.73l.36.01h1.08l.37.01h.72l.36.01h1.09l.36.01h1.45l.36.01h7.24l.37-.01h2.53l.36-.01h1.81l.37-.01h1.44l.37-.01h2.17l.36-.01h2.17l.36-.01h11.23l.36.01h2.9l.36.01h2.9l.36.01h9.05l.36-.01h2.18l.36-.01h1.81l.36-.01h1.81l.36-.01h1.81l.37-.01h1.81l.36-.01h1.45l.36-.01h1.81l.36-.01h2.17l.37-.01h5.43l.36.01h1.81l.36.01h1.09l.36.01h1.09l.36.01h.72l.37.01h1.08l.36.01h1.09l.36.01h2.18l.36.01h3.98l.36-.01h2.17l.37-.01h1.45l.36-.01h1.08l.37-.01h1.08l.36-.01h1.09l.36-.01h1.09l.36-.01h1.45l.36-.01h1.09l.36-.01h1.81l.36-.01h6.16l.36.01h1.81l.36.01h1.45l.36.01h1.45l.36.01h2.9l.36.01h2.54l.36-.01h3.26l.36-.01h2.17l.36-.01h1.82l.36-.01h1.45l.36-.01h1.45l.36-.01h1.81l.36-.01h1.81l.36-.01h1.81l.37-.01h5.43l.36.01h.72l.37.01h.72l.36.01h.36l.37.01h.72l.36.01h1.09l.36.01h2.17l.37-.01h2.17l.36-.01h5.79l.37-.01h1.81l.36-.01h4.34l.37-.01h.72"/><use xlink:href="#a568e__b" color="#D336C8" transform="matrix(3.75 0 0 3.75 67.83 156.91)"/><use xlink:href="#a568e__b" color="#D336C8" transform="matrix(3.75 0 0 3.75 56.25 22.51)"/></g><text stroke-linecap="round" stroke-linejoin="round" color="#000" font-family="KaTeX_Main" font-size="8" transform="translate(76.8 40.11)"><tspan>RedBlackBottomUp</tspan></text><g fill="none" stroke="currentColor" stroke-linecap="round" stroke-linejoin="round" color="#000"><path stroke="#F44336" d="M41.3 37.51h29.9M28 156.87h4.71l.36.01h2.17l.36.01h1.81l.37-.01h6.88l.36.01h1.81l.36.01h5.07l.36-.01h2.54l.36-.01h13.03l.37.01.36-.01h5.79l.36-.01h22.09l.36-.01h4.35l.36.01h8.33l.36.01h14.85l.36-.01h3.26l.36-.01h21.36l.37-.01h8.69l.36-.01h6.88l.36.01h5.43l.36.01h6.88l.37-.01h4.7l.37-.01h12.67l.36.01h6.52l.36.01h6.52l.36.01h10.86l.37-.01h4.34l.36-.01h17.38l.37.01h12.31l.36-.01h2.9l.36-.01h5.07l.36-.01h2.9l.36.01h5.43l.36-.01h15.21l.36.01h4.71l.36-.01h4.71l.36-.01h5.43l.36.01h4.35l.36.01h3.26l.36.01h20.64l.36.01h11.23l.36-.01h2.9l.36-.01h1.81l.36-.01h14.12l.37.01h1.08l.36-.01h1.09"/><use xlink:href="#a568e__b" color="#F44336" transform="matrix(3.75 0 0 3.75 125.4 156.88)"/><use xlink:href="#a568e__b" color="#F44336" transform="matrix(3.75 0 0 3.75 56.25 37.51)"/></g><text stroke-linecap="round" stroke-linejoin="round" color="#000" font-family="KaTeX_Main" font-size="8" transform="translate(76.8 55.11)"><tspan>RedBlackRelaxedTopDown</tspan></text><g fill="none" stroke="currentColor" stroke-linecap="round" stroke-linejoin="round" color="#000"><path stroke="violet" stroke-dasharray="4.0,2.0,1.0,2.0" d="M41.3 52.51h29.9M28 157.03h2.17l.36-.01h2.18l.36-.01h1.45l.36-.01h2.17l.36-.01h3.99l.36-.01h1.45l.36-.01h1.45l.36-.01h11.23l.36-.01h1.08l.37-.01h1.08l.36-.01h1.09l.36-.01h1.09l.36-.01h1.09l.36-.01h1.09l.36-.01h.72l.36-.01h1.09l.36-.01h.73l.36-.01h1.09l.36-.01h1.45l.36-.01h1.81l.36-.01h2.53l.37.01h1.81l.36.01h.72l.37.01h1.08l.36.01h.73l.36.01h1.09l.36.01h1.45l.36.01h9.41l.37-.01h3.98l.36-.01h2.17l.37-.01h1.81l.36-.01h1.45l.36-.01h1.09l.36-.01h.72l.36-.01h1.09l.36-.01h.73l.36-.01h1.08l.37-.01h.72l.36-.01h1.45l.36-.01h6.16l.36.01h1.81l.36.01h1.45l.36.01h2.54l.36.01h16.66l.36-.01h2.17l.36-.01h1.45l.36-.01h1.45l.36-.01h1.45l.37-.01h2.17l.36-.01h6.88l.36.01h10.5l.36-.01h1.45l.37-.01h1.44l.37-.01h1.44l.37-.01h1.44l.37-.01h1.44l.37-.01h1.45l.36-.01h2.17l.36-.01h3.62l.37-.01h5.79l.36.01h2.9l.36.01h1.81l.36.01h1.81l.36.01h1.09l.36.01h1.45l.36.01h1.81l.37.01h2.17l.36.01h6.52l.36-.01h2.17l.37-.01h1.44l.37-.01h1.44l.37-.01h2.17l.36-.01h2.9l.36.01h2.17l.36.01h1.81l.37.01h2.17l.36.01h3.26l.36-.01h2.18l.36-.01h1.08l.37-.01h1.08l.36-.01h1.09l.36-.01h.73l.36-.01h1.45l.36-.01h1.09l.36-.01h1.81l.36-.01h2.9l.36-.01h3.62l.36-.01h2.9l.36-.01h5.43l.36.01h1.45l.36.01h.73l.36.01h.73l.36.01h.72l.36.01h.73l.36.01h.72l.37.01h.72l.36.01h1.09l.36.01h5.07l.36-.01h1.81l.36-.01h1.09l.36-.01h1.09l.36-.01h.73l.36-.01h1.08l.37-.01h.72l.36-.01h.73l.36-.01h1.09l.36-.01h.72l.36-.01h1.45l.36-.01h6.16l.36.01h1.09l.36.01h1.45l.36.01h2.54l.36.01h1.45l.36-.01h2.53l.36-.01H326l.37.01h.72l.36.01h.36l.37.01h.72l.36.01h.36l.37.01h.36l.36.01h.36l.37.01h.72l.36.01h1.09l.36.01h1.81l.36-.01h1.45l.36-.01h.73l.36-.01h.72l.37-.01h.72l.36-.01h.36l.37-.01h.72l.36-.01h.36l.37-.01h.72l.36-.01h.36l.37-.01h1.08l.37-.01h2.17l.36.01h1.09l.36.01h.36l.36.01h.36l.37.01.36.01h.36l.36.01h.37l.36.01h.36l.36.01h.36l.37.01h2.89l.36-.01h1.09l.36-.01h.73l.36-.01h.72l.37-.01h.72l.36-.01h.73l.36-.01h.36l.36-.01h.73l.36-.01h.36l.36-.01h.36l.37-.01h.72l.36-.01h.73l.36-.01h.36l.36-.01.37-.01h.36l.36-.01"/><use xlink:href="#a568e__g" color="violet" transform="matrix(3.75 0 0 3.75 182.98 156.72)"/><use xlink:href="#a568e__g" color="violet" transform="matrix(3.75 0 0 3.75 56.25 52.51)"/></g><text stroke-linecap="round" stroke-linejoin="round" color="#000" font-family="KaTeX_Main" font-size="8" transform="translate(241.1 10.11)"><tspan>LBSTBottomUp</tspan></text><g fill="none" stroke="currentColor" stroke-linecap="round" stroke-linejoin="round" color="#000"><path stroke="#3B75EA" d="M205.6 7.51h29.9M28 157.06h.72l.37-.01h1.08l.36-.01h1.45l.37-.01h11.94l.37-.01h6.88l.36-.01h3.26l.36-.01h21l.36-.01.36.01h54.68l.36-.01h6.52l.36.01h17.75l.36.01h6.52l.36-.01h6.15l.37-.01h76.4l.36.01h11.22l.37.01h9.05l.36-.01h13.76l.36-.01h2.54l.36.01h22.09l.36-.01h5.07l.36.01H326l.37-.01h3.62l.36.01h4.71l.36.01h5.07l.36-.01h2.53l.37-.01h2.53l.36-.01h1.81l.37.01h2.53l.36.01h2.18l.36.01h6.15l.37-.01h1.81l.36-.01h6.52l.36.01h1.45l.36-.01h.36"/><use xlink:href="#a568e__a" color="#3B75EA" transform="matrix(3.75 0 0 3.75 240.55 156.99)"/><use xlink:href="#a568e__a" color="#3B75EA" transform="matrix(3.75 0 0 3.75 220.55 7.51)"/></g><text stroke-linecap="round" stroke-linejoin="round" color="#000" font-family="KaTeX_Main" font-size="8" transform="translate(241.1 25.11)"><tspan>LBSTRelaxed</tspan></text><g fill="none" stroke="currentColor" stroke-linecap="round" stroke-linejoin="round" color="#000"><path stroke="#FFAB00" stroke-dasharray="4.0,2.0,1.0,2.0" d="M205.6 22.51h29.9M28 156.5l.36-.01.36-.01.37-.01h.36l.36-.01h2.54l.36.01h.36l.36.01.36.01.37.01.36.01.36.01.36.01.36.01.37.02.36.01.36.01.36.01.36.01.37.01.36.01.36.01.36.01.36.01h.37l.36.01h.36l.36.01h2.54l.36-.01h.72l.37-.01h.72l.36-.01h.73l.36-.01h.72l.37-.01h.72l.36-.01h1.45l.36-.01h5.43l.37.01h1.44l.37.01h.72l.36.01h1.09l.36.01h2.17l.37.01h2.53l.36-.01H70l.37-.01h2.53l.36-.01h1.45l.36-.01h1.45l.36-.01h.73l.36-.01h1.09l.36-.01h1.08l.37-.01h1.08l.36-.01h1.09l.36-.01h1.81l.37-.01h2.53l.36-.01h7.61l.36.01h.72l.36.01h.73l.36.01h.72l.37.01h.36l.36.01h.36l.37.01h.36l.36.01h.72l.37.01h.36l.36.01h.72l.37.01h1.08l.36.01h5.44l.36-.01h1.81l.36-.01h1.45l.36-.01h1.45l.36-.01h1.45l.36-.01h1.45l.36-.01h1.45l.36-.01h1.45l.36-.01h1.45l.36-.01h1.09l.36-.01h1.45l.36-.01h1.09l.36-.01h2.17l.37-.01h3.25l.37.01h1.81l.36.01h.72l.37.01h.72l.36.01h.73l.36.01h.36l.36.01h.73l.36.01h.72l.36.01h.73l.36.01h1.09l.36.01h2.53l.37.01h1.81l.36-.01h3.26l.36-.01h1.81l.36-.01h1.45l.36-.01h1.45l.36-.01h1.09l.36-.01h1.09l.36-.01h1.09l.36-.01h1.45l.36-.01h1.45l.36-.01h2.53l.37-.01h5.07l.36.01h1.81l.36.01h1.09l.36.01h.72l.36.01h.37l.36.01h.72l.37.01h.36l.36.01h.36l.36.01h.73l.36.01h.36l.36.01h.73l.36.01h.72l.37.01h1.45l.36.01h4.7l.37-.01h2.17l.36-.01h1.81l.36-.01h2.54l.36-.01h5.43l.36.01h2.9l.36.01h3.26l.36.01h6.16l.36-.01h2.9l.36-.01h1.45l.36-.01h1.45l.36-.01h1.45l.36-.01h1.09l.36-.01h1.09l.36-.01h1.08l.37-.01h1.45l.36-.01h1.45l.36-.01h1.81l.36-.01h2.9l.36-.01h3.62l.36.01h1.45l.36.01h1.09l.36.01h.73l.36.01h.36l.36.01h.36l.37.01h.36l.36.01h.72l.37.01h.36l.36.01h.36l.36.01h.73l.36.01h.73l.36.01h1.81l.36.01h2.53l.37-.01h2.53l.36-.01h1.81l.37-.01h1.81l.36-.01h2.9l.36-.01h2.89l.37-.01h2.17l.36-.01h1.81l.36-.01h2.18l.36-.01h2.17l.36-.01h7.24l.37.01h1.81l.36.01h1.09l.36.01h.72l.36.01h.73l.36.01h1.09l.36.01h.72l.37.01h1.44l.37.01h7.24l.36-.01h1.45l.36-.01h1.09l.36-.01h1.08l.37-.01h1.08l.37-.01h.72l.36-.01h1.09l.36-.01h1.09l.36-.01h1.45l.36-.01h2.17l.36-.01h2.18l.36-.01h1.45l.36-.01h1.45l.36-.01h1.81l.36-.01h1.45l.36.01h.73l.36.01h.36l.36.01h.36l.37.01.36.01.36.01.36.01.36.01.37.01.36.01.36.01.36.01.37.01.36.01.36.01h.36l.36.01.37.01h.36l.36.01h4.35l.36-.01h1.08l.37-.01h.72l.36-.01h1.09l.36-.01h.72l.37-.01h1.08l.37-.01h2.17l.36-.01h4.71l.36-.01h1.09l.36-.01h.36l.36-.01h.73l.36-.01.36.01"/><use xlink:href="#a568e__h" color="#FFAB00" transform="matrix(3.75 0 0 3.75 298.12 156.54)"/><use xlink:href="#a568e__h" color="#FFAB00" transform="matrix(3.75 0 0 3.75 220.55 22.51)"/></g><text stroke-linecap="round" stroke-linejoin="round" color="#000" font-family="KaTeX_Main" font-size="8" transform="translate(241.1 40.11)"><tspan>TreapTopDown</tspan></text><g fill="none" stroke="currentColor" stroke-linecap="round" stroke-linejoin="round" color="#000"><path stroke="#00C853" stroke-dasharray="4.5,2.0,0.5,2.0,0.5,2.0" d="M205.6 37.51h29.9M28 154.38h.72l.37-.01h1.08l.36-.01h.37l.36-.01h.72l.37-.01h1.08l.36-.01h2.54l.36-.01h2.9l.36-.01h3.62l.36-.01h1.09l.36.01h2.9l.36.01h1.45l.36.01h1.45l.36.01h7.24l.36.01h13.76l.37-.01h1.81l.36-.01h2.17l.36-.01h5.07l.36.01h2.9l.36.01h13.76l.37.01h2.53l.36.01h3.99l.36.01h10.5l.36.01h4.35l.36-.01h6.15l.36-.01h4.35l.36.01h7.24l.37-.01h4.7l.37-.01h2.17l.36-.01h1.45l.36-.01h1.81l.36-.01h1.81l.37-.01h3.98l.36-.01h1.45l.36.01h10.5l.36-.01h3.26l.37-.01h8.69l.36.01h1.81l.36.01h1.45l.36.01h1.45l.36.01h2.17l.37.01h6.15l.36-.01h6.88l.37.01h1.81l.36.01h1.81l.36.01h1.45l.36.01h1.81l.36.01h7.25l.36-.01h2.17l.36-.01h3.26l.36-.01h6.52l.36.01h4.71l.36.01h4.35l.36.01h2.9l.36-.01h3.62l.36-.01h2.54l.36-.01h5.79l.36.01h2.54l.36.01h6.16l.36-.01h1.08l.37-.01h.72l.36-.01h.73l.36-.01h.72l.37-.01h.72l.36-.01h.73l.36-.01h1.08l.37-.01h2.17l.36-.01h3.98l.37-.01h2.17l.36-.01h1.81l.36-.01h1.45l.36-.01h1.81l.37-.01h7.24l.36.01h3.98l.37-.01h3.98l.36.01h2.9l.36.01h8.33l.36-.01h2.53l.37-.01h1.81l.36-.01h1.09l.36-.01h1.08l.37-.01h1.08l.36-.01h1.09l.36-.01h1.45l.36-.01h2.18l.36-.01h3.26l.36-.01h1.81l.36.01h6.52l.36-.01h.73l.36-.01h.72l.36-.01h.73l.36-.01h.72l.37-.01h1.44l.37-.01h3.26l.36-.01h.72l.36-.01h.73l.36-.01h.72l.37-.01h1.08l.36.01h.37l.36.01h.36l.36.01.37.01h1.44l.37-.01.36-.01h.36"/><use xlink:href="#a568e__i" color="#00C853" transform="matrix(3.75 0 0 3.75 355.7 154.13)"/><use xlink:href="#a568e__i" color="#00C853" transform="matrix(3.75 0 0 3.75 220.55 37.51)"/></g><text stroke-linecap="round" stroke-linejoin="round" color="#000" font-family="KaTeX_Main" font-size="8" transform="translate(241.1 55.11)"><tspan>Splay</tspan></text><g fill="none" stroke="currentColor" stroke-linecap="round" stroke-linejoin="round" color="#000"><path stroke="#29C3F6" d="M205.6 52.51h29.9M28 85.21l.36-.16.36-.16.37-.16.36-.16.36-.15.36-.15.36-.15.37-.14.36-.15.36-.14.36-.13.37-.14.36-.13.36-.13.36-.13.36-.13.37-.13.36-.12.36-.12.36-.12.36-.12.37-.11.36-.11.36-.11.36-.11.36-.1.37-.1.36-.09.36-.08.36-.07.36-.07.37-.05.36-.03.36-.02.36.01.37.03.36.05.36.09.36.11.36.16.37.19.36.23.36.28.36.33.36.38.37.43.36.48.36.54.36.6.36.65.37.72.36.77.36.84.36.89.37.96.36 1.02.36 1.07.36 1.13.36 1.19.37 1.24.36 1.29.36 1.32.36 1.36.36 1.39.37 1.39.36 1.38.36 1.36.36 1.32.36 1.23.37 1.13.36 1 .36.85.36.68.37.5.36.32.36.16.36.02.36-.11.37-.2.36-.28.36-.33.36-.37.36-.4.37-.41.36-.42.36-.43.36-.43.36-.42.37-.43.36-.41.36-.41.36-.4.36-.39.37-.39.36-.38.36-.38.36-.36.37-.36.36-.35.36-.35.36-.34.36-.33.37-.33.36-.32.36-.32.36-.31.36-.31.37-.3.36-.3.36-.29.36-.29.36-.28.37-.28.36-.28.36-.27.36-.26.37-.27.36-.26.36-.25.36-.26.36-.24.37-.25.36-.24.36-.24.36-.24.36-.23.37-.23.36-.23.36-.22.36-.23.36-.22.37-.21.36-.22.36-.21.36-.21.36-.2.37-.21.36-.2.36-.2.36-.2.37-.19.36-.2.36-.19.36-.19.36-.19.37-.18.36-.19.36-.18.36-.18.36-.18.37-.18.36-.17.36-.17.36-.18.36-.17.37-.16.36-.17.36-.17.36-.16.37-.16.36-.17.36-.16.36-.15.36-.16.37-.16.36-.15.36-.15.36-.16.36-.15.37-.15.36-.14.36-.15.36-.15.36-.14.37-.14.36-.15.36-.14.36-.14.36-.14.37-.13.36-.14.36-.14.36-.13.37-.14.36-.13.36-.13.36-.13.36-.13.37-.13.36-.13.36-.13.36-.12.36-.13.37-.12.36-.13.36-.12.36-.12.36-.12.37-.12.36-.12.36-.12.36-.12.37-.11.36-.12.36-.11.36-.11.36-.11.37-.11.36-.11.36-.1.36-.11.36-.1.37-.1.36-.09.36-.09.36-.09.36-.09.37-.07.36-.08.36-.07.36-.06.37-.05.36-.05.36-.04.36-.03.36-.02.37-.01h.36l.36.02.36.02.36.05.37.05.36.07.36.09.36.11.36.12.37.14.36.17.36.18.36.2.36.23.37.25.36.27.36.3.36.32.37.34.36.37.36.4.36.42.36.45.37.48.36.5.36.53.36.56.36.59.37.61.36.64.36.66.36.69.36.72.37.74.36.75.36.78.36.8.37.81.36.83.36.83.36.83.36.84.37.82.36.81.36.79.36.76.36.72.37.67.36.61.36.55.36.48.36.4.37.33.36.24.36.17.36.1.36.02.37-.03.36-.09.36-.14.36-.18.37-.22.36-.24.36-.27.36-.28.36-.3.37-.3.36-.32.36-.31.36-.32.36-.32.37-.32.36-.32.36-.32.36-.31.36-.31.37-.31.36-.3.36-.3.36-.29.37-.29.36-.29.36-.28.36-.28.36-.28.37-.27.36-.27.36-.26.36-.26.36-.26.37-.25.36-.25.36-.25.36-.24.36-.24.37-.24.36-.24.36-.23.36-.23.36-.22.37-.23.36-.22.36-.22.36-.21.37-.22.36-.21.36-.21.36-.2.36-.21.37-.2.36-.2.36-.2.36-.19.36-.19.37-.2.36-.19.36-.18.36-.19.36-.18.37-.18.36-.18.36-.18.36-.18.37-.18.36-.17.36-.17.36-.17.36-.17.37-.17.36-.16.36-.17.36-.16.36-.16.37-.16.36-.16.36-.16.36-.15.36-.16.37-.15.36-.15.36-.15.36-.15.37-.15.36-.15.36-.14.36-.15.36-.14.37-.14.36-.15.36-.14.36-.14.36-.13.37-.14.36-.14.36-.13.36-.14.36-.13.37-.13.36-.13.36-.13.36-.13.36-.13.37-.13.36-.12.36-.13.36-.12.37-.13.36-.12.36-.12.36-.12.36-.12.37-.12.36-.11.36-.12.36-.11.36-.12.37-.11.36-.11.36-.1.36-.11.36-.1.37-.1.36-.1.36-.09.36-.1.37-.08.36-.09.36-.08.36-.07.36-.07.37-.07.36-.06.36-.05.36-.05.36-.03.37-.03.36-.03.36-.01h.36l.36.01.37.01.36.04.36.04.36.05.36.07.37.09.36.09.36.12.36.13.37.14.36.17.36.18.36.2.36.22.37.24.36.26.36.28.36.3.36.32.37.34.36.37.36.39.36.41.36.43.37.46.36.48.36.51.36.52.37.56.36.57.36.6.36.61.36.64.37.67.36.68.36.69.36.72.36.73.37.74.36.75.36.76.36.75.36.76.37.75.36.73.36.72.36.69.37.65.36.62.36.56.36.52.36.45.37.39.36.32.36.25.36.19.36.12.37.05h.36l.36-.05.36-.11.36-.14.37-.18.36-.21.36-.23.36-.25.36-.27.37-.28.36-.29.36-.3.36-.3.37-.3.36-.31.36-.3.36-.3.36-.3.37-.3.36-.3.36-.29.36-.29.36-.29.37-.28.36-.28.36-.28.36-.27.36-.27.37-.27.36-.26.36-.26.36-.25.37-.26.36-.24.36-.25.36-.24.36-.24.37-.24.36-.23.36-.23.36-.23.36-.23.37-.22.36-.22.36-.22.36-.21.36-.22.37-.21.36-.2.36-.21.36-.2.36-.2.37-.2.36-.2.36-.2.36-.19.37-.19.36-.19.36-.19.36-.18.36-.18.37-.19.36-.18.36-.17.36-.18.36-.17.37-.18.36-.17.36-.17.36-.17.36-.16.37-.17.36-.16.36-.17.36-.16.37-.16.36-.16.36-.15.36-.16.36-.15.37-.16.36-.15.36-.15.36-.15.36-.15.37-.14.36-.15.36-.14.36-.15.36-.14.37-.14.36-.14.36-.14.36-.14.36-.13.37-.14.36-.14.36-.13.36-.13.37-.13.36-.14.36-.13.36-.13.36-.12.37-.13.36-.13.36-.12.36-.13.36-.12.37-.12.36-.13.36-.12.36-.12.36-.11.37-.12.36-.12.36-.11.36-.12.37-.11.36-.11.36-.11.36-.11.36-.11.37-.1.36-.1.36-.1.36-.1.36-.09.37-.1.36-.08.36-.09.36-.07.36-.08.37-.07.36-.06.36-.06.36-.05.37-.04.36-.03.36-.03.36-.01h.73l.36.02.36.03.36.05.36.06.37.07.36.09.36.11.36.13.36.14.37.16.36.19.36.2.36.23.36.25.37.27.36.3.36.32.36.34.37.38.36.4.36.43.36.45.36.48.37.52.36.54.36.57.36.6.36.63.37.65.36.69.36.72.36.74.36.77.37.79.36.82.36.84.36.86.37.87.36.88.36.89.36.89.36.88.37.86.36.83.36.8.36.75.36.7.37.63.36.55.36.47.36.38.36.29.37.2.36.12.36.03.36-.03.36-.1.37-.15.36-.2.36-.23.36-.26.37-.29.36-.31.36-.31.36-.33.36-.33.37-.33.36-.34.36-.33.36-.34.36-.33.37-.32.36-.33.36-.32.36-.31.36-.31.37-.31.36-.3.36-.3.36-.29.37-.29.36-.29.36-.28.36-.28.36-.27.37-.27.36-.27.36-.26.36-.26.36-.25.37-.25.36-.25.36-.25.36-.24.36-.24.37-.23.36-.24.36-.23.36-.22.36-.23.37-.22.36-.22.36-.22.36-.21.37-.21.36-.21.36-.21.36-.21.36-.2.37-.2.36-.2.36-.19.36-.2.36-.19.37-.19.36-.19.36-.18.36-.19.36-.18.37-.18.36-.18.36-.18.36-.18.37-.17.36-.17.36-.17.36-.17.36-.17.37-.17.36-.16.36-.16.36-.17.36-.16.37-.16.36-.15.36-.16.36-.16.36-.15.37-.15.36-.15.36-.15.36-.15.37-.15.36-.15.36-.14.36-.14.36-.15.37-.14.36-.14.36-.14.36-.14.36-.14.37-.13.36-.14.36-.13.36-.14.36-.13.37-.13.36-.13.36-.13.36-.13.36-.13.37-.12.36-.13.36-.13.36-.12.37-.12.36-.13.36-.12.36-.12.36-.12.37-.12.36-.12.36-.12.36-.11.36-.12.37-.12.36-.11.36-.12.36-.11.36-.11.37-.11.36-.11.36-.11.36-.11.37-.11.36-.11.36-.1.36-.11.36-.1.37-.1.36-.1.36-.1.36-.09.36-.09.37-.09.36-.08.36-.08.36-.06.36-.06.37-.05.36-.04.36-.03.36-.01h.36l.37.03.36.04.36.07.36.1.37.12.36.16.36.19.36.23.36.28.37.31.36.37.36.42.36.47.36.53.37.6.36.65.36.73.36.79.36.87.37.95.36 1.02.36 1.1.36 1.19.37 1.27.36 1.35.36 1.44.36 1.51.36 1.59.37 1.65.36 1.7.36 1.74.36 1.73.36 1.69.37 1.61.36 1.46.36 1.27.36 1.01.36.74.37.45.36.2.36-.03.36-.2.36-.33.37-.4.36-.46.36-.49.36-.51.37-.51.36-.5.36-.5.36-.49.36-.49.37-.47.36-.46.36-.45.36-.44.36-.43.37-.42.36-.41.36-.41.36-.39.36-.39.37-.38.36-.37.36-.37.36-.35.37-.36.36-.34.36-.34.36-.33.36-.33.37-.32.36-.32.36-.31.36-.3.36-.3.37-.3.36-.29.36-.29.36-.28.36-.28.37-.27.36-.27.36-.27.36-.26.37-.26.36-.26.36-.25.36-.25.36-.24.37-.24.36-.24.36-.24.36-.23.36-.23.37-.23.36-.22.36-.22.36-.22.36-.22.37-.21.36-.21.36-.21.36-.21.36-.2.37-.2.36-.2.36-.2.36-.2.37-.19.36-.19.36-.19.36-.19.36-.18.37-.19.36-.18.36-.18"/><use xlink:href="#a568e__d" color="#29C3F6" transform="matrix(3.75 0 0 3.75 69.64 99.37)"/><use xlink:href="#a568e__d" color="#29C3F6" transform="matrix(3.75 0 0 3.75 220.55 52.51)"/></g><path fill="none" d="M28 75.01v87.49m343.99-87.49H28" color="#000"/></svg>