<svg xmlns="http://www.w3.org/2000/svg" xmlns:xlink="http://www.w3.org/1999/xlink" viewBox="0 0 400 200"><path fill="none" d="M0 0h400v200H0z"/><defs><use xlink:href="#a46ba__a" id="a46ba__c" fill="currentColor" stroke="none"/><use xlink:href="#a46ba__a" id="a46ba__b" stroke="currentColor" transform="rotate(180)"/><use xlink:href="#a46ba__b" id="a46ba__d" fill="currentColor" stroke="none"/><path id="a46ba__a" stroke="currentColor" stroke-width=".267" d="m0-1.33-1.33 2h2.66z"/></defs><path fill="none" stroke="#CCC" stroke-linecap="round" stroke-linejoin="round" stroke-width=".1" d="M46.1 162.5V45.01" class="a46ba__gridline" color="#000"/><g fill="none" stroke-linecap="round" stroke-linejoin="round" stroke-width="0" color="#000"><path d="M46.1 162.5V155m0-109.99v7.5"/><text fill="#000" font-family="KaTeX_Main" font-size="8" text-anchor="middle" transform="translate(46.1 172.6)"><tspan> 1</tspan></text></g><path fill="none" stroke="#CCC" stroke-linecap="round" stroke-linejoin="round" stroke-width=".1" d="M82.31 162.5V45.01" class="a46ba__gridline" color="#000"/><g fill="none" stroke-linecap="round" stroke-linejoin="round" stroke-width="0" color="#000"><path d="M82.31 162.5V155m0-109.99v7.5"/><text fill="#000" font-family="KaTeX_Main" font-size="8" text-anchor="middle" transform="translate(82.31 172.6)"><tspan> 2</tspan></text></g><path fill="none" stroke="#CCC" stroke-linecap="round" stroke-linejoin="round" stroke-width=".1" d="M118.52 162.5V45.01" class="a46ba__gridline" color="#000"/><g fill="none" stroke-linecap="round" stroke-linejoin="round" stroke-width="0" color="#000"><path d="M118.52 162.5V155m0-109.99v7.5"/><text fill="#000" font-family="KaTeX_Main" font-size="8" text-anchor="middle" transform="translate(118.52 172.6)"><tspan> 3</tspan></text></g><path fill="none" stroke="#CCC" stroke-linecap="round" stroke-linejoin="round" stroke-width=".1" d="M154.73 162.5V45.01" class="a46ba__gridline" color="#000"/><g fill="none" stroke-linecap="round" stroke-linejoin="round" stroke-width="0" color="#000"><path d="M154.73 162.5V155m0-109.99v7.5"/><text fill="#000" font-family="KaTeX_Main" font-size="8" text-anchor="middle" transform="translate(154.73 172.6)"><tspan> 4</tspan></text></g><path fill="none" stroke="#CCC" stroke-linecap="round" stroke-linejoin="round" stroke-width=".1" d="M190.94 162.5V45.01" class="a46ba__gridline" color="#000"/><g fill="none" stroke-linecap="round" stroke-linejoin="round" stroke-width="0" color="#000"><path d="M190.94 162.5V155m0-109.99v7.5"/><text fill="#000" font-family="KaTeX_Main" font-size="8" text-anchor="middle" transform="translate(190.94 172.6)"><tspan> 5</tspan></text></g><path fill="none" stroke="#CCC" stroke-linecap="round" stroke-linejoin="round" stroke-width=".1" d="M227.15 162.5V45.01" class="a46ba__gridline" color="#000"/><g fill="none" stroke-linecap="round" stroke-linejoin="round" stroke-width="0" color="#000"><path d="M227.15 162.5V155m0-109.99v7.5"/><text fill="#000" font-family="KaTeX_Main" font-size="8" text-anchor="middle" transform="translate(227.15 172.6)"><tspan> 6</tspan></text></g><path fill="none" stroke="#CCC" stroke-linecap="round" stroke-linejoin="round" stroke-width=".1" d="M263.36 162.5V45.01" class="a46ba__gridline" color="#000"/><g fill="none" stroke-linecap="round" stroke-linejoin="round" stroke-width="0" color="#000"><path d="M263.36 162.5V155m0-109.99v7.5"/><text fill="#000" font-family="KaTeX_Main" font-size="8" text-anchor="middle" transform="translate(263.36 172.6)"><tspan> 7</tspan></text></g><path fill="none" stroke="#CCC" stroke-linecap="round" stroke-linejoin="round" stroke-width=".1" d="M299.57 162.5V45.01" class="a46ba__gridline" color="#000"/><g fill="none" stroke-linecap="round" stroke-linejoin="round" stroke-width="0" color="#000"><path d="M299.57 162.5V155m0-109.99v7.5"/><text fill="#000" font-family="KaTeX_Main" font-size="8" text-anchor="middle" transform="translate(299.57 172.6)"><tspan> 8</tspan></text></g><path fill="none" stroke="#CCC" stroke-linecap="round" stroke-linejoin="round" stroke-width=".1" d="M335.78 162.5V45.01" class="a46ba__gridline" color="#000"/><g fill="none" stroke-linecap="round" stroke-linejoin="round" stroke-width="0" color="#000"><path d="M335.78 162.5V155m0-109.99v7.5"/><text fill="#000" font-family="KaTeX_Main" font-size="8" text-anchor="middle" transform="translate(335.78 172.6)"><tspan> 9</tspan></text></g><path fill="none" stroke="#CCC" stroke-linecap="round" stroke-linejoin="round" stroke-width=".1" d="M371.99 162.5V45.01" class="a46ba__gridline" color="#000"/><g fill="none" stroke-linecap="round" stroke-linejoin="round" stroke-width="0" color="#000"><path d="M371.99 162.5V155m0-109.99v7.5"/><text fill="#000" font-family="KaTeX_Main" font-size="8" text-anchor="middle" transform="translate(371.99 172.6)"><tspan> 10</tspan></text></g><g fill="none" stroke-linecap="round" stroke-linejoin="round" stroke-width="0" color="#000"><path d="M371.99 162.5h-7.5"/><text fill="#000" font-family="KaTeX_Main" font-size="8" transform="translate(378.99 165.1)"><tspan>0.40</tspan></text></g><g fill="none" stroke-linecap="round" stroke-linejoin="round" stroke-width="0" color="#000"><path d="M371.99 147.81h-7.5"/><text fill="#000" font-family="KaTeX_Main" font-size="8" transform="translate(378.99 150.41)"><tspan>0.45</tspan></text></g><g fill="none" stroke-linecap="round" stroke-linejoin="round" stroke-width="0" color="#000"><path d="M371.99 133.13h-7.5"/><text fill="#000" font-family="KaTeX_Main" font-size="8" transform="translate(378.99 135.73)"><tspan>0.50</tspan></text></g><g fill="none" stroke-linecap="round" stroke-linejoin="round" stroke-width="0" color="#000"><path d="M371.99 118.44h-7.5"/><text fill="#000" font-family="KaTeX_Main" font-size="8" transform="translate(378.99 121.04)"><tspan>0.55</tspan></text></g><g fill="none" stroke-linecap="round" stroke-linejoin="round" stroke-width="0" color="#000"><path d="M371.99 103.75h-7.5"/><text fill="#000" font-family="KaTeX_Main" font-size="8" transform="translate(378.99 106.35)"><tspan>0.60</tspan></text></g><g fill="none" stroke-linecap="round" stroke-linejoin="round" stroke-width="0" color="#000"><path d="M371.99 89.07h-7.5"/><text fill="#000" font-family="KaTeX_Main" font-size="8" transform="translate(378.99 91.67)"><tspan>0.65</tspan></text></g><g fill="none" stroke-linecap="round" stroke-linejoin="round" stroke-width="0" color="#000"><path d="M371.99 74.38h-7.5"/><text fill="#000" font-family="KaTeX_Main" font-size="8" transform="translate(378.99 76.98)"><tspan>0.70</tspan></text></g><g fill="none" stroke-linecap="round" stroke-linejoin="round" stroke-width="0" color="#000"><path d="M371.99 59.7h-7.5"/><text fill="#000" font-family="KaTeX_Main" font-size="8" transform="translate(378.99 62.3)"><tspan>0.75</tspan></text></g><g fill="none" stroke-linecap="round" stroke-linejoin="round" stroke-width="0" color="#000"><path d="M371.99 45.01h-7.5"/><text fill="#000" font-family="KaTeX_Main" font-size="8" transform="translate(378.99 47.61)"><tspan>0.80</tspan></text></g><path fill="none" d="M28 45.01V162.5M371.99 45.01H28" color="#000"/><text stroke-linecap="round" stroke-linejoin="round" stroke-width="0" color="#000" font-family="KaTeX_Main" font-size="10" text-anchor="middle" transform="rotate(-90 57.63 46.13)"><tspan font-weight="bold">Rotations</tspan><tspan> / Operations</tspan></text><text stroke-linecap="round" stroke-linejoin="round" stroke-width="0" color="#000" font-family="KaTeX_Main" font-size="10" text-anchor="middle" transform="translate(199.99 195.75)"><tspan>Operations / 10</tspan><tspan dy="-5" font-size="8">6</tspan></text><text stroke-linecap="round" stroke-linejoin="round" stroke-width=".5" color="#000" font-family="KaTeX_Main" font-size="8" transform="translate(116 10.11)"><tspan>AVLBottomUp</tspan></text><g fill="none" stroke="currentColor" stroke-linecap="round" stroke-linejoin="round" stroke-width=".5" color="#000"><path stroke="#000" d="M80.5 7.51h29.9M28 79.88l.36-9.17.36 5.99.37-2.9.36.38.36.79.36-.35.36 2.02.37 1.77.36-3.06.36 1.12.36-2.88.37.12.36.5.36 2.17.36-3.58.36-.83.37 2.47.36-1.06.36 3.44.36-5.82.36 2.82.37 1.3.36.67.36-.5.36-.97.36-2.73.37.21.36-.09.36.5.36 3.93.36 3.06.37-3.5.36 1.33.36-2.76.36-.65.37-.32.36-3.65.36 5.08.36-4.25.36 3.52.37-1.7.36 1.17.36 2.65.36-.89.36 6.06.37-8.23.36-.94.36 4.99.36-3.93.36 2.41.37 56.1.36-.32.36 2.93.36.27.37-.56.36-.47.36 2.44.36-.68.36 1.18.37-2.24.36-1.55.36 4.46.36-2.91.36 2.91.37-.32.36-3.94.36 2.32.36 2.62.36-3.38.37.94.36-1.97.36 5.85.36-6.79.37-.12.36 3.65.36-3.12.36 5.2.36-1.29.37-1.7.36-1.3.36.94.36 3.2.36-.61.37-3.53.36-.53.36 1.15.36.91.36-4.79.37 3.32.36 4.85.36-3.73.36-1.91.36.41.37-.97.36 1.85h.36l.36-.06.37-.56.36-2.11.36 5.32.36-4.44.36 6.14.37-4 .36 2.27.36-1.15.36-.67.36 2.84.37-1.32.36-3.82.36 2.53.36-3.02.36 2.61.37 2.2.36-3.46.36 4.2.36-1 .37-.53.36-3.85.36 3.23.36-2.55.36 3.7.37-3.53.36 1.94.36-2.47.36 1.21.36 3.29.37-3.7.36-.09.36 2 .36-2 .36-.91.37 4.38.36-3.94.36 4.55.36-4.2.36 1.09.37 2.03.36-.15.36 1.91.36-4.76.37-.38.36 2.99.36-1.23.36.94.36-2.59.37 4.12.36.5.36-2.88.36-.33.36 1.8.37.29.36 3.82.36-6.99.36.73.36-1.14.37 3.79.36-2.03.36-.91.36-1.76.37 2.02.36-.82.36 3.97.36-1.8.36-3.17.37 3.35.36-4.02.36 5.37.36-2.73.36 1.59.37 2.55.36-2 .36-3.4.36.38.36 7.14.37-5.53.36-2.11.36 2.64.36 5.94.36-4.32.37 1.85.36-4.61.36 3.55.36-2 .37 2.21.36-5.26.36 5.7.36-7.14.36 3.03.37 3.31.36-3.11.36 2.26.36.65.36-4.14.37-.41.36 2.79.36.17.36 2.26.36-.88.37-2.17.36-.85.36-4.88.36 3.82.37 4.49.36-.82.36-1.91.36-.7.36 2.73.37-3.29.36 1.94.36 2.44.36-3.12.36 1.65.37-.74.36.03.36-3.4.36 1.64.36 3.55.37-5.22.36 5.72.36-6.13.36 3.58.37-1.88.36 2.76.36-3.29.36 4.08.36-3.96.37-.18.36-1.91.36 1.44.36 3.41.36-2.79.37.88.36 1.23.36-3.79.36 3 .36-3.11.37.26.36 4.47.36 1.79.36-4.38.36.97.37 1.5.36 1.06.36-1.91.36-4.32.37 6.61.36-.8.36.27.36-2.47.36 1.06h.37l.36 1.97.36-3.12.36 2.91.36.88.37-3.82.36-.91.36 2.85.36-5.78.36 1.17.37-.12.36 6.79.36-6.4.36 1.96.37 1.5.36 2.03.36 1.38.36-2.12.36-1.61.37.17.36 2.85.36-4.61.36 4.47.36-.74.37-2.96.36-.94.36 3.26.36-3.76.36 5.31.37-3.49.36-.12.36 2.35.36-.71.36-2.08h.37l.36-.38.36.97.36 2.79.37-3.29.36 1.82.36-.62.36-6.17.36 8.23.37 1.91.36-6.82.36 3.06.36.88.36-2.2.37 3.84.36-5.28.36.44.36 1.52.36-.67.37 6.31.36-1.61.36-5.26.36.24.37 3.7.36.08.36-5.99.36 3.67.36-6.11.37 7.08.36-4.08.36 1.5.36 2.08.36-.97.37 4.68.36-6.94.36 8.52.36-5.76.36-3.76.37 2.85.36 3.44.36-6.31.36 1.99.36 3.32.37-1.47.36-2.93.36 4.46.36.18.37-4.79.36 1.94.36.94.36-2.76.36 4.58.37-1.26.36-1.44.36 3.64.36-1.73.36-1.59.37-3.11.36 10.6.36-5.93.36-1.88.36 3.26.37-3.62.36 4.85.36-1.15.36 1 .37-4.64.36 2.15.36 1.29.36-5.64.36 2.79.37-4.46.36 5.49h.36l.36-.91.36-.65.37.85.36 1.68.36-1.74.36-.97.36 2.38.37-2.05.36.12.36 2.05h.36l.37-2.76.36 2.2.36-1.35.36-2.79.36 4.14.37 2.94.36-7.81.36 2.29.36 3.52.36 1.18.37-1.12.36-3.52.36.5.36.26.36.12.37 4.58.36-3.26.36-2.41.36 1.76.36 1.94.37-5.55.36 3.85.36 1.29.36.3.37-.24.36-1.5.36 2.73.36.09.36-.61.37-2.03.36 1.73.36-.09.36-1.29.36-4.79.37 5.41.36-1.76.36 3.93.36-3.88.36-1.14.37 2.32.36-2.06.36-1.47.36 1.3.37-1.44.36 1 .36 3.52.36-.23.36-3.06.37 7.96.36-4.82.36.03.36.24.36-1.73.37-4.35.36 5.46.36-2.32.36.62.36-2.41.37 5.37.36-2.87.36-2.27.36 2.18.36 4.02.37-3.41.36-2.29.36-.05.36 2.32.37-4.47.36 7.17.36 1.14.36-7.6.36 4.31.37 5.82.36-5.67.36 3.53.36-6.14.36 3.11.37-1.12.36 1.91.36-2.32.36-.32.36.18.37 2.73.36-1.65.36-3.96.36 4.14.37-1.24.36 2 .36.06.36-.91.36-1.03.37.24.36-3.91.36 2.91.36-1.23.36 3.7.37-2.74.36 1.53.36-1 .36.21.36.85.37-1.76.36 2.64.36 1.06.36.23.37-2.11.36 1.64.36-2.87.36 1.79.36-1.97.37 1.73.36-1.97.36 3.32.36-4.37.36-.62.37 2.58h.36l.36.15.36 6.73.36-3.23.37-4.79.36 1.67.36-1.76.36 5.46.36-8.13.37 2.38.36 2.38.36.82.36-1.7.37.2.36 2.26.36-1.52.36-1.83.36 2.35.37-2.99.36 1.61.36 5.06.36-4.73.36-.33.37-2.49.36 1.14.36 1.85.36 2.24.36-2.74.37 3.03.36-5.17.36 3.35.36-2.18.37 5.26.36-2.79.36-6.08.36 4.94.36 2.52.37-2.26.36-1.82.36 3.23.36-3.52.36.88.37-1.32.36 4.11.36-1.94.36 1.76.36-2.2.37 2.41.36.44.36-2.12.36-1.17.36.88.37 1.56.36-3.03.36.68.36 1.73.37-.47.36-2.23.36 1.02.36 2.65.36.44.37-1.91.36-.53.36.35.36 1.09.36-3.88.37 2.41.36.71.36-1.21.36 3.82.36-1.06.37.97.36-8.05.36 3.47.36 1.35.37-1.44.36 1.79.36 2.03.36 2.2.36-1.73.37-6.17.36 1.79.36 2.09.36-3.14.36 4.87.37 1.18.36-3.2.36-.27.36-2.61.36 3.96.37.41.36-.38.36-2.61.36 2.46.36-3.28.37-.33.36 3.53.36-.5.36-3.53.37-.26.36 3.9.36 1.94.36-1.08.36-4.59.37 2.62.36-.74.36 1.47.36-3.49.36 4.17.37 2.94.36-3.56.36.3.36 5.78.36-7.05.37 2.65.36.99.36-1.7.36-4.43.37 3.81.36-1.41.36 4.59.36-5.32.36 5.35.37-5.06.36 2.88.36-3.17.36 3.26.36.71.37-8.02.36 6.55.36 1 .36-1.83.36.62.37 1.44.36-1.23.36 1.55.36-5.46.37 2.47.36.35.36 1.53.36-3.44.36-.56.37-.23.36 2.88.36 1.23.36-.73.36 1.46.37-1.61.36-1.76.36 3.67.36.61.36.3.37-2.88.36-.35.36-.27.36-.88.36 2.06.37.03.36.58.36-5.69.36 5.4.37 1.47.36-3.88.36-1.7.36-.76.36 3.81.37-.08.36-4.09.36 9.9.36-5.7.36 1.74.37-2.38.36-3.41.36 2.23.36 3.73.36-1.94.37-3.34.36 3.99.36-.73.36-4.53.37 5.85.36-.53.36-3.53.36 1.21.36 1.76.37-2.2.36 1.32.36 1.26.36-.53.36-.44.37-2.82.36 3.59.36-.59.36-.94.36.65.37 2.2.36-.21.36-4.4.36 2.05.36 3.67.37-3.17.36.3.36-.71.36 3.06.37 1.14.36-.26.36 1.73.36-6.37.36-1.94.37 3.93.36 4.23.36-2.67.36-2.38.36-.09.37-2.29.36-.35.36 9.52.36-4.32.36-.56.37-.41.36-1.32.36 1.82.36-2.65.37 2.44.36-7.05.36 4.09.36 1.41.36-.83.37-1.61.36 5.64.36-2.76.36 2.64.36-4.26.37.97.36-1.35.36 3.64.36.74.36-.62.37-1.82.36.7.36-1 .36 3.35.36-2.46.37.73.36-4.52.36 1.46.36 1.97.37-.76.36.73.36-1.82.36 2.23.36-1.14.37 2.47.36-3 .36.73.36-.52.36-1.44.37 4.52.36-4.52.36 1.29.36 2.73.36-.09.37-5.23.36 3.21.36 5.34.36-4.7.37 1.29.36-3.43.36 2.7.36-3.85.36 4.88.37-3.79.36-.56.36 3.53.36-1.62.36 1.7.37-7.05.36 5.41.36.94.36 1.09.36.88.37-5.85.36 3.73.36-1.2.36-2.2.37 4.72.36-4.52.36 1.62.36 1.64.36 1.21.37 1.11.36-4.11.36 2.06.36-2.77.36.68.37-.73.36 1.46.36-4.99.36 5.02.36 3.06.37-5.85.36 3.82.36-1.29.36 1.17.36.12.37-1.06.36-3.67.36 6.76.36-2.5.37 1.24.36-1.27.36-.7.36.09.36 5.49.37-8.11.36 3.23.36 2.29.36-1.32.36-4.2.37 1.15.36.26.36 2.06.36 2.11.36-1.32.37-1.29.36 2.41.36-5.35.36 4.32.37-.38.36 2.29.36-3.26.36 1.64.36-4.2.37 1.21.36.55.36 2.06.36 1 .36-1.65.37 1.85.36-1.2.36-.97.36-.18.36.97.37.5.36-3.58.36.73.36-.44.36-.82.37 5.55.36-4.61.36 3.5.36-2.5.37.09.36.59.36.73.36-3.85.36 1.71.37-.42.36-.79.36 1.53.36 2.79.36-3.47.37 2.62.36.67.36 1.97.36-4.67.36 2.23.37 1.41.36-1.7.36-1.5.36 2.35.37-2.97.36-.26.36 4.7.36-3.85.36.47.37-2.55.36 5.87.36-1.82.36.03.36 3.02.37-3.73.36-3.73.36 6.79.36-2.06.36 1.62.37-5.91.36 1.41.36-.08.36.94.36-.15.37.47.36-1.65.36 2.82.36-.58.37-4.56.36 4 .36.94.36 1.29.36-2.47.37 3.21.36-1 .36-.53.36-1.21.36-.35.37-1.94.36 1.79.36.89.36-.5.36-4.12.37 5.7.36-1.41.36 1.06.36-2.82.37 2.88.36 1.64.36-1.47.36 1.77.36-7.38.37 7.05.36-1.64.36-5.76.36 3.76.36 1.5.37 1.94.36-3.79.36 1.5.36 1.32.36-6.14.37 3.47.36 3.93.36-4.7.36 7.35.37-7.76.36 1.53.36 2.26.36-2.2.36.82.37-2.29.36.15.36 3.58.36.62.36-2.35.37 1.41.36-.62.36 2.47.36-3.88.36 5.05.37-3.88.36 1.8.36-3.65.36 1.5.36-.91.37 3.29.36-1.32.36-.32.36-.89.37-2.23.36 2.47.36 3.5.36-2.97.36 4.58.37-6.14.36 3.35.36-3.41"/><use xlink:href="#a46ba__c" transform="matrix(3.75 0 0 3.75 354.25 138)"/><use xlink:href="#a46ba__c" transform="matrix(3.75 0 0 3.75 95.45 7.51)"/></g><text stroke-linecap="round" stroke-linejoin="round" color="#000" font-family="KaTeX_Main" font-size="8" transform="translate(116 25.11)"><tspan>AVLTopDown</tspan></text><g fill="none" stroke="currentColor" stroke-linecap="round" stroke-linejoin="round" color="#000"><path stroke="#29C3F6" stroke-dasharray="2.5,4.0" d="M80.5 22.51h29.9M28 79.88l.36-9.17.36 5.99.37-2.9.36.38.36.79.36-.35.36 2.02.37 1.77.36-3.06.36 1.12.36-2.88.37.12.36.5.36 2.17.36-3.58.36-.83.37 2.47.36-1.06.36 3.44.36-5.82.36 2.82.37 1.3.36.67.36-.5.36-.97.36-2.73.37.21.36-.09.36.5.36 3.93.36 3.06.37-3.5.36 1.33.36-2.76.36-.65.37-.32.36-3.65.36 5.08.36-4.25.36 3.52.37-1.7.36 1.17.36 2.65.36-.89.36 6.06.37-8.23.36-.94.36 4.99.36-3.93.36 2.41.37 56.1.36-.32.36 2.93.36.27.37-.56.36-.47.36 2.44.36-.68.36 1.18.37-2.24.36-1.55.36 4.46.36-2.91.36 2.91.37-.32.36-3.94.36 2.32.36 2.62.36-3.38.37.94.36-1.97.36 5.85.36-6.79.37-.12.36 3.65.36-3.12.36 5.2.36-1.29.37-1.7.36-1.3.36.94.36 3.2.36-.61.37-3.53.36-.53.36 1.15.36.91.36-4.79.37 3.32.36 4.85.36-3.73.36-1.91.36.41.37-.97.36 1.85h.36l.36-.06.37-.56.36-2.11.36 5.32.36-4.44.36 6.14.37-4 .36 2.27.36-1.15.36-.67.36 2.84.37-1.32.36-3.82.36 2.53.36-3.02.36 2.61.37 2.2.36-3.46.36 4.2.36-1 .37-.53.36-3.85.36 3.23.36-2.55.36 3.7.37-3.53.36 1.94.36-2.47.36 1.21.36 3.29.37-3.7.36-.09.36 2 .36-2 .36-.91.37 4.38.36-3.94.36 4.55.36-4.2.36 1.09.37 2.03.36-.15.36 1.91.36-4.76.37-.38.36 2.99.36-1.23.36.94.36-2.59.37 4.12.36.5.36-2.88.36-.33.36 1.8.37.29.36 3.82.36-6.99.36.73.36-1.14.37 3.79.36-2.03.36-.91.36-1.76.37 2.02.36-.82.36 3.97.36-1.8.36-3.17.37 3.35.36-4.02.36 5.37.36-2.73.36 1.59.37 2.55.36-2 .36-3.4.36.38.36 7.14.37-5.53.36-2.11.36 2.64.36 5.94.36-4.32.37 1.85.36-4.61.36 3.55.36-2 .37 2.21.36-5.26.36 5.7.36-7.14.36 3.03.37 3.31.36-3.11.36 2.26.36.65.36-4.14.37-.41.36 2.79.36.17"/><use xlink:href="#a46ba__d" color="#29C3F6" transform="matrix(3.75 0 0 3.75 93.18 139.15)"/><use xlink:href="#a46ba__d" color="#29C3F6" transform="matrix(3.75 0 0 3.75 95.45 22.51)"/></g><text stroke-linecap="round" stroke-linejoin="round" color="#000" font-family="KaTeX_Main" font-size="8" transform="translate(241.1 10.11)"><tspan>AVLWeakBottomUp</tspan></text><g fill="none" stroke="currentColor" stroke-linecap="round" stroke-linejoin="round" color="#000"><path stroke="#00C853" d="M205.6 7.51h29.9M28 147.14l.36-3.5.36 1.44.37-.85.36 2.56.36-2.79.36.85.36-.06.37-1.03.36-.88.36 3.17.36-1.29.37 1.32.36-5.05.36 2.03.36 3.26.36-.71.37-1.7.36.47.36 2.49.36-1.35.36-2.08.37 1.85.36-1.71.36 2.68.36-4.29.36.03.37 1.41.36-.24.36 1.91.36-1.14.36 1.32.37-1.65.36.5.36.18.36 3.47.37.55.36-5.64.36-.08.36-.21.36 1.88.37-.94.36 2.88.36-2.15.36 2.65.36-.53.37-3.85.36 1.94.36-.68.36-2.08.36 2.7.37 1.15.36-1.8.36 4.26.36-4.08.37 1.88.36 1.12.36-4.59.36 2.85.36-1.99.37-2.32.36 8.93.36-4.82.36-2.41.36 3.76.37-.21.36-1.49.36 4.28.36-9.48.36 3.14.37 8.11.36-5.64.36-1.82.36.17.37.33.36 2.79.36-2.94.36-1.88.36 2.47.37 2.23.36-1.18.36.47.36.47.36-3.26.37 3.12.36-5.32.36 1.17.36 3.47.36-1.06.37.65.36-.62.36 3.59.36-.06.36-3.97.37.71.36 2.67.36-2.73.36 2.88.37 1.02.36-1.46.36-5.14.36-.65.36 3.47.37-.56.36 2.96.36-3.11.36.76.36.06.37.36.36-2.47.36 3.35.36-.27.36-1.11.37 4.14.36-6.55.36-.8.36 4.76.37-1.26.36 3.26.36-6.46.36 5.73.36-3.38.37 3.76.36-2.5.36-1.2.36-1.3.36 2.82.37-.2.36.29.36-2.05.36-.27.36-1.53.37 2.47.36 1.41.36-2.35.36-.41.36 5.61.37-4.14.36-.94.36 2.53.36-1.44.37.17.36 2.44.36-2.97.36-3.4.36 2.76.37 3.35.36-1.77.36-2.14.36 1.67.36-3.11.37 2.32.36-1.29.36 5.05.36-2.38.36-4.84.37 2.29.36 3.17.36-2.15.36-2.61.37 1.91.36 1.12.36 2.32.36-4.53.36 3.47.37 2.32.36-2.09.36-3.7.36 2.44.36-1.15.37-.41.36-.88.36 1.27.36 4.25.36-2.11.37-1.65.36-.02.36 6.16.36-3.2.36-3.85.37 2.65.36-.85.36 3.2.36-2.12.37-3.99.36 2.17.36 1.59.36.5.36-5.97.37 2.27.36 5.05.36-4.35.36 3.44.36-3.88.37 3.44.36-1.77.36-.38.36 4.94.36-3.73.37 1.91.36-1.38.36-2.68.36 1.59.37 2.76.36-5.46.36 2.08.36-.14.36 2.79.37-2.27.36 3.73.36-3.23.36-.85.36 1.91.37-1.12.36-.99.36.99.36.83.36-.27.37-1 .36 1.38.36-2.55.36.44.37 1.73.36-.06.36-4.55.36 3.41.36-1.82.37 3.96.36-.82.36-1.09.36 2.82.36-2.17.37-2.35.36 1.73.36 1.21.36-1.41.36 1.61.37 1.27.36-6.08.36 5.11.36.76.36-2.73.37.44.36.65.36-.24.36-1.76.37-1.15.36 1.35.36 2.29.36-4.72.36 1.9.37-.11.36 3.2.36-4.2.36 2.58.36 1 .37-1.94.36 1.15.36-2.53.36 2.91.36-.12.37.62.36.56.36-.74.36 2.41.37-2.91.36 1.53.36 1.76.36-4.02.36 2.59.37-1.53.36 1 .36-2.97.36 1.12.36.14.37-2.35.36 2.73.36 4.91.36-7.2.36-.35.37 5.17.36-1.7.36-1.21.36-.7.36 2.82.37-1 .36-2.32.36 2.47.36-3.03.37 1.85.36-.88.36 1.64.36.27.36-.18.37-1.26.36-.06.36 1.23.36.09.36-.67.37-1.47.36 3.11.36.5.36-2.91.36.3.37 1.5.36 2.2.36-2.65.36-6.28.37 8.49.36-2.12.36-.73.36 4.29.36-2.56.37-1.14.36-.65.36-5.85.36 4.7.36-1.79.37 1.68.36 2.11.36.97.36 1 .36-4.32.37-1.76.36 5.11.36-3 .36.21.36.56.37 1.11.36.15.36-.85.36-1.35.37 2.49.36-3.29.36 3.06.36 1.85.36-2.97.37 3.68.36-10.31.36 6.66.36.44.36-1 .37.71.36-1.59.36 3.7.36-2.93.36-.77.37 1.88.36-.82.36-1.88.36 4.11.37-2.96.36 5.58.36-5.52.36-1.56.36 4.67.37-.94.36-.94.36-1.76.36 2.73.36-5.26.37 2.35.36 1.18.36 3.34.36.65.36-.76.37-1.38.36-.47.36-.97.36 2.88.37-1.88.36-1.3.36.65.36 1.29.36-3.67.37 2.17.36-.47.36.8.36 1 .36-.74.37-2.61.36 3.11.36-3.35.36 1.73.36 2.71.37-1.79.36-.15.36-.68.36.97.36.21.37 2.85.36-6.2.36.76.36 3.23.37 3.15.36-5.47.36 2.18.36-2.44.36 2.58.37-3.32.36 1.53h.36l.36 1.35.36-1.55.37.85.36-1 .36 1.76.36.88.36-4.55.37 2.61.36.21.36-1.94.36 3.61.37-1.85.36-1.32.36-3.11.36.56.36 3.55.37 4.05.36-3.73.36-.08.36-3.85.36 2.26.37-2.35.36 5.64.36-4.02.36 4.23.36 1.93.37.39.36-2.77.36-1.26.36-1.47.36-1.32.37-2.47.36 5.88.36-1.85.36 3.73.37-3.5.36.27.36-3.97.36 4.14.36-.58.37 3.52.36-1.03.36-1.5.36.68.36.91.37 1.15.36-2.47.36-1.56.36.91.36 3.53.37-4.11.36-1.62.36 3.5.36.02.37-4.02.36 4.44.36.58.36 1.35.36-5.19.37 3.02.36-1.26.36-1.44.36 1.03.36 1.14.37.62.36-2.5.36-.12.36 3.68.36-5.09.37 4.5.36-.79.36.5.36.29.37.62.36-.42.36.15.36 1.26.36 1.33.37-.71.36-2.2.36.7.36-.61.36 2.73.37-3.35.36-5.05.36 5.93.36-3.08.36 2.61.37-2.5.36-4.28.36 11.3.36-5.84.36-1.82.37 3.23.36-.32.36.67.36 1.06.37-5.2.36 1.88.36-1.91.36 2.59.36 2.05.37.32.36.77.36-4.5.36 3.21.36-5.03.37 2.03.36.26.36-.99.36-.77.36 3.7.37-1.82.36 2.53.36-4.09.36 1.06.37-.61.36 1.32.36 1.41.36 1.26.36-2.38.37 3.26.36-2.35.36-2.29.36.91.36.06.37 1.38.36-.35.36-1 .36.53.36 1.35.37-2 .36-3.26.36 4.52.36 3.09.36-1.26.37-4.2.36-1 .36 1.47.36 1.82.37-1.09.36-.18.36.74.36 1.47.36 1.61.37-4.67.36 5.17.36-1.32.36.62.36-2.35.37 1.23.36-2.06.36.71.36 2.23.36-.97.37 3.14.36-3.34.36-2.32.36 3.29.37-3.73.36-2.44.36 7.11.36-5.03.36 2.71.37 2.43.36-3.23.36-1.47.36 1.41.36-1.41.37-2.58.36 3.73.36-.5.36 5.67.36-5.23.37-.06.36-.91.36.47.36 1.32h.36l.37-3.61.36 2 .36 3.55.36-3.23.37-.76.36.76.36-.76.36-.39.36 1.41.37 1.83.36-.59.36-.27.36 1.94.36-2.38.37.47.36 2.24.36-3.15.36 1.27.36.41.37-3.94.36-.06.36.85.36 4.97.37-3.47.36-.56.36 4.97.36-3.53.36-1.91.37-.47.36-.58.36 4.26.36.94.36-3 .37.53.36.88.36.65.36-2.68.36.91.37 1.88.36-.29.36-.03.36-1.79.37-.06.36.21.36 4.25.36.89.36-3.88.37-1.68.36.91.36-1.43.36 4.49.36-3.64.37 2.41.36.23.36-2.55.36-.5.36 1.05.37-1.94.36 1.47.36.3.36-2.53.36 1.41.37 2.2.36-.64.36-.53.36-1.35.37.12.36-1.21.36 3.7.36-1.44.36 1.3.37.96.36-3.64.36-.03.36.06.36-3.99.37 5.17.36 1 .36-1.8.36.47.36 2.62.37-5.23.36 1.56.36.32.36.12.37-.47.36 3.87.36 2.76.36-7.54.36-2.32.37 7.75.36-.7.36-2.06.36-4.03.36 6.44.37-2.47.36.09.36 1.06.36-.8.36-1.11.37 2.46.36.97.36-1.38.36 3.06.36-4.35.37-.82.36 1.85.36 3.14.36-5.93.37 6.05.36-5.08.36.58.36-.14.36 1.47.37-2.59.36-.06.36 2.26.36 2.18.36-2.23.37 2.4.36-3.34.36 1.38.36-.88.36-.06.37-.56.36-1.18.36.74.36 1.26.37.74.36 1.46.36-2.61.36-3.23.36 3.41.37.14.36-1.41h.36l.36 4.61.36-4.75.37 1.7.36-2.44.36 4.97.36-2.68.36-1.82.37 2 .36-5.29.36 3.97.36.41.36-1.32.37-5.55.36 6.9.36-1.03.36.18.37 4.23.36-6.06.36 2.65.36 1.29.36.29.37.45.36.82.36-3.38.36.79.36 1.03.37-1.26.36-1.12.36-3.11.36 5.29.36-2.94.37 1.53.36 3.64.36-6.2.36 4.41.37-1.62.36 1.76.36 1.94.36-3.76.36 2.2.37 2.18.36-5.55.36.85.36 1.58.36-2.55.37.35.36.35.36 2.65.36-2.21.36 1.47.37-2.35.36.88.36.42.36 3.34.37-1.02.36-5.5.36 6.11.36-2.35.36 1.53.37-.7.36-.97.36-3.79.36 1.44.36 1.82.37 3.17.36-4.76.36 3.41.36-.56.36-1 .37 3.06.36-2.94.36 1.06.36-4 .36 6.64.37-2.97.36-3.05.36 6.2.36-3.73.37-.62.36.41.36.21.36-1.65.36 1.06.37 4.93.36-5.34.36 1 .36-2.38.36 2.17.37 1.32.36.53.36-4.79.36 5.2.36-2.44.37-1.88.36 2.85.36-2.67.36 2.94.37 1.29.36-3.64.36.82.36 3.23.36-3.26.37 1.41.36-1.23.36-1.27.36 4.56.36-4.88.37 3.09.36-1.3.36-.08.36-2.09.36 4.08.37-.41.36-2.14.36-.8.36 4.79.36-3.08.37-2.41.36-2.82.36 5.93.36-1.14.37-2.12.36 2.41.36 2.23.36-1.88.36-2.64.37-.79.36 5.55.36-2.44.36-1.41.36-.7.37 3.02.36-.26.36-1.12.36 1.26.36-.14.37-1.41.36.17.36-.29.36 2.08.37.86.36-1.68.36.68.36-4.41.36-.29.37 4.02.36-3.05.36.38.36 3.88.36-2.35.37 3.82.36-6.88.36 6.64.36-1.44.36.06.37-4.26.36 2.79.36 2.85.36-2.61.36.99.37.62.36-4.61.36 3.52.36-2.35.37 1.83.36-3.21.36.77.36-.12.36.97.37 1.12.36-.83.36 3.18.36-.62.36-3.47.37 3.5.36.15.36-2.18.36 1.18.36.91.37-2.71.36 1.41.36-2.61.36-2.53.37 5.03.36-3.53.36.06.36 6.52.36-1.67.37-.91.36.03.36-3 .36 5.79.36-1.53.37-.97.36-.5.36-2.03.36 1.36.36-4.03.37 4.55.36-1.67.36 5.35.36-4.7.37-2.5.36.62.36-.06.36 3.2.36 2.35.37-5.55.36 2.55.36-.41.36 2 .36-4.44.37 2.68.36.53.36.94.36-6.23.36 2.2.37 1.41.36-.35.36 4.02.36-3.29.36 2.41.37 2.56.36-5.79.36-1.7.36 1.08.37 4.12.36-3.56.36 1 .36 2.59.36-4.91.37 2.64.36-.17.36-.59"/><use xlink:href="#a46ba__a" color="#00C853" transform="matrix(3.75 0 0 3.75 125.4 146.35)"/><use xlink:href="#a46ba__a" color="#00C853" transform="matrix(3.75 0 0 3.75 220.55 7.51)"/></g><text stroke-linecap="round" stroke-linejoin="round" color="#000" font-family="KaTeX_Main" font-size="8" transform="translate(241.1 25.11)"><tspan>AVLWeakTopDown</tspan></text><g fill="none" stroke="currentColor" stroke-linecap="round" stroke-linejoin="round" color="#000"><path stroke="#FFAB00" stroke-dasharray="4.5,2.0,0.5,2.0,0.5,2.0" d="M205.6 22.51h29.9M28 60.02l.36 6.08.36 2.17.37-.73.36-5.7.36 5.26.36.56.36-.5.37-3.76.36 1.88.36 4.64.36 2.94.37-5.29.36-3 .36-.85.36 1.23.36 5.29.37-3.79.36-2.55.36-2.18.36 8.14.36-3.91.37.74.36 5.81.36-7.4.36-2.38.36 10.78.37-9.22.36-1.97.36-.15.36 1.97.36 4.64.37-5.84.36 4.99.36-5.93.36 2.67.37 1.09.36 3.32.36-12.78.36 7.87.36 5.05.37-8.25.36 1.5.36 5.67.36-7.88.36 1.38.37 2.33.36 1.93.36-3.32.36 5.88.36-10.46.37 16.48.36-3.61.36 2 .36-10.73.37 4.5.36-3.32.36.7.36-1.52.36.06.37 1.64.36 1.59.36-1.3.36 4.47.36-5.73.37-1.53.36-1.2.36 7.96.36-2.2.36-.56.37 9.46.36-11.31.36 3.29.36 2.41.37-4.03.36 6.96.36 2.15.36-10.93.36-8.16.37 9.51.36 3.09.36 1.11.36-6.64.36 5.09.37 4.7.36-5.17.36-5.91.36 6.64.36-6.58.37 5.55.36-5.34.36 8.13.36 1.03.36-7.93.37 3.11.36 2.82.36-3.99.36 3.43.37.68.36-5.73.36 8.79.36-7.05.36 4.17.37-3.85.36 7.17.36-3.85.36 3.49.36-3.26.37 2.79.36-5.17.36 4.12.36-3.56.36-1.26.37.67.36-1.23.36 2.76.36-1.2.37-5.23.36-3 .36 10.02.36.67.36-.64.37 1.67.36 1 .36-4.23.36 2.41.36 4.76.37-8.7.36 4.79.36-3.99.36.32.36-3.64.37 2.23.36-.67.36-2.24.36-1.58.36 7.96.37-4.26.36 2.7.36-3.5.36 4.73.37 9.78.36-3.96.36-4.23.36-1.03.36 8.4.37-9.25.36-6.55.36 1.73.36-.17.36-2.71.37 6.38.36-1.62.36 3.12.36-6.47.36 9.79.37-9.17.36 2.15.36 5.22.36-7.87.37 7.55.36.21.36 2.26.36-8.81.36-.8.37 10.28.36-2.7.36-5.73.36 2.27.36.41.37-2.27.36 4.23.36-.05.36 4.17.36-1.41.37-9.26.36-1.55.36 2.76.36-3.2.36 8.25.37-2.79.36 2.88.36-.97.36-7.11.37 9.05.36-6.88.36 8.26.36 3.67.36-10.6.37-7.2.36 9.96.36-1.47.36 2.08.36-10.89.37 7.75.36-1.14.36 4.55.36 2.11.36-1.08.37-4.79.36-1.29.36 3.32.36 4.37.37-11.57.36 11.43.36-3.5.36 1.2.36 2.68.37-5 .36-3.76.36 5.85.36-3.29.36 5.76.37-3.79.36 3.73.36-3.47.36 6.23.36-11.87.37 2.91.36 4.26.36.06.36-3.44.37.77.36 2.64.36.06.36-2.97.36 8.43.37-6.2.36-3.64.36-1.91.36 12.37.36-7.99.37-2.73.36 2.02.36-3.08.36 1.23.36 4.53.37 7.49.36-3.32.36-12.28.36 3.88.36-.71.37 9.08.36-.38.36-2.5.36-2.73.37-1.09.36-.59.36 3.59.36-3.32.36-5.05.37 4.37.36-4.79.36 3.94.36 4.61.36-9.02.37 3.41.36 5.73.36 1.32.36 3.14.36-11.69.37 5.03.36-2.62.36 1.62.36 3.93.37-3.49.36.97.36-1.24.36 2 .36 1.76.37-.26.36-.91.36-1.44.36 2.58.36-3.14.37 2.76.36.97.36-5.08.36 6.17.36-.94.37 1.35.36-2.88.36-4.99.36 4.29.36-.3.37 4.82.36-2.17.36 3.26.36 2.2.37-16.77.36 7.31.36.97.36-3.26.36-.7.37 6.57.36-3.26.36 2 .36 1.97.36-2.79.37 1.09.36-4.06.36 2.73.36-4.61.36 6.7.37.32.36-5.93.36.21.36 1.32.37 4.37.36-1.49.36.35.36 2.76.36-7.76.37 1.94.36 6.47.36-6.08.36 1.64.36-4.88.37 1.27.36-4.06.36-.32.36 10.25.36-3.93.37 6.16.36-13.45.36 8.81.36 4.79.36-7.99.37.24.36-5.41.36 2.67.36 5.7.37.21.36-7.43.36 11.1.36-10.63.36 7.05.37.55.36-3.75.36 6.75.36-4.38.36 6.23.37-11.01.36 4.14.36-1.85.36 4.67.36-2.2.37-1.86.36-.17.36.94.36-2.79.37-2.91.36 10.28.36-2.5.36-4.87.36 4.58.37-2.58.36 10.95.36-10.72.36-.82.36-2.12.37 10.9.36-9.08.36 8.61.36 3.58.36-9.95.37-4.44.36 8.02.36.56.36 1.7.37.27.36-10.14.36 3.7.36 1.79.36 3.12.37-5.02.36 1.61.36 8.9.36-7.64.36.33.37-6.46.36 1.14.36-3.61.36 14.45.36-8.52.37.35.36-1.61.36 2.99.36 1.24.36 3.85.37-3 .36-7.61.36 2.56.36-3.06.37.09.36 2.29.36.44.36-2.17.36-1.35.37 3.96.36.36.36-1.24.36-.09.36 3.94.37.73.36.5.36-5.17.36 5.23.36-7.52.37 3.53.36 3.79.36 1.96.36-5.78.37 1.11.36-3.31.36 8.04.36-7.72.36 1.76.37 6.23.36-7.37.36 2.49.36-2.55.36 5.69.37-3.31.36.44.36-4.5.36 4.64.36-2.2.37 8.14.36-7.58.36-.21.36.38.36.65.37-2.97.36-3.26.36 7.88.36 2.82.37-6.64.36 9.04.36-12.3.36 15.09.36-1.61.37-6.43.36-6.11.36 3.05.36-3.02.36.97.37 3.43.36-2.08.36-1.18.36 4.14.36.21.37 2.99.36-12.21.36 8.84h.36l.37 3.35.36 4.37.36-3.79.36-.56.36-6.08.37 1.27.36-3.38.36 7.43.36-10.72.36 7.08.37 7.05.36-10.37.36-.24.36 5.32.36-3.52.37.17.36-2.35.36 3.59.36 1.29.37 9.05.36-2.59.36-6.87.36-.94.36 2.52.37 1.91.36-9.07.36 2.55.36 4.14.36-1.99.37 6.25.36-11.28.36 4.35.36.29.36-3.61.37 2.47.36 3.55.36 5.14.36-2.79.36-1.05.37 2.7.36-6.52.36.32.36 7.58.37-11.22.36 1 .36-.47.36 1.85.36 3.35.37-6.82.36 26.64.36-23.55.36-2.94.36 6.08.37.26.36-1.52.36 5.55.36-5.94.36 2.71.37-2.74.36 1.68.36 3.64.36-8.93.37 7.17.36-1.73.36 2.32.36-5.41.36 4.35.37-1.21.36-3.43.36-3 .36 5.02.36 6.11.37-13.71.36 16.59.36-7.34.36.82.36.79.37-4.49.36-4.14.36 8.72.36-.82.36.85.37 1.15.36-5.85.36.35.36 1.62.37-.26.36 7.93.36-3.76.36 1.7.36-5.58.37-5.85.36-.32.36 12.31.36.12.36-3.97.37-2.91.36 2.68.36-8.76.36 7.29.36-7.2.37 7.7.36 2.14.36-5.52.36 1.82.37-.82.36 1.82.36-5.35.36 4.26.36 3.5.37-1.24.36 4.03.36-10.81.36 7.02.36 6.05.37-11.07.36 5.34.36-6.43.36-2.26.36-1.62.37 14.48.36-9.49.36.89.36.35.36-7.49.37 14.39.36-6.96.36 2.09.36-4.65.37 3.62.36-4.35.36 5.52.36-4.82.36 6.14.37-.08.36-1.97.36-4.35.36-.62.36 6.99.37-2.64.36-.38.36 1.61.36-1.14.36 3.99.37-5.72.36-5.35.36 5.49.36 5.17.37-6.14.36.88.36 9.67.36-10.66.36 7.49.37-2.79.36-7.38.36 8.49.36 3.2.36-1.96.37-5.53.36-2.26.36 6.23.36-.82.36-7.44.37 1.15.36 1.97.36 5.43.36 3.15.37-.45.36-2.73.36 1.3.36-1.36.36-5.46.37-1.7.36 2.93.36 2.85.36-.47.36-2.87.37.67.36-3 .36.27.36 9.78.36-4.76.37-3.11.36-4.61.36-.8.36 8.87.36-.32.37 5.17.36 2.94.36-9.05.36.85.37-2.88.36 10.11.36-1.76.36-7.55.36 1 .37 5.9.36-10.99.36.36.36 9.69.36-4.11.37-.53.36 4.2.36-5.52.36 1.53.36 6.66.37-6.87.36 1.53.36 2.79.36-1.62.37 1.79.36 1.27.36.44.36-3 .36-14.42.37 15.33.36-8.25.36 3.99.36 5.55.36.24.37-2.2.36 3.55.36-4.64.36-1.79.36 7.05.37-2.5.36-1.06.36-7.4.36 6.99.36.27.37-3.5.36 2.85.36-.35.36-3.06.37-1.47.36 4.38.36-9.19.36 3.58.36-.44.37-1.03.36 10.78.36-3.32.36-1.64.36-6.52.37 11.51.36-3.11.36-1.79.36 3.23.36 3.05.37-10.98.36 5.52.36 3.32.36-4.97.37 2 .36 3 .36-7.11.36 3.17.36 1.09.37-8.43.36 6.84.36 6.2.36-5.35.36-4.64.37 3.15.36-4.88.36 2.91.36 2.23.36-.09.37-.12.36 2.09.36-2 .36-1.85.36-1.79.37 5.99.36 3.17.36-7.52.36 2.24.37-3.76.36 9.93.36-9.35.36 2.03.36-1.76.37 7.58.36-3.12.36-.79.36-6.93.36 6.64.37-5.5.36 4.65.36-.8.36 4.03.36 1.29.37-.06.36-4.23.36 2.41.36 5.43.37-4.76.36-.91.36 4.38.36-3.61.36-.53.37-.74.36-4.25.36.49.36-.44.36-2.32.37 3.12.36 7.37.36-7.05.36 4.85.36-4.44.37-3.79.36-4.76.36 10.49.36 1.29.37 4.5.36-16.48.36 11.95.36-3.76.36 6.79.37-3.94.36-1.76.36-4.2.36 5.08.36.62.37-6.52.36 9.34.36-5.64.36 7.11.36-3.91.37-4.96.36 7.13.36 5 .36-5.88.36.5.37-7.87.36 3.5.36-4.94.36 3.76.37 14.77.36-8.28.36-7.96.36 6.55.36-3.7.37 7.31.36-3.49.36 1.23.36 3.26.36-5.23.37-1.46.36-5.26.36 1.14.36 3 .36-3.35.37 2.62.36 1.05.36-6.34.36 6.37.37.53.36-.88.36-.65.36 6.79.36-6.93.37-3.38.36-.12.36 3.59.36 5.93.36-1.76.37-7.32.36 11.66.36-12.22.36 4.41.36-4.05.37 6.96.36-10.99.36 9.2.36-.5.36 2.85.37 7.43.36-6.08.36 5.99.36-11.22.37-4.55.36-3.18.36 7.32.36-2.41.36 11.81.37-9.17.36 6.32.36-9.17.36-1.61.36-.68.37 5.64.36.8.36-3.59.36-.41.36 5.96.37-1.08.36-2.15.36 2.44.36-2.5.37-5.81.36 6.75.36-6.22.36 4.43.36.15.37.53.36-3.03.36 2.53.36.32.36 6.76.37-11.14.36 2.44.36 2.7.36 2.09.36-4.29.37 3.5.36.17.36-2.9.36 5.63.36-4.11.37 6.44.36-12.66.36 7.66.36 1.09.37.44.36 2.06.36-4.41.36 1.7.36-4.46.37-1.12.36 1.65.36 3.05.36-4.4.36 9.92.37-3.14.36-1.76.36 5.23.36-7.08.36 3.46.37-8.81.36 2.29.36 6.99.36-.55.37-1.18.36-4.02.36-.91.36 9.66.36-9.87.37-1.26.36.26.36 4.76.36 2.56.36 1.32.37-5.73.36 2.94.36-1.06.36-1.59.36 7.58.37-6.67.36-1.73.36-2.11.36 9.84.37-6.44.36-3.61.36 3.09.36 2.99.36 7.23.37-9.23.36 2.35.36-5.2.36-9.37.36 10.08.37-2.26.36 2.64.36-1.11.36 7.93.36-7.73.37 5.29.36 2.61.36-4.64.36 1.47.36-3.03.37.62.36 4.08.36-.82.36-16.77.37 20.8.36-2.94.36-7.84.36 1.29.36 1.94.37-6.55.36 10.31.36-7.14"/><use xlink:href="#a46ba__b" color="#FFAB00" transform="matrix(3.75 0 0 3.75 182.98 72.8)"/><use xlink:href="#a46ba__b" color="#FFAB00" transform="matrix(3.75 0 0 3.75 220.55 22.51)"/></g><path fill="none" d="M28 45.01V162.5M371.99 45.01H28" color="#000"/></svg>