<svg xmlns="http://www.w3.org/2000/svg" xmlns:xlink="http://www.w3.org/1999/xlink" viewBox="0 0 400 200"><path fill="none" d="M0 0h400v200H0z"/><defs><path id="fd269__a" stroke="currentColor" stroke-width=".267" d="M-1-1h2v2h-2z"/><path id="fd269__e" stroke="currentColor" stroke-width=".267" d="m0-1.33-1.33 2h2.66z"/><use xlink:href="#fd269__a" id="fd269__b" stroke="currentColor" transform="rotate(45)"/><use xlink:href="#fd269__b" id="fd269__d" fill="currentColor" stroke="none"/><circle id="fd269__c" cx="0" cy="0" r="1" stroke="currentColor" stroke-width=".267"/></defs><path fill="none" stroke="#CCC" stroke-linecap="round" stroke-linejoin="round" stroke-width=".1" d="M46.1 162.5V45.01" class="fd269__gridline" color="#000"/><g fill="none" stroke-linecap="round" stroke-linejoin="round" stroke-width="0" color="#000"><path d="M46.1 162.5V155m0-109.99v7.5"/><text fill="#000" font-family="KaTeX_Main" font-size="8" text-anchor="middle" transform="translate(46.1 172.6)"><tspan> 1</tspan></text></g><path fill="none" stroke="#CCC" stroke-linecap="round" stroke-linejoin="round" stroke-width=".1" d="M82.31 162.5V45.01" class="fd269__gridline" color="#000"/><g fill="none" stroke-linecap="round" stroke-linejoin="round" stroke-width="0" color="#000"><path d="M82.31 162.5V155m0-109.99v7.5"/><text fill="#000" font-family="KaTeX_Main" font-size="8" text-anchor="middle" transform="translate(82.31 172.6)"><tspan> 2</tspan></text></g><path fill="none" stroke="#CCC" stroke-linecap="round" stroke-linejoin="round" stroke-width=".1" d="M118.52 162.5V45.01" class="fd269__gridline" color="#000"/><g fill="none" stroke-linecap="round" stroke-linejoin="round" stroke-width="0" color="#000"><path d="M118.52 162.5V155m0-109.99v7.5"/><text fill="#000" font-family="KaTeX_Main" font-size="8" text-anchor="middle" transform="translate(118.52 172.6)"><tspan> 3</tspan></text></g><path fill="none" stroke="#CCC" stroke-linecap="round" stroke-linejoin="round" stroke-width=".1" d="M154.73 162.5V45.01" class="fd269__gridline" color="#000"/><g fill="none" stroke-linecap="round" stroke-linejoin="round" stroke-width="0" color="#000"><path d="M154.73 162.5V155m0-109.99v7.5"/><text fill="#000" font-family="KaTeX_Main" font-size="8" text-anchor="middle" transform="translate(154.73 172.6)"><tspan> 4</tspan></text></g><path fill="none" stroke="#CCC" stroke-linecap="round" stroke-linejoin="round" stroke-width=".1" d="M190.94 162.5V45.01" class="fd269__gridline" color="#000"/><g fill="none" stroke-linecap="round" stroke-linejoin="round" stroke-width="0" color="#000"><path d="M190.94 162.5V155m0-109.99v7.5"/><text fill="#000" font-family="KaTeX_Main" font-size="8" text-anchor="middle" transform="translate(190.94 172.6)"><tspan> 5</tspan></text></g><path fill="none" stroke="#CCC" stroke-linecap="round" stroke-linejoin="round" stroke-width=".1" d="M227.15 162.5V45.01" class="fd269__gridline" color="#000"/><g fill="none" stroke-linecap="round" stroke-linejoin="round" stroke-width="0" color="#000"><path d="M227.15 162.5V155m0-109.99v7.5"/><text fill="#000" font-family="KaTeX_Main" font-size="8" text-anchor="middle" transform="translate(227.15 172.6)"><tspan> 6</tspan></text></g><path fill="none" stroke="#CCC" stroke-linecap="round" stroke-linejoin="round" stroke-width=".1" d="M263.36 162.5V45.01" class="fd269__gridline" color="#000"/><g fill="none" stroke-linecap="round" stroke-linejoin="round" stroke-width="0" color="#000"><path d="M263.36 162.5V155m0-109.99v7.5"/><text fill="#000" font-family="KaTeX_Main" font-size="8" text-anchor="middle" transform="translate(263.36 172.6)"><tspan> 7</tspan></text></g><path fill="none" stroke="#CCC" stroke-linecap="round" stroke-linejoin="round" stroke-width=".1" d="M299.57 162.5V45.01" class="fd269__gridline" color="#000"/><g fill="none" stroke-linecap="round" stroke-linejoin="round" stroke-width="0" color="#000"><path d="M299.57 162.5V155m0-109.99v7.5"/><text fill="#000" font-family="KaTeX_Main" font-size="8" text-anchor="middle" transform="translate(299.57 172.6)"><tspan> 8</tspan></text></g><path fill="none" stroke="#CCC" stroke-linecap="round" stroke-linejoin="round" stroke-width=".1" d="M335.78 162.5V45.01" class="fd269__gridline" color="#000"/><g fill="none" stroke-linecap="round" stroke-linejoin="round" stroke-width="0" color="#000"><path d="M335.78 162.5V155m0-109.99v7.5"/><text fill="#000" font-family="KaTeX_Main" font-size="8" text-anchor="middle" transform="translate(335.78 172.6)"><tspan> 9</tspan></text></g><path fill="none" stroke="#CCC" stroke-linecap="round" stroke-linejoin="round" stroke-width=".1" d="M371.99 162.5V45.01" class="fd269__gridline" color="#000"/><g fill="none" stroke-linecap="round" stroke-linejoin="round" stroke-width="0" color="#000"><path d="M371.99 162.5V155m0-109.99v7.5"/><text fill="#000" font-family="KaTeX_Main" font-size="8" text-anchor="middle" transform="translate(371.99 172.6)"><tspan> 10</tspan></text></g><g fill="none" stroke-linecap="round" stroke-linejoin="round" stroke-width="0" color="#000"><path d="M371.99 162.5h-7.5"/><text fill="#000" font-family="KaTeX_Main" font-size="8" transform="translate(378.99 165.1)"><tspan>0.00</tspan></text></g><g fill="none" stroke-linecap="round" stroke-linejoin="round" stroke-width="0" color="#000"><path d="M371.99 150.75h-7.5"/><text fill="#000" font-family="KaTeX_Main" font-size="8" transform="translate(378.99 153.35)"><tspan>0.05</tspan></text></g><g fill="none" stroke-linecap="round" stroke-linejoin="round" stroke-width="0" color="#000"><path d="M371.99 139h-7.5"/><text fill="#000" font-family="KaTeX_Main" font-size="8" transform="translate(378.99 141.6)"><tspan>0.10</tspan></text></g><g fill="none" stroke-linecap="round" stroke-linejoin="round" stroke-width="0" color="#000"><path d="M371.99 127.25h-7.5"/><text fill="#000" font-family="KaTeX_Main" font-size="8" transform="translate(378.99 129.85)"><tspan>0.15</tspan></text></g><g fill="none" stroke-linecap="round" stroke-linejoin="round" stroke-width="0" color="#000"><path d="M371.99 115.5h-7.5"/><text fill="#000" font-family="KaTeX_Main" font-size="8" transform="translate(378.99 118.1)"><tspan>0.20</tspan></text></g><g fill="none" stroke-linecap="round" stroke-linejoin="round" stroke-width="0" color="#000"><path d="M371.99 103.75h-7.5"/><text fill="#000" font-family="KaTeX_Main" font-size="8" transform="translate(378.99 106.35)"><tspan>0.25</tspan></text></g><g fill="none" stroke-linecap="round" stroke-linejoin="round" stroke-width="0" color="#000"><path d="M371.99 92.01h-7.5"/><text fill="#000" font-family="KaTeX_Main" font-size="8" transform="translate(378.99 94.61)"><tspan>0.30</tspan></text></g><g fill="none" stroke-linecap="round" stroke-linejoin="round" stroke-width="0" color="#000"><path d="M371.99 80.26h-7.5"/><text fill="#000" font-family="KaTeX_Main" font-size="8" transform="translate(378.99 82.86)"><tspan>0.35</tspan></text></g><g fill="none" stroke-linecap="round" stroke-linejoin="round" stroke-width="0" color="#000"><path d="M371.99 68.51h-7.5"/><text fill="#000" font-family="KaTeX_Main" font-size="8" transform="translate(378.99 71.11)"><tspan>0.40</tspan></text></g><g fill="none" stroke-linecap="round" stroke-linejoin="round" stroke-width="0" color="#000"><path d="M371.99 56.76h-7.5"/><text fill="#000" font-family="KaTeX_Main" font-size="8" transform="translate(378.99 59.36)"><tspan>0.45</tspan></text></g><g fill="none" stroke-linecap="round" stroke-linejoin="round" stroke-width="0" color="#000"><path d="M371.99 45.01h-7.5"/><text fill="#000" font-family="KaTeX_Main" font-size="8" transform="translate(378.99 47.61)"><tspan>0.50</tspan></text></g><path fill="none" d="M28 45.01V162.5M371.99 45.01H28" color="#000"/><text stroke-linecap="round" stroke-linejoin="round" stroke-width="0" color="#000" font-family="KaTeX_Main" font-size="10" text-anchor="middle" transform="rotate(-90 57.63 46.13)"><tspan font-weight="bold">Rotations</tspan><tspan> / Operations</tspan></text><text stroke-linecap="round" stroke-linejoin="round" stroke-width="0" color="#000" font-family="KaTeX_Main" font-size="10" text-anchor="middle" transform="translate(199.99 195.75)"><tspan>Operations / 10</tspan><tspan dy="-5" font-size="8">6</tspan></text><text stroke-linecap="round" stroke-linejoin="round" color="#000" font-family="KaTeX_Main" font-size="8" transform="translate(132.8 10.11)"><tspan>LBSTBottomUp</tspan></text><g fill="none" stroke="currentColor" stroke-linecap="round" stroke-linejoin="round" color="#000"><path stroke="#3B75EA" d="M97.3 7.51h29.9M28 53.56l.36-2.82.36 3.2.37-.94.36-.12.36-.26.36.54.36 2.49.37.99.36.89.36-5.07.36 2.09.37-2.56.36-.42.36 1.45.36-2.53.36.82.37 1.38.36.64.36.94.36-1.95.36 2.37.37-2.11.36 2.91.36-3.81.36 2.87.36-1.69.37.87.36-2.07.36 4.16.36-.92.36-3.9.37 3.76.36-2.56.36.09.36.78.37 1.17.36.33.36-2.16.36 2.66.36-6.11.37 5.33.36 1.86.36-.75.36-3.18.36 1.58.37 1.17.36-1.9.36.59.36-1.62.36-.31.37 4.96.36-2.54.36-4.63.36 4.16.37-.89.36 4.06.36-3.19.36.44.36-1.03.37.66.36-2 .36-.61.36 3.59.36-.65.37-.61.36-.9.36-1.52.36 1.88.36 1.73.37-2.86.36 5.33.36-2.98.36 2.3.37-2.44.36.72.36.55.36-2.5.36-.82.37 3.48.36-3.97.36 3.62.36-3.2.36 2.66.37-.83.36-1.24.36 1.24.36-.28.36-.35.37-1.41.36 2.28.36-2.3.36 2.32.36 1.41.37-1.15.36.24.36-4.7.36 4.37.37-1.6.36.82.36-1.1.36-1.01.36.61.37-2.3.36 2.39.36 3.9.36.78.36-1.46.37-2.21.36 1.72.36-2.02.36-4.3.36 4.11.37-1.36.36 4.77.36-.1.36-2.91.37.73.36 1.83.36-3.74.36 3.25.36-2.82.37-1.04.36 2.21.36.12.36-2.4.36 4.42.37-3.1.36.44.36-.58.36.87.36-.78.37 1.08.36.21.36.8.36-4.02.36 4.14.37-.24.36-.63.36.94.36-1.72.37 1.2.36.73.36-1.67.36 2.47.36-5.5.37 1.04.36 4.77.36-6.21.36 3.74.36-.4.37 1.67.36-2.49.36 1.2.36.47.36.54.37-1.58.36.42.36 1.91.36-2.96.37-.19.36.73h.36l.36 2.65.36-2.54.37 4.26.36-3.86.36.69.36-2.33.36 2.37.37.64.36-.59.36-.49.36-.8.36 2.25.37-4.7.36 4.56.36-1.74.36-.35.36.56.37-.75.36-.37.36.96.36-1.25.37 4.07.36-1.62.36.45.36-1.86.36-.61.37 2.68.36.42.36-1.57.36.75.36-1.15.37-.38.36-1.46.36 3.36.36-1.69.36.02.37 1.37.36-1.01.36 1.24.36-.96.37-2.21.36.26.36 1.6.36.11.36 2.14.37-3.9.36 1.74.36-.05.36.14.36-2.79.37-.05.36 4.37.36-1.24.36.82.36 1.86.37-4.26.36.94.36 2.87.36-2.14.37 1.2.36-.82.36-.17.36-.07.36-.26.37.26.36-2.65.36 1.31.36.97.36 1.12.37-1.05.36.35.36.73.36-1.3.36.59.37-2.16.36.35.36.68.36-1.08.36.33.37 1.91.36-1.53.36.21.36-.56.37.75.36-.43.36 1.06.36.99.36-3.29.37 2.37.36-1.71.36.56.36-.92.36 1.41.37.85.36.73.36.99.36-2.85.36.83.37 1.66.36-.56.36 1.57.36-2.04.37-2.4.36 1.51.36-1.2.36 2.72.36-2.2.37 1.43.36-2.28.36 1.9.36-1.43.36.99.37 1.34.36.09.36-3.01.36 2.89.36-2.98.37.84.36 2.47.36-1.17.36-3.6.36-.94.37 3.67.36 1.22.36.21h.36l.37-.99.36-2.7.36 4.35.36-1.76.36-3.72.37 4.14.36-3.85.36 4.18.36 2.7.36-3.6.37-1.12.36.26.36-1.16.36 2h.36l.37-.82.36-.02.36 2.63.36-2.68.37 2.16.36-3.81.36.71.36 3.9.36-1.74.37-.09.36-2.21.36 3.31.36-1.86.36 1.95.37-2.91.36 2.7.36-.8.36-1.85.36 3.03.37-.54.36-2.47.36.66.36 2.33.36 1.36.37-3.01.36-.07.36-3.24.36 2.86.37-.28.36-3.03.36 2.52.36 1.85.36-2.58.37 1.9.36.8.36.05.36-4.26.36 3.76.37 1.79.36-4.51.36-1.72.36 8.93.36-5.19.37 1.69.36-2.33.36.17.36 1.55.37 3.36.36-2.84.36-1.65.36 2.73.36-2.61.37-1.62.36 3.43.36-4.75.36 3.9.36.35.37-.3.36-.33.36-2.02.36-.92.36 3.25.37-1.6.36.77.36.33.36 1.11.37-.31.36-1.24.36-.08.36-1.22.36 2.61.37-2.87.36.38.36.31.36.75.36 2.28.37-.75.36-3.15.36 2.72.36 1.74.36-3.1.37-.02.36-.29.36-.35.36 4.68.36-5.08.37 1.11.36 1.22.36-.8.36.38.37 1.05.36-3.31.36 2.16.36-.3.36.54.37-2.61.36 1.55.36-.14.36-.52.36 1.74.37 1.43.36-.8.36.1.36.14.36-2.42.37 1.71.36-1.03.36.14.36 2.96.37 1.15.36-2.75.36 1.95.36-2.96.36-2.35.37 2 .36-.09.36.19.36 1.5.36-3.97.37 6.04.36-3.46.36 1.69.36.12.36-1.81.37.24.36 1.27.36-1.11.36.1.36-1.13.37 3.05.36-2.75.36 1.2.36-1.97.37 3.05.36-2.11.36 2.32.36.8.36-3.8.37-.24.36-.42.36 4.98.36-3.81.36 1.2.37-.47.36-3.31.36 2.56.36.33.36-.33.37.31.36-.4.36.11.36 1.91.37-.36.36-1.97.36 1.08.36-.75.36-3.62.37 5.31.36-.99.36.47.36-.58.36-.45.37 1.06.36-1.95.36 3.08.36-2.07.36 1.08.37-.54.36-.87.36 1.41.36.63.37-.94.36 1.04.36-3.03.36 2.11.36-1.62.37 3.17.36-2.68.36.07.36 1.67.36-2.61.37 1.3.36.89.36-2.66.36 3.46.36 1.24.37-2.3.36-.59.36.19.36-3.29.36 3.57.37-.33.36.57.36.12.36-.57.37.75.36.22.36-1.25.36.54.36 1.57.37-2.93.36 2.09.36.42.36.5.36-1.23.37-2.61.36 2.71.36-.78.36.31.36.49.37-.94.36-.19.36-.66.36 1.44.37-2.61.36 1.01.36 2.23.36-.7.36 1.01.37-3.03.36 3.19.36-2.89.36.14.36 2.26.37.77.36-2.04.36-1.53.36 5.24.36-4.72.37-.24.36 3.95.36-4.39.36 3.64.36-4.06.37-.03.36 2.33.36 2.96.36-2.07.37-3.78.36 2.42.36-.89.36.51.36 1.29.37-.32.36 2.04.36-5.47.36 2.49.36-3.25.37 5.76.36-.12.36 1.2.36-4.18.36 3.12.37.45.36-1.5.36 2.6.36-4.23.37-.3.36.23.36-1.76.36 4.07.36-1.65.37 1.51.36-1.34.36-3.34.36 6.96.36-4.35.37 1.83.36-.68.36 1.93.36-.33.36-.35.37.11.36-4.13.36 3.29.36 2.14.36-3.06.37 2.12.36-2.5.36 2.35.36-3.19.37 1.13.36 2.23.36-1.88.36.75.36-.07.37.82.36-.19.36-.35.36 1.06.36-.89.37-1.27.36-.64.36 1.46.36-.45.36.14.37-.09.36-2.21.36 2.82.36-.26.37-.37.36-1.74.36-.03.36 1.98.36-.47.37-.78.36-.91.36-.68.36 2.42.36-1.06.37 4.39.36-3.99.36-1.15.36 2.58.36-1.55.37-.96.36 1.85.36.1.36 1.9.37-4.18.36 2.07.36.04.36.24.36-3.41.37.56.36 4.33.36-2.63.36.4.36.25.37-1.66.36 2.2.36 2.43.36-1.16.36-1.52.37.28.36-4 .36.43.36 2.68.36-2.33.37 3.29.36 1.95.36.02.36.24.37-4.96.36 3.85.36-5 .36 6.25.36.75.37-4.72.36 1.48.36-1.25.36-2.44.36 1.67.37.28.36.12.36-1.01.36 2.98.36 2.82.37-5.71.36-.99.36 3.29.36-2.93.37 2.16.36-2.52.36 2.14.36-.66.36 3.46.37-2.16.36 2.13.36-.96.36-1.55.36.16.37 4.8.36-3.76.36-1.44.36 1.32.36-2.61.37 1.98.36-2.94.36 3.08.36 1.9.36-.16.37-3.53.36-1.78.36 4.7.36-.52.37.35.36.73.36-1.25.36-.89.36 1.36.37-1.1.36-1.74.36 2.4.36 1.13.36 1.38.37-2.96.36-1.74.36 2.73.36-3.6.36 5.45.37-1.26.36-1.67.36-.12.36.28.37-1.88.36 4.11.36-3.45.36 3.1.36-1.9.37-1.95.36 3.8.36-3.17.36 3.13.36.04.37-1.78.36.84.36-.54.36 2.07.36-2.68.37 1.2.36-1.43.36-1.27.36.09.36-.14.37 3.27.36-1.29.36.91.36-2.61.37 2.19.36-1.34.36-.82.36 2.21.36.04.37.36.36-.24.36-.68.36.33.36-.19.37.33.36.23.36-4.55.36 3.99.36-3.76.37 3.29.36-.87.36.07.36 2.77.37-2.2.36-3.34.36 2.51.36 3.76.36-1.08.37-1.38.36-2.66.36 2.54.36 1.92.36-3.5.37.1.36 2.09.36-1.46.36 3.55.36-3.71.37-.12.36 1.08.36-1.67.36.82.37 2.78.36-2.4.36-.89.36.96.36-.14.37.26.36 2 .36-1.27.36-.57.36-2.18.37 5.43.36-5.1.36-.52.36 2.09.36-.54.37 1.27.36 2.7.36-4.11.36 2.98.36-2.18.37-.82.36 3.1.36-3.71.36 2.16.37-2.68.36 2.96.36-.24.36-1.03.36-2.56.37 7.05.36-6.58.36 2.18.36-1.9.36.89.37 2.92.36-.21.36.07.36-1.93.36.75.37-.28.36-3.45.36 2.93.36.45.37-1.06.36 1.01.36 4.11.36-4.08.36-.1.37-2.51.36 5.47.36-2.89.36 3.17.36-3.19.37-1.76.36 4.7.36-3.25.36-.26.36 5.41.37-7.78.36 3.06.36-.07.36.82.36-3.24.37 4.32.36-1.86.36-.68.36.71.37.84.36-1.53.36.52.36-.3.36-.94.37 1.59.36-1.97.36 4.39.36-2.63.36-.51.37 2.23.36-2.61.36 2.02.36-1.55.36 1.67.37-.57.36-4.51.36 4.68.36.87.37-3.57.36 3.03.36-.26.36.35.36.14.37.61.36-3.85.36 3.01.36-.31.36-3.43.37 2.68.36-.75.36.8.36-.38.36.1.37-.66.36 2.07.36 4.18.36-1.46.36-6.65.37.94.36-1.08.36 2.89.36-1.2.37 3.43.36-1.22.36-1.36.36-2.28.36 1.69.37 1.18.36 2.89.36-3.98.36-.18.36.51.37.97.36-1.15.36.11.36-.7.36 4.65.37-.89.36-3.32.36-1.1.36 1.34.37 1.27.36-2.28.36 2.33.36-1.88.36.75.37 2.25.36-1.29.36-.82.36 2.75.36-.26.37-1.83.36 1.81.36-2.92.36-1.48.36 3.74.37.28.36-2.49.36 3.85.36-.66.37.47.36-1.97.36.31.36-.52.36-2.05.37 1.2.36.1.36 1.74.36-.71.36-.82.37-2.26.36 3.03.36-.3.36-.35.36-.33.37 2.28.36-5.6.36 4.33.36 1.88.36-1.65.37-.47.36-2.21.36 3.36.36-4.08.37-.64.36-.09.36 2.32.36.21h.36l.37 1.84.36-1.53.36 2.75"/><use xlink:href="#fd269__c" color="#3B75EA" transform="matrix(3.75 0 0 3.75 354.25 51.52)"/><use xlink:href="#fd269__c" color="#3B75EA" transform="matrix(3.75 0 0 3.75 112.25 7.51)"/></g><text stroke-linecap="round" stroke-linejoin="round" color="#000" font-family="KaTeX_Main" font-size="8" transform="translate(132.8 25.11)"><tspan>LBSTRelaxed</tspan></text><g fill="none" stroke="currentColor" stroke-linecap="round" stroke-linejoin="round" color="#000"><path stroke="#FFAB00" stroke-dasharray="4.0,2.0,1.0,2.0" d="M97.3 22.51h29.9M28 162.5h343.99"/><use xlink:href="#fd269__d" color="#FFAB00" transform="matrix(3.75 0 0 3.75 67.83 162.5)"/><use xlink:href="#fd269__d" color="#FFAB00" transform="matrix(3.75 0 0 3.75 112.25 22.51)"/></g><text stroke-linecap="round" stroke-linejoin="round" color="#000" font-family="KaTeX_Main" font-size="8" transform="translate(241.1 10.11)"><tspan>WBSTBottomUp</tspan></text><g fill="none" stroke="currentColor" stroke-linecap="round" stroke-linejoin="round" color="#000"><path stroke="#000" d="M205.6 7.51h29.9M28 113.51l.36-.61.36.35.37.28.36-.75.36.09.36 1.72.36-2.28.37 3.62.36-3.62.36.54.36 1.64.37-2.16.36 2.45.36-3.34.36 1.24.36-1.64.37 2.47.36.75.36 1.38.36-3.59.36 2.09.37-.56.36-1.01.36-.03.36-1.52.36 2.6.37.73.36-2.21.36 3.81.36-1.43.36-.68.37.58.36-1.52.36.28.36-.38.37.71.36.09.36-.89.36 2.98.36-3.92.37 1.92.36-1.99.36.94.36.42.36 2.4.37-.54.36.09.36-.89.36-.92.36-.16.37 1.43.36-.38.36-.23h.36l.37-.47.36.8.36 1.2.36-1.18.36.35.37-1.81.36.45.36-.94.36 2.7.36-1.31.37.47.36 1.52.36-3.68.36 1.88.36-2.31.37.94.36.61.36 2.45.36-2.16.37 1.88.36-1.46.36-.21.36-1.18.36 2.26.37-1.2.36 2.16.36-2.77.36.35.36 1.01.37-.94.36-.89.36 2.23.36-1.08.36.49.37-.72.36.56.36-1.97.36 1.48.36 1.45.37-1.76.36-1.93.36 2.4.36.71.37.28.36-.87.36-.94.36.56.36 3.08.37-4.11.36-.47.36.84.36.83.36.37.37.43.36-.78.36-2.26.36 3.27.36-.78.37-1.01.36-1.78.36 3.1.36.75.37-.89.36-1.55.36.47.36 1.06.36.02.37-.19.36-2.18.36 4.15.36-2.65.36-.07.37.38.36.02.36.21.36.47.36-2.84.37 2.53.36.29.36 2.77.36-3.08.36.33.37.35.36.99.36-1.34.36-.47.37-2 .36 1.44.36-.78.36 3.01.36-2.66.37.12.36 2.47.36-2 .36-.05.36 2.38.37-1.62.36.44.36-.49.36.37.36-.98.37-1.27.36 1.57.36.07.36 2.49.37-2.72.36-.45.36.71.36 1.55.36-2.63.37 1.08.36-.03.36 2.02.36-4.7.36 1.63.37 2.18.36-1.62.36 2.33.36-1.06.36.3.37.33.36-1.27.36-1.08.36-.65.36.7.37 1.67.36-1.43.36 2.35.36-.03.37-1.64.36-.78.36 1.15.36 1.04.36-2.68.37 3.66.36-2.28.36 1.25.36-.8.36.35.37-2.56.36-1.71.36 4.32.36-.8.36-.49.37-2.3.36.51.36 1.04.36 1.24.37-2.65.36 4.7.36-1.08.36-1.13.36.26.37-2.26.36 2.37.36-3.1.36 3.24.36-2.18.37 2.18.36-1.15.36.12.36.12.36 2.54.37-1.79.36.82.36.38.36-1.72.37 1.11.36-.52.36-.05.36-.98.36.16.37.02.36 1.04.36-.21.36-3.11.36 3.58.37-1.91.36 2.99.36-1.22.36-1.2.36 2.58.37-2.25.36-2.35.36 3.38.36 1.72.36-3.15.37 1.29.36-.21.36-1.81.36 1.29.37 1.95.36-2.8.36-.14.36 2.35.36-.89.37-.3.36.09.36.63.36-2.23.36.26.37 2.8.36-3.58.36 3.01.36-.35.36-.4.37-1.01.36.92.36-.29.36 1.3.37-2.85.36-.42.36 2.51.36 2.12.36-3.9.37 1.53.36-.69.36.9.36.12.36-.59.37.68.36.14.36-3.13.36 1.65.36-.09.37 1.19.36 1.91.36-2.35.36-2.66.36 1.27.37 1.34.36-2.09.36 2.65.36 1.46.37-.35.36-3.06.36 2.03.36-2.71.36 3.79.37-2.1.36-.3.36-.52.36.43.36 1.48.37.28.36-1.39.36-.45.36-.09.36 2 .37.84.36-2.25.36-.38.36 1.37.37-.62.36.4.36-2.56.36 1.93.36.21.37.56.36.03.36-.61.36.68.36.21.37-2.61.36.8.36 2.07.36-1.46.36 2.82.37-3.03.36-.28.36-.82.36 3.85.36-2.07.37 1.08.36-3.87.36-.15.36 3.53.37-3.76.36 3.59.36-1.9.36-2.33.36 3.41.37.87.36 1.22.36-1.27.36-.44.36.28.37-.61.36.7.36-.51.36 1.08.36-4.3.37 2.04.36 1.95.36 1.32.36-1.32.37.28.36-.11.36-.78.36-1.38.36.72.37.97.36-1.55.36 1.45.36-.8.36.66.37-.16.36.7.36-2.09.36 2.8.36.7.37-5.26.36 1.6.36 1.45.36-.23.37.61.36-3.13.36 2.45.36 1.06.36-1.51.37-1.38.36 2.27.36-.49.36.82h.36l.37-.11.36-1.44.36-.09.36.09.36.52.37-1.41.36 2.82.36-.99.36.17.36-.21.37-1.44.36 1.67.36.47.36-1.57.37.35.36.37.36-.49.36.17.36 1.88.37-1.98.36.45.36-.21.36.18.36 1.34.37-.51.36-1.62.36 1.43.36-1.27.36 2.12.37-.97h.36l.36-1.57.36 1.57.37-.37.36.68.36-1.34.36-.97.36 3.65.37-1.74.36-2.26.36 3.76.36-.63.36.14.37-2.23.36 1.62.36-.47.36.37.36.43.37-.8.36-1.77.36.31.36 2.14.36.52.37-.64.36-1.27.36.82.36.03.37-1.48.36.96.36.12.36-.38.36.05.37 1.64.36-1.1.36-.09.36-.45.36.26.37.14.36-.49.36-.92.36 3.03.36-.82.37-1.74.36 2.42.36-.16.36-1.63.37 1.16.36-1.32.36 2.07.36-1.2.36-1.65.37 1.23.36-.17.36.75.36.83.36-.73.37-1.15.36-.24.36-.12.36 1.41.36 1.72.37-2.02.36-2.19.36 4.7.36-2.77.37-.14.36 1.01.36-2.37.36 2.09.36-.14.37 1.34.36-2.21.36-.59.36-.87.36 1.67.37.26.36-.33.36-.97.36.92.36-1.62.37 4.42.36-2 .36-.33.36-.73.36.97.37-2.14.36 4.11.36-2.99.36.85.37.33.36.99.36-.8.36-1.65.36 2.05.37-2.07.36.52.36-.19.36 1.29.36-1.62.37 1.53.36.21.36 1.83.36-2.33.36.45.37-.54.36-1.76.36 1.88.36-2.75.37 1.95.36.35.36 1.22.36-.75.36-.33.37-1.62.36 1.48.36.82.36 1.09.36-.62.37-1.99.36 1.62.36 1.78.36-.44.36-3.27.37 2.54.36-.82.36-1.23.36 1.72.36-1.62.37.56.36 1.25.36.23.36-.04.37-.57.36 1.06.36-3.1.36 3.73.36-3.14.37.37.36.8.36 1.22.36-3.41.36 1.93.37-.54.36 1.32.36.4.36-1.86.36-.49.37-1.27.36 3.76.36.19.36-.47.37-.92.36.38.36-2.12.36 1.41.36-.09.37.42.36-.31.36-1.31.36 1.81.36.11.37.15.36-.59.36-1.22.36 3.52.36-2.65.37 2.13.36-2.67.36.11.36-.07.36-.12.37-2.23.36 3.86.36-3.6.36 2.19.37 1.9.36-2.56.36.14.36 2.49.36-.63.37.51.36-.51.36-1.91.36.57.36.47.37.72.36-1.17h.36l.36 2.21.36-.78.37.29.36.7.36-1.13.36.45.37 1.31.36-1.5.36-1.69.36.96.36.35.37-.89.36.47.36-.09.36-.24.36 1.25.37.66.36-3.46.36 2.12.36-.57.36-1.27.37 1.74.36.4.36-1.53.36.94.37.8.36-2.3.36 1.67.36-1.13.36 1.9.37-1.64.36 1.06.36.26.36-1.18.36-.8.37-.3.36 3.87.36-3.47.36 1.01.36-.61.37-.03.36.21.36 1.32.36-1.65.36-.82.37 2.19.36-.24.36 2.59.36-1.06.37-1.69.36.75.36.19.36-.19.36-.61.37-.49.36 1.66.36.43.36-1.86.36-1.53.37 2.87.36-.87.36-2.77.36 2.11.36-1.41.37 2.07.36.21.36.14.36-2.54.37 1.32.36-1.81.36 1.51.36 1.8.36-2.6.37 1.59.36-1.22.36 1.6.36-.02.36-.73.37 1.24.36-2.11.36 1.29.36.1.36-.4.37-.4.36-1.91.36 4.12.36-1.34.36-2.73.37 1.67.36 1.15.36-.75.36-.73.37 1.79.36.04.36-1.17.36 1.41.36-1.46.37-.23.36.47.36-1.32.36.47.36 3.12.37-2.13.36-1.32.36 1.86.36.56.36.26.37-.02.36-2.8.36 2.58.36-.47.37-.25.36.28.36-.54.36-.07.36-.8.37-.12.36.49.36 1.95.36-.82.36 1.9.37-2.65.36-.42.36.28.36-.73.36 1.01.37 2.44.36-4.58.36 3.41.36-1.15.36-.75.37-.07.36.72.36 2.24.36-3.9.37-.87.36 2.46.36-1.69.36 2.87.36-1.67.37 1.32.36-2.07.36.16.36 3.17.36-.75.37-1.9.36-.85.36.76.36 1.1.36-1.48.37 1.48.36-1.81.36 2.12.36-1.6.37.37.36.38.36.61.36 1.06.36-.47.37-.71.36-2.06.36 2.27.36-.89.36 2.42.37-1.29.36-.92.36-.09.36 2.37.36-1.36.37-.26.36-1.71.36.28.36-.5.37 2.07.36-2.65.36 1.48.36 2.18.36-2.93.37-.4.36.87.36 2.7.36-3.46.36 3.6.37-2.26.36-1.48.36 1.6.36-1.08.36 3.15.37-.89.36 1.15.36.37.36-4.11.36-.23.37 1.64.36.71.36-.26.36-.87h.37l.36-1.93.36 1.43.36.07.36.33.37.64.36-1.72.36 2.23.36.17.36-.35.37-1.84.36 1.08.36.99.36.05.36-2.19.37-.28.36 1.79.36.28.36-3.34.37 3.9.36-1.59.36-.19.36.87.36-1.41.37.49.36 1.83.36-1.83.36 1.53.36-.17.37-2.11.36 1.15.36-.66.36 2.94.36-.66.37-1.31.36-.05.36.16.36 1.44.36-1.32.37.73.36.12.36.49.36-2.75.37 2.51.36-.91.36.26.36-1.95.36 2.02.37-.38.36.02.36 1.65.36-.47.36-.92.37-1.69.36.96.36.66.36.28.36 1.95.37-1.97.36-.05.36-1.24.36.66.37.44.36 1.58.36-.4.36-3.39.36.05.37 3.15.36-1.9.36.68h.36l.36-1.32.37.87.36-1.2.36 1.13.36-1.46.36 1.01.37.83.36-.4.36.56.36.82.36-.82.37.85.36-2.19.36.1.36.28.37 1.97.36-1.43.36-.82.36 1.99.36-.09.37.75.36-2.09.36-.75.36.94.36-1.74.37 1.43.36-.87.36.24.36.42.36 2.96.37-2.37.36-1.83.36 3.38.36-1.22.37 1.78.36-4.53.36 2.07.36.49.36 1.79.37-1.7.36-.56.36.59.36.19.36.09.37-.38.36 1.58.36-.97.36.92.36-1.79.37.94.36-1.12.36 1.08.36-2.21.37 3.73.36.43.36-1.95.36.33.36-2.26.37 1.43.36 1.86.36-1.97.36.07.36-.57.37-1.76.36 1.69.36.71.36-.68.36.25.37 1.32.36-.59.36-2.06.36 3.17.36-.64.37-.18.36-.26.36-1.55.36 1.85.37-1.31.36.7.36-.02.36-2.19.36 3.15.37-1.2.36.1.36.98"/><use xlink:href="#fd269__e" transform="matrix(3.75 0 0 3.75 125.4 112.38)"/><use xlink:href="#fd269__e" transform="matrix(3.75 0 0 3.75 220.55 7.51)"/></g><path fill="none" d="M28 45.01V162.5M371.99 45.01H28" color="#000"/></svg>