<svg xmlns="http://www.w3.org/2000/svg" xmlns:xlink="http://www.w3.org/1999/xlink" viewBox="0 0 400 200"><path fill="none" d="M0 0h400v200H0z"/><defs><use xlink:href="#65885__a" id="65885__f" stroke="currentColor" transform="rotate(180)"/><use xlink:href="#65885__b" id="65885__c" stroke="currentColor" transform="rotate(45)"/><use xlink:href="#65885__c" id="65885__e" fill="currentColor" stroke="none"/><path id="65885__b" stroke="currentColor" stroke-width=".267" d="M-1-1h2v2h-2z"/><path id="65885__a" stroke="currentColor" stroke-width=".267" d="m0-1.33-1.33 2h2.66z"/><circle id="65885__d" cx="0" cy="0" r="1" stroke="currentColor" stroke-width=".267"/></defs><path fill="none" stroke="#CCC" stroke-linecap="round" stroke-linejoin="round" stroke-width=".1" d="M46.1 162.5V45.01" class="65885__gridline" color="#000"/><g fill="none" stroke-linecap="round" stroke-linejoin="round" stroke-width="0" color="#000"><path d="M46.1 162.5V155m0-109.99v7.5"/><text fill="#000" font-family="KaTeX_Main" font-size="8" text-anchor="middle" transform="translate(46.1 172.6)"><tspan> 1</tspan></text></g><path fill="none" stroke="#CCC" stroke-linecap="round" stroke-linejoin="round" stroke-width=".1" d="M82.31 162.5V45.01" class="65885__gridline" color="#000"/><g fill="none" stroke-linecap="round" stroke-linejoin="round" stroke-width="0" color="#000"><path d="M82.31 162.5V155m0-109.99v7.5"/><text fill="#000" font-family="KaTeX_Main" font-size="8" text-anchor="middle" transform="translate(82.31 172.6)"><tspan> 2</tspan></text></g><path fill="none" stroke="#CCC" stroke-linecap="round" stroke-linejoin="round" stroke-width=".1" d="M118.52 162.5V45.01" class="65885__gridline" color="#000"/><g fill="none" stroke-linecap="round" stroke-linejoin="round" stroke-width="0" color="#000"><path d="M118.52 162.5V155m0-109.99v7.5"/><text fill="#000" font-family="KaTeX_Main" font-size="8" text-anchor="middle" transform="translate(118.52 172.6)"><tspan> 3</tspan></text></g><path fill="none" stroke="#CCC" stroke-linecap="round" stroke-linejoin="round" stroke-width=".1" d="M154.73 162.5V45.01" class="65885__gridline" color="#000"/><g fill="none" stroke-linecap="round" stroke-linejoin="round" stroke-width="0" color="#000"><path d="M154.73 162.5V155m0-109.99v7.5"/><text fill="#000" font-family="KaTeX_Main" font-size="8" text-anchor="middle" transform="translate(154.73 172.6)"><tspan> 4</tspan></text></g><path fill="none" stroke="#CCC" stroke-linecap="round" stroke-linejoin="round" stroke-width=".1" d="M190.94 162.5V45.01" class="65885__gridline" color="#000"/><g fill="none" stroke-linecap="round" stroke-linejoin="round" stroke-width="0" color="#000"><path d="M190.94 162.5V155m0-109.99v7.5"/><text fill="#000" font-family="KaTeX_Main" font-size="8" text-anchor="middle" transform="translate(190.94 172.6)"><tspan> 5</tspan></text></g><path fill="none" stroke="#CCC" stroke-linecap="round" stroke-linejoin="round" stroke-width=".1" d="M227.15 162.5V45.01" class="65885__gridline" color="#000"/><g fill="none" stroke-linecap="round" stroke-linejoin="round" stroke-width="0" color="#000"><path d="M227.15 162.5V155m0-109.99v7.5"/><text fill="#000" font-family="KaTeX_Main" font-size="8" text-anchor="middle" transform="translate(227.15 172.6)"><tspan> 6</tspan></text></g><path fill="none" stroke="#CCC" stroke-linecap="round" stroke-linejoin="round" stroke-width=".1" d="M263.36 162.5V45.01" class="65885__gridline" color="#000"/><g fill="none" stroke-linecap="round" stroke-linejoin="round" stroke-width="0" color="#000"><path d="M263.36 162.5V155m0-109.99v7.5"/><text fill="#000" font-family="KaTeX_Main" font-size="8" text-anchor="middle" transform="translate(263.36 172.6)"><tspan> 7</tspan></text></g><path fill="none" stroke="#CCC" stroke-linecap="round" stroke-linejoin="round" stroke-width=".1" d="M299.57 162.5V45.01" class="65885__gridline" color="#000"/><g fill="none" stroke-linecap="round" stroke-linejoin="round" stroke-width="0" color="#000"><path d="M299.57 162.5V155m0-109.99v7.5"/><text fill="#000" font-family="KaTeX_Main" font-size="8" text-anchor="middle" transform="translate(299.57 172.6)"><tspan> 8</tspan></text></g><path fill="none" stroke="#CCC" stroke-linecap="round" stroke-linejoin="round" stroke-width=".1" d="M335.78 162.5V45.01" class="65885__gridline" color="#000"/><g fill="none" stroke-linecap="round" stroke-linejoin="round" stroke-width="0" color="#000"><path d="M335.78 162.5V155m0-109.99v7.5"/><text fill="#000" font-family="KaTeX_Main" font-size="8" text-anchor="middle" transform="translate(335.78 172.6)"><tspan> 9</tspan></text></g><path fill="none" stroke="#CCC" stroke-linecap="round" stroke-linejoin="round" stroke-width=".1" d="M371.99 162.5V45.01" class="65885__gridline" color="#000"/><g fill="none" stroke-linecap="round" stroke-linejoin="round" stroke-width="0" color="#000"><path d="M371.99 162.5V155m0-109.99v7.5"/><text fill="#000" font-family="KaTeX_Main" font-size="8" text-anchor="middle" transform="translate(371.99 172.6)"><tspan> 10</tspan></text></g><g fill="none" stroke-linecap="round" stroke-linejoin="round" stroke-width="0" color="#000"><path d="M371.99 162.5h-7.5"/><text fill="#000" font-family="KaTeX_Main" font-size="8" transform="translate(378.99 165.1)"><tspan>0.00</tspan></text></g><g fill="none" stroke-linecap="round" stroke-linejoin="round" stroke-width="0" color="#000"><path d="M371.99 142.92h-7.5"/><text fill="#000" font-family="KaTeX_Main" font-size="8" transform="translate(378.99 145.52)"><tspan>5.00</tspan></text></g><g fill="none" stroke-linecap="round" stroke-linejoin="round" stroke-width="0" color="#000"><path d="M371.99 123.34h-7.5"/><text fill="#000" font-family="KaTeX_Main" font-size="8" transform="translate(378.99 125.94)"><tspan>10.00</tspan></text></g><g fill="none" stroke-linecap="round" stroke-linejoin="round" stroke-width="0" color="#000"><path d="M371.99 103.75h-7.5"/><text fill="#000" font-family="KaTeX_Main" font-size="8" transform="translate(378.99 106.35)"><tspan>15.00</tspan></text></g><g fill="none" stroke-linecap="round" stroke-linejoin="round" stroke-width="0" color="#000"><path d="M371.99 84.17h-7.5"/><text fill="#000" font-family="KaTeX_Main" font-size="8" transform="translate(378.99 86.77)"><tspan>20.00</tspan></text></g><g fill="none" stroke-linecap="round" stroke-linejoin="round" stroke-width="0" color="#000"><path d="M371.99 64.59h-7.5"/><text fill="#000" font-family="KaTeX_Main" font-size="8" transform="translate(378.99 67.19)"><tspan>25.00</tspan></text></g><g fill="none" stroke-linecap="round" stroke-linejoin="round" stroke-width="0" color="#000"><path d="M371.99 45.01h-7.5"/><text fill="#000" font-family="KaTeX_Main" font-size="8" transform="translate(378.99 47.61)"><tspan>30.00</tspan></text></g><path fill="none" d="M28 45.01V162.5M371.99 45.01H28" color="#000"/><text stroke-linecap="round" stroke-linejoin="round" stroke-width="0" color="#000" font-family="KaTeX_Main" font-size="10" text-anchor="middle" transform="rotate(-90 57.63 46.13)"><tspan font-weight="bold">Duration </tspan><tspan> in milliseconds</tspan></text><text stroke-linecap="round" stroke-linejoin="round" stroke-width="0" color="#000" font-family="KaTeX_Main" font-size="10" text-anchor="middle" transform="translate(199.99 195.75)"><tspan>Operations / 10</tspan><tspan dy="-5" font-size="8">6</tspan></text><text stroke-linecap="round" stroke-linejoin="round" color="#000" font-family="KaTeX_Main" font-size="8" transform="translate(132.8 10.11)"><tspan>LBSTBottomUp</tspan></text><g fill="none" stroke="currentColor" stroke-linecap="round" stroke-linejoin="round" color="#000"><path stroke="#3B75EA" d="M97.3 7.51h29.9M28 152.82l.36.24.36-.37.37.24.36-.26.36-.04.36-.06.36.11.37-.2.36-.05.36-.07.36-.03.37.06.36-.32.36.22.36-.31.36.23.37-.18.36.08.36-.3.36.27.36-.35.37.27.36-.36.36.42.36-.65.36.56.37-.48.36.25.36-.32.36.26.36-.36.37.28.36-.36.36.45.36-.51.37.29.36-.38.36.25.36-.16.36-.04.37-.05.36-.05.36.12.36-.16.36-.07.37-.02.36.1.36-.34.36.21.36-.32.37.23.36-.31.36.41.36-.49.37.27.36-.42.36.32.36-.36.36.25.37-.32.36.42.36-.63.36.57.36-.48.37.28.36-.36.36.31.36-.39.36.3.37-.23.36.16.36-.37.36.28.37-.19.36-.04.36-.05h.36l.36.12.37-.32.36.22.36-.15.36.11.36-.3.37.23.36-.31.36.27.36-.33.36.44.37-.64.36.61.36-.52.36.32.36-.38.37.29.36-.33.36.27.36-.32.37.43.36-.5.36.25.36-.34.36.32.37-.39.36.3.36-.16.36-.03.36-.09.37.16.36-.18.36-.06.36-.01.36-.01.37.12.36-.32.36.25.36-.24.37.36.36-.45.36.26.36-.3.36.27.37-.37.36.33.36-.37.36.47.36-.67.37.62.36-.49.36.26.36-.31.36.26.37-.32.36.27.36-.16.36.12.36-.35.37.32.36-.39.36.33.36-.2.37.01.36-.03.36-.03.36.12.36-.16.37-.02.36-.03.36.15.36-.32.36.24.37-.3.36.41.36-.6.36.56.36-.45.37.26.36-.34.36.34.36-.35.37.28.36-.38.36.42.36-.64.36.57.37-.44.36.29.36-.32.36.3.36-.2h.37l.36-.04.36.17.36-.35.36.31.37-.2.36-.03.36-.05.36.01.36.16.37-.35.36.28.36-.17.36.13.37-.3.36.25.36-.3.36.26.36-.31.37.4.36-.58.36.55.36-.46.36.31.37-.37.36.31.36-.34.36.3.36-.32.37.42.36-.45.36.27.36-.32.37.27.36-.16.36.01.36-.04.36.03.37-.05.36.17.36-.18h.36l.36-.04.37-.01.36.15.36-.34.36.29.36-.29.37.42.36-.45.36.25.36-.27.37.25.36-.3.36.26.36-.28.36.42.37-.6.36.57.36-.49.36.32.36-.32.37.29.36-.33.36.3.36-.16.36.14.37-.32.36.28.36-.17h.36l.36-.03.37.02.36-.02h.36l.36.1.37-.14.36-.03.36.02.36.13.36-.34.37.24.36-.31.36.43.36-.57.36.57.37-.45.36.28.36-.29.36.26.36-.27.37.32.36-.37.36.48.36-.63.37.59.36-.45.36.29.36-.32.36.31.37-.17.36-.03.36-.01.36.17.36-.19.37.02.36-.07.36-.01.36-.04.36.03.37.14.36-.28.36.28.36-.18.36.17.37-.32.36.27.36-.3.36.29.37-.32.36.42.36-.58.36.54.36-.44.37.28.36-.31.36.32.36-.34.36.32.37-.34.36.45.36-.48.36.26.36-.3.37.29.36-.16h.36l.36-.03.37.02.36.12.36-.14.36-.07.36.05.37-.04h.36l.36.11.36-.28.36.27.37-.32.36.44.36-.49.36.28.36-.33.37.31.36-.31.36.28.36-.3.36.43.37-.6.36.58.36-.47.36.32.37-.32.36.3.36-.3.36.29.36-.19.37.13.36-.32.36.3.36-.16.36.01.37-.02.36.03.36.1.36-.29.36.26.37-.12.36-.03h.36l.36.14.37-.33.36.27.36-.33.36.46.36-.62.37.58.36-.44.36.27.36-.29.36.25.37-.29.36.26.36-.3.36.44.36-.47.37.34.36-.35.36.31.36-.31.37.27.36-.18.36-.01.36-.04.36.17.37-.17.36-.01.36-.03h.36l.36.11.37-.25.36.25.36-.27.36.26.36-.16.37.13.36-.3.36.28.36-.31.36.29.37-.32.36.43.36-.59.36.57.37-.43.36.26.36-.29.36.29.36-.31.37.31.36-.33.36.45.36-.49.36.3.37-.32.36.29.36-.17.36-.01.36-.01.37-.01.36.16.36-.16.36-.02.37.01.36.09.36-.29.36.28.36-.29.37.29.36-.28.36.39.36-.42.36.3.37-.31.36.31.36-.33.36.28.36-.33.37.45.36-.62.36.58.36-.45.36.27.37-.36.36.32.36-.3.36.31.37-.18.36.17.36-.31.36.3.36-.15.37-.03.36.01h.36l.36.13.36-.28.37.25.36-.13.36.12.36-.28.36.27.37-.28.36.25.36-.31.36.43.37-.59.36.59.36-.5.36.31.36-.31.37.27.36-.28.36.28.36-.29.36.42.37-.45.36.3.36-.32.36.3.36-.33.37.32.36-.17.36-.01.36-.01.37.15.36-.17.36-.01.36.01.36-.03.37.13.36-.27.36.24.36-.23.36.39.37-.44.36.28.36-.29.36.3.36-.31.37.29.36-.32.36.46.36-.62.36.6.37-.46.36.27.36-.32.36.32.37-.3.36.29.36-.17.36.16.36-.35.37.31.36-.34.36.31.36-.17h.73l.36-.01.36.15.36-.16.36-.02.37.01.36.13.36-.27.36.24.37-.26.36.41.36-.57.36.56.36-.42.37.28.36-.3.36.3.36-.32.36.31.37-.33.36.41.36-.59.36.57.36-.44.37.32.36-.32.36.27.36-.15.36.01.37-.05.36.19.36-.33.36.3.37-.18.36.01.36-.02.36.01.36.14.37-.31.36.28.36-.14.36.13.36-.27.37.25.36-.29.36.25.36-.27.36.41.37-.58.36.6.36-.48.36.29.37-.31.36.3.36-.32.36.3.36-.33.37.44.36-.43.36.28.36-.31.36.3.37-.19.36.04.36-.04.36.05.36-.06.37.18.36-.18.36.01h.36l.36-.04.37.16.36-.32.36.29.36-.28.37.42.36-.43.36.27.36-.27.36.28.37-.32.36.28.36-.3.36.44.36-.62.37.61.36-.48.36.32.36-.29.36.28.37-.3.36.28.36-.13.36.11.37-.3.36.28.36-.18.36.02.36-.05.37.02.36-.01.36-.01.36.14.36-.15.37-.01h.36l.36.17.36-.34.36.23.37-.24.36.43.36-.56.36.53.37-.42.36.27.36-.25.36.26.36-.29.37.31.36-.34.36.44.36-.6.36.59.37-.47.36.29.36-.3.36.29.36-.17.37.02.36-.02.36.14.36-.14.36-.01.37-.04.36.05.36-.03.36-.01.37.15.36-.3.36.28.36-.14.36.15.37-.31.36.27.36-.28.36.27.36-.28.37.41.36-.58.36.54.36-.43.36.3.37-.31.36.3.36-.32.36.32.37-.33.36.44.36-.46.36.3.36-.3.37.28.36-.16.36.02.36-.03.36.02.37.11.36-.14.36-.05.36.05.36-.04.37-.02.36.19.36-.31.36.27.36-.3.37.44.36-.44.36.29.36-.27.37.25.36-.27.36.27.36-.29.36.43.37-.61.36.57.36-.44.36.33.36-.31.37.3.36-.33.36.3.36-.17.36.14.37-.31.36.29.36-.16h.36l.37-.01h.36l.36.11.36-.26.36.25.37-.12h.36l.36-.01.36.14.36-.32.37.29.36-.3.36.46.36-.6.36.55.37-.43.36.27.36-.27.36.26.36-.28.37.27.36-.3.36.43.36-.45.37.32.36-.35.36.33.36-.32.36.32.37-.16.36-.02.36-.01.36.13.36-.13.37-.02.36-.02.36.02.36.12.36-.27.37.25.36-.25.36.25.36-.13.37.13.36-.3.36.28.36-.3.36.3.37-.31.36.41.36-.56.36.56.36-.44.37.25.36-.26.36.27.36-.29.36.31.37-.3.36.42.36-.45.36.31.37-.31.36.28.36-.16.36-.01.36-.03.37.02.36.12.36-.14.36-.02.36.03.37.1.36-.26.36.23.36-.24.36.25.37-.28.36.44.36-.45.36.29.36-.37.37.33.36-.3.36.24.36-.27.37.44.36-.59.36.55.36-.44.36.3.37-.3.36.31.36-.3.36.29.36-.19.37.16.36-.33.36.31.36-.15.36-.01h.37l.36-.01.36.11.36-.25.37.25.36-.12.36.12.36-.29.36.24.37-.24.36.29.36-.28.36.41.36-.6.37.56.36-.46.36.3.36-.3.36.29.37-.31.36.29.36-.32.36.43.36-.43.37.29.36-.32.36.32.36-.36.37.3.36-.14.36.01.36-.01.36.16.37-.17.36.02.36-.03.36.03.36.12.37-.28.36.22.36-.24.36.41.36-.41.37.26.36-.28.36.26.36-.28.37.29.36-.33.36.45.36-.56.36.55.37-.43.36.27.36-.31.36.31.36-.31.37.28.36-.12.36.14.36-.32.36.29.37-.31.36.27.36-.16.36.02h.36l.37-.02.36.17.36-.18.36-.01.37-.01.36.14.36-.3.36.25.36-.25.37.4.36-.57.36.55.36-.42.36.28.37-.29.36.31.36-.31.36.29.36-.32.37.46.36-.58.36.56.36-.45.37.3.36-.31.36.27.36-.19.36.04.37-.06.36.19.36-.3.36.26.36-.14.37-.03h.36l.36-.04.36.17.36-.3.37.28.36-.14.36.13.36-.27.37.25.36-.27.36.25.36-.29.36.41.37-.54.36.55.36-.45.36.29.36-.29.37.29.36-.31.36.28.36-.28.36.41.37-.43.36.29.36-.3.36.29.36-.16.37-.01.36-.05.36.06.36-.02.37.16.36-.16.36-.01h.36l.36.01.37.16.36-.31.36.25"/><use xlink:href="#65885__d" color="#3B75EA" transform="matrix(3.75 0 0 3.75 354.25 140.33)"/><use xlink:href="#65885__d" color="#3B75EA" transform="matrix(3.75 0 0 3.75 112.25 7.51)"/></g><text stroke-linecap="round" stroke-linejoin="round" color="#000" font-family="KaTeX_Main" font-size="8" transform="translate(132.8 25.11)"><tspan>LBSTRelaxed</tspan></text><g fill="none" stroke="currentColor" stroke-linecap="round" stroke-linejoin="round" color="#000"><path stroke="#FFAB00" stroke-dasharray="4.0,2.0,1.0,2.0" d="M97.3 22.51h29.9M28 153.14l.36-.21.36.07.37-2.61.36 2.57.36-.22.36.11.36-.6.37.09.36.2.36-.44.36-.05.37-1.17.36 1.83.36-.95.36.34.36-.17.37.32.36-1.12.36 1.08.36-3.39.36.1.37 2.99.36-.56.36-.76.36 1.01.36.1.37-.97.36.24.36-.77.36 1.49.36.01.37-.36.36.34.36-.72.36.43.37-3.29.36 3.06.36-1.99.36 1.01.36.23.37-.34.36.05.36.55.36.44.36-.42.37.31.36-2.28.36 1.36.36.42.36.37.37-.69.36-.25.36.38.36.28.37-3.23.36.09.36 2.87.36.19.36-1.62.37.21.36.94.36.28.36-.24.36-.36.37-.18.36-1.01.36 1.4.36-.04.36-.12.37.07.36-.08.36-.15.36-.99.37-.38.36 1.42.36-.35.36.28.36-1.54.37 1.43.36-.36.36-.8.36-.06.36.02.37.72.36-.66.36.39.36-.95.36 1.04.37.27.36-9.88.36 1.58.36 7.91.36.27.37-.12.36-.32.36.12.36-.74.37.79.36-2.29.36 1.78.36.49.36-.16.37-.11.36.21.36-1.57.36-1.92.36 3.31.37-2.2.36 2.04.36.14.36-.24.36.22.37-.41.36.37.36-.38.36-1.87.37.9.36-.97.36-1.75.36 3.85.36-2.23.37.04.36 1.82.36.34.36-3.22.36.12.37 2.74.36.34.36-2.47.36 1.97.36.03.37.29.36-.24.36-2.96.36-.1.36-1.93.37 4.83.36-.18.36.43.36-.47.37.4.36-.21.36-1.2.36-3.04.36 4.31.37-.3.36.11.36-3.12.36 3.31.36-.48.37-.2.36.32.36-1.88.36 1.5.36.38.37-.48.36.21.36-.06.36.5.37-6.9.36-.21.36 6.49.36.32.36-.03.37-.27.36-.04.36.18.36.07.36-.51.37-.13.36.46.36-.06.36-.07.36.23.37-.44.36.34.36-.39.36-.65.36-.54.37 1.46.36-2.7.36 2.42.36-.11.37.17.36-.14.36-.03.36-2.68.36 2.39.37.11.36.3.36-.43.36-1.26.36 1.12.37.51.36-2.65.36 2.64.36-3.52.36 3.49.37-.18.36-.2.36-.08.36.16.37.07.36-.52.36.57.36-.67.36.48.37-.26.36-2.96.36 2.62.36-2.29.36-8.65.37 10.24.36-3.22.36 4 .36.04.36.05.37.04.36-.03.36-.12.36-.15.37.28.36.46.36-1.07.36.82.36-.54.37.5.36-.62.36.57.36-13.63.36-1.12.37 14.41.36-3.38.36 3.14.36-.01.36-3 .37 3.15.36.1.36-7.51.36 6.83.36.57.37-4.17.36 4.05.36.14.36-3.76.37 3.94.36-.39.36-.6.36-.57.36 1.67.37-.45.36.17.36-.34.36.46.36-.28.37-.28.36.23.36-.14.36.04.36.38.37-.6.36.25.36-.09.36.22.37-2.68.36-.53.36 3 .36.08.36-.18.37.12.36-3.28.36 3.07.36.15.36-.52.37.38.36-.41.36.57.36-.58.36.69.37-.75.36.57.36-5.34.36 4.27.36-5.14.37 5.92.36-.06.36.11.36-.12.37-.02.36-.01.36-4.94.36 4.42.36.58.37-.61.36.69.36-5.57.36.5.36 4.37.37.62.36-7.17.36 1.3.36-.88.36 6.63.37-.14.36.01.36.1.36-.12.37.2.36-.72.36.72.36-.92.36.93.37-6.14.36 6.14.36-.74.36.63.36-.23.37-.91.36.79.36-1.02.36.81.36.12.37-5.93.36 5.99.36-.13.36-.16.36.07.37.31.36-.79.36-4.67.36 4.96.37-4.68.36 4.7.36.53.36-3.27.36 2.9.37-3.16.36 3.4.36-5.33.36 4.87.36.49.37-.63.36-4.43.36 4.09.36.85.36-.85.37-5.11.36 5.35.36.41.36-.16.37.22.36-1.63.36-2.16.36 3.5.36-1.06.37 1.02.36.18.36-.24.36.31.36-.37.37-.16.36.14.36.15.36-.79.36.6.37.01.36.09.36-.02.36-.21.37-14.02.36-.24.36 14.29.36.09.36-.15.37.06.36-.1.36.1.36.32.36-.82.37.68.36-.94.36.87.36-.52.36.52.37-.68.36.68.36-1.58.36 1.54.36-.34.37-1.15.36 1.04.36.04.36-.05.37-.02.36.09.36-.4.36.33.36.14.37-.81.36.9.36-.51.36.24.36-.31.37.28.36-2.66.36 2.42.36-2.86.36 3.05.37-.08.36-.17.36.29.36-.46.37.46.36-.81.36 1.01.36-.96.36.55.37-.3.36.34.36-.28.36.09.36-1.21.37 1.43.36-.31.36-.93.36.91.36.02.37-.18.36.29.36-.32.36-.16.36.25.37.05.36-.03.36-.56.36.6.37-.14.36.01.36-6.11.36-.13.36.05.37 6.08.36-7.11.36 7.32.36-.27.36.24.37-.42.36.58.36-.78.36.64.36-.28.37-.06.36-.07.36.43.36-.41.37-9.52.36 8.59.36 1.31.36-7.44.36 7.44.37-1.46.36 1.25.36-.19.36.28.36-.32.37-.18.36.4.36-.13.36.12.36-.71.37.86.36-.34.36.01.36.06.37-2.43.36 2.26.36-6.57.36 3.29.36-3.71.37 7.02.36.1.36-.12.36-6.68.36 6.21.37.67.36-.29.36.32.36-8.35.36 8.43.37-.58.36.4.36-1.39.36-5.38.36 6.43.37.31.36-.02.36-1.43.36 1.44.37.03.36-.07.36-.65.36.57.36-14.7.37 14.41.36.09.36-.17.36.35.36.09.37-.04.36-27.38.36-2 .36 29.38.36-.22.37.18.36-.37.36.65.36-.37.37-.19.36.19.36-.61.36.46.36.3.37-.42.36.51.36-.56.36.68.36-1.7.37 1.5.36-2.33.36 2.31.36-.14.36-.21.37-.47.36.32.36.4.36-.66.36.49.37-.58.36.62.36-.26.36.23.37-.21.36-.07.36-.05.36-10.54.36 10.57.37-3.08.36 3.17.36-.05.36.05.36.2.37-.5.36.21.36.04.36.3.36-.92.37.9.36-.48.36.37.36-.29.37.1.36-.99.36 1.1.36-.35.36-.88.37 1.18.36-.22.36.07.36.02.36-.1.37-.41.36.55.36-.12.36-.48.36.37.37.19.36-.4.36.49.36-.61.36-5.27.37 5.47.36-6.62.36-1.71.36 8.37.37-.06.36.24.36-.47.36.03.36-8.61.37 9.24.36-9.25.36 8.7.36-.06.36.38.37-.29.36.09.36-.94.36 1.13.36-.21.37-.51.36-.12.36-9.05.36 9.56.37.09.36-.03.36-.79.36 1.07.36-.44.37.34.36-.8.36.83.36-.77.36.74.37-.58.36-2.28.36 1.92.36.53.36-3.12.37 3.29.36-.21.36.15.36-.33.37-.19.36.42.36.24.36-.29.36.42.37-1.13.36.97.36-.56.36.57.36-1.36.37 1.2.36-.35.36.2.36-.1.36-.92.37 1.02.36-.09.36.04.36-.79.36.91.37-.26.36.19.36-.36.36.03.37.07.36.19.36-.17.36-13.05.36 13 .37-12.38.36-1.28.36 13.79.36-11.61.36 11.59.37-.34.36-1.38.36 1.64.36.17.36-.04.37-.33.36-.36.36.62.36-.1.37.27.36-1.37.36 1.21.36-.16.36.04.37-11.56.36 11.49.36.3.36-.26.36.21.37-.86.36.86.36-.42.36.44.36-1.01.37 1.14.36-.59.36.46.36-.37.36-2.54.37 2.53.36.13.36-.14.36-3.2.37 3.15.36.23.36-12.14.36 11.43.36.51.37-11.71.36 11.53.36-10.05.36 9.55.36.63.37.04.36.18.36-.99.36.58.36.09.37.24.36-.01.36-1.35.36 1.57.37-.49.36.41.36-.72.36-12.21.36 12.5.37.34.36-.42.36-.05.36.2.36.5.37-6.18.36 6.04.36-.63.36.29.36-.11.37-7.07.36 7.04.36-.43.36.49.36-.18.37-12.76.36 13.03.36-.23.36.46.37-.97.36.5.36-.17.36.34.36-.8.37.66.36.17.36-13.54.36 13.42.36-1.36.37 1.53.36-.11.36.23.36-.77.36.48.37-.11.36.25.36-.27.36-13.1.37 12.49.36.91.36-3.79.36-8.67.36 11.89.37.6.36-.25.36-.02.36-3.18.36 3.44.37-.56.36.02.36.42.36-.22.36.04.37.3.36-1.09.36.29.36.65.37-.02.36-.95.36.83.36-.09.36-1.17.37 1.24.36-.32.36-.88.36 1.18.36.22.37-.78.36.92.36-.8.36.64.36-.42.37.36.36-.35.36-.11.36-28.13.36 28.6.37-.2.36-29.55.36 29.22.36.2.37-.15.36.33.36-.35.36-.25.36.56.37-.14.36.08.36-.61.36.7.36-.16.37-.05.36-.03.36-.93.36.9.36.17.37-.22.36-1.08.36 1.11.36.04.37-.13.36.34.36-.83.36.81.36-.42.37.53.36-1.18.36 1.06.36-.46.36.35.37-2.73.36 2.52.36-.21.36.31.36-.11.37-3.25.36 3.15.36.12.36.06.36-.63.37.58.36-.12.36-.03.36-.07.37-.2.36.36.36-.17.36.22.36-1.04.37.59.36.46.36-.4.36.36.36-1.46.37 1.46.36-.34.36.47.36-.86.36.53.37-.13.36.22.36-.41.36.14.37-.01.36.31.36-5.79.36 5.84.36-.64.37.65.36-.29.36-7.25.36 7.12.36.21.37-.16.36-.17.36.06.36.18.36.02.37-.2.36-.29.36.42.36.11.36-.15.37-.9.36.6.36.43.36-.13.37-.11.36-1.24.36 1.38.36-.23.36-.21.37.26h.36l.36-.29.36.54.36-.65.37.54.36-.88.36 1.03.36-2.9.36 2.78.37-.42.36.28.36.04.36-.35.37-2.97.36 3.11.36.27.36-.7.36.54.37-.34.36.32.36-.17.36.19.36-.19.37-.38.36-13.01.36 12.62.36.7.36.01.37.11.36-.02.36-.12.36.28.37-1.53.36 1.35.36-.08.36.26.36-.58.37.6.36-.55.36.42.36-.29.36-.21.37-12.72.36 13.28.36-.28.36.3.36-.33.37-.01.36-14.92.36 14.89.36.1.36-.52.37.58.36-.41.36.33.36-14.89.37 15.05.36-.87.36.92.36-.32.36-.73.37.73h.72"/><use xlink:href="#65885__e" color="#FFAB00" transform="matrix(3.75 0 0 3.75 67.83 148.42)"/><use xlink:href="#65885__e" color="#FFAB00" transform="matrix(3.75 0 0 3.75 112.25 22.51)"/></g><text stroke-linecap="round" stroke-linejoin="round" color="#000" font-family="KaTeX_Main" font-size="8" transform="translate(241.1 10.11)"><tspan>WBSTBottomUp</tspan></text><g fill="none" stroke="currentColor" stroke-linecap="round" stroke-linejoin="round" color="#000"><path stroke="#000" d="M205.6 7.51h29.9M28 152.12l.36.26.36-.26.37.06.36-.04.36-.04.36.04.36-.2.37-.06.36-.12.36.26.36-.45.37.21.36-.31.36.21.36-.36.36.42.37-.41.36.2.36-.37.36.3.36-.41.37.23.36-.26.36.24.36-.41.36.42.37-.54.36.27.36-.34.36.39.36-.24.37-.06.36-.03.36-.06.36-.11.37.26.36-.25.36-.05.36-.06.36-.04.37.08.36-.35.36.38.36-.24.36.07.37-.29.36.19.36-.32.36.29.36-.33.37.23.36-.36.36.43.36-.51.37.28.36-.18.36.25.36-.41.36.31.37-.41.36.23.36-.14.36.1.36-.36.37.24.36-.19.36-.07.36-.13.36.2.37-.14.36.14.36-.2.36-.05.37-.06h.36l.36.16.36-.39.36.27.37-.3.36.38.36-.53.36.45.36-.36.37.21.36-.29.36.22.36-.34.36.29.37-.37.36.39.36-.6.36.36.36-.38.37.26.36-.21.36.25.36-.2.37-.03.36-.07.36.12.36-.19.36.05.37-.11.36-.06.36.04.36-.08.36.06h.37l.36.03.36-.07.36.13.36-.35.37.27.36-.35.36.37.36-.38.37.35.36-.41.36.24.36-.32.36.33.37-.32.36.32.36-.42.36.34.36-.4.37.43.36-.43.36.22.36-.37.36.31.37-.21.36-.03.36.03.36.06.36.07.37-.18.36-.06.36.01.36-.11.37.12.36.07.36-.35.36.3.36-.21.37.15.36-.34.36.36.36-.34.36.23.37-.3.36.21.36-.33.36.51.36-.47.37.26.36-.35.36.28.36-.36.37.34.36-.17.36.27.36-.27.36.21.37-.37.36.23.36-.12.36-.03.36-.05.37-.04.36.09.36-.17.36-.06.36.12.37-.08.36-.05.36.18.36-.36.36.27.37-.32.36.45.36-.47.36.24.37-.31.36.24.36-.33.36.44.36-.36.37.25.36-.29.36.39.36-.48.36.3.37-.35.36.28.36-.39.36.34.36-.22.37-.04.36.12.36.07.36-.19.37-.02.36-.06.36.02.36.09.36-.23.37.2.36-.16.36-.01.36-.03.36.07.37-.13.36.3.36-.36.36.31.36-.35.37.44.36-.46.36.35.36-.35.37.23.36-.25.36.23.36-.34.36.39.37-.32.36.42.36-.53.36.29.36-.33.37.25.36-.07.36-.06.36-.09.36.19.37-.2.36-.05.36.08.36.03.36.12.37-.34.36.27.36-.32.36.22.37-.04.36.06.36-.33.36.33.36-.34.37.29.36-.28.36.3.36-.29.36.39.37-.45.36.25.36-.32.36.4.36-.4.37.28.36-.31.36.27.36-.21.37.23.36-.2.36.26.36-.2.36.03.37-.04.36-.07.36.21.36-.17.36-.08.37.02.36.07.36-.29.36.26.36-.19.37.23.36-.36.36.5.36-.52.36.27.37-.26.36.29.36-.35.36.28.37-.32.36.26.36-.32.36.57.36-.48.37.25.36-.27.36.27.36-.38.36.34.37-.21.36.02.36-.07.36.15.36-.2.37-.04.36.11.36-.07.36.11.37-.28.36.24.36-.16.36.13.36-.28.37.24.36-.33.36.29.36-.32.36.25.37-.09.36.4.36-.5.36.32.36-.36.37.23.36-.29.36.32.36-.33.36.27.37-.1.36.1.36-.36.36.43.37-.34.36.26.36-.17.36-.03.36-.04.37.14.36-.1.36-.06.36-.06.36.04.37.08.36-.35.36.4.36-.29.36.4.37-.45.36.25.36-.32.36.28.37-.26.36.26.36-.37.36.37.36-.39.37.43.36-.38.36.29.36-.3.36.24.37-.3.36.26.36-.19.36.08.36-.08.37.15.36-.34.36.27.36-.19.37.15.36.07.36-.02.36.11.36-.16.37-.03.36-.07.36.26.36-.36.36.21.37-.25.36.23.36-.3.36.41.36-.34.37.25.36-.33.36.33.36-.37.36.27.37-.25.36.27.36-.34.36.43.37-.49.36.3.36-.29.36.4.36-.18.37-.05.36-.04.36.02.36-.08.36.23.37-.17.36-.03.36-.05.36-.03.36.14.37-.31.36.35.36-.18.36.1.37-.29.36.22.36-.28.36.3.36-.33.37.26.36-.31.36.44.36-.48.36.3.37-.14.36.28.36-.4.36.36.36-.38.37.3.36-.15.36.15.36-.31.36.27.37-.15.36-.01.36-.09.36.18.37-.08.36.12.36-.14.36-.06.36-.02h.37l.36.14.36-.34.36.24.36-.26.37.38.36-.5.36.46.36-.32.36.25.37-.29.36.25.36-.34.36.26.37-.25.36.43.36-.51.36.34.36-.35.37.27.36-.21.36.26.36-.15.36-.02.37-.02.36.14.36-.18.36.08.36-.09.37-.03.36.02.36-.06.36.11.37-.01.36.01.36-.01.36.14.36-.34.37.26.36-.3.36.34.36-.37.36.36.37-.42.36.26.36-.31.36.37.36-.32.37.3.36-.33.36.33.36-.37.36.44.37-.36.36.24.36-.35.36.32.37-.17.36-.01.36.04.36.07.36.09.37-.17.36-.02.36.02.36-.08.36.09.37.11.36-.34.36.28.36-.2.36.16.37-.32.36.35.36-.3.36.21.37-.25.36.23.36-.37.36.51.36-.47.37.28.36-.32.36.31.36-.35.36.34.37-.18.36.27.36-.23.36.21.36-.38.37.28.36-.1.36-.02.36.01.36-.03.37.14.36-.17.36-.04.36.11.37-.06.36-.05.36.18.36-.34.36.25.37-.29.36.44.36-.48.36.25.36-.28.37.23.36-.32.36.48.36-.37.36.27.37-.3.36.43.36-.51.36.33.37-.32.36.3.36-.35.36.32.36-.18.37-.05.36.14.36.1.36-.19h.36l.37-.06.36.04.36.1.36-.24.36.22.37-.14.36.01.36-.05.36.1.36-.08.37.32.36-.34.36.28.36-.33.37.41.36-.45.36.34.36-.34.36.24.37-.23.36.21.36-.34.36.36.36-.29.37.44.36-.52.36.33.36-.31.36.26.37-.06.36-.05.36-.05.36.18.37-.2.36-.04.36.07.36.07.36.1.37-.3.36.26.36-.31.36.23.36-.07.37.13.36-.36.36.32.36-.35.36.27.37-.27.36.32.36-.3.36.4.37-.43.36.24.36-.34.36.39.36-.38.37.29.36-.35.36.3.36-.19.36.24.37-.22.36.28.36-.17.36.01.36-.06.37-.02.36.19.36-.15.36-.04.36-.01.37.1.36-.29.36.29.36-.2.37.25.36-.35.36.46.36-.49.36.25.37-.27.36.28.36-.32.36.29.36-.34.37.27.36-.3.36.55.36-.47.36.24.37-.27.36.25.36-.33.36.36.37-.18.36.03.36-.1.36.16.36-.14.37-.06.36.11.36-.01.36.08.36-.24.37.22.36-.11.36.1.36-.26.36.26.37-.3.36.3.36-.35.36.23.36-.05.37.36.36-.45.36.31.36-.33.37.27.36-.28.36.29.36-.34.36.26.37-.11.36.08.36-.36.36.44.36-.34.37.29.36-.17.36-.02.36-.01.36.13.37-.08.36-.05.36-.04.36.04.37.1.36-.32.36.38.36-.26.36.41.37-.44.36.25.36-.28.36.27.36-.29.37.28.36-.39.36.35.36-.35.36.39.37-.38.36.27.36-.28.36.25.36-.31.37.26.36-.21.36.14.36-.11.37.14.36-.32.36.28.36-.17.36.11.37.07.36-.01.36.11.36-.15.36-.03.37-.06.36.25.36-.33.36.23.36-.24.37.24.36-.29.36.44.36-.37.37.24.36-.32.36.31.36-.41.36.25.37-.22.36.27.36-.34.36.46.36-.48.37.26.36-.26.36.41.36-.22h.36l.37.01.36-.05.36-.1.36.28.37-.18h.36l.36-.04.36-.02.36.12.37-.29.36.39.36-.2.36.11.36-.25.37.2.36-.32.36.34.36-.3.36.26.37-.3.36.44.36-.51.36.31.36-.02.37.26.36-.33.36.29.36-.31.37.23.36-.11.36.12.36-.31.36.26.37-.15.36-.01.36-.07.36.17.36-.06.37.11.36-.13.36-.02.36-.02h.36l.37.18.36-.32.36.21.36-.24.37.39.36-.49.36.46.36-.32.36.28.37-.3.36.25.36-.28.36.25.36-.27.37.41.36-.49.36.32.36-.35.36.24.37-.18.36.28.36-.2.36.02.36-.07.37.16.36-.2.36.09.36-.09.37-.06.36.06.36-.06.36.11h.36l.37.02.36-.03.36.14.36-.29.36.24.37-.3.36.34.36-.32.36.39.36-.41.37.25.36-.34.36.34.36-.27.37.27.36-.36.36.31.36-.32.36.38.37-.33.36.21.36-.34.36.34.36-.18.37-.05.36.07.36.07.36.08.36-.16.37-.03.36-.04.36-.08.36.13.36.1.37-.31.36.28.36-.2.36.16.37-.3.36.36.36-.31.36.24.36-.24.37.24.36-.34.36.48.36-.46.36.28.37-.31.36.27.36-.32.36.32.36-.15.37.26.36-.22.36.21.36-.39.37.27.36-.1.36-.01.36-.04.36-.01.37.12.36-.17.36-.04.36.11.36-.04.37-.07.36.21.36-.33.36.27.36-.29.37.46.36-.46.36.26.36-.28.37.25.36-.31.36.45.36-.33.36.27.37-.29.36.4.36-.46.36.32.36-.3.37.27.36-.33.36.3.36-.2.36-.07.37.16.36.1.36-.19.36.01.36-.07.37.02.36.09.36-.22.36.22.37-.15.36.02.36-.07.36.12.36-.08.37.29.36-.32.36.29"/><use xlink:href="#65885__a" transform="matrix(3.75 0 0 3.75 125.4 145.1)"/><use xlink:href="#65885__a" transform="matrix(3.75 0 0 3.75 220.55 7.51)"/></g><text stroke-linecap="round" stroke-linejoin="round" color="#000" font-family="KaTeX_Main" font-size="8" transform="translate(241.1 25.11)"><tspan>WBSTRelaxed</tspan></text><g fill="none" stroke="currentColor" stroke-linecap="round" stroke-linejoin="round" color="#000"><path stroke="violet" stroke-dasharray="4.5,2.0,0.5,2.0,0.5,2.0" d="M205.6 22.51h29.9M28 152.79l.36-.26.36-.27.37.44.36-.18.36-.77.36.48.36.24.37-1.26.36.73.36.08.36-.43.37-3.91.36 4.46.36-.31.36.15.36-1.22.37.6.36-.21.36.38.36-.62.36.31.37-1.66.36 1.87.36-.35.36-.62.36.87.37-.08.36-1.24.36 1.03.36.23.36-.14.37-.22.36-1.25.36.26.36 1.03.37-.48.36-1.84.36 1.65.36.41.36.25.37-.52.36.35.36-3.75.36 3.5.36-.2.37-.67.36.42.36.49.36-.5.36.43.37-1.1.36.81.36-.72.36.74.37-1 .36.91.36-.27.36-2.15.36.26.37 1.87.36-.23.36.01.36-.16.36-1.03.37.57.36-.19.36-.84.36-.34.36 1.64.37.09.36-.28.36-.05.36-.27.37-11.3.36 11.18.36.18.36.62.36-.74.37-.87.36.77.36.39.36-3.15.36 3.1.37-.33.36.49.36-.81.36.74.36-1.35.37-1.17.36.24.36 1.98.36-.41.36.19.37-.27h.36l.36-.16.36-.31.37-.35.36.88.36-.02.36-.24.36-.02.37-2.71.36 2.85.36-5.9.36 5.48.36.02.37-.37.36.14.36.46.36-.38.36.22.37-.71.36.95.36-.58.36.35.37-.6.36.55.36-.37.36-2.46.36-1.65.37 4.32.36-.6.36-.03.36-.42.36-.08.37.95.36-.59.36.1.36.45.36.02.37-.23.36-.12.36.07.36-.08.36-10.12.37 9.74.36.23.36-.42.36.15.37.62.36-.66.36-3.06.36 2.73.36.82.37-.39.36.28.36-.52.36.43.36-.42.37.54.36-1.63.36 1.43.36-3.83.36 3.53.37-.36.36.11.36-.73.36 1.2.37-.86.36-2.3.36 2.74.36-.17.36.24.37-.1.36.23.36-12.63.36 12.33.36-.32.37.5.36-.45.36.1.36.05.36.21.37-3.86.36-.05.36 3.58.36.53.36-.59.37.34.36-.38.36-4.03.36 1.96.37 2.22.36-8.67.36 5.02.36 2.18.36 1.33.37-.07.36.43.36-.67.36.61.36-.49.37.13.36.16.36.12.36-.24.36-21.03.37 19.83.36 1.11.36.1.36-1.79.37 1.9.36-.34.36.44.36-.9.36.77.37-.52.36.5.36-.65.36.68.36-.87.37.44.36-1.23.36.83.36-.16.36.42.37-.18.36.36.36-.42.36.39.37-.55.36.45.36-.32.36.15.36-.09.37-1.36.36 1.36.36-3.13.36 2.85.36.06.37.09.36-5.34.36 5.37.36-.37.36.59.37-.76.36.62.36-.47.36-4.01.36 3.25.37 1.04.36-.87.36.96.36-2.94.37 2.74.36-.73.36.83.36-9.33.36 9.32.37-.5.36-7.68.36 7.12.36.94.36-.22.37.11.36-.13.36.07h.36l.36-6.56.37 5.56.36 1.18.36-1.21.36.76.37.15.36-.11.36-.37.36-1.3.36 1.8.37-.09.36.17.36-.88.36.55.36-.13.37.33.36-1.92.36 1.95.36-6.49.36 6.35.37-.68.36.51.36-.15.36-.22.36.09.37.45.36-5.95.36 5.4.36.11.37.16.36-.16.36-2.8.36 2.82.36.02.37-.46.36.18.36-.01.36.4.36-.84.37-1.98.36 1.11.36.17.36 1.43.36-.47.37-4.05.36 1.66.36 3 .36-2.85.37 2.68.36-.52.36.42.36-.77.36.68.37-.41.36-5.57.36 5.57.36.37.36-.56.37.38.36-.13.36.11.36-.26.36-13.63.37 13.31.36-.6.36 1.07.36-1.26.36 1.38.37-.07.36-.04.36-2.04.36 2.02.37-.29.36.47.36-.67.36.23.36-3.81.37 4.11.36-1.73.36 1.7.36-.49.36.52.37-.66.36.68.36-.61.36.02.36.04.37-.16.36.12.36.24.36-.32.37.43.36-.63.36-2.5.36 2.68.36.17.37-.55.36.55.36-.09.36-.32.36-.31.37.17.36-.43.36.51.36.23.36-.06.37-1.06.36.95.36-1.21.36-.51.37 1.95.36-.17.36.03.36-.45.36-2.06.37-4.4.36 6.21.36.37.36.22.36-.11.37.04.36-.52.36.54.36-.23.36-6.24.37-2.14.36 8.44.36-.04.36-.47.36.4.37.18.36-1.07.36.79.36.03.37-8.14.36 8.26.36-9.18.36 8.81.36.33.37.03.36-1.48.36 1.46.36.13.36.11.37-.87.36.6.36-.08.36-.05.36-.15.37.36.36-.15.36.01.36-.1.37-.17.36.19.36-3.54.36 1.03.36 2.6.37-2.52.36 2.4.36-.13.36-.07.36-.03.37-5.21.36 5.06.36.42.36-3.03.36 2.9.37.03.36-.36.36.03.36-.72.36 1.01.37-.25.36.32.36-.41.36.15.37.05.36-.34.36.26.36-.69.36.54.37-.32.36.23.36.47.36-.44.36-26.5.37 26.37.36-2.35.36 2.21.36.34.36-.19.37-2.15.36 1.95.36-.14.36.1.37.46.36-3.21.36 2.92.36.19.36-.12.37.2.36-1.41.36 1.37.36-.29.36.04.37.1.36.16.36-.43.36-.01.36.27.37.1.36-10.57.36 10.15.36.2.37.16.36-.62.36-2.69.36 3.19.36-.54.37-8.48.36 8.77.36-1.2.36-8.3.36 8.12.37.81.36.66.36.29.36-.81.36.82.37-.45.36.46.36-.51.36-.54.36 1 .37-.27.36-.1.36.3.36-8.38.37 8.26.36-1 .36.98.36-.07.36-.05.37-.09.36-.03.36.28.36-4.24.36-2.19.37 6.18.36-.13.36.07.36.13.36-.69.37.51.36-.25.36-.25.36-.14.37.99.36-.68.36.41.36-.27.36.4.37-1.13.36.14.36.78.36.09.36-.35.37.21.36.06.36-.19.36-.42.36.49.37.05.36-.3.36.14.36-1.26.36 1.19.37-.06.36-3.98.36 3.72.36.39.37-.76.36.33.36-2.49.36 2.9.36-.53.37.18.36-1.12.36 1.22.36-.28.36.15.37-.02.36.5.36-.53.36-.83.36.44.37.7.36-.43.36.43.36-.48.37.27.36-.33.36.33.36-.29.36.25.37-.12.36-.24.36.4.36-.24.36-14.91.37 14.98.36-11.5.36 11.3.36.08.36-.17.37-1.12.36 1.4.36-.34.36-10.14.36 9.02.37 1.37.36.24.36-.33.36.26.37-.22.36-.7.36-.82.36 1.78.36-2.56.37 2.61.36-.43.36.23.36-.62.36.77.37-.3.36.02.36-.77.36.78.36.26.37-.87.36-3 .36 3.67.36.04.37-.36.36.25.36-1.31.36 1.4.36-.16.37-.39.36.37.36-.48.36.43.36-.03.37-.25.36.44.36-1.84.36 2.05.36-.73.37.71.36-.71.36.25.36-13.34.37 13.39.36-.38.36.45.36-.26.36.36.37-.7.36.82.36-.37.36-.04.36-6.57.37 6.86.36-.02.36-.45.36.37h.36l.37-.73.36.57.36-.24.36.22.36-.48.37.17.36.37.36-.77.36.32.37-.91.36 1.4.36-.4.36-1.13.36.82.37.73.36-1.04.36-1.53.36 1.61.36.86.37-2.83.36 2.86.36-.74.36.53.36-13.81.37 13.83.36-5.88.36 3.37.36 2.42.37.16.36-.41.36-2.39.36 2.7.36-.14.37-.44.36.27.36.58.36-.56.36-.22.37.17.36.23.36-1.23.36 1.41.36-.82.37.78.36-.61.36.39.36-.27.36.1.37-.46.36.38.36-.68.36.87.37-.24.36.26.36-.46.36.49.36-26.15.37 25.53.36.35h.36l.36-.31.36.34.37-1.17.36 1.09.36-3.12.36 3.06.36.13.37-.25h.36l.36-2.7.36 2.98.37-1.42.36 1.49.36-.36.36.31.36-.43.37.39.36-3.86.36 3.79.36-.67.36.39.37-.39.36.8.36-.73.36.66.36-1.08.37.87.36-3.45.36 2.95.36.21.36.26.37-.25.36.27.36-.78.36.69.37-.52.36.47.36-.21.36.1.36.05.37.06.36-.04.36-1.08.36.94.36-.19.37.16.36-.24.36.56.36-.65.36.56.37-.69.36.24.36-.28.36.7.37-.58.36.69.36-.54.36.46.36-7.23.37 6.88.36-.44.36.66.36-.8.36.75.37-.19.36-.29.36.07.36.19.36-.06.37-.25.36-.25.36.6.36.18.37-1.32.36 1.32.36-1 .36.99.36-1.94.37 1.94.36-.37.36-.09.36-1.66.36 1.82.37-.23.36-.26.36.08.36.7.36-.49.37-.86.36-3.34.36 4.52.36-.36.36-2.61.37 2.42.36-.81.36.95.36.3.37-.88.36.75.36-.04.36-.32.36.3.37-.21.36.08.36-5.49.36 5.4.36-.01.37.24.36-.89.36.63.36-15.07.36 15.33.37-1.17.36 1.4.36-.57.36.27.37-.38.36.62.36-.82.36.69.36-13.94.37 13.88.36-.44.36.7.36-.71.36.57.37-.62.36.46.36-.79.36.67.36-.31.37.3.36.15.36-.42.36-1.07.36.17.37 1.24.36-.37.36.5.36-1.23.37-.19.36 1.21.36.07.36-1.34.36 1.37.37-.45.36.41.36-.67.36.61.36-1.77.37 1.93.36-4.23.36 3.52.36.22.36.38.37-.71.36.73.36-1.09.36 1.15.37-.95.36.15.36.29.36.11.36.03.37-.01.36.04.36-1.95.36 1.86.36-19.43.37 19.41.36-.02.36.02.36-.03.36.18.37-.97.36.61.36.06.36.49.36-19.58.37 19.39.36-.23.36.24.36-27.68.37 27.21.36.03.36.47.36-.29.36.51.37-.34.36.08.36-5.82.36 5.86.36-.27.37.23.36.08.36-5 .36 4.6.36-.5.37.84.36-.04.36-.82.36.5.37.53.36-5.64.36.26.36 4.66.36-.13.37.36.36.33.36-.42.36-4.6.36 4.7.37.43.36-3.2.36 3.35.36-1.7.36.77.37-.1.36.44.36-.2.36.34.37-.73.36.84.36-.42h.36l.36.09.37.01.36-.06.36-1.62.36 1.56.36.09.37-.01.36.06.36.01.36-.34.36.4.37-.46.36-.99.36 1.06.36.47.36-.44.37.23.36-.3.36.16.36-73.53.37 73.88.36-.43.36.46.36-.62.36.62.37-.65.36-.29.36-.11"/><use xlink:href="#65885__f" color="violet" transform="matrix(3.75 0 0 3.75 182.98 141.97)"/><use xlink:href="#65885__f" color="violet" transform="matrix(3.75 0 0 3.75 220.55 22.51)"/></g><path fill="none" d="M28 45.01V162.5M371.99 45.01H28" color="#000"/></svg>