<svg xmlns="http://www.w3.org/2000/svg" xmlns:xlink="http://www.w3.org/1999/xlink" viewBox="0 0 400 200"><path fill="none" d="M0 0h400v200H0z"/><defs><use xlink:href="#f8921__a" id="f8921__f" stroke="currentColor" transform="rotate(180)"/><use xlink:href="#f8921__b" id="f8921__c" stroke="currentColor" transform="rotate(45)"/><use xlink:href="#f8921__c" id="f8921__e" fill="currentColor" stroke="none"/><path id="f8921__b" stroke="currentColor" stroke-width=".267" d="M-1-1h2v2h-2z"/><path id="f8921__a" stroke="currentColor" stroke-width=".267" d="m0-1.33-1.33 2h2.66z"/><circle id="f8921__d" cx="0" cy="0" r="1" stroke="currentColor" stroke-width=".267"/></defs><path fill="none" stroke="#CCC" stroke-linecap="round" stroke-linejoin="round" stroke-width=".1" d="M46.1 162.5V45.01" class="f8921__gridline" color="#000"/><g fill="none" stroke-linecap="round" stroke-linejoin="round" stroke-width="0" color="#000"><path d="M46.1 162.5V155m0-109.99v7.5"/><text fill="#000" font-family="KaTeX_Main" font-size="8" text-anchor="middle" transform="translate(46.1 172.6)"><tspan> 1</tspan></text></g><path fill="none" stroke="#CCC" stroke-linecap="round" stroke-linejoin="round" stroke-width=".1" d="M82.31 162.5V45.01" class="f8921__gridline" color="#000"/><g fill="none" stroke-linecap="round" stroke-linejoin="round" stroke-width="0" color="#000"><path d="M82.31 162.5V155m0-109.99v7.5"/><text fill="#000" font-family="KaTeX_Main" font-size="8" text-anchor="middle" transform="translate(82.31 172.6)"><tspan> 2</tspan></text></g><path fill="none" stroke="#CCC" stroke-linecap="round" stroke-linejoin="round" stroke-width=".1" d="M118.52 162.5V45.01" class="f8921__gridline" color="#000"/><g fill="none" stroke-linecap="round" stroke-linejoin="round" stroke-width="0" color="#000"><path d="M118.52 162.5V155m0-109.99v7.5"/><text fill="#000" font-family="KaTeX_Main" font-size="8" text-anchor="middle" transform="translate(118.52 172.6)"><tspan> 3</tspan></text></g><path fill="none" stroke="#CCC" stroke-linecap="round" stroke-linejoin="round" stroke-width=".1" d="M154.73 162.5V45.01" class="f8921__gridline" color="#000"/><g fill="none" stroke-linecap="round" stroke-linejoin="round" stroke-width="0" color="#000"><path d="M154.73 162.5V155m0-109.99v7.5"/><text fill="#000" font-family="KaTeX_Main" font-size="8" text-anchor="middle" transform="translate(154.73 172.6)"><tspan> 4</tspan></text></g><path fill="none" stroke="#CCC" stroke-linecap="round" stroke-linejoin="round" stroke-width=".1" d="M190.94 162.5V45.01" class="f8921__gridline" color="#000"/><g fill="none" stroke-linecap="round" stroke-linejoin="round" stroke-width="0" color="#000"><path d="M190.94 162.5V155m0-109.99v7.5"/><text fill="#000" font-family="KaTeX_Main" font-size="8" text-anchor="middle" transform="translate(190.94 172.6)"><tspan> 5</tspan></text></g><path fill="none" stroke="#CCC" stroke-linecap="round" stroke-linejoin="round" stroke-width=".1" d="M227.15 162.5V45.01" class="f8921__gridline" color="#000"/><g fill="none" stroke-linecap="round" stroke-linejoin="round" stroke-width="0" color="#000"><path d="M227.15 162.5V155m0-109.99v7.5"/><text fill="#000" font-family="KaTeX_Main" font-size="8" text-anchor="middle" transform="translate(227.15 172.6)"><tspan> 6</tspan></text></g><path fill="none" stroke="#CCC" stroke-linecap="round" stroke-linejoin="round" stroke-width=".1" d="M263.36 162.5V45.01" class="f8921__gridline" color="#000"/><g fill="none" stroke-linecap="round" stroke-linejoin="round" stroke-width="0" color="#000"><path d="M263.36 162.5V155m0-109.99v7.5"/><text fill="#000" font-family="KaTeX_Main" font-size="8" text-anchor="middle" transform="translate(263.36 172.6)"><tspan> 7</tspan></text></g><path fill="none" stroke="#CCC" stroke-linecap="round" stroke-linejoin="round" stroke-width=".1" d="M299.57 162.5V45.01" class="f8921__gridline" color="#000"/><g fill="none" stroke-linecap="round" stroke-linejoin="round" stroke-width="0" color="#000"><path d="M299.57 162.5V155m0-109.99v7.5"/><text fill="#000" font-family="KaTeX_Main" font-size="8" text-anchor="middle" transform="translate(299.57 172.6)"><tspan> 8</tspan></text></g><path fill="none" stroke="#CCC" stroke-linecap="round" stroke-linejoin="round" stroke-width=".1" d="M335.78 162.5V45.01" class="f8921__gridline" color="#000"/><g fill="none" stroke-linecap="round" stroke-linejoin="round" stroke-width="0" color="#000"><path d="M335.78 162.5V155m0-109.99v7.5"/><text fill="#000" font-family="KaTeX_Main" font-size="8" text-anchor="middle" transform="translate(335.78 172.6)"><tspan> 9</tspan></text></g><path fill="none" stroke="#CCC" stroke-linecap="round" stroke-linejoin="round" stroke-width=".1" d="M371.99 162.5V45.01" class="f8921__gridline" color="#000"/><g fill="none" stroke-linecap="round" stroke-linejoin="round" stroke-width="0" color="#000"><path d="M371.99 162.5V155m0-109.99v7.5"/><text fill="#000" font-family="KaTeX_Main" font-size="8" text-anchor="middle" transform="translate(371.99 172.6)"><tspan> 10</tspan></text></g><g fill="none" stroke-linecap="round" stroke-linejoin="round" stroke-width="0" color="#000"><path d="M371.99 162.5h-7.5"/><text fill="#000" font-family="KaTeX_Main" font-size="8" transform="translate(378.99 165.1)"><tspan>0</tspan></text></g><g fill="none" stroke-linecap="round" stroke-linejoin="round" stroke-width="0" color="#000"><path d="M371.99 45.01h-7.5"/><text fill="#000" font-family="KaTeX_Main" font-size="8" transform="translate(378.99 47.61)"><tspan>1</tspan></text></g><path fill="none" d="M28 45.01V162.5M371.99 45.01H28" color="#000"/><text stroke-linecap="round" stroke-linejoin="round" stroke-width="0" color="#000" font-family="KaTeX_Main" font-size="10" text-anchor="middle" transform="rotate(-90 57.63 46.13)"><tspan>log</tspan><tspan dy="3" font-size="8">2</tspan><tspan dy="-3">(</tspan><tspan font-weight="bold">Maximum Path Length </tspan><tspan> / log</tspan><tspan dy="3" font-size="8">2</tspan><tspan dy="-3">(Size))</tspan></text><text stroke-linecap="round" stroke-linejoin="round" stroke-width="0" color="#000" font-family="KaTeX_Main" font-size="10" text-anchor="middle" transform="translate(199.99 195.75)"><tspan>Operations / 10</tspan><tspan dy="-5" font-size="8">6</tspan></text><text stroke-linecap="round" stroke-linejoin="round" color="#000" font-family="KaTeX_Main" font-size="8" transform="translate(132.8 10.11)"><tspan>LBSTBottomUp</tspan></text><g fill="none" stroke="currentColor" stroke-linecap="round" stroke-linejoin="round" color="#000"><path stroke="#3B75EA" d="M97.3 7.51h29.9M28 137.04l.36-1.28.36 1.78.37-4.31.36 1.75.36-2.77.36 1.73.36 1.73.37-4.26.36 4.7.36-1.29.36-1.29.37-1.27.36 3.18.36.2.36.19.36-1.3.37.19.36.19.36 1.68.36.18.36.18.37-1.32.36.17.36 1.67.36-1.33.36-1.31.37 1.64.36-1.32.36.16.36-1.31.36.16.37 1.62.36.15.36-1.32.36 1.61.37.15.36-1.33.36-2.75.36 3.04.36.13.37-1.32.36 3.06.36-1.33.36 1.6.36.13.37-5.67.36 4.46.36.12.36-1.33.36 3.05.37-1.35.36.12.36-1.33.36 1.57.37-1.34.36-1.32.36-1.32.36 1.55.36 1.55.37-1.33.36.11.36-2.74.36.11.36 1.52.37-1.31.36.11.36.1.36.1.36-4.08.37 4.29.36-1.31.36 1.51.36.1.37.09.36-1.31.36-1.3.36 2.9.36.1.37-2.71.36 1.49.36.09.36-1.3.36 1.48.37 1.5.36-1.32.36 1.5.36-2.72.36 2.89.37-1.32.36 1.49.36.09.36.08.36-1.32.37.08.36.09.36 1.49.36.08.37-1.33.36 1.49.36-1.33.36-1.31.36 1.47.37.08.36 1.48.36.08.36-2.73.36 1.47.37.08.36-1.32.36 2.88.36 1.49.36-1.35.37.08.36.07.36 1.49.36.07.37.07.36-1.35.36-2.73.36 2.87.36-1.33.37 1.47.36-4.11.36 5.67.36-2.76.36-2.71.37 1.45.36 1.46.36.06.36.07.36.07.37-1.33.36 1.46.36.06.36.06.36.07.37.06.36-1.33.36 2.86.36-1.34.37 1.46.36-1.34.36 1.47.36-1.35.36.06.37 1.47.36-4.13.36 2.84.36.06.36.06.37-2.72.36 1.44.36-1.33.36 1.44.36.06.37-1.33.36.06.36 2.83.36-2.72.37.06.36-1.32.36.05.36-1.3.36.05.37 2.79.36 1.44.36.05.36.05.36-2.7.37 1.43.36-5.37.36.05.36 4.1.36-1.31.37.05.36-1.3.36.06.36-1.29.36.05.37 2.74.36-2.64.36 1.39.36 1.4.37.05.36.05.36.05.36-1.31.36-1.29.37 1.39.36 1.4.36.05.36.05.36-1.31.37.05.36.05.36 1.39.36.05.36.05.37.04.36.05.36-1.3.36.04.37.05.36.04.36-1.29.36 2.73.36-2.64.37.04.36 2.74.36.04.36-1.31.36 1.4.37-1.31.36.05.36.04.36-1.3.36 2.74.37.04.36-1.31.36 1.39.36-1.3.37-1.3.36 1.38.36.04.36-2.63.36 1.38.37 1.38.36.04.36.04.36.04.36.04.37 1.39.36 1.4.36.04.36.04.36-1.32.37 1.4.36-4.01.36 2.73.36 1.4.36-1.32.37 1.4.36.04.36-1.32.36 1.4.37.03.36.04.36.04.36.04.36.04.37-2.68.36.04.36-1.3.36 2.73.36.03.37-1.31.36.04.36-2.64.36 2.71.36-1.3.37 4.09.36.03.36-2.67.36 1.38.37-2.65.36 1.37.36 2.75.36-4.01.36 2.72.37.04.36 1.39.36-2.67.36 1.38.36.04.37.03.36-2.65.36 1.37.36-1.3.36 2.72.37-1.32.36-1.3.36 1.37.36 1.39.36-2.66.37 4.09.36.03.36.03.36-1.32.37-1.32.36 2.74.36.04.36-1.33.36.03.37-1.32.36 1.39.36-2.66.36 2.72.36.03.37.04.36-2.66.36 1.37.36.03.36-3.95.37 2.68.36.03.36.03.36.03.37 1.37.36.03.36-3.95.36 2.68.36 1.37.37-1.31.36.03.36-1.3.36 1.36.36 1.37.37.03.36.03.36-1.31.36 1.37.36-2.64.37 2.7.36.03.36.03.36-1.31.36-1.3.37 1.36.36 1.37.36.03.36.03.37-1.31.36 1.37.36-2.64.36 1.36.36.03.37-3.93.36.03.36 2.65.36-1.29.36.03.37.03.36 2.68.36-1.3.36.02.36 1.36.37-2.62.36-1.28.36 3.99.36-1.31.37.03.36-2.6.36 2.66.36-1.29.36.02.37 1.35.36-2.6.36 2.65.36-1.29.36.03.37.03.36.02.36 1.35.36-2.6.36 2.65.37-1.29.36 1.35.36.02.36.03.37-3.9.36 1.33.36 1.33.36.03.36-1.29.37.03.36.03.36-1.28.36.03.36 1.32.37.03.36.03.36.02.36.03.36-1.28.37 1.33.36.02.36-1.27.36-1.26.36 1.31.37.03.36.02.36.03.36.02.37.03.36.02.36.03.36-1.27.36.03.37 1.31.36.03.36.02.36.02.36-1.26.37.02.36.03.36 1.31.36.03.36-1.27.37 1.31.36.03.36.02.36.03.37.02.36.02.36.03.36-1.27.36 1.31.37.03.36.02.36.03.36.02.36.02.37.03.36-1.27.36.02.36.03.36.02.37-1.26.36 1.31.36.02.36 1.31.36.02.37.03.36.02.36.02.36.03.37.02.36.02.36-1.27.36-1.25.36.02.37 1.3.36.02.36.03.36.02.36.02.37.02.36-1.26.36 1.31.36.02.36.02.37.02.36.02.36.03.36 1.31.37.02.36-1.27.36-1.26.36 1.3.36-1.25.37 1.3.36.02.36-1.26.36 1.3.36.02.37.02.36-1.25.36 1.3.36.02.36.02.37 1.31.36.02.36.02.36-1.27.37.02.36.02.36.02.36.03.36.02.37.02.36-2.53.36 2.57.36.02.36.02.37-1.26.36-1.25.36 1.29.36 1.3.36.02.37.02.36.02.36-3.79.36.02.36 2.55.37.02.36.02.36.02.36.02.37.02.36.02.36.02.36.02.36.02.37 1.3.36-2.53.36 1.29.36 1.3.36.02.37.02.36.02.36.02.36.02.36.02.37.02.36.02.36.02.36.01.37.02.36.02.36.02.36.02.36-2.53.37 2.57.36.02.36.02.36.02.36.01.37.02.36.02.36-1.26.36 1.3.36.02.37-1.26.36 1.3.36.01.36.02.36.02.37.02.36.02.36.02.36.02.37.01.36.02.36 1.31.36.02.36.02.37.01.36.02.36.02.36-1.27.36 1.31.37.02.36.01.36-1.27.36 1.31.36-1.27.37.02.36.01.36-1.26.36 1.3.37.02.36-1.26.36.01.36.02.36 1.3.37.02.36.01.36.02.36.02.36-2.53.37 3.85.36-1.27.36 1.31.36.01.36.02.37.02.36.02.36.01.36.02.36.02.37-1.27.36 1.3.36-2.55.36 2.59.37.01.36.02.36-2.55.36 2.58.36.02.37.02.36-1.27.36 1.3.36.02.36.02.37-1.28.36 1.31.36-2.55.36 1.29.36.02.37.02.36-1.27.36 1.3.36.02.37.01.36.02.36.02.36.01.36-1.26.37.02.36 1.29.36.02.36.01.36.02.37.02.36.01.36.02.36.02.36.01.37-1.26.36 1.29.36.02.36.02.37-1.27.36 1.3.36.01.36.02.36.02.37.01.36.02.36.01.36.02.36.01.37.02.36.02.36.01.36-1.26.36 1.29.37-1.26.36-2.51.36 2.54.36.02.36.01.37.02.36.01.36-1.25.36 1.28.37.02.36.02.36.01.36.02.36.01.37-1.25.36 1.28.36.02.36-1.26.36 1.29.37.01.36.02.36.01.36.02.36-1.26.37.02.36 1.28.36.02.36-1.26.37 1.29.36.01.36.02.36.01.36.02.37.01.36-1.25.36 1.28.36.02.36.01.37.02.36-2.52.36 2.55.36.01.36-1.25.37.01.36 1.29.36.01.36-1.25.36 1.28.37-1.26.36 1.29.36.01.36.02.37.01.36.02.36-1.26.36 1.29.36.01.37.02.36.01.36-2.52.36 2.55.36.01.37.02.36.01.36.01.36.02.36.01.37-1.25.36 1.28.36.02.36.01.37.01.36.02.36-2.52.36 2.55.36.01.37-2.52.36 1.28.36.01.36 1.29.36.01.37.02.36.01.36.01.36-2.51.36 2.54.37.01.36.02.36.01.36-1.25.36 1.28.37.01.36-1.25.36 1.28.36.01.37.02.36.01.36.01.36.02.36-1.26.37 1.28.36.02.36-1.26.36 1.29.36.01.37.01.36.02.36.01.36.01.36.02.37.01.36-1.26.36 1.29.36.01.37.01.36-1.25.36.01.36 1.28.36.02.37.01.36.01.36.02.36-1.26.36.01.37-2.5.36 1.27.36 1.27.36.01.36-1.24.37 2.54.36.01.36-1.25.36-1.25.37.01.36 2.54.36-2.51.36.01.36 2.54.37-1.25.36.01.36 1.28.36-1.25.36 1.28.37-1.26.36 1.28.36.02.36.01.36.01.37-3.77.36 1.27.36.01.36.01.36-1.24.37-1.22.36 1.25.36 1.26.36.02.37.01.36.01.36.01.36.02.36.01.37.01.36.01.36.02.36-1.24.36 1.26.37.01.36.02.36.01.36.01.36.01.37.02.36-1.24.36 1.26.36.01.37-2.48.36 2.51.36.01.36-1.24.36 1.26.37.02.36.01.36.01.36-1.24.36 1.27.37.01.36-2.48.36 2.5.36-1.24.36 1.27.37.01.36.01.36-1.24.36 1.26.36-1.24.37 1.27.36-1.24.36-1.23.36-1.22.37 2.48.36.02.36.01.36.01.36.01.37.01.36.02.36.01.36.01.36-1.23.37 1.25.36.02.36-1.23.36.01.36 2.5.37-1.24.36.01.36 1.27.36.01.37.01.36.01.36.01.36-1.24.36.02.37-1.23.36.01.36.01.36-1.22.36 2.48.37.01.36-1.23.36 1.26.36-1.23.36 1.25.37-1.23.36 1.25.36-1.23.36-1.22.36 2.49.37.01.36.01.36-1.23.36.01.37.01.36.01.36.02.36.01.36 1.25.37.01.36.01.36.01.36.02.36-1.24.37.02.36 1.25.36.01.36.01.36.01.37-1.23.36 1.26.36.01.36.01.37.01.36 1.26.36.01.36.01.36.01.37.01.36-1.24.36 1.27.36.01.36-3.72.37 2.49.36.01.36.01.36.01.36-1.23.37.01.36 1.25.36-1.23.36.01.37 1.26.36.01.36.01.36.01.36.01.37.01.36.01.36-1.23.36 1.25.36.01.37.02.36.01.36.01.36 1.26.36.01.37.01.36.01.36.01.36.01.36.01.37-1.24.36 1.26.36-1.24.36 1.27.37-2.49.36 2.51.36.01.36.01.36-1.24.37 1.26.36-3.72.36 3.74"/><use xlink:href="#f8921__d" color="#3B75EA" transform="matrix(3.75 0 0 3.75 354.25 136.65)"/><use xlink:href="#f8921__d" color="#3B75EA" transform="matrix(3.75 0 0 3.75 112.25 7.51)"/></g><text stroke-linecap="round" stroke-linejoin="round" color="#000" font-family="KaTeX_Main" font-size="8" transform="translate(132.8 25.11)"><tspan>LBSTRelaxed</tspan></text><g fill="none" stroke="currentColor" stroke-linecap="round" stroke-linejoin="round" color="#000"><path stroke="#FFAB00" stroke-dasharray="4.0,2.0,1.0,2.0" d="M97.3 22.51h29.9M28 68.31l.36-11.64.36 12.15.37-8.76.36 2.2.36 1.22.36-5.61.36-1.68.37.22.36 22.45.36-7.18.36-1.84.37-.81.36.2.36 3.27.36-7.88.36 6.22.37 1.21.36-4.87.36-4.73.36.18.36.18.37 4.09.36-9.46.36 24.29.36-.91.36-9.23.37 10.63.36-7.23.36-5.93.36 6.25.36-1.9.37 2.2.36-7.92.36 9.26.36 6.51.37-14.34.36 15.71.36 9.06.36-20.33.36 6.34.37-5.05.36 12.85.36-15.62.36 12.62.36-9.32.37-.89.36-1.89.36 1.13.36.13.36-7.76.37 5 .36.12.36-.86.36-7.59.37 14.86.36-13.68.36 7.86.36 5.14.36-11.71.37.11.36.11.36 2.02.36-2.76.36 11.87.37-16.32.36 10.55.36-12.17.36 17.35.36-8.74.37-7.39.36 3.8.36 1.98.36 15.97.37-8.02.36 6.15.36.1.36 4.25.36-5.09.37-10.78.36.1.36-5.56.36 1.02.36 12.65.37-11.54.36 5.81.36-6.56.36 16.71.36-7.94.37-7.58.36 11.72.36 8.3.36-16.93.36 5.9.37-10.43.36 7.66.36 8.01.36-19.99.37-.82.36 6.48.36-6.32.36 11.2.36-1.83.37-8.23.36 10.29.36-7.41.36-.84.36-7.93.37 7.17.36 5.61.36-4.55.36 1.91.36.07.37 5.69.36-15.39.36 11.77.36-3.61.37-7.94.36.07.36 11.76.36-.86.36-6.29.37 2.77.36 15.23.36-5.78.36 7.91.36 7.23.37-18.73.36 12.7.36-16.27.36 21.53.36-16.76.37.07.36-1.81.36 5.75.36.06.36-3.74.37 3.87.36-4.69.36 6.75.36-4.74.37-3.68.36 3.8.36 7.81.36-16 .36 7.43.37.06.36 8.75.36-14.19.36-1.75.36 10.27.37-7.43.36 7.55.36-9.26.36 3.73.36-4.52.37 10.28.36-12.85.36 6.39.36 4.72.37-10.05.36 13.99.36-3.77.36-8.26.36-6.14.37 4.45.36 11.12.36-19.7.36 10.54.36-5.27.37 9.94.36-7.2.36-1.71.36 12.82.36-8.27.37 1.87.36-8.83.36.05.36 6.22.36 4.6.37-16.61.36 9.49.36 9.12.36-15.94.37-.79.36 6.05.36-6.8.36 6.03.36 1.8.37 4.49.36-9.59.36-4.15.36 3.4.36-.8.37 5.19.36-2.55.36 8.84.36-6.15.36-4.25.37 10.54.36 3.69.36-20.74.36 13.62.37-5.18.36 5.27.36-6.03.36.05.36 5.23.37-8.52.36 13.96.36.05.36.04.36-11.35.37 6.09.36.92.36-6.88.36 3.47.36 10.75.37-.87.36-6.26.36 10.05.36-3.67.37-6.25.36.93.36 4.54.36-5.34.36 3.61.37.94.36 10.32.36-7.5.36 5.67.36.99.37-.91.36-2.8.36-4.57.36 7.49.36-9.23.37 12.19.36.04.36-5.68.36 1.93.36-15.34.37 5.31.36 12.05.36-11.08.36-.86.37-5.23.36 3.53.36-2.59.36 11.74.36-5.46.37 3.68.36-6.29.36 5.45.36-11.48.36 1.76.37 4.42.36 1.82.36-6.13.36-6.74.36 19.38.37-14.25.36 11.55.36-10.62.36 6.17.37-6.1.36-6.71.36 15.62.36-1.77.36-7.85.37 11.55.36-2.7.36 3.68.36-4.5.36-1.75.37 1.81.36-3.51.36-11.02.36 14.64.36 4.58.37-.89.36-15.7.36 13.04.36-12.14.36-.8.37 14.86.36-6.23.36-14.27.36 2.47.37 17.25.36-14.71.36-2.44.36.85.36 7.61.37.89.36-4.24.36 12.27.36-11.36.36 3.46.37-5.08.36 4.28.36 6.17.36-10.35.36 3.42.37 8.82.36-7.03.36 7.09.36 1.85.37-7.11.36-1.71.36-5.92.36-.8.36 15.69.37-3.57.36-8.67.36-7.43.36 9.2.36 2.62.37-5.95.36 6.01.36 4.43.36-2.63.36-.84.37-10.14.36.03.36 14.63.36-9.56.36 3.45.37 8 .36-8.8.36 10.68.36-7.15.37 9.98.36-6.37.36 2.74.36 4.65.36-2.76.37-.89.36-3.59.36 12.1.36-3.78.36-5.53.37 9.4.36-13.84.36 2.72.36-6.17.36 25.29.37-.98.36-15.3.36 8.48.36.99.37-2.85.36-.92.36-2.79.36 5.71.36 9.94.37-5 .36 2.02.36-.97.36-10.61.36-3.67.37 10.41.36-1.91.36-.93.36 1.95.36-1.89.37-3.77.36-5.5.36 8.39.36-.92.37.97.36 12.88.36-4.03.36-4.92.36 1.01.37 5 .36-21.73.36 13.89.36-7.51.36-2.71.37 10.3.36.03.36 6.9.36-10.66.36 6.75.37-9.5.36 3.77.36-6.48.36.94.36 4.67.37 9.71.36-9.66.36-10.03.36 14.86.37-9.4.36-8.03.36 11.79.36-2.76.36.94.37 8.58.36-14.89.36 11.08.36-2.81.36 4.78.37-7.51.36 9.49.36-21.87.36 15.24.36-7.31.37-.87.36 18.88.36-8.72.36.02.37-9.19.36 8.29.36-10.91.36 2.69.36 4.57.37 6.6.36-17.26.36 12.58.36 1.9.36.97.37-9.19.36 10.18.36-1.87.36-.91.36-.92.37-3.66.36 9.39.36-3.78.36-12.68.36 11.78.37-8.2.36.02.36-8.67.36 5.19.37 8.07.36-3.6.36-7.86.36 4.35.36 9.05.37-1.83.36 8.48.36 2.94.36-15.87.36.92.37 5.49.36-2.74.36-.88.36 4.61.36-19.32.37 9.42.36-1.73.36 12.65.36-7.3.37-4.41.36-1.72.36 5.3.36 9.18.36-18.68.37-1.66.36 18.53.36-4.57.36.02.36 2.77.37-9.83.36-1.7.36.02.36 4.38.36 3.59.37-3.55.36 2.69.36-8.72.36 4.33.37-5.98.36 8.67.36 3.61.36-4.46.36 10.96.37-6.44.36-7.08.36-8.46.36 8.5.36.02.37-5.12.36 3.43.36-3.39.36 8.67.36-3.49.37 8.03.36-4.47.36 5.43.36-1.81.36-7.94.37.02.36 1.75.36-5.14.36 13.24.37-14.04.36.02.36 10.45.36-10.41.36 5.15.37-11.73.36 9.18.36 11.53.36-7.15.36-6.87.37.02.36 17.79.36-3.69.36-4.5.36 9.19.37-22.03.36 12.01.36-5.22.36 2.62.37.02.36-4.3.36 6.98.36-2.63.36-3.44.37-4.21.36 5.97.36 7.99.36-10.53.36 11.47.37-5.36.36-10.26.36 19.37.36-13.41.36-.84.37 2.61.36 1.76.36 8.12.36-14.12.36 3.45.37-11.68.36 19.68.36-4.45.36-11.92.37-1.61.36 9.22.36-4.23.36 3.41.36 4.36.37-4.32.36 11.53.36 11.38.36-20.27.36 20.31.37-1.93.36-6.63.36-.91.36-3.65.36-.88.37-10.47.36 18.82.36-2.8.36-2.76.37 2.79.36-2.75.36-10.64.36 18.17.36-13.77.37 11.9.36-10.09.36 10.12.36-10.98.36 4.52.37-4.48.36 5.42.36-4.5.36.02.36-4.39.37 6.22.36-6.18.36-.85.36-1.71.36 9.71.37-.89.36-6.18.36 10.79.36-16.73.37 13.1.36-7.09.36 10.79.36 7.59.36-5.7.37-20.26.36 17.51.36-1.82.36-6.24.36.89.37 4.49.36-6.21.36-5.14.36 3.44.36 3.51.37-2.61.36 8.94.36-8.91.36-10.92.37 10.95.36 10.79.36-.91.36-10.69.36 7.98.37-1.79.36-17.03.36 12.64.36 5.34.36-7.05.37-6.76.36 4.22.36 7.86.36-1.76.36-9.42.37 10.34.36-1.75.36.9.36-7.75.37 10.45.36-6.15.36 9.81.36-6.28.36-.87.37-12.67.36 8.37.36 11.53.36-16.56.36 12.07.37 2.71.36.93.36-12.29.36 1.72.36-.84.37-6.66.36 5.84.36 5.18.36.02.36-5.99.37 5.15.36-1.72.36-2.54.36.01.37-.83.36 1.71.36.02.36-3.36.36 5.96.37-6.76.36 5.07.36.02.36 5.23.36-8.59.37 12.19.36-12.16.36 4.26.36 1.75.36 8.02.37-1.79.36-7.05.36.01.36-4.25.37-4.97.36 10.13.36-2.57.36-2.53.36 7.78.37-3.48.36 2.63.36 5.36.36-7.95.36.88.37-5.96.36-1.65.36-4.09.36 13.51.36 3.56.37-12.09.36 3.38.36 6.09.36-9.43.36.02.37-7.34.36 11.59.36 4.35.36-1.73.37-4.28.36 7.82.36-11.15.36.02.36-3.28.37 5.82.36 1.71.36 4.33.36 3.54.36-8.68.37-3.34.36.01.36 1.69.36 2.55.36-2.52.37.85.36.02.36-3.33.36 2.51.37-8.97.36 10.69.36.01.36-5.82.36 5.85.37-10.66.36 6.5.36 9.36.36-6.83.36-4.95.37 16.25.36-22.62.36 13.06.36-9.06.36 3.26.37-1.62.36 3.29.36.01.36-4.07.36 4.93.37.85.36-4.11.36-6.39.36 8.05.37-.81.36 7.55.36-9.15.36 5.79.36 2.55.37-9.11.36 1.64.36-1.61.36 2.45.36.02.37-7.99.36 8.01.36.84.36 1.66.36-8.09.37 8.12.36 3.37.36-5 .36.84.37 1.68.36-4.11.36-4.02.36 2.42.36 12.58.37-4.28.36-7.45.36 10.04.36-13.23.36 7.33.37-2.46.36.84.36 7.58.36-4.23.36-.83.37-13.62.36 12.82.36 4.21.36-6.66.37.83.36.01.36 7.59.36-10.82.36-2.39.37 3.23.36 2.46.36-4.05.36 2.44.36-5.6.37 14.83.36-6.73.36-5.68.36 2.43.36-2.41.37 9.05.36-8.22.36 7.4.36-14.45.36 3.91.37 12.27.36-5 .36 5.02.36 8.71.37-22.51.36-3.08.36 8.66.36 4.93.36 2.52.37-4.97.36.01.36 1.66.36 9.36.36-20.53.37 4.72.36-5.47.36 3.12.36 8.87.36-10.41.37 5.55.36-2.38.36 4.83.36 12.7.37-5.18.36-19.29.36 11.01.36 2.46.36-2.44.37-10.98.36 16.78.36-12.91.36 11.27.36-7.31.37 8.16.36 6.83.36-17.33.36 3.99.36-.79.37 2.43.36-4 .36-6.97.36 16.78.36-4.14.37 5.85.36-13.82.36-5.37.36 11.76.37-7.13.36-1.54.36 16.17.36-7.45.36 5.79.37-12.13.36.79.36 1.59.36 6.47.36-14.19.37 13.39.36-.8.36 4.97.36-16.75.36 6.99.37-8.48.36 7.71.36 8.09.36-9.63.37 5.57.36.82.36-8.68.36-2.29.36 17.62.37-4.97.36-7.99.36 8.83.36-1.63.36-.8.37-8.68.36 12.81.36 17.5.36-7.2.36.9.37-13.63.36 12.76.36-2.61.36-1.72.36-10.01.37 7.47.36 3.43.36-8.42.36 5.02.37 12.31.36-17.29.36 8.44.36 7.08.36-5.32.37 3.54.36-5.25.36-5.94.36 1.69.36 6.9.37-3.47.36-8.38.36 6.69.36 1.72.36-.84.37 7.89.36-14.59.36-3.24.36.01.37 12.57.36-8.47.36 7.62.36 4.4.36 1.79.37-7.87.36.87.36.87.36 2.62.36-15.1.37 16.01.36-14.37.36 8.32.36-9.11.36 12.57.37-5.12.36.85.36.86.36-7.48.37 10.08.36 4.39.36-5.23.36-8.38.36 10.13.37-3.43.36-9.91.36 10.79.36-.85.36-2.52.37-8.18.36 14.18.36-5.97.36 3.4.36-8.34.37 2.47.36 5.05.36 6.08.36-15.99.36 9.09.37 1.72.36.01.36-8.34.36-6.39.37 13.9.36-7.48.36 10.08.36-10.06.36.01.37 7.51.36 1.72.36-5.91"/><use xlink:href="#f8921__e" color="#FFAB00" transform="matrix(3.75 0 0 3.75 67.83 62.4)"/><use xlink:href="#f8921__e" color="#FFAB00" transform="matrix(3.75 0 0 3.75 112.25 22.51)"/></g><text stroke-linecap="round" stroke-linejoin="round" color="#000" font-family="KaTeX_Main" font-size="8" transform="translate(241.1 10.11)"><tspan>WBSTBottomUp</tspan></text><g fill="none" stroke="currentColor" stroke-linecap="round" stroke-linejoin="round" color="#000"><path stroke="#000" d="M205.6 7.51h29.9M28 107.42l.36 1.56.36-1.05.37 5.5.36-3.72.36 1.55.36 1.55.36-2.4.37-2.37.36.22.36.21.36-2.33.37.2.36-3.55.36 9.09.36-6.2.36 5.29.37-1.1.36 5.41.36-5.04.36-1.09.36-1.09.37.17.36 2.72.36-1.1.36-2.37.36 2.7.37-6.09.36.16.36 3.88.36 1.42.36 3.99.37.16.36-6.2.36 1.4.36-2.35.37 2.64.36.14.36-1.11.36.14.36-3.56.37.14.36 6.34.36-2.37.36-3.57.36-1.08.37 6.29.36.13.36-2.37.36.13.36 2.61.37-3.6.36.12.36-7.1.36 4.9.37.11.36 5.03.36-1.12.36-2.35.36 1.34.37.11.36-9.44.36 6.01.36 1.32.36 5.02.37-1.14.36-2.35.36-2.31.36 4.98.36-3.57.37.1.36-2.3.36 1.29.36 1.31.37-3.5.36 3.69.36-3.5.36-1.08.36 7.31.37-4.75.36.09.36-1.1.36 6.13.36.09.37-1.14.36-2.33.36 6.21.36-7.23.36 4.93.37-4.75.36-1.11.36.09.36-2.27.36 2.43.37 2.48.36 4.96.36-3.59.36-2.33.37 3.7.36-3.53.36.07.36 2.49.36.08.37 1.29.36-7.08.36 3.61.36-2.29.36-2.26.37 4.78.36 3.7.36 1.3.36 3.79.36-4.87.37-5.92.36 4.85.36-1.13.36-1.13.37-4.64.36 5.98.36-1.13.36.07.36-2.3.37-1.11.36-1.09.36 4.78.36-5.8.36 3.56.37 3.63.36-4.67.36 1.24.36-2.27.36-1.1.37 2.39.36-1.1.36 5.97.36-5.84.36 1.23.37 1.23.36-7.98.36 4.61.36-4.49.37 5.77.36 4.77.36-3.48.36 2.41.36-2.29.37-1.11.36-1.09.36.06.36.06.36 4.73.37-3.46.36-2.25.36.06.36 4.7.36-3.44.37-2.23.36.05.36 2.35.36 1.21.37 3.58.36.05.36.06.36 1.24.36-2.31.37-2.29.36 2.4.36.05.36-1.12.36-1.11.37 2.39.36-4.59.36-2.23.36 5.8.36 3.6.37-3.49.36 1.22.36 1.23.36.05.36-4.62.37 4.73.36-6.92.36 3.5.36-2.26.37 1.2.36-2.24.36 7.01.36-3.47.36-1.11.37-4.5.36 6.92.36-1.11.36-2.26.36 4.69.37-2.29.36 1.21.36-2.27.36-2.25.36.05.37-3.33.36 4.56.36.05.36-1.1.37.05.36 2.33.36-4.5.36 5.75.36-2.26.37 1.19.36-1.1.36-1.1.36 1.19.36-1.1.37 4.66.36 1.21.36-5.74.36 1.18.36-1.09.37 1.18.36 1.19.36.04.36-3.38.37 5.79.36-3.43.36.04.36-1.1.36 4.66.37-3.43.36-1.1.36 1.18.36.04.36.04.37-1.1.36.04.36-1.09.36-2.21.36 1.16.37 1.17.36 2.31.36 2.35.36 1.2.36-4.57.37 2.33.36-2.25.36 1.18.36 1.19.37 1.19.36-2.27.36-2.23.36-2.21.36.04.37.03.36 3.42.36-3.34.36 1.16.36 4.58.37-3.38.36 1.17.36-6.66.36 4.47.36-1.08.37.04.36.03.36.04.36.03.37 6.87.36-4.55.36-2.21.36 2.28.36.04.37 2.31.36-5.6.36 6.82.36-1.12.36 1.19.37-2.26.36-2.22.36-1.09.36 4.56.36-3.37.37 1.16.36 1.17.36.03.36-4.45.36.03.37-1.07.36 6.77.36-1.11.36 1.18.37-2.24.36.03.36 4.61.36-3.41.36-1.1.37.03.36 2.31.36-5.6.36 3.39.36.03.37 3.46.36-8.95.36 3.34.36 2.28.36-2.21.37 6.85.36-7.9.36 5.66.36-2.24.37-1.1.36-1.09.36-2.18.36 3.37.36-2.2.37-1.08.36 3.37.36-1.09.36-1.08.36-5.42.37 11.11.36-4.49.36 2.28.36-2.22.36 2.28.37-1.1.36.03.36.03.36-1.09.36.03.37-1.08.36-1.07.36-1.07.36 5.59.37-1.1.36-1.09.36 3.41.36-4.46.36 1.14.37.03.36-1.09.36.03.36 3.39.36-4.43.37 3.36.36-4.4.36 3.34.36 1.14.36-1.09.37.03.36-1.08.36-1.08.36 4.49.37-1.1.36-1.09.36-5.46.36 2.2.36 1.13.37-3.25.36 2.2.36 3.35.36-2.19.36.02.37-3.24.36.03.36 3.3.36-5.39.36 2.17.37 2.2.36 1.12.36 2.24.36-8.66.37 9.84.36-3.31.36 3.36.36-4.41.36 2.23.37 1.14.36 3.4.36-4.46.36 1.14.36-1.09.37 1.14.36-1.09.36.03.36 4.52.36-2.24.37-1.09.36 1.14.36-2.2.36 2.25.36-4.4.37 3.33.36 2.27.36-2.22.36 1.15.37-3.31.36 1.13.36 3.38.36-1.1.36 3.42.37.03.36-1.12.36-2.23.36 1.15.36-5.54.37 3.34.36-1.09.36 2.26.36-2.21.36 2.26.37.02.36 1.15.36-5.53.36-1.07.37 1.11.36 3.34.36-1.09.36-1.08.36 3.36.37-1.09.36-1.09.36-4.35.36-3.19.36 9.84.37-2.21.36-3.27.36-2.13.36 4.37.36-2.17.37-4.26.36 2.15.36.02.36 3.28.36 2.22.37-5.43.36 4.37.36 1.13.36-4.35.37-2.13.36-1.04.36.03.36 6.5.36-7.52.37 4.29.36.02.36.03.36-2.13.36.03.37-1.05.36 1.09.36 3.25.36 2.21.36-2.17.37-2.13.36 2.18.36-2.14.36 1.1.37.02.36.02.36.02.36.03.36-2.13.37 1.09.36 7.7.36-5.5.36.03.36-2.14.37 1.09.36.03.36 1.1.36.02.36 1.11.37-7.46.36 4.26.36-2.12.36.02.37 5.41.36 3.33.36-3.29.36 4.45.36-1.1.37-3.29.36 3.33.36-2.19.36-2.17.36-1.06.37 2.19.36-1.07.36-3.2.36.02.36-3.15.37 4.26.36 2.18.36-2.14.36-1.05.36 7.65.37-5.47.36 3.29.36-5.39.36 1.09.37 1.09.36.02.36 2.2.36-1.07.36 1.11.37 2.22.36-6.5.36 2.16.36-2.12.36 3.24.37-3.21.36 2.17.36.02.36 1.1.36.02.37 1.11.36-2.15.36 1.1.36 3.31.37-1.08.36.01.36-2.16.36 1.1.36-2.15.37-3.19.36 4.31.36-5.33.36 6.46.36 1.12.37-2.17.36.02.36 5.54.36-7.67.36 1.1.37-1.06.36 4.37.36-4.33.36 1.09.36 1.11.37.01.36-5.33.36 6.46.36-4.3.37 4.34.36-2.16.36 2.2.36-1.08.36-2.14.37 5.47.36-6.5.36 2.16.36 2.19.36-4.3.37-1.04.36 7.6.36.02.36-2.19.36-3.23.37.02.36 2.18.36.02.36 4.42.37-8.68.36 3.23.36.01.36.02.36-4.25.37 2.14.36 3.25.36.01.36-3.21.36 1.09.37-1.05.36-2.1.36 2.13.36 2.17.36.01.37 1.1.36-3.21.36.02.36 1.09.36 7.69.37.02.36-3.32.36 2.24.36-3.3.37 1.12.36.01.36 1.12.36-1.08.36 1.12.37 1.13.36-3.3.36.02.36 2.22.36 2.24.37-5.5.36 2.2.36-4.33.36 5.47.36-1.09.37-4.33.36 1.09.36.02.36.02.37 1.1.36-2.15.36 5.47.36 2.25.36-4.42.37 1.12.36.01.36-3.25.36 2.19.36-2.16.37 3.29.36-3.26.36-2.12.36.01.36 1.09.37 3.26.36-3.23.36.01.36 3.27.37 1.11.36-2.17.36-7.42.36 9.64.36-3.25.37.01.36-3.19.36 4.31.36-3.22.36 6.54.37-5.43.36 1.09.36 1.1.36 1.1.36-3.23.37 2.17.36 2.21.36-2.18.36-2.14.36 1.09.37-1.06.36.02.36.01.36 2.18.37-1.07.36 1.1.36-2.14.36-3.18.36-1.03.37 2.12.36 2.15.36 2.17.36 1.11.36-1.08.37.02.36 3.3.36-5.43.36 2.17.36-3.21.37 4.33.36-4.3.36 2.16.36.01.37.02.36-4.25.36 1.07.36-4.17.36 7.41.37 3.28.36-4.33.36.02.36-2.12.36 3.22.37-4.25.36-4.14.36 7.36.36-1.05.36-1.05.37.01.36-1.04.36-1.03.36-3.1.36 5.23.37 5.4.36-3.24.36 2.18.36-2.15.37 2.18.36-1.07.36.01.36-6.34.36 6.37.37-2.13.36 1.08.36-4.22.36 6.41.36-4.28.37-3.13.36 1.06.36 2.12.36-1.05.36 1.08.37 2.14.36-2.12.36.02.36-3.14.37 4.23.36-1.05.36 1.08.36 3.24.36-4.28.37-2.09.36 1.06.36.02.36 1.07.36 4.3.37-5.33.36 2.13.36 1.09.36 1.09.36-3.2.37 1.08.36 1.08.36 1.09.36-4.25.36.01.37-3.11.36 7.41.36-5.3.36 2.12.37-4.18.36 6.33.36-3.17.36-3.12.36 5.27.37 1.08.36.01.36.02.36-2.12.36-1.05.37 4.28.36-5.3.36 1.07.36-1.04.36 1.06.37-2.08.36-2.05.36 8.44.36-2.14.37 2.16.36-3.19.36 1.07.36-1.05.36-3.13.37-1.02.36 4.19.36-4.17.36.01.36-1.01.37 3.12.36 2.12.36-2.09.36-1.03.36 7.45.37-3.21.36-1.06.36-1.04.36-2.08.37 1.06.36.01.36 1.06.36-4.14.36 2.08.37 3.16.36-3.14.36.02.36-3.08.36 4.15.37-1.04.36-1.02.36 1.05.36 1.06.36-5.14.37 6.21.36-5.17.36-1.01.36 9.41.36.01.37.01.36-3.17.36 3.2.36-1.06.37-2.11.36 2.14.36-2.11.36 3.2.36 2.17.37-4.28.36-1.04.36 6.45.36-3.24.36-3.17.37-3.12.36 2.09.36 4.25.36-3.17.36 2.13.37-2.11.36 3.2.36-4.22.36-2.07.37 4.2.36-2.1.36 1.07.36 1.06.36.02.37-2.1.36 3.18.36-4.2.36 5.3.36-4.23.37 1.06.36-2.08.36 1.06.36-1.03.36.01.37-3.08.36 7.31.36-5.23.36 2.09.36.01.37 1.06.36-1.03.36-2.07.36 1.05.37-3.08.36 2.06.36-1.01.36.01.36 5.23.37.01.36-1.05.36 2.13.36 1.08.36-5.26.37 4.22.36-4.2.36 3.16.36-5.2.36 5.22.37-3.13.36 4.22.36-1.05.36-3.14.37 2.1.36 2.14.36-3.16.36.01.36 1.06.37 3.2.36-1.06.36-4.2.36-1.02.36 2.09.37-1.03.36 3.16.36-2.1.36 4.25.36.02.37-5.27.36 1.05.36-1.03.36 1.05.36-5.14.37 3.09.36 4.19.36 2.15.36-2.12.37-1.05.36 1.07.36-2.1.36 1.07.36-1.04.37.01.36-1.03.36 1.05.36-3.1.36-1.01.37 1.03.36.02.36-1.02.36 8.39.36-1.06.37-2.11.36 5.36.36-3.22.36-2.11.37-4.14.36 2.07.36 1.06.36-1.03.36 2.1.37-1.04.36-3.1.36 5.23.36-2.1.36-2.06.37 2.09.36.01.36.01.36.01.36 2.12.37-9.27.36 5.1.36 2.09.36.01.37-1.03.36 4.22.36-4.2.36 1.06.36-2.07.37 2.09.36-1.03.36 3.16.36 2.14.36-4.23.37.01.36.01.36-1.03.36-4.1.36.01.37 6.21.36-3.11.36 1.04.36-2.05.36 4.17.37-4.15.36.01.36-2.03.36 4.12.37.01.36-3.08.36-1.01.36 1.03.36 4.14.37-2.07.36-4.07.36 4.1"/><use xlink:href="#f8921__a" transform="matrix(3.75 0 0 3.75 125.4 106.86)"/><use xlink:href="#f8921__a" transform="matrix(3.75 0 0 3.75 220.55 7.51)"/></g><text stroke-linecap="round" stroke-linejoin="round" color="#000" font-family="KaTeX_Main" font-size="8" transform="translate(241.1 25.11)"><tspan>WBSTRelaxed</tspan></text><g fill="none" stroke="currentColor" stroke-linecap="round" stroke-linejoin="round" color="#000"><path stroke="violet" stroke-dasharray="4.5,2.0,0.5,2.0,0.5,2.0" d="M205.6 22.51h29.9M28 83.34l.36-9.56.36 6.73.37-11.45.36-8.76.36-1.7.36 2.17.36.22.37 13.39.36-4.97.36-.8.36 19.54.37-11.87.36-9.07.36 18.17.36-9.55.36-2.94.37 2.27.36-.86.36-10.88.36 4.12.36 5.24.37-9.8.36 13.26.36-20.49.36 14.67.36.16.37-5.78.36 11.23.36-8.95.36-11.28.36 4.83.37 3.98.36 2.1.36 2.12.36 10.36.37 4.41.36-3.06.36-10.14.36-1.84.36-2.79.37 12.17.36-8.97.36 13.45.36-13.19.36 4.12.37-12.5.36 1.06.36 2.02.36 9.93.36-6.8.37-4.65.36-4.52.36 6.65.36 5.93.37 5.12.36.12.36-24.41L49 68l.36-10.22.37 6.62.36-8.21.36 8.43.36 11.87.36 2.15.37-6.94.36-.88.36-.87.36-1.83.36 5.98.37-12.39.36.1.36 8.65.36 1.07.37 3.07.36-20.54.36 11.04.36-8.18.36 9.31.37 2.96.36-11.08.36 6.52.36-1.77.36 1.95.37-3.61.36.09.36-2.64.36 4.66.36.08.37.09.36-9.81.36 10.91.36 2.9.36 3.92.37-17.39.36 14.67.36-9.18.36 4.65.37-3.59.36-7.02.36 5.38.36 4.62.36-6.25.37 9.2.36-15.14.36 6.18.36 12.98.36.07.37-.88.36 2.96.36 3 .36-11.35.36 5.69.37-6.47.36 11.44.36-18.47.36 13.79.37 2.95.36-.89.36-3.74.36-3.66.36 3.8.37 7.77.36-22.07.36 2.68.36 1.83.36 12.02.37 4.9.36-8.53.36-1.79.36-.85.36-2.67.37 2.8.36-6.23.36 4.53.36.97.36-5.31.37 2.73.36 9.28.36-8.26.36 6.5.37-7.27.36-.84.36-8.63.36 13.28.36-8 .37 11.82.36-15.16.36 1.78.36 12.62.36-4.53.37-11.33.36 12.35.36-13.93.36 6.91.36 5.38.37.06.36-1.74.36-3.47.36 3.58.37.95.36-4.37.36-1.68.36 1.79.36 5.38.37-6.14.36-7.59.36 14.8.36-3.53.36-5.19.37 8.88.36-4.42.36 1.83.36 13.02.36 1.02.37-.91.36-5.64.36 6.7.36-5.66.36-1.81.37 8.6.36-12.17.36-3.53.36 4.54.37-7.96.36-1.68.36 1.78.36 10.82.36-2.71.37.96.36 1.89.36-3.62.36-6.18.36 15.59.37-.9.36-9.22.36-1.75.36 20.91.36-10.71.37.05.36 1 .36.04.36-6.49.37 7.54.36-6.53.36 2.83.36.99.36-2.76.37-2.71.36 2.8.36 3.79.36 2.91.36-5.64.37.04.36 5.73.36-12.93.36 7.33.36 6.69.37 3.96.36-10.52.36 4.77.36-7.46.37-8.01.36 7.18.36 8.45.36-17.24.36 10.75.37-.88.36-3.58.36.94.36.94.36 9.36.37-6.53.36-2.7.36-7.06.36 13.6.36-4.6.37 4.68.36 3.85.36-8.41.36 6.58.36-11.02.37 6.4.36-8.98.36 5.39.36 1.86.37-6.25.36 2.7.36-1.74.36 11.98.36-12.79.37-3.46.36 5.31.36-.85.36 6.36.36-13.24.37 15.17.36-3.65.36 1.87.36-4.51.36-6.12.37 1.77.36 4.46.36 2.75.36-11.41.37 2.61.36-7.58.36 13.81.36.04.36 5.5.37-11.6.36 5.31.36 3.64.36-4.46.36-12.78.37 12.85.36.92.36-1.74.36-4.32.36 5.28.37 5.44.36-8.89.36-4.25.36 9.62.36 18.99.37-23.35.36 2.68.36 6.36.36-4.51.37 13.08.36-6.62.36-1.82.36-5.4.36 18.88.37-6.81.36-10.18.36 8.35.36-4.64.36 2.82.37.03.36.97.36-5.53.36 1.87.36-7.18.37 4.5.36 1.86.36-.89.36 5.59.37.03.36-15.26.36 15.33.36-10.91.36-2.6.37 8.04.36.95.36-6.27.36 3.6.36 7.4.37-16.12.36 15.25.36 1.91.36-15.35.36 6.19.37.93.36-7.89.36 8.86.36-4.45.36 1.81.37 4.55.36 2.8.36-6.37.36 3.66.37 2.8.36-3.66.36-7.98.36-4.26.36 7.83.37.92.36 3.64.36-13.12.36 16.86.36-9.92.37 9.05.36-12.47.36 4.39.36 4.5.36 2.77.37-9.82.36-5.95.36 9.52.36-6.92.37 10.57.36-9.66.36-.83.36 7.87.36-2.63.37-4.3.36 2.61.36 2.66.36-6.89.36 3.45.37-10.05.36 4.99.36-2.47.36-2.44.36 13.6.37-7.74.36 11.36.36-4.42.36.9.37 3.6.36-4.42.36 1.79.36-11.14.36 2.54.37-5.78.36 6.68.36 6.06.36-4.31.36 3.49.37-1.71.36-1.7.36-5.03.36 6.8.36-16.44.37 11.38.36 8.63.36-6.04.36-10.7.36 10.75.37-.82.36 4.31.36-.84.36-2.55.37-8.28.36 2.47.36 4.19.36-.82.36 2.57.37 7.87.36-6.97.36-5.87.36 2.53.36 6.87.37 4.45.36-12.09.36 2.55.36 1.73.36 1.74.37-8.41.36 13.73.36-2.63.36-8.54.37.03.36-6.53.36 6.57.36 5.98.36-5.09.37-2.48.36-8.83.36 8.06.36 9.32.36-1.71.37-8.36.36-3.23.36 2.45.36.85.36 6.7.37-.83.36-10.65.36 4.87.36 9.28.36 8.89.37-3.58.36.92.36-7.86.36-3.37.37 14.01.36 4.64.36-1.84.36-2.73.36-6.24.37.02.36-3.46.36 6.16.36-12.86.36 6.77.37-2.54.36 14.16.36 5.64.36-9.24.36 7.39.37-11.8.36-4.31.36 6.12.36-3.49.37-1.71.36 7.95.36-10.47.36 9.61.36 9.24.37-12.75.36-5.16.36 15.15.36-11.67.36 5.32.37 1.83.36-7.08.36.89.36-2.58.36 5.26.37-5.22.36-1.69.36 9.66.36.92.37-2.67.36.91.36-.87.36-7.83.36.88.37 11.53.36-8.9.36-8.46.36 2.52.36-3.3.37-.8.36-1.61.36 10.9.36 1.76.36-7.66.37 1.7.36.86.36.02.36-9.86.36 14.19.37-5.11.36-8.21.36 8.25.36 11.35.37-6.18.36-5.96.36 9.52.36-3.5.36-2.57.37 3.48.36-15.81.36 9 .36 5.13.36.89.37 5.32.36-8.72.36-9.91.36 2.45.36 13.59.37-3.48.36 5.29.36-6.11.36 6.15.37-17.75.36 9.94.36-3.35.36 1.69.36-4.96.37 3.32.36 6.84.36-12.54.36 2.45.36-3.22.37 4.91.36 3.36.36.02.36 8.66.36-4.36.37-1.7.36 2.61.36-15.74.36 11.48.36-4.16.37-2.45.36.02.36 10.09.36-10.05.37 4.14.36 5.97.36-11.68.36 3.28.36-4.85.37 10.74.36 3.46.36-1.71.36-.84.36-5.87.37 8.5.36-10.92.36 2.48.36-4.07.36 8.29.37.02.36 3.44.36-8.42.36 5.88.37-3.36.36-5.73.36 6.6.36-4.94.36 1.66.37 1.67.36 5.93.36.02.36.02.36.02.37-13.22.36 4.04.36-1.6.36-9.4.36 12.69.37-9.58.36 7.17.36-1.6.36 6.57.36-9.72.37 11.43.36 3.42.36-9.19.36-1.6.37 3.27.36-2.43.36 3.29.36-5.67.36 1.62.37 4.93.36-6.5.36 8.21.36-12.91.36 12.94.37-3.31.36-5.64.36 4.85.36 5.85.36-9.86.37-3.93.36 6.38.36 3.29.36-8.84.37 5.6.36-.79.36 4.1.36-4.87.36 2.44.37-11.03.36 11.06.36 3.31.36-1.64.36-4.85.37 8.21.36-13.68.36-.76.36 11.99.36-8.84.37.01.36 3.99.36-3.96.36-2.32.37 7.94.36 2.47.36 1.67.36-13.56.36 6.27.37 2.42.36.02.36 9.13.36.87.36-10.76.37-3.17.36 12.28.36 2.57.36-14.8.36 7.26.37-8.8.36 4.77.36 1.63.36-3.2.36 10.69.37-12.24.36.8.36 7.3.36-4.87.37-3.17.36 13.98.36-4.21.36-1.65.36-11.18.37 12.87.36-3.29.36-2.42.36-7.1.36 10.39.37 4.18.36.86.36-9.86.36.81.36 6.57.37-11.29.36 8.83.36-9.58.36 7.16.37 4.95.36-5.73.36 4.1.36-5.67.36 4.06.37 6.69.36-12.3.36.81.36 10.69.36 1.72.37 10.61.36-8 .36.02.36 1.76.36-9.38.37 7.66.36 2.64.36-5.2.36 3.48.36-15.03.37 12.45.36-4.23.36-4.13.36 7.55.37-3.38.36.02.36 2.55.36-4.19.36-4.09.37 4.12.36 1.68.36 5.13.36 7.08.36-7.05.37-8.42.36.01.36 5.87.36 4.33.36-8.5.37 4.22.36 6.96.36-9.47.36 3.4.37-4.21.36 5.96.36-1.7.36-5.05.36 4.22.37-4.19.36 3.37.36-9.06.36 10.79.36-9.15.37 7.47.36-.83.36 2.56.36-7.52.36 8.41.37-5.9.36 4.22.36 5.2.36-7.71.36 9.5.37-9.48.36 4.27.36.01.36.01.37 2.62.36-1.73.36-3.41.36-8.25.36 3.27.37 19.16.36-9.83.36 1.76.36-4.32.36-1.69.37 9.6.36-13.76.36 1.67.36 7.7.36-5.14.37-2.52.36-1.64.36 12 .36-9.48.37-7.37.36 4.9.36 3.35.36-6.6.36 9.18.37 3.47.36-2.59.36 8.85.36-9.68.36.01.37-1.69.36 11.41.36-4.46.36.01.36-7.75.37-5.79.36 14.47.36-12.81.36 12.83.37.02.36-.88.36-9.43.36-4.92.36 5.79.37-3.31.36 12.82.36-14.44.36 4.98.36-3.31.37 5.87.36-5.85.36.02.36-4.06.36 18.68.37-7.87.36 2.6.36-5.97.36 1.7.36-10.66.37 12.39.36-5.88.36-6.47.36 9 .37-12.91.36 18.91.36-.85.36-17.24.36 18.13.37-8.46.36-3.27.36 11.77.36-6.81.36.02.37 11.23.36-9.53.36-4.97.36.83.36-3.25.37 6.6.36-.83.36.85.36-7.37.37 8.24.36-12.19.36.01.36 2.39.36 9.84.37-16.07.36 16.94.36-6.64.36 2.48.36-6.48.37 15.85.36-19.76.36 10.43.36 5.91.36-9.16.37-7.91.36 13.71.36-5.76.36-6.36.36 5.57.37 2.46.36 11.88.36-2.61.36-4.25.37 6.89.36-7.71.36-.83.36-7.34.36 12.45.37-6.73.36 6.76.36-8.38.36-2.43.36 1.63.37-.8.36-2.4.36 13.31.36-10.87.36-2.41.37 4.88.36 4.18.36-9.02.36 6.53.37-2.46.36-9.54.36 18.82.36-13.29.36 7.36.37-4.11.36-7.95.36 9.61.36-4.86.36 14.18.37-19.66.36.79.36 9.61.36-3.25.36-9.41.37.78.36 10.28.36.83.36-11.84.36 4.65.37 14.76.36-8.34.36 7.51.36-10.71.37.81.36 6.56.36-17.43.36 8.51.36 4.02.37-11.74.36 15.04.36.84.36-.82.36-8.06.37 12.27.36-5.82.36-7.99.36 4.77.36 9.08.37-11.45.36-1.57.36 8.87.36.84.37-4.09.36-7.91.36 9.56.36-7.2.36 2.38.37-3.92.36 9.6.36-14.18.36 11.75.36 1.65.37.01.36-11.85.36 7.82.36 4.06.36 3.32.37-8.94.36-9.23.36 10.05.36 3.22.37-4.78.36-.78.36-3.87.36 8.67.36 4.09.37-4.07.36-6.33.36 10.44.36-11.19.36 10.38.37-14.18.36 10.94.36-7.1.36 6.32.36-5.52.37 16.32.36-10.77.36-.79.36-7.8.36 3.09.37 3.95.36-2.36.36 13.05.36-5 .37-10.36.36-.76.36.78.36 12.04.36-16.6.37 10.1.36 3.24.36.01"/><use xlink:href="#f8921__f" color="violet" transform="matrix(3.75 0 0 3.75 182.98 62.61)"/><use xlink:href="#f8921__f" color="violet" transform="matrix(3.75 0 0 3.75 220.55 22.51)"/></g><path fill="none" d="M28 45.01V162.5M371.99 45.01H28" color="#000"/></svg>