<svg xmlns="http://www.w3.org/2000/svg" xmlns:xlink="http://www.w3.org/1999/xlink" viewBox="0 0 400 200"><path fill="none" d="M0 0h400v200H0z"/><defs><use xlink:href="#ef4db__a" id="ef4db__c" fill="currentColor" stroke="none"/><use xlink:href="#ef4db__a" id="ef4db__b" stroke="currentColor" transform="rotate(180)"/><use xlink:href="#ef4db__b" id="ef4db__d" fill="currentColor" stroke="none"/><path id="ef4db__a" stroke="currentColor" stroke-width=".267" d="m0-1.33-1.33 2h2.66z"/></defs><path fill="none" stroke="#CCC" stroke-linecap="round" stroke-linejoin="round" stroke-width=".1" d="M46.1 162.5V45.01" class="ef4db__gridline" color="#000"/><g fill="none" stroke-linecap="round" stroke-linejoin="round" stroke-width="0" color="#000"><path d="M46.1 162.5V155m0-109.99v7.5"/><text fill="#000" font-family="KaTeX_Main" font-size="8" text-anchor="middle" transform="translate(46.1 172.6)"><tspan> 1</tspan></text></g><path fill="none" stroke="#CCC" stroke-linecap="round" stroke-linejoin="round" stroke-width=".1" d="M82.31 162.5V45.01" class="ef4db__gridline" color="#000"/><g fill="none" stroke-linecap="round" stroke-linejoin="round" stroke-width="0" color="#000"><path d="M82.31 162.5V155m0-109.99v7.5"/><text fill="#000" font-family="KaTeX_Main" font-size="8" text-anchor="middle" transform="translate(82.31 172.6)"><tspan> 2</tspan></text></g><path fill="none" stroke="#CCC" stroke-linecap="round" stroke-linejoin="round" stroke-width=".1" d="M118.52 162.5V45.01" class="ef4db__gridline" color="#000"/><g fill="none" stroke-linecap="round" stroke-linejoin="round" stroke-width="0" color="#000"><path d="M118.52 162.5V155m0-109.99v7.5"/><text fill="#000" font-family="KaTeX_Main" font-size="8" text-anchor="middle" transform="translate(118.52 172.6)"><tspan> 3</tspan></text></g><path fill="none" stroke="#CCC" stroke-linecap="round" stroke-linejoin="round" stroke-width=".1" d="M154.73 162.5V45.01" class="ef4db__gridline" color="#000"/><g fill="none" stroke-linecap="round" stroke-linejoin="round" stroke-width="0" color="#000"><path d="M154.73 162.5V155m0-109.99v7.5"/><text fill="#000" font-family="KaTeX_Main" font-size="8" text-anchor="middle" transform="translate(154.73 172.6)"><tspan> 4</tspan></text></g><path fill="none" stroke="#CCC" stroke-linecap="round" stroke-linejoin="round" stroke-width=".1" d="M190.94 162.5V45.01" class="ef4db__gridline" color="#000"/><g fill="none" stroke-linecap="round" stroke-linejoin="round" stroke-width="0" color="#000"><path d="M190.94 162.5V155m0-109.99v7.5"/><text fill="#000" font-family="KaTeX_Main" font-size="8" text-anchor="middle" transform="translate(190.94 172.6)"><tspan> 5</tspan></text></g><path fill="none" stroke="#CCC" stroke-linecap="round" stroke-linejoin="round" stroke-width=".1" d="M227.15 162.5V45.01" class="ef4db__gridline" color="#000"/><g fill="none" stroke-linecap="round" stroke-linejoin="round" stroke-width="0" color="#000"><path d="M227.15 162.5V155m0-109.99v7.5"/><text fill="#000" font-family="KaTeX_Main" font-size="8" text-anchor="middle" transform="translate(227.15 172.6)"><tspan> 6</tspan></text></g><path fill="none" stroke="#CCC" stroke-linecap="round" stroke-linejoin="round" stroke-width=".1" d="M263.36 162.5V45.01" class="ef4db__gridline" color="#000"/><g fill="none" stroke-linecap="round" stroke-linejoin="round" stroke-width="0" color="#000"><path d="M263.36 162.5V155m0-109.99v7.5"/><text fill="#000" font-family="KaTeX_Main" font-size="8" text-anchor="middle" transform="translate(263.36 172.6)"><tspan> 7</tspan></text></g><path fill="none" stroke="#CCC" stroke-linecap="round" stroke-linejoin="round" stroke-width=".1" d="M299.57 162.5V45.01" class="ef4db__gridline" color="#000"/><g fill="none" stroke-linecap="round" stroke-linejoin="round" stroke-width="0" color="#000"><path d="M299.57 162.5V155m0-109.99v7.5"/><text fill="#000" font-family="KaTeX_Main" font-size="8" text-anchor="middle" transform="translate(299.57 172.6)"><tspan> 8</tspan></text></g><path fill="none" stroke="#CCC" stroke-linecap="round" stroke-linejoin="round" stroke-width=".1" d="M335.78 162.5V45.01" class="ef4db__gridline" color="#000"/><g fill="none" stroke-linecap="round" stroke-linejoin="round" stroke-width="0" color="#000"><path d="M335.78 162.5V155m0-109.99v7.5"/><text fill="#000" font-family="KaTeX_Main" font-size="8" text-anchor="middle" transform="translate(335.78 172.6)"><tspan> 9</tspan></text></g><path fill="none" stroke="#CCC" stroke-linecap="round" stroke-linejoin="round" stroke-width=".1" d="M371.99 162.5V45.01" class="ef4db__gridline" color="#000"/><g fill="none" stroke-linecap="round" stroke-linejoin="round" stroke-width="0" color="#000"><path d="M371.99 162.5V155m0-109.99v7.5"/><text fill="#000" font-family="KaTeX_Main" font-size="8" text-anchor="middle" transform="translate(371.99 172.6)"><tspan> 10</tspan></text></g><g fill="none" stroke-linecap="round" stroke-linejoin="round" stroke-width="0" color="#000"><path d="M371.99 162.5h-7.5"/><text fill="#000" font-family="KaTeX_Main" font-size="8" transform="translate(378.99 165.1)"><tspan>1.00</tspan></text></g><g fill="none" stroke-linecap="round" stroke-linejoin="round" stroke-width="0" color="#000"><path d="M371.99 139h-7.5"/><text fill="#000" font-family="KaTeX_Main" font-size="8" transform="translate(378.99 141.6)"><tspan>1.05</tspan></text></g><g fill="none" stroke-linecap="round" stroke-linejoin="round" stroke-width="0" color="#000"><path d="M371.99 115.5h-7.5"/><text fill="#000" font-family="KaTeX_Main" font-size="8" transform="translate(378.99 118.1)"><tspan>1.10</tspan></text></g><g fill="none" stroke-linecap="round" stroke-linejoin="round" stroke-width="0" color="#000"><path d="M371.99 92.01h-7.5"/><text fill="#000" font-family="KaTeX_Main" font-size="8" transform="translate(378.99 94.61)"><tspan>1.15</tspan></text></g><g fill="none" stroke-linecap="round" stroke-linejoin="round" stroke-width="0" color="#000"><path d="M371.99 68.51h-7.5"/><text fill="#000" font-family="KaTeX_Main" font-size="8" transform="translate(378.99 71.11)"><tspan>1.20</tspan></text></g><g fill="none" stroke-linecap="round" stroke-linejoin="round" stroke-width="0" color="#000"><path d="M371.99 45.01h-7.5"/><text fill="#000" font-family="KaTeX_Main" font-size="8" transform="translate(378.99 47.61)"><tspan>1.25</tspan></text></g><path fill="none" d="M28 45.01V162.5M371.99 45.01H28" color="#000"/><text stroke-linecap="round" stroke-linejoin="round" stroke-width="0" color="#000" font-family="KaTeX_Main" font-size="10" text-anchor="middle" transform="rotate(-90 57.63 46.13)"><tspan font-weight="bold">Allocations </tspan><tspan> / log</tspan><tspan dy="3" font-size="8">2</tspan><tspan dy="-3">(Size)</tspan></text><text stroke-linecap="round" stroke-linejoin="round" stroke-width="0" color="#000" font-family="KaTeX_Main" font-size="10" text-anchor="middle" transform="translate(199.99 195.75)"><tspan>Operations / 10</tspan><tspan dy="-5" font-size="8">6</tspan></text><text stroke-linecap="round" stroke-linejoin="round" stroke-width=".5" color="#000" font-family="KaTeX_Main" font-size="8" transform="translate(110.4 10.11)"><tspan>AVLBottomUp</tspan></text><g fill="none" stroke="currentColor" stroke-linecap="round" stroke-linejoin="round" stroke-width=".5" color="#000"><path stroke="#000" d="M74.9 7.51h29.9M28 111.94l.36-2.44.36 2.34.37 13.45.36-4.8.36-5.84.36-3.58.36-2.77.37-4.84.36.7.36 9.65.36-.28.37-3.38.36 10.1.36 3 .36-1.77.36-2.37.37-3.29.36-1.56.36 1.85.36-3.28.36-3.66.37-4.45.36-3.79.36 5.61.36 3.63.36 8.28.37 4.8.36-1.82.36-2.48.36-2.57.36-2.4.37-2.27.36-2.59.36-2.72.36-2.37.37-2.43.36-2.71.36-3.16.36 13.11.36 5.62.37-3.05.36-2.5.36-3.2.36-2.08.36 10.45.37 1.01.36-2.61.36-2.25.36-3.34.36-2.1.37 31.3.36.22.36-.11.36-.37.37-.08.36.1.36.45.36-4.54.36-6.23.37.33.36 1.54.36-.04.36.41.36.21.37.05.36.43.36.18.36.4.36 5.87.37 1.67.36-.38.36.1.36-.01.37-1.29.36 3.77.36.42.36-.5.36.1.37-.15.36-.12.36.05.36-.7.36-.25.37-1.02.36.55.36.62.36 3.32.36.21.37.22.36-3.38.36.11.36-.15.36-.29.37-4.37.36-1.1.36.01.36-.5.37.4.36-.33.36-.9.36.08.36-.13.37.18.36-1.12.36-2.08.36.5.36.3.37 6.35.36 2.28.36-.42.36.34.36-.21.37.07.36-.09.36-.16.36-.38.37-.08.36-.47.36-.41.36-.07.36-.84.37.01.36 4.28.36-.41.36.2.36.36.37-.22.36 5.95.36 1.5.36.18.36-.53.37-.51.36.19.36-4.48.36-6.54.36.87.37-.4.36.08.36.18.36.11.37.35.36-.3.36-.19.36-.16.36-.75.37.48.36-1.04.36-.58.36-.17.36-.71.37-.16.36.08.36 1.04.36-.9.36-.71.37-1.12.36-1.07.36-.34.36.09.37 11.98.36-.32.36.3.36.22.36-.43.37-.92.36.29.36-.78.36-4.16.36-6.28.37 2.32.36 1.62.36.05.36-.05.36.05.37-.32.36-.13.36-.02.36-.24.36.07.37-.07.36-.23.36-.17.36-.33.37 5.56.36 2.11.36-.28.36-.74.36-1.02.37-.81.36-.42.36-.79.36-1.12.36-.3.37.22.36-.07.36-1.21.36-.44.36-.35.37-1.09.36-.07.36-.95.36-1.76.37 6.11.36 8.69.36.2.36.15.36 2.93.37.18.36.81.36-1.23.36.68.36.53.37-1.76.36-.94.36-.14.36-4.03.36.42.37-.05.36-.48.36.76.36-.41.37.46.36-6.78.36-3.59.36.35.36-.46.37-.56.36.43h.36l.36-.06.36.16.37-.08.36-.03h.36l.36-.64.36-.01.37 3.64.36 1.97.36.05.36.41.36 1.14.37.25.36-5.38.36-2.19.36-.37.37-.36.36.18.36.99.36 4.08.36-.46.37.03.36-4.26.36.52.36.41.36-.04.37.23.36 4.18.36 4.54.36.5.36-.65.37.08.36.18.36-.01.36-.11.37-.67.36-.04.36-.43.36-.23.36 2.18.37-5.26.36 2.18.36-.95.36-.38.36-1.01.37-1.3.36-1.17.36-.79.36.04.36-1.28.37-.88.36-.35.36 11.3.36 1.24.36.85.37-.3.36-.46.36-.39.36.16.37-.27.36-3.11.36-2.32.36-3.9.36.06.37.2.36-.16.36.54.36.07.36.47.37 1.22.36.93.36-8.5.36-.44.36.01.37 7.88.36 2.47.36-1.16.36-1.28.37-.44.36.41.36.53.36-.47.36.21.37-.23.36-.49.36.48.36.44.36-.2.37 3.71.36 1.11.36-.27.36-2.02.36-.57.37-.87.36-1.28.36-3.91.36-.83.36-1.67.37.36.36 12.74.36.25.36-.56.37-.94.36-4.02.36-.47.36-.21.36-.32.37.49.36-.48.36-1.91.36.21.36-.39.37-.52.36 3.14.36 1.31.36.59.36-.37.37-8.12.36-.43.36-.2.36.75.37 7.44.36 2.65.36-.39.36-.03.36-1 .37-.16.36-.82.36-.45.36-.36.36-.86.37-4.57.36-3.25.36 1.8.36 7.83.36-.03.37-.37.36.56.36-.1.36-.52.37.44.36.35.36 1.43.36.3.36.32.37.4.36.81.36 1.12.36.14.36.1.37.7.36 1.11.36-.52.36-.08.36.8.37-.78.36-1.87.36-9.19.36-.14.36-.11.37.3.36-.23.36-.46.36.1.37.71.36-.63.36-.07.36 5.82.36 3.96.37.36.36-1.29.36-.6.36-.46.36-.29.37-.34.36-7.31.36.42.36-.59.36.28.37.05.36.2.36-.75.36.01.37-.12.36-.21.36-.68.36 6.58.36 4.59.37-2.73.36.31.36.01.36-.2.36.03.37-.16.36.37.36-.29.36.44.36-.18.37-4.8.36-5.57.36.99.36 1.4.36.46.37 2.17.36-.55.36.22.36-.36.37-.77.36-.59.36-.01.36-.48.36-.35.37 3.87.36 5.94.36-1.17.36-.58.36-.47.37-7.64.36-.75.36-.7.36-.38.36-.19.37-.69.36-.42.36-.54.36 8.57.37.14.36-.1.36-.05.36-.23.36.86.37.56.36.72.36-.34.36-.09.36.51.37-.09.36.34.36.51.36.17.36.71.37.33.36-.48.36.57.36.12.37-.09.36-9.1.36-.97.36 4.64.36 6.44.37.32.36.17.36-.48.36.65.36-.2.37-4.79.36-3.52.36 1.07.36 3.73.36.94.37.71.36 1.53.36.67.36.36.36 1.53.37 2.82.36.18.36-.57.36-4.91.37.78.36.56.36.55.36.51.36-.14.37 1.25.36.76.36-.27.36.6.36-.27.37-1.81.36-7.78.36.17.36-.52.36.1.37-.59.36.3.36-.57.36-.18.37-.18.36-.11.36 1.52.36.31.36-.33.37.13.36-.52.36-7.46.36 7.24.36-.14.37.26.36-.39.36-.8.36-.44.36-.38.37-.9.36-1.04.36-.44.36-.56.36-.75.37-.99.36-.77.36-1.25.36.41.37 3.84.36.79.36-.45.36-.74.36-.34.37-1.17.36-.79.36-.75.36-.53.36-.09.37 1.16.36 11.35.36 5.21.36-5.13.36-3.73.37-.09.36.26.36.37.36-.42.37-.12.36-.07.36.16.36-.53.36-.31.37-.08.36-.25.36.06.36-.4.36.49.37-4.94.36-4.15.36-.49.36.65.36-.18.37-.04.36 8.97.36 1.3.36-.74.36.4.37-.52.36-.5.36-.23.36.09.37-.72.36-.01.36-.33.36.19.36-.18.37-.78.36-.37.36-.83.36.15.36-.57.37-.28.36-.75h.36l.36 6.14.36 8.42.37-.04.36-8.05.36-5.9.36-.44.37-.33.36.05.36-1.1.36.09.36 2.52.37 4.9.36.03.36.25.36.17.36.35.37.16.36-.44.36-.23.36.03.36-.41.37-.63.36-5.96.36 2.15.36 1.79.37.65.36.21.36.25.36.37.36-.6.37-.03.36-.1.36.64.36-.71.36-.22.37-.2.36.31.36.55.36-.8.36-.57.37-.86.36 6.69.36.06.36-1.01.36.12.37-.28.36-.48.36-2.56.36-3.51.37-1.94.36-.2.36.01.36-.39.36-.01.37 6.07.36 2.85.36.19.36-.64.36-.02.37-.05.36-.8.36.37.36-.87.36.08.37-.56.36-.34.36.07.36.19.37-.36.36.67.36-.23.36.02.36-.13h.37l.36.13.36-.23.36-.23h.36l.37-.21.36.02.36-1.18.36-.84.36 1.92.37-2.51.36-1.65.36-.64.36-.29.36.02.37-.51.36-.58.36.07.36-.46.37-.46.36 2.88.36 1.17.36.27.36-.42.37 1.48.36 3.18.36-.41.36.34.36-.58.37-.06.36-.04.36-.02.36-1 .36-.36.37-.44.36 4.54.36 3.29.36-.69.37.69.36 5.17.36.28.36-.13.36.33.37.23.36-.46.36.58.36-1.44.36-3.42.37-.3.36-4.35.36-1.39.36-.4.36.01.37-.12.36-.11.36-.58.36-.57.36-.05.37-.74.36.57.36-.28.36-.51.37-.27.36.85.36-.45.36 1.65.36.16.37-.67.36-1 .36-.64.36.55.36 5.38.37 2.68.36-.93.36-.55.36-.94.36-2 .37.42.36-8.33.36-2.61.36-.3.37 4.71.36 5.92.36-.16.36.01.36-.04.37-.35.36-.29.36.11.36-.53.36-.85.37-.32.36-.71.36-.07.36-.98.36 3.16.37-.75.36-.46.36-.63.36-1.44.37-.42.36-.44.36-1.45.36-.63.36-.5.37 12.59.36.88.36-.72.36-.21.36.53.37-.21.36.2.36-2.61.36-.56.36-.28.37.24.36.28.36.14.36.64.36.64h.37l.36-8.62.36-2.99.36-.31.37-.47.36-.21.36 9.68.36-.37.36-.38.37-.59.36.18.36-.25.36-.63.36-.76.37-.62.36-.74.36-.15.36.48.36-.08.37-.48.36-.67.36-.14.36-.43.37 3.27.36-.22.36-.4.36-.26.36-.27.37-.33.36-.87.36-.2.36 9.05.36.28.37.33.36.22.36-3.05.36-2.35.36.02.37.7.36.4.36-.69.36-.55.36-3.78.37.61.36-2.22.36.04.36.47.37.46.36-.24.36.74.36.05.36-.03.37-.1.36.08.36.25.36-.43.36.07.37-.26.36-.02.36-.29.36 3.31.36 2.59.37-.96.36-1.12.36-.28.36-1.45.37-1.09.36-1.15.36-.8.36-1.13.36-3.96.37-1.15.36 6.24.36-.81.36-.6.36-.86.37-.42.36-.01.36-.41.36-1.45.36-.13.37-.38.36-.75.36-.39.36-.16.36 14.76.37 2.25.36-.73.36-.6.36-.78.37.01.36.31.36-.09.36-.95.36.21.37-4.11.36-9.2.36-.03.36.5.36 2.92.37-.06.36 1.54.36 8.68.36.58.36-.1.37.39.36-.32.36-.39.36-.31.37.73.36-.58.36-.62.36.42.36-.96.37-.54.36-.19.36-.08.36-.8.36-1.18.37.14.36-.46.36-1.36.36-3.83.36.01.37-.25.36-.05.36 13.17.36 1.54.37-.19.36-.81.36.9.36-.8.36.06.37-.57.36-9.87.36-2.84.36.22.36-.12.37-.13.36-.18.36.01.36.21.36.55.37-.26.36.37.36-1.75.36-1.04.36.56.37 4.07.36 4.74.36.49.36-4.85.37-3.1.36.15.36-.22.36-.17.36-1.3.37-.13.36.41.36.1"/><use xlink:href="#ef4db__c" transform="matrix(3.75 0 0 3.75 354.25 139.58)"/><use xlink:href="#ef4db__c" transform="matrix(3.75 0 0 3.75 89.85 7.51)"/></g><text stroke-linecap="round" stroke-linejoin="round" color="#000" font-family="KaTeX_Main" font-size="8" transform="translate(110.4 25.11)"><tspan>AVLTopDown</tspan></text><g fill="none" stroke="currentColor" stroke-linecap="round" stroke-linejoin="round" color="#000"><path stroke="#29C3F6" stroke-dasharray="2.5,4.0" d="M74.9 22.51h29.9M28 84.05l.36 14.86.36-5.25.37-9.61.36-6 .36 2.53.36-4.03.36-.97.37 13.61.36-.68.36-3.46.36-6.45.37.34.36-.84.36-1.46.36 9.12.36-.89.37-4.24.36-7.86.36 10.65.36-1.11.36 4.47.37-1.59.36-2.4.36 2.58.36-3.62.36.58.37-5.95.36-1.72.36 8.84.36 2.39.36-3.47.37-2.7.36 4.84.36-4.46.36.52.37 13.12.36-2.27.36-5.58.36-.65.36-4.92.37-6 .36-.06.36.79.36-6.75.36 14.5.37 1.42.36.54.36-1.62.36-2.54.36-2.58.37-2.29.36 3.34.36 4.16.36-1.32.37 3.3.36-8.79.36-4.98.36 12.98.36 4.35.37-3.9.36-3.84.36-4.03.36-3.21.36.03.37-5.12.36 5.74.36-6.73.36-4.35.36 21.6.37-.86.36-7.36.36-4.12.36-3.3.37 3.85.36-.52.36 10.96.36-.33.36-4.92.37-2.91.36-4.96.36 17.57.36-2.12.36-5.52.37-6.7.36 4.51.36 6.89.36-2.09.36-1.16.37-3.26.36 2.25.36-.91.36-1.47.36-5.32.37 1.08.36 12.53.36-.69.36-3.59.37-4.12.36-4.75.36-1.9.36-4.38.36 7 .37 11.53.36-4.32.36-2.07.36-.63.36-3.31.37-3.7.36 2.46.36-6.08.36-5.26.36 1.83.37 21.08.36 5.09.36-2.26.36-.74.37-5.07.36-5.4.36 1.49.36-2.67.36-3.38.37-1.99.36-1.76.36.75.36-6.46.36 3.81.37-2.1.36.75.36-9.7.36-.06.36 6.52.37-1.12.36 20.44.36-.68.36.01.36 3.86.37-.9.36-6.36.36-5.12.36-5.85.37 3.18.36 8.75.36 4.92.36 3.44.36-5.9.37-2.61.36-5.13.36-.91.36-.59.36-.1.37-3.14.36 16.78.36.29.36-4.23.36-5.09.37-3.13.36-4.11.36 5.26.36 10.81.37 8.44.36-6.32.36-7.02.36-7.98.36 1.43.37 1.44.36.33.36-1.84.36-3.9.36-4.76.37 4.69.36 7.86.36-3.37.36 15.91.36-2.11.37-6.83.36-10.17.36 1.07.36.76.36-2.47.37-1.7.36 1.19.36-1.23.36 15.08.37-6.45.36-3.75.36-3.03.36-6.45.36 7.2.37 5.05.36.44.36-1.2.36-5.79.36 7.01.37 6.96.36-1.01.36 2.81.36-3.36.36.88.37-1.11.36-9.86.36-.89.36-2 .37 11.37.36-1.43.36-6.92.36-6.09.36 3.22.37-2.39.36 6.3.36 14.43.36-.86.36-7.2.37-1.92.36-.13.36-2.3.36 11.39.36 4.43.37-3.42.36.34.36.74.36-.86.37 9.79.36-2.78.36-5.12.36-8.66.36 2.67.37-4.81.36-4.27.36-2.43.36 1.94.36 15.47.37 4.37.36-2.77.36-2.93.36-.01.36 3.94.37-.02.36.09.36 1.94.36-3.59.36 3.89.37-1.86.36 2.95.36-5.72.36.54.37 5.52.36-5 .36-.86.36 1.73.36-2.61.37-5.02.36 4.75.36 6.19.36-4.23.36-2.26.37 4.72.36-6.08.36 5.64.36-5.71.36 3.28.37-3.47.36-2.69.36-1.31.36-5.58.37-3.14.36-.08.36 10.62.36-3.04.36-.71.37-5 .36-3.28.36 2.81.36 8.99.36 3.9.37-3.24.36-3.01.36-5.87.36-2.17.36-2.02.37.22.36.75.36.07.36 12.2.36 7.62.37.05.36-6.15.36-6.83.36-2.67.37-3.91.36 3.31.36-3.85.36-1.56.36-.32.37 12.32.36-5.25.36 2.26.36-2.45.36 1.65.37-6.99.36-2.16.36-6.67.36-3.23.36 23.12.37 6 .36-7.53.36-6.28.36-3.87.37 4.95.36.88.36 11.49.36-10.31.36-1.88.37-7.36.36-3.96.36-6.02.36 17.94.36 8.17.37-.43.36 2.65.36-2.82.36-6.4.36 1.86.37.12.36-3.03.36-2.5.36 8.73.36-4.94.37-.6.36-5.67.36 2.99.36-1.96.37 1.86.36 7.48.36 7.57.36 2.88.36-4.49.37-.8.36-10.61.36-1.15.36.4.36 13.59.37-.24.36-6.41.36-2.13.36.73.36-3.95.37-9.1.36 4.62.36-7.43.36-4.23.37 5.34.36 13 .36 1.61.36-3.22.36-1.82.37-1.14.36.38.36-1.47.36 1.07.36 9.05.37-3.23.36-1.58.36-4.09.36-3.01.36-2.51.37 12.04.36 2.67.36 3.75.36 1.53.37-2.72.36-8.42.36-.07.36-1.13.36-3.89.37 1.66.36-1.68.36-1.54.36-4.79.36-6.24.37 5.11.36-4.16.36-1.76.36 1.87.36 17.6.37-3.95.36 3.05.36-3.37.36-4.09.36-2.18.37 2.97.36 5.1.36-4.81.36-4.66.37 7.89.36 7.6.36-8.86.36-6.74.36.3.37 1.6.36 1.01.36 7.96.36 9.19.36 4.46.37.78.36-5.88.36 1.04.36-4.31.36-3.57.37-4.44.36-.61.36-6.04.36 2.92.37.39.36-.23.36 10.54.36-6.17.36 8.16.37-8.53.36-3.83.36 6.25.36-.35.36-4.32.37.51.36 1.25.36 3.78.36-9.57.36-2.76.37 12.14.36-3.24.36-5.73.36-4.04.36 13.64.37 4.39.36-6.3.36-5.67.36-5.01.37 1.67.36 1.22.36 2.76.36-.88.36-1.88.37-7.21.36 8.28.36 3.05.36 4.36.36-5.67.37-5.55.36 2.22.36 1.07.36-4.14.36 3.28.37.08.36 15.78.36-3.41.36-3.79.37-4.12.36 1.02.36 5.27.36-3.26.36-7.54.37-3.15.36 4.71.36-.04.36.47.36-.75.37-.19.36-1.81.36 6.13.36-3.44.36 13.51.37-2.17.36 2.71.36-4.45.36-4.13.37 13.24.36-2.56.36-5.31.36-7.44.36 1.76.37-.2.36.32.36-3.05.36.55.36-4.6.37-1.8.36-3.95.36 3.68.36 4.35.36-1.66.37-6.78.36 19.73.36-2.39.36-.39.36 3.42.37-6.26.36-7.57.36-2.74.36 5.9.37-2.66.36 1.35.36.84.36-3.58.36.55.37-7.44.36 8.48.36-5.02.36-4.41.36-.84.37-6.94.36 22.8.36 5.68.36 4.6.36-1.64.37-6.63.36.43.36-9.44.36 4.73.37 9.33.36-8.12.36-1.32.36.34.36-4.77.37-2.55.36 6.4.36 2.03.36-.56.36-4.69.37-10.48.36 3.85.36 5.67.36-1.39.36-6.68L221 75l.36 12.75.36-9.14.36.82.36-10.12.37-.39.36 1.98.36 2.39.36 3.84.37 8.01.36 4.14.36-3.06.36-7.84.36-6.86.37 2.49.36-4.95.36 9.11.36 6.73.36-6.91.37-8.51.36 2.15.36-6.36.36-1.86.36.23.37 10.51.36 12.63.36 1.81.36-3.73.37-5.53.36 4.71.36-8.79.36 2.23.36-3.57.37-4.89.36-1.43.36-6.86.36 4.2.36 2.32.37-.2.36-1.66.36-2.55.36-6.24.36.06.37.83.36 2.39.36 2.5.36 18.39.36-.23.37-3.61.36-2.53.36-3.47.36 2.44.37-1.2.36 5.36.36.2.36 11.17.36-.28.37-4.52.36-3.52.36-6.73.36-1.96.36 1.5.37-3.7.36-7.94.36 6.06.36 5.99.36.49.37 15.39.36 4.65.36.54.36-12.96.37-5.91.36 1.17.36-8.07.36 4.12.36 10.76.37-.88.36-4.59.36-3.63.36 6.77.36-.63.37-1.51.36-11.48.36 9.39.36 12.07.36-9.41.37-6.42.36-2.39.36-2.17.36 1.05.37-5 .36-2.48.36-3.74.36 5.49.36 8.2.37-7.38.36-7 .36 17.48.36-1.1.36.27.37-2.25.36.54.36 1.47.36 3.85.36-3.38.37-4.24.36-9.4.36 5.98.36-1.24.36 1.75.37 5.38.36 15.56.36 1.37.36-10.38.37-2.66.36-2.68.36-.84.36-2.27.36 2.08.37-4.87.36.17.36-1.73.36 1.5.36 9.68.37 12.73.36.36.36.08.36-7.58.36-6 .37 2.28.36-2.76.36-5.66.36 3.6.37-3.44.36-1.38.36 3.13.36 1.52.36 4.53.37 3.4.36 6.29.36 4.79.36-11.2.36-1.98.37-2.24.36 8.03.36-4.94.36-8.25.36-3.32.37 3.41.36 1.81.36-12.4.36 1.56.36 8.57.37 4.56.36-3.48.36-2.23.36-4.65.37 9.43.36 10.24.36 6.72.36-5.07.36-5.56.37-6.96.36-3.15.36-4.35.36-5.45.36-2.52.37-.8.36 8.21.36.63.36-5.61.36-3.12.37 23.59.36-.14.36 1.88.36-4.55.37 3.55.36-8.37.36-5.2.36-.58.36 3.5.37-3.37.36-6.3.36-5.17.36 4.02.36-6.11.37.37.36 4.83.36-8.58.36 2.69.36 1.57.37 7.43.36-3.36.36-1.85.36 24.48.36-1.46.37-7.74.36 6.77.36-10.43.36-.86.37-4.17.36-6.2.36 1.54.36 11.38.36.76.37-6.56.36.51.36-2.88.36-10.95.36 8.03.37-3.06.36-1.29.36.88.36 2.04.36.79.37-2.27.36.92.36-3.71.36-6.15.37 10.24.36-4.53.36-2.72.36 7.38.36-.07.37-3.52.36-6.19.36.51.36 3.97.36 16.49.37 11.25.36-8.98.36 5.17.36-2.5.36-3.06.37-.59.36 1.25.36.99.36.21.37 10.53.36-3.65.36 4.72.36-10.08.36-4.77.37 5.54.36-4.73.36-.86.36-3.85.36-1.13.37-5.46.36-1.88.36 2.35.36 3.3.36 5.6.37-3.02.36-1.43.36-6.18.36-2.64.36-1.76.37 2.24.36 1.11.36 13.65.36-1.42.37-5.93.36 5.01.36-.11.36-7.43.36.45.37 7.82.36-6.17.36 3.57.36-4.23.36-4.81.37 20.38.36 1.33.36-5.46.36-5.7.36-3.25.37 3.78.36-2.1.36 1.35.36-3.46.37 2.08.36.93.36-.99.36-11.69.36-.59.37 1.64.36-4.69.36-1.21.36-.37.36 10.72.37 5.72.36 2.18.36-4.05.36-7.68.36 1.7.37-7.73.36 3.36.36 3.04.36 1.54.36 18.03.37 2.57.36-4.74.36-3.52.36 3.61.37-2.97.36.32.36-2.32.36-4.28.36 3.66.37 7.17.36 3.39.36-4 .36-2.64.36-.02.37-5.51.36-.04.36-1.06.36 9.17.36.54.37 6.4.36 2.27.36-8.28.36-3.65.37-.36.36-5.38.36-5.59.36 7.57.36 6.18.37 7.34.36-5.86.36-8.8.36 4.99.36.43.37-3.47.36.93.36-1.94.36 1.3.36-2.98.37 6.71.36-.84.36-3.49.36-3.44.36-8.94.37 8.27.36-2.22.36-5.88.36 18.74.37 4.46.36-.21.36-.75.36-5 .36-2.64.37-.51.36 7.74.36 1 .36 5.23.36-2.09.37-6.52.36 1.66.36-4.07.36-1.87.36-5.66.37 4.75.36-.99.36-1.91.36 1.35.37 4.98.36-10.11.36-1.16.36-7.21.36-1.56.37 17.81.36 4.3.36 2.32.36.21.36-4.39.37-8.08.36.29.36 7.67.36.48.36 2.38.37.08.36-1.66.36 3.04.36-5.74.37-1.08.36 1.28.36-1.54.36-6.78.36 3.2.37 6.03.36-7.4.36-7.44.36-14.45.36 11.88.37 5.61.36 18.67.36-.11.36-1.24.36-3.45.37-2.7.36-2.26.36-3.04.36-5.21.36 3.2.37-4.93.36-1.88.36 5.67.36-4.36.37 5.82.36 12.14.36-2.02.36-8.89.36-.11.37 6.08.36-.74.36 14.69"/><use xlink:href="#ef4db__d" color="#29C3F6" transform="matrix(3.75 0 0 3.75 67.83 68.22)"/><use xlink:href="#ef4db__d" color="#29C3F6" transform="matrix(3.75 0 0 3.75 89.85 22.51)"/></g><text stroke-linecap="round" stroke-linejoin="round" color="#000" font-family="KaTeX_Main" font-size="8" transform="translate(241.1 10.11)"><tspan>RedBlackBottomUp</tspan></text><g fill="none" stroke="currentColor" stroke-linecap="round" stroke-linejoin="round" color="#000"><path stroke="#F44336" d="M205.6 7.51h29.9M28 102.93l.36 26.06.36-4.91.37-1.56.36-6.11.36-.47.36-7.22.36-1.83.37 1.64.36 5.11.36-1.75.36-6.78.37 10.78.36 5.15.36-.46.36 1.42.36-5.76.37-14.54.36-5.69.36 10.91.36-2.16.36 8.34.37-10.41.36-2.31.36 4.06.36 3.12.36 14.87.37-6.21.36-1.27.36 8.02.36-5.31.36-.36.37-4.41.36-4.74.36 6.2.36 11.34.37-9.41.36-12.04.36 14.92.36-2.5.36-9.06.37-7.15.36 6.66.36-.59.36 12.12.36 12.71.37-12.58.36 4.63.36 4.27.36-8.31.36-4.97.37-7.32.36 26.57.36-15.69.36-5.08.37 8.28.36 9.2.36-8.82.36-13.64.36-6.57.37.48.36 3.85.36 8.74.36-3.87.36-11.78.37 5.73.36 2.55.36-4.48.36.24.36-2.47.37 20.5.36-.34.36 3.05.36-6.92.37 4.06.36 3.73.36-6.28.36-.54.36 3.4.37-7.6.36-13.9.36 4.41.36 2.03.36-1.65.37-.01.36-3.81.36 4.72.36 2.03.36 19 .37 5.86.36-5.53.36-13.5.36 3.41.36-4.5.37-8.37.36 10.18.36 7.67.36-5.72.37-7.89.36-8.42.36.41.36 14.23.36-15.11.37-6.58.36 7.1.36-1.57.36 6.14.36-8 .37 3.87.36 33.88.36-10.31.36-10.85.36-9.67.37 2.08.36 5.36.36-4.55.36-3.11.37 5.73.36-8.13.36 13.86.36 6.4.36-3.33.37 8.27.36-4.79.36-6.69.36-9.09.36-8.57.37 27.67.36-4.55.36-7.28.36-11.24.36-.86.37 10.04.36-.75.36.84.36-7.75.36 2.9.37 3.86.36.71.36-.13.36-6.23.37 18.74.36.79.36 4.75.36-10.33.36-14.82.37 2.49.36-4.94.36 7.43.36 1.52.36-1.15.37-5.96.36 23.98.36-14.51.36 5.47.36 2.18.37-3.86.36-3.16.36 5.59.36 5.53.37-1.6.36-4.28.36-3.63.36 1.93.36 10.46.37-8.36.36-1.31.36.23.36-12.59.36.82.37 7 .36-8.84.36-2.49.36 6.76.36-6.28.37 1.13.36.16.36-1.89.36 29.34.36-3.71.37 2.78.36-8.2.36-8.12.36.9.37-1.63.36-5.6.36-6.21.36-1.87.36 6.42.37-6.63.36 24.4.36 3.27.36-2.92.36-8.06.37-11.01.36-.62.36 8.96.36-3.28.36 1.15.37-9.63.36 3.2.36 5.61.36-9.32.37-2.06.36 11.11.36-3.29.36-2.42.36 1.67.37 2.31.36 13.34.36 11.5.36-6.82.36-2.94.37-11.87.36.5.36 3.07.36 2.79.36-4.93.37 3.87.36 1.42.36 5.87.36-1.62.37-7.89.36-3.17.36 18.17.36-7.1.36-1.96.37-7.48.36-6.7.36.2.36-1.98.36-8.08.37 6.05.36-1.75.36 24.9.36-5.92.36 7.88.37-14.74.36-1.09.36.47.36 6.21.36 6.76.37-6.95.36 3.39.36-3.98.36.06.37-3.58.36-6.65.36 9.3.36 11.97.36-8.87.37-1.98.36 3.47.36-2.16.36-6.51.36-9.57.37 6.34.36 12.15.36-8.05.36 3.38.36 1.11.37.87.36-5.51.36-6.16.36 3.15.37-6.73.36 13.64.36 21.03.36-4.27.36-24.49.37 2.83.36-10.02.36-2.5.36 2.62.36-2 .37 4.75.36 8.52.36-3.79.36 21.12.36-1.34.37-2.67.36-8.02.36-9.44.36-.91.36 2.72.37 16.06.36-2.99.36 2.81.36-1.22.37-13.42.36-2.38.36-4.02.36 2.33.36.87.37-13.03.36 9.9.36 20.76.36 3.27.36-8.55.37-7.02.36-6.7.36-.23.36 12.68.36-3.13.37-2.73.36 2.59.36 4.93.36 1.95.37-12.63.36 11.02.36 3.58.36-2.96.36-8.12.37-7.97.36 5.09.36-.49.36.53.36 16.96.37-11.49.36 2.66.36-9.19.36.14.36-5.49.37 5.11.36-.8.36-6.87.36.61.36-.24.37 2.71.36-1.3.36-6.4.36 1.13.37-7.55.36 11.76.36 8.2.36 6.52.36 6 .37-2.55.36-5.86.36-14.1.36 6.81.36.75.37.61.36-6.27.36-5.64.36-6.25.36 1.11.37 2.32.36 7.43.36 4.87.36-1.1.37 24.08.36-13.22.36 1.25.36-.16.36-8.4.37.61.36-5.01.36-1.35.36 7.83.36.79.37 3.1.36-7.21.36-4.05.36 28.07.36-4.01.37.39.36-10.28.36.97.36-.61.37-13.44.36 6.7.36-3.81.36-3.95.36.47.37 5.03.36 5.76.36-5.8.36-5.33.36 8.4.37 5.51.36-2.6.36-6.68.36-7.92.36 21.52.37 4.38.36-4.14.36-6.77.36-7.22.36 14.91.37-6.33.36 2.49.36-4.94.36-11.64.37 5.82.36 4.51.36-2.23.36-9.21.36-4.2.37.36.36 11.08.36 4.36.36 3.66.36-11.24.37 7.78.36.14.36-10.79.36 6.9.36-1.53.37-5.51.36 5.79.36 2.02.36 10.15.37-14.09.36-.84.36 11.88.36-.46.36 4 .37-9.56.36 1.33.36 2.27.36 4.42.36-3.81.37-3.22.36 5.8.36-3.04.36-2.15.36 3.64.37 4.5.36-2.75.36-4.34.36-6.09.36 13.92.37-8.57.36 3.45.36-8.93.36 5.14.37.52.36-14.36.36-.25.36 11.23.36-.56.37-.72.36-7.3.36-6.37.36 30.62.36-5.8.37-.76.36 1.22.36-1.99.36-3.26.36-.67.37-4.56.36-.91.36-6.24.36 10.04.37-2.76.36-5.06.36-3.44.36-1.55.36-.93.37 1.48.36-.39.36 5.82.36-1.45.36-.64.37 5.22.36-3.37.36-2.85.36-1.01.36 6.9.37 2.48.36 7.35.36 2.95.36-1.08.37 3.7.36 5.96.36-9.97.36-4.73.36.02.37-4.56.36-4.81.36.57.36-.46.36 4.73.37-4.95.36-.58.36-.75.36-3.65.36 15.57.37-7.28.36 10.26.36 4.09.36-2.84.36-9.87.37-1.07.36-2.4.36 15.19.36 4.35.37-2.1.36-2.88.36.54.36-9.33.36-3.19.37-5.57.36-4.43.36-1.25.36 5.51.36 3.04.37-4.88.36-2.64.36 3.43.36-3.49.36-3.12.37 5.36.36-1.62.36 4.24.36.65.37-.41.36-.35.36-4.78.36 9.39.36 2.72.37-2.41.36-4.28.36 10.53.36 3.56.36-1.31.37-.58.36 6.21.36-5.38.36-9.82.36-1.77.37 3.87.36-2.84.36-6.11.36 17.96.36 15.57.37-2.66.36-19.11.36 1.39.36-5.12.37-4.64.36 5.72.36-3.45.36 7.63.36-9.53.37 8.32.36 3.16.36 7.02.36-2.54.36 2.85.37-8.8.36-5.31.36 4.74.36-3.9.36-.93.37-9.88.36 4.41.36-.22.36 7.46.37 19.43.36-2.52.36-3.5.36-10.22.36-5.76.37-4.23.36-.83.36-1.14.36-.97.36 6.01.37-3.9.36-1.25.36-6.19.36 9.78.36 1.44.37-2.56.36-.2.36.54.36-1.4.36 3.68.37-5.17.36 1.41.36 1.25.36-2.44.37 10.99.36 8.11.36-10.22.36 14.06.36-12.12.37-15.77.36 8 .36-.76.36-3.26.36 2.97.37 1.14.36-7.04.36 2.41.36 2.68.36 1.78.37 2.72.36-.71.36-10.91.36 10.87.37-4.5.36-4.87.36 5.99.36 3.64.36 8.53.37 5.76.36-1.19.36.46.36 6.79.36.29.37.2.36-26.69.36 3.88.36-2.1.36 1.55.37 7.35.36-1.75.36-8.44.36-2.87.37-4.84.36 10.58.36.85.36 6.15.36-3.99.37-.46.36 4.7.36-8.68.36 8.47.36 4.7.37-8.61.36 13.38.36 7.28.36.22.36-2.99.37-22.47.36 7.7.36-1.4.36-10.05.36 6.66.37-.11.36 1.75.36-2.58.36.12.37-.94.36 1.46.36-3.4.36-3.06.36 2.39.37-3.64.36.39.36 5.52.36 17.3.36 5.63.37-4.02.36 4.71.36-21.42.36.9.36-5.45.37-4.84.36-.37.36-3.46.36 33.37.37.8.36-6.97.36 2.72.36-9.92.36-5.64.37-3.75.36 3.17.36-5.04.36-7.93.36 9.41.37 24.93.36-9.2.36-16.44.36 3.41.36.89.37-6.74.36-2.57.36.36.36 15.02.36-3.55.37 2.15.36 2.95.36-4.15.36-8.32.37 21.82.36-3.18.36-9.57.36 5.19.36 2.18.37.1.36-2.11.36-5.37.36-5.01.36 6.11.37-7.35.36-9.74.36 16.73.36 20.44.36-8.49.37-21.61.36-2.72.36-5.11.36 6.65.37 8.43.36-3.27.36-9.43.36 12.44.36 8.43.37-7.15.36 8.81.36-11.35.36 14.65.36-3.39.37-1.42.36 10.5.36-4.78.36-6.46.36-7.81.37 22.42.36-11.66.36-6.26.36-2.26.36 5.46.37-1.75.36-2.19.36-4.06.36-6.46.37 3.16.36-2.73.36-5.75.36 2.03.36 1.19.37 7.97.36 19.41.36-24.68.36 8.13.36-6.27.37 1.34.36-4.06.36 28.88.36-5.5.36-8.62.37-11.58.36-1.98.36 2.18.36 2.41.37-8.81.36.71.36-.52.36-6.12.36.78.37 31.58.36.83.36-2.72.36-10.92.36-3.73.37-2.39.36 3.15.36-6.37.36 5.7.36 19.71.37-15.25.36-.04.36-11.2.36 4.84.37 2.38.36-6.37.36-3.51.36-2.98.36 4.78.37 2.57.36 14.06.36 9.03.36.36.36-16.28.37-5.45.36.81.36-1.34.36-4.91.36 19.57.37 10.87.36-3.44.36-.21.36-12.74.36-10.85.37 8.54.36-10.48.36 18.17.36.97.37-6.18.36-7.12.36 5.31.36-1.27.36 10.34.37-.25.36-4.88.36-2.46.36-10.98.36 1.81.37.82.36 4.99.36-2.37.36-11.95.36 2.69.37 11.99.36-9.67.36-4.28.36.96.37.93.36 3.27.36-9.53.36 19.81.36 7.02.37-9.11.36-14.51.36 12.67.36 3.25.36-1.1.37-8.42.36-1.57.36 32.18.36-3.92.36-11.55.37-8.48.36-.69.36-11.36.36 14.49.36 9.6.37-.27.36-9.27.36-.53.36 3.02.37-5.99.36 17.43.36-4.96.36-4.17.36.47.37-2.64.36-4.22.36-5.12.36 10.7.36 4.74.37-9.56.36-7.79.36-1.33.36 1.95.36 5.07.37-3.08.36-3.25.36-.51.36 1.58.37-5.04.36.16.36 1.06.36 6.53.36-9.02.37 4.07.36 25.15.36-3.93.36-23.55.36 7.98.37 2.22.36-7.44.36-5.87.36 5.52.36 16.84.37-.53.36-7.17.36 6.97.36.94.36 11.37.37-8.58.36-11 .36 2.35.36 4.96.37-4.66.36-.58.36-5.86.36-1.56.36-.25.37-2.77.36-3.31.36 1.65.36-2.59.36 2.63.37-.51.36-6.88.36-4.8.36 34.56.36 9.73.37 1.87.36-15.02.36-9.98.36-7.44.37-3.79.36 25.34.36-6.16.36-2.51.36-14.75.37 5.48.36 5.13.36-9.37.36 4.32.36-2.28.37-4.28.36-.02.36.82.36.24.36 1.62.37 14.45.36-5.54.36 1.49.36-3.87.37 2.57.36-5.14.36 14.65.36-2.88.36.28.37-3.7.36-10.83.36.01.36-2.63.36 3.11.37-1.42.36-8.57.36-2.81.36 30.6.36-5.94.37.51.36-4.19.36-5.47.36-8.64.36.8.37 10.47.36.6.36-5.31.36-1.98.37-.95.36 17.88.36 6.07.36-1.41.36-19.03.37-7.13.36 9.37.36-4.04"/><use xlink:href="#ef4db__a" color="#F44336" transform="matrix(3.75 0 0 3.75 125.4 108.45)"/><use xlink:href="#ef4db__a" color="#F44336" transform="matrix(3.75 0 0 3.75 220.55 7.51)"/></g><path fill="none" d="M28 45.01V162.5M371.99 45.01H28" color="#000"/></svg>