<svg xmlns="http://www.w3.org/2000/svg" xmlns:xlink="http://www.w3.org/1999/xlink" viewBox="0 0 400 200"><path fill="none" d="M0 0h400v200H0z"/><defs><use xlink:href="#a6f85__a" id="a6f85__c" fill="currentColor" stroke="none"/><use xlink:href="#a6f85__a" id="a6f85__b" stroke="currentColor" transform="rotate(180)"/><use xlink:href="#a6f85__b" id="a6f85__d" fill="currentColor" stroke="none"/><path id="a6f85__a" stroke="currentColor" stroke-width=".267" d="m0-1.33-1.33 2h2.66z"/></defs><path fill="none" stroke="#CCC" stroke-linecap="round" stroke-linejoin="round" stroke-width=".1" d="M46.1 162.5V45.01" class="a6f85__gridline" color="#000"/><g fill="none" stroke-linecap="round" stroke-linejoin="round" stroke-width="0" color="#000"><path d="M46.1 162.5V155m0-109.99v7.5"/><text fill="#000" font-family="KaTeX_Main" font-size="8" text-anchor="middle" transform="translate(46.1 172.6)"><tspan> 1</tspan></text></g><path fill="none" stroke="#CCC" stroke-linecap="round" stroke-linejoin="round" stroke-width=".1" d="M82.31 162.5V45.01" class="a6f85__gridline" color="#000"/><g fill="none" stroke-linecap="round" stroke-linejoin="round" stroke-width="0" color="#000"><path d="M82.31 162.5V155m0-109.99v7.5"/><text fill="#000" font-family="KaTeX_Main" font-size="8" text-anchor="middle" transform="translate(82.31 172.6)"><tspan> 2</tspan></text></g><path fill="none" stroke="#CCC" stroke-linecap="round" stroke-linejoin="round" stroke-width=".1" d="M118.52 162.5V45.01" class="a6f85__gridline" color="#000"/><g fill="none" stroke-linecap="round" stroke-linejoin="round" stroke-width="0" color="#000"><path d="M118.52 162.5V155m0-109.99v7.5"/><text fill="#000" font-family="KaTeX_Main" font-size="8" text-anchor="middle" transform="translate(118.52 172.6)"><tspan> 3</tspan></text></g><path fill="none" stroke="#CCC" stroke-linecap="round" stroke-linejoin="round" stroke-width=".1" d="M154.73 162.5V45.01" class="a6f85__gridline" color="#000"/><g fill="none" stroke-linecap="round" stroke-linejoin="round" stroke-width="0" color="#000"><path d="M154.73 162.5V155m0-109.99v7.5"/><text fill="#000" font-family="KaTeX_Main" font-size="8" text-anchor="middle" transform="translate(154.73 172.6)"><tspan> 4</tspan></text></g><path fill="none" stroke="#CCC" stroke-linecap="round" stroke-linejoin="round" stroke-width=".1" d="M190.94 162.5V45.01" class="a6f85__gridline" color="#000"/><g fill="none" stroke-linecap="round" stroke-linejoin="round" stroke-width="0" color="#000"><path d="M190.94 162.5V155m0-109.99v7.5"/><text fill="#000" font-family="KaTeX_Main" font-size="8" text-anchor="middle" transform="translate(190.94 172.6)"><tspan> 5</tspan></text></g><path fill="none" stroke="#CCC" stroke-linecap="round" stroke-linejoin="round" stroke-width=".1" d="M227.15 162.5V45.01" class="a6f85__gridline" color="#000"/><g fill="none" stroke-linecap="round" stroke-linejoin="round" stroke-width="0" color="#000"><path d="M227.15 162.5V155m0-109.99v7.5"/><text fill="#000" font-family="KaTeX_Main" font-size="8" text-anchor="middle" transform="translate(227.15 172.6)"><tspan> 6</tspan></text></g><path fill="none" stroke="#CCC" stroke-linecap="round" stroke-linejoin="round" stroke-width=".1" d="M263.36 162.5V45.01" class="a6f85__gridline" color="#000"/><g fill="none" stroke-linecap="round" stroke-linejoin="round" stroke-width="0" color="#000"><path d="M263.36 162.5V155m0-109.99v7.5"/><text fill="#000" font-family="KaTeX_Main" font-size="8" text-anchor="middle" transform="translate(263.36 172.6)"><tspan> 7</tspan></text></g><path fill="none" stroke="#CCC" stroke-linecap="round" stroke-linejoin="round" stroke-width=".1" d="M299.57 162.5V45.01" class="a6f85__gridline" color="#000"/><g fill="none" stroke-linecap="round" stroke-linejoin="round" stroke-width="0" color="#000"><path d="M299.57 162.5V155m0-109.99v7.5"/><text fill="#000" font-family="KaTeX_Main" font-size="8" text-anchor="middle" transform="translate(299.57 172.6)"><tspan> 8</tspan></text></g><path fill="none" stroke="#CCC" stroke-linecap="round" stroke-linejoin="round" stroke-width=".1" d="M335.78 162.5V45.01" class="a6f85__gridline" color="#000"/><g fill="none" stroke-linecap="round" stroke-linejoin="round" stroke-width="0" color="#000"><path d="M335.78 162.5V155m0-109.99v7.5"/><text fill="#000" font-family="KaTeX_Main" font-size="8" text-anchor="middle" transform="translate(335.78 172.6)"><tspan> 9</tspan></text></g><path fill="none" stroke="#CCC" stroke-linecap="round" stroke-linejoin="round" stroke-width=".1" d="M371.99 162.5V45.01" class="a6f85__gridline" color="#000"/><g fill="none" stroke-linecap="round" stroke-linejoin="round" stroke-width="0" color="#000"><path d="M371.99 162.5V155m0-109.99v7.5"/><text fill="#000" font-family="KaTeX_Main" font-size="8" text-anchor="middle" transform="translate(371.99 172.6)"><tspan> 10</tspan></text></g><g fill="none" stroke-linecap="round" stroke-linejoin="round" stroke-width="0" color="#000"><path d="M371.99 162.5h-7.5"/><text fill="#000" font-family="KaTeX_Main" font-size="8" transform="translate(378.99 165.1)"><tspan>8.00</tspan></text></g><g fill="none" stroke-linecap="round" stroke-linejoin="round" stroke-width="0" color="#000"><path d="M371.99 151.82h-7.5"/><text fill="#000" font-family="KaTeX_Main" font-size="8" transform="translate(378.99 154.42)"><tspan>8.50</tspan></text></g><g fill="none" stroke-linecap="round" stroke-linejoin="round" stroke-width="0" color="#000"><path d="M371.99 141.14h-7.5"/><text fill="#000" font-family="KaTeX_Main" font-size="8" transform="translate(378.99 143.74)"><tspan>9.00</tspan></text></g><g fill="none" stroke-linecap="round" stroke-linejoin="round" stroke-width="0" color="#000"><path d="M371.99 130.46h-7.5"/><text fill="#000" font-family="KaTeX_Main" font-size="8" transform="translate(378.99 133.06)"><tspan>9.50</tspan></text></g><g fill="none" stroke-linecap="round" stroke-linejoin="round" stroke-width="0" color="#000"><path d="M371.99 119.78h-7.5"/><text fill="#000" font-family="KaTeX_Main" font-size="8" transform="translate(378.99 122.38)"><tspan>10.00</tspan></text></g><g fill="none" stroke-linecap="round" stroke-linejoin="round" stroke-width="0" color="#000"><path d="M371.99 109.1h-7.5"/><text fill="#000" font-family="KaTeX_Main" font-size="8" transform="translate(378.99 111.7)"><tspan>10.50</tspan></text></g><g fill="none" stroke-linecap="round" stroke-linejoin="round" stroke-width="0" color="#000"><path d="M371.99 98.41h-7.5"/><text fill="#000" font-family="KaTeX_Main" font-size="8" transform="translate(378.99 101.01)"><tspan>11.00</tspan></text></g><g fill="none" stroke-linecap="round" stroke-linejoin="round" stroke-width="0" color="#000"><path d="M371.99 87.73h-7.5"/><text fill="#000" font-family="KaTeX_Main" font-size="8" transform="translate(378.99 90.33)"><tspan>11.50</tspan></text></g><g fill="none" stroke-linecap="round" stroke-linejoin="round" stroke-width="0" color="#000"><path d="M371.99 77.05h-7.5"/><text fill="#000" font-family="KaTeX_Main" font-size="8" transform="translate(378.99 79.65)"><tspan>12.00</tspan></text></g><g fill="none" stroke-linecap="round" stroke-linejoin="round" stroke-width="0" color="#000"><path d="M371.99 66.37h-7.5"/><text fill="#000" font-family="KaTeX_Main" font-size="8" transform="translate(378.99 68.97)"><tspan>12.50</tspan></text></g><g fill="none" stroke-linecap="round" stroke-linejoin="round" stroke-width="0" color="#000"><path d="M371.99 55.69h-7.5"/><text fill="#000" font-family="KaTeX_Main" font-size="8" transform="translate(378.99 58.29)"><tspan>13.00</tspan></text></g><g fill="none" stroke-linecap="round" stroke-linejoin="round" stroke-width="0" color="#000"><path d="M371.99 45.01h-7.5"/><text fill="#000" font-family="KaTeX_Main" font-size="8" transform="translate(378.99 47.61)"><tspan>13.50</tspan></text></g><path fill="none" d="M28 45.01V162.5M371.99 45.01H28" color="#000"/><text stroke-linecap="round" stroke-linejoin="round" stroke-width="0" color="#000" font-family="KaTeX_Main" font-size="10" text-anchor="middle" transform="rotate(-90 57.63 46.13)"><tspan font-weight="bold">Duration </tspan><tspan> in milliseconds</tspan></text><text stroke-linecap="round" stroke-linejoin="round" stroke-width="0" color="#000" font-family="KaTeX_Main" font-size="10" text-anchor="middle" transform="translate(199.99 195.75)"><tspan>Operations / 10</tspan><tspan dy="-5" font-size="8">6</tspan></text><text stroke-linecap="round" stroke-linejoin="round" stroke-width=".5" color="#000" font-family="KaTeX_Main" font-size="8" transform="translate(110.4 10.11)"><tspan>AVLBottomUp</tspan></text><g fill="none" stroke="currentColor" stroke-linecap="round" stroke-linejoin="round" stroke-width=".5" color="#000"><path stroke="#000" d="M74.9 7.51h29.9M28 144.76l.36 7.24.36-3.06.37-4.78.36 3.35.36 3.36.36-8 .36-1.21.37 3.95.36 3.56.36-1.09.36-7.36.37-1.12.36 2.56.36 3.3.36-11.4.36 15.15.37-16.03.36 6.01.36-.09.36.3.36-3.71.37 3.31.36-4.84.36 11.33.36-16.43.36-.18.37 5.77.36 7.72.36-15.58.36-.89.36 7.83.37 7.23.36-23.23.36 15.04.36-.48.37 3.25.36-15.93.36 11.54.36.62.36-.59.37-11.71.36 14.22.36-4.18.36-3.37.36-4.36.37 11.51.36-3.45.36-4.91.36-4.81.36 11.48.37-48.65.36 20.41.36-7.47.36-.32.37 7.33.36-3.96.36 2.76.36.2.36-16.47.37 18.44.36-10.86.36 6.97.36.72.36-7.92.37 3.33.36-.34.36 4.4.36-.23.36-3.98.37-7.78.36 7.07.36 2.94.36 1.51.37-3.65.36-.12.36.08.36-.8.36 4.5.37-4.04.36-.02.36-.3.36.83.36 6.71.37-10.15.36 7.07.36-7.05.36 3.42.36 3.4.37.36.36-3.98.36-.35.36-3.29.36 3.51.37 7.95.36-7.58.36-4.19.36 7.92.37-.2.36-7.59.36 7.37.36-3.62.36-.36.37 3.89.36-7.65.36 4.23.36 3.48.36.62.37-3.91.36.43.36-4.62.36 11.22.36-3.57.37-7.65.36 3.57.36-.05.36-.27.37 4.7.36 3.12.36-10.97.36-.28.36-.51.37 11.22.36-4.9.36 1.44.36-4.58.36-6.74.37 10.81.36.37.36.32.36-7.63.36 7.34.37-8.12.36 7.75.36.02.36-3.79.36-.22.37-3.28.36 7.82.36-4.49.36 7.72.37-11.4.36 7.51.36-11.45.36 10.76.36.4.37-.15.36-4.21.36.54.36-7.01.36 10.9.37-.55.36.44.36-3.29.36-7.75.36 11.34.37-3.89.36 7.64.36-11.69.36 7.89.37-7.81.36 4.19.36 4.04.36-.1.36-4.65.37 1.32.36-1.14.36-3.8.36 11.46.36-11.45.37 3.66.36 4.04.36-3.21.36.09.36.42.37-.19.36 3.69.36.27.36-3.92.36-4.24.37.61.36 7.06.36-.09.36 3.59.37-11.12.36 3.97.36-7.91.36 14.99.36-3.45.37-3.18.36 3.27.36-7.45.36-.58.36 11.8.37-7.33.36 7.41.36-14.84.36 3.9.36 7.48.37-.42.36.63.36 3.81.36-15.47.37-.47.36 11.38.36 3.48.36-3.73.36-3.99.37-7.4.36 3.59.36 11.1.36.32.36-8.37.37-2.61.36-4.24.36 11.17.36 3.87.36-3.7.37.45.36-15.43.36 10.92.36 3.17.37 5.02.36-7.8.36.26.36-12.25.36 15.21.37 3.71.36-3.27.36-3.74.36-3.7.36-.39.37 7.79.36.43.36.01.36.3.36-15.47.37 15.35.36-.37.36-3.9.36 8.32.36-11.65.37.23.36 8.03.36-4.13.36 3.49.37-3.41.36 3.5.36-3.9.36-3.74.36 7.4.37.67.36-4.2.36-.45.36-.01.36-.18.37-.25.36-3.79.36 11.28.36-6.87.36 3.04.37-7.74.36 3.2.36.56.36 5.73.37-9.66.36 4.32.36-.55.36-3.4.36 11.16.37-3.1.36-4.28.36-3.57.36 3.93.36-.45.37 8.16.36-7.94.36-3.25.36-.35.36 7.42.37.29.36.7.36-3.89.36.73.36-4.73.37 8.62.36-.17.36-4.27.36 3.42.37-7.53.36 4.15.36 3.28.36-3.94.36 3.45.37.59.36-15.31.36 14.21.36.31.36-3.85.37 3.53.36-3.33.36-4.15.36 8.01.36-3.52.37.03.36 8.06.36-15.53.36 11.6.37-3.73.36 3.58.36-4.39.36 4.35.36-11.69.37 14.49.36-6.67.36-.01.36-.12.36.06.37 3.62.36-7.56.36 12.01.36-12.38.36 7.6.37-8.96.36 7.71.36-3.32.36.58.36.03.37 3.42.36-7.25.36 3.45.36.12.37 3.97.36.93.36-7.55.36 7.58.36-3.67.37-.17.36-.65.36 4.16.36-3.13.36-3.67.37 7.4.36-.3.36-4.27.36-3.19.36 3.86.37-1.22.36 8.19.36-7.59.36.28.37-4.35.36 4.22.36 2.83.36 4.8.36-7.53.37-4.51.36.31.36 7.78.36.46.36-.39.37-10.29.36 2.89.36 10.78.36-2.98.36-4.22.37 4.12.36-15.48.36 14.32.36 1.16.37.18.36-.37.36-3.37.36-8.11.36 11.45.37.52.36-3.61.36 3.56.36-7.09.36 3.27.37 3.8.36-3.66.36-.24.36 7.49.36-15.09.37 10.22.36-2.58.36-3.55.36 10.22.36-6.52.37 3.49.36-8.4.36 3.67.36.04.37 8.35.36-7.21.36-.27.36-3.61.36-.47.37 11.55.36-7.28.36 4.17.36-4.2.36-3.2.37 3.22.36 7.93.36-7.81.36 3.68.36-11.4.37 7.58.36 3.98.36-.53.36-3.76.37 4.05.36-7.66.36 3.77.36 3.56.36-7.72.37 11.95.36-7.76.36-3.49.36 3.53.36-.61.37 4.36.36.24.36-8.1.36 3.35.36.57.37 3.44.36.67.36-7.9.36.3.36 12.37.37-7.7.36-.22.36 4.19.36-4.44.37-3.52.36 7.72.36-.59.36-3.69.36 4.19.37-3.83.36-3.9.36 3.52.36 3.08.36.81.37-7.72.36 3.35.36.67.36 3.17.36-3.54.37.07.36 4.19.36-7.38.36 7.52.37-4.36.36 4.22.36-.25.36-7.44.36 3.15.37 3.75.36-7.03.36 7.08.36.69.36-11.69.37 14.35.36-7.46.36.49.36 3.45.36-3.82.37-4.09.36 7.42.36-.12.36-3.45.37 4.42.36-11.42.36 11 .36-3.55.36 3.69.37.02.36-7.6.36.02.36 7.67.36 3.15.37-10.94.36 7.75.36-11.09.36 10.45.36.46.37.18.36-7.27.36 3.75.36-4.3.36 11.73.37-3.68.36-7.93.36 4.2.36-.19.37.23.36 7.59.36-3.45.36-7.89.36.12.37 3.15.36 3.82.36.06.36-3.2.36-.31.37-.08.36 3.42.36-3.26.36.45.36.37.37 3.68.36-4.38.36 3.55.36-11.66.37 14.94.36-11.51.36 10.83.36-10.38.36-4.04.37 15.46.36-3.91.36-3.98.36 7.1.36-18.25.37 10.51.36 4.35.36-3.42.36 7.39.36-11.04.37-.03.36 7.29.36-.29.36-3.84.36 3.7.37-7.09.36 3.67.36 4.26.36-7.81.37 7.05.36-4.04.36.21.36 4.01.36-3.63.37-3.34.36 7.5.36-.3.36-4.17.36 4.36.37-11.08.36 6.64.36 6.18.36-7.6.36 1.84.37-.13.36-.02.36.26.36 3.23.37-7.43.36 6.72.36-4.69.36 5.01.36-4.47.37 4.32.36-7.79.36-1.37.36 7.05.36-3.19.37 2.86.36-3.16.36-6.33.36 8.91.36 1.37.37-2.44.36.84.36 3.3.36-11.37.36 15.9.37-11.18.36 7.81.36-.36.36-11.04.37 11.24.36 3.97.36-14.46.36 14.63.36-4.79.37-12.96.36 14.42.36-7.65.36 7.5.36 3.59.37-11.85.36 3.72.36.89.36-4.04.36 11.21.37-3.67.36-8.08.36 8.33.36-8.05.37 3.78.36 6.81.36-13.06.36 4.33.36 1.31.37.06.36 3.97.36.29.36-7.81.36.45.37 11.06.36-6.71.36-.4.36 4.2.36-8.77.37 3.84.36 4.43.36-5.28.36 3.88.37-10.87.36 15.58.36-7.14.36-1.39.36 1.13.37-4.06.36 7.55.36-3.05.36 3.93.36 4.3.37-23.78.36 22.19.36-3.25.36.43.36-4.12.37-7.02.36 7.72.36 3.52.36 3.33.36-7.36.37-.8.36-9.15.36 11.95.36 1.23.37.47.36-.53.36-11.41.36 7.55.36.27.37 7.93.36-3.89.36-14.3.36 14.08.36-3.42.37 3.82.36 3.43.36-12.6h.36l.36 4.23.37 4.14.36 1.09.36-4.76.36 1.62.37-8.71.36 13.6.36-4.55.36 1.42.36-6.84.37.03.36 3.73.36 7.08.36-3.85.36-3.41.37-8.26.36 7.82.36 4.41.36 3.53.36-8.53.37-.45.36-10.08.36 19.21.36-4.01.36 3.6.37-14.65.36 7.5.36-3.75.36 11.29.37-4.45.36-6.66.36 3.92.36-5.04.36 7.14.37 1.08.36-.85.36-5.26.36-4.78.36.24.37 12.87.36-9.58.36 4.29.36-11.52.36 9.24.37 4.71.36-3.25.36 7.01.36-3.44.37-11.67.36 4.25.36 8.06.36-.34.36.43.37-3.74.36-4.08.36 3.79.36.03.36 7.51.37-7.34.36 3.92.36-11.96.36 7.48.36 3.57.37 4.76.36-7.84.36-3.66.36 3.94.36.05.37 3.86.36-.26.36-7.66.36 3.56.37 7.66.36-15.54.36 15.43.36-7.05.36-.23.37-.26.36-3.18.36 6.6.36 4.09.36-10.82.37 2.73.36 3.58.36-10.82.36 14.11.36-5.88.37-4.04.36 10.54.36-3.15.36-7.36.37 8.06.36-.01.36-11.89.36 10.85.36.64.37-7.86.36 11.37.36-15.37.36 11.27.36.14.37-11.06.36 14.9.36-7.4.36-4.14.36 7.36.37 4.17.36-15.38.36 11.91.36-4.01.37.15.36 4.01.36-3.59.36-.74.36-3.1.37 10.25.36-11.6.36 8.09.36-3.44.36.12.37.29.36 3.83.36.25.36-3.47.36-7.61.37 14.61.36-7.77.36 3.35.36-4.25.36 4.5.37-11.5.36 15.35.36-7.73.36-3.91.37 8.36.36-8.35.36 7.82.36-.24.36-8.19.37 7.67.36-3.06.36-.32.36 4.17.36-3.45.37-4.62.36 7.72.36-7.53.36 6.96.36.68.37-3.32.36-.52.36-.06.36 3.66.37-3.81.36-3.2.36 3.32.36 4.39.36-3.26.37 4 .36-3.67.36-.44.36-3.84.36 11 .37-11.59.36 7.35.36-3.74.36 3.89.36-8.14.37 7.92.36-3.91.36-7.5.36 14.62.36-10.37.37 7.42.36-3.87.36 4.01.36-8.3.37 10.86.36-14.88.36 8.06.36 4.34.36-4.02.37 3.59.36-3.41.36-.1.36-.37.36-.2.37 3.88.36-3.95.36.4.36.13.36-3.81.37 7.63.36-4.09.36 4.83.36-.26.37-3.96.36-7.43.36 11.03.36-3.63.36 7.69.37-7.55.36 3.39.36-15.25.36 19.36.36-7.77.37.47.36 3.38.36-3.6.36-4.03.36 3.31.37 8.04.36-7.55.36 3.97.36-12.2.36 7.63.37 3.44.36-3.66.36 7.65.36-12.17.37-3.06.36 15.17.36-6.62.36 3.16.36.31.37-16.9.36 15.25.36-3.16.36 8.09.36-3.55.37-7.19.36-4.13.36 11.29.36-.28.36 3.89.37-6.05.36-9.47.36 5.8.36 8 .37-6.6.36 4.59.36-11.96.36 7.96.36 4.55.37 2.8.36-3.59.36-11.14.36 3.68.36 4.69.37 7.47.36-3.9.36-.01.36-10.44.36 3.22.37 7.76.36 2.24.36-3.31.36-11.69.37 12.25.36-7.62.36 8 .36-.06.36-4.1.37.47.36 2.95.36-9.64.36 8.47.36 4.87.37-14.75.36 11.12.36-7.4.36 6.92.36.75.37-4.31.36-.86.36 5.42.36-11.9.36 11.72.37-1.11.36-3.54.36.29.36-4.41.37 7.89.36.63.36-4.94.36.21.36.44.37-3.87.36 7.77.36-3.61"/><use xlink:href="#a6f85__c" transform="matrix(3.75 0 0 3.75 354.25 98.1)"/><use xlink:href="#a6f85__c" transform="matrix(3.75 0 0 3.75 89.85 7.51)"/></g><text stroke-linecap="round" stroke-linejoin="round" color="#000" font-family="KaTeX_Main" font-size="8" transform="translate(110.4 25.11)"><tspan>AVLTopDown</tspan></text><g fill="none" stroke="currentColor" stroke-linecap="round" stroke-linejoin="round" color="#000"><path stroke="#29C3F6" stroke-dasharray="2.5,4.0" d="M74.9 22.51h29.9M28 142.47l.36 3.09.36.99.37-.66.36-4.39.36 3.02.36 3.12.36-.38.37-7.7.36-1.62.36 3.25.36 4.56.37-8.07.36 6.75.36-8.86.36-.45.36 7.45.37-8.6.36 3.24.36-8.84.36 10.7.36.5.37-4.32.36-8.5.36 3.61.36 7.18.36-3.66.37-9.49.36 7.14.36-.49.36-4.47.36-3.65.37 11.07.36-3.93.36-7.45.36 2.71.37-.66.36 7.94.36-12 .36 7.54.36-3.85.37 7.74.36-12.17.36 2.69.36 4.12.36.47.37-3.8.36 3.74.36-4.51.36 6.51.36-15.29.37-28.62.36 15.04.36-7.17.36 11.38.37-19.43.36 14.44.36-.46.36-4.25.36 3.44.37-3.71.36-8.85.36 15.52.36-11.37.36 7.56.37.69.36-4.7.36-3.6.36 3.52.36.2.37 7.15.36-7.51.36-.03.36-4.04.37 7.88.36-3.67.36 3.63.36-7.47.36 4.19.37 2.95.36-3.9.36.09.36 4.08.36-7.81.37 4.12.36 7.96.36-7.08.36-.85.36-3.39.37 3.14.36 3.9.36.19.36-3.86.36-.27.37 3.97.36-11.21.36 10.97.36 3.43.37-14.62.36 10.98.36.18.36-11.57.36 15.52.37-3.51.36-8.45.36 8.28.36-7.52.36 7.22.37-3.67.36 4.27.36-4.06.36-.93.36-2.94.37 10.88.36-3.63.36-6.84.36 3 .37.21.36-1 .36 4.45.36 3.81.36-7.62.37-7.88.36 6.72.36 4.57.36-.87.36 1.14.37-4.15.36-7.23.36 11.1.36-.27.36.56.37-4.49.36.37.36-4.16.36 4.33.36 7 .37-6.78.36-.01.36-4.33.36 7.36.37-3.73.36 8.2.36-11.55.36 3.63.36-3.92.37 7.2.36.13.36-.36.36-3.19.36-.88.37-7.64.36 15.25.36-8.28.36 4.42.36-6.79.37 3.37.36-.55.36.65.36 7.28.37-10.9.36 7.42.36-6.94.36 6.77.36-3.65.37.37.36 3.06.36-3.41.36-.7.36-3.76.37 11.85.36-15.13.36 11.69.36.2.36.34.37-7.21.36 7.56.36-7.88.36 7.51.36.12.37-3.63.36-3.92.36-4.69.36 15.19.37-3.46.36 3.72.36-11.24.36 3.56.36-7.98.37 15.61.36-3.9.36.39.36-4.09.36-3.73.37.4.36 10.97.36-7.17.36 8.09.36-15.6.37 11.45.36-8.24.36 8.24.36-.32.37 3.45.36-14.83.36-.85.36 11.46.36 3.65.37.22.36-10.66.36-4.31.36 3.28.36 11.44.37.44.36-7.62.36.28.36-11.61.36 15.19.37 3.67.36-3.86.36-3.76.36-7.6.37 7.43.36 3.13.36 4.71.36-11.99.36 11.65.37-22.7.36 22.57.36-3.31.36-3.96.36 3.76.37-4.49.36-6.13.36 11.1.36-.05.36.13.37-3.62.36-4.36.36 4.15.36.23.36 2.97.37 5.13.36-11.34.36 3.9.36-.56.37.32.36 3.35.36-3.49.36-.67.36 3.52.37-2.77.36-4.3.36 11.4.36-11.55.36 7.31.37-3.44.36-.35.36-.29.36-3.15.36 10.49.37-7.21.36 3.46.36-7.78.36 4.27.37.42.36 7.7.36-11.45.36 3.12.36.51.37-4.02.36 10.99.36-2.88.36-4.63.36-3.48.37 3.57.36.23.36 3.82.36-.07.36-6.95.37-.18.36 7.85.36.24h.36l.36-3.85.37.54.36-4.23.36 7.47.36-3.98.37 3.3.36.64.36-8.35.36 3.47.36 3.96.37-3.43.36.08.36 7.22.36-19.12.36 14.89.37.03.36-3.12.36 3.6.36-3.58.36-4.08.37 7.22.36-2.84.36.18.36 6.99.37-15.14.36 11.16.36-3.62.36 3.02.36-3.46.37 3.37.36-6.52.36 7.16.36-3.5.36-.84.37.55.36-.31.36 4.62.36-8.5.36 11.16.37-11.49.36 7.94.36-7.35.36 6.98.36-3.4.37-.06.36-.63.36 3.94.36-6.76.37 3.24.36 4.01.36-3.47.36 4.03.36-7.6.37 7.2.36-7.9.36 11.91.36-11.13.36 8.12.37-4.35.36-3.98.36 7.64.36-.36.36-3.19.37-3.64.36.08.36 10.81.36-3.72.37-4.03.36-3.7.36 3.77.36-.02.36 3.88.37.08.36-4.12.36-3.9.36 4.4.36 2.89.37 1.06.36.14.36-7.93.36-4.29.36 14.93.37-2.85.36.05.36-7.66.36-3.83.37 11.29.36.09h.36l.36.57.36-3.67.37-7.54.36 11.22.36.33.36-4.18.36 3.32.37-7.2.36 3.57.36 4.04.36-.16.36-7.89.37 11.23.36-11.46.36 3.75.36.73.36-3.87.37 11.15.36-8.24.36 3.72.36-7.92.37 3.99.36.46.36 8.09.36-7.97.36-.14.37-6.89.36 6.78.36 8.29.36-7.21.36 3.71.37-.03.36-15.62.36 14.81.36 3.46.36-11.01.37 11.02.36-14.28.36 6.75.36 4.56.37-4.13.36 3.78.36.05.36-7.17.36 3.86.37 3.94.36-4.34.36 4.18.36.47.36-12.84.37 7.4.36.74.36 3.7.36-.12.36-11.22.37 11.2.36-3.64.36 4.02.36.15.36-6.42.37-.31.36 10.82.36-7.08.36-.58.37 4.28.36-3.9.36-4.37.36 7.54.36-3.45.37 3.38.36.05.36-3.61.36-.32.36-4.41.37 8.08.36-.58.36-3.23.36-3.91.36 7.63.37-3.45.36 4.29.36-4.05.36.21.37-4.51.36 8.63.36-4.34.36 3.47.36.48.37-7.66.36 3.36.36 3.79.36-7.18.36 7.14.37.4.36-11.22.36 14.69.36-7.64.36 3.61.37-3.37.36-.79.36-4 .36 8.2.37-.13.36-3.74.36 4.12.36-11.63.36 11.7.37.05.36-3.76.36 3.47.36-11.67.36 7.43.37 3.74.36 4.44.36-11.37.36 3.67.36-4.55.37 8.07.36 4.2.36-7.58.36-3.69.36 3.92.37-3.99.36 11.47.36-3.56.36-7.33.37 3.42.36-.06.36-.31.36 7.56.36-3.25.37-8.22.36.19.36 7.42.36-4.12.36 4.39.37-.18.36-7.52.36 3.82.36 4.11.36-3.73.37.11.36 3.72.36-3.64.36-4.14.37 9.76.36-15 .36 15.85.36-10.9.36 11.16.37-7.03.36-11.21.36 18.43.36-4.3.36-3.51.37 7.32.36-22.52.36 18.74.36 3.28.36-10.23.37 10.9.36-14.98.36 6.73.36 4.66.36-.37.37-3.45.36-.03.36.03.36-.25.37 4.54.36-7.79.36 8.05.36-4.21.36-.14.37 3.8.36-3.85.36-3.68.36 7.12.36 4.3.37-11.13.36 7.45.36-11.52.36 6.31.36 8.39.37-7.72.36-.16.36 4.37.36-8.39.37 3.67.36 4.49.36-8.13.36 8.01.36-4.81.37.01.36.78.36 3.78.36-7.28.36 3.48.37 4.03.36-.09.36-4 .36-.06.36-3.9.37 3.62.36 3.58.36-3.52.36.12.36.83.37-.88.36 4.79.36-7.78.36 6.97.37-.12.36-10.29.36 11.23.36 4.12.36-15.24.37 14.91.36-3 .36-12.05.36 15.16.36-14.97.37 11.08.36 3.98.36-10.67.36 3.14.36.26.37-3.89.36 11.13.36-3.27.36-7.94.37 7.45.36-8.06.36 3.88.36 7.09.36-7.18.37.1.36-3.59.36 3.86.36 3.95.36-.34.37-7.12.36-.1.36 11.24.36-7.7.36-.11.37-.02.36-.74.36.04.36 3.69.37-3.34.36 3.8.36-11.37.36 15.27.36-7.01.37 3.97.36-8.08.36.46.36 7.37.36 4.4.37-12.12.36 11.58.36-23.51.36 23.2.36-3.91.37.68.36-3.98.36-7.47.36 7.52.36 3.56.37 4 .36-8.13.36-.02.36-7.69.37 11.3.36.4.36-.45.36-3.21.36-4.53.37 3.66.36 4.06.36.96.36.09.36-15.54.37 11.31.36 3.36.36-.45.36 4.71.36-11.34.37.08.36 3.8.36 3.68.36.04.37-3.83.36 4.01.36-11.67.36 10.74.36.83.37-.64.36-7.18.36-.42.36 3.11.36 8.04.37-4.34.36-3.27.36-6.69.36 6.23.36 4.5.37 3.78.36-7.25.36-3.74.36-4.11.36 14.47.37-3.17.36 3.42.36-10.98.36-3.83.37 6.82.36 8.12.36-3.08.36-4.13.36-7.41.37 7.67.36 3.25.36.51.36-.01.36-3.34.37-4.57.36-.53.36 12.33.36-8.07.36 3.86.37-3.83.36-7.42.36 11.07.36-3.44.37 7.78.36-3.51.36-7.12.36-.64.36 4.41.37 3.74.36-.72.36.41.36-11.39.36 10.97.37-6.75.36 10.37.36-3.15.36-3.79.36-8.16.37 8.47.36 3.45.36 3.81.36-3.51.36-11.06.37 10.75.36-7.56.36 7.6.36.36.37-7.52.36 3.27.36 7.07.36-14.99.36 15.93.37-7.22.36-1.09.36.44.36.07.36.04.37 7.23.36-7.55.36-3.73.36 6.7.36-10.48.37 15.51.36-4.02.36-11.2.36 15.5.37-3.1.36-8.28.36 7.07.36-3.88.36-4.37.37 7.8.36-.11.36-7.34.36 11.5.36-11.4.37 2.93.36 4.41.36-11.11.36 14.64.36-7.33.37.01.36-.38.36 7.77.36-14.56.37 11.34.36-3.8.36-.15.36 4.02.36.2.37-8.28.36.18.36 11.09.36-11.16.36 8.14.37-3.75.36-.89.36.76.36 4.29.36-4.22.37 3.74.36-10.97.36 14.04.36-7.38.36 3.98.37-3.69.36.46.36-4.4.36 11.13.37-7.1.36-4 .36 7.43.36-8 .36 7.24.37.21.36-7.2.36 7.78.36-3.57.36-.32.37 3.83.36-7.45.36 2.77.36 4.4.36-4.25.37.85.36 4.21.36-4.23.36-.22.37.15.36 3.75.36-3.37.36-3.73.36 3.88.37 3.71.36-3.01.36 2.84.36-3.98.36-.05.37-.26.36-.21.36.26.36 3.43.36-7.77.37 11.36.36-11.52.36 7.39.36-3.24.36-7.51.37 14.91.36-7.09.36-.39.36-.32.37.36.36.12.36 3.53.36-3.24.36-3.76.37 3.82.36 3.59.36.22.36-3.79.36-.31.37.3.36-3.82.36 8.18.36-.54.36-.18.37-7.49.36 4.4.36-.2.36.46.37 3.42.36-.15.36-3.43.36-7.55.36 10.68.37-3.35.36 7.87.36-7.92.36 3.81.36-15.11.37 19.18.36-7.66.36-.28.36 4.02.36-3.95.37-3.71.36 3.33.36 8.2.36-8.14.36 3.92.37-11.44.36 7.68.36 3.93.36-3.68.37 7.08.36-10.94.36-.38.36 7.73.36-3.54.37 3.35.36.25.36-15.61.36 15.43.36.52.37-.24.36-.08.36-7.54.36-4.24.36 11.66.37.19.36 4.33.36-7.36.36-8.2.37 7.58.36 7.59.36-7.36.36 3.72.36-15.11.37 15.08.36-.25.36 3.88.36-3.72.36-10.77.37 3.16.36 8.01.36.13.36-.03.36.45.37-11.87.36 3.5.36 7.87.36 3.81.37-3.83.36-10.4.36 14.72.36-15.65.36 11.26.37 3.97.36-7.86.36-3.91.36 7.2.36-7.66.37 7.64.36.38.36-7.47.36 7.15.36-7.07.37 6.77.36-.17.36-3.45.36-3.8.36 7.29.37-7.32.36 7.29.36 3.91.36-11.01.37 3.32.36-7.77.36 15.12.36-3.98.36-7.22.37 7.15.36-3.59.36-3.62"/><use xlink:href="#a6f85__d" color="#29C3F6" transform="matrix(3.75 0 0 3.75 67.83 93.03)"/><use xlink:href="#a6f85__d" color="#29C3F6" transform="matrix(3.75 0 0 3.75 89.85 22.51)"/></g><text stroke-linecap="round" stroke-linejoin="round" color="#000" font-family="KaTeX_Main" font-size="8" transform="translate(241.1 10.11)"><tspan>RedBlackBottomUp</tspan></text><g fill="none" stroke="currentColor" stroke-linecap="round" stroke-linejoin="round" color="#000"><path stroke="#F44336" d="M205.6 7.51h29.9M28 131.7l.36-13.15.36 7.78.37 6.12.36-19.39.36 10.18.36 2.45.36-8.71.37 3.16.36-.14.36-4.92.36 2.91.37-3.88.36-5.22.36 15.46.36-14.91.36 2.54.37 11.16.36-19.85.36 6.4.36 11.47.36-23.62.37 19.59.36-1.25.36-16.25.36 14.68.36-2.3.37-7.98.36 11.76.36-3.66.36-11.78.36 15.35.37-4.62.36-11.83.36 19.15.36-7.42.37-12.81.36 11.3.36 7.04.36-20.07.36 11.22.37 9.01.36-19.81.36 10.88.36-5.27.36 2.83.37.81.36-7.27.36 11.11.36-8.1.36-8.26.37-14.88.36 3.69.36 3.61.36-12.29.37 18.82.36-15.32.36 10.87.36-15.6.36 7.07.37 6.84.36-3.9.36-8.29.36 3.4.36 7.93.37-8.09.36-8.71.36 11.02.36.78.36.2.37-8.49.36 7.95.36-.29.36 1.05.37-11.56.36 11.24.36.62.36-11.9.36 15.27.37-3.57.36.1.36-11.65.36 10.79.36.23.37 4.16.36-19.32.36 14.61.36.69.36.58.37-7.94.36 3.16.36 7.85.36-4.11.36-10.77.37 7.26.36 11.11.36-11.51.36-11.3.37 17.94.36-3.38.36-4.37.36-3.63.36 11.78.37-4.07.36-11.53.36 7.63.36 3.33.36 3.93.37-11.44.36 4.12.36 3.77.36-4.42.36-3.21.37 3.08.36 7.92.36-7.57.36-7.53.37 14.89.36-7.99.36 7.87.36-19.3.36 10.89.37 11.53.36-18.37.36 10.51.36-3.92.36 3.98.37-11.49.36 7.57.36 11.28.36-14.54.36 3.31.37-.67.36 4.4.36-6.69.36-1.03.36 7.39.37 4.05.36-22.84.36 25.71.36-6.87.37.87.36-15.75.36 15.43.36 7.11.36-26.65.37 14.71.36 11.84.36-10.55.36-4.08.36 4.09.37 11.21.36-26.1.36 18.65.36 3.65.36.25.37-22.7.36 21.65.36-3.62.36-7.09.37-.71.36 7.9.36-.04.36-11.44.36 10.57.37 1.18.36-.68.36-11.27.36 15.74.36-7.37.37-11.49.36 21.82.36-10.8.36 2.92.36-11.53.37 12.1.36 3.85.36-14.98.36 11.17.36.03.37-7.91.36.47.36 7.43.36 8.11.37-22.51.36 6.74.36 14.36.36-21.19.36 17.75.37-7.26.36 7.7.36-15.05.36 8.2.36 6.95.37-14.56.36 11.01.36-3.94.36-6.81.36 14.15.37-7.33.36 4.16.36-7.81.36 7.78.37.04.36-10.78.36 8.03.36 7.03.36-14.95.37 11.36.36-4.5.36 8.43.36-12.01.36-.45.37 10.97.36-6.78.36-11.43.36 22.31.36-3.36.37-19.35.36 10.78.36 12.42.36-22.97.37 10.85.36 7.16.36-6.72.36-8.15.36 10.92.37 4.56.36-19.43.36 14.96.36 4.17.36-8.01.37-6.77.36 11.08.36-.2.36-15.03.36 18.97.37-3.75.36-3.25.36-4 .36 7.77.36-7.79.37 5.63.36-2.54.36.09.36-.22.37.12.36.19.36.19.36.07.36-.23.37.86.36 2.96.36-8.03.36 3.61.36 3.98.37.43.36-11.96.36 11.62.36 5 .36-22.84.37 22.1.36-3.4.36-.01.36-12.29.37 12.26.36 3.6.36-19.58.36 11.84.36 7.76.37-14.9.36 10.62.36.71.36-4.15.36-4.29.37 3.08.36 8.35.36-15.32.36 11.52.36.29.37-11.66.36 8.19.36 7.42.36-6.78.36-8.36.37 15.02.36-7.62.36-.06.36-3.99.37 10.92.36-15.24.36 7.9.36 4.37.36-7.18.37 6.96.36-3.31.36 3.2.36-11.33.36 15.62.37-11.48.36 7.56.36-3.77.36-3.08.36 2.87.37 4.7.36-3.58.36-4.07.36 7.54.37-.4.36-7.72.36 4.09.36 3.71.36-3.71.37-4.26.36 7.22.36.72.36-11.55.36 11.49.37.1.36-11.45.36 8.1.36 10.3.36-18.38.37 7.5.36 3.71.36-.03.36-11.65.36 7.36.37 7.91.36-15.22.36 11.23.36-.11.37-7.69.36.37.36 6.43.36-3.23.36-3.81.37 6.7.36.52.36-15.43.36 18.99.36-7.48.37-3.12.36 3.73.36 4.04.36-4.02.36-3.78.37 7.19.36.41.36-14.4.36 13.7.37 4.96.36-7.24.36-12.4.36 23.68.36-7.61.37-19.06.36 22.24.36.49.36-19.12.36 11.09.37 12.16.36-18.93.36 7.32.36 3.71.36-3.6.37-3.97.36 7.69.36-3.84.36-.04.37 4.05.36-.52.36-14.63.36 18.93.36-3.25.37-11.09.36 7.09.36 8.07.36-7.13.36-8.06.37 14.96.36-8.43.36.31.36.19.36 3.54.37-11.58.36 10.83.36-3.17.36.69.36-1.33.37 1.04.36 7.55.36-18.83.36 18.76.37-3.67.36-11.16.36 7.08.36 8.06.36-15.38.37 7.34.36 6.97.36-7.01.36-.78.36-3.47.37 7.84.36-7.8.36 3.53.36 3.31.36-2.41.37-3.28.36 10.96.36-7.27.36-11.52.37 22.43.36-11 .36.53.36-4.41.36 11.1.37-11.2.36 3.54.36-.25.36 4.41.36-3.78.37-7.14.36 18.66.36-15.26.36 3.58.36-.63.37 1.02.36 2.83.36-10.84.36 14.59.36-2.7.37-4.36.36-4.44.36 4.58.36 3.84.37-11.02.36 10.8.36 3.72.36-11.02.36 3.59.37-.62.36.47.36.09.36.2.36 3.73.37-.22.36-7.52.36 3.89.36-.5.36.1.37.31.36 3.61.36-10.95.36 14.47.37-6.87.36 3.65.36-7.84.36 7.94.36-7.85.37-.37.36 11.3.36-3.77.36-15.5.36 15.3.37 7.08.36-26.02.36 15.01.36 10.88.36-13.95.37-4.36.36 15.84.36-11.57.36 6.98.37-7.61.36 15.07.36-18.85.36.73.36 18.84.37-14.9.36 3.27.36.41.36-.28.36-.97.37 7.83.36-15.48.36 12.04.36-4.67.36-7.85.37 16.04.36-7.81.36-3.38.36 6.87.36-2.71.37.83.36-3.87.36 7.96.36-4.18.37-3.8.36 11.49.36-7.76.36-4.14.36 3.63.37 4.55.36-3.81.36-3.93.36 11.25.36-10.79.37 6.62.36-7.42.36 11.71.36-7.38.36-7.46.37 14.96.36-7.42.36-7.31.36 14.45.37-3.79.36-3.62.36-3.44.36 4.32.36 3.29.37-4.05.36-7.63.36 18.09.36-15.22.36 7.85.37-8.07.36 7.6.36-4.15.36-4.12.36 8.34.37-3.67.36-3.34.36 6.68.36-3.7.36-.37.37-.2.36-.1.36.61.36-3.32.37 3.5.36-.33.36 4.16.36-.39.36-3.61.37-2.76.36 7.06.36-6.59.36 6.71.36-4.03.37 1.1.36-4.9.36 12.12.36-7.44.36-4.24.37 8.25.36-3.56.36-4.38.36 3.94.37 3.38.36-3.34.36-4.31.36 10.91.36-7.82.37.43.36.05.36-.11.36.63.36-4.11.37 2.92.36 8.04.36-11.81.36 3.8.36.41.37 3.53.36-7.97.36-.14.36 15.47.36-18.53.37 3.45.36 11.45.36-11.41.36-.23.37 11.57.36-7.07.36-8.3.36 12.24.36 7.68.37-22.69.36 6.9.36 14.47.36-10.35.36-12.19.37 18.36.36-2.9.36-7.38.36-.61.36 7.73.37-3.51.36-7.5.36 15.33.36-7.26.37.24.36-3.56.36 11.11.36-7.77.36-3.55.37 7.43.36-3.93.36 3.95.36-10.48.36 11.11.37-4.04.36 3.45.36-3.33.36 3.76.36-11.93.37 8.15.36 3.33.36.75.36-12.36.37 7.94.36 3.66.36.35.36-7.48.36 3.47.37 3.85.36-3.64.36-3.52.36 7.71.36 3.58.37-18.77.36 9.62.36 8.09.36-6.85.36-8.2.37 11.8.36-.01.36-7.98.36 3.7.36 7.62.37-15.39.36 11.57.36-4 .36-7.15.37 11.06.36-3.92.36-.24.36 3.01.36.52.37-10.81.36 6.98.36 4.11.36-4.01.36-6.89.37 18.78.36-15.17.36-.17.36 7.17.36-2.85.37-4.29.36 4.03.36 11.79.36-26.29.37 14.77.36 11.47.36-11.44.36-3.82.36 4.2.37 4.02.36-11.27.36 7.52.36 7.31.36-6.46.37-8.48.36 15.67.36-7.73.36-.41.36-3.61.37 11.55.36-14.96.36 15.27.36-7.3.36-4.09.37 7.49.36-7.69.36 8.13.36-8.2.37 15.34.36-19.09.36 11.34.36-4.22.36.2.37-.19.36-3.99.36 15.15.36-18.52.36 3.7.37 9.47.36-5.71.36-3.8.36 3.63.36 7.99.37-11.22.36.16.36 10.92.36-10.61.37 2.81.36 3.84.36-3.98.36-.01.36-.16.37.33.36.05.36-.56.36 4.42.36.46.37-11.46.36 10.6.36.02.36-11.13.36 6.43.37 3.74.36.61.36-7.61.36 3.91.36 7.09.37-18.72.36 11.08.36 8.02.36-7.75.37-6.8.36 14.11.36-7.62.36-3.59.36 3.94.37 3.5.36-7.5.36 3.78.36 4 .36-3.53.37-7.73.36 15.43.36-7.36.36-4.17.36 7.43.37-3.97.36-.33.36-3.92.36 7.68.37-3.44.36.26.36-.24.36 3.83.36-11.56.37 12.03.36-.18.36-11.11.36 11.63.36-3.62.37-4.27.36 8.2.36-.68.36-11.4.36 10.88.37.31.36-7.33.36 2.76.36 5.52.37-7.45.36-.12.36 11.11.36.22.36-14.82.37 7.12.36 3.86.36-3.6.36-4.3.36 3.67.37 3.33.36-3.33.36-4.04.36 3.73.36 2.95.37-7.42.36 3.65.36-.12.36 3.63.36-7.28.37 8.13.36-7.12.36 3.75.36 3.99.37-3.63.36-.54.36.56.36-.28.36-3.7.37 6.75.36-7.5.36 4.2.36 3.44.36-6.84.37 6.85.36.16.36-2.68.36-4.66.36 7.16.37-3.02.36-4.62.36 3.78.36 7.84.37-15.32.36 3.7.36 14.91.36-6.55.36-23.21.37 30.66.36-3.93.36-22.92.36 18.1.36 4.43.37-7.09.36-8.5.36 15.72.36-7.71.36-11.28.37 19.21.36-.04.36-11.4.36-.19.36 7.96.37-7.38.36 6.31.36-2.51.36-.04.37 3.93.36-10.92.36 10.29.36-3.3.36 4.42.37-8.22.36 7.37.36-3.05.36-8.04.36 15.9.37-4.41.36-10.79.36 6.68.36 4.7.36-.09.37-10.98.36 10.57.36 4.35.36-11.48.37 4.05.36 3.39.36-6.73.36 2.91.36-.07.37.32.36-.43.36 3.36.36-3.47.36-4.04.37 8.03.36-3.15.36-.77.36.45.36 7.13.37-15.61.36 3.85.36 11.47.36-10.87.36 4.02.37 2.71.36.69.36-3.94.36-7.29.37 15.2.36-11.66.36-3.37.36 18.46.36-6.73.37-15.12.36 14.37.36 3.99.36-10.73.36-.55.37 10.84.36-3.97.36-15.02.36 14.99.36 7.97.37-26.15.36 18.02.36 4.07.36-11.29.37 4.25.36 3.06.36-6.73.36 3.38.36.04.37.35.36 3.88.36-4.2.36-7.08.36 15.56.37-8.25.36-.12.36-3.87.36 11.13.36-10.68.37 3.35.36.26.36 8.14.36-15.88.37 15.13.36-8.08.36-3.37.36 3.4.36.33.37.19.36-4.21.36 11.52.36-7.88.36-3.83.37 3.37.36 7.85.36-10.72.36-.01.36 7.35.37-7.75.36 11.42.36-11.4.36 4.01.36 3.28.37-7.2.36 7.74.36-9.34.36 1.6.37 7.06.36-4.15.36.5.36-.37.36.39.37 4.47.36-8.1.36 4.54"/><use xlink:href="#a6f85__a" color="#F44336" transform="matrix(3.75 0 0 3.75 125.4 80.69)"/><use xlink:href="#a6f85__a" color="#F44336" transform="matrix(3.75 0 0 3.75 220.55 7.51)"/></g><text stroke-linecap="round" stroke-linejoin="round" color="#000" font-family="KaTeX_Main" font-size="8" transform="translate(241.1 25.11)"><tspan>RedBlackTopDown</tspan></text><g fill="none" stroke="currentColor" stroke-linecap="round" stroke-linejoin="round" color="#000"><path stroke="#3B75EA" d="M205.6 22.51h29.9M28 142.24l.36-13.2.36 9.88.37.07.36 8.77.36-19.45.36 14.78.36-8.55.37 7.94.36-8.31.36 3.15.36-1.52.37-9.07.36 16.02.36-15.7.36 6.29.36-8.7.37 10.32.36-3.53.36-.71.36-7.62.36 7.34.37-1.01.36-5.21.36-.97.36 2.68.36-12.59.37 10.86.36-.49.36-8.79.36 3.16.36.28.37 8.08.36-15.57.36 7.23.36 2.98.37-6.46.36 3.02.36-.93.36-.22.36 8.89.37-15.23.36 10.67.36-4.81.36 4.05.36-3.7.37-4.03.36 10.85.36-15.44.36 7.02.36 6.8.37-47.99.36 14.64.36 3.71.36 3.9.37-8.38.36-4.17.36 5.86.36 4.64.36-4.13.37-.25.36-8.25.36 7.01.36 7.37.36-11.94.37-7.93.36 15.33.36.12.36-4.12.36-7.27.37 2.8.36 7.69.36-3.55.36-3.78.37 4.06.36-.39.36-4.51.36 7.27.36-11.01.37 8.11.36.06.36.25.36-7.52.36 11.34.37.58.36-11.56.36 11.19.36-6.78.36 7L60.23 76l.36 18.87.36-11.68.36 3.9.36.12.37-3.87.36 7.87.36-8.16.36.02.37 3.67h.36l.36 4 .36-15.38.36 10.87.37 3.96.36-.28.36-10.87.36-.76.36 11.34.37 3.58.36-15.21.36-.05.36 7.1.36 8.88.37-7.24.36-11.75.36 11.05.36 3.96.37.29.36-8.07.36-7.61.36 15.7.36-.76.37-7.54.36.4.36 3.38.36.21.36.37.37-4.33.36 8.25.36-3.87.36-7.71.36 7.17.37 3.93.36.22.36-11.37.36 3.48.36 3.78.37 4.04.36-12.02.36 11.67.36-7.55.37 8.13.36-7.47.36 3.93.36-4.14.36 8.11.37-3.3.36-7.92.36 7.65.36 3.93.36-7.67.37 7.17.36-10.72.36 10.84.36-3.52.36-3.88.37 11.46.36-18.93.36 14.73.36-7.16.37 7.84.36-8.1.36 3.56.36 4.4.36-7.19.37 11.37.36-11.46.36-.03.36-.65.36 7.34.37-3.65.36 3.76.36-15.64.36 11.59.36-.31.37 8.04.36-15.68.36.26.36 7.69.36 7.46.37-3.91.36-14.54.36 14.71.36-7.64.37 8.07.36-8.09.36 3.61.36.35.36-4.47.37 8.44.36-7.63.36-.42.36 8.17.36-4.01.37.45.36-8.5.36 7.97.36 8.17.36-11.46.37-4.03.36 7.26.36 4.26.36 3.55.37-18.98.36 7.51.36 3.73.36 7.69.36-6.94.37-11.37.36 6.57.36 11.66.36-3.89.36-3.15.37-18.37.36 25.88.36 1.04.36-4.19.36-14.64.37 11.01.36-.35.36 4.45.36-.54.37-15.07.36 15.4.36-8.15.36 11.48.36-11.52.37-.37.36 7.83.36-4.5.36-3.64.36-3.25.37 13.85.36-7.16.36-8.07.36 11.39.36-7.31.37 7.96.36-11.51.36 10.98.36-3.39.36-3.62.37 3.35.36-3.47.36 7.57.36-12.06.37 12.35.36-3.83.36.26.36-4.81.36.96.37 7.8.36-3.74.36-.47.36-7.75.36 8.09.37 3.32.36.06.36-7.74.36-7.42.36 15.01.37.28.36-7.17.36 7.08.36-7.79.37 3.46.36-3.42.36 3.49.36 3.99.36-11.04.37 7.26.36 1.15.36 3.81.36-7.64.36 6.87.37-15.7.36 19.71.36-7.35.36-.42.36-11.68.37 14.24.36-3.44.36 3.88.36-11.08.36 3.11.37 8.3.36-.08.36-7.04.36-4.21.37 6.86.36 3.94.36-3.22.36-7.74.36 7.79.37 3.79.36-7.24.36 7.73.36-11.34.36 12.14.37-4.39.36.4.36-3.44.36 3.17.36-3.45.37 7.55.36-3.74.36.09.36-3.69.37-.05.36 11.25.36-10.74.36 3.89.36-7.27.37 11.38.36-.26.36-4.07.36-.24.36-7.91.37 11.31.36-3.92.36-3.74.36 3.99.36-.38.37 3.4.36-6.84.36-.16.36 3.85.36 4.28.37-11.84.36 11.8.36-7.65.36 8.17.37-3.59.36-8.28.36 15.19.36-11.37.36 7.56.37-7.67.36.05.36 7.57.36-8.39.36 8.08.37-4.12.36-4.34.36-.08.36 3.85.36 1.36.37 3.74.36-3.75.36-3.57.36.26.37 7.75.36-.36.36-7.82.36.09.36 6.88.37-7.19.36 7.29.36-3.3.36-3.47.36 6.71.37-11.08.36 7.14.36 4.01.36-3.55.36-8.19.37 7.69.36.11.36 7.35.36-14.66.37 3.5.36 7.38.36-4.07.36.32.36-3.56.37 7.26.36-11.3.36 11.83.36-4.69.36-.14.37.5.36-4.25.36-.75.36 7.34.36-7.24.37 7.77.36-15.99.36 19.48.36-8.05.36.81.37-15.5.36 22.78.36-7.61.36-.28.37-3.69.36.65.36 3.16.36 7.96.36-15.91.37.16.36 10.82.36.72.36-7.39.36-3.77.37 6.98.36 8.51.36-7.46.36-3.31.36-7.55.37 18.88.36-3.96.36-3.67.36-15.63.37 19.41.36-.23.36.52.36-10.96.36-.78.37 12.02.36 3.37.36-11.02.36-7.91.36 14.69.37-.13.36 3.94.36-22.97.36 15.38.36-.57.37 7.75.36-18.6.36 6.7.36 7.75.36-.19.37-6.44.36-3.81.36 7.77.36 7.72.37-7.11.36-4.29.36-3.7.36 11.34.36 4.26.37-11.74.36.34.36-4.08.36 14.54.36-7.04.37-.04.36-3.89.36.1.36 7.54.36-7.2.37 3.8.36.29.36.38.36-4.48.37 4.27.36-.1.36-.62.36-.11.36.38.37-3.54.36 3.51.36 3.29.36-7.22.36 2.57.37-2.32.36 3.8.36.12.36 3.01.36-3.74.37-11.38.36 15.32.36.08.36-3.6.37-4.22.36-.03.36 7.65.36-3.74.36.63.37-4.56.36-.35.36 8.36.36.22.36-11.41.37 7.19.36-.98.36 4.26.36-3.73.36-11.75.37 18.74.36-7.24.36.74.36-4.07.36-.35.37 8.35.36-7.98.36 7.51.36-6.84.37 3.77.36-7.79.36 14.71.36-3.44.36-11.3.37-.72.36 11.37.36 3.45.36-3.18.36-22.81.37 18.16.36 7.73.36-3.67.36-15.23.36 11.72.37-.42.36 4.01.36-10.54.36 10.57.37-7.52.36 4.17.36 4.62.36-11.38.36 11.44.37-7.28.36 10.87.36-18.33.36 14.06.36-3.4.37 3.74.36-3.69.36-7.76.36 7.46.36.56.37 3.92.36-7.56.36 3.24.36-3.56.36 2.85.37 4 .36-7.46.36 7.23.36-11.64.37 11.72.36-4.64.36.43.36-11.45.36 14.65.37.51.36-4.13.36-2.88.36-7.56.36 19.11.37.36.36-11.25.36-7.58.36 11.38.36 7.12.37-6.63.36-7.93.36 2.69.36 7.72.37 4.17.36-11.35.36-3.77.36 3.52.36 11.07.37-11.64.36 4.15.36-7.96.36 11.25.36-2.97.37-.62.36-3.35.36 3.15.36-.39.36-3.5.37 4.08.36 4.04.36-7.91.36-3.44.36 11.45.37-3.33.36-.1.36-4.63.36-.04.37 12.04.36-6.99.36-7.9.36 3.98.36 7.26.37 3.97.36-19.35.36 11.25.36-3.47.36 11.77.37-10.83.36-.19.36 7.76.36-8.21.36 12.14.37-18.68.36 14.92.36-4.06.36.36.37-.59.36-4.29.36 4.18.36 4.23.36-11.33.37 7.22.36 3.63.36-3.51.36-3.9.36-.77.37 7.69.36-3.06.36.35.36-3.96.36 2.96h.37l.36-.7.36 1.25.36-4.11.37 8.13.36-7.84.36 8.28.36-11.72.36 7.4.37-3.59.36 11.08.36-7.38.36-4.48.36-3.89.37 11.77.36-.33.36.57.36-15.27.36 10.04.37 5.01.36-3.37.36.26.36-4.45.36-.18.37 3.05.36 7.69.36-18.98.36 15.56.37-3.99.36-.21.36-7.38.36 7.68.36 3.54.37-3.54.36-.13.36-7.47.36 7.12.36.8.37 7.56.36-15.56.36 7.5.36-6.86.36 14.61.37-11.32.36 7.52.36-7.47.36-.47.37 8.09.36-2.86.36.33.36-7.76.36 11.54.37-.53.36-11.46.36 7.71.36-3.71.36 7.55.37.35.36-11.43.36 11.55.36-12.53.36 15.45.37-7.21.36-7.6.36 15.67.36-15.64.36 11.2.37-11.15.36 10.81.36.93.36-7.79.37.24.36 3.51.36 3.96.36-.52.36-14.49.37 6.94.36 7.75.36 2.62.36-2.38.36-15.56.37 6.99.36 7.65.36-.38.36-11.23.36-.32.37 11.77.36 4.34.36-7.78.36-15.11.37 14.28.36 7.52.36-3.2.36-7.55.36-7.63.37 14.95.36 4.23.36-10.92.36-3.95.36 3.92.37 11.27.36-3.41.36-7.91.36-7.9.36 14.86.37 3.82.36-14.22.36 6.9.36-3.34.36 6.37.37-3.37.36-7.09.36 15.59.36-7.68.37.32.36-12.03.36 14.66.36 4.02.36-7.32.37-11.41.36 7.04.36 11.44.36-10.45.36 7.45.37-16.26.36 16.18.36.06.36-3.87.36-3.54.37-.5.36 3.68.36 4.16.36-3.85.37.99.36-11.18.36 18.4.36-3.49.36-3.34.37-7.71.36 3.09.36 11.86.36-11.54.36 7.42.37-11.44.36 7.87.36.28.36 6.92.36-8 .37-7.61.36 4.2.36 7.26.36 3.61.37-23.15.36 18.79.36-6.88.36 10.68.36-6.08.37-12.68.36 19.54.36-11.5.36 11.65.36-16.01.37 3.78.36 3.39.36 4.27.36-6.82.36 7.3.37-12.2.36 8.39.36-3.84.36 11.47.36-14.87.37 10.27.36-3.31.36-3.65.36 3.24.37-4.27.36 4.49.36 3.69.36-8.02.36 4.17.37-4.11.36 8.37.36-4.69.36-3.62.36.4.37 3.61.36 3.42.36-6.81.36 3.46.36-.08.37.34.36-.03.36.41.36-3.72.37 3.84.36-3.77.36 7.43.36-3.88.36-3.45.37-.2.36 11.16.36-15.01.36 10.81.36-4.2.37-3.81.36.4.36 3.42.36 8.25.36-14.21.37 7.02.36-7.84.36 14.73.36-3.53.36-11.07.37 3.64.36 3.65.36 3.69.36 4.49.37-23.05.36 15.43.36-.47.36 6.87.36-10.23.37-.4.36.07.36 8.08.36.2.36-7.62.37-3.56.36 7.2.36 7.39.36-7.27.36.13.37-12.06.36 14.82.36.47.36.41.37-15.48.36 7.53.36 10.86.36-3.31.36-11.22.37 3.33.36 4.61.36 3.82.36-.14.36-16.75.37 15.48.36-3.36.36.41.36-3.57.36 3.59.37-.76.36.81.36.41.36-4.19.36 4.17.37 3 .36.71.36-11.82.36 7.74.37-.31.36 4.42.36-7.32.36-.51.36 3.65.37.88.36-.5.36.8.36-.47.36.08.37-3.65.36 7.1.36-7.16.36 7.05.36-7.53.37 4.12.36.14.36-.3.36-4.26.37 7.84.36-3.35.36-4.25.36 3.61.36-.37.37.32.36 3.54.36-7.2.36-.24.36 4.2.37-.32.36.53.36-4.19.36 7.36.36-7.23.37 3.1.36-3.71.36 4.1.36-.46.37.71.36.06.36.02.36-.27.36-3.83.37 3.43.36-.6.36-3.88.36.11.36 7.17.37-2.69.36 3.9.36-14.79.36 15.66.36-.46.37-7.67.36.31.36-.75.36 11.62.36-11.25.37 3.35.36.22.36.46.36.22.37-7.95.36 10.77.36-3.48.36 3.67.36-11.52.37 4.58.36 7.48.36-.32"/><use xlink:href="#a6f85__b" color="#3B75EA" transform="matrix(3.75 0 0 3.75 182.98 93.56)"/><use xlink:href="#a6f85__b" color="#3B75EA" transform="matrix(3.75 0 0 3.75 220.55 22.51)"/></g><path fill="none" d="M28 45.01V162.5M371.99 45.01H28" color="#000"/></svg>