<svg xmlns="http://www.w3.org/2000/svg" xmlns:xlink="http://www.w3.org/1999/xlink" viewBox="0 0 400 200"><path fill="none" d="M0 0h400v200H0z"/><defs><use xlink:href="#61d29__a" id="61d29__f" stroke="currentColor" transform="rotate(180)"/><use xlink:href="#61d29__b" id="61d29__c" stroke="currentColor" transform="rotate(45)"/><use xlink:href="#61d29__c" id="61d29__e" fill="currentColor" stroke="none"/><path id="61d29__b" stroke="currentColor" stroke-width=".267" d="M-1-1h2v2h-2z"/><path id="61d29__a" stroke="currentColor" stroke-width=".267" d="m0-1.33-1.33 2h2.66z"/><circle id="61d29__d" cx="0" cy="0" r="1" stroke="currentColor" stroke-width=".267"/></defs><path fill="none" stroke="#CCC" stroke-linecap="round" stroke-linejoin="round" stroke-width=".1" d="M46.1 162.5V45.01" class="61d29__gridline" color="#000"/><g fill="none" stroke-linecap="round" stroke-linejoin="round" stroke-width="0" color="#000"><path d="M46.1 162.5V155m0-109.99v7.5"/><text fill="#000" font-family="KaTeX_Main" font-size="8" text-anchor="middle" transform="translate(46.1 172.6)"><tspan> 1</tspan></text></g><path fill="none" stroke="#CCC" stroke-linecap="round" stroke-linejoin="round" stroke-width=".1" d="M82.31 162.5V45.01" class="61d29__gridline" color="#000"/><g fill="none" stroke-linecap="round" stroke-linejoin="round" stroke-width="0" color="#000"><path d="M82.31 162.5V155m0-109.99v7.5"/><text fill="#000" font-family="KaTeX_Main" font-size="8" text-anchor="middle" transform="translate(82.31 172.6)"><tspan> 2</tspan></text></g><path fill="none" stroke="#CCC" stroke-linecap="round" stroke-linejoin="round" stroke-width=".1" d="M118.52 162.5V45.01" class="61d29__gridline" color="#000"/><g fill="none" stroke-linecap="round" stroke-linejoin="round" stroke-width="0" color="#000"><path d="M118.52 162.5V155m0-109.99v7.5"/><text fill="#000" font-family="KaTeX_Main" font-size="8" text-anchor="middle" transform="translate(118.52 172.6)"><tspan> 3</tspan></text></g><path fill="none" stroke="#CCC" stroke-linecap="round" stroke-linejoin="round" stroke-width=".1" d="M154.73 162.5V45.01" class="61d29__gridline" color="#000"/><g fill="none" stroke-linecap="round" stroke-linejoin="round" stroke-width="0" color="#000"><path d="M154.73 162.5V155m0-109.99v7.5"/><text fill="#000" font-family="KaTeX_Main" font-size="8" text-anchor="middle" transform="translate(154.73 172.6)"><tspan> 4</tspan></text></g><path fill="none" stroke="#CCC" stroke-linecap="round" stroke-linejoin="round" stroke-width=".1" d="M190.94 162.5V45.01" class="61d29__gridline" color="#000"/><g fill="none" stroke-linecap="round" stroke-linejoin="round" stroke-width="0" color="#000"><path d="M190.94 162.5V155m0-109.99v7.5"/><text fill="#000" font-family="KaTeX_Main" font-size="8" text-anchor="middle" transform="translate(190.94 172.6)"><tspan> 5</tspan></text></g><path fill="none" stroke="#CCC" stroke-linecap="round" stroke-linejoin="round" stroke-width=".1" d="M227.15 162.5V45.01" class="61d29__gridline" color="#000"/><g fill="none" stroke-linecap="round" stroke-linejoin="round" stroke-width="0" color="#000"><path d="M227.15 162.5V155m0-109.99v7.5"/><text fill="#000" font-family="KaTeX_Main" font-size="8" text-anchor="middle" transform="translate(227.15 172.6)"><tspan> 6</tspan></text></g><path fill="none" stroke="#CCC" stroke-linecap="round" stroke-linejoin="round" stroke-width=".1" d="M263.36 162.5V45.01" class="61d29__gridline" color="#000"/><g fill="none" stroke-linecap="round" stroke-linejoin="round" stroke-width="0" color="#000"><path d="M263.36 162.5V155m0-109.99v7.5"/><text fill="#000" font-family="KaTeX_Main" font-size="8" text-anchor="middle" transform="translate(263.36 172.6)"><tspan> 7</tspan></text></g><path fill="none" stroke="#CCC" stroke-linecap="round" stroke-linejoin="round" stroke-width=".1" d="M299.57 162.5V45.01" class="61d29__gridline" color="#000"/><g fill="none" stroke-linecap="round" stroke-linejoin="round" stroke-width="0" color="#000"><path d="M299.57 162.5V155m0-109.99v7.5"/><text fill="#000" font-family="KaTeX_Main" font-size="8" text-anchor="middle" transform="translate(299.57 172.6)"><tspan> 8</tspan></text></g><path fill="none" stroke="#CCC" stroke-linecap="round" stroke-linejoin="round" stroke-width=".1" d="M335.78 162.5V45.01" class="61d29__gridline" color="#000"/><g fill="none" stroke-linecap="round" stroke-linejoin="round" stroke-width="0" color="#000"><path d="M335.78 162.5V155m0-109.99v7.5"/><text fill="#000" font-family="KaTeX_Main" font-size="8" text-anchor="middle" transform="translate(335.78 172.6)"><tspan> 9</tspan></text></g><path fill="none" stroke="#CCC" stroke-linecap="round" stroke-linejoin="round" stroke-width=".1" d="M371.99 162.5V45.01" class="61d29__gridline" color="#000"/><g fill="none" stroke-linecap="round" stroke-linejoin="round" stroke-width="0" color="#000"><path d="M371.99 162.5V155m0-109.99v7.5"/><text fill="#000" font-family="KaTeX_Main" font-size="8" text-anchor="middle" transform="translate(371.99 172.6)"><tspan> 10</tspan></text></g><g fill="none" stroke-linecap="round" stroke-linejoin="round" stroke-width="0" color="#000"><path d="M371.99 162.5h-7.5"/><text fill="#000" font-family="KaTeX_Main" font-size="8" transform="translate(378.99 165.1)"><tspan>0.900</tspan></text></g><g fill="none" stroke-linecap="round" stroke-linejoin="round" stroke-width="0" color="#000"><path d="M371.99 147.81h-7.5"/><text fill="#000" font-family="KaTeX_Main" font-size="8" transform="translate(378.99 150.41)"><tspan>0.950</tspan></text></g><g fill="none" stroke-linecap="round" stroke-linejoin="round" stroke-width="0" color="#000"><path d="M371.99 133.13h-7.5"/><text fill="#000" font-family="KaTeX_Main" font-size="8" transform="translate(378.99 135.73)"><tspan>1.000</tspan></text></g><g fill="none" stroke-linecap="round" stroke-linejoin="round" stroke-width="0" color="#000"><path d="M371.99 118.44h-7.5"/><text fill="#000" font-family="KaTeX_Main" font-size="8" transform="translate(378.99 121.04)"><tspan>1.050</tspan></text></g><g fill="none" stroke-linecap="round" stroke-linejoin="round" stroke-width="0" color="#000"><path d="M371.99 103.75h-7.5"/><text fill="#000" font-family="KaTeX_Main" font-size="8" transform="translate(378.99 106.35)"><tspan>1.100</tspan></text></g><g fill="none" stroke-linecap="round" stroke-linejoin="round" stroke-width="0" color="#000"><path d="M371.99 89.07h-7.5"/><text fill="#000" font-family="KaTeX_Main" font-size="8" transform="translate(378.99 91.67)"><tspan>1.150</tspan></text></g><g fill="none" stroke-linecap="round" stroke-linejoin="round" stroke-width="0" color="#000"><path d="M371.99 74.38h-7.5"/><text fill="#000" font-family="KaTeX_Main" font-size="8" transform="translate(378.99 76.98)"><tspan>1.200</tspan></text></g><g fill="none" stroke-linecap="round" stroke-linejoin="round" stroke-width="0" color="#000"><path d="M371.99 59.7h-7.5"/><text fill="#000" font-family="KaTeX_Main" font-size="8" transform="translate(378.99 62.3)"><tspan>1.250</tspan></text></g><g fill="none" stroke-linecap="round" stroke-linejoin="round" stroke-width="0" color="#000"><path d="M371.99 45.01h-7.5"/><text fill="#000" font-family="KaTeX_Main" font-size="8" transform="translate(378.99 47.61)"><tspan>1.300</tspan></text></g><path fill="none" d="M28 45.01V162.5M371.99 45.01H28" color="#000"/><text stroke-linecap="round" stroke-linejoin="round" stroke-width="0" color="#000" font-family="KaTeX_Main" font-size="10" text-anchor="middle" transform="rotate(-90 57.63 46.13)"><tspan font-weight="bold">Average Path Length </tspan><tspan> / log</tspan><tspan dy="3" font-size="8">2</tspan><tspan dy="-3">(Size)</tspan></text><text stroke-linecap="round" stroke-linejoin="round" stroke-width="0" color="#000" font-family="KaTeX_Main" font-size="10" text-anchor="middle" transform="translate(199.99 195.75)"><tspan>Operations / 10</tspan><tspan dy="-5" font-size="8">6</tspan></text><text stroke-linecap="round" stroke-linejoin="round" color="#000" font-family="KaTeX_Main" font-size="8" transform="translate(132.8 10.11)"><tspan>LBSTBottomUp</tspan></text><g fill="none" stroke="currentColor" stroke-linecap="round" stroke-linejoin="round" color="#000"><path stroke="#3B75EA" d="M97.3 7.51h29.9M28 155.41l.36-.05.36-.05.37-.04.36-.04.36-.04.36-.04.36-.04.37-.04.36-.03.36-.04.36-.03.37-.03.36-.03.36-.01.36-.01h.36l.37.01.36.02.36.02.36.03.36.04.37.04.36.04.36.05.36.04.36.04.37.03.36.04.36.03.36.02.36.02.37.01h.36l.36.01.36-.01h.37l.36-.02.36-.01.36-.02.36-.01.37-.03.36-.02.36-.02.36-.02.36-.03.37-.02.36-.03.36-.02.36-.02.36-.03.37-.02.36-.03.36-.02.36-.02.37-.03.36-.02.36-.03.36-.03.36-.02.37-.03.36-.03.36-.03.36-.03.36-.03.37-.03.36-.02.36-.03.36-.03.36-.03.37-.02.36-.03.36-.02.36-.02.37-.02.36-.02.36-.02.36-.02.36-.01.37-.01.36-.02.36-.01.36-.01.36-.01.37-.01.36-.01.36-.01.36-.02.36-.01.37-.01.36-.02.36-.01.36-.02.36-.02.37-.02.36-.02.36-.02.36-.02.37-.03.36-.02.36-.03.36-.03.36-.03.37-.02.36-.03.36-.03.36-.04.36-.03.37-.03.36-.03.36-.04.36-.03.36-.03.37-.04.36-.03.36-.04.36-.03.37-.04.36-.03.36-.03.36-.04.36-.03.37-.03.36-.03.36-.03.36-.03.36-.03.37-.03.36-.03.36-.02.36-.03.36-.02.37-.03.36-.02.36-.02.36-.02.36-.02.37-.02.36-.02.36-.02.36-.02.37-.02.36-.02.36-.02.36-.02.36-.02.37-.02.36-.02.36-.03.36-.02.36-.02.37-.03.36-.02.36-.03.36-.02.36-.03.37-.03.36-.03.36-.03.36-.03.37-.03.36-.03.36-.03.36-.04.36-.03.37-.03.36-.04.36-.04.36-.03.36-.04.37-.03.36-.04.36-.04.36-.04.36-.04.37-.04.36-.04.36-.04.36-.03.36-.04.37-.04.36-.04.36-.05.36-.04.37-.04.36-.03.36-.04.36-.04.36-.04.37-.04.36-.04.36-.03.36-.04.36-.03.37-.03.36-.03.36-.03.36-.02.36-.03.37-.02.36-.01.36-.01.36-.01.37-.01h.36l.36.01.36.01.36.01.37.03.36.02.36.04.36.03.36.05.37.05.36.06.36.06.36.07.36.07.37.08.36.08.36.09.36.09.37.09.36.09.36.1.36.09.36.1.37.1.36.1.36.09.36.09.36.09.37.09.36.09.36.08.36.07.36.07.37.07.36.07.36.05.36.06.36.05.37.04.36.04.36.04.36.03.37.02.36.02.36.02.36.02.36.01.37.01.36.01h1.08l.37-.01h.36l.36-.01.36-.01.36-.01.37-.01.36-.01.36-.01.36-.02.37-.01.36-.02.36-.01.36-.02.36-.02.37-.01.36-.02.36-.02.36-.02.36-.02.37-.02.36-.01.36-.02.36-.02.36-.02.37-.02.36-.02.36-.02.36-.02.36-.02.37-.03.36-.02.36-.02.36-.02.37-.02.36-.02.36-.02.36-.02.36-.02.37-.02.36-.03.36-.02.36-.02.36-.02.37-.02.36-.02.36-.03.36-.02.36-.02.37-.02.36-.02.36-.03.36-.02.37-.02.36-.02.36-.02.36-.03.36-.02.37-.02.36-.02.36-.03.36-.02.36-.02.37-.03.36-.02.36-.02.36-.02.36-.03.37-.02.36-.02.36-.03.36-.02.36-.02.37-.02.36-.03.36-.02.36-.02.37-.03.36-.02.36-.02.36-.03.36-.02.37-.03.36-.02.36-.02.36-.03.36-.02.37-.02.36-.03.36-.02.36-.02.36-.02.37-.03.36-.02.36-.02.36-.02.37-.03.36-.02.36-.02.36-.02.36-.02.37-.02.36-.02.36-.02.36-.02.36-.02.37-.01.36-.02.36-.02.36-.01.36-.02.37-.01.36-.02.36-.01.36-.01.37-.01.36-.01.36-.01.36-.01.36-.01.37-.01.36-.01h.36l.36-.01h.36l.37-.01h.72l.36-.01h2.9l.36.01h1.09l.36.01h1.09l.36.01h.72l.36.01h1.45l.36.01h2.18l.36-.01h1.09l.36-.01h.36l.36-.01h.36l.37-.01.36-.01h.36l.36-.01.36-.01h.37l.36-.01.36-.01.36-.01.36-.01h.37l.36-.01.36-.01.36-.01.37-.01h.36l.36-.01.36-.01h.36l.37-.01.36-.01h.36l.36-.01h2.9l.36.01h.36l.37.01.36.01.36.01.36.01.36.01.37.01.36.02.36.01.36.02.36.01.37.02.36.02.36.02.36.02.36.02.37.02.36.02.36.02.36.02.37.02.36.02.36.02.36.01.36.02.37.02.36.02.36.01.36.02.36.01.37.01.36.02.36.01.36.01h.36l.37.01.36.01h.36l.36.01h.73l.36.01h1.09l.36-.01h1.08l.37-.01h.72l.36-.01h.73l.36-.01h1.08l.37-.01h2.17l.36.01h.36l.37.01h.36l.36.01.36.01.36.01.37.01.36.01.36.01.36.02.36.02.37.01.36.02.36.02.36.02.36.02.37.02.36.02.36.03.36.02.37.02.36.02.36.03.36.02.36.03.37.02.36.02.36.02.36.02.36.02.37.02.36.02.36.02.36.02.36.01.37.02.36.01.36.01.36.01.37.01.36.01.36.01.36.01h.36l.37.01h1.08l.36.01h.73l.36-.01h1.45l.36-.01h.36l.36-.01h.73l.36-.01h.36l.37-.01h.36l.36-.01.36-.01h.36l.37-.01h.36l.36-.01h.36l.36-.01.37-.01h.36l.36-.01h.36l.36-.01.37-.01h.36l.36-.01h.36l.37-.01.36-.01h.36l.36-.01.36-.01h.37l.36-.01.36-.01h.36l.36-.01.37-.01h.36l.36-.01.36-.01h.36l.37-.01.36-.01h.36l.36-.01.37-.01h.36l.36-.01.36-.01h.36l.37-.01.36-.01h.36l.36-.01.36-.01h.37l.36-.01.36-.01h.36l.36-.01.37-.01h.36l.36-.01.36-.01h.36l.37-.01h.36l.36-.01h.36l.37-.01h.36l.36-.01h.72l.37-.01h4.34l.36.01h1.09l.36.01h.36l.37.01h.72l.36.01h.36l.37.01h.72l.36.01h1.09l.36.01h3.26l.36-.01h1.45l.36-.01h.73l.36-.01h.36l.36-.01h.73l.36-.01h.36l.36-.01h.37l.36-.01h.36l.36-.01.36-.01h.37l.36-.01h.36l.36-.01h.36l.37-.01.36-.01h.36l.36-.01.36-.01h.37l.36-.01.36-.01h.36l.36-.01.37-.01h.36l.36-.01.36-.01h.37l.36-.01.36-.01h.36l.36-.01.37-.01.36-.01h.36l.36-.01.36-.01h.37l.36-.01.36-.01.36-.01h.36l.37-.01.36-.01.36-.01h.36l.37-.01.36-.01h.36l.36-.01.36-.01.37-.01h.36l.36-.01.36-.01.36-.01h.37l.36-.01.36-.01.36-.01h.36l.37-.01.36-.01.36-.01h.36l.37-.01.36-.01.36-.01h.36l.36-.01.37-.01.36-.01.36-.01h.36l.36-.01.37-.01.36-.01h.36l.36-.01.36-.01.37-.01.36-.01h.36l.36-.01.36-.01.37-.01h.36l.36-.01.36-.01.37-.01.36-.01h.36l.36-.01.36-.01.37-.01.36-.01h.36l.36-.01.36-.01.37-.01.36-.01h.36l.36-.01.36-.01.37-.01.36-.01h.36l.36-.01.37-.01.36-.01.36-.01.36-.01h.36l.37-.01.36-.01.36-.01.36-.01h.36l.37-.01.36-.01.36-.01.36-.01.36-.01h.37l.36-.01.36-.01.36-.01.36-.01.37-.01h.36l.36-.01.36-.01.37-.01.36-.01.36-.01h.36l.36-.01.37-.01.36-.01.36-.01.36-.01.36-.01h.37l.36-.01.36-.01.36-.01.36-.01.37-.01h.36l.36-.01.36-.01.37-.01.36-.01.36-.01h.36l.36-.01.37-.01h.36l.36-.01h1.81l.36.01.36.01.37.01.36.02.36.02.36.03.36.04.37.04.36.04.36.06.36.06.37.06.36.07.36.07.36.08.36.08.37.08.36.07.36.08.36.07.36.06.37.06.36.06.36.04.36.04.36.04.37.02.36.03.36.01.36.01.37.01.36.01h2.17l.36-.01h.73l.36-.01h1.08l.37-.01h.72l.36-.01h.73l.36-.01h.72l.37-.01h1.08l.36-.01h.73l.36-.01h.72l.37-.01h.72l.36-.01h.73l.36-.01h.72l.37-.01h.72l.36-.01h.73l.36-.01h.36"/><use xlink:href="#61d29__d" color="#3B75EA" transform="matrix(3.75 0 0 3.75 353.89 152.17)"/><use xlink:href="#61d29__d" color="#3B75EA" transform="matrix(3.75 0 0 3.75 112.25 7.51)"/></g><text stroke-linecap="round" stroke-linejoin="round" color="#000" font-family="KaTeX_Main" font-size="8" transform="translate(132.8 25.11)"><tspan>LBSTRelaxed</tspan></text><g fill="none" stroke="currentColor" stroke-linecap="round" stroke-linejoin="round" color="#000"><path stroke="#FFAB00" stroke-dasharray="4.0,2.0,1.0,2.0" d="M97.3 22.51h29.9M28 139.45l.36-.24.36-.25.37-.24.36-.21.36-.16.36-.09.36-.02.37.06.36.15.36.23.36.31.37.38.36.45.36.49.36.52.36.54.37.53.36.53.36.49.36.45.36.41.37.35.36.29.36.23.36.16.36.11.37.06h.36l.36-.05.36-.08.36-.12.37-.15.36-.18.36-.2.36-.21.37-.23.36-.24.36-.25.36-.25.36-.26.37-.26.36-.27.36-.26.36-.27.36-.26.37-.27.36-.27.36-.26.36-.26.36-.27.37-.26.36-.26.36-.26.36-.26.37-.25.36-.26.36-.26.36-.25.36-.25.37-.25.36-.25.36-.25.36-.25.36-.24.37-.24.36-.25.36-.24.36-.24.36-.23.37-.24.36-.23.36-.23.36-.22.37-.23.36-.21.36-.22.36-.2.36-.2.37-.19.36-.18.36-.17.36-.16.36-.14.37-.13.36-.1.36-.09.36-.06.36-.04.37-.02.36.01.36.04.36.06.36.1.37.12.36.14.36.18.36.2.37.21.36.24.36.26.36.27.36.28.37.28.36.29.36.29.36.28.36.28.37.26.36.25.36.23.36.22.36.19.37.18.36.15.36.13.36.1.37.09.36.06.36.04.36.02h.36l.37-.02.36-.03.36-.05.36-.06.36-.08.37-.08.36-.1.36-.1.36-.11.36-.12.37-.12.36-.13.36-.13.36-.14.36-.14.37-.14.36-.14.36-.14.36-.15.37-.14.36-.15.36-.15.36-.14.36-.15.37-.15.36-.15.36-.15.36-.14.36-.15.37-.15.36-.15.36-.15.36-.14.36-.15.37-.15.36-.15.36-.14.36-.15.37-.15.36-.14.36-.15.36-.15.36-.14.37-.15.36-.14.36-.15.36-.15.36-.14.37-.15.36-.14.36-.15.36-.14.36-.15.37-.14.36-.14.36-.15.36-.14.36-.14.37-.15.36-.14.36-.14.36-.15.37-.14.36-.14.36-.14.36-.15.36-.14.37-.14.36-.14.36-.14.36-.14.36-.14.37-.14.36-.14.36-.14.36-.14.36-.14.37-.14.36-.14.36-.14.36-.14.37-.13.36-.14.36-.14.36-.13.36-.14.37-.13.36-.14.36-.13.36-.13.36-.13.37-.13.36-.13.36-.12.36-.12.36-.12.37-.11.36-.11.36-.1.36-.09.37-.09.36-.08.36-.06.36-.06.36-.04.37-.03.36-.02.36.01.36.02.36.05.37.07.36.09.36.12.36.15.36.18.37.21.36.24.36.27.36.31.36.34.37.38.36.41.36.45.36.48.37.51.36.55.36.57.36.59.36.63.37.64.36.66.36.67.36.69.36.69.37.69.36.7.36.69.36.69.36.67.37.66.36.64.36.63.36.6.37.58.36.55.36.52.36.5.36.46.37.43.36.41.36.37.36.35.36.31.37.28.36.26.36.23.36.21.36.18.37.16.36.14.36.12.36.1.36.09.37.07.36.05.36.05.36.03.37.02.36.02h1.08l.37-.01.36-.02.36-.02.36-.02.36-.03.37-.03.36-.03.36-.03.36-.03.36-.04.37-.03.36-.04.36-.04.36-.04.37-.03.36-.04.36-.04.36-.04.36-.04.37-.04.36-.04.36-.04.36-.04.36-.04.37-.04.36-.04.36-.04.36-.04.36-.04.37-.04.36-.04.36-.04.36-.04.36-.05.37-.04.36-.04.36-.04.36-.04.37-.04.36-.04.36-.04.36-.04.36-.04.37-.04.36-.04.36-.04.36-.05.36-.04.37-.04.36-.04.36-.04.36-.04.36-.04.37-.04.36-.04.36-.04.36-.05.37-.04.36-.04.36-.04.36-.04.36-.04.37-.04.36-.04.36-.04.36-.04.36-.05.37-.04.36-.04.36-.04.36-.04.36-.04.37-.04.36-.04.36-.04.36-.05.37-.04.36-.04.36-.04.36-.04.36-.04.37-.04.36-.04.36-.04.36-.05.36-.04.37-.04.36-.04.36-.04.36-.04.36-.04.37-.04.36-.04.36-.05.36-.04.36-.04.37-.04.36-.04.36-.04.36-.04.37-.04.36-.05.36-.04.36-.04.36-.04.37-.04.36-.04.36-.04.36-.04.36-.05.37-.04.36-.04.36-.04.36-.04.36-.04.37-.04.36-.04.36-.04.36-.05.37-.04.36-.04.36-.04.36-.04.36-.04.37-.04.36-.04.36-.04.36-.05.36-.04.37-.04.36-.04.36-.04.36-.04.36-.04.37-.04.36-.04.36-.04.36-.05.36-.04.37-.04.36-.04.36-.04.36-.04.37-.04.36-.04.36-.04.36-.04.36-.05.37-.04.36-.04.36-.04.36-.04.36-.04.37-.04.36-.04.36-.04.36-.04.36-.04.37-.04.36-.05.36-.04.36-.04.37-.04.36-.04.36-.04.36-.04.36-.04.37-.04.36-.04.36-.04.36-.04.36-.04.37-.04.36-.04.36-.05.36-.04.36-.04.37-.04.36-.04.36-.04.36-.04.37-.04.36-.04.36-.04.36-.04.36-.04.37-.04.36-.04.36-.04.36-.04.36-.04.37-.04.36-.04.36-.04.36-.04.36-.04.37-.04.36-.04.36-.04.36-.04.36-.04.37-.04.36-.04.36-.04.36-.04.37-.04.36-.04.36-.04.36-.04.36-.04.37-.04.36-.04.36-.04.36-.04.36-.04.37-.04.36-.04.36-.04.36-.04.36-.04.37-.04.36-.04.36-.04.36-.04.37-.04.36-.04.36-.04.36-.04.36-.04.37-.04.36-.04.36-.04.36-.04.36-.04.37-.04.36-.04.36-.04.36-.04.36-.03.37-.04.36-.04.36-.04.36-.04.36-.04.37-.04.36-.04.36-.04.36-.04.37-.04.36-.04.36-.03.36-.04.36-.04.37-.04.36-.04.36-.04.36-.04.36-.04.37-.04.36-.04.36-.03.36-.04.36-.04.37-.04.36-.04.36-.04.36-.04.37-.04.36-.03.36-.04.36-.04.36-.04.37-.04.36-.04.36-.04.36-.03.36-.04.37-.04.36-.04.36-.04.36-.04.36-.03.37-.04.36-.04.36-.04.36-.04.36-.04.37-.03.36-.04.36-.04.36-.04.37-.04.36-.03.36-.04.36-.04.36-.04.37-.04.36-.03.36-.04.36-.04.36-.04.37-.04.36-.03.36-.04.36-.04.36-.04.37-.04.36-.03.36-.04.36-.04.37-.04.36-.03.36-.04.36-.04.36-.04.37-.03.36-.04.36-.04.36-.04.36-.03.37-.04.36-.04.36-.04.36-.03.36-.04.37-.04.36-.04.36-.03.36-.04.37-.04.36-.04.36-.03.36-.04.36-.04.37-.03.36-.04.36-.04.36-.04.36-.03.37-.04.36-.04.36-.03.36-.04.36-.04.37-.03.36-.04.36-.04.36-.04.36-.03.37-.04.36-.04.36-.03.36-.04.37-.04.36-.03.36-.04.36-.04.36-.03.37-.04.36-.04.36-.03.36-.04.36-.04.37-.03.36-.04.36-.04.36-.03.36-.04.37-.03.36-.04.36-.04.36-.03.37-.04.36-.04.36-.03.36-.04.36-.03.37-.04.36-.04.36-.03.36-.04.36-.03.37-.04.36-.04.36-.03.36-.04.36-.03.37-.04.36-.04.36-.03.36-.04.36-.03.37-.04.36-.04.36-.03.36-.04.37-.03.36-.04.36-.03.36-.04.36-.03.37-.04.36-.04.36-.03.36-.04.36-.03.37-.04.36-.03.36-.04.36-.03.36-.04.37-.03.36-.04.36-.03.36-.04.37-.03.36-.04.36-.03.36-.04.36-.03.37-.04.36-.03.36-.04.36-.03.36-.04.37-.03.36-.04.36-.03.36-.04.36-.03.37-.04.36-.03.36-.03.36-.04.36-.03.37-.04.36-.03.36-.04.36-.03.37-.04.36-.03.36-.04.36-.03.36-.03.37-.04.36-.03.36-.04.36-.03.36-.04.37-.03.36-.03.36-.04.36-.03.36-.04.37-.03.36-.04.36-.03.36-.03.37-.04.36-.03.36-.04.36-.03.36-.03.37-.04.36-.03.36-.04.36-.03.36-.03.37-.04.36-.03.36-.04.36-.03.36-.03.37-.04.36-.03.36-.04.36-.03.37-.03.36-.04.36-.03.36-.03.36-.04.37-.03.36-.03.36-.04.36-.03.36-.03.37-.04.36-.03.36-.03.36-.04.36-.03.37-.03.36-.04.36-.03.36-.03.36-.04.37-.03.36-.03.36-.04.36-.03.37-.03.36-.04.36-.03.36-.03.36-.04.37-.03.36-.03.36-.03.36-.04.36-.03.37-.03.36-.04.36-.03.36-.03.36-.03.37-.04.36-.03.36-.03.36-.03.37-.04.36-.03.36-.03.36-.04.36-.03.37-.03.36-.03.36-.03.36-.04.36-.03.37-.03.36-.03.36-.04.36-.03.36-.03.37-.03.36-.04.36-.03.36-.03.36-.03.37-.03.36-.04.36-.03.36-.03.37-.03.36-.03.36-.04.36-.03.36-.03.37-.03.36-.03.36-.04.36-.03.36-.03.37-.03.36-.03.36-.03.36-.04.36-.03.37-.03.36-.03.36-.03.36-.03.37-.04.36-.03.36-.03.36-.03.36-.03.37-.03.36-.03.36-.04.36-.03.36-.03.37-.03.36-.03.36-.03.36-.03.36-.04.37-.03.36-.03.36-.03.36-.03.36-.03.37-.03.36-.03.36-.04.36-.03.37-.03.36-.03.36-.03.36-.03.36-.03.37-.03.36-.03.36-.03.36-.04.36-.03.37-.03.36-.03.36-.03.36-.03.36-.03.37-.03.36-.03.36-.03.36-.03.37-.03.36-.03.36-.03.36-.03.36-.03.37-.03.36-.03.36-.04.36-.03.36-.03.37-.03.36-.03.36-.03.36-.03.36-.03.37-.03.36-.03.36-.03.36-.03.37-.03.36-.03.36-.03.36-.03.36-.03.37-.03.36-.03.36-.03.36-.03.36-.03.37-.03.36-.03.36-.03.36-.03.36-.03.37-.03.36-.03.36-.03.36-.03.36-.03.37-.03.36-.03.36-.03.36-.03.37-.03.36-.03.36-.03.36-.03.36-.03.37-.02.36-.03.36-.03"/><use xlink:href="#61d29__e" color="#FFAB00" transform="matrix(3.75 0 0 3.75 67.83 136.37)"/><use xlink:href="#61d29__e" color="#FFAB00" transform="matrix(3.75 0 0 3.75 112.25 22.51)"/></g><text stroke-linecap="round" stroke-linejoin="round" color="#000" font-family="KaTeX_Main" font-size="8" transform="translate(241.1 10.11)"><tspan>WBSTBottomUp</tspan></text><g fill="none" stroke="currentColor" stroke-linecap="round" stroke-linejoin="round" color="#000"><path stroke="#000" d="M205.6 7.51h29.9M28 148.36l.36-.03.36-.02.37-.02.36-.02.36-.02.36-.01.36-.01.37-.01.36.01.36.01.36.02.37.03.36.04.36.06.36.08.36.09.37.1.36.12.36.12.36.14.36.14.37.14.36.15.36.14.36.14.36.12.37.12.36.11.36.09.36.08.36.06.37.05.36.03.36.02.36.01.37-.01.36-.02.36-.03.36-.04.36-.05.37-.06.36-.06.36-.07.36-.07.36-.08.37-.09.36-.08.36-.09.36-.09.36-.1.37-.09.36-.09.36-.1.36-.09.37-.09.36-.09.36-.09.36-.09.36-.08.37-.08.36-.08.36-.07.36-.06.36-.06.37-.06.36-.05.36-.04.36-.03.36-.03.37-.02.36-.02.36-.01h1.09l.36.01h.36l.36.01.37.01.36.01.36.01h.36l.36.01h.37l.36-.01h.36l.36-.02.36-.01.37-.02.36-.02.36-.03.36-.03.36-.04.37-.04.36-.04.36-.04.36-.05.37-.05.36-.05.36-.05.36-.06.36-.06.37-.05.36-.06.36-.06.36-.07.36-.06.37-.06.36-.06.36-.06.36-.07.36-.06.37-.06.36-.07.36-.06.36-.06.37-.07.36-.06.36-.06.36-.06.36-.07.37-.06.36-.06.36-.05.36-.06.36-.06.37-.05.36-.06.36-.05.36-.05.36-.05.37-.05.36-.05.36-.05.36-.04.36-.04.37-.04.36-.04.36-.04.36-.04.37-.04.36-.03.36-.04.36-.03.36-.04.37-.03.36-.03.36-.03.36-.04.36-.03.37-.03.36-.03.36-.02.36-.03.36-.03.37-.02.36-.03.36-.02.36-.02.37-.02.36-.01.36-.02.36-.01h.36l.37-.01h.72l.36.01h.36l.37.01.36.02.36.01.36.02.36.02.37.02.36.03.36.02.36.03.36.03.37.02.36.03.36.03.36.02.37.03.36.03.36.02.36.02.36.03.37.02.36.02.36.02.36.02.36.02.37.02.36.02.36.02.36.02.36.01.37.02.36.02.36.01.36.02.37.02.36.01.36.02.36.02.36.01.37.02.36.01.36.01.36.01.36.01.37.01.36.01.36.01h.36l.36.01h1.09l.36-.01h.37l.36-.01.36-.01.36-.01.36-.01.37-.02.36-.01.36-.02.36-.02.36-.01.37-.02.36-.03.36-.02.36-.02.36-.03.37-.02.36-.03.36-.02.36-.03.36-.03.37-.03.36-.02.36-.03.36-.03.37-.03.36-.04.36-.03.36-.03.36-.03.37-.03.36-.04.36-.03.36-.04.36-.03.37-.04.36-.03.36-.04.36-.04.36-.03.37-.04.36-.04.36-.03.36-.04.37-.04.36-.04.36-.04.36-.03.36-.04.37-.04.36-.04.36-.03.36-.04.36-.04.37-.03.36-.04.36-.03.36-.04.36-.03.37-.03.36-.03.36-.04.36-.03.36-.03.37-.02.36-.03.36-.03.36-.02.37-.03.36-.02.36-.02.36-.02.36-.02.37-.02.36-.02.36-.02.36-.02.36-.01.37-.02.36-.01.36-.01.36-.02.36-.01.37-.01.36-.01.36-.02.36-.01.37-.01.36-.01.36-.01.36-.01.36-.01.37-.01.36-.01.36-.02.36-.01.36-.01.37-.01.36-.01.36-.01.36-.02.36-.01.37-.01.36-.01.36-.01.36-.02.36-.01.37-.01.36-.01.36-.01.36-.02.37-.01.36-.01.36-.01.36-.01.36-.01.37-.01.36-.01.36-.01.36-.01h.36l.37-.01.36-.01h.72l.36-.01h1.09l.36.01h.37l.36.01.36.01.36.01.36.02.37.01.36.02.36.03.36.02.36.03.37.04.36.03.36.04.36.05.36.04.37.05.36.06.36.05.36.06.37.07.36.06.36.07.36.07.36.08.37.07.36.07.36.08.36.08.36.08.37.07.36.08.36.08.36.07.36.07.37.07.36.07.36.07.36.06.36.06.37.06.36.05.36.05.36.05.37.05.36.04.36.03.36.04.36.03.37.02.36.02.36.02.36.02.36.02.37.01.36.01h.36l.36.01h1.09l.36-.01h.36l.37-.01.36-.01h.36l.36-.01.36-.01.37-.01.36-.01.36-.02.36-.01.36-.01.37-.01.36-.02.36-.01.36-.01.36-.01.37-.02.36-.01.36-.01.36-.01.36-.01.37-.01.36-.01.36-.01.36-.01.37-.01h.36l.36-.01h.36l.36-.01h1.09l.36.01h.36l.37.01.36.01.36.01.36.01.36.02.37.01.36.02.36.03.36.02.37.03.36.02.36.03.36.04.36.03.37.03.36.04.36.04.36.04.36.04.37.04.36.04.36.04.36.04.36.05.37.04.36.04.36.04.36.04.37.04.36.03.36.04.36.03.36.04.37.03.36.02.36.03.36.03.36.02.37.02.36.02.36.02.36.01.36.02.37.01.36.01.36.01h.36l.36.01h.37l.36.01h1.81l.36-.01h.73l.36-.01h.36l.36-.01.36-.01h.37l.36-.01.36-.01h.36l.36-.01.37-.01.36-.01h.36l.36-.01.37-.01.36-.01.36-.01h.36l.36-.01.37-.01.36-.01.36-.01.36-.01.36-.01h.37l.36-.01.36-.01.36-.01.36-.01.37-.01.36-.01.36-.01h.36l.36-.01.37-.01.36-.01.36-.01.36-.01.37-.01.36-.01.36-.01h.36l.36-.01.37-.01.36-.01.36-.01.36-.01.36-.01.37-.01.36-.01.36-.01.36-.01h.36l.37-.01.36-.01.36-.01.36-.01.37-.01.36-.01.36-.01.36-.01.36-.01.37-.01.36-.01.36-.01.36-.01.36-.01.37-.01.36-.01h.36l.36-.01.36-.01.37-.01.36-.01.36-.01.36-.01.36-.01.37-.01.36-.01.36-.01.36-.01.37-.01.36-.01.36-.01.36-.01.36-.01.37-.01.36-.01.36-.01.36-.01.36-.01.37-.01.36-.01.36-.01.36-.01.36-.01.37-.01.36-.01.36-.01.36-.01.37-.01.36-.01.36-.01.36-.01.36-.01.37-.01.36-.01.36-.01.36-.01.36-.01.37-.01.36-.01.36-.01.36-.01.36-.01.37-.01.36-.01.36-.01.36-.01.37-.01.36-.01.36-.01.36-.01.36-.01.37-.01.36-.01.36-.01.36-.01.36-.01.37-.01.36-.01.36-.01.36-.01.36-.01.37-.01.36-.01.36-.01.36-.01.36-.01.37-.01.36-.01.36-.01.36-.01.37-.01h.36l.36-.01.36-.01.36-.01h.37l.36-.01.36-.01h.36l.36-.01.37-.01h.36l.36-.01h.36l.36-.01h.73l.36-.01h.36l.37-.01h.72l.36-.01h.73l.36-.01h.36l.36-.01h.73l.36-.01h.36l.36-.01h.36l.37-.01h.36l.36-.01.36-.01h.36l.37-.01.36-.01.36-.01.36-.01h.37l.36-.01.36-.01.36-.01.36-.01.37-.01.36-.01.36-.01.36-.01.36-.01.37-.01.36-.01.36-.01.36-.01.36-.01.37-.01.36-.02.36-.01.36-.01.37-.01.36-.01.36-.01.36-.01.36-.01.37-.01.36-.01.36-.01.36-.01.36-.01.37-.01.36-.01.36-.01.36-.01.36-.01.37-.01.36-.01.36-.01.36-.01.36-.01.37-.01.36-.01.36-.01.36-.01h.37l.36-.01.36-.01.36-.01.36-.01.37-.01.36-.01.36-.01.36-.01.36-.01.37-.01.36-.01.36-.01.36-.01.36-.01.37-.01h.36l.36-.01.36-.01.37-.01.36-.01h.36l.36-.01.36-.01h.37l.36-.01h.72l.36-.01H305l.36.01h.37l.36.01.36.01h.36l.37.01.36.01.36.01.36.01.36.02.37.01.36.01.36.01.36.02.36.01.37.01.36.01.36.01.36.01.36.01.37.01.36.01.36.01h.72l.37.01h1.08l.37-.01h.72l.36-.01.36-.01h.37l.36-.01.36-.01.36-.01.36-.01h.37l.36-.01.36-.01.36-.01.36-.01.37-.01.36-.02.36-.01.36-.01.37-.01.36-.01.36-.01.36-.01.36-.01.37-.01.36-.01.36-.01.36-.01.36-.01.37-.01.36-.01.36-.01.36-.01.36-.01.37-.01.36-.01.36-.01h.36l.36-.01h1.82l.36.01.36.01.36.01.36.02.37.02.36.02.36.03.36.03.36.04.37.04.36.04.36.05.36.05.36.05.37.05.36.06.36.05.36.05.37.05.36.06.36.04.36.05.36.04.37.04.36.03.36.03.36.03.36.02.37.01.36.02.36.01.36.01h.36l.37.01h1.44l.37-.01h.72l.36-.01h.37l.36-.01h.36l.36-.01h.36l.37-.01h.36l.36-.01h.72l.37-.01h.36l.36-.01h.36l.36-.01h.37l.36-.01h.36l.36-.01h.37l.36-.01h.36l.36-.01h.36l.37-.01h.36l.36-.01h.36l.36-.01h.37l.36-.01h.36l.36-.01h.36l.37-.01h.36l.36-.01h.36l.37-.01h.36l.36-.01h.36l.36-.01h.37l.36-.01h.36l.36-.01h.36l.37-.01h.36l.36-.01h.36l.36-.01.37-.01h.36l.36-.01h.36l.36-.01h.37l.36-.01h.36l.36-.01h.37l.36-.01h.36l.36-.01h.36l.37-.01h.36l.36-.01"/><use xlink:href="#61d29__a" transform="matrix(3.75 0 0 3.75 125.4 144.31)"/><use xlink:href="#61d29__a" transform="matrix(3.75 0 0 3.75 220.55 7.51)"/></g><text stroke-linecap="round" stroke-linejoin="round" color="#000" font-family="KaTeX_Main" font-size="8" transform="translate(241.1 25.11)"><tspan>WBSTRelaxed</tspan></text><g fill="none" stroke="currentColor" stroke-linecap="round" stroke-linejoin="round" color="#000"><path stroke="violet" stroke-dasharray="4.5,2.0,0.5,2.0,0.5,2.0" d="M205.6 22.51h29.9M28 137.29l.36-.62.36-.61.37-.61.36-.6.36-.59.36-.59.36-.58.37-.57.36-.57.36-.57.36-.56.37-.55.36-.55.36-.55.36-.54.36-.53.37-.53.36-.52.36-.52.36-.52.36-.51.37-.5.36-.51.36-.49.36-.5.36-.48.37-.49.36-.48.36-.47.36-.48.36-.46.37-.47.36-.46.36-.45.36-.46.37-.45.36-.44.36-.44.36-.44.36-.43.37-.44.36-.42.36-.43.36-.42.36-.41.37-.42.36-.41.36-.41.36-.4.36-.4.37-.4.36-.4.36-.39.36-.39.37-.38.36-.39.36-.38.36-.37.36-.38.37-.37.36-.37.36-.36.36-.37.36-.36.37-.36.36-.35.36-.36.36-.35.36-.35.37-.34.36-.35.36-.34.36-.34.37-.33.36-.34.36-.33.36-.33.36-.33.37-.32.36-.33.36-.32.36-.32.36-.31.37-.32.36-.31.36-.31.36-.31.36-.31.37-.3.36-.3.36-.3.36-.3.36-.3.37-.29.36-.3.36-.29.36-.28.37-.29.36-.29.36-.28.36-.28.36-.28.37-.28.36-.28.36-.27.36-.27.36-.27.37-.27.36-.27.36-.26.36-.27.36-.26.37-.26.36-.26.36-.26.36-.26.37-.25.36-.25.36-.25.36-.25.36-.25.37-.25.36-.24.36-.25.36-.24.36-.24.37-.24.36-.24.36-.24.36-.23.36-.24.37-.23.36-.23.36-.23.36-.23.36-.23.37-.23.36-.22.36-.23.36-.22.37-.22.36-.22.36-.22.36-.22.36-.22.37-.21.36-.22.36-.21.36-.21.36-.21.37-.21.36-.21.36-.21.36-.21.36-.2.37-.21.36-.2.36-.21.36-.2.37-.2.36-.2.36-.2.36-.2.36-.19.37-.2.36-.19.36-.2.36-.19.36-.19.37-.19.36-.2.36-.18.36-.19.36-.19.37-.19.36-.18.36-.19.36-.18.36-.19.37-.18.36-.18.36-.18.36-.18.37-.18.36-.18.36-.18.36-.17.36-.18.37-.17.36-.18.36-.17.36-.17.36-.17.37-.18.36-.17.36-.16.36-.17.36-.17.37-.17.36-.17.36-.16.36-.17.37-.16.36-.16.36-.17.36-.16.36-.16.37-.16.36-.16.36-.16.36-.16.36-.16.37-.16.36-.15.36-.16.36-.15.36-.16.37-.15.36-.16.36-.15.36-.15.37-.16.36-.15.36-.15.36-.15.36-.15.37-.15.36-.14.36-.15.36-.15.36-.15.37-.14.36-.15.36-.14.36-.15.36-.14.37-.14.36-.15.36-.14.36-.14.36-.14.37-.14.36-.14.36-.14.36-.14.37-.14.36-.14.36-.13.36-.14.36-.14.37-.13.36-.14.36-.13.36-.14.36-.13.37-.13.36-.14.36-.13.36-.13.36-.13.37-.13.36-.13.36-.13.36-.13.37-.13.36-.13.36-.12.36-.13.36-.13.37-.12.36-.13.36-.12.36-.13.36-.12.37-.13.36-.12.36-.12.36-.12.36-.13.37-.12.36-.11.36-.12.36-.12.36-.12.37-.11.36-.11.36-.11.36-.11.37-.1.36-.1.36-.1.36-.09.36-.09.37-.08.36-.07.36-.06.36-.05.36-.04.37-.02.36-.01h.36l.36.03.36.06.37.07.36.11.36.14.36.18.37.21.36.25.36.31.36.35.36.41.37.46.36.53.36.59.36.66.36.73.37.81.36.89.36.97.36 1.05.36 1.13.37 1.22.36 1.31.36 1.39.36 1.47.36 1.56.37 1.64.36 1.72.36 1.79.36 1.86.37 1.92.36 1.99.36 2.03.36 2.09.36 2.12.37 2.16.36 2.18.36 2.19.36 2.21.36 2.2.37 2.2.36 2.18.36 2.16.36 2.13.36 2.09.37 2.04.36 2 .36 1.93.36 1.88.37 1.81.36 1.73.36 1.67.36 1.58.36 1.51.37 1.43.36 1.35.36 1.26.36 1.19.36 1.11.37 1.03.36.95.36.88.36.81.36.74.37.67.36.61.36.56.36.5.37.44.36.4.36.36.36.31.36.28.37.24.36.21.36.18.36.15.36.13.37.11.36.1.36.07.36.06.36.05.37.04.36.03.36.02.36.01.36.01h.73l.36-.01.36-.01.37-.02.36-.01.36-.02.36-.02.36-.02.37-.02.36-.03.36-.02.36-.03.36-.02.37-.03.36-.02.36-.03.36-.03.36-.02.37-.03.36-.03.36-.02.36-.03.37-.03.36-.03.36-.02.36-.03.36-.03.37-.03.36-.02.36-.03.36-.03.36-.03.37-.02.36-.03.36-.03.36-.03.36-.03.37-.02.36-.03.36-.03.36-.03.36-.03.37-.03.36-.02.36-.03.36-.03.37-.03.36-.03.36-.03.36-.02.36-.03.37-.03.36-.03.36-.03.36-.03.36-.03.37-.02.36-.03.36-.03.36-.03.36-.03.37-.03.36-.03.36-.03.36-.03.37-.02.36-.03.36-.03.36-.03.36-.03.37-.03.36-.03.36-.03.36-.03.36-.03.37-.03.36-.03.36-.02.36-.03.36-.03.37-.03.36-.03.36-.03.36-.03.37-.03.36-.03.36-.03.36-.03.36-.03.37-.03.36-.03.36-.03.36-.03.36-.03.37-.03.36-.03.36-.03.36-.03.36-.03.37-.02.36-.03.36-.03.36-.03.36-.03.37-.03.36-.03.36-.03.36-.03.37-.03.36-.03.36-.03.36-.03.36-.03.37-.03.36-.03.36-.03.36-.03.36-.03.37-.03.36-.03.36-.03.36-.03.36-.03.37-.03.36-.03.36-.03.36-.04.37-.03.36-.03.36-.03.36-.03.36-.03.37-.03.36-.03.36-.03.36-.03.36-.03.37-.03.36-.03.36-.03.36-.03.36-.03.37-.03.36-.03.36-.03.36-.03.36-.03.37-.03.36-.03.36-.03.36-.03.37-.03.36-.03.36-.04.36-.03.36-.03.37-.03.36-.03.36-.03.36-.03.36-.03.37-.03.36-.03.36-.03.36-.03.36-.03.37-.03.36-.03.36-.03.36-.03.37-.03.36-.03.36-.03.36-.04.36-.03.37-.03.36-.03.36-.03.36-.03.36-.03.37-.03.36-.03.36-.03.36-.03.36-.03.37-.03.36-.03.36-.03.36-.04.36-.03.37-.03.36-.03.36-.03.36-.03.37-.03.36-.03.36-.03.36-.03.36-.03.37-.03.36-.03.36-.03.36-.04.36-.03.37-.03.36-.03.36-.03.36-.03.36-.03.37-.03.36-.03.36-.03.36-.03.37-.03.36-.03.36-.04.36-.03.36-.03.37-.03.36-.03.36-.03.36-.03.36-.03.37-.03.36-.03.36-.03.36-.03.36-.03.37-.04.36-.03.36-.03.36-.03.37-.03.36-.03.36-.03.36-.03.36-.03.37-.03.36-.03.36-.03.36-.03.36-.04.37-.03.36-.03.36-.03.36-.03.36-.03.37-.03.36-.03.36-.03.36-.03.36-.03.37-.03.36-.04.36-.03.36-.03.37-.03.36-.03.36-.03.36-.03.36-.03.37-.03.36-.03.36-.03.36-.03.36-.04.37-.03.36-.03.36-.03.36-.03.36-.03.37-.03.36-.03.36-.03.36-.03.37-.03.36-.03.36-.03.36-.04.36-.03.37-.03.36-.03.36-.03.36-.03.36-.03.37-.03.36-.03.36-.03.36-.03.36-.03.37-.03.36-.04.36-.03.36-.03.36-.03.37-.03.36-.03.36-.03.36-.03.37-.03.36-.03.36-.03.36-.03.36-.03.37-.03.36-.04.36-.03.36-.03.36-.03.37-.03.36-.03.36-.03.36-.03.36-.03.37-.03.36-.03.36-.03.36-.03.37-.03.36-.03.36-.03.36-.04.36-.03.37-.03.36-.03.36-.03.36-.03.36-.03.37-.03.36-.03.36-.03.36-.03.36-.03.37-.03.36-.03.36-.03.36-.03.36-.03.37-.03.36-.03.36-.03.36-.03.37-.03.36-.03.36-.04.36-.03.36-.03.37-.03.36-.03.36-.03.36-.03.36-.03.37-.03.36-.03.36-.03.36-.03.36-.03.37-.03.36-.03.36-.03.36-.03.37-.03.36-.03.36-.03.36-.03.36-.03.37-.03.36-.03.36-.03.36-.03.36-.03.37-.03.36-.03.36-.03.36-.03.36-.04.37-.03.36-.03.36-.03.36-.03.37-.03.36-.03.36-.03.36-.03.36-.03.37-.03.36-.03.36-.03.36-.03.36-.03.37-.03.36-.03.36-.03.36-.03.36-.03.37-.03.36-.03.36-.03.36-.03.36-.03.37-.03.36-.03.36-.03.36-.03.37-.03.36-.03.36-.03.36-.03.36-.03.37-.03.36-.03.36-.03.36-.03.36-.03.37-.03.36-.03.36-.03.36-.03.36-.03.37-.03.36-.03.36-.03.36-.03.37-.03.36-.03.36-.03.36-.03.36-.03.37-.03.36-.03.36-.03.36-.03.36-.03.37-.02.36-.03.36-.03.36-.03.36-.03.37-.03.36-.03.36-.03.36-.03.36-.03.37-.03.36-.03.36-.03.36-.03.37-.03.36-.03.36-.03.36-.03.36-.03.37-.03.36-.03.36-.03.36-.03.36-.03.37-.03.36-.03.36-.03.36-.03.36-.02.37-.03.36-.03.36-.03.36-.03.37-.03.36-.03.36-.03.36-.03.36-.03.37-.03.36-.03.36-.03.36-.03.36-.03.37-.03.36-.03.36-.03.36-.02.36-.03.37-.03.36-.03.36-.03.36-.03.36-.03.37-.03.36-.03.36-.03.36-.03.37-.03.36-.03.36-.03.36-.02.36-.03.37-.03.36-.03.36-.03.36-.03.36-.03.37-.03.36-.03.36-.03.36-.02.36-.03.37-.03.36-.03.36-.03.36-.03.37-.03.36-.03.36-.03.36-.02.36-.03.37-.03.36-.03.36-.03.36-.03.36-.03.37-.03.36-.03.36-.02.36-.03.36-.03.37-.03.36-.03.36-.03.36-.03.37-.03.36-.03.36-.02.36-.03.36-.03.37-.03.36-.03.36-.03.36-.03.36-.02.37-.03.36-.03.36-.03.36-.03.36-.03.37-.03.36-.03.36-.02.36-.03.36-.03.37-.03.36-.03.36-.03.36-.03.37-.03.36-.02.36-.03.36-.03.36-.03.37-.03.36-.03.36-.02"/><use xlink:href="#61d29__f" color="violet" transform="matrix(3.75 0 0 3.75 182.98 148.32)"/><use xlink:href="#61d29__f" color="violet" transform="matrix(3.75 0 0 3.75 220.55 22.51)"/></g><path fill="none" d="M28 45.01V162.5M371.99 45.01H28" color="#000"/></svg>