<svg xmlns="http://www.w3.org/2000/svg" xmlns:xlink="http://www.w3.org/1999/xlink" viewBox="0 0 400 200"><path fill="none" d="M0 0h400v200H0z"/><defs><path id="06bae__b" stroke="currentColor" stroke-width=".267" d="M-1-1h2v2h-2z"/><path id="06bae__a" stroke="currentColor" stroke-width=".267" d="m0-1.33-1.33 2h2.66z"/><path id="06bae__f" stroke="currentColor" stroke-width=".267" d="M0 1.33 1.265.411.782-1.067l-1.564-.009-.483 1.487z"/><use xlink:href="#06bae__a" id="06bae__d" fill="currentColor" stroke="none"/><use xlink:href="#06bae__b" id="06bae__c" stroke="currentColor" transform="rotate(45)"/><use xlink:href="#06bae__c" id="06bae__e" fill="currentColor" stroke="none"/></defs><path fill="none" stroke="#CCC" stroke-linecap="round" stroke-linejoin="round" stroke-width=".1" d="M46.1 162.5V45.01" class="06bae__gridline" color="#000"/><g fill="none" stroke-linecap="round" stroke-linejoin="round" stroke-width="0" color="#000"><path d="M46.1 162.5V155m0-109.99v7.5"/><text fill="#000" font-family="KaTeX_Main" font-size="8" text-anchor="middle" transform="translate(46.1 172.6)"><tspan> 1</tspan></text></g><path fill="none" stroke="#CCC" stroke-linecap="round" stroke-linejoin="round" stroke-width=".1" d="M82.31 162.5V45.01" class="06bae__gridline" color="#000"/><g fill="none" stroke-linecap="round" stroke-linejoin="round" stroke-width="0" color="#000"><path d="M82.31 162.5V155m0-109.99v7.5"/><text fill="#000" font-family="KaTeX_Main" font-size="8" text-anchor="middle" transform="translate(82.31 172.6)"><tspan> 2</tspan></text></g><path fill="none" stroke="#CCC" stroke-linecap="round" stroke-linejoin="round" stroke-width=".1" d="M118.52 162.5V45.01" class="06bae__gridline" color="#000"/><g fill="none" stroke-linecap="round" stroke-linejoin="round" stroke-width="0" color="#000"><path d="M118.52 162.5V155m0-109.99v7.5"/><text fill="#000" font-family="KaTeX_Main" font-size="8" text-anchor="middle" transform="translate(118.52 172.6)"><tspan> 3</tspan></text></g><path fill="none" stroke="#CCC" stroke-linecap="round" stroke-linejoin="round" stroke-width=".1" d="M154.73 162.5V45.01" class="06bae__gridline" color="#000"/><g fill="none" stroke-linecap="round" stroke-linejoin="round" stroke-width="0" color="#000"><path d="M154.73 162.5V155m0-109.99v7.5"/><text fill="#000" font-family="KaTeX_Main" font-size="8" text-anchor="middle" transform="translate(154.73 172.6)"><tspan> 4</tspan></text></g><path fill="none" stroke="#CCC" stroke-linecap="round" stroke-linejoin="round" stroke-width=".1" d="M190.94 162.5V45.01" class="06bae__gridline" color="#000"/><g fill="none" stroke-linecap="round" stroke-linejoin="round" stroke-width="0" color="#000"><path d="M190.94 162.5V155m0-109.99v7.5"/><text fill="#000" font-family="KaTeX_Main" font-size="8" text-anchor="middle" transform="translate(190.94 172.6)"><tspan> 5</tspan></text></g><path fill="none" stroke="#CCC" stroke-linecap="round" stroke-linejoin="round" stroke-width=".1" d="M227.15 162.5V45.01" class="06bae__gridline" color="#000"/><g fill="none" stroke-linecap="round" stroke-linejoin="round" stroke-width="0" color="#000"><path d="M227.15 162.5V155m0-109.99v7.5"/><text fill="#000" font-family="KaTeX_Main" font-size="8" text-anchor="middle" transform="translate(227.15 172.6)"><tspan> 6</tspan></text></g><path fill="none" stroke="#CCC" stroke-linecap="round" stroke-linejoin="round" stroke-width=".1" d="M263.36 162.5V45.01" class="06bae__gridline" color="#000"/><g fill="none" stroke-linecap="round" stroke-linejoin="round" stroke-width="0" color="#000"><path d="M263.36 162.5V155m0-109.99v7.5"/><text fill="#000" font-family="KaTeX_Main" font-size="8" text-anchor="middle" transform="translate(263.36 172.6)"><tspan> 7</tspan></text></g><path fill="none" stroke="#CCC" stroke-linecap="round" stroke-linejoin="round" stroke-width=".1" d="M299.57 162.5V45.01" class="06bae__gridline" color="#000"/><g fill="none" stroke-linecap="round" stroke-linejoin="round" stroke-width="0" color="#000"><path d="M299.57 162.5V155m0-109.99v7.5"/><text fill="#000" font-family="KaTeX_Main" font-size="8" text-anchor="middle" transform="translate(299.57 172.6)"><tspan> 8</tspan></text></g><path fill="none" stroke="#CCC" stroke-linecap="round" stroke-linejoin="round" stroke-width=".1" d="M335.78 162.5V45.01" class="06bae__gridline" color="#000"/><g fill="none" stroke-linecap="round" stroke-linejoin="round" stroke-width="0" color="#000"><path d="M335.78 162.5V155m0-109.99v7.5"/><text fill="#000" font-family="KaTeX_Main" font-size="8" text-anchor="middle" transform="translate(335.78 172.6)"><tspan> 9</tspan></text></g><path fill="none" stroke="#CCC" stroke-linecap="round" stroke-linejoin="round" stroke-width=".1" d="M371.99 162.5V45.01" class="06bae__gridline" color="#000"/><g fill="none" stroke-linecap="round" stroke-linejoin="round" stroke-width="0" color="#000"><path d="M371.99 162.5V155m0-109.99v7.5"/><text fill="#000" font-family="KaTeX_Main" font-size="8" text-anchor="middle" transform="translate(371.99 172.6)"><tspan> 10</tspan></text></g><g fill="none" stroke-linecap="round" stroke-linejoin="round" stroke-width="0" color="#000"><path d="M371.99 162.5h-7.5"/><text fill="#000" font-family="KaTeX_Main" font-size="8" transform="translate(378.99 165.1)"><tspan>-1</tspan></text></g><g fill="none" stroke-linecap="round" stroke-linejoin="round" stroke-width="0" color="#000"><path d="M371.99 133.13h-7.5"/><text fill="#000" font-family="KaTeX_Main" font-size="8" transform="translate(378.99 135.73)"><tspan>0</tspan></text></g><g fill="none" stroke-linecap="round" stroke-linejoin="round" stroke-width="0" color="#000"><path d="M371.99 103.75h-7.5"/><text fill="#000" font-family="KaTeX_Main" font-size="8" transform="translate(378.99 106.35)"><tspan>1</tspan></text></g><g fill="none" stroke-linecap="round" stroke-linejoin="round" stroke-width="0" color="#000"><path d="M371.99 74.38h-7.5"/><text fill="#000" font-family="KaTeX_Main" font-size="8" transform="translate(378.99 76.98)"><tspan>2</tspan></text></g><g fill="none" stroke-linecap="round" stroke-linejoin="round" stroke-width="0" color="#000"><path d="M371.99 45.01h-7.5"/><text fill="#000" font-family="KaTeX_Main" font-size="8" transform="translate(378.99 47.61)"><tspan>3</tspan></text></g><path fill="none" d="M28 45.01V162.5M371.99 45.01H28" color="#000"/><text stroke-linecap="round" stroke-linejoin="round" stroke-width="0" color="#000" font-family="KaTeX_Main" font-size="10" text-anchor="middle" transform="rotate(-90 57.63 46.13)"><tspan>log</tspan><tspan dy="3" font-size="8">2</tspan><tspan dy="-3">(</tspan><tspan font-weight="bold">Average Path Length </tspan><tspan> / log</tspan><tspan dy="3" font-size="8">2</tspan><tspan dy="-3">(Size))</tspan></text><text stroke-linecap="round" stroke-linejoin="round" stroke-width="0" color="#000" font-family="KaTeX_Main" font-size="10" text-anchor="middle" transform="translate(199.99 195.75)"><tspan>Operations / 10</tspan><tspan dy="-5" font-size="8">6</tspan></text><text stroke-linecap="round" stroke-linejoin="round" color="#000" font-family="KaTeX_Main" font-size="8" transform="translate(132.8 10.11)"><tspan>Splay</tspan></text><g fill="none" stroke="currentColor" stroke-linecap="round" stroke-linejoin="round" color="#000"><path stroke="#29C3F6" d="M97.3 7.51h29.9M28 58.99h.36l.36-1.74.37 1.29.36 3.41.36-1.31.36-.84.36-1.72.37 3.31.36-2.21.36-1.6.36.9.37.34.36.66.36 1.77.36-2.01.36-.73.37.78.36-.23.36-.61.36.09.36 1.56.37.48.36-2.88.36 2.71.36-.6.36.09.37-.39.36.15.36 1.68.36.32.36-1.91.37-1.13.36 3.64.36-1.31.36 1.74.37-.65.36-3.68.36 4 .36-.68.36-.68.37.76.36-1.83.36 1.48.36-1.82.36 2.97.37-1.41.36-.16.36-.58.36.19.36 1.11.37-3.26.36 2.16.36 1.92.36-.83.37 1.1.36.03.36-1.16.36-.27.36-.06.37.69.36-2.5.36 1.22.36 2.64.36.77.37.1.36-1.38.36-.12.36.48.36.53.37.25.36-3.21.36 2.62.36.49.37-.11.36-2.13.36-.66.36 2.6.36.57.37.08.36-1.79.36 1.33.36-2.03.36-.73.37 2.02.36-1.38.36 2.5.36-.42.36-.22.37-1.12.36 1.6.36-.56.36-1.05.36 2.7.37-2.58.36-1.71.36 1.29.36-1.94.37 2.25.36-.09.36 3.95.36-2.51.36-1.8.37.74.36-1.82.36 2.92.36-.9.36-1.59.37 3.36.36 1.66.36-1.68.36 1.01.36.31.37-.01.36.06.36-.4.36-.93.37.52.36-.13.36.23.36-.99.36-.91.37 1.41.36-.76.36-.51.36 1.68.36-2.12.37 1.68.36.61.36-1.45.36.08.36.71.37-1.06.36 2.32.36-2.64.36.09.36 3.92.37-4.09.36.69.36 1.58.36-1.86.37.78.36 1.3.36-.05.36-1.24.36 1.39.37.04.36-.43.36-.29.36.44.36-.94.37-.39.36.45.36 1.46.36-.51.36-.42.37.16.36.56.36.64.36-2.2.37-.71.36 1.25.36.69.36-.24.36.61.37-1.78.36 2.22.36-2.82.36.97.36 1.27.37-1.25.36 1.82.36-.73.36 1.79.36-.86.37 1.2.36-2.06.36 2.4.36-.46.36-1.14.37.44.36-1.88.36-.66.36 2.45.37-4.91.36.76.36.91.36 1.73.36 1.24.37.39.36-4.11.36 2.42.36-1.29.36 2.08.37-2.38.36.28.36 2.39.36-2.62.36-.85.37 3.12.36 1.18.36-4.54.36 1.73.37-.33.36-.78.36-.84.36 2.05.36.11.37-1.5.36.59.36-.85.36 2.08.36-1.17.37 3.08.36-3.2.36 1.87.36.27.36-3.22.37 3.21.36-2.5.36 2.57.36-1.77.37.75.36-4.61.36.89.36 3.36.36.91.37-1.83.36-.55.36.5.36.18.36.56.37.28.36-3.98.36 1.51.36-1.19.36 2.14.37 1.15.36-1.12.36-.94.36 1.86.36.77.37-3.85.36.48.36.87.36.69.37.41.36.69.36-.83.36 1.15.36 1.42.37-1.04.36.33.36-.2.36-3.3.36.86.37 1.28.36-1.12.36.56.36-.33.36.49.37-.64.36-2.01.36 3.27.36-2.85.37.47.36 1.91.36-.98.36 2.28.36-3.03.37 1.17.36 2.63.36-3.46.36.91.36-.21.37.03.36-1.73.36.48.36-1.18.36 2.78.37.86.36-.04.36.11.36-1.13.36.97.37-.17.36-.73.36-4.55.36 3.55.37.55.36-.27.36-1.52.36.12.36-.63.37 2.78.36-1.51.36-2.69.36 2.64h.36l.37-1.28.36-1.82.36.22.36 2.52.36.27.37-.12.36-.07.36-1.87.36 1.23.37-3.04.36 2.57.36-.82.36.91.36-.97.37 5.64.36-3.33.36.08.36.96.36 5.42.37-4.27.36.29.36 2.16.36-1.81.36 1.59.37-1.14.36.3.36-.79.36-.62.36 1.71.37-3.32.36 3.49.36.03.36-.17.37-.95.36 2.02.36.04.36.63.36-2.31.37 2.42.36-1.12.36-.8.36.36.36-.15.37 2.46.36-.8.36-5.04.36 2.07.36-.4.37 1.42.36-1.89.36-.23.36-.69.37 2.58.36 2.4.36-1.59.36.03.36 1.26.37-.59.36-.3.36 1.5.36-2.2.36.18.37-.86.36-1.57.36 2.77.36-1.13.36.63.37.04.36-.91.36.56.36.62.37-1.07.36 1.41.36-.82.36.2.36-1.11.37.56.36-.15.36 2.29.36-.66.36-1.82.37-1.33.36.51.36-1.82.36-1.46.36 5.83.37-.67.36-1.32.36-.81.36 2.21.36-2.58.37-1.35.36 3.87.36-1.48.36-.31.37 1.04.36 1.48.36-1.76.36-1.02.36 2.3.37-2.9.36 4.2.36-1.68.36.12.36-1.48.37 1.64.36-.27.36.31.36-1.68.36-1.22.37 1.88.36-2.18.36 3 .36-2.1.37 1.1.36-1.21.36 2.79.36-4.13.36 4.77.37-4.03.36 2.12.36.88.36-2.92.36.18.37 1.41.36-.72.36 2.55.36-3.17.36-.07.37 1.11.36 1.37.36.92.36-.48.36-1.59.37 2.23.36-4.73.36 2.34.36-1.48.37.78.36 2.83.36-1.56.36 2.52.36-2.43.37-.9.36 1.71.36-2.03.36 2.1.36-.89.37-.6.36 1.21.36-.37.36-3.12.36.37.37 3.12.36-4.36.36 6.83.36-3.7.37 2.02.36-.11.36-1.88.36-.42.36.68.37-.91.36 2.77.36-2.32.36.79.36 1.03.37-.06.36-2.78.36 1.91.36-.5.36-.03.37-.56.36.5.36 1.07.36.63.37-1.77.36-.35.36 1.41.36-2.1.36 1.68.37 1.7.36.5.36-3.28.36.39.36-.09.37 3.2.36-1.93.36-2.96.36.97.36 1.75.37-1.32.36-.02.36-.67.36 1.44.36 2.19.37-.46.36-.36.36-.2.36-1.97.37.1.36-1.62.36 2.73.36.18.36-.15.37-1.52.36-.17.36-.29.36 1.52.36-1.15.37 1.62.36 1.13.36.67.36-2.09.36 1.64.37-.86.36-2.96.36.48.36.86.37 1.58.36 1.32.36-1.98.36-.22.36-1.24.37.43.36-.3.36-.31.36 2.78.36.8.37-.12.36-.51.36-1.45.36.44.36.51.37-.22.36.64.36.65.36-2.34.36.9.37-1.02.36.41.36 1.58.36-.26.37 1.11.36-2.7.36-.63.36.63.36.19.37-.13.36 1.36.36-.76.36 1.55.36.85.37-2.29.36 2.2.36-1.43.36-.41.36-.68.37 2.16.36-.43.36-.49.36.02h.37l.36-1.38.36.97.36-.92.36 1.9.37.06.36-1.77.36.77.36.52.36.16.37-.71.36-.33.36-.84.36 1.96.36-.54.37 2.07.36-4.06.36-.19.36.61.36-.81.37 1.66.36 1.42.36-1.74.36-.11.37-.85.36 2.26.36-1.53.36.62.36.57.37-1.82.36.12.36 2.01.36-.87.36-.27.37 2.01.36-2.26.36-.22.36 1.85.36-1.88.37.61.36.97.36-2.07.36.91.37 2.29.36-2.42.36.43.36-.52.36 1.02.37-.46.36-.32.36 1.61.36-.6.36 2.33.37-3.55.36.28.36 1.31.36-.3.36-3.19.37 2.26.36 4.12.36-3.24.36 2.51.37-3.47.36 2.53.36-1.2.36-.63.36-.06.37 2.17.36-1.55.36-2.09.36-1.37.36 1.45.37 1.18.36.42.36-1.36.36 1.58.36-.68.37 1.21.36-.08.36-1.35.36-.48.36 1.59.37-1.01.36.62.36.39.36-1.32.37-.54.36-3 .36 2.58.36.44.36-.06.37-.64.36 2.99.36-2.16.36 1.81.36 3.03.37-2.52.36 1.57.36.46.36-3.72.36-.16.37-.84.36 3.64.36.52.36-1.77.37 1.22.36 2.88.36-3.65.36.08.36-.79.37.83.36 1.55.36.42.36-.35.36-2.83.37.63.36.09.36 1.67.36-.84.36 2.84.37-1.2.36-2.28.36 2.15.36-3.54.36 1.05.37 3.11.36-3.73.36 1.97.36-.65.37 1.46.36-5.41.36 3.05.36.77.36.22.37-3.52.36 3.61.36.61.36-1.31.36-.04.37-.86.36-1.39.36 5.51.36-1.06.36-.4.37.7.36.05.36 2.57.36-5.28.37.43.36-.23.36-1 .36.72.36.72.37 2.01.36.11.36.15.36-3.63.36.25.37-.21.36 2.32.36-.05.36-2.05.36 1.75.37 2.08.36-2.5.36 2.08.36-2.67.36 1.75.37 3.87.36-4.36.36.75.36-1.49.37-3.3.36 3.98.36 1.5.36-.05.36.21.37-1.87.36-1.3.36 1.52.36-.43.36-.39.37-1.18.36 2.27.36.09.36-2.84.36-1.42.37 1.73.36.21.36 1.6.36-2.62.37 1.8.36 1.99.36-2.51.36-1.25.36 2.36.37-.8.36.6.36-4.66.36 3.21.36-1.22.37 1.52.36-1.1.36.47.36-.76.36 4.52.37.96.36-1.6.36-1.56.36 2.94.37-.4.36 2.35.36-4.19.36 2.18.36-4.41.37 3.1.36 3.74.36-2.4.36.93.36.58.37.06.36-.6.36-.1.36.34.36 1.17.37-1.36.36-5.61.36 4.17.36-2.17.36 1.28.37.55.36-.12.36-1.62.36 3.74.37-1.27.36 1.2.36-4.54.36 4.2.36-3.61.37 2.83.36.12.36-2.2.36 5.31.36-3.07.37-3.19.36 1.02.36.77.36-.89.36 2.55.37-.03.36-1.16.36-1.25.36.29.37 1.98.36 1.33.36-.71.36-1.38.36.53.37.47.36-1.88.36-.29.36-3.04.36 1.82.37-2.34.36 3.55.36-2.07.36 2 .36.08.37 1.09.36-1.63.36-1.14.36 3.4.36-1.43.37-2.51.36 4.1.36.78.36-1.05.37-2.8.36.84.36.89.36-2.99.36.51.37 2.38.36 1 .36-.32.36-.06.36-1.03.37 1.02.36-.58.36-1.12.36 2.7.36-1.79.37-1.32.36 2.2.36-2.83.36 2.43.37.36.36.46.36-1.91.36.47.36-.2.37-.16.36 1.28.36-1.44.36.03.36.82.37-2.42.36 4.45.36-.49.36-2.61.36-.42.37 2.7.36-.11.36-1.94.36 2.14.36-.46.37 1.51.36-4.42.36-1.08.36 4.25.37-1.29.36 1.95.36-.39.36-.27.36-1.35.37-1.61.36 1.27.36-1.73.36.59.36 1.88.37-.87.36.8.36 2.15.36-4.63.36-.81.37 1.06.36 1.97.36-.89.36.74.37-.72.36-.83.36.06.36 2.19.36-1.75.37-.79.36 2.55.36 1 .36-3 .36-.44.37-2.01.36 3.54.36 1.05.36 1.2.36-2.78.37.92.36-.74.36-.82.36 2.48.37-.87.36-.69.36 2.18.36-.6.36.61.37-.96.36-2.47.36.38.36-2.35.36 1.77.37 2 .36-.41.36 1.15.36 2.47.36-2 .37-2.1.36 3.2.36-2.14.36.88.36.03.37-.63.36-.66.36.6.36 1.22.37.42.36-2.21.36-1.55.36 1.23.36-2.97.37 4.7.36-3.66.36.44"/><use xlink:href="#06bae__b" color="#29C3F6" transform="matrix(3.75 0 0 3.75 354.25 67.19)"/><use xlink:href="#06bae__b" color="#29C3F6" transform="matrix(3.75 0 0 3.75 112.25 7.51)"/></g><text stroke-linecap="round" stroke-linejoin="round" stroke-width=".5" color="#000" font-family="KaTeX_Main" font-size="8" transform="translate(132.8 25.11)"><tspan>AVLBottomUp</tspan></text><g fill="none" stroke="currentColor" stroke-linecap="round" stroke-linejoin="round" stroke-width=".5" color="#000"><path stroke="#000" d="M97.3 22.51h29.9M28 136.61l.36-.04.36.26.37-.01.36-.02.36-.03.36-.04.36-.03.37-.05.36-.01.36-.01.36-.03.37-.02.36.17.36-.01.36-.01.36-.02.37-.02.36-.01.36-.02.36-.03.36-.04.37-.03.36-.04.36-.02.36-.04.36.01.37-.01.36-.01.36-.01.36-.02.36-.02.37-.02.36-.02.36-.03.36-.03.37-.03.36-.03.36-.03.36.25.36-.01.37-.02.36-.02.36-.03.36-.02.36.05.37-.02.36-.01.36-.02.36-.02.36-.03.37.29.36-.01.36-.02.36-.02.37-.02.36-.02.36-.01.36-.02.36-.02.37.05.36.01.36-.02.36-.02.36.07.37-.01h.36l.36-.01h.36l.36-.01.37-.01.36-.01.36-.02.36-.01.37-.02.36-.01.36-.02.36-.02.36-.02.37-.02.36-.02.36-.02.36-.03.36-.02.37-.03.36-.02.36-.05.36.03.36-.02.37.05.36-.02.36-.02.36-.02.36-.02.37-.02.36-.02.36-.02.36-.02.37.08.36-.01.36-.01.36-.01.36-.01.37-.02.36-.01.36-.02.36-.01.36.08.37.01h1.81l.36.01.36-.01h.73l.36-.01h.36l.36-.01h.36l.37-.01.36-.01h.36l.36-.01.36-.01.37-.01.36-.02.36-.01.36-.01.36-.01.37-.01.36-.01.36-.02.36.03.36.27.37-.01h.72l.36-.01h.73l.36-.01h.36l.36-.01.37-.01.36.01h.36l.36-.01.36-.01h.37l.36-.01.36-.01.36-.01.36-.01h.37l.36-.01.36.13h1.09l.36-.01h.72l.37-.01h.36l.36-.01.36-.01h.36l.37-.01h.36l.36-.01.36.09h2.9l.36-.01h.73l.36-.01h.72l.36.03h1.09l.36.01h3.99l.36-.01h1.45l.36-.01.36.01h.36l.36-.01h.73l.36-.01h.36l.36-.01h.37l.36-.01.36-.01h.36l.37-.01.36-.01h.36l.36-.01.36-.01.37-.01.36-.01.36-.01h.36l.36-.01.37-.01.36-.01.36-.01.36-.01.36-.01.37-.01.36.05h1.08l.37-.01h1.08l.37-.01h1.08l.36-.01h.37l.36-.01h.72l.36-.01h.37l.36-.01h.36l.36-.01h.36l.37-.01h.72l.36-.01h.37l.36-.01h.36l.36-.01.36-.01h.37l.36-.01.36-.01h.36l.36-.01h.37l.36-.01.36.1.36-.01h1.81l.36-.01h1.45l.37-.01h.72l.36-.01h1.09l.36-.01h.36l.36-.01h.73l.36-.01h.36l.36-.01h.37l.36-.01h.36l.36.03.37-.01h.72l.36.01h1.81l.36-.01h1.81l.37-.01h1.08l.36-.01h.73l.36-.01h1.09l.36-.01h.36l.36.01h.73l.36-.01h1.09l.36-.01h.72l.36-.01h.37l.36.16h3.26l.36-.01h2.9l.36-.01h1.09l.36-.01h5.07l.36-.01h1.81l.36-.01h.73l.36-.01h.36l.36.02h.73l.36-.01h1.81l.36-.01h.72l.37.08h1.45l.36.01h2.53l.36.01h9.06l.36-.01h2.17l.36-.01h1.45l.36-.01h1.09l.36-.01h.73l.36-.01h.72l.36-.01h.73l.36-.01h.73l.36-.01h.72l.36-.01h.73l.36-.01h.72l.37-.01h.36l.36-.01h.72l.37-.01h.36l.36-.01.36.05h1.45l.36-.01h.73l.36-.01h1.09l.36-.01h1.08l.37-.01h.72l.36-.01h.73l.36-.01h.72l.37-.01h.72l.36-.01h.73l.36-.01h.36l.36-.01.36.07h.37l.36-.01h1.08l.37-.01h1.08l.36-.01h1.09l.36-.01h1.09l.36-.01h.73l.36-.01h1.08l.37-.01h.72l.36-.01h.73l.36-.01h.72l.37-.01h.72l.36-.01.36.09h3.99l.36-.01h2.17l.36-.01h1.81l.37-.01h1.44l.37-.01h1.08l.36-.01h1.09l.36-.01h1.09l.36-.01h.73l.36-.01h1.08l.37-.01h.72l.36-.01.36-.04h1.09l.36-.01h2.54l.36-.01h2.9l.36-.01h1.81l.36-.01H263l.36-.01h1.81l.36.02h2.18l.36-.01h1.81l.36-.01.36.11h1.09l.36-.01h3.26l.36-.01h2.18l.36-.01h1.45l.36.01h.72l.36-.01h2.54l.36-.01h.73l.36.03h.36l.36-.01h2.9l.36-.01h2.53l.37-.01h2.17l.36-.01h1.81l.36-.01h1.45l.36-.01h1.09l.36.12h11.23l.36-.01h3.26l.36-.01h2.9l.36-.01h1.81l.36-.01h1.81l.37-.01h1.81l.36-.01h1.45l.36-.01h1.45l.36-.01h1.08l.37-.01h1.08l.37-.01h1.08l.36-.01.37.03h.72l.36-.01h1.45l.36-.01h1.09l.36-.01h1.45l.36-.01h1.09l.36-.01h1.45l.36-.01h1.09l.36-.01h1.08l.37-.01h1.08l.37-.01h1.08l.36-.01h1.09l.36-.01h1.09l.36-.01h.72l.37-.01h1.08l.37-.01h1.08l.36-.01h.73l.36-.01h.36l.36.1h.37l.36-.01h1.45l.36-.01h1.45l.36-.01h1.45l.36.05h.36l.36-.01h1.81l.37-.01h2.17l.36-.01h1.81l.36-.01h1.09"/><use xlink:href="#06bae__d" transform="matrix(3.75 0 0 3.75 67.83 136.14)"/><use xlink:href="#06bae__d" transform="matrix(3.75 0 0 3.75 112.25 22.51)"/></g><text stroke-linecap="round" stroke-linejoin="round" color="#000" font-family="KaTeX_Main" font-size="8" transform="translate(241.1 10.11)"><tspan>LBSTRelaxed</tspan></text><g fill="none" stroke="currentColor" stroke-linecap="round" stroke-linejoin="round" color="#000"><path stroke="#FFAB00" stroke-dasharray="4.0,2.0,1.0,2.0" d="M205.6 7.51h29.9M28 135.55l.36-.16.36-.16.37-.18.36-.17.36-.19.36-.19.36-.19.37-.2.36-.2.36-.2.36-.2.37-.21.36-.21.36 3.12.36-.04.36-.05.37-.05.36-.06.36-.07.36-.07.36-.08.37-.08.36-.08.36-.09.36-.1.36-.09.37-.1.36-.11.36-.11.36-.11.36-.12.37-.11.36-.12.36-.13.36-.12.37-.13.36 2.16.36-.02.36-.02.36-.03.37-.04.36-.04.36-.04.36-.04.36-.05.37-.06.36-.05.36-.06.36-.06.36-.07.37-.06.36-.07.36-.07.36-.08.37-.07.36-.08.36-.08.36-.08.36-.08.37-.08.36-.09.36-.08.36-.09.36-.08.37-.09.36 1.25.36-.04.36-.04.36-.04.37-.04.36-.05.36-.05.36-.04.37-.05.36-.05.36-.05.36-.05.36-.05.37-.06.36-.05.36-.06.36-.06.36-.05.37-.06.36-.06.36-.06.36-.07.36-.06.37-.06.36-.07.36-.06.36-.07.36-.07.37-.07.36-.07.36-.07.36-.07.37-.07.36-.07.36-.08.36-.07.36-.07.37-.08.36-.08.36-.07.36-.08.36-.08.37 2.78.36-.01.36-.01.36-.01.36-.01.37-.02.36-.01.36-.02.36-.02.37-.01.36-.02.36-.02.36-.02.36-.03.37-.02.36-.02.36-.03.36-.02.36-.03.37-.03.36-.02.36-.03.36-.03.36-.03.37-.03.36-.04.36-.03.36-.03.36-.04.37-.03.36-.04.36-.03.36-.04.37-.03.36-.04.36-.04.36-.03.36-.04.37-.04.36-.04.36-.04.36-.03.36-.04.37-.04.36-.04.36-.04.36-.04.36-.04.37-.05.36-.04.36-.04.36-.04.37-.04.36-.04.36-.05.36-.04.36-.04.37-.04.36-.05.36-.04.36-.05.36-.04.37-.04.36-.05.36-.04.36-.05.36-.04.37-.05.36-.04.36-.05.36-.04.36-.05.37-.05.36-.04.36-.05.36-.04.37-.05.36-.05.36-.04.36-.05.36-.05.37-.05.36-.04.36-.05.36-.05.36-.05.37 2.7.36-.01.36-.01.36-.01.36-.01.37-.01.36-.01.36-.01.36-.01.37-.02.36-.01.36-.01.36-.01.36-.02.37-.01.36-.01.36-.02.36-.01.36-.01.37-.02.36-.01.36-.02.36-.01.36-.02.37-.02.36-.01.36-.02.36-.01.37-.02.36-.02.36-.02.36-.01.36-.02.37-.02.36-.02.36-.02.36-.02.36-.02.37-.02.36-.02.36-.02.36-.02.36-.02.37-.02.36-.02.36-.02.36-.03.36-.02.37-.02.36-.02.36-.03.36-.02.37-.02.36-.02.36-.03.36-.02.36-.03.37-.02.36-.02.36-.03.36-.02.36-.03.37-.02.36-.03.36-.02.36-.03.36-.02.37-.03.36-.03.36-.02.36-.03.37-.02.36-.03.36-.03.36-.02.36-.03.37-.03.36-.02.36-.03.36-.03.36-.03.37-.02.36-.03.36-.03.36-.03.36-.03.37-.02.36-.03.36-.03.36-.03.36-.03.37-.03.36-.03.36-.02.36-.03.37-.03.36-.03.36-.03.36-.03.36-.03.37-.03.36-.03.36-.03.36-.03.36-.03.37-.03.36-.03.36-.03.36-.03.36-.03.37-.03.36-.03.36-.03.36-.03.37-.03.36-.03.36-.03.36-.03.36 2.77.37-.01h.36l.36-.01h.36l.36-.01h.37l.36-.01.36-.01h.36l.36-.01.37-.01h.36l.36-.01.36-.01h.36l.37-.01.36-.01.36-.01.36-.01h.37l.36-.01.36-.01.36-.01.36-.01.37-.01.36-.01.36-.01.36-.01.36-.01.37-.01.36-.01.36-.01.36-.01.36-.01.37-.01.36-.01.36-.02.36-.01.37-.01.36-.01.36-.01.36-.02.36-.01.37-.01.36-.01.36-.02.36-.01.36-.01.37-.01.36-.02.36-.01.36-.01.36-.02.37-.01.36-.02.36-.01.36-.01.37-.02.36-.01.36-.02.36-.01.36-.02.37-.01.36-.02.36-.01.36-.02.36-.01.37-.02.36-.01.36-.02.36-.01.36-.02.37-.01.36-.02.36-.02.36-.01.36-.02.37-.01.36-.02.36-.02.36-.01.37-.02.36-.02.36-.01.36-.02.36-.02.37-.01.36-.02.36-.02.36-.01.36-.02.37-.02.36-.02.36-.01.36-.02.36-.02.37-.01.36-.02.36-.02.36-.02.37-.01.36-.02.36-.02.36-.02.36-.02.37-.01.36-.02.36-.02.36-.02.36-.02.37-.01.36-.02.36-.02.36-.02.36-.02.37-.02.36-.01.36-.02.36-.02.36-.02.37-.02.36-.02.36-.02.36-.01.37-.02.36-.02.36-.02.36-.02.36-.02.37-.02.36-.02.36-.01.36-.02.36-.02.37-.02.36-.02.36-.02.36-.02.36-.02.37-.02.36-.02.36-.02.36-.01.37-.02.36-.02.36-.02.36-.02.36-.02.37-.02.36-.02.36-.02.36-.02.36-.02.37-.02.36-.02.36-.02.36-.01.36-.02.37-.02.36-.02.36-.02.36-.02.37-.02.36-.02.36-.02.36-.02.36-.02.37-.02.36-.02.36-.02.36-.02.36-.02.37-.02.36-.02.36-.02.36-.02.36-.01.37-.02.36-.02.36-.02.36-.02.36-.02.37-.02.36-.02.36-.02.36 2.6h.73l.36-.01h.36l.36-.01h.73l.36-.01h.36l.36-.01h.37l.36-.01h.36l.36-.01h.36l.37-.01h.36l.36-.01h.36l.37-.01h.36l.36-.01h.36l.36-.01.37-.01h.36l.36-.01h.36l.36-.01.37-.01h.36l.36-.01h.36l.36-.01.37-.01h.36l.36-.01h.36l.36-.01.37-.01h.36l.36-.01.36-.01h.37l.36-.01.36-.01.36-.01h.36l.37-.01.36-.01h.36l.36-.01.36-.01.37-.01h.36l.36-.01.36-.01.36-.01h.37l.36-.01.36-.01.36-.01.37-.01h.36l.36-.01.36-.01.36-.01.37-.01.36-.01h.36l.36-.01.36-.01.37-.01.36-.01.36-.01.36-.01h.36l.37-.01.36-.01.36-.01.36-.01.36-.01.37-.01.36-.01.36-.01.36-.01.37-.01.36-.01.36-.01.36-.01.36-.01.37-.01.36-.01.36-.01.36-.01.36-.01.37-.01.36-.01.36-.01.36-.01.36-.01.37-.01.36-.01.36-.01.36-.01.37-.01.36-.01.36-.01.36-.01.36-.01.37-.01.36-.01.36-.01.36-.01.36-.02.37-.01.36-.01.36-.01.36-.01.36-.01.37-.01.36-.02.36-.01.36-.01.37-.01.36-.01.36-.01.36-.01.36-.02.37-.01.36-.01.36-.01.36-.01.36-.02.37-.01.36-.01.36-.01.36-.01.36-.02.37-.01.36-.01.36-.01.36-.02.36-.01.37-.01.36-.01.36-.02.36-.01.37-.01.36-.01.36-.02.36-.01.36-.01.37-.01.36-.02.36-.01.36-.01.36-.02.37-.01.36-.01.36-.02.36-.01.36-.01.37-.02.36-.01.36-.01.36-.02.37-.01.36-.01.36-.02.36-.01.36-.01.37-.02.36-.01.36-.01.36-.02.36-.01.37-.02.36-.01.36-.01.36-.02.36-.01.37-.01.36-.02.36-.01.36-.02.36-.01.37-.01.36-.02.36-.01.36-.02.37-.01.36-.02.36-.01.36-.01.36-.02.37-.01.36-.02.36-.01.36-.02.36-.01.37 2.1h.72l.36-.01h1.09l.36-.01h1.09l.36-.01h.72l.37-.01h1.08l.36-.01h.73l.36-.01h.72l.37-.01h.72l.36-.01h.73l.36-.01h.72l.37-.01h.72l.36-.01h.73l.36-.01h.36l.36-.01h.73l.36-.01h.72l.36-.01h.37l.36-.01h.72l.37-.01h.36l.36-.01h.36l.36-.01h.73l.36-.01h.36l.36-.01h.37l.36-.01h.72l.36-.01h.37l.36-.01h.36l.36-.01h.37l.36-.01h.36l.36-.01h.73l.36-.01h.36l.36-.01h.36l.37-.01h.36l.36-.01h.36l.36-.01h.37l.36-.01h.36l.36-.01h.36l.37-.01h.36l.36-.01h.36l.37-.01h.36l.36-.01h.36l.36-.01h.37l.36-.01h.36l.36-.01h.36l.37-.01h.36l.36-.01h.36l.36-.01h.37l.36-.01.36-.01h.36l.37-.01h.36l.36-.01h.36l.36-.01h.37l.36-.01h.36l.36-.01h.36l.37-.01.36-.01h.36l.36-.01h.36l.37-.01h.36l.36-.01h.36l.36-.01.37-.01h.36l.36-.01h.36l.37-.01h.36l.36-.01.36-.01h.36l.37-.01h.36l.36-.01h.36l.36-.01.37-.01h.36l.36-.01h.36l.36-.01.37-.01h.36l.36-.01h.36l.37-.01.36-.01h.36l.36-.01h.36l.37-.01.36-.01h.36l.36-.01h.36l.37-.01.36-.01h.36l.36-.01.36-.01h.37l.36-.01h.36l.36-.01.36-.01h.37l.36-.01.36-.01h.36l.37-.01.36-.01h.36l.36-.01h.36l.37-.01.36-.01h.36l.36-.01.36-.01h.37l.36-.01.36-.01h.36l.36-.01.37-.01h.36l.36-.01.36-.01h.37l.36-.01.36-.01h.36l.36-.01.37-.01h.36l.36-.01.36-.01h.36l.37-.01.36-.01h.36l.36-.01.36-.01.37-.01h.36l.36-.01.36-.01h.37l.36-.01.36-.01h.36l.36-.01.37-.01.36-.01h.36l.36-.01.36-.01h.37l.36-.01.36-.01.36-.01h.36l.37-.01.36-.01h.36l.36-.01.36-.01.37-.01h.36l.36-.01.36-.01.37-.01h.36l.36-.01.36-.01h.36l.37-.01.36-.01.36-.01"/><use xlink:href="#06bae__e" color="#FFAB00" transform="matrix(3.75 0 0 3.75 125.4 134.32)"/><use xlink:href="#06bae__e" color="#FFAB00" transform="matrix(3.75 0 0 3.75 220.55 7.51)"/></g><text stroke-linecap="round" stroke-linejoin="round" color="#000" font-family="KaTeX_Main" font-size="8" transform="translate(241.1 25.11)"><tspan>TreapTopDown</tspan></text><g fill="none" stroke="currentColor" stroke-linecap="round" stroke-linejoin="round" color="#000"><path stroke="#00C853" stroke-dasharray="4.5,2.0,0.5,2.0,0.5,2.0" d="M205.6 22.51h29.9M28 124.41l.36-.1.36-.16.37.13.36-.07.36-.03.36-.04.36-.08.37-.06.36-.11.36-.12.36-.12.37-.19.36-.09.36-.14.36.09.36-.13.37-.17.36-.01.36 1.54.36-.05.36-.03h.37l.36-.06.36-.06.36-.03.36-.01.37-.24.36.03.36-.03.36.1h.36l.37.17.36-.38.36.02.36.07.37-.15.36-.05.36.02.36-.09.36.06h.37l.36.05.36.01.36-.01.36.91.37.11.36.03h.36l.36.03.36-.04.37.02.36-.04.36-.03.36-.05.37.05.36-.01.36-.05.36-.05.36.14.37-.05.36.17.36.01.36-.11.36-.01.37.02.36-.01.36-.17.36.05.36-.01h.37l.36-.02.36.13h.36l.37-.09.36-.03.36-.05.36-.01h.36l.37-.04h.36l.36-.01.36-.02.36.15.37-.05.36.01.36.08.36-.01.36-.02.37-.04.36-.02.36-.24.36-.03h.36l.37-.01.36-.04.36-.1.36-.04.37-.28.36.19.36-.03h.36l.36-.03.37-.11.36-.02.36-.06.36-.09.36-.04.37-.04.36-.03.36-.02.36.08.36-.01.37-.19.36-.04.36-.05.36.02.37-.05.36-.05.36.1.36-.03.36-.03.37-.03.36-.06h.36l.36-.03.36-.04.37-.02.36-.04.36-.03.36-.03.36-.06.37 1.57.36-.01.36-.02.36-.04.36-.02.37-.02.36.01.36-.03.36-.05.37-.03.36-.02.36-.07.36-.07.36-.07.37-.02.36-.1.36-.03.36-.25.36-.03.37-.04.36.25.36.01.36-.01.36-.03h.37l.36-.06.36.17.36.01h.73l.36-.01.36-.01h.36l.37-.02.36-.01.36.12.36.08.36-.04h.73l.36-.02.36-.01.36-.01.37-.02.36.01.36.1.36-.04.36-.04.37-.02.36.02.36.03.36-.01.37-.03.36-.01.36.04.36.1.36-.08.37-.04h.36l.36.02h.36l.36-.04.37-.09.36-.01h.36l.36-.02.36-.02h.37l.36-.02h.36l.36-.01.37-.02.36-.05.36-.01.36-.02.36-.02.37-.02.36-.06.36-.07.36-.02.36-.02.37-.02.36-.01.36-.04.36-.01.36-.03.37-.08.36-.02.36-.01.36-.08.37-.03.36-.03.36-.02.36.01.36-.04.37.16.36-.02.36-.03.36-.02.36-.01.37.26.36-.01.36-.04.36-.02.36.03.37-.02h.36l.36-.01.36-.06h.36l.37-.02.36.39.36.15.36-.01.37-.01.36-.01.36-.02.36-.02.36-.01.37-.01.36-.02.36-.02h.36l.36-.05.37-.01.36-.01.36-.02.36-.01.36-.03.37.04.36-.03.36-.04.36-.03.37-.01.36-.01.36-.02.36-.01.36-.01h.37l.36-.06.36-.01.36-.03.36-.01.37-.02.36-.01.36-.04.36-.03h.36l.37-.05.36-.02.36-.02.36-.02h.36l.37-.02.36-.02.36-.02.36-.02.37-.02.36-.02.36-.02.36-.02.36-.03.37-.02.36-.02.36-.02.36-.01.36-.02.37.07.36-.02.36-.01.36-.02.36-.04.37-.04.36.02h.36l.36-.02.37.01.36.08.36-.03.36-.02.36-.01.37-.01.36-.03.36-.02.36-.01.36-.03.37-.02.36.02.36-.01.36-.02.36-.03.37-.01.36-.01.36-.02.36-.01.36-.01.37-.03.36-.03.36-.04.36.57.37-.01.36-.01.36-.03.36-.01.36-.01.37.03.36-.01h.72l.36-.03.37-.01h.36l.36-.03.36-.01.36-.07h.37l.36-.01.36-.01.36-.02.37-.03.36.01.36-.01.36-.01.36-.02h.37l.36 1.03.36.01.36-.23.36-.01.37-.01h1.08l.36-.01.37.01h.36l.36.01.36.16.37-.01.36.04.36-.01h.72l.37.02h.36l.36-.01h.72l.37-.01h.72l.36.01.36-.01h.37l.36.03.36-.02.36-.01.36-.01h1.09l.36-.01.37.01.36-.01h.72l.36-.02h.37l.36.03.36-.01h1.09l.36-.04h.36l.36-.01.36-.01h.37l.36-.01.36-.01h.36l.37-.01.36.01.36-.01.36-.01h.36l.37.02.36-.01.36-.12.36-.01.36.01.37-.01.36-.01.36-.03.36-.01.36.09.37.01.36-.01.36-.01.36-.02.36-.02h.37l.36-.02.36.03.36-.01.37-.01.36.09.36.07.36.01.36-.01.37-.01h.36l.36-.01h.36l.36-.02h.37l.36-.04.36-.03.36-.01.36.02.37-.01.36-.01.36-.01.36-.02.37-.01h1.08l.36-.01h.37l.36-.02.36-.07.36-.01.36-.02.37-.02.36-.09.36-.01.36-.01.36-.02.37.01.36-.01.36-.01.36-.01.37-.02.36.37.36-.01.36.01h.36l.37-.02.36-.01.36-.01.36-.01.36-.01h.37l.36.02.36-.02.36.01.36-.01h.37l.36-.01.36-.06h.36l.36.02.37-.01h.36l.36-.01.36-.02.37-.01.36.02.36-.01.36.02.36-.01.37-.08h1.08l.36-.03.37-.01.36-.02.36-.01.36-.02.36-.02.37-.01h.72l.36-.02h.37l.36-.02.36.03.36-.01.36-.01h.37l.36-.02h.36l.36-.01.36-.01h.73l.36-.02.36.03.36-.01.37-.01.36-.01.36-.01.36-.02.36-.01.37.06.36-.01.36-.01.36.01.37-.01.36.16h.36l.36-.01.36-.01.37.02.36-.01h.36l.36-.01.36-.01h.73l.36-.01h.72l.37-.01.36-.01h.72l.37-.01.36-.01.36-.01.36-.01h.36l.37-.02.36-.01h.36l.36-.01.36-.01.37-.02h.36l.36-.01h.72l.37-.01h.72l.36-.01.36-.01.37.01.36.01.36-.01.36-.01.37-.01h.36l.36-.02h.36l.36-.02h.37l.36-.01.36-.02h.36l.36-.01.37-.01h.36l.36-.01.36-.01.36-.36h.37l.36-.01.36-.01h.36l.37-.01.36-.01.36-.07.36-.01.36-.02.37-.01h.36l.36-.01.36.68.36-.01.37.14h.36l.36.18h1.45l.36-.02h1.09l.36.01h.36l.36-.12h.37l.36-.02.36-.01.36.01.36.01h.37l.36.01.36-.01.36.01h.36l.37.01h1.08l.36-.01h1.09l.36-.01h.73l.36.13h.36l.36.02.37.01h1.44l.37-.01.36.01.36-.01.36-.01.36-.01.37.04h.72l.36-.01h1.81l.37.01.36-.02h1.08l.37.01h.36l.36.01h1.81l.36.01h.36l.37-.04.36.02h.36l.36.01.37.01h.72l.36.02.36.02h.37l.36-.01h.72l.36.01h.73l.36.01H284l.36-.01h.73l.36.01h1.45l.36-.03.36-.28.36-.4.37.01h.36l.36.01h1.09l.36.01h1.08l.37.01.36-.01.36.02.36-.01.37.01h1.44l.37.01.36.02h.36l.36.01.36-.04.37.01.36.02.36.01.36.01.36-.02.37.01h.36l.36-.01.36.01h.73l.36.02h.36l.36.02.37-.02.36.01h.36l.36.01.36.02h.37l.36.02h.72l.36.01h.73l.36.01.36-.01.37-.02h1.81l.36-.02.36.01.36.01h.36l.37.01h.72l.36-.04h.36l.37.01h.72l.36.01h.73l.36.01h.72l.37.02.36.01.36-.51h.36l.36.01h.37l.36.01.36.01.36.01.36.01h1.09l.36.01.36.01h.73l.36-.02.36.01.37-.03h.72l.36.04h1.09l.36.01h1.09l.36.01.36.01h.36l.36-.07.37.01h.72l.36.01h.36l.37-.02h.36l.36.01h1.09l.36.01h.36l.36.01.37.01.36-.08.36.01.36.01.36.03h.37l.36.01h.36l.36.01.36-.01.37.01h.72l.36.01.37.01h1.44l.37.01h.36l.36.01h.36l.36.01h.37l.36.01h.72l.36.15.37-.01.36.01.36.02.36.01h2.9l.36.01.36.01.37.01.36.01h.36l.36.01h.36l.37.01h.36l.36.01h.36l.36.01h.37l.36.01h.36l.36.01h.73l.36-.03h.36l.36.03h1.81l.37.01h.36l.36.01h.36l.36.01h1.45l.37.01h1.08l.36.01h.73l.36.01.36-.01.36.03.37.01h.36l.36.01.36.01h.36l.37.01h1.81l.36.01.36-.01.36.01.37.01h.36l.36.01.36.01h.36l.37.01h.72"/><use xlink:href="#06bae__f" color="#00C853" transform="matrix(3.75 0 0 3.75 182.98 123.78)"/><use xlink:href="#06bae__f" color="#00C853" transform="matrix(3.75 0 0 3.75 220.55 22.51)"/></g><path fill="none" d="M28 45.01V162.5M371.99 45.01H28" color="#000"/></svg>