<svg xmlns="http://www.w3.org/2000/svg" xmlns:xlink="http://www.w3.org/1999/xlink" viewBox="0 0 400 200"><path fill="none" d="M0 0h400v200H0z"/><defs><use xlink:href="#e7a00__a" id="e7a00__b" fill="currentColor" stroke="none"/><use xlink:href="#e7a00__a" id="e7a00__c" stroke="currentColor" transform="rotate(180)"/><path id="e7a00__a" stroke="currentColor" stroke-width=".267" d="m0-1.33-1.33 2h2.66z"/></defs><path fill="none" stroke="#CCC" stroke-linecap="round" stroke-linejoin="round" stroke-width=".1" d="M46.1 162.5V45.01" class="e7a00__gridline" color="#000"/><g fill="none" stroke-linecap="round" stroke-linejoin="round" stroke-width="0" color="#000"><path d="M46.1 162.5V155m0-109.99v7.5"/><text fill="#000" font-family="KaTeX_Main" font-size="8" text-anchor="middle" transform="translate(46.1 172.6)"><tspan> 1</tspan></text></g><path fill="none" stroke="#CCC" stroke-linecap="round" stroke-linejoin="round" stroke-width=".1" d="M82.31 162.5V45.01" class="e7a00__gridline" color="#000"/><g fill="none" stroke-linecap="round" stroke-linejoin="round" stroke-width="0" color="#000"><path d="M82.31 162.5V155m0-109.99v7.5"/><text fill="#000" font-family="KaTeX_Main" font-size="8" text-anchor="middle" transform="translate(82.31 172.6)"><tspan> 2</tspan></text></g><path fill="none" stroke="#CCC" stroke-linecap="round" stroke-linejoin="round" stroke-width=".1" d="M118.52 162.5V45.01" class="e7a00__gridline" color="#000"/><g fill="none" stroke-linecap="round" stroke-linejoin="round" stroke-width="0" color="#000"><path d="M118.52 162.5V155m0-109.99v7.5"/><text fill="#000" font-family="KaTeX_Main" font-size="8" text-anchor="middle" transform="translate(118.52 172.6)"><tspan> 3</tspan></text></g><path fill="none" stroke="#CCC" stroke-linecap="round" stroke-linejoin="round" stroke-width=".1" d="M154.73 162.5V45.01" class="e7a00__gridline" color="#000"/><g fill="none" stroke-linecap="round" stroke-linejoin="round" stroke-width="0" color="#000"><path d="M154.73 162.5V155m0-109.99v7.5"/><text fill="#000" font-family="KaTeX_Main" font-size="8" text-anchor="middle" transform="translate(154.73 172.6)"><tspan> 4</tspan></text></g><path fill="none" stroke="#CCC" stroke-linecap="round" stroke-linejoin="round" stroke-width=".1" d="M190.94 162.5V45.01" class="e7a00__gridline" color="#000"/><g fill="none" stroke-linecap="round" stroke-linejoin="round" stroke-width="0" color="#000"><path d="M190.94 162.5V155m0-109.99v7.5"/><text fill="#000" font-family="KaTeX_Main" font-size="8" text-anchor="middle" transform="translate(190.94 172.6)"><tspan> 5</tspan></text></g><path fill="none" stroke="#CCC" stroke-linecap="round" stroke-linejoin="round" stroke-width=".1" d="M227.15 162.5V45.01" class="e7a00__gridline" color="#000"/><g fill="none" stroke-linecap="round" stroke-linejoin="round" stroke-width="0" color="#000"><path d="M227.15 162.5V155m0-109.99v7.5"/><text fill="#000" font-family="KaTeX_Main" font-size="8" text-anchor="middle" transform="translate(227.15 172.6)"><tspan> 6</tspan></text></g><path fill="none" stroke="#CCC" stroke-linecap="round" stroke-linejoin="round" stroke-width=".1" d="M263.36 162.5V45.01" class="e7a00__gridline" color="#000"/><g fill="none" stroke-linecap="round" stroke-linejoin="round" stroke-width="0" color="#000"><path d="M263.36 162.5V155m0-109.99v7.5"/><text fill="#000" font-family="KaTeX_Main" font-size="8" text-anchor="middle" transform="translate(263.36 172.6)"><tspan> 7</tspan></text></g><path fill="none" stroke="#CCC" stroke-linecap="round" stroke-linejoin="round" stroke-width=".1" d="M299.57 162.5V45.01" class="e7a00__gridline" color="#000"/><g fill="none" stroke-linecap="round" stroke-linejoin="round" stroke-width="0" color="#000"><path d="M299.57 162.5V155m0-109.99v7.5"/><text fill="#000" font-family="KaTeX_Main" font-size="8" text-anchor="middle" transform="translate(299.57 172.6)"><tspan> 8</tspan></text></g><path fill="none" stroke="#CCC" stroke-linecap="round" stroke-linejoin="round" stroke-width=".1" d="M335.78 162.5V45.01" class="e7a00__gridline" color="#000"/><g fill="none" stroke-linecap="round" stroke-linejoin="round" stroke-width="0" color="#000"><path d="M335.78 162.5V155m0-109.99v7.5"/><text fill="#000" font-family="KaTeX_Main" font-size="8" text-anchor="middle" transform="translate(335.78 172.6)"><tspan> 9</tspan></text></g><path fill="none" stroke="#CCC" stroke-linecap="round" stroke-linejoin="round" stroke-width=".1" d="M371.99 162.5V45.01" class="e7a00__gridline" color="#000"/><g fill="none" stroke-linecap="round" stroke-linejoin="round" stroke-width="0" color="#000"><path d="M371.99 162.5V155m0-109.99v7.5"/><text fill="#000" font-family="KaTeX_Main" font-size="8" text-anchor="middle" transform="translate(371.99 172.6)"><tspan> 10</tspan></text></g><g fill="none" stroke-linecap="round" stroke-linejoin="round" stroke-width="0" color="#000"><path d="M371.99 162.5h-7.5"/><text fill="#000" font-family="KaTeX_Main" font-size="8" transform="translate(378.99 165.1)"><tspan>9.50</tspan></text></g><g fill="none" stroke-linecap="round" stroke-linejoin="round" stroke-width="0" color="#000"><path d="M371.99 150.75h-7.5"/><text fill="#000" font-family="KaTeX_Main" font-size="8" transform="translate(378.99 153.35)"><tspan>10.00</tspan></text></g><g fill="none" stroke-linecap="round" stroke-linejoin="round" stroke-width="0" color="#000"><path d="M371.99 139h-7.5"/><text fill="#000" font-family="KaTeX_Main" font-size="8" transform="translate(378.99 141.6)"><tspan>10.50</tspan></text></g><g fill="none" stroke-linecap="round" stroke-linejoin="round" stroke-width="0" color="#000"><path d="M371.99 127.25h-7.5"/><text fill="#000" font-family="KaTeX_Main" font-size="8" transform="translate(378.99 129.85)"><tspan>11.00</tspan></text></g><g fill="none" stroke-linecap="round" stroke-linejoin="round" stroke-width="0" color="#000"><path d="M371.99 115.5h-7.5"/><text fill="#000" font-family="KaTeX_Main" font-size="8" transform="translate(378.99 118.1)"><tspan>11.50</tspan></text></g><g fill="none" stroke-linecap="round" stroke-linejoin="round" stroke-width="0" color="#000"><path d="M371.99 103.75h-7.5"/><text fill="#000" font-family="KaTeX_Main" font-size="8" transform="translate(378.99 106.35)"><tspan>12.00</tspan></text></g><g fill="none" stroke-linecap="round" stroke-linejoin="round" stroke-width="0" color="#000"><path d="M371.99 92.01h-7.5"/><text fill="#000" font-family="KaTeX_Main" font-size="8" transform="translate(378.99 94.61)"><tspan>12.50</tspan></text></g><g fill="none" stroke-linecap="round" stroke-linejoin="round" stroke-width="0" color="#000"><path d="M371.99 80.26h-7.5"/><text fill="#000" font-family="KaTeX_Main" font-size="8" transform="translate(378.99 82.86)"><tspan>13.00</tspan></text></g><g fill="none" stroke-linecap="round" stroke-linejoin="round" stroke-width="0" color="#000"><path d="M371.99 68.51h-7.5"/><text fill="#000" font-family="KaTeX_Main" font-size="8" transform="translate(378.99 71.11)"><tspan>13.50</tspan></text></g><g fill="none" stroke-linecap="round" stroke-linejoin="round" stroke-width="0" color="#000"><path d="M371.99 56.76h-7.5"/><text fill="#000" font-family="KaTeX_Main" font-size="8" transform="translate(378.99 59.36)"><tspan>14.00</tspan></text></g><g fill="none" stroke-linecap="round" stroke-linejoin="round" stroke-width="0" color="#000"><path d="M371.99 45.01h-7.5"/><text fill="#000" font-family="KaTeX_Main" font-size="8" transform="translate(378.99 47.61)"><tspan>14.50</tspan></text></g><path fill="none" d="M28 45.01V162.5M371.99 45.01H28" color="#000"/><text stroke-linecap="round" stroke-linejoin="round" stroke-width="0" color="#000" font-family="KaTeX_Main" font-size="10" text-anchor="middle" transform="rotate(-90 57.63 46.13)"><tspan font-weight="bold">Duration </tspan><tspan> in milliseconds</tspan></text><text stroke-linecap="round" stroke-linejoin="round" stroke-width="0" color="#000" font-family="KaTeX_Main" font-size="10" text-anchor="middle" transform="translate(199.99 195.75)"><tspan>Operations / 10</tspan><tspan dy="-5" font-size="8">6</tspan></text><text stroke-linecap="round" stroke-linejoin="round" stroke-width=".5" color="#000" font-family="KaTeX_Main" font-size="8" transform="translate(99.2 10.11)"><tspan>AVLBottomUp</tspan></text><g fill="none" stroke="currentColor" stroke-linecap="round" stroke-linejoin="round" stroke-width=".5" color="#000"><path stroke="#000" d="M63.7 7.51h29.9M28 155.28l.36-.46.36-8.49.37 2.99.36 3.17.36-4.68.36 3.37.36-8.67.37-1.14.36 11.25.36-12.21.36 6.69.37-4.07.36-9.85.36 15.82.36-9.41.36-.8.37.55.36-5.22.36 6.99.36-.73.36-13.24.37 7.66.36-.92.36 4.54.36-4.88.36-9.4.37 4.07.36 11.11.36-8.16.36-6.01.36.29.37 3.25.36 3.74.36-8.26.36-1.59.37-.47.36 12.4.36-13.16.36-.53.36-.59.37 7.67.36-9.01.36 4.05.36-4.74.36 4.18.37-4.8.36 3.85.36-4.03.36 7.36.36-12.84.37 1.7.36 3.85.36-5.28.36 3.38.37-7.71.36-1.08.36 12.62.36-8.29.36-.28.37-.99.36-4.73.36 8.5.36-4.57.36 8.17.37-12.35.36-.3.36 4.62.36-.72.36 8.55.37-8.8.36-4.33.36 3.69.36-4.08.37 11.63.36-4.11.36-8.06.36-.88.36 8.67.37-4.39.36 4.52.36-4.35.36-4.8.36 4.47.37 4.1.36-4.66.36 4.12.36-8.43.36 3.65.37.14.36-.57.36 9.04.36-17.61.36 8.58.37.39.36 3.53.36.08.36-9.19.37 4.96.36-.04.36-.65.36 8.66.36-15.98.37 7.44.36 4.57.36-4.24.36 3.64.36-.11.37-17.2.36 17.72.36-4.54.36 8.5.36-8.62.37-4.57.36-.07.36 8.83.36-.26.37-.07.36-4.76.36-12.3.36 20.58.36-8.26.37 4.15.36-3.55.36-10.13.36 13.25.36.64.37-4.28.36 8.52.36-21.06.36 16.3.36-4.14.37 4.4.36-.33.36-8.89.36-.13.36 9.06.37-4.03.36 4.3.36-8.8.36 4.25.37 4.81.36-8.56.36 12.24.36-16.45.36 16.58.37-8.23.36-4.25.36 3.92.36-.06.36 4.88.37-4.78.36-3.53.36 7.72.36-3.76.36-.11.37-.31.36.53.36-.42.36 4.37.37-4.91.36 4.84.36-8.82.36 4.56.36.12.37 8.1.36-12.67.36.02.36 4 .36 4.95.37-.28.36-3.97.36-4.94.36.58.36 7.76.37 4.76.36-7.75.36-4.44.36-.48.36 8.85.37-1.23.36-3.33.36 4.13.36-16.43.37 16.65.36-.39.36 4.76.36-13.21.36 4.01.37-7.97.36 11.88.36 4.81.36-8.22.36-.27.37-8.24.36 8.38.36 8.76.36-8.35.36 3.8.37-4.07.36-12.26.36 19.99.36-12 .37 11.44.36-6.69.36-8.91.36 12.01.36-3.57.37 3.67.36 5.16.36-21.03.36 16.26.36-8.58.37 8.04.36 4.92.36-12.35.36 3.58.36-4.37.37 4.73.36 7.86.36-8.32.36-.39.37-4.18.36 8.93.36-4.3.36 4.35.36-4.4.37-.18.36-4.29.36 4.41.36 4.1.36-4.66.37.63.36-.03.36-.54.36.78.36-.28.37 4.28.36-4.94.36 1.28.36 3.44.36-4.42.37-3.8.36 4.23.36 7.86.36-12.46.37 9.16.36-12.73.36 8.02.36 8.07.36-8.24.37.11.36-4.69.36 4.22.36 4.73.36 4.47.37-16.66.36 3.64.36 3.79.36 4.72.36 3.96.37-12.26.36 3.82.36-4.23.36 8.91.37-.45.36-8.25.36 8.36.36-12.29.36 17 .37-8.92.36.58.36 3.99.36-12.64.36 11.97.37 4.51.36-17.64.36 13 .36-7.7.36 7.76.37.09.36-7.51.36 7.84.36-3.66.36-5.44.37 8.53.36-7.91.36 8.67.36-4.24.37.17.36 3.91.36-8.38.36 9.04.36-8.45.37 7.32.36-4.17.36 5 .36-8.75.36 8.57.37-8.8.36 8.85.36-4.44.36 4.21.36-8.52.37 8.64.36-8.73.36 4.54.36 3.59.37-3.89.36.17.36.05.36-.39.36.42.37 3.59.36-3.79.36-3.7.36 7.43.36-3.63.37.72.36 3.93.36-12.64.36 11.75.36-3.38.37-.16.36 3.96.36.19.36-8.62.36 3.83.37.63.36 4.76.36-4.58.36-.1.37-4.38.36 9.14.36-4.45.36-.37.36.34.37-5.16.36 9.18.36 4.31.36-12.88.36 3.89.37.64.36-4.74.36 13.27.36-8.47.36.06.37-4.21.36 4.21.36 3.29.36.6.37-4.21.36-4.09.36-.1.36 12.75.36-9.28.37 8.78.36-16.66.36 3.77.36 9.08.36-.43.37.54.36-8.18.36-5.04.36 8.75.36 7.97.37-3.69.36 4.7.36-25.45.36 12.07.37 12.31.36.18.36-3.48.36-13.03.36-.24.37 12.59.36 4.18.36-.26.36-11.97.36-8.27.37 12.06.36 8.33.36.38.36-7.89.36-9.11.37 4.68.36 8.15.36 4.32.36-4 .36-8.68.37-4.02.36 12.66.36.3.36-.19.37-8.87.36.39.36 4.13.36 8.3.36-8.34.37-3.64.36 12.26.36-17.06.36 12.55.36-3.37.37-4.86.36 12.72.36-12.25.36 3.19.36 9.08.37-16.79.36 12.41.36-4.05.36 4.2.37-4.16.36-3.89.36 3.96.36 7.99.36-12.52.37 9.37.36-12.93.36 12.17.36-.39.36-8.05.37 8.23.36-13.25.36 13.27.36 4.63.36-4.37.37-12.36.36 8.39.36-1.3.36 4.6.36.36.37-12.14.36 8.48.36 3.16.36-3.8.37 8.84.36-16.08.36 2.82.36 13.3.36-8.23.37 3.76.36-.5.36-20.35.36 24.65.36-3.22.37-.74.36-4.1.36-7.83.36 7.15.36 8.91.37-9.2.36.82.36-4.04.36 4.37.37 4.11.36.81.36-4.51.36.01.36-4.78.37 3.57.36 5.44.36-4.74.36 4.6.36-13.33.37 12.76.36-.07.36-4.08.36-.78.36 1.44.37-.71.36.06.36.1.36 4.2.37-4.21.36.06.36-4.38.36 8.85.36-4.99.37.42.36 4.13.36-12.54.36 12.04.36.32.37-4.36.36.68.36-.56.36.61.36-.83.37.85.36 3.52.36-8.13.36 9.07.36-9.04.37 8.11.36.65.36-8.86.36 8.21.37-8.1.36 4.01.36 8.68.36-12.62.36 3.89.37.92.36-4.18.36 12.12.36-3.68.36-8.4.37 7.63.36-3.94.36-4.21.36 8.28.36.65.37-8.78.36 2.89.36 1.21.36-.87.37 4.89.36-4.49.36.1.36-3.51.36 7.38.37.95.36-.25.36-12.47.36 3.86.36 7.74.37 4.76.36-8.34.36 4.49.36-21.57.36 25.65.37-4.11.36-4.11.36 8.58.36-21.36.36 12.46.37 3.85.36 4.42.36-7.9.36-7.99.37 8.39.36 3.11.36.85.36.15.36-17.2.37 20.06.36-12.09.36 8.31.36-.04.36-4.31.37-3.37.36 3.5.36.6.36 8.19.36-12.35.37 4.54.36 3.23.36-4.04.36.77.37-.47.36-4.64.36 8.3.36-4.26.36 4.52.37-8.6.36 4.86.36 3.95.36.28.36-8.74.37 7.94.36-8.4.36 5.07.36 7.61.36-12.59.37 5.09.36-.08.36-.05.36 4.04.36-4.47.37-.06.36-3.54.36 2.99.36 4.9.37.35.36.24.36-12.76.36 7.72.36-.93.37 4.91.36.44.36-8.23.36 3.43.36 5.24.37-8.58.36 12.73.36-8.81.36-7.48.36 11.52.37-3.55.36 4.28.36-4.4.36 7.77.37-20.19.36 16.6.36-.41.36-3.87.36 4.37.37-12.98.36 8.25.36 4.15.36.57.36-3.75.37 3.63.36-12.79.36 8.58.36 8.29.36-7.81.37 4.36.36-13.93.36 9.22.36 4.02.37.05.36-8.1.36 3.99.36-.08.36.53.37 3.63.36.25.36-12.95.36 12.53.36.59.37-8.3.36 8.07.36.43.36-9.01.36 4.1.37.02.36.45.36 8.38.36-17.25.36 11.95.37-7.41.36 7.53.36.58.36-9.47.37 9.56.36-4.45.36-4.1.36 8.24.36.36.37-4.08.36.57.36-9.65.36 16.78.36-3.82.37-7.94.36 8.09.36-8.84.36 3.98.36 8.54.37-12.1.36 7.99.36-4.84.36-3.33.37 8.07.36 1.08.36-9.2.36 3.93.36-3.65.37 7.63.36.46.36.02.36-12.66.36 17.28.37-12.35.36 7.85.36-8.54.36-.75.36 13.28.37-8.19.36.25h.36l.36-.67.36.74.37 3.78.36-.71.36-12.22.36 8.63.37 4.06.36.14.36-4.64.36.73.36-8.91.37 16.7.36-3.87.36-5.02.36.31.36-7.71.37 12.18.36-.16.36 4.42.36-16.74.36 9.34.37-5.77.36 13.2.36-3.6.36-8.6.37.29.36 3.7.36 4.21.36.07.36-3.72.37-4.48.36 7.58.36-3.66.36 4.52.36-5.19.37 4.94.36-12.76.36 12.72.36.65.36-9.41.37 8.66.36-8.22.36 4.91.36-.88.36 9.06.37-8.94.36-4.37.36 5.18.36-.65.37 4.04.36-3.84.36.29.36.02.36-4.51.37 12.15.36-4.32.36-12.43.36 12.42.36-7.63.37 8.8.36-.82.36-3.42.36-4.8.36.43.37 12.36.36-4.49.36-3.7.36-4.6.37 4.22.36.01.36 8.14.36-8.39.36.09.37-3.93.36.11.36 11.55.36-3.08.36-4.69.37-8.91.36 8.83.36 3.89.36 3.9.36-8.3.37-11.68.36 20.87.36-12.02.36 11.74.37-8.06.36-.03.36-5.38.36 9.04.36-4.6.37.24.36 8.89.36-21.56.36 17.75.36-.23.37-8.83.36 13.06.36-4.4.36-12.53.36 11.98.37-7.91.36 7.87.36.27.36-4.09.36-4.46.37 4.7.36 4.16.36-5.06.36 4.74.37-12.16.36 7.67.36 4.57.36.72.36-.85.37-3.93.36-12.19.36 20.64.36-4.3.36-4.27.37 1.16.36-4.94.36 4.15.36 4.3.36.48.37-.43.36-12.55.36 8.51.36 2.9.37 1.02.36.35.36-12.83.36 8.58.36 4.02.37-3.61.36-.06.36 3.82.36-13.33.36 17.33.37-8.3.36-4.9.36 12.71.36-16.84.36 12.55.37.18.36-12.27.36 16.98.36-8.82.36-3.66.37 12.55.36-8.85.36-4.4.36 9.43.37-4.68.36.13.36 3.7.36-7.73.36 4.24.37 3.17.36-3.67.36.06.36.27.36-.26.37-.44.36-.34.36 4.44.36-3.45.36-3.91.37 6.79.36.7.36-8.7.36 9.3.37-.02.36-8.4.36 3.6.36-3.64.36 12.62.37-8.44.36-4.12.36 8.2.36-8.59.36 7.82.37.67.36-3.35.36-4.75.36 8.88.36-9 .37 12.57.36-8.71.36-3.81.36 4.05.36 3.68.37-3.75h.36l.36 4.7.36-8.64.37 8.33.36-7.78.36 4.2.36 3.32.36.2.37-8.06.36 8.06.36-12.55.36 12.52.36 4.43.37-8.28.36-4.7.36 4.66.36-4.47.36 12.8.37-3.52.36-8.95.36 8.44.36-12.55.37 12.22.36 4.36.36-8.55.36-3.76.36-3.11.37 11.2.36 3.67.36.87.36-12.7.36-8.54.37 16.74.36-.27.36 3.75.36-11.55.36-.56h.37l.36 12.78.36-4.43.36.45.37-13.06.36 3.9.36 9.11.36 4.29.36-9.58.37-3.67.36 4.17.36-3.65.36 12.02.36-3.6.37-8.57.36 3.44.36.4.36.28.36 3.9.37-3.91.36-4.01.36 7.95.36-3.7.36-.41.37 4.4.36-4.1.36-4.54.36 9.37.37-4.91.36 4.04.36-.26.36-16.24.36 19.95.37-11.84.36 12.77.36-8.79"/><use xlink:href="#e7a00__b" transform="matrix(3.75 0 0 3.75 354.25 111.46)"/><use xlink:href="#e7a00__b" transform="matrix(3.75 0 0 3.75 78.65 7.51)"/></g><text stroke-linecap="round" stroke-linejoin="round" color="#000" font-family="KaTeX_Main" font-size="8" transform="translate(99.2 25.11)"><tspan>AVLWeakTopDown</tspan></text><g fill="none" stroke="currentColor" stroke-linecap="round" stroke-linejoin="round" color="#000"><path stroke="#FFAB00" stroke-dasharray="4.5,2.0,0.5,2.0,0.5,2.0" d="M63.7 22.51h29.9M28 140.91l.36-1.83.36-8.64.37 11.09.36-.16.36 3.76.36-13.5.36-1.45.37-.73.36 8.29.36 3.6.36-13.42.37 3.02.36-4.22.36 11.83.36-12.66.36 6.55.37-4.68.36-8.96.36 15.93.36-13.45.36 7.2.37-4.44.36-5.42.36 3.65.36 3.33.36-8.86.37 6.95.36-12.72.36 9.32.36 7.99.36-18.11.37 12.13.36-13.05.36 12.63.36.27.37-9.2.36.01.36-1.51.36 12.19.36-4.34.37-13.26.36 3.63.36 4.08.36 7.65.36-12.97.37-1.1.36-1.58.36 7.87.36-4.93.36-4.55.37-31.89.36 6.67.36 9.23.36-20.64.37 8.45.36 3.94.36 8.6.36-16.02.36 7.15.37-4.18.36 8.08.36-3.89.36-5.15.36-.39.37 4.78.36 7.57.36-16.62.36 3.59.36 4.04.37 4.02.36.71.36-12.95.36 4.59.37 3.18.36 8.67.36-16.85.36 7.99.36-4.72.37 8.59.36.25.36-13.36.36 4.22.36 8.68.37-.21.36-4.19.36-5.53.36.25.36 4.82.37 8.32.36-21.09.36 12.73.36-1.56.36 5.13.37.13.36-12.78.36 4.09.36 7.26.37-.22.36-3.02.36-8.82.36 3.56.36 8.67.37 4.85.36-21.78.36 12.66.36.2.36 4.43.37-.88.36-11.99.36 3.75.36 8.84.36-.67.37-3.78.36-8.13.36 3.65.36 8.5.37 4.53.36-21.35.36 12.54.36.09.36 3.91.37.46.36-13.4.36 4.38.36 8.33.36-.07.37-3.82.36-8.9.36 4.32.36 8.16.36 4.87.37-21.26.36 16.95.36-8.84.36 8.56.36-.28.37-12.57.36 4.53.36 8.07.36-.37.37-2.94.36-4.97.36-4.07.36 12.56.36 4.3.37-21.36.36 15.7.36-7.06.36 7.9.36-.25.37-12.49.36 9.03.36-.24.36 3.98.36.62.37-12.67.36 4.06.36 7.65.36.3.37-11.78.36 7.78.36-4.94.36 8.88.36.11.37-12.62.36 12.18.36-8.35.36 8.73.36.47.37-13.18.36 4.52.36 8.44.36-.46.36-3.81.37-7.61.36 3.69.36 8.35.36 3.11.36-19.48.37 15.74.36-8.17.36 8.6.36.13.37-12.56.36 4.34.36 7.97.36.44.36-.33.37-16.64.36 12.66.36 3.34.36.77.36-15.95.37 15.88.36-8.34.36 8.55.36 4.13.36-20.84.37 16.49.36-7.7.36 7.6.36.88.37-13.33.36 4.72.36 7.81.36.12.36-3.87.37-8.78.36 7.92.36.73.36 8.31.36-21.26.37 15.97.36-7.37.36 7.98.36 4.76.36-21.06.37 12.79.36-.92.36 4.57.36.25.37-13.35.36 4.83.36 7.71.36.75.36-7.76.37-.88.36 4.49.36.2.36 8 .36-20.33.37 15.76.36-7.78.36 8.46.36.16.36-13.48.37 4.3.36 7.65.36 1.53.36.17.36-17.09.37 12.28.36 4.38.36-.23.36-7.69.37-.93.36.62.36 8.55.36 3.79.36-20.63.37 12.52.36-.46.36 3.8.36.72.36-13.02.37 4.4.36 8.61.36-.36h.36l.36-16.98.37 12.93.36 4.06.36.05.36-11.97.37 7.15.36-3.74.36 8.06.36 4.54.36-20.58.37 12.3.36-.01.36 4.25.36.12.36-12.79.37 4.36.36 7.94.36.29.36-.61.36-16.28.37 8.15.36 12.86.36-4.47.36-15.27.36 11.27.37.34.36 3.97.36 4.59.36-21.42.37 12.42.36.18.36 4.25.36.59.36-13.03.37 4.26.36 7.92.36.61.36-4.61.36-8.33.37 3.99.36 12.69.36-4.09.36-16.51.36 11.69.37-.04.36 4.68.36 4.13.36-20.31.37 12.57.36-.12.36 3.35.36.87.36-12.96.37 3.86.36 8.73.36.11.36-8.28.36.14.37-.86.36 12.68.36-3.64.36-16.74.36 12.63.37-.87.36 4.45.36 4.5.36-21.11.36 8.88.37 7.28.36.74.36.46.36-12.97.37-.32.36 17.29.36-4.57.36-8.77.36.55.37-.18.36 12.58.36-3.73.36-16.89.36 12.11.37.79.36 3.49.36.43.36-13.18.36 4.76.37 7.99.36.43.36-3.87.36-4.75.37-3.51.36 15.95.36-4.78.36-11.6.36 3.9.37 4.16.36 4.08.36 5.12.36-21.75.36 8.37.37 7.7.36.33.36.41.36-13.04.36 3.98.37 9.33.36-.58.36.05.36-12.34.37.29.36 16.28.36-4.14.36-12.03.36 3.52.37 4.44.36 4.35.36 3.75.36-20.12.36 8.1.37 8.08.36-.29.36-.02.36-12.69.36 3.14.37 9.47.36.27.36-4.33.36-8.5.36 4.01.37 12.77.36-4.68.36-7.1.36-.24.37-.82.36 8.45.36 4.94.36-17.2.36 3.31.37 4.94.36 4.85.36-.73.36-11.91.36 3.58.37 8.81.36-.2.36-4.35.36-8.54.36 4.38.37 12.67.36-4.01.36-7.87.36-.58.37-.06.36 8.11.36 4.51.36-21.08.36 8.42.37 8.6.36.31.36.06.36-12.75.36 4.02.37 8.36.36-.45.36-3.64.36-7.81.36 3 .37 9.18.36 4.17.36-12.82.36-.4.36-.07.37 8.89.36.21.36-12.91.36 4.71.37 8 .36.27.36-.23.36-12.09.36-.73.37 17.33.36-4.79.36-4.02.36-8.32.36 4.42.37 8.27.36 4.32.36-12.12.36-.46.36-.04.37 8.27.36-.49.36-12.42.36 4.79.37 7.86.36.04.36.12.36-12.6.36.05.37 16.14.36-3.39.36-3.86.36-8.59.36 3.62.37 8.84.36 3.57.36-12.2.36-4.15.36 8.03.37 4.4.36-.15.36-12.53.36 4.54.37 8.02.36-.1.36.16.36-12.46.36.05.37 16.56.36-4.7.36-3 .36-9.37.36 4.63.37 8.34.36 3.97.36-12.17.36-4.55.36 8.47.37 3.97.36 1.02.36-12.6.36 3.29.36 8.95.37.42.36-4.21.36-4.39.36-4.21.37 16.73.36-4.44.36-3.7.36-8.98.36 4.09.37 8.01.36 4.59.36-8.14.36-12.53.36 12.4.37 4.4.36.09.36-13.03.36 4.27.36 7.97.37.57.36-.62.36-12.04.36-.68.37 16.16.36-2.83.36-4.08.36-7.95.36 3.57.37 9.31.36 3.57.36-8.71.36-12.55.36 12.47.37 4.11.36.25.36-12.08.36 3.58.36 8.31.37.22.36-4.05.36-4.7.36-4.5.36 16.94.37-4.07.36-3.95.36-8.65.36 4.48.37 12.6.36-4.32.36-3.68.36-17.16.36 19.96.37.42.36.5.36-11.82.36-.21.36 15.93.37-3.23.36-4.54.36-4.78.36-4.08.36 17.25.37-4 .36-4.32.36-8.92.36 3.84.37 12.43.36-8.2.36 4.99.36-17.2.36 12.62.37 4.76.36-.59.36-12.14.36-.56.36 16.39.37-3.94.36-3.43.36-4.45.36-4.4.36 16.86.37-3.63.36-4.66.36-8.23.36 4.15.36 11.88.37-3.97.36-4.05.36-12.3.36 12.2.37 4.32.36-3.74.36-3.61.36-4.83.36 15.91.37-3.89.36-4.08.36-3.71.36-5.87.36 18.02.37-3.94.36-4.18.36-8.91.36 4.1.36 13.07.37-4.6.36-8 .36-8.46.36 16.98.37-.25.36-.27.36-11.65.36-.09.36 15.95.37-4.07.36-3.44.36-4.5.36-4.54.36 16.79.37-3.82.36-4.61.36-12.04.36 11.76.36 8.2.37-3.35.36-8.24.36-8.39.36 16 .37.64.36.08.36-12.81.36.17.36 17.1.37-5.02.36-4.06.36-8.03.36 3.97.36 12.63.37-4.6.36-3.19.36-13.5.36 11.03.36 10.17.37-3.83.36-4.41.36-16.43.36 20.48.36.8.37-.9.36-12.3.36-.11.36 16.35.37-3.81.36-3.85.36-4.16.36-4.22.36 16.47.37-4.36.36-3.89.36-8.03.36 3.53.36 12.9.37-4.13.36-8.03.36-8.44.36 15.83.36.64.37.35.36-12.56.36-.78.36 16.93.37-4.22.36-2.91.36-9.14.36 3.63.36 12.27.37-3.14.36-5.01.36-7.59.36 3.96.36 8.84.37 3.47.36-11.72.36-8.98.36 16.69.36-.2.37-.39.36-11.56.36-.15.36 17.09.36-4.78.37-4.14.36-8.5.36 3.69.36 12.79.37-4.39.36-3.24.36-8.9.36 3.75.36 8.42.37 4.4.36-8.27.36-12.49.36 12.11.36 4.7.37-.13.36-12.19.36-.19.36 16.74.36-3.98.37-4.45.36-8.07.36 3.98.36 12.56.37-4.24.36-4.32.36-7.59.36 3.31.36 8.53.37 3.91.36-12.07.36-9.12.36 17.11.36 1.13.37-3.89.36-5.39.36-5.01.36 17.39.36-4.06.37-3.93.36-8.04.36 3.82.36 12.3.36-4.1.37-5.09.36-6.99.36 3.87.36 8.54.37 3.26.36-7.13.36-21.1.36 28.74.36-3.39.37-4.29.36-4.32.36-4.42.36 16.77.36-4.64.37-3.84.36-8.12.36 3.93.36 11.44.36-2.87.37-3.88.36-9.03.36 4.15.36 8.47.37 4.35.36-12.66.36-9.1.36 17.25.36.41.37-3.87.36-4.06.36-5.24.36 16.78.36-4.58.37-4.04.36-7.35.36 4.06.36 11.32.36-3.14.37-4.62.36-8.24.36 4.43.36 12.98.37-4.45.36-8.13.36-8.93.36 17.1.36-.15.37-4.09.36-3.92.36-4.57.36 16.97.36-4.02.37-4.54.36-4.17.36-4.74.36 17.58.36-3.98.37-4.56.36-8.09.36 4.2.36 11.53.36-3.16.37-9.08.36-8.49.36 16.64.36-.02.37-3.61.36-4.46.36-4.24.36 16.61.36-3.97.37-3.12.36-5.69.36-4.01.36 17.22.36-3.9.37-5.16.36-7.41.36 3.74.36 12.56.36-8.1.37 3.12.36-19.67.36 19.35.36 1.42.37-4.93.36-3.99.36-3.83.36 16.65.36-3.84.37-4.13.36-4.67.36-4.53.36 16.47.36-4.17.37-4.23.36-7.87.36 3.93.36 12.26.36-7.25.37-.34.36-12.49.36 16.43.36-.05.36-4.73.37-3.53.36-1.04.36 8.95.36.83.37-4.34.36-3.84.36-4.5.36 16.8.36-3.97.37-4.06.36-8.83.36 3.83.36 13.1.36-4.56.37-7.83.36-4.72.36 7.83.36 5.41.36-4.04.37.46.36-9.48.36 12.46.36.77.37-4.37.36-4.72.36-3.99.36 17.13.36-4.5.37-4.88.36-7.55.36 4.37.36 12.1.36-8.26.37.23.36-12.56.36 16.65.36-.05.36-3.93.37.06.36-13.6.36 21.71.36-4.59.36-3.16.37-4.65.36-4.08.36 16.95.36-3.95.37-4.57.36-8.3.36 3.87.36 12.22.36-7.97.37-.22.36-8.3.36 8.6.36 3.41.36.55.37-8.69.36-3.66.36 11.77.36 1.02.36-4.3.37-3.95.36-5.37.36 18.37.36-5.19.37-3.61.36-8.95.36 4.43.36 12.38.36-7.85.37-.81.36-8.03.36 8.55.36 3.83.36.35.37-8.29.36-4.33.36 12.15.36.15.36-3.88.37-8.48.36 3.68.36 13.15.36-4.12.37-4.34.36-8.77.36 4.41.36 12.41.36-8.46.37-.31.36-7.57.36 7.89.36 4.74.36-.67.37-8.49.36-3.52.36 12.16.36.32.36-4.2.37-7.83.36 3.61.36 11.99.36-3.02.36-4.6.37-8.33.36 4.25.36 12.71.36-8.49.37-.74.36-7.52.36 7.32.36 8.99.36-8.31.37-4.37.36-4 .36 12.95"/><use xlink:href="#e7a00__c" color="#FFAB00" transform="matrix(3.75 0 0 3.75 67.83 69.26)"/><use xlink:href="#e7a00__c" color="#FFAB00" transform="matrix(3.75 0 0 3.75 78.65 22.51)"/></g><text stroke-linecap="round" stroke-linejoin="round" color="#000" font-family="KaTeX_Main" font-size="8" transform="translate(241.1 10.11)"><tspan>AVLRelaxedBottomUp</tspan></text><g fill="none" stroke="currentColor" stroke-linecap="round" stroke-linejoin="round" color="#000"><path stroke="#D336C8" d="M205.6 7.51h29.9M28 155.13l.36-9.17.36 3.2.37-9.58.36 16.39.36-9.12.36 3.57.36-.21.37-19.02.36 15.34.36 4.6.36-12.9.37 7.71.36-14.2.36 8.43.36 8.09.36-13.6.37 3.82.36-1.36.36-5 .36 12.9.36-9.37.37-5.24.36 3.07.36-4.84.36 8.17.36-9.35.37 2.94.36 3.95.36-9.51.36-.56.36-.58.37 11.39.36-16.77.36 3.65.36 3.54.37 4.24.36-.31.36-17.92.36 7.93.36 8.45.37 3.75.36-25.85.36 11.85.36 7.88.36 3.61.37-16.77.36-4.81.36 16.71.36 3.86.36-17.12.37 10.53.36 12.5.36-.42.36 3.32.37-17.71.36-4.45.36 20.63.36-4.13.36-9.67.37 4.21.36-9.43.36 17.1.36-8.44.36-.78.37-3.44.36-1.15.36 12.44.36-12.59.36 8.15.37-9.18.36.45.36 7.52.36-.23.37-12.49.36 8.54.36 4.03.36-4.19.36 3.96.37-16.98.36 16.16.36-4.04.36 4.06.36-3.52.37-9.34.36 8.58.36 4.13.36.15.36-9.2.37 4.88.36-5.02.36 8.97.36-4.7.36.21.37-8.02.36 11.83.36.44.36-4.67.37-8.02.36 7.73.36 8.11.36-12.33.36 8.85.37-8.63.36 4.04.36 4.03.36-8.43.36 8.64.37-9.39.36 9.28.36-9.06.36 4.34.36-.15.37-.66.36 4.87.36-4.1.36-4.4.37 3.26.36.5.36 4.46.36.32.36-8.21.37-.31.36 4.48.36 3.62.36-4.03.36-4.29.37 8.1.36-7.41.36 3.58.36 4.03.36-4.72.37 4.41.36-8.41.36-4.11.36 16.16.36-8.01.37 3.91.36-3.8.36-12.89.36 17.36.37-.1.36 4.11.36-8.14.36-17.31.36 20.65.37.39.36 4.08.36-16.47.36-4.5.36 20.41.37-3.73.36 4.21.36-12.5.36-4.36.36 8.42.37 4.28.36-.13.36-3.98.36-8.44.37 12.01.36-4.47.36 4.55.36-3.84.36-7.68.37 11.7.36-8.14.36 12.2.36-8.23.36.4.37-.54.36-4.61.36 4.54.36 4.26.36.09.37-13.34.36 9.06.36-4.42.36 12.57.36-3.67.37-9.16.36.43.36 3.94.36 4.47.37.51.36-8.9.36.12.36 3.6.36 4.22.37-4.51.36 4.85.36-13.05.36 8.49.36 9.05.37-13.56.36 4.71.36-4.16.36 3.93.36-.06.37 4.84.36-3.99.36-4.84.36 8.62.37-9.12.36 12.84.36-12.18.36 3.24.36.92.37-4.8.36 8.43.36-7.35.36 7.7.36-3.46.37-4.5.36 7.97.36-4.1.36-4.79.36 9.53.37-8.75.36 7.85.36-3.7.36-4.8.37 12.55.36-12.04.36 4.18.36-4.06.36 4.07.37 4.13.36-4.56.36-4.18.36 4.15.36 4.2.37-4.1.36.43.36-4.86.36 4.75.36-.34.37 4.32.36.04.36-12.69.36 7.58.36 1.05.37 3.75.36-8.33.36 8.22.36-8.46.37 4.55.36 4.27.36-8.52.36 4.04.36-.21.37 4.43.36-8.23.36 8.46.36-4.86.36-3.84.37 8.77.36-9.13.36 8.57.36-7.91.36 3.58.37.27.36-5.28.36 13.65.36-12.08.37 7.7.36-4.85.36-8 .36 12.87.36-.16.37-8.29.36 8 .36-12.3.36 12.76.36.18.37-4.27.36-8.95.36 4.54.36 8.47.36-.37.37 3.95.36-20.47.36 12.51.36-4.22.36 12.41.37.08.36-21.03.36 12.82.36-4.3.37 12.08.36-4.12.36-4.48.36-12.02.36 12.44.37 8.83.36-8.87.36 4.47.36-16.85.36 17.04.37-.5.36-4.51.36.16.36-7.68.36 12.34.37-8.25.36 8.28.36-.19.36-7.47.37 2.8.36-3.65.36 4.25.36 7.8.36-8.1.37-8.04.36 8.23.36.38.36 7.87.36-8.1.37-8.6.36 8.36.36-.1.36 7.92.36-12.44.37.5.36 3.59.36-.08.36 9.1.36-12.93.37-4.22.36 16.95.36-12.76.36 4.12.37-4.12.36 12.43.36-12.43.36 9.12.36-9.24.37.63.36 12.09.36-12.19.36 3.46.36-3.73.37 4.2.36 8.11.36-12.64.36 8.27.36-16.22.37 16.94.36 3.89.36-16.91.36 12.71.37-12.52.36 11.96.36.17.36-8.21.36 3.95.37 4.61.36-9.38.36 5.33.36 3.91.36-12.99.37 17.27.36-16.72.36 8.14.36 8.72.36-17.17.37 16.66.36-15.89.36 7.29.36 5.38.37-9.26.36 12.87.36-11.75.36-1.66.36 9.98.37-9.16.36 7.29.36-3.45.36-4.37.36 5.31.37-.55.36-.08.36-.52.36.6.36-1.07.37 9.35.36-17.01.36 8.81.36 4.17.36-8.8.37 9.2.36-9.06.36 4.47.36 3.8.37-12.12.36 12.39.36-4.34.36-4.21.36 8.4.37-.24.36-8.12.36.45.36 3.94.36.23.37 3.9.36-4.28.36-7.67.36 11.88.36-4.29.37 4.81.36-4.21.36-4.71.36.37.37 7.68.36.29.36 4.82.36-21.57.36 4.45.37 12.38.36 4.2.36-3.47.36-13.15.36-.3.37 12.74.36 4.02.36-12.3.36 4.49.36-9.14.37 12.8.36 3.82.36-12.87.36 12.83.36-29.09.37 28.69.36-7.65.36 3.87.36-.5.37-19.91.36 20.83.36-.07.36.35.36-.63.37-11.51.36-1.32.36 13.4.36 3.49.36-8.2.37.45.36-13.33.36 16.98.36 4.23.36-7.98.37.26.36-12.89.36 16.4.36.6.37-3.84.36-.39.36-9.17.36 12.82.36-8.26.37 11.94.36-7.03.36-4.43.36 3.74.36-4.23.37 8.58.36-.29.36-8.21.36.13.36 3.84.37 4.61.36-.91.36-7.39.36-4.11.37 12.4.36-.35.36-3.61.36-.64.36-8.23.37 8.34.36 7.96.36-7.61.36-.36.36-8.39.37 13.01.36-4.8.36-.19.36.21.36-8.13.37 16.2.36-11.75.36 7.7.36-3.63.36-8.46.37 16.62.36-16.1.36 11.93.36.57.37-12.4.36 11.62.36-4.66.36.58.36.07.37-.74.36.82.36.05.36-5 .36 8.9.37-7.95.36 8.38.36-8.9.36.46.36 11.94.37-11.82.36 3.07.36.72.36-.42.37-.09.36 4.83.36-13.17.36 8.66.36-.18.37 4.27.36 4.81.36-21.83.36 8.82.36 7.73.37.75.36-.05.36-12.32.36-1.02.36 16.89.37.76.36-12.6.36-4.05.36 4.04.36 12.45.37-.38.36-12.37.36-12.11.36 19.91.37 4.89.36-3.93.36-12.2.36-1.18.36 13.27.37 3.59.36-7.69.36-.13.36-12.79.36 15.96.37 5.25.36-12.74.36 4.33.36-4.15.36 3.27.37 5.2.36-9.31.36 8.66.36-11.81.37 11.24.36-7.91.36 8.47h.36l.36-3.93.37-8.72.36 4.25.36 8.8.36 3.87.36-7.92.37-13.35.36 13.25.36 3.65.36 4.49.36-4.56.37-28.55.36 33.08.36-4.34.36 4.12.36-12.4.37-8.53.36 12.96.36 7.83.36.44.37-12.36.36-9.17.36 12.55.36 8.9.36-8.53.37-.69.36-8.8.36 9.6.36 3.85.36.49.37-7.7.36-5 .36 12.64.36-.04.36-4.31.37-.06.36-8.51.36 12.76.36-4.04.37 3.7.36-3.49.36-8.4.36 11.99.36-8.19.37 3.92.36 4.15.36-12.18.36 12.3.36-3.68.37-.39.36 4.31.36-12.1.36 11.81.36.28.37-8.57.36 3.66.36-7.62.36 11.93.37.86.36-8.48.36 7.99.36-7.82.36 3.81.37 4.62.36-12.79.36 16.46.36-16.42.36 11.77.37-3.68.36-.03.36.52.36-4.4.36 3.32.37.12.36 4.65.36-8.67.36 4.52.36-4.32.37 8.09.36-4.04.36.14.36.18.37-4.6.36 4.32.36.05.36 4.22.36-7.84.37-.39.36 4.74.36 3.63.36 4.16.36-16.54.37 4.53.36 3.18.36 4.8.36-.19.36-8.24.37.31.36-.59.36 8.06.36.63.37-8.2.36.16.36 4.17.36 3.79.36.03.37-4.86.36-11.56.36 12.38.36 8.41.36-3.8.37-8.7.36-4.55.36 8.24.36 4.58.36-.02.37-8.02.36-4.97.36 13.2.36-.45.36-3.21.37-4.87.36-4.78.36 16.72.36-3.78.37-4.24.36-3.93.36-.9.36 4.7.36-.43.37.54.36 4.4.36-9.89.36 4.61.36.55.37-.2.36 5.11.36-8.86.36 3.81.36-3.69.37 8.38.36.72.36-13.3.36-.53.37 17.05.36-3.74.36.38.36-13.65.36 5.12.37 2.8.36 9.03.36-7.32.36-12.88.36 15.97.37-3.83.36 8.28.36-12.12.36-8.91.36 20.31.37-7.8.36 7.8.36-19.55.36 12.01.36 3.23.37.62.36-.13.36-20.34.36 20.31.37-3.93.36 8.23.36-15.67.36 3.14.36 9.1.37-4.81.36 4.26.36-8.77.36.37.36 8.57.37-4.25.36-4.55.36 5.11.36-.85.36.27.37.13.36-.31.36-.05.36.31.37.36.36-.31.36-.79.36.96.36-.3.37-3.73.36-.35.36 7.87.36.43.36-8.34.37 4 .36-4.45.36 8.69.36-.07.36-12.31.37 8.06.36-.2.36 3.93.36-3.82.37.35.36-8.05.36 7.44.36 8.78.36-8.38.37-4.01.36-.09.36 3.95.36.12.36 4.32.37-4.48.36-7.67.36 7.92.36 3.92.36-3.67.37-.16.36-4.56.36 4.13.36 3.74.36-3.3.37-.1.36-4.26.36 4.28.36-3.85.37 8.4.36-4.53.36-.58.36.77.36-4.51.37 8.69.36-8.77.36 8.29.36-8.02.36 3.74.37.54.36.11.36 3.37.36-16.15.36 16.18.37-3.46.36 3.81.36-4.02.36-4.39.37 4.8.36-.3.36 4.28.36-3.74.36-4.5.37.41.36 7.79.36-4.09.36 4.33.36-12.91.37 8.29.36.56.36 3.9.36-4.69.36-4.02.37 4.87.36-4.74.36 12.55.36-16.2.36 7.67.37 3.94.36-7.95.36 12.46.36-16.52.37 7.78.36 4.99.36-9.1.36 9.01.36-12.73.37 11.52.36 1.24.36-8.24.36 3.45.36-3.82.37 8.09.36-.1.36-7.72.36 3.99.36-4.39.37 3.39.36 8.87.36-20.38.36 16.18.37-3.79.36-.44.36 8.85.36-16.51.36 3.79.37 4.18.36 3.94.36 4.3.36-21.22.36 12.61.37-.03.36 3.97.36-3.59.36-3.92.36-.01.37 8.53.36-.72.36-3.93.36-3.58.36-.59.37 3.9.36 8.28.36-12.47.36-3.93.37 16.87.36-12.9.36 4.8.36 3.92.36-12.67.37 16.27.36-11.93.36 4.87.36-.39.36-4.98.37 13.89.36-16.85.36 7.89.36 3.84.36-8.11.37 12.67.36-20.58.36 12.5.36 4.13.37-4.14.36 7.95.36-24.88.36 20.1.36-3.34.37 3.84.36.24.36-17.17.36 16.98.36-3.77.37 3.63.36-3.28.36-8.89.36 12.41.36-4.71.37.1.36-3.88.36 4.22.36 4.33.37-4.3.36-.52.36-3.43.36 3.97.36 4.15.37-4.27.36-8.01.36 12.43.36-4.08.36 3.91.37-9.29.36-2.89.36 15.9.36-7.58.36 4.13.37-12.28.36 4.28.36 11.46.36-7.86.36-.25.37-8.64.36 8.51.36 8.07.36-7.73.37-4.53.36-4.19.36 12.89.36 4.08.36-12.25.37 3.21.36-7.52.36 12.25"/><use xlink:href="#e7a00__a" color="#D336C8" transform="matrix(3.75 0 0 3.75 125.4 120.43)"/><use xlink:href="#e7a00__a" color="#D336C8" transform="matrix(3.75 0 0 3.75 220.55 7.51)"/></g><text stroke-linecap="round" stroke-linejoin="round" color="#000" font-family="KaTeX_Main" font-size="8" transform="translate(241.1 25.11)"><tspan>AVLRelaxedTopDown</tspan></text><g fill="none" stroke="currentColor" stroke-linecap="round" stroke-linejoin="round" color="#000"><path stroke="#9F650D" stroke-dasharray="4.0,2.0,1.0,2.0" d="M205.6 22.51h29.9M28 144.54l.36-5.94.36-4.47.37-1.29.36 12.33.36-4.68.36-1.24.36-17.62.37 11.09.36 4.52.36 3.69.36-9.3.37-9.32.36 11.92.36-4.65.36 3.03.36-.41.37-21.52.36 24.74.36-4.31.36-5.57.36-1.19.37-9.25.36 11.52.36 3.96.36-9.13.36-9.41.37 3.07.36 7.54.36 4.65.36-17.23.36 2.66.37-1.68.36 13.81.36-3.21.36-17.45.37 7.86.36 7.99.36 3.03.36-7.87.36-13.83.37 12.06.36 3.42.36-.31.36-13.41.36 8.17.37-.97.36 4.36.36-5.34.36-10.25.36 9.77.37 19.76.36-9.25.36-4.41.36 15.45.37-5 .36-8.5.36 7.94.36-17.14.36 19.93.37-3.22.36-.7.36-8.46.36-9.34.36 21.21.37-8.81.36 4.07.36.21.36-18.22.36 17.35.37-4.63.36 4.11.36-4.28.36 3.94.37-13.39.36 8.57.36 4.45.36.16.36-4.96.37-3.92.36-.54.36 8.44.36.01.36-3.93.37-.37.36-8.77.36 12.47.36.67.36-9.31.37 13.06.36-9.08.36-12.41.36 20.13.36-12.02.37 12.18.36-8.3.36-3.93.36-.72.37 8.62.36.25.36-4.95.36 5.03.36-17.22.37 15.9.36-.01.36.39.36-8.79.36 4.97.37-4.69.36 4.12.36 8.77.36-12.81.36 8.53.37-4.18.36-8.21.36 16.34.36-8.5.37.05.36 4.09.36-8.28.36 3.89.36 4.5.37-8.69.36 12.85.36-13.4.36.71.36 7.78.37-8 .36 12.1.36-7.73.36-.4.36-4.98.37 3.81.36 5.11.36-4 .36-.4.36.11.37-4.54.36 8.3.36.03.36-8.3.37 13.03.36-16.64.36 3.84.36 12.08.36-4.27.37-3.99.36-.44.36-7.53.36 12.47.36-.04.37-8.27.36 8.07.36-8.2.36 3.84.36 8.69.37-12.25.36 3.56.36-.11.36-5.02.37 13.1.36-12.35.36 4.22.36.37.36 3.94.37-4.02.36-.33.36-8.59.36 16.51.36-3.26.37-9 .36 4.35.36-4.28.36 8.32.36-.21.37.45.36-8.61.36.11.36 3.75.36 4.73.37-4.38.36 4.26.36-8.33.36 4.16.37.61.36-.88.36 4.18.36-8.09.36 8.38.37-8.67.36 4.03.36 4.09.36-3.89.36-.36.37 4.57.36-8.76.36 4.2.36 5.16.36-9.04.37 12.89.36-16.61.36 8.31.36 4 .37 4.18.36-12.7.36-3.79.36 7.41.36 5.37.37 3.37.36-12.73.36-3.89.36 8.28.36 8.75.37-4.46.36-3.96.36-8.4.36 8.08.36 4.33.37.04.36.01.36-12.06.36 3.8.37 8.7.36.26.36-.44.36.85.36-13.53.37 8.47.36-.11.36 3.6.36.26.36-7.86.37-.03.36 3.99.36 4.07.36.15.36-.07.37-12.45.36 2.96.36 9.17.36 4.19.36-7.89.37-4.19.36-4.53.36 16.86.36-3.97.37-3.69.36 3.65.36-16.32.36 16.26.36-.33.37-4.18.36 4.37.36-12.49.36 8.5.36 8.18.37-12.1.36 8.05.36-4.5.36.04.36-.16.37.39.36 3.71.36-8.1.36 4.47.37-.71.36 4.87.36-5.01.36.69.36.47.37 3.55.36-4.18.36-8.35.36 12.07.36.56.37-4.42.36.04.36-4 .36 3.61.36 4.6.37-4.34.36 8.41.36-20.55.36 12.15.36 4.46.37 4.06.36-8.62.36-8.07.36 7 .37.47.36 8.5.36-7.51.36-.58.36-8.43.37 8.04.36 8.34.36.02.36-16.45.36.56.37 11.49.36.1.36.55.36-8.36.36 8.08.37-12.98.36 12.27.36.78.36-8.07.37 7.51.36-12.12.36 15.88.36-7.74.36 4.6.37-8.11.36 3.71.36.11.36-.22.36 8.19.37-13 .36.14.36 5.02.36-.79.36 8.79.37-4.09.36-17.35.36 16.86.36-4.82.36 4.92.37 4.41.36-25.13.36 20.88.36-4.23.37 3.13.36 5.22.36-20.72.36 11.58.36 9.11.37-8.7.36 4.34.36-8.53.36-4.69.36 17.62.37-8.44.36 4.19.36-8.8.36-4.29.36 17.04.37-4.36.36-.55.36-16.23.36 20.51.37-12.18.36 12.5.36-9.02.36-7.46.36 11.67.37-7.65.36 12.24.36-3.57.36-17.02.36 16.49.37.07.36-4.28.36 8.6.36-20.9.36 12.32.37 8.65.36-12.97.36 12.71.36-16.2.37 3.58.36 12.21.36-7.63.36-.64.36.33.37-3.92.36 7.6.36.62.36-8.77.36 8.83.37-9.3.36 4.6.36 8.46.36-12.5.36 4.4.37-4.54.36 4.36.36 8.32.36-12.56.36 3.98.37.74.36 3.06.36-8.09.36 13.03.37-17.04.36 12.99.36-4.49.36-3.95.36 12.24.37-11.63.36 3.18.36.17.36-.12.36 4.11.37-7.57.36 3.99.36 4.21.36-4.63.36-3.73.37 12.11.36-12.35.36-.52.36 8.99.37-3.63.36 3.85.36-8.58.36-.27.36 8.43.37 4.05.36-12.66.36.82.36 2.9.36 4.59.37.06.36-8.66.36 4.3.36-4.03.36 8.48.37.67.36-.24.36-13.28.36 4.84.36 7.45.37 5.05.36-4.34.36-17.19.36 8.38.37 12.15.36-3.59.36.32.36-12.84.36 4.46.37 7.85.36-.21.36-3.07.36-1.43.36-3.39.37 3.93.36 8.69.36-8.43.36.01.36-8.02.37 8.46.36 7.46.36-7.15.36-1 .37-3.34.36 3.56.36 3.96.36-4 .36-.22.37-3.5.36 8.26.36-9.47.36 13.38.36-8.51.37 4.57.36-8.37.36-4.34.36 17.19.36-9.01.37 4.28.36-8.09.36-.59.36 8.54h.37l.36-4.24.36-8.63.36 8.62.36 3.73.37.49.36.04.36-8.36.36 4.17.36-4.49.37 8.45.36.1.36-9.04.36 5.02.36.06.37-.35.36 9.12.36-17.41.36 8.94.36 3.69.37-7.98.36 7.81.36-3.97.36.4.37 3.94.36-12.63.36 12.23.36-4.48.36 4.16.37-3.81.36-3.85.36 3.65.36 4.2.36-3.73.37-.18.36-3.84.36 3.66.36 4.44.36-.03.37-8.23.36-.91.36 4.19.36 4.42.37 4.79.36-8.21.36-8.77.36 4.35.36 7.81.37 4.47.36-13.08.36.02.36 8.74.36-8.06.37 12.17.36-8.18.36-8.11.36 12.36.36-8.21.37 12.41.36-3.94.36-12.86.36 8.72.36.09.37.15.36 8.11.36-12.65.36 3.73.37.38.36-4.36.36 12.57.36-7.8.36-4.36.37 7.87.36-12.76.36 17.09.36-3.7.36-8.7.37 4.32.36-4.07.36 7.75.36.35.36-7.79.37-.47.36 12.52.36-13.49.36 9.1.37.04.36-12.92.36 12.99.36-12.81.36 16.5.37.67.36-20.79.36 16.74.36-3.86.36-.55.37 3.91.36-7.82.36 3.67.36.18.36-.23.37 4.54.36-3.92.36-4.3.36 7.62.36-4.09.37.47.36 4.49.36-12.98.36 12.75.37-.04.36-8.9.36 12.43.36-16.21.36 7.89.37 4.38.36-4.38.36 4.31.36-4.28.36-8.11.37 13.09.36-4.88.36 4.69.36-3.81.36-9.17.37 16.53.36-12.48.36 8.47.36.31.37-17.18.36 20.82.36-8.02.36 4.6.36.03.37-12.68.36 7.81.36.51.36 4.12.36.29.37-8.75.36-4.1.36 13.08.36-.86.36 4.89.37-12.99.36-8.13.36 20.47.36-4.35.37.54.36-8.63.36-4.14.36 12.2.36-.22.37.6.36-3.57.36-9.05.36 7.88.36 4.4.37.45.36-.29.36-8.02.36-4.97.36 12.61.37 4.23.36-8.33.36.06.36-12.97.36 21.43.37-8.09.36 4.47.36-5.91.36-7.36.37 12.45.36-3.39.36 4.01.36-4.92.36-3.3.37 3.95.36.42.36 7.99.36-12.78.36 8.96.37-12.51.36 7.37.36 9.23.36-8.54.36.35.37-4.2.36-.43.36 8.34.36-.02.37-.34.36-7.74.36.37.36 3.34.36 4.69.37-.25.36-4.1.36-9.46.36 9.66.36 8.24.37-8.3.36 4.6.36-13.84.36 4.25.36 12.82.37-8.22.36 4.3.36-7.77.36-4.85.36 16.27.37-3.72.36-3.72.36-4.3.36-.31.37 8.67.36 4.13.36-8.71.36-4.76.36.06.37 4.77.36 7.89.36-8.44.36.65.36-8.82.37 7.68.36 9.55.36-8.76.36.41.36-4.05.37 3.89.36 4.4.36-4.07.36-4.65.37 4.38.36.39.36 4.19.36.04.36-12.89.37 12.55.36-4.33.36.3.36 4.19.36-13.47.37 13.72.36-4.1.36 3.75.36-4.52.36-8.51.37 16.99.36-8.3.36.5.36-.14.36-4.59.37 7.69.36-3.69.36.05.36.04.37-.36.36-.09.36 4.58.36-8.05.36 8.06.37-8.59.36 3.93.36 4.98.36-4.04.36.24.37-4.9.36 4.27.36 4.54.36-.08.36-12.6.37 17.25.36-16.81.36 15.71.36-8.32.37-7.91.36 16.79.36-12.41.36 8.04.36.16.37-16.42.36 20.4.36-8.52.36.03.36 3.77.37-16.12.36 20.82.36-3.66.36-8.72.36 7.97.37-12.35.36 12.78.36-.15.36-8.04.37 8.31.36-8.34.36 3.43.36 4.67.36-3.73.37-.21.36.14.36-4.87.36 9.46.36-.31.37-8.79.36 4.55.36-4.53.36 12.59.36-8.21.37-4.25.36 3.86.36-.23.36 4.7.36-4.31.37.27.36-5.21.36 4.92.36 3.15.37 1.38.36-4.86.36-7.68.36 12.21.36-4.68.37 4.6.36-8.91.36-.03.36 13.51.36-12.7.37 8.35.36-8.63.36 8.68.36-4.45.36-4.59.37 4.99.36-.65.36 4.57.36-4.55.37.15.36-3.85.36 4.44.36 7.96.36-12.42.37 8.16.36-8.13.36.17.36 12.02.36-8 .37.2.36-4.12.36-1.44.36 12.48.36-7.14.37.22.36-4.58.36-.09.36 12.34.36-7.73.37 3.28.36-8.36.36.2.36 8.45.37 4.5.36-8.69.36-8.75.36 3.87.36 8.6.37 4.36.36-12.21.36 4.19.36-8.48.36 12.51.37 4.11.36-13.5.36 7.58.36-14.88.36 16.53.37 4.26.36-12.12.36 7.73.36-16.13.37 16.11.36 4.73.36-8.32.36.28.36-9.08.37 8.62.36 8.16.36-8.07.36-4.32.36 12.87.37-20.83.36 16.39.36.18.36-4.18.36 4.17.37-17.45.36 17.42.36 3.75.36-7.81h.36l.37-13.07.36 15.88.36 5.32.36-8.5.37.5.36-4.01.36-.62.36 13.02.36-4.22.37-9.32.36 5.04.36-7.97.36 15.84.36-3.73.37-8.32.36 8.12.36-16.38.36 20.56.36-4.17.37-7.9.36 4.05.36-4.62.36 8.12.37.71.36-8.4.36 3.77.36-3.96.36 8.21.37 3.68.36-7.65.36-8.09.36 4.45.36 7.61.37 4.38.36-4.22.36-12.52.36 4.43.36 8.52.37-.09.36.24.36-13.39.36 4.4.37 7.77.36 1.08.36-3.93.36-4.53.36 4.02.37-.5.36 4.67.36-4.6.36-4.05.36 4.07.37-.64.36 9.1.36-12.72.36 4.92.36-.17.37-4.37.36 13.01.36-13.04.36 4.21.36-.63.37-3.2.36 11.37.36-7.88.36-3.6.37 2.6.36 1.22.36.27.36 7.72.36-12.66.37.3.36 4 .36-.65"/><use xlink:href="#e7a00__c" color="#9F650D" transform="matrix(3.75 0 0 3.75 182.98 113.65)"/><use xlink:href="#e7a00__c" color="#9F650D" transform="matrix(3.75 0 0 3.75 220.55 22.51)"/></g><path fill="none" d="M28 45.01V162.5M371.99 45.01H28" color="#000"/></svg>