<svg xmlns="http://www.w3.org/2000/svg" xmlns:xlink="http://www.w3.org/1999/xlink" viewBox="0 0 400 200"><path fill="none" d="M0 0h400v200H0z"/><defs><path id="2e56b__b" stroke="currentColor" stroke-width=".267" d="M-1 0h2M0-1v2"/><path id="2e56b__c" stroke="currentColor" stroke-width=".267" d="m-1-1 2 2m0-2-2 2"/><path id="2e56b__d" stroke="currentColor" stroke-width=".267" d="M-1 0h2M0-1v2m-1-2 2 2m-2 0 2-2"/><path id="2e56b__a" stroke="currentColor" stroke-width=".267" d="M0 1.33 1.265.411.782-1.067l-1.564-.009-.483 1.487z"/></defs><path fill="none" stroke="#CCC" stroke-linecap="round" stroke-linejoin="round" stroke-width=".1" d="M46.1 162.5V45.01" class="2e56b__gridline" color="#000"/><g fill="none" stroke-linecap="round" stroke-linejoin="round" stroke-width="0" color="#000"><path d="M46.1 162.5V155m0-109.99v7.5"/><text fill="#000" font-family="KaTeX_Main" font-size="8" text-anchor="middle" transform="translate(46.1 172.6)"><tspan> 1</tspan></text></g><path fill="none" stroke="#CCC" stroke-linecap="round" stroke-linejoin="round" stroke-width=".1" d="M82.31 162.5V45.01" class="2e56b__gridline" color="#000"/><g fill="none" stroke-linecap="round" stroke-linejoin="round" stroke-width="0" color="#000"><path d="M82.31 162.5V155m0-109.99v7.5"/><text fill="#000" font-family="KaTeX_Main" font-size="8" text-anchor="middle" transform="translate(82.31 172.6)"><tspan> 2</tspan></text></g><path fill="none" stroke="#CCC" stroke-linecap="round" stroke-linejoin="round" stroke-width=".1" d="M118.52 162.5V45.01" class="2e56b__gridline" color="#000"/><g fill="none" stroke-linecap="round" stroke-linejoin="round" stroke-width="0" color="#000"><path d="M118.52 162.5V155m0-109.99v7.5"/><text fill="#000" font-family="KaTeX_Main" font-size="8" text-anchor="middle" transform="translate(118.52 172.6)"><tspan> 3</tspan></text></g><path fill="none" stroke="#CCC" stroke-linecap="round" stroke-linejoin="round" stroke-width=".1" d="M154.73 162.5V45.01" class="2e56b__gridline" color="#000"/><g fill="none" stroke-linecap="round" stroke-linejoin="round" stroke-width="0" color="#000"><path d="M154.73 162.5V155m0-109.99v7.5"/><text fill="#000" font-family="KaTeX_Main" font-size="8" text-anchor="middle" transform="translate(154.73 172.6)"><tspan> 4</tspan></text></g><path fill="none" stroke="#CCC" stroke-linecap="round" stroke-linejoin="round" stroke-width=".1" d="M190.94 162.5V45.01" class="2e56b__gridline" color="#000"/><g fill="none" stroke-linecap="round" stroke-linejoin="round" stroke-width="0" color="#000"><path d="M190.94 162.5V155m0-109.99v7.5"/><text fill="#000" font-family="KaTeX_Main" font-size="8" text-anchor="middle" transform="translate(190.94 172.6)"><tspan> 5</tspan></text></g><path fill="none" stroke="#CCC" stroke-linecap="round" stroke-linejoin="round" stroke-width=".1" d="M227.15 162.5V45.01" class="2e56b__gridline" color="#000"/><g fill="none" stroke-linecap="round" stroke-linejoin="round" stroke-width="0" color="#000"><path d="M227.15 162.5V155m0-109.99v7.5"/><text fill="#000" font-family="KaTeX_Main" font-size="8" text-anchor="middle" transform="translate(227.15 172.6)"><tspan> 6</tspan></text></g><path fill="none" stroke="#CCC" stroke-linecap="round" stroke-linejoin="round" stroke-width=".1" d="M263.36 162.5V45.01" class="2e56b__gridline" color="#000"/><g fill="none" stroke-linecap="round" stroke-linejoin="round" stroke-width="0" color="#000"><path d="M263.36 162.5V155m0-109.99v7.5"/><text fill="#000" font-family="KaTeX_Main" font-size="8" text-anchor="middle" transform="translate(263.36 172.6)"><tspan> 7</tspan></text></g><path fill="none" stroke="#CCC" stroke-linecap="round" stroke-linejoin="round" stroke-width=".1" d="M299.57 162.5V45.01" class="2e56b__gridline" color="#000"/><g fill="none" stroke-linecap="round" stroke-linejoin="round" stroke-width="0" color="#000"><path d="M299.57 162.5V155m0-109.99v7.5"/><text fill="#000" font-family="KaTeX_Main" font-size="8" text-anchor="middle" transform="translate(299.57 172.6)"><tspan> 8</tspan></text></g><path fill="none" stroke="#CCC" stroke-linecap="round" stroke-linejoin="round" stroke-width=".1" d="M335.78 162.5V45.01" class="2e56b__gridline" color="#000"/><g fill="none" stroke-linecap="round" stroke-linejoin="round" stroke-width="0" color="#000"><path d="M335.78 162.5V155m0-109.99v7.5"/><text fill="#000" font-family="KaTeX_Main" font-size="8" text-anchor="middle" transform="translate(335.78 172.6)"><tspan> 9</tspan></text></g><path fill="none" stroke="#CCC" stroke-linecap="round" stroke-linejoin="round" stroke-width=".1" d="M371.99 162.5V45.01" class="2e56b__gridline" color="#000"/><g fill="none" stroke-linecap="round" stroke-linejoin="round" stroke-width="0" color="#000"><path d="M371.99 162.5V155m0-109.99v7.5"/><text fill="#000" font-family="KaTeX_Main" font-size="8" text-anchor="middle" transform="translate(371.99 172.6)"><tspan> 10</tspan></text></g><g fill="none" stroke-linecap="round" stroke-linejoin="round" stroke-width="0" color="#000"><path d="M371.99 162.5h-7.5"/><text fill="#000" font-family="KaTeX_Main" font-size="8" transform="translate(378.99 165.1)"><tspan>0.00</tspan></text></g><g fill="none" stroke-linecap="round" stroke-linejoin="round" stroke-width="0" color="#000"><path d="M371.99 150.75h-7.5"/><text fill="#000" font-family="KaTeX_Main" font-size="8" transform="translate(378.99 153.35)"><tspan>200.00</tspan></text></g><g fill="none" stroke-linecap="round" stroke-linejoin="round" stroke-width="0" color="#000"><path d="M371.99 139h-7.5"/><text fill="#000" font-family="KaTeX_Main" font-size="8" transform="translate(378.99 141.6)"><tspan>400.00</tspan></text></g><g fill="none" stroke-linecap="round" stroke-linejoin="round" stroke-width="0" color="#000"><path d="M371.99 127.25h-7.5"/><text fill="#000" font-family="KaTeX_Main" font-size="8" transform="translate(378.99 129.85)"><tspan>600.00</tspan></text></g><g fill="none" stroke-linecap="round" stroke-linejoin="round" stroke-width="0" color="#000"><path d="M371.99 115.5h-7.5"/><text fill="#000" font-family="KaTeX_Main" font-size="8" transform="translate(378.99 118.1)"><tspan>800.00</tspan></text></g><g fill="none" stroke-linecap="round" stroke-linejoin="round" stroke-width="0" color="#000"><path d="M371.99 103.75h-7.5"/><text fill="#000" font-family="KaTeX_Main" font-size="8" transform="translate(378.99 106.35)"><tspan>1000.00</tspan></text></g><g fill="none" stroke-linecap="round" stroke-linejoin="round" stroke-width="0" color="#000"><path d="M371.99 92.01h-7.5"/><text fill="#000" font-family="KaTeX_Main" font-size="8" transform="translate(378.99 94.61)"><tspan>1200.00</tspan></text></g><g fill="none" stroke-linecap="round" stroke-linejoin="round" stroke-width="0" color="#000"><path d="M371.99 80.26h-7.5"/><text fill="#000" font-family="KaTeX_Main" font-size="8" transform="translate(378.99 82.86)"><tspan>1400.00</tspan></text></g><g fill="none" stroke-linecap="round" stroke-linejoin="round" stroke-width="0" color="#000"><path d="M371.99 68.51h-7.5"/><text fill="#000" font-family="KaTeX_Main" font-size="8" transform="translate(378.99 71.11)"><tspan>1600.00</tspan></text></g><g fill="none" stroke-linecap="round" stroke-linejoin="round" stroke-width="0" color="#000"><path d="M371.99 56.76h-7.5"/><text fill="#000" font-family="KaTeX_Main" font-size="8" transform="translate(378.99 59.36)"><tspan>1800.00</tspan></text></g><g fill="none" stroke-linecap="round" stroke-linejoin="round" stroke-width="0" color="#000"><path d="M371.99 45.01h-7.5"/><text fill="#000" font-family="KaTeX_Main" font-size="8" transform="translate(378.99 47.61)"><tspan>2000.00</tspan></text></g><path fill="none" d="M28 45.01V162.5M371.99 45.01H28" color="#000"/><text stroke-linecap="round" stroke-linejoin="round" stroke-width="0" color="#000" font-family="KaTeX_Main" font-size="10" text-anchor="middle" transform="rotate(-90 57.63 46.13)"><tspan font-weight="bold">Allocations </tspan><tspan> / log</tspan><tspan dy="3" font-size="8">2</tspan><tspan dy="-3">(Size)</tspan></text><text stroke-linecap="round" stroke-linejoin="round" stroke-width="0" color="#000" font-family="KaTeX_Main" font-size="10" text-anchor="middle" transform="translate(199.99 195.75)"><tspan>Operations / 10</tspan><tspan dy="-5" font-size="8">6</tspan></text><text stroke-linecap="round" stroke-linejoin="round" color="#000" font-family="KaTeX_Main" font-size="8" transform="translate(116 10.11)"><tspan>TreapTopDown</tspan></text><g fill="none" stroke="currentColor" stroke-linecap="round" stroke-linejoin="round" color="#000"><path stroke="#00C853" stroke-dasharray="4.5,2.0,0.5,2.0,0.5,2.0" d="M80.5 7.51h29.9M10.26 162.42l.36-.08.36-.08.36-.08.37-.08.36-.08.36-.08.36-.08.36-.08.37-.08.36-.08.36-.09.36-.08.36-.08.37-.08.36-.08.36-.07.36-.08.37-.08.36-.08.36-.08.36-.07.36-.08.37-.08.36-.08.36-.07.36-.08.36-.08.37-.08.36-.08.36-.07.36-.08.36-.08.37-.07.36-.08.36-.07.36-.08.36-.08.37-.08.36-.07.36-.08.36-.08.37-.08.36-.07.36-.08.36-.08.36-.08.37-.07.36-.08.36-.08.36-.08.36-.07.37-.08.36-.08.36-.08.36-.08.36-.08.37-.08.36-.08.36-.08.36-.08.37-.07.36-.08.36-.08.36-.08.36-.08.37-.08.36-.07.36-.08.36-.08.36-.08.37-.08.36-.08.36-.08.36-.08.36-.08.37-.08.36-.08.36-.08.36-.08.36-.08.37-.08.36-.08.36-.08.36-.08.37-.08.36-.08.36-.08.36-.08.36-.08.37-.08.36-.08.36-.08.36-.08.36-.08.37-.08.36-.08.36-.08.36-.08.36-.07.37-.08.36-.08.36-.08.36-.07.37-.08.36-.08.36-.07.36-.08.36-.08.37-.07.36-.08.36-.07.36-.08.36-.07.37-.08.36-.08.36-.08.36-.07.36-.08.37-.08.36-.08.36-.07.36-.09.37-.08.36-.08.36-.08.36-.08.36-.08.37-.08.36-.08.36-.07.36-.08.36-.07.37-.08.36-.08.36-.07.36-.08.36-.08.37-.08.36-.08.36-.07.36-.08.36-.08.37-.09.36-.08.36-.08.36-.08.37-.07.36-.08.36-.08.36-.08.36-.08.37-.08.36-.08.36-.08.36-.08.36-.07.37-.08.36-.08.36-.08.36-.08.36-.08.37-.08.36-.08.36-.08.36-.08.37-.07.36-.08.36-.08.36-.08.36-.08.37-.07.36-.08.36-.08.36-.08.36-.07.37-.08.36-.08.36-.08.36-.08.36-.08.37-.08.36-.08.36-.08.36-.08.36-.08.37-.07.36-.08.36-.08.36-.08.37-.08.36-.08.36-.08.36-.08.36-.08.37-.08.36-.08.36-.08.36-.08.36-.08.37-.08.36-.08.36-.08.36-.08.36-.08.37-.08.36-.08.36-.08.36-.08.37-.09.36-.08.36-.08.36-.09.36-.08.37-.08.36-.09.36-.08.36-.09.36-.08.37-.08.36-.08.36-.08.36-.07.36-.08.37-.08.36-.08.36-.08.36-.08.36-.07.37-.08.36-.08.36-.08.36-.08.37-.08.36-.08.36-.08.36-.08.36-.08.37-.08.36-.07.36-.08.36-.08.36-.07.37-.08.36-.08.36-.07.36-.08.36-.08.37-.07.36-.08.36-.08.36-.07.37-.08.36-.08.36-.08.36-.08.36-.08.37-.08.36-.08.36-.07.36-.08.36-.08.37-.08.36-.08.36-.08.36-.08.36-.08.37-.08.36-.08.36-.09.36-.08.37-.09.36-.08.36-.09.36-.08.36-.09.37-.08.36-.08.36-.08.36-.08.36-.08.37-.08.36-.08.36-.07.36-.08.36-.08.37-.07.36-.08.36-.08.36-.08.36-.08.37-.08.36-.08.36-.07.36-.08.37-.08.36-.08.36-.08.36-.07.36-.08.37-.08.36-.08.36-.07.36-.08.36-.08.37-.08.36-.08.36-.08.36-.08.36-.08.37-.08.36-.08.36-.07.36-.08.37-.08.36-.07.36-.08.36-.08.36-.08.37-.07.36-.08.36-.08.36-.07.36-.08.37-.08.36-.07.36-.08.36-.08.36-.08.37-.07.36-.08.36-.08.36-.08.36-.08.37-.07.36-.08.36-.08.36-.08.37-.08.36-.08.36-.08.36-.08.36-.08.37-.08.36-.08.36-.08.36-.08.36-.08.37-.08.36-.09.36-.08.36-.08.36-.08.37-.08.36-.08.36-.08.36-.08.37-.08.36-.07.36-.08.36-.08.36-.08.37-.08.36-.08.36-.07.36-.08.36-.08.37-.08.36-.08.36-.08.36-.08.36-.09.37-.08.36-.08.36-.08.36-.08.36-.08.37-.08.36-.08.36-.08.36-.09.37-.08.36-.08.36-.09.36-.08.36-.09.37-.09.36-.08.36-.09.36-.09.36-.08.37-.09.36-.08.36-.09.36-.08.36-.09.37-.08.36-.08.36-.08.36-.08.37-.08.36-.09.36-.08.36-.08.36-.09.37-.08.36-.09.36-.08.36-.09.36-.09.37-.08.36-.09.36-.09.36-.08.36-.09.37-.08.36-.08.36-.08.36-.08.37-.09.36-.08.36-.09.36-.09.36-.08.37-.08.36-.08.36-.08.36-.08.36-.08.37-.07.36-.09.36-.08.36-.08.36-.08.37-.08.36-.08.36-.08.36-.08.36-.08.37-.07.36-.08.36-.08.36-.07.37-.08.36-.08.36-.07.36-.08.36-.08.37-.07.36-.08.36-.08.36-.07.36-.08.37-.08.36-.07.36-.08.36-.08.36-.08.37-.08.36-.08.36-.07.36-.08.37-.08.36-.08.36-.08.36-.07.36-.08.37-.08.36-.08.36-.08.36-.07.36-.08.37-.08.36-.08.36-.07.36-.08.36-.08.37-.08.36-.08.36-.08.36-.07.36-.08.37-.08.36-.08.36-.08.36-.08.37-.07.36-.08.36-.08.36-.08.36-.08.37-.08.36-.08.36-.08.36-.08.36-.07.37-.08.36-.08.36-.08.36-.07.36-.08.37-.08.36-.08.36-.08.36-.08.37-.08.36-.08.36-.07.36-.08.36-.08.37-.08.36-.08.36-.08.36-.08.36-.08.37-.07.36-.08.36-.08.36-.08.36-.08.37-.08.36-.08.36-.07.36-.08.37-.08.36-.08.36-.08.36-.07.36-.08.37-.08.36-.07.36-.08.36-.08.36-.08.37-.07.36-.08.36-.08.36-.08.36-.08.37-.08.36-.08.36-.08.36-.08.36-.08.37-.08.36-.09.36-.08.36-.08.37-.08.36-.08.36-.09.36-.08.36-.08.37-.08.36-.08.36-.08.36-.07.36-.08.37-.08.36-.08.36-.08.36-.08.36-.08.37-.07.36-.08.36-.08.36-.08.37-.08.36-.07.36-.08.36-.08.36-.09.37-.08.36-.08.36-.08.36-.09.36-.08.37-.08.36-.08.36-.08.36-.08.36-.08.37-.08.36-.08.36-.09.36-.08.36-.08.37-.08.36-.08.36-.08.36-.08.37-.08.36-.08.36-.09.36-.08.36-.08.37-.08.36-.08.36-.08.36-.08.36-.09.37-.08.36-.08.36-.08.36-.08.36-.08.37-.09.36-.08.36-.08.36-.08.37-.08.36-.09.36-.08.36-.08.36-.08.37-.08.36-.09.36-.08.36-.08.36-.08.37-.09.36-.08.36-.08.36-.08.36-.08.37-.08.36-.08.36-.08.36-.08.36-.08.37-.08.36-.08.36-.09.36-.08.37-.08.36-.07.36-.08.36-.08.36-.08.37-.07.36-.08.36-.08.36-.07.36-.08.37-.07.36-.08.36-.07.36-.08.36-.07.37-.08.36-.08.36-.07.36-.08.37-.07.36-.08.36-.08.36-.07.36-.08.37-.08.36-.08.36-.08.36-.08.36-.08.37-.07.36-.08.36-.08.36-.08.36-.08.37-.08.36-.08.36-.08.36-.08.37-.08.36-.08.36-.09.36-.08.36-.08.37-.08.36-.08.36-.08.36-.07.36-.08.37-.08.36-.08.36-.08.36-.09.36-.08.37-.08.36-.08.36-.08.36-.08.36-.08.37-.08.36-.08.36-.08.36-.08.37-.08.36-.08.36-.08.36-.08.36-.09.37-.08.36-.08.36-.08.36-.08.36-.07.37-.08.36-.08.36-.08.36-.07.36-.08.37-.08.36-.07.36-.08.36-.08.37-.08.36-.08.36-.08.36-.07.36-.08.37-.08.36-.08.36-.07.36-.08.36-.08.37-.08.36-.07.36-.08.36-.08.36-.08.37-.08.36-.08.36-.08.36-.07.36-.08.37-.08.36-.08.36-.08.36-.08.37-.08.36-.08.36-.08.36-.08.36-.08.37-.08.36-.08.36-.07.36-.08.36-.08.37-.08.36-.08.36-.07.36-.08.36-.08.37-.08.36-.08.36-.08.36-.08.37-.08.36-.08.36-.08.36-.08.36-.08.37-.08.36-.08.36-.08.36-.08.36-.07.37-.08.36-.08.36-.08.36-.07.36-.08.37-.08.36-.07.36-.08.36-.08.36-.07.37-.08.36-.08.36-.08.36-.07.37-.08.36-.08.36-.07.36-.08.36-.08.37-.08.36-.08.36-.08.36-.08.36-.08.37-.08.36-.08.36-.08.36-.09.36-.08.37-.08.36-.07.36-.08.36-.08.37-.08.36-.08.36-.07.36-.08.36-.08.37-.08.36-.08.36-.07.36-.08.36-.08.37-.08.36-.08.36-.08.36-.08.36-.08.37-.08.36-.08.36-.09.36-.08.37-.08.36-.08.36-.08.36-.08.36-.07.37-.08.36-.08.36-.08.36-.07.36-.08.37-.08.36-.08.36-.08.36-.08.36-.07.37-.08.36-.08.36-.09.36-.08.36-.08.37-.08.36-.08.36-.08.36-.08.37-.08.36-.08.36-.08.36-.08.36-.08.37-.09.36-.08.36-.08.36-.08.36-.09.37-.08.36-.08.36-.09.36-.08.36-.08.37-.09.36-.08.36-.08.36-.09.37-.08.36-.09.36-.08.36-.09.36-.07.37-.08.36-.08.36-.08.36-.07.36-.08.37-.08.36-.08.36-.08.36-.08.36-.08.37-.08.36-.09.36-.08.36-.07.36-.08.37-.08.36-.08.36-.08.36-.07.37-.08.36-.08.36-.08.36-.08.36-.08.37-.08.36-.08.36-.08.36-.08.36-.08.37-.08.36-.07.36-.08.36-.08.36-.08.37-.08.36-.07.36-.08.36-.08.37-.08.36-.07.36-.08.36-.08.36-.08.37-.08.36-.08.36-.08.36-.08.36-.08.37-.08.36-.08.36-.08.36-.08.36-.09.37-.07.36-.08.36-.08.36-.08.36-.08.37-.08.36-.08.36-.08.36-.08.37-.08.36-.08.36-.07.36-.08.36-.08.37-.08.36-.08.36-.08.36-.08.36-.07.37-.08.36-.09.36-.08.36-.08.36-.07.37-.09.36-.08.36-.08.36-.08.37-.08.36-.08.36-.08.36-.08.36-.08.37-.08.36-.08.36-.08.36-.08.36-.08.37-.08.36-.08.36-.08.36-.08.36-.08.37-.08.36-.08.36-.09.36-.08.37-.08.36-.08.36-.08.36-.08.36-.08.37-.08.36-.08.36-.08.36-.08.36-.08.37-.08.36-.08.36-.09.36-.08.36-.08.37-.08.36-.08.36-.08.36-.08.36-.09.37-.08.36-.08.36-.09.36-.08.37-.08.36-.08.36-.09.36-.08.36-.08.37-.08.36-.08.36-.08"/><use xlink:href="#2e56b__a" color="#00C853" transform="matrix(3.75 0 0 3.75 10.26 162.42)"/><use xlink:href="#2e56b__a" color="#00C853" transform="matrix(3.75 0 0 3.75 371.99 83.01)"/><use xlink:href="#2e56b__a" color="#00C853" transform="matrix(3.75 0 0 3.75 95.45 7.51)"/></g><text stroke-linecap="round" stroke-linejoin="round" color="#000" font-family="KaTeX_Main" font-size="8" transform="translate(116 25.11)"><tspan>TreapFingerTree</tspan></text><g fill="none" stroke="currentColor" stroke-linecap="round" stroke-linejoin="round" color="#000"><path stroke="#3B75EA" d="M80.5 22.51h29.9M28 157.13l.36-.12.36-.12.37-.12.36-.11.36-.12.36-.11.36-.11.37-.12.36-.11.36-.11.36-.11.37-.11.36-.11.36-.12.36-.12.36-.12.37-.11.36-.12.36-.12.36-.12.36-.12.37-.12.36-.12.36-.12.36-.13.36-.13.37-.14.36-.13.36-.13.36-.12.36-.14.37-.13.36-.13.36-.13.36-.13.37-.14.36-.13.36-.12.36-.12.36-.11.37-.12.36-.12.36-.12.36-.12.36-.11.37-.12.36-.12.36-.11.36-.12.36-.12.37-.12.36-.12.36-.12.36-.12.37-.11.36-.12.36-.11.36-.11.36-.12.37-.11.36-.11.36-.11.36-.11.36-.11.37-.11.36-.11.36-.11.36-.11.36-.1.37-.1.36-.11.36-.11.36-.12.37-.12.36-.12.36-.12.36-.11.36-.11.37-.11.36-.11.36-.11.36-.11.36-.11.37-.11.36-.11.36-.12.36-.12.36-.12.37-.13.36-.12.36-.11.36-.12.36-.11.37-.1.36-.1.36-.1.36-.1.37-.1.36-.1.36-.11.36-.1.36-.1.37-.1.36-.09.36-.1.36-.1.36-.09.37-.09.36-.1.36-.09.36-.09.36-.1.37-.09.36-.09.36-.09.36-.09.37-.1.36-.09.36-.09.36-.1.36-.09.37-.1.36-.09.36-.1.36-.09.36-.1.37-.09.36-.11.36-.11.36-.1.36-.11.37-.1.36-.11.36-.1.36-.11.36-.11.37-.1.36-.11.36-.1.36-.1.37-.11.36-.1.36-.1.36-.1.36-.1.37-.11.36-.1.36-.1.36-.1.36-.11.37-.1.36-.1.36-.1.36-.1.36-.11.37-.1.36-.11.36-.1.36-.1.37-.1.36-.11.36-.1.36-.11.36-.1.37-.11.36-.1.36-.1.36-.11.36-.11.37-.11.36-.12.36-.11.36-.12.36-.12.37-.11.36-.12.36-.11.36-.12.36-.12.37-.11.36-.11.36-.11.36-.12.37-.11.36-.11.36-.11.36-.11.36-.11.37-.1.36-.11.36-.1.36-.11.36-.1.37-.11.36-.1.36-.11.36-.1.36-.1.37-.1.36-.1.36-.1.36-.1.37-.09.36-.1.36-.09.36-.1.36-.09.37-.1.36-.1.36-.09.36-.1.36-.11.37-.1.36-.1.36-.1.36-.1.36-.1.37-.1.36-.1.36-.1.36-.1.37-.1.36-.1.36-.1.36-.11.36-.1.37-.1.36-.11.36-.1.36-.1.36-.1.37-.1.36-.1.36-.1.36-.11.36-.1.37-.1.36-.1.36-.11.36-.1.36-.1.37-.1.36-.1.36-.11.36-.12.37-.11.36-.11.36-.11.36-.11.36-.11.37-.11.36-.11.36-.11.36-.12.36-.13.37-.12.36-.11.36-.11.36-.12.36-.12.37-.12.36-.12.36-.12.36-.1.37-.1.36-.1.36-.11.36-.12.36-.11.37-.12.36-.11.36-.11.36-.11.36-.1.37-.12.36-.11.36-.12.36-.11.36-.12.37-.12.36-.11.36-.12.36-.12.36-.13.37-.12.36-.11.36-.12.36-.11.37-.12.36-.13.36-.12.36-.13.36-.13.37-.12.36-.12.36-.12.36-.11.36-.12.37-.11.36-.11.36-.11.36-.1.36-.11.37-.12.36-.12.36-.11.36-.12.37-.11.36-.12.36-.11.36-.12.36-.11.37-.12.36-.11.36-.12.36-.11.36-.12.37-.11.36-.12.36-.11.36-.12.36-.11.37-.11.36-.11.36-.11.36-.11.36-.1.37-.1.36-.11.36-.1.36-.1.37-.11.36-.11.36-.1.36-.11.36-.1.37-.11.36-.1.36-.1.36-.11.36-.11.37-.11.36-.11.36-.12.36-.11.36-.12.37-.12.36-.12.36-.12.36-.11.37-.11.36-.1.36-.11.36-.11.36-.11.37-.11.36-.11.36-.11.36-.11.36-.1.37-.11.36-.11.36-.1.36-.11.36-.11.37-.11.36-.11.36-.1.36-.11.37-.11.36-.11.36-.11.36-.11.36-.11.37-.11.36-.11.36-.11.36-.12.36-.12.37-.11.36-.1.36-.1.36-.09.36-.1.37-.09.36-.09.36-.1.36-.09.36-.1.37-.09.36-.1.36-.1.36-.09.37-.1.36-.09.36-.1.36-.09.36-.09.37-.09.36-.09.36-.1.36-.1.36-.11.37-.11.36-.11.36-.11.36-.1.36-.1.37-.1.36-.1.36-.1.36-.1.37-.1.36-.1.36-.11.36-.1.36-.1.37-.1.36-.1.36-.1.36-.11.36-.1.37-.1.36-.11.36-.1.36-.1.36-.1.37-.11.36-.1.36-.1.36-.11.36-.1.37-.1.36-.1.36-.09.36-.1.37-.09.36-.1.36-.09.36-.09.36-.1.37-.09.36-.1.36-.09.36-.09.36-.1.37-.09.36-.1.36-.09.36-.09.36-.1.37-.09.36-.1.36-.09.36-.1.37-.09.36-.1.36-.09.36-.1.36-.1.37-.09.36-.1.36-.1.36-.1.36-.1.37-.1.36-.1.36-.1.36-.09.36-.1.37-.1.36-.1.36-.11.36-.1.37-.1.36-.11.36-.1.36-.1.36-.1.37-.1.36-.1.36-.11.36-.1.36-.11.37-.11.36-.11.36-.1.36-.11.36-.11.37-.11.36-.11.36-.12.36-.11.36-.12.37-.1.36-.1.36-.1.36-.11.37-.1.36-.1.36-.1.36-.1.36-.1.37-.12.36-.12.36-.13.36-.12.36-.13.37-.12.36-.13.36-.12.36-.13.36-.12.37-.12.36-.11.36-.12.36-.11.37-.12.36-.11.36-.12.36-.1.36-.12.37-.11.36-.11.36-.12.36-.1.36-.11.37-.11.36-.11.36-.12.36-.12.36-.12.37-.11.36-.1.36-.11.36-.11.36-.1.37-.12.36-.11.36-.12.36-.12.37-.12.36-.13.36-.12.36-.12.36-.12.37-.12.36-.12.36-.12.36-.12.36-.12.37-.13.36-.12.36-.12.36-.13.36-.12.37-.12.36-.13.36-.11.36-.12.37-.11.36-.1.36-.11.36-.11.36-.1.37-.11.36-.11.36-.1.36-.11.36-.1.37-.11.36-.11.36-.11.36-.12.36-.11.37-.11.36-.1.36-.1.36-.1.36-.1.37-.1.36-.09.36-.1.36-.1.37-.1.36-.1.36-.11.36-.13.36-.11.37-.12.36-.11.36-.12.36-.12.36-.11.37-.12.36-.11.36-.12.36-.11.36-.11.37-.1.36-.11.36-.11.36-.11.37-.11.36-.1.36-.11.36-.11.36-.11.37-.11.36-.1.36-.11.36-.11.36-.11.37-.1.36-.11.36-.11.36-.1.36-.11.37-.11.36-.1.36-.11.36-.11.37-.1.36-.1.36-.1.36-.1.36-.1.37-.1.36-.1.36-.11.36-.11.36-.11.37-.1.36-.1.36-.1.36-.11.36-.11.37-.1.36-.1.36-.1.36-.1.36-.1.37-.11.36-.1.36-.1.36-.11.37-.1.36-.11.36-.11.36-.11.36-.11.37-.1.36-.11.36-.1.36-.11.36-.11.37-.11.36-.1.36-.1.36-.11.36-.11.37-.12.36-.11.36-.12.36-.11.37-.11.36-.12.36-.11.36-.11.36-.11.37-.11.36-.11.36-.12.36-.12.36-.12.37-.12.36-.12.36-.12.36-.12.36-.12.37-.11.36-.12.36-.12.36-.12.36-.13.37-.13.36-.12.36-.12.36-.1.37-.11.36-.11.36-.11.36-.1.36-.11.37-.11.36-.11.36-.11.36-.11.36-.11.37-.11.36-.12.36-.12.36-.12.36-.13.37-.12.36-.11.36-.12.36-.12.37-.12.36-.12.36-.12.36-.1.36-.11.37-.1.36-.1.36-.11.36-.11.36-.11.37-.1.36-.11.36-.11.36-.11.36-.12.37-.11.36-.12.36-.12.36-.12.36-.11.37-.12.36-.12.36-.11.36-.12.37-.11.36-.12.36-.11.36-.12.36-.11.37-.12.36-.12.36-.11.36-.12.36-.12.37-.12.36-.12.36-.11.36-.12.36-.12.37-.12.36-.12.36-.11.36-.12.37-.11.36-.11.36-.12.36-.11.36-.13.37-.11.36-.11.36-.11.36-.11.36-.1.37-.11.36-.1.36-.1.36-.1.36-.1.37-.1.36-.1.36-.1.36-.11.37-.1.36-.11.36-.11.36-.1.36-.11.37-.11.36-.1.36-.1.36-.1.36-.1.37-.1.36-.1.36-.11.36-.1.36-.11.37-.11.36-.11.36-.11.36-.11.36-.11.37-.1.36-.1.36-.11.36-.1.37-.1.36-.1.36-.11.36-.1.36-.11.37-.1.36-.11.36-.1.36-.11.36-.1.37-.12.36-.1.36-.11.36-.11.36-.1.37-.1.36-.12.36-.11.36-.11.37-.11.36-.11.36-.12.36-.11.36-.11.37-.12.36-.11.36-.12.36-.12.36-.11.37-.11.36-.11.36-.11.36-.11.36-.12.37-.11.36-.11.36-.11.36-.11.36-.12.37-.11.36-.12.36-.11.36-.12.37-.12.36-.12.36-.11.36-.1.36-.11.37-.1.36-.1.36-.1.36-.11.36-.11.37-.11.36-.11.36-.1.36-.12.36-.11.37-.12.36-.11.36-.11.36-.12.37-.12.36-.11.36-.12.36-.12.36-.11.37-.12.36-.12.36-.12.36-.11.36-.11.37-.11.36-.1.36-.11.36-.11.36-.11.37-.11.36-.11.36-.1.36-.11.36-.1.37-.11.36-.1.36-.11.36-.11.37-.12.36-.12.36-.12.36-.11.36-.12.37-.11.36-.12.36-.12.36-.12.36-.12.37-.11.36-.12.36-.11.36-.11.36-.11.37-.11.36-.1.36-.11.36-.1.37-.1.36-.11.36-.1.36-.11.36-.11.37-.11.36-.11.36-.11.36-.12.36-.13.37-.13.36-.13.36-.12.36-.13.36-.13.37-.13.36-.13.36-.12.36-.12.37-.12.36-.11.36-.1.36-.11.36-.11.37-.11.36-.1.36-.11.36-.1.36-.1.37-.09.36-.1.36-.1.36-.11.36-.1.37-.11.36-.11.36-.11.36-.11.36-.11.37-.11.36-.11.36-.12.36-.11.37-.11.36-.1.36-.11.36-.1.36-.1.37-.11.36-.11.36-.11"/><use xlink:href="#2e56b__b" color="#3B75EA" transform="matrix(3.75 0 0 3.75 67.83 144.55)"/><use xlink:href="#2e56b__b" color="#3B75EA" transform="matrix(3.75 0 0 3.75 95.45 22.51)"/></g><text stroke-linecap="round" stroke-linejoin="round" color="#000" font-family="KaTeX_Main" font-size="8" transform="translate(241.1 10.11)"><tspan>Randomized</tspan></text><g fill="none" stroke="currentColor" stroke-linecap="round" stroke-linejoin="round" color="#000"><path stroke="#FFAB00" d="M205.6 7.51h29.9M28 158.47l.36-.09.36-.08.37-.08.36-.09.36-.08.36-.08.36-.08.37-.08.36-.08.36-.08.36-.08.37-.08.36-.08.36-.08.36-.08.36-.09.37-.08.36-.08.36-.08.36-.08.36-.08.37-.08.36-.08.36-.08.36-.08.36-.09.37-.08.36-.08.36-.08.36-.08.36-.09.37-.08.36-.08.36-.09.36-.08.37-.08.36-.08.36-.08.36-.08.36-.08.37-.08.36-.08.36-.08.36-.08.36-.08.37-.07.36-.08.36-.08.36-.09.36-.08.37-.08.36-.08.36-.07.36-.08.37-.08.36-.08.36-.07.36-.08.36-.08.37-.08.36-.08.36-.07.36-.08.36-.08.37-.08.36-.08.36-.08.36-.08.36-.07.37-.08.36-.08.36-.08.36-.08.37-.07.36-.08.36-.08.36-.07.36-.08.37-.08.36-.08.36-.08.36-.08.36-.08.37-.08.36-.08.36-.08.36-.08.36-.08.37-.08.36-.09.36-.08.36-.09.36-.08.37-.09.36-.08.36-.09.36-.08.37-.09.36-.08.36-.09.36-.09.36-.08.37-.09.36-.08.36-.09.36-.08.36-.09.37-.08.36-.09.36-.08.36-.08.36-.09.37-.08.36-.08.36-.08.36-.08.37-.08.36-.07.36-.08.36-.08.36-.08.37-.08.36-.08.36-.08.36-.08.36-.08.37-.08.36-.08.36-.08.36-.08.36-.08.37-.08.36-.09.36-.08.36-.08.36-.08.37-.08.36-.08.36-.09.36-.08.37-.09.36-.08.36-.09.36-.08.36-.09.37-.08.36-.08.36-.08.36-.08.36-.08.37-.08.36-.07.36-.08.36-.08.36-.08.37-.08.36-.08.36-.08.36-.08.37-.08.36-.08.36-.08.36-.08.36-.08.37-.08.36-.08.36-.08.36-.08.36-.07.37-.08.36-.08.36-.08.36-.08.36-.08.37-.07.36-.08.36-.08.36-.08.36-.07.37-.08.36-.08.36-.08.36-.08.37-.08.36-.08.36-.08.36-.08.36-.08.37-.08.36-.08.36-.07.36-.08.36-.08.37-.08.36-.08.36-.08.36-.08.36-.08.37-.08.36-.09.36-.08.36-.08.37-.08.36-.08.36-.09.36-.08.36-.08.37-.08.36-.08.36-.09.36-.08.36-.08.37-.08.36-.09.36-.08.36-.08.36-.08.37-.08.36-.09.36-.08.36-.08.37-.09.36-.08.36-.08.36-.08.36-.09.37-.08.36-.08.36-.08.36-.08.36-.08.37-.08.36-.09.36-.08.36-.08.36-.08.37-.08.36-.08.36-.08.36-.08.36-.08.37-.09.36-.08.36-.08.36-.09.37-.08.36-.08.36-.09.36-.08.36-.08.37-.08.36-.08.36-.08.36-.08.36-.08.37-.09.36-.08.36-.08.36-.09.36-.08.37-.08.36-.09.36-.08.36-.09.37-.08.36-.09.36-.08.36-.08.36-.08.37-.09.36-.08.36-.09.36-.08.36-.09.37-.08.36-.08.36-.08.36-.08.36-.08.37-.09.36-.08.36-.09.36-.08.36-.08.37-.08.36-.09.36-.08.36-.08.37-.08.36-.09.36-.08.36-.08.36-.08.37-.08.36-.08.36-.08.36-.08.36-.08.37-.08.36-.08.36-.08.36-.08.36-.08.37-.08.36-.08.36-.08.36-.08.37-.07.36-.08.36-.08.36-.08.36-.08.37-.08.36-.07.36-.09.36-.08.36-.08.37-.07.36-.08.36-.08.36-.08.36-.08.37-.08.36-.08.36-.07.36-.08.36-.08.37-.07.36-.08.36-.08.36-.08.37-.07.36-.08.36-.08.36-.08.36-.08.37-.08.36-.08.36-.08.36-.08.36-.07.37-.08.36-.08.36-.08.36-.08.36-.07.37-.08.36-.08.36-.08.36-.08.37-.08.36-.08.36-.08.36-.08.36-.08.37-.07.36-.08.36-.08.36-.08.36-.08.37-.08.36-.08.36-.08.36-.08.36-.09.37-.08.36-.08.36-.08.36-.08.37-.09.36-.08.36-.08.36-.09.36-.08.37-.09.36-.08.36-.08.36-.08.36-.08.37-.08.36-.08.36-.08.36-.08.36-.08.37-.08.36-.08.36-.08.36-.08.36-.08.37-.07.36-.08.36-.08.36-.08.37-.08.36-.07.36-.08.36-.08.36-.08.37-.07.36-.08.36-.08.36-.07.36-.08.37-.08.36-.07.36-.08.36-.08.36-.08.37-.08.36-.08.36-.08.36-.08.37-.08.36-.08.36-.08.36-.08.36-.07.37-.08.36-.08.36-.08.36-.08.36-.08.37-.08.36-.08.36-.08.36-.08.36-.08.37-.08.36-.08.36-.08.36-.08.36-.08.37-.08.36-.08.36-.07.36-.08.37-.08.36-.07.36-.08.36-.08.36-.08.37-.08.36-.08.36-.08.36-.08.36-.08.37-.07.36-.08.36-.08.36-.08.36-.08.37-.09.36-.08.36-.08.36-.08.37-.09.36-.08.36-.09.36-.09.36-.08.37-.09.36-.09.36-.08.36-.09.36-.08.37-.09.36-.08.36-.09.36-.09.36-.08.37-.09.36-.08.36-.08.36-.09.37-.08.36-.08.36-.09.36-.08.36-.09.37-.08.36-.09.36-.08.36-.08.36-.08.37-.08.36-.08.36-.08.36-.08.36-.08.37-.08.36-.08.36-.08.36-.08.36-.07.37-.08.36-.08.36-.08.36-.08.37-.08.36-.09.36-.08.36-.08.36-.08.37-.08.36-.09.36-.08.36-.08.36-.08.37-.09.36-.08.36-.09.36-.08.36-.09.37-.08.36-.09.36-.08.36-.08.37-.08.36-.09.36-.08.36-.09.36-.07.37-.08.36-.08.36-.08.36-.08.36-.08.37-.08.36-.08.36-.08.36-.09.36-.07.37-.08.36-.08.36-.08.36-.07.36-.08.37-.08.36-.08.36-.08.36-.09.37-.08.36-.08.36-.08.36-.08.36-.08.37-.08.36-.07.36-.08.36-.08.36-.08.37-.08.36-.08.36-.08.36-.07.36-.08.37-.08.36-.08.36-.08.36-.08.37-.08.36-.08.36-.08.36-.08.36-.08.37-.08.36-.08.36-.08.36-.08.36-.08.37-.08.36-.08.36-.07.36-.08.36-.08.37-.08.36-.07.36-.08.36-.08.36-.08.37-.08.36-.08.36-.08.36-.08.37-.07.36-.08.36-.08.36-.08.36-.08.37-.08.36-.08.36-.08.36-.08.36-.08.37-.07.36-.08.36-.08.36-.08.36-.08.37-.07.36-.08.36-.08.36-.08.37-.07.36-.08.36-.08.36-.07.36-.08.37-.08.36-.08.36-.07.36-.08.36-.08.37-.08.36-.08.36-.07.36-.08.36-.08.37-.08.36-.08.36-.08.36-.08.37-.08.36-.08.36-.08.36-.08.36-.08.37-.08.36-.08.36-.08.36-.08.36-.07.37-.08.36-.08.36-.08.36-.08.36-.08.37-.08.36-.08.36-.08.36-.07.36-.08.37-.08.36-.08.36-.08.36-.07.37-.08.36-.08.36-.08.36-.07.36-.08.37-.08.36-.07.36-.08.36-.08.36-.08.37-.08.36-.08.36-.08.36-.08.36-.08.37-.08.36-.08.36-.08.36-.07.37-.08.36-.08.36-.08.36-.08.36-.08.37-.08.36-.08.36-.07.36-.08.36-.08.37-.08.36-.08.36-.07.36-.08.36-.08.37-.08.36-.08.36-.07.36-.08.36-.08.37-.08.36-.08.36-.07.36-.08.37-.08.36-.08.36-.08.36-.07.36-.08.37-.08.36-.08.36-.08.36-.08.36-.08.37-.08.36-.08.36-.08.36-.08.36-.08.37-.08.36-.08.36-.08.36-.08.37-.08.36-.07.36-.08.36-.08.36-.08.37-.08.36-.07.36-.08.36-.08.36-.08.37-.09.36-.07.36-.09.36-.08.36-.08.37-.08.36-.08.36-.07.36-.08.36-.08.37-.08.36-.07.36-.08.36-.08.37-.07.36-.08.36-.08.36-.07.36-.08.37-.08.36-.08.36-.08.36-.08.36-.08.37-.08.36-.08.36-.08.36-.08.36-.08.37-.08.36-.08.36-.08.36-.08.37-.08.36-.08.36-.08.36-.08.36-.09.37-.08.36-.08.36-.08.36-.08.36-.08.37-.08.36-.09.36-.08.36-.08.36-.09.37-.08.36-.09.36-.08.36-.09.37-.08.36-.09.36-.08.36-.09.36-.08.37-.08.36-.09.36-.09.36-.08.36-.09.37-.09.36-.09.36-.08.36-.09.36-.08.37-.09.36-.08.36-.08.36-.09.36-.08.37-.09.36-.08.36-.09.36-.08.37-.09.36-.09.36-.08.36-.09.36-.08.37-.08.36-.09.36-.08.36-.08.36-.09.37-.08.36-.09.36-.08.36-.08.36-.08.37-.08.36-.08.36-.08.36-.08.37-.07.36-.08.36-.08.36-.08.36-.08.37-.09.36-.08.36-.09.36-.08.36-.09.37-.09.36-.09.36-.09.36-.09.36-.09.37-.09.36-.08.36-.08.36-.09.36-.08.37-.08.36-.08.36-.08.36-.09.37-.08.36-.09.36-.08.36-.09.36-.09.37-.09.36-.08.36-.09.36-.09.36-.08.37-.09.36-.08.36-.09.36-.08.36-.09.37-.09.36-.08.36-.09.36-.08.37-.09.36-.09.36-.08.36-.09.36-.08.37-.09.36-.09.36-.09.36-.08.36-.08.37-.08.36-.09.36-.08.36-.08.36-.08.37-.08.36-.08.36-.08.36-.08.36-.08.37-.08.36-.08.36-.08.36-.08.37-.08.36-.08.36-.08.36-.08.36-.08.37-.08.36-.08.36-.08.36-.08.36-.08.37-.08.36-.08.36-.08.36-.09.36-.08.37-.08.36-.08.36-.08.36-.08.37-.08.36-.08.36-.08.36-.08.36-.07.37-.08.36-.08.36-.07.36-.08.36-.08.37-.07.36-.08.36-.08.36-.08.36-.07.37-.08.36-.08.36-.08.36-.08.37-.08.36-.08.36-.08.36-.08.36-.08.37-.08.36-.08.36-.09.36-.08.36-.08.37-.08.36-.08.36-.08.36-.08.36-.08.37-.08.36-.08.36-.08.36-.08.36-.07.37-.08.36-.08.36-.08.36-.08.37-.08.36-.08.36-.08.36-.07.36-.08.37-.08.36-.08.36-.08"/><use xlink:href="#2e56b__c" color="#FFAB00" transform="matrix(3.75 0 0 3.75 125.4 136.68)"/><use xlink:href="#2e56b__c" color="#FFAB00" transform="matrix(3.75 0 0 3.75 220.55 7.51)"/></g><text stroke-linecap="round" stroke-linejoin="round" color="#000" font-family="KaTeX_Main" font-size="8" transform="translate(241.1 25.11)"><tspan>Zip</tspan></text><g fill="none" stroke="currentColor" stroke-linecap="round" stroke-linejoin="round" color="#000"><path stroke="#F44336" d="M205.6 22.51h29.9M28 158.09l.36-.08.36-.09.37-.09.36-.09.36-.09.36-.09.36-.09.37-.09.36-.08.36-.09.36-.09.37-.09.36-.08.36-.09.36-.09.36-.1.37-.09.36-.08.36-.09.36-.08.36-.09.37-.08.36-.1.36-.09.36-.09.36-.09.37-.09.36-.09.36-.09.36-.09.36-.08.37-.09.36-.09.36-.08.36-.08.37-.09.36-.08.36-.09.36-.09.36-.08.37-.09.36-.09.36-.09.36-.09.36-.09.37-.09.36-.09.36-.09.36-.09.36-.08.37-.09.36-.09.36-.08.36-.09.37-.09.36-.08.36-.09.36-.08.36-.09.37-.08.36-.09.36-.08.36-.09.36-.08.37-.09.36-.09.36-.08.36-.09.36-.09.37-.09.36-.09.36-.1.36-.08.37-.09.36-.09.36-.09.36-.09.36-.09.37-.09.36-.09.36-.08.36-.09.36-.09.37-.09.36-.09.36-.08.36-.09.36-.09.37-.09.36-.08.36-.09.36-.09.36-.09.37-.09.36-.08.36-.09.36-.08.37-.09.36-.09.36-.09.36-.09.36-.09.37-.09.36-.08.36-.09.36-.08.36-.09.37-.09.36-.08.36-.09.36-.09.36-.09.37-.08.36-.09.36-.09.36-.08.37-.09.36-.09.36-.09.36-.09.36-.09.37-.09.36-.1.36-.09.36-.09.36-.1.37-.09.36-.09.36-.08.36-.09.36-.08.37-.09.36-.08.36-.09.36-.08.36-.08.37-.08.36-.08.36-.09.36-.08.37-.08.36-.08.36-.08.36-.08.36-.09.37-.08.36-.08.36-.09.36-.08.36-.09.37-.08.36-.09.36-.09.36-.08.36-.08.37-.09.36-.08.36-.09.36-.09.37-.08.36-.09.36-.09.36-.08.36-.09.37-.09.36-.09.36-.09.36-.09.36-.08.37-.09.36-.08.36-.08.36-.09.36-.08.37-.09.36-.08.36-.09.36-.08.36-.08.37-.09.36-.08.36-.09.36-.08.37-.09.36-.08.36-.09.36-.08.36-.09.37-.08.36-.09.36-.09.36-.09.36-.08.37-.09.36-.08.36-.08.36-.09.36-.08.37-.09.36-.08.36-.09.36-.08.37-.09.36-.08.36-.08.36-.09.36-.08.37-.08.36-.09.36-.08.36-.09.36-.08.37-.09.36-.08.36-.09.36-.08.36-.09.37-.08.36-.09.36-.08.36-.08.37-.09.36-.08.36-.09.36-.08.36-.09.37-.08.36-.09.36-.08.36-.09.36-.08.37-.09.36-.08.36-.09.36-.08.36-.09.37-.08.36-.09.36-.08.36-.09.36-.08.37-.09.36-.08.36-.08.36-.09.37-.08.36-.09.36-.09.36-.08.36-.09.37-.09.36-.09.36-.08.36-.09.36-.08.37-.09.36-.09.36-.08.36-.09.36-.09.37-.08.36-.09.36-.08.36-.09.37-.08.36-.09.36-.08.36-.09.36-.08.37-.09.36-.08.36-.09.36-.09.36-.09.37-.09.36-.09.36-.09.36-.08.36-.09.37-.08.36-.09.36-.09.36-.09.36-.08.37-.09.36-.09.36-.09.36-.08.37-.09.36-.09.36-.08.36-.09.36-.08.37-.09.36-.08.36-.09.36-.08.36-.08.37-.09.36-.08.36-.08.36-.09.36-.08.37-.08.36-.09.36-.08.36-.09.37-.08.36-.09.36-.08.36-.09.36-.08.37-.09.36-.08.36-.08.36-.09.36-.08.37-.08.36-.09.36-.08.36-.08.36-.09.37-.08.36-.09.36-.08.36-.09.36-.08.37-.09.36-.08.36-.09.36-.08.37-.09.36-.08.36-.09.36-.09.36-.09.37-.09.36-.09.36-.08.36-.09.36-.08.37-.08.36-.09.36-.08.36-.08.36-.08.37-.08.36-.09.36-.08.36-.08.37-.08.36-.09.36-.08.36-.09.36-.08.37-.09.36-.08.36-.09.36-.08.36-.09.37-.08.36-.08.36-.09.36-.08.36-.09.37-.08.36-.08.36-.09.36-.08.37-.08.36-.08.36-.09.36-.08.36-.09.37-.08.36-.09.36-.08.36-.09.36-.08.37-.09.36-.08.36-.08.36-.09.36-.08.37-.09.36-.08.36-.08.36-.09.36-.08.37-.08.36-.09.36-.08.36-.08.37-.09.36-.08.36-.08.36-.09.36-.08.37-.08.36-.09.36-.08.36-.08.36-.09.37-.08.36-.08.36-.09.36-.08.36-.08.37-.09.36-.09.36-.08.36-.09.37-.08.36-.09.36-.08.36-.09.36-.08.37-.08.36-.09.36-.08.36-.09.36-.08.37-.09.36-.09.36-.08.36-.09.36-.09.37-.09.36-.09.36-.09.36-.09.36-.09.37-.08.36-.09.36-.09.36-.09.37-.08.36-.09.36-.08.36-.09.36-.08.37-.09.36-.08.36-.09.36-.08.36-.08.37-.09.36-.08.36-.08.36-.09.36-.08.37-.08.36-.09.36-.08.36-.08.37-.08.36-.09.36-.08.36-.08.36-.09.37-.08.36-.08.36-.09.36-.08.36-.08.37-.09.36-.08.36-.09.36-.08.36-.09.37-.08.36-.09.36-.09.36-.09.37-.08.36-.09.36-.09.36-.08.36-.09.37-.08.36-.09.36-.08.36-.09.36-.08.37-.08.36-.08.36-.09.36-.08.36-.08.37-.09.36-.08.36-.08.36-.09.36-.08.37-.08.36-.08.36-.08.36-.08.37-.08.36-.09.36-.08.36-.08.36-.08.37-.09.36-.09.36-.08.36-.08.36-.09.37-.08.36-.09.36-.09.36-.08.36-.09.37-.09.36-.09.36-.09.36-.09.37-.09.36-.09.36-.09.36-.09.36-.09.37-.09.36-.09.36-.08.36-.09.36-.09.37-.09.36-.09.36-.08.36-.09.36-.09.37-.09.36-.09.36-.08.36-.09.36-.08.37-.09.36-.09.36-.08.36-.09.37-.09.36-.08.36-.09.36-.09.36-.09.37-.09.36-.09.36-.09.36-.08.36-.09.37-.09.36-.09.36-.08.36-.09.36-.09.37-.09.36-.08.36-.08.36-.09.37-.08.36-.08.36-.09.36-.08.36-.08.37-.08.36-.09.36-.08.36-.08.36-.09.37-.08.36-.08.36-.08.36-.08.36-.08.37-.09.36-.08.36-.08.36-.08.36-.09.37-.08.36-.08.36-.09.36-.08.37-.08.36-.09.36-.08.36-.09.36-.08.37-.09.36-.08.36-.08.36-.09.36-.08.37-.09.36-.09.36-.09.36-.09.36-.09.37-.09.36-.08.36-.09.36-.09.37-.08.36-.09.36-.08.36-.09.36-.09.37-.09.36-.09.36-.08.36-.09.36-.09.37-.08.36-.09.36-.09.36-.09.36-.09.37-.09.36-.08.36-.08.36-.09.37-.08.36-.08.36-.09.36-.08.36-.08.37-.08.36-.09.36-.08.36-.08.36-.09.37-.08.36-.09.36-.08.36-.09.36-.08.37-.09.36-.08.36-.09.36-.08.36-.09.37-.08.36-.08.36-.09.36-.08.37-.08.36-.09.36-.08.36-.09.36-.08.37-.09.36-.09.36-.08.36-.09.36-.08.37-.09.36-.09.36-.08.36-.08.36-.09.37-.08.36-.08.36-.09.36-.08.37-.08.36-.08.36-.08.36-.09.36-.08.37-.08.36-.08.36-.08.36-.09.36-.08.37-.08.36-.09.36-.09.36-.08.36-.08.37-.09.36-.08.36-.09.36-.08.36-.08.37-.09.36-.08.36-.09.36-.08.37-.08.36-.09.36-.08.36-.09.36-.08.37-.08.36-.09.36-.08.36-.09.36-.08.37-.09.36-.08.36-.08.36-.08.36-.09.37-.08.36-.08.36-.09.36-.08.37-.09.36-.08.36-.08.36-.09.36-.09.37-.08.36-.09.36-.08.36-.09.36-.08.37-.09.36-.09.36-.08.36-.09.36-.08.37-.09.36-.08.36-.09.36-.08.36-.09.37-.08.36-.09.36-.08.36-.09.37-.09.36-.08.36-.08.36-.08.36-.08.37-.09.36-.08.36-.08.36-.09.36-.08.37-.08.36-.09.36-.08.36-.08.36-.09.37-.08.36-.08.36-.08.36-.09.37-.08.36-.09.36-.09.36-.09.36-.09.37-.1.36-.09.36-.1.36-.1.36-.09.37-.1.36-.1.36-.09.36-.09.36-.09.37-.09.36-.1.36-.09.36-.09.37-.09.36-.09.36-.1.36-.09.36-.1.37-.1.36-.09.36-.09.36-.09.36-.1.37-.09.36-.09.36-.09.36-.09.36-.09.37-.09.36-.09.36-.09.36-.09.36-.09.37-.09.36-.09.36-.09.36-.09.37-.09.36-.09.36-.09.36-.09.36-.08.37-.09.36-.09.36-.09.36-.08.36-.08.37-.09.36-.08.36-.08.36-.09.36-.08.37-.08.36-.08.36-.09.36-.09.37-.08.36-.09.36-.09.36-.09.36-.08.37-.09.36-.09.36-.09.36-.08.36-.09.37-.08.36-.09.36-.08.36-.09.36-.08.37-.09.36-.09.36-.08.36-.09.36-.09.37-.08.36-.09.36-.09.36-.08.37-.09.36-.08.36-.08.36-.08.36-.09.37-.09.36-.08.36-.09.36-.08.36-.08.37-.09.36-.08.36-.08.36-.09.36-.08.37-.09.36-.09.36-.08.36-.09.37-.08.36-.08.36-.09.36-.08.36-.09.37-.08.36-.08.36-.09.36-.08.36-.09.37-.09.36-.09.36-.08.36-.09.36-.08.37-.08.36-.09.36-.08.36-.08.36-.08.37-.08.36-.08.36-.08.36-.08.37-.09.36-.08.36-.08.36-.08.36-.09.37-.08.36-.08.36-.09.36-.08.36-.08.37-.08.36-.09.36-.08.36-.09.36-.08.37-.08.36-.09.36-.08.36-.08.37-.09.36-.08.36-.09.36-.08.36-.08.37-.09.36-.09.36-.08.36-.09.36-.08.37-.08.36-.09.36-.08.36-.09.36-.08.37-.08.36-.08.36-.09.36-.08.37-.09.36-.08.36-.09.36-.08.36-.09.37-.08.36-.09.36-.08.36-.08.36-.09.37-.08.36-.08.36-.09.36-.08.36-.08.37-.08.36-.08.36-.09.36-.08.36-.08.37-.08.36-.08.36-.09.36-.08.37-.09.36-.09.36-.09.36-.08.36-.09.37-.09.36-.08.36-.09"/><use xlink:href="#2e56b__d" color="#F44336" transform="matrix(3.75 0 0 3.75 182.98 121.37)"/><use xlink:href="#2e56b__d" color="#F44336" transform="matrix(3.75 0 0 3.75 220.55 22.51)"/></g><path fill="none" d="M28 45.01V162.5M371.99 45.01H28" color="#000"/></svg>