<svg xmlns="http://www.w3.org/2000/svg" xmlns:xlink="http://www.w3.org/1999/xlink" viewBox="0 0 400 200"><path fill="none" d="M0 0h400v200H0z"/><defs><path id="cf8ab__b" stroke="currentColor" stroke-width=".267" d="M-1 0h2M0-1v2"/><path id="cf8ab__c" stroke="currentColor" stroke-width=".267" d="m-1-1 2 2m0-2-2 2"/><path id="cf8ab__d" stroke="currentColor" stroke-width=".267" d="M-1 0h2M0-1v2m-1-2 2 2m-2 0 2-2"/><path id="cf8ab__a" stroke="currentColor" stroke-width=".267" d="M0 1.33 1.265.411.782-1.067l-1.564-.009-.483 1.487z"/></defs><path fill="none" stroke="#CCC" stroke-linecap="round" stroke-linejoin="round" stroke-width=".1" d="M46.1 162.5V45.01" class="cf8ab__gridline" color="#000"/><g fill="none" stroke-linecap="round" stroke-linejoin="round" stroke-width="0" color="#000"><path d="M46.1 162.5V155m0-109.99v7.5"/><text fill="#000" font-family="KaTeX_Main" font-size="8" text-anchor="middle" transform="translate(46.1 172.6)"><tspan> 1</tspan></text></g><path fill="none" stroke="#CCC" stroke-linecap="round" stroke-linejoin="round" stroke-width=".1" d="M82.31 162.5V45.01" class="cf8ab__gridline" color="#000"/><g fill="none" stroke-linecap="round" stroke-linejoin="round" stroke-width="0" color="#000"><path d="M82.31 162.5V155m0-109.99v7.5"/><text fill="#000" font-family="KaTeX_Main" font-size="8" text-anchor="middle" transform="translate(82.31 172.6)"><tspan> 2</tspan></text></g><path fill="none" stroke="#CCC" stroke-linecap="round" stroke-linejoin="round" stroke-width=".1" d="M118.52 162.5V45.01" class="cf8ab__gridline" color="#000"/><g fill="none" stroke-linecap="round" stroke-linejoin="round" stroke-width="0" color="#000"><path d="M118.52 162.5V155m0-109.99v7.5"/><text fill="#000" font-family="KaTeX_Main" font-size="8" text-anchor="middle" transform="translate(118.52 172.6)"><tspan> 3</tspan></text></g><path fill="none" stroke="#CCC" stroke-linecap="round" stroke-linejoin="round" stroke-width=".1" d="M154.73 162.5V45.01" class="cf8ab__gridline" color="#000"/><g fill="none" stroke-linecap="round" stroke-linejoin="round" stroke-width="0" color="#000"><path d="M154.73 162.5V155m0-109.99v7.5"/><text fill="#000" font-family="KaTeX_Main" font-size="8" text-anchor="middle" transform="translate(154.73 172.6)"><tspan> 4</tspan></text></g><path fill="none" stroke="#CCC" stroke-linecap="round" stroke-linejoin="round" stroke-width=".1" d="M190.94 162.5V45.01" class="cf8ab__gridline" color="#000"/><g fill="none" stroke-linecap="round" stroke-linejoin="round" stroke-width="0" color="#000"><path d="M190.94 162.5V155m0-109.99v7.5"/><text fill="#000" font-family="KaTeX_Main" font-size="8" text-anchor="middle" transform="translate(190.94 172.6)"><tspan> 5</tspan></text></g><path fill="none" stroke="#CCC" stroke-linecap="round" stroke-linejoin="round" stroke-width=".1" d="M227.15 162.5V45.01" class="cf8ab__gridline" color="#000"/><g fill="none" stroke-linecap="round" stroke-linejoin="round" stroke-width="0" color="#000"><path d="M227.15 162.5V155m0-109.99v7.5"/><text fill="#000" font-family="KaTeX_Main" font-size="8" text-anchor="middle" transform="translate(227.15 172.6)"><tspan> 6</tspan></text></g><path fill="none" stroke="#CCC" stroke-linecap="round" stroke-linejoin="round" stroke-width=".1" d="M263.36 162.5V45.01" class="cf8ab__gridline" color="#000"/><g fill="none" stroke-linecap="round" stroke-linejoin="round" stroke-width="0" color="#000"><path d="M263.36 162.5V155m0-109.99v7.5"/><text fill="#000" font-family="KaTeX_Main" font-size="8" text-anchor="middle" transform="translate(263.36 172.6)"><tspan> 7</tspan></text></g><path fill="none" stroke="#CCC" stroke-linecap="round" stroke-linejoin="round" stroke-width=".1" d="M299.57 162.5V45.01" class="cf8ab__gridline" color="#000"/><g fill="none" stroke-linecap="round" stroke-linejoin="round" stroke-width="0" color="#000"><path d="M299.57 162.5V155m0-109.99v7.5"/><text fill="#000" font-family="KaTeX_Main" font-size="8" text-anchor="middle" transform="translate(299.57 172.6)"><tspan> 8</tspan></text></g><path fill="none" stroke="#CCC" stroke-linecap="round" stroke-linejoin="round" stroke-width=".1" d="M335.78 162.5V45.01" class="cf8ab__gridline" color="#000"/><g fill="none" stroke-linecap="round" stroke-linejoin="round" stroke-width="0" color="#000"><path d="M335.78 162.5V155m0-109.99v7.5"/><text fill="#000" font-family="KaTeX_Main" font-size="8" text-anchor="middle" transform="translate(335.78 172.6)"><tspan> 9</tspan></text></g><path fill="none" stroke="#CCC" stroke-linecap="round" stroke-linejoin="round" stroke-width=".1" d="M371.99 162.5V45.01" class="cf8ab__gridline" color="#000"/><g fill="none" stroke-linecap="round" stroke-linejoin="round" stroke-width="0" color="#000"><path d="M371.99 162.5V155m0-109.99v7.5"/><text fill="#000" font-family="KaTeX_Main" font-size="8" text-anchor="middle" transform="translate(371.99 172.6)"><tspan> 10</tspan></text></g><g fill="none" stroke-linecap="round" stroke-linejoin="round" stroke-width="0" color="#000"><path d="M371.99 162.5h-7.5"/><text fill="#000" font-family="KaTeX_Main" font-size="8" transform="translate(378.99 165.1)"><tspan>1</tspan></text></g><g fill="none" stroke-linecap="round" stroke-linejoin="round" stroke-width="0" color="#000"><path d="M371.99 45.01h-7.5"/><text fill="#000" font-family="KaTeX_Main" font-size="8" transform="translate(378.99 47.61)"><tspan>2</tspan></text></g><path fill="none" d="M28 45.01V162.5M371.99 45.01H28" color="#000"/><text stroke-linecap="round" stroke-linejoin="round" stroke-width="0" color="#000" font-family="KaTeX_Main" font-size="10" text-anchor="middle" transform="rotate(-90 57.63 46.13)"><tspan>log</tspan><tspan dy="3" font-size="8">2</tspan><tspan dy="-3">(</tspan><tspan font-weight="bold">Maximum Path Length </tspan><tspan> / log</tspan><tspan dy="3" font-size="8">2</tspan><tspan dy="-3">(Size))</tspan></text><text stroke-linecap="round" stroke-linejoin="round" stroke-width="0" color="#000" font-family="KaTeX_Main" font-size="10" text-anchor="middle" transform="translate(199.99 195.75)"><tspan>Operations / 10</tspan><tspan dy="-5" font-size="8">6</tspan></text><text stroke-linecap="round" stroke-linejoin="round" color="#000" font-family="KaTeX_Main" font-size="8" transform="translate(116 10.11)"><tspan>TreapTopDown</tspan></text><g fill="none" stroke="currentColor" stroke-linecap="round" stroke-linejoin="round" color="#000"><path stroke="#00C853" stroke-dasharray="4.5,2.0,0.5,2.0,0.5,2.0" d="M80.5 7.51h29.9M28 135.31h.72l.37-8.48h.36l.36 4.19.36 4.29.36-4.29.37 4.29.36-12.56.36-3.99h.36l.37 3.99.36 4.08.36 17.4.36-4.52.36-16.96.37 30.9.36-9.42.36-8.92.36-16.55.36-3.9.37 16.16.36 8.69h.72l.36-4.4.37-4.29.36 4.29.36-8.48.36 8.48h.36l.37-4.29.36-12.26.36 12.26.36-19.97.37-3.73h.36l.36 3.73.36 15.78.36 4.19h.73l.36 8.69h.72l.37-4.4.36-4.29.36 4.29.36 4.4.36 4.52.37-8.92h.36l.36 4.4.36-8.69.37 4.29.36 8.92.36 9.42.36-9.42.36 4.64.37-9.16.36 13.94.36-9.42.36-4.52.36 4.52.37 9.42.36-13.94.36-8.69.36 4.29.36 8.92.37-4.52h.36l.36 4.52.36-13.21.37-8.27.36 21.48.36-17.4.36 8.48.36-4.29h.37l.36 13.21.36-4.52.36 4.52h1.09l.36-8.92h.36l.36-8.48.37 8.48.36 8.92.36-4.52h.36l.36-8.69.37 8.69h.36l.36-12.88.36 4.19.37 8.69.36 9.16.36-4.64.36-8.92.36 4.4h.73l.36 4.52h.36l.36-13.21.37 13.21.36 4.64.36-26.12.36-3.99.36 12.26.37-4.19.36 4.19.36-4.19H70l.37-4.08.36 8.27.36 4.29.36 4.4.36 4.52h.37l.36-8.92.36 4.4.36-4.4.36-4.29.37 8.69h.36l.36-4.4.36-4.29.36-4.19.37 12.88h.36l.36-4.4.36 8.92.36 4.64.37-9.16.36 4.52h.36l.36 4.64.37-13.56h.36l.36-4.29.36 8.69h.36l.37-4.4.36-8.48.36 12.88h1.09l.36 4.52.36-13.21h.36l.36 4.29.37-8.48h.36l.36-4.08.36-3.99.37-3.9.36-3.81.36 11.7h.72l.37-7.89.36 3.9.36 3.99.36-3.99.36 8.07.37-8.07h.36l.36 20.95.36-4.4.36 4.4.37-12.88.36 12.88h.36l.36-4.4.36 4.4h.37l.36-8.69h.72l.37-12.26.36-3.9.36 3.9.36 3.99.36-3.99.37 16.55.36-12.56h.36l.36 4.08.36 4.19.37 13.21.36-21.48h.36l.36 4.08.36 17.4.37 9.42.36-18.34.36 4.4.36 4.52h.37l.36-8.92.36 4.4.36-4.4.36-16.55.37-3.9.36 16.16.36-8.27.36 4.08h.36l.37-4.08.36 8.27h.36l.36 4.29.36-8.48.37-15.78h.36l.36 3.81.36 7.89.37 4.08.36 8.48.36-20.45h.36l.36 16.16.37 4.29.36-8.48.36 4.19h.36l.36 4.29.37 4.4h.36l.36 9.16.36-9.16.36-4.4.37-12.56.36 4.08h.36l.36 12.88h.36l.37-4.4h.36l.36 8.92.36-8.92.37 4.4.36 4.52.36-13.21.36 4.29.36-4.29h.37l.36 13.21.36-8.92h1.81l.36 4.4.36 4.52h.37l.36-13.21.36 13.21.36 4.64.37-9.16.36 9.16h.36l.36-9.16h.36l.37 9.16h.36l.36-4.64h.36l.36 4.64.37 9.69.36-4.91.36-13.94h.36l.36 4.52.37-17.4.36 17.4.36-17.4h.72l.37 4.19.36 8.69.36-8.69.36-16.16.37 3.9.36-3.9.36 3.9.36 8.07h.36l.37 8.48.36-8.48.36 8.48.36-4.29.36 4.29.37 4.4h.36l.36-12.88.36 17.4.36-8.92h.37l.36 13.56h.72l.37-4.64h.72l.36-21.48.36-11.7.37 33.18.36-8.92.36 8.92h.36l.36-4.52.37-12.88h.36l.36 8.48.36-8.48.36 4.19.37 4.29h.36l.36 4.4h.36l.36-4.4h.37l.36-4.29h.36l.36-4.19.37 4.19.36-4.19.36-4.08h.36l.36-3.99.37-7.71h.36l.36 7.71h.36l.36-3.9h.37l.36 7.89.36 8.27.36 4.29h.36l.37 4.4h.72l.36-16.96h.37l.36-3.99.36 3.99.36-3.99.36 3.99.37 4.08.36-4.08.36 8.27.36-4.19h.36l.37-4.08h.36l.36-3.99.36 8.07.36 4.19.37-4.19h.36l.36-8.07.36 16.55.37-20.45.36 7.89.36-3.99.36 20.95h.73l.36-4.4h.36l.36-4.29h.36l.37-4.19.36-8.07.36-15.08.36-10.49.36 3.43.37 30.21.36-8.07.36 12.26.36 4.29h.36l.37 13.56.36-22.04.36-4.08.36 4.08.37 8.48.36-4.29.36 13.21.36-8.92.36-8.48.37 12.88.36 13.94h.36l.36-4.78.36-4.64.37-4.52h.36l.36 4.52.36-8.92.36 4.4h.37l.36 4.52.36-4.52.36 4.52.37-4.52.36 4.52.36-8.92.36-4.29h.36l.37 4.29.36-4.29h.36l.36-12.26h.36l.37 20.95.36 4.52h2.17l.36-13.21h1.09l.36-4.19h.36l.37-15.78h.36l.36 7.71.36 12.26.36 13.21.37-4.52h.72l.36-8.69.36 4.29.37 4.4.36 4.52h.36l.36 4.64.36-4.64h.37l.36-4.52.36-4.4.36 4.4h.37l.36 9.16h.36l.36-4.64.36-8.92.37-8.48.36 8.48h.72l.36 4.4.37-4.4.36 4.4h.72l.36-4.4.37-4.29.36 4.29.36 8.92.36-4.52h.37l.36-8.69.36 13.21.36-8.92.36 4.4.37-4.4.36 4.4h1.81l.36 4.52h.36l.36-4.52.37 4.52.36-8.92.36 4.4.36-4.4h.36l.37-4.29.36-4.19.36-4.08.36 12.56.37 4.4.36-4.4.36-4.29.36 17.85h.36l.37-13.56.36 8.92.36 4.64.36-4.64.36 4.64h.37l.36-4.64.36-4.52.36 9.16.36-13.56.37-8.48.36 17.4.36-8.92.36 8.92.37 4.64.36-22.04.36 12.88.36-8.69.36 4.29.37 4.4.36-4.4h.36l.36-4.29.36 4.29h.37l.36-35.2.36-10.28.36 13.85h.36l.37 36.03.36-8.69.36-4.19.36 8.48h.36l.37 8.92h.72l.36-8.92.37 4.4.36-4.4.36 8.92h.36l.36-13.21.37 8.69h.36l.36 4.52.36-4.52.36-8.69.37 4.29.36 4.4.36-8.69.36-8.27.36 4.08.37 4.19.36-4.19h.36l.36-4.08.37-3.99.36 8.07h.36l.36 8.48.36-4.29.37-16.16.36 7.89h.36l.36 12.56h.36l.37-8.48h.36l.36 4.19.36 4.29.36-12.56.37 4.08h.36l.36 4.19.36 8.69.36-8.69h.73l.36-8.27.36 4.08.37 12.88.36-4.4.36 4.4.36-8.69h.36l.37 4.29h.36l.36-4.29.36 4.29.36 8.92.37-8.92.36 8.92h.36l.36-4.52h.36l.37-4.4.36 8.92.36-4.52.36-4.4h.37l.36 4.4.36 4.52.36-13.21h.36l.37-12.26.36 8.07.36 4.19.36 4.29h.73l.36-4.29h.36l.36 4.29.36-8.48.37 4.19h.36l.36-4.19.36-8.07.37 12.26.36 8.69h.36l.36-4.4.36 4.4h.73l.36-4.4h.36l.36 8.92.37-13.21h.36l.36-4.19.36-4.08.36-15.43.37 11.44.36 16.55.36-4.29.36-8.27.36-3.99.37 3.99.36-3.99h.72l.37 8.07h.36l.36 4.19.36-4.19.36 12.88.37-12.88h.36l.36 4.19h.36l.36-4.19.37 4.19h.36l.36 8.69h1.45l.36-4.4.36 4.4.37-4.4h.72l.36 8.92.36-4.52.37 4.52h.36l.36 4.64.36-9.16.36-4.4.37 4.4.36 4.52.36-17.4.36-4.08h.36l.37 12.56.36 4.4.36 4.52.36-4.52.36-4.4h.73l.36 8.92.36-8.92.37-8.48h.36l.36-8.07.36 12.26.36 4.29.37 4.4h.36l.36 4.52h.36l.36-4.52h.37l.36 4.52.36-4.52h.36l.36 9.16.37-9.16.36 4.52.36-8.92.36-4.29.37 4.29h.72l.36 8.92.36-4.52.37 4.52.36-13.21.36 4.29.36 8.92.36-8.92.37 4.4h.72l.36 9.16h.73l.36-4.64h.36l.36-4.52.36-4.4.37 8.92.36-4.52h.36l.36 13.94.37-4.78.36-4.64.36-4.52h.36l.36 4.52.37-4.52.36-4.4h.72l.36-4.29.37-4.19.36 8.48h.36l.36-4.29.36 4.29h.37l.36 4.4h.36l.36-4.4.37-4.29h.36l.36 8.69.36-12.88.36 17.4.37-17.4.36 4.19.36-16.16.36 24.85.36 4.52.37-4.52.36-8.69.36-8.27.36 8.27.36-19.97.37 15.78.36 17.4.36-33.18.36 19.97.37 8.69.36 4.52.36-4.52.36-4.4.36 4.4h.37l.36-4.4.36 4.4.36-16.96h.36l.37 4.08.36 8.48h.72l.36 4.4.37-12.88h.72l.36-11.97.36-3.81.37 7.71.36 8.07.36 8.48.36 8.92.37-4.52.36 4.52h.36l.36 4.64.36-9.16.37-8.69.36 4.29.36-4.29.36-4.19.36-4.08.37-3.99.36-7.71.36-3.73.36-7.21.36-3.49.37 3.49.36-3.49.36 18.24.36 3.9.37 3.99.36 8.27.36-4.19.36 12.88h.36l.37-16.96.36 4.08.36 22.04.36-9.16.36-16.96h.37l.36 12.56.36 4.4.36-8.69.36-8.27.37 8.27h.36l.36 4.29.36 8.92h.36l.37 4.64.36 9.69.36-9.69.36-17.85.37 4.29.36 8.92.36-8.92h.36l.36-4.29.37-4.19.36-4.08.36-11.7h.36l.36 11.7.37-3.99h.36l.36 3.99.36-3.99.36 3.99.37-26.13.36 38.69.36 4.4.36-12.88.37 12.88.36-12.88.36 8.48h.72l.37-4.29.36-4.19.36 8.48.36-8.48.36-4.08.37 8.27.36 4.29h.36l.36 4.4h.73l.36 4.52.36-8.92.36-4.29h.36l.37 4.29.36-16.55.36 16.55h.36l.37 4.4.36-8.69h.36l.36 8.69.36-8.69h.37l.36 4.29.36-4.29h.36l.36-8.27.37-3.99.36 12.26h1.45l.36-4.19.36-4.08h.36l.37 16.96.36-8.69h.72l.36-8.27.37 8.27.36-8.27h.36l.36 4.08.36 4.19h.37l.36 13.21.36-4.52.36-16.96.36 8.27h.37l.36 4.29.36-4.29.36-8.27.37 4.08.36-4.08.36 8.27.36-16.16h.36l.37-3.81.36 24.26h.36l.36 8.92.36-8.92h.73l.36 4.4.36-4.4.36 4.4.37-28.66.36 15.78h.36l.36-8.07.36 8.07.37-4.08.36 8.27.36 4.29.36-8.48.37 4.19h.72l.36-8.27.36 12.56.37-4.29h.72"/><use xlink:href="#cf8ab__a" color="#00C853" transform="matrix(3.75 0 0 3.75 354.25 131.02)"/><use xlink:href="#cf8ab__a" color="#00C853" transform="matrix(3.75 0 0 3.75 95.45 7.51)"/></g><text stroke-linecap="round" stroke-linejoin="round" color="#000" font-family="KaTeX_Main" font-size="8" transform="translate(116 25.11)"><tspan>TreapFingerTree</tspan></text><g fill="none" stroke="currentColor" stroke-linecap="round" stroke-linejoin="round" color="#000"><path stroke="#3B75EA" d="M80.5 22.51h29.9M28 70.98l.36-5.84h.36l.37 8.84.36 9.33h.72l.36-3.16.37 13.04.36 6.92.36-6.92h.36l.37 3.43.36-6.79.36-3.29.36-3.23.36-6.27.37 9.5.36 6.65.36-6.65.36-3.23.36-3.16.37 3.16.36 6.52.36-30.34.36 8.54.36-8.54h.37l.36 11.49h.36l.36-5.84h.36l.37 8.84.36-5.95h.36l.36-2.89h.37l.36 2.89.36 12.12.36-3.11.36 9.5h.37l.36 3.29.36-3.29.36 10.08h.36l.37-3.43.36 3.43h.36l.36 3.49.36-3.49.37-6.79.36-6.52.36 3.23.36-3.23.37 13.31h.36l.36-6.79.36-3.29.36 3.29.37-6.52.36-3.16.36 6.39.36-3.23.36 6.52.37-9.68h.36l.36 16.47.36 3.49.36-3.49.37-6.79.36-3.29.36-3.23.36-3.16.37 3.16.36-3.16.36 9.68.36 13.85.36-10.49.37 6.92.36 7.21h.72l.36-3.64.37 3.64.36-7.21.36-13.57.36-3.23.36-9.33.37 6.17.36 9.68.36 6.79.36-3.43.36 21.67.37 7.89.36-3.99h.36l.36-15.08h.37l.36-3.57.36-3.49.36 10.7h.36l.37 11.44h.36l.36-3.9h.36l.36-7.54.37 7.54.36-3.81.36-24.51.36 32.22.36-3.9.37 3.9.36 12.26.36-4.19.36 4.19.37-19.97.36 7.71.36 3.99.36-3.99.36-3.9.37 3.9.36-3.9.36-11.18.36 15.08h.36l.37-47.78.36 6.06.36 19.58.36 3.49.36 3.57.37-7.06.36-3.43.36-9.88.36-3.16h.36l.37 9.68.36 3.36.36 3.43.36 3.49.37-6.92.36 10.49h.36l.36-3.57.36-6.92.37-6.65.36 13.57h.36l.36-3.49h.36l.37-3.43.36-3.36.36 6.79.36 3.49h.36l.37 3.57.36-7.06.36-3.43.36 10.49h.37l.36-3.57.36 3.57h.36l.36-7.06.37-3.43.36 3.43.36-3.43h.36l.36-9.88.37 3.23.36 10.08.36 3.49.36-26.13h.73l.36 26.13.36-3.49.36-3.43h.36l.37 6.92.36-6.92h.36l.36-6.65.37 10.08h1.08l.36 3.49.37-6.92.36 3.43.36 7.06.36-3.57.36-6.92h.37l.36 14.13.36-3.64h.36l.36 7.37.37 3.81.36-3.81h.36l.36 15.78.37-11.97h.36l.36-3.81h.36l.36-7.37.37 7.37h.36l.36 3.81.36-21.67.36 3.43.37 7.06.36 7.37.36-3.73.36 3.73.36-3.73.37 7.54.36 3.9.36-3.9.36 7.89.37-3.99.36-22.14.36-3.43.36 3.43.36-3.43.37 6.92.36 3.57.36 3.64.36-3.64.36 3.64.37 3.73.36-3.73.36-3.64.36-3.57.36 10.94.37 3.81.36-7.54.36-7.21.36 18.65.36 3.99.37-7.89.36-7.54.36-14.13.36 6.92h.73l.36-10.28.36 10.28h.73l.36 3.57.36-10.49.36-22.21.36 22.21.37-6.65.36 10.08.36-3.43.36 3.43.36-3.43.37 3.43h.36l.36 7.06.36-10.49h.37l.36-6.65.36-18.51.36 2.95.36 15.56.37-3.23.36 3.23.36 13.57h.36l.36-3.49.37-10.08.36 3.29.36 3.36.36 3.43.36-6.79h.37l.36 3.36.36-9.88.36 3.23.36-3.23.37 9.88.36 10.49.36-10.49.36-16.15.37-11.9.36 2.89.36 9.01.36 3.11.36-3.11.37 9.5h.36l.36 10.08.36 3.49h1.45l.36-3.49.36-3.43.37-6.65.36 6.65.36 3.43.36-13.31h.37l.36-3.16.36 13.04.36-3.36h.36l.37 6.79.36-6.79.36-3.29.36-6.39.36 9.68h.37l.36-3.29.36 6.65.36-3.36h.36l.37 3.36.36-3.36.36 10.28.36 3.57.36 3.64.37-3.64.36-3.57h.36l.36-3.49.37 7.06h.36l.36 3.64.36-7.21.36-6.92.37-3.36.36 17.49h.36l.36-17.49h1.09l.36 3.36.36-3.36h.36l.37-3.29.36-12.56.36 9.33.36-9.33.37 12.56.36 13.57.36-13.57h.36l.36 3.29h.73l.36 3.36.36 6.92h.73l.36 3.57.36-7.06.36 3.49.36-3.49.37 7.06.36-7.06h.36l.36-3.43h.37l.36-6.65h.36l.36 3.29.36-3.29h.37l.36 20.78.36-14.13h.36l.36-3.36.37-15.85.36 33.34.36 3.73.36-3.73.36 7.54h.37l.36-3.81h.36l.36 3.81.36-14.75h.37l.36 7.21.36-3.64.36-7.06.37 18.24h.36l.36 11.97.36-4.08h.36l.37 4.08.36-15.78.36-3.73.36-14.13.36-3.36.37-3.29h.36l.36 10.08.36 3.49.36 10.94.37-7.37h.36l.36 7.37.36-3.73.37 11.44h.36l.36-15.08.36-7.06.36 10.7.37-14.13.36 3.43h.36l.36-3.43h.36l.37 6.92h.36l.36-13.57.36 17.14h.36l.37 7.37.36-7.37.36-3.57.36 14.75.36-3.81.37-7.37.36 3.64.36 11.44.36 8.07.37 4.19.36-4.19h.72l.36-4.08.37 4.08h.36l.36 4.19.36-12.26.36 12.26.37-8.27.36-3.99h.36l.36-11.44.36 15.43.37-3.99.36 3.99.36 4.08.36-8.07.37 3.99h.36l.36 8.27.36-4.19h.36l.37-8.07.36 8.07.36-8.07h.72l.37-3.9.36-11.18h.36l.36 19.07h.36l.37-7.89.36-21.67h.72l.37 6.92.36-6.92.36 10.49.36 3.64.36-14.13.37-3.36.36-3.29.36 6.65.36 10.49.36-3.57h.37l.36 7.21.36-7.21.36 7.21.36-24.01.37 3.23h.36l.36 10.08.36-6.79.36 6.79.37 14.43.36-3.73.36 3.73.36 3.81.37-3.81.36 3.81.36 3.9.36-7.71.36-21.22.37-9.68.36-17.86.36 11.69.36-3 .36-2.95.37 2.95h.72l.36-5.84.36 5.84.37-8.69.36 2.85.36 8.84.36 6.17.37-6.17.36 12.56.36 6.65h.72l.37-6.65.36-9.5.36 12.79.36 3.36.36 3.43.37-3.43.36-6.65h.36l.36-12.56.36 6.17.37 23.53h.36l.36 3.64.36-3.64h.36l.37-3.57.36-10.28h.72l.37-9.68.36 3.16.36 3.23.36 6.65.36-6.65h.37l.36 3.29.36-3.29.36-9.5h.36l.37 6.27.36 3.23.36-3.23.36-6.27.36 3.11.37-6.17.36 19.21.36-3.36.36 3.36.37 10.49.36 7.37.36-14.43.36-10.08.36 3.29.37-3.29.36 6.65.36 6.92h.36l.36-3.49.37-3.43.36 3.43.36-34.33.36 21.02h.36l.37 24.01.36-14.13.36 14.13.36 7.54.36-3.81.37 3.81h.36l.36-14.75.36-3.49.37-6.79.36 3.36.36-28.05.36 18.17.36-3.16h.37l.36 3.16h1.08l.37 6.52.36 3.36h.72l.36 10.49h.37l.36-7.06.36 3.49.36 3.57.37 3.64h.36l.36-3.64h.72l.37 3.64h.36l.36-3.64.36-10.49.36 3.43.37 3.49.36 3.57.36 3.64h.36l.36 3.73.37-7.37h.36l.36 7.37.36 3.81.37-3.81.36 3.81.36-14.75.36 3.57.36 11.18h.37l.36-3.81.36-10.94.36 10.94.36 3.81.37-3.81h.72l.36-7.37.36-7.06.37 3.49.36 7.21h.36l.36 3.73.36-7.37.37 3.64.36-7.21.36 3.57.36-10.49h.73l.36-3.36.36 3.36.36 14.13.37 3.73.36-7.37h.36l.36-10.49.36 10.49h.37l.36-3.57.36 10.94.36-14.43.36-3.43.37-3.36.36-6.52.36 3.23.36 10.08.37-10.08.36 3.29.36-6.52h.36l.36 3.23h.73l.36-6.39.36 6.39.36 3.29.37-3.29h.36l.36-9.5.36 6.27h.36l.37-3.16.36 9.68.36-12.79.36 6.27.36-6.27h.37l.36 6.27.36 16.8.36 3.57.37-7.06.36 7.06.36-3.57h.36l.36 3.57.37-13.85.36 10.28h.36l.36 3.57h.36l.37-10.49.36-9.88.36-3.16.36 3.16.36-6.27.37 3.11.36 16.47h.36l.36-22.64.37 9.33.36-3.16.36 9.68.36 21.22h.36l.37 3.81.36-7.54.36-7.21.36-3.49h.36l.37 10.7.36 3.73.36-17.86.36 3.43.36-6.79.37-9.68.36-3.11.36 3.11.36 3.16.36 3.23h.73l.36 6.65.36 10.49.37-10.49.36-3.36.36 10.28.36-3.49h.73l.36-6.79.36-3.29.36-15.56.36 9.17.37 13.04.36 6.92.36-6.92.36-3.36.36 3.36.37 10.49.36-17.14.36-15.56.36 3 .37 3.06.36 6.27.36 3.23.36-3.23.36-6.27.37 6.27.36 6.52.36 3.36.36 10.49h.36l.37 3.64h.36l.36 3.73.36-10.94.36 7.21h1.09l.36-3.64.37-7.06h.36l.36 3.49.36-3.49h.36l.37 3.49.36 10.94h.36l.36 7.71h.36l.37-11.44.36 7.54.36-7.54.36-7.21.36 3.57.37-7.06.36 7.06.36-3.57h.36l.36-3.49h.37l.36 3.49h.36l.36 3.57h.37l.36 7.37.36-24.51h.36l.36 6.65.37 3.43.36 7.06.36 3.64.36-7.21.36-3.49h.37l.36-10.08.36-6.39h.36l.36-3.11.37-9.01.36 25.16.36-6.65.36 3.29h.37l.36-3.29.36 6.65h.36l.36-3.36.37-3.29.36-3.23h.36l.36 6.52.36 13.85h.37l.36-7.06.36-6.79.36-6.52.36-6.27h.37l.36 26.64.36-3.57.36-16.8.36-12.33.37 15.56.36 3.29.36-3.29h.36l.37-6.39.36 16.47h.36l.36 10.7.36-3.64.37 11.18h.72l.36-18.24h.36l.37 3.49.36-3.49h.36l.36-3.43h.36l.37-9.88.36 16.8h.36l.36-16.8.37-6.27h.36l.36 3.11.36 6.39.36-6.39h.37l.36 3.16.36-3.16.36 13.04.36-3.36.37 13.85.36-17.14.36 10.08h.36l.36-3.43.37 10.49.36-3.57.36 10.94.36-3.73h.36l.37 3.73.36-3.73.36-10.7.36 3.49.37-19.96.36 9.68.36-9.68.36 9.68.36-3.29.37-12.56h.72l.36 3.06h.36l.37 9.5h.36l.36 6.65.36-3.36h.73l.36 3.36.36 3.43.36-3.43.37 3.43.36 3.49.36-10.28h.36l.36-3.29.37 10.08h.36l.36-3.43.36-9.88.36-6.27h.37l.36 3.11.36 3.16.36-3.16.36 6.39h.37l.36 3.29.36 10.28.36-3.49h.37l.36 3.49h.36l.36-3.49.36-10.08.37 10.08.36 10.7.36 3.73.36 7.71.36 3.99.37-15.43.36-17.49h.36l.36 6.79.36 3.49.37-3.49.36 3.49.36 7.21.36-10.7.36-3.43.37 6.92h.36l.36-6.92.36 3.43h.37l.36 7.06.36 7.37.36-3.73.36-3.64.37-3.57.36-3.49h.36"/><use xlink:href="#cf8ab__b" color="#3B75EA" transform="matrix(3.75 0 0 3.75 67.83 86.54)"/><use xlink:href="#cf8ab__b" color="#3B75EA" transform="matrix(3.75 0 0 3.75 95.45 22.51)"/></g><text stroke-linecap="round" stroke-linejoin="round" color="#000" font-family="KaTeX_Main" font-size="8" transform="translate(241.1 10.11)"><tspan>Randomized</tspan></text><g fill="none" stroke="currentColor" stroke-linecap="round" stroke-linejoin="round" color="#000"><path stroke="#FFAB00" d="M205.6 7.51h29.9M28 118.76l.36 3.99.36 4.08h.37l.36 4.19h.36l.36-4.19.36 4.19h.37l.36 4.29.36 4.4.36-4.4.37 8.92.36-8.92.36-4.29h.36l.36-8.27h.37l.36 8.27.36 4.29.36-4.29.36 4.29.37-8.48.36 4.19.36 4.29h1.45l.36 4.4.36-4.4.36-16.55h.73l.36 20.95.36-4.4.37-4.29h.36l.36 13.21h.36l.36-4.52h.37l.36-4.4h.36l.36-4.29.36 8.69.37-4.4h.36l.36-4.29.36 4.29.36-8.48.37 12.88h.36l.36 4.52.36-17.4.37 4.19.36 13.21.36-8.92h1.45l.36 4.4.36-4.4h1.45l.36-4.29h.36l.37 8.69.36 4.52h.36l.36 4.64.37 4.78.36-4.78.36-4.64.36-4.52.36 9.16.37-4.64.36 4.64h.36l.36-9.16.36-4.4h.37l.36 4.4.36-8.69h.36l.36 4.29h.37l.36 4.4.36-8.69.36-4.19.36 4.19.37 8.69.36-4.4.36-4.29.36 4.29.37-4.29.36-8.27.36 4.08h.36l.36-8.07.37 8.07.36 8.48.36-4.29.36 13.21.36-4.52.37-4.4h.36l.36-4.29h.36l.36-4.19.37 4.19.36 13.21.36-4.52.36 9.16.37-9.16.36-4.4h.36l.36-4.29.36-4.19h.37l.36 4.19.36 4.29h.36l.36-4.29.37-12.26.36 3.99h.36l.36-3.99.36 8.07h.37l.36-4.08.36 12.56h.72l.37-4.29.36-4.19.36 8.48.36-12.56h.37l.36 8.27h.36l.36 4.29.36-4.29h.73l.36-4.19.36 4.19.36 4.29.37-4.29.36 13.21.36-8.92h.72l.37 4.4h.36l.36 4.52h.73l.36-4.52.36-12.88.36-4.08.36 4.08.37-4.08.36 12.56.36 13.56.36-4.64h.36l.37-13.21.36 4.29.36 8.92.36 4.64.36-4.64.37 4.64.36-13.56h.36l.36 8.92.36-4.52.37-8.69.36-4.19.36 4.19.36-8.27h1.09l.36-3.99h.36l.37 16.55.36-4.29.36 4.29.36-12.56.36 26.12.37-4.64.36-4.52h.36l.36-8.69h.36l.37-8.27.36 4.08h.72l.37-4.08h.36l.36 8.27.36-4.19.36-4.08.37 4.08.36-4.08.36 12.56h2.17l.36-4.29.37 4.29h.36l.36-4.29.36 4.29.37-12.56.36-3.99.36 12.26h.36l.36 4.29.37-24.26.36 24.26h.72l.36-4.29h.37l.36-8.27.36 8.27.36 4.29.36 8.92.37-4.52h.36l.36-4.4h.72l.37-4.29.36 4.29.36-12.56.36 8.27h.37l.36 4.29.36-4.29.36 4.29.36-8.48h.37l.36 4.19h.36l.36-8.27h.36l.37 4.08.36-4.08.36 12.56h1.81l.36-8.48.37 4.19h.36l.36-4.19.36-8.07h.36l.37 12.26.36-12.26.36-3.9.36 7.89.36 4.08h.73l.36 22.04.36-4.64.36-33.18.37-7.37.36-7.06.36 22.14.36 16.55.36 4.4.37-8.69.36 8.69.36-8.69h.36l.37 4.29h.36l.36-8.48.36 8.48.36 4.4h.73l.36-8.69.36 4.29.36 8.92h.73l.36-8.92.36-4.29h.73l.36 4.29.36 4.4h.36l.37 9.16.36-17.85.36 4.29.36-4.29.36 4.29h.37l.36-8.48.36 4.19.36 4.29h.36l.37 4.4h.36l.36-4.4.36 4.4.36-4.4h.37l.36 8.92.36 4.64.36-17.85.36 8.69.37-8.69.36 4.29h.36l.36 4.4h.37l.36-4.4h.36l.36-4.29.36 4.29.37-4.29.36 4.29.36-4.29.36 4.29h.36l.37-4.29h.36l.36-12.26.36 8.07h.36l.37-4.08.36 12.56h.72l.37-4.29.36-4.19h.36l.36 8.48.36-4.29.37 4.29.36 8.92h.36l.36-17.4.36 12.88.37-4.4h.72l.36-12.56.36-7.89.37 11.97h.36l.36 4.19.36-12.26.37 3.99.36 4.08.36 4.19.36 4.29.36-16.55h.37l.36 8.07.36 12.88.36 4.52.36-8.92h.37l.36-12.56.36 8.27h.72l.37 8.69h.36l.36 4.52.36-4.52.36 9.16.37-4.64.36 4.64.36-4.64h.36l.37-13.21.36-8.27h.36l.36 12.56.36-4.29h.73l.36 8.69h.36l.36-4.4.37-4.29h.72l.36 8.69h.73l.36 9.16.36-4.64.36-4.52h.37l.36-8.69.36-8.27.36 8.27h.36l.37 4.29.36 4.4h.72l.36-8.69.37 4.29h.36l.36-4.29.36-8.27.36 4.08h.37l.36-4.08.36-3.99h.36l.36 12.26h.37l.36 4.29.36 4.4.36-16.96.37 8.27.36 4.29h.72l.36-4.29.37-8.27h.36l.36 8.27.36 4.29.36 4.4.37-8.69.36 4.29.36-4.29.36-4.19.36-8.07.37-3.9.36 3.9.36 3.99.36-11.7.37 7.71.36 8.07.36-8.07.36-7.71.36 3.81.37 7.89.36 4.08.36 4.19h.72l.37 4.29.36-8.48h.36l.36-4.08.36 8.27.37-8.27.36 4.08.36-4.08.36-3.99h1.45l.36-11.44.37-3.64.36 15.08.36 3.99.36 4.08h.36l.37 12.88h1.44l.37 4.52.36-4.52h.36l.36 9.16h.73l.36-4.64.36-4.52.36-32.39.37-7.21.36 18.65.36 8.07.36-4.08.36-3.99.37-3.9h.36l.36 3.9.36 16.55.36-4.29.37-8.27h.36l.36-7.89.36 3.9.36 3.99h.37l.36-7.89h.36l.36 3.9.37 8.07.36 4.19.36-4.19.36 17.4.36-8.92.37 8.92.36-21.48h.36l.36 8.27.36 4.29h.73l.36-12.56.36 4.08h.36l.37 12.88h.36l.36 4.52h.36l.36-4.52.37-4.4.36-12.56.36-7.89.36 11.97.37 4.19h.36l.36 4.29.36 4.4.36 4.52.37 4.64.36-4.64.36-8.92.36 4.4.36-8.69.37 8.69.36 4.52.36-4.52.36-12.88.36-8.07.37 8.07.36 8.48h.36l.36-8.48h.37l.36 4.19.36 4.29h.36l.36-4.29.37 4.29h.72l.36 8.92.36 4.64.37-4.64h.36l.36 4.64.36-4.64.36-4.52h.37l.36 4.52.36-4.52h.36l.36 4.52h.37l.36-4.52.36-20.95.36 16.55.37 8.92.36-4.52.36-4.4.36 4.4.36 9.16.37-4.64.36-4.52.36-4.4.36 8.92.36-17.4.37 4.19.36 4.29.36-8.48.36 4.19.36 4.29h.37l.36 4.4h.36l.36-4.4.37-4.29.36 17.85h.36l.36-4.64.36 4.64.37-4.64.36-4.52.36 4.52.36-13.21.36 4.29h.37l.36-4.29.36 4.29h.36l.36-8.48.37 8.48h.36l.36-4.29h.73l.36-12.26.36 3.99.36 26.12.36-13.56.37 4.4h.36l.36-16.96.36 4.08.36 8.48.37 4.4.36-16.96.36 21.48h.36l.36-4.52.37-20.95.36-11.44h.36l.36 15.43.36 8.27.37 13.21.36 9.42h.36l.36-4.78h.37l.36-4.64h1.08l.37-8.92.36 8.92.36 4.64.36-13.56.36-16.55.37 3.99.36-3.99.36-3.9.36 24.85h.73l.36 4.52.36-4.52.36-12.88.37-4.08.36 4.08h.36l.36-8.07.36 3.99.37 4.08.36 12.88.36 9.16.36 4.78.36-9.42h1.81l.37-8.92.36 4.4h.36l.36-4.4.36-8.48.37 8.48.36 4.4h.36l.36 4.52h.37l.36-4.52.36 4.52.36-8.92h.36l.37-8.48h.72l.36 12.88h.73l.36-20.95.36 3.99h.72l.37 12.56h.36l.36-8.48.36 12.88h.37l.36-4.4.36-4.29.36 4.29.36 4.4.37-4.4.36-12.56.36 4.08.36 4.19.36 13.21h.37l.36-17.4.36 12.88h.36l.36-4.4.37 8.92.36-4.52.36 4.52.36-13.21.36-4.19.37 22.04.36-4.64.36-4.52.36 9.16.37-4.64h.36l.36-4.52.36-16.96.36 12.56.37 4.4h.72l.36-4.4.36 8.92.37-4.52h1.81l.36-4.4h.36l.36 4.4h.73l.36-12.88h.36l.36 4.19h.37l.36 4.29h.36l.36 4.4.36-4.4h.37l.36-8.48.36-8.07h.36l.36 3.99h.73l.36 4.08h.73l.36-4.08h.36l.36 8.27.36 4.29h.37l.36-12.56.36 4.08h.36l.36-8.07.37 3.99.36-3.99.36-7.71.36 7.71.36 8.07h.37l.36 8.48.36-8.48h.36l.36-11.97h.37l.36 7.89.36 4.08.36 4.19h.37l.36-4.19.36-8.07.36-3.9.36 20.45.37-12.56h.36l.36 8.27h.36l.36-4.19.37 4.19h.72l.36-8.27.36 8.27.37-4.19.36-4.08.36 8.27.36 4.29.37 4.4h.36l.36-8.69h.36l.36-4.19.37-4.08h.72l.36 4.08.36-4.08.37-11.7.36 7.71h1.08l.37 3.99.36 8.27h.72l.36 4.29h.37l.36 8.92.36-8.92h.36l.37-8.48h.72l.36 4.19h.36l.37-4.19h.72l.36 4.19.36 4.29h.37l.36-8.48.36-8.07h.72l.37 3.99.36-7.89.36-3.81.36 3.81.37 7.89.36 4.08h.72l.36 4.19.37-12.26.36 8.07.36 4.19.36-8.27.36 12.56.37-8.48.36 4.19.36 4.29.36-4.29.36 4.29h.37l.36-4.29.36 13.21.36-8.92h.36l.37 8.92h1.45l.36 4.64h.36l.36-13.56.36-4.29.37 8.69.36 9.16.36-4.64.36-4.52.36-4.4.37-12.56.36 4.08.36 4.19.36 4.29.36-4.29.37-8.27.36 8.27.36 17.85.36-4.64.37 4.64.36-4.64h.36l.36-4.52.36-12.88.37 8.48.36 4.4.36-8.69.36-4.19.36 8.48.37 8.92.36-8.92.36 4.4.36-8.69h1.09l.36 8.69h.73l.36-4.4.36-4.29.36 4.29.36-4.29.37 4.29.36-8.48.36-8.07.36 3.99.36-3.99.37 16.55h.36l.36-4.29h.36l.36 17.85.37 4.78.36-13.94.36-8.69.36 13.21h.36l.37-13.21.36 8.69.36 9.16.36-4.64.37-13.21.36 8.69.36 4.52h.36l.36-25.47.37 8.07.36 17.4h.36"/><use xlink:href="#cf8ab__c" color="#FFAB00" transform="matrix(3.75 0 0 3.75 125.4 118.76)"/><use xlink:href="#cf8ab__c" color="#FFAB00" transform="matrix(3.75 0 0 3.75 220.55 7.51)"/></g><text stroke-linecap="round" stroke-linejoin="round" color="#000" font-family="KaTeX_Main" font-size="8" transform="translate(241.1 25.11)"><tspan>Zip</tspan></text><g fill="none" stroke="currentColor" stroke-linecap="round" stroke-linejoin="round" color="#000"><path stroke="#F44336" d="M205.6 22.51h29.9M28 96.62l.36-3.43.36 3.43.37 3.49.36 3.57h.36l.36-3.57h.36l.37 3.57.36 3.64.36-7.21.36 3.57h.37l.36-17.14.36-9.5.36-6.06h.36l.37 15.56.36 17.14.36 7.37.36-27.74.36-3.16.37 6.39.36-18.51h.36l.36 15.28.36 3.23.37-6.39.36 9.68.36 13.85.36-10.49h.73l.36 3.43h.72l.37 3.49.36 7.21.36-3.64.36-3.57.36-10.28h.37l.36-9.68.36 9.68.36 6.79h1.09l.36-16.47.36 27.17.36-3.64.37 3.64.36-3.64.36-10.49.36 14.13.37-14.13.36 10.49.36 3.64h.72l.37-3.64h.72l.36-3.57.36-10.28.37 3.36h.36l.36-9.88.36-6.27.36 6.27.37-3.16.36-3.11.36-9.01.36 18.51.37 3.29.36-9.68h.72l.36 3.16h.37l.36 9.88.36 6.92.36 3.57h.73l.36-10.49h.36l.36-3.36.36-3.29h.37l.36 17.14.36 3.64.36-39.29.36 5.95.37 19.21.36 6.92.36-6.92h.73l.36-6.65.36 3.29.36 6.79.36-3.43.37-16.15.36 3.11.36 6.39h.72l.37 3.29.36 6.79.36 7.06.36-13.85.36 3.36.37 6.92.36 3.57.36-3.57.36-6.92.37 6.92.36-6.92h.36l.36-9.88.36-9.33.37 3.06h.72l.36-3.06.36 3.06.37 3.11.36-3.11.36 30.28h.36l.36-3.64.37-10.49.36-9.88h.72l.36 6.52h.37l.36 10.28.36 3.57.36 3.64h.37l.36-3.64.36-3.57.36 7.21h.73l.36-30.28.36 3.11h.36l.36 6.39.37 10.08.36-22.64.36 3.06.36 6.27h.36l.37 9.88.36-6.65.36-9.5.36 6.27h.37l.36-9.33.36-11.69.36 2.85.36-13.79.37 22.63h.36l.36 6.17.36 13.04.36 3.43.37 10.7.36-33.34.36 6.17.36 6.39.36 6.65.37-6.65.36 6.65.36-3.36h.36l.36 3.36h.37l.36 10.49.36-10.49.36 6.92.37-10.28.36-18.85h.36l.36 9.17.36 6.39h.37l.36-3.23.36 3.23.36 10.08.36 3.49.37 3.57.36 3.64.36-10.7.36-6.79.36 3.36.37 10.49.36-17.14.36 3.29.36 6.79.37 3.49.36 7.21.36-10.7.36 10.7.36-10.7.37-6.79h.36l.36 6.79.36-6.79.36-21.8.37 15.28.36 9.88h.36l.36 3.43h.36l.37 7.06.36-3.57.36 7.21.36-10.7.37 3.49h.36l.36-3.49.36-3.43.36 3.43.37 7.06h.36l.36 3.64.36-27.17.36 6.39.37-9.5.36-6.06.36-2.95.36 5.95.36-3 .37 3 .36 6.17.36-3.11.36 6.27.36 3.23h.37l.36 3.29h.36l.36 6.79h.37l.36 10.7.36-20.78.36 3.29.36 3.36h.73l.36 6.92h.72l.37-10.28.36 6.79.36-13.31.36 9.88.36-3.36.37 3.36.36-3.36.36 6.79.36-3.43.37-6.65.36 3.29.36-3.29.36 17.14.36-13.85.37 6.79.36 3.49.36-3.49.36 3.49h.73l.36-3.49.36 10.7.36-10.7.36-19.58.37 9.5.36 10.08.36 3.49h.36l.36-6.92.37 3.43.36 3.49h.72l.37 7.21.36-3.64h.36l.36 7.37h.36l.37-14.43.36-3.43h.72l.36-3.36.37 3.36.36 10.49.36 3.64.36 7.54.36 7.89.37-11.7.36 3.81.36-11.18.36 7.37.37-7.37.36 3.64h.36l.36-7.21.36 3.57h.37l.36-20.37.36 3.23h.36l.36 17.14.37 3.64.36-7.21.36 3.57.36-7.06.36 10.7.37-14.13h.72l.36 6.92.36-26.13.37 6.17.36-9.17.36 3 .36 12.56.37 13.57.36-3.49.36-10.08.36 3.29.36-18.85.37 9.17.36 16.47.36 7.06.36 3.64.36-3.64.37-10.49.36 6.92.36-3.49.36 7.06.36 11.18.37-7.54h.36l.36 3.73.36-3.73h.37l.36-3.64.36 3.64.36-24.01.36-15.28.37 5.95.36 26.13h.36l.36 7.21.36-14.13h.37l.36 3.43.36-3.43.36 3.43.36 10.7.37-10.7h1.08l.37-3.43h.36l.36-3.36h.36l.36 6.79.37 10.7.36-7.21.36 3.57h1.09l.36-3.57.36 3.57.36-17.14.36 20.78.37-3.64.36 7.37.36-3.73.36-3.64.36 7.37.37-14.43.36 7.06h.36l.36-13.85.37-3.29h.72l.36 10.08h.36l.37 7.06.36 3.64.36-10.7.36-6.79.36 10.28.37 7.21.36-3.64.36-7.06.36 18.24.36-14.75.37 3.57.36-3.57.36-10.28.36-3.29.37 10.08.36 3.49.36-6.92.36-9.88.36-3.16.37 13.04.36-3.36.36 3.36h.36l.36 3.43.37 10.7h.36l.36-7.21.36 10.94.36-21.22.37-3.29.36-3.23h.36l.36 6.52h.36l.37-6.52.36 3.23.36-29.81.36 36.46.37 6.92.36 3.57.36-3.57.36-10.28.36-3.29.37 13.57.36 3.57.36-3.57.36 7.21h.36l.37 7.54.36-18.24.36-6.79.36 3.36.36 3.43.37 10.7h.36l.36 3.73.36-10.94.37 7.21h.36l.36-14.13.36-9.88.36-6.27.37 30.28h.36l.36 7.54.36-7.54.36-3.64.37 3.64h.36l.36-10.7.36 10.7.36-17.49.37 3.36h.72l.36 6.92.37 3.57.36-3.57.36-13.57.36-3.23.36 13.31h.37l.36-3.43.36 6.92.36 3.57.36 3.64h.73l.36 3.73h.36l.36 7.71.37-7.71.36-3.73.36 3.73.36-7.37.36-7.06h.37l.36 10.7.36-3.64.36-7.06.37 7.06.36-3.57.36 3.57.36 3.64.36 3.73.37-14.43.36 7.06.36 7.37.36-3.73.36-14.13.37 3.43.36-3.43.36-3.36.36 10.28.36-6.92.37-3.36h.36l.36-6.52.36 3.23h.37l.36 3.29.36-6.52.36 13.31.36-13.31.37 6.52.36 10.28.36-3.49h.36l.36-6.79.37 3.36h.36l.36 3.43.36 7.06.36-10.49.37-6.65.36 6.65.36 3.43.36-6.79.36-3.29.37 3.29.36-3.29.36 13.57.36-3.49.37-13.31.36-9.33.36 12.56.36-12.56.36-3 .37 3h.36l.36 12.56.36 13.57.36 7.21.37-3.64.36-3.57.36-13.57.36 10.08.36 3.49h.37l.36 14.75h.72l.37-11.18.36-7.06.36 10.7.36 3.73.36-7.37.37 7.37.36-3.73.36 3.73.36-7.37.36 15.08.37-3.9.36-11.18.36 3.64.36-7.21.36-3.49h.37l.36 3.49h.36l.36 10.94.36-3.73h.37l.36-10.7.36 3.49h.36l.37 3.57.36-7.06.36 3.49h.36l.36-3.49.37 7.06.36-26.64.36 3.11.36-3.11h.36l.37-9.01.36 12.12.36-3.11h.36l.36 6.27.37 9.88.36-6.65.36 3.29.36 3.36.37 3.43.36-3.43.36-9.88.36 3.23.36 20.78.37-10.7.36-3.43.36 10.49.36-7.06.36-13.31.37 6.52.36 10.28.36-13.57.36-3.23.36 6.52.37-3.29.36 20.78.36-7.21.36 3.57.37-3.57.36-6.92.36 6.92.36 7.21.36 3.73h.37l.36-10.94.36-10.28.36-3.29.36-3.23.37 9.88.36-6.65.36-9.5.36 19.58.36 3.49.37-13.57.36-6.39.36 6.39.36 6.65.36-3.36.37 6.79.36-3.43.36-9.88.36 9.88.37-3.36.36-3.29.36 3.29.36 6.79.36-10.08.37 13.57.36-3.49h.36l.36-6.79.36 10.28.37-3.49.36 10.7.36-3.64.36-10.49.36 10.49.37-7.06.36 10.7.36 7.54.36-11.18.37 3.64.36 7.54h.36l.36-14.75.36 3.57.37 3.64.36 3.73.36-17.86.36 6.92.36 3.57.37-3.57.36 3.57h.36l.36 7.37.36-3.73.37-3.64.36-26.64.36 3.11.36-6.17.36 12.56.37 10.08.36 3.49h.36l.36 3.57h.37l.36-3.57.36 3.57h.36l.36 7.37.37-3.73h.36l.36-7.21.36-3.49h.36l.37 3.49.36 3.57.36-10.49.36 6.92.36 14.75.37 3.9h.36l.36-7.71.36-7.37.37 7.37.36-10.94h.36l.36-16.8.36 6.52h.37l.36 6.79.36-13.31.36-3.16.36 6.39.37-6.39.36 9.68.36 3.36.36 10.49.36 3.64.37-14.13.36-3.36h1.81l.36-6.52.36-15.28.37 15.28.36-15.28.36 35.65h.36l.36-13.85.37 13.85h.36l.36 11.18h.36l.36-11.18.37-10.49.36 14.13.36-7.21.36 3.57.36-3.57.37 7.21h.36l.36 3.73.36 3.81.37-14.75h.36l.36-3.49h.36l.36 7.06.37-7.06.36-31.48.36-5.65.36 14.49.36 3.06h.37l.36 6.27.36-12.33.36 12.33.36 3.23h.37l.36-9.5.36-9.01h.36l.37 12.12.36 6.39h.36l.36-3.23.36-9.33.37-3 .36-2.95.36 18.51h.36l.36-3.23.37 9.88.36-19.21.36 6.17.36-12.12h.36l.37 5.95.36 3.06.36-6.06.36-2.95.36-11.3.37 26.58.36 6.52h.72l.37 10.28.36-3.49.36-10.08h.36l.36 6.65.37 3.43.36 3.49.36-13.57h.36l.36 10.08.37-6.79.36 17.49.36 11.44.36-11.44.36-14.13.37-3.36h.36l.36-3.29.36 3.29.37-6.52.36-6.27h.36l.36 3.11.36-3.11.37 6.27.36-9.33.36 3.06.36 3.11.36 23.53h.37l.36-3.57.36-10.28.36-3.29.36 6.65.37-9.88.36 3.23.36-9.5.36-3.06.36 3.06.37-6.06.36 25.64.36-6.79.36 10.28.37-3.49.36-10.08.36 13.57.36-3.49.36-10.08.37-9.5.36-3.06.36 12.56.36 17.14.36-17.14.37 13.57.36 3.57.36-10.49h.36l.36-19.21.37-3 .36 32.7.36-7.06.36 3.49h.37l.36-3.49h.36l.36-6.79.36 6.79.37-3.43.36-6.65h.36l.36-3.23.36-6.27h.37l.36 3.11.36 9.68.36-9.68.36 19.96.37 7.21.36 7.54.36-3.81.36-7.37.36 3.64.37-3.64.36 3.64.36-7.21.36 7.21h.73l.36-10.7.36-6.79.36-6.52.37 3.23.36 13.57.36 7.21.36-3.64.36 7.37.37 3.81.36-14.75h.36l.36-3.49.36 3.49.37-3.49.36-6.79.36 3.36.36 17.86.37-14.43.36 10.7.36 3.73.36-3.73.36 3.73.37-3.73.36-7.21h.36l.36-10.28.36-3.29.37 6.65h.36l.36-6.65.36 10.08.36 10.7.37-7.21.36 7.21h.36l.36-10.7.37 3.49h.36l.36-6.92.36-3.36.36-3.29.37-3.23.36 6.52.36-15.85.36 26.13.36 7.21.37-10.7.36 3.49h.72l.36 10.94h.37l.36-14.43.36 7.06.36 11.18h.36l.37 3.9.36-7.71.36-10.94.36-10.28.37 3.36h.36l.36 6.92.36 3.57h.36l.37-7.06.36-13.31.36 6.52"/><use xlink:href="#cf8ab__d" color="#F44336" transform="matrix(3.75 0 0 3.75 182.98 86.54)"/><use xlink:href="#cf8ab__d" color="#F44336" transform="matrix(3.75 0 0 3.75 220.55 22.51)"/></g><path fill="none" d="M28 45.01V162.5M371.99 45.01H28" color="#000"/></svg>