<svg xmlns="http://www.w3.org/2000/svg" xmlns:xlink="http://www.w3.org/1999/xlink" viewBox="0 0 400 200"><path fill="none" d="M0 0h400v200H0z"/><defs><use xlink:href="#ed163__a" id="ed163__c" fill="currentColor" stroke="none"/><use xlink:href="#ed163__a" id="ed163__b" stroke="currentColor" transform="rotate(180)"/><use xlink:href="#ed163__b" id="ed163__d" fill="currentColor" stroke="none"/><path id="ed163__a" stroke="currentColor" stroke-width=".267" d="m0-1.33-1.33 2h2.66z"/></defs><path fill="none" stroke="#CCC" stroke-linecap="round" stroke-linejoin="round" stroke-width=".1" d="M46.1 162.5V45.01" class="ed163__gridline" color="#000"/><g fill="none" stroke-linecap="round" stroke-linejoin="round" stroke-width="0" color="#000"><path d="M46.1 162.5V155m0-109.99v7.5"/><text fill="#000" font-family="KaTeX_Main" font-size="8" text-anchor="middle" transform="translate(46.1 172.6)"><tspan> 1</tspan></text></g><path fill="none" stroke="#CCC" stroke-linecap="round" stroke-linejoin="round" stroke-width=".1" d="M82.31 162.5V45.01" class="ed163__gridline" color="#000"/><g fill="none" stroke-linecap="round" stroke-linejoin="round" stroke-width="0" color="#000"><path d="M82.31 162.5V155m0-109.99v7.5"/><text fill="#000" font-family="KaTeX_Main" font-size="8" text-anchor="middle" transform="translate(82.31 172.6)"><tspan> 2</tspan></text></g><path fill="none" stroke="#CCC" stroke-linecap="round" stroke-linejoin="round" stroke-width=".1" d="M118.52 162.5V45.01" class="ed163__gridline" color="#000"/><g fill="none" stroke-linecap="round" stroke-linejoin="round" stroke-width="0" color="#000"><path d="M118.52 162.5V155m0-109.99v7.5"/><text fill="#000" font-family="KaTeX_Main" font-size="8" text-anchor="middle" transform="translate(118.52 172.6)"><tspan> 3</tspan></text></g><path fill="none" stroke="#CCC" stroke-linecap="round" stroke-linejoin="round" stroke-width=".1" d="M154.73 162.5V45.01" class="ed163__gridline" color="#000"/><g fill="none" stroke-linecap="round" stroke-linejoin="round" stroke-width="0" color="#000"><path d="M154.73 162.5V155m0-109.99v7.5"/><text fill="#000" font-family="KaTeX_Main" font-size="8" text-anchor="middle" transform="translate(154.73 172.6)"><tspan> 4</tspan></text></g><path fill="none" stroke="#CCC" stroke-linecap="round" stroke-linejoin="round" stroke-width=".1" d="M190.94 162.5V45.01" class="ed163__gridline" color="#000"/><g fill="none" stroke-linecap="round" stroke-linejoin="round" stroke-width="0" color="#000"><path d="M190.94 162.5V155m0-109.99v7.5"/><text fill="#000" font-family="KaTeX_Main" font-size="8" text-anchor="middle" transform="translate(190.94 172.6)"><tspan> 5</tspan></text></g><path fill="none" stroke="#CCC" stroke-linecap="round" stroke-linejoin="round" stroke-width=".1" d="M227.15 162.5V45.01" class="ed163__gridline" color="#000"/><g fill="none" stroke-linecap="round" stroke-linejoin="round" stroke-width="0" color="#000"><path d="M227.15 162.5V155m0-109.99v7.5"/><text fill="#000" font-family="KaTeX_Main" font-size="8" text-anchor="middle" transform="translate(227.15 172.6)"><tspan> 6</tspan></text></g><path fill="none" stroke="#CCC" stroke-linecap="round" stroke-linejoin="round" stroke-width=".1" d="M263.36 162.5V45.01" class="ed163__gridline" color="#000"/><g fill="none" stroke-linecap="round" stroke-linejoin="round" stroke-width="0" color="#000"><path d="M263.36 162.5V155m0-109.99v7.5"/><text fill="#000" font-family="KaTeX_Main" font-size="8" text-anchor="middle" transform="translate(263.36 172.6)"><tspan> 7</tspan></text></g><path fill="none" stroke="#CCC" stroke-linecap="round" stroke-linejoin="round" stroke-width=".1" d="M299.57 162.5V45.01" class="ed163__gridline" color="#000"/><g fill="none" stroke-linecap="round" stroke-linejoin="round" stroke-width="0" color="#000"><path d="M299.57 162.5V155m0-109.99v7.5"/><text fill="#000" font-family="KaTeX_Main" font-size="8" text-anchor="middle" transform="translate(299.57 172.6)"><tspan> 8</tspan></text></g><path fill="none" stroke="#CCC" stroke-linecap="round" stroke-linejoin="round" stroke-width=".1" d="M335.78 162.5V45.01" class="ed163__gridline" color="#000"/><g fill="none" stroke-linecap="round" stroke-linejoin="round" stroke-width="0" color="#000"><path d="M335.78 162.5V155m0-109.99v7.5"/><text fill="#000" font-family="KaTeX_Main" font-size="8" text-anchor="middle" transform="translate(335.78 172.6)"><tspan> 9</tspan></text></g><path fill="none" stroke="#CCC" stroke-linecap="round" stroke-linejoin="round" stroke-width=".1" d="M371.99 162.5V45.01" class="ed163__gridline" color="#000"/><g fill="none" stroke-linecap="round" stroke-linejoin="round" stroke-width="0" color="#000"><path d="M371.99 162.5V155m0-109.99v7.5"/><text fill="#000" font-family="KaTeX_Main" font-size="8" text-anchor="middle" transform="translate(371.99 172.6)"><tspan> 10</tspan></text></g><g fill="none" stroke-linecap="round" stroke-linejoin="round" stroke-width="0" color="#000"><path d="M371.99 162.5h-7.5"/><text fill="#000" font-family="KaTeX_Main" font-size="8" transform="translate(378.99 165.1)"><tspan>1.02</tspan></text></g><g fill="none" stroke-linecap="round" stroke-linejoin="round" stroke-width="0" color="#000"><path d="M371.99 147.81h-7.5"/><text fill="#000" font-family="KaTeX_Main" font-size="8" transform="translate(378.99 150.41)"><tspan>1.04</tspan></text></g><g fill="none" stroke-linecap="round" stroke-linejoin="round" stroke-width="0" color="#000"><path d="M371.99 133.13h-7.5"/><text fill="#000" font-family="KaTeX_Main" font-size="8" transform="translate(378.99 135.73)"><tspan>1.06</tspan></text></g><g fill="none" stroke-linecap="round" stroke-linejoin="round" stroke-width="0" color="#000"><path d="M371.99 118.44h-7.5"/><text fill="#000" font-family="KaTeX_Main" font-size="8" transform="translate(378.99 121.04)"><tspan>1.08</tspan></text></g><g fill="none" stroke-linecap="round" stroke-linejoin="round" stroke-width="0" color="#000"><path d="M371.99 103.75h-7.5"/><text fill="#000" font-family="KaTeX_Main" font-size="8" transform="translate(378.99 106.35)"><tspan>1.10</tspan></text></g><g fill="none" stroke-linecap="round" stroke-linejoin="round" stroke-width="0" color="#000"><path d="M371.99 89.07h-7.5"/><text fill="#000" font-family="KaTeX_Main" font-size="8" transform="translate(378.99 91.67)"><tspan>1.12</tspan></text></g><g fill="none" stroke-linecap="round" stroke-linejoin="round" stroke-width="0" color="#000"><path d="M371.99 74.38h-7.5"/><text fill="#000" font-family="KaTeX_Main" font-size="8" transform="translate(378.99 76.98)"><tspan>1.14</tspan></text></g><g fill="none" stroke-linecap="round" stroke-linejoin="round" stroke-width="0" color="#000"><path d="M371.99 59.7h-7.5"/><text fill="#000" font-family="KaTeX_Main" font-size="8" transform="translate(378.99 62.3)"><tspan>1.16</tspan></text></g><g fill="none" stroke-linecap="round" stroke-linejoin="round" stroke-width="0" color="#000"><path d="M371.99 45.01h-7.5"/><text fill="#000" font-family="KaTeX_Main" font-size="8" transform="translate(378.99 47.61)"><tspan>1.18</tspan></text></g><path fill="none" d="M28 45.01V162.5M371.99 45.01H28" color="#000"/><text stroke-linecap="round" stroke-linejoin="round" stroke-width="0" color="#000" font-family="KaTeX_Main" font-size="10" text-anchor="middle" transform="rotate(-90 57.63 46.13)"><tspan font-weight="bold">Allocations </tspan><tspan> / log</tspan><tspan dy="3" font-size="8">2</tspan><tspan dy="-3">(Size)</tspan></text><text stroke-linecap="round" stroke-linejoin="round" stroke-width="0" color="#000" font-family="KaTeX_Main" font-size="10" text-anchor="middle" transform="translate(199.99 195.75)"><tspan>Operations / 10</tspan><tspan dy="-5" font-size="8">6</tspan></text><text stroke-linecap="round" stroke-linejoin="round" stroke-width=".5" color="#000" font-family="KaTeX_Main" font-size="8" transform="translate(116 10.11)"><tspan>AVLBottomUp</tspan></text><g fill="none" stroke="currentColor" stroke-linecap="round" stroke-linejoin="round" stroke-width=".5" color="#000"><path stroke="#000" d="M80.5 7.51h29.9M28 94.85l.36.51.36.54.37.55.36.56.36.53.36.52.36.48.37.44.36.39.36.35.36.29.37.23.36.18.36.13.36.07.36.01.37-.03.36-.08.36-.13.36-.16.36-.2.37-.23.36-.26.36-.29.36-.31.36-.32.37-.34.36-.34.36-.33.36-.32.36-.28.37-.23.36-.17.36-.09h.36l.37.12.36.24.36.37.36.51.36.66.37.79.36.94.36 1.06.36 1.18.36 1.28.37 1.37.36 1.43.36 1.48.36 1.51.36 1.51.37 1.51.36 1.49.36 1.44.36 1.4.37 1.33.36 1.28.36 1.21.36 1.14.36 1.08.37 1.01.36.96.36.91.36.86.36.82.37.78.36.75.36.71.36.69.36.66.37.63.36.6.36.58.36.53.37.51.36.46.36.42.36.38.36.33.37.28.36.23.36.17.36.13.36.07.37.03.36-.03.36-.06.36-.11.36-.14.37-.17.36-.2.36-.21.36-.23.36-.23.37-.24.36-.22.36-.22.36-.19.37-.18.36-.14.36-.12.36-.08.36-.05h.37l.36.03.36.07.36.1.36.14.37.18.36.2.36.24.36.25.36.28.37.29.36.31.36.31.36.32.37.31.36.31.36.29.36.28.36.26.37.24.36.21.36.19.36.15.36.12.37.08.36.05.36.01.36-.03.36-.06.37-.09.36-.13.36-.15.36-.18.36-.2.37-.22.36-.23.36-.25.36-.25.37-.26.36-.25.36-.26.36-.24.36-.23.37-.22.36-.21.36-.19.36-.17.36-.15.37-.14.36-.12.36-.1.36-.08.36-.07.37-.06.36-.05.36-.03.36-.03.37-.02.36-.02.36-.01.36-.01.36-.01.37-.01.36-.01.36-.01.36-.01.36-.01.37-.01.36-.01.36-.01H91l.37.01.36.01.36.02.36.02.36.04.37.05.36.06.36.07.36.09.37.1.36.11.36.14.36.14.36.16.37.18.36.19.36.2.36.22.36.23.37.23.36.25.36.25.36.25.36.26.37.25.36.25.36.23.36.23.37.21.36.19.36.16.36.15.36.11.37.08.36.06.36.01.36-.01.36-.05.37-.09.36-.12.36-.16.36-.19.36-.22.37-.24.36-.28.36-.29.36-.31.37-.33.36-.33.36-.35.36-.35.36-.34.37-.35.36-.33.36-.33.36-.31.36-.29.37-.28.36-.25.36-.24.36-.21.36-.18.37-.16.36-.13.36-.11.36-.08.36-.05.37-.03.36-.01.36.02.36.04.37.06.36.08.36.09.36.11.36.13.37.13.36.15.36.15.36.16.36.16.37.17.36.16.36.16.36.16.36.16.37.15.36.14.36.14.36.12.37.12.36.1.36.1.36.08.36.07.37.06.36.05.36.03.36.03.36.01h.37l.36-.01.36-.02.36-.03.36-.04.37-.05.36-.06.36-.06.36-.07.36-.08.37-.09.36-.09.36-.09.36-.1.37-.1.36-.11.36-.1.36-.1.36-.1.37-.1.36-.1.36-.09.36-.09.36-.08.37-.07.36-.07.36-.06.36-.05.36-.05.37-.03.36-.03.36-.02.36-.01.37-.01h.36l.36.01.36.01.36.02.37.02.36.03.36.03.36.03.36.03.37.03.36.03.36.03.36.03.36.03.37.02.36.03.36.02.36.01.36.02.37.01.36.01.36.01h.36l.37.01h1.44l.37.01h.36l.36.01.36.01.36.01.37.02.36.02.36.03.36.04.36.04.37.05.36.05.36.07.36.07.37.07.36.09.36.09.36.11.36.1.37.12.36.12.36.13.36.13.36.13.37.14.36.14.36.14.36.14.36.13.37.14.36.13.36.12.36.12.37.11.36.1.36.09.36.08.36.07.37.05.36.04.36.03.36.01h.36l.37-.01.36-.03.36-.04.36-.05.36-.07.37-.07.36-.09.36-.1.36-.1.36-.12.37-.12.36-.12.36-.13.36-.13.37-.13.36-.14.36-.13.36-.13.36-.14.37-.12.36-.13.36-.12.36-.12.36-.11.37-.11.36-.11.36-.1.36-.09.36-.09.37-.09.36-.08.36-.08.36-.08.37-.08.36-.07.36-.08.36-.07.36-.07.37-.07.36-.07.36-.08.36-.07.36-.08.37-.07.36-.08.36-.08.36-.07.36-.08.37-.08.36-.07.36-.08.36-.07.36-.07.37-.07.36-.06.36-.06.36-.05.37-.04.36-.03.36-.03.36-.02h.73l.36.02.36.03.36.04.36.05.37.06.36.08.36.09.36.11.36.11.37.13.36.14.36.15.36.17.37.17.36.18.36.19.36.2.36.21.37.21.36.22.36.23.36.23.36.23.37.23.36.24.36.24.36.24.36.24.37.24.36.24.36.23.36.24.37.23.36.23.36.23.36.22.36.22.37.21.36.21.36.19.36.19.36.19.37.17.36.16.36.15.36.13.36.12.37.11.36.09.36.07.36.06.36.03.37.02.36-.01.36-.03.36-.05.37-.08.36-.09.36-.12.36-.15.36-.17.37-.19.36-.21.36-.23.36-.26.36-.27.37-.29.36-.31.36-.32.36-.34.36-.35.37-.36.36-.37.36-.38.36-.38.37-.38.36-.38.36-.39.36-.38.36-.37.37-.38.36-.36.36-.35.36-.35.36-.33.37-.32.36-.3.36-.29.36-.27.36-.25.37-.24.36-.22.36-.19.36-.18.36-.16.37-.14.36-.13.36-.1.36-.08.37-.07.36-.05.36-.03.36-.02.36-.01h.37l.36.02.36.02.36.04.36.04.37.04.36.05.36.05.36.05.36.05.37.05.36.04.36.05.36.04.37.03.36.03.36.03.36.02.36.02.37.01.36.01.36.01h3.62l.36.01.36.01.37.02.36.02.36.02.36.03.37.03.36.04.36.03.36.05.36.04.37.05.36.05.36.06.36.06.36.06.37.06.36.06.36.07.36.06.36.07.37.07.36.06.36.07.36.07.37.07.36.06.36.07.36.06.36.07.37.06.36.06.36.06.36.06.36.05.37.05.36.06.36.04.36.05.36.04.37.04.36.04.36.04.36.03.37.04.36.02.36.03.36.03.36.02.37.03.36.02.36.02.36.02.36.02.37.01.36.02.36.02.36.01.36.02.37.01.36.02.36.02.36.01.36.02.37.02.36.01.36.02.36.02.37.01.36.02.36.01.36.02.36.01.37.01h1.08l.36-.01.37-.02.36-.02.36-.03.36-.03.36-.04.37-.05.36-.06.36-.07.36-.08.37-.08.36-.09.36-.09.36-.1.36-.11.37-.11.36-.11.36-.1.36-.11.36-.1.37-.1.36-.08.36-.08.36-.06.36-.04.37-.03.36-.01.36.02.36.04.36.06.37.09.36.12.36.15.36.18.37.21.36.23.36.26.36.29.36.31.37.33.36.35.36.37.36.38.36.39.37.39.36.39.36.39.36.39.36.37.37.36.36.33.36.31.36.29.37.26.36.22.36.19.36.15.36.12.37.08.36.04h.36l.36-.03.36-.06.37-.1.36-.13.36-.15.36-.17.36-.19.37-.21.36-.22.36-.23.36-.24.36-.23.37-.24.36-.23.36-.22.36-.22.37-.2.36-.2.36-.18.36-.17.36-.15.37-.15.36-.13.36-.12.36-.11.36-.09.37-.09.36-.08.36-.07.36-.06.36-.06.37-.05.36-.04.36-.04.36-.03.37-.03.36-.02.36-.01.36-.01.36.01.37.01.36.02.36.04.36.04.36.06.37.07.36.08.36.09.36.11.36.12.37.13.36.14.36.15.36.16.37.16.36.16.36.17.36.16.36.16.37.15.36.14.36.12.36.1.36.09.37.06.36.05.36.01.36-.01.36-.03.37-.06.36-.08.36-.1.36-.12.36-.14.37-.16.36-.16.36-.17.36-.18.37-.18.36-.17.36-.18.36-.16.36-.15.37-.14.36-.12.36-.1.36-.09.36-.06.37-.05.36-.02h.36l.36.02.36.04.37.06.36.07.36.1.36.1.37.12.36.12.36.13.36.13.36.12.37.12.36.1.36.09.36.07.36.05.37.02h.36l.36-.04.36-.06.36-.09.37-.12.36-.14.36-.17.36-.18.36-.2.37-.21.36-.22.36-.21.36-.22.37-.21.36-.2.36-.2.36-.18.36-.17.37-.16.36-.15.36-.15.36-.15.36-.14.37-.16.36-.16.36-.17.36-.19.36-.2.37-.23.36-.24.36-.26.36-.28.37-.28.36-.29.36-.28.36-.27.36-.25.37-.22.36-.17.36-.13.36-.07h.36l.37.07.36.14.36.22.36.29.36.36.37.41.36.46.36.5.36.51.36.52.37.51.36.48.36.44.36.39.37.33.36.29.36.23.36.19.36.15.37.14.36.14.36.16.36.18.36.21.37.26.36.31.36.34.36.36.36.38.37.38.36.35.36.3.36.24.37.16.36.08.36-.01.36-.09.36-.17.37-.23.36-.26.36-.28.36-.26.36-.22.37-.15.36-.04.36.07.36.19.36.3.37.41.36.46.36.46.36.42.37.29.36.1.36-.15.36-.42.36-.71.37-.98.36-1.18.36-1.33.36-1.37.36-1.33.37-1.21.36-1.01.36-.79.36-.54.36-.3.37-.07.36.13.36.33.36.48.36.58.37.57.36.42.36.11.36-.34.37-.79.36-1.11.36-1.18.36-1.04.36-.76.37-.46.36-.08.36.22"/><use xlink:href="#ed163__c" transform="matrix(3.75 0 0 3.75 353.89 138.17)"/><use xlink:href="#ed163__c" transform="matrix(3.75 0 0 3.75 95.45 7.51)"/></g><text stroke-linecap="round" stroke-linejoin="round" color="#000" font-family="KaTeX_Main" font-size="8" transform="translate(116 25.11)"><tspan>AVLTopDown</tspan></text><g fill="none" stroke="currentColor" stroke-linecap="round" stroke-linejoin="round" color="#000"><path stroke="#29C3F6" stroke-dasharray="2.5,4.0" d="M80.5 22.51h29.9M28 101.22l.36-.95.36-.84.37-.69.36-.53.36-.36.36-.19.36-.03.37.13.36.26.36.39.36.49.37.57.36.63.36.67.36.69.36.7.37.69.36.67.36.64.36.61.36.58.37.55.36.51.36.48.36.44.36.42.37.38.36.35.36.31.36.27.36.24.37.19.36.14.36.09.36.04.37-.03.36-.08.36-.14.36-.21.36-.27.37-.32.36-.37.36-.42.36-.46.36-.49.37-.51.36-.52.36-.51.36-.5.36-.46.37-.43.36-.38.36-.31.36-.25.37-.17.36-.09h.36l.36.08.36.15.37.23.36.3.36.35.36.4.36.43.37.46.36.46.36.47.36.44.36.43.37.38.36.35.36.29.36.25.37.19.36.14.36.09.36.03h.36l.37-.05.36-.08.36-.1.36-.13.36-.14.37-.14.36-.15.36-.14.36-.14.36-.13.37-.11.36-.1.36-.09.36-.08.36-.06.37-.06.36-.04.36-.04.36-.04.37-.04.36-.04.36-.05.36-.05.36-.06.37-.07.36-.07.36-.09.36-.08.36-.09.37-.1.36-.09.36-.08.36-.07.36-.07.37-.04.36-.03.36-.01.36.01.37.04.36.06.36.08.36.11.36.13.37.14.36.16.36.16.36.18.36.17.37.18.36.16.36.15.36.14.36.11.37.09.36.06.36.03.36-.01.36-.04.37-.08.36-.12.36-.15.36-.18.37-.22.36-.25.36-.27.36-.3.36-.32.37-.33.36-.33.36-.35.36-.34.36-.34.37-.33.36-.32.36-.3.36-.28.36-.27.37-.25.36-.22.36-.21.36-.19.37-.16.36-.16.36-.14.36-.12.36-.12.37-.12.36-.11.36-.11.36-.11.36-.12.37-.11.36-.13.36-.13.36-.13.36-.14.37-.14.36-.14.36-.14.36-.13.36-.13.37-.12.36-.12.36-.1.36-.08.37-.07.36-.05.36-.03.36-.02.36.01.37.02.36.04.36.06.36.08.36.08.37.1.36.1.36.11.36.11.36.12.37.11.36.11.36.1.36.09.37.09.36.07.36.06.36.05.36.04.37.02.36.01h.36l.36-.01.36-.03.37-.04.36-.06.36-.06.36-.08.36-.09.37-.1.36-.11.36-.13.36-.14.37-.15.36-.16.36-.18.36-.2.36-.21.37-.22.36-.24.36-.26.36-.27.36-.29.37-.31.36-.32.36-.33.36-.35.36-.36.37-.38.36-.38.36-.39.36-.4.36-.41.37-.41.36-.4.36-.41.36-.41.37-.4.36-.39.36-.38.36-.36.36-.35.37-.34.36-.31.36-.3.36-.27.36-.24.37-.22.36-.2.36-.16.36-.13.36-.11.37-.08.36-.04.36-.02.36.01.37.03.36.06.36.09.36.1.36.12.37.14.36.15.36.17.36.17.36.17.37.18.36.18.36.18.36.17.36.16.37.16.36.14.36.14.36.12.36.11.37.1.36.08.36.07.36.06.37.04.36.04.36.02.36.02.36.01.37.01h.72l.36-.01h.36l.37-.01h1.08l.36-.01.37.01h2.17l.36-.01.36-.02.37-.01.36-.03.36-.03.36-.04.36-.04.37-.06.36-.06.36-.06.36-.07.36-.07.37-.08.36-.07.36-.08.36-.07.36-.07.37-.06.36-.05.36-.04.36-.03.37-.01h.36l.36.02.36.03.36.06.37.08.36.1.36.11.36.14.36.15.37.17.36.19.36.19.36.22.36.22.37.22.36.24.36.23.36.24.37.23.36.23.36.23.36.21.36.21.37.2.36.18.36.18.36.16.36.15.37.13.36.13.36.11.36.11.36.1.37.09.36.08.36.08.36.08.37.07.36.08.36.08.36.08.36.08.37.09.36.09.36.1.36.1.36.1.37.11.36.11.36.12.36.11.36.11.37.11.36.11.36.1.36.1.36.08.37.08.36.06.36.05.36.04.37.02.36.01.36-.02.36-.03.36-.04.37-.07.36-.09.36-.1.36-.12.36-.15.37-.15.36-.18.36-.19.36-.21.36-.23.37-.24.36-.25.36-.26.36-.28.37-.28.36-.29.36-.3.36-.3.36-.31.37-.31.36-.31.36-.3.36-.3.36-.3.37-.29.36-.28.36-.27.36-.25.36-.25.37-.22.36-.21.36-.18.36-.17.36-.15.37-.12.36-.09.36-.07.36-.05.37-.02h.36l.36.03.36.06.36.08.37.1.36.13.36.15.36.16.36.19.37.2.36.22.36.22.36.24.36.24.37.25.36.24.36.25.36.24.37.23.36.23.36.2.36.2.36.17.37.15.36.13.36.11.36.07.36.05.37.01.36-.01.36-.05.36-.08.36-.12.37-.15.36-.18.36-.22.36-.24.37-.28.36-.31.36-.33.36-.36.36-.38.37-.4.36-.41.36-.43.36-.45.36-.45.37-.45.36-.46.36-.45.36-.45.36-.44.37-.43.36-.41.36-.39.36-.38.36-.35.37-.32.36-.29.36-.26.36-.23.37-.2.36-.15.36-.12.36-.08.36-.05h.37l.36.03.36.07.36.11.36.14.37.18.36.2.36.24.36.26.36.28.37.31.36.32.36.33.36.34.37.34.36.35.36.34.36.34.36.32.37.31.36.3.36.27.36.25.36.22.37.19.36.17.36.13.36.1.36.07.37.04h.36l.36-.02.36-.05.36-.07.37-.1.36-.12.36-.13.36-.15.37-.16.36-.16.36-.17.36-.16.36-.16.37-.15.36-.14.36-.13.36-.11.36-.09.37-.07.36-.05.36-.03.36-.01.36.02.37.03.36.05.36.07.36.08.37.09.36.11.36.1.36.11.36.11.37.1.36.09.36.07.36.06.36.05.37.02.36-.01.36-.03.36-.05.36-.09.37-.11.36-.14.36-.17.36-.2.36-.22.37-.25.36-.26.36-.29.36-.31.37-.32.36-.33.36-.33.36-.35.36-.34.37-.34.36-.34.36-.33.36-.32.36-.31.37-.3.36-.28.36-.26.36-.24.36-.23.37-.2.36-.19.36-.16.36-.15.37-.12.36-.1.36-.09.36-.06.36-.05.37-.03.36-.02.36.01.36.02.36.03.37.05.36.06.36.08.36.09.36.11.37.12.36.14.36.15.36.16.37.18.36.19.36.21.36.22.36.23.37.25.36.26.36.26.36.28.36.28.37.29.36.29.36.3.36.29.36.29.37.28.36.28.36.26.36.26.36.23.37.22.36.2.36.19.36.15.37.14.36.11.36.09.36.06.36.04.37.02h.36l.36-.03.36-.04.36-.05.37-.07.36-.08.36-.08.36-.09.36-.09.37-.08.36-.08.36-.07.36-.05.37-.04.36-.02h.36l.36.03.36.04.37.08.36.09.36.13.36.14.36.17.37.19.36.21.36.22.36.24.36.24.37.25.36.26.36.25.36.24.36.23.37.22.36.19.36.18.36.15.37.12.36.09.36.06.36.03.36-.01.37-.05.36-.08.36-.11.36-.15.36-.18.37-.22.36-.24.36-.26.36-.29.36-.31.37-.33.36-.35.36-.36.36-.36.37-.38.36-.37.36-.38.36-.37.36-.37.37-.36.36-.35.36-.34.36-.32.36-.3.37-.28.36-.25.36-.23.36-.2.36-.18.37-.14.36-.11.36-.07.36-.03h.36l.37.04.36.08.36.13.36.16.37.2.36.25.36.28.36.32.36.35.37.39.36.41.36.44.36.46.36.48.37.48.36.5.36.49.36.49.36.47.37.46.36.43.36.4.36.37.37.33.36.28.36.24.36.19.36.14.37.09.36.03.36-.01.36-.07.36-.11.37-.16.36-.2.36-.24.36-.27.36-.31.37-.33.36-.35.36-.37.36-.39.37-.39.36-.41.36-.41.36-.42.36-.42.37-.42.36-.42.36-.42.36-.41.36-.42.37-.41.36-.41.36-.41.36-.41.36-.41.37-.4.36-.41.36-.4.36-.4.36-.4.37-.39.36-.38.36-.38.36-.37.37-.36.36-.35.36-.33.36-.32.36-.3.37-.27.36-.25.36-.22.36-.19.36-.15.37-.12.36-.08.36-.04.36.01.36.06.37.1.36.16.36.21.36.27.37.33.36.39.36.45.36.51.36.57.37.63.36.69.36.74.36.78.36.82.37.85.36.86.36.88.36.86.36.85.37.82.36.77.36.7.36.64.36.54.37.46.36.35.36.24.36.14.37.02.36-.08.36-.18.36-.28.36-.36.37-.44.36-.49.36-.55.36-.58.36-.61.37-.63.36-.62.36-.63.36-.61.36-.59.37-.57.36-.53.36-.5.36-.47.37-.41.36-.37.36-.32.36-.26.36-.19.37-.13.36-.04.36.04.36.13.36.23.37.33.36.44.36.55.36.65.36.75.37.85.36.93.36 1 .36 1.05.36 1.07.37 1.07.36 1.05.36 1 .36.91.37.81.36.68.36.54.36.37.36.21.37.05.36-.12.36-.27.36-.4.36-.51.37-.61.36-.68.36-.73.36-.77.36-.78.37-.77.36-.75.36-.72.36-.68.37-.62.36-.55.36-.48.36-.39.36-.31.37-.23.36-.14.36-.09.36-.03.36-.03.37-.03.36-.09.36-.17.36-.29.36-.43.37-.6.36-.77.36-.94.36-1.11.37-1.24.36-1.35.36-1.42.36-1.44.36-1.39.37-1.31.36-1.17.36-1.01.36-.85.36-.72.37-.64.36-.6.36-.61.36-.6.36-.57.37-.42.36-.18.36.13.36.45.36.69.37.84.36.9.36 1 .36 1.27.37 1.77.36 2.38.36 2.94.36 3.28.36 3.42.37 2.82.36-1.02.36-10.17"/><use xlink:href="#ed163__d" color="#29C3F6" transform="matrix(3.75 0 0 3.75 67.83 106.03)"/><use xlink:href="#ed163__d" color="#29C3F6" transform="matrix(3.75 0 0 3.75 95.45 22.51)"/></g><text stroke-linecap="round" stroke-linejoin="round" color="#000" font-family="KaTeX_Main" font-size="8" transform="translate(241.1 10.11)"><tspan>AVLWeakBottomUp</tspan></text><g fill="none" stroke="currentColor" stroke-linecap="round" stroke-linejoin="round" color="#000"><path stroke="#00C853" d="M205.6 7.51h29.9M28 81.37l.36.19.36.19.37.18.36.17.36.16.36.13.36.11.37.09.36.05.36.03.36-.01.37-.04.36-.06.36-.1.36-.13.36-.16.37-.19.36-.22.36-.24.36-.27.36-.3.37-.31.36-.32.36-.34.36-.34.36-.34.37-.33.36-.32.36-.3.36-.28.36-.25.37-.22.36-.19.36-.16.36-.13.37-.09.36-.06.36-.03h.36l.36.03.37.06.36.08.36.1.36.11.36.13.37.13.36.14.36.14.36.13.36.12.37.1.36.09.36.06.36.04.37.01.36-.02.36-.05.36-.07.36-.1.37-.11.36-.14.36-.15.36-.15.36-.17.37-.16.36-.15.36-.15.36-.14.36-.11.37-.1.36-.07.36-.05.36-.02h.37l.36.04.36.06.36.1.36.12.37.15.36.17.36.21.36.23.36.25.37.27.36.29.36.31.36.32.36.33.37.34.36.35.36.35.36.35.36.34.37.34.36.33.36.32.36.3.37.29.36.27.36.25.36.22.36.21.37.18.36.15.36.13.36.11.36.08.37.06.36.04.36.02.36.01.36-.01.37-.02.36-.03.36-.03.36-.04.37-.04.36-.03.36-.03.36-.03.36-.01.37-.01.36.01.36.01.36.03.36.04.37.05.36.05.36.06.36.07.36.07.37.07.36.07.36.07.36.06.36.06.37.05.36.04.36.03.36.02.37.01h.36l.36-.01.36-.01.36-.03.37-.03.36-.03.36-.04.36-.04.36-.04.37-.04.36-.03.36-.04.36-.03.36-.03.37-.02.36-.02.36-.02.36-.01h.37l.36-.01h.36l.36-.01h.73l.36-.01.36-.01.36-.01.36-.02.37-.02.36-.03.36-.04.36-.05.36-.06.37-.06.36-.08.36-.09.36-.1.36-.11.37-.12.36-.13.36-.14.36-.16.37-.16.36-.18.36-.19.36-.2.36-.21.37-.22.36-.23.36-.24.36-.25.36-.25.37-.26.36-.26.36-.27.36-.27.36-.26.37-.27.36-.27.36-.26.36-.26.37-.25.36-.24.36-.23.36-.22.36-.21.37-.19.36-.19.36-.17.36-.15.36-.15.37-.13.36-.11.36-.1.36-.09.36-.08.37-.06.36-.06.36-.04.36-.03.37-.03.36-.01.36-.01h.72l.37.02.36.02.36.02.36.04.36.03.37.05.36.06.36.06.36.07.36.09.37.09.36.11.36.12.36.13.36.15.37.16.36.18.36.2.36.21.37.23.36.24.36.26.36.28.36.29.37.3.36.31.36.33.36.33.36.35.37.35.36.35.36.35.36.36.36.35.37.35.36.35.36.33.36.33.37.32.36.3.36.3.36.28.36.26.37.25.36.23.36.21.36.2.36.18.37.17.36.15.36.13.36.11.36.1.37.08.36.07.36.05.36.04.36.03.37.01.36.01.36-.01.36-.02.37-.03.36-.04.36-.04.36-.06.36-.06.37-.07.36-.07.36-.09.36-.08.36-.09.37-.09.36-.1.36-.1.36-.1.36-.1.37-.11.36-.1.36-.11.36-.1.37-.1.36-.1.36-.1.36-.09.36-.09.37-.09.36-.08.36-.08.36-.08.36-.06.37-.06.36-.06.36-.05.36-.04.36-.04.37-.03.36-.02.36-.02.36-.01.36-.01h.73l.36.01.36.01.37.01.36.02.36.02.36.02.36.02.37.02.36.02.36.02.36.01.36.01.37.01.36.01h1.08l.37-.01.36-.02.36-.02.36-.02.37-.03.36-.03.36-.03.36-.04.36-.04.37-.05.36-.05.36-.05.36-.05.36-.05.37-.06.36-.06.36-.06.36-.06.36-.06.37-.07.36-.06.36-.07.36-.07.37-.07.36-.07.36-.07.36-.07.36-.07.37-.07.36-.07.36-.07.36-.08.36-.07.37-.07.36-.07.36-.06.36-.07.36-.06.37-.06.36-.06.36-.06.36-.05.36-.05.37-.05.36-.05.36-.04.36-.04.37-.04.36-.03.36-.03.36-.03.36-.03.37-.03.36-.03.36-.03.36-.03.36-.03.37-.03.36-.04.36-.03.36-.04.36-.05.37-.04.36-.05.36-.06.36-.05.37-.07.36-.07.36-.07.36-.08.36-.08.37-.09.36-.09.36-.09.36-.1.36-.11.37-.1.36-.11.36-.11.36-.11.36-.11.37-.12.36-.11.36-.1.36-.11.36-.1.37-.1.36-.09.36-.09.36-.08.37-.07.36-.06.36-.05.36-.05.36-.03.37-.03.36-.01.36-.01.36.01.36.02.37.03.36.04.36.05.36.06.36.07.37.08.36.09.36.1.36.1.37.12.36.12.36.13.36.13.36.14.37.14.36.15.36.15.36.15.36.16.37.15.36.16.36.16.36.16.36.16.37.16.36.15.36.15.36.16.37.14.36.15.36.14.36.13.36.14.37.12.36.13.36.11.36.12.36.1.37.11.36.1.36.09.36.09.36.08.37.08.36.08.36.07.36.06.36.07.37.06.36.06.36.05.36.06.37.05.36.04.36.05.36.04.36.04.37.03.36.03.36.03.36.03.36.01.37.02.36.01h.72l.36-.01.37-.02.36-.03.36-.03.36-.04.37-.06.36-.06.36-.07.36-.08.36-.09.37-.1.36-.11.36-.12.36-.13.36-.13.37-.14.36-.15.36-.16.36-.16.36-.16.37-.16.36-.17.36-.17.36-.16.36-.16.37-.16.36-.16.36-.14.36-.14.37-.14.36-.12.36-.11.36-.11.36-.09.37-.09.36-.07.36-.07.36-.05.36-.05.37-.04.36-.03.36-.02.36-.02.36-.01.37-.02h.36l.36-.01.36-.01h.37l.36-.01.36-.01.36-.02.36-.02.37-.02.36-.03.36-.04.36-.04.36-.05.37-.05.36-.06.36-.06.36-.07.36-.08.37-.08.36-.08.36-.09.36-.09.36-.09.37-.09.36-.09.36-.09.36-.08.37-.09.36-.08.36-.07.36-.07.36-.06.37-.06.36-.05.36-.03.36-.03.36-.01.37-.01.36.01.36.02.36.03.36.05.37.06.36.07.36.08.36.1.37.11.36.12.36.13.36.14.36.15.37.16.36.17.36.17.36.17.36.18.37.18.36.18.36.18.36.17.36.18.37.17.36.16.36.16.36.15.37.15.36.14.36.13.36.13.36.12.37.12.36.1.36.11.36.1.36.09.37.09.36.09.36.09.36.09.36.08.37.09.36.08.36.09.36.08.36.09.37.09.36.08.36.09.36.08.37.08.36.08.36.08.36.07.36.06.37.06.36.05.36.05.36.03.36.03.37.02h.72l.36-.02.36-.02.37-.04.36-.05.36-.06.36-.07.37-.08.36-.09.36-.1.36-.12.36-.12.37-.13.36-.14.36-.14.36-.16.36-.17.37-.17.36-.18.36-.19.36-.19.36-.2.37-.21.36-.21.36-.21.36-.22.36-.22.37-.22.36-.22.36-.22.36-.21.37-.21.36-.2.36-.19.36-.18.36-.17.37-.15.36-.14.36-.12.36-.1.36-.08.37-.06.36-.05.36-.02h.36l.36.01.37.03.36.05.36.06.36.08.37.09.36.1.36.11.36.12.36.12.37.12.36.13.36.13.36.13.36.13.37.12.36.12.36.12.36.11.36.11.37.1.36.09.36.09.36.08.36.08.37.07.36.06.36.06.36.05.37.05.36.05.36.03.36.04.36.03.37.02.36.02.36.02.36.01h1.09l.36-.02.36-.02.36-.02.37-.04.36-.04.36-.05.36-.06.37-.08.36-.08.36-.09.36-.11.36-.11.37-.13.36-.14.36-.14.36-.15.36-.15.37-.16.36-.16.36-.16.36-.16.36-.15.37-.15.36-.13.36-.13.36-.1.37-.1.36-.07.36-.06.36-.04.36-.02.37-.01.36.02.36.04.36.05.36.08.37.09.36.11.36.12.36.14.36.15.37.17.36.18.36.19.36.2.36.21.37.22.36.23.36.24.36.24.37.24.36.25.36.25.36.25.36.25.37.25.36.24.36.24.36.22.36.22.37.21.36.2.36.18.36.18.36.16.37.15.36.13.36.13.36.11.37.1.36.09.36.08.36.06.36.06.37.05.36.03.36.03.36.01h.36l.37-.01.36-.02.36-.03.36-.05.36-.07.37-.08.36-.1.36-.12.36-.14.36-.16.37-.18.36-.2.36-.22.36-.23.37-.26.36-.26.36-.27.36-.28.36-.28.37-.26.36-.26.36-.24.36-.21.36-.18.37-.14.36-.11.36-.06.36-.02.36.02.37.06.36.1.36.13.36.15.37.17.36.18.36.18.36.18.36.17.37.16.36.15.36.13.36.12.36.1.37.1.36.08.36.09.36.08.36.09.37.09.36.09.36.11.36.11.36.12.37.12.36.12.36.11.36.11.37.1.36.08.36.06.36.04.36.01.37-.01.36-.06.36-.08.36-.12.36-.15.37-.18.36-.21.36-.24.36-.26.36-.28.37-.31.36-.32.36-.34.36-.35.37-.37.36-.38.36-.38.36-.38.36-.38.37-.36.36-.34.36-.31.36-.27.36-.23.37-.18.36-.13.36-.09.36-.06.36-.03.37-.03.36-.03.36-.05.36-.08.37-.13.36-.16.36-.21.36-.23.36-.26.37-.25.36-.23.36-.18.36-.1.36-.01.37.11.36.24.36.39.36.54.36.69.37.84.36.95.36.99.36.96.36.85.37.69.36.54.36.43.36.3.37.08.36-.4.36-1.14.36-1.86.36-1.88.37-.55.36 1.35.36-1.05"/><use xlink:href="#ed163__a" color="#00C853" transform="matrix(3.75 0 0 3.75 125.4 85.3)"/><use xlink:href="#ed163__a" color="#00C853" transform="matrix(3.75 0 0 3.75 220.55 7.51)"/></g><path fill="none" d="M28 45.01V162.5M371.99 45.01H28" color="#000"/></svg>