<svg xmlns="http://www.w3.org/2000/svg" xmlns:xlink="http://www.w3.org/1999/xlink" viewBox="0 0 400 200"><path fill="none" d="M0 0h400v200H0z"/><defs><path id="5c387__c" fill="currentColor" stroke="currentColor" stroke-width=".267" d="M-1-1h2v2h-2z"/><path id="5c387__a" stroke="currentColor" stroke-width=".267" d="m0-1.33-1.33 2h2.66z"/><path id="5c387__e" stroke="currentColor" stroke-width=".267" d="M0 1.33 1.265.411.782-1.067l-1.564-.009-.483 1.487z"/><use xlink:href="#5c387__a" id="5c387__g" fill="currentColor" stroke="none"/><use xlink:href="#5c387__a" id="5c387__b" stroke="currentColor" transform="rotate(180)"/><use xlink:href="#5c387__b" id="5c387__f" fill="currentColor" stroke="none"/><circle id="5c387__d" cx="0" cy="0" r="1" stroke="currentColor" stroke-width=".267"/></defs><path fill="none" stroke="#CCC" stroke-linecap="round" stroke-linejoin="round" stroke-width=".1" d="M46.1 162.5V60.01" class="5c387__gridline" color="#000"/><g fill="none" stroke-linecap="round" stroke-linejoin="round" stroke-width="0" color="#000"><path d="M46.1 162.5V155m0-94.99v7.5"/><text fill="#000" font-family="KaTeX_Main" font-size="8" text-anchor="middle" transform="translate(46.1 172.6)"><tspan> 1</tspan></text></g><path fill="none" stroke="#CCC" stroke-linecap="round" stroke-linejoin="round" stroke-width=".1" d="M82.31 162.5V60.01" class="5c387__gridline" color="#000"/><g fill="none" stroke-linecap="round" stroke-linejoin="round" stroke-width="0" color="#000"><path d="M82.31 162.5V155m0-94.99v7.5"/><text fill="#000" font-family="KaTeX_Main" font-size="8" text-anchor="middle" transform="translate(82.31 172.6)"><tspan> 2</tspan></text></g><path fill="none" stroke="#CCC" stroke-linecap="round" stroke-linejoin="round" stroke-width=".1" d="M118.52 162.5V60.01" class="5c387__gridline" color="#000"/><g fill="none" stroke-linecap="round" stroke-linejoin="round" stroke-width="0" color="#000"><path d="M118.52 162.5V155m0-94.99v7.5"/><text fill="#000" font-family="KaTeX_Main" font-size="8" text-anchor="middle" transform="translate(118.52 172.6)"><tspan> 3</tspan></text></g><path fill="none" stroke="#CCC" stroke-linecap="round" stroke-linejoin="round" stroke-width=".1" d="M154.73 162.5V60.01" class="5c387__gridline" color="#000"/><g fill="none" stroke-linecap="round" stroke-linejoin="round" stroke-width="0" color="#000"><path d="M154.73 162.5V155m0-94.99v7.5"/><text fill="#000" font-family="KaTeX_Main" font-size="8" text-anchor="middle" transform="translate(154.73 172.6)"><tspan> 4</tspan></text></g><path fill="none" stroke="#CCC" stroke-linecap="round" stroke-linejoin="round" stroke-width=".1" d="M190.94 162.5V60.01" class="5c387__gridline" color="#000"/><g fill="none" stroke-linecap="round" stroke-linejoin="round" stroke-width="0" color="#000"><path d="M190.94 162.5V155m0-94.99v7.5"/><text fill="#000" font-family="KaTeX_Main" font-size="8" text-anchor="middle" transform="translate(190.94 172.6)"><tspan> 5</tspan></text></g><path fill="none" stroke="#CCC" stroke-linecap="round" stroke-linejoin="round" stroke-width=".1" d="M227.15 162.5V60.01" class="5c387__gridline" color="#000"/><g fill="none" stroke-linecap="round" stroke-linejoin="round" stroke-width="0" color="#000"><path d="M227.15 162.5V155m0-94.99v7.5"/><text fill="#000" font-family="KaTeX_Main" font-size="8" text-anchor="middle" transform="translate(227.15 172.6)"><tspan> 6</tspan></text></g><path fill="none" stroke="#CCC" stroke-linecap="round" stroke-linejoin="round" stroke-width=".1" d="M263.36 162.5V60.01" class="5c387__gridline" color="#000"/><g fill="none" stroke-linecap="round" stroke-linejoin="round" stroke-width="0" color="#000"><path d="M263.36 162.5V155m0-94.99v7.5"/><text fill="#000" font-family="KaTeX_Main" font-size="8" text-anchor="middle" transform="translate(263.36 172.6)"><tspan> 7</tspan></text></g><path fill="none" stroke="#CCC" stroke-linecap="round" stroke-linejoin="round" stroke-width=".1" d="M299.57 162.5V60.01" class="5c387__gridline" color="#000"/><g fill="none" stroke-linecap="round" stroke-linejoin="round" stroke-width="0" color="#000"><path d="M299.57 162.5V155m0-94.99v7.5"/><text fill="#000" font-family="KaTeX_Main" font-size="8" text-anchor="middle" transform="translate(299.57 172.6)"><tspan> 8</tspan></text></g><path fill="none" stroke="#CCC" stroke-linecap="round" stroke-linejoin="round" stroke-width=".1" d="M335.78 162.5V60.01" class="5c387__gridline" color="#000"/><g fill="none" stroke-linecap="round" stroke-linejoin="round" stroke-width="0" color="#000"><path d="M335.78 162.5V155m0-94.99v7.5"/><text fill="#000" font-family="KaTeX_Main" font-size="8" text-anchor="middle" transform="translate(335.78 172.6)"><tspan> 9</tspan></text></g><path fill="none" stroke="#CCC" stroke-linecap="round" stroke-linejoin="round" stroke-width=".1" d="M371.99 162.5V60.01" class="5c387__gridline" color="#000"/><g fill="none" stroke-linecap="round" stroke-linejoin="round" stroke-width="0" color="#000"><path d="M371.99 162.5V155m0-94.99v7.5"/><text fill="#000" font-family="KaTeX_Main" font-size="8" text-anchor="middle" transform="translate(371.99 172.6)"><tspan> 10</tspan></text></g><g fill="none" stroke-linecap="round" stroke-linejoin="round" stroke-width="0" color="#000"><path d="M371.99 162.5h-7.5"/><text fill="#000" font-family="KaTeX_Main" font-size="8" transform="translate(378.99 165.1)"><tspan>1.00</tspan></text></g><g fill="none" stroke-linecap="round" stroke-linejoin="round" stroke-width="0" color="#000"><path d="M371.99 147.86h-7.5"/><text fill="#000" font-family="KaTeX_Main" font-size="8" transform="translate(378.99 150.46)"><tspan>1.10</tspan></text></g><g fill="none" stroke-linecap="round" stroke-linejoin="round" stroke-width="0" color="#000"><path d="M371.99 133.22h-7.5"/><text fill="#000" font-family="KaTeX_Main" font-size="8" transform="translate(378.99 135.82)"><tspan>1.20</tspan></text></g><g fill="none" stroke-linecap="round" stroke-linejoin="round" stroke-width="0" color="#000"><path d="M371.99 118.58h-7.5"/><text fill="#000" font-family="KaTeX_Main" font-size="8" transform="translate(378.99 121.18)"><tspan>1.30</tspan></text></g><g fill="none" stroke-linecap="round" stroke-linejoin="round" stroke-width="0" color="#000"><path d="M371.99 103.93h-7.5"/><text fill="#000" font-family="KaTeX_Main" font-size="8" transform="translate(378.99 106.53)"><tspan>1.40</tspan></text></g><g fill="none" stroke-linecap="round" stroke-linejoin="round" stroke-width="0" color="#000"><path d="M371.99 89.29h-7.5"/><text fill="#000" font-family="KaTeX_Main" font-size="8" transform="translate(378.99 91.89)"><tspan>1.50</tspan></text></g><g fill="none" stroke-linecap="round" stroke-linejoin="round" stroke-width="0" color="#000"><path d="M371.99 74.65h-7.5"/><text fill="#000" font-family="KaTeX_Main" font-size="8" transform="translate(378.99 77.25)"><tspan>1.60</tspan></text></g><g fill="none" stroke-linecap="round" stroke-linejoin="round" stroke-width="0" color="#000"><path d="M371.99 60.01h-7.5"/><text fill="#000" font-family="KaTeX_Main" font-size="8" transform="translate(378.99 62.61)"><tspan>1.70</tspan></text></g><path fill="none" d="M28 60.01V162.5M371.99 60.01H28" color="#000"/><text stroke-linecap="round" stroke-linejoin="round" stroke-width="0" color="#000" font-family="KaTeX_Main" font-size="10" text-anchor="middle" transform="rotate(-90 61.38 49.88)"><tspan font-weight="bold">Allocations </tspan><tspan> / log</tspan><tspan dy="3" font-size="8">2</tspan><tspan dy="-3">(Size)</tspan></text><text stroke-linecap="round" stroke-linejoin="round" stroke-width="0" color="#000" font-family="KaTeX_Main" font-size="10" text-anchor="middle" transform="translate(199.99 195.75)"><tspan>Operations / 10</tspan><tspan dy="-5" font-size="8">6</tspan></text><text stroke-linecap="round" stroke-linejoin="round" color="#000" font-family="KaTeX_Main" font-size="8" transform="translate(110.4 10.11)"><tspan>Conc</tspan></text><g fill="none" stroke="currentColor" stroke-linecap="round" stroke-linejoin="round" color="#000"><path stroke="#D336C8" stroke-dasharray="1.0,2.0" d="M74.9 7.51h29.9M28 148.73l.36.03.36.04.37.05.36.05.36.06.36.07.36.07.37.07.36.06.36.07.36.07.37.06.36.06.36.05.36.04.36.04.37.03.36.02.36.02h.72l.37-.01.36-.01.36-.02.36-.02.36-.02.37-.03.36-.02.36-.03.36-.03.36-.03.37-.02.36-.03.36-.02.36-.02.37-.02.36-.02.36-.02.36-.01.36-.01.37-.02h.36l.36-.01.36-.01h.36l.37-.01h1.81l.36.01h.36l.36.01.37.01.36.01.36.01.36.01.36.02.37.01.36.02.36.03.36.02.36.03.37.03.36.03.36.04.36.03.36.03.37.04.36.03.36.03.36.02.37.02.36.02.36.01.36.01h.73l.36-.01.36-.02.36-.02.36-.03.37-.03.36-.04.36-.04.36-.04.36-.05.37-.04.36-.05.36-.05.36-.05.36-.04.37-.05.36-.04.36-.04.36-.04.37-.04.36-.03.36-.03.36-.02.36-.03.37-.02.36-.01.36-.02.36-.01h.36l.37-.01h1.08l.36.01.37.01.36.01.36.01.36.01.37.02.36.01.36.02.36.02.36.02.37.03.36.02.36.02.36.03.36.02.37.03.36.02.36.03.36.02.36.02.37.03.36.02.36.02.36.01.36.02.37.01.36.01.36.01.36.01h1.45l.36-.01.37-.01.36-.01.36-.01.36-.02.36-.01.37-.02.36-.01.36-.02.36-.02.36-.02.37-.01.36-.02.36-.02.36-.01.37-.02.36-.02.36-.01.36-.02.36-.01.37-.01.36-.01.36-.02.36-.01.36-.01h.37l.36-.01.36-.01h2.17l.36.01.37.01.36.01.36.02.36.02.37.02.36.02.36.02.36.03.36.03.37.03.36.03.36.04.36.03.36.04.37.03.36.04.36.04.36.04.36.03.37.04.36.03.36.04.36.03.37.03.36.03.36.03.36.02.36.02.37.02.36.02.36.02.36.01.36.01.37.01.36.01h.36l.36.01h.36l.37-.01h.36l.36-.01.36-.01.37-.01.36-.01.36-.02.36-.01.36-.02.37-.02.36-.02.36-.03.36-.02.36-.03.37-.03.36-.02.36-.03.36-.03.36-.03.37-.03.36-.03.36-.03.36-.02.36-.03.37-.03.36-.02.36-.02.36-.02.37-.02.36-.02.36-.01.36-.01.36-.01.37-.01.36-.01h.36l.36-.01h1.09l.36.01h.72l.37.01h.36l.36.01h.36l.37.01h.72l.36.01h1.81l.36-.01h.37l.36-.01h.36l.36-.01.36-.01.37-.01.36-.01.36-.01.36-.01.36-.01.37-.01.36-.01.36-.01.36-.02.37-.01.36-.01.36-.02.36-.01.36-.01.37-.01.36-.02.36-.01.36-.01.36-.02.37-.01.36-.01.36-.01.36-.02.36-.01.37-.01.36-.01.36-.01h.36l.37-.01.36-.01h2.17l.36.01h.36l.37.01.36.01.36.01.36.02.36.01.37.02.36.02.36.02.36.01.36.03.37.02.36.02.36.02.36.02.37.02.36.02.36.02.36.02.36.02.37.02.36.02.36.02.36.01.36.02.37.01.36.01.36.01.36.01.36.01.37.01h.36l.36.01h.36l.37.01h1.08l.36-.01h1.09l.36-.01h.36l.37-.01.36-.01h.36l.36-.01h.36l.37-.01.36-.01h.36l.36-.01.37-.01h.36l.36-.01h.36l.36-.01h.73l.36-.01h2.17l.36.01h.73l.36.01h.36l.36.01h.37l.36.01h.36l.36.01h.37l.36.01h.36l.36.01.36.01h.73l.36.01h.36l.36.01h.37l.36.01h.72l.36.01h.37l.36.01h.36l.36.01h.37l.36.01h.36l.36.01h.36l.37.01.36.01.36.01h.36l.36.01.37.01.36.01.36.01.36.01.36.01.37.01h.36l.36.01.36.01.36.01h.37l.36.01h.72l.37.01h1.81l.36-.01h.72l.36-.01h.37l.36-.01h.36l.36-.01.36-.01h.37l.36-.01.36-.01h.36l.37-.01h.36l.36-.01h.36l.36-.01h.37l.36-.01h1.08l.37-.01h.72l.36-.01h.73l.36-.01h.36l.36-.01h.37l.36-.01h.36l.36-.01.36-.01h.37l.36-.01.36-.01h.36l.36-.01h.37l.36-.01h2.53l.36.01.37.01h.36l.36.01.36.02.37.01.36.01.36.01.36.02.36.01.37.02.36.02.36.01.36.02.36.01.37.02.36.01.36.02.36.01.36.01.37.01.36.01h.36l.36.01h.37l.36.01h1.08l.37-.01h.72l.36-.01h.36l.37-.01h.36l.36-.01.36-.01h.36l.37-.01.36-.01h.36l.36-.01h.36l.37-.01h.36l.36-.01h.73l.36-.01h1.08l.37-.01h1.08l.36-.01h.73l.36-.01h.36l.36-.01h.37l.36-.01h.36l.36-.01.37-.01.36-.01.36-.01.36-.01.36-.01.37-.01.36-.01.36-.01.36-.01.36-.02.37-.01.36-.01.36-.01.36-.02.36-.01.37-.02.36-.01.36-.01.36-.02.36-.01.37-.01.36-.01.36-.02.36-.01.37-.01.36-.01.36-.01.36-.01.36-.01.37-.01.36-.01.36-.01.36-.01.36-.01.37-.01h.36l.36-.01.36-.01.36-.01.37-.01.36-.01.36-.01.36-.01.37-.01.36-.01.36-.01.36-.01.36-.02.37-.01.36-.01.36-.02.36-.01.36-.01.37-.02.36-.01.36-.02.36-.01.36-.01.37-.01.36-.02.36-.01h.36l.37-.01.36-.01h1.81l.36.01.36.01.36.01.37.01.36.01.36.02.36.02.36.02.37.02.36.02.36.02.36.03.36.02.37.03.36.03.36.02.36.03.37.02.36.03.36.03.36.02.36.02.37.03.36.02.36.02.36.02.36.02.37.02.36.02.36.02.36.01.36.02.37.01.36.01.36.01.36.02.37.01h.36l.36.01.36.01h.36l.37.01h.36l.36.01h1.09l.36.01h1.81l.36.01h.72l.37.01h.36l.36.01h.36l.37.01.36.01.36.01h.36l.36.01.37.01.36.01.36.01.36.01.36.01.37.01.36.01.36.01.36.01h.36l.37.01h2.53l.36-.01h.37l.36-.01.36-.01h.36l.36-.01.37-.01h.36l.36-.01.36-.01.36-.01h.37l.36-.01.36-.01h.36l.36-.01h.37l.36-.01h.36l.36-.01h.37l.36-.01h.36l.36-.01h.36l.37-.01.36-.01h.36l.36-.01.36-.01h.37l.36-.01.36-.01.36-.01.36-.01.37-.01.36-.01.36-.01.36-.01.37-.01h.36l.36-.01.36-.01.36-.01.37-.01.36-.01.36-.01h.36l.36-.01.37-.01h.36l.36-.01h.36l.36-.01h.37l.36-.01h.36l.36-.01h.37l.36-.01h.36l.36-.01h.36l.37-.01h.36l.36-.01h.72l.37-.01h.36l.36.01h.72l.37.01.36.01h.36l.36.01.36.01.37.02.36.01.36.01.36.01.37.01.36.01.36.01h.72l.37.01.36-.01h.36l.36-.01h.36l.37-.01.36-.01.36-.02.36-.01.36-.01.37-.01.36-.01.36-.01h.36l.37-.01h1.08l.36.01.37.01h.36l.36.01.36.01.36.01.37.01.36.01.36.01.36.01h2.54l.36-.01h1.09l.36.01h.36l.36.01.36.02.37.01.36.03.36.02.36.03.36.03.37.03.36.03.36.03.36.03.36.03.37.03.36.02.36.01.36.01.37.01h.36l.36-.01.36-.02.36-.02.37-.03.36-.04.36-.04.36-.05.36-.04.37-.05.36-.05.36-.05.36-.05.36-.04.37-.03.36-.03.36-.03.36-.02h.36l.37-.01.36.01.36.01.36.02.37.01.36.03.36.02.36.02.36.03.37.02.36.02.36.01.36.02.36.01.37.01.36.01.36.01h.36l.36.01h.37l.36.01h.36l.36.01h1.45l.36-.01.37-.02.36-.01.36-.02.36-.03.36-.03.37-.03.36-.03.36-.04.36-.03.36-.02.37-.02.36-.01h.36l.36.01.37.03.36.04.36.06.36.06.36.06.37.07.36.05.36.05.36.03.36.01.37-.01.36-.02.36-.04.36-.05.36-.06.37-.06.36-.07.36-.08.36-.07.36-.06.37-.05.36-.02h.36l.36.03.37.04.36.07.36.12.36.25.36.48.37.7.36.39.36-2.21"/><use xlink:href="#5c387__c" color="#D336C8" transform="matrix(3.75 0 0 3.75 353.89 149.47)"/><use xlink:href="#5c387__c" color="#D336C8" transform="matrix(3.75 0 0 3.75 89.85 7.51)"/></g><text stroke-linecap="round" stroke-linejoin="round" color="#000" font-family="KaTeX_Main" font-size="8" transform="translate(110.4 25.11)"><tspan>LBSTBottomUp</tspan></text><g fill="none" stroke="currentColor" stroke-linecap="round" stroke-linejoin="round" color="#000"><path stroke="#3B75EA" d="M74.9 22.51h29.9M28 152.02l.36-.02.36-.03.37-.03.36-.04.36-.04.36-.04.36-.04.37-.03.36-.03.36-.02.36-.02.37-.01h.36l.36.01.36.01.36.01.37.02.36.03.36.03.36.04.36.03.37.04.36.04.36.05.36.04.36.05.37.05.36.05.36.05.36.06.36.05.37.06.36.06.36.05.36.06.37.06.36.05.36.06.36.05.36.04.37.05.36.04.36.03.36.03.36.03.37.02.36.01.36.01h1.09l.36-.01.36-.01.36-.02.37-.02.36-.03.36-.02.36-.03.36-.03.37-.04.36-.03.36-.04.36-.04.36-.04.37-.04.36-.04.36-.04.36-.04.36-.04.37-.04.36-.04.36-.04.36-.04.37-.04.36-.04.36-.03.36-.03.36-.03.37-.03.36-.03.36-.02.36-.02.36-.01.37-.02h.36l.36-.01h.72l.37.01h.36l.36.01.36.01.36.01.37.01.36.01.36.01.36.01.37.01.36.01.36.01h.36l.36.01h1.09l.36.01h1.45l.36.01h.36l.37.01.36.02.36.01.36.02.37.02.36.03.36.02.36.04.36.03.37.04.36.04.36.04.36.04.36.05.37.04.36.05.36.04.36.05.36.04.37.04.36.04.36.04.36.03.36.03.37.03.36.03.36.02.36.02.37.01.36.02.36.01h.36l.36.01h.73l.36-.01.36-.01.36-.01.37-.01.36-.01.36-.02.36-.02.36-.02.37-.03.36-.03.36-.03.36-.03.37-.04.36-.03.36-.04.36-.04.36-.05.37-.04.36-.05.36-.04.36-.05.36-.04.37-.05.36-.05.36-.04.36-.04.36-.04.37-.04.36-.04.36-.03.36-.03.36-.02.37-.03.36-.02.36-.01.36-.02.37-.01h.36l.36-.01h1.09l.36.01h.36l.36.01h.36l.37.01.36.01h.36l.36.01h.36l.37.01h2.89l.37-.01h.36l.36-.01h.72l.37-.01h.36l.36-.01h.72l.37-.01h2.89l.37.01h.72l.36.01h1.09l.36.01h1.81l.36-.01h.36l.37-.01h.36l.36-.01.36-.01.37-.01.36-.01.36-.01.36-.02.36-.01.37-.02.36-.02.36-.02.36-.01.36-.03.37-.02.36-.02.36-.02.36-.02.36-.03.37-.02.36-.02.36-.03.36-.02.37-.02.36-.02.36-.03.36-.02.36-.02.37-.02.36-.02.36-.02.36-.01.36-.02.37-.01.36-.02.36-.01.36-.01h.36l.37-.01h.36l.36-.01h.36l.36.01h.37l.36.01.36.01.36.01.37.01.36.01.36.02.36.02.36.01.37.02.36.02.36.03.36.02.36.02.37.03.36.02.36.03.36.02.36.03.37.02.36.03.36.02.36.03.37.02.36.02.36.03.36.02.36.02.37.02.36.03.36.02.36.02.36.02.37.02.36.02.36.02.36.02.36.02.37.02.36.02.36.02.36.02.36.02.37.02.36.02.36.02.36.02.37.01.36.02.36.01.36.02.36.01.37.01.36.01.36.01h.36l.36.01h2.54l.36-.01h.36l.37-.01h.36l.36-.01h.36l.36-.01h.73l.36-.01h1.81l.36.01h.36l.37.01.36.01.36.01.36.01.37.01.36.01.36.01.36.01.36.02.37.01.36.01.36.02.36.01.36.01.37.01.36.01.36.01.36.01.36.01.37.01.36.01h.72l.36.01h1.09l.36-.01h.73l.36-.01h.36l.36-.01h.37l.36-.01.36-.01h.36l.36-.01h.37l.36-.01h.36l.36-.01h.73l.36-.01h.72l.37-.01h1.08l.36-.01h.73l.36-.01h.36l.36-.01.37-.01h.36l.36-.01.36-.01.36-.01.37-.01.36-.02.36-.01.36-.02.36-.01.37-.02.36-.02.36-.01.36-.02.37-.02.36-.02.36-.02.36-.02.36-.02.37-.01.36-.02.36-.02.36-.01.36-.02.37-.01.36-.01.36-.01.36-.01.36-.01h.37l.36-.01h1.81l.36.01.36.01.37.01h.36l.36.02.36.01.36.01.37.01.36.02.36.01.36.02.36.01.37.02.36.01.36.01.36.02.37.01.36.02.36.01.36.01.36.01.37.01.36.01.36.01.36.01.36.01.37.01h.36l.36.01h.36l.36.01h.73l.36.01h1.45l.36.01h1.09l.36.01h.36l.36.01h.37l.36.01h.36l.36.01h.36l.37.01.36.01.36.01.36.01.36.01.37.01.36.01.36.01.36.01.37.01.36.01.36.01.36.01.36.01.37.01.36.01.36.01h.36l.36.01.37.01h.36l.36.01h1.81l.36-.01h.36l.37-.01.36-.01h.36l.36-.01.37-.01.36-.01.36-.01.36-.02.36-.01.37-.01.36-.01.36-.01.36-.01.36-.02.37-.01.36-.01.36-.01.36-.01.36-.01h.37l.36-.01.36-.01h.73l.36-.01h1.81l.36.01h.72l.37.01h.36l.36.01h.36l.36.01.37.01h.36l.36.01h.36l.36.01.37.01h.36l.36.01h.73l.36.01h.72l.36.01h2.18l.36-.01h1.08l.37-.01h.36l.36-.01h.36l.37-.01h.36l.36-.01h.36l.36-.01.37-.01h.36l.36-.01.36-.01h.36l.37-.01.36-.01.36-.01.36-.01h.36l.37-.01.36-.01.36-.01.36-.01.37-.01.36-.01.36-.01.36-.01.36-.01.37-.02.36-.01.36-.01.36-.01.36-.02.37-.01.36-.02.36-.02.36-.01.36-.02.37-.02.36-.02.36-.02.36-.02.36-.02.37-.02.36-.02.36-.02.36-.03.37-.02.36-.02.36-.02.36-.02.36-.02.37-.02.36-.02.36-.02.36-.01.36-.02.37-.01.36-.01.36-.01.36-.01h.36l.37-.01h.72l.36.01.37.01h.36l.36.01.36.02.36.01.37.02.36.02.36.02.36.02.36.03.37.02.36.02.36.03.36.03.36.02.37.03.36.02.36.03.36.02.36.02.37.02.36.02.36.01.36.02.37.01h.36l.36.01h1.45l.36-.01.36-.01.36-.01.37-.01.36-.01.36-.01.36-.02.36-.01.37-.01.36-.02.36-.01.36-.01.37-.01.36-.01.36-.01h.36l.36-.01h1.09l.36-.01.36.01h1.45l.36.01h.73l.36.01h.72l.37.01h.72l.36.01h.73l.36.01h.36l.36.01h.37l.36.01h.36l.36.01h.36l.37.01h.36l.36.01h.36l.36.01h2.9l.36-.01h.37l.36-.01h.36l.36-.01.36-.01h.37l.36-.01h.36l.36-.01h1.45l.36.01h.37l.36.01.36.02.36.01.36.02.37.02.36.02.36.02.36.03.36.02.37.03.36.03.36.02.36.03.36.03.37.02.36.02.36.02.36.02.36.01.37.02h.36l.36.01h.36l.37-.01h.36l.36-.02.36-.01.36-.02.37-.02.36-.02.36-.03.36-.03.36-.03.37-.03.36-.04.36-.03.36-.03.36-.03.37-.04.36-.03.36-.02.36-.03.37-.03.36-.02.36-.03.36-.02.36-.02.37-.02.36-.02.36-.02.36-.02.36-.02.37-.02.36-.02.36-.02.36-.02.36-.02.37-.01.36-.02.36-.02.36-.01.36-.02.37-.01.36-.02.36-.01.36-.01h.37l.36-.01h1.45l.36.01h.36l.36.01.36.01.37.01h.36l.36.01h.36l.36.01h2.18l.36.01h.72l.37.01.36.01.36.01.36.02.36.02.37.03.36.03.36.04.36.04.36.04.37.05.36.05.36.05.36.06.36.05.37.06.36.05.36.05.36.05.37.04.36.04.36.04.36.03.36.03.37.02.36.02.36.01h.36l.36.01h.37l.36-.01.36-.01.36-.02.36-.02.37-.03.36-.03.36-.04.36-.04.37-.04.36-.05.36-.04.36-.05.36-.03.37-.03.36-.03.36-.01.36-.01h.36l.37.01.36.01.36.02.36.02.36.02.37.01.36.02.36.02.36.01.37.02.36.03.36.04.36.05.36.06.37.08.36.09.36.11.36.11.36.13.37.12.36.14.36.13.36.13.36.12.37.08.36.05.36-.01.36-.09.36-.16.37-.22.36-.25.36-.23.36-.15.37-.03.36.1.36.14.36.08.36-.01.37.13.36.67.36.77"/><use xlink:href="#5c387__d" color="#3B75EA" transform="matrix(3.75 0 0 3.75 67.83 152.14)"/><use xlink:href="#5c387__d" color="#3B75EA" transform="matrix(3.75 0 0 3.75 89.85 22.51)"/></g><text stroke-linecap="round" stroke-linejoin="round" color="#000" font-family="KaTeX_Main" font-size="8" transform="translate(110.4 40.11)"><tspan>TreapTopDown</tspan></text><g fill="none" stroke="currentColor" stroke-linecap="round" stroke-linejoin="round" color="#000"><path stroke="#F44336" stroke-dasharray="4.5,2.0,0.5,2.0,0.5,2.0" d="M74.9 37.51h29.9M28 104.42l.36-.41.36-.38.37-.33.36-.29.36-.23.36-.19.36-.15.37-.12.36-.08.36-.06.36-.04.37-.02h.36l.36.02.36.05.36.08.37.12.36.15.36.18.36.23.36.25.37.29.36.3.36.32.36.33.36.32.37.31.36.3.36.28.36.26.36.24.37.22.36.21.36.19.36.19.37.19.36.18.36.19.36.19.36.18.37.18.36.16.36.15.36.12.36.08.37.04.36-.01.36-.06.36-.12.36-.18.37-.24.36-.3.36-.35.36-.4.37-.43.36-.45.36-.47.36-.46.36-.46.37-.43.36-.4.36-.35.36-.3.36-.23.37-.18.36-.11.36-.05.36.02.36.08.37.14.36.18.36.22.36.25.37.28.36.29.36.3.36.29.36.28.37.27.36.24.36.23.36.19.36.17.37.14.36.12.36.1.36.07.36.06.37.05.36.05.36.04.36.05.36.06.37.06.36.08.36.1.36.12.37.13.36.15.36.17.36.18.36.2.37.2.36.21.36.21.36.2.36.19.37.18.36.17.36.14.36.11.36.08.37.06.36.02.36-.02.36-.04.37-.09.36-.12.36-.15.36-.18.36-.21.37-.24.36-.26.36-.28.36-.3.36-.31.37-.31.36-.33.36-.33.36-.32.36-.33.37-.31.36-.31.36-.29.36-.28.36-.27.37-.24.36-.22.36-.21.36-.18.37-.15.36-.13.36-.11.36-.08.36-.05.37-.03.36-.01.36.02.36.05.36.06.37.09.36.12.36.13.36.15.36.18.37.19.36.21.36.23.36.25.37.27.36.28.36.3.36.32.36.32.37.35.36.35.36.36.36.37.36.37.37.38.36.37.36.38.36.36.36.35.37.33.36.31.36.29.36.26.36.23.37.2.36.15.36.11.36.07.37.02.36-.02.36-.07.36-.12.36-.16.37-.21.36-.25.36-.3.36-.33.36-.37.37-.39.36-.43.36-.44.36-.47.36-.48.37-.48.36-.49.36-.49.36-.48.37-.48.36-.46.36-.44.36-.42.36-.4.37-.37.36-.35.36-.31.36-.28.36-.25.37-.22.36-.18.36-.14.36-.11.36-.07.37-.04.36-.01.36.02.36.06.37.09.36.11.36.14.36.16.36.18.37.2.36.22.36.24.36.25.36.25.37.27.36.27.36.27.36.28.36.27.37.27.36.27.36.27.36.25.36.25.37.24.36.23.36.22.36.21.37.2.36.19.36.18.36.17.36.16.37.15.36.14.36.13.36.12.36.11.37.11.36.1.36.08.36.08.36.07.37.07.36.05.36.04.36.02.37.02h.36l.36-.02.36-.03.36-.04.37-.07.36-.08.36-.11.36-.12.36-.15.37-.17.36-.19.36-.22.36-.23.36-.26.37-.29.36-.3.36-.32.36-.34.36-.36.37-.37.36-.38.36-.4.36-.4.37-.4.36-.41.36-.41.36-.41.36-.4.37-.39.36-.37.36-.36.36-.35.36-.32.37-.3.36-.28.36-.24.36-.22.36-.19.37-.16.36-.12.36-.09.36-.06.37-.03.36.01.36.04.36.07.36.1.37.13.36.16.36.18.36.21.36.23.37.26.36.27.36.3.36.31.36.32.37.33.36.35.36.35.36.36.36.36.37.37.36.36.36.37.36.36.37.36.36.35.36.34.36.33.36.32.37.31.36.3.36.28.36.26.36.25.37.23.36.21.36.19.36.17.36.15.37.13.36.11.36.1.36.07.37.05.36.03.36.02h.36l.36-.02.37-.03.36-.04.36-.06.36-.07.36-.07.37-.09.36-.09.36-.09.36-.1.36-.09.37-.1.36-.09.36-.09.36-.09.37-.08.36-.07.36-.06.36-.05.36-.04.37-.03.36-.02h.36l.36.01.36.03.37.04.36.05.36.07.36.08.36.09.37.1.36.12.36.12.36.13.36.14.37.14.36.14.36.15.36.15.37.14.36.14.36.14.36.13.36.12.37.11.36.11.36.08.36.08.36.06.37.04.36.03.36.01h.36l.36-.03.37-.04.36-.06.36-.08.36-.1.37-.11.36-.13.36-.15.36-.16.36-.18.37-.19.36-.2.36-.21.36-.22.36-.23.37-.24.36-.23.36-.25.36-.24.36-.24.37-.24.36-.23.36-.23.36-.21.36-.21.37-.2.36-.18.36-.17.36-.15.37-.13.36-.11.36-.09.36-.07.36-.05.37-.02h.36l.36.02.36.04.36.07.37.1.36.11.36.14.36.16.36.18.37.2.36.22.36.23.36.24.37.26.36.27.36.28.36.28.36.28.37.29.36.29.36.29.36.28.36.28.37.27.36.27.36.25.36.24.36.23.37.22.36.2.36.19.36.17.37.16.36.15.36.13.36.12.36.1.37.09.36.08.36.06.36.05.36.04.37.03.36.02.36.01.36-.01.36-.01.37-.02.36-.04.36-.04.36-.05.36-.06.37-.07.36-.08.36-.09.36-.1.37-.11.36-.12.36-.14.36-.14.36-.15.37-.16.36-.17.36-.18.36-.18.36-.2.37-.2.36-.21.36-.22.36-.22.36-.23.37-.23.36-.23.36-.23.36-.23.37-.22.36-.23.36-.22.36-.21.36-.21.37-.2.36-.19.36-.17.36-.17.36-.16.37-.14.36-.13.36-.12.36-.11.36-.09.37-.08.36-.06.36-.06.36-.04.36-.04.37-.02.36-.01.36-.01h.36l.37.01.36.01.36.01.36.02.36.01.37.02.36.02.36.01.36.02.36.01.37.01h1.08l.36-.01.37-.01.36-.01.36-.02.36-.02.37-.02.36-.03.36-.02.36-.03.36-.03.37-.04.36-.03.36-.04.36-.03.36-.04.37-.04.36-.04.36-.04.36-.04.36-.04.37-.04.36-.05.36-.05.36-.05.36-.05.37-.05.36-.06.36-.06.36-.07.37-.07.36-.07.36-.08.36-.08.36-.09.37-.09.36-.09.36-.1.36-.1.36-.11.37-.11.36-.12.36-.12.36-.12.36-.12.37-.13.36-.13.36-.13.36-.13.37-.13.36-.13.36-.13.36-.13.36-.12.37-.12.36-.11.36-.11.36-.09.36-.09.37-.08.36-.07.36-.06.36-.04.36-.03.37-.02h.36l.36.02.36.03.37.05.36.07.36.08.36.1.36.11.37.13.36.15.36.16.36.17.36.18.37.19.36.2.36.21.36.2.36.21.37.21.36.21.36.2.36.19.36.19.37.17.36.16.36.14.36.12.37.1.36.08.36.06.36.03.36.01.37-.02.36-.04.36-.06.36-.09.36-.11.37-.14.36-.15.36-.17.36-.19.36-.21.37-.21.36-.22.36-.23.36-.24.37-.24.36-.23.36-.24.36-.23.36-.22.37-.21.36-.21.36-.19.36-.18.36-.16.37-.15.36-.13.36-.11.36-.09.36-.08.37-.06.36-.04.36-.01h.36l.36.02.37.04.36.06.36.08.36.11.37.12.36.14.36.16.36.17.36.2.37.21.36.22.36.24.36.26.36.26.37.27.36.28.36.29.36.29.36.3.37.29.36.29.36.29.36.29.37.28.36.27.36.26.36.25.36.24.37.23.36.22.36.2.36.19.36.19.37.17.36.16.36.15.36.14.36.14.37.13.36.13.36.13.36.13.36.13.37.13.36.13.36.14.36.14.37.15.36.15.36.16.36.16.36.16.37.16.36.17.36.16.36.15.36.15.37.14.36.13.36.11.36.1.36.07.37.05.36.03h.36l.36-.02.37-.06.36-.08.36-.12.36-.14.36-.18.37-.2.36-.23.36-.25.36-.28.36-.3.37-.31.36-.33.36-.35.36-.35.36-.36.37-.36.36-.36.36-.36.36-.36.37-.35.36-.35.36-.33.36-.34.36-.32.37-.32.36-.31.36-.3.36-.3.36-.28.37-.29.36-.28.36-.27.36-.26.36-.26.37-.25.36-.25.36-.23.36-.22.36-.22.37-.19.36-.19.36-.16.36-.16.37-.13.36-.11.36-.1.36-.08.36-.07.37-.06.36-.04.36-.04.36-.03.36-.03.37-.03.36-.04.36-.04.36-.06.36-.07.37-.09.36-.1.36-.12.36-.13.37-.15.36-.15.36-.15.36-.15.36-.14.37-.13.36-.1.36-.07.36-.04.36.01.37.06.36.11.36.16.36.22.36.28.37.34.36.38.36.42.36.46.36.48.37.49.36.5.36.48.36.47.37.43.36.4.36.34.36.29.36.22.37.17.36.11.36.04h.36l.36-.05.37-.09.36-.12.36-.14.36-.14.36-.14.37-.13.36-.1.36-.08.36-.04h.37l.36.03.36.08.36.12.36.16.37.18.36.21.36.24.36.24.36.25.37.24.36.23.36.21.36.19.36.16.37.12.36.08.36.04h.36l.36-.04.37-.07.36-.11.36-.13.36-.14.37-.15.36-.15.36-.13.36-.1.36-.07.37-.02.36.04.36.09.36.15.36.22.37.27.36.33.36.38.36.41.36.44.37.45.36.45.36.43.36.42.37.38.36.35.36.31.36.28.36.23.37.21.36.19.36.17.36.17.36.17.37.17.36.18.36.18.36.18.36.18.37.15.36.12.36.05.36-.02.37-.13.36-.24.36-.35.36-.47.36-.57.37-.65.36-.7.36-.75.36-.76.36-.76.37-.77.36-.78.36-.81.36-.84.36-.91.37-.97.36-1.04.36-1.08.36-1.04.36-.89.37-.6.36-.14.36.4.36.92.37 1.2.36 1.13.36.77.36.47.36.69.37 1.63.36 2.85.36 2.01"/><use xlink:href="#5c387__e" color="#F44336" transform="matrix(3.75 0 0 3.75 125.4 108.94)"/><use xlink:href="#5c387__e" color="#F44336" transform="matrix(3.75 0 0 3.75 89.85 37.51)"/></g><text stroke-linecap="round" stroke-linejoin="round" color="#000" font-family="KaTeX_Main" font-size="8" transform="translate(241.1 10.11)"><tspan>AVLTopDown</tspan></text><g fill="none" stroke="currentColor" stroke-linecap="round" stroke-linejoin="round" color="#000"><path stroke="#29C3F6" stroke-dasharray="2.5,4.0" d="M205.6 7.51h29.9M28 146.08l.36.1.36.11.37.11.36.11.36.11.36.1.36.1.37.09.36.07.36.07.36.06.37.05.36.03.36.03.36.01.36.01.37-.01.36-.02.36-.02.36-.03.36-.04.37-.05.36-.05.36-.06.36-.06.36-.07.37-.06.36-.07.36-.07.36-.06.36-.06.37-.04.36-.04.36-.01h.36l.37.02.36.05.36.07.36.1.36.13.37.16.36.19.36.21.36.24.36.25.37.27.36.29.36.29.36.31.36.3.37.3.36.29.36.29.36.28.37.27.36.25.36.24.36.23.36.22.37.2.36.19.36.18.36.17.36.16.37.16.36.15.36.14.36.14.36.13.37.13.36.12.36.11.36.11.37.1.36.09.36.08.36.08.36.07.37.05.36.05.36.03.36.03.36.01.37.01.36-.01.36-.01.36-.02.36-.03.37-.03.36-.04.36-.05.36-.04.36-.05.37-.04.36-.05.36-.04.36-.04.37-.04.36-.03.36-.02.36-.01.36-.01.37-.01.36.01.36.01.36.03.36.02.37.04.36.04.36.05.36.05.36.05.37.06.36.06.36.06.36.07.37.06.36.06.36.06.36.06.36.05.37.04.36.05.36.03.36.03.36.03.37.01.36.01.36.01.36-.01.36-.01.37-.02.36-.02.36-.04.36-.03.36-.04.37-.04.36-.05.36-.05.36-.05.37-.05.36-.05.36-.05.36-.05.36-.05.37-.04.36-.04.36-.04.36-.04.36-.03.37-.02.36-.03.36-.02.36-.01.36-.02.37-.01.36-.01.36-.01h.36l.37-.01h1.08l.36-.01h1.45l.36-.01h2.54l.36.01h.36l.36.01.37.01.36.01.36.02.36.01.37.02.36.03.36.02.36.03.36.03.37.04.36.04.36.04.36.04.36.05.37.04.36.05.36.05.36.05.36.05.37.05.36.05.36.05.36.04.37.05.36.03.36.04.36.03.36.02.37.01.36.02h.72l.36-.01.37-.02.36-.03.36-.03.36-.04.36-.04.37-.05.36-.05.36-.06.36-.06.37-.07.36-.07.36-.06.36-.07.36-.07.37-.07.36-.07.36-.06.36-.06.36-.06.37-.06.36-.05.36-.05.36-.04.36-.03.37-.04.36-.02.36-.02.36-.02.36-.01.37-.01h.36l.36.01h.36l.37.02.36.01.36.02.36.02.36.03.37.02.36.03.36.03.36.04.36.03.37.03.36.03.36.04.36.03.36.03.37.03.36.03.36.02.36.03.37.02.36.02.36.02.36.02.36.01.37.01.36.01.36.01.36.01h1.09l.36-.01h.36l.36-.01.37-.01.36-.01.36-.02.36-.01.36-.02.37-.01.36-.02.36-.02.36-.02.37-.02.36-.02.36-.02.36-.02.36-.02.37-.02.36-.02.36-.02.36-.02.36-.01.37-.02.36-.01.36-.01.36-.01.36-.01.37-.01h.36l.36-.01h1.81l.36.01h.73l.36.01.36.01h.36l.37.01.36.01h.36l.36.01h.36l.37.01h.36l.36.01h.72l.37.01h3.98l.36.01h.73l.36.01h.36l.36.01.36.01.37.01.36.01.36.01.36.02.37.01.36.02.36.02.36.02.36.02.37.02.36.03.36.02.36.03.36.02.37.03.36.03.36.03.36.03.36.02.37.03.36.03.36.02.36.02.37.03.36.02.36.01.36.02.36.01.37.01.36.01.36.01h1.09l.36-.01.36-.01.36-.01.36-.01.37-.02.36-.01.36-.02.36-.02.36-.03.37-.02.36-.02.36-.03.36-.03.37-.02.36-.03.36-.03.36-.02.36-.03.37-.02.36-.03.36-.02.36-.03.36-.02.37-.02.36-.02.36-.02.36-.02.36-.02.37-.02.36-.01.36-.02.36-.02.37-.01.36-.02.36-.01.36-.01.36-.02.37-.01.36-.02.36-.01.36-.02.36-.01.37-.02.36-.01.36-.02.36-.01.36-.02.37-.01.36-.02.36-.01.36-.02.36-.01.37-.02.36-.01.36-.01.36-.01.37-.01h.36l.36-.01h1.45l.36.01h.36l.36.01.37.02.36.01.36.02.36.02.36.02.37.03.36.03.36.03.36.03.37.04.36.03.36.04.36.04.36.04.37.04.36.05.36.04.36.05.36.04.37.05.36.05.36.05.36.04.36.05.37.05.36.05.36.04.36.05.37.05.36.04.36.05.36.04.36.05.37.04.36.04.36.04.36.04.36.03.37.04.36.03.36.03.36.03.36.02.37.02.36.02.36.01.36.01.36.01h1.09l.36-.01.37-.02.36-.02.36-.02.36-.03.36-.03.37-.04.36-.04.36-.05.36-.05.36-.06.37-.05.36-.07.36-.06.36-.07.36-.07.37-.07.36-.07.36-.08.36-.07.37-.08.36-.08.36-.07.36-.08.36-.07.37-.08.36-.07.36-.07.36-.07.36-.07.37-.06.36-.06.36-.06.36-.05.36-.05.37-.05.36-.04.36-.04.36-.04.36-.03.37-.03.36-.02.36-.02.36-.02.37-.01.36-.01.36-.01h1.45l.36.01h.36l.36.01.37.01.36.01.36.01.36.01.36.01.37.01.36.01.36.01h.36l.37.01.36.01h.36l.36.01h1.09l.36.01h2.17l.36-.01.37.01h1.81l.36.01h.36l.36.01h.37l.36.01.36.01.36.01.36.01.37.01.36.01.36.01.36.01.36.01.37.01.36.02.36.01.36.01.36.01.37.02.36.01.36.02.36.01.37.01.36.02.36.01.36.01.36.01.37.02.36.01.36.01.36.01.36.01.37.01.36.01.36.01.36.01.36.01.37.01.36.01h.36l.36.01.37.01h.36l.36.01h.36l.36.01h.37l.36.01h.36l.36.01h.73l.36.01h.72l.36.01h.73l.36.01h.72l.37.01h.72l.36.01h.73l.36.01h2.9l.36-.01h.36l.36-.01.36-.01.37-.01.36-.01.36-.01.36-.02.37-.02.36-.01.36-.02.36-.02.36-.02.37-.02.36-.03.36-.02.36-.02.36-.02.37-.02.36-.02.36-.01.36-.01.36-.01.37-.01h.72l.36.01.36.02.37.01.36.03.36.03.36.03.37.04.36.05.36.05.36.06.36.06.37.07.36.07.36.07.36.08.36.07.37.08.36.08.36.08.36.08.36.07.37.07.36.07.36.06.36.06.37.05.36.04.36.04.36.03.36.02.37.02.36.01h.36l.36-.01.36-.01.37-.02.36-.02.36-.03.36-.04.36-.04.37-.04.36-.04.36-.05.36-.05.36-.04.37-.05.36-.05.36-.04.36-.04.37-.04.36-.04.36-.04.36-.03.36-.03.37-.03.36-.03.36-.02.36-.02.36-.02.37-.02.36-.02.36-.01.36-.01.36-.01.37-.01.36-.01.36-.01.36-.01h.37l.36-.01h1.45l.36.01h.36l.36.01.36.01.37.02.36.01.36.02.36.02.36.03.37.02.36.03.36.03.36.03.37.04.36.03.36.03.36.03.36.04.37.03.36.02.36.03.36.02.36.02.37.01.36.01h.72l.36-.01.37-.01.36-.02.36-.02.36-.02.36-.03.37-.03.36-.03.36-.04.36-.03.37-.04.36-.03.36-.04.36-.03.36-.03.37-.03.36-.02.36-.02.36-.02.36-.01.37-.01h1.08l.36.01.37.01.36.01.36.02.36.02.37.03.36.02.36.03.36.02.36.03.37.02.36.02.36.02.36.01.36.01.37.01h.36l.36-.01.36-.01.36-.02.37-.03.36-.02.36-.04.36-.03.36-.04.37-.04.36-.05.36-.04.36-.04.37-.05.36-.04.36-.04.36-.03.36-.04.37-.03.36-.03.36-.03.36-.03.36-.03.37-.03.36-.03.36-.03.36-.04.36-.04.37-.05.36-.05.36-.05.36-.05.37-.06.36-.06.36-.05.36-.06.36-.05.37-.04.36-.03.36-.03.36-.01h.36l.37.01.36.03.36.04.36.06.36.07.37.08.36.1.36.1.36.1.36.1.37.1.36.1.36.09.36.07.37.07.36.06.36.04.36.04.36.03.37.03.36.03.36.03.36.03.36.05.37.05.36.06.36.07.36.07.36.08.37.07.36.07.36.06.36.05.37.03.36.02h.36l.36-.02.36-.04.37-.04.36-.06.36-.05.36-.05.36-.05.37-.03h.36l.36.01.36.04.36.06.37.08.36.09.36.09.36.09.37.05.36.02.36-.03.36-.08.36-.14.37-.2.36-.23.36-.27.36-.27.36-.27.37-.24.36-.2.36-.15.36-.11.36-.06.37-.02.36.03.36.06.36.1.36.12.37.11.36.08.36.02.36-.06.37-.16.36-.22.36-.24.36-.2.36-.16.37-.09.36-.01.36.04"/><use xlink:href="#5c387__f" color="#29C3F6" transform="matrix(3.75 0 0 3.75 182.98 153.61)"/><use xlink:href="#5c387__f" color="#29C3F6" transform="matrix(3.75 0 0 3.75 220.55 7.51)"/></g><text stroke-linecap="round" stroke-linejoin="round" stroke-width=".5" color="#000" font-family="KaTeX_Main" font-size="8" transform="translate(241.1 25.11)"><tspan>AVLBottomUp</tspan></text><g fill="none" stroke="currentColor" stroke-linecap="round" stroke-linejoin="round" stroke-width=".5" color="#000"><path stroke="#000" d="M205.6 22.51h29.9M28 138.5l.36-.05.36-.07.37-.08.36-.09.36-.1.36-.09.36-.1.37-.09.36-.08.36-.08.36-.06.37-.06.36-.04.36-.04.36-.03.36-.01.37-.02h1.08l.36.01h.37l.36.01.36.01.36.01.36.01h.37l.36.01h.72l.36-.01.37-.01.36-.02.36-.02.36-.02.37-.03.36-.04.36-.03.36-.04.36-.04.37-.05.36-.04.36-.04.36-.04.36-.05.37-.04.36-.04.36-.04.36-.05.36-.04.37-.05.36-.05.36-.04.36-.06.37-.05.36-.06.36-.05.36-.06.36-.06.37-.05.36-.06.36-.05.36-.04.36-.05.37-.03.36-.03.36-.03.36-.01.36-.01h.37l.36.01.36.01.36.02.37.03.36.03.36.03.36.04.36.03.37.04.36.04.36.03.36.03.36.03.37.02.36.02.36.02.36.01h.73l.36-.01.36-.01.36-.02.36-.02.37-.02.36-.03.36-.03.36-.04.37-.03.36-.04.36-.04.36-.04.36-.04.37-.05.36-.04.36-.05.36-.05.36-.05.37-.05.36-.05.36-.06.36-.05.36-.06.37-.06.36-.06.36-.06.36-.06.37-.06.36-.06.36-.06.36-.05.36-.05.37-.04.36-.04.36-.03.36-.03.36-.02.37-.01h.36l.36.01.36.01.36.02.37.03.36.04.36.04.36.04.36.05.37.06.36.06.36.05.36.06.37.06.36.06.36.06.36.05.36.05.37.05.36.05.36.04.36.03.36.03.37.03.36.02.36.02.36.02h.36l.37.01h.72l.36-.01.37-.01.36-.01.36-.02.36-.02.36-.02.37-.02.36-.03.36-.02.36-.03.36-.02.37-.03.36-.02.36-.02.36-.03.36-.02.37-.01.36-.02.36-.01.36-.01.36-.01h1.45l.37.01.36.02.36.01.36.02.36.03.37.02.36.03.36.04.36.03.36.04.37.05.36.05.36.05.36.05.36.06.37.06.36.07.36.07.36.07.37.07.36.08.36.08.36.09.36.09.37.09.36.09.36.1.36.1.36.1.37.1.36.11.36.1.36.11.36.1.37.11.36.1.36.11.36.1.37.1.36.1.36.1.36.1.36.09.37.09.36.09.36.08.36.08.36.08.37.07.36.07.36.06.36.06.36.05.37.04.36.04.36.03.36.03.36.02.37.01h.72l.36-.01.37-.02.36-.02.36-.04.36-.04.36-.04.37-.05.36-.06.36-.07.36-.07.36-.07.37-.08.36-.09.36-.08.36-.09.36-.09.37-.1.36-.09.36-.1.36-.09.37-.1.36-.09.36-.1.36-.09.36-.09.37-.09.36-.08.36-.09.36-.08.36-.08.37-.07.36-.08.36-.07.36-.06.36-.07.37-.06.36-.06.36-.06.36-.05.36-.05.37-.05.36-.05.36-.04.36-.04.37-.04.36-.03.36-.04.36-.03.36-.03.37-.02.36-.03.36-.02.36-.01.36-.02.37-.01.36-.01h1.45l.36.01.36.01.36.01.37.02.36.01.36.02.36.03.36.02.37.03.36.02.36.03.36.03.36.03.37.03.36.03.36.03.36.03.36.02.37.03.36.03.36.02.36.02.36.02.37.02.36.01.36.02.36.01h.37l.36.01h1.08l.37-.01.36-.01.36-.01.36-.01.36-.02.37-.01.36-.02.36-.02.36-.02.36-.03.37-.02.36-.03.36-.02.36-.03.37-.03.36-.02.36-.03.36-.03.36-.03.37-.03.36-.03.36-.03.36-.03.36-.03.37-.03.36-.04.36-.03.36-.04.36-.03.37-.03.36-.04.36-.03.36-.04.37-.03.36-.04.36-.03.36-.03.36-.03.37-.03.36-.02.36-.03.36-.02.36-.02.37-.01.36-.01.36-.01.36-.01h.36l.37.01h.36l.36.01.36.01.36.02.37.02.36.02.36.02.36.03.37.03.36.02.36.03.36.03.36.03.37.03.36.02.36.03.36.02.36.02.37.02.36.02.36.01.36.01h1.45l.36-.01.37-.01.36-.02.36-.02.36-.02.36-.02.37-.03.36-.03.36-.03.36-.03.36-.03.37-.04.36-.03.36-.04.36-.03.36-.04.37-.04.36-.03.36-.03.36-.04.36-.03.37-.02.36-.03.36-.02.36-.03.37-.02.36-.01.36-.02.36-.01.36-.01h.37l.36-.01.36.01h.72l.37.01.36.01.36.02.36.01.36.02.37.02.36.02.36.03.36.02.37.03.36.02.36.03.36.02.36.03.37.03.36.02.36.02.36.03.36.02.37.02.36.01.36.02.36.01.36.01.37.01h1.08l.37-.01.36-.01.36-.01.36-.01.36-.02.37-.02.36-.02.36-.03.36-.02.36-.03.37-.03.36-.03.36-.03.36-.03.36-.04.37-.03.36-.03.36-.04.36-.03.36-.03.37-.03.36-.02.36-.03.36-.03.37-.02.36-.02.36-.02.36-.02.36-.01.37-.02.36-.01.36-.01.36-.01h.36l.37-.01h.72l.36-.01h.36l.37.01h1.08l.37.01h.36l.36.01h.36l.36.01.37.01h.36l.36.01.36.01.36.01.37.01h.36l.36.01.36.01.36.01h.37l.36.01.36.01h.72l.37.01h.72l.36-.01h.37l.36-.01.36-.01.36-.01.36-.01.37-.02.36-.02.36-.02.36-.03.36-.02.37-.03.36-.03.36-.04.36-.03.36-.04.37-.03.36-.04.36-.04.36-.03.37-.04.36-.03.36-.04.36-.03.36-.03.37-.02.36-.02.36-.02.36-.01.36-.01h.73l.36.01.36.01.36.02.37.02.36.03.36.04.36.03.36.05.37.04.36.05.36.05.36.06.37.05.36.06.36.06.36.06.36.06.37.05.36.06.36.05.36.05.36.04.37.04.36.04.36.03.36.03.36.03.37.01.36.01.36.01h.36l.37-.01.36-.01.36-.01.36-.02.36-.03.37-.03.36-.04.36-.04.36-.04.36-.04.37-.05.36-.05.36-.05.36-.05.36-.05.37-.05.36-.05.36-.04.36-.04.37-.04.36-.04.36-.03.36-.03.36-.02.37-.02.36-.02h1.08l.37.01.36.01.36.02.36.02.36.03.37.04.36.03.36.04.36.05.36.05.37.04.36.06.36.05.36.06.37.05.36.06.36.05.36.06.36.06.37.05.36.05.36.06.36.04.36.05.37.05.36.04.36.04.36.03.36.03.37.03.36.02.36.02.36.02.37.01.36.01h.72l.36-.01.37-.01.36-.01.36-.02.36-.02.36-.03.37-.03.36-.03.36-.04.36-.04.36-.04.37-.04.36-.05.36-.05.36-.05.36-.06.37-.05.36-.06.36-.06.36-.06.37-.06.36-.07.36-.06.36-.07.36-.07.37-.07.36-.07.36-.07.36-.07.36-.08.37-.07.36-.08.36-.08.36-.07.36-.08.37-.08.36-.08.36-.08.36-.09.37-.08.36-.07.36-.08.36-.08.36-.08.37-.07.36-.07.36-.07.36-.07.36-.07.37-.06.36-.06.36-.06.36-.06.36-.06.37-.05.36-.06.36-.05.36-.06.36-.05.37-.05.36-.06.36-.06.36-.05.37-.06.36-.06.36-.06.36-.06.36-.06.37-.06.36-.06.36-.05.36-.05.36-.04.37-.04.36-.03.36-.02.36-.02h.36l.37.01.36.01.36.03.36.05.37.05.36.07.36.07.36.09.36.1.37.1.36.11.36.12.36.12.36.12.37.13.36.11.36.12.36.11.36.1.37.09.36.08.36.07.36.06.37.04.36.03.36.02h.36l.36-.01.37-.02.36-.03.36-.04.36-.05.36-.06.37-.06.36-.06.36-.07.36-.06.36-.06.37-.06.36-.05.36-.05.36-.04.36-.04.37-.03.36-.02.36-.02.36-.01h.37l.36-.01h.72l.36.01h.73l.36-.01.36-.01.36-.01.37-.02.36-.03.36-.03.36-.04.36-.05.37-.05.36-.05.36-.06.36-.06.37-.06.36-.06.36-.05.36-.05.36-.04.37-.03.36-.02h.36l.36.01.36.02.37.04.36.06.36.07.36.08.36.1.37.12.36.12.36.14.36.14.36.15.37.16.36.15.36.16.36.15.37.16.36.14.36.14.36.13.36.12.37.11.36.11.36.09.36.08.36.07.37.06.36.05.36.04.36.04.36.02.37.01h.72l.36-.01.37-.02.36-.03.36-.03.36-.04.36-.04.37-.05.36-.05.36-.05.36-.05.36-.06.37-.04.36-.05.36-.03.36-.03.36-.02h.37l.36.01.36.02.36.04.36.05.37.07.36.08.36.09.36.1.37.1.36.11.36.1.36.09.36.08.37.06.36.04.36.02h.36l.36-.03.37-.06.36-.08.36-.1.36-.11.36-.12.37-.13.36-.12.36-.11.36-.09.37-.08.36-.04.36-.02h.36l.36.04.37.06.36.09.36.1.36.11.36.11.37.11.36.09.36.07.36.05.36.02.37-.02.36-.06.36-.1.36-.14.37-.17.36-.19.36-.21.36-.21.36-.2.37-.16.36-.11.36-.04.36.02.36.1.37.15.36.18.36.17.36.12.36.04.37-.08.36-.18.36-.26.36-.3.36-.28.37-.19.36-.05.36.11.36.29.37.4.36.42.36.34.36.22.36.21.37.54.36 1.31.36 2.98"/><use xlink:href="#5c387__g" transform="matrix(3.75 0 0 3.75 240.55 135.02)"/><use xlink:href="#5c387__g" transform="matrix(3.75 0 0 3.75 220.55 22.51)"/></g><path fill="none" d="M28 60.01V162.5M371.99 60.01H28" color="#000"/></svg>