<svg xmlns="http://www.w3.org/2000/svg" xmlns:xlink="http://www.w3.org/1999/xlink" viewBox="0 0 400 200"><path fill="none" d="M0 0h400v200H0z"/><defs><use xlink:href="#65fa0__a" id="65fa0__b" fill="currentColor" stroke="none"/><use xlink:href="#65fa0__a" id="65fa0__c" stroke="currentColor" transform="rotate(180)"/><path id="65fa0__a" stroke="currentColor" stroke-width=".267" d="m0-1.33-1.33 2h2.66z"/></defs><path fill="none" stroke="#CCC" stroke-linecap="round" stroke-linejoin="round" stroke-width=".1" d="M46.1 162.5V45.01" class="65fa0__gridline" color="#000"/><g fill="none" stroke-linecap="round" stroke-linejoin="round" stroke-width="0" color="#000"><path d="M46.1 162.5V155m0-109.99v7.5"/><text fill="#000" font-family="KaTeX_Main" font-size="8" text-anchor="middle" transform="translate(46.1 172.6)"><tspan> 1</tspan></text></g><path fill="none" stroke="#CCC" stroke-linecap="round" stroke-linejoin="round" stroke-width=".1" d="M82.31 162.5V45.01" class="65fa0__gridline" color="#000"/><g fill="none" stroke-linecap="round" stroke-linejoin="round" stroke-width="0" color="#000"><path d="M82.31 162.5V155m0-109.99v7.5"/><text fill="#000" font-family="KaTeX_Main" font-size="8" text-anchor="middle" transform="translate(82.31 172.6)"><tspan> 2</tspan></text></g><path fill="none" stroke="#CCC" stroke-linecap="round" stroke-linejoin="round" stroke-width=".1" d="M118.52 162.5V45.01" class="65fa0__gridline" color="#000"/><g fill="none" stroke-linecap="round" stroke-linejoin="round" stroke-width="0" color="#000"><path d="M118.52 162.5V155m0-109.99v7.5"/><text fill="#000" font-family="KaTeX_Main" font-size="8" text-anchor="middle" transform="translate(118.52 172.6)"><tspan> 3</tspan></text></g><path fill="none" stroke="#CCC" stroke-linecap="round" stroke-linejoin="round" stroke-width=".1" d="M154.73 162.5V45.01" class="65fa0__gridline" color="#000"/><g fill="none" stroke-linecap="round" stroke-linejoin="round" stroke-width="0" color="#000"><path d="M154.73 162.5V155m0-109.99v7.5"/><text fill="#000" font-family="KaTeX_Main" font-size="8" text-anchor="middle" transform="translate(154.73 172.6)"><tspan> 4</tspan></text></g><path fill="none" stroke="#CCC" stroke-linecap="round" stroke-linejoin="round" stroke-width=".1" d="M190.94 162.5V45.01" class="65fa0__gridline" color="#000"/><g fill="none" stroke-linecap="round" stroke-linejoin="round" stroke-width="0" color="#000"><path d="M190.94 162.5V155m0-109.99v7.5"/><text fill="#000" font-family="KaTeX_Main" font-size="8" text-anchor="middle" transform="translate(190.94 172.6)"><tspan> 5</tspan></text></g><path fill="none" stroke="#CCC" stroke-linecap="round" stroke-linejoin="round" stroke-width=".1" d="M227.15 162.5V45.01" class="65fa0__gridline" color="#000"/><g fill="none" stroke-linecap="round" stroke-linejoin="round" stroke-width="0" color="#000"><path d="M227.15 162.5V155m0-109.99v7.5"/><text fill="#000" font-family="KaTeX_Main" font-size="8" text-anchor="middle" transform="translate(227.15 172.6)"><tspan> 6</tspan></text></g><path fill="none" stroke="#CCC" stroke-linecap="round" stroke-linejoin="round" stroke-width=".1" d="M263.36 162.5V45.01" class="65fa0__gridline" color="#000"/><g fill="none" stroke-linecap="round" stroke-linejoin="round" stroke-width="0" color="#000"><path d="M263.36 162.5V155m0-109.99v7.5"/><text fill="#000" font-family="KaTeX_Main" font-size="8" text-anchor="middle" transform="translate(263.36 172.6)"><tspan> 7</tspan></text></g><path fill="none" stroke="#CCC" stroke-linecap="round" stroke-linejoin="round" stroke-width=".1" d="M299.57 162.5V45.01" class="65fa0__gridline" color="#000"/><g fill="none" stroke-linecap="round" stroke-linejoin="round" stroke-width="0" color="#000"><path d="M299.57 162.5V155m0-109.99v7.5"/><text fill="#000" font-family="KaTeX_Main" font-size="8" text-anchor="middle" transform="translate(299.57 172.6)"><tspan> 8</tspan></text></g><path fill="none" stroke="#CCC" stroke-linecap="round" stroke-linejoin="round" stroke-width=".1" d="M335.78 162.5V45.01" class="65fa0__gridline" color="#000"/><g fill="none" stroke-linecap="round" stroke-linejoin="round" stroke-width="0" color="#000"><path d="M335.78 162.5V155m0-109.99v7.5"/><text fill="#000" font-family="KaTeX_Main" font-size="8" text-anchor="middle" transform="translate(335.78 172.6)"><tspan> 9</tspan></text></g><path fill="none" stroke="#CCC" stroke-linecap="round" stroke-linejoin="round" stroke-width=".1" d="M371.99 162.5V45.01" class="65fa0__gridline" color="#000"/><g fill="none" stroke-linecap="round" stroke-linejoin="round" stroke-width="0" color="#000"><path d="M371.99 162.5V155m0-109.99v7.5"/><text fill="#000" font-family="KaTeX_Main" font-size="8" text-anchor="middle" transform="translate(371.99 172.6)"><tspan> 10</tspan></text></g><g fill="none" stroke-linecap="round" stroke-linejoin="round" stroke-width="0" color="#000"><path d="M371.99 162.5h-7.5"/><text fill="#000" font-family="KaTeX_Main" font-size="8" transform="translate(378.99 165.1)"><tspan>1.00</tspan></text></g><g fill="none" stroke-linecap="round" stroke-linejoin="round" stroke-width="0" color="#000"><path d="M371.99 147.81h-7.5"/><text fill="#000" font-family="KaTeX_Main" font-size="8" transform="translate(378.99 150.41)"><tspan>1.10</tspan></text></g><g fill="none" stroke-linecap="round" stroke-linejoin="round" stroke-width="0" color="#000"><path d="M371.99 133.13h-7.5"/><text fill="#000" font-family="KaTeX_Main" font-size="8" transform="translate(378.99 135.73)"><tspan>1.20</tspan></text></g><g fill="none" stroke-linecap="round" stroke-linejoin="round" stroke-width="0" color="#000"><path d="M371.99 118.44h-7.5"/><text fill="#000" font-family="KaTeX_Main" font-size="8" transform="translate(378.99 121.04)"><tspan>1.30</tspan></text></g><g fill="none" stroke-linecap="round" stroke-linejoin="round" stroke-width="0" color="#000"><path d="M371.99 103.75h-7.5"/><text fill="#000" font-family="KaTeX_Main" font-size="8" transform="translate(378.99 106.35)"><tspan>1.40</tspan></text></g><g fill="none" stroke-linecap="round" stroke-linejoin="round" stroke-width="0" color="#000"><path d="M371.99 89.07h-7.5"/><text fill="#000" font-family="KaTeX_Main" font-size="8" transform="translate(378.99 91.67)"><tspan>1.50</tspan></text></g><g fill="none" stroke-linecap="round" stroke-linejoin="round" stroke-width="0" color="#000"><path d="M371.99 74.38h-7.5"/><text fill="#000" font-family="KaTeX_Main" font-size="8" transform="translate(378.99 76.98)"><tspan>1.60</tspan></text></g><g fill="none" stroke-linecap="round" stroke-linejoin="round" stroke-width="0" color="#000"><path d="M371.99 59.7h-7.5"/><text fill="#000" font-family="KaTeX_Main" font-size="8" transform="translate(378.99 62.3)"><tspan>1.70</tspan></text></g><g fill="none" stroke-linecap="round" stroke-linejoin="round" stroke-width="0" color="#000"><path d="M371.99 45.01h-7.5"/><text fill="#000" font-family="KaTeX_Main" font-size="8" transform="translate(378.99 47.61)"><tspan>1.80</tspan></text></g><path fill="none" d="M28 45.01V162.5M371.99 45.01H28" color="#000"/><text stroke-linecap="round" stroke-linejoin="round" stroke-width="0" color="#000" font-family="KaTeX_Main" font-size="10" text-anchor="middle" transform="rotate(-90 57.63 46.13)"><tspan font-weight="bold">Allocations </tspan><tspan> / log</tspan><tspan dy="3" font-size="8">2</tspan><tspan dy="-3">(Size)</tspan></text><text stroke-linecap="round" stroke-linejoin="round" stroke-width="0" color="#000" font-family="KaTeX_Main" font-size="10" text-anchor="middle" transform="translate(199.99 195.75)"><tspan>Operations / 10</tspan><tspan dy="-5" font-size="8">6</tspan></text><text stroke-linecap="round" stroke-linejoin="round" stroke-width=".5" color="#000" font-family="KaTeX_Main" font-size="8" transform="translate(110.4 10.11)"><tspan>AVLBottomUp</tspan></text><g fill="none" stroke="currentColor" stroke-linecap="round" stroke-linejoin="round" stroke-width=".5" color="#000"><path stroke="#000" d="M74.9 7.51h29.9M28 132.45l.36-.88.36-.47.37.66.36.46.36-.35.36-.23.36 1.45.37-.53.36.46.36.21.36-.16.37 3.73.36-.87.36-.88.36-.55.36.09.37.76.36-.82.36.51.36.52.36-4.66.37-1.75.36-1.06.36 3.44.36 1.64.36-3.91.37 1.22.36-.66.36.44.36.6.36-.33.37 1.1.36-.84.36-.17.36.68.37-.9.36 1.38.36 1.05.36-.88.36-.19.37-.23.36 4.14.36 3.89.36.22.36 3.67.37-3.95.36-5.82.36-1.21.36.67.36-.24.37 1.38.36-1.47.36 1.3.36-.45.37 1.27.36-1.3.36.56.36-.37.36.53.37.9.36-1.2.36.87.36 1.94.36-2.52.37.56.36-.01.36 1.69.36-1.87.36.61.37 3.26.36-.83.36-1.1.36-1.59.37.63.36-.16.36 1.39.36.78.36-1.6.37 1.31.36-.7.36-2.79.36-4.08.36-.12.37.45.36.05.36.12.36 4.34.36-4.85.37.47.36.55.36.18.36-.79.36.51.37-.04.36 1.95.36-1.83.36.44.37.06.36.21.36-.63.36.78.36.42.37-.79.36 6.05.36 1.92.36-1.21.36-2.55.37-2.56.36-1.36.36 3.02.36.34.36 4.76.37-.37.36-2.41.36-4.27.36 1.43.37-1.42.36.15.36-.28.36.77.36 6.9.37.13.36-6.65.36.25.36-.39.36-.19.37.31.36-.1.36.38.36.48.36-.22.37-.36.36 2.44.36-1.72.36-.87.36.42.37 1.02.36 4.65.36 1.57.36-.44.37-1.23.36-4.56.36 2.98.36-3.59.36.65.37.08.36.61.36-.52.36-.8.36.26.37 1.92.36 1.62.36-2.36.36-.76.36 1 .37.36.36-.82.36.16.36 4.05.37 2.63.36.04h.36l.36-1.94.36-4.83.37 1.24.36-.75.36-.31.36.38.36-.09.37 2.13.36-1.51.36.08.36 1.94.36-2.29.37-.17.36.16.36.04.36.01.36.8.37.53.36.39.36-1.03.36-.44.37-.15.36.9.36-.54.36.01.36.71.37 2.62.36-2.92.36.58.36-.67.36 1.34.37-.32.36-.85.36 3.58.36 3.75.36-1.08.37-5.6.36-.25.36-.01.36-.07.37.7.36-.24.36.17.36.13.36 1.68.37-1.72.36-.1.36 1.21.36-1 .36 2.8.37-2.78.36.57.36-.69.36 2.82.36-2.25.37-6.5.36-.22.36-.17.36 2.09.37 1.85.36-3.83.36 1.13.36-1.15.36 2.53.37-2.43.36 1.26.36 1.21.36-1.68.36.11.37-.36.36-.71.36 1.5.36-1.07.36.07.37.45.36-.7.36 1.73.36-1.55.36.76.37-.29.36 3.06.36-3.08.36-.09.37.34.36.9.36-1 .36.9.36.17.37-.91.36.15.36-.12.36-.22.36 1.12.37-.33.36-.49.36.35.36-.23.36 1.38.37-1.03.36-.33.36 7.82.36-2.72.37-4.52.36-.27.36-.25.36.27.36 1.12.37.5.36-.77.36-.68.36.14.36.09.37-.19.36.57.36-.26.36-.19.36.47.37.32.36.58.36 2.54.36-3 .36-.52.37.47.36.51.36-.38.36-.1.37-.28.36.35.36-.04.36.68.36-.88.37.91.36-1.23.36.55.36.21.36 1.44.37-1.97.36.64.36-.38.36 5.28.36-4.56.37.16.36-.97.36.52.36.26.37-.44.36.5.36.39.36-1.01.36 5.25.37-4.65.36-.3.36 5.66.36-5.39.36.18.37.09.36 1.4.36-.47.36-.2.36.5.37-.73.36-.89.36.1.36.53.36-.4.37.26.36.67.36-.85.36 2.54.37-1.67.36.81.36-.97.36-.4.36 1.13.37-1.46.36 1.47.36-.02.36-.3.36 5.6.37.67.36-4.4.36-2.12.36.12.36.07.37 1.45.36-1.63.36 3.09.36-2.45.37-1.13.36 1.25.36-.37.36.08.36.04.37-.46.36 4.14.36 2.71.36-.38.36-.04.37-.97.36-5.45.36 1.2.36-.77.36.07.37.52.36-.42.36.22.36-.78.37 2.18.36-1.72.36-.21.36.1.36.94.37-.37.36-.46.36-.17.36.38.36-.26.37 1.61.36-.78.36-.05.36-.72.36.81.37-.4.36-.09.36 2.85.36.47.36-3.37.37 3.23.36-2.96.36-.03.36.18.37 1.09.36-1.05.36.25.36-.36.36.15.37.4.36-.68.36.24.36.4.36.11.37.58.36-.84.36.06.36.22.36.42.37-.51.36.37.36-.52.36.74.37-.35.36-.2.36-.16.36.11.36.28.37 1.07.36-1.58.36 2.98.36-1.71.36-.98.37 1.16.36-6.96.36.33.36-.68.36 1.06.37-.8.36.4.36-.69.36-.13.36.46.37.17.36-.27.36-.42.36.53.37-.26.36.24.36.82.36-.72.36.53.37.9.36-.11.36-1.07.36-.18.36.45.37.83.36-1.47.36.38.36.14.36-.29.37-.26.36.81.36-.39.36.29.37-.21.36-.6.36.85.36.39.36-.06.37.17.36-1.08.36.35.36.18.36-.28.37 3.21.36-3.11.36.78.36-.49.36.03.37.73.36-.55.36 4.91.36 1.01.37.18.36-5.07.36-.95h.36l.36.37.37-.56.36.52.36-.64.36.81.36-.1.37-.28.36 7.5.36.29.36-5.39.36-1.66.37.98.36-1.8.36.39.36-.23.36.58.37-.86.36.79.36.29.36 2.25.37-2.74.36 1.54.36-1.55.36-.07.36 1.32.37-1.31.36-.27.36 3.1.36 3.7.36 1.4.37-.51.36-6.43.36-.69.36-.21.36.02.37.87.36-.85.36 1.33.36-.7.37 6.45.36-5.24.36-.88.36-.92.36.35.37-.31.36 1.35.36-.48.36-.27.36-.06.37.43.36-.67.36 1.25.36-.6.36-.31.37.02.36 1.12.36-.63.36 1.4.36-1.47.37-.71.36.28.36 1.11.36-.37.37-.87.36.31.36-.39.36.31.36.59.37-.44.36.72.36-1.01.36-.21.36 2.53.37-.8.36-.27.36-.05.36.16.36 1.26.37-2.18.36 2.56.36.68.36-2.21.37.98.36-2.52.36.59.36-.39.36.61.37-.45.36.51.36-.35.36.65.36-.76.37-.33.36 1.33.36-1.03.36 2.47.36-.4.37-1.17.36-.08.36 2.06.36 3.37.36.4.37-5.11.36-1.36.36.21.36 1.25.37-1.4.36 2.29.36-1.84.36 6.35.36-.11.37-2.86.36-2.49.36-.29.36.39.36.29.37-.67.36 1.16.36.9.36-1.34.36.64.37-1.45.36-.4.36.61.36-.65.37.17.36-.18.36 4.04.36-1.61.36-.26h.37l.36-2.09.36.5.36.16.36-.41.37.12.36.59.36 4.19.36-4.68.36.11.37.22.36-.76.36 1.29.36-.64.37-.52.36-.36.36 1.62.36-.73.36-.21.37-.41.36 1.87.36-.98.36.14.36-.71.37-.52.36.54.36.51.36-.3.36.17.37.2.36-.14.36.13.36-.64.36 1.42.37-1.16.36.25h.36l.36-.33.37.06.36-.1.36 1.62.36-.79.36 2.53.37-3.2.36.46.36.82.36.04.36-.96.37-.19.36.16.36.31.36-.44.36-.05.37.06.36.96.36-.74.36-.02.37-.04.36-.3.36-.18.36.65.36-.16.37 3.47.36-3.31.36-.58.36 1.09.36 3.62.37-.96.36-3.34.36 3.11.36-2.61.36-.7.37.79.36.06.36-.82.36.42.36-.01.37.13.36 1.67.36-2.3.36 2.46.37-2.1.36 10.84.36-4.72.36-5.2.36-.72.37 1.04.36-.54.36-.33.36-.25.36 1.27.37-.64.36 2.11.36-1.69.36-1.24.36 1.35.37-.17.36 5.15.36-.97.36-4.55.37.38.36-.9.36.21.36.25.36-.39.37.75.36.69.36-.28.36-.64.36.24.37-.28.36-.33.36.2.36.37.36.09.37.28.36-.42.36 3.38.36-.14.36-3.26.37-.13h.72l.36.81.37-.61.36.45.36-.06.36-.3.36 2 .37.54.36-.47.36 3.07.36-3.72.36-1.64.37.59.36.03.36.62.36-.64.36-.49.37 1.07.36.35.36-1.36.36.25.37-.28.36-.04.36.19.36-.11.36.66.37.49.36-.81.36.21.36-.39.36.06.37.01.36-.41.36.34.36.04.36 1.07.37-.89.36 5.09.36-.34.36-2.54.37-1.97.36.41.36-.4.36.12.36-.24.37.04.36-.07.36-.24.36-.12.36.16.37 1.46.36 2.78.36-3.26.36-.32.36-.05.37-.78.36.44.36.48.36 1.62.36-2.21.37.4.36-.44.36.84.36-.08.37.02.36.15.36-.76.36-.17.36.27.37-.26.36 1.05.36-.43.36-.19.36-.43.37.39.36 2.03.36-1.19.36 1.77.36-1.88.37-.72.36.37.36.76.36-.69.37-.52.36.2.36.3.36-.44.36.45.37-.26.36-.11h.36l.36-.35.36.11.37.49.36-.52.36.3.36.11.36-.08.37.4.36-.09.36 1.06.36-1.04.36-.19.37 1.16.36-.57.36-.31.36 1.66.37-2.15.36.95.36-.79.36.84.36-1.02.37-.18.36.18.36.55.36-.29.36-.53.37-5.25.36.63.36.31.36-.33.36.65.37-.28.36-.63.36.73.36-1.4.37.81.36.81.36-1.06.36.94.36 3.9.37-3.46.36-1.56.36.6.36 1.46.36 3.45.37-2.64.36-2.38.36-.17.36 1.93.36-2.04.37-.25.36.26.36.09.36 1.13.36 2.32.37-.47.36-1.58.36 4.73.36-2.54.37-3.67.36.51.36-.5.36.26.36-.19.37 1.08.36 1.65.36-2.86.36.4.36.73.37 5.76.36 1.55.36-1.62.36-.29.36 1.35.37-1.25.36-.05.36-.19.36.14.37.86.36-.58.36-.69.36 4.08.36-3.25.37.22.36-.05.36.01.36.14.36 1.01.37-1.94.36.32.36-.09.36.58.36 2.67.37 4.09.36-1.54.36-1.62.36-4.08.37-.07.36 2.75.36-.7.36-1.95.36-1.63.37-2.03.36-1.56.36.38.36.58.36-1.65.37 1.76.36-1.64.36.29.36-.51.36.1.37.29.36-.34.36-.08.36.38.36-.4.37 2.18.36.24.36.06.36-2.1.37.1.36 5.54.36-4.73.36-1.15.36 2.17.37-1.96.36.93.36-.11"/><use xlink:href="#65fa0__b" transform="matrix(3.75 0 0 3.75 354.25 141.17)"/><use xlink:href="#65fa0__b" transform="matrix(3.75 0 0 3.75 89.85 7.51)"/></g><text stroke-linecap="round" stroke-linejoin="round" color="#000" font-family="KaTeX_Main" font-size="8" transform="translate(110.4 25.11)"><tspan>RedBlackBottomUp</tspan></text><g fill="none" stroke="currentColor" stroke-linecap="round" stroke-linejoin="round" color="#000"><path stroke="#F44336" d="M74.9 22.51h29.9M28 54.18l.36.74.36.13.37 1.15.36.18.36-.1.36.44.36.73.37.65.36-.17.36.69.36.21.37-.04.36.82.36.21.36.36.36.2.37.73.36.59.36-.33.36.57.36.16.37.09.36.68.36.27.36-4.3.36-2.89.37.51.36.6.36.16.36.12.36.12.37.17.36.29.36.23.36.15.37.46.36.16.36.15.36.53.36.51.37-.23.36.42.36.47.36-.13.36-.28.37.66.36.43.36.22.36.03.36.49.37.09.36-.18.36.45.36.08.37.2.36.33.36-3.69.36-3.09.36.09.37.16.36.05.36.53.36.07.36-.22.37.13.36.6.36.37.36-.02.36-.07.37.65.36-.16.36-.4.36.37.37.9.36.02.36.09.36.33.36.21.37.32.36-.53.36.42.36.27.36.12.37-.36.36.85.36-.06.36.31.36-.09.37-.26.36.73.36-.24.36-.08.36.84.37-.05.36.13.36-.11.36.37.37.5.36-.08.36-.25.36.34.36.22.37.37.36-.38.36.11.36-.09.36.04.37.59.36-.13.36.06.36.42.36.34.37-.17.36.25.36.14.36.05.37.02.36.33.36-.19.36.21.36.34h.37l.36.38.36-.16.36.03.36.33.37.56.36-.11.36.12.36-5.81.36-1.12.37.44.36-.43.36-.04.36.43.36.13.37.12.36.4.36-.28.36.07.37.44.36-.1.36-.07.36.21.36.62.37-.41.36-.02.36.59.36-.46.36.19.37.2.36-.43.36.35.36.15.36-.05.37.33.36-.09.36.52.36-.38.37.18.36-.07.36.57.36-.16.36.1.37.18.36-.45.36.19.36.61.36-.14.37.12.36.29.36-.22.36.11.36.37.37.01.36.15.36-.13.36-.02.36.39.37-.04.36-.15.36.63.36.03.37-.49.36.35.36.4.36-.13.36-.09.37.26.36-.06.36.36.36.05.36.12.37.28.36-.15.36.62.36-.29.36-.03.37.42.36-.59.36.18.36.08.37.35.36.05.36-.23h.36l.36.08.37-.03.36.69.36.19.36-.12.36-.21.37-3.01.36-3.61.36.13.36-.24.36.37.37-.03.36-.05.36.06.36.45.37-.4.36.04.36.2.36.29.36-.17.37.38.36-.08.36.34.36.05.36-.38.37.07.36.49.36-.18.36-.32.36.88.37.06.36-.21.36-.02.36.4.36-.39.37.43.36.18.36.34.36-.7.37.26.36.07.36.2.36.07.36-.03.37-.18.36-.34.36-.04.36.14.36.23.37-.23.36.38.36-.08.36.73.36-.26.37-.27.36-.18.36.43.36-.46.37.61.36.09.36-.09.36.11.36.05.37.16.36.26.36-.19.36-.02.36.26.37-.23.36.3.36.04.36-.08.36-.17.37-.01.36.11.36.83.36-.26.36.25.37-.49.36.12.36.31.36-.18.37.14.36-.24.36.5.36.13.36-.11.37.11.36-.01.36.18.36.09.36.12.37-.32.36-.26.36.48.36-.08.36.14.37.1.36.1.36-.03.36.45.37-.23.36.07.36-.06.36-.25.36.65.37-.02.36-.36.36.56.36.05.36-.17.37-.22.36.09.36.46.36.13.36-.07.37.1.36-.06.36-.04.36.03.36-.2.37.18.36.26.36.27.36-.11.37.61.36-.66.36-.08.36.48.36-.44.37-.06.36.54.36.14.36-.57.36.4.37-.03.36.53.36-.49.36.6.36-.4.37.51.36-.47.36-.06.36.36.37-.47.36.2.36.09.36.12.36.08.37-.09.36.47.36-.51.36.45.36-.23.37.14.36.03.36.22.36-.64.36.77.37.18.36-.43.36.23.36.18.37.42.36-.32.36.05.36.15.36-.53.37.79.36-.43.36.62.36-.28.36.12.37-.34.36.39.36-.16.36.07.36-.19.37.21.36-.12.36.59.36-.19.36.13.37-.31.36.49.36.13.36-.33.37.37.36.13.36-.08.36.11.36-.09.37-.07.36-.35.36.68.36-.2.36-.11.37-.1.36.56.36-.18.36-2.81.36-3.83.37.46.36-.08.36-.09.36.38.37-.74.36.79.36-.3.36-.39.36.31.37.2.36-.15.36.57.36-.17.36.64.37-.69.36.72.36-.92.36.42.36.02.37.21.36-.05.36-.23.36.22.36-.01.37-.07.36.08.36.1.36-.25.37.17.36.3.36-.12.36.15.36.26.37.11.36-.08.36-.22.36-.42.36.96.37-.26.36-.22.36.33.36-.05.36-.26.37.15.36-.19.36.63.36-.87.37.61.36-.32.36.71.36-.01.36-.05.37.33.36-.48.36.23.36.02.36-.19.37.72.36-.51.36-.29.36.48h.36l.37-.29.36.27.36.36.36.11.37-.44.36.02.36-.28.36.7.36-1 .37 1.07.36.06.36-.27.36.03.36-.04.37-.12.36.61.36-.39.36.26.36-.16.37.14.36.16.36-.07.36.18.36.17.37-.49.36.44.36-.09.36.26.37-.21.36.24.36-.3.36.05.36.03.37.1.36.14.36.04.36.54.36-.38.37-.6.36 1 .36-.68.36.34.36.11.37.14.36.09.36-.43.36.34.37.02.36.55.36-.17.36-.28.36-.41.37.33.36.33.36.11.36-.3.36.2.37.17.36-.21.36-.01.36.16.36-.06.37-.16.36.18.36.02.36.19.36-.54.37 1.07.36-.83.36.21.36.12.37.32.36.01.36.19.36-.49.36.94.37-.43.36-.15.36.55.36-.52.36.34.37-.19.36-.07.36-.35.36.32.36.35.37-.04.36.25.36-.17.36-.38.37.31.36.21.36-.42.36.36.36.26.37-.39.36-.16.36.17.36.76.36-.31.37-.31.36.18.36-.33.36.3.36.6.37.42.36-.5.36-.6.36.54.36-.29.37.28.36-.05.36-.23.36.21.37.07.36-.04.36-.03.36.27.36-.29.37-.08.36.28.36.33.36.06.36-.57.37.21.36.04.36.22.36.45.36-.22.37-.2.36-.15.36.26.36-.11.37.02.36-.22.36.64.36-.3.36.38.37-.33.36.17.36.13.36-.32.36.87.37-.18.36-.47.36.49.36.03.36-.42.37.17.36-.01.36-.44.36.41.37-5.72.36-.51.36.15.36-.33.36.89.37.19.36-.61.36-.02.36-.59.36.38.37.29.36-.02.36.11.36.25.36.14.37-.05.36-.64.36.68.36-.62.36.15.37-.19.36.62.36-.32.36.01.37.02.36.14.36.49.36-.36.36-.01.37.31.36-.29.36.21.36-.17.36-.05.37-.06.36.37.36-.17.36-.43.36.02.37.47.36-.32.36.03.36.6.37-.57.36.06.36.66.36-.79.36.32.37.11.36.39.36-.89.36-.1.36.78.37-.04.36-.11.36.01.36.49.36.05.37-.04.36-.04.36.33.36.19.36-.13.37-.13.36-.22.36-.17.36-.01.37.53.36-.48.36-.22.36.52.36.18.37.23.36-.66.36.57.36-.77.36.41.37-.13.36.32.36.36.36-.73.36.62.37-.44.36.02.36.68.36-.23.37.51.36-.32.36.06.36-.38.36.1.37-.02.36.17.36.32.36-.18.36-.17.37.18.36.06.36-.29.36.08.36.25.37-.36.36.54.36-.38.36-.33.36.59.37-.02.36-.1.36.46.36.02.37-.22.36-.22.36.34.36-.06.36.46.37-.49.36.39.36.03.36-.28.36-.26.37-.12.36.56.36.43.36-.07.36.08.37-.17.36-.24.36-.26.36-.13.37.83.36-.34.36.21.36-.37.36.19.37-.13h.36l.36.4.36-.45.36.76.37-.67.36.25.36.01.36-.1.36.29.37-.29.36.6.36-.38.36.15.37-.55.36.37.36.14.36-.23.36.53.37-.26.36-.17.36.06.36-.31.36.37.37.95.36-.55.36.03.36-.32.36-.1.37.17.36.1.36.1.36-.01.36.31.37-.27.36-.13.36.18.36.16.37-.28.36.05.36.53.36-.43.36.29.37-.07.36-.18.36.24.36-.34.36.73.37.14.36-.11.36-.49.36.48.36.13.37.03.36-.47.36.13h.36l.37-.34.36.47h.36l.36-.09.36.08.37-.21.36.13.36-.22.36.48.36.07.37.14.36-.92.36.42.36.43.36-.52.37.46.36.36.36-.46.36-.29.36.22.37.2.36.24.36-.1.36-.26.37.51.36.23.36-.56.36-.11.36.17.37-.07.36.09.36.06.36.01.36.22.37-.2.36-.3.36.47.36.26.36.27.37-.15.36-.11.36-.07.36.14.37-.45.36.77.36-.03.36-.26.36.49.37-.55.36-.24.36.87.36-.54.36.23.37.36.36-.13.36-.53h.36l.36.22.37-.5.36.88.36-.45.36-.04.36.25.37.04.36.27.36-.34.36.19.37-.23.36.57.36-.44.36.58.36-.27.37-.07.36.37.36-.07.36-.28.36-.39.37.57.36-.08.36.11.36-.36.36.46.37-.27.36.32.36-.26.36.34.37-.3.36.05.36-.19.36.49.36-.56.37.44.36.19.36-.3.36.12.36.38.37-.32.36.02.36-.15.36.02.36.42.37-.68.36.39.36-.14.36.54.37-.66.36.34.36.17.36.05.36-.22.37.36.36-.38.36.53.36.12.36-.66.37.21.36.07.36.08.36-.36.36.52.37-.28h.36l.36.06.36-.23.36.18.37.16.36.58.36-.63.36.65.37-.5.36.1.36.01.36-.08.36.32h.73l.36-.35"/><use xlink:href="#65fa0__a" color="#F44336" transform="matrix(3.75 0 0 3.75 67.83 63.96)"/><use xlink:href="#65fa0__a" color="#F44336" transform="matrix(3.75 0 0 3.75 89.85 22.51)"/></g><text stroke-linecap="round" stroke-linejoin="round" color="#000" font-family="KaTeX_Main" font-size="8" transform="translate(241.1 10.11)"><tspan>AVLWeakBottomUp</tspan></text><g fill="none" stroke="currentColor" stroke-linecap="round" stroke-linejoin="round" color="#000"><path stroke="#00C853" d="M205.6 7.51h29.9M28 132.45l.36-.88.36-.47.37.66.36.46.36-.35.36-.23.36 1.45.37-.53.36.46.36.21.36-.16.37 3.73.36-.87.36-.88.36-.55.36.09.37.76.36-.82.36.51.36.52.36-4.66.37-1.75.36-1.06.36 3.44.36 1.64.36-3.91.37 1.22.36-.66.36.44.36.6.36-.33.37 1.1.36-.84.36-.17.36.68.37-.9.36 1.38.36 1.05.36-.88.36-.19.37-.23.36 4.14.36 3.89.36.22.36 3.67.37-3.95.36-5.82.36-1.21.36.67.36-.24.37 1.38.36-1.47.36 1.3.36-.45.37 1.27.36-1.3.36.56.36-.37.36.53.37.9.36-1.2.36.87.36 1.94.36-2.52.37.56.36-.01.36 1.69.36-1.87.36.61.37 3.26.36-.83.36-1.1.36-1.59.37.63.36-.16.36 1.39.36.78.36-1.6.37 1.31.36-.7.36-2.79.36-4.08.36-.12.37.45.36.05.36.12.36 4.34.36-4.85.37.47.36.55.36.18.36-.79.36.51.37-.04.36 1.95.36-1.83.36.44.37.06.36.21.36-.63.36.78.36.42.37-.79.36 6.05.36 1.92.36-1.21.36-2.55.37-2.56.36-1.36.36 3.02.36.34.36 4.76.37-.37.36-2.41.36-4.27.36 1.43.37-1.42.36.15.36-.28.36.77.36 6.9.37.13.36-6.65.36.25.36-.39.36-.19.37.31.36-.1.36.38.36.48.36-.22.37-.36.36 2.44.36-1.72.36-.87.36.42.37 1.02.36 4.65.36 1.57.36-.44.37-1.23.36-4.56.36 2.98.36-3.59.36.65.37.08.36.61.36-.52.36-.8.36.26.37 1.92.36 1.62.36-2.36.36-.76.36 1 .37.36.36-.82.36.16.36 4.05.37 2.63.36.04h.36l.36-1.94.36-4.83.37 1.24.36-.75.36-.31.36.38.36-.09.37 2.13.36-1.51.36.08.36 1.94.36-2.29.37-.17.36.16.36.04.36.01.36.8.37.53.36.39.36-1.03.36-.44.37-.15.36.9.36-.54.36.01.36.71.37 2.62.36-2.92.36.58.36-.67.36 1.34.37-.32.36-.85.36 3.58.36 3.75.36-1.08.37-5.6.36-.25.36-.01.36-.07.37.7.36-.24.36.17.36.13.36 1.68.37-1.72.36-.1.36 1.21.36-1 .36 2.8.37-2.78.36.57.36-.69.36 2.82.36-2.25.37-6.5.36-.22.36-.17.36 2.09.37 1.85.36-3.83.36 1.13.36-1.15.36 2.53.37-2.43.36 1.26.36 1.21.36-1.68.36.11.37-.36.36-.71.36 1.5.36-1.07.36.07.37.45.36-.7.36 1.73.36-1.55.36.76.37-.29.36 3.06.36-3.08.36-.09.37.34.36.9.36-1 .36.9.36.17.37-.91.36.15.36-.12.36-.22.36 1.12.37-.33.36-.49.36.35.36-.23.36 1.38.37-1.03.36-.33.36 7.82.36-2.72.37-4.52.36-.27.36-.25.36.27.36 1.12.37.5.36-.77.36-.68.36.14.36.09.37-.19.36.57.36-.26.36-.19.36.47.37.32.36.58.36 2.54.36-3 .36-.52.37.47.36.51.36-.38.36-.1.37-.28.36.35.36-.04.36.68.36-.88.37.91.36-1.23.36.55.36.21.36 1.44.37-1.97.36.64.36-.38.36 5.28.36-4.56.37.16.36-.97.36.52.36.26.37-.44.36.5.36.39.36-1.01.36 5.25.37-4.65.36-.3.36 5.66.36-5.39.36.18.37.09.36 1.4.36-.47.36-.2.36.5.37-.73.36-.89.36.1.36.53.36-.4.37.26.36.67.36-.85.36 2.54.37-1.67.36.81.36-.97.36-.4.36 1.13.37-1.46.36 1.47.36-.02.36-.3.36 5.6.37.67.36-4.4.36-2.12.36.12.36.07.37 1.45.36-1.63.36 3.09.36-2.45.37-1.13.36 1.25.36-.37.36.08.36.04.37-.46.36 4.14.36 2.71.36-.38.36-.04.37-.97.36-5.45.36 1.2.36-.77.36.07.37.52.36-.42.36.22.36-.78.37 2.18.36-1.72.36-.21.36.1.36.94.37-.37.36-.46.36-.17.36.38.36-.26.37 1.61.36-.78.36-.05.36-.72.36.81.37-.4.36-.09.36 2.85.36.47.36-3.37.37 3.23.36-2.96.36-.03.36.18.37 1.09.36-1.05.36.25.36-.36.36.15.37.4.36-.68.36.24.36.4.36.11.37.58.36-.84.36.06.36.22.36.42.37-.51.36.37.36-.52.36.74.37-.35.36-.2.36-.16.36.11.36.28.37 1.07.36-1.58.36 2.98.36-1.71.36-.98.37 1.16.36-6.96.36.33.36-.68.36 1.06.37-.8.36.4.36-.69.36-.13.36.46.37.17.36-.27.36-.42.36.53.37-.26.36.24.36.82.36-.72.36.53.37.9.36-.11.36-1.07.36-.18.36.45.37.83.36-1.47.36.38.36.14.36-.29.37-.26.36.81.36-.39.36.29.37-.21.36-.6.36.85.36.39.36-.06.37.17.36-1.08.36.35.36.18.36-.28.37 3.21.36-3.11.36.78.36-.49.36.03.37.73.36-.55.36 4.91.36 1.01.37.18.36-5.07.36-.95h.36l.36.37.37-.56.36.52.36-.64.36.81.36-.1.37-.28.36 7.5.36.29.36-5.39.36-1.66.37.98.36-1.8.36.39.36-.23.36.58.37-.86.36.79.36.29.36 2.25.37-2.74.36 1.54.36-1.55.36-.07.36 1.32.37-1.31.36-.27.36 3.1.36 3.7.36 1.4.37-.51.36-6.43.36-.69.36-.21.36.02.37.87.36-.85.36 1.33.36-.7.37 6.45.36-5.24.36-.88.36-.92.36.35.37-.31.36 1.35.36-.48.36-.27.36-.06.37.43.36-.67.36 1.25.36-.6.36-.31.37.02.36 1.12.36-.63.36 1.4.36-1.47.37-.71.36.28.36 1.11.36-.37.37-.87.36.31.36-.39.36.31.36.59.37-.44.36.72.36-1.01.36-.21.36 2.53.37-.8.36-.27.36-.05.36.16.36 1.26.37-2.18.36 2.56.36.68.36-2.21.37.98.36-2.52.36.59.36-.39.36.61.37-.45.36.51.36-.35.36.65.36-.76.37-.33.36 1.33.36-1.03.36 2.47.36-.4.37-1.17.36-.08.36 2.06.36 3.37.36.4.37-5.11.36-1.36.36.21.36 1.25.37-1.4.36 2.29.36-1.84.36 6.35.36-.11.37-2.86.36-2.49.36-.29.36.39.36.29.37-.67.36 1.16.36.9.36-1.34.36.64.37-1.45.36-.4.36.61.36-.65.37.17.36-.18.36 4.04.36-1.61.36-.26h.37l.36-2.09.36.5.36.16.36-.41.37.12.36.59.36 4.19.36-4.68.36.11.37.22.36-.76.36 1.29.36-.64.37-.52.36-.36.36 1.62.36-.73.36-.21.37-.41.36 1.87.36-.98.36.14.36-.71.37-.52.36.54.36.51.36-.3.36.17.37.2.36-.14.36.13.36-.64.36 1.42.37-1.16.36.25h.36l.36-.33.37.06.36-.1.36 1.62.36-.79.36 2.53.37-3.2.36.46.36.82.36.04.36-.96.37-.19.36.16.36.31.36-.44.36-.05.37.06.36.96.36-.74.36-.02.37-.04.36-.3.36-.18.36.65.36-.16.37 3.47.36-3.31.36-.58.36 1.09.36 3.62.37-.96.36-3.34.36 3.11.36-2.61.36-.7.37.79.36.06.36-.82.36.42.36-.01.37.13.36 1.67.36-2.3.36 2.46.37-2.1.36 10.84.36-4.72.36-5.2.36-.72.37 1.04.36-.54.36-.33.36-.25.36 1.27.37-.64.36 2.11.36-1.69.36-1.24.36 1.35.37-.17.36 5.15.36-.97.36-4.55.37.38.36-.9.36.21.36.25.36-.39.37.75.36.69.36-.28.36-.64.36.24.37-.28.36-.33.36.2.36.37.36.09.37.28.36-.42.36 3.38.36-.14.36-3.26.37-.13h.72l.36.81.37-.61.36.45.36-.06.36-.3.36 2 .37.54.36-.47.36 3.07.36-3.72.36-1.64.37.59.36.03.36.62.36-.64.36-.49.37 1.07.36.35.36-1.36.36.25.37-.28.36-.04.36.19.36-.11.36.66.37.49.36-.81.36.21.36-.39.36.06.37.01.36-.41.36.34.36.04.36 1.07.37-.89.36 5.09.36-.34.36-2.54.37-1.97.36.41.36-.4.36.12.36-.24.37.04.36-.07.36-.24.36-.12.36.16.37 1.46.36 2.78.36-3.26.36-.32.36-.05.37-.78.36.44.36.48.36 1.62.36-2.21.37.4.36-.44.36.84.36-.08.37.02.36.15.36-.76.36-.17.36.27.37-.26.36 1.05.36-.43.36-.19.36-.43.37.39.36 2.03.36-1.19.36 1.77.36-1.88.37-.72.36.37.36.76.36-.69.37-.52.36.2.36.3.36-.44.36.45.37-.26.36-.11h.36l.36-.35.36.11.37.49.36-.52.36.3.36.11.36-.08.37.4.36-.09.36 1.06.36-1.04.36-.19.37 1.16.36-.57.36-.31.36 1.66.37-2.15.36.95.36-.79.36.84.36-1.02.37-.18.36.18.36.55.36-.29.36-.53.37-5.25.36.63.36.31.36-.33.36.65.37-.28.36-.63.36.73.36-1.4.37.81.36.81.36-1.06.36.94.36 3.9.37-3.46.36-1.56.36.6.36 1.46.36 3.45.37-2.64.36-2.38.36-.17.36 1.93.36-2.04.37-.25.36.26.36.09.36 1.13.36 2.32.37-.47.36-1.58.36 4.73.36-2.54.37-3.67.36.51.36-.5.36.26.36-.19.37 1.08.36 1.65.36-2.86.36.4.36.73.37 5.76.36 1.55.36-1.62.36-.29.36 1.35.37-1.25.36-.05.36-.19.36.14.37.86.36-.58.36-.69.36 4.08.36-3.25.37.22.36-.05.36.01.36.14.36 1.01.37-1.94.36.32.36-.09.36.58.36 2.67.37 4.09.36-1.54.36-1.62.36-4.08.37-.07.36 2.75.36-.7.36-1.95.36-1.63.37-2.03.36-1.56.36.38.36.58.36-1.65.37 1.76.36-1.64.36.29.36-.51.36.1.37.29.36-.34.36-.08.36.38.36-.4.37 2.18.36.24.36.06.36-2.1.37.1.36 5.54.36-4.73.36-1.15.36 2.17.37-1.96.36.93.36-.11"/><use xlink:href="#65fa0__a" color="#00C853" transform="matrix(3.75 0 0 3.75 125.4 135.35)"/><use xlink:href="#65fa0__a" color="#00C853" transform="matrix(3.75 0 0 3.75 220.55 7.51)"/></g><text stroke-linecap="round" stroke-linejoin="round" color="#000" font-family="KaTeX_Main" font-size="8" transform="translate(241.1 25.11)"><tspan>AVLWeakTopDown</tspan></text><g fill="none" stroke="currentColor" stroke-linecap="round" stroke-linejoin="round" color="#000"><path stroke="#FFAB00" stroke-dasharray="4.5,2.0,0.5,2.0,0.5,2.0" d="M205.6 22.51h29.9M28 129.02l.36 3.53.36-4.25.37-13.8.36 9.17.36.24.36-6.3.36 1.32.37 4.07.36-7.43.36 3.02.36-6.44.37 10.69.36 5.68.36-2.43.36.26.36-1.41.37-.58.36-3.8.36-2.61.36-3.85.36 5.07.37-5.81.36 7.23.36-6.06.36-3.26.36.64.37 12.09.36 5.57.36-3.63.36-.68.36-6.97.37 4.89.36.96.36-3.81.36-.31.37.56.36-10.82.36 15.69.36 1.45.36 4.31.37 1.21.36-.81.36.33.36-8.06.36 7.01.37-4.99.36.72.36 1.24.36-2.7.36-3.91.37-1.81.36-1.78.36 3.01.36-3.67.37 5.72.36-7.83.36 2.31.36-6.55.36-8.21.37 19.88.36-2.36.36-2.08.36.13.36-6.02.37 15.05.36 13.25.36-10.73.36 2.85.36-5.97.37 8.15.36-3.39.36-.67.36-11.57.37 3.66.36-3.93.36 2.48.36 9.58.36.43.37-.02.36-4.94.36-3.33.36 3.41.36-8.99.37 3.35.36 4.67.36-.15.36-2.98.36-3.97.37 12.44.36.84.36-6.04.36 1.82.36-2.27.37-3.29.36 4.03.36 3 .36-3.27.37.3.36-5.54.36.62.36.96.36-3.55.37 3.42.36 9.11.36-7.91.36-3.97.36 4.56.37 1.24.36-3.16.36-8.44.36 11.17.36-5.29.37-4.34.36-.55.36.11.36-5.05.37 2.23.36 10.83.36 13.53.36-4.29.36-4.58.37-.64.36-1.09.36-.68.36-1.43.36 9.01.37-5.83.36-.33.36-5.25.36-1.1.36 9.46.37.95.36-2.62.36-4.06.36 3.66.36-4.16.37-1.41.36-2.23.36-1.42.36 1.25.37-3.39.36 4.55.36-6.67.36-5.08.36.72.37.62.36 20.46.36-3.24.36.28.36.02.37-7.52.36-2.47.36 10.54.36-6.56.36-2.44.37-.19.36-2.45.36-2.08.36 16.18.37-7.49.36-6.73.36 3.6.36-1.83.36-6.82.37 5.79.36.61.36-5.1.36 2.5.36-3.74.37 13.87.36 14.05.36-1.88.36-3.96.36-1.2.37-8.54.36 12.16.36-7.06.36.85.36-2.29.37-8.33.36 7.05.36 8.07.36-3.48.37-2.43.36-2.89.36-4.14.36-2.92.36 2.94.37 7.48.36-5.41.36-2.67.36.28.36-5.63.37 19.52.36-1.55.36-2.47.36.86.36-7.79.37-1.69.36 7.92.36-5.93.36-1.57.37-.98.36-3.71.36-3.08.36 14.77.36-6.95.37 1.66.36-3.81.36 5.25.36-3.65.36-4.28.37-3.95.36 4.74.36-6.77.36 4.18.36 17.12.37.79.36-6.64.36 3.44.36-4.97.37 4.87.36-3.04.36-1.15.36-1.74.36-2.87.37-.3.36-4.61.36 9.11.36 1.52.36-3.25.37 2.84.36-4.03.36-6.5.36 9.69.36-6.66.37-1.72.36-.54.36-1.53.36-4.49.36 11.73.37 6.16.36-2.89.36.84.36-7.29.37 3.27.36-2.87.36-.39.36-.83.36-5.13.37-.36.36 11.07.36-1.7.36-6.06.36 1.38.37-1.79.36-4.37.36 7.03.36-3.63.36-2.38.37-.36.36-7.58.36 23.79.36 8.05.37-3.75.36-1.35.36-7.43.36 2.53.36-.78.37 5.61.36-3.06.36-.21.36-1.43.36-5.68.37 1.8.36 9.77.36-5.27.36-5.52.36 3.72.37-2.74.36 4.27.36-3.27.36-2.08.36-3.19.37-3.37.36.02.36 17.13.36-.93.37-3.39.36.42.36-6.16.36-5.35.36 10.25.37-1.06.36-7.53.36 2.96.36-5.29.36-3.02.37 9.79.36 4.02.36-6.54.36 1.77.36.61.37-3.43.36-3.35.36-7.56.36 6.45.37-3.88.36-5.52.36 4.04.36 1.37.36-3.18.37 8.63.36 12.37.36.08.36-3.75.36 4.07.37-11.79.36-2.17.36 10.43.36-1.15.36.8.37-1.05.36 5.26.36-5.44.36-2.95.36-4.48.37 2.82.36-1.55.36-2.87.36 3.17.37-.94.36.18.36-1 .36 6.22.36-2.87.37-5.67.36-2.47.36 2.32.36 9.07.36-2.46.37-3.68.36 2.99.36 1.47.36-.36.36-3.56.37 5.36.36-1.58.36-4.93.36-3.37.37 7.93.36.45.36-6.4.36-5.03.36 7.22.37-4.41.36 8.39.36-5.19.36.78.36 1.68.37-1.88.36-2.15.36-3.01.36 5.64.36-6.8.37 3.3.36-2.64.36 6.39.36-8.12.37 3.84.36 1.85.36 26.06.36-1.81.36-4.4.37-.21.36-5.36.36 9.41.36-6.06.36-.69.37 4.18.36-2.33.36-4.78.36 2.5.36-6.13.37-2.62.36 7.37.36.62.36 2.95.36-1.5.37-2.26.36.42.36-5.51.36-3.01.37 9.31.36-5.14.36-6.88.36 5.68.36-5.25.37 7.72.36 4.95.36-3.55.36 1.57.36-.19.37-.22.36 2.06.36-.09.36-5.69.36-5.67.37 1.74.36 6.63.36-.57.36-1.72.37-5 .36 2.93.36-2.71.36 2.66.36-5.19.37.1.36 3.17.36 3.87.36-6.83.36-.77.37 15.69.36.04.36-1.49.36-.5.36-2.76.37-.54.36-.16.36 2.16.36-4.62.36.11.37-.82.36-5.01.36-.86.36 7.93.37 3.7.36-4.66.36-5.22.36 3.25.36-4.89.37 4.86.36 3.91.36-3.13.36-2.55.36.97.37-4.23.36-5.15.36 4.7.36 6.53.36-1.34.37-2.82.36-.73.36 9.63.36-1.91.37-2.06.36-2.55.36-.67.36-1.83.36-3.98.37 9.66.36-4.26.36-5 .36 6.02.36-3.57.37-1.12.36-2.71.36-1.12.36 3.77.36 6.52.37-9.08.36 2.83.36-1.31.36-3.89.37-.31.36 2.05.36-4.54.36-.58.36.3.37-3.21.36 24.93.36 4.52.36-8.2.36.96.37 1.6.36-3.75.36 1.31.36.78.36-2.8.37-.46.36-4.21.36-.73.36 1.71.36-6.52.37 14.69.36-3.31.36-.65.36-4.93.37 1.68.36-7.21.36 10.73.36-5.18.36-2.51.37-.42.36-4.48.36-.29.36 12.08.36 6.32.37-9.91.36-.83.36 2.59.36-2.51.36-1.64.37 5.06.36-1.26.36-4.11.36-.27.37-5.52.36-2.76.36 1.64.36 12.13.36-3.93.37-4.24.36 3.44.36-2.98.36-4.29.36 4.18.37-.29.36-3.22.36-5.9.36 6.63.36-5.23.37.06.36 22.39.36-5.22.36 2.84.36-2.6.37-.53.36-6.01.36-3.67.36 5.84.37 1.23.36-2.67.36-3.62.36-1.82.36-.2.37-1.93.36 10.51.36-4.57.36 3.91.36-6.57.37-1.38.36-.11.36-1.39.36 5.18.36-3.14.37-3.29.36 8.95.36-6 .36-.61.37-.69.36-6.51.36 6.29.36 11.58.36-.79.37-1.66.36-2.14.36-.89.36-4.63.36-.91.37-.61.36 4.22.36-2.52.36 3.49.36-5.46.37 2.96.36-1.43.36 4.51.36-1.17.36-2.91.37-3.28.36 2.27.36-5.73.36-3.61.37 7.81.36-1.62.36-4.71.36 6.54.36-1.52.37-4.84.36 1.79.36 1.06.36 16.09.36 10.9.37-1.38.36-6.82.36 8.24.36-.92.36-4.88.37 4.95.36-2.84.36-4.33.36-.73.37-1.67.36 2.18.36 4.43.36-2.03.36-5.26.37 4.53.36 1.58.36-5.95.36 4.12.36-3.67.37-3.09.36-.86.36-3.88.36 6.22.36-4.59.37-.61.36 3.51.36-4.18.36-.33.37-6.89.36 1.77.36-.2.36 8.7.36-4.67.37 3.75.36 15.28.36-4.59.36-2.46.36-6.22.37 1.21.36-2.87.36 3.19.36.68.36-3.97.37-.52.36-.44.36-4.97.36 7.76.36.01.37.24.36.4.36-.07.36-8.27.37-.96.36 7.13.36-5.86.36-1.28.36 3.12.37-6.35.36-5.28.36 28.75.36-3.99.36-3.45.37-.15.36-.97.36-4.5.36-2.91.36 10.94.37-1.23.36-5.06.36-5.94.36 2.19.37-.48.36 8.65.36.26.36-5.71.36 1.45.37-4.73.36 2.84.36-4.04.36 7 .36 1.73.37 3.35.36-8.99.36.54.36 6.12.36-1.73.37-4.1.36-3.04.36-5.25.36 10.69.36-1.25.37-.31.36-3.77.36-2.8.36 5.06.37.45.36 2.41.36-4.26.36 1.5.36.5.37-6.45.36-3.03.36 2.59.36 2.99.36-2.38.37 1.11.36 16.56.36-6.94.36-.46.36 5.6.37-4.31.36-4.9.36 1.7.36 5.78.37-4.49.36-.92.36 4.03.36-2.63.36-.69.37-.1.36-2.66.36 8.43.36-4.06.36-4.36.37-1.24.36.89.36 1.7.36-5 .36 14.42.37-2.7.36-4.03.36.71.36-6.82.36-4.98.37 4.05.36-5.77.36 10.33.36-.32.37-5.18.36-3.09.36-.92.36.07.36-5.96.37 6.09.36 14.46.36-4.25.36.94.36-1.67.37-2.59.36-.92.36 4.43.36-7 .36.21.37-1.28.36 3.89.36-3.85.36 13.62.37-4.01.36 2.83.36-5.68.36-.78.36-1.11.37-1.36.36-1.85.36 3.31.36 1.26.36.33.37-1.79.36.67.36 1.3.36-2.86.36-2.44.37.58.36-1.71.36-3.89.36 6.38.37-6.66.36-1.1.36-.12.36 1.12.36-2.83.37-1.58.36 8.73.36.53.36-3.78.36-3.67.37-1.5.36-2.95.36.17.36 4.05.36 16.54.37-.1.36-.39.36-3.45.36.99.36-1.29.37-1.68.36-1.31.36-.74.36 1.66.37.11.36-5.02.36.18.36 2.94.36-3.28.37-2.05.36 2.43.36 9.28.36-8.16.36-1.09.37 3.05.36-3.28.36-2.11.36 2.89.36-1.56.37-1.64.36-3.26.36-.87.36-2.25.37 16.69.36-3.5.36-2.25.36.26.36-4.56.37-1.98.36 5.49.36-4.28.36-1.23.36.89.37-2.55.36-2.7.36 11 .36-1.71.36-2.82.37-4.25.36-1.48.36-.2.36-5.39.36 11.07.37-4.53.36-5.27.36.08.36 4.87.37-5.62.36-2.77.36 26.09.36 14.45.36-.89.37-.94.36.42.36-1.67.36-1.94.36-3.3.37.98.36-4.7.36 3.1.36-3.11.36 2.38.37 7.11.36-4.19.36-3.09.36.57.37 2.19.36-3.32.36-5.01.36 8.05.36-2.79.37-5.05.36-.2.36-2.15.36-1.31.36-2.4.37 20.07.36-3.76.36-5.94.36 3.49.36-4.68.37-3.62.36 6.22.36-4.39.36.31.36-1.48.37-2.26.36-6.15.36 15.02.36-5.38.37-.8.36-3.31.36 4.23.36-3.92.36-5.96.37 9.3.36-4.48.36-.5.36-3.43.36-1.82.37 9.95.36 12.89.36-3.74.36-4.26.36 1.54.37-3.51.36-3.73.36 10.44.36-8.44.37-2.09.36 3.01.36-6 .36-2.3.36 8.33.37 3.44.36-5.68.36-3.72.36 4.73.36-2.91.37.91.36.75.36-2.25.36-1.97.36-3.45.37-3.11.36 8.14.36 6.34.36-3.42.37 1.27.36 2.68.36-6.9.36-5.96.36 8.02.37-2.4.36-3.45.36 1.14.36-3.9.36.03.37 8.3.36-3.27.36-2.58.36 1.93.36-4.68.37.57.36 3.97.36-2.37.36-3.53.36.85.37-3.69.36 3.86.36 23.9.36-1.63.37-4 .36-5.79.36-1.29.36.98.36 3.14.37 2.63.36-4.02.36-3.87"/><use xlink:href="#65fa0__c" color="#FFAB00" transform="matrix(3.75 0 0 3.75 182.98 129.12)"/><use xlink:href="#65fa0__c" color="#FFAB00" transform="matrix(3.75 0 0 3.75 220.55 22.51)"/></g><path fill="none" d="M28 45.01V162.5M371.99 45.01H28" color="#000"/></svg>