<svg xmlns="http://www.w3.org/2000/svg" xmlns:xlink="http://www.w3.org/1999/xlink" viewBox="0 0 400 200"><path fill="none" d="M0 0h400v200H0z"/><defs><use xlink:href="#a426a__a" id="a426a__d" fill="currentColor" stroke="none"/><use xlink:href="#a426a__b" id="a426a__c" stroke="currentColor" transform="rotate(180)"/><circle id="a426a__a" cx="0" cy="0" r="1" stroke="currentColor" stroke-width=".267"/><path id="a426a__b" stroke="currentColor" stroke-width=".267" d="m0-1.33-1.33 2h2.66z"/></defs><path fill="none" stroke="#CCC" stroke-linecap="round" stroke-linejoin="round" stroke-width=".1" d="M46.1 162.5V45.01" class="a426a__gridline" color="#000"/><g fill="none" stroke-linecap="round" stroke-linejoin="round" stroke-width="0" color="#000"><path d="M46.1 162.5V155m0-109.99v7.5"/><text fill="#000" font-family="KaTeX_Main" font-size="8" text-anchor="middle" transform="translate(46.1 172.6)"><tspan> 1</tspan></text></g><path fill="none" stroke="#CCC" stroke-linecap="round" stroke-linejoin="round" stroke-width=".1" d="M82.31 162.5V45.01" class="a426a__gridline" color="#000"/><g fill="none" stroke-linecap="round" stroke-linejoin="round" stroke-width="0" color="#000"><path d="M82.31 162.5V155m0-109.99v7.5"/><text fill="#000" font-family="KaTeX_Main" font-size="8" text-anchor="middle" transform="translate(82.31 172.6)"><tspan> 2</tspan></text></g><path fill="none" stroke="#CCC" stroke-linecap="round" stroke-linejoin="round" stroke-width=".1" d="M118.52 162.5V45.01" class="a426a__gridline" color="#000"/><g fill="none" stroke-linecap="round" stroke-linejoin="round" stroke-width="0" color="#000"><path d="M118.52 162.5V155m0-109.99v7.5"/><text fill="#000" font-family="KaTeX_Main" font-size="8" text-anchor="middle" transform="translate(118.52 172.6)"><tspan> 3</tspan></text></g><path fill="none" stroke="#CCC" stroke-linecap="round" stroke-linejoin="round" stroke-width=".1" d="M154.73 162.5V45.01" class="a426a__gridline" color="#000"/><g fill="none" stroke-linecap="round" stroke-linejoin="round" stroke-width="0" color="#000"><path d="M154.73 162.5V155m0-109.99v7.5"/><text fill="#000" font-family="KaTeX_Main" font-size="8" text-anchor="middle" transform="translate(154.73 172.6)"><tspan> 4</tspan></text></g><path fill="none" stroke="#CCC" stroke-linecap="round" stroke-linejoin="round" stroke-width=".1" d="M190.94 162.5V45.01" class="a426a__gridline" color="#000"/><g fill="none" stroke-linecap="round" stroke-linejoin="round" stroke-width="0" color="#000"><path d="M190.94 162.5V155m0-109.99v7.5"/><text fill="#000" font-family="KaTeX_Main" font-size="8" text-anchor="middle" transform="translate(190.94 172.6)"><tspan> 5</tspan></text></g><path fill="none" stroke="#CCC" stroke-linecap="round" stroke-linejoin="round" stroke-width=".1" d="M227.15 162.5V45.01" class="a426a__gridline" color="#000"/><g fill="none" stroke-linecap="round" stroke-linejoin="round" stroke-width="0" color="#000"><path d="M227.15 162.5V155m0-109.99v7.5"/><text fill="#000" font-family="KaTeX_Main" font-size="8" text-anchor="middle" transform="translate(227.15 172.6)"><tspan> 6</tspan></text></g><path fill="none" stroke="#CCC" stroke-linecap="round" stroke-linejoin="round" stroke-width=".1" d="M263.36 162.5V45.01" class="a426a__gridline" color="#000"/><g fill="none" stroke-linecap="round" stroke-linejoin="round" stroke-width="0" color="#000"><path d="M263.36 162.5V155m0-109.99v7.5"/><text fill="#000" font-family="KaTeX_Main" font-size="8" text-anchor="middle" transform="translate(263.36 172.6)"><tspan> 7</tspan></text></g><path fill="none" stroke="#CCC" stroke-linecap="round" stroke-linejoin="round" stroke-width=".1" d="M299.57 162.5V45.01" class="a426a__gridline" color="#000"/><g fill="none" stroke-linecap="round" stroke-linejoin="round" stroke-width="0" color="#000"><path d="M299.57 162.5V155m0-109.99v7.5"/><text fill="#000" font-family="KaTeX_Main" font-size="8" text-anchor="middle" transform="translate(299.57 172.6)"><tspan> 8</tspan></text></g><path fill="none" stroke="#CCC" stroke-linecap="round" stroke-linejoin="round" stroke-width=".1" d="M335.78 162.5V45.01" class="a426a__gridline" color="#000"/><g fill="none" stroke-linecap="round" stroke-linejoin="round" stroke-width="0" color="#000"><path d="M335.78 162.5V155m0-109.99v7.5"/><text fill="#000" font-family="KaTeX_Main" font-size="8" text-anchor="middle" transform="translate(335.78 172.6)"><tspan> 9</tspan></text></g><path fill="none" stroke="#CCC" stroke-linecap="round" stroke-linejoin="round" stroke-width=".1" d="M371.99 162.5V45.01" class="a426a__gridline" color="#000"/><g fill="none" stroke-linecap="round" stroke-linejoin="round" stroke-width="0" color="#000"><path d="M371.99 162.5V155m0-109.99v7.5"/><text fill="#000" font-family="KaTeX_Main" font-size="8" text-anchor="middle" transform="translate(371.99 172.6)"><tspan> 10</tspan></text></g><g fill="none" stroke-linecap="round" stroke-linejoin="round" stroke-width="0" color="#000"><path d="M371.99 162.5h-7.5"/><text fill="#000" font-family="KaTeX_Main" font-size="8" transform="translate(378.99 165.1)"><tspan>0.30</tspan></text></g><g fill="none" stroke-linecap="round" stroke-linejoin="round" stroke-width="0" color="#000"><path d="M371.99 142.92h-7.5"/><text fill="#000" font-family="KaTeX_Main" font-size="8" transform="translate(378.99 145.52)"><tspan>0.35</tspan></text></g><g fill="none" stroke-linecap="round" stroke-linejoin="round" stroke-width="0" color="#000"><path d="M371.99 123.34h-7.5"/><text fill="#000" font-family="KaTeX_Main" font-size="8" transform="translate(378.99 125.94)"><tspan>0.40</tspan></text></g><g fill="none" stroke-linecap="round" stroke-linejoin="round" stroke-width="0" color="#000"><path d="M371.99 103.76h-7.5"/><text fill="#000" font-family="KaTeX_Main" font-size="8" transform="translate(378.99 106.36)"><tspan>0.45</tspan></text></g><g fill="none" stroke-linecap="round" stroke-linejoin="round" stroke-width="0" color="#000"><path d="M371.99 84.17h-7.5"/><text fill="#000" font-family="KaTeX_Main" font-size="8" transform="translate(378.99 86.77)"><tspan>0.50</tspan></text></g><g fill="none" stroke-linecap="round" stroke-linejoin="round" stroke-width="0" color="#000"><path d="M371.99 64.59h-7.5"/><text fill="#000" font-family="KaTeX_Main" font-size="8" transform="translate(378.99 67.19)"><tspan>0.55</tspan></text></g><g fill="none" stroke-linecap="round" stroke-linejoin="round" stroke-width="0" color="#000"><path d="M371.99 45.01h-7.5"/><text fill="#000" font-family="KaTeX_Main" font-size="8" transform="translate(378.99 47.61)"><tspan>0.60</tspan></text></g><path fill="none" d="M28 45.01V162.5M371.99 45.01H28" color="#000"/><text stroke-linecap="round" stroke-linejoin="round" stroke-width="0" color="#000" font-family="KaTeX_Main" font-size="10" text-anchor="middle" transform="rotate(-90 57.63 46.13)"><tspan font-weight="bold">Rotations</tspan><tspan> / Operations</tspan></text><text stroke-linecap="round" stroke-linejoin="round" stroke-width="0" color="#000" font-family="KaTeX_Main" font-size="10" text-anchor="middle" transform="translate(199.99 195.75)"><tspan>Operations / 10</tspan><tspan dy="-5" font-size="8">6</tspan></text><text stroke-linecap="round" stroke-linejoin="round" color="#000" font-family="KaTeX_Main" font-size="8" transform="translate(71.2 10.11)"><tspan>RedBlackBottomUp</tspan></text><g fill="none" stroke="currentColor" stroke-linecap="round" stroke-linejoin="round" color="#000"><path stroke="#F44336" d="M35.7 7.51h29.9M28 70.18l.36-2.67.36 1.12.37.21.36-.29.36-.25.36-.79.36 2.52.37 1.41.36-2.89.36-.72.36 2.02.37-1.46.36-.3.36-1.14.36.23.36-.7.37 3.87.36 1.26.36-4.63.36 2.66.36-.97.37.43.36-1.86.36 2.07.36-1.84.36-.47.37 1.78.36 1.06.36.69.36-4.28.36 1.74.37 1.93.36-1.05.36.26.36-.2.37.06.36-.33.36-.05.36 2.83.36-3.69.37 1.56.36-.67.36-.58.36 1.51.36.94.37-2.34.36.74.36-.53.36.14.36.94.37 1.5.36-1.12.36-2.09.36-.17.37 2.61.36.06.36-2.35.36-.52.36.67.37.36.36 1.01.36-.35.36.68.36.79.37-1.7.36-.61.36.68.36-.4.36-.94.37 1.14.36.21.36.74.36-.01.37-.41.36-1.11.36.94.36-.15.36-.47.37.34.36.89.36.05.36-.46.36-1.25.37.91.36-.54.36.16.36 1.89.36-1.48.37-.57.36-.38.36 1.7.36-1.26.36 2.7.37-2.16.36-2.02.36 2.16.36.43.37-.48.36-1.43.36.12.36.6.36.4.37-1.01.36.68.36.98.36-1.53.36.61.37.87.36-.94.36-.51.36 1.32.36 1.18.37-2.26.36-1.35.36 2.06.36-.31.37-.9.36.63.36.24.36-.25.36.64.37-.06.36.06.36.55.36-1.35.36 2.1.37-3 .36 1.15.36-.75.36 1.23.36-.62.37.65.36-.21.36.54.36-1.71.36.9.37 1.36.36-1.02.36-2.95.36 3.91.37-.16.36-1.82.36-.65.36 2.82.36-.4.37 2.22.36-3.08.36-.51.36 1.03.36-1.02.37 1.55.36-.76.36-.37.36-.75.36 1.51.37-2 .36.49.36.73.36-.4.37.56.36-1.17.36 1.34.36-.25.36.66.37-1.72.36 1.51.36-.32.36-.16.36.91.37-1.27.36 1.31.36-.25.36.88.36-1.2.37-2.51.36 2.73.36-1.73.36-.04.36 1.4.37-.02.36.43.36-.39.36-.06.37-1.64.36 1.43.36 1.84.36-1.13.36-1.78.37.72.36 1.77.36 1.08.36-3.63.36 2.81.37-1.69.36-.64.36 1.35.36-1.27.36 1.1.37.97.36-1.34.36.25.36-.74.37.33.36 1.6.36-2.31.36.55.36 1.59.37-3.03.36 2.45.36-1.67.36.29.36-.75.37.52.36 2 .36-.8.36-.49.36 2.34.37-3.63.36.54.36-2.35.36 3.91.37-.01.36-.14.36-.12.36.23.36-1.34.37 2 .36-.88.36-.83.36 2.05.36-2.15.37-.52.36 1.09.36 1.84.36-2.33.36 1.54.37-1.38.36.73.36-.91.36.94.36-1.37.37 1.87.36.15.36-2.43.36 1.38.37-.9.36.56.36-.94.36 1.07.36.36.37.18.36.15.36-.07.36-.72.36 1.36.37-.82.36.64.36.22.36-.69.36.62.37-2.01.36 1.26.36-.68.36.23.37 1.31.36.29.36-1.05.36-2.21.36.17.37.59.36 1.08.36-.09.36.39.36-1.08.37.48.36 1.84.36-.47.36-1.45.36.14.37.98.36-.22.36-.67.36.16.36.77.37-1.34.36.98.36-.88.36.65.37-3.35.36 1.86.36 3.1.36-2.75.36-.16.37 1.52.36-.5.36.17.36-1.38.36 1.59.37-1.26.36 1.08.36.69.36-2.66.36 3.31.37 1.79.36-4.13.36.72.36-.84.37 1.07.36.19.36.61.36-.32.36.99.37-1.28.36-1.45.36-.62.36.31.36 1.13.37 1.05.36-.46.36.66.36-.07.36-1.89.37.41.36.34.36-.27.36.21.36-.86.37-1.24.36 2.51.36-1.88.36 1.7.37-.22.36-.07.36 1.47.36-.98.36-1.45.37 3.13.36-2.49.36-.2.36 1.35.36-1.56.37.5.36 1.12.36-1.04.36 1.4.36-1.94.37.45.36-.09.36 1.37.36-2.55.37.7.36 1.86.36-1.09.36.19.36 1.03.37-2.38.36 1.77.36-1.19.36.95.36-.21.37 1.37.36-2.81.36.73.36 2.18.36-2.1.37-.03.36-.95.36 1.86.36.96.37-1.6.36.67.36-1.03.36.17.36-.22.37 1.04.36-.55.36 2.28.36-1.02.36-1.94.37.11.36 1.27.36 1.4.36-1.32.36-1.08.37-1.05.36 1.59.36-.34.36.83.36.09.37-1.28.36 1.99.36-.7.36 1.47.37-1.61.36-.97.36 2.83.36-.3.36-3.36.37 3.55.36-3.64.36 1.89.36.15.36-1.52.37.54.36.25.36.66.36 1.24.36-2.69.37 1.36.36-.43.36-.26.36 1.32.37 1.66.36-2.6.36 1.23.36-2.03.36.6.37-1.54.36-.34.36 3.63.36-2.46.36.61.37 1.52.36-1.19.36.37.36-1.67.36-.1.37 3.62.36-1.95.36-.16.36-.04.36-3.1.37 3.22.36.35.36-2.2.36 1.4.37 1.19.36-1.58.36 1.95.36 1.13.36-1.63.37-.46.36-.45.36.86.36-1.51.36.94.37-.6.36.01.36.76.36-1.29.36 2.35.37.62.36-.11.36-1.22.36-.76.37 1.37.36-1.05.36-1.23.36-.4.36-.83.37 2.04.36.96.36.25.36-1.17.36.2.37-1.45.36.4.36 1.2.36-.44.36.43.37-1.91.36.36.36 1.25.36.33.37.04.36-1.26.36 1.96.36.17.36-.19.37 1.77.36-1.59.36-2.52.36.98.36.74.37-.52.36 1.41.36-.3.36-1.24.36-.35.37 1.14.36.45.36-1.41.36-.2.36.14.37.81.36.78.36-.01.36.32.37-1.55.36.33.36.21.36-1 .36 3.24.37-1.81.36-.32.36-.65.36.35.36-.33.37.47.36.44.36-1.3.36 1.02.36.92.37-2.54.36 1.45.36-1.21.36-.16.37 3.08.36-2.2.36.6.36-.91.36 2.56.37-3.07.36 1.45.36-1.81.36 1.3.36.5.37 1.53.36-1.34.36-.69.36 1.77.36-1.51.37-.59.36 1.11.36-.82.36.26.36-2.61.37 1.78.36.18.36.97.36.52.37-1.4.36 1.32.36.16.36-.39.36-.42.37-.08.36.82.36-.71.36-1.21.36.78.37.81.36-.72.36-1.27.36 1.59.36-.85.37 1.49.36-.31.36-.28.36-1.66.37.84.36.59.36.25.36-.31.36.59.37 1.01.36-1.78.36-1.08.36 2.03.36.29.37-1.48.36.57.36-.58.36-.18.36-.67.37 3.31.36-3.41.36.9.36 1.18.36-.8.37-.22.36.27.36.17.36.58.37-.1.36-.7.36 1.4.36-2.16.36-1.31.37 1.04.36 1.52.36-.91.36-.08.36 1.26.37-1.79.36.45.36 1.12.36-1.45.36 2.36.37-1.81.36-.31.36-.39.36.78.37-.8.36.46.36.17.36 1.82.36-1.09.37.53.36.72.36-2.65.36 2.06.36-.66.37-1.18.36-.59.36 1.81.36.83.36-2.63.37 2.4.36.07.36-.81.36-.35.37-.85.36 1.82.36-.16.36-.65.36-.71.37 3.75.36-1.46.36-.91.36-.68.36.91.37-.71.36.13.36-1.35.36 1.55.36-.34.37 1.04.36-1.13.36-.88.36 1.89.36-1.75.37 3.04.36-1.53.36.81.36-2.93.37 2.35.36-1.5.36 2.23h.36l.36-.6.37-1.65.36.51.36-.11.36.16.36.16.37.26.36.09.36.56.36-1.29.36-.84.37 2.27.36-.47.36-.89.36.9.37.69.36-3.25.36 2.21.36-1.07.36-.54.37 1.69.36-.53.36-.12.36-.24.36-1.7.37 2.71.36-.96.36.85.36-.86.36-1.15.37 2.74.36-2.87.36.31.36 1.87.36-.48.37 1.33.36-1.3.36 1.36.36-.03.37-.26.36-.72.36 1.23.36-1.18.36 1.53.37-1.34.36-1.62.36 1.91.36-1.08.36 1.97.37-.38.36-2.49.36.71.36.22.36.15.37.11.36-.43.36-.32.36.65.37.42.36.87.36-4.47.36 3.81.36.57.37-3.99.36 3.42.36-3.41.36 3.24.36-1.26.37 1.42.36-1.01.36.63.36.85.36.17.37-1.64.36-.89.36 2.2.36-.67.36-3.99.37 4.3.36.57.36-.68.36-.43.37 1.74.36-3.73.36 2.19.36 2.76.36-3.52.37-1.11.36 2.69.36-.95.36.14.36.69.37-1.87.36-1.2.36 2.29.36 2.34.36-3.7.37 3.44.36-2.05.36-1 .36-1.22.37 3.32.36-.98.36-.11.36.86.36-1.25.37-.2.36-1.56.36.27.36 2.37.36-1.1.37 1.26.36-.74.36-.4.36.4.36-.64.37.18.36.22.36-.99.36.88.37-.11.36-1.99.36 4.34.36-1.32.36.13.37-1.03.36.08.36-.11.36 1.37.36-2.24.37 2.5.36-1.13.36-.72.36.83.36-1.09.37.86.36.34.36-1.38.36-.03.36 2.64.37-1.45.36-1.9.36 1.33.36-.4.37-.26.36.44.36.54.36.23.36-.16.37.97.36-.49.36-.8.36.09.36-.16.37 1.01.36-1.52.36-.76.36 1.57.36 2.77.37-3.71.36.77.36.22.36-.7.37 2.08.36-.02.36.27.36-.34.36-1.12.37-1.11.36.95.36-1.69.36 2.91.36-2.23.37 1.87.36-.83.36-1.03.36.42.36-.36.37-.02.36.86.36.44.36-1.76.36 3.55.37-1.49.36-2.02.36 1.94.36-.39.37.66.36-1.16.36.69.36-.68.36-.37.37 1.26.36-.52.36-.25.36.39.36-.87.37.7.36-1.2.36.17.36.52.36.23.37.26.36.47.36.86.36-.94.37.55.36.8.36-3.96.36.89.36 1.11.37.07.36.44.36-1.31.36 1.82.36-1.56.37 1.77.36-2.02.36.89.36-.05.36-.48.37-.13.36.84.36 1.29.36-2.58.36 1.97.37-2.44.36 1.02.36-.77.36 1.3.37 1.74.36-2.61.36.94.36-.32.36.09.37 1.08.36.39.36-1.99.36 1.31.36-1.31.37.67.36-2.01.36 2.74.36-.32.36.41.37-1.68.36 2.33.36-1.51.36.31.37.25.36-.49.36.85.36-1.88.36.9.37 1.13.36.73.36-2.33.36 1.66.36-.82.37-.08.36-.45.36.31.36.87.36 1.73.37-2.96.36-1.66.36 2.12.36.73.37-.48.36-1.03.36.03.36 1.64.36-.98.37.21.36-1.18.36 1.83.36-.37.36.17.37-.64.36.22.36-1.33.36 2.77.36-.21.37-1 .36-.19.36-1.49.36 1.29.36 1.46.37-2.22.36-.14.36-.36.36 2.18.37-.57.36-1.13.36.35.36.42.36-1.35.37 2.15.36-1.42.36 1.4"/><use xlink:href="#a426a__b" color="#F44336" transform="matrix(3.75 0 0 3.75 354.25 68.5)"/><use xlink:href="#a426a__b" color="#F44336" transform="matrix(3.75 0 0 3.75 50.65 7.51)"/></g><text stroke-linecap="round" stroke-linejoin="round" color="#000" font-family="KaTeX_Main" font-size="8" transform="translate(71.2 25.11)"><tspan>RedBlackTopDown</tspan></text><g fill="none" stroke="currentColor" stroke-linecap="round" stroke-linejoin="round" color="#000"><path stroke="#3B75EA" d="M35.7 22.51h29.9M28 66.82l.36-2.73.36 2.48.37-1.12.36.19.36-.43.36.99.36-1.09.37 1.49.36-1.88.36.55.36 1.76.37-1.28.36-.72.36-1.31.36.89.36-.21.37 2.87.36.59.36-1.34.36.5.36-1.36.37-.35.36-.51.36.67.36 1.57.36-3.15.37 2.21.36-.35.36 1.84.36-2.65.36.64.37-.55.36 1.41.36-.82.36.98.37-.43.36-.71.36.43.36 2.37.36-3.2.37 1.63.36-.25.36.46.36-.59.36 1.56.37-2.46.36 1.09.36-1.15.36 1.18.36 1.23.37-.8.36-.2.36-2.79.36 2.87.37-.67.36.8.36-2.6.36-.7.36.33.37 1.16.36 1.45.36-.77.36-.5.36 2.17.37-1.3.36-.69.36.44.36-.16.36-.9.37.22.36-.47.36.83.36.99.37.87.36-2.5.36.8.36-.72.36-.03.37.86.36.27.36-.28.36.45.36-2.65.37 1.94.36-1 .36.09.36 3.16.36-1.91.37-1.17.36-1.09.36 3.73.36-1.46.36.91.37-.03.36-2.38.36 1.75.36.64.37-2.14.36.25.36.39.36-1.71.36 2.28.37-1.79.36 3.94.36-2.45.36-1.14.36 1.84.37-.25.36-.27.36-.91.36.66.36 2.09.37-1.81.36-1.55.36 1.18.36 1.09.37-1.98.36.6.36.82.36.1.36-.58.37.86.36-.64.36-.19.36 1.57.36.27.37-3.15.36-.14.36.33.36.87.36.85.37.26.36.02.36-.03.36-2.62.36 1.54.37 2.14.36-1.95.36-.81.36-.02.37 1.03.36-.9.36-1.24.36 3.4.36-.05.37.26.36-.98.36-1.08.36.56.36.53.37.22.36-1.31.36.58.36-1.85.36 3.43.37-3.3.36 2.66.36-.83.36-.3.37-.2.36.26.36-.1.36.76.36.28.37-.58.36.67.36-1.24.36.88.36-1.13.37-.61.36 2.34.36-1.04.36 1.22.36-.82.37-1.88.36 2.85.36-3.01.36.41.36 3.72.37-1.95.36.41.36-1.06.36-.01.37-.6.36-.32.36 2.39.36-1.19.36-.32.37.85.36-.8.36 1.43.36-1.93.36 1.14.37-.43.36-.11.36 1.03.36-1.15.36.22.37 1 .36-.74h.36l.36-1.74.37 2.26.36.95.36-3.67.36.44.36.33.37-.09.36 2.75.36-3.22.36.23.36.83.37-1.65.36 2.86.36-.64.36.38.36.96.37-2.98.36 2.04.36-2.43.36 3.19.37-.17.36-.24.36-.99.36 2.71.36-2.96.37.52.36-.57.36 2.18.36-.98.36-2.31.37 1.56.36-1.12.36 2.1.36-2.05.36 1.28.37-.25.36.87.36-1.82.36.83.36.17.37.9.36.89.36-2.05.36-.01.37.65.36-2.2.36.41.36 2.37.36-1.08.37.59.36.6.36-1.09.36 1.45.36-1.98.37 1.17.36.78.36-.61.36.64.36-1.76.37.73.36.25.36-.48.36-.44.37 1.78.36-.91.36-1.86.36 1.11.36-.04.37-.57.36.78.36.25.36-.75.36.94.37-.23.36.03.36.05.36-.57.36.06.37 1.06.36.97.36-2.46.36.27.36.84.37-1.02.36.87.36-.83.36 1.25.37-3.03.36 1.33.36 2.13.36-1.13.36-.21.37.18.36-.53.36 1.68.36-1.68.36 1.11.37-1.63.36 2.01.36-1.6.36-.37.36 3.15.37.05.36-1.6.36.44.36-1.57.37.7.36.29.36.49.36-.54.36.2.37-1.04.36-1.12.36 1.31.36-.64.36-.01.37.19.36.58.36 1.36.36-.18.36-.9.37-.3.36.11.36-1.91.36 2.22.36-.51.37-.83.36.92.36-.29.36-.05.37 1.43.36-1.73.36.48.36 1.23.36-2.04.37.56.36-.24.36.9.36.36.36-1.69.37-.08.36 1.4.36-.2.36 1.65.36-1.81.37.87.36-1.74.36 3.03.36-1.56.37-.36.36-.73.36 1.03.36-.33.36 1.59.37-.43.36-1.63.36-1.29.36 1.49.36-1.52.37 2.41.36-1.34.36.75.36-1.1.36.76.37.61.36-2.49.36 2.05.36 1.11.37.68.36-1.4.36-.69.36-.95.36 1.06.37 1.06.36.18.36.2.36-1 .36-.75.37-.55.36 1.45.36.07.36.78.36-3.32.37.93.36 2.61.36-1.32.36-1.91.36 4.22.37-4.88.36 4.21.36-.89.36-.96.37 1.49.36-1.15.36 1.15.36 1.14.36-2.01.37 1.63.36-2.6.36.83.36 1.2.36-2.56.37.41.36 1.09.36.37.36.25.36-2.38.37 1.25.36.45.36-.73.36.44.37 2.48.36-2.48.36 1.47.36-3.18.36 1.45.37-.99.36-1.01.36 5.57.36-5.13.36.92.37 1.4.36-1.4.36-.12.36-.65.36-.03.37 2.46.36-.66.36-.51.36 2.1.36-4.57.37 2.87.36.07.36-2.82.36 2.65.37 1.11.36-1.33.36-.21.36 2.16.36-1.99.37.87.36-1.3.36 1.15.36-1.18.36 1.22.37-.08.36-1 .36-.47.36-.04.36 1.49.37.32.36.18.36.04.36-1.8.37 2.38.36-.87.36-.65.36-1.62.36.11.37 1.9.36-.24.36.66.36-1.54.36.68.37.34.36-1.48.36 2.38.36-1.22.36-1.27.37 1.26.36.79.36-1.95.36 2.11.37-.77.36-.52.36 1.53.36.94.36-2.31.37 1.92.36-1.47.36.07.36-2.12.36 1.38.37-.29.36 2.93.36-.59.36-1.23.36-.66.37-.56.36-.55.36.77.36-1.37.36.72.37 1.77.36-.3.36 2.25.36-.93.37-2.07.36 1.73.36-1.47.36-.35.36 2.56.37-1.55.36.74.36-2.07.36 1.6.36-.25.37-.31.36 1.47.36-.98.36.16.36.13.37.07.36.27.36-1.58.36.7.37.79.36-.36.36-.36.36.43.36.44.37-.94.36-.42.36-1.09.36 1.8.36-.74.37-.61.36 1.81.36-1.52.36.08.36.12.37 1.6.36.23.36-1.19.36-1.37.36.08.37 1.45.36.13.36-.18.36.84h.37l.36-.75.36-.21.36.83.36.59.37-1.34.36.46.36-.16.36-1.31.36.54.37 1.04.36-1.05.36-1.2.36 2.51.36-1.77.37 2.45.36-1 .36.02.36-2.51.37 2.49.36-.37.36-.05.36-1.14.36 1.67.37-1.38.36-.03.36 1.08.36-.13.36.36.37-2.31.36 1.03.36-.54.36.48.36.83.37 2.96.36-4.82.36.96.36 1.09.36.05.37-1.32.36 1.01.36-1.16.36 1.15.37.16.36-.64.36.56.36-.08.36-3.13.37 2.77.36.48.36.07.36-1.11.36 1.45.37-.15.36-.38.36.87.36-1.06.36.39.37.29.36-1.65.36 1.12.36-2.47.37 2.18.36-2.42.36 4.01.36-1.58.36-1.09.37 2 .36.37.36-3.42.36 2.64.36-.61.37-.08.36-1.4.36 2.24.36-.97.36.42.37.13.36.16.36-1.52.36 1.92.37-1.5.36 2.72.36-.64.36-.9.36.52.37 2.33.36-2.85.36-.9.36.36.36 1.09.37-1.28.36.4.36-2.43.36 2.44.36-.13.37-.04.36-.8.36.28.36 1.48.36.12.37.3.36-.97.36.88.36-2.46.37 3.33.36-3.36.36 2.6.36.32.36-1.25.37-2.46.36 1.27.36 1.28.36-1.42.36 1.37.37.38.36-1.48.36 1.38.36-2.41.36 1.17.37 2.23.36-.56.36-1.52.36.93.37.48.36-2.4.36 1.56.36-1 .36.85.37.92.36-.3.36-.45.36-.74.36.6.37.49.36.44.36-.2.36-2.02.36-.98.37 3.77.36-3.25.36.5.36 1.96.36-.05.37.78.36-.63.36.31.36.73.37-.47.36-2.27.36 2.06.36-1.84.36 1.87.37-1.32.36-.23.36 2.16.36.64.36-1.61.37-.98.36-1.28.36.77.36.23.36 1.01.37-1.14.36.35.36 2.08.36-.98.37-.44.36.33.36-1.05.36.63.36-.26.37-2.2.36 2.22.36-2.89.36 3.14.36.16.37.84.36-3.28.36 1.48.36 2.24.36-.36.37-1.23.36-2.29.36 2.58.36-1.44.36-3.01.37 5.11.36-.85.36-1.02.36.34.37.82.36-1.21.36.52.36.75.36.9.37-3.03.36 2.15.36-1.41.36 1.36.36 1.93.37-2.96.36-1.21.36 1.96.36.37.36-2.42.37 3.8.36-.44.36-3.19.36.5.37 2.68.36-.79.36-1.88.36 2.35.36-1.94.37 1.12.36-1.33.36.93.36.4.36.29.37.13.36-.32.36-1.35.36 1.1.36-.79.37-.37.36-.51.36 3.18.36-2.86.37-1.01.36.95.36 2.35.36-2.42.36 2.12.37-.93.36.77.36-1.56.36 1.74.36-2.69.37 3.61.36-1.58.36-.43.36.03.36-1.58.37 1.74.36 1.28.36-.82.36-.55.36.71.37-.71.36-.11.36.14.36-.28.37-.75.36 1.15.36.58.36-1.71.36.87.37 2.38.36-3.77.36.63.36.38.36-.05.37 1.15.36-1.84.36-.16.36 1.63.36 1.5.37-1.77.36-.34.36-.1.36-.84.37 1.16.36 2.46.36-1.74.36-.47.36.59.37-.8.36 1.3.36-2.15.36 3 .36-4.76.37 3.83.36-2.28.36.52.36-.35.36-.58.37.32.36.89.36 1.88.36-3.1.36 2.09.37-1.38.36 2.23.36-1.42.36-.25.37.18.36-.4.36.05.36.1.36-.82.37.08.36.17.36 2.36.36-1.7.36-.73.37.77.36 1.82.36-2.33.36.99.36-.22.37 1.33.36.1.36-.18.36-2.2.37 2.85.36.64.36-5.28.36 1.84.36 1.27.37-1.62.36 2.26.36-.65.36-.65.36-.95.37 2.8.36-3.44.36 2.57.36 1.01.36-2.27.37-.5.36 1.03.36.54.36-1.57.36 1.98.37-2.54.36 1.09.36-.18.36.29.37 2.85.36-1.94.36-.19.36 1.41.36-2.42.37 1.11.36 2.03.36-2.45.36-.47.36.04.37 1.37.36-3.37.36 2.79.36-.25.36.2.37-1.4.36 1.37.36.26.36.04.37-1.57.36.84.36.92.36-1.1.36.13.37 1.06.36.95.36-2.27.36 1.03.36-1.08.37-.51.36 1.36.36-.49.36.33.36 1.27.37-1.89.36-.24.36 1.69.36-.73.37.15.36-.26.36.24.36.47.36-1.95.37 1.22.36.05.36.72.36-.31.36 1.19.37-1.51.36.78.36-.79.36.61.36-1.58.37 1.2.36-.18.36.97.36-.57.36-.37.37-.13.36.56.36-.86.36-.23.37.37.36.5.36-.88.36.09.36-1.66.37 3.14.36-1.59.36 1.96"/><use xlink:href="#a426a__c" color="#3B75EA" transform="matrix(3.75 0 0 3.75 67.83 64.76)"/><use xlink:href="#a426a__c" color="#3B75EA" transform="matrix(3.75 0 0 3.75 50.65 22.51)"/></g><text stroke-linecap="round" stroke-linejoin="round" color="#000" font-family="KaTeX_Main" font-size="8" transform="translate(241.1 10.11)"><tspan>RedBlackRelaxedBottomUp</tspan></text><g fill="none" stroke="currentColor" stroke-linecap="round" stroke-linejoin="round" color="#000"><path stroke="#EC6F1A" stroke-dasharray="1.0,2.0" d="M205.6 7.51h29.9M28 156.71l.36-1.55.36.93.37.21.36-.75.36-.42.36.66.36.6.37.56.36-.1.36-1.36.36 1.28.37-.26.36-.78.36.47.36-.76.36-1.09.37 2.78.36-.72.36-.52.36.16.36.5.37 1.34.36-1.53.36-.52.36.3.36-1.33.37 1.22.36-.44.36 1.41.36-.9.36.2.37.86.36.26.36-.75.36-.53.37 1.32.36-2.1.36.97.36.95.36-1.39.37.69.36.49.36-1.11.36-.35.36 2.19.37-1.32.36-1.27.36.12.36.98.36.31.37.01.36.44.36-.91.36.3.37 1.08.36-.81.36-1.51.36 1.33.36-.42.37 1.31.36-.06.36.09.36-1.63.36.91.37.66.36-2.14.36.63.36-.61.36.6.37-.88.36 1.96.36.18.36.17.37-.61.36-.29.36.07.36-.71.36-.33.37 1.41.36-1.79.36 2.31.36-1.83.36 1.26.37-1.22.36.86.36-.51.36 1.67.36.1.37-2.24.36.25.36 2.45.36-1.61.36 1.08.37-.15.36-1.52.36-.35.36 1.69.37-.1.36-1.56.36 1.53.36-1.06.36-.72.37.07.36.77.36-.31.36.53.36.35.37-.07.36-.61.36-1.23.36 1.41.36.54.37-1.53.36.78.36-.01.36.95.37-.87.36.23.36.08.36.14.36-.63.37 1.05.36-.11.36-.4.36.04.36-.78.37 1.13.36.14.36-1.37.36.52.36 1.57.37-1.86.36.61.36-1.02.36.08.36 1.78.37-.92.36-.03.36-.42.36.89.37-.5.36-.27.36.93.36.13.36.22.37.27.36.05.36-1.52.36.52.36-1.29.37.55.36.05.36-.45.36 1.51.36-.2.37.05.36.22.36-.21.36-1 .37.68.36-.13.36-.56.36-.52.36 1.44.37.2.36.15.36-1.56.36-.44.36 2.55.37-1.19.36-.2.36-.02.36-.02.36.15.37-.23.36.94.36-.92.36-.09.36.45.37.36.36-1.13.36-.05.36-.18.37 1.77.36-1.28.36.43.36-.16.36-.05.37-.55.36 1.21.36-.99.36-1 .36 2.38.37-.83.36.07.36.8.36-1.63.36.85.37.23.36.24.36.51.36-2.52.37 1.4.36.91.36-.89.36-.34.36.55.37-1.03.36 1.96.36-2.38.36 1.09.36-1.6.37.76.36 1.16.36-.69.36.88.36 1.59.37-2.85.36.21.36-.5.36.99.37-.19.36 1.19.36-1.06.36 1.57.36-1.85.37.46.36.18.36.8.36-1.04.36-.34.37-.59.36 1.67.36-.28.36-.51.36-.52.37-.02.36.7.36-.09.36-.03.36-.3.37.39.36 1.54.36-1.42.36-.54.37-.17.36 1.65.36-1.61.36.79.36-.72.37 1.36.36-.97.36-1.31.36.62.36.44.37-.37.36 1.92.36.34.36-.88.36-.41.37 1.07.36-1.9.36 1.26.36-.99.37.46.36.82.36-1.1.36-.08.36-.43.37.79.36.49.36-1.18.36 1.22.36-.29.37-.52.36 1.36.36-1.26.36-1.34.36 1.41.37-.28.36 1.04.36-.07.36-.26.36-.79.37-.09.36.23.36 1.08.36.48.37-1.97.36-.28.36 1.19.36-.62.36-1.04.37 1.88.36-1.71.36 1.7.36-.75.36-.12.37.13.36-.33.36.8.36-1.59.36.74.37 1.47.36-1.17.36.84.36-.94.37.1.36-.16.36.69.36.84.36-.92.37.66.36-1.87.36-.65.36 1.78.36-.37.37-.33.36.04.36.25.36-.36.36-.68.37 1.23.36-1.74.36 2.1.36.27.36-.96.37-.17.36.01.36.63.36-.79.37 1.37.36-.64.36.53.36.24.36-2.02.37 1.49.36-1.41.36 1.26.36.05.36-.04.37-1.25.36 1.3.36-1.42.36 2.22.36-1.5.37 1.19.36-1.26.36 1.34.36-2.2.37 1.16.36.46.36.69.36-.49.36-.17.37.28.36-1.01.36-.82.36 1.12.36-.79.37 1.25.36-.4.36-.23.36.17.36 1.13.37-1.46.36.48.36.39.36 1.45.37-1.43.36-1.14.36-.64.36 1.59.36-.39.37.26.36-.19.36-.11.36.87.36-.34.37-.58.36.51.36.95.36-1.7.36.53.37-1.53.36.88.36.65.36.15.36.79.37-2.24.36 1.77.36.51.36-.74.37-.35.36-1.81.36 3.01.36.25.36-1.2.37.52.36-.89.36-.32.36.8.36-1.48.37 1.08.36 1.39.36-1.37.36-.12.36-.29.37.8.36-1.14.36 1.13.36.54.37.09.36-1.38.36.67.36-.65.36.03.37 1.01.36-1.96.36 2.48.36-.49.36-.31.37.86.36-.94.36.05.36-.43.36-.64.37 1.16.36-.33.36.57.36-.11.36-1.59.37 1.55.36.53.36-1.8.36.49.37 1.08.36.2.36-1 .36 1.35.36-.67.37-.32.36-.12.36.41.36-.26.36.97.37-1.18.36-.69.36-.34.36.92.36.36.37.5.36-.34.36-.47.36.05.37-.21.36-1.22.36 1.24.36-.49.36-1.55.37 1.27.36.29.36 1.54.36-1.66.36 1.86.37-.99.36-1.37.36 1.32.36-.01.36.23.37-1 .36.72.36.35.36-1.03.37-.19.36 1 .36.55.36.22.36-.83.37 1.23.36-.22.36-.08.36-1.01.36.05.37.39.36.1.36-.82.36.06.36-.09.37-.56.36.74.36-.87.36 1.11.36-.74.37 1.62.36-1.57.36.74.36-.31.37-.78.36.98.36.21.36-.36.36.22.37.23.36.63.36-1.37.36 1.16.36-1.3.37 1.19.36-.85.36-.28.36.18.36.36.37.32.36.45.36-1.1.36-1.12.37.88.36 1.49.36-.78.36.47.36.06.37-.92.36.68.36-2.33.36 2.31.36-1.31.37 1.34.36-.34.36-.57.36 1.2.36.4.37-1.09.36.42.36-.66.36.49.36-1.36.37 1.27.36.97.36-1.38.36.3.37-1.11.36 1.3.36.42.36-1.01.36.65.37.13.36-.11.36-.6.36-1.04.36 1.29.37.87.36-.22.36-.21.36.21.36.22.37-.81.36.09.36.33.36-2.2.37 1.86.36-.86.36 1.23.36-.43.36.24.37 1.08.36-.56.36-1.09.36.73.36-.12.37-.23.36-.52.36.29.36-.04.36-.42.37 2.55.36-1.05.36-1.84.36 1.7.36-1.53.37-.28.36 1.15.36.29.36.23.37-.74.36-.79.36 1.01.36-.25.36-.04.37-.36.36-.5.36.58.36 1.7.36-2.17.37-.14.36.64.36-.61.36.16.36 1.43.37-.53h.36l.36-.06.36.09.37-.26.36-.18.36.79.36-1.08.36.11.37.83.36-.73.36-.2.36 2.88.36-1.8.37-.24.36.26.36-.33.36-1.21.36.98.37 1.18.36-1.64.36 1.3.36-.63.37-.85.36.12.36.91.36.36.36.14.37-.27.36.36.36.05.36-1.26.36 1.01.37-.64.36-.48.36.01.36.36.36.08.37.59.36-1.36.36.83.36-.91.36.87.37.89.36.37.36.02.36-1.85.37.83.36-.21.36 1.01.36-.47.36-.26.37-1.17.36.43.36.27h.36l.36-.27.37-.4.36.2.36.5.36.32.36-1.14.37 1.34.36-.87.36.35.36.61.37-.3.36-1.05.36.89.36.51.36-1.1.37 1.1.36-.65.36-.21.36-.59.36.83.37.51.36.35.36-1.1.36.32.36-.98.37.76.36-1.08.36.25.36 1.36.36-.35.37.01.36-.71.36 1.39.36-1.49.37 1.56.36-.79.36.56.36-.45.36 1.46.37-1.11.36-1.3.36 1.08h.36l.36.45.37-.2.36-.95.36.28.36-.51.36 1.39.37-.96.36-.21.36.41.36 1.46.37-1.05.36-.47.36-.63.36 1.06.36.09.37-1.42.36 1.79.36-1.36.36.36.36.43.37-.05.36.34.36-.48.36.51.36.56.37-.72.36-1.05.36.18.36 1.2.36-1.34.37.89.36-.04.36.66.36-.47.37 1.07.36-1.54.36-.85.36 1.43.36-.42.37-.95.36 1.99.36-1.6.36.74.36.71.37-1.03.36-1.95.36 1.65.36 1.28.36-2.59.37 3.16.36-1.26.36-1.04.36.76.37-.17.36.09.36.26.36.07.36-.14.37.08.36-2.07.36.86.36 1.86.36.25.37-1.91.36.81.36-.19.36.27.36-.13.37.94.36-.33.36-1.23.36.41.37-.37.36-.71.36 2.9.36-1.72.36.37.37.21.36-1.26.36.52.36 1.83.36-2.71.37 3.21.36-2.77.36.31.36 1.06.36-1.14.37.83.36.77.36-1.15.36 1.15.36-1.1.37-.12.36-.17.36-.04.36.34.37.48.36.2.36.35.36-.98.36.27.37.87.36-.71h.36l.36-1.54.36.78.37.61.36-.4.36-.44.36.41.36.64.37-.12.36.46.36-1.27.36.16.37.54.36.51.36.31.36-.19.36-1.06.37.57.36.48.36-.69.36.38.36-1.5.37 1.99.36-.28.36-.32.36-.27.36-1.19.37-.09.36 1.21.36.15.36.08.36-.2.37.9.36-2.2.36 1.94.36-.8.37.8.36.27.36-.77.36-1.15.36 1.18.37-.47.36.44.36.49.36-1.06.36-.75.37.63.36-1.16.36 2.14.36.08.36-.92.37 1.17.36-1.1.36.43.36.45.37-.58.36 1 .36-1.71.36-.01.36.37.37-.61.36.85.36-.16.36.38.36-.63.37.73.36-1.16.36.69.36.94.36-.79.37.7.36.68.36-1.65.36-.12.36-.4.37-1.25.36 1.38.36-.37.36 1.15.37 1.06.36-1.71.36.8.36.91.36.56.37-2.51.36-.09.36 1.31.36-.61.36.33.37.15.36-1.41.36 1.73.36-1.09.36.97.37.73.36-.7.36-1.33.36 1.23.37.28.36.54.36-.68.36-.26.36-.88.37.48.36.37.36.3.36-.28.36.38.37-.26.36-1.09.36.45.36-.67.36 1.67.37-1.08.36.65.36.7.36-.06.37-.3.36-.11.36.09.36-.99.36 1.09.37-2.2.36.97.36 1.41.36-1.63.36 1.67.37-1.5.36 1.31.36.15.36-.63.36-.39.37.6.36-.94.36.18.36.53.36-.65.37.32.36.52.36-.99.36 1.3.37-.71.36-.93.36.41.36.55.36-1.25.37 1.36.36-.43.36 1.28"/><use xlink:href="#a426a__a" color="#EC6F1A" transform="matrix(3.75 0 0 3.75 125.4 155.84)"/><use xlink:href="#a426a__a" color="#EC6F1A" transform="matrix(3.75 0 0 3.75 220.55 7.51)"/></g><text stroke-linecap="round" stroke-linejoin="round" color="#000" font-family="KaTeX_Main" font-size="8" transform="translate(241.1 25.11)"><tspan>RedBlackRelaxedTopDown</tspan></text><g fill="none" stroke="currentColor" stroke-linecap="round" stroke-linejoin="round" color="#000"><path stroke="violet" stroke-dasharray="4.0,2.0,1.0,2.0" d="M205.6 22.51h29.9M28 156.95l.36-1.35.36.48.37.11.36 1.36.36-2.28.36 1.29.36-.02.37.53.36.42.36-1.83.36 1.13.37.3.36-.83.36.67.36-.86.36-1.27.37 2.3.36.19.36-.95.36.58.36-.05.37 1.23.36-1.25.36-.51.36-.58.36-.37.37 1.57.36-.32.36.37.36-.66.36.78.37-.29.36.54.36-.57.36-.36.37.72.36-.15.36-.49.36 1.29.36-.95.37.54.36-.18.36-1.1.36.46.36 1.88.37-1.56.36-1.77.36 1.33.36-.46.36 1.05.37-.15.36.33.36-.89.36.32.37 1.24.36-.35.36-1.26.36.57.36-.22.37 2.01.36-1.21.36.66.36-1.37.36-.01.37-.47.36-.53.36.82.36-.54.36.4.37-.58.36 1.58.36.19.36.54.37-.14.36-1.11.36.34.36-1.23.36-.17.37 1.34.36-1.37.36 2.71.36-1.92.36-.14.37-.74.36 1.32.36.47.36 1.15.36-1.28.37-1.79.36 1.16.36 1.66.36-.9.36.19.37.88.36-2.67.36.84.36.76.37-.23.36-.45.36-.5.36.02.36.18.37-.73.36 1.5.36-.36.36-.41.36.4.37.51.36-1.18.36.3.36-.61.36 1.49.37-.69.36-.3.36 1.06.36.05.37-.89.36-.21.36.51.36.58.36-.96.37.7.36-.83.36.54.36.69.36-1.31.37.76.36.07.36-.95.36 1.05.36.27.37-1.1.36-.32.36.51.36-.76.36 2.31.37-1.44.36-.16.36-.89.36 2.11.37-1.49.36.79.36-.06.36.43.36-.25.37-.12.36 1.11.36-.85.36-.07.36-1.14.37.86.36-.27.36-.44.36 1 .36-.23.37.99.36-1.4.36.07.36-.29.37.93.36-.5.36.45.36-.62.36-.43.37 1.38.36-.24.36-.97.36-.21.36 1.85.37-1.18.36.01.36-.02.36.27.36-.06.37-.35.36.02.36-.05.36-.26.36.54.37.57.36-.83.36-.54.36-.32.37 1.55.36-.78.36 1.35.36-1.94.36 1.09.37-1.55.36 2.52.36-1.79.36-.38.36 1.57.37-.3.36.15.36.36.36-2.02.36 1.16.37.48.36-.15.36.82.36-1.88.37 2.07.36-.38.36-1 .36-.16.36-.1.37.03.36 1.23.36-1.63.36.92.36-1.21.37.59.36.99.36-.04.36-.49.36 1.44.37-1.33.36-.67.36-.42.36 1.67.37-.56.36.56.36-.51.36 1.1.36-.7.37-.42.36.02.36 1.19.36-1.45.36-.14.37.2.36.48.36-.09.36-.96.36.91.37-.58.36.37.36-.72.36.57.36-.39.37.18.36 1.14.36-1.54.36.1.37.45.36-.1.36-1.21.36 1.2.36.86h.37l.36-1.64.36-.17.36.82.36.05.37-.93.36 2.34.36-.82.36-.59.36.73.37.75.36-2.15.36 1.84.36-2 .37 1.58.36-.36.36-.21.36.06.36.01.37.8.36-.61.36-.51.36.14.36.55.37-.14.36.71.36-1.27.36-1.18.36 1.24.37-.49.36 1.63.36-.99.36.92.36-.87.37.22.36-.75.36 1.15.36.56.37-1.9.36-.29.36 1.62.36-1.21.36-.42.37 1.42.36-1.01.36.45.36-.16.36.94.37-.57.36.31.36-.8.36-.41.36.52.37 1.55.36-.44.36-1.45.36.13.37.83.36-.31.36-.31.36 1.92.36-.94.37.22.36-.82.36-1.46.36.99.36.5.37.19.36-.23.36-.08.36-.41.36-.89.37 1.63.36-1.22.36.69.36.46.36-.79.37.56.36.08.36-.43.36.25.37 1.41.36-1.33.36.61.36.06.36-1.41.37.88.36-.21.36-.34.36 1.03.36-.52.37-1.15.36 1.83.36-1.58.36 1.3.36-.67.37.86.36-1.24.36 1.59.36-1.26.37.6.36-.65.36 1.26.36-.67.36.76.37-.46.36-.59.36-2 .36 2.11.36-.54.37.97.36-.47.36-.2.36.44.36.31.37-1.07.36.16.36.05.36 1.6.37-.56.36-2.21.36.65.36 1.19.36-.65.37.44.36.01.36.1.36.1.36.09.37-.61.36.58.36.6.36-1.45.36.48.37-2.33.36 2.35.36-.59.36-.2.36.94.37-1.7.36 2.54.36-.28.36-1.04.37.89.36-2.4.36 1.92.36.49.36-.73.37.35.36-.18.36-.36.36.23.36-.65.37.41.36 1.18.36-1.68.36.47.36.43.37.14.36-.14.36-.25.36.47.37.68.36-1.6.36 1.18.36-1.82.36.66.37.41.36-.39.36 1.53.36.3.36-1.45.37 1.87.36-1.44.36.21.36-.56.36-.67.37 1.05.36-.85.36.57.36 1.15.36-2.07.37 1.01.36.63.36-2.01.36.68.37 1.29.36.93.36-2.45.36 1.76.36-.75.37-.21.36-.05.36.34.36-.2.36 1.1.37-1.05.36-1.08.36.29.36.24.36 1.49.37-.01.36-1.25.36.54.36-.65.37-.04.36-1.09.36.45.36.07.36-1.41.37 2.01.36-.22.36.99.36-1.28.36 2.04.37-1.17.36-.79.36.64.36-.61.36.75.37-.67.36-.02.36.04.36-.01.37-.59.36 1.86.36.05.36.95.36-.35.37.36.36-.81.36.72.36-1.36.36-.12.37-.32.36.32.36.12.36-.37.36.25.37-.77.36.54.36-.15.36.15.36-.23.37 1.31.36-1.25.36 1.46.36-1.4.37-.29.36.13.36-.09.36 1.3.36-.5.37.26.36.37.36-1.67.36 1.56.36-1.2.37.73.36-.13.36-1.14.36.31.36.49.37.2.36-.01.36.06.36-1.94.37 1.72.36 1.11.36-1.65.36 1.5.36.42.37-1.94.36.9.36-1.71.36 1.4.36-.25.37.26.36.76.36-.83.36.07.36.96.37-1.19.36 1.42.36-1.12.36.51.36-2.03.37 1.95.36.74.36-.95.36.18.37-.7.36-.1.36 1.11.36.05.36-.19.37.08.36.25.36-.93.36-1.04.36.09.37 1.5.36.16.36.29.36-.39.36.05.37-.4.36.42.36-.82.36-.44.37.93.36-1.16.36.81.36-.36.36 1.33.37.25.36-.86.36.18.36.27.36-.31.37-.37.36-.85.36 1.01.36.51.36-1.25.37 1.99.36-.84.36-2.04.36 1.81.36-.89.37.2.36 1.02.36-.18.36.07.37-.24.36-1.68.36 1.08.36-.11.36.26.37-.21.36-.51.36.27.36.86.36-.33.37-1.33.36.76.36-.2.36.5.36.99.37-.63.36-.06.36.11.36-.04.37.57.36-1.58.36.62.36-.07.36.31.37.03.36-.65.36-.23.36 2.75.36-1.72.37.33.36-.37.36.5.36-1.68.36 1.43.37 1.87.36-2.32.36 1.06.36-.65.37-.56.36.56.36-.2.36.54.36-.51.37.97.36.44.36-1.33.36-.75.36 1.35.37-1.54.36.15.36-.3.36.7.36.75.37-.19.36-1.83.36 1.15.36-.49.36-.52.37 1.95.36.58.36.62.36-2.18.37.9.36-.8.36 1.25.36-.23.36-.36.37-1.31.36 1.06.36-.96.36 1.1.36-.81.37 1.08.36-.81.36-.22.36.55.36.09.37.37.36-1.05.36.95.36-.72.37-.08.36.13.36-.46.36.73.36-.86.37 1.5.36-1.14.36 1.37.36-1.35.36.63.37-.49.36 1.37.36-1.57.36.04.36-.87.37 1.53.36-1.41.36.54.36.55.36.14.37-.06.36-.71.36 1.65.36-1.15.37 1.67.36-1.16.36.37.36-.54.36 1.14.37-1.2.36-1 .36.98.36-.21.36 1.09.37-.6.36-.98.36-.05.36.45.36.81.37-1.2.36.38.36.36.36 1.07.37-.31.36-.76.36-1.32.36 1.71.36-.73.37-.29.36.73.36-1.09.36 1.01.36-.02.37.66.36-1.28.36.59.36-.65.36 1.49.37-.44.36-1 .36-.55.36 1.25.36-.52.37 1.05.36-.55.36.57.36.01.37.33.36-1.77.36.31.36 1.62.36-1.1.37-.77.36 1.9.36-1.27.36.1.36.92.37-1.02.36-1.02.36.88.36 1.4.36-1.64.37.99.36-.13.36-.81.36.04.37.57.36-1.19.36.72.36 1.33.36-.45.37-.49.36-.86.36-.2.36 1.36.36.35.37-2.51.36 2.18.36-.68.36.22.36.44.37-.24.36.16.36-1.15.36.34.37-.12.36-1.63.36 3.97.36-2.46.36 1.15.37-.4.36-1.63.36.71.36 2.38.36-2.17.37 2.03.36-2.19.36.38.36.51.36.67.37-.4.36 1.1.36-1.79.36.2.36.23.37.2.36-.36.36-.07.36-.79.37 1.05.36-.4.36.39.36-.79.36.44.37 1.65.36-2.18.36.85.36-1.59.36 1.85.37.16.36-1.07.36.72.36-.79.36.84.37.06.36.4.36-1.85.36 1.12.37-.38.36 1.1.36.8.36-1.56.36 1.02.37-.61.36.49.36-1.54.36 1.8.36-1.62.37 1.48.36-.65.36-.06.36-.31.36-.63.37-1.01.36 1.45.36.63.36-.13.36 1.05.37-.74.36-1.41.36 1.31.36-.41.37.73.36.66.36-1.63.36-1.09.36 1.34.37-.41.36.61.36.45.36-1.45.36.29.37.13.36-.44.36 1.24.36.55.36-.4.37-.36.36.26.36.57.36-.69.37.28.36.03.36-1.19.36 1.01.36-.06.37-1.33.36.1.36 1.29.36-.73.36-1.26.37 1.72.36-1.47.36.68.36 1.27.36-1.56.37.69.36 1.25.36-1.69.36.09.36.31.37-1.34.36 1.08.36-.78.36.58.37 1.9.36-2.02.36 1.47.36.35.36.42.37-1.09.36-.16.36-.34.36.11.36.41.37-.08.36-.97.36.89.36-.47.36.89.37-.35.36-.18.36-.65.36.81.37-.02.36.4.36-.31.36.01.36-.06.37.74.36-1.54.36.44.36-.13.36.58.37-.62.36.07.36-.05.36-.16.36 1.47.37-1.37.36.25.36.35.36.69.37-.51.36.26.36-.55.36-.49.36.44.37-1.7.36 1.06.36 1.25.36-1.82.36 1.44.37-1 .36 1.04.36.45.36-.59.36.15.37.34.36-.74.36.08.36.25.36-.54.37.13.36.41.36-1.09.36 1.04.37.21.36-1.13.36-.69.36 1.75.36-.4.37.15.36-.39.36.63"/><use xlink:href="#a426a__d" color="violet" transform="matrix(3.75 0 0 3.75 182.98 157.24)"/><use xlink:href="#a426a__d" color="violet" transform="matrix(3.75 0 0 3.75 220.55 22.51)"/></g><path fill="none" d="M28 45.01V162.5M371.99 45.01H28" color="#000"/></svg>