<svg xmlns="http://www.w3.org/2000/svg" xmlns:xlink="http://www.w3.org/1999/xlink" viewBox="0 0 400 200"><path fill="none" d="M0 0h400v200H0z"/><defs><use xlink:href="#1ae26__a" id="1ae26__b" fill="currentColor" stroke="none"/><use xlink:href="#1ae26__a" id="1ae26__c" stroke="currentColor" transform="rotate(180)"/><path id="1ae26__a" stroke="currentColor" stroke-width=".267" d="m0-1.33-1.33 2h2.66z"/></defs><path fill="none" stroke="#CCC" stroke-linecap="round" stroke-linejoin="round" stroke-width=".1" d="M46.1 162.5V45.01" class="1ae26__gridline" color="#000"/><g fill="none" stroke-linecap="round" stroke-linejoin="round" stroke-width="0" color="#000"><path d="M46.1 162.5V155m0-109.99v7.5"/><text fill="#000" font-family="KaTeX_Main" font-size="8" text-anchor="middle" transform="translate(46.1 172.6)"><tspan> 1</tspan></text></g><path fill="none" stroke="#CCC" stroke-linecap="round" stroke-linejoin="round" stroke-width=".1" d="M82.31 162.5V45.01" class="1ae26__gridline" color="#000"/><g fill="none" stroke-linecap="round" stroke-linejoin="round" stroke-width="0" color="#000"><path d="M82.31 162.5V155m0-109.99v7.5"/><text fill="#000" font-family="KaTeX_Main" font-size="8" text-anchor="middle" transform="translate(82.31 172.6)"><tspan> 2</tspan></text></g><path fill="none" stroke="#CCC" stroke-linecap="round" stroke-linejoin="round" stroke-width=".1" d="M118.52 162.5V45.01" class="1ae26__gridline" color="#000"/><g fill="none" stroke-linecap="round" stroke-linejoin="round" stroke-width="0" color="#000"><path d="M118.52 162.5V155m0-109.99v7.5"/><text fill="#000" font-family="KaTeX_Main" font-size="8" text-anchor="middle" transform="translate(118.52 172.6)"><tspan> 3</tspan></text></g><path fill="none" stroke="#CCC" stroke-linecap="round" stroke-linejoin="round" stroke-width=".1" d="M154.73 162.5V45.01" class="1ae26__gridline" color="#000"/><g fill="none" stroke-linecap="round" stroke-linejoin="round" stroke-width="0" color="#000"><path d="M154.73 162.5V155m0-109.99v7.5"/><text fill="#000" font-family="KaTeX_Main" font-size="8" text-anchor="middle" transform="translate(154.73 172.6)"><tspan> 4</tspan></text></g><path fill="none" stroke="#CCC" stroke-linecap="round" stroke-linejoin="round" stroke-width=".1" d="M190.94 162.5V45.01" class="1ae26__gridline" color="#000"/><g fill="none" stroke-linecap="round" stroke-linejoin="round" stroke-width="0" color="#000"><path d="M190.94 162.5V155m0-109.99v7.5"/><text fill="#000" font-family="KaTeX_Main" font-size="8" text-anchor="middle" transform="translate(190.94 172.6)"><tspan> 5</tspan></text></g><path fill="none" stroke="#CCC" stroke-linecap="round" stroke-linejoin="round" stroke-width=".1" d="M227.15 162.5V45.01" class="1ae26__gridline" color="#000"/><g fill="none" stroke-linecap="round" stroke-linejoin="round" stroke-width="0" color="#000"><path d="M227.15 162.5V155m0-109.99v7.5"/><text fill="#000" font-family="KaTeX_Main" font-size="8" text-anchor="middle" transform="translate(227.15 172.6)"><tspan> 6</tspan></text></g><path fill="none" stroke="#CCC" stroke-linecap="round" stroke-linejoin="round" stroke-width=".1" d="M263.36 162.5V45.01" class="1ae26__gridline" color="#000"/><g fill="none" stroke-linecap="round" stroke-linejoin="round" stroke-width="0" color="#000"><path d="M263.36 162.5V155m0-109.99v7.5"/><text fill="#000" font-family="KaTeX_Main" font-size="8" text-anchor="middle" transform="translate(263.36 172.6)"><tspan> 7</tspan></text></g><path fill="none" stroke="#CCC" stroke-linecap="round" stroke-linejoin="round" stroke-width=".1" d="M299.57 162.5V45.01" class="1ae26__gridline" color="#000"/><g fill="none" stroke-linecap="round" stroke-linejoin="round" stroke-width="0" color="#000"><path d="M299.57 162.5V155m0-109.99v7.5"/><text fill="#000" font-family="KaTeX_Main" font-size="8" text-anchor="middle" transform="translate(299.57 172.6)"><tspan> 8</tspan></text></g><path fill="none" stroke="#CCC" stroke-linecap="round" stroke-linejoin="round" stroke-width=".1" d="M335.78 162.5V45.01" class="1ae26__gridline" color="#000"/><g fill="none" stroke-linecap="round" stroke-linejoin="round" stroke-width="0" color="#000"><path d="M335.78 162.5V155m0-109.99v7.5"/><text fill="#000" font-family="KaTeX_Main" font-size="8" text-anchor="middle" transform="translate(335.78 172.6)"><tspan> 9</tspan></text></g><path fill="none" stroke="#CCC" stroke-linecap="round" stroke-linejoin="round" stroke-width=".1" d="M371.99 162.5V45.01" class="1ae26__gridline" color="#000"/><g fill="none" stroke-linecap="round" stroke-linejoin="round" stroke-width="0" color="#000"><path d="M371.99 162.5V155m0-109.99v7.5"/><text fill="#000" font-family="KaTeX_Main" font-size="8" text-anchor="middle" transform="translate(371.99 172.6)"><tspan> 10</tspan></text></g><g fill="none" stroke-linecap="round" stroke-linejoin="round" stroke-width="0" color="#000"><path d="M371.99 162.5h-7.5"/><text fill="#000" font-family="KaTeX_Main" font-size="8" transform="translate(378.99 165.1)"><tspan>-1</tspan></text></g><g fill="none" stroke-linecap="round" stroke-linejoin="round" stroke-width="0" color="#000"><path d="M371.99 45.01h-7.5"/><text fill="#000" font-family="KaTeX_Main" font-size="8" transform="translate(378.99 47.61)"><tspan>0</tspan></text></g><path fill="none" d="M28 45.01V162.5M371.99 45.01H28" color="#000"/><text stroke-linecap="round" stroke-linejoin="round" stroke-width="0" color="#000" font-family="KaTeX_Main" font-size="10" text-anchor="middle" transform="rotate(-90 57.63 46.13)"><tspan>log</tspan><tspan dy="3" font-size="8">2</tspan><tspan dy="-3">(</tspan><tspan font-weight="bold">Average Path Length </tspan><tspan> / log</tspan><tspan dy="3" font-size="8">2</tspan><tspan dy="-3">(Size))</tspan></text><text stroke-linecap="round" stroke-linejoin="round" stroke-width="0" color="#000" font-family="KaTeX_Main" font-size="10" text-anchor="middle" transform="translate(199.99 195.75)"><tspan>Operations / 10</tspan><tspan dy="-5" font-size="8">6</tspan></text><text stroke-linecap="round" stroke-linejoin="round" stroke-width=".5" color="#000" font-family="KaTeX_Main" font-size="8" transform="translate(99.2 10.11)"><tspan>AVLBottomUp</tspan></text><g fill="none" stroke="currentColor" stroke-linecap="round" stroke-linejoin="round" stroke-width=".5" color="#000"><path stroke="#000" d="M63.7 7.51h29.9M28 63.74l.36.05.36.05.37-.05.36-.13.36-.11.36-.11.36-.1.37-.09.36-.08.36-.08.36-.07.37-.06.36-.06.36-.06.36-.05.36-.04.37-.04.36-.04.36-.03.36-.03.36-.03.37-.02.36-.02.36-.01.36-.02.36-.01.37-.01h.36l.36-.01h1.45l.36.01.36.01h.37l.36.01.36.02.36.01.36.01.37.02.36.01.36.02.36.02.36.02.37.02.36.02.36.02.36.02.36.03.37-.01.36-.01.36.01.36-.03.37.03.36-.01.36-.01.36-.04.36-.09.37.13.36-.11h.36l.36-.02.36-.09.37-.11.36-.08.36-.12.36-.14.36-.03.37.22.36-.09.36-.13.36.1.37-.11.36-.01.36-.03.36-.08.36-.1.37-.1.36-.11.36-.14.36-.02.36-.1.37-.14.36-.18.36-.1h.36l.36-.05.37-.08.36.52.36-.1.36-.1.36-.1.37-.15.36-.06.36.25.36-.11.37-.1.36-.07.36.06.36-.01.36-.06.37 2h.72l.36-.01.36-.05.37.03.36.03.36-.05.36-.06.36-.04.37.08.36-.02.36-.06.36-.05.37-.09.36-.1.36-.1.36-.16.36-.05.37-.06.36.21.36-.11.36-.08.36.06.37-.09.36.02.36-.06.36-.1.36-.12.37-.06.36-.16.36-.05.36-.07.36-.13.37-.15.36-.15.36.03.36-.14.37-.02.36.52.36-.09.36-.13.36-.06.37-.15.36-.05.36-.09.36.22.36-.09.37-.11.36.07.36-.1.36-.01.36 2 .37-.01.36-.01.36.02.36-.04.37.03h.36l.36-.02.36-.04.36-.05.37.09.36-.1.36-.01.36-.02.36-.1.37-.1.36-.09.36-.12.36-.07.36-.1.37.23.36-.09.36-.1.36.06.36-.11.37-.01.36-.01.36-.09.36-.11.37-.08.36-.12.36-.06.36-.11.36-.1.37-.15.36-.16.36.04.36-.15.36-.05.37-.07.36.52.36-.11.36-.1.36-.11.37-.13.36-.02.36.21.36-.09.37-.12.36-.07.36.05.36-.01.36-.03.37 1.99h.36l.36-.01.36-.01.36-.04.37.03.36.03.36-.07.36-.06.36-.02.37.06.36-.01.36-.04.36-.08.37-.09.36-.1.36-.1.36-.15.36-.06.37.25.36-.1.36-.11.36-.08.36.07.37-.02.36-.05.36-.06.36-.1.36-.09.37-.1.36-.16.36-.05.36-.06.36-.15.37-.14.36-.13.36.01.36-.06.37-.1.36.53.36-.1.36-.13.36-.06.37-.16.36-.05.36-.07.36.22.36-.1.37-.11.36.07.36-.08.36.02.36 1.97h.37l.36-.03.36.04.36-.06.37.04.36.01.36-.03.36-.05.36-.06.37.1.36-.1.36-.01.36-.02.36-.11.37-.11.36-.06.36-.14.36-.07.36-.08.37.22.36-.1.36-.1.36.07.36-.1.37-.02.36-.01.36-.11.36-.1.37-.08.36-.12.36-.06.36-.11.36-.1.37-.14.36-.14.36.01.36-.14.36-.07.37-.06.36.51.36-.1.36-.08.36-.12.37-.06.36-.11.36.23.36-.1.37-.12.36.09.36-.11h.36l.36-.03.37 2 .36-.01h.36l.36-.02.36-.04.37.07.36-.01.36-.05.36-.08.36.14.37-.11h.36l.36-.04.36-.08.36-.09.37-.11.36-.1.36-.14.36-.03.37.22.36-.11.36-.11.36-.06.36.05.37-.02.36-.03.36-.07.36-.1.36-.1.37-.1.36-.15.36-.06.36-.06.36-.16.37-.14.36-.12.36.01.36-.06.37-.1.36.53.36-.09.36-.1.36-.1.37-.14.36-.06.36-.07.36.21.36-.11.37-.08.36.06.36-.01.36-.06.36 1.99h.37l.36-.03.36.03.36-.07.37.05.36.02.36-.04.36-.06.36-.03.37.06.36-.08.36.02.36-.06.36-.09.37-.13.36-.06.36-.15.36-.05.36-.09.37.22.36-.1.36-.1.36.07.36-.09.37.02.36-.05.36-.11.36-.11.37-.06.36-.15.36-.06.36-.08.36-.12.37-.14.36-.15.36.02.36-.14.36-.06.37.55.36-.11.36-.1.36-.07.36-.13.37-.06.36-.11.36.23.36-.09.37-.1.36.06.36-.09.36-.01.36-.02.37 2 .36-.01.36.01.36-.03.36.03.37-.01.36-.01.36-.04.36-.09.36.13.37-.11h.36l.36-.02.36-.09.36-.11.37-.08.36-.12.36-.14.36-.03.37.22.36-.09.36-.13.36.1.36-.11h.37l.36-.04.36-.08.36-.1.36-.1.37-.11.36-.14.36-.02.36-.1.36-.14.37-.18.36-.1.36.01.36-.06.37-.08.36.52.36-.1.36-.1.36-.1.37-.15.36-.05.36.24.36-.11.36-.1.37-.07.36.06.36-.01.36-.06.36 2h.73l.36-.01.36-.05.37.03.36.03.36-.05.36-.06.36-.04.37.08.36-.02.36-.06.36-.05.36-.09.37-.1.36-.1.36-.16.36-.05.36-.06.37.21.36-.11.36-.08.36.06.36-.09.37.02.36-.06.36-.1.36-.12.37-.06.36-.16.36-.05.36-.07.36-.13.37-.15.36-.15.36.03.36-.14.36-.02.37.52.36-.09.36-.13.36-.06.36-.15.37-.05.36-.09.36.22.36-.09.37-.11.36.07.36-.1.36-.01.36 2 .37-.01.36-.01.36.02.36-.04.36.03h.37l.36-.02.36-.04.36-.05.36.09.37-.1.36-.01.36-.02.36-.1.36-.11.37-.08.36-.12.36-.07.36-.1.37.23.36-.09.36-.1.36.06.36-.11h.37l.36-.02.36-.09.36-.11.36-.08.37-.12.36-.06.36-.11.36-.1.36-.15.37-.16.36.04.36-.15.36-.05.37-.07.36.52.36-.11.36-.1.36-.11.37-.13.36-.02.36.21.36-.09.36-.12.37-.07.36.05.36-.01.36-.03.36 1.99h.37l.36-.01.36-.01.36-.04.36.03.37.03.36-.07.36-.06.36-.02.37.06.36-.01.36-.04.36-.08.36-.09.37-.1.36-.1.36-.15.36-.06.36.25.37-.1.36-.11.36-.08.36.07.36-.02.37-.05.36-.06.36-.1.36-.09.37-.1.36-.16.36-.05.36-.06.36-.15.37-.15.36-.12.36.01.36-.06.36-.1.37.53.36-.1.36-.13.36-.06.36-.16.37-.05.36-.07.36.22.36-.1.37-.11.36.07.36-.08.36.02.36 1.97h.37l.36-.03.36.04.36-.06.36.04.37.01.36-.03.36-.05.36-.06.36.1.37-.1.36-.01.36-.02.36-.11.36-.11.37-.06.36-.14.36-.07.36-.08.37.22.36-.1.36-.1.36.07.36-.1.37-.02.36-.01.36-.11.36-.1.36-.08.37-.12.36-.06.36-.11.36-.1.36-.14.37-.14.36.01.36-.14.36-.07.37-.06.36.51.36-.1.36-.08.36-.12.37-.06.36-.11.36.23.36-.1.36-.12.37.09.36-.11h.36l.36-.03.36 2 .37-.01h.36l.36-.02.36-.04.36.07.37-.01.36-.05.36-.08.36.14.37-.11h.36l.36-.04.36-.08.36-.09.37-.11.36-.1.36-.14.36-.03.36.22.37-.11.36-.11.36-.06.36.05.36-.02.37-.03.36-.07.36-.1.36-.1.37-.1.36-.15.36-.06.36-.06.36-.15.37-.15.36-.12.36.01.36-.06.36-.1.37.53.36-.09.36-.1.36-.1.36-.14.37-.06.36-.07.36.21.36-.11.36-.08.37.06.36-.01.36-.06.36 1.99h.37l.36-.03.36.03.36-.07.36.05.37.02.36-.04.36-.06.36-.03.36.06.37-.08.36.02.36-.05.36-.1.36-.13.37-.06.36-.15.36-.05.36-.09.37.22.36-.1.36-.1.36.07.36-.09.37.02.36-.05.36-.11.36-.11.36-.07.37-.14.36-.06.36-.08.36-.12.36-.14.37-.15.36.02.36-.15.36-.05.37.55.36-.11.36-.1.36-.07.36-.13.37-.06.36-.1.36.22.36-.09.36-.1.37.06.36-.09.36-.01.36-.02.36 2 .37-.01.36.01.36-.03.36.03.36-.01.37-.01.36-.04.36-.09.36.13.37-.11h.36l.36-.02.36-.09.36-.11.37-.08.36-.13.36-.13.36-.03.36.22.37-.09.36-.13.36.1.36-.11h.36l.37-.04.36-.08.36-.1.36-.1.37-.1.36-.15.36-.02.36-.1.36-.14.37-.18.36-.1.36.01.36-.06.36-.08.37.52.36-.1.36-.1.36-.1.36-.15.37-.05.36.24.36-.11.36-.1.36-.07.37.06.36-.01.36-.06.36 2h.73l.36-.01.36-.05.36.03.37.03.36-.05.36-.06.36-.04.36.08.37-.02.36-.06.36-.05.36-.09.36-.1.37-.1.36-.16.36-.05.36-.06.37.21.36-.11.36-.08.36.06.36-.09.37.02.36-.06.36-.1.36-.12.36-.06.37-.16.36-.05.36-.07.36-.13.36-.15.37-.15.36.03.36-.14.36-.02.36.52.37-.09.36-.13.36-.06.36-.15.37-.05.36-.09.36.22.36-.09.36-.11.37.07.36-.1.36-.01.36 2 .36-.01.37-.01.36.02.36-.04.36.03h.36l.37-.02.36-.04.36-.05.36.09.37-.1.36-.01.36-.02.36-.1.36-.1.37-.09.36-.12.36-.06.36-.11.36.23.37-.09.36-.1.36.06.36-.11h.36l.37-.02.36-.09.36-.11.36-.08.37-.12.36-.06.36-.11.36-.1.36-.15.37-.16.36.04.36-.15.36-.05.36-.07.37.52.36-.1.36-.11.36-.11.36-.13.37-.02.36.21.36-.09.36-.12.36-.07.37.05.36-.01.36-.03.36 1.99h.37l.36-.01.36-.01.36-.04.36.03.37.03.36-.07.36-.06"/><use xlink:href="#1ae26__b" transform="matrix(3.75 0 0 3.75 354.25 62.6)"/><use xlink:href="#1ae26__b" transform="matrix(3.75 0 0 3.75 78.65 7.51)"/></g><text stroke-linecap="round" stroke-linejoin="round" color="#000" font-family="KaTeX_Main" font-size="8" transform="translate(99.2 25.11)"><tspan>AVLWeakTopDown</tspan></text><g fill="none" stroke="currentColor" stroke-linecap="round" stroke-linejoin="round" color="#000"><path stroke="#FFAB00" stroke-dasharray="4.5,2.0,0.5,2.0,0.5,2.0" d="M63.7 22.51h29.9M28 65.79h.36l.36-.28.37.04.36-.64.36.37.36.54.36-.32.37-.47.36.76.36-.75.36.47.37.1.36.12.36.08.36-.27.36-.05.37-.45.36.37.36.39.36-.25.36-.53.37.68.36-.31.36.38.36-.15.36.17h.37l.36-.28.36.21.36-.86.36.55.37.27.36-.13.36-.63.36.87.37-.37.36-.57.36.87h.36l.36.03.37-.66.36.69.36-.89.36.65.36.16.37-.21.36.24.36-.22.36-.06.36-.55.37.88.36-.12.36.13.36-.82.37.79.36-.8.36.58.36.2.36.04.37.01.36-.28.36.03.36-.64.36.41.37.48.36-.25.36-.51.36.75.36-.74.37.47.36.09.36.12.36.03.37-.21h.36l.36-.51.36.37.36.41.37-.3.36-.48.36.7.36-.76.36.78.37-.15.36.18.36.01.36-.26.36.19.37-.86.36.54.36.26.36-.11.36-.63.37.87.36-.38.36.38.36-.07.37.04.36-.06.36-.63.36.71.36-.91.37.66.36.17.36-.18.36.21.36-.19.37-.12.36-.49.36.85.36-.12.36.12.37-.74.36.74.36-.81.36.54.37.21.36.05h.36l.36-.25.36.02.37-.58.36.36.36.5.36-.29.36-.52.37.76.36-.73.36.47.36.31.36-.1.37.04.36-.24.36.02.36-.53.36.37.37.44.36-.31.36-.47.36.68.37-.71.36.72.36-.09.36.13.36.01.37-.24.36-.03.36-.66.36.53.36.18.37-.02.36-.61.36.86.36-.39.36.39.37-.13.36.12.36-.05.36-.67.37.7.36-.9.36.65.36.18.36-.17.37.2.36-.18.36-.16.36-.46.36.85.37-.1.36.12.36-.75.36.75.36-.82.37.57.36.12.36.16.36-.04.36-.28.37.03.36-.57.36.36.36.5.37-.3.36-.52.36.82.36-.79.36.48.37.3.36-.02.36-.01.36-.23.36-.04.37-.53.36.39.36.45.36-.3.36-.48.37.68.36-.7.36.71.36-.11.37.14.36.02.36-.23.36-.04.36-.44.37.3.36.22.36-.08.36-.53.36.79.37-.39.36.41.36-.13.36.13.36-.06.37-.72.36.73.36-.84.36.59.37.18.36-.14.36-.64.36.66.36-.16.37-.58.36.94.36-.08.36.11.36-.74.37.75.36-.82.36.58.36.13.36.13.37-.05.36-.26.36.01.36-.57.36.85.37.04.36-.29.36-.58.36.86.37-.79.36.47.36.3.36-.01.36-.01.37-.23h.36l.36-.6.36.45.36.43.37-.32.36-.47.36.75.36-.75.36.68.37-.13.36.16.36.02.36-.23.37-.02.36-.45.36.36.36.16.36-.04.37-.57.36.78.36-.39.36.41.36-.13.37.14.36-.07.36-.7.36.68.36-.82.37.6.36.18.36-.12.36-.64.36.89.37-.41.36-.54.36.88.36.01.37.05.36-.75.36.76.36-.88.36.65.37.1.36-.25.36.34.36-.19.36-.06.37-.57.36.86.36-.16.36-.08.36-.57.37.73.36-.7.36.49.36.28.37.01h.36l.36-.23.36-.02.36-.63.37.48.36.43.36-.31.36-.47.36.75.37-.75.36.68.36-.11.36.1.36.11.37-.27.36-.05.36-.44.36.36.36.18.37-.06.36-.53.36.73.36-.33.37.37.36-.14.36.15h.36l.36-.76.37.7.36-.89.36.6.36.2.36-.1.37-.63.36.88.36-.43.36-.51.36.88h.37l.36.03.36-.73.36.76.37-.89.36.65.36.1.36-.19.36.24.37-.16.36-.06.36-.57.36.88.36-.14.37.14.36-.81.36.77.36-.76.36.56.37.22.36.02.36-.01.36-.27.37.04.36-.63.36.36.36.54.36-.32.37-.47.36.76.36-.75.36.62.36-.05.37.12.36.08.36-.27.36-.04.36-.46.37.37.36.39.36-.25.36-.54.36.7.37-.32.36.38.36-.16.36.18h.37l.36-.28.36.21.36-.86.36.55.37.27.36-.13.36-.63.36.87.36-.37.37-.57.36.87h.36l.36.03.36-.72.37.76.36-.9.36.65.36.16.37-.21.36.24.36-.2.36-.08.36-.55.37.88.36-.12.36.13.36-.82.36.79.37-.8.36.58.36.21.36.03.36.01.37-.28.36.04.36-.65.36.41.36.47.37-.23.36-.52.36.75.36-.74.37.48.36.08.36.12h.36l.36-.18h.37l.36-.51.36.37.36.41.36-.3.37-.48.36.7.36-.76.36.78.36-.15.37.18.36.01.36-.26.36.19.37-.87.36.56.36.25.36-.12.36-.62.37.87.36-.38.36.38.36-.08.36.05.37-.05.36-.64.36.7.36-.9.36.66.37.17.36-.18.36.21.36-.19.37-.12.36-.48.36.84.36-.12.36.13.37-.75.36.74.36-.8.36.53.36.21.37.06h.36l.36-.26.36.02.36-.53.37.31.36.5.36-.28.36-.53.36.77.37-.74.36.47.36.31.36-.1.37.04.36-.25.36.03.36-.53.36.37.37.44.36-.3.36-.49.36.69.36-.71.37.72.36-.09.36.13.36.02.36-.25.37-.03.36-.66.36.53.36.18.37-.02.36-.61.36.84.36-.36.36.38.37-.13.36.12.36-.05.36-.67.36.7.37-.91.36.66.36.18.36-.17.36.2.37-.18.36-.16.36-.46.36.85.36-.1.37.12.36-.75.36.75.36-.82.37.57.36.14.36.14.36-.04.36-.27.37.02.36-.58.36.37.36.5.36-.3.37-.52.36.83.36-.79.36.47.36.3.37-.02.36-.01.36-.24.36-.03.37-.53.36.39.36.45.36-.31.36-.47.37.68.36-.71.36.69.36-.08.36.14.37.02.36-.23.36-.04.36-.44.36.3.37.22.36-.08.36-.53.36.79.36-.39.37.41.36-.13.36.13.36-.07.37-.71.36.73.36-.85.36.61.36.18.37-.15.36-.64.36.66.36-.16.36-.58.37.94.36-.08.36.11.36-.74.36.75.37-.82.36.59.36.12.36.13.37-.05.36-.26.36.01.36-.57.36.85.37.04.36-.29.36-.58.36.86.36-.79.37.47.36.3.36-.01h.36l.36-.24.37-.01.36-.59.36.45.36.43.37-.32.36-.48.36.76.36-.75.36.68.37-.13.36.16.36.02.36-.23.36-.02.37-.45.36.36.36.16.36-.04.36-.57.37.78.36-.39.36.42.36-.14.36.14.37-.07.36-.71.36.7.36-.83.37.6.36.17.36-.1.36-.65.36.88.37-.4.36-.54.36.89h.36l.36.04.37-.73.36.75.36-.88.36.64.36.11.37-.25.36.34.36-.25.36.01.37-.58.36.86.36-.16.36-.08.36-.57.37.82.36-.79.36.49.36.28.36.01h.37l.36-.23.36-.02.36-.63.36.48.37.44.36-.32.36-.47.36.75.36-.75.37.68.36-.11.36.09.36.12.37-.27.36-.05.36-.44.36.37.36.17.37-.06.36-.56.36.76.36-.33.36.37.37-.14.36.15h.36l.36-.76.36.7.37-.89.36.61.36.19.36-.1.37-.63.36.88.36-.43.36-.52.36.89h.37l.36.03.36-.73.36.76.36-.89.37.64.36.1.36-.18.36.25.36-.17.37-.06.36-.57.36.88.36-.14.36-.09.37-.58.36.77.36-.76.36.56.37.22.36.02h.36l.36-.28.36.04.37-.63.36.36.36.54.36-.32.36-.47.37.76.36-.74.36.66.36-.1.36.12.37.08.36-.26.36-.05.36-.46.37.37.36.39.36-.25.36-.54.36.69.37-.3.36.37.36-.16.36.18h.36l.37-.28.36.21.36-.85.36.55.36.26.37-.13.36-.63.36.87.36-.36.37-.58.36.87h.36l.36.03.36-.72.37.74.36-.87.36.64.36.16.36-.21.37.24.36-.2.36-.08.36-.56.36.89.37-.12.36.13.36-.82.36.79.36-.8.37.58.36.22.36.03h.36l.37-.28.36.04.36-.64.36.4.36.49.37-.25.36-.52.36.75.36-.74.36.47.37.09.36.12h.36l.36-.18.36.02.37-.53.36.37.36.41.36-.3.37-.48.36.7.36-.77.36.79.36-.14.37.17.36.01.36-.26.36.19.36-.87.37.53.36.28.36-.12.36-.62.36.87.37-.38.36.38.36-.07.36.04.36-.05.37-.64.36.7.36-.9.36.66.37.17.36-.19.36.21.36-.17.36-.12.37-.5.36.85.36-.12.36.13.36-.75.37.73.36-.79.36.53.36.21.36.05.37.01.36-.27.36.03.36-.65.37.43.36.5.36-.28.36-.53.36.77.37-.74.36.47.36.31.36-.1.36.04.37-.25.36.03.36-.53.36.37.36.44.37-.3.36-.47.36.68.36-.72.36.72.37-.09.36.14.36.01.36-.26.37-.02.36-.66.36.54.36.16.36-.01.37-.61.36.84.36-.36.36.38.36-.13.37.12.36-.05.36-.67.36.7.36-.9.37.65.36.18.36-.17.36.2.37-.18.36-.16.36-.46.36.85.36-.11.37.13.36-.75.36.74.36-.8.36.57.37.14.36.13.36-.05.36-.26.36.02.37-.58.36.37.36.5.36-.31.37-.51.36.77.36-.73.36.47.36.3.37-.02.36-.01.36-.24.36-.01.36-.55.37.39.36.45.36-.31.36-.47.36.68.37-.71.36.69.36-.07.36.14.36.01.37-.24.36-.03.36-.44.36.3.37.22.36-.08.36-.53.36.8.36-.39.37.4.36-.13.36.13"/><use xlink:href="#1ae26__c" color="#FFAB00" transform="matrix(3.75 0 0 3.75 67.83 65.78)"/><use xlink:href="#1ae26__c" color="#FFAB00" transform="matrix(3.75 0 0 3.75 78.65 22.51)"/></g><text stroke-linecap="round" stroke-linejoin="round" color="#000" font-family="KaTeX_Main" font-size="8" transform="translate(241.1 10.11)"><tspan>AVLRelaxedBottomUp</tspan></text><g fill="none" stroke="currentColor" stroke-linecap="round" stroke-linejoin="round" color="#000"><path stroke="#D336C8" d="M205.6 7.51h29.9M28 65.63l.36.17.36-.7.37.3.36-.86.36-.85.36 1.78.36-1.41.37-1.19.36-2.18.36-.23.36-1.77.37-2.58.36 9.59.36-.6.36.12.36.36.37-.81.36-.81.36 1.65.36-1.35.36-1.3.37-1.99.36-.59.36-1.45.36-2.42.36 9.29.37-.49.36.04.36.3.36-.85.36-.65.37-1.84.36 2.2.36-1.26.36-1.94.37-.62.36-2.41.36-1.48.36 8.89.36-.25.37-.26.36.59.36-.74.36-.67.36-1.68.37 1.62.36-.87.36-1.95.36-.54.36-2.24.37-1.56.36 8.65.36-.22.36-.31.37-1.19.36 1.09.36-.74.36-1.43.36 1.62.37-.95.36-1.86.36-.61.36-2.19.36-1.91.37 8.71.36-.23.36-.12.36-1.09.36.93.37-.68.36-1.58.36 1.77.36-1.74.37-1.01.36-.74.36-1.95.36-1.88.36 8.35.37-.13.36-.29.36-.85.36.52.36-.34.37-1.39.36 1.68.36-1.66.36-1.07.36-.74.37-2.06.36-1.72.36-2.75.36 10.74.36-.18.37-.81.36.51.36-.41.36-1.34.37 1.52.36-1.44.36-1.38.36-.55.36-1.85.37-1.75.36-2.63.36 10.37.36-.17.36-.84.37.6.36-1.14.36-.5.36 1.5.36-1.38.37-1.34.36-2.43.36-.04.36-1.83.37-2.45.36 9.74.36.22.36-.73.36.53.37-1.04.36-.95.36 1.84.36-1.41.36-1.21.37-2.26.36-.17.36-1.79.36-2.41.36 9.46.37-.62.36.14.36.4.36-.88.36-.79.37 1.7.36-1.3.36-1.23.36-2.2.37-.59.36-1.44.36-2.42.36 9.35.36-.51.37.06.36.39.36-1 .36-.63.36-1.9.37 2.3.36-1.28.36-1.97.36-.61.36-1.52.37-2.32.36 8.89.36-.28.36-.28.37.67.36-.82.36-.64.36-1.75.36 2.11.37-1.34.36-1.97.36-.53.36-2.22.36-1.54.37 8.71.36-.24.36-.23.36.53.36-.76.37-.74.36-1.46.36 1.67.36-.97.36-1.87.37-.6.36-2.13.36-2.05.36 8.85.37-.26.36-.08.36-1.13.36.95.36-.7.37-1.38.36 1.62.36-1.88.36-.96.36-.74.37-1.94.36-1.93.36 8.48.36-.18.36-.08.37-1.13.36.56.36-.31.36-1.39.37 1.69.36-1.71.36-1.04.36-.76.36-1.9.37-1.93.36-2.76.36 10.84.36-.16.36-.87.37.53.36-.4.36-1.28.36 1.63.36-1.65.37-1.4.36-.46.36-1.9.36-1.77.37-2.67.36 10.48.36-.1.36-.99.36.64.37-1.18.36-.44.36 1.46.36-1.38.36-1.38.37-.57.36-1.8.36-1.92.36-2.46.36 9.86.37.22.36-.81.36.57.36-1.08.36-.51.37 1.39.36-1.42.36-1.21.36-2.25.37-.19.36-1.78.36-2.41.36 9.62.36.15.37-.75.36.41.36-.86.36-.82.36 1.7.37-1.32.36-1.23.36-2.15.36-.7.36-1.39.37-2.46.36 9.48.36-.6.36.12.37.39.36-.81.36-.78.36-2.05.36 2.37.37-1.31.36-1.96.36-.64.36-1.47.36-2.36.37 9.18.36-.55.36-.27.36.7.36-.82.37-.63.36-1.82.36 2.17.36-1.26.36-1.92.37-.7.36-2.26.36-1.52.36 8.82.37-.3.36-.23.36.57.36-.71.36-.88.37-1.48.36 1.68.36-.88.36-1.92.36-.6.37-2.16.36-1.59.36 8.57.36-.41.36-.06.37-1.17.36 1.03.36-.76.36-1.38.37 1.62.36-.98.36-1.91.36-.72.36-1.94.37-1.91.36 8.59.36-.23.36-.07.36-1.07.37.89.36-.76.36-1.41.36 1.71.36-1.71.37-1.07.36-.73.36-1.92.36-1.86.36-2.92.37 10.99.36-.16.36-.86.36.52.37-.4.36-1.31.36 1.64.36-1.61.36-1.51.37-.41.36-1.94.36-1.73.36-2.74.36 10.61.37-.13.36-.8.36.52.36-1.3.36-.41.37 1.5.36-1.41.36-1.41.36-.54.37-1.84.36-1.74.36-2.7.36 9.96.36.24.37-.81.36.54.36-1.09.36-.5.36 1.51.37-1.37.36-1.41.36-2.28.36-.1.36-1.81.37-2.47.36 9.71.36.17.36-.7.37.3.36-.86.36-.85.36 1.79.36-1.41.37-1.2.36-2.18.36-.23.36-1.77.36-2.57.37 9.58.36-.6.36.13.36.35.36-.81.37-.8.36 1.65.36-1.35.36-1.31.36-1.98.37-.6.36-1.5.36-2.36.36 9.28.37-.49.36.05.36.3.36-.85.36-.65.37-1.84.36 2.19.36-1.26.36-1.94.36-.61.37-2.41.36-1.48.36 8.89.36-.27.36-.24.37.58.36-.74.36-.66.36-1.68.37 1.62.36-.87.36-1.96.36-.53.36-2.24.37-1.56.36 8.65.36-.23.36-.3.36-1.2.37 1.06.36-.71.36-1.42.36 1.61.36-.95.37-1.85.36-.62.36-2.18.36-1.91.36 8.7.37-.23.36-.11.36-1.09.36.93.37-.68.36-1.58.36 1.75.36-1.73.36-1 .37-.74.36-1.96.36-1.87.36 8.34.36-.13.37-.29.36-.85.36.52.36-.34.36-1.39.37 1.68.36-1.65.36-1.07.36-.86.37-1.94.36-1.72.36-2.75.36 10.73.36-.17.37-.82.36.51.36-.42.36-1.32.36 1.52.37-1.44.36-1.39.36-.54.36-1.85.36-1.75.37-2.64.36 10.37.36-.16.36-.85.37.6.36-1.13.36-.51.36 1.51.36-1.39.37-1.34.36-2.42.36-.04.36-1.84.36-2.44.37 9.74.36.21.36-.75.36.55.36-1.03.37-.95.36 1.83.36-1.4.36-1.21.36-2.26.37-.18.36-1.78.36-2.41.36 9.45.37-.62.36.14.36.41.36-.89.36-.79.37 1.7.36-1.3.36-1.23.36-2.19.36-.59.37-1.44.36-2.42.36 9.34.36-.51.36.07.37.39.36-1.01.36-.62.36-1.91.37 2.3.36-1.33.36-1.92.36-.61.36-1.51.37-2.32.36 8.89.36-.29.36-.27.36.66.37-.82.36-.64.36-1.74.36 2.1.36-1.33.37-1.98.36-.52.36-2.23.36-1.53.36 8.7.37-.24.36-.22.36.52.36-.76.37-.74.36-1.46.36 1.67.36-.97.36-1.87.37-.6.36-2.13.36-2.04.36 8.84.36-.28.37-.05.36-1.14.36.95.36-.69.36-1.38.37 1.61.36-1.88.36-.96.36-.74.37-1.93.36-1.94.36 8.48.36-.17.36-.08.37-1.13.36.55.36-.3.36-1.4.36 1.69.37-1.71.36-1.04.36-.75.36-1.9.36-1.93.37-2.77.36 10.84.36-.15.36-.88.36.54.37-.41.36-1.27.36 1.39.36-1.41.37-1.4.36-.47.36-1.9.36-1.76.36-2.67.37 10.48.36-.11.36-.98.36.64.36-1.19.37-.44.36 1.47.36-1.39.36-1.37.36-.59.37-1.78.36-1.93.36-2.46.36 9.86.37.23.36-.81.36.56.36-1.08.36-.51.37 1.4.36-1.42.36-1.22.36-2.25.36-.18.37-1.78.36-2.44.36 9.65.36.14.36-.74.37.41.36-.86.36-.83.36 1.7.37-1.32.36-1.22.36-2.15.36-.7.36-1.4.37-2.46.36 9.49.36-.61.36.11.36.41.37-.82.36-.78.36-2.04.36 2.37.36-1.31.37-1.96.36-.64.36-1.47.36-2.36.36 9.17.37-.54.36-.27.36.69.36-.81.37-.69.36-1.76.36 2.16.36-1.26.36-1.91.37-.7.36-2.26.36-1.53.36 8.82.36-.29.37-.23.36.56.36-.71.36-.87.36-1.48.37 1.68.36-.9.36-1.91.36-.59.37-2.16.36-1.6.36 8.57.36-.4.36-.06.37-1.18.36 1.03.36-.75.36-1.38.36 1.61.37-.98.36-1.9.36-.72.36-1.96.36-1.89.37 8.58.36-.22.36-.08.36-1.07.36.89.37-.75.36-1.42.36 1.71.36-1.7.37-1.07.36-.73.36-1.92.36-1.86.36-2.92.37 10.97.36-.15.36-.86.36.53.36-.4.37-1.31.36 1.63.36-1.6.36-1.52.36-.4.37-1.94.36-1.73.36-2.75.36 10.62.37-.14.36-.79.36.4.36-1.18.36-.41.37 1.5.36-1.41.36-1.41.36-.54.36-1.84.37-1.75.36-2.69.36 9.96.36.24.36-.81.37.54.36-1.09.36-.51.36 1.5.36-1.36.37-1.4.36-2.28.36-.1.36-1.81.37-2.47.36 9.71.36.16.36-.7.36.31.37-.86.36-.85.36 1.78.36-1.4.36-1.21.37-2.19.36-.21.36-1.77.36-2.57.36 9.58.37-.6.36.12.36.36.36-.82.37-.79.36 1.64.36-1.35.36-1.3.36-1.98.37-.6.36-1.5.36-2.37.36 9.28.36-.49.37.05.36.3.36-.85.36-.65.36-1.83.37 2.18.36-1.25.36-1.94.36-.61.37-2.41.36-1.48.36 8.88.36-.27.36-.29.37.63.36-.74.36-.66.36-1.67.36 1.62.37-.88.36-1.95.36-.54.36-2.24.36-1.55.37 8.64.36-.23.36-.3.36-1.19.36 1.06.37-.72.36-1.42.36 1.62.36-.95.37-1.86.36-.61.36-2.18.36-1.91.36 8.69.37-.22.36-.12.36-1.09.36.93.36-.68.37-1.57.36 1.75.36-1.76.36-.98.36-.74.37-1.95.36-1.87.36 8.33.36-.12.37-.29.36-.86.36.53.36-.34.36-1.39.37 1.67.36-1.65.36-1.07.36-.85.36-1.95.37-1.71.36-2.75.36 10.72.36-.17.36-.81.37.51.36-.42.36-1.33.36 1.52.36-1.43.37-1.39.36-.54.36-1.85.36-1.76.37-2.63.36 9.9.36.3.36-.84.36.6.37-1.14.36-.5.36 1.5.36-1.38.36-1.35.37-2.42.36-.04.36-1.83.36-2.45.36 9.74.37.21.36-.75.36.54.36-1.02.37-.94.36 1.82.36-1.4.36-1.21.36-2.25.37-.18.36-1.79.36-2.41.36 9.46.36-.62.37.14.36.4.36-.88.36-.8.36 1.68.37-1.27.36-1.23.36-2.19.36-.6.36-1.43.37-2.42.36 9.34.36-.52.36.07.37.39.36-1 .36-.62.36-1.91.36 2.3.37-1.33.36-1.93.36-.6.36-1.52.36-2.31.37 8.88.36-.28.36-.28.36.66.36-.82.37-.64.36-1.73.36 2.1.36-1.34.37-1.97.36-.53.36-2.22.36-1.59.36 8.75.37-.23.36-.23.36.52.36-.75.36-.74.37-1.46.36 1.66.36-.96.36-1.87.36-.6.37-2.13.36-2.04.36 8.83.36-.28.37-.06.36-1.13.36.96.36-.7.36-1.38.37 1.62.36-1.88.36-.96.36-.75.36-1.93.37-1.93.36 8.47.36-.17.36-.08.36-1.12.37.55.36-.34.36-1.36.36 1.69.36-1.71.37-1.04.36-.76.36-1.89.36-1.94.37-2.76.36 10.83.36-.15.36-.87.36.53.37-.4.36-1.28.36 1.4"/><use xlink:href="#1ae26__a" color="#D336C8" transform="matrix(3.75 0 0 3.75 125.4 64.38)"/><use xlink:href="#1ae26__a" color="#D336C8" transform="matrix(3.75 0 0 3.75 220.55 7.51)"/></g><text stroke-linecap="round" stroke-linejoin="round" color="#000" font-family="KaTeX_Main" font-size="8" transform="translate(241.1 25.11)"><tspan>AVLRelaxedTopDown</tspan></text><g fill="none" stroke="currentColor" stroke-linecap="round" stroke-linejoin="round" color="#000"><path stroke="#9F650D" stroke-dasharray="4.0,2.0,1.0,2.0" d="M205.6 22.51h29.9M28 65.63l.36.15.36-.86.37.43.36-.81.36-.94.36 1.87.36-1.51.37-1.55.36-1.73.36-1.66.36-1.13.37-1.83.36 9.63.36-.59.36-.09.36.46.37-.7.36-.82.36 1.63.36-1.48.36-1.72.37-1.42.36-.59.36-2.1.36-1.86.36 9.38.37-.51.36-.24.36.61.36-.92.36-.58.37-1.84.36 1.97.36-1.74.36-1.25.37-.62.36-3.15.36-.88.36 8.97.36-.17.37-.59.36.92.36-.88.36-.55.36-1.7.37 1.33.36-.54.36-2.05.36-.44.36-3.02.37-1 .36 8.73.36-.11.36-.67.37-.86.36.95.36-.63.36-1.35.36 1.63.37-.96.36-2 .36-.5.36-2.99.36-1.41.37 9.03.36-.3.36-.49.36-.63.36.67.37-.59.36-1.41.36 1.77.36-1.82.37-1.13.36-.64.36-2.75.36-1.33.36 8.68.37-.3.36-.67.36-.29.36.13.36.06.37-1.39.36 1.68.36-1.67.36-1.34.36-.46.37-3.07.36-1.12.36-2.34.36 10.52.36-.65.37-.13.36.5.36-.43.36-1.3.37 1.46.36-1.39.36-1.69.36-.23.36-2.98.37-1.1.36-2.17.36 10.08.36.14.36-.92.37.68.36-1.15.36-.49.36 1.38.36-1.28.37-1.74.36-2.06.36-1.25.36-1.18.37-1.84.36 9.74.36.22.36-.87.36.64.37-1.06.36-.95.36 1.88.36-1.48.36-1.58.37-1.81.36-1.54.36-1.15.36-1.71.36 9.49.37-.68.36-.01.36.53.36-.81.36-.78.37 1.69.36-1.46.36-1.61.36-1.65.37-2.15.36-.52.36-1.87.36 9.44.36-.51.37-.21.36.48.36-.86.36-.59.36-1.99.37 2.18.36-1.73.36-1.31.36-.62.36-2.23.37-1.78.36 9.02.36-.24.36-.58.37.98.36-.93.36-.54.36-1.75.36 1.83.37-1.05.36-2.03.36-.48.36-2.97.36-.99.37 8.81.36-.14.36-.61.36.88.36-.89.37-.64.36-1.42.36 1.69.36-.96.36-1.99.37-.5.36-2.96.36-1.5.36 9.15.37-.34.36-.43.36-.72.36.74.36-.6.37-1.25.36 1.58.36-1.89.36-1.09.36-.66.37-2.72.36-1.38.36 8.81.36-.32.36-.46.37-.61.36.22.36.02.36-1.38.37 1.68.36-1.7.36-1.29.36-.66.36-2.72.37-1.34.36-2.44.36 10.68.36-.59.36-.22.37.53.36-.42.36-1.29.36 1.62.36-1.61.37-1.77.36-.09.36-3 .36-1.11.37-2.24.36 10.22.36-.64.36-.23.36.69.37-1.27.36-.35.36 1.36.36-1.28.36-1.75.37-.23.36-2.98.36-1.27.36-1.91.36 9.87.37.22.36-.92.36.67.36-1.09.36-.53.37 1.43.36-1.48.36-1.59.36-1.81.37-1.52.36-1.12.36-1.75.36 9.61.36.12.37-.87.36.51.36-.79.36-.83.36 1.7.37-1.43.36-1.61.36-1.68.36-2.16.36-.52.37-1.93.36 9.57.36-.61.36-.1.37.49.36-.71.36-.8.36-2.05.36 2.23.37-1.74.36-1.34.36-.64.36-2.15.36-1.83.37 9.3.36-.52.36-.62.36 1.04.36-.89.37-.55.36-1.82.36 1.92.36-1.78.36-1.19.37-.66.36-3.07.36-.9.36 8.91.37-.2.36-.58.36.9.36-.87.36-.74.37-1.44.36 1.3.36-.5.36-2.02.36-.5.37-2.97.36-1.05.36 8.64.36-.26.36-.43.37-.85.36.92.36-.65.36-1.28.37 1.6.36-.99.36-2.04.36-.61.36-2.76.37-1.34.36 8.88.36-.33.36-.45.36-.6.37.6.36-.45.36-1.41.36 1.69.36-1.69.37-1.28.36-.63.36-2.74.36-1.32.36-2.57.37 10.86.36-.61.36-.24.36.51.37-.39.36-1.31.36 1.62.36-1.63.36-1.8.37-.08.36-3.01.36-1.08.36-2.32.36 10.38.37-.64.36-.09.36.55.36-1.35.36-.37.37 1.43.36-1.34.36-1.74.36-.2.37-3.03.36-1.07.36-2.18.36 9.6.36.58.37-.88.36.63.36-1.09.36-.52.36 1.36.37-1.24.36-1.77.36-1.95.36-1.32.36-1.16.37-1.83.36 9.71.36.15.36-.86.37.43.36-.81.36-.93.36 1.87.36-1.51.37-1.56.36-1.73.36-1.66.36-.98.36-1.97.37 9.63.36-.6.36-.09.36.46.36-.7.37-.82.36 1.64.36-1.49.36-1.72.36-1.41.37-.59.36-2.16.36-1.81.36 9.38.37-.51.36-.24.36.62.36-.92.36-.58.37-1.85.36 1.98.36-1.74.36-1.25.36-.63.37-3.14.36-.88.36 8.96.36-.18.36-.58.37.92.36-.88.36-.55.36-1.69.37 1.33.36-.55.36-2.03.36-.46.36-3.02.37-1 .36 8.73.36-.11.36-.67.36-.85.37.91.36-.59.36-1.34.36 1.61.36-.96.37-2 .36-.5.36-2.98.36-1.42.36 9.03.37-.3.36-.48.36-.63.36.66.37-.59.36-1.4.36 1.75.36-1.81.36-1.12.37-.65.36-2.75.36-1.32.36 8.67.36-.3.37-.66.36-.29.36.12.36.06.36-1.39.37 1.68.36-1.67.36-1.34.36-.57.37-2.95.36-1.12.36-2.34.36 10.5.36-.63.37-.13.36.49.36-.43.36-1.3.36 1.46.37-1.39.36-1.69.36-.22.36-2.99.36-1.09.37-2.19.36 10.09.36.15.36-.93.37.68.36-1.14.36-.5.36 1.38.36-1.28.37-1.73.36-2.06.36-1.25.36-1.19.36-1.83.37 9.74.36.21.36-.9.36.67.36-1 .37-1 .36 1.87.36-1.47.36-1.58.36-1.81.37-1.56.36-1.14.36-1.7.36 9.48.37-.68h.36l.36.52.36-.8.36-.8.37 1.7.36-1.45.36-1.62.36-1.64.36-2.16.37-.51.36-1.87.36 9.43.36-.51.36-.21.37.48.36-.86.36-.58.36-1.99.37 2.18.36-1.79.36-1.26.36-.62.36-2.23.37-1.78.36 9.03.36-.24.36-.59.36.97.37-.92.36-.53.36-1.76.36 1.83.36-1.04.37-2.03.36-.48.36-2.98.36-.98.36 8.8.37-.14.36-.61.36.88.36-.88.37-.65.36-1.39.36 1.67.36-.97.36-1.99.37-.49.36-2.97.36-1.5.36 9.15.36-.37.37-.4.36-.7.36.72.36-.6.36-1.24.37 1.57.36-1.88.36-1.1.36-.66.37-2.72.36-1.37.36 8.8.36-.32.36-.46.37-.6.36.2.36.03.36-1.38.36 1.68.37-1.7.36-1.28.36-.67.36-2.72.36-1.34.37-2.44.36 10.69.36-.59.36-.23.36.54.37-.42.36-1.29.36 1.38.36-1.37.37-1.78.36-.09.36-3 .36-1.11.36-2.23.37 10.21.36-.64.36-.23.36.69.36-1.27.37-.35.36 1.36.36-1.28.36-1.74.36-.24.37-2.98.36-1.26.36-1.92.36 9.87.37.22.36-.91.36.66.36-1.09.36-.52.37 1.43.36-1.48.36-1.59.36-1.82.36-1.51.37-1.13.36-1.77.36 9.63.36.13.36-.87.37.5.36-.78.36-.83.36 1.7.37-1.44.36-1.61.36-1.68.36-2.16.36-.52.37-1.92.36 9.57.36-.61.36-.12.36.5.37-.7.36-.81.36-2.04.36 2.23.36-1.74.37-1.35.36-.64.36-2.15.36-1.82.36 9.29.37-.51.36-.62.36 1.03.36-.88.37-.61.36-1.76.36 1.91.36-1.78.36-1.19.37-.65.36-3.07.36-.9.36 8.9.36-.2.37-.58.36.9.36-.87.36-.73.36-1.44.37 1.29.36-.51.36-2 .36-.5.37-2.97.36-1.06.36 8.64.36-.25.36-.44.37-.75.36.82.36-.65.36-1.27.36 1.59.37-.99.36-2.03.36-.62.36-2.78.36-1.32.37 8.89.36-.34.36-.45.36-.6.36.6.37-.44.36-1.42.36 1.69.36-1.69.37-1.28.36-.63.36-2.74.36-1.31.36-2.56.37 10.83.36-.6.36-.24.36.52.36-.39.37-1.32.36 1.62.36-1.62.36-1.81.36-.07.37-3.02.36-1.07.36-2.33.36 10.38.37-.64.36-.08.36.43.36-1.23.36-.37.37 1.42.36-1.33.36-1.74.36-.21.36-3.03.37-1.07.36-2.17.36 9.59.36.59.36-.88.37.63.36-1.09.36-.52.36 1.34.36-1.23.37-1.76.36-1.96.36-1.32.36-1.16.37-1.82.36 9.7.36.15.36-.86.36.44.37-.81.36-.94.36 1.87.36-1.5.36-1.57.37-1.75.36-1.64.36-.93.36-2.02.36 9.63.37-.59.36-.1.36.47.36-.71.37-.82.36 1.64.36-1.48.36-1.72.36-1.42.37-.58.36-2.16.36-1.82.36 9.38.36-.5.37-.26.36.63.36-.92.36-.58.36-1.84.37 1.97.36-1.74.36-1.25.36-.63.37-3.13.36-.89.36 8.97.36-.19.36-.63.37.97.36-.87.36-.55.36-1.7.36 1.33.37-.54.36-2.03.36-.47.36-3.01.36-1 .37 8.72.36-.11.36-.66.36-.86.36.92.37-.61.36-1.33.36 1.62.36-.97.37-2 .36-.5.36-2.97.36-1.43.36 9.05.37-.32.36-.48.36-.63.36.66.36-.59.37-1.39.36 1.75.36-1.84.36-1.1.36-.63.37-2.76.36-1.33.36 8.67.36-.3.37-.66.36-.29.36.12.36.07.36-1.39.37 1.67.36-1.66.36-1.34.36-.57.36-2.97.37-1.11.36-2.33.36 10.49.36-.63.36-.13.37.5.36-.44.36-1.29.36 1.46.36-1.39.37-1.69.36-.23.36-2.98.36-1.09.37-2.19.36 9.61.36.62.36-.92.36.68.37-1.15.36-.49.36 1.37.36-1.27.36-1.75.37-2.05.36-1.25.36-1.18.36-1.84.36 9.74.37.21.36-.89.36.65.36-.99.37-1 .36 1.87.36-1.47.36-1.58.36-1.8.37-1.56.36-1.14.36-1.71.36 9.48.36-.67.37-.01.36.52.36-.79.36-.8.36 1.66.37-1.42.36-1.6.36-1.65.36-2.16.36-.52.37-1.87.36 9.44.36-.52.36-.21.37.48.36-.86.36-.58.36-1.98.36 2.17.37-1.79.36-1.26.36-.61.36-2.23.36-1.79.37 9.03.36-.24.36-.58.36.97.36-.92.37-.54.36-1.75.36 1.82.36-1.04.37-2.02.36-.49.36-2.97.36-1.04.36 8.85.37-.13.36-.62.36.87.36-.87.36-.64.37-1.39.36 1.66.36-.97.36-1.98.36-.5.37-2.96.36-1.5.36 9.14.36-.36.37-.42.36-.69.36.72.36-.6.36-1.24.37 1.58.36-1.89.36-1.1.36-.63.36-2.74.37-1.38.36 8.8.36-.32.36-.46.36-.59.37.2h.36l.36-1.35.36 1.69.36-1.71.37-1.29.36-.67.36-2.72.36-1.33.37-2.45.36 10.69.36-.59.36-.23.36.54.37-.42.36-1.29.36 1.39"/><use xlink:href="#1ae26__c" color="#9F650D" transform="matrix(3.75 0 0 3.75 182.98 61.65)"/><use xlink:href="#1ae26__c" color="#9F650D" transform="matrix(3.75 0 0 3.75 220.55 22.51)"/></g><path fill="none" d="M28 45.01V162.5M371.99 45.01H28" color="#000"/></svg>