<svg xmlns="http://www.w3.org/2000/svg" xmlns:xlink="http://www.w3.org/1999/xlink" viewBox="0 0 400 200"><path fill="none" d="M0 0h400v200H0z"/><defs><use xlink:href="#4098b__a" id="4098b__b" fill="currentColor" stroke="none"/><use xlink:href="#4098b__a" id="4098b__c" stroke="currentColor" transform="rotate(180)"/><path id="4098b__a" stroke="currentColor" stroke-width=".267" d="m0-1.33-1.33 2h2.66z"/></defs><path fill="none" stroke="#CCC" stroke-linecap="round" stroke-linejoin="round" stroke-width=".1" d="M46.1 162.5V45.01" class="4098b__gridline" color="#000"/><g fill="none" stroke-linecap="round" stroke-linejoin="round" stroke-width="0" color="#000"><path d="M46.1 162.5V155m0-109.99v7.5"/><text fill="#000" font-family="KaTeX_Main" font-size="8" text-anchor="middle" transform="translate(46.1 172.6)"><tspan> 1</tspan></text></g><path fill="none" stroke="#CCC" stroke-linecap="round" stroke-linejoin="round" stroke-width=".1" d="M82.31 162.5V45.01" class="4098b__gridline" color="#000"/><g fill="none" stroke-linecap="round" stroke-linejoin="round" stroke-width="0" color="#000"><path d="M82.31 162.5V155m0-109.99v7.5"/><text fill="#000" font-family="KaTeX_Main" font-size="8" text-anchor="middle" transform="translate(82.31 172.6)"><tspan> 2</tspan></text></g><path fill="none" stroke="#CCC" stroke-linecap="round" stroke-linejoin="round" stroke-width=".1" d="M118.52 162.5V45.01" class="4098b__gridline" color="#000"/><g fill="none" stroke-linecap="round" stroke-linejoin="round" stroke-width="0" color="#000"><path d="M118.52 162.5V155m0-109.99v7.5"/><text fill="#000" font-family="KaTeX_Main" font-size="8" text-anchor="middle" transform="translate(118.52 172.6)"><tspan> 3</tspan></text></g><path fill="none" stroke="#CCC" stroke-linecap="round" stroke-linejoin="round" stroke-width=".1" d="M154.73 162.5V45.01" class="4098b__gridline" color="#000"/><g fill="none" stroke-linecap="round" stroke-linejoin="round" stroke-width="0" color="#000"><path d="M154.73 162.5V155m0-109.99v7.5"/><text fill="#000" font-family="KaTeX_Main" font-size="8" text-anchor="middle" transform="translate(154.73 172.6)"><tspan> 4</tspan></text></g><path fill="none" stroke="#CCC" stroke-linecap="round" stroke-linejoin="round" stroke-width=".1" d="M190.94 162.5V45.01" class="4098b__gridline" color="#000"/><g fill="none" stroke-linecap="round" stroke-linejoin="round" stroke-width="0" color="#000"><path d="M190.94 162.5V155m0-109.99v7.5"/><text fill="#000" font-family="KaTeX_Main" font-size="8" text-anchor="middle" transform="translate(190.94 172.6)"><tspan> 5</tspan></text></g><path fill="none" stroke="#CCC" stroke-linecap="round" stroke-linejoin="round" stroke-width=".1" d="M227.15 162.5V45.01" class="4098b__gridline" color="#000"/><g fill="none" stroke-linecap="round" stroke-linejoin="round" stroke-width="0" color="#000"><path d="M227.15 162.5V155m0-109.99v7.5"/><text fill="#000" font-family="KaTeX_Main" font-size="8" text-anchor="middle" transform="translate(227.15 172.6)"><tspan> 6</tspan></text></g><path fill="none" stroke="#CCC" stroke-linecap="round" stroke-linejoin="round" stroke-width=".1" d="M263.36 162.5V45.01" class="4098b__gridline" color="#000"/><g fill="none" stroke-linecap="round" stroke-linejoin="round" stroke-width="0" color="#000"><path d="M263.36 162.5V155m0-109.99v7.5"/><text fill="#000" font-family="KaTeX_Main" font-size="8" text-anchor="middle" transform="translate(263.36 172.6)"><tspan> 7</tspan></text></g><path fill="none" stroke="#CCC" stroke-linecap="round" stroke-linejoin="round" stroke-width=".1" d="M299.57 162.5V45.01" class="4098b__gridline" color="#000"/><g fill="none" stroke-linecap="round" stroke-linejoin="round" stroke-width="0" color="#000"><path d="M299.57 162.5V155m0-109.99v7.5"/><text fill="#000" font-family="KaTeX_Main" font-size="8" text-anchor="middle" transform="translate(299.57 172.6)"><tspan> 8</tspan></text></g><path fill="none" stroke="#CCC" stroke-linecap="round" stroke-linejoin="round" stroke-width=".1" d="M335.78 162.5V45.01" class="4098b__gridline" color="#000"/><g fill="none" stroke-linecap="round" stroke-linejoin="round" stroke-width="0" color="#000"><path d="M335.78 162.5V155m0-109.99v7.5"/><text fill="#000" font-family="KaTeX_Main" font-size="8" text-anchor="middle" transform="translate(335.78 172.6)"><tspan> 9</tspan></text></g><path fill="none" stroke="#CCC" stroke-linecap="round" stroke-linejoin="round" stroke-width=".1" d="M371.99 162.5V45.01" class="4098b__gridline" color="#000"/><g fill="none" stroke-linecap="round" stroke-linejoin="round" stroke-width="0" color="#000"><path d="M371.99 162.5V155m0-109.99v7.5"/><text fill="#000" font-family="KaTeX_Main" font-size="8" text-anchor="middle" transform="translate(371.99 172.6)"><tspan> 10</tspan></text></g><g fill="none" stroke-linecap="round" stroke-linejoin="round" stroke-width="0" color="#000"><path d="M371.99 162.5h-7.5"/><text fill="#000" font-family="KaTeX_Main" font-size="8" transform="translate(378.99 165.1)"><tspan>-1</tspan></text></g><g fill="none" stroke-linecap="round" stroke-linejoin="round" stroke-width="0" color="#000"><path d="M371.99 103.75h-7.5"/><text fill="#000" font-family="KaTeX_Main" font-size="8" transform="translate(378.99 106.35)"><tspan>0</tspan></text></g><g fill="none" stroke-linecap="round" stroke-linejoin="round" stroke-width="0" color="#000"><path d="M371.99 45.01h-7.5"/><text fill="#000" font-family="KaTeX_Main" font-size="8" transform="translate(378.99 47.61)"><tspan>1</tspan></text></g><path fill="none" d="M28 45.01V162.5M371.99 45.01H28" color="#000"/><text stroke-linecap="round" stroke-linejoin="round" stroke-width="0" color="#000" font-family="KaTeX_Main" font-size="10" text-anchor="middle" transform="rotate(-90 57.63 46.13)"><tspan>log</tspan><tspan dy="3" font-size="8">2</tspan><tspan dy="-3">(</tspan><tspan font-weight="bold">Average Path Length </tspan><tspan> / log</tspan><tspan dy="3" font-size="8">2</tspan><tspan dy="-3">(Size))</tspan></text><text stroke-linecap="round" stroke-linejoin="round" stroke-width="0" color="#000" font-family="KaTeX_Main" font-size="10" text-anchor="middle" transform="translate(199.99 195.75)"><tspan>Operations / 10</tspan><tspan dy="-5" font-size="8">6</tspan></text><text stroke-linecap="round" stroke-linejoin="round" stroke-width=".5" color="#000" font-family="KaTeX_Main" font-size="8" transform="translate(99.2 10.11)"><tspan>AVLBottomUp</tspan></text><g fill="none" stroke="currentColor" stroke-linecap="round" stroke-linejoin="round" stroke-width=".5" color="#000"><path stroke="#000" d="M63.7 7.51h29.9M28 111.44l.36-.03.36.11.37.01.36.02.36-.05.36-.06.36-.03.37-.04.36-.03.36-.03.36-.05.37.02.36.08.36-.03.36-.03.36-.03.37-.03.36-.02.36-.02.36-.03.36-.05.37-.05.36-.04.36.02.36-.04.36-.02.37-.03.36-.03.36-.04.36-.02.36-.03.37.02.36-.04.36-.03.36-.03.37-.03.36-.04.36-.03.36.09.36-.02.37.05.36.19.36-.02h.36l.36.02.37-.02.36-.02.36-.02.36-.02.36-.02.37.11.36-.01.36.01.36-.02.37-.01.36-.02H49l.36-.02.37.01.36-.02.36-.02.36-.01h.36l.37-.03.36-.02.36-.03.36-.02.36.02.37.25.36-.03.36-.02h.36l.37-.03.36.01.36-.01.36-.02.36-.03.37-.03.36-.01.36-.02.36-.01.36-.02.37-.03.36-.01.36-.02.36.02.36-.01.37-.03.36.04.36-.03.36-.02.36-.03.37.04.36-.01.36.02.36-.02.37-.02.36-.02.36-.01.36-.02.36-.02.37.41.36.02.36.01.36-.01.36.02.37.05h.36l.36-.01.36-.01.36-.01h.37l.36-.01.36-.01.36-.01.37-.03.36-.02.36-.01.36-.03.36-.02.37.02.36.02.36-.03.36-.02h.36l.37-.03.36.03.36.01.36-.02.36-.02.37-.02.36-.03.36.04.36-.01.36-.02h.37l.36-.03.36.01.36-.01.37-.01.36.05.36-.02.36-.02.36-.02.37-.02.36-.01.36-.02.36.02.36-.02.37-.01.36-.02.36-.02.36-.02.36.19.37-.02.36-.02.36-.01.36.09.37-.01.36-.02.36-.01.36-.02.36-.02.37-.01.36-.03.36-.02.36.31.36-.02.37-.01h.36l.36-.02.36-.01.36-.02.37.01.36-.02.36-.01.36.01.36-.02.37-.01.36-.03.36-.03.36.01.37.01.36-.02.36-.02.36-.01.36-.03.37-.02.36-.03.36-.02.36-.03.36-.01.37-.01.36.03.36-.02.36-.02.36-.03.37-.03.36-.01.36.01.36.04.37.08.36-.01h.36l.36-.02.36.09.37.19.36-.01.36.02h1.45l.36.01.36-.02.36-.01.37.01.36-.01.36-.02.36-.01.37-.02h.36l.36.12.36-.02.36-.01.37.01.36-.02h.36l.36-.03.36-.01.37-.01.36-.02.36-.03.36-.01.36-.01h.37l.36-.03.36-.01.36-.01.36-.01.37-.03.36.01.36-.01.36-.01.37-.02.36.04h.36l.36.01.36-.01.37-.03h.36l.36-.02.36.01.36-.02.37-.02.36.13.36-.02h.36l.36.19h.37l.36-.01.36.04h1.09l.36-.02h.36l.36-.02.37.03h.36l.36-.01.36-.01h.36l.37-.03.36-.02.36-.02.36-.02.36-.01h.37l.36-.02.36.06h.36l.36-.03h.37l.36-.02.36-.02.36-.03.37.02.36-.01h.36l.36-.02.36-.02.37-.03.36-.03.36-.01.36-.03.36-.02h.37l.36.07.36-.03.36-.02.36-.01.37.02.36-.02.36.02.36-.02.37.1h.36l.36-.02.36-.01.36-.02.37.19.36-.01.36-.01h.36l.36-.02.37.04h.36l.36-.01.36-.01.36.09.37-.02.36-.01h.36l.36-.02.36-.02.37-.03.36.1.36-.03.36-.01.37.01.36-.02.36-.02.36-.01.36-.01.37-.01.36-.01.36-.02.36-.03.36-.01h.37l.36-.02.36-.02.36-.03.36-.03.37.02h.72l.36-.02.37.01.36.05.36-.02.36-.02.36-.03.37-.02.36-.02.36.01.36.01.36-.02.37-.02.36.01.36.04.36-.01.36.19h.37l.36-.02h.36l.36-.02h.37l.36-.01.36-.02.36-.02.36-.02.37.02.36-.04.36-.01.36-.03.36-.03.37-.03.36-.02.36.21.36-.01.36.01.37.03.36-.02.36.03h.36l.36-.02h.37l.36-.02.36-.03.36-.02.37-.02.36-.01.36-.02.36.04.36-.01.37-.02h.36l.36-.01.36-.03.36-.02.37.04.36-.01.36.04.36-.01.36-.02.37-.02.36-.01.36.01h.36l.37-.03h.36l.36-.02.36.08.36.03.37.19.36-.01.36-.03.36-.01.36.02.37-.02.36-.02.36-.01.36-.03.36.01.37-.01h.36l.36-.01.36-.02.36-.01.37-.02.36-.01.36-.03.36-.01.37.01.36-.02.36-.03.36-.01.36.08.37.02.36-.02.36-.02.36-.03.36-.02.37-.03.36-.03.36-.02.36-.03.36-.03.37-.04.36-.01.36.05.36-.01.37-.01.36.04.36.24.36-.01.36-.01.37-.02.36-.01.36.02.36-.02.36-.03.37-.02.36-.01.36-.01.36-.02.36.18.37-.02.36-.02.36-.01h.36l.37-.02.36.04.36.01.36.03.36-.01.37.01.36-.01.36-.02.36-.01.36-.01.37-.02.36-.02.36.03.36-.01.36-.01.37.05.36-.01.36-.02h.36l.36-.01h.37l.36-.02h.36l.36-.01.37-.02.36-.02.36-.01.36-.01.36-.03.37.03.36-.03.36-.01.36.03.36-.02.37.06.36-.02.36-.02.36.03h.36l.37-.01.36-.01.36.02.36-.02.37-.02.36.03.36-.01.36-.02.36.19.37.02.36-.01.36-.03.36-.02h.36l.37.02h.36l.36-.01h.36l.36.01.37-.02h.36l.36-.01.36-.01.36-.02h.37l.36-.01.36-.01.36-.01.37.12.36-.01.36-.01h.36l.36-.02h.37l.36-.02.36-.02.36-.03h.36l.37-.02.36.13.36-.02.36-.01.36-.02.37-.03h.36l.36-.02.36-.01.37-.02.36.03h.36l.36-.02.36-.01.37-.02.36-.01.36.01.36-.02.36-.03.37-.03.36.01.36-.01h.36l.36.18.37-.02.36.02h.36l.36-.01h1.09l.36-.02h.36l.37-.01.36-.01h.36l.36-.02.36-.01.37-.02.36-.02.36-.03.36-.01h.36l.37-.02.36.02.36-.02.36.08.36-.02.37-.03.36.23.36.01.36-.02.37-.02.36-.01.36-.01.36-.01.36-.02.37-.02.36-.02.36-.01h.36l.36-.02.37.04.36-.06.36-.02.36-.02.36-.03.37-.03.36-.02.36.04.36-.02.37-.03.36.01.36-.02.36.05.36.22.37.01.36-.01.36-.01.36-.01.36-.01.37-.01.36.01.36-.02.36-.01.36.01.37-.03.36.02.36.01.36-.02.36-.01.37-.01.36-.03.36.01.36-.02.37.03.36-.01.36-.01.36-.01.36-.01.37.09h.36l.36-.02.36-.02.36.15.37-.02.36-.02.36-.02.36-.03.36-.02.37-.03h.36l.36-.02.36-.02.37-.02.36.07h.72l.36-.02.37-.02.36-.02.36.02.36-.03.36-.02.37-.01.36-.03.36.05.36-.01.36.28h.37l.36-.01.36-.01h.36l.36.01.37-.01h.36l.36-.02h.36l.37.03.36-.01.36-.02.36-.01.36-.02.37-.02.36-.01.36-.02.36-.01.36.02.37-.03.36-.02.36-.03.36-.01.36-.02.37-.02h.36l.36-.02.36.01.37-.02.36.04.36-.02.36-.02.36-.01.37-.03.36-.02.36.12h.36l.36-.02.37.04.36.03.36-.03.36-.02.36-.01h.37l.36-.02.36.01.36-.02.36-.02h.37l.36.02.36-.01.36.18.37-.01.36-.02.36.01.36-.01.36-.01h.37l.36-.01.36-.02.36-.02.36.02.37-.01.36-.01.36-.01.36.01.36-.03.37.01h1.08l.37.06.36-.02.36-.01.36.01.36-.03.37-.01h.36l.36-.03.36-.02.36-.01.37-.02.36-.02.36-.02h.36l.36-.01.37-.02.36-.01.36-.03.36-.01.37.05.36.1.36-.03.36-.02.36-.02.37.08.36-.03.36.03.36-.03.36.02.37.01.36-.03.36.01.36-.02.36.18.37.02.36-.03h1.08l.37-.02.36.02.36-.01h.36l.37-.03.36.03.36-.02.36-.01.36-.02.37-.01.36-.03h.36l.36-.02.36.02.37-.02.36-.02h.36l.36-.03.36-.02.37-.02.36-.02.36-.02.36.18h.37l.36-.01.36-.01.36-.01.36-.03.37-.02.36-.03.36-.01.36.07.36-.02.37.04.36-.03.36-.03.36-.02.36.1.37-.01.36.01.36-.02.36.05.36-.02.37.01.36-.01h.36l.36.19.37-.01.36-.01h.36l.36-.02h.36l.37.02.36-.02.36-.02.36-.02h.36l.37-.02.36-.02.36-.02.36-.03h.36l.37-.02.36-.03.36-.03.36-.02h.37l.36-.02.36-.01.36-.02.36-.02.37.04.36.02.36-.03.36-.02.36-.02.37-.03.36-.02.36-.02.36-.01.36.02.37-.03.36-.01.36-.04h.36l.36.16.37.11.36-.01.36-.01.36-.03.37-.01.36.01.36.01.36-.02.36-.02.37.05.36-.01.36-.01.36.19h.36l.37-.02.36.01h.72l.36-.01.37-.01.36-.01.36-.01.36.01.37-.01.36-.01.36.01.36-.02.36-.02.37-.02.36.02.36-.02.36-.02.36.02.37-.02.36-.03h.36l.36-.01.36-.01h.73l.36.06.36-.01.37-.01.36-.02h.36l.36-.01.36-.02.37-.03.36.08.36-.02.36-.02.36-.01.37.03.36-.02.36-.01.36-.03.36-.03.37-.01.36.01.36-.02.36-.01.36-.03.37.05.36.05.36-.02.36.19.37-.01.36-.01h.36l.36-.01.36-.01.37-.01.36-.01.36-.02"/><use xlink:href="#4098b__b" transform="matrix(3.75 0 0 3.75 354.25 111)"/><use xlink:href="#4098b__b" transform="matrix(3.75 0 0 3.75 78.65 7.51)"/></g><text stroke-linecap="round" stroke-linejoin="round" color="#000" font-family="KaTeX_Main" font-size="8" transform="translate(99.2 25.11)"><tspan>AVLWeakTopDown</tspan></text><g fill="none" stroke="currentColor" stroke-linecap="round" stroke-linejoin="round" color="#000"><path stroke="#FFAB00" stroke-dasharray="4.5,2.0,0.5,2.0,0.5,2.0" d="M63.7 22.51h29.9M28 112.14l.36-.35.36.08.37-.01.36.14.36.05.36-.08.36.11.37-.79.36.41.36-.56.36.66.37.27.36.04.36-.52.36.33.36-.27.37-.27.36.3.36.52.36-.6.36.39.37-.11.36-.14.36.1.36.15.36-.03.37.08.36-.47.36.35.36.05.36-.29.37.17.36-.13.36.02.36.29.37.16.36-.77.36.46.36.1.36-.06.37-.56.36.49.36.18.36-.79.36.58.37-.34.36.02.36.41.36.29.36-.32.37.04.36-.23.36-.27.36.41.37.16.36.05.36-.27.36.13.36-.07.37.15.36-.11.36-.27.36.17.36.27.37-.49.36.23.36-.46.36-.04.36.4.37.06.36.19.36-.06.36.14.37-.35.36.09.36.16.36-.06.36.24.37.19.36-.53.36.25.36-.19.36-.32.37-.04.36.41.36-.02.36-.32.36.19.37-.31.36.54.36-.27.36.02.36-.45.37.56.36.05.36.11.36.15.37-.08.36.05.36-.43.36.07.36.25.37-.21.36.22.36.16.36-.54.36.02.37-.11.36.23.36.42.36-.51.36.15.37.29.36.1.36-.18.36-.08.37-.26.36-.23.36-.12.36.59.36-.17.37.26.36-.36.36.15.36-.02.36.25.37-.14.36.13.36-.39.36.26.36-.19.37-.24.36.64.36-.21.36-.17.36.06.37-.12.36.13.36-.07.36.02.37-.07.36.12.36.21.36-.4.36.17.37.11.36-.14.36.15.36.19.36-.43.37-.04.36-.01.36.44.36.08.36-.46.37.03.36.16.36.12.36-.46.37.38.36-.46.36.49.36.37.36-1.03.37.59.36.41.36-.37.36-.05.36.35.37.16.36-.06.36-.86.36.47.36.2.37-.37.36-.66.36.72.36-.44.36.31.37-.12.36.39.36-.38.36.05.37.48.36-.4.36.04.36.18.36-.26.37.27.36.32.36-.43.36.16.36.04.37.12.36-.28.36.6.36-.47.36-.07.37-.28.36.19.36.06.36.05.37-.08.36-.05.36-.05.36.06.36.09.37-.64.36.49.36.29.36.13.36-.52.37.22.36-.56.36.12.36.04.36.08.37.03.36.4.36-.3.36.03.37.09.36-.19.36.43.36-.15.36-.06.37-.22.36.43.36.04.36-.59.36.2.37-.1.36.18.36.02.36.17.36.31.37-.18.36-.33.36-.01.36.02.36.35.37-.23.36-.49.36.46.36-.21.37-.19.36.38.36-.23.36.49.36-1.22.37.72.36.52.36-.78.36.64.36-.18.37-.34.36.28.36-.24.36.34.36.26.37-.89.36.51.36-.68.36.26.37.49.36-.15.36.44.36.15.36-.19.37-.12.36-.2.36-.23.36.42.36.01.37-.21.36.49.36-.09.36-.17.36.14.37-.26.36.46.36-.17.36-.9.36.41.37.34.36.13.36.29.36-.93.37.36.36-.49.36.5.36.27.36-.18.37-.51.36.44.36.29.36-.46.36.41.37-.32.36.23.36.13.36-.34.36-.04.37-.06.36.21.36.33.36-.34.37-.13.36-.01.36.34.36-.12.36-.04.37-.3.36.38.36-.08.36-.4.36.26.37.3.36-.5.36.56.36-.27.36-.45.37.41.36.07.36-.11.36.22.36-.23.37-.15.36-.25.36.51.36-.02.37-.38.36.15.36.35.36.23.36-.22.37.08.36-.18.36-.3.36.32.36.24.37-.54.36-.08.36.01.36.56.36-.24.37.22.36.01.36-.68.36.15.37.48h.36l.36-.3.36.26.36.05.37-.09.36-.01.36-.21.36.2h.36l.37.24.36-.56.36.48.36.02.36-.28.37-.1.36.01.36.19.36-.24.37-.26.36.05.36-.14.36.45.36.09.37.14.36-.31.36-.03.36-.07.36.17.37.42.36-.53.36-.01.36-.21.36.48.37-.46.36-.02.36.49.36-.25.36-.38.37.42.36.09.36-.15.36.26.37.15.36.12.36-.4.36-.05.36.08.37.11.36.04.36-.27.36.36.36.06.37-.58.36.57h.36l.36-.75.36.51.37.3.36-.54.36.12.36.39.37-.89.36.62.36-.04.36-.27.36.19.37-.15.36.25.36-.12.36.06.36-.35.37.03h.36l.36.26.36.18.36.07.37.17.36-.22.36-.62.36.67.36-.24.37.14.36.01.36.17.36-.08.37-.27.36-.07.36.43.36.23.36-.82.37.06.36.13.36.08.36-.31.36.27.37.14.36.18.36-.55.36.45.36-.01.37-.54.36.52.36-.07.36-.79.37.62.36.21.36-.18.36-.27.36.28.37-.06.36.24.36-.29.36.19.36.36.37-.41.36-.33.36.32.36.01.36.11.37-.12.36.32.36.07.36-.24.37-.19.36-.26.36.13.36.22.36.49.37-.6.36-.12.36.15.36-.05.36-.42.37.42.36.33.36-.29.36.08.36-.59.37.61.36-.06.36.03.36-.05.36-.15.37.17.36.48.36-.87.36.39.37.01.36-.39.36.36.36.38.36-.19.37.01.36.05.36-.22.36-.19.36.3.37-.14.36-.06.36.18.36-.17.36.08.37.31.36-.48.36.14.36.35.37.01.36.24.36-.99.36.38.36-.08.37.14.36.27.36.18.36-.87.36.58.37-.45.36.51.36-.58.36.39.36-.17.37.36.36.05.36.06.36-.74.36.19.37.11.36.4.36-.05.36-.22.37-.04.36.15.36-.14.36-.36.36.42.37-.08.36.18.36-.08.36-.25.36.29.37-.15.36-.31.36.35.36-.07.36-.28.37.19.36.37.36-.48.36.37.37.16.36-.53.36.24.36.18.36-.49.37.32.36.25.36-.33.36.22.36-.22.37-.01.36.16.36.31.36-.47.36-.48.37.71.36-.49.36.11.36.71.36-.22.37.12.36-.23.36-.12.36.17.37.18.36-.17.36-.34.36.38.36.08.37-.11.36-.05.36.31.36-.29.36-.36.37.41.36.19.36-.3.36-.12.36-.73.37.31.36.32.36.23.36.14.37-.52.36.18.36.02.36.12.36-.31.37.56.36-.1.36-.07.36-.1.36-.29.37.43.36.11.36-.15.36.18.36-.13.37-.39.36.07.36-.03.36.32.37-.5.36.42.36.01.36-.21.36.33.37-.76.36.7.36-.01.36.28.36-.74.37.54.36-.12.36-.33.36.34.36.08.37-.1.36-.26.36.36.36.34.36-.92.37.07.36.14.36-.13.36.11.37.54.36-.36.36-.14.36.07.36-.29.37.32.36.24.36.17.36-.8.36.43.37.12.36-.07.36-.07.36-.13.36.26.37.18.36-.68.36.3.36.32.37-.2.36-.34.36.23.36-.08.36.05.37.49.36-.53.36-.32.36-.08.36.62.37-.19.36-.32.36.17.36.3.36.13.37-.35.36.44.36-.42.36.56.36.11.37-.21.36-.03.36-.29.36.43.37.09.36-.52.36-.29.36.08.36.12.37-.21.36-.2.36.53.36.12.36.22.37-.37.36.26.36.17.36-.18.36.02.37.04.36.17.36-.52.36.21.37-.45.36.16.36.35.36-.63.36.51.37.27.36.08.36-.44.36.42.36.06.37-.76.36.67.36-.04.36.05.36-.27.37-.15.36-.11.36.25.36-.3.36-.06.37.42.36-.03.36-.1.36.03.37.47.36-.43.36.33.36-.34.36-.44.37.27.36-.28.36.27.36.38.36.13.37-.17.36-.38.36.48.36.02.36-.05.37-.18.36-.08.36-.1.36.06.37.31.36-.19.36.01.36-.47.36.45.37-.13.36-.21.36.57.36-.53.36-.27.37.36.36.34.36-.25.36.16.36-.05.37-.47.36-.49.36.64.36.11.37.39.36-.23.36-.24.36.36.36.04.37.23.36-.39.36.08.36-.68.36.38.37.4.36.22.36-.25.36-.33.36.41.37-.17.36.37.36-.59.36.28.36-.18.37-.13.36.03.36.17.36-.35.37-.13.36.63.36-.31.36.44.36-.36.37.28.36-.53.36.12.36.39.36-.29.37.4.36-.19.36-.09.36-.18.36-.52.37.35.36.51.36-.56.36.31.37-.19.36-.3.36.26.36.51.36-.41.37-.02.36.42.36-.17.36-.01.36-.7.37.82.36.36.36.05.36-.99.36.27.37.32.36-.11.36-.5.36.06.36.7.37-.63.36.37.36-.16.36.22.37-.38.36.41.36.13.36-.28.36.01.37-.04.36.38.36.26.36-.48.36-.2.37.12.36-.56.36.55.36-.69.36.7.37.26.36-.2.36-.13.36-.11.37.33.36-.4.36.21.36.1.36-.44.37.07.36.04.36.33.36-.09.36.21.37-.57.36.31.36.17.36.28.36-.35.37-.08.36-.55.36.15.36.33.36.37.37-.23.36.07.36.14.36.08.37-.12.36-.02.36-.08.36-.43.36.37.37.12.36-.06.36-.32.36.41.36.28.37-.35.36-.74.36.64.36.21.36-.08.37-.45.36.45.36-.22.36-.11.37-.42.36.59.36.03.36-.08.36.24.37-.2.36-.46.36.08.36.01.36.43.37-.11.36-.41.36.16.36.06.36-.12.37.43.36.12.36-.61.36.2.37.27.36-.19.36.04.36-.03.36.04.37.25.36-.47.36.23.36-.5.36.35.37.27.36-.02.36-.1.36-.37.36.07.37.33.36.12.36-.15.36.29.36-.1.37.16.36-.19.36.15.36-.85.37.53.36.1.36-.4.36.36.36.15.37.15.36-.29.36-.18"/><use xlink:href="#4098b__c" color="#FFAB00" transform="matrix(3.75 0 0 3.75 67.83 112.16)"/><use xlink:href="#4098b__c" color="#FFAB00" transform="matrix(3.75 0 0 3.75 78.65 22.51)"/></g><text stroke-linecap="round" stroke-linejoin="round" color="#000" font-family="KaTeX_Main" font-size="8" transform="translate(241.1 10.11)"><tspan>AVLRelaxedBottomUp</tspan></text><g fill="none" stroke="currentColor" stroke-linecap="round" stroke-linejoin="round" color="#000"><path stroke="#D336C8" d="M205.6 7.51h29.9M28 110.24l.36-.02.36-.28.37.25.36-.24.36.18.36.02.36-.29.37.35.36-.16.36-.22.36-.22.37-.48.36.67.36-.2.36-.31.36.29.37-.44.36-.3.36 1.03.36-.32.36-.04.37.42.36-.35.36.06.36-.5.36.82.37-.07.36.14.36.21.36-.24.36-.18.37-.38.36.02.36-.07.36-.5.37-.23.36-.39.36-.39.36 1.56.36-.28.37.09.36-.14h.36l.36-.09.36-.36h.37l.36-.08.36.27.36-.31.36-.47.37-.45.36.71.36.82.36-.18.37-.35.36.02.36.08.36-.11h.36l.37.2.36-.35.36-.02.36-.26.36.45.37.55.36-.2.36-.35.36-.33.36-.17.37 1 .36-.18.36-.13.36.52.37-.33.36-.34.36-.05.36-.19.36.96.37-.16.36-.1.36-.2.36.5.36-.06.37-.34.36-.14.36-.32.36.14.36-.11.37-.05.36-.34.36-.48.36 1.38.36-.17.37-.36.36-.14.36-.04.36-.16.37.52h.36l.36-.35.36-.35.36.1.37.16.36-.42.36.73.36.04.36-.04.37-.09.36-.33.36-.36.36.64.36-.47.37-.42.36.49.36-.2.36-.38.37-.54.36 2.09.36-.15.36-.32.36-.09.37.29.36-.06.36-.11.36-.39.36.16.37-.17.36.27.36-.39.36-.46.36.59.37-.14.36-.13.36-.22.36-.27.36.38.37-.11.36-.01.36-.36.36.38.37-.33.36-.2.36-.42.36.93.36.12.37.25.36-.12.36-.24.36-.19.36.36.37.33.36-.28.36-.29.36-.19.36-.13.37-.22.36.58.36.82.36-.25.37-.24.36.03.36-.33.36-.21.36.47.37-.33.36-.33.36.47.36-.09.36-.32.37.68.36.05.36-.23.36.24.36-.24.37-.31.36.23.36-.08.36-.22.36.04.37-.15.36-.32.36.31.36.57.37.12.36-.19.36.15.36.03.36-.23.37-.31.36-.02.36-.04.36-.31.36-.18.37.67.36-.37.36.5.36.26.36-.21.37-.36.36-.14.36.69.36-.35.37.35.36-.5.36.19.36.03.36-.33.37-.34.36-.38.36 1.09.36-.3.36.08.37-.1.36.74.36-.3h.36l.36-.3.37-.17.36-.29.36-.17.36-.2.37-.46.36.79.36.93.36-.22.36-.14.37-.15.36.11.36-.04.36-.27.36-.32.37.76.36-.41.36-.09.36-.39.36.68.37-.18.36-.11.36-.26.36.05.36.94.37-.19.36-.26.36-.07.36-.27.37-.26.36-.41.36.17.36.67.36.81.37-.25.36-.29.36-.24.36.14.36-.07.37.11.36-.34.36.05.36-.19.36-.36.37-.25.36 1.63.36-.3.36-.21.37.04.36-.32.36-.28.36.33.36.4.37-.27.36-.37.36-.14.36-.29.36-.22.37.63.36.12.36-.23.36.25.36.53.37-.17.36-.37.36-.11.36.06.36-.17.37-.31.36-.17.36-.05.36 1.37.37-.28.36-.04.36-.26.36-.33.36-.36.37-.16.36.81.36.06.36-.46.36-.28.37-.56.36-.13.36.47.36.15.36-.31.37-.37.36.79.36-.31.36-.12.37.83.36-.34.36-.51.36.09.36-.21.37-.42.36 1.02.36-.12.36.15.36-.26.37.19.36.09.36-.25.36.01.36-.3.37.4.36-.21.36-.27.36-.19.36-.49.37 1.18.36.25.36-.22.36.59.37-.27.36-.32.36.3.36-.28.36-.35.37-.21.36-.11.36-.34.36-.57.36.8.37 1.44.36-.29.36-.11.36-.37.36-.21.37.4.36-.1.36-.25.36-.23.37-.08.36-.39.36-.43.36.77.36-.24.37.83.36.26.36-.2.36-.03.36.22.37-.22.36-.11.36-.29.36-.14.36-.45.37.37.36.5.36-.23.36-.25.37-.42.36.77.36.16.36.22.36-.3.37-.22.36.26.36-.32.36.12.36-.44.37.98.36-.17.36-.13.36.04.36-.27.37-.01.36.05.36.42.36-.31.36-.39.37-.21.36-.39.36-.44.36 1.67.37-.09.36-.1.36-.14.36-.32.36.77.37-.46.36.13.36-.18.36-.43.36.09.37-.03.36-.37.36.7.36.11.36.62.37-.18.36-.22h.36l.36-.37.37.39.36-.34.36-.07.36-.15.36-.3.37-.41.36.64.36.38.36.14.36.13.37-.1.36-.26.36-.37.36.48.36-.39.37.1.36-.24.36.29.36-.37.36.45.37-.3.36-.31.36.91.36-.03.37.05.36-.18.36.04.36-.04.36-.33.37-.26.36.32.36-.36.36.49.36.2.37.13.36-.17.36.22.36-.18.36-.28.37-.06.36.63.36-.4.36.2.37-.39.36-.05.36-.46.36 1.13.36.02.37-.22.36.03.36-.12.36-.2.36-.1.37-.09.36-.41.36-.08.36.21.36.46.37-.43.36.67.36-.32.36.21.37-.1.36-.37.36.1.36.38.36-.28.37.32.36-.38.36-.22.36-.2.36-.13.37.87.36-.14.36-.22.36.16.36-.31.37.12.36.02.36-.14.36-.34.36.32.37-.05.36-.49.36.17.36.89.37.05.36-.13.36.02.36-.33.36-.28.37-.02.36-.3.36.6.36.45.36-.21.37-.4.36-.14.36.81.36-.24.36-.02.37-.25.36.07.36.45.36-.06.37.04.36-.19.36-.08.36-.17.36-.2.37-.41.36.93.36-.29.36-.09.36-.16.37.43.36-.26.36-.49.36.2.36.68.37-.28.36-.11.36-.34.36-.41.36.99.37-.05.36.5.36-.03.36-.35.37.16.36-.22.36.01.36-.32.36-.16.37-.35.36-.45.36-.53.36 1.53.36.47.37.05.36-.27.36-.16.36.38.36-.28h.37l.36-.22.36-.13.36-.2.37-.42.36-.45.36 1.49.36.49.36-.23.37-.37.36.11.36-.2.36-.37.36-.06.37.1.36.2.36-.21.36.42.36-.37.37-.56.36 1.1.36-.16.36-.28.36.56.37-.25.36-.18.36-.08.36-.29.37.73.36-.15.36-.35.36-.3.36-.18.37.79.36.14.36-.06.36-.03.36.46.37-.23.36.21.36-.39.36-.06.36-.27.37.13.36-.34.36-.32.36.67.37.11.36-.02.36.62.36-.2.36-.25.37-.13.36-.22.36-.24.36-.16.36-.2.37-.29.36.82.36.76.36-.05.36-.2.37-.14.36-.11.36-.31.36-.18.37-.35.36-.39.36.64.36-.2.36.22.37-.35.36.7.36.12.36-.13.36.18.37.21.36-.3.36-.42.36.2.36.09.37-.29.36.45.36-.08.36-.36.36.72.37-.01.36.01.36-.04.36-.23.37.23.36-.35.36-.01.36-.15.36-.13.37.41.36-.23.36-.4.36.95.36-.14.37-.26.36.05.36-.27.36-.3.36.02.37.11.36-.04.36-.36.36.08.37-.45.36-.26.36.52.36-.19.36-.28.37.61.36.58.36-.13.36-.37.36.2.37.08.36-.31.36-.31.36-.03.36-.14.37.75.36-.16.36-.03.36-.19.36.09.37-.3.36.64.36-.07.36-.35.37.04.36-.3.36-.07.36-.39.36-.16.37 1.05.36.13.36-.22.36.04.36-.25.37-.01.36.71.36-.39.36-.29.36.39.37-.4.36-.17.36-.47.36.87.37-.26.36-.23.36.57.36-.05.36.27.37.18.36-.29.36-.15.36-.09.36-.45.37-.2.36-.35.36 1.14.36-.09.36-.33.37.91.36-.37.36-.25.36.39.36.01.37-.18.36-.37.36-.3.36-.19.37-.32.36.8.36-.22.36.14.36.3.37-.04.36-.23.36.09.36-.13.36.51.37-.2.36-.23.36-.46.36-.23.36.73.37-.21.36.21.36-.19.36-.37.37-.38.36.89.36.73.36-.33.36-.34.37-.36.36-.01.36-.17.36.88.36-.28.37-.19.36.19.36.18.36-.17.36-.2.37.05.36.48.36-.31.36.11.37-.32.36-.33.36.89.36-.15.36-.11.37.11.36-.12.36-.17.36.25.36.32.37-.29.36-.33.36-.21.36-.12.36-.15.37.61.36-.25.36.75.36-.38.36-.27.37-.21.36-.34.36.28.36-.25.37.63.36-.1.36-.3.36-.38.36.44.37.46.36-.42.36.61.36-.09.36-.16.37.16.36.03.36-.16.36-.16.36-.24.37-.02.36-.35.36.61.36.08.37.58.36-.28.36-.14.36.11.36-.32.37.19.36.03.36-.25.36-.12.36-.36.37.27.36-.36.36.72.36.35.36-.23.37.19.36-.23.36-.26.36.28.36-.3.37-.25.36.49.36-.51.36.07.37-.29.36.74.36-.18.36-.04.36.01.37.17.36-.24.36.4.36-.3.36-.29.37-.36.36.81.36-.37.36-.29.36 1.04.37-.1.36-.27.36.33.36-.25.37-.14.36.26.36-.31.36-.09.36.46.37-.09.36-.41.36-.24.36.61.36.15.37-.18.36.14.36-.18.36-.24.36-.15.37.2.36.45.36-.45.36-.38.36.13.37-.35.36.7.36-.24.36.17.37.03.36-.11.36.74.36-.38.36-.01.37-.24.36-.46.36-.16.36-.42.36.5.37.73.36-.28.36.26.36-.11.36-.28.37.11.36.32.36-.05.36-.36.37-.12.36-.15.36-.38.36.29.36.71.37.02.36-.15.36.61.36-.15.36-.32.37-.04.36-.07.36-.09.36-.31.36.5.37-.4.36-.53.36.74.36-.3.37-.12.36-.4.36 1.17.36-.31.36-.29.37-.03h.36l.36.48h.36l.36-.4.37-.03.36.66.36-.23.36-.15.36-.08.37.24.36-.24.36-.25.36.63.36.08.37-.23.36-.3.36-.17.36-.23.37-.19.36 1.01.36-.05.36-.29.36-.02.37.48.36-.17.36-.14"/><use xlink:href="#4098b__a" color="#D336C8" transform="matrix(3.75 0 0 3.75 125.4 107.79)"/><use xlink:href="#4098b__a" color="#D336C8" transform="matrix(3.75 0 0 3.75 220.55 7.51)"/></g><text stroke-linecap="round" stroke-linejoin="round" color="#000" font-family="KaTeX_Main" font-size="8" transform="translate(241.1 25.11)"><tspan>AVLRelaxedTopDown</tspan></text><g fill="none" stroke="currentColor" stroke-linecap="round" stroke-linejoin="round" color="#000"><path stroke="#9F650D" stroke-dasharray="4.0,2.0,1.0,2.0" d="M205.6 22.51h29.9M28 109.66l.36-.15.36-.53.37.44.36.69.36-.34.36-.04.36-.28.37-.29.36-.47.36-.47.36-.22.37-.24.36 2.38.36-.22.36-.25.36-.08.37-.45.36 1.3.36-.13.36-.22.36-.32.37-.55.36-.38.36-.57.36-.44.36 2.27.37-.31.36-.19.36-.14.36-.25.36-.34.37-.49.36-.3.36.66.36-.02.37-.32.36.43.36.38.36.87.36-.01.37-.31.36-.25.36-.46.36-.51.36.78.37.06.36-.29.36-.39.36-.38.36-.46.37-.45.36 2.3.36-.24.36-.26.37-.48.36.37.36-.18.36-.08.36.26.37-.25.36-.38.36-.15.36-.58.36-.34.37.67.36.83.36-.2.36-.38.36-.19.37-.4.36.86.36-.08.36-.55.37.46.36-.33.36-.34.36.64.36.52.37.19.36-.1.36-.29.36.24.36-.14.37-.3.36-.13.36-.49.36.55.36-.11.37-.48.36-.35.36 1.21.36 1.04.36-.36.37-.38.36.14.36-.21.36-.43.37.09.36-.5.36.64.36-.28.36-.55.37-.09.36-.26.36 1.68.36-.27.36-.25.37-.08.36-.42.36-.39.36-.22.36 1.21.37-.33.36-.45.36-.32.36-.48.37-.38.36 1.29.36-.27.36-.14.36-.18.37-.27.36.19.36.49.36-.42.36.67.37-.24.36-.3.36-.33.36.48.36.66.37-.14.36-.27.36-.09.36-.28.36-.43.37.91.36-.47.36-.37.36-.46.37-.43.36.1.36-.5.36 2.03.36.96.37-.2.36-.11.36.14.36-.25.36-.37.37.32.36-.47.36-.27.36-.27.36-.16.37-.48.36.48.36-.38.36.75.37.7.36-.37.36-.04.36-.46.36-.08.37-.05.36.67.36-.08.36-.66.36-.21.37.49.36-.5.36.66.36.03.36-.47.37-.24.36-.41.36.38.36-.3.36.63.37-.29.36-.49.36.57.36.69.37-.23.36-.25.36-.45.36.43.36.15.37-.26.36-.18.36.17.36-.21.36-.21.37-.63.36-.45.36.48.36.97.36-.17.37.4.36-.13.36-.24.36.72.37-.07.36-.53.36-.17.36-.42.36.42.37-.44.36.06.36.9.36-.36.36-.07.37-.3.36 1.09.36.06.36-.19.36-.42.37-.45.36-.48.36.62.36.2.37-.45.36.82.36-.36.36-.1.36-.07.37-.49.36-.16.36-.16.36.61.36-.37.37-.27.36-.51.36-.48.36.56.36 2.9.37-.18.36-.02.36-.19.36-.33.36-.36.37-.02.36-.26.36-.62.36.65.37-.36.36-.37.36.82.36.71.36-.28.37-.42.36-.03.36-.36.36.25.36-.12.37-.38.36.2.36-.14.36-.49.36-.23.37-.36.36.56.36-.47.36.66.37.38.36-.2.36.45.36-.22.36.13.37-.37.36-.4.36-.27.36.58.36-.47.37.69.36-.34.36.11.36-.22.36-.32.37-.34.36 1.61.36 1.03.36-.38.36-.38.37-.34.36-.71.36-.24.36 1.08.37.79.36-.14.36-.14.36-.11.36-.2.37-.43.36.04.36-.41.36-.53.36-.41.37.77.36-.29.36.51.36.25.36-.27.37.64.36.23.36-.25.36-.3.37-.12.36-.28.36-.44.36.23.36.01.37.76.36.67.36-.24.36-.08.36-.43.37-.06.36-.16.36-.54.36.96.36-.29.37-.38.36-.12.36.27.36-.15.36-.43.37.77.36-.44.36-.14.36.78.37-.19.36-.41.36-.12.36-.13.36-.47.37-.35.36-.82.36.65.36.45.36.72.37-.31.36-.39.36.48.36.06.36-.29.37-.16.36-.47.36-.24.36.89.37-.52.36.45.36-.26.36 1.14.36-.16.37-.27.36-.06.36-.19.36-.34.36-.12.37 1.25.36-.45.36-.58.36.71.36-.32.37-.42.36.98.36-.14.36-.32.37-.34.36.65.36-.22.36-.01.36-.38.37.09.36-.37.36-.43.36-.26.36-.58.37 1.61.36.49.36-.17.36 1.29.36-.41.37.12.36-.13.36-.54.36.69.36-.29.37-.34.36-.5.36-.35.36.73.37.44.36-.29.36-.37.36.68.36-.24.37-.22.36-.1.36-.24.36.26.36-.23.37-.34.36-.13.36.54.36-.05.36-.22.37-.18.36.61.36.45.36-.4.37-.22.36.35.36-.44.36-.1.36-.59.37-.23.36.46.36 1.41.36-.22.36-.45.37-.29.36.85.36-.33.36-.07.36-.32.37-.34.36.18.36-.52.36-.33.36.56.37.93.36-.32.36-.24.36-.15.37-.01.36-.42.36-.1.36-.61.36 1.82.37-.17.36-.34.36-.36.36.6.36-.23.37-.11.36-.32.36-.23.36-.4.36.6.37.42.36-.32.36-.28.36-.25.37-.38.36-.46.36-.32.36.55.36.59.37-.26.36-.42.36.37.36.81.36.06.37-.22.36-.35.36-.34.36.35.36-.39.37.52.36.71.36.07.36-.37.37-.03.36-.36.36-.2.36-.06.36-.21.37-.49.36-.44.36-.54.36 1.13.36-.22.37.82.36-.19.36.43.36-.03.36-.32.37-.17.36.15.36-.36.36-.27.36 1.33.37-.46.36.59.36-.34.36.9.37-.36.36-.35.36-.12.36-.38.36.44.37.27.36-.29.36-.25.36-.43.36-.44.37-.16.36-.47.36 2.31.36-.1.36-.29.37.28.36-.13.36-.19.36-.48.37.16.36-.34.36-.38.36-.36.36-.51.37-.61.36 1.47.36.05.36.2.36.09.37-.24.36-.4.36-.24.36.09.36.41.37-.16.36-.29.36-.57.36 1.45.36.68.37-.29.36.13.36-.18.36.05.37-.3.36-.41.36.15.36-.37.36-.52.37 1.77.36-.71.36.75.36.57.36.13.37-.19.36.07.36-.06.36-.04.36-.41.37-.11.36-.63.36.75.36-.11.37-.57.36-.15.36.73.36-.3.36-.4.37.79.36-.31.36.92.36-.34.36.09.37-.45.36-.08.36-.43.36-.28.36-.47.37.47.36.98.36-.3.36-.39.36-.05.37-.39.36-.59.36 1.45.36-.22.37-.31.36-.11.36-.43.36-.32.36-.43.37.96.36.65.36-.13.36-.04.36-.33.37-.18.36-.08.36-.18.36-.21.36.82.37-.57.36-.31.36-.47.36 1.58.37-.23.36-.19.36-.26.36-.08.36-.27.37-.22.36.17.36 1.39.36-.42.36-.54.37-.23.36-.6.36 1.5.36-.35.36.18.37.43.36-.18.36-.3.36.15.37-.19.36-.49.36-.19.36-.5.36-.44.37.51.36.63.36-.43.36.42.36.69.37-.21.36 2.09.36-.44.36-.05.36-.36.37-.51.36-.27.36.74.36-.35.36.68.37-.17.36-.2.36-.29.36-.17.37-.29.36.02.36-.03.36.09.36.69.37.04.36-.46.36-.22.36.68.36-.34.37-.44.36.29.36-.33.36-.25.36-.33.37.78.36-.19.36-.41.36-.42.37-.29.36-.17.36 1.18.36.65.36-.21.37-.28.36.63.36-.27.36-.46.36-.32.37.64.36-.07.36-.28.36-.41.36-.4.37.75.36-.38.36-.28.36-.38.36.86h.37l.36-.35.36 1.68.36-.27.37-.08.36-.16.36-.53.36-.32.36-.43.37 1.08.36.15.36-.22.36-.29.36-.36.37.77.36-.01.36-.34.36-.47.36.35.37-.51.36-.41.36.36.36.95.37-.35.36-.14.36-.3.36-.53.36-.49.37 2.47.36-.27.36-.31.36-.22.36-.44.37-.06.36-.42.36.66.36-.24.36-.41.37-.33.36.66.36-.33.36.38.36-.26.37-.46.36-.06.36-.32.36-.23.37-.45.36.92.36-.06.36-.43.36.39.37.62.36-.25.36-.23.36.27.36-.36.37-.51.36.09.36.77.36-.48.36.68.37-.44.36.82.36-.2.36-.07.37-.33.36.18.36-.42.36-.26.36.94.37.26.36-.51.36-.36.36.59.36-.03.37-.35.36.89.36-.33.36-.1.36-.37.37-.24.36-.13.36-.3.36-.36.37 2.05.36-.04.36.61.36-.16.36-.15.37-.02.36-.39.36-.01.36-.42.36-.14.37-.38.36-.58.36.77.36.32.36-.29.37.73.36-.09.36-.24.36-.43.36-.05.37.61.36-.43.36.12.36-.35.37-.49.36-.25.36-.6.36-.41.36 1.33.37 1.53.36-.29.36-.24.36-.18.36-.42.37-.59.36 1.13.36-.36.36.02.36-.13.37-.49.36-.46.36.66.36-.27.37 1.88.36-.38.36.69.36-.39.36-.47.37-.06.36-.2.36-.17.36.04.36.54.37-.18.36-.39.36.84.36-.42.36.07.37-.02.36-.33.36-.33.36-.11.36.64.37-.43.36.93.36-.52.36.21.37-.37.36.64.36-.12.36-.08.36.02.37-.27.36-.25.36-.19.36-.39.36.57.37-.19.36-.17.36-.42.36-.19.36.65.37-.07.36-.25.36.19.36-.42.37-.17.36-.25.36-.38.36.45.36.42.37-.35.36-.33.36-.05.36.61.36-.37.37.65.36.91.36-.24.36-.23.36.06.37-.09.36-.39.36-.27.36-.07.36-.29.37-.49.36.84.36-.37.36.4.37-.11.36-.38.36-.55.36 2.28.36.02.37-.36.36-.37.36-.2.36-.47.36-.42.37.36.36.68.36.16.36-.22.36-.35.37.58.36-.24.36-.12.36-.31.37-.5.36-.45.36.43.36 1.81.36.72.37-.31.36-.29.36.05.36-.39.36-.39.37.27.36.19.36-.36.36-.54.36.14.37-.53.36-.29.36 1.68.36-.28.37-.31.36-.03.36.02.36-.22.36-.36.37-.16.36-.58.36.76.36.68.36-.41.37-.28.36 1.01.36-.14.36-.37.36.94.37-.25.36-.19.36-.38.36-.25.36-.48.37.82.36-.21.36-.45.36-.3.37-.39.36.69.36-.29.36.74.36-.21.37-.31.36-.29.36-.26"/><use xlink:href="#4098b__c" color="#9F650D" transform="matrix(3.75 0 0 3.75 182.98 106.47)"/><use xlink:href="#4098b__c" color="#9F650D" transform="matrix(3.75 0 0 3.75 220.55 22.51)"/></g><path fill="none" d="M28 45.01V162.5M371.99 45.01H28" color="#000"/></svg>