<svg xmlns="http://www.w3.org/2000/svg" xmlns:xlink="http://www.w3.org/1999/xlink" viewBox="0 0 400 200"><path fill="none" d="M0 0h400v200H0z"/><defs><path id="7b0da__b" stroke="currentColor" stroke-width=".267" d="M-1-1h2v2h-2z"/><path id="7b0da__d" fill="currentColor" stroke="currentColor" stroke-width=".267" d="M-1-1h2v2h-2z"/><path id="7b0da__a" stroke="currentColor" stroke-width=".267" d="m0-1.33-1.33 2h2.66z"/><path id="7b0da__h" stroke="currentColor" stroke-width=".267" d="M0 1.33 1.265.411.782-1.067l-1.564-.009-.483 1.487z"/><use xlink:href="#7b0da__a" id="7b0da__e" fill="currentColor" stroke="none"/><use xlink:href="#7b0da__b" id="7b0da__c" stroke="currentColor" transform="rotate(45)"/><use xlink:href="#7b0da__c" id="7b0da__g" fill="currentColor" stroke="none"/><circle id="7b0da__f" cx="0" cy="0" r="1" stroke="currentColor" stroke-width=".267"/></defs><path fill="none" stroke="#CCC" stroke-linecap="round" stroke-linejoin="round" stroke-width=".1" d="M46.1 162.5V75.01" class="7b0da__gridline" color="#000"/><g fill="none" stroke-linecap="round" stroke-linejoin="round" stroke-width="0" color="#000"><path d="M46.1 162.5V155m0-79.99v7.5"/><text fill="#000" font-family="KaTeX_Main" font-size="8" text-anchor="middle" transform="translate(46.1 172.6)"><tspan> 1</tspan></text></g><path fill="none" stroke="#CCC" stroke-linecap="round" stroke-linejoin="round" stroke-width=".1" d="M82.31 162.5V75.01" class="7b0da__gridline" color="#000"/><g fill="none" stroke-linecap="round" stroke-linejoin="round" stroke-width="0" color="#000"><path d="M82.31 162.5V155m0-79.99v7.5"/><text fill="#000" font-family="KaTeX_Main" font-size="8" text-anchor="middle" transform="translate(82.31 172.6)"><tspan> 2</tspan></text></g><path fill="none" stroke="#CCC" stroke-linecap="round" stroke-linejoin="round" stroke-width=".1" d="M118.52 162.5V75.01" class="7b0da__gridline" color="#000"/><g fill="none" stroke-linecap="round" stroke-linejoin="round" stroke-width="0" color="#000"><path d="M118.52 162.5V155m0-79.99v7.5"/><text fill="#000" font-family="KaTeX_Main" font-size="8" text-anchor="middle" transform="translate(118.52 172.6)"><tspan> 3</tspan></text></g><path fill="none" stroke="#CCC" stroke-linecap="round" stroke-linejoin="round" stroke-width=".1" d="M154.73 162.5V75.01" class="7b0da__gridline" color="#000"/><g fill="none" stroke-linecap="round" stroke-linejoin="round" stroke-width="0" color="#000"><path d="M154.73 162.5V155m0-79.99v7.5"/><text fill="#000" font-family="KaTeX_Main" font-size="8" text-anchor="middle" transform="translate(154.73 172.6)"><tspan> 4</tspan></text></g><path fill="none" stroke="#CCC" stroke-linecap="round" stroke-linejoin="round" stroke-width=".1" d="M190.94 162.5V75.01" class="7b0da__gridline" color="#000"/><g fill="none" stroke-linecap="round" stroke-linejoin="round" stroke-width="0" color="#000"><path d="M190.94 162.5V155m0-79.99v7.5"/><text fill="#000" font-family="KaTeX_Main" font-size="8" text-anchor="middle" transform="translate(190.94 172.6)"><tspan> 5</tspan></text></g><path fill="none" stroke="#CCC" stroke-linecap="round" stroke-linejoin="round" stroke-width=".1" d="M227.15 162.5V75.01" class="7b0da__gridline" color="#000"/><g fill="none" stroke-linecap="round" stroke-linejoin="round" stroke-width="0" color="#000"><path d="M227.15 162.5V155m0-79.99v7.5"/><text fill="#000" font-family="KaTeX_Main" font-size="8" text-anchor="middle" transform="translate(227.15 172.6)"><tspan> 6</tspan></text></g><path fill="none" stroke="#CCC" stroke-linecap="round" stroke-linejoin="round" stroke-width=".1" d="M263.36 162.5V75.01" class="7b0da__gridline" color="#000"/><g fill="none" stroke-linecap="round" stroke-linejoin="round" stroke-width="0" color="#000"><path d="M263.36 162.5V155m0-79.99v7.5"/><text fill="#000" font-family="KaTeX_Main" font-size="8" text-anchor="middle" transform="translate(263.36 172.6)"><tspan> 7</tspan></text></g><path fill="none" stroke="#CCC" stroke-linecap="round" stroke-linejoin="round" stroke-width=".1" d="M299.57 162.5V75.01" class="7b0da__gridline" color="#000"/><g fill="none" stroke-linecap="round" stroke-linejoin="round" stroke-width="0" color="#000"><path d="M299.57 162.5V155m0-79.99v7.5"/><text fill="#000" font-family="KaTeX_Main" font-size="8" text-anchor="middle" transform="translate(299.57 172.6)"><tspan> 8</tspan></text></g><path fill="none" stroke="#CCC" stroke-linecap="round" stroke-linejoin="round" stroke-width=".1" d="M335.78 162.5V75.01" class="7b0da__gridline" color="#000"/><g fill="none" stroke-linecap="round" stroke-linejoin="round" stroke-width="0" color="#000"><path d="M335.78 162.5V155m0-79.99v7.5"/><text fill="#000" font-family="KaTeX_Main" font-size="8" text-anchor="middle" transform="translate(335.78 172.6)"><tspan> 9</tspan></text></g><path fill="none" stroke="#CCC" stroke-linecap="round" stroke-linejoin="round" stroke-width=".1" d="M371.99 162.5V75.01" class="7b0da__gridline" color="#000"/><g fill="none" stroke-linecap="round" stroke-linejoin="round" stroke-width="0" color="#000"><path d="M371.99 162.5V155m0-79.99v7.5"/><text fill="#000" font-family="KaTeX_Main" font-size="8" text-anchor="middle" transform="translate(371.99 172.6)"><tspan> 10</tspan></text></g><g fill="none" stroke-linecap="round" stroke-linejoin="round" stroke-width="0" color="#000"><path d="M371.99 162.5h-7.5"/><text fill="#000" font-family="KaTeX_Main" font-size="8" transform="translate(378.99 165.1)"><tspan>0.40</tspan></text></g><g fill="none" stroke-linecap="round" stroke-linejoin="round" stroke-width="0" color="#000"><path d="M371.99 152.78h-7.5"/><text fill="#000" font-family="KaTeX_Main" font-size="8" transform="translate(378.99 155.38)"><tspan>0.60</tspan></text></g><g fill="none" stroke-linecap="round" stroke-linejoin="round" stroke-width="0" color="#000"><path d="M371.99 143.06h-7.5"/><text fill="#000" font-family="KaTeX_Main" font-size="8" transform="translate(378.99 145.66)"><tspan>0.80</tspan></text></g><g fill="none" stroke-linecap="round" stroke-linejoin="round" stroke-width="0" color="#000"><path d="M371.99 133.34h-7.5"/><text fill="#000" font-family="KaTeX_Main" font-size="8" transform="translate(378.99 135.94)"><tspan>1.00</tspan></text></g><g fill="none" stroke-linecap="round" stroke-linejoin="round" stroke-width="0" color="#000"><path d="M371.99 123.62h-7.5"/><text fill="#000" font-family="KaTeX_Main" font-size="8" transform="translate(378.99 126.22)"><tspan>1.20</tspan></text></g><g fill="none" stroke-linecap="round" stroke-linejoin="round" stroke-width="0" color="#000"><path d="M371.99 113.89h-7.5"/><text fill="#000" font-family="KaTeX_Main" font-size="8" transform="translate(378.99 116.49)"><tspan>1.40</tspan></text></g><g fill="none" stroke-linecap="round" stroke-linejoin="round" stroke-width="0" color="#000"><path d="M371.99 104.17h-7.5"/><text fill="#000" font-family="KaTeX_Main" font-size="8" transform="translate(378.99 106.77)"><tspan>1.60</tspan></text></g><g fill="none" stroke-linecap="round" stroke-linejoin="round" stroke-width="0" color="#000"><path d="M371.99 94.45h-7.5"/><text fill="#000" font-family="KaTeX_Main" font-size="8" transform="translate(378.99 97.05)"><tspan>1.80</tspan></text></g><g fill="none" stroke-linecap="round" stroke-linejoin="round" stroke-width="0" color="#000"><path d="M371.99 84.73h-7.5"/><text fill="#000" font-family="KaTeX_Main" font-size="8" transform="translate(378.99 87.33)"><tspan>2.00</tspan></text></g><g fill="none" stroke-linecap="round" stroke-linejoin="round" stroke-width="0" color="#000"><path d="M371.99 75.01h-7.5"/><text fill="#000" font-family="KaTeX_Main" font-size="8" transform="translate(378.99 77.61)"><tspan>2.20</tspan></text></g><path fill="none" d="M28 75.01v87.49m343.99-87.49H28" color="#000"/><text stroke-linecap="round" stroke-linejoin="round" stroke-width="0" color="#000" font-family="KaTeX_Main" font-size="10" text-anchor="middle" transform="rotate(-90 65.13 53.63)"><tspan font-weight="bold">Allocations </tspan><tspan> / log</tspan><tspan dy="3" font-size="8">2</tspan><tspan dy="-3">(Size)</tspan></text><text stroke-linecap="round" stroke-linejoin="round" stroke-width="0" color="#000" font-family="KaTeX_Main" font-size="10" text-anchor="middle" transform="translate(199.99 195.75)"><tspan>Operations / 10</tspan><tspan dy="-5" font-size="8">6</tspan></text><text stroke-linecap="round" stroke-linejoin="round" color="#000" font-family="KaTeX_Main" font-size="8" transform="translate(99.2 10.11)"><tspan>Conc</tspan></text><g fill="none" stroke="currentColor" stroke-linecap="round" stroke-linejoin="round" color="#000"><path stroke="#9F650D" stroke-dasharray="1.0,2.0" d="M63.7 7.51h29.9M28 118.75l.36-.3.36-.16.37.26.36.12.36-.09.36-.06.36.46.37-.16.36.17.36.07.36-.04.37 1.22.36-.28.36-.29.36-.15.36.02.37.3.36-.27.36.17.36.2.36-1.55.37-.55.36-.41.36 1.2.36.55.36-1.31.37.42.36-.24.36.19.36.15.36-.05.37.33.36-.24.36-.09.36.23.37-.32.36.49.36.35.36-.25.36-.08.37-.05.36 1.35.36 1.27.36.05.36 1.28.37-1.32.36-1.92.36-.37.36.17.36-.06.37.45.36-.49.36.44.36-.12.37.42.36-.47.36.22.36-.13.36.23.37.26.36-.39.36.32.36.6.36-.83.37.2h.36l.36.57.36-.65.36.25.37 1.08.36-.29.36-.38.36-.52.37.24.36-.05.36.44.36.26.36-.53.37.44.36-.23.36-.91.36-1.35.36-.04.37.15.36.08.36-.01.36 1.43.36-1.6.37.17.36.22.36.02.36-.26.36.16.37.02.36.63.36-.59.36.15.37.02.36.06.36-.21.36.23.36.14.37-.26.36 2.03.36.63.36-.42.36-.84.37-.82.36-.5.36 1.05.36.09.36 1.57.37-.1.36-.8.36-1.42.36.52.37-.49.36.03.36-.08.36.23.36 2.3.37.03.36-2.17.36.09.36-.14.36-.04.37.1.36-.06.36.14.36.16.36-.07.37-.12.36.83.36-.57.36-.32.36.19.37.31.36 1.52.36.53.36-.13.37-.42.36-1.5.36 1.01.36-1.2.36.18.37.06.36.2.36-.17.36-.25.36.08.37.79.36.5.36-.75.36-.25.36.33.37.11.36-.27.36.08.36 1.35.37.85.36-.01.36.02.36-.67.36-1.6.37.47.36-.28.36-.1.36.14.36-.05.37.71.36-.48.36.01.36.64.36-.75.37-.05.36.01.36.04h.36l.36.27.37.18.36.15.36-.34.36-.15.37-.04.36.28.36-.12.36-.04.36.24.37.86.36-.95.36.17.36-.18.36.46.37-.15.36-.28.36 1.18.36 1.26.36-.36.37-1.85.36-.12.36.02.36-.04.37.26.36-.11.36.07.36.03.36.59.37-.58.36-.06.36.44.36-.36.36.94.37-.92.36.23.36-.24.36.91.36-.73.37-2.15.36-.1.36-.02.36.68.37.58.36-1.24.36.38.36-.39.36.83.37-.79.36.42.36.4.36-.57.36.03.37-.07.36-.27.36.49.36-.35.36.05.37.15.36-.26.36.57.36-.49.36.27.37-.11.36 1 .36-1.01.36-.05.37.13.36.31.36-.34.36.29.36.09.37-.34.36.01.36-.05.36-.03.36.33.37-.08.36-.18.36.13.36-.07.36.44.37-.33.36-.11.36 2.6.36-.93.37-1.51.36-.03.36-.12.36.08.36.41.37.16.36-.28.36-.22.36.07.36.02.37-.1.36.21.36-.05.36-.11.36.22.37.08.36.18.36.85.36-1 .36-.17.37.16.36.16.36-.14.36-.01.37-.1.36.12.36.01.36.21.36-.29.37.31.36-.42.36.19.36.05.36.51.37-.67.36.26.36-.13.36 1.72.36-1.5.37.04.36-.33.36.21.36.07.37-.13.36.15.36.16.36-.35.36 1.74.37-1.58.36-.09.36 1.87.36-1.75.36.07.37.04.36.42.36-.14.36-.11.36.2.37-.23.36-.3.36.02.36.2.36-.15.37.1.36.25.36-.35.36.87.37-.53.36.26.36-.31.36-.15.36.37.37-.49.36.51.36-.05.36-.09.36 1.87.37.23.36-1.47.36-.69.36.08.36.01.37.45.36-.56.36 1.04.36-.79.37-.34.36.43.36-.17.36.05.36.02.37-.15.36 1.38.36.91.36-.16h.36l.37-.31.36-1.84.36.42.36-.29.36.05.37.17.36-.13.36.09.36-.27.37.71.36-.54.36-.1.36.02.36.38.37-.17.36-.15.36-.08.36.17.36-.08.37.54.36-.29.36.03.36-.26.36.29.37-.17.36-.04.36.93.36.19.36-1.11.37 1.08.36-1 .36-.04.36.08.37.36.36-.33.36.1.36-.17.36.08.37.08.36-.21.36.09.36.16.36.03.37.19.36-.27h.36l.36.09.36.15.37-.18.36.1.36-.18.36.27.37-.1.36-.08.36-.06.36.05.36.09.37.34.36-.52.36.99.36-.54.36-.31.37.37.36-2.34.36.12.36-.19.36.33.37-.25.36.06.36-.18.36-.03.36.14.37.05.36-.07.36-.14.36.18.37-.1.36.07.36.32.36-.26.36.14.37.34.36-.06.36-.36.36-.06.36.19.37.26.36-.49.36.13.36.07.36-.16.37-.07.36.29.36-.12.36.09.37-.09.36-.23.36.31.36.16.36-.04.37.05.36-.35.36.15.36.03.36-.09.37 1.06.36-1.03.36.24.36-.15.36.05.37.22.36-.2.36 1.65.36.31.37.05.36-1.7.36-.27.36-.01.36.1.37-.16.36.17.36-.22.36.29.36-.04.37-.1.36 2.5.36.09.36-1.77.36-.57.37.33.36-.61.36.17.36-.1.36.19.37-.3.36.26.36.1.36.77.37-.96.36.57.36-.53.36-.02.36.43.37-.44.36-.09.36 1.06.36 1.22.36.44.37-.16.36-2.13.36-.21.36-.07.36-.03.37.32.36-.29.36.42.36-.2.37 2.14.36-1.73.36-.32.36-.29.36.14.37-.13.36.4.36-.1.36-.11h.36l.37.12.36-.2.36.39.36-.2.36-.11.37.02.36.39.36-.24.36.49.36-.47.37-.26.36.12.36.34.36-.12.37-.27.36.09.36-.13.36.11.36.2.37-.15.36.25.36-.35.36-.09.36.83.37-.22.36-.15.36.02.36.09.36.38.37-.74.36.88.36.22.36-.71.37.32.36-.85.36.2.36-.15.36.18.37-.12.36.17.36-.11.36.23.36-.26.37-.14.36.46.36-.33.36.82.36-.16.37-.34.36-.06.36.68.36 1.11.36.16.37-1.68.36-.48.36.09.36.41.37-.48.36.75.36-.59.36 2.11.36-.05.37-.95.36-.82.36-.1.36.14.36.09.37-.23.36.38.36.34.36-.48.36.23.37-.49.36-.13.36.23.36-.2.37.02.36-.03.36 1.33.36-.56.36-.1.37.01.36-.67.36.14.36.07.36-.15.37.07.36.19.36 1.38.36-1.54.36.01.37.08.36-.22.36.44.36-.22.37-.21.36-.13.36.56.36-.27.36-.02.37-.12.36.58.36-.34.36.06.36-.24.37-.17.36.18.36.17.36-.13.36.09.37.06.36-.02.36.03.36-.22.36.46.37-.39.36.13.36-.01.36-.09.37-.03.36-.03.36.56.36-.26.36.85.37-1.06.36.16.36.25.36.01.36-.33.37-.06.36.08.36.1.36-.15h.36l.37-.02.36.32.36-.23h.36l.37-.03.36-.09.36-.07.36.24.36-.05.37 1.13.36-1.08.36-.18.36.35.36 1.19.37-.28.36-1.14.36 1.06.36-.89.36-.25.37.24.36.06.36-.28.36.15h.36l.37.02.36.59.36-.76.36.8.37-.71.36 3.57.36-1.52.36-1.76.36-.22.37.37.36-.19.36-.13.36-.07.36.44.37-.24.36.73.36-.59.36-.39.36.44.37-.04.36 1.67.36-.31.36-1.48.37.13.36-.3.36.08.36.06.36-.15.37.27.36.22.36-.1.36-.21.36.08.37-.1.36-.1.36.06.36.13.36.05.37.07.36-.11.36 1.1.36-.04.36-1.07.37-.08.36.03.36-.02.36.29.37-.19.36.11h.36l.36-.1.36.66.37.17.36-.12.36.98.36-1.22.36-.54.37.23.36-.01.36.2.36-.22.36-.17.37.39.36.09.36-.45.36.09.37-.08.36-.04.36.08.36-.07.36.24.37.17.36-.28.36.09.36-.14.36.02.37.01.36-.18.36.16h.36l.36.36.37-.31.36 1.68.36-.08.36-.83.37-.64.36.1.36-.12.36.05.36-.1.37.05.36-.03.36-.11.36-.03.36.04.37.52.36.88.36-1.05.36-.13.36-.01.37-.28.36.2.36.1.36.58.36-.72.37.12.36-.16.36.3.36-.06.37.02.36.05.36-.26.36-.05.36.08.37-.05.36.32.36-.14.36-.07.36-.13.37.13.36.69.36-.42.36.58.36-.63.37-.24.36.15.36.26.36-.25.37-.14.36.05.36.09.36-.16.36.17.37-.09.36-.03.36.02.36-.14.36.04.37.17.36-.18.36.1.36-.01.36.02.37.12.36-.02.36.33.36-.33.36-.06.37.39.36-.2.36-.08.36.52.37-.72.36.34.36-.29.36.29.36-.3.37-.07h.36l.36.23.36-.07.36-.21.37-1.71.36.19.36.12.36-.16.36.26.37-.1.36-.21.36.21.36-.43.37.26.36.28.36-.34.36.3.36 1.3.37-1.19.36-.5.36.2.36.5.36 1.16.37-.87.36-.81.36-.06.36.63.36-.67.37-.09.36.1.36.01.36.38.36.79.37-.14.36-.56.36 1.56.36-.83.37-1.2.36.15.36-.14.36.1.36-.1.37.35.36.56.36-.95.36.11.36.26.37 1.93.36.53.36-.53.36-.17.36.48.37-.38.36-.01.36-.08.36.03.37.3.36-.2.36-.25.36 1.35.36-1.05.37.08.36-.05.36.02.36.07.36.31.37-.62.36.08.36-.04.36.21.36.9.37 1.35.36-.53.36-.53.36-1.3.37-.03.36.87.36-.21.36-.65.36-.57.37-.65.36-.54.36.17.36.16.36-.55.37.58.36-.54.36.12.36-.17.36.02.37.09.36-.09.36-.03.36.12.36-.15.37.72.36.12.36-.01.36-.68.37.03.36 1.85.36-1.58.36-.39.36.7.37-.65.36.33.36-.02"/><use xlink:href="#7b0da__d" color="#9F650D" transform="matrix(3.75 0 0 3.75 354.25 122.6)"/><use xlink:href="#7b0da__d" color="#9F650D" transform="matrix(3.75 0 0 3.75 78.65 7.51)"/></g><text stroke-linecap="round" stroke-linejoin="round" color="#000" font-family="KaTeX_Main" font-size="8" transform="translate(99.2 25.11)"><tspan>Splay</tspan></text><g fill="none" stroke="currentColor" stroke-linecap="round" stroke-linejoin="round" color="#000"><path stroke="#29C3F6" d="M63.7 22.51h29.9M28 153.3l.36-.51.36.31.37-.67.36.11.36.37.36-.17.36-.28.37-.34.36.44.36-.13.36-.06.37.33.36-.51.36.22.36-.09.36.17.37-.87.36-.32.36.72.36-.48.36.14.37.32.36-.12.36-.18.36-.02.36.18.37-.34.36-.35h.36l.36.14.36.16h.37l.36-.08.36.17.36-.12.37-.17.36.01.36-.03.36-.36.36-.17.37.7.36-.48.36-.09.36.17.36.76.37-.67.36-.19.36-.13.36.44.36-.46.37-.47.36.61.36-.42.36-.08.37-.05.36.11.36.89.36-1.08.36.15.37-.26.36.52.36-.61.36.37.36.14.37.07.36-.22.36-.49.36.29.36.12.37-.36.36.16.36.76.36-.32.37-.85.36.22.36.21.36-.34.36.1.37-.2.36.33.36-.02.36-.08.36.06.37.34.36-.71.36.09.36-.04.36.3.37.38.36-.73.36.18.36.46.36-.52.37-.01.36.25.36-.13.36-.22.37-.21.36.13.36.45.36-.48.36.12.37-.61.36.42.36-.1.36.3.36.31.37-.71.36.18.36.09.36-.03.36-.38.37.36.36-.26.36-.13.36.37.37-.24.36-.21.36.41.36-.05.36-.3.37-.06.36-.1.36.04.36.3.36-.29.37-.38.36.29.36-.26.36.13.36.11.37-.12.36.34.36.31.36-.27.36-.23.37-.12.36-.04.36-.13.36.32.37-.33.36.07.36.34.36-.23.36-.29.37.37.36-.02.36-.27.36.52.36-.21.37-.82.36.55.36-.32.36-.06.36.07.37-.31.36.13.36-.41.36.34.37.3.36-.01.36-.47.36.08.36.13.37.06.36.27.36.08.36-.5.36.28.37.16.36-.34.36.03.36-.05.36-.18.37.2.36-.36.36.51.36-.12.36-.49.37.2.36.57.36-.82.36.13.37.43.36-.19.36-.33.36.45.36-.19.37-.35.36.35.36-.23.36-.01.36.04.37-.37.36.4.36-.49.36.56.36-.03.37-.66.36.64.36-.21.36.01.37-.12.36-.09.36.3.36.17.36-.07.37-.03.36-.41.36-.24.36.18.36.21.37-.04.36.25.36.02.36.31.36-.68.37.43.36.04.36.06.36-.72.37.26.36.14.36.21.36-.24.36.26.37-.53.36.26.36-.52.36.3.36.53.37-.16.36-.51.36-.1.36.87.36-.83.37.09.36.34.36-.04.36-.42.36.4.37-.3.36-.07.36-.43.36 1 .37-.39.36.15.36-.36.36.33.36.13.37-.81.36.26.36.09.36.05.36-.45.37.71.36-.67.36.4.36-.71.36.34.37.48.36.24.36-.56.36.51.37-.43.36-.27.36.33.36.05.36-.17.37-.02.36-.14.36.3.36.19.36-.59.37.58.36-.66.36.22.36.02.36.36.37-.18.36-.03.36-.59.36.71.36-.33.37.03.36.13.36-.17.36.19.37-.09.36.22.36-.46.36-.08.36.07.37-.04.36.24.36-.18.36-.06.36-.07.37.23.36.17.36-.45.36.32.36-.14.37.06.36-.22.36-.1.36.19.37-.18.36.39.36-.05.36.27.36-.67h.37l.36.68.36-.67.36.15.36.05.37.02.36-.03.36.06.36-.06.36-.15.37.02.36.22.36.2.36-.23.36.15.37-.07.36-.37.36-.18.36.15.37-.26.36.43.36-.16.36-.16.36.53.37.07.36-.35.36.06.36.41.36-.48.37.19.36-.47.36.49.36-.45.36.23.37-.01.36.09.36.33.36-.33.37.3.36-.2.36-.21.36-.2.36.04.37.29.36-.06.36.23.36-.52.36.43.37-.28.36-.04.36-.27.36.76.36-.67.37-.11.36.5.36-.14.36-.08.37-.68.36.49.36-.07.36.4.36-.19.37-.59.36.78.36-.68.36.22.36.13.37.3.36-.53.36.48.36-.02.36-.05.37.03.36-.02.36-.28.36-.01.36.1.37.35.36-.53.36.14.36.09.37-.48.36.19.36.25.36-.52.36.5.37-.07.36.3.36-.66.36.39.36-.17.37.4.36-.77.36.32.36-.01.36.58.37-.77.36.24.36.26.36-.49.37.7.36-.76.36.13.36.77.36-.45.37-.02.36.31.36-.56.36-.08.36-.41.37.6.36-.41.36.87.36-.8.36.55.37-.26.36-.09.36.02.36.12.36-.02.37-.15.36.12.36.19.36.02.37.05.36-.34.36.07.36-.01.36.01.37-.58.36.33.36.08.36.81.36-.85h.37l.36.36.36-.43.36.05.36.39.37-.16.36-.08.36-.3.36.59.37-.68.36.72.36-.8.36-.05.36.3.37-.16.36.24.36.06.36-.31.36.35.37-.55.36.54.36.24.36-.67.36.28.37.15.36-.25.36.06.36-.37.37.56.36.28.36-.05.36-.55.36.87.37-.65.36-.41.36.57.36-.22.36.09.37.35.36-.5.36.38.36-.47.36.29.37.04.36-.34.36.35.36.03.36-.71.37.65.36-.06h.36l.36-.2.37.12.36.2.36-.07.36-.15.36.41.37-.36.36.04.36-.13.36-.42.36.3.37.49.36-1.01.36.5.36-.47.36.41.37.04.36-.05.36.44.36-.27.37-.25.36-.24.36.37.36.1.36.43.37-.53.36-.19.36-.26.36.55.36.02.37-.31.36.38.36.03.36-.38.36.29.37.13.36-.05.36-.15.36-.31.36.82.37-1.03.36.75.36-.16.36-.09.37-.13.36.18.36-.32.36.48.36-1.01.37.59.36.06.36-.33.36.36.36-.38.37-.14.36.47.36.48.36-.54.36-.48.37.27.36.16.36.15.36-.02.37.12.36-.26.36.16.36-.18.36-.28.37.69.36-.04.36.02.36-.67.36.17.37.62.36-.32.36.15.36-.19.36-.39.37-.57.36.35.36.59.36-.53.36.36.37-.18.36.37.36.25.36-.67.37.4.36.03.36-.23.36-.27.36.48.37-.09.36-.04.36-.31.36-.03.36.51.37-.1.36.17.36-.15.36-.59.36.08.37.19.36.38.36-.18.36.13.37-.07.36.22.36-.47.36.11.36-.15.37.12.36.08.36-.09.36.33.36-.95.37.33.36.22.36-.18.36-.14.36.47.37-.48.36.16.36.55.36-.48.37.55.36-.25.36-.32.36.58.36-1.16.37-.43.36.83.36.43.36.5.36-.31.37-.36.36-.05.36.03.36-.2.36.21.37-.22.36.47.36-.44.36.42.36-.08.37.24.36-.36.36.04.36-.04.37.4.36-.27.36-.53.36.31.36.08.37-.48.36.21.36.07.36-.05.36-.14.37.3.36-.33.36.18.36.28.36-.07.37.01.36.2.36-.19.36-.32.37.54.36.17.36-.71.36.55.36-.52.37.1.36-.2.36.75.36.15.36-.73.37.1.36.03.36-.32.36.25.36.31.37-.29.36-.04.36-.24.36-.23.36.09.37.22.36.25.36.11.36-.02.37-.25.36.09.36.2.36-.2.36-.22.37-.14.36.49.36-.39.36.44.36-.2.37.31.36-.52h.36l.36.47.36-.46.37.35.36.14.36-.56.36-.08.37.01.36-.12.36.39.36.16.36-.07.37-.02.36-.05.36-.29.36.13.36.25.37-.22.36-.12.36.23.36.38.36-.36.37.3.36-.58.36.33.36.53.36-.51.37.08.36-.12.36-.37.36.38.37-.07.36.09.36-.34.36.63.36-.76.37.23.36-.08.36.08.36.17.36-.01.37.4.36-.39.36-.46.36-.07.36.12.37.14.36.11.36.39.36.33.37-.89.36-.14.36.08.36.32.36-.14.37.27.36-.11.36-.25.36.26.36-.17.37.16.36-.02.36-.06.36.16.36-.36.37.26.36-.34.36.3.36-.2.37.49.36-.24.36-.03.36.02.36-.36.37-.32.36.48.36-.02.36.51.36.03.37-1.14.36.24.36.09.36.35.36.13.37.07.36-.19.36-.25.36.16.36-.31.37.47.36-.09.36-.15.36.14.37.28.36-.02.36-.49.36.49.36-.32.37.08.36.41.36-.61.36.19.36-.33.37-.27.36-.21.36.83.36-.18.36-.24.37-.03.36.77.36-.54.36-.03.37.19.36.1.36-.53.36.43.36-.55.37.41.36.02.36.25.36-.26.36-.11.37-.24.36.96.36-.02.36-.85.36.43.37.06.36-.5.36.11.36.27.36.07.37-.35.36-.17.36.25.36.43.37-.4.36-.6.36.81.36-.02.36.01.37-.39.36.39.36-.19.36-.06.36-.02.37-.03.36.18.36-.55.36.45.36-.46.37.31.36.15.36-.14.36.12.37.13.36-.3.36.11.36.42.36-1.03.37.79.36.2.36-.78.36.62.36.07.37-.57.36.26.36.19.36-.41.36.18.37.43.36-.54.36.33.36.12.36-.45.37.25.36-.22.36.35.36-.24.37.37.36-.43.36.26.36-.67.36-.01.37.42.36-.24.36-.06.36.44.36.21.37-.29.36-.26.36.08.36.52.36-.48.37.03.36-.07.36.22.36-.27.37.24.36.03.36.44.36-.86.36.79.37-.52.36.02.36.05.36-.04.36-.12.37.48.36-.51.36.28.36-.11.36-.23.37.67.36-.29.36.01.36-.75.37.78.36-.16.36-.15.36.13.36.19.37-.16.36.3.36-1.04.36.09.36.97.37-.41.36-.13.36.18.36.15.36-.46.37.48.36-.18.36-.27.36.34.36-.1.37.16.36-.66.36.67.36-.42.37.22.36-.48.36.3.36.38.36.16.37-.76h.36l.36.42"/><use xlink:href="#7b0da__b" color="#29C3F6" transform="matrix(3.75 0 0 3.75 67.83 149.56)"/><use xlink:href="#7b0da__b" color="#29C3F6" transform="matrix(3.75 0 0 3.75 78.65 22.51)"/></g><text stroke-linecap="round" stroke-linejoin="round" stroke-width=".5" color="#000" font-family="KaTeX_Main" font-size="8" transform="translate(99.2 40.11)"><tspan>AVLBottomUp</tspan></text><g fill="none" stroke="currentColor" stroke-linecap="round" stroke-linejoin="round" stroke-width=".5" color="#000"><path stroke="#000" d="M63.7 37.51h29.9M28 123.39l.36-.29.36-.16.37.22.36.16.36-.12.36-.08.36.48.37-.17.36.15.36.07.36-.05.37 1.23.36-.29.36-.29.36-.18.36.03.37.25.36-.27.36.17.36.17.36-1.54.37-.58.36-.35.36 1.14.36.54.36-1.29.37.4.36-.22.36.15.36.19.36-.1.37.36.36-.28.36-.05.36.22.37-.3.36.46.36.35.36-.3.36-.06.37-.07.36 1.37.36 1.29.36.07.36 1.21.37-1.3.36-1.93.36-.4.36.22.36-.08.37.46.36-.49.36.43.36-.15.37.42.36-.43.36.19.36-.13.36.18.37.3.36-.4.36.29.36.64.36-.83.37.18h.36l.36.56.36-.62.36.2.37 1.08.36-.27.36-.37.36-.52.37.2.36-.05.36.46.36.26.36-.53.37.43.36-.23.36-.92.36-1.35.36-.04.37.15.36.01.36.04.36 1.44.36-1.61.37.16.36.18.36.06.36-.26.36.17.37-.01.36.64.36-.61.36.15.37.02.36.07.36-.21.36.26.36.14.37-.26.36 2 .36.64.36-.4.36-.85.37-.85.36-.45.36 1 .36.12.36 1.57.37-.12.36-.8.36-1.41.36.47.37-.47.36.05.36-.09.36.25.36 2.29.37.04.36-2.2.36.08.36-.13.36-.06.37.1.36-.03.36.12.36.16.36-.07.37-.12.36.81.36-.57.36-.29.36.14.37.34.36 1.54.36.52.36-.15.37-.41.36-1.51.36.99.36-1.19.36.22.37.03.36.2.36-.17.36-.27.36.09.37.63.36.54.36-.78.36-.26.36.34.37.11.36-.27.36.06.36 1.34.37.87.36.01h.36l.36-.64.36-1.6.37.41.36-.25.36-.1.36.12.36-.03.37.71.36-.5.36.03.36.64.36-.76.37-.06.36.06.36.01h.36l.36.27.37.17.36.13.36-.34.36-.14.37-.05.36.3.36-.18h.36l.36.24.37.86.36-.96.36.19.36-.22.36.44.37-.11.36-.28.36 1.19.36 1.24.36-.36.37-1.85.36-.08.36-.01.36-.02.37.23.36-.08.36.06.36.04.36.56.37-.57.36-.04.36.4.36-.33.36.93.37-.92.36.19.36-.23.36.93.36-.74.37-2.15.36-.08.36-.05.36.69.37.61.36-1.26.36.37.36-.38.36.83.37-.8.36.42.36.4.36-.56.36.04.37-.12.36-.24.36.5.36-.35.36.02.37.15.36-.23.36.57.36-.51.36.25.37-.1.36 1.02.36-1.02.36-.03.37.11.36.3.36-.33.36.29.36.06.37-.3.36.05.36-.04.36-.08.36.38.37-.11.36-.16.36.11.36-.07.36.45.37-.34.36-.11.36 2.59.36-.9.37-1.5.36-.09.36-.08.36.09.36.37.37.17.36-.26.36-.22.36.04.36.03.37-.06.36.19.36-.09.36-.06.36.15.37.11.36.19.36.85.36-1 .36-.17.37.16.36.16.36-.12.36-.03.37-.1.36.12.36-.02.36.23.36-.29.37.3.36-.41.36.18.36.07.36.48.37-.65.36.21.36-.13.36 1.75.36-1.51.37.06.36-.33.36.18.36.08.37-.14.36.16.36.13.36-.33.36 1.73.37-1.53.36-.1.36 1.87.36-1.78.36.06.37.02.36.47.36-.16.36-.06.36.16.37-.24.36-.29.36.03.36.17.36-.13.37.09.36.22.36-.28.36.84.37-.55.36.26.36-.32.36-.13.36.37.37-.48.36.49.36-.01.36-.1.36 1.86.37.22.36-1.46.36-.7.36.04.36.02.37.48.36-.54.36 1.03.36-.81.37-.38.36.41.36-.12.36.03.36.01.37-.15.36 1.37.36.9.36-.13.36-.01.37-.32.36-1.81.36.4.36-.26.36.03.37.17.36-.14.36.08.36-.26.37.72.36-.57.36-.07.36.03.36.31.37-.12.36-.15.36-.06.36.13.36-.09.37.53.36-.25.36-.02.36-.24.36.27.37-.13.36-.03.36.94.36.16.36-1.12.37 1.07.36-.98.36-.01.36.06.37.36.36-.35.36.09.36-.12.36.05.37.13.36-.23.36.08.36.14.36.03.37.2.36-.28.36.02.36.07.36.14.37-.17.36.12.36-.17.36.25.37-.12.36-.07.36-.05.36.04.36.09.37.35.36-.52.36.99.36-.57.36-.33.37.39.36-2.3.36.11.36-.23.36.35.37-.26.36.13.36-.23.36-.04.36.15.37.06.36-.09.36-.14.36.17.37-.08.36.08.36.27.36-.24.36.17.37.3.36-.03.36-.36.36-.06.36.15.37.28.36-.49.36.13.36.04.36-.1.37-.08.36.27.36-.13.36.09.37-.06.36-.2.36.28.36.13.36-.02.37.05.36-.35.36.11.36.06.36-.09.37 1.06.36-1.03.36.26.36-.16.36.01.37.24.36-.18.36 1.62.36.34.37.06.36-1.68.36-.32h.36l.36.13.37-.19.36.17.36-.21.36.27.36-.03.37-.09.36 2.48.36.09.36-1.78.36-.55.37.32.36-.59.36.13.36-.08.36.19.37-.28.36.26.36.1.36.74.37-.91.36.51.36-.51.36-.02.36.43.37-.43.36-.09.36 1.03.36 1.22.36.46.37-.16.36-2.13.36-.23.36-.07.36.01.37.28.36-.28.36.44.36-.23.37 2.13.36-1.73.36-.29.36-.3.36.11.37-.1.36.45.36-.16.36-.09.36-.02.37.14.36-.22.36.41.36-.2.36-.1.37.01.36.37.36-.21.36.46.36-.48.37-.24.36.09.36.37.36-.12.37-.29.36.1.36-.12.36.1.36.19.37-.14.36.24.36-.34.36-.07.36.84.37-.27.36-.09.36-.01.36.05.36.42.37-.72.36.84.36.23.36-.73.37.32.36-.83.36.19.36-.13.36.21.37-.15.36.17.36-.12.36.21.36-.25.37-.11.36.45.36-.35.36.82.36-.13.37-.39.36-.03.36.69.36 1.11.36.13.37-1.69.36-.45.36.07.36.42.37-.47.36.76.36-.61.36 2.1.36-.03.37-.95.36-.82.36-.1.36.13.36.1.37-.23.36.39.36.3.36-.45.36.21.37-.48.36-.13.36.2.36-.21.37.05.36-.06.36 1.34.36-.53.36-.09h.37l.36-.69.36.17.36.05.36-.14.37.04.36.2.36 1.39.36-1.55.36.03.37.08.36-.25.36.42.36-.21.37-.17.36-.12.36.53.36-.24.36-.06.37-.14.36.62.36-.33.36.05.36-.23.37-.18.36.18.36.17.36-.1.36.05.37.07.36-.04.36.04.36-.21.36.47.37-.39.36.09.36-.01.36-.1.37.02.36-.04.36.54.36-.26.36.84.37-1.06.36.15.36.27.36.01.36-.31.37-.07.36.06.36.1.36-.15.36-.01.37.02.36.31.36-.24.36-.01.37-.01.36-.1.36-.06.36.22.36-.06.37 1.15.36-1.1.36-.19.36.37.36 1.19.37-.32.36-1.1.36 1.03.36-.87.36-.23.37.26.36.02.36-.27.36.14h.36l.37.04.36.55.36-.76.36.82.37-.7.36 3.59.36-1.56.36-1.72.36-.24.37.34.36-.17.36-.11.36-.09.36.42.37-.21.36.7.36-.56.36-.41.36.45.37-.06.36 1.71.36-.33.36-1.5.37.12.36-.29.36.07.36.08.36-.13.37.25.36.23.36-.1.36-.21.36.08.37-.09.36-.11.36.06.36.13.36.03.37.09.36-.14.36 1.12.36-.05.36-1.08.37-.04h.72l.36.27.37-.2.36.15.36-.02.36-.11.36.67.37.18.36-.16.36 1.02.36-1.23.36-.55.37.2.36.01.36.2.36-.21.36-.16.37.35.36.12.36-.45.36.08.37-.09.36-.01.36.06.36-.04.36.22.37.16.36-.26.36.06.36-.12.36.01.37.01.36-.14.36.12.36.01.36.35.37-.29.36 1.68.36-.11.36-.84.37-.65.36.13.36-.13.36.04.36-.08.37.01.36-.02.36-.08.36-.04.36.06.37.48.36.92.36-1.08.36-.11.36-.01.37-.26.36.15.36.15.36.54.36-.73.37.13.36-.15.36.28.36-.02h.37l.36.05.36-.25.36-.06.36.1.37-.09.36.34.36-.14.36-.06.36-.14.37.13.36.67.36-.4.36.59.36-.62.37-.24.36.12.36.25.36-.22.37-.18.36.07.36.1.36-.15.36.15.37-.08.36-.04h.36l.36-.11.36.03.37.16.36-.17.36.1.36.04.36-.03.37.13.36-.03.36.36.36-.35.36-.06.37.38.36-.19.36-.1.36.55.37-.71.36.31.36-.26.36.28.36-.34.37-.06.36.06.36.18.36-.09.36-.18.37-1.73.36.2.36.1.36-.1.36.21.37-.09.36-.21.36.24.36-.46.37.27.36.26.36-.35.36.31.36 1.3.37-1.15.36-.52.36.2.36.48.36 1.15.37-.87.36-.8.36-.05.36.64.36-.68.37-.08.36.09.36.03.36.37.36.77.37-.16.36-.52.36 1.57.36-.84.37-1.22.36.17.36-.17.36.09.36-.06.37.35.36.55.36-.95.36.13.36.25.37 1.9.36.52.36-.54.36-.1.36.45.37-.41.36-.02.36-.06.36.04.37.29.36-.19.36-.23.36 1.35.36-1.08.37.08.36-.02h.36l.36.05.36.33.37-.64.36.11.36-.03.36.19.36.88.37 1.36.36-.51.36-.54.36-1.35.37-.02.36.91.36-.24.36-.64.36-.54.37-.67.36-.52.36.13.36.19.36-.55.37.59.36-.55.36.1.36-.17.36.03.37.1.36-.11.36-.03.36.13.36-.13.37.72.36.08.36.02.36-.7.37.03.36 1.84.36-1.57.36-.38.36.72.37-.65.36.31.36-.04"/><use xlink:href="#7b0da__e" transform="matrix(3.75 0 0 3.75 125.4 124.35)"/><use xlink:href="#7b0da__e" transform="matrix(3.75 0 0 3.75 78.65 37.51)"/></g><text stroke-linecap="round" stroke-linejoin="round" color="#000" font-family="KaTeX_Main" font-size="8" transform="translate(99.2 55.11)"><tspan>AVLRelaxedBottomUp</tspan></text><g fill="none" stroke="currentColor" stroke-linecap="round" stroke-linejoin="round" color="#000"><path stroke="#D336C8" d="M63.7 52.51h29.9M28 123.39l.36-.29.36-.16.37.22.36.16.36-.12.36-.08.36.48.37-.17.36.15.36.07.36-.05.37 1.23.36-.29.36-.29.36-.18.36.03.37.25.36-.27.36.17.36.17.36-1.54.37-.58.36-.35.36 1.14.36.54.36-1.29.37.4.36-.22.36.15.36.19.36-.1.37.36.36-.28.36-.05.36.22.37-.3.36.46.36.35.36-.3.36-.06.37-.07.36 1.37.36 1.29.36.07.36 1.21.37-1.3.36-1.93.36-.4.36.22.36-.08.37.46.36-.49.36.43.36-.15.37.42.36-.43.36.19.36-.13.36.18.37.3.36-.4.36.29.36.64.36-.83.37.18h.36l.36.56.36-.62.36.2.37 1.08.36-.27.36-.37.36-.52.37.2.36-.05.36.46.36.26.36-.53.37.43.36-.23.36-.92.36-1.35.36-.04.37.15.36.01.36.04.36 1.44.36-1.61.37.16.36.18.36.06.36-.26.36.17.37-.01.36.64.36-.61.36.15.37.02.36.07.36-.21.36.26.36.14.37-.26.36 2 .36.64.36-.4.36-.85.37-.85.36-.45.36 1 .36.12.36 1.57.37-.12.36-.8.36-1.41.36.47.37-.47.36.05.36-.09.36.25.36 2.29.37.04.36-2.2.36.08.36-.13.36-.06.37.1.36-.03.36.12.36.16.36-.07.37-.12.36.81.36-.57.36-.29.36.14.37.34.36 1.54.36.52.36-.15.37-.41.36-1.51.36.99.36-1.19.36.22.37.03.36.2.36-.17.36-.27.36.09.37.63.36.54.36-.78.36-.26.36.34.37.11.36-.27.36.06.36 1.34.37.87.36.01h.36l.36-.64.36-1.6.37.41.36-.25.36-.1.36.12.36-.03.37.71.36-.5.36.03.36.64.36-.76.37-.06.36.06.36.01h.36l.36.27.37.17.36.13.36-.34.36-.14.37-.05.36.3.36-.18h.36l.36.24.37.86.36-.96.36.19.36-.22.36.44.37-.11.36-.28.36 1.19.36 1.24.36-.36.37-1.85.36-.08.36-.01.36-.02.37.23.36-.08.36.06.36.04.36.56.37-.57.36-.04.36.4.36-.33.36.93.37-.92.36.19.36-.23.36.93.36-.74.37-2.15.36-.08.36-.05.36.69.37.61.36-1.26.36.37.36-.38.36.83.37-.8.36.42.36.4.36-.56.36.04.37-.12.36-.24.36.5.36-.35.36.02.37.15.36-.23.36.57.36-.51.36.25.37-.1.36 1.02.36-1.02.36-.03.37.11.36.3.36-.33.36.29.36.06.37-.3.36.05.36-.04.36-.08.36.38.37-.11.36-.16.36.11.36-.07.36.45.37-.34.36-.11.36 2.59.36-.9.37-1.5.36-.09.36-.08.36.09.36.37.37.17.36-.26.36-.22.36.04.36.03.37-.06.36.19.36-.09.36-.06.36.15.37.11.36.19.36.85.36-1 .36-.17.37.16.36.16.36-.12.36-.03.37-.1.36.12.36-.02.36.23.36-.29.37.3.36-.41.36.18.36.07.36.48.37-.65.36.21.36-.13.36 1.75.36-1.51.37.06.36-.33.36.18.36.08.37-.14.36.16.36.13.36-.33.36 1.73.37-1.53.36-.1.36 1.87.36-1.78.36.06.37.02.36.47.36-.16.36-.06.36.16.37-.24.36-.29.36.03.36.17.36-.13.37.09.36.22.36-.28.36.84.37-.55.36.26.36-.32.36-.13.36.37.37-.48.36.49.36-.01.36-.1.36 1.86.37.22.36-1.46.36-.7.36.04.36.02.37.48.36-.54.36 1.03.36-.81.37-.38.36.41.36-.12.36.03.36.01.37-.15.36 1.37.36.9.36-.13.36-.01.37-.32.36-1.81.36.4.36-.26.36.03.37.17.36-.14.36.08.36-.26.37.72.36-.57.36-.07.36.03.36.31.37-.12.36-.15.36-.06.36.13.36-.09.37.53.36-.25.36-.02.36-.24.36.27.37-.13.36-.03.36.94.36.16.36-1.12.37 1.07.36-.98.36-.01.36.06.37.36.36-.35.36.09.36-.12.36.05.37.13.36-.23.36.08.36.14.36.03.37.2.36-.28.36.02.36.07.36.14.37-.17.36.12.36-.17.36.25.37-.12.36-.07.36-.05.36.04.36.09.37.35.36-.52.36.99.36-.57.36-.33.37.39.36-2.3.36.11.36-.23.36.35.37-.26.36.13.36-.23.36-.04.36.15.37.06.36-.09.36-.14.36.17.37-.08.36.08.36.27.36-.24.36.17.37.3.36-.03.36-.36.36-.06.36.15.37.28.36-.49.36.13.36.04.36-.1.37-.08.36.27.36-.13.36.09.37-.06.36-.2.36.28.36.13.36-.02.37.05.36-.35.36.11.36.06.36-.09.37 1.06.36-1.03.36.26.36-.16.36.01.37.24.36-.18.36 1.62.36.34.37.06.36-1.68.36-.32h.36l.36.13.37-.19.36.17.36-.21.36.27.36-.03.37-.09.36 2.48.36.09.36-1.78.36-.55.37.32.36-.59.36.13.36-.08.36.19.37-.28.36.26.36.1.36.74.37-.91.36.51.36-.51.36-.02.36.43.37-.43.36-.09.36 1.03.36 1.22.36.46.37-.16.36-2.13.36-.23.36-.07.36.01.37.28.36-.28.36.44.36-.23.37 2.13.36-1.73.36-.29.36-.3.36.11.37-.1.36.45.36-.16.36-.09.36-.02.37.14.36-.22.36.41.36-.2.36-.1.37.01.36.37.36-.21.36.46.36-.48.37-.24.36.09.36.37.36-.12.37-.29.36.1.36-.12.36.1.36.19.37-.14.36.24.36-.34.36-.07.36.84.37-.27.36-.09.36-.01.36.05.36.42.37-.72.36.84.36.23.36-.73.37.32.36-.83.36.19.36-.13.36.21.37-.15.36.17.36-.12.36.21.36-.25.37-.11.36.45.36-.35.36.82.36-.13.37-.39.36-.03.36.69.36 1.11.36.13.37-1.69.36-.45.36.07.36.42.37-.47.36.76.36-.61.36 2.1.36-.03.37-.95.36-.82.36-.1.36.13.36.1.37-.23.36.39.36.3.36-.45.36.21.37-.48.36-.13.36.2.36-.21.37.05.36-.06.36 1.34.36-.53.36-.09h.37l.36-.69.36.17.36.05.36-.14.37.04.36.2.36 1.39.36-1.55.36.03.37.08.36-.25.36.42.36-.21.37-.17.36-.12.36.53.36-.24.36-.06.37-.14.36.62.36-.33.36.05.36-.23.37-.18.36.18.36.17.36-.1.36.05.37.07.36-.04.36.04.36-.21.36.47.37-.39.36.09.36-.01.36-.1.37.02.36-.04.36.54.36-.26.36.84.37-1.06.36.15.36.27.36.01.36-.31.37-.07.36.06.36.1.36-.15.36-.01.37.02.36.31.36-.24.36-.01.37-.01.36-.1.36-.06.36.22.36-.06.37 1.15.36-1.1.36-.19.36.37.36 1.19.37-.32.36-1.1.36 1.03.36-.87.36-.23.37.26.36.02.36-.27.36.14h.36l.37.04.36.55.36-.76.36.82.37-.7.36 3.59.36-1.56.36-1.72.36-.24.37.34.36-.17.36-.11.36-.09.36.42.37-.21.36.7.36-.56.36-.41.36.45.37-.06.36 1.71.36-.33.36-1.5.37.12.36-.29.36.07.36.08.36-.13.37.25.36.23.36-.1.36-.21.36.08.37-.09.36-.11.36.06.36.13.36.03.37.09.36-.14.36 1.12.36-.05.36-1.08.37-.04h.72l.36.27.37-.2.36.15.36-.02.36-.11.36.67.37.18.36-.16.36 1.02.36-1.23.36-.55.37.2.36.01.36.2.36-.21.36-.16.37.35.36.12.36-.45.36.08.37-.09.36-.01.36.06.36-.04.36.22.37.16.36-.26.36.06.36-.12.36.01.37.01.36-.14.36.12.36.01.36.35.37-.29.36 1.68.36-.11.36-.84.37-.65.36.13.36-.13.36.04.36-.08.37.01.36-.02.36-.08.36-.04.36.06.37.48.36.92.36-1.08.36-.11.36-.01.37-.26.36.15.36.15.36.54.36-.73.37.13.36-.15.36.28.36-.02h.37l.36.05.36-.25.36-.06.36.1.37-.09.36.34.36-.14.36-.06.36-.14.37.13.36.67.36-.4.36.59.36-.62.37-.24.36.12.36.25.36-.22.37-.18.36.07.36.1.36-.15.36.15.37-.08.36-.04h.36l.36-.11.36.03.37.16.36-.17.36.1.36.04.36-.03.37.13.36-.03.36.36.36-.35.36-.06.37.38.36-.19.36-.1.36.55.37-.71.36.31.36-.26.36.28.36-.34.37-.06.36.06.36.18.36-.09.36-.18.37-1.73.36.2.36.1.36-.1.36.21.37-.09.36-.21.36.24.36-.46.37.27.36.26.36-.35.36.31.36 1.3.37-1.15.36-.52.36.2.36.48.36 1.15.37-.87.36-.8.36-.05.36.64.36-.68.37-.08.36.09.36.03.36.37.36.77.37-.16.36-.52.36 1.57.36-.84.37-1.22.36.17.36-.17.36.09.36-.06.37.35.36.55.36-.95.36.13.36.25.37 1.9.36.52.36-.54.36-.1.36.45.37-.41.36-.02.36-.06.36.04.37.29.36-.19.36-.23.36 1.35.36-1.08.37.08.36-.02h.36l.36.05.36.33.37-.64.36.11.36-.03.36.19.36.88.37 1.36.36-.51.36-.54.36-1.35.37-.02.36.91.36-.24.36-.64.36-.54.37-.67.36-.52.36.13.36.19.36-.55.37.59.36-.55.36.1.36-.17.36.03.37.1.36-.11.36-.03.36.13.36-.13.37.72.36.08.36.02.36-.7.37.03.36 1.84.36-1.57.36-.38.36.72.37-.65.36.31.36-.04"/><use xlink:href="#7b0da__a" color="#D336C8" transform="matrix(3.75 0 0 3.75 182.98 123.62)"/><use xlink:href="#7b0da__a" color="#D336C8" transform="matrix(3.75 0 0 3.75 78.65 52.51)"/></g><text stroke-linecap="round" stroke-linejoin="round" color="#000" font-family="KaTeX_Main" font-size="8" transform="translate(241.1 10.11)"><tspan>RedBlackBottomUp</tspan></text><g fill="none" stroke="currentColor" stroke-linecap="round" stroke-linejoin="round" color="#000"><path stroke="#F44336" d="M205.6 7.51h29.9M28 97.49l.36.24.36.04.37.38.36.07.36-.04.36.15.36.24.37.22.36-.06.36.23.36.07.37-.02.36.27.36.07.36.12.36.07.37.24.36.19.36-.1.36.19.36.05.37.03.36.22.36.09.36-1.42.36-.96.37.17.36.2.36.05.36.04.36.04.37.06.36.1.36.07.36.05.37.15.36.05.36.06.36.17.36.17.37-.08.36.14.36.16.36-.05.36-.09.37.22.36.14.36.08.36.01.36.16.37.03.36-.06.36.15.36.02.37.07.36.11.36-1.22.36-1.03.36.04.37.05.36.02.36.17.36.02.36-.07.37.04.36.2.36.13.36-.01.36-.03.37.22.36-.05.36-.14.36.13.37.3h.36l.36.03.36.11.36.07.37.11.36-.18.36.14.36.09.36.04.37-.12.36.28.36-.02.36.1.36-.03.37-.08.36.24.36-.08.36-.03.36.28.37-.02.36.05.36-.04.36.12.37.17.36-.03.36-.08.36.11.36.08.37.12.36-.13.36.04.36-.03.36.01.37.2.36-.05.36.02.36.14.36.12.37-.06.36.08.36.05.36.01.37.01.36.11.36-.06.36.07.36.11h.37l.36.13.36-.06.36.01.36.11.37.19.36-.04.36.04.36-1.92.36-.37.37.14.36-.14.36-.01.36.14.36.04.37.04.36.13.36-.09.36.02.37.15.36-.03.36-.03.36.08.36.2.37-.14h.36l.36.19.36-.15.36.06.37.07.36-.14.36.11.36.05.36-.02.37.11.36-.03.36.18.36-.13.37.06.36-.02.36.19.36-.06.36.03.37.07.36-.15.36.06.36.2.36-.04.37.03.36.1.36-.07.36.04.36.12h.37l.36.05.36-.04.36-.01.36.13.37-.01.36-.05.36.2.36.01.37-.16.36.12.36.13.36-.04.36-.03.37.08.36-.01.36.12.36.01.36.04.37.09.36-.05.36.21.36-.1.36-.01.37.14.36-.19.36.05.36.03.37.12.36.02.36-.08h.36l.36.02h.37l.36.22.36.07.36-.04.36-.07.37-1 .36-1.2.36.05.36-.08.36.12.37-.01.36-.02.36.03.36.15.37-.14.36.01.36.07.36.1.36-.06.37.13.36-.03.36.11.36.02.36-.13.37.03.36.16.36-.06.36-.11.36.3.37.01.36-.06.36-.01.36.13.36-.13.37.14.36.06.36.11.36-.23.37.09.36.02.36.07.36.02.36-.01.37-.06.36-.11.36-.01.36.04.36.08.37-.08.36.13.36-.03.36.24.36-.08.37-.09.36-.06.36.14.36-.15.37.2.36.03.36-.03.36.04.36.02.37.05.36.08.36-.06.36-.01.36.09.37-.07.36.09.36.02.36-.03.36-.06h.37l.36.04.36.27.36-.09.36.09.37-.16.36.03.36.11.36-.06.37.05.36-.08.36.16.36.05.36-.04.37.03h.36l.36.06.36.03.36.04.37-.11.36-.08.36.16.36-.03.36.05.37.03.36.03.36-.01.36.15.37-.07.36.02.36-.02.36-.08.36.21.37-.01.36-.11.36.18.36.02.36-.06.37-.07.36.03.36.15.36.04.36-.02.37.03.36-.02.36-.01.36.01.36-.07.37.06.36.09.36.09.36-.04.37.21.36-.22.36-.03.36.16.36-.15.37-.02.36.18.36.05.36-.19.36.13.37-.01.36.18.36-.16.36.19.36-.13.37.17.36-.16.36-.01.36.11.37-.15.36.06.36.04.36.04.36.02.37-.03.36.16.36-.17.36.15.36-.08.37.05.36.01.36.07.36-.21.36.25.37.06.36-.14.36.08.36.06.37.14.36-.11.36.02.36.05.36-.18.37.26.36-.14.36.2.36-.09.36.04.37-.11.36.13.36-.06.36.03.36-.07.37.07.36-.03.36.19.36-.06.36.04.37-.1.36.16.36.04.36-.11.37.12.36.05.36-.03.36.04.36-.03.37-.02.36-.12.36.22.36-.06.36-.04.37-.03.36.19.36-.07.36-.92.36-1.27.37.15.36-.03.36-.03.36.13.37-.24.36.26.36-.1.36-.13.36.1.37.07.36-.05.36.19.36-.06.36.21.37-.23.36.24.36-.3.36.14h.36l.37.07.36-.01.36-.08.36.07h.36l.37-.02.36.02.36.03.36-.08.37.06.36.1.36-.04.36.05.36.08.37.04.36-.02.36-.08.36-.14.36.32.37-.09.36-.07.36.11.36-.02.36-.08.37.05.36-.07.36.21.36-.29.37.21.36-.11.36.24.36-.01.36-.01.37.11.36-.17.36.08.36.01.36-.07.37.25.36-.18.36-.09.36.16h.36l.37-.1.36.09.36.12.36.04.37-.15.36.01.36-.09.36.23.36-.33.37.35.36.02.36-.09.36.01.36-.01.37-.04.36.2.36-.13.36.09.36-.06.37.05.36.05.36-.02.36.06.36.06.37-.17.36.15.36-.03.36.08.37-.07.36.09.36-.1.36.01.36.01.37.04.36.04.36.02.36.17.36-.12.37-.2.36.33.36-.22.36.11.36.03.37.05.36.03.36-.14.36.11.37.01.36.18.36-.06.36-.09.36-.14.37.11.36.11.36.04.36-.1.36.07.37.05.36-.07h.36l.36.05.36-.02.37-.05.36.06h.36l.36.07.36-.18.37.35.36-.27.36.07.36.04.37.1.36.01.36.06.36-.16.36.31.37-.14.36-.05.36.18.36-.17.36.11.37-.06.36-.02.36-.12.36.11.36.11.37-.01.36.08.36-.06.36-.12.37.1.36.07.36-.14.36.12.36.09.37-.13.36-.06.36.06.36.25.36-.1.37-.1.36.06.36-.11.36.1.36.19.37.15.36-.17.36-.2.36.18.36-.1.37.09.36-.01.36-.08.36.07.37.03.36-.02.36-.01.36.09.36-.09.37-.03.36.09.36.11.36.02.36-.19.37.07.36.01.36.08.36.15.36-.08.37-.06.36-.05.36.08.36-.03h.37l.36-.07.36.21.36-.1.36.13.37-.11.36.06.36.04.36-.11.36.29.37-.06.36-.15.36.16.36.01.36-.14.37.06.36-.01.36-.14.36.13.37-1.89.36-.17.36.05.36-.11.36.29.37.07.36-.2.36-.01.36-.2.36.13.37.1.36-.01.36.04.36.08.36.05.37-.02.36-.21.36.22.36-.2.36.05.37-.07.36.21.36-.11.36.01h.37l.36.05.36.16.36-.12h.36l.37.1.36-.1.36.08.36-.06.36-.02.37-.02.36.13.36-.06.36-.14h.36l.37.16.36-.11.36.01.36.2.37-.19.36.02.36.22.36-.26.36.11.37.03.36.13.36-.29.36-.04.36.26.37-.01.36-.04.36.01.36.16.36.02.37-.02.36-.01.36.11.36.06.36-.05.37-.04.36-.07.36-.06h.36l.37.18.36-.16.36-.08.36.18.36.06.37.07.36-.22.36.19.36-.25.36.13.37-.04.36.11.36.12.36-.25.36.21.37-.15.36.01.36.23.36-.08.37.17.36-.11.36.02.36-.12.36.03.37-.01.36.06.36.11.36-.06.36-.06.37.06.36.02.36-.1.36.03.36.08.37-.12.36.18.36-.13.36-.1.36.19.37-.01.36-.03.36.15.36.01.37-.07.36-.07.36.11.36-.02.36.15.37-.16.36.13.36.01.36-.1.36-.08.37-.04.36.19.36.13.36-.02.36.03.37-.06.36-.08.36-.08.36-.05.37.28.36-.11.36.07.36-.13.36.07.37-.05h.36l.36.14.36-.15.36.25.37-.22.36.08h.36l.36-.03.36.09.37-.09.36.2.36-.13.36.05.37-.18.36.12.36.05.36-.08.36.18.37-.09.36-.05.36.02.36-.11.36.12.37.32.36-.18.36.01.36-.11.36-.03.37.05.36.04.36.03h.36l.36.1.37-.09.36-.04.36.06.36.05.37-.09.36.02.36.17.36-.14.36.09.37-.02.36-.06.36.08.36-.11.36.24.37.04.36-.03.36-.16.36.16.36.04.37.01.36-.16.36.05h.36l.37-.12.36.16h.36l.36-.03.36.03.37-.07.36.04.36-.07.36.16.36.02.37.05.36-.31.36.14.36.14.36-.17.37.15.36.12.36-.15.36-.1.36.08.37.06.36.08.36-.03.36-.09.37.17.36.08.36-.19.36-.03.36.05.37-.02.36.03.36.02h.36l.36.08.37-.07.36-.1.36.16.36.08.36.09.37-.05.36-.04.36-.02.36.05.37-.15.36.25.36-.01.36-.08.36.16.37-.18.36-.08.36.28.36-.17.36.07.37.12.36-.04.36-.18h.36l.36.08.37-.17.36.29.36-.15.36-.01.36.08.37.02.36.09.36-.12.36.07.37-.08.36.19.36-.15.36.2.36-.09.37-.03.36.12.36-.02.36-.09.36-.13.37.19.36-.03.36.04.36-.12.36.15.37-.09.36.11.36-.09.36.11.37-.09.36.01.36-.06.36.16.36-.19.37.15.36.06.36-.1.36.04.36.13.37-.11.36.01.36-.05.36.01.36.14.37-.23.36.13.36-.05.36.18.37-.22.36.12.36.05.36.02.36-.07.37.12.36-.13.36.18.36.04.36-.22.37.07.36.02.36.03.36-.12.36.17.37-.09h.36l.36.02.36-.08.36.06.37.05.36.19.36-.2.36.21.37-.16.36.03h.36l.36-.02.36.1h.73l.36-.11"/><use xlink:href="#7b0da__a" color="#F44336" transform="matrix(3.75 0 0 3.75 240.55 102.83)"/><use xlink:href="#7b0da__a" color="#F44336" transform="matrix(3.75 0 0 3.75 220.55 7.51)"/></g><text stroke-linecap="round" stroke-linejoin="round" color="#000" font-family="KaTeX_Main" font-size="8" transform="translate(241.1 25.11)"><tspan>LBSTBottomUp</tspan></text><g fill="none" stroke="currentColor" stroke-linecap="round" stroke-linejoin="round" color="#000"><path stroke="#3B75EA" d="M205.6 22.51h29.9M28 124.1l.36.56.36-.51.37.31.36.04.36-.71.36.31.36.06.37-.27.36 1.24.36-.21.36.23.37-1.95.36 1.23.36 1 .36-.16.36-.07.37.63.36-1.5.36 1.54.36.26.36-.75.37.53.36-.46.36-.47.36-.82.36-1.05.37 2.28.36.97.36.18.36-.29.36-1.07.37.97.36.87.36-1.25.36.79.37.3.36-1.62.36.2.36 1.23.36-.29.37 1.38.36-.79.36-.47.36-.16.36.46.37.29.36-.7.36.43.36.35.36-1.98.37.1.36.21.36-.79.36.31.37.04.36-1.12.36 1.14.36-.07.36-.7.37.41h.36l.36-.24.36-1.68.36 2.33.37-.1.36-.19.36.68.36-.34.36-1.65.37 1.73.36.66.36-.85.36.42.37.4.36-1.81.36-1.09.36.75.36.94.37.81.36.25.36-1.02.36.22.36.78.37-.59.36 1.57.36-.9.36-.55.36-1.3.37.2.36 1.78.36.04.36-.24.36.41.37-1.22.36 1.44.36.08.36-.48.37.76.36-.5.36-1.87.36-.24.36-.36.37-.37.36 1.42.36 2.37.36-.95.36-.67.37.78.36-.37.36.29.36.25.36-.53.37-1.53.36.97.36 1.51.36-.42.37-.11.36.46.36-1.87.36 1.88.36-.01.37-.41.36.32.36-.22.36-.26.36-.77.37-.76.36.87.36 1.49.36.09.36-.57.37-1.11.36 1.08.36.56.36-.46.36.64.37-.19.36-1.4.36-.01.36 1.9.37-.79.36.8.36-.74.36-.07.36.24.37.5.36-.9.36.13.36.31.36.12.37-2.19.36.04.36.07.36-1.12.36 1.21.37-.44.36-1.35.36.94.36 1.11.37-1.12.36.68.36.3.36-1.2.36-1.09.37 1.58.36.27.36.94.36-.59.36-.23.37.12.36-.53.36.43.36-.12.36.12.37.19.36-2.26.36-.66.36.93.36 2.22.37.04.36.72.36-2.42.36.99.37 1.49.36-1.16.36.57.36-.12.36-.51.37-1.46.36 1.55.36.64.36.25.36.36.37-.32.36-1.64.36 1.16.36-.18.36-.87.37 1.25.36-.17.36-1.51.36-.18.37-.19.36-1.06.36.95.36 1.54.36-.23.37-.29.36 1.72.36-.92.36.88.36.1.37-.84.36-1.47.36.62.36.81.36.21.37-.05.36.52.36-1.71.36 1.48.37.44.36-1.61.36.77.36.48.36-1.41.37-.57.36.08.36.19.36 1.81.36.48.37-1.57.36-.24.36 1.24.36-.23.36 1.31.37-.95.36.31.36-1.76.36.29.36.78.37-.26.36.42.36.28.36-1.24.37.91.36.59.36-1.42.36 1.27.36.7.37-2.17.36-.19.36.37.36-1.22.36.55.37-.57.36.09.36-1.23.36 1.67.36-.71.37 1.79.36.93.36-.33.36-1.02.37-.54.36 1.48.36.09.36.55.36.05.37-2.4.36 1.95.36.5.36-1.08.36.94.37.15.36-1.94.36-.88.36.63.36-1.03.37 2.82.36.81.36-2.32.36.91.36 1.6.37-1.74.36 1.43.36.23.36-.98.37-1.12.36.2.36 1.2.36.81.36-1.02.37.2.36-.23.36.52.36.15.36-.56.37.75.36.32.36-2.21.36-.02.36.45.37-.94.36.75.36-.15.36-.71.37 1.94.36.4.36-.21.36-.72.36.58.37.21.36-1.93.36.87.36 1.82.36-1.24.37.67.36.85.36-2.38.36.98.36.85.37-1.08.36 1.37.36-.33.36-1.57.36-.83.37.24.36-.53.36 3.46.36-.29.37-1.04.36-1.11.36 1.77.36-.11.36.03.37-1.05.36.97.36-1.76.36-.05.36 2.24.37-1.77.36 2.01.36.27.36-1.53.36.43.37.07.36-.42.36-.05.36.14.37-.51.36-1.31.36.25.36-.16.36.32.37-.13.36-.22.36-.79.36 1.46.36-.61.37-.21.36.58.36-.08.36-1.81.36.02.37 1.94.36-1.49.36 1.39.36.22.37-1.14.36-.62.36 2.07.36-1.17.36 1.14.37.27.36-.75.36-1.15.36-.3.36-.06.37 1.12.36.38.36.52.36-1.58.36 1.62.37.07.36-.93.36.44.36.02.36-.76.37-.81.36 1.27.36 1.09.36-1.18.37.89.36-.14.36-1.51.36 1 .36.12.37-.69.36 1.01.36.2.36-.89.36-1 .37-.38.36-.17.36-.34.36.34.36 1.89.37-.93.36.94.36.56.36-.75.37.02.36.79.36-1.19.36-1.28.36 2.08.37-.3.36.64.36.05.36.06.36-1.54.37.97.36.3.36-.83.36.68.36.57.37-1.66.36-.97.36.58.36 1.44.36 1.18.37-.8.36.37.36-1.41.36 1.34.37.38.36-1.05.36.55.36-.15.36-.94.37-1.55.36 2.11.36-.16.36.57.36-.42.37.44.36-1.04.36.39.36 1.09.36-.87.37.61.36.62.36-2.2.36-.11.37.1.36-.31.36-.36.36.11h.36l.37-.74.36.83.36.16.36 1.17.36 1.09.37-.22.36-2.17.36.63.36 2.06.36-1.37.37.72h.36l.36-.72.36-.16.37.34.36.41.36-.36.36.3.36.49.37-1.67.36-1.04.36 1.36.36-.23.36.38.37 1.14.36-2.16.36.1.36 2.04.36-1.69.37 1.78.36.32.36-1.29.36-1.67.36 1.58.37.36.36 1.14.36-.74.36.12.37-1.04.36.95.36.49.36-.85.36.81.37.09.36-1.74.36-1.07.36.49.36-.18.37.39.36 1.4.36.29.36-.91.36 1.37.37-.36.36-.69.36-.14.36 1.03.37-1.27.36-.99.36 1.72.36-.08.36.47.37-.3.36-.03.36-.41.36.35.36-.58.37.9.36-.3.36.32.36-1.32.36-.45.37.53.36-.07.36 1.61.36.2.36-1.54.37.39.36.86.36.07.36-.05.37-.93.36.68.36-1.15h.36l.36 1.58.37-1.32.36 1.32.36.43.36-2.13.36 1 .37.77.36-.76.36.11.36.02.36-.82.37-1.46.36-.08.36.26.36-.12.37.39.36-.55.36-.66.36.64.36.59.37-.14.36.45.36.29.36-1.72.36-.91.37 1.97.36-.35.36 2.07.36.34.36-.34.37.03.36.84.36-.08.36.22.36-.53.37.21.36-1.82.36-.71.36.79.37.44.36 1.75.36-.65.36-.76.36-.02.37.38.36-.02.36.59.36-.57.36.82.37-2.05.36.42.36.97.36-.52.36.83.37.97.36-1.83.36.79.36 1.01.37-.55.36.21.36-.53.36.36.36-1.51.37-.57.36.55.36-1.13.36.43.36 1.91.37-.63.36 1.22.36-.62.36-.26.36.52.37-.54.36.12.36-.97.36 1.37.37-.11.36-.22.36.22.36.06.36-1.63.37 1.19.36 1.28.36-1.32.36.46.36-.19.37-.33.36-1 .36-.73.36 1.08.36 1.37.37-.52.36.28.36-2.07.36 1.74.36.32.37-1.19.36.66.36.27.36-1.11.37-.42.36 1.72.36-.27.36-.48.36 1.35.37-2.19.36.33.36 1.94.36-1.71.36 1.15.37-.22.36-.39.36-1.95.36.28.36-.02.37.48.36-.11.36-.11.36-1.41.37 1.11.36.69.36 1.09.36.77.36.56.37-1.87.36-.85.36 1.51.36-.46.36 1.07.37-.15.36-.96.36.23.36 1.09.36-1.23.37.67.36.13.36-.18.36-1.43.36.4.37-.66.36.26.36 2.33.36.35.37-2.09.36 1.17.36.36.36-.99.36 1.22.37.3.36-1.1.36-1.34.36-.07.36 1.72.37.5.36-.64.36-.32.36-1.66.36 1.49.37 1.09.36-1.25.36.79.36-.47.37-.6.36-.8.36-.32.36-1.01.36.37.37 1.05.36-1.41.36 2.56.36.57.36-.38.37.75.36.38.36-1.71.36-.4.36-.34.37 2.14.36.89.36-1.04.36-.59.36-.9.37.66.36.89.36-.39.36.82.37.51.36-1.92.36-.39.36-.23.36-.17.37 1.82.36-.01.36.15.36-.72.36.5.37.29.36-.89.36.72.36.72.36-2.03.37-.36.36 1.85.36-.64.36.27.37.07.36.19.36-.89.36 1.6.36-1.07.37-.02.36.58.36.42.36-1.75.36-.66.37.17.36-1.26.36 1.62.36-.83.36.06.37-.64.36.96.36.49.36-.83.37-.42.36.69.36-.94.36-1.6.36 2.31.37-.65.36.3.36.87.36-.69.36-1.02.37 1.98.36-.6.36-.16.36-.01.36.6.37-1.88.36-1.33.36.44.36 1.51.36-.13.37 1.07.36-1.42.36.43.36 1.41.37-1.51.36.83.36-.14.36-.15.36-1.53.37.74.36 2.04.36-1.73.36.36.36.16.37-.97.36 1.11.36.29.36-.89.36 1.23.37-.18.36-.74.36-1.09.36-.31.37-.36.36.72.36.25.36 1.1.36-.76.37.09.36.82.36-.74.36.85.36-.06.37-.82.36-1.48.36 1.3.36.83.36-1.39.37 1.93.36-.92.36-2.66.36 3.59.36-1.58.37 1.04.36.76.36-1.69.36-.72.37.09.36-.24.36 1.17.36 1.04.36.29.37-.54.36.78.36.31.36-.74.36-1.34.37 1.07.36-1.41.36.08.36-.35.36.67.37.51.36.67.36-1.42.36-.77.37 2.77.36-1.14.36-.2.36.82.36-.51.37-1.21.36-.59.36-.64.36-.62.36 1.06.37-.01.36-.64.36 1.57.36-.25.36-.75.37.32.36 2.38.36-1.53.36-.56.36 1.26.37.32.36 1.15.36-.57.36.15.37-.72.36.62.36.36.36-.4.36-.53.37.37.36-.57.36-.75.36-1.2.36-.21.37 2.17.36.83.36-.94.36-.53.36 1.81.37-.58.36.29.36-.59.36-.08.37-2.05.36.41.36 2.3.36-1.04.36.97.37-.15.36-.85.36-.04.36.6.36-.42.37.04.36.36.36-.38.36-.69.36-1.04.37.17.36-.3.36.45.36.38.37-1.56.36 3.01.36.48.36-.58.36.31.37.45.36-.42.36-1.76.36.65.36.7.37.82.36-.55.36.55.36-1.38.36.47.37.97.36-.78.36.54.36-.13.36-1.04.37-1.46.36.8.36-1.29.36 2.31.37 1.19.36-.69.36-.73.36 1.39.36.16.37-1.55.36.37.36 1.15"/><use xlink:href="#7b0da__f" color="#3B75EA" transform="matrix(3.75 0 0 3.75 298.12 128.58)"/><use xlink:href="#7b0da__f" color="#3B75EA" transform="matrix(3.75 0 0 3.75 220.55 22.51)"/></g><text stroke-linecap="round" stroke-linejoin="round" color="#000" font-family="KaTeX_Main" font-size="8" transform="translate(241.1 40.11)"><tspan>LBSTRelaxed</tspan></text><g fill="none" stroke="currentColor" stroke-linecap="round" stroke-linejoin="round" color="#000"><path stroke="#FFAB00" stroke-dasharray="4.0,2.0,1.0,2.0" d="M205.6 37.51h29.9M28 103.71l.36-.89.36-.4.37-2.62.36 5.41.36-1.63.36.31.36-1.06.37 1.13.36-.63.36-.81.36-.01.37-.31.36 2.28.36-1.59.36.18.36-1.95.37 3.23.36-1.81.36-.61.36-.23.36.83.37 4.03.36-.81.36-.28.36-.83.36 1.43.37-1.5.36.21.36-2.1.36 5.06.36-1.82.37-.76.36-.44.36-.4.36.51.37-.96.36-.1.36-1.43.36 5.09.36-.76.37-.35.36-1.13.36-.12.36.57.36-1.18.37.05.36-1.23.36 3.3.36-2.04.36 1.31.37-1.58.36.27.36-.1.36-.46.37-.89.36-1.97.36 5.57.36-.6.36-.27.37-1.2.36 1.47.36-.81.36-.52.36-.89.37 1.56.36.39.36-.34.36-.78.36-1.05.37 1.47.36-1.05.36-.49.36-1.21.37 3.43.36.58.36-.5.36-.77.36-.36.37.63.36-1.58.36.43.36-3.04.36 5.17.37-1.51.36-.11.36-.94.36-.4.36.78.37-1.64.36.53.36-1.87.36 7.42.36-.74.37.01.36-1.27.36 1.44.36-1.41.37.93.36-1.51.36 1.2.36.51.36-.66.37-.22.36-1.41.36 1.64.36-1.85.36.86.37-3.5.36 6.98.36-1.53.36-.59.36-.38.37-.63.36.82.36-1.52.36.05.37-2.14.36 4.43.36-1.53.36-.45.36-.53.37-.62.36 1.3.36-1.58.36-.03.36-2.13.37 7.27.36-1.32.36.22.36-1.49.36 1.17.37-.86.36-.69.36-.58.36-.3.36 2.3.37-1.21.36.06.36-1.23.36.77.37-.53.36-.35.36-.77.36.46.36 3.17.37-1.18.36-.56.36-1.66.36 2.61.36-1.45.37-.36.36-.96.36-.36.36 2.44.36-1.29.37.01.36-2.01.36 3.12.36-2.02.37-.73.36-6.21.36 11.59.36-.85.36.02.37-1.54.36.67.36-.33.36-.53.36-.48.37-.66.36 2.28.36-.89.36.2.36-1.62.37.92.36-.41.36-.51.36-.55.36.71.37 2.55.36-1.19.36.05.36-2.12.37 3.05.36-1.84.36-.27.36-.95.36-.04.37 2.05.36-1.21.36-.41.36-.62.36.67.37-.32.36-.67.36-.68.36 2.68.36 1.87.37-.03.36-1.33.36-.07.36.97.37-1.76.36 1.01.36-1.91.36 1.46.36.31.37-.49.36-.37.36-.9.36 1.17.36-1.01.37.07.36-4.15.36 6.92.36-1.28.36-.39.37-.68.36-.84.36 1.13.36-1.22.37.9.36-1.93.36 1.39.36.58.36-.6.37-.53.36-1 .36 1.29.36-1.12.36-5.57.37 12.63.36-.3.36-.64.36-1.37.36 1.6.37-.94.36-.14.36-1.2.36.74.36 1.38.37-1.19.36.02.36-1.66.36 2.4.37-1.95.36-.07.36-.9.36.26.36 2.67.37-.02.36-.46.36-1.51.36 1.96.36-1.1.37-.3.36-1.32.36.83.36 1.7.36-1.19.37-.69.36-1.76.36 2.84.36-2.22.37.05.36-3.85.36 9.16.36-1.54.36-.36.37-.71.36-.15.36.33.36-1.43.36.73.37-1.56.36 1.93h.36l.36-.69.36-.59.37-.75.36.99.36-1.31.36.18.36-3.06.37 6.08.36-.53.36-1.06.36-.59.37-.39.36.62.36-.92.36.19.36-1.28.37 1.68.36-.08.36-.4.36-.36.36-.91.37.79.36-1.68.36 1.32.36-.1.36 5.07.37-.56.36-.74.36-.29.36.85.37-.97.36-.63.36-.94.36 1.73.36.03.37-.67.36-.86.36-.47.36 1.14.36-.56.37-.53.36-1.34.36 1.61.36 1.41.36-.25.37-.56.36-.8.36 1.11.36-1.09.36-.07.37-1.23.36 1.24.36.81.36-.7.37-.41.36-1.63.36 1.93.36-1.17.36-.61.37-3.58.36 9.28.36-1.69.36-.63.36-.5.37-.51.36.72.36-1.34.36-.25.36-1.46.37 3.7.36-1.1.36-1.03.36-.45h.37l.36.65.36-1.57.36.55.36-2.56.37 5.09.36-.56.36-.67.36-.64.36-.05.37.31.36-1.01.36-.12.36-2.64.36 4.79.37-1.35.36-.61.36-.62.36-.51.37.39.36-15.86.36 22.97.36-1.57.36-.22.37-.38.36-.98.36 1.02.36-1.42.36.34.37-1.41.36 1.62.36-.01.36-.35.36-.63.37-.98.36 1.12.36-.6.36-.55.36-1.31.37 2.06.36 1.53.36-.71.36-.57.37-.7.36 1.08.36-.88.36-.2.36-1.33.37 1.12.36.7.36-.55.36-.58.36-1.15.37 2 .36-1.3.36-.85.36-3.26.36 8.65.37-.65.36-1.06.36-.68.36-.09.37.06.36-.87.36.08.36-3.18.36 5.47.37-1.95.36-.69.36-.02.36-.89.36 1.07.37-1.66.36.21.36-3.61.36 7.15.36-1.49.37-.69.36-.13.36-.73.36.7.36-1.57.37.92.36-1.79.36 1.54.36.32.37-.4.36-.83.36-.91.36 1.13.36-.55.37-.64.36 1.84.36 4.33.36-1.27.36-.06.37-1.1.36 1.31.36-1.26.36-.25.36-.73.37 1.21.36.74.36-.79.36-.83.37-.96.36 1.54.36-.86.36-.7.36-.74.37 1.29.36 1.9.36-.56.36-.53.36-1.39.37 1.97.36-1.3.36-.95.36-.39.36.06.37 2 .36-1.32.36-.39.36-.44.37.96.36-1.16.36-.99.36-3.7.36 8.8.37-1.64.36 1.03.36-1.79.36.11.36.57.37-1.57.36.71.36-1.66.36 1.4.36.43.37-.6.36-.13.36-1.31.36 1.4.36-1.01.37-.58.36-.88.36 1.66.36 1.67.37-.72.36-.54.36-.76.36 1.08.36-.84.37-.65.36-.92.36 1.3.36.72.36-1.08.37-.49.36-.93.36-11.74.36 21.17.36-1.02.37-.41.36-.27.36.51.36-1.1.37-.15.36-.84.36.3.36 1.89.36-1.39.37-.13.36-.91.36 1.12.36-.91.36-.85.37-.34.36-1.41.36 4.85.36-1.63.36.88.37-1.48.36.27.36.08.36-1.02.36-.88.37-.64.36 3.1.36-1.17.36-.24.37-.79.36-.28.36.5.36-1.66.36.85.37-1.65.36 6.13.36-1.5.36.77.36-1.44.37.6.36-.69.36-.75.36-.32.36-.56.37 2.43.36-.98.36-.41.36-1.12.37.44.36.12.36-1.39.36-.3.36-.65.37 4.03.36-1.15.36-.05.36-.87.36.39.37-.1.36-1.2.36-.42.36-1.27.36 4.06.37-1.3.36-.69.36-.7.36-.43.36.63.37-1.54.36-4.26.36 11.2.36-.74.37-.35.36-1.04.36-.46.36.92.36-1.24.37-.35.36-.85.36 1.51.36.17.36-.83.37-.41.36-.92.36 1.07.36-.71.36-.33.37-3.29.36 6.91.36-1.4.36-.81.37-.34.36-.88.36 1.07.36-.8.36-.67.37-.86.36 1.2.36.65.36-1.02.36.08.37-1.76.36 2.47.36-1.53.36-.94.36-2.76.37 7.8.36-1.62.36.6.36-1.26.37-.53.36.46.36-.58.36-.36.36-.67.37 1.87.36-.23.36-1.01.36-.6.36-.72.37 1.28.36-.74.36-.83.36-.72.36 2.1.37 1.27.36-.84.36-.4.36-.9.36 1.04.37-.84.36-.61.36-.92.36 1.2.37.75.36-1.16.36.01.36-1.46.36 2.33.37-1.39.36-3.46.36 10.77.36-1.32.36-.02.37-1.9.36 2.31.36-1.33.36-.65.36-.32.37.29.36 1.34.36-1.19.36.04.37-1.31.36.89.36-.65.36-.7.36-.33.37-.35.36 3.81.36-1.51.36-.59.36-1.05.37 2.49.36-1.37.36-.88.36-.59.36-.24.37 2.09.36-1.61.36.75.36-1.3.36.56.37-.18.36-1.36.36-.33.36 1.3.37 3.22.36-.72.36-.45.36-1.34.36 1.74.37-.81.36-.61.36-.77.36.17.36 1.67.37-1.28.36.21.36-1.2.36 1.07.36-.72.37-.92.36-.62.36.4.36 3.25.37-1.35.36.14.36-1.29.36.95.36-.76.37-.38.36-.68.36-.5.36 2.33.36-1.05.37-.37.36-1.02.36.48.36.07.36-1.32.37-3.24.36 10.73.36-1.51.36-.71.36-.69.37-.62.36.77.36-1.32.36.27.37-1.5.36 2.62.36-.3.36-.72.36-.69.37-.24.36.54.36-1.8.36.62.36-2.66.37 5.75.36-1.23.36-.32.36-.62.36-.19.37.47.36-1.73.36.46.36-1.28.37 2.44.36-.51.36-.45.36-.59.36-.92.37 1.38.36-1.23.36-.43.36-2.65.36 7.24.37-1.66.36.72.36-1.3.36-.3.36.89.37-1.23.36-.48.36-1.29.36 3.9.37-1.66.36-.46.36-.49.36-.65.36 1.07.37-1.03.36-.53.36-2.91.36 6.45.36-1.66.37-.21.36-.35.36-.84.36.82.36-.88.37-.6.36-.79.36 1.77.36.04.36-1.47.37-.26.36-23.62.36 32.87.36-1.54.37-.78.36-.27.36-.54.36.6.36-.78.37-.26.36-1.17.36 1.86.36.36.36-.95.37-.34.36-1.32.36 2.1.36-1.71.36-.59.37-.39.36.41.36 2.81.36-1.01.37-.36.36-.93.36 1.19.36-.81.36-.42.37-.86h.36l.36 1.77.36-1.69.36 1.09.37-1.29.36-.29.36.27.36-1.1.36-.48.37.66.36 4.11.36-.69.36-.5.36-1.73.37 2.52.36-1.2.36-.96.36-.55.37.26.36 1.85.36-1.74.36.59.36-1.56.37.63.36-.16.36-.8.36-.41h.36l.37 3.33.36-1.46.36.69.36-1.31.36.82.37-.57.36-1.13.36-.11.36-.98.37 2.85.36-.97.36-.61.36-.94.36-.14.37.65.36-1.92.36-2.39.36 9.84.36-1.14.37-.29.36-1.08.36-.04.36.77.36-1.64.37.62.36-2.47.36 3.92.36-1.49.36-.46.37-.48.36-1.11.36.63.36-.19.37-.64.36-3.59.36 7.51.36-1.38.36-.68.37-.69.36-.47.36.81.36-.89.36-.58.37-.91.36 1.69.36.55.36-1.39.36-.15.37-.68.36.93.36-.85.36-.65.37-3.73.36 8.18.36-.83.36.01.36-1.19.37-.53.36.91.36-1 .36-.05.36-.95.37 1.5.36.5.36-1.09.36-.65.36-1.32.37 2.12.36-1.29.36-.82.36-.04.37.96.36 1.86.36-.77.36-.52.36-1.51.37 1.93.36-1.39.36-.13.36-.45.36-.01.37 1.49.36-1.21.36.22.36-1.23.36.31.37.08.36-3.04.36 10.03.36-1.29.36.77.37-1.65.36.63.36-.32.36-.76.37-.55.36-.32.36 2.03.36-1.33.36.13.37-.96.36.19.36.2"/><use xlink:href="#7b0da__g" color="#FFAB00" transform="matrix(3.75 0 0 3.75 355.7 110.09)"/><use xlink:href="#7b0da__g" color="#FFAB00" transform="matrix(3.75 0 0 3.75 220.55 37.51)"/></g><text stroke-linecap="round" stroke-linejoin="round" color="#000" font-family="KaTeX_Main" font-size="8" transform="translate(241.1 55.11)"><tspan>TreapTopDown</tspan></text><g fill="none" stroke="currentColor" stroke-linecap="round" stroke-linejoin="round" color="#000"><path stroke="#00C853" stroke-dasharray="4.5,2.0,0.5,2.0,0.5,2.0" d="M205.6 52.51h29.9M28 137.35l.36-1.71.36-1.01.37-4.22.36 1.14.36-1.83.36-.08.36-2.17.37-2 .36 4.5.36 8.3.36-1.44.37 2.03.36 6.7.36-8.52.36.71.36-.4.37 4.6.36-2.12.36-.93.36 2.94.36-2.52.37-.87.36-.37.36-2.77.36-4.71.36-6.44.37 2.96.36 4.63.36 9.41.36-4.24.36 4.59.37-3.48.36-6.99.36 7.85.36-2.25.37-5.56.36-1.32.36.53.36 4.25.36-1.53.37-1.19.36 8.95.36-.28.36-2.56.36 1.2.37-3.12.36-1.8.36 2.87.36-.08.36-1.81.37-2.61.36 2.13.36-2.28.36.19.37 2.23.36-5.85.36 3.92.36.32.36-.29.37-4.58.36-3.79.36 5.72.36-2.91.36-.41.37 1.01.36 7.79.36-2.82.36 3.7.36-3.83.37-5.24.36-.42.36.76.36 10.53.37 1.23.36.48.36-1.32.36.42.36-.84.37 1.41.36-3.51.36 1.51.36 3.05.36-1.39.37-3.49.36-3.21.36-5.01.36 13.85.36-1.96.37-1.94.36 1.71.36-4.66.36 2.71.36-3.9.37 3.48.36-3.5.36-1.31.36-1.71.37 1.3.36 5.23.36.83.36-.98.36-.13.37-2.53.36-3.48.36-5.23.36.57.36 4.99.37 4.4.36-1.28.36.01.36-2.98.36-.42.37-1.01.36-1.89.36.33.36-1.38.37 10.05.36 5.23.36-2.61.36 4.04.36-3.63.37 2.22.36-2.56.36-1.14.36 1.53.36-.87.37-5.57.36-1.42.36-2.31.36-1.81.36-1.42.37 6.91.36-1.87.36 5.56.36-3.68.36-2.05.37 2.82.36-2.46.36 1.47.36-5.06.37 5.33.36-.08.36-3.96.36-2.06.36 4.97.37-8 .36-4.36.36 10.76.36.25.36 4.44.37 6.25.36-.74.36 1.33.36-1.95.36-4.05.37 2.48.36-.3.36-.59.36-.8.37-.77.36-.71.36-2.81.36-2.07.36 7.91.37 1.06.36-4.68.36-1.09.36 1.49.36-2.5.37 3.7.36.1.36 2.11.36-4.07.36-.44.37.36.36 4.39.36-4.23.36 2.21.36-1.18.37-5.41.36-3.26.36 5.46.36-4.33.37.96.36-2.73.36 5.31.36-.36.36.43.37 3.67.36-.45.36-.99.36-3.46.36-.25.37 7.68.36-2.78.36-.33.36-2.05.36-2.14.37 1.05.36 6.5.36-1.3.36-3.55.37.57.36 1.33.36-2.25.36-2.69.36-.5.37-.85.36 2.66.36.06.36-5.69.36 3.72.37 3.88.36-.86.36-3.37.36-2.11.36 1.86.37-1.74.36.53.36 1.93.36-.08.37 3.73.36-1.53.36 2.89.36-.99.36.54.37-5.23.36.5.36 1.41.36.52.36 2.46.37 3.84.36 5.57.36.02.36-1.34.36-.28.37-1.82.36-2.51.36.46.36-3.7.36.26.37-.4.36 3.11.36.02.36 1.36.37-3.38.36-2.39.36 8.78.36-1.83.36 1.85.37-3.73.36 1.25.36-1.28.36.55.36 2.13.37-3.15.36-4.15.36 7.06.36-1.65.36-2.83.37 1.19.36-1.86.36-3.29.36 8.69.37-3.93.36 1.5.36-.64.36-3.26.36-4.27.37 6.64.36-7.08.36 3.77.36.96.36-3.02.37-2.17.36 1.88.36 1.63.36.24.36-1.14.37 1.05.36 1.37.36-4.19.36 1.01.36-1.06.37 2.04.36.46.36 6.02.36-6.37.37 1.49.36 6.8.36 2.01.36-2.55.36-1.37.37-3.48.36-4.6.36 4.55.36 12.78.36-2.11.37.57.36-3.2.36.08.36.59.36-4.66.37.11.36-4.38.36-.34.36.61.37.35.36 2.23.36.23.36-1.39.36-1.75.37 1.62.36-1.2.36-.72.36.37.36 4.51.37-1.53.36 2.46.36.96.36-1.34.36-3.4.37-4.09.36.05.36 4.46.36-3.53.36-1.6.37 7.4.36-.07.36-3.41.36-3.76.37.87.36.83.36 1.29.36 7.93.36.85.37 1.33.36-2.52.36-1.81.36-2.76.36-3.39.37-3.94.36 7.58.36.27.36-.11.36-1.43.37 3.31.36-2.36.36-2.51.36 1.19.37-2.19.36.69.36-3.84.36 3.07.36 1.33.37 1.24.36 4.01.36-.83.36-4.18.36.41.37.01.36-1.92.36.67.36-1.79.36 9.97.37-1.2.36.51.36-1.37.36-2.08.37-2.6.36-.39.36 3.44.36.88.36.88.37-2.59.36 3.11.36.08.36-4.74.36 3.35.37-.07.36-5.28.36 5.53.36.61.36-2.32.37.95.36-.58.36-2.15.36-.37.36-1.37.37-1.02.36 4.6.36 3.8.36-.16.37-1.84.36.24.36-1.49.36.27.36-3.71.37 1.14.36 1.63.36.64.36-3.31.36 7.53.37 2.59.36-.38.36.48.36-4.97.36.09.37-1.47.36 2.47.36-1.3.36-1.4.37 3.72.36-4.09.36 2.51.36.51.36-1.94.37-.82.36-2.63.36-.54.36.05.36-.78.37 8.53.36-.12.36-3.01.36-.87.36 2.38.37-3.63.36 3.52.36-.23.36 1.19.36-1.15.37.58.36-2.48.36.02.36-4.14.37 1.67.36-2.48.36-1.6.36 1.62.36 1.06.37-5.49.36-2.43.36 6.8.36 2.25.36-1.92.37-4.61.36-7.96.36 15.26.36.34.36-2.8.37-.83.36-1.98.36.28.36 2.18.37-3.23.36 1.99.36-1.22.36-3.63.36 1.43.37-.85.36 1.33.36.37.36-4.74.36.51.37-2.91.36-.85.36 3.33.36 4.12.36-1.52.37-2.47.36.52.36-1.45.36-3.69.37-.36.36-1.32.36 4.79.36-2.75.36-1.53.37.13.36 5.61.36 3.15.36-1.98.36-3.01.37 3.32.36-1.63.36 1.33.36-2.12.36-1.5.37.65.36 1.91.36 3.33.36 1.47.36.54.37-.98.36 1.34.36-5.55.36-6.2.37 6.36.36 4.88.36-.69.36-1.01.36-.81.37.33.36-1.52.36 2.56.36-1.91.36-3.92.37 3.1.36-.83.36-.55.36 1.82.36-.97.37-.28.36 2.07.36 6.42.36 2.18.37-.26.36-5.55.36 2.48.36 1.34.36-1.21.37-.91.36-.88.36-.93.36-1.53.36 2.08.37.86.36 2.8.36-3.35.36-.75.36-3.61.37-1.92.36-3.5.36 9.08.36 6.33.36.42.37-3.04.36 1.86.36.42.36-3.1.37.4.36.59.36-1.14.36 1.65.36 1.85.37-5.24.36-.83.36.35.36-.86.36.91.37-4 .36-1.56.36-.32.36 3.35.36-.3.37-.28.36.95.36-2.01.36 4.88.37-1.9.36-1.61.36 3.18.36-2.17.36-.63.37 4.54.36-1.07.36.89.36-2.07.36-1.61.37-2.43.36 2.25.36-3.93.36-.93.36 2.67.37 2.05.36-2.83.36 4.26.36 1.01.36-3.32.37 3.34.36-.5.36-1.83.36-5.51.37 7.08.36.29.36.07.36 6.54.36 1.67.37-1.52.36 2.04.36-1.18.36 1.81.36-1.44.37-3.37.36 3.57.36.48.36-.96.36-3.18.37-3.92.36 7.61.36 1.02.36.35.37-1.53.36-2.17.36 2.24.36-2 .36-3.01.37-2.68.36-.34.36 6.39.36-.51.36.22.37 1.37.36-3.12.36-3.13.36-1.96.36 2.43.37 1.7.36-1.24.36-4.86.36.96.37.3.36 8.68.36-4.65.36 5.02.36-2.83.37.93.36.03.36.28.36-1.93.36-5.47.37 5.02.36 2.01.36 3.68.36-1.87.36-2.06.37-.52.36-3.18.36 3.52.36-.6.36.05.37-2.13.36 2.01.36-.09.36.63.37-4.66.36-3.62.36 4.29.36 1.4.36-.26.37-2.32.36-.81.36 2 .36 2.13.36-.45.37 1.55.36-4.65.36 1.74.36 2.99.36 2.36.37-2.17.36-6.03.36-4.85.36 6.34.37 1.77.36.11.36-1.28.36.66.36-2.19.37 2.64.36-1.12.36-3.76.36 3.95.36-3.35.37 2.1.36 2.74.36-3.02.36 2.03.36 1.51.37-4.71.36 1.25.36-.08.36-3 .36 2.57.37.55.36.25.36-3.06.36 4.02.37-.92.36-.62.36-3.16.36 1.4.36 1.05.37.02.36 3.98.36 3.44.36-2.34.36-.78.37.15.36.45.36-1.41.36-1.74.36-1.52.37 4.21.36-1.92.36-.97.36.73.37.89.36-.29.36-1.3.36-2.32.36 1.14.37 3.35.36-5.5.36 2.08.36-4.6.36 3.07.37 3.44.36-1.39.36.39.36 1.08.36 1.26.37-1.06.36-4.08.36 4.26.36-1.98.36 1.63.37 1 .36.3.36-2.42.36-.87.37-4.59.36 4.53.36.06.36-.37.36 3.36.37 12.07.36-2.97.36-1.47.36-3.25.36 1.54.37-2.75.36.45.36-.08.36-4.07.36 2.46.37.53.36-2.07.36-3.44.36 6.76.37 1.92.36.68.36-3.28.36 2.69.36.16.37-2.33.36 1.72.36-3.16.36-.01.36 1.19.37-.33.36 2.7.36-1.96.36-2.7.36 2.49.37 3.39.36-.6.36-2.47.36.04.37-1.54.36.58.36-.74.36.81.36-3.62.37 8.95.36.59.36-1.19.36-4.07.36-1.53.37-.17.36-1.02.36 5.14.36-.58.36-3.49.37 2.66.36 1.33.36.86.36-.04.36-1.38.37-3.13.36 1.02.36-3.79.36 2.89.37-.29.36-.7.36-.46.36 2.59.36 1.79.37-.98.36-.07.36 2.51.36-3.53.36.44.37-3.05.36.09.36 2.75.36-2.02.36-1.62.37 1.19.36-3.53.36.54.36-3.22.37 6.12.36-1.31.36.47.36 3.4.36-2.28.37 2.55.36-1.88.36-.46.36-.46.36 1.03.37 3.72.36-.66.36-.24.36-3.73.36-.85.37-.5.36-.21.36 1.97.36-.59.36-2.22.37-1.17.36.59.36 5.64.36-1.53.37-1.93.36 6.21.36-2.08.36-4.77.36 1.31.37.9.36.01.36-1.11.36-4.55.36 3.02.37.68.36-4.66.36-1.71.36-.57.36 2.19.37 2.43.36-1.2.36 5.86.36-2.22.37 1.12.36 1.55.36.3.36-1.06.36-2.65.37 1.37.36-.36.36-5.44.36 3.91.36-1.12.37-1.84.36 3.3.36-1.75.36 1.08.36-1.75.37-.5.36-2.92.36.03.36 1.48.36-.7.37 2.97.36 4.76.36.44.36-6.34.37 4.19.36-.45.36-4.88.36-3 .36 7 .37-.41.36 1.67.36-2.55.36 1.33.36 5.25.37-2.92.36.67.36-1.76.36-2.99.36-2.39.37-2.49.36 8.48.36.82.36-.03.37-.59.36-2.39.36-4.8.36 4.26.36 2.86.37-1.21.36-.08.36 5.07.36-3.82.36 1.7.37-1.9.36-1.56.36 1.42.36-4.04.36 4.73.37.84.36-2.25.36-1 .36-.93.37-.57.36.31.36-4.04.36 1.68.36 3.43.37.42.36-4.12.36-3.12.36.51.36-3.34.37-2.6.36-1.58.36 10.08.36.64.36.74.37-2.98.36 2.39.36-.49.36.61.36-3.73.37 4.52.36-1.01.36-.28.36-.96.37-3.73.36.36.36 3.25.36-3.79.36 1.63.37-.86.36.41.36-2.17"/><use xlink:href="#7b0da__h" color="#00C853" transform="matrix(3.75 0 0 3.75 69.28 127.96)"/><use xlink:href="#7b0da__h" color="#00C853" transform="matrix(3.75 0 0 3.75 220.55 52.51)"/></g><path fill="none" d="M28 75.01v87.49m343.99-87.49H28" color="#000"/></svg>