<svg xmlns="http://www.w3.org/2000/svg" xmlns:xlink="http://www.w3.org/1999/xlink" viewBox="0 0 400 200"><path fill="none" d="M0 0h400v200H0z"/><defs><path id="d1f87__b" stroke="currentColor" stroke-width=".267" d="M-1-1h2v2h-2z"/><path id="d1f87__d" fill="currentColor" stroke="currentColor" stroke-width=".267" d="M-1-1h2v2h-2z"/><path id="d1f87__a" stroke="currentColor" stroke-width=".267" d="m0-1.33-1.33 2h2.66z"/><path id="d1f87__h" stroke="currentColor" stroke-width=".267" d="M0 1.33 1.265.411.782-1.067l-1.564-.009-.483 1.487z"/><use xlink:href="#d1f87__a" id="d1f87__e" fill="currentColor" stroke="none"/><use xlink:href="#d1f87__b" id="d1f87__c" stroke="currentColor" transform="rotate(45)"/><use xlink:href="#d1f87__c" id="d1f87__g" fill="currentColor" stroke="none"/><circle id="d1f87__f" cx="0" cy="0" r="1" stroke="currentColor" stroke-width=".267"/></defs><path fill="none" stroke="#CCC" stroke-linecap="round" stroke-linejoin="round" stroke-width=".1" d="M46.1 162.5V75.01" class="d1f87__gridline" color="#000"/><g fill="none" stroke-linecap="round" stroke-linejoin="round" stroke-width="0" color="#000"><path d="M46.1 162.5V155m0-79.99v7.5"/><text fill="#000" font-family="KaTeX_Main" font-size="8" text-anchor="middle" transform="translate(46.1 172.6)"><tspan> 1</tspan></text></g><path fill="none" stroke="#CCC" stroke-linecap="round" stroke-linejoin="round" stroke-width=".1" d="M82.31 162.5V75.01" class="d1f87__gridline" color="#000"/><g fill="none" stroke-linecap="round" stroke-linejoin="round" stroke-width="0" color="#000"><path d="M82.31 162.5V155m0-79.99v7.5"/><text fill="#000" font-family="KaTeX_Main" font-size="8" text-anchor="middle" transform="translate(82.31 172.6)"><tspan> 2</tspan></text></g><path fill="none" stroke="#CCC" stroke-linecap="round" stroke-linejoin="round" stroke-width=".1" d="M118.52 162.5V75.01" class="d1f87__gridline" color="#000"/><g fill="none" stroke-linecap="round" stroke-linejoin="round" stroke-width="0" color="#000"><path d="M118.52 162.5V155m0-79.99v7.5"/><text fill="#000" font-family="KaTeX_Main" font-size="8" text-anchor="middle" transform="translate(118.52 172.6)"><tspan> 3</tspan></text></g><path fill="none" stroke="#CCC" stroke-linecap="round" stroke-linejoin="round" stroke-width=".1" d="M154.73 162.5V75.01" class="d1f87__gridline" color="#000"/><g fill="none" stroke-linecap="round" stroke-linejoin="round" stroke-width="0" color="#000"><path d="M154.73 162.5V155m0-79.99v7.5"/><text fill="#000" font-family="KaTeX_Main" font-size="8" text-anchor="middle" transform="translate(154.73 172.6)"><tspan> 4</tspan></text></g><path fill="none" stroke="#CCC" stroke-linecap="round" stroke-linejoin="round" stroke-width=".1" d="M190.94 162.5V75.01" class="d1f87__gridline" color="#000"/><g fill="none" stroke-linecap="round" stroke-linejoin="round" stroke-width="0" color="#000"><path d="M190.94 162.5V155m0-79.99v7.5"/><text fill="#000" font-family="KaTeX_Main" font-size="8" text-anchor="middle" transform="translate(190.94 172.6)"><tspan> 5</tspan></text></g><path fill="none" stroke="#CCC" stroke-linecap="round" stroke-linejoin="round" stroke-width=".1" d="M227.15 162.5V75.01" class="d1f87__gridline" color="#000"/><g fill="none" stroke-linecap="round" stroke-linejoin="round" stroke-width="0" color="#000"><path d="M227.15 162.5V155m0-79.99v7.5"/><text fill="#000" font-family="KaTeX_Main" font-size="8" text-anchor="middle" transform="translate(227.15 172.6)"><tspan> 6</tspan></text></g><path fill="none" stroke="#CCC" stroke-linecap="round" stroke-linejoin="round" stroke-width=".1" d="M263.36 162.5V75.01" class="d1f87__gridline" color="#000"/><g fill="none" stroke-linecap="round" stroke-linejoin="round" stroke-width="0" color="#000"><path d="M263.36 162.5V155m0-79.99v7.5"/><text fill="#000" font-family="KaTeX_Main" font-size="8" text-anchor="middle" transform="translate(263.36 172.6)"><tspan> 7</tspan></text></g><path fill="none" stroke="#CCC" stroke-linecap="round" stroke-linejoin="round" stroke-width=".1" d="M299.57 162.5V75.01" class="d1f87__gridline" color="#000"/><g fill="none" stroke-linecap="round" stroke-linejoin="round" stroke-width="0" color="#000"><path d="M299.57 162.5V155m0-79.99v7.5"/><text fill="#000" font-family="KaTeX_Main" font-size="8" text-anchor="middle" transform="translate(299.57 172.6)"><tspan> 8</tspan></text></g><path fill="none" stroke="#CCC" stroke-linecap="round" stroke-linejoin="round" stroke-width=".1" d="M335.78 162.5V75.01" class="d1f87__gridline" color="#000"/><g fill="none" stroke-linecap="round" stroke-linejoin="round" stroke-width="0" color="#000"><path d="M335.78 162.5V155m0-79.99v7.5"/><text fill="#000" font-family="KaTeX_Main" font-size="8" text-anchor="middle" transform="translate(335.78 172.6)"><tspan> 9</tspan></text></g><path fill="none" stroke="#CCC" stroke-linecap="round" stroke-linejoin="round" stroke-width=".1" d="M371.99 162.5V75.01" class="d1f87__gridline" color="#000"/><g fill="none" stroke-linecap="round" stroke-linejoin="round" stroke-width="0" color="#000"><path d="M371.99 162.5V155m0-79.99v7.5"/><text fill="#000" font-family="KaTeX_Main" font-size="8" text-anchor="middle" transform="translate(371.99 172.6)"><tspan> 10</tspan></text></g><g fill="none" stroke-linecap="round" stroke-linejoin="round" stroke-width="0" color="#000"><path d="M371.99 162.5h-7.5"/><text fill="#000" font-family="KaTeX_Main" font-size="8" transform="translate(378.99 165.1)"><tspan>1.00</tspan></text></g><g fill="none" stroke-linecap="round" stroke-linejoin="round" stroke-width="0" color="#000"><path d="M371.99 151.56h-7.5"/><text fill="#000" font-family="KaTeX_Main" font-size="8" transform="translate(378.99 154.16)"><tspan>1.50</tspan></text></g><g fill="none" stroke-linecap="round" stroke-linejoin="round" stroke-width="0" color="#000"><path d="M371.99 140.63h-7.5"/><text fill="#000" font-family="KaTeX_Main" font-size="8" transform="translate(378.99 143.23)"><tspan>2.00</tspan></text></g><g fill="none" stroke-linecap="round" stroke-linejoin="round" stroke-width="0" color="#000"><path d="M371.99 129.69h-7.5"/><text fill="#000" font-family="KaTeX_Main" font-size="8" transform="translate(378.99 132.29)"><tspan>2.50</tspan></text></g><g fill="none" stroke-linecap="round" stroke-linejoin="round" stroke-width="0" color="#000"><path d="M371.99 118.75h-7.5"/><text fill="#000" font-family="KaTeX_Main" font-size="8" transform="translate(378.99 121.35)"><tspan>3.00</tspan></text></g><g fill="none" stroke-linecap="round" stroke-linejoin="round" stroke-width="0" color="#000"><path d="M371.99 107.82h-7.5"/><text fill="#000" font-family="KaTeX_Main" font-size="8" transform="translate(378.99 110.42)"><tspan>3.50</tspan></text></g><g fill="none" stroke-linecap="round" stroke-linejoin="round" stroke-width="0" color="#000"><path d="M371.99 96.88h-7.5"/><text fill="#000" font-family="KaTeX_Main" font-size="8" transform="translate(378.99 99.48)"><tspan>4.00</tspan></text></g><g fill="none" stroke-linecap="round" stroke-linejoin="round" stroke-width="0" color="#000"><path d="M371.99 85.95h-7.5"/><text fill="#000" font-family="KaTeX_Main" font-size="8" transform="translate(378.99 88.55)"><tspan>4.50</tspan></text></g><g fill="none" stroke-linecap="round" stroke-linejoin="round" stroke-width="0" color="#000"><path d="M371.99 75.01h-7.5"/><text fill="#000" font-family="KaTeX_Main" font-size="8" transform="translate(378.99 77.61)"><tspan>5.00</tspan></text></g><path fill="none" d="M28 75.01v87.49m343.99-87.49H28" color="#000"/><text stroke-linecap="round" stroke-linejoin="round" stroke-width="0" color="#000" font-family="KaTeX_Main" font-size="10" text-anchor="middle" transform="rotate(-90 65.13 53.63)"><tspan font-weight="bold">Maximum Path Length </tspan><tspan> / log</tspan><tspan dy="3" font-size="8">2</tspan><tspan dy="-3">(Size)</tspan></text><text stroke-linecap="round" stroke-linejoin="round" stroke-width="0" color="#000" font-family="KaTeX_Main" font-size="10" text-anchor="middle" transform="translate(199.99 195.75)"><tspan>Operations / 10</tspan><tspan dy="-5" font-size="8">6</tspan></text><text stroke-linecap="round" stroke-linejoin="round" color="#000" font-family="KaTeX_Main" font-size="8" transform="translate(99.2 10.11)"><tspan>Conc</tspan></text><g fill="none" stroke="currentColor" stroke-linecap="round" stroke-linejoin="round" color="#000"><path stroke="#9F650D" stroke-dasharray="1.0,2.0" d="M63.7 7.51h29.9M28 158.04h343.99"/><use xlink:href="#d1f87__d" color="#9F650D" transform="matrix(3.75 0 0 3.75 354.25 158.04)"/><use xlink:href="#d1f87__d" color="#9F650D" transform="matrix(3.75 0 0 3.75 78.65 7.51)"/></g><text stroke-linecap="round" stroke-linejoin="round" color="#000" font-family="KaTeX_Main" font-size="8" transform="translate(99.2 25.11)"><tspan>Splay</tspan></text><g fill="none" stroke="currentColor" stroke-linecap="round" stroke-linejoin="round" color="#000"><path stroke="#29C3F6" d="M63.7 22.51h29.9M28 113.26l.36-15.8.36 13.17.37 3.95.36-15.8.36 6.58.36 10.54.36-7.91.37 9.22.36-1.31.36-14.49.36 1.32.37 9.22.36 1.31.36-6.58.36 6.58.36-6.58.37-3.95.36 10.53.36-11.85.36 3.95.36-7.9.37 9.22.36 2.63.36-6.58.36 7.9h.36l.37-9.22.36 13.17.36-2.63.36 1.31.36 2.64.37-2.64.36-2.63.36 3.95.36-13.17.37 6.58h.36l.36-6.58.36 10.54.36-3.96.37-9.21h.36l.36 19.75.36-10.54.36 2.64h.37l.36-6.59h.36l.36-10.53.36 14.48.37 9.22.36-14.48.36 9.22.36-6.59.37 3.95h.72l.36-9.22.36 9.22.37 2.64.36 3.95.36-5.27.36 1.32.36-9.22.37 13.17.36-25.02.36 14.48.36 6.59.36-11.86.37 7.9.36 3.96.36-14.49.36 5.27.37 7.9.36 5.27.36-6.59.36-1.32.36 7.91.37-3.95.36-1.32.36-13.17.36 14.49.36-1.32.37 2.63.36-10.53.36 6.58.36-2.63.36-1.32.37 7.9.36-2.63.36-3.95.36-3.95.36 3.95.37 1.31.36-6.58.36 3.95.36 9.22.37-5.27.36-3.95.36 5.27.36-18.44.36 11.85.37-5.26.36 1.31.36 5.27.36 2.63.36 5.27.37-9.22.36 14.49.36-11.85.36-6.59.36-1.31.37 13.17.36-14.49.36 13.17.36-2.64.37 5.27.36-11.85.36 2.63.36 5.27.36-7.9.37 5.27.36 2.63.36-2.63.36 5.27.36-1.32.37 1.32.36 2.63.36-11.85.36 3.95.36 7.9.37 1.32.36-3.95.36-9.22.36 14.48.36-7.9.37-10.53.36 3.95.36 11.85.36-14.49.37 6.59.36-9.22.36 17.12.36-7.9.36-6.59.37 1.32.36 3.95.36 9.22.36-2.63.36-11.86.37 13.17.36-3.95.36-9.22.36 3.95.36 9.22.37-10.53.36 5.26.36-2.63.36 7.9.37-3.95h.36l.36-13.17.36 15.81.36-9.22.37 11.85.36-7.9.36-3.95.36 9.22.36 6.58.37-3.95.36 1.32.36-2.64.36-2.63.36-1.32.37-1.32.36-5.26.36-3.95.36 10.53.36-2.63.37 1.31.36-1.31.36-6.59.36 7.9.37-5.26.36 1.31.36 7.91h.36l.36-13.17.37 6.58.36 1.32.36 5.27.36-1.32.36-1.32.37-15.8.36 15.8.36-3.95.36-5.27.36-1.31.37 11.85.36-10.54.36 7.9.36 3.96.37-6.59.36 2.63.36-1.31.36 6.58.36-9.22.37-5.26.36 3.95.36-6.59.36-2.63.36 15.8.37-3.95.36 3.95.36-7.9.36 2.63.36-10.53.37 17.12.36-2.64.36 1.32.36 1.32.37-5.27.36 10.54.36-6.59.36 1.32.36 1.32.37-2.64h.72l.36-7.9.36 6.58.37-3.95.36 9.22h.36l.36 1.32.36-14.49.37 14.49.36-7.9.36 3.95.36 2.63.36-3.95.37 1.32.36 2.63.36-1.31.36-11.86.37 13.17.36-11.85.36 7.9.36-7.9.36 10.54.37-11.86.36 7.9.36-17.11.36 15.8.36 5.27.37-9.22h.36l.36 5.26.36 1.32.36-10.53.37 7.9h.36l.36-1.32.36 1.32.37-7.9.36 11.85.36-1.32.36-1.32h.36l.37-3.95.36 1.32.36 1.32.36-2.64.36 2.64.37-1.32.36 2.63.36-2.63.36 9.22.36-5.27.37-5.27.36 7.91.36-3.96.36-10.53.36 21.07.37-11.85.36-2.64.36 5.27.36 5.27.37-18.44.36 11.85.36-3.95.36 7.91.36-3.96.37-6.58.36 7.9.36 3.95.36-2.63.36-7.9.37 13.17.36-18.44.36 3.95.36 1.32.36-2.64.37 11.86.36-5.27.36 1.31.36 5.27.37-3.95.36-2.63h.36l.36-1.32.36 6.59.37-9.22.36 14.48.36-6.58.36-9.22.36 7.9.37-7.9.36 10.54.36 1.31.36-9.22.36 3.95.37 2.64.36-1.32.36-2.63.36 1.31.36 3.96.37-19.76.36 14.49.36 7.9.36-9.22.37 5.27.36-5.27h.72l.36 9.22.37-6.59.36 1.32.36 5.27.36-9.22.36 5.27.37-1.32.36-2.63.36 2.63.36-3.95.36 1.32.37 7.9.36-10.54.36-2.63.36 7.9.37 5.27.36-9.22.36 9.22.36-5.27.36-7.9.37 9.22.36 1.32h.72l.36 2.63.37-1.32.36 1.32.36-1.32.36-3.95.36-1.32.37-19.75.36 7.9.36 17.12h.36l.37-6.58.36 5.27.36-11.86.36 7.9.36 1.32.37-2.63.36 6.58.36-14.48.36 14.48.36-3.95.37-2.63.36-7.9.36 7.9.36 2.63.36 3.95h.37l.36-2.63.36-6.59.36-1.31.36 13.17.37-2.64.36-3.95h.36l.36-2.63.37 1.31h.36l.36-5.26.36 5.26.36-2.63.37 6.59.36-6.59.36-3.95.36-3.95.36 13.17.37-6.59.36-2.63.36-3.95.36 9.22.36 5.27.37-5.27.36-1.32.36-2.63h.36l.37 10.53.36-10.53.36-2.64.36 6.59h.36l.37 2.63.36-9.22.36 10.54.36-9.22.36 11.85.37-17.12.36 10.54.36 13.17.36-7.9.36-5.27.37-2.64.36 3.95.36-23.7.36 17.12.36 10.54.37-5.27h.36l.36-13.17.36 15.8.37 5.27.36 2.63.36-17.12.36 9.22h.73l.36-19.75.36 25.02.36-5.27.36 6.59.37-2.64.36-2.63.36 5.27.36-9.22h.36l.37 6.58.36-1.31.36-10.54.36 7.9.37-10.53.36 19.75.36-17.12.36 6.58.36 2.64.37 2.63h.36l.36-5.27.36 2.64h.73l.36-2.64.36 2.64.36 3.95.36-3.95.37-5.27.36 7.9.36-3.95.36-11.85.37-2.63.36 10.53.36 14.49.36-9.22.36 2.63.37 3.95.36-13.17.36 3.95.36-3.95.36-1.31.37 6.58.36-3.95.36 3.95.36-14.48.36 21.07.37-13.17h.36l.36 3.95.36-10.54.36 6.59.37 5.26.36 5.27.36-7.9.36-6.58.37 9.21h.36l.36 3.96.36-2.64.36-6.58.37 3.95.36 5.27.36-1.32.36-3.95.36 1.31.37 7.91.36-6.59.36 1.32.36-1.32h.36l.37 1.32.36-6.59.36-7.9.36 17.12.37-13.17.36 13.17.36-10.53.36 2.63.36-9.22.37 17.12.36-5.27.36-9.21.36 2.63.36-5.27.37-2.63.36 13.17.36 5.27.36-1.32h.36l.37 6.58.36-9.22.36-10.53.36 7.9.36 5.27.37-3.95.36 5.27h.36l.36-5.27.37 3.95.36-2.64.36-2.63.36 7.9.36-17.12.37 11.85.36-7.9.36-5.26.36 18.43.36-1.31h.37l.36-1.32.36-5.27.36 2.63.36-6.58.37 11.85h.36l.36-3.95.36-1.32.37-7.9.36 6.59.36 7.9.36-15.8.36 7.9h.37l.36-2.64.36-13.16.36 11.85.36 11.85.37-10.54.36-2.63.36 13.17.36 1.32.36-11.86.37-6.58.36 13.17.36-1.32.36-1.32.36-2.63.37 5.27.36-1.32.36-1.32.36-9.21.37 11.85.36 1.32.36-5.27.36 5.27.36 2.63.37-11.85.36 7.9.36-1.32.36-13.17.36 13.17.37-2.63.36-1.32.36 3.95.36-5.27.36 2.64.37 6.58.36-7.9.36 7.9.36-5.27.37 2.64.36 1.32.36 1.31.36-5.27.36 9.22.37-5.26.36-9.22.36 7.9.36-2.64.36 7.91.37-5.27.36 9.22.36-21.07.36 11.85.36-2.64h.37l.36 1.32.36 6.59h.36l.37-22.39.36 23.7.36-9.22.36 3.96.36-3.96.37 1.32.36-1.32.36-5.26.36 3.95.36 5.27.37-19.76.36 6.59.36 3.95.36 6.58.36-10.53.37 6.58.36 7.9.36 2.64.36-13.17.36 2.63.37 2.63h.72l.36-6.58.37 9.22.36 1.32h.36l.36-2.64.36 3.95.37-1.31.36-3.96.36 7.91.36-7.91h.36l.37 10.54.36-7.9.36 1.32.36-1.32.36 1.32h.73l.36-11.86.36 1.32.37 2.63.36 2.64h.72l.36-10.54.37 14.49.36-13.17.36 7.9.36-9.22.36 11.85.37 1.32.36-1.32.36 9.22.36-10.53.36 10.53.37-5.26.36-11.86.36 7.9.36-9.21h.36l.37 2.63.36 3.95.36 2.63.36 6.59.37-2.63.36-9.22.36 5.26.36 10.54.36-7.9.37-6.59.36-1.31.36 10.53.36-9.22.36 6.59.37-6.59.36 9.22.36-7.9h.36l.36-11.85.37 19.75.36-10.53.36-2.64.36 13.17h.37l.36-3.95.36-10.53.36 13.17.36-13.17.37 11.85.36-11.85.36 2.63.36 15.8.36-15.8.37 5.27.36 2.63.36-11.85.36 10.53.36 3.96.37 6.58.36-13.17.36 7.9.36-6.58.36-2.64.37 5.27.36-6.58h.72l.37 3.95.36 3.95.36-7.9.36 9.22.36-2.64h.73l.36-1.32.36-1.31.36 7.9.37-15.8.36 7.9.36-11.85.36 9.21.36 6.59.37-5.27.36-6.58.36 10.53.36 7.9.37-7.9.36 9.22.36-7.9.36-5.27.36 3.95.37-7.9.36 2.63.36 10.54.36-5.27.36 6.59.37-15.81.36 15.81.36-17.12.36 2.63.36 6.58.37 2.64.36 6.58.36-9.22.36 2.64.37-6.59.36 7.91.36-2.64h.36l.36-1.32h.37l.36 2.64.36-11.85.36 18.43.36-2.63.37-7.9.36 3.95.36-10.54.36 9.22.36-2.63.37-9.22.36 14.49.36-2.64.36-2.63.36-14.49.37 17.12.36-2.63.36-1.32.36 3.95.37-1.32.36 1.32.36 9.22.36-5.27.36-13.17.37 7.9.36 2.64.36-1.32.36-1.32.36 5.27.37-2.63.36 6.58.36-10.53.36 7.9.36-14.49.37 7.9.36-9.21.36 6.58.36-1.32.37-2.63.36 6.58.36-6.58.36 9.22.36-6.59.37 6.59.36-27.66.36 26.34.36 2.64.36-9.22.37 9.22.36-1.32.36-10.54.36 15.81.36-3.95.37-1.32.36-9.22.36 5.27.36-9.22.36 14.49.37 1.31.36 2.64.36-9.22.36 5.27.37-7.91.36-2.63.36 15.8.36-7.9h.36l.37-14.48.36 15.8.36-1.32.36-10.53.36 15.8.37-7.9.36 11.85.36-1.32.36-28.97.36 26.34.37-7.9.36-3.95.36 15.8.36-10.54.37-1.31.36-5.27.36 9.22.36-2.64h.36l.37 6.59.36-11.85.36 7.9.36 5.27.36-15.81.37 7.9.36 1.32h.36l.36-10.53.36 10.53.37-6.58.36 3.95.36-1.32h.36l.36 6.59.37-3.96.36-9.21.36 2.63.36 14.49.37-2.64.36-1.31.36-1.32.36-17.12.36 21.07h.37l.36-2.63h.36l.36-5.27.36-2.64.37 2.64.36-7.9.36 5.26.36 1.32.36 2.63.37 5.27.36-5.27.36 6.59.36-5.27h.37l.36 6.59.36-5.27.36-2.64.36 6.59h.37l.36-10.54h.36l.36-1.31.36 1.31.37 5.27.36-5.27.36 9.22.36-2.63.36 2.63.37 3.95.36-10.53.36 7.9.36-6.59.37 9.22.36-9.22.36-9.21.36 17.12.36-21.07.37 7.9.36 6.58.36-2.63.36 3.95.36-6.59.37 7.91.36 1.31.36-6.58.36 7.9.36-9.22.37 2.63h.36l.36 2.64h.36l.36-7.9.37 1.31.36 6.59h.36l.36 5.27.37-21.07.36 21.07.36-13.17.36 9.22.36 5.26.37-14.48.36 1.31.36 1.32"/><use xlink:href="#d1f87__b" color="#29C3F6" transform="matrix(3.75 0 0 3.75 67.83 106.68)"/><use xlink:href="#d1f87__b" color="#29C3F6" transform="matrix(3.75 0 0 3.75 78.65 22.51)"/></g><text stroke-linecap="round" stroke-linejoin="round" stroke-width=".5" color="#000" font-family="KaTeX_Main" font-size="8" transform="translate(99.2 40.11)"><tspan>AVLBottomUp</tspan></text><g fill="none" stroke="currentColor" stroke-linecap="round" stroke-linejoin="round" stroke-width=".5" color="#000"><path stroke="#000" d="M63.7 37.51h29.9M28 158.95l.36.04.36.04.37.04.36.03.36.04.36.03.36.04.37.03.36.03.36.03.36.03.37.03.36.03.36.03.36.03.36.03.37.03.36.03.36.02.36.03.36.03.37.02.36.03.36.02.36.03.36.02.37.02.36.03.36.02.36.02.36-1.09.37.02.36.03.36.02.36.02.37.02.36.03.36.02.36.02.36.02.37.02.36.02.36.02.36.02.36.02.37.02.36.02.36.02.36.01.36.02h325.89"/><use xlink:href="#d1f87__e" transform="matrix(3.75 0 0 3.75 125.4 159.13)"/><use xlink:href="#d1f87__e" transform="matrix(3.75 0 0 3.75 78.65 37.51)"/></g><text stroke-linecap="round" stroke-linejoin="round" color="#000" font-family="KaTeX_Main" font-size="8" transform="translate(99.2 55.11)"><tspan>AVLRelaxedBottomUp</tspan></text><g fill="none" stroke="currentColor" stroke-linecap="round" stroke-linejoin="round" color="#000"><path stroke="#D336C8" d="M63.7 52.51h29.9M28 158.04h69.16l.36-1.32h274.47"/><use xlink:href="#d1f87__a" color="#D336C8" transform="matrix(3.75 0 0 3.75 182.98 156.72)"/><use xlink:href="#d1f87__a" color="#D336C8" transform="matrix(3.75 0 0 3.75 78.65 52.51)"/></g><text stroke-linecap="round" stroke-linejoin="round" color="#000" font-family="KaTeX_Main" font-size="8" transform="translate(241.1 10.11)"><tspan>RedBlackBottomUp</tspan></text><g fill="none" stroke="currentColor" stroke-linecap="round" stroke-linejoin="round" color="#000"><path stroke="#F44336" d="M205.6 7.51h29.9M28 158.04h74.23l.36-1.32.36 1.32h2.54l.36-1.32h7.24l.36 1.32.37-1.32.36 1.32h.72l.36-1.32h1.09l.36 1.32.37-1.32h1.08l.36 1.32h2.54l.36-1.32h18.83l.36 1.32h1.09l.36-1.32h69.88l.37 1.32.36-1.32h159.32"/><use xlink:href="#d1f87__a" color="#F44336" transform="matrix(3.75 0 0 3.75 240.55 156.72)"/><use xlink:href="#d1f87__a" color="#F44336" transform="matrix(3.75 0 0 3.75 220.55 7.51)"/></g><text stroke-linecap="round" stroke-linejoin="round" color="#000" font-family="KaTeX_Main" font-size="8" transform="translate(241.1 25.11)"><tspan>LBSTBottomUp</tspan></text><g fill="none" stroke="currentColor" stroke-linecap="round" stroke-linejoin="round" color="#000"><path stroke="#3B75EA" d="M205.6 22.51h29.9M28 158.04h1.09l.36-1.32.36 1.32.36-1.32.36 1.32h.37l.36-1.32h.36l.36 1.32h3.26l.36-1.32.37 1.32h1.81l.36-1.32.36 1.32h2.17l.37-1.32h.36l.36 1.32h14.85l.36-1.32h.72l.36 1.32h5.8l.36-1.32.36 1.32h1.81l.36-1.32h.37l.36 1.32h.36l.36-1.32.36 1.32h12.68l.36-1.32h.72l.37 1.32h11.58l.37-1.32.36 1.32h4.7l.37-1.32.36 1.32h.36l.36-1.32h.37l.36 1.32h2.89l.37-1.32.36 1.32.36-1.32h.36l.36 1.32h1.45l.37-1.32h2.89l.36 1.32h4.35l.36-1.32h.73l.36 1.32h3.98l.36-1.32.36 1.32.37-1.32.36 1.32h8.33l.36-1.32.36 1.32h.73l.36-1.32.36 1.32h6.16l.36-1.32.36 1.32.36-1.32.36 1.32h.37l.36-1.32.36 1.32h.72l.37-1.32.36 1.32h4.71l.36-1.32.36 1.32h3.98l.36-1.32.37 1.32h3.62l.36-1.32h.36l.36 1.32h.37l.36-1.32h.72l.36 1.32h1.45l.37-1.32.36 1.32.36-1.32h2.53l.37 1.32h.36l.36-1.32.36 1.32.36-1.32.37 1.32h1.08l.36-1.32.37 1.32h1.08l.37-1.32.36 1.32h1.81l.36-1.32.36 1.32h3.26l.36-1.32h3.99l.36 1.32h.72l.36-1.32h2.9l.36 1.32h2.9l.36-1.32h.73l.36 1.32.36-1.32h1.09l.36 1.32h.36l.36-1.32h.37l.36 1.32h.36l.36-1.32h1.45l.36 1.32.36-1.32h3.26l.37 1.32.36-1.32h3.62l.36 1.32.36-1.32h.36l.37 1.32.36-1.32h.72l.36 1.32h1.09l.36-1.32h1.81l.37 1.32h.72l.36-1.32h.73l.36 1.32h1.81l.36-1.32h.36l.37 1.32.36-1.32.36 1.32h2.17l.36-1.32h.73l.36 1.32h.72l.37-1.32h.72l.36 1.32h1.45l.36-1.32h1.45l.36 1.32h3.26l.36-1.32.37 1.32h.72l.36-1.32h1.81l.37 1.32h2.53l.36-1.32h1.45l.36 1.32h1.45l.36-1.32.37 1.32h1.81l.36-1.32h.36l.36 1.32.36-1.32h.37l.36 1.32h.36l.36-1.32h2.54l.36 1.32.36-1.32h.36l.37 1.32h.72l.36-1.32.36 1.32h2.54l.36-1.32.36 1.32.37-1.32h2.89l.36 1.32.37-1.32h3.98l.36 1.32.36-1.32h.73l.36 1.32.36-1.32.36 1.32h.37l.36-1.32h.36l.36-1.32.36 1.32h6.52l.36 1.32h.73l.36-1.32h1.09l.36 1.32.36-1.32h3.62l.36 1.32.37-1.32h.36l.36 1.32h.36l.36-1.32.37 1.32h1.44l.37-1.32h.36l.36 1.32h.73l.36-1.32h1.08l.37 1.32h3.62l.36-1.32h1.08l.37 1.32h.36l.36-1.32.36 1.32.37-1.32h.72l.36 1.32h.73l.36-1.32.36 1.32h.72l.37-1.32h.72l.36 1.32h1.81l.37-1.32h3.25l.37 1.32h.72l.36-1.32.36 1.32h2.18l.36-1.32h1.45l.36 1.32.36-1.32.36 1.32h.73l.36-1.32h.36l.36 1.32h.37l.36-1.32.36 1.32.36-1.32h1.81l.37 1.32h.36l.36-1.32h.72l.37 1.32h.72l.36-1.32h2.17l.37 1.32.36-1.32.36 1.32h.36l.37-1.32h2.17l.36 1.32.36-1.32h4.35l.36-1.32h1.09l.36 1.32h1.45l.36-1.32h.72l.36 1.32h5.07l.37-1.32.36 1.32h4.7l.37-1.32.36 1.32h5.07l.36-1.32.36 1.32h2.54l.36 1.32.36-1.32h6.88l.36 1.32h1.09l.36-1.32h1.09l.36 1.32h.36l.36-1.32h.73l.36 1.32h.72l.37-1.32.36 1.32.36-1.32.36 1.32.37-1.32.36 1.32h.36l.36-1.32h.73l.36 1.32h.36"/><use xlink:href="#d1f87__f" color="#3B75EA" transform="matrix(3.75 0 0 3.75 298.12 158.04)"/><use xlink:href="#d1f87__f" color="#3B75EA" transform="matrix(3.75 0 0 3.75 220.55 22.51)"/></g><text stroke-linecap="round" stroke-linejoin="round" color="#000" font-family="KaTeX_Main" font-size="8" transform="translate(241.1 40.11)"><tspan>LBSTRelaxed</tspan></text><g fill="none" stroke="currentColor" stroke-linecap="round" stroke-linejoin="round" color="#000"><path stroke="#FFAB00" stroke-dasharray="4.0,2.0,1.0,2.0" d="M205.6 37.51h29.9M28 146.18l.36-1.31h1.81l.36 1.31h.73l.36-1.31.36 1.31h2.18l.36-2.63h.36l.36 1.32.36-1.32h1.45l.36-1.32.37 1.32h.36l.36 1.32h6.88l.36 1.31.36 1.32h.37l.36-2.63h1.09l.36-1.32h1.08l.37 1.32.36 1.31.36-1.31h2.17l.36 1.31.37-1.31h1.45l.36-1.32h1.08l.37 1.32h1.44l.37-1.32.36 1.32.36-1.32.36 1.32h1.09l.36-1.32h1.45l.36 1.32.36-1.32h.37l.36-1.32h.72l.36 1.32.37-1.32.36 1.32.36-1.32.36-1.31h2.17l.37 1.31h2.53l.36-1.31h1.45l.36 5.26h1.09l.36-1.31.36 1.31h.37l.36-1.31h2.53l.37 1.31h.36l.36-1.31h2.17l.36 2.63h.37l.36-1.32h.72l.36-1.31h.37l.36 1.31h.36l.36-1.31.37-1.32h.36l.36-1.32h1.45l.36 1.32h2.9l.36 1.32h3.62l.36 1.31h.36l.37-1.31h3.25l.37-1.32h.72l.36-1.32h.37l.36 1.32h.36l.36-2.63.36 1.31h.37l.36 1.32h.36l.36 1.32.36 1.31h1.09l.36-1.31h.73l.36-1.32h.72l.37-1.32h1.08l.36 1.32.37-1.32h.36l.36 2.64.36 1.31.36-1.31.37 1.31.36-1.31.36 1.31h.72l.37-1.31h1.44l.37 1.31.36-1.31h.36l.36-2.64h.73l.36 1.32h.36l.36 2.63h1.09l.36-1.31h2.17l.37-1.32h.36l.36-1.32h1.09l.36-1.31.36 1.31.36-1.31h1.09l.36 1.31.36 1.32h.73l.36 1.32h.36l.36 1.31h6.88l.37-1.31.36-1.32h.36l.36 1.32h.73l.36 1.31h1.09l.36-1.31h.36l.36 1.31.36 1.32h3.26l.36-1.32h2.9l.36 1.32h1.09l.36-2.63h.73l.36 1.31h.72l.36 1.32h.37l.36-1.32h1.08l.37 1.32.36-1.32h5.79l.36-1.31h2.18l.36-1.32h.72l.37 1.32h.36l.36 1.31h2.53l.37-1.31h2.89l.37-1.32.36 1.32h1.08l.37 1.31h1.44l.37 1.32h.72l.36-1.32h1.81l.37-1.31h1.81l.36-1.32.36 2.63.36-1.31.36 1.31h.37l.36-1.31h2.53l.36 1.31.37-1.31.36 1.31.36-1.31h1.09l.36 1.31h4.34l.37-1.31h.72l.36 1.31h.37l.36-1.31h.36l.36 1.31h.36l.37 1.32.36-1.32h2.53l.36-1.31h.37l.36 1.31h.72l.37-1.31h.36l.36-1.32.36-1.32h1.09l.36 1.32h1.09l.36 1.32h3.26l.36 1.31h1.81l.36 1.32h2.17l.37-1.32h.36l.36-1.31h1.45l.36-1.32.36 1.32h1.81l.37 2.63.36-1.32h.36l.36-1.31h.36l.37 1.31.36-2.63.36 2.63.36-1.31.36 1.31h.37l.36-1.31.36 1.31h.72l.37-2.63h.72l.36 1.32h.73l.36 1.31h.72l.37-1.31h.36l.36 1.31h1.09l.36-1.31.36-1.32.36 1.32h.36l.37-1.32h1.08l.37 1.32h2.53l.36-1.32h1.09l.36 1.32h2.17l.36 1.31h2.9l.36-1.31h1.81l.37-2.64.36 1.32h1.08l.37 1.32h.36l.36-1.32h.36l.37 1.32h.72l.36-1.32h.73l.36 1.32h1.81l.36-1.32h1.81l.36-1.32.37-1.31.36 1.31.36 1.32h1.09l.36 1.32h2.17l.36-1.32h.73l.36-1.32.36 1.32h1.45l.36-1.32h.36l.37 1.32h2.17l.36 1.32h1.81l.36-1.32.36 1.32.37-1.32h2.17l.36 1.32h1.09l.36-1.32h.36l.36-1.32h.37l.36-1.31.36 1.31h1.81l.36 1.32h.73l.36-1.32h.36l.36 1.32h.37l.36 1.32h.36l.36-1.32h.73l.36-1.32h.72l.36 1.32.37 1.32H284l.36 1.31h.73l.36-1.31h.36l.36 1.31.37-1.31h.36l.36 1.31h1.09l.36-1.31h.36l.36 1.31h1.09l.36-1.31.36 1.31.36-1.31h.37l.36-1.32h1.09l.36 1.32h.72l.36 1.31h.37l.36-1.31h.72l.36-1.32h.37l.36 1.32h1.08l.37-1.32.36 1.32h1.81l.36-1.32h.73l.36 1.32.36 1.31.36-1.31h.36l.37-1.32.36 1.32h.36l.36-1.32.36 1.32.37-1.32.36 1.32h.36l.36-1.32h1.81l.37-1.32h1.08l.36 1.32h.73l.36 1.32h.36l.36 1.31h.73l.36-1.31.36 1.31h1.09l.36-1.31.36 1.31h1.09l.36-1.31h1.45l.36 1.31.36-2.63h1.09l.36 1.32.36 1.31.37-1.31.36 1.31h.36l.36-1.31h.73l.36-1.32H326l.37-1.32.36 1.32.36 1.32h2.9l.36 1.31h3.26l.36-1.31h1.45l.36-1.32h2.9l.36 1.32h3.98l.36 1.31h.37l.36-1.31h1.08l.37-1.32.36 1.32h.72l.37-1.32h.36l.36 1.32.36-1.32h.36l.37 1.32h2.17l.36-1.32h.36l.36 1.32.37 1.31h.36l.36-1.31h.36l.37 1.31.36-2.63h.36l.36 1.32.36 1.31h1.09l.36-1.31h1.45l.36 1.31h3.99l.36-1.31h.36l.36-1.32.36-1.32h1.81l.37 1.32h1.44l.37 1.32h1.45l.36-1.32h1.81l.36 1.32"/><use xlink:href="#d1f87__g" color="#FFAB00" transform="matrix(3.75 0 0 3.75 355.7 146.18)"/><use xlink:href="#d1f87__g" color="#FFAB00" transform="matrix(3.75 0 0 3.75 220.55 37.51)"/></g><text stroke-linecap="round" stroke-linejoin="round" color="#000" font-family="KaTeX_Main" font-size="8" transform="translate(241.1 55.11)"><tspan>TreapTopDown</tspan></text><g fill="none" stroke="currentColor" stroke-linecap="round" stroke-linejoin="round" color="#000"><path stroke="#00C853" stroke-dasharray="4.5,2.0,0.5,2.0,0.5,2.0" d="M205.6 52.51h29.9M28 133.02h.72l.37-2.64h.36l.36 1.32.36 1.32.36-1.32.37 1.32.36-3.96.36-1.31h.36l.37 1.31.36 1.32.36 5.27.36-1.32.36-5.27.37 9.22.36-2.63.36-2.63.36-5.27.36-1.32.37 5.27.36 2.63h.72l.36-1.31.37-1.32.36 1.32.36-2.64.36 2.64h.36l.37-1.32.36-3.95.36 3.95.36-6.59.37-1.31h.36l.36 1.31.36 5.27.36 1.32h.73l.36 2.63h.72l.37-1.31.36-1.32.36 1.32.36 1.31.36 1.32.37-2.63h.36l.36 1.31.36-2.63.37 1.32.36 2.63.36 2.63.36-2.63.36 1.32.37-2.64.36 3.95.36-2.63.36-1.32.36 1.32.37 2.63.36-3.95.36-2.63.36 1.32.36 2.63.37-1.32h.36l.36 1.32.36-3.95.37-2.64.36 6.59.36-5.27.36 2.64.36-1.32h.37l.36 3.95.36-1.32.36 1.32h1.09l.36-2.63h.36l.36-2.64.37 2.64.36 2.63.36-1.32h.36l.36-2.63.37 2.63h.36l.36-3.95.36 1.32.37 2.63.36 2.64.36-1.32.36-2.63.36 1.31h.73l.36 1.32h.36l.36-3.95.37 3.95.36 1.32.36-7.91.36-1.31.36 3.95.37-1.32.36 1.32.36-1.32H70l.37-1.32.36 2.64.36 1.32.36 1.31.36 1.32h.37l.36-2.63.36 1.31.36-1.31.36-1.32.37 2.63h.36l.36-1.31.36-1.32.36-1.32.37 3.95h.36l.36-1.31.36 2.63.36 1.32.37-2.64.36 1.32h.36l.36 1.32.37-3.95h.36l.36-1.32.36 2.63h.36l.37-1.31.36-2.64.36 3.95h1.09l.36 1.32.36-3.95h.36l.36 1.32.37-2.64h.36l.36-1.32.36-1.31.37-1.32.36-1.32.36 3.95h.72l.37-2.63.36 1.32.36 1.31.36-1.31.36 2.63.37-2.63h.36l.36 6.58.36-1.31.36 1.31.37-3.95.36 3.95h.36l.36-1.31.36 1.31h.37l.36-2.63h.72l.37-3.95.36-1.32.36 1.32.36 1.31.36-1.31.37 5.27.36-3.96h.36l.36 1.32.36 1.32.37 3.95.36-6.59h.36l.36 1.32.36 5.27.37 2.63.36-5.26.36 1.31.36 1.32h.37l.36-2.63.36 1.31.36-1.31.36-5.27.37-1.32.36 5.27.36-2.64.36 1.32h.36l.37-1.32.36 2.64h.36l.36 1.32.36-2.64.37-5.27h.36l.36 1.32.36 2.63.37 1.32.36 2.64.36-6.59h.36l.36 5.27.37 1.32.36-2.64.36 1.32h.36l.36 1.32.37 1.31h.36l.36 2.64.36-2.64.36-1.31.37-3.96.36 1.32h.36l.36 3.95h.36l.37-1.31h.36l.36 2.63.36-2.63.37 1.31.36 1.32.36-3.95.36 1.32.36-1.32h.37l.36 3.95.36-2.63h1.81l.36 1.31.36 1.32h.37l.36-3.95.36 3.95.36 1.32.37-2.64.36 2.64h.36l.36-2.64h.36l.37 2.64h.36l.36-1.32h.36l.36 1.32.37 2.63.36-1.32.36-3.95h.36l.36 1.32.37-5.27.36 5.27.36-5.27h.72l.37 1.32.36 2.63.36-2.63.36-5.27.37 1.32.36-1.32.36 1.32.36 2.63h.36l.37 2.64.36-2.64.36 2.64.36-1.32.36 1.32.37 1.31h.36l.36-3.95.36 5.27.36-2.63h.37l.36 3.95h.72l.37-1.32h.72l.36-6.59.36-3.95.37 10.54.36-2.63.36 2.63h.36l.36-1.32.37-3.95h.36l.36 2.64.36-2.64.36 1.32.37 1.32h.36l.36 1.31h.36l.36-1.31h.37l.36-1.32h.36l.36-1.32.37 1.32.36-1.32.36-1.32h.36l.36-1.31.37-2.64h.36l.36 2.64h.36l.36-1.32h.37l.36 2.63.36 2.64.36 1.32h.36l.37 1.31h.72l.36-5.27h.37l.36-1.31.36 1.31.36-1.31.36 1.31.37 1.32.36-1.32.36 2.64.36-1.32h.36l.37-1.32h.36l.36-1.31.36 2.63.36 1.32.37-1.32h.36l.36-2.63.36 5.27.37-6.59.36 2.63.36-1.31.36 6.58h.73l.36-1.31h.36l.36-1.32h.36l.37-1.32.36-2.63.36-5.27.36-3.95.36 1.32.37 10.53.36-2.63.36 3.95.36 1.32h.36l.37 3.95.36-6.59.36-1.32.36 1.32.37 2.64.36-1.32.36 3.95.36-2.63.36-2.64.37 3.95.36 3.95h.36l.36-1.31.36-1.32.37-1.32h.36l.36 1.32.36-2.63.36 1.31h.37l.36 1.32.36-1.32.36 1.32.37-1.32.36 1.32.36-2.63.36-1.32h.36l.37 1.32.36-1.32h.36l.36-3.95h.36l.37 6.58.36 1.32h2.17l.36-3.95h1.09l.36-1.32h.36l.37-5.27h.36l.36 2.64.36 3.95.36 3.95.37-1.32h.72l.36-2.63.36 1.32.37 1.31.36 1.32h.36l.36 1.32.36-1.32h.37l.36-1.32.36-1.31.36 1.31h.37l.36 2.64h.36l.36-1.32.36-2.63.37-2.64.36 2.64h.72l.36 1.31.37-1.31.36 1.31h.72l.36-1.31.37-1.32.36 1.32.36 2.63.36-1.32h.37l.36-2.63.36 3.95.36-2.63.36 1.31.37-1.31.36 1.31h1.81l.36 1.32h.36l.36-1.32.37 1.32.36-2.63.36 1.31.36-1.31h.36l.37-1.32.36-1.32.36-1.32.36 3.96.37 1.31.36-1.31.36-1.32.36 5.27h.36l.37-3.95.36 2.63.36 1.32.36-1.32.36 1.32h.37l.36-1.32.36-1.32.36 2.64.36-3.95.37-2.64.36 5.27.36-2.63.36 2.63.37 1.32.36-6.59.36 3.95.36-2.63.36 1.32.37 1.31.36-1.31h.36l.36-1.32.36 1.32h.37l.36-11.86.36-3.95.36 5.27h.36l.37 11.85.36-2.63.36-1.32.36 2.64h.36l.37 2.63h.72l.36-2.63.37 1.31.36-1.31.36 2.63h.36l.36-3.95.37 2.63h.36l.36 1.32.36-1.32.36-2.63.37 1.32.36 1.31.36-2.63.36-2.64.36 1.32.37 1.32.36-1.32h.36l.36-1.32.37-1.31.36 2.63h.36l.36 2.64.36-1.32.37-5.27.36 2.63h.36l.36 3.96h.36l.37-2.64h.36l.36 1.32.36 1.32.36-3.96.37 1.32h.36l.36 1.32.36 2.63.36-2.63h.73l.36-2.64.36 1.32.37 3.95.36-1.31.36 1.31.36-2.63h.36l.37 1.32h.36l.36-1.32.36 1.32.36 2.63.37-2.63.36 2.63h.36l.36-1.32h.36l.37-1.31.36 2.63.36-1.32.36-1.31h.37l.36 1.31.36 1.32.36-3.95h.36l.37-3.95.36 2.63.36 1.32.36 1.32h.73l.36-1.32h.36l.36 1.32.36-2.64.37 1.32h.36l.36-1.32.36-2.63.37 3.95.36 2.63h.36l.36-1.31.36 1.31h.73l.36-1.31h.36l.36 2.63.37-3.95h.36l.36-1.32.36-1.32.36-5.26.37 3.95.36 5.27.36-1.32.36-2.64.36-1.31.37 1.31.36-1.31h.72l.37 2.63h.36l.36 1.32.36-1.32.36 3.95.37-3.95h.36l.36 1.32h.36l.36-1.32.37 1.32h.36l.36 2.63h1.45l.36-1.31.36 1.31.37-1.31h.72l.36 2.63.36-1.32.37 1.32h.36l.36 1.32.36-2.64.36-1.31.37 1.31.36 1.32.36-5.27.36-1.32h.36l.37 3.96.36 1.31.36 1.32.36-1.32.36-1.31h.73l.36 2.63.36-2.63.37-2.64h.36l.36-2.63.36 3.95.36 1.32.37 1.31h.36l.36 1.32h.36l.36-1.32h.37l.36 1.32.36-1.32h.36l.36 2.64.37-2.64.36 1.32.36-2.63.36-1.32.37 1.32h.72l.36 2.63.36-1.32.37 1.32.36-3.95.36 1.32.36 2.63.36-2.63.37 1.31h.72l.36 2.64h.73l.36-1.32h.36l.36-1.32.36-1.31.37 2.63.36-1.32h.36l.36 3.95.37-1.31.36-1.32.36-1.32h.36l.36 1.32.37-1.32.36-1.31h.72l.36-1.32.37-1.32.36 2.64h.36l.36-1.32.36 1.32h.37l.36 1.31h.36l.36-1.31.37-1.32h.36l.36 2.63.36-3.95.36 5.27.37-5.27.36 1.32.36-5.27.36 7.9.36 1.32.37-1.32.36-2.63.36-2.64.36 2.64.36-6.59.37 5.27.36 5.27.36-10.54.36 6.59.37 2.63.36 1.32.36-1.32.36-1.31.36 1.31h.37l.36-1.31.36 1.31.36-5.27h.36l.37 1.32.36 2.64h.72l.36 1.31.37-3.95h.72l.36-3.95.36-1.32.37 2.64.36 2.63.36 2.64.36 2.63.37-1.32.36 1.32h.36l.36 1.32.36-2.64.37-2.63.36 1.32.36-1.32.36-1.32.36-1.32.37-1.31.36-2.64.36-1.31.36-2.64.36-1.31.37 1.31.36-1.31.36 6.58.36 1.32.37 1.31.36 2.64.36-1.32.36 3.95h.36l.37-5.27.36 1.32.36 6.59.36-2.64.36-5.27h.37l.36 3.96.36 1.31.36-2.63.36-2.64.37 2.64h.36l.36 1.32.36 2.63h.36l.37 1.32.36 2.63.36-2.63.36-5.27.37 1.32.36 2.63.36-2.63h.36l.36-1.32.37-1.32.36-1.32.36-3.95h.36l.36 3.95.37-1.31h.36l.36 1.31.36-1.31.36 1.31.37-9.21.36 13.17.36 1.31.36-3.95.37 3.95.36-3.95.36 2.64h.72l.37-1.32.36-1.32.36 2.64.36-2.64.36-1.32.37 2.64.36 1.32h.36l.36 1.31h.73l.36 1.32.36-2.63.36-1.32h.36l.37 1.32.36-5.27.36 5.27h.36l.37 1.31.36-2.63h.36l.36 2.63.36-2.63h.37l.36 1.32.36-1.32h.36l.36-2.64.37-1.31.36 3.95h1.45l.36-1.32.36-1.32h.36l.37 5.27.36-2.63h.72l.36-2.64.37 2.64.36-2.64h.36l.36 1.32.36 1.32h.37l.36 3.95.36-1.32.36-5.27.36 2.64h.37l.36 1.32.36-1.32.36-2.64.37 1.32.36-1.32.36 2.64.36-5.27h.36l.37-1.32.36 7.91h.36l.36 2.63.36-2.63h.73l.36 1.31.36-1.31.36 1.31.37-9.22.36 5.27h.36l.36-2.63.36 2.63.37-1.32.36 2.64.36 1.32.36-2.64.37 1.32h.72l.36-2.64.36 3.96.37-1.32h.72"/><use xlink:href="#d1f87__h" color="#00C853" transform="matrix(3.75 0 0 3.75 69.28 131.7)"/><use xlink:href="#d1f87__h" color="#00C853" transform="matrix(3.75 0 0 3.75 220.55 52.51)"/></g><path fill="none" d="M28 75.01v87.49m343.99-87.49H28" color="#000"/></svg>