<svg xmlns="http://www.w3.org/2000/svg" xmlns:xlink="http://www.w3.org/1999/xlink" viewBox="0 0 400 200"><path fill="none" d="M0 0h400v200H0z"/><defs><path id="9291e__b" stroke="currentColor" stroke-width=".267" d="M-1-1h2v2h-2z"/><path id="9291e__a" stroke="currentColor" stroke-width=".267" d="m0-1.33-1.33 2h2.66z"/><path id="9291e__f" stroke="currentColor" stroke-width=".267" d="M0 1.33 1.265.411.782-1.067l-1.564-.009-.483 1.487z"/><use xlink:href="#9291e__a" id="9291e__d" fill="currentColor" stroke="none"/><use xlink:href="#9291e__b" id="9291e__c" stroke="currentColor" transform="rotate(45)"/><use xlink:href="#9291e__c" id="9291e__e" fill="currentColor" stroke="none"/></defs><path fill="none" stroke="#CCC" stroke-linecap="round" stroke-linejoin="round" stroke-width=".1" d="M46.1 162.5V45.01" class="9291e__gridline" color="#000"/><g fill="none" stroke-linecap="round" stroke-linejoin="round" stroke-width="0" color="#000"><path d="M46.1 162.5V155m0-109.99v7.5"/><text fill="#000" font-family="KaTeX_Main" font-size="8" text-anchor="middle" transform="translate(46.1 172.6)"><tspan> 1</tspan></text></g><path fill="none" stroke="#CCC" stroke-linecap="round" stroke-linejoin="round" stroke-width=".1" d="M82.31 162.5V45.01" class="9291e__gridline" color="#000"/><g fill="none" stroke-linecap="round" stroke-linejoin="round" stroke-width="0" color="#000"><path d="M82.31 162.5V155m0-109.99v7.5"/><text fill="#000" font-family="KaTeX_Main" font-size="8" text-anchor="middle" transform="translate(82.31 172.6)"><tspan> 2</tspan></text></g><path fill="none" stroke="#CCC" stroke-linecap="round" stroke-linejoin="round" stroke-width=".1" d="M118.52 162.5V45.01" class="9291e__gridline" color="#000"/><g fill="none" stroke-linecap="round" stroke-linejoin="round" stroke-width="0" color="#000"><path d="M118.52 162.5V155m0-109.99v7.5"/><text fill="#000" font-family="KaTeX_Main" font-size="8" text-anchor="middle" transform="translate(118.52 172.6)"><tspan> 3</tspan></text></g><path fill="none" stroke="#CCC" stroke-linecap="round" stroke-linejoin="round" stroke-width=".1" d="M154.73 162.5V45.01" class="9291e__gridline" color="#000"/><g fill="none" stroke-linecap="round" stroke-linejoin="round" stroke-width="0" color="#000"><path d="M154.73 162.5V155m0-109.99v7.5"/><text fill="#000" font-family="KaTeX_Main" font-size="8" text-anchor="middle" transform="translate(154.73 172.6)"><tspan> 4</tspan></text></g><path fill="none" stroke="#CCC" stroke-linecap="round" stroke-linejoin="round" stroke-width=".1" d="M190.94 162.5V45.01" class="9291e__gridline" color="#000"/><g fill="none" stroke-linecap="round" stroke-linejoin="round" stroke-width="0" color="#000"><path d="M190.94 162.5V155m0-109.99v7.5"/><text fill="#000" font-family="KaTeX_Main" font-size="8" text-anchor="middle" transform="translate(190.94 172.6)"><tspan> 5</tspan></text></g><path fill="none" stroke="#CCC" stroke-linecap="round" stroke-linejoin="round" stroke-width=".1" d="M227.15 162.5V45.01" class="9291e__gridline" color="#000"/><g fill="none" stroke-linecap="round" stroke-linejoin="round" stroke-width="0" color="#000"><path d="M227.15 162.5V155m0-109.99v7.5"/><text fill="#000" font-family="KaTeX_Main" font-size="8" text-anchor="middle" transform="translate(227.15 172.6)"><tspan> 6</tspan></text></g><path fill="none" stroke="#CCC" stroke-linecap="round" stroke-linejoin="round" stroke-width=".1" d="M263.36 162.5V45.01" class="9291e__gridline" color="#000"/><g fill="none" stroke-linecap="round" stroke-linejoin="round" stroke-width="0" color="#000"><path d="M263.36 162.5V155m0-109.99v7.5"/><text fill="#000" font-family="KaTeX_Main" font-size="8" text-anchor="middle" transform="translate(263.36 172.6)"><tspan> 7</tspan></text></g><path fill="none" stroke="#CCC" stroke-linecap="round" stroke-linejoin="round" stroke-width=".1" d="M299.57 162.5V45.01" class="9291e__gridline" color="#000"/><g fill="none" stroke-linecap="round" stroke-linejoin="round" stroke-width="0" color="#000"><path d="M299.57 162.5V155m0-109.99v7.5"/><text fill="#000" font-family="KaTeX_Main" font-size="8" text-anchor="middle" transform="translate(299.57 172.6)"><tspan> 8</tspan></text></g><path fill="none" stroke="#CCC" stroke-linecap="round" stroke-linejoin="round" stroke-width=".1" d="M335.78 162.5V45.01" class="9291e__gridline" color="#000"/><g fill="none" stroke-linecap="round" stroke-linejoin="round" stroke-width="0" color="#000"><path d="M335.78 162.5V155m0-109.99v7.5"/><text fill="#000" font-family="KaTeX_Main" font-size="8" text-anchor="middle" transform="translate(335.78 172.6)"><tspan> 9</tspan></text></g><path fill="none" stroke="#CCC" stroke-linecap="round" stroke-linejoin="round" stroke-width=".1" d="M371.99 162.5V45.01" class="9291e__gridline" color="#000"/><g fill="none" stroke-linecap="round" stroke-linejoin="round" stroke-width="0" color="#000"><path d="M371.99 162.5V155m0-109.99v7.5"/><text fill="#000" font-family="KaTeX_Main" font-size="8" text-anchor="middle" transform="translate(371.99 172.6)"><tspan> 10</tspan></text></g><g fill="none" stroke-linecap="round" stroke-linejoin="round" stroke-width="0" color="#000"><path d="M371.99 162.5h-7.5"/><text fill="#000" font-family="KaTeX_Main" font-size="8" transform="translate(378.99 165.1)"><tspan>5.00</tspan></text></g><g fill="none" stroke-linecap="round" stroke-linejoin="round" stroke-width="0" color="#000"><path d="M371.99 147.81h-7.5"/><text fill="#000" font-family="KaTeX_Main" font-size="8" transform="translate(378.99 150.41)"><tspan>10.00</tspan></text></g><g fill="none" stroke-linecap="round" stroke-linejoin="round" stroke-width="0" color="#000"><path d="M371.99 133.13h-7.5"/><text fill="#000" font-family="KaTeX_Main" font-size="8" transform="translate(378.99 135.73)"><tspan>15.00</tspan></text></g><g fill="none" stroke-linecap="round" stroke-linejoin="round" stroke-width="0" color="#000"><path d="M371.99 118.44h-7.5"/><text fill="#000" font-family="KaTeX_Main" font-size="8" transform="translate(378.99 121.04)"><tspan>20.00</tspan></text></g><g fill="none" stroke-linecap="round" stroke-linejoin="round" stroke-width="0" color="#000"><path d="M371.99 103.75h-7.5"/><text fill="#000" font-family="KaTeX_Main" font-size="8" transform="translate(378.99 106.35)"><tspan>25.00</tspan></text></g><g fill="none" stroke-linecap="round" stroke-linejoin="round" stroke-width="0" color="#000"><path d="M371.99 89.07h-7.5"/><text fill="#000" font-family="KaTeX_Main" font-size="8" transform="translate(378.99 91.67)"><tspan>30.00</tspan></text></g><g fill="none" stroke-linecap="round" stroke-linejoin="round" stroke-width="0" color="#000"><path d="M371.99 74.38h-7.5"/><text fill="#000" font-family="KaTeX_Main" font-size="8" transform="translate(378.99 76.98)"><tspan>35.00</tspan></text></g><g fill="none" stroke-linecap="round" stroke-linejoin="round" stroke-width="0" color="#000"><path d="M371.99 59.7h-7.5"/><text fill="#000" font-family="KaTeX_Main" font-size="8" transform="translate(378.99 62.3)"><tspan>40.00</tspan></text></g><g fill="none" stroke-linecap="round" stroke-linejoin="round" stroke-width="0" color="#000"><path d="M371.99 45.01h-7.5"/><text fill="#000" font-family="KaTeX_Main" font-size="8" transform="translate(378.99 47.61)"><tspan>45.00</tspan></text></g><path fill="none" d="M28 45.01V162.5M371.99 45.01H28" color="#000"/><text stroke-linecap="round" stroke-linejoin="round" stroke-width="0" color="#000" font-family="KaTeX_Main" font-size="10" text-anchor="middle" transform="rotate(-90 57.63 46.13)"><tspan font-weight="bold">Duration </tspan><tspan> in milliseconds</tspan></text><text stroke-linecap="round" stroke-linejoin="round" stroke-width="0" color="#000" font-family="KaTeX_Main" font-size="10" text-anchor="middle" transform="translate(199.99 195.75)"><tspan>Operations / 10</tspan><tspan dy="-5" font-size="8">6</tspan></text><text stroke-linecap="round" stroke-linejoin="round" color="#000" font-family="KaTeX_Main" font-size="8" transform="translate(132.8 10.11)"><tspan>Splay</tspan></text><g fill="none" stroke="currentColor" stroke-linecap="round" stroke-linejoin="round" color="#000"><path stroke="#29C3F6" d="M97.3 7.51h29.9M28 133.87l.36.9.36-.12.37-.05.36-.18.36-.77.36.03.36.35.37-.1.36.4.36-.64.36.28.37-1.18.36.44.36-.09.36-.64.36.31.37-.59.36-.18.36-.02.36-.09.36.39.37-.05.36-.65.36-.19.36 1.52.36-1.69.37-.14.36.34.36.07.36-.53.36-.08.37.29.36-.51.36-.13.36.45.37-.78.36.06.36-.27.36.06.36-.1.37-.04.36.39.36-.57.36-.11.36-.1.37-.12.36.02.36-.14.36-.2.36-.03.37-.16.36.09.36-.11.36.03.37-.23.36-.12.36-.65.36.37.36.08.37-.07.36-.2.36.03.36.03.36-.72.37.48.36-.1.36-.04.36-.63.36.52.37-.19.36-.49.36-.09.36.48.37-.58.36-.06.36-.18.36.56.36-.14.37-.56.36-.25.36.53.36-.12.36.13.37-.15.36.03.36-.19.36-.63.36.58.37-.54.36.29.36-.54.36-.03.36-.04.37-.57.36.42.36.51.36-.52h.37l.36.3.36-.14.36.07.36-.55.37.61.36-.87.36.65.36-.66.36-.02.37-1.17.36 1.12.36.3.36-1.01.36 1.02.37-.18h.36l.36-.55.36.32.37-.5.36.03.36.09.36-1.31.36 1.04.37.02.36-.14.36.44.36-.23.36-.32.37-.11.36.47.36-.42.36-.84.36-.3.37 1.32.36-1.04.36.88.36-.05.36-.5.37.03.36.29.36-.89.36-.74.37 1.11.36-.09h.36l.36.4.36-.62.37.02.36.46.36-1.14.36-.58.36 1.07.37-.22.36.05.36.46.36-.58.36.09.37-.06.36-1.16.36.44.36.59.37-.09.36.55.36-.72.36.08.36.1.37-1.13.36.31.36.46.36.07.36.56.37-.61.36-.02.36-.47.36-.67.36.98.37-.54.36.9.36-.5.36-.15.36.15.37-1.75.36 1.48.36.05.36.1.37.54.36-1.19.36.31.36-1.46.36 1.37.37-.54.36 1.1.36-.71.36.03.36-.52.37-.67.36 1.02.36-.61.36 1.15.36-.61.37.01.36-1.08.36-.05.36 1.08.37-.12.36.06.36-.04.36-.52.36-.68.37.45.36.65.36.4.36-1.05.36 1.03.37-2.67.36 1.88.36-.31.36.96.36-.74.37.25.36-1.84.36 1.07.36-.05.37 1.08.36-.58.36-.07.36-1.65.36 1.09.37-.12.36 1.04.36-1 .36.4.36-1.56.37 1.48.36-.37.36.72.36-.96.36.03.37-.69.36.6.36.54.36-.22.36.06.37-1.8.36 1.68.36-1.15.36 1.5.37-.87.36.5.36-1.54.36.92.36.48.37-.04.36.06.36-1.86.36 1.22.36.05.37.79.36-1.01.36.04.36-.6.36.44.37.5.36-.41.36.45.36-1.51.37.81.36.56.36-.05.36-.03.36-1.59.37.98.36-.1.36 1.14.36-1.16.36-.97.37.92.36.06.36 1.06.36-1.2.36-.49.37.02.36.39.36.96.36-.95.36-.64.37.1.36.26.36 1.13.36-1.03.37-.61.36-.05.36.29.36 1.2.36-1.12.37-1.05.36.75.36.89.36.02.36-.6.37-1.02.36.87.36.6.36-.62.36.04.37-.65.36.11.36 1.48.36-1.02.37-.22.36-.34.36-.17.36 1.67.36-1.1.37-1.6.36 1.4.36.74.36-.61.36-.22.37-.49h.36l.36 1.47.36-1.05.36-.47.37-.04.36.55.36.36.36-.55.36-1.08.37.42.36 1.77.36-1.3.36.08.37-1.26.36 1.05.36.76.36-.71.36-1.01.37.38.36 1.74.36-1.05.36-1.31.36.61.37 1.14.36-.59.36-.09.36-.49.36.01.37 1.46.36-1.08.36-1.57.36 1.58.37.4.36-.7.36.09.36-.98.36.99.37.08.36-.19.36-.48.36.03.36.98.37-.56.36-1.06.36.42.36 1.61.36-1.28.37-1.29.36 1.48.36.59.36-.63.37-.89.36.43.36.87.36-.37.36-.03.37-.59.36.04.36.49.36-.04.36-.43.37-.14.36 1.2.36-1.26.36-.08.36-.03.37 1.59.36-2.08.36.3.36-.07.36 1.71.37-2.17.36.76.36-.21.36 1.54.37-1.47.36-.78.36.78.36 1.55.36-1.2.37-1.52.36.78.36 1.73.36-1.62.36-.46.37.52.36 1.38.36-1.92.36.27.36.08.37 1.55.36-2.08.36.38.36.19.37.97.36-1.1.36-.19.36.21.36.35.37-.09.36-.41.36-.01.36.54.36-.13.37-1.08.36.93.36.09.36-1.07.36.36.37 1.09.36-.47.36-1.68.36 1.51.36.66.37-.43.36-1.71.36.97.36 1.57.37-2.14.36.47.36.07.36.49.36.16.37-1.26.36 1.05.36-.01.36-1.02.36.44.37.98.36-.51.36-1.51.36 1.45.36.54.37-.8.36-.89.36.62.36 1.1.37-1.13.36-.51.36.78.36.17.36-1.62.37 1.52.36.65.36-.75.36-1.39.36.82.37 1.22.36-1.08.36-.48.36.9.36.07.37-1.52.36 1.2.36.85.36-.58.37-1.6.36.99.36.58.36-.03.36-1.82.37 2.14.36-.52.36-1.55.36 1.06.36.92.37-.99.36.02.36-.05.36.5.36-1.74.37 1.45.36.69.36-.38.36-1.53.36.84.37.57.36-1.09.36.38.36 1.12.37-.54.36-1.58.36.96.36.52.36-.6.37-.57.36 1.47.36-.39.36-1.48.36.9.37.67.36-.67.36-.59.36 1.48.36-.41.37-1.61.36 1 .36.52.36-1.51.37 1.51.36.61.36-.68.36-1.59.36 1.04.37.48.36-1.52.36 1.41.36.1.36-.06.37-1.67.36 1.61.36.04.36-1.68.36 1.25.37.86.36-.97.36-1.31.36 2.18.36-.36.37-1.65.36 1.03.36.33.36-1.61.37 1.67.36.15.36-.59.36-1.08.36 1.89.37-.66.36-1.34.36 1.17.36.51.36-1.81.37 1.51.36.62.36-.56.36-2.7.36 3.2.37-.45.36-1.84.36 1.16.36.54.37-.69.36-.45.36 1.04.36-.01.36-2.1.37 2.54.36-.43.36-1.6.36 1.17.36.46.37-1.68.36 1.49.36.05.36-.7.36-.93.37 2.03.36-.55.36-1.93.36 1.83.36.18.37-1.56.36 1.02.36.53.36.02.37-1.72.36 2.09.36-1.42.36-.7.36 2.19.37-.59.36-2.09.36 2.14.36-.22.36-1.41.37 1.09.36.35.36-1.5.36 1.51.36.01.37-.65.36-1.01.36 2.1.36-.47.37-2.18.36 2.19.36-.1.36-1.53.36 1.07.37.23.36-1.34.36.98.36.56.36-1.04.37.36.36.53.36-.54.36-1.02.36 2.05.37-.52.36-2.51.36 2.95.36-.38.37-2.05.36 1.9.36.12.36-1.69.36 1.09.37.54.36-1.57.36 1.02.36.45.36-1.06.37.01.36.75.36-.47.36-.27.36.95.37-.55.36-1.05.36 2.09.36-1.14.36-1.49.37 2.51.36-.64.36-2.62.36 3.25.37-.46.36-2.06.36 2.01.36.05.36-2.25.37 2.16.36-.04.36-1.55.36.89.36.49.37-1.44.36 1.04.36.41.36-1.52.36 1.03.37.41.36-1.51.36 1.02.36.48.37-1.04.36-.03.36 1.08.36-.61.36-1.19.37 1.78.36-.6.36-.97.36 1.95.36-1.56.37-.12.36 1.15.36-1.26.36.18.36 1.04.37-1.04.36-.25.36 1.37.36-1.19.36-.06.37.98.36-.98.36-.14.36 1.13.37-.96.36.06.36.88.36-1 .36-.2.37 1.17.36-1.05.36-.13.36 1.19.36-1.06.37-.04.36 1.05.36-1.14.36-.07.36 1.03.37-1.12.36-.43.36 1.98.36-1.63.37-.26.36 2.04.36-1.61.36-.56.36 2.23.37-1.67.36-.59.36 2.07.36-1.58.36-.52.37 1.5.36-1.18.36.11.36 1.09.36-1.06.37.07.36.78.36-.84.36-.18.36.96.37-1.47.36.91.36.71.36-1.6.37 1.05.36.33.36-1.39.36.89.36.52.37-1.62.36 1.13.36.47.36-2.52.36 3.13.37-.57.36-2.68.36 2.85.36-.85.36-1.1.37 1.73.36-.48.36-1.72.36 2.64.37-1.56.36-.55.36 1.42.36-.46.36-.94.37 1.52.36-1.13.36.03.36 1.03.36-1.64.37 1.01.36.53.36-1.55.36 1.15.36.31.37-2.44.36 2.48.36-.54.36-1.03.37 1.58.36-.55.36-1.62.36 2.79.36-1.75.37-.46.36 1.62.36-1.24.36.01.36 1.05.37-1.66.36 1.21.36.28.36-1.42.36 1.04.37.43.36-2.45.36 2.44.36-.62.36-.88.37 1.42.36-.89.36-.77.36 1.81.37-.97.36-.24.36 1.07.36-1.59.36 1.07.37.55.36-2.09.36 1.98.36-1.1.36-.2.37 1.55.36-1.18.36-.46.36 1.59.36-1.1.37-.02.36.99.36-1.6.36 1.1.37.44.36-1.96.36 1.96.36-.39.36-1.72.37 2.14.36-1 .36-.48.36 1.28.36-.9.37.05.36.91.36-1.55.36.95.36.41.37-2.47.36 2.55.36-.94.36-.58.36 2.08.37-2.09.36.46.36 1.09.36-1.39.37.78.36.67.36-2.69.36 2.67.36-.61.37-1.65.36 2.7.36-2.08.36.48.36 1.12.37-1.6.36.95.36.33.36-2.52.36 2.62.37-.93.36-.62.36 1.96.36-2.01.37.58.36.92.36-1.68.36 1.14.36.64.37-2.89.36 2.66.36-1 .36-.48.36 1.31.37-.61.36-.15.36 1.04.36-2.6.36 3.04.37-1.5.36-1.2.36 2.43.36-1.98.36.62.37.85.36-1.93.36 2.23.36-.8.37-1.91.36 2.98.36-2.02.36.36.36.96.37-1.48.36 1.02.36.27.36-1.73.36 1.98.37-1 .36-.58.36 1.54.36-1.59.36 1.19.37.52.36-2.75.36 2.79.36-1.13.37-.67.36 1.42.36-1.35.36 1.12.36-.14.37-1.64.36 2.18.36-1.03.36-.56.36 1.45.37-1.54.36 1.15.36-.02.36-1.67.36 1.98.37-.8.36-.85.36 1.72.36-1.4.37.77.36.09.36-1.68.36 2.02.36-1.45.37.63.36.89.36-1.57.36 1.1.36.03.37-1.71.36 2.12.36-1.56.36.49.36.93.37-2.48.36 3.08.36-1.67.36-.27.36.89.37-.97.36.98.36.62.36-2.69.37 2.57.36-1.11.36-.64.36 1.7.36-1.7.37 1.26.36.01.36-1.6"/><use xlink:href="#9291e__b" color="#29C3F6" transform="matrix(3.75 0 0 3.75 354.25 106.26)"/><use xlink:href="#9291e__b" color="#29C3F6" transform="matrix(3.75 0 0 3.75 112.25 7.51)"/></g><text stroke-linecap="round" stroke-linejoin="round" stroke-width=".5" color="#000" font-family="KaTeX_Main" font-size="8" transform="translate(132.8 25.11)"><tspan>AVLBottomUp</tspan></text><g fill="none" stroke="currentColor" stroke-linecap="round" stroke-linejoin="round" stroke-width=".5" color="#000"><path stroke="#000" d="M97.3 22.51h29.9M28 148.05l.36-.23.36 1.03.37-2.26.36.95.36.89.36-2.09.36 1.96.37-1.63.36.45.36-.1.36-.14.37.44.36-1.03.36.34.36.46.36-1.18.37.89.36-.55.36-.91.36.99.36-.94.37.89.36-1.08.36.52.36-.19.36.05.37-1.13.36 1.94.36-1.69.36.96.36-1.08.37-.26.36.54.36.03.36-.13.37-1.17.36 1.57.36-1.12.36 1.01.36-2.13.37 1.5.36.41.36-.04.36-1.72h.36l.37 1.55.36.02.36-1.6.36-.11.36 2.04.37-.55.36-2.11.36.45.36 1.93.37-.54.36-1.58.36-.14.36 1.52.36.44.37-3.03.36 2.52.36-1.12.36 1.54.36-1.63.37-1.13.36 1.52.36.98.36-1.61.36-1.04.37 1.92.36.09.36-1.29.36-.86.37 1.8.36-1.52.36 1.06.36-.65.36.99.37-1.54.36.37.36.48.36.45.36-1.56.37.42.36 1 .36-1.61.36.45.36.45.37.44.36-2.04.36.35.36 2.06.36-1.59.37-.57.36.39.36 1.09.36-.6.37-2.12.36 2.54.36-1.06.36.44.36-1.03.37.51.36.42.36.04.36-1.15.36.45.37 1.04.36-1.59.36.98.36-1.15.36.43.37 1 .36-2.59.36 2.64.36-1.08.37.05.36-.15.36.06.36.79.36-2.65.37 2.39.36-.73.36.4.36-1.06.36 1.08.37-.63.36-1.09.36 1.98.36-1.01.36.03.37-.59.36 1.58.36-1.57.36-.64.36 2.58.37-1.52.36-.05.36-.49.36 1.55.37-1.07.36-1.64.36 3.02.36-1.53.36.45.37-1.61.36 1.59.36-.08.36-2.08.36 2.53.37-.61.36-2.1.36 1.97.36.08.36-.03.37-1.64.36 1.51.36.07.36-2.17.37 2.6.36-.57.36-2.15.36 2.51.36-.54.37-.91.36-.23.36 1.61.36-1.95.36-.28.37 2.15.36-1.18.36-.49.36 1.04.36-.06.37-1.47.36.51.36 1.47.36-1.49.36.53.37-.15.36.54.36-1.12.36.57.37.4.36-1.04.36.49.36.01.36.42.37-1.09.36 1.48.36-1.96.36 1.43.36-.45.37-.55.36.93.36-1.03.36.46.36-.06.37.01.36.02.36-.59.36.43.37.01.36-.06.36.58.36-1.13.36.48.37.53.36-1.6.36.97.36.97.36-2.84.37 2.01.36-.33.36-.51.36 1.05.36-1.61.37 1.55.36-.59.36-.91.36 1.33.37-.5.36-.54.36.57.36-.14.36-.47.37.94.36-.56.36-.47.36.32.36.69.37-1.6.36.96.36.41.36-.97.36.09.37.9.36-.56.36-1.04.36 1.53.36-1.08.37.57.36-.18.36-.41.36.52.37-.59.36.46.36.12.36-.58.36.46.37.44.36-.98.36.36.36-.49.36.35.37-.03.36-.47.36.55.36.03.36-1.03.37 1.61.36-.54.36-1 .36 1.51.37-.54.36-1.06.36 1.53.36-.05.36-2.04.37 2.05.36-.05.36-1.48.36.92.36 1 .37-1.54.36-.57.36 1.98.36-1.54.36-.04.37.57.36-.04.36-.53.36.54.36-.09.37-.5.36.4.36-.11.36-.37.37.39.36.04.36-.56.36.42.36.05.37-.4.36.33.36-.02.36-1.07.36 1.32.37-.43.36-.43.36.54.36.04.36-1.03.37 1.4.36-.44.36-1.17.36 1.03.37.01.36-.5.36.48h.36l.36-.54.37.49.36.6.36-1.6.36 1.01.36-.05.37-.56.36.9.36-.97.36-.04.36.61.37-.13.36-.62.36.57.36-.08.36-.45.37.43.36.06.36-1.05.36 1.58.37-1.08.36-.14.36 1.08.36-1.55.36 1.01.37-.11.36-.66.36.5.36.05.36-.53.37.67.36-.11.36-.5.36.49.36-.41.37.42.36-.03.36-.52.36.04.37.92.36-.99.36-.13.36.58.36-.04.37-.57.36-.01.36.54.36-.03.36-.64.37.53.36-.48.36-.05h.36l.36.52.37-.09.36-.93.36 1.46.36-1.05.37-.59.36 1.6.36-.53.36-1.15.36 1.64.37-.99.36-.13.36.92.36-2.04.36 1.32.37 1.11.36-3.07.36 2.17.36 1.03.36-2.62.37 1.48.36.47.36-1.48.36.46.36 1.53.37-3.08.36 2.57.36-.52.36-1.64.37 2.64.36-2.25.36.04.36 2.09.36-1.77.37-.33.36 1.99.36-3.2.36 2.7.36-.06.37-2.05.36 1.53.36-.08.36-.45.36.4.37-.83.36.41.36.8.36-2.01.37 2.07.36-.41.36-1.05.36 1.53.36-1.75.37.55.36-.11.36.51.36.01.36-.46.37-.42.36.92.36-.52.36-.03.36.51.37-.53.36-.01.36.44.36.03.36-.57.37.41.36-1.45.36 2.08.36-.92.37-.59.36.97.36.03.36-.54.36.5.37-.91.36-.33.36 1.22.36-.63.36.52.37-.44.36-.02.36.44.36.01.36-1.7.37 2.27.36-.64.36-1.14.36 1.04.37-.98.36.49.36 1.41.36-3.21.36 2.11.37.55.36-1.9.36 2.02.36-1 .36-1.27.37 3.07.36-3.01.36 1.04.36 1.08.36-2.02.37 1.92.36.04.36-3.21.36 3.65.37-2.05.36.44.36 1.06.36-2.12.36 2.11.37-.41.36-1.72.36 1.64.36-1.06.36 1.53.37-1.05.36.03.36.61.36-.59.36-.08.37-.06.36-.03.36 1.11.36-1.02.36-.71.37.55.36.48.36-.14.36-.32.37-1.14.36 2.63.36-2.05.36.58.36.95.37-2.52.36 2.47.36-.99.36-.57.36 1.54.37-.93.36-.66.36 1.6.36-1.06.36-.66.37 2.22.36-3.77.36 3.7.36-1.51.37-.62.36 1.67.36-1.58.36.5.36.98.37-2.63.36 3.21.36-1.15.36-1.47.36 1.51.37-.62.36.54.36-.51.36-.02.36.51.37-.52.36-.66.36.45.36.6.36-.02.37-.32.36.43.36-.44.36-.05.37-.55.36 1.98.36-2.51.36 1.06.36.5.37-.1.36-.6.36.14.36-.07.36.48.37-.96.36.39.36 1.52.36-2.51.36.9.37 1.1.36-1.68.36 1.08.36-1.58.37 1.52.36 1.03.36-2.56.36 1.05.36 1.48.37-2.57.36 1.51.36-.9.36.37.36.88.37-1.42.36-.1.36 1.99.36-2.64.36 1.7.37.08.36-1.01.36 1.5.36-2.52.36 1.98.37 1.05.36-3.06.36 2.5.36-.57.37-1 .36 1.02.36-.49.36-.55.36.97.37-.95.36 1.52.36-1.06.36-.53.36 1.02.37-.1.36-.97.36 1.04.36-.57.36.02.37.6.36-1.15.36.98.36-.03.37-1.51.36 1.42.36.2.36-.67.36.5.37-1.64.36 1.05.36 1.28.36-2.28.36 1.52.37-1 .36 1.61.36-1.06.36-1.03.36 1.5.37.53.36-1.6.36 1.06.36-1.09.37.5.36.99.36-2.07.36 1.56.36-.02.37-1.49.36 1.96.36-1.52.36.41.36.62.37-1.08.36 1.05.36-.61.36.03.36-.07.37.02.36-.42.36 1.92.36-2.64.36 1.7.37-1.26.36.56.36.96.36-1.56.37.41.36-.08.36.27.36.43.36-1.1.37.58.36 1.11.36-1.52.36.47.36-.61.37.6.36 1.06.36-1.08.36-.61.36.02.37.51.36 1.03.36-1.06.36-.5.37.96.36-.55.36.04.36.04.36-1.06.37 2.07.36-.54.36-1.09.36.52.36-.98.37 1.9.36-.5.36-1.04.36 1.02.36-1.54.37 1.51.36-.09.36-1.15.36 1.18.36-1.16.37.6.36.55.36-1.08.36 1.62.37-2.12.36 1.06.36-.04.36.01.36.99.37-2.18.36 1.01.36.12.36.41.36.03.37-1.54.36.98.36.13.36.37.36-.37.37-.81.36.82.36-.2.36.58.37-.99.36.29.36.17.36-.58.36 1.58.37-1.63.36.57.36-.22.36-.33.36 1.56.37-1.75.36.47.36-.58.36.75.36.79.37-1.38.36.54.36.08.36-.55.36.53.37-.04.36-.14.36.03.36.07.37-.09.36.06.36-.02.36.44.36-1.5.37 1.48.36-.55.36-.54.36 1.65.36-2.65.37 2.06.36.05.36-1.56.36 1.98.36-2.7.37 2.69.36-1.61.36.49.36 1.09.37-2.71.36 2.64.36-2.03.36.72.36.66.37-1.11.36 1.71.36-2.55.36 2.06.36-.53.37-.51.36.88.36-1.47.36 2.11.36-1.14.37-1.02.36 1.58.36-1.1.36 1.09.37-.63.36-.56.36 1.07.36-.96.36-.09.37.51.36-.12.36 1.17.36-2.03.36.93.37-.5.36.48.36 1.03.36-1.97.36 1.3.37-1.43.36 1.03.36.47.36-1 .36 1.51.37-2.94.36 2.29.36-1.48.36 2.1.37.08.36-3.23.36 3.15.36-3.08.36 3.58.37-1.5.36-.62.36 1.67.36-3.35.36 3.75.37-4.07.36 4.11.36-1.48.36-.63.36 2.15.37-4.23.36 4.07.36-3.67.36 3.12.37.13.36-2.64.36 3.03.36-4.1.36 4.15.37-2.06.36.03.36 1.31.36-2.47.36 2.49.37-1.45.36.43.36-.67.36-.04.36 1.6.37-2.02.36 1.48.36-.89.36.58.36-.07.37-.54.36.5.36.15.36-.08.37-.47.36.4.36.53.36-1.66.36 1.47.37-.4.36-.47.36-.15.36.63.36 1.07.37-2.72.36 2.09.36-.54.36-.5.36.52.37-.56.36 1.57.36-2.71.36 2.07.37-.41.36-1.21.36 1.62.36-.45.36-.2.37-.54.36.47.36-.52.36.18.36.56.37.41.36-.97.36.98.36-.97.36-.06.37.49.36-.54.36.54.36-.13.36.16.37-.02.36-.57.36.48.36-.99.37 1.46.36-.51.36-1 .36 2 .36-2.05.37 1.59.36-.57.36-.49.36.43.36-.42.37.39.36.08h.36l.36-.55.36-.12.37.5h.36l.36-.56.36 1.06.37-.4.36-.5.36.49.36-.63.36.62.37-1.09.36 1.61.36-.02.36-1.65.36 2.16.37-2.67.36 2.15.36-1.73.36 1.67.36-.54.37-1.05.36 2.08.36-2.65.36 3.17.37-3.25.36 2.13.36-1.03.36-.03.36.47.37-.5.36 1.55.36-2.66.36 2.55.36-2.47.37 2.55.36-1.63.36.35.36.14.36-1.07.37 1.53.36-1.98.36 3.11.36-3.6.36 3.55.37-2.52.36 1.02.36.13.36-1.1.37 2.63.36-3.25.36 1.99.36-.47.36-.47.37-.05.36.45.36-.38"/><use xlink:href="#9291e__d" transform="matrix(3.75 0 0 3.75 67.83 140.84)"/><use xlink:href="#9291e__d" transform="matrix(3.75 0 0 3.75 112.25 22.51)"/></g><text stroke-linecap="round" stroke-linejoin="round" color="#000" font-family="KaTeX_Main" font-size="8" transform="translate(241.1 10.11)"><tspan>LBSTRelaxed</tspan></text><g fill="none" stroke="currentColor" stroke-linecap="round" stroke-linejoin="round" color="#000"><path stroke="#FFAB00" stroke-dasharray="4.0,2.0,1.0,2.0" d="M205.6 7.51h29.9M28 147.5l.36-.23.36-.15.37.28.36-1.13.36-.17.36.37.36-3.36.37 3.63.36-.7.36.39.36-6.5.37 6.64.36.35.36-1.79.36 1.45.36-.74.37-1.17.36 1.4.36.53.36-3.81.36 3.65.37-2.2.36-3.17.36 3.75.36.38.36-.09.37-8.21.36 8.28.36-4.33.36 4.35.36-.18.37-.67.36.36.36-.1.36-.63.37-9.29.36 11.75.36-3.31.36-4.75.36 6.47.37-.16.36-1.32.36 2.54.36-2.67.36.38.37 1.53.36-1.66.36-.77.36 1.05.36-.11.37-.62.36-3.33.36 3.22.36.46.37-.56.36-.22.36.93.36-1.66.36 1 .37-1.1.36 1.46.36-1.12.36-.1.36-.01.37-.18.36.58.36-.53.36-.26.36 1.66.37-3.79.36 3.55.36-2.74.36 1.54.37-.67.36-.02.36.43.36-1.7.36 2.05.37-3.15.36 3.46.36-2.17.36.5.36.01.37.38.36-1.69.36 1.5.36-.51.36-.65.37.96.36-16.71.36 17.2.36-2.21.36 2.42.37-1.1.36-.18.36-.49.36.9.37-1.13.36 1.08.36-2.26.36 2.68.36-2.7.37 3.03.36-2.22.36-7.82.36-8.44.36 18.37.37-1.78.36 1.02.36-1.68.36 2.01.36-2.6.37 2.95.36-2.08.36-.07.36.4.37-.05.36.48.36-18.62.36 20.19.36-12.8.37 1.31.36 9.79.36 1.46.36-1.13.36-.68.37 1.48.36-1.58.36-.03.36.46.36.9.37-1.08.36-1.09.36 1.96.36-1.58.36.45.37.48.36-.65.36-1.01.36 1.89.37-.04.36-2.61.36 1.98.36.61.36-2.73.37 2.54.36-1.58.36 1 .36-1.7.36 1.51.37-.45.36-1.14.36 1.41.36-.04.36-1.59.37 1.57.36-1.19.36.54.36-.07.37.02.36-1.12.36 1.84.36-1.57.36.08.37.41.36.5.36-2.13.36 2.06.36-1.03.37.36h.36l.36-.07.36-.54.36-.12.37 1.58.36-2.11.36.9h.36l.36-.99.37.98.36.45.36-2.18.36 1.48.37.45.36-2.12.36 2.52.36-15.62.36 15.43.37-1.66.36 1.02.36-.59.36.95.36-1.54.37.87.36.08.36-1.15.36 2.01.36-2.69.37 1.58.36.03.36-.6.36-.03.37.46.36.07.36-.29.36-1.49.36 2.11.37-1.15.36-.1.36.45.36-1.51.36-25.57.37 27.53.36-.44.36.92.36-2.18.36 2.55.37-3.11.36 3.07.36-2.12.36 1.47.37-1.28.36.15.36.34.36.1.36-.03.37-1.64.36 1.51.36-1.07.36 1.45.36-1.53.37 1.45.36-1.56.36 1.46.36-1.37.36.49.37.4.36-.57.36-31.07.36 31.75.36-.08h.37l.36.86.36-1.52.36-15.67.37 14.91.36 2.64.36-.14.36-2.08.36 3.09.37-3.67.36 3.02.36-2.09.36.95.36-1.06.37 2 .36-1.44.36-.1.36.49.36-1.12.37 1.58.36-.58.36-1.2.36 1.61.37-1.12.36-.03.36.46.36-.01.36-.02.37-1.1.36-14.98.36 16.11.36.53.36-1.72.37 1.06.36-.04.36-.59.36-.54.36 2.63.37-4.28.36 3.68.36-3.17.36 2.95.36-19.31.37 16.59.36 3.1.36-1.63.36-.07.37-.05.36.57.36-1.14.36 1.54.36-1.7.37 1.56.36-.67.36-.88.36.42.36.6.37-.65.36.92.36-2.08.36 2.07.36-1.07.37.47.36-.59.36-.48.36.93.37.04.36-1.18.36.49.36 1.15.36-2.26.37 2.55.36-2.71.36 2.76.36-1.1.36-1.08.37.52.36-.17.36-.15.36.71.36-1.11.37 1.61.36-2.88.36 3.22.36-2.18.36.53.37-.09.36.02.36.55.36-.1.37-24.43.36 24.4.36.88.36-1.67.36 1.57.37-1.64.36 1.09.36-24.77.36 24.56.36 1.03.37-2.24.36-22.3.36 23.84.36-.23.36 1.08.37-1.51.36.96.36-.59h.36l.37.46.36-.07.36-.62.36-.01.36.42.37-.56.36.56.36.03.36-1.12.36 1.41.37-1.96.36 2.6.36-2.17.36 1.08.36-.62.37.52.36-1.15.36 2.15.36-2.63.37 1.02.36 1.01.36-2.07.36 2.25.36-2.41.37 2.1.36-1.5.36 1.51.36-2.64.36 3.55.37-3.63.36 3.09.36-2.61.36 2.06.36-1.13.37.46.36-.54.36.63.36-1.68.36 1.51.37-.57.36-.04.36.52.36.03.37-.57.36-.6.36 1.01.36-.61.36.06.37-.6.36 1.08.36-.6.36-.04.36.36.37-1 .36 1.51.36-1.51.36.55.36-.1.37-.47.36 1.49.36-1.07.36-.04.37-.56.36 1.14.36-.6.36-.05.36-.02.37-.52.36 1.56.36-1.64.36.46.36-.04.37-.04.36-.03.36-.07.36.59.36-1.08.37.98.36-1.04.36 1.48.36-2.6.36 2.02.37-1.07.36.94.36-.51.36.62.37-1.14.36.55.36-.54.36.56.36.37.37-1.03.36.46.36.1.36-.04.36.49.37-1.27.36.03.36 1 .36-.93.36 1.48.37-.97.36-1.68.36 2.6.36-2.58.37-38.39.36 39.49.36 1.45.36-.6.36.48.37-1.12.36.5h.36l.36.42.36-1.09.37 1.15.36-.64.36-1.33.36 1.77.36-.55.37.5.36-1.05.36-.11.36.98.37-.94.36.41.36-30.25.36 30.63.36.06.37-1.06.36 2 .36-1.66.36 1.01.36-.53.37-1.09.36 2.65.36-3.22.36 3.03.36-2.1.37-.02.36 1.12.36-1.08.36.99.36-1.06.37-.02.36 1.53.36-2.12.36 2.09.37-2.64.36 1.92.36-.51.36.06.36-.04.37-.05.36.1.36-.61.36.96.36-1.02.37.6.36-.65.36.47.36.58.36-1.61.37 2.61.36-3.67.36 4.02.36-4.62.37 4.08.36-1.97.36.43.36-.05.36-.01.37-.59.36 1.01.36-1.45.36 1.1.36-.06.37.41.36-1.03.36.51.36-.58.36.99.37-1.43.36 1.34.36-1.55.36 2.15.36-1.61.37.33.36-.34.36.35.36.14.37-.63.36 1.16.36-1.28.36.14.36 1.01.37-1.65.36 2.03.36-2.07.36 1.09.36-.61.37 1.08.36-1.09.36.5.36-.99.36 2.08.37-1.69.36.45.36-.44.36-.01.37-.01.36.46.36.6.36-1.13.36-.02.37.45.36-.46.36.47.36-.58.36.54.37.43.36-1.51.36 1.03.36-.58.36.49.37-.15.36.19.36-.49.36.51.36-1.05.37 1.56.36-1.06.36-35.82.36 36.53.37-.53.36.01.36.63.36-.16.36-41.11.37 42.12.36-40.98.36 41.43.36-1.23.36 1.08.37-1.2.36 1 .36-1.04.36.62.36-.63.37 1.44.36-2.02.36 1.53.36-1.12.37.51.36.02.36-.69.36.6.36-.05h.37l.36-.01.36.45.36-1.66.36 1.56.37-1.6.36 1.16.36.49.36-1.11.36.46.37-.44.36.41.36-.04.36.02h.37l.36.01.36.44.36-1.53.36 1.54.37-1.68.36 1.65.36-1.18.36.48.36-.5.37 1.01.36-2.03.36 3.06.36-3.16.36 3.09.37-3.07.36 1.38.36-.37.36.81.36-.93.37 1.06.36-1.59.36 1.52.36-1.09.37.5.36-.47.36 1.52.36-2.58.36 1.48.37-.45.36 1.02.36-.54.36-.08.36-1.57.37 3.1.36-3.15.36 1.57.36-.53.36.46.37-.48.36 1 .36-1.03.36.95.37-1.56.36 1.98.36-3.57.36 3.98.36-3.01.37-44.2.36 45.7.36.58.36-.04.36.02.37-.63.36-.02.36.45.36-.51.36.47.37.52.36-1.58.36 1.52.36-1.01.36 1.04.37-1.67.36 1.65.36-2.16.36 2.58.37-1.12.36-.54.36 1.06.36-2.06.36 1.94.37-1.02.36.55.36-47.62.36 47.58.36 1.61.37-3.31.36 3.16.36-1.56.36.5.36.43.37-1.49.36 1.05.36-.62.36.48.37.09.36-.16.36-.43.36 1.04.36-1.12.37.46.36-.54.36.53.36-.47.36 1.48.37-2.12.36 1.59.36-1.08.36.6.36-.61.37-.1.36 1.51.36-1.92.36.97.36-.63.37-.04.36 1.06.36-.97.36.35.37.03.36-.48.36.43.36-.62.36.61.37.01.36-.57.36.46.36-.48.36-.01.37 1.45.36-2.1.36 1.64.36-1.66.36 1.54.37-1.5.36 2.16.36-2.12.36.92.37.02.36-1.08.36 1.58.36-1.55.36 1.53.37-1.07.36.45.36-.04.36-.42.36-.11.37 1.06.36-1.64.36.35.36 1.17.36-.56.37-1.07.36 1.52.36-2.18.36 2.14.37-.93.36.5.36.49.36-1.02.36.44.37-1.06.36 1.59.36-1.19.36.14.36-.53.37 1.4.36-.95.36-.11.36 1.05.36-1.41.37.98.36-.05.36-.07.36-.47.36-.54.37 1.03.36-.17.36-.43.36.51.37-.51.36.46.36.02.36-.1.36-1.01.37 1 .36-1 .36 1.04.36-.56.36.93.37-1.59.36 1.12.36.03.36-.54.36-.09.37-.06.36.04.36.54.36-.59.37.94.36-1.52.36 1.06.36-.48.36-.09h.37l.36.96.36-1 .36-.05.36 1.1.37-1.03.36-.12.36-.43.36 1.45.36-2.56.37 3.02.36-1.98.36.96.36.04.36-1.07.37.92h.36l.36-1.05.36 1.13.37-.18.36-1.03.36 2.13.36-3.18.36 2.64.37-1.04.36-.41.36 1.46.36-1.7.36 1.64.37-1.57.36.47.36-.04.36 1.09.36-1.07.37-.13.36.13.36.93.36-2.02.37.35.36 2.23.36-2.08.36-.02.36 2.05.37-2.68.36 2.12.36-2.13.36 2.09.36-1.57.37 1.11.36-.01.36-.67.36-.95.36 2.01.37-1.1.36.09.36.06.36.38.36.07.37-1.19.36-.01.36 2.09.36-2.04.37-.54.36 2.54.36-2.59.36 2.03.36-1.57.37.97.36-.5.36.07.36-.56.36.95.37-.01.36-.94.36.98.36-.49.36-.13.37-.45.36 1 .36-.06.36-.48.37-.06.36.55.36-2.15.36 3.22.36-1.63.37-.02.36.49.36-1.6.36 1.11.36.99.37-1.59.36 1.02.36-.64.36-.89.36.96.37.58.36-.61h.72l.37.01.36.48.36-1.19.36 1.57.36-.91.37-1.66.36 2.5.36-1.03.36.08.36-.08.37.04.36.04.36.37.36-1.02.36.6.37.48.36-1.06.36-.08.36 1.69.36-1.7.37 1.12.36-1.05.36 1.05.36-67.65.37 67.66.36.51.36-.58.36-1.15.36 2.58.37-1.92.36.44.36.42"/><use xlink:href="#9291e__e" color="#FFAB00" transform="matrix(3.75 0 0 3.75 125.4 134.8)"/><use xlink:href="#9291e__e" color="#FFAB00" transform="matrix(3.75 0 0 3.75 220.55 7.51)"/></g><text stroke-linecap="round" stroke-linejoin="round" color="#000" font-family="KaTeX_Main" font-size="8" transform="translate(241.1 25.11)"><tspan>TreapTopDown</tspan></text><g fill="none" stroke="currentColor" stroke-linecap="round" stroke-linejoin="round" color="#000"><path stroke="#00C853" stroke-dasharray="4.5,2.0,0.5,2.0,0.5,2.0" d="M205.6 22.51h29.9M28 142.18l.36.01.36.95.37-1.03.36.4.36.41.36-1.13.36.44.37-.18.36-.66.36-.09.36-.3.37.98.36-1.76.36 1.46.36-1.34.36.45.37-1.11.36 1.99.36-2.25.36-.06.36.86.37-.56.36-.05.36-.05.36.51.36-1.27.37 1.52.36-1.58.36.55.36.42.36-.21.37-1.53.36 3.03.36-3.66.36 2.56.37-1.77.36 1.05.36-1.24.36 1.44.36-1.62.37.85.36-1.29.36.72.36.38.36-1.66.37 3.12.36-3.28.36 1.52.36-1.18.36.52.37-.23.36-.45.36 1.87.36-2.67.37 2.04.36-2.24.36.54.36 2 .36-3.24.37 3.1.36-2.87h.36l.36 1.92.36-1.51.37 1 .36-.56.36-.53.36-.15.36 1.06.37-.73.36-1 .36 1.5.36-.67.37.48.36-2.21.36 1.49.36.92.36-2.64.37 2.19.36-.65.36-.57.36.48.36-.11.37-.57.36.01.36 1.03.36-1.16.36-.12.37 1.06.36-.73.36-1.12.36 1 .36.01.37-.6.36.4.36.6.36-1.68.37.53.36.42.36-.63.36 1.49.36-3.21.37 2.11.36.93.36-2.6.36 1.55.36.43.37-2.28.36 2.01.36-1.44.36.94.36-.03.37-.6.36 1.12.36-2.24.36 2.05.37-1.06.36.5.36-.61.36.01.36 1.15.37-1.64.36.43.36.52.36.45.36-1.08.37-.68.36 1 .36.51.36-1.69.36.51.37.27.36-1.01.36 1.63.36-1.16.36-.59.37 1.43.36-1.02.36-.01.36.96.37-2.23.36.66.36 1.86.36-2.68.36.99.37 1.02.36-2.09.36.95.36 1.45.36-2.09.37.07.36 1.5.36-1.69h.36l.36 1.01.37-.04.36-1.17.36 1.53.36-1.67.37-.48.36 1.51.36-.06.36-.44.36-.07.37.6.36-1.11h.36l.36 2.49.36-3.12.37.42.36 2.14.36-2.76.36 1.04.36.54.37-1.18.36.99h.36l.36-1.61.36 2.07.37-1.15.36-.58.36.07.36 1.39.37-1.09.36-1.08.36 1.56.36-.53.36-.04.37-.08.36-.12.36.01.36-.58.36 1.57.37-2.22.36.97.36.6.36-1.08.36.54.37.5.36-1.62.36.93.36.62.37-.67.36-.66.36 1.04.36-.69.36-.93.37 1.42.36-.42.36-.63.36.54.36-.6.37.94.36-.55.36-.5.36.02.36.31.37.44.36-1.45.36 2.05.36-2.13.37.03.36 1.44.36.47.36-2.58.36 1.58.37-.14.36.45.36-1.56.36 1.02.36-.67.37.57.36.55.36-1.73.36.62.36.61.37.28.36-1.57.36 2.06.36-2.69.36 2.1.37-.05.36-2.21.36 1.63.36-.48.37 1.5.36-2.77.36.6.36 2.06.36-1.59.37-.14.36.49.36.55.36-2.14.36 1.55.37.46.36-.52.36-1.61.36 2.12.36-1.61.37.37.36 1.59.36-2.22.36.63.37.94.36-1.64.36.49.36.15.36.82.37-1.04.36-.13.36.71.36-.59.36.5.37-.67.36.51.36-1.09.36 1.11h.36l.37-.55.36-.54.36 1.47.36-1.06.36.45.37-.54.36.6.36-1.02.36-.12.37 2.01.36-.99.36-1.19.36.03.36 1.61.37-.61.36-.63.36-.45.36.61.36.89.37-.1.36-1.57.36.02.36.47.36.38.37.01.36-1.16.36.46.36 1.17.37-1.56.36 2 .36-2.61.36.48.36.99.37-.61.36 1.13.36-1.58.36 2 .36-2.62.37.56.36.64.36 1.49.36-1.11.36-1.51.37 1.03.36-.03.36 1 .36-1 .36-.07.37.42.36-1.14.36 1.1.36-.15.37.04.36-1.47.36 1.45.36.51.36-1 .37-.51.36 1.11.36-1.13.36.89.36 1.17.37-1.56.36-.47.36-.11.36 1.55.36-.04.37-1.02.36-.59.36.45.36.53h.37l.36-.03.36-1.06.36.6.36-.24.37 1.16.36-1.17.36-1 .36 3.11.36-2.68.37-.09.36.64.36 1.94.36-2.67.36-.45.37 1.1.36.95.36-.62.36-.42.37-.64.36 1.62.36-2.09.36 1.94.36-.98.37-.13.36.58.36-.92.36 1.05.36.54.37-1.08.36.02.36-.72.36 1.6.36-2.03.37 2.47.36-2.09.36 1.02.36-.6.36-.04.37.04.36 1.04.36-.6.36-1.46.37 1.52.36-.72.36.06.36.95.36-.91.37-1.14.36 1.94.36-.98.36.01.36 1.04.37-1.58.36.38.36.15.36-.15.36.07.37-.08.36.44.36-.45.36.05.37.4.36-.66.36.09.36-.01.36 1.08.37-1.22.36-.46.36.51h.36l.36.47.37.02.36-1.73.36 1.68.36.54.36-1.61.37.01.36 1.59.36-.69.36-1.5.36 1.14.37 1 .36-1.09.36-.04.36-.04.37.09.36-.16.36-.03.36.53.36-.48.37.31.36-.93.36.41h.36l.36 1.59.37-2.18.36.08.36-.66.36 2.62.36-1.64.37-.42.36.3.36.62.36-.59.37 1 .36-2.02.36.49.36 1.1.36-.13.37-1.13.36.6.36 1.08.36-1.03.36-1.24.37 1.18.36.42.36.01.36-1.15.36.5.37.11.36-.12.36.11.36.75.37-1.9.36.99.36.55.36.01.36-1.71.37 1.61.36-.53.36-.03.36-.64.36 2.1.37-2.58.36.55.36.41.36.45.36-.99.37.99h.36l.36-1.04.36 1.09.36-1.17.37.15.36.94.36-1 .36 1.96.37-2.71.36.11.36.92.36 1.67.36-1.76.37-1.01.36 1.65.36-.58.36.46.36-1 .37.58.36-.51.36.42.36.57.36-.55.37-.61.36 1.46.36-1.43.36.97.37-1.61.36 1.59.36-.05.36-1.14.36.51.37-.46.36.45.36-.53.36 1.57.36-1.56.37.96.36-1.52.36 1.54.36-.68.36.65.37-.53.36-.52.36.97.36-1.13.36.1.37.99.36-1.09.36 1.05.36-1.07.37.51.36-.06.36-.5.36.52.36-.17.37-.01.36.44.36-1.26.36 1.38.36-.55.37-.56.36-.49.36 1.55.36-.05.36-1.07.37.53.36-.06.36-.46.36.51.37-.48.36.36.36 1.09.36-2.25.36 1.06.37.41.36-.5.36-.49.36-.43.36 1.51.37.95.36-2.59.36-.05.36 1.15.36-.69.37 1.07.36-.45.36-.55.36.53.36-.09h.37l.36-.51.36.49.36-.55.37.02.36 1.01.36.53.36-2.13.36 1.02.37-1.12.36 1.57.36-.02.36-1.21.36-.38.37.99.36-.03.36-.08.36-.38.36.4.37-.35.36.78.36.08.36-1.08.37-.03.36-.12.36.55.36.11.36.48.37-1.64.36 1.04.36-.52.36-.67.36 1.66.37.65.36-2.05.36.45.36.5.36.07.37.54.36-.71.36-.49.36.49h.37l.36-.42.36.4.36-.52.36.48.37-.03.36-.42.36.97.36-1.13.36.1.37.49.36-.16.36-.46.36.02.36.96.37.01.36-1.04.36-.47.36.9.36.58.37-.04.36-1.6.36.48.36-.41.37 1.49.36-.09.36-.59.36-.95.36.95.37-.44.36.46.36-.62.36.5.36-.04.37-.44.36.55.36-.09.36-.64.36-.47.37 2.25.36-1.33.36-.53.36-.49.37 1.63.36-.14.36-1.49.36 1.07.36-1.02.37 1.5.36-1.13.36-.53.36.06.36 2.05.37-.61.36-.96.36-.12.36.13.36.92.37-1.52.36-.06.36 1.07.36.47.36-1.65.37 1.6.36-1 .36.43.36-.61.37.03.36 1.09.36-1.01.36.47.36-1.16.37.12.36 1.58.36-.15.36-.49.36-1.1.37.48.36.59.36-.5.36-.57.36.99.37-.46.36.05.36.85.36-.98.37.5.36-.49.36-.16.36 1.14.36-1.09.37-.42.36.37.36.58.36.46.36-.98.37-.17.36.06.36 1.05.36-1.56.36.5.37-.11.36.57.36-.54.36.06.36.95.37-.56.36-1.1.36.59.36.04.37.48.36-.12.36-.89.36.41.36.63.37-.13.36-.61.36.59.36-.99.36.44.37-.08.36-.04.36.54.36-.56.36 1.52.37-1.92.36-.1.36 1 .36-1.02.37 1.46.36-1.01.36-.1.36.1.36 1.03.37-.5.36-.49.36-.61.36.43.36.59.37-.57.36.01.36-.06.36.57.36-1.17.37.96.36-.95.36.46.36 1.02.37-1.49.36.58.36.9.36-1.01.36-.03.37-.55.36.16.36.44.36 1.05.36-.58.37-1.23.36.72.36.45h.36l.36-.53.37.47.36-1.02.36.5.36-.07.36-.05.37.64.36-.58.36-.07.36-.06.37.12.36-.02.36.42.36-1.11.36 1.07.37-.4.36-.01.36.99.36-1.64.36-.08.37.51.36.55.36-.45.36.04.36-.1.37-.47.36.37.36.66.36-.59.37.04.36.42.36-.48.36.09.36.42.37-.06.36-.47.36.08.36-.61.36.93.37-1 .36 1.6.36-1 .36-.65.36.48.37.03.36.56.36-1.14.36 1.67.36-1.13.37-.49.36 1.05.36-1.1.36.6.37-.11.36.56.36-.17.36-.41h.36l.37-.62.36.62.36.02.36-.12.36.46.37-1.01.36.47.36-.13.36.65.36-.09.37-1.02.36 1.62.36-1.67.36.7.37-.1.36-.52.36.49.36-.46.36 1.04.37-.58.36-.01.36-.03.36-.03.36.49.37-1.01.36.92.36-.52.36.14.36.39.37-1.07.36.5.36-.45.36 1.59.36-1.08.37-.7.36 1.16.36-1.02.36 1.54.37-1.59.36.49.36.07.36-.11.36-.48.37.55.36.42.36-.49.36-.03.36.47.37-.03.36-1.25.36.74.36-.57.36 1.58.37-1.61.36-.06.36.6.36-.53.37 1.11.36-.62.36.46.36-.42.36-.1.37-.03.36-1.02.36.94.36.04.36-.05.37.6.36-.49.36.47.36-.64.36-.54.37.68.36.32.36-.5.36-.4.37-.11.36.97.36.55.36-2.09.36.47.37.47.36-.04.36.58.36-.97.36-.01.37-.01.36 2.55.36-2.21.36-.42.36-.07.37 1.11.36-1.1.36.47.36-.4.36-.65.37 2.06.36-.46.36-.58.36-.54.37.54.36.06.36-.08.36.08.36-.13.37.96.36-1.4.36-.06"/><use xlink:href="#9291e__f" color="#00C853" transform="matrix(3.75 0 0 3.75 182.98 121.73)"/><use xlink:href="#9291e__f" color="#00C853" transform="matrix(3.75 0 0 3.75 220.55 22.51)"/></g><path fill="none" d="M28 45.01V162.5M371.99 45.01H28" color="#000"/></svg>