<svg xmlns="http://www.w3.org/2000/svg" xmlns:xlink="http://www.w3.org/1999/xlink" viewBox="0 0 400 200"><path fill="none" d="M0 0h400v200H0z"/><defs><path id="7c174__b" stroke="currentColor" stroke-width=".267" d="M-1-1h2v2h-2z"/><path id="7c174__d" fill="currentColor" stroke="currentColor" stroke-width=".267" d="M-1-1h2v2h-2z"/><path id="7c174__a" stroke="currentColor" stroke-width=".267" d="m0-1.33-1.33 2h2.66z"/><path id="7c174__h" stroke="currentColor" stroke-width=".267" d="M0 1.33 1.265.411.782-1.067l-1.564-.009-.483 1.487z"/><use xlink:href="#7c174__a" id="7c174__e" fill="currentColor" stroke="none"/><use xlink:href="#7c174__b" id="7c174__c" stroke="currentColor" transform="rotate(45)"/><use xlink:href="#7c174__c" id="7c174__g" fill="currentColor" stroke="none"/><circle id="7c174__f" cx="0" cy="0" r="1" stroke="currentColor" stroke-width=".267"/></defs><path fill="none" stroke="#CCC" stroke-linecap="round" stroke-linejoin="round" stroke-width=".1" d="M46.1 162.5V75.01" class="7c174__gridline" color="#000"/><g fill="none" stroke-linecap="round" stroke-linejoin="round" stroke-width="0" color="#000"><path d="M46.1 162.5V155m0-79.99v7.5"/><text fill="#000" font-family="KaTeX_Main" font-size="8" text-anchor="middle" transform="translate(46.1 172.6)"><tspan> 1</tspan></text></g><path fill="none" stroke="#CCC" stroke-linecap="round" stroke-linejoin="round" stroke-width=".1" d="M82.31 162.5V75.01" class="7c174__gridline" color="#000"/><g fill="none" stroke-linecap="round" stroke-linejoin="round" stroke-width="0" color="#000"><path d="M82.31 162.5V155m0-79.99v7.5"/><text fill="#000" font-family="KaTeX_Main" font-size="8" text-anchor="middle" transform="translate(82.31 172.6)"><tspan> 2</tspan></text></g><path fill="none" stroke="#CCC" stroke-linecap="round" stroke-linejoin="round" stroke-width=".1" d="M118.52 162.5V75.01" class="7c174__gridline" color="#000"/><g fill="none" stroke-linecap="round" stroke-linejoin="round" stroke-width="0" color="#000"><path d="M118.52 162.5V155m0-79.99v7.5"/><text fill="#000" font-family="KaTeX_Main" font-size="8" text-anchor="middle" transform="translate(118.52 172.6)"><tspan> 3</tspan></text></g><path fill="none" stroke="#CCC" stroke-linecap="round" stroke-linejoin="round" stroke-width=".1" d="M154.73 162.5V75.01" class="7c174__gridline" color="#000"/><g fill="none" stroke-linecap="round" stroke-linejoin="round" stroke-width="0" color="#000"><path d="M154.73 162.5V155m0-79.99v7.5"/><text fill="#000" font-family="KaTeX_Main" font-size="8" text-anchor="middle" transform="translate(154.73 172.6)"><tspan> 4</tspan></text></g><path fill="none" stroke="#CCC" stroke-linecap="round" stroke-linejoin="round" stroke-width=".1" d="M190.94 162.5V75.01" class="7c174__gridline" color="#000"/><g fill="none" stroke-linecap="round" stroke-linejoin="round" stroke-width="0" color="#000"><path d="M190.94 162.5V155m0-79.99v7.5"/><text fill="#000" font-family="KaTeX_Main" font-size="8" text-anchor="middle" transform="translate(190.94 172.6)"><tspan> 5</tspan></text></g><path fill="none" stroke="#CCC" stroke-linecap="round" stroke-linejoin="round" stroke-width=".1" d="M227.15 162.5V75.01" class="7c174__gridline" color="#000"/><g fill="none" stroke-linecap="round" stroke-linejoin="round" stroke-width="0" color="#000"><path d="M227.15 162.5V155m0-79.99v7.5"/><text fill="#000" font-family="KaTeX_Main" font-size="8" text-anchor="middle" transform="translate(227.15 172.6)"><tspan> 6</tspan></text></g><path fill="none" stroke="#CCC" stroke-linecap="round" stroke-linejoin="round" stroke-width=".1" d="M263.36 162.5V75.01" class="7c174__gridline" color="#000"/><g fill="none" stroke-linecap="round" stroke-linejoin="round" stroke-width="0" color="#000"><path d="M263.36 162.5V155m0-79.99v7.5"/><text fill="#000" font-family="KaTeX_Main" font-size="8" text-anchor="middle" transform="translate(263.36 172.6)"><tspan> 7</tspan></text></g><path fill="none" stroke="#CCC" stroke-linecap="round" stroke-linejoin="round" stroke-width=".1" d="M299.57 162.5V75.01" class="7c174__gridline" color="#000"/><g fill="none" stroke-linecap="round" stroke-linejoin="round" stroke-width="0" color="#000"><path d="M299.57 162.5V155m0-79.99v7.5"/><text fill="#000" font-family="KaTeX_Main" font-size="8" text-anchor="middle" transform="translate(299.57 172.6)"><tspan> 8</tspan></text></g><path fill="none" stroke="#CCC" stroke-linecap="round" stroke-linejoin="round" stroke-width=".1" d="M335.78 162.5V75.01" class="7c174__gridline" color="#000"/><g fill="none" stroke-linecap="round" stroke-linejoin="round" stroke-width="0" color="#000"><path d="M335.78 162.5V155m0-79.99v7.5"/><text fill="#000" font-family="KaTeX_Main" font-size="8" text-anchor="middle" transform="translate(335.78 172.6)"><tspan> 9</tspan></text></g><path fill="none" stroke="#CCC" stroke-linecap="round" stroke-linejoin="round" stroke-width=".1" d="M371.99 162.5V75.01" class="7c174__gridline" color="#000"/><g fill="none" stroke-linecap="round" stroke-linejoin="round" stroke-width="0" color="#000"><path d="M371.99 162.5V155m0-79.99v7.5"/><text fill="#000" font-family="KaTeX_Main" font-size="8" text-anchor="middle" transform="translate(371.99 172.6)"><tspan> 10</tspan></text></g><g fill="none" stroke-linecap="round" stroke-linejoin="round" stroke-width="0" color="#000"><path d="M371.99 162.5h-7.5"/><text fill="#000" font-family="KaTeX_Main" font-size="8" transform="translate(378.99 165.1)"><tspan>4.00</tspan></text></g><g fill="none" stroke-linecap="round" stroke-linejoin="round" stroke-width="0" color="#000"><path d="M371.99 152.78h-7.5"/><text fill="#000" font-family="KaTeX_Main" font-size="8" transform="translate(378.99 155.38)"><tspan>6.00</tspan></text></g><g fill="none" stroke-linecap="round" stroke-linejoin="round" stroke-width="0" color="#000"><path d="M371.99 143.06h-7.5"/><text fill="#000" font-family="KaTeX_Main" font-size="8" transform="translate(378.99 145.66)"><tspan>8.00</tspan></text></g><g fill="none" stroke-linecap="round" stroke-linejoin="round" stroke-width="0" color="#000"><path d="M371.99 133.34h-7.5"/><text fill="#000" font-family="KaTeX_Main" font-size="8" transform="translate(378.99 135.94)"><tspan>10.00</tspan></text></g><g fill="none" stroke-linecap="round" stroke-linejoin="round" stroke-width="0" color="#000"><path d="M371.99 123.62h-7.5"/><text fill="#000" font-family="KaTeX_Main" font-size="8" transform="translate(378.99 126.22)"><tspan>12.00</tspan></text></g><g fill="none" stroke-linecap="round" stroke-linejoin="round" stroke-width="0" color="#000"><path d="M371.99 113.89h-7.5"/><text fill="#000" font-family="KaTeX_Main" font-size="8" transform="translate(378.99 116.49)"><tspan>14.00</tspan></text></g><g fill="none" stroke-linecap="round" stroke-linejoin="round" stroke-width="0" color="#000"><path d="M371.99 104.17h-7.5"/><text fill="#000" font-family="KaTeX_Main" font-size="8" transform="translate(378.99 106.77)"><tspan>16.00</tspan></text></g><g fill="none" stroke-linecap="round" stroke-linejoin="round" stroke-width="0" color="#000"><path d="M371.99 94.45h-7.5"/><text fill="#000" font-family="KaTeX_Main" font-size="8" transform="translate(378.99 97.05)"><tspan>18.00</tspan></text></g><g fill="none" stroke-linecap="round" stroke-linejoin="round" stroke-width="0" color="#000"><path d="M371.99 84.73h-7.5"/><text fill="#000" font-family="KaTeX_Main" font-size="8" transform="translate(378.99 87.33)"><tspan>20.00</tspan></text></g><g fill="none" stroke-linecap="round" stroke-linejoin="round" stroke-width="0" color="#000"><path d="M371.99 75.01h-7.5"/><text fill="#000" font-family="KaTeX_Main" font-size="8" transform="translate(378.99 77.61)"><tspan>22.00</tspan></text></g><path fill="none" d="M28 75.01v87.49m343.99-87.49H28" color="#000"/><text stroke-linecap="round" stroke-linejoin="round" stroke-width="0" color="#000" font-family="KaTeX_Main" font-size="10" text-anchor="middle" transform="rotate(-90 65.13 53.63)"><tspan font-weight="bold">Duration </tspan><tspan> in milliseconds</tspan></text><text stroke-linecap="round" stroke-linejoin="round" stroke-width="0" color="#000" font-family="KaTeX_Main" font-size="10" text-anchor="middle" transform="translate(199.99 195.75)"><tspan>Operations / 10</tspan><tspan dy="-5" font-size="8">6</tspan></text><text stroke-linecap="round" stroke-linejoin="round" color="#000" font-family="KaTeX_Main" font-size="8" transform="translate(99.2 10.11)"><tspan>Conc</tspan></text><g fill="none" stroke="currentColor" stroke-linecap="round" stroke-linejoin="round" color="#000"><path stroke="#9F650D" stroke-dasharray="1.0,2.0" d="M63.7 7.51h29.9M28 136.61l.36-.36.36 2.7.37-3.58.36 2.55.36-2.43.36 2.28.36-.94.37-.79.36 2.45.36-4.27.36 4.3.37-2.64.36.08.36 3.34.36-6.06.36 5.23.37-4.21.36 4.31.36-1.66.36-1.15.36 2.79.37-3.57.36 2.57.36-.8.36-1.87.36 4.32.37-5.19.36 3.49.36-2.93.36 1.54.36 1.03.37-2.44.36 4.19.36-6.14.36 5.15.37-3.5.36 1.62.36-.22.36-1.06.36.95.37-1.82.36 1.61.36-.95.36 1.64.36-3.28.37 4.29.36-3.61.36 2.72.36-3.46.36 4.18.37-1.78.36 2.09.36.75.36 1.72.37-3.42.36.08.36 2.53.36.22.36-.91.37-1.68.36.84.36.69.36.91.36-2.39.37 1.74.36.68.36-1.67.36.74.36-1.67.37 2.5.36-.64.36-1.05.36.83.37-.95.36.94.36-.12.36.79.36-4.29.37 3.68.36.88.36-.2.36-4.1.36 3.37.37 1.53.36-.62.36-1.88.36-2.49.36 5.07.37.03.36-3.36.36.03.36 1.61.36 1.86.37-3.71.36.91.36-.1.36 1.78.37-.69.36-.91.36.11.36.83.36.72.37-2.6.36.95.36 1.84.36-.95.36.01.37-2.58.36 4.26.36-2.62.36 1.87.36-2.63.37 1.88.36-.09.36-.04.36-.16.37-.81.36.91.36-1.03.36.93.36-.09.37-.87.36 1.15.36-.05.36-1.14.36.28.37.87.36-.02.36-.16.36-1.65.36 2.54.37-1.78.36 1.78.36-3.53.36 3.67.36-.87.37-1.89.36 1.56.36 1.12.36-.96.37-2.39.36 3.4.36-.86h.36l.36-.81.37.99.36-1.17.36 1.05.36-.01.36-.93.37.86.36.01.36-.11.36-.73.36.85.37-.77.36-.05.36 2.61.36-2.42.37 1.56.36-3.52.36 3.57.36-1.73.36 1.68.37-3.47.36 3.34.36-.85.36.7.36-2.71.37 1.92.36-.91.36 2.6.36-3.38.36 1 .37-.22.36 2.69.36-2.68.36-.61.36 1.52.37.07.36-.05.36-.8.36 1.87.37-1.74.36.85.36-1.99.36 2.79.36-.95.37.02.36-2.6.36 3.45.36-.76.36.99.37-2.72.36.83.36 1.75.36-.78.36-.87.37.08.36.86.36-.25.36-.03.37-.89.36.15.36.68.36 1.11.36-2.71.37 1.76.36.9.36-.95.36-2.4.36 3.17.37.06.36-.86.36-2.71.36 2.67.36.74.37.08.36-4.16.36 3.3.36 1.72.37-2.53.36-.83.36 1.71.36.66.36-1.71.37.18.36.74.36.09.36-.11.36-1.47.37 1.65.36 1.64.36-2.47.36-1.78.36 2.57.37 1.61.36-1.73.36-2.35.36 2.52.36.67.37-1.73.36.07.36.8.36-.94.37 1.91.36-1.03.36-1.62.36 1.58.36.99.37-1.87.36-.72.36 1.7.36.83.36-1.76.37-.06.36.18.36 1.54.36-1.63.36.73.37.07.36-.96.36.43.36.81.37.84.36-2.43.36 1.64.36-.1.36.87.37-1.62.36-.9.36 1.62.36.87.36.87.37-4.27.36 1.01.36 3.46.36-.97.36-2.58.37.07.36 3.38.36-.81.36-1.94.36-1.78.37 3.54.36.07.36-2.8.36.91.37.89.36.71.36-2.67.36 2.02.36.06.37-.08.36-.11.36-2.45.36 3.27.36-.83.37-.04.36-1.72.36 1.67.36-.23.36.07.37-.92.36.27.36.97.36.06.37-.94.36.93.36-.07.36-1.1.36.13.37.92.36-.8.36.86.36.05.36-.85.37 1.03.36-1.15.36 1.73.36-.78.36-1.96.37 1.11.36 1.76.36-.9.36-1.78.36.72.37 1.89.36-.87.36-1.76.36.98.37 2.45.36-1.6.36-1.49.36.83.36 1.55.37 1.02.36-4.17.36 1.76.36 1.74.36-.01.37-1.91.36-.86.36 1.73.36 1.54.36-2.37.37-.89.36 1.77.36.76.36-.97.37-1.59.36.73.36 2.47.36-2.52.36.1.37.05.36 1.97.36.7.36-3.28.36-.93.37 3.43.36 1 .36-1.96.36-1.71h.36l.37 3.45.36-1.2.36-3.44.36 2.03.37 1.73.36.62.36-3.31.36.05.36 2.56.37.12.36-2.68.36.56.36 1.73.36-1.77.37.88.36-.86.36.93.36-.76.36.82.37-.96.36.88.36-.78.36-.27.36 1.73.37-.58.36-1.86.36 1.7.36-.03.37-.69.36-.11.36 1.79.36-1.66.36.88.37-1.84.36 2.69.36-1.74.36.69.36-.74.37 1.7.36-1.71.36-.07.36.72.36.16.37-2.42.36 3.38.36.09.36-1.54.37-.9.36 2.38.36-.74.36-.79.36-1.08.37 2.79.36.67.36-1.69.36-3.29.36 3.58.37 1.55.36-1.59.36-2.63.36 3.23.36-.6.37.75.36-2.6.36.87.36.96.36.61.37-1.57.36.93.36-.94.36 1.73.37-2.67.36 2.66.36-.7.36-.98h.36l.37 1.65.36-1.78.36-.24.36 1.75.36-2.39.37 1.98.36.64.36-1.76.36.94.36-1.48.37 3.33.36-1.7.36-1.88.36.87.37 1.66.36.07.36-2.71.36.14.36 3.68.37-1.06.36-2.87.36.94.36.79.36-.19.37-.8.36-.75.36 2.42.36-.64.36-.93.37.31.36.67.36.89.36-2.47.37 1.55.36-.11.36 1.06.36-1.79.36-1.71.37 3.37.36.19.36-1.83.36.12.36.9.37-.06.36-.7.36-.23.36.89.36.15.37 1.67.36-3.38.36-.13.36 2.55.36.14.37-3.21.36 3.96.36-3.34.36 2.59.37-2.72.36 2.86.36-1.75.36 1.68.36-1.72.37-.13.36 2.63.36-2.49.36-.05.36-.92.37 3.43.36-2.77.36 1.04.36.04.36-.96.37.78.36-.77.36.88.36-.91.37 2.45.36-4.09.36 2.38.36-.9.36 2.51.37-2.59.36-.68.36 2.53.36-.79.36-1.75.37.06.36 3.54.36-.92.36-2.66.36-.74.37 4.14.36-.8.36-.98.36-1.49.36.9.37 1.82.36-.97.36-.89.36-.02.37.87.36.9.36-2.49.36 2.74.36-.1.37-2.71.36-.08.36 1.7.36 1.66.36-2.53.37-1.04.36 1.01.36 2.44.36-.83.36-3.3.37.69.36 3.52.36-.96.36-2.61.37-.74.36 4.35.36.04.36-2.56.36-3.38.37 5.91.36.2.36-1.86.36-2.6.36 1.87.37 2.6.36-1.77.36-2.6.36 1.5.36 1.47.37 1.09.36-5.08.36 2.26.36 1.86.36.2.37-3.46.36 3.5.36-1.47.36 1.72.37-2.7.36 2.42.36-1.73.36.78.36-.84.37-.08.36 2.03.36-.93.36-.82.36-.06.37.75.36.88.36-1.7.36-.87.36 1.82.37 1.58.36-3.19.36-.04.36 2.44.37-.04.36-1.69.36-.69.36 2.44.36-.94.37-1.02.36-.81.36 1.71.36 1.01.36-1.65.37 1.82.36-2.7.36 2.5.36-2.38.36 3.21.37-3.3.36 1.58.36-.71.36 1.75.37-1.9.36-.04.36.2.36 1.8.36-.86.37.05.36-1.8.36 1.88.36-.18.36.94.37-2.62.36 2.7.36-.97.36.08.36-2.61.37 3.39.36-.74h.36l.36-.69.36.69.37-.83.36 1.49.36-.8.36-1.83.37.94.36 1.58.36-.6.36-.94.36 1.74.37-2.46.36 3.25.36-2.49.36-1.07.36 1.01.37 2.47.36-1.62.36-.98.36-.79.36 2.55.37-.06.36-3.58.36 1.78.36 1.74.37.12.36-1.63.36-1.93.36 3.46.36.01.37.15.36-4.4.36 3.51.36.78.36-.1.37-2.51.36-.1.36 3.55.36-1.69.36-.76.37-.87.36 2.66.36-.91.36-.83.36.78.37-.83.36 1.65.36-2.62.36 2.73.37-1.86.36.97.36-.07.36-.77.36.71.37-.58.36.42.36.19.36-.66.36.83.37-.2.36-.8.36-.69.36 3.16.36-2.5.37.92.36-1.06.36.79.36-.87.37 1.72.36-2.51.36 1.83.36-.76.36 1.61.37-2.53.36 2.73.36-2.73.36 2.61.36-.99.37-.8.36.06.36.94.36.02.36-1.03.37.78.36.01.36.19.36-.74.36.76.37-.8.36.92.36.69.36-2.48.37 1.65.36.05.36.8.36-2.45.36.55.37.87.36.64.36-2.43.36.04.36 2.54.37.99.36-3.39.36-.02.36 1.71.36 1.08.37-.2.36-2.64.36.01.36 2.47.37-.01.36-2.67.36.32.36 2.37.36.3.37-2.73.36 2.6.36-2.66.36 3.4.36-4.33.37 3.31.36-1.54.36.89.36-1.45.36 3.32.37-2.62.36.85.36-1.9.36 1.83.37.78.36-.77.36-2.54.36 2.86.36.81.37.96.36-4.52.36.88.36 3.44.36-.7.37-.98.36-4.23.36 5.78.36-.72.36-.95.37-2.5.36 2.57.36 1.58.36-.94.36-2.49.37-.69.36 4.4.36-1.07.36-1.53.37-1.95.36 3.46.36.77.36-2.57.36-2.45.37 4.4.36.69.36-2.58.36-1.02.36.9.37 2.51.36-1.53.36-1.07.36-1.6.36 4.37.37-.86.36-2.64.36.83.36.97.37.76.36-1.7.36.17.36-.01.36 1.67.37-1.56.36.89.36.02.36-.87.36.79.37-.11.36.92.36-1.75.36-.89.36 1.73.37.8.36-.87.36-.99.36.04.36.13.37 1.8.36-.93.36-.68.36.08.37.73.36 1.79.36-3.54.36 1.72.36-.97.37 1.76.36-.8.36-1.86.36.83.36.73.37.3.36-.08.36-.85.36.96.36-.8.37 1.41.36-1.6.36.04.36.02.37 1.64.36-.75.36-1.85.36 2.5.36-1.69.37 2.72.36-4.35.36 2.39.36-.54.36 2.48.37-1.65.36-.8.36-1.77.36 4.16.36-1.61.37-.67.36-.15.36.93.36.89.36-.99.37-1.04.36-.85.36 2.54.36-.71.37-1.63.36 1.5.36.04.36.85.36-1.78.37-.96.36 1.77.36.91.36-1.56.36.73.37-1.7.36 3.4.36-2.53.36-.94.36.92.37 1.8.36-.11.36-3.18.36 1.53.37 1.78.36-.01.36-1.68.36-.81.36 2.21.37-.71.36-.14.36-1.52.36 1.69.36.16.37-.12.36-.03.36-1.72.36 1.6.36-.04.37.27.36-.97.36 1.02.36-.15.37-1.87.36 2.7.36-.03.36-2.54.36.84.37 1.03.36.74.36-3.43.36 2.47.36.01.37 1.07.36-2.63.36 1.82.36-.3.36-.74.37 1.5.36-3.24.36 4.17.36-3.37.36 2.63.37-2.61.36 2.47.36-1.54.36.85.37-.93.36.9.36-.94.36 1.04.36-.79.37-.04.36.72.36 1.65"/><use xlink:href="#7c174__d" color="#9F650D" transform="matrix(3.75 0 0 3.75 354.25 138.88)"/><use xlink:href="#7c174__d" color="#9F650D" transform="matrix(3.75 0 0 3.75 78.65 7.51)"/></g><text stroke-linecap="round" stroke-linejoin="round" color="#000" font-family="KaTeX_Main" font-size="8" transform="translate(99.2 25.11)"><tspan>Splay</tspan></text><g fill="none" stroke="currentColor" stroke-linecap="round" stroke-linejoin="round" color="#000"><path stroke="#29C3F6" d="M63.7 22.51h29.9M28 158.22l.36.58.36 3.66.37-6.3.36 3.58.36 1.65.36-5.35.36 3.44.37 1.76.36-5.4.36 3.58.36 1.72.37-5.52.36 3.69.36 1.62.36-5.55.36 3.7.37.74.36-3.81.36 2.13.36 1.52.36-2.72.37-.15.36 2.89.36-1.92.36-2.62.36 5.22.37-1.87.36-3.54.36 2.64.36 1.8.36-2.88.37.13.36 2.51.36-1.7.36-2.79.37 4.39.36-.88.36-2.58.36.82.36 2.66.37-1.88.36-2.65.36 3.55.36-.11.36-1.72.37-.07.36 1.85.36-.12.36-3.5.36 2.51.37-6.79.36-.3.36.06.36.02.37.68.36-1.72.36.03.36.05.36.76.37-.69.36 1.63.36.87.36-1.73.36-.87.37.86.36.7.36-1.64.36-.04.36.2.37.58.36-.75.36 1.83.36.86.37-1.85.36-.79.36 1.8.36-1.07.36-.88.37.13.36-.08.36.82.36.06.36 1.01.37-.32.36-.66.36-1.07.36 2.06.36-.97.37-1.02.36-.02.36.15.36.84.36.11.37.85.36-.13.36-.87.36-.87.37 2.73.36-2.82.36.05.36.23.36.78.37-.87.36 1.71.36-.81.36.77.36-1.02.37.08.36 1 .36-1.84.36.26.36-.08.37.88.36-.89.36.78.36 1.77.37-1.82.36.03.36.04.36.93.36-1.78.37-.04.36-.01.36.95.36-1.02.36 1.83.37.08.36-.19.36-1.53.36 1.53.36-.92.37-.78.36.07.36.75.36-.61.36.79.37.69.36-.86.36 1.08.36-1.81.37 2.58.36-2.65.36.08.36-.11.36.94.37-.67.36 1.48.36-.87.36.08.36.81.37-.87.36.69.36-1.58.36.17.36.7.37-.79.36-.08.36 1.76.36-.93.37.83.36-.68.36-.02.36.75.36-1.67.37.85.36-.89.36.11.36 1.76.36-1.92.37.97.36.69.36-.78.36.78.36-.66.37-.97.36.97.36-1.03.36 1.04.36-.06.37-.1.36-.88.36 2.7.36-2.45.37 2.26.36-2.47.36-.02.36.98.36-.96.37.9.36.03.36.03.36-.08.36 1.04.37-1.05.36.92.36-1.71.36-.01.36.95.37-.85.36.82.36-.24.36.25.37 1.64.36-2.64.36 1.7.36-.77.36-.88.37.83.36-.83.36.84.36.04.36-.89.37.89.36 1.6.36-1.63.36.83.36-1.83.37.06.36.88.36-.86.36.92.37-.08.36-.68.36.84.36 1.45.36-1.57.37.96.36-1.77.36.85.36-1.1.36.25.37.8.36-.03.36-.88.36 3.57.36-3.49.37.86.36.86.36-1.73.36.89.36-.79.37-.08.36 1.74.36-1.73.36.72.37 1.74.36-2.75.36 1 .36.85.36-1.53.37.59.36-.78.36.92.36.08.36-.91.37 1.49.36.22.36-1.89.36 2.75.36-2.68.37.12.36.78.36-.85.36.76.37.12.36.06.36-.05.36.8.36-1.64.37 2.58.36-2.77.36.08.36.75.36-.68.37 1.81.36-1.86.36 1.92.36-.99.36.09.37 1.69.36-2.64.36.03.36.02.36.78.37-.81.36 1.82.36-1.76.36 1.71.37-.05.36-1.67.36 2.5.36-2.5.36.08.37.81.36-.95.36.02.36 1.68.36-.73.37.68.36-.75.36.78.36-.86.36-.83.37-.02.36.86.36-.87.36-.05.37 1.62.36-.8.36.85.36-.14.36-.67.37.07.36-.81.36-.04.36.98.36-1.16.37 1.11.36.7.36-1.75.36 1.73h.36l.37-.7.36-.25.36-.72.36.07.36.85.37-.92.36.01.36 2.47.36-1.57.37.86.36-.88.36.96.36-1.81.36-.01.37.02.36.81.36-.76.36 1.63.36-.9.37.85.36-.71.36.7.36-.75.36-.86.37-.04.36.11.36.62.36-.84.37 2.72.36-2.68.36 1.72.36-.94.36 1.04.37-1.02.36-.63.36-.19.36.09.36.85.37-.9.36 1.88.36-.14.36-.79.36.05.37 1.73.36-2.76h.36l.36.18.37.81.36-.93.36.2.36 2.28.36-1.61.37.03.36.03.36 1.69.36-2.6.36-.11.37-.07.36.99.36-.73.36.78.36.83.37-.06.36-1.61.36 2.6.36-1.7.36-.91.37.25.36-.29.36.87.36-.86.37 1.78.36-.28.36-.67.36.15.36.83.37-.88.36-.69.36-.16.36-.06.36.8.37-.69.36 1.63.36.11.36-1 .36.09.37 1.78.36-2.62.36-.23.36.25.37-.12.36 1.07.36-.07.36.76.36-.89.37.92.36-.75.36.63.36-1.49.36-.08.37-.02.36.86.36-.87.36.82.36 1.65.37-1.79.36.01.36.12.36.89.36-1.76.37-.14.36.15.36.86.36-.82.37 1.76.36-.1.36-.77.36.06.36 1.55.37-2.63.36.05.36.12.36-.08.36.82.37.34.36-.35.36 1.02.36-.89.36.02.37 1.73.36-2.58.36-.09.36-.01.37.12.36.77.36-.19.36.21.36 1.85.37-2.67.36 1.79.36-.12.36-1.61.36-.19.37.25.36.66.36-.82.36 1.81.36-1.83.37 2.74.36-1.89.36-.07.36 1.01.37-1.71.36-.13.36.16.36.86.36-.9.37 1.72.36-.83.36.78.36.06.36.02.37-1.79.36.02.36-.07.36.23.36.66.37-.03.36.16.36.68.36.08.36-.81.37.98.36-1.9.36.06.36-.04.37.96.36-.82.36.77.36.78.36.86.37-2.64.36 1.72.36-.76.36-.85.36-.15.37.15.36.78.36-.89.36.99.36.84.37.71.36-2.5.36 1.81.36-.96.37-.8.36-.07.36-.04.36.84.36-.9.37 1.91.36-.83.36 1.71.36-1.62.36.75.37-1.76.36.09.36.02.36-.14.36.77.37.01.36.99.36-.92.36.85.36.02.37-.79.36-.87.36-.09.36.08.37-.03.36.94.36.79.36-.86.36.67.37-.68.36.8.36-.72.36-.94.36-.03.37-.1.36.01.36.99.36.8.36-.83.37.93.36-.87.36 1.71.36-2.74.37.08.36.06.36.04.36.87.36.87.37-.96.36-.75.36 1.54.36 1.07.36-1.79.37-.88.36.06.36-.03.36.04.36.89.37.82.36-.91h.36l.36-.03.36 2.62.37-3.42.36-.02.36.01.36.06.37.87h.36l.36.79.36-1.64.36 1.67.37-.92.36 1.74.36-2.59.36.13.36-.15h.37l.36.98.36.01.36.86.36-1.76.37 1.61.36-.75.36 1.64.36-2.52.37.01h.36l.36.01.36 1.72.36-.77.37-.03.36-.14.36.82.36-.76.36.69.37-1.56.36.02.36.05.36-.1.36 1.64.37.18.36-1.82.36.86.36.84.37-.03.36-.75.36-.7.36-.31.36.13.37.97.36.81.36-1.05.36-.79.36.9.37.85.36.13.36-.99.36-.83.36-.04.37.03.36 1.83.36-1.11.36.41.36-.35.37.15.36.66.36-.5.36-.31.37-.76.36.08.36.01.36 1.58.36-.8.37.88.36-1.86.36.92.36.94.36-.06.37-1.61h.36l.36-.18.36 1.66.36-1.56.37.95.36.67.36-1.66.36 1.8.37-.15.36-.79.36-.92.36-.1.36.28.37 1.55.36-.94.36.28.36-.08.36-.87.37 2.52.36-1.83.36.01.36-.8.36-.23.37.28.36 1.71.36-.8.36.15.36-.27.37-.87.36 2.65.36-1.8.36.18.37-.8.36-.06.36-.23.36 1.87.36-.99.37.14.36-.12.36.88.36-.78.36.81.37-1.57.36.09.36-.14.36.77.36.04.37.12.36-.14.36.07.36.82.37.06.36-.88.36-.82.36.07.36-.07.37 1.68.36-.77.36-.09.36-.85.36 1.58.37-.01.36.11.36-1.66.36-.1.36-.02.37-.1.36 1.74.36-.7.36-.02.36.01.37-.1.36.96.36-.03.36-1.66.37-.17.36.1.36.84.36.11.36-.02.37.1.36-.06.36.75.36-.01.36-.81.37-.78.36.03.36.64.36-.78.36 1.79.37-1.71.36.78.36-.01.36 1.71.37-1.72.36.06.36-.88.36.01.36.8.37-.86.36 1.72.36-.74.36-.19.36-.78.37 2.44.36-1.63.36.01.36-.81.36.02.37.91.36-.25.36.24h.36l.37-.14.36.2.36 1.52.36-2.48.36.9.37-.9.36.72.36-.8.36.9.36.88.37-.88.36-.68.36 1.49.36.15.36-1.05.37-.78.36.07.36.8.36-.85.36.74.37 1.01.36-.79.36-1.1.36 3.55.37-3.52.36 1.01.36-.82.36-.02.36.69.37-.69.36.79.36 1 .36-.92.36-.95.37 3.36.36-3.37.36.91.36-.94.36.99.37-.83.36.82.36.64.36-1.71.37.96.36.11.36 1.66.36-2.66.36.84.37-.57.36-.06.36.82.36-.01.36.64.37-1.52.36.72.36.82.36.17.36-1.68.37.86.36-.81.36.59.36-.77.36.98.37.89.36-1.96.36 1.05.36 1.67.37-1.8.36-.81.36.87.36-.82.36.81.37.18.36-.98.36 1.59.36-.6.36.02.37.73.36-.92.36-.03.36-.61.36-.25.37 1.95.36-1.93.36.94.36-.06.37.11.36-.13.36 1.61.36-2.25.36.51.37-.59.36-.04.36 1.45.36-1.42.36.86.37-.25.36.25.36.84.36-.01.36-1.9.37 1.11.36-1.03.36 1.62.36-1.62.36.14.37 1.67.36-1.71.36.77.36 1.85.37-1.7.36-.1.36-.78.36-.15.36 1.9.37-1.85.36-.05.36 1.62.36-.69.36.03.37.79.36-.78.36.04.36-1.01.36.91.37.08.36-.95.36.16.36 1.5.37-.74.36 1.78.36-2.61.36.81.36-.14.37-.72.36 1.65.36-1.64.36.05.36.88.37-.14.36-.02.36 1.6.36-1.6.36-.98.37 1.15.36-.89.36 1.69.36-1.59.37-.17.36 1.78.36-.91.36-.13.36 1.02.37-.85.36-.06.36-.82h.36l.36 1.72.37-1.64.36.07.36 1.58.36-.88.36.77.37-.84.36.04.36.12.36-1.04.36.86.37.09.36-1.11.36.23.36 1.86.37-.82.36 1.64.36-2.03.36.2.36-.87.37.16.36.68.36-.06"/><use xlink:href="#7c174__b" color="#29C3F6" transform="matrix(3.75 0 0 3.75 67.83 148.75)"/><use xlink:href="#7c174__b" color="#29C3F6" transform="matrix(3.75 0 0 3.75 78.65 22.51)"/></g><text stroke-linecap="round" stroke-linejoin="round" stroke-width=".5" color="#000" font-family="KaTeX_Main" font-size="8" transform="translate(99.2 40.11)"><tspan>AVLBottomUp</tspan></text><g fill="none" stroke="currentColor" stroke-linecap="round" stroke-linejoin="round" stroke-width=".5" color="#000"><path stroke="#000" d="M63.7 37.51h29.9M28 140.98l.36 4.9.36-3.29.37-.14.36 1.66.36.22.36-3.55.36 3.22.37.13.36-2.04.36.08.36 3.56.37-3.63.36-1.64.36 5.02.36-3.35.36-1.66.37 5.16.36-3.26.36.01.36 1.42.36-.66.37-.96.36.89.36.84.36-1.82.36.9.37-.08.36-.04.36-1.18.36 1 .36-.09.37-.61.36.63.36-.02.36.04.37-.94.36.78.36-.98.36-.17.36.73.37.15.36-1.78.36 2.5.36-1.77.36.09.37.87.36-.86.36.98.36-1.02.36-.01.37.63.36 1.52.36-1.76.36 1.75.37-1.75.36 1.04.36 1.71.36-1.54.36-.94.37.99.36-.08.36.78.36.07.36-.8.37-.87.36-.22.36 2.56.36-.86.36.11.37-3.5.36 2.67.36.67.36.75.37.09.36-5.01.36 2.54.36 1.59.36.85.37.11.36-2.57.36-1.03.36 1.77.36.81.37.96.36-2.59.36.85.36.11.36-.96.37 2.37.36-3.18.36 3.53.36-1.86.36.03.37-1 .36 1.56.36-.84.36 1.68.37-2.23.36-.84.36 3.33.36-2.54.36 2.49.37-.85.36-.92.36-1.63.36 1.68.36.85.37.92.36-2.59.36.63.36-.53.36.85.37 1.72.36-1.72.36.84.36-.92.37-1.82.36 2.69.36-.19.36-1.65.36 2.54.37-3.55.36 2 .36.47.36-.64.36.56.37 1.29.36-5.29.36 4.34.36.07.36-.06.37-.11.36-2.36.36.75.36 1.76.36.94.37-2.61.36-.13.36 1.99.36-.93.37.97.36.08.36-3.43.36 3.38.36.93.37-1.64.36.57.36-1.59.36-.79.36 3.37.37-.78.36-1.04.36.89.36-1.62.36-.08.37 1.81.36.78.36-2.4.36.91.37-.98.36 1.64.36 1 .36-1.7.36-1.81.37 3.24.36-3.36.36 3.3.36-.73.36-2.71.37 2.71.36.86.36-3.49.36 2.59.36-2.47.37 2.49.36.85.36-.99.36-.58.36-2.69.37 2.64.36 1.57.36-1.54.36.87.37.09.36-3.44.36 4.03.36-1.5.36.55.37.09.36-3.37.36 3.34.36-.68.36 1.76.37-.9.36-1.69.36.14.36 1.72.36-.83.37.89.36-.87.36-1.07.36 1.65h.37l.36-1.54.36 1.63.36-1.6.36 1.64.37-.8.36 1.67.36-2.56.36-.79.36 3.23.37-.83.36-1 .36.9.36-3.29.36 3.27.37.08.36.02.36-.04.36-2.56.37 1.81.36.02.36 1.71.36-1 .36-2.61.37.97.36.8.36 1.79.36-.06.36-2.36.37-.96.36 1.66.36.87.36.94.36-1.74.37-1.74.36.72.36 2.76.36-.81.36-1.06.37.12.36-.88.36 1.64.36-.06.37-.64.36-.11.36-1.64.36 3.21.36-.74.37-.93.36.76.36-4.11.36 5 .36.13.37-1.83.36-.05.36-1.9.36 1.83.36 1.7.37-1.71.36-.03.36-.48.36.82.37.84.36.12.36-.88.36-.97.36 2.62.37-3.35.36 2.46.36-.13.36-1.65.36 1.66.37.96.36-2.54.36.99.36-.19.36-.77.37 2.55.36-.85.36-2.57.36 3.27.36-2.59.37 1.76.36-.78.36.63.36-1.65.37.93.36-.25.36-.09.36 1.21.36.04.37-2.66.36 2.51.36-.79.36.81.36-.79.37-.94.36.75.36.88.36-.98.36.02.37.87.36-2.43.36 2.67.36.15.37-1.02.36.02.36-1.77.36 2.44.36.13.37-.84.36 1.78.36-3.34.36.79.36 1.82.37.04.36-.23.36-1.66.36.94.36-.25.37.13.36.83.36-.82.36.78.36-.93.37-1.47.36 2.45.36-.86.36 1.69.37-.91.36-2.41.36 1.03.36.87.36 1.63.37-.96.36.14.36-1.57.36-1.74.36 4.25.37-.15.36-1.74.36.92.36-1.02.36-1.54.37 1.67.36 1 .36.69.36-1.81.37-2.46.36 3.3h.36l.36.06.36.07.37-2.46.36 1.87.36.82.36-.86.36.77.37.9.36-2.41.36-.31.36 2.65.36-2.66.37 1.69.36-.99.36-.04.36.3.37-.88.36 1.49.36.09.36-1.02.36.01.37-.73.36.85.36.82.36.05.36-.9.37-.86.36.69.36.11.36.92.36-.01.37-.99.36-.86.36.14.36 2.4.36-.77.37-1.46.36 1.41.36-3.3.36 4.1.37-.65.36-.92.36.03.36.13.36-.93.37 1.61.36.12.36-1.71.36.86.36-.08.37.83.36-.89.36-.01.36-.18.36.14.37.11.36.01.36.02.36.17.37.83.36-.9.36.87.36-1.7.36-.23.37 1.78.36.82.36-2.42.36 2.62.36-4.19.37 3.34.36.12.36-.02.36-.96.36.07.37-.94.36.77.36 1.75.36-1.63.36-.94.37 1.7.36-.89.36-.04.36 1.82.37-3.49.36 2.65.36-1.66.36 1.61.36.04.37-.1.36-1.7.36.73.36-.84.36 1.77.37.21.36-.98.36.92.36-.94.36-.62.37.77.36 1.72.36-1.85.36-.85.37.88.36.01.36.08.36 1.7.36-2.47.37 1.56.36-1.92.36 1.79.36-.83.36-.24.37.99.36-.77.36-.98.36 1.04.36.68.37-.64.36-.1.36.01.36.92.37-.88.36-.81.36 1.71.36-.02.36-.04.37-3.42.36 3.62.36-1.04.36 1.89.36-.84.37-3.53.36 3.47.36-.94.36.9.36.93.37-2.64.36-.74.36 2.36.36-.04.36.2.37.97.36-3.66.36.01.36 3.45.37-.96.36.21.36-1.72.36-.81.36 3.38.37-.91.36-.85.36.93.36-.85.36-1.84.37 3.47.36-1.93.36.97.36-.86.36.02.37-1.01.36 2.71.36-1.78.36.11.37-.25.36.26.36-.13.36.78.36-1.78.37-.08.36 2.88.36-1.76.36-.03.36-.87.37.15.36 2.52.36-.02.36-1.84.36-1.56.37.73.36 1.76.36.79.36-.64.36-2.53.37 2.5.36-2.67.36 3.33.36-.81.37.06.36-1.59.36.91.36.21.36.69.37-.27.36-1.6.36.88.36-.92.36 2.51.37-1.7.36.11.36-.15h.36l.36.01.37.78.36-.71.36-.87.36.72.37 1.71.36-3.34.36 3.53.36-1.82.36.11h.37l.36-.75.36 1.54.36.91.36-3.35.37 2.56.36-1.73.36.79.36 1.55.36-2.67.37 1.86.36-1.68.36-.11.36 2.58.36-2.5.37 2.56.36-1.54.36-2.42.36 4.3.37-1.84.36.78.36.82.36-3.38.36.76.37 1.58.36-.61.36 1.45.36-1.63.36.12.37-1.79.36 1.72.36 1.69.36-.68.36-.84.37-.93.36-.78.36 3.37.36-.08.37-.85.36-2.55.36.19.36 3.27.36-.92.37-.01.36-1.79.36-.81.36 2.55.36.92.37-.64.36-1.64.36.64.36-.87.36 1.61.37.12.36-.01.36-2.54.36.79.37 2.54.36-1.01.36-.67.36.2.36-.03.37-.75.36 2.49.36-.81.36-2.66.36 3.41.37-1.72.36.09.36-.11.36-.12.36.05.37 1.72.36-2.33.36 1.54.36-.61.36-1.04.37 1.61.36-.06.36-.73.36.79.37-2.56.36 1.66.36 1.02.36-.9.36.82.37-1.55.36 2.27.36-3.2.36 3.2.36-1.61.37-1.87.36 3.43.36-1.69.36-.06.36.87.37-2.67.36 2.45.36.13.36-1.57.37 1.75.36-2.47.36 2.35.36-.05.36.14.37-1.75.36 1.63.36-1.54.36 1.65.36-1.78.37 1.79.36-.91.36-.8.36 2.46.36-2.38.37 1.66.36-.68.36-.95.36 1.7.36-.12.37-.67.36.82.36-2.73.36 1.92.37.75.36.92.36-2.68.36 1.03.36-.21.37-.77.36 2.26.36-1.41.36.96.36-2.53.37 3.27.36-2.48.36 1.66.36-.28.36-1.56.37.97.36-.23.36-.02.36.75.37-.75.36-.12.36 1.09.36-1.64.36.81.37.83.36-1.69.36 2.41.36-2.42.36.86.37-.01.36.04.36 1.01.36-.94.36.71.37-.89.36-1.72.36 2.67.36.22.36-.95.37.73.36-.66.36-1.87.36 2.57.37-.1.36.89.36-3.34.36.92.36.66.37.83.36.78.36-1.68.36-1.77.36 1.68.37.92.36.1.36.13.36-3.4.36 3.45.37-.17.36.05.36-.87.36-1.01.37.73.36.01.36 1.96.36-1.76.36-1.67.37 2.62.36-.91.36.71.36.88.36-5.17.37 4.17.36.13.36-.05.36.2.36-3.41.37 2.56.36 1.6.36.03.36-2.53.37-.83.36.85.36 2.61.36.29.36-1.82.37 1.07.36-3.58.36 3.31h.36l.36-.77.37 1.58.36-3.47.36 1.61.36 1 .36-.05.37-.88.36 1.8.36-5.32.36 5.12.36-.83.37-1.59.36 2.67.36-2.67.36.16.37 1.54.36-.84.36.82.36.77.36-4.19.37 3.51.36-.95h.36l.36.7.36-.75.37-.04.36-.83.36 1.76.36-.96.36.18.37.74.36-.97.36.02.36 1.07.37-1.81.36-.05.36 2.67.36-.92.36-.77.37-.79.36 1.04.36-.04.36 1.61.36-.75.37-3.6.36 3.51.36-.15.36-.79.36 1.69.37-2.67.36-.05.36 1.76.36-.78.36.64.37.25.36-1.77.36.22.36 2.59.37-2.76.36 1.76.36.83.36-3.4.36 1.54.37 1.02.36-1.8.36 2.37.36-1.62.36-.92.37.99.36.87.36-.73.36-.01.36.93.37-1.95.36.79.36 1.12.36-.97.37 1.06.36-.94.36-.1.36-.97.36.75.37 1.01.36-.75.36.63.36-1.58.36 1.66.37-.72.36-.06.36.15.36-.94.36 2.53.37-.77.36-1 .36-.82.36-.03.36 1.58.37.9.36-.98.36-2.51.36.16.37 3.51.36-.96.36-.06.36-1.71.36.06.37.71.36.94.36-.12.36.22.36-4.29.37 5 .36-1.55.36.89.36.76.36-4.24.37 2.74.36.71.36.17.36-.24.37.15.36-3.45.36 2.6.36 1.79.36-2.06.37.9.36-2.6.36 1.83.36.74.36.91.37-.7.36-3.47.36 2.48.36-.05.36 1.62.37.3.36-4.33.36 2.61.36-.09.37.65.36-.02.36-1.58.36-.02.36 1.76.37-.72.36.78.36-.97.36-.83.36 1.72.37-.7.36-.1.36 1.03.36-1.15.36.04.37-.07h.36l.36-.85.36 1.76.36.13.37-1.67.36.76.36-.02.36 1.03.37-1.02.36.9.36-2.6.36 2.68.36-.78.37-.11.36.8.36-.86"/><use xlink:href="#7c174__e" transform="matrix(3.75 0 0 3.75 125.4 144.46)"/><use xlink:href="#7c174__e" transform="matrix(3.75 0 0 3.75 78.65 37.51)"/></g><text stroke-linecap="round" stroke-linejoin="round" color="#000" font-family="KaTeX_Main" font-size="8" transform="translate(99.2 55.11)"><tspan>AVLRelaxedBottomUp</tspan></text><g fill="none" stroke="currentColor" stroke-linecap="round" stroke-linejoin="round" color="#000"><path stroke="#D336C8" d="M63.7 52.51h29.9M28 142.76l.36-.23.36 1.81.37-.13.36-3.47.36 3.46.36-.07.36-2.72.37 2.58h.36l.36-2.55.36 1.67.37.82.36-.71.36-.97.36 1.74.36-.79.37-1.68.36 2.52.36-.73.36-1.04.36.9.37.81.36-1.74.36.81.36-.08.36-.03.37-.85.36 1.8.36-2.1.36 1.68.36-2.48.37 2.69.36-1 .36-1.83.36 2.56.37-.84.36-1.96.36 2.51.36-3.58.36 2.56.37.89.36-3.4.36 3.24.36.03.36-3.38.37 3.45.36.03.36-3.39.36 2.45.36-.93.37 3.19.36 3.47.36-.68.36.01.37.92.36-.86.36-.7.36 2.04.36-.27.37-1.55.36.68.36-.87.36.87.36 1.03.37-.05.36-1.69.36 1.64.36.06.36.05.37-.8.36.83.36-1.5.36.57.37.07.36.05.36.03.36.12.36.67.37.18.36-1.06.36.7.36-1.58.36.82.37.82.36.21.36-.16.36.19.36-1.05.37-.72.36 1.69.36-1.68.36.98.36-.25.37.15.36.96.36-.01.36.12.37-.27.36-.83h.36l.36-.07.36.89.37-1.66.36.9.36.82h.36l.36.05.37-1.48.36.66.36.65.36-.71.36.93.37.1.36-.78.36-.08.36.99.37-2.76.36 2.6.36.06.36-.01.36-.85.37.06.36.73.36.27.36-1.04.36.67.37-.75.36.82.36-.13.36.18.36-1.05.37.06.36-.9.36 1.58.36.19.36-1.8.37-.02.36.78.36.99.36.21.37-.15.36.06.36-.03.36-1.05.36-.1.37 1.05.36-1.62.36 1.67.36-2.59.36 1.6.37.1.36.9.36-.82.36.71.36.07.37.04.36-.01.36-.09.36-.65.37.67.36-.72.36-.06.36-.82.36.68.37-.83.36 1.91.36-.05.36.15.36.09.37-.19.36-.97.36.71.36-1.02.36 1.01.37.09.36.08.36-1.7.36.66.36-1.55.37 1.66.36.83.36.18.36-.2.37-.93.36.13.36.73.36-.61.36.6.37-.02.36-1.59.36.77.36-.24.36 1.13.37-1.83.36.76.36.79.36-.51.36.84.37.23.36-.18.36-.16.36-1.57.37 1.79.36-.99.36-.77.36 1.71.36-.88.37-1.02.36 1.02.36.9.36-.71.36.79h.37l.36-.88.36.9.36-.77.36.75.37.17.36-.14.36-1.67.36 1.73.37-1.37.36.32.36-.81.36 1.64.36-.76h.37l.36-.38.36.88.36.06.36-.57.37.95.36-.91.36.12.36.61.36-.07.37-2.53.36 2.5.36-.95.36.14.36.85.37-.03.36-1.68.36.9.36-.95.37 1.81.36-.06.36.12h.36l.36-.8.37-.14.36.87.36-.23.36.15.36-1.62.37.86.36-.99.36 1.58.36-.8.36-.07h.37l.36.01.36.82.36-.03.37.1.36-.82.36.96.36-1.65.36.09.37 1.49.36-.73.36.94.36-.73.36.75.37.13.36-.99.36.83.36-.98.36.26.37-.17.36.8.36.15.36.07.36-.71.37.73.36-.11.36-1.89.36.83.37-1.08.36.91.36.86.36.15.36-1.68.37 1.58.36.03.36-.69.36.04.36.04.37.05.36.85.36-.65.36.73.36-.09.37-1.93.36 1.75.36-.23.36.19.37-1.72.36 1.74.36-1.58.36.67.36.87.37-1.63.36 1.89.36.12h.36l.36-.24.37.17.36-.98.36-.11.36.01.36.68.37-1.39.36-.23.36 1.78.36.24.36-.99.37.12.36.62.36-.11.36-.6.37.58.36-1.74.36 1.75.36.03.36-.72.37-.05.36-.03.36.92.36-1.68.36.87.37.72.36-.74.36.89.36.18.36-.15h.37l.36.11.36.1.36-.94.37-.3.36-1.7.36 2.51.36-1.56.36-.18.37 1.61.36.2.36-.15.36.27.36-.09.37-.86.36.15.36.04.36.82.36-.9.37-.83.36.83.36.91.36-.87.37.68.36-.01.36.27.36-1.79.36 1.83.37-.15.36-1.48.36 1.54.36-.07.36-1.73.37 1.58.36.06.36-2.01.36 1.02.36.06.37.91.36-1.64.36 1.76.36-.04.36.05.37-.63.36.65.36.13h.36l.37.01.36-1.69.36.49.36-2.46.36 3.3.37.1.36-.58.36-.27.36.71.36.2.37.08.36-1.15.36.17.36.75.36-.59.37.84.36-2.77.36 2.69.36-.02.37-.99.36.13.36-.67.36 1.55.36-.13.37-.77.36.89.36-.08.36.14.36-1.76.37.8.36.19.36.93.36-.91.36.75.37-1.55.36 1.66.36-.8.36-.01.36.85.37-.24.36-.73.36-.03.36.7.37-.79.36.72.36.11.36-.76.36 1.03.37-.9.36.77.36-.02.36-.81.36-.78.37-.05.36.9.36-.18.36-.16.36.92.37.2.36-.02.36.02h.36l.37-.89.36.92.36-1.79.36.77.36.98.37-.02.36.01.36-1.63.36 1.66.36-1.08.37.05.36-.14.36-.72.36 1.92.36-.23.37.1.36-.3.36-2.45.36 2.71.37-.16.36-.87.36.29.36.73.36-.72.37-.01.36-.99.36.89.36.99.36-.76.37-.32.36.95.36-.06.36.09.36-1.02.37.77.36.26.36-1.69.36 1.78.36-.92.37.11.36-1.77.36 2.68.36.01.37-.32.36-1.51.36 1.52.36.1.36-.83.37.83.36-1.81.36.8.36 1 .36-.92.37.81.36-.05.36-.81.36-.7.36.99.37.53.36.1.36-.68.36-.21.37.27.36.68.36-.92.36.93.36-.78.37-1.27.36 1.79.36-.64.36.81.36.08.37-.79.36.88.36-3.46.36 3.09.36-.02.37-.73.36.96.36.03.36-.87.36-.24.37.14.36.11.36-.95.36.99.37.68.36-.71.36-.87.36 1.62.36.16.37.07.36-.22.36.28.36.09.36-.05.37-2.58.36 2.44.36.04.36-1.55.36 1.47.37-.93.36-.65.36 1.59.36-.07.37-.8.36.12.36.89.36-.04.36-1.55.37 1.49.36-.95.36.77.36-.03.36.01.37-.09.36-.9.36-2.68.36 1.87.36 1.74.37.12.36.02.36-.07.36-.88.36.77.37.14.36-1.56.36 1.74.36-2 .37 1.04.36.8.36-1.63.36-.11.36 1.71h.37l.36.21.36-.13.36-.86.36.9.37-1.69.36 1.88.36-.13.36-.83.36.74.37-1.72.36 1.84.36-.91.36.11.37.57.36.05.36-.76.36-1.73.36 2.55.37.15.36.01.36.04.36-.04.36-.11.37-.98.36-.08.36.02.36-1.66.36 2.67.37-1.02.36-.05.36.23.36.79.37.06.36-.79.36.83.36-.12.36.1.37-.76.36-.74.36 1.59.36-.68.36-.06.37.86.36-1.65.36 1.62.36-.68.36.51.37.06.36.05.36.02.36-.61.36-.32.37.68.36-.78.36.99.36-.13.37.1.36-.77.36-.82.36-.23.36 1.03.37.04.36.84.36.12.36-.78.36-.26.37.94.36-.07.36-.05.36-.03.36.01.37-1.76.36 1.74.36.15.36-.97.37-.16.36.92.36-2.01.36.88.36.92.37-.82.36-.67.36 1.76.36-1.07.36-.79.37 1.72.36-.2.36-2.47.36 2.64.36.09.37-.08.36-.59.36.78.36-.79.36.85.37.04.36-.89.36.63.36-.86.37-1.54.36 1.68.36.7.36-.69.36-.01.37-.02.36.72.36.08.36.22.36-.1.37.17.36.03.36-1.87.36.75.36-.23.37.02.36.88.36-1.65.36 1.72.37-.72.36-.86.36 1.67.36.09.36-.02.37-.09.36.07.36-1.8.36.82.36-.19.37.89.36-1.59.36.98.36.01.36.07.37.83.36-.02.36-.05.36.13.36.04.37-1.55.36 1.74.36-.07.36-.18h.37l.36-1.09.36-2.63.36 2.54.36.91.37-1.54.36 1.72.36.05.36-1.07.36 1.04.37.1.36-.13.36-.05.36.11.36-1.64.37.71.36-.71.36.61.36.08.37.59.36.14.36-.83.36.04.36.86.37-.9.36 1.04.36-1.89.36 1.9.36-.01.37-1.92.36.27.36 1.65.36.08.36.01h.37l.36-1.7.36 1.81.36-.01.37-.12.36-1.68.36.77.36.84.36-.84.37.85.36-.23.36-.58.36.48.36-1.45.37 1.61.36-.8.36.07.36.09.36-.14.37.91.36.19.36-1.86.36 1.72.36-.85.37.97.36.07.36-.33.36-2.38.37 2.48.36-.59.36.76.36-.99.36.81.37-.81.36-.15.36.02.36 1.07.36-.2.37-.98.36.98.36-.77.36-.09.36.08.37.07.36.91.36-1.03.36.96.37-1.1.36.12.36-.91.36.77.36.92.37.01.36.16.36-.21.36-.81.36.97.37-1.58.36 1.65.36.02.36-1.48.36-.05.37 1.65.36-1.83.36.78.36.94.36.07.37.03.36-1.03.36.83.36.13.37-.28.36-.78.36.99.36-.07.36-.71.37.1.36-.02.36-.04.36.01.36.9.37-2.73.36 2.59h.36l.36.03.36-.73.37.76.36.04.36-.87.36-.24.37 1.11.36-.95.36-.15.36 1.09.36-.16.37.23.36-1.06.36-.06.36.94.36-.88.37-.03.36.79.36-1.8.36 1.04.36.69.37.32.36-1.01.36-.04.36.13.36-.78.37.88.36.78.36-.19.36-.03.37-.71.36.9.36.08.36-.14.36-.83.37 1 .36-.95.36.73.36-1.62.36.8.37-.12.36.76.36-1.46.36.79.36.76.37-.04.36.15.36-.78.36-.01.37.94.36-.65.36.89.36-.34.36-1.72.37 1.98.36-1.03.36.47.36-.78.36.04.37.98.36.04.36-.14.36-1.71.36-.02.37 1.96.36-.93.36.16.36.93.37-.1.36-.88.36.71.36-.13.36.13.37-.86.36-.08.36.2.36.87.36-.06.37-1.65.36.83.36.11.36 1.01.36-.32.37-.7.36-.12.36.79.36-.19.36-.7.37.69.36-1.7.36 1 .36.85.37.16.36-.91.36-.04.36-.87.36 1.89.37-.99.36.72.36-.9"/><use xlink:href="#7c174__a" color="#D336C8" transform="matrix(3.75 0 0 3.75 182.98 146.97)"/><use xlink:href="#7c174__a" color="#D336C8" transform="matrix(3.75 0 0 3.75 78.65 52.51)"/></g><text stroke-linecap="round" stroke-linejoin="round" color="#000" font-family="KaTeX_Main" font-size="8" transform="translate(241.1 10.11)"><tspan>RedBlackBottomUp</tspan></text><g fill="none" stroke="currentColor" stroke-linecap="round" stroke-linejoin="round" color="#000"><path stroke="#F44336" d="M205.6 7.51h29.9M28 126.14l.36-.09.36.02.37-.03.36-.05.36-.03.36 2.66.36-3.44.37.91.36-.86.36 1.6.36-.84.37.01.36-.07.36 1.79.36-1.68h.36l.37-.82.36 1.59.36-.81.36.03.36-.01.37 2.4.36-3.33.36.94.36-1.42.36.41.37-.03.36.02.36-.97.36.96.36-1.04.37 1.01.36-.94.36 2.57.36-1.82.37-.71.36.77.36-.68.36.74.36-.72.37 1.62.36-1.71.36.73.36-.83.36.89.37-.87.36 1.77.36.01.36-1.8.36.83.37 7.14.36 2.88.36-.39.36 1.8.37-.84.36-1.48.36 2.46.36-2.22.36 1.53.37 1.26.36-.95.36.96.36-1.81.36.09.37 1.83.36-.93.36.69.36-1.66.36.11.37 1.74.36-1.79.36 1.65.36.16.37-2.69.36 2.45.36-.77.36.84.36-1.78.37.14.36.76.36.79.36-.85.36-.9.37 1.69.36-1.64.36 1.42.36-2.3.36 2.3.37-.75.36-1.81.36 4.39.36-5.01.36 4.53.37-2.37.36.72.36 1.74.36-4.22.37 4.2.36-2.57.36.68.36 1.85.36-3.46.37 2.42.36-.67.36-.86.36 1.59.36-2.54.37 3.38.36-1.66.36-1 .36 1.78.36-2.6.37 2.43.36.22.36-2.73.36 2.76.37-1.86.36 1.74.36.05.36-2.67.36 2.48.37-.79.36-.85.36 1.71.36-1.7.36.94.37.11.36-.95.36 2.41.36-4.4.36 4.31.37-.71.36-2.54.36 2.55.36-2.37.36 3.25.37-2.74.36.96.36 1.04.36-2.7.37 3.59.36-2.56.36.77.36-.05.36-.62.37 2.68.36-3.49.36 2.66.36-.05.36-2.64.37 3.55.36-1.72.36-.59.36 2.46.36-4.53.37 4.47.36-.91.36-1.68.36.95.37-1.84.36 5.01.36-4.29.36-.11.36 1.61.37-3.27.36 6.01.36-5.08.36 1.53.36 2.72.37-6.89.36 7.74.36-4.29.36.11.36 3.71.37-5.31.36 4.3.36-1.65.36-1.77.36 5.15.37-6.99.36 5.1.36.1.36-3.44.37 3.35.36-4.34.36 4.13.36-.6.36-2.85.37 2.53.36-1.72.36 1.55.36-.72.36-1.56.37 3.23.36-2.46.36.99.36.9.36-.93.37.05.36-.85.36 1.52.36-.76.37-.14.36.14.36.09h.36l.36.05.37-.08.36.11.36.88.36-.79.36-.83.37.78.36 1.6.36-2.47.36 1.85.36-.96.37-.99.36 1.82.36-1.61.36 2.51.37-1.78.36-1.58.36 2.4.36.84.36-3.4.37 2.5.36-1 .36.99.36-2.68.36 2.66.37-.85.36-.79.36 2.46.36-3.26.36 2.6.37-.96.36-.22.36.93.36-1.79.36 2.67.37-3.32.36 1.63.36-.82.36 2.49.37-.59.36-2.78.36 3.47.36-1.59.36-.95.37 2.68.36-3.51.36 2.49.36-.69.36-.99.37 1.77.36-.04.36-1.73.36 1.78.36-.88.37-.84.36 2.47.36-2.62.36.9.37.15h.36l.36.85.36-.92.36.08.37-.9.36 1.42.36.12.36-1.77.36 1.59.37-1.54.36.83.36.95.36-.94.36.05.37-.88.36.74.36.9.36-1.6.36 1.84.37-1.86.36 2.75.36-1.81.36-1.57.37 3.27.36-2.59.36 1.75.36-1.67.36 1.68.37-.91.36.89.36-.93.36-1.68.36 3.33.37-3.33.36 3.47.36-.99.36-3.25.36 5.11.37-4.24.36 2.6.36-.02.36-2.52.37 4.15.36-3.37.36.92.36-.21.36-1.64.37 4.98.36-5.16.36 1.78.36.08.36-.17.37 1.04.36-2.69.36 2.55.36.03.36-1.79.37 2.06.36-2.71.36 2.54.36 1.01.36-3.4.37 2.71.36-1.78.36 1.66.36.02.37-2.64.36 2.52.36.15.36-1.7.36 1.69.37-1.61.36 1.71.36.02.36-1 .36-1.73.37 3.36.36-1.64.36-.13.36.13.36-1.58.37 4.11.36-1.8.36-2.64.36 1.78.37.04.36.79.36.07.36-2.51.36 1.66.37.93.36-.83.36.76.36-1.8.36 1.77.37-.06.36-2.54.36 2.47.36-1.67.36 1.76.37-.83.36-.06.36-.08.36 1.01.37-2.61.36 1.59.36 1.67.36-2.63.36.91.37-.84.36.94.36 1.71.36-3.57.36 2.65.37-1.62.36.75.36 1.79.36-3.55.36 2.61.37-.81.36-.82.36 1.87.36-1.72.36.75.37.87.36-.93.36-.1.36-.83.37 1.84.36-.82.36.07.36.05.36-.99.37 1.65.36 1 .36-3.55.36 1.81.36.94.37-.83.36.87.36-2.55.36 2.24.36-.57.37-.11.36.74.36-.78.36-.8.37.92.36.72.36-.72.36-.12.36-.08.37-.66.36 2.43.36-5.02.36 6.07.36-.89.37-4.45.36 5.16.36-5.94.36 5.12.36-.84.37-2.52.36 4.04.36-3.31.36-.01.36 1.6.37-1.63.36 2.43.36-2.47.36.96.37-.73.36.78.36 1.84.36-2.66.36.86.37-.97.36 1.67.36.92.36-4.34.36 3.34.37-.76.36-.04.36 1.79.36-3.43.36 1.62.37-.72.36 1.63.36.92.36-2.66.37-.01.36.97.36.74.36-.8.36-.01.37-.79.36.96.36-.19.36.89.36-1.04.37-.58.36.9.36.76.36-1.58.36 1.52.37-.7.36-.11.36.03.36.1.37.01.36-.07.36.06.36-.2.36-.12.37.08.36-.04.36.15.36-.97.36.9.37.77.36-.72.36-.02.36-.04.36.03.37-.08.36.01.36-.04.36.04.36-.03.37-.74.36 2.54.36-4.24.36 4.13.37-1.59.36-.77.36 2.48.36-4.18.36 4.26.37-1.64.36-.07.36.91.36-2.55.36 2.46.37-.91.36-.15.36 1 .36-2.52.36 2.51.37-.93h.36l.36.31.36-1 .37 2.54.36-2.46.36.82.36.08.36 1.67.37-4.3.36 4.21.36-1.52.36-.89.36 3.45.37-4.14.36 1.49.36.71.36-2.65.36 3.53.37-.95.36-2.36.36 2.51.36-1.65.36 1.56.37-.69.36-.72.36 2.46.36-3.21.37 2.45.36.12.36-.91.36-.06.36-1.07.37.95.36 1.75.36-2.55.36 1.68.36-2.49.37 3.39.36-.04.36-3.43.36 1.58.36-.87.37 1.75.36.62.36-3.98.36 3.36.37-.95.36-.97.36 2.6.36-.82.36-2.36.37 1.58.36-.1.36.88.36-1.57.36.73.37-.02.36.04.36.04.36.12.36.85.37-.77.36-.87.36 1.61.36-.86.36.85.37-1.78.36.85.36.13.36-.11.37.87.36-2.38.36 2.7.36-.2.36-.82.37-.13.36-.87.36 2.56.36-3.23.36 2.53.37.07.36-.91.36-.16.36-.76.36.71.37.91.36-.77.36-.16.36.17.37.74.36-.9.36-1.63.36 3.41.36-2.42.37.85.36 2.51.36-5.28.36 3.43.36-1.76.37.97.36 1.68.36-1.72.36-.86.36.9.37-.79.36 2.36.36-2.57.36.9.37-.07.36-.83.36 3.47.36-3.22.36-.03.37 1.71.36-1.73.36 1.59.36-1.71.36.87.37 1.9.36-2.61.36.94.36.83.36-2.69.37 3.45.36-2.45.36.78.36 2.7.36-3.48.37-.07.36.74.36-.67.36 2.57.37-.84.36-2.56.36 3.35.36-2.71.36.9.37 1 .36-1.92.36 1.85.36-1.75.36.84.37.97.36-1.91.36 1.57.36-1.64.36.87.37.15.36.75.36-.75.36.11.37-.02.36-.05.36-.03.36.8.36-1.64.37.66.36.85.36-1.73.36 2.63.36-3.29.37 2.45.36-.76.36-.8.36 2.56.36-2.66.37.94.36.92.36-1.7.36 1.56.36-.92.37-.99.36 1.83.36-1.87.36 1.89.37-1.62.36 1.68.36-1.7.36 2.44.36-1.8.37-1.65.36 2.61.36-2.67.36 3.54.36-.78.37-2.71.36 3.56.36-2.68.36.96.36-.1.37-.68.36 2.53.36-2.49.36.58.37-.03.36-.85.36 1.71.36.04.36-1.56.37.76.36-.9.36.81.36 2.63.36-4.33.37 1.73.36-.81.36 1.85.36-.13.36-2.64.37 1.83.36-.05.36.68.36.31.36-2.62.37 2.53.36-2.51.36 3.45.36-1.66.37-1.12.36 2.64.36-3.44.36 1.69.36 1.81.37-4.93.36 6.55.36-4.29.36-.03.36 3.44.37-6.73.36 7.76.36-5.2.36 1.64.36 1.66.37-4.1.36 4.27.36-1.73.36-.72.37 2.43.36-5.14.36 5.9.36-2.45.36-.85.37 1.77.36-.78.36.05.36-.05.36-.09.37.75.36-1.77.36.87.36.07.36.06.37.07.36.86.36-2.71.36 2.67.37.7.36-3.37.36 3.56.36-3.3.36 2.56.37.08.36-2.73.36 3.35.36-1.81.36-.68.37 1.74.36-.03.36-2.7.36 3.45.36-3.48.37 2.6.36.04.36-2.54.36 3.28.36-1.69.37-.8.36 1.75.36-3.47.36 4.21.37-.03.36-3.18.36 2.47.36-1.75.36.08.37 3.44.36-3.26.36.83.36 1.62.36-4.25.37 4.22.36-1.65.36-.1.36.8.36-2.46.37 3.28.36-2.47.36.64.36.88.37-2.36.36 3.33.36-3.45.36 3.34.36-1.52.37-1.66.36 4.39.36-4.27.36 2.41.36.9.37-5.1.36 6.82.36-5.18.36 1.73.36 2.49.37-5.84.36 5.88.36-4.56.36 2.81.36.9.37-4.12.36 4.06.36.01.36-4.18.37 4.26.36-2.54.36.74.36 1.82.36-4.36.37 4.28.36-1.6.36-.81.36 2.45.36-2.56.37 1.79.36-.92.36-1.7.36 4.23.36-4.12.37 2.56.36.75.36-3.4.36 2.6.37-.79.36-1.05.36 3.19.36-4.72.36 4.03.37-2.46.36.79.36 1.53.36-3.23.36 2.52.37-1.89.36 1.8.36-.93.36-.78.36 1.68.37-1.47.36 1.52.36-.87.36.26.36-.27.37.13.36-.06.36.84.36-1.82.37 1.67.36-.82.36-.87h.36l.36 1.88.37-.98.36.02.36.78.36-2.52.36 3.42.37-2.48.36.81.36.05.36-.91.36 2.66.37-1.67.36-.16.36-.79.36.78.37.32.36.83.36-1.88.36.92.36.79.37-1.77.36 1.77.36-.86.36-.77.36 2.5.37-4.26.36 4.21.36-1.71.36-.68.36 1.66.37-.12.36-1.61.36.73.36-.77.37 1.61.36-.1.36-1.55.36-.04.36 2.58.37-2.58.36 1.76.36-1.71.36.07.36 2.46.37-2.38.36.83.36.7.36-1.49.36 2.35.37-2.31.36-.18.36 2.44.36-3.36.36 3.46.37-2.6h.36l.36 2.52.36-4.09.37 5.09.36-2.63.36-1.78.36 3.27.36-4.2.37 4.48.36-.94.36-1.77"/><use xlink:href="#7c174__a" color="#F44336" transform="matrix(3.75 0 0 3.75 240.55 137.36)"/><use xlink:href="#7c174__a" color="#F44336" transform="matrix(3.75 0 0 3.75 220.55 7.51)"/></g><text stroke-linecap="round" stroke-linejoin="round" color="#000" font-family="KaTeX_Main" font-size="8" transform="translate(241.1 25.11)"><tspan>LBSTBottomUp</tspan></text><g fill="none" stroke="currentColor" stroke-linecap="round" stroke-linejoin="round" color="#000"><path stroke="#3B75EA" d="M205.6 22.51h29.9M28 143.81l.36-.92.36.51.37.3.36-.91.36.55.36 1.82.36-2.44.37.61.36 1.12.36-.86.36-.92.37.08.36.53.36.21.36-1.04.36 3.53.37-2.48.36-2.32.36 3.11.36-.89.36-1.1.37 1.02.36 1.82.36-3.94.36.43.36 2.52.37-2.02.36.35.36 2.4.36-1.56.36-1.27.37 1.32.36-.2.36.97.36-2.57.37 4.27.36-4.03.36-.69.36 3.93.36-1.95.37-.76.36.89.36-.58.36 1.25.36-1.56.37 2.37.36-1.45.36-2.61.36 3.94.36-2.24.37.44.36-.02.36 1.68.36.28.37-.21.36-.9.36.34.36.24.36-.54.37 1.79.36-1.93.36-.07.36.46.36 1.09.37-1.82.36 2.74.36-.98.36-2.18.36 1.99.37.16.36-1.05h.36l.36.68.37-.39.36-2.39.36 3.89.36-1.44.36.05.37 1.8.36-1.14.36-1.64.36 2.9.36-1.68.37.56.36.13.36-1.63.36.86.36-.38.37 1.03.36-.92.36.26.36 1.38.36-2.25.37 1.23.36-.57.36-.48.36.91.37-.97.36-.46.36 1.2.36-.7.36-1.06.37 2.92.36-1.88.36-.17.36 1 .36-.6.37.03.36.71.36-.91.36-.11.36.68.37.53.36-1.46.36 1.6.36 1.17.37-2.11.36-.49.36 1.3.36.23.36-2.03.37 1.77.36-.22.36-2.02.36 1.71.36-.48.37.22.36 1.09.36 1 .36-2 .36-.06.37 2.12.36-.74.36-2.22.36 2.19.36-.54.37-.58.36-.48.36 1.15.36-.91.37.3.36-.16.36 1.38.36-1.05.36-1.21.37 2.5.36-2.01.36-.83.36 1.47.36-.21.37-.58.36.81.36-1.6.36 1.13.36.51.37.95.36-1.52.36.25.36-.26.37-.11.36-.07.36 1.47.36-.59.36-1.49.37 1.83.36-.7.36 1 .36-1.35.36 1.48.37-.52.36-.76.36-1.17.36 1.89.36-2.03.37 2.2.36-.49.36-.82.36.48.36.1.37.62.36-.86.36 1.98.36-.62.37.92.36-2.04.36.01.36-1.33.36.7.37 2.03.36-.52.36-1.01.36 1.94.36-1.89.37-.4.36-.68.36 2.76.36-1 .36-.87.37-.22.36-.3.36-.91.36 2.77.37-.71.36-.76.36.86.36-1 .36-.8.37 1.95.36.03.36-.16.36-.75.36-.37.37-.19.36.35.36 1.99.36-.77.36-.77.37.81.36-1.22.36.06.36.21.37.8.36.7.36-2.56.36.4.36.81.37-1.34.36 2.04.36.97.36-1.68.36.76.37-.87.36 1.07.36.2.36-.88.36.76.37.61.36-2.99.36 1.9.36-.77.36.17.37 1.06.36-.09.36-.34.36-.98.37 1.06.36-.82.36-.19.36.82.36-.18.37-1.11.36.06.36.2.36-.74.36 1.79.37.53.36-1.56.36 1.03.36-.72.36.92.37-1.85.36 1.54.36-.19.36.08.37-1.39.36 1.84.36-.86.36.14.36 1.47.37-.91.36-.96.36.03.36.84.36-1.82.37 1.63.36-.16.36-.02.36-.51.36.27.37 1.04.36-1.83.36 2.5.36-.72.36.19h.37l.36-1.62.36 2.25.36-2.09.37-.17.36 1.02.36.06.36-.56.36.11.37 1.48.36-2.73.36 1.69.36.03.36-.01.37-.77.36-.21.36-.3.36.03.36 1.01.37-.01.36-.68.36-.07.36-.1.37.13.36 1.75.36-1.57.36.85.36-1.03.37-.16.36-.21.36 1.12.36-.56.36 1.93.37-1.65.36-.21.36-.13.36.87.36-.04.37-.64.36 1.43.36-2.53.36.6.36.69.37-.69.36.44.36 1.88.36-1.56.37.76.36-.87.36 1.21.36-1.03.36 1.02.37-.15.36.5.36-1.89.36-.8.36 1.74.37-.72.36 1.12.36-.16.36-.11.36-.98.37.09.36.12.36.52.36-.01.37-.09.36-1 .36-.87.36 1.73.36-.59.37.87.36-.03.36-.83.36-.85.36 1.8.37-.74.36.72.36-.18.36-1.09.36 1.13.37-1.59.36 1.92.36-.68.36 1.65.37-.97.36-1.01.36-.78.36 1.67.36-.86.37.97.36-.39.36-.21.36-.78.36-.69.37 1.2.36 1.87.36-.86.36-.08.36.16.37-1.69.36 1.75.36.04.36-1.13.36.6.37-.04.36.01.36-.75.36.19.37.12.36.55.36-.03.36.13.36-.06.37-1.85.36.93.36-.35.36 1.65.36-1.78.37 1.02.36-1.59.36.95.36.74.36-.95.37 1.14.36 1.03.36-1.81.36-1.69.37 3.38.36-1.99.36-.01.36 1.96.36-.79.37-2.42.36 2.77.36-.19.36-.22.36-.69.37 1.68.36-.91.36-3.37.36 3.99.36-1.95.37.02.36 1.73.36-.5.36-2.41.36 2.62.37-.05.36-.73.36.95.36 1.06.37-.16.36-.85.36-3.68.36 3.99.36-2.47.37 1.82.36.92.36.13.36-.82.36-3.73.37 4.44.36-1.71.36-.06.36 1.6.36-.9.37-1.87.36.7.36.03.36.03.37 1.8.36-.73.36-1.82.36.77.36.36.37.8.36.01.36.83.36-2.56.36-.43.37 2.78.36-1.57.36.11.36 1.91.36-.86.37-2.55.36 2.26.36.12.36.05.37-1.01.36 1.79.36-1.92.36-1.92.36 3.43.37-1.54.36.2.36 1.93.36-1.62.36.83.37-1.63.36 2.63.36-1.61.36 1.68.36-1.83.37.43.36.03.36-2.54.36 3.35.36-1.53.37 1.88.36-1.79.36.66.36-.01.37-2.42.36 3.25.36-1.63.36 1.47.36-2.79.37 2.55.36-4.37.36 4.41.36-1.52.36.84.37.02.36-.8.36-1.57.36 3.37.36-1.65.37 1.67.36-2 .36.81.36-1.5.37.95.36 1.93.36-1.68.36.94.36-.22.37-.94.36-.72.36 1.46.36-.61.36 1.54.37-1.97.36.73.36-.71.36-.78.36 1.19.37 1.8.36.14.36-1.83.36.92.36-.71.37-.05.36 1 .36-1.27.36 1.49.37-.85.36-.74.36-.02.36-.52.36 1.55.37-.09.36.81.36-.82.36-.99.36.01.37-.93.36.71.36 1.47.36-.72.36-.82.37-.91.36 1.22.36-.27.36.86.37 1.09.36-1.64.36-.05.36-.1.36-.87.37 2.38.36-.7.36-.75.36.15.36.14.37.9.36-.81.36 1.54.36-.8.36-.94.37-.06.36-.03.36-1.05.36 2.27.36-.73.37-.77.36.28.36 1.82.36-1.51.37-.88.36 2.64.36-.79.36.1.36-.77.37.51.36-1.11.36-.95.36 2.73.36-.75.37-.85.36 1.82.36-1.78.36-.09.36.06.37.73.36-.05.36.1.36-.3.37-2.79.36 2.46.36-.65.36.81.36.22.37-.77.36-1.08.36 1.84.36-.74.36.86.37.11.36-.12.36-1.76.36 1.35.36-.47.37.1.36 1.84.36-1.63.36.8.37-1.83.36 2.63.36-1.77.36-.1.36 1.79.37-1.93.36-.86.36 1.42.36.11.36-1.35.37 2.75.36-1.62.36.9.36-.81.36.91.37.04.36-.86.36.67.36.71.36-2 .37-.86.36 1.68.36.29.36-1.7.37 2.67.36-.95.36-1.02.36.09.36.9.37-.04.36-1.84.36 2.22.36-1.75.36-.71.37 1.67.36.17.36-1.72.36 2.55.36-1.72.37-.8.36 1.93.36.05.36-1.01.37.81.36-1.28.36.16.36.11.36 1.17.37.24.36-.1.36.03.36-1.15.36.2.37-.02.36.71.36-.87.36.58.36-.14.37-.67.36-.82.36 1.88.36 1.2.36-1.74.37.83.36-.81.36.11.36 1.03.37-.1.36-.06.36.51.36-1.86.36-.81.37 1.76.36-1.65.36 1.73.36 1.12.36-1.08.37.02.36-1.64.36 1.55.36-1.86.36 1.63.37.8.36-1.9h.36l.36-.79.37.26.36 2.43.36-.64.36-.05.36-.66.37-.11.36-.86.36 1.68.36.77.36-1 .37.11.36-1.59.36.36.36.65.36 1.85.37-.11.36-1.97.36 1.12.36-.88.36-1.93.37 2.48.36.76.36-.94.36.18.37-1.64.36.19.36.99.36 1.77.36-.03.37-.65.36-.12.36.06.36-1.8.36-.96.37 3.2.36-.14.36.04.36-1.43.36-.75.37.05.36.62.36 1.62.36.17.37-.03.36-1.9.36-.88.36-1.11.36 2.49.37.92.36.1.36-1.7.36-.74.36-.9.37 2.52.36.89h.36l.36-.57.36-1.01.37-2.56.36 2.34.36 1.92.36.01.37.18.36-2.41.36.82.36-1.91.36 2.49.37.98.36.05.36-.26.36-2.51.36-1.83.37 2.45.36 1.94.36-.05.36.19.36-2.47.37 1 .36-1.64.36 2.5.36 1.01.36.08.37-.29.36.15.36-2.89.36-1.87.37 3.45.36.11.36.96.36.17.36-1.79.37-.25.36-1.71.36 1.74.36 1.6.36-.01.37-.14.36-2.69.36-1.77.36 3.37.36.19.37.97.36.11.36-2.84.36-1.56.37 3.59.36-.03.36.96.36-.17.36-.82.37-1.82.36-1.7.36 3.68.36 1.07.36-.03.37-.86.36-.01.36-1.83.36-.79.36 2.44.37.84.36-.1.36-1.19.36-.8.36-3.23.37 4.41.36 1.05.36.09.36.02.37-2.56.36 1.75.36-1.73.36.21.36 2.2.37.09.36-.15.36-1.1.36-1.49.36.05.37-.15.36 2.82.36-.03.36-.09.36-1.82.37.19.36-2.77.36 3.31.36.64.37-.87.36-.06.36-.88.36-2.2.36 3.26.37.99h.36l.36-.91.36-1.5.36-1.63.37 3.92.36-.79.36.91.36-.7.36-.93.37-1.42.36 1.59.36.94.36.88.36-.06.37-.98.36.06.36-3.63.36 2.58.37.73.36-.14.36.98.36-.77.36-2.35.37.88.36 2.68.36-.92.36 1.13.36-1.69.37 1.8.36-1.78.36-1.07.36.69.36.63.37.89.36-.68.36.08.36-.93.37-1.57.36 2.56.36-.07.36.69.36-1.72.37 1.65.36-3.61.36.92.36 2.34.36-.84.37-.7h.36l.36-.95.36 1.13.36 1.58.37-.65.36-.71.36 1.59.36-2.63.37-.97.36 3.37.36.02.36-.64.36-.59.37-.13.36-1.69.36 2.55.36.81.36-.96.37.99.36-1.97.36-.85.36-.86.36 3.24.37.15.36-.7.36-.76.36.14.36-1.74.37 3.51.36-.91.36 1.07.36-.97.37.95.36-1.91.36-1.09.36-.09.36 1.86.37.98.36-.79.36-.32"/><use xlink:href="#7c174__f" color="#3B75EA" transform="matrix(3.75 0 0 3.75 298.12 144.21)"/><use xlink:href="#7c174__f" color="#3B75EA" transform="matrix(3.75 0 0 3.75 220.55 22.51)"/></g><text stroke-linecap="round" stroke-linejoin="round" color="#000" font-family="KaTeX_Main" font-size="8" transform="translate(241.1 40.11)"><tspan>LBSTRelaxed</tspan></text><g fill="none" stroke="currentColor" stroke-linecap="round" stroke-linejoin="round" color="#000"><path stroke="#FFAB00" stroke-dasharray="4.0,2.0,1.0,2.0" d="M205.6 37.51h29.9M28 132.38l.36-2.58.36-.05.37-16.1.36 17.93.36.1.36-1.04.36-1.11.37-1.21.36 3.95.36-3.85.36 1.14.37-5.83.36 7.25.36-.66.36.06.36-2.02.37-.12.36 1.82.36-.25.36-1.03.36-33.99.37 38.11.36-3.78.36 3.8.36-6.41.36 5.51.37-2.44.36 1.88.36-9.17.36 8.81.36.63.37-.32.36-1.93.36-3.53.36 5.16.37-2.92.36 3.41.36-20.02.36 18.75.36 1.56.37-2.21.36 1.3.36-4.11.36 2.63.36.34.37-.97.36-6.31.36 7.86.36-2.63.36 3.66.37 7.73.36 2.06.36-4.83.36 5.52.37.2.36-1.83.36-.39.36 2.24.36-1.2.37-.78.36-36.7.36 39.31.36-.61.36 1.81.37-.75.36-2.24.36 1.65.36.53.36-56.04.37 54.68.36 1.93.36-2.42.36 1.47.37-1.92.36 3.64.36-7.34.36 6.6.36-1.76.37 1.09.36-3.38.36 2.68.36 1.31.36-9.73.37 8.11.36.32.36 2.01.36-2.96.36-.6.37-.34.36 2.08.36-5.53.36 4.87.36.49.37-.91.36 1.42.36-20.42.36 18.84.37.09.36.99.36-1.41.36 2.49.36-1.1.37-.41.36 1.39.36-7.62.36 7.17.36-1.34.37 1.45.36-1.47.36-1.15.36 2.68.36-1.39.37-8.51.36 10.7.36-.66.36-2.04.37-52.84.36 55.02.36-1.5.36-1.72.36 2.14.37 1.83.36-4.59.36-2.17.36 5.62.36-2.12.37 1.93.36-2.21.36 2.41.36-1.92.36-8.51.37 10.74.36-1.41.36 1.48.36-4.37.36 3.84.37-2.19.36 1.49.36-3.76.36 4.1.37.78.36-2.39.36 3.21.36-5.83.36-14.91.37 19.67.36-2.04.36-1.3.36 2.86.36 1.52.37-4.03.36 3.87.36-7.56.36 7.04.36-2.48.37 1.91.36.33.36-2.82.36 1.55.37-.19.36.93.36-9.92.36 10.82.36-.35.37-57.78.36 56.92.36-.24.36-1.32.36.99.37.54.36.02.36-5.92.36 5.89.36.28.37.41.36-3.28.36 2.7.36 1.15.36-12.78.37 11.53.36.38.36.31.36-3.31.37 2.82.36.84.36-1.33.36-3.2.36 2.88.37 1.64.36-.75.36-.1.36-1.99.36-18.14.37 19.37.36.61.36-.44.36-1.7.36 3.14.37-1.49.36.88.36-7.12.36 6.99.37.69.36-.3.36-.56.36-1.95.36 1.59.37-1.28.36 1.98.36-8.27.36 9.08.36-2.72.37-55.88.36 58.17.36-2.01.36 1.04.36-.79.37 1.9.36-3.09.36-2.68.36 5.53.37-2.48.36 1.47.36-1.64.36 1.46.36 1.39.37-10.22.36 10.33.36-2.22.36 1.25.36-.93.37.99.36.47.36-2.25.36 2.08.36-5.25.37 4.95.36.97.36.1.36-3.81.36-18.08.37 21.37.36.78.36-1.61.36-2.53.37 3.51.36-2.86.36 1.7.36-5.57.36 6.28.37-.33.36.58.36.44.36-4 .36 2.95.37.75.36-2.06.36-6.87.36 8.56.36.3.37-59.43.36 58.78.36.85.36-1.25.37-1.62.36 1.97.36-.1.36-5.91.36 5.86.37-.95.36-.09.36.5.36 1.02.36.45.37-12.19.36 11.73.36-.72.36 1.24.36-2.13.37.41.36 1.16.36-1.87.36 1.06.36-3.67.37 4.91.36-1.86.36 2.06.36-1.67.37-20.21.36 21.39.36 1.19.36-2.58.36-.9.37 1.68.36-.65.36-.42.36.11.36-1.58.37 1.91.36 1.35.36-.12.36-2.37.36 2.85.37-1.85.36.74.36-8.16.36 7.98.37 1.11.36-58.25.36 57.64.36-.26.36.66.37-1.65.36.39.36-.13.36-4.32.36 4.22.37.66.36.11.36-.36.36-1.03.36 1.47.37-9.38.36 8.9.36.16.36 2.44.36-1.11.37-4.06.36 2.67.36-.17.36-.81.37-3.02.36 6.37.36-1.46.36-1.14.36-.89.37-18.07.36 20.7.36-1.08.36.03.36-1.69.37.71.36.32.36 1.52.36-1.08.36-5.3.37 5.63.36.69.36-.56.36-2.89.37 4.36.36-1.02.36-2.32.36-7.63.36 9.87.37 1.46.36-61.29.36 61.2.36-2.03.36-.04.37-2.52.36 3.63.36-1.76.36-3.38.36 4.46.37-1.63.36-.53.36 2.27.36-1.19.37-.03.36-8.37.36 9.5.36-.72.36 1.72.37-2.01.36-.44.36.05.36.37.36 1.98.37-6.44.36 5.3.36-.52.36 1.42.36.41.37-24.49.36 25.04.36-1.18.36-1.3.36-2.97.37 5.23.36-1.85.36-1.36.36 2.17.37-5.26.36 3.85.36.51.36 2.25.36-2.86.37.28.36-.5.36 1.1.36-10.56.36 12.21.37-.26.36-.91.36-58.94.36 58.28.36 1.09.37-3.5.36 2.68.36.87.36-2.33.37-3.01.36 3.96.36.07.36-.84.36-1.45.37 4.3.36-2.1.36-9.21.36 10.04.36.11.37-1.39.36-.98.36 3.22.36-3.08.36 1.14.37-3.87.36 5.29.36-2.39.36 2.05.36 1.34.37-24.19.36 22.5.36-.24.36 2.17.37-6.73.36 4.7.36 1.63.36-1.51.36-1.28.37-5.23.36 8.14.36-2.14.36.54.36-.86.37 1.06.36-1.39.36.27.36-6.94.36 8.2.37-.06.36-.73.36-56.3.36 55.45.37 1.13.36-1.26.36 1.25.36-.47.36-.05.37-3.26.36 2.53.36-.57.36 2.28.36-3.18.37 2.81.36 1.18.36-9.68.36 7.73.36.25.37 1.37.36-3.03.36 1.63.36-.48.37 1.69.36-6.53.36 5.87.36 1.16.36-1.69.37 1.4.36-3.6.36-16.13.36 17.66.36 1.44.37-1.52.36 1.42.36-.43.36-1.48.36 2.37.37-6.29.36 4.82.36 1.99.36.2.36-2.24.37-.79.36 3.16.36-3.02.36-3.59.37 1.07.36 5.38.36-1.69.36-57.66.36 58.81.37-1.12.36-1.06.36 1.65.36.71.36-3.18.37-3.46.36 6.19.36-1.74.36-.13.36.19.37.99.36 1.08.36-11.89.36 11.81.37-1.38.36 1.42.36-2.95.36 1.56.36-.36.37-.3.36-3.14.36 4.24.36 1.29.36-1.86.37 1.51.36-3.61.36-17.88.36 21.95.36-1.2.37-1.77.36.47.36 1.81.36-1.54.36-.42.37-2.84.36 3.13.36 1.42.36-1 .37 2.26.36-4.49.36 3.57.36-1.77.36.43.37-8.54.36 9.61.36.73.36-60.01.36 59.5.37-1.06.36-1.47.36 1.27.36-.31.36.39.37-5.48.36 5.64.36-.1.36-.32.37-1.42.36 2.15.36.78.36-12.2.36 11.47.37 1.09.36-2.16.36-.19.36-.18.36 1.74.37-1.16.36-1.37.36-.82.36 3.03.36.11.37-.94.36-.31.36-18.76.36 20.29.36-.09.37.01.36-3.86.36 3.27.36.09.37-.23.36-5.54.36 5.84.36.83.36-1.91.37 2.84.36-3.8.36 2.8.36-2.57.36.31.37-6.81.36 9.68.36-1.66.36-57.86.36 57.93.37 1.1.36-2.08.36-.07.36 1.21.37-1.94.36-2.36.36 4.07.36-.86.36.76.37-1.2.36 1.1.36-.44.36-8.95.36 10.98.37-.79.36-1.26.36.29.36-.88.36.98.37.69.36-1.77.36-1.81.36 3.35.37.24.36-.14.36-.88.36-20.17.36 21.76.37-.49.36-1.21.36-.88.36 1.59.36.32.37-.48.36-2.65.36.6.36 1.6.36 2.29.37-1.05.36-1.48.36.14.36.95.36-1.27.37-7.29.36 9.79.36-1.35.36-57.92.37 58.19.36-.33.36-.16.36-2.55.36 4.62.37-2.65.36-4.37.36 5.23.36-.78.36-.61.37.97.36-.31.36.75.36-10.56.36 10.78.37.12.36-.34.36-.57.36-.97.37 1.93.36-1.11.36-.73.36-2.16.36 3.66.37-1.29.36 2.97.36-3.36.36-18.35.36 20.27.37.41.36-1.6.36.01.36-.14.36.26.37.47.36-.02.36-4.15.36 3.69.36 2.24.37-1.27.36-2.06.36 1.89.36-.73.37 1.01.36-9.92.36 9.99.36-.42.36-57.07.37 57.16.36-1.18.36 1.75.36-1.69.36 1.14.37-1.89.36-2.61.36 3.51.36.55.36-.72.37.58.36-1.18.36 2.58.36-11.29.37 10.81.36-.9.36 1.75.36-.36.36-3.01.37.84.36 1.48.36-1.59.36-2.93.36 5.14.37-1.39.36 1.42.36-2.23.36-18.65.36 20.15.37-.39.36 1.3.36-3.8.36 2.72.36-.64.37.45.36.05.36-5.53.36 6.55.37-1.16.36 1.34.36-3.67.36 4.44.36-1.99.37-.58.36-9.67.36 11.92.36-.04.36-49.32.37 36.47.36 12.2.36-1.04.36-1.64.36 2.76.37-2.5.36.42.36-2.71.36 3.56.37-.81.36.6.36-.3.36.93.36-4.73.37-1.07.36 5.86.36.62.36-.63.36-1.37.37-.01.36.29.36.27.36-3.78.36 5.27.37-1.33.36 1.61.36-.9.36-22.84.37 23.7.36-.35.36-.47.36-3.12.36 2.82.37.08.36-.82.36.55.36-4.44.36 4.86.37-.49.36 1.45.36-3.67.36 4.28.36-2.87.37 1.17.36-10.5.36 11.83.36-.05.36-1.83.37-57.28.36 57.54.36.3.36-2.05.37 1.96.36.19.36-1.46.36-3.56.36 5.3.37-1.51.36.64.36-2.21.36 3.44.36-1.32.37-9.36.36 10.85.36-1.52.36.46.36-1.96.37 1.45.36-.44.36 1.38.36-6.04.37 6.64.36-1.04.36.17.36.87.36-12.85.37 3.08.36 7.82.36 2.24.36-4.17.36 3.16.37-.43.36.29.36-.37.36-6.29.36 6.62.37.42.36.74.36-1.62.36-.84.36 1.16.37-.61.36-7.14.36 6.67.36 3.43.37-3.45.36-55.67.36 56.9.36-.23.36-1.91.37 2.24.36.67.36-1.67.36-3.91.36 4.58.37-1.65.36 1.43.36-1.4.36 1.95.36.34.37-10.97.36 12.38.36-2.28.36.47.37-1.98.36 2.35.36-2.17.36 2.67.36-5.96.37 4.39.36 1.2.36-.21.36 1.66.36-4.51.37-17.14.36 19.56.36.54.36-2.8.36 2.41.37 1.71.36-3.41.36 1.56.36-5.3.36 5.47.37.69.36.67.36-1.2.36-1.73.37 1.56.36-.61.36.11.36-7.37.36 8.56.37-.13.36-57.65.36 56.51.36 1.25.36-3.32.37 4.44.36-1.43.36-1.33.36-4.68.36 5.64.37-.88.36.56.36-1.36.36 1.85.37 1.86.36-12.81.36 11.07.36.31.36-.45.37-1.92.36 2.26.36-.77.36.03.36-3.8.37 3.47.36 1.85.36-1.75.36.68.36-1.77.37-17.93.36 19.42.36.58.36.54.37-3.64.36 2.6.36-.73.36.59.36-4.48.37 3.83.36 2.58.36-1.61.36-.72.36-.42.37 2.04.36-1.94.36.46.36-8.29.36 9.32.37.09.36-59.07.36 58.49.36.79.36-1.08.37-.66.36.88.36-1.91.36-2.8.37 4.64.36-.02.36-1.26.36-.38.36 2.83.37-1.03.36-10.28.36 10.48"/><use xlink:href="#7c174__g" color="#FFAB00" transform="matrix(3.75 0 0 3.75 355.7 140.48)"/><use xlink:href="#7c174__g" color="#FFAB00" transform="matrix(3.75 0 0 3.75 220.55 37.51)"/></g><text stroke-linecap="round" stroke-linejoin="round" color="#000" font-family="KaTeX_Main" font-size="8" transform="translate(241.1 55.11)"><tspan>TreapTopDown</tspan></text><g fill="none" stroke="currentColor" stroke-linecap="round" stroke-linejoin="round" color="#000"><path stroke="#00C853" stroke-dasharray="4.5,2.0,0.5,2.0,0.5,2.0" d="M205.6 52.51h29.9M28 149.2l.36 1.73.36.68h.37l.36-1.33.36 1.26.36 1.67.36-2.62.37.85.36.25.36-.59.36-.48.37.83.36-.09.36-.24.36.26.36-1.36.37.55.36-.5.36 1.13.36-3.3.36 1.77.37 1.14.36-.83.36.89.36-.08.36.87.37.68.36-1.3.36-.07.36-1.86.36-.21.37 1.82.36-.36.36.55.36-.88.37.51.36-.52.36-.11.36.59.36-1.09.37 1.34.36-1.28.36 3.58.36-2.85.36.37.37-.93.36.91.36-.36.36.53.36.64.37-2.89.36 1.46.36.83.36-2.97.37.2.36-.39.36.95.36.15.36-.28.37-.28.36-1.48.36.7.36-.08.36 1.09.37.13.36-.23.36.04.36.01.36.09.37-1.83.36 1.99.36.01.36.29.37-.11.36 1.17.36-.01.36-3.26.36 1.89.37.49.36-.51.36.07.36.02.36-1.24.37 1.12.36-.15.36-.2.36 2.18.36-1.76.37.14.36-1.47.36 1.73.36-1.83.36 1.75.37 1.75.36-1.46.36-.41.36.8.37-2.52.36 2.6.36-1.65.36 2.66.36-.48.37-.07.36-.86.36-.09.36.14.36-.3.37-.36.36-.7.36.98.36.06.36.65.37-.73.36-.7.36.79.36.28.37.5.36.11.36-2.13.36.83.36-.13.37-.31.36-.77.36.79.36-.77.36.01.37.06.36 1.28.36-1.02.36 2.28.36-1.29.37-1.38.36 1.07.36.35.36.35.36-.43.37.1.36 1.15.36-1.59.36.8.37.55.36.36.36-.99.36-.39.36.08.37.93.36-.87.36-1.78.36 1.59.36.1.37.14.36-.36.36.15.36.04.36.03.37 1.3.36-1.73.36 1.56.36-.93.37-.08.36-.05.36 1.25.36.18.36-1.42.37-1.53.36.39.36.7.36.25.36-.19.37-.6.36.02.36.56.36.42.36-1.75.37.75.36-.55.36-1.24.36 2.14.36.34.37-.23.36.05.36.26.36-1.14.37 1.07.36-.01.36-.24.36 1 .36-1.53.37 1.17.36-.06.36-.25.36-.27.36-.7.37.59.36-.67.36-.14.36.76.36.35.37-.83.36 1.07.36-.4.36 1.49.37-2.19.36.88.36-.03.36-.24.36-.05.37-.93.36 1.15.36-.08.36-.98.36.28.37.7.36.02.36 1.11.36-1.19.36.12.37-.22.36-.21.36.9.36.06.37-.5.36.54.36.76.36-.93.36-.22.37.41.36-.19.36-.99.36.63.36 1.37.37-.81.36-.09.36-.99.36.02.36.93.37.16.36 1.4.36-1.69.36 1.19.36-2.28.37.76.36-.73.36.8.36.11.37.37.36.57.36-.87.36.13.36-.05.37.21.36-.12.36-.22.36-.08.36.37.37.56.36-1.03.36-.48.36.82.36-1.25.37 1.2.36 1.22.36-2.15.36 1.13.37-.03.36-.14.36-.2.36-.9.36.69.37.23.36-.36.36.12.36-.13.36.37.37-.92.36.57.36.22.36-.22.36.17.37-.77.36 1.71.36-1.01.36-1.29.36 1.4.37.21.36-.69.36.51.36.3.37.08.36.84.36-.87.36.8.36-1.57.37.67.36-.43.36-.75.36 1.15.36 1.83.37-.79.36-.87.36.43.36-1.47.36 1.61.37-1.58.36.87.36.11.36.63.37-.66.36-.02.36-.25.36-.78.36 2.64.37-1.86.36-.03.36.33.36-.94.36.88.37.02.36-1.2.36.66.36.96.36-1.7.37 1.94.36-1.07.36-.73.36.98.36.14.37.28.36-.5.36-.1.36-.29.37 1.83.36-.95.36 1.08.36-1.2.36 1.59.37-1.74.36-.13.36-.6.36.71.36-1.17.37.73.36.1.36-1.06.36 1.09.36.22.37.12.36-.34.36.82.36-1.64.37.74.36.89.36 1.67.36-2.02.36.16.37-.1.36.03.36.22.36-.19.36.72.37-.71.36-.71.36 3.43.36-2.67.36.07.37-.09.36-.67.36-.11.36.41.37 1.24.36-2.75.36 1.1.36.14.36.19.37.27.36-.25.36-.79.36 1.31.36-.3.37-.09.36.02.36 1.01.36-.93.36.95.37-1.74.36.6.36 1.34.36-.02.36-1.27.37.3.36.35.36-.21.36.46.37-.76.36.1.36.19.36.04.36-.31.37.01.36.96.36-1.45.36.58.36.09.37.45.36-1.63.36 2.58.36-.84.36-.57.37-.25.36-.36.36-.19.36.55.37-.07.36.35.36-.25.36.04.36-.39.37.19.36.06.36-.17.36.9.36-1.49.37 1.16.36-1.06.36 1.71.36-.72.36-.34.37-.14.36-.14.36-.63.36.94.36 1.8.37-2 .36-.15.36-1.08.36.86.37.05.36-.96.36 1.27.36-.97.36.7.37-.04.36-.74.36.36.36-1.03.36.35.37 1.5.36-.21.36.37.36.21.36-.46.37.85.36-.71.36.02.36-.19.37-1.77.36 1.82.36-.06.36.27.36-.03.37.75.36-.97.36-.13.36-.82.36-.29.37.46.36-.09.36.44.36.1.36.07.37-1.22.36 1.05.36.33.36-.56.37.31.36.95.36-.86.36-.03.36-.12.37-.01.36-1.26.36.98.36-1.5h.36l.37 1.32.36.03.36-.68.36 1 .36-.64.37.75.36-.98.36 1.3.36.12.36.23.37.82.36-1.32.36.35.36-.9.37.91.36.27.36.33.36-1.18.36.28.37-1.47.36-.09.36.93.36.51.36-1.84.37.91.36.7.36.32.36-1.21.36 1.06.37.74.36-.66.36-.19.36-.21.37-.7.36 1.36.36.81.36-.99.36.2.37-1.35.36.48.36.8.36-.59.36-.32.37 1.01h.36l.36-.36.36.11.36-.13.37.1.36-.11.36.83.36-.81.36-2.01.37 1.53.36 1.15.36-2.78.36 2.5.37-2.56.36-.38.36.83.36.25.36.85.37.37.36-.08.36-.66.36.38.36-2.65.37 2.13.36.79.36.09.36-.02.36 1.23.37-1.8.36-.13.36-.28.36.77.37.08.36-.8.36.41.36 1.87.36-.86h.37l.36-.95.36.79.36-.73.36-.11.37 1.63.36-.65.36.08.36-1.08.36.42.37 1.26.36-1.49.36.98.36.19.36-.43.37-.16.36.1.36-.25.36.06.37-1.03.36 1.03.36-.81.36.24.36.77.37-.47.36.14.36-.5.36.91.36-.33.37-1.24.36.83.36-2.52.36 2.83.36.22.37 1.21.36-.98.36-.59.36 1.31.37-.35.36.54.36-1.93.36-.2.36.07.37 1.08.36.06.36.56.36.48.36-.46.37.26.36 1.41.36-1.39.36-.45.36.33.37.9.36-.92.36-1.03.36 1 .37.11.36-.37.36-.22.36-.01.36.13.37-.97.36 1.32.36-2.06.36 1.05.36-.76.37 2.67.36-1.86.36.09.36.05.36-.06.37-.99.36-.13.36.86.36.78.36-.38.37-.91.36.43.36.3.36-1.78.37 1.6.36-.98.36-.93.36 1.76.36.62.37.81.36-2.34.36 2.15.36-2.01.36 1.2.37.28.36.76.36-2.85.36 1.46.36-.19.37 1.12.36-1.11.36-1.64.36 1.86.37-.76.36.96.36-1.01.36.63.36 1.04.37-2.33.36.67.36.93.36-.57.36.48.37.49.36-.03.36.15.36-.44.36.12.37.27.36-.3.36-.77.36.18.36.55.37 2.09.36-1.33.36-1.32.36.66.37-.16.36-.37.36 1.92.36-.8.36-1.03.37-.41.36.13.36 1.66.36.6.36-1.14.37-.17.36.19.36.62.36-.92.36-.82.37 1.73.36-1.69.36.81.36-.98.37 2.34.36-1.56.36 1.62.36-.2.36-.96.37-.08.36-.03.36-.54.36.66.36-1.11.37 1.98.36-.82.36-1 .36.73.36-.52.37-.12.36.21.36.11.36-1.52.36 2.04.37 1.68.36-2.52.36 1.01.36.78.37-1.78.36 1.08.36-.19.36-.36.36-1.3.37 1.4.36.47.36-.66.36-.04.36.41.37-.04.36.15.36.05.36 1.05.36-.97.37-.09.36.07.36.6.36-.74.37-1.45.36 1.01.36.24.36.07.36-.15.37-.14.36-.06.36.3h.36l.36.01.37.04.36-.89.36 1.75.36-1.31.36.5.37-.26.36 1.97.36-1.38.36-.08.37-.16.36-.27.36.23.36-.36.36.13.37.19.36.1.36-.01.36 1.17.36-1.82.37 1.18.36.1.36-.7.36-.2.36.81.37-.94.36.06.36.17.36.21.36-.23.37.23.36.36.36-.23.36.42.37 1.33.36-2.62.36 1.6.36-1.34.36 1.95.37-1.1.36-1.13.36 1.75.36.08.36-.89.37 1.85.36-1.08.36-.57.36-.04.36-.44.37.67.36-.02.36.33.36.16.37-.57.36.13.36.9.36-1.25.36-.43.37.25.36 1.06.36.12.36.11.36-1 .37-.06.36.2.36-.15.36.02h.36l.37.17.36-.59.36.11.36.78.36-.5.37-.19.36.41.36-.9.36-1.17.37 1.38.36.09.36-1.39.36-.02.36 1.66.37-.82.36-.66.36 1.13.36-.02.36.17.37-1.18.36.86.36-.04.36-.11.36-.61.37.62.36.14.36.72.36-1.54.37-.12.36 1.73.36-1.12.36.36.36-.86.37.94.36-.45.36.38.36.21.36-1.22.37.98.36-1.03.36 1.76.36-2.6.36 2.25.37-.78.36-.16.36-.52.36.71.36-.84.37.92.36-1.1.36 1.83.36-.99.37.35.36-1.47.36 1.52.36-.91.36.69.37.55.36-.1.36.01.36.94.36-.3.37-1.97.36.63.36.05.36-.12.36 1.87.37-1.21.36-2.1.36.67.36 1.02.37-1.23.36 1.12.36.76.36-1.58.36.82.37-1.72.36 1.41.36.52.36-1.86.36 1.8.37-.25.36.26.36.85.36-.66.36-1.11.37-.19.36.92.36.58.36.67.37-2.14.36 1.05.36.08.36-.29.36-.94h.37l.36-.25.36.59.36-.07.36-.09.37-.96.36 1.65.36.04.36-.66.36-1.83.37 2.16.36-.01.36.43.36-.67.36-.23.37.94.36.03.36-.62.36-.62.37 1.02.36.14.36-.65.36.22.36 1 .37.01.36-.39.36-.05"/><use xlink:href="#7c174__h" color="#00C853" transform="matrix(3.75 0 0 3.75 69.28 148.2)"/><use xlink:href="#7c174__h" color="#00C853" transform="matrix(3.75 0 0 3.75 220.55 52.51)"/></g><path fill="none" d="M28 75.01v87.49m343.99-87.49H28" color="#000"/></svg>