<svg xmlns="http://www.w3.org/2000/svg" xmlns:xlink="http://www.w3.org/1999/xlink" viewBox="0 0 400 200"><path fill="none" d="M0 0h400v200H0z"/><defs><path id="5eee5__b" stroke="currentColor" stroke-width=".267" d="M-1-1h2v2h-2z"/><path id="5eee5__a" stroke="currentColor" stroke-width=".267" d="m0-1.33-1.33 2h2.66z"/><path id="5eee5__f" stroke="currentColor" stroke-width=".267" d="M0 1.33 1.265.411.782-1.067l-1.564-.009-.483 1.487z"/><use xlink:href="#5eee5__a" id="5eee5__d" fill="currentColor" stroke="none"/><use xlink:href="#5eee5__b" id="5eee5__c" stroke="currentColor" transform="rotate(45)"/><use xlink:href="#5eee5__c" id="5eee5__e" fill="currentColor" stroke="none"/></defs><path fill="none" stroke="#CCC" stroke-linecap="round" stroke-linejoin="round" stroke-width=".1" d="M46.1 162.5V45.01" class="5eee5__gridline" color="#000"/><g fill="none" stroke-linecap="round" stroke-linejoin="round" stroke-width="0" color="#000"><path d="M46.1 162.5V155m0-109.99v7.5"/><text fill="#000" font-family="KaTeX_Main" font-size="8" text-anchor="middle" transform="translate(46.1 172.6)"><tspan> 1</tspan></text></g><path fill="none" stroke="#CCC" stroke-linecap="round" stroke-linejoin="round" stroke-width=".1" d="M82.31 162.5V45.01" class="5eee5__gridline" color="#000"/><g fill="none" stroke-linecap="round" stroke-linejoin="round" stroke-width="0" color="#000"><path d="M82.31 162.5V155m0-109.99v7.5"/><text fill="#000" font-family="KaTeX_Main" font-size="8" text-anchor="middle" transform="translate(82.31 172.6)"><tspan> 2</tspan></text></g><path fill="none" stroke="#CCC" stroke-linecap="round" stroke-linejoin="round" stroke-width=".1" d="M118.52 162.5V45.01" class="5eee5__gridline" color="#000"/><g fill="none" stroke-linecap="round" stroke-linejoin="round" stroke-width="0" color="#000"><path d="M118.52 162.5V155m0-109.99v7.5"/><text fill="#000" font-family="KaTeX_Main" font-size="8" text-anchor="middle" transform="translate(118.52 172.6)"><tspan> 3</tspan></text></g><path fill="none" stroke="#CCC" stroke-linecap="round" stroke-linejoin="round" stroke-width=".1" d="M154.73 162.5V45.01" class="5eee5__gridline" color="#000"/><g fill="none" stroke-linecap="round" stroke-linejoin="round" stroke-width="0" color="#000"><path d="M154.73 162.5V155m0-109.99v7.5"/><text fill="#000" font-family="KaTeX_Main" font-size="8" text-anchor="middle" transform="translate(154.73 172.6)"><tspan> 4</tspan></text></g><path fill="none" stroke="#CCC" stroke-linecap="round" stroke-linejoin="round" stroke-width=".1" d="M190.94 162.5V45.01" class="5eee5__gridline" color="#000"/><g fill="none" stroke-linecap="round" stroke-linejoin="round" stroke-width="0" color="#000"><path d="M190.94 162.5V155m0-109.99v7.5"/><text fill="#000" font-family="KaTeX_Main" font-size="8" text-anchor="middle" transform="translate(190.94 172.6)"><tspan> 5</tspan></text></g><path fill="none" stroke="#CCC" stroke-linecap="round" stroke-linejoin="round" stroke-width=".1" d="M227.15 162.5V45.01" class="5eee5__gridline" color="#000"/><g fill="none" stroke-linecap="round" stroke-linejoin="round" stroke-width="0" color="#000"><path d="M227.15 162.5V155m0-109.99v7.5"/><text fill="#000" font-family="KaTeX_Main" font-size="8" text-anchor="middle" transform="translate(227.15 172.6)"><tspan> 6</tspan></text></g><path fill="none" stroke="#CCC" stroke-linecap="round" stroke-linejoin="round" stroke-width=".1" d="M263.36 162.5V45.01" class="5eee5__gridline" color="#000"/><g fill="none" stroke-linecap="round" stroke-linejoin="round" stroke-width="0" color="#000"><path d="M263.36 162.5V155m0-109.99v7.5"/><text fill="#000" font-family="KaTeX_Main" font-size="8" text-anchor="middle" transform="translate(263.36 172.6)"><tspan> 7</tspan></text></g><path fill="none" stroke="#CCC" stroke-linecap="round" stroke-linejoin="round" stroke-width=".1" d="M299.57 162.5V45.01" class="5eee5__gridline" color="#000"/><g fill="none" stroke-linecap="round" stroke-linejoin="round" stroke-width="0" color="#000"><path d="M299.57 162.5V155m0-109.99v7.5"/><text fill="#000" font-family="KaTeX_Main" font-size="8" text-anchor="middle" transform="translate(299.57 172.6)"><tspan> 8</tspan></text></g><path fill="none" stroke="#CCC" stroke-linecap="round" stroke-linejoin="round" stroke-width=".1" d="M335.78 162.5V45.01" class="5eee5__gridline" color="#000"/><g fill="none" stroke-linecap="round" stroke-linejoin="round" stroke-width="0" color="#000"><path d="M335.78 162.5V155m0-109.99v7.5"/><text fill="#000" font-family="KaTeX_Main" font-size="8" text-anchor="middle" transform="translate(335.78 172.6)"><tspan> 9</tspan></text></g><path fill="none" stroke="#CCC" stroke-linecap="round" stroke-linejoin="round" stroke-width=".1" d="M371.99 162.5V45.01" class="5eee5__gridline" color="#000"/><g fill="none" stroke-linecap="round" stroke-linejoin="round" stroke-width="0" color="#000"><path d="M371.99 162.5V155m0-109.99v7.5"/><text fill="#000" font-family="KaTeX_Main" font-size="8" text-anchor="middle" transform="translate(371.99 172.6)"><tspan> 10</tspan></text></g><g fill="none" stroke-linecap="round" stroke-linejoin="round" stroke-width="0" color="#000"><path d="M371.99 162.5h-7.5"/><text fill="#000" font-family="KaTeX_Main" font-size="8" transform="translate(378.99 165.1)"><tspan>0.00</tspan></text></g><g fill="none" stroke-linecap="round" stroke-linejoin="round" stroke-width="0" color="#000"><path d="M371.99 142.92h-7.5"/><text fill="#000" font-family="KaTeX_Main" font-size="8" transform="translate(378.99 145.52)"><tspan>10000.00</tspan></text></g><g fill="none" stroke-linecap="round" stroke-linejoin="round" stroke-width="0" color="#000"><path d="M371.99 123.34h-7.5"/><text fill="#000" font-family="KaTeX_Main" font-size="8" transform="translate(378.99 125.94)"><tspan>20000.00</tspan></text></g><g fill="none" stroke-linecap="round" stroke-linejoin="round" stroke-width="0" color="#000"><path d="M371.99 103.75h-7.5"/><text fill="#000" font-family="KaTeX_Main" font-size="8" transform="translate(378.99 106.35)"><tspan>30000.00</tspan></text></g><g fill="none" stroke-linecap="round" stroke-linejoin="round" stroke-width="0" color="#000"><path d="M371.99 84.17h-7.5"/><text fill="#000" font-family="KaTeX_Main" font-size="8" transform="translate(378.99 86.77)"><tspan>40000.00</tspan></text></g><g fill="none" stroke-linecap="round" stroke-linejoin="round" stroke-width="0" color="#000"><path d="M371.99 64.59h-7.5"/><text fill="#000" font-family="KaTeX_Main" font-size="8" transform="translate(378.99 67.19)"><tspan>50000.00</tspan></text></g><g fill="none" stroke-linecap="round" stroke-linejoin="round" stroke-width="0" color="#000"><path d="M371.99 45.01h-7.5"/><text fill="#000" font-family="KaTeX_Main" font-size="8" transform="translate(378.99 47.61)"><tspan>60000.00</tspan></text></g><path fill="none" d="M28 45.01V162.5M371.99 45.01H28" color="#000"/><text stroke-linecap="round" stroke-linejoin="round" stroke-width="0" color="#000" font-family="KaTeX_Main" font-size="10" text-anchor="middle" transform="rotate(-90 57.63 46.13)"><tspan font-weight="bold">Maximum Path Length </tspan><tspan> / log</tspan><tspan dy="3" font-size="8">2</tspan><tspan dy="-3">(Size)</tspan></text><text stroke-linecap="round" stroke-linejoin="round" stroke-width="0" color="#000" font-family="KaTeX_Main" font-size="10" text-anchor="middle" transform="translate(199.99 195.75)"><tspan>Operations / 10</tspan><tspan dy="-5" font-size="8">6</tspan></text><text stroke-linecap="round" stroke-linejoin="round" color="#000" font-family="KaTeX_Main" font-size="8" transform="translate(132.8 10.11)"><tspan>Splay</tspan></text><g fill="none" stroke="currentColor" stroke-linecap="round" stroke-linejoin="round" color="#000"><path stroke="#29C3F6" d="M97.3 7.51h29.9M28 110.81l.36-.95.36-.95.37-.96.36-.95.36-.95.36-.95.36-.94.37-.95.36-.95.36-.94.36-.94.37-.94.36-.95.36-.93.36-.94.36-.94.37-.94.36-.93.36-.93.36-.93.36-.92.37-.92.36-.9.36-.9.36-.88.36-.85.37-.82.36-.77.36-.72.36-.65.36-.56.37-.45.36-.31.36-.17.36.02.37.22.36.46.36.7.36.97.36 1.25.37 1.55.36 1.84.36 2.13.36 2.4.36 2.67.37 2.89.36 3.08.36 3.25.36 3.36.36 3.43.37 3.45.36 3.43.36 3.36.36 3.25.37 3.11.36 2.93.36 2.73.36 2.51.36 2.28.37 2.04.36 1.79.36 1.56.36 1.33.36 1.11.37.9.36.71.36.54.36.39.36.24.37.13.36.02.36-.08.36-.15.37-.21.36-.27.36-.32.36-.35.36-.38.37-.41.36-.43.36-.44.36-.45.36-.46.37-.47.36-.48.36-.48.36-.48.36-.48.37-.49.36-.49.36-.49.36-.49.36-.49.37-.49.36-.49.36-.49.36-.49.37-.49.36-.49.36-.49.36-.49.36-.49.37-.5.36-.49.36-.49.36-.49.36-.49.37-.49.36-.49.36-.49.36-.49.36-.5.37-.49.36-.49.36-.49.36-.49.37-.49.36-.49.36-.49.36-.5.36-.49.37-.49.36-.49.36-.49.36-.49.36-.49.37-.49.36-.5.36-.49.36-.49.36-.49.37-.49.36-.49.36-.49.36-.49.36-.5.37-.49.36-.49.36-.49.36-.49.37-.49.36-.49.36-.49.36-.5.36-.49.37-.49.36-.49.36-.49.36-.49.36-.49.37-.49.36-.49.36-.5.36-.49.36-.49.37-.49.36-.49.36-.49.36-.49.37-.49.36-.5.36-.49.36-.49.36-.49.37-.49.36-.49.36-.49.36-.49.36-.5.37-.49.36-.49.36-.49.36-.49.36-.49.37-.49.36-.49.36-.5.36-.49.36-.49.37-.49.36-.49.36-.49.36-.49.37-.49.36-.5.36-.49.36-.49.36-.49.37-.49.36-.49.36-.49.36-.49.36-.49.37-.49.36-.49.36-.49.36-.49.36-.49.37-.49.36-.49.36-.48.36-.48.37-.49.36-.47.36-.48.36-.47.36-.47.37-.46.36-.45.36-.44.36-.43.36-.42.37-.4.36-.39.36-.36.36-.34.36-.31.37-.28.36-.24.36-.2.36-.15.37-.1.36-.04.36.02.36.1.36.17.37.25.36.34.36.43.36.54.36.63.37.75.36.85.36.97.36 1.09.36 1.2.37 1.31.36 1.43.36 1.54.36 1.64.36 1.75.37 1.83.36 1.92.36 2 .36 2.07.37 2.12.36 2.16.36 2.19.36 2.21.36 2.22.37 2.21.36 2.19.36 2.16.36 2.11.36 2.06.37 1.99.36 1.91.36 1.83.36 1.74.36 1.64.37 1.54.36 1.43.36 1.33.36 1.21.37 1.1.36.99.36.88.36.77.36.67.37.57.36.47.36.38.36.3.36.22.37.14.36.07h.36l.36-.05.36-.1.37-.15.36-.2.36-.24.36-.27.36-.3.37-.33.36-.35.36-.38.36-.39.37-.41.36-.42.36-.43.36-.44.36-.46.37-.45.36-.47.36-.47.36-.47.36-.48.37-.48.36-.48.36-.48.36-.49.36-.48.37-.49.36-.49.36-.49.36-.49.37-.49.36-.49.36-.49.36-.49.36-.49.37-.49.36-.49.36-.49.36-.49.36-.49.37-.49.36-.5.36-.49.36-.49.36-.49.37-.49.36-.49.36-.49.36-.49.36-.49.37-.5.36-.49.36-.49.36-.49.37-.49.36-.49.36-.49.36-.49.36-.5.37-.49.36-.49.36-.49.36-.49.36-.49.37-.49.36-.49.36-.5.36-.49.36-.49.37-.49.36-.49.36-.49.36-.49.37-.49.36-.5.36-.49.36-.49.36-.49.37-.49.36-.49.36-.49.36-.49.36-.5.37-.49.36-.49.36-.49.36-.49.36-.49.37-.49.36-.49.36-.49.36-.5.37-.49.36-.49.36-.49.36-.49.36-.49.37-.49.36-.49.36-.5.36-.49.36-.49.37-.49.36-.49.36-.49.36-.49.36-.49.37-.49.36-.49.36-.49.36-.49.36-.49.37-.49.36-.49.36-.49.36-.49.37-.49.36-.48.36-.49.36-.48.36-.48.37-.48.36-.47.36-.47.36-.47.36-.46.37-.46.36-.45.36-.44.36-.43.36-.42.37-.4.36-.4.36-.37.36-.35.37-.34.36-.3.36-.28.36-.25.36-.21.37-.17.36-.13.36-.09.36-.03.36.02.37.09.36.15.36.21.36.3.36.36.37.45.36.54.36.62.36.71.36.8.37.9.36 1 .36 1.08.36 1.19.37 1.27.36 1.37.36 1.46.36 1.53.36 1.62.37 1.69.36 1.76.36 1.81.36 1.87.36 1.91.37 1.95.36 1.96.36 1.99.36 1.99.36 1.98.37 1.97.36 1.95.36 1.91.36 1.87.37 1.81.36 1.76.36 1.69.36 1.62.36 1.54.37 1.46.36 1.37.36 1.28.36 1.19.36 1.09.37.99.36.91.36.8.36.72.36.62.37.54.36.45.36.37.36.29.37.22.36.15.36.09.36.03.36-.03.37-.08.36-.13.36-.17.36-.22.36-.24.37-.28.36-.31.36-.33.36-.35.36-.37.37-.39.36-.41.36-.42.36-.43.36-.44.37-.45.36-.45.36-.47.36-.46.37-.47.36-.48.36-.48.36-.48.36-.48.37-.48.36-.49.36-.49.36-.48.36-.49.37-.49.36-.49.36-.49.36-.49.36-.49.37-.49.36-.49.36-.49.36-.49.37-.49.36-.5.36-.49.36-.49.36-.49.37-.49.36-.49.36-.49.36-.49.36-.5.37-.49.36-.49.36-.49.36-.49.36-.49.37-.49.36-.49.36-.49.36-.5.36-.49.37-.49.36-.49.36-.49.36-.49.37-.49.36-.49.36-.5.36-.49.36-.49.37-.49.36-.49.36-.49.36-.49.36-.49.37-.5.36-.49.36-.49.36-.49.36-.49.37-.49.36-.49.36-.49.36-.5.37-.49.36-.49.36-.49.36-.49.36-.49.37-.49.36-.49.36-.5.36-.49.36-.49.37-.49.36-.49.36-.49.36-.49.36-.49.37-.49.36-.5.36-.49.36-.49.36-.49.37-.49.36-.49.36-.49.36-.49.37-.5.36-.49.36-.49.36-.49.36-.49.37-.49.36-.49.36-.49.36-.49.36-.49.37-.49.36-.48.36-.49.36-.48.36-.49.37-.48.36-.48.36-.48.36-.47.37-.47.36-.46.36-.46.36-.45.36-.45.37-.43.36-.42.36-.41.36-.4.36-.37.37-.36.36-.33.36-.3.36-.28.36-.24.37-.2.36-.16.36-.1.36-.06h.37l.36.06.36.14.36.2.36.29.37.38.36.46.36.56.36.65.36.76.37.87.36.98.36 1.08.36 1.2.36 1.31.37 1.41.36 1.53.36 1.62.36 1.73.36 1.82.37 1.9.36 1.98.36 2.04.36 2.11.37 2.14.36 2.19.36 2.2.36 2.21.36 2.21.37 2.19.36 2.17.36 2.12.36 2.07.36 2 .37 1.93.36 1.85.36 1.75.36 1.66.36 1.55.37 1.44.36 1.33.36 1.21.36 1.1.37.98.36.87.36.76.36.66.36.54.37.45.36.36.36.26.36.18.36.11.37.03.36-.03.36-.09.36-.14.36-.19.37-.24.36-.27.36-.3.36-.34.36-.36.37-.38.36-.4.36-.41.36-.43.37-.45.36-.45.36-.45.36-.47.36-.47.37-.47.36-.48.36-.48.36-.49.36-.48.37-.49.36-.48.36-.49.36-.49.36-.49.37-.49.36-.49.36-.49.36-.49.37-.49.36-.5.36-.49.36-.49.36-.49.37-.49.36-.49.36-.49.36-.49.36-.49.37-.5.36-.49.36-.49.36-.49.36-.49.37-.49.36-.49.36-.49.36-.5.36-.49.37-.49.36-.49.36-.49.36-.49.37-.49.36-.49.36-.5.36-.49.36-.49.37-.49.36-.49.36-.49.36-.49.36-.49.37-.49.36-.5.36-.49.36-.49.36-.49.37-.49.36-.49.36-.49.36-.49.37-.5.36-.49.36-.49.36-.49.36-.49.37-.49.36-.49.36-.49.36-.5.36-.49.37-.49.36-.49.36-.49.36-.49.36-.49.37-.49.36-.5.36-.49.36-.49.37-.49.36-.49.36-.49.36-.49.36-.49.37-.5.36-.49.36-.49.36-.49.36-.49.37-.49.36-.49.36-.49.36-.49.36-.5.37-.49.36-.49.36-.49.36-.49.36-.49.37-.49.36-.49.36-.5.36-.49.37-.49.36-.49.36-.49.36-.49.36-.49.37-.49.36-.5.36-.49.36-.49.36-.49.37-.49.36-.49.36-.49.36-.49.36-.49.37-.49.36-.49.36-.48.36-.49.37-.48.36-.48.36-.47.36-.47.36-.46.37-.45.36-.44.36-.43.36-.4.36-.38.37-.34.36-.31.36-.27.36-.21.36-.14.37-.06.36.04.36.14.36.26.36.41.37.56.36.75.36.93.36 1.15.37 1.38.36 1.6.36 1.86.36 2.1.36 2.35.37 2.6.36 2.82.36 3.04.36 3.22.36 3.39.37 3.51.36 3.59.36 3.63.36 3.63.36 3.57.37 3.48.36 3.35.36 3.16.36 2.96.37 2.72.36 2.46.36 2.18.36 1.91.36 1.63.37 1.36.36 1.1.36.86.36.64.36.44.37.27.36.11.36-.02.36-.12.36-.21.37-.29.36-.33.36-.38.36-.41.36-.44.37-.45.36-.47.36-.47.36-.48.37-.49.36-.49.36-.49.36-.48.36-.5.37-.49.36-.49.36-.49.36-.49.36-.49.37-.49.36-.49.36-.49.36-.5.36-.49.37-.49.36-.49.36-.49.36-.49.37-.49.36-.49.36-.5.36-.49.36-.49.37-.49.36-.49.36-.49.36-.49.36-.49.37-.49.36-.5.36-.49.36-.49.36-.49.37-.49.36-.49.36-.49.36-.49.37-.5.36-.49.36-.49.36-.49.36-.49.37-.49.36-.49.36-.49.36-.5.36-.49.37-.49.36-.49.36-.49.36-.49.36-.49.37-.49.36-.5.36-.49.36-.49.36-.49.37-.49.36-.49.36-.49.36-.49.37-.5.36-.49.36-.49.36-.49.36-.49.37-.49.36-.49.36-.49"/><use xlink:href="#5eee5__b" color="#29C3F6" transform="matrix(3.75 0 0 3.75 353.89 137.94)"/><use xlink:href="#5eee5__b" color="#29C3F6" transform="matrix(3.75 0 0 3.75 112.25 7.51)"/></g><text stroke-linecap="round" stroke-linejoin="round" stroke-width=".5" color="#000" font-family="KaTeX_Main" font-size="8" transform="translate(132.8 25.11)"><tspan>AVLBottomUp</tspan></text><g fill="none" stroke="currentColor" stroke-linecap="round" stroke-linejoin="round" stroke-width=".5" color="#000"><path stroke="#000" d="M97.3 22.51h29.9M28 162.5h343.99"/><use xlink:href="#5eee5__d" transform="matrix(3.75 0 0 3.75 67.83 162.5)"/><use xlink:href="#5eee5__d" transform="matrix(3.75 0 0 3.75 112.25 22.51)"/></g><text stroke-linecap="round" stroke-linejoin="round" color="#000" font-family="KaTeX_Main" font-size="8" transform="translate(241.1 10.11)"><tspan>LBSTRelaxed</tspan></text><g fill="none" stroke="currentColor" stroke-linecap="round" stroke-linejoin="round" color="#000"><path stroke="#FFAB00" stroke-dasharray="4.0,2.0,1.0,2.0" d="M205.6 7.51h29.9M28 162.5h343.99"/><use xlink:href="#5eee5__e" color="#FFAB00" transform="matrix(3.75 0 0 3.75 125.4 162.5)"/><use xlink:href="#5eee5__e" color="#FFAB00" transform="matrix(3.75 0 0 3.75 220.55 7.51)"/></g><text stroke-linecap="round" stroke-linejoin="round" color="#000" font-family="KaTeX_Main" font-size="8" transform="translate(241.1 25.11)"><tspan>TreapTopDown</tspan></text><g fill="none" stroke="currentColor" stroke-linecap="round" stroke-linejoin="round" color="#000"><path stroke="#00C853" stroke-dasharray="4.5,2.0,0.5,2.0,0.5,2.0" d="M205.6 22.51h29.9M28 162.5h224.5l.36-.01h60.47l.36.01h45.99l.36-.01h5.79l.37.01h5.79"/><use xlink:href="#5eee5__f" color="#00C853" transform="matrix(3.75 0 0 3.75 182.98 162.5)"/><use xlink:href="#5eee5__f" color="#00C853" transform="matrix(3.75 0 0 3.75 220.55 22.51)"/></g><path fill="none" d="M28 45.01V162.5M371.99 45.01H28" color="#000"/></svg>