<svg xmlns="http://www.w3.org/2000/svg" xmlns:xlink="http://www.w3.org/1999/xlink" viewBox="0 0 400 200"><path fill="none" d="M0 0h400v200H0z"/><defs><use xlink:href="#d7c1a__a" id="d7c1a__e" fill="currentColor" stroke="none"/><use xlink:href="#d7c1a__b" id="d7c1a__c" stroke="currentColor" transform="rotate(180)"/><use xlink:href="#d7c1a__c" id="d7c1a__d" fill="currentColor" stroke="none"/><path id="d7c1a__f" stroke="currentColor" stroke-width=".267" d="M-1 0h2M0-1v2"/><path id="d7c1a__b" stroke="currentColor" stroke-width=".267" d="m0-1.33-1.33 2h2.66z"/><circle id="d7c1a__a" cx="0" cy="0" r="1" stroke="currentColor" stroke-width=".267"/></defs><path fill="none" stroke="#999" stroke-linecap="round" stroke-linejoin="round" stroke-width=".1" d="M46.1 162.5V45.01" class="d7c1a__d992e__d7c1a__gridline" color="#000"/><g fill="none" stroke-linecap="round" stroke-linejoin="round" stroke-width="0" color="#000"><path d="M46.1 162.5V155m0-109.99v7.5"/><text fill="#000" font-family="KaTeX_Main" font-size="8" text-anchor="middle" transform="translate(46.1 172.6)"><tspan> 1</tspan></text></g><path fill="none" stroke="#999" stroke-linecap="round" stroke-linejoin="round" stroke-width=".1" d="M82.31 162.5V45.01" class="d7c1a__d992e__d7c1a__gridline" color="#000"/><g fill="none" stroke-linecap="round" stroke-linejoin="round" stroke-width="0" color="#000"><path d="M82.31 162.5V155m0-109.99v7.5"/><text fill="#000" font-family="KaTeX_Main" font-size="8" text-anchor="middle" transform="translate(82.31 172.6)"><tspan> 2</tspan></text></g><path fill="none" stroke="#999" stroke-linecap="round" stroke-linejoin="round" stroke-width=".1" d="M118.52 162.5V45.01" class="d7c1a__d992e__d7c1a__gridline" color="#000"/><g fill="none" stroke-linecap="round" stroke-linejoin="round" stroke-width="0" color="#000"><path d="M118.52 162.5V155m0-109.99v7.5"/><text fill="#000" font-family="KaTeX_Main" font-size="8" text-anchor="middle" transform="translate(118.52 172.6)"><tspan> 3</tspan></text></g><path fill="none" stroke="#999" stroke-linecap="round" stroke-linejoin="round" stroke-width=".1" d="M154.73 162.5V45.01" class="d7c1a__d992e__d7c1a__gridline" color="#000"/><g fill="none" stroke-linecap="round" stroke-linejoin="round" stroke-width="0" color="#000"><path d="M154.73 162.5V155m0-109.99v7.5"/><text fill="#000" font-family="KaTeX_Main" font-size="8" text-anchor="middle" transform="translate(154.73 172.6)"><tspan> 4</tspan></text></g><path fill="none" stroke="#999" stroke-linecap="round" stroke-linejoin="round" stroke-width=".1" d="M190.94 162.5V45.01" class="d7c1a__d992e__d7c1a__gridline" color="#000"/><g fill="none" stroke-linecap="round" stroke-linejoin="round" stroke-width="0" color="#000"><path d="M190.94 162.5V155m0-109.99v7.5"/><text fill="#000" font-family="KaTeX_Main" font-size="8" text-anchor="middle" transform="translate(190.94 172.6)"><tspan> 5</tspan></text></g><path fill="none" stroke="#999" stroke-linecap="round" stroke-linejoin="round" stroke-width=".1" d="M227.15 162.5V45.01" class="d7c1a__d992e__d7c1a__gridline" color="#000"/><g fill="none" stroke-linecap="round" stroke-linejoin="round" stroke-width="0" color="#000"><path d="M227.15 162.5V155m0-109.99v7.5"/><text fill="#000" font-family="KaTeX_Main" font-size="8" text-anchor="middle" transform="translate(227.15 172.6)"><tspan> 6</tspan></text></g><path fill="none" stroke="#999" stroke-linecap="round" stroke-linejoin="round" stroke-width=".1" d="M263.36 162.5V45.01" class="d7c1a__d992e__d7c1a__gridline" color="#000"/><g fill="none" stroke-linecap="round" stroke-linejoin="round" stroke-width="0" color="#000"><path d="M263.36 162.5V155m0-109.99v7.5"/><text fill="#000" font-family="KaTeX_Main" font-size="8" text-anchor="middle" transform="translate(263.36 172.6)"><tspan> 7</tspan></text></g><path fill="none" stroke="#999" stroke-linecap="round" stroke-linejoin="round" stroke-width=".1" d="M299.57 162.5V45.01" class="d7c1a__d992e__d7c1a__gridline" color="#000"/><g fill="none" stroke-linecap="round" stroke-linejoin="round" stroke-width="0" color="#000"><path d="M299.57 162.5V155m0-109.99v7.5"/><text fill="#000" font-family="KaTeX_Main" font-size="8" text-anchor="middle" transform="translate(299.57 172.6)"><tspan> 8</tspan></text></g><path fill="none" stroke="#999" stroke-linecap="round" stroke-linejoin="round" stroke-width=".1" d="M335.78 162.5V45.01" class="d7c1a__d992e__d7c1a__gridline" color="#000"/><g fill="none" stroke-linecap="round" stroke-linejoin="round" stroke-width="0" color="#000"><path d="M335.78 162.5V155m0-109.99v7.5"/><text fill="#000" font-family="KaTeX_Main" font-size="8" text-anchor="middle" transform="translate(335.78 172.6)"><tspan> 9</tspan></text></g><path fill="none" stroke="#999" stroke-linecap="round" stroke-linejoin="round" stroke-width=".1" d="M371.99 162.5V45.01" class="d7c1a__d992e__d7c1a__gridline" color="#000"/><g fill="none" stroke-linecap="round" stroke-linejoin="round" stroke-width="0" color="#000"><path d="M371.99 162.5V155m0-109.99v7.5"/><text fill="#000" font-family="KaTeX_Main" font-size="8" text-anchor="middle" transform="translate(371.99 172.6)"><tspan> 10</tspan></text></g><g fill="none" stroke-linecap="round" stroke-linejoin="round" stroke-width="0" color="#000"><path d="M371.99 162.5h-7.5"/><text fill="#000" font-family="KaTeX_Main" font-size="8" transform="translate(378.99 165.1)"><tspan>0.20</tspan></text></g><g fill="none" stroke-linecap="round" stroke-linejoin="round" stroke-width="0" color="#000"><path d="M371.99 145.72h-7.5"/><text fill="#000" font-family="KaTeX_Main" font-size="8" transform="translate(378.99 148.32)"><tspan>0.30</tspan></text></g><g fill="none" stroke-linecap="round" stroke-linejoin="round" stroke-width="0" color="#000"><path d="M371.99 128.93h-7.5"/><text fill="#000" font-family="KaTeX_Main" font-size="8" transform="translate(378.99 131.53)"><tspan>0.40</tspan></text></g><g fill="none" stroke-linecap="round" stroke-linejoin="round" stroke-width="0" color="#000"><path d="M371.99 112.15h-7.5"/><text fill="#000" font-family="KaTeX_Main" font-size="8" transform="translate(378.99 114.75)"><tspan>0.50</tspan></text></g><g fill="none" stroke-linecap="round" stroke-linejoin="round" stroke-width="0" color="#000"><path d="M371.99 95.36h-7.5"/><text fill="#000" font-family="KaTeX_Main" font-size="8" transform="translate(378.99 97.96)"><tspan>0.60</tspan></text></g><g fill="none" stroke-linecap="round" stroke-linejoin="round" stroke-width="0" color="#000"><path d="M371.99 78.58h-7.5"/><text fill="#000" font-family="KaTeX_Main" font-size="8" transform="translate(378.99 81.18)"><tspan>0.70</tspan></text></g><g fill="none" stroke-linecap="round" stroke-linejoin="round" stroke-width="0" color="#000"><path d="M371.99 61.79h-7.5"/><text fill="#000" font-family="KaTeX_Main" font-size="8" transform="translate(378.99 64.39)"><tspan>0.80</tspan></text></g><g fill="none" stroke-linecap="round" stroke-linejoin="round" stroke-width="0" color="#000"><path d="M371.99 45.01h-7.5"/><text fill="#000" font-family="KaTeX_Main" font-size="8" transform="translate(378.99 47.61)"><tspan>0.90</tspan></text></g><path fill="none" d="M28 45.01V162.5M371.99 45.01H28" color="#000"/><text stroke-linecap="round" stroke-linejoin="round" stroke-width="0" color="#000" font-family="KaTeX_Main" font-size="10" text-anchor="middle" transform="rotate(-90 57.63 46.13)"><tspan font-weight="bold">Rotations</tspan><tspan> / Operations</tspan></text><text stroke-linecap="round" stroke-linejoin="round" stroke-width="0" color="#000" font-family="KaTeX_Main" font-size="10" text-anchor="middle" transform="translate(199.99 195.75)"><tspan>Operations / 10</tspan><tspan dy="-5" font-size="8">6</tspan></text><text stroke-linecap="round" stroke-linejoin="round" color="#000" font-family="KaTeX_Main" font-size="8" transform="translate(104.8 10.11)"><tspan>AVLTopDown</tspan></text><g fill="none" stroke="currentColor" stroke-linecap="round" stroke-linejoin="round" color="#000"><path stroke="#29C3F6" stroke-dasharray="1.0,2.0" d="M69.3 7.51h29.9M28 60.35l.36-.94.36-.39.37 1.68.36-2.5.36 1.58.36.65.36-1.47.37.27.36.65h.36l.36.1.37-1.06.36.02.36-.05.36 1.49.36-.89.37 2.87.36.16.36-.32.36 1.52.36-1.04.37 1.51.36-4.02.36 3.59.36-.04.36-1.15.37.6.36-1.33.36 2.39.36-3.24.36 3.64.37-2.55.36 1.91.36-2.2.36-.06.37-1.63.36 1.98.36-.19.36 3.06.36-1.95.37 1.75.36-1.63.36-1.49.36-1.92.36 4.2.37-.57.36.03.36 1.48.36-3.84.36 1.22.37 30.8.36-2.05.36.39.36.77.37-.77.36.94.36-1.63.36 2.99.36-1.56.37 1.04.36-.74.36.3.36-1.29.36-.37.37 3.07.36-3.17.36-.12.36 1.73h.36l.37.72.36-1.71.36.17.36 1.19.37-.4.36 1 .36-1.99.36 1.2.36-.62.37.52.36-.82.36.19.36-.91.36.15.37.35.36 1.83.36-1.36.36-.89.36.44.37-.24.36-.57.36.41.36 1.32.36-1.05.37 1.66.36-2.57.36.89.36-.79.37 1.19.36-.27.36 2.37.36-2.13.36.07.37-1.28.36.15.36 1.6.36-.04.36 1.23.37-1.7.36 1.33.36.27.36-2.1.36-.4.37-1.5.36 3.44.36-1.12.36-1.18.37 1.31.36.39.36-2.37.36 1.08.36-.71.37.55.36 1.26.36 1.36.36-2.36.36-.52.37.57.36-.19.36 1.43.36-1.18.36 1.16.37-1.84.36 1.76.36-2.5.36 3.61.36-2.15.37.9.36-1.57.36 1.07.36-1.98.37 1.98.36.74.36-.44.36.47.36-2.36.37 3.18.36-2.31.36.96.36-.79.36 1.29.37-.35.36-1.72.36 1.35.36.99.36-.91.37 2.33.36-1.31.36-.01.36.48.37-.35.36-1.32.36 1.36.36-1.8.36 1.51.37.24.36-1.01.36.22.36-1.31.36 1.34.37-.62.36-.52.36 2.16.36-.37.36-1.62.37.32.36 1.66.36 1.16.36-2.12.36.2.37-.28.36.82.36-.84.36-.52.37-.17.36.79.36-1.86.36 2.18.36.6.37-2.5.36.91.36.32.36-.39.36.24.37-.47.36-.49.36.13.36-.25.36 2.52.37-1.68.36.91.36.7.36.12.37-.74.36.27.36-.12.36.15.36.09.37-1.33.36 2 .36-1.23.36.07.36-.4.37-1.39.36.35.36.52.36 1.31.36-.15.37-1.23.36.19.36.8.36-.85.37 1.83.36-.56.36-.94.36-1.14.36-.74.37 4.28.36-2.3.36-.45.36.92.36-1.26.37.69.36-.75.36.72.36.42.36.17.37-.71.36-.79.36.49.36 2.8.36-2.13.37.96.36-.36.36.14.36-.17.37-1.63.36.64.36-.47.36 2.9.36-.79.37-1.56.36.36.36-.47.36.48.36 1.8.37-1.6.36-.43.36.75.36-1.47.36 1.37.37-.4.36-.05.36 1.63.36-3.71.37.4.36 2.23.36.41.36-1.03.36-.1.37 1.63.36-1.56.36-.56.36-.73.36 2.2.37-2.24.36 1.95.36.77.36.42.36-2.37.37 2.51.36-.99.36.45.36-1.46.36-.89.37-.79.36 2.22.36.67.36.11.37-.2.36-.45.36-3.52.36 2.76.36 1.75.37.17.36-1.01.36-2.23.36 1.95.36-.69.37 1.31.36-.99.36-.57.36-.64.36.92.37.59.36-1.28.36 1.08.36 1.04.37-.71.36-.67.36-.99.36 1.95.36-.79.37-.97.36-.12.36 1.48.36-.31.36-.18.37-2.02.36.61.36 2.1.36-1.78.36 1.86.37.97.36-2.83h.36l.36 1.11.36-.09.37.64.36-.81.36.81.36-1.68.37-.44.36 1.7.36.99.36.84.36-3.79.37.87.36 1.39.36.57.36-.85.36 1.51.37-1.06.36-.76.36.42.36.89.36-.84.37-1.77.36 3.12.36-1.55.36-2.08.37 3.49.36-2.58.36.13.36-.15.36 2.59.37.03.36-1.49.36-.69.36 1.21.36.28.37-1.83.36.25.36 1.65.36-2 .36 1.83.37-1.33.36 1.2.36-.41.36.59.37.81.36-3.11.36 2.23.36-.97.36-.13.37.25.36.92.36-1.41.36.5.36.07.37-.3.36.15.36-1.02.36.3.36.97.37 1.19.36-2.09.36.52.36.84.36-.44.37-2.69.36 4.2.36-1.85.36.67.37.68.36.18.36-1.24.36-.81.36.61.37.55.36-.25.36.6.36-2.25.36 3.28.37-.57.36-2.65.36 1.07.36 1.46.36-3.29.37 1.04.36 1.01.36-1.31.36 1.12.37-.18.36 1.61.36-.66.36-1.34.36.91.37 1.24.36.34.36-3.7.36 2.55.36-3.07.37 1.7.36 1.63.36-2.47.36 3.99.36-2.26.37-1.51.36 1.14.36 1.36.36-.25.36-.73.37-1.69.36 2.75.36-.94.36-.37.37-.87.36.62.36-.79.36 3.8.36-1.36.37.15.36-.74.36 1.26.36-2.67.36 2.85.37-2.43.36 1.16.36 1.31.36-1.8.36.02.37-.71.36 1.61.36-1.46.36.29.37.77.36.47.36.08.36 1.7.36-2.12.37-2.58.36-.08.36 2.24.36 1 .36 1.56.37-4.28.36 2.25.36-1.3.36.34.36-1.09.37.79.36-.21.36.56.36-.54.37 1.01.36-1.04.36-.3.36 1.07.36-1.75.37 1.85.36.99h.36l.36-1.11.36-.32.37-.72.36.05.36.81h.36l.36 2.15.37-3.24.36 2.26.36-.89.36-.35.36.51.37-2.74.36-.42.36 2.35.36 1.86.37-.55.36-1.38.36-1.21.36 1.09.36-.28.37-.71.36.91.36.59.36 1.32.36-1.27.37-.44.36-1.07.36.52.36 3.2.36-2.41.37-.25.36 1.51.36-2.12.36 2.79.37-1.48.36 1.19.36-2.3.36 1.24.36-1.76.37 1.93.36-.45.36-.77.36 2.53.36-2.85.37 2.38.36-1.51.36-.03.36 2.21.36-3.27.37 1.93.36-1.56.36 1.91.36.37.36-2.05.37 2.24.36-1.9.36.12.36.38.37.36.36-1.63.36 2.99.36-1.53.36 1.14.37-2.84.36 2.13.36-1.71.36-.2.36.22.37 2.2.36-.89.36-1.81.36.11.36 1.67.37-.71.36-1.07.36 1.98.36.03.37.44.36-.42.36-.34.36.03.36 2.12.37-2.23.36-.19.36.51.36 1.66.36-1.04.37-1.09.36-.05.36-1.48.36 1.81.36.04.37-.59.36-.19.36-.58.36-.37.36 3.2.37-4.56.36 4.06.36-.92.36.7.37-1.16.36-2.85.36 2.1.36 1.12.36-1.29.37.08.36.07.36 3.49.36-4.09.36 1.37.37.3.36-2.09.36.62.36.42.36-.3.37.31.36 2.15.36-1.39.36-1.06.37 2.1.36-1.02.36-.88.36 2.54.36-2.37.37 1.01.36.27.36-.27.36-.29.36 1.24.37-.45.36-1.86.36 1.59.36.31.36-1.67.37.2.36-.25.36 1.06.36-1.09.37 1.14.36-.08.36-2.42.36 2 .36 1.56.37-1.26.36 1.01.36-.99.36.21.36-.36.37-.69.36 1.73.36-.41.36-1.59.36 1.58.37-1.9.36 1.41.36.65.36-.73.36-1.65.37.67.36 2.39.36-2.4.36-1.45.37 2.75.36-1.42.36.72.36 1.33.36.16.37.76.36-1.65.36.29.36-1.11.36.89.37-2.01.36 1.32.36 1.9.36-.19.36-2.61.37 1.88.36-2.1.36.1.36 2.21.37-.03.36-2.5.36 3.39.36-3.31.36 3.46.37-2.8.36.22.36.55.36-.37.36.79.37-1.24.36 1.16.36.37.36.42.36-2.25.37 1.76.36.3.36-.25.36-1.71.36.27.37 1.82.36.54.36-1.41.36.96.37.1.36-1.28.36 1.88.36-2.45.36.34.37-1.14.36.28.36 2.03.36-.05.36-.8.37-1.06.36-.57.36 1.33.36.48.36.81.37-1.9.36.57.36 1.98.36-1.26.37.15.36-1.54.36-1.11.36 2.12.36-.57.37-.12.36 1.93.36-1.61.36-1.09.36-2.3.37 4.38.36 1.43.36-.89.36-.52.36.42.37-1.01.36-.07.36-.72.36 2.7.36-1.39.37-1.93.36 2.6.36-1.06.36.05.37-.53.36.83.36-2.23.36.88.36 2.6.37-.98.36-.48.36-.78.36-.31.36.87.37-.25.36-.1.36 1.42.36-1.46.36 2.1.37-1.34.36-1.7.36.46.36-.05.37-.94.36.38.36.96.36.67.36 1.06.37 1.78.36-3.11.36-1.24.36 2.18.36-1.26.37-1.19.36.97.36.17.36 1.28.36-2.72.37 2.68.36-2.56.36.9.36.99.37-1.26.36.44.36-.12.36.66.36 1.07.37 1.24.36-3.42.36 2.53.36-.15.36-.42.37-.08.36-1.31.36.18.36.54.36-.08.37-.98.36 1.93.36-.06.36-.36.36-1.19.37 1.4.36 1.29.36-.27.36-3.07.37 1.63.36.38.36-.17.36.86.36-1.39.37.42.36.33.36-.45.36.42.36-2.69.37 2.22.36.79.36-1.83.36 1.54.36-.42.37-.45.36 1.91.36-2.41.36 1.42.37 2.45.36-2.33.36-1.01.36-.05.36 2.5.37-1.2.36-.19.36-1.91.36 2.43.36-2.06.37-.12.36 2.74.36-2.62.36 2.23.36-1.8.37-3.02.36 3.22.36.83.36-.25.36-1.26h.37l.36.79.36-.41.36-.1.37 1.9.36-1.18.36-.72.36-.1.36-.43.37-.09.36-1.51.36 2.97.36-2.35.36 2.35.37 1.34.36-1.44.36-.39.36-.55.36 1.53.37.01.36-1.52.36 2.16.36-2.98.37.23.36 1.04.36.3.36-.32.36 2.4.37.17.36-1.46.36-1.14.36-1.43.36 2.89.37-1.09.36-.3.36-1.03.36 1.55.36.18.37-1.76.36-.15.36-.34.36 1.19.36.34.37 1.24.36-1.56.36-.27.36 3.46.37-3.31.36-.15.36 1.65.36-.89.36.82.37-.69.36.27.36-.77.36.15.36.1.37.66.36-.42.36.72.36.4.36-1.36.37 1.21.36-1.14.36.01.36.54.37.49.36-.37.36-1.75.36 3.26.36-2.58.37.38.36.59.36.99.36-1.51.36.1.37.87.36-1.17.36.27.36.36.36-.26.37-.15.36.94.36-.34.36.05.37 1.38.36-2.44.36.37.36.81.36-.64.37.23.36-.99.36 1.62.36-.68.36-.92.37-1.06.36 2.25.36-1.04.36.64.36-.45.37-.15.36.72.36.53.36-.35.36-.28.37-.42.36-1.66.36 2.13.36.74.37.16.36-1.1.36.25.36.18.36.02.37-.25.36.43.36.99"/><use xlink:href="#d7c1a__d" color="#29C3F6" transform="matrix(3.75 0 0 3.75 354.25 92.51)"/><use xlink:href="#d7c1a__d" color="#29C3F6" transform="matrix(3.75 0 0 3.75 84.25 7.51)"/></g><text stroke-linecap="round" stroke-linejoin="round" color="#000" font-family="KaTeX_Main" font-size="8" transform="translate(104.8 25.11)"><tspan>AVLRelaxedTopDown</tspan></text><g fill="none" stroke="currentColor" stroke-linecap="round" stroke-linejoin="round" color="#000"><path stroke="#9F650D" stroke-dasharray="4.5,2.0,0.5,2.0,0.5,2.0" d="M69.3 22.51h29.9M28 54.58l.36.85.36-.95.37.58.36-3.03.36 2.33.36.59.36-2.96.37 1.33.36 1.16.36-2.39.36 1.61.37.81.36-3.12.36.7.36 2.59.36-1.61.37 4.44.36-1.59.36.23.36 2.47.36-1.68.37-.55.36.23.36.59.36 1.28.36-.84.37 2.03.36-4.65.36 2.67.36-1.9.36 2.27.37.35.36-.77.36-1.33.36.39.37-2.89.36 2.28.36-.06.36 3.34.36-1.82.37 2.14.36-3.24.36-2.22.36 1.36.36 2.59.37-1.53.36-.24.36 2.15.36-2.63.36-.1.37 68.95.36.68.36 1.06.36.61.37-2.12.36 1.43.36-.66.36 1.16.36-.54.37.91.36.13.36-1.69.36-.27.36.59.37-.09.36-.45.36-.1.36 1.58.36 1.07.37-1.29.36-1.21.36.94.36 1.08.37-1.33.36 2.05.36-2.49.36 1.8.36-.72.37.89.36-2 .36 1.49.36-1.56.36.77.37.17.36-.1.36-.25.36-.15.36 1.21.37-1.24.36.18.36-2.13.36 2.87.36-1.86.37 1.64.36-1.12.36-.22.36-.41.37.61.36.64.36.89.36-1.48.36.15.37.02.36.3.36.77.36.17.36.23.37-1.24.36.61.36.87.36-2.3.36.55.37-.21.36 2.29.36-1.71.36.39.37-.02.36-.7.36-1.33.36 1.38.36-.24.37-.52.36 1.8.36-.52.36 1.12.36-2 .37.04.36.9.36 1.01.36-2.47.36 1.7.37-1.53.36 1.21.36-1.76.36 2.26.36.22.37.07.36-1.61.36.89.36-2.79.37 2.39.36 1.59.36-1.26.36.39.36-.17.37.72.36-1.63.36-.18.36-.64.36 2.22.37-1.58.36.48.36-.82.36 1.87.36.18.37.71.36-1.82.36.52.36-.18.37-.67.36-.1.36-.07.36.1.36.55.37-.32.36.42.36.64.36-1.59.36.77.37-.02.36-.35.36-.35.36 2.16.36-1.71.37.4.36.71.36.77.36-1.38.36.41.37.27.36 1.57.36-1.69.36-1.26.37.74.36.42.36-1.82.36 1.05.36.31.37-.63.36-.44.36 2.05.36-1.18.36-.63.37 1.2.36-2.35.36 1.38.36.27.36 1.44.37-1.76.36 1.33.36-.19.36.64.37-.64.36.59.36-1.75.36 1.14.36-.06.37-1.18.36 1.75.36-.98.36-.18.36.76.37-.51.36-.08.36-1.19.36 2.43.36-1.85.37-.06.36 1.37.36-.37.36.19.37.57.36.4.36-1.59.36-.88.36.22.37 2.27.36-2.18.36.55.36.08.36-.25.37.14.36.01.36-1.94.36 2.55.36.94.37-1.65.36.05.36-.11.36 2.04.36-1.29.37-.18.36.94.36-.89.36-.44.37-.84.36-1.73.36 3.02.36.69.36.57.37-2.78.36 2.18.36-2.39.36 1.55.36.02.37 1.19.36-.98.36 1.25.36-2.45.36 2.03.37-.91.36-1.06.36 1.66.36-2.08.37.24.36.99.36.32.36-.57.36-.68.37 2.35.36-1.09.36-1.31.36.91.36.29.37-1.26.36.08.36 2.07.36-.29.36-1.75.37 2.57.36-1.59.36 1.44.36-1.44.36-.59.37.02.36 1.21.36-.68.36.76.37.54.36-2.72.36-.25.36 1.17.36 1.34.37-.62.36-.84.36-.97.36 1.58.36.15.37.69.36-.54.36-.29.36-.95.36 1.31.37-.05.36-.64.36.86.36-.34.37-1.85.36 2.71.36-2.56.36 2.3.36-.05.37-.95.36-.73.36.84.36 1.43.36-2.79.37-.94.36 2.09.36.53.36-.75.36.1.37-.09.36-.47.36.59.36.54.36-.52.37 1.06.36-1.6.36.54.36-.05.37.13.36.02.36.27.36-.94.36.07.37-.19.36.59.36.87.36-.08.36.4.37.5.36-1.76.36.25.36 1.3.36-1.52.37-.82.36 1.36.36.64.36-1.46.37 1.73.36-1.9.36-.18.36-.54.36 1.17.37.88.36-1.33.36.19.36 1 .36-.45.37-.86.36.21.36 1.37.36-1.34.36 1.56.37-.5.36-.21.36-.25.36 1.21.37-.12.36-2.33.36.67.36-.85.36 1.22.37 1.58.36-.39.36-2.9.36 2.63.36-.8.37-.19.36.56.36.2.36-2.1.36 1.76.37 1.18.36-2.79.36 1.03.36-.19.36.67.37-.48.36.6.36-.23.36-.22.37-.39.36 1.36.36-.57h.36l.36 1.13.37-1.38.36-1.23.36 2.82.36-2.82.36 1.21.37.15.36-.57.36.04.36 1.19.36-1.76.37.31.36.83.36-1.63.36.49.37.92.36 1.48.36-2.15.36 1.04.36-.51.37-.18.36 1.54.36-2.46.36.87.36-.59.37 2.08.36-.97.36-.35.36 2.6.36-1.9.37-1.36.36.96.36.94.36.5.36-1.11.37-1.29.36 1.75.36.33.36-.16.37-1.35.36-.2.36-.13.36 2.3.36-.81.37-.12.36-.6.36.17.36-2.34.36 4.4.37-2.7.36-.52.36 2.32.36-1.41.36-.05.37-.46.36 1.45.36-.74.36 1.14.37-1.11.36 1.33.36-.42.36-.04.36-.99.37-.55.36-.49.36.1.36 2.15.36-.03.37-2.3.36 1.84.36-1.09.36.89.36-.11.37.5.36-1.96.36 1.61.36.37.37-1.85.36 1.24.36-1.32.36 1.25.36-.5.37.5.36-.52.36 1.7.36-1.02.36-.12.37.07.36-.51.36-.07.36-.67.36 1.67.37-2.07.36 2.94.36-2.02.36 1.03.36.77.37-1.48.36-2.35.36 1.65.36 1.74.37-.65.36-.69.36-.55.36.27.36-.14.37.12.36-.37.36 1.02.36-.55.36.74.37-.25.36-.21.36.14.36 1.12.36.32.37-1.11.36 1.48.36-2.77.36 1.97.37.01.36-.22.36-.33.36.27.36-.29.37-.54.36.51.36.37.36 1.17.36-1.05.37.6.36-.07.36-1.12.36.22.36.01.37-.4.36-.55.36 1.59.36.92.36-2.73.37 1.36.36-1.5.36 1.16.36-.12.37.89.36-2.13.36 3.12.36-2.85.36.64.37-.39.36 2.44.36-2.12.36.05.36.19.37 1.41.36-1.23.36-.7.36-.36.36-.92.37.94.36.32.36.86.36.38.37-.25.36-.08.36.33.36.03.36-.58.37-.02.36-2.06.36 2.66.36-.87.36.64.37-.22.36-.23.36-.86.36.1.36 1.46.37-.32.36.04.36-1.2.36-.25.36 2.71.37-3.75.36 3.04.36-.42.36-.12.37-.69.36-.57.36.05.36-.16.36 1.64.37-.75.36-.31.36 2.3.36-3.05.36-.3.37 1.21.36-.36.36-.75.36-.3.36.53.37 2.25.36.44.36-1.4.36-.21.37.08.36-.37.36-1.37.36.95.36.98.37-.78.36.74.36.56.36.13.36.17.37.32.36-.2.36-1 .36.91.36-1.68.37-.23.36.84.36.2.36-1.41.37 2.65.36-1.68.36-1.63.36 1.3.36 1.47.37.47.36-.97.36.25.36-.84.36-.43.37.28.36 1.46.36-.35.36-.4.36.08.37-2.58.36 2.03.36 1.56.36-.98.36-1.89.37 2.25.36.47.36-2.47.36-.3.37 1.27.36.66.36.89.36-.46.36-.15.37.74.36-1.41.36-.75.36.52.36-1.35.37.24.36 2.63.36-1.15.36-.31.36.52.37-.18.36-1.7.36 1.23.36 1.11.37-1.5.36.46.36.28.36-2.16.36 3.24.37-1.31.36 1.09.36.22.36-2.24.36.71.37-.14.36 1.09.36-.85.36.89.36-1.24.37.05.36.32.36-.22.36-.41.36.09.37.59.36 1.24.36-1.85.36 1.55.37.37.36-2.99.36 3.62.36-2.57.36.37.37.52.36-1.71.36 1.38.36.6.36-.43.37-.71.36-.67.36 1.12.36 1.3.36-.17.37-2.1.36 2.49.36-.27.36-1.58.37.57.36.57.36-.79.36-1.06.36 1.43.37.08.36.46.36.08.36-1.27.36-.69.37.6.36.54.36.05.36.12.36 1.02.37-1.64.36.87.36-1.29.36 2.73.36-.45.37-3.34.36 1.93.36.03.36-.35.37.54.36-.72.36-2.12.36 1.98.36 2.72.37-1.02.36-1.78.36 1.51.36-.81.36.67.37-2.04.36 1.62.36.42.36-.67.36.62.37.19.36-1.08.36-.05.36-1.05.37.28.36-.12.36 1.1.36.28.36 1.06.37.42.36-1.55.36.69.36-2.08.36.94.37-.29.36-.11.36.72.36 1.06.36-2 .37 1.56.36-1.88.36-.22.36 3.39.37-1.73.36-1.07.36.08.36 1.01.36.77.37.15.36-1.71.36 1.65.36-.83.36.79.37-.53.36-1.6.36 1.23.36 1.36.36-1.01.37-.86.36 1.61.36-1.76.36 1.87.36-1.5.37 1.55.36.31.36-.9.36-1.26.37.77.36-.96.36.19.36.62.36.94.37-1.86.36.58.36-.43.36.54.36-.22.37 1.31.36-.31.36.17.36-1.07.36-.29.37 1.19.36.09.36-1.45.36 1.21.37.89.36-.35.36-.55.36.03.36.69.37-1.53.36.2.36-1.31.36 1.93.36-.16.37-.64.36.84.36-.26.36 1.08.36-.47.37-2.75.36 1.59.36.5.36.27.36-.58.37.58.36-.94.36-.11.36.9.37 1.11.36-1.63.36.52.36-.8.36-.17.37-.3.36-.14.36 2.18.36-1.54.36 1.88.37.97.36-2.48.36-1.53.36 1.85.36-.66.37.86.36-1.61.36 2.35.36-1.26.37-1.01.36.77.36.76.36.34.36 2.06.37-2.23.36.35.36-1.88h.36l.36 2.4.37-.76.36-.57.36-1.1.36 1.15.36-.25.37.17.36.07.36-.05.36-.66.36.67.37.26.36.18.36-.59.36.17.37-.62.36-.15.36 1.54.36-.53.36.3.37-.52.36-.27.36.97.36-.75.36-.12.37.54.36 1.14.36-2.62.36.81.36-1.85.37 3.26.36-2.51.36 1.48.36 1.31.37-.35.36-.19.36-1.88.36 1.28.36-1.71.37 1.29.36 1.98.36-1.54.36-.24.36-1.9.37 3.19.36-.87.36-1.27.36-.39.36 3.44.37-1.43.36.17.36-1.36.36 1.26.37 1.29.36-3.22.36 1.41.36-.07.36-1.02.37.03.36 1.6.36.75.36-1.09.36-.1.37-.75.36 1.47.36-1.02.36.13.36.02.37-.47.36 1.64.36-.6.36-1.04.36-.81.37.51.36.27.36 1.51.36-.49.37-.94.36.35.36-1.37.36 1.31.36.4.37-1.6.36 1.18.36-1.08"/><use xlink:href="#d7c1a__c" color="#9F650D" transform="matrix(3.75 0 0 3.75 67.83 127.64)"/><use xlink:href="#d7c1a__c" color="#9F650D" transform="matrix(3.75 0 0 3.75 84.25 22.51)"/></g><text stroke-linecap="round" stroke-linejoin="round" color="#000" font-family="KaTeX_Main" font-size="8" transform="translate(241.1 10.11)"><tspan>LBSTTopDown</tspan></text><g fill="none" stroke="currentColor" stroke-linecap="round" stroke-linejoin="round" color="#000"><path stroke="#F44336" stroke-dasharray="4.5,2.0,0.5,2.0,0.5,2.0" d="M205.6 7.51h29.9M28 112.47l.36 6.56.36-1.75.37.46.36-1.18.36 1.08.36-1.51.36 2.19.37-.52.36-.99.36.83.36.26.37-1.52.36.1.36 1.02.36 1.18.36-.49.37-.12.36-.07.36-.28.36 1.02.36.24.37-1.16.36-.69.36 2 .36-1.21.36.55.37 1.2.36-1.7.36.59.36-.22.36.55.37-1.81.36 1.66.36-.58.36-.31.37-.35.36 1.34.36-.33.36 3.1.36-2.78.37-.56.36.46.36-.27.36-1.56.36 1.29.37.64.36-.29.36-.52.36-.97.36 1.24.37 20.71.36-1.94.36 1.37.36-.15.37-.97.36.1.36-.14.36-.15.36.57.37-.99.36.04.36.87.36-1.16.36.91.37-.15.36.06.36.71.36-.57.36-.56.37.73.36-.19.36-1.26.36.98.37.53.36-.52.36.07.36.87.36-1.98.37-.45.36.9.36-.57.36.22.36-.2.37.74.36 1.29.36-1.01.36-1.32.36 1.81.37-.54.36 1.13.36-.94.36-.02.36.52.37-1.19.36-.67.36 1.44.36-.47.37-.08.36.12.36-.49.36.25.36.61.37-.59.36.65.36-.67.36.22.36.25.37-1.36.36 1.21.36-.37.36-1.71.36 1.81.37-.5.36 1.24.36.07.36-1.24.37.65.36.94.36-1.76.36.35.36.59.37.18.36-.12.36-1.39.36 1.06.36-.27.37-1.12.36 1.71.36-.64.36.3.36-.12.37-.41.36.82.36-1.8.36 1.86.36-.23.37-.99.36.7.36.61.36.05.37-.37.36-1.16.36 1.36.36-.02.36-.11.37.35.36-.89.36-.35.36.67h.36l.37-.39h.36l.36.29.36-.19.36-.62.37 1.65.36-.41.36.09.36-1.18.37.62.36.44.36-.12.36.09.36-1.09.37.03.36.72.36.05.36-.18.36-.62.37-.74.36 1.61.36-.12.36 1.36.36-1.44.37-.82.36.35.36-.32.36.22.36 1.88.37-1.75.36.67.36 1.09.36-1.14.37-1.29.36 1.23.36-.93.36.82.36.83.37-1.4.36.04.36.4.36 1.53.36-.72.37.36.36-1.51.36.32.36-1.07.36.69.37.65.36.87.36-.73.36-.26.37-.82.36 2.05.36.08.36-1.59.36.35.37.29.36-.09.36-.3.36.17.36.74.37-.64.36.67.36-1.07.36-.86.36 1.36.37-1.28.36-1.04.36 2.4.36.49.37-.37.36-.22.36-.65.36.64.36-1.93.37 3.02.36-1.93.36 1.34.36-.49.36.61.37-1.98.36.11.36 1.01.36-1.46.36 1.5.37.38.36-1.41.36 1.14.36.59.36-.72.37-.57.36-.14.36 1.03.36-.91.37.79.36-.49.36.81.36-.79.36.55.37.15.36-.83h.36l.36-.59.36 1.24.37-1.73.36 2.2.36-.67.36-.47.36-.17.37-.2.36.74.36.72.36-2.12.37 1.88.36-.5.36.39.36-1.51.36.45.37.72.36-.43.36.82.36.4.36-.44.37-1.86.36 1.09.36.77.36-.15.36-1.22.37 1.37.36-.1.36-.52.36-.94.36.41.37.87.36.44.36-1.43.36.92.37-.54.36 1.53.36-.95.36-.59.36.06.37.49.36.51.36-.61.36-.12.36.2.37.14.36-.92.36 1.19.36.72.36-1.26.37.79.36-.79.36 1.07.36-1.22.37-.34.36-.28.36-.34.36-.2.36 2.32.37-.41.36-2.29.36 2.43.36-1.08.36.73.37-.62.36.87.36-.59.36-1.71.36 2.4.37-.42.36-.72.36.18.36.59.36-.37.37 1.14.36-.32.36-.23.36-.27.37-.79.36.86.36-.15.36-.31.36.78.37-.47.36-.04.36-.28.36-.09.36 1.26.37-1.22.36-.44.36-.17.36.87.36.12.37-1.41.36.94.36 1.36.36-1.44.37-.62.36.67.36-.1.36-.51.36-.1.37 1.06.36-1.32.36.67.36.42.36-1.08.37.69.36 1.04.36-.07.36-.94.36.64.37.61.36-1.6.36.69.36-.22.37 1.78.36-2.25.36.77.36-1.59.36 2.2.37.1.36-.47.36-.12.36.14.36-.46.37.27.36.2.36-.7.36-.84.36.62.37.05.36.69.36-.62.36-.56.36.05.37.96.36.62.36-.87.36 1.12.37-.23.36-.74.36.27.36.17.36.72.37-.91.36.62.36.32.36-1.19.36-.34.37.81.36 1.64.36-.62.36-1.27.36-.34.37.25.36.51.36-.99.36.01.37-.6.36 2.21.36-.94.36-.77.36 1.13.37-.57.36-.36.36.57.36.34.36-.74.37-.4.36.59.36-.42.36 1.22.36.32.37-2.27.36.17.36 1.18.36-.17.36-.79.37.25.36.32.36-.03.36.65.37.22.36-1.07.36.43.36.31.36-.59.37.82.36-.79.36.84.36-1.14.36.37.37 1.01.36-.84.36.6.36.34.36-1.67.37-1.14.36 2.6.36-1.19.36.17.37 1.04.36-1.39.36 1.06.36-.57.36 1.07.37-2.2.36.76.36 2.06.36-1.8.36.52.37-.28.36 1.22.36-1.79.36 2.23.36-1.54.37.28.36.2.36.47.36.17.37-1.22.36-.07.36-.55.36 1.25.36-2.06.37 1.76.36-.28.36-.54.36.91.36-1.08.37.02.36 1.32.36-1.02.36.84.36-.65.37-.58.36.29.36 1.43.36-.24.36.61.37-.63.36-1.25.36.52.36.15.37-.66.36-.11.36.9.36.19.36-.59.37.32.36.28.36-1.29.36.13.36-.05.37 1.7.36-.96.36.52.36.51.36-.99.37.08.36-.13.36-.47.36.06.37-.65.36 2.15.36-.39.36-.17.36-.89.37 1.3.36-.17.36.07.36-2.14.36.94.37 1.8.36-.42.36-1.85.36 1.03.36.53.37-.87.36-.13.36-.29.36 1.08.36-.96.37-.4.36.23.36.39.36.27.37.62.36.77.36-.89.36-.67.36 1.78.37-2.13.36.68.36-.83.36-.09.36.72.37.81.36-1.97.36.98.36 1.39.36-1.46.37 1.34.36-1.12.36-1.28.36 2.35.37-1.64.36.7.36-.2.36 1.01.36-.47.37-.12.36-.17.36-1.04.36.56.36.65.37-.5.36.27.36.57.36-.35.36-1.31.37 1.76.36-.57.36-.17.36-.07.36.27.37-.69.36.72.36-1.24.36 1.66.37-1.02.36-.47.36.54.36 1.29.36-1.23.37-.82.36 1.68.36.59.36-.54.36-.7.37.28.36-.79.36.84.36-1.31.36 1.43.37.18.36.37.36-.6.36-.71.37.93.36-.49.36.5.36-.62.36.94.37.36.36-.79.36-1.25.36-.13.36.67.37 1.39.36-1.51.36.84.36.56.36-.19.37.47.36-1.66.36-.54.36 1.43.37-1.59.36 1.66.36-.19.36-.58.36 1.91.37-.89.36.05.36-1.04.36 1.07.36-1.36.37 2.32.36-1.41.36-1.51.36 1.56.36-.5.37.15.36-1.45.36 1.38.36.14.36-1.1.37.94.36.1.36.71.36-1.21.37-.1.36.34.36-.14.36.61.36.42.37 1.04.36-1.88.36-.98.36.78.36 1.69.37-1.71.36-.19.36.12.36 2.69.36-1.09.37-2.76.36.72.36 1.6.36.72.37-2.1.36-1.05.36 2.26.36-1.51.36 1.73.37-1.49.36 1.67.36-.35.36-1.16.36.42.37-.08.36.57.36-.4.36-1.33.36.15.37.99.36.64.36-.62.36.47.36.08.37-.47.36-.62.36.49.36-.45.37.78.36.34.36-.42.36.37.36-.81.37.51.36-.14.36-.6.36.02.36 1.2.37-1.88.36 1.58.36-.15.36-.43.36.25.37-.71.36 1.03.36-.26.36.26.37-.84.36.6.36-.72.36 1.09.36-.32.37-1.11.36 1.97.36-.77.36-.94.36-.59.37 1.93.36-.96.36 1.01.36-1.01.36-.64.37 1.63.36-.17.36-.5.36-1.12.36 1.84.37-1.36.36.3.36.26.36.13.37-.65.36.65.36-.37.36.47.36-.49.37 1.58.36-.37.36-.7.36-.35.36.33.37-1.32.36.77.36 2.1.36-1.1.36.07.37.24.36-1.56.36-.41.36.96.37.65.36-.82h.36l.36 1.61.36-1.04.37-.35.36-.24.36-.47.36 1.73.36-.97.37-.32.36-.8.36 1.24.36.13.36-1.09.37 1.46.36-.91.36-1.12.36 1.71.37-.79.36.74.36-.99.36.49.36.18.37-.69.36 1.18.36-.2.36-.84.36.3.37.29.36-.26.36.98.36-1.21.36 1.23.37-1.26.36.43.36-.03.36-.12.36.64.37.79.36-1.81.36 1.15.36-1.52.37 1.19.36-1.08.36.59.36.76.36 1.24.37-2.1.36-.32.36.34.36-.12.36-.67.37 2.3h.36l.36-1.45.36-.8.36 1.78.37-.76.36-.15.36.04.36 1.72.37-.4.36.25.36-1 .36-.02.36.08.37-.2.36-.42.36-.9.36.52.36-.39.37 1.64.36-.16.36-.98.36 1.7.36-.47.37-2.35.36 1.17.36 1.4.36-.81.36-.7.37.68.36.26.36-.1.36-1.28.37.49.36 1.57.36-1.71.36.24.36-.54.37 1.75.36-1.41.36.63.36.61.36-.93.37.41.36.64.36-1.06.36.25.36-.82.37 1.46.36.53.36-1.24.36.07.37.23.36-.77.36-.18.36.87.36 1.43.37-.72.36-1.58.36.75.36-.9.36 1.21.37-.86.36 1.19.36-1.44.36 2.97.36-1.98.37.23.36-.77.36.52.36-.75.36.75.37-.64.36-.33.36.08.36 1.58.37-1.8.36 1.4.36.37.36-.32.36-.29.37-1.04.36 1.44.36-.42.36-.3.36.56.37-.62.36-.27.36-.41.36.09.36 1.11.37-.02.36.33.36-.6.36.17.37.8.36-.73.36-.07.36.54.36-.64.37-.1.36.35.36-.03.36-.56.36-.6.37 1.32.36.02.36-.89.36.07.36.87.37-.32.36-1.02.36.45.36-.05.37.74.36-.67.36 1.07.36-1.17.36.27.37.5.36-1.14.36 1.42.36.66.36-2.33.37.57.36 1.26.36-.56.36-.25.36-.15.37-.08.36.68.36-.72.36.52.36-.65.37.37.36.45.36-.47.36.55.37-.01.36-.79.36 1.42.36-.97.36-.22.37.88.36.77.36-1.34"/><use xlink:href="#d7c1a__e" color="#F44336" transform="matrix(3.75 0 0 3.75 125.4 135.83)"/><use xlink:href="#d7c1a__e" color="#F44336" transform="matrix(3.75 0 0 3.75 220.55 7.51)"/></g><text stroke-linecap="round" stroke-linejoin="round" color="#000" font-family="KaTeX_Main" font-size="8" transform="translate(241.1 25.11)"><tspan>TreapFingerTree</tspan></text><g fill="none" stroke="currentColor" stroke-linecap="round" stroke-linejoin="round" color="#000"><path stroke="#3B75EA" d="M205.6 22.51h29.9M28 118.73l.36 7.99.36-.34.37.22.36-1.5.36 2.02.36-1.26.36-1.07.37 1.76.36-.72.36 1.1.36.37.37-1.68.36 1.72.36-.86.36 1.66.36-2.16.37 1.98.36 1.36.36-1.65.36 2.82.36-1.29.37-.49.36-2.03.36 2.28.36.68.36.15.37-.05.36.27.36-.04.36-.84.36 1.11.37-.75.36 1.67.36-1.1.36.45.37-.55.36.95.36-.03.36.9.36-1.3.37-1.18.36 1.61h.36l.36-.08.36-1.7.37 1.95.36-.02.36-1 .36-.29.36.34.37 27.02.36-1.91.36 2.53.36-.2.37.2.36-.47.36-.13.36-.91.36 1.66.37-.42.36-2.06.36 1.17.36.17.36.59.37-.36.36-.3.36.19.36 1.09.36.3.37-.96.36.73.36-2.42.36 1.16.37.94.36-.52.36.48.36-.53.36.35.37.07.36-.19.36.5.36-1.66.36.86.37.38.36.26.36-.07.36.02.36-.1.37-1.21.36 1.39.36.24.36-.78.36-.45.37.54.36-.83.36.26.36 1.04.37.89.36-2.35.36.47.36-.29.36.59.37.6.36.17.36.77.36-2.04.36.18.37-.52.36 1.26.36.28.36-1.61.36 1.03.37-.52.36 2.35.36-1.26.36-.15.37-.31.36.42.36-.63.36-1.06.36 1.19.37-.52.36.39.36.67.36-1.04.36.67.37-.64.36.59.36.17.36-.26.36-1.56.37 1.16.36.25.36-.62.36-.57.36.92.37.21.36.26.36.47.36-.52.37-.97.36.49.36 1.62.36-.41.36-1.01.37.22.36 1 .36-2.18.36 1.03.36-.27.37 1.21.36-2.02.36 1.18.36.47.36-.73.37.66.36.2.36.22.36-1.19.37-.02.36.5.36-.21.36 1.86.36-1.81.37-.22.36.92.36-2.37.36 1.98.36-.94.37.04.36.32.36.58.36.37.36-.92.37-.6.36.95.36-.45h.36l.36.25.37.52.36-.97.36 1.76.36-1.46.37-.55.36.94h.36l.36.58.36-.16.37-.31.36-.7.36.87.36-.27.36-.11.37 1.15.36.36.36-1.38.36-1.04.36.32.37.62.36.34.36.23.36-1.28.37 1.01.36.59.36-1.24.36-.54.36.92.37 1.13.36-.3.36-.96.36 1.11.36.45.37-1.71.36.69.36-1.53.36 1.66.36.17.37-.39.36-1.37.36.62.36 1.61.37-.02.36-.5.36-2.1.36 1.95.36.01.37.29.36-.92.36.15.36.3.36-.49.37-.54.36.79.36.22.36-.57.36-.96.37 2.07.36-1.38.36.24.36 1.46.36-1.11.37-.72.36 1.31.36.27.36-1.18.37-.28.36-1.15.36 2.12.36-.89.36.03.37.56.36.79.36-.56.36-.13.36-.32.37-.89.36 2.06.36-.7.36-.15.36.62.37-.14.36-.73.36-.56.36-.45.37 1.56.36.08.36-1.27.36-.24.36 1.28.37-1.66.36 1.22.36-.25.36.08.36.41.37-.29.36.14.36-.59.36-.2.36.17.37 1.14.36-.78.36.06.36-.42.36-.19.37.1.36 1.09.36-.84.36.42.37 1.14.36-1.57.36 1.61.36-.07.36-.49.37-.94.36.14.36.64.36-.14.36.79.37-.4.36-.17.36.59.36-.77.36-.12.37-.49.36-.07.36.51.36-.41.37.59.36-.74.36-.42.36-.23.36 1.04.37.76.36-2.44.36 3.26.36-1.65.36-.77.37 1.01.36.12.36-.66.36.2.36-.67.37 1.07.36-1.14.36.59.36.62.36-.62.37.82.36-.68.36.65.36-1.28.37 1.7.36-1.06.36.51.36.36.36-.43.37-1.19.36.45.36-.84.36.99.36-.17.37.79.36.89.36-1.79.36 1.14.36-.89.37.69.36.28.36-2.37.36 1.51.37.14h.36l.36-.29.36.36.36-.52.37.6.36 1.12.36-1.61.36.83.36-1.16.37-.15.36 1.12.36.64.36-2.08.36 1.34.37-.02.36-.75.36 1.16.36-.27.37-.09.36.14.36-.51.36-1.19.36 1.23.37 1.17.36-.45.36-.81.36-.21.36.4.37-.07.36 1.06.36-.22.36-.5.36.03.37-.35.36-.44.36-.42.36 1.4.36-.54.37-.57.36 1.02.36-.22.36-.65.37-.45.36 2.46.36-1.32.36-.29.36.04.37-.11.36-.4.36.14.36.08.36.87.37-.52.36.32.36-.6.36 1.37.36-2.21.37 1.59.36-.58.36-.96.36 1.54.37.2.36-1.1.36.9.36-1.64.36 1.19.37-.29.36-.92.36.91.36.97.36.22.37-.17.36.03.36-3.02.36 1.36.36.96.37.54.36-.22.36.42.36-.64.36-1.34.37 1.91.36-1.69.36.13.36.42.37.89.36-.5.36.08.36-.05.36 1.02.37.07.36-.55.36-.64.36-.02.36 1.08.37.03.36-1.66.36.82.36-.15.36-1.06.37 1.7.36-.07.36-.6.36-.12.37 1.11.36-.94.36.08.36.27.36.05.37.02.36-.32.36-.12.36-.13.36-1.78.37 2.26.36-.12.36-1.15.36 1.66.36.01.37-.62.36-.16.36.63.36-.62.37.02.36-1.43.36.52.36.34.36-1.16.37 1.33.36 1.02.36.37.36-.91.36-.43.37-.79.36 1.44.36-.75.36-.32.36-.64.37.02.36 1.74.36-.79.36.04.36.9.37-.11.36-.54.36-.3.36.9.37-.52.36-.59.36 1.06.36 1.55.36-2.35.37.06.36.57.36-.83.36-.26.36-.1.37-.27.36 2.34.36-1.71.36 1.17.36-.05.37.27.36-1.34.36-.24.36.4.37 1.35.36-.02.36-.81.36.19.36-.61.37-1 .36.79.36.68.36-.11.36-1.2.37 1.01.36-.22.36-.37.36.17.36.71.37-.34.36.1.36-.45.36.82.36-.32.37-.48.36.11.36-.77.36.87.37.88.36-1.55.36 1.8.36-1.01.36.04.37.73.36-.1.36-1.59.36.7.36.57.37.63.36-.14.36-.79.36-.17.36 1.28.37-1.54.36.72.36-.64.36-.24.37.63.36.78.36-.15.36-.8.36.15.37.02.36-1.45.36 1.19.36 1.45.36-1.28.37-.69.36 1.25.36-.96h.36l.36.91.37.01.36.59.36-.37.36-.29.36-.4.37-.33.36.42.36-1.5.36 2.91.37-1.78.36-.81.36 1.26.36.18.36.16.37-1.15.36.66.36.64.36-.1.36-.84.37-.73.36 1.13.36-.62.36.74.36.89.37-.09.36-.92.36.74.36-1.46.37.85.36-.5.36-.2.36.32.36.64.37-.63.36-.2.36-.3.36.37.36 1.73.37-1.23.36-.33.36.52.36-1.04.36-.12.37 1.36.36.4.36-.8.36.15.37-.84.36-.57.36 1.01.36-.46.36 1.81.37-.03.36-.7.36-.36.36-.42.36.88.37-.71.36 1.01.36-.77.36.42.36-.52.37-.12.36-.17.36.32.36-.89.36.94.37.4.36-.16.36-.34.36-.5.37-.88.36 1.21.36 1.26.36-.81.36-.36.37 1.19.36-1.11.36.79.36-.32.36-.03.37-2.37.36 2.9.36-1.26.36 1.06.36-.59.37-1.22.36.13.36-.03.36 1.09.37-.87.36-.19.36 1.33.36-1.56.36 1.44.37-.52.36.99.36.02.36-.89.36.1.37.92.36-.67.36-.22.36.49.36-.4.37.35h.36l.36-.45.36-.31.36.34.37-.45.36.6.36-1.19.36-.34.37.02.36 1.7.36-.26.36-1.09.36.99.37 1.19.36-1.91.36 1.46.36-.28.36.92.37-2.87.36 1.38.36-.12.36-.05.36 1.51.37-1.78.36.82.36.22.36 1.16.37-1.06.36.45.36-.6.36-1.06.36 1.46.37-.77.36-.12.36-.08.36-.22.36-.25.37.15.36.72.36.17.36-.52.36.1.37-.64.36.82.36-.4.36-.22.36.64.37-.59.36-.21.36.35.36.3.37-1.19.36.8.36-.11.36 1.22.36-.7.37-1.58.36 1.21.36.52.36-.24.36.22.37-1.48.36 1.08.36 1.16.36-.47.36-.57.37-.07.36.42.36-1.14.36.4.37 1.28.36-.26.36-1.39.36 1.28.36-1.38.37.22.36.18.36.46.36-.96.36 1.17.37-.01.36-.12.36-.13.36-.99.36.7.37 1.07.36-.3.36-1.06.36.54.37-.17.36-.47.36.52.36-1.05.36 2.67.37-.49.36-1.08.36-.06.36-.67.36-.17.37 2h.36l.36-.1.36-1.15.36.99.37-.48.36-1.18.36.74.36 1.01.36-.19.37-1.14.36.99.36.12.36-.13.37-.68.36-.16.36-.27.36-.22.36 1.28.37-.73.36.12.36.67.36-.48.36.8.37.62.36-1.26.36-.94.36 1.08.36.17.37.43.36-1.19.36-.02.36-.38.37.92.36.08.36-.3.36.91.36-1.16.37.03.36.86.36-.89.36.87.36-.82.37.77.36-1.04.36-.35.36 1.98.36-.74.37-2.28.36 1.76.36.61.36.01.36-1.07.37 1.04.36.49.36-1.33.36-.02.37.02.36-.05.36-.12.36.34.36-.42.37.37.36-.27.36.5.36-.05.36.61.37.18.36-.45.36-.52.36 1.09.36-.91.37-.3.36.96.36-.31.36-1.27.37.92.36-.3.36.05.36.35.36.2.37-.55.36.84.36-1.39.36-.05.36-.14.37 2.47.36-.86.36-1.34.36.99.36-.23.37.25.36-1.16.36 1.07.36-1.24.36 1.48.37-.29.36.14.36-1.23.36 1.71.37-1.25.36-.17.36-.3.36 1.69.36 1.49.37-2.63.36.84.36-.74.36-.27.36 1.33.37.55.36-1.31.36.39.36-1.65.36 1.95.37-.5.36-.17.36 1.63.36-.64.37-.07.36-.95.36-.91.36 1.16.36-.52.37 1.12.36-1.01.36.57.36-.55.36.37.37.02.36.43.36-.38.36 1.17.36-1.27.37-.02.36-.15.36-.67.36.4.37-.02.36.46.36.63.36-.31.36-1.11.37.37.36.23.36.62.36-.06.36-.88.37 1.25.36-.36.36-.03.36-.99.36.99.37-.49.36.62.36-1.07.36-.49.36.52.37.27.36.52.36-.17.36.62.37-.65.36.84.36-1.04.36.18.36-1.42.37 1.49.36-.69.36.89"/><use xlink:href="#d7c1a__f" color="#3B75EA" transform="matrix(3.75 0 0 3.75 182.98 157.77)"/><use xlink:href="#d7c1a__f" color="#3B75EA" transform="matrix(3.75 0 0 3.75 220.55 22.51)"/></g><path fill="none" d="M28 45.01V162.5M371.99 45.01H28" color="#000"/></svg>