<svg xmlns="http://www.w3.org/2000/svg" xmlns:xlink="http://www.w3.org/1999/xlink" viewBox="0 0 400 200"><path fill="none" d="M0 0h400v200H0z"/><defs><path id="976d1__c" fill="currentColor" stroke="currentColor" stroke-width=".267" d="M-1-1h2v2h-2z"/><path id="976d1__a" stroke="currentColor" stroke-width=".267" d="m0-1.33-1.33 2h2.66z"/><path id="976d1__e" stroke="currentColor" stroke-width=".267" d="M0 1.33 1.265.411.782-1.067l-1.564-.009-.483 1.487z"/><use xlink:href="#976d1__a" id="976d1__g" fill="currentColor" stroke="none"/><use xlink:href="#976d1__a" id="976d1__b" stroke="currentColor" transform="rotate(180)"/><use xlink:href="#976d1__b" id="976d1__f" fill="currentColor" stroke="none"/><circle id="976d1__d" cx="0" cy="0" r="1" stroke="currentColor" stroke-width=".267"/></defs><path fill="none" stroke="#CCC" stroke-linecap="round" stroke-linejoin="round" stroke-width=".1" d="M46.1 162.5V60.01" class="976d1__gridline" color="#000"/><g fill="none" stroke-linecap="round" stroke-linejoin="round" stroke-width="0" color="#000"><path d="M46.1 162.5V155m0-94.99v7.5"/><text fill="#000" font-family="KaTeX_Main" font-size="8" text-anchor="middle" transform="translate(46.1 172.6)"><tspan> 1</tspan></text></g><path fill="none" stroke="#CCC" stroke-linecap="round" stroke-linejoin="round" stroke-width=".1" d="M82.31 162.5V60.01" class="976d1__gridline" color="#000"/><g fill="none" stroke-linecap="round" stroke-linejoin="round" stroke-width="0" color="#000"><path d="M82.31 162.5V155m0-94.99v7.5"/><text fill="#000" font-family="KaTeX_Main" font-size="8" text-anchor="middle" transform="translate(82.31 172.6)"><tspan> 2</tspan></text></g><path fill="none" stroke="#CCC" stroke-linecap="round" stroke-linejoin="round" stroke-width=".1" d="M118.52 162.5V60.01" class="976d1__gridline" color="#000"/><g fill="none" stroke-linecap="round" stroke-linejoin="round" stroke-width="0" color="#000"><path d="M118.52 162.5V155m0-94.99v7.5"/><text fill="#000" font-family="KaTeX_Main" font-size="8" text-anchor="middle" transform="translate(118.52 172.6)"><tspan> 3</tspan></text></g><path fill="none" stroke="#CCC" stroke-linecap="round" stroke-linejoin="round" stroke-width=".1" d="M154.73 162.5V60.01" class="976d1__gridline" color="#000"/><g fill="none" stroke-linecap="round" stroke-linejoin="round" stroke-width="0" color="#000"><path d="M154.73 162.5V155m0-94.99v7.5"/><text fill="#000" font-family="KaTeX_Main" font-size="8" text-anchor="middle" transform="translate(154.73 172.6)"><tspan> 4</tspan></text></g><path fill="none" stroke="#CCC" stroke-linecap="round" stroke-linejoin="round" stroke-width=".1" d="M190.94 162.5V60.01" class="976d1__gridline" color="#000"/><g fill="none" stroke-linecap="round" stroke-linejoin="round" stroke-width="0" color="#000"><path d="M190.94 162.5V155m0-94.99v7.5"/><text fill="#000" font-family="KaTeX_Main" font-size="8" text-anchor="middle" transform="translate(190.94 172.6)"><tspan> 5</tspan></text></g><path fill="none" stroke="#CCC" stroke-linecap="round" stroke-linejoin="round" stroke-width=".1" d="M227.15 162.5V60.01" class="976d1__gridline" color="#000"/><g fill="none" stroke-linecap="round" stroke-linejoin="round" stroke-width="0" color="#000"><path d="M227.15 162.5V155m0-94.99v7.5"/><text fill="#000" font-family="KaTeX_Main" font-size="8" text-anchor="middle" transform="translate(227.15 172.6)"><tspan> 6</tspan></text></g><path fill="none" stroke="#CCC" stroke-linecap="round" stroke-linejoin="round" stroke-width=".1" d="M263.36 162.5V60.01" class="976d1__gridline" color="#000"/><g fill="none" stroke-linecap="round" stroke-linejoin="round" stroke-width="0" color="#000"><path d="M263.36 162.5V155m0-94.99v7.5"/><text fill="#000" font-family="KaTeX_Main" font-size="8" text-anchor="middle" transform="translate(263.36 172.6)"><tspan> 7</tspan></text></g><path fill="none" stroke="#CCC" stroke-linecap="round" stroke-linejoin="round" stroke-width=".1" d="M299.57 162.5V60.01" class="976d1__gridline" color="#000"/><g fill="none" stroke-linecap="round" stroke-linejoin="round" stroke-width="0" color="#000"><path d="M299.57 162.5V155m0-94.99v7.5"/><text fill="#000" font-family="KaTeX_Main" font-size="8" text-anchor="middle" transform="translate(299.57 172.6)"><tspan> 8</tspan></text></g><path fill="none" stroke="#CCC" stroke-linecap="round" stroke-linejoin="round" stroke-width=".1" d="M335.78 162.5V60.01" class="976d1__gridline" color="#000"/><g fill="none" stroke-linecap="round" stroke-linejoin="round" stroke-width="0" color="#000"><path d="M335.78 162.5V155m0-94.99v7.5"/><text fill="#000" font-family="KaTeX_Main" font-size="8" text-anchor="middle" transform="translate(335.78 172.6)"><tspan> 9</tspan></text></g><path fill="none" stroke="#CCC" stroke-linecap="round" stroke-linejoin="round" stroke-width=".1" d="M371.99 162.5V60.01" class="976d1__gridline" color="#000"/><g fill="none" stroke-linecap="round" stroke-linejoin="round" stroke-width="0" color="#000"><path d="M371.99 162.5V155m0-94.99v7.5"/><text fill="#000" font-family="KaTeX_Main" font-size="8" text-anchor="middle" transform="translate(371.99 172.6)"><tspan> 10</tspan></text></g><g fill="none" stroke-linecap="round" stroke-linejoin="round" stroke-width="0" color="#000"><path d="M371.99 162.5h-7.5"/><text fill="#000" font-family="KaTeX_Main" font-size="8" transform="translate(378.99 165.1)"><tspan>1.00</tspan></text></g><g fill="none" stroke-linecap="round" stroke-linejoin="round" stroke-width="0" color="#000"><path d="M371.99 149.69h-7.5"/><text fill="#000" font-family="KaTeX_Main" font-size="8" transform="translate(378.99 152.29)"><tspan>1.20</tspan></text></g><g fill="none" stroke-linecap="round" stroke-linejoin="round" stroke-width="0" color="#000"><path d="M371.99 136.88h-7.5"/><text fill="#000" font-family="KaTeX_Main" font-size="8" transform="translate(378.99 139.48)"><tspan>1.40</tspan></text></g><g fill="none" stroke-linecap="round" stroke-linejoin="round" stroke-width="0" color="#000"><path d="M371.99 124.07h-7.5"/><text fill="#000" font-family="KaTeX_Main" font-size="8" transform="translate(378.99 126.67)"><tspan>1.60</tspan></text></g><g fill="none" stroke-linecap="round" stroke-linejoin="round" stroke-width="0" color="#000"><path d="M371.99 111.25h-7.5"/><text fill="#000" font-family="KaTeX_Main" font-size="8" transform="translate(378.99 113.85)"><tspan>1.80</tspan></text></g><g fill="none" stroke-linecap="round" stroke-linejoin="round" stroke-width="0" color="#000"><path d="M371.99 98.44h-7.5"/><text fill="#000" font-family="KaTeX_Main" font-size="8" transform="translate(378.99 101.04)"><tspan>2.00</tspan></text></g><g fill="none" stroke-linecap="round" stroke-linejoin="round" stroke-width="0" color="#000"><path d="M371.99 85.63h-7.5"/><text fill="#000" font-family="KaTeX_Main" font-size="8" transform="translate(378.99 88.23)"><tspan>2.20</tspan></text></g><g fill="none" stroke-linecap="round" stroke-linejoin="round" stroke-width="0" color="#000"><path d="M371.99 72.82h-7.5"/><text fill="#000" font-family="KaTeX_Main" font-size="8" transform="translate(378.99 75.42)"><tspan>2.40</tspan></text></g><g fill="none" stroke-linecap="round" stroke-linejoin="round" stroke-width="0" color="#000"><path d="M371.99 60.01h-7.5"/><text fill="#000" font-family="KaTeX_Main" font-size="8" transform="translate(378.99 62.61)"><tspan>2.60</tspan></text></g><path fill="none" d="M28 60.01V162.5M371.99 60.01H28" color="#000"/><text stroke-linecap="round" stroke-linejoin="round" stroke-width="0" color="#000" font-family="KaTeX_Main" font-size="10" text-anchor="middle" transform="rotate(-90 61.38 49.88)"><tspan font-weight="bold">Maximum Path Length </tspan><tspan> / log</tspan><tspan dy="3" font-size="8">2</tspan><tspan dy="-3">(Size)</tspan></text><text stroke-linecap="round" stroke-linejoin="round" stroke-width="0" color="#000" font-family="KaTeX_Main" font-size="10" text-anchor="middle" transform="translate(199.99 195.75)"><tspan>Operations / 10</tspan><tspan dy="-5" font-size="8">6</tspan></text><text stroke-linecap="round" stroke-linejoin="round" color="#000" font-family="KaTeX_Main" font-size="8" transform="translate(110.4 10.11)"><tspan>Conc</tspan></text><g fill="none" stroke="currentColor" stroke-linecap="round" stroke-linejoin="round" color="#000"><path stroke="#D336C8" stroke-dasharray="1.0,2.0" d="M74.9 7.51h29.9M28 151.44l.36.11.36.11.37-.56.36.11.36.1.36.1.36.1.37.1.36.1.36.09.36.1.37.09.36.09.36.08.36-.57.36.08.37.09.36.08.36.08.36-1.9.36.08.37.08.36.08.36.07.36.08.36.07.37.08.36.07.36.07.36.07.36.07.37.07.36.07.36.06.36.07.37.06.36.07.36.06.36.06.36.06.37.06.36.06.36.06.36.06.36.06.37.06.36.05.36.06.36.05.36.06h3.26l.37-.65h15.2l.37.65h3.25l.37-.65h14.84l.36.65h3.26l.37-.65h15.2l.37.65h3.25l.37-.65h14.84l.36.65h3.26l.37-.65h15.2l.37.65h2.89l.36-.65h15.21l.36.65h3.26l.37-.65h15.2l.37.65h2.89l.36-.65h15.21l.36.65h3.26l.37-.65h14.84l.36.65h3.26l.36-.65h15.21l.36.65h3.26l.37-.65h14.84l.36.65h3.26l.36-.65h13.76l.37-.64h.36l.36.64h.36l.36.65h2.9l.36-.65h15.21l.36.65h3.26l.36-.65h15.21l.36.65h2.9l.36-.65h15.21l.36.65h3.26l.36-.65h14.85l.36.65h3.26l.36-.65h15.21l.36.65h2.9"/><use xlink:href="#976d1__c" color="#D336C8" transform="matrix(3.75 0 0 3.75 354.25 151.35)"/><use xlink:href="#976d1__c" color="#D336C8" transform="matrix(3.75 0 0 3.75 89.85 7.51)"/></g><text stroke-linecap="round" stroke-linejoin="round" color="#000" font-family="KaTeX_Main" font-size="8" transform="translate(110.4 25.11)"><tspan>LBSTBottomUp</tspan></text><g fill="none" stroke="currentColor" stroke-linecap="round" stroke-linejoin="round" color="#000"><path stroke="#3B75EA" d="M74.9 22.51h29.9M28 152.12l.36-.57.36.79.37-1.91.36.78.36-1.24.36.77.36.77.37-1.91.36 2.11.36-.57.36-.58.37-.57.36 1.42.36.09.36.09.36-.58.37.08.36.09.36.74.36.08.36.08.37-.58.36.07.36.74.36-.59.36-.58.37.73.36-.58.36.07.36-.59.36.07.37.72.36.07.36-.59.36.72.37.06.36-.58.36-1.24.36 1.36.36.06.37-.58.36 1.35.36-.59.36.71.36.05.37-2.52.36 1.99.36.06.36-.59.36 1.34.37-1.93.36 1.93.36-1.29.36 1.29.37-1.93.36 1.29h1.45l.36-.65.36.65h.36l.36-.65.37.65h1.81l.36-.65.36.65h.36l.37-.65h.36l.36-.64.36 1.29h.73l.36-.65.36.65.36-.65h1.09l.36-.64h1.45l.36.64h.36l.36-.64.37 1.29h.72l.36.64h.37l.36-.64h.36l.36-.65h.36l.37.65h.36l.36.64.36-1.29.36.65.37.64.36-.64h.36l.36.64.36-.64.37-.65h2.17l.36.65.36-.65.37.65.36-.65.36-.64h1.09l.36.64h.72l.36-.64.37-1.29.36 1.93.36-.64.36.64h.36l.37-.64.36.64h1.09l.36.65.36-1.29.36 1.29h.36l.37-.65.36 1.29h.72l.36-.64.37-.65h.72l.36-.64.36 1.29h1.45l.37.64h.36l.36-1.29.36.65.36.64.37-.64h.36l.36-.65h.36l.36-1.28h.37l.36.64H91l.37-.64h.36l.36.64.36-.64.36.64.37-.64.36.64.36.64h.36l.37.65.36-.65.36-.64h.36l.36.64h.37l.36-.64.36.64.36-.64.36-.64.37.64.36-1.29.36 1.29h.36l.36 1.29h2.18l.36-.65h1.09l.36-.64h.36l.36 1.29h.36l.37-1.29.36 1.29.36.64h.36l.36-.64.37-.65.36-.64h.36l.36.64h1.81l.37.65.36-2.58.36 1.93h.36l.36-.64.37.64.36.65.36-1.29.36 1.29h.73l.36-.65.36.65h.36l.36-.65h1.09l.36-.64h.37l.36-1.29.36.65.36.64h.36l.37-.64.36.64.36-.64.36.64h1.09l.36-.64.36 1.28.36 1.29.37-.64.36.64h.36l.36-.64.37.64h.72l.36-.64.36-.65.37-.64h1.81l.36-.64h.36l.36-.65.36 1.29.37-.64h.36l.36.64.36-.64h.36l.37 1.28h.36l.36-1.28.36 1.28h.37l.36-.64.36.64.36-.64h.36l.37-.64.36 1.93.36-.65.36.65h.36l.37-.65h2.17l.36-1.93.36 2.58h.37l.36-.65.36-.64h.36l.36-.64.37.64.36.64.36-1.93.36 2.58.36-.65.37.65h.36l.36-.65.36.65.36-1.29.37-.64h.36l.36 1.28.36-.64h.36l.37.64.36.65h.36l.36-.65.37.65h1.08l.36-.65.37-.64.36-.64.36 1.28.36-.64.36.64h.73l.36.65.36-.65.36.65.37-.65.36-.64.36.64h1.45l.36-1.28.36 1.28.37-.64.36.64h.36l.36-.64h.36l.37.64.36.65.36-1.29h.36l.36 1.29h1.09l.36.64.37-1.29.36.65h.36l.36-.65.36.65.37-1.29.36.64.36.65.36-1.29.36 1.29.37-.65h.36l.36.65h.36l.36-.65h1.45l.36.65h1.09l.36-.65h.73l.36.65.36-.65.36-.64.37.64h.36l.36-.64.36.64h1.45l.36-.64.36.64h.37l.36.65.36-1.29.36.64.37-.64h1.08l.36.64.37.65h1.81l.36-.65.36.65.36-.65.36-1.28.37 1.28.36-.64.36-.64.36.64.36-1.29.37 1.93h.36l.36-1.28.36-.65.37.65.36-.65.36 1.29.36.64.36-.64h1.09l.36.64.36-.64h.37l.36.64h.36l.36.65.36-.65.37.65.36-.65h1.09l.36-.64.36-.64.36.64.36.64h.73l.36-1.28.36.64.36.64h1.45l.36.65h.37l.36-.65h1.45l.36-1.28.36 1.28.36-1.28.37 1.93h.36l.36-1.29.36 1.29h.36l.37-.65.36.65.36-.65.36.65h.73l.36-1.29.36.64.36-.64.36.64h1.45l.37-.64.36.64h1.45l.36-.64.36.64h.36l.36-.64.37.64h.72l.36-.64h.36l.37-.64h.36l.36.64h2.17l.37-1.29.36 1.93.36-1.28.36 1.28.36.65.37-.65.36-1.28.36 1.28h.36l.36-.64.37-.64.36 1.28h1.81l.36-1.28.36.64.37-1.29.36 1.29h.36l.36-.64.36.64h.37l.36.64h1.08l.37-.64h.36l.36.64.36-.64.36.64h.37l.36-1.28.36 1.28h.36l.37-.64h2.53l.36-1.93.36 1.93h1.45l.36.64h.73l.36-1.28.36.64.36.64h.73l.36-.64h.36l.37-.64h.36l.36.64h.72l.37-.64.36 1.28h.36l.36-1.28.36 1.28.37-.64.36-.64.36.64.36-.64.36.64h.37l.36.64h.72l.37-.64.36.64h.36l.36-1.28.36.64.37.64h.72l.36-.64h.36l.37-.64.36.64.36-1.29.36 1.29.36-.64.37.64.36.64.36-.64h1.09l.36-1.29.36 1.29.36.64h.37l.36-.64.36.64.36-.64h.36l.37.64.36-.64.36.64h.36l.36-.64.37-.64.36.64.36-.64h.36l.36.64h.73l.36-.64.36.64.37-.64h.36l.36 1.28.36-.64h.36l.37 1.29h.36l.36-.65h1.09l.36-.64h.36l.36-1.29.36 1.29h1.82l.36-.64.36.64h1.81l.36.64.36-.64h.73l.36-.64h.36l.36.64h.37l.36.64h.72l.36-1.28.37 1.28h.36l.36.65.36-.65h.73l.36-.64.36.64h.73l.36-.64h.72l.36.64h.37l.36-.64.36.64h.36l.36.65.37-1.29.36 1.29.36-1.29.36.64h2.9l.36-1.28.36.64.37.64h.36l.36-.64h.36l.36.64h.37l.36-.64h.36l.36.64.36-.64h1.09l.36.64.37.65h.36l.36-1.29h.36l.36 1.29h.73l.36-.65h.72l.37-.64.36.64.36-1.28.36.64h.36l.37.64.36-.64.36.64.36-.64.37.64h.72l.36-.64h.36l.37.64.36-.64h.72l.36-1.29.37.65.36.64.36-.64.36.64.36.64h1.09l.36-.64h.37l.36.64h.36l.36-.64.36 1.29.37-.65.36.65.36-.65.36.65.36-.65.37-.64h.36l.36.64.36-1.28.36 1.93.37-1.29h.36l.36.64.36-.64.36.64h.37l.36-.64.36.64h.36l.37-.64h.36l.36.64h.36l.36-1.28.37 1.28h2.17l.36.65.36-.65.36-.64h1.09l.36-.64.37.64h1.08l.36-.64.37.64h.36l.36-.64.36.64h.36l.37-.64.36.64h2.17l.36-.64.36.64.37-.64.36.64h1.09l.36.64h.36l.36-.64.36 1.29.37-1.93.36 1.28.36.65h.36l.36-.65h1.09l.36-.64.36-.64.37.64.36 1.29h.36l.36-.65.37.65.36-1.93h1.45l.36 1.28h3.62l.36-.64h.36l.36.64.37-1.28.36.64h.72l.37-1.29h.36l.36 1.29.36-.64.36.64h.73l.36-.64.36 1.28h1.09l.36-.64.36-.64.36.64h1.09l.36-.64.37-.65.36.65h1.81l.36.64h1.45l.36-.64h.72l.37-.65.36.65.36.64h.73l.36.64h1.08l.37.65.36-.65.36.65h.72l.37-.65h.72l.36-1.28.36.64.37-.64.36.64.36-1.93.36 1.29h.36l.37.64h.72l.36.64h.37l.36-.64.36.64h.36l.36-.64h.37l.36.64h.36"/><use xlink:href="#976d1__d" color="#3B75EA" transform="matrix(3.75 0 0 3.75 67.83 152)"/><use xlink:href="#976d1__d" color="#3B75EA" transform="matrix(3.75 0 0 3.75 89.85 22.51)"/></g><text stroke-linecap="round" stroke-linejoin="round" color="#000" font-family="KaTeX_Main" font-size="8" transform="translate(110.4 40.11)"><tspan>TreapTopDown</tspan></text><g fill="none" stroke="currentColor" stroke-linecap="round" stroke-linejoin="round" color="#000"><path stroke="#F44336" stroke-dasharray="4.5,2.0,0.5,2.0,0.5,2.0" d="M74.9 37.51h29.9M28 74.97l.36.91.36.89.37-1.13.36.22.36.88.36.2.36.87.37-.47.36-1.15.36.19.36.19.37-1.82.36-.48.36-.48.36 1.5.36.17.37-1.15.36-1.16.36 2.15.36.16.36-2.47.37 2.13.36.81.36-1.82.36-.5.36 1.46.37-1.16.36.14.36-.51.36-.51.36-.51.37-1.82.36-1.17.36.14.36 1.44.37-1.17.36.13.36.13.36.13.36-.52.37.13.36-.52.36.12.36-.52.36 2.05.37.12.36-1.81.36 4.62.36-.53.36.11.37.64.36-1.93h.36l.36.65.37.64.36-.64h.36l.36-.65.36-.64.37.64h1.08l.36.65h1.09l.36-.65h.36l.37-.64h.36l.36.64h.73l.36.65h.36l.36-.65h.73l.36-.64.36-1.93.36-.64h1.45l.36.64.36.65.37.64.36 1.28.36 1.29h.36l.36.64.37-.64.36-.64.36-1.29h1.81l.36-.64.37.64.36-.64.36.64.36.64.36.65.37-.65h.72l.36-.64h.36l.37.64h.36l.36-.64.36.64.37.65.36 1.28.36-.64h.36l.36.64.37.64.36-1.28h.36l.36-1.29.36-.64h.37l.36-1.93.36.65.36-1.29.36.64.37 1.93.36-.64h1.45l.36-1.93.36.64.36-.64h.73l.36-1.93.36.64.36 1.29.37 1.29.36 1.28.36 1.29.36.64h.36l.37.64.36-1.93.36.65.36 1.28h.36l.37-1.28.36-1.29h.36l.36.64h1.81l.37-.64.36.64h.36l.36.65.36-.65.37 1.29.36.64.36-1.28.36.64.36.64.37.64h.72l.36.65h.73l.36-1.93.36-.64.36-.65h.37l.36 1.29h.72l.36-1.29.37-3.85.36 3.85.36-.64.36-.64.36 1.93h.37l.36.64.36-.64.36-.65.36-1.28.37.64.36.64.36.65.36-.65.37 1.29.36-.64h.36l.36.64.36-.64.37-.65.36 1.29.36-1.29.36.65.36-.65.37.65h.36l.36-1.29h.36l.36-.64.37-.64.36.64h.72l.37.64h.72l.36.64h.36l.37.65.36.64.36-.64.36-.65.36.65h.73l.36-.65.36.65.36 1.28.37-.64h.72l.36.64.36-.64h.73l.36.64.36-.64h.37l.36-.64.36-1.29h.36l.36-1.28.37-1.29.36-1.29.36 1.93.36 1.29h.36l.37-.64h.36l.36.64.36.64.36-1.93.37-1.93.36 3.22.36.64.36 2.57.37-.64h.72l.36-.64h.73l.36-.65.36-.64h.36l.36 1.93h.37l.36-1.29.36-5.14h.36l.36.64.37-.64.36 2.57h.36l.36.65.36-.65h.37l.36-.64h.36l.36.64.37 1.29h.36l.36-.64.36-1.93.36-.65.37-.64h.36l.36 1.93.36 1.29.36-.65.37-.64.36.64.36.65h.36l.36-1.29.37 1.93.36-1.29.36 1.29h.36l.37 1.28.36-.64.36.64h.72l.37-.64.36.64.36-.64.36-.64h.36l.37 1.28h.72l.36-1.28.36-.64h.37l.36.64h.36l.36 1.28.36-.64.37-1.93h.72l.36 1.93h.37l.36.64.36-1.28h.36l.36-.64.37-1.29h.72l.36-1.29h.73l.36.65h.72l.36-.65h1.09l.36.65.37.64.36.64.36.65h.72l.37-.65.36-1.28h.36l.36 1.28.36-1.93.37.65.36.64.36 1.29h.72l.37.64h.36l.36.64h.36l.37-1.93.36-.64.36 1.29.36.64h.36l.37-.64.36.64h.36l.36.64.36.64.37.65.36-.65.36-.64h.36l.36 1.29h.37l.36-.65h.72l.36-1.28h.37l.36.64.36-1.93.36 1.93.37-.64h.36l.36-.64.36.64.36 1.28h.73l.36-.64.36.64.36-.64.37-.64h.36l.36-1.29.36 1.29.36-1.93h.37l.36.64h.36l.36-.64.37.64.36-.64.36-.64h.36l.36.64.37-1.93h.36l.36.64h.36l.36-.64.37.64h1.08l.36.65h1.09l.36.64h1.09l.36.64.36-1.93h1.09l.36.65h.73l.36.64h.36l.36.64h.36l.37.65.36.64h.36l.36-.64.36-1.29.37-.64.36.64h.36l.36 1.29.37-.65h.36l.36.65h.36l.36.64.37.64.36.64.36-1.28.36-.64h1.09l.36-.65.36.65.36.64.37-1.29.36 1.93h.36l.36.64.37 1.29.36-.64h.36l.36-.65h.36l.37.65h.36l.36-.65h.36l.36 1.29h.37l.36.64.36-1.28h.36l.36-.65.37-2.57.36-.64.36 1.29.36-.65.36-1.28.37.64.36-1.29.36-1.92.36 3.21.37 1.29.36.64.36-1.29.36.65h.73l.36-.65.36-.64h.36l.36-1.29.37 1.93.36-.64.36-.64h.36l.36.64.37-.64.36 1.93h.36l.36-.65.37.65.36.64.36-.64.36-1.93.36-.65h1.09l.36-.64h.36l.37.64h.72l.36-.64.36 1.29h.73l.36 1.93.36-.65h.36l.37.65.36.64.36.64h.73l.36-.64h1.08l.37.64h.72l.36-.64h.36l.37-.64h1.44l.37 1.28h.72l.36.64h.37l.36.65.36 1.28.36-1.93h.36l.37.65.36 1.28.36-.64.36.64.36.64.37.65.36.64.36-.64h1.09l.36-.65h.36l.36-.64.36-.64.37.64.36-.64h.72l.37.64h.36l.36-.64.36-.64H242l.36-.65h.36l.36.65h.37l.36-.65h.36l.36 1.29h.36l.37-.64.36-1.29h.72l.37-.64.36-1.29.36-.64.36 1.29.36.64.37-.64h.36l.36-.65.36 2.57.36-1.28.37.64.36.64.36.65.36-1.29.36.64.37-3.21.36.64h.36l.36-1.28.37 1.93.36.64h1.08l.37-1.29.36-1.28.36-1.29.36.64.36-.64h1.09l.36.64.36-1.28h1.45l.36.64.37 1.93.36 1.29h.72l.37-.65.36 1.29.36-1.29h1.09l.36.65h.72l.36-1.29h.37l.36-1.29h.36l.36.65h.36l.37.64h.36l.36-.64.36-.65.37.65.36-1.29.36.64h.36l.36.65.37-.65.36.65.36-1.29.36.64h.36l.37.65.36.64h.36l.36-1.29.36.65.37-.65h.36l.36.65h.72l.37-.65h.36l.36-.64h.73l.36.64h.72l.36 1.29.37-.64.36 1.28h.72l.36-.64.37 1.93.36-1.93.36.64.36.65.36-.65.37 1.93.36-.64.36.64h1.45l.36.64h.36l.37-2.57.36-1.93.36 2.58.36-1.29h.73l.36.64h.72l.36-1.28h.37l.36-1.29.36 1.29.36.64h.36l.37.64.36-1.28.36.64.36-.64h.37l.36-1.29.36-.64h.36l.36.64.37-1.28.36-.65.36-.64.36 1.29.36.64.37-.64.36 1.28h.36l.36.64.36-1.92.37-.65.36-.64.36.64.36.65.37.64h.36l.36-1.29.36 1.29h.36l.37-1.29.36-.64h1.08l.37.64h.36l.36-.64.36.64.36 1.93.37-.64.36.64.36.64.36-.64.37 1.29.36-2.57h.72l.36-.65h.73l.36-.64.36.64.36.65.37-1.29.36-.64.36-.65.36 1.29.36-.64.37 1.28.36.65h.36l.36.64.36 1.28.37-.64.36-1.28h.36l.36 1.92.37-.64.36 1.29.36-.65h.36l.36 1.93.37 1.29h.36l.36.64.36-.64.36 2.57h.37l.36-1.29.36-.64.36-.64.36 1.93.37-1.29.36 1.93.36 1.28.36-.64h.37l.36-.64.36.64.36-1.93.36-1.28h.37l.36-1.29.36 1.93.36.64.36-.64h.73l.36.64h.36l.36-.64.37.64.36.65h.72l.36-.65.37.65h.72l.36-.65.37-.64.36.64.36-.64.36.64.36-1.28.37 1.28.36-3.21.36-1.93h.72l.37-.64h.36l.36-.64.36-2.58h.73l.36.65h1.09l.36 1.93h2.17l.36.64.36-1.93.37-.64.36 1.28.36.65h1.09l.36-.65h.36l.36.65h.73l.36 1.28.36-.64.36.64.37 1.29h.72l.36-.65h1.09l.36.65h.36l.36.64.37.64.36-1.28h.36l.36-.65.36.65.37 1.28.36.65.36.64.36-1.29.37-1.93.36-3.85h1.45l.36-1.29.36-1.28.36.64h.36l.37-.64h.72l.36.64h.36l.37-.64.36.64h.36l.36.64.37-1.93h.36l.36-.64h1.09l.36.64.36-.64.36.64h.36l.37.65.36.64h.72l.36-.64h.37l.36.64.36.64h.36l.36.64h.73l.36-1.28.36-.64.37.64.36.64.36 1.29h.72l.37-.65.36-.64.36.64"/><use xlink:href="#976d1__e" color="#F44336" transform="matrix(3.75 0 0 3.75 125.4 72.94)"/><use xlink:href="#976d1__e" color="#F44336" transform="matrix(3.75 0 0 3.75 89.85 37.51)"/></g><text stroke-linecap="round" stroke-linejoin="round" color="#000" font-family="KaTeX_Main" font-size="8" transform="translate(241.1 10.11)"><tspan>AVLTopDown</tspan></text><g fill="none" stroke="currentColor" stroke-linecap="round" stroke-linejoin="round" color="#000"><path stroke="#29C3F6" stroke-dasharray="2.5,4.0" d="M205.6 7.51h29.9M28 154.82l.36.11.36.11.37-.57.36.1.36.1.36.1.36.09.37.1.36.09.36.09.36.09.37.09.36.08.36.09.36-.59.36.09.37.08.36.07.36.08.36-1.24.36.07.37.08.36.07.36.08.36.07.36.07.37.07.36.07.36.06.36.07.36-.59.37.07.36.06.36.07.36.06.37.06.36.06.36.06.36.06.36.06.37.06.36.06.36.05.36.06.36.05.37.06.36.05.36.06.36.05.36.05h3.26l.37-.64h15.2l.37.64h3.25l.37-.64h14.84l.36.64h3.26l.37-.64h15.2l.37.64h3.25l.37-.64h14.84l.36.64h3.26l.37-.64h15.2l.37.64h2.89l.36-.64h15.21l.36.64h3.26l.37-.64h15.2l.37.64h2.89l.36-.64h15.21l.36.64h3.26l.37-.64h14.84l.36.64h3.26l.36-.64h15.21l.36.64h3.26l.37-.64h14.84l.36.64h3.26l.36-.64h13.76l.37-.65h.36l.36.65h.36l.36.64h2.9l.36-.64h15.21l.36.64h3.26l.36-.64h15.21l.36.64h2.9l.36-.64h15.21l.36.64h3.26l.36-.64h14.85l.36.64h3.26l.36-.64h15.21l.36.64h2.9"/><use xlink:href="#976d1__f" color="#29C3F6" transform="matrix(3.75 0 0 3.75 182.98 154.57)"/><use xlink:href="#976d1__f" color="#29C3F6" transform="matrix(3.75 0 0 3.75 220.55 7.51)"/></g><text stroke-linecap="round" stroke-linejoin="round" stroke-width=".5" color="#000" font-family="KaTeX_Main" font-size="8" transform="translate(241.1 25.11)"><tspan>AVLBottomUp</tspan></text><g fill="none" stroke="currentColor" stroke-linecap="round" stroke-linejoin="round" stroke-width=".5" color="#000"><path stroke="#000" d="M205.6 22.51h29.9M28 154.82l.36.11.36.11.37-.57.36.1.36.1.36.1.36.09.37.1.36.09.36.09.36.09.37.09.36.08.36.09.36-.59.36.09.37.08.36.07.36.08.36-1.24.36.07.37.08.36.07.36.08.36.07.36.07.37.07.36.07.36.06.36.07.36-.59.37.07.36.06.36.07.36.06.37.06.36.06.36.06.36.06.36.06.37.06.36.06.36.05.36.06.36.05.37.06.36.05.36.06.36.05.36.05h3.26l.37-.64h15.2l.37.64h3.25l.37-.64h14.84l.36.64h3.26l.37-.64h15.2l.37.64h3.25l.37-.64h14.84l.36.64h3.26l.37-.64h15.2l.37.64h2.89l.36-.64h15.21l.36.64h3.26l.37-.64h15.2l.37.64h2.89l.36-.64h15.21l.36.64h3.26l.37-.64h14.84l.36.64h3.26l.36-.64h15.21l.36.64h3.26l.37-.64h14.84l.36.64h3.26l.36-.64h13.76l.37-.65h.36l.36.65h.36l.36.64h2.9l.36-.64h15.21l.36.64h3.26l.36-.64h15.21l.36.64h2.9l.36-.64h15.21l.36.64h3.26l.36-.64h14.85l.36.64h3.26l.36-.64h15.21l.36.64h2.9"/><use xlink:href="#976d1__g" transform="matrix(3.75 0 0 3.75 240.55 154.57)"/><use xlink:href="#976d1__g" transform="matrix(3.75 0 0 3.75 220.55 22.51)"/></g><text stroke-linecap="round" stroke-linejoin="round" color="#000" font-family="KaTeX_Main" font-size="8" transform="translate(241.1 40.11)"><tspan>RedBlackBottomUp</tspan></text><g fill="none" stroke="currentColor" stroke-linecap="round" stroke-linejoin="round" color="#000"><path stroke="#F44336" d="M205.6 37.51h29.9M28 134.52l.36-.53.36.13.37-.54.36.13.36.13.36.13.36.12.37.12.36.12.36.12.36.11.37.12.36.11.36-.56.36.11.36.1.37.11.36.1.36.1.36.09.36.1.37.1.36.09.36.09.36-.56.36.09.37.08.36.09.36-.57.36-.56.36.08.37.08.36.09.36.08.36.08.37.08.36.07.36.08.36.08.36.07.37.08.36.07.36.07.36.07.36.07.37.07.36.07.36.07.36.07.36-.58.37 2.57h1.08l.37-.64h.72l.36.64h.36l.37-.64h2.17l.36-.64h2.54l.36-.65h1.81l.36.65h1.09l.36.64h1.08l.37-.64h1.08l.36.64h.37l.36.64h.36l.36-.64h1.81l.37.64h1.44l.37.64.36-.64h1.08l.37-.64H70l.37-.64.36.64.36-.64h.72l.37-.65h2.17l.36.65h.36l.36-.65h4.71l.36.65h1.09l.36.64.36-.64h1.45l.36.64h2.9l.36.64.37-.64h.72l.36-.64h2.54l.36-.65h6.88l.36.65h3.98l.37 1.28h.72l.36-.64h2.54l.36-.64h6.15l.37-.65h1.08l.36 1.29h.37l.36-.64.36.64h.73l.36-.64h.36l.36.64h.73l.36.64h.72l.36-.64h1.45l.36.64h2.18l.36.64h.72l.37-1.28h1.08l.36-.64h.37l.36.64.36-.64h2.9l.36.64h.72l.37-.64h2.53l.36.64.36-.64h2.9l.36.64h.73l.36-.64h.72l.37.64.36.64h1.45l.36-.64h.72l.36-.64h.37l.36.64.36-.64h3.98l.37.64h1.08l.36.64h.37l.36-.64h1.08l.37-.64h1.08l.37.64h1.08l.36-.64h3.26l.36 1.92.37-.64h.36l.36-.64h2.17l.37-.64h1.81l.36.64.36-.64h9.78l.36.64h.36l.36-.64h1.81l.37.64h2.89l.36-.64h.73l.36.64h.72l.37-.64h3.26l.36.64h.72l.36-.64h1.81l.37.64.36-.64h1.09l.36-.65h.72l.36.65.37-.65h.36l.36.65.36.64h.73l.36-.64h.72l.36.64h1.45l.37-.64h.36l.36.64.36-.64h.36l.37-.65.36.65h2.17l.36.64.36-.64h3.63l.36.64.36-.64h2.9l.36-.65h.36l.36.65.36-.65h.37l.36.65.36.64h.36l.37.64.36-.64h.36l.36.64h1.81l.36.64.37-.64h1.08l.36-1.28h5.8l.36.64h.72l.37-.64h6.51l.37.64h.72l.36-.64.36.64h3.26l.37-.64h1.44l.37 1.28h1.08l.36-.64h2.54l.36-.64h1.09l.36.64h.36l.36-.64h1.45l.36.64.37.64.36-.64h.36l.36-.64h3.26l.36.64h.37l.36.64h.36l.36-.64h1.81l.36-.64h1.09l.36.64h.36l.37-.64.36.64.36-.64h4.35l.36.64h5.43l.36-.64h1.81l.36.64h2.9l.36-.64h10.5l.37.64h.72l.36-.64h2.54l.36.64h.36l.36.64h.37l.36-.64h2.53l.36-.64h4.35l.36.64.36-.64h1.81l.37.64h.36l.36-.64h2.54l.36.64h.72l.36-.64h1.81l.37.64h.36l.36-.64h.36l.36.64h2.9l.36-.64h1.45l.36-.65.37.65h2.17l.36.64h1.09l.36-.64.36.64.36-.64h1.45l.36.64.37-.64h6.15l.36.64h1.81l.37.64.36-.64h.72l.36-.64h5.8l.36.64.36-.64h1.81l.36.64.37.64.36-.64h1.08l.37-.64h1.45l.36.64.36-.64h1.81l.36.64h3.99l.36-.64h2.17l.36.64h.36l.37-.64h.72l.36.64.36-.64h7.25l.36.64h.72l.36-.64.37.64h2.17l.36-.64h.73l.36.64.36-.64"/><use xlink:href="#976d1__a" color="#F44336" transform="matrix(3.75 0 0 3.75 298.12 135.93)"/><use xlink:href="#976d1__a" color="#F44336" transform="matrix(3.75 0 0 3.75 220.55 37.51)"/></g><path fill="none" d="M28 60.01V162.5M371.99 60.01H28" color="#000"/></svg>