<svg xmlns="http://www.w3.org/2000/svg" xmlns:xlink="http://www.w3.org/1999/xlink" viewBox="0 0 400 200"><path fill="none" d="M0 0h400v200H0z"/><defs><use xlink:href="#c7bab__a" id="c7bab__d" fill="currentColor" stroke="none"/><use xlink:href="#c7bab__b" id="c7bab__c" stroke="currentColor" transform="rotate(180)"/><circle id="c7bab__a" cx="0" cy="0" r="1" stroke="currentColor" stroke-width=".267"/><path id="c7bab__b" stroke="currentColor" stroke-width=".267" d="m0-1.33-1.33 2h2.66z"/></defs><path fill="none" stroke="#CCC" stroke-linecap="round" stroke-linejoin="round" stroke-width=".1" d="M46.1 162.5V45.01" class="c7bab__gridline" color="#000"/><g fill="none" stroke-linecap="round" stroke-linejoin="round" stroke-width="0" color="#000"><path d="M46.1 162.5V155m0-109.99v7.5"/><text fill="#000" font-family="KaTeX_Main" font-size="8" text-anchor="middle" transform="translate(46.1 172.6)"><tspan> 1</tspan></text></g><path fill="none" stroke="#CCC" stroke-linecap="round" stroke-linejoin="round" stroke-width=".1" d="M82.31 162.5V45.01" class="c7bab__gridline" color="#000"/><g fill="none" stroke-linecap="round" stroke-linejoin="round" stroke-width="0" color="#000"><path d="M82.31 162.5V155m0-109.99v7.5"/><text fill="#000" font-family="KaTeX_Main" font-size="8" text-anchor="middle" transform="translate(82.31 172.6)"><tspan> 2</tspan></text></g><path fill="none" stroke="#CCC" stroke-linecap="round" stroke-linejoin="round" stroke-width=".1" d="M118.52 162.5V45.01" class="c7bab__gridline" color="#000"/><g fill="none" stroke-linecap="round" stroke-linejoin="round" stroke-width="0" color="#000"><path d="M118.52 162.5V155m0-109.99v7.5"/><text fill="#000" font-family="KaTeX_Main" font-size="8" text-anchor="middle" transform="translate(118.52 172.6)"><tspan> 3</tspan></text></g><path fill="none" stroke="#CCC" stroke-linecap="round" stroke-linejoin="round" stroke-width=".1" d="M154.73 162.5V45.01" class="c7bab__gridline" color="#000"/><g fill="none" stroke-linecap="round" stroke-linejoin="round" stroke-width="0" color="#000"><path d="M154.73 162.5V155m0-109.99v7.5"/><text fill="#000" font-family="KaTeX_Main" font-size="8" text-anchor="middle" transform="translate(154.73 172.6)"><tspan> 4</tspan></text></g><path fill="none" stroke="#CCC" stroke-linecap="round" stroke-linejoin="round" stroke-width=".1" d="M190.94 162.5V45.01" class="c7bab__gridline" color="#000"/><g fill="none" stroke-linecap="round" stroke-linejoin="round" stroke-width="0" color="#000"><path d="M190.94 162.5V155m0-109.99v7.5"/><text fill="#000" font-family="KaTeX_Main" font-size="8" text-anchor="middle" transform="translate(190.94 172.6)"><tspan> 5</tspan></text></g><path fill="none" stroke="#CCC" stroke-linecap="round" stroke-linejoin="round" stroke-width=".1" d="M227.15 162.5V45.01" class="c7bab__gridline" color="#000"/><g fill="none" stroke-linecap="round" stroke-linejoin="round" stroke-width="0" color="#000"><path d="M227.15 162.5V155m0-109.99v7.5"/><text fill="#000" font-family="KaTeX_Main" font-size="8" text-anchor="middle" transform="translate(227.15 172.6)"><tspan> 6</tspan></text></g><path fill="none" stroke="#CCC" stroke-linecap="round" stroke-linejoin="round" stroke-width=".1" d="M263.36 162.5V45.01" class="c7bab__gridline" color="#000"/><g fill="none" stroke-linecap="round" stroke-linejoin="round" stroke-width="0" color="#000"><path d="M263.36 162.5V155m0-109.99v7.5"/><text fill="#000" font-family="KaTeX_Main" font-size="8" text-anchor="middle" transform="translate(263.36 172.6)"><tspan> 7</tspan></text></g><path fill="none" stroke="#CCC" stroke-linecap="round" stroke-linejoin="round" stroke-width=".1" d="M299.57 162.5V45.01" class="c7bab__gridline" color="#000"/><g fill="none" stroke-linecap="round" stroke-linejoin="round" stroke-width="0" color="#000"><path d="M299.57 162.5V155m0-109.99v7.5"/><text fill="#000" font-family="KaTeX_Main" font-size="8" text-anchor="middle" transform="translate(299.57 172.6)"><tspan> 8</tspan></text></g><path fill="none" stroke="#CCC" stroke-linecap="round" stroke-linejoin="round" stroke-width=".1" d="M335.78 162.5V45.01" class="c7bab__gridline" color="#000"/><g fill="none" stroke-linecap="round" stroke-linejoin="round" stroke-width="0" color="#000"><path d="M335.78 162.5V155m0-109.99v7.5"/><text fill="#000" font-family="KaTeX_Main" font-size="8" text-anchor="middle" transform="translate(335.78 172.6)"><tspan> 9</tspan></text></g><path fill="none" stroke="#CCC" stroke-linecap="round" stroke-linejoin="round" stroke-width=".1" d="M371.99 162.5V45.01" class="c7bab__gridline" color="#000"/><g fill="none" stroke-linecap="round" stroke-linejoin="round" stroke-width="0" color="#000"><path d="M371.99 162.5V155m0-109.99v7.5"/><text fill="#000" font-family="KaTeX_Main" font-size="8" text-anchor="middle" transform="translate(371.99 172.6)"><tspan> 10</tspan></text></g><g fill="none" stroke-linecap="round" stroke-linejoin="round" stroke-width="0" color="#000"><path d="M371.99 162.5h-7.5"/><text fill="#000" font-family="KaTeX_Main" font-size="8" transform="translate(378.99 165.1)"><tspan>0</tspan></text></g><g fill="none" stroke-linecap="round" stroke-linejoin="round" stroke-width="0" color="#000"><path d="M371.99 45.01h-7.5"/><text fill="#000" font-family="KaTeX_Main" font-size="8" transform="translate(378.99 47.61)"><tspan>1</tspan></text></g><path fill="none" d="M28 45.01V162.5M371.99 45.01H28" color="#000"/><text stroke-linecap="round" stroke-linejoin="round" stroke-width="0" color="#000" font-family="KaTeX_Main" font-size="10" text-anchor="middle" transform="rotate(-90 57.63 46.13)"><tspan>log</tspan><tspan dy="3" font-size="8">2</tspan><tspan dy="-3">(</tspan><tspan font-weight="bold">Maximum Path Length </tspan><tspan> / log</tspan><tspan dy="3" font-size="8">2</tspan><tspan dy="-3">(Size))</tspan></text><text stroke-linecap="round" stroke-linejoin="round" stroke-width="0" color="#000" font-family="KaTeX_Main" font-size="10" text-anchor="middle" transform="translate(199.99 195.75)"><tspan>Operations / 10</tspan><tspan dy="-5" font-size="8">6</tspan></text><text stroke-linecap="round" stroke-linejoin="round" color="#000" font-family="KaTeX_Main" font-size="8" transform="translate(71.2 10.11)"><tspan>RedBlackBottomUp</tspan></text><g fill="none" stroke="currentColor" stroke-linecap="round" stroke-linejoin="round" color="#000"><path stroke="#F44336" d="M35.7 7.51h29.9M28 101.08l.36-.99.36.25.37-.99.36.24.36.24.36.23.36.22.37.23.36.22.36.21.36.21.37.21.36.2.36-1.02.36.19.36.2.37.19.36.18.36.19.36.18.36.18.37.17.36.17.36.18.36-1.05.36.17.37.16.36.16.36-1.05.36-1.04.36.16.37.15.36.15.36.15.36.15.37.14.36.15.36.14.36.14.36.13.37.14.36.14.36.13.36.13.36.13.37.13.36.13.36.12.36.13.36-1.07.37.12.36.12.36.12.36.12.37-1.06.36.11.36-1.05.36.11.36.11.37.11.36.11.36.11.36.11.36.11.37.1.36.11.36.1.36-1.06.36.1.37.11.36.1.36.09.36.1.37.1.36-1.06.36.1.36.09.36.1.37.09.36.09.36.1.36.09.36.09.37.09.36.09.36.09.36.09.36.08.37.09.36.08.36.09.36.09.36.08.37.08.36.08.36.09.36.08.37.08.36.08.36.08.36.08.36.08.37.07.36.08.36.08.36.08.36-1.08.37-1.06.36.07.36.08.36.07.36.07.37.08.36.07.36.07.36.07.37.07.36.07.36.07.36.07.36.07.37.07.36.07.36.07.36.07.36.06.37.07.36.07.36.06.36-1.07.36.07.37-1.06.36.06.36.07.36.06.36.06.37.07.36.06.36.06.36.06.37.06.36.07.36.06.36.06.36.06.37.06.36.06.36.06.36.05.36.06.37.06.36.06.36.06.36.05.36.06.37.06.36.06.36.05.36.06.37-1.07.36.06.36.05.36.06.36.05.37.06.36.05.36.05.36.06.36.05.37.05.36.06.36.05.36.05.36.05.37.05.36.06.36.05.36.05.36.05.37.05.36.05.36.05.36.05.37.05.36.05.36.05.36.05.36.05.37.04.36.05.36.05.36.05.36.04.37.05.36-1.06.36.04.36.05.36.05.37.04.36.05.36.05.36.04.37.05.36.04.36.05.36.04.36.05.37.04.36.05.36.04.36.04.36.05.37-1.06.36.04.36.05.36.04.36.04.37.04.36.05.36.04.36.04.37.04.36.05.36.04.36.04.36.04.37.04.36.04.36.04.36.04.36.05.37.04.36.04.36.04.36.04.36.04.37.04.36.04.36.04.36.03.36.04.37.04.36.04.36.04.36.04.37.04.36.04.36.03.36-1.05.36.03.37.04.36.04.36.04.36.03.36.04.37.04.36.04.36.03.36.04.36.04.37.03.36.04.36.03.36.04.37-1.05.36.03.36.04.36.04.36.03.37.04.36.03.36.04.36.03.36.04.37.03.36.04.36.03.36.04.36.03.37.03.36.04.36.03.36.04.36.03.37.03.36.04.36.03.36.03.37.04.36.03.36.03.36.04.36.03.37.03.36.03.36-1.05.36.04.36.03.37.03.36.03.36.04.36.03.36.03.37.03.36.03.36.03.36.04.37.03.36.03.36.03.36.03.36.03.37.03.36.03.36.04.36.03.36.03.37.03.36.03.36.03.36.03.36.03.37.03.36.03.36.03.36.03.36.03.37.03.36.03.36.03.36.03.37.02.36.03.36.03.36.03.36.03.37.03.36.03.36.03.36.03.36.03.37.02.36.03.36-1.05.36.03.36.03.37.03.36.03.36.03.36.02.37.03.36.03.36.03.36.02.36.03.37.03.36.03.36.02.36.03.36.03.37.02.36.03.36.03.36.03.36.02.37.03.36.03.36.02.36.03.37-1.04.36.02.36.03.36.03.36.02.37.03.36.02.36.03.36.03.36.02.37.03.36.02.36.03.36.03.36.02.37.03.36.02.36.03.36.02.36.03.37.02.36.03.36.02.36.03.37.02.36.03.36.02.36.03.36.02.37.03.36.02.36.03.36.02.36.03.37.02.36.02.36.03.36-1.04.36.02.37.03.36.02.36.03.36.02.37.02.36.03.36.02.36.03.36.02.37.02.36.03.36.02.36.02.36.03.37.02.36.02.36.03.36.02.36.02.37.03.36.02.36.02.36.02.36.03.37.02.36.02.36.03.36.02.37.02.36.02.36.03.36.02.36.02.37.02.36.03.36.02.36.02.36.02.37.02.36.03.36.02.36.02.36.02.37.02.36.03.36.02.36.02.37.02.36-1.03.36.02.36.02.36.02.37.02.36.03.36.02.36.02.36.02.37.02.36.02.36.02.36.02.36.03.37.02.36.02.36.02.36.02.37.02.36.02.36.02.36.02.36.02.37.02.36.02.36.02.36.03.36.02.37.02.36.02.36.02.36.02.36.02.37.02.36.02.36.02.36.02.36.02.37.02.36.02.36.02.36.02.37.02.36.02.36.02.36.02.36.02.37.02.36.02.36.02.36.02.36.02.37.02.36.02.36.01.36.02.36.02.37.02.36.02.36.02.36.02.37.02.36.02.36.02.36.02.36.02.37.02.36.01.36.02.36.02.36.02.37.02.36.02.36.02.36.02.36.01.37.02.36.02.36.02.36.02.36.02.37.02.36.01.36.02.36.02.37.02.36.02.36.02.36.02.36.01.37.02.36.02.36.02.36.02.36.01.37.02.36.02.36.02.36.02.36.01.37.02.36.02.36.02.36.02.37.01.36.02.36.02.36.02.36.01.37.02.36.02.36.02.36.01.36.02.37.02.36.02.36.01.36.02.36.02.37.02.36.01.36.02.36.02.36-1.03.37.01.36.02.36.02.36.01.37.02.36-1.02.36.01.36.02.36.02.37.01.36.02.36.02.36.01.36.02.37.02.36.01.36.02.36.02.36.01.37.02.36.02.36.01.36.02.37.02.36.01.36.02.36.02.36.01.37.02.36.02.36.01.36.02.36.01.37.02.36.02.36.01.36.02.36.02.37.01.36.02.36.01.36.02.37-1.02.36.02.36.01.36.02.36.01.37.02.36.02.36.01.36.02.36.01.37.02.36.01.36.02.36.02.36.01.37.02.36.01.36.02.36.01.36.02.37.01.36.02.36.02.36.01.37.02.36.01.36.02.36.01.36.02.37.01.36.02.36.01.36.02.36.01.37.02.36.02.36.01.36.02.36.01.37.02.36.01.36.02.36.01.37.02.36.01.36.02.36.01.36.02.37.01.36.02.36.01.36.02.36.01.37.01.36.02.36.01.36.02.36.01.37.02.36.01.36.02.36.01.36.02.37.01.36.02.36.01.36.01.37.02.36.01.36.02.36.01.36.02.37.01.36.02.36.01.36.01.36.02.37.01.36.02.36.01.36.02.36.01.37.01.36.02.36.01.36.02.37.01.36.02.36.01.36.01.36.02.37.01.36.01.36.02.36.01.36.02.37.01.36.01.36.02.36.01.36.02.37.01.36.01.36.02.36.01.36.01.37.02.36.01.36.02.36.01.37.01.36.02.36.01.36.01.36.02.37.01.36.02.36.01.36.01.36.02.37.01.36.01.36.02.36.01.36.01.37.02.36.01.36.01.36.02.37.01.36.01.36.02.36.01.36.01.37.02.36.01.36.01.36.01.36.02.37.01.36.02.36.01.36.01.36.01.37.02.36.01.36.01.36.02.37.01.36.01.36.01.36.02.36.01.37.01.36.02.36.01.36.01.36.01.37.02.36.01.36.01.36.02.36.01.37.01.36.01.36.02.36-1.02.36.01.37.01.36.02.36.01.36.01.37.01.36.02.36.01.36.01.36.02.37.01.36.01.36.01.36.02.36.01.37.01.36.01.36.01.36.02.36.01.37.01.36.01.36.02.36.01.37.01.36.01.36.02.36.01.36.01.37.01.36.01.36.02.36.01.36.01.37.01.36.01.36.02.36.01.36.01.37-1.01.36.01.36.01.36.02.36.01.37.01.36.01.36.01.36.02.37.01.36.01.36.01.36.01.36.01.37.02.36.01.36.01.36.01.36.01.37.02.36.01.36.01.36.01.36.01.37.01.36.02.36.01.36.01.37.01.36.01.36.02.36.01.36.01.37.01.36.01.36.01.36.01.36.02.37.01.36.01.36.01.36.01.36.01.37.02.36.01.36.01.36.01.36.01.37.01.36.01.36.01.36.02.37.01.36.01.36.01.36.01.36.01.37.01.36.02.36.01.36.01.36.01.37.01.36.01.36.01.36.01.36.02.37.01.36.01.36.01.36.01.37.01.36.01.36.01.36.01.36.01.37.02.36.01.36.01.36.01.36.01.37.01.36.01.36.01.36.01.36.01.37.02.36.01.36.01.36.01.37.01.36.01.36.01.36.01.36.01.37.01.36.01.36.02.36.01.36.01.37.01.36.01.36-1.01.36.01.36.01.37.01.36.01.36.01.36.02.36.01.37.01.36.01.36.01.36.01.37.01.36.01.36.01.36.01.36.01.37.01.36.01.36.01"/><use xlink:href="#c7bab__b" color="#F44336" transform="matrix(3.75 0 0 3.75 354.25 101.61)"/><use xlink:href="#c7bab__b" color="#F44336" transform="matrix(3.75 0 0 3.75 50.65 7.51)"/></g><text stroke-linecap="round" stroke-linejoin="round" color="#000" font-family="KaTeX_Main" font-size="8" transform="translate(71.2 25.11)"><tspan>RedBlackTopDown</tspan></text><g fill="none" stroke="currentColor" stroke-linecap="round" stroke-linejoin="round" color="#000"><path stroke="#3B75EA" d="M35.7 22.51h29.9M28 116.73l.36.26.36-9.06.37 10.93.36-6.52.36 5.62.36-3.82.36 2.91.37-2.46.36 4.27.36-2.5.36 1.56.37-6.44.36 1.51.36 1.52.36 5.58.36-2.52.37.19.36 1.54.36-1.17.36-6.41.36-2.39.37 1.45.36 2.76.36-3.69.36 1.44.36 1.46.37-3.68.36.16.36 2.71.36 1.45.36 2.76.37-1.15.36-1.15.36.15.36 2.75.37-1.16.36 2.77.36-5.08.36 4.04.36.14.37 2.78.36.14.36-1.2.36-2.49.36-5.01.37 2.68.36 2.71.36-2.46.36 1.42.36 1.42.37-3.75.36 3.99.36-10 .36-4.73.37 13.79.36-4.99.36 6.52.36-1.19.36 1.41.37-7.54.36.12.36 1.36.36 6.5.36-3.76.37 5.28.36-3.79.36-4.96.36 5.17.36.1.37-7.43.36 3.82.36-1.15.36 5.16.37-2.45.36 3.94.36-6.26.36 5.16.36-3.72.37 1.36.36-2.42.36-2.38.36 8.91.36-1.2.37 1.38.36-2.48.36 2.66.36-6.26.36 6.44.37-2.49.36-3.69.36.08.36-1.15.36 3.83.37-2.42.36 7.73.36-2.51.36-1.2.37-2.45.36 1.34.36-6.13.36 7.56.36-6.17.37 6.33.36-7.4.36 5.02.36-6.08.36-4.7.37 8.52.36 1.32.36 2.58.36 2.62.36-3.73.37-2.42.36 3.82.36-3.68.36-1.16.37-1.15.36-2.35.36 3.71.36 1.31.36-6.01.37.07.36 1.26.36 4.95.36-4.81.36-1.13.37 7.38.36-6.05.36 4.95.36-4.82.36 2.49.37 2.52.36-1.17.36 1.3.36.06.36 1.31.37.06.36-3.64.36 2.52.36-8.38.37 7.27.36-3.58.36 1.27.36 3.73.36.06.37-6.02.36 2.47.36 3.73.36-6.02.36 4.9.37.06.36-4.78.36 1.25.36 2.48.36-1.16.37-4.72.36 2.43.36 1.25.36 6.18.37 2.57.36-2.46.36-3.64.36 7.53.36-7.42.37-2.37.36-1.14.36 1.25.36 7.42.36 1.32.37-3.7.36-1.18.36-4.8.36 8.63.36-6.12.37 1.27.36-3.57.36 4.9.36-5.99.36 3.65.37-2.36.36 1.25.36 1.26.36 1.26.37.05.36-3.57.36 7.37.36-4.86.36-1.16.37-3.52.36 2.42.36 3.66.36-3.57.36 4.89.37-2.39.36 2.49.36-2.39.36.04.36-8.22.37 1.2.36 5.95.36.05.36-1.15.37-1.15.36.05.36 1.23.36-5.82.36.05.37 2.37.36 2.39.36 7.31.36-6.03.36.05.37 9.87.36-1.22.36-4.91.36-2.37.36.04.37-2.34.36 4.85.36-3.58.36 2.45.37.04.36 3.71.36-7.22.36.04.36.04.37 8.55.36-9.65.36 7.26.36-7.18.36 7.26.37-2.4.36-2.36.36-2.33.36 1.22.36-1.14.37.04.36-2.3.36 8.37.36 2.49.36-7.22.37.04.36 2.42.36-5.87.36 4.75.37-2.33.36 1.22.36-2.32.36.04.36.04.37.04.36 3.58.36-8.12.36 8.19.36 4.88.37-2.4.36-1.17.36-8.17.36 7.05.36 1.23.37-4.7.36.03.36 3.58.36-2.33.37 3.6.36-2.35.36.04.36 1.22.36-3.51.37.04.36.04.36 8.42.36-3.61.36-3.54.37 1.22.36-3.49.36 5.95.36-1.17.36 1.24.37-1.17.36 1.23.36-3.53.36.03.36-4.61.37 4.68.36-1.14.36 3.58.36-2.34.37 2.4.36-4.67.36 8.36.36-4.77.36-2.33.37-2.29.36 7.1.36-1.16.36-4.68.36 2.37.37 2.4.36-8.12.36 9.38.36-7.03.36 5.9.37 3.65.36-3.59.36-1.15.36-2.33.37 4.78.36-5.88.36-2.27.36 5.85.36-4.64.37 3.52.36 2.41.36-2.34.36-1.15.36-4.58.37 5.82.36 1.21.36 2.42.36-2.36.36-3.49.37 2.37.36-1.15.36 5.98.36-8.24.36 4.71.37-2.33.36-1.13.36-4.55.36 6.95.37-1.15.36.03.36-5.72.36 4.61.36-1.12.37 4.7.36-2.32.36-1.14.36 2.37.36-3.47.37.03.36-1.12.36 1.18.36-1.13.36-1.11.37 1.17.36-1.11.36 4.64.36 2.38.37 2.42.36-7.04.36 1.18.36-2.27.36 3.49.37-3.44.36 2.33.36.03.36 2.37.36-8.02.37 3.43.36-3.38.36 4.58.36-1.12.36-3.38.37-1.09.36 5.7.36-1.13.36-4.49.37 9.19.36-2.31.36 2.36.36 1.21.36-2.33.37.03.36 3.57.36-4.68.36-1.13.36 3.52.37-3.47.36-1.12.36 1.17.36 5.89.36-5.84.37.03.36 2.34.36-1.13.36-2.29.36-1.11.37 2.31.36-2.26.36 2.31.36-1.12.37-5.61.36 4.52.36 1.16.36-1.11.36 3.47.37 5.93.36-1.17.36-1.17.36-3.49.36.02.37 2.37.36-4.62.36 1.17.36-1.13.36 2.33.37 2.37.36.02.36-2.31.36-3.43.37 3.47.36-3.42.36 3.47.36 2.36.36 1.21.37-4.65.36 1.18.36-5.69.36.03.36 3.42.37 4.67.36 1.2.36-3.49.36.02.36 3.54.37-9.2.36 6.89.36-5.72.36 5.77.36-2.3.37-1.13.36 1.18.36 7.08.36-3.54.37-5.77.36.03.36.02.36 1.16.36-3.38.37 3.43.36-2.26.36 2.3.36-3.38.36-1.09.37.02.36 6.85.36 7.13.36-4.75.36 1.2.37-3.49.36 4.73.36-5.85.36 4.7.37-6.95.36 4.64.36-3.45.36.02.36-3.38.37.02.36 3.43.36 3.49.36-1.15.36-1.13.37-1.13.36 3.49.36-2.3.36-1.13.36 1.17.37-3.4.36-1.1.36-1.1.36 3.4.37 5.8.36-1.15.36.02.36-1.14.36 2.36.37-3.48.36 1.18.36-3.43.36 5.81.36-6.9.37 2.3.36-5.61.36 9.12.36-4.59.36-2.24.37 3.42.36 2.33.36-5.69.36.02.36.02.37 4.57.36.02.36-6.76.36.02.37 10.29.36-4.62.36 1.17.36-2.27.36 4.63.37 1.19.36-8.02.36 2.28.36 1.16.36-1.12.37-1.12.36-1.11.36 4.58.36 3.51.36-3.48.37-2.27.36.02.36 1.16.36 1.17.37-7.86.36 6.75.36-4.5.36 5.69.36-5.65.37-1.1.36 1.14.36-5.47.36 6.62.36 5.73.37.02.36-1.14.36 2.34.36-4.59.36 1.16.37-3.39.36-1.1.36 5.69.36-4.53.36 1.14.37-3.33.36 2.24.36 2.28.36-3.36.37 1.14.36 3.42.36-2.26.36 2.3.36-3.39.37 1.15.36-2.23.36-1.09.36.02.36.01.37 1.13.36 6.85.36-3.43.36 1.16.36-4.51.37-1.09.36 3.38.36-1.11.36 4.57.37-7.87.36 5.61.36 1.16.36-4.5.36.01.37-4.38.36 7.8.36-2.24.36-2.22.36 1.13.37 4.54.36-5.61.36.01.36-2.18.36 3.33.37 3.4.36-4.48.36 2.25.36.02.36 5.72.37-3.43.36-2.24.36 3.42.36-3.39.37 4.57.36-5.65.36 3.39.36-4.47.36 5.65.37-6.72.36.02.36 4.48.36.01.36 2.29.37-3.38.36.02.36-1.11.36 4.54.36-1.12.37-2.25.36-3.32.36.02.36 2.23.37-3.29.36 9 .36-1.14.36 7.04.36-3.53.37 1.19.36-5.77.36-2.25.36 8.07.36-2.33.37-5.69.36 3.42.36-4.5.36 3.39.36-1.12.37 4.6.36-3.43.36-1.12.36.02.37 3.44.36-1.14.36-5.61.36 3.37.36.02.37-3.34.36 2.24.36-2.21.36.02.36 9.11.37-6.85.36 3.41.36 3.49.36-3.45.36-1.13.37-6.68.36 11.32.36-2.3.36-4.54.36.02.37.01.36 1.15.36 2.29.36-3.39.37 3.42.36-1.13.36 1.16.36-6.72.36.01.37 2.23.36.02.36-3.3.36 6.71.36-3.37.37 1.14.36 2.27.36 2.31.36-3.41.36.02.37.01.36 1.15.36-2.25.36.02.37 2.27.36-3.36.36-1.1.36-2.18.36 1.11.37 7.9.36-6.77.36 4.51.36-4.48.36 4.51.37-4.48.36.02.36-1.09.36 5.61.36-2.25.37-1.1.36-3.3.36 3.33.36-9.74.36 9.77.37 3.39.36-1.12.36 3.44.36-2.28.37-3.36.36 3.39.36-1.12.36-2.23.36 1.14.37 1.14.36-3.35.36-1.09.36 4.48.36-3.34.37 4.5.36-5.58.36-1.08.36 1.11.36 5.61.37-2.25.36-6.59.36 8.88.36-3.36.37-1.1.36-3.28.36 4.42.36.01.36-2.2.37 6.75.36-3.39.36 2.28.36 1.15.36-6.72.37 5.61.36-5.58.36 5.61.36.01.36-3.36.37 3.39.36.01.36-3.36.36-1.1.36 3.37.37-2.23.36 2.26.36-3.35.36 1.13.37-3.3.36 4.45.36 3.41.36-7.82.36 6.71.37-4.48.36 3.37.36-1.11.36 3.41.36-3.39.37 8.06.36-8.03.36.01.36-5.5.36 3.3.37 2.24.36-3.32.36 1.12.36 3.37.37-2.23.36.01.36-3.3.36 4.45.36-5.51.37 4.42.36-4.39.36 2.2.36 1.11.36-4.36.37 2.19.36 3.32.36-3.29.36-2.17.36 1.1.37 4.42.36-2.21.36 3.35.36-2.22.37 2.25.36-5.51.36.01.36.02.36 4.41.37 1.13.36 1.14.36-5.54.36-3.24.36 2.17.37 1.1.36-4.3.36 7.64.36 2.26.36-3.34.37-2.19.36-2.16.36 1.09.36 7.8.36.01.37.01.36-3.36.36 1.13.36-3.32.37.01.36 1.12.36.01.36.01.36 5.65.37-5.62.36 3.37.36 1.14.36.01.36-4.47.37-1.1.36-1.08.36 3.32.36-1.09.36 2.24.37-5.51.36 7.79.36-5.58.36.01.37-4.33.36 5.46.36 2.24.36-3.32.36 2.23.37 1.13.36-1.1.36-4.4.36 4.42.36-1.1.37-1.09.36 6.75.36-2.27.36 1.15.36-6.68.37 4.44.36.01.36.02.36 2.27.36-2.25.37-1.11.36 2.26.36-2.23.36-1.1.37-5.44.36 8.82.36-3.35.36.02.36.01.37 3.37.36.01.36-1.12.36-3.32.36.01.37 5.61.36-3.37.36 2.26.36-5.55.36 3.33.37 3.39.36-2.25.36 2.27.36-3.37.37.02.36.01.36-2.21.36 2.23.36 1.13.37-3.32.36 5.6.36-6.68.36-1.07.36-1.08.37 5.5.36-1.1.36.01.36.02.36 6.79.37-7.88.36.02.36-5.41.36 9.89.36-5.55.37.01.36-1.07.36 5.53.36-4.42.37-1.08.36 6.66.36-1.12.36 1.14.36-3.34.37-3.28.36 3.3.36 1.12.36-4.39.36 1.1.37.01.36-1.08.36-1.07.36 5.5.36 1.13.37 1.14.36-1.12.36-2.22.36 2.24.37-3.32.36.01.36.01.36 3.35.36-4.42.37 2.21.36-4.36.36 5.49.36-3.3.36.01.37.01.36 4.45.36-2.22.36 2.24.36-1.11.37-3.3.36-1.08.36 3.3.36-2.19.37.01.36 3.32.36 1.14.36-2.22.36-4.37.37 2.18.36.02.36-2.17.36 4.39.36-3.28.37 4.41.36-2.2.36 2.22.36-8.68.36 2.14.37 1.09.36 3.28.36-5.4.36 3.24.36 6.65.37-1.11.36-4.42.36.01.36-3.24.37 6.57.36-1.1.36-5.44.36 3.26.36 6.7.37-2.25.36-4.42.36.01"/><use xlink:href="#c7bab__c" color="#3B75EA" transform="matrix(3.75 0 0 3.75 67.83 117.98)"/><use xlink:href="#c7bab__c" color="#3B75EA" transform="matrix(3.75 0 0 3.75 50.65 22.51)"/></g><text stroke-linecap="round" stroke-linejoin="round" color="#000" font-family="KaTeX_Main" font-size="8" transform="translate(241.1 10.11)"><tspan>RedBlackRelaxedBottomUp</tspan></text><g fill="none" stroke="currentColor" stroke-linecap="round" stroke-linejoin="round" color="#000"><path stroke="#EC6F1A" stroke-dasharray="1.0,2.0" d="M205.6 7.51h29.9M28 101.08l.36-.99.36.25.37-.99.36.24.36.24.36.23.36.22.37.23.36.22.36.21.36.21.37.21.36.2.36-1.02.36.19.36.2.37.19.36.18.36.19.36.18.36.18.37.17.36.17.36.18.36-1.05.36.17.37.16.36.16.36-1.05.36-1.04.36.16.37.15.36.15.36.15.36.15.37.14.36.15.36.14.36.14.36.13.37.14.36.14.36.13.36.13.36.13.37.13.36.13.36.12.36.13.36-1.07.37.12.36.12.36.12.36.12.37-1.06.36.11.36-1.05.36.11.36.11.37.11.36.11.36.11.36.11.36.11.37.1.36.11.36.1.36-1.06.36.1.37.11.36.1.36.09.36.1.37.1.36-1.06.36.1.36.09.36.1.37.09.36.09.36.1.36.09.36.09.37.09.36.09.36.09.36.09.36.08.37.09.36.08.36.09.36.09.36.08.37.08.36.08.36.09.36.08.37.08.36.08.36.08.36.08.36.08.37.07.36.08.36.08.36.08.36-1.08.37-1.06.36.07.36.08.36.07.36.07.37.08.36.07.36.07.36.07.37.07.36.07.36.07.36.07.36.07.37.07.36.07.36.07.36.07.36.06.37.07.36.07.36.06.36-1.07.36.07.37-1.06.36.06.36.07.36.06.36.06.37.07.36.06.36.06.36.06.37.06.36.07.36.06.36.06.36.06.37.06.36.06.36.06.36.05.36.06.37.06.36.06.36.06.36.05.36.06.37.06.36.06.36.05.36.06.37-1.07.36.06.36.05.36.06.36.05.37.06.36.05.36.05.36.06.36.05.37.05.36.06.36.05.36.05.36.05.37.05.36.06.36.05.36.05.36.05.37.05.36.05.36.05.36.05.37.05.36.05.36.05.36.05.36.05.37.04.36.05.36.05.36.05.36.04.37.05.36-1.06.36.04.36.05.36.05.37.04.36.05.36.05.36.04.37.05.36.04.36.05.36.04.36.05.37.04.36.05.36.04.36.04.36.05.37-1.06.36.04.36.05.36.04.36.04.37.04.36.05.36.04.36.04.37.04.36.05.36.04.36.04.36.04.37.04.36.04.36.04.36.04.36.05.37.04.36.04.36.04.36.04.36.04.37.04.36.04.36.04.36.03.36.04.37.04.36.04.36.04.36.04.37.04.36.04.36.03.36-1.05.36.03.37.04.36.04.36.04.36.03.36.04.37.04.36.04.36.03.36.04.36.04.37.03.36.04.36.03.36.04.37-1.05.36.03.36.04.36.04.36.03.37.04.36.03.36.04.36.03.36.04.37.03.36.04.36.03.36.04.36.03.37.03.36.04.36.03.36.04.36.03.37.03.36.04.36.03.36.03.37.04.36.03.36.03.36.04.36.03.37.03.36.03.36-1.05.36.04.36.03.37.03.36.03.36.04.36.03.36.03.37.03.36.03.36.03.36.04.37.03.36.03.36.03.36.03.36.03.37.03.36.03.36.04.36.03.36.03.37.03.36.03.36.03.36.03.36.03.37.03.36.03.36.03.36.03.36.03.37.03.36.03.36.03.36.03.37.02.36.03.36.03.36.03.36.03.37.03.36.03.36.03.36.03.36.03.37.02.36.03.36-1.05.36.03.36.03.37.03.36.03.36.03.36.02.37.03.36.03.36.03.36.02.36.03.37.03.36.03.36.02.36.03.36.03.37.02.36.03.36.03.36.03.36.02.37.03.36.03.36.02.36.03.37-1.04.36.02.36.03.36.03.36.02.37.03.36.02.36.03.36.03.36.02.37.03.36.02.36.03.36.03.36.02.37.03.36.02.36.03.36.02.36.03.37.02.36.03.36.02.36.03.37.02.36.03.36.02.36.03.36.02.37.03.36.02.36.03.36.02.36.03.37.02.36.02.36.03.36-1.04.36.02.37.03.36.02.36.03.36.02.37.02.36.03.36.02.36.03.36.02.37.02.36.03.36.02.36.02.36.03.37.02.36.02.36.03.36.02.36.02.37.03.36.02.36.02.36.02.36.03.37.02.36.02.36.03.36.02.37.02.36.02.36.03.36.02.36.02.37.02.36.03.36.02.36.02.36.02.37.02.36.03.36.02.36.02.36.02.37.02.36.03.36.02.36.02.37.02.36-1.03.36.02.36.02.36.02.37.02.36.03.36.02.36.02.36.02.37.02.36.02.36.02.36.02.36.03.37.02.36.02.36.02.36.02.37.02.36.02.36.02.36.02.36.02.37.02.36.02.36.02.36.03.36.02.37.02.36.02.36.02.36.02.36.02.37.02.36.02.36.02.36.02.36.02.37.02.36.02.36.02.36.02.37.02.36.02.36.02.36.02.36.02.37.02.36.02.36.02.36.02.36.02.37.02.36.02.36.01.36.02.36.02.37.02.36.02.36.02.36.02.37.02.36.02.36.02.36.02.36.02.37.02.36.01.36.02.36.02.36.02.37.02.36.02.36.02.36.02.36.01.37.02.36.02.36.02.36.02.36.02.37.02.36.01.36.02.36.02.37.02.36.02.36.02.36.02.36.01.37.02.36.02.36.02.36.02.36.01.37.02.36.02.36.02.36.02.36.01.37.02.36.02.36.02.36.02.37.01.36.02.36.02.36.02.36.01.37.02.36.02.36.02.36.01.36.02.37.02.36.02.36.01.36.02.36.02.37.02.36.01.36.02.36.02.36-1.03.37.01.36.02.36.02.36.01.37.02.36-1.02.36.01.36.02.36.02.37.01.36.02.36.02.36.01.36.02.37.02.36.01.36.02.36.02.36.01.37.02.36.02.36.01.36.02.37.02.36.01.36.02.36.02.36.01.37.02.36.02.36.01.36.02.36.01.37.02.36.02.36.01.36.02.36.02.37.01.36.02.36.01.36.02.37-1.02.36.02.36.01.36.02.36.01.37.02.36.02.36.01.36.02.36.01.37.02.36.01.36.02.36.02.36.01.37.02.36.01.36.02.36.01.36.02.37.01.36.02.36.02.36.01.37.02.36.01.36.02.36.01.36.02.37.01.36.02.36.01.36.02.36.01.37.02.36.02.36.01.36.02.36.01.37.02.36.01.36.02.36.01.37.02.36.01.36.02.36.01.36.02.37.01.36.02.36.01.36.02.36.01.37.01.36.02.36.01.36.02.36.01.37.02.36.01.36.02.36.01.36.02.37.01.36.02.36.01.36.01.37.02.36.01.36.02.36.01.36.02.37.01.36.02.36.01.36.01.36.02.37.01.36.02.36.01.36.02.36.01.37.01.36.02.36.01.36.02.37.01.36.02.36.01.36.01.36.02.37.01.36.01.36.02.36.01.36.02.37.01.36.01.36.02.36.01.36.02.37.01.36.01.36.02.36.01.36.01.37.02.36.01.36.02.36.01.37.01.36.02.36.01.36.01.36.02.37.01.36.02.36.01.36.01.36.02.37.01.36.01.36.02.36.01.36.01.37.02.36.01.36.01.36.02.37.01.36.01.36.02.36.01.36.01.37.02.36.01.36.01.36.01.36.02.37.01.36.02.36.01.36.01.36.01.37.02.36.01.36.01.36.02.37.01.36.01.36.01.36.02.36.01.37.01.36.02.36.01.36.01.36.01.37.02.36.01.36.01.36.02.36.01.37.01.36.01.36.02.36-1.02.36.01.37.01.36.02.36.01.36.01.37.01.36.02.36.01.36.01.36.02.37.01.36.01.36.01.36.02.36.01.37.01.36.01.36.01.36.02.36.01.37.01.36.01.36.02.36.01.37.01.36.01.36.02.36.01.36.01.37.01.36.01.36.02.36.01.36.01.37.01.36.01.36.02.36.01.36.01.37-1.01.36.01.36.01.36.02.36.01.37.01.36.01.36.01.36.02.37.01.36.01.36.01.36.01.36.01.37.02.36.01.36.01.36.01.36.01.37.02.36.01.36.01.36.01.36.01.37.01.36.02.36.01.36.01.37.01.36.01.36.02.36.01.36.01.37.01.36.01.36.01.36.01.36.02.37.01.36.01.36.01.36.01.36.01.37.02.36.01.36.01.36.01.36.01.37.01.36.01.36.01.36.02.37.01.36.01.36.01.36.01.36.01.37.01.36.02.36.01.36.01.36.01.37.01.36.01.36.01.36.01.36.02.37.01.36.01.36.01.36.01.37.01.36.01.36.01.36.01.36.01.37.02.36.01.36.01.36.01.36.01.37.01.36.01.36.01.36.01.36.01.37.02.36.01.36.01.36.01.37.01.36.01.36.01.36.01.36.01.37.01.36.01.36.02.36.01.36.01.37.01.36.01.36-1.01.36.01.36.01.37.01.36.01.36.01.36.02.36.01.37.01.36.01.36.01.36.01.37.01.36.01.36.01.36.01.36.01.37.01.36.01.36.01"/><use xlink:href="#c7bab__a" color="#EC6F1A" transform="matrix(3.75 0 0 3.75 125.4 100.21)"/><use xlink:href="#c7bab__a" color="#EC6F1A" transform="matrix(3.75 0 0 3.75 220.55 7.51)"/></g><text stroke-linecap="round" stroke-linejoin="round" color="#000" font-family="KaTeX_Main" font-size="8" transform="translate(241.1 25.11)"><tspan>RedBlackRelaxedTopDown</tspan></text><g fill="none" stroke="currentColor" stroke-linecap="round" stroke-linejoin="round" color="#000"><path stroke="violet" stroke-dasharray="4.0,2.0,1.0,2.0" d="M205.6 22.51h29.9M28 116.73l.36.26.36-9.06.37 10.93.36-6.52.36 5.62.36-3.82.36 2.91.37-2.46.36 4.27.36-2.5.36 1.56.37-6.44.36 1.51.36 1.52.36 5.58.36-2.52.37.19.36 1.54.36-1.17.36-6.41.36-2.39.37 1.45.36 2.76.36-3.69.36 1.44.36 1.46.37-3.68.36.16.36 2.71.36 1.45.36 2.76.37-1.15.36-1.15.36.15.36 2.75.37-1.16.36 2.77.36-5.08.36 4.04.36.14.37 2.78.36.14.36-1.2.36-2.49.36-5.01.37 2.68.36 2.71.36-2.46.36 1.42.36 1.42.37-3.75.36 3.99.36-10 .36-4.73.37 13.79.36-4.99.36 6.52.36-1.19.36 1.41.37-7.54.36.12.36 1.36.36 6.5.36-3.76.37 5.28.36-3.79.36-4.96.36 5.17.36.1.37-7.43.36 3.82.36-1.15.36 5.16.37-2.45.36 3.94.36-6.26.36 5.16.36-3.72.37 1.36.36-2.42.36-2.38.36 8.91.36-1.2.37 1.38.36-2.48.36 2.66.36-6.26.36 6.44.37-2.49.36-3.69.36.08.36-1.15.36 3.83.37-2.42.36 7.73.36-2.51.36-1.2.37-2.45.36 1.34.36-6.13.36 7.56.36-6.17.37 6.33.36-7.4.36 5.02.36-6.08.36-4.7.37 8.52.36 1.32.36 2.58.36 2.62.36-3.73.37-2.42.36 3.82.36-3.68.36-1.16.37-1.15.36-2.35.36 3.71.36 1.31.36-6.01.37.07.36 1.26.36 4.95.36-4.81.36-1.13.37 7.38.36-6.05.36 4.95.36-4.82.36 2.49.37 2.52.36-1.17.36 1.3.36.06.36 1.31.37.06.36-3.64.36 2.52.36-8.38.37 7.27.36-3.58.36 1.27.36 3.73.36.06.37-6.02.36 2.47.36 3.73.36-6.02.36 4.9.37.06.36-4.78.36 1.25.36 2.48.36-1.16.37-4.72.36 2.43.36 1.25.36 6.18.37 2.57.36-2.46.36-3.64.36 7.53.36-7.42.37-2.37.36-1.14.36 1.25.36 7.42.36 1.32.37-3.7.36-1.18.36-4.8.36 8.63.36-6.12.37 1.27.36-3.57.36 4.9.36-5.99.36 3.65.37-2.36.36 1.25.36 1.26.36 1.26.37.05.36-3.57.36 7.37.36-4.86.36-1.16.37-3.52.36 2.42.36 3.66.36-3.57.36 4.89.37-2.39.36 2.49.36-2.39.36.04.36-8.22.37 1.2.36 5.95.36.05.36-1.15.37-1.15.36.05.36 1.23.36-5.82.36.05.37 2.37.36 2.39.36 7.31.36-6.03.36.05.37 9.87.36-1.22.36-4.91.36-2.37.36.04.37-2.34.36 4.85.36-3.58.36 2.45.37.04.36 3.71.36-7.22.36.04.36.04.37 8.55.36-9.65.36 7.26.36-7.18.36 7.26.37-2.4.36-2.36.36-2.33.36 1.22.36-1.14.37.04.36-2.3.36 8.37.36 2.49.36-7.22.37.04.36 2.42.36-5.87.36 4.75.37-2.33.36 1.22.36-2.32.36.04.36.04.37.04.36 3.58.36-8.12.36 8.19.36 4.88.37-2.4.36-1.17.36-8.17.36 7.05.36 1.23.37-4.7.36.03.36 3.58.36-2.33.37 3.6.36-2.35.36.04.36 1.22.36-3.51.37.04.36.04.36 8.42.36-3.61.36-3.54.37 1.22.36-3.49.36 5.95.36-1.17.36 1.24.37-1.17.36 1.23.36-3.53.36.03.36-4.61.37 4.68.36-1.14.36 3.58.36-2.34.37 2.4.36-4.67.36 8.36.36-4.77.36-2.33.37-2.29.36 7.1.36-1.16.36-4.68.36 2.37.37 2.4.36-8.12.36 9.38.36-7.03.36 5.9.37 3.65.36-3.59.36-1.15.36-2.33.37 4.78.36-5.88.36-2.27.36 5.85.36-4.64.37 3.52.36 2.41.36-2.34.36-1.15.36-4.58.37 5.82.36 1.21.36 2.42.36-2.36.36-3.49.37 2.37.36-1.15.36 5.98.36-8.24.36 4.71.37-2.33.36-1.13.36-4.55.36 6.95.37-1.15.36.03.36-5.72.36 4.61.36-1.12.37 4.7.36-2.32.36-1.14.36 2.37.36-3.47.37.03.36-1.12.36 1.18.36-1.13.36-1.11.37 1.17.36-1.11.36 4.64.36 2.38.37 2.42.36-7.04.36 1.18.36-2.27.36 3.49.37-3.44.36 2.33.36.03.36 2.37.36-8.02.37 3.43.36-3.38.36 4.58.36-1.12.36-3.38.37-1.09.36 5.7.36-1.13.36-4.49.37 9.19.36-2.31.36 2.36.36 1.21.36-2.33.37.03.36 3.57.36-4.68.36-1.13.36 3.52.37-3.47.36-1.12.36 1.17.36 5.89.36-5.84.37.03.36 2.34.36-1.13.36-2.29.36-1.11.37 2.31.36-2.26.36 2.31.36-1.12.37-5.61.36 4.52.36 1.16.36-1.11.36 3.47.37 5.93.36-1.17.36-1.17.36-3.49.36.02.37 2.37.36-4.62.36 1.17.36-1.13.36 2.33.37 2.37.36.02.36-2.31.36-3.43.37 3.47.36-3.42.36 3.47.36 2.36.36 1.21.37-4.65.36 1.18.36-5.69.36.03.36 3.42.37 4.67.36 1.2.36-3.49.36.02.36 3.54.37-9.2.36 6.89.36-5.72.36 5.77.36-2.3.37-1.13.36 1.18.36 7.08.36-3.54.37-5.77.36.03.36.02.36 1.16.36-3.38.37 3.43.36-2.26.36 2.3.36-3.38.36-1.09.37.02.36 6.85.36 7.13.36-4.75.36 1.2.37-3.49.36 4.73.36-5.85.36 4.7.37-6.95.36 4.64.36-3.45.36.02.36-3.38.37.02.36 3.43.36 3.49.36-1.15.36-1.13.37-1.13.36 3.49.36-2.3.36-1.13.36 1.17.37-3.4.36-1.1.36-1.1.36 3.4.37 5.8.36-1.15.36.02.36-1.14.36 2.36.37-3.48.36 1.18.36-3.43.36 5.81.36-6.9.37 2.3.36-5.61.36 9.12.36-4.59.36-2.24.37 3.42.36 2.33.36-5.69.36.02.36.02.37 4.57.36.02.36-6.76.36.02.37 10.29.36-4.62.36 1.17.36-2.27.36 4.63.37 1.19.36-8.02.36 2.28.36 1.16.36-1.12.37-1.12.36-1.11.36 4.58.36 3.51.36-3.48.37-2.27.36.02.36 1.16.36 1.17.37-7.86.36 6.75.36-4.5.36 5.69.36-5.65.37-1.1.36 1.14.36-5.47.36 6.62.36 5.73.37.02.36-1.14.36 2.34.36-4.59.36 1.16.37-3.39.36-1.1.36 5.69.36-4.53.36 1.14.37-3.33.36 2.24.36 2.28.36-3.36.37 1.14.36 3.42.36-2.26.36 2.3.36-3.39.37 1.15.36-2.23.36-1.09.36.02.36.01.37 1.13.36 6.85.36-3.43.36 1.16.36-4.51.37-1.09.36 3.38.36-1.11.36 4.57.37-7.87.36 5.61.36 1.16.36-4.5.36.01.37-4.38.36 7.8.36-2.24.36-2.22.36 1.13.37 4.54.36-5.61.36.01.36-2.18.36 3.33.37 3.4.36-4.48.36 2.25.36.02.36 5.72.37-3.43.36-2.24.36 3.42.36-3.39.37 4.57.36-5.65.36 3.39.36-4.47.36 5.65.37-6.72.36.02.36 4.48.36.01.36 2.29.37-3.38.36.02.36-1.11.36 4.54.36-1.12.37-2.25.36-3.32.36.02.36 2.23.37-3.29.36 9 .36-1.14.36 7.04.36-3.53.37 1.19.36-5.77.36-2.25.36 8.07.36-2.33.37-5.69.36 3.42.36-4.5.36 3.39.36-1.12.37 4.6.36-3.43.36-1.12.36.02.37 3.44.36-1.14.36-5.61.36 3.37.36.02.37-3.34.36 2.24.36-2.21.36.02.36 9.11.37-6.85.36 3.41.36 3.49.36-3.45.36-1.13.37-6.68.36 11.32.36-2.3.36-4.54.36.02.37.01.36 1.15.36 2.29.36-3.39.37 3.42.36-1.13.36 1.16.36-6.72.36.01.37 2.23.36.02.36-3.3.36 6.71.36-3.37.37 1.14.36 2.27.36 2.31.36-3.41.36.02.37.01.36 1.15.36-2.25.36.02.37 2.27.36-3.36.36-1.1.36-2.18.36 1.11.37 7.9.36-6.77.36 4.51.36-4.48.36 4.51.37-4.48.36.02.36-1.09.36 5.61.36-2.25.37-1.1.36-3.3.36 3.33.36-9.74.36 9.77.37 3.39.36-1.12.36 3.44.36-2.28.37-3.36.36 3.39.36-1.12.36-2.23.36 1.14.37 1.14.36-3.35.36-1.09.36 4.48.36-3.34.37 4.5.36-5.58.36-1.08.36 1.11.36 5.61.37-2.25.36-6.59.36 8.88.36-3.36.37-1.1.36-3.28.36 4.42.36.01.36-2.2.37 6.75.36-3.39.36 2.28.36 1.15.36-6.72.37 5.61.36-5.58.36 5.61.36.01.36-3.36.37 3.39.36.01.36-3.36.36-1.1.36 3.37.37-2.23.36 2.26.36-3.35.36 1.13.37-3.3.36 4.45.36 3.41.36-7.82.36 6.71.37-4.48.36 3.37.36-1.11.36 3.41.36-3.39.37 8.06.36-8.03.36.01.36-5.5.36 3.3.37 2.24.36-3.32.36 1.12.36 3.37.37-2.23.36.01.36-3.3.36 4.45.36-5.51.37 4.42.36-4.39.36 2.2.36 1.11.36-4.36.37 2.19.36 3.32.36-3.29.36-2.17.36 1.1.37 4.42.36-2.21.36 3.35.36-2.22.37 2.25.36-5.51.36.01.36.02.36 4.41.37 1.13.36 1.14.36-5.54.36-3.24.36 2.17.37 1.1.36-4.3.36 7.64.36 2.26.36-3.34.37-2.19.36-2.16.36 1.09.36 7.8.36.01.37.01.36-3.36.36 1.13.36-3.32.37.01.36 1.12.36.01.36.01.36 5.65.37-5.62.36 3.37.36 1.14.36.01.36-4.47.37-1.1.36-1.08.36 3.32.36-1.09.36 2.24.37-5.51.36 7.79.36-5.58.36.01.37-4.33.36 5.46.36 2.24.36-3.32.36 2.23.37 1.13.36-1.1.36-4.4.36 4.42.36-1.1.37-1.09.36 6.75.36-2.27.36 1.15.36-6.68.37 4.44.36.01.36.02.36 2.27.36-2.25.37-1.11.36 2.26.36-2.23.36-1.1.37-5.44.36 8.82.36-3.35.36.02.36.01.37 3.37.36.01.36-1.12.36-3.32.36.01.37 5.61.36-3.37.36 2.26.36-5.55.36 3.33.37 3.39.36-2.25.36 2.27.36-3.37.37.02.36.01.36-2.21.36 2.23.36 1.13.37-3.32.36 5.6.36-6.68.36-1.07.36-1.08.37 5.5.36-1.1.36.01.36.02.36 6.79.37-7.88.36.02.36-5.41.36 9.89.36-5.55.37.01.36-1.07.36 5.53.36-4.42.37-1.08.36 6.66.36-1.12.36 1.14.36-3.34.37-3.28.36 3.3.36 1.12.36-4.39.36 1.1.37.01.36-1.08.36-1.07.36 5.5.36 1.13.37 1.14.36-1.12.36-2.22.36 2.24.37-3.32.36.01.36.01.36 3.35.36-4.42.37 2.21.36-4.36.36 5.49.36-3.3.36.01.37.01.36 4.45.36-2.22.36 2.24.36-1.11.37-3.3.36-1.08.36 3.3.36-2.19.37.01.36 3.32.36 1.14.36-2.22.36-4.37.37 2.18.36.02.36-2.17.36 4.39.36-3.28.37 4.41.36-2.2.36 2.22.36-8.68.36 2.14.37 1.09.36 3.28.36-5.4.36 3.24.36 6.65.37-1.11.36-4.42.36.01.36-3.24.37 6.57.36-1.1.36-5.44.36 3.26.36 6.7.37-2.25.36-4.42.36.01"/><use xlink:href="#c7bab__d" color="violet" transform="matrix(3.75 0 0 3.75 182.98 110.25)"/><use xlink:href="#c7bab__d" color="violet" transform="matrix(3.75 0 0 3.75 220.55 22.51)"/></g><path fill="none" d="M28 45.01V162.5M371.99 45.01H28" color="#000"/></svg>