<svg xmlns="http://www.w3.org/2000/svg" xmlns:xlink="http://www.w3.org/1999/xlink" viewBox="0 0 400 200"><path fill="none" d="M0 0h400v200H0z"/><defs><use xlink:href="#cea59__a" id="cea59__e" fill="currentColor" stroke="none"/><use xlink:href="#cea59__b" id="cea59__g" stroke="currentColor" transform="rotate(180)"/><use xlink:href="#cea59__c" id="cea59__d" stroke="currentColor" transform="rotate(45)"/><use xlink:href="#cea59__d" id="cea59__f" fill="currentColor" stroke="none"/><path id="cea59__c" stroke="currentColor" stroke-width=".267" d="M-1-1h2v2h-2z"/><path id="cea59__b" stroke="currentColor" stroke-width=".267" d="m0-1.33-1.33 2h2.66z"/><circle id="cea59__a" cx="0" cy="0" r="1" stroke="currentColor" stroke-width=".267"/></defs><path fill="none" stroke="#CCC" stroke-linecap="round" stroke-linejoin="round" stroke-width=".1" d="M46.1 162.5V45.01" class="cea59__gridline" color="#000"/><g fill="none" stroke-linecap="round" stroke-linejoin="round" stroke-width="0" color="#000"><path d="M46.1 162.5V155m0-109.99v7.5"/><text fill="#000" font-family="KaTeX_Main" font-size="8" text-anchor="middle" transform="translate(46.1 172.6)"><tspan> 1</tspan></text></g><path fill="none" stroke="#CCC" stroke-linecap="round" stroke-linejoin="round" stroke-width=".1" d="M82.31 162.5V45.01" class="cea59__gridline" color="#000"/><g fill="none" stroke-linecap="round" stroke-linejoin="round" stroke-width="0" color="#000"><path d="M82.31 162.5V155m0-109.99v7.5"/><text fill="#000" font-family="KaTeX_Main" font-size="8" text-anchor="middle" transform="translate(82.31 172.6)"><tspan> 2</tspan></text></g><path fill="none" stroke="#CCC" stroke-linecap="round" stroke-linejoin="round" stroke-width=".1" d="M118.52 162.5V45.01" class="cea59__gridline" color="#000"/><g fill="none" stroke-linecap="round" stroke-linejoin="round" stroke-width="0" color="#000"><path d="M118.52 162.5V155m0-109.99v7.5"/><text fill="#000" font-family="KaTeX_Main" font-size="8" text-anchor="middle" transform="translate(118.52 172.6)"><tspan> 3</tspan></text></g><path fill="none" stroke="#CCC" stroke-linecap="round" stroke-linejoin="round" stroke-width=".1" d="M154.73 162.5V45.01" class="cea59__gridline" color="#000"/><g fill="none" stroke-linecap="round" stroke-linejoin="round" stroke-width="0" color="#000"><path d="M154.73 162.5V155m0-109.99v7.5"/><text fill="#000" font-family="KaTeX_Main" font-size="8" text-anchor="middle" transform="translate(154.73 172.6)"><tspan> 4</tspan></text></g><path fill="none" stroke="#CCC" stroke-linecap="round" stroke-linejoin="round" stroke-width=".1" d="M190.94 162.5V45.01" class="cea59__gridline" color="#000"/><g fill="none" stroke-linecap="round" stroke-linejoin="round" stroke-width="0" color="#000"><path d="M190.94 162.5V155m0-109.99v7.5"/><text fill="#000" font-family="KaTeX_Main" font-size="8" text-anchor="middle" transform="translate(190.94 172.6)"><tspan> 5</tspan></text></g><path fill="none" stroke="#CCC" stroke-linecap="round" stroke-linejoin="round" stroke-width=".1" d="M227.15 162.5V45.01" class="cea59__gridline" color="#000"/><g fill="none" stroke-linecap="round" stroke-linejoin="round" stroke-width="0" color="#000"><path d="M227.15 162.5V155m0-109.99v7.5"/><text fill="#000" font-family="KaTeX_Main" font-size="8" text-anchor="middle" transform="translate(227.15 172.6)"><tspan> 6</tspan></text></g><path fill="none" stroke="#CCC" stroke-linecap="round" stroke-linejoin="round" stroke-width=".1" d="M263.36 162.5V45.01" class="cea59__gridline" color="#000"/><g fill="none" stroke-linecap="round" stroke-linejoin="round" stroke-width="0" color="#000"><path d="M263.36 162.5V155m0-109.99v7.5"/><text fill="#000" font-family="KaTeX_Main" font-size="8" text-anchor="middle" transform="translate(263.36 172.6)"><tspan> 7</tspan></text></g><path fill="none" stroke="#CCC" stroke-linecap="round" stroke-linejoin="round" stroke-width=".1" d="M299.57 162.5V45.01" class="cea59__gridline" color="#000"/><g fill="none" stroke-linecap="round" stroke-linejoin="round" stroke-width="0" color="#000"><path d="M299.57 162.5V155m0-109.99v7.5"/><text fill="#000" font-family="KaTeX_Main" font-size="8" text-anchor="middle" transform="translate(299.57 172.6)"><tspan> 8</tspan></text></g><path fill="none" stroke="#CCC" stroke-linecap="round" stroke-linejoin="round" stroke-width=".1" d="M335.78 162.5V45.01" class="cea59__gridline" color="#000"/><g fill="none" stroke-linecap="round" stroke-linejoin="round" stroke-width="0" color="#000"><path d="M335.78 162.5V155m0-109.99v7.5"/><text fill="#000" font-family="KaTeX_Main" font-size="8" text-anchor="middle" transform="translate(335.78 172.6)"><tspan> 9</tspan></text></g><path fill="none" stroke="#CCC" stroke-linecap="round" stroke-linejoin="round" stroke-width=".1" d="M371.99 162.5V45.01" class="cea59__gridline" color="#000"/><g fill="none" stroke-linecap="round" stroke-linejoin="round" stroke-width="0" color="#000"><path d="M371.99 162.5V155m0-109.99v7.5"/><text fill="#000" font-family="KaTeX_Main" font-size="8" text-anchor="middle" transform="translate(371.99 172.6)"><tspan> 10</tspan></text></g><g fill="none" stroke-linecap="round" stroke-linejoin="round" stroke-width="0" color="#000"><path d="M371.99 162.5h-7.5"/><text fill="#000" font-family="KaTeX_Main" font-size="8" transform="translate(378.99 165.1)"><tspan>0.00</tspan></text></g><g fill="none" stroke-linecap="round" stroke-linejoin="round" stroke-width="0" color="#000"><path d="M371.99 150.75h-7.5"/><text fill="#000" font-family="KaTeX_Main" font-size="8" transform="translate(378.99 153.35)"><tspan>1.00</tspan></text></g><g fill="none" stroke-linecap="round" stroke-linejoin="round" stroke-width="0" color="#000"><path d="M371.99 139h-7.5"/><text fill="#000" font-family="KaTeX_Main" font-size="8" transform="translate(378.99 141.6)"><tspan>2.00</tspan></text></g><g fill="none" stroke-linecap="round" stroke-linejoin="round" stroke-width="0" color="#000"><path d="M371.99 127.25h-7.5"/><text fill="#000" font-family="KaTeX_Main" font-size="8" transform="translate(378.99 129.85)"><tspan>3.00</tspan></text></g><g fill="none" stroke-linecap="round" stroke-linejoin="round" stroke-width="0" color="#000"><path d="M371.99 115.5h-7.5"/><text fill="#000" font-family="KaTeX_Main" font-size="8" transform="translate(378.99 118.1)"><tspan>4.00</tspan></text></g><g fill="none" stroke-linecap="round" stroke-linejoin="round" stroke-width="0" color="#000"><path d="M371.99 103.75h-7.5"/><text fill="#000" font-family="KaTeX_Main" font-size="8" transform="translate(378.99 106.35)"><tspan>5.00</tspan></text></g><g fill="none" stroke-linecap="round" stroke-linejoin="round" stroke-width="0" color="#000"><path d="M371.99 92.01h-7.5"/><text fill="#000" font-family="KaTeX_Main" font-size="8" transform="translate(378.99 94.61)"><tspan>6.00</tspan></text></g><g fill="none" stroke-linecap="round" stroke-linejoin="round" stroke-width="0" color="#000"><path d="M371.99 80.26h-7.5"/><text fill="#000" font-family="KaTeX_Main" font-size="8" transform="translate(378.99 82.86)"><tspan>7.00</tspan></text></g><g fill="none" stroke-linecap="round" stroke-linejoin="round" stroke-width="0" color="#000"><path d="M371.99 68.51h-7.5"/><text fill="#000" font-family="KaTeX_Main" font-size="8" transform="translate(378.99 71.11)"><tspan>8.00</tspan></text></g><g fill="none" stroke-linecap="round" stroke-linejoin="round" stroke-width="0" color="#000"><path d="M371.99 56.76h-7.5"/><text fill="#000" font-family="KaTeX_Main" font-size="8" transform="translate(378.99 59.36)"><tspan>9.00</tspan></text></g><g fill="none" stroke-linecap="round" stroke-linejoin="round" stroke-width="0" color="#000"><path d="M371.99 45.01h-7.5"/><text fill="#000" font-family="KaTeX_Main" font-size="8" transform="translate(378.99 47.61)"><tspan>10.00</tspan></text></g><path fill="none" d="M28 45.01V162.5M371.99 45.01H28" color="#000"/><text stroke-linecap="round" stroke-linejoin="round" stroke-width="0" color="#000" font-family="KaTeX_Main" font-size="10" text-anchor="middle" transform="rotate(-90 57.63 46.13)"><tspan font-weight="bold">Duration </tspan><tspan> in milliseconds</tspan></text><text stroke-linecap="round" stroke-linejoin="round" stroke-width="0" color="#000" font-family="KaTeX_Main" font-size="10" text-anchor="middle" transform="translate(199.99 195.75)"><tspan>Operations / 10</tspan><tspan dy="-5" font-size="8">6</tspan></text><text stroke-linecap="round" stroke-linejoin="round" color="#000" font-family="KaTeX_Main" font-size="8" transform="translate(76.8 10.11)"><tspan>AVLRelaxedBottomUp</tspan></text><g fill="none" stroke="currentColor" stroke-linecap="round" stroke-linejoin="round" color="#000"><path stroke="#D336C8" d="M41.3 7.51h29.9M28 149.69l.36.11.36 2.11.37-.21.36-2.3.36.07.36-.04.36 2.16.37-2.12.36 2.17.36-2.18.36.01.37 2.1.36-2.13.36 2.1.36-.02.36-2.12.37 2.15.36-2.15.36.07.36 2.21.36-2.24.37 2.19.36-2.17.36-.04h.36l.36 2.19.37-.07.36-2.13.36-.02.36.02.36 2.15.37-.03.36.06.36-2.18.36-.02.37.1.36 2.06.36-.02.36-2.11.36.02.37-.05.36 2.17.36-2.14.36 2.18.36-2.18.37.05.36 2.07.36-2.14.36 2.11.36.1.37 2.9.36-1.89.36 2.26.36-.05.37-2 .36 2.25.36-2.2.36 2.07.36.08.37.02.36-.31.36-2.03.36 2.28.36-.53.37-1.91.36 2.2.36-2.17.36 2.21.36.01.37-2.09.36 2.01.36.11.36.11.37-.08.36-2.02.36 2.23.36-2.67.36 2.23.37.08.36-2.09.36 2.19.36.04.36.07.37-.16.36.08.36.16.36-2.3.36 2.28.37.13.36-2.45.36 2.17.36-2.1.36 2.21.37.01.36.06.36.09.36-2.29.37 2.18.36.12.36-2.2.36 2.24.36-1.97.37 1.59.36-.15.36-2.03.36 2.19.36-.04.37.12.36.13.36-2.38.36 2.25.36-2.01.37 2.02.36.1.36-2.03.36 1.94.37-.15.36.11.36.11.36-.05.36.08.37-1.98.36 1.85.36.14.36-2 .36 2.07.37-1.99.36 2.12.36-.08.36-.32.36.09.37-1.97.36 1.98.36.14.36-1.99.36 1.88.37-2.02.36 2.18.36-.01.36-1.98.37 2.13.36.02.36-.3.36.11.36-1.96.37 1.94.36-1.94.36 2.21.36-.16.36-2.04.37 2.14.36.07.36.03.36.08.36-.03.37-.79.36-1.94.36 2.29.36-.19.37-1.9.36 2.22.36-2.31.36 2.19.36.05.37-.09.36-.2.36-2.02.36 2.16.36-.51.37-1.87.36 2.23.36-2.16.36 2.24.36.08.37-2.19.36 2.1.36.07.36.1.36-.04.37-2.04.36 2.27.36-2.81.36 2.31.37.09.36-2.14.36 2.21.36.03.36.02.37-.1.36.08.36.12.36-2.16.36 2.2.37.1.36-2.43.36 2.17.36-1.99.36 2.11.37.06.36.04.36.04.36-2.21.37 2.15.36.16.36-2.25.36 2.25.36-2.01.37 1.44.36.01.36-2 .36 2.12.36.08.37.03.36.06.36-2.24.36 2.23.36-1.99.37 1.94.36.15.36-2.01.36 1.89.37-.04.36.06.36.07.36-.03.36.09.37-2 .36 1.85.36.16.36-2.05.36 2.04.37-2 .36 2.19.36-.22.36-.22.36.02.37-1.94.36 2.07.36.06.36-1.96.36 1.82.37-1.93.36 2.18.36-2.13.36 2.17.37.07.36-.04.36-.22.36.07.36-2.05.37 2.1.36-2.02.36 2.26.36-2.36.36 2.18.37.1h.36l.36.08.36.05.36-.15.37-.58.36-1.98.36 2.28.36-2.27.37 2.32.36.13.36-2.35.36 2.23.36.07.37-.23.36-.09.36-1.97.36 2.08.36-2.45.37 2.22.36.18.36-2.25.36 2.25.36-2 .37 1.95.36.07h.36l.36.09.36-2.13.37 2.23.36.03.36-2.66.36 2.26.37-1.93.36 2 .36.13.36.08.36-.12.37.01.36.06.36.1.36-2.13.36 2.18.37-1.94.36 1.59.36.19.36-2 .36 2.04.37.09.36.06.36-.01.36-2.19.37 2.18.36-1.97.36 1.97.36.14.36-1.95.37 1.26.36-1.92.36 2.2.36-.07.36.14.37.03.36-2.07.36 1.99.36.08.36-1.95.37 1.95.36-1.95.36 2.19.36-.32.36.04.37.09h.36l.36.05.36.05.37-2.01.36 1.92.36-1.99.36 2.22.36-.09.37-1.94.36 2.17.36-.41.36-.04.36.06.37-1.98.36 2.04.36-1.99.36 2.16.36-.21.37-1.94.36 2.14.36-2.1.36 2.18.37.09.36-.2.36-.03.36-2.05.36 2.16.37-.04.36-1.97.36 2.19.36-2.34.36 2.22.37.11.36-.04.36.11.36.05.36-.35.37-.37.36-1.99.36 2.23.36-2.17.37 2.2.36.16.36-2.43.36 2.27.36.11.37-.35.36.03.36-2.02.36 2 .36-2.34.37 2.19.36.16.36-2.17.36 2.25.36-1.96.37 1.86.36.08.36.08.36.03.36-2.03.37 2.13.36-.1.36-2.53.36 2.22.37-1.87.36 1.88.36.21.36.1.36-.21.37.09.36.05.36.08.36-2.1.36 2.17.37-2.04.36 1.73.36.15.36-1.95.36 1.98.37.12.36.05.36-.09.36-2.03.37 2.09.36-1.97.36 2.05.36.08.36-1.91.37 1.08.36-1.76.36 2.13.36-.03.36.14.37.06.36-2.13.36 2.06.36.06.36-1.96.37 2.02.36-1.97.36 2.24.36-.45.36.13.37.07.36-.02.36.1.36.02.37-2.04.36 1.98.36-2.01.36 2.18.36-.09.37-1.98.36 2.17.36-.45.36.01.36.09.37-2.03.36 2.11.36-2.05.36 2.12.36-.13.37-1.98.36 2.23.36-2.19.36 2.18.37.1.36-.24.36.02.36-2.03.36 2.12.37.01.36-2.01.36 2.18.36-2.3.36 2.17.37.16.36-.12.36.11.36.13.36-.57.37-.16.36-2.03.36 2.21.36-2.11.37 2.21.36.15.36-2.43.36 2.29.36.13.37-.41.36.08.36-1.99.36 1.83.36-2.17.37 2.17.36.12.36-2.14.36 2.19.36-1.93.37 1.76.36.13.36.07.36-.01.36-1.96.37 2.08.36-.13.36-2.36.36 2.2.37-1.94.36 1.98.36.14.36.07.36-.2.37.08.36.08h.36l.36-2.01.36 2.1.37-2.06.36 1.79.36.11.36-1.9.36 1.94.37.15.36.07.36-.14.36-2.04.37 2.11.36-2.01.36 2.1.36.04.36-2.11.37 1.41.36-1.94.36 2.24.36-.12.36.14.37.13.36-2.23.36 2.09.36.03.36-1.94.37 2.07.36-2 .36 2.2.36-.5.36.19.37.09.36-.04.36.1.36.09.37-2.14.36 2.02.36-1.99.36 2.21.36-.08.37-2.02.36 2.28.36-.69.36.15.36.11.37-2.09.36 2.17.36-2.04.36 2.05.36-.08.37-1.97.36 2.17.36-2.14.36 2.22.37.12.36-.4.36.06.36-1.95.36 2.04.37.09.36-2.03.36 2.12.36-2.2.36 2.14.37.19.36-.21.36.2.36.12.36-.78.37-.04.36-1.98.36 2.1.36-1.99.36 2.18.37.03.36-2.29.36 2.23.36.16.37-.57.36.2.36-1.97.36 1.74.36-2.03.37 2.11.36.1.36-2.07.36 2.15.36-1.95.37 1.82.36.14.36.12.36-.07.36-1.96.37 2.13.36-.36.36-2.15.36 2.11.37-1.96.36 2.02.36.11.36.19.36-.37.37.17.36.1.36-.04.36-2 .36 2.14.37-2.15.36 1.87.36-1.93.36 2.18.36-.09.37.12.36.12.36-.26.36-1.93.37 2.14.36-2.08.36 2.15.36-2.02.36 1.88.37-.5.36-1.95.36 2.23.36-.16.36.2.37.12.36-2.3.36 2.16.36-2 .36 2.11.37.05.36-1.94.36 2.05.36-.35.36.15.37.17.36-.15.36.16.36-2.01.37 1.93.36.07.36-2.06.36 2.15.36-2.07.37 2.14.36.1.36-.66.36.21.36-1.92.37 1.96.36.13.36-2.01.36 1.97.36-2.05.37 2.11.36.11.36-2.12.36 2.16.37.18.36-.5.36.17.36-1.96.36 2.01.37-1.99.36 2.11.36-.01.36-2.14.36 2.15.37.13.36-.05.36.08.36.16.36-.86.37-1.94.36 2.15.36-.04.36-1.95.36 2.12.37-2.05.36 1.95.36.12.36.04.37-.38.36-1.91.36 2.15.36-.38.36-2.02.37 2.16.36-2.02.36 2.1.36.07.36-2.01.37 1.86.36.12.36.17.36-.13.36-1.91.37 2.16.36-2.52.36 2.06.36.06.37-1.96.36 2.05.36.1.36.08.36-.27.37.14.36.13.36-2.15.36 2.18.36.1.37-2.25.36 1.96.36-2.03.36 2.19.36-.05.37.1.36.17.36-2.39.36 2.24.36.06.37-2.12.36 2.18.36-1.99.36 1.76.37-.33.36-1.99.36 2.18.36-.05.36.12.37.14.36-2.34.36 2.21.36-2.01.36 2.01.37.13.36-2.05.36 2.02.36-.21.36.1.37.11.36-.12.36.15.36-2 .37 1.92.36.07.36-1.96.36 2.07.36-2.03.37 2.08.36.03.36-.43.36.07.36-1.89.37 1.94.36.13.36-2 .36 1.95.36-2.01.37 2.06.36.08.36-2.07.36 2.16.37.1.36-.39.36.13.36-1.97.36 1.98.37-1.91.36 2.14.36-.07.36-2.06.36 2.1.37.12.36-.06.36.13.36.19.36-1.11.37-1.77.36 2.18.36-.03.36-1.97.36 2.14.37-2.14.36 2 .36.11.36-.07.37-.28.36-1.93.36 2.19.36-.48.36-1.91.37 2.17.36-2.05.36 2.16.36.03.36-2.04.37 1.95.36.12.36.13.36-.12.36-1.96.37 2.17.36-2.62.36 2.14.36.09.37-2.05.36 2.13.36.07.36.05.36-.16.37.08.36.15.36-2.2.36 2.22.36.09.37-2.34.36 2.11.36-2.02.36 2.13.36-.02.37.09.36.08.36-2.25.36 2.13.36.13.37-2.16.36 2.2.36-1.96.36 1.53.37-.12.36-2.02.36 2.18.36.01.36.1.37.11.36-2.32.36 2.2.36-1.96.36 2.03.37.11.36-2 .36 1.91.36-.16.36.13.37.08.36-.04.36.07.36-1.95.37 1.8.36.15.36-2 .36 2.05.36-2.01.37 2.09.36-.08.36-.32.36.09.36-1.93.37 1.97.36.13.36-1.98.36 1.86.36-1.96.37 2.11h.36l.36-1.98.36 2.12.36.04.37-.29.36.08.36-1.94.36 1.93.37-1.91.36 2.14.36-.13.36-2.04.36 2.12.37.06.36.03.36.06h.36l.36-.74.37-1.9.36 2.21.36-.13.36-1.89.36 2.19.37-2.26.36 2.16.36.03.36-.09.37-.21.36-1.93.36 2.14.36-.48.36-1.88.37 2.18.36-2.11.36 2.16.36.04.36-2.13.37 2.06.36.08.36.1.36-.07.36-1.97.37 2.23.36-2.73.36 2.26.36.14.37-2.13.36 2.17.36.04.36-.04.36-.05.37.06.36.12.36-2.16.36 2.2.36.12.37-2.43.36 2.12.36-1.97.36 2.05.36.09.37.03.36.06.36-2.22.36 2.14.36.18.37-2.21.36 2.22.36-1.99.36 1.42.37-.03.36-1.98.36 2.14.36.04.36.07.37.06.36-2.27.36 2.19"/><use xlink:href="#cea59__b" color="#D336C8" transform="matrix(3.75 0 0 3.75 354.25 152.8)"/><use xlink:href="#cea59__b" color="#D336C8" transform="matrix(3.75 0 0 3.75 56.25 7.51)"/></g><text stroke-linecap="round" stroke-linejoin="round" color="#000" font-family="KaTeX_Main" font-size="8" transform="translate(76.8 25.11)"><tspan>RedBlackRelaxedTopDown</tspan></text><g fill="none" stroke="currentColor" stroke-linecap="round" stroke-linejoin="round" color="#000"><path stroke="violet" stroke-dasharray="4.0,2.0,1.0,2.0" d="M41.3 22.51h29.9m-43.2 120 .36 1.91.36-3.55.37.4.36 2.62.36-.74.36 1.78.36-1.87.37-.31.36.88.36 1.43.36.05.37-2.39.36-.02.36-.29.36 1.8.36-.82.37-.6.36-.46.36-.69.36.83.36 2.06.37-.56.36-1.32.36-.09.36-.29.36 1.29.37-1.32.36.52.36-2.21.36 2.65.36 1.52.37-2.95.36 3.05.36-2.57.36-1.56.37 3.69.36-2.14.36-.32.36 1.77.36-2.05.37 2.19.36-3.96.36 2.41.36 1.98.36-.53.37.33.36-2.21.36-.78.36.76.36 2.32.37 7.03.36.14.36-2.26.36 1.82.37-2.54.36 2.36.36-.34.36-2.09.36 2 .37-1.98.36 3.01.36.06.36-.15.36-.07.37-2.15.36 1.98.36.46.36-1.55.36 1.98.37-2.22.36 2.06.36.05.36-.47.37.43.36.41.36-.23.36-.3.36-2.12.37 2 .36-2.3.36 2.25.36.2.36-2.23.37 2.02.36-.6.36-.32.36 1.04.36-1.64.37 2.11.36-2.56.36 2.39.36-.11.36-2.35.37 2.62.36-2.34.36 2.03.36.06.37-.09.36-.18.36-1.67.36 1.9.36.08.37-2.53.36 2.2.36-2.37.36 2.21.36.2.37-.03.36-.31.36-.71h.36l.36-.05.37-1.37.36 2.91.36-2.11.36 1.8.37-.07.36-2.29.36 1.78.36.51.36-.05.37.02.36-2.09.36 1.73.36-2.89.36 3.34.37.2.36-2.29.36 1.93.36-2.56.36 2.18.37-.03.36.52.36-.1.36-2.3.36 2.15.37-.2.36-2.21.36 2.64.36-1.64.37 2.1.36-.13.36-.11.36-.16.36-.04.37.26.36-.16.36-2.27.36 2.09.36-2.23.37 2.11.36-2.28.36 2.13.36.06.36-.44.37.56.36-.07.36-2.27.36 1.78.37-2.49.36 2.44.36-2.54.36 2.04.36-.06.37-1.75.36 3.09.36-.34.36.04.36.01.37-2.36.36 1.94.36.91.36-1.8.36 2 .37-2.16.36 1.73.36.1.36-.24.36.48.37.14.36-.2.36-.21.36-2.09.37 1.97.36-2.08.36 2.12.36-2.05.36 1.96.37-.06.36-.64.36-.16.36 1.04.36-1.74.37 1.96.36-2.25.36 2.17.36-2.31.36 2.21.37.15.36-2.08.36 1.95.36.04.37-.12.36-.39.36-1.39.36 1.87.36-2.1.37 1.82.36-.03.36-2.2.36 2.25h.36l.37.1.36-.44.36-.68.36-.08.36-2.22.37 3.33.36.42.36-2.15.36 1.73.37-1.94.36 1.95.36-.3.36.6.36-.22.37-2.01.36 2.07.36-.5.36-2.68.36 3.35.37-2.13.36 2.16.36-.58.36-2.35.36 2.19.37.06.36.28.36.03.36-2.22.36 2.12.37-2.39.36 2.15.36.53.36-1.81.37 2.2.36-.15.36-.12.36-.1.36-.09.37.26.36-2.22.36 2.06.36-.09.36-2.15.37 1.95.36-2.35.36 2.07.36.12.36-.46.37.58.36-2.12.36 1.94.36-.5.37-2.14.36 2.17.36-2.36.36 2.08.36-.08.37-1.57.36 2.67.36-.05.36-.19.36.16.37-2.35.36 1.76.36-.62.36 2.05.36-.12.37-2.28.36 1.79.36.04.36-.27.36.68h.37l.36-.22.36-2.24.36 2.12.37-.41.36-1.77.36 2.14.36-2.1.36 1.98.37.04.36-1 .36.23.36-1.08.36 2.38.37-.22.36-2.22.36 2.13.36-2.33.36 2.4.37.03.36-2.18.36 2.11.36-.07.37-.25.36-.13.36-1.36.36 1.85.36-2.49.37 2.16.36-.18.36-2.1.36 2.22.36.08.37-.11.36-.47.36-.51.36-.02.36-2.14.37 3.18.36.64.36-2.3.36 1.74.36-2.04.37 2.02.36-.21.36.2.36.25.37-2.18.36 2.09.36-.76.36-2.46.36 3.57.37-2.34.36 2.05.36-.29.36-2.46.36 2.21.37.04.36.24.36-.02.36-2.14.36 1.99.37-2.24.36 1.85.36.93.36-1.85.37 1.98.36-.24.36-.11.36-.06.36.09.37.25.36-2.2.36 1.88.36.01.36-2.14.37 1.97.36-2.28.36 2.14.36.01.36-.4.37.53.36-2.16.36 1.72.36-.07.37-2.4.36 2.1.36-2.22.36 2.15.36-.23.37-1.2.36 2.16.36.34.36-.63.36.29.37-2.3.36 1.92.36-.82.36 2.05.36-.12.37-2.22.36 1.84.36-.12.36-.14.36.68.37.01.36-.38.36-2.17.36 2.15.37-.52.36-1.44.36 1.81.36-2.07.36 2.06.37-.2.36-.67.36.11.36-.96.36 2.24.37-.26.36-2.14.36 2.14.36-2.6.36 2.9.37-.28.36-2.12.36 2 .36.01.37-.16.36.02.36-1.53.36 1.81.36-2.3.37 1.73.36.19.36-2.36.36 2.34.36.15.37-.13.36-.58.36-.39.36-.03.36-2 .37 3.29.36.17.36-2.32.36 2.02.36-2.11.37 1.96.36-.04.36.14.36.13.37-2.16.36 2.1.36-.77.36-2.19.36 3.22.37-2.2.36 2.01.36-.54.36-2.18.36 2.19.37.01.36.33.36-.12.36-2.16.36 2.11.37-2.41.36 2.11.36 1.04.36-2.27.37 2.2.36-.31.36-.08.36-.11.36.09.37.22.36-2.18.36 1.93.36.1.36-2.24.37 1.9.36-2.11.36 1.95.36-.12.36-.07.37.36.36-2.15.36 1.78.36-.16.37-2.32.36 2.04.36-2.21.36 2.16.36-.25.37-1.02.36 2.38.36.05.36-.56.36.03.37-1.9.36 1.82.36-.99.36 1.95.36-.09.37-2.31.36 2.13.36-.15.36-.12.36.75.37-.08.36-.57.36-2.08.36 2.17.37-.42.36-1.42.36 1.72.36-1.94.36 2.11.37-.34.36-.64.36.25.36-1.05.36 2.11.37-.3.36-2.15.36 2.2.36-2.46.36 2.73.37-2.33.36 2.05.36-.01.36-.06.37-.05.36.1.36-2 .36 2.12.36-2.5.37 2.15.36-2.19.36 1.95.36.4.36-.22.37.06.36-.78.36-.27.36-.04.36-1.88.37 3.25.36-2.01.36 1.96.36-.14.36-2.1.37 1.75.36.24.36.07.36.15.37-2.19.36 2.07.36-.86.36-1.72.36 2.94.37-2.17.36 1.93.36-2.6.36 1.99.36-.05.37.3.36.25.36-.12.36-2.09.36 1.81.37-2.19.36 2.16.36-1.02.36 1.96.37-.29.36-.01.36-.16.36-.08.36.1.37.14.36-2.15.36 1.92.36-2.14.36 2.12.37-.34.36-2.13.36 2.13h.36l.36-.02.37.15.36-2.12.36 1.87.36-2.54.36 2.07.37-.03.36-2.2.36 2.03.36-2.28.37 3.46.36-.05.36.02.36-.58.36-1.87.37 2.02.36-.06.36-1.02.36 2.06.36-2.24.37 1.86.36.02.36-.28.36-.09.36.76h.37l.36-.53.36-1.96.36 1.99.37-2.5.36 2.72.36-.29.36-2.03.36 1.86.37-.28.36-.6.36.59.36-1.12.36 2.06.37-2.35.36 2.12.36-.16.36-2.33.36 2.76.37-2.27.36 1.92.36.09.36-.16.37-.07.36-2.03.36 2.3.36.17.36-2.65.37 2.01.36-2.05.36 1.88.36.28.36-.12.37.07.36-.76.36-.36.36.03.36-1.66.37 3.07.36-1.98.36 1.93.36-.02.36-2.16.37 1.59.36.49.36-.15.36.16.37-2.11.36 2.06.36-3.16.36 2.72.36.71.37-2.18.36 1.97.36-2.55.36 1.95.36-.01.37.45.36.04.36-2.25.36 2 .36.02.37-2.43.36 2.4.36-1.28.36 2.06.37-.25.36-.03.36-.14.36-.08.36.35.37-.11.36-2.12.36 1.96.36-2.32.36 2.19.37-.27.36-1.85.36 1.62.36-.04.36.29.37.06.36-2.09.36 1.74.36-2.44.36 2.15.37-.24.36-2.02.36 2.01.36-2.13.37 3.34.36-.14.36-.16.36-.34.36-1.86.37 2.12.36.09.36-1.28.36 2.06.36-2.3.37 1.95.36-.3.36-.21.36.23.36.7.37-.11.36-.54.36-1.91.36 2.04.37-2.39.36 2.48.36-.21.36-2.03.36 2.03.37-.56.36-.41.36.76.36-1.33.36 2.08.37-2.52.36 2.24.36-.05.36-2.28.36 2.52.37-2.29.36 2.12.36-.17.36-.07.36.05.37-1.88.36 2.05.36.1.36-2.63.37 2.15.36-2.27.36 2.04.36.33.36-.02.37-.13.36-.88.36.07.36-.2.36-1.48.37 3.07.36-2.02.36 1.65.36-.02.36-1.99.37 1.51.36.67.36-.05.36.05.37-2.29.36 1.96.36-2.73.36 2.77.36.41.37-2.16.36 1.85.36-2.52.36 2.01.36-.12.37.64.36-.2.36-2.07.36 2.13.36-.27.37-2.14.36 2.45.36-1.44.36 2.06.37-.19.36-.23.36-.07.36-.19.36.46.37-.09.36-2.16.36 1.86.36-2.04.36 1.94.37-.13.36-1.86.36 1.71.36-.24.36.45.37.03.36-2.16.36 1.68.36-2.53.36 2.5.37-.41.36-2.03.36 1.88.36-1.81.37 3.07.36-.27.36.02.36-.17.36-2.08.37 2.03.36.3.36-1.36.36 2.07.36-2.37.37 2.2.36-.24.36-.44.36.45.36.52.37-.16.36-.41.36-2.28.36 2.26.37-2.21.36 2.03.36.3.36-2.23.36 2.06.37-.65.36-.54.36 1.1.36-1.54.36 2.1.37-2.48.36 2.26.36-.03.36-2.24.36 2.48.37-2.2.36 1.89.36-.01h.36l.36-.24.37-1.58.36 2.05.36-.34.36-2.3.37 2.06.36-2 .36 1.99.36.22.36-.14.37-.3.36-.61.36-.04.36-.23.36-1.08.37 2.6.36-1.81.36 1.53.36.13.36-2.09.37 1.6.36.64.36-.25h.36l.37-1.83.36 1.61.36-2.79.36 3.1.36.19.37-2.15.36 1.74.36-2.37.36 2.03.36-.1.37.54.36-.06.36-2.16.36 2.01.36-.17.37-2.21.36 2.55.36-1.49.36 2.09.36-.2.37-.2.36-.18.36.11.36.23.37-.13.36-2.06.36 2.05.36-2.22.36 1.91.37-2.16.36 2.02.36-.06.36-.35.36.52.37-.06.36-2.15.36 1.7.36-2.34.36 2.3.37-2.33.36 1.82.36.04.36-1.73.37 2.98.36-.13.36-.2.36.14.36-2.32.37 1.88.36 1.05.36-1.94.36 2.03.36-2.23.37 1.81.36-.19.36-.06.36.56.36.12.37-.32.36-.12.36-2.03.36 1.86.37-1.93.36 2.02.36-2.04.36 2.04.36-.01.37-.81.36-.11.36 1.16.36-1.81.36 2.04.37-2.33.36 2.18.36-2.28.36 2.11.36.34.37-2.18.36 1.88.36.03.36-.19.36-.11.37-1.53.36 1.89.36-2.18.36 1.76.37.03.36-2.2.36 2.16.36.24.36-.09.37-.39.36-.7.36-.02"/><use xlink:href="#cea59__e" color="violet" transform="matrix(3.75 0 0 3.75 67.83 150.44)"/><use xlink:href="#cea59__e" color="violet" transform="matrix(3.75 0 0 3.75 56.25 22.51)"/></g><text stroke-linecap="round" stroke-linejoin="round" color="#000" font-family="KaTeX_Main" font-size="8" transform="translate(241.1 10.11)"><tspan>LBSTRelaxed</tspan></text><g fill="none" stroke="currentColor" stroke-linecap="round" stroke-linejoin="round" color="#000"><path stroke="#FFAB00" stroke-dasharray="4.0,2.0,1.0,2.0" d="M205.6 7.51h29.9M28 146.65l.36-2.95.36 3.01.37-17.51.36 15.75.36.87.36-1.37.36-3.28.37 5.35.36-3.13.36 3.96.36-3.16.37-7.29.36 7.61.36 1.01.36.82.36-4.27.37 2.25.36-.87.36 2.81.36-46.25.36 46.44.37-.8.36-2.11.36 1.02.36-1.77.36 3.86.37-3.28.36.81.36-7.82.36 10.39.36-3.67.37 3.23.36-1.63.36-2.85.36 4.41.37-2.63.36 2.54.36-14.81.36 13.12.36.77.37-.93.36-2.78.36 4.92.36-3.15.36 3.86.37-3.32.36-6.45.36 6.87.36 1.21.36.77.37-.7.36 6.46.36-2.51.36 2.06.37.15.36-3.4.36 3.66.36-.02.36.04.37-37.5.36 37.49.36-.1.36-1.2.36 2.01.37-2.08.36-.33.36 2.03.36-65.02.36 60.39.37 4.57.36-.13.36.72.36-4.07.37 3.73.36.79.36-3.28.36 2.39.36-12.19.37 12.82.36-.41.36-1.56.36-.08.36 2.29.37-.56.36.55.36-8.5.36 8.44.36-2.69.37 1.92.36.45.36-4.36.36 4.45.36-.12.37.14.36-28.74.36 28.48.36-.5.37-1.42.36 2.57.36-1.41.36-.91.36 1.92.37-2.2.36-.89.36 2.92.36-.82.36.78.37-3.01.36 3.46.36-.59.36-1.58.36-4.88.37 4.6.36 1.57.36.68.36-67.21.37 67.08.36-.57.36.8.36.5.36-6.12.37 5.62.36-2.52.36 2.41.36-1.5.36-.32.37 1.37.36.65.36-7.92.36 8.07.36-.33.37.26.36-3.39.36 2.91.36.78.36-2.87.37 2.5.36-5.12.36 4.99.36-.86.37.92.36-1.21.36-19.9.36 20.9.36.21.37-3.67.36 3.84.36-2.68.36 2.36.36.5.37-7.71.36 7.33.36-.63.36.74.36-1.99.37-.34.36 1.64.36-1.51.36-3.04.37-1.82.36 5.33.36 1.13.36-64.4.36 63 .37 1.95.36-.64.36.88.36-7.84.36 7.58.37-.3.36-1.94.36.1.36.22.36 1.81.37-.36.36.53.36-12.87.36 10.86.36 1.77.37.45.36-3.62.36 3.32.36-2.38.37 2.55.36-2.89.36.44.36 1.65.36.46.37-.97.36 1.52.36-21.59.36 20.84.36-1.71.37.72.36 1.5.36-2.55.36 2.32.36-5.23.37 5.27.36-.68.36.96.36.32.37-4.67.36 4.19.36-.54.36-1.69.36-9.81.37 10 .36 1.42.36.6.36-66.66.36 66.19.37-2.41.36 3.35.36-.39.36-7.68.36 7.69.37-2.7.36 2.5.36-4.1.36 4.18.37-.57.36.67.36-12.95.36 13.11.36-2.52.37 2.85.36-2.55.36.84.36-1.18.36 1.96.37.33.36-2.81.36 2.85.36-.76.36.61.37-.86.36-21.05.36 21.48.36-1.41.36.36.37 1.68.36-1.9.36 1.35.36.48.37-5.21.36 5.19.36-3.02.36 3.36.36-4.49.37 4.16.36-.46.36-1.69h.36l.36-9.58.37 11.81.36-.8.36-65.23.36 63.98.36 1.9.37-2.52.36 2.67.36-7.58.36 7.64.37-2.66.36 2.89.36-.53.36-1.99.36 2.16.37-.6.36.56.36-12.35.36 10.45.36 1.82.37-1.73.36.69.36.87.36-2.16.36 2.47.37-3.02.36 2.97.36-.7.36-1.24.36 2.18.37-3.6.36-15.92.36 19.07.36-1.95.37.46.36-.33.36 1.36.36.4.36-5.12.37 5.22.36-2.79.36 3.51.36-.4.36-4.42.37 4.44.36-2.93.36 2.81.36-11.96.36 11.94.37-.54.36.38.36-66.93.36 67.25.37-2.29.36 1.61.36-1.41.36-3.45.36 5.44.37-2.39.36 2.31.36-2.17.36 2.35.36-.67.37-1.51.36 2.43.36-15.09.36 14.96.36-.43.37-1.72.36.58.36-.92.36 1.88.36.3.37-2.72.36 2.81.36-2.7.36 2.46.37-1 .36-19.31.36 20.06.36-1.53.36.51.37 1.89.36-.46.36-.37.36.14.36-5.01.37 5.47.36-2.99.36 2.96.36-4.19.36 4.12.37-.54.36-1.28.36 1.66.36-11.66.37 11.92.36-.85.36-65.82.36 64.62.36-.29.37 1.51.36.81.36-7.46.36 7.3.36-1.62.37 1.21.36.3.36-1.95.36 2.08.36-2.72.37 2.98.36-13.16.36 11.05.36 1.65.37-1.66.36.73.36.84.36-.04.36.76.37-3.59.36 3.02.36.6.36-3.29.36 2.76.37-3.12.36-14.3.36 17.21.36-1.62.36.31.37 1.48.36-.41.36.25.36-7.39.36 8.04.37-2.54.36 1.49.36.83.36-4.3.37 4.11.36-2.45.36 2.53.36-12.09.36 12.19.37-.6.36-1.83.36-60.99.36 61.44.36-.45.37 1.69.36-1.54.36-3.2.36 5.48.36-.58.37.3.36-2.01.36 2.07.36.42.37-3 .36 2.48.36-14.32.36 14.81.36-.52.37-1.79.36.72.36 1.05.36.13.36-.06.37-5.11.36 5.41.36-3.02.36 2.71.36-.93.37-19.1.36 19.74.36-1.12.36 1.42.36-1.42.37 1.49.36-.68.36-1.71.36-2.75.37 5.07.36-2.76.36 3.07.36-4.39.36 4.26.37.36.36-.95.36.49.36-11.67.36 11.84.37-.77.36-1.39.36-63.11.36 62.66.36 1.89.37.68.36-1.73.36-3.54.36 5.26.37-.34.36.17.36-4.19.36 4.57.36-2.99.37 2.8.36-12.84.36 10.88.36 1.7.36-1.85.37.99.36.8.36.62.36-.7.36-1.89.37-.68.36 2.88.36-2.78.36 2.59.37-3.09.36-14.48.36 17.71.36.22.36-1.7.37 1.57.36-.52.36.37.36-1.66.36-3.48.37 3.12.36 1.36.36.87.36-4.04.36 4.02.37-.61.36.57.36-5.01.36-3.95.36 9.38.37-3.21.36-61.54.36 62.39.36-.28.37 1.62.36-1.31.36-3.47.36 5.29.36-.27.37.31.36-4.39.36 4.76.36-.36.36-2.67.37 2.68.36-14.71.36 14.92.36-.45.36.57.37-1.47.36.9.36-.05.36.37.37-5.11.36 4.95.36-2.76.36 2.69.36-.96.37-.56.36-16.63.36 18.09.36.23.36-1.55.37-.64.36 1.76.36-2.01.36-2.94.36 5.29.37-2.8.36 3 .36-1.75.36-.46.36 2.17.37-.56.36.53.36-13.98.36 14.27.37-.94.36-1.63.36-63.83.36 63.54.36 1.87.37 1.19.36-.47.36-5.35.36 5.32.36-.43.37.27.36-4 .36 4.11.36-2.68.36 2.75.37-12.68.36 10.74.36 1.8.36.59.37-.41.36-1.28.36-1.2.36 2.11.36-1.92.37-.68.36 2.85.36-2.89.36 2.8.36-3.03.37-14.67.36 17.45.36.55.36-1.83.36-.72.37 2.65.36-.9.36-1.98.36-2.76.36 3.2.37 1.41.36.96.36-2.25.36 2.08.37-.57.36.45.36-1.97.36-9.47.36 11.62.37-3.01.36-60.65.36 59.5.36 4.1.36-.63.37.7.36-5.25.36 5.14.36-2.46.36 2.81.37-2.6.36.06.36.08.36 1.51.37.62.36-14.71.36 14.88.36-.36.36.3.37-1.25.36-1.33.36 2.15.36-1.74.36-.91.37 2.86.36-2.8.36 3.31.36-.55.36-1.08.37-16.31.36 17.3.36.19.36-3.6.37 3.77.36-.69.36-1.83.36-2.93.36 3.04.37 2.15.36-.04.36.3.36-2.02.36 1.76.37-2.63.36 2.85.36-14.17.36 14.15.36-2.69.37 2.43.36-64.67.36 62.82.36 1.93.36-.42.37.57.36-5.25.36 3.14.36 1.89.37-2.02.36-.06.36 2.36.36-2.93.36 2.78.37.36.36-12.63.36 12.58.36-.45.36.41.37-3.47.36 3.02.36-.07.36-1.93.36-.55.37.65.36 1.58.36.33.36-1.02.37-14.92.36 13.75.36 2.56.36-.12.36-3.77.37 3.53.36-2.61.36 2.38.36-4.98.36 3.48.37 1.2.36.86.36-2.06.36 1.99.36-2.65.37 2.97.36-2.49.36-9.6.36 11.82.36-2.84.37-59.26.36 60.32.36 1.62.36-.58.37.8.36-5.16.36 2.91.36 2.58.36-.88.37-1.8.36.15.36-.06.36 1.41.36.9.37-12.65.36 12.67.36-2.51.36 2.52.36-1.27.37-1.35.36 2.05.36-1.32.36-1.62.37 3.2.36-1.55.36.9.36.65.36-1.03.37-15.13.36 13.81.36 2.66.36-3.98.36 3.52.37-.36.36-2.03.36-2.88.36 5.87.36-.4.37-.63.36.83.36-2.14.36-.1.36 1.7.37.4.36-13.92.36 14 .36-2.63.37 2.29.36-60.84.36 59.15.36 1.76.36-2.37.37 2.62.36-5.02.36 2.74.36 1.85.36-1.68.37-.25.36 2.29.36-1.74.36 1.19.36.54.37-12.04.36 12.25.36-2.48.36 2.38.37-3.32.36 2.99.36.08.36-2.06.36-.76.37 3.15.36-1 .36.62.36-.83.36-14.92.37 13.61.36 2.95.36-1 .36-3.31.36 3.51.37-2.7.36 2.38.36-4.66.36 5.04.37-.64.36-1.12.36-.16.36 2.09.36-1.8.37 1.15.36-1.82.36-9.3.36 11.75.36-2.46.37 2.34.36-64.41.36 64.26.36-.36.36-1.44.37 2.44.36-7.56.36 7.16.36-.36.36-1.95.37.12.36 2.26.36-.72.36.69.37-12.42.36 12.62.36-2.42.36 2.32.36-1.17.37-.86.36 1.84.36-2.32.36 2.24.36-2.57.37 2.65.36-.64.36-1.47.36.98.36-15.2.37 14.04.36 2.5.36-4.01.36 3.41.37-.3.36-1.37.36 1.6.36-4.77.36 5.25.37-.67.36-1.29.36.12.36-.42.36 1.75.37.59.36-7.08.36.29.36 7.2.36-1.08.37-60.81.36 59.54.36 1.85.36-2.65.36 2.89.37-5.36.36 3.03.36 1.81.36-1.82.37-.21.36 2.8.36-.53.36-.5.36-1.43.37-10.52.36 12.73.36-2.51.36 2.62.36-3.53.37 2.9.36-.04.36-1.74.36-.76.36 2.82.37-.67.36.62.36-3.16.36 3.69.37-19.09.36 18.46.36-.01.36-3.75.36 3.62.37-.34.36-.02.36-4.79.36 5.34.36-.53.37-1.31.36 2.35.36-2.37.36-.17.36 1.62.37-1.56.36-9.69.36 12.01.36-.82.36.29.37-65.29.36 65.14.36-.19.36-.92.37 1.61.36-7.27.36 7.26.36-.46.36-1.5.37-.31.36 2.25.36-.43.36.38.36-14.56.37 14.81.36-1.62.36 1.2.36.35.36-3.35.37 2.99h.36l.36.22.36-2.8.37 2.85.36-.83.36-1.41.36 1.19.36-15.16.37 13.8.36 2.55.36-4.24.36 3.51.36.52.37-1.02.36.31.36-6.66.36 7.3.36-.62.37-1.07.36-.25.36.07.36 1.52.37.39.36-4.18.36-4.97.36 9.3.36-.57.37-61.38.36 57.83.36 4.17.36-2.81.36 2.74.37-5.16.36 2.96.36 1.75.36.75.36-.46.37-2.05.36 2.19.36-.64.36-1.45.36-10.07.37 12.34.36-2.56.36 2.55.36-3.43.37 2.85.36.15.36.19.36-2.81.36.72.37 1.34.36 1.29.36-2.7"/><use xlink:href="#cea59__f" color="#FFAB00" transform="matrix(3.75 0 0 3.75 125.4 153.14)"/><use xlink:href="#cea59__f" color="#FFAB00" transform="matrix(3.75 0 0 3.75 220.55 7.51)"/></g><text stroke-linecap="round" stroke-linejoin="round" color="#000" font-family="KaTeX_Main" font-size="8" transform="translate(241.1 25.11)"><tspan>WBSTRelaxed</tspan></text><g fill="none" stroke="currentColor" stroke-linecap="round" stroke-linejoin="round" color="#000"><path stroke="violet" stroke-dasharray="4.5,2.0,0.5,2.0,0.5,2.0" d="M205.6 22.51h29.9M28 145.46l.36-4.78.36 2.54.37 1.48.36-1.44.36-4.76.36 4.86.36-.76.37.64.36-.52.36 2.53.36-3.74.37-52.33.36 54.49.36 1.31.36.38.36-2.38.37.56.36-1 .36.54.36-5.79.36 8.11.37-2.79.36.68.36-2.93.36 2.88.36.84.37 1.19.36-18.15.36 16.45.36-1.32.36 3.32.37-2.99.36 2.99.36-3.21.36.76.37-4.49.36 4.69.36 1.34.36-1.61.36-2.99.37 3.43.36-.67.36-41.7.36 44.53.36-.98.37-1.23.36-3.01.36 2.75.36.36.36 1.76.37 7.33.36-9.46.36 7.48.36 1.75.37-1.79.36.79.36 1.19.36-2.64.36 2.62.37-2.94.36 3.03.36-66.37.36 63.99.36-4.56.37 4.26.36 1.42.36.93.36-2.68.36 3.24.37-2.2.36 1.92.36-1.37.36.89.37.3.36-7.26.36 7.73.36-4.74.36 2.76.37 1.94.36-2.03.36.92.36.7.36.26.37-2.73.36 2.87.36-.61.36-.58.36-1.08.37 1.89.36-2.24.36-9.82.36 12.22.36-1.8.37.95.36 1.14.36-.67.36-2.09.37.37.36 1.71.36-1.69.36.91.36 1.09.37-2.1.36-5.34.36 5.59.36 1.49.36-.45.37 1.15.36-.35.36-1.97.36-.61.36-62.7.37 63.05.36 1.61.36-1.1.36-1.49.37 2.36.36 1.14.36-1.91.36 1.95.36-.69.37.89.36-2.5.36.39.36-.57.36 2.56.37-.96.36-1.52.36-2.78.36 5.27.36-.29.37-5.4.36 3.23.36 1.92.36-2.05.36 1.08.37-8.67.36 7.61.36 2.26.36-2.05.37 1.16.36.92.36.19.36-2.56.36.16.37 2.28.36-1.14.36-1.54.36 2.65.36-7.39.37 7.55.36-.51.36-.62.36 1.18.36-.87.37-1.75.36 2.43.36-2.74.36 1.68.37-.98.36 1.66.36-76.43.36 74.86.36 1.79.37.3.36-1.01.36.72.36-1.81.36-1.43.37.97.36 2.41.36-.86.36-1.7.36 2.8.37-9.83.36 9.93.36-.7.36-.5.36.96.37-2.61.36.1.36 2.51.36-2.37.37.95.36-.66.36 1.74.36-11.62.36 12.11.37-.5.36.4.36-1.13.36.81.36-1.9.37-.33.36-.19.36 2.71.36-1.31.36-1.44.37 2.76.36-6.27.36 6.3.36-.52.37-3.06.36 3.58.36-2.82.36-1.08.36 3.8.37-2.76.36 1.62.36-.95.36 1.49.36-73.71.37 74.24.36-.12.36-1.8.36.83.36.94.37-1.92.36-.63.36.2.36 2.69.37-.9.36.22.36.76.36-6 .36 5.93.37-.74.36-2.56.36 3.41.36-2.88.36.1.37 2.52.36-2.33.36.68.36 1.8.36-.35.37-13.07.36 11.13.36 1.78.36-1.75.36.94.37.75.36-1.62.36-1.64.36 1.4.37 2.24.36-1.49.36 1.07.36.64.36-10.16.37 9.61.36.6.36-3.3.36 2.38.36-1.29.37-.57.36 2.57.36-.55.36-.49.36 1.04.37-.46.36-74.2.36 72.33.36 1.94.37-2.58.36 3.14.36-.26.36-4.74.36 5.04.37-.61.36-.6.36 1.25.36-2.79.36-2.02.37 2.8.36 1.25.36-.78.36-1.03.36 2.37.37-4.77.36 4.74.36-1.28.36 1.36.36-.4.37-1.86.36-4.67.36-2.83.36 7.43.37 2.38.36-3.32.36 2.92.36.26.36-2.83.37 2.37.36.49.36-.96.36.47.36-6.12.37 6.68.36-2.51.36 1.28.36.7.36-2.58.37.8.36 2.11.36-.74.36.65.37-3.98.36-5.15.36 6.53.36 3.07.36-75.08.37 72.13.36 1.33.36-3.05.36 4.54.36-.46.37.3.36-2.08.36-.23.36-2.68.36 5.19.37-2.66.36 1.36.36-.97.36 1.72.36-9.48.37 9.56.36-.81.36 1.45.36-2.97.37 1.12.36-.43.36.07.36-1.21.36 3.17.37-.5.36-1.99.36.12.36 1.78.36.1.37.03.36-2.82.36-5.57.36 6.45.36 1.64.37-6.64.36 4.99.36 1.87.36-1.59.37.75.36-.32.36 1.32.36.38.36-2.92.37 2.74.36-4.66.36 2.35.36 2.64.36-3.24.37 2.87.36-64.77.36 64.16.36.78.36-.83.37.23.36-8.75.36 7.11.36 2.46.37-3.02.36 2.72.36-14.31.36 14.18.36-.07.37.14.36-1.29.36 1.1.36-1.78.36-1.06.37 1.23.36 1.71.36-1.81.36.65.36 1.5.37-2.77.36 2.64.36-6.43.36 6.15.36-.18.37-4.44.36 4.92.36-2.69.36 2.65.37-2.79.36.45.36 2.06.36.06.36-.92.37.84.36-.16.36-.05.36-15.64.36 13.86.37 2.18.36-3.62.36 3.93.36-2.74.36 2.56.37-2.99.36 3.12.36-.35.36-67.27.37 63.6.36 3.8.36-2.8.36-4.58.36 5.49.37 1.71.36.42.36-3.61.36 3.38.36-.43.37.49.36-4.44.36 2.24.36 1.39.36-1.42.37.79.36.96.36-1.85.36-42.08.36 44.37.37-1.04.36 1.45.36-.56.36-.47.37-1.62.36 2.25.36-5.02.36 3.03.36 1.55.37-1.82.36 1.19.36.97.36-.6.36-8.62.37 7.25.36 1.76.36.52.36-3.85.36 3.63.37-2.63.36 2.66.36-3.27.36 1.2.37 1.71.36.15.36-1.17.36 1.41.36-2.56.37-10.76.36-54.07.36 67.16.36-.57.36-2.43.37 1.51.36 1.49.36-2.64.36 2.75.36-.55.37.42.36-3.08.36 3.09.36-.52.37-1.6.36-4.24.36 4.36.36 1.46.36-.77.37 1.51.36-.32.36-2.4.36-1.58.36 3.82.37-1.48.36.71.36-19.5.36 20.53.36-.18.37-1.72.36-5.86.36 7.41.36.81.36-8.45.37 6.03.36 1.07.36-.7.36 1.89.37-2.8.36.83.36 1.63.36-.48.36.49.37.36.36-4.46.36 4.3.36-3.42.36 3.76.37-.7.36-3.66.36 4.35.36-66.89.36 65.34.37.93.36.28.36-11.19.36 9.14.37.78.36 1.5.36-2.52.36-.53.36.52.37 2.45.36-.73.36-1.79.36 2.55.36-7.38.37 7.05.36-.6.36-1.08.36 1.53.36-5.17.37 5.15.36.49.36-3.33.36 3.12.36-30.79.37 26.83.36 4.19.36-.81.36 1.07.37-2.77.36.15.36 2.11.36-1.78.36.83.37-1.42.36-2.78.36 5.49.36-.5.36-1 .37-.71.36 1.51.36-1.56.36-.32.36 2.63.37-3.42.36 2.94.36-10.8.36 9.27.37 1.88.36-106.29.36 106.05.36-.22.36-4.41.37 1.75.36.69.36 2.14.36.08.36-3.82.37 4.14.36-.5.36.12.36-2.83.36 2.81.37-.34.36-1.77.36.63.36 1.35.36-2.05.37 1.36.36-7.49.36 8.27.36.18.37-.86.36-.53.36-11.48.36 12.93.36-.44.37-1.49.36.41.36-.69.36 2.3.36-2.51.37-.33.36 2.62.36-.72.36.37.36.53.37-8.89.36 8.97.36-2.72.36.78.37 1.75.36-2.76.36-.2.36 3.04.36-.45.37-.81.36 1.21.36-.71.36-83.05.36 83.87.37-.49.36-1.57.36 1.03.36-1.5.36 2.44.37-2.32.36 1.98.36.43.36-3.26.37 2.66.36.39.36-7.73.36 8.1.36-2.85.37 1.76.36.9.36-2.58.36.06.36 2.38.37-.19.36-1.67.36-.07.36 1.43.36-1.69.37-10.86.36 12.82.36-1.55.36.77.36.9.37.17.36-2.46.36 2.07.36.44.37-3.92.36 3.29.36.63.36-8.71.36 8.86.37-2.84.36 1.77.36.76.36-.47.36-2.14.37.53.36 1.66.36-.69.36-.74.36 1.64.37-72.15.36 72.47.36-.09.36-1.84.37.67.36.98.36.37.36-2.82.36.2.37 2.71.36-3.04.36 2.31.36.78.36-8.4.37 8.31.36-.73.36-.32.36 1.09.36-.56.37-2.04.36.34.36 1.87.36-1.4.36-.4.37 1.77.36-14.76.36 15.16.36-.39.37.39.36-1.38.36-1.36.36 2.65.36-3.4.37.76.36 2.56.36-3.56.36 3.15.36.54.37-10.09.36 9.59.36.53.36-1.18.36.27.37-1.13.36-.61.36.39.36 1.59.37-.45.36-1.09.36 1.62.36-81.37.36 77.4.37 3.92.36-.77.36 1.21.36-2.18.36-.2.37 2.48.36-2.48.36 1.48.36-.91.36 1.57.37-4.27.36 4.6.36-.09.36-3.69.36 3.71.37-.72.36-3.35.36 2.87.36-.64.37.96.36-1.23.36-.17.36-3.94.36 6.5.37-10.43.36 9.42.36-1.17.36 1.47.36-4.19.37 4.76.36-2.83.36 2.04.36.53.36-.18.37-4.96.36 5.53.36-.74.36-.36.37-1.14.36 1.42.36-3.81.36 4.53.36-.55.37-2.56.36 3 .36-9.38.36 9.14.36-.77.37-98.39.36 98.9.36-2.41.36.83.36.68.37-.55.36.16.36-.48.36-2.04.37 4.19.36-.53.36.83.36-.27.36-2.82.37-6.33.36 6.53.36 1.64.36-.84.36 1.67.37-2.26.36 2.65.36-.19.36-.36.36-.86.37.81.36-2.72.36 2.98.36-5.73.36 5.21.37.6.36-3.97.36 3.73.36.39.37-1.08.36-9.47.36 7.75.36 2.73.36-2.41.37 2.33.36-2.87.36.68.36 2.4.36-2.88.37 2.23.36-3.19.36 3.56.36.38.36-2.98.37 2.44.36-1.39.36-65.13.36 66.55.37-2.73.36 2.6.36-9.19.36 9.48.36-11.01.37 11.38.36-2.04.36 1.75.36-1.74.36.96.37-2.99.36 3.9.36-.39.36-2.41.36 2.55.37-3.15.36 3.2.36-.44.36-6.61.36 6.84.37-1.76.36 1.75.36.25.36-3.43.37 3.29.36-4.41.36 4.3.36-.32.36.36.37-.73.36-1.71.36 2.73.36-13.15.36 11.2.37 1.6.36-1.42.36.52.36 1.31.36-.74.37-1.96.36 2.9.36-.61.36.46.37-3.28.36 2.6.36-1.35.36-4.23.36 6.33.37-68.65.36 67.97.36-1.17.36 1.19.36.35.37-4.93.36 5.21.36-2.68.36 2.46.36-.98.37-1.67.36 2.77.36-39.94.36 40.03.36-.44.37.42.36-1.19.36-1.6.36 2.73.37-3.69.36 1.47.36 2.03.36-1.81.36.86.37.38.36.86.36-6.51.36 6.16.36.1.37.09.36-3.39.36 3.18.36-1.79.36-2.11.37 4.16.36-2.32.36 2.32.36-1.38.37 1.12.36.11.36-19.11.36 19.37.36-2.45.37 2.53.36-1.33.36-1.17.36 2.38.36-5.02.37 4.92.36-.38.36-64.26.36 64.19.36-1.67.37 2.26.36-1.16.36-1.57.36 2.82.37-4.72.36 4.15.36.49.36-1.38.36.86.37.59.36-5.16.36 5.09.36-2.62.36 1.62.37-1.19.36 1.6.36-2.32.36.47.36 2.22.37-1.06.36 1.22.36-.31.36-13.09.36 13.38.37-2.56.36 2.59.36-1.17.36-1.1.37 2.24.36-4.65.36 3.75.36.94.36-1.63.37.92.36-1.59.36-3.38"/><use xlink:href="#cea59__g" color="violet" transform="matrix(3.75 0 0 3.75 182.98 151.38)"/><use xlink:href="#cea59__g" color="violet" transform="matrix(3.75 0 0 3.75 220.55 22.51)"/></g><path fill="none" d="M28 45.01V162.5M371.99 45.01H28" color="#000"/></svg>