<svg xmlns="http://www.w3.org/2000/svg" xmlns:xlink="http://www.w3.org/1999/xlink" viewBox="0 0 400 200"><path fill="none" d="M0 0h400v200H0z"/><defs><path id="f5e0f__b" stroke="currentColor" stroke-width=".267" d="M-1-1h2v2h-2z"/><path id="f5e0f__a" stroke="currentColor" stroke-width=".267" d="m0-1.33-1.33 2h2.66z"/><path id="f5e0f__f" stroke="currentColor" stroke-width=".267" d="M0 1.33 1.265.411.782-1.067l-1.564-.009-.483 1.487z"/><use xlink:href="#f5e0f__a" id="f5e0f__d" fill="currentColor" stroke="none"/><use xlink:href="#f5e0f__b" id="f5e0f__c" stroke="currentColor" transform="rotate(45)"/><use xlink:href="#f5e0f__c" id="f5e0f__e" fill="currentColor" stroke="none"/></defs><path fill="none" stroke="#CCC" stroke-linecap="round" stroke-linejoin="round" stroke-width=".1" d="M46.1 162.5V45.01" class="f5e0f__gridline" color="#000"/><g fill="none" stroke-linecap="round" stroke-linejoin="round" stroke-width="0" color="#000"><path d="M46.1 162.5V155m0-109.99v7.5"/><text fill="#000" font-family="KaTeX_Main" font-size="8" text-anchor="middle" transform="translate(46.1 172.6)"><tspan> 1</tspan></text></g><path fill="none" stroke="#CCC" stroke-linecap="round" stroke-linejoin="round" stroke-width=".1" d="M82.31 162.5V45.01" class="f5e0f__gridline" color="#000"/><g fill="none" stroke-linecap="round" stroke-linejoin="round" stroke-width="0" color="#000"><path d="M82.31 162.5V155m0-109.99v7.5"/><text fill="#000" font-family="KaTeX_Main" font-size="8" text-anchor="middle" transform="translate(82.31 172.6)"><tspan> 2</tspan></text></g><path fill="none" stroke="#CCC" stroke-linecap="round" stroke-linejoin="round" stroke-width=".1" d="M118.52 162.5V45.01" class="f5e0f__gridline" color="#000"/><g fill="none" stroke-linecap="round" stroke-linejoin="round" stroke-width="0" color="#000"><path d="M118.52 162.5V155m0-109.99v7.5"/><text fill="#000" font-family="KaTeX_Main" font-size="8" text-anchor="middle" transform="translate(118.52 172.6)"><tspan> 3</tspan></text></g><path fill="none" stroke="#CCC" stroke-linecap="round" stroke-linejoin="round" stroke-width=".1" d="M154.73 162.5V45.01" class="f5e0f__gridline" color="#000"/><g fill="none" stroke-linecap="round" stroke-linejoin="round" stroke-width="0" color="#000"><path d="M154.73 162.5V155m0-109.99v7.5"/><text fill="#000" font-family="KaTeX_Main" font-size="8" text-anchor="middle" transform="translate(154.73 172.6)"><tspan> 4</tspan></text></g><path fill="none" stroke="#CCC" stroke-linecap="round" stroke-linejoin="round" stroke-width=".1" d="M190.94 162.5V45.01" class="f5e0f__gridline" color="#000"/><g fill="none" stroke-linecap="round" stroke-linejoin="round" stroke-width="0" color="#000"><path d="M190.94 162.5V155m0-109.99v7.5"/><text fill="#000" font-family="KaTeX_Main" font-size="8" text-anchor="middle" transform="translate(190.94 172.6)"><tspan> 5</tspan></text></g><path fill="none" stroke="#CCC" stroke-linecap="round" stroke-linejoin="round" stroke-width=".1" d="M227.15 162.5V45.01" class="f5e0f__gridline" color="#000"/><g fill="none" stroke-linecap="round" stroke-linejoin="round" stroke-width="0" color="#000"><path d="M227.15 162.5V155m0-109.99v7.5"/><text fill="#000" font-family="KaTeX_Main" font-size="8" text-anchor="middle" transform="translate(227.15 172.6)"><tspan> 6</tspan></text></g><path fill="none" stroke="#CCC" stroke-linecap="round" stroke-linejoin="round" stroke-width=".1" d="M263.36 162.5V45.01" class="f5e0f__gridline" color="#000"/><g fill="none" stroke-linecap="round" stroke-linejoin="round" stroke-width="0" color="#000"><path d="M263.36 162.5V155m0-109.99v7.5"/><text fill="#000" font-family="KaTeX_Main" font-size="8" text-anchor="middle" transform="translate(263.36 172.6)"><tspan> 7</tspan></text></g><path fill="none" stroke="#CCC" stroke-linecap="round" stroke-linejoin="round" stroke-width=".1" d="M299.57 162.5V45.01" class="f5e0f__gridline" color="#000"/><g fill="none" stroke-linecap="round" stroke-linejoin="round" stroke-width="0" color="#000"><path d="M299.57 162.5V155m0-109.99v7.5"/><text fill="#000" font-family="KaTeX_Main" font-size="8" text-anchor="middle" transform="translate(299.57 172.6)"><tspan> 8</tspan></text></g><path fill="none" stroke="#CCC" stroke-linecap="round" stroke-linejoin="round" stroke-width=".1" d="M335.78 162.5V45.01" class="f5e0f__gridline" color="#000"/><g fill="none" stroke-linecap="round" stroke-linejoin="round" stroke-width="0" color="#000"><path d="M335.78 162.5V155m0-109.99v7.5"/><text fill="#000" font-family="KaTeX_Main" font-size="8" text-anchor="middle" transform="translate(335.78 172.6)"><tspan> 9</tspan></text></g><path fill="none" stroke="#CCC" stroke-linecap="round" stroke-linejoin="round" stroke-width=".1" d="M371.99 162.5V45.01" class="f5e0f__gridline" color="#000"/><g fill="none" stroke-linecap="round" stroke-linejoin="round" stroke-width="0" color="#000"><path d="M371.99 162.5V155m0-109.99v7.5"/><text fill="#000" font-family="KaTeX_Main" font-size="8" text-anchor="middle" transform="translate(371.99 172.6)"><tspan> 10</tspan></text></g><g fill="none" stroke-linecap="round" stroke-linejoin="round" stroke-width="0" color="#000"><path d="M371.99 162.5h-7.5"/><text fill="#000" font-family="KaTeX_Main" font-size="8" transform="translate(378.99 165.1)"><tspan>0.800</tspan></text></g><g fill="none" stroke-linecap="round" stroke-linejoin="round" stroke-width="0" color="#000"><path d="M371.99 145.72h-7.5"/><text fill="#000" font-family="KaTeX_Main" font-size="8" transform="translate(378.99 148.32)"><tspan>1.000</tspan></text></g><g fill="none" stroke-linecap="round" stroke-linejoin="round" stroke-width="0" color="#000"><path d="M371.99 128.93h-7.5"/><text fill="#000" font-family="KaTeX_Main" font-size="8" transform="translate(378.99 131.53)"><tspan>1.200</tspan></text></g><g fill="none" stroke-linecap="round" stroke-linejoin="round" stroke-width="0" color="#000"><path d="M371.99 112.15h-7.5"/><text fill="#000" font-family="KaTeX_Main" font-size="8" transform="translate(378.99 114.75)"><tspan>1.400</tspan></text></g><g fill="none" stroke-linecap="round" stroke-linejoin="round" stroke-width="0" color="#000"><path d="M371.99 95.36h-7.5"/><text fill="#000" font-family="KaTeX_Main" font-size="8" transform="translate(378.99 97.96)"><tspan>1.600</tspan></text></g><g fill="none" stroke-linecap="round" stroke-linejoin="round" stroke-width="0" color="#000"><path d="M371.99 78.58h-7.5"/><text fill="#000" font-family="KaTeX_Main" font-size="8" transform="translate(378.99 81.18)"><tspan>1.800</tspan></text></g><g fill="none" stroke-linecap="round" stroke-linejoin="round" stroke-width="0" color="#000"><path d="M371.99 61.79h-7.5"/><text fill="#000" font-family="KaTeX_Main" font-size="8" transform="translate(378.99 64.39)"><tspan>2.000</tspan></text></g><g fill="none" stroke-linecap="round" stroke-linejoin="round" stroke-width="0" color="#000"><path d="M371.99 45.01h-7.5"/><text fill="#000" font-family="KaTeX_Main" font-size="8" transform="translate(378.99 47.61)"><tspan>2.200</tspan></text></g><path fill="none" d="M28 45.01V162.5M371.99 45.01H28" color="#000"/><text stroke-linecap="round" stroke-linejoin="round" stroke-width="0" color="#000" font-family="KaTeX_Main" font-size="10" text-anchor="middle" transform="rotate(-90 57.63 46.13)"><tspan font-weight="bold">Average Path Length </tspan><tspan> / log</tspan><tspan dy="3" font-size="8">2</tspan><tspan dy="-3">(Size)</tspan></text><text stroke-linecap="round" stroke-linejoin="round" stroke-width="0" color="#000" font-family="KaTeX_Main" font-size="10" text-anchor="middle" transform="translate(199.99 195.75)"><tspan>Operations / 10</tspan><tspan dy="-5" font-size="8">6</tspan></text><text stroke-linecap="round" stroke-linejoin="round" color="#000" font-family="KaTeX_Main" font-size="8" transform="translate(132.8 10.11)"><tspan>Splay</tspan></text><g fill="none" stroke="currentColor" stroke-linecap="round" stroke-linejoin="round" color="#000"><path stroke="#29C3F6" d="M97.3 7.51h29.9M28 99.97l.36-20.79.36 7.03.37 5.05.36-10.29.36 10.59.36 2.24.36-8.27.37 14.41.36-4.83.36-7.63.36 7.18.37 1.59.36 1.54.36-5.97.36 6.78.36-17.07.37-13.92.36 22.88.36-19.24.36-.04.36.57.37 17.11.36.94.36 4.99.36-5.27.36.37.37-12.98.36 18.74.36-.73.36-7.88.36 6.98.37 4.23.36-6.84.36 2.24.36.31.37-2.12.36-4.49.36-4.46.36 9.24.36-11.1.37-4.68.36 11.73.36 7.77.36-3.77.36-2.97.37 7.55.36-12.99.36 10.8.36-37.21.36 26.87.37 12.79.36-14.05.36 5.45.36-3.98.37 7.42.36-1.98.36 3.79.36 3.09.36.32.37-2.66.36 3.52.36-7.84.36 3.04.36-26.49.37 27.81.36-11.81.36 6.3.36 4.53.36-8.98.37 12.46.36-3.28.36-2.41.36-7.59.37 13.28.36 1.18.36 1.08.36-9.61.36 6.09.37-2.96.36 3.84.36-21.2.36 16.5.36.34.37 7.7.36-28.4.36 15.85.36-6.15.36 2.75.37 8.86.36-4.76.36-2.43.36-10.11.36 7.84.37 3.39.36-13.9.36 24.32.36-1.82.37-4.31.36-11.44.36 6.85.36-14.36.36 8.44.37 1.14.36 8.12.36-7.75.36 7.96.36 5.48.37-19.01.36 19.15.36-14.42.36 8.96.36-17.47.37 9.58.36-30.77.36 36.72.36 3.19.37 2.92.36-26.17.36 17.91.36 2.22.36-13.12.37 14.99.36 4.91.36-6.3.36 5.79.36-3.58.37-.26.36 5.18.36-20.38.36 10.46.36 8.42.37-4.7.36 1.79.36-18.04.36 24.69.36-5.91.37-23.32.36 26.63.36-2.04.36-9.18.37 11.03.36-16.53.36 15.9.36-2.43.36 1.52.37-14.89.36 7.19.36 11.27.36-3.6.36-8.43.37 13.24.36-2.73.36-15.19.36-3.17.36 15.92.37-8.8.36 1.42.36 7.17.36 5.11.37-9.05.36-5.05.36-9.12.36 14.45.36-.07.37 7.19.36-15.15.36 6.28.36 5.07.36 2.96.37-.42.36.43.36-3.45.36-14.51.36 5.13.37-3.8.36 5.73.36-8.28.36 13.01.36-.06.37-12.8.36 7.52.36-14.22.36 24.36.37-8.32.36-4.97.36 13.79.36 4.73.36-20.32.37 2.72.36 2.88.36 5.31.36 1.98.36.07.37-17.36.36 10.54.36-6.28.36 4.71.36-22.51.37 23.21.36-6.39.36 8.74.36-5.88.37 2.48.36 5.52.36-8.91.36 15.91.36-11.89.37-2.07.36-2.25.36 8.53.36-7.9.36 10.89.37-10.04.36 3.25.36 3.09.36-1.12.36-5.44.37 13.28.36-6.46.36-2.43.36-3.62.37 2.06.36 10.44.36-2.81.36-9.16.36 14.62.37-3.71.36-4.19.36 2.22.36-7.92.36 9.16.37-5.28.36 7.58.36-7.85.36 9.07.36-11.86.37 10.1.36-17.86.36 13.31.36-1.02.36-2.43.37 1.61.36 8.46.36 1.94.36-17.92.37 15.13.36-9.25.36 5.87.36-3.28.36-1.07.37 8.76.36-9.08.36-11.1.36 4.23.36 10.86.37-12.05.36 3.69.36 11.57.36-12.37.36 8.14.37-7.84.36 7.01.36.73.36-4.86.37-26.67.36 33.84.36.37.36-8.21.36-3.3.37 3.82.36-7.89.36 18.59.36-12.8.36 6.42.37-6.94.36 3.6.36-10.36.36 26.53.36-17.39.37-2.59.36 12.9.36-11.87.36-15.9.36 29.42.37-6.17.36-3.07.36 1.51.36 5.72.37-10.86.36 8.62.36-11.17.36 11.39.36.14.37 4.4.36-10.92.36 1.42.36.6.36-15.63.37 27.83.36-40.69.36 6.39.36 27.08.36 3.25.37-4.88.36-8.79.36 3.47.36 8.24.37-12.94.36 3.15.36-9.21.36 11.91.36-5.56.37 9.35.36 7.29.36-16.77.36-3.55.36 15.22.37-21.46.36 15.28.36.55.36-11.64.36 13.52.37.54.36-4.36.36.53.36 5.59.36.78.37-9.97.36-3.4.36 11.92.36-12.36.37 6.66.36-2.85.36 5.98.36-5.04.36 12.93.37-7.68.36 11.96.36-4.99.36-3.83.36 4.33.37-5.47.36 7.67.36-14.63.36-11.44.36 15.92.37-3.31.36-4.79.36 6.82.36 5.11.37.34.36-3.39.36 7.87.36-10.43.36-.67.37 3.23.36 2.58.36-2.94.36 4.65.36-5.43.37 2.45.36 3.07.36 2.67.36-3.07.36-6.3.37-22.94.36 1.54.36 21.17.36-3.14.37.96.36 1.39.36-8.48.36 23.35.36-5.41.37-7.57.36 1.69.36-16.69.36 23.57.36-.07.37-11.5.36-26.24.36 22.11.36 12.27.36 1.56.37-4.95.36 4.47.36-26.87.36 16.02.36 6.94.37 2.88.36-2.58.36 9.94.36-20.49.37-3.39.36 13.7.36-10.05.36 5.2.36-2.8.37 8.68.36-.37.36-10.34.36-18.06.36 25.05.37-7.78.36-8.7.36-7.16.36 10.13.36 12.34.37-5.47.36-4.84.36 7.67.36-10.43.37 19.68.36-3.75.36-11.86.36 16.74.36-1.21.37-11.51.36-8.61.36 8.62.36-2.66.36 6.41.37-18.73.36 29.47.36 4.36.36-20.69.36 1.4.37 1.53.36 9.96.36-14.87.36-1.82.36 18.75.37-6.41.36-2.83.36-2.18.36 12.01.37 4.81.36-11.76.36-2.91.36 3.76.36-3.5.37-4.61.36-11.14.36 24.85.36-2.58.36 8.9.37-4.26.36-13.54.36 2.62.36-24.71.36 26.89.37 2.8.36 3.2.36-8.75.36-.19.37.36.36 12.4.36-11.97.36-3.28.36 3.99.37 2.58.36 2.6.36-16.28.36 18.79.36-3.76.37-11.35.36 11.84.36-2.32.36 10.09.36-13.69.37.17.36.91.36 3.69.36-31.73.37 17.89.36 4.86.36 11.86.36-5.21.36 1.95.37 10.04.36-16.02.36-1.19.36 2.53.36-7.07.37 12.87.36-21.07.36 19.6.36 2.46.36 3.83.37-12.2.36 2.99.36 4.2.36-13.76.36 16.05.37-20.1.36 20.31.36-6.17.36-2.05.37 1.59.36-8.2.36 8.61.36 8.95.36-11.81.37-3.33.36 12.21.36-3.11.36-4.1.36 2.98.37 2.63.36-11.81.36 11.82.36-2.59.36 4.36.37 2.66.36-7.18.36-5.06.36 12.38.37-12.75.36 12.06.36-20.09.36 9.52.36-4.34.37 13.72.36-11.04.36-11.72.36 15.87.36-1.18.37-11.98.36 19.72.36-6.02.36-2.62.36 4.74.37 13.67.36-21.14.36 1.9.36-5.25.36 14.88.37-5.66.36 10.47.36-6.97.36 5.62.37-15.71.36 5.56.36 4.08.36-8.1.36-10.1.37 17.56.36-24.38.36 22.27.36 4.17.36 2.16.37-2.65.36 2.71.36-16.59.36 12.35.36-9.81.37 15.56.36.49.36-6.36.36-10 .37 1.82.36 1.09.36 11.22.36-16.39.36 11.56.37 1.8.36-2.91.36-33.32.36 22.56.36 17.69.37.42.36 2.66.36-5.28.36-1.83.36-6.74.37-19.56.36 26.72.36-3.43.36-1.45.36-4.06.37 3.68.36 2.28.36 5.02.36-5.72.37 1.21.36-2.54.36-4.19.36.76.36 9.75.37-15.15.36 7.52.36.86.36-5.1.36-.06.37 13.05.36-19.99.36 9.51.36 3.31.36 4.08.37 1.15.36-10.96.36 15.45.36-14.11.37 3.59.36 5.7.36 5.58.36-6.16.36 3.41.37-1.13.36-16.78.36 16.05.36-11.09.36 10.53.37-8.37.36 16.02.36-20.04.36 8.19.36-2.72.37 10.91.36-5.63.36-2.75.36 6.44.37-7.18.36 8.42.36-10.44.36 11.55.36-7.67.37 1.34.36-5.44.36 4.2.36-18.53.36 18.15.37-16.84.36 6.44.36 4.28.36 6.51.36-33.63.37 33.27.36.49.36 6.23.36-14.74.36 12.02.37-16.01.36 6.95.36 1.77.36-18.2.37 13.23.36 10.13.36 1.08.36-7.82.36 5.66.37-1.47.36 4.78.36.62.36-6.2.36 2.86.37 8.72.36-22.74.36 13.81.36-7.01.36 11.1.37-1.12.36-10.03.36-16.58.36 12.8.37 6.62.36-7.59.36-4.85.36 4.78.36 10.64.37 4.99.36-3.37.36-17.03.36-17.54.36 31.8.37 3.74.36 2.71.36-2.97.36-8.68.36 14.23.37-6.47.36 8.9.36-9.87.36-9.42.36-12.6.37 5.47.36-3.08.36 23.05.36 2.62.37-1.07.36-21.89.36 13.06.36 8 .36-.12.37-2.52.36-12.66.36 14.1.36-5.63.36 1.19.37-1.85.36 2.77.36.23.36-11.08.36-12.28.37 27.04.36.11.36-35.2.36 33.95.37 4.89.36-15.8.36 7.3.36 5.86.36-13.93.37 2.47.36-2.43.36 13.74.36 2.4.36-10.8.37 8.14.36-11.1.36-13.35.36 18.5.36-5.89.37 13.84.36-5.9.36 3.39.36-13.66.36 16.65.37-14.02.36-16.77.36 18.11.36-5.16.37 10.37.36 3.38.36-19.33.36 15.95.36.71.37 7.61.36-5.52.36-.06.36-3.59.36 9.36.37-12.4.36 6.32.36-39.32.36 39.65.36-5.44.37 7.9.36-9.36.36-1.46.36 13.72.37-2.64.36 2.54.36-12.43.36 5.18.36-3.03.37-6.8.36-9.73.36 24.08.36 3.57.36-2.35.37-17.48.36 20.11.36-19.71.36 4.79.36 11.37.37.24.36 7.93.36-10.99.36 4.49.37-22.62.36 18.47.36.09.36-.91.36 2.94.37-3.45.36 5.71.36-13.68.36 14.78.36-.39.37-5.83.36 6.54.36-16.38.36 10.86.36 3.41.37-23.51.36 12.36.36 4.85.36-2.99.36-22.68.37 24.23.36-4.43.36 3.37.36 2.96.37-13 .36 8.23.36 12.71.36-5.32.36-20.2.37 19.39.36-6.35.36 10.21.36-6.88.36 7.51.37.58.36 4.34.36-6.99.36-8.43.36 1.27.37-5.8.36 1.77.36-.09.36-3.37.37 3.16.36-7.53.36-6.74.36 17.79.36 1.21.37-2.35.36-9.81.36 13.71.36-.71.36-5.17.37 10.52.36-3.17.36-15.09.36 22.47.36-9.59.37 6.35.36-12.53.36 6.89.36-3.26.36 4.82.37 1.05.36 9.86.36-11.63.36 7.42.37-14.66.36-10.39.36 24.19.36 1.4.36-4.8.37-34.8.36 31.25.36-5.4.36-38.25.36 49.01.37-2.63.36-.63.36 5.81.36-21.74.36 19.16.37-3.12.36-17.16.36 24.13.36-7.31.37-14.75.36 1.72.36 10.01.36 10.04.36-14.57.37 13.87.36-16.86.36 16.97.36-1.3.36-.91.37-1.61.36-7.79.36-2.76.36 11.24.36-3.79.37 1.64.36-7.48.36-.93.36 3.71.36 6.42.37 3.05.36-41.56.36 34.57.36 2.34.37 2.49.36-1.17.36-.32.36-17.46.36 17.35.37 4.65.36-1.42.36-9.9.36-1.86.36 3.89.37-4.26.36-6.48.36 18.58.36-4.75.36-9.04.37 7.51.36-5.14.36 4.85.36-8.53.37 2.78.36 17.76.36-11.92.36.77.36 5.63.37-.46.36-17.56.36 10.99.36-20.7.36 8.03.37 7.98.36 1.73.36 1.88.36.04.36 2.41.37 5.19.36-8.99.36 8.92.36-9.2.37 6.85.36-7.84.36 5.65.36 1.53.36-3.82.37 2.27.36-6.82.36-5.39.36 22.58.36-14.28.37 4 .36-.82.36-2.95.36 11.24.36-11.77.37-2.6.36 1.18.36 4.12.36.26.36-2.76.37-6.98.36 8.51.36 3.72.36 8.19.37-24.7.36 21.41.36-19.7.36 15 .36 5.27.37-28.27.36 6.93.36 13.09"/><use xlink:href="#f5e0f__b" color="#29C3F6" transform="matrix(3.75 0 0 3.75 354.25 101.66)"/><use xlink:href="#f5e0f__b" color="#29C3F6" transform="matrix(3.75 0 0 3.75 112.25 7.51)"/></g><text stroke-linecap="round" stroke-linejoin="round" stroke-width=".5" color="#000" font-family="KaTeX_Main" font-size="8" transform="translate(132.8 25.11)"><tspan>AVLBottomUp</tspan></text><g fill="none" stroke="currentColor" stroke-linecap="round" stroke-linejoin="round" stroke-width=".5" color="#000"><path stroke="#000" d="M97.3 22.51h29.9M28 152.93l.36-.01h.36l.37-.02.36-.01.36-.01.36-.01.36-.01.37-.01.36-.02.36-.01.36-.01.37-.01.36-.01.36-.01.36-.01.36-.01.37-.01.36-.01.36-.01h.36l.36-.01.37-.01.36-.01h.36l.36-.01.36-.01.37-.01h.36l.36-.01.36-.01.36-.01h.37l.36-.01.36-.01.36-.01h.37l.36-.01.36-.01h.36l.36-.01.37-.01h.36l.36-.01h.36l.36-.01.37-.01h.36l.36-.01.36-.01H49l.36-.01h1.09l.36.01h6.88l.36.01.37-.01h2.17l.36.01h34.4l.36-.01h1.45l.36.01h4.35l.36-.01.36.01.36-.01h.37l.36.01h4.71l.36-.01h14.84l.37.01h6.51l.36-.01h39.47l.37-.01h2.53l.36.01h39.83l.36.01h1.45l.37-.01h2.53l.36.01h.36l.37-.01h.36l.36.01H221l.36-.01h4.34l.37.01h.72l.36-.01h3.99l.36-.03h2.17l.36.01h2.54l.36-.01h7.24l.36.02h1.09l.36.01.36-.01h.37l.36.01h8.69l.36-.01.36.01h3.98l.37.01.36-.01h1.45l.36.01h2.17l.36-.01h1.81l.37.01h45.26l.36.01h.72l.37-.01.36.01h.36l.36-.01h1.09l.36.01h3.98l.37-.01.36.01h.36l.36-.01h5.8l.36.01.36-.01h.72l.37.01h1.81l.36-.01h3.62l.36.01h6.16l.36-.01h1.09l.36.01h5.79l.36-.01h3.99l.36.01h13.76l.36-.01h3.26"/><use xlink:href="#f5e0f__d" transform="matrix(3.75 0 0 3.75 67.83 152.53)"/><use xlink:href="#f5e0f__d" transform="matrix(3.75 0 0 3.75 112.25 22.51)"/></g><text stroke-linecap="round" stroke-linejoin="round" color="#000" font-family="KaTeX_Main" font-size="8" transform="translate(241.1 10.11)"><tspan>LBSTRelaxed</tspan></text><g fill="none" stroke="currentColor" stroke-linecap="round" stroke-linejoin="round" color="#000"><path stroke="#FFAB00" stroke-dasharray="4.0,2.0,1.0,2.0" d="M205.6 7.51h29.9M28 148.38l.36-.01.36-.02.37-.01.36-.02h.36l.36-.03.36-.02.37.01.36-.01h.36l.36-.01.37-.03h.36l.36.03.36.01.36-.01.37-.03h.36l.36-.01h.36l.36-.02.37-.02.36.01h.72l.36.01.37-.03h.36l.36-.03.36-.01.36-.02.37.02.36-.01.36-.01.36-.04.37-.01.36.01.36.02h.36l.36-.01.37-.02.36-.02.36.01h.36l.36-.01h.37l.36-.02.36-.01.36-.01h.73l.36-.01h.36l.36-.01h.37l.36-.02.36-.03.36.01.36-.02.37-.02.36-.01h.36l.36-.02.36-.01.37-.05.36-.01.36-.01h1.09l.36.01h.72l.37-.02h.36l.36-.02.36-.02.36-.02h1.09l.36-.01.36.02.37.01h.36l.36-.02.36-.02h.36l.37-.03h.36l.36-.02h.36l.36-.02.37-.01.36-.01.36-.02.36-.01.37-.02.36.02.36-.02.36.01.36-.02.37-.01h.36l.36-.04.36-.02.36-.01.37.01.36-.03h.36l.36-.02.36-.03.37-.01.36-.01.36-.01h1.09l.36-.02.36.01.36-.03.37.01.36.01.36-.01.36-.03.36.11h.37l.36-.01.36-.01.36-.01h.36l.37-.03.36-.02.36.02.36-.01.36-.02.37-.01.36.01.36.04.36-.01.37-.02.36.01.36-.01.36-.01.36-.02.37-.01.36-.01.36-.01.36.01.36-.01h.37l.36.03.36-.01h.36l.36.02h.37l.36-.01h.36l.36.02.37-.02.36-.01.36.01.36-.03.36-.01.37-.01.36-.02.36-.01.36-.03.36-.02h.37l.36-.01h.36l.36-.01.36-.03.37-.01.36.01.36.01.36-.02.36-.02.37-.01h.72l.36.01.37.01.36.02h1.81l.36-.02.36-.01.36-.02.37-.01h.36l.36.03.36-.01.36-.03.37-.01.36.02h.36l.36-.02.37.03.36-.03.36-.01.36-.02.36-.02.37.01.36-.02.36-.02.36.02.36.02.37.01h.36l.36.01.36-.01.36-.02h.37l.36.02h.36l.36-.01.37-.02.36-.01h.36l.36-.02.36.04h.37l.36-.01.36-.02.36.01.36-.02.37.02.36.01h.36l.36.02.36.03.37-.04.36-.03.36-.01.36-.01.36-.01.37-.01h.36l.36.01h.73l.36-.02.36-.01h.36l.36-.01.37-.01h1.08l.36-.01.37.02.36-.02.36-.01.36.02.36-.03.37-.03.36-.01.36-.01h1.09l.36.02h.72l.37-.04.36-.02.36.01.36-.01.36-.01h.37l.36-.02.36-.01.36-.02.36-.01.37-.03.36-.01.36-.01.36.03h.36l.37.02h.36l.36-.01.36.01.37.01.36.01h.36l.36.01.36-.02.37.02h.36l.36-.01.36-.01.36-.01.37.02.36.01h.72l.36-.01.37-.01.36-.02.36-.03h.36l.37-.01.36-.01h.36l.36-.01.36.02.37-.01.36-.01.36.02.36-.02h.36l.37.01.36.05.36.01.36.01.36-.01h1.09l.36.02h.36l.37.01.36-.02h.36l.36-.01h.37l.36-.01h.72l.36-.01.37-.01h.36l.36.01.36.02.36-.02h.37l.36.01.36-.04h.36l.36.01.37-.01h.36l.36-.01h.36l.37-.01h.36l.36-.01.36-.01.36-.02.37.01h.36l.36-.01h.72l.37-.02.36-.03.36-.01h.72l.37.01.36.02.36-.01.36.02h.37l.36-.01.36-.01.36-.04.36-.01.37.01.36-.03.36.01.36-.01.36.03.37.03.36-.02.36-.02.36-.01.36-.04h.73l.36-.02.36-.01.36.02.37.01.36.01.36.01.36-.03.37-.02.36-.03.36-.01.36.04.36-.05.37.02.36-.01.36.01.36-.03h.36l.37.01.36-.02.36.02.36-.02.36-.01.37.01.36.01.36.01.36-.03.37-.02.36-.02.36-.01h.72l.37.01.36.03.36.01.36-.02.36-.02.37-.02.36.01h.36l.36-.01.36-.01.37.01.36.02.36-.01.36-.03.36-.03.37-.03.36-.01h.36l.36-.01h.37l.36.02.36-.01.36.02.36-.02.37.02.36-.04.36.04h.72l.37-.04h.36l.36-.02.36-.01.36-.02.37-.01.36-.02.36-.03.36.01h.37l.36-.02.36-.03h.72l.37-.03.36.03.36-.03.36-.01.36.01.37-.01.36-.03h.36l.36-.02.36-.01.37-.03.36.04.36-.03h.36l.37-.01h.72l.36.02.36-.02h.73l.36.04h.36l.36.02.37-.01.36.02.36-.04.36.02.36-.04.37-.04.36.02h.36l.36-.01.36-.01.37-.01.36-.01.36.01.36-.02.37-.02.36-.01.36.01.36.02h.36l.37.01.36.01h.72l.36-.02.37.01.36-.01h.36l.36.02.36-.02.37.01.36-.02.36-.02.36-.01.37-.02.36.04h.72l.36.02.37-.02.36-.01h.72l.36.04h.37l.36-.02.36.02.36.01h.36l.37-.01.36-.02.36-.01h.36l.36-.01.37-.02.36.01h.72l.37-.02.36.03.36.01h.36l.36.01h.73l.36-.01.36.02h.36l.37-.02h.36l.36-.03.36.01h.73l.36-.01.36.01.36-.02.37-.03.36.01.36-.02.36-.01h.36l.37.01h.36l.36-.01.36-.02.36-.01h.37l.36.01.36-.03.36.01.36.01.37.02h.36l.36-.01.36-.05.36-.01.37-.01.36.01h.72l.37-.02.36-.02.36.03.36-.01.36-.01h.73l.36-.03.36-.01.36-.02.37.01.36-.01.36.04.36-.01.36-.02.37-.01.36.02.36.01.36-.05.37-.01h1.08l.36-.01.37.01.36.02.36-.01.36.03h.73l.36.02h.36l.36-.03.36.02.37.02.36.02.36.03.36.01.37-.01.36-.02.36.02.36-.01h.36l.37.01.36-.02.36-.01.36-.02.36-.01.37-.02h.72l.36.01.36.02.37-.01.36.01.36-.02h.36l.36.03.37-.01.36.01h.36l.36.02.37-.02.36-.01.36-.03.36-.01.36-.02.37-.01h.36l.36.03.36.02.36.01.37.01.36-.02.36.03.36.01h.36l.37.01.36-.01.36.03.36.05.37.01.36-.01h1.08l.37.01.36-.01.36.01.36-.01.36.01h.37l.36-.03.36.03.36-.02.36-.02.37-.03.36-.02.36.03.36.01.36.02.37-.03.36-.03.36-.01h.36l.37.02h.36l.36.02.36-.01.36-.01.37-.01.36.01h.36l.36-.01.36.01.37.01h.72l.36-.01.36.03h.37l.36.04h1.09l.36-.02.36.02.36-.01h.73l.36-.02.36-.02.36-.01.36-.04.37.01h.36l.36-.02.36.01h.36l.37.01.36.05.36-.02h.36l.36.01.37.03h.36l.36-.01.36-.02.37-.01.36.01.36-.01.36.03h.36l.37.03.36.01.36-.03.36.01.36.03h.37l.36.01.36.02h.36l.36-.02.37-.01.36-.04.36.01h.36l.37.03.36-.02.36-.02h.36l.36-.01.37.02.36-.01.36-.01.36-.05.36-.01.37.02.36-.02.36.04.36.01h.36l.37-.01h.36l.36.01.36-.02.37-.01.36.04.36.01.36-.02.36-.03.37-.01.36-.02h.36l.36.01.36.01.37.01.36-.03.36-.01.36.02.36.01.37-.01h.36l.36-.03.36.02h.36l.37.02.36-.01.36-.01.36.01.37-.01.36.01.36-.03h.36l.36.02.37-.02.36-.02.36.01.36.04.36-.02.37-.01.36-.01.36.01.36.01h.36l.37.02.36-.02.36-.01.36-.01.37.01.36.02h.36l.36.01.36.02.37.01.36.01h.36l.36-.03.36-.02.37.02.36-.02.36.03.36-.02.36.01.37-.01.36.01.36-.03.36.01.36-.01.37-.04.36-.02.36.01h.73l.36.01.36.03.36-.01h.36l.37.02.36.01.36-.01.36-.01h.36l.37.01.36.01.36-.02.36.01.36-.02.37-.01h.72l.36-.03.37.01.36.01.36.02.36.01.36-.01.37-.03.36.01.36.01h.36l.36.01.37-.01.36-.01h.36l.36.01.36-.01h.37l.36-.02.36-.01.36-.04.36.02.37-.01h.72l.36-.03.37.02.36-.01h.72l.36.03.37-.01h.36l.36-.02.36-.03h.36l.37.01.36.01h.36l.36-.02h.36l.37.01.36.02.36-.05.36.03.37.01.36-.01.36-.01.36.03h.36l.37.02h.36l.36.01.36.02.36-.01.37.01.36.01.36-.01.36-.01h.73l.36-.02.36.01.36.01.37.01.36-.03h.72l.36-.03.37.02.36-.01.36.01.36.01.36-.01h.37l.36.01h.36l.36.01.36-.02h.73l.36-.01h.36l.36-.01h.37l.36-.02h.36l.36.01.37-.01.36-.02h.36l.36.02.36-.01.37.01.36-.01.36.02"/><use xlink:href="#f5e0f__e" color="#FFAB00" transform="matrix(3.75 0 0 3.75 125.4 146.83)"/><use xlink:href="#f5e0f__e" color="#FFAB00" transform="matrix(3.75 0 0 3.75 220.55 7.51)"/></g><text stroke-linecap="round" stroke-linejoin="round" color="#000" font-family="KaTeX_Main" font-size="8" transform="translate(241.1 25.11)"><tspan>TreapTopDown</tspan></text><g fill="none" stroke="currentColor" stroke-linecap="round" stroke-linejoin="round" color="#000"><path stroke="#00C853" stroke-dasharray="4.5,2.0,0.5,2.0,0.5,2.0" d="M205.6 22.51h29.9M28 130.86l.36.33.36-.43.37-1.46.36-3.62.36 1.45.36 1.42.36.09.37-.18.36-.21.36.21.36.46.37-1.17.36-.12.36 2.79.36-1.32.36 2.54.37-.24.36-1.7.36-.76.36-.67.36-.26.37.58.36.13.36-4.04.36 3.5.36-1.28.37.77.36-.54.36.43.36.3.36-1.41.37-.27.36.07.36-.36.36-.63.37.36.36 1.05.36-1.32.36.01.36 2.19.37.81.36.28.36-.42.36-.21.36.3.37.17.36.58.36-.23.36 1.34.36-.34.37-.52.36 1.35.36-.23.36.97.37.68.36-1.12.36 1.95.36.87.36-.03.37-1.34.36 1.49.36-.24.36-.89.36-.66.37.54.36-1.9.36-.4.36-.97.36.01.37.31.36 1.97.36.12.36-9.22h.37l.36 8.34.36-1.54.36-.44.36-1.93.37.36.36 6.52.36-.16.36-.62.36-1.14.37-.38.36-.27.36-.22.36-.32.36-1.17.37-.71.36.38.36-.1.36-2.36.36-.94.37.63.36.72.36-.37.36 1.03.37 1.16.36.03.36-.78.36.03.36-.25.37.65.36 1.12.36-.72.36.51.36 1.1.37.65.36-1.34.36-3.07.36.1.36-.82.37.02.36 1.63.36 2.8.36.21.37-.95.36-.15.36.59.36-.14.36-.48.37.02.36.07.36.78.36-.11.36-1.26.37.41.36-2.8.36-.82.36.81.36.83.37.21.36 1.02.36.19.36.35.36 1.17.37-1.47.36.07.36-.95.36-.15.37-.43.36-.42.36.61.36.32.36.15.37.26.36-1.77.36-.19.36.08.36-.17.37 1.14.36.23.36-.26.36.2.36-.39.37-1.88.36.3.36-1.98.36-1.39.37-.23.36-.05.36 2.26.36-2.97.36-.25.37-2.38.36 2.84.36-.39.36.08.36 3.88.37 4.13.36-.06.36 1.14.36.76.36-.19.37-2.48.36.5.36-1.38.36.31.36.58.37.28.36-1.1.36-.37.36-.86.37 1.09.36-2.01.36 4.74.36-.07.36-.29.37 1.17.36-.26.36-.59.36 1.24.36-.13.37-.39.36.43.36-.19.36.31.36.98.37.01.36-.81.36.12.36-1.34.37-.83.36-.47.36 1.02.36-2.06.36-1.88.37 1.67.36.5.36-.59.36-.06.36.12.37-.11.36.28.36-.45.36.79.36-.81.37-8 .36.37.36-.37.36.52.37.12.36.99.36-1.3.36 1.83.36 1.28.37 1.07.36.58.36 2.81.36.34.36 1.4.37 3.01.36-.64.36 1.28.36-2.69.36.63.37-.21.36-.72.36-3.06.36.61.36-.26.37 2.78.36-.4.36 1.6.36-2.5.37 1.37.36-.2.36.32.36.36.36-.17.37-.36.36.2.36-1.32.36-1.44.36-1.59.37 2.99.36-2 .36 1.05.36.08.36-.23.37 3.25.36.03.36.13.36.12.37.18.36.1.36-.63.36-1.08.36 1.69.37-.3.36.66.36.06.36.33.36-.01.37-1.55.36-.16.36-.22.36.01.36.14.37-.53.36-.2.36.66.36-.95.36-.79.37-.36.36 1.17.36-.02.36-1.61.37.69.36-1.18.36-.51.36 1.01.36-.21.37-.3.36-.13.36-1.84.36-1.16.36-.35.37 2.71.36-4.4.36-.56.36 6.38.36-.1.37.71.36-.03.36 1.07.36.3.37-.44.36.1.36-.01.36.01.36-3.48.37 2.73.36.58.36-.03.36-1.24.36 1.29.37-1.22.36-1.46.36-.58.36-3.57.36.04.37 2.46.36-1.11.36 6.33.36-3.59.36-.64.37-1.89.36.39.36-3.46.36.88.37-1.25.36-.95.36-.63.36.97.36-3.21.37-.41.36-.09.36 5.13.36-.17.36-4.19h.37l.36-1.12.36 6.1.36.42.36 2.67.37-.49.36.14.36.08.36.09.37.75.36-4.04.36.2.36.09.36-.05.37-1.13.36-3.91.36 1.44.36-.37.36-.76.37.38.36.07.36.43.36.06.36 6.57.37 1.28.36-.47.36-3.61.36.82.37-4.64.36-.37.36-.44.36 9.01.36 1.34.37.42.36-.98.36.01.36-.81.36 1.59.37-.81.36-3.73.36 4.68.36-4 .36.91.37.18.36.88.36 2.04.36 1.25.36.28.37 1.94.36-.67.36-.07.36 1.01.37.95.36-.3.36-1.16.36 1.05.36-.04.37-.58.36-.25.36.26.36-.84.36.27.37.1.36-.08.36-2.73.36.44.36.25.37-.34.36.49.36.87.36-1.25.37.12.36 1.39.36-1.83.36 1.38.36-1.44.37 2.91.36-1.14.36-.07.36.24.36-.58.37.28.36.62.36-.61.36-.73.36.04.37-.99.36.85.36.6.36-1.21.36-.65.37 1.48.36-1.18.36-.49.36 2.26.37-1.05.36-.36.36.28.36-.31.36-1.21.37.09.36-.02.36 1.88.36.54.36 1.17.37.65.36-1.57.36-.86.36-.36.36-1.07.37-1.6.36 1.56.36 1.05.36 1.17.37-.04.36.37.36-1.73.36-.64.36.73.37-1.12.36 1.03.36 1.03.36-1.09.36-.41.37-.39.36 1.15.36-.48.36.68.36-.74.37-.47.36.85.36.29.36.75.37.06.36-1.78.36 1.43.36 1.3.36.46.37.45.36-.15.36-.28.36-1 .36.45.37-1.46.36-.79.36.66.36-.24.36-3.52.37.45.36-.15.36-.05.36-.92.36.04.37-.23.36.17.36-1.91.36 1.83.37 2.06.36-2.36.36-2.95.36 6.64.36-1.08.37.18.36 1.68.36.27.36-.9.36-.12.37-.56.36.48.36 1.61.36.35.36-.99.37-.36.36.5.36-.24.36 2.03h.37l.36-1.36.36.8.36-7.26.36.26.37.22.36-.25.36-.67.36-.79.36 1.65.37 1.81.36-.33.36.6.36.94.36.39.37.82.36-2.94.36.82.36-.26.36-.28h.37l.36.66.36-.42.36.49.37.17.36-.1.36-.24.36-.39.36-.91.37-.01.36.03.36.7.36-.34.36-.71.37-1.51.36 1.5.36 1.35.36.05.36-1.04.37-.13.36.45.36.04.36-.19.37-1.58.36.54.36.01.36-.02.36-.55.37.57.36-.7.36.16.36 1.2.36-.29.37-.05.36-1.02.36 3.76.36-.88.36-1.02.37 2.24.36-.47.36-.02.36-.16.36.14.37-.22.36-1.09.36-.38.36 2.09.37 3.28.36-.5.36-.67.36 3.01.36.25.37-1.83.36.9.36 1.7.36-.05.36.73.37.76.36-.08.36-.15.36.11.36-.45.37-2.11.36.36.36-.27.36-.24.37.1.36.22.36.19.36-.76.36-4.01.37.97.36-.32.36.72.36-.3.36.53.37 1.13.36-.73.36-2.35.36-.75.36-.62.37.29.36-.05.36-.16.36.45.37.09.36.03.36.09.36-.14.36.67.37-.96.36.09.36 4.96.36.74.36-.93.37-6.88.36.93.36-.04.36-.6.36-.83.37 2.3.36 2.28.36-.2.36.7.36-1.27.37-.66.36-2.15.36.58.36 1.86.37-.62.36.05.36-.25.36-1.17.36 1.16.37-.66.36-.35.36 4.07.36.56.36 1.23.37.33.36-.01.36-.39.36-.76.36.45.37.54.36-.63.36-2.42.36 1.57.37-.26.36.43.36.59.36.66.36-.73.37.1.36-.26.36.32.36-.49.36.12.37 1.02.36-.75.36-.8.36-.41.36-.63.37-1.79.36 1.34.36-.19.36 2.96.36-4.21.37.29.36-.24.36 1.88.36-.22.37-.72.36-.69.36.15.36 3.25.36.62.37-1.58.36-.61.36.2.36.6.36-.37.37.75.36-.59.36-.98.36-.51.36.61.37.03.36-.1.36-3.73.36.32.37 2.75.36-.39.36.11.36.99.36.33.37.97.36-1.68.36.63.36.53.36 1.79.37-.34.36-.06.36.37.36.36.36.21.37.42.36-.03.36-.2.36.63.36-1.22.37-.7.36.15.36.21.36.25.37.56.36-1.49.36-.15.36-.65.36-.36.37-1.04.36-2.81.36.76.36-.57.36.88.37.14.36.19.36-.47.36-.54.36.79.37.8.36 3.51.36-.22.36-.27.37-.77.36 1.29.36.09.36-.84.36.94.37-2.88.36-.05.36-.06.36 1.16.36 2.38.37-2.18.36-2.62.36-1.49.36.7.36-1.21.37.57.36.22.36-5.68.36 3.51.37 5.17.36 1.82.36-.84.36 1.29.36 1.12.37-.61.36-.49.36-.39.36-.74.36-.28.37.12.36-1.02.36.65.36 1.31.36.35.37-3.64.36-3.66.36.6.36-1.82.36 3.55.37.41.36.36.36 3.37.36-2.64.37.66.36.84.36-3.99.36-1.49.36-.11.37.29.36.72.36-.62.36-.97.36.52.37-.14.36-.41.36-.17.36-.01.36.13.37-.62.36-.37.36-1.97.36 1.18.37.28.36-.15.36-.69.36 9.5.36-.65.37.51.36 1.13.36.49.36.3.36-.5.37-5.77.36.27.36.4.36-.04.36-1.19.37 1.25.36 1.02.36-.04.36.98.36.38.37-.26.36 5.17.36-1.34.36-2.74.37-.41.36.25.36-.26.36-.25.36-1.15.37-.37.36-.08.36 1.75.36.35.36.01.37-.29.36 1.07.36-.13.36-.04.36.26.37.31.36.4.36-.08.36.61.37-.04.36.21.36-2.39.36 2.29.36-1.44.37-2.96.36.27.36-.31.36.25.36-.92.37-.55.36.21.36-.82.36-.97.36 2.71.37.81.36 1.6.36.34.36-1.26.36.92.37-.65.36-.88.36.62.36 1.1.37-.46.36-1.7.36 1.63.36 1.41.36.15.37-1.96.36-.33.36 1.01.36.38.36 2.05.37-5.05.36.43.36.92.36-2.09.36 5.48.37-6.9.36.42.36.25.36-.26.37 3.14.36-.74.36-.63.36 5.07.36-2.09.37-.79.36.2.36-1.87.36-.88.36.55.37-.16.36-.46.36.1.36-1.48h.36l.37 4.41.36-4.07.36-.36.36 1.29.37.06.36.47.36.11.36.14.36-.91.37.32.36.04.36-.62.36 3.77.36-2.42.37-.32.36-.09.36-1.16.36.35.36.21.37-1.15.36-.49.36.48.36-.94.36.58.37-.91.36-1.31.36-.13.36-.66.37 2.68.36-.08.36.56.36.14.36.95.37 4.01.36-.13.36.71"/><use xlink:href="#f5e0f__f" color="#00C853" transform="matrix(3.75 0 0 3.75 182.98 128.74)"/><use xlink:href="#f5e0f__f" color="#00C853" transform="matrix(3.75 0 0 3.75 220.55 22.51)"/></g><path fill="none" d="M28 45.01V162.5M371.99 45.01H28" color="#000"/></svg>