<svg xmlns="http://www.w3.org/2000/svg" xmlns:xlink="http://www.w3.org/1999/xlink" viewBox="0 0 400 200"><path fill="none" d="M0 0h400v200H0z"/><defs><path id="4be13__b" stroke="currentColor" stroke-width=".267" d="M-1-1h2v2h-2z"/><path id="4be13__a" stroke="currentColor" stroke-width=".267" d="m0-1.33-1.33 2h2.66z"/><path id="4be13__f" stroke="currentColor" stroke-width=".267" d="M0 1.33 1.265.411.782-1.067l-1.564-.009-.483 1.487z"/><use xlink:href="#4be13__a" id="4be13__d" fill="currentColor" stroke="none"/><use xlink:href="#4be13__b" id="4be13__c" stroke="currentColor" transform="rotate(45)"/><use xlink:href="#4be13__c" id="4be13__e" fill="currentColor" stroke="none"/></defs><path fill="none" stroke="#CCC" stroke-linecap="round" stroke-linejoin="round" stroke-width=".1" d="M46.1 162.5V45.01" class="4be13__gridline" color="#000"/><g fill="none" stroke-linecap="round" stroke-linejoin="round" stroke-width="0" color="#000"><path d="M46.1 162.5V155m0-109.99v7.5"/><text fill="#000" font-family="KaTeX_Main" font-size="8" text-anchor="middle" transform="translate(46.1 172.6)"><tspan> 1</tspan></text></g><path fill="none" stroke="#CCC" stroke-linecap="round" stroke-linejoin="round" stroke-width=".1" d="M82.31 162.5V45.01" class="4be13__gridline" color="#000"/><g fill="none" stroke-linecap="round" stroke-linejoin="round" stroke-width="0" color="#000"><path d="M82.31 162.5V155m0-109.99v7.5"/><text fill="#000" font-family="KaTeX_Main" font-size="8" text-anchor="middle" transform="translate(82.31 172.6)"><tspan> 2</tspan></text></g><path fill="none" stroke="#CCC" stroke-linecap="round" stroke-linejoin="round" stroke-width=".1" d="M118.52 162.5V45.01" class="4be13__gridline" color="#000"/><g fill="none" stroke-linecap="round" stroke-linejoin="round" stroke-width="0" color="#000"><path d="M118.52 162.5V155m0-109.99v7.5"/><text fill="#000" font-family="KaTeX_Main" font-size="8" text-anchor="middle" transform="translate(118.52 172.6)"><tspan> 3</tspan></text></g><path fill="none" stroke="#CCC" stroke-linecap="round" stroke-linejoin="round" stroke-width=".1" d="M154.73 162.5V45.01" class="4be13__gridline" color="#000"/><g fill="none" stroke-linecap="round" stroke-linejoin="round" stroke-width="0" color="#000"><path d="M154.73 162.5V155m0-109.99v7.5"/><text fill="#000" font-family="KaTeX_Main" font-size="8" text-anchor="middle" transform="translate(154.73 172.6)"><tspan> 4</tspan></text></g><path fill="none" stroke="#CCC" stroke-linecap="round" stroke-linejoin="round" stroke-width=".1" d="M190.94 162.5V45.01" class="4be13__gridline" color="#000"/><g fill="none" stroke-linecap="round" stroke-linejoin="round" stroke-width="0" color="#000"><path d="M190.94 162.5V155m0-109.99v7.5"/><text fill="#000" font-family="KaTeX_Main" font-size="8" text-anchor="middle" transform="translate(190.94 172.6)"><tspan> 5</tspan></text></g><path fill="none" stroke="#CCC" stroke-linecap="round" stroke-linejoin="round" stroke-width=".1" d="M227.15 162.5V45.01" class="4be13__gridline" color="#000"/><g fill="none" stroke-linecap="round" stroke-linejoin="round" stroke-width="0" color="#000"><path d="M227.15 162.5V155m0-109.99v7.5"/><text fill="#000" font-family="KaTeX_Main" font-size="8" text-anchor="middle" transform="translate(227.15 172.6)"><tspan> 6</tspan></text></g><path fill="none" stroke="#CCC" stroke-linecap="round" stroke-linejoin="round" stroke-width=".1" d="M263.36 162.5V45.01" class="4be13__gridline" color="#000"/><g fill="none" stroke-linecap="round" stroke-linejoin="round" stroke-width="0" color="#000"><path d="M263.36 162.5V155m0-109.99v7.5"/><text fill="#000" font-family="KaTeX_Main" font-size="8" text-anchor="middle" transform="translate(263.36 172.6)"><tspan> 7</tspan></text></g><path fill="none" stroke="#CCC" stroke-linecap="round" stroke-linejoin="round" stroke-width=".1" d="M299.57 162.5V45.01" class="4be13__gridline" color="#000"/><g fill="none" stroke-linecap="round" stroke-linejoin="round" stroke-width="0" color="#000"><path d="M299.57 162.5V155m0-109.99v7.5"/><text fill="#000" font-family="KaTeX_Main" font-size="8" text-anchor="middle" transform="translate(299.57 172.6)"><tspan> 8</tspan></text></g><path fill="none" stroke="#CCC" stroke-linecap="round" stroke-linejoin="round" stroke-width=".1" d="M335.78 162.5V45.01" class="4be13__gridline" color="#000"/><g fill="none" stroke-linecap="round" stroke-linejoin="round" stroke-width="0" color="#000"><path d="M335.78 162.5V155m0-109.99v7.5"/><text fill="#000" font-family="KaTeX_Main" font-size="8" text-anchor="middle" transform="translate(335.78 172.6)"><tspan> 9</tspan></text></g><path fill="none" stroke="#CCC" stroke-linecap="round" stroke-linejoin="round" stroke-width=".1" d="M371.99 162.5V45.01" class="4be13__gridline" color="#000"/><g fill="none" stroke-linecap="round" stroke-linejoin="round" stroke-width="0" color="#000"><path d="M371.99 162.5V155m0-109.99v7.5"/><text fill="#000" font-family="KaTeX_Main" font-size="8" text-anchor="middle" transform="translate(371.99 172.6)"><tspan> 10</tspan></text></g><g fill="none" stroke-linecap="round" stroke-linejoin="round" stroke-width="0" color="#000"><path d="M371.99 162.5h-7.5"/><text fill="#000" font-family="KaTeX_Main" font-size="8" transform="translate(378.99 165.1)"><tspan>10.00</tspan></text></g><g fill="none" stroke-linecap="round" stroke-linejoin="round" stroke-width="0" color="#000"><path d="M371.99 150.75h-7.5"/><text fill="#000" font-family="KaTeX_Main" font-size="8" transform="translate(378.99 153.35)"><tspan>11.00</tspan></text></g><g fill="none" stroke-linecap="round" stroke-linejoin="round" stroke-width="0" color="#000"><path d="M371.99 139h-7.5"/><text fill="#000" font-family="KaTeX_Main" font-size="8" transform="translate(378.99 141.6)"><tspan>12.00</tspan></text></g><g fill="none" stroke-linecap="round" stroke-linejoin="round" stroke-width="0" color="#000"><path d="M371.99 127.25h-7.5"/><text fill="#000" font-family="KaTeX_Main" font-size="8" transform="translate(378.99 129.85)"><tspan>13.00</tspan></text></g><g fill="none" stroke-linecap="round" stroke-linejoin="round" stroke-width="0" color="#000"><path d="M371.99 115.5h-7.5"/><text fill="#000" font-family="KaTeX_Main" font-size="8" transform="translate(378.99 118.1)"><tspan>14.00</tspan></text></g><g fill="none" stroke-linecap="round" stroke-linejoin="round" stroke-width="0" color="#000"><path d="M371.99 103.75h-7.5"/><text fill="#000" font-family="KaTeX_Main" font-size="8" transform="translate(378.99 106.35)"><tspan>15.00</tspan></text></g><g fill="none" stroke-linecap="round" stroke-linejoin="round" stroke-width="0" color="#000"><path d="M371.99 92.01h-7.5"/><text fill="#000" font-family="KaTeX_Main" font-size="8" transform="translate(378.99 94.61)"><tspan>16.00</tspan></text></g><g fill="none" stroke-linecap="round" stroke-linejoin="round" stroke-width="0" color="#000"><path d="M371.99 80.26h-7.5"/><text fill="#000" font-family="KaTeX_Main" font-size="8" transform="translate(378.99 82.86)"><tspan>17.00</tspan></text></g><g fill="none" stroke-linecap="round" stroke-linejoin="round" stroke-width="0" color="#000"><path d="M371.99 68.51h-7.5"/><text fill="#000" font-family="KaTeX_Main" font-size="8" transform="translate(378.99 71.11)"><tspan>18.00</tspan></text></g><g fill="none" stroke-linecap="round" stroke-linejoin="round" stroke-width="0" color="#000"><path d="M371.99 56.76h-7.5"/><text fill="#000" font-family="KaTeX_Main" font-size="8" transform="translate(378.99 59.36)"><tspan>19.00</tspan></text></g><g fill="none" stroke-linecap="round" stroke-linejoin="round" stroke-width="0" color="#000"><path d="M371.99 45.01h-7.5"/><text fill="#000" font-family="KaTeX_Main" font-size="8" transform="translate(378.99 47.61)"><tspan>20.00</tspan></text></g><path fill="none" d="M28 45.01V162.5M371.99 45.01H28" color="#000"/><text stroke-linecap="round" stroke-linejoin="round" stroke-width="0" color="#000" font-family="KaTeX_Main" font-size="10" text-anchor="middle" transform="rotate(-90 57.63 46.13)"><tspan font-weight="bold">Duration </tspan><tspan> in milliseconds</tspan></text><text stroke-linecap="round" stroke-linejoin="round" stroke-width="0" color="#000" font-family="KaTeX_Main" font-size="10" text-anchor="middle" transform="translate(199.99 195.75)"><tspan>Operations / 10</tspan><tspan dy="-5" font-size="8">6</tspan></text><text stroke-linecap="round" stroke-linejoin="round" color="#000" font-family="KaTeX_Main" font-size="8" transform="translate(132.8 10.11)"><tspan>Splay</tspan></text><g fill="none" stroke="currentColor" stroke-linecap="round" stroke-linejoin="round" color="#000"><path stroke="#29C3F6" d="M97.3 7.51h29.9M28 96.56l.17-.32.17-.33.02-.03.16-.29.17-.32.03-.07.14-.25.17-.32.06-.1.11-.22.18-.31.07-.13.1-.18.17-.31.09-.17.08-.14.17-.31.11-.2.07-.11.17-.31.12-.22.05-.08.17-.3.15-.26.03-.05.17-.3.16-.28.01-.01.17-.3.17-.3.01-.01.17-.28.17-.29.02-.05.15-.25.17-.28.05-.08.12-.21.18-.29.06-.1.11-.18.17-.28.08-.13.09-.15.17-.28.1-.15.08-.12.17-.28.11-.18.06-.09.17-.26.14-.21.03-.06.18-.26.15-.23.02-.03.17-.26.17-.25v-.01l.18-.25.17-.25.01-.02.16-.23.17-.25.03-.04.14-.2.18-.24.05-.07.12-.17.17-.24.07-.09.1-.15.17-.23.09-.12.09-.12.17-.23.1-.14.07-.09.17-.23.12-.16.05-.07.18-.23.14-.19.03-.04.17-.24.16-.21.01-.02.17-.23.18-.24.17-.23.17-.24.02-.04.15-.21.18-.24.03-.06.14-.19.17-.26.06-.08.11-.17.17-.27.08-.11.1-.15.17-.28.09-.15.08-.12.17-.29.11-.19.06-.1.18-.3.13-.23.04-.08.17-.31.15-.27.02-.05.17-.33.17-.32.01-.02.17-.34.17-.36.01-.02.16-.34.17-.38.03-.06.15-.32.17-.39.05-.1.12-.29.17-.41.07-.15.11-.26.17-.43.08-.2.09-.22.17-.44.1-.26.07-.18.18-.45.11-.31.06-.14.17-.46.14-.37.03-.09.17-.47.16-.41.02-.05.17-.47.17-.47.17-.47.17-.46.02-.05.16-.42.17-.46.03-.1.14-.36.17-.45.06-.14.11-.31.18-.44.07-.19.1-.25.17-.43.09-.22.08-.19.18-.42.1-.25.07-.15.17-.39.13-.28.04-.1.17-.37.15-.3.03-.05.17-.35.16-.32.01-.02.17-.32.17-.31.01-.01.17-.29.17-.28.02-.05.15-.23.17-.26.05-.06.12-.19.18-.24.06-.08.11-.14.17-.22.08-.1.09-.1.17-.2.1-.1.08-.08.17-.17.11-.11.06-.06.17-.15.14-.11.04-.04.17-.13.15-.12.02-.01.17-.12.17-.11v-.01l.18-.1.17-.1.01-.01.16-.09.17-.09.03-.01.14-.07.18-.08.05-.02.12-.05.17-.07.07-.03.1-.04.17-.06.09-.03.09-.03.17-.05.1-.04.07-.02.17-.04.13-.04.04-.01.18-.05.14-.03.03-.01.17-.04.16-.03.01-.01.18-.03.17-.04.17-.03.17-.04h.02l.15-.03.18-.03.04-.01.13-.02.17-.03h.06l.11-.02.17-.03.08-.01.1-.02.17-.02.09-.01.08-.01.17-.03.11-.01.06-.01.18-.02.13-.02h.04l.17-.02.15-.02h.02l.17-.02.17-.02h.01l.17-.02.17-.02h.01l.16-.02.17-.01.03-.01.15-.01.17-.02h.05l.12-.01.17-.02h.07l.11-.01.17-.02h.08l.09-.01.17-.01.1-.01.07-.01.18-.01.11-.01h.06l.17-.01.14-.01h.03l.17-.02.16-.01h.02l.17-.01.17-.01.17-.01.17-.01h.02l.16-.01.17-.01h.04l.13-.01.17-.01h.06l.11-.01.18-.01h.07l.1-.01.17-.01h.17l.18-.01.1-.01H65l.17-.01.13-.01h.04l.17-.01h.15l.03-.01h.17l.16-.01h.01l.17-.01.17-.01h.01l.17-.01.17-.01h.17l.17-.01h.05l.12-.01.18-.01h.06l.11-.01h.17l.08-.01h.09l.17-.01.1-.01h.08l.17-.01h.17l.17-.01.14-.01h.04l.17-.01h.15l.02-.01h.17l.17-.01.18-.01.17-.01h.17l.17-.01h.04l.13-.01.18-.01h.17l.17-.01h.07l.1-.01h.17l.09-.01h.09l.17-.01h.1l.07-.01h.17l.13-.01h.04l.18-.01h.17l.17-.01h.16l.01-.01h.18l.17-.01h.17l.17-.01h.02l.15-.01h.22l.13-.01h.23l.11-.01h.17l.08-.01h.27l.09-.01h.25l.11-.01h.24l.13-.01h.38l.17-.01h.18l.17-.01h.34l.18-.01h.51l.17-.01h.79l.07-.01h3.27l.18.01h.83l.03.01h.69l.17.01h.56l.12.01h.52l.08.01h.44l.17.01h.52l.17.01h.51l.18.01h.55l.13.01h.69l.17.01h.52l.17.01h1.04l.17.01h4.64l.07-.01h1.09l.05-.01h.69l.17-.01h.69l.17-.01h.52l.17-.01h.51l.18-.01h.51l.17-.01h.52l.17-.01h.52l.03-.01h.66l.06-.01h.63l.09-.01h.77l.17-.01h.87l.16-.01h1.72l.17-.01h3.1l.17.01h2.41l.17.01h1.72l.16.01h1.81l.1.01h2.24l.17.01h10.32l.18.01h1.03l.08.01h.73l.05.01h.51l.16.01h.53l.18.01h.34l.04.01h.48l.17.01h.17l.17.01h.35l.11.01h.23l.13.01h.36l.03.01h.34l.17.01h.18l.17.01h.2l.14.01h.35l.17.01h.17l.17.01h.17l.18.01h.34l.12.01h.22l.14.01h.38l.17.01h.35l.17.01h.34l.04.01h.48l.17.01h.69l.11.01h.75l.17.01h3.62l.16-.01h1.09l.12-.01h.69l.17-.01h.52l.17-.01h.69l.17-.01h.52l.17-.01h.52l.17-.01h.51l.18-.01h.68l.15-.01h.72l.17-.01h.86l.06-.01h1.83l.17-.01h1.03l.18.01h1.89l.17.01h1.03l.18.01h.76l.1.01h.86l.13.01h1.09l.15.01h4.48l.07-.01h.79l.17-.01h.69l.16-.01h.73l.14-.01h.52l.06-.01h.73l.07-.01h.69l.17-.01h.88l.15-.01h1.55l.11-.01h1.45l.16.01h1.55l.1.01h1.1l.18.01h.86l.03.01h.83l.17.01h.69l.12.01h.74l.17.01h.86l.04.01h.99l.1.01h.93l.15.01h.73l.16.01h1.03l.17.01h1.03l.14.01h1.07l.02.01h1.08l.1.01h1.21l.14.01h1.23l.18.01h1.03l.1.01h1.28l.16.01h1.04l.05.01h1.09l.07.01h1.03l.17.01h1.03l.17.01h1.55l.18.01h4.47l.02-.01h1.87l.17-.01h2.24l.06-.01h2.9l.14.01h1.89l.14.01h1.09l.15.01h1.03l.17.01h.82l.04.01h.69l.17.01h.69l.17.01h.69l.09.01h.6l.12.01h.57l.15.01h.54l.17.01h.69l.05.01h.73l.08.01h.69l.17.01h.69l.17.01h.86l.17.01h1.21l.17.01H240l.18-.01h2.92l.17.01h2.24l.11.01h1.1l.17.01h.86l.04.01h.82l.17.01h.46l.06.01h.51l.15.01h.54l.17.01h.38l.14.01h.34l.18.01h.17l.17.01h.45l.07.01h.34l.17.01h.35l.16.01h.18l.17.01h.37l.15.01h.34l.17.01h.35l.08.01h.36l.08.01h.34l.17.01h.35l.14.01h.37l.17.01h.35l.17.01h.39l.13.01h.51l.09.01h.6l.12.01h.57l.15.01h.54l.17.01h.52l.17.01h.78l.08.01h.69l.17.01h.87l.16.01h.92l.11.01h1.04l.17.01h1.72l.17.01h2.59l.16-.01h1.38l.17-.01h.86l.18-.01h.51l.17-.01h.69l.17-.01h.41l.11-.01h.52l.1-.01h.41l.18-.01h.51l.17-.01h.54l.15-.01h.35l.17-.01h.51l.18-.01h.68l.13-.01h1.09l.16-.01h1.89l.12.01h1.26l.17.01h.52l.17.01h.69l.09.01h.6l.12.01h.57l.16.01h.7l.02.01h.84l.17.01h1.2l.18.01h2.58l.1-.01h1.96l.17-.01h4.39l.09.01h.86l.13.01h.39l.17.01h.53l.16.01h.2l.14.01h.34l.18.01h.17l.17.01h.17l.17.01h.11l.07.01h.29l.05.01h.17l.14.01h.21l.16.01h.01l.17.01h.18l.17.01.17.01h.02l.15.01h.17l.04.01h.13l.18.01h.06l.11.01h.17l.08.01h.09l.17.01h.1l.08.01.17.01h.17l.17.01.13.01h.04l.18.01.15.01h.19l.17.01.17.01.18.01h.17l.17.01h.03l.14.01.17.01h.18l.17.01h.07l.1.01h.26l.09.01h.17l.1.01h.24l.12.01h.23l.13.01h.21l.16.01h.36l.17.01h.34l.17.01h.86l.18.01h3.78l.17-.01h5.86l.06.01h1.08l.06-.01h1.39l.16-.01h.69l.17-.01h.52l.17-.01h.51l.18-.01h.68l.18-.01h.51l.17-.01h.87l.17-.01h2.99l.1-.01h.52l.1.01h3l.17.01h.86l.17.01h.52l.17.01h.52l.02.01h.49l.18.01h.34l.08.01h.61l.11.01h.4l.18.01h.68l.18.01h1.82l.07.01h3.96l.17.01h1.03l.17-.01h2.59l.17-.01h.69l.17-.01h.4l.11-.01h.25l.1-.01h.26l.08-.01h.17l.11-.01h.07l.17-.01h.17l.17-.01h.18l.17-.01.16-.01h.18l.17-.01h.18l.17-.01h.51l.18-.01h.17l.17.01h.34l.1.01h.08l.17.01h.17l.17.01.14.01h.03l.18.01.15.02h.02l.17.01.17.01.18.02.17.01h.01l.16.02.17.01h.03l.14.02.18.01h.05l.12.01.17.02h.07l.1.01.17.01.09.01.09.01.17.01.1.01h.07l.17.01.12.01h.05l.18.01.14.01h.03l.17.01h.17l.17.01h.18l.17.01h.34l.18-.01h.34l.06-.01h.11l.17-.01h.08l.1-.01.17-.01h.09L367 52l.17-.01h.11l.06-.01.18-.01.12-.01h.05l.17-.01.15-.01h.02l.17-.01h.18l.17-.01h.18l.16-.01h.57l.12-.01h.17l.07-.01h.36l.09.01.17.03.1.02.07.03.18.08.11.05.06.01.17.03.14.01.03-.01.17-.24.16-.36.02-.04.17-.72.08-.44.09-.41"/><use xlink:href="#4be13__b" color="#29C3F6" transform="matrix(3.75 0 0 3.75 366.2 52.04)"/><use xlink:href="#4be13__b" color="#29C3F6" transform="matrix(3.75 0 0 3.75 112.25 7.51)"/></g><text stroke-linecap="round" stroke-linejoin="round" stroke-width=".5" color="#000" font-family="KaTeX_Main" font-size="8" transform="translate(132.8 25.11)"><tspan>AVLBottomUp</tspan></text><g fill="none" stroke="currentColor" stroke-linecap="round" stroke-linejoin="round" stroke-width=".5" color="#000"><path stroke="#000" d="M97.3 22.51h29.9M28 157.3l.17-.24.17-.23.02-.03.16-.21.17-.24.03-.04.14-.19.17-.23.06-.07.11-.16.18-.23.07-.1.1-.13.17-.23.09-.11.08-.11.17-.22.11-.14.07-.09.17-.22.12-.16.05-.06.17-.22.15-.18.03-.03.17-.22.16-.2.01-.01.17-.21.17-.22h.01l.17-.21.17-.2.02-.03.15-.18.17-.2.05-.06.12-.15.18-.2.06-.07.11-.13.17-.2.08-.09.09-.11.17-.19.1-.11.08-.08.17-.2.11-.12.06-.07.17-.19.14-.14.03-.04.18-.19.15-.16.02-.02.17-.19.17-.17v-.01l.18-.18.17-.17.01-.02.16-.16.17-.18.03-.03.14-.14.18-.18.05-.05.12-.12.17-.17.07-.07.1-.1.17-.17.09-.08.09-.09.17-.16.1-.1.07-.07.17-.17.12-.11.05-.05.18-.16.14-.14.03-.03.17-.16.16-.15.01-.01.17-.16.18-.17.17-.16.17-.16.02-.02.15-.14.18-.16.03-.03.14-.12.17-.16.06-.06.11-.1.17-.16.08-.07.1-.09.17-.16.09-.08.08-.07.17-.16.11-.1.06-.06.18-.16.13-.11.04-.04.17-.16.15-.13.02-.03.17-.15.17-.15.01-.01.17-.16.17-.15.01-.01.16-.15.17-.16.03-.03.15-.13.17-.15.05-.05.12-.11.17-.16.07-.05.11-.1.17-.16.08-.07.09-.08.17-.16.1-.09.07-.06.18-.16.11-.11.06-.04.17-.16.14-.12.03-.03.17-.15.16-.14.02-.01.17-.15.17-.15.17-.14.17-.15.02-.02.16-.13.17-.14.03-.03.14-.11.17-.14.06-.04.11-.09.18-.14.07-.05.1-.08.17-.13.09-.07.08-.06.18-.13.1-.08.07-.04.17-.12.13-.09.04-.03.17-.12.15-.09.03-.02.17-.11.16-.11h.01l.17-.11.17-.1.01-.01.17-.09.17-.1.02-.02.15-.08.17-.09.05-.02.12-.07.18-.09.06-.03.11-.06.17-.08.08-.04.09-.04.17-.08.1-.05.08-.03.17-.08.11-.04.06-.03.17-.07.14-.05.04-.02.17-.07.15-.06h.02l.17-.07.17-.06.18-.07.17-.06h.01l.16-.06.17-.05.03-.01.14-.05.18-.06.05-.01.12-.04.17-.05.07-.02.1-.04.17-.05.09-.02.09-.03.17-.05.1-.03.07-.02.17-.05.13-.03.04-.01.18-.05.14-.04.03-.01.17-.04.16-.05h.01l.18-.04.17-.05.17-.04.17-.04.02-.01.15-.04.18-.04.04-.01.13-.03.17-.04.06-.02.11-.02.17-.04.08-.02.1-.02.17-.04.09-.02.08-.02.17-.04.11-.02.06-.02.18-.03.13-.03.04-.01.17-.04.15-.03h.02l.17-.04.17-.03.01-.01.17-.03.17-.04h.01l.16-.03.17-.03.03-.01.15-.03.17-.03.05-.01.12-.02.17-.04.07-.01.11-.02.17-.03.08-.02.09-.01.17-.03.1-.02.07-.02.18-.03.11-.02.06-.01.17-.03.14-.02.03-.01.17-.02.16-.03h.02l.17-.03.17-.03.17-.03.17-.03h.02l.16-.02.17-.03.04-.01.13-.02.17-.02.06-.01.11-.02.18-.03.07-.01.1-.01.17-.03.09-.01.08-.01.18-.03.1-.01.07-.01.17-.03.13-.01.04-.01.17-.02.15-.02.03-.01.17-.02.16-.02h.01l.17-.03.17-.02h.01l.17-.02.17-.02.02-.01.15-.01.17-.02.05-.01.12-.02.18-.02h.06l.11-.02.17-.02h.08l.09-.02.17-.01.1-.02h.08l.17-.02.11-.01.06-.01.17-.02.14-.01.04-.01.17-.01.15-.02h.02l.17-.02.17-.02.18-.01.17-.02H70l.16-.01.17-.02h.04l.13-.02.18-.01h.05l.12-.02.17-.01.07-.01.1-.01.17-.01.09-.01h.09l.17-.02h.1l.07-.01.17-.01.13-.01.04-.01.18-.01.14-.01h.03l.17-.01.16-.02h.01l.18-.01.17-.01.17-.01.17-.01h.02l.15-.01.18-.01.04-.01.13-.01.17-.01h.06l.11-.01.17-.01h.08l.1-.01.17-.01h.09l.08-.01.17-.01h.11l.06-.01.18-.01h.13l.04-.01.17-.01h.15l.02-.01.17-.01h.18l.17-.01.17-.01h.01l.16-.01.18-.01h.02l.15-.01.17-.01h.05l.12-.01h.17l.07-.01h.11l.17-.01h.08l.09-.01.17-.01h.17l.18-.01.12-.01h.05l.17-.01h.14l.03-.01h.17l.16-.01h.02l.17-.01h.17l.17-.01.17-.01h.18l.17-.01h.04l.13-.01h.17l.06-.01h.12l.17-.01h.17l.17-.01h.17l.18-.01h.17l.17-.01h.17l.17-.01h.18l.17-.01h.17l.17-.01h.35l.17-.01h.34l.05-.01h.47l.17-.01h.52l.17-.01h.69l.15-.01h1.22l.18-.01h6.36l.18-.01h1.84l.05.01h8.09l.17-.01h1.55l.17-.01h1.03l.16-.01h1.45l.11-.01h2.06l.01-.01h2.41l.12.01h2.17l.12.01h1.37l.17.01h1.6l.13.01h2.04l.02.01h3.79l.17-.01h2.23l.18-.01h1.55l.03-.01h1.69l.12-.01h1.45l.15-.01h1.37l.18-.01h1.19l.01-.01h1.21l.17-.01h1.03l.12-.01h.74l.17-.01h.9l.13-.01h1.04l.17-.01h1.03l.16-.01h1.56l.17-.01h2.25l.16.01h1.38l.17.01h.86l.18.01h.51l.17.01h.56l.13.01h.59l.1.01h.52l.11.01h.57l.15.01h.54l.17.01h.52l.17.01h.69l.08.01h.95l.14.01h1.24l.17.01h1.9l.17-.01h1.72l.17-.01h.79l.07-.01h.69l.17-.01h.69l.17-.01h.52l.17-.01h.69l.08-.01h.78l.17-.01h.69l.17-.01h1.21l.17-.01h3.78l.18.01h1.2l.17.01h.86l.04.01h.82l.18.01h.68l.13.01h.73l.18.01h.86l.04.01h.99l.1.01h1.1l.18.01h5.5l.1-.01h1.28l.16-.01h.87l.17-.01h.77l.09-.01h.69l.17-.01h.69l.17-.01h.73l.14-.01h.68l.18-.01h.86l.17-.01h1.03l.17-.01h1.48l.07-.01h3.27l.17.01h1.72l.18.01h1.37l.1.01h1.28l.16.01h1.56l.17.01h1.9l.17.01h2.58l.14.01h2.61l.17.01h2.58l.07.01h3.38l.17.01h5.16l.17.01h8.95l.17.01h3l.1.01h1.55l.17.01h1.08l.13.01h.86l.1.01h.72l.04.01h.69l.17.01h.55l.14.01h.58l.1.01h.63l.06.01h.52l.14.01h.55l.17.01h.52l.17.01h.69l.08.01h.6l.12.01h.74l.18.01h1.03l.17.01h1.89l.18.01h3.61l.17-.01h4.82l.17-.01h4.65l.13-.01h1.81l.12-.01h1.04l.17-.01h1.03l.17-.01h.73l.13-.01h.86l.1-.01h.94l.14-.01h3.99l.17.01h.86l.05.01h.64l.09.01h.42l.17.01h.35l.14.01h.38l.17.01h.34l.17.01h.35l.04.01h.36l.11.01h.35l.17.01h.34l.12.01h.4l.17.01h.35l.17.01h.34l.02.01h.5l.17.01h.42l.1.01h.51l.11.01h.75l.18.01h.88l.15.01h4.13l.07-.01h1.13l.18-.01h1.03l.17-.01h1.47l.08-.01h2.92l.18.01h1.37l.16.01h.88l.17.01h1.03l.09.01h.94l.14.01h1.93l.17.01h2.41l.17-.01h2.58l.17-.01h11.04l.15-.01h1.03l.17-.01h1.04l.15-.01h1.44l.13-.01h1.55l.13.01h1.24l.17.01h.87l.17.01h.81l.05.01h1.2l.17.01h2.59l.17.01h1.37l.18.01h1.03l.12.01h1.09l.17.01h1.72l.17-.01h1.2l.17-.01h3.1l.17.01h.54l.15.01h.35l.17.01h.34l.08.01h.44l.17.01h.35l.12.01h.56l.17.01h.52l.17.01h3.1l.17-.01h.52l.17-.01h.52l.17-.01h.34l.11-.01h.41l.17-.01h.52l.17-.01h1.72l.17.01h.35l.11.01h.23l.14.01h.21l.15.01h.19l.17.01.18.01h.18l.16.01h.17l.03.01h.32l.05.01h.29l.07.01h1.31l.14-.01h.2l.16-.01h.18l.18-.01h.17l.17-.01h.17l.18-.01h.34l.06-.01h1.14l.18-.01h.34l.15-.01h.02l.17-.01h.53l.16.01.17.01h.03l.15.01.17.01h.17l.17-.03.07-.01.11-.04.17-.1.08-.06.09-.08.17-.19.1-.11.07-.07.18-.18.11-.05.06.01.17.12.14.16.03.06.17.56.16.71.02.09.17 1.16.08.68.09.65"/><use xlink:href="#4be13__d" transform="matrix(3.75 0 0 3.75 79.62 130.83)"/><use xlink:href="#4be13__d" transform="matrix(3.75 0 0 3.75 112.25 22.51)"/></g><text stroke-linecap="round" stroke-linejoin="round" color="#000" font-family="KaTeX_Main" font-size="8" transform="translate(241.1 10.11)"><tspan>LBSTRelaxed</tspan></text><g fill="none" stroke="currentColor" stroke-linecap="round" stroke-linejoin="round" color="#000"><path stroke="#FFAB00" stroke-dasharray="4.0,2.0,1.0,2.0" d="M205.6 7.51h29.9M28 150.24l.17-.22.17-.22.02-.02.16-.2.17-.22.03-.04.14-.18.17-.22.06-.07.11-.15.18-.22.07-.09.1-.13.17-.23.09-.11.08-.11.17-.23.11-.14.07-.08.17-.23.12-.17.05-.06.17-.23.15-.19.03-.04.17-.23.16-.21.01-.02.17-.23.17-.23.01-.01.17-.23.17-.23.02-.03.15-.2.17-.24.05-.06.12-.18.18-.23.06-.09.11-.15.17-.23.08-.11.09-.13.17-.24.1-.13.08-.11.17-.24.11-.16.06-.07.17-.24.14-.19.03-.05.18-.24.15-.21.02-.03.17-.24.17-.23.18-.24.17-.24.01-.02.16-.21.17-.24.03-.04.14-.19.18-.23.05-.07.12-.16.17-.23.07-.09.1-.14.17-.23.09-.11.09-.11.17-.22.1-.14.07-.08.17-.22.12-.15.05-.07.18-.21.14-.17.03-.04.17-.21.16-.19.01-.01.17-.21.18-.2.17-.19.17-.2.02-.02.15-.17.18-.18.03-.05.14-.14.17-.18.06-.06.11-.11.17-.18.08-.07.1-.1.17-.16.09-.09.08-.08.17-.16.11-.1.06-.05.18-.15.13-.11.04-.04.17-.14.15-.12.02-.02.17-.14.17-.12.01-.01.17-.13.17-.12.01-.01.16-.11.17-.11.03-.02.15-.09.17-.11.05-.03.12-.07.17-.1.07-.04.11-.05.17-.09.08-.04.09-.05.17-.08.1-.05.07-.03.18-.07.11-.05.06-.02.17-.07.14-.05.03-.01.17-.06.16-.05.02-.01.17-.05.17-.05.17-.04.17-.05h.02l.16-.04.17-.04.03-.01.14-.02.17-.04.06-.01.11-.02.18-.03.07-.01.1-.02.17-.03.09-.01.08-.01.18-.03.1-.01.07-.01.17-.03.13-.01.04-.01.17-.02.15-.02h.03l.17-.02.16-.02h.01l.17-.02.17-.02H49l.17-.02.17-.02.02-.01.15-.01.17-.02.05-.01.12-.02.18-.02h.06l.11-.02.17-.02.08-.01.09-.01.17-.03.1-.01.08-.01.17-.02.11-.02.06-.01.17-.02.14-.02.04-.01.17-.02.15-.03h.02l.17-.03.17-.02.18-.03.17-.03h.01l.16-.03.17-.03h.03l.14-.03.18-.03.05-.01.12-.02.17-.03.07-.01.1-.02.17-.03.09-.02.09-.01.17-.04.1-.02.07-.01.17-.03.13-.02.04-.01.18-.04.14-.02.03-.01.17-.03.16-.03.01-.01.18-.03.17-.03.17-.04.17-.03.02-.01.15-.03.18-.03.04-.01.13-.03.17-.03.06-.01.11-.03.17-.03.08-.02.1-.01.17-.04.09-.02.08-.02.17-.03.11-.02.06-.02.18-.03.13-.03.04-.01.17-.03.15-.03.02-.01.17-.03.17-.03.01-.01.17-.03.17-.04h.01l.16-.03.17-.04h.03l.15-.03.17-.03.05-.01.12-.03.17-.03.07-.02.11-.02.17-.03.08-.02.09-.02.17-.03.1-.02.07-.01.18-.04.11-.02.06-.01.17-.03.14-.03h.03l.17-.04.16-.02.02-.01.17-.03.17-.03.17-.03.17-.03h.02l.16-.03.17-.03.04-.01.13-.02.17-.03.06-.01.11-.02.18-.03.07-.01.1-.02.17-.02.09-.02.08-.01.18-.03.1-.01.07-.01.17-.03.13-.02.04-.01.17-.02.15-.02.03-.01.17-.02.16-.02.01-.01.17-.02.17-.02h.01l.17-.03.17-.02h.02l.15-.02.17-.02.05-.01.12-.01.18-.03h.06l.11-.02.17-.02.08-.01.09-.01.17-.02.1-.01.08-.01.17-.01.11-.02h.06l.17-.02.14-.02h.04l.17-.02.15-.01h.02l.17-.02.17-.02.18-.01.17-.02H70l.16-.01.17-.02h.04l.13-.01.18-.01.05-.01.12-.01.17-.01.07-.01h.1l.17-.02h.09l.09-.01.17-.01.1-.01h.07l.17-.01.13-.01h.04l.18-.01.14-.01h.03l.17-.01.16-.01h.01l.18-.01h.17l.17-.01.17-.01h.02l.15-.01h.18l.04-.01h.13l.17-.01h.17l.17-.01h.18l.17-.01h.09l.08-.01h.28l.06-.01h.31l.04-.01h.34l.17-.01h.18l.17-.01h.34l.18-.01h.34l.05-.01h.47l.17-.01h.34l.1-.01h.42l.17-.01h.34l.16-.01h.53l.17-.01h.39l.13-.01h.52l.07-.01h.44l.18-.01h.51l.17-.01h.35l.16-.01h.53l.17-.01h.39l.12-.01h.69l.18-.01h.51l.17-.01h.52l.17-.01h.53l.16-.01h.93l.1-.01h1.04l.17-.01H91l.15-.01h1.38l.17-.01h1.38l.17-.01h1.03l.07-.01h1.09l.05-.01h.86l.17-.01h.86l.17-.01h1.04l.1-.01h4.03l.17.01h.69l.17.01h.51l.18.01h.51l.17.01h.35l.1.01h.37l.05.01h.34l.17.01h.35l.17.01h.17l.17.01h.39l.13.01h.23l.11.01h.35l.17.01h.17l.17.01h.35l.13.01h.21l.15.01h.2l.16.01h.36l.16.01h.35l.17.01h.17l.17.01h.35l.08.01h.36l.07.01h.35l.17.01h.34l.16.01h.36l.17.01h.19l.16.01h.51l.06.01h.46l.17.01h.35l.11.01h.57l.15.01h.54l.17.01h.52l.17.01h.52l.17.01h.81l.05.01h.86l.17.01h1.09l.12.01h1.03l.17.01h.86l.18.01h.9l.13.01h.95l.08.01h1.01l.02.01h.7l.16.01h.93l.11.01h.68l.18.01h.86l.17.01h1.03l.17.01h1.55l.17.01h4.31l.17.01h3.27l.17.01h1.72l.17.01h1.56l.16.01h1.72l.18.01h1.93l.13.01h1.72l.17.01h1.6l.13.01h1.03l.17.01h1.2l.18.01h.86l.05.01h1.09l.06.01h.86l.16.01h1.09l.13.01h1.2l.12.01h1.45l.15.01h1.9l.12.01h8.83l.17.01h2.75l.17.01h2.24l.17.01h2.24l.08.01h1.81l.17.01h1.38l.17.01h1.21l.17.01h.69l.17.01h.75l.11.01h.69l.17.01h.52l.17.01h.34l.17.01h.52l.17.01h.52l.17.01h.35l.09.01h.42l.17.01h.35l.14.01h.55l.17.01h.37l.14.01h.35l.17.01h.52l.17.01h.52l.17.01h.69l.16.01h.73l.14.01h1.38l.17.01h2.41l.17-.01h1.38l.14-.01h.89l.17-.01h.86l.17-.01h.52l.17-.01h.69l.15-.01h.88l.17-.01h.86l.18-.01h1.03l.14-.01h1.81l.11-.01h3.79l.09.01h2.89l.12.01h2.42l.16.01h4.64l.18.01h2.75l.17-.01h5.34l.15-.01h3.12l.14-.01H242l.07-.01h2.58l.17-.01h6.59l.12.01h1.72l.18.01h1.6l.12.01h1.37l.18.01h1.37l.17.01h1.5l.05.01h1.4l.15.01H263l.06.01h1.9l.17.01h3.66l.12-.01h1.21l.12-.01h.91l.17-.01h.73l.13-.01h.69l.17-.01h.52l.17-.01h.69l.17-.01h.52l.17-.01h.75l.11-.01h1.03l.18-.01h1.72l.17-.01h2.06l.17.01h2.76l.13.01h2.62l.17.01h1.72l.18.01h1.03l.08.01h.78l.17.01h.69l.17.01h.52l.17.01h.39l.13.01h.51l.09.01h.43l.17.01h.35l.13.01h.38l.17.01h.18l.17.01h.34l.17.01h.4l.12.01h.34l.18.01h.34l.11.01h.41l.17.01h.34l.17.01h.52l.17.01h.76l.1.01h1.21l.13.01h1.93l.18-.01h1.54l.18-.01h1.03l.17-.01h1.03l.1-.01h1.11l.17-.01h1.03l.17-.01h1.38l.12-.01h4.53l.17.01h1.2l.18.01h1.03l.13.01h1.09l.16.01h1.2l.09.01h2.17l.15.01h.69l.17-.01h3.1l.17-.01h3.44l.17.01h3.96l.1-.01h.59l.13-.01h.39l.17-.01h.34l.17-.01h.35l.03-.01h.31l.06-.01h.29l.07-.01h.27l.09-.01h.25l.11-.01h.07l.17-.01h.17l.17-.01h.18l.17-.01h.17l.17-.01h.18l.17-.01h.17l.02-.01h.15l.17-.01h.17l.18-.01h.17l.17-.01h.34l.1-.01h.25l.11-.01h.4l.18-.01h.51l.17-.01h1.9l.1.01h.41l.18.01h.34l.16.01h.01l.17.01h.18l.17.01h.19l.15.01.17.01h.18l.17.01h.06l.11.01.17.01h.18l.17.01.09.01h.08l.17.01h.17l.18.01.12.01h.05l.17.01.15.01h.19l.17.01h.01l.17.01.17.01h.17l.17.01h.18l.17.01h.04l.13.01h.34l.18.01h.17l.17.01h.52l.17.01h2.58l.09.01h.6l.12.01h.4l.17.01h.34l.17.01h.18l.17.01h1.72l.11-.01h.23l.14-.01h.21l.15-.01h.02l.17-.01h.17l.18-.01.17-.01h.34l.03-.01h1l.09.01h.09l.17.01h.17l.17.01.12.01h.05l.18.02.14.01h.03l.17.01.16.02h.01l.17.01.18.02.17.01.17.01h.02l.15.01.18.02h.17l.17.01.06.01h.28l.08.01h.44l.17.01h.35l.12-.01h.37l.02-.01h.17l.17-.01h.01l.17-.01.17-.01h.01l.16-.01.17-.01h.03l.15-.01h1.37l.18.02.11.03.06.02.17.17.14.21.03.08.17.59.16.72.02.09.17 1.07.08.61.09.59"/><use xlink:href="#4be13__e" color="#FFAB00" transform="matrix(3.75 0 0 3.75 136.99 127.19)"/><use xlink:href="#4be13__e" color="#FFAB00" transform="matrix(3.75 0 0 3.75 220.55 7.51)"/></g><text stroke-linecap="round" stroke-linejoin="round" color="#000" font-family="KaTeX_Main" font-size="8" transform="translate(241.1 25.11)"><tspan>TreapTopDown</tspan></text><g fill="none" stroke="currentColor" stroke-linecap="round" stroke-linejoin="round" color="#000"><path stroke="#00C853" stroke-dasharray="4.5,2.0,0.5,2.0,0.5,2.0" d="M205.6 22.51h29.9M28 135.87l.17-.27.17-.27.02-.03.16-.24.17-.27.03-.05.14-.22.17-.26.06-.09.11-.18.18-.26.07-.11.1-.16.17-.26.09-.14.08-.13.17-.26.11-.17.07-.09.17-.27.12-.19.05-.07.17-.26.15-.21.03-.04.17-.26.16-.24.01-.02.17-.25.17-.26.01-.01.17-.24.17-.26.02-.03.15-.22.17-.25.05-.06.12-.19.18-.24.06-.09.11-.16.17-.25.08-.11.09-.13.17-.24.1-.14.08-.11.17-.24.11-.16.06-.08.17-.24.14-.19.03-.05.18-.24.15-.21.02-.03.17-.24.17-.23.18-.24.17-.24.01-.02.16-.21.17-.24.03-.04.14-.19.18-.24.05-.06.12-.17.17-.23.07-.09.1-.14.17-.24.09-.11.09-.12.17-.23.1-.14.07-.09.17-.23.12-.16.05-.06.18-.23.14-.19.03-.04.17-.23.16-.2.01-.02.17-.22.18-.23.17-.22.17-.22.02-.03.15-.19.18-.22.03-.05.14-.17.17-.22.06-.07.11-.14.17-.22.08-.09.1-.12.17-.21.09-.12.08-.1.17-.21.11-.13.06-.08.18-.21.13-.15.04-.05.17-.21.15-.17.02-.03.17-.21.17-.19.01-.01.17-.21.17-.2.01-.01.16-.19.17-.19.03-.04.15-.16.17-.2.05-.05.12-.14.17-.2.07-.07.11-.12.17-.19.08-.09.09-.1.17-.19.1-.11.07-.07.18-.19.11-.13.06-.05.17-.18.14-.15.03-.03.17-.18.16-.16.02-.02.17-.17.17-.18.17-.17.17-.17.02-.01.16-.15.17-.17.03-.03.14-.13.17-.16.06-.05.11-.11.18-.15.07-.07.1-.08.17-.16.09-.07.08-.07.18-.15.1-.09.07-.05.17-.14.13-.11.04-.03.17-.14.15-.11.03-.02.17-.14.16-.12.01-.01.17-.12.17-.13H49l.17-.12.17-.12.02-.02.15-.1.17-.11.05-.03.12-.09.18-.11.06-.04.11-.07.17-.1.08-.05.09-.06.17-.1.1-.06.08-.04.17-.1.11-.07.06-.03.17-.1.14-.07.04-.02.17-.09.15-.08.02-.01.17-.09.17-.09.18-.08.17-.09.01-.01.16-.07.17-.08.03-.02.14-.06.18-.08.05-.02.12-.06.17-.08.07-.03.1-.04.17-.07.09-.04.09-.04.17-.07.1-.04.07-.03.17-.07.13-.05.04-.02.18-.06.14-.06.03-.01.17-.06.16-.06.01-.01.18-.06.17-.06v-.01l.17-.06.17-.06h.02l.15-.06.18-.05.04-.02.13-.04.17-.06.06-.02.11-.03.17-.06.08-.02.1-.03.17-.06.09-.03.08-.02.17-.05.11-.03.06-.02.18-.05.13-.04.04-.01.17-.05.15-.04h.02l.17-.05.17-.04h.01l.17-.05.17-.04h.01l.16-.04.17-.05h.03l.15-.04.17-.04.05-.01.12-.02.17-.04.07-.02.11-.02.17-.04.08-.02.09-.01.17-.04.1-.02.07-.01.18-.04.11-.02.06-.01.17-.03.14-.03.03-.01.17-.03.16-.03h.02l.17-.03.17-.03.17-.03.17-.03h.02l.16-.03.17-.02.04-.01.13-.02.17-.03.06-.01.11-.02.18-.02.07-.01.1-.02.17-.03.09-.01.08-.01.18-.03.1-.01.07-.01.17-.03.13-.02h.04l.17-.03.15-.02h.03l.17-.03.16-.02h.01l.17-.02.17-.03h.01l.17-.02.17-.03h.02l.15-.02.17-.02.05-.01.12-.01.18-.03.06-.01.11-.01.17-.02.08-.01.09-.02.17-.02.1-.01.08-.01.17-.02.11-.02h.06l.17-.03.14-.01.04-.01.17-.02.15-.02h.02l.17-.03.17-.02.18-.02.17-.02H70l.16-.02.17-.02.04-.01.13-.02.18-.02.05-.01.12-.01.17-.02.07-.01.1-.01.17-.03.09-.01.09-.01.17-.02.1-.01.07-.01.17-.03.13-.01.04-.01.18-.02.14-.02h.03l.17-.03.16-.02h.01l.18-.02.17-.03.17-.02.17-.02.02-.01.15-.02.18-.02h.04l.13-.02.17-.03h.06l.11-.02.17-.03.08-.01.1-.01.17-.02.09-.02.08-.01.17-.02.11-.02.06-.01.18-.02.13-.02.04-.01.17-.02.15-.02.02-.01.17-.02.17-.03h.01l.17-.02.17-.03h.01l.16-.02.18-.03h.02l.15-.02.17-.03h.05l.12-.02.17-.03.07-.01.11-.01.17-.03.08-.01.09-.01.17-.03.1-.01.07-.01.18-.02.12-.02.05-.01.17-.02.14-.02h.03l.17-.03.16-.02h.02l.17-.02.17-.02.17-.02.17-.03h.02l.16-.02.17-.02h.04l.13-.02.17-.02h.06l.12-.02.17-.02h.07l.1-.01.17-.02.09-.01.08-.01.18-.02.1-.01.07-.01.17-.01.13-.01.04-.01.17-.01.15-.02h.03l.17-.02.16-.01h.01l.17-.01.17-.02h.01l.17-.01.17-.02h.02l.15-.01.17-.01h.05l.12-.01.18-.02h.06l.11-.01.17-.01h.08l.09-.01.18-.01h.09l.08-.01.17-.01.12-.01h.05l.17-.01h.14l.04-.01h.17l.15-.01h.02l.17-.01.17-.01.18-.01h.18l.16-.01.17-.01h.17l.18-.01h.17l.17-.01h.17l.17-.01h.18l.17-.01h.17l.17-.01h.52l.17-.01h.52l.17-.01h1.72l.17.01h.86l.17.01h.35l.17.01h.38l.14.01h.22l.12.01h.24l.11.01h.25l.09.01h.27l.07.01h.18l.12.01h.22l.14.01h.03l.17.01h.16l.02.01h.17l.17.01.17.01h.17l.02.01h.16l.17.01h.04l.13.01.17.01h.06l.12.01.17.01h.17l.17.01.09.01h.08l.18.01.1.01h.07l.17.01.13.01.04.01.17.01.15.01h.03l.17.01.16.01h.01l.17.01.17.01.01.01.17.01.17.01h.03l.14.01.17.01.05.01.12.01.18.01.06.01h.11l.17.02h.08l.09.01.18.02h.09l.08.01.17.01.12.01.05.01.17.01.14.01h.04l.17.02.15.01h.02l.17.02.17.01.18.02.17.01h.01l.16.02.17.01h.04l.13.01.18.02h.05l.12.01.17.02h.07l.1.01.17.01.09.01.09.01.17.01.1.01.07.01.17.01.13.01h.05l.17.01.14.02h.03l.17.01.16.01h.01l.18.02.17.01.17.01.17.01.03.01.14.01.18.01h.04l.13.01.17.01h.06l.11.01.17.01.08.01h.1l.17.02h.09l.08.01.17.01h.12l.05.01.18.01.13.01h.04l.17.01.15.01h.02l.18.01.16.01h.01l.17.01.17.01h.17l.18.01.03.01h.14l.17.01h.05l.12.01.17.01h.07l.11.01.17.01h.17l.17.01.1.01h.07l.18.01h.12l.05.01h.17l.14.01h.03l.17.01.16.01h.19l.17.01.17.01h.18l.01.01h.16l.17.01h.17l.17.01h.06l.12.01h.17l.07.01h.1l.17.01h.17l.18.01h.17l.17.01h.13l.04.01h.17l.15.01h.2l.16.01h.18l.17.01h.18l.17.01h.17l.17.01h.18l.17.01h.17l.17.01h.17l.18.01h.17l.17.01h.34l.14.01h.38l.17.01h.17l.18.01h.34l.17.01h.17l.18.01h.41l.1.01h.52l.11.01h.41l.17.01h.51l.18.01h.68l.18.01h1.12l.08.01h2.07l.03-.01h1.08l.09-.01h.69l.17-.01h.52l.17-.01h.52l.02-.01h.49l.17-.01h.42l.1-.01h.34l.18-.01h.51l.17-.01h.87l.17-.01h2.06l.17.01h.69l.17.01h.18l.17.01h.38l.13.01h.23l.12.01h.17l.07.01h.1l.18.01h.17l.17.01h.17l.17.01.13.01h.05l.17.01h.17l.17.01.16.01h.01l.18.01.17.01.17.01h.17l.03.01h.14l.18.01h.04l.13.01.17.01h.06l.11.01.17.01h.08l.1.01.17.01h.09l.08.01.17.01h.12l.06.01.17.01h.13l.04.01.17.01.15.01h.02l.18.01.16.01h.18l.17.01.01.01h.16l.18.01.03.01h.14l.17.01.05.01h.12l.17.01.07.01h.11l.17.01.08.01h.09l.17.01h.11l.06.01.18.01h.17l.17.01.14.01h.03l.18.01.15.01h.02l.17.01h.17l.17.01.18.01h.17l.17.01h.04l.13.01.17.01h.18l.17.01h.07l.1.01h.26l.08.01h.18l.11.01h.23l.13.01h.21l.15.01h.2l.16.01h.18l.17.01h.38l.14.01h.52l.06.01h.8l.17.01h1.89l.04-.01h.82l.18-.01h.51l.17-.01h.52l.17-.01h.35l.17-.01h.37l.14-.01h.22l.13-.01h.34l.17-.01h.35l.1-.01h.42l.17-.01h.34l.15-.01h.73l.15-.01h1.21l.08-.01h.43l.18.01h.86l.17.01h.54l.15.01h.21l.13.01h.23l.12.01h.24l.1.01h.17l.09.01h.08l.18.01h.17l.17.01.13.01h.04l.17.01h.18l.17.01.16.01h.01l.17.01.18.01h.01l.16.01.17.01h.03l.14.01.17.01h.05l.13.01.17.01h.06l.11.01.17.01.08.01h.09l.18.01.1.01h.07l.17.02h.12l.05.01.17.01.14.01h.04l.17.01.15.01.02.01.17.01.17.01.18.01.17.01h.02l.15.02.17.01h.04l.14.01.17.01.05.01h.12l.17.02h.07l.1.01.18.01.08.01h.09l.17.01.11.01h.06l.17.01.13.01.05.01.17.01h.14l.03.01.17.01.16.01h.01l.18.01.17.01h.17l.17.01h.03l.14.01.18.01h.04l.13.01.17.01h.17l.18.01h.07l.1.01h.27l.07.01h.29l.06.01h.34l.17.01h.52l.17.01h1.03l.17-.01h.52l.17-.01h.18l.17-.01h.17l.17-.01h.17l.18-.01.15-.01h.19l.17-.01.17-.01.18-.01h.02l.15-.01h.17l.04-.01h.13l.17-.01.06-.01h.12l.17-.01.07-.01.1-.01.17-.01h.1l.07-.01.18-.01.11-.01h.06l.17-.01.13-.01.04-.01.17-.01.15-.01h.03l.17-.01.16-.02h.01l.17-.01.18-.01h.01l.16-.02.17-.01h.03l.14-.01.17-.02h.05l.13-.01.17-.02h.06l.11-.01.17-.02h.08l.09-.01.18-.02h.1l.07-.01.17-.01.12-.01.05-.01.17-.01.14-.01.04-.01.17-.01.15-.02h.02l.17-.01.17-.02.18-.01.17-.01.02-.01.15-.01.17-.01.04-.01.14-.01.17-.01.05-.01.12-.01.17-.01.07-.01h.1l.18-.02.09-.01h.08l.17-.01.11-.01.06-.01.17-.01.13-.01h.05l.17-.02.14-.01h.03l.17-.01.16-.01.01-.01.18-.01.17-.01h.01l.16-.01.17-.01h.03l.14-.01.18-.02h.04l.13-.01.17-.01h.06l.11-.01.18-.01.07-.01h.1l.17-.01.1-.01h.07l.17-.01.12-.01h.06l.17-.01.13-.01h.04l.17-.01.15-.01h.02l.18-.01.16-.01h.01l.17-.01.17-.01h.17l.18-.01h.03l.14-.01.17-.01h.05l.12-.01h.17l.07-.01h.11l.17-.01h.09l.08-.01h.17l.11-.01h.07l.17-.01h.17l.17-.01.14-.01h.21l.15-.01h.02l.17-.01h.18l.16-.01h.2l.15-.01h.17l.04-.01h.13l.17-.01h.18l.17-.01h.17l.17-.01h.17l.18-.01h.17l.17-.01h.35l.14-.01h.2l.16-.01h.18l.18-.01h.34l.03-.01h.36l.13-.01h.34l.17-.01h.35l.1-.01h.36l.05-.01h.35l.17-.01h.34l.18-.01h.36l.15-.01h.35l.17-.01h.34l.07-.01h.37l.08-.01h.34l.17-.01h.18l.17-.01h.17l.17-.01h.17l.18-.01h.18l.16-.01h.2l.15-.01.17-.01h.17l.17-.01h.17l.18-.01h.07l.1-.01.17-.01h.17l.17-.01.12-.01h.06l.17-.01h.13l.04-.01h.17l.15-.01h.02l.18-.01.17-.01.17-.01.17-.01h.02l.15-.01.18-.01h.03l.14-.01.17-.01h.05l.12-.01.17-.01.07-.01h.11l.17-.01.09-.01h.08l.17-.02h.11l.07-.01.17-.01.12-.01h.05l.17-.01.14-.01.03-.01.18-.01.15-.01h.02l.17-.01.17-.02h.01l.16-.01.18-.01h.02l.15-.01.17-.02h.04l.13-.01.17-.01.06-.01.12-.01.17-.01h.07l.1-.01.17-.01.1-.01.07-.01.18-.01.11-.01h.06l.17-.01.13-.01h.04l.18-.02.14-.01h.03l.17-.01.16-.01h.01l.17-.01.18-.01h.01l.16-.01.17-.01.03-.01h.14l.17-.02h.18l.17-.01.06-.01h.11l.17-.01.09-.01h.08l.18-.01.1-.01h.07l.17-.01h.12l.05-.01h.17l.14-.01h.04l.17-.01h.17l.17-.01.18-.01h.17l.17-.01h.17l.17-.01h.18l.17-.01h.17l.17-.01h.52l.17-.01h.69l.14-.01h1.09l.15.01h.68l.18.01h.44l.07.01h.35l.17.01h.17l.17.01h.17l.18.01.17.01h.17l.17.01h.02l.15.01h.21l.14.01.17.01h.05l.12.01h.18l.06.01h.11l.17.01.09.01h.08l.17.01.11.01h.07l.17.01.12.01h.05l.17.01.14.01h.03l.18.01.15.01h.02l.17.02.17.01h.01l.16.01.18.01h.02l.15.01.17.02h.04l.13.01.17.01.06.01.12.01.17.01h.07l.1.01.17.02h.1l.08.01.17.01.11.01.06.01.17.01.13.01.04.01.18.01.14.01h.03l.17.02.17.01.17.02.18.01h.01l.16.02.17.01h.03l.14.02.17.01.05.01.13.01.17.01.06.01.11.01.17.01.09.01.08.01.18.01.1.01.07.01.17.01.12.01h.05l.18.02.13.01h.04l.17.02.15.01h.02l.17.02.18.01.17.01.17.02h.02l.15.01.17.01.04.01.14.01.17.01.05.01h.12l.17.02h.07l.1.01.18.01.09.01.08.01.17.01.11.01h.06l.17.01.13.01h.05l.17.02.14.01h.03l.17.01.17.01h.01l.17.01.17.01h.01l.16.01.17.01h.03l.15.01.17.01h.04l.13.01.17.01h.06l.11.01.18.01h.08l.09.01h.17l.1.01h.07l.17.01h.12l.06.01h.17l.13.01h.04l.17.01h.17l.18.01h.17l.17.01h.19l.15.01h.35l.17.01h.52l.17.01h1.2l.18-.01h.68l.18-.01h.17l.17-.01h.34l.06-.01h.29l.08-.01h.09l.17-.01h.18l.17-.01h.17l.17-.01.13-.01h.22l.14-.01h.03l.17-.01h.17l.17-.01.18-.01h.01l.16-.01h.17l.03-.01h.14l.17-.01h.05l.13-.01h.17l.06-.01h.11l.17-.01h.09l.08-.01h.18l.1-.01h.07l.17-.01h.17l.18-.01.13-.01h.21l.15-.01h.02l.17-.01h.18l.17-.01h.19l.15-.01.17-.01h.18l.17-.01h.17l.17-.01h.35l.09-.01h.25l.11-.01h.36l.05-.01h.34l.17-.01h.35l.17-.01h.37l.15-.01h.51l.06-.01h.46l.17-.01h.46l.06-.01h.34l.17-.01h.52l.17-.01h.35l.17-.01h.39l.12-.01h.35l.17-.01h.45l.07-.01h.34l.17-.01h.52l.17-.01h.34l.18-.01h.51l.18-.01h.86l.17-.01h3.01l.09.01h.68l.18.01h.5l.01.01h.52l.17.01h.17l.17.01h.4l.12.01h.34l.18.01h.17l.17.01h.34l.13.01h.39l.17.01h.18l.17.01h.34l.17.01h.39l.13.01h.6l.09.01h2.58l.17-.01h.52l.17-.01h.17l.17-.01h.18l.17-.01h.17l.17-.01h.17l.18-.01h.16l.01-.01h.17l.17-.01h.01l.16-.01h.2l.15-.01.17-.01h.04l.13-.01.18-.01h.17l.17-.01.08-.01h.09l.17-.01.1-.01h.08l.17-.01.11-.01h.06l.17-.01.13-.01h.04l.18-.01.14-.01h.03l.17-.01.17-.01.17-.01.18-.01h.01l.16-.01.17-.02h.03l.14-.01.17-.01h.05l.13-.01.17-.01h.07l.1-.01.17-.01h.09l.09-.01.17-.01.1-.01h.07l.17-.01.12-.01h.05l.18-.01.13-.01h.04l.17-.01.16-.01h.01l.17-.01.18-.01.17-.01.17-.01h.17l.17-.01h.04l.14-.01.17-.01h.17l.17-.01h.08l.09-.01h.18l.09-.01h.25l.11-.01h.41l.17-.01h.34l.17-.01h1.55l.18.01h.44l.07.01h.35l.17.01h.17l.17.01h.18l.17.01.17.01.17.01h.19l.16.01.17.01h.03l.14.01.17.01h.05l.12.01.18.01h.07l.1.01.17.01h.09l.08.01.17.01h.11l.07.01.17.01.12.01h.05l.17.01.14.01h.03l.18.02.16.01h.01l.17.01.17.02h.01l.17.01.17.01h.02l.15.01.17.02h.04l.13.01.18.02h.06l.11.01.17.01.08.01.09.01.17.01.1.01.08.01.17.01.11.01.06.01.17.01.13.01h.04l.18.02.15.01.02.01.17.01.17.01.17.02.18.01.01.01.16.01.17.01.03.01.14.01.17.01.05.01.13.01.17.01.07.01.1.01.17.01.09.01.09.01.17.02h.1l.07.01.17.01.12.01.05.01.18.01.13.02h.04l.17.01.16.02h.01l.17.01.18.02.17.01.17.01h.02l.15.02.17.01h.04l.14.01.17.02h.05l.12.01.17.01.08.01.09.01.18.01.09.01h.08l.17.01.11.01.06.01.18.01.12.01h.05l.17.01.15.01h.02l.17.02.17.01h.01l.17.01.17.01h.01l.16.01.17.01h.03l.15.01.17.01h.04l.13.01.17.01.07.01h.1l.18.01.08.01h.09l.17.01.1.01h.07l.17.01.12.01h.06l.17.01h.13l.04.01h.17l.16.01h.02l.17.01.17.01.17.01h.19l.16.01.17.01h.03l.14.01h.22l.12.01h.18l.07.01h.1l.17.01h.17l.17.01h.47l.05.01h.69l.17.01h.18l.17-.01h.68l.18-.01h.17l.17-.01h.17l.17-.01h.1l.08-.01h.17l.11-.01h.06l.17-.01.13-.01h.04l.18-.01.15-.01h.02l.17-.01.17-.02.17-.01.18-.01h.01l.16-.02.17-.01h.03l.14-.02.18-.01.04-.01.13-.01.17-.01.07-.01.1-.01.17-.02.09-.01.09-.01.17-.02.1-.01.07-.01.17-.01.12-.02h.05l.18-.02.13-.02h.04l.17-.02.16-.02.01-.01.17-.02.18-.02.17-.02.17-.02h.02l.15-.02.17-.03h.04l.14-.02.17-.02.06-.01.11-.01.17-.03.08-.01.1-.01.17-.02.09-.02.08-.01.17-.02.11-.02h.06l.18-.03.12-.02h.05l.17-.02.15-.02.02-.01.17-.02.17-.02.01-.01.17-.02.17-.02h.01l.16-.02.17-.03h.03l.15-.02.17-.02h.04l.13-.02.17-.02.07-.01.1-.01.18-.02h.08l.09-.01.17-.02.1-.01.07-.01.18-.01.11-.01.06-.01.17-.01.13-.01h.04l.17-.01.16-.01h.02l.17-.01.17-.01.17-.01h.19l.16-.01h1.37l.17.01h.18l.17.01h.17l.17.01h.18l.17.01.16.01h.01l.17.01h.18l.17.01.17.01h.02l.15.01h.17l.04.01h.13l.18.01h.06l.11.01.17.01h.17l.17.01.1.01h.08l.17.01h.11l.06.01h.17l.13.01h.04l.18.01.15.01h.02l.17.01h.17l.17.01.18.01h.01l.16.01.17.01h.17l.18.01.04.01h.13l.17.01.07.01h.1l.17.01.09.01h.09l.17.01.1.01.07.01.17.01.12.01h.05l.18.01.14.02h.03l.17.01.16.02h.01l.17.02.18.01.17.02.17.02h.02l.15.02.17.02h.04l.14.02.17.02h.06l.11.02.17.02.08.01.1.01.17.02.09.01.08.01.17.02.11.02.06.01.18.02.12.01.05.01.17.02.15.02h.02l.17.02.17.02h.01l.17.01.17.02h.01l.16.02.17.01h.03l.15.01.17.02h.04l.13.01.17.01h.07l.1.01h.18l.08.01h.26l.1.01h.76l.17-.01h.18l.17-.01h.17l.17-.01.17-.01h.02l.16-.01.17-.01h.03l.14-.01.17-.01h.06l.11-.01.18-.01.07-.01.1-.01.17-.01.09-.01h.08l.17-.01.11-.01.07-.01.17-.01.12-.01.05-.01.17-.01.15-.01h.03l.17-.01.16-.02h.01l.17-.01.17-.01h.01l.17-.01.17-.01.02-.01.15-.01h.17l.04-.01h.13l.18-.01h.06l.11-.01.17-.01h.17l.17-.01h.18l.17-.01h.48l.03-.01h.52l.17.01h.52l.17.01h.17l.18.01h.05l.12.01h.17l.07.01h.1l.17.01h.18l.17.01.1.01h.07l.17.01.12.01h.05l.18.01.14.01h.03l.17.02.16.01h.01l.17.02.18.01.17.02.17.02h.02l.15.02.18.02.03.01.14.02.17.01.06.01.11.01.17.02h.52l.17-.02.11-.01.06-.01.18-.03.12-.03.05-.02.17-.04.15-.05.02-.01.17-.05.17-.06h.01l.17-.05.17-.05h.01l.16-.04.17-.03h.03l.15-.01.17-.01h.17l.17.01h.43l.09-.01.17-.04.1-.03.07-.03.18-.11.11-.09.06-.05.17-.17.14-.16.03-.04.17-.25.16-.2.02-.02.17-.16.08-.08.09-.08"/><use xlink:href="#4be13__f" color="#00C853" transform="matrix(3.75 0 0 3.75 194.4 103.25)"/><use xlink:href="#4be13__f" color="#00C853" transform="matrix(3.75 0 0 3.75 220.55 22.51)"/></g><path fill="none" d="M28 45.01V162.5M371.99 45.01H28" color="#000"/></svg>