<svg xmlns="http://www.w3.org/2000/svg" xmlns:xlink="http://www.w3.org/1999/xlink" viewBox="0 0 400 200"><path fill="none" d="M0 0h400v200H0z"/><defs><path id="42fca__b" stroke="currentColor" stroke-width=".267" d="M-1-1h2v2h-2z"/><path id="42fca__a" stroke="currentColor" stroke-width=".267" d="m0-1.33-1.33 2h2.66z"/><path id="42fca__f" stroke="currentColor" stroke-width=".267" d="M0 1.33 1.265.411.782-1.067l-1.564-.009-.483 1.487z"/><use xlink:href="#42fca__a" id="42fca__d" fill="currentColor" stroke="none"/><use xlink:href="#42fca__b" id="42fca__c" stroke="currentColor" transform="rotate(45)"/><use xlink:href="#42fca__c" id="42fca__e" fill="currentColor" stroke="none"/></defs><path fill="none" stroke="#CCC" stroke-linecap="round" stroke-linejoin="round" stroke-width=".1" d="M46.1 162.5V45.01" class="42fca__gridline" color="#000"/><g fill="none" stroke-linecap="round" stroke-linejoin="round" stroke-width="0" color="#000"><path d="M46.1 162.5V155m0-109.99v7.5"/><text fill="#000" font-family="KaTeX_Main" font-size="8" text-anchor="middle" transform="translate(46.1 172.6)"><tspan> 1</tspan></text></g><path fill="none" stroke="#CCC" stroke-linecap="round" stroke-linejoin="round" stroke-width=".1" d="M82.31 162.5V45.01" class="42fca__gridline" color="#000"/><g fill="none" stroke-linecap="round" stroke-linejoin="round" stroke-width="0" color="#000"><path d="M82.31 162.5V155m0-109.99v7.5"/><text fill="#000" font-family="KaTeX_Main" font-size="8" text-anchor="middle" transform="translate(82.31 172.6)"><tspan> 2</tspan></text></g><path fill="none" stroke="#CCC" stroke-linecap="round" stroke-linejoin="round" stroke-width=".1" d="M118.52 162.5V45.01" class="42fca__gridline" color="#000"/><g fill="none" stroke-linecap="round" stroke-linejoin="round" stroke-width="0" color="#000"><path d="M118.52 162.5V155m0-109.99v7.5"/><text fill="#000" font-family="KaTeX_Main" font-size="8" text-anchor="middle" transform="translate(118.52 172.6)"><tspan> 3</tspan></text></g><path fill="none" stroke="#CCC" stroke-linecap="round" stroke-linejoin="round" stroke-width=".1" d="M154.73 162.5V45.01" class="42fca__gridline" color="#000"/><g fill="none" stroke-linecap="round" stroke-linejoin="round" stroke-width="0" color="#000"><path d="M154.73 162.5V155m0-109.99v7.5"/><text fill="#000" font-family="KaTeX_Main" font-size="8" text-anchor="middle" transform="translate(154.73 172.6)"><tspan> 4</tspan></text></g><path fill="none" stroke="#CCC" stroke-linecap="round" stroke-linejoin="round" stroke-width=".1" d="M190.94 162.5V45.01" class="42fca__gridline" color="#000"/><g fill="none" stroke-linecap="round" stroke-linejoin="round" stroke-width="0" color="#000"><path d="M190.94 162.5V155m0-109.99v7.5"/><text fill="#000" font-family="KaTeX_Main" font-size="8" text-anchor="middle" transform="translate(190.94 172.6)"><tspan> 5</tspan></text></g><path fill="none" stroke="#CCC" stroke-linecap="round" stroke-linejoin="round" stroke-width=".1" d="M227.15 162.5V45.01" class="42fca__gridline" color="#000"/><g fill="none" stroke-linecap="round" stroke-linejoin="round" stroke-width="0" color="#000"><path d="M227.15 162.5V155m0-109.99v7.5"/><text fill="#000" font-family="KaTeX_Main" font-size="8" text-anchor="middle" transform="translate(227.15 172.6)"><tspan> 6</tspan></text></g><path fill="none" stroke="#CCC" stroke-linecap="round" stroke-linejoin="round" stroke-width=".1" d="M263.36 162.5V45.01" class="42fca__gridline" color="#000"/><g fill="none" stroke-linecap="round" stroke-linejoin="round" stroke-width="0" color="#000"><path d="M263.36 162.5V155m0-109.99v7.5"/><text fill="#000" font-family="KaTeX_Main" font-size="8" text-anchor="middle" transform="translate(263.36 172.6)"><tspan> 7</tspan></text></g><path fill="none" stroke="#CCC" stroke-linecap="round" stroke-linejoin="round" stroke-width=".1" d="M299.57 162.5V45.01" class="42fca__gridline" color="#000"/><g fill="none" stroke-linecap="round" stroke-linejoin="round" stroke-width="0" color="#000"><path d="M299.57 162.5V155m0-109.99v7.5"/><text fill="#000" font-family="KaTeX_Main" font-size="8" text-anchor="middle" transform="translate(299.57 172.6)"><tspan> 8</tspan></text></g><path fill="none" stroke="#CCC" stroke-linecap="round" stroke-linejoin="round" stroke-width=".1" d="M335.78 162.5V45.01" class="42fca__gridline" color="#000"/><g fill="none" stroke-linecap="round" stroke-linejoin="round" stroke-width="0" color="#000"><path d="M335.78 162.5V155m0-109.99v7.5"/><text fill="#000" font-family="KaTeX_Main" font-size="8" text-anchor="middle" transform="translate(335.78 172.6)"><tspan> 9</tspan></text></g><path fill="none" stroke="#CCC" stroke-linecap="round" stroke-linejoin="round" stroke-width=".1" d="M371.99 162.5V45.01" class="42fca__gridline" color="#000"/><g fill="none" stroke-linecap="round" stroke-linejoin="round" stroke-width="0" color="#000"><path d="M371.99 162.5V155m0-109.99v7.5"/><text fill="#000" font-family="KaTeX_Main" font-size="8" text-anchor="middle" transform="translate(371.99 172.6)"><tspan> 10</tspan></text></g><g fill="none" stroke-linecap="round" stroke-linejoin="round" stroke-width="0" color="#000"><path d="M371.99 162.5h-7.5"/><text fill="#000" font-family="KaTeX_Main" font-size="8" transform="translate(378.99 165.1)"><tspan>-1</tspan></text></g><g fill="none" stroke-linecap="round" stroke-linejoin="round" stroke-width="0" color="#000"><path d="M371.99 123.34h-7.5"/><text fill="#000" font-family="KaTeX_Main" font-size="8" transform="translate(378.99 125.94)"><tspan>0</tspan></text></g><g fill="none" stroke-linecap="round" stroke-linejoin="round" stroke-width="0" color="#000"><path d="M371.99 84.17h-7.5"/><text fill="#000" font-family="KaTeX_Main" font-size="8" transform="translate(378.99 86.77)"><tspan>1</tspan></text></g><g fill="none" stroke-linecap="round" stroke-linejoin="round" stroke-width="0" color="#000"><path d="M371.99 45.01h-7.5"/><text fill="#000" font-family="KaTeX_Main" font-size="8" transform="translate(378.99 47.61)"><tspan>2</tspan></text></g><path fill="none" d="M28 45.01V162.5M371.99 45.01H28" color="#000"/><text stroke-linecap="round" stroke-linejoin="round" stroke-width="0" color="#000" font-family="KaTeX_Main" font-size="10" text-anchor="middle" transform="rotate(-90 57.63 46.13)"><tspan>log</tspan><tspan dy="3" font-size="8">2</tspan><tspan dy="-3">(</tspan><tspan font-weight="bold">Average Path Length </tspan><tspan> / log</tspan><tspan dy="3" font-size="8">2</tspan><tspan dy="-3">(Size))</tspan></text><text stroke-linecap="round" stroke-linejoin="round" stroke-width="0" color="#000" font-family="KaTeX_Main" font-size="10" text-anchor="middle" transform="translate(199.99 195.75)"><tspan>Operations / 10</tspan><tspan dy="-5" font-size="8">6</tspan></text><text stroke-linecap="round" stroke-linejoin="round" color="#000" font-family="KaTeX_Main" font-size="8" transform="translate(132.8 10.11)"><tspan>Splay</tspan></text><g fill="none" stroke="currentColor" stroke-linecap="round" stroke-linejoin="round" color="#000"><path stroke="#29C3F6" d="M97.3 7.51h29.9M28 98.75l.36-8.4.36 2.7.37 2.03.36-4.05.36 4.17.36.93.36-3.34.37 5.95.36-2.07.36-3.11.36 2.92.37.67.36.66.36-2.5.36 2.85.36-6.92.37-5.08.36 8.61.36-7.32.36-.02.36.21.37 6.48.36.38.36 2.05.36-2.16.36.15.37-5.02.36 7.4.36-.31.36-3.21.36 2.83.37 1.79.36-2.87.36.93.36.13.37-.88.36-1.81.36-1.75.36 3.68.36-4.39.37-1.75.36 4.5.36 3.19.36-1.57.36-1.21.37 3.12.36-5.26.36 4.34.36-13.74.36 9.57.37 5.2.36-5.68.36 2.13.36-1.56.37 2.96.36-.81.36 1.56.36 1.29.36.14.37-1.12.36 1.48.36-3.26.36 1.25.36-10.02.37 10.56.36-4.73.36 2.48.36 1.85.36-3.61.37 5.07.36-1.38.36-.99.36-3.02.37 5.39.36.5.36.47.36-4.02.36 2.51.37-1.23.36 1.61.36-8.35.36 6.39.36.13.37 3.26.36-11.18.36 5.97.36-2.39.36 1.05.37 3.55.36-1.94.36-.96.36-3.83.36 2.95.37 1.32.36-5.24.36 9.52.36-.77.37-1.78.36-4.48.36 2.64.36-5.4.36 3.11.37.43.36 3.19.36-3.05.36 3.14.36 2.26.37-7.49.36 7.54.36-5.77.36 3.52.36-6.66.37 3.55.36-10.71.36 13.04.36 1.29.37 1.2.36-9.98.36 6.64.36.88.36-5.02.37 5.77.36 2.02.36-2.58.36 2.37.36-1.48.37-.1.36 2.14.36-8.01.36 3.97.36 3.41.37-1.93.36.73.36-6.93.36 9.72.36-2.49.37-8.85.36 10.23.36-.85.36-3.69.37 4.46.36-6.56.36 6.3.36-1.01.36.63.37-5.88.36 2.76.36 4.62.36-1.51.36-3.41.37 5.44.36-1.16.36-6.08.36-1.19.36 6.25.37-3.54.36.55.36 2.9.36 2.15.37-3.76.36-2 .36-3.43.36 5.54.36-.03.37 2.98.36-6.1.36 2.45.36 2.06.36 1.23.37-.18.36.19.36-1.44.36-5.68.36 1.95.37-1.45.36 2.2.36-3.15.36 5.02.36-.02.37-4.95.36 2.85.36-5.27.36 9.36.37-3.37.36-1.93.36 5.51.36 2.02.36-8.21.37 1.04.36 1.11.36 2.11.36.81.36.03.37-6.73.36 3.99.36-2.41.36 1.8.36-8.11.37 8.38.36-2.44.36 3.36.36-2.28.37.95.36 2.18.36-3.47.36 6.35.36-4.81.37-.8.36-.85.36 3.31.36-3.08.36 4.29.37-3.96.36 1.25.36 1.21.36-.44.36-2.11.37 5.3.36-2.64.36-.96.36-1.41.37.8.36 4.2.36-1.16.36-3.63.36 5.91.37-1.56.36-1.71.36.9.36-3.15.36 3.65.37-2.13.36 3.09.36-3.2.36 3.72.36-4.81.37 4.07.36-7.01.36 5.14.36-.41.36-.97.37.64.36 3.48.36.83.36-7.23.37 6.04.36-3.77.36 2.36.36-1.33.36-.43.37 3.6.36-3.72.36-4.26.36 1.59.36 4.27.37-4.72.36 1.4.36 4.65.36-4.95.36 3.21.37-3.1.36 2.76.36.3.36-1.94.37-9.6.36 12.48.36.16.36-3.3.36-1.28.37 1.48.36-3.01.36 7.37.36-5.18.36 2.54.37-2.74.36 1.4.36-3.94.36 10.71.36-7.24.37-1.01.36 5.19.36-4.79.36-5.84.36 11.33.37-2.57.36-1.24.36.6.36 2.36.37-4.39.36 3.45.36-4.43.36 4.53.36.05.37 1.85.36-4.48.36.56.36.24.36-5.94.37 11.05.36-15.51.36 2.17.36 10.26.36 1.37.37-2.04.36-3.5.36 1.36.36 3.35.37-5.19.36 1.23.36-3.5.36 4.56.36-2.17.37 3.7.36 3.07.36-6.82.36-1.35.36 6 .37-8.28.36 5.77.36.22.36-4.47.36 5.23.37.22.36-1.75.36.21.36 2.26.36.32.37-3.99.36-1.29.36 4.68.36-4.85.37 2.56.36-1.11.36 2.36.36-1.99.36 5.25.37-3.18.36 5.04.36-2.16.36-1.6.36 1.82.37-2.29.36 3.23.36-6 .36-4.29.36 6.06.37-1.32.36-1.84.36 2.65.36 2.07.37.14.36-1.39.36 3.27.36-4.29.36-.27.37 1.29.36 1.05.36-1.19.36 1.9.36-2.22.37.99.36 1.27.36 1.12.36-1.29.36-2.56.37-8.44.36.53.36 7.82.36-1.23.37.37.36.55.36-3.25.36 9.44.36-2.33.37-3.11.36.68.36-6.38.36 9.24.36-.04.37-4.69.36-9.43.36 7.84.36 4.87.36.65.37-2.04.36 1.84.36-10.24.36 5.88.36 2.75.37 1.18.36-1.06.36 4.2.36-8.34.37-1.26.36 5.3.36-3.94.36 2.01.36-1.09.37 3.45.36-.16.36-4.07.36-6.47.36 9.19.37-3.02.36-3.19.36-2.5.36 3.57.36 4.68.37-2.12.36-1.82.36 2.9.36-3.91.37 7.63.36-1.54.36-4.59.36 6.6.36-.51.37-4.58.36-3.19.36 3.2.36-1.01.36 2.46.37-6.91.36 11.28.36 1.88.36-8.4.36.53.37.58.36 3.97.36-5.83.36-.67.36 7.36.37-2.62.36-1.12.36-.85.36 4.84.37 2.06.36-4.91.36-1.16.36 1.5.36-1.39.37-1.79.36-4.09.36 9.57.36-1.07.36 3.79.37-1.85.36-5.49.36 1.02.36-8.98.36 9.84.37 1.14.36 1.31.36-3.54.36-.07.37.14.36 5.09.36-4.92.36-1.28.36 1.56.37 1.03.36 1.06.36-6.32.36 7.36.36-1.55.37-4.44.36 4.64.36-.94.36 4.2.36-5.63.37.07.36.36.36 1.47.36-11.58.37 6.24.36 1.82.36 4.7.36-2.11.36.78.37 4.2.36-6.57.36-.46.36.98.36-2.7.37 5.02.36-7.99.36 7.39.36 1 .36 1.6.37-4.93.36 1.17.36 1.68.36-5.34.36 6.28.37-7.76.36 7.85.36-2.5.36-.81.37.63.36-3.15.36 3.31.36 3.66.36-4.78.37-1.28.36 4.84.36-1.28.36-1.63.36 1.18.37 1.07.36-4.64.36 4.64.36-1.05.36 1.78.37 1.11.36-2.95.36-1.99.36 5 .37-5.15.36 4.86.36-7.88.36 3.6.36-1.67.37 5.45.36-4.42.36-4.35.36 5.97.36-.47.37-4.53.36 7.66.36-2.45.36-1.03.36 1.88.37 5.82.36-8.76.36.74.36-2.01.36 5.88.37-2.31.36 4.35.36-2.93.36 2.35.37-6.34.36 2.16.36 1.64.36-3.21.36-3.77.37 6.72.36-9.13.36 8.28.36 1.7.36.9.37-1.11.36 1.13.36-6.56.36 4.81.36-3.86.37 6.25.36.21.36-2.65.36-3.93.37.7.36.42.36 4.51.36-6.47.36 4.49.37.73.36-1.18.36-12 .36 7.84.36 7.01.37.18.36 1.13.36-2.23.36-.76.36-2.69.37-7.17.36 10.04.36-1.4.36-.58.36-1.58.37 1.44.36.91.36 2.05.36-2.34.37.49.36-1.01.36-1.64.36.29.36 3.91.37-5.96.36 2.88.36.34.36-1.98.36-.03.37 5.21.36-7.79.36 3.57.36 1.3.36 1.65.37.47.36-4.35.36 6.23.36-5.71.37 1.4.36 2.29.36 2.35.36-2.59.36 1.42.37-.47.36-6.59.36 6.28.36-4.42.36 4.19.37-3.35.36 6.6.36-8.14.36 3.18.36-1.07.37 4.45.36-2.34.36-1.11.36 2.63.37-2.93.36 3.46.36-4.25.36 4.72.36-3.18.37.54.36-2.17.36 1.67.36-7.02.36 6.86.37-6.39.36 2.36.36 1.62.36 2.57.36-12.15.37 12.01.36.2.36 2.57.36-5.91.36 4.77.37-6.27.36 2.64.36.69.36-6.74.37 4.82.36 3.98.36.45.36-3.13.36 2.25.37-.59.36 1.94.36.26.36-2.52.36 1.15.37 3.65.36-9.08.36 5.34.36-2.77.36 4.45.37-.46.36-4.01.36-6.07.36 4.63.37 2.54.36-2.91.36-1.78.36 1.76.36 4.12.37 2.04.36-1.39.36-6.53.36-6.02.36 11.44.37 1.51.36 1.12.36-1.23.36-3.44.36 5.76.37-2.69.36 3.74.36-4.13.36-3.68.36-4.57.37 1.94.36-1.1.36 8.8.36 1.1.37-.45.36-8.49.36 4.91.36 3.23.36-.05.37-1.03.36-4.94.36 5.52.36-2.27.36.48.37-.74.36 1.1.36.1.36-4.3.36-4.4.37 10.2.36.04.36-12.95.36 12.44.37 2.04.36-6.35.36 2.85.36 2.39.36-5.53.37.95.36-.93.36 5.44.36 1.01.36-4.4.37 3.29.36-4.44.36-4.9.36 6.92.36-2.3.37 5.55.36-2.43.36 1.38.36-5.38.36 6.64.37-5.65.36-6.07.36 6.59.36-1.96.37 4.01.36 1.37.36-7.42.36 6.05.36.29.37 3.14.36-2.3.36-.02.36-1.45.36 3.86.37-5.06.36 2.52.36-14.11.36 14.25.36-2.18.37 3.19.36-3.76.36-.57.36 5.55.37-1.11.36 1.07.36-5.05.36 2.05.36-1.21.37-2.62.36-3.55.36 9.23.36 1.51.36-1 .37-6.9.36 8.02.36-7.87.36 1.81.36 4.56.37.1.36 3.41.36-4.68.36 1.87.37-8.83.36 7.1.36.04.36-.37.36 1.2.37-1.41.36 2.37.36-5.52.36 5.98.36-.16.37-2.43.36 2.73.36-6.61.36 4.3.36 1.41.37-9.11.36 4.61.36 1.91.36-1.19.36-8.29.37 8.9.36-1.73.36 1.32.36 1.17.37-5.01.36 3.13.36 5.18.36-2.23.36-7.74.37 7.41.36-2.54.36 4.14.36-2.82.36 3.09.37.24.36 1.87.36-2.98.36-3.4.36.5.37-2.25.36.68.36-.04.36-1.28.37 1.2.36-2.82.36-2.4.36 6.59.36.47.37-.92.36-3.7.36 5.24.36-.28.36-2.02.37 4.19.36-1.29.36-5.8.36 8.86.36-3.95.37 2.59.36-5 .36 2.69.36-1.29.36 1.92.37.43.36 4.17.36-4.89.36 3.07.37-5.92.36-3.84.36 9.39.36.6.36-2.01.37-12.79.36 11.34.36-2.13.36-13.14.36 17.47.37-1.09.36-.26.36 2.42.36-8.57.36 7.49.37-1.3.36-6.6.36 9.52.36-3.05.37-5.71.36.64.36 3.85.36 4.15.36-5.93.37 5.63.36-6.77.36 6.82.36-.56.36-.38.37-.67.36-3.14.36-1.07.36 4.5.36-1.56.37.67.36-2.99.36-.36.36 1.45.36 2.61.37 1.28.36-15.38.36 12.48.36.96.37 1.03.36-.49.36-.13.36-6.8.36 6.75.37 1.96.36-.6.36-4.05.36-.73.36 1.54.37-1.68.36-2.47.36 7.37.36-1.97.36-3.58.37 2.95.36-2.04.36 1.93.36-3.35.37 1.07.36 7.35.36-5.04.36.32.36 2.33.37-.2.36-6.96.36 4.26.36-7.76.36 2.88.37 3.02.36.68.36.75.36.01.36.97.37 2.15.36-3.67.36 3.64.36-3.75.37 2.77.36-3.16.36 2.26.36.62.36-1.55.37.92.36-2.71.36-2.06.36 9.16.36-5.96.37 1.61.36-.34.36-1.18.36 4.65.36-4.86.37-1.02.36.46.36 1.64.36.11.36-1.11.37-2.7.36 3.31.36 1.51.36 3.47.37-9.88.36 8.46.36-7.83.36 5.86.36 2.22.37-10.98.36 2.5.36 5.05"/><use xlink:href="#42fca__b" color="#29C3F6" transform="matrix(3.75 0 0 3.75 354.25 99.5)"/><use xlink:href="#42fca__b" color="#29C3F6" transform="matrix(3.75 0 0 3.75 112.25 7.51)"/></g><text stroke-linecap="round" stroke-linejoin="round" stroke-width=".5" color="#000" font-family="KaTeX_Main" font-size="8" transform="translate(132.8 25.11)"><tspan>AVLBottomUp</tspan></text><g fill="none" stroke="currentColor" stroke-linecap="round" stroke-linejoin="round" stroke-width=".5" color="#000"><path stroke="#000" d="M97.3 22.51h29.9M28 128.41l.36-.01h.73l.36-.01.36-.01.36-.01.36-.01.37-.01.36-.01h.36l.36-.01.37-.01.36-.01.36-.01h.36l.36-.01.37-.01h.36l.36-.01.36-.01h.36l.37-.01h.72l.36-.01h.36l.37-.01.36-.01h.36l.36-.01.36-.01h.37l.36-.01h.36l.36-.01h.37l.36-.01h.36l.36-.01h.36l.37-.01h.36l.36-.01h.72l.37-.01h.36l.36-.01h.36l.36-.01h7.61l.36.01h.36l.37-.01h.36l.36.01h57.57l.36-.01.37.01.36-.01h1.08l.37.01h2.89l.37-.01h2.89l.36.01h11.95l.37-.01h1.81l.36.01.36-.01h.72l.37.01.36-.01h.36l.36.01h1.09l.36-.01h.36l.37.01.36-.01h1.81l.36.01h.36l.36-.01.37.01h1.81l.36-.01.36.01h6.16l.36-.01h4.34l.37.01h3.62l.36-.01.36.01.36-.01.37.01h.36l.36-.01.36.01h1.09l.36-.01h18.1l.37.01h.36l.36-.01.36.01h.73l.36-.01.36.01.36-.01.37.01h5.79l.36-.01h17.74l.37.01h16.29l.36-.01h2.18l.36-.02.36.01h4.71l.36-.01h1.45l.36.01h.72l.37-.01.36.01h.36l.36-.01.36.01.37-.01h2.53l.36.02h14.12l.37.01h2.17l.36-.01h.73l.36.01h49.97l.36.01h1.08l.37-.01.36.01h.36l.36-.01h1.09l.36.01h3.98l.37-.01.36.01h.36l.36-.01h5.8l.36.01.36-.01h.72l.37.01h1.81l.36-.01h3.26l.36.01h6.52l.36-.01h1.09l.36.01h5.79l.36-.01h3.99l.36.01h13.76l.36-.01h3.26"/><use xlink:href="#42fca__d" transform="matrix(3.75 0 0 3.75 67.83 128.12)"/><use xlink:href="#42fca__d" transform="matrix(3.75 0 0 3.75 112.25 22.51)"/></g><text stroke-linecap="round" stroke-linejoin="round" color="#000" font-family="KaTeX_Main" font-size="8" transform="translate(241.1 10.11)"><tspan>LBSTRelaxed</tspan></text><g fill="none" stroke="currentColor" stroke-linecap="round" stroke-linejoin="round" color="#000"><path stroke="#FFAB00" stroke-dasharray="4.0,2.0,1.0,2.0" d="M205.6 7.51h29.9M28 125.16l.36-.01.36-.01.37-.01.36-.01h.36l.36-.03.36-.01.37.01.36-.01h.72l.37-.02.36-.01.36.02.36.01.36-.01.37-.01.36-.01h.72l.36-.02.37-.01.36.01h1.08l.37-.02h.36l.36-.02h.36l.36-.02.37.01h.36l.36-.01.36-.03h.37l.36.01.36.01h.36l.36-.01.37-.01.36-.01h.72l.36-.01h.37l.36-.01.36-.01h.36l.36-.01.37.01.36-.01h.36l.36-.01h.37l.36-.01.36-.02H49l.36-.01.37-.01.36-.01h.36l.36-.01.36-.01.37-.04h.36l.36-.01h1.09l.36.01h.36l.36-.01.37-.01h.36l.36-.01.36-.02.36-.01h1.45l.36.01.37.01.36-.01.36-.01.36-.01h.36l.37-.02h.36l.36-.01.36-.01.36-.01.37-.01.36-.01h.36l.36-.01.37-.02.36.02.36-.02.36.01.36-.02h.73l.36-.03.36-.01.36-.01h.37l.36-.01h.36l.36-.02.36-.02h.37l.36-.01.36-.01h1.09l.36-.01h.36l.36-.01h.37l.36.01.36-.01.36-.02.36.08h.37l.36-.01.36-.01.36-.01.36.01.37-.02.36-.02.36.01h.36l.36-.02h.37l.36.01.36.02.36-.01.37-.01.36.01.36-.01.36-.01.36-.01.37-.01h.36l.36-.01h1.09l.36.02h.36l.36-.01.36.02h.37l.36-.01h.36l.36.01.37-.01.36-.01.36.01.36-.02.36-.01.37-.01.36-.01h.36l.36-.03.36-.01h.73l.36-.01.36-.01.36-.02h.37l.36.01h.36l.36-.01.36-.02h1.09l.36.01.37.01.36.01h1.81l.36-.02.36-.01.36-.01.37-.01h.36l.36.03.36-.01.36-.02.37-.01.36.02h.36l.36-.02.37.02.36-.02h.36l.36-.02.36-.01h.37l.36-.01.36-.01.36.01.36.02h.73l.36.01.36-.01.36-.01h.37l.36.01h.36l.36-.01.37-.01.36-.01h.36l.36-.01.36.03h.37l.36-.01.36-.01h.36l.36-.01.37.01.36.01h.36l.36.01.36.03.37-.03.36-.02.36-.01h.36l.36-.01.37-.01h.36l.36.01h.36l.37-.01.36-.01h.72l.36-.01.37-.01h1.44l.37.01.36-.01.36-.01.36.01.36-.02.37-.02h.36l.36-.01h1.09l.36.01h.72l.37-.02.36-.02.36.01.36-.01.36-.01h.37l.36-.01.36-.01.36-.01.36-.01.37-.02.36-.01h.36l.36.02h.36l.37.01h.72l.36.01h.37l.36.01h.72l.36-.01.37.01h.72l.36-.01.36-.01.37.02h1.44l.37-.01.36-.02.36-.02h.73l.36-.01h.72l.36.01.37-.01h.36l.36.01.36-.01h.73l.36.04h.36l.36.01h.36l.37-.01h.72l.36.02h.36l.37.01.36-.02h.72l.37-.01h1.08l.36-.01.37-.01.36.01h.36l.36.01.36-.01h.37l.36.01.36-.03h.36l.36.01.37-.01h.36l.36-.01h1.09l.36-.01.36-.01.36-.01h1.81l.37-.01.36-.02.36-.02.36.01h.36l.37.01.36.01.36-.01.36.01h.73l.36-.01.36-.02.36-.01h.37l.36-.01h.36l.36-.01.36.02.37.02.36-.01.36-.01.36-.01.36-.02h.37l.36-.01.36-.01.36-.01.36.02h.37l.36.01.36.01.36-.02.37-.02.36-.02h.36l.36.02.36-.03.37.01.36-.01.36.02.36-.03h.36l.37.01.36-.01.36.01.36-.02h.36l.37.01h.36l.36.01.36-.02.37-.01.36-.02h1.45l.36.02.36.01.36-.02.36-.01.37-.01.36.01.36-.01h.36l.36-.01.37.01.36.01h.36l.36-.02.36-.03.37-.02h.72l.36-.01h.37l.36.01h.36l.36.01.36-.02.37.02.36-.02.36.02h.72l.37-.03h.36l.36-.01.36-.01.36-.01.37-.01.36-.01.36-.02h.36l.37.01.36-.02.36-.02h.72l.37-.02.36.02.36-.02h1.09l.36-.03.36.01.36-.02h.36l.37-.02.36.02.36-.02h.36l.37-.01.36.01h.36l.36.01.36-.01.37-.01.36.01.36.02h.36l.36.01h.37l.36.01.36-.03.36.01.36-.02.37-.02.36.01h.36l.36-.01.36-.01h.37l.36-.01.36.01.36-.02.37-.01h.72l.36.01.36.01h.37l.36.01h.72l.36-.01h.37l.36-.01.36.01h.36l.36-.01.37.01.36-.01.36-.02.36-.01h.37l.36.02h.72l.36.01.37-.01h.72l.36-.01.36.03h.37l.36-.01.36.01.36.01h.36l.37-.01.36-.01.36-.01h.36l.36-.01.37-.01.36.01h.72l.37-.02.36.02.36.01h.36l.36.01.37-.01h.72l.36.01.36.01.37-.02h.36l.36-.02.36.01.36-.01.37.01.36-.01.36.01.36-.02.37-.01h.36l.36-.01.36-.01h.36l.37.01h.36l.36-.01.36-.02h.73l.36.01.36-.02.36.01h.36l.37.01.36.01.36-.01.36-.04h.36l.37-.01.36.01.36-.01.36.01.37-.02.36-.01.36.02.36-.01H242l.36-.02.36-.01.36-.02.37.01.36-.01.36.03.36-.01.36-.01h.37l.36.01h.36l.36-.03h1.09l.36-.01h.73l.36.02.36-.01.36.02h.73l.36.01.36.01.36-.02.36.01.37.01.36.02.36.02h.73l.36-.02.36.01h1.45l.36-.02.36-.01h.36l.37-.02h.72l.36.01.36.01h.73l.36-.01h.36l.36.02.37-.01.36.01h.36l.36.01.37-.01h.36l.36-.03h.36l.36-.02.37-.01.36.01.36.02.36.01.36.01.37.01.36-.02.36.02.36.01h1.09l.36.02.36.03h1.81l.37.01.36-.01h.72l.36.01h.37l.36-.03.36.03.36-.02.36-.01.37-.02.36-.01.36.02h.36l.36.02.37-.03.36-.01.36-.01h.36l.37.01h.36l.36.02.36-.01.36-.01h.73l.36.01.36-.01h.36l.37.01h.72l.36-.01.36.02.37.01.36.02h1.09l.36-.01.36.01.36-.01h.36l.37.01.36-.02.36-.01.36-.01.36-.02h.73l.36-.01h.72l.37.01.36.03.36-.01h.36l.36.01.37.02h.36l.36-.01.36-.02h1.09l.36.02h.36l.37.02h.36l.36-.02.36.02.36.01.37.01h.36l.36.02.36-.01.36-.01.37-.01.36-.02h.36l.36.01.37.01.36-.01.36-.01h.36l.36-.01.37.01h.36l.36-.01.36-.03.36-.01.37.01.36-.01.36.02.36.01h1.45l.36-.01.37-.01.36.03.36.01.36-.02.36-.02.37-.01h.36l.36-.01.36.01.36.01h.37l.36-.02.36-.01.36.02h1.09l.36-.02.36.01h.36l.37.01h.36l.36-.01.36.01h.73l.36-.02h.36l.36.01.37-.01.36-.02.36.01.36.03.36-.01.37-.01.36-.01.36.01h.36l.36.01.37.01.36-.01.36-.01.36-.01.37.01.36.01h.36l.36.01.36.01.37.01h.72l.36-.01.36-.01h.37l.36-.01.36.02.36-.01h.73l.36.01.36-.02h.72l.37-.03.36-.01h1.09l.36.01.36.02.36-.01h.36l.37.02h.36l.36-.01h.72l.37.01h.36l.36-.01h.36l.36-.01h1.09l.36-.02h.37l.36.01.36.01.36.01.36-.01.37-.02.36.01h.36l.36.01.36.01.37-.01.36-.01h1.45l.36-.01.36-.01.36-.03.36.01h1.09l.36-.02.37.01.36-.01.36.01h.36l.36.01h.73l.36-.02.36-.01h.73l.36.01h.36l.36-.01.36-.01.37.01.36.01.36-.03.36.02.37.01.36-.01h.36l.36.01.36.01.37.01h.72l.36.02.36-.01.37.01.36.01.36-.01.36-.01h.73l.36-.01.36.01h.36l.37.01.36-.02h.72l.36-.02.37.01h.72l.36.01.36-.01h.37l.36.01h.72l.36-.01h1.45l.36-.01h.37l.36-.01h.72l.37-.01.36-.01h.36l.36.02.36-.01h.73l.36.01"/><use xlink:href="#42fca__e" color="#FFAB00" transform="matrix(3.75 0 0 3.75 125.4 124.09)"/><use xlink:href="#42fca__e" color="#FFAB00" transform="matrix(3.75 0 0 3.75 220.55 7.51)"/></g><text stroke-linecap="round" stroke-linejoin="round" color="#000" font-family="KaTeX_Main" font-size="8" transform="translate(241.1 25.11)"><tspan>TreapTopDown</tspan></text><g fill="none" stroke="currentColor" stroke-linecap="round" stroke-linejoin="round" color="#000"><path stroke="#00C853" stroke-dasharray="4.5,2.0,0.5,2.0,0.5,2.0" d="M205.6 22.51h29.9M28 114.13l.36.19.36-.25.37-.83.36-2 .36.79.36.79.36.05.37-.1.36-.12.36.12.36.26.37-.65.36-.07.36 1.57.36-.75.36 1.45.37-.14.36-.97.36-.43.36-.38.36-.14.37.33.36.07.36-2.22.36 1.91.36-.7.37.42.36-.3.36.24.36.17.36-.78.37-.15.36.04.36-.19.36-.35.37.2.36.57.36-.72.36.01.36 1.19.37.46.36.15.36-.23.36-.12.36.17.37.09.36.33.36-.13.36.75.36-.19.37-.29.36.77.36-.14.36.56.37.39.36-.64.36 1.13.36.5.36-.02.37-.78.36.88.36-.15.36-.52.36-.38.37.31.36-1.1.36-.22.36-.55h.36l.37.18.36 1.12.36.07.36-5.09h.37l.36 4.58.36-.87.36-.25.36-1.07.37.2.36 3.72.36-.09.36-.36.36-.67.37-.22.36-.15.36-.13.36-.18.36-.67.37-.4.36.22.36-.06.36-1.31.36-.52.37.35.36.39.36-.2.36.57.37.65.36.01.36-.43.36.02.36-.15.37.36.36.64.36-.41.36.29.36.62.37.38.36-.77.36-1.71.36.05.36-.45.37.01.36.9.36 1.58.36.12.37-.54.36-.09.36.33.36-.07.36-.28.37.02.36.04.36.44.36-.06.36-.72.37.23.36-1.56.36-.45.36.45.36.45.37.12.36.57.36.11.36.19.36.67.37-.83.36.04.36-.54.36-.08.37-.24.36-.23.36.34.36.18.36.08.37.14.36-.98.36-.1.36.04.36-.09.37.63.36.12.36-.14.36.11.36-.22.37-1.03.36.17.36-1.07.36-.74.37-.12.36-.03.36 1.21.36-1.58.36-.13.37-1.23.36 1.47.36-.2.36.04.36 2.06.37 2.28.36-.03.36.65.36.43.36-.11.37-1.4.36.28.36-.77.36.17.36.32.37.16.36-.61.36-.21.36-.47.37.6.36-1.11.36 2.64.36-.04.36-.16.37.67.36-.15.36-.34.36.71.36-.07.37-.23.36.25.36-.11.36.18.36.57h.37l.36-.47.36.07.36-.77.37-.47.36-.27.36.58.36-1.16.36-1.04.37.92.36.28.36-.33.36-.03.36.06.37-.05.36.15.36-.25.36.44.36-.45.37-4.27.36.19.36-.19.36.27.37.06.36.52.36-.68.36.95.36.68.37.57.36.31.36 1.54.36.19.36.78.37 1.72.36-.37.36.74.36-1.55.36.36.37-.12.36-.41.36-1.71.36.34.36-.14.37 1.55.36-.23.36.91.36-1.41.37.77.36-.11.36.18.36.2.36-.09.37-.21.36.11.36-.74.36-.81.36-.87.37 1.66.36-1.11.36.58.36.04.36-.13.37 1.84.36.02.36.07.36.07.37.1.36.06.36-.37.36-.61.36.97.37-.17.36.38.36.03.36.19h.36l.37-.9.36-.09.36-.13.36.01.36.08.37-.3.36-.11.36.37.36-.54.36-.44.37-.21.36.66.36-.01.36-.9.37.38.36-.65.36-.28.36.55.36-.11.37-.17.36-.07.36-1.01.36-.62.36-.19.37 1.47.36-2.37.36-.29.36 3.44.36-.05.37.39.36-.01.36.6.36.17.37-.25.36.05h.36l.36.01.36-1.94.37 1.52.36.32.36-.01.36-.7.36.72.37-.68.36-.81.36-.32.36-1.92.36.02.37 1.32.36-.6.36 3.5.36-2.01.36-.36.37-1.02.36.21.36-1.83.36.46.37-.66.36-.48.36-.33.36.5.36-1.63.37-.21.36-.04.36 2.62.36-.09.36-2.15h.37l.36-.56.36 3.12.36.22.36 1.44.37-.27.36.07.36.05.36.05.37.41.36-2.17.36.11.36.05.36-.03.37-.59.36-2 .36.73.36-.19.36-.39.37.2.36.03.36.22.36.03.36 3.44.37.7.36-.26.36-1.93.36.43.37-2.4.36-.19.36-.22.36 4.73.36.74.37.24.36-.55.36.01.36-.45.36.88.37-.45.36-2.03.36 2.56.36-2.19.36.49.37.1.36.48.36 1.12.36.71.36.15.37 1.11.36-.39.36-.04.36.59.37.55.36-.18.36-.67.36.61.36-.02.37-.34.36-.14.36.14.36-.48.36.16.37.05.36-.04.36-1.55.36.25.36.14.37-.2.36.28.36.5.36-.71.37.07.36.78.36-1.03.36.78.36-.81.37 1.65.36-.65.36-.05.36.14.36-.33.37.16.36.36.36-.35.36-.42.36.03.37-.56.36.48.36.34.36-.69.36-.36.37.83.36-.66.36-.28.36 1.28.37-.6.36-.2.36.15.36-.17.36-.68.37.06.36-.02.36 1.06.36.31.36.66.37.38.36-.9.36-.49.36-.21.36-.59.37-.89.36.86.36.59.36.66.37-.02.36.21.36-.98.36-.35.36.4.37-.62.36.57.36.58.36-.61.36-.23.37-.22.36.64.36-.26.36.38.36-.42.37-.26.36.48.36.16.36.42.37.04.36-1 .36.8.36.74.36.27.37.25.36-.08.36-.16.36-.58.36.26.37-.83.36-.44.36.37.36-.14.36-1.95.37.25.36-.09.36-.02.36-.5.36.02.37-.12.36.09.36-1.03.36.98.37 1.13.36-1.29.36-1.56.36 3.59.36-.6.37.09.36.94.36.15.36-.5.36-.07.37-.31.36.27.36.9.36.2.36-.56.37-.2.36.28.36-.13.36 1.15h.37l.36-.78.36.46.36-4 .36.14.37.11.36-.13.36-.35.36-.42.36.87.37.98.36-.18.36.32.36.52.36.21.37.46.36-1.61.36.44.36-.14.36-.15h.37l.36.35.36-.22.36.27.37.09.36-.06.36-.13.36-.21.36-.49.37-.01.36.02.36.38.36-.18.36-.39.37-.8.36.79.36.73.36.03.36-.56.37-.07.36.24.36.02.36-.1.37-.85.36.29.36.01.36-.02.36-.29.37.31.36-.37.36.08.36.64.36-.15.37-.03.36-.54.36 2.03.36-.49.36-.55.37 1.22.36-.26.36-.01.36-.08.36.07.37-.12.36-.59.36-.21.36 1.14.37 1.84.36-.28.36-.38.36 1.72.36.14.37-1.05.36.51.36.99.36-.03.36.43.37.45.36-.04.36-.1.36.07.36-.27.37-1.23.36.2.36-.15.36-.14.37.06.36.13.36.11.36-.44.36-2.27.37.54.36-.18.36.4.36-.16.36.29.37.65.36-.42.36-1.31.36-.41.36-.34.37.15.36-.02.36-.09.36.25.37.05.36.01.36.05.36-.08.36.37.37-.52.36.04.36 2.78.36.43.36-.53.37-3.82.36.51.36-.03.36-.32.36-.44.37 1.23.36 1.26.36-.11.36.39.36-.7.37-.37.36-1.17.36.31.36 1.02.37-.34.36.03.36-.14.36-.63.36.63.37-.36.36-.2.36 2.25.36.32.36.7.37.19.36-.01.36-.22.36-.44.36.26.37.31.36-.36.36-1.37.36.89.37-.15.36.24.36.34.36.38.36-.42.37.05.36-.14.36.18.36-.28.36.07.37.58.36-.43.36-.45.36-.23.36-.36.37-.99.36.74.36-.11.36 1.68.36-2.36.37.16.36-.14.36 1.05.36-.13.37-.4.36-.38.36.08.36 1.83.36.35.37-.9.36-.34.36.11.36.34.36-.21.37.43.36-.34.36-.55.36-.28.36.34.37.01.36-.06.36-2.04.36.17.37 1.51.36-.22.36.06.36.55.36.19.37.55.36-.95.36.35.36.3.36 1.02.37-.19.36-.04.36.21.36.21.36.12.37.24.36-.02.36-.11.36.37.36-.71.37-.4.36.09.36.11.36.15.37.32.36-.85.36-.09.36-.36.36-.21.37-.58.36-1.54.36.41.36-.31.36.48.37.08.36.1.36-.26.36-.29.36.43.37.44.36 1.97.36-.13.36-.15.37-.44.36.74.36.05.36-.48.36.54.37-1.63.36-.03.36-.03.36.65.36 1.35.37-1.24.36-1.46.36-.81.36.38.36-.65.37.3.36.13.36-3.01.36 1.84.37 2.81.36 1.03.36-.47.36.73.36.64.37-.35.36-.28.36-.22.36-.42.36-.16.37.06.36-.57.36.37.36.74.36.2.37-2.05.36-1.98.36.32.36-.96.36 1.9.37.22.36.2.36 1.88.36-1.48.37.36.36.47.36-2.19.36-.8.36-.06.37.16.36.39.36-.34.36-.51.36.27.37-.07.36-.22.36-.09h.36l.36.06.37-.32.36-.2.36-1.02.36.61.37.15.36-.08.36-.36.36 5.13.36-.36.37.29.36.64.36.28.36.18.36-.29.37-3.22.36.15.36.21.36-.02.36-.64.37.68.36.56.36-.03.36.54.36.21.37-.14.36 2.95.36-.78.36-1.56.37-.23.36.14.36-.14.36-.15.36-.63.37-.21.36-.04.36.97.36.2h.36l.37-.16.36.6.36-.07.36-.02.36.14.37.18.36.23.36-.05.36.35.37-.03.36.13.36-1.36.36 1.3.36-.82.37-1.65.36.15.36-.17.36.13.36-.5.37-.3.36.12.36-.45.36-.52.36 1.47.37.44.36.89.36.2.36-.71.36.52.37-.37.36-.49.36.35.36.61.37-.26.36-.94.36.9.36.8.36.09.37-1.11.36-.18.36.56.36.22.36 1.16.37-2.83.36.24.36.5.36-1.14.36 3.06.37-3.83.36.23.36.13.36-.14.37 1.72.36-.41.36-.35.36 2.84.36-1.19.37-.44.36.11.36-1.03.36-.48.36.3.37-.09.36-.25.36.05.36-.8h.36l.37 2.42.36-2.24.36-.19.36.7.37.03.36.25.36.06.36.08.36-.5.37.18.36.02.36-.34.36 2.09.36-1.35.37-.17.36-.06.36-.62.36.19.36.11.37-.62.36-.26.36.25.36-.5.36.31.37-.49.36-.69.36-.07.36-.35.37 1.42.36-.04.36.3.36.08.36.51.37 2.21.36-.07.36.41"/><use xlink:href="#42fca__f" color="#00C853" transform="matrix(3.75 0 0 3.75 182.98 112.93)"/><use xlink:href="#42fca__f" color="#00C853" transform="matrix(3.75 0 0 3.75 220.55 22.51)"/></g><path fill="none" d="M28 45.01V162.5M371.99 45.01H28" color="#000"/></svg>