<svg xmlns="http://www.w3.org/2000/svg" xmlns:xlink="http://www.w3.org/1999/xlink" viewBox="0 0 400 200"><path fill="none" d="M0 0h400v200H0z"/><defs><use xlink:href="#1f1b9__a" id="1f1b9__d" fill="currentColor" stroke="none"/><use xlink:href="#1f1b9__b" id="1f1b9__c" stroke="currentColor" transform="rotate(180)"/><circle id="1f1b9__a" cx="0" cy="0" r="1" stroke="currentColor" stroke-width=".267"/><path id="1f1b9__b" stroke="currentColor" stroke-width=".267" d="m0-1.33-1.33 2h2.66z"/></defs><path fill="none" stroke="#CCC" stroke-linecap="round" stroke-linejoin="round" stroke-width=".1" d="M46.1 162.5V45.01" class="1f1b9__gridline" color="#000"/><g fill="none" stroke-linecap="round" stroke-linejoin="round" stroke-width="0" color="#000"><path d="M46.1 162.5V155m0-109.99v7.5"/><text fill="#000" font-family="KaTeX_Main" font-size="8" text-anchor="middle" transform="translate(46.1 172.6)"><tspan> 1</tspan></text></g><path fill="none" stroke="#CCC" stroke-linecap="round" stroke-linejoin="round" stroke-width=".1" d="M82.31 162.5V45.01" class="1f1b9__gridline" color="#000"/><g fill="none" stroke-linecap="round" stroke-linejoin="round" stroke-width="0" color="#000"><path d="M82.31 162.5V155m0-109.99v7.5"/><text fill="#000" font-family="KaTeX_Main" font-size="8" text-anchor="middle" transform="translate(82.31 172.6)"><tspan> 2</tspan></text></g><path fill="none" stroke="#CCC" stroke-linecap="round" stroke-linejoin="round" stroke-width=".1" d="M118.52 162.5V45.01" class="1f1b9__gridline" color="#000"/><g fill="none" stroke-linecap="round" stroke-linejoin="round" stroke-width="0" color="#000"><path d="M118.52 162.5V155m0-109.99v7.5"/><text fill="#000" font-family="KaTeX_Main" font-size="8" text-anchor="middle" transform="translate(118.52 172.6)"><tspan> 3</tspan></text></g><path fill="none" stroke="#CCC" stroke-linecap="round" stroke-linejoin="round" stroke-width=".1" d="M154.73 162.5V45.01" class="1f1b9__gridline" color="#000"/><g fill="none" stroke-linecap="round" stroke-linejoin="round" stroke-width="0" color="#000"><path d="M154.73 162.5V155m0-109.99v7.5"/><text fill="#000" font-family="KaTeX_Main" font-size="8" text-anchor="middle" transform="translate(154.73 172.6)"><tspan> 4</tspan></text></g><path fill="none" stroke="#CCC" stroke-linecap="round" stroke-linejoin="round" stroke-width=".1" d="M190.94 162.5V45.01" class="1f1b9__gridline" color="#000"/><g fill="none" stroke-linecap="round" stroke-linejoin="round" stroke-width="0" color="#000"><path d="M190.94 162.5V155m0-109.99v7.5"/><text fill="#000" font-family="KaTeX_Main" font-size="8" text-anchor="middle" transform="translate(190.94 172.6)"><tspan> 5</tspan></text></g><path fill="none" stroke="#CCC" stroke-linecap="round" stroke-linejoin="round" stroke-width=".1" d="M227.15 162.5V45.01" class="1f1b9__gridline" color="#000"/><g fill="none" stroke-linecap="round" stroke-linejoin="round" stroke-width="0" color="#000"><path d="M227.15 162.5V155m0-109.99v7.5"/><text fill="#000" font-family="KaTeX_Main" font-size="8" text-anchor="middle" transform="translate(227.15 172.6)"><tspan> 6</tspan></text></g><path fill="none" stroke="#CCC" stroke-linecap="round" stroke-linejoin="round" stroke-width=".1" d="M263.36 162.5V45.01" class="1f1b9__gridline" color="#000"/><g fill="none" stroke-linecap="round" stroke-linejoin="round" stroke-width="0" color="#000"><path d="M263.36 162.5V155m0-109.99v7.5"/><text fill="#000" font-family="KaTeX_Main" font-size="8" text-anchor="middle" transform="translate(263.36 172.6)"><tspan> 7</tspan></text></g><path fill="none" stroke="#CCC" stroke-linecap="round" stroke-linejoin="round" stroke-width=".1" d="M299.57 162.5V45.01" class="1f1b9__gridline" color="#000"/><g fill="none" stroke-linecap="round" stroke-linejoin="round" stroke-width="0" color="#000"><path d="M299.57 162.5V155m0-109.99v7.5"/><text fill="#000" font-family="KaTeX_Main" font-size="8" text-anchor="middle" transform="translate(299.57 172.6)"><tspan> 8</tspan></text></g><path fill="none" stroke="#CCC" stroke-linecap="round" stroke-linejoin="round" stroke-width=".1" d="M335.78 162.5V45.01" class="1f1b9__gridline" color="#000"/><g fill="none" stroke-linecap="round" stroke-linejoin="round" stroke-width="0" color="#000"><path d="M335.78 162.5V155m0-109.99v7.5"/><text fill="#000" font-family="KaTeX_Main" font-size="8" text-anchor="middle" transform="translate(335.78 172.6)"><tspan> 9</tspan></text></g><path fill="none" stroke="#CCC" stroke-linecap="round" stroke-linejoin="round" stroke-width=".1" d="M371.99 162.5V45.01" class="1f1b9__gridline" color="#000"/><g fill="none" stroke-linecap="round" stroke-linejoin="round" stroke-width="0" color="#000"><path d="M371.99 162.5V155m0-109.99v7.5"/><text fill="#000" font-family="KaTeX_Main" font-size="8" text-anchor="middle" transform="translate(371.99 172.6)"><tspan> 10</tspan></text></g><g fill="none" stroke-linecap="round" stroke-linejoin="round" stroke-width="0" color="#000"><path d="M371.99 162.5h-7.5"/><text fill="#000" font-family="KaTeX_Main" font-size="8" transform="translate(378.99 165.1)"><tspan>3.00</tspan></text></g><g fill="none" stroke-linecap="round" stroke-linejoin="round" stroke-width="0" color="#000"><path d="M371.99 150.75h-7.5"/><text fill="#000" font-family="KaTeX_Main" font-size="8" transform="translate(378.99 153.35)"><tspan>3.50</tspan></text></g><g fill="none" stroke-linecap="round" stroke-linejoin="round" stroke-width="0" color="#000"><path d="M371.99 139h-7.5"/><text fill="#000" font-family="KaTeX_Main" font-size="8" transform="translate(378.99 141.6)"><tspan>4.00</tspan></text></g><g fill="none" stroke-linecap="round" stroke-linejoin="round" stroke-width="0" color="#000"><path d="M371.99 127.25h-7.5"/><text fill="#000" font-family="KaTeX_Main" font-size="8" transform="translate(378.99 129.85)"><tspan>4.50</tspan></text></g><g fill="none" stroke-linecap="round" stroke-linejoin="round" stroke-width="0" color="#000"><path d="M371.99 115.5h-7.5"/><text fill="#000" font-family="KaTeX_Main" font-size="8" transform="translate(378.99 118.1)"><tspan>5.00</tspan></text></g><g fill="none" stroke-linecap="round" stroke-linejoin="round" stroke-width="0" color="#000"><path d="M371.99 103.75h-7.5"/><text fill="#000" font-family="KaTeX_Main" font-size="8" transform="translate(378.99 106.35)"><tspan>5.50</tspan></text></g><g fill="none" stroke-linecap="round" stroke-linejoin="round" stroke-width="0" color="#000"><path d="M371.99 92.01h-7.5"/><text fill="#000" font-family="KaTeX_Main" font-size="8" transform="translate(378.99 94.61)"><tspan>6.00</tspan></text></g><g fill="none" stroke-linecap="round" stroke-linejoin="round" stroke-width="0" color="#000"><path d="M371.99 80.26h-7.5"/><text fill="#000" font-family="KaTeX_Main" font-size="8" transform="translate(378.99 82.86)"><tspan>6.50</tspan></text></g><g fill="none" stroke-linecap="round" stroke-linejoin="round" stroke-width="0" color="#000"><path d="M371.99 68.51h-7.5"/><text fill="#000" font-family="KaTeX_Main" font-size="8" transform="translate(378.99 71.11)"><tspan>7.00</tspan></text></g><g fill="none" stroke-linecap="round" stroke-linejoin="round" stroke-width="0" color="#000"><path d="M371.99 56.76h-7.5"/><text fill="#000" font-family="KaTeX_Main" font-size="8" transform="translate(378.99 59.36)"><tspan>7.50</tspan></text></g><g fill="none" stroke-linecap="round" stroke-linejoin="round" stroke-width="0" color="#000"><path d="M371.99 45.01h-7.5"/><text fill="#000" font-family="KaTeX_Main" font-size="8" transform="translate(378.99 47.61)"><tspan>8.00</tspan></text></g><path fill="none" d="M28 45.01V162.5M371.99 45.01H28" color="#000"/><text stroke-linecap="round" stroke-linejoin="round" stroke-width="0" color="#000" font-family="KaTeX_Main" font-size="10" text-anchor="middle" transform="rotate(-90 57.63 46.13)"><tspan font-weight="bold">Duration </tspan><tspan> in milliseconds</tspan></text><text stroke-linecap="round" stroke-linejoin="round" stroke-width="0" color="#000" font-family="KaTeX_Main" font-size="10" text-anchor="middle" transform="translate(199.99 195.75)"><tspan>Operations / 10</tspan><tspan dy="-5" font-size="8">6</tspan></text><text stroke-linecap="round" stroke-linejoin="round" color="#000" font-family="KaTeX_Main" font-size="8" transform="translate(71.2 10.11)"><tspan>RedBlackBottomUp</tspan></text><g fill="none" stroke="currentColor" stroke-linecap="round" stroke-linejoin="round" color="#000"><path stroke="#F44336" d="M35.7 7.51h29.9M28 129.95l.36-1.37.36 4.3.37.13.36-.51.36-6.23.36-1.48.36-1.14.37 3.99.36-.2.36-6.44.36-1.13.37-1.45.36-.47.36 3.82.36-.15.36-5.49.37-1.12.36-1.65.36 3.18.36.58.36-.41.37-5.69.36-1.35.36-.97.36 3.15.36.14.37-5.63.36-1.3.36-.69.36 2.44.36-5.39.37 4.96.36-4.83.36-1.33.36 3 .37-5.42.36 5.22.36-.61.36-4.27.36 3.23.37-5.03.36-1.37.36 3.98.36-4.45.36 3.08.37-5.42.36-.49.36-.72.36 4.45.36-.38.37 6.66.36 3.89.36-5.25.36 3.5.37.48.36-5.89.36 4.56.36-.72.36-.06.37-.06.36.14.36-.17.36-4.79.36 3.5.37-.22.36-4.97.36 4.27.36-4.5.36 3.19.37.14.36.01.36-.23.36-4.89.37 3.76.36.83.36-5.09.36 4.12.36-4.91.37 4.25.36.47.36-5.12.36 4.84.36.1.37-.61.36.07.36-5.11.36 4.23.36-4.4.37 4.1.36.57.36-4.92.36 4.32.36.04.37-.01.36-.09.36-.39.36-.34.37-5.07.36 3.56.36.3.36-5.04.36 4.71.37-4.41.36 4.01.36.14.36-.03.36.06.37-4.76.36 3.62.36.27.36-4.7.36 4.01.37-3.98.36 3.38.36.73.36-4.99.37 4.38.36.42.36-.19.36-.14.36-5.22.37 4.59.36-4.54.36 4.23.36.28.36-5.29.37 4.09.36.37.36-.11.36.32.36-.24.37-.48.36-4.8.36 3.88.36.22.36-5.5.37 4.75.36-4.9.36 3.96.36.25.37.71h.36l.36-4.83.36 3.86.36.14.37-4.73.36 3.89.36-3.99.36 3.79.36.52.37-5.07.36 4.28.36.24.36.48.36.2.37-5.61.36 4.51.36-4.84.36 3.93.37.28.36-4.99.36 4.85.36.28.36.42.37-.07.36-.11.36-.43.36-4.71.36 3.91.37.07.36-5.91.36 4.5.36-4.63.36 3.84.37-.05.36.61.36.32.36-4.44.36 4.6.37-.56.36-5.02.36 4.62.36-4.25.37 4.04.36.1.36-4.88.36 4 .36.38.37.55.36-.17.36-5.29.36 4.02.36-4.38.37 4.43.36-.24.36-4.62.36 4.55.36.21.37.16.36-.22.36.07.36.34.37-4.96.36 4 .36.06.36-4.81.36 4.5.37-4.96.36 4.15.36.9.36-.78.36.38.37-4.64.36 3.92.36-.06.36-4.76.36 4.4.37-4.84.36 4.17.36.56.36-5.38.37 4.85.36-.14.36-.59.36.03.36-5.69.37 4.05.36-4.33.36 4.16.36.3.36-4.49.37 4.65.36-.7.36.42.36-.32.36-.09.37-.24.36-4.2.36 4.4.36-.31.36-4.48.37 4.21.36-4.62.36 4.33.36.56.37.42.36-.59.36-4.85.36 4.47.36-.18.37-4.47.36 4.5.36-4.93.36 4.85.36-.4.37-4.53.36 4.2.36.77.36-.49.36.26.37-4.54.36 4.79.36-5.49.36 5.02.37-.74.36-4.41.36 4.58.36.23.36.08.37-.79.36.07.36.25.36-4.1.36 3.62.37 1.31.36-5.8.36 4.4.36-3.75.36 3.37.37-.42.36.04.36.47.36-4.14.36 4.16.37.07.36-4.73.36 4.72.36-4.58.37 3.77.36-3.73.36 3.52.36.65.36.17.37-.19.36 1.14.36-5.68.36 4.2.36-4.41.37 4.67.36-4.61.36 3.41.36.54.36.6.37-.05.36.12.36.08.36-.82.37-4.13.36 3.65.36.33.36-5.12.36 4.55.37-4.25.36 4.01.36-.15.36.78.36.17.37-4.63.36 4.4.36-.25.36-5.3.36 4.32.37-4.2.36 4.96.36-3.84.36 3.84.36.39.37-.01.36.03.36-.48.36-4.68.37 4.5.36-4.67.36 4.13.36-4.2.36 3.64.37 1.05.36.11.36.35.36.26.36-.82.37.39.36-5.11.36 3.76.36-3.96.36 4.24.37.52.36-5 .36 3.87.36-.05.37.48.36.43.36-4.95.36 4.71.36-5.11.37 4.32.36.51.36-4.24.36 3.71.36-3.72.37 3.81.36.29.36.57.36-.58.36-4.84.37 3.72.36 1.01.36-4.91.36 4.81.37-3.93.36 3.47.36.33.36.48.36-.06.37.37.36-.43.36.09.36-4.78.36 4.04.37-3.86.36 3.85.36.07.36-4.27.36 3.67.37.91.36-.14.36.1.36-5.08.36 4.93.37-4.62.36 4.13.36-.55.36-4.38.37 4.43.36-3.83.36 3.37.36.87.36-.85.37-.28.36-4.05.36 4.02.36.16.36-4.5.37 4.67.36-4.7.36 3.95.36-.12.36.8.37.05.36.47.36.02.36-.16.37-4.95.36 4.96.36-4.02.36 3.73.36.14.37-5.18.36 4.51.36.12.36.22.36.64.37-4.8.36 3.65.36-3.56.36 3.16.36.08.37-4.28.36 3.93.36-4 .36 4.25.36.5.37-.21.36-1.18.36-3.61.36 4.33.37.31.36-5.32.36 4.61.36-4.2.36 4.4.37.69.36-.35.36.77.36.26.36-.36.37-.02.36-5.04.36 3.82.36-3.99.36 3.88.37.97.36-4.59.36 4.46.36-.23.37.38.36.27.36-5.46.36 4.47.36-3.7.37 3.43.36.68.36-5.4.36 5.15.36-4.17.37 2.93.36 1.55.36-.06.36.41.36-4.48.37 3.72.36.22.36-4.64.36 4.93.37-4.73.36 4.52.36-.05.36.26.36-.32.37.39.36.09.36-1.18.36-4.42.36 4.36.37-4.21.36 4.35.36.52.36-5.09.36 4.16.37-.1.36.06.36.67.36-4.62.36 4.38.37-3.92.36 3.77.36.06.36-4.3.37 4.66.36-4.87.36 4.07.36.13.36.27.37.63.36-4.98.36 4.24.36.27.36-4.4.37 4.27.36-4.27.36 3.69.36.18.36.45.37.36.36-.06.36-.34.36-.62.37-4.62.36 4.82.36-4.25.36 3.62.36.76.37-4.45.36 4.6.36.33.36-.13.36.27.37-5.2.36 4.73.36-4.66.36 4.16.36.24.37-4.96.36 4.79.36-4.18.36 4.48.36.27.37.23.36-.11.36-4.49.36 3.8.37.06.36-4.91.36 5.29.36-4.49.36 4.35.37-.2.36.39.36.08.36.5.36-.54.37-.48.36-4.56.36 4.26.36-3.96.36 4.35.37.21.36-5.29.36 4.76.36.18.37.2.36-.52.36-4.47.36 4.33.36-4.6.37 4.55.36-.13.36-4.17.36 4.63.36-4.4.37 3.99.36.73.36-.56.36-.01.36-4.78.37 4.16.36-.04.36-4.14.36 4.8.36-4.2.37 3.87.36.96.36-.34.36-.78.37.65.36.55.36-.31.36-4.74.36 4.91.37-4.76.36 3.75.36.78.36-5.79.36 5.33.37-.24.36.38.36.01.36-5.08.36 3.45.37-4.54.36 5 .36.74.36-4.85.37 5 .36-4.39.36 4.02.36.35.36.08.37.5.36-4.77.36 4.15.36-.09.36-5.16.37 4.6.36-4.51.36 4.41.36.64.36.35.37.18.36-.08.36.01.36.05.37-5.47.36 4.81.36-4.92.36 4.63.36.16.37-4.79.36 4.9.36.01.36.15.36-.42.37-4.39.36 4.81.36-4.79.36 4.49.36.07.37-5.24.36 5.19.36-4.64.36 4.04.36.25.37.28.36.05.36-5.54.36 4.47.37.05.36-4.07.36 4.14.36-3.6.36 3.96.37.4.36.12.36.23.36.03.36.14.37-1.05.36-4.56.36 4.98.36-3.92.36 4.07.37-3.89.36 3.1.36 1.13.36-.83.37.47.36.07.36-4.86.36 4.61.36-4.33.37 4.21.36-3.53.36 3.58.36-.08.36-4.61.37 3.46.36.84.36-.15.36.71.36-5.22.37 3.5.36.51.36-4.15.36 4.18.36-3.96.37 4.85.36.35.36.19.36.19.37-.21.36.24.36-.28.36-4.53.36 3.59.37-4.33.36 4.54.36-3.42.36 3.22.36.85.37-.06.36-.18.36.2.36-4.76.36 4.75.37-4.58.36 3.82.36-3.31.36 3.62.37.45.36-4.77.36 4.52.36.03.36.4.37.12.36-4.59.36 4.38.36-4.2.36 3.79.37.54.36-4.07.36 4.16.36.27.36-.78.37.76.36.06h.36l.36-4.2.36 3.26.37-.09.36-4.61.36 4.47.36-4.39.37 3.94.36.14.36.06.36-.02.36-4.13.37 2.69.36 1.27.36-4.23.36 3.85.36-3.26.37 4.05.36.27.36-4.97.36 4.33.36-.03.37.4.36-.04.36-4.78.36 4.62.37-4.16.36 3.44.36.59.36-4.54.36 4.97.37-.93.36-.21.36.36.36-.78.36-.39.37-4.74.36 4.4.36 1.3.36-4.29.36 3.89.37-3.62.36 4.27.36.39.36.28.37.45.36-4.06.36 3.4.36.41.36-5.27.37 4.4.36-3.93.36 4.15.36.17.36-4.68.37 4.35.36 1.01.36-.63.36.56.36-4.96.37 4.32.36-4.07.36 4.16.36.55.36-4.78.37 4.5.36.48.36-.16.36.38.37.15.36-.36.36-4.71.36 4.18.36.05.37-4.58.36 4.25.36-4.07.36 4.36.36.12.37-.17.36.89.36-5.25.36 4.2.36-.1.37-5.11.36 4.89.36-4.3.36 3.84.37.56.36-4.8.36 4.87.36.57.36-.16.37.18.36-5.22.36 4.48.36-4.2.36 4.1.37.7.36-4.15.36 3.98.36.27.36-.26.37-.56.36 1.19.36-.64.36-3.83.36 3.43.37.63.36-4.81.36 4.29.36-3.65.37 3.51.36.28.36.75.36-.85.36-4.22.37 2.64.36.47.36-4.31.36 4.33.36-3.92.37 3.64.36.9.36-4.43.36 4.22.36.31.37-.07.36-.04.36-4.63.36 3.9.37-4.4.36 4.49.36.29.36-4.46.36 4.58.37-.05.36-.21.36.69.36-.16.36-.13.37-4.57.36 4.18.36.37.36-5.58.36 4.9.37-3.94.36 3.98.36.3.36.61.36-.83.37-3.7.36 3.94.36.13.36-4.65.37 4.26.36-4.17.36 4.15.36.26.36-4.77.37 4.47.36.43.36.15.36.19.36-5.15.37 4.16.36-4.08.36 4.53.36-.27.36-4.34.37 4.99.36-.45.36.71.36-.21.37-.66.36-.11.36-4.17.36 4.17.36-.2.37-4.22.36 5.08.36-4.68.36 3.48.36.84.37.19.36.19.36-4.2.36 3.74.36.44.37-5.26.36 4.86.36-3.86.36 3.98.37.38.36-4.85.36 4.01.36-.23.36.16.37-.31.36-5.73.36 5.28.36-4.44.36 4.49.37.98.36-4.22.36 4.64.36.64.36.12.37.05.36-.34.36-.01.36-5.43.36 4.23.37.78.36-4.51.36 4.49.36-4.17.37 4.16.36.53.36-.32.36-.13.36-4.31.37 3.72.36.68.36-4.85"/><use xlink:href="#1f1b9__b" color="#F44336" transform="matrix(3.75 0 0 3.75 354.25 59.47)"/><use xlink:href="#1f1b9__b" color="#F44336" transform="matrix(3.75 0 0 3.75 50.65 7.51)"/></g><text stroke-linecap="round" stroke-linejoin="round" color="#000" font-family="KaTeX_Main" font-size="8" transform="translate(71.2 25.11)"><tspan>RedBlackTopDown</tspan></text><g fill="none" stroke="currentColor" stroke-linecap="round" stroke-linejoin="round" color="#000"><path stroke="#3B75EA" d="M35.7 22.51h29.9m-37.6 132 .36-.3.36-1.7.37-.14.36 4.31.36-.45.36-5.59.36-1.49.37-.66.36 4.34.36-.45.36.35.37-5.81.36-.48.36 3.57.36-5.93.36 4.41.37-5.52.36-.37.36 3.8.36-5.21.36-.85.37 4.1.36-4.19.36 3.1.36-5.5.36-1.24.37 4.84.36-.23.36-.47.36-5.64.36-1.17.37-.43.36 3.64.36.83.36-5.29.37-1.27.36-.62.36-.71.36 3.76.36.48.37-4.98.36-1.92.36-1.37.36 4.39.36.32.37-.07.36-4.03.36-1.46.36-.29.36 3.64.37-6.69.36-.39.36-4.87.36 3.39.37.2.36-5.06.36 4.22.36-4.45.36 3.58.37-.01.36-5.29.36 4.35.36.83.36-1.36.37-.14.36-4.84.36 4.3.36-4.27.36 3.85.37.33.36-4.88.36 4.34.36-.38.37.19.36-.33.36-.2.36.07.36-4.93.37 3.53.36.63.36-5.94.36 4.52.36-4.66.37 3.9.36-.09.36.19.36-.46.36-4.44.37 3.7.36.58.36-5.35.36 4.25.36-4.52.37 3.52.36.66.36-5.45.36 4.51.37-.51.36.69.36-.87.36-4.92.36 4.58.37-4.4.36 3.31.36-.4.36-4.42.36 4.93.37-.07.36-.86.36.89.36-.34.36-.1.37-4.98.36 3.13.36.28.36-4.8.37 5.19.36-5.15.36 4.03.36.33.36-.07.37-.49.36-4.4.36 3.72.36.24.36-4.52.37 4.17.36-4.74.36 4.05.36-.34.36-5.16.37 4.66.36-.31.36 1 .36-.18.36-5.07.37 4.36.36-4.59.36 3.82.36.47.37-4.17.36 3.91.36.65.36-.56.36-.57.37.47.36-.33.36-5.09.36 4.17.36.4.37-5.17.36 4.96.36-4.89.36 4.16.36.19.37-.47.36-.32.36-4.35.36 3.73.37.42.36-4.54.36 4.05.36-5.03.36 4.72.37-.46.36-4.72.36 4.23.36.38.36-.01.37-.11.36-5.03.36 4.49.36-4.94.36 3.58.37.36.36-4.49.36 4.52.36.26.36-.08.37.49.36-.57.36-.02.36-4.62.37 4.1.36-.46.36-4.32.36 4.67.36-4.85.37 4.13.36.24.36-.38.36.18.36-4.23.37 3.83.36-.06.36-4.68.36 4.44.36-5.06.37 4.2.36.14.36-4.73.36 4.88.37-.09.36-.44.36.28.36-4.96.36 4.67.37-5.33.36 4.18.36-.02.36-4.61.36 4.76.37.05.36.13.36.25.36-.34.36-.16.37-5.37.36 4.25.36.67.36-5.38.37 5.36.36-5.1.36 4.5.36.05.36.01.37.31.36-4.6.36 4.05.36.24.36-5.45.37 4.27.36-4.34.36 4.08.36.76.36-4.87.37 4.25.36.35.36-.29.36.55.36-5.23.37 4.51.36-4.44.36 4.14.36.43.37-5.63.36 5.07.36.08h.36l.36-.01.37.06.36-.51.36-4.84.36 3.89.36.58.37-4.52.36 4.46.36-4.64.36 4.23.36.58.37.26.36-.37.36-4.91.36 4.4.37.25.36-5.52.36 4.81.36-4.56.36 4.84.37-.6.36-5.03.36 4.67.36.33.36.3.37.45.36-5.38.36 4.44.36-4.38.36 3.84.37.65.36-4.83.36 4.49.36-.35.36.16.37.13.36.31.36-.67.36-4.45.37 4.13.36.57.36-4.61.36 4.22.36-5.07.37 4.32.36.53.36.4.36-.58.36-4.66.37 4.37.36.19.36-4.8.36 4.79.36-4.7.37 4.19.36-.02.36-4.79.36 4.52.37.16.36.31.36-.12.36-4.87.36 4.7.37-4.84.36 3.81.36-.28.36-4.27.36 5.75.37.09.36.91.36.17.36-.24.36-.13.37-4.69.36 3.76.36-.04.36-4.66.36 3.55.37-4.12.36 4.86.36.25.36.58.37-.7.36-4.85.36 4.56.36.14.36-4.54.37 4.25.36-4.68.36 4.44.36.62.36-5.3.37 5.14.36-.15.36.24.36.08.36-5.34.37 4.89.36-4.51.36 4.13.36.41.37-5.08.36 4.73.36.12.36-.06.36.05.37.11.36-.45.36-4.21.36 4.03.36.1.37-4.71.36 4.12.36-4.5.36 4.43.36-.09.37.28.36.16.36-4.81.36 4.61.37-.23.36-5.01.36 4.79.36-4.4.36 4.5.37-4 .36 3.59.36.5.36.11.36.14.37-.64.36-4.88.36 4.31.36-4.59.36 4.67.37-4.54.36 3.67.36.76.36-.19.36-.14.37.54.36.04.36-.85.36-4.52.37 4.17.36-3.8.36 3.71.36.13.36-4.84.37 4.53.36.14.36.36.36-.03.36-4.81.37 4.55.36-4.28.36 3.64.36.37.36-5.21.37 5 .36-3.97.36 3.99.36.45.37-.04.36.24.36-4.36.36 3.66.36-.06.37-4.26.36 3.83.36-4.35.36 4.26.36.68.37.18.36.24.36.06.36-.39.36.24.37-4.83.36 4.01.36-3.91.36 3.49.36.86.37-4.45.36 4.31.36-.05.36.22.37-.1.36-4.65.36 4.02.36-3.8.36 3.57.37.23.36-4.41.36 4.38.36-3.8.36 3.81.37-.33.36.33.36.34.36-4.62.36 3.89.37.58.36-4.71.36 4.17.36-3.93.37 3.03.36.48.36.28.36.67.36-.03.37-.1.36.27.36-4.76.36 3.99.36-3.96.37 3.4.36.44.36-4.46.36 4.83.36.02.37.04.36-.06.36-4.91.36 4.48.37-4.08.36 4.32.36-.79.36-4.25.36 4.58.37-4.34.36 4.3.36.13.36-.05.36.43.37-5.1.36 3.95.36.22.36-4.65.36 4.21.37-3.79.36 4.12.36.42.36.2.36.08.37.06.36.68.36-.23.36-4.67.37 4.09.36-4.08.36 4.4.36-.19.36-4.9.37 4.84.36-.04.36-.26.36.22.36-4.93.37 4.64.36-4.37.36 3.97.36.25.36-5.45.37 5.3.36-4.6.36 4.66.36-.16.37-.09.36-.27.36-3.4.36 3.29.36.9.37-5.26.36 4.27.36-3.58.36 3.76.36.51.37.14.36.25.36-.61.36.02.36.1.37-4.93.36 4.49.36-4.34.36 4.13.36.46.37-4.82.36 4.73.36-.09.36.11.37-.02.36-4.77.36 4.47.36-4.72.36 4.11.37.41.36-4.68.36 4.95.36-4.42.36 4.43.37.11.36.04.36.19.36-4.62.36 3.97.37.33.36-4.56.36 4.16.36-4.82.37 4.52.36.22.36-1.81.36 1.05.36.03.37.66.36.27.36-4.46.36 4.19.36-4.06.37 4.06.36.38.36-4.66.36 4.61.36-.03.37.19.36.01.36-4.86.36 3.6.36-3.73.37 3.98.36-1.01.36-6.23.36 4.44.37-3.36.36 3.46.36.73.36.28.36-.39.37-3.38.36 4.77.36 1 .36-4.85.36 4.61.37-4.14.36 3.8.36.37.36.37.36-.13.37.14.36.05.36.16.36-4.86.37 4.06.36-4.25.36 3.51.36.56.36-4.39.37 4.31.36.35.36.18.36.2.36-4.75.37 4.76.36-4.55.36 4.44.36.52.36-4.95.37 4.49.36-4.26.36 3.96.36.02.37.54.36-.15.36-4.7.36 4.23.36.27.37-4.4.36 4.36.36-4.56.36 4.18.36.43.37.44.36-.66.36-.64.36.59.36.05.37-4.5.36 4.54.36-4.2.36 3.89.36.26.37-4.76.36 4.73.36-.1.36.95.37-.19.36-5.2.36 4.69.36-4.53.36 4.01.37.62.36-4.83.36 4.68.36-4.26.36 4.13.37-.19.36.75.36-.67.36-4.48.36 4.06.37.26.36-5.05.36 4.98.36-4.53.37 4.51.36-.27.36-.16.36-.02.36.7.37-.06.36.42.36-4.9.36 4.17.36-4.23.37 4.55.36-.23.36-5.34.36 4.66.36-1.05.37.91.36.64.36-5.17.36 5.03.36-3.67.37 3.57.36.47.36-4.36.36 4.02.37-4.47.36 4.82.36.07.36-.1.36.12.37-4.53.36 4.22.36.46.36-5.05.36 4.5.37-4.57.36 4.31.36.47.36.25.36-.34.37.02.36.27.36-.18.36-4.73.37 4.46.36-4.08.36 3.48.36 1.29.36-5.27.37 4.79.36.05.36.27.36-.25.36-4.61.37 4.9.36-5.09.36 4.69.36.25.36-5.47.37 4.66.36-4.01.36 4.19.36.45.36-.17.37.14.36-4.32.36 4.35.36-.11.37-4.98.36 4.62.36-4.48.36 4.89.36.16.37-.25.36.51.36-.47.36.05.36.16.37-4.62.36 4.09.36-4.16.36 4.32.36-4.27.37 3.9.36.37.36.25.36-.12.37-.07.36-5.23.36 4.96.36-4.34.36 4.03.37-4.95.36 4.46.36.53.36-4.22.36 4.21.37.59.36-.18.36.45.36-5.14.36 4.85.37-4.43.36 3.1.36.33.36-3.89.37 4.98.36-.03.36.66.36-.09.36.27.37-.19.36-3.78.36 3.31.36.42.36-4.08.37 3.99.36-4.22.36 4 .36-.44.36.11.37-.02.36-4.5.36 3.54.36.63.36-4.6.37 4.43.36-4.34.36 4.15.36.37.37-4.25.36 4.24.36-.02.36.27.36.28.37-5.06.36 4.7.36-4.66.36 3.94.36.26.37-4.33.36 4.22.36.51.36.19.36-.02.37-.17.36-.38.36-4.63.36 4.49.37.06.36-4.48.36 4.54.36-4.56.36 4.19.37-.3.36.68.36.36.36-4.15.36 3.72.37.25.36-4.19.36 4.29.36-4.02.36 3.52.37.5.36-4.71.36 4.6.36.27.36-.22.37.27.36-4.87.36 4.25.36-3.82.37 3.62.36.69.36-4.69.36 3.99.36.54.37-.23.36.19.36-1.02.36.67.36-3.95.37 3.72.36.7.36-5.01.36 4.62.36-3.78.37 3.81.36.66.36-.55.36-.06.37-4.88.36 3.73.36 1.02.36-4.57.36 4.37.37-3.8.36 3.78.36.4.36-4.73.36 4.34.37.43.36-.17.36.21.36-4.63.36 4.05.37-3.99.36 3.89.36.57.36-4.42.36 4.01.37.53.36.19.36.23.36-.21.37-.01.36-4.88.36 4.12.36.43.36-4.48.37 4.24.36-4.36.36 4.31.36.36.36-.09.37.33.36-4.58.36 3.62.36.31.36-4.32.37 4.31.36-4.36.36 4.22.36-.47.37-4.26.36 4.35.36.38.36.45.36.23.37-4.99.36 4.8.36-4.08.36 4.16.36.16.37-4.5.36 4.43.36.3.36.61.36-.04.37-.08.36.31.36-4.71.36 4.31.37-.08.36-4.71.36 4.25.36-3.92.36 4.34.37-.55.36-.23.36-.22.36-3.83.36 3.77.37.02.36-4.41.36 4.05.36-4.41.36 3.77.37.98.36-4.39.36 4.73.36-.33.36.31.37.23.36-4.91.36 4.52.36-4.31.37 3.72.36.44.36-4.54.36 4.21.36.48.37-.05.36.36.36.07"/><use xlink:href="#1f1b9__c" color="#3B75EA" transform="matrix(3.75 0 0 3.75 67.83 107.15)"/><use xlink:href="#1f1b9__c" color="#3B75EA" transform="matrix(3.75 0 0 3.75 50.65 22.51)"/></g><text stroke-linecap="round" stroke-linejoin="round" color="#000" font-family="KaTeX_Main" font-size="8" transform="translate(241.1 10.11)"><tspan>RedBlackRelaxedBottomUp</tspan></text><g fill="none" stroke="currentColor" stroke-linecap="round" stroke-linejoin="round" color="#000"><path stroke="#EC6F1A" stroke-dasharray="1.0,2.0" d="M205.6 7.51h29.9M28 134.7l.36-.25.36-5.79.37-1.44.36 3.77.36-6.31.36 4.42.36-5.43.37-1.55.36 3.85.36-6.08.36-.64.37 4 .36-4.43.36 3.3.36-6.17.36-.8.37 4.41.36-.25.36-.75.36-6.48.36-.83.37-1.66.36 4.25.36.19.36-6.21.36-1.4.37-.78.36-1.09.36 4.18.36-.07.36-5.51.37-.78.36-1.39.36 3.95.36.07h.37l.36-5.31.36-1.52.36 3.26.36-5.3.37 4.42.36-5.23.36-.86.36 3.63.36-5.55.37-.83.36 4.73.36-5.09.36 3.22.36-4.98.37 29.25.36 4.12.36.17.36-.51.37.01.36-.29.36.09.36-.56.36-4.91.37 4.37.36-4.75.36 4.01.36.23.36-5.31.37 3.85.36.66.36-.11.36-.15.36-5.47.37 4.37.36-4.52.36 4.1.36-.06.37-5.44.36 5.04.36-4.58.36 3.74.36.25.37-.01.36-.23.36-4.61.36 4.12.36.1.37-5.12.36 4.24.36-4.52.36 4.39.36.12.37.03.36-.27.36-.3.36.15h.36l.37-5.87.36 5.17.36-5.51.36 4.69.37-4.78.36 4.08.36.16.36-.14.36.32.37.28.36-5.91.36 4.36.36-4.43.36 4.02.37-4.12.36 3.25.36.35.36-4.55.36 3.79.37.75.36.19.36-.24.36-5.35.37 4.05.36-3.93.36 3.48.36.49.36-4.82.37 4.38.36-.02.36.1.36-.14.36-.02.37-.4.36-4.15.36 3.49.36.35.36-5.08.37 4.26.36-4.21.36 3.43.36.66.36-.53.37-.13.36-4.94.36 3.71.36.52.37-4.92.36 4.59.36-4.87.36 4.42.36.03.37-4.47.36 3.63.36.74.36-.25.36-.31.37-4.94.36 4.7.36-4.46.36 3.7.36.25.37-4.43.36 4.33.36.26.36.07.37-.27.36-.14.36.16.36-5.02.36 4.14.37-.16.36-4.77.36 4.64.36-4.45.36 3.71.37.33.36.13.36-.42.36-3.72.36 3.28.37-.03.36-4.65.36 4.27.36-4.47.36 4.23.37.19.36-4.5.36 4.05.36.37.37-.3.36-.09.36-5.39.36 4.7.36-4.21.37 3.71.36-.19.36-4.97.36 5.14.36.08.37.74.36-.49.36-.67.36.23.36-4.3.37 3.63.36.11.36-4.6.36 4.16.37-4.69.36 4.26.36.39.36.06.36-.11.37-4.72.36 4.48.36.06.36-5.14.36 4.5.37-4.51.36 4.1.36.31.36-4.67.36 4.01.37.42.36-.42.36-.16.36-4.86.37 4.81.36-4.45.36 3.77.36.52.36-5.32.37 4.94.36-.04.36.41.36.08.36-.27.37-.28.36-4.62.36 3.95.36-.21.36-4.21.37 4.17.36-4.28.36 4.02.36.33.36.39.37-.74.36-4.48.36 4.21.36-.25.37-4.61.36 4.12.36-4.26.36 4.33.36.49.37-4.75.36 4.41.36.2.36-.04.36-.1.37-4.78.36 4.45.36-4.52.36 3.84.36.9.37-5.41.36 4.84.36.03.36.18.37-.13.36.23.36-.08.36-4.55.36 3.64.37.5.36-4.9.36 4.12.36-4.07.36 3.7.37.32.36-.13.36.41.36-4.74.36 3.95.37.14.36-5.01.36 4.97.36-4.56.36 4.11.37.03.36-4.52.36 4.54.36.04.37.12.36-.5.36-4.69.36 4.93.36-4.83.37 4.35.36.25.36-4.61.36 4.68.36-.21.37.29.36-.01.36-.1.36.06.36-4.89.37 4.04.36-.09.36-4.7.36 4.69.37-4.74.36 4.29.36.61.36-.04.36.11.37-4.65.36 3.77.36.41.36-5.18.36 4.66.37-4.73.36 4.78.36.24.36-4.98.36 4.37.37.27.36-.01.36-.14.36-4.29.36 4 .37-4.13.36 4.25.36-.05.36-4.98.37 4.62.36.63.36.25.36-.3.36.72.37-.49.36-4.56.36 3.94.36.55.36-4.96.37 4.31.36-4.14.36 3.65.36-.05.36.44.37.14.36-5.09.36 4.45.36.12.37-4.5.36 4.5.36-4.89.36 4.4.36.41.37-4.78.36 4.48.36.05.36.38.36-.34.37-4.68.36 4.45.36-4.48.36 4.3.36.29.37-4.71.36 4.33.36.43.36.18.37-.06.36-.04.36-.24.36-4.62.36 4.12.37.25.36-4.93.36 4.87.36-4.91.36 4.32.37.33.36.04.36.14.36-4.24.36 3.84.37.27.36-5.2.36 4.63.36-4.76.36 4.26.37.64.36-5.23.36 5.14.36-.38.37.39.36.08.36-5.25.36 4.5.36-4.45.37 4.31.36.27.36-4.71.36 5.02.36.35.37.14.36-.47.36-.05.36.11.36-4.67.37 4.26.36.47.36-5.23.36 4.74.37-4.38.36 4.35.36-.08.36-.21.36.49.37-4.89.36 4.28.36.18.36-5.07.36 4.82.37-4.87.36 4.5.36.08.36-4.63.36 4.84.37.15.36.24.36-.29.36-4.58.36 3.9.37-3.84.36 3.52.36.55.36-4.82.37 4.14.36.81.36.03.36-.12.36.27.37-.07.36-4.74.36 4.21.36.3.36-5.07.37 4.72.36-4.95.36 4.82.36-.21.36.38.37.18.36-4.89.36 4.75.36-.32.37-4.63.36 4.99.36-4.94.36 4.5.36-4 .37 3.62.36.24.36.54.36-.15.36.03.37-5.34.36 5.08.36-4.85.36 4.17.36-3.87.37 3.7.36.16.36.23.36.34.37-.6.36.52.36-.18.36-4.6.36 4.57.37-4.45.36 3.76.36.47.36-4.94.36 5.04.37-.07.36-.06.36.28.36-4.76.36 4.33.37-3.96.36 3.37.36.27.36-4.56.36 4.28.37-4.04.36 4.21.36.23.36.16.37.02.36-4.48.36 4.03h.36l.36-4.6.37 4.66.36-4.2.36 3.82.36.2.36.07.37.37.36.01.36-.21.36.21.36-5.14.37 4.28.36-3.86.36 3.59.36.42.37-4.4.36 4.15.36.54.36.06.36.27.37-5.14.36 4.32.36-3.69.36 3.58.36.28.37-4.57.36 4.33.36-3.95.36 3.78.36.56.37.12.36.11.36-4.5.36 3.21.36.91.37-4.74.36 4.32.36-4.03.36 3.65.37.39.36.55.36.01.36.13.36-.11.37-.2.36-4.73.36 4.14.36-4.77.36 2.83.37.86.36-4.27.36 4 .36.63.36.17.37.4.36-4.42.36 4.49.36-4.01.37 3.72.36.66.36-4.99.36 4.69.36-4.6.37 4.19.36.21.36.27.36-.24.36-3.95.37 3.32.36 1 .36-5.14.36 4.72.36-4.62.37 3.84.36.62.36.13.36.15.36.07.37-.14.36.21.36-4.82.36 4.19.37-4.38.36 4.44.36.07.36-5 .36 4.63.37-.01.36.22.36-.15.36-4.94.36 4.2.37-3.59.36 3.92.36.26.36-5 .36 4.55.37-4.4.36 4.59.36.03.36.61.37-.03.36-4.56.36 3.83.36.39.36-4.88.37 4.37.36-4.19.36 4.04.36.68.36-.31.37-.04.36.39.36-.57.36.61.36-4.94.37 4.37.36-4.46.36 4.25.36.01.37-4.68.36 4.43.36.53.36.17.36-.03.37-5 .36 4.45.36-4.07.36 3.67.36.23.37-4.69.36 4.9.36-4.33.36 4.27.36.44.37-.33.36.29.36-4.04.36 3.86.36.13.37-4.38.36 3.96.36-4.21.36 4.6.37.04.36.01.36.08.36.05.36.18.37.15.36-4.87.36 4.11.36-4.22.36 4.38.37.18.36-5.1.36 4.51.36.75.36.07h.37l.36-5.04.36 4.46.36-4.03.37 3.52.36-.08.36-4.21.36 4.16.36-4.14.37 4.31.36.03.36.4.36.16.36-4.48.37 3.76.36.51.36-4.88.36 4.71.36-4.38.37 3.88.36.37.36-.01.36.1.36.57.37-.41.36.25.36-5 .36 4.12.37-3.94.36 3.59.36.12.36-4.14.36 4.34.37-.01.36.27.36.02.36-4.94.36 4.81.37-5.06.36 4.43.36.49.36-4.71.36 4.4.37-4 .36 3.82.36.33.36.6.37-.28.36-4.25.36 4.29.36-.39.36-4.55.37 4.68.36-4.19.36 3.88.36.77.36-.02.37.23.36-.05.36-.24.36.84.36-5.74.37 4.66.36-4.34.36 3.91.36.37.36-4.88.37 4.83.36.24.36.42.36-.4.37-4.57.36 4.02.36-4.3.36 4.32.36.44.37-5.05.36 4.95.36-4.74.36 3.88.36.6.37-.02.36-.15.36-4.64.36 4 .36.34.37-4.5.36 4.68.36-4.25.36 4.47.37.25.36.24.36-.02.36.02h.36l.37.07.36-5.22.36 4.66.36-4.93.36 4.64.37.36.36-5.16.36 4.77.36.46.36.1.37-.12.36-4.51.36 4.4.36-4.28.37 4.08.36.04.36-4.95.36 4.97.36-4.86.37 4.74h.36l.36.27.36-.55.36-4.14.37 3.93.36.17.36-4.43.36 4.05.36-4.13.37 4.72.36.2.36-.07.36.24.36-.6.37.61.36-.22.36-5.43.36 4.57.37-4.14.36 4.41.36.34.36-4.75.36 4.61.37-.26.36.08.36-.04.36-4.48.36 4.65.37-4.58.36 4.53.36.25.36-4.71.36 4.31.37-4.53.36 4.37.36.19.36.16.37.58.36-4.95.36 3.92.36.8.36-5.43.37 4.93.36-5.03.36 4.3.36.76.36.04.37.05.36.27.36-.12.36-.05.36-5.12.37 4.39.36-4.28.36 4 .36-3.67.36 3.38.37.66.36.39.36.25.36-.56.37-5.12.36 5.34.36-4.38.36 3.95.36-3.95.37 3.66.36.68.36-4.59.36 4.2.36.41.37.14.36.16.36-5.05.36 4.26.36-3.83.37 3.55.36.43.36-4.44.36 4.19.37.51.36.28.36-.13.36-.21.36.24.37-4.61.36 3.91.36.65.36-5.06.36 4.77.37-4.19.36 3.84.36.13.36.25.36-.13.37-3.83.36 3.26.36.82.36-5.11.36 4.82.37-4.38.36 4.26.36.2.36-4.54.37 4.53.36.06.36.46.36.05.36-4.77.37 4.21.36-4.25.36 4.13.36.27.36-4.62.37 4.5.36.2.36-.19.36.02.36-.25.37-.04.36-4.58.36 3.89.36.6.37-4.48.36 4.68.36-4.42.36 3.79.36.49.37.33.36-.06.36-4.38.36 3.43.36.54.37-4.42.36 4.44.36-3.89.36 3.64.36.13.37-4.88.36 4.87.36.05.36.59.37.07.36-4.77.36 3.87.36-3.69.36 3.73.37.48.36-4.64.36 4.24.36.49.36.01.37-.02.36-.31.36-.05.36-4.42.36 4.15.37.04.36-4.58.36 3.78.36-3.92.36 4.52.37.37.36.16.36.04.36-4.61.37 4.11.36.4.36-4.58.36 4.47.36-4.06.37 3.35.36 1.38.36-5.04"/><use xlink:href="#1f1b9__a" color="#EC6F1A" transform="matrix(3.75 0 0 3.75 125.4 92.79)"/><use xlink:href="#1f1b9__a" color="#EC6F1A" transform="matrix(3.75 0 0 3.75 220.55 7.51)"/></g><text stroke-linecap="round" stroke-linejoin="round" color="#000" font-family="KaTeX_Main" font-size="8" transform="translate(241.1 25.11)"><tspan>RedBlackRelaxedTopDown</tspan></text><g fill="none" stroke="currentColor" stroke-linecap="round" stroke-linejoin="round" color="#000"><path stroke="violet" stroke-dasharray="4.0,2.0,1.0,2.0" d="M205.6 22.51h29.9M28 154.66l.36-1.11.36 4.71.37-5.47.36 3.83.36-5.84.36-.72.36 4.96.37.02.36-.37.36-6.26.36-.44.37-.93.36 3.84.36-.67.36-5 .36-.94.37-1.33.36-.41.36 4.21.36-.08.36-5.76.37-.91.36-.84.36 4.05.36.12.36-.3.37-5.21.36-1.02.36 3.85.36-5.85.36 5.51.37-5.72.36-.53.36 3.48.36-4.9.37-.63.36 4.7.36-5.22.36 3.29.36-5.45.37-.08.36 4.42.36-.08.36-.4.36-5.54.37-.6.36-.54.36 4.01.36-.28.36-5.51.37 8.83.36 4.51.36-.72.36-4.87.37 4.18.36-4.74.36 4.41.36-.29.36.16.37.09.36-4.92.36 3.8.36-.17.36-5.14.37 4.5.36-4.75.36 4.04.36-.02.36-.11.37.11.36-.22.36-.41.36.1.37-5.28.36 4.54.36-5.1.36 4.14.36-.07.37-5.28.36 5.1.36-.43.36-.13.36-.36.37-4.89.36 4.38.36-5.06.36 4.15.36.16.37-4.85.36 4.27.36-4.53.36 3.87.36.22.37.28.36-.46.36-4.98.36 3.93.37.27.36-4.94.36 4.61.36-5.05.36 4.37.37.3.36-.32.36-.13.36-.32.36-.35.37-.09.36-5.17.36 4.96.36-5.19.36 4.38.37-.27.36-5.06.36 4.78.36.21.37-.08.36-.36.36-4.96.36 3.77.36-4.33.37 4.43.36-.07.36-5.05.36 4.54.36-4.66.37 4.01.36-.08.36.19.36.29.36-5.04.37 3.9.36.91.36-5.85.36 4.88.36-4.7.37 4.66.36.1.36-.61.36.27h.37l.36-.35.36.1.36-5.24.36 4.72.37-4.98.36 4.37.36-4.57.36 3.55.36.63.37-.05.36.08.36.34.36-5.82.36 4.6.37-4.71.36 4.56.36-4.34.36 3.64.37.16.36-4.43.36 4.07.36.55.36.01.37-.16.36-5.06.36 4.45.36-4.18.36 3.6.37.3.36-4.7.36 4.3.36-.12.36.09.37-.15.36-.01.36-.2.36-.26.36-5.16.37 4.53.36-4.71.36 4.19.36-4.25.37 3.6.36.49.36.09.36.04.36-.13.37-5.33.36 4.94.36-4.98.36 4.52.36-3.94.37 3.62.36.31.36-5.94.36 4.15.36.45.37.49.36.03.36-4.5.36 4.22.37-4.04.36 3.37.36.43.36-4.61.36 4.23.37.14.36-.45.36.61.36-.32.36-.3.37-4.32.36 3.68.36.64.36-4.78.36 4.01.37-4.54.36 3.91.36.06.36.05.37-.07.36-4.43.36 3.47.36.42.36-4.85.37 4.12.36-4.1.36 3.86.36.46.36-4.72.37 4.4.36.02h.36l.36.08.36-5.1.37 4.48.36-4.54.36 3.99.36.17.36-4.22.37 3.91.36.38.36-.04h.36l.37-.17.36.25.36-4.64.36 3.4.36.64.37-5.02.36 4.82.36-4.81.36 3.87.36.11.37.3.36-.11.36-4.51.36 4.12.36.2.37-4.64.36 3.91.36-4.27.36 3.91.37.63.36-4.57.36 4.23.36.45.36-.21.37.08.36-5.13.36 4.77.36-4.54.36 3.76.37.16.36-4.72.36 4.75.36-.6.36.13.37.13.36.06.36.15.36-4.58.36 3.52.37.95.36-5.26.36 4.55.36-4.01.37 3.88.36.26.36.09.36-.06.36-4.54.37 3.66.36.51.36-4.64.36 4.24.36-4.44.37 3.81.36.25.36-4.46.36 4.42.36.32.37-.14.36.2.36-4.59.36 4 .37-4.25.36 3.86.36.19.36-4.74.36 4.95.37-.24.36.04.36-.32.36-.2.36.46.37-4.76.36 4.51.36-.1.36-5.03.36 4.46.37-4.45.36 4.42.36-.15.36-.01.36.08.37-4.59.36 3.91.36.79.36-5.17.37 4.84.36-4.54.36 4.07.36.16.36-4.38.37 4.44.36-.01.36-.29.36.46.36-4.87.37 4.36.36-4.86.36 4.44.36.1.36-4.58.37 4.77.36-.2.36.05.36.07.37.43.36-.21.36-5.03.36 4.28.36.32.37-4.78.36 4.59.36-4.38.36 3.8.36.3.37.29.36.02.36-4.91.36 4.15.36.38.37-4.92.36 4.48.36-4.33.36 3.86.37.33.36-4.6.36 4.8.36.21.36-.27.37-.06.36-4.81.36 4.59.36-4.61.36 4.11.37.27.36-4.98.36 4.93.36-.11.36.44.37-.03.36.06.36-.03.36-5.13.36 4.5.37.18.36-5.22.36 4.73.36-4.27.37 4 .36.51.36.1.36-.14.36-4.68.37 4.44.36-.06.36-4.93.36 4.68.36-4.31.37 4.39.36-.16.36-4.96.36 4.99.36-.15.37.01.36.23.36-4.64.36 4 .37-4.51.36 4.58.36.25.36-4.96.36 4.79.37.2.36-.07h.36l.36.17.36.01.37-4.69.36 4.06.36.12.36-4.83.36 4.82.37-4.76.36 4.48.36-.22.36.26.36-.06.37-4.49.36 4.23.36.1.36-4.63.37 4.12.36-3.9.36 4 .36.41.36-4.87.37 4.4.36.15.36.43.36-.12.36-4.85.37 4.34.36-4.32.36 4.33.36.05.36-4.36.37 4.52.36-.15.36.26.36.09.37-.37.36.13.36-4.85.36 4.42.36.48.37-5.26.36 4.89.36-4.97.36 4.6.36.1.37.25.36-.43.36-4.26.36 4.2.36.33.37-5.2.36 4.83.36-4.32.36 4.19.37.31.36-4.76.36 4.4.36.07.36.18.37.05.36-4.84.36 4.39.36-4.67.36 4.31.37.33.36-4.98.36 4.9.36.19.36.07.37-.34.36-.17.36.23.36-4.45.36 4.18.37.46.36-5.01.36 4.61.36-4.35.37 4.05.36.06.36.26.36.32.36-4.58.37 3.72.36.38.36-4.76.36 4.48.36-4.22.37 4.2.36-3.89.36 3.59.36.51.36.1.37.06.36-.29.36-4.76.36 4.57.37-4.09.36 3.95.36-3.77.36 3.1.36.47.37.53.36-.1.36.36.36-.43.36.16.37-4.85.36 4.36.36-3.84.36 3.35.36.42.37-4.34.36 4.11.36.21.36.21.36-.23.37-4.51.36 4.41.36.31.36-4.84.37 4.67.36-4.73.36 4.29.36-3.51.36 3.61.37.19.36.04.36-.03.36.31.36-5.26.37 5.1.36-4.64.36 3.94.36-4.21.36 4.07.37.19.36.55.36-.24.36.53.37-.25.36.05.36-4.92.36 4 .36-3.99.37 4.05.36.28.36-5.06.36 4.79.36.43.37-.24.36.48.36-4.95.36 4.07.36-4.38.37 3.96.36.91.36-5.02.36 4.42.36-3.86.37 3.84.36.45.36-.04.36.01.37-4.52.36 3.99.36.44.36-4.53.36 4.34.37-4.23.36 3.45.36 1.34.36.39.36-.05.37.43.36-.98.36.34.36-4.42.36 4.38.37-4.17.36 3.9.36.46.36-4.79.37 4.27.36.38.36.12.36.11.36-4.82.37 4.22.36-4.66.36 3.92.36.25.36-4.57.37 4.09.36-4.15.36 3.56.36.65.36-.05.37.56.36-4.53.36 3.76.36.44.37-4.81.36 4.3.36-4.2.36 4.31.36.33.37.31.36-.17.36.16.36-.16.36.35.37-5.06.36 4.22.36-4.05.36 3.82.36.24.37-4.62.36 4.8.36-.29.36.29.36-.01.37-4.56.36 4.08.36-3.99.36 4.06.37.15.36-4.56.36 4.7.36-4.26.36 3.9.37.28.36-.12.36-.13.36-3.78.36 3.36.37.4.36-4.78.36 4.92.36-4.68.36 4.28.37.79.36-.4.36.04.36.22.37.05.36-.23.36-4.48.36 4.13.36-3.72.37 3.8.36.55.36-4.76.36 4.51.36.81.37-.3.36.02.36-4.59.36 4.51.36-4.18.37 3.69.36.19.36-5.02.36 4.35.36-3.78.37 3.96.36-.23.36.37.36-.2.37-4.34.36 3.89.36.36.36-4.63.36 4.36.37-4.18.36 3.87.36.14.36.52.36.03.37-.43.36-.09.36.2.36-4.76.36 4.65.37-3.9.36 3.48.36.48.36-4.46.37 4.61.36.18.36.08.36-.55.36-4.79.37 4.83.36-4.09.36 3.87.36.11.36-4.73.37 4.46.36-4.53.36 4.5.36.29.36-.17.37.45.36-4.07.36 3.39.36.11.36-4.43.37 4.64.36-4.52.36 4.48.36.24.37.12.36-.11.36-.02.36-.16.36.23.37-4.95.36 4.48.36-4.15.36 3.96.36-.35.37-4.38.36 4.77.36.29.36-.24.36.47.37-4.89.36 4.32.36-4.08.36 3.93.37.22.36-4.57.36 4.36.36-4.11.36 3.94.37.6.36.32.36-.66.36-4.07.36 3.82.37.52.36-4.8.36 4.72.36-4.5.36 4.48.37.13.36.19.36-.29.36.29.37.17.36-.29.36-4.79.36 4.63.36-4.71.37 4.45.36-.12.36-4.41.36 4.2.36.35.37.22.36-.16.36-4.52.36 4.61.36-4.58.37 4.37.36.18.36-4.76.36 4.76.36-4.54.37 4.27.36.34.36.28.36-.16.37-5.03.36 4.36.36-.08.36-4.08.36 4.16.37-4.2.36 4.07.36.31.36.01.36-.17.37.15.36.08h.36l.36-4.92.36 4.63.37-4.57.36 4.18.36.56.36-4.53.37 4.74.36.01.36-.08.36-.4.36-4.5.37 4.75.36-4.6.36 4.08.36.55.36-4.86.37 4.72.36-4.51.36 4.3.36.17.36.1.37.33.36-4.57.36 3.51.36.62.36-4.88.37 4.65.36-4.63.36 4.79.36-.09.37.09.36.23.36.15.36-.66.36.5.37-5.15.36 4.61.36-4.02.36 4.27.36-.17.37-4.26.36 4.57.36.01.36.12.36-.43.37-4.33.36 3.94.36-3.81.36 4.19.37-.29.36-4.1.36 4.1.36-4.4.36 4.64.37.07.36.14.36-.19.36-4.51.36 4.26.37.23.36-4.28.36 4.59.36-4.99.36 4.59.37.44.36-.4.36.45.36-.14.36-.15.37.11.36-4.49.36 4.33.36-4.62.37 4.43.36-4.15.36 3.49.36.85.36.35.37-.43.36.47.36-5.03.36 4.99.36-4.36.37 4.76.36-4.05.36 3.47.36.4.36-4.1.37 3.88.36.46.36.31.36-.01.37-5 .36 4.72.36-4.11.36 3.15.36 1.02.37-4.62.36 4.15.36.63.36.05.36-.48.37.6.36-.26.36-.18.36-4.53.36 4.44.37-4.42.36 4.44.36-4.32.36 4.11.37.1.36-.21.36.4.36-.23.36-4.53.37 4.84.36-4.85.36 4.53.36-4.13.36 3.55.37.55.36-4.28.36 4.04.36.26.36.64.37-.11.36-4.97.36 4.05.36-3.8.36 3.72.37.73.36-4.82.36 4.18.36-.06.37-.25.36.08.36-.2.36.17.36-4.09.37 3.28.36.73.36-4.75"/><use xlink:href="#1f1b9__d" color="violet" transform="matrix(3.75 0 0 3.75 182.98 91.23)"/><use xlink:href="#1f1b9__d" color="violet" transform="matrix(3.75 0 0 3.75 220.55 22.51)"/></g><path fill="none" d="M28 45.01V162.5M371.99 45.01H28" color="#000"/></svg>