<svg xmlns="http://www.w3.org/2000/svg" xmlns:xlink="http://www.w3.org/1999/xlink" viewBox="0 0 400 200"><path fill="none" d="M0 0h400v200H0z"/><defs><path id="d2e28__b" stroke="currentColor" stroke-width=".267" d="M-1-1h2v2h-2z"/><path id="d2e28__a" stroke="currentColor" stroke-width=".267" d="m0-1.33-1.33 2h2.66z"/><path id="d2e28__f" stroke="currentColor" stroke-width=".267" d="M0 1.33 1.265.411.782-1.067l-1.564-.009-.483 1.487z"/><use xlink:href="#d2e28__a" id="d2e28__d" fill="currentColor" stroke="none"/><use xlink:href="#d2e28__b" id="d2e28__c" stroke="currentColor" transform="rotate(45)"/><use xlink:href="#d2e28__c" id="d2e28__e" fill="currentColor" stroke="none"/></defs><path fill="none" stroke="#CCC" stroke-linecap="round" stroke-linejoin="round" stroke-width=".1" d="M46.1 162.5V45.01" class="d2e28__gridline" color="#000"/><g fill="none" stroke-linecap="round" stroke-linejoin="round" stroke-width="0" color="#000"><path d="M46.1 162.5V155m0-109.99v7.5"/><text fill="#000" font-family="KaTeX_Main" font-size="8" text-anchor="middle" transform="translate(46.1 172.6)"><tspan> 1</tspan></text></g><path fill="none" stroke="#CCC" stroke-linecap="round" stroke-linejoin="round" stroke-width=".1" d="M82.31 162.5V45.01" class="d2e28__gridline" color="#000"/><g fill="none" stroke-linecap="round" stroke-linejoin="round" stroke-width="0" color="#000"><path d="M82.31 162.5V155m0-109.99v7.5"/><text fill="#000" font-family="KaTeX_Main" font-size="8" text-anchor="middle" transform="translate(82.31 172.6)"><tspan> 2</tspan></text></g><path fill="none" stroke="#CCC" stroke-linecap="round" stroke-linejoin="round" stroke-width=".1" d="M118.52 162.5V45.01" class="d2e28__gridline" color="#000"/><g fill="none" stroke-linecap="round" stroke-linejoin="round" stroke-width="0" color="#000"><path d="M118.52 162.5V155m0-109.99v7.5"/><text fill="#000" font-family="KaTeX_Main" font-size="8" text-anchor="middle" transform="translate(118.52 172.6)"><tspan> 3</tspan></text></g><path fill="none" stroke="#CCC" stroke-linecap="round" stroke-linejoin="round" stroke-width=".1" d="M154.73 162.5V45.01" class="d2e28__gridline" color="#000"/><g fill="none" stroke-linecap="round" stroke-linejoin="round" stroke-width="0" color="#000"><path d="M154.73 162.5V155m0-109.99v7.5"/><text fill="#000" font-family="KaTeX_Main" font-size="8" text-anchor="middle" transform="translate(154.73 172.6)"><tspan> 4</tspan></text></g><path fill="none" stroke="#CCC" stroke-linecap="round" stroke-linejoin="round" stroke-width=".1" d="M190.94 162.5V45.01" class="d2e28__gridline" color="#000"/><g fill="none" stroke-linecap="round" stroke-linejoin="round" stroke-width="0" color="#000"><path d="M190.94 162.5V155m0-109.99v7.5"/><text fill="#000" font-family="KaTeX_Main" font-size="8" text-anchor="middle" transform="translate(190.94 172.6)"><tspan> 5</tspan></text></g><path fill="none" stroke="#CCC" stroke-linecap="round" stroke-linejoin="round" stroke-width=".1" d="M227.15 162.5V45.01" class="d2e28__gridline" color="#000"/><g fill="none" stroke-linecap="round" stroke-linejoin="round" stroke-width="0" color="#000"><path d="M227.15 162.5V155m0-109.99v7.5"/><text fill="#000" font-family="KaTeX_Main" font-size="8" text-anchor="middle" transform="translate(227.15 172.6)"><tspan> 6</tspan></text></g><path fill="none" stroke="#CCC" stroke-linecap="round" stroke-linejoin="round" stroke-width=".1" d="M263.36 162.5V45.01" class="d2e28__gridline" color="#000"/><g fill="none" stroke-linecap="round" stroke-linejoin="round" stroke-width="0" color="#000"><path d="M263.36 162.5V155m0-109.99v7.5"/><text fill="#000" font-family="KaTeX_Main" font-size="8" text-anchor="middle" transform="translate(263.36 172.6)"><tspan> 7</tspan></text></g><path fill="none" stroke="#CCC" stroke-linecap="round" stroke-linejoin="round" stroke-width=".1" d="M299.57 162.5V45.01" class="d2e28__gridline" color="#000"/><g fill="none" stroke-linecap="round" stroke-linejoin="round" stroke-width="0" color="#000"><path d="M299.57 162.5V155m0-109.99v7.5"/><text fill="#000" font-family="KaTeX_Main" font-size="8" text-anchor="middle" transform="translate(299.57 172.6)"><tspan> 8</tspan></text></g><path fill="none" stroke="#CCC" stroke-linecap="round" stroke-linejoin="round" stroke-width=".1" d="M335.78 162.5V45.01" class="d2e28__gridline" color="#000"/><g fill="none" stroke-linecap="round" stroke-linejoin="round" stroke-width="0" color="#000"><path d="M335.78 162.5V155m0-109.99v7.5"/><text fill="#000" font-family="KaTeX_Main" font-size="8" text-anchor="middle" transform="translate(335.78 172.6)"><tspan> 9</tspan></text></g><path fill="none" stroke="#CCC" stroke-linecap="round" stroke-linejoin="round" stroke-width=".1" d="M371.99 162.5V45.01" class="d2e28__gridline" color="#000"/><g fill="none" stroke-linecap="round" stroke-linejoin="round" stroke-width="0" color="#000"><path d="M371.99 162.5V155m0-109.99v7.5"/><text fill="#000" font-family="KaTeX_Main" font-size="8" text-anchor="middle" transform="translate(371.99 172.6)"><tspan> 10</tspan></text></g><g fill="none" stroke-linecap="round" stroke-linejoin="round" stroke-width="0" color="#000"><path d="M371.99 162.5h-7.5"/><text fill="#000" font-family="KaTeX_Main" font-size="8" transform="translate(378.99 165.1)"><tspan>0.00</tspan></text></g><g fill="none" stroke-linecap="round" stroke-linejoin="round" stroke-width="0" color="#000"><path d="M371.99 145.72h-7.5"/><text fill="#000" font-family="KaTeX_Main" font-size="8" transform="translate(378.99 148.32)"><tspan>2.00</tspan></text></g><g fill="none" stroke-linecap="round" stroke-linejoin="round" stroke-width="0" color="#000"><path d="M371.99 128.93h-7.5"/><text fill="#000" font-family="KaTeX_Main" font-size="8" transform="translate(378.99 131.53)"><tspan>4.00</tspan></text></g><g fill="none" stroke-linecap="round" stroke-linejoin="round" stroke-width="0" color="#000"><path d="M371.99 112.15h-7.5"/><text fill="#000" font-family="KaTeX_Main" font-size="8" transform="translate(378.99 114.75)"><tspan>6.00</tspan></text></g><g fill="none" stroke-linecap="round" stroke-linejoin="round" stroke-width="0" color="#000"><path d="M371.99 95.36h-7.5"/><text fill="#000" font-family="KaTeX_Main" font-size="8" transform="translate(378.99 97.96)"><tspan>8.00</tspan></text></g><g fill="none" stroke-linecap="round" stroke-linejoin="round" stroke-width="0" color="#000"><path d="M371.99 78.58h-7.5"/><text fill="#000" font-family="KaTeX_Main" font-size="8" transform="translate(378.99 81.18)"><tspan>10.00</tspan></text></g><g fill="none" stroke-linecap="round" stroke-linejoin="round" stroke-width="0" color="#000"><path d="M371.99 61.79h-7.5"/><text fill="#000" font-family="KaTeX_Main" font-size="8" transform="translate(378.99 64.39)"><tspan>12.00</tspan></text></g><g fill="none" stroke-linecap="round" stroke-linejoin="round" stroke-width="0" color="#000"><path d="M371.99 45.01h-7.5"/><text fill="#000" font-family="KaTeX_Main" font-size="8" transform="translate(378.99 47.61)"><tspan>14.00</tspan></text></g><path fill="none" d="M28 45.01V162.5M371.99 45.01H28" color="#000"/><text stroke-linecap="round" stroke-linejoin="round" stroke-width="0" color="#000" font-family="KaTeX_Main" font-size="10" text-anchor="middle" transform="rotate(-90 57.63 46.13)"><tspan font-weight="bold">Rotations</tspan><tspan> / Operations</tspan></text><text stroke-linecap="round" stroke-linejoin="round" stroke-width="0" color="#000" font-family="KaTeX_Main" font-size="10" text-anchor="middle" transform="translate(199.99 195.75)"><tspan>Operations / 10</tspan><tspan dy="-5" font-size="8">6</tspan></text><text stroke-linecap="round" stroke-linejoin="round" color="#000" font-family="KaTeX_Main" font-size="8" transform="translate(132.8 10.11)"><tspan>Splay</tspan></text><g fill="none" stroke="currentColor" stroke-linecap="round" stroke-linejoin="round" color="#000"><path stroke="#29C3F6" d="M97.3 7.51h29.9M28 58.82l.36.06.36-.15.37.65.36.22.36-.52.36.1.36.17.37-.01.36-.39.36.16.36.06.37-.14.36.31.36.08.36-.23.36.36.37-.87.36.87.36-.44.36-.17.36.15.37.08.36-.09.36-.5.36.96.36-.41.37.21.36-.17.36.05.36-.03.36-.25.37.41.36.15.36-.83.36.84.37-.36.36.34.36-.52.36-.38.36.78.37-.14.36.21.36-.25.36.34.36.05.37-.34.36-.06.36.18.36-.05.36-.27.37-.1.36.53.36-.29.36.3.37-1.06.36 1.14.36-.37.36-.47.36.75.37-.22.36.06.36.01.36.49.36.06.37-.69.36-.43.36.87.36-.48.36-.21.37.22.36.02.36-.53.36.13.37.57.36-.02.36-.34.36.11.36-.21.37.09.36-.23.36.4.36.02.36.33.37-.4.36.05.36-.14.36.29.36-.01.37.02.36.19.36-.61.36.04h.36l.37.41.36.12.36.13.36-.06.37-.53.36-.24.36.82.36-.4.36-.5.37 1.29.36-1.27.36.73.36-.33.36-.6.37 1.07.36-.43.36.09.36-.28.36.39.37.16.36.16.36-.24.36-.26.37.34.36-.8.36.69.36-.5.36.4.37-.01.36.05.36.01.36-.23.36-.04.37.91.36-.46.36-.42.36.13.36-.06.37.28.36.26.36-.37.36-.31.36.19.37-.28.36.56.36-.16.36-.71.37.45.36.23.36-.42.36.25.36-.23.37.42.36.11.36-.62.36.09.36-.1.37.28h.36l.36.29.36-.1.36-.28.37-.01.36.05.36.13.36-.31.37.89.36-.61.36.1.36.01.36.41.37-.12.36-.13.36-.42.36.48.36-.02.37-.45.36.12.36.24.36.16.36.07.37.2.36-.6.36-.52.36.54.36.17.37.35.36-.31.36-.33.36.63.37-.56.36-.37.36-.05.36.31.36.15.37-.06.36-.3.36.28.36.03.36.39.37-.25.36-.07.36-.04.36-.21.36.18.37.51.36-.2.36-.11.36-.37h.37l.36.51.36.15.36-.43.36.14.37-.33.36-.26.36.12.36.94.36-.99.37.41.36.03.36-.32.36-.12.36.37.37.06.36-.21.36-.09.36.79.37-.69.36.17.36-.09.36.19.36.1.37-.25.36-.37.36.6.36-.22.36.15.37-.27.36.25.36-.02.36-.09.36.38.37.17.36-.67.36.29.36-.12.36-.3.37.61.36-.33.36.34.36-.4.37-.28.36.11.36.73.36-.81.36-.11.37.66.36-.51.36.11.36.17.36.35.37-.24.36.31.36-.62.36.14.36-.03.37-.2.36.24.36.1.36-.31.37.09.36.21.36-.23.36-.13.36.12.37.05.36-.27.36.84.36-.36.36.46.37.11.36-.74.36-.56.36.6.36.13.37-.91.36 1.04.36-.53.36-.18.36.48.37.36.36-.72.36.11.36.31.37-.13.36.35.36-.53.36-.34.36.69.37.23.36-.41.36.02.36.35.36-.49.37.22.36.17.36-.27.36-.33.36.69.37-.42.36.38.36-.81.36 1.22.37-.79.36-.33.36.35.36-.04.36.06.37.1.36.72.36-1.06.36.17.36.71.37-.69.36.32.36-.39.36.03.36.1.37-.06.36.33.36.21.36-.53.36-.07.37-.16.36-.42.36 1.1.36-.19.37-.29.36.18.36.26.36.16.36-.06.37-.39.36-.44.36.24.36-.02.36.48.37-.41.36.02.36.36.36-.05.36-.17.37.14.36-.26h.36l.36-.19.37.39.36-.39.36.26.36.37.36-.21.37.22.36-.72.36.2.36-.04.36.24.37-.28.36-.16.36.63.36-.4.36.32.37-.28.36.33.36.08.36-.33.37-.44.36.49.36-.07.36.01.36.3.37-.36.36.35.36-.08.36.08.36-.26.37-.11.36.3.36.32.36-.81.36.54.37-.18.36-.44.36.26.36.34.36-.15.37-.26.36.38.36.52.36-.46.37.17.36-.25.36-.14.36-.06.36.15.37-.33.36.97.36-1.15.36.37.36-.09.37.37.36-.33.36-.23.36.14.36.17h.37l.36.37.36-.38.36-.07.37.09.36.32.36-.31.36.3.36.02.37.04.36-.06.36-.29.36.35.36-.48.37.48.36-.6.36.73.36-.23.36-.77.37.64.36-.3.36.18.36-.34.36.12.37.35.36-.32.36.25.36-.17h.37l.36.33.36.18.36-.44.36.07.37-.32.36-.07.36.28.36-.43.36.31.37-.16.36.28.36.13.36-.36.36-.21.37.78.36.62.36-.57.36.19.37-.23.36.15.36-.85.36.4.36.18.37.22.36-.26.36-.23.36-.21.36-.15.37.21.36.75.36-.24.36-.76.36.78.37-.35.36.31.36-.47.36.05.37-.08.36.91.36-.33.36-.3.36-.08.37-.49.36 1.07.36-.23.36-.65.36.06.37.53.36.09.36-.48.36.15.36.48.37-.42.36-.02.36.14.36.03.36-.21.37-.34.36.19.36.06.36.19.37.05.36.2.36-.75.36.3.36.47.37-.88.36.21.36.26.36.38.36-.21.37-.35.36.04.36.97.36-.72.36-.21.37.46.36-.29.36-.06.36.07.37-.4.36.59.36.07.36-.68.36.14.37.44.36-.39.36-.07.36.42.36-.82.37.6h.36l.36.12.36-.06.36-.23.37.36.36-.07.36-.21.36.5.36-.22.37.14.36-.72.36.38.36-.29.37.49.36.37.36-.38.36-.39.36-.44.37.86.36.1.36-.49.36-.23.36 1.2.37-.6.36-.76.36.96.36-.47.36-.09.37.74.36-.99.36.96.36-.13.37-.66.36.39.36-.03.36-.19h.36l.37.02.36-.07.36-.25.36.31.36-.04.37.16.36-.09.36-.37.36.21.36.14.37.5.36-.19.36-.3.36.29.36-.44.37.11.36.13.36.29.36-.51.37.93.36-.4.36-.05.36-.44.36.67.37-.64.36-.06.36.8.36-.53.36.06.37.42.36-.15.36-.49.36-.05.36-.15.37.62.36-.24.36-.5.36.47.37.3.36-.34.36.18.36-1.01.36.26.37.91.36-.87.36.81.36-.5.36-.24.37.23.36.18.36-.24.36.31.36-.16.37.34.36-.16.36-.19.36.88.37-.95.36-.04.36.57.36-.22.36-.46.37.32.36.23.36-.29.36.28.36-.11.37-.08.36.28.36-.39.36.32.36.24.37-.67.36.68.36.03.36-.35.36.48.37-.35.36-.17.36.06.36.19.37-.33.36.39.36-.74.36.16.36.12.37.15.36.06.36-.08.36.65.36-.96.37.22.36.34.36-.19.36.38.36-.17.37-.34.36.43.36-.47.36.27.37-.07.36-.04.36.23.36-.36.36.49.37-.73.36.72.36-.28.36-.16.36.3.37-.02.36.15.36-.45.36.19.36.06.37-.03.36-.56.36.2.36.14.36-.15.37.06.36.43.36-.17.36.22.37-.11.36-.33.36-.1.36.03.36.34.37-.43.36.33.36.42.36-.96.36.36.37.35.36-.65.36.26.36.19.36-.36.37.68.36-.27.36.3.36-.29.37.55.36-1.1.36.56.36.04.36-.53.37.62.36-.79.36 1.25.36-.42.36-.07.37-.14.36.23.36-.31.36.18.36-.47.37.41.36-.91.36.71.36-.25.36.55.37-.11.36.13.36.12.36-.75.37-.08.36.5.36-.13.36.2.36-.65.37.78.36-.24.36-.18.36.07.36.22.37-.26.36.06.36-.01.36.14.36.3.37-.35.36.11.36-.14.36.15.37.02.36.34.36-.73.36.76.36-.43.37.26.36-.52.36.18.36-.63.36.46.37.02.36.26.36.02.36.01.36.11.37-.1.36-.45.36.38.36-.15.37.48.36.16.36-.81.36.11.36.28.37-.58.36.64.36-.56.36.2.36.1.37.49.36-.65.36-.22.36.66.36-.1.37.39.36-.28.36.01.36-.51.36.32.37-.08.36.29.36-.53.36.39.37.2.36-.26.36-.21.36.03.36-.13.37.34.36-.08.36.71.36-.99.36.66.37.34.36-.25.36-.47.36-.35.36.74.37-.64.36.16.36.05.36.26.37-.09.36.13.36-.47.36.07.36-.09.37.36.36-.5.36.35.36-.3.36.31.37.19.36-.01.36-.45.36.31.36.27.37-.16.36.33.36-.34.36.01.36-.07.37-.07.36.2.36.18.36-.1.37-.3.36.17.36.21.36-.11.36-.32.37-.16.36-.04.36.76.36-1.02.36.47.37-.12.36.53.36-.09.36-.75.36.46.37.04.36.11.36.22.36-.89.37.06.36.61.36-.11.36-.61.36.42.37.44.36-.09.36-.48.36.23.36-.02.37-.09.36.28.36.2.36-.14.36-.46.37.41.36.29.36-.5.36-.13.36.2.37.03.36-.23.36-.01.36.36.37-.18.36.03.36-.52.36.37.36.11.37-.02.36.33.36-.4.36-.2.36.23.37.49.36-.29.36.17.36-.45.36.41.37-.64.36.14.36.43.36.16.37-.52.36.33.36-.17.36-.47.36.11.37.4.36-.15.36.49.36-.07.36-.63.37.34.36-.18.36.01.36 1.08.36-.94.37-.35.36.46.36-.18.36.13.37-.53.36.51.36-.26.36.37.36.06.37-.1.36-.22.36.49.36-.5.36.07.37.44.36-.35.36.37.36-.18.36-.06.37-.03.36.18.36-.15.36-.28.36-.19.37.88.36-1.09.36.51.36.41.37-.11.36-.17.36-.17h.36l.36.7.37-1.19.36.33.36.2"/><use xlink:href="#d2e28__b" color="#29C3F6" transform="matrix(3.75 0 0 3.75 354.25 59.26)"/><use xlink:href="#d2e28__b" color="#29C3F6" transform="matrix(3.75 0 0 3.75 112.25 7.51)"/></g><text stroke-linecap="round" stroke-linejoin="round" stroke-width=".5" color="#000" font-family="KaTeX_Main" font-size="8" transform="translate(132.8 25.11)"><tspan>AVLBottomUp</tspan></text><g fill="none" stroke="currentColor" stroke-linecap="round" stroke-linejoin="round" stroke-width=".5" color="#000"><path stroke="#000" d="M97.3 22.51h29.9M28 156.78l.36-.26.36.17.37-.08.36.01.36.02.36-.01.36.06.37.05.36-.09.36.04.36-.09.37.01.36.01.36.06.36-.1.36-.02.37.07.36-.03.36.1.36-.17.36.08.37.04.36.02.36-.02.36-.03.36-.07h.73l.36.01.36.12.36.08.37-.1.36.04.36-.08.36-.02.37-.01.36-.1.36.15.36-.13.36.1.37-.04.36.03.36.08.36-.03.36.17.37-.23.36-.03.36.14.36-.11.36.07.37 1.6.36-.01.36.09.36.01.37-.02.36-.01.36.07.36-.02.36.03.37-.06.36-.05.36.13.36-.08.36.08.37-.01.36-.11.36.06.36.08.36-.1.37.03.36-.06.36.17.36-.19.37-.01.36.11.36-.09.36.15.36-.04.37-.05.36-.04.36.03.36.09.36-.02.37-.1.36-.01.36.03.36.03.36-.14.37.09.36.14.36-.1.36-.06.36.01.37-.02.36.05h.72l.37-.02.36-.06.36.15.36-.12.36.17.37-.11.36.06.36-.03.36-.02.36.08.37-.04.36-.11.36.08.36-.09.36.08.37.06.36-.1.36.12.36-.03.37-.01.36-.11.36.09.36-.08.36.11.37-.1.36.06.36-.08.36.04.36.09.37-.1.36-.01.36.06.36-.06.36-.02.37.12.36-.11.36.13.36-.12.36.03.37.06h.36l.36.05.36-.14.37-.01.36.09.36-.04.36.03.36-.07.37.11.36.02.36-.08.36-.01.36.05.37.01.36.11.36-.2.36.02.36-.04.37.11.36-.05.36-.03.36-.05.37.06.36-.03.36.12.36-.05.36-.1.37.1.36-.11.36.15.36-.08.36.05.37.07.36-.06.36-.1.36.02.36.2.37-.16.36-.06.36.08.36.17.36-.13.37.06.36-.14.36.11.36-.06.37.06.36-.15.36.16.36-.2.36.09.37.09.36-.09.36.07.36.02.36-.12.37-.01.36.08h.36l.36.06.36-.02.37-.06.36-.03.36-.14.36.11.37.13.36-.02.36-.06.36-.02.36.08.37-.09.36.05.36.07.36-.09.36.05.37-.02h.36l.36-.1.36.05.36.1.37-.15.36.17.36-.18.36.1.37-.05.36.08.36-.1.36.12.36-.11.37-.01.36-.05.36.04.36.1.36-.08.37.02.36.04.36-.11.36.08.36-.08h.37l.36.13.36.05.36-.12.36.02.37.05.36.03.36-.06.36-.12.37.19.36-.02h.36l.36-.07.36.03h.37l.36.06.36-.09.36.08.36.03.37-.11.36-.03.36.08.36-.16.36.03h.37l.36.19.36-.18.36.06.37.04.36.06.36.04.36-.06.36-.05.37.01.36.08.36-.14.36.13.36-.02.37-.08.36-.03.36.09.36-.1.36.15.37-.1.36-.01.36.07.36-.02.36-.06h.37l.36-.01.36.03.36.08.37-.1.36.06.36-.02.36-.18.36.24.37.05.36-.19.36.08.36.03.36-.06.37.11.36-.15.36.01.36.04.36-.02.37.18.36-.04.36-.15h.36l.37.11h.36l.36-.17.36.11.36-.18.37.2.36-.11.36.04.36.06.36-.03.37.13.36-.19.36.24.36-.16.36-.11.37.08.36.1.36-.18.36.05.36.1.37-.04.36-.09.36.13.36.01.37-.14.36.05.36.03.36-.08.36.13.37-.03.36-.04.36.1.36-.05.36-.04.37-.09.36.3.36-.17.36-.05.36.09.37-.1.36.13.36-.03.36.03.37-.13.36.06.36.04.36-.17.36.08.37-.12.36.15h.36l.36-.02.36-.02.37.02.36.05.36-.05.36-.03.36.07.37-.06.36.01.36.06h.36l.37-.08.36.06.36-.04.36-.08.36.12.37.08.36-.22.36.07.36.1.36.03.37-.03.36-.1.36.01.36.01h.36l.37.13.36-.09.36-.07.36.05.36.06.37-.16.36.11.36.04h.73l.36-.05.36.08h.36l.36-.01.37-.06.36.05h.36l.36-.04.36-.14.37.16.36-.05.36.11.36-.11.36-.03.37.06.36-.06.36-.04.36.04.37-.04.36.03.36.1.36-.01.36-.09.37.23.36-.14h.36l.36.01.36-.05.37-.12.36.15.36-.06.36.01.36-.07.37.16.36-.08.36-.07.36.06.36.12.37-.1.36-.06.36-.01.36.07.37-.13.36.21.36.03.36-.22.36.13.37.16.36-.16.36.1.36-.17.36.08.37-.03.36.06.36-.07.36-.01.36.01.37.07.36-.04.36-.12.36.12.37-.03.36.05.36.01.36-.03.36-.03.37.01.36-.11.36.08.36-.04.36.11.37-.08.36.05.36-.03h.36l.36.03.37-.05.36.07.36.03.36.01.37-.06.36.05.36-.09.36.05.36-.05.37.05.36-.06.36.1.36-.13.36-.02.37.08h.72l.36.19.36-.09.37-.14.36.05.36-.05.36.16.36-.23.37.06.36.07.36.03.36-.05h.37l.36.07.36-.05.36-.05.36.07.37-.09.36.05.36.14.36-.13.36-.01.37-.07.36.03.36.05.36.07.36-.08.37.09.36-.15.36.09.36-.06.37.15.36-.08.36-.17.36.14.36.07.37-.06.36-.06.36.1.36-.1.36.02.37-.04.36.12.36-.05.36.05.36-.07.37.07.36.01.36-.06.36-.03.36.03.37.04.36-.09.36.02.36.05.37-.01.36-.06.36.02.36.08.36.01.37-.05.36-.02.36.01.36.03.36-.11.37.07.36.02.36-.03.36.11.36-.03.37.02.36-.23.36.1.36.04.37-.04.36.05.36.06.36.06.36-.05.37-.17.36.05.36.06.36-.09.36.14.37.03.36-.09.36-.01.36-.07.36.11.37.01.36-.01.36-.07.36.07.36-.1.37-.01.36.11.36-.02.36-.1.37-.01.36.11.36.06.36-.03.36-.13.37.07.36-.02.36.04.36-.1.36.12.37.09.36-.1h.36l.36.17.36-.2.37.07.36.03.36-.05.36-.12.37.11.36-.05.36.14.36-.16.36.16.37-.15.36.08.36-.09.36.1.36.02.37-.23.36.19.36.02.36-.05.36.02.37.04.36-.03.36.04.36-.16.37.07.36.01.36.05.36-.1.36-.02h.37l.36.08.36.03.36-.02.36.05.37-.05.36-.05.36.1.36.02.36.01.37-.08.36-.01.36-.01.36-.03.36.06h.37l.36.02.36-.16.36.15.37.04.36-.11.36-.04.36-.03.36.11h.37l.36-.12.36.29.36-.17.36.05.37-.06.36-.1.36.06.36.11.36-.06.37-.09.36.11.36-.02.36-.13.37.17.36-.02.36-.1.36.04.36.05.37-.07.36.04.36.04.36-.02.36-.01.37-.08.36.1.36-.01.36-.03.36.02.37.06.36-.01.36-.12.36.06.36.1.37-.09.36.01.36-.02.36.09.37.03.36-.01.36.05.36-.18.36-.06.37.12.36.12.36-.08.36-.07h.36l.37-.07.36-.01.36.28.36-.13.36-.01.37-.01.36-.04.36.05.36-.08.37.07.36-.2.36.12.36.04.36-.02.37-.05.36.16.36-.08.36.08.36-.12.37.02.36-.04.36.11.36.02.36-.02.37-.05.36.02.36-.03.36.1.36-.07.37.02.36-.13.36.04.36.06.37-.02.36.02.36-.06.36.07.36-.03.37.07.36-.09.36.02.36-.01.36-.05.37.13.36-.13.36.04.36.08h.36l.37-.15.36.09.36.15.36-.13.37.03.36-.09.36.07.36-.11.36.14.37-.11.36-.01.36.1.36-.05.36.05.37-.2.36.16.36.02.36.03.36.03.37-.17.36.11.36-.04.36-.06.37.14.36-.13.36.04.36.05.36.03.37.04.36-.12.36.06.36-.08.36.02.37-.02.36.04.36-.14.36.14.36.09.37-.17.36.11.36-.04.36.04h.36l.37-.03.36-.11.36.2.36-.07.37.03.36-.04.36-.02.36.01.36.15.37-.23.36.09.36.07.36-.04.36-.12.37.03.36.01.36.06.36.06.36-.04.37-.03.36.07.36-.16.36.13.37-.01.36.06.36-.09.36.04.36-.12.37.04.36.01.36.06.36.03.36-.04.37.05.36-.04.36-.02.36-.01.36.03.37.01.36-.1.36.02.36-.01.36-.02.37.15.36-.13.36.1.36-.07h.37l.36.02.36.02.36-.11.36.05.37-.01.36-.02.36.04.36.08.36-.1.37.07.36.02.36.06.36-.13.36.06.37.04.36-.05.36-.04.36.07.37-.09.36-.01.36.14.36-.11.36.01.37-.07.36.17.36-.06.36.01.36.08.37-.1.36-.11.36.19.36-.06.36.05.37-.17.36.04h.36l.36.03.36-.01.37.02.36-.05.36.08.36-.02.37-.13.36.12.36.02.36.04.36-.07.37.09.36-.03.36-.01.36-.04.36-.01.37-.05.36.05.36.02.36-.01.36-.12.37.16.36-.04.36.03.36-.08.37.09.36.04.36-.04.36.05.36-.21.37.2.36-.04.36-.17.36.11.36.04.37.06.36-.11.36.04.36.04.36-.18.37.1.36.11.36-.13.36.21.37-.22.36.04.36.07.36-.07.36.03.37-.07.36.01.36.1.36.02.36-.07.37.04.36-.02.36.07.36-.11.36.15.37-.11.36.05.36-.11.36.05.36-.03.37.09.36-.03.36-.01.36-.03.37-.06.36.07.36.1.36-.09.36.13.37-.17.36.09.36-.09"/><use xlink:href="#d2e28__d" transform="matrix(3.75 0 0 3.75 67.83 158.37)"/><use xlink:href="#d2e28__d" transform="matrix(3.75 0 0 3.75 112.25 22.51)"/></g><text stroke-linecap="round" stroke-linejoin="round" color="#000" font-family="KaTeX_Main" font-size="8" transform="translate(241.1 10.11)"><tspan>LBSTRelaxed</tspan></text><g fill="none" stroke="currentColor" stroke-linecap="round" stroke-linejoin="round" color="#000"><path stroke="#FFAB00" stroke-dasharray="4.0,2.0,1.0,2.0" d="M205.6 7.51h29.9M28 162.5h343.99"/><use xlink:href="#d2e28__e" color="#FFAB00" transform="matrix(3.75 0 0 3.75 125.4 162.5)"/><use xlink:href="#d2e28__e" color="#FFAB00" transform="matrix(3.75 0 0 3.75 220.55 7.51)"/></g><text stroke-linecap="round" stroke-linejoin="round" color="#000" font-family="KaTeX_Main" font-size="8" transform="translate(241.1 25.11)"><tspan>TreapTopDown</tspan></text><g fill="none" stroke="currentColor" stroke-linecap="round" stroke-linejoin="round" color="#000"><path stroke="#00C853" stroke-dasharray="4.5,2.0,0.5,2.0,0.5,2.0" d="M205.6 22.51h29.9M28 162.5h343.99"/><use xlink:href="#d2e28__f" color="#00C853" transform="matrix(3.75 0 0 3.75 182.98 162.5)"/><use xlink:href="#d2e28__f" color="#00C853" transform="matrix(3.75 0 0 3.75 220.55 22.51)"/></g><path fill="none" d="M28 45.01V162.5M371.99 45.01H28" color="#000"/></svg>