<svg xmlns="http://www.w3.org/2000/svg" xmlns:xlink="http://www.w3.org/1999/xlink" viewBox="0 0 400 200"><path fill="none" d="M0 0h400v200H0z"/><defs><path id="63fba__b" stroke="currentColor" stroke-width=".267" d="M-1-1h2v2h-2z"/><path id="63fba__a" stroke="currentColor" stroke-width=".267" d="m0-1.33-1.33 2h2.66z"/><path id="63fba__f" stroke="currentColor" stroke-width=".267" d="M0 1.33 1.265.411.782-1.067l-1.564-.009-.483 1.487z"/><use xlink:href="#63fba__a" id="63fba__d" fill="currentColor" stroke="none"/><use xlink:href="#63fba__b" id="63fba__c" stroke="currentColor" transform="rotate(45)"/><use xlink:href="#63fba__c" id="63fba__e" fill="currentColor" stroke="none"/></defs><path fill="none" stroke="#CCC" stroke-linecap="round" stroke-linejoin="round" stroke-width=".1" d="M46.1 162.5V45.01" class="63fba__gridline" color="#000"/><g fill="none" stroke-linecap="round" stroke-linejoin="round" stroke-width="0" color="#000"><path d="M46.1 162.5V155m0-109.99v7.5"/><text fill="#000" font-family="KaTeX_Main" font-size="8" text-anchor="middle" transform="translate(46.1 172.6)"><tspan> 1</tspan></text></g><path fill="none" stroke="#CCC" stroke-linecap="round" stroke-linejoin="round" stroke-width=".1" d="M82.31 162.5V45.01" class="63fba__gridline" color="#000"/><g fill="none" stroke-linecap="round" stroke-linejoin="round" stroke-width="0" color="#000"><path d="M82.31 162.5V155m0-109.99v7.5"/><text fill="#000" font-family="KaTeX_Main" font-size="8" text-anchor="middle" transform="translate(82.31 172.6)"><tspan> 2</tspan></text></g><path fill="none" stroke="#CCC" stroke-linecap="round" stroke-linejoin="round" stroke-width=".1" d="M118.52 162.5V45.01" class="63fba__gridline" color="#000"/><g fill="none" stroke-linecap="round" stroke-linejoin="round" stroke-width="0" color="#000"><path d="M118.52 162.5V155m0-109.99v7.5"/><text fill="#000" font-family="KaTeX_Main" font-size="8" text-anchor="middle" transform="translate(118.52 172.6)"><tspan> 3</tspan></text></g><path fill="none" stroke="#CCC" stroke-linecap="round" stroke-linejoin="round" stroke-width=".1" d="M154.73 162.5V45.01" class="63fba__gridline" color="#000"/><g fill="none" stroke-linecap="round" stroke-linejoin="round" stroke-width="0" color="#000"><path d="M154.73 162.5V155m0-109.99v7.5"/><text fill="#000" font-family="KaTeX_Main" font-size="8" text-anchor="middle" transform="translate(154.73 172.6)"><tspan> 4</tspan></text></g><path fill="none" stroke="#CCC" stroke-linecap="round" stroke-linejoin="round" stroke-width=".1" d="M190.94 162.5V45.01" class="63fba__gridline" color="#000"/><g fill="none" stroke-linecap="round" stroke-linejoin="round" stroke-width="0" color="#000"><path d="M190.94 162.5V155m0-109.99v7.5"/><text fill="#000" font-family="KaTeX_Main" font-size="8" text-anchor="middle" transform="translate(190.94 172.6)"><tspan> 5</tspan></text></g><path fill="none" stroke="#CCC" stroke-linecap="round" stroke-linejoin="round" stroke-width=".1" d="M227.15 162.5V45.01" class="63fba__gridline" color="#000"/><g fill="none" stroke-linecap="round" stroke-linejoin="round" stroke-width="0" color="#000"><path d="M227.15 162.5V155m0-109.99v7.5"/><text fill="#000" font-family="KaTeX_Main" font-size="8" text-anchor="middle" transform="translate(227.15 172.6)"><tspan> 6</tspan></text></g><path fill="none" stroke="#CCC" stroke-linecap="round" stroke-linejoin="round" stroke-width=".1" d="M263.36 162.5V45.01" class="63fba__gridline" color="#000"/><g fill="none" stroke-linecap="round" stroke-linejoin="round" stroke-width="0" color="#000"><path d="M263.36 162.5V155m0-109.99v7.5"/><text fill="#000" font-family="KaTeX_Main" font-size="8" text-anchor="middle" transform="translate(263.36 172.6)"><tspan> 7</tspan></text></g><path fill="none" stroke="#CCC" stroke-linecap="round" stroke-linejoin="round" stroke-width=".1" d="M299.57 162.5V45.01" class="63fba__gridline" color="#000"/><g fill="none" stroke-linecap="round" stroke-linejoin="round" stroke-width="0" color="#000"><path d="M299.57 162.5V155m0-109.99v7.5"/><text fill="#000" font-family="KaTeX_Main" font-size="8" text-anchor="middle" transform="translate(299.57 172.6)"><tspan> 8</tspan></text></g><path fill="none" stroke="#CCC" stroke-linecap="round" stroke-linejoin="round" stroke-width=".1" d="M335.78 162.5V45.01" class="63fba__gridline" color="#000"/><g fill="none" stroke-linecap="round" stroke-linejoin="round" stroke-width="0" color="#000"><path d="M335.78 162.5V155m0-109.99v7.5"/><text fill="#000" font-family="KaTeX_Main" font-size="8" text-anchor="middle" transform="translate(335.78 172.6)"><tspan> 9</tspan></text></g><path fill="none" stroke="#CCC" stroke-linecap="round" stroke-linejoin="round" stroke-width=".1" d="M371.99 162.5V45.01" class="63fba__gridline" color="#000"/><g fill="none" stroke-linecap="round" stroke-linejoin="round" stroke-width="0" color="#000"><path d="M371.99 162.5V155m0-109.99v7.5"/><text fill="#000" font-family="KaTeX_Main" font-size="8" text-anchor="middle" transform="translate(371.99 172.6)"><tspan> 10</tspan></text></g><g fill="none" stroke-linecap="round" stroke-linejoin="round" stroke-width="0" color="#000"><path d="M371.99 155.59h-7.5"/><text fill="#000" font-family="KaTeX_Main" font-size="8" transform="translate(378.99 158.19)"><tspan>0</tspan></text></g><g fill="none" stroke-linecap="round" stroke-linejoin="round" stroke-width="0" color="#000"><path d="M371.99 141.77h-7.5"/><text fill="#000" font-family="KaTeX_Main" font-size="8" transform="translate(378.99 144.37)"><tspan>2</tspan></text></g><g fill="none" stroke-linecap="round" stroke-linejoin="round" stroke-width="0" color="#000"><path d="M371.99 127.94h-7.5"/><text fill="#000" font-family="KaTeX_Main" font-size="8" transform="translate(378.99 130.54)"><tspan>4</tspan></text></g><g fill="none" stroke-linecap="round" stroke-linejoin="round" stroke-width="0" color="#000"><path d="M371.99 114.12h-7.5"/><text fill="#000" font-family="KaTeX_Main" font-size="8" transform="translate(378.99 116.72)"><tspan>6</tspan></text></g><g fill="none" stroke-linecap="round" stroke-linejoin="round" stroke-width="0" color="#000"><path d="M371.99 100.3h-7.5"/><text fill="#000" font-family="KaTeX_Main" font-size="8" transform="translate(378.99 102.9)"><tspan>8</tspan></text></g><g fill="none" stroke-linecap="round" stroke-linejoin="round" stroke-width="0" color="#000"><path d="M371.99 86.48h-7.5"/><text fill="#000" font-family="KaTeX_Main" font-size="8" transform="translate(378.99 89.08)"><tspan>10</tspan></text></g><g fill="none" stroke-linecap="round" stroke-linejoin="round" stroke-width="0" color="#000"><path d="M371.99 72.65h-7.5"/><text fill="#000" font-family="KaTeX_Main" font-size="8" transform="translate(378.99 75.25)"><tspan>12</tspan></text></g><g fill="none" stroke-linecap="round" stroke-linejoin="round" stroke-width="0" color="#000"><path d="M371.99 58.83h-7.5"/><text fill="#000" font-family="KaTeX_Main" font-size="8" transform="translate(378.99 61.43)"><tspan>14</tspan></text></g><g fill="none" stroke-linecap="round" stroke-linejoin="round" stroke-width="0" color="#000"><path d="M371.99 45.01h-7.5"/><text fill="#000" font-family="KaTeX_Main" font-size="8" transform="translate(378.99 47.61)"><tspan>16</tspan></text></g><path fill="none" d="M28 45.01V162.5M371.99 45.01H28" color="#000"/><text stroke-linecap="round" stroke-linejoin="round" stroke-width="0" color="#000" font-family="KaTeX_Main" font-size="10" text-anchor="middle" transform="rotate(-90 57.63 46.13)"><tspan>log</tspan><tspan dy="3" font-size="8">2</tspan><tspan dy="-3">(</tspan><tspan font-weight="bold">Average Path Length </tspan><tspan> / log</tspan><tspan dy="3" font-size="8">2</tspan><tspan dy="-3">(Size))</tspan></text><text stroke-linecap="round" stroke-linejoin="round" stroke-width="0" color="#000" font-family="KaTeX_Main" font-size="10" text-anchor="middle" transform="translate(199.99 195.75)"><tspan>Operations / 10</tspan><tspan dy="-5" font-size="8">6</tspan></text><text stroke-linecap="round" stroke-linejoin="round" color="#000" font-family="KaTeX_Main" font-size="8" transform="translate(132.8 10.11)"><tspan>Splay</tspan></text><g fill="none" stroke="currentColor" stroke-linecap="round" stroke-linejoin="round" color="#000"><path stroke="#29C3F6" d="M97.3 7.51h29.9M28 77.02l.36-.18.36-.18.37-.18.36-.17.36-.17.36-.16.36-.16.37-.17.36-.15.36-.16.36-.15.37-.15.36-.15.36-.14.36-.15.36-.14.37-.13.36-.14.36-.14.36-.13.36-.13.37-.13.36-.13.36-.12.36-.13.36-.12.37-.12.36-.12.36-.11.36-.12.36-.12.37-.11.36-.11.36-.11.36-.11.37-.11.36-.11.36-.1.36-.11.36-.1.37-.1.36-.1.36-.1.36-.1.36-.1.37-.1.36-.09.36-.1.36-.09.36-.09.37-.09.36-.1.36-.09.36-.09.37-.08.36-.09.36-.09.36-.08.36-.09.37-.08.36-.09.36-.08.36-.08.36-.08.37-.08.36-.09.36-.07.36-.08.36-.08.37-.08.36-.08.36-.07.36-.08.37-.07.36-.08.36-.07.36-.07.36-.08.37-.07.36-.07.36-.07.36-.07.36-.07.37-.07.36-.07.36-.07.36-.07.36-.06.37-.07.36-.07.36-.06.36-.07.36-.06.37-.07.36-.06.36-.06.36-.07.37-.06.36-.06.36-.07.36-.06.36-.06.37-.06.36-.06.36-.06.36-.06.36-.06.37-.06.36-.06.36-.05.36-.06.36-.06.37-.06.36-.05.36-.06.36-.05.37-.06.36-.06.36-.05.36-.06.36-.05.37-.05.36-.06.36-.05.36-.05.36-.06.37-.05.36-.05.36-.05.36-.06.36-.05.37-.05.36-.05.36-.05.36-.05.36-.05.37-.05.36-.05.36-.05.36-.05.37-.05.36-.04.36-.05.36-.05.36-.05.37-.05.36-.04.36-.05.36-.05.36-.04.37-.05.36-.05.36-.04.36-.05.36-.04.37-.05.36-.04.36-.05.36-.04.37-.05.36-.04.36-.04.36-.05.36-.04.37-.04.36-.05.36-.04.36-.04.36-.05.37-.04.36-.04.36-.04.36-.04.36-.05.37-.04.36-.04.36-.04.36-.04.36-.04.37-.04.36-.04.36-.04.36-.04.37-.04.36-.04.36-.04.36-.04.36-.04.37-.04.36-.04.36-.03.36-.04.36-.04.37-.04.36-.04.36-.04.36-.03.36-.04.37-.04.36-.04.36-.03.36-.04.37-.04.36-.03.36-.04.36-.04.36-.03.37-.04.36-.03.36-.04.36-.04.36-.03.37-.04.36-.03.36-.04.36-.03.36-.04.37-.03.36-.04.36-.03.36-.04.37-.03.36-.03.36-.04.36-.03.36-.04.37-.03.36-.03.36-.04.36-.03.36-.03.37-.04.36-.03.36-.03.36-.03.36-.04.37-.03.36-.03.36-.03.36-.04.36-.03.37-.03.36-.03.36-.03.36-.03.37-.04.36-.03.36-.03.36-.03.36-.03.37-.03.36-.03.36-.03.36-.03.36-.03.37-.03.36-.04.36-.03.36-.03.36-.03.37-.03.36-.03.36-.03.36-.02.37-.03.36-.03.36-.03.36-.03.36-.03.37-.03.36-.03.36-.03.36-.03.36-.03.37-.03.36-.02.36-.03.36-.03.36-.03.37-.03.36-.03.36-.02.36-.03.36-.03.37-.03.36-.02.36-.03.36-.03.37-.03.36-.02.36-.03.36-.03.36-.03.37-.02.36-.03.36-.03.36-.02.36-.03.37-.03.36-.02.36-.03.36-.03.36-.02.37-.03.36-.03.36-.02.36-.03.37-.03.36-.02.36-.03.36-.02.36-.03.37-.02.36-.03.36-.03.36-.02.36-.03.37-.02.36-.03.36-.02.36-.03.36-.02.37-.03.36-.02.36-.03.36-.02.36-.03.37-.02.36-.03.36-.02.36-.02.37-.03.36-.02.36-.03.36-.02.36-.03.37-.02.36-.02.36-.03.36-.02.36-.03.37-.02.36-.02.36-.03.36-.02.36-.02.37-.03.36-.02.36-.02.36-.03.37-.02.36-.02.36-.03.36-.02.36-.02.37-.03.36-.02.36-.02.36-.03.36-.02.37-.02.36-.02.36-.03.36-.02.36-.02.37-.02.36-.03.36-.02.36-.02.37-.02.36-.02.36-.03.36-.02.36-.02.37-.02.36-.02.36-.03.36-.02.36-.02.37-.02.36-.02.36-.02.36-.03.36-.02.37-.02.36-.02.36-.02.36-.02.36-.02.37-.03.36-.02.36-.02.36-.02.37-.02.36-.02.36-.02.36-.02.36-.02.37-.02.36-.03.36-.02.36-.02.36-.02.37-.02.36-.02.36-.02.36-.02.36-.02.37-.02.36-.02.36-.02.36-.02.37-.02.36-.02.36-.02.36-.02.36-.02.37-.02.36-.02.36-.02.36-.02.36-.02.37-.02.36-.02.36-.02.36-.02.36-.02.37-.02.36-.02.36-.02.36-.02.36-.02.37-.01.36-.02.36-.02.36-.02.37-.02.36-.02.36-.02.36-.02.36-.02.37-.02.36-.02.36-.01.36-.02.36-.02.37-.02.36-.02.36-.02.36-.02.36-.02.37-.01.36-.02.36-.02.36-.02.37-.02.36-.02.36-.02.36-.01.36-.02.37-.02.36-.02.36-.02.36-.01.36-.02.37-.02.36-.02.36-.02.36-.02.36-.01.37-.02.36-.02.36-.02.36-.01.37-.02.36-.02.36-.02.36-.02.36-.01.37-.02.36-.02.36-.02.36-.01.36-.02.37-.02.36-.02.36-.01.36-.02.36-.02.37-.02.36-.01.36-.02.36-.02.36-.01.37-.02.36-.02.36-.02.36-.01.37-.02.36-.02.36-.01.36-.02.36-.02.37-.01.36-.02.36-.02.36-.01.36-.02.37-.02.36-.01.36-.02.36-.02.36-.01.37-.02.36-.02.36-.01.36-.02.37-.02.36-.01.36-.02.36-.02.36-.01.37-.02.36-.01.36-.02.36-.02.36-.01.37-.02.36-.02.36-.01.36-.02.36-.01.37-.02.36-.02.36-.01.36-.02.36-.01.37-.02.36-.02.36-.01.36-.02.37-.01.36-.02.36-.01.36-.02.36-.02.37-.01.36-.02.36-.01.36-.02.36-.01.37-.02.36-.01.36-.02.36-.02.36-.01.37-.02.36-.01.36-.02.36-.01.37-.02.36-.01.36-.02.36-.01.36-.02.37-.01.36-.02.36-.01.36-.02.36-.01.37-.02.36-.01.36-.02.36-.01.36-.02.37-.01.36-.02.36-.01.36-.02.36-.01.37-.02.36-.01.36-.02.36-.01.37-.02.36-.01.36-.02.36-.01.36-.02.37-.01.36-.01.36-.02.36-.01.36-.02.37-.01.36-.02.36-.01.36-.02.36-.01.37-.01.36-.02.36-.01.36-.02.37-.01.36-.02.36-.01.36-.01.36-.02.37-.01.36-.02.36-.01.36-.02.36-.01.37-.01.36-.02.36-.01.36-.02.36-.01.37-.01.36-.02.36-.01.36-.02.37-.01.36-.01.36-.02.36-.01.36-.01.37-.02.36-.01.36-.02.36-.01.36-.01.37-.02.36-.01.36-.01.36-.02.36-.01.37-.02.36-.01.36-.01.36-.02.36-.01.37-.01.36-.02.36-.01.36-.01.37-.02.36-.01.36-.01.36-.02.36-.01.37-.01.36-.02.36-.01.36-.01.36-.02.37-.01.36-.01.36-.02.36-.01.36-.01.37-.02.36-.01.36-.01.36-.01.37-.02.36-.01.36-.01.36-.02.36-.01.37-.01.36-.02.36-.01.36-.01.36-.01.37-.02.36-.01.36-.01.36-.02.36-.01.37-.01.36-.01.36-.02.36-.01.36-.01.37-.02.36-.01.36-.01.36-.01.37-.02.36-.01.36-.01.36-.01.36-.02.37-.01.36-.01.36-.01.36-.02.36-.01.37-.01.36-.01.36-.02.36-.01.36-.01.37-.01.36-.02.36-.01.36-.01.37-.01.36-.01.36-.02.36-.01.36-.01.37-.01.36-.02.36-.01.36-.01.36-.01.37-.01.36-.02.36-.01.36-.01.36-.01.37-.02.36-.01.36-.01.36-.01.36-.01.37-.02.36-.01.36-.01.36-.01.37-.01.36-.02.36-.01.36-.01.36-.01.37-.01.36-.01.36-.02.36-.01.36-.01.37-.01.36-.01.36-.02.36-.01.36-.01.37-.01.36-.01.36-.01.36-.02.37-.01.36-.01.36-.01.36-.01.36-.01.37-.02.36-.01.36-.01.36-.01.36-.01.37-.01.36-.01.36-.02.36-.01.36-.01.37-.01.36-.01.36-.01.36-.01.37-.02.36-.01.36-.01.36-.01.36-.01.37-.01.36-.01.36-.02.36-.01.36-.01.37-.01.36-.01.36-.01.36-.01.36-.01.37-.02.36-.01.36-.01.36-.01.36-.01.37-.01.36-.01.36-.01.36-.01.37-.02.36-.01.36-.01.36-.01.36-.01.37-.01.36-.01.36-.01.36-.01.36-.01.37-.02.36-.01.36-.01.36-.01.36-.01.37-.01.36-.01.36-.01.36-.01.37-.01.36-.01.36-.01.36-.02.36-.01.37-.01.36-.01.36-.01.36-.01.36-.01.37-.01.36-.01.36-.01.36-.01.36-.01.37-.01.36-.01.36-.02.36-.01.36-.01.37-.01.36-.01.36-.01.36-.01.37-.01.36-.01.36-.01.36-.01.36-.01.37-.01.36-.01.36-.01.36-.01.36-.01.37-.01.36-.01.36-.01.36-.02.36-.01.37-.01.36-.01.36-.01.36-.01.37-.01.36-.01.36-.01.36-.01.36-.01.37-.01.36-.01.36-.01.36-.01.36-.01.37-.01.36-.01.36-.01.36-.01.36-.01.37-.01.36-.01.36-.01.36-.01.36-.01.37-.01.36-.01.36-.01.36-.01.37-.01.36-.01.36-.01.36-.01.36-.01.37-.01.36-.01.36-.01.36-.01.36-.01.37-.01.36-.01.36-.01.36-.01.36-.01.37-.01.36-.01.36-.01.36-.01.37-.01.36-.01.36-.01.36-.01.36-.01.37-.01.36-.01.36-.01.36-.01.36-.01.37-.01.36-.01.36-.01.36-.01.36-.01.37-.01.36-.01.36-.01.36-.01.37-.01.36-.01h.36l.36-.01.36-.01.37-.01.36-.01.36-.01.36-.01.36-.01.37-.01.36-.01.36-.01.36-.01.36-.01.37-.01.36-.01.36-.01.36-.01.36-.01.37-.01.36-.01.36-.01h.36l.37-.01.36-.01.36-.01.36-.01.36-.01.37-.01.36-.01.36-.01"/><use xlink:href="#63fba__b" color="#29C3F6" transform="matrix(3.75 0 0 3.75 354.25 49.68)"/><use xlink:href="#63fba__b" color="#29C3F6" transform="matrix(3.75 0 0 3.75 112.25 7.51)"/></g><text stroke-linecap="round" stroke-linejoin="round" stroke-width=".5" color="#000" font-family="KaTeX_Main" font-size="8" transform="translate(132.8 25.11)"><tspan>AVLBottomUp</tspan></text><g fill="none" stroke="currentColor" stroke-linecap="round" stroke-linejoin="round" stroke-width=".5" color="#000"><path stroke="#000" d="M97.3 22.51h29.9M28 156.49h.36l.36.01h.37l.36.01.36-.01.36-.01h.36l.37-.01h.72l.36-.01h.37l.36.01h.72l.36-.01h1.09l.36-.01h.36l.37-.01.36-.01.36.01.36-.01h.73l.36-.01h.72l.36-.01h1.09l.36-.01h.73l.36-.01.36.01h.36l.37.01.36.02h1.45l.36-.01h1.08l.37.01h.72l.36.01H49l.36-.01h2.9l.36-.01h1.45l.36-.01h1.45l.36-.01h1.09l.36-.01h.73l.36-.01h1.45l.36-.01.36.01h.36l.36-.01h1.09l.36-.01.37.01.36-.01h1.45l.36.01.36-.01h.36l.36.01.37-.01H70l.37.01.36-.01h3.26l.36-.01h.72l.36.01h1.45l.36.01h.37l.36.02h5.43l.36-.01.36.01h.37l.36-.01.36.01h3.62l.36-.01h4.35l.36-.01h.73l.36.01h.36l.36-.01.36.01h.37l.36-.01h1.81l.36.01h1.09l.36-.01h5.79l.36-.01h2.9l.36-.01h3.26l.36-.01h.73l.36.01.36-.01h3.62l.37.01h1.81l.36-.01h4.71l.36.01h1.08l.37-.01h.36l.36.01h4.71l.36-.01h4.71l.36.01h8.33l.36-.01h3.62l.36.01h1.09l.36-.01h1.09l.36.01h2.9l.36.01h5.07l.36-.01h12.31l.36-.01h.36l.37.01h6.15l.36-.01h9.06l.36-.01h9.05l.36-.01h9.06l.36-.01.36.01.36-.01h.36l.37.01h1.81l.36-.01.36.01h3.62l.36.01h2.54l.36-.01h9.78l.36-.01h.36l.36.01h12.31l.37-.01h7.6l.36-.01h5.43l.37.01h1.08l.36-.01h9.78l.36.01h.73l.36-.01h5.79l.37.01h11.22l.36-.01h35.85l.36-.01h12.68l.36-.01h10.5l.36-.01h2.53l.37.01h1.08l.37-.01h2.89l.36.01h5.07l.37-.01h.36l.36.01h2.9l.36-.01h2.17l.36.01h1.09l.36-.01h1.45"/><use xlink:href="#63fba__d" transform="matrix(3.75 0 0 3.75 67.83 156.37)"/><use xlink:href="#63fba__d" transform="matrix(3.75 0 0 3.75 112.25 22.51)"/></g><text stroke-linecap="round" stroke-linejoin="round" color="#000" font-family="KaTeX_Main" font-size="8" transform="translate(241.1 10.11)"><tspan>LBSTRelaxed</tspan></text><g fill="none" stroke="currentColor" stroke-linecap="round" stroke-linejoin="round" color="#000"><path stroke="#FFAB00" stroke-dasharray="4.0,2.0,1.0,2.0" d="M205.6 7.51h29.9M28 156.03l.36-.02.36-.03.37.05.36-.02.36-.02.36-.02.36-.02.37-.02.36-.02.36-.02.36-.03.37.01.36-.02.36.13.36-.01.36.12.37-.01.36-.02.36-.01.36.03.36.04.37-.01.36-.01.36-.01h.36l.36-.02.37-.01.36-.01h.36l.36-.01.36-.01.37-.02.36-.01.36-.01.36-.01.37-.02.36.09.36.03.36-.01.36-.01h.37l.36-.01.36-.01.36-.01.36-.01.37-.01h.36l.36-.01h.36l.36-.02.37-.01h.36l.36-.02h.36l.37.03.36.02.36-.01.36-.01.36-.01h.37l.36-.01.36-.02.36-.01h.73l.36.05.36-.01.36-.01h.36l.37-.01.36-.01.36-.01h.36l.37.01.36-.01.36-.01.36-.01h.36l.37-.01.36-.01.36-.01h.36l.36-.01.37-.01.36-.01h.36l.36-.01.36-.01.37-.01.36.03.36.04.36-.01h.36l.37-.01h.36l.36-.01.36-.01.37-.01h.72l.36-.01.36-.01.37-.01.36.09.36-.01.36-.01.36-.01.37.15.36-.01h.72l.36-.01h.37l.36-.01h.36l.36-.01h.73l.36-.01h.36l.36-.01h.37l.36-.01h.36l.36.01.36.01h.37l.36-.01h.36l.36-.01h.73l.36-.01h.72l.36-.01h.37l.36-.01.36-.01h.36l.37-.01h1.08l.36-.01h.73l.36-.01h.36l.36-.01h.37l.36-.01h.36l.36-.01h.36l.37-.01h.36l.36-.01.36-.01.37.03.36.02h.36l.36-.01h.36l.37-.01h.36l.36-.01h.36l.36-.01h.73l.36-.01h.36l.36-.01h.37l.36-.01.36-.01h1.09l.36-.01h.72l.37-.01.36-.01h.36l.36-.01h.73l.36-.01.36-.01h.36l.36-.01.37.12.36.01h.36l.36.01.36-.01h.73l.36-.01h.73l.36-.01h.72l.36-.01h.73l.36-.01h.36l.36-.01.37.01h.36l.36-.01h.72l.37-.01h.36l.36-.01h.73l.36-.01h.72l.36-.01h.37l.36-.01h.36l.36.04.36.04.37-.01h1.08l.36-.01h.73l.36-.01h1.09l.36-.01h.72l.37-.01h1.44l.37-.01h1.08l.36-.01.37.2h.36l.36-.01h1.09l.36-.01h.36l.36-.01.37.01.36.01h.36l.36-.01h1.09l.36-.01h.72l.37-.01h1.08l.36-.01h.73l.36-.01h1.81l.36-.01h.37l.36-.01h.72l.36-.01h1.09l.36-.01h.36l.37-.01.36.02h.36l.36.01h.36l.37-.01h1.08l.37-.01h1.08l.36.12h1.45l.36-.01.37.01.36-.01.36.01.36-.01h1.45l.36-.01h1.45l.36-.01h3.62l.37-.01h1.44l.37-.01h1.08l.37-.01.36.01.36-.01h1.45l.36-.01h1.09l.36-.01h1.08l.37-.01h1.08l.37.02.36.03h1.08l.37-.01h1.44l.37-.01h1.81l.36-.01h2.17l.36-.01h1.45l.36-.01h1.45l.36-.01h1.09l.36.01.36-.01h1.09l.36-.01h1.81l.37-.01h1.44l.37-.01h1.44l.37-.01h1.08l.36-.01h1.09l.36-.01h1.09l.36.01.36-.01h.37l.36.01h.72l.36-.01h1.45l.36-.01h1.45l.37-.01h1.81l.36-.01h1.45l.36-.01h1.08l.37-.01h.72l.36-.01.37.01h.36l.36-.01.36.01.36-.01h1.09l.36-.01h1.09l.36-.01h1.81l.36-.01h.73l.36-.01.36.01.36.12.37-.01h1.44l.37-.01h1.81l.36.04.36.04h.36l.36-.01h3.63l.36-.01h3.62l.36-.01h2.17l.37-.01h.72l.36.01.36-.01.37.01h1.08l.36-.01h2.54l.36-.01h2.9l.36-.01h2.17l.36-.01h1.45l.36.01.37-.01.36.01h1.45l.36-.01h2.17l.36-.01h2.9l.36-.01h1.81l.37-.01h3.62l.36-.01h2.17l.36-.01h2.18l.36-.01h1.81l.36-.01h1.81l.36-.01H263l.36.01h.73l.36.01h2.53l.36-.01h2.54l.36-.01h2.54l.36-.01h1.81l.36-.01h3.26l.36-.01h1.81l.36-.01.37.1H284l.36.06h1.09l.36-.01h6.88l.36-.01h3.99l.36-.01h2.9l.36-.01.36.01h.36l.36-.01h3.62l.37-.01h2.53l.36-.01h2.9l.36-.01h1.45l.36.03h.36l.37-.01.36.03h2.53l.37-.01h4.34l.36-.01h3.26l.36-.01.37.01h.36l.36-.01h3.98l.37-.01h3.62l.36-.01h2.9l.36-.01.36.01h1.09l.36-.01.36.01h1.45l.36-.01h3.26l.36-.01h3.26l.36-.01h4.35l.36-.01h2.9l.36-.01h2.9l.36-.01h2.53l.36-.01.37.01h1.81l.36.01h1.08l.37-.01h3.62l.36-.01"/><use xlink:href="#63fba__e" color="#FFAB00" transform="matrix(3.75 0 0 3.75 125.4 155.94)"/><use xlink:href="#63fba__e" color="#FFAB00" transform="matrix(3.75 0 0 3.75 220.55 7.51)"/></g><text stroke-linecap="round" stroke-linejoin="round" color="#000" font-family="KaTeX_Main" font-size="8" transform="translate(241.1 25.11)"><tspan>TreapTopDown</tspan></text><g fill="none" stroke="currentColor" stroke-linecap="round" stroke-linejoin="round" color="#000"><path stroke="#00C853" stroke-dasharray="4.5,2.0,0.5,2.0,0.5,2.0" d="M205.6 22.51h29.9M28 153.52l.36.01.36-.01.37.02.36.01h.36l.36-.01.36-.02h.37l.36-.03h.72l.37-.07.36.01h.72l.36.01.37-.03.36.02.36.07.36-.01.36.01.37-.04.36.01h.72l.36.03.37-.02.36-.01.36-.05.36.01.36.01.37.01.36-.01.36.01.36.01.37-.02.36-.01h1.45l.36.01h.36l.36-.04.36.04.37.01.36.01.36.01.36-.06h.36l.37.01h1.08l.37.01H49l.36.01h.37l.36.01.36-.01h.36l.36.01.37-.01h.36l.36-.01h.36l.36.01.37-.01.36-.01.36.01.36-.03h.73l.36.01h1.09l.36.01.36-.01h.36l.36.02.37-.02.36.01h.36l.36-.03h.73l.36-.01.36-.02.36.01h.73l.36.02h.72l.37-.01.36-.01h.72l.36.01.37.02.36-.02h1.45l.36-.03h.36l.36.01.36-.01H70l.37-.07h.36l.36.02.36-.01.36.01.37.01.36.03.36-.02.36.01h2.17l.37.07.36.01.36-.02h.72l.37.01h1.45l.36-.01.36-.01.36-.01h.73l.36-.01.36.02.36-.02h.36l.37-.02.36.02h.72l.36.01h.73l.36.01.36.01h.37l.36-.01h1.45l.36.01h.36l.36.01h.36l.37.01.36-.01h1.81l.36.01.36-.07h.73l.36.01h3.26l.36.07.36.01.36-.01h.73l.36.01h1.45l.36.01h.73l.36-.01h2.53l.36-.01h.37l.36-.01.36.01h.36l.36-.01.37-.01h.72l.36-.01h2.54l.36.01h.72l.37-.05.36.01h.72l.36-.03h.73l.36.01h1.09l.36.02.36.01h1.09l.36-.03h2.9l.36.01.36.01h1.81l.36-.01.37-.01h.36l.36.01h.36l.36-.01h1.45l.36.01h1.45l.36-.02h3.63l.36-.01h2.17l.36-.07h.36l.37.01h.72l.36.01h1.81l.37.01h1.08l.36.02h.37l.36-.01.36.02.36-.01.36.01.37-.01.36.01.36-.01.36.01.36-.01h1.45l.36.01.37-.01h.72l.36.03h1.81l.37.01h1.08l.36-.01h.37l.36.01h.72l.36-.01.37.01h3.26l.36.04.36.01.36-.01h1.09l.36-.01.36.01.36-.01.37-.01h.36l.36-.01.36.02h1.45l.36.01h1.45l.36.01h4.35l.36.01h.73l.36-.03h1.08l.37.02.36.01h.72l.36-.07h1.81l.37.01h.36l.36-.01.36.01h2.54l.36-.01.36.01.36-.01h.73l.36.01h1.45l.36.01h1.09l.36-.01.36.01h1.09l.36.01h.72l.37-.04h2.53l.36-.03h2.18l.36.01h3.26l.36-.01h1.08l.37.01H200l.36.02.36-.01h.72l.37-.04h3.98l.36-.01.36.01h.36l.37-.01h1.08l.37-.01.36.01h3.98l.36.01.36-.01h1.09l.36-.01h.73l.36.01h.36l.36-.01.37.01.36.01.36.01h1.09l.36-.01h.36l.36.01h1.09l.36-.02h1.45l.36.01h.73l.36.01h2.17l.36-.04h1.09l.36.01h5.43l.36.01h5.8l.36-.01.36-.01h.73l.36.01h.36l.36-.01.36.01h.37l.36-.01.36.01h.36l.36-.02h.37l.36.01.36-.01h3.26l.36.03h.36l.37.01h.36l.36.01h1.45l.36-.01h1.09l.36.01h.36l.36-.01.37.01h1.81l.36-.01.36.01h.36l.36-.01.37.01h.36l.36-.01h1.45l.36.01h1.09l.36.01h.36l.36.01h2.54l.36.01.36-.01h.36l.37.01h9.05l.36.01h1.81l.36-.01h5.44l.36.01h.72l.36-.01h1.09l.36-.01.36-.02.37.03h4.34l.36.01h.37l.36-.01h.36l.36.01.36-.07h.37l.36.01h2.89l.37.01h2.89l.37.02h2.17l.36.01h3.26l.36.01h.36l.37-.01h.36l.36.01h5.43l.36.01.37-.01h.36l.36-.02h1.45l.36.01h9.41l.37.01.36-.01h.36l.36.01h5.43l.37.01h3.62l.36-.01h1.45l.36.01h2.17l.36.01h2.9l.36-.05h1.09l.36.01h2.17l.37.01h2.89l.37.01h3.98l.36.01h4.71l.36.01h1.81l.36.01h3.62l.37.01h2.53"/><use xlink:href="#63fba__f" color="#00C853" transform="matrix(3.75 0 0 3.75 182.98 153.34)"/><use xlink:href="#63fba__f" color="#00C853" transform="matrix(3.75 0 0 3.75 220.55 22.51)"/></g><path fill="none" d="M28 45.01V162.5M371.99 45.01H28" color="#000"/></svg>