<svg xmlns="http://www.w3.org/2000/svg" xmlns:xlink="http://www.w3.org/1999/xlink" viewBox="0 0 400 200"><path fill="none" d="M0 0h400v200H0z"/><defs><use xlink:href="#e3d92__a" id="e3d92__d" fill="currentColor" stroke="none"/><use xlink:href="#e3d92__b" id="e3d92__c" stroke="currentColor" transform="rotate(180)"/><circle id="e3d92__a" cx="0" cy="0" r="1" stroke="currentColor" stroke-width=".267"/><path id="e3d92__b" stroke="currentColor" stroke-width=".267" d="m0-1.33-1.33 2h2.66z"/></defs><path fill="none" stroke="#CCC" stroke-linecap="round" stroke-linejoin="round" stroke-width=".1" d="M46.1 162.5V45.01" class="e3d92__gridline" color="#000"/><g fill="none" stroke-linecap="round" stroke-linejoin="round" stroke-width="0" color="#000"><path d="M46.1 162.5V155m0-109.99v7.5"/><text fill="#000" font-family="KaTeX_Main" font-size="8" text-anchor="middle" transform="translate(46.1 172.6)"><tspan> 1</tspan></text></g><path fill="none" stroke="#CCC" stroke-linecap="round" stroke-linejoin="round" stroke-width=".1" d="M82.31 162.5V45.01" class="e3d92__gridline" color="#000"/><g fill="none" stroke-linecap="round" stroke-linejoin="round" stroke-width="0" color="#000"><path d="M82.31 162.5V155m0-109.99v7.5"/><text fill="#000" font-family="KaTeX_Main" font-size="8" text-anchor="middle" transform="translate(82.31 172.6)"><tspan> 2</tspan></text></g><path fill="none" stroke="#CCC" stroke-linecap="round" stroke-linejoin="round" stroke-width=".1" d="M118.52 162.5V45.01" class="e3d92__gridline" color="#000"/><g fill="none" stroke-linecap="round" stroke-linejoin="round" stroke-width="0" color="#000"><path d="M118.52 162.5V155m0-109.99v7.5"/><text fill="#000" font-family="KaTeX_Main" font-size="8" text-anchor="middle" transform="translate(118.52 172.6)"><tspan> 3</tspan></text></g><path fill="none" stroke="#CCC" stroke-linecap="round" stroke-linejoin="round" stroke-width=".1" d="M154.73 162.5V45.01" class="e3d92__gridline" color="#000"/><g fill="none" stroke-linecap="round" stroke-linejoin="round" stroke-width="0" color="#000"><path d="M154.73 162.5V155m0-109.99v7.5"/><text fill="#000" font-family="KaTeX_Main" font-size="8" text-anchor="middle" transform="translate(154.73 172.6)"><tspan> 4</tspan></text></g><path fill="none" stroke="#CCC" stroke-linecap="round" stroke-linejoin="round" stroke-width=".1" d="M190.94 162.5V45.01" class="e3d92__gridline" color="#000"/><g fill="none" stroke-linecap="round" stroke-linejoin="round" stroke-width="0" color="#000"><path d="M190.94 162.5V155m0-109.99v7.5"/><text fill="#000" font-family="KaTeX_Main" font-size="8" text-anchor="middle" transform="translate(190.94 172.6)"><tspan> 5</tspan></text></g><path fill="none" stroke="#CCC" stroke-linecap="round" stroke-linejoin="round" stroke-width=".1" d="M227.15 162.5V45.01" class="e3d92__gridline" color="#000"/><g fill="none" stroke-linecap="round" stroke-linejoin="round" stroke-width="0" color="#000"><path d="M227.15 162.5V155m0-109.99v7.5"/><text fill="#000" font-family="KaTeX_Main" font-size="8" text-anchor="middle" transform="translate(227.15 172.6)"><tspan> 6</tspan></text></g><path fill="none" stroke="#CCC" stroke-linecap="round" stroke-linejoin="round" stroke-width=".1" d="M263.36 162.5V45.01" class="e3d92__gridline" color="#000"/><g fill="none" stroke-linecap="round" stroke-linejoin="round" stroke-width="0" color="#000"><path d="M263.36 162.5V155m0-109.99v7.5"/><text fill="#000" font-family="KaTeX_Main" font-size="8" text-anchor="middle" transform="translate(263.36 172.6)"><tspan> 7</tspan></text></g><path fill="none" stroke="#CCC" stroke-linecap="round" stroke-linejoin="round" stroke-width=".1" d="M299.57 162.5V45.01" class="e3d92__gridline" color="#000"/><g fill="none" stroke-linecap="round" stroke-linejoin="round" stroke-width="0" color="#000"><path d="M299.57 162.5V155m0-109.99v7.5"/><text fill="#000" font-family="KaTeX_Main" font-size="8" text-anchor="middle" transform="translate(299.57 172.6)"><tspan> 8</tspan></text></g><path fill="none" stroke="#CCC" stroke-linecap="round" stroke-linejoin="round" stroke-width=".1" d="M335.78 162.5V45.01" class="e3d92__gridline" color="#000"/><g fill="none" stroke-linecap="round" stroke-linejoin="round" stroke-width="0" color="#000"><path d="M335.78 162.5V155m0-109.99v7.5"/><text fill="#000" font-family="KaTeX_Main" font-size="8" text-anchor="middle" transform="translate(335.78 172.6)"><tspan> 9</tspan></text></g><path fill="none" stroke="#CCC" stroke-linecap="round" stroke-linejoin="round" stroke-width=".1" d="M371.99 162.5V45.01" class="e3d92__gridline" color="#000"/><g fill="none" stroke-linecap="round" stroke-linejoin="round" stroke-width="0" color="#000"><path d="M371.99 162.5V155m0-109.99v7.5"/><text fill="#000" font-family="KaTeX_Main" font-size="8" text-anchor="middle" transform="translate(371.99 172.6)"><tspan> 10</tspan></text></g><g fill="none" stroke-linecap="round" stroke-linejoin="round" stroke-width="0" color="#000"><path d="M371.99 162.5h-7.5"/><text fill="#000" font-family="KaTeX_Main" font-size="8" transform="translate(378.99 165.1)"><tspan>-1</tspan></text></g><g fill="none" stroke-linecap="round" stroke-linejoin="round" stroke-width="0" color="#000"><path d="M371.99 45.01h-7.5"/><text fill="#000" font-family="KaTeX_Main" font-size="8" transform="translate(378.99 47.61)"><tspan>0</tspan></text></g><path fill="none" d="M28 45.01V162.5M371.99 45.01H28" color="#000"/><text stroke-linecap="round" stroke-linejoin="round" stroke-width="0" color="#000" font-family="KaTeX_Main" font-size="10" text-anchor="middle" transform="rotate(-90 57.63 46.13)"><tspan>log</tspan><tspan dy="3" font-size="8">2</tspan><tspan dy="-3">(</tspan><tspan font-weight="bold">Average Path Length </tspan><tspan> / log</tspan><tspan dy="3" font-size="8">2</tspan><tspan dy="-3">(Size))</tspan></text><text stroke-linecap="round" stroke-linejoin="round" stroke-width="0" color="#000" font-family="KaTeX_Main" font-size="10" text-anchor="middle" transform="translate(199.99 195.75)"><tspan>Operations / 10</tspan><tspan dy="-5" font-size="8">6</tspan></text><text stroke-linecap="round" stroke-linejoin="round" color="#000" font-family="KaTeX_Main" font-size="8" transform="translate(71.2 10.11)"><tspan>RedBlackBottomUp</tspan></text><g fill="none" stroke="currentColor" stroke-linecap="round" stroke-linejoin="round" color="#000"><path stroke="#F44336" d="M35.7 7.51h29.9M28 61.08l.36-.15.36-.01.37-.02.36.02.36.08.36-.14.36-.05.37-.02.36-.03.36.08.36-.09.37-.05.36.02.36.11.36-.04.36-.05.37-.03.36-.04.36.02h.72l.37.01.36.06.36-.04.36-.12.36.11.37.02.36.07.36-.11.36.03.36.04.37.04.36.18.36.02.36-.18.37-.2.36.02.36.01.36-.06.36.02.37-.03.36-.01.36-.03h.36l.36-.08.37.01.36.01.36-.03.36.2.36-.01.37-.01.36-.03.36-.04.36-.2.37-.08.36.08.36-.11.36-.07.36.1.37.03.36.11.36.18.36-.14.36-.08.37-.01.36.21.36.02.36.05.36.03.37-.04.36.07.36.09.36.04.37-.03.36-.01.36-.04.36.01.36-.05.37-.4.36-.02.36.02.36-.08.36-.03.37.03.36.02h.36l.36.02h.36l.37-.03.36-.04.36-.03.36.38.36-.08.37-.43.36.07.36-.01.36.46.37-.08.36.13h.36l.36.08.36-.12.37.01.36.08.36.03.36.01h.36l.37-.03.36-.12.36.03.36-.09.36.04h.37l.36-.03h.36l.36.03.37-.01.36.03.36-.06.36-.06.36-.02.37.09.36-.02h.36l.36.04.36-.31.37-.01.36.08.36-.01.36.02.36-.06.37.07.36-.02.36-.08.36-.03.36.01.37-.12.36-.19.36.07.36.01.37-.07.36.01.36.02.36-.02h.36l.37.02.36-.04.36-.04.36.02.36.28h.37l.36-.4h.36l.36-.04h.36l.37.04.36.05.36-.05.36-.02.37-.02h.36l.36.04.36-.04.36.03.37.01h.36l.36-.05h.36l.36.04.37.01.36.02.36.02.36-.02.36.03.37.02.36.27.36-.03.36.03.36.01.37-.07.36-.1.36.02.36-.03h.73l.36.02.36-.04.36.05.37.05.36.01.36-.04.36.18.36-.03.37-.19.36-.01.36.06.36.34.36-.03.37-.04.36.06.36.21.36-.23.37-.02.36-.02.36.07.36-.06.36-.02.37-.1.36.02.36-.21.36.16h.36l.37-.02.36.03.36-.04.36.05.36-.06.37-.03.36-.02.36-.07.36.15.37.17.36-.26.36-.24.36-.04.36.12.37-.05.36-.01.36.02.36.05.36.36.37-3.76.36.02.36-.19.36.31.36 3.81.37.06.36-.08.36.05.36-.06.36-.01.37-.05.36-.52.36.14.36.2.37.04.36-.09.36-.07.36-.01.36.03.37-.03.36.05.36-.02.36.03.36.15.37-.03.36-.04.36-.04.36.28.36.02.37-3.69.36.01.36.02.36-.28.37-.06.36-.01.36-.03.36-.03.36 3.61.37.02.36.05.36-.04.36-.02.36-3.58.37.03.36.03.36-.03.36.02.36.04.37.01.36.27.36-.1.36-.01.36.03.37 3.78.36-.03.36-.01.36-.03.37-.07.36-.02.36-.03.36.04.36.03.37.01.36-.01.36.01.36-.24.36-.18.37-.01.36-.01.36.01.36-4 .36-.14.37-.02.36 3.84.36.07h.36l.37.08.36.03.36.22.36-.01.36-.04.37-.02.36.05.36-2.58h.36l.36.21.37.02.36.06.36-.02.36.07.36.04.37-.15.36-.07.36-.05.36-.01.36.14.37-.07.36-.02.36.01.36-.12.37-.19.36.02.36.3h1.09l.36-.01.36-.06.36.03.36-.03.37.04.36.87.36.08.36.09.36.08.37.06.36-.02.36-.1.36-.01.37.01.36.11.36-.01.36.02.36-.03.37-.27.36.03.36.01.36-1.02.36.02.37-.02.36-.11.36.01.36.33.36.96.37.05.36.19.36.1.36-.02.37-1.19.36.02.36.03.36.03.36-.02.37-.05.36-.05.36-.02.36.07.36.13.37-.02.36-.01.36-.3.36.05h.36l.37-.06.36-.03h.36l.36.03h.36l.37-.03.36.04.36-.02h.36l.37.01.36-.01.36.02.36.09.36-.03.37.05.36.14.36.99.36-.27h.36l.37-.01.36-.04.36-.31.36.06.36.06.37-.01.36-.24.36.15.36.01.37-.26h.36l.36-.08.36.42.36-.05.37.27.36.03.36.06.36-.05.36.22h.37l.36-.26.36.06.36-.04.36.11.37.07.36.03.36-.01.36-.04.36-.24.37-.28.36-.15.36-.1.36-.23.37-.03.36.51.36-.03.36-.25.36-.11.37.05h.36l.36-.03.36-.9.36.3h.37l.36-.25.36.18.36-.01.36-.05.37-.02.36-.13.36.02.36.27.37.05.36.1.36-.23h.36l.36.02.37-.01.36.01.36-.06h.36l.36.03.37-.13.36 1.08.36-1.26.36.11h.36l.37-.14.36 1.25.36-.01h.36l.37-.04.36-.24.36.27.36-.84.36-.17.37.08.36-.22.36.05.36 1.07.36.04.37-.01.36.12.36-.31.36-.05.36-.12.37-.05.36.05.36.02.36.02.36.01.37-.01.36-.01.36.27.36.04.37-.01.36.02h.36l.36-.02.36.03.37.24.36.21.36-.94.36.29.36.02.37.96.36-.31.36.04.36.08.36-.33.37-.03.36-.03h.36l.36-.69.37-1.09.36 1.01.36.27.36-.13.36.18.37-.03.36-.03.36.02.36.26.36.31.37-.07.36-.04.36.02.36.35.36-.08.37-.31.36-.26.36-.03.36-.4.36.3.37-.08.36.04.36.05.36-.04.37.06.36.48.36-.02.36-.05.36.08.37.02.36.02.36-.05.36-.26.36-.03.37.05.36-.24.36.08.36-.31.36-.02.37.02.36.33.36-.01.36.03h.37l.36-.07.36.01.36-.08.36-1.07.37-.04.36-.01.36.02.36.26.36.06.37-.05.36-.1.36 1.21.36.06.36-.1.37.17h.36l.36-.08.36-.09.36-.24.37.07.36.23.36-1.04.36-.22.37.05h.36l.36-.08.36.03.36-.02.37-.09.36.1.36.11.36.26.36-.09.37-.02.36-.03.36.05.36.11.36-.01.37.04.36-.12.36-.23.36.63.37-.01.36-.03.36.35.36-.05.36.07.37-.02.36-.2.36.03h.36l.36-.83h.37l.36-.02.36 1.76.36.08.36.07.37-.08.36-.84.36.04.36.01.37-.14.36-.25h.36l.36 1.06.36.05.37.08.36.08.36.02.36.03.36-.04.37.06.36.04.36-.25.36.04.36-.02.37.04.36-.07.36.11.36-.05.36-.79h.37l.36-.1.36.04.36-.06.37-.01.36.24h.36l.36-.22.36-.04.37-.33.36.04.36.01.36-.07.36.01.37.01.36.52.36-.07.36-.01.36-.02.37-.15.36.05.36.24.36-.04.37.02h.36l.36-.01.36-.03.36.18.37-.01.36.01.36.03.36-.01.36.17.37.03.36.05.36.3.36.02.36-.74.37-.04.36.23.36.02h.36l.36.17.37-.11.36.7.36-.22.36-.18.37-.75.36-.1.36.27.36-.47.36.03.37-.83.36-.01.36-.2.36-.03.36.06.37.04.36.22.36-.2h.36l.36.02.37-.1h.36l.36-.1.36.78.37-.04.36-.05.36.02.36 1.02.36-.04.37-.06.36-.01.36.39.36.08.36-.14.37-.84.36-.06.36.03.36.24.36-.06.37.12.36-1.04.36.73.36.01.36.01.37.06.36-.02.36-.01.36.01.37-.06.36 1.08.36-.01.36-.21.36-.36.37.09.36.18.36-.03.36-.2.36-.03.37.04.36.02.36.02.36.33.36.2.37.02.36-.01.36-.79.36-.34.37.16.36-.01.36.19.36-.03.36.05.37-.03.36.3.36-.01.36.01.36-.03.37-.05.36.17.36-.01.36.75.36-.01.37-.13h.36l.36.03.36.02h.37l.36.03.36-.03.36-.04.36.03.37-.04.36-.02.36-.02.36.05.36.03.37-.02.36-.06.36.03.36.03.36-.04.37.07.36.07.36.02.36-.02.36-.69.37-.06.36.03.36-.27.36.02.37.01.36.04.36-.06.36-.1.36-.08.37-.22.36.07.36-.01.36-.04.36.04h.37l.36-.09.36-.06.36.65h.36l.37.02.36-.2.36.27.36.22h.37l.36-.07.36-.02.36-.8h.36l.37.03.36-.26.36.38.36-.15.36-.06.37-.06.36-.05.36.05.36.1.36-.04.37.16h.72l.36.08.36-.13.37-.07.36.04.36-.03.36-.03.37.03.36.03.36-.04.36.14.36-.01.37.04.36-.04.36-.01.36.19.36-.01.37.19.36-.37.36.02.36.02.36.04h.37l.36.02.36-.44.36-.05.37.03.36.06h.36l.36.19.36.08.37.69.36-.12.36-.27.36.11.36.01.37.01.36-.21.36-.03.36.04.36-.06.37-.01.36.06.36-.05.36.12.36-.01.37.07.36-.04.36.07.36-.04.37-.01.36.34.36-.05.36.03h.36l.37.18.36-.1h.36l.36.04.36.1.37-.87.36.29.36-.31.36.04.36.01.37-.06.36.07h.36l.36-.24.37-.06h.36l.36.08.36-.12.36-.1.37.03.36.01.36.02h.36l.36-.03.37.01h.36l.36.01.36.01.36-.22.37.23.36.09.36.02.36-.14.37.01.36-.03.36.19.36.01.36-.16.37.12.36-.16.36-.06.36.05.36.04.37.74.36-.99.36.07.36.96.36.01.37-.02.36-.21.36-.02.36-.19.36-.02.37.09.36.01.36.24.36.29.37.31.36-.03.36.3.36.01.36-.04.37-.02.36-.01.36.12"/><use xlink:href="#e3d92__b" color="#F44336" transform="matrix(3.75 0 0 3.75 354.25 57.21)"/><use xlink:href="#e3d92__b" color="#F44336" transform="matrix(3.75 0 0 3.75 50.65 7.51)"/></g><text stroke-linecap="round" stroke-linejoin="round" color="#000" font-family="KaTeX_Main" font-size="8" transform="translate(71.2 25.11)"><tspan>RedBlackTopDown</tspan></text><g fill="none" stroke="currentColor" stroke-linecap="round" stroke-linejoin="round" color="#000"><path stroke="#3B75EA" d="M35.7 22.51h29.9M28 61.14l.36.1.36.03.37-.15.36.13.36.01.36-.25.36.46.37.01.36.11.36-.16.36-.45.37.61.36-.44.36-.58.36.78.36-.55.37.03.36.64.36-.02.36.07.36.02.37-.44.36.01.36.73.36.04.36-.04.37-.01.36.01.36-.19.36.01.36.02.37-.08.36-.4.36.03.36.15.37-.04.36-.03.36.16.36-.1.36.05.37-.16.36.23.36.22.36-.14.36.04.37-.02.36.07.36-.29.36.14.36-.1.37-.07.36-.02.36.07.36.22.37-.07.36-.05.36-.06.36-.03.36.03.37.14.36.05.36.07.36-.11.36-.05.37.06h.36l.36-.08.36.19.36-.05.37-.03.36.18.36.05.36-.07.37.11.36-.13.36-.06.36.01.36.12.37.11.36-.12h.36l.36.04.36-.06.37.01h.36l.36-.08.36-.09.36.14.37-.05.36-.08.36.11.36.17.36-.07.37.02.36.02.36-.11.36-.13.37.01.36.04.36-.34.36.03.36-.01.37.43.36.08.36.06.36-.14.36-.01.37-.07.36-.05.36-.65.36.74.36.03h.37l.36.07.36-.03.36-.39.37.44.36-.13.36-.01.36-.34.36.26.37-.04.36-.04.36-.14.36-.15.36.32.37.08.36.1.36.01h.36l.36-.09.37-.24.36.1.36-.34.36.35.36-.12.37-.05.36-.16.36.25.36-.05.37-.04.36-.1.36.2.36-.01.36-.21.37.09.36-.01.36-.04.36-.09.36.07.37.02.36-.03.36.02.36-.01.36.17.37.03.36-.07.36.03.36-.26.37.04.36.2.36.02.36-.09.36.21.37-.06.36.14.36-.05.36.03.36-.07.37.01.36-.05.36-.15.36-.13.36.08.37-.06.36-.01.36-.3.36.36.36.07.37-.77.36.5.36.18.36-.01.37.07.36.07.36-.03.36.18.36.02.37.01.36.03.36.07.36.01.36-.27.37.24h.36l.36.01.36.01.36-.01.37.09.36.06.36-.05.36-.06.37-.02.36-.14.36.01.36.03.36.13.37-.19.36.05.36.07.36-.2.36-.1.37.24.36-.03.36.03.36-.08.36-.03.37-.12.36.17.36-.1.36-.01.37-.02.36-.04.36.16.36-.05.36.03.37-.15.36-.04.36.04.36-.03.36-.07.37.04.36.08.36.07.36-.07.36.16.37.01.36.02.36-.09.36.1h.36l.37-.17.36-.07.36.12.36-.01.37.01.36-.13h.36l.36-.01.36-.03.37-.03.36-.08.36.04h.36l.36-.15.37.02.36.13.36.28.36-.08.36-.05.37-.07.36.01.36-.06.36.04.37-.05.36.01.36.01.36.19.36-.11.37-.06.36.11.36.05.36-.07h.36l.37.01.36.21.36-.18.36.03.36-.01.37-.07.36-.01.36-.05.36.16.36.11.37-.12.36-.1.36.04.36.03.37.01.36-.08.36-.04.36.31.36-.02.37-.01.36.03h.36l.36-.02.36.06.37-.04.36.03.36-.06.36.04.36.02.37-.23.36.15.36-.09.36-2.09.37.55.36-.09.36 1.57.36.1.36-.02.37-.01.36-.07.36.02.36.09.36-.07.37.03.36.05h.36l.36-.04.36-.05.37.11.36-.1.36-.03.36.05h.36l.37-.12.36-.05.36.13.36-.01.37-.04.36-.16.36.24.36.1.36-.2h.73l.36.02.36.14.36.05h.37l.36-1.19.36-1.93.36.1.36.59.37.77.36.01.36-.11.36-.58.37.05.36.01h.36l.36.66.36-.14.37.06.36 1.61.36-.01.36-.01.36-.01.37-.02h.36l.36-.62.36.68.36-.04.37.08.36-.19.36-.04.36.08.37-.25.36.12.36-2.15.36.6.36.04.37.05.36.05.36-.87.36.83.36.11.37-.03.36-.84.36 2.12.36.16.36-.05.37-.01.36.09.36.07.36-.03.36.02.37.02.36-.04.36-.08.36-.03h.37l.36.3.36-.07.36.03h.36l.37-.06.36-.15.36.06.36-.13.36-.01.37.15.36.11.36-.05.36-.06.36.09.37-.04.36.14.36-.04.36-.01.37-.21h.36l.36-2.26.36-.17.36.04.37-.02.36-.01.36.07.36.01.36-.01.37-.07.36.05.36-.01.36-.11.36.78.37-.11.36.2.36-.09.36-.04.36-.03.37.18.36.06.36-.01.36-.04.37.01.36-.05.36.02.36-.15.36.29.37.02.36-.08.36 1.58.36.04.36-.02.37.02.36-.06.36.05.36-.01.36-.06.37-.08.36.02.36-.08.36.06.37-.06.36.09.36-.77.36.05.36.79.37-.06.36-.02.36-.23.36.02.36.03.37.02.36-.03.36-.06.36-.01.36.02.37-.73.36.94.36.1h.36l.37.11.36.09.36.02.36-.04.36-.06.37-.02.36.04.36-.04.36.01.36-.02.37-.04h.36l.36-.03.36.02.36.08.37-.49.36.21.36-.7.36.02.36-1.04.37-.14.36.97.36.61.36.01.37.07.36-.07.36.25.36-.01.36.08.37-.07.36.03.36.02.36.04.36-.05.37-.1.36-.02.36.01.36-2.2.36-.23.37.17.36 2.57.36-.11.36.08.37.17.36.11.36.06.36-.05.36.02h.37l.36-.48.36.35.36.05.36.03.37.05.36.02.36.06.36.01.36-.08.37-.04.36.07.36-.06.36.01.36-.03.37.02.36.02.36-.09.36-.13.37-.11.36-.12h.36l.36-.03h.36l.37.1.36.03.36-.09.36.18.36.02.37.02h.72l.36.01.36-.03.37-.22.36.11.36-.15.36-.08.37-.23h.36l.36-.02.36-.04.36.02.37.03.36.05.36.1.36.02.36-.02.37.02.36.1.36.05.36.11.36.28.37.04.36-2.3.36.93.36-.06.36 1.23.37-.07.36.07.36.04.36-.04.37-.07.36.08.36-.05.36.06.36-.12.37-.09.36.16.36-.08.36.01.36.07.37.15.36-.04.36-.04.36-.17.36.04.37-.19.36.14.36.05.36.04.37.05.36.03.36-.03.36-.11.36.02.37-.04.36.34.36-.05.36.07.36-.05.37.03.36-.05.36-.07.36-.18.36-.01h.37l.36.01.36.05.36-.19.37.13.36.01.36-.09.36.1h.36l.37.01.36.05.36.01.36.01.36-.05.37.12.36.02.36.01.36-.04.36-.07.37-.07.36-.1.36.11.36.04.36.05.37.09.36.04.36-.04h.36l.37-.04.36-.02.36-.15.36.16h.36l.37-.05.36-.09.36-.05h.72l.37.09.36.06.36-.02.36.07.36.04.37.05.36.03.36.04.36-.03.37-.06.36.06.36.01.36-.12.36.08.37.01.36-.05.36-.07.36-.09.36.01.37-.03h.36l.36.1.36.1.36-.07.37.02h.36l.36.02.36-.05.36.04.37-.01.36.02.36-.1.36-.09.37.07.36-.23.36.15h.36l.36-.02.37.09.36.13.36.04.36-.06.36.02.37-.12.36.14.36.01.36-.13.36.03.37.07h.36l.36-.01.36.02.37-.03.36.01.36-.05h.36l.36-.05.37-.08.36-.01.36.08h.36l.36.09.37-.03.36-.07.36.03.36-.05.36-.02.37-.09.36.01.36.08.36.11.36-.08.37-.18.36.25.36.02.36.01.37.16.36-.07h.36l.36-.14.36.04.37.06.36-.2.36.06.36.03.36-.12.37.02.36.07.36.07.36.01.36.04.37-.06.36-.08.36.01.36.03.37.04h.36l.36-.05.36-.13.36.03.37.14.36-.02.36-.07.36.13.36.02.37.07.36-.17.36-.05.36.14.36.09.37-.06.36-.14h.36l.36-.02.37-.12.36.11.36.13.36.11.36.06.37-.02.36-.09.36-.04.36-.07.36-.02.37-.06.36-.02.36.06.36.08.36-.09.37-.12.36-.08.36.19.36-.02.36-.01.37.15.36-.11.36-.02.36.04.37-.03.36.02.36-.08.36.03.36.02.37.06.36-.11.36.02.36.16.36.01.37-.02.36-.01h.36l.36.08.36-.01.37.08.36.03.36-.03.36-.03.37.07.36-.01.36.01h.36l.36-.07.37-.03.36-.27.36.08.36-.04.36-.05h.37l.36.07.36-.03.36.05.36.12.37.16.36.04.36-.1.36-.01.36.06.37-.03.36.01.36.01.36-.04.37.09.36-.03.36-.02.36.02.36-.02.37.02.36-.04.36-.07.36-.05.36-.08.37.08.36-.11.36.03.36-.09.36-.01.37.16.36.02.36-.06h.36l.37.02.36-.08.36.08.36-.01.36.03.37-.01.36-.01.36.01.36-.02.36.03.37.13.36-.16h.36l.36-.15.36.2.37.02.36.06h.36l.36.04.36-.01.37-.01.36.03.36-.05.36.01.37.01.36-.05.36.02.36.04.36-.02.37.02.36-.12.36.04.36.04.36-.16.37-.02.36.09.36-.03.36.06.36.04.37-.07.36-.07.36-.05.36.08.37.05.36.07.36-.01.36-.11.36-.01.37.02.36-.14.36.07.36-.06.36.01.37-.06.36-.01.36.11.36-.05.36-.05.37.12.36.11.36-.01.36-.03.37-.01.36-.05.36.04.36.02.36-.01.37.03h.36l.36-.07.36-.04.36.16.37-.03.36-.04h.72l.36-.04.37.13.36.06.36-.17.36.08.36.06.37.06.36-.02.36-.03.36-.06.37.02.36-.12.36.07.36-.02h.36l.37-.02.36-.05.36-.07"/><use xlink:href="#e3d92__c" color="#3B75EA" transform="matrix(3.75 0 0 3.75 67.83 61.04)"/><use xlink:href="#e3d92__c" color="#3B75EA" transform="matrix(3.75 0 0 3.75 50.65 22.51)"/></g><text stroke-linecap="round" stroke-linejoin="round" color="#000" font-family="KaTeX_Main" font-size="8" transform="translate(241.1 10.11)"><tspan>RedBlackRelaxedBottomUp</tspan></text><g fill="none" stroke="currentColor" stroke-linecap="round" stroke-linejoin="round" color="#000"><path stroke="#EC6F1A" stroke-dasharray="1.0,2.0" d="M205.6 7.51h29.9M28 59.26l.36-.04.36-.07.37-.01.36-.01.36-.01.36-.06.36-.06.37-.04.36-.02.36-.03.36-.02.37-.07.36-.01.36-.05.36-.03.36-.02.37-.05.36-.02.36-.02.36-.01.36-.03.37-.02h.36l.36-.08.36-.06h.36l.37-.03.36-.04.36-.05.36-.01h.36l.37-.02h.36l.36-.01.36-.07.37-.01.36-.01h.36l.36-.04.36-.04.37-.06.36-.03.36-.02.36-.05.36-.04.37-.01.36-.06.36.01.36-.02.36-.03.37-.01.36-.04.36-.04h.36l.37-.01.36-.04.36-.02.36-.01.36-.01.37-.01.36-.02.36-.05.36.01.36-.04.37-.07.36.02.36-.01.36-.04.36-.02.37-.02.36-.01.36-.01.36.02.37-.06.36.02.36.01h.36l.36-.01.37-.04.36-.02.36-.01.36-.02.36-.01.37.08.36-.02.36-.04.36-.02.36-.02.37-.05h.36l.36-.06.36-.03.36-.03.37-.05.36-.02.36-.02.36-.03.37-.03.36.05.36-.04.36-.03.36-.03.37-.04.36-.02.36-.03.36-.01h.36l.37.01.36-.03.36.01.36-.03.36-.01.37-.01.36-.03.36-.03.36-.01h.37l.36.02.36-.01.36-.04.36-.02.37-.02.36-.02.36-.03h.36l.36-.03.37.01h.36l.36-.01.36-.03.36.01.37-.03.36.01.36-.02.36-.01.36-.04h.37l.36-.06.36-.02.36-.02h.37l.36.03.36-.03.36-.01h.36l.37-.02.36-.02.36-.07.36.02.36-.03.37.02.36-.01h.36l.36-.02h.36l.37-.01h.36l.36-.01.36.01.37-.03.36.03h.36l.36-.03.36-.05.37-.03.36-.06.36-.01.36-.03.36-.02.37-.02.36-.04.36.01.36-.04.36-.08.37-.02.36.01.36.01.36-.03.36.01.37-.01.36-.02.36-.02.36.01.37-.03.36-.03.36.01.36.02.36.03h.37l.36-.01.36-.02h.36l.36-.02.37-.02.36-.01.36.01.36-.03.36-.05h.37l.36-.01.36-.01.36-.01.37.06.36-.01.36-.02.36-.06h.36l.37.02.36-.03.36.01.36-.01h.36l.37-.02.36-.03.36-.02.36-.01.36-.03.37.02.36.01.36.01.36-.04.37-.05.36.01.36.03.36.02.36.03h.37l.36-.03.36.04h.36l.36-.03.37-.02.36.01.36.01h.72l.37-.04.36-.01h.36l.36-.03.36-.03.37-.01.36-.03.36-.01h.36l.37-.02.36-.02.36-.01h.36l.36.01.37-.02.36-.01.36.01.36-.01h.36l.37.02.36-.04.36-.01h.36l.36-.02.37-.04.36.01.36-.04.36.01.37-.01.36-.02h.72l.36.06.37-.06.36-.04.36.05.36.01.36-.04h.37l.36.01.36-.01.36-.01.36-.01h.37l.36-.05.36-.02h.72l.37.05.36.02.36-.03.36-.03.37-.01.36-.02h.36l.36.01.36-.02h.37l.36-.03.36-.02h.36l.36-.03.37.01h.72l.36-.02.36.01.37-.01h.36l.36-.06.36-.01.37-.02h.36l.36-.03.36-.01.36.04.37-.04.36.01.36.04h.36l.36-.01.37.01.36-.04.36.03h.36l.36-.01h.73l.36.01.36-.01.36-.05.37-.01.36-.03h.72l.37-.03.36-.01.36.02h.36l.36.02.37-.04.36-.03.36-.03.36-.02.36.01h.37l.36.02.36.02.36.03.36-.01.37-.01.36.02.36-.03.36-.02.37.01.36-.03h.72l.36-.03.37-.03.36-.02.36.04.36-.03.36-.01.37-.03.36-.04.36-.01.36.01.36.01.37.04.36-.03h.36l.36.01.37-.01.36-.01.36-.02.36-.02h.36l.37-.02.36-.04.36-.01.36-.01.36.04.37.03.36.01.36-.05.36-.02.36-.02.37-.01.36-.03.36.02.36-.03.36-.02.37-.02.36.01.36-.02.36-.02h1.09l.36.04.36-.01.37.02.36-.01h.36l.36-.04.36-.01.37.01.36-.02.36-.02.36-.03.36-.02.37-.01.36-.01h.36l.36-.02.37-.01.36-.03.36.03.36-.01h.36l.37.05.36-.01h.72l.36-.02.37.02h.36l.36.03.36-.03.36.02.37-.01h.36l.36-.04.36-.04.36-.02.37-.04h.36l.36.04.36-.01.37-.01.36.03.36-.02h.36l.36-.03.37.02.36-.04h.36l.36-.01.36-.02.37-.03.36-.02.36.01.36-.01.36-.02.37.03.36-.02.36-.04.36.04.37-.01.36-.01h.36l.36.01.36-.01.37-.02.36.03.36-.05.36.01.36-.02.37.03.36-.03.36.03.36-.01h.73l.36.02.36-.01h.36l.37-.04.36-.01.36-.03.36.01.36-.02.37-.03h.72l.36-.01h.36l.37.01.36.04.36.01.36.07.36-.04.37-.05.36.02.36-.02.36-.02.36-.01.37-.02.36-.02.36.03.36-.02.37-.02.36.06.36-.02.36.02.36.01.37.01.36.01.36.02.36-.01.36-.04.37-.02.36.01.36-.01h.36l.36-.05.37-.03.36-.01.36-.02.36.02.37-.03h.36l.36-.01.36-.01.36-.02.37-.04.36-.05.36.01.36-.02.36.03.37.02.36-.01.36.01h.36l.36-.03h.37l.36.01.36-.01.36-.02.36-.03.37-.01h.36l.36.02.36.03.37-.01.36.07.36-.01.36.02.36.04.37-.03.36.01.36.01.36-.04h.36l.37-.03h.36l.36.01.36.01.36-.02h.37l.36-.05.36-.01h.36l.37-.02.36-.01.36-.04.36-.02.36.01.37-.02.36.02.36-.01.36-.03.36-.03.37-.01.36.03.36-.05.36.02.36.04.37-.02.36-.04.36.06.36-.05.36-.02.37-.04.36.03.36.01.36-.02.37-.03.36-.03h.36l.36-.01.36.01.37.01.36-.01.36-.02.36.03h.36l.37.07.36-.02.36.04.36.01h.36l.37-.02.36.03.36.04.36.01h.37l.36-.02.36-.03.36-.07.36.03h.37l.36-.02.36-.01h.72l.37.02.36-.03.36-.01.36-.05.36-.01h.37l.36-.02h.36l.36.02.37.04.36.04.36.05.36-.05.36-.02.37.02.36-.02.36-.03.36.05.36-.03h.37l.36-.03.36-.02h.36l.36-.01.37-.02h.36l.36-.01h.36l.36.05.37.04h.36l.36.01.36.01.37-.04.36-.03.36-.01.36-.03.36-.01.37-.04h.36l.36.02.36.04.36-.02.37.01h.36l.36.01.36.02.36-.01.37.02h.36l.36.01.36-.03.37.04.36-.03.36.02.36-.01.36.03.37.02.36-.02.36-.01.36-.01.36.02h.37l.36.02.36.03.36-.05.36-.03.37-.04.36.02.36.02.36-.01.36.02.37-.03.36-.02.36-.03h.36l.37.05.36.03.36.03.36-.01.36-.03.37.04.36.05.36-.02.36-.07h.36l.37-.01.36.01h.36l.36-.01.36.04.37-.01.36.05.36.01h.36l.37-.02.36-.02h.36l.36-.02.36-.02.37.01h.36l.36-.03.36.02.36-.05h.37l.36-.02.36-.01.36-.01.36-.01.37.02.36-.02.36-.04.36.01.36-.01.37-.01.36-.03.36-.03.36.02h.37l.36.03.36-.01.36.02.36.01.37-.01.36-.03.36-.02.36.01h.36l.37-.03.36.02.36.04.36-.02.36-.02.37.02.36-.03h.36l.36.03.37.01.36-.03.36-.02h1.09l.36-.03.36.03.36-.04.36-.01.37.06.36-.02.36.02h.36l.36-.03.37-.02.36-.01.36-.01.36.02.37-.05.36.03.36-.01.36-.02.36.01h.37l.36.23.36-.01.36-.02.36.01.37.01.36-.02.36-.03.36.01.36.02.37-.01.36.02.36.01.36.03.36-.02.37.03.36-.01.36.01.36.01.37-.03.36.02.36.01.36.04.36-.06.37-.03.36-.03.36.06h.36l.36.02h1.09l.36.01.36-.01h.73l.36.04.36-.01h.37l.36.02.36.02.36-.02.36.03.37.02.36.01.36-.02.36-.01.36-.01.37-.01.36-.04.36.02.36-.04.36.04.37-.01.36.01.36-.02.36.02.36.02.37-.03h.72l.36.02.37.01.36-.02.36-.02.36.02.36.02.37.04.36-.02.36-.02.36-.01.36.02.37.01.36-.01.36-.03.36.02.36.02h.37l.36-.01h.72l.37.04.36.01.36.05.36.04.36-.03.37-.01.36-.02.36.03.36.01.36-.02.37-.03.36-.01h.36l.36-.01.36.01h.37l.36-.01.36-.03.36-.01.36-.02.37.01.36-.03.36-.01.36-.05.37.02.36.01h.36l.36-.02.36.02.37.01h.36l.36-.05.36-.03h.36l.37-.05h.36l.36.01.36-.01.36-.01.37-.01.36.01.36-.02.36.04.37-.01.36.04.36.04.36-.02.36-.02.37.01.36-.02.36-.02.36.03.36-.03.37.04.36.01.36-.02h.72l.37-.02.36-.03.36-.01.36.02.37.03.36-.03.36-.02.36-.03.36-.01h.37l.36-.04.36.01h.36l.36-.02.37-.02.36-.01.36-.06.36.02h.36l.37-.01.36.01.36-.02.36-.01.36-.03.37.03h.72l.36.01.37-.05.36.02h.36l.36.02.36.05h.37l.36-.01.36.02"/><use xlink:href="#e3d92__a" color="#EC6F1A" transform="matrix(3.75 0 0 3.75 125.4 55)"/><use xlink:href="#e3d92__a" color="#EC6F1A" transform="matrix(3.75 0 0 3.75 220.55 7.51)"/></g><text stroke-linecap="round" stroke-linejoin="round" color="#000" font-family="KaTeX_Main" font-size="8" transform="translate(241.1 25.11)"><tspan>RedBlackRelaxedTopDown</tspan></text><g fill="none" stroke="currentColor" stroke-linecap="round" stroke-linejoin="round" color="#000"><path stroke="violet" stroke-dasharray="4.0,2.0,1.0,2.0" d="M205.6 22.51h29.9M28 59.32l.36-.04.36-.03h.37l.36-.01.36-.04.36-.03.36-.04.37-.01.36-.03.36-.05.36-.04.37-.07.36-.02.36-.02.36-.03.36-.04.37-.04.36.02.36-.01h.36l.36-.04.37-.02.36-.01.36-.08.36-.04.36-.04.37-.06.36-.02.36-.05.36-.01.36-.06h.37l.36.02.36-.05.36-.07.37-.04.36-.03h.36l.36-.01.36-.01.37-.03.36-.05h.36l.36-.03.36-.03.37-.02.36-.04.36-.03.36-.03.36-.01.37-.05.36-.02.36-.02.36-.02.37.02.36-.03h.36l.36-.01.36-.02.37.01.36-.04.36-.04.36-.03.36-.02.37-.02.36.01.36-.04.36-.06h.36l.37-.05.36-.04.36-.03.36-.06.37-.07.36-.03.36-.02.36-.02.36-.03h.37l.36-.04.36-.02h.36l.36-.02.37.02.36-.01.36-.05.36-.04.36-.03.37-.05.36.02.36-.01.36-.02.36-.02.37-.03.36.02.36-.03h.36l.37-.07.36.01.36.03.36-.05.36-.01.37-.05.36.02.36-.04.36-.03.36-.02h.37l.36.01h.72l.36-.01.37-.01.36-.02.36-.04.36-.01.37-.03.36-.02.36-.03.36-.03.36-.05.37-.03h.36l.36-.01.36-.01.36-.04.37-.02h.36l.36-.04.36-.02.36.03.37-.02.36-.02.36-.03.36-.03.36-.04.37-.02.36-.04h.36l.36-.02.37-.02.36-.02.36-.03h.36l.36-.02h.37l.36-.04.36-.04.36.02h.36l.37.07.36-.01.36-.01.36-.02.36.03.37-.02.36-.02.36.02.36-.01.37-.05h.36l.36-.01.36-.02.36-.02.37-.03h.36l.36-.04.36-.06.36.02.37-.02.36-.02.36.01.36-.04.36-.06.37-.05.36.02h.72l.36.05.37.02h.72l.36.05.37-.02.36.02.36.01h.72l.37.03.36-.05.36-.02.36-.02.36.01.37-.05.36-.03h.36l.36-.05h.36l.37-.02.36-.01.36-.03.36-.01.37.02h.72l.36-.03.36-.01.37.02.36-.05h.36l.36-.03h.36l.37-.03h.36l.36-.01.36.01.36-.01.37-.01.36.03.36.03.36-.04.37.01.36-.05.36-.03.36-.02.36-.01h.73l.36-.02.36.01.36-.01.37.01.36.03.36-.02.36.01h.36l.37-.03h.36l.36-.05.36.03.36-.02.37-.01.36-.02.36.02.36-.01.37-.05.36-.01.36.01h.36l.36-.03.37-.03.36-.02.36.02h.36l.36.01.37.01.36-.03h.36l.36.03.36-.03.37-.05h.36l.36.01.36.02.37-.01h.36l.36.02.36-.02.36.06.37-.06.36-.04.36.01h.36l.36-.03.37-.01.36-.02.36-.03.36.04.36-.04h.73l.36-.05.36-.04.36-.02.37.02.36.01.36-.03.36.03.37-.03h.36l.36-.02.36.01h.73l.36-.02h.72l.36-.02.37.01.36.01.36-.01h.72l.37-.04.36-.02.36-.04.36-.03.37-.01.36-.03.36-.02.36-.02.36.01.37-.03.36-.03.36.03h.36l.36-.01.37-.02.36-.05.36.01h.36l.36.01h.37l.36-.02.36.03.36-.01.36-.02.37.03.36-.02.36-.01.36-.04.37.04.36-.02.36-.01.36.01.36.01.37-.03.36-.05.36.01.36.02.36-.02.37.03.36.02.36-.04.36.03.36-.03.37-.02.36-.03.36-.05.36.01.37-.03.36-.04.36-.03h.36l.36-.01.37-.01.36-.03h.36l.36-.01.36-.01.37-.03.36-.02.36.1.36.05.36.04.37.03.36-.01h.36l.36.01.37-.01h.36l.36-.05.36.01.36-.02.37-.03.36-.02h.36l.36-.01.36.01.37.04.36-.03.36-.06.36-.02.36-.03.37-.02.36-.02.36-.03h.36l.36.01.37.02.36.03.36.03.36-.03.37-.03.36-.02.36.01.36.05.36-.06.37.05.36-.02h.36l.36-.04.36-.02h.37l.36.03h.36l.36-.01.36-.05.37.02.36-.05.36-.08.36-.02.37-.02.36-.03.36.01.36.01.36-.02.37.07.36-.03h.36l.36-.02.36-.01.37.03.36.03.36.02.36.04.36.02h.37l.36.01.36-.02.36-.02.36-.02.37-.07.36-.03.36-.02h.36l.37-.02.36-.03.36-.02h.36l.36-.03.37.02.36-.06.36.01.36-.02.36.02.37.03.36-.01.36-.03.36-.01.36-.05h.73l.36-.02.36.02.37-.03.36.03.36.09h.36l.36-.03.37-.05.36.05h.36l.36-.03.36.01.37-.01h.36l.36.04.36-.02.36-.02.37.01.36.01.36.01.36-.02h.37l.36.1.36-.01.36.01.36-.03.37-.06h.36l.36.04h.36l.36-.03.37.06.36.04.36-.03.36.06.36-.05.37-.06.36.01.36.03h.36l.36-.03.37-.02.36-.02.36-.02.36-.01.37-.03.36.03.36-.03.36-.03.36-.01.37-.02.36.01.36-.01.36-.02h.36l.37.03.36.02.36.01.36-.01.36.02.37-.03.36-.01.36-.03.36-.04.37-.01h.36l.36.03.36-.01.36.01.37.02.36.01.36.01.36-.02.36.06.37.03.36-.05.36.02.36.01.36.01.37.01h.72l.36.03.36-.02.37-.04.36.02h.36l.36-.02.37-.03.36.05.36.02.36.02.36-.04.37-.03h.36l.36.02.36.03h.36l.37-.04.36-.03.36-.03.36.03.36-.02.37-.01.36-.02.36-.04h.36l.37-.03.36.02.36.01.36-.03h1.09l.36-.01.36-.01.36.01.37-.04h.72l.36.03.36.03.37-.01.36-.06.36.04.36-.03.36-.05.37-.04.36.02.36.02.36-.01.37-.03.36.01.36-.04.36-.04.36.01.37-.04.36-.01.36-.02.36.02.36-.01h.37l.36-.01.36.04.36.05.36-.01.37.03.36.01.36.01.36-.03.37.01.36-.01.36.01.36-.05h.36l.37.03.36-.03.36-.02.36.01.36-.01.37.02.36-.01.36-.03.36-.05.36.01.37.02h.72l.36.02.37-.01.36-.07.36.05h.36l.36-.01.37.01.36-.03.36-.05.36-.03h.36l.37.01.36-.02.36.05h.36l.36-.01.37-.04h.36l.36-.01.36-.01.36.05h.73l.36-.03.36.01.37-.05.36.03.36-.02.36.02.36-.07.37-.02.36-.03.36.05.36.09.36.01.37-.01.36-.01.36-.01.36-.02.36.02.37.04.36-.03.36.01.36-.02h.37l.36-.01.36-.04.36-.02.36.04.37.01.36.02h.36l.36.01.36-.03.37.02.36-.04h.36l.36-.02.36-.04.37-.04.36-.02.36.07.36-.02.36-.02.37-.03.36-.02.36.01h.36l.37.02.36-.03.36-.01.36-.01.36-.01.37.03.36.1.36-.03.36-.02.36.05h.37l.36.01.36-.02.36-.02.36.01.37.01.36.06.36-.01.36.02.37-.01h.36l.36-.01.36-.03.36.01.37-.03.36-.02.36-.03h.36l.36.01.37-.02.36-.01h.36l.36-.01.36.05.37-.01.36.03.36-.05.36.02h.36l.37.01.36.03.36-.05.36-.02h.37l.36.02.36-.02.36-.02.36-.01h1.09l.36.02h.36l.37-.02h.36l.36.01.36-.01.36-.03h.37l.36-.05.36.04.36.02.37.02.36.02.36-.03.36-.02.36.02.37-.01.36.02.36-.02.36-.02h.36l.37.01.36-.01.36.02.36.03.36.01.37-.02.36-.04.36-.02.36.01.37.03.36.01.36-.02.36.04h.36l.37-.02.36.01.36-.01.36.02.36.04.37.02.36-.03.36-.05h.36l.36.02.37.02.36.01.36-.02.36.07.36.03.37.03.36-.04h.36l.36.02.37.01.36.01.36.01.36.02.36-.01.37-.01.36-.04.36.06.36.07.36-.03.37.02.36-.01.36-.02h.72l.37.06.36-.03h.36l.36-.01h.37l.36.02h.36l.36.02.36.01.37.01.36-.03.36-.01.36.02.36-.06.37.01.36-.03.36.01h.72l.37.01.36.01.36-.02.36-.06h.36l.37-.05.36.01.36.02.36-.01h.37l.36-.01h.36l.36-.02.36.02.37.04h.36l.36-.01h.36l.36.02.37.02.36-.01.36-.03.36-.02.36-.02.37-.01.36-.03.36-.01.36-.04.37-.03.36-.01.36.03.36.03.36.02.37-.06.36-.02.36.02.36.01.36-.02.37-.04.36-.01.36-.03.36.01.36-.01.37-.03.36.01.36-.01h.36l.36.02.37-.02.36-.03.36.01.36-.05h1.09l.36.01.36.02.37-.05h.36l.36-.04.36-.04.36-.03h.73l.36-.01h.72l.37.02.36.04.36-.03.36.03.37-.04.36.04.36-.01.36-.01h.36l.37-.05.36.05.36.02.36.01.36.02h.37l.36.03.36.03.36.01.36.02.37.04h.36l.36-.01.36.02h.37l.36.01.36-.01.36-.03h.36l.37-.03.36-.03.36-.02.36.04h.73l.36.01.36.01.36-.02.36-.02h.37l.36-.01h.36l.36-.01.36-.02.37.02.36-.07h.36l.36.04.37.01.36.02.36.01.36.02.36-.01.37.01.36-.06.36.03"/><use xlink:href="#e3d92__d" color="violet" transform="matrix(3.75 0 0 3.75 182.98 53.89)"/><use xlink:href="#e3d92__d" color="violet" transform="matrix(3.75 0 0 3.75 220.55 22.51)"/></g><path fill="none" d="M28 45.01V162.5M371.99 45.01H28" color="#000"/></svg>