<svg xmlns="http://www.w3.org/2000/svg" xmlns:xlink="http://www.w3.org/1999/xlink" viewBox="0 0 400 200"><path fill="none" d="M0 0h400v200H0z"/><defs><use xlink:href="#ee61c__a" id="ee61c__e" fill="currentColor" stroke="none"/><use xlink:href="#ee61c__b" id="ee61c__c" fill="currentColor" stroke="none"/><use xlink:href="#ee61c__b" id="ee61c__d" stroke="currentColor" transform="rotate(180)"/><circle id="ee61c__a" cx="0" cy="0" r="1" stroke="currentColor" stroke-width=".267"/><path id="ee61c__b" stroke="currentColor" stroke-width=".267" d="m0-1.33-1.33 2h2.66z"/></defs><path fill="none" stroke="#CCC" stroke-linecap="round" stroke-linejoin="round" stroke-width=".1" d="M46.1 162.5V45.01" class="ee61c__gridline" color="#000"/><g fill="none" stroke-linecap="round" stroke-linejoin="round" stroke-width="0" color="#000"><path d="M46.1 162.5V155m0-109.99v7.5"/><text fill="#000" font-family="KaTeX_Main" font-size="8" text-anchor="middle" transform="translate(46.1 172.6)"><tspan> 1</tspan></text></g><path fill="none" stroke="#CCC" stroke-linecap="round" stroke-linejoin="round" stroke-width=".1" d="M82.31 162.5V45.01" class="ee61c__gridline" color="#000"/><g fill="none" stroke-linecap="round" stroke-linejoin="round" stroke-width="0" color="#000"><path d="M82.31 162.5V155m0-109.99v7.5"/><text fill="#000" font-family="KaTeX_Main" font-size="8" text-anchor="middle" transform="translate(82.31 172.6)"><tspan> 2</tspan></text></g><path fill="none" stroke="#CCC" stroke-linecap="round" stroke-linejoin="round" stroke-width=".1" d="M118.52 162.5V45.01" class="ee61c__gridline" color="#000"/><g fill="none" stroke-linecap="round" stroke-linejoin="round" stroke-width="0" color="#000"><path d="M118.52 162.5V155m0-109.99v7.5"/><text fill="#000" font-family="KaTeX_Main" font-size="8" text-anchor="middle" transform="translate(118.52 172.6)"><tspan> 3</tspan></text></g><path fill="none" stroke="#CCC" stroke-linecap="round" stroke-linejoin="round" stroke-width=".1" d="M154.73 162.5V45.01" class="ee61c__gridline" color="#000"/><g fill="none" stroke-linecap="round" stroke-linejoin="round" stroke-width="0" color="#000"><path d="M154.73 162.5V155m0-109.99v7.5"/><text fill="#000" font-family="KaTeX_Main" font-size="8" text-anchor="middle" transform="translate(154.73 172.6)"><tspan> 4</tspan></text></g><path fill="none" stroke="#CCC" stroke-linecap="round" stroke-linejoin="round" stroke-width=".1" d="M190.94 162.5V45.01" class="ee61c__gridline" color="#000"/><g fill="none" stroke-linecap="round" stroke-linejoin="round" stroke-width="0" color="#000"><path d="M190.94 162.5V155m0-109.99v7.5"/><text fill="#000" font-family="KaTeX_Main" font-size="8" text-anchor="middle" transform="translate(190.94 172.6)"><tspan> 5</tspan></text></g><path fill="none" stroke="#CCC" stroke-linecap="round" stroke-linejoin="round" stroke-width=".1" d="M227.15 162.5V45.01" class="ee61c__gridline" color="#000"/><g fill="none" stroke-linecap="round" stroke-linejoin="round" stroke-width="0" color="#000"><path d="M227.15 162.5V155m0-109.99v7.5"/><text fill="#000" font-family="KaTeX_Main" font-size="8" text-anchor="middle" transform="translate(227.15 172.6)"><tspan> 6</tspan></text></g><path fill="none" stroke="#CCC" stroke-linecap="round" stroke-linejoin="round" stroke-width=".1" d="M263.36 162.5V45.01" class="ee61c__gridline" color="#000"/><g fill="none" stroke-linecap="round" stroke-linejoin="round" stroke-width="0" color="#000"><path d="M263.36 162.5V155m0-109.99v7.5"/><text fill="#000" font-family="KaTeX_Main" font-size="8" text-anchor="middle" transform="translate(263.36 172.6)"><tspan> 7</tspan></text></g><path fill="none" stroke="#CCC" stroke-linecap="round" stroke-linejoin="round" stroke-width=".1" d="M299.57 162.5V45.01" class="ee61c__gridline" color="#000"/><g fill="none" stroke-linecap="round" stroke-linejoin="round" stroke-width="0" color="#000"><path d="M299.57 162.5V155m0-109.99v7.5"/><text fill="#000" font-family="KaTeX_Main" font-size="8" text-anchor="middle" transform="translate(299.57 172.6)"><tspan> 8</tspan></text></g><path fill="none" stroke="#CCC" stroke-linecap="round" stroke-linejoin="round" stroke-width=".1" d="M335.78 162.5V45.01" class="ee61c__gridline" color="#000"/><g fill="none" stroke-linecap="round" stroke-linejoin="round" stroke-width="0" color="#000"><path d="M335.78 162.5V155m0-109.99v7.5"/><text fill="#000" font-family="KaTeX_Main" font-size="8" text-anchor="middle" transform="translate(335.78 172.6)"><tspan> 9</tspan></text></g><path fill="none" stroke="#CCC" stroke-linecap="round" stroke-linejoin="round" stroke-width=".1" d="M371.99 162.5V45.01" class="ee61c__gridline" color="#000"/><g fill="none" stroke-linecap="round" stroke-linejoin="round" stroke-width="0" color="#000"><path d="M371.99 162.5V155m0-109.99v7.5"/><text fill="#000" font-family="KaTeX_Main" font-size="8" text-anchor="middle" transform="translate(371.99 172.6)"><tspan> 10</tspan></text></g><g fill="none" stroke-linecap="round" stroke-linejoin="round" stroke-width="0" color="#000"><path d="M371.99 162.5h-7.5"/><text fill="#000" font-family="KaTeX_Main" font-size="8" transform="translate(378.99 165.1)"><tspan>1.00</tspan></text></g><g fill="none" stroke-linecap="round" stroke-linejoin="round" stroke-width="0" color="#000"><path d="M371.99 147.81h-7.5"/><text fill="#000" font-family="KaTeX_Main" font-size="8" transform="translate(378.99 150.41)"><tspan>1.10</tspan></text></g><g fill="none" stroke-linecap="round" stroke-linejoin="round" stroke-width="0" color="#000"><path d="M371.99 133.13h-7.5"/><text fill="#000" font-family="KaTeX_Main" font-size="8" transform="translate(378.99 135.73)"><tspan>1.20</tspan></text></g><g fill="none" stroke-linecap="round" stroke-linejoin="round" stroke-width="0" color="#000"><path d="M371.99 118.44h-7.5"/><text fill="#000" font-family="KaTeX_Main" font-size="8" transform="translate(378.99 121.04)"><tspan>1.30</tspan></text></g><g fill="none" stroke-linecap="round" stroke-linejoin="round" stroke-width="0" color="#000"><path d="M371.99 103.75h-7.5"/><text fill="#000" font-family="KaTeX_Main" font-size="8" transform="translate(378.99 106.35)"><tspan>1.40</tspan></text></g><g fill="none" stroke-linecap="round" stroke-linejoin="round" stroke-width="0" color="#000"><path d="M371.99 89.07h-7.5"/><text fill="#000" font-family="KaTeX_Main" font-size="8" transform="translate(378.99 91.67)"><tspan>1.50</tspan></text></g><g fill="none" stroke-linecap="round" stroke-linejoin="round" stroke-width="0" color="#000"><path d="M371.99 74.38h-7.5"/><text fill="#000" font-family="KaTeX_Main" font-size="8" transform="translate(378.99 76.98)"><tspan>1.60</tspan></text></g><g fill="none" stroke-linecap="round" stroke-linejoin="round" stroke-width="0" color="#000"><path d="M371.99 59.7h-7.5"/><text fill="#000" font-family="KaTeX_Main" font-size="8" transform="translate(378.99 62.3)"><tspan>1.70</tspan></text></g><g fill="none" stroke-linecap="round" stroke-linejoin="round" stroke-width="0" color="#000"><path d="M371.99 45.01h-7.5"/><text fill="#000" font-family="KaTeX_Main" font-size="8" transform="translate(378.99 47.61)"><tspan>1.80</tspan></text></g><path fill="none" d="M28 45.01V162.5M371.99 45.01H28" color="#000"/><text stroke-linecap="round" stroke-linejoin="round" stroke-width="0" color="#000" font-family="KaTeX_Main" font-size="10" text-anchor="middle" transform="rotate(-90 57.63 46.13)"><tspan font-weight="bold">Allocations </tspan><tspan> / log</tspan><tspan dy="3" font-size="8">2</tspan><tspan dy="-3">(Size)</tspan></text><text stroke-linecap="round" stroke-linejoin="round" stroke-width="0" color="#000" font-family="KaTeX_Main" font-size="10" text-anchor="middle" transform="translate(199.99 195.75)"><tspan>Operations / 10</tspan><tspan dy="-5" font-size="8">6</tspan></text><text stroke-linecap="round" stroke-linejoin="round" stroke-width=".5" color="#000" font-family="KaTeX_Main" font-size="8" transform="translate(76.8 10.11)"><tspan>AVLBottomUp</tspan></text><g fill="none" stroke="currentColor" stroke-linecap="round" stroke-linejoin="round" stroke-width=".5" color="#000"><path stroke="#000" d="M41.3 7.51h29.9M28 146.7l.36-.76.36.73.37 4.2.36-1.5.36-1.82.36-1.12.36-.87.37-1.51.36.22.36 3.01.36-.08.37-1.06.36 3.16.36.94.36-.56.36-.74.37-1.03.36-.49.36.58.36-1.02.36-1.15.37-1.39.36-1.18.36 1.75.36 1.14.36 2.58.37 1.5.36-.56.36-.78.36-.8.36-.75.37-.71.36-.81.36-.85.36-.74.37-.76.36-.85.36-.98.36 4.09.36 1.76.37-.96.36-.78.36-1 .36-.65.36 3.27.37.31.36-.81.36-.7.36-1.05.36-.65.37 9.78.36.07.36-.04.36-.12.37-.02.36.03.36.14.36-1.42.36-1.94.37.1.36.48.36-.01.36.13.36.06.37.02.36.13.36.06.36.12.36 1.84.37.52.36-.12.36.03h.36l.37-.4.36 1.17.36.14.36-.16.36.03.37-.05.36-.03.36.01.36-.22.36-.08.37-.31.36.17.36.19.36 1.04.36.07.37.06.36-1.05.36.03.36-.04.36-.1.37-1.36.36-.35.36.01.36-.16.37.13.36-.11.36-.28.36.03.36-.04.37.05.36-.35.36-.65.36.16.36.09.37 1.99.36.71.36-.13.36.1.36-.06.37.02.36-.03.36-.05.36-.11.37-.03.36-.15.36-.13.36-.02.36-.26h.37l.36 1.34.36-.13.36.07.36.11.37-.07.36 1.86.36.47.36.05.36-.16.37-.16.36.06.36-1.4.36-2.05.36.28.37-.13.36.02.36.06.36.04.37.11.36-.1.36-.06.36-.05.36-.23.37.15.36-.33.36-.18.36-.05.36-.22.37-.05.36.02.36.33.36-.28.36-.22.37-.36.36-.33.36-.11.36.03.37 3.74.36-.09.36.09.36.07.36-.14.37-.28.36.09.36-.25.36-1.3.36-1.96.37.73.36.5.36.02.36-.02.36.02.37-.1.36-.04.36-.01.36-.07.36.02.37-.02.36-.08.36-.05.36-.1.37 1.74.36.65.36-.08.36-.23.36-.32.37-.26.36-.13.36-.24.36-.36.36-.09.37.07.36-.02.36-.38.36-.14.36-.11.37-.34.36-.02.36-.3.36-.55.37 1.91.36 2.72.36.06.36.05.36.91.37.06.36.25.36-.38.36.21.36.17.37-.55.36-.3.36-.04.36-1.26.36.13.37-.01.36-.15.36.23.36-.13.37.15.36-2.12.36-1.12.36.11.36-.15.37-.17.36.13h.36l.36-.02.36.05.37-.02.36-.01h.36l.36-.2h.36l.37 1.14.36.61.36.01.36.13.36.36.37.08.36-1.68.36-.69.36-.11.37-.12.36.06.36.31.36 1.28.36-.15.37.01.36-1.33.36.16.36.13.36-.01.37.07.36 1.3.36 1.42.36.16.36-.2.37.02.36.06h.36l.36-.04.37-.21.36-.01.36-.13.36-.08.36.69.37-1.65.36.68.36-.29.36-.12.36-.32.37-.4.36-.37.36-.25.36.01.36-.39.37-.28.36-.11.36 3.53.36.39.36.26.37-.09.36-.14.36-.12.36.04.37-.08.36-.97.36-.73.36-1.22.36.02.37.07.36-.05.36.17.36.02.36.14.37.38.36.3.36-2.66.36-.14h.36l.37 2.47.36.77.36-.36.36-.4.37-.14.36.13.36.16.36-.14.36.06.37-.07.36-.15.36.15.36.14.36-.07.37 1.16.36.35.36-.08.36-.64.36-.18.37-.27.36-.4.36-1.22.36-.26.36-.52.37.11.36 3.98.36.08.36-.18.37-.29.36-1.25.36-.15.36-.07.36-.1.37.16.36-.15.36-.6.36.07.36-.13.37-.16.36.98.36.41.36.19.36-.12.37-2.54.36-.13.36-.06.36.23.37 2.33.36.83.36-.13.36-.01.36-.31.37-.05.36-.26.36-.14.36-.11.36-.27.37-1.43.36-1.01.36.56.36 2.45.36-.01.37-.12.36.18.36-.03.36-.17.37.14.36.11.36.45.36.09.36.1.37.13.36.25.36.35.36.04.36.04.37.21.36.35.36-.16.36-.03.36.25.37-.24.36-.58.36-2.88.36-.04.36-.03.37.09.36-.07.36-.15.36.03.37.22.36-.19.36-.02.36 1.82.36 1.23.37.11.36-.4.36-.19.36-.14.36-.09.37-.11.36-2.28.36.13.36-.18.36.09.37.01.36.06.36-.23h.36l.37-.04.36-.06.36-.21.36 2.05.36 1.44.37-.86.36.1h.36l.36-.06.36.01.37-.05.36.11.36-.09.36.14.36-.05.37-1.51.36-1.74.36.32.36.43.36.15.37.67.36-.17.36.07.36-.11.37-.24.36-.19h.36l.36-.15.36-.11.37 1.21.36 1.86.36-.37.36-.18.36-.15.37-2.38.36-.24.36-.22.36-.12.36-.06.37-.21.36-.13.36-.17.36 2.68.37.04.36-.03.36-.02.36-.07.36.27.37.18.36.22.36-.11.36-.02.36.16.37-.03.36.1.36.16.36.06.36.22.37.1.36-.15.36.18.36.04.37-.03.36-2.85.36-.3.36 1.45.36 2.01.37.1.36.06.36-.15.36.2.36-.06.37-1.5.36-1.1.36.34.36 1.16.36.29.37.23.36.47.36.22.36.11.36.48.37.88.36.05.36-.17.36-1.54.37.24.36.18.36.17.36.16.36-.04.37.39.36.24.36-.09.36.19.36-.09.37-.56.36-2.43.36.05.36-.16.36.03.37-.19.36.1.36-.18.36-.06.37-.05.36-.04.36.48.36.09.36-.1.37.04.36-.16.36-2.33.36 2.26.36-.04.37.08.36-.12.36-.26.36-.13.36-.12.37-.28.36-.33.36-.14.36-.17.36-.23.37-.31.36-.24.36-.39.36.13.37 1.2.36.24.36-.14.36-.23.36-.11.37-.36.36-.25.36-.24.36-.16.36-.03.37.37.36 3.54.36 1.63.36-1.6.36-1.17.37-.03.36.09.36.11.36-.13.37-.04.36-.02.36.05.36-.17.36-.09.37-.03.36-.08.36.02.36-.12.36.15.37-1.54.36-1.3.36-.15.36.2.36-.06.37-.01.36 2.81.36.4.36-.23.36.12.37-.16.36-.15.36-.08.36.03.37-.22.36-.01.36-.1.36.06.36-.06.37-.24.36-.12.36-.25.36.04.36-.18.37-.08.36-.24h.36l.36 1.92.36 2.63.37-.01.36-2.51.36-1.85.36-.14.37-.1.36.02.36-.35.36.03.36.79.37 1.53.36.01.36.07.36.06.36.11.37.05.36-.14.36-.07.36.01.36-.13.37-.2.36-1.86.36.67.36.56.37.21.36.06.36.08.36.11.36-.18.37-.01.36-.03.36.2.36-.23.36-.06.37-.07.36.1.36.17.36-.25.36-.18.37-.26.36 2.08.36.02.36-.31.36.04.37-.09.36-.15.36-.8.36-1.1.37-.61.36-.06.36.01.36-.13h.36l.37 1.9.36.89.36.06.36-.2.36-.01.37-.01.36-.25.36.11.36-.27.36.03.37-.18.36-.11.36.02.36.07.37-.12.36.21.36-.07.36.01.36-.05h.37l.36.05.36-.07.36-.08h.36l.37-.06h.36l.36-.37.36-.26.36.6.37-.78.36-.52.36-.2.36-.09.36.01.37-.16.36-.18.36.02.36-.14.37-.15.36.9.36.37.36.08.36-.13.37.46.36 1 .36-.13.36.1.36-.18.37-.01.36-.02h.36l.36-.32.36-.11.37-.14.36 1.42.36 1.03.36-.21.37.21.36 1.61.36.09.36-.04.36.11.37.07.36-.15.36.18.36-.44.36-1.07.37-.1.36-1.36.36-.43.36-.13.36.01.37-.04.36-.03.36-.19.36-.18.36-.01.37-.23.36.18.36-.09.36-.16.37-.08.36.26.36-.14.36.52.36.05.37-.21.36-.32.36-.2.36.17.36 1.69.37.84.36-.29.36-.18.36-.29.36-.63.37.13.36-2.6.36-.81.36-.1.37 1.47.36 1.86.36-.05h.36l.36-.02.37-.1.36-.09.36.03.36-.17.36-.26.37-.1.36-.22.36-.02.36-.31.36.98.37-.23.36-.14.36-.2.36-.45.37-.13.36-.14.36-.45.36-.2.36-.15.37 3.93.36.28.36-.23.36-.06.36.16.37-.06.36.06.36-.82.36-.17.36-.09.37.07.36.09.36.05.36.2.36.2.37-.01.36-2.69.36-.93.36-.1.37-.15.36-.06.36 3.02.36-.11.36-.12.37-.19.36.06.36-.08.36-.2.36-.23.37-.2.36-.23.36-.04.36.15.36-.03.37-.15.36-.21.36-.04.36-.14.37 1.02.36-.06.36-.13.36-.08.36-.09.37-.1.36-.27.36-.06.36 2.83.36.08.37.11.36.06.36-.95.36-.73.36.01.37.21.36.13.36-.22.36-.17.36-1.18.37.19.36-.69.36.01.36.15.37.14.36-.08.36.24.36.01.36-.01.37-.03.36.03.36.07.36-.13.36.02.37-.08.36-.01.36-.09.36 1.04.36.81.37-.3.36-.35.36-.09.36-.45.37-.34.36-.36.36-.25.36-.36.36-1.23.37-.36.36 1.95.36-.26.36-.18.36-.27.37-.14h.36l.36-.13.36-.45.36-.04.37-.12.36-.23.36-.12.36-.05.36 4.61.37.7.36-.23.36-.18.36-.25.37.01.36.09.36-.03.36-.29.36.06.37-1.28.36-2.88.36-.01.36.16.36.91.37-.02.36.49.36 2.71.36.18.36-.03.37.12.36-.1.36-.12.36-.1.37.23.36-.18.36-.2.36.13.36-.3.37-.16.36-.06.36-.03.36-.25.36-.37.37.05.36-.15.36-.42.36-1.2.36.01.37-.08.36-.02.36 4.12.36.48.37-.06.36-.25.36.28.36-.26.36.02.37-.17.36-3.09.36-.88.36.06.36-.03.37-.04.36-.06h.36l.36.07.36.17.37-.08.36.12.36-.55.36-.33.36.18.37 1.27.36 1.48.36.15.36-1.51.37-.97.36.05.36-.07.36-.05.36-.41.37-.04.36.13.36.03"/><use xlink:href="#ee61c__c" transform="matrix(3.75 0 0 3.75 354.25 155.34)"/><use xlink:href="#ee61c__c" transform="matrix(3.75 0 0 3.75 56.25 7.51)"/></g><text stroke-linecap="round" stroke-linejoin="round" color="#000" font-family="KaTeX_Main" font-size="8" transform="translate(76.8 25.11)"><tspan>AVLWeakTopDown</tspan></text><g fill="none" stroke="currentColor" stroke-linecap="round" stroke-linejoin="round" color="#000"><path stroke="#FFAB00" stroke-dasharray="4.5,2.0,0.5,2.0,0.5,2.0" d="M41.3 22.51h29.9M28 143.47l.36 1.69.36-4.89.37 2.87.36 1.49.36.26.36-4.1.36 2.69.37.94.36 1.44.36-2.13.36-1.34.37 3.01.36.95.36-2.93.36-3.6.36 2.53.37-.09.36.55.36 2.56.36.62.36-.37.37-2.3.36.92.36-2.2.36-.96.36 1.92.37.23.36-1.1.36-.87.36 1.73.36.2.37-.63.36-.26.36-.25.36-1.88.37 1.51.36 1.79.36-2.47.36 1.05.36 2.54.37-1.99.36-.92.36 2.12.36-.42.36-3.06.37-.62.36 4.35.36 1.19.36-3.9.36-2.52.37 1.74.36 4.24.36-1.3.36.87.37 2.16.36-2.8.36-.88.36 2.35.36-4.16.37 3.26.36.62.36-3.59.36-1.88.36 2.61.37 1.45.36-1.29.36.35.36-.23.36-2.32.37 3.36.36-.13.36-3.34.36 2.69.37-1.69.36-2.55.36 2.24.36 4.66.36-.36.37 2.55.36-4.2.36-1.97.36-2.09.36.22.37 1.41.36 2.66.36-1.44.36.46.36-4.08.37 6.17.36 1.37.36-.83.36-1.91.36.95.37-.72.36-2.96.36 2.81.36 3.05.37-.73.36-1.42.36-.59.36.16.36-2 .37-.04.36 2.82.36 2.41.36-1.26.36-2.01.37-.36.36.03.36.55.36 2.72.36-.68.37-3.03.36 1.49.36 1.27.36-.53.37-.25.36-.76.36-1.14.36-3.29.36 3.72.37 1.74.36-1.71.36-4.81.36 1.75.36 3.3.37 1.31.36 1.47.36-3.9.36.72.36 1.41.37-2.15.36 1.8.36 1.65.36 1.2.36-1.49.37-4.51.36 1.79.36 3.93.36-.26.37-4.07.36 1.42.36-.17.36.82.36-.36.37-.96.36-.18.36 1.51.36 3.15.36-1.76.37-3.94.36-1.05.36.84.36 1.99.36 3.08.37-5.12.36.1.36-.6.36 1.55.37 1.51.36-1.22.36.81.36 2.73.36-.8.37-5.11.36 1.52.36 2.71.36 1.36.36 1.26.37-1.62.36-1.29.36-1.97.36-.56.36.66.37 1.83.36-2.26.36-2.18.36 3.17.36 1.41.37.22.36 2.91.36-2.86.36-1.2.37-1.88.36 1.83.36-.23.36-1.85.36.85.37.63.36.23.36 1.92.36-.48.36-3.07.37-.15.36 3.14.36 2.5.36-2.32.36-1.58.37-3.06.36-.04.36 3.63.36 1.07.37-1.52.36-2.34.36 2.92.36-5.54.36.36.37 1.98.36 2.22.36-1.75.36 1.84.36 1.29.37-5.05.36.89.36.18.36 2.13.36-.56.37.45.36-.67.36-.33.36 3.21.37-3.37.36 1.68.36 2.38.36-1.25.36-.49.37-4.61.36 2.24.36.42.36-2.85.36-.58.37 4.77.36-1.61.36.1.36 2.47.36-1.01.37 2.71.36-.73.36-1.97.36-1.06.36 2.99.37.37.36-2.63.36-5.97.36 4.55.37-2.91.36 2.18.36-2 .36 1.94.36.69.37-1.01.36 1.46.36 1.1.36 3.09.36 1.06.37-2.28.36-4.07.36.35.36 5.67.36 1.96.37-3.55.36-.49.36-3.81.36 1.08.37.86.36 3.11.36.79.36-.73.36.8.37-4.67.36 2.06.36 2.34.36-.65.36-4.4.37 2.76.36 4.34.36-3.9.36-1.6.36.41.37 3.07.36.08.36.77.36-.78.36-4.7.37-.34.36 1.77.36 2.53.36 2.69.37-3.94.36-1.83.36.04.36 2.7.36.37.37-2.8.36 1.28.36 2.13.36-.95.36-1.46.37.17.36 2.42.36-2.13.36.24.36.15.37-2.92.36 2.04.36 1.47.36-.33.37-.28.36-2.39.36-1.62.36 3.36.36 1.43.37-2.19.36.7.36-.09.36-2.1.36 4.23.37.59.36.17.36-3.73.36.06.36-2.77.37 2 .36-.68.36 3.21.36 1.85.36-1.73.37-3.31.36-.24.36 2.25.36-1.19.37 3.04h.36l.36-4.99.36 3.25.36.7.37 1.05.36-4.2.36 2.55.36-1.63.36 3.5.37.25.36-.61.36-1.98.36-.03.36 2 .37 1 .36-2.52.36-.78.36 1.3.37.34.36 1 .36-1.27.36-3.16.36 4.32.37 1.03.36-4.4.36-2.43.36 2.45.36 1.24.37 1.11.36-2.96.36 1.64.36 2.42.36-2.51.37.81.36-.13.36-2.85.36.92.37 1.87.36.15.36.11.36 1.62.36 1.46.37-1.78.36-.01.36-.62.36-1.06.36-1.08.37 1.51.36 3.07.36-7.06.36-.79.36 3.74.37 2.51.36-6.28.36 1.02.36 1.66.36 2.67.37-.68.36-.16.36-.1.36-.83.37 2.62.36-1.11.36-2.29.36 3.29.36-1.81.37-4.77.36 1.73.36 2.92.36 1.35.36-2.16.37 1.5.36 2.47.36-.86.36-.66.36-3.72.37 1.58.36 3.2.36-2.31.36-.18.37-2.01.36-3.52.36 1.18.36 2.73.36 1.98.37.81.36 1.47.36-.15.36-.38.36-5.08.37 1.05.36 2.71.36-1.51.36-1.77.36 3.49.37 1.28.36-2.74.36-2.93.36.89.36 2.82.37-.54.36-.84.36 4.01.36-3.85.37-.99.36-.69.36.56.36.96.36-1.66.37-3.9.36 4.76.36 1.17.36-.21.36-1.04.37-.62.36-.23.36 2.47.36.91.36-.77.37-.34.36-1.04.36 1.34.36 2.79.37-2.4.36-.13.36 1.47.36-6.48.36.72.37 1.72.36 1.89.36 1.47.36-.81.36-.64.37 2.63.36-1.09.36-4.37.36.29.36 2.32.37 1.27h.36l.36.31.36.7.37-6.44.36 3.49.36 1.76.36 1.08.36-.6.37 1.43.36-2.18.36-.57.36 2.99.36-.16.37-2.07.36.01.36.97.36-1.12.36-4.24.37 5.58.36.73.36-1.65.36.24.36.09.37-3.72.36 1.88.36 2.97.36-.61.37-4.61.36 1.13.36-.14.36 3.41.36 1.42.37 1.1.36-2.65.36 1.37.36-1.23.36-2.88.37 1.57.36.87.36-1.92.36-1.64.36 5.8.37.77.36-2.26.36-3.63.36-2.29.37 4.79.36 4.57.36-3.23.36-1.05.36-2.21.37.93.36 3.72.36-.43.36-4.23.36.23.37 2.72.36 2.44.36-2.44.36-.32.36-2.26.37.32.36 3.67.36.56.36-3.74.36 1.73.37-6.19.36 2.09.36 2.3.36-1.36.37-2.13.36 2.2.36 3.74.36-3.96.36 2.6.37 1.51.36-5.36.36-.59.36 4.3.36-4.22.37.71.36 2.34.36-.44.36 1.43.36-.48.37-.69.36.77.36-.83.36 1.22.37.91.36 1.36.36-.91.36-.39.36.85.37-4.81.36 1.08.36 3.02.36.15.36-5.12.37.03.36 2.61.36 1.91.36-1.18.36-3.89.37 3.93.36 1.21.36.03.36-4.29.36 6.42.37.29.36-6.62.36.42.36.47.37 2.07.36.63.36-5.24.36.79.36 5.07.37-3.52.36 1.55.36 3.38.36-.51.36-1.47.37-2.4.36.82.36 1.56.36-4.92.36-1.34.37.31.36 6.47.36-.83.36-.27.37-2.15.36 2.66.36-.06.36-4.2.36 1.79.37 2.42.36-1.85.36.3.36-.86.36.62.37-2.06.36 4.62.36-.86.36 1.5.36-1.45.37.74.36-.35.36-.04.36.73.37-1.11.36-2.67.36 2.56.36 4.34.36-2.11.37-4.27.36 1.07.36 2.16.36.36.36-1.72.37-.45.36 1.11.36-1.43.36-3.23.36.77.37 2.01.36-.87.36 1.43.36 3.74.36-1.59.37.57.36-3.61.36 1.48.36 2.18.37-1.4.36-1.23.36-1.28.36 1.18.36.67.37 1.34.36 1.62.36-1.55.36-.4.36-1.27.37-1.62.36 3.02.36-1.43.36 1.97.36 1.79.37-2.38.36 2.31.36-2.45.36-3.34.37 4.15.36.87.36-2.29.36-1.77.36-.94.37 2.01.36 3.18.36-1.32.36-4.49.36.45.37-.99.36-.08.36 3.94.36-.99.36 3.46.37-1.27.36.58.36-.29.36-1.24.36-1 .37 4.39.36.77.36-5.06.36-.4.37 2.24.36-3.23.36-.12.36-.26.36-2.36.37-.87.36-.28.36.37.36 2.02.36 1.48.37 3.49.36-1.28.36 1.31.36-1.82.36-.36.37-2.11.36 2.44.36-.03.36-4.22.37 2.43.36-.61.36-.44.36 1.07.36 2.37.37-1.69.36 3.14.36-.7.36 1.02.36.39.37-1.96.36-3.73.36 2.92.36 1.27.36-2.52.37-2.36.36 1.44.36.15.36.14.36 1.13.37.61.36 3.51.36-1.39.36-3.55.37-.27.36 2.79.36 2.44.36-1.52.36-.74.37-5.6.36 2.89.36 1.58.36-1.88.36 2.76.37.94.36-2.11.36.68.36-.25.36-1.75.37-.7.36-1.47.36 1.99.36 3.33.37.18.36-1.67.36 2.1.36-1.42.36.25.37.44.36-1.76.36-.6.36 2.21.36-2.19.37-.2.36.85.36 2.03.36-2.29.36.98.37.5.36-4.97.36-.47.36 2.87.37 1.77.36-5.42.36-1.75.36 6.44.36 2.89.37-1.84.36-1.15.36-.13.36-.47.36.96.37-1.21.36 3.08.36.02.36-1.69.36-1.82.37.15.36 3.33.36-4.17.36-.62.36.93.37 2.5.36-.29.36 2.07.36-3.5.37-2.19.36 2.12.36 1.52.36 2.07.36-.87.37 1.19.36-2.59.36-.27.36.13.36 2.73.37-1.05.36.05.36.18.36-4.1.36 2.12.37.95.36-.75.36.68.36 3.86.37-3.46.36 1.4.36-2.37.36-.59.36.32.37-2.1.36 3.71.36 2.12.36.06.36-5.71.37 1.35.36 1.93.36 2.41.36-.92.36-1.58.37-.76.36.33.36 3.24.36-5.01.36-2.05.37 1.72.36 3.57.36-.17.36.91.37-2.19.36-.71.36 3.23.36-4.13.36 2.61.37-1.34.36 1.99.36 1.02.36-.7.36-4.6.37-2.93.36.35.36-.54.36 2.18.36 1.37.37.92.36.83.36-.13.36 1.03.37 1.71.36.88.36-1.64.36-1.27.36-.68.37-.26.36.69.36.49.36-2.74.36 3.16.37-1.36.36-1.71.36 1.29.36 2.88.36-1.77.37-3.68.36 4.09.36.04.36-.61.36.08.37 1.28.36-.12.36-4.46.36 1.51.37 2.25.36 2.27.36-1.11.36-1.23.36-3.07.37.9.36 2.07.36 1.94.36-.48.36 1.05.37-2.88.36.43.36-3.29.36 1.12.36-.11.37 1.19.36 1.87.36.12.36.69.37-5.1.36 2.5.36.81.36-2.21.36 1.09.37 1.86.36-2.03.36.25.36-1.54.36-2.41.37 1.99.36 3.66.36-1.02.36-.28.36-3.58.37 2.91.36.61.36.98.36-2.04.37-.62.36.82.36.49.36-.58.36.33.37.3.36-.2.36-1.14.36-3.54.36 3.74.37.3.36 1.94.36-.43.36.39.36-6.76.37 2.62.36 2.68.36 3.57.36-.08.36-3.07.37-.16.36.08.36.11.36 2.2.37-2.69.36 3.04.36.1.36-3.24.36-1.43.37 1.01.36 1.89.36-1.19"/><use xlink:href="#ee61c__d" color="#FFAB00" transform="matrix(3.75 0 0 3.75 67.83 143.91)"/><use xlink:href="#ee61c__d" color="#FFAB00" transform="matrix(3.75 0 0 3.75 56.25 22.51)"/></g><text stroke-linecap="round" stroke-linejoin="round" color="#000" font-family="KaTeX_Main" font-size="8" transform="translate(241.1 10.11)"><tspan>AVLRelaxedBottomUp</tspan></text><g fill="none" stroke="currentColor" stroke-linecap="round" stroke-linejoin="round" color="#000"><path stroke="#D336C8" d="M205.6 7.51h29.9M28 138.07l.36-.4.36-.41.37.69.36 1.13.36-2.77.36.12.36 1.31.37 4.66.36.23.36.32.36-1.33.37-.74.36-.79.36-.51.36.69.36.6.37-2.23.36-2.33.36.33.36.57.36-.32.37 3.79.36 3.44.36-.9.36-1.04.36.7.37-1.69.36-1.55.36.21.36-.63h.36l.37-.35.36.11.36-2.37.36-.08.37-1.39.36.85.36-2.74.36-2.64.36 1.67.37-1.84.36.21.36.78.36-1.12.36-.23.37-1.05.36-1.27.36 1.36.36 5.83.36-1.7.37-.89.36-.48.36-.67.36-.25.37-2.8.36 1.16.36 1.23.36.43.36-2.49.37-.19.36 1.44.36-2.01.36-.58.36 2.04.37 5.53.36-.79.36-.26.36 1.97.36-1.5.37-1.72.36 1.23.36-1.59.36 1.16.37 3.66.36-2.13.36-.29.36.98.36-2.58.37-1.88.36.04.36.22.36 1.01.36 5.51.37-1.16.36-1.03.36.43.36-2.04.36-2.44.37-1.37.36-.54.36 1.47.36 3.56.36-.89.37-2.74.36-2.23.36-.58.36 1.17.37 4.51.36.63.36.6.36-.5.36-1.2.37-.39.36-.82.36-1.33.36.47.36-2.72.37 1.54.36-.54.36-.18.36 4.48.36 2.37.37-2.96.36-.14.36-.26.36-3.39.37.98.36-1.08.36 3.12.36-2 .36-.83.37.62.36 3.76.36 1.17.36 1.16.36-1.22.37-2.19.36.11.36 1.07.36.16.36-4.87.37-2.29.36-2.52.36 1.26.36.03.36.83.37-1.44.36-.7.36-1.11.36 3.51.37-1.12.36 1.35.36-.28.36-1.07.36 1.11.37-2.21.36-1.48.36-1.01.36-1.02.36-.35.37 4.6.36-.39.36 1.5.36-1.2.36-2.17.37.99.36.3.36-.24.36 3.29h.37l.36-1.59.36.2.36-3.36.36.83.37-.45.36 1.37.36.06.36 2.1.36.58.37-1.68.36-.49.36-1.36.36-.39.36-.37.37.07.36.38.36-1.64.36-.66.36-.12.37-.67.36-.67.36 3.24.36 3.53.37.01.36-1.51.36-.58.36-1.72.36-1.71.37-1.28.36 1.82.36 2.31.36-3.08.36-.44.37 5.26.36 1.62.36-1.24.36-1.31.36-1.28.37-1.03.36-.52.36-.36.36 4.11.37.72.36-1.24.36-.17.36-1.45.36-2.43.37.19.36-2.44.36 4.13.36 2.09.36-1.27.37-.5.36.53.36 4.68.36.76.36-1.13.37-2.57.36-1.23.36-2.22.36 1.25.37-2.26.36.35.36 4.44.36.79.36 1.31.37-1.33.36-1.88.36-1.36.36-1.49.36-2.2.37 3.1.36 3.47.36-1.08.36 2.84.36-1.34h.37l.36-3.07.36-2.01.36-.45.36 4.3.37 2.75.36-.66.36-1.26.36-.86.37.19.36-2.76.36-1.62.36 2.07.36 2.55.37 2.93.36-.93.36-.91.36.12.36-3.31.37-.84.36 2.4.36-2.82.36-3.35.36.4.37 1.73.36-.23.36 4.95.36-1.23.37-.95.36-1.69.36.51.36.56.36-.96.37.16.36 3.27.36-1.5.36-3.47.36-.75.37 1.99.36-2.55.36 1.09.36-.08.36 5.93.37-.2.36-.23.36-1.38.36-2.42.36.37.37-1.36.36 2.48.36-.11.36 4.3.37.31.36-2.8.36-.64.36.29.36 1.43.37-2.28.36-.36.36-1.01.36-1.97.36-1.01.37-.62.36-.69.36-1.87.36-.26.36-.45.37-.52.36-.38.36-2.01.36-.5.37 2.67.36 3.77.36-3.64.36-1.72.36.05.37-.07.36-1.05.36-.51.36.2.36-.5.37.64.36 1.66.36-3.02.36.83.36.1.37-.31.36 6.3.36-2.33.36-.05.36-2.03.37-.5.36 2.42.36-.16.36 3.45.37-.49.36-1.49.36-1.41.36-1.75.36 1.82.37-2.95.36 2.22.36.62.36-1.64.36 1.62.37 1.49.36 2.45.36-2.59.36-1.88.36.18.37-3.05.36-.89.36-1.61.36.09.37 3.33.36 2.33.36.28.36-.63.36-2.45.37 3.89.36-1.56.36 1.35.36-1.94.36-.53.37-.62.36.31.36-.15.36-.15.36 1.19.37 6.12.36-.63.36-.06.36 1.91.37-2.52.36-2.14.36 1 .36-.47.36-.2.37-2.3.36-1.36.36 2.84.36-.67.36-1.79.37-1.38.36 2.03.36-.32.36 2.33.36-.69.37-.07.36-3.14.36 3.24.36 1.09.36.34.37-2.01.36-1.06.36-1.13.36.87.37-.14.36 2.68.36-1.27.36.28.36 3.33.37-1.3.36.28.36-2.11.36-1.32.36.13.37 1.01.36-2.14.36.22.36-1.43.36 2.38.37 2.27.36-.23.36 2.33.36-1.47.37-.81.36-2 .36-.67.36 2.36.36 1.32.37-2.53.36-3.14.36 5.42.36-1.34.36 1.24.37.13.36.6.36-2.66.36-.55.36.66.37-2.33.36-.58.36-.9.36 5.82.36-2.26.37.42.36-2.18.36.21.36-.66.37.48.36-.53.36-.03.36 2.52.36-.09.37-.74.36.98.36 3.47.36-2.66.36-.25.37-1.89.36 1.23.36-.17.36-2.1.36-.13.37.52.36-.29.36 5.06.36-1.57.37 1.13.36-2.92.36-.88.36-.18.36-.56.37.97.36.5.36-1.53.36-1.9.36-.63.37 2.57.36-.46.36.69.36 3.04.36.23.37 1.58.36-.12.36-.62.36-2.14.37-.29.36 1.18.36.2.36-2.71.36-.67.37 5.21.36-1.01.36-2.05.36-1.33.36-1.63.37 1.19.36.03.36-1.84.36-.81.36.18.37.34.36-1.75.36.72.36-.53.36-.82.37 6.34.36-1.2.36-.81.36-1.76.37 1.15.36 1.27.36.4.36.01.36.18.37-2.03.36-1.41.36-.24.36 2.75.36 2.37.37-1.7.36.69.36-.04.36 2.43.36-.18.37-.23.36-1.04.36-1.28.36 3.1.37-2.47.36-1.1.36-1.14.36-1.12.36 1.41.37-1.43.36 1.05.36 1.56.36-.49.36-2.23.37 5.15.36-.55.36-1.24.36-.83.36-1.32.37-2.27.36.45.36-.01.36-.56.36 1.25.37 2.76.36 1.54.36 1.82.36-.92.37-2.19.36-2.09.36-.06.36 1.41.36-.14.37.54.36.44.36.44.36-1.22.36 3.05.37.12.36-1.3.36-3.19.36-.78.36.25.37-.73.36.37.36-.08.36 3.14.37-.69.36.23.36-1.56.36 6.31.36-1.84.37-1.66.36.97.36.53.36-3.16.36-1.94.37-.9.36-.47.36 1.14.36 6.96.36.66.37-.28.36-2.36.36-.42.36-2.4.36-1.25.37 2.38.36.05.36-1.25.36-1.95.37 3.02.36.73.36-1.21.36.9.36-.31.37.35.36.96.36.54.36-1.77.36 3.39.37-1.64.36.33.36.1.36-3 .36-.61.37-1.01.36-.31.36 3.42.36-.69.37-.13.36-2.17.36 3.99.36 2.34.36.24.37-1.72.36-2.48.36-.6.36-.99.36-.58.37-.08.36-1.11.36 5.19.36.02.36.86.37-.45.36-.42.36-2.56.36-.79.37-2.87.36-.71.36.23.36 2.19.36 2.66.37-.01.36.7.36-1.27.36.35.36.02.37-.77.36-1.71.36.21.36-.8.36-1.56.37 1.39.36 2.76.36.9.36-.38.36-.2.37-2.68.36 1.48.36.26.36-1.61.37 1.46.36 2.06.36-.37.36-1.52.36-1.98.37 1.61.36 3.37h.36l.36-2.03.36.21.37-2.07.36 1.48.36-.49.36-1.85.36-2.61.37-.97.36-2.96.36-.98.36 1.82.37-.48.36-1.61.36 2.82.36-1.53.36.77.37-2.49.36 2.25.36 2.23.36-.83.36-1.59.37-.46.36.01.36-.43.36-2.36.36-.95.37 2.78.36-.08.36-2.7.36-.33.36.77.37 1.37.36 6.17.36.09.36-1.17.37-.16.36-.65.36-1.03.36-2.07.36-1.68.37-.84.36-.03.36 1.97.36-.96.36.17.37-1.39.36 3.95.36.74.36-1.68.36.23.37-.87.36 1.95.36 1 .36-.48.37.67.36-3.02.36.95.36.92.36.07.37-1.89.36-1.45.36 1.52.36 3.32.36-.74.37-2.89.36-1.35.36-.69.36 1.02.36-.87.37 3.79.36.29.36.86.36-3.04.36.14.37 2.28.36-1.67.36-1.2.36.63.37.89.36.21.36-3.98.36-.79.36.11.37 2.59.36-1.43.36-.96.36 1.04.36.01.37 6.22.36-1.87.36-1.66.36 1.17.36-.55.37-.19.36-.15.36.53.36-.35.37-.39.36-.04.36.15.36 1.54.36.01.37-1.39.36-.55.36-2.17.36 2.54.36.28.37.76.36-.45.36-1.12.36-.06.36-.98.37-.42.36-.63.36 3.5.36.91.37-.11.36.8.36-1.2.36-2.84.36.62.37 1.91.36-2.66.36-.78.36.54.36 4.45.37 1.24.36-1.87.36-1.43.36-.59.36-.89.37-1.03.36-.62.36.94.36 4.5.36-1.96.37.24.36-3.08.36-.9.36-.03.37-1.15.36.77.36 2.98.36 2.1.36-.4.37 1.83.36 1.52.36-2.13.36.1.36-2.47.37-.94.36.17.36-2.26.36.48.36 4.37.37-.72.36-1.43.36-1.94.36-.31.37-1.3.36 5.81.36-.33.36-1.28.36.42.37-.58.36.95.36-.11.36.98.36-2.41.37 2.25.36-.54.36-.21.36-.74.36.38.37-1.87.36.34.36 2.02.36-.31.36-.22.37.29.36-.93.36 3.95.36-1.82.37-.66.36-.84.36-.02.36-1.94.36-2.11.37.85.36-1.37.36-.73.36.06.36.29.37 1.41.36 2.7.36-.81.36 1.79.36.86.37.2.36-2.84.36-2.15.36.42.37 1.93.36 1.08.36.25.36-.89.36-.42.37 3.99.36-1.53.36-2.31.36-1.84.36 1.64.37.14.36.76.36 1.76.36-.13.36-1.96.37-1.09.36 1.24.36 2.58.36-1.53.36-2.11.37-.06.36-1.73.36.17.36 2.21.37-.52.36-1.55.36.68.36 5.07.36.1.37-.84.36-2 .36-2.17.36.74.36 1.48.37 2.41.36-1.72.36-2.48.36-1.44.36.96.37.25.36 4.25.36 1.19.36-1.15.37-.18.36-2.39.36-.67.36-.68.36 4.83.37-2.53.36-1.25.36 3.54.36 1.85.36-2.19.37 1 .36-1.23.36-1.77.36-2.51.36 3.24.37.36.36-.97.36-1.8.36 1.02.37-1.79.36-.3.36 2.47.36 1 .36-1.52.37.17.36-2.99.36 2.96.36 2.56.36-1.18.37-2.59.36.1.36-2.11.36-.48.36.95.37 3.25.36-.27.36-1.7.36 2.98.36-.17.37.34.36-.74.36-1.74.36-.71.37 1.22.36-1.38.36 3.83.36-1.31.36.34.37-.62.36 5.1.36-2.96"/><use xlink:href="#ee61c__b" color="#D336C8" transform="matrix(3.75 0 0 3.75 125.4 122.26)"/><use xlink:href="#ee61c__b" color="#D336C8" transform="matrix(3.75 0 0 3.75 220.55 7.51)"/></g><text stroke-linecap="round" stroke-linejoin="round" color="#000" font-family="KaTeX_Main" font-size="8" transform="translate(241.1 25.11)"><tspan>RedBlackRelaxedTopDown</tspan></text><g fill="none" stroke="currentColor" stroke-linecap="round" stroke-linejoin="round" color="#000"><path stroke="violet" stroke-dasharray="4.0,2.0,1.0,2.0" d="M205.6 22.51h29.9M28 139.2l.36-.17.36-2.49.37-1.47.36.1.36-2.24.36-2.94.36-1.1.37-.21.36.23.36 13.89.36-2.98.37-3.88.36-2.24.36-1.91.36 3.52.36-2.54.37-1.99.36-3.76.36-1.52.36 7.05.36.13.37-2.25.36-3.14.36-.65.36-.67.36-2.6.37-3.06.36-2.39.36 5.06.36 20.1.36-1.94.37-2.27.36-2.97.36-2.67.36 2.99.37-3.4.36-2.32.36 2.25.36-3.65.36-1.91.37-1.55.36-1.55.36 3.44.36 2.76.36-.46.37-2.01.36-.98.36-1.6.36-2.45.36-.7.37-1.8.36 14.28.36-3.23.36-1.85.37.29.36-.53.36-2.57.36-3.23.36-1.36.37-1.95.36-1.72.36 2.01.36-2.49.36-2.75.37 8.17.36-1.8.36-3.15.36-.85.36-1.48.37-.14.36-2.73.36-1.6.36-.68.37 20.17.36 2.1.36-2.19.36-1.54.36-1.11.37-1.86.36-3.69.36-.88.36-1.76.36.35.37 4.05.36-2.8.36-.17.36.11.36-1.38.37-2.9.36-3.04.36.32.36 1.2.36-2.51.37-4.59.36 8.47.36 3.05.36-1.51.37-.59.36-2.65.36-3.29.36 3.05.36-1.68.37-2.82.36-.75.36-2.39.36 6.11.36-.09.37-2.88.36.68.36-3.22.36-2.24.36.36.37.58.36-1.9.36-3.3.36-.47.37-.51.36-3.15.36 22.33.36 11.17.36-4 .37.18.36.46.36-1.36.36-3.32.36-3.48.37 1.34.36-1.05.36 5.36.36-2.21.36-2.6.37-.15.36-1.04.36-1.32.36-2.63.36-.75.37.07.36-2.12.36-1.52.36-2.39.37 11.13.36 1.26.36-1 .36-.63.36-1.73.37-2.57.36-.36.36.56.36-2.52.36-1.57.37-3.32.36 5.87.36-2.02.36-1.48.36-.7.37.3.36-.36.36-1.67.36-3.48.37-1.57.36-3.08.36 11.17.36 13.02.36-2.01.37-1.22.36-3.44.36-1.8.36.26.36-2.53.37.23.36-2.81.36-3.99.36 7.42.36.1.37-2.01.36-1.48.36-2 .36-.09.36-.91.37-1.31.36-1.9.36-1.71.36-1.35.37-3.17.36 7.04.36 7.26.36-3.93.36 1.32.37-2.48.36.97.36-1.25.36-2.36.36-2.43.37-2.98.36.26.36 7.45.36-1.51.36-1.86.37-2.9.36-1.91.36.22.36-3.77.37-2.36.36 1.24.36-2.09.36-2.24.36 11.52.37 21.88.36-1.06.36-1.74.36-3.49.36-2.88.37 2.68.36-.52.36-1.67.36-1.52.36 1.06.37-2.77.36-3.26.36 1.86.36-1.77.37-.73.36 1.12.36.89.36-2.85.36-2.42.37-2.06.36-2.31.36 2.35.36 11.68.36-3.83.37 1.95.36-2.74.36-1.73.36-2.85.36-1.28.37-2.93.36 3.21.36 3.66.36-1.87.36-2.49.37-2.05.36.03.36-3.24.36-2.11.37-.64.36-1.18.36 7.08.36 15.33.36-3.42.37-1.15.36-1.54.36-.88.36-2.88.36-1.07.37-1.7.36-1.54.36.24.36 4.61.36-1.5.37-.86.36-1.74.36-2.86.36-.51.37-1.54.36-2.08.36-.21.36-2.27.36-2.94.37-.96.36 12.95.36-2.79.36.28.36-.94.37-1.37.36 2.56.36-2.17.36-2.19.36-3.91.37-3.44.36-2.8.36 8.82.36-.74.36.02.37-3.5.36-2.58.36.93.36-1.81.37.06.36-2.59.36-3.28.36 2.79.36 38.3.37-1.31.36-2.99.36.41.36-1.65.36-2.04.37-.28.36-.91.36-2.83.36-3.1.36-3.05.37 9.68.36-1.52.36-.5.36-1.11.37-2.18.36.58.36-2.41.36-2.51.36-1.98.37-2.04.36 8.96.36 5.18.36.06.36-.74.37-2.21.36-2.69.36-2.79.36-2.98.36-2.15.37.93.36-1.56.36-1.45.36 8.18.36-3.08.37-1.35.36-2.19.36-2.87.36-.26.37-3.16.36-1.25.36.33.36-1.7.36 13.01.37 10.64.36-3.24.36-2.6.36.78.36-1.37.37-2.33.36-2.37.36-2.03.36-1.22.36-.87.37-2.05.36 5.82.36 3.24.36-2.39.37-.65.36-3.19.36-.45.36-2.89.36-2.59.37-.64.36-1.65.36-2.96.36 16.6.36.64.37-1.2.36-2.16.36-2.82.36-2.04.36-2.4.37-1.09.36 1.1.36-1.64.36-3.33.37-3.34.36 10.21.36-2.02.36-2.45.36-1.99.37-.4.36-.03.36-4.09.36-2.28.36-.06.37 3.7.36-2.33.36-2.25.36 8.52.36 22.17.37-.93.36-1.23.36-3.63.36-3.18.36-.11.37-1.86.36-.41.36-1.44.36-2.38.37 2.83.36 5.09.36-1.52.36-2.17.36-3.76.37-2.68.36-.03.36.25.36-2.05.36-2.06.37.07.36-3.98.36-.08.36 17.06.36-2.66.37-2.59.36 1.45.36-2.87.36-2.72.37-3.06.36-2.56.36 2.47.36-.51.36 3.44.37 1.02.36-2.8.36-1.13.36-.54.36-2.09.37-1.6.36-.27.36.8.36-2.53.36 8.99.37 8.23.36-3.84.36-2.2.36-1.23.36.45.37-2.46.36.04.36-.94.36-1.66.37 1.12.36 2.18.36-2.23.36.82.36-1.15.37-1.8.36-1.33.36-4.63.36.1.36-1.64.37-1.57.36 9.74.36 4.32.36-2.09.36-.06.37-1.91.36-3.34.36-3.38.36 4.11.37-3.36.36-3.22.36-1.19.36-2.19.36 1.51.37 6.23.36-2.13.36-.17.36-1.02.36-2.73.37.3.36-2.22.36-2.5.36-.24.36.06.37-.04.36.29.36 11.44.36 23.42.37-1.82.36-1.64.36-.7.36.1.36-1.27.37-.77.36-.61.36-1.85.36-1.47.36-.37.37-2.25.36-2.71.36 1.08.36 6.29.36-1.18.37-1.99.36-2.89.36.57.36-1 .36-1.64.37-.6.36-2.13.36 8.59.36 5.3.37-1.27.36-1.98.36-1.18.36-2.61.36-2.41.37-.2.36-2.37.36-2.81.36 1.12.36-2.25.37-3.91.36.76.36 6.99.36-2.37.36-1.15.37-1.77.36-1.59.36 1.64.36-2.72.37-2.41.36-.31.36-3.79.36 20.64.36 4.38.37-1.14.36-2.46.36 1.6.36-2.25.36-3.21.37-.99.36 1.64.36-3.64.36-1.7.36-1.38.37-2.81.36-2.21.36 6.95.36-.26.36-.54.37-1.56.36-1.59.36-3.98.36 4.22.37-3.43.36-1.08.36-3 .36-.88.36 1.76.37 7.75.36.01.36 2.97.36-2.58.36-1.26.37-1.65.36-3.32.36-1.76.36 4.05.36.44.37-3.65.36-.52.36-2.49.36-1.88.37-.46.36-2.28.36-1.22.36.14.36-3.06.37 22.94.36 9.81.36-2.7.36-2.69.36.93.37-2.65.36-3.64.36-2.58.36 3.31.36-1.71.37-1.7.36-1.26.36-1.9.36-.73.36 8.28.37-2.02.36-1.22.36-.75.36-2.68.37-2.85.36-1.83.36-.3.36-.15.36-2.13.37-3.97.36 12.94.36 2.21.36-2.59.36.26.37-.5.36-.43.36-2.53.36-2.15.36-.82.37-.54.36-2.41.36-3.91.36 10.31.37-3.4.36-.86.36-1.57.36-1.46h.36l.37.08.36-1.87.36-1.47.36.69.36-3.27.37-.87.36-1.17.36 1.38.36 21.5.36-.89.37.26.36-1.46.36-3.42.36-3.42.37-2.56.36 3.19.36-1.95.36 1.04.36-2.93.37-3.28.36 3.67.36 2.34.36-2.04.36-2.05.37-2.16.36 3.23.36.18.36-2.94.36-2.51.37-1.62.36-2.18.36-2.45.36-2.94.36 17.57.37-1.39.36-1.49.36-1.06.36-.93.37-2.3.36-2.53.36-.57.36.33.36-1.93.37-3.18.36 1.28.36-.52.36 4.77.36.47.37-2.56.36-.73.36-1.23.36-1.1.36-.74.37-2.78.36-1.05.36-.66.36-.18.37-2.61.36-3.97.36-1.65.36 49.09.36 5.44.37-2.16.36-1.28.36-1.22.36-3.29.36-1.07.37.61.36-2.31.36-2.06.36-2.22.36 7.4.37-.33.36-2.76.36-.92.36-.93.36-3.61.37-.96.36-1.83.36-3.24.36 15.04.37-1.36.36-2.36.36-2.18.36.46.36-.21.37-3.57.36-1.06.36-1.89.36-3.67.36 8.82.37-2.39.36-3.14.36-.43.36.4.36-1.49.37-2.79.36-.12.36-4.21.36-1.7.37.78.36-.63.36-3.03.36 9.69.36 13.47.37-3.21.36-.58.36-1.99.36 1.25.36-2.05.37-1.56.36-.94.36-2.81.36 4.4.36 1.98.37-1.43.36-3.25.36-2.67.36-2.14.36.74.37.51.36-2.68.36-1.65.36-2.32.37-1.58.36-1.83.36-2.12.36-2.06.36 18.39.37-2.51.36-1.65.36-2.84.36 2.06.36-.89.37-1.32.36-1.76.36.31.36-4.14.36-1.86.37 8.11.36-2.45.36-.32.36.09.37-2.42.36-2.67.36-.31.36-2.74.36-1.06.37.61.36-2.24.36 5.69.36 24.21.36-.34.37-1.46.36.45.36-2.36.36-2.24.36-1.27.37-2.75.36.44.36-1.63.36-1.98.37 6.24.36.6.36-2.13.36-2.35.36-.43.37-1.63.36-2.05.36-2.69.36-.63.36-1.17.37-1.93.36 2.23.36 12.63.36-2.24.36.84.37-1.79.36-3.42.36-2.65.36-.13.36-.34.37-1.72.36-2.95.36-.88.36-2.24.37 5.24.36.9.36-.74.36-.56.36-.63.37-2.97.36-2.93.36.24.36-2.07.36-1.87.37-.51.36 1.02.36-2.13.36-5.19.36 6.73.37 20.97.36-2.52.36-1.82.36-2.26.37-1.58.36-.46.36-2.64.36.07.36-.44.37-1.7.36-.54.36.27.36 6.2.36 1.35.37-2.5.36-2.26.36-.63.36-1.5.36-1.51.37.15.36-1.62.36-3.1.36-2.16.36-.09.37-.42.36-1.56.36-2.96.36 13.48.37 3.21.36-1.91.36-2.33.36-2.01.36-1.39.37.74.36-2.78.36-2.69.36 4.1.36 2.47.37-2.75.36-1.15.36-1.37.36-2.52.36 1.08.37-2.18.36-3 .36-2.11.36.18.37-2.11.36-3.78.36-2.72.36 45.67.36-3.45.37-1.78.36.17.36-.33.36-1.73.36 2.11.37-2.11.36-3.77.36-2.97.36.26.36 5.76.37.8.36-2.81.36.62.36-.91.36-.49.37-3.41.36-2.61.36-2.03.36.43.37-2.09.36 4.01.36 9.81.36-1.93.36-2.05.37-1.72.36-2.13.36-2.14.36 1.15.36-2.03.37-3.15.36-3.33.36-2.2.36 9.35.36 1.69.37-.29.36-1.28.36-2.55.36-3.27.37-3.07.36 1.14.36-1.54.36-2 .36-2.02.37-1.45.36 26.09.36-.99.36-2.11.36-1.57.37-1.69.36-2.46.36-3.64.36 1.5.36-2.24.37-1.15.36-2.61.36 5.52.36 1.54.37-.91.36-1.86.36-1.7.36-1.97.36-.66.37.13.36-2.81.36-3.7.36-2.02.36-.08.37-1.84.36 12.83.36 1.08.36-1.1.36-.73.37-1.17.36.68.36-3.84.36-2.35.36-1.27.37.2.36-2.23.36 3.44.36 1.72.37-2.63.36-.43.36-.35.36-3.26.36-2.43.37-2.39.36 1.03.36-1.88"/><use xlink:href="#ee61c__e" color="violet" transform="matrix(3.75 0 0 3.75 182.98 104.73)"/><use xlink:href="#ee61c__e" color="violet" transform="matrix(3.75 0 0 3.75 220.55 22.51)"/></g><path fill="none" d="M28 45.01V162.5M371.99 45.01H28" color="#000"/></svg>