<svg xmlns="http://www.w3.org/2000/svg" xmlns:xlink="http://www.w3.org/1999/xlink" viewBox="0 0 400 200"><path fill="none" d="M0 0h400v200H0z"/><defs><path id="9ea98__b" stroke="currentColor" stroke-width=".267" d="M-1 0h2M0-1v2"/><path id="9ea98__c" stroke="currentColor" stroke-width=".267" d="m-1-1 2 2m0-2-2 2"/><path id="9ea98__d" stroke="currentColor" stroke-width=".267" d="M-1 0h2M0-1v2m-1-2 2 2m-2 0 2-2"/><path id="9ea98__a" stroke="currentColor" stroke-width=".267" d="M0 1.33 1.265.411.782-1.067l-1.564-.009-.483 1.487z"/></defs><path fill="none" stroke="#CCC" stroke-linecap="round" stroke-linejoin="round" stroke-width=".1" d="M46.1 162.5V45.01" class="9ea98__gridline" color="#000"/><g fill="none" stroke-linecap="round" stroke-linejoin="round" stroke-width="0" color="#000"><path d="M46.1 162.5V155m0-109.99v7.5"/><text fill="#000" font-family="KaTeX_Main" font-size="8" text-anchor="middle" transform="translate(46.1 172.6)"><tspan> 1</tspan></text></g><path fill="none" stroke="#CCC" stroke-linecap="round" stroke-linejoin="round" stroke-width=".1" d="M82.31 162.5V45.01" class="9ea98__gridline" color="#000"/><g fill="none" stroke-linecap="round" stroke-linejoin="round" stroke-width="0" color="#000"><path d="M82.31 162.5V155m0-109.99v7.5"/><text fill="#000" font-family="KaTeX_Main" font-size="8" text-anchor="middle" transform="translate(82.31 172.6)"><tspan> 2</tspan></text></g><path fill="none" stroke="#CCC" stroke-linecap="round" stroke-linejoin="round" stroke-width=".1" d="M118.52 162.5V45.01" class="9ea98__gridline" color="#000"/><g fill="none" stroke-linecap="round" stroke-linejoin="round" stroke-width="0" color="#000"><path d="M118.52 162.5V155m0-109.99v7.5"/><text fill="#000" font-family="KaTeX_Main" font-size="8" text-anchor="middle" transform="translate(118.52 172.6)"><tspan> 3</tspan></text></g><path fill="none" stroke="#CCC" stroke-linecap="round" stroke-linejoin="round" stroke-width=".1" d="M154.73 162.5V45.01" class="9ea98__gridline" color="#000"/><g fill="none" stroke-linecap="round" stroke-linejoin="round" stroke-width="0" color="#000"><path d="M154.73 162.5V155m0-109.99v7.5"/><text fill="#000" font-family="KaTeX_Main" font-size="8" text-anchor="middle" transform="translate(154.73 172.6)"><tspan> 4</tspan></text></g><path fill="none" stroke="#CCC" stroke-linecap="round" stroke-linejoin="round" stroke-width=".1" d="M190.94 162.5V45.01" class="9ea98__gridline" color="#000"/><g fill="none" stroke-linecap="round" stroke-linejoin="round" stroke-width="0" color="#000"><path d="M190.94 162.5V155m0-109.99v7.5"/><text fill="#000" font-family="KaTeX_Main" font-size="8" text-anchor="middle" transform="translate(190.94 172.6)"><tspan> 5</tspan></text></g><path fill="none" stroke="#CCC" stroke-linecap="round" stroke-linejoin="round" stroke-width=".1" d="M227.15 162.5V45.01" class="9ea98__gridline" color="#000"/><g fill="none" stroke-linecap="round" stroke-linejoin="round" stroke-width="0" color="#000"><path d="M227.15 162.5V155m0-109.99v7.5"/><text fill="#000" font-family="KaTeX_Main" font-size="8" text-anchor="middle" transform="translate(227.15 172.6)"><tspan> 6</tspan></text></g><path fill="none" stroke="#CCC" stroke-linecap="round" stroke-linejoin="round" stroke-width=".1" d="M263.36 162.5V45.01" class="9ea98__gridline" color="#000"/><g fill="none" stroke-linecap="round" stroke-linejoin="round" stroke-width="0" color="#000"><path d="M263.36 162.5V155m0-109.99v7.5"/><text fill="#000" font-family="KaTeX_Main" font-size="8" text-anchor="middle" transform="translate(263.36 172.6)"><tspan> 7</tspan></text></g><path fill="none" stroke="#CCC" stroke-linecap="round" stroke-linejoin="round" stroke-width=".1" d="M299.57 162.5V45.01" class="9ea98__gridline" color="#000"/><g fill="none" stroke-linecap="round" stroke-linejoin="round" stroke-width="0" color="#000"><path d="M299.57 162.5V155m0-109.99v7.5"/><text fill="#000" font-family="KaTeX_Main" font-size="8" text-anchor="middle" transform="translate(299.57 172.6)"><tspan> 8</tspan></text></g><path fill="none" stroke="#CCC" stroke-linecap="round" stroke-linejoin="round" stroke-width=".1" d="M335.78 162.5V45.01" class="9ea98__gridline" color="#000"/><g fill="none" stroke-linecap="round" stroke-linejoin="round" stroke-width="0" color="#000"><path d="M335.78 162.5V155m0-109.99v7.5"/><text fill="#000" font-family="KaTeX_Main" font-size="8" text-anchor="middle" transform="translate(335.78 172.6)"><tspan> 9</tspan></text></g><path fill="none" stroke="#CCC" stroke-linecap="round" stroke-linejoin="round" stroke-width=".1" d="M371.99 162.5V45.01" class="9ea98__gridline" color="#000"/><g fill="none" stroke-linecap="round" stroke-linejoin="round" stroke-width="0" color="#000"><path d="M371.99 162.5V155m0-109.99v7.5"/><text fill="#000" font-family="KaTeX_Main" font-size="8" text-anchor="middle" transform="translate(371.99 172.6)"><tspan> 10</tspan></text></g><g fill="none" stroke-linecap="round" stroke-linejoin="round" stroke-width="0" color="#000"><path d="M371.99 162.5h-7.5"/><text fill="#000" font-family="KaTeX_Main" font-size="8" transform="translate(378.99 165.1)"><tspan>1.00</tspan></text></g><g fill="none" stroke-linecap="round" stroke-linejoin="round" stroke-width="0" color="#000"><path d="M371.99 151.82h-7.5"/><text fill="#000" font-family="KaTeX_Main" font-size="8" transform="translate(378.99 154.42)"><tspan>1.10</tspan></text></g><g fill="none" stroke-linecap="round" stroke-linejoin="round" stroke-width="0" color="#000"><path d="M371.99 141.14h-7.5"/><text fill="#000" font-family="KaTeX_Main" font-size="8" transform="translate(378.99 143.74)"><tspan>1.20</tspan></text></g><g fill="none" stroke-linecap="round" stroke-linejoin="round" stroke-width="0" color="#000"><path d="M371.99 130.46h-7.5"/><text fill="#000" font-family="KaTeX_Main" font-size="8" transform="translate(378.99 133.06)"><tspan>1.30</tspan></text></g><g fill="none" stroke-linecap="round" stroke-linejoin="round" stroke-width="0" color="#000"><path d="M371.99 119.78h-7.5"/><text fill="#000" font-family="KaTeX_Main" font-size="8" transform="translate(378.99 122.38)"><tspan>1.40</tspan></text></g><g fill="none" stroke-linecap="round" stroke-linejoin="round" stroke-width="0" color="#000"><path d="M371.99 109.1h-7.5"/><text fill="#000" font-family="KaTeX_Main" font-size="8" transform="translate(378.99 111.7)"><tspan>1.50</tspan></text></g><g fill="none" stroke-linecap="round" stroke-linejoin="round" stroke-width="0" color="#000"><path d="M371.99 98.41h-7.5"/><text fill="#000" font-family="KaTeX_Main" font-size="8" transform="translate(378.99 101.01)"><tspan>1.60</tspan></text></g><g fill="none" stroke-linecap="round" stroke-linejoin="round" stroke-width="0" color="#000"><path d="M371.99 87.73h-7.5"/><text fill="#000" font-family="KaTeX_Main" font-size="8" transform="translate(378.99 90.33)"><tspan>1.70</tspan></text></g><g fill="none" stroke-linecap="round" stroke-linejoin="round" stroke-width="0" color="#000"><path d="M371.99 77.05h-7.5"/><text fill="#000" font-family="KaTeX_Main" font-size="8" transform="translate(378.99 79.65)"><tspan>1.80</tspan></text></g><g fill="none" stroke-linecap="round" stroke-linejoin="round" stroke-width="0" color="#000"><path d="M371.99 66.37h-7.5"/><text fill="#000" font-family="KaTeX_Main" font-size="8" transform="translate(378.99 68.97)"><tspan>1.90</tspan></text></g><g fill="none" stroke-linecap="round" stroke-linejoin="round" stroke-width="0" color="#000"><path d="M371.99 55.69h-7.5"/><text fill="#000" font-family="KaTeX_Main" font-size="8" transform="translate(378.99 58.29)"><tspan>2.00</tspan></text></g><g fill="none" stroke-linecap="round" stroke-linejoin="round" stroke-width="0" color="#000"><path d="M371.99 45.01h-7.5"/><text fill="#000" font-family="KaTeX_Main" font-size="8" transform="translate(378.99 47.61)"><tspan>2.10</tspan></text></g><path fill="none" d="M28 45.01V162.5M371.99 45.01H28" color="#000"/><text stroke-linecap="round" stroke-linejoin="round" stroke-width="0" color="#000" font-family="KaTeX_Main" font-size="10" text-anchor="middle" transform="rotate(-90 57.63 46.13)"><tspan font-weight="bold">Allocations </tspan><tspan> / log</tspan><tspan dy="3" font-size="8">2</tspan><tspan dy="-3">(Size)</tspan></text><text stroke-linecap="round" stroke-linejoin="round" stroke-width="0" color="#000" font-family="KaTeX_Main" font-size="10" text-anchor="middle" transform="translate(199.99 195.75)"><tspan>Operations / 10</tspan><tspan dy="-5" font-size="8">6</tspan></text><text stroke-linecap="round" stroke-linejoin="round" color="#000" font-family="KaTeX_Main" font-size="8" transform="translate(116 10.11)"><tspan>TreapTopDown</tspan></text><g fill="none" stroke="currentColor" stroke-linecap="round" stroke-linejoin="round" color="#000"><path stroke="#00C853" stroke-dasharray="4.5,2.0,0.5,2.0,0.5,2.0" d="M80.5 7.51h29.9M28 142.86l.36-.65.36-2.93.37 2.93.36-1.72.36-1.56.36 2.04.36-3.23.37-.24.36.62.36 1.23.36-3.71h.37l.36 3.84.36-3.93.36 4.33.36-1.98.37.27.36-.76.36.6.36 6.09.36-.44.37-.07.36 1.08.36-2.09.36-2.45.36-2.91.37 2.89.36 1.83.36 6.94.36-2.17.36.36.37-3.95.36-.28.36 2.98.36-2.68.37-5.88.36-1.66.36 6.4.36-.85.36-.33.37-.11.36 3.97.36-.27.36 2.79.36-.42.37-1.91.36-.8.36.01.36 1.8h.36l.37-1.4.36-.24.36-1.3.36-2.42.37 1.87.36-4.87.36 1.89.36.82.36-1.91.37.69.36-.26.36 4.3.36-1.13.36-1.9.37-.81.36 3.89.36-.25.36 2.18.36-4.43.37.93.36-1.28.36.26.36 6.51.37-.11.36-1.09.36-4.08.36 2.27.36.32h.37l.36-4.29.36 3.32.36.24.36-.09.37-.64.36-2.94.36-2.55.36 3.32.36-.83.37-3.06.36.07.36-3.23.36 4.4.36-3.35.37 2.49.36.27.36 1.19.36-.61.37-1 .36 8.04.36-2.32.36-.86.36-.21.37-2.37.36.45.36-2.42.36-.49.36.31.37.55.36-.35.36 4.99.36-2.97.36.99.37-1.13.36-2.39.36-2.47.36-2.32.37 6.06.36.99.36-.58.36 5.83.36-3.59.37 1.04.36-2.53.36 1.15.36-1.55.36.05.37 1.14.36-1.83.36.07.36-2.78.36-2.24.37 3.43.36 1.89.36.28.36 3.75.36-3.31.37-.46.36-2.76h.36l.36-1.96.37 1.21.36 2.54.36-.36.36-3.37.36 3.77.37-3.91.36-3.14.36 10.46.36-1.39.36 1.46.37 1.36.36-1 .36 3.67.36-.7.36-2.82.37-.2.36-.67.36-.31.36 1.74.37-.46.36 2.97.36.98.36-2.93.36 1.69.37 1.31.36-3.98.36 1.89.36.61.36-1.74.37-1.33.36.72.36.71.36-3.42.36.7.37 2.08.36 2.79.36-2.18.36 4.7.36-1.01.37-.59.36-3.84.36.85.36-2.11.37 2.6.36-1.94.36 2.43.36-1.67.36 1.9.37 1.03.36-.78.36-1.48.36 2.03.36-.4.37.61.36-.32.36-1.76.36-1.36.36-.77.37 2.11.36.74.36 1.67.36-1.58.37-.62.36-.31.36-3.88.36.66.36-.32.37-1.07.36 1.99.36 1.03.36-2.84.36.72.37.81.36.32.36.29.36-.71.36.51.37-2.42.36-.15.36.78.36-.72.37 1.19.36 1.66.36.91.36-.54.36-1.17.37-.3.36.87.36 1.82.36-1.29.36.46.37 1.52.36 2.36.36-2.31.36 2.05.36-1 .37 2.23.36-2.12.36-.23.36-1.5.36-1.4.37-3.49.36 5.4.36.37.36-.14.37.38.36-.52.36 2.91.36-.71.36-.82.37-2.38.36 1.45.36-.21.36.93.36-.04.37-1.03.36-3.36.36 4.33.36-1.26.36-1.85.37-.77.36-.21.36-3.98.36 4.03.37.71.36.72.36.89.36-3.16.36-2.59.37 2.13.36-3.18.36-.46.36 4.91.36-2.35.37-1.98.36 1.14.36 1.34.36-1.26.36-1.72.37 5.51.36.72.36-2.93.36-2.06.36.72.37 1.54.36-1.08.36 3.95.36-1.68.37-.15.36 1.93.36-1.25.36-1.45.36.51.37-4.11.36-3.1.36 4.49.36 3.79.36-1.32.37-.17.36 1.9.36.54.36-.35.36-.66.37.86.36-.71.36-1.45.36-1.43.37 2.38.36-.02.36-.8.36.55.36-1.82.37 1.92.36-2.15.36.43.36-.71.36 2.63.37-1.81.36-.59.36 2.63.36 1.15.36-3.6.37.49.36-.92.36.88.36-1.11.36-1.95.37 4.01.36-.06.36-2.48.36-1.31.37 1.97.36-1.13.36-.67.36 2.54.36-.86.37 4.67.36-1.85.36-.28h.36l.36.87.37-1.88.36 1.23.36.28.36.47.36-1.28.37.84.36-.61.36-1.58.36-.98.37-2.56.36 1.66.36-2.43.36 4 .36 1.12.37-1.46.36 4.24.36-.3.36-.55.36.17.37-.21.36-.87.36 2.48.36-1.23.36 1.42.37 1.41.36-1.09.36-.59.36 4.7.37-2.53.36-.13.36 1.21.36 1.51.36-.65.37-1.36.36 1.69.36-.18.36-.67.36 1.3.37-.45.36-3.83.36 4 .36-1.33.36-.75.37-2.23.36.62.36-.24.36 1.54.36-.94.37.34.36.04.36.96.36 1.99.37-1.14.36 1.16.36.19.36.06.36-2.78.37 1.43.36-.92.36-1.32.36-.89.36 4.64.37-.64.36-.44.36-2.64.36.17.36.14.37-3.03.36.92.36 3.73.36-1.63.37-1.87.36-1.04.36.42.36 2.42.36-1.34.37.32.36-.84.36 1.07.36-2.52.36.99.37 3.6.36-1.43.36-1.37.36 1.04.36-.06.37.44.36 1.04.36-.09.36-.98.36-1.6.37.14.36-1.13.36 3.78.36-2.67.37.78.36-2.3.36-1.99.36 3.91.36.08.37-1.94.36-.58.36 2.52.36 1.26.36-1.43.37-2.99.36-5.45.36 10.36.36 2.46.36-2.9.37-2.61.36.89.36-.39.36 1.06.37-3.87.36 2.8.36-1.54.36-2.02.36 2.28.37-.48.36.69.36-1.98.36-3.51.36-1.08.37-.57.36 1.34.36 1.64.36 2.88.36-1.17.37-3.26.36.06.36.42.36-.33.37.46.36-.76.36 5.64.36-1.88.36-1.78.37.53.36 4.85.36-.75.36-.62.36-3.3.37 3.07.36-.75.36 1.92.36-.69.36-2.48.37.03.36.13.36 4.21.36-1.05.36-.87.37-.08.36.17.36-3.44.36-2.6.37 3.76.36 1.63.36-.7.36-1.36.36 1.92.37.99.36-1.91.36.7.36-1.33.36-3.13.37-.24.36.22.36 2.07.36 1.4.36-1.43.37.3.36-.46.36 1.93.36.73.37 1.27.36-3.6.36 2.67.36.01.36.44.37-1.04.36-.51.36-.56.36-.84.36.55.37.63.36 2.82.36-2.96.36 1.37.36-3.35.37-.56.36-.55.36 3.08.36 1.37.36 2.5.37-.92.36-.13.36-2.79.36.84.37-1.26.36.81.36-1.05.36 3.32.36-.59.37-2.78.36-1.83.36 3.27.36.96.36 2.61.37-1.38.36-1.22.36-1.15.36.11.36.71.37.59.36-.43.36-.92.36 2.18.37-.85.36.63.36.17.36-1.32.36-.56.37.58.36 1.45.36.43.36-.57.36-.34.37-.55.36-.06.36-.44.36-2.17.36 1.63.37.8.36-1.76.36.8.36 1.15.36-2.51.37.71.36.49.36-4.27.36-.15.37 4.44.36.65.36-1.76.36 4.45.36 1.4.37-1.14.36.11.36-3.44.36 1.49.36-.38.37-2.66.36 4.19.36-.42.36-1.19.36-2.47.37-.09.36 3.1.36 4.09.36.16.37-1.56.36-1.54.36-.18.36-3.51.36-.59.37 2.08.36-.46.36 3.44.36.47.36.93.37-.5.36-1.05.36-.94.36-1.97.36 3.14.37 1.28.36-1.41.36-.14.36 1.92.37.87.36 1.98.36-2.6.36 2.02.36-2.99.37 1.93.36-1.62.36-1.77.36 1.57.36-1.87.37 1.99.36.36.36 1.17.36-3.22.36-1.24.37 3.54.36-2.9.36 3.3.36-1.03.36 2.31.37-.21.36-.72.36-.71.36.08.37-.4.36-1.81.36 1.08.36 1.97.36-.91.37-2.09.36.22.36-1.4.36 1.73.36.84.37-.85.36-2.47.36.81.36 1.27.36.71.37-2.21.36 1.37.36-1.1.36 2.64.37-.81.36.81.36.25.36-.93.36-1.23.37 2.96.36-2.02.36-1.47.36-.01.36-.16.37 1.87.36 1.85.36-4 .36 3.49.36-.01.37-3.46.36-.5.36-.12.36-3.76.36.25.37 3.83.36-.06.36-2.78.36 3.09.37-.01.36.11.36 1.08.36-.72.36.54.37 1.74.36.92.36.04.36-2.27.36-.89.37-.55.36 1.85.36-1.36.36.99.36-1.56.37 1.16.36-.37.36.41.36-.04.37 1.27.36-2.15.36-.13.36-.6.36 1.91.37.86.36-4.49.36 2.09.36-2.11.36 2.46.37.85.36 1.56.36 1.17.36-.25.36 1.28.37-2.06.36-1.23.36 2 .36-.45.36.63.37.57.36.97.36-3.51.36-.11.37-1.66.36 4.28.36.24.36-.41.36 1.23.37 5.56.36-1.19.36-.73.36-3.69.36-.97.37 1.52.36-.75.36.06.36.13.36-.7.37-.49.36 1.78.36-4.43.36 3.24.37 1.36.36.54.36-3.03.36 2.19.36-.21.37-2.27.36 1.04.36-3.37.36 5.59.36.59.37-1.04.36 1.61.36-1.95.36-2.6.36 1.12.37 2.29.36.23.36-.79.36-.52.37-1.16.36-1.56.36 1.5.36-1.98.36-1.13.37 2.07.36-.85.36-1.21.36 1.49.36-1.68.37 2.33.36-.13.36 2.2.36-1.15.36-3.02.37 4.94.36 1.17.36-1.14.36.48.36-2.24.37-1.14.36.79.36-2.36.36 2.59.37.23.36-1.03.36.31.36.61.36.53.37-1.26.36-.48.36 1 .36-3.62.36 2.47.37-1.59.36-1.56.36 1.64.36-.8.36-2.19.37-.01.36.96.36.03.36-.86.37 2.63.36-.98.36-1.72.36-.7.36.48.37.4.36 1.54.36-3.2.36 1.22.36 5.5.37.57.36.71.36 1.7.36-1.69.36-1.92.37-.99.36-2.17.36 1.41.36 1.35.36-.42.37.46.36-.46.36 2.95.36-2.06.37-1.84.36 1.69.36-2.45.36-1.94.36 2.15.37.58.36 1.94.36-.61.36-.62.36-.42.37-.93.36-2.39.36-.59.36-1.44.36.33.37 2.08.36 1.41.36 1.61.36-.26.37-.29.36-1.18.36 5.94.36.2.36-2.67.37.9.36.67.36-5.11.36 3.23.36-.46.37-.34.36-1.19.36.65.36.21.36-.7.37-.43.36-.67.36.93.36-.18.36-.05.37 2.14.36.86.36-1.64.36.64.37 4.65.36-.25.36-1.05.36-.99.36.18.37 1.85.36-.92.36.48.36-.55.36 1.55.37-.07.36-.98.36-1.18.36.45.36-1.31.37-1.95.36 5.36.36-.78.36-1.07.37 1.6.36-1.36.36-2.4.36 1.63.36.3.37-3.38.36 2.81.36 3.15.36-2.42.36.36.37.09.36-2.29.36 1.23.36-.89.36-.28.37 2.11.36.61.36-.36.36-1.57.37 2.39.36-1.25.36-2.1.36.79.36 2.64.37-1.07.36-.75.36-1.95.36 1.02.36-2.4.37-1.51.36-.27.36 2.75.36.78.36-.3.37-3.27.36 2.83.36-.91.36.81.36-1.08.37.65.36-.48.36.2.36-.17.37-2.47.36 2.87.36 1.4.36-2.33.36-.94.37-.34.36 2.12.36-1.25"/><use xlink:href="#9ea98__a" color="#00C853" transform="matrix(3.75 0 0 3.75 354.25 148.97)"/><use xlink:href="#9ea98__a" color="#00C853" transform="matrix(3.75 0 0 3.75 95.45 7.51)"/></g><text stroke-linecap="round" stroke-linejoin="round" color="#000" font-family="KaTeX_Main" font-size="8" transform="translate(116 25.11)"><tspan>TreapFingerTree</tspan></text><g fill="none" stroke="currentColor" stroke-linecap="round" stroke-linejoin="round" color="#000"><path stroke="#3B75EA" d="M80.5 22.51h29.9M28 96.97l.36-.35.36.68.37 1.59.36-.4.36-.03.36.14.36-.62.37-1.21.36-.15.36-.19.36-.48.37-.62.36-.81.36-.6.36-.09.36-.58.37-.44.36.19.36-1.31.36.38.36-.58.37-.29.36-.29.36-1.04.36-.3.36 1.04.37.07.36.3.36.07.36-.2.36-.04.37.07.36.44.36-.52.36.61.37 2.22.36.22.36-.37.36-.43.36-.52.37-.04.36-.73.36-.36.36.17.36.5.37-.56.36-.32.36-.16.36.95.36 1.07.37-.34.36-.39.36-.28.36-.15.37-.19.36-.16.36.35.36-1.22.36-.93.37-.39.36.09.36-.84.36.07.36-.01.37-.48.36.78.36 1.11.36.03.36.84.37-.05.36-1.09.36.82.36.23.37-.15.36.08.36-.44.36-.07.36 2.14.37.54.36.34h.36l.36.25.36-.69.37.13.36-.42.36.01.36 1.12.36.12.37-.11.36-.79.36-.03.36.24.36-.75.37.01.36-.2.36-.14.36-.11.37-.06.36.14.36.01.36-.18.36.77.37-.03.36.25.36.78.36 1.38.36.55.37-.13.36-.21.36.22.36.14.36-.52.37-.09.36-.38.36-.53.36 1.12.37.93.36-.7.36.26.36-.43.36-.17h.37l.36.52.36.53.36-.24.36-.33.37-.42.36.52.36.16.36-.16.36.42.37-.57.36.37.36-.34.36.03.36-.43.37-.54.36-.05.36-.08.36-.35.37-.75.36.06.36.66.36-.38.36-.3.37.21.36-.57.36-.72.36-.13.36-.33.37-1.58.36.81.36-.32.36.19.36-.45.37-.78.36-.51.36-1.21.36.49.37-.26.36-.57.36-3.25.36-1.5.36-.37.37.05.36-.26.36.08.36-.6.36.06.37-.04.36-.09.36-.09.36-.59.36-.41.37 1.14.36-.1.36 2.16.36-.59.36 2.98.37-.53.36.32.36 1.23.36.14.37.42.36-.8.36 1.67.36.81.36.26.37-.1.36-.14.36 1.52.36.6.36-.08.37-.76.36.77.36-.17.36.08.36-.27.37-.04.36.16.36-.19.36-.3.37.09.36-.25.36-.34.36-.11.36.71h.37l.36-.17.36-.55.36.32.36-.1.37-.19.36.03.36.3.36-.63.36-.5.37.19.36-.04.36-.36.36-.18.37-.72.36-.93.36.52.36.44.36.07.37-1.22.36 1 .36-.35.36.02.36.64.37-.72.36-.24.36-.01.36-.05.36-.43.37.03.36.46.36-.38.36-.42.36-.06.37.51.36-.29.36-.33.36.15.37-.92.36-.1.36-.41.36.08.36.42.37.77.36.72.36-.67.36.03.36-.07.37.84.36-.73.36-.56.36-.29.36.31.37.26.36.13.36.15.36 1.03.37-.39.36-.21.36.54.36-.6.36-.32.37-.33.36.05.36-.26.36.2.36.03.37.45.36-.4.36.25.36.08.36.26.37-.32.36.13.36-.05.36-.14h.36l.37-.17.36-.41.36-.26h.36l.37.85.36-.15.36-.32.36.18.36-.59.37.4.36.44.36-.18.36-.33.36.48.37-.52.36-.04.36-.35.36.14.36-.36.37-.28.36-.14.36.6.36-.25.37.16.36.28.36-.33.36.71.36-.83.37.03.36.51.36-.43.36.19.36-.18.37.02.36-.07.36.26.36-.01.36.16.37-.01.36-.47.36.13.36.39.36.29.37-.87.36.22.36-.34.36.56.37-.76.36.01.36-.34.36-.29.36 1.04.37.34.36.16.36-.1.36.63.36-.31.37-.34.36-.2.36.1.36-.49.36-.57.37.15.36-.19.36.3.36-.97.37.34.36-.47.36.33.36-.1.36-.06.37-.22.36.36.36-.1.36-.22.36-.35.37-.39.36-.05.36-.69.36.23.36-.21.37-.02.36.18.36-.05.36-.41.37-.44.36-.44.36.47.36.07.36.13.37-.17.36.44.36 2.19.36-.08.36-.19.37.03.36.02.36.42.36-.4.36-.77.37-.07.36-.3.36-.06.36-.1.36.29.37.24.36-.4h.36l.36-.66.37-.54.36.51.36.29.36-.55.36.16.37.81.36 1.57.36-.28.36.37.36-.24.37-.43.36-.01.36.55.36-.44.36.11.37.06.36.21.36-.18.36-.69.37.31.36-.22.36.06.36.55.36 1.15.37.49.36.31.36-.69.36.64.36-.96.37.05.36-.06.36.36.36-.59.36-.16.37-.3.36-.21.36.07.36.24.36.02.37-.59.36.27.36.4.36-.07.37.2.36-.38.36-.32.36-.54.36.67.37-.19.36-.21.36.16.36.13.36-.08.37-.5.36-.28.36-1.1.36.26.36-.32.37.19.36-.25.36-.08.36.07.37-.19.36.35.36-.1.36.2.36-.17.37.61.36.56.36-1.31.36.09.36.23.37-.17.36.27.36-.03.36-.13.36.34.37-.02.36-.88.36.07.36-.11.37.93.36 3.15.36.14.36-.52.36.41.37-.29.36-.41.36.03.36.16.36-.01.37.36.36-.41.36-.09.36-.24.36.14.37-.03.36-.39.36.46.36.17.36-.3.37.08.36.12.36-.78.36.03.37.19.36.14.36-.26.36-.65.36.11.37-.15.36 1.33.36-.17.36-.17.36.36.37.64.36-.39.36-.07.36-.1.36.72.37.09.36-.56.36.36.36.22.37 2.79.36.54.36.17.36.56.36-.55.37.19.36.35.36-.62.36.14.36.26.37-.18.36.38.36-.3.36.06.36.13.37.34.36-.06.36-.09.36-.71.36.84.37-.93.36.59.36 2.9.36.17.37-.51.36.05.36-.14.36.44.36-.84.37-.12.36.04.36.18.36.54.36-.14.37-.22.36-.46.36-1.17.36.1.36-.46.37-.11.36.5.36-.37.36-.03.37.27.36.1.36-.18.36.66.36-.71.37.26.36-.42.36.1.36-.53.36-.08.37.44.36-.44.36.23.36.06.36-.4.37.03.36.2.36-.16.36.08.36.36.37-.1.36-.27.36.37.36-.69.37-.17.36-.4.36-.33.36.41.36 1.13.37.14.36-.42.36.76.36 1.17.36.22.37-.03.36.03.36-.75.36.16.36.07.37-.11.36.54.36-.37.36.04.37-.23.36.38.36-.5.36.34.36-.17.37.17.36-.06.36.06.36.52.36-.78.37.06.36.38.36-.07.36-.38.36.01.37.33.36-.1.36.42.36.34.37.31.36.51.36 2.19.36.12.36-.17.37-.11.36.16.36.11.36.77.36-.67.37-.14.36-.26.36.5.36-.03.36.07.37-.4.36.27.36-.64.36.49.36-.1.37-.63.36.11.36-.11.36.12.37.07.36-.1.36.15.36-.24.36.97.37-.86.36.77.36-.28.36.01.36-.52.37.62.36-.59.36.2.36-.26.36-.38.37.18.36.28.36.28.36-.3.37.54.36.11.36.11.36.12.36-.6.37-.26.36.34.36.41.36-.05.36-.67.37.59.36.08.36-.17.36.02.36.45.37-.42.36.36.36-.04.36-.47.36.06.37.22.36.09.36-.18.36.22.37-.21.36.26.36-.42.36.31.36-.23.37-.49.36.39.36-.09.36.51.36-.58.37.6.36-.59.36.8.36-.26.36-.79.37.74.36.14.36.36.36.05.37-.14.36-.44.36.39.36.36.36-.7.37-.33.36-.28.36.2.36.69.36-.01.37.08.36-.6.36.37.36-.17.36-.32.37.27.36-.11.36-.01.36.4h.36l.37-.31.36-.22.36-.1.36.46.37.08.36-.38.36-.08.36.72.36-.31.37-.14.36-.41.36.66.36-.23.36-.03.37.32.36-.17.36-.8.36-.01.36.12.37.43.36-.3.36.42.36-.42.37-.58.36-.01.36.12.36.45.36.03.37-.26.36.13.36.09.36.22.36-.53.37.1.36-.01.36-.3.36.09.36.49.37-.76.36-.47.36.27.36-.22.37.08.36-.22.36.28.36-.32.36-.17.37.02.36.56.36-.29.36-.03.36.16.37.15.36 1.09.36.11.36.23.36.05.37.1.36-.26.36-.3.36.43.36-.89.37-.06.36-.24.36.02.36.42.37.09.36-.09.36-.61.36.43.36.02.37.05.36.12.36-.24.36.06.36-.37.37-.19.36-.19.36.18.36.04.36.06.37.4.36-.13.36-.16.36-.08.37.29.36-.12.36.17.36-.34.36-.09.37.02.36-.04.36.35.36-.4.36.08.37-.69.36 1.06.36-.04.36-.47.36-2.65.37-1.75.36-.85.36.52.36.01.36-.02.37-.24.36-.1.36.49.36-.28.37.25.36.15.36.26.36-.32.36.62.37-.22.36.78.36.18.36-.23.36.28.37-.56.36-.04.36-.48.36.42.36.04.37-.13.36-.24.36.28.36-.24.37-.09.36-.02.36-.19.36.23.36-.25.37.22.36.33.36-.59.36-.08.36.31.37-.08.36.08.36-.19.36-.03.36.64.37-.07.36-.4.36-.07.36-.06.36-.22.37-.83.36-.1.36.16.36.27.37.11.36.08.36-.13.36-.16.36-.85.37.61.36-.47.36.36h.36l.36.22.37-.04.36-.3.36.54.36-.21.36-.61.37.38.36.04.36.06.36-.18.37.39.36-.22.36-1.32.36-.27.36.91.37.01.36.6.36-.47.36-.01.36.26.37.19.36-.18.36.54.36-.64.36-.01.37.6.36-.4.36-.16.36-.41.37.2.36-.19.36.11.36-34.08.36.14.37-.13.36-.28.36-.06.36.02.36.12.37-.06.36.02.36.34.36-.43.36.12.37.13.36-1.46.36.03.36-.17.36.31.37-.33.36-.42.36.36.36-.22.37-.11.36.1.36.05.36-.28.36.22.37-.34.36-.25.36.25"/><use xlink:href="#9ea98__b" color="#3B75EA" transform="matrix(3.75 0 0 3.75 67.83 95.42)"/><use xlink:href="#9ea98__b" color="#3B75EA" transform="matrix(3.75 0 0 3.75 95.45 22.51)"/></g><text stroke-linecap="round" stroke-linejoin="round" color="#000" font-family="KaTeX_Main" font-size="8" transform="translate(241.1 10.11)"><tspan>Randomized</tspan></text><g fill="none" stroke="currentColor" stroke-linecap="round" stroke-linejoin="round" color="#000"><path stroke="#FFAB00" d="M205.6 7.51h29.9M28 139.97l.36 1.05.36-.26.37-.54.36.61.36-1.62.36.08.36.3.37-1.04.36-.34.36-3.57.36-4.48.37-.42.36 3.78.36-3.38.36 8.42.36 1.58.37 9.24.36-1.75.36-.24.36-3.57.36.72.37 2.21.36 1.23.36-1.34.36 1.09.36-3.38.37-.68.36.51.36.16.36.94.36 3.51.37-2.76.36-3.36.36-.07.36 1.03.37.42.36-.89.36 1.11.36-.03.36.47.37-1.76.36 1.33.36-2.29.36-1.26.36 2.43.37 1.57.36-1.31.36-5.33.36 3.98.36.8.37-4.68.36-.69.36 2.75.36 4.01.37 3.61.36-2.08.36-.31.36-1.75.36-.94.37.45.36-2.6.36.67.36-1.35.36-2.09.37 1.36.36-.46.36.48.36 5.44.36.3.37-.22.36-.49.36 2.94.36.04.37-2.22.36-.63.36 4.39.36.03.36-.93.37-3.59.36-1.41.36 4.43.36.87.36.81.37 1.5.36-3.64.36-2.29.36-2.04.36.24.37 3.84.36 4.21.36-1.12.36-2.89.36-.91.37-.54.36 1.43.36 4.89.36-1.25.37-.21.36.61.36-2.82.36-4.88.36 1.12.37 2.62.36 1.38.36-1.41.36-2.27.36 2.9.37 4.01.36-1.15.36-3.67.36-1.62.36-.34.37.57.36.41.36-.3.36-1.91.37-2.68.36 4.26.36-.66.36-.82.36 3.08.37-1.84.36-1.27.36-.44.36 3.18.36-1.37.37-4.57.36 2.91.36.43.36.11.36-.34.37-.33.36-1.03.36 1.25.36.48.36 2.54.37 1.95.36-.62.36-2.05.36.7.37-1.38.36 3.74.36-1.29.36 3.2.36-3.05.37.56.36-2.48.36-1.14.36 1.3.36-1 .37-.71.36-.05.36.97.36 3.08.36-3.16.37 1.56.36 1.16.36-1.25.36-1.58.37.38.36-.38.36-1.64.36.97.36 4.85.37-4.16.36 1.63.36-1.26.36 1.85.36-1.68.37-1.69.36 2.88.36-.83.36-1.98.36-1.28.37-1.2.36 5.03.36-.13.36-1.45.36.2.37-.18.36-1.25.36 2.57.36-2.71.37 2.36.36-1.86.36 1.81.36-1.15.36-2.28.37 1.34.36 2.99.36.33.36-3.27.36 3 .37.49.36-1.2.36 2.1.36-1.82.36 1.15.37.72.36-1.5.36-.7.36 1.38.37-.49.36.56.36-2.83.36.79.36-1.95.37 3.15.36-1.27.36 1.05.36-1.58.36 2.98.37.43.36-.11.36-3.77.36 3.46.36-.56.37-5.44.36 4.59.36-2.27.36-2.74.37-.97.36 2.27.36-1.73.36-1.45.36 4.44.37.67.36 2.82.36-.68.36-3.14.36-1.58.37 1.39.36-2.02.36 1.47.36-.29.36 1.36.37 1.53.36.18.36-2.49.36.3.36.19.37-2.7.36 4.83.36-2.35.36-1.59.37.38.36.67.36-2.29.36-2.12.36 5.66.37-2.1.36.37.36.77.36-.92.36-1.78.37 2.24.36-2.48.36 1.17.36-.12.36-1.89.37 2.74.36-.39.36 1.23.36-.51.37-.71.36.58.36-4.84.36 2.09.36-2.81.37 1.23.36.55.36-1.8.36 1.01.36 1 .37 1.87.36 3.35.36-1.45.36 4.87.36.63.37 2.46.36-2.07.36-2.68.36-1.99.36 1.18.37-2.18.36 1.49.36-2.04.36.23.37 2.39.36 2.67.36-1.8.36.02.36-3.26.37.89.36 1.93.36 1.75.36.28.36-1.14.37-2.06.36-1.15.36 1.02.36 1.35.36.96.37-2.44.36.24.36-2.85.36 4.67.37-1.45.36-1.53.36-.74.36-.18.36-.46.37-.01.36 1.61.36.49.36 3.17.36-1.54.37-2.14.36 1.77.36-.19.36.03.36-.27.37-1.62.36-.54.36-1.88.36-1.03.36-2.55.37.35.36-.75.36 5.88.36 2.85.37-2.74.36-1.29.36 1.79.36-1.57.36.38.37.42.36.47.36.52.36.41.36-2.23.37.5.36 1.87.36-1.56.36-.17.36-3.01.37-1.01.36 2.46.36-1.56.36 1.22.37-2.11.36-2.48.36 2.09.36 3.49.36-.03.37-1.1.36.82.36-1.79.36 2.16.36-.64.37-.31.36-.59.36.81.36 3.1.36-2.03.37-1.54.36 3.16.36-2 .36.07.37.44.36-1.71.36-.04.36-1.32.36-.36.37 1.3.36 1.35.36-1.18.36-2.74.36-.29.37-1.6.36 2.26.36 2.44.36 1.99.36-2.58.37 2.01.36.91.36 2.89.36.37.36.5.37-1.94.36-1.91.36-2.13.36-1.34.37 5.58.36.63.36-.56.36-3.24.36 2.82.37-1.64.36-.16.36 5.19.36-3.19.36 1.08.37 1.14.36-3.03.36.27.36 1.32.36-1.34.37-1.69.36-.24.36 2.77.36 1.39.37-1.94.36-.67.36-1.03.36.87.36-.8.37-.53.36-.72.36-.18.36 1.37.36-.62.37-2.53.36 3.68.36-.78.36.39.36.16.37.76.36-1.07.36-2.27.36.5.36-.5.37-.58.36-1.78.36.6.36.64.37-2.04.36 1.52.36-.36.36-.29.36-1.68.37-.28.36-.26.36-1.53.36-.92.36 1.77.37-1.8.36 2.08.36-.57.36 3.21.36.49.37-.77.36 3.25.36-.41.36 2.78.37-3.65.36 2.32.36-.33.36 1.88.36-3.27.37.94.36 1.36.36-1.09.36.65.36.63.37.11.36-3.05.36 1.19.36-2.36.36 1.66.37.01.36-2.15.36.3.36.13.37 3.1.36-2.42.36.57.36 1.09.36-1.54.37-1.02.36.12.36 1.38.36.02.36-.14.37.76.36-1.18.36 2.82.36-1.51.36-.15.37 2.1.36-.74.36-5.03.36 3.64.36-.87.37-1.37.36-.04.36-.66.36-1.55.37 1.09.36 1.73.36 2.63.36-.78.36 4.45.37-.7.36 5.58.36-3.33.36 1.59.36-3.42.37-.36.36-.5.36-1.3.36 1.08.36-.88.37.69.36.05.36-.37.36.59.37-2.18.36-.31.36-.89.36-2.06.36.32.37 6.23.36 1.37.36-1.48.36.64.36-.08.37-.05.36 1.44.36-2.41.36-2.19.36 1.28.37 4.39.36 3.37.36-2.45.36-.19.36 1.27.37 2.75.36.03.36-.89.36-3.07.37-2.13.36 4.23.36.71.36-3.98.36 3.71.37-.19.36.15.36-3.26.36 1.33.36-1.12.37-.06.36.78.36-2.09.36-.77.36-.98.37 1.26.36 1.09.36-2.55.36-2.49.37 4.39.36-3.28.36 2.66.36.5.36-3.47.37-.69.36-.7.36 1.21.36 3.99.36-1.14.37-2.73.36 2.21.36 2.14.36-.91.36-.61.37.57.36 1.56.36-2.09.36-3.87.36 4.63.37 1.67.36-.58.36.81.36-3.42.37 1.21.36.06.36-2.34.36-1.31.36.42.37 1.58.36 1.03.36-.03.36-2.61.36.15.37-2.43.36.82.36.56.36 4.31.36-.95.37-.93.36.85.36-2.34.36-.31.37-.96.36.77h.36l.36-1.77.36 1.84.37-.94.36-.54.36-.79.36.05.36.88.37-.27.36 4.91.36-2.41h.36l.36 1.28.37-.53.36-.47.36-.21.36-1.92.37.85.36 2.71.36 1.18.36-1 .36-2.22.37 1.36.36.42.36-.33.36 1.56.36-2.57.37 1.41.36-1.59.36 1.8.36-.96.36-.17.37-1.21.36.22.36 1.17.36-2.38.36-.28.37 4.67.36 1.62.36-.85.36-.58.37-1.96.36.62.36-2.04.36 2.18.36 3.32.37-1.02.36.33.36-1.35.36-.24.36-1.65.37-2.44.36 3.91.36-4.68.36-1.01.36 2.7.37-.53.36-1.44.36-.5.36 1.15.37 6.13.36-1.32.36.98.36.21.36.14.37-.28.36-1.59.36-1.43.36 1.77.36-.76.37-1.43.36 1.51.36-.34.36-.1.36-.89.37-2.01.36 2.67.36 2.97.36-.52.36-1.99.37-.96.36-.11.36 2.16.36 1.89.37-.87.36-.55.36-.24.36-3.14.36 1.21.37.39.36 1.62.36 1.96.36-2.17.36.59.37 1.13.36-1.11.36-2.14.36 1.66.36-2.86.37-.2.36 2.44.36-.41.36-1.28.37-1.28.36 1.15.36 1.16.36-.42.36 2.06.37-1.51.36-1.21.36-1.31.36 2.72.36 2.09.37-2.45.36-.35.36.24.36.25.36-.78.37.52.36 2.04.36-.84.36-3.24.36-1.75.37-.25.36-1.22.36-.34.36 3.57.37 2.22.36-.18.36-2.14.36.65.36 1.41.37.63.36-.68.36 1.81.36-2.6.36.28.37.09.36.23.36-2.68.36 1.45.36-2.03.37.9.36 3.56.36-.1.36.18.37-3.34.36-.28.36-.66.36-2.05.36 2.15.37-.63.36-.3.36-.27.36 4.01.36-1.76.37.99.36.77.36 1.67.36-1.24.36-.08.37-.85.36.5.36-1.64.36 4.15.37-2.14.36.8.36-1.23.36-1.23.36-.44.37-.41.36.52.36.26.36.4.36-.56.37 4.78.36-3.86.36 3.88.36-1.25.36-1.25.37-1.43.36-1.86.36 3.11.36 2.21.36-2.58.37-.24.36-.32.36 1.64.36-1.12.37.45.36-1.3.36 1.17.36-1.93.36 1.66.37 1.05.36 1.95.36-2.49.36-.49.36-1.38.37.46.36 2.45.36-.71.36 2.03.36-3.04.37 1.46.36-.8.36-.44.36-1.38.37 2.67.36 4.38.36-2.45.36 1.22.36-2.05.37-.81.36 1.7.36-1.22.36.67.36 2.39.37.47.36-1.64.36.28.36-3.22.36 1.21.37.15.36 1.5.36-1.3.36 2.11.36-2.98.37-2.91.36-.46.36 1.19.36 1.74.37-.3.36-2.15.36-2.65.36.9.36 1.8.37-.74.36.27.36-1.79.36 3.72.36.33.37-2.51.36-.43.36-.5.36.4.36 2.6.37-4.04.36-2.18.36 5.39.36-3.21.37.56.36.32.36-4.38.36-1.64.36.47.37 2.86.36-.39.36-.1.36 4.51.36.3.37-2.03.36-.2.36-1.14.36-1.25.36-1.46.37-1.61.36 5.14.36-1.88.36 1.18.36-2.61.37 3.11.36-1.96.36 2.11.36 4.48.37-2.1.36-3.45.36 1.12.36-.03.36-.78.37 1.8.36-1.34.36 2.71.36-1.56.36 3.2.37-3.19.36-4.18.36 7.68.36-.62.36-1.25.37 2.38.36.62.36.37.36-2.48.37-1.98.36.34.36 3.46.36.48.36 1.3h.37l.36-.55.36 3.93.36-1.63.36-1.49.37-2.26.36 1.81.36 2.97.36-3.37.36.95.37-1.96.36.5.36.32.36 2.18.37-2.22.36.12.36.51.36-.03.36-.16.37-2.58.36 3.27.36-1.7.36-1.61.36.89.37-1.13.36 1.37.36.11.36-2.37.36 1.12.37 1.68.36 3.21.36 1.08.36-.74.36-3.31.37-.28.36.8.36.52.36-.2.37.06.36-.28.36.19.36-2.23.36.05.37.97.36.33.36.56"/><use xlink:href="#9ea98__c" color="#FFAB00" transform="matrix(3.75 0 0 3.75 125.4 136.66)"/><use xlink:href="#9ea98__c" color="#FFAB00" transform="matrix(3.75 0 0 3.75 220.55 7.51)"/></g><text stroke-linecap="round" stroke-linejoin="round" color="#000" font-family="KaTeX_Main" font-size="8" transform="translate(241.1 25.11)"><tspan>Zip</tspan></text><g fill="none" stroke="currentColor" stroke-linecap="round" stroke-linejoin="round" color="#000"><path stroke="#F44336" d="M205.6 22.51h29.9M28 132.96l.36 2.81.36 1.2.37 2.79.36-1.12.36-2.13.36.61.36-.32.37-.43.36-.62.36 2.3.36.81.37-1.81.36 1.37.36-3.86.36-2.83.36 3.78.37 2.05.36-5.52.36 4.14.36 2.37.36-1.22.37-1.76.36.59.36-.94.36-1.95.36 1.39.37.48.36-3.36.36-.84.36-1.74.36-1.16.37-.96.36-2.99.36.3.36-2.19.37 8.36.36 2.53.36-1.89.36-2.73.36 6.51.37-.44.36-3.47.36-3.4.36 1.59.36 3.7.37-.42.36.62.36-2.52.36-.23.36-1.45.37 1.01.36 5.68.36-.87.36-1.31.37-2.09.36 2.44.36 1.63.36.09.36-2.58.37-2.96.36-4.51.36 1.46.36 5.51.36-1.44.37 1.06.36-3.13.36-.13.36-1.86.36 3.78.37-3.92.36 3.73.36-1.73.36-.71.37.8.36-2.85.36-.84.36-.87.36 6.34.37-1.15.36.92.36-4.23.36-.12.36 3.92.37-2.17.36-3.57.36-2.74.36 2.38.36-.13.37-5.66.36 1.82.36 3.13.36-1.71.36-.61.37 3.43.36-.76.36.99.36-6.08.37.16.36 10.52.36.68.36 4.4.36-.11.37-3.41.36 3.38.36-.83.36-3.01.36 1.56.37-4.05.36 2.19.36-2.88.36.69.36 1.36.37-.03.36 9.07.36-.38.36-1.51.37 2.23.36 1.14.36-5.66.36.67.36-4.22.37 3.34.36-1.59.36 4 .36-.27.36-2.21.37-1.21.36-.98.36 5.74.36-3.4.36-.46.37-4.77.36 2.74.36 5.35.36-.53.36-2.27.37-.15.36-2.47.36-1.41.36-.65.37 2.48.36 2.09.36-2.6.36-.46.36 1.59.37-2.32.36-1.76.36-3.74.36 5.4.36-4.94.37 2.29.36-1.04.36-.76.36-2.1.36 3.2.37 5.52.36 2.42.36-2.99.36 4.03.37-2.86.36-4 .36.57.36 3.64.36 1.41.37-2.15.36 1.09.36 1.38.36-.9.36-2.17.37-1.52.36-2.94.36-1.45.36 5.82.36-1.88.37.52.36-.52.36-2.67.36 7.39.36-1.84.37-1.65.36-2.25.36 1.96.36-.25.37 4.29.36-3.27.36-.69.36-3.88.36.24.37-1.95.36 6.62.36.52.36-1.96.36-.38.37-.92.36.16.36-2.93.36.6.36-.89.37.64.36 1.48.36-.79.36-.97.37 1.77.36.7.36-.18.36-.48.36-2.1.37-4.04.36 1.69.36-.72.36.71.36 1.29.37.12.36-1.66.36.82.36-1.49.36-2.15.37-1.41.36-.64.36.42.36.63.37-1.35.36.2.36.44.36 1.69.36-.67.37-2.36.36 2.66.36-.31.36-1.26.36.83.37-2.83.36-2.21.36-.78.36-2.79.36.85.37 3.6.36 2.05.36.55.36-2.7.36-2.08.37-.96.36-.5.36-4.47.36 4.39.37-1.94.36-2.73.36 3.35.36.45.36.76.37 6.07.36 1.35.36-2.99.36 3.08.36 1.63.37 3.28.36-2.25.36-1.15.36 2.37.36-1.1.37 1.31.36-3.04.36-2.4.36 1.39.37-2.73.36-.01.36 5.56.36.61.36-3.37.37-2.02.36 3.03.36 1.59.36-2.29.36-1.14.37.3.36-.63.36-.99.36.96.36 1.28.37-.41.36-.17.36-4.61.36-.43.36-.98.37.47.36 4.12.36-.33.36 2.44.37-1.59.36 1.02.36-3.11.36-4.02.36 3.54h.37l.36-1 .36 1.01.36.34.36-1.71.37-.4.36-1.32.36-3.29.36 2.75.36 1.64.37 3.6.36-4.02.36 1.87.36 3.78.37-1.81.36 1.57.36-1.97.36.28.36 3.45.37-1.73.36 12.6.36-.88.36-1.7.36 4.88.37-4.87.36 1.08.36 2.73.36-5.79.36 2.94.37-1.14.36-.3.36-.54.36 3.74.36-2.74.37.1.36.46.36-1.68.36-1.5.37-2.05.36-3.59.36 8.37.36-1.2.36-.54.37-.74.36-.06.36-4.39.36 3.53.36.14.37.77.36-.43.36-.72.36-.05.36-1.07.37-2.39.36.49.36-.78.36 4.68.37-2.12.36 5.08.36 1.55.36-.61.36-.15.37 1.88.36-3.06.36 1.2.36-2.89.36 4.66.37-1.01.36-1.42.36 2.18.36-1.69.36-1.88.37 1.51.36.88.36-4.08.36-2.16.37-1.27.36.45.36 2.16.36 6.17.36-1 .37-.2.36-1.36.36-2.09.36-3.53.36-1.84.37 3.37.36-2.91.36 6.21.36 3.7.36.88.37-1.56.36.11.36-2.86.36-1.95.36 2.67.37 2.6.36 1.47.36-2.31.36-2.78.37-3.47.36 5.13.36-4.36.36-.43.36-3.82.37-.24.36 1.1.36-4.6.36 6.95.36 2.81.37-.89.36-3.74.36 1.95.36.45.36 2.32.37-.56.36-1.18.36-1.17.36-.91.37.38.36-.82.36 3.77.36-3.96.36 1.88.37 2.65.36-.5.36-1.3.36.15.36.66.37-1.2.36-1.51.36 5.01.36 2.89.36-2.21.37 5.8.36-.98.36-4.77.36.47.36-1.42.37.2.36-2.62.36 2.96.36 2.61.37 2.02.36.03.36-.48.36-2.57.36-2.32.37-.83.36-1.16.36-2.58.36 4.79.36-1.22.37 6.55.36-.95.36-6.24.36 5.62.36-.9.37-1.13.36.69.36 4.32.36.45.37-2.36.36.12.36-3 .36-1.88.36-3.05.37-.1.36 5.03h.36l.36-1.81.36-3.35.37 1.51.36 3.47.36-1.32.36-3.09.36 3.36.37-2.79.36 2.46.36 3.94.36-1.5.37.75.36-.04.36-2.67.36-1.98.36 3.9.37-.91.36-1.31.36-2.79.36.23.36 1.5.37.8.36-.28.36 4.69.36-3.3.36.16.37-.59.36-1.35.36 2.42.36 1.2.36-4.73.37-1.66.36 5.02.36-.27.36 1.15.37-1.13.36-1.19.36-2.41.36 1.36.36-1.91.37.54.36 4.28.36-4.99.36 2.75.36-1.46.37-.24.36 1.02.36 1.47.36.5.36-1.94.37-.65.36.9.36-4.08.36 4.07.37 1.13.36.06.36-3.53.36-2.11.36.72.37.87.36.58.36 1.55.36-2.91.36-3.24.37-3.93.36 1.1.36-.08.36 5.81.36 6.58.37-1 .36-4.68.36-3.61.36 1.33.36 5.74.37-2.7.36-1.53.36 2.02.36-2.31.37.91.36-1.99.36 13.92.36 1.08.36-1.06.37-1.4.36-1.41.36 1.27.36-.83.36-1.46.37-2.54.36.08.36-2.59.36-1.51.36 2.63.37 1.62.36-3.69.36 3.87.36 2.33.37.66.36-.29.36-2.64.36.31.36 3.67.37-1.43.36-1.48.36 1.66.36.06.36-.37.37-2.71.36 1.69.36.33.36-2.77.36-1.72.37 2.49.36 4.56.36-1.34.36 1.14.36-.84.37-.97.36-3.42.36-4.35.36 8.43.37-.57.36 3.89.36-.32.36-.29.36-.12.37-1.54.36-.16.36-.95.36-3.36.36-.95.37 4.58.36-3.07.36 1.56.36-3.88.36 2.07.37-1.31.36 3.19.36-2.53.36-.93.37 1.01.36-1.33.36 2.31.36-.17.36-1.09.37-2.91.36 2.67h.36l.36-.66.36-1.04.37 1.45.36-1.23.36-2.41.36-2.29.36 1.5.37 1.9.36 2.3.36-1.98.36-3.03.37-2.37.36 3.38.36 2.02.36-1.17.36 1.89.37-2.14.36-.23.36 8.78.36-2.56.36-2.18.37 6.26.36.03.36-3.9.36 1.84.36-.82.37 1.79.36-3.13.36 1.17.36-1.35.36 2.12.37-1.68.36-1.87.36.29.36-2.9.37 4.53.36-1.94.36 1.04.36-1.67.36-1.93.37.53.36-2.15.36-1.23.36.89.36 3.26.37-1.73.36-3.63.36 2.38.36-2.54.36-1.01.37-.15.36-3.3.36-2.49.36-.01.37 11.98.36.17.36 2.54.36-.59.36-3.22.37 1.39.36.78.36-1.84.36-.9.36-7.39.37 5.81.36-.31.36-1.89.36 2.99.36 2.13.37 2.82.36-1.18.36-1.38.36-.3.36-1.6.37-1.38.36 2.24.36-3.69.36-1.66.37 1.83.36 4.93.36-2.73.36-2.66.36 1.6.37-2.43.36.08.36 2 .36 1.76.36-2.62.37 1.81.36-1.78.36.32.36-2.52.36.47.37-.37.36 3.96.36 1.38.36.53.37-3.81.36 2.72.36-.66.36.15.36-2.39.37.78.36-.45.36-.68.36 4.1.36-2.05.37-1.12.36-.58.36 2 .36-.56.36-4.11.37.38.36-.85.36 5.46.36-1.39.36 3.73.37-.69.36-.32.36-1.57.36.18.37-3.11.36 6.21.36 1.14.36-1.75.36.42.37-3.21.36.9.36 1.73.36-1.2.36.37.37-5.69.36 8.72.36.53.36-.89.36 3.36.37-2.25.36 2.18.36-1.2.36-1.15.37-3.26.36-.5.36-3.73.36 4.41.36 2.41.37-3.64.36-.68.36-3.4.36 1.82.36 7.28.37 1.1.36-.53.36-1.58.36-4.78.36 2.77.37 1.42.36.88.36 6.17.36-2.46.37-.02.36-1.8.36-.18.36-.31.36 1.33.37-1.45.36-3.93.36-.17.36.3.36-4.25.37 16.33.36 1.06.36-.43.36-.22.36-.17.37-2.77.36-2.11.36 3.4.36-.52.36-1.3.37-.62.36-.21.36.83.36.59.37-6.46.36 7.17.36-2.82.36 2.43.36-1.09.37 1.16.36-1.48.36-1.61.36-1.01.36 1.99.37 1.06.36-.49.36-1.86.36-3.2.36 2.67.37.24.36 2.18.36-.41.36-.29.37-1.93.36.41.36-2.32.36-2.01.36 7.13.37-2.06.36-.06.36-1.33.36-2.88.36-3.07.37 4.59.36.61.36 3.48.36.8.36-1.16.37-1.07.36-.28.36.21.36-1.32.36-2.71.37 2.14.36.71.36.49.36-4.46.37 3.72.36-2.7.36.13.36 1.42.36-2.67.37 1.25.36-.76.36-3.74.36 3.53.36.46.37-.02.36-1.13.36-1.93.36.99.36.29.37-.14.36 11.15.36-1.13.36-2.76.37 4.68.36-1.99.36 1.5.36-2.72.36-.22.37-2.25.36 3.17.36-.29.36-.92.36-.2.37-3.72.36-1.57.36 4.46.36 1.59.36-.46.37-.33.36-.07.36.1.36-.21.36-1.98.37-.06.36 1.59.36-.79.36-2.02.37-.4.36.36.36 1.32.36 4.71.36-.82.37-.14.36-1.71.36.68.36-1.35.36.64.37-1.3.36 2.25.36 1.6.36-.07.36-1.97.37-1.08.36-4.93.36 5.62.36-2.65.37.33.36.12.36 2.78.36 1.16.36.78.37-.12.36-1.54.36-.93.36-2.69.36-1.48.37-.18.36-.68.36 4.51.36-.43.36 3.79.37-1.33.36 1.23.36-1.53.36-2.55.37 1.12.36-2.75.36.57.36-.13.36-.6.37-.51.36-.85.36-.64.36-4.69.36 2.9.37 3.52.36-2.3.36-5.29.36-2.01.36 3.53.37-2.13.36 1.5.36 3 .36 5.48.36 1.5.37.34.36-2.72.36-2.24.36-.93.37 2.65.36.06.36-1.51.36 2.59.36-3.42.37-.68.36 2.65.36-1.55"/><use xlink:href="#9ea98__d" color="#F44336" transform="matrix(3.75 0 0 3.75 182.98 134.3)"/><use xlink:href="#9ea98__d" color="#F44336" transform="matrix(3.75 0 0 3.75 220.55 22.51)"/></g><path fill="none" d="M28 45.01V162.5M371.99 45.01H28" color="#000"/></svg>