<svg xmlns="http://www.w3.org/2000/svg" xmlns:xlink="http://www.w3.org/1999/xlink" viewBox="0 0 400 200"><path fill="none" d="M0 0h400v200H0z"/><defs><path id="4af0b__b" stroke="currentColor" stroke-width=".267" d="M-1-1h2v2h-2z"/><path id="4af0b__d" fill="currentColor" stroke="currentColor" stroke-width=".267" d="M-1-1h2v2h-2z"/><path id="4af0b__a" stroke="currentColor" stroke-width=".267" d="m0-1.33-1.33 2h2.66z"/><path id="4af0b__h" stroke="currentColor" stroke-width=".267" d="M0 1.33 1.265.411.782-1.067l-1.564-.009-.483 1.487z"/><use xlink:href="#4af0b__a" id="4af0b__e" fill="currentColor" stroke="none"/><use xlink:href="#4af0b__b" id="4af0b__c" stroke="currentColor" transform="rotate(45)"/><use xlink:href="#4af0b__c" id="4af0b__g" fill="currentColor" stroke="none"/><circle id="4af0b__f" cx="0" cy="0" r="1" stroke="currentColor" stroke-width=".267"/></defs><path fill="none" stroke="#CCC" stroke-linecap="round" stroke-linejoin="round" stroke-width=".1" d="M46.1 162.5V75.01" class="4af0b__gridline" color="#000"/><g fill="none" stroke-linecap="round" stroke-linejoin="round" stroke-width="0" color="#000"><path d="M46.1 162.5V155m0-79.99v7.5"/><text fill="#000" font-family="KaTeX_Main" font-size="8" text-anchor="middle" transform="translate(46.1 172.6)"><tspan> 1</tspan></text></g><path fill="none" stroke="#CCC" stroke-linecap="round" stroke-linejoin="round" stroke-width=".1" d="M82.31 162.5V75.01" class="4af0b__gridline" color="#000"/><g fill="none" stroke-linecap="round" stroke-linejoin="round" stroke-width="0" color="#000"><path d="M82.31 162.5V155m0-79.99v7.5"/><text fill="#000" font-family="KaTeX_Main" font-size="8" text-anchor="middle" transform="translate(82.31 172.6)"><tspan> 2</tspan></text></g><path fill="none" stroke="#CCC" stroke-linecap="round" stroke-linejoin="round" stroke-width=".1" d="M118.52 162.5V75.01" class="4af0b__gridline" color="#000"/><g fill="none" stroke-linecap="round" stroke-linejoin="round" stroke-width="0" color="#000"><path d="M118.52 162.5V155m0-79.99v7.5"/><text fill="#000" font-family="KaTeX_Main" font-size="8" text-anchor="middle" transform="translate(118.52 172.6)"><tspan> 3</tspan></text></g><path fill="none" stroke="#CCC" stroke-linecap="round" stroke-linejoin="round" stroke-width=".1" d="M154.73 162.5V75.01" class="4af0b__gridline" color="#000"/><g fill="none" stroke-linecap="round" stroke-linejoin="round" stroke-width="0" color="#000"><path d="M154.73 162.5V155m0-79.99v7.5"/><text fill="#000" font-family="KaTeX_Main" font-size="8" text-anchor="middle" transform="translate(154.73 172.6)"><tspan> 4</tspan></text></g><path fill="none" stroke="#CCC" stroke-linecap="round" stroke-linejoin="round" stroke-width=".1" d="M190.94 162.5V75.01" class="4af0b__gridline" color="#000"/><g fill="none" stroke-linecap="round" stroke-linejoin="round" stroke-width="0" color="#000"><path d="M190.94 162.5V155m0-79.99v7.5"/><text fill="#000" font-family="KaTeX_Main" font-size="8" text-anchor="middle" transform="translate(190.94 172.6)"><tspan> 5</tspan></text></g><path fill="none" stroke="#CCC" stroke-linecap="round" stroke-linejoin="round" stroke-width=".1" d="M227.15 162.5V75.01" class="4af0b__gridline" color="#000"/><g fill="none" stroke-linecap="round" stroke-linejoin="round" stroke-width="0" color="#000"><path d="M227.15 162.5V155m0-79.99v7.5"/><text fill="#000" font-family="KaTeX_Main" font-size="8" text-anchor="middle" transform="translate(227.15 172.6)"><tspan> 6</tspan></text></g><path fill="none" stroke="#CCC" stroke-linecap="round" stroke-linejoin="round" stroke-width=".1" d="M263.36 162.5V75.01" class="4af0b__gridline" color="#000"/><g fill="none" stroke-linecap="round" stroke-linejoin="round" stroke-width="0" color="#000"><path d="M263.36 162.5V155m0-79.99v7.5"/><text fill="#000" font-family="KaTeX_Main" font-size="8" text-anchor="middle" transform="translate(263.36 172.6)"><tspan> 7</tspan></text></g><path fill="none" stroke="#CCC" stroke-linecap="round" stroke-linejoin="round" stroke-width=".1" d="M299.57 162.5V75.01" class="4af0b__gridline" color="#000"/><g fill="none" stroke-linecap="round" stroke-linejoin="round" stroke-width="0" color="#000"><path d="M299.57 162.5V155m0-79.99v7.5"/><text fill="#000" font-family="KaTeX_Main" font-size="8" text-anchor="middle" transform="translate(299.57 172.6)"><tspan> 8</tspan></text></g><path fill="none" stroke="#CCC" stroke-linecap="round" stroke-linejoin="round" stroke-width=".1" d="M335.78 162.5V75.01" class="4af0b__gridline" color="#000"/><g fill="none" stroke-linecap="round" stroke-linejoin="round" stroke-width="0" color="#000"><path d="M335.78 162.5V155m0-79.99v7.5"/><text fill="#000" font-family="KaTeX_Main" font-size="8" text-anchor="middle" transform="translate(335.78 172.6)"><tspan> 9</tspan></text></g><path fill="none" stroke="#CCC" stroke-linecap="round" stroke-linejoin="round" stroke-width=".1" d="M371.99 162.5V75.01" class="4af0b__gridline" color="#000"/><g fill="none" stroke-linecap="round" stroke-linejoin="round" stroke-width="0" color="#000"><path d="M371.99 162.5V155m0-79.99v7.5"/><text fill="#000" font-family="KaTeX_Main" font-size="8" text-anchor="middle" transform="translate(371.99 172.6)"><tspan> 10</tspan></text></g><g fill="none" stroke-linecap="round" stroke-linejoin="round" stroke-width="0" color="#000"><path d="M371.99 162.5h-7.5"/><text fill="#000" font-family="KaTeX_Main" font-size="8" transform="translate(378.99 165.1)"><tspan>0.00</tspan></text></g><g fill="none" stroke-linecap="round" stroke-linejoin="round" stroke-width="0" color="#000"><path d="M371.99 150h-7.5"/><text fill="#000" font-family="KaTeX_Main" font-size="8" transform="translate(378.99 152.6)"><tspan>0.20</tspan></text></g><g fill="none" stroke-linecap="round" stroke-linejoin="round" stroke-width="0" color="#000"><path d="M371.99 137.5h-7.5"/><text fill="#000" font-family="KaTeX_Main" font-size="8" transform="translate(378.99 140.1)"><tspan>0.40</tspan></text></g><g fill="none" stroke-linecap="round" stroke-linejoin="round" stroke-width="0" color="#000"><path d="M371.99 125h-7.5"/><text fill="#000" font-family="KaTeX_Main" font-size="8" transform="translate(378.99 127.6)"><tspan>0.60</tspan></text></g><g fill="none" stroke-linecap="round" stroke-linejoin="round" stroke-width="0" color="#000"><path d="M371.99 112.51h-7.5"/><text fill="#000" font-family="KaTeX_Main" font-size="8" transform="translate(378.99 115.11)"><tspan>0.80</tspan></text></g><g fill="none" stroke-linecap="round" stroke-linejoin="round" stroke-width="0" color="#000"><path d="M371.99 100.01h-7.5"/><text fill="#000" font-family="KaTeX_Main" font-size="8" transform="translate(378.99 102.61)"><tspan>1.00</tspan></text></g><g fill="none" stroke-linecap="round" stroke-linejoin="round" stroke-width="0" color="#000"><path d="M371.99 87.51h-7.5"/><text fill="#000" font-family="KaTeX_Main" font-size="8" transform="translate(378.99 90.11)"><tspan>1.20</tspan></text></g><g fill="none" stroke-linecap="round" stroke-linejoin="round" stroke-width="0" color="#000"><path d="M371.99 75.01h-7.5"/><text fill="#000" font-family="KaTeX_Main" font-size="8" transform="translate(378.99 77.61)"><tspan>1.40</tspan></text></g><path fill="none" d="M28 75.01v87.49m343.99-87.49H28" color="#000"/><text stroke-linecap="round" stroke-linejoin="round" stroke-width="0" color="#000" font-family="KaTeX_Main" font-size="10" text-anchor="middle" transform="rotate(-90 65.13 53.63)"><tspan font-weight="bold">Allocations </tspan><tspan> / log</tspan><tspan dy="3" font-size="8">2</tspan><tspan dy="-3">(Size)</tspan></text><text stroke-linecap="round" stroke-linejoin="round" stroke-width="0" color="#000" font-family="KaTeX_Main" font-size="10" text-anchor="middle" transform="translate(199.99 195.75)"><tspan>Operations / 10</tspan><tspan dy="-5" font-size="8">6</tspan></text><text stroke-linecap="round" stroke-linejoin="round" color="#000" font-family="KaTeX_Main" font-size="8" transform="translate(99.2 10.11)"><tspan>Conc</tspan></text><g fill="none" stroke="currentColor" stroke-linecap="round" stroke-linejoin="round" color="#000"><path stroke="#9F650D" stroke-dasharray="1.0,2.0" d="M63.7 7.51h29.9M28 87.61l.36-.25.36.32.37 1.75.36-.54.36-.81.36-.43.36-.4.37-.65.36.16.36 1.27.36-.05.37-.42.36 1.35.36.39.36-.23.36-.31.37-.46.36-.18.36.24.36-.44.36-.44.37-.65.36-.5.36.82.36.51.36 1.07.37.66.36-.26.36-.31.36-.37.36-.3.37-.31.36-.33.36-.37.36-.29.37-.29.36-.37.36-.43.36 1.79.36.73.37-.44.36-.32.36-.42.36-.24.36 1.39.37.07.36-.32.36-.24.36-.5.36-.21.37 8.25.36.03.36-.03.36-.06.37-.05.36.04.36.08.36-.66.36-.82.37.07.36.19.36-.02.36.05.36.05.37.02.36.02.36.02.36.1.36.76.37.2.36-.02.36-.03.36.05.37-.25.36.58.36.02.36-.05.36-.01.37-.04.36.05.36.03.36-.14.36-.03.37-.19.36.13.36.06.36.46.36-.01.37.04.36-.33.36-.13.36.02.36-.01.37-.6.36-.12.36-.02.36-.08.37.09.36-.08.36-.12.36-.04.36.05.37.01.36-.13.36-.05.36-.15h.36l.37.81.36.37.36-.07.36.08.36-.1.37.03h.36l.36.03.36-.11h.37l.36-.09.36-.09.36-.02.36-.15.37.08.36.62.36-.08.36.07h.36l.37-.02.36.78.36.17.36.03.36-.05.37-.05.36.01.36-.12.36-.02.36-.49.37-.77.36.03.36.06.36-.01.37.02.36-.04.36-.09.36-.01.36.01.37.06.36-.21.36-.06.36-.05.36-.04.37-.05.36-.04.36.13.36-.05.36-.13.37-.13.36-.14.36-.05.36.07.37 1.6.36-.1.36.07.36-.01.36-.03.37-.12.36.03.36-.14.36-.55.36-.83.37.35.36.44.36-.18.36-.1.36.08.37-.06.36-.01.36-.03.36.01.36.06.37-.07.36-.01.36-.08.36-.02.37.77.36.28.36-.05.36-.1.36-.08.37-.18.36-.06.36-.09.36-.17.36-.04.37.03.36.02.36-.18.36-.08.36-.03.37-.2h.36l.36-.22.36-.29.37.85.36 1.29.36.02.36.08.36.29.37.1.36.12.36-.2.36.1.36.07.37-.09.36-.12.36-.14.36-.37.36-.12.37-.04.36-.05.36.07.36-.03.37.1.36-.08.36-.04.36.03.36-.54.37-.85.36.04.36-.01.36-.04.36.07.37-.03.36-.01.36.01.36-.04.36-.04.37.5.36.22.36.04.36.01.36.18.37.04.36-.69.36-.3.36-.06.37.01.36-.02.36.12.36.49.36-.22.37-.31.36-.05.36.09.36.04.36.03.37.02.36.56.36.62.36.05.36-.09.37-.05.36.07.36.02.36-.06.37-.03.36-.07.36-.03.36-.03.36.28.37-.35.36-.41.36.14.36.07.36-.18.37-.16.36-.14.36-.12.36.03.36-.24.37-.07.36-.09.36 1.49.36.2.36.11.37-.03.36-.11.36-.02.36.03.37-.07.36-.2.36-.46.36-.03.36-.13.37-.33.36-.01.36.04.36.06.36-.01.37.25.36.25.36-.85.36-.51.36-.05.37 1.09.36.3.36-.02.36-.19.37-.04.36.07.36-.01.36-.09.36.05.37-.1.36.03.36.02.36.07.36-.04.37.47.36.16.36-.03.36-.22.36-.13.37-.08.36-.48.36-.26.36-.09.36-.26.37.1.36 1.7.36.03.36-.1.37.05.36.01.36-.64.36-.21.36-.04.37.05.36-.02.36.05.36-.05.36-.05.37-.02.36.36.36.14.36.07.36-1.06.37-.38.36.1.36-.11.36.17.37.93.36.37.36-.04.36.06.36-.17.37.04.36-.2h.36l.36-.13.36-.07.37-.3.36-.63.36.19.36 1.01.36.09.37-.11.36.06.36.06.36-.11.37.03.36.05.36.18.36.01.36.04.37.07.36.1.36.17.36-.02.36.02.37.09.36.16.36-.09.36.02.36.08.37-.11.36-.04.36-1.56.36.15.36-.05.37.04.36-.01.36-.12.36.04.37.12.36-.11.36.05.36.79.36.51.37-.02.36-.12.36-.12.36-.03.36-.05.37-.15.36-.83.36.02.36-.07.36.06.37-.04.36.04.36-.09.36-.01.37-.03.36-.01.36-.1.36.88.36.99.37-.08.36-.19.36-.42.36-.03.36-.03.37.04.36.03.36-.05.36.12.36-.05.37-.16.36-1.19.36.09.36.15.36.07.37.27.36-.05.36.06.36-.06.37-.12.36-.1h.36l.36-.06.36-.03.37.52.36.76.36-.1.36-.12.36-.04.37-.14.36-.7.36-.38.36-.07.36-.05.37-.04.36-.05.36-.04.36 1.15.37-.08h.36l.36.03.36-.05.36.08.37.13.36.09.36-.09.36-.02.36.1.37.07.36-.03.36.07.36.05.36.05.37.02.36.02.36.01.36.06.37-.08.36-1.17.36-.12.36.63.36.82.37.06.36.09.36-.14.36.12.36-.05.37-.08.36-.19.36-.7.36.49.36.19.37.05.36.18.36.07.36.09.36.19.37.38.36.02.36-.05.36-.66.37.13.36.02.36.12.36.03h.36l.37.14.36.11.36-.01.36.13.36-.06.37-.06.36-.54.36-.71.36-.09.36.01.37-.09.36.12.36-.1.36.01.37-.07.36-.03.36.28.36.01.36-.05.37.02.36-.12.36-.94.36.89.36.07.37-.02.36-.07.36-.07.36-.06.36-.01.37-.17.36-.15.36-.01.36-.1.36-.07.37-.17.36-.13.36-.08.36.01.37.49.36.14.36-.09.36-.06.36-.08.37-.15.36-.14.36-.04.36-.09h.36l.37.12.36 1.6.36.62.36-.67.36-.54.37.03.36.04.36-.01.36-.03.37-.01.36.02.36-.02h.36l.36-.1.37-.01.36.05.36-.12.36.03.36.04.37-.05.36.01.36-.15.36-.97.36-.06h.37l.36 1.18.36.21.36-.13.36.04.37-.02.36-.1.36-.05.36.02.37-.1.36-.01h.36l.36.04.36-.04.37-.12.36-.02.36-.16.36.03.36-.06.37-.03.36-.07.36-.07.36.87.36 1.08.37-.02.36-.15.36-1.66.36-.06.37-.05.36-.06.36-.14.36.06.36.38.37.59.36.01.36.05.36.01.36.08.37-.01.36-.05.36-.02.36.02.36-.04.37.09.36-.24.36-.47.36.26.37.08.36-.03.36.02.36.04.36-.01h.37l.36-.05.36.1.36-.09h.36l.37-.04.36.03.36.09.36-.13.36-.1.37-.09.36.93.36-.02.36-.15.36.04.37-.06.36-.07.36-.06.36-.19.37-.38.36-.42.36.04.36-.17.36.05.37.83.36.35.36-.02.36-.06.36-.01.37.04.36-.08h.36l.36-.06.36-.05.37-.09.36-.05.36.04.36.03.37-.71.36.67.36.05.36-.01.36.03.37-.03.36.02.36-.03.36-.07.36.04.37-.05.36.01.36.02.36-.21.36.17.37.94.36-.74.36-.83h.36l.36-.03.37-.06.36-.09.36-.01.36-.06.37-.01.36.36.36.15.36.04.36-.09.37.2.36.43.36-.01.36.03.36-.12.37.03.36-.01.36-.01.36-.11.36-.07.37-.07.36.63.36.4.36-.04.37.07.36.7.36.02.36.01.36.04.37.02.36-.07.36.04.36-.05.36-.15.37-.42.36-.61.36-.19.36-.07.36.04.37-.04.36-.02.36-.05.36-.11.36-.03.37-.07.36.1.36-.07.36-.01.37-.09.36.11.36-.02.36.19.36.03.37-.09.36-.09.36-.15.36.05.36.69.37.41.36-.14.36-.06.36-.11.36-.2h.37l.36-1.07.36-.27.36-.12.37.63.36.76h.36l.36-.03h.36l.37-.04.36-.08.36.06.36-.07.36-.11.37-.08.36-.06.36-.05.36-.14.36.49.37-.17.36-.04.36-.12.36-.15.37-.05.36-.04.36-.17.36-.12.36-.06.37 1.66.36.13.36-.09.36.01.36.02.37-.01.36-.01.36-.33.36-.09.36-.05.37.05.36.05h.36l.36.06.36.15h.37l.36-.42.36-1.19.36-.02.37-.08.36.02.36 1.34.36-.15.36-.01.37-.06.36.02.36-.04.36-.13.36.03.37-.06.36-.19.36-.05.36.07.36.02.37-.08.36-.09.36-.03.36-.12.37.5h.36l.36-.13.36-.01.36-.02.37-.02.36-.18.36.03.36 1.23h.36l.37.03.36.07.36-.38.36-.38.36.03.37.1.36.04.36-.12.36-.56.36.01.37.07.36-.05.36.01.36-.17.37.16.36-.08.36.08.36-.02.36-.01h.37l.36-.01.36.01.36-.02.36-.04h.37l.36.04.36-.2.36-.22.36.42.37-.14.36-.1.36-.04.36-.11.37-.15.36-.1.36-.14.36-.01.36-.21.37.03.36.86.36-.12.36-.1.36-.03.37-.09.36-.03.36-.03.36-.16.36-.08.37-.04.36-.06.36-.08.36-.07.36 2.02.37.29.36-.04.36.04.36-.1.37-.03.36.05.36-.07.36-.11h.36l.37-.51.36-1.26h.36l.36.08.36.42.37-.03.36.16.36 1.19.36.03.36.03.37.01.36-.06.36-.1.36-.2.37.17.36-.06.36-.08.36.03.36-.11.37-.1.36-.02.36.05.36-.14.36-.19h.37l.36.01.36-.08.36-.14.36.04.37-.44.36-.16.36 1.79.36.17.37-.03.36-.1.36.07.36-.05h.36l.37-.05.36-.05.36-.37.36-1.27.36.02.37-.08.36.01.36-.01h.36l.36.09.37-.05.36.07.36-.08.36-.12.36.11.37.4.36.53.36.11.36-.58.37-.45.36-.03.36-.05.36.01.36-.14.37-.07.36.11.36.01"/><use xlink:href="#4af0b__d" color="#9F650D" transform="matrix(3.75 0 0 3.75 354.25 95.74)"/><use xlink:href="#4af0b__d" color="#9F650D" transform="matrix(3.75 0 0 3.75 78.65 7.51)"/></g><text stroke-linecap="round" stroke-linejoin="round" color="#000" font-family="KaTeX_Main" font-size="8" transform="translate(99.2 25.11)"><tspan>Splay</tspan></text><g fill="none" stroke="currentColor" stroke-linecap="round" stroke-linejoin="round" color="#000"><path stroke="#29C3F6" d="M63.7 22.51h29.9M28 159.2h.36l.36.01h.37l.36.01h.36l.36.01h.36l.37.01h.72l.36.01h.37l.36.01h.72l.36.01h.73l.36.01h.72l.37.01h.72l.36.01h.73l.36.01h.72l.36.01h1.09l.36.01h.73l.36.01h1.09l.36.01h1.08l.37.01h1.44l.37 1.57h325.52"/><use xlink:href="#4af0b__b" color="#29C3F6" transform="matrix(3.75 0 0 3.75 67.83 160.93)"/><use xlink:href="#4af0b__b" color="#29C3F6" transform="matrix(3.75 0 0 3.75 78.65 22.51)"/></g><text stroke-linecap="round" stroke-linejoin="round" stroke-width=".5" color="#000" font-family="KaTeX_Main" font-size="8" transform="translate(99.2 40.11)"><tspan>AVLBottomUp</tspan></text><g fill="none" stroke="currentColor" stroke-linecap="round" stroke-linejoin="round" stroke-width=".5" color="#000"><path stroke="#000" d="M63.7 37.51h29.9M28 159.2h.36l.36.01h.37l.36.01h.36l.36.01h.36l.37.01h.72l.36.01h.37l.36.01h.72l.36.01h.73l.36.01h.72l.37.01h.72l.36.01h.73l.36.01h.72l.36.01h1.09l.36.01h.73l.36.01h1.09l.36.01h1.08l.37.01h1.44l.37 1.57h325.52"/><use xlink:href="#4af0b__e" transform="matrix(3.75 0 0 3.75 125.4 160.93)"/><use xlink:href="#4af0b__e" transform="matrix(3.75 0 0 3.75 78.65 37.51)"/></g><text stroke-linecap="round" stroke-linejoin="round" color="#000" font-family="KaTeX_Main" font-size="8" transform="translate(99.2 55.11)"><tspan>AVLRelaxedBottomUp</tspan></text><g fill="none" stroke="currentColor" stroke-linecap="round" stroke-linejoin="round" color="#000"><path stroke="#D336C8" d="M63.7 52.51h29.9M28 159.2h.36l.36.01h.37l.36.01h.36l.36.01h.36l.37.01h.72l.36.01h.37l.36.01h.72l.36.01h.73l.36.01h.72l.37.01h.72l.36.01h.73l.36.01h.72l.36.01h1.09l.36.01h.73l.36.01h1.09l.36.01h1.08l.37.01h1.44l.37 1.57h325.52"/><use xlink:href="#4af0b__a" color="#D336C8" transform="matrix(3.75 0 0 3.75 182.98 160.93)"/><use xlink:href="#4af0b__a" color="#D336C8" transform="matrix(3.75 0 0 3.75 78.65 52.51)"/></g><text stroke-linecap="round" stroke-linejoin="round" color="#000" font-family="KaTeX_Main" font-size="8" transform="translate(241.1 10.11)"><tspan>RedBlackBottomUp</tspan></text><g fill="none" stroke="currentColor" stroke-linecap="round" stroke-linejoin="round" color="#000"><path stroke="#F44336" d="M205.6 7.51h29.9M28 159.2h.36l.36.01h.37l.36.01h.36l.36.01h.36l.37.01h.72l.36.01h.37l.36.01h.72l.36.01h.73l.36.01h.72l.37.01h.72l.36.01h.73l.36.01h.72l.36.01h1.09l.36.01h.73l.36.01h1.09l.36.01h1.08l.37.01h1.44l.37 1.57h325.52"/><use xlink:href="#4af0b__a" color="#F44336" transform="matrix(3.75 0 0 3.75 240.55 160.93)"/><use xlink:href="#4af0b__a" color="#F44336" transform="matrix(3.75 0 0 3.75 220.55 7.51)"/></g><text stroke-linecap="round" stroke-linejoin="round" color="#000" font-family="KaTeX_Main" font-size="8" transform="translate(241.1 25.11)"><tspan>LBSTBottomUp</tspan></text><g fill="none" stroke="currentColor" stroke-linecap="round" stroke-linejoin="round" color="#000"><path stroke="#3B75EA" d="M205.6 22.51h29.9M28 159.2h.36l.36.01h.37l.36.01h.36l.36.01h.36l.37.01h.72l.36.01h.37l.36.01h.72l.36.01h.73l.36.01h.72l.37.01h.72l.36.01h.73l.36.01h.72l.36.01h1.09l.36.01h.73l.36.01h1.09l.36.01h1.08l.37.01h1.44l.37 1.57h325.52"/><use xlink:href="#4af0b__f" color="#3B75EA" transform="matrix(3.75 0 0 3.75 298.12 160.93)"/><use xlink:href="#4af0b__f" color="#3B75EA" transform="matrix(3.75 0 0 3.75 220.55 22.51)"/></g><text stroke-linecap="round" stroke-linejoin="round" color="#000" font-family="KaTeX_Main" font-size="8" transform="translate(241.1 40.11)"><tspan>LBSTRelaxed</tspan></text><g fill="none" stroke="currentColor" stroke-linecap="round" stroke-linejoin="round" color="#000"><path stroke="#FFAB00" stroke-dasharray="4.0,2.0,1.0,2.0" d="M205.6 37.51h29.9M28 159.2h.36l.36.01h.37l.36.01h.36l.36.01h.36l.37.01h.72l.36.01h.37l.36.01h.72l.36.01h.73l.36.01h.72l.37.01h.72l.36.01h.73l.36.01h.72l.36.01h1.09l.36.01h.73l.36.01h1.09l.36.01h1.08l.37.01h1.44l.37 1.57h325.52"/><use xlink:href="#4af0b__g" color="#FFAB00" transform="matrix(3.75 0 0 3.75 355.7 160.93)"/><use xlink:href="#4af0b__g" color="#FFAB00" transform="matrix(3.75 0 0 3.75 220.55 37.51)"/></g><text stroke-linecap="round" stroke-linejoin="round" color="#000" font-family="KaTeX_Main" font-size="8" transform="translate(241.1 55.11)"><tspan>TreapTopDown</tspan></text><g fill="none" stroke="currentColor" stroke-linecap="round" stroke-linejoin="round" color="#000"><path stroke="#00C853" stroke-dasharray="4.5,2.0,0.5,2.0,0.5,2.0" d="M205.6 52.51h29.9M28 159.2h.36l.36.01h.37l.36.01h.36l.36.01h.36l.37.01h.72l.36.01h.37l.36.01h.72l.36.01h.73l.36.01h.72l.37.01h.72l.36.01h.73l.36.01h.72l.36.01h1.09l.36.01h.73l.36.01h1.09l.36.01h1.08l.37.01h1.44l.37 1.57h325.52"/><use xlink:href="#4af0b__h" color="#00C853" transform="matrix(3.75 0 0 3.75 69.28 160.93)"/><use xlink:href="#4af0b__h" color="#00C853" transform="matrix(3.75 0 0 3.75 220.55 52.51)"/></g><path fill="none" d="M28 75.01v87.49m343.99-87.49H28" color="#000"/></svg>