<svg xmlns="http://www.w3.org/2000/svg" xmlns:xlink="http://www.w3.org/1999/xlink" viewBox="0 0 400 200"><path fill="none" d="M0 0h400v200H0z"/><defs><path id="93f97__b" stroke="currentColor" stroke-width=".267" d="M-1-1h2v2h-2z"/><path id="93f97__d" fill="currentColor" stroke="currentColor" stroke-width=".267" d="M-1-1h2v2h-2z"/><path id="93f97__a" stroke="currentColor" stroke-width=".267" d="m0-1.33-1.33 2h2.66z"/><path id="93f97__h" stroke="currentColor" stroke-width=".267" d="M0 1.33 1.265.411.782-1.067l-1.564-.009-.483 1.487z"/><use xlink:href="#93f97__a" id="93f97__e" fill="currentColor" stroke="none"/><use xlink:href="#93f97__b" id="93f97__c" stroke="currentColor" transform="rotate(45)"/><use xlink:href="#93f97__c" id="93f97__g" fill="currentColor" stroke="none"/><circle id="93f97__f" cx="0" cy="0" r="1" stroke="currentColor" stroke-width=".267"/></defs><path fill="none" stroke="#CCC" stroke-linecap="round" stroke-linejoin="round" stroke-width=".1" d="M46.1 162.5V75.01" class="93f97__gridline" color="#000"/><g fill="none" stroke-linecap="round" stroke-linejoin="round" stroke-width="0" color="#000"><path d="M46.1 162.5V155m0-79.99v7.5"/><text fill="#000" font-family="KaTeX_Main" font-size="8" text-anchor="middle" transform="translate(46.1 172.6)"><tspan> 1</tspan></text></g><path fill="none" stroke="#CCC" stroke-linecap="round" stroke-linejoin="round" stroke-width=".1" d="M82.31 162.5V75.01" class="93f97__gridline" color="#000"/><g fill="none" stroke-linecap="round" stroke-linejoin="round" stroke-width="0" color="#000"><path d="M82.31 162.5V155m0-79.99v7.5"/><text fill="#000" font-family="KaTeX_Main" font-size="8" text-anchor="middle" transform="translate(82.31 172.6)"><tspan> 2</tspan></text></g><path fill="none" stroke="#CCC" stroke-linecap="round" stroke-linejoin="round" stroke-width=".1" d="M118.52 162.5V75.01" class="93f97__gridline" color="#000"/><g fill="none" stroke-linecap="round" stroke-linejoin="round" stroke-width="0" color="#000"><path d="M118.52 162.5V155m0-79.99v7.5"/><text fill="#000" font-family="KaTeX_Main" font-size="8" text-anchor="middle" transform="translate(118.52 172.6)"><tspan> 3</tspan></text></g><path fill="none" stroke="#CCC" stroke-linecap="round" stroke-linejoin="round" stroke-width=".1" d="M154.73 162.5V75.01" class="93f97__gridline" color="#000"/><g fill="none" stroke-linecap="round" stroke-linejoin="round" stroke-width="0" color="#000"><path d="M154.73 162.5V155m0-79.99v7.5"/><text fill="#000" font-family="KaTeX_Main" font-size="8" text-anchor="middle" transform="translate(154.73 172.6)"><tspan> 4</tspan></text></g><path fill="none" stroke="#CCC" stroke-linecap="round" stroke-linejoin="round" stroke-width=".1" d="M190.94 162.5V75.01" class="93f97__gridline" color="#000"/><g fill="none" stroke-linecap="round" stroke-linejoin="round" stroke-width="0" color="#000"><path d="M190.94 162.5V155m0-79.99v7.5"/><text fill="#000" font-family="KaTeX_Main" font-size="8" text-anchor="middle" transform="translate(190.94 172.6)"><tspan> 5</tspan></text></g><path fill="none" stroke="#CCC" stroke-linecap="round" stroke-linejoin="round" stroke-width=".1" d="M227.15 162.5V75.01" class="93f97__gridline" color="#000"/><g fill="none" stroke-linecap="round" stroke-linejoin="round" stroke-width="0" color="#000"><path d="M227.15 162.5V155m0-79.99v7.5"/><text fill="#000" font-family="KaTeX_Main" font-size="8" text-anchor="middle" transform="translate(227.15 172.6)"><tspan> 6</tspan></text></g><path fill="none" stroke="#CCC" stroke-linecap="round" stroke-linejoin="round" stroke-width=".1" d="M263.36 162.5V75.01" class="93f97__gridline" color="#000"/><g fill="none" stroke-linecap="round" stroke-linejoin="round" stroke-width="0" color="#000"><path d="M263.36 162.5V155m0-79.99v7.5"/><text fill="#000" font-family="KaTeX_Main" font-size="8" text-anchor="middle" transform="translate(263.36 172.6)"><tspan> 7</tspan></text></g><path fill="none" stroke="#CCC" stroke-linecap="round" stroke-linejoin="round" stroke-width=".1" d="M299.57 162.5V75.01" class="93f97__gridline" color="#000"/><g fill="none" stroke-linecap="round" stroke-linejoin="round" stroke-width="0" color="#000"><path d="M299.57 162.5V155m0-79.99v7.5"/><text fill="#000" font-family="KaTeX_Main" font-size="8" text-anchor="middle" transform="translate(299.57 172.6)"><tspan> 8</tspan></text></g><path fill="none" stroke="#CCC" stroke-linecap="round" stroke-linejoin="round" stroke-width=".1" d="M335.78 162.5V75.01" class="93f97__gridline" color="#000"/><g fill="none" stroke-linecap="round" stroke-linejoin="round" stroke-width="0" color="#000"><path d="M335.78 162.5V155m0-79.99v7.5"/><text fill="#000" font-family="KaTeX_Main" font-size="8" text-anchor="middle" transform="translate(335.78 172.6)"><tspan> 9</tspan></text></g><path fill="none" stroke="#CCC" stroke-linecap="round" stroke-linejoin="round" stroke-width=".1" d="M371.99 162.5V75.01" class="93f97__gridline" color="#000"/><g fill="none" stroke-linecap="round" stroke-linejoin="round" stroke-width="0" color="#000"><path d="M371.99 162.5V155m0-79.99v7.5"/><text fill="#000" font-family="KaTeX_Main" font-size="8" text-anchor="middle" transform="translate(371.99 172.6)"><tspan> 10</tspan></text></g><g fill="none" stroke-linecap="round" stroke-linejoin="round" stroke-width="0" color="#000"><path d="M371.99 162.5h-7.5"/><text fill="#000" font-family="KaTeX_Main" font-size="8" transform="translate(378.99 165.1)"><tspan>0.000</tspan></text></g><g fill="none" stroke-linecap="round" stroke-linejoin="round" stroke-width="0" color="#000"><path d="M371.99 147.92h-7.5"/><text fill="#000" font-family="KaTeX_Main" font-size="8" transform="translate(378.99 150.52)"><tspan>1.000</tspan></text></g><g fill="none" stroke-linecap="round" stroke-linejoin="round" stroke-width="0" color="#000"><path d="M371.99 133.34h-7.5"/><text fill="#000" font-family="KaTeX_Main" font-size="8" transform="translate(378.99 135.94)"><tspan>2.000</tspan></text></g><g fill="none" stroke-linecap="round" stroke-linejoin="round" stroke-width="0" color="#000"><path d="M371.99 118.75h-7.5"/><text fill="#000" font-family="KaTeX_Main" font-size="8" transform="translate(378.99 121.35)"><tspan>3.000</tspan></text></g><g fill="none" stroke-linecap="round" stroke-linejoin="round" stroke-width="0" color="#000"><path d="M371.99 104.17h-7.5"/><text fill="#000" font-family="KaTeX_Main" font-size="8" transform="translate(378.99 106.77)"><tspan>4.000</tspan></text></g><g fill="none" stroke-linecap="round" stroke-linejoin="round" stroke-width="0" color="#000"><path d="M371.99 89.59h-7.5"/><text fill="#000" font-family="KaTeX_Main" font-size="8" transform="translate(378.99 92.19)"><tspan>5.000</tspan></text></g><g fill="none" stroke-linecap="round" stroke-linejoin="round" stroke-width="0" color="#000"><path d="M371.99 75.01h-7.5"/><text fill="#000" font-family="KaTeX_Main" font-size="8" transform="translate(378.99 77.61)"><tspan>6.000</tspan></text></g><path fill="none" d="M28 75.01v87.49m343.99-87.49H28" color="#000"/><text stroke-linecap="round" stroke-linejoin="round" stroke-width="0" color="#000" font-family="KaTeX_Main" font-size="10" text-anchor="middle" transform="rotate(-90 65.13 53.63)"><tspan font-weight="bold">Average Path Length </tspan><tspan> / log</tspan><tspan dy="3" font-size="8">2</tspan><tspan dy="-3">(Size)</tspan></text><text stroke-linecap="round" stroke-linejoin="round" stroke-width="0" color="#000" font-family="KaTeX_Main" font-size="10" text-anchor="middle" transform="translate(199.99 195.75)"><tspan>Operations / 10</tspan><tspan dy="-5" font-size="8">6</tspan></text><text stroke-linecap="round" stroke-linejoin="round" color="#000" font-family="KaTeX_Main" font-size="8" transform="translate(99.2 10.11)"><tspan>Conc</tspan></text><g fill="none" stroke="currentColor" stroke-linecap="round" stroke-linejoin="round" color="#000"><path stroke="#9F650D" stroke-dasharray="1.0,2.0" d="M63.7 7.51h29.9M28 148.3l.36-.01.36.08h.37l.36-.01.36-.01.36-.01.36-.01.37-.01h.72l.36-.01.37-.01.36.06.36-.01h.72l.37-.01h.36l.36-.01.36-.01.36-.01.37-.01.36-.01h.36l.36-.01h.73l.36-.01h.36l.36-.01h.36l.37-.01h.36l.36-.01.36-.01.37-.01.36-.01.36-.01.36.08h.36l.37-.01h.36l.36-.01.36-.01.36.02h.37l.36-.01h.36l.36-.01.36-.01.37.1.36-.01h.72l.37-.01h2.17l.36-.01h.72l.37-.01h.72l.36-.01.36.02h.37l.36-.01h.36l.36-.01h1.09l.36-.01h.36l.37-.01.36-.01h.36l.36-.01h.36l.37-.01.36.01h.36l.36.02.36-.01h1.09l.36-.01h.36l.37.06h.36l.36-.01h1.45l.36-.01h.73l.36-.01.36.02h.36l.36-.01.37.04h1.08l.36-.01h.73l.36-.01H70l.37-.01h.72l.36-.01h.36l.37-.02h.36l.36-.01h.72l.37-.01.36.03h.36l.36-.01h.73l.36-.01h.36l.36-.01.36.04h1.45l.37-.01h1.44l.37-.01h.36l.36-.01h1.09l.36-.02h.72l.36-.01h.37l.36-.01h.36l.36.08h.37l.36-.01h.72l.36-.01h.73l.36-.01.36.03.36-.01.37.01.36-.01.36.01h1.09l.36-.01h.72l.36-.01h.37l.36-.01h.36l.36-.01.37.02.36-.01h.72l.36.01h.37l.36-.01h1.45l.36-.01h.72l.36-.01h1.09l.36-.01.37.09h.72l.36-.01h1.81l.36-.01h.37l.36.01.36-.01.36.02h.36l.37-.01h1.08l.37-.01h.36l.36-.01h.36l.36.03h.37l.36-.01h.72l.36-.01h.37l.36-.01h.36l.36-.01h.36l.37.01h1.08l.36-.01h.37l.36.02h1.09l.36-.01.36.01h.72l.37-.01h1.44l.37-.01.36.01h1.45l.36-.01h1.09l.36-.01h1.08l.37.01h1.08l.36.01.37-.01h.36l.36-.01h.36l.36-.01.37-.01h.36l.36.07.36-.01h.73l.36-.01h.36l.36-.01h.73l.36-.01h1.09l.36-.01h.36l.36-.01h.73l.36-.01.36.03.36-.01h.36l.37.02h1.45l.36-.01h.72l.36-.01h1.09l.36-.01h.36l.37.01h.36l.36-.01.36.01.36-.01h.37l.36-.01h.36l.36-.01h.73l.36.07h.72l.37-.01h.36l.36.01.36-.01h.73l.36-.01h.36l.36-.01h.36l.37-.01h.36l.36-.01h.36l.36.03h.73l.36-.01h.36l.37.02h1.08l.36-.01h.37l.36-.01h.72l.36-.01.37.01h.36l.36.04h1.45l.36-.01h1.09l.36-.01h.72l.37-.01.36-.01h.72l.36-.01h.37l.36-.01h.36l.36-.01h.36l.37-.01.36.04h1.08l.37-.01h.36l.36-.01h.36l.37-.01h.36l.36-.01.36.04h1.45l.36-.01h.36l.37.01.36-.01h1.45l.36-.01h.36l.36-.01h.73l.36-.01.36.07h.73l.36.02h1.08l.37-.01h.72l.36-.01h.36l.37-.01.36.01h.72l.36.01.37-.01h.72l.36-.01h.37l.36-.01h.36l.36-.01h.36l.37.03.36-.01h.36l.36-.01h1.09l.36-.01h1.09l.36-.01.36.05h.73l.36.01.36-.01h1.45l.36-.01h.72l.37-.01h.36l.36-.01h.36l.36-.01h.37l.36-.01.36-.01h.36l.37-.01.36.03h.36l.36.03h.73l.36-.01h1.08l.37-.01h.72l.36.01h1.09l.36.01h.36l.36-.01.37.01h.36l.36.02h3.62l.36-.01h.37l.36.02h.36l.36-.01h1.81l.37-.01h1.44l.37-.01h.36l.36-.02h3.62l.36-.01h1.81l.37-.01h2.17l.36-.01h.36l.36.01.37-.01.36.08h2.53l.37-.01h1.08l.36-.01h.37l.36-.01h1.08l.37-.01h.36l.36-.01.36-.01h.73l.36.02h3.26l.36-.01h1.09l.36-.01h.72l.36-.01h.37l.36-.01h.36l.36.06h.36l.37-.01.36.02h.72l.37-.01h1.81l.36-.01h1.08l.37-.01h.72l.36-.01h.36l.37-.01.36-.01h.36l.36-.01h.73l.36-.01h.36l.36.03h1.45l.36-.01h1.45l.36-.01h.37l.36.02.36-.01h1.09l.36-.01h.72l.37.01.36-.01h.72l.36-.01.37.09h.36l.36-.01h1.45l.36-.01h.72l.37-.01h.72l.36-.01.37.01h1.08l.36-.01h.73l.36-.01h.72l.37-.01h.36l.36-.01.36-.01.36.07h.37l.36.01.36-.01h1.09l.36-.01h.36l.36-.01h.73l.36-.01h.36l.36-.01h1.09l.36-.01h.36l.37-.01.36-.01h.36l.36-.01h.36l.37-.01.36.01h.36l.36-.01h.37l.36.04h1.08l.37-.01h.36l.36.02h1.09l.36.03h1.08l.37-.01h.72l.36-.01h.73l.36-.01h.36l.36-.01h.37l.36-.01.36-.01h.72l.37-.01.36-.01h.36l.36-.01.36.01h1.09l.36-.01.36.02.37-.01.36.02.36-.01h.36l.37.04h1.81l.36-.01h1.08l.37-.01h.36l.36-.01.36.01h1.09l.36-.01h1.09l.36-.01h.72l.37.07h.36l.36-.01.36.01.36-.01h1.45l.36-.01h.37l.36-.01.36-.01h.72l.37-.01.36.03.36-.01h.73l.36.02h.36l.36-.01h1.45l.36-.01h.36l.37.01.36-.01h.72l.36-.01h.37l.36-.01h1.81l.36-.01h.36l.37-.01h.36l.36-.01.36.07h1.09l.36-.01h.36l.36-.01h1.09l.36.03h2.18l.36-.01.36.01h.36l.36-.01h.73l.36-.01h.36l.36-.01h.37l.36-.01h2.53l.37-.01h1.08l.36-.01.37.02h.72l.36-.01h1.09l.36-.01h.36l.36-.01h.73l.36-.01h.36l.36.09.37-.01h.72l.36-.01h.37l.36-.01h.36l.36-.01.36-.01.37.03h.72l.36-.01.36.01.37-.01.36.02.36-.01h1.81l.36.01h.37l.36-.01h.72l.36-.01h.73l.36-.01h.72l.37-.01h.36l.36-.01h.72l.37-.01h.36l.36.06h1.09l.36-.01h.36l.36-.01h.37l.36-.01.36.04.36-.01h1.09l.36-.01h.36l.36-.01h.37l.36-.01h.36l.36-.01h.36l.37.04h.36l.36-.01h1.45l.36-.01h1.45"/><use xlink:href="#93f97__d" color="#9F650D" transform="matrix(3.75 0 0 3.75 354.25 148.32)"/><use xlink:href="#93f97__d" color="#9F650D" transform="matrix(3.75 0 0 3.75 78.65 7.51)"/></g><text stroke-linecap="round" stroke-linejoin="round" color="#000" font-family="KaTeX_Main" font-size="8" transform="translate(99.2 25.11)"><tspan>Splay</tspan></text><g fill="none" stroke="currentColor" stroke-linecap="round" stroke-linejoin="round" color="#000"><path stroke="#29C3F6" d="M63.7 22.51h29.9M28 78.63l.36-.01.36-3.52.37 2.64.36 6.54.36-2.45.36-1.61.36-3.42.37 6.45.36-4.24.36-3.22.36 1.82.37.68.36 1.3.36 3.39.36-3.87.36-1.43.37 1.55.36-.46.36-1.22.36.18.36 3.06.37.93.36-5.68.36 5.35.36-1.15.36.17.37-.76.36.3.36 3.2.36.6.36-3.63.37-2.22.36 6.95.36-2.44.36 3.24.37-1.2.36-7.07.36 7.67.36-1.27.36-1.27.37 1.43.36-3.46.36 2.79.36-3.46.36 5.6.37-2.62.36-.29.36-1.11.36.36.36 2.09.37 19.64.36 1.22.36 2.88.36-5.21.37 1.52.36-2.54.36 7.09.36-4.6.36-.89.37-4.23.36 5.22.36-.77.36-3.24.36 6.06.37-3.01.36 1.03.36-1.32.36 4.57.36-3.84.37 1.17.36-3.6.36.89.36-2 .37 4.48.36-6.7.36 2.05.36 1.25.36-.85.37 5.94.36-2.78.36-.67.36-2.63.36 7.49.37-6.21.36-3.85.36 6.84.36.94.36.36.37-10.03.36 9.41.36-3.95.36 2.44.36 3.3.37-1.69.36-.36.36-.79.36-.05.37-5.45.36 8.15.36 3.41.36-1.02.36-4.88.37 5.97.36-2.56.36 1.75.36-9.41.36 2.32.37 3.37.36 4.17.36 1.21.36-1.44.36-5.91.37 2.32.36 3.25.36-3.46.36 5.07.37-8.63.36 4.93.36 1.47.36-1.81.36-5.22.37 1.42.36.79.36 1.5.36.66.36 4.64.37-5.99.36 1.95.36.16.36-1.76.36.81.37 3.9.36-2.16.36-2.15.36 1.59.36 2.67.37-1.95.36 2.33.36-11.36.36 4.42.37 2.77.36.23.36 5.6.36-6.82.36.99.37 4.82.36-7.46.36 4.22.36-.44.36-3.24.37-1.16.36.61.36.23.36 2.43.36 1.48.37-.99.36-4.38.36 5.81.36-.09.37-.78.36-1.11.36-.67.36-1.45.36 2.19.37-2.62.36 6.22.36-3.31.36.2.36.89.37-3.34.36 4.54.36-1.37.36-.81.36.35.37-.07.36-2.31.36 4.54.36-.48.36.69.37-.24.36-8.88.36.82.36-1.5.37 6.92.36-1.44.36.94.36-6.33.36 4.87.37 3.99.36-6.22.36 5.87.36-4.3.36-6.01.37 6.49.36.82.36.9.36-2.69.36 2.3.37-1.84.36.22.36-1.57.36 5.75.37-5.95.36-.74.36 1.62.36 1.97.36-6 .37 5.42.36 3.68.36.86.36-.28.36 1.8.37-1.23.36-3.45.36 1.72.36-.81.36-2.56.37 3.11.36-2.85.36 7.42.36-9.16.37 3.21.36.92.36 2.52.36-.78.36-1.7.37-1.9.36 1.83.36 3.66.36-4.2.36-1.36.37.05.36-7.95.36 7.38.36 1.16.36.32.37 1.05.36-2.18.36 2.14.36-1.21.36 2.73.37-5.02.36.55.36-2.44.36 1.35.37 2.4.36-.83.36-4.09.36 6.34.36 2.02.37.55.36-.23.36-1.56.36 4.67.36-8.95.37-1.51.36 2.28.36-1.87.36 2.41.36-3.35.37.61.36 1.55.36 3.46.36-5.03.37 2.18.36-1.19.36-1 .36.4.36 4.57.37-3.23.36 1.32.36 1.72.36.83.36-1.99.37 1.49.36-3.48.36-1.51.36 1.21.36 3.46.37-3.28.36 1.6.36 3.9.36-1.48.36-1.07.37-.93.36-.05.36-1.44.36 3.8.37-5.8.36-1.74.36 6.51.36-3.03.36-.79.37 2.54.36 1.4.36-4.89.36.51.36 3.37.37-3.02.36 2.82.36-3.82.36-2.31.36 4.31.37 2.59.36-.87.36-1.17.36 2.11.37-4.26.36 3.32.36-1.96.36-1.98.36 5.89.37.64.36-.43.36-3.01.36-2.42.36 2.14.37-2.25.36.3.36 6.42.36-4.86.36-.06.37.32.36-.27.36 2.78.36-5.1.36 2.05.37-1.53.36.67.36-2.39.36 2.77.37-.75.36 2.08.36.28.36 1.03.36-2.65.37 6.57.36-2.03.36-3.67.36 1.78.36-1.42.37 3.53.36 1.68.36-8.84.36 1.28.36 1.9.37 1.91.36-3.42.36-.67.36-2.05.37 3.04.36 4.63.36-1.37.36-9.14.36 9.84.37-1.27.36-2.55.36-.13.36 1.05.36 2.09.37-1.34.36.71.36 1.37.36-3.22.36 4.42.37-1.27.36-.03.36-1.03.36-1.21.37 2.7.36-3.77.36 7.9.36-3.31.36-1.26.37-.22.36-4.94.36 3.63.36.17.36 4.89.37-7.53.36-.42.36 3.07.36-1.63.36-3.55.37.7.36.86.36 1.91.36 1.6.36.83.37-8.9.36 6.03.36-.24.36.11.37 1.89.36.4.36-4.12.36.15.36 2.93.37-2.19.36 3.71.36-3.25.36.49.36 2.09.37-2.83.36 4.12.36-9.34.36 6.79.36-3.16.37 2.48.36-.69.36 2.03.36-1.52.37.26.36-1.6.36 3.87.36-1.45.36 3.78.37-2.81.36-2.02.36 1.93.36.67.36-2.06.37 4.04.36-6.59.36 4.14.36 1.63.36-.75.37.67.36.66.36.06.36.01.36.66.37-.14.36-6.4.36 3.68.36-.95.37 2.89.36-1.57.36 2.15.36 1.66.36-3.79.37-5.03.36.71.36.52.36 6.13.36-1.81.37.49.36.13.36-.9.36-3.43.36 1.36.37-3.02.36 3.97.36 1.45.36 1.72.37 3 .36-2.44.36-6.28.36-5.07.36 7.27.37 2.71.36-.23.36-1.88.36 2.31.36-.31.37 2.31.36-6.2.36 2.59.36 1.92.36.9.37-.8.36.87.36 1.63.36-7.08.37 2.93.36 1.16.36-5.2.36 4.19.36 1.97.37-2.79.36-1.68.36-6.23.36 5.38.36-2.12.37 7.34.36-.32.36-5.95.36 1.04.36 4.53.37-5.46.36 5.64.36-8.41.36 9.75.36.08.37-.55.36-7.07.36.16.36-.13.37 3.72.36-5.9.36 3.95.36 5.03.36-10.32.37 7.51.36-9.57.36 11.61.36-3.62.36 2.18.37-2 .36 4.27.36-.81.36.97.36-3.57.37-3.59.36.76.36.5.36 3.08.37-2.04.36-1.73.36 4.03.36-.28.36-1.13.37-5.64.36 6.4.36 2.95.36-4.56.36 2.39.37.27.36 2.11.36-4.95.36.93.36-.99.37 3.34.36.54.36-3.12.36-1.62.36 1.6.37.86.36-4.78.36 8.34.36-1.57.37.24.36-2.86.36-1.39.36 3.29.36-4.29.37-.22.36 6.31.36-1.15.36-.33.36-3.17.37 1.9.36-1.94.36 5.16.36-4.3.36 2.38.37.82.36-5.71.36 2.49.36 2.57.37 1.59.36-7.17.36 3 .36 1.1.36 5.09.37-8.29.36-1.37.36 6.15.36-4.82.36.43.37.65.36 3.13.36-2.46.36-1.26.36 3.12.37 3.74.36-1.81.36-1.39.36 2.94.36.43.37-4.96.36 1.23.36 3.26.36-.56.37-1.41.36-.32.36-1.38.36.92.36-7.45.37 7.75.36-3.03.36 5.4.36-6.58.36-3.28.37 6.96.36.38.36-10.04.36.2.36 8.13.37-2.16.36-3.32.36-.41.36 5.36.37-2.22.36 1.18.36 3.74.36-7.64.36 4.87.37-2.7.36-2.76.36 3.99.36-2.52.36 4.53.37.91.36-1.28.36-1.15.36-.24.36 2.31.37-2.18.36 6.28.36-7.24.36 3.49.37.58.36 5.38.36-5.99.36-3.13.36 3.44.37.26.36-3.78.36.18.36-.81.36 5.47.37-4.06.36 3.36.36 2.81.36-2.23.36-1.43.37-1.81.36 6.6.36-4.79.36 3.68.36-3.72.37 3.58.36-4.12.36 1.81.36-.94.37 2.36.36-3.56.36 1.34.36 4.09.36-3.17.37-5.48.36 4.16.36-4.11.36 2.19.36.83.37-1.92.36.1.36 2.15.36.61.36 2.52.37-7.66.36 3.43.36.92.36 1.35.37.43.36-.42.36-2.52.36 3.17.36-1.53.37-6.87.36 9.65.36 2.18.36-5.1.36-.29.37-.77.36 1.3.36-4.31.36 5.21.36-2.13.37-3.52.36 2.43.36 1.89.36 1.54.36-.85.37.41.36-2.51.36 6.66.36-7.12.37-3.39.36 4.15.36 2.6.36-.32.36-3.42.37 2.43.36 4.38.36-1.28.36.28.36-1.13.37-1.08.36-2.58.36 6.47.36-1.12.36-5.64.37 3.93.36-2.16.36.3.36-1.97.37-4.31.36 7.31.36-2.49.36 1.01.36-3.11.37 2.21.36 1.35.36-6.2.36 4.6.36-.74.37-2.84.36 3.25.36-1.33.36-3.28.36-.56.37 6.57.36 3.42.36-2.19.36-1.11.36-.35.37 4.14.36-2.26.36-1.84.36-2.05.37-.92.36 1.77.36 2.52.36-2.85.36 6.51.37-7.35.36 1.93.36-.97.36-.45.36 3.71.37-.18.36 1.21.36-4.7.36-1.97.36 4.42.37-.92.36-3.33.36 7.35.36-5.01.37.83.36.04.36-.65.36 2.61.36-3.24.37.8.36-.28.36 1.18.36-1.36.36-.75.37 2.91.36-3.34.36 3.21.36-5.5.36 11.47.37-3.12.36-6.19.36.42.36-.27.37 2.22.36 5.67.36-6.8.36 4.77.36.86.37-8.49.36 9.58.36-5.02.36-3.65.36 5.56.37 3.1.36-.52.36 1.61.36-3.87.36-2.07.37 3.72.36-2.78.36 4.37.36-5.93.36 2.65.37-3.78.36 1.58.36 2.07.36-.34.37 1.4.36-1.51.36-4.05.36 2.17.36-2.08.37.55.36-1.33.36-.44.36 6.01.36-2.37.37 1.97.36.25.36-3.44.36 2.26.36-1.6.37.51.36-4.51.36 5.29.36.4.37 2.44.36-.91.36-2.12.36 2.29.36-2.07.37 1.29.36-3.89.36 2.63.36.68.36-1.51.37 3.73.36-1.64.36-1.83.36.61.36-.26.37-4.8.36 2.12.36 1.07.36-4.43.36 6.51.37-4.28.36 3.31.36-1.25.36-2.19.37 1.78.36-1.93.36 5.12.36-9.02.36 6.27.37-2.32.36 3.88.36-1.41.36-.66.36-8.02.37 6.29.36 1.56.36.48.36 3.02.36-5.09.37 2.5.36 6.38.36-10.75.36 1.07.37 4.94.36 1.63.36-3.08.36-3.27.36-.91.37-.56.36 4.46.36-3.2.36 2.65.36 1.97.37-1.63.36.99.36.35.36-4.07.36 3.85.37-3.06.36 4.06.36.24.36 1.98.36-2.78.37 2.13.36-3.09.36-2.19.36.83.37 3.7.36-2.66.36.18.36 4.13.36-13.3.37 8.03.36 2.43.36-2.65.36 2.91.36-4.05.37 4.89.36-.33.36 1.17.36-4.95.36 2.12.37-2.5.36 5.41.36-3.82.36 5.59.37-5.58.36 1.76.36.09.36-1.07.36.75.37-.39.36 4.86.36-.82.36-5.09.36-1.68.37 1.1.36 5.52.36.06.36.96.36-5 .37-.13.36 3.37.36-2.41.36.87.37-7.34.36 8.08.36.93.36-.33.36-2.47.37.59.36-1.14.36-6.92.36 4.89.36-2.9.37 5.48.36-3.14.36 4.75.36-2.33.36.56.37-8.78.36 6.26.36 1.3.36-2.17.36.97.37-3.44.36 5.59.36-3.38.36 2.36.37.29.36-.33.36-5.22.36 7.56.36-3.92.37.9.36-4.68.36 3.03"/><use xlink:href="#93f97__b" color="#29C3F6" transform="matrix(3.75 0 0 3.75 67.83 110.85)"/><use xlink:href="#93f97__b" color="#29C3F6" transform="matrix(3.75 0 0 3.75 78.65 22.51)"/></g><text stroke-linecap="round" stroke-linejoin="round" stroke-width=".5" color="#000" font-family="KaTeX_Main" font-size="8" transform="translate(99.2 40.11)"><tspan>AVLBottomUp</tspan></text><g fill="none" stroke="currentColor" stroke-linecap="round" stroke-linejoin="round" stroke-width=".5" color="#000"><path stroke="#000" d="M63.7 37.51h29.9M28 149.07l.36-.01.36.08.37-.01h.36l.36-.01.36-.01.36-.01.37-.02h.36l.36-.01h.36l.37-.01.36.05h.72l.36-.01.37-.01h.36l.36-.01h.36l.36-.02.37-.01.36-.01.36-.01.36-.01h1.09l.36-.01h.36l.36-.01h.37l.36-.01.36-.01.36-.01.37-.01.36-.01.36-.01.36.08h.36l.37-.01.36-.01h.36l.36-.01.36.01h.37l.36-.01h.36l.36-.01.36-.01.37.1.36-.01h.72l.37-.01h.72l.36.01.36-.01h1.09l.36-.01h.36l.37-.01h.72l.36-.01.36.02h.37l.36-.01h.72l.37-.01h.72l.36-.01h.36l.37-.01h.36l.36-.01.36-.01h.36l.37-.01.36.02.36-.01.36.02h.36l.37-.01h1.08l.36-.01.37.06h.72l.36-.01h1.09l.36-.01h.73l.36.01h1.08l.37.04.36-.01h1.08l.37-.01h.72l.36-.01h.37l.36-.01h.36l.36-.01.36-.01.37-.01h.36l.36-.01h.72l.37-.01.36.03h.72l.36-.01h.37l.36-.01.36.04h1.09l.36-.01h1.09l.36-.01h1.08l.37-.01h.72l.36-.01h.73l.36-.01h.36l.36-.01h.36l.37-.01h.36l.36-.01.36.08h.73l.36-.01h1.09l.36-.01h.36l.36.02.36-.01.37.01.36.01h.36l.36-.01h.73l.36-.01h.72l.36-.01h.37l.36-.01h.36l.36-.01.37.02h.36l.36-.01.36.01h1.09l.36-.01h1.09l.36-.01h1.08l.37-.01h1.08l.37.08h1.44l.37-.01h2.17l.36.01h1.09l.36-.01h1.09l.36.02.36-.01h1.45l.36-.01h.36l.36-.01h.37l.36-.01h.36l.36-.01h.36l.37.01h1.44l.37-.01.36.02h1.09l.36-.01.36.01h1.09l.36-.01h1.45l.36.01.36-.01h1.45l.36-.01h.73l.36-.01h1.08l.37.01.36.01.36-.01h.36l.36.01.37-.01h.36l.36-.01h.36l.36-.01h.37l.36-.01.36.07h.36l.36-.01h.37l.36-.01h.36l.36-.01h1.45l.36-.01h.37l.36-.01h.36l.36-.01h.73l.36.02h.36l.36-.01h.36l.37.03.36-.01h1.45l.36-.01h.72l.37-.01h.72l.36-.01h.36l.37.02.36-.01h1.08l.37-.01.36-.01h.72l.36-.01h.37l.36.08.36-.01h1.81l.36-.01h.73l.36-.01h.36l.36-.01h.37l.36-.01h.36l.36-.01h.36l.37.03h.72l.36-.01.37.02h1.08l.36-.01h.73l.36-.01h1.45l.36.04h2.17l.37-.01h.72l.36-.01h.36l.37-.01h.36l.36-.01h.36l.36-.01h.37l.36-.01h.36l.36-.01h.36l.37.01.36-.01.36.03h1.09l.36-.01h.36l.36-.01h.37l.36-.01.36-.01.36.04h1.81l.36-.01.37.01h.36l.36-.01h1.09l.36-.01h.72l.37-.01h.36l.36-.01.36.08.36.02h.37l.36-.01h1.45l.36-.01h.36l.36-.01h.36l.37.01h.36l.36-.01h.36l.36.01h.37l.36-.01h.72l.37-.01h.36l.36-.01h.36l.36-.01.37.03.36-.01h.72l.36-.01h1.09l.36-.01h.73l.36-.01.36.06h1.81l.36-.01h1.09l.36-.01h.36l.37-.01h.36l.36-.01h.36l.36-.01h.37l.36-.01h.36l.36-.01.37-.01.36.03h.36l.36.03h.73l.36-.01h1.08l.37-.01h.72l.36.01h.73l.36.01h1.81l.36.02h2.17l.37.01.36-.01h1.08l.37.01h1.44l.37-.01h1.45l.36-.01h1.08l.37-.01h.36l.36-.02h3.98l.36-.01h2.18l.36-.01h1.45l.36-.01h.36l.36.01.37-.01.36.08h2.9l.36-.01h.72l.36-.01h.73l.36-.01h.72l.37-.01.36-.01h.72l.36-.01h.37l.36.02h3.62l.36-.01H242l.36-.01h.72l.37-.01h.36l.36-.01.36.06h.36l.37-.01.36.02h1.45l.36-.01h1.45l.36-.01h1.09l.36-.01h.36l.36-.01h.36l.37-.02h1.08l.37-.01h.72l.36-.01.36.03h1.45l.36-.01h.37l.36.01.36-.01h.72l.37-.01.36.02h.36l.36-.01h.73l.36-.01.36.02.36-.01h.73l.36-.01h.36l.36-.01.37.09h1.08l.36-.01h1.09l.36-.01h.73l.36-.01h.72l.37-.01.36.01h1.08l.37-.01h.72l.36-.01h.36l.37-.01h.36l.36-.01h.36l.36.06.37.01h.72l.36-.01h.73l.36-.01h.72l.37-.01h.72l.36-.01h.73l.36-.01h.36l.36-.01h.36l.37-.01h.36l.36-.01.36-.01h.36l.37-.01.36.01h.72l.37-.01.36.04h1.45l.36-.01.36.02h1.09l.36.03h1.45l.36-.01h.72l.36-.01h.73l.36-.01h.36l.37-.01.36-.01h.72l.36-.01.37-.01h.72l.36-.01.36.01h.37l.36-.01h.36l.36.01h.36l.37-.01.36.02h.36l.36-.01.37.04h.36l.36.01.36-.01h1.09l.36-.01h1.09l.36-.01h.36l.36.01.36-.01h1.09l.36-.01h.73l.36-.01h.72l.37.07h1.08l.36-.01h1.45l.36-.01h.37l.36-.01.36-.01h.72l.37-.01.36.03h.36l.36-.01h.37l.36.02h1.08l.37-.01h.72l.36-.01.36.01h.73l.36-.01h.36l.36-.01h.37l.36-.01h.72l.37.01.36-.01h.36l.36-.01h.73l.36-.01h.36l.36.06h1.09l.36-.01h1.09l.36-.01h.36l.36.03h.73l.36.01h.72l.37-.01h1.44l.37-.01h.36l.36-.01h.36l.36-.01h.37l.36-.01h.36l.36-.01h1.45l.36-.01h.37l.36-.01h1.08l.37.01h1.08l.36-.01h1.09l.36-.01h.73l.36-.01h.36l.36-.01.36.09h1.45l.37-.01h.36l.36-.01h.36l.36-.01.37.03h.36l.36-.01h.36l.36.01.37-.01.36.02h.36l.36-.01.36.01.37-.01h.72l.36.01h.37l.36-.01h1.08l.37-.01h.72l.36-.01h.73l.36-.01.36-.01h.72l.37-.01h.36l.36.07.36-.01h.73l.36-.01h.72l.37-.01.36.03h.72l.36-.01h.73l.36-.01h.72l.37-.01h.72l.36-.01.36-.01.37.04h.36l.36-.01h1.81l.36-.01h1.09"/><use xlink:href="#93f97__e" transform="matrix(3.75 0 0 3.75 125.4 149.01)"/><use xlink:href="#93f97__e" transform="matrix(3.75 0 0 3.75 78.65 37.51)"/></g><text stroke-linecap="round" stroke-linejoin="round" color="#000" font-family="KaTeX_Main" font-size="8" transform="translate(99.2 55.11)"><tspan>AVLRelaxedBottomUp</tspan></text><g fill="none" stroke="currentColor" stroke-linecap="round" stroke-linejoin="round" color="#000"><path stroke="#D336C8" d="M63.7 52.51h29.9M28 149.07l.36-.01.36.08.37-.01h.36l.36-.01.36-.01.36-.01.37-.02h.36l.36-.01h.36l.37-.01.36.05h.72l.36-.01.37-.01h.36l.36-.01h.36l.36-.02.37-.01.36-.01.36-.01.36-.01h1.09l.36-.01h.36l.36-.01h.37l.36-.01.36-.01.36-.01.37-.01.36-.01.36-.01.36.08h.36l.37-.01.36-.01h.36l.36-.01.36.01h.37l.36-.01h.36l.36-.01.36-.01.37.1.36-.01h.72l.37-.01h.36l.36-.01.36-.01h.36l.37-.01h.36l.36-.01.36-.01h.36l.37-.01.36-.01h.36l.36-.01.36.01h.37l.36-.01.36-.01.36-.01h.37l.36-.01h.36l.36-.01.36-.01.37-.01h.36l.36-.01.36-.01.36-.01.37-.01.36.02.36-.01.36-.01.36-.01.37-.01.36-.01.36-.01.36-.01.36-.01h.37l.36-.01.36-.01.36-.01.37-.01.36-.01.36-.01.36-.01.36-.01.37-.01.36-.01.36-.01.36-.01.36-.01.37.03.36-.01h.36l.36-.01.36-.01.37-.01h.36l.36-.01.36-.01.37-.01.36-.01.36-.01.36-.01.36-.01.37-.02.36-.01h.36l.36-.01.36-.01h.37l.36.02h.36l.36-.01h.36l.37-.01.36-.01h.36l.36-.01.36-.01h.37l.36-.01.36-.01h.36l.37-.01h.36l.36-.01.36-.01h.36l.37-.01.36-.01h.36l.36-.01.36-.01h.37l.36-.01.36-.01.36-.01h.36l.37-.01h.36l.36-.01.36.28.37-.01h.36l.36-.01h.36l.36-.01.37-.01h.36l.36-.01.36-.01.36-.01h.73l.36-.01.36-.01.36-.01h.37l.36-.01.36-.01.36-.01.36-.01.37-.01h.36l.36-.01.36-.01.37.01.36-.01h.36l.36-.01h.36l.37-.01h.36l.36-.01.36-.01h.73l.36-.01h.36l.36-.01.36-.01h.37l.36-.01h.36l.36-.01.37.3.36-.01h.36l.36-.01h.73l.36-.01h.36l.36-.01h.36l.37-.01h.36l.36-.01.36-.01h.36l.37-.01h.36l.36-.01h.36l.37-.01.36-.01h.36l.36-.01.36-.01h.37l.36-.01.36-.01.36-.01.36-.01h.37l.36-.01.36-.01.36-.01.36-.01.37.1h.72l.36-.01h.36l.37-.01h.36l.36-.01h.36l.37-.01.36-.01.36.01.36-.01h.36l.37-.01.36-.01h.36l.36-.01h.36l.37-.01.36.01.36-.01h.72l.37-.01h.36l.36-.01h.73l.36-.01h.72l.36-.01h.37l.36-.01h.36l.36-.01h.36l.37-.01h.36l.36-.01.36-.01h.36l.37-.01.36-.01.36.13.36-.01h.36l.37-.01.36-.01h.36l.36-.01.37-.01h.36l.36-.01.36-.01.36-.01.37-.01h.36l.36-.01.36-.01.36-.01h.37l.36-.01h.36l.36-.01.36-.01.37.02.36-.01h.36l.36-.01.37-.01.36-.01h.36l.36-.01.36-.01.37-.01h.36l.36-.01h.36l.36-.01.37.01h.36l.36-.01.36-.01h.36l.37-.01.36-.01.36-.01h.36l.36-.01.37-.01.36-.01h.36l.36-.01.37-.01.36-.01.36-.01h.36l.36-.01.37-.01.36-.01.36-.01.36-.01.36-.01.37-.01.36-.01h.36l.36-.01.36-.01.37-.01.36-.01.36-.01.36-.01.37.02.36-.01.36-.01h.36l.36-.01.37-.01.36-.01h.36l.36-.01.36-.01.37-.01h.36l.36.09h.72l.37-.01h.72l.36-.01h.37l.36-.01h.36l.36-.01h.73l.36-.01.36-.01h.36l.36-.01h.37l.36-.01h.36l.36-.01h.36l.37-.01h.36l.36-.01h.36l.36-.01h.37l.36-.01.36-.01h.36l.37-.01h.36l.36-.01.36.04h.36l.37-.01h.72l.36-.01h.36l.37-.01h.36l.36-.01h.36l.36-.01h.37l.36-.01h.36l.36-.01h.37l.36-.01.36-.01.36.12h.36l.37-.01h.36l.36-.01.36-.01h.36l.37-.01h.36l.36-.01.36-.01.36-.01h.37l.36-.01.36-.01h.72l.37-.01.36-.01h.36l.36-.01.37-.01.36-.01.36-.01.36-.01h.36l.37.02.36-.01h.36l.36-.01.36-.01h.37l.36-.01h.36l.36-.01.36-.01.37-.01h.36l.36.46h.36l.37-.01h.36l.36-.01.36-.01h.36l.37-.01.36-.01h.36l.36-.01.36-.01h.37l.36-.01.36-.01.36-.01.36-.01h.37l.36-.01.36-.01.36-.01.37-.01.36-.01.36-.01.36.03h.36l.37-.01.36-.01.36-.01h.36l.36-.01.37-.01h.36l.36.08h.36l.36-.01.37-.01h.36l.36-.01.36-.01.36-.01.37-.01h.36l.36-.01.36-.01.37-.01.36-.01h.36l.36-.01.36-.01.37-.01.36-.01.36-.01.36-.01.36-.01.37-.01.36.09.36-.01.36-.01h.36l.37-.01.36-.01.36-.01.36-.01.37-.01.36-.01.36-.01.36-.01h.36l.37-.01.36-.01.36-.02.36-.01.36-.01h.37l.36-.01.36-.01h.36l.36-.01.37-.01h.36l.36-.01.36-.01h.36l.37-.01.36-.01h.36l.36-.01h.37l.36-.01.36-.01h.36l.36-.01h.37l.36-.01.36-.01.36-.01.36.01.37-.01.36.35h.36l.36-.01h.36l.37-.01.36-.01.36-.01h.36l.37-.01.36-.01.36-.01.36-.01.36-.01h.37l.36-.01.36-.01.36-.01.36-.01.37-.01h.36l.36-.01.36-.01.36-.01.37-.01.36.01h.36l.36-.01h.36l.37-.01h.36l.36-.01h.36l.37-.01.36-.01h.36l.36-.01h.36l.37-.01.36-.01h.36l.36-.01.36-.01h.37l.36-.01.36-.01.36.14h.73l.36-.01h.36l.36-.01h.37l.36-.01h.36l.36-.01h.73l.36-.01h.36l.36-.01h.73l.36-.01h.36l.36-.01h.36l.37-.01h.36l.36-.01h.36l.37-.01h.36l.36-.01h.36l.36-.01h.37l.36-.01.36-.01h.36l.36-.01h.73l.36.04h1.09l.36.01h2.53l.37-.01h1.44l.37-.01h.72l.36-.01h.73l.36-.01h.36l.36-.01h.73l.36-.01h.36l.36-.01h.37l.36-.01h.72l.36-.01h.37l.36-.01h.36l.36-.01.36-.01h.37l.36-.01.36-.01h.36l.36.06h.37l.36-.01h.36l.36-.01.36-.01h.37l.36-.01.36-.01.36-.01h.37l.36-.01.36-.01h.36l.36-.01h.37l.36-.01.36-.01h.36l.36-.01.37-.01.36-.01h.36l.36-.01.36-.01.37-.01.36.01h.36l.36-.01.37-.01.36.48h.36l.36-.01h.36l.37-.01.36-.01.36-.01h.36l.36-.01.37-.01.36-.01.36-.01.36-.01.36-.01.37-.01.36-.01.36-.01.36-.01.36-.01.37-.01.36-.01.36-.01.36-.01.37-.01.36-.01.36-.01.36-.01.36-.01.37-.01.36-.01.36-.01.36-.01h.73l.36-.01.36-.01.36-.01.36-.01.37-.01h.36l.36-.01.36-.01.37.03h.36l.36-.01h.36l.36-.01.37-.01h.36l.36-.01.36-.01h.36l.37-.01.36-.01h1.08l.37-.01h.36l.36-.01.36-.01h.37l.36-.01h.36l.36-.01h.36l.37.27.36-.01h.72l.36-.01h.37l.36-.01h.36l.36-.01.36-.01h.37l.36-.01.36-.01h.36l.36-.01.37-.01.36-.01.36-.01h.36l.37-.01.36.01h.36l.36-.01.36-.01h.37l.36-.01.36-.01.36-.01h.36l.37-.01.36-.01h.36l.36-.01.36-.01.37-.01.36-.01.36-.01h1.09l.36-.01.36-.01h.36l.37-.01.36-.01.36-.01h.36l.36-.01.37-.01h.36l.36-.01.36-.01.36-.01.37-.01.36-.01h.36l.36-.01h.36l.37-.01.36-.01.36-.01.36-.01h.37l.36-.01.36-.01.36-.01.36-.01.37-.01.36-.01.36-.01.36-.01.36-.01.37-.01.36-.01.36-.01h.36l.36-.01h.37l.36-.01.36-.01h.36l.37-.01.36-.01h.36l.36-.01.36-.01.37.02.36-.01h.36l.36-.01h.36l.37-.01.36-.01h.36l.36-.01h.36l.37-.01.36-.01.36-.01h.36l.36.16h.37l.36-.01h.72l.37-.01h.36l.36-.01h.36l.36-.01h.37l.36-.01h.36l.36-.01h.73l.36.01h.36l.36-.01h1.45l.36-.01h.73l.36-.01h.72l.37-.01h.72l.36-.01h.36l.37-.01h.36l.36-.01h.36l.36-.01h.37l.36-.01.36.1.36-.01h.37l.36-.01h.36l.36-.01.36-.01.37-.01h.36l.36-.01.36-.01.36-.01.37-.01.36-.01h.36l.36-.01.36-.01.37-.01.36-.01.36-.01.36-.01.36-.01.37.03.36-.01h.36l.36-.01.37-.01h.36l.36-.01.36-.01.36-.01h.37l.36-.01.36-.01"/><use xlink:href="#93f97__a" color="#D336C8" transform="matrix(3.75 0 0 3.75 182.98 147.92)"/><use xlink:href="#93f97__a" color="#D336C8" transform="matrix(3.75 0 0 3.75 78.65 52.51)"/></g><text stroke-linecap="round" stroke-linejoin="round" color="#000" font-family="KaTeX_Main" font-size="8" transform="translate(241.1 10.11)"><tspan>RedBlackBottomUp</tspan></text><g fill="none" stroke="currentColor" stroke-linecap="round" stroke-linejoin="round" color="#000"><path stroke="#F44336" d="M205.6 7.51h29.9M28 148.55l.36-.03.36-.04.37-.02.36-.04.36-.03.36-.03.36.03.37-.03.36-.03.36-.02.36-.02.37-.03.36.23.36-.02.36-.02.36-.03.37-.02.36-.02.36.04.36-.01.36-.02.37-.02.36-.02.36.44.36-.02.36-.02.37-.02.36-.02.36-.03.36-.02.36-.02.37.03.36-.01.36-.02.36-.02.37-.02.36-.02.36.12.36-.01.36-.01.37-.01.36-.01.36-.02.36-.01.36-.01.37-.02.36-.01.36-.02.36-.02.36-.01.37-.01.36-.01.36-.01.36-.01.37-.01.36-.01.36-.01.36-.01.36-.01.37.02h.36l.36-.01.36-.01.36-.01.37-.01.36-.01.36-.01.36-.01.36-.01.37-.01.36-.01.36-.01.36.12h.37l.36-.01.36-.01.36-.01.36-.01.37-.02.36-.01.36-.01.36-.01.36-.01.37-.03.36-.01h.36l.36-.01.36-.02.37-.01.36-.01.36-.01.36-.01h.36l.37.04.36-.01.36-.01.36.02.37-.01.36-.01h.36l.36-.01.36-.01.37-.01.36-.01.36-.01.36-.01.36-.01.37-.01.36-.01.36.37.36-.01.36-.01h.37l.36-.01.36-.01.36-.03.37-.01.36-.01h.36l.36-.01.36-.01.37.02.36-.01.36-.01h.36l.36-.01.37-.01.36-.01.36.03.36.03.36-.01.37-.02.36-.01.36-.02.36-.01h.36l.37.07.36-.01.36-.01.36-.01.37-.02.36-.01.36-.01.36-.01.36-.01.37-.01.36-.01.36-.01.36-.01.36-.02.37-.01.36-.01.36-.01.36-.01.36-.01.37-.01.36-.01.36-.01.36-.01.37-.01.36-.01.36-.01.36-.01.36.04.37-.01.36-.01.36-.01.36-.01.36-.01.37-.01.36-.01.36.37.36-.01.36-.01.37-.01.36-.02.36-.01.36-.01.36-.01.37-.01.36-.02.36-.01.36.02.37-.01.36-.01.36-.01.36-.01.36-.02.37-.01.36-.01.36-.01.36-.01.36-.01.37-.01.36-.01.36.09h.36l.36-.01.37-.01h.36l.36-.01.36-.01.37-.01.36-.01h.36l.36-.01.36-.01.37-.01.36-.01.36-.01.36-.02h.73l.36-.01.36-.01.36.01h.36l.37-.01.36-.01.36-.01.36-.01h.37l.36-.01.36.37.36-.01h.36l.37-.01.36-.01h.36l.36-.01.36-.01h.37l.36-.01.36-.01h.36l.36-.01.37-.01h.36l.36-.01.36-.01h1.45l.36-.01h.37l.36-.01h.36l.36-.01h.36l.37-.01.36.13h.36l.36-.01.36-.01h.37l.36-.01h.36l.36.04.36-.01h.37l.36-.01.36-.01h.36l.37-.01h.36l.36-.01.36-.01.36-.01h.37l.36-.01.36-.01.36-.01.36-.01.37-.01.36-.01.36-.01h.36l.36-.01.37-.01.36.02.36.04.36-.01.36-.06h.37l.36-.01.36-.01.36-.01.37-.01.36-.01.36-.01.36.03.36-.01.37-.01.36-.01.36-.01.36-.01.36-.01.37.11.36-.01.36-.01.36-.01.36-.01.37-.01.36-.01.36-.01.36-.01.37-.02h.36l.36-.01.36.03.36-.01.37-.01h.36l.36-.01.36-.01.36-.01.37-.01.36-.01.36-.01.36-.01.36-.01.37-.01.36-.01.36-.01.36-.02.36.38h.37l.36-.01.36-.11.36-.01.37-.01.36-.01.36-.01h.36l.36-.01.37-.01.36-.01.36-.01.36-.01.36-.01.37.01.36-.01.36-.01.36-.01.36-.01.37-.01h.36l.36-.01.36-.01.37-.01.36-.01.36-.01.36-.01.36-.01.37-.01.36-.01h.36l.36.03h.36l.37-.01.36-.01h.36l.36-.01.36-.01.37-.01.36-.01.36-.01h.73l.36-.01h.36l.36-.02h1.09l.36-.01.36-.01.36-.01.37-.01.36.15h.36l.36-.01h.36l.37-.01h.36l.36-.01h.36l.36-.01.37.04h.36l.36-.01.36-.01.37-.01.36.03.36-.01.36-.01.36-.01h.37l.36-.01.36.38.36-.01.36-.04.37-.01h.36l.36-.01.36-.01.36-.01.37-.01.36-.01.36-.01.36-.01.37-.01.36-.01.36-.01h.36l.36-.01.37-.01.36-.01.36-.01.36-.02.36-.01.37-.01.36-.01.36-.01.36-.01.36-.02.37-.01.36-.01.36-.02.36.04.36-.01.37-.01.36-.01.36-.01.36-.01.37-.01.36-.01.36-.02.36-.01.36-.01.37-.01.36-.01.36-.01.36-.01.36-.02.37.18h.72l.36-.01.36-.01.37-.01.36-.01.36-.01.36-.01.37-.01.36-.01.36-.01.36-.01.36-.01.37-.01.36-.01.36-.01.36-.01.36-.01.37-.02.36.05h.36l.36-.01.36-.01.37-.01.36-.01h.36l.36-.01.37-.01.36-.01.36-.01.36.38.36-.01.37-.01h.36l.36-.01.36-.01.36-.01.37-.01.36-.01.36-.01.36-.01.36-.01.37-.03.36-.01.36-.01.36.08.36-.01.37-.01.36-.01.36-.02.36-.01.37-.01.36-.01.36-.01.36-.02.36-.01.37-.01.36.13.36-.01.36-.01.36-.01.37-.01.36-.01.36-.01.36-.01.36-.01.37-.01.36-.02.36-.01.36-.01.37-.01.36.36.36-.01.36-.01.36-.01.37-.01.36-.01.36-.01.36-.14h.36l.37-.01.36-.01.36-.01.36-.01.36-.01h.37l.36-.01.36-.01.36-.01.36.05.37-.01h.36l.36-.01h.36l.37-.01h.36l.36-.01.36-.01.36-.01.37-.01h.36l.36-.01.36-.01.36-.01.37-.01.36-.01h.36l.36-.01.36-.01.37-.01.36.03.36-.03h.73l.36-.01h.36l.36-.01h.36l.37-.01h.36l.36-.01.36-.01h.36l.37-.01h.36l.36-.01.36-.01.36-.01h.37l.36.12.36-.01h.36l.36-.01h.37l.36-.01h.36l.36-.01h.37l.36-.01.36-.01h.36l.36-.02.37-.01.36.04h.72l.36-.01h.73l.36-.01h.36l.36-.01h.37l.36-.01.36-.01h.36l.37-.01.36-.01h.36l.36.41.36-.01.37-.01.36-.01.36-.01.36-.01.36-.01.37-.01.36-.01.36-.01.36-.01.36-.01.37-.01.36-.02.36-.01.36-.01.37-.01.36-.01.36-.01.36-.01.36-.01.37-.01h.36l.36-.01.36-.01.36-.01.37.04.36-.01h.36l.36-.01.36-.01.37-.01.36-.01.36-.01.36-.01.36-.01.37-.01h.36l.36-.01.36-.01.37-.01.36-.01.36-.01.36-.01.36-.01.37-.01h.36l.36-.01.36-.01.36-.01.37-.01h.36l.36-.01.36-.01.36-.01.37-.01.36-.01.36.04.36-.01h.37l.36-.01h.36l.36-.01h.36l.37-.01.36-.01h.36l.36-.01h.36l.37-.01h.36l.36-.01.36-.01h.36l.37-.01.36-.01.36.18h.36l.36-.01h.37l.36-.01h.36l.36-.01h.37l.36-.01h.36l.36-.01h.36l.37-.01.36-.01.36-.01h.36l.36-.01.37-.01h.36l.36-.01.36-.01.36-.01h.37l.36-.01.36.04.36-.01.37-.01h.36l.36-.01h.36l.36-.01.37-.01h.36l.36-.01.36-.01h.36l.37-.01.36-.01.36-.01.36-.01h.36l.37-.01.36-.01.36-.01.36-.01.36-.01.37.43.36-.01h.36l.36-.01.37-.01.36-.01.36-.01.36-.01.36-.01.37-.01.36-.01.36-.01.36-.01.36-.01.37-.01.36-.01.36-.01h.36l.36-.01.37-.01.36-.01.36-.01.36-.01.37-.01.36-.01.36-.01.36-.01.36-.01.37-.01.36-.01.36.05.36-.01.36-.01h.37l.36-.01.36-.01.36-.01h.36l.37-.01h.36l.36-.01h.36l.37-.01.36-.01.36-.01.36-.01h.36l.37-.01.36.19h.36l.36-.01.36-.01.37.01h.36l.36-.01.36-.01.36.01.37-.01h.36l.36-.01h.36l.36-.01h.37l.36-.01.36-.01h.36l.37-.01h.36l.36-.01.36-.01h.36l.37-.01.36-.01.36.39.36-.01h.36l.37-.01.36-.01.36-.01.36-.01.36-.01.37-.01.36-.01.36-.01.36-.01.37-.01.36-.02.36.01.36-.01.36-.01.37-.02.36-.01.36-.01.36-.02.36.04.37-.01h.36l.36-.01.36-.01.36-.01.37-.01.36-.01.36-.01.36-.01.36-.01.37-.02h.36l.36-.01.36-.01.37-.02.36.16.36-.01.36-.01.36-.01.37-.01.36-.01.36-.01h.36l.36-.01.37-.01.36-.01.36-.01.36-.01.36-.01.37-.01.36-.01.36-.01.36-.01.37.38.36-.01.36-.01.36-.01.36-.01.37-.01.36-.01.36-.01.36-.01.36-.01.37-.01.36-.02.36-.01.36-.01.36-.01.37-.01.36-.02.36-.01.36.02.36-.01.37-.01.36-.01.36-.01.36-.01.37-.01.36-.01.36-.01.36-.01.36-.01.37-.01.36-.01.36-.01.36-.01.36-.01.37-.01.36-.01.36-.03.36-.01h.36l.37-.01.36-.01.36-.01h.36l.37-.01.36-.01.36-.01.36.05.36-.01.37-.01h.36l.36-.01.36-.01.36-.01.37-.01h.36l.36-.01.36-.01.36-.01h.37l.36-.01.36.13h.36l.37-.01h.36l.36-.01h.36l.36-.01.37-.01h.36l.36-.01h.36l.36-.01.37-.01h.36l.36-.01h.36l.36-.01.37-.01.36.01.36-.01.36-.01h.36l.37-.01.36.01.36-.01h.36l.37-.01h.36l.36-.01h.36l.36-.01h.37l.36-.01h.36"/><use xlink:href="#93f97__a" color="#F44336" transform="matrix(3.75 0 0 3.75 240.55 148.24)"/><use xlink:href="#93f97__a" color="#F44336" transform="matrix(3.75 0 0 3.75 220.55 7.51)"/></g><text stroke-linecap="round" stroke-linejoin="round" color="#000" font-family="KaTeX_Main" font-size="8" transform="translate(241.1 25.11)"><tspan>LBSTBottomUp</tspan></text><g fill="none" stroke="currentColor" stroke-linecap="round" stroke-linejoin="round" color="#000"><path stroke="#3B75EA" d="M205.6 22.51h29.9M28 148.96l.36-.02.36-.01.37.07.36-.02.36-.02.36-.02.36-.03.37-.03.36.02.36-.02.36-.01.37-.02.36-.02.36-.02.36-.03.36-.02.37-.03.36.09.36-.02.36.2.36-.01.37-.02.36-.01.36.03.36-.01.36-.02.37-.01.36-.01.36-.02.36-.01.36-.02.37.06.36-.01.36.01.36-.01.37-.01h.72l.36-.01.36-.01.37-.01.36-.01.36-.01.36-.01.36-.01.37-.01.36-.01.36-.02.36.01.36.12h.73l.36-.01h1.09l.36-.01H49l.36-.01h.37l.36-.01.36-.01h.36l.36.01.37-.01.36.04.36.01h.72l.37.01h.72l.36-.01h1.09l.36-.01h.36l.37-.01.36.02h.36l.36-.01.36.01h.37l.36-.01h.36l.36-.01h.36l.37-.01h.36l.36-.01h.36l.36-.01h.37l.36-.01h.36l.36-.01.37-.01h.36l.36.05.36-.01.36-.01h.37l.36-.01h.36l.36-.01.36-.01h.37l.36-.01.36-.01h.36l.36-.01.37-.01.36-.01.36-.01.36-.01.37-.01.36-.01.36-.01.36.02.36-.01.37.12h.72l.36.01.36-.01h1.45l.36.01h1.09l.36-.01h.36l.37.01h.72l.36.01h.37l.36.01h1.08l.37-.01h1.81l.36-.01h.72l.36-.01h1.09l.36-.01h.37l.36-.01h.36l.36-.01h.36l.37-.01h.36l.36-.01.36-.01h.36l.37-.01.36-.01.36-.01.36-.01H91l.37.16h.36l.36-.01h.36l.36.03.37-.01h.72l.36.01h.73l.36-.01h.36l.36-.01h.37l.36-.01h.36l.36-.01h.36l.37-.01.36-.01h.36l.36-.01.36-.01h.73l.36-.01h.36l.37-.01.36-.01.36-.01.36-.01.36-.01.37-.01h.36l.36-.01h.36l.36-.01.37-.01.36-.01.36-.01h.36l.36.2.37-.01h.36l.36-.01.36-.01h.37l.36-.01h.36l.36-.01.36-.01h.37l.36-.01.36-.01.36-.01h.36l.37-.01.36-.01.36-.01.36.07.36-.01h1.81l.37-.01h.72l.36-.01h.73l.36-.01h.36l.36-.01.37.02.36-.01h.36l.36-.01h.36l.37-.01h.36l.36-.01.36.06h2.54l.36-.01.36.01.36-.01h.73l.36-.01h.36l.36-.01h.37l.36-.01h.72l.36-.01.37.04h1.08l.36.01h1.09l.36-.01h1.09l.36-.01h.36l.37-.01h.72l.36-.01h.36l.37-.01.36-.01h.36l.36-.01.36-.01h.37l.36-.01.36-.01.36.06.37.02h.36l.36-.01h1.09l.36-.01h.36l.36.01.36-.01h.37l.36-.01h.36l.36-.01h.36l.37-.01.36-.01.36.06h1.45l.36-.01h.36l.37-.01h.72l.36-.01h.36l.37.02.36-.01h.36l.36-.01h.73l.36.03.36.07.36.03h2.9l.36-.01h1.45l.36-.01h1.45l.36-.01h.36l.37-.01h.36l.36.01.36-.01h.37l.36-.01h1.08l.37-.01.36.04h.72l.36-.01.37.01.36-.01h.36l.36-.01h.73l.36-.01h.36l.36-.01.36-.01.37-.01h.36l.36-.01.36-.01.37-.01.36-.01h.36l.36-.01.36-.01.37-.01.36-.01.36-.01.36-.01.36-.01.37-.02h.36l.36-.02.36-.01.36-.01.37-.01.36.04.36-.01.36-.01.37-.01.36-.01.36-.01.36.17.36-.01.37.07h.36l.36-.01.36-.01.36.01.37-.01h.36l.36-.01.36-.01.36-.01h.37l.36-.01.36-.01.36-.01.36-.01.37-.01.36-.01.36-.01h.36l.37-.01.36-.01.36-.01.36-.01.36-.01.37-.01.36.01.36-.01.36.03.36.13h.37l.36-.01h.72l.36-.01h.73l.36-.01.36.02.37-.01h.36l.36-.01h.36l.36-.01.37-.01h.36l.36-.01.36-.01h.36l.37-.01.36-.01.36-.01h.36l.36-.01.37-.01.36-.01.36-.01.36-.01.37-.01.36.03.36-.01h.36l.36-.01.37.14h1.81l.36-.01h2.17l.36-.01h1.09l.36-.01.36.01.37-.01h.72l.36-.01h.36l.37-.01h.36l.36-.01h.36l.36-.01h.37l.36-.01.36-.01h.36l.36.05.37-.01h.36l.36-.01h.73l.36-.01h.72l.36-.01h.37l.36-.01.36-.01.36-.01h.36l.37-.01.36-.01.36-.01.36-.01.36-.01.37.11h.36l.36-.01h.36l.36-.01h.73l.36-.01.36-.01.37.02.36-.01h.36l.36-.01h.36l.37-.01h.36l.36-.01.36.07h1.81l.36-.01h.73l.36-.01h1.09l.36-.01h.72l.37-.01h.36l.36-.01.36-.01.36.07h1.45l.36-.01h.73l.36-.01h.36l.36-.01h.37l.36-.01h.36l.36-.01.37-.01h.36l.36-.01.36-.01.36-.01h.37l.36.07h.72l.36-.01h1.45l.36-.01h1.09l.36-.01h.37l.36-.01h.36l.36.01.36-.01h.37l.36.08h1.45l.36-.01h1.45l.36-.01h.72l.37-.01.36.04h1.81l.36.01h.36l.36.02.37.01h1.44l.37.01h.72l.36.01h4.71l.36-.01h.73l.36-.01h.72l.36-.01h.37l.36-.01h.36l.36-.01.37-.01h.36l.36-.01h.36l.36-.01.37.02h.36l.36.06h.36l.36-.01h.37l.36-.01h.36l.36-.01h.73l.36-.01h.36l.36-.01h.36l.37-.01h.36l.36-.01.36-.01h.37l.36-.01.36-.01.36-.01h.36l.37-.01h.36l.36-.01h.36l.36-.01.37-.01h.36l.36-.01.36-.01.36-.01.37-.01h.36l.36-.01.36-.01.37-.01.36-.01.36.14.36-.01h.36l.37-.01h.36l.36.07h.36l.36-.01h.37l.36-.01.36-.01h.36l.36-.01h.37l.36.04h2.17l.36-.01h1.45l.36-.01h.73l.36-.01h.36l.36-.01h.73l.36-.01.36-.01h1.09l.36.04h.73l.36-.01h1.81l.36-.01h.72l.37-.01h.36l.36.01h.36l.36-.01h.37l.36-.01.36-.01h.36l.37-.01h.36l.36-.01.36-.01.36.07.37-.01h1.81l.36-.01h.72l.36-.01h.73l.36-.01.36-.01.36.01h.37l.36-.01.36.06.36-.01h1.09l.36-.01h.73l.36-.01h.36l.36-.01h.36l.37-.01h.36l.36-.01.36.01.36-.01.37-.01.36.05.36.02h.36l.37-.01h2.53l.36-.01h.73l.36-.01h.72l.36-.01h.37l.36-.01.36-.01h.36l.36-.01.37-.01h.36l.36.12.36-.01h.73l.36-.01h.36l.36-.01h.37l.36-.01.36-.01.36.04h.36l.37-.01h.36l.36-.01.36.01.36-.01.37.05h.72l.36-.01h.37l.36-.01h.36l.36-.01.36-.01h.73l.36-.01h.36l.36-.01.37-.01h.36l.36-.01.36-.01.36-.01h.37l.36-.01.36-.01.36-.01h.36l.37-.01.36-.01.36-.01.36-.01h.37l.36-.01.36.01h.36l.36-.01h.37l.36-.01.36-.01.36-.01h.36l.37.13.36.07h.36l.36-.01h.36l.37-.01h.36l.36-.01h.36l.37-.01h.36l.36-.01.36-.01h.73l.36.03h3.26l.36-.01h.72l.37-.01h.36l.36-.01h.36l.36-.01h.37l.36-.01h1.08l.37-.01.36-.01h.36l.36.05h1.45l.36-.01h1.81l.37-.01h.72l.36-.01h.36l.37-.01h.36l.36-.01"/><use xlink:href="#93f97__f" color="#3B75EA" transform="matrix(3.75 0 0 3.75 298.12 148.89)"/><use xlink:href="#93f97__f" color="#3B75EA" transform="matrix(3.75 0 0 3.75 220.55 22.51)"/></g><text stroke-linecap="round" stroke-linejoin="round" color="#000" font-family="KaTeX_Main" font-size="8" transform="translate(241.1 40.11)"><tspan>LBSTRelaxed</tspan></text><g fill="none" stroke="currentColor" stroke-linecap="round" stroke-linejoin="round" color="#000"><path stroke="#FFAB00" stroke-dasharray="4.0,2.0,1.0,2.0" d="M205.6 37.51h29.9M28 148.37l.36-.07.36-.08.37-.08.36-.07.36-.08.36-.08.36-.08.37-.09.36 1.23.36-.01.36-.01.37-.02.36-.02.36-.02.36-.03.36-.02.37-.03.36-.03.36-.03.36-.04.36-.03.37-.04.36-.03.36-.04.36-.04.36-.04.37-.04.36-.04.36-.04.36-.04.36-.05.37-.04.36-.04.36.62.36-.01.37-.02.36-.01.36-.02.36-.02.36-.02.37-.02.36-.02.36-.02.36-.03.36-.02.37-.03.36-.03.36-.02.36-.03.36-.03.37-.02.36-.02.36-.01.36-.02.37-.02.36-.02.36-.02.36-.02.36-.02.37-.02.36-.02.36-.02.36-.02.36-.02.37-.02.36-.02.36-.02.36-.02.36-.02.37-.02.36-.02.36-.02.36-.02.37-.02.36-.03.36-.02.36-.02.36-.02.37-.02.36-.02.36-.02.36-.02.36-.02.37-.02.36-.02.36-.02.36 1.08.36-.01h.37l.36-.01h.36l.36-.01h.36l.37-.01.36-.01h.36l.36-.01.37-.01h.36l.36-.01.36-.01.36-.01.37-.01.36-.01.36-.01.36-.01.36-.01.37-.01.36-.01.36-.02.36-.01.36-.01.37-.01.36-.02.36-.01.36-.01.37-.02.36-.01.36-.02.36-.01.36-.01.37-.02.36-.01.36-.02.36-.01.36-.02.37-.01.36-.02.36-.02.36-.01.36-.02.37-.02.36-.01.36-.02.36-.02.36-.01.37-.02.36-.02.36-.01.36-.02.37-.02.36-.02.36-.01.36-.02.36-.02.37-.02.36-.02.36-.01.36-.02.36-.02.37-.01.36-.02.36-.02.36-.02.36-.01.37-.02.36-.02.36-.01.36-.02.37-.01.36-.02.36-.02.36-.01.36-.02.37-.01.36-.02.36-.01.36-.02.36-.01.37-.02.36-.01.36-.01.36-.02.36-.01.37-.02.36-.01.36-.02.36-.01.36-.01.37-.02.36-.01.36-.01.36-.02.37-.01.36-.01.36-.02.36-.01.36-.01.37-.02.36-.01.36-.01.36-.02.36-.01.37-.01.36-.01.36-.02.36-.01.36-.01.37-.01.36-.01.36 1.6h.36l.37-.01h.36l.36-.01h.36l.36-.01.37-.01h.36l.36-.01.36-.01.36-.01.37-.01.36-.01.36-.01.36-.01.36-.01.37-.01.36-.01.36-.01.36-.01.37-.01.36-.02.36-.01.36-.01.36-.02.37-.01.36-.02.36-.01.36-.02.36-.01.37-.02.36-.01.36-.02.36-.01.36-.02.37-.02.36-.01.36-.02.36-.02.36-.02.37-.01.36-.02.36-.02.36-.01.37-.02.36-.02.36-.02.36-.02.36-.01.37-.02.36-.02.36-.02.36-.02.36-.02.37-.01.36-.02.36-.02.36-.02.36-.02.37-.02.36-.01.36-.02.36-.02.37-.02.36-.02.36-.02.36-.01.36-.02.37-.02.36-.02.36-.02.36-.02.36-.01.37-.02.36-.02.36-.02.36-.01.36-.02.37-.02.36-.02.36-.01.36-.02.36-.02.37-.01.36-.02.36-.02.36-.01.37-.02.36-.01.36-.02.36-.01.36-.02.37-.01.36-.02.36-.01.36-.01.36-.02.37-.01.36-.01.36-.02.36-.01.36-.01.37-.01.36-.01.36-.02.36-.01.37-.01.36-.01.36-.01.36-.02.36-.01.37-.01.36-.01.36-.01.36-.01.36-.01.37-.01.36-.02.36-.01.36-.01.36 1.54.37-.01h.36l.36-.01h.36l.36-.01.37-.01h.36l.36-.01.36-.01.37-.01h.36l.36-.01.36-.01.36-.01.37-.01.36-.01.36-.01.36-.01.36-.01.37-.02.36-.01.36-.01.36-.01.36-.02.37-.01.36-.01.36-.02.36-.01.37-.02.36-.01.36-.02.36-.02.36-.01.37-.02.36-.01.36-.02.36-.02.36-.02.37-.01.36-.02.36-.02.36-.02.36-.01.37-.02.36-.02.36-.02.36-.02.37-.02.36-.02.36-.01.36-.02.36-.02.37-.02.36-.02.36-.02.36-.02.36-.01.37-.02.36-.02.36-.02.36-.01.36-.02.37-.02.36-.02.36-.01.36-.02.36-.02.37-.01.36-.02.36-.02.36-.01.37-.02.36-.01.36-.02.36-.01.36-.02.37-.01.36-.02.36-.01.36-.02.36-.01.37-.01.36-.02.36-.01.36-.01.36-.01.37-.02.36-.01.36-.01.36-.01.37-.02.36-.01.36-.01.36-.01.36-.01.37-.01.36-.01.36-.01.36-.01.36-.02.37-.01.36-.01.36-.01.36-.01.36-.01h.37l.36-.01.36-.01.36-.01.36-.01.37-.01.36-.01.36-.01.36-.01.37-.01.36 1.72.36-.01h.36l.36-.01h.37l.36-.01.36-.01h.36l.36-.01.37-.01.36-.01h.36l.36-.01.36-.01.37-.01.36-.01.36-.01.36-.01.37-.01.36-.01.36-.01.36-.01.36-.01.37-.01.36-.01.36-.01.36-.02.36-.01.37-.01.36-.02.36-.01.36-.01.36-.01.37-.02.36-.01.36-.02.36-.01.37-.01.36-.02.36-.01.36-.01.36-.02.37-.01.36-.02.36-.01.36-.02.36-.01.37-.02.36-.01.36-.02.36-.01.36-.02.37-.01.36-.02.36-.01.36-.02.36-.01.37-.02.36-.01.36-.01.36-.02.37-.01.36-.02.36-.01.36-.02.36-.01.37-.01.36-.02.36-.01.36-.01.36-.02.37-.01.36-.01.36-.02.36-.01.36-.02.37-.01.36-.01.36-.02.36-.01.37.85h.36l.36-.01h.36l.36-.01h.37l.36-.01h.36l.36-.01.36-.01.37-.01h.36l.36-.01.36-.01.36-.01.37-.01.36-.01.36-.02.36-.01.36-.01.37-.01.36-.01.36-.01.36-.02.37-.01.36-.01.36-.02.36-.01.36-.01.37-.02.36-.01.36-.02.36-.01.36-.02.37-.01.36-.02.36-.01.36-.02.36-.01.37-.02.36-.02.36-.01.36-.02.37-.02.36-.01.36-.02.36-.02.36-.02.37-.02.36-.01.36-.02.36-.02.36-.02.37-.02.36-.01.36-.02.36-.02.36-.02.37-.02.36-.02.36-.02.36-.02.36-.01.37-.02.36-.02.36-.02.36-.02.37-.01.36-.02.36-.02.36-.02.36-.01.37-.02.36-.02.36-.01.36-.02.36-.01.37-.02.36-.02.36-.01.36-.02.36-.01.37-.02.36-.01.36-.02.36-.01.37-.02.36-.01.36-.01.36-.02.36-.01.37-.02.36-.01.36-.01.36-.01.36-.02.37-.01.36-.01.36-.01.36-.02.36-.01.37-.01.36-.01.36-.01.36-.02.37-.01.36-.01.36-.01.36-.01.36-.01.37-.01.36-.01.36-.01.36-.01.36-.01.37-.01.36 1.69.36-.01h.36l.36-.01.37-.01.36-.01.36-.01.36-.01.36-.01.37-.01.36-.01.36-.01.36-.01.37-.01.36-.01.36-.01.36-.01.36-.01.37-.01.36-.02.36-.01.36-.01.36-.01.37-.01.36-.02.36-.01.36-.01.36-.01.37-.02.36-.01.36-.01.36-.01.37-.02.36-.01.36-.01.36-.01.36-.02.37-.01.36-.01.36-.01.36-.02.36-.01.37-.01.36-.01.36-.01.36-.02.36-.01.37-.01.36-.01.36-.02.36-.01.36-.01.37-.01.36-.01.36-.01.36-.02.37-.01.36-.01.36-.01.36-.01.36-.01.37-.01.36-.02.36-.01.36-.01.36-.01.37-.01.36-.01.36-.01.36-.01.36-.01.37-.01.36-.01.36-.01.36-.01.37-.01h.36l.36-.01.36-.01.36-.01.37-.01.36-.01.36-.01.36-.01.36-.01.37-.01.36-.01h.36l.36-.01.36-.01.37-.01.36-.01.36-.01.36-.01.36-.01h.37l.36-.01.36-.01.36-.01.37-.01.36-.01h.36l.36-.01.36-.01.37-.01.36-.01h.36l.36-.01.36-.01.37-.01h.36l.36-.01.36-.01.36-.01h.37l.36-.01.36-.01h.36l.37-.01.36-.01h.36l.36-.01.36-.01.37-.01h.36l.36-.01.36-.01.36-.01h.37l.36-.01.36 1.11h.36l.36-.01h.37l.36-.01h.36l.36-.01.37-.01h.36l.36-.01.36-.01.36-.01.37-.01.36-.01.36-.01.36-.01.36-.01.37-.01.36-.01.36-.01.36-.01.36-.01.37-.01.36-.02.36-.01.36-.01.36-.01.37-.02.36-.01.36-.01.36-.02.37-.01.36-.01.36-.02.36-.01.36-.01.37-.02.36-.01.36-.02.36-.02.36-.01.37-.02.36-.01.36-.02.36-.02.36-.01.37-.02.36-.02.36-.02.36-.01.37-.02.36-.02.36-.02.36-.02.36-.02.37-.02.36-.02.36-.01.36-.02.36-.02.37-.02.36-.02.36-.02.36-.02.36-.01.37-.02.36-.02.36-.02.36-.02.36-.01.37-.02.36-.02.36-.01.36-.02.37-.02.36-.01.36-.02.36-.02.36-.01.37-.02.36-.01.36-.02.36-.01.36-.02.37-.01.36-.02.36-.01.36-.02.36-.01.37-.02.36-.01.36-.01.36-.02.37-.01.36-.01.36-.02.36-.01.36-.01.37-.02.36-.01.36-.01.36-.02.36-.01.37-.01.36-.01.36-.02.36-.01.36-.01.37-.01.36-.02.36-.01.36-.01.36-.01.37 1.78.36-.01h.36l.36-.01.37-.01.36-.01h.36l.36-.01.36-.01.37-.01.36-.01.36-.01.36-.01.36-.02.37-.01.36-.01.36-.01.36-.01.36-.02.37-.01.36-.01.36-.02.36-.01.37-.02.36-.01.36-.01.36-.02.36-.01.37-.02.36-.01.36-.02.36-.01.36-.02.37-.01.36-.02.36-.01.36-.02.36-.01.37-.02.36-.01.36-.02.36-.02.37-.01.36-.02.36-.01.36-.02.36-.02.37-.01.36-.02.36-.02.36-.01.36-.02.37-.02.36-.02.36-.01.36-.02.36-.02.37-.01.36-.02.36-.02.36-.01.36-.02.37-.02.36-.01.36-.02.36-.02.37-.01.36-.02.36-.01.36-.02.36-.01.37-.02.36-.01.36-.02"/><use xlink:href="#93f97__g" color="#FFAB00" transform="matrix(3.75 0 0 3.75 355.7 148.63)"/><use xlink:href="#93f97__g" color="#FFAB00" transform="matrix(3.75 0 0 3.75 220.55 37.51)"/></g><text stroke-linecap="round" stroke-linejoin="round" color="#000" font-family="KaTeX_Main" font-size="8" transform="translate(241.1 55.11)"><tspan>TreapTopDown</tspan></text><g fill="none" stroke="currentColor" stroke-linecap="round" stroke-linejoin="round" color="#000"><path stroke="#00C853" stroke-dasharray="4.5,2.0,0.5,2.0,0.5,2.0" d="M205.6 52.51h29.9M28 144.59l.36-.04.36-.07.37.05.36-.03.36-.01.36-.01.36-.04.37-.02.36-.05.36-.06.36-.05.37-.08.36-.04.36-.06.36.04.36-.06.37-.07h.36l.36.66.36-.02.36-.02h.37l.36-.02.36-.03.36-.01h.36l.37-.11.36.02.36-.02.36.04.36.01.37.07.36-.16h.36l.36.04.37-.07.36-.02.36.01.36-.04.36.02h.37l.36.03h.72l.36.38.37.05.36.01h.36l.36.01.36-.01.37.02.36-.01.36.04.36.01.37.01.36.01h.36l.36.02h.36l.37-.01.36.01.36-.02.36.01h.36l.37.04.36.01.36.04.36.02.36-.03h.37l.36.07h.72l.37-.04.36-.02.36-.06.36.01.36-.12.37.01h.36l.36.01.36-.05.36.05.37.02.36-.03.36-.02h.36l.36-.01.37-.02h.36l.36-.02.36-.02.36-.02.37.02.36-.02h.36l.36-.03.37-.03.36-.01.36-.03.36-.01.36.01.37-.02.36-.06.36-.02h.36l.36.02.37-.02.36-.03.36-.02.36-.02.36-.04.37.01.36.09h.36l.36-.02.37-.04.36.03.36-.03.36-.05.36.17.37-.02.36-.03.36-.02.36-.23.36-.01.37-.01.36-.04.36-.02.36-.02.36.05.37.36.36.01.36-.01.36-.02.36-.01.37-.02.36-.26.36-.01.36.02.37.03.36.02.36-.03.36.07h.36l.37.62.36-.02.36.05.36.01.36.01.37.02.36.05.36.03.36-.03.36.04.37-.15h.72l.36.05.37-.08h.72l.36.01h.73l.36-.01h.36l.36-.03.36.02h.37l.36-.01.36.1.36.02.36.04.37.02h.36l.36-.01.36-.01.36.03.37-.02h.36l.36-.03.36-.02.37-.01.36.02h.36l.36-.01.36.01.37-.43.36.05.36.01.36.02.36.02.37.02h.72l.36.02h.36l.37.07.36.02.36-.06.36-.01.37.01.36-.01.36.02.36.01.36-.01h.37l.36.01.36.02.36-.01.36.02h.37l.36.17.36.04h.36l.36-.04.37.02h.36l.36.04.36-.02.37-.01.36.02.36.01.36.01.36.02.37.01.36-.05.36.01.36.01.36-.03.37.02.36-.02h.36l.36-.11.36.04.37.08h.36l.36-.02.36.02h.36l.37.01.36.01.36-.02h.73l.36.01h.36l.36.01.36.05.37.02.36-.13h.36l.36-.06h.36l.37.01.36-.07.36.03.36-.01.36-.03.37.01.36-.02h.36l.36.01.37-.11.36.01h.36l.36.03h.73l.36.03.36.01.36-.02h.36l.37.01.36.01.36-.53.36.04.36.03.37.03.36.03.36.07.36.04.36-.06.37.01.36.01.36.02.36.09.37.02.36.01.36.02.36.01.36.11h.37l.36.02.36.02.36.04.36.01.37.03.36.01.36.03.36.01h.73l.36.04.36-.05.36-.04.37-.04.36.08.36-.01.36-.01.36.08.37-.08.36-.02.36-.01.36.02.36-.01.37.01.36.01h.36l.36-.04.36-.01h.37l.36.03.36-.02h.72l.37-.01.36-.03h.36l.36-.01.37.02h.36l.36-.02.36.01h.36l.37-.48.36.01.36.03.36.01.36.02.37-.01h.36l.36.02h.36l.36-.04.37.01.36.01.36-.01.36-.01.37-.02.36-.01h.36l.36.01.36.01.37-.01.36-.04.36-.01h.36l.36-.03.37-.01h.36l.36-.01.36.06h.36l.37.01.36-.01.36.05.36-.03.37-.02.36-.01.36.03.36-.01.36.05.37-.05.36-.01.36-.04.36-.01.36-.01.37.21.36.02h1.08l.37.06.36-.06.36.03.36-.03.36-.01.37-.01.36-.03.36-.01.36-.02.37.05.36-.02.36-.02.36-.01.36-.03.37.02.36-.02.36-.01.36-.04.36-.03h.37l.36-.06.36-.13.36.01h.36l.37-.01.36-.03.36-.01.36-.01.37.03.36.08.36.01.36-.01.36-.01.37.01.36-.01.36.01.36-.02.36.19.37.01.36.03.36.04.36.02.36.01h.37l.36-.03.36.02.36-.01.36.01h.73l.36.19.36-.17.37.05.36-.07.36.03.36.01.36.01.37.02.36.01.36-.01.36.05.36.01.37.03.36-.02.36.01.36.02.36.01.37.03.36.02h.36l.36-.02.37.02.36-.02.36-.01.36-.01.36.02.37-.03.36-.01.36-.02h1.09l.36.1.36-.02.36.1.36-.01.37-.02.36.07.36.04.36-.08.37-.02.36.01.36-.02h.36l.36-.04h.37l.36-.01.36-.02.36-.08h.36l.37-.11.36.14.36-.02.36-.02.36-.02.37-.03.36-.02.36.01.36-.01.36-.02h.37l.36-.05.36-.03.36-.06.37-.02.36.07.36-.03.36.01.36.02.37-.03.36-.02.36-.24.36-.03.36-.01h.37l.36-.03.36.01.36-.03.36-.01.37-.02.36-.01.36-.01.36.02.37-.01.36-.01.36-.01.36.08.36-.01.37-.01.36-.01h.36l.36-.01.36.01.37.07.36-.03.36-.01.36.03.36-.01.37-.02.36-.03.36-.02.36-.04.36-.01.37-.01.36-.03.36.09h.36l.37-.03.36-.01.36-.01h.36l.36-.2.37.07.36.01.36.01h.72l.37.04.36-.06.36.01h1.09l.36.02.36-.03.36.01.37.01.36-.1.36.01.36.01.36.01.37-.03.36.46h.36l.36.03.36.01.37.02h.36l.36.01.36-.01.36-.02.37.02.36.01.36.02.36-.04.36.01.37.01.36-.02.36-.03h.36l.37-.03.36.04h.36l.36-.01.36-.02h.37l.36-.04.36-.01h.36l.36-.11.37-.02.36.02.36.02.36-.05.36-.02.37.01.36-.02.36-.04.36-.03.37.08.36.25.36.02.36-.02.36-.05.37.06h.36l.36-.02.36.11.36.01.37.01.36-.01.36.02.36-.03h.36l.37.01.36.01h.36l.36-.05.37-.23h.36l.36-.03.36.02.36-.01.37.01h.36l.36-.08.36-.01.36-.05.37.01.36-.02.36.03.36.01.36-.01.37.02.36-.01h.36l.36.02.36.03.37.03.36-.05.36.01h1.81l.36.01.37.01.36.02.36.03h.36l.36-.38.37.01.36-.19.36.04.36-.01.36.01.37.04h.36l.36.57.36.05.37.03.36.02.36.03.36.03.36.03.37.07.36.03.36.01.36.01.36-.01.37.01.36.02.36.01.36.01.36.09.37.08.36.01.36.07.36.01h.36l.37.06.36-.01h.36l.36.01.37.01.36.01.36-.01.36-.04.36.08.37.03.36.03.36.03.36.03.36.02.37-.01.36.02.36-.03.36.02.36.02.37-.02.36-.01h.36l.36.02.37.03.36-.02h.36l.36-.01.36.02.37-.05.36-.05.36-.02.36-.01.36.01.37-.01.36.02.36-.01.36-.03.36-.07.37-.02.36-.01h.36l.36-.02.36-.01.37.02h.36l.36-.02.36-.03.37-.02h.36l.36-.03.36-.06.36-.01.37-.01.36-.02.36-.03.36.22.36-.01.37-.08.36.01.36-.03.36-.01.36-.04.37-.02.36-.01.36-.01.36-.01.37-.01.36-.01.36-.04h.36l.36-.02.37-.02.36-.02.36.03.36.03.36-.02h.37l.36-.03.36-.02.36-.01.36-.02.37-.01.36-.01.36-.03.36-.22.37-.03.36-.03.36-.04.36-.03h.36l.37-.01.36-.05.36-.02.36-.01.36-.04.37-.01.36-.01h.36l.36-.01h.36l.37.04.36-.03.36-.01.36.01.36.11.37.05h.72l.36-.02.37-.01h.36l.36.01.36-.01.36.03.37.01h.36l.36-.05.36-.01.36.03.37.02.36.01.36-.01.36-.01h.73l.36.01.36-.01.36-.01.37.04.36-.01.36-.01h.36l.36-.03h.37l.36-.03.36.01.36-.01.36-.02.37-.02.36.1.36-.08h.72l.37-.01.36.19.36.1.36.04.36-.02.37-.04.36-.06h.36l.36-.02.37-.04h.36l.36.01.36.01.36.03.37.02.36-.05.36.02.36-.04h.36l.37.02.36-.02h.72l.36-.01.37.01.36-.02.36-.04.36-.02.37.01h.36l.36.01.36.01.36-.02h.73l.36-.01.36-.01.36-.04h.37l.36-.02.36-.01.36-.02h1.09l.36-.02.36-.02.36.05h.37l.36.01h.36l.36-.01.37.01.36-.03.36-.01.36.13.36-.06.37-.02.36.01.36-.02.36-.02h.36l.37-.01.36-.05.36-.01.36-.01.36-.02.37.02.36-.01h.72l.37-.02.36.2.36.18.36-.08h.36l.37.01.36.01.36-.01.36.01.36.02.37-.02.36.01h.36l.36-.01.36.01.37.01h.36l.36-.04h.36l.37-.02h.36l.36-.01h.72l.37-.01h.36l.36-.01h.72l.37-.01.36.01.36.01.36-.01h.36l.37-.08.36-.05h.36l.36.07h.36l.37-.01h.36l.36-.01h.36l.37.01.36-.02h.36l.36.01.36.01.37.02h.72"/><use xlink:href="#93f97__h" color="#00C853" transform="matrix(3.75 0 0 3.75 69.28 144.51)"/><use xlink:href="#93f97__h" color="#00C853" transform="matrix(3.75 0 0 3.75 220.55 52.51)"/></g><path fill="none" d="M28 75.01v87.49m343.99-87.49H28" color="#000"/></svg>