<svg xmlns="http://www.w3.org/2000/svg" xmlns:xlink="http://www.w3.org/1999/xlink" viewBox="0 0 400 200"><path fill="none" d="M0 0h400v200H0z"/><defs><use xlink:href="#167db__a" id="167db__c" fill="currentColor" stroke="none"/><use xlink:href="#167db__a" id="167db__b" stroke="currentColor" transform="rotate(180)"/><use xlink:href="#167db__b" id="167db__d" fill="currentColor" stroke="none"/><path id="167db__a" stroke="currentColor" stroke-width=".267" d="m0-1.33-1.33 2h2.66z"/></defs><path fill="none" stroke="#CCC" stroke-linecap="round" stroke-linejoin="round" stroke-width=".1" d="M46.1 162.5V45.01" class="167db__gridline" color="#000"/><g fill="none" stroke-linecap="round" stroke-linejoin="round" stroke-width="0" color="#000"><path d="M46.1 162.5V155m0-109.99v7.5"/><text fill="#000" font-family="KaTeX_Main" font-size="8" text-anchor="middle" transform="translate(46.1 172.6)"><tspan> 1</tspan></text></g><path fill="none" stroke="#CCC" stroke-linecap="round" stroke-linejoin="round" stroke-width=".1" d="M82.31 162.5V45.01" class="167db__gridline" color="#000"/><g fill="none" stroke-linecap="round" stroke-linejoin="round" stroke-width="0" color="#000"><path d="M82.31 162.5V155m0-109.99v7.5"/><text fill="#000" font-family="KaTeX_Main" font-size="8" text-anchor="middle" transform="translate(82.31 172.6)"><tspan> 2</tspan></text></g><path fill="none" stroke="#CCC" stroke-linecap="round" stroke-linejoin="round" stroke-width=".1" d="M118.52 162.5V45.01" class="167db__gridline" color="#000"/><g fill="none" stroke-linecap="round" stroke-linejoin="round" stroke-width="0" color="#000"><path d="M118.52 162.5V155m0-109.99v7.5"/><text fill="#000" font-family="KaTeX_Main" font-size="8" text-anchor="middle" transform="translate(118.52 172.6)"><tspan> 3</tspan></text></g><path fill="none" stroke="#CCC" stroke-linecap="round" stroke-linejoin="round" stroke-width=".1" d="M154.73 162.5V45.01" class="167db__gridline" color="#000"/><g fill="none" stroke-linecap="round" stroke-linejoin="round" stroke-width="0" color="#000"><path d="M154.73 162.5V155m0-109.99v7.5"/><text fill="#000" font-family="KaTeX_Main" font-size="8" text-anchor="middle" transform="translate(154.73 172.6)"><tspan> 4</tspan></text></g><path fill="none" stroke="#CCC" stroke-linecap="round" stroke-linejoin="round" stroke-width=".1" d="M190.94 162.5V45.01" class="167db__gridline" color="#000"/><g fill="none" stroke-linecap="round" stroke-linejoin="round" stroke-width="0" color="#000"><path d="M190.94 162.5V155m0-109.99v7.5"/><text fill="#000" font-family="KaTeX_Main" font-size="8" text-anchor="middle" transform="translate(190.94 172.6)"><tspan> 5</tspan></text></g><path fill="none" stroke="#CCC" stroke-linecap="round" stroke-linejoin="round" stroke-width=".1" d="M227.15 162.5V45.01" class="167db__gridline" color="#000"/><g fill="none" stroke-linecap="round" stroke-linejoin="round" stroke-width="0" color="#000"><path d="M227.15 162.5V155m0-109.99v7.5"/><text fill="#000" font-family="KaTeX_Main" font-size="8" text-anchor="middle" transform="translate(227.15 172.6)"><tspan> 6</tspan></text></g><path fill="none" stroke="#CCC" stroke-linecap="round" stroke-linejoin="round" stroke-width=".1" d="M263.36 162.5V45.01" class="167db__gridline" color="#000"/><g fill="none" stroke-linecap="round" stroke-linejoin="round" stroke-width="0" color="#000"><path d="M263.36 162.5V155m0-109.99v7.5"/><text fill="#000" font-family="KaTeX_Main" font-size="8" text-anchor="middle" transform="translate(263.36 172.6)"><tspan> 7</tspan></text></g><path fill="none" stroke="#CCC" stroke-linecap="round" stroke-linejoin="round" stroke-width=".1" d="M299.57 162.5V45.01" class="167db__gridline" color="#000"/><g fill="none" stroke-linecap="round" stroke-linejoin="round" stroke-width="0" color="#000"><path d="M299.57 162.5V155m0-109.99v7.5"/><text fill="#000" font-family="KaTeX_Main" font-size="8" text-anchor="middle" transform="translate(299.57 172.6)"><tspan> 8</tspan></text></g><path fill="none" stroke="#CCC" stroke-linecap="round" stroke-linejoin="round" stroke-width=".1" d="M335.78 162.5V45.01" class="167db__gridline" color="#000"/><g fill="none" stroke-linecap="round" stroke-linejoin="round" stroke-width="0" color="#000"><path d="M335.78 162.5V155m0-109.99v7.5"/><text fill="#000" font-family="KaTeX_Main" font-size="8" text-anchor="middle" transform="translate(335.78 172.6)"><tspan> 9</tspan></text></g><path fill="none" stroke="#CCC" stroke-linecap="round" stroke-linejoin="round" stroke-width=".1" d="M371.99 162.5V45.01" class="167db__gridline" color="#000"/><g fill="none" stroke-linecap="round" stroke-linejoin="round" stroke-width="0" color="#000"><path d="M371.99 162.5V155m0-109.99v7.5"/><text fill="#000" font-family="KaTeX_Main" font-size="8" text-anchor="middle" transform="translate(371.99 172.6)"><tspan> 10</tspan></text></g><g fill="none" stroke-linecap="round" stroke-linejoin="round" stroke-width="0" color="#000"><path d="M371.99 162.5h-7.5"/><text fill="#000" font-family="KaTeX_Main" font-size="8" transform="translate(378.99 165.1)"><tspan>5.00</tspan></text></g><g fill="none" stroke-linecap="round" stroke-linejoin="round" stroke-width="0" color="#000"><path d="M371.99 147.81h-7.5"/><text fill="#000" font-family="KaTeX_Main" font-size="8" transform="translate(378.99 150.41)"><tspan>5.50</tspan></text></g><g fill="none" stroke-linecap="round" stroke-linejoin="round" stroke-width="0" color="#000"><path d="M371.99 133.13h-7.5"/><text fill="#000" font-family="KaTeX_Main" font-size="8" transform="translate(378.99 135.73)"><tspan>6.00</tspan></text></g><g fill="none" stroke-linecap="round" stroke-linejoin="round" stroke-width="0" color="#000"><path d="M371.99 118.44h-7.5"/><text fill="#000" font-family="KaTeX_Main" font-size="8" transform="translate(378.99 121.04)"><tspan>6.50</tspan></text></g><g fill="none" stroke-linecap="round" stroke-linejoin="round" stroke-width="0" color="#000"><path d="M371.99 103.75h-7.5"/><text fill="#000" font-family="KaTeX_Main" font-size="8" transform="translate(378.99 106.35)"><tspan>7.00</tspan></text></g><g fill="none" stroke-linecap="round" stroke-linejoin="round" stroke-width="0" color="#000"><path d="M371.99 89.07h-7.5"/><text fill="#000" font-family="KaTeX_Main" font-size="8" transform="translate(378.99 91.67)"><tspan>7.50</tspan></text></g><g fill="none" stroke-linecap="round" stroke-linejoin="round" stroke-width="0" color="#000"><path d="M371.99 74.38h-7.5"/><text fill="#000" font-family="KaTeX_Main" font-size="8" transform="translate(378.99 76.98)"><tspan>8.00</tspan></text></g><g fill="none" stroke-linecap="round" stroke-linejoin="round" stroke-width="0" color="#000"><path d="M371.99 59.7h-7.5"/><text fill="#000" font-family="KaTeX_Main" font-size="8" transform="translate(378.99 62.3)"><tspan>8.50</tspan></text></g><g fill="none" stroke-linecap="round" stroke-linejoin="round" stroke-width="0" color="#000"><path d="M371.99 45.01h-7.5"/><text fill="#000" font-family="KaTeX_Main" font-size="8" transform="translate(378.99 47.61)"><tspan>9.00</tspan></text></g><path fill="none" d="M28 45.01V162.5M371.99 45.01H28" color="#000"/><text stroke-linecap="round" stroke-linejoin="round" stroke-width="0" color="#000" font-family="KaTeX_Main" font-size="10" text-anchor="middle" transform="rotate(-90 57.63 46.13)"><tspan font-weight="bold">Duration </tspan><tspan> in milliseconds</tspan></text><text stroke-linecap="round" stroke-linejoin="round" stroke-width="0" color="#000" font-family="KaTeX_Main" font-size="10" text-anchor="middle" transform="translate(199.99 195.75)"><tspan>Operations / 10</tspan><tspan dy="-5" font-size="8">6</tspan></text><text stroke-linecap="round" stroke-linejoin="round" stroke-width=".5" color="#000" font-family="KaTeX_Main" font-size="8" transform="translate(116 10.11)"><tspan>AVLBottomUp</tspan></text><g fill="none" stroke="currentColor" stroke-linecap="round" stroke-linejoin="round" stroke-width=".5" color="#000"><path stroke="#000" d="M80.5 7.51h29.9m-82.4 110 .36 20.37.36-4.73.37-3.68.36-12.58.36 5.23.36-5.19.36 10.51.37-.11.36-10.38.36 5.84.36-5.27.37 9.96.36-.33.36-9.86.36 5.15.36-5.29.37 10.27.36-.63.36-9.91.36 5.6.36-5.87.37 10.67.36.01.36-10.12.36 5.42.36-5.65.37 10.22.36.4.36-10.86.36 5.98.36-5.32.37 10.02.36-.11.36-10.21.36 5.67.37-4.98.36 9.95.36-.29.36-9.83.36 5.15.37-5.27.36 9.94.36.33.36-10.67.36 5.63.37-5.47.36 10.81.36-.22.36-10.03.36 5.06.37-5.18.36 9.91.36-.02.36-14.47.37 4.29.36 5.63.36-5.05.36-4.97.36-10.67.37 20.67.36-.28.36-15.13.36-.13.36 15.51.37.24.36-15.29.36-.16.36 14.79.36-9.52.37 5.03.36-10.27.36 15.28.36-15 .37 10.38.36-5.75.36 9.96.36-14.86.36 9.71.37-4.55.36 10.12.36-15.4.36 5.54.36 4.71.37.02.36-5.09.36-9.82.36 19.94.36-.35.37-15 .36.43.36 14.71.36.01.36-14.46.37-.58.36 15.14.36-4.78.36-4.98.37-5.27.36 15.12.36-15.12.36 10.18.36-4.88.37 9.88.36-15.1.36 10.28.36-5.71.36 10.4.37-15.41.36 10.57.36-5.24.36 9.96.36-15.3.37.72.36 15.11.36-5.06.36-10.61.37.71.36 14.69.36-.5.36-14.3.36-.68.37 15.54.36-.3.36-15.11.36-.06.36 15.68.37-15.47.36 15.53.36-15.7.36 15.45.36-15.58.37 10.5.36-4.42.36 9.33.36-14.55.36 10.05.37-4.72.36 9.24.36-14.81.36.19.37 15.09.36-5.29.36-4.94.36-10.35.36 20.69.37-.06.36-14.92.36-.1.36 14.69.36.08.37-15.3.36-.42.36 16.1.36-11.06.36 5.92.37-10 .36 15.37.36-15.86.36 10.64.37-6.73.36 1.07.36-10.03.36.37.36 14.8.37-15.41.36-4.63.36 20.05.36-15.5.36-4.43.37 19.6.36-14.99.36 5.71.36-.75.36 5.45.37-11.04.36 5.74.36 5.4.36-10.15.36.2.37 9.76.36-9.82.36-.43.36 15.34.37-15.07.36-5.4.36 20.48.36-15 .36-5.41.37 20.78.36-15.45.36 5.31.36-.07.36-.24.37.22.36-.43.36 5.78.36-10.84.36.01.37 10.1.36-10.11.36.24.36 14.96.37-19.82.36 4.88.36 15.38.36-15.12.36-5.6.37 20.73.36-15.42.36.14.36 9.89.36-9.93.37 10.36.36-5.22.36 4.85.36-10.26.36.44.37 9.85.36-10.15.36-.08.36 15.51.37-20.1.36 4.66.36 15.11.36-15.22.36-4.58.37 20.28.36-15.24.36.3.36 10.17.36-10.09.37 10.01.36-5.51.36 4.64.36-14.42.36 9.08.37 5.97.36-10.2.36.69.36 15.03.36-20.29.37 5.03.36 14.54.36-14.73.36-5.33.37 20.17.36-15.37.36.12.36 10.71.36-10.55.37 10.69.36-5.18.36 4.62.36-15.14.36 10.09.37 5.28.36-10.02.36-.07.36 15.27.36-20.08.37 4.98.36 14.98.36-15.23.36-4.94.37 19.95.36-15.24.36-.06.36 10.67.36-10.41.37 10.33.36-5.24.36 5.43.36-15.95.36 10.56.37 4.73.36-10.05.36.08.36 15.29.36-20.48.37 5.16.36 15.37.36-15.38.36-5.01.36 20.2.37-14.94.36-5.1.36 20.14.36-14.76.37 9.81.36-10.06.36 15.28.36-20.58.36 9.69.37 6.13.36-10.88.36.48.36 15.06.36-20.04.37 4.49.36 15.67.36-15.19.36-5.33.36 20.56.37-15.69.36-4.61.36 20.27.36-15.08.37 10.06.36-9.9.36 15.07.36-20.44.36 10 .37 5.35.36-10.49.36-.41.36 10.47.36-10.42.37.33.36 15.41.36-15.3.36-5.25.36 20.38.37-15.65.36-4.35.36 19.95.36-15.68.36 10.31.37-9.69.36 9.95.36-10.15.36 4.92.37 5.3.36-9.84.36-.32.36 9.88.36-9.14.37-.77.36 15.8.36-15.56.36-4.71.36 19.99.37-15.44.36-5.13.36 21.01.36-16.29.36 10.76.37-10.64.36 10.42.36-10.23.36 5.33.37 4.89.36-10.56.36.58.36 10.38.36-10.31.37-.84.36 15.92.36-16.3.36-4.07.36 20.08.37-15.72.36-4.67.36 20.35.36-15.07.36 5.33.37-.3.36.39.36-.18.36-.33.37 2.91.36-18.33.36 5.09.36.49.36-4.87.37 20.14.36-20.74.36 4.55.36 10.12.36-14.59.37 4.57.36-.13.36-5.15.36 20.08.36-20.31.37 5.38.36 10.7.36-16.11.36 5.72.36-.39.37-5.03.36 20.4.36-20.57.36 5.58.37 10.05.36-15.88.36 5.64.36.26.36-5.71.37 20.84.36-20.72.36 4.84.36 10.39.36-15.11.37 5.01.36.12.36-5.28.36 20.46.36-20.31.37 5.25.36 9.83.36-14.96.36 4.73.37-.09.36-4.45.36 19.76.36-14.49.36-5.9.37 15.69.36-10.46.36-.02.36-4.85.36 4.98.37 10.96.36-11 .36-4.89.36 15.94.36-11.1.37.59.36-.47.36-5.15.36 15.68.36-10.36.37-5.08.36 20.44.36-20.41.36 5.28.37 4.33.36-9.62.36 10.41.36-5.4.36-5.28.37 20.89.36-20.4.36 4.49.36 10.5.36-15.03.37 5.2.36-.58.36-5.08.36 21.54.36-21 .37 5 .36 10.48.36-15.98.36 5.97.37-.19.36-4.85.36 19.79.36-20.47.36 5.59.37 9.52.36-14.83.36 5.22.36-.17.36-5.51.37 20.56.36-20.36.36 5.54.36 9.77.36-15.03.37 4.95.36.23.36-4.88.36 19.97.37-20 .36 4.56.36 9.88.36-14.42.36 5.08.37.06.36-5.06.36 20.16.36-19.97.36 5.18.37 9.64.36-15.25.36 9.8.36-10.23.36.12.37 20.08.36-15.43.36-5.05.36 15.23.36-9.86.37.01.36-5.1.36 5.41.36 9.78.37-10.22.36-5.33.36 15.53.36-9.97.36-.05.37.36.36-5.83.36 15.76.36-10.48.36-4.63.37 20.16.36-20.28.36 5.15.36 4.98.36-5.23.37.46.36-.26.36-4.86.36 20.1.37-20.22.36 4.49.36 10.91.36-15.37.36 5.08.37-.04.36-5.25.36 21.35.36-20.93.36 5.1.37 9.91.36-15.22.36 5.23.36-.48.36-4.31.37 20 .36-20.71.36 5.73.36 9.68.36-14.91.37 5.29.36-1.27.36-4.79.36 20.83.37-20.27.36 5.02.36 9.95.36-14.65.36 4.52.37-.19.36-4.82.36 20.68.36-20.47.36 4.77.37 10.66.36-15.59.36 4.87.36.51.36-4.51.37 19.55.36-20.17.36 4.72.36 10.12.37-14.74.36 9.95.36-10.71.36.68.36 19.94.37-14.73.36-5.45.36 15.37.36-9.83.36-.79.37-4.44.36 4.66.36 10.41.36-10.22.36-5.41.37 15.86.36-10.31.36-.02.36.1.36.17.37 4.88.36-5.41.36-5.81.36 21.68.37-20.18.36 4.52.36 10.09.36-15.27.36 5.66.37-.26.36-4.96.36 19.84.36-19.95.36 4.99.37 10.58.36-15.77.36 5.32.36.14.36-4.87.37 20.18.36-20.3.36 4.68.36 10.02.37-15.03.36 4.71.36.01.36-4.99.36 20.9.37-20.91.36 5.58.36 9.87.36-14.91.36 4.93.37-.1.36-4.51.36 19.32.36-19.83.36 4.92.37 10.32.36-15.48.36 4.96.36-.31.37-4.46.36 20.29.36-20.34.36 4.79.36 10.73.37-15.45.36 4.4.36.57.36-5.35.36 20.75.37-15.62.36-4.78.36 14.92.36-14.82.36 9.94.37-9.8.36-.71.36 20.51.36-15.2.36-4.73.37 14.68.36-9.91.36-.24.36-4.42.37 5.15.36 9.5.36-9.98.36-4.77.36 20.08.37-20.36.36 5.5.36 4.49.36-10.59.36 10.8.37-5.06.36-4.9.36 20.28.36-20.05.36 4.42.37 10.11.36-15.58.36 5.54.36-.03.37-4.62.36 20.29.36-20.52.36 5.09.36 10.05.37-15.5.36 5.53.36.35.36-5.35.36 20.14.37-20.06.36 5.2.36 10.12.36-15.68.36 5.4.37-.25.36-5.32.36 20.7.36-20.79.36 4.6.37 10.61.36-15.33.36 5.35.36-.06.37-5.15.36 20.24.36-20.15.36 4.64.36 10.76.37-15.69.36 5.05.36.29.36-5.48.36 20.19.37-19.8.36 4.67.36 10.81.36-16.03.36 5.47.37.12.36-5.06.36 19.86.36-14.96.37-5.72.36 16.1.36-15.54.36 10.29.36-9.9.37-.21.36 20.57.36-15.35.36-4.85.36 14.58.37-9.58.36-.36.36-5.27.36 4.15.36 11.42.37-10.1.36-5.66.36 20.74.36-20.42.36 4.92.37 5.11.36-9.58.36 10.13.36-5.48.37-5.24.36 20.27.36-20.04.36 4.98.36 10.19.37-15.56.36 5.41.36.19.36-4.73.36 20.23.37-20.51.36 5.1.36 10.15.36-14.82.36 5.28.37-.48.36-4.98.36 19.96.36-20.18.37 5.04.36 10.32.36-15.22.36 5.05.36.25.37-5.38.36 20.75.36-20.06.36 4.97.36 9.64.37-15.28.36 5.29h.36l.36-4.82.36 19.78.37-20.29.36 5.36.36 10.1.36-15.44.37 5.53.36-.11.36-5.34.36 20.35.36-20.37.37 4.97.36 10.43.36-15.19.36 4.65.36.36.37-5.29.36 20.76.36-15.63.36-5.28.36 15.38.37-10.08.36-.83.36-4.1.36-1.01.36 16.05.37-20.34.36.41.36 4.99.36-5.68.37 15.78.36-30.83.36 35.2.36-24.66.36 9.06.37.94.36-5.21.36 10.11.36-20.29.36 30.61.37-25.77.36 10.5.36-.33.36-5.21.36.15.37-.72.36 21.44.36-25.79.36 10.73.37-6 .36 5.16.36-4.73.36.36.36 15.51.37-15.7.36 5.09.36-5.15.36 4.46.36-4.72.37-.18.36 15.74.36-15.46.36 5.39.36-5.32.37 5.08.36-4.55.36-.67.36 15.55.36-15.31.37 4.75.36-4.86.36 4.53.36-3.97.37-.39.36 15.27.36-15.32.36 5.16.36-5.24.37 5.49.36-5.34.36-.27.36 15.42.36-20.31.37 15.35.36-10.39.36.01.36 4.77.36-5.03.37 15.66.36-25.11.36 24.96.36-15.25.37-.03.36 5.27.36-5.35.36 15.4.36-30.3.37 34.99.36-19.64.36-.66.36 5.65.36-5.96.37 15.87.36-29.99.36 34.82.36-19.84.36.12.37 4.53.36-4.81.36 10.45.36-20.59.36 30.46.37-25.02.36 9.66.36.28.36-5.02.37-.47.36-.29.36 21 .36-25.65.36 10.39.37-5.43.36 4.85.36-4.65.36.32.36 14.87.37-15.29.36 5.22.36-5.3.36 4.96.36-4.32.37-.14.36 14.73.36-14.87.36 5.12.37-5.34.36 5.09.36-4.79.36-.29.36 15.38.37-15.36.36 4.73.36-4.68.36 5.08.36-4.92.37-.01.36 15.3.36-15.41.36 4.86.36-4.92.37 5.45.36-5.71.36.39.36 15.1.37-20.2.36 15.36.36-10.66.36.17.36 4.97.37-5.06.36 15.05.36-24.54.36 24.94.36-14.72.37-.29.36 5.22.36-5.29.36 15.28.36-30.62.37 35.87.36-20.6.36.05.36 4.84.36-4.88.37 15.06.36-30.99.36 36.27.36-20.4.37-.05.36 4.91.36-5.39.36 10.73.36-20.59.37 31.35.36-26.21.36 10.36"/><use xlink:href="#167db__c" transform="matrix(3.75 0 0 3.75 354.25 92.88)"/><use xlink:href="#167db__c" transform="matrix(3.75 0 0 3.75 95.45 7.51)"/></g><text stroke-linecap="round" stroke-linejoin="round" color="#000" font-family="KaTeX_Main" font-size="8" transform="translate(116 25.11)"><tspan>AVLTopDown</tspan></text><g fill="none" stroke="currentColor" stroke-linecap="round" stroke-linejoin="round" color="#000"><path stroke="#29C3F6" stroke-dasharray="2.5,4.0" d="M80.5 22.51h29.9M28 121.65l.36.13.36-10.52.37 6.7.36-19.06.36 21.56.36-5.32.36-15.55.37 15.26.36-15.72.36 21.47.36-5.85.37-14.7.36 15.52.36-16.15.36 21.03.36-5.07.37-15.48.36 15.08.36-15.11.36 20.86.36-5.84.37-15.38.36 16.23.36-15.47.36 19.76.36-4.34.37-15.38.36 14.39.36-14.46.36 20.02.36-5.29.37-14.45.36 14.57.36-14.7.36 20.04.37-4.7.36-15.38.36 15.52.36-16.2.36 15.89.37 5.18.36-21.18.36 15.4.36-15 .36 15.96.37 4.49.36-20.24.36 10.35.36-5.19.36 10.65.37-.49.36-9.82.36 5.19.36-6.15.37 10.17.36-4.82.36-15.92.36.55.36 15.15.37-4.89.36-4.76.36-5.53.36 15.22.36-15.75.37 11.31.36-5.94.36 10.34.36-15.33.36 10.7.37-5.13.36 10.3.36-16.07.36 10.63.37-4.58.36 9.61.36-14.86.36-.86.36 16.24.37-4.56.36-11.21.36-.28.36 15.75.36-.37.37-14.98.36-.07.36 14.56.36.72.36-15.43.37.47.36 14.51.36-15.66.36 15.57.36-14.66.37 14.54.36-14.48.36 9.76.36-4.81.37 10.48.36-15.8.36 10.65.36-5.43.36 11.05.37-15.59.36-.34.36 14.69.36-5.65.36-4.08.37-8.87.36 19.16.36.33.36-15.56.36.8.37 15.06.36.17.36-15.39.36-1.01.37 15.95.36-10.34.36 5.63.36-10.2.36 15.11.37-14.73.36 9.53.36-4.7.36 9.63.36-14.8.37 10.39.36-5.14.36 10.07.36-15.74.36 5.45.37 5.18.36-.62.36-4.31.36-11.46.36 21.04.37.35.36-16.12.36.4.36 15.26.37.65.36-16.64.36.82.36 15.78.36-5.7.37-4.54.36-5.37.36 15.38.36-15.52.36 10.45.37-5.07.36 9.75.36-15.13.36 10.97.36-5.41.37 10.26.36-15.84.36 9.84.36-4.94.37 5.09.36-15.65.36-.96.36 14.7.36-16.1.37-4.6.36 20.51.36-15.05.36-4.53.36 20.34.37-15.27.36 5.39.36-.01.36-.15.36-.27.37.34.36 3.87.36-10.14.36.78.36 10.41.37-10.66.36.18.36 15.23.36-20.27.37 4.96.36 14.99.36-14.35.36-5.32.36 19.77.37-14.32.36-.31.36 9.13.36-9.22.36 9.72.37-5.07.36 5.67.36-10.18.36-.62.36 11.23.37-10.76.36.22.36 14.64.36-19.66.37 4.5.36 15.39.36-15.31.36-5.78.36 21.74.37-15.06.36-.77.36 9.02.36-10.12.36 11.34.37-3.62.36 2.68.36-15.75.36 11.21.36 4.87.37-9.26.36-.78.36 15.56.36-21.22.37 6.06.36 14.73.36-15.44.36-5.44.36 21.48.37-15.32.36-.27.36 10.38.36-9.9.36 9 .37-5.1.36 5.88.36-16.14.36 11.04.36 5.31.37-10.5.36-.44.36 16.73.36-22.2.36 5.79.37 15.72.36-15.06.36-5.31.36 20.02.37-15.03.36.33.36 9.67.36-10.58.36 11.25.37-5.51.36 5.87.36-15.75.36 10.18.36 5.39.37-10.43.36-.61.36 16.11.36-21.62.36 5.02.37 14.9.36-14.68.36-5.18.36 21.52.37-13.2.36-6.85.36 19 .36-14.74.36 9.63.37-10.28.36 15.27.36-19.47.36 9.67.36 6.05.37-10.38.36.1.36 15.58.36-20.49.36 3.91.37 16.16.36-16.27.36-4.94.36 21.29.36-15.69.37-4.68.36 19.61.36-14.87.36 10.15.37-10.26.36 14.56.36-18.85.36 9.26.36 5.12.37-9.37.36.12.36 14.07.36-19.86.36 4.71.37 14.74.36-13.85.36-6.01.36 20.35.36-14.51.37-5.47.36 20.19.36-15.27.36 10.27.37-10.26.36 9.55.36-9.55.36 4.74.36 5.83.37-10.36.36-.57.36 9.66.36-10.21.36 1.71.37 15.56.36-16.73.36-5.71.36 20.96.36-14.96.37-4.93.36 20.14.36-14.73.36 8.4.36-9.32.37 10.84.36-10.6.36 4.7.36 5.63.37-10.37.36.04.36 10.11.36-9.45.36-1.47.37 15.46.36-14.28.36-6.16.36 21.26.36-15.05.37-5.88.36 20.45.36-13.81.36 2.96.36 1.39.37-.44.36.39.36-.31.36 4.56.37-9.5.36.61.36 8.81.36-9.85.36.78.37 14.28.36-14.55.36-4.98.36 20.62.36-15.31.37-4.68.36 19.85.36-15.85.36 4.18.36.21.37-.12.36.69.36-.43.36 6.08.37-15.38.36 2.36.36-.95.36-5.8.36 19.76.37-20.04.36 4.78.36 11.57.36-17.68.36 6.62.37-.19.36-4.92.36 20.23.36-14.81.36-4.22.37 14.8.36-11.57.36 1.41.36-5.4.36.03.37 20.5.36-15.23.36-5.43.36 15.17.37-9.4.36-1.42.36-3.25.36 3.54.36 10.67.37-9.89.36-4.44.36 19.71.36-21.95.36 5.43.37 5.23.36-9.48.36 10.84.36-5.65.36-5.16.37 20.77.36-20.93.36 5.22.36 10.17.37-15.45.36 4.69.36.62.36-5.01.36 20.45.37-20.39.36 4.87.36 9.37.36-14.59.36 6.18.37.45.36-6.03.36 19.66.36-19.41.36 4.75.37 10.4.36-15.24.36 5.48.36-1.23.36-5.61.37 21.26.36-21.02.36 5.76.36 10.39.37-15.95.36 4.98.36.64.36-4.41.36 19.92.37-20.52.36 5.07.36 9.56.36-14.86.36 5.31.37-.04.36-5.76.36 21.33.36-21.44.36 6.38.37 9.81.36-15.82.36 10.71.36-10.85.37.26.36 20.83.36-15.84.36-4.8.36 14.63.37-10.88.36 1.35.36-5.07.36 5.22.36 10.05.37-10.49.36-5.61.36 16.51.36-11.74.36.4.37-.44.36-4.75.36 15.3.36-9.7.37-3.6.36 19.28.36-21.14.36 4.43.36 4.81.37-3.71.36-.04.36 1.5.36-6.75.36 20.54.37-20.49.36 5.63.36 9.42.36-15.16.36 4.02.37 1.59.36-6.02.36 20.81.36-20.96.36 6.17.37 8.91.36-15.14.36 5.13.36.58.37-5.12.36 19.63.36-18.84.36 3.71.36 10.81.37-15.03.36 5.21.36-.31.36-6.03.36 21.3.37-20.37.36 5.26.36 10.28.36-16.66.36 5.27.37 1.43.36-5.35.36 20.41.36-20.72.37 4.5.36 10.6.36-14.68.36 5.69.36-.16.37-5.55.36 20.64.36-21.46.36 6.22.36 11.54.37-16.37.36 9.84.36-11.23.36 1.4.36 20.86.37-16.56.36-5.3.36 16.03.36-10.82.36.2.37-4.65.36 4.86.36 10.17.36-9.82.37-5.41.36 14.83.36-9.36.36-.02.36-.43.37-5.46.36 14.81.36-8.94.36-5.34.36 20.45.37-20.75.36 6.33.36 4.08.36-5.04.36.23.37-.25.36-4.38.36 20.17.36-21.64.37 6.05.36 10.58.36-16.37.36 5.46.36.51.37-6 .36 19.79.36-19.98.36 5.61.36 9.61.37-15.62.36 5.64.36.06.36-5.13.36 21 .37-21.06.36 5.78.36 10.21.36-14.39.36 6.71.37-1.38.36-5.57.36 19.02.36-19.98.37 4.82.36 10.59.36-15.21.36 4.77.36-.27.37-4.75.36 20.2.36-20.7.36 6.13.36 10.4.37-15.25.36 4.44.36.64.36-5.28.36 20.64.37-15.86.36-4.43.36 14.52.36-14.92.37 10.2.36-10.42.36.5.36 18.82.36-13.77.37-6.19.36 16.15.36-11.25.36-.23.36-5.37.37 5.84.36 10.91.36-10.73.36-4.64.36 19.72.37-19.43.36 5.03.36-.94.36 1.19.37 4.31.36-5.28.36-5 .36 20.78.36-19.4.37 4.39.36 9.04.36-15.49.36 5.74.36 1.77.37-6.14.36 19.7.36-20.87.36 6.56.36 9.48.37-14.56.36 5.62.36-.46.36-6.24.36 20.33.37-20.14.36 5.69.36 11.03.36-16.38.37 4.94.36-.32.36-3.62.36 20.1.36-20.7.37 5.7.36 9.28.36-15.55.36 5.65.36.34.37-5.81.36 21.51.36-21.28.36 5.48.36 10.51.37-15.64.36 5.02.36-.62.36-4.8.37 20.81.36-20.64.36 4.57.36 10.9.36-15.95.37 4.96.36.03.36-3.81.36 20.47.36-15.96.37-5.4.36 14.52.36-15.36.36 9.98.36-9.82.37.16.36 19.95.36-15.22.36-3.41.36 15.32.37-11.38.36-1.24.36-4.36.36 4.71.37 10.49.36-9.54.36-5.16.36 20.01.36-20.15.37 5.17.36 5.36.36-10.06.36 9.93.36-5.42.37-5.18.36 20.09.36-19.94.36 5.63.36 10.07.37-16.33.36 6.33.36-.97.36-4.2.37 19.95.36-20.66.36 5.59.36 9.57.36-14.78.37 5.29.36-1.17.36-4.68.36 20.62.36-20.43.37 5.81.36 9.81.36-15.6.36 4.64.36.08.37-4.22.36 20.31.36-20.31.36 3.95.36 10.28.37-14.29.36 5.06.36.17.36-4.97.37 20.27.36-21.69.36 5.27.36 10.59.36-13.47.37 3.52.36-.05.36-5.45.36 21.22.36-21.02.37 5.65.36 9.71.36-15.05.36 5.28.36.33.37-6.13.36 20.92.36-13.94.36-6.6.37 15.64.36-10.39.36.59.36-5.88.36.02.37 19.97.36-15.1.36-3.75.36 14.76.36-9.46.37-1.56.36-3.72.36 3.92.36 10.99.36-9.75.37-5.64.36 20.67.36-21.03.36 4.61.37 5.7.36-9.99.36 9.23.36-3.18.36-6.39.37 20.28.36-21.43.36 5.9.36 9.87.36-14.58.37 4.31.36.66.36-5.46.36 20.92.36-20.19.37 4.74.36 10.34.36-14.93.36 5.76.36-5.75.37-6.89.36.74.36-1.91.36 20.23.37-24.87.36 9.19.36-5.74.36 5.26.36-4.8.37-.22.36 15.34.36-15.34.36 5.77.36-5.44.37 4.16.36-5.27.36 1.14.36 14.61.36-15.47.37 5.17.36-5.21.36 4.79.36-4.07.37-1.19.36 15.49.36-14.87.36 6.09.36-5.14.37 5.73.36-5.5.36-1.06.36 14.93.36-14.88.37 5.78.36-4.9.36 4.79.36-4.57.36-.15.37 15.16.36-19.9.36 14.82.36-9.85.36-.35.37 5.47.36-6.46.36 16.42.36-24.88.37 25.09.36-16.61.36.3.36 6.02.36-3.56.37 13.15.36-30.94.36 35.91.36-19.91.36-.04.37 5.02.36-4.56.36 15.38.36-32.6.36 36.71.37-21.28.36-.08.36 6.13.36-6 .37 11.2.36-21.5.36 33.09.36-26.79.36 10.12.37.41.36-6.02.36.75.36.18.36 19.82.37-26.51.36 12.5.36-7.29.36 5.55.36-4.65.37-.29.36 16 .36-16.2.36 6.1.36-5.63.37 5.13.36-5.68.36 1.63.36 13.83.37-15.02.36 5.36.36-4.41.36 5.27.36-5.43.37-1.41.36 17.06.36-16.96.36 4.76.36-5.6.37 6.36.36-5.42.36 1.36.36 17.51.36-16.44.37 3.83.36-6.19.36 5.32.36-5.92.37.42.36 16.83.36-20.17.36 14.54.36-9.43.37-.14.36 4.96.36-4.58.36 13.8.36-24.29.37 25.61.36-16.38.36-.7.36 5.68.36-5.39.37 16.7.36-31.44.36 35.79.36-19.95.37-1.22.36 6.91.36-6.74.36 14.97.36-29.76.37 35.25.36-20.63.36.13.36 5.02.36-3.88.37 12.12.36-22.31.36 28.95.36-24.59.36 9.81.37.13.36-5 .36 5.4.36-11.63.36 25.81.37-24.61.36 9.98.36.39.36-4.96.37.05.36-1.49.36 16.06.36-14.17.36 5.72.37-6.73.36 4.22.36-4.41"/><use xlink:href="#167db__d" color="#29C3F6" transform="matrix(3.75 0 0 3.75 67.83 110.46)"/><use xlink:href="#167db__d" color="#29C3F6" transform="matrix(3.75 0 0 3.75 95.45 22.51)"/></g><text stroke-linecap="round" stroke-linejoin="round" color="#000" font-family="KaTeX_Main" font-size="8" transform="translate(241.1 10.11)"><tspan>AVLWeakBottomUp</tspan></text><g fill="none" stroke="currentColor" stroke-linecap="round" stroke-linejoin="round" color="#000"><path stroke="#00C853" d="M205.6 7.51h29.9M28 134.41l.36-10.68.36 10.59.37-19.07.36 18.56.36-5.61.36-15.61.36 15.36.37-14.97.36 15.21.36 5.06.36-20.05.37 15.25.36-15.27.36 15.26.36 5.29.36-20.43.37 15.15.36-15.72.36 16.03.36 4.62.36-19.94.37 10.03.36-4.92.36 10.57.36-.19.36-10.09.37 4.74.36-5.52.36 10.32.36.65.36-10.75.37 5.62.36-5.02.36 9.8.36.18.37-10.15.36 5.11.36-5.51.36 10.86.36-.39.37-9.72.36 4.14.36-4.52.36 10.2.36.17.37-11.14.36 6.01.36-5.4.36 9.65.36.88.37-10.15.36 4.73.36-4.95.36 10.32.37-.95.36-19.05.36-.51.36 15.5.36.35.37-15.3.36-.1.36 15.45.36-15.64.36 15.46.37-15.27.36 14.91.36-14.91.36 10.19.36-5.26.37 9.87.36-14.22.36 9.92.36-5.66.37 10.65.36-15.07.36-.28.36 15.14.36-4.84.37-5.75.36-10.12.36 20.66.36.09.36-15.16.37-.31.36 15.52.36-.12.36-15.04.36-.59.37 15.89.36-10.52.36 4.97.36-10.03.36 15.62.37-14.82.36 9.62.36-5.12.36 10.7.37-15.31.36 10.19.36-5.67.36 10.62.36-15.06.37 4.61.36 5.1.36-.08.36-5.03.36-10.26.37 20.5.36.24.36-15.96.36 1.07.36 14.55.37.29.36-15.53.36-.02.36 15.29.37-4.92.36-5.32.36-4.86.36 15.22.36-15.15.37 10.55.36-5.18.36 9.95.36-15.29.36 10.51.37-5.71.36 10.14.36-14.9.36 9.94.36-4.7.37 9.87.36-15.37.36.49.36 15.09.36-5.47.37-9.8.36-.2.36 15.41.36-.39.37-15.06.36-.14.36 15.49.36.26.36-15.72.37-.03.36 15.1.36-14.94.36 10.09.36-4.77.37 10.56.36-15.48.36 10.1.36-4.66.36 9.69.37-15.46.36 10.31.36-4.8.36 10.08.37-17.14.36-8.8.36 20.58.36-14.88.36-5.85.37 20.74.36-15.24.36 10.29.36-10.16.36 14.59.37-20.28.36 10.3.36 5.29.36-10.29.36.19.37 10.2.36-10.16.36-.43.36 15.86.36-15.56.37-4.96.36 20.19.36-15.25.36-5.05.37 20.57.36-15.42.36 9.87.36-9.41.36 10.13.37-10.47.36 5.23.36 5.39.36-10.53.36.38.37 9.36.36-9.55.36.28.36 15.52.36-15.68.37-4.64.36 20.21.36-15.91.36-4.08.37 19.86.36-15.6.36 9.99.36-9.44.36 10.4.37-10.55.36 5.06.36 4.85.36-10.78.36.45.37 11.02.36-10.44.36-.09.36 14.99.36-15.29.37-5.22.36 20.31.36-14.44.36-5.27.37 20.16.36-15.75.36 5.55.36-.08.36.02.37-.34.36.62.36 4.69.36-10.15.36.49.37 9.47.36-9.85.36-.54.36 15.77.36-20.33.37 5.24.36 14.93.36-15.41.36-4.77.36 20.32.37-14.93.36-.59.36 10.35.36-4.77.37-.29.36-.15.36 5.46.36-10.51.36.46.37 9.67.36-10.05.36-.25.36 15.74.36-20.77.37 5.1.36 15.52.36-16.09.36-4.21.36 19.98.37-15.01.36-.02.36 10.11.36-10.73.37 11.03.36-5.76.36 5.62.36-15.33.36 10.48.37 5.03.36-10.42.36-.14.36 15.23.36-20.14.37 5.06.36 15.24.36-15.34.36-5.05.36 20.04.37-15.03.36.04.36 10.11.36-9.69.36 9.66.37-4.66.36 4.49.36-15.03.36 10.42.37 4.87.36-10.5.36.11.36 15.62.36-20.08.37 5.33.36 15.09.36-15.68.36-4.78.36 20.1.37-15.91.36 1.05.36 9.83.36-10.64.36 10.05.37-4.54.36 5.25.36-15.65.36 10.33.37 5.38.36-10.25.36-.39.36 15.55.36-20.09.37 5.1.36 15.02.36-15.27.36-5.27.36 20.28.37-14.63.36-5.95.36 20.82.36-15.48.36 10.54.37-10.56.36 15.27.36-20.3.36 10.48.36 4.86.37-10.22.36.09.36 15.32.36-20.4.37 4.89.36 15.9.36-15.66.36-5.21.36 20.43.37-15.53.36-4.69.36 19.84.36-14.72.36 9.7.37-9.59.36 14.75.36-19.98.36 9.67.36 5.93.37-10.71.36.21.36 15.19.36-20.41.37 5.32.36 15.05.36-15.64.36-4.67.36 20.6.37-15.92.36-5.16.36 20.28.36-14.64.36 9.87.37-9.69.36 14.27.36-19.85.36 9.98.36 4.99.37-9.59.36-.02.36 10.34.36-10.49.37-3.16.36 7.12.36-14.26.36 5.02.36.01.37-4.9.36 19.86.36-20.48.36 5.09.36 10.59.37-15.44.36 9.93.36-9.96.36-.19.36 20.13.37-14.59.36-5.28.36 15.33.36-9.93.36-.17.37-5.41.36 4.46.36 10.62.36-9.72.37-4.5.36 14.09.36-9.88.36.14.36-.74.37-4.28.36 15.27.36-9.96.36-5.27.36 20.33.37-20.6.36 5.25.36 9.9.36-15.45.36 5.19.37.8.36-5.68.36 20.27.36-20.05.37 4.4.36 10.35.36-14.76.36 5.14.36-.28.37-4.93.36 20.16.36-20.04.36 5.57.36 9.47.37-15.64.36 5.31.36.48.36-5.43.36 20.95.37-20.59.36 4.79.36 9.52.36-14.64.36 5.32.37.01.36-5.49.36 20.66.36-20.54.37 5.19.36 10.72.36-16.39.36 5.61.36-.97.37-4.31.36 20.46.36-19.81.36 4.86.36 9.99.37-15.64.36 5.13.36.67.36-5.35.36 20.36.37-15.48.36-5.19.36 15.59.36-15.51.37 10.51.36-9.76.36-.29.36 19.83.36-15.12.37-5.32.36 15.86.36-10.52h.36l.36-5.03.37 4.81.36 10.35.36-9.97.36-4.77.36 20.02.37-19.99.36 4.5.36 5.64.36-10.47.37 10.32.36-5.44.36-4.65.36 20.08.36-20.2.37 5.12.36 10.1.36-15.52.36 5.18.36-.14.37-4.72.36 20.14.36-20.15.36 4.61.36 10.45.37-15.66.36 5.14.36.26.36-5.28.36 20.34.37-20.2.36 4.65.36 10.06.36-15.24.37 4.82.36.22.36-5.15.36 20.34.36-20.16.37 5.2.36 9.45.36-15.74.36 5.15.36.52.37-5.48.36 20.36.36-20.48.36 4.51.36 10.23.37-15.02.36 5.09.36-.32.36-4.84.37 20.3.36-20.04.36 4.58.36 10.73.36-15.58.37 4.98.36.34.36-4.94.36 19.67.36-14.54.37-5.9.36 15.86.36-15.17.36 10.04.36-9.83.37-.62.36 20.22.36-15.26.36-5.06.36 15.86.37-10.25.36-.87.36-4.33.36 4.83.37 9.97.36-9.61.36-5.9.36 20.84.36-20.74.37 5.14.36 5.29.36-10.07.36 9.32.36-4.45.37-5.51.36 20.51.36-20.28.36 5.62.36 10.11.37-15.33.36 4.56.36.61.36-5.16.37 20.22.36-20.48.36 5.05.36 10.1.36-14.69.37 4.83.36.5.36-5.71.36 20.21.36-19.8.37 4.98.36 10.51.36-15.34.36 5.22.36.02.37-5.33.36 20.12.36-19.59.36 4.42.36 10.39.37-15.44.36 5.38.36-.06.36-4.55.37 19.85.36-20.52.36 4.91.36 10.67.36-15.18.37 4.95.36-.45.36-4.89.36 20.56.36-20.32.37 4.78.36 10.42.36-15.29.36 4.86.36.24.37-4.75.36 20.12.36-15.59.36-5.44.37 16.33.36-11.06.36.51.36-5.1.36 5.17.37 9.94.36-10.07.36-5.52.36 15.78.36-10.47.37.29.36-.04.36-5.17.36 15.39.36-10.21.37-4.81.36 19.45.36-19.85.36 4.53.37 5.72.36-10.26.36 10.29.36-4.71.36-5.39.37 20.38.36-19.71.36 4.21.36 10.38.36-15.4.37 4.78.36.63.36-6.42.36 21.66.36-20.19.37 4.72.36 10.27.36-15.3.36 4.71.36.24.37-5.2.36 20.77.36-20.6.36 5.01.37 10.05.36-15.21.36 4.9.36.09.36-5.03.37 20.29.36-20.12.36 4.5.36 10.39.36-15.16.37 5.58.36-.36.36-5.04.36 20.19.36-20.18.37 5.09.36 10.53.36-15.58.36 5.01.37.07.36-4.54.36 20.3.36-20.17.36 4.84.37 10.46.36-15.84.36 10.19.36-10.03.36.25.37 19.93.36-14.84.36-5.62.36 15.01.36-9.38.37-.46.36-5.02.36 5.66.36 9.41.36-9.77.37-5.09.36 15.34.36-10.16.36.04.37-.45.36-5.09.36 14.85.36-9.46.36-5.28.37 20.55.36-20.43.36 4.81.36 5.12.36-4.82.37-.13.36-.02.36-5.28.36 20.1.36-19.57.37 4.72.36 10.49.36-15.85.36 5.47.37-.07.36-4.66.36 19.94.36-20.1.36 4.87.37 10.29.36-15.43.36 5.2.36.06.36-5.13.37 20.72.36-20.01.36 3.84.36 10.99.36-14.87.37 4.29.36.48.36-5.04.36 19.68.36-19.16.37 4.8.36 10.39.36-15.66.36 5.48.37-.51.36-5.34.36 21.22.36-20.66.36 4.98.37 10.31.36-15.46.36 5.84.36-.25.36-5.78.37 20.96.36-20.92.36 5.35.36 10.66.36-15.55.37 9.8.36-9.58.36-.43.36 20.5.37-14.72.36-5.22.36 15.47.36-11.01.36.51.37-5.04.36 5.09.36 10.24.36-9.38.36-5.69.37 14.7.36-9.24.36-.82.36.71.36-.56.37 5.19.36-5.25.36-4.99.36 20.94.37-20.99.36 5.35.36 9.77.36-14.93.36 4.69.37.27.36-4.84.36 19.95.36-19.97.36 4.46.37 10.47.36-15.17.36 5.3.36-.21.36-5.41.37 20.46.36-19.72.36 4.79.36 9.23.36-34.41.37 35.32.36-20.32.36-.05.36 4.33.37-4.47.36 15.65.36-30.36.36 35.41.36-20.33.37-.51.36 5.18.36-4.71.36 9.55.36-20.06.37 30.34.36-24.94.36 10.01.36-.25.36-4.91.37-.56.36.28.36 20.59.36-25.15.37 9.8.36-4.43.36 4.85.36-5.39.36.09.37 14.7.36-14.84.36 5.43.36-5.15.36 4.56.37-5.1.36-.23.36 15.91.36-15.58.36 5.65.37-5.74.36 5.14.36-4.83.36.19.36 15.22.37-15.61.36 5.77.36-5.9.36 5.84.37-5.26.36-.34.36 15.05.36-14.74.36 4.57.37-4.47.36 4.82.36-5.28.36.58.36 14.91.37-20.31.36 15.22.36-10.5.36.35.36 5.26.37-5.59.36 15.61.36-25.9.36 26.07.37-15.66.36-.32.36 5.43.36-5.35.36 15.87.37-31.04.36 35.43.36-20.23.36.12.36 5.27.37-5.36.36 15.61.36-30.25.36 35.44.36-20.61.37-.36.36 5.64.36-4.9.36 10.01.36-20.36.37 30.67.36-25.1.36 9.59.36-.27.37-5.07.36 5.47.36-9.46.36 24.95.36-25.79.37 10.32.36-.18.36-5.15.36.44.36-.34.37 15.24.36-14.92.36 4.53.36-4.41.36 4.96.37-5.39.36-.34.36 16.18.36-15.92.37 5.36.36-5.27.36 5 .36-4.89.36.25.37 15.05.36-15.36.36 5.37.36-5.5.36 5.7.37-5.53.36-.12.36 15.58.36-15.42.36 4.88.37-5 .36 4.53.36-4.11.36-.32.37 15.49.36-15.17.36 4.66.36-5.31.36 5.38.37-5.1.36-.3.36 15.64.36-25.71.36 25.49.37-14.7.36-.83.36 5.78.36-5.34.36 15.23.37-25.66.36 25.33.36-14.73.36-.33.36 5.39.37-5.74.36 15.69.36-30.23.36 35.38.37-20.82.36.54.36 4.32.36-4.24.36 9.66.37-19.61.36 30.06.36-24.89"/><use xlink:href="#167db__a" color="#00C853" transform="matrix(3.75 0 0 3.75 125.4 110.28)"/><use xlink:href="#167db__a" color="#00C853" transform="matrix(3.75 0 0 3.75 220.55 7.51)"/></g><text stroke-linecap="round" stroke-linejoin="round" color="#000" font-family="KaTeX_Main" font-size="8" transform="translate(241.1 25.11)"><tspan>AVLWeakTopDown</tspan></text><g fill="none" stroke="currentColor" stroke-linecap="round" stroke-linejoin="round" color="#000"><path stroke="#FFAB00" stroke-dasharray="4.5,2.0,0.5,2.0,0.5,2.0" d="M205.6 22.51h29.9M28 139.7l.36 6.19.36-7.03.37-.19.36 2.24.36-.05.36-20.39.36 13.95.37 10.08.36-1.47.36-10.41.36 7.51.37 6.73.36-7.36.36.56.36 2.6.36-7.02.37-1.03.36 5.38.36 1.29.36-8.03.36 22.44.37-5.88.36-10.5.36-9.36.36 19.03.36-3.34.37-4.7.36 3.12.36-3.14.36-.49.36-5.13.37 2.34.36-5.7.36 9.44.36 3.28.37-10.94.36 5.59.36 5.01.36 1.33.36.43.37-6.38.36-13.88.36 7.35.36 6.79.36 3.54.37-11.34.36 7.88.36-.57.36-6.09.36 2.87.37 5.32.36-.02.36-1.13.36-21.41.37 12.45.36 1.49.36-8.47.36 9.18.36-9.74.37 14.63.36.59.36-30.95.36 26.62.36-3.53.37 10.19.36-12.63.36 5.65.36-1.52.36-.76.37-19.3.36 19.26.36-4.25.36 13.76.37 2.2.36-13.42.36 4.16.36.27.36 6.92.37-3.01.36-5.21.36-10.28.36 4.76.36.04.37-1.95.36-3.03.36 15.09.36.66.36-19.34.37 2.61.36 12.93.36 13.21.36-9.27.36 7.57.37-2.31.36-15.6.36 7.48.36.27.37 3.01.36 4.16.36.85.36-2.58.36-23.25.37 16.47.36 9.05.36-5.51.36-3.14.36-6.71.37.23.36.16.36 7.32.36-20.76.36 16.28.37 7.49.36-7.46.36-15.18.36 11.22.37 15.75.36-5.84.36-1.84.36-17.65.36 16.04.37-6.17.36-4.27.36 2.26.36 9.46.36 10.12.37-2.38.36-10.87.36-6.68.36 12.29.36 1.06.37-4.4.36 4.18.36-14.35.36-.11.36 11.18.37-4.38.36-17.1.36 25.46.36-5.7.37-11.74.36 7.48.36 6.09.36 4.5.36 1.24.37-17.88.36 2.17.36 6.95.36-2.2.36-3.25.37-4.61.36 17.56.36-1.02.36-31.37.36 27.03.37-2.23.36-7.98.36 5.41.36-1.34.37-13.83.36 3.46.36 3.37.36-5.05.36 4.69.37 8.36.36-16.6.36 9.96.36-4.45.36 3.93.37 12.74.36-6.45.36-15.16.36 12.4.36-9.5.37-1 .36 16.59.36-31.61.36 38.08.36-4.24.37-10.63.36 4.97.36 1.25.36 6.24.37-22.97.36 16.95.36-2.75.36-15.38.36 10.42.37-.93.36-9.88.36 15.93.36-4.7.36-4.53.37 10.69.36-22.61.36 35.02.36-2.16.36-4.25.37-6.4.36-.76.36.83.36 8.85.37-24.33.36 19.8.36 6.4.36-8.65.36-6.35.37-.72.36 13.66.36-19.04.36 7.02.36 3.45.37-10.93.36.39.36 12.18.36-28.85.36 30.66.37-9.62.36-7.94.36 12.95.36-18.56.37 24.13.36-5.71.36 2.45.36-7.31.36 1.08.37-15.17.36 15.13.36-6.77.36 7.45.36 21.32.37-7.56.36 1.54.36.63.36 4.55.36-26.53.37 17.48.36 4.33.36-10.81.36-4.43.36.07.37 11.3.36.74.36-17.61.36 13.46.37-5.79.36-2.61.36 19.34.36-9.18.36 1.07.37 3.85.36-10.1.36-14.34.36 20.99.36-4.33.37-6.35.36 10.56.36-1.75.36-1.05.36-17.73.37 17.89.36-3.21.36-3.77.36 2.51.37-2.63.36-16.82.36 14.54.36 2.72.36-13.28.37 16.88.36-.15.36-21.65.36 16.62.36 1.16.37-2.77.36 12.49.36-7.21.36-17.95.36 12.61.37-10.05.36 13.86.36-5.44.36 3.81.36 9.21.37-6.35.36-5.16.36 8.29.36-.88.37 5.07.36-20.99.36 11.46.36-6.76.36-7.81.37 20.08.36-25.8.36 23.4.36-.52.36-14 .37 9.03.36 10.82.36-7.8.36 4.44.36 9.25.37-7.7.36-10.07.36 7.53.36 3.34.37 1.28.36-11.21.36 6.03.36 5.91.36-4.81.37-5.64.36 2.32.36 5.86.36-2.85.36-15.37.37 7.52.36-3.47.36 2.18.36 3.22.36-10.87.37 20.55.36-17.73.36 2.58.36 12.7.36-9.23.37 1.55.36 5.89.36-.25.36-16.64.37 14.56.36-21.34.36 22.6.36 1.21.36-1.08.37-2.35.36 7.36.36-2.83.36-11.72.36 12.7.37-.56.36-6.68.36-5.22.36 3.27.36-12.47.37 13.73.36-.92.36.62.36 8.06.37-28.38.36 25.07.36 6.11.36-17.03.36 13.81.37 3.56.36-30.44.36 23.82.36-14.67.36 6.92.37 11.3.36-16.53.36 12.98.36-5.45.36-9.8.37 17.1.36-21.08.36 16.43.36-5.89.37-10.98.36 9.81.36-14.96.36 9.98.36-6.52.37 22.11.36-27.37.36 10.04.36-3.08.36 23.29.37-27.87.36 26.8.36-17.63.36 1.7.36-11.23.37 14.53.36-8.87.36 3.51.36 16.33.36-15.73.37 9.36.36-5.37.36 4.95.36 6.03.37-24.27.36 18.09.36-12.86.36 8.31.36-20.67.37 22.01.36-14.75.36 19.76.36-17.19.36 4.35.37-6.31.36 22.74.36 6.36.36-19.09.36 13.85.37-2.88.36-12.68.36 8.94.36-6.45.37.15.36 12.98.36-5.24.36-5.84.36 9.84.37-23.28.36 20.73.36-5.53.36-1.14.36-8.26.37 1.86.36-4.14.36 9.23.36-16.51.36 20.02.37-4.77.36-9.68.36 12.07.36-13.03.36 20.8.37-12.59.36 10.76.36-16.87.36 3.55.37-2.15.36 10.53.36-25.11.36 40.42.36.51.37-10.04.36-.36.36 10.11.36 1.52.36-28.83.37 26.84.36-5.54.36-16.91.36 12.42.36-3.71.37-8.63.36 15.43.36-4.77.36-2.62.37 7.69.36-23.13.36 33.34.36-10.5.36-1.6.37-1.72.36 3.92.36-24.47.36 22.12.36-8.63.37 5.11.36 11.48.36-23.46.36 13.43.36-5.25.37.2.36 8.83.36-17.7.36 12.56.37-13.74.36 5.01.36-9.5.36 8.32.36 2.33.37 1.76.36-13.18.36 12.99.36-10.05.36 17.63.37 4.3.36-24.13.36 19.85.36-15.75.36 9.42.37-18.67.36 20.99.36-10.29.36 20.07.36-1.34.37-21.03.36 16.83.36-1.06.36-4.05.37 5.59.36-15.93.36 5.28.36-4.39.36 9.14.37-13.75.36 7.59.36-.45.36 14.47.36-32.84.37 16.74.36 24.36.36-4.49.36 12.77.36-3.26.37-7.89.36-17.31.36 21.69.36-2.83.37-10.01.36 8.63.36 9.16.36-6.84.36-19.7.37 18.84.36-3.09.36.94.36-6.67.36 2.22.37-18.47.36 14.95.36 5.23.36-15.73.36 18.36.37-1.98.36-19.63.36 15.67.36-1.26.36 2.42.37 7.68.36-3.89.36-18.62.36 9.84.37-8.21.36 15.5.36-6.9.36-3.64.36 22.13.37-9.39.36.21.36-5.13.36 6 .36 2.85.37-20.83.36 14.75.36-11.92.36-3.11.36 19.71.37-25.46.36 21.68.36-.71.36-8.75.37-.23.36 7.12.36-9.87.36 17.24.36-4.8.37-4.92.36-7.48.36 5.92.36-10.33.36 11.73.37-1.01.36.01.36 8.66.36-29.29.36 26.16.37-11.19.36.91.36 12.7.36-26.71.36 14.37.37-15.73.36 23.29.36-30.81.36 25.48.37-7.93.36 6.94.36-23.08.36 21.92.36 4.73.37-5.69.36 7.55.36-17.83.36 1.39.36 3.86.37 6.73.36-15.62.36 12.24.36 7.27.36 2.98.37-18.64.36 14.75.36 6.36.36-16.99.37 12.62.36-16.21.36 10.32.36-10.17.36 3.78.37-10.07.36 11.76.36 3.89.36-2.87.36-15.15.37 15.8.36 16.51.36-13.6.36 11.24.36 3.84.37-30.85.36 26.19.36-16.19.36 5.53.37 11.41.36-15.51.36 14.45.36-6 .36-9.92.37 14.21.36-18.67.36 16.86.36-7.77.36-7.23.37 8.15.36-15.27.36 10.55.36-7.38.36 21.07.37-26.87.36 15.11.36-13.14.36 27.39.36-26.25.37 27.34.36-17.96.36 1.93.36-12.88.37 15.04.36-8.98.36.67.36 31.76.36-16.93.37.81.36 4.64.36 8.41.36-16.84.36 10 .37 3.9.36-28.53.36 21.74.36-15.62.36 11.48.37 4.3.36-14.47.36 15.67.36-4.61.37-10.34.36 14.28.36 7.95.36-22.72.36 16.61.37-2.47.36-15.43.36 10.93.36-.38.36-9.75.37 15.2.36-3.91.36-5.27.36 10.47.36-25.56.37 22.61.36-7.38.36.5.36 4.38.36-21.38.37 5.35.36 6.35.36-13.78.36 21.19.37-4.51.36-8.5.36 8.39.36-13.89.36 22.39.37-13.53.36 11.97.36-15.6.36 3.65.36-5.72.37 14.64.36-24.79.36 32.81.36-6.54.36-7.59.37 12.82.36-19.99.36 18.87.36-11.24.37-1.72.36 13.2.36-29.64.36 20.02.36-15.27.37 19.65.36-22.42.36 23 .36-13.89.36 6.91.37-20.6.36 43.66.36-11.89.36-2.52.36.11.37 4.85.36-25.99.36 20.84.36-4.99.36 1.84.37 13.79.36-22.5.36 9.59.36-5.58.37 7.58.36-.54.36-13.93.36 14.56.36-14.35.37 4.19.36-11.67.36 15.26.36-10.66.36 11.72.37-6.75.36-.65.36-3.53.36 13.63.36 8.08.37-25.27.36 18.78.36-13.06.36 7.99.37-19.12.36 21.26.36-13.31.36 22.29.36 1.01.37-22.27.36 14.88.36-.17.36-2.14.36 6.21.37-18.35.36 13.88.36-19.64.36 15.6.36-14.3.37.69.36 14.75.36 8.54.36-30.47.37 21.19.36-3.75.36 10.22.36-14.75.36 14.42.37-13.14.36 1.17.36-9.78.36 17.43.36-15.1.37 15.06.36 4.58.36-20.82.36 4.69.36 5.9.37-3.13.36 2.63.36-4.96.36 2.26.36-19.64.37 10.26.36 8.53.36-20.36.36 25.82.37-14.71.36 9.65.36-13.97.36 2.94.36 20.5.37-22.68.36 20.97.36-17.88.36 9.75.36-13.91.37 3.53.36 11.67.36-11.67.36 23.74.36-14.01.37 9.52.36-20.57.36 22.74.36-19.02.37 20.78.36-25.5.36 4.89.36 4.81.36-12.72.37 5.67.36 11.4.36-10.05.36 7.18.36-12.66.37 17.92.36-1.88.36 9.99.36-6.28.36 8.23.37-21.8.36 10.9.36.31.36-1.73.36-4.68.37 16.61.36-12.96.36 2.9.36-10.9.37 19.49.36-15.32.36 7.17.36-16.16.36 15.53.37-15.47.36.13.36 9.27.36-10.52.36 24.39.37-28.79.36 6.66.36 7.51.36-5.01.36 15.15.37-13.61.36 18.17.36-30.13.36 10.18.37 5.69.36-16.55.36 18.44.36 15.77.36 2.09.37-20.42.36 17.08.36 3.26.36-13.06.36 10.77.37-16.42.36 11 .36-10.47.36 4.83.36-10.55.37 8.32.36 5.56.36-.86.36-15.76.36 18.46.37 2.13.36-6.79.36 16.71.36-27.89.37 17.37.36-11.9.36 10.5.36-19.86.36 17.08.37-.79.36 8.95.36-26.19.36 20.92.36-8.75.37 8.49.36-18.09.36 17.27.36-16.82.36-4.35.37 10.14.36-.36.36-.65.36-3.52.37 3.18.36.92.36-16.05.36 23.92.36-12.77.37 21.43.36-27.83.36 7.99.36 1.24.36-14.12.37 21.64.36-12.37.36 12.8.36 6.66.36-10.43.37 5.34.36-5.1.36 6.46.36-7.09.37 6.12.36-17.55.36 14.37.36-13.53.36 3.23.37 5.93.36-1.65.36 9.78.36-24.58.36 11.09.37 11.68.36 23.31.36-26.63.36 24.83.36-5.56.37-17.28.36 12.41.36-3.86.36-9.29.36 16.25.37-3.81.36-3.09.36 8.99.36-24.86.37 21.98.36-9.05.36.54.36 6.47.36-22.61.37 6.93.36 6.72.36-8.31"/><use xlink:href="#167db__b" color="#FFAB00" transform="matrix(3.75 0 0 3.75 182.98 116.42)"/><use xlink:href="#167db__b" color="#FFAB00" transform="matrix(3.75 0 0 3.75 220.55 22.51)"/></g><path fill="none" d="M28 45.01V162.5M371.99 45.01H28" color="#000"/></svg>