<svg xmlns="http://www.w3.org/2000/svg" xmlns:xlink="http://www.w3.org/1999/xlink" viewBox="0 0 400 200"><path fill="none" d="M0 0h400v200H0z"/><defs><use xlink:href="#76cf5__a" id="76cf5__e" fill="currentColor" stroke="none"/><use xlink:href="#76cf5__b" id="76cf5__c" fill="currentColor" stroke="none"/><use xlink:href="#76cf5__b" id="76cf5__d" stroke="currentColor" transform="rotate(180)"/><circle id="76cf5__a" cx="0" cy="0" r="1" stroke="currentColor" stroke-width=".267"/><path id="76cf5__b" stroke="currentColor" stroke-width=".267" d="m0-1.33-1.33 2h2.66z"/></defs><path fill="none" stroke="#CCC" stroke-linecap="round" stroke-linejoin="round" stroke-width=".1" d="M46.1 162.5V45.01" class="76cf5__gridline" color="#000"/><g fill="none" stroke-linecap="round" stroke-linejoin="round" stroke-width="0" color="#000"><path d="M46.1 162.5V155m0-109.99v7.5"/><text fill="#000" font-family="KaTeX_Main" font-size="8" text-anchor="middle" transform="translate(46.1 172.6)"><tspan> 1</tspan></text></g><path fill="none" stroke="#CCC" stroke-linecap="round" stroke-linejoin="round" stroke-width=".1" d="M82.31 162.5V45.01" class="76cf5__gridline" color="#000"/><g fill="none" stroke-linecap="round" stroke-linejoin="round" stroke-width="0" color="#000"><path d="M82.31 162.5V155m0-109.99v7.5"/><text fill="#000" font-family="KaTeX_Main" font-size="8" text-anchor="middle" transform="translate(82.31 172.6)"><tspan> 2</tspan></text></g><path fill="none" stroke="#CCC" stroke-linecap="round" stroke-linejoin="round" stroke-width=".1" d="M118.52 162.5V45.01" class="76cf5__gridline" color="#000"/><g fill="none" stroke-linecap="round" stroke-linejoin="round" stroke-width="0" color="#000"><path d="M118.52 162.5V155m0-109.99v7.5"/><text fill="#000" font-family="KaTeX_Main" font-size="8" text-anchor="middle" transform="translate(118.52 172.6)"><tspan> 3</tspan></text></g><path fill="none" stroke="#CCC" stroke-linecap="round" stroke-linejoin="round" stroke-width=".1" d="M154.73 162.5V45.01" class="76cf5__gridline" color="#000"/><g fill="none" stroke-linecap="round" stroke-linejoin="round" stroke-width="0" color="#000"><path d="M154.73 162.5V155m0-109.99v7.5"/><text fill="#000" font-family="KaTeX_Main" font-size="8" text-anchor="middle" transform="translate(154.73 172.6)"><tspan> 4</tspan></text></g><path fill="none" stroke="#CCC" stroke-linecap="round" stroke-linejoin="round" stroke-width=".1" d="M190.94 162.5V45.01" class="76cf5__gridline" color="#000"/><g fill="none" stroke-linecap="round" stroke-linejoin="round" stroke-width="0" color="#000"><path d="M190.94 162.5V155m0-109.99v7.5"/><text fill="#000" font-family="KaTeX_Main" font-size="8" text-anchor="middle" transform="translate(190.94 172.6)"><tspan> 5</tspan></text></g><path fill="none" stroke="#CCC" stroke-linecap="round" stroke-linejoin="round" stroke-width=".1" d="M227.15 162.5V45.01" class="76cf5__gridline" color="#000"/><g fill="none" stroke-linecap="round" stroke-linejoin="round" stroke-width="0" color="#000"><path d="M227.15 162.5V155m0-109.99v7.5"/><text fill="#000" font-family="KaTeX_Main" font-size="8" text-anchor="middle" transform="translate(227.15 172.6)"><tspan> 6</tspan></text></g><path fill="none" stroke="#CCC" stroke-linecap="round" stroke-linejoin="round" stroke-width=".1" d="M263.36 162.5V45.01" class="76cf5__gridline" color="#000"/><g fill="none" stroke-linecap="round" stroke-linejoin="round" stroke-width="0" color="#000"><path d="M263.36 162.5V155m0-109.99v7.5"/><text fill="#000" font-family="KaTeX_Main" font-size="8" text-anchor="middle" transform="translate(263.36 172.6)"><tspan> 7</tspan></text></g><path fill="none" stroke="#CCC" stroke-linecap="round" stroke-linejoin="round" stroke-width=".1" d="M299.57 162.5V45.01" class="76cf5__gridline" color="#000"/><g fill="none" stroke-linecap="round" stroke-linejoin="round" stroke-width="0" color="#000"><path d="M299.57 162.5V155m0-109.99v7.5"/><text fill="#000" font-family="KaTeX_Main" font-size="8" text-anchor="middle" transform="translate(299.57 172.6)"><tspan> 8</tspan></text></g><path fill="none" stroke="#CCC" stroke-linecap="round" stroke-linejoin="round" stroke-width=".1" d="M335.78 162.5V45.01" class="76cf5__gridline" color="#000"/><g fill="none" stroke-linecap="round" stroke-linejoin="round" stroke-width="0" color="#000"><path d="M335.78 162.5V155m0-109.99v7.5"/><text fill="#000" font-family="KaTeX_Main" font-size="8" text-anchor="middle" transform="translate(335.78 172.6)"><tspan> 9</tspan></text></g><path fill="none" stroke="#CCC" stroke-linecap="round" stroke-linejoin="round" stroke-width=".1" d="M371.99 162.5V45.01" class="76cf5__gridline" color="#000"/><g fill="none" stroke-linecap="round" stroke-linejoin="round" stroke-width="0" color="#000"><path d="M371.99 162.5V155m0-109.99v7.5"/><text fill="#000" font-family="KaTeX_Main" font-size="8" text-anchor="middle" transform="translate(371.99 172.6)"><tspan> 10</tspan></text></g><g fill="none" stroke-linecap="round" stroke-linejoin="round" stroke-width="0" color="#000"><path d="M371.99 162.5h-7.5"/><text fill="#000" font-family="KaTeX_Main" font-size="8" transform="translate(378.99 165.1)"><tspan>0</tspan></text></g><g fill="none" stroke-linecap="round" stroke-linejoin="round" stroke-width="0" color="#000"><path d="M371.99 45.01h-7.5"/><text fill="#000" font-family="KaTeX_Main" font-size="8" transform="translate(378.99 47.61)"><tspan>1</tspan></text></g><path fill="none" d="M28 45.01V162.5M371.99 45.01H28" color="#000"/><text stroke-linecap="round" stroke-linejoin="round" stroke-width="0" color="#000" font-family="KaTeX_Main" font-size="10" text-anchor="middle" transform="rotate(-90 57.63 46.13)"><tspan>log</tspan><tspan dy="3" font-size="8">2</tspan><tspan dy="-3">(</tspan><tspan font-weight="bold">Maximum Path Length </tspan><tspan> / log</tspan><tspan dy="3" font-size="8">2</tspan><tspan dy="-3">(Size))</tspan></text><text stroke-linecap="round" stroke-linejoin="round" stroke-width="0" color="#000" font-family="KaTeX_Main" font-size="10" text-anchor="middle" transform="translate(199.99 195.75)"><tspan>Operations / 10</tspan><tspan dy="-5" font-size="8">6</tspan></text><text stroke-linecap="round" stroke-linejoin="round" stroke-width=".5" color="#000" font-family="KaTeX_Main" font-size="8" transform="translate(76.8 10.11)"><tspan>AVLBottomUp</tspan></text><g fill="none" stroke="currentColor" stroke-linecap="round" stroke-linejoin="round" stroke-width=".5" color="#000"><path stroke="#000" d="M41.3 7.51h29.9M28 137.04l.36.25.36.25.37.25.36.24.36.24.36.23.36.22.37.23.36.21.36.22.36.21.37.2.36.21.36.2.36.19.36.2.37.19.36.19.36.18.36-7.35.36.17.37.18.36.17.36.17.36.17.36.17.37.16.36.16.36.16.36.16.36.15.37.16.36.15.36.15.36.14.37.15.36.14.36.14.36.14.36.14.37.14.36.13.36.14.36.13.36.13.37.13.36.12.36.13.36.13.36.12h226.31l.37-7.21h.36l.36 7.21h98.49"/><use xlink:href="#76cf5__c" transform="matrix(3.75 0 0 3.75 354.25 138.23)"/><use xlink:href="#76cf5__c" transform="matrix(3.75 0 0 3.75 56.25 7.51)"/></g><text stroke-linecap="round" stroke-linejoin="round" color="#000" font-family="KaTeX_Main" font-size="8" transform="translate(76.8 25.11)"><tspan>AVLWeakTopDown</tspan></text><g fill="none" stroke="currentColor" stroke-linecap="round" stroke-linejoin="round" color="#000"><path stroke="#FFAB00" stroke-dasharray="4.5,2.0,0.5,2.0,0.5,2.0" d="M41.3 22.51h29.9M28 129.5l.36.26.36.25.37-6.97.36-6.68.36 7.16.36-6.69.36-6.42.37-6.18.36 13.26.36 7.14.36-13.36.37 13.78.36 7.41.36-7.01.36.2.36-6.73.37.19.36-6.46.36 6.83.36.18.36.18.37-6.47.36 6.82.36-12.87.36.16.36 6.57.37 13.73.36.16.36.16.36-13.41.36.15.37 13.72.36.15.36-13.42.36.15.37.15.36-6.26.36 20.11.36-13.43.36 13.71.37.13.36-6.78.36 7.05.36-13.43.36.13.37.13.36 6.77.36.13.36.12.36.13.37-6.65h.72l.36-6.4.37 6.4h.72l.36 6.65h.73l.36-6.65.36 6.65h.36l.36-6.65h3.26l.37 6.65.36-13.05h.36l.36 6.4h1.09l.36-6.4.36 6.4.36 6.65.37-6.65.36 6.65.36-6.65h2.53l.37-6.4.36 6.4h1.09l.36 6.65.36-6.65.36 6.65h1.09l.36-13.05h.36l.36 6.4.37 6.65h.36l.36-6.65h1.81l.36 6.65h.37l.36-6.65.36 6.65.36-6.65h1.45l.36 13.57.36-13.57h.37l.36-6.4.36 6.4h.36l.36 6.65h.73l.36-6.65h.72l.37-6.4.36 6.4h1.45l.36 6.65.36-6.65h.73l.36 6.65h.36l.36-6.65.36-6.4.37 6.4h.36l.36 6.65.36-6.65h.36l.37 6.65.36-6.65.36 6.65h.36l.37-6.65.36 6.65h.72l.36-6.65h.73l.36 6.65h.36l.36-6.65h.37l.36 6.65.36-6.65h1.45l.36 6.65.36-6.65.36 6.65h1.09l.36-6.65h2.18l.36 6.65h.36l.36-6.65h2.54l.36 6.65.36-6.65.36-6.4.37 6.4.36 6.65h2.53l.36-6.65.37 6.65.36-6.65h.36l.36 6.65h.36l.37-6.65h1.45l.36-6.4.36 13.05.36-6.65.36 6.65.37-6.65.36 6.65h.36l.36-6.65h.36l.37 6.65.36-6.65h1.08l.37 6.65h.36l.36-6.65h1.09l.36-6.4.36 6.4h2.9l.36 6.65.36-6.65h1.09l.36 6.65h.72l.37-6.65.36 6.65h3.26l.36-6.65.36 6.65.36-6.65h1.45l.36-6.4.37 6.4h1.08l.36 6.65h.37l.36-6.65h.36l.36-6.4.37 6.4.36-6.4.36 13.05h.36l.36-6.65h1.81l.37 6.65.36-6.65h.36l.36 6.65.36-6.65h.73l.36 6.65.36-6.65.37 6.65h.36l.36-6.65.36 6.65.36-6.65h.73l.36 6.65h1.09l.36-6.65h2.89l.37 6.65h2.17l.36-6.65h2.9l.36-6.4.36 6.4h3.62l.37-6.4.36 13.05h1.08l.37-13.05.36 6.4.36 6.65h.36l.36-6.65h.37l.36 6.65.36-6.65h.36l.37 6.65.36-6.65h.72l.36 6.65h.37l.36-6.65h.72l.36 6.65.37-13.05.36 6.4h9.05l.36 6.65.36-6.65.37 6.65.36-6.65h.72l.37 6.65.36-6.65h.36l.36 6.65.36-6.65.37 6.65.36-6.65h.36l.36-6.4h.73l.36 6.4h1.08l.37-6.4.36 13.05h1.81l.36-6.65h1.45l.36 6.65h.73l.36-6.65h3.26l.36 6.65h.72l.37-6.65h1.44l.37 6.65.36-6.65.36 6.65.36-6.65.36 6.65.37-6.65.36 6.65h.36l.36-6.65.36 6.65h1.09l.36-6.65h.37l.36-6.4.36 6.4h1.09l.36 6.65h1.08l.37-6.65.36 6.65.36-6.65h1.45l.36 6.65.36-6.65h1.45l.36-6.4.37 6.4h3.25l.37 6.65h.36l.36-6.65h1.81l.36 6.65.37-6.65h1.44l.37-6.4.36 19.97.36-13.57.36 6.65h1.45l.36-6.65h.36l.37 6.65.36-6.65.36 6.65.36-6.65h1.09l.36 6.65.36-6.65h.73l.36 6.65h.36l.36-6.65.37 6.65h.72l.36-6.65.36-6.4.37 6.4h2.53l.36 6.65h.73l.36-6.65h2.17l.36 6.65.37-6.65.36-6.4.36 6.4h1.09l.36-6.4.36 6.4.36 6.65.36-6.65H242l.36 6.65h.72l.37-6.65h.72l.36 6.65h1.09l.36-6.65h2.54l.36 6.65h.72l.36-6.65.37 6.65h.72l.36-6.65h.73l.36 6.65.36-13.05h.73l.36 13.05.36-6.65h.72l.37 6.65h1.08l.36-6.65h1.45l.36 6.65h.73l.36-6.65.36 6.65.36-6.65h2.18l.36-6.4.36 6.4h.36l.37-6.4.36 6.4.36 6.65.36-6.65h3.26l.36 6.65h1.45l.36-6.65.37-6.4.36 6.4h2.89l.37 6.65.36-13.05h.36l.36 6.4.36-6.4.37 6.4h.36l.36-6.4.36 6.4h3.26l.36 6.65h.37l.36-6.65h1.45l.36 6.65h.36l.36-13.05.37 13.05h.72l.36-6.65.36 6.65.37-13.05h.72l.36 13.05.36-6.65.37 6.65h2.89l.36-6.65h1.09l.36 6.65.37-6.65.36 6.65.36-6.65h.36l.36 6.65.37-6.65.36 6.65.36-6.65.36 6.65h.36l.37-6.65h1.08l.36 6.65h.73l.36-6.65.36 6.65.37-6.65h1.08l.36 6.65.37-6.65h.72l.36-6.4h.36l.37 13.05.36-6.65.36 6.65.36-6.65h.73l.36 6.65h.36l.36-6.65.37 6.65.36-6.65h1.45l.36-6.4.36 6.4.36-6.4.36 6.4.37-6.4.36 6.4.36-6.4.36 6.4h.36l.37 6.65h.36l.36-6.65.36 6.65h.36l.37-6.65h.36l.36 6.65h1.09l.36-6.65.36 6.65.36-6.65h3.99l.36 6.65.36-6.65.36 6.65.37-6.65h.36l.36-6.4h.36l.36 6.4.37 6.65.36-6.65h6.88l.36-6.4.36 13.05.36-6.65h.73l.36 6.65h1.45l.36-6.65h1.09l.36 6.65h1.45l.36-6.65.36-6.4.36 6.4.37 6.65.36-6.65h3.98l.36-6.4.36 6.4h1.82l.36 6.65.36-6.65.36 6.65.36-6.65h2.18l.36 6.65h.36l.36-6.65h.36l.37-6.4.36 6.4h1.81l.36 6.65h.73l.36-6.65h1.08l.37-6.4.36 6.4h3.62l.36-6.4.36 13.05.37-6.65h3.98l.36 6.65h2.54l.36-6.65.36-6.4.36 6.4h1.45"/><use xlink:href="#76cf5__d" color="#FFAB00" transform="matrix(3.75 0 0 3.75 67.83 117.45)"/><use xlink:href="#76cf5__d" color="#FFAB00" transform="matrix(3.75 0 0 3.75 56.25 22.51)"/></g><text stroke-linecap="round" stroke-linejoin="round" color="#000" font-family="KaTeX_Main" font-size="8" transform="translate(241.1 10.11)"><tspan>AVLRelaxedBottomUp</tspan></text><g fill="none" stroke="currentColor" stroke-linecap="round" stroke-linejoin="round" color="#000"><path stroke="#D336C8" d="M205.6 7.51h29.9M28 137.04l.36.25.36.25.37.25.36.24.36.24.36.23.36.22.37.23.36.21.36.22.36.21.37.2.36.21.36.2.36.19.36.2.37.19.36.19.36.18.36-7.35.36.17.37.18.36.17.36.17.36.17.36.17.37.16.36.16.36.16.36.16.36.15.37.16.36.15.36.15.36.14.37.15.36.14.36.14.36.14.36.14.37.14.36.13.36.14.36.13.36.13.37.13.36.12.36.13.36.13.36.12h56.49l.36-7.21h49.97l.36 7.21h26.44l.36-7.21h17.02l.36 7.21h52.14l.36-7.21h28.25l.36 7.21h13.4l.36-7.21h24.98l.37 7.21h54.31"/><use xlink:href="#76cf5__b" color="#D336C8" transform="matrix(3.75 0 0 3.75 125.4 131.02)"/><use xlink:href="#76cf5__b" color="#D336C8" transform="matrix(3.75 0 0 3.75 220.55 7.51)"/></g><text stroke-linecap="round" stroke-linejoin="round" color="#000" font-family="KaTeX_Main" font-size="8" transform="translate(241.1 25.11)"><tspan>RedBlackRelaxedTopDown</tspan></text><g fill="none" stroke="currentColor" stroke-linecap="round" stroke-linejoin="round" color="#000"><path stroke="violet" stroke-dasharray="4.0,2.0,1.0,2.0" d="M205.6 22.51h29.9M28 102.33l.36 6.65.36-12.31.37 12.8.36-6.15.36 13.28.36.23.36-12.82.37.22.36-5.94.36 19.42.36.21.37-19 .36.2.36 12.76.36 13.77.36-31.89.37 12.31.36.18.36 6.58.36-12.38.36-5.77.37 18.69.36-12.39.36-11.52.36 18.02.36 13.22.37-6.49.36-6.24.36-11.95.36 12.27.36-6.01.37-5.79.36.15.36.14.36 25.31.37-6.5.36.14.36-6.26.36-6.02.36 26.27.37.13.36-6.78.36-12.91.36 13.18.36-19.08.37 6.29.36-6.04.36.13.36 6.29.36.12h.73l.36-12.11.36 18.51.37-6.4.36-6.16.36-17.26.36 17.26.36-11.7.37 11.7.36-22.64.36 48.77.36-13.57.36-12.56.37-5.95.36 18.51.36-6.4.36 6.4.36-6.4.37 6.4h.36l.36-18.51.36 5.95h.37l.36-5.95h.72l.36 12.11h.73l.36-6.16.36 6.16.36-6.16.37-5.95.36-5.75.36 11.7.36-5.95.36-5.75.37 17.86.36 6.4.36-12.56.36 6.16.36-6.16.37 26.13.36-6.92h.36l.36-13.05.37 13.05.36-19.21.36 6.16h.72l.37 6.4.36-6.4h.72l.36-23.42.37 17.26.36-11.7.36 17.86h.72l.37-6.16.36-5.95.36-5.75.36-5.56h.37l.36 23.42.36-6.16.36-5.95.36-11.31.37 11.31.36-11.31.36 11.31.36-11.31.36 29.82h.37l.36-6.4h.72l.36-12.11.37-11.31.36 11.31.36 5.95h.36l.36-11.7.37-10.94.36 5.38h.36l.36 5.56.37-10.94.36 35.2.36 6.65.36-6.65.36 13.57.37-6.92h.36l.36-6.65.36 13.57.36-13.57h.37l.36-6.4.36-12.11.36 12.11.36-6.16h.37l.36 19.21h.36l.36 6.92.37-19.97.36 13.05.36-13.05.36 6.4.36-12.56.37 19.21.36-19.21.36 6.16.36-12.11.36 5.95h.37l.36 6.16.36-6.16.36 6.16.36-6.16.37 19.21.36-13.05h.72l.36-12.11.37 5.95.36 12.56.36-18.51h.36l.37-11.31.36 23.42.36-12.11h.36l.36-11.31.37 36.47.36-13.05.36 13.05.36-13.05.36 6.4.37-12.56.36 6.16h.36l.36 6.4.36-6.4h.37l.36-6.16.36 6.16.36-17.86.37 5.75.36-11.31.36 11.31.36 32.08.36-6.92.37-6.65.36 6.65.36-6.65.36 6.65.36-13.05.37 19.97.36-13.57h.36l.36-6.4h.36l.37-12.11.36 12.11.36-12.11.36 18.51h1.09l.36 6.65.36-6.65.37-6.4.36-6.16.36 19.21.36-13.05.36-6.16.37 6.16h.36l.36-12.11.36 12.11.36-17.86.37 24.26.36-12.56.36-5.95.36 5.95.36 6.16.37-12.11h.36l.36 5.95.36 6.16.37-6.16.36-5.95.36-11.31.36 23.42.36-12.11.37-5.75.36 5.75.36 25.16.36-6.65.36 6.65.37-13.05h.36l.36-6.16.36 6.16.36-17.86.37 17.86.36-12.11.36 12.11.36-17.86.37 17.86.36-6.16.36 6.16.36-12.11.36 25.16.37-13.05.36-12.11.36 5.95.36 6.16.36-12.11.37-5.75.36 11.7.36 6.16.36-12.11h.36l.37-5.75h.72l.36-5.56.36-5.38.37 22.64.36-11.7.36 37.83h.36l.37-37.83.36 30.91.36-6.65.36 13.57.36-32.08.37 25.16.36-6.65.36 6.65.36-6.65.36-6.4h.37l.36-34.01.36 21.9h.36l.36-5.75h.37l.36 5.75.36-11.31h.73l.36 5.56.36-10.94.36 22.64.36 12.56.37-29.82.36 17.26.36-11.7.36 52.57.36-14.74h.37l.36-6.92.36 6.92.36-6.92h.36l.37-6.65.36 13.57.36-6.92h.36l.36-13.05.37 6.4.36-6.4h.36l.36-12.11.37 32.08.36-13.57.36-6.4.36 6.4.36 6.65.37-19.21.36 6.16.36 6.4h.72l.37-6.4h.72l.36-6.16.36-5.95h.37l.36 25.16.36-6.65h.36l.37-12.56.36 12.56.36-12.56.36 6.16.36-6.16.37 12.56.36-12.56h.36l.36-11.7.36 17.86.37-12.11.36-5.75.36-5.56.36 36.47.36-6.65h.37l.36-18.51.36 18.51.36-12.56h.73l.36 6.16.36-6.16.36-5.95h.37l.36 18.51.36-24.26.36-5.56.36 11.31.37 12.11.36 6.4.36-6.4h.72l.37-6.16.36 6.16.36-17.86.36 17.86.36-17.86.37 24.26.36-18.51h.36l.36 12.11.37-6.16.36-5.95.36 12.11.36-6.16h.36l.37 6.16.36-6.16.36-11.7.36 17.86.36-12.11h.37l.36 5.95h.36l.36-5.95h.36l.37-5.75.36 5.75.36-5.75.36 11.7.37 6.16.36-6.16.36-11.7.36 11.7.36-5.95h.37l.36-16.69.36 41.85h.36l.36-30.91.37-5.56.36 5.56.36 24.26h.36l.36 13.57.37-13.57.36 6.65.36-6.65.36-6.4.36-6.16h1.45l.37 6.16.36-17.86.36 11.7.36-11.7.36 11.7.37-11.7.36 45.04.36-7.21.36-6.92.36 6.92h1.09l.36-6.92.36-6.65h.37l.36 6.65h.36l.36-6.65.37-6.4h.36l.36-6.16.36 12.56.36 6.65.37-6.65.36-18.51.36 18.51.36-18.51.36 18.51.37-6.4h.36l.36 6.4h.36l.36-18.51.37 18.51.36-18.51.36 5.95.36-5.95.37 18.51.36-6.4.36 6.4h.36l.36-6.4h.37l.36-6.16h.36l.36 6.16h.36l.37-6.16.36-17.26.36 17.26.36-11.7.36 17.86.37-6.16.36 6.16.36-6.16h.72l.37 6.16h.36l.36-6.16.36-5.95.37 5.95.36-11.7.36 11.7.36-5.95h.36l.37-11.31h.36l.36 11.31.36 18.51.36-6.4h1.09l.36-12.11.36 5.95.37-11.7.36 24.26.36-12.56.36-5.95.37-5.75.36 5.75.36 5.95.36-5.95.36-11.31.37 29.82.36-6.4.36-17.86.36 5.75.36 5.95.37-5.95.36-11.31.36 23.42.36 13.05.36-6.65.37 6.65.36-6.65.36-6.4.36 6.4.36-12.56.37 19.21.36-6.65.36 6.65.36-6.65.37 6.65.36-13.05.36 6.4.36-18.51.36 18.51.37-6.4.36 6.4.36-18.51.36 5.95h.73l.36-17.26.36 17.26.36-5.95.36 5.95.37-11.7.36 11.7.36 6.16.36-6.16.37-5.95.36 12.11.36-12.11.36 5.95.36-5.95h1.09l.36-5.75.36 37.83.37-13.57h.36l.36-6.4.36 27.18.36-7.21.37-19.97.36-17.86.36 17.86.36 6.4.36-12.56h.73l.36 19.21.36-30.91.37 24.26.36 6.65.36-13.05.36 13.05.36-19.21.37 19.21.36-19.21h.36l.36-5.95.36 25.16.37-13.05h.36l.36-23.42.36 29.82.36-18.51h.73l.36 18.51.36-18.51.37 5.95.36 6.16h.36l.36-6.16.36 6.16.37-12.11.36 12.11h.36l.36-6.16.36-11.7.37 5.75.36-11.31.36 5.56.36-10.94.36 35.2.37-24.26.36 5.75.36-11.31.36 5.56.37 11.7.36-5.95.36-5.75.36 5.75h.36l.37-5.75.36-5.56.36-5.38.36 16.69h.36l.37-11.31.36 36.47.36-13.05.36 6.4.36-12.56.37 19.21.36-19.21.36 6.16.36-17.86.36 17.86.37-12.11.36-5.75.36 11.7h.36l.37 6.16h.36l.36-17.86.36 24.26.36-6.4.37 6.4.36-6.4h.72l.36-6.16.37-5.95h.72l.36 5.95.36-11.7h.37l.36-5.56h.36l.36 50.6.37-7.21.36-19.97h.36l.36 6.4.36-6.4.37-6.16h.36l.36 12.56.36-6.4.36 13.05.37-6.65.36-12.56.36 12.56.36-12.56.36-5.95.37 25.16h.36l.36-19.21.36-11.7.36 30.91.37-6.65.36-6.4.36-12.11.36 5.95.37-5.95.36-5.75.36-10.94.36 28.8h.36l.37-6.16.36-11.7.36 37.83.36-13.57.36 6.65h.73l.36-13.05.36-6.16.36 6.16.37 13.05.36-13.05.36 6.4.36-6.4.37 13.05.36-19.21.36 12.56.36-24.26.36 30.91.37-6.65h.36l.36-6.4.36 6.4.36-12.56.37 6.16.36-6.16.36 6.16.36-6.16.36 6.16.37-17.86.36 5.75h.36l.36-5.75.36 17.86.37 19.97.36-13.57.36 6.65.36-6.65.37 6.65.36-13.05h.36l.36-12.11.36 12.11.37-6.16.36 12.56.36-24.26.36 24.26.36-12.56h.37l.36-5.95.36 18.51.36-6.4h.36l.37-12.11.36 12.11.36-6.16.36-11.7h.37l.36 11.7.36-5.95.36 5.95.36-22.64.37 10.94.36-16.15.36 21.9.36-11.31.36 23.42.37 6.4.36-6.4h.36l.36-6.16.36-11.7.37 17.86.36-12.11.36 12.11.36-17.86.37 11.7.36-11.7h.36l.36 30.91.36-25.16.37-5.75.36 11.7.36-5.95.36 25.16.36-13.05.37 6.4h.36l.36-6.4.36 13.05h.73l.36-13.05.36 13.05.36-13.05.36 6.4.37-6.4.36 19.97.36-6.92.36 6.92.37-19.97.36 13.05.36-6.65.36-6.4h.36l.37 6.4.36 6.65.36-19.21.36 6.16.36 6.4h.73l.36-24.26.36 11.7.36 19.21.37-19.21.36 6.16.36 13.05.36-6.65h.37l.36-12.56.36 19.21.36-19.21h.36l.37-11.7.36 17.86.36-12.11.36-5.75.36-5.56.37 50.6.36-20.78.36 20.78.36-20.78.36 20.78.37-7.21.36-6.92.36-6.65.36 6.65h.36l.37-6.65.36-12.56h.36l.36 6.16h.37l.36-6.16.36 12.56.36-18.51.36 18.51.37-6.4h.36l.36-6.16h1.09l.36 6.16h.36l.36-6.16.36 6.16.37-12.11.36-5.75.36-5.56.36 23.42h.37l.36 6.4.36-18.51.36 12.11.36-6.16.37-5.95.36-11.31.36 43.39.36-19.97.36-6.16.37-5.95.36 18.51.36-12.56.36-5.95h.36l.37 18.51.36-6.4.36-6.16h.36l.36 6.16.37-6.16.36 6.16.36-17.86.36 11.7.37-11.7.36 5.75.36-11.31.36 17.26.36-11.7.37-10.94h.36l.36 22.64.36 6.16.36-6.16.37 6.16.36 6.4.36-6.4.36-12.11.36 5.95.37 6.16.36-6.16.36-5.95h.36l.37 5.95.36 6.16.36-12.11.36-11.31.36 29.82.37-6.4.36 6.4.36-12.56.36 6.16.36-6.16h.73l.36-5.95.36 5.95.36-5.95.37-16.69.36 22.64.36-11.7h.36l.37-10.94.36 16.69h.72l.36 32.08.37-6.92.36-13.05.36 6.4h.36l.36 6.65.37-6.65.36-6.4.36 6.4.36-12.56.36-5.95.37 12.11.36 19.97.36-13.57.36-6.4.36-17.86.37 17.86.36-6.16.36-5.95.36 5.95.37 6.16h.36l.36-12.11.36-5.75.36 17.86.37-6.16.36-5.95h.36"/><use xlink:href="#76cf5__e" color="violet" transform="matrix(3.75 0 0 3.75 182.98 117.45)"/><use xlink:href="#76cf5__e" color="violet" transform="matrix(3.75 0 0 3.75 220.55 22.51)"/></g><path fill="none" d="M28 45.01V162.5M371.99 45.01H28" color="#000"/></svg>