<svg xmlns="http://www.w3.org/2000/svg" xmlns:xlink="http://www.w3.org/1999/xlink" viewBox="0 0 400 200"><path fill="none" d="M0 0h400v200H0z"/><defs><use xlink:href="#11bc8__a" id="11bc8__e" fill="currentColor" stroke="none"/><use xlink:href="#11bc8__b" id="11bc8__c" fill="currentColor" stroke="none"/><use xlink:href="#11bc8__b" id="11bc8__d" stroke="currentColor" transform="rotate(180)"/><circle id="11bc8__a" cx="0" cy="0" r="1" stroke="currentColor" stroke-width=".267"/><path id="11bc8__b" stroke="currentColor" stroke-width=".267" d="m0-1.33-1.33 2h2.66z"/></defs><path fill="none" stroke="#CCC" stroke-linecap="round" stroke-linejoin="round" stroke-width=".1" d="M46.1 162.5V45.01" class="11bc8__gridline" color="#000"/><g fill="none" stroke-linecap="round" stroke-linejoin="round" stroke-width="0" color="#000"><path d="M46.1 162.5V155m0-109.99v7.5"/><text fill="#000" font-family="KaTeX_Main" font-size="8" text-anchor="middle" transform="translate(46.1 172.6)"><tspan> 1</tspan></text></g><path fill="none" stroke="#CCC" stroke-linecap="round" stroke-linejoin="round" stroke-width=".1" d="M82.31 162.5V45.01" class="11bc8__gridline" color="#000"/><g fill="none" stroke-linecap="round" stroke-linejoin="round" stroke-width="0" color="#000"><path d="M82.31 162.5V155m0-109.99v7.5"/><text fill="#000" font-family="KaTeX_Main" font-size="8" text-anchor="middle" transform="translate(82.31 172.6)"><tspan> 2</tspan></text></g><path fill="none" stroke="#CCC" stroke-linecap="round" stroke-linejoin="round" stroke-width=".1" d="M118.52 162.5V45.01" class="11bc8__gridline" color="#000"/><g fill="none" stroke-linecap="round" stroke-linejoin="round" stroke-width="0" color="#000"><path d="M118.52 162.5V155m0-109.99v7.5"/><text fill="#000" font-family="KaTeX_Main" font-size="8" text-anchor="middle" transform="translate(118.52 172.6)"><tspan> 3</tspan></text></g><path fill="none" stroke="#CCC" stroke-linecap="round" stroke-linejoin="round" stroke-width=".1" d="M154.73 162.5V45.01" class="11bc8__gridline" color="#000"/><g fill="none" stroke-linecap="round" stroke-linejoin="round" stroke-width="0" color="#000"><path d="M154.73 162.5V155m0-109.99v7.5"/><text fill="#000" font-family="KaTeX_Main" font-size="8" text-anchor="middle" transform="translate(154.73 172.6)"><tspan> 4</tspan></text></g><path fill="none" stroke="#CCC" stroke-linecap="round" stroke-linejoin="round" stroke-width=".1" d="M190.94 162.5V45.01" class="11bc8__gridline" color="#000"/><g fill="none" stroke-linecap="round" stroke-linejoin="round" stroke-width="0" color="#000"><path d="M190.94 162.5V155m0-109.99v7.5"/><text fill="#000" font-family="KaTeX_Main" font-size="8" text-anchor="middle" transform="translate(190.94 172.6)"><tspan> 5</tspan></text></g><path fill="none" stroke="#CCC" stroke-linecap="round" stroke-linejoin="round" stroke-width=".1" d="M227.15 162.5V45.01" class="11bc8__gridline" color="#000"/><g fill="none" stroke-linecap="round" stroke-linejoin="round" stroke-width="0" color="#000"><path d="M227.15 162.5V155m0-109.99v7.5"/><text fill="#000" font-family="KaTeX_Main" font-size="8" text-anchor="middle" transform="translate(227.15 172.6)"><tspan> 6</tspan></text></g><path fill="none" stroke="#CCC" stroke-linecap="round" stroke-linejoin="round" stroke-width=".1" d="M263.36 162.5V45.01" class="11bc8__gridline" color="#000"/><g fill="none" stroke-linecap="round" stroke-linejoin="round" stroke-width="0" color="#000"><path d="M263.36 162.5V155m0-109.99v7.5"/><text fill="#000" font-family="KaTeX_Main" font-size="8" text-anchor="middle" transform="translate(263.36 172.6)"><tspan> 7</tspan></text></g><path fill="none" stroke="#CCC" stroke-linecap="round" stroke-linejoin="round" stroke-width=".1" d="M299.57 162.5V45.01" class="11bc8__gridline" color="#000"/><g fill="none" stroke-linecap="round" stroke-linejoin="round" stroke-width="0" color="#000"><path d="M299.57 162.5V155m0-109.99v7.5"/><text fill="#000" font-family="KaTeX_Main" font-size="8" text-anchor="middle" transform="translate(299.57 172.6)"><tspan> 8</tspan></text></g><path fill="none" stroke="#CCC" stroke-linecap="round" stroke-linejoin="round" stroke-width=".1" d="M335.78 162.5V45.01" class="11bc8__gridline" color="#000"/><g fill="none" stroke-linecap="round" stroke-linejoin="round" stroke-width="0" color="#000"><path d="M335.78 162.5V155m0-109.99v7.5"/><text fill="#000" font-family="KaTeX_Main" font-size="8" text-anchor="middle" transform="translate(335.78 172.6)"><tspan> 9</tspan></text></g><path fill="none" stroke="#CCC" stroke-linecap="round" stroke-linejoin="round" stroke-width=".1" d="M371.99 162.5V45.01" class="11bc8__gridline" color="#000"/><g fill="none" stroke-linecap="round" stroke-linejoin="round" stroke-width="0" color="#000"><path d="M371.99 162.5V155m0-109.99v7.5"/><text fill="#000" font-family="KaTeX_Main" font-size="8" text-anchor="middle" transform="translate(371.99 172.6)"><tspan> 10</tspan></text></g><g fill="none" stroke-linecap="round" stroke-linejoin="round" stroke-width="0" color="#000"><path d="M371.99 162.5h-7.5"/><text fill="#000" font-family="KaTeX_Main" font-size="8" transform="translate(378.99 165.1)"><tspan>0.85</tspan></text></g><g fill="none" stroke-linecap="round" stroke-linejoin="round" stroke-width="0" color="#000"><path d="M371.99 147.81h-7.5"/><text fill="#000" font-family="KaTeX_Main" font-size="8" transform="translate(378.99 150.41)"><tspan>0.90</tspan></text></g><g fill="none" stroke-linecap="round" stroke-linejoin="round" stroke-width="0" color="#000"><path d="M371.99 133.13h-7.5"/><text fill="#000" font-family="KaTeX_Main" font-size="8" transform="translate(378.99 135.73)"><tspan>0.95</tspan></text></g><g fill="none" stroke-linecap="round" stroke-linejoin="round" stroke-width="0" color="#000"><path d="M371.99 118.44h-7.5"/><text fill="#000" font-family="KaTeX_Main" font-size="8" transform="translate(378.99 121.04)"><tspan>1.00</tspan></text></g><g fill="none" stroke-linecap="round" stroke-linejoin="round" stroke-width="0" color="#000"><path d="M371.99 103.75h-7.5"/><text fill="#000" font-family="KaTeX_Main" font-size="8" transform="translate(378.99 106.35)"><tspan>1.05</tspan></text></g><g fill="none" stroke-linecap="round" stroke-linejoin="round" stroke-width="0" color="#000"><path d="M371.99 89.07h-7.5"/><text fill="#000" font-family="KaTeX_Main" font-size="8" transform="translate(378.99 91.67)"><tspan>1.10</tspan></text></g><g fill="none" stroke-linecap="round" stroke-linejoin="round" stroke-width="0" color="#000"><path d="M371.99 74.38h-7.5"/><text fill="#000" font-family="KaTeX_Main" font-size="8" transform="translate(378.99 76.98)"><tspan>1.15</tspan></text></g><g fill="none" stroke-linecap="round" stroke-linejoin="round" stroke-width="0" color="#000"><path d="M371.99 59.7h-7.5"/><text fill="#000" font-family="KaTeX_Main" font-size="8" transform="translate(378.99 62.3)"><tspan>1.20</tspan></text></g><g fill="none" stroke-linecap="round" stroke-linejoin="round" stroke-width="0" color="#000"><path d="M371.99 45.01h-7.5"/><text fill="#000" font-family="KaTeX_Main" font-size="8" transform="translate(378.99 47.61)"><tspan>1.25</tspan></text></g><path fill="none" d="M28 45.01V162.5M371.99 45.01H28" color="#000"/><text stroke-linecap="round" stroke-linejoin="round" stroke-width="0" color="#000" font-family="KaTeX_Main" font-size="10" text-anchor="middle" transform="rotate(-90 57.63 46.13)"><tspan font-weight="bold">Allocations </tspan><tspan> / log</tspan><tspan dy="3" font-size="8">2</tspan><tspan dy="-3">(Size)</tspan></text><text stroke-linecap="round" stroke-linejoin="round" stroke-width="0" color="#000" font-family="KaTeX_Main" font-size="10" text-anchor="middle" transform="translate(199.99 195.75)"><tspan>Operations / 10</tspan><tspan dy="-5" font-size="8">6</tspan></text><text stroke-linecap="round" stroke-linejoin="round" stroke-width=".5" color="#000" font-family="KaTeX_Main" font-size="8" transform="translate(76.8 10.11)"><tspan>AVLBottomUp</tspan></text><g fill="none" stroke="currentColor" stroke-linecap="round" stroke-linejoin="round" stroke-width=".5" color="#000"><path stroke="#000" d="M41.3 7.51h29.9M28 58.34l.36-1.75.36-.95.37 1.33.36.91.36-.71.36-.46.36 2.9.37-1.04.36.91.36.42.36-.32.37 7.47.36-1.75.36-1.76.36-1.09.36.18.37 1.51.36-1.64.36 1.02.36 1.05.36-9.32.37-3.51.36-2.13.36 6.9.36 3.27.36-7.81.37 2.43.36-1.33.36.9.36 1.19.36-.65.37 2.19.36-1.67.36-.34.36 1.36.37-1.8.36 2.75.36 2.09.36-1.76.36-.38.37-.46.36 8.3.36 7.78.36.44.36 7.34.37-7.91.36-11.64.36-2.41.36 1.34.36-.5.37 36.99.36 1.72.36-2.06.36 1.92.37 1.26.36 1.54.36 1.97.36-8.23.36 6.92.37-4.65.36-1.32.36-2.73.36-4.04.36 7.98.37 4.46.36-2.75.36.42.36-1.51.36-3.12.37 3.97.36 3.2.36 1.95.36-4.76.37 3.35.36 1.85.36-2.42.36-1.05.36 4.46.37 2.3.36-14.79.36 6.48.36 5.27.36-2.41.37 2.81.36 1.59.36-2.53.36-.75.36-7.59.37 4.89.36 3.66.36-.99.36 4.43.36-2.36.37 1.66.36-4.6.36-2.53.36-1.92.37.71.36 2.3.36 5.73.36.15.36-3.99.37-6.16.36 3.67.36 6.09.36-3.05.36-1.47.37 9.59.36-1.32.36-6.89.36 1.63.36 1.4.37 1.16.36 3.38.36-4.3.36.13.37 4.43.36 2.21.36-4.69.36-1.37.36-.53.37-13.84.36-.23.36 1.78.36 7.16.36-3.95.37.68.36 2.92.36-5.28.36-4.17.36 3.98.37-.77.36-1.94.36-6.35.36 7.31.36.44.37-1.95.36 3.64.36-5.05.36-2.03.37 4.81.36-5.88.36 1.53.36 3.94.36 1.6.37-.65.36.41.36 8.08.36-3.34.36-4.01.37 3.73.36.88.36.12.36 2.11.36-6.18.37 5.36.36 6.33.36-2.85.36-6.91.37 3.82.36 1.38.36-.46.36 4.71.36-2.18.37-3.85.36 7.27.36.22.36-10.19.36-8.23.37 5.46.36.53.36 1.44.36-.34.36-8.95.37 4.84.36 2.55.36-2.54.36 6.72.36-2.66.37 2.73.36.76.36 1.53.36-4.19.37 3.67.36 5.61.36 1.33.36-4.88.36.44.37 1.66.36-6.57.36 2.18.36 7.26.36.58.37.3.36-.67.36-4.3.36-.65.36 3.68.37-2.45.36 6.01.36-3.18.36-10.99.37 1.2.36 2.83.36 3.74.36.12.36-2.72.37-11.78.36 1.88.36 3.91.36-6.75.36.67.37-3.33.36.2.36 6.17.36.05.36 4.45.37-3.2.36 6.06.36-5.84.36-.69.37-3.6.36 4.03.36 7.54.36-.72.36-4.49.37 2.09.36-2.22.36 1.05.36 4.94.36-.82.37.35.36 1.06.36 1.46.36-7.05.36.8.37-2.57.36-.16.36 4.6.36-11.76.36 1.55.37.89.36 1.21.36 4.9.36-3.32.37 4.53.36.02.36-4.05.36 4.25.36 5.89.37 1.92.36 1.49.36-9.9.36.52.36 2.35.37 1.81.36 5.68.36-3.58.36 6.59.36-9.84.37 3.58.36.92.36-.34.36-9.83.37 6 .36.65.36-7.49.36.13.36 4.64.37-5.72.36-4.25.36 4.89.36 6.12.36-3.07.37 1.44.36 3.42.36-3.36.36-3.28.36 7.82.37 3.19.36-3.34.36-.52.36-1.66.36 3.6.37-3.94.36-2.88.36 1.81.36 3.21.37 2.45.36-2.63.36 4.21.36-4.25.36 1.26.37-7.56.36-10.16.36 5.66.36 2.97.36-2.26.37 1.4.36 3.62.36-1.14.36 13.91.36-14.16.37 3.2.36-1.66.36-4.71.36 4.63.37 2.24.36-9.17.36 5.87.36-4.18.36 5.74.37-1.48.36-4.36.36-3.04.36 5.63.36 7.52.37-4.07.36-8.77.36-1.43.36.81.36 12.63.37-6.38.36.67.36-1.3.36-3.44.36 3.58.37 4.24.36 1.21.36-2.06.36 1.96.37-4.83.36-4.83.36-.43.36-.58.36 5.61.37-.44.36-1.2.36 6.71.36-1.8.36 3.72.37.26.36 4.71.36 4.18.36-3.18.36-5.42.37-.02.36-9.99.36-2.05.36 2.7.37 2.75.36-2.28.36 2.01.36-2.91.36 4.22.37 6.22.36-2.68.36 2.3.36 3.85.36-4.28.37 1.2.36-7.04.36 3.14.36.91.36 1.59.37-5.59.36 4.72.36-2.69.36-2.94.37-.11.36-4.73.36 8.8.36 3.51.36-2.96.37 2.5.36 3.24.36 3.05.36.05.36-3.53.37 2.4.36-5.56.36-3.73.36-1.78.36 2.77.37 2.88.36 2.38.36-2.2.36 2.04.36 2.76.37 2.27.36-2.16.36.72.36 4.02.37-.54.36-20.6.36 2.13.36 2.68.36-4.49.37 12.14.36.59.36-9.12.36 1.17.36 4.54.37.51.36.6.36-10.37.36 2.02.36-2.47.37 2.5.36 1.52.36-3.84.36 5.23.37.72.36.08.36 1.43.36-.59.36 7.5.37-5.47.36-1.39.36-6.02.36-1.78.36 7.68.37 2.8.36 1.53.36-2.13.36 7.24.36-4.38.37-.62.36-4.36.36 1.55.36.23.36 3.03.37-3.17.36-4.88.36 1.45.36-2.17.37-.54.36 2.02.36 3.49.36 3.44.36 2.3.37 1.99.36 2.77.36-6.66.36-2.47.36-.34.37 5.09.36-.03.36 2.2.36-3.16.36 1.9.37-5.05.36.94.36-5.97.36 4.64.37 1.31.36.08.36 4.5.36-9.57.36 3.34.37-2.83.36 4.07.36 2 .36-1.78.36-6.38.37 3.92.36 3.65.36-4.23.36 1.64.36 2.09.37.24.36-2.01.36-3.84.36 4.28.37-6.91.36 4.09.36-9.94.36 13.46.36-3.07.37-4.49.36-3.72.36 2.54.36 8.71.36-6.33.37 4.64.36-7.04.36-.71.36 5.95.36-.04.37 7.11.36-4.32.36-1.78.36-3.99.36-2.84.37 2.77.36 8.38.36-.48.36-1.74.37 4.01.36-2.06.36 1.06.36-4.64.36 2.85.37 4.77.36 1.73.36-1.14.36-11.49.36 2.8.37-.75.36 6.03.36.44.36-6.05.36-.85.37.65.36 3.36.36-5.74.36 6.27.37 2.65.36-.86.36-.65.36 1.23.36 3.07.37-2.75.36-1.47.36.01.36 2.15.36 4 .37-.53.36 1.27.36-2.15.36-2.51.36-6.07.37 4.54.36 1.27.36.5.36.49.36-4.8.37 5.18.36-5.9.36-.81.36-.64.37-4.34.36 2.05.36 5.39.36-3.98.36 2.81.37 5.21.36-9.22.36-4.59.36 5.1.36 3.5.37-1.87.36-.9.36-10.05.36 3.12.36-1.43.37 2.1.36 5.23.36-.04.36-2.67.37 2.21.36-1.48.36 2.21.36.79.36-3.26.37-3.51.36 1.19.36 4.21.36 5.39.36-2.49.37-3.12.36 4.62.36 10.9.36-18 .36 1.18.37 2.12.36 4.75.36-8.93.36-.73.36 2.84.37 2.4.36-4.45.36.98.36 1.44.37 11.22.36-6.43.36-3.23.36-3.21.36 5.75.37-3.12.36-4.44.36 5.63.36 3.8.36 2.95.37-2.23.36-.44.36-2.96.36-1.59.36 6.55.37 2.45.36.57.36-9.43.36 1.74.37-6.4.36.47.36 2.28.36-6.18.36 1.71.37.43.36 3.28.36-1.64.36 4.36.36-5.07.37 1.43.36-.35.36-2.21.36 3.95.36-3.49.37-3.48.36-.42.36 2.68.36-1.96.37 7.3.36-4.37.36-1.48.36 4.76.36 4.23.37-11.81.36 4.09.36 2.05.36 3.51.36.62.37-3.56.36-3.28.36 3.7.36 4.62.36.18.37 2.55.36-11.15.36 2.43.36 2.58.36-2.21.37-5.84.36 7.36.36-4.16.36-1.48.37 3.76.36-5.99.36 2.68.36-2.23.36 3.71.37.5.36.51.36 3.91.36.19.36 3.6.37-8.33.36 4.08.36 4.76.36-1.76.36-1.18.37 1.28.36-4.99.36 3.22.36 7.63.37 6.13.36-6.35.36-10.01.36 4.35.36-6.07.37.57.36 1.92.36.82.36-.08.36-2.11.37 5.52.36 4.86.36-17.95.36-1.96.36 2.16.37 1.64.36 4.43.36-6.65.36 3.12.36 7.82.37 2.25.36.5.36-11.04.36 1.25.37-.54.36 4.02.36-1.21.36 2.46.36-.3.37 4.29.36-3.83.36-4.19.36-.58.36 4.71.37-3.63.36-1.06.36 6.28.36.21.36.83.37 3.05.36-2.83.36 1.29.36-10.64.37 6.34.36.21.36-1.21.36 3.58.36.35.37 4.23.36-3.96.36-5.98.36 4.26.36-.41.37 1.85.36 2.07.36 3 .36-3.37.36 4.62.37-.17.36-15.48.36 8.6.36-4.07.36 5.92.37-4.92.36-2.72.36-5.61.36 6.08.37.51.36-2.16.36 1.17.36 1.54.36-4.87.37 2.05.36 1.18.36 1.5.36 2.16.36 1.66.37-5.91.36.38.36-1.37.36-.91.36 2.96.37-4.56.36-.39.36-1.23.36 5.63.37 5 .36-2.96.36 3.71.36-2.25.36-5.25.37.43.36 2.8.36 5.54.36-4.67.36 5.96.37-4.63.36-7.32.36 5.53.36 1.89.36 11.75.37-11.8.36-1.37.36 4.24.36-2.29.37 1.35.36-4.12.36 4.94.36 2.83.36.23.37-4.4.36 2.53.36 3.75.36-.56.36.6.37-14.04.36 4.78.36 1.23.36 3.94.36-4.73.37 6.93.36-.77.36-4.27.36-7.65.36 4.11.37.16.36.87.36 6.68.36-3.11.37 8.5.36-9 .36 1.54.36-.82.36-3.81.37-1.19.36 4.64.36 4.74.36.9.36.31.37-.02.36-5.75.36 1.85.36 2.68.36-1.08.37 1.92.36.54.36 4.05.36-1.84.37-8.17.36 1.46.36 2.84.36 1.07.36-3.5.37 4.79.36 4.45.36-10.51.36 5.49.36-4.09.37-4.38.36 3.89.36.4.36 10.45.36.37.37-16.32.36.05.36 2.82.36-3.02.36 1.02.37.76.36-.31.36 5.52.36 1.55.37-8.08.36 6.24.36-6.1.36.36.36-4.61.37 3.45.36 2.73.36-.49.36-.69.36 3.31.37-.63.36 2.04.36-.11.36-1.38.36-1.74.37 1.8.36 2.68.36 3.77.36-.03.37-2.84.36 9.82.36-3.39.36-4.64.36-.21.37-1.16.36-2.51.36 1.12.36-2.54.36 7.73.37-6.87.36 2.92.36-.64.36-6.28.36 1.59.37 1.92.36.25.36 3.43.36-1.73.36 1.26.37-6.86.36 5.25.36 1.89.36-.34.37 1.6.36 4.67.36-6.61.36 5.74.36.42.37-5.09.36 4.18.36-1.9.36-2.43.36 5.36.37-4.22.36-.78.36 2.94.36-19.02.36 4.81.37 1.2.36 1.02.36 4.35.36-3.63.37 6.26.36 6.06.36-7.8.36-.58.36-2.46.37-.36.36-3.23.36-1.29.36 4.15.36-2.05.37-2.65.36 5.52.36 1.85.36-4.01.36-.63.37-6.44.36 5.98.36-2.13.36 6.47.37-2.38.36-4.35.36-1.36.36 2.27.36-5.24.37 3.42.36-2.29.36 6.06.36 1.92.36-1.86.37 2.99.36.21.36-3.18.36 7 .36-1.48.37 3.05.36-5.5.36.94.36-.97.36 2.09.37-.46.36 2.96.36 3.28.36 2.36.37-4.51.36-1.59.36-5.44.36 2.71.36 2.38.37 2.67.36-7.96.36 4.78"/><use xlink:href="#11bc8__c" transform="matrix(3.75 0 0 3.75 354.25 107.29)"/><use xlink:href="#11bc8__c" transform="matrix(3.75 0 0 3.75 56.25 7.51)"/></g><text stroke-linecap="round" stroke-linejoin="round" color="#000" font-family="KaTeX_Main" font-size="8" transform="translate(76.8 25.11)"><tspan>AVLWeakTopDown</tspan></text><g fill="none" stroke="currentColor" stroke-linecap="round" stroke-linejoin="round" color="#000"><path stroke="#FFAB00" stroke-dasharray="4.5,2.0,0.5,2.0,0.5,2.0" d="M41.3 22.51h29.9M28 82.62l.36 4.46.36-7.46.37 1.68.36-2.18.36 3.06.36.86.36 1.51.37-.05.36 3.63.36-4.72.36 7.74.37-4.03.36-1.26.36-.69.36-6.89.36-2.66.37 5.86.36-7.36.36 11.61.36-11.89.36 6.24.37 1.57.36 1.87.36.34.36 1.5.36-4.01.37 2.62.36-.37.36-19.9.36 12.22.36 9.07.37-2.13.36-3.39.36 3.97.36-7.07.37 3.36.36 5.54.36-2.79.36 4.12.36-8.13.37 2.7.36.22.36 1.9.36-2.22.36-4.42.37-2.81.36 5.99.36-.99.36-2.56.36 4.13.37-.8.36 1.63.36-1.65.36 5.55.37 3.64.36-9.66.36 3.82.36 1.56.36-1.66.37 4.43.36 1.48.36-2.31.36-5.02.36 4.2.37-2.81.36.92.36-4.31.36-.86.36 3.54.37 3.03.36-4.71.36-1.9.36-3.71.37 8.11.36-1.44.36 1.66.36 2.62.36-2.35.37-8.85.36 7.89.36 2.7.36.93.36-5.79.37-2.96.36 1.31.36.62.36 3.37.36-.68.37 3.81.36.5.36-5.31.36-.04.36-1.82.37 7.31.36-10.69.36 7.34.36.32.37-1.14.36 5.29.36-2.85.36-1.93.36.1.37-7.35.36-4.99.36 5.32.36 15.46.36-4.51.37-.88.36-6.63.36 2.44.36 2.71.36.24.37 1.58.36-6.4.36-7.32.36 12.53.37-8.07.36 7.41.36.51.36-2.59.36 3.26.37-1.77.36-3.15.36 7.92.36-3.7.36.16.37-5.91.36-4.2.36 3.03.36 4.71.36-.16.37 2.91.36-12.79.36 7.45.36.69.36-3.17.37-.78.36-7.43.36 4.71.36 5.29.37 2.71.36-4.17.36 3.64.36 6.95.36-5.64.37-7.5.36 2.23.36 4.35.36-4.56.36 9.51.37-12.1.36 7.46.36-5.83.36 9.8.36-2.64.37 1.28.36-4.52.36-5.04.36 6.67.37 3.08.36-2.29.36-2.48.36-.66.36 1.72.37 1.11.36 3.93.36-1.14.36-.62.36-5.34.37 2.99.36 3.01.36-1.08.36-3.14.36-2.43.37-2.69.36 6.22.36-2.08.36 1.15.36-7.78.37 6.16.36-3.55.36 2.17.36-1.83.37 1.39.36 8.48.36-5.04.36 9.85.36-9.58.37 4.02.36 2.98.36-9.91.36-.89.36 12.85.37-1.88.36-3.45.36 2.71.36-7.55.36 10.01.37-5.8.36-2.91.36-.46.36 3.03.37-4.42.36.49.36 8.73.36-6.49.36-4.71.37 8.8.36-7.42.36 4.82.36-9.93.36 11.55.37-6.88.36-.28.36-5.91.36-5.8.36 10.08.37.61.36 3.02.36-3.98.36 5.92.37-1.38.36-9.59.36 1.89.36-2.53.36 3.67.37 3.26.36-1.44.36 6.3.36 2.06.36-6.67.37 5.61.36-4.57h.36l.36-6.97.36 7.06.37-3.38.36-4.72.36 6.3.36.88.36 3.6.37 6 .36-4.4.36-4.24.36.35.37 10.58.36-3.42.36.17.36-4.05.36-4.75.37-.7.36 12.3.36-8.85.36-1.03.36.99.37 2.43.36-2.91.36-4.65.36 4.5.36-.6.37-4.79.36 2.54.36-.53.36 2.2.37-.71.36-2.48.36 5.29.36-1.87.36 5.94.37-4.06.36-1.5.36 2.04.36 5.07.36-15.34.37 16.46.36-7.82.36 4.79.36 8 .36-4.27.37-10.94.36 4.49.36 4.03.36 2.07.36-6.75.37 1 .36-5.42.36 7.63.36.17.37-2.24.36-.56.36 1.66.36-1.35.36-5.08.37-4.12.36 4.86.36-8.47.36 12.17.36-8.42.37 1.12.36 1.25.36 2.55.36-4.86.36 8.35.37 9.39.36-1.92.36-3.56.36-1.16.37 3.07.36 3.28.36-5.07.36-4.34.36-1.16.37 5.14.36 2.26.36-.21.36 1.89.36-5.81.37-3.3.36 6.1.36-7.58.36-3.66.36 8.22.37-.03.36-3.32.36.44.36 1.81.36-.76.37 1.84.36-4.08.36 3.74.36-7.01.37 8.98.36 3.61.36-7.36.36-1.56.36-1.83.37 7.78.36-13.2.36 8.23.36 2.98.36-3.31.37 2.62.36 2.43.36-11.46.36 13.19.36-7.53.37 4.17.36-5.07.36 5.67.36-2.12.37 4.5.36-4 .36-3.43.36-4.35.36 10.58.37.43.36-10.65.36 2.38.36-1.2.36 9.75.37-8.71.36-.13.36-3.89.36 13.23.36-7.68.37 5.17.36-3.21.36.86.36.98.37.33.36 2.91.36-1.85.36-3.83.36-6.51.37 9.52.36 1 .36 2.52.36-4.62.36-1.94.37-2.91.36 2.5.36 4.67.36-.24.36 2.02.37-7.77.36-.94.36 13.34.36-21.08.36 10.07.37 3.37.36 7.61.36 2.27.36-16.24.37 4.65.36-.59.36.76.36 5.09.36-11.73.37 1.37.36 3.87.36 13.47.36-4.88.36-1.86.37-4.77.36 1.87.36-7.19.36 10.29.36-6.46.37-4.71.36 8.44.36-3.98.36 1.16.37-.53.36 3.98.36-3.19.36 4.89.36-5.57.37-4.82.36 7.51.36-1.42.36.86.36 3.77.37-12.68.36 4.1.36 1.69.36.94.36-6.06.37 11.31.36 1.79.36-4.48.36-5.4.36 4.61.37 1.83.36-10.07.36 6.43.36-1.31.37-4.12.36.65.36 6.72h.36l.36-8.05.37-2.91.36 14.4.36-2.19.36 2.21.36-13.63.37 12.7.36-3.38.36-.36.36-1.27.36-5.1.37 7.3.36-2.18.36-3.16.36 8.56.37-1.95.36-4.88.36 1.3.36 1.8.36-3.95.37 3.99.36 7.05.36-11.01.36 2.34.36 3.64.37-7.25.36 1.66.36-3.69.36 7.18.36 1.23.37-9.23.36 2.38.36-6.02.36 6.53.37 12.16.36-10.37.36 9.5.36-9.8.36-1.55.37 2.83.36 4.94.36-4.04.36-.94.36-.72.37-3.3.36 3.47.36-.16.36 2.14.36-7.4.37 11.86.36-16.34.36 6.65.36 8.27.36-1.61.37.73.36 2.97.36-5.33.36 10.26.37-7.29.36-3.83.36 6.5.36-8.46.36 8.39.37-8.53.36 8.73.36-9.98.36 2.1.36 4.56.37 2.25.36-5.3.36-5.97.36 13.49.36-2.92.37-4.28.36-2.18.36-1.57.36 6.63.37 1.06.36-13.47.36 3.96.36 3.31.36 8.45.37-5.94.36.18.36 4.87.36-4.64.36-5.84.37 2.42.36 3.13.36-1.52.36 3.24.36-1.43.37-4.39.36 3.67.36-4.05.36 12.47.36-13.61.37 8.54.36 1.36.36-4.43.36-6.01.37 15.29.36-6.27.36-6.04.36 5.72.36 1.73.37-6.95.36 7.57.36-.42.36-5.15.36-2.02.37 11.12.36-6.14.36-3.95.36.82.36 6.22.37-6.41.36-.89.36-7.27.36 8.89.37 5.53.36-10.98.36 7.12.36-2.47.36.95.37-1.29.36 5.39.36 1.34.36-3.28.36-12.7.37 14.31.36.44.36-3.4.36.3.36-5.27.37 4.53.36-2.69.36 3.81.36 5.06.36-7.48.37 3.65.36-1.27.36-7.07.36 10.42.37 2.57.36.83.36-2.36.36.21.36-6.7.37-3.85.36 4.62.36 3.95.36-1.51.36 1.19.37-2.57.36 3.83.36 2.55.36-2.06.36-2.24.37-4.59.36-.83.36 9.42.36-3.76.37-1.51.36-2.22.36 2 .36-4.76.36 5.06.37 2.76.36-.58.36-1.83.36-5.22.36-.72.37 2.94.36.35.36 1.46.36.72.36-6.39.37-4.63.36 12.11.36-.6.36 1.37.37-3.28.36-1.13.36-1.88.36-.62.36 5.2.37-3.68.36 1.22.36 3.08.36-3.17.36-.07.37 8.25.36-1.01.36-3.75.36-7.11.36-2.68.37 8.3.36 3.93.36-7.25.36 6.88.36-7.47.37-3.25.36.11.36 4.18.36 1.38.37 6.44.36-8.56.36 8.2.36-7.15.36 5.3.37-5.67.36-1.34.36 3.47.36-1.83.36 1.03.37-3.86.36 3.39.36 4.75.36-.25.36 1.24.37-1.25.36 3.02.36-7.31.36 5.02.37-1.3.36-6.95.36.35.36-2.44.36 6.21.37-3.67.36 3.5.36 2.91.36-3.95.36-1.06.37-1.74.36 10.63.36-12.44.36 2.03.36-.33.37 5.07.36 3.06.36-3.4.36-7.27.36 5.43.37 5.33.36.09.36-4.24.36 1.51.37 1.73.36-10.66.36 5.68.36 2.72.36-3.98.37 5.43.36.5.36.67.36.61.36-5.05.37.6.36 7.57.36-6.4.36 1.99.36-5.75.37 3.02.36-4.23.36 10.34.36-2.35.37-4.12.36 7.11.36-7.77.36 1.19.36 5.22.37 3.46.36-7.17.36-2.66.36 1.12.36 3.11.37 1.82.36 11.69.36-19.74.36 4.21.36-5.59.37 11.19.36.54.36-13.59.36 14.27.36-3.1.37-7.94.36-6.08.36 7.23.36 2.82.37 5.99.36-1.65.36-3 .36-2.15.36 6.79.37-8.34.36 5.68.36-1.94.36 4.3.36-6.46.37-.7.36-4.31.36 10.44.36 4.88.36-12.98.37 9.34.36-10.66.36 1.89.36-.3.37-1.39.36-.96.36 1.87.36 7.25.36-4.15.37-4.18.36 1.96.36.19.36 7.77.36-5.79.37-4.66.36 4.77.36-3.62.36 3.24.36-.24.37-3.29.36.37.36-.39.36 4.78.37-2.24.36.64.36-1.54.36-2.95.36 2.51.37-5.66.36 7.41.36-2.43.36-1.23.36 4.22.37.53.36-1.75.36-2.13.36 5.78.36-1.11.37.3.36-6.13.36 2.68.36 3.42.36-7.01.37 12.61.36-3.89.36-5.1.36-1.17.37 8.43.36-12.45.36 4.68.36-4.48.36 1.3.37 8.47.36-5.68.36 3.2.36.65.36.51.37-1.1.36.92.36-3.88.36.58.36 5.76.37 2.85.36 1 .36-7.18.36.81.37-4.35.36 3.55.36-2.48.36 7.49.36 3.03.37-7.41.36 2.07.36-15 .36 10.88.36 5.23.37-2.8.36-2.32.36 3.96.36 2.22.36-17.41.37 11.92.36-1.52.36 1.88.36.28.36 4.01.37 2.85.36-11.1.36-2.19.36 9.05.37-1.22.36 2.21.36-2.88.36-4.7.36 9.91.37-6.22.36 2.94.36.22.36-3.74.36 3.85.37 3.66.36-2.93.36-9.54.36.76.36 6.44.37.94.36-.73.36-8.74.36 6.89.37-.91.36-2.42.36 2.36.36-.34.36 2.39.37-5.01.36-.64.36 2.36.36.36.36-2.29.37 3.11.36-4.63.36 8.95.36-9.68.36 4.73.37 1.5.36-4.09.36-9.6.36 16.8.36-8.22.37-.87.36 12.61.36-3.73.36-2.07.37 1.01.36-2.61.36 1.16.36 4.64.36-7.56.37-.68.36 3.15.36-5.99.36-5.54.36 13.14.37-.07.36-1.37.36.03.36.98.36-1.75.37 3.7.36-3.48.36-1.16.36-2.74.37 2.67.36-.22.36 14.51.36-9.2.36-5.53.37 6.53.36-2.89.36.26.36 2.78.36-15.02.37 15.61.36-8.66.36-3.58.36 11.24.36-3.34.37.72.36-1.7.36-.77.36.44.37 15.14.36-17.53.36-1.65.36 3.53.36-3.91.37 6.2.36-1.97.36-4.15.36-.7.36 8.35.37.14.36-2.26.36-1.29.36 1.68.36-4.25.37-1.23.36-.41.36 10.87.36-9.22.36-2.4.37 9.34.36-5.79.36.29.36 3.21.37 5.19.36-9.18.36-1.31.36 7.14.36-1.44.37-1.85.36-1.25.36 3.76"/><use xlink:href="#11bc8__d" color="#FFAB00" transform="matrix(3.75 0 0 3.75 67.83 81.7)"/><use xlink:href="#11bc8__d" color="#FFAB00" transform="matrix(3.75 0 0 3.75 56.25 22.51)"/></g><text stroke-linecap="round" stroke-linejoin="round" color="#000" font-family="KaTeX_Main" font-size="8" transform="translate(241.1 10.11)"><tspan>AVLRelaxedBottomUp</tspan></text><g fill="none" stroke="currentColor" stroke-linecap="round" stroke-linejoin="round" color="#000"><path stroke="#D336C8" d="M205.6 7.51h29.9M28 140.43l.36 3.77.36-2.36.37 5.42.36 1.15.36-11.73.36-4.47.36 7.43.37.62.36-.78.36-.35.36-.95.37-2.32.36 4.87.36-1.44.36-4.01.36-.3.37 4.74.36.43.36 1.07.36 1.16.36-3.04.37-.23.36-1.47.36 3.56.36-9.7.36-1.96.37 13.29.36-1.64.36 2.75.36.18.36-8.43.37 4.49.36 6.29.36-9.72.36 3.59.37 5.29.36-4.74.36 6.26.36-1.06.36-.72.37-9.01.36 2.89.36-.84.36-4.43.36 7.6.37-3.16.36-1.1.36-11.19.36 8.42.36.79.37 1.87.36 6.72.36-2.52.36-9.6.37 6.08.36 2.28.36 6.65.36-8.53.36 1.6.37.53.36-2.3.36-1.15.36 3.23.36-1.6.37 1.67.36.5.36-8.13.36 1.39.36 4.17.37 8.48.36-12.81.36 9.06.36-10.99.37 6.31.36 5.88.36-1.65.36-3.66.36-9.52.37 6.13.36 2.02.36 3.72.36 1.22.36 1.58.37-8.66.36 6.6.36 5.94.36-.84.36-3.23.37-3.87.36-1.76.36 3.18.36 4.18.36-11.58.37 4.51.36 3.53.36.28.36-3.2.37 6.02.36-10.31.36 5.51.36 6.61.36-19.15.37 1.07.36 11.34.36 5.46.36-11.8.36.25.37-8.05.36 4.2.36.8.36 7.63.36 1.73.37-.16.36 3.06.36-.07.36 4.06.37 2.87.36 2.28.36-26.82.36 12.95.36 8.97.37-3.03.36-7.6.36 6.71.36 3.01.36-8.55.37 7.15.36-6.85.36-5.02.36 5.37.36 4 .37 1.9.36-6.84.36 2.08.36 5.1.36-6.74.37 5.71.36-4.58.36-3.95.36-1.49.37 3.41.36 3.51.36 4.94.36-3.29.36 6.49.37 5.41.36-13.48.36-9.05.36.48.36 4.13.37-8.18.36 2.26.36 8.98.36-7.64.36 12.42.37-3.52.36-1.3.36-4.56.36 1.91.37 2.07.36 9.78.36-13.42.36 4.38.36.79.37-9.87.36 9.06.36 2.9.36-6.45.36-6.09.37 8.81.36-3.77.36 7.71.36 1.25.36-3.36.37 5.54.36-15.88.36 11.81.36 6.26.36-17.96.37 6.14.36 2.7.36 2.13.36 5.98.37-9.44.36-.74.36-3.76.36 3.99.36-3.19.37 4.56.36 6.24.36-4.67.36 1.46.36 1.03.37-1.35.36-1.42.36 6.39.36-6.17.36-1.84.37 1.94.36 7.81.36-7.11.36-.43.37 5.7.36 1.61.36-17.67.36 1.97.36 4.19.37-.17.36 7 .36 2.13.36 2.89.36-6.47.37 1.35.36-1.43.36-5.62.36 2.94.36 4.81.37 4.36.36-11.32.36 9.69.36-7.34.37 1.12.36 7.4.36-18.6.36 8.1.36 5.99.37-.41.36-10.95.36 1.93.36 3.13.36 5.88.37-2.78.36-5.98.36 8.32.36-4.75.36 2.12.37.04.36 6.65.36-2.64.36.95.36 6.03.37-7.78.36-1.08.36-8.81.36 8.05.37-7.46.36 9.39.36 2.72.36-6.97.36 6.67.37-5.91.36-.13.36.45.36-1.59.36-2.82.37 1.19.36 2.23.36.35.36-13.29.36 11.28.37 4.26.36 3.42.36-9.84.36 6.89.37-1.41.36.3.36 5.1.36 3.09.36-7.48.37-15.61.36 10.3.36 1.7.36 2.88.36 3.83.37-5.14.36 1.48.36 3.1.36-8.96.36-4.31.37 9.98.36-2.68.36 6.46.36-2.43.36-5.35.37 2.43.36 3.31.36-17.04.36 3.53.37-1.1.36 11.66.36-13.91.36 8.58.36.3.37 7.58.36.59.36-.62.36-4.92.36 2.7.37.58.36-9.87.36 3.35.36 2.54.36-.31.37 4.64.36 4.43.36-5.63.36.85.37-3.9.36 3.69.36 6.69.36-15.02.36 8.85.37 2.77.36-7.61.36-3.54.36 5.73.36.87.37 5.45.36-13.01.36-.14.36 2.14.36.59.37 3.64.36 14.79.36-9.49.36 3.28.36 1.14.37-.73.36-14.47.36 4.01.36 2.2.37-9.97.36 5.19.36-2.64.36 2.89.36 6.35.37-.27.36 3.62.36-3.72.36 4.93.36 6.32.37-3.06.36-15.8.36 4.44.36-3.57.36 9.37.37 3.43.36-15.4.36 9.74.36 1.65.37 1.62.36-.92.36.78.36-1.11.36 5.53.37 1.49.36-18.38.36.9.36 8.27.36-5.63.37-2.35.36 3.9.36-5.99.36 6.25.36 4.48.37-6.77.36 3.49.36-3.01.36 4.91.37 4.97.36-13.92.36 1.89.36 7.51.36-1.78.37-1.03.36 1.37.36 10.53.36-22.35.36 9.18.37-5.05.36 3.48.36 1.69.36 1.18.36 6.38.37-4.2.36-9.64.36-2.75.36-.43.36 10.17.37-1.37.36 2.75.36-.02.36 9.26.37-7.34.36-3.73.36 5.38.36-.24.36-1.39.37-3.87.36 2.78.36 7.13.36-11.11.36 8.32.37 1.46.36-.83.36 3.09.36-7.89.36 1.52.37.24.36 3.15.36-8.95.36 3.92.37.42.36 8.76.36-10.44.36-2.12.36 4.9.37 5.62.36.46.36 1.93.36-.29.36-22.79.37 11.39.36 2.37.36 2.04.36 2.8.36-3.59.37-3.09.36 2.54.36-3.88.36-2.1.36 1.31.37 3.47.36 7.86.36-7.98.36 5.36.37 1.25.36-11.3.36 11.23.36-6.71.36-5.55.37 5.39.36 3.15.36 2.71.36 4.03.36-4.22.37-.58.36-10.54.36 5.83.36-1.72.36.7.37 3.08.36.17.36 3.43.36.91.37 5.07.36-9.27.36-8.8.36 7.29.36-6.98.37-1.14.36 5.86.36 4.18.36-7.26.36 11.56.37-4.57.36 5.35.36-5.02.36 10.44.36-4.43.37-11.47.36 3.16.36 8.27.36-15.45.37 10.11.36 6.08.36-.89.36-9.34.36-9.46.37 6.65.36 6.34.36-.47.36 4.44.36-16.79.37 3.74.36 4.3.36 8.74.36-5.43.36-3.32.37-3.46.36.3.36 1.83.36 3.27.36 10.02.37-6.68.36 3.62.36-1.45.36-4.15.37 1.42.36 2.55.36 2.52.36-7.45.36 7.46.37-1.74.36 5.66.36 4.91.36-32.7.36 7.12.37 5.51.36 3.78.36.95.36 6.1.36-1.4.37-4.02.36 6.71.36 3.29.36-2.54.37-19.04.36 9.68.36-6.12.36 8.37.36-1.08.37-4.81.36 4.44.36 1.48.36 2.05.36-13 .37 7.1.36-4.88.36 4.95.36 7.42.36-13.71.37 1.38.36 6.91.36 9.12.36-3.54.36-2.05.37-4.47.36-2.73.36 3.89.36 2.51.37 1.44.36-5.33.36-1.62.36 5.13.36-9.25.37.86.36 7.11.36.58.36-2.1.36 1.73.37 1.19.36-4.7.36 6.12.36-9.91.36-1.03.37 10.15.36-8.09.36 7.4.36 3.58.37 2.93.36-2.35.36 5.21.36-19.89.36 10.18.37 2.79.36-3.84.36-.46.36.27.36 5.37.37 2.42.36-18 .36 1.68.36 2.5.36 9.01.37-.94.36 5.49.36-12.69.36 8.24.36 1.15.37-13 .36 2.83.36 3.69.36 3.89.37-12.59.36 5.82.36 7.82.36-3.27.36 8 .37-15.21.36 6.69.36 2.9.36-10.54.36 2.55.37 8.81.36 3.47.36-9.36.36 9.99.36-7.98.37.83.36.44.36-2.69.36 6.66.37-6.67.36-2.11.36-4.85.36 8.87.36-2.57.37 7.28.36.16.36-5.3.36 2 .36-4.7.37 8.16.36-5.44.36-3.55.36-3.08.36 7.49.37 3.01.36 2.8.36-11.15.36 2.39.37-1.24.36 5.17.36-.07.36-.27.36 5.2.37-2.24.36 4.57.36-2.64.36-2.91.36-.73.37-2.39.36 2.57.36.98.36-3.36.36 3.69.37-4.99.36 2.83.36 1.26.36-9.98.36 7.47.37-11.08.36 5.26.36 3.92.36 5.24.37-1.9.36-15.29.36 9.41.36 3.47.36-1.51.37.49.36 3.79.36 4.98.36-12.5.36 6.97.37 5.68.36-9 .36 2.99.36 5.79.36-3.61.37.28.36-14.81.36 7.53.36 2.16.37 7.72.36-6.88.36 2.98.36-3.5.36 3.81.37.23.36-9.91.36 5.77.36-1.34.36 8.67.37 2.1.36 2.33.36-5.3.36-7.06.36-8.87.37 1.56.36 2.38.36 1.35.36 7.02.36-2.77.37 5.61.36-3.8.36.51.36 5.58.37-6.78.36-2.25.36 9.95.36-11.56.36 9.92.37-4.22.36-.78.36 6.14.36-.25.36-3.91.37 2.63.36-14.43.36 2.76.36 5.42.36-.44.37-.22.36-4.69.36 5.22.36 9.56.37-8.15.36 9.15.36-2.75.36-1.76.36-5.94.37-9.64.36 6.06.36-1.34.36 4.4.36 5.6.37-6.19.36 1.54.36 5.39.36 2.77.36-2.18.37-9.22.36 4.68.36 1.04.36-8.33.36.53.37 3.01.36 1.36.36 7.36.36-5.7.37 1.05.36 5.88.36-3.31.36-1.11.36-4.23.37-5.45.36.99.36-.02.36 6.78.36-4.4.37-1.07.36.3.36-3.4.36 3.28.36-6.66.37-.6.36 4.29.36 8.85.36-.79.37.1.36-1.4.36-3.97.36 1.92.36 4.83.37 5.95.36-13.04.36 9.08.36 4.93.36-.92.37-2.2.36-1.51.36-7.34.36-4.17.36 7.7.37-.19.36 1.4.36 3.1.36-2.62.37-3.52.36 3.94.36.93.36-9.4.36 1.97.37 1.14.36-2.21.36-1.59.36 8.42.36-.64.37-11.13.36 7.82.36.69.36 6.31.36-10.24.37 4.15.36 2.05.36-10.59.36 5.08.36 2.8.37-5.7.36 2.57.36 3.15.36 3.66.37-1.26.36-4.25.36-5.66.36-4.61.36 12.74.37 3.24.36 3.65.36-7.18.36 2.92.36 7.43.37-9.57.36 2.54.36 6.34.36-8.5.36.31.37 5.76.36-6.55.36 3.34.36-.74.37-5.85.36 3.73.36 2.11.36 3.07.36-8.27.37 5.05.36.1.36-10.47.36 3.53.36 2.77.37 2.44.36 9.95.36-5.8.36-3.22.36 9.34.37-11.7.36-.11.36 12.21.36-16.19.36-1.76.37 4.27.36-1.88.36 9.31.36-13.09.37-.42.36 8.48.36-6.68.36 14.38.36-1.17.37-11.63.36 10.1.36-5.01.36-.56.36 1.83.37 3.88.36-6.75.36 1.62.36 4.58.36-.41.37-1.11.36-1.33.36 3.62.36-11.32.37 7.79.36 2.6.36-6.04.36-1 .36-3.68.37 7.28.36-4.82.36 5.74.36 4.24.36-7.6.37 3.87.36-3.21.36-.78.36 4.85.36 4.94.37-7.23.36 5.05.36-4.91.36 8 .36-16.33.37 3.11.36 3.76.36 7.1.36-9.49.37 5.18.36-4.24.36-8.95.36 2.64.36-.15.37.56.36 7.08.36-6.1.36 7.35.36 4.6.37-6.73.36 7.17.36-.79.36-6.79.36 3.44.37 1.48.36-12.88.36 6.67.36 6.7.37-2.55.36-7.09.36 7 .36 2.82.36-5.49.37-2.85.36-1.15.36 3.45.36-.07.36 3.16.37 8.04.36-9.97.36-5.41.36 4.15.36.96.37.73.36.19.36-.43.36 1.01.37-3.91.36 8.04.36-5.51.36 1.63.36-1.83.37 2.4.36 4.76.36-11.99.36 3.98.36-6.33.37 8.38.36-7.88.36 8.66.36 6.27.36-10.91.37-3.06.36.25.36 5.45.36 1.25.36 3.96.37-4.88.36 1.91.36 6.87.36 2.36.37-15.48.36 1.54.36 4.15.36-.7.36 1.63.37-.94.36-2.62.36 2"/><use xlink:href="#11bc8__b" color="#D336C8" transform="matrix(3.75 0 0 3.75 125.4 141.6)"/><use xlink:href="#11bc8__b" color="#D336C8" transform="matrix(3.75 0 0 3.75 220.55 7.51)"/></g><text stroke-linecap="round" stroke-linejoin="round" color="#000" font-family="KaTeX_Main" font-size="8" transform="translate(241.1 25.11)"><tspan>RedBlackRelaxedTopDown</tspan></text><g fill="none" stroke="currentColor" stroke-linecap="round" stroke-linejoin="round" color="#000"><path stroke="violet" stroke-dasharray="4.0,2.0,1.0,2.0" d="M205.6 22.51h29.9M28 104.25l.36 2.01.36-.89.37 3.28.36-1.56.36-1.58.36.77.36 2.46.37-2.54.36 1.01.36-3.52.36 4.28.37.67.36-3.84.36 4.81.36-6.87.36 7.68.37-3.63.36-1.42.36 2.14.36-3.04.36 4.05.37-.88.36-1.94.36 1.53.36 3.75.36-8.98.37 6.27.36-3.49.36 3.67.36-.06.36-5.43.37 6.34.36-4.15.36 6.69.36-4.82.37-3.52.36 3.61.36 1.64.36-1.19.36.2.37-4.69.36 4.52.36 3.02.36-6.03.36 6.12.37-9.17.36 8.27.36-1.67.36-2.66.36 1.99.37-3.95.36 5.36.36-1.88.36-.9.37 1.81.36 2.38.36-7.35.36 5.21.36-3.13.37 3.22.36-.12.36-5.91.36 6.34.36-3.4.37 4.51.36-3.63.36-1.85.36 3.21.36-1.13.37 1.77.36-1.6.36-1.8.36 2.54.37 2.87.36-4.71.36 3.22.36-5.51.36 5.99.37-.53.36-3.73.36 3.17.36-6.37.36 9.67.37-3.96.36-1.41.36 1.65.36-.14.36-.22.37.75.36-1.41.36.54.36 3.3.36-7.93.37 6.69.36-4.64.36 4.9.36-1.06.37-4.71.36 3.22.36-1.77.36 5.17.36-4.03.37-1.33.36 2.19.36 1.28.36-1.76.36.78.37-2.9.36 2.52.36 2.31.36-3.87.36 2.34.37-5.04.36 7.34.36-2.98.36-.98.37 2.68.36-5.85.36 6.32.36-2.06.36-.43.37-.05.36 1.34.36-4.13.36 3.86.36-1.42.37.95.36 2.76.36-7.67.36 7.23.36-5.62.37 5.96.36-2.68.36-4.49.36 4.79.36-1.39.37 3.42.36-2.94.36-2.01.36 3.01.37 2.34.36-4.8.36 3.21.36-5.93.36 6.83.37-.53.36-3.43.36 2.71.36-6.12.36 9.3.37-4.33.36-.45.36-.04.36-.8.36 1.83.37-.23.36-1.07.36.51.36 4.07.37-7.24.36 5.2.36-4.17.36 4.53.36-1.45.37-4.4.36 4.55.36-2.75.36 4.71.36-2.67.37-2.12.36 1.8.36.9.36 1.06.36-2.57.37-2.62.36 3.57.36 3.16.36-5.34.36 2.67.37-4.37.36 5.74.36-1.83.36-1.77.37 2.87.36-6.55.36 8.79.36-3.21.36.21.37-1.37.36.86.36-.91.36 1.61.36-2.11.37.97.36 2.41.36-5.39.36 6.03.36-4.74.37 4.35.36-.64.36-4.95.36 4.07.37-2.05.36 3.34.36-1.99.36-2.34.36 2.25.37 1.95.36-2.3.36 1.28.36-4.75.36 5.95.37.9.36-5.04.36 2.96.36-5.12.36 8.08.37-2.68.36-3.18.36 2.68.36-2.48.37 3.4.36-1.79.36.26.36.05.36 3.19.37-7.31.36 5.01.36-2.95.36 4.03.36.46.37-5.86.36 4.89.36-2.92.36 5.08.36-3.79.37-3.38.36 3.73.36 1.32.36-.77.36.25.37-5.25.36 4.82.36 3.13.36-6.49.37 4.3.36-7.61.36 9.46.36-2.83.36-1.36.37 1.94.36-4.19.36 4.49.36-1.18.36-1.13.37 1.02.36 1.5.36-5.74.36 5.48.36-3.02.37 4.61.36.38.36-8.74.36 6.87.37-4.24.36 7.21.36-4.73.36-3.37.36 4.78.37-.49.36.11.36-.46.36-3.43.36 3.75.37 3.62.36-6.43.36 3.18.36-6.47.36 8.15.37-2.2.36-2.06.36 2.43.36-4.53.36 7.2.37-3.78.36-.23.36.5.36.43.37-1.73.36 1.45.36-1.48.36 1.95.36 2.07.37-7.4.36 6.57.36-3.78.36 5.39.36-3 .37-4.56.36 5.28.36-1.24.36 2.33.36-1.89.37-3.71.36 4.03.36 2.66.36-4.71.37 2.61.36-6.79.36 8.11.36 1.19.36-5.74.37 3.82.36-7.18.36 10.55.36-5.58.36-1.32.37.98.36.68.36-.37.36.78.36-1.69.37.85.36 2.95.36-5.48.36 5.19.36-4.55.37 3.39.36-.81.36-3.3.36 3.81.37-3.41.36 5.22.36-3.26.36-1.03.36 1.85.37 1.84.36-3.35.36.5.36-2.02.36 2.58.37 3.64.36-4.33.36 3.53.36-7.36.36 7.03.37-.64.36-2.49.36 1.54.36-5.64.37 8.31.36-2.88.36-.74.36.57.36.11.37-2.06.36 2.78.36-2.46.36 1.31.36 3.24.37-7.03.36 5.65.36-3.49.36 3.67.36-1.67.37-3.12.36 3.2.36-1.72.36 3.49.37-2.48.36-2.3.36 2.93.36 2.52.36-4.62.37 2.94.36-4.42.36 4.15.36 2.2.36-4.77.37 2.94.36-7.03.36 10.56.36-4.45.36-1.03.37 2.28.36-4.35.36 4.11.36-1.56.36-.06.37-.05.36 3.35.36-6.26.36 4.41.37-3 .36 2.34.36.77.36-4.9.36 4.96.37-3 .36 4.45.36-4.01.36-1.16.36 2.34.37-.04.36 1.54.36-1.36.36-2.9.36 3.63.37 3.33.36-7.15.36 4.12.36-6.08.37 7.1.36-.69.36-3.12.36 2.45.36-4.61.37 7.75.36-4.1.36-.59.36.37.36.04.37.49.36 1.34.36-1.62.36.26.36 3.58.37-8.03.36 6.47.36-4.83.36 5.47.36-2.43.37-3.88.36 4.65.36-3.31.36 5.74.37-2.45.36-3.6.36 2.8.36 1.83.36-2.22.37.04.36-4.91.36 6.23.36 1.92.36-5.84.37 3.76.36-5.58.36 8.2.36-4.17.36-1.21.37 1.9.36-2.04.36 3.02.36-.5.37-2.17.36 2.53.36 3.17.36-8.82.36 5.59.37-3.27.36 3.59.36-.57.36-5.35.36 5.34.37-3.11.36 6.61.36-4.75.36-1.78.36 1.21.37 2.02.36-.77.36.26.36-3.67.37 2.62.36 4.76.36-6.14.36 2.72.36-4.33.37 5.43.36-1.88.36-.98.36 1.7.36-5.67.37 8.63.36-3.92.36.74.36-1.12.36.4.37.01.36.26.36-2.26.36 1.45.36 1.92.37-3.6.36 3.77.36-2.59.36 2.59.37-.08.36-4.22.36 3.94.36-2.97.36 5.25.37-3.35.36-1.95.36 1.86.36.3.36-.27.37-.33.36-1.3.36 1.25.36 2.78.36-3.21.37 1.75.36-4.61.36 4.93.36-.51.37-2.14.36 3.75.36-5.61.36 6.35.36-2.1.37-1.89.36.57.36-.23.36 1.12.36-.38.37-.52.36 1.25.36 2.53.36-6.32.36 3.78.37-3.09.36 3.34.36.04.36-4.8.36 6.16.37-4.58.36 5.15.36-3.34.36-.9.37 1.13.36-.24.36 1.64.36-1.61.36-2.38.37 3.03.36 2.46.36-4.64.36 3.44.36-5.5.37 5.65.36-1.03.36-1.9.36 1.75.36-5.72.37 10.04.36-4.19.36-.98.36.01.37-.4.36.51.36.24.36-.88.36.03.37 4.21.36-7.62.36 6.2.36-4.94.36 4.51.37-1.18.36-3.38.36 4.12.36-3.16.36 4.3.37-2.88.36-.69.36 1.37.36 1.35.36-2.16.37.23.36-.99.36 1.62.36 2.6.37-4.51.36 2.15.36-3.69.36 4.84.36.1.37-3.56.36 2.57.36-5.04.36 9.24.36-4.57.37-1.23.36.48.36.29.36-1.75.36 2 .37.1.36.02.36 3.64.36-7.53.37 4.05.36-2.71.36 4.02.36-1.04.36-4.11.37 3.94.36-2.03.36 4.64.36-2.26.36-2.98.37 1.77.36 2.08.36-1.24.36-.23.36-3.7.37 3.85.36 3.37.36-5.08.36 3.35.37-6.41.36 6.46.36-1.12.36-2.31.36 2.25.37-5.19.36 6.97.36-2.23.36-.14.36-.07.37.82.36-2.73.36 2.28.36-1.36.36.31.37 2.7.36-6.04.36 5.2.36-2.87.36 4.5.37-3.02.36-2.66.36 3.86.36-3.37.37 4.61.36-2.85.36-1.68.36 2.46.36 1.97.37-3.65.36 1.17.36-2.3.36 3.22.36 2.42.37-4.87.36 3.09.36-5.88.36 8.44.36-3.65.37-1.6.36 2.22.36-3.81.36 4.25.37-.61.36-.89.36.62.36.03.36-1.93.37 2.1.36-2.18.36 1.88.36 1.77.36-4.73.37 4.02.36-2.69.36 3.18.36-2.54.36-1.39.37 2.45.36-.92.36 2.76.36-2.49.36-1.68.37 1.14.36 3.61.36-4.3.36 2.22.37-5.33.36 5.69.36 1.53.36-5.07.36 4.15.37-5.86.36 8.01.36-3.26.36-1.29.36 2.09.37-4.14.36 3.85.36-1.55.36.69.36.24.37 2.57.36-5.78.36 3.17.36-1.77.37 3.21.36-.46.36-6.29.36 6.59.36-4.96.37 8.59.36-4.98.36-4.52.36 3.98.36 1.27.37-.64.36.21.36-4.75.36 4.14.36 4.52.37-6.76.36 4.35.36-7.19.36 7.75.36-.65.37-4.7.36 3.06.36-5.24.36 9.2.37-3.75.36-.59.36-.59.36 1.82.36-2.69.37 1.47.36-1.24.36.28.36 2.36.36-3.51.37 3.15.36-1.91.36 2.53.36-1.22.36-3.52.37 4.12.36-3.41.36 4.28.36-2.75.37-1.62.36 2.94.36.91.36-1.53.36.37.37-3.25.36 2.29.36 4.14.36-4.92.36 3.35.37-7.43.36 7.42.36-.84.36-3.44.36 3.48.37-4.85.36 6.91.36-3.44.36.46.37-1.14.36-.86.36 2.07.36-.73.36 1.07.37-1.13.36 1.64.36-2.94.36 3.41.36-3.3.37 1.88.36-.43.36-2.77.36 4.44.36-2.32.37 4.27.36-3.32.36-2.58.36 3.06.36-.06.37-.45.36-.07.36-3.1.36 3.3.37 4.13.36-6.82.36 3.38.36-5.18.36 6 .37-.3.36-3.29.36 3.05.36-5.4.36 8.96.37-4.55.36-.69.36.17.36.73.36-1.27.37 2.41.36-2.99.36 2.38.36.59.37-4.4.36 5.5.36-4.54.36 4.9.36-2.42.37-3.59.36 3.63.36-1.9.36 3.95.36-3.13.37-1.92.36 2.61.36 1.93.36-4.13.36 2.94.37-3.26.36 2.54.36 1.62.36-3.43.36 2.65.37-5.48.36 6.37.36-1.63.36-1.47.37 1.27.36-4.09.36 6.4.36-3.05.36.31.37.02.36 1.5.36-2.8.36 1.74.36-1.03.37.89.36 3.31.36-6.71.36 5.6.36-4.3.37 3.69.36-1.35.36-2.9.36 4.38.37-2.61.36 3.44.36-2.77.36-.84.36 1.03.37 2.34.36-3.02.36 1.43.36-4.94.36 4.63.37 2.81.36-4.49.36 3.73.36-7.44.36 8.61.37-2.21.36-2.85.36 2.19.36-3.41.36 4.54.37-1.88.36-.69.36 1.12.36 2.51.37-6.5.36 4.27.36-2.64.36 2.76.36.31.37-5.05.36 6.55.36-5.15.36 7.14.36-5.49.37-1.39.36 2.8.36.11.36-.88.36-.83.37-1.47.36 2.97.36 2.63.36-3.22.37 1.49.36-5.52.36 5.46.36.88.36-4.21.37 3.88.36-6.45.36 9.45.36-4.51.36-1.34.37 1.51.36-1.11.36.71.36.87.36-1.81.37.6.36 3.18.36-6.32.36 5.06.37-3.42.36 4.38.36-1.07.36-4.97.36 4.72.37-3.34.36 5.81.36-3.86.36-2.91.36 2.85.37 2.25.36-2.57.36.73.36-3.92.36 4.04.37 2.81.36-4.44.36 2.42.36-5.9.36 7.47.37-2.68.36-1.09.36 1.56.36-3.31.37 5.08.36-2.05.36-.24.36.37.36.64.37-2.47.36 1.74.36-1.76"/><use xlink:href="#11bc8__e" color="violet" transform="matrix(3.75 0 0 3.75 182.98 102.57)"/><use xlink:href="#11bc8__e" color="violet" transform="matrix(3.75 0 0 3.75 220.55 22.51)"/></g><path fill="none" d="M28 45.01V162.5M371.99 45.01H28" color="#000"/></svg>