<svg xmlns="http://www.w3.org/2000/svg" xmlns:xlink="http://www.w3.org/1999/xlink" viewBox="0 0 400 200"><path fill="none" d="M0 0h400v200H0z"/><defs><use xlink:href="#86847__a" id="86847__c" fill="currentColor" stroke="none"/><use xlink:href="#86847__a" id="86847__b" stroke="currentColor" transform="rotate(180)"/><use xlink:href="#86847__b" id="86847__d" fill="currentColor" stroke="none"/><path id="86847__a" stroke="currentColor" stroke-width=".267" d="m0-1.33-1.33 2h2.66z"/></defs><path fill="none" stroke="#CCC" stroke-linecap="round" stroke-linejoin="round" stroke-width=".1" d="M46.1 162.5V45.01" class="86847__gridline" color="#000"/><g fill="none" stroke-linecap="round" stroke-linejoin="round" stroke-width="0" color="#000"><path d="M46.1 162.5V155m0-109.99v7.5"/><text fill="#000" font-family="KaTeX_Main" font-size="8" text-anchor="middle" transform="translate(46.1 172.6)"><tspan> 1</tspan></text></g><path fill="none" stroke="#CCC" stroke-linecap="round" stroke-linejoin="round" stroke-width=".1" d="M82.31 162.5V45.01" class="86847__gridline" color="#000"/><g fill="none" stroke-linecap="round" stroke-linejoin="round" stroke-width="0" color="#000"><path d="M82.31 162.5V155m0-109.99v7.5"/><text fill="#000" font-family="KaTeX_Main" font-size="8" text-anchor="middle" transform="translate(82.31 172.6)"><tspan> 2</tspan></text></g><path fill="none" stroke="#CCC" stroke-linecap="round" stroke-linejoin="round" stroke-width=".1" d="M118.52 162.5V45.01" class="86847__gridline" color="#000"/><g fill="none" stroke-linecap="round" stroke-linejoin="round" stroke-width="0" color="#000"><path d="M118.52 162.5V155m0-109.99v7.5"/><text fill="#000" font-family="KaTeX_Main" font-size="8" text-anchor="middle" transform="translate(118.52 172.6)"><tspan> 3</tspan></text></g><path fill="none" stroke="#CCC" stroke-linecap="round" stroke-linejoin="round" stroke-width=".1" d="M154.73 162.5V45.01" class="86847__gridline" color="#000"/><g fill="none" stroke-linecap="round" stroke-linejoin="round" stroke-width="0" color="#000"><path d="M154.73 162.5V155m0-109.99v7.5"/><text fill="#000" font-family="KaTeX_Main" font-size="8" text-anchor="middle" transform="translate(154.73 172.6)"><tspan> 4</tspan></text></g><path fill="none" stroke="#CCC" stroke-linecap="round" stroke-linejoin="round" stroke-width=".1" d="M190.94 162.5V45.01" class="86847__gridline" color="#000"/><g fill="none" stroke-linecap="round" stroke-linejoin="round" stroke-width="0" color="#000"><path d="M190.94 162.5V155m0-109.99v7.5"/><text fill="#000" font-family="KaTeX_Main" font-size="8" text-anchor="middle" transform="translate(190.94 172.6)"><tspan> 5</tspan></text></g><path fill="none" stroke="#CCC" stroke-linecap="round" stroke-linejoin="round" stroke-width=".1" d="M227.15 162.5V45.01" class="86847__gridline" color="#000"/><g fill="none" stroke-linecap="round" stroke-linejoin="round" stroke-width="0" color="#000"><path d="M227.15 162.5V155m0-109.99v7.5"/><text fill="#000" font-family="KaTeX_Main" font-size="8" text-anchor="middle" transform="translate(227.15 172.6)"><tspan> 6</tspan></text></g><path fill="none" stroke="#CCC" stroke-linecap="round" stroke-linejoin="round" stroke-width=".1" d="M263.36 162.5V45.01" class="86847__gridline" color="#000"/><g fill="none" stroke-linecap="round" stroke-linejoin="round" stroke-width="0" color="#000"><path d="M263.36 162.5V155m0-109.99v7.5"/><text fill="#000" font-family="KaTeX_Main" font-size="8" text-anchor="middle" transform="translate(263.36 172.6)"><tspan> 7</tspan></text></g><path fill="none" stroke="#CCC" stroke-linecap="round" stroke-linejoin="round" stroke-width=".1" d="M299.57 162.5V45.01" class="86847__gridline" color="#000"/><g fill="none" stroke-linecap="round" stroke-linejoin="round" stroke-width="0" color="#000"><path d="M299.57 162.5V155m0-109.99v7.5"/><text fill="#000" font-family="KaTeX_Main" font-size="8" text-anchor="middle" transform="translate(299.57 172.6)"><tspan> 8</tspan></text></g><path fill="none" stroke="#CCC" stroke-linecap="round" stroke-linejoin="round" stroke-width=".1" d="M335.78 162.5V45.01" class="86847__gridline" color="#000"/><g fill="none" stroke-linecap="round" stroke-linejoin="round" stroke-width="0" color="#000"><path d="M335.78 162.5V155m0-109.99v7.5"/><text fill="#000" font-family="KaTeX_Main" font-size="8" text-anchor="middle" transform="translate(335.78 172.6)"><tspan> 9</tspan></text></g><path fill="none" stroke="#CCC" stroke-linecap="round" stroke-linejoin="round" stroke-width=".1" d="M371.99 162.5V45.01" class="86847__gridline" color="#000"/><g fill="none" stroke-linecap="round" stroke-linejoin="round" stroke-width="0" color="#000"><path d="M371.99 162.5V155m0-109.99v7.5"/><text fill="#000" font-family="KaTeX_Main" font-size="8" text-anchor="middle" transform="translate(371.99 172.6)"><tspan> 10</tspan></text></g><g fill="none" stroke-linecap="round" stroke-linejoin="round" stroke-width="0" color="#000"><path d="M371.99 162.5h-7.5"/><text fill="#000" font-family="KaTeX_Main" font-size="8" transform="translate(378.99 165.1)"><tspan>0.00</tspan></text></g><g fill="none" stroke-linecap="round" stroke-linejoin="round" stroke-width="0" color="#000"><path d="M371.99 147.81h-7.5"/><text fill="#000" font-family="KaTeX_Main" font-size="8" transform="translate(378.99 150.41)"><tspan>200.00</tspan></text></g><g fill="none" stroke-linecap="round" stroke-linejoin="round" stroke-width="0" color="#000"><path d="M371.99 133.13h-7.5"/><text fill="#000" font-family="KaTeX_Main" font-size="8" transform="translate(378.99 135.73)"><tspan>400.00</tspan></text></g><g fill="none" stroke-linecap="round" stroke-linejoin="round" stroke-width="0" color="#000"><path d="M371.99 118.44h-7.5"/><text fill="#000" font-family="KaTeX_Main" font-size="8" transform="translate(378.99 121.04)"><tspan>600.00</tspan></text></g><g fill="none" stroke-linecap="round" stroke-linejoin="round" stroke-width="0" color="#000"><path d="M371.99 103.75h-7.5"/><text fill="#000" font-family="KaTeX_Main" font-size="8" transform="translate(378.99 106.35)"><tspan>800.00</tspan></text></g><g fill="none" stroke-linecap="round" stroke-linejoin="round" stroke-width="0" color="#000"><path d="M371.99 89.07h-7.5"/><text fill="#000" font-family="KaTeX_Main" font-size="8" transform="translate(378.99 91.67)"><tspan>1000.00</tspan></text></g><g fill="none" stroke-linecap="round" stroke-linejoin="round" stroke-width="0" color="#000"><path d="M371.99 74.38h-7.5"/><text fill="#000" font-family="KaTeX_Main" font-size="8" transform="translate(378.99 76.98)"><tspan>1200.00</tspan></text></g><g fill="none" stroke-linecap="round" stroke-linejoin="round" stroke-width="0" color="#000"><path d="M371.99 59.7h-7.5"/><text fill="#000" font-family="KaTeX_Main" font-size="8" transform="translate(378.99 62.3)"><tspan>1400.00</tspan></text></g><g fill="none" stroke-linecap="round" stroke-linejoin="round" stroke-width="0" color="#000"><path d="M371.99 45.01h-7.5"/><text fill="#000" font-family="KaTeX_Main" font-size="8" transform="translate(378.99 47.61)"><tspan>1600.00</tspan></text></g><path fill="none" d="M28 45.01V162.5M371.99 45.01H28" color="#000"/><text stroke-linecap="round" stroke-linejoin="round" stroke-width="0" color="#000" font-family="KaTeX_Main" font-size="10" text-anchor="middle" transform="rotate(-90 57.63 46.13)"><tspan font-weight="bold">Allocations </tspan><tspan> / log</tspan><tspan dy="3" font-size="8">2</tspan><tspan dy="-3">(Size)</tspan></text><text stroke-linecap="round" stroke-linejoin="round" stroke-width="0" color="#000" font-family="KaTeX_Main" font-size="10" text-anchor="middle" transform="translate(199.99 195.75)"><tspan>Operations / 10</tspan><tspan dy="-5" font-size="8">6</tspan></text><text stroke-linecap="round" stroke-linejoin="round" stroke-width=".5" color="#000" font-family="KaTeX_Main" font-size="8" transform="translate(110.4 10.11)"><tspan>AVLBottomUp</tspan></text><g fill="none" stroke="currentColor" stroke-linecap="round" stroke-linejoin="round" stroke-width=".5" color="#000"><path stroke="#000" d="M74.9 7.51h29.9M10.26 162.43l.36-.08.36-.08.36-.08.37-.08.36-.08.36-.08.36-.08.36-.08.37-.08.36-.08.36-.08.36-.08.36-.08.37-.08.36-.08.36-.08.36-.08.37-.08.36-.08.36-.08.36-.08.36-.07.37-.08.36-.08.36-.08.36-.08.36-.08.37-.08.36-.08.36-.08.36-.08.36-.08.37-.08.36-.08.36-.08.36-.08.36-.08.37-.08.36-.08.36-.08.36-.08.37-.07.36-.08.36-.08.36-.08.36-.08.37-.07.36-.08.36-.08.36-.08.36-.07.37-.08.36-.08.36-.09.36-.08.36-.08.37-.08.36-.08.36-.08.36-.08.37-.08.36-.08.36-.08.36-.08.36-.08.37-.08.36-.08.36-.08.36-.08.36-.08.37-.07.36-.08.36-.08.36-.08.36-.08.37-.08.36-.08.36-.08.36-.08.36-.07.37-.08.36-.08.36-.08.36-.08.37-.08.36-.07.36-.08.36-.08.36-.08.37-.08.36-.07.36-.08.36-.08.36-.08.37-.08.36-.07.36-.08.36-.08.36-.08.37-.07.36-.06.36-.07.36-.07.37-.07.36-.07.36-.07.36-.07.36-.06.37-.07.36-.07.36-.07.36-.07.36-.07.37-.07.36-.07.36-.07.36-.07.36-.07.37-.07.36-.07.36-.07.36-.07.37-.07.36-.07.36-.07.36-.07.36-.07.37-.07.36-.07.36-.06.36-.07.36-.07.37-.07.36-.07.36-.06.36-.07.36-.07.37-.07.36-.07.36-.07.36-.07.36-.07.37-.06.36-.07.36-.07.36-.07.37-.07.36-.07.36-.07.36-.07.36-.07.37-.07.36-.07.36-.07.36-.07.36-.07.37-.07.36-.07.36-.07.36-.06.36-.07.37-.07.36-.07.36-.07.36-.07.37-.07.36-.07.36-.07.36-.07.36-.07.37-.06.36-.08.36-.06.36-.07.36-.07.37-.07.36-.07.36-.08.36-.07.36-.06.37-.07.36-.07.36-.07.36-.07.36-.07.37-.07.36-.06.36-.07.36-.07.37-.07.36-.07.36-.07.36-.07.36-.07.37-.06.36-.07.36-.07.36-.07.36-.07.37-.07.36-.07.36-.07.36-.07.36-.07.37-.07.36-.07.36-.07.36-.07.37-.07.36-.06.36-.07.36-.07.36-.07.37-.07.36-.07.36-.07.36-.07.36-.07.37-.07.36-.07.36-.07.36-.06.36-.07.37-.07.36-.07.36-.07.36-.07.36-.07.37-.07.36-.07.36-.07.36-.07.37-.07.36-.07.36-.07.36-.07.36-.07.37-.06.36-.07.36-.07.36-.07.36-.07.37-.06.36-.08.36-.06.36-.07.36-.07.37-.07.36-.07.36-.07.36-.07.37-.07.36-.07.36-.07.36-.07.36-.07.37-.07.36-.07.36-.07.36-.07.36-.06.37-.07.36-.07.36-.07.36-.07.36-.07.37-.07.36-.07.36-.07.36-.07.37-.07.36-.07.36-.07.36-.06.36-.07.37-.07.36-.07.36-.07.36-.07.36-.07.37-.07.36-.07.36-.07.36-.07.36-.07.37-.07.36-.07.36-.07.36-.06.36-.07.37-.07.36-.07.36-.07.36-.06.37-.07.36-.07.36-.07.36-.07.36-.07.37-.07.36-.07.36-.07.36-.07.36-.07.37-.07.36-.07.36-.07.36-.07.36-.07.37-.07.36-.07.36-.07.36-.06.37-.07.36-.07.36-.07.36-.07.36-.06.37-.07.36-.07.36-.07.36-.08.36-.06.37-.07.36-.07.36-.07.36-.07.36-.07.37-.07.36-.07.36-.07.36-.07.36-.07.37-.07.36-.07.36-.07.36-.07.37-.07.36-.07.36-.06.36-.07.36-.07.37-.07.36-.07.36-.07.36-.06.36-.07.37-.07.36-.07.36-.07.36-.07.36-.07.37-.07.36-.06.36-.07.36-.07.37-.07.36-.07.36-.07.36-.07.36-.07.37-.08.36-.06.36-.07.36-.07.36-.07.37-.07.36-.07.36-.07.36-.06.36-.07.37-.07.36-.07.36-.07.36-.07.36-.07.37-.07.36-.07.36-.07.36-.07.37-.07.36-.07.36-.07.36-.07.36-.07.37-.07.36-.07.36-.07.36-.07.36-.07.37-.06.36-.07.36-.07.36-.07.36-.07.37-.07.36-.06.36-.07.36-.07.37-.07.36-.07.36-.07.36-.07.36-.07.37-.06.36-.07.36-.07.36-.07.36-.07.37-.07.36-.07.36-.07.36-.07.36-.07.37-.07.36-.07.36-.07.36-.07.37-.07.36-.07.36-.07.36-.06.36-.07.37-.07.36-.07.36-.07.36-.07.36-.07.37-.07.36-.07.36-.07.36-.07.36-.06.37-.07.36-.07.36-.07.36-.07.36-.07.37-.07.36-.07.36-.07.36-.07.37-.07.36-.07.36-.07.36-.07.36-.07.37-.07.36-.06.36-.07.36-.07.36-.07.37-.07.36-.07.36-.07.36-.06.36-.07.37-.07.36-.07.36-.07.36-.07.37-.07.36-.07.36-.07.36-.07.36-.07.37-.07.36-.07.36-.07.36-.07.36-.07.37-.06.36-.07.36-.07.36-.07.36-.07.37-.07.36-.07.36-.07.36-.07.36-.07.37-.07.36-.07.36-.06.36-.07.37-.07.36-.07.36-.07.36-.07.36-.07.37-.07.36-.07.36-.07.36-.07.36-.07.37-.07.36-.07.36-.07.36-.07.36-.06.37-.07.36-.07.36-.07.36-.07.37-.06.36-.07.36-.07.36-.07.36-.07.37-.07.36-.07.36-.07.36-.07.36-.07.37-.07.36-.07.36-.07.36-.07.36-.07.37-.07.36-.07.36-.07.36-.06.37-.07.36-.07.36-.07.36-.07.36-.07.37-.07.36-.07.36-.07.36-.07.36-.07.37-.07.36-.06.36-.07.36-.07.36-.07.37-.07.36-.07.36-.07.36-.07.36-.07.37-.07.36-.07.36-.07.36-.07.37-.07.36-.07.36-.07.36-.06.36-.07.37-.07.36-.07.36-.07.36-.06.36-.07.37-.07.36-.07.36-.07.36-.07.36-.07.37-.07.36-.07.36-.07.36-.07.37-.07.36-.07.36-.06.36-.08.36-.07.37-.07.36-.07.36-.06.36-.07.36-.07.37-.07.36-.07.36-.07.36-.06.36-.07.37-.07.36-.07.36-.07.36-.07.36-.07.37-.07.36-.07.36-.07.36-.07.37-.07.36-.07.36-.07.36-.07.36-.07.37-.07.36-.07.36-.07.36-.07.36-.07.37-.07.36-.06.36-.07.36-.07.36-.07.37-.07.36-.06.36-.07.36-.07.37-.07.36-.07.36-.07.36-.07.36-.07.37-.07.36-.06.36-.07.36-.07.36-.07.37-.07.36-.07.36-.07.36-.07.36-.07.37-.07.36-.07.36-.07.36-.07.36-.07.37-.07.36-.07.36-.06.36-.07.37-.07.36-.07.36-.07.36-.07.36-.07.37-.07.36-.07.36-.07.36-.07.36-.07.37-.07.36-.07.36-.06.36-.08.36-.06.37-.08.36-.07.36-.07.36-.07.37-.06.36-.07.36-.07.36-.07.36-.07.37-.07.36-.06.36-.07.36-.07.36-.07.37-.07.36-.07.36-.07.36-.07.36-.06.37-.07.36-.07.36-.07.36-.07.37-.07.36-.07.36-.07.36-.07.36-.07.37-.07.36-.07.36-.07.36-.07.36-.07.37-.07.36-.07.36-.06.36-.07.36-.07.37-.07.36-.07.36-.07.36-.07.36-.07.37-.07.36-.07.36-.07.36-.06.37-.07.36-.07.36-.07.36-.07.36-.07.37-.07.36-.07.36-.07.36-.07.36-.07.37-.07.36-.07.36-.07.36-.07.36-.07.37-.06.36-.07.36-.07.36-.07.37-.07.36-.07.36-.07.36-.06.36-.07.37-.07.36-.07.36-.07.36-.07.36-.07.37-.07.36-.07.36-.07.36-.07.36-.07.37-.07.36-.07.36-.07.36-.07.36-.06.37-.07.36-.07.36-.07.36-.07.37-.07.36-.07.36-.07.36-.07.36-.07.37-.07.36-.07.36-.06.36-.07.36-.07.37-.07.36-.07.36-.07.36-.07.36-.07.37-.07.36-.07.36-.07.36-.07.37-.07.36-.07.36-.07.36-.07.36-.06.37-.07.36-.07.36-.07.36-.07.36-.06.37-.07.36-.07.36-.07.36-.07.36-.07.37-.07.36-.07.36-.07.36-.07.36-.07.37-.07.36-.07.36-.07.36-.07.37-.07.36-.07.36-.07.36-.06.36-.07.37-.07.36-.07.36-.07.36-.07.36-.06.37-.07.36-.08.36-.07.36-.07.36-.07.37-.06.36-.07.36-.07.36-.07.37-.07.36-.07.36-.07.36-.07.36-.07.37-.07.36-.07.36-.07.36-.07.36-.07.37-.07.36-.07.36-.06.36-.07.36-.07.37-.07.36-.07.36-.06.36-.07.37-.07.36-.07.36-.07.36-.07.36-.07.37-.07.36-.07.36-.07.36-.07.36-.06.37-.07.36-.07.36-.07.36-.08.36-.07.37-.07.36-.06.36-.07.36-.07.36-.07.37-.07.36-.07.36-.06.36-.07.37-.07.36-.07.36-.07.36-.07.36-.07.37-.07.36-.07.36-.07.36-.07.36-.07.37-.07.36-.07.36-.07.36-.07.36-.07.37-.07.36-.07.36-.07.36-.07.37-.07.36-.06.36-.07.36-.07.36-.07.37-.07.36-.06.36-.07.36-.07.36-.07.37-.07.36-.07.36-.07.36-.07.36-.07.37-.06.36-.07.36-.07.36-.07.36-.07.37-.07.36-.07.36-.07.36-.07.37-.07.36-.07.36-.07.36-.07.36-.07.37-.07.36-.07.36-.06.36-.07.36-.07.37-.07.36-.07.36-.07.36-.07.36-.07.37-.07.36-.07.36-.07.36-.07.37-.07.36-.07.36-.06.36-.07.36-.07.37-.07.36-.08.36-.07.36-.06.36-.07.37-.07.36-.07.36-.07.36-.07.36-.07.37-.06.36-.07.36-.07.36-.07.36-.07.37-.07.36-.07.36-.07.36-.06.37-.07.36-.07.36-.07.36-.07.36-.07.37-.07.36-.07.36-.07.36-.07.36-.07.37-.07.36-.07.36-.07.36-.07.36-.07.37-.06.36-.07.36-.07.36-.07.37-.07.36-.07.36-.07.36-.07.36-.07.37-.07.36-.07.36-.07.36-.06.36-.07.37-.07.36-.07.36-.07.36-.07.36-.07.37-.07.36-.07.36-.07.36-.07.37-.07.36-.07.36-.07.36-.07.36-.07.37-.06.36-.07.36-.07.36-.07.36-.07.37-.07.36-.07.36-.06.36-.07.36-.07.37-.07.36-.07.36-.07.36-.07.36-.07.37-.07.36-.07.36-.07.36-.07.37-.07.36-.07.36-.07.36-.07.36-.06.37-.07.36-.07.36-.07"/><use xlink:href="#86847__c" transform="matrix(3.75 0 0 3.75 10.26 162.43)"/><use xlink:href="#86847__c" transform="matrix(3.75 0 0 3.75 371.99 92.32)"/><use xlink:href="#86847__c" transform="matrix(3.75 0 0 3.75 89.85 7.51)"/></g><text stroke-linecap="round" stroke-linejoin="round" color="#000" font-family="KaTeX_Main" font-size="8" transform="translate(110.4 25.11)"><tspan>AVLTopDown</tspan></text><g fill="none" stroke="currentColor" stroke-linecap="round" stroke-linejoin="round" color="#000"><path stroke="#29C3F6" stroke-dasharray="2.5,4.0" d="M74.9 22.51h29.9M28 156.93l.36-.1.36-.11.37-.11.36-.1.36-.11.36-.1.36-.11.37-.1.36-.11.36-.1.36-.11.37-.1.36-.11.36-.1.36-.11.36-.1.37-.11.36-.1.36-.11.36-.1.36-.11.37-.1.36-.11.36-.11.36-.1.36-.11.37-.1.36-.11.36-.1.36-.11.36-.1.37-.11.36-.1.36-.11.36-.1.37-.11.36-.1.36-.11.36-.1.36-.11.37-.1.36-.11.36-.1.36-.11.36-.1.37-.11.36-.11.36-.1.36-.11.36-.1.37-.11.36-.1.36-.11.36-.1.37-.11.36-.1.36-.11.36-.1.36-.11.37-.1.36-.11.36-.1.36-.11.36-.1.37-.11.36-.1.36-.11.36-.11.36-.1.37-.11.36-.1.36-.11.36-.1.37-.11.36-.1.36-.11.36-.1.36-.11.37-.1.36-.11.36-.1.36-.11.36-.1.37-.11.36-.1.36-.11.36-.1.36-.11.37-.11.36-.1.36-.11.36-.1.36-.11.37-.1.36-.11.36-.1.36-.11.37-.1.36-.11.36-.1.36-.11.36-.1.37-.11.36-.1.36-.11.36-.1.36-.11.37-.1.36-.11.36-.1.36-.11.36-.11.37-.1.36-.11.36-.1.36-.11.37-.1.36-.11.36-.1.36-.11.36-.1.37-.11.36-.1.36-.11.36-.1.36-.11.37-.1.36-.11.36-.1.36-.11.36-.1.37-.11.36-.1.36-.11.36-.11.36-.1.37-.11.36-.1.36-.11.36-.1.37-.11.36-.1.36-.11.36-.1.36-.11.37-.1.36-.11.36-.1.36-.11.36-.1.37-.11.36-.1.36-.11.36-.11.36-.1.37-.11.36-.1.36-.11.36-.1.37-.11.36-.1.36-.11.36-.1.36-.11.37-.1.36-.11.36-.1.36-.11.36-.1.37-.11.36-.1.36-.11.36-.1.36-.11.37-.1.36-.11.36-.11.36-.1.36-.11.37-.1.36-.11.36-.1.36-.11.37-.1.36-.11.36-.1.36-.11.36-.1.37-.11.36-.1.36-.11.36-.1.36-.11.37-.1.36-.11.36-.1.36-.11.36-.1.37-.11.36-.11.36-.1.36-.11.37-.1.36-.11.36-.1.36-.11.36-.1.37-.11.36-.1.36-.11.36-.1.36-.11.37-.1.36-.11.36-.1.36-.11.36-.1.37-.11.36-.1.36-.11.36-.1.37-.11.36-.11.36-.1.36-.11.36-.1.37-.11.36-.1.36-.11.36-.1.36-.11.37-.1.36-.11.36-.1.36-.11.36-.1.37-.11.36-.1.36-.11.36-.1.36-.11.37-.11.36-.1.36-.11.36-.1.37-.11.36-.1.36-.11.36-.1.36-.11.37-.1.36-.11.36-.1.36-.11.36-.1.37-.11.36-.1.36-.11.36-.1.36-.11.37-.1.36-.11.36-.1.36-.11.37-.11.36-.1.36-.11.36-.1.36-.11.37-.1.36-.11.36-.1.36-.11.36-.1.37-.11.36-.1.36-.11.36-.1.36-.11.37-.1.36-.11.36-.1.36-.11.36-.1.37-.11.36-.1.36-.11.36-.11.37-.1.36-.11.36-.1.36-.11.36-.1.37-.11.36-.1.36-.11.36-.1.36-.11.37-.1.36-.11.36-.1.36-.11.36-.1.37-.11.36-.1.36-.11.36-.1.37-.11.36-.11.36-.1.36-.11.36-.1.37-.11.36-.1.36-.11.36-.1.36-.11.37-.1.36-.11.36-.1.36-.11.36-.1.37-.11.36-.1.36-.11.36-.1.36-.11.37-.1.36-.11.36-.1.36-.11.37-.11.36-.1.36-.11.36-.1.36-.11.37-.1.36-.11.36-.1.36-.11.36-.1.37-.11.36-.1.36-.11.36-.1.36-.11.37-.1.36-.11.36-.1.36-.11.37-.1.36-.11.36-.11.36-.1.36-.11.37-.1.36-.11.36-.1.36-.11.36-.1.37-.11.36-.1.36-.11.36-.1.36-.11.37-.1.36-.11.36-.1.36-.11.37-.1.36-.11.36-.1.36-.11.36-.11.37-.1.36-.11.36-.1.36-.11.36-.1.37-.11.36-.1.36-.11.36-.1.36-.11.37-.1.36-.11.36-.1.36-.11.36-.1.37-.11.36-.1.36-.11.36-.1.37-.11.36-.1.36-.11.36-.11.36-.1.37-.11.36-.1.36-.11.36-.1.36-.11.37-.1.36-.11.36-.1.36-.11.36-.1.37-.11.36-.1.36-.11.36-.1.37-.11.36-.1.36-.11.36-.1.36-.11.37-.1.36-.11.36-.11.36-.1.36-.11.37-.1.36-.11.36-.1.36-.11.36-.1.37-.11.36-.1.36-.11.36-.1.36-.11.37-.1.36-.11.36-.1.36-.11.37-.1.36-.11.36-.11.36-.1.36-.11.37-.1.36-.11.36-.1.36-.11.36-.1.37-.11.36-.1.36-.11.36-.1.36-.11.37-.1.36-.11.36-.1.36-.11.37-.1.36-.11.36-.1.36-.11.36-.1.37-.11.36-.11.36-.1.36-.11.36-.1.37-.11.36-.1.36-.11.36-.1.36-.11.37-.1.36-.11.36-.1.36-.11.37-.1.36-.11.36-.1.36-.11.36-.1.37-.11.36-.1.36-.11.36-.1.36-.11.37-.11.36-.1.36-.11.36-.1.36-.11.37-.1.36-.11.36-.1.36-.11.36-.1.37-.11.36-.1.36-.11.36-.1.37-.11.36-.1.36-.11.36-.1.36-.11.37-.1.36-.11.36-.1.36-.11.36-.11.37-.1.36-.11.36-.1.36-.11.36-.1.37-.11.36-.1.36-.11.36-.1.37-.11.36-.1.36-.11.36-.1.36-.11.37-.1.36-.11.36-.1.36-.11.36-.11.37-.1.36-.11.36-.1.36-.11.36-.1.37-.11.36-.1.36-.11.36-.1.36-.11.37-.1.36-.11.36-.1.36-.11.37-.1.36-.11.36-.1.36-.11.36-.1.37-.11.36-.1.36-.11.36-.11.36-.1.37-.11.36-.1.36-.11.36-.1.36-.11.37-.1.36-.11.36-.1.36-.11.37-.1.36-.11.36-.1.36-.11.36-.1.37-.11.36-.1.36-.11.36-.1.36-.11.37-.1.36-.11.36-.11.36-.1.36-.11.37-.1.36-.11.36-.1.36-.11.36-.1.37-.11.36-.1.36-.11.36-.1.37-.11.36-.1.36-.11.36-.1.36-.11.37-.1.36-.11.36-.1.36-.11.36-.11.37-.1.36-.11.36-.1.36-.11.36-.1.37-.11.36-.1.36-.11.36-.1.37-.11.36-.1.36-.11.36-.1.36-.11.37-.1.36-.11.36-.1.36-.11.36-.1.37-.11.36-.1.36-.11.36-.11.36-.1.37-.11.36-.1.36-.11.36-.1.37-.11.36-.1.36-.11.36-.1.36-.11.37-.1.36-.11.36-.1.36-.11.36-.1.37-.11.36-.1.36-.11.36-.1.36-.11.37-.1.36-.11.36-.11.36-.1.36-.11.37-.1.36-.11.36-.1.36-.11.37-.1.36-.11.36-.1.36-.11.36-.1.37-.11.36-.1.36-.11.36-.1.36-.11.37-.1.36-.11.36-.11.36-.1.36-.11.37-.1.36-.11.36-.1.36-.11.37-.1.36-.11.36-.1.36-.11.36-.1.37-.11.36-.1.36-.11.36-.1.36-.11.37-.1.36-.11.36-.1.36-.11.36-.1.37-.11.36-.11.36-.1.36-.11.36-.1.37-.11.36-.1.36-.11.36-.1.37-.11.36-.1.36-.11.36-.1.36-.11.37-.1.36-.11.36-.1.36-.11.36-.1.37-.11.36-.1.36-.11.36-.1.36-.11.37-.11.36-.1.36-.11.36-.1.37-.11.36-.1.36-.11.36-.1.36-.11.37-.1.36-.11.36-.1.36-.11.36-.1.37-.11.36-.1.36-.11.36-.1.36-.11.37-.1.36-.11.36-.1.36-.11.36-.11.37-.1.36-.11.36-.1.36-.11.37-.1.36-.11.36-.1.36-.11.36-.1.37-.11.36-.1.36-.11.36-.1.36-.11.37-.1.36-.11.36-.1.36-.11.36-.11.37-.1.36-.11.36-.1.36-.11.37-.1.36-.11.36-.1.36-.11.36-.1.37-.11.36-.1.36-.11.36-.1.36-.11.37-.1.36-.11.36-.1.36-.11.36-.1.37-.11.36-.1.36-.11.36-.11.37-.1.36-.11.36-.1.36-.11.36-.1.37-.11.36-.1.36-.11.36-.1.36-.11.37-.1.36-.11.36-.1.36-.11.36-.1.37-.11.36-.1.36-.11.36-.1.36-.11.37-.1.36-.11.36-.11.36-.1.37-.11.36-.1.36-.11.36-.1.36-.11.37-.1.36-.11.36-.1.36-.11.36-.1.37-.11.36-.1.36-.11.36-.1.36-.11.37-.1.36-.11.36-.11.36-.1.37-.11.36-.1.36-.11.36-.1.36-.11.37-.1.36-.11.36-.1.36-.11.36-.1.37-.11.36-.1.36-.11.36-.1.36-.11.37-.1.36-.11.36-.1.36-.11.36-.1.37-.11.36-.11.36-.1.36-.11.37-.1.36-.11.36-.1.36-.11.36-.1.37-.11.36-.1.36-.11.36-.1.36-.11.37-.1.36-.11.36-.1.36-.11.36-.1.37-.11.36-.1.36-.11.36-.1.37-.11.36-.11.36-.1.36-.11.36-.1.37-.11.36-.1.36-.11.36-.1.36-.11.37-.1.36-.11.36-.1.36-.11.36-.1.37-.11.36-.1.36-.11.36-.1.36-.11.37-.1.36-.11.36-.11.36-.1.37-.11.36-.1.36-.11.36-.1.36-.11.37-.1.36-.11.36-.1.36-.11.36-.1.37-.11.36-.1.36-.11.36-.1.36-.11.37-.1.36-.11.36-.1.36-.11.37-.1.36-.11.36-.11.36-.1.36-.11.37-.1.36-.11.36-.1.36-.11.36-.1.37-.11.36-.1.36-.11.36-.1.36-.11.37-.1.36-.11.36-.1.36-.11.37-.1.36-.11.36-.1.36-.11.36-.1.37-.11.36-.11.36-.1.36-.11.36-.1.37-.11.36-.1.36-.11.36-.1.36-.11.37-.1.36-.11.36-.1.36-.11.36-.1.37-.11.36-.1.36-.11.36-.1.37-.11.36-.1.36-.11.36-.11.36-.1.37-.11.36-.1.36-.11"/><use xlink:href="#86847__d" color="#29C3F6" transform="matrix(3.75 0 0 3.75 67.83 145.36)"/><use xlink:href="#86847__d" color="#29C3F6" transform="matrix(3.75 0 0 3.75 89.85 22.51)"/></g><text stroke-linecap="round" stroke-linejoin="round" color="#000" font-family="KaTeX_Main" font-size="8" transform="translate(241.1 10.11)"><tspan>RedBlackBottomUp</tspan></text><g fill="none" stroke="currentColor" stroke-linecap="round" stroke-linejoin="round" color="#000"><path stroke="#F44336" d="M205.6 7.51h29.9M28 157.65l.36-.09.36-.09.37-.09.36-.1.36-.09.36-.1.36-.09.37-.09.36-.09.36-.09.36-.1.37-.09.36-.1.36-.09.36-.09.36-.09.37-.1.36-.09.36-.09.36-.09.36-.1.37-.09.36-.09.36-.1.36-.09.36-.09.37-.1.36-.09.36-.09.36-.09.36-.1.37-.09.36-.09.36-.1.36-.09.37-.09.36-.09.36-.1.36-.09.36-.09.37-.1.36-.09.36-.09.36-.1.36-.09.37-.09.36-.09.36-.1.36-.09.36-.09.37-.1.36-.09.36-.09.36-.09.37-.1.36-.09.36-.09.36-.1.36-.09.37-.09.36-.1.36-.09.36-.09.36-.1.37-.09.36-.09.36-.09.36-.1.36-.09.37-.09.36-.1.36-.09.36-.09.37-.09.36-.1.36-.09.36-.09.36-.1.37-.09.36-.09.36-.09.36-.1.36-.09.37-.1.36-.09.36-.09.36-.09.36-.09.37-.1.36-.09.36-.1.36-.09.36-.09.37-.09.36-.1.36-.09.36-.09.37-.1.36-.09.36-.09.36-.09.36-.1.37-.09.36-.1.36-.09.36-.09.36-.09.37-.09.36-.1.36-.09.36-.1.36-.09.37-.09.36-.09.36-.09.36-.1.37-.09.36-.09.36-.1.36-.09.36-.09.37-.1.36-.09.36-.09.36-.1.36-.09.37-.09.36-.09.36-.1.36-.09.36-.09.37-.1.36-.09.36-.09.36-.09.36-.1.37-.09.36-.09.36-.1.36-.09.37-.09.36-.1.36-.09.36-.09.36-.09.37-.1.36-.09.36-.09.36-.1.36-.09.37-.09.36-.09.36-.1.36-.09.36-.09.37-.1.36-.09.36-.09.36-.09.37-.1.36-.09.36-.1.36-.09.36-.09.37-.09.36-.1.36-.09.36-.09.36-.1.37-.09.36-.09.36-.09.36-.1.36-.09.37-.09.36-.1.36-.09.36-.09.36-.09.37-.1.36-.09.36-.09.36-.1.37-.09.36-.09.36-.09.36-.1.36-.09.37-.1.36-.09.36-.09.36-.09.36-.09.37-.1.36-.09.36-.1.36-.09.36-.09.37-.09.36-.1.36-.09.36-.1.37-.09.36-.09.36-.09.36-.09.36-.1.37-.09.36-.1.36-.09.36-.09.36-.09.37-.09.36-.1.36-.09.36-.1.36-.09.37-.09.36-.09.36-.1.36-.09.37-.09.36-.09.36-.1.36-.09.36-.09.37-.1.36-.09.36-.09.36-.1.36-.09.37-.09.36-.09.36-.1.36-.09.36-.09.37-.1.36-.09.36-.09.36-.09.36-.1.37-.09.36-.09.36-.1.36-.09.37-.09.36-.1.36-.09.36-.09.36-.09.37-.1.36-.09.36-.09.36-.1.36-.09.37-.09.36-.09.36-.1.36-.09.36-.09.37-.1.36-.09.36-.09.36-.1.37-.09.36-.09.36-.1.36-.09.36-.09.37-.09.36-.1.36-.09.36-.09.36-.1.37-.09.36-.09.36-.09.36-.1.36-.09.37-.09.36-.1.36-.09.36-.09.36-.09.37-.1.36-.09.36-.1.36-.09.37-.09.36-.09.36-.09.36-.1.36-.09.37-.1.36-.09.36-.09.36-.09.36-.1.37-.09.36-.09.36-.1.36-.09.36-.09.37-.09.36-.1.36-.09.36-.1.37-.09.36-.09.36-.09.36-.09.36-.1.37-.09.36-.1.36-.09.36-.09.36-.09.37-.09.36-.1.36-.09.36-.1.36-.09.37-.09.36-.09.36-.1.36-.09.36-.09.37-.09.36-.1.36-.09.36-.09.37-.1.36-.09.36-.09.36-.1.36-.09.37-.09.36-.09.36-.1.36-.09.36-.09.37-.1.36-.09.36-.09.36-.09.36-.1.37-.09.36-.09.36-.1.36-.09.37-.09.36-.1.36-.09.36-.09.36-.09.37-.1.36-.09.36-.09.36-.1.36-.09.37-.09.36-.09.36-.1.36-.09.36-.09.37-.1.36-.09.36-.09.36-.1.37-.09.36-.09.36-.1.36-.09.36-.09.37-.09.36-.1.36-.09.36-.09.36-.1.37-.09.36-.09.36-.09.36-.1.36-.09.37-.09.36-.1.36-.09.36-.09.36-.09.37-.1.36-.09.36-.1.36-.09.37-.09.36-.09.36-.09.36-.1.36-.09.37-.1.36-.09.36-.09.36-.09.36-.1.37-.09.36-.09.36-.1.36-.09.36-.09.37-.09.36-.1.36-.09.36-.1.37-.09.36-.09.36-.09.36-.09.36-.1.37-.09.36-.1.36-.09.36-.09.36-.09.37-.09.36-.1.36-.09.36-.09.36-.1.37-.09.36-.09.36-.1.36-.09.36-.09.37-.1.36-.09.36-.09.36-.09.37-.1.36-.09.36-.09.36-.1.36-.09.37-.09.36-.09.36-.1.36-.09.36-.09.37-.1.36-.09.36-.09.36-.1.36-.09.37-.09.36-.09.36-.1.36-.09.37-.09.36-.1.36-.09.36-.09.36-.09.37-.1.36-.09.36-.09.36-.1.36-.09.37-.09.36-.09.36-.1.36-.09.36-.1.37-.09.36-.09.36-.09.36-.1.37-.09.36-.09.36-.1.36-.09.36-.09.37-.09.36-.1.36-.09.36-.09.36-.1.37-.09.36-.09.36-.09.36-.1.36-.09.37-.09.36-.1.36-.09.36-.09.36-.09.37-.1.36-.09.36-.1.36-.09.37-.09.36-.09.36-.09.36-.1.36-.09.37-.1.36-.09.36-.09.36-.09.36-.1.37-.09.36-.09.36-.1.36-.09.36-.09.37-.09.36-.1.36-.09.36-.1.37-.09.36-.09.36-.09.36-.09.36-.1.37-.09.36-.1.36-.09.36-.09.36-.09.37-.1.36-.09.36-.09.36-.09.36-.1.37-.09.36-.09.36-.1.36-.09.36-.09.37-.1.36-.09.36-.09.36-.09.37-.1.36-.09.36-.09.36-.1.36-.09.37-.09.36-.09.36-.1.36-.09.36-.09.37-.1.36-.09.36-.09.36-.1.36-.09.37-.09.36-.09.36-.1.36-.09.37-.09.36-.1.36-.09.36-.09.36-.09.37-.1.36-.09.36-.09.36-.1.36-.09.37-.09.36-.09.36-.1.36-.09.36-.1.37-.09.36-.09.36-.09.36-.1.36-.09.37-.09.36-.1.36-.09.36-.09.37-.09.36-.1.36-.09.36-.09.36-.1.37-.09.36-.09.36-.09.36-.1.36-.09.37-.1.36-.09.36-.09.36-.09.36-.09.37-.1.36-.09.36-.1.36-.09.37-.09.36-.09.36-.1.36-.09.36-.09.37-.1.36-.09.36-.09.36-.09.36-.1.37-.09.36-.1.36-.09.36-.09.36-.09.37-.09.36-.1.36-.09.36-.1.37-.09.36-.09.36-.09.36-.09.36-.1.37-.09.36-.1.36-.09.36-.09.36-.09.37-.1.36-.09.36-.09.36-.09.36-.1.37-.09.36-.09.36-.1.36-.09.36-.09.37-.1.36-.09.36-.09.36-.09.37-.1.36-.09.36-.09.36-.1.36-.09.37-.09.36-.09.36-.1.36-.09.36-.09.37-.1.36-.09.36-.09.36-.1.36-.09.37-.09.36-.09.36-.1.36-.09.37-.09.36-.1.36-.09.36-.09.36-.09.37-.1.36-.09.36-.09.36-.1.36-.09.37-.09.36-.1.36-.09.36-.09.36-.1.37-.09.36-.09.36-.09.36-.1.36-.09.37-.09.36-.1.36-.09.36-.09.37-.09.36-.1.36-.09.36-.09.36-.1.37-.09.36-.09.36-.09.36-.1.36-.09.37-.1.36-.09.36-.09.36-.09.36-.09.37-.1.36-.09.36-.1.36-.09.37-.09.36-.09.36-.1.36-.09.36-.09.37-.1.36-.09.36-.09.36-.09.36-.1.37-.09.36-.1.36-.09.36-.09.36-.09.37-.09.36-.1.36-.09.36-.1.36-.09.37-.09.36-.09.36-.09.36-.1.37-.09.36-.09.36-.1.36-.09.36-.09.37-.1.36-.09.36-.09.36-.1.36-.09.37-.09.36-.09.36-.1.36-.09.36-.09.37-.1.36-.09.36-.09.36-.09.37-.1.36-.09.36-.09.36-.1.36-.09.37-.09.36-.1.36-.09.36-.09.36-.09.37-.1.36-.09.36-.09.36-.1.36-.09.37-.09.36-.09.36-.1.36-.09.37-.09.36-.1.36-.09.36-.09.36-.09.37-.1.36-.09.36-.09.36-.1.36-.09.37-.09.36-.1.36-.09.36-.09.36-.1.37-.09.36-.09.36-.09.36-.1.36-.09.37-.09.36-.1.36-.09.36-.09.37-.09.36-.1.36-.09.36-.09.36-.1.37-.09.36-.09.36-.09.36-.1.36-.09.37-.1.36-.09.36-.09.36-.09.36-.09.37-.1.36-.09.36-.1.36-.09.37-.09.36-.09.36-.1.36-.09.36-.09.37-.1.36-.09.36-.09.36-.09.36-.1.37-.09.36-.1.36-.09.36-.09.36-.09.37-.09.36-.1.36-.09.36-.1.36-.09.37-.09.36-.09.36-.1.36-.09.37-.09.36-.09.36-.1.36-.09.36-.09.37-.1.36-.09.36-.09.36-.1.36-.09.37-.09.36-.09.36-.1.36-.09.36-.09.37-.1.36-.09.36-.09.36-.09.37-.1.36-.09.36-.09.36-.1.36-.09.37-.09.36-.1.36-.09.36-.09.36-.09.37-.1.36-.09.36-.09.36-.1.36-.09.37-.09.36-.09.36-.1.36-.09.36-.09.37-.1.36-.09.36-.09.36-.09.37-.1.36-.09.36-.1.36-.09.36-.09.37-.09.36-.1.36-.09.36-.09.36-.1.37-.09.36-.09.36-.09.36-.1.36-.09.37-.09.36-.1.36-.09.36-.09.37-.09.36-.1.36-.09.36-.1.36-.09.37-.09.36-.09.36-.09.36-.1.36-.09.37-.1.36-.09.36-.09.36-.09.36-.1.37-.09.36-.09.36-.1.36-.09.37-.09.36-.09.36-.1.36-.09.36-.1.37-.09.36-.09.36-.09.36-.09.36-.1.37-.09.36-.1.36-.09.36-.09.36-.09.37-.09.36-.1.36-.09.36-.1.36-.09.37-.09.36-.09.36-.1.36-.09.37-.09.36-.09.36-.1.36-.09.36-.09.37-.1.36-.09.36-.09"/><use xlink:href="#86847__a" color="#F44336" transform="matrix(3.75 0 0 3.75 125.4 132.65)"/><use xlink:href="#86847__a" color="#F44336" transform="matrix(3.75 0 0 3.75 220.55 7.51)"/></g><path fill="none" d="M28 45.01V162.5M371.99 45.01H28" color="#000"/></svg>