<svg xmlns="http://www.w3.org/2000/svg" xmlns:xlink="http://www.w3.org/1999/xlink" viewBox="0 0 400 200"><path fill="none" d="M0 0h400v200H0z"/><defs><use xlink:href="#e13d3__a" id="e13d3__c" fill="currentColor" stroke="none"/><use xlink:href="#e13d3__a" id="e13d3__b" stroke="currentColor" transform="rotate(180)"/><use xlink:href="#e13d3__b" id="e13d3__d" fill="currentColor" stroke="none"/><path id="e13d3__a" stroke="currentColor" stroke-width=".267" d="m0-1.33-1.33 2h2.66z"/></defs><path fill="none" stroke="#CCC" stroke-linecap="round" stroke-linejoin="round" stroke-width=".1" d="M46.1 162.5V45.01" class="e13d3__gridline" color="#000"/><g fill="none" stroke-linecap="round" stroke-linejoin="round" stroke-width="0" color="#000"><path d="M46.1 162.5V155m0-109.99v7.5"/><text fill="#000" font-family="KaTeX_Main" font-size="8" text-anchor="middle" transform="translate(46.1 172.6)"><tspan> 1</tspan></text></g><path fill="none" stroke="#CCC" stroke-linecap="round" stroke-linejoin="round" stroke-width=".1" d="M82.31 162.5V45.01" class="e13d3__gridline" color="#000"/><g fill="none" stroke-linecap="round" stroke-linejoin="round" stroke-width="0" color="#000"><path d="M82.31 162.5V155m0-109.99v7.5"/><text fill="#000" font-family="KaTeX_Main" font-size="8" text-anchor="middle" transform="translate(82.31 172.6)"><tspan> 2</tspan></text></g><path fill="none" stroke="#CCC" stroke-linecap="round" stroke-linejoin="round" stroke-width=".1" d="M118.52 162.5V45.01" class="e13d3__gridline" color="#000"/><g fill="none" stroke-linecap="round" stroke-linejoin="round" stroke-width="0" color="#000"><path d="M118.52 162.5V155m0-109.99v7.5"/><text fill="#000" font-family="KaTeX_Main" font-size="8" text-anchor="middle" transform="translate(118.52 172.6)"><tspan> 3</tspan></text></g><path fill="none" stroke="#CCC" stroke-linecap="round" stroke-linejoin="round" stroke-width=".1" d="M154.73 162.5V45.01" class="e13d3__gridline" color="#000"/><g fill="none" stroke-linecap="round" stroke-linejoin="round" stroke-width="0" color="#000"><path d="M154.73 162.5V155m0-109.99v7.5"/><text fill="#000" font-family="KaTeX_Main" font-size="8" text-anchor="middle" transform="translate(154.73 172.6)"><tspan> 4</tspan></text></g><path fill="none" stroke="#CCC" stroke-linecap="round" stroke-linejoin="round" stroke-width=".1" d="M190.94 162.5V45.01" class="e13d3__gridline" color="#000"/><g fill="none" stroke-linecap="round" stroke-linejoin="round" stroke-width="0" color="#000"><path d="M190.94 162.5V155m0-109.99v7.5"/><text fill="#000" font-family="KaTeX_Main" font-size="8" text-anchor="middle" transform="translate(190.94 172.6)"><tspan> 5</tspan></text></g><path fill="none" stroke="#CCC" stroke-linecap="round" stroke-linejoin="round" stroke-width=".1" d="M227.15 162.5V45.01" class="e13d3__gridline" color="#000"/><g fill="none" stroke-linecap="round" stroke-linejoin="round" stroke-width="0" color="#000"><path d="M227.15 162.5V155m0-109.99v7.5"/><text fill="#000" font-family="KaTeX_Main" font-size="8" text-anchor="middle" transform="translate(227.15 172.6)"><tspan> 6</tspan></text></g><path fill="none" stroke="#CCC" stroke-linecap="round" stroke-linejoin="round" stroke-width=".1" d="M263.36 162.5V45.01" class="e13d3__gridline" color="#000"/><g fill="none" stroke-linecap="round" stroke-linejoin="round" stroke-width="0" color="#000"><path d="M263.36 162.5V155m0-109.99v7.5"/><text fill="#000" font-family="KaTeX_Main" font-size="8" text-anchor="middle" transform="translate(263.36 172.6)"><tspan> 7</tspan></text></g><path fill="none" stroke="#CCC" stroke-linecap="round" stroke-linejoin="round" stroke-width=".1" d="M299.57 162.5V45.01" class="e13d3__gridline" color="#000"/><g fill="none" stroke-linecap="round" stroke-linejoin="round" stroke-width="0" color="#000"><path d="M299.57 162.5V155m0-109.99v7.5"/><text fill="#000" font-family="KaTeX_Main" font-size="8" text-anchor="middle" transform="translate(299.57 172.6)"><tspan> 8</tspan></text></g><path fill="none" stroke="#CCC" stroke-linecap="round" stroke-linejoin="round" stroke-width=".1" d="M335.78 162.5V45.01" class="e13d3__gridline" color="#000"/><g fill="none" stroke-linecap="round" stroke-linejoin="round" stroke-width="0" color="#000"><path d="M335.78 162.5V155m0-109.99v7.5"/><text fill="#000" font-family="KaTeX_Main" font-size="8" text-anchor="middle" transform="translate(335.78 172.6)"><tspan> 9</tspan></text></g><path fill="none" stroke="#CCC" stroke-linecap="round" stroke-linejoin="round" stroke-width=".1" d="M371.99 162.5V45.01" class="e13d3__gridline" color="#000"/><g fill="none" stroke-linecap="round" stroke-linejoin="round" stroke-width="0" color="#000"><path d="M371.99 162.5V155m0-109.99v7.5"/><text fill="#000" font-family="KaTeX_Main" font-size="8" text-anchor="middle" transform="translate(371.99 172.6)"><tspan> 10</tspan></text></g><g fill="none" stroke-linecap="round" stroke-linejoin="round" stroke-width="0" color="#000"><path d="M371.99 162.5h-7.5"/><text fill="#000" font-family="KaTeX_Main" font-size="8" transform="translate(378.99 165.1)"><tspan>0.70</tspan></text></g><g fill="none" stroke-linecap="round" stroke-linejoin="round" stroke-width="0" color="#000"><path d="M371.99 142.92h-7.5"/><text fill="#000" font-family="KaTeX_Main" font-size="8" transform="translate(378.99 145.52)"><tspan>0.75</tspan></text></g><g fill="none" stroke-linecap="round" stroke-linejoin="round" stroke-width="0" color="#000"><path d="M371.99 123.34h-7.5"/><text fill="#000" font-family="KaTeX_Main" font-size="8" transform="translate(378.99 125.94)"><tspan>0.80</tspan></text></g><g fill="none" stroke-linecap="round" stroke-linejoin="round" stroke-width="0" color="#000"><path d="M371.99 103.75h-7.5"/><text fill="#000" font-family="KaTeX_Main" font-size="8" transform="translate(378.99 106.35)"><tspan>0.85</tspan></text></g><g fill="none" stroke-linecap="round" stroke-linejoin="round" stroke-width="0" color="#000"><path d="M371.99 84.17h-7.5"/><text fill="#000" font-family="KaTeX_Main" font-size="8" transform="translate(378.99 86.77)"><tspan>0.90</tspan></text></g><g fill="none" stroke-linecap="round" stroke-linejoin="round" stroke-width="0" color="#000"><path d="M371.99 64.59h-7.5"/><text fill="#000" font-family="KaTeX_Main" font-size="8" transform="translate(378.99 67.19)"><tspan>0.95</tspan></text></g><g fill="none" stroke-linecap="round" stroke-linejoin="round" stroke-width="0" color="#000"><path d="M371.99 45.01h-7.5"/><text fill="#000" font-family="KaTeX_Main" font-size="8" transform="translate(378.99 47.61)"><tspan>1.00</tspan></text></g><path fill="none" d="M28 45.01V162.5M371.99 45.01H28" color="#000"/><text stroke-linecap="round" stroke-linejoin="round" stroke-width="0" color="#000" font-family="KaTeX_Main" font-size="10" text-anchor="middle" transform="rotate(-90 57.63 46.13)"><tspan font-weight="bold">Rotations</tspan><tspan> / Operations</tspan></text><text stroke-linecap="round" stroke-linejoin="round" stroke-width="0" color="#000" font-family="KaTeX_Main" font-size="10" text-anchor="middle" transform="translate(199.99 195.75)"><tspan>Operations / 10</tspan><tspan dy="-5" font-size="8">6</tspan></text><text stroke-linecap="round" stroke-linejoin="round" stroke-width=".5" color="#000" font-family="KaTeX_Main" font-size="8" transform="translate(110.4 10.11)"><tspan>AVLBottomUp</tspan></text><g fill="none" stroke="currentColor" stroke-linecap="round" stroke-linejoin="round" stroke-width=".5" color="#000"><path stroke="#000" d="M74.9 7.51h29.9M28 45.01h.72l.37.04.36-.04H46.1l.37 98.03.36-.12.36.04.36-.08.37.08.36-.04h.36l.36-.04.36.08h.73l.36-.08h.36l.36.08.37-.04.36-.04.36.08.36-.04h.73l.36.04.36-.04.36-.08.37.12.36-.04.36-.04.36.08.36-.04.37.04.36-.08.36.08.36-.12.36.16.37-.12.36.12.36-.16.36.2.36-.24.37.12h.72l.36.04.36-.08.37.08.36-.04.36-.08.36.12.37-.04h.72l.36-.04.36.04.37.04.36-.08.36.04h.36l.36.08.37-.12h.36l.36.04.36.08.36-.12.37.04.36-.04.36.12.36-.08h.37l.36-.04.36.12.36-.08.36.04.37-.16.36.16.36.04.36-.16.36.04.37.04h.72l.36.04.36-.04h.37l.36.08.36-.12h.36l.36.04.37.04.36-.04.36.04.36-.08.37.04.36-.08.36.12.36-.04.36-.04.37.08h.36l.36-.08.36.04h.36l.37.08.36-.2.36.16.36-.08.36.04.37.04.36-.04.36-.04.36.08.37-.08h.36l.36.08.36-.04.36.08.37-.12.36.08h.36l.36-.12.36.12.37-.08.36.12.36-.08h.36l.36-.04.37.08.36-.12.36.08.36-.04.36.12.37-.08.36-.04.36.08.36.04.37-.16.36.12.36-.12.36.12h.73l.36-.08h.36l.36.12.36-.16.37.04.36.04.36.04.36-.04.36.08.37-.12h.36l.36.04.36-.04.37.12.36-.16.36.16.36-.16.36.12.37-.12.36.12.36-.04.36.04.36-.08.37.04h.36l.36.12.36-.16h.36l.37.08.36-.04.36-.04.36.08.37-.08.36.12.36-.12.36.04h.36l.37-.04.36.12.36-.12.36.04h.73l.36-.04.36.04.36.08.36-.12.37.08.36-.08.36.12.36-.2.36.2.37-.12.36.08.36-.04.36-.04.37.04h.72l.36.04.36-.08.37.12.36-.08.36-.08.36.04.36.08.37-.04h.36l.36-.04.36.04h.73l.36.04.36-.08.36.08.37-.08.36.04.36.04.36-.04.36.08.37-.16.36.12.36-.12.36.12.36-.04.37.12.36-.24.36.2.36-.08h.36l.37-.08.36.08.36.04.36-.04.36.04.37-.08h.36l.36.12.36-.12h.37l.36.04.36.04h.36l.36-.04h.37l.36.04.36-.08h.36l.36.04h.37l.36.04.36-.04.36-.08.36.2.37-.24.36.16.36-.12.36.16.37-.08h.72l.36.04.36-.12.37.08h.72l.36.08.36-.12h.37l.36.08.36-.04h.36l.36-.04.37.12.36-.12.36.04.36.04h.36l.37-.04h.36l.36-.04.36.04.37-.04.36.12.36-.08.36-.04h.36l.37.08.36-.12.36.16.36-.12.36.08.37-.04.36.12.36-.24.36.12.36.08.37-.08.36-.04h.36l.36.04.37.04.36-.08h.36l.36.04.36.08.37-.08.36-.04h.36l.36.12.36-.08.37-.04h.36l.36.08.36-.04.36-.04h.37l.36.12.36-.12.36.08.37-.08.36.04.36.04h.36l.36-.12.37.2.36-.2.36.12.36-.08.36.08.37.04.36-.16.36.12.36-.08.36.04.37-.04.36.08.36-.04h.72l.37-.04.36.08.36-.04.36.04.37-.12.36.2.36-.16.36.04.36-.04.37.08.36-.08.36.04h.36l.36.04.37-.12.36.16.36-.08h.36l.36-.04.37.04h.36l.36.04.36-.08.37.04h.72l.36-.04.36-.04.37.12h.72l.36-.08.36.04.37.08.36-.12h.36l.36.04.36.08.37-.04.36-.04.36-.12.36.24.36-.16h.37l.36.04.36.04.36-.04h.73l.36.08.36-.2.36.2.37-.16.36.08.36.04h.36l.36-.08.37.08.36-.04.36-.08.36.12.36-.04.37.08.36-.16.36.16.36-.12h.37l.36.04.36-.04.36.12.36-.12.37.12.36-.16.36.08h.36l.36.04.37-.12.36.12.36-.08.36.04h.36l.37.04.36-.08.36.08.36-.04h.37l.36-.04.36.08.36-.04.36.04.37-.08h.36l.36.08h.36l.36-.04.37-.04.36.08.36.04.36-.08.36-.12.37.12.36.12.36-.2.36.08.36-.08.37.16.36-.12.36.08.36-.08.37.08.36.04.36-.12.36-.04.36.16.37-.08.36.04.36-.08.36.04h.36l.37-.04h.36l.36.12.36-.16.36.16.37-.12.36.04h.72l.37.04.36-.08.36.04.36-.04h.36l.37.12.36-.08h.36l.36-.04.36.08.37-.12.36.16.36-.16.36.2.36-.16.37.08.36-.04h1.45l.36.04.36-.04h.36l.37-.04.36.04.36-.04h.36l.36.08h.37l.36-.08.36.08h.36l.36-.04h.37l.36-.08.36.08.36.08.36-.04.37-.04.36-.12.36.27.36-.27.37.08h.36l.36.12.36-.08.36.08.37-.16.36.12.36-.08.36.04h.36l.37-.04.36.12.36-.12h.36l.36.04h2.18l.36.08.36-.04.36-.12.37.12.36-.08.36.04.36.04.36-.04h.37l.36.04.36-.08.36.08.36-.16.37.24.36-.16.36.04.36-.04.36.12.37-.16.36.12.36-.04h.36l.37.04.36-.04h.36l.36-.04.36.08.37-.04.36-.04.36.08.36-.08.36.04.37-.04.36.12.36-.08.36-.04.36.08h.37l.36-.12.36.08.36-.04.37.12.36-.12h.72l.36.08.37-.04.36.04.36-.12.36.2.36-.2.37.12.36-.08.36.08.36.04.36-.12h.37l.36.04h.36l.36.04h.36l.37-.12.36.16.36-.08.36-.04.37.04.36-.04.36.08.36-.08.36.12.37-.12.36.04h.36l.36.04.36-.12.37.12.36-.08.36.12.36-.08h.73l.36.04.36-.12.36.12.37-.12.36.16.36-.08.36-.04.36.08.37-.08.36.04.36-.08.36.12h.36l.37-.04h1.08l.36-.04.37.04.36-.04.36.16.36-.16.36.04.37-.04.36.12.36-.12h.36l.37.08.36-.04h.36l.36.04.36-.04.37.08.36-.12.36.04.36-.08.36.08.37.08.36-.04.36-.16.36.16.36-.04.37-.08.36.12.36-.04.36.04.37-.04.36.08.36-.12h.36l.36.12.37-.12.36.04.36-.04.36.08.36-.08.37.08.36-.12.36.12.36-.04.36.04.37-.08h.36l.36.08.36.04.36-.16.37.08.36-.04.36.08.36-.08.37.04h.36l.36.04.36-.04.36-.04h.37l.36.12.36-.04.36-.12.36.16.37-.08h.36l.36-.04.36.04.36.12.37-.2.36.16.36-.2.36.2.37-.16.36.12.36-.08.36.08.36-.04.37-.04.36.04.36.08.36-.08.36-.04.37.08.36-.04h.72l.36-.04.37.08.36-.08.36.08.36-.08h.37l.36.12.36-.08.36-.04.36.08.37-.08.36.04h1.08l.37.04.36-.12.36.12.36-.16.36.2.37-.12.36.12.36-.12.36.04.36.04h.37l.36-.12.36.12.36-.04.37.08.36-.08.36-.08.36.12h.36l.37-.12.36.12.36-.08.36.08.36-.04h.37l.36.04.36-.08.36.08.36-.12.37.04.36.12.36-.04.36-.04.37-.04.36.12.36-.2.36.16.36-.08.37.16.36-.2.36.16.36-.16.36.12.37-.08.36.04h.72l.36.08.37-.12.36-.04.36.16.36-.08.36-.08.37.08h1.45l.36.04.36-.04h.36l.36-.04.37.04.36.04h.36l.36-.08.36.08.37-.12.36.16.36-.12.36.08.36-.08.37.08h.36l.36.04.36-.24.37.2h.36l.36-.08.36.04.36-.04.37.04.36.04.36-.04h.36l.36-.04.37.16.36-.16.36-.04.36.12.36.04.37-.08.36-.04h.36l.36.08.36-.08.37.04h.72l.36.04.37-.08h.36l.36.08.36-.04.36.04.37-.12.36.16.36-.16.36.08h.36l.37.04.36-.04h.36l.36-.04.36.04.37.04.36-.08.36.08.36-.04.37.04.36-.04.36-.04.36.12.36-.12.37.04h.36l.36.04.36-.04h.36l.37-.08.36.12.36-.12.36.16.36-.12.37.04.36.04h.36l.36-.08.37.12.36-.2.36.16.36-.04.36.08.37-.08.36-.08.36.16.36-.12.36-.04.37.04.36.08h.36l.36.04.36-.16.37.08.36.04.36-.08.36.04.36-.08.37.2.36-.16.36.04.36-.08.37.16.36-.12.36.04.36-.04.36.08.37-.04.36.08.36-.08"/><use xlink:href="#e13d3__c" transform="matrix(3.75 0 0 3.75 354.25 142.92)"/><use xlink:href="#e13d3__c" transform="matrix(3.75 0 0 3.75 89.85 7.51)"/></g><text stroke-linecap="round" stroke-linejoin="round" color="#000" font-family="KaTeX_Main" font-size="8" transform="translate(110.4 25.11)"><tspan>AVLTopDown</tspan></text><g fill="none" stroke="currentColor" stroke-linecap="round" stroke-linejoin="round" color="#000"><path stroke="#29C3F6" stroke-dasharray="2.5,4.0" d="M74.9 22.51h29.9M28 142.92h.72l.37.04.36-.04h.36l.36.04.36-.04h.37l.36.04.36-.04h.73l.36.04.36-.04h.36l.36.04.37-.04h.36l.36.04.36-.04h.36l.37.04.36-.04h.72l.36.04.37-.04h.36l.36.04.36-.04h.36l.37.04.36-.04h.72l.37.04.36-.04h.36l.36.04.36-.04h.37l.36.04.36-.04h.36l.36.04.37-.04h.72l.36.04.36-.04h.37l.36.04.36-.04h.36l.37.04.36-.04h.36l.36.04.36-.04h.73l.36.04.36-.04h.36l.37.04.36-.04h.36l.36.04.36-.04h.73l.36.04.36-.04h.37l.36.04.36-.04h.36l.36.04.37-.04h.36l.36.04.36-.04h.73l.36.04.36-.04h.36l.36.04.37-.04h.36l.36.04.36-.04h.73l.36.04.36-.04h.36l.37.04.36-.04h.36l.36.04.36-.04h.37l.36.04.36-.04h.72l.37.04.36-.04h.36l.36.04.36-.04h.37l.36.04.36-.04H70l.37.04.36-.04h.72l.36.04.37-.04h.36l.36.04.36-.04h.36l.37.04.36-.04h.72l.36.04.37-.04h.36l.36.04.36-.04h.36l.37.04.36-.04h.36l.36.04.37-.04h.72l.36.04.36-.04h.37l.36.04.36-.04h.36l.36.04.37-.04h.36l.36.04.36-.04h.73l.36.04.36-.04h.36l.37.04.36-.04h.36l.36.04.36-.04h.73l.36.04.36-.04h.36l.37.04.36-.04h.36l.36.04.36-.04h.37l.36.04.36-.04h.72l.37.04.36-.04h.36l.36.04.37-.04h.36l.36.04.36-.04h.73l.36.04.36-.04h.36l.36.04.37-.04h.36l.36.04.36-.04h.36l.37.04.36-.04h.72l.37.04.36-.04h.36l.36.04.36-.04h.37l.36.04.36-.04h.36l.36.04.37-.04h.72l.36.04.36-.04h.37l.36.04.36-.04h.36l.37.04.36-.04h.72l.36.04.37-.04h.36l.36.04.36-.04h.36l.37.04.36-.04h.36l.36.04.36-.04h.73l.36.04.36-.04h.36l.37.04.36-.04h.36l.36.04.37-.04h.72l.36.04.36-.04h.37l.36.04.36-.04h.36l.36.04.37-.04h.36l.36.04.36-.04h.73l.36.04.36-.04h.36l.37.04.36-.04h.36l.36.04.36-.04h.37l.36.04.36-.04h.72l.37.04.36-.04h.36l.36.04.36-.04h.37l.36.04.36-.04h.72l.37.04.36-.04h.36l.36.04.37-.04h.36l.36.04.36-.04h.36l.37.04.36-.04h.72l.36.04.37-.04h.36l.36.04.36-.04h.36l.37.04.36-.04h.72l.37.04.36-.04h.36l.36.04.36-.04h.37l.36.04.36-.04h.36l.36.04.37-.04h.72l.36.04.36-.04h.37l.36.04.36-.04h.36l.36.04.37-.04h.36l.36.04.36-.04h.73l.36.04.36-.04h.36l.37.04.36-.04h.36l.36.04.36-.04h.73l.36.04.36-.04h.36l.37.04.36-.04h.36l.36.04.37-.04h.36l.36.04.36-.04h.73l.36.04.36-.04h.36l.36.04.37-.04h.36l.36.04.36-.04h.36l.37.04.36-.04h.72l.37.04.36-.04h.36l.36.04.36-.04h.37l.36.04.36-.04h.72l.37.04.36-.04h.36l.36.04.36-.04h.37l.36.04.36-.04h.36l.36.04.37-.04h.72l.36.04.37-.04h.36l.36.04.36-.04h.36l.37.04.36-.04h.72l.36.04.37-.04h.36l.36.04.36-.04h.36l.37.04.36-.04h.36l.36.04.37-.04h.72l.36.04.36-.04h.37l.36.04.36-.04h.36l.36.04.37-.04h.36l.36.04.36-.04h.73l.36.04.36-.04h.36l.36.04.37-.04h.36l.36.04.36-.04h.73l.36.04.36-.04h.36l.37.04.36-.04h.36l.36.04.36-.04h.37l.36.04.36-.04h.72l.37.04.36-.04h.36l.36.04.37-.04h.36l.36.04.36-.04h.73l.36.04.36-.04h.36l.36.04.37-.04h.36l.36.04.36-.04h.36l.37.04.36-.04h.72l.37.04.36-.04h.36l.36.04.36-.04h.37l.36.04.36-.04h.36l.36.04.37-.04h.72l.36.04.36-.04h.37l.36.04.36-.04h.36l.36.04.37-.04h.72l.36.04.37-.04h.36l.36.04.36-.04h.36l.37.04.36-.04h.36l.36.04.36-.04h.73l.36.04.36-.04h.36l.37.04.36-.04h.36l.36.04.37-.04h.36l.36.04.36-.04h.73l.36.04.36-.04h.36l.36.04.37-.04h.36l.36.04.36-.04h.73l.36.04.36-.04h.36l.36.04.37-.04h.36l.36.04.36-.04h.37l.36.04.36-.04h.72l.37.04.36-.04h.36l.36.04.36-.04h.37l.36.04.36-.04h.72l.37.04.36-.04h.36l.36.04.37-.04h.36l.36.04.36-.04h.36l.37.04.36-.04h.72l.36.04.37-.04h.36l.36.04.36-.04h.36l.37.04.36-.04h.36l.36.04.36-.04h.73l.36.04.36-.04h.37l.36.04.36-.04h.36l.36.04.37-.04h.72l.36.04.36-.04h.37l.36.04.36-.04h.36l.36.04.37-.04h.36l.36.04.36-.04h.73l.36.04.36-.04h.36l.37.04.36-.04h.36l.36.04.36-.04h.73l.36.04.36-.04h.36l.37.04.36-.04h.36l.36.04.37-.04h.36l.36.04.36-.04h.73l.36.04.36-.04h.36l.36.04.37-.04h.36l.36.04.36-.04h.36l.37.04.36-.04h.72l.36.04.37-.04h.36l.36.04.36-.04h.37l.36.04.36-.04h.72l.37.04.36-.04h.36l.36.04.36-.04h.37l.36.04.36-.04h.36l.36.04.37-.04h.72l.36.04.37-.04h.36l.36.04.36-.04h.36l.37.04.36-.04h.72l.36.04.37-.04h.36l.36.04.36-.04h.36l.37.04.36-.04h.36l.36.04.36-.04h.73l.36.04.36-.04h.37l.36.04.36-.04h.36l.36.04.37-.04h.36l.36.04.36-.04h.73l.36.04.36-.04h.36l.36.04.37-.04h.36l.36.04.36-.04h.73l.36.04.36-.04h.36l.37.04.36-.04h.36l.36.04.36-.04h.37l.36.04.36-.04h.72l.37.04.36-.04h.36l.36.04.36-.04h.37l.36.04.36-.04h.36l.37.04.36-.04h.72l.36.04.37-.04h.36l.36.04.36-.04h.36l.37.04.36-.04h.72l.36.04.37-.04h.36l.36.04.36-.04h.37l.36.04.36-.04h.36l.36.04.37-.04h.72l.36.04.36-.04h.37l.36.04.36-.04h.36l.36.04.37-.04h.72l.36.04.37-.04h.36l.36.04.36-.04h.36l.37.04.36-.04h.36l.36.04.36-.04h.73l.36.04.36-.04h.36l.37.04.36-.04h.36l.36.04.36-.04h.37l.36.04.36-.04h.73l.36.04.36-.04h.36l.36.04.37-.04h.36l.36.04.36-.04h.73l.36.04.36-.04h.36l.36.04.37-.04h.36l.36.04.36-.04h.37l.36.04.36-.04h.72l.37.04.36-.04h.36l.36.04.36-.04h.37l.36.04.36-.04h.72l.37.04.36-.04h.36l.36.04.36-.04h.37l.36.04.36-.04h.36l.37.04.36-.04h.72l.36.04.37-.04h.36l.36.04.36-.04h.36l.37.04.36-.04h.36l.36.04.36-.04h.73l.36.04.36-.04h.37l.36.04.36-.04h.36l.36.04.37-.04h.72l.36.04.36-.04h.37l.36.04.36-.04h.36l.36.04.37-.04h.36l.36.04.36-.04h.73l.36.04.36-.04h.36l.37.04.36-.04h.36l.36.04.36-.04h.37l.36.04.36-.04h.72l.37.04.36-.04h.36l.36.04.36-.04h.37l.36.04.36-.04h.73l.36.04.36-.04h.36l.36.04.37-.04h.36l.36.04.36-.04h.36l.37.04.36-.04h.72l.36.04.37-.04h.36l.36.04.36-.04h.37l.36.04.36-.04h.72l.37.04.36-.04h.36l.36.04.36-.04h.37l.36.04.36-.04h.36l.36.04.37-.04h.72l.36.04.36-.04h.37l.36.04.36-.04h.36l.37.04.36-.04h.36l.36.04.36-.04h.73l.36.04"/><use xlink:href="#e13d3__d" color="#29C3F6" transform="matrix(3.75 0 0 3.75 67.83 142.92)"/><use xlink:href="#e13d3__d" color="#29C3F6" transform="matrix(3.75 0 0 3.75 89.85 22.51)"/></g><text stroke-linecap="round" stroke-linejoin="round" color="#000" font-family="KaTeX_Main" font-size="8" transform="translate(241.1 10.11)"><tspan>RedBlackBottomUp</tspan></text><g fill="none" stroke="currentColor" stroke-linecap="round" stroke-linejoin="round" color="#000"><path stroke="#F44336" d="M205.6 7.51h29.9M28 143.11l.36-.23.36.12.37-.12.36.08.36-.12h.36l.36.16.37-.12.36.08.36.04.36-.08.37.08.36-.24.36.2h.36l.36-.04.37.12.36-.16h.36l.36.08.36-.16.37.12.36.04h.36l.36-.04.36.08.37-.16.36.2.36-.28.36.31.36-.23.37.08.36-.04.36.19.36-.11.37-.08.36-.08.36.16.36-.04.36-.04.37.08.36-.08.36.19.36-.11.36-.24.37.28.36-.04.36.04.36-.2.36.16.37.11.36-.23h.36l.36.08.37-.04.36.16.36-.16.36-.04.36.12.37.11.36-.23.36.12.36-.12.36.23.37-.31.36.28.36-.2.36.2.36-.2.37.08.36.08.36-.2.36.16h.37l.36-.04.36-.04.36.12.36-.12.37.08h.36l.36-.12.36.16.36-.08.37.08.36-.28.36.28.36-.04.36-.04h.37l.36.04.36-.12.36.16.36-.16.37.27.36-.31.36.2.36-.12.37.08.36-.12.36.2.36-.32.36.28.37.04.36-.24.36.16.36-.04.36.12.37-.2.36.04.36.08h.36l.36.04.37-.16.36.08.36.08.36-.04.37-.32.36.4.36-.16.36.23.36-.27.37.08.36.04.36-.04.36-.04.36.04.37-.04.36.23.36-.27.36.2.36-.28.37.28.36-.24.36.12.36-.04.36.12.37-.08.36.04h.36l.36-.12.37.12.36-.04.36.08.36-.2.36.2h.37l.36-.12.36.12.36-.28.36.24.37-.04.36.08.36-.24.36.35.36-.19.37.08.36-.24.36.2h.36l.37-.04h.36l.36.15.36-.31.36.28.37-.28.36.24.36-.12.36.08.36-.04.37-.04.36.19.36-.19.36-.04.36.12.37.04.36-.2.36.16.36-.04.36.15.37-.15.36-.2.36.32.36-.24.37.27.36-.27.36.16.36-.04.36.15.37-.19.36-.04.36.08.36.12.36-.2.37.08.36.04.36.04.36-.2.36.16.37-.12.36.16.36-.08.36.08.37-.2.36.16.36.04.36-.12.36.12.37-.12h.36l.36.08h.36l.36-.12h.37l.36.23.36-.15h.36l.36-.12.37.27.36-.23.36.2.36-.28.37.24.36-.04h.36l.36-.04h.73l.36.08.36-.28.36.16.36.19.37-.15h.36l.36.04.36-.12.36.16.37-.16.36.16h.36l.36-.12.36.08.37-.12.36.2.36-.16.36-.12.37.24.36-.08.36.19.36-.39.36.28.37-.08.36.08.36-.24.36.28.36-.24.37.31.36-.23h.36l.36.08.36.04.37-.16.36-.04.36.16h.73l.36.04.36-.12h.36l.36.04.37.04.36-.12.36.16h.36l.36-.04.37-.08h.36l.36-.04.36.12h.36l.37-.04.36-.12.36.31.36-.23.36.16.37-.32.36.32.36-.12h.36l.37-.12.36.31.36-.23.36.12.36-.2h.37l.36.24.36-.12.36.04.36-.12.37.2.36-.04.36-.24.36.24.36-.08h.73l.36.04.36.11.37-.27h.36l.36.2.36-.12.36.08.37-.04.36-.04.36.08.36.11.36-.35.37.32.36-.16.36.19.36-.35.36.28.37-.08.36.12.36-.2.36.04h.36l.37.08h.36l.36-.12.36.16.37-.08.36.08.36-.12h.36l.36.12.37-.12.36.12.36-.12h.36l.36-.04.37.2.36-.08.36-.08h.36l.36.16.37-.2.36.08.36-.04.36.16.37-.12.36.08.36-.28.36.35.36-.19.37.16.36-.36.36.28.36.11.36-.23.37.12.36-.08.36.08h.36l.36-.08.37-.08.36.27.36-.11.36-.04h.73l.36.08.36-.32.36.36.37-.2.36.2.36-.12.36.04h.36l.37-.08.36-.04.36.16.36-.12.36.23.37-.31.36.12h.36l.36.12.36-.36.37.32.36-.08.36.08.36-.08.37-.04.36.12.36-.12.36.08.36-.08h.37l.36.08.36.04h.36l.36-.16.37.12.36-.16.36.16.36-.12.36.2.37-.24.36.31.36-.19.36-.08.37.04.36.12.36-.04.36-.08h.36l.37.23.36-.31.36.24.36-.32.36.2.37.08.36-.04.36-.2.36.24.36.04.37-.08.36-.12.36.04.36.16.36-.2.37.12.36-.08.36.12h.36l.37-.24.36.28.36-.28.36.28.36-.16.37.08.36-.12.36.27.36-.35.36.24.37-.08h.72l.36.04h.36l.37.04.36-.28.36.28.36-.12.37.12.36-.12h.36l.36.08h.36l.37.04.36-.16.36.12h.36l.36-.08h.37l.36.12.36-.12.36-.04.36.23.37-.31.36.28.36-.2.36.23.37-.27.36.2.36-.16.36.16.36-.04.37-.04.36-.08.36.2.36-.12.36-.08h.37l.36.08.36.15.36-.15.36-.08.37.16.36-.12.36.12.36-.2.36.12.37.15.36-.15.36.04.36-.16.37.2.36-.04.36-.2.36.16.36.04.37.04.36-.12.36.12.36-.2.36.27.37-.27.36.24.36-.28.36.31.36-.15h.37l.36.04h.36l.36-.24.37.24h.36l.36-.12.36.2.36-.08h.37l.36-.08.36-.04.36.16.36-.12.37.12h.36l.36-.2.36.2.36-.08.37-.08.36.08h.36l.36.08.36-.2.37.31.36-.27.36.12.36-.12.37.2.36-.28.36.28.36-.2.36.27.37-.23.36.04.36-.08h.36l.36.2.37-.16h.36l.36.08.36.08.36-.04.37-.28.36.24.36.04.36-.08.37-.08.36.16.36-.04h.36l.36-.16.37.08.36.08.36.04.36-.08.36-.08.37.08.36.19.36-.35.36.28.36-.2.37.12.36-.08.36.12.36-.2.36.31.37-.31.36.16.36-.08h.36l.37.12.36-.12.36.12.36-.12h.36l.37.12.36-.08.36.08.36-.16.36.12h.37l.36-.08.36-.04.36.16.36-.12.37.12.36-.12h.36l.36.08h.37l.36-.08.36.16.36-.2.36.2.37-.28.36.31.36-.23.36.12.36-.16.37.16.36.11.36-.27.36.12.36.04h.37l.36-.08.36.04.36-.08.37.23.36-.11.36-.16.36.2.36-.04.37.04.36-.36.36.36.36-.08.36.12.37-.12h.36l.36-.08.36.2.36-.2.37.04.36.08.36.11.36-.19.36.04.37-.08.36.23.36-.35.36.28.37-.12h.36l.36.16.36-.12.36.08.37-.16.36.08.36.04.36-.08h.36l.37.16.36-.12.36.04h.36l.36-.32.37.43.36-.19.36.16.36-.28.37.31.36-.11.36-.08h.36l.36.08.37-.08.36.12.36-.12.36.23.36-.35.37.24.36-.2.36.12h.36l.36.08.37-.2.36.2.36.04.36-.2.36.08h.37l.36.12.36-.24.36.12.37.04.36.04h.36l.36-.28.36.2h.37l.36.12.36-.28.36.28.36-.16.37.23.36-.35.36.16.36.04h.36l.37-.04h.36l.36-.08.36.27.37-.35.36.24.36-.16.36.12h.36l.37-.08h.36l.36.12.36-.08.36.04h.37l.36-.16.36.2.36-.08.36.08.37-.16.36-.04.36.31.36-.31.36.24.37-.24.36.2.36-.08.36.08.37-.32.36.43.36-.19.36.08.36-.16.37.12h.36l.36-.08.36-.04.36.04.37.12h.36l.36-.12.36.12.36-.16.37.12.36-.08.36.04.36.15.37-.19.36-.04.36.12.36.04.36-.16h.37l.36.12h.36l.36.04.36-.2.37.24.36-.2.36.23.36-.31.36.16h.37l.36.15.36-.15.36-.04.37.04.36.12.36-.32.36.16.36.12.37-.12.36.16.36-.08.36-.16.36.2.37-.12.36.12.36-.16.36.12.36.08.37-.2.36.16.36-.12.36-.12.36.28.37-.12.36-.08.36.08.36.15.37-.15.36.04.36-.2.36.31.36-.27.37.24.36-.24.36.24.36-.08h.36l.37-.12.36-.04.36.2.36-.04.36-.08h.37l.36.19.36-.19h.36l.37.08.36-.08.36.12.36-.12.36.12.37-.04.36-.08.36-.04.36.08.36.04h.37l.36-.16.36.2.36-.08.36.19.37-.39.36.28.36-.08.36.04.36-.16.37.24.36-.2.36.27.36-.31h.37l.36.2.36-.08.36.08.36-.16.37.12h.36l.36-.08.36.12.36-.12.37.04.36.04h.36l.36-.16.36.2.37-.2.36.27.36-.19.36.04h.73l.36.04.36-.04.36-.12.37.31.36-.23.36.16.36-.32.36.32.37-.12.36.04.36-.24.36.28.36-.04h.37l.36-.04.36-.08.36.2.36-.12h.37l.36-.12.36.24.36-.04.37-.16.36.16.36-.08.36-.04.36-.08.37.2.36-.2.36.31.36-.23.36.12.37-.16.36.12.36-.08.36.04.36.04.37.11.36-.35.36.32.36-.16.37.19.36-.39.36.28h.36l.36-.08.37.16.36-.16.36.04.36.04.36-.04.37-.12.36.2.36-.08.36.12.36-.12.37-.04.36.12.36-.32.36.39.37-.23.36.12.36-.08.36.19.36-.11.37-.12h.36l.36.2.36-.16.36.04h.37l.36.08.36-.08.36.08.36-.32.37.32.36-.04.36.04.36-.24.36.2.37.11.36-.19.36.04.36-.04.37.04.36.04.36-.04.36-.08.36.23.37-.11.36-.16.36.12"/><use xlink:href="#e13d3__a" color="#F44336" transform="matrix(3.75 0 0 3.75 125.4 142.92)"/><use xlink:href="#e13d3__a" color="#F44336" transform="matrix(3.75 0 0 3.75 220.55 7.51)"/></g><path fill="none" d="M28 45.01V162.5M371.99 45.01H28" color="#000"/></svg>