<svg xmlns="http://www.w3.org/2000/svg" xmlns:xlink="http://www.w3.org/1999/xlink" viewBox="0 0 400 200"><path fill="none" d="M0 0h400v200H0z"/><defs><use xlink:href="#10136__a" id="10136__c" fill="currentColor" stroke="none"/><use xlink:href="#10136__b" id="10136__d" fill="currentColor" stroke="none"/><circle id="10136__a" cx="0" cy="0" r="1" stroke="currentColor" stroke-width=".267"/><path id="10136__b" stroke="currentColor" stroke-width=".267" d="m0-1.33-1.33 2h2.66z"/></defs><path fill="none" stroke="#CCC" stroke-linecap="round" stroke-linejoin="round" stroke-width=".1" d="M46.1 162.5V45.01" class="10136__gridline" color="#000"/><g fill="none" stroke-linecap="round" stroke-linejoin="round" stroke-width="0" color="#000"><path d="M46.1 162.5V155m0-109.99v7.5"/><text fill="#000" font-family="KaTeX_Main" font-size="8" text-anchor="middle" transform="translate(46.1 172.6)"><tspan> 1</tspan></text></g><path fill="none" stroke="#CCC" stroke-linecap="round" stroke-linejoin="round" stroke-width=".1" d="M82.31 162.5V45.01" class="10136__gridline" color="#000"/><g fill="none" stroke-linecap="round" stroke-linejoin="round" stroke-width="0" color="#000"><path d="M82.31 162.5V155m0-109.99v7.5"/><text fill="#000" font-family="KaTeX_Main" font-size="8" text-anchor="middle" transform="translate(82.31 172.6)"><tspan> 2</tspan></text></g><path fill="none" stroke="#CCC" stroke-linecap="round" stroke-linejoin="round" stroke-width=".1" d="M118.52 162.5V45.01" class="10136__gridline" color="#000"/><g fill="none" stroke-linecap="round" stroke-linejoin="round" stroke-width="0" color="#000"><path d="M118.52 162.5V155m0-109.99v7.5"/><text fill="#000" font-family="KaTeX_Main" font-size="8" text-anchor="middle" transform="translate(118.52 172.6)"><tspan> 3</tspan></text></g><path fill="none" stroke="#CCC" stroke-linecap="round" stroke-linejoin="round" stroke-width=".1" d="M154.73 162.5V45.01" class="10136__gridline" color="#000"/><g fill="none" stroke-linecap="round" stroke-linejoin="round" stroke-width="0" color="#000"><path d="M154.73 162.5V155m0-109.99v7.5"/><text fill="#000" font-family="KaTeX_Main" font-size="8" text-anchor="middle" transform="translate(154.73 172.6)"><tspan> 4</tspan></text></g><path fill="none" stroke="#CCC" stroke-linecap="round" stroke-linejoin="round" stroke-width=".1" d="M190.94 162.5V45.01" class="10136__gridline" color="#000"/><g fill="none" stroke-linecap="round" stroke-linejoin="round" stroke-width="0" color="#000"><path d="M190.94 162.5V155m0-109.99v7.5"/><text fill="#000" font-family="KaTeX_Main" font-size="8" text-anchor="middle" transform="translate(190.94 172.6)"><tspan> 5</tspan></text></g><path fill="none" stroke="#CCC" stroke-linecap="round" stroke-linejoin="round" stroke-width=".1" d="M227.15 162.5V45.01" class="10136__gridline" color="#000"/><g fill="none" stroke-linecap="round" stroke-linejoin="round" stroke-width="0" color="#000"><path d="M227.15 162.5V155m0-109.99v7.5"/><text fill="#000" font-family="KaTeX_Main" font-size="8" text-anchor="middle" transform="translate(227.15 172.6)"><tspan> 6</tspan></text></g><path fill="none" stroke="#CCC" stroke-linecap="round" stroke-linejoin="round" stroke-width=".1" d="M263.36 162.5V45.01" class="10136__gridline" color="#000"/><g fill="none" stroke-linecap="round" stroke-linejoin="round" stroke-width="0" color="#000"><path d="M263.36 162.5V155m0-109.99v7.5"/><text fill="#000" font-family="KaTeX_Main" font-size="8" text-anchor="middle" transform="translate(263.36 172.6)"><tspan> 7</tspan></text></g><path fill="none" stroke="#CCC" stroke-linecap="round" stroke-linejoin="round" stroke-width=".1" d="M299.57 162.5V45.01" class="10136__gridline" color="#000"/><g fill="none" stroke-linecap="round" stroke-linejoin="round" stroke-width="0" color="#000"><path d="M299.57 162.5V155m0-109.99v7.5"/><text fill="#000" font-family="KaTeX_Main" font-size="8" text-anchor="middle" transform="translate(299.57 172.6)"><tspan> 8</tspan></text></g><path fill="none" stroke="#CCC" stroke-linecap="round" stroke-linejoin="round" stroke-width=".1" d="M335.78 162.5V45.01" class="10136__gridline" color="#000"/><g fill="none" stroke-linecap="round" stroke-linejoin="round" stroke-width="0" color="#000"><path d="M335.78 162.5V155m0-109.99v7.5"/><text fill="#000" font-family="KaTeX_Main" font-size="8" text-anchor="middle" transform="translate(335.78 172.6)"><tspan> 9</tspan></text></g><path fill="none" stroke="#CCC" stroke-linecap="round" stroke-linejoin="round" stroke-width=".1" d="M371.99 162.5V45.01" class="10136__gridline" color="#000"/><g fill="none" stroke-linecap="round" stroke-linejoin="round" stroke-width="0" color="#000"><path d="M371.99 162.5V155m0-109.99v7.5"/><text fill="#000" font-family="KaTeX_Main" font-size="8" text-anchor="middle" transform="translate(371.99 172.6)"><tspan> 10</tspan></text></g><g fill="none" stroke-linecap="round" stroke-linejoin="round" stroke-width="0" color="#000"><path d="M371.99 162.5h-7.5"/><text fill="#000" font-family="KaTeX_Main" font-size="8" transform="translate(378.99 165.1)"><tspan>0.40</tspan></text></g><g fill="none" stroke-linecap="round" stroke-linejoin="round" stroke-width="0" color="#000"><path d="M371.99 142.92h-7.5"/><text fill="#000" font-family="KaTeX_Main" font-size="8" transform="translate(378.99 145.52)"><tspan>0.45</tspan></text></g><g fill="none" stroke-linecap="round" stroke-linejoin="round" stroke-width="0" color="#000"><path d="M371.99 123.34h-7.5"/><text fill="#000" font-family="KaTeX_Main" font-size="8" transform="translate(378.99 125.94)"><tspan>0.50</tspan></text></g><g fill="none" stroke-linecap="round" stroke-linejoin="round" stroke-width="0" color="#000"><path d="M371.99 103.75h-7.5"/><text fill="#000" font-family="KaTeX_Main" font-size="8" transform="translate(378.99 106.35)"><tspan>0.55</tspan></text></g><g fill="none" stroke-linecap="round" stroke-linejoin="round" stroke-width="0" color="#000"><path d="M371.99 84.17h-7.5"/><text fill="#000" font-family="KaTeX_Main" font-size="8" transform="translate(378.99 86.77)"><tspan>0.60</tspan></text></g><g fill="none" stroke-linecap="round" stroke-linejoin="round" stroke-width="0" color="#000"><path d="M371.99 64.59h-7.5"/><text fill="#000" font-family="KaTeX_Main" font-size="8" transform="translate(378.99 67.19)"><tspan>0.65</tspan></text></g><g fill="none" stroke-linecap="round" stroke-linejoin="round" stroke-width="0" color="#000"><path d="M371.99 45.01h-7.5"/><text fill="#000" font-family="KaTeX_Main" font-size="8" transform="translate(378.99 47.61)"><tspan>0.70</tspan></text></g><path fill="none" d="M28 45.01V162.5M371.99 45.01H28" color="#000"/><text stroke-linecap="round" stroke-linejoin="round" stroke-width="0" color="#000" font-family="KaTeX_Main" font-size="10" text-anchor="middle" transform="rotate(-90 57.63 46.13)"><tspan font-weight="bold">Rotations</tspan><tspan> / Operations</tspan></text><text stroke-linecap="round" stroke-linejoin="round" stroke-width="0" color="#000" font-family="KaTeX_Main" font-size="10" text-anchor="middle" transform="translate(199.99 195.75)"><tspan>Operations / 10</tspan><tspan dy="-5" font-size="8">6</tspan></text><text stroke-linecap="round" stroke-linejoin="round" color="#000" font-family="KaTeX_Main" font-size="8" transform="translate(132.8 10.11)"><tspan>LBSTBottomUp</tspan></text><g fill="none" stroke="currentColor" stroke-linecap="round" stroke-linejoin="round" color="#000"><path stroke="#3B75EA" d="M97.3 7.51h29.9M28 53.82l.36-.9.36 2.62.37-5.16.36 5.24.36-4.89.36.7.36 1.33.37.67.36-.43.36-.86.36 1.56.37 3.22.36-1.81.36 2.28.36-6.66.36 2.31.37 4.07.36-.98.36-3.01.36 1.95.36-1.91.37 4.3.36-5.64.36 4.7.36-.86.36.71.37 1.52.36-2.58.36 3.8.36-1.18.36-5.83.37 4.7.36-1.18.36-3.52.36 3.76.37-3.29.36 2.43.36-1.61.36 2.08.36-2.47.37-.74.36.23.36 5.84.36-2.08.36.74.37.08.36-2.23.36 1.96.36-4.23.36 1.72.37 3.84.36-3.68.36 1.8.36-3.29.37 3.21.36-1.1.36-1.13.36.98.36 1.02.37 1.05.36-2.11.36 2.51.36-2.86.36-1.73.37 1.14.36-1.29.36 1.76.36-2.94.36 2.27.37-1.45.36 6.31.36-2.12.36-3.28.37.43.36 1.13.36.2.36 2.46.36-3.13.37 2.16.36-1.65.36 1.92.36-.55.36-3.8.37-.47.36 4 .36-.51.36 2 .36-2.51.37-4.19.36 1.88.36-.47.36.86.36 4.9.37-3.33.36.62.36-2.46h.36l.37 5.75.36-4.3.36-3.22.36 1.84.36-1.13.37 4.38.36-1.64.36-2.66.36-.04.36 1.13.37-1.29.36 2.74.36-.7.36-.59.36 3.17.37-2.74.36 1.92.36-1.64.36 1.99.37-1.92.36-2.27.36.71.36-.63.36 1.21.37 1.34.36-1.06.36 1.13.36 1.61.36.67.37 2.7.36-5.84.36 1.65.36-1.69.36 4.27.37-.55.36-1.56.36-1.41.36 1.25.36-.9.37-.9.36-.55.36 4.15.36-2.07.37 1.76.36-2.74.36.31.36 2.04.36 3.52.37-4.5.36-3.57.36 6.39.36.94.36-7.87.37 5.71.36-4.26.36.58.36-3.05.36 3.56.37 2.19.36-2.5.36 1.53.36.15.37-1.64.36.08.36.82.36 1.13.36-1.95.37.94.36-4.35.36 2.94.36 1.95.36.2.37-.78.36-.63.36 4.07.36-5.24.36 3.44.37-3.09.36 1.29.36-.98.36-2.23.36 5.32.37-1.17.36-1.88.36 2.98.36.98.37-1.96.36-.94.36 3.01.36-8.26.36 6.23.37 2.5.36-4.38.36 4.85.36-9.28.36 2.16.37 6.03.36-3.33.36 1.49.36-.79.36-2.93.37-1.02.36 1.25.36 5.52.36-4.85.37.47.36 3.01.36 1.72.36-3.48.36 4.35.37-2.78.36-.67.36-.31.36.54.36-1.05.37 3.72.36-3.8.36.12.36-5.41.36 5.68.37-3.8.36 4 .36-2 .36.55.37-1.06.36 5.8.36-6.82.36 3.25.36-3.29.37 4.55.36 3.87.36-3.25.36-.7.36-3.25.37 2.35.36.9.36-2.63.36-1.21.36 5.05.37-3.64.36.59.36-1.45.36.15.36 3.61.37-.98.36.23.36.9.36-.94.37-1.84.36 2.55.36-5.91.36 5.09.36-.9.37 1.88.36-1.38.36 1.06.36.32.36.7.37-3.68.36 2.98.36-3.53.36 6.03.36-2.07.37-1.41.36-1.02.36 1.17.36-3.76.37-.11.36 4.07.36-.39.36-2.12.36 3.68.37-2.85.36 2.23.36-1.57.36 1.29.36-1.17.37-1.22.36 2.39.36-.35.36-.78.36-1.1.37.94.36 1.49.36.82.36 2.19.36-5.6.37-.07.36-1.77.36 1.06.36 1.33.37 1.41.36-4.11.36 6.46.36-4.7.36-1.25.37 4.31.36.15.36-.07.36-2.31.36.86.37-4.08.36.55.36 6.39.36-2.32.36-2.38.37 5.36.36-6.97.36 6.66.36-.43.37-4.19.36 3.25.36-4.55.36-1.37.36 4 .37-.47.36-1.76.36 3.64.36-4.74.36 1.76.37-1.68.36 2.35.36-1.1.36 4.82.36-2.86.37-2.15.36 3.99.36-3.68.36-1.49.36-.7.37-1.65.36 4.27.36 4.35.36 1.17.37-1.72.36-3.06.36-1.25.36 3.84.36-4.47.37 2.43.36-3.09.36 1.56.36.32.36 1.8.37-1.41.36.2.36-.91.36 2.47.36 3.8.37-6.77.36 1.17.36-.98.36-1.1.37-1.88.36 2.82.36 1.61.36.94.36-2.15.37-1.26.36 5.49.36-1.96.36.11.36-6.65.37 6.42.36.31.36 1.92.36-4.34.36 2.34.37-.86.36-.58.36.23.36-2.43.37 2.08.36.82.36-3.05.36.51.36-.36.37 2.16.36.51.36 3.32.36-1.64.36-5.21.37 4.58.36-.43.36 4.74.36-6.58.36-1.84.37.55.36 3.64.36-.55.36-1.09.36-.39.37.31.36-2.43.36 4.19.36.12.37.78.36-.7.36.35.36-2.08.36 1.92.37 1.57.36-5.25.36 5.88.36-4.04.36 2.12.37-2.43.36 1.72.36-.63.36.67.36-3.56.37 4.62.36-3.33.36.23.36 4.7.37-4.11.36-1.53.36 3.65.36-8.19.36 6.89.37-3.17.36 1.1.36 2.9.36-1.22.36 5.29.37-5.4.36-.2.36-.71.36-1.52.36-1.84.37 3.36.36-1.25.36 4.15.36 2.04.36-2.98.37-2.5.36 3.79.36-3.32.36-.12.37.98.36 3.01.36-5.79.36 6.62.36.07.37-.94.36-1.25.36-.12.36.47.36 1.45.37-2.78.36-1.56.36.47.36-.71.36.39.37-1.92.36 4.86.36-.63.36-4.85.37 3.17.36.47.36.04.36-1.57.36.71.37 1.68.36-1.06.36-1.13.36 1.56.36 3.68.37-4.62.36-1.21.36 3.33.36-.9.36-2.94h.37l.36 2.12.36-1.53.36 4.66.37-4.66.36 1.92.36-2.27.36 4.07.36-1.41.37 1.53.36-4.08.36 2.59.36-.51.36-2 .37 2.55.36 1.21.36-3.37.36 4.15.36-2.93h.37l.36 1.05.36-8.96.36 8.81.36.23.37-2.54.36 2.11.36-1.49.36 3.65.37-2.75.36-.86.36.36.36 4.03.36-1.84.37-1.22.36-.15.36 2.07.36-.39.36-4.38.37 3.13.36 1.45.36-2.78.36-.04.36-1.26.37-1.44.36 3.21.36 2.27.36-4.04.37 3.14.36.11.36-3.01.36 2.98.36-2.78.37-6.11.36 9.12.36-.82.36-.12.36-.74.37.86.36-4 .36.98.36 4.58.36-2.34.37-.28.36-.23.36 3.05.36-3.72.36-2.19.37 4.38.36-3.48.36 5.72.36.07.37-5.01.36 3.17.36.59.36-4.86.36 2.51.37 1.25.36.75.36 1.92.36-6.78.36.32.37 3.4.36-.9.36-2.54.36 2.62.36 2.94.37-4.62.36.43.36.7.36-1.84.37 1.53.36.39.36 2.66.36-5.83.36 4.23.37-1.61.36.39.36.24.36 1.29.36-2.78.37-1.45.36 3.6.36-.54.36 4.03.36 1.76.37-4.03.36.55.36-4.55.36 4.94.36-5.56.37 1.88.36.86.36-3.76.36 2.15.37.08.36 1.14.36-2.04.36.35.36.79.37-.43.36 2.15.36-.2.36 2.12.36-3.49.37 1.57.36-1.57.36.43.36 1.3.36-2 .37.35.36-3.05.36 5.13.36-1.3.37-.03.36-2.47.36 4.89.36-1.72.36 1.88.37-3.84.36 2.94.36.9.36-3.09.36 3.01.37-3.17.36 3.88.36.31.36-.43.36-6.54.37 6.58.36-1.29.36-1.65.36.86.37.08.36-.16.36.24.36-1.68.36 2.19.37 4.31.36-1.77.36-4.58.36-2.54.36 6.42.37.59.36-5.56.36 3.25.36-.87.36-.78.37 3.33.36-2.58.36 1.17.36-3.76.36 2.59.37-.16.36 1.13.36-.35.36-2.66.37 6.97.36-5.48.36 3.17.36 2.98.36-5.14.37-3.05.36.47.36-.31.36.58.36 4.59.37-3.92.36 2.27.36-1.41.36 2.59.36-1.02.37-4.15.36 3.52.36.28.36-.44.37.55.36-2.82.36 1.53.36-.82.36 2.07.37.47.36-5.91.36 4.58.36-2.62.36-.12.37 1.1.36 6.5.36-5.72.36 2.82.36-3.76.37 1.1.36-1.76.36-1.22.36 5.01.36 2.04.37-1.57.36-3.72.36 1.92.36-.04.37-2.11.36 1.96.36-.55.36 3.37.36.11.37 1.41.36-1.48.36-1.65.36 2.35.36-5.44.37 3.4.36-2.11.36 2.98.36-5.13.36 3.79.37-4.46.36 4.07.36 1.06.36 3.17.37-2.62.36-3.6.36 1.21.36 1.6.36-.78.37-1.72.36 4.19.36-5.95.36 1.05.36-2.15.37 2.04.36.54.36-1.52.36-2.78.36 6.03.37-2.12.36 3.17.36-3.44.36.35.36-.98.37 1.69.36 3.01.36.9.36-2.9.37 3.29.36-4.85.36 2.82.36-1.1.36.12.37-.75.36 1.22.36.35.36-3.37.36 3.84.37-2.27.36 1.92.36-1.37.36 1.64.36-.86.37-.55.36-.19.36-3.92.36 1.41.37 7.6.36-4.66.36-2.23.36 3.13.36.59.37-2.43.36-.35.36-.44.36 1.38.36 1.09.37-1.37.36-.86.36.82.36.55.36.47.37 1.1.36 1.84.36-4.35.36-.82.37-2.47.36 7.01.36-3.05.36-.32.36.67.37-1.37.36-2.67.36 4.43.36-1.37.36 2.15.37 2.43.36-3.56.36-1.37.36 1.84.36-4.35.37 4.46.36-1.09.36.27.36-2.23.36 2.19.37 4.27.36-2.54.36-1.73.36-.04.37-1.33.36-.31.36 3.64.36-1.1.36-3.09.37.35.36 2.47.36-1.33.36-5.05.36 5.09.37-2 .36 4.97.36-3.79.36 1.72.36.16.37-2.51.36-.43.36 3.84.36-2.12.37-1.76.36 4.07.36 4.08.36-4.9.36 2.9.37-3.76.36 1.49.36-8.7.36 11.32.36-.27.37-2.43.36-2.47.36 2.59.36-1.77.36-.58.37-1.06.36 3.33.36-3.29.36.23.36 1.61.37 2.54.36-1.68.36 1.88.36-3.02.37-2.07.36 5.64.36-2.47.36-4.78.36 5.56.37-2.54.36-1.1.36-.31.36-1.49.36 1.53.37 3.68.36.19.36.32.36-.32.36-.94.37 1.14.36-.08.36 1.22.36-1.57.37-1.68.36 4.03.36-5.09.36-1.69.36 2.24.37 3.4.36-4.73.36 3.01.36-2.39.36-2.47.37 1.85.36 3.6.36-5.37.36 2.12.36 2.9.37-.2.36 3.45.36-3.41.36-.55.36 2.35.37-4.11.36 4.31.36-8.38.36 5.83.37-1.21.36.78.36 1.76.36-1.64.36-.94.37 2.23.36 1.29.36-1.84.36-2.66.36-.51.37 2.23.36-.35.36 3.92.36-4.43.36 2.51.37-3.88.36.51.36 3.64.36.24.37-.47.36-.2.36-3.13.36-.98.36-.08.37 1.14.36 2.31.36 2.97.36-1.92.36-.11.37-6.31.36 3.33.36.2.36-2.35.36 5.32.37-4.11.36.51.36 1.57.36 2.07.37-4.78.36 2.12.36 2.86.36-2.2.36-.82.37-2.19.36 4.74.36-.43.36-.55.36 2.23.37-2.94.36.51.36-2.11.36 1.56.36 1.06.37-1.53.36 2.67.36.58.36 2.31.36-7.2.37 2.62.36 2.67.36-3.1.36-1.06.37 1.06.36 5.05.36-6.42.36 3.17.36-2.93.37 5.64.36-3.22.36.2"/><use xlink:href="#10136__a" color="#3B75EA" transform="matrix(3.75 0 0 3.75 354.25 55.78)"/><use xlink:href="#10136__a" color="#3B75EA" transform="matrix(3.75 0 0 3.75 112.25 7.51)"/></g><text stroke-linecap="round" stroke-linejoin="round" color="#000" font-family="KaTeX_Main" font-size="8" transform="translate(132.8 25.11)"><tspan>LBSTTopDown</tspan></text><g fill="none" stroke="currentColor" stroke-linecap="round" stroke-linejoin="round" color="#000"><path stroke="#00C853" stroke-dasharray="1.0,2.0" d="M97.3 22.51h29.9M28 137.28l.36 3.52.36-2.58.37 2.27.36-3.52.36 3.21.36-4 .36 2.08.37.55.36-1.34.36-.82.36-.31.37 2.07.36-1.8.36 1.65.36-2.39.36.27.37 2.16.36-1.1.36-.2.36 2.08.36-.67.37-1.68.36-.47.36.08.36 3.25.36-2.9.37 1.57.36.43.36-1.84.36-.08.36-1.41.37 2.39.36 2 .36-1.73.36 1.1.37-2.19.36 2.93.36-1.88.36.67.36 3.09.37-5.87.36 2.54.36 1.3.36-1.49.36-2.16.37 2.35.36-1.33.36.59.36-.82.36 4.89.37-3.8.36-3.79.36 3.29.36-.79.37 3.45.36-1.02.36-3.05.36.97.36 3.33.37-1.95.36-4.74.36 4.97.36-2.94.36-.19.37 1.02.36.35.36.94.36-1.33.36 1.84.37-.75.36 4.12.36-8.35.36 2.27.37 5.1.36-1.02.36-2.35.36 3.25.36-1.22.37.24.36-1.53.36-.66.36 2.78.36-2.9.37-2.98.36 5.41.36-2.74.36 1.01.36-1.05.37-1.45.36 3.76.36-2.31.36.27.36-1.02.37 1.65.36-.55.36-1.1.36 1.96.37 1.8.36-2.5.36 2.66.36-2.98.36-.66.37 1.17.36-.39.36.74.36-.74.36-1.37.37-.16.36.04.36-.86.36 1.84.36 3.41.37-1.61.36-.15.36.94.36-2.98.37 2.58.36-2.82.36.83.36.39.36 1.92.37-1.92.36 1.02.36-.12.36-2.98.36.82.37 1.1.36 3.37.36-2.39.36.59.36-1.06.37-.39.36.51.36-1.57.36-.31.36 4.03.37-.12.36-2.46.36 3.37.36-3.53.37.78.36-1.09.36 2.11.36-.98.36.36.37-.87.36.75.36.82.36-3.37.36 1.84.37-.51.36-3.05.36 1.06.36.15.36 1.3.37 1.64.36.63.36 1.68.36-2.74.37 2.23.36-2.97.36-1.22.36 2.04.36-.28.37 1.88.36-1.8.36.28.36.51.36-1.34.37-1.52.36 3.21.36-.75.36 1.3.36-2.39.37-1.57.36 4.7.36-4.5.36 1.76.36 1.45.37-.35.36-2.12.36 5.01.36-.86.37-4.54.36 1.33.36 1.29.36-1.21.36-.31.37.27.36-.35.36 1.02.36-1.1.36-.08.37 2.94.36-1.65.36 1.65.36-3.25.36 1.25.37-.74.36 3.01.36-1.25.36-1.92.37.86.36 1.8.36-3.95.36-.16.36 1.92.37.98.36 1.1.36-2.08.36 2.23.36 1.06.37-1.72.36-1.14.36-1.92.36 1.14.36 1.49.37-2.9.36 1.72.36.71.36.19.37-.39.36-.27.36-.83.36 3.33.36-4.42.37 3.72.36-1.1.36.51.36 2 .36-4.82.37 2 .36.86.36-3.6.36 1.29.36 1.96.37-.12.36-.71.36-.54.36 1.05.36-.04.37-2.54.36 2.31.36 1.96.36-3.61.37.47.36.4.36 1.25.36 1.1.36-1.77.37-2.07.36 4.78.36-1.65.36-.74.36 1.21.37-2 .36 3.53.36-2.43.36 2.47.36-.71.37-3.13.36 2.51.36-2.2.36-1.02.37 3.69.36-.87.36-3.83.36.94.36 3.64.37-2.51.36-1.53.36 3.06.36-4.54.36 5.6.37-4.43.36 4.43.36.04.36.23.36-3.64.37-.51.36 2.74.36.78.36-.43.36.55h.37l.36-4.93.36 4.85.36-2.82.37.28.36-.9.36 1.25.36 1.17.36 1.57.37-2.31.36.51.36-1.84.36 1.72.36 1.8.37-2.11.36.82.36-.35.36 1.02.36-.32.37 1.14.36-1.18.36-.97.36-.55.37 2.23.36-1.41.36-.04.36-1.68.36 2.78.37-.79.36-3.87.36.98.36 2.7.36 1.37.37-3.13.36 2.19.36-1.06.36-1.33.36 1.45.37.04.36-.43.36.62.36-2.46.36 2.07.37-1.64.36 2.43.36 1.33.36-.83.37 2.32.36-.63.36-2 .36-.27.36-.83.37.75.36.63.36 1.01.36-1.92.36-.11.37-1.88.36 3.4.36-2.46.36 1.8.36.16.37-1.88.36-.08.36.39.36.31.37-2.39.36 1.73.36-.94.36 4.07.36-3.49.37 1.53.36-.86.36-1.8.36 1.02.36.82.37-.04.36.43.36.67.36-3.76.36 2.03.37 3.29.36-4.38.36 2.27.36-.08.37-.27.36.78.36-3.57.36-.54.36 4.54.37-.51.36.16.36-.59.36 1.49.36.23.37-1.6.36 1.99.36-2.7.36-.15.36.07.37-.11.36 1.68.36-.55.36-.47.36-2.62.37 1.92.36 1.92.36-1.69.36-.19.37 1.09.36-2.46.36 2.7.36 1.13.36-1.99.37 1.76.36-1.29.36 1.76.36-3.41.36-.19.37-1.1.36 5.21.36-1.02.36-.2.36-.15.37 2.97.36-3.52.36.16.36 1.95.37-4.11.36 1.18.36 1.84.36-4.51.36 2.78.37-1.05.36 1.76.36-1.76.36 2.78.36.31.37-2.31.36 2.35.36-6.78.36 4.47.36-.08.37-1.25.36.74.36 3.84.36-2.15.36-.4.37 2.55.36-3.41.36.75.36.31.37.74.36.08.36-1.92.36 1.53.36.43.37.63.36-.35.36.23.36-2.74.36 1.76.37-.08.36-2.23.36 1.57.36 1.52.36-2.78.37.79.36.82.36 2.11.36-2.78.37 1.22.36-4.39.36 2.59.36 1.45.36-1.69.37 1.45.36-.7.36-.08.36-1.88.36 3.33.37-.94.36-.71.36-3.13.36 5.56.36-1.53.37-.9.36.47.36.9.36 1.1.37-1.76.36-1.22.36-.98.36 1.88.36-2.15.37 3.25.36-1.61.36.36.36-1.26.36-.51.37.83.36 1.56.36.86.36.08.36-.82.37-1.45.36 2.47.36-2.31.36-1.53.36 1.84.37 2.82.36-6.11.36 4.47.36 1.99.37-2.62.36-.35.36.7.36 1.02.36-4.5.37 3.48.36.86.36-1.01.36 3.68.36-5.37.37-1.17.36 3.83.36-.97.36 1.72.36-2.12.37-1.41.36 1.14.36 1.92.36-1.25.37.86.36.58.36-2.93.36 1.52.36-1.33.37.59.36 1.84.36-.39.36-2.62.36-.24.37 1.53.36-.79.36-.07.36 2.19.36-.94.37.35.36-.31.36-2.23.36 4.34.36-3.56.37 2.55.36-4.08.36 1.8.36.98.37.39.36 1.18.36 1.45.36-4.54.36 2.62.37-1.14.36-.7.36 1.06.36-1.26.36 2.39.37 1.22.36-2.98.36-.63.36.63.36.35.37-1.76.36.7.36.55.36-.78.37 2 .36.47.36-1.41.36.08.36 3.4.37-6.69.36 1.17.36 2.62.36 2 .36-1.25.37-5.21.36 3.68.36.2.36.74.36-1.49.37 2.31.36 2.28.36-3.29.36 1.76.36-2.39.37.98.36-.35.36-3.57.36 5.13.37-1.84.36-2.7.36 3.33.36.31.36-3.05.37-.24.36 1.72.36 1.22.36.59.36-2.98.37.86.36-1.57.36 1.53.36 1.45.36 1.84.37-2.27.36.35.36-.11.36-.44.37.59.36-.27.36-1.1.36.82.36 1.26.37-2.43.36-.51.36.74.36.71.36 4.82.37-3.84.36 1.49.36-.51.36-2.31.36.7.37.63.36.35.36-1.45.36 1.88.37-.16.36-1.64.36 1.14.36-2.35.36 2.89.37 2.71.36-2.47.36-2.7.36-1.14.36 4.9.37-2.55.36.08.36 1.57.36-.12.36-1.8.37 1.76.36-3.88.36 4.07.36-.97.36.19.37-.23.36-.47.36.47.36-.83.37-1.21.36 1.1.36 4.58.36-4.39.36 1.02.37.43.36-4.35.36 2.31.36.2.36 3.02.37-3.37.36 2.47.36-.16.36.59.36-4.08.37 1.69.36-2.24.36 2.2.36-.71.37-.66.36.39.36 3.64.36-3.33.36 2.9.37-1.96.36-.78h.36l.36-1.02.36 1.53.37-1.73.36 3.53.36-2.04.36.86.36-.43.37.16.36.82.36-.08.36.16.36 1.14.37-1.77.36 1.34.36-.83.36-.51.37-1.91.36 2.03.36.47.36-.86.36 1.06.37-.2.36-.59.36 2.08.36-3.09.36 2.93.37-3.05.36.04.36.39.36-.86.36 2.47.37-3.26.36 2.75.36.11.36 2.08.37-2 .36-2.43.36 1.3.36-1.69.36 2.51.37-.43.36.59.36-.47.36-.12.36-1.37.37 3.56.36-2.31.36 1.8.36-2.94.36-.07.37-.2.36 2.23.36-1.8.36-.66.36.35.37 1.64.36-2.66.36 3.99.36-2.42.37-.67.36 1.25.36.71.36-3.76.36 1.17.37 1.22.36-.39.36.23.36 1.57h.36l.37-4.19.36 3.84.36 2.27.36-.47.36-2.39.37 1.88.36.31.36-4.93.36 2.11.37 3.49.36-.86.36-1.06.36.19.36-.27.37-2.08.36 3.06.36-3.1.36-.7.36 3.49.37-.2.36-2.51.36-.9.36-.39.36 1.88.37-.31.36 1.25.36-.08.36-2.54.37.86.36 3.21.36-1.49.36-.78.36 1.8.37-.74.36-1.41.36.27.36-1.29.36-3.06.37 8.62.36-.82.36-.59.36-2.35.36.74.37-1.56.36.78.36 1.1.36.35.36.08.37-.08.36.51.36.78.36-2.66.37-.2.36-.98.36 2.71.36.66.36-1.25.37-1.73.36 2.2.36-.59.36-.67.36.98.37.47.36.2.36-2.62.36.94.36.15.37 2.55.36-3.41.36.59.36-2.08.37 3.17.36-.27.36-.59.36.55.36.47.37-1.45.36-.27.36-1.22.36 2.55.36-.71.37-.11.36-3.06.36 2.27.36 3.65.36-2.82.37-2.75.36 4.16.36 1.05.36-2.62.36-1.33.37 3.17.36.63.36-3.18.36-1.91.37 3.68.36 1.92.36-2 .36-1.25.36 1.68.37-1.84.36.08.36 1.99.36-2.31.36 2.94.37 1.8.36-3.68.36.2.36.23.36.59.37-1.18.36.71.36.55.36-1.88.37-.82.36 3.44.36-3.84.36-2.97.36 6.73.37-2.82.36 1.84.36-1.13.36.04.36-.47.37 2.23.36-1.8.36-.28.36 1.41.36-.47.37 1.18.36-2.9.36.94.36-3.33.36 3.8.37-.94.36 1.88.36-3.56.36-.24.37 1.29.36 1.45.36.83.36 1.8.36-3.1.37.94.36 1.02.36-.47.36-1.49.36-3.17.37 3.21.36 1.22.36-1.92.36-.86.36 1.72.37-.24.36.79.36-.39.36 1.8.37-1.37h.36l.36-1.37.36 3.83.36-2.15.37.35.36-1.64.36 2.27.36-1.14.36.47.37-1.99.36 1.72.36-2.51.36 2.2.36 2.86.37-3.61.36-.82.36-.27.36 2.54.37-.9.36.43.36 1.29.36-3.52.36-.98.37.78.36.71.36 1.37.36 1.88.36-3.06.37-.39.36 2.78.36-1.25.36-.27.36-.04.37-1.18.36 1.53.36.7.36-.58.36-1.34.37.12.36 1.96.36-1.76.36 2.54.37.98.36-3.05.36-.67.36.12.36-3.25.37 5.91.36.75.36-1.22"/><use xlink:href="#10136__c" color="#00C853" transform="matrix(3.75 0 0 3.75 67.83 134.89)"/><use xlink:href="#10136__c" color="#00C853" transform="matrix(3.75 0 0 3.75 112.25 22.51)"/></g><text stroke-linecap="round" stroke-linejoin="round" color="#000" font-family="KaTeX_Main" font-size="8" transform="translate(241.1 10.11)"><tspan>WBSTBottomUp</tspan></text><g fill="none" stroke="currentColor" stroke-linecap="round" stroke-linejoin="round" color="#000"><path stroke="#000" d="M205.6 7.51h29.9M28 140.96l.36 2.11.36-2.81.37 2.78.36-2.94.36 2.54.36-3.01.36 1.6.37 1.57.36-3.21.36-.55.36.78.37 1.49.36-1.09.36-.12.36-1.88.36 1.88.37 1.21.36-.66.36.08.36 1.09.36-.62.37-.24.36-1.45.36-.82.36 2.9.36-1.45.37 1.02.36.74.36-2.08.36 1.69.36-2.47.37 1.29.36.59.36-.94.36 2.12.37-1.41.36.39.36-.24.36.2.36 2.74.37-5.64.36 3.29.36 1.72.36-2.15.36-2.27.37 2.27.36-.82.36.51.36-.75.36 5.64.37-3.95.36-3.14.36 2.39.36-.7.37 4.7.36-4.86.36-.59.36 2.78.36 1.57.37-1.92.36-3.8.36 2.35.36-.78.36-.67.37-.11.36.15.36 1.53.36.27.36 1.53.37-3.48.36 5.2.36-6.42.36 2.35.37 3.17.36-1.41.36-1.25.36 2.7.36-.78.37.35.36-.66.36-1.34.36 1.73.36-3.17.37-1.3.36 4.23.36-1.92.36-.51.36 1.34.37-1.84.36 1.88.36-1.3.36-.98.36 2 .37.24.36-.51.36-1.92.36 2.9.37 1.64.36-2.94.36 3.37.36-3.29.36-.98.37 1.06.36 1.25.36-.47.36-1.25.36-1.41.37.04.36.82.36-1.09.36.97.36 3.06.37-1.57.36.55.36-.08.36-2.5.37 1.41.36-2 .36 1.02.36 1.17.36 1.49.37-.86.36-.12.36-.31.36-1.96.36.51.37 2.39.36 1.68.36-1.49.36.08.36-2.03.37 1.44.36-.11.36-1.96.36-.63.36 4.74.37-.98.36-1.37.36 3.33.36-3.41.37-.31.36.59.36.94.36-.32.36.59.37-.27.36-1.37.36.78.36-1.84.36-.59.37 2.82.36-5.56.36 2.66.36-.04.36.71.37.66.36 1.3.36 1.92.36-3.8.37 2.74.36-2.86.36-.47.36 1.37.36.63.37.98.36-1.3.36-.31.36.04.36-1.02.37-1.68.36 3.76.36-.04.36-.12.36-1.17.37-.04.36 2.89.36-4.81.36 2.27.36 1.21.37.71.36-3.14.36 4.74.36-2.03.37-2.63.36-.43.36 2.08.36-1.61.36 1.49.37-.51.36-1.1.36 2.55.36-2.62.36-.32.37 2.78.36.04.36-.15.36-1.65.36 1.76.37-.7.36 1.1.36-.12.36-2.94.37 3.53.36-.63.36-3.6.36.47.36 1.8.37.47.36 1.6.36-1.45.36 1.37.36 1.53.37-2.03.36-2.04.36-1.25.36 1.17.36 1.45.37-4.19.36 2.27.36.9.36 1.14.37.47.36-1.65.36-.47.36 3.25.36-5.87.37 5.09.36-1.68.36-.79.36 3.45.36-4.35.37.28.36 2.66.36-3.45.36 1.06.36 2.7.37-2.58.36.51.36 1.25.36-.24.36-1.25h.37l.36 1.72.36.71.36-1.29.37-2.43.36-.04.36 1.76.36.75.36-.08.37-3.1.36 4.66.36.32.36-3.57.36 3.37.37-2.23.36 2.82.36-4.66.36 5.36.36-1.01.37-2.75.36 1.96.36-1.96.36-1.72.37 3.25.36-1.72.36-1.02.36-1.21.36 3.99.37-1.49.36-2.03.36 2.46.36-4.97.36 7.05.37-2.47.36 1.8.36.67.36-1.18.36-3.25.37.47.36 2.67.36.31.36-.39.36.86.37-.31.36-1.96.36 1.1.36-2.75.37 1.61.36-1.18.36.28.36 2.58.36.32.37-1.02.36.23.36-2.35.36 1.96.36 2.59.37-2 .36-1.1.36.55.36-.23.36.54.37 3.29.36-4.19.36.2.36-.27.37 1.37.36-1.3.36 2.2.36-4.31.36 5.17.37-2.59.36-4.27.36 3.96.36-1.17.36 1.95.37-2.39.36 2.79.36-1.38.36-2.27.36.9.37 2.47.36-1.37.36 1.37.36-3.72.36 3.41.37-1.96.36 2.11.36.44.36.31.37 2.39.36-2.31.36-.63.36-.78.36-1.69.37 2.04.36-.55.36 1.76.36-2.19.36.47.37-1.96.36 2.94.36-1.14.36.94.36 1.06.37-2.15.36-.55.36 1.29.36.35.37-1.8.36 1.84.36-1.05.36 3.25.36-4.82.37 2.11.36-1.33.36.28.36-.83.36 2.24.37-.98.36.35.36.31.36-2.31.36 2.7.37.47.36-1.13.36.12.36.04.37.07.36-.7.36-2.63.36-.66.36 4.86.37 1.09.36-1.92.36-.35.36 1.61.36-1.57.37-.08.36 2.98.36-1.37.36-1.8.36-1.57.37.94.36.27.36-.58.36 1.17.36-2.04.37 1.92.36 2.51.36-2.43.36-1.29.37 1.92.36-2.86.36 2.51.36.66.36-.39.37 1.64.36-1.01.36.62.36-2.5.36-.9.37.35.36 3.44.36-1.8.36 2.16.36-1.57.37 2.94.36-2.59.36-1.56.36 2.35.37-3.33.36 2.19.36 1.25.36-4.93.36 1.33.37.74.36.71.36-.9.36 2.62.36-.9.37-.66.36 2.27.36-6.82.36 3.37.36-.47.37 1.1.36-.79.36 2.71.36-1.73.36-.07.37 2.15.36-3.06.36.91.36 1.68.37-1.45.36 2 .36-3.92.36 3.33.36-.59.37 2.04.36-1.49.36.35.36-3.09.36 2.86.37-.67.36-2.86.36 1.02.36 2.16.36-3.29.37 1.09.36 2.78.36-.19.36-2.23.37 3.83.36-5.17.36 1.96.36 1.69.36-2.86.37 2.31.36-2.9.36 3.25.36-1.64.36.5.37-.66.36-.75.36-2.27.36 6.23.36-3.29.37.27.36.08.36.83.36.74.37-.67.36-1.25.36-1.68.36 2.58.36-3.13.37 4.31.36-1.45.36.27.36-.55.36-1.21.37 1.21.36 1.1.36.43.36-1.21.36-.04.37-.2.36.98.36-2.82.36 1.53.36.47.37 2.46.36-6.18.36 2.9.36 3.44.37-2.7.36-.59.36.12.36 1.72.36-4.03.37 2.62.36.12.36 1.1.36 1.29.36-4.15.37-1.84.36 4.27.36-.08.36 2.19.36-3.13.37-1.33.36 1.45.36.78.36-1.33.37 1.52.36 1.49.36-2.66.36.23.36.04.37 1.26.36.86.36-1.29.36-1.96.36.98.37-.16.36-.12.36.32.36 1.13.36-1.6.37.86.36 1.02.36-2.71.36 2.67.36-2.27.37 2.5.36-4.11.36 3.17.36.28.37-.63.36 1.88.36.82.36-2.74.36 1.68.37-.74.36-1.68.36 2.7.36-2.23.36.94.37 1.17.36-1.29.36-2.39.36 1.25.36 2.31.37-2.07.36.39.36.78.36-1.21.37.94.36-.9.36-.32.36.47.36 3.29.37-6.42.36 2 .36 1.84.36 2.27.36-2 .37-4.7.36 4.47.36-.71.36.24.36-2.19.37 3.05.36 2.74.36-3.29.36 2.39.36-5.05.37 3.05.36-.94.36-1.68.36 3.99.37-2.5.36-.51.36.82.36.86.36-1.6.37-1.69.36 2.04.36 1.72.36.16.36-3.41.37.71.36-1.02.36 1.13.36-.58.36 3.68.37-1.84.36 1.45.36-1.96.36.35.37.67.36-.16.36-3.33.36 2.55.36 1.45.37-2.98.36 1.17.36-.62.36 1.06.36 4.03.37-4.94.36 2.71.36-.16.36-.67.36-.15.37 1.09.36-.9.36-1.29.36 3.72.37-2.78.36-.04.36-.15.36-2.2.36 4.74.37 2.31.36-2.97.36-1.81.36-1.99.36 4.7.37-3.1.36.24.36-.04.36.39.36-1.14.37 1.18.36-2.78.36 4.19.36-2.43.36 2.12.37-1.26.36-1.33.36.94.36.71.37-1.06.36-.16.36 4.15.36-3.95.36.9.37.62.36-3.05.36 2.7.36-.82.36 2.47.37-4.98.36 5.6.36-1.25.36-.39.36-3.45.37 2.2.36-3.88.36 2.15.36.79.37-.63.36-1.37.36 5.32.36-4.07.36 2.12.37-1.41.36.15.36-.27.36-.35.36 2.62.37-3.05.36 2.62.36-1.37.36.12.36 1.29.37.27.36-.7.36-.16.36.67.36.86.37-1.84.36 1.64.36-1.13.36-.24.37-2.82.36 2.9.36.16h.72l.37.7.36-.47.36 1.02.36-1.88.36 1.33.37-3.48.36 1.64.36-.51.36.43.36 1.37.37-3.05.36 1.68.36-.47.36 3.1.37-1.84.36-.71.36 1.33.36-1.99.36 1.6h.37l.36.39.36-.58.36-.08.36-.86.37 1.41.36-.44.36.94.36-1.8.36-.82.37-.98.36 3.57.36-2.67.36-.98.36 1.88.37.94.36-2.46.36 3.32.36-2.46.37-.63.36 2.94.36-1.1.36-.94.36-.78.37 2.5.36-1.13.36.31.36-.51.36 1.33.37-3.56.36 3.17.36 1.96.36-.9.36-1.17.37.47.36-.75.36-1.96.36-.62.37 5.6.36-2.51.36.55.36-1.76.36.74.37-2.7.36 1.56.36.71.36-2.19.36 4.23.37-1.37.36-1.22.36-2 .36-1.95.36 4.3.37-1.09.36 2.35.36-.55.36-2.08.37-.15.36 2.35.36-2.08.36 1.84.36 1.49.37-.94.36-.67.36.59.36-1.57.36-4.42.37 9.55.36-3.05.36-.12.36-.78.36 1.64.37-1.68.36.98.36-.31.36.23.36.55.37-.63.36-.15.36-.2.36-1.8.37 1.33.36-2.35.36 3.02.36.54.36-1.44.37.5.36.2.36-1.02.36 1.73.36-.44.37 1.84.36-1.01.36-3.1.36 3.06.36-1.22.37 1.92.36-3.52.36.39.36-.27.37 1.37.36-.36.36.71.36-.75.36.55.37.2.36-.47.36-2.19.36 3.25.36-.55.37-.16.36-3.52.36 1.45.36 3.29.36-1.73.37-2.43.36 2.75.36 1.64.36-2.27.36-1.22.37 1.65.36 1.33.36-.59.36-2.74.37.98.36 2 .36-.2.36-.98.36-.74.37-.59.36.2.36 3.44.36-3.44.36 3.17.37.51.36-3.76.36 2.04.36-.43.36 1.09.37-1.13.36.58.36.87.36-2.04.37.43.36 1.33.36-2.27.36-2.66.36 5.95.37-2.15.36-.94.36.7.36-1.06.36-.04.37 1.69.36-.86.36.78.36-.39.36-.47.37 1.6.36-1.92.36-.35.36-2.86.36 5.02.37-2.28.36.98.36-1.45.36-2.31.37 2.71.36.51.36 1.13.36 1.65.36-2.82.37.35.36 1.02.36.62.36-1.72.36-2.74.37 3.52.36 1.77.36-2.86.36-2.08.36 2.19.37.04.36.2.36-.43.36.82.37-.08.36 1.22.36-3.1.36 4.58.36-1.99.37.08.36-1.37.36 1.48.36-.86.36.24.37-1.65.36 1.02.36-.7.36.27.36 5.21.37-5.05.36-.24.36.16.36 2.43.37-1.61.36 1.25.36-.27.36-.74.36-4.23.37 3.01.36.59.36.59.36 1.84.36-2.71.37-.97.36 3.13.36-.47.36-1.49.36 1.1.37-.08.36-1.49.36 2.9.36-2 .36-1.02.37-1.09.36 2.42.36-.35.36 2.08.37.23.36-.27.36-3.06.36.79.36-2.67.37 3.92.36.74.36-1.68"/><use xlink:href="#10136__b" transform="matrix(3.75 0 0 3.75 125.4 141.86)"/><use xlink:href="#10136__b" transform="matrix(3.75 0 0 3.75 220.55 7.51)"/></g><text stroke-linecap="round" stroke-linejoin="round" color="#000" font-family="KaTeX_Main" font-size="8" transform="translate(241.1 25.11)"><tspan>WBSTTopDown</tspan></text><g fill="none" stroke="currentColor" stroke-linecap="round" stroke-linejoin="round" color="#000"><path stroke="#29C3F6" stroke-dasharray="4.0,2.0,1.0,2.0" d="M205.6 22.51h29.9M28 141.43l.36 2.19.36-3.09.37 3.92.36-3.84.36 2.23.36-2 .36 1.49.37.94.36-2.82h.36l.36 1.33.37-.55.36-.43.36-.39.36-1.33.36 1.88.37 1.14.36-1.1.36-.31.36 2.07.36-1.53.37.04.36-1.17.36-.59.36 2.63.36-1.3.37.75h.36l.36-.2.36.78.36-2.07.37.7.36.87.36-1.38.36 2.71.37-1.96.36.39.36-.23.36.11.36 3.61.37-6.62.36 3.56.36.94.36-1.29.36-2.08.37 2.74.36-1.76.36.63.36-.94.36 5.72.37-3.41.36-2.82.36 1.88.36.04.37 3.88.36-5.96.36-.04.36 3.14.36 2.35.37-3.18.36-2.78.36 2.31.36-.94.36-.15.37-.43.36.08.36 1.05.36.67.36 2.11.37-3.33.36 4.63.36-7.33.36 2.82.37 3.68.36-1.21.36-1.49.36 1.53.36.59.37.15.36-1.25.36-1.68.36 2.19.36-2.66.37-1.77.36 4.12.36-1.92.36-.08.36.47.37-1.84.36 2.35.36-.75.36-.51.36 1.45.37-.15.36-.75.36-1.17.36 1.92.37 2.42.36-3.32.36 2.58.36-3.09.36-.59.37 1.45.36.94.36-.51.36-.67.36-1.29.37-.12.36-.15.36-.59.36 1.41.36 2.7.37-.78.36.08.36.43.36-3.21.37 2.31.36-1.57.36-.86.36 2.58.36.47.37-.62.36-.63.36-.2.36-1.13.36.15.37 2.59.36 1.64.36-2.31.36.79.36-2 .37.98.36.27.36-1.72.36-1.37.36 4.54.37.47.36-2.23.36 2.78.36-2.66.37.15.36-.58.36 1.56.36-1.21.36 1.02.37-.59.36-.82.36.62.36-1.6.36-.51.37 2.31.36-5.6.36 3.45.36-.55.36 1.25.37-.08.36 1.73.36.97.36-2.15.37 1.92.36-3.21h.36l.36 1.33.36.2.37 1.48.36-1.17.36-.94.36.27.36-.78.37-1.45.36 4.11.36-1.56.36 1.05.36-.98.37-.5.36 3.44.36-4.93.36 1.84.36 1.21.37.28.36-2.67.36 5.05.36-2.38.37-2.12.36-.74.36 2.19.36-1.72.36 1.45.37-1.65.36-.08.36 2.67.36-2.67.36-.04.37 3.61.36-1.1.36-.74.36-1.22.36 1.73.37-.24.36-.2.36.63.36-2.9.37 3.41h.36l.36-3.84.36.47.36 2 .37.16.36 1.6.36-1.17.36 1.29.36.63.37-1.18.36-2.04.36-1.64.36 1.72.36.98.37-3.56.36 1.45.36 1.02.36 1.09.37.32.36-1.1.36-.59.36 3.41.36-5.45.37 4.78.36-.82.36-1.25.36 2.93.36-3.99.37.74.36 2.12.36-3.57.36.91.36 1.72.37-.82.36-.75.36 1.26.36.35.36-1.65.37.39.36 1.1.36 1.33.36-1.84.37-2.07.36-.04.36 1.56.36.47.36.55.37-3.01.36 4.7.36-.55.36-2.59.36 2.39.37-2.39.36 3.49.36-4.35.36 5.56.36-1.72.37-2.82.36 2.35.36-2.08.36-1.84.37 3.68.36-2.03.36-1.37.36-.83.36 4.04.37-1.8.36-2.27.36 2.46.36-4.15.36 6.78.37-3.41.36 1.29.36 2.19.36-.97.36-3.37.37.59.36 1.52.36 1.84.36-1.56.36.58.37.63.36-2.23.36 1.96.36-3.49.37 2.08.36-2.12.36 1.22.36 1.45.36 1.13.37-.43.36-.47.36-1.84.36 1.41.36 2.43.37-2.2.36-1.25.36 1.69.36-1.02.36.27.37 3.56.36-3.56.36.31.36-1.01.37 2.46.36-1.64.36.98.36-3.41.36 4.23.37-1.53.36-5.13.36 4.31.36-.67.36 1.49.37-2.58.36 2.82.36-.59.36-3.37.36 1.61.37 1.53.36-.2.36.86.36-3.52.36 2.58.37-1.06.36 2.04.36.74.36-.07.37 2.66.36-3.06.36-.19.36-1.53.36-1.33.37 1.29.36 1.49.36.94.36-2.74.36.47.37-1.88.36 2.94.36-1.3.36 1.65.36-.04.37-.82.36-.94.36 1.05.36.91.37-2.47.36 1.72.36-.98.36 3.25.36-4.15.37 1.84.36-.9.36.31.36-.7.36.86.37-.19.36.66.36.63.36-2.39.36 1.68.37.98.36-1.53.36.36.36.15.37-.43.36.12.36-2.04.36-1.88.36 4.63.37 2.07.36-2.9.36-.23.36 1.88.36-.63.37-.59.36 2.71.36-1.84.36-2.51.36-.67.37.98.36.75.36-.24.36 1.1.36-3.37.37 2.31.36 3.13.36-3.25.36-.47.37 3.1.36-4.66.36 2.31.36 1.52.36-.86.37 1.26.36-.47.36.07.36-1.52.36-.2.37-.23.36 3.25.36-1.61.36 1.45.36-1.49.37 2.63.36-2.94.36.04.36 1.84.37-3.25.36 2 .36.62.36-5.21.36 2.59.37-.43.36 1.37.36-.39.36 3.32.36-2.11.37-.82.36 2.7.36-6.78.36 3.26.36-.47.37.62.36-.82.36 2.7.36-.66.36-.87.37 1.61.36-2.82.36 1.96.36.78.37-.86.36 1.45.36-3.45.36 1.92.36.67.37 2.03.36-2.5.36 1.25.36-3.45.36 3.33.37-.78.36-3.29.36 1.53.36 1.92.36-3.41.37 1.76.36 2.74.36-.54.36-2.16.37 3.17.36-4.58.36 2.43.36 1.72.36-2.74.37 2.19.36-2.82.36 2.51.36-2.04.36 1.02.37-.43.36.24.36-3.41.36 5.52.36-2.62.37-.43.36.51.36 1.33.36-.2.37-.66.36.19.36-2.23.36 2 .36-2.35.37 4.27.36-1.61.36-.2.36.36.36-1.57.37-.23.36 1.33.36.9.36-1.22.36-.51.37.36.36 1.13.36-2.27.36.82.36 1.26.37 1.99.36-6.38.36 3.92.36 1.95.37-2.62.36.35.36-.35.36 1.69.36-4.12.37 3.33.36-.47.36 1.02.36 1.68.36-4.11.37-2.23.36 5.44.36-1.25.36 2.43.36-3.06.37-1.01.36.03.36 1.65.36-.71.37.51.36 1.96.36-3.17.36 1.96.36-1.22.37.71.36 2.03.36-1.99.36-2.55.36 1.8.37-.19.36-.2.36-.47.36 2.35.36-1.25.37.78.36.98.36-3.56.36 3.13.36-3.13.37 3.44.36-3.91.36 1.76.36 1.02.37-1.37.36 2.82.36.66.36-2.86.36 1.88.37-.47.36-2.23.36 2.59.36-1.77.36.55.37.86.36-.78.36-2.47.36 1.14.36 3.05.37-2.07.36-.39.36.51.36-.32.37.86.36-.31.36-1.49.36 1.76.36 2.28.37-7.37.36 3.21.36 1.69.36 2.58.36-2.15.37-4.03.36 3.32.36-.35.36.98.36-3.64.37 3.52.36 3.14.36-3.72.36 1.95.36-3.91.37 3.17.36-1.33.36-1.92.36 3.92.37-2.28.36-1.76.36 1.8.36 1.26.36-1.57.37-1.06.36 1.57.36 1.25.36-.11.36-3.1.37 1.49.36-1.92.36 1.14.36-.67.36 3.09.37-.47.36-.47.36-.35.36-.19.37.98.36-.2.36-3.25.36 2.27.36 2.19.37-3.72.36 1.49.36-.08.36.28.36 4.77.37-4.93.36 1.61.36.43.36-.71.36-.47.37 1.41.36-.62.36-1.81.36 3.33.37-2.66.36.16.36.07.36-1.88.36 4.31.37 2.51.36-2.86.36-2.51.36-1.64.36 4.54.37-2.07.36-.9.36-.16.36 1.17.36-1.72.37 2.51.36-3.37.36 3.76.36-2.7.36 3.05.37-2.15.36-1.45.36 2.39.36-.36.37-.7.36-.16.36 4.11.36-4.34.36 1.45.37.74.36-3.72.36 2.23.36-1.37.36 3.76.37-5.17.36 5.13.36-1.25.36.23.36-3.17.37 1.41.36-3.21.36 1.8.36.79.37-.28.36-2.19.36 5.75.36-4.34.36 2.43.37-1.37.36.62.36-.51.36-.51.36.98.37-.86.36 2.7.36-1.68.36.08.36.98.37-.04.36-.43.36.43.36-.04.36.94.37-1.1.36 1.53.36-1.21.36-.71.37-1.84.36 2.08.36.47.36-.28.36.04.37-.12.36.04.36 1.25.36-2.46.36 1.6.37-4.19.36 2.82.36-.58.36-.08.36 2.39.37-3.61.36 1.22.36.15.36 2.55.37-1.96.36-.47.36.51.36-1.17.36 1.29.37.86.36.39.36-1.25.36-.08.36-.59.37 1.61.36-.79.36.55.36-.98.36-.19.37-2.43.36 3.49.36-2.35.36-.83.36 1.77.37.62.36-1.76.36 2.94.36-1.26.37-1.88.36 2.94.36-.98.36-1.8.36-.08.37 2.9.36-1.45.36.78.36-.03.36.23.37-2.11.36 1.01.36 3.53.36-.79.36-2.03.37.86.36-1.41.36-1.72.36-.16.37 4.46.36-1.05.36-.04.36-1.1.36.35.37-2.7.36 1.92.36-.63.36-1.01.36 3.36.37-.58.36-2.08.36-1.49.36-.94.36 3.1.37-.08.36 2.07.36-.62.36-2.67.37-.19.36 2.7.36-1.72.36 1.29.36 1.68.37-.7.36-1.29.36.78.36-1.72.36-3.72.37 9.32.36-4.19.36.27.36.28.36.97.37-1.64.36.04.36 1.37.36-.39.36.27.37-.27.36-.28.36.24.36-1.88.37.12.36-.79.36 1.96.36 1.18.36-1.84.37.35.36.23.36-.7.36 1.13.36-.31.37 2.35.36-.71.36-4.26.36 4.26.36-1.95.37 2.46.36-4.03.36 1.18.36-1.1.37 1.17h.36l.36.24.36-1.02.36.82.37.51.36.08.36-2.23.36 2.47.36-.24.37-.47.36-3.6.36 1.76.36 3.88.36-2.35.37-2.39.36 3.84.36.82.36-2.23.36-1.06.37 2.07.36.79.36-.79.36-2.11.37 1.14.36 1.48.36-.39.36-1.37.36.28.37-1.18.36-.2.36 4.59.36-4.23.36 3.4.37.16.36-3.33.36 2.23.36-.78.36.16.37.59.36-.55.36.23.36-1.33.37.78.36.98.36-2.39.36-1.41.36 4.66.37-2.07.36-.2.36.16.36-.55.36-1.02.37 1.26.36-.98.36 1.05.36.32.36.78.37.2.36-1.49.36-.55.36-2.62.36 4.66.37-1.92.36 1.06.36-1.81.36-2.89.37 3.91.36.35.36.67.36 1.64.36-2.19.37-.04.36.94.36-.23.36-.79.36-3.13.37 3.49.36 1.29.36-1.33.36-2.35.36 1.33.37-.31.36.54.36-.78.36 2.47.37-1.02.36 1.61.36-3.96.36 4.66.36-2.23.37 1.37.36-2.19.36 1.95.36-.31.36-.16.37-1.99.36.82.36-.71.36.98.36 4 .37-4.23.36-.67.36.04.36 2.67.37-1.81.36.98.36-.11.36-.94.36-3.53.37 2.9.36-.12.36.75.36 2.7.36-3.76.37-.43.36 3.56.36-1.72.36-.63.36 2.12.37-1.53.36-.55.36 2.27.36-1.29.36-1.92.37-.63.36 2.78.36-.27.36 1.21.37.36.36-.36.36-2.07.36.12.36-3.49.37 4.54.36 1.73.36-1.96"/><use xlink:href="#10136__d" color="#29C3F6" transform="matrix(3.75 0 0 3.75 182.98 140.41)"/><use xlink:href="#10136__d" color="#29C3F6" transform="matrix(3.75 0 0 3.75 220.55 22.51)"/></g><path fill="none" d="M28 45.01V162.5M371.99 45.01H28" color="#000"/></svg>