<svg xmlns="http://www.w3.org/2000/svg" xmlns:xlink="http://www.w3.org/1999/xlink" viewBox="0 0 400 200"><path fill="none" d="M0 0h400v200H0z"/><defs><use xlink:href="#aba6b__a" id="aba6b__b" fill="currentColor" stroke="none"/><use xlink:href="#aba6b__a" id="aba6b__c" stroke="currentColor" transform="rotate(180)"/><path id="aba6b__a" stroke="currentColor" stroke-width=".267" d="m0-1.33-1.33 2h2.66z"/></defs><path fill="none" stroke="#CCC" stroke-linecap="round" stroke-linejoin="round" stroke-width=".1" d="M46.1 162.5V45.01" class="aba6b__gridline" color="#000"/><g fill="none" stroke-linecap="round" stroke-linejoin="round" stroke-width="0" color="#000"><path d="M46.1 162.5V155m0-109.99v7.5"/><text fill="#000" font-family="KaTeX_Main" font-size="8" text-anchor="middle" transform="translate(46.1 172.6)"><tspan> 1</tspan></text></g><path fill="none" stroke="#CCC" stroke-linecap="round" stroke-linejoin="round" stroke-width=".1" d="M82.31 162.5V45.01" class="aba6b__gridline" color="#000"/><g fill="none" stroke-linecap="round" stroke-linejoin="round" stroke-width="0" color="#000"><path d="M82.31 162.5V155m0-109.99v7.5"/><text fill="#000" font-family="KaTeX_Main" font-size="8" text-anchor="middle" transform="translate(82.31 172.6)"><tspan> 2</tspan></text></g><path fill="none" stroke="#CCC" stroke-linecap="round" stroke-linejoin="round" stroke-width=".1" d="M118.52 162.5V45.01" class="aba6b__gridline" color="#000"/><g fill="none" stroke-linecap="round" stroke-linejoin="round" stroke-width="0" color="#000"><path d="M118.52 162.5V155m0-109.99v7.5"/><text fill="#000" font-family="KaTeX_Main" font-size="8" text-anchor="middle" transform="translate(118.52 172.6)"><tspan> 3</tspan></text></g><path fill="none" stroke="#CCC" stroke-linecap="round" stroke-linejoin="round" stroke-width=".1" d="M154.73 162.5V45.01" class="aba6b__gridline" color="#000"/><g fill="none" stroke-linecap="round" stroke-linejoin="round" stroke-width="0" color="#000"><path d="M154.73 162.5V155m0-109.99v7.5"/><text fill="#000" font-family="KaTeX_Main" font-size="8" text-anchor="middle" transform="translate(154.73 172.6)"><tspan> 4</tspan></text></g><path fill="none" stroke="#CCC" stroke-linecap="round" stroke-linejoin="round" stroke-width=".1" d="M190.94 162.5V45.01" class="aba6b__gridline" color="#000"/><g fill="none" stroke-linecap="round" stroke-linejoin="round" stroke-width="0" color="#000"><path d="M190.94 162.5V155m0-109.99v7.5"/><text fill="#000" font-family="KaTeX_Main" font-size="8" text-anchor="middle" transform="translate(190.94 172.6)"><tspan> 5</tspan></text></g><path fill="none" stroke="#CCC" stroke-linecap="round" stroke-linejoin="round" stroke-width=".1" d="M227.15 162.5V45.01" class="aba6b__gridline" color="#000"/><g fill="none" stroke-linecap="round" stroke-linejoin="round" stroke-width="0" color="#000"><path d="M227.15 162.5V155m0-109.99v7.5"/><text fill="#000" font-family="KaTeX_Main" font-size="8" text-anchor="middle" transform="translate(227.15 172.6)"><tspan> 6</tspan></text></g><path fill="none" stroke="#CCC" stroke-linecap="round" stroke-linejoin="round" stroke-width=".1" d="M263.36 162.5V45.01" class="aba6b__gridline" color="#000"/><g fill="none" stroke-linecap="round" stroke-linejoin="round" stroke-width="0" color="#000"><path d="M263.36 162.5V155m0-109.99v7.5"/><text fill="#000" font-family="KaTeX_Main" font-size="8" text-anchor="middle" transform="translate(263.36 172.6)"><tspan> 7</tspan></text></g><path fill="none" stroke="#CCC" stroke-linecap="round" stroke-linejoin="round" stroke-width=".1" d="M299.57 162.5V45.01" class="aba6b__gridline" color="#000"/><g fill="none" stroke-linecap="round" stroke-linejoin="round" stroke-width="0" color="#000"><path d="M299.57 162.5V155m0-109.99v7.5"/><text fill="#000" font-family="KaTeX_Main" font-size="8" text-anchor="middle" transform="translate(299.57 172.6)"><tspan> 8</tspan></text></g><path fill="none" stroke="#CCC" stroke-linecap="round" stroke-linejoin="round" stroke-width=".1" d="M335.78 162.5V45.01" class="aba6b__gridline" color="#000"/><g fill="none" stroke-linecap="round" stroke-linejoin="round" stroke-width="0" color="#000"><path d="M335.78 162.5V155m0-109.99v7.5"/><text fill="#000" font-family="KaTeX_Main" font-size="8" text-anchor="middle" transform="translate(335.78 172.6)"><tspan> 9</tspan></text></g><path fill="none" stroke="#CCC" stroke-linecap="round" stroke-linejoin="round" stroke-width=".1" d="M371.99 162.5V45.01" class="aba6b__gridline" color="#000"/><g fill="none" stroke-linecap="round" stroke-linejoin="round" stroke-width="0" color="#000"><path d="M371.99 162.5V155m0-109.99v7.5"/><text fill="#000" font-family="KaTeX_Main" font-size="8" text-anchor="middle" transform="translate(371.99 172.6)"><tspan> 10</tspan></text></g><g fill="none" stroke-linecap="round" stroke-linejoin="round" stroke-width="0" color="#000"><path d="M371.99 162.5h-7.5"/><text fill="#000" font-family="KaTeX_Main" font-size="8" transform="translate(378.99 165.1)"><tspan>0.35</tspan></text></g><g fill="none" stroke-linecap="round" stroke-linejoin="round" stroke-width="0" color="#000"><path d="M371.99 151.82h-7.5"/><text fill="#000" font-family="KaTeX_Main" font-size="8" transform="translate(378.99 154.42)"><tspan>0.40</tspan></text></g><g fill="none" stroke-linecap="round" stroke-linejoin="round" stroke-width="0" color="#000"><path d="M371.99 141.14h-7.5"/><text fill="#000" font-family="KaTeX_Main" font-size="8" transform="translate(378.99 143.74)"><tspan>0.45</tspan></text></g><g fill="none" stroke-linecap="round" stroke-linejoin="round" stroke-width="0" color="#000"><path d="M371.99 130.46h-7.5"/><text fill="#000" font-family="KaTeX_Main" font-size="8" transform="translate(378.99 133.06)"><tspan>0.50</tspan></text></g><g fill="none" stroke-linecap="round" stroke-linejoin="round" stroke-width="0" color="#000"><path d="M371.99 119.78h-7.5"/><text fill="#000" font-family="KaTeX_Main" font-size="8" transform="translate(378.99 122.38)"><tspan>0.55</tspan></text></g><g fill="none" stroke-linecap="round" stroke-linejoin="round" stroke-width="0" color="#000"><path d="M371.99 109.1h-7.5"/><text fill="#000" font-family="KaTeX_Main" font-size="8" transform="translate(378.99 111.7)"><tspan>0.60</tspan></text></g><g fill="none" stroke-linecap="round" stroke-linejoin="round" stroke-width="0" color="#000"><path d="M371.99 98.41h-7.5"/><text fill="#000" font-family="KaTeX_Main" font-size="8" transform="translate(378.99 101.01)"><tspan>0.65</tspan></text></g><g fill="none" stroke-linecap="round" stroke-linejoin="round" stroke-width="0" color="#000"><path d="M371.99 87.73h-7.5"/><text fill="#000" font-family="KaTeX_Main" font-size="8" transform="translate(378.99 90.33)"><tspan>0.70</tspan></text></g><g fill="none" stroke-linecap="round" stroke-linejoin="round" stroke-width="0" color="#000"><path d="M371.99 77.05h-7.5"/><text fill="#000" font-family="KaTeX_Main" font-size="8" transform="translate(378.99 79.65)"><tspan>0.75</tspan></text></g><g fill="none" stroke-linecap="round" stroke-linejoin="round" stroke-width="0" color="#000"><path d="M371.99 66.37h-7.5"/><text fill="#000" font-family="KaTeX_Main" font-size="8" transform="translate(378.99 68.97)"><tspan>0.80</tspan></text></g><g fill="none" stroke-linecap="round" stroke-linejoin="round" stroke-width="0" color="#000"><path d="M371.99 55.69h-7.5"/><text fill="#000" font-family="KaTeX_Main" font-size="8" transform="translate(378.99 58.29)"><tspan>0.85</tspan></text></g><g fill="none" stroke-linecap="round" stroke-linejoin="round" stroke-width="0" color="#000"><path d="M371.99 45.01h-7.5"/><text fill="#000" font-family="KaTeX_Main" font-size="8" transform="translate(378.99 47.61)"><tspan>0.90</tspan></text></g><path fill="none" d="M28 45.01V162.5M371.99 45.01H28" color="#000"/><text stroke-linecap="round" stroke-linejoin="round" stroke-width="0" color="#000" font-family="KaTeX_Main" font-size="10" text-anchor="middle" transform="rotate(-90 57.63 46.13)"><tspan font-weight="bold">Rotations</tspan><tspan> / Operations</tspan></text><text stroke-linecap="round" stroke-linejoin="round" stroke-width="0" color="#000" font-family="KaTeX_Main" font-size="10" text-anchor="middle" transform="translate(199.99 195.75)"><tspan>Operations / 10</tspan><tspan dy="-5" font-size="8">6</tspan></text><text stroke-linecap="round" stroke-linejoin="round" stroke-width=".5" color="#000" font-family="KaTeX_Main" font-size="8" transform="translate(99.2 10.11)"><tspan>AVLBottomUp</tspan></text><g fill="none" stroke="currentColor" stroke-linecap="round" stroke-linejoin="round" stroke-width=".5" color="#000"><path stroke="#000" d="M63.7 7.51h29.9M28 64.53l.36-1.19.36-.49.37 2.13.36-3.18.36 2.01.36.83.36-1.88.37.34.36.84h.36l.36.12.37-1.34.36.02.36-.06.36 1.9.36-1.13.37 3.65.36.19.36-.41.36 1.95.36-1.33.37 1.93.36-5.13.36 4.57.36-.04.36-1.48.37.77.36-1.68.36 3.03.36-4.12.36 4.63.37-3.25.36 2.44.36-2.8.36-.08.37-2.08.36 2.52.36-.23.36 3.89.36-2.48.37 2.22.36-2.07.36-1.9.36-2.44.36 5.34.37-.72.36.04.36 1.88.36-4.89.36 1.56.37 39.2.36-2.61.36.49.36.98.37-.98.36 1.2.36-2.07.36 3.8.36-1.99.37 1.33.36-.94.36.38.36-1.64.36-.47.37 3.9.36-4.03.36-.15.36 2.2h.36l.37.92.36-2.18.36.21.36 1.52.37-.51.36 1.28.36-2.55.36 1.54.36-.79.37.66.36-1.04.36.23.36-1.15.36.19.37.45.36 2.33.36-1.73.36-1.13.36.55.37-.3.36-.72.36.51.36 1.69.36-1.35.37 2.12.36-3.27.36 1.13.36-1 .37 1.51.36-.34.36 3.01.36-2.71.36.08.37-1.62.36.19.36 2.03.36-.04.36 1.56.37-2.16.36 1.69.36.34.36-2.67.36-.51.37-1.9.36 4.38.36-1.43.36-1.5.37 1.67.36.49.36-3.01.36 1.36.36-.89.37.7.36 1.6.36 1.73.36-3.01.36-.66.37.72.36-.23.36 1.82.36-1.5.36 1.47.37-2.35.36 2.25.36-3.19.36 4.6.36-2.74.37 1.16.36-2.01.36 1.37.36-2.52.37 2.52.36.94.36-.56.36.6.36-3.01.37 4.06.36-2.95.36 1.21.36-1 .36 1.65.37-.45.36-2.18.36 1.71.36 1.26.36-1.16.37 2.97.36-1.66.36-.02.36.62.37-.45.36-1.69.36 1.73.36-2.29.36 1.93.37.3.36-1.29.36.28.36-1.66.36 1.7.37-.79.36-.66.36 2.76.36-.47.36-2.08.37.41.36 2.12.36 1.47.36-2.69.36.25.37-.36.36 1.05.36-1.07.36-.66.37-.22.36 1.01.36-2.37.36 2.77.36.77.37-3.18.36 1.15.36.41.36-.49.36.3.37-.6.36-.62.36.17.36-.32.36 3.2.37-2.13.36 1.15.36.9.36.15.37-.94.36.34.36-.15.36.19.36.11.37-1.69.36 2.54.36-1.56.36.09.36-.51.37-1.78.36.45.36.67.36 1.66.36-.19.37-1.56.36.23.36 1.03.36-1.09.37 2.33.36-.71.36-1.19.36-1.45.36-.94.37 5.44.36-2.92.36-.58.36 1.17.36-1.6.37.88.36-.96.36.92.36.53.36.21.37-.89.36-1.01.36.62.36 3.57.36-2.71.37 1.21.36-.45.36.18.36-.22.37-2.07.36.81.36-.6.36 3.7.36-1 .37-1.99.36.45.36-.6.36.62.36 2.28.37-2.03.36-.55.36.96.36-1.88.36 1.75.37-.51.36-.06.36 2.07.36-4.72.37.51.36 2.84.36.51.36-1.3.36-.13.37 2.07.36-1.98.36-.71.36-.94.36 2.8.37-2.84.36 2.48.36.98.36.53.36-3.01.37 3.19.36-1.26.36.57.36-1.86.36-1.13.37-1 .36 2.82.36.85.36.15.37-.26.36-.57.36-4.49.36 3.53.36 2.22.37.21.36-1.28.36-2.84.36 2.48.36-.88.37 1.67.36-1.26.36-.73.36-.81.36 1.17.37.75.36-1.62.36 1.37.36 1.32.37-.9.36-.85.36-1.26.36 2.48.36-1.01.37-1.24.36-.15.36 1.88.36-.38.36-.24.37-2.56.36.77.36 2.67.36-2.26.36 2.37.37 1.24.36-3.61h.36l.36 1.4.36-.1.37.81.36-1.03.36 1.03.36-2.14.37-.55.36 2.16.36 1.26.36 1.06.36-4.82.37 1.11.36 1.77.36.73.36-1.09.36 1.92.37-1.35.36-.96.36.54.36 1.13.36-1.07.37-2.26.36 3.97.36-1.97.36-2.64.37 4.44.36-3.29.36.17.36-.19.36 3.29.37.04.36-1.9.36-.88.36 1.54.36.36.37-2.32.36.32.36 2.09.36-2.54.36 2.33.37-1.69.36 1.52.36-.52.36.75.37 1.03.36-3.96.36 2.84.36-1.23.36-.18.37.33.36 1.17.36-1.79.36.64.36.08.37-.38.36.19.36-1.3.36.38.36 1.24.37 1.52.36-2.67.36.66.36 1.07.36-.56.37-3.42.36 5.34.36-2.35.36.86.37.85.36.24.36-1.58.36-1.03.36.77.37.71.36-.32.36.76.36-2.86.36 4.17.37-.73.36-3.37.36 1.36.36 1.86.36-4.18.37 1.32.36 1.28.36-1.66.36 1.43.37-.24.36 2.05.36-.83.36-1.71.36 1.15.37 1.58.36.43.36-4.7.36 3.25.36-3.91.37 2.16.36 2.07.36-3.14.36 5.08.36-2.88.37-1.92.36 1.45.36 1.73.36-.32.36-.92.37-2.16.36 3.51.36-1.2.36-.47.37-1.11.36.79.36-1 .36 4.82.36-1.73.37.2.36-.94.36 1.6.36-3.4.36 3.63.37-3.09.36 1.47.36 1.67.36-2.29.36.02.37-.9.36 2.05.36-1.85.36.36.37.98.36.6.36.11.36 2.15.36-2.69.37-3.29.36-.1.36 2.86.36 1.26.36 1.99.37-5.45.36 2.86.36-1.64.36.42.36-1.38.37 1 .36-.26.36.71.36-.69.37 1.29.36-1.33.36-.38.36 1.36.36-2.22.37 2.35.36 1.26h.36l.36-1.41.36-.4.37-.92.36.06.36 1.03h.36l.36 2.73.37-4.12.36 2.88.36-1.13.36-.45.36.64.37-3.48.36-.53.36 2.99.36 2.37.37-.71.36-1.75.36-1.54.36 1.39.36-.36.37-.9.36 1.16.36.74.36 1.69.36-1.62.37-.56.36-1.36.36.66.36 4.08.36-3.08.37-.32.36 1.92.36-2.69.36 3.55.37-1.88.36 1.51.36-2.92.36 1.58.36-2.24.37 2.45.36-.57.36-.99.36 3.23.36-3.63.37 3.03.36-1.92.36-.04.36 2.82.36-4.17.37 2.46.36-1.99.36 2.43.36.47.36-2.6.37 2.84.36-2.41.36.15.36.49.37.45.36-2.08.36 3.81.36-1.95.36 1.45.37-3.61.36 2.72.36-2.18.36-.26.36.28.37 2.8.36-1.13.36-2.31.36.15.36 2.11.37-.89.36-1.37.36 2.52.36.04.37.56.36-.54.36-.42.36.04.36 2.69.37-2.84.36-.24.36.65.36 2.11.36-1.32.37-1.39.36-.07.36-1.88.36 2.31.36.04.37-.74.36-.24.36-.75.36-.47.36 4.08.37-5.81.36 5.17.36-1.17.36.89.37-1.47.36-3.63.36 2.67.36 1.43.36-1.64.37.1.36.09.36 4.44.36-5.21.36 1.75.37.38.36-2.67.36.8.36.53.36-.39.37.41.36 2.73.36-1.77.36-1.34.37 2.67.36-1.31.36-1.11.36 3.23.36-3.01.37 1.28.36.34.36-.34.36-.37.36 1.59.37-.58.36-2.37.36 2.03.36.38.36-2.11.37.25.36-.32.36 1.35.36-1.39.37 1.45.36-.1.36-3.08.36 2.54.36 1.99.37-1.6.36 1.28.36-1.26.36.27.36-.47.37-.87.36 2.2.36-.51.36-2.03.36 2.01.37-2.42.36 1.8.36.83.36-.94.36-2.09.37.85.36 3.03.36-3.05.36-1.84.37 3.5.36-1.81.36.92.36 1.69.36.21.37.96.36-2.09.36.36.36-1.41.36 1.13.37-2.56.36 1.69.36 2.41.36-.23.36-3.34.37 2.4.36-2.67.36.12.36 2.82.37-.04.36-3.18.36 4.31.36-4.21.36 4.4.37-3.56.36.27.36.71.36-.47.36 1 .37-1.58.36 1.48.36.47.36.53.36-2.86.37 2.24.36.39.36-.32.36-2.18.36.34.37 2.33.36.68.36-1.79.36 1.21.37.13.36-1.62.36 2.39.36-3.12.36.43.37-1.45.36.36.36 2.58.36-.06.36-1.02.37-1.35.36-.73.36 1.69.36.62.36 1.03.37-2.42.36.73.36 2.52.36-1.6.37.19.36-1.97.36-1.41.36 2.7.36-.73.37-.15.36 2.46.36-2.05.36-1.39.36-2.93.37 5.58.36 1.81.36-1.13.36-.66.36.53.37-1.28.36-.09.36-.91.36 3.43.36-1.77.37-2.45.36 3.31.36-1.35.36.06.37-.68.36 1.07.36-2.84.36 1.11.36 3.31.37-1.24.36-.62.36-.98.36-.41.36 1.11.37-.32.36-.13.36 1.82.36-1.86.36 2.67.37-1.71.36-2.15.36.57.36-.06.37-1.2.36.49.36 1.22.36.86.36 1.34.37 2.27.36-3.96.36-1.58.36 2.78.36-1.6.37-1.52.36 1.24.36.21.36 1.63.36-3.46.37 3.41.36-3.26.36 1.15.36 1.26.37-1.6.36.55.36-.15.36.84.36 1.36.37 1.59.36-4.36.36 3.22.36-.19.36-.53.37-.11.36-1.67.36.24.36.68.36-.1.37-1.24.36 2.45.36-.08.36-.45.36-1.52.37 1.78.36 1.64.36-.34.36-3.91.37 2.07.36.49.36-.21.36 1.09.36-1.77.37.53.36.43.36-.58.36.53.36-3.41.37 2.82.36 1 .36-2.33.36 1.97.36-.54.37-.57.36 2.43.36-3.08.36 1.82.37 3.12.36-2.97.36-1.28.36-.07.36 3.19.37-1.54.36-.24.36-2.43.36 3.1.36-2.63.37-.15.36 3.48.36-3.33.36 2.84.36-2.29.37-3.84.36 4.1.36 1.05.36-.32.36-1.61h.37l.36 1.01.36-.51.36-.13.37 2.41.36-1.49.36-.92.36-.13.36-.56.37-.1.36-1.92.36 3.78.36-2.99.36 2.99.37 1.71.36-1.84.36-.49.36-.71.36 1.95.37.02.36-1.95.36 2.76.36-3.8.37.3.36 1.32.36.38.36-.4.36 3.05.37.22.36-1.86.36-1.45.36-1.82.36 3.67.37-1.38.36-.39.36-1.3.36 1.96.36.24.37-2.24.36-.2.36-.42.36 1.51.36.43.37 1.58.36-1.99.36-.34.36 4.4.37-4.21.36-.19.36 2.1.36-1.14.36 1.05.37-.88.36.35.36-.99.36.2.36.12.37.84.36-.54.36.92.36.51.36-1.73.37 1.54.36-1.45.36.02.36.68.37.62.36-.47.36-2.22.36 4.15.36-3.29.37.49.36.75.36 1.26.36-1.93.36.13.37 1.11.36-1.49.36.34.36.47.36-.34.37-.2.36 1.2.36-.43.36.07.37 1.75.36-3.1.36.47.36 1.03.36-.81.37.29.36-1.26.36 2.06.36-.86.36-1.17.37-1.35.36 2.86.36-1.32.36.81.36-.58.37-.19.36.92.36.68.36-.45.36-.36.37-.53.36-2.12.36 2.72.36.94.37.21.36-1.41.36.32.36.23.36.03.37-.32.36.55.36 1.26"/><use xlink:href="#aba6b__b" transform="matrix(3.75 0 0 3.75 354.25 105.46)"/><use xlink:href="#aba6b__b" transform="matrix(3.75 0 0 3.75 78.65 7.51)"/></g><text stroke-linecap="round" stroke-linejoin="round" color="#000" font-family="KaTeX_Main" font-size="8" transform="translate(99.2 25.11)"><tspan>AVLWeakTopDown</tspan></text><g fill="none" stroke="currentColor" stroke-linecap="round" stroke-linejoin="round" color="#000"><path stroke="#FFAB00" stroke-dasharray="4.5,2.0,0.5,2.0,0.5,2.0" d="M63.7 22.51h29.9M28 57.19l.36 1.09.36-1.22.37.75.36-3.87.36 2.97.36.75.36-3.76.37 1.68.36 1.48.36-3.04.36 2.06.37 1.02.36-3.97.36.89.36 3.29.36-2.05.37 5.66.36-2.02.36.29.36 3.14.36-2.13.37-.71.36.3.36.75.36 1.62.36-1.06.37 2.58.36-5.92.36 3.4.36-2.41.36 2.88.37.45.36-.98.36-1.69.36.49.37-3.68.36 2.91.36-.09.36 4.26.36-2.31.37 2.71.36-4.12.36-2.82.36 1.73.36 3.29.37-1.94.36-.3.36 2.73.36-3.35.36-.13.37 38.96.36.37.36.19.36 1.39.37-1.8.36.54.36-1.35.36 3.2.36-2.13.37 2.63.36-.97.36-1.17.36-.04.36.3.37.83.36-3.1.36.69.36 4.4.36-.58.37-.54.36-1.38.36-.82.36 1.5.37-1.32.36 2.54.36-2.78.36.38.36 1.18.37.47.36-3.23.36 2.99.36-2.22.36 1.97.37-.17.36.81.36-1.33.36-.23.36.66.37-1.94.36 1.84.36-1.65.36 2.78.36-3.14.37 3.65.36-3.16.36.55.36-1.51.37.51.36 4.87.36-2.24.36-2.18.36.32.37.81.36-.83.36 2.07.36-.43.36-.23.37-.54.36 1.33.36-.75.36-2.67.36.26.37.53.36 3.97.36-2.67.36 1.5.37-2.86.36 1.88.36-2.91.36 1.39.36-.71.37-.42.36 1.66.36.64.36 1.59.36-2.67.37-.22.36-.62.36 3.18.36-3.78.36 4.45.37-3.27.36 1.09.36-3.14.36 5.34.36-.02.37-2.2.36-.45.36-.36.36-3.15.37 4.64.36 1 .36-.83.36-.17.36-.9.37 3.59.36-5.72.36 1.73.36-2.31.36 2.99.37-.49.36-.66.36-.86.36 4.1.36-.27.37.38.36-1.81.36-1.67.36.85.37.56.36-.66.36.23.36-.36.36-.36.37.96.36.89.36.43.36-2.73.36 1.47.37.32.36-1.02.36.96.36.57.36-1.51.37.55.36 2.1.36-.2.36-1.9.36 2.69.37-.79.36 2.23.36-3.74.36-1.69.37 2.63.36-.81.36-.82.36.99.36-.82.37-1.17.36 2.2.36-.83.36.36.36-.28.37.41.36-2.82.36.87.36.28.36 1.92.37-2.28.36 2.35.36-.11.36.51.37-1.02.36.85.36-1.56.36 2.08.36.42.37-1.94.36 2.26.36-1.38.36.04.36.21.37-2.92.36 2.28.36-1 .36 1.09.36-.37.37-.36.36.66.36-.19.36-1.54.37 4.51.36-1.6.36-2.05.36.08.36-.23.37 1.66.36-2.47.36 1.64.36-.58.36.37.37-.13.36-.49.36-1.63.36 3.76.36-.3.37.39.36-2.37.36.79.36 3.24.36-2.22.37-.64.36-1.02.36 1.51.36-.38.37-1.8.36-1.49.36 3.74.36 1.3.36-.3.37-3.07.36 2.11.36-3.37.36 3.37.36.04.37 1.09.36-2.2.36 1.35.36-1.82.36 2.44.37-.58.36-2.63.36 2.31.36-2.99.37.34.36 2.39.36.39.36-1.22.36-1.34.37 3.2.36-1.99.36-1.43.36.98.36 1.52.37-4.7.36 3.18.36 1.56.36.49.36-3.28.37 3.37.36-1.22.36 2.52.36-3.44.36.3.37-1.26.36 2.78.36.32.36-1.45.37.66.36-1.3.36-2.03.36 2.41.36 2.59h.37l.36-1.31.36-1.49.36 1.73.36-1.22.37 1.07.36-1.07.36.02.36-.4.36.62.37.14.36.2.36 1.02.36-1.34.37-1.43.36 2.94.36-2.86.36 1.2.36 2.03.37-2.61.36-.75.36.66.36 3.02.36-3.93.37-.88.36.68.36 2.25.36-1.05.36 1.11.37-1.13.36.04.36-1.17.36.27.36.11.37 3.06.36-1.58.36.14.36-1.21.37 1.24.36-.97.36 2.31.36-2.6.36-.07.37-.55.36.91.36.92.36 1.29.36.87.37-1.26.36-2.84.36-.26.36 2.4.36-1.44.37-1.75.36 3.27.36-.28.36-1.98.37 2.07.36-1.01.36-1.75.36.17.36 1.78.37-.07.36-1.68.36.47.36 3.24.36-2.3.37-.75.36.3.36 2.45.36-3.88.36 3.29.37-.52.36 1.95.36-3.85.36 3.46.37.41.36-3.8.36.25.36-.4.36.1.37 4.02.36-1.56.36-2.16.36 3.59.36-3.37.37 2.07.36-1.03.36-.32.36-.9.36 1.09.37 2.82.36-4.4.36.64.36.52.36.55.37-1.24.36 1.65.36-1.69.36.47.37.34.36 2.35.36-1.58.36-.06.36.13.37-.3.36-.62.36 3.03.36-4.14.36 2.11.37-1.88.36-.11.36 1.95.36.21.36-3.22.37-.22.36 3.27.36-2.61.36 2.55.37-.94.36 1.79.36-2.11.36.83.36.3.37-.71.36 2.44.36-3.23.36.45.36-.7.37 2.09.36.38.36-1.47.36 4.51.36-4.08.37-1.26.36.47.36 1.24.36.45.36-1.63.37-.55.36 2.13.36-1.26.36 1.09.37-.43.36-1.9.36 1.2.36 3.4.36-1.5.37-1.09.36-1.13.36-.73.36-1.34.36 5.17.37-3.44.36-.54.36 2.91.36-1.65.36.73.37-1.86.36 2.5.36-1.05.36 1.58.37-.19.36-.3.36 2.16.36-.64.36-1.47.37-2.14.36 1.58.36-1.54.36 3.59.36-.13.37-3.31.36 2.29.36-1.35.36-.55.36.85.37.34.36-2.69.36 2.78.36.3.37-2.27.36 2.59.36-2.05.36.38.36-.23.37.59.36.13.36 1.46.36-1.91.36 2.7.37-2.72.36-.1.36-1.48.36.88.36 3.63.37-5.11.36 4.43.36-2.59.36 2.52.36 1.01.37-3.87.36-1.45.36 1.62.36 3.31.37-2.26.36-2.5.36-1.43.36 3.05.36-1.41.37.07.36.66.36.98.36.49.36 1.05.37-.79.36-.3.36-.62.36 3.25.36-1.58.37-.47.36 1.6.36-3.08.36 2.74.37-1.63.36.07.36-1.41.36 2.9.36-2.11.37-1.65.36 1.88.36 1.03.36-.34.36.53.37.04.36-.45.36-1.66.36 1.79.36-.96.37 1.71.36-2.71.36 2.5.36 1.09.36-4.58.37 2.27.36-.56.36.39.36.25.37 1.61.36-4.47.36 4.62.36-1.61.36.73.37-3.97.36 4.23.36-3.08.36 3.5.36-3.84.37 3.86.36-1.68.36-.32.36-.47.36-2.42.37 1.88.36.24.36 2.01.36-.79.37 1.32.36-1.99.36 1.11.36.11.36.73.37-2.37.36-1.84.36 4.66.36-1.8.36.66.37-1.56.36-.62.36.43.36.71.36 1.75.37-.34.36-.88.36-1.77.36-.49.36 4.97.37-5.83.36 2.76.36 1.49.36.75.37-2.9.36-.28.36-.22.36-.74.36 2.84.37-1.03.36 1.45.36 1.48.36-3.55.36-.34.37 1.26.36-2.56.36-.62.36.92.36.81.37 1.6.36.3.36-.09.36-.83.37 1.9.36-1.88.36-2.15.36 2.24.36 1.75.37-2.33.36-.51.36 4.34.36-2.97.36 1.11.37 1.02.36-1.04.36-.3.36.72.36-2.35.37.15.36.39.36.27.36-1.41.37 4.64.36-3.25.36-2.65.36-.36.36 5.51.37-1.62.36-.13.36 1.24.36-2.35.36-2.18.37 1.2.36 2.3.36-.85.36-1.39.36 2.31.37-4.06.36 2.46.36 2.82.36-2.63.36-.75.37 1.03.36 1.96.36-2.13.36.51.37-.45.36-1.45.36 3.78.36-.28.36-.13.37-1.28.36.62.36-.92.36.11.36-2.76.37.92.36 2.88.36-1.15.36.6.36-.9.37-.64.36-1.56.36 1.18.36 3.31.37-1.95.36-1.43.36 2.67.36-3.95.36 5.53.37-3.46.36 1.16.36-.45.36-2.84.36 3.46.37-2.74.36 2.89.36.74.36-1.62.36-2.5.37 2.29.36-.15.36.02.36-1.47.36.7.37 1.69.36-.54.36.64.36.9.37 1.05.36-5.02.36 5.17.36-2.89.36-1.53.37 1.62.36-1.97.36 1.26.36 1.18.36-1.54.37-.6.36-2.07.36 2.52.36 1.41.36.71.37-3.76.36 3.52.36-.43.36-1.38.37.38.36.36.36-.55.36-1.28.36 1.98.37-.53.36 1.64.36-.17.36-1.77.36-1.99.37 2.97.36.26.36-1.15.36 2.24.36-1.48.37 1.41.36-.57.36-1.52.36 2.95.36-1.77.37-2.42.36 1.78.36-.56.36.17.37-.02.36.62.36-3.78.36 1.77.36 3.25.37-.77.36-1.82.36 1.05.36-.75.36 3.06.37-3.27.36-.66.36 1.28.36.49.36 3.44.37-1.54.36-2.26.36-.24.36-1.19.37 2.39.36-3.55.36 2.93.36.15.36-.28.37 1.79.36.41.36-.21.36-4 .36 1.43.37-.87.36.3.36 1.47.36 1.52.36-2.33.37 2.58.36-3.14.36-.98.36 3.65.37-2 .36-.56.36-.17.36-.41.36 4.19.37.21.36-2.58.36.7h.36l.36-.02.37.11.36-2.71.36 2h.36l.36.07.37-.75.36.88.36-1.01.36 1.56.36.32.37.32.36 1.26.36-2.28.36-2.14.37 2.95.36-2.59.36.09.36.79.36 1.54.37-3.38.36 1.29.36 2.05.36-.77.36-.96.37 1.36.36 1.9.36-2 .36-1.58.36.21.37.36.36-.06.36-1.09.36 2.75.37 2.4.36-2.82.36-.82.36-1.08.36 4.08.37-3.57.36.85.36-2.8.36 2.33.36.28.37-1.3.36 3.74.36-2.57.36 2.63.36-3.2.37-1.41.36 1.64.36.81.36 1.82.36-2.61.37.92.36-1.58.36.58.36.44.37 1.07.36-1.62.36-.26.36.28.36-.83.37-.86.36.3.36 5.51.36-2.92.36.51.37 3.78.36-3.44.36-1.24.36-1.36.36.91.37 2.03.36-2 .36 1.43.36-3.23.37.43.36 1.45.36-.98.36.72.36 5.11.37-3.8.36.32.36-1.45.36-2.2.36 3.82.37-.34.36-1.03.36-2.07.36 3.29.36-.75.37-1.13.36-1.65.36-.29.36 2.52.36 1.17.37-.4.36.61.36-3.2.36 3.12.37.32.36-2.95.36 3.55.36-1.67.36.73.37-1.95.36.35.36 1.19.36-1.17.36.4.37.37.36 1.53.36-2.26.36-.02.36-.81.37 3.48.36-4.42.36 1.28.36.9.37.44.36.37.36-.94.36.55.36-1.94.37 2.35.36 1.43.36-1.15.36-.32.36-3.59.37 3.84.36.58.36-1.07.36-3.05.36 4.59.37-1.33.36.09.36-2.26.36 2.54.37 1.11.36-3.1.36.13.36 1.45.36-1.71.37-.79.36 2.72.36.89.36-1.17.36-.69.37-1 .36 3.27.36-3.87.36 2.97.36.19.37-.68.36 1.22.36-1.45.36-1.63.36.73.37.4.36-1.51.36 3.56.36-2.41.37 2.44.36-2.25.36-1.13.36.58.36 1.07.37-.54.36-.38.36-.6"/><use xlink:href="#aba6b__c" color="#FFAB00" transform="matrix(3.75 0 0 3.75 67.83 99.76)"/><use xlink:href="#aba6b__c" color="#FFAB00" transform="matrix(3.75 0 0 3.75 78.65 22.51)"/></g><text stroke-linecap="round" stroke-linejoin="round" color="#000" font-family="KaTeX_Main" font-size="8" transform="translate(241.1 10.11)"><tspan>AVLRelaxedBottomUp</tspan></text><g fill="none" stroke="currentColor" stroke-linecap="round" stroke-linejoin="round" color="#000"><path stroke="#D336C8" d="M205.6 7.51h29.9M28 64.53l.36-1.19.36-.49.37 2.13.36-3.18.36 2.01.36.83.36-1.88.37.34.36.84h.36l.36.12.37-1.34.36.02.36-.06.36 1.9.36-1.13.37 3.65.36.19.36-.41.36 1.95.36-1.33.37 1.93.36-5.13.36 4.57.36-.04.36-1.48.37.77.36-1.68.36 3.03.36-4.12.36 4.63.37-3.25.36 2.44.36-2.8.36-.08.37-2.08.36 2.52.36-.23.36 3.89.36-2.48.37 2.22.36-2.07.36-1.9.36-2.44.36 5.34.37-.72.36.04.36 1.88.36-4.89.36 1.56.37 83.91.36.59.36-.32.36 1.07.37-1.26.36 1.28.36-1.75.36 3.06.36-.22.37-.25.36-.11.36.09.36-1.71h.36l.37 2.15.36-2.28.36-.45.36 2.11.36 1.26h.37l.36-2.56.36.71.36 1.34.37-.6.36-.81.36.02.36 2.03.36-1.43.37-.19.36-.6.36.13.36-.06.36.49.37.04.36.81.36-1 .36-.69.36.99.37-.6.36-1.11.36-.58.36 2.52.36-.85.37.89.36-1.77.36.56.36-.3.37 1.19.36-.72.36 1.13.36-.51.36.08.37-1.43.36.75.36 1.3.36-.66.36.81.37-.83.36 1.13.36.21.36-3.63.36 2.42.37-2.37.36 3.26.36-.94.36-1.53.37 1.53.36-.55.36-1.86.36 1.37.36-.49.37.36.36 1.19.36.92.36-1.3.36-.21.37-.99.36.77.36 1.95.36-2.54.36 1.32.37-.88h.36l.36-1.06.36 2.56.36-1.22.37.81.36-.34.36.73.36-3.36.37 2.23.36.32.36-.75.36 1.26.36-.98.37 1.17.36-1.88.36 1.07.36-1.41.36 2.22.37-.75.36-1.09.36.86.36 1.26.36.13.37.81.36-1.3.36.72.36-.9.37-1.77.36 1.8.36-.6.36-.96.36 1.81.37-.96.36.13.36.04.36-.87.36.57.37-.02.36-.25.36.51.36 1.64.36-1.49.37.13.36.23.36 1.47.36-1.66.36.49.37.23.36.43.36-.94.36-.75.37.58.36-.49.36-2.14.36 2.44.36.02.37-2.29.36.69.36 2.65.36-2.25.36 1.29.37.29.36-2.52.36.86.36.15.36 2.2.37-3.18.36 2.52.36.55.36.56.37-.64.36.15.36-1.16.36.39.36-.35.37-.81.36 2.05.36-1.15.36-.15.36-.06.37-.69.36.77.36-1.13.36 1.94.36-.36.37-.02.36-.98.36.72.36.69h.37l.36-.28.36-.79.36-1.3.36-.84.37 3.76.36-1.9.36.47.36.45.36-1.2.37-.79.36.96.36-.32.36 2.29.36-.58.37-1.36.36.23.36-.26.36 2.67.36-2.03.37.07.36.75.36.17.36-.07.37-2.03.36.3.36-.23.36 2.9.36.58.37-3.48.36 2.84.36-2.63.36 1.09.36.45.37-.26.36-1 .36 2.09.36-1.98.36.34.37.47.36-1.03.36 2.14.36-2.61.37.09.36 1.62.36-.21.36-.71.36.17.37 1.65.36-1.5.36-.77.36.6.36.94.37-1.26.36.22.36 1.51.36-.94.36-.85.37 3.78.36-2.95.36 1.33.36-1.67.36-.66.37-1.37.36 1.96.36-.29.36 1.77.37.15.36-2.82.36-.28.36 1.84.36.23.37-.13.36-.32.36-2.09.36 1.92.36-.34.37.86.36.25.36-.96.36.43.36.25.37.11.36-1.45.36.87.36.07.37.49.36.62.36-2.41.36 2.77.36-.68.37-1.52.36.26.36 1.28.36.13.36-2.27.37-1.28.36 2.03.36.41.36-.64.36 1.62.37.19.36-2.82.36 1.9.36.69.36-.6.37.96.36-2.84.36 2.33.36-1.82.37-.32.36 1.78.36.44.36.24.36-2.99.37 1.15.36.73.36.92.36-1.41.36 1.66.37.09.36-.73.36 1.24.36.92.36-2.73.37-.62.36 1.79.36-.83.36-1.16.37 2.76.36-1.94.36-.67.36-.23.36 1.75.37.98.36-1.71.36-.06.36.7.36-.62.37-.83.36.22.36.91.36-.91.36 1.36.37-1.51.36.62.36 1.11.36-.79.37 1.17.36-2.54.36 1.47.36-1.94.36.87.37 1.24.36.39.36-3.33.36 2.49.36 1.82.37-.92.36-1.17.36.53.36-1.86.36 1.84.37 1.41.36-3.18.36 1.21.36 1.03.36-.56.37-1.98.36 2.13.36-.1.36-.3.37.68.36 1.35.36-2.22.36-.43.36.49.37.02.36-.87.36 2.39.36-1.82.36 2.27.37-.62.36-2.42.36.35.36 1.94.36-1.92.37.08.36.11.36-1.54.36 1.18.37-.03.36 1.88.36-1.66.36.62.36.55.37-.57.36 2.41.36-4.06.36 1.69.36-1.48.37 2.29.36-.04.36-1.75.36 2.17.36-.17.37-2.64.36 2.26.36.83.36.39.36-1.14.37-3.16.36 3.57.36-.53.36-.9.37.21.36-.25.36.19.36 1.79.36-.38.37-.9h.36l.36-.02.36-1.69.36 3.91.37-3.46.36.81.36 2.55.36-3.14.36 1.13.37.49.36 1.24.36-2.31.36 1.05.37.6.36.87.36-.79.36.24.36-.28.37-3.14.36-.11.36 1.05.36 1.81.36 2.03.37-4.68.36 2.14.36-1.24.36.66.36-.29.37.79.36-1.91.36 2.12.36-.11.37-1.28.36-.15.36.09.36 1.45.36-3.48.37 3.07.36-.08.36 1.17.36-1.11.36-.04.37-.19.36.72.36-.23.36-1.05.36 1.52.37-2.39.36 3.07.36-1.94.36.98.36-.17.37-2.01.36-.9.36 1.67.36 2.18.37-1.11.36.75.36-1.54.36.17.36-.6.37.45.36-.6.36.62.36.71.36.32.37-1.07.36-1.09.36 1.49.36 2.38.36-1.46.37-.51.36.47.36-2.56.36 2.32.37 1.03.36-.38.36-1.18.36.19.36-1.02.37 1.26.36-.28.36-.26.36 2.14.36-2.99.37 2.18.36-.86.36-.27.36 1.6.36-2.71.37.76.36-.59.36 2.73.36-.68.36-1.07.37 1.26.36-1 .36-.18.36 1.35.37-.66.36-2.1.36 3.94.36-3.36.36 2.22.37-2.09.36 2.65.36-3.08.36-.23.36.28.37 2 .36-1.34.36-.41.36.26.36.02.37-1.11.36.98.36.43.36 1 .37-.25.36.36.36.11.36-1.12.36.84.37-.54.36-2.07.36 2.69.36.71.36-1.18h.37l.36-.15.36-2.09.36 1.94.36.35.37.34.36-1.03.36-.21.36-.75.36 3.14.37-4.76.36 3.82.36-.21.36-.07.37-.74.36-2.44.36 2.03.36.41.36-.07.37-1.54.36.84.36 3.8.36-4.51.36.96.37-.19.36.64.36-1.43.36.39.36.72.37.19.36 1.97.36-1.65.36-1.13.37 1.5.36-.69.36-1.6.36 3.63.36-1.75.37.3.36.92.36-2.05.36 1.64.36.32.37-.89.36.72.36-.45.36-.76.36-.88.37-.75.36 1.16.36.61.36-1.04.37 2.24.36-1.71.36-3.14.36 4.19.36.66.37-1.11.36.58.36-1.03.36.73.36.23.37-.15.36.71.36.25.36-1.17.36 1.09.37-3.12.36 2.29.36-.22.36-.17.36-1.04.37 1 .36 1.54.36-2.74.36-1.66.37 3.54.36-.06.36.06.36 1.05.36-.9.37.62.36-1.19.36.02.36-1.2.36-.7h.37l.36 1.38.36 1.2.36-.77.36-.87.37 1.64.36-2.22.36 2.16.36-.64.37-.5.36-1.34.36 2.39.36-2.2.36 3.31.37-1.75h.36l.36 1.09.36-1.97.36-.12.37.53.36.19.36.64.36.24.36-1.67.37 1.28.36.39.36-.49.36-1.99.36.68.37.94.36 1.65.36-2.29.36 1.9.37.47.36-1.9.36 2.07.36-3.39.36.94.37.15.36-1.22.36 2.24.36.64.36-.51.37-2.01.36-.45.36 1.24.36.6.36.62.37-1.17.36 1.41.36.77.36-2.48.37 1.66.36-1.04.36-2.69.36 2.3.36 1.05.37-.86.36.32.36.03.36-1.65.36-1.17.37 1.96.36 1.03.36 1 .36-1.56.36 1.9.37-1.71.36-.32.36-.12.36 1.75.36-.58.37-2.16.36 2.12.36-.64.36-.71.37.26.36-.11.36-1.3.36 1.37.36 3.35.37-1.71.36-1.03.36-.12.36-1.01.36 1.88.37-1.39.36.82.36.36.36-.62.36.13.37.17.36-1.67.36 1.67.36-1.43.37-.94.36.3.36 1.3.36 1.62.36-.06.37 1.13.36-2.22.36-.09.36.26.36-.98.37.08.36-.32.36-.13.36 1.48.36-1.95.37 2.31.36-2.03.36.39.36 1.79.37-1.43.36-1.15.36.45.36.87.36.26.37.74.36-1.51.36 1.54.36-.45.36.19.37-.15.36-1.02.36 1.06.36-.21.36.68.37-1.53.36 2.07.36-1.28.36.83.36-1.07.37 1.18.36 1.6.36-1.48.36-2.28.37.87.36 1.07.36-.92.36 1.88.36-1.09.37-1.02.36 1.28.36-2.07.36 1.83.36-2.17.37 2.15.36.24.36.04.36-.38.36-.88.37 1.73.36.77.36-2.69.36 1.19.37.75.36.56.36-1.5.36-.13.36 1.01.37-2.09.36 1.13.36-1.41.36 2.01.36-1.16.37-.47.36 1.95.36-.77.36 1.34.36-2.39.37-2.76.36 3.34.36.25.36-.55.36-.3.37.9.36-.18.36-1.02.36 1.02.37.65.36-.99.36.28.36-.75.36 1.22.37-.36.36-1.71.36 1.77.36-1.73.36 2.54.37.79.36-2.11.36-1.03.36 1.26.36.13.37.73.36-2.44.36 4.28.36-3.17.37.35.36-.39.36 1.62.36-1.45.36 2.91.37-1.56.36.36.36-2.63.36.62.36 1.73.37-1.06.36.36.36-1.03.36.6.36-.08.37-.64.36 1.23.36-.98.36.94.36.62.37-.17.36-1.54.36.98.36 1.44.37-2.65.36.42.36 1.37.36-.21.36-.54.37-.17.36.24.36.15.36.06.36-1.02.37.68.36 1.13.36-1.41.36 1.24.36-2.35.37 3.25.36-1.45.36-.07.36.79.37.77.36-.94.36-1.67.36 2.8.36-3.16.37.62.36 1.43.36.6.36-1.5.36-1.11.37 2.46.36-1.41.36.02.36.73.36 1.28.37-1.22.36.11.36.06.36.26.37.81.36-2.2.36.36.36.73.36-1.05.37.92.36.75.36.24.36-1.03.36-.62.37.02.36 1.11.36-.36.36-1.24.36.3.37-.15.36 1.9.36-1.73.36.79.36-1.64.37.81.36-1.09.36 1.77.36.71.37-.54.36-.1.36-1.24.36.36.36 1.43.37-1.32.36.55.36.26"/><use xlink:href="#aba6b__a" color="#D336C8" transform="matrix(3.75 0 0 3.75 125.4 152.2)"/><use xlink:href="#aba6b__a" color="#D336C8" transform="matrix(3.75 0 0 3.75 220.55 7.51)"/></g><text stroke-linecap="round" stroke-linejoin="round" color="#000" font-family="KaTeX_Main" font-size="8" transform="translate(241.1 25.11)"><tspan>AVLRelaxedTopDown</tspan></text><g fill="none" stroke="currentColor" stroke-linecap="round" stroke-linejoin="round" color="#000"><path stroke="#9F650D" stroke-dasharray="4.0,2.0,1.0,2.0" d="M205.6 22.51h29.9M28 57.19l.36 1.09.36-1.22.37.75.36-3.87.36 2.97.36.75.36-3.76.37 1.68.36 1.48.36-3.04.36 2.06.37 1.02.36-3.97.36.89.36 3.29.36-2.05.37 5.66.36-2.02.36.29.36 3.14.36-2.13.37-.71.36.3.36.75.36 1.62.36-1.06.37 2.58.36-5.92.36 3.4.36-2.41.36 2.88.37.45.36-.98.36-1.69.36.49.37-3.68.36 2.91.36-.09.36 4.26.36-2.31.37 2.71.36-4.12.36-2.82.36 1.73.36 3.29.37-1.94.36-.3.36 2.73.36-3.35.36-.13.37 87.75.36.88.36 1.34.36.77.37-2.69.36 1.82.36-.84.36 1.48.36-.69.37 1.16.36.17.36-2.16.36-.34.36.75.37-.11.36-.58.36-.12.36 2 .36 1.37.37-1.64.36-1.54.36 1.19.36 1.37.37-1.69.36 2.61.36-3.16.36 2.28.36-.91.37 1.13.36-2.54.36 1.9.36-1.99.36.98.37.22.36-.13.36-.32.36-.19.36 1.53.37-1.58.36.24.36-2.71.36 3.65.36-2.37.37 2.09.36-1.43.36-.28.36-.51.37.77.36.81.36 1.13.36-1.88.36.19.37.03.36.38.36.98.36.22.36.3.37-1.59.36.77.36 1.11.36-2.92.36.7.37-.28.36 2.93.36-2.18.36.49.37-.02.36-.89.36-1.69.36 1.75.36-.3.37-.66.36 2.28.36-.66.36 1.43.36-2.54.37.04.36 1.16.36 1.28.36-3.14.36 2.16.37-1.95.36 1.54.36-2.24.36 2.88.36.28.37.08.36-2.05.36 1.14.36-3.55.37 3.03.36 2.03.36-1.6.36.49.36-.21.37.92.36-2.08.36-.23.36-.81.36 2.82.37-2.01.36.62.36-1.05.36 2.37.36.24.37.9.36-2.31.36.66.36-.23.37-.86.36-.13.36-.08.36.13.36.7.37-.41.36.54.36.81.36-2.03.36.98.37-.02.36-.45.36-.44.36 2.75.36-2.18.37.51.36.9.36.98.36-1.75.36.52.37.34.36 2.01.36-2.16.36-1.6.37.94.36.53.36-2.31.36 1.33.36.4.37-.81.36-.55.36 2.6.36-1.49.36-.82.37 1.54.36-2.99.36 1.75.36.35.36 1.83.37-2.24.36 1.69.36-.24.36.81.37-.81.36.75.36-2.22.36 1.45.36-.08.37-1.5.36 2.22.36-1.24.36-.23.36.96.37-.64.36-.11.36-1.52.36 3.1.36-2.35.37-.08.36 1.75.36-.47.36.23.37.73.36.51.36-2.03.36-1.11.36.28.37 2.88.36-2.77.36.7.36.11.36-.32.37.17.36.02.36-2.48.36 3.25.36 1.2.37-2.1.36.07.36-.15.36 2.6.36-1.64.37-.24.36 1.2.36-1.13.36-.56.37-1.07.36-2.2.36 3.85.36.87.36.73.37-3.55.36 2.78.36-3.03.36 1.96.36.03.37 1.51.36-1.24.36 1.58.36-3.12.36 2.59.37-1.15.36-1.35.36 2.12.36-2.65.37.3.36 1.26.36.4.36-.72.36-.86.37 2.99.36-1.39.36-1.66.36 1.15.36.36.37-1.6.36.11.36 2.63.36-.37.36-2.22.37 3.27.36-2.03.36 1.84.36-1.84.36-.75.37.02.36 1.54.36-.85.36.96.37.68.36-3.46.36-.32.36 1.5.36 1.71.37-.8.36-1.06.36-1.24.36 2.01.36.19.37.87.36-.68.36-.36.36-1.22.36 1.67.37-.07.36-.81.36 1.09.36-.43.37-2.35.36 3.44.36-3.25.36 2.93.36-.06.37-1.22.36-.92.36 1.07.36 1.81.36-3.54.37-1.2.36 2.65.36.68.36-.96.36.13.37-.11.36-.59.36.74.36.69.36-.66.37 1.34.36-2.03.36.69.36-.07.37.17.36.02.36.35.36-1.2.36.08.37-.23.36.75.36 1.11.36-.11.36.51.37.65.36-2.25.36.32.36 1.65.36-1.93.37-1.04.36 1.73.36.81.36-1.86.37 2.2.36-2.41.36-.24.36-.68.36 1.49.37 1.12.36-1.69.36.23.36 1.28.36-.57.37-1.09.36.25.36 1.76.36-1.71.36 1.98.37-.64.36-.25.36-.32.36 1.53.37-.14.36-2.97.36.85.36-1.09.36 1.56.37 2.01.36-.49.36-3.7.36 3.36.36-1.03.37-.24.36.71.36.26.36-2.67.36 2.24.37 1.49.36-3.54.36 1.3.36-.23.36.85.37-.62.36.77.36-.3.36-.28.37-.49.36 1.73.36-.72h.36l.36 1.43.37-1.75.36-1.56.36 3.59.36-3.59.36 1.53.37.2.36-.73.36.04.36 1.52.36-2.24.37.4.36 1.05.36-2.07.36.62.37 1.17.36 1.88.36-2.73.36 1.32.36-.64.37-.23.36 1.96.36-3.14.36 1.11.36-.75.37 2.65.36-1.24.36-.44.36 3.31.36-2.42.37-1.73.36 1.22.36 1.2.36.64.36-1.41.37-1.65.36 2.22.36.43.36-.21.37-1.71.36-.26.36-.17.36 2.93.36-1.03.37-.15.36-.77.36.22.36-2.97.36 5.6.37-3.44.36-.67.36 2.95.36-1.79.36-.07.37-.57.36 1.83.36-.94.36 1.46.37-1.41.36 1.68.36-.53.36-.04.36-1.26.37-.71.36-.62.36.13.36 2.73.36-.04.37-2.92.36 2.35.36-1.39.36 1.13.36-.15.37.64.36-2.5.36 2.05.36.47.37-2.35.36 1.58.36-1.69.36 1.61.36-.64.37.64.36-.67.36 2.16.36-1.3.36-.15.37.09.36-.65.36-.08.36-.86.36 2.12.37-2.63.36 3.74.36-2.56.36 1.3.36.98.37-1.88.36-2.99.36 2.1.36 2.22.37-.84.36-.87.36-.71.36.34.36-.17.37.15.36-.47.36 1.31.36-.71.36.94.37-.32.36-.26.36.18.36 1.43.36.4.37-1.41.36 1.88.36-3.52.36 2.5.37.02.36-.28.36-.43.36.35.36-.37.37-.68.36.64.36.47.36 1.5.36-1.35.37.77.36-.09.36-1.43.36.28.36.02.37-.51.36-.71.36 2.03.36 1.18.36-3.48.37 1.73.36-1.91.36 1.48.36-.15.37 1.13.36-2.71.36 3.97.36-3.63.36.81.37-.49.36 3.1.36-2.69.36.06.36.24.37 1.79.36-1.56.36-.9.36-.45.36-1.17.37 1.2.36.4.36 1.09.36.49.37-.32.36-.1.36.42.36.05.36-.75.37-.02.36-2.63.36 3.4.36-1.12.36.82.37-.28.36-.3.36-1.09.36.13.36 1.86.37-.41.36.04.36-1.51.36-.32.36 3.44.37-4.77.36 3.87.36-.54.36-.15.37-.87.36-.73.36.07.36-.22.36 2.1.37-.96.36-.39.36 2.93.36-3.89.36-.39.37 1.54.36-.45.36-.96.36-.38.36.68.37 2.86.36.56.36-1.77.36-.28.37.11.36-.47.36-1.76.36 1.22.36 1.24.37-.98.36.94.36.7.36.17.36.22.37.4.36-.25.36-1.26.36 1.15.36-2.14.37-.29.36 1.06.36.26.36-1.79.37 3.37.36-2.14.36-2.07.36 1.65.36 1.88.37.6.36-1.24.36.32.36-1.07.36-.56.37.37.36 1.85.36-.44.36-.52.36.11.37-3.29.36 2.59.36 1.98.36-1.24.36-2.41.37 2.86.36.6.36-3.14.36-.39.37 1.63.36.83.36 1.13.36-.57.36-.2.37.94.36-1.79.36-.96.36.66.36-1.71.37.3.36 3.36.36-1.48.36-.38.36.66.37-.24.36-2.15.36 1.56.36 1.41.37-1.91.36.58.36.36.36-2.75.36 4.12.37-1.66.36 1.38.36.28.36-2.84.36.9.37-.17.36 1.39.36-1.09.36 1.13.36-1.58.37.06.36.41.36-.28.36-.51.36.1.37.75.36 1.58.36-2.35.36 1.97.37.47.36-3.8.36 4.61.36-3.27.36.47.37.66.36-2.18.36 1.76.36.76.36-.55.37-.9.36-.85.36 1.43.36 1.64.36-.21.37-2.67.36 3.16.36-.34.36-2.01.37.73.36.72.36-1 .36-1.35.36 1.82.37.11.36.57.36.11.36-1.62.36-.88.37.77.36.68.36.07.36.15.36 1.3.37-2.09.36 1.11.36-1.65.36 3.49.36-.58.37-4.25.36 2.45.36.05.36-.45.37.68.36-.92.36-2.69.36 2.52.36 3.46.37-1.3.36-2.26.36 1.92.36-1.03.36.86.37-2.61.36 2.07.36.54.36-.86.36.79.37.24.36-1.37.36-.06.36-1.35.37.36.36-.15.36 1.39.36.37.36 1.34.37.54.36-1.97.36.88.36-2.65.36 1.19.37-.36.36-.15.36.92.36 1.35.36-2.55.37 1.99.36-2.39.36-.28.36 4.32.37-2.21.36-1.36.36.1.36 1.29.36.98.37.19.36-2.18.36 2.1.36-1.05.36 1 .37-.68.36-2.03.36 1.56.36 1.73.36-1.28.37-1.09.36 2.05.36-2.24.36 2.37.36-1.9.37 1.96.36.41.36-1.16.36-1.6.37.98.36-1.21.36.23.36.79.36 1.2.37-2.37.36.74.36-.55.36.68.36-.27.37 1.66.36-.38.36.21.36-1.37.36-.36.37 1.52.36.1.36-1.83.36 1.53.37 1.14.36-.45.36-.71.36.05.36.87.37-1.94.36.25.36-1.66.36 2.45.36-.21.37-.81.36 1.07.36-.32.36 1.36.36-.59.37-3.51.36 2.03.36.64.36.34.36-.74.37.74.36-1.19.36-.15.36 1.15.37 1.41.36-2.07.36.66.36-1.02.36-.22.37-.38.36-.17.36 2.78.36-1.97.36 2.39.37 1.24.36-3.16.36-1.94.36 2.35.36-.84.37 1.09.36-2.05.36 2.99.36-1.6.37-1.28.36.98.36.96.36.43.36 2.63.37-2.84.36.44.36-2.39h.36l.36 3.06.37-.96.36-.73.36-1.41.36 1.47.36-.32.37.22.36.08.36-.06.36-.84.36.86.37.32.36.23.36-.74.36.21.37-.79.36-.19.36 1.96.36-.68.36.38.37-.66.36-.34.36 1.24.36-.96.36-.15.37.68.36 1.45.36-3.33.36 1.03.36-2.35.37 4.14.36-3.18.36 1.88.36 1.66.37-.44.36-.24.36-2.39.36 1.62.36-2.18.37 1.65.36 2.52.36-1.97.36-.3.36-2.41.37 4.06.36-1.11.36-1.63.36-.49.36 4.38.37-1.81.36.21.36-1.73.36 1.6.37 1.65.36-4.1.36 1.79.36-.09.36-1.3.37.04.36 2.03.36.97.36-1.39.36-.13.37-.96.36 1.88.36-1.31.36.17.36.03.37-.6.36 2.09.36-.77.36-1.32.36-1.03.37.64.36.35.36 1.92.36-.62.37-1.2.36.45.36-1.75.36 1.67.36.51.37-2.03.36 1.49.36-1.36"/><use xlink:href="#aba6b__c" color="#9F650D" transform="matrix(3.75 0 0 3.75 182.98 147.16)"/><use xlink:href="#aba6b__c" color="#9F650D" transform="matrix(3.75 0 0 3.75 220.55 22.51)"/></g><path fill="none" d="M28 45.01V162.5M371.99 45.01H28" color="#000"/></svg>