<svg xmlns="http://www.w3.org/2000/svg" xmlns:xlink="http://www.w3.org/1999/xlink" viewBox="0 0 400 200"><path fill="none" d="M0 0h400v200H0z"/><defs><path id="3ab31__b" stroke="currentColor" stroke-width=".267" d="M-1-1h2v2h-2z"/><path id="3ab31__a" stroke="currentColor" stroke-width=".267" d="m0-1.33-1.33 2h2.66z"/><path id="3ab31__f" stroke="currentColor" stroke-width=".267" d="M0 1.33 1.265.411.782-1.067l-1.564-.009-.483 1.487z"/><use xlink:href="#3ab31__a" id="3ab31__d" fill="currentColor" stroke="none"/><use xlink:href="#3ab31__b" id="3ab31__c" stroke="currentColor" transform="rotate(45)"/><use xlink:href="#3ab31__c" id="3ab31__e" fill="currentColor" stroke="none"/></defs><path fill="none" stroke="#CCC" stroke-linecap="round" stroke-linejoin="round" stroke-width=".1" d="M46.1 162.5V45.01" class="3ab31__gridline" color="#000"/><g fill="none" stroke-linecap="round" stroke-linejoin="round" stroke-width="0" color="#000"><path d="M46.1 162.5V155m0-109.99v7.5"/><text fill="#000" font-family="KaTeX_Main" font-size="8" text-anchor="middle" transform="translate(46.1 172.6)"><tspan> 1</tspan></text></g><path fill="none" stroke="#CCC" stroke-linecap="round" stroke-linejoin="round" stroke-width=".1" d="M82.31 162.5V45.01" class="3ab31__gridline" color="#000"/><g fill="none" stroke-linecap="round" stroke-linejoin="round" stroke-width="0" color="#000"><path d="M82.31 162.5V155m0-109.99v7.5"/><text fill="#000" font-family="KaTeX_Main" font-size="8" text-anchor="middle" transform="translate(82.31 172.6)"><tspan> 2</tspan></text></g><path fill="none" stroke="#CCC" stroke-linecap="round" stroke-linejoin="round" stroke-width=".1" d="M118.52 162.5V45.01" class="3ab31__gridline" color="#000"/><g fill="none" stroke-linecap="round" stroke-linejoin="round" stroke-width="0" color="#000"><path d="M118.52 162.5V155m0-109.99v7.5"/><text fill="#000" font-family="KaTeX_Main" font-size="8" text-anchor="middle" transform="translate(118.52 172.6)"><tspan> 3</tspan></text></g><path fill="none" stroke="#CCC" stroke-linecap="round" stroke-linejoin="round" stroke-width=".1" d="M154.73 162.5V45.01" class="3ab31__gridline" color="#000"/><g fill="none" stroke-linecap="round" stroke-linejoin="round" stroke-width="0" color="#000"><path d="M154.73 162.5V155m0-109.99v7.5"/><text fill="#000" font-family="KaTeX_Main" font-size="8" text-anchor="middle" transform="translate(154.73 172.6)"><tspan> 4</tspan></text></g><path fill="none" stroke="#CCC" stroke-linecap="round" stroke-linejoin="round" stroke-width=".1" d="M190.94 162.5V45.01" class="3ab31__gridline" color="#000"/><g fill="none" stroke-linecap="round" stroke-linejoin="round" stroke-width="0" color="#000"><path d="M190.94 162.5V155m0-109.99v7.5"/><text fill="#000" font-family="KaTeX_Main" font-size="8" text-anchor="middle" transform="translate(190.94 172.6)"><tspan> 5</tspan></text></g><path fill="none" stroke="#CCC" stroke-linecap="round" stroke-linejoin="round" stroke-width=".1" d="M227.15 162.5V45.01" class="3ab31__gridline" color="#000"/><g fill="none" stroke-linecap="round" stroke-linejoin="round" stroke-width="0" color="#000"><path d="M227.15 162.5V155m0-109.99v7.5"/><text fill="#000" font-family="KaTeX_Main" font-size="8" text-anchor="middle" transform="translate(227.15 172.6)"><tspan> 6</tspan></text></g><path fill="none" stroke="#CCC" stroke-linecap="round" stroke-linejoin="round" stroke-width=".1" d="M263.36 162.5V45.01" class="3ab31__gridline" color="#000"/><g fill="none" stroke-linecap="round" stroke-linejoin="round" stroke-width="0" color="#000"><path d="M263.36 162.5V155m0-109.99v7.5"/><text fill="#000" font-family="KaTeX_Main" font-size="8" text-anchor="middle" transform="translate(263.36 172.6)"><tspan> 7</tspan></text></g><path fill="none" stroke="#CCC" stroke-linecap="round" stroke-linejoin="round" stroke-width=".1" d="M299.57 162.5V45.01" class="3ab31__gridline" color="#000"/><g fill="none" stroke-linecap="round" stroke-linejoin="round" stroke-width="0" color="#000"><path d="M299.57 162.5V155m0-109.99v7.5"/><text fill="#000" font-family="KaTeX_Main" font-size="8" text-anchor="middle" transform="translate(299.57 172.6)"><tspan> 8</tspan></text></g><path fill="none" stroke="#CCC" stroke-linecap="round" stroke-linejoin="round" stroke-width=".1" d="M335.78 162.5V45.01" class="3ab31__gridline" color="#000"/><g fill="none" stroke-linecap="round" stroke-linejoin="round" stroke-width="0" color="#000"><path d="M335.78 162.5V155m0-109.99v7.5"/><text fill="#000" font-family="KaTeX_Main" font-size="8" text-anchor="middle" transform="translate(335.78 172.6)"><tspan> 9</tspan></text></g><path fill="none" stroke="#CCC" stroke-linecap="round" stroke-linejoin="round" stroke-width=".1" d="M371.99 162.5V45.01" class="3ab31__gridline" color="#000"/><g fill="none" stroke-linecap="round" stroke-linejoin="round" stroke-width="0" color="#000"><path d="M371.99 162.5V155m0-109.99v7.5"/><text fill="#000" font-family="KaTeX_Main" font-size="8" text-anchor="middle" transform="translate(371.99 172.6)"><tspan> 10</tspan></text></g><g fill="none" stroke-linecap="round" stroke-linejoin="round" stroke-width="0" color="#000"><path d="M371.99 162.5h-7.5"/><text fill="#000" font-family="KaTeX_Main" font-size="8" transform="translate(378.99 165.1)"><tspan>-1</tspan></text></g><g fill="none" stroke-linecap="round" stroke-linejoin="round" stroke-width="0" color="#000"><path d="M371.99 123.34h-7.5"/><text fill="#000" font-family="KaTeX_Main" font-size="8" transform="translate(378.99 125.94)"><tspan>0</tspan></text></g><g fill="none" stroke-linecap="round" stroke-linejoin="round" stroke-width="0" color="#000"><path d="M371.99 84.17h-7.5"/><text fill="#000" font-family="KaTeX_Main" font-size="8" transform="translate(378.99 86.77)"><tspan>1</tspan></text></g><g fill="none" stroke-linecap="round" stroke-linejoin="round" stroke-width="0" color="#000"><path d="M371.99 45.01h-7.5"/><text fill="#000" font-family="KaTeX_Main" font-size="8" transform="translate(378.99 47.61)"><tspan>2</tspan></text></g><path fill="none" d="M28 45.01V162.5M371.99 45.01H28" color="#000"/><text stroke-linecap="round" stroke-linejoin="round" stroke-width="0" color="#000" font-family="KaTeX_Main" font-size="10" text-anchor="middle" transform="rotate(-90 57.63 46.13)"><tspan>log</tspan><tspan dy="3" font-size="8">2</tspan><tspan dy="-3">(</tspan><tspan font-weight="bold">Average Path Length </tspan><tspan> / log</tspan><tspan dy="3" font-size="8">2</tspan><tspan dy="-3">(Size))</tspan></text><text stroke-linecap="round" stroke-linejoin="round" stroke-width="0" color="#000" font-family="KaTeX_Main" font-size="10" text-anchor="middle" transform="translate(199.99 195.75)"><tspan>Operations / 10</tspan><tspan dy="-5" font-size="8">6</tspan></text><text stroke-linecap="round" stroke-linejoin="round" color="#000" font-family="KaTeX_Main" font-size="8" transform="translate(132.8 10.11)"><tspan>Splay</tspan></text><g fill="none" stroke="currentColor" stroke-linecap="round" stroke-linejoin="round" color="#000"><path stroke="#29C3F6" d="M97.3 7.51h29.9M28 79.85l.36.98.36-7.63.37 7.51.36-4.92.36 10.59.36-9.54.36 8.23.37-7.97.36-4.62.36-1.81.36 5.69.37 5.18.36-2.39.36 2.49.36 2.36.36-7.72.37 5.94.36-7.09.36 1.91.36 6.51.36-1.07.37-7.37.36-.08.36 4.58.36-7.94.36 2.86.37 4.56.36-9.21.36 7.9.36 3.4.36 3.44.37-16.64.36 17.86.36-10.15.36-5.2.37 2.88.36 6.17.36-4.34.36-1.95.36 12.39.37-5.24.36-2.78.36 7.94.36-.1.36 4.08.37-16.92.36-8.15.36 7.82.36 11.52.36-8.41.37 2.66.36-4.38.36 1.44.36.58.37-5.83.36-.45.36 7.28.36 3.54.36-3.13.37-7.02.36 2.95.36-.51.36 1.59.36-3.16.37-2.96.36 8.99.36-3.85.36 2.15.36 9.57.37-3.05.36-1.6.36-2.39.36-6.18.37 2.36.36-1.58.36 1.99.36-5.17.36 2.28.37 6.52.36-5.3.36 3.43.36-11.2.36 10.99.37-19.24.36 15.71.36.43.36.73.36 4.75.37-.1.36 4.17.36-2.86.36-3.59.36-2.39.37 1.26.36 6.01.36 3.15.36-3.64.37-15.68.36 4.45.36 10.49.36-1.29.36-5.05.37 5.02.36-2.98.36 4.27.36-9.26.36.01.37 13.73.36-26.34.36 14.28.36-2.17.36 11.65.37-7.35.36 4.73.36-4.41.36 10.28.37-3.33.36-2.34.36-13.35.36 8.99.36-2.97.37 5.78.36-1.11.36 7.35.36-4.79.36-1.95.37-9.24.36 17.36.36-4.57.36-2.65.36 6.98.37-10.26.36 12.59.36-5.35.36-13.98.36 12.59.37-11.18.36 10.05.36-6.64.36-2.97.37 9.05.36-1.52.36.62.36-6.82.36 8.46.37-4.36.36 6.43.36-3.98.36-1.27.36 1.74.37 3.57.36 5.22.36-2.36.36-9.8.36 4.57.37-6.56.36 11.37.36-8.31.36.98.37-7.84.36 13.67.36-9.69.36 1.49.36 9.75.37-10.13.36 2.77.36 3.94.36 4.71.36-6.08.37 4.07.36-4.1.36 3.53.36-9.32.36-2.28.37 9.46.36-2.94.36-4.33.36 6.03.36-7.65.37 9.34.36-2.53.36-2.09.36 3.03.37-10.01.36 16.83.36-11.73.36-3.62.36 10.48.37-12.77.36 5.78.36-2.4.36 9.86.36-1.98.37-5.42.36 2.83.36-5.99.36 12.84.36-12.13.37-2.55.36 2.9.36 3.96.36 5.02.37-3.24.36-.56.36 5.35.36-7.11.36 6.05.37-1.43.36-1.53.36-4.75.36-.39.36 7.64.37-8.66.36 4.46.36-.42.36.26.36-3.1.37 10.3.36-6.45.36-.2.36-10.29.37.7.36 14.03.36 3.08.36-6.62.36-3.09.37-10.81.36 8.97.36 5.36.36 1.08.36-20.61.37 13.02.36.99.36 15.32.36-6.33.36 2.52.37-2.53.36-3.37.36-5.33.36 8.78.36-12.26.37 3.03.36 1.6.36-7.01.36 15.75.37-9.2.36.28.36-1.72.36 2.12.36 1.99.37-1.59.36-5.75.36 11.69.36 1.27.36-10.83.37 4.95.36-.43.36-4.49.36-4.97.36 10.76.37-1.86.36 1 .36 9.32.36-10.15.37 1.12.36-9.06.36 4.83.36 4.78.36-3.44.37-.82.36-1.45.36 2.02.36 10.73.36-2.55.37-3.71.36 4.25.36-.79.36-7.99.36 8.68.37 3.26.36-16.86.36 7.62.36-9.42.36 6.59.37 17.49.36-25.27.36 9.79.36-3.17.37 11.43.36 3.78.36-14.29.36-1.45.36-2.27.37 10.3.36-12.26.36 9.4.36.22.36.84.37 1.43.36-5.32.36 3.76.36-1.99.36 7.46.37-3.38.36-9.35.36 3.98.36-.08.37 10.52.36-7.04.36-10.18.36 3.82.36-.31.37 6.48.36-11.54.36 18.31.36-12.92.36 4.34.37.86.36-9.75.36 1.3.36 13.74.36-6.17.37-15.11.36 4.03.36 11.61.36-1.04.36 5.21.37-4.62.36-1.57.36 6.2.36-15.44.37 18.12.36-21.12.36 2.56.36 13.92.36-3.64.37-11.13.36 4.02.36-1.45.36 11.91.36-3.57.37-1.93.36-6.98.36 8.42.36 6.22.36 3.29.37-4.89.36 2.86.36-9.44.36-4.39.37 2.17.36 12.73.36-12.92.36 15.45.36-3.94.37-12.19.36 3.9.36-4.65.36 12.66.36 2.16.37.17.36-17.89.36 12.93.36-9.02.36 15.65.37-6.5.36-7.47.36-7.01.36-3.27.37 7.29.36-1.22.36 16.3.36-7.52.36-1.34.37 3.27.36 3.08.36 2.15.36 1.23.36-19.07.37 17.54.36-5.03.36 3.41.36-3.81.36-1.01.37-11.91.36 19.8.36-11.43.36 7.77.36-3.1.37-5.56.36-2.28.36 3.49.36 5.99.37-8.96.36-.5.36 15.13.36-9.41.36 4.61.37 6.67.36-20.46.36 12.07.36-13.81.36 11.68.37-2.12.36 8.66.36-9.48.36.84.36 9 .37-10.11.36-.84.36 8.31.36 1.62.37-6.15.36 6.96.36-18.94.36 4.86.36 11.34.37-8.3.36 4.55.36 3.7.36-4.79.36 8.31.37-17.51.36 9.9.36 10.95.36-16.03.36 9.28.37-6.18.36 5.33.36 2.21.36-12.75.36 8.82.37-3.08.36 4.62.36 1.16.36 3.11.37-10.14.36 9.38.36-11.1.36 1.32.36.56.37-1.76.36 8.73.36 2.49.36-3.28.36-4.89.37 1.73.36-6.88.36 8.72.36.89.36 5.44.37-5.93.36-2.02.36-1.64.36.19.37-4.58.36.87.36.95.36 2.76.36-1.4.37 4.39.36 2.81.36-3.66.36 3.43.36-12.96.37 14.5.36-13.91.36 2.08.36 3.59.36 1.3.37 1.89.36-.77.36 8.47.36-7.46.37-6.68.36 10.42.36-1.6.36.34.36-7.52.37-.39.36 12.9.36-9.42.36-13.21.36 20.43.37-13.75.36 16.21.36-7.14.36-10.52.36 9.65.37-3.66.36 2.15.36-1.36.36-3.91.36 13.14.37-5.61.36-15.15.36 14.95.36 4.84.37-9.09.36-.08.36-4.72.36 14.71.36-9.45.37-.9.36 6.06.36-4.29.36-6.81.36 6.88.37-4.56.36 8.4.36-1.94.36-10.6.36 17.53.37-9.33.36 1.81.36 3.75.36-4.54.37 3.36.36 4.4.36-12.26.36 5.54.36-1.11.37 6.9.36-17.39.36 10.13.36 1.74.36-.52.37 3.18.36 2.68.36-12.7.36 13.93.36-9.51.37 5.48.36-3.63.36-3.3.36 8.54.36-15.81.37 13.09.36-4.89.36 5.54.36-8.96.37 14.63.36-7.93.36-6.16.36 3.4.36 2.59.37-11.85.36 14.93.36-4.27.36-5.61.36 4.09.37.09.36 3.43.36 2.02.36 6.46.36-12.8.37 5.25.36-2.73.36 1.82.36-5.04.37 2.38.36 2.48.36-.24.36 4.52.36 1.71.37-9.65.36 7.98.36-12.72.36 7.07.36.82.37-12.53.36 23.49.36-15.84.36 12.97.36-8.4.37-15.74.36 22.74.36-13.66.36 5.59.36 3.55.37-5.32.36 6.58.36-4.84.36 5.78.37-5.91.36-7.46.36 6.34.36 9.2.36-9.88.37 1.97.36 6.58.36-7.46.36-3.36.36.25.37-5.07.36 8.29.36 1.4.36 2.43.36-.05.37-3.57.36-5.99.36 7.49.36-5.27.37 12.17.36-.77.36-6.73.36.71.36-6.68.37 1.9.36 14.74.36-12.66.36 7.15.36-9.91.37 10.6.36-15.34.36-3.38.36 9.58.36-2.57.37 10.47.36-10.04.36-1.51.36-1.23.37 8.66.36.31.36 1.68.36-8.46.36 4.44.37 2.9.36-1.02.36.21.36 3.13.36-7.52.37 3.12.36-8.88.36 10.33.36 4.16.36-.48.37-3.18.36-3.24.36 9.16.36-8.93.36 5.21.37.04.36-5.81.36 4.08.36 2.07.37-2.08.36-.65.36-5.83.36 2.48.36.03.37 6.41.36-.22.36-1.85.36-2.87.36-2.55.37 5.28.36-7.32.36 5.46.36 4.25h.36l.37-1.08.36.97.36-10.1.36 8.34.37 3.72.36-2.5.36 7.71.36-19.15.36 8.87.37 11.02.36-9.08.36 2.51.36 6.38.36-7.7.37-12.03.36 9.7.36-5.57.36 9.69.36 4.43.37-14.74.36 6.66.36-1.05.36-4.36.36 14.79.37-3.38.36-3.73.36-12.38.36 6.95.37 11.42.36-5.08.36-9.3.36-2.57.36 13.48.37-4.61.36-.65.36-11.36.36 11.37.36-5.7.37 8.02.36-8.6.36.35.36 10.53.36-16.74.37 16.84.36-12.2.36 1.32.36 11.63.37-4.39.36.18.36 5.74.36-10.1.36 1 .37-14.41.36 22.07.36-14.82.36 3.32.36.5.37 11.96.36-13.62.36 5.79.36-.52.36 2.3.37-7.8.36 17.54.36-15.64.36 1.4.36 11.75.37-10.35.36 11.77.36-6.93.36 2.06.37-11.98.36 16.46.36-2.41.36-4.89.36.91.37-8.26.36 10.45.36-18.65.36 12.87.36 4.54.37 1.46.36-6.89.36 3.65.36-12.8.36 8.25.37 10.82.36-2.81.36.76.36-1.76.37-4.27.36-5.77.36 1.79.36 7.2.36-12.75.37 10.72.36 5.93.36-11.75.36 2.33.36 2.57.37-8.77.36 6.2.36 6.38.36-6.78.36-.26.37 9.84.36-8.75.36 10.28.36-2.67.37-2.32.36-10.84.36 10.59.36 5.44.36-7.01.37-3.11.36-1.96.36-4.08.36 9 .36 2.69.37-6.97.36 4.84.36 2.15.36-12.92.36 8.4.37-11.57.36 8.07.36 5.58.36-3.76.36-1.92.37 2.85.36-5.9.36 4.34.36 2.59.37 7.33.36-1.25.36-9.06.36-3.46.36.19.37 6.23.36 6.24.36 1.32.36-3.81.36-1.88.37-6.79.36-2.88.36-2.61.36 19.55.36-13.96.37 3.85.36-4.18.36-3.57.36 9.02.37-.26.36-1.51.36-1.26.36-4.26.36 9.25.37-6.79.36 6.77.36-2.18.36 4.13.36 1.05.37-9.22.36 1.57.36-.27.36-6.14.36 11.03.37 1.03.36.15.36-6.69.36-11.43.36 13.8.37-3.32.36 3.43.36 2.87.36-12.33.37 8.71.36 6.81.36 3.05.36-8.54.36-1.15.37 12.1.36-8.78.36-3.97.36 9.18.36-.92.37-10.38.36 7.3.36-1.12.36-1.08.36-8.29.37 17.1.36-16.24.36 13.92.36-7.06.37-5.76.36 6.16.36-2.52.36 4.02.36-.31.37 1.05.36-8.8.36 7.88.36.63.36-4.03.37-2.48.36-1.69.36-2.89.36 8.72.36-.73.37-3.2.36-.4.36 6.74.36-4.43.36 1.9.37-3.34.36-.56.36 5.52.36.73.37-4.66.36.92.36-2.75.36 3.9.36 1.05.37-2.27.36 3.99.36-9.23.36 13.14.36-14.52.37 9.07.36 5.72.36-8.78.36 3.01.36-2.72.37-7.18.36 4.23.36 14.23.36-13.29.37-7.23.36 5.71.36 5.18.36-2 .36 9.28.37-10.7.36 7.86.36-3.37.36-.6.36 5.1.37-11.57.36 6.88.36 3.4.36-2.88.36-2.08.37 1.08.36 2.75.36-14.95.36 16.25.37-3.02.36-12.49.36 11.33.36.86.36 3.69.37-7 .36-11.24.36 10.37.36 1.42.36 4.87.37 1.41.36 1.11.36-9.83.36 8.21.36-4.85.37-.67.36 3.45.36 11.18.36-23.22.36 2.97.37 10.05.36-5.72.36 5.37.36-3.73.37-6.62.36-5.72.36 4.12.36 16.76.36-14.83.37 5.08.36-10.91.36 12.03"/><use xlink:href="#3ab31__b" color="#29C3F6" transform="matrix(3.75 0 0 3.75 354.25 72.26)"/><use xlink:href="#3ab31__b" color="#29C3F6" transform="matrix(3.75 0 0 3.75 112.25 7.51)"/></g><text stroke-linecap="round" stroke-linejoin="round" stroke-width=".5" color="#000" font-family="KaTeX_Main" font-size="8" transform="translate(132.8 25.11)"><tspan>AVLBottomUp</tspan></text><g fill="none" stroke="currentColor" stroke-linecap="round" stroke-linejoin="round" stroke-width=".5" color="#000"><path stroke="#000" d="M97.3 22.51h29.9M28 128.32l.36-.06.36.01.37-.07.36.16.36-.07.36-.07.36-.02h.37l.36-.02.36-.04.36-.07.37.18.36-.06.36-.05.36-.03.36-.04.37-.03h.36l.36.02.36-.04.36-.07.37-.09.36-.05.36.13.36-.03.36-.05.37-.06.36-.05.36-.06.36-.01.36-.07.37.13.36-.06.36-.03.36-.05.37-.03.36-.03.36-.04.36-.04.36.01.37-.03.36.66.36-.02.36.04h.36l.37-.03.36-.03.36-.02.36-.04.36-.02.37-.01.36-.03.36.02.36-.03.37-.04.36-.04.36.02.36-.01.36-.04.37-.02.36-.01.36-.03.36-.02.36.04.37-.03.36-.04.36-.03.36-.01.36-.02.37.26.36-.04.36-.03.36-.01.37-.04.36.02.36-.01.36-.02.36-.05.37-.04.36.02.36.03.36-.01.36-.02.37-.01.36-.03.36-.03.36.01.36-.03.37-.05.36-.03.36-.05.36-.04.36-.04.37-.05h.36l.36-.04.36-.01.37-.01.36-.04.36-.05.36-.04.36-.05.37.74.36-.01.36.03h.36l.36.07h.73l.36-.01.36-.02.36.02.37-.02.36-.03.36.03.36-.03.37-.02.36-.02.36.03.36-.02.36-.03.37.13h.36l.36-.03.36-.03.36-.01.37-.04.36-.03.36.05.36-.01.36-.03.37-.02.36-.03.36-.01.36.01.36-.02.37.04.36-.01.36.03.36.01.37-.01.36.01.36-.05.36-.01.36-.03h.37l.36-.02.36-.03.36.04.36-.01.37-.02.36-.03.36-.03.36-.05.36.01.37-.04.36-.04.36-.02.36-.05.37-.03.36-.03.36-.03.36-.05.36-.04.37-.04.36-.06.36-.01.36.93.36-.01.37-.03.36-.02.36.01.36-.01.36-.04h.37l.36-.03h.36l.36.03.36-.03.37-.01.36-.05.36-.05.36.09.37-.02.36-.02.36-.02.36-.04.36-.05.37-.01.36-.04.36-.08.36-.01.36-.03.37-.01.36-.05.36-.01.36-.02.36-.05.37-.04.36-.01.36-.06.36.18.37-.04.36-.03h.36l.36-.04.36.31.37-.02.36-.01.36.04.36.04.36.01.37-.02h.36l.36-.02.36-.02.36-.02.37.02.36-.03.36-.02.36-.02.37-.02.36-.04.36.45.36-.04h.36l.37-.02.36-.02.36.02.36-.03.36-.05.37-.01.36-.04.36-.04.36.03h.36l.37-.02.36-.03.36-.02h.72l.37-.01.36-.01.36-.04h.36l.37-.02.36-.03.36-.02.36.09h.36l.37-.03h.36l.36-.04h.36l.36-.03.37-.04.36.36.36-.01h.36l.36-.02.37.01.36-.02.36.15.36.04.37-.01h.36l.36-.02.36-.03.36-.01.37.02.36-.01h.72l.36-.03.37-.03.36-.04.36.01.36-.01.36-.01.37-.02.36-.03.36-.04.36-.02.36-.05.37.02.36-.03.36-.03.36-.04.37.14h1.08l.36-.02.37-.03.36-.04.36-.02.36-.02.36-.02.37-.01.36-.03.36-.04.36-.02.36.02.37-.03.36-.01.36-.02.36-.01.37.37.36-.01.36-.02.36-.02.36-.03.37-.01.36-.02.36-.02.36.01.36-.01.37.02.36.02h.36l.36-.02.36.27h.37l.36-.03.36.04.36-.02.36-.01.37-.04.36.02.36-.03.36-.03.37-.03.36-.02.36-.02.36-.02.36-.03.37-.02.36-.02.36-.02.36-.04.36.03.37.05.36-.01.36-.04.36-.04.36-.01.37-.04.36.06.36-.01.36-.03h.37l.36-.02.36-.02.36-.03.36-.03.37-.04.36-.02.36.08.36-.01.36-.04.37-.05.36.01.36-.02.36-.03.36-.01.37-.01.36-.03.36-.02.36-.02.37-.01.36-.04.36-.02.36-.04.36-.05.37.06.36-.05.36-.05.36-.05.36-.04.37-.04.36-.04.36.79h.36l.36.08.37-.01.36-.02.36.01.36-.02.36-.01.37-.02.36-.02.36-.03.36-.02.37-.02.36.05.36-.04h.36l.36.02.37-.01.36.01.36-.02.36-.03.36-.04.37-.05.36-.01.36.18h.72l.37-.03.36-.02.36-.01.36.05.37-.04.36-.02.36-.03.36-.02.36.03.37-.02.36-.02.36-.11.36-.02.36.07.37-.04.36-.04.36-.03.36-.05.36.02.37-.03.36.02.36-.02.36-.03.36-.05.37-.02.36.02.36-.02.36-.01.37-.03.36-.03.36-.03.36-.03.36.31.37-.03.36-.04.36-.04.36-.04.36-.03.37-.06.36-.05.36-.05.36-.04.36-.05.37-.04.36.01.36-.05.36-.04.37.02.36-.05.36.81.36.03.36-.01.37.01h.36l.36-.01.36-.03.36-.03.37-.03.36-.02.36-.03.36-.01.36-.05.37-.04.36-.02.36-.03.36.04.37-.02.36-.01.36.04.36.01.36-.02.37.01.36-.02.36-.03h.36l.36-.02h.37l.36-.01.36.12.36-.02.36-.04.37.09.36-.02.36-.03.36-.01.36-.01.37-.02.36-.03.36-.05.36-.01.37-.05.36-.02.36-.01.36-.04.36-.06.37.17.36-.04.36-.05.36.14.36-.03.37-.02.36-.05.36-.01.36.12.36.05.37-.01.36-.01.36.02.36-.02.37-.02.36.09.36-.02.36-.04.36-.01.37.07.36-.02.36-.03.36-.02.36-.02.37.06h1.44l.37-.03.36.02.36-.03h.36l.36-.01.37.03.36.02.36-.01h.36l.37.33h.72l.36.01.36-.02.37-.02.36-.03.36-.03.36-.05h.36l.37-.03.36.14.36-.01.36-.04.36-.03.37-.02h.36l.36-.03.36-.01.37-.03.36-.03.36.03.36-.02.36.02h.73l.36-.04.36-.03.36-.04.37-.02.36.03.36-.04.36.04.36-.05.37-.03.36-.02.36-.01.36-.01.36-.03.37-.02.36.04.36-.04.36-.01.37-.03.36-.02.36.01.36-.03.36.01.37-.02.36-.03.36-.02.36-.02.36-.04.37-.01.36.12.36-.05.36-.02.36-.03.37-.05.36.68.36.07.36-.03.37-.02.36.01.36.02.36-.01.36-.01.37-.01.36-.02.36-.02h.36l.36-.01.37-.03.36-.15.36-.01.36-.02.36-.01.37-.03.36-.02.36.04.36-.02.37-.03h.36l.36-.02.36.18.36-.03.37.03.36-.03.36-.02.36-.03.36-.01.37-.03.36.02.36-.04h.36l.36.01.37-.05.36.02.36.02.36-.02.36.02.37-.01.36-.01.36.01.36-.02.37.01.36.03.36-.01.36-.01h.36l.37-.03h.36l.36-.03.36-.04.36.54.37-.03.36-.04h.36l.36-.04.36-.03.37-.04.36.03.36-.02.36-.04h.73l.36.06.36.01.36-.02.37-.01.36-.03.36-.01.36-.03.36-.03.37-.04.36-.02.36.17h.36l.36-.01.37-.01.36-.02.36-.02.36.03.36-.01h.37l.36.03.36-.02.36-.02.37.13.36-.01.36-.03.36-.01.36-.01.37-.01h.36l.36.02.36-.03.36.01.37-.03.36-.01.36-.04.36-.03.36-.03.37-.04.36-.01.36-.02.36.08.37-.01h.36l.36-.02.36-.05.36.02.37-.05.36-.02.36.32.36.02.36-.02.37-.04.36-.03.36-.06.36-.02.36.04.37.01.36-.03.36-.01.36-.02.36-.01.37-.03.36.09.36-.01h.36l.37-.03.36-.01.36.03h.36l.36-.03.37.02h.36l.36-.03.36-.03.36.01h.37l.36-.02.36.02.36-.02.36-.02.37.07.36-.01h.36l.36.05.37-.03.36-.03h.36l.36-.01.36-.05.37-.04.36.02.36-.03.36-.03.36.02.37-.03.36-.03.36-.01h.36l.36.02.37-.01.36-.02.36-.03.36-.02h.37l.36.38.36-.05.36-.03.36-.02.37-.02.36-.04.36.01.36-.05.36.1.37.01.36-.03h.36l.36-.03.36-.03.37.08.36-.05.36.03.36-.02.36.01.37-.03.36-.02.36-.01.36-.01.37-.04.36-.01.36-.04.36-.02.36-.01.37-.02.36-.03.36.05.36-.05.36-.04h.37l.36-.02.36-.03.36-.03.36-.03.37-.05.36-.02.36-.04.36.65h.37l.36.02h.36l.36.01.36-.01.37-.01.36-.02.36-.03.36-.04.36-.03.37-.04.36-.04.36-.04.36-.01.36.37.37-.01.36-.02.36-.03.36.07.36-.03.37-.02.36-.02h.36l.36-.02.37-.01.36-.03.36-.01.36-.02h.36l.37.06.36-.02.36-.03.36-.03.36-.03.37-.02.36-.03.36-.02.36-.04.36.01.37-.03.36-.03.36-.05.36-.05.37-.05.36-.02.36.01.36-.05.36-.04.37.03.36.09.36-.03.36-.01.36-.04.37-.05.36-.05.36-.02.36.02.36.14.37-.04.36-.02.36-.05.36.02.36-.04.37.41.36-.01h.36l.36-.01.37-.01.36.09.36-.01.36-.02.36-.02.37.03.36-.01h.36l.36-.03.36-.01.37-.05.36-.03.36.03.36-.02.36-.02.37-.01.36-.03.36-.02.36-.01.37-.01.36-.01.36.06.36-.04h.36l.37-.04.36.12.36-.02.36-.02.36-.01.37-.02.36-.05.36.01.36.01.36-.01.37.02.36.04.36-.02h.73l.36-.01.36.04h.72l.37-.02.36.15.36-.03.36-.02.36-.02.37-.03.36-.02.36-.01.36-.03.36-.04.37-.02h.36l.36-.03.36.01.36-.04.37-.02.36.21.36-.04.36-.03.37-.03.36-.04.36.02.36.01.36-.04.37-.04.36-.03.36-.01"/><use xlink:href="#3ab31__d" transform="matrix(3.75 0 0 3.75 67.83 127.94)"/><use xlink:href="#3ab31__d" transform="matrix(3.75 0 0 3.75 112.25 22.51)"/></g><text stroke-linecap="round" stroke-linejoin="round" color="#000" font-family="KaTeX_Main" font-size="8" transform="translate(241.1 10.11)"><tspan>LBSTRelaxed</tspan></text><g fill="none" stroke="currentColor" stroke-linecap="round" stroke-linejoin="round" color="#000"><path stroke="#FFAB00" stroke-dasharray="4.0,2.0,1.0,2.0" d="M205.6 7.51h29.9M28 127.36l.36-.1.36-.18.37.8.36-.06.36-.05.36-.14.36-.13.37.07.36-.12.36-.07.36-.17.37.22.36-.1.36-.06.36-.11.36-.02.37-.13.36-.13.36-.09.36-.17.36 1.33.37-.05.36-.01.36-.09.36.05.36-.08.37-.04.36-.09.36.13.36-.07.36-.08.37-.04.36-.11.36.02.36-.08.37-.07.36-.11.36.41.36-.05.36-.09.37-.03.36-.09.36.05.36-.08.36-.06.37-.1.36.12.36-.07.36-.05.36-.1.37-.06.36-.09.36.02.36-.07.37-.04.36-.1.36-.12.36-.03.36-.12.37.01.36.89.36-.05.36-.06.36-.1.37-.03.36-.04.36-.07.36-.1.36.68.37-.02.36-.04.36-.02.36-.01.37-.05.36-.09.36.01.36-.07.36.06.37-.07.36-.03.36-.08.36-.03.36.03.37-.09.36-.04.36-.1.36.47.36-.05.37-.04.36-.07.36.04.36-.07.36-.09.37-.06.36-.1.36.26.36-.06.37-.05.36-.07.36.02.36-.1.36-.08.37-.07.36-.12.36.26.36-.07.36-.05.37-.09.36-.13.36.01.36-.11.36-.08.37.05.36.01.36-.08.36-.07.37 1.15.36-.04.36.01.36-.03.36-.04.37.03.36-.03.36.03.36-.02.36-.06.37-.05.36-.02.36-.08.36.1.36.03.37-.05.36-.07.36.04.36-.03.36-.05.37-.05.36-.1h.36l.36-.04.37-.1.36-.08.36-.12.36.34.36.15.37-.07h.36l.36-.03.36-.07.36-.1.37.01.36-.05.36.01.36-.07.36-.07.37-.11.36.06.36-.03.36-.09.37-.12.36-.05.36.08.36-.09.36-.02.37 1.23.36-.01.36-.01.36-.02.36-.04.37-.08.36.07.36.05.36-.04.36-.04.37-.07.36-.01.36-.07.36-.12.36.24.37-.05.36-.04.36-.04.36-.04.37-.07.36-.03.36-.07.36-.02.36-.02.37-.12.36-.06.36-.11.36.32.36.17.37-.05.36-.03.36-.1.36-.01.36-.09.37.01.36-.07h.36l.36-.05.37-.1.36-.08.36.06.36-.06.36-.08.37-.08.36-.12.36.08h.36l.36-.07.37 1.13.36-.02.36-.03.36-.04.36-.01.37-.07.36.07h.72l.37-.04.36-.05.36-.03.36-.08.36-.1.37.24.36-.07.36-.04.36-.08.36.07.37-.08.36-.03.36-.06.36-.07h.36l.37-.09.36-.06.36-.12.36.32.36.15.37-.06.36-.09.36.05h.36l.37-.1.36-.02.36-.09.36-.01.36-.04.37-.09.36-.08.36-.13.36.14.36-.06.37-.08.36-.11.36.09.36-.09.36-.02.37 1.11.36-.03.36-.04.36-.01.37-.02.36-.06.36.06.36.02h.36l.37-.03.36-.06.36-.08.36-.02.36-.09.37.21.36-.04.36-.04.36-.08.36.06.37-.06.36-.07.36-.07.36-.06.36.01.37-.09.36-.06.36-.11.36.3.37.14.36-.07.36-.06.36.04.36-.01.37-.08.36-.02.36-.1.36-.06.36.01.37-.08.36-.08.36-.13.36.11.36-.04.37-.08.36-.12.36.11.36-.1.37-.02.36 1.09.36-.02.36-.04h.36l.37-.02.36-.07.36.06.36.01h.36l.37-.04.36-.04.36-.08.36-.02.36-.09.37.18.36-.02.36-.07.36-.06.36-.11.37.11.36-.06.36-.08.36-.05.37.01.36-.09.36-.06.36-.11.36.3.37.13.36-.06.36-.06.36.04.36-.01.37-.08.36-.03.36-.1.36-.1.36.06.37-.08.36-.09.36-.12.36.12.37-.11.36-.02.36-.12.36.09.36-.08.37-.03.36 1.1.36-.02.36-.03.36-.02.37-.01.36-.06.36.07.36.01.36-.02.37-.03.36-.04.36-.07.36-.03.37-.09.36.2.36-.07.36-.02.36-.07.37-.09.36.1.36-.07.36-.07.36-.05.37.01.36-.09.36-.07.36-.1.36-.09.37.52.36-.06.36-.06.36.03.36-.01.37-.07.36-.02.36-.1.36-.1.37.06.36-.09.36-.09.36-.11.36.11.37-.11.36-.05.36-.08.36.09.36-.11.37-.11.36 1.18.36-.02.36-.03.36-.01.37-.04.36-.04.36.06.36-.05h.73l.36-.03.36-.07.36-.04.37-.07.36.1.36.03.36-.05.36-.04.37-.09.36.1.36-.06.36-.08.36-.05.37-.01.36-.07.36-.07.36-.1.36-.13.37.55.36-.08.36-.04.36.04.37-.02.36-.06.36-.07.36-.05.36-.11.37.06.36-.08.36-.09.36-.1.36.1.37-.11.36-.05.36-.08.36.07.36-.09.37-.1.36-.01.36 1.16.36-.03.37-.02.36-.02.36-.04.36.05.36-.07.37.03.36-.01.36-.02.36-.07.36-.04.37-.07.36.1.36.02.36-.04.36-.04.37-.09.36.08.36-.07.36-.05.37-.05.36-.02.36-.06.36-.09.36-.1.37-.11.36.32.36.15.36-.04.36-.1.37.11.36-.06.36-.06.36-.06.36-.1.37.05.36-.09.36-.07.36-.1.36.04.37-.05.36-.05.36-.09.36.05.37-.06.36-.1.36-.01.36 1.15.36-.03.37-.01.36-.03.36-.04.36.03.36-.03.37.02.36-.01.36-.02.36-.07.36-.03.37-.07.36-.1.36.21.36-.04.37-.03.36-.09.36.08.36-.07.36-.05.37-.07h.36l.36-.07.36-.08.36-.09.37-.11.36.32.36.15.36-.04.36-.1.37.08.36-.04.36-.05.36-.06.36-.09.37.04.36-.08.36-.08.36-.11.37.06.36-.05.36-.06.36-.08.36-.12.37.11.36-.11.36-.01.36 1.11.36-.01.37-.01.36-.06.36-.01.36-.07.36.08.37.01h.36l.36-.03.36-.06.37-.04.36-.08.36-.09.36.22.36-.03.37-.04.36-.08.36.06.36-.06.36-.08.37-.04.36-.09.36.01.36-.1.36-.06.37-.11.36.31.36.15.36-.05.36-.09.37.05.36-.01.36-.05.36-.06.37-.09h.36l.36-.03.36-.11.36-.08.37.06.36-.06.36-.05.36-.08.36-.11.37.09.36-.1.36-.01.36 1.11.36-.02.37-.02.36-.05.36-.01.36-.07.37.07.36.02h.36l.36-.02.36-.06.37-.04.36-.08.36-.09.36.22.36-.04.37-.04.36-.08.36.06.36-.06.36-.07.37-.08.36-.05.36.01.36-.09.37-.07.36-.11.36.31.36.15.36-.05.37-.09.36.04h.36l.36-.09.36-.02.37-.1h.36l.36-.04.36-.09.36-.08.37-.13.36.13.36-.05.36-.09.36-.12.37.11.36-.11.36-.01.36 1.08.37-.03.36-.03.36-.01.36-.01.36-.07.37.07.36.01h.36l.36-.02.36-.07.37-.07.36-.03.36-.09.36.19.36-.02.37-.04.36-.09.36-.11.36.12.37-.06.36-.08.36-.05.36.01.36-.09.37-.07.36-.1.36.3.36.14.36-.06.37-.07.36.04.36-.01.36-.08.36-.02.37-.1.36-.11.36.07.36-.09.36-.08.37-.12.36.11.36-.1.36-.02.37-.12.36.09.36-.09.36-.02.36 1.09.37-.02.36-.03.36-.01.36-.01.36-.07.37.07h.72l.36-.04.36-.04.37-.07.36-.03.36-.09.36.19.37-.03.36-.06.36-.07.36-.09.36.11.37-.07.36-.07.36-.06.36.01.36-.08.37-.07.36-.1.36-.09.36.51.36-.05.37-.07.36.04.36-.02.36-.06.36-.03.37-.1.36-.1.36.06.36-.08.37-.09.36-.11.36.1.36-.1.36-.06.37-.07.36.08.36-.08.36-.05.36 1.11.37-.02.36-.03.36-.01.36-.02.36-.06.37.06.36-.05h.72l.37-.03.36-.07.36-.01.36-.09.36.1.37.02.36-.03.36-.05.36-.09.36.1.37-.07.36-.06.36-.06.36.01.36-.09.37-.06.36-.11.36-.13.36.56.37-.06.36-.06.36.03.36-.01.36-.07.37-.05.36-.07.36-.1.36.06.36-.09.37-.09.36-.1.36.11.36-.11.36-.05.37-.08.36.08.36-.1.36-.11.36.01.37 1.15.36-.03.36-.02.36-.02.37-.04.36.05.36-.07.36.03h.36l.37-.03.36-.06.36-.05.36-.06.36.09.37.03.36-.05.36-.04.36-.09.36.08.37-.07.36-.05.36-.05.36-.01.37-.07.36-.07.36-.12.36-.11.36.54.37-.06.36-.05.36-.1.36.11.36-.07.37-.05.36-.05.36-.1.36.04.36-.09.37-.07.36-.1.36.04.36-.05.36-.05.37-.08.36.04.36-.05.36-.11h.37l.36 1.12.36-.02.36-.02.36-.02.37-.05.36.03.36-.03.36.03.36-.01.37-.03.36-.07.36-.03.36-.07.36.1.37.03.36-.04.36-.05.36-.09.37.08.36-.06.36-.06.36-.06h.36l.37-.07.36-.09.36-.09.36-.11.36.33.37.14.36-.04.36-.1.36.1.36-.06.37-.05.36-.05.36-.1.36.04.36-.09.37-.07.36-.12.36.06.36-.05.37-.05.36-.09.36-.12.36.11.36-.1.37-.01.36 1.13.36-.02h.36l.36-.03.37-.05.36-.07.36.08.36.01.36-.01.37-.02.36-.06.36-.04.36-.07.37-.11.36.22.36-.04.36-.04.36-.08.37.07.36-.06.36-.08.36-.04h.36l.37-.07.36-.08.36-.09.36-.11.36.31.37.15.36-.04.36-.09.36.07.37-.04.36-.05.36-.06.36-.09.36.04.37-.08.36-.1.36-.09.36.06.36-.05.37-.06.36-.08.36-.12.36.1.36-.1.37-.01.36 1.11.36-.01h.36l.36-.07.37-.01.36-.07.36.07.36.02h.37l.36-.03.36-.06.36-.03.36-.08.37-.09.36.22.36-.04"/><use xlink:href="#3ab31__e" color="#FFAB00" transform="matrix(3.75 0 0 3.75 125.4 127.5)"/><use xlink:href="#3ab31__e" color="#FFAB00" transform="matrix(3.75 0 0 3.75 220.55 7.51)"/></g><text stroke-linecap="round" stroke-linejoin="round" color="#000" font-family="KaTeX_Main" font-size="8" transform="translate(241.1 25.11)"><tspan>TreapTopDown</tspan></text><g fill="none" stroke="currentColor" stroke-linecap="round" stroke-linejoin="round" color="#000"><path stroke="#00C853" stroke-dasharray="4.5,2.0,0.5,2.0,0.5,2.0" d="M205.6 22.51h29.9M28 113.73l.36.02.36.01.37.06.36-.04h.36l.36-.02.36-.11.37-.15.36-1.22.36.21.36.1.37-1.6.36.3.36.12.36.18.36.14.37-.02.36.2.36.13.36-.05.36.21.37.1.36-.24.36.13h.36l.36-.06.37-.07.36-.26.36-.29.36.14.36.09.37.06.36.06.36.01.36.15.37.05.36.03.36-.02.36.08.36.02.37-.25.36.17.36.11.36-.04.36.07.37.12h.36l.36-.06.36.08.36.08.37-.06.36-.08.36.04.36-.01.37-.04.36-.04.36-.04.36-.18.36.26h.37l.36-.05.36-.05.36.03.36-.01.37-.08.36-.03h.36l.36-.02.36-.08.37-.07.36-.1.36.02.36-.2.37.04.36-.08.36-.08.36-.02.36-.04.37-.05.36-.54.36-.03.36-.06.36.02.37-.11.36-.03.36-.08.36-.07.36-.07.37 2.29.36-.07.36.08.36-.03h.36l.37-.02.36-1.3.36.02.36.03.37.02.36.01.36.05.36.04.36-.08.37-.01.36.05.36.01.36-.06.36.03.37-.07.36-.02.36.71.36-.02.36-.09.37-.02.36.03.36.03.36-.05.37-.02.36.03.36-.01.36-.01.36-.04.37-.04.36-1.65.36.66.36.07.36-.04.37.03.36.03.36-.02.36.07.36.04.37-.06.36.04.36.03.36.01.36-.04.37-.03.36.03.36-.05.36.29h.73l.36.07.36-.03.36-.05.37-.04.36-.13.36-.16.36-.02.36.19.37.07h.36l.36-.01.36-.02.36-.02.37.11.36.01h.36l.36-.03.37-.13h.36l.36.08h.36l.36-.2.37.01.36-.03.36-.04h.36l.36-.05.37-.02.36-.09.36-.02.36-.01.36-.15.37-.04.36-.09.36-.07.36 2.56.36.09.37.05.36-.04.36.06.36-2.3.37.09.36.05.36.05.36.1h.36l.37.01.36.03.36.05.36-.11.36.23.37.07.36-.01.36.05.36.09.36-.04.37.16.36.13.36.08.36.01.37.02.36.03.36.03.36-.04.36-.04.37-.06.36-.08.36-.12.36 1 .36-.05.37.08.36-.05.36-.01.36-.02.36.06.37-.01h.36l.36.11.36-.04.37.12.36-.16.36.01.36-.03.36-.04.37.03.36.03.36-.27.36.03.36-.03.37-.05.36.02.36-.02.36-.04.36.66h.37l.36-.02.36-.01h.36l.36.03.37-.02.36-.04.36-.1.36-.21.37.02h.36l.36.2.36.35.36-.63.37-.67.36.04.36.07.36.05.36-.02.37.05.36.08.36.02.36.02.36-.05h.37l.36.2.36-.02.36.04.37.01.36.13.36.02.36.03.36.05.37.02.36.08.36.05.36.05.36.02.37-.01.36-.05.36-.25.36.07h.36l.37.05.36.02.36-.01.36-.06.36.09.37.03.36-.03.36-.04.36-.13.37.1.36-.12.36.01.36-.4.36.01.37.07.36-.01.36-.02.36-.05.36.26.37.01.36-.02.36-.22.36-.02.36.03.37-.15h.36l.36.18.36-.01h.37l.36-.02.36-.01.36-.08.36-.06.37.01.36-.05.36-.06.36-.13.36.08.37-.07.36-.09.36-.02.36-.23.36-.32.37-.02.36-.33.36-.05.36.6.36.02.37-.4.36.05.36-.04.36-.06.37.02.36-.04.36-.02.36-.08.36-.49.37.08.36.02h.36l.36-.04.36.15.37.08.36.02.36-.03.36-.05h.73l.36-.14.36-.02.36-.04.37-.02.36.37.36-.03.36-.03.36-.05.37-.03.36-.01.36.03.36.02.36-.02.37-.03.36-.04.36-.1.36-.12.36-.02.37-.14.36-.19.36.16.36-.03.37-.02.36-.06.36-.11.36-.02.36-.04.37-.2.36-.05.36.01.36.12.36-.04.37-.04.36-.1.36-.11.36.01.36-.09.37-.1.36-.07.36 2.24.36-.05.36-.1.37-.02.36-.08.36-.02.36-.03.37-.5.36-.01.36.59.36-.01.36-.03.37-.03.36.07.36-.06.36.56h.36l.37-.05.36.12.36.06.36-.06h.36l.37-.02.36-.13.36.01.36-.16.37.01.36-1.99.36.07.36.06h.36l.37.24.36.07.36.04.36-.02.36.14.37.05.36.03.36.04.36.05.36-.01.37.02h.36l.36-.05h.36l.36-.04.37.2.36.01.36-.13.36.26.37.07.36.06.36.01.36-.02h.36l.37-.01.36.01.36-.1.36-.37.36.12.37.01h.36l.36.01.36.02h.36l.37-.08.36.01.36-.01.36 1.84.37.06.36.05.36-.08h.36l.36.07.37.06.36.05.36.02.36-.07.36.1.37.03.36.07.36.03.36.03.36-.06.37.1h.36l.36.03h.36l.37-.03.36-.28.36.06.36.03.36.01.37-.05.36.17.36.04.36.25.36-.01h.37l.36.05.36-.46.36.04.36.04.37.02.36.02h.36l.36-.06.36-.02.37-.01.36.47.36.46.36.05.37-.03.36.03.36-.02.36-.1.36-.12.37-.01.36-.03.36.02.36-.01.36.16.37.02.36.07.36.04.36.02.36.1.37-.05.36.02.36.09h.36l.37-.08.36.03.36.03.36.05.36-.18.37.02.36.02.36-.04.36-.08.36.04h.37l.36-1.33.36.05.36.08.36-.04.37.07.36-.03.36.04.36-.01h.36l.37-.12.36-.01.36.83.36.1.37-.12.36-2.25.36.11.36.01.36.03.37-.46.36-.04.36.04.36-.07.36-.06.37.75.36-.06.36.1.36.02.36.05.37-.07.36.01.36-.01.36.41.37-.02.36.03.36-.03.36.04.36.2.37.01.36-.08h.72l.36.08.37.03.36.03.36-.08.36-.04.36-.07.37-.02.36-.04.36.19.36-.02.36.01.37.09.36-.3.36.05.36.01.37-.02.36-.3.36.03.36-.05.36.07.37.05.36-.04.36.05.36.1.36-.04.37-.02.36-.04.36-.08.36.25.36.04.37-.01.36-.01.36.01.36-.05.37.07.36-.15.36-.04.36.03h.36l.37.03h.36l.36-.02.36 1.19.36-.05.37-.01.36-.07.36.02.36-.01.36-.01.37-.8.36.02.36.06h.36l.37-.01.36-.01.36.3.36.01.36-.03.37.24.36.02.36-.02.36-.01.36.02.37-.03.36-.12.36.03.36-.01h.36l.37.05.36.02h.36l.36-.06.36-.03h.37l.36-.01.36.01.36-.01.37-.34.36.01.36.94h.36l.36.08.37-.04.36-.02.36.05.36-.03.36-.05.37-.11.36.78.36.03.36-.01.36.17.37-.09.36.05.36.05.36.08.37.02h.36l.36-.02.36.07.36.03.37-.1.36-.11.36-.07h.36l.36-.05h.37l.36-.02.36-.07.36-1.36.36.14.37.03.36-.01.36-.05.36.12.36.03.37-.01h.36l.36-.01.36-.03.37-.06.36.43.36-.04.36-.02.36-.06.37-.16.36-.14.36-.16.36.11.36.04.37.02.36.03h.36l.36.01.36.22.37-.03.36.18.36-.29.36.04.37.03.36.03.36-.01.36-.05.36-.2.37.22.36-.39.36.04h.36l.36.01.37.01.36-.03.36-.05.36.03.36-.07.37.01.36-.07.36.06.36.01.36-.01.37-.05.36-.08.36-.03.36-.43.37.14h.36l.36.02.36-.07.36-.01.37.03.36-.02.36-.09.36-.13.36.04.37-.02.36-.04.36-.03.36 2.21.36-.03.37-.1.36.03.36.05.36.02.37.03.36-.03.36-.01.36-2.33.36.75.37.04.36.4.36.2.36.03.36-.04.37.22.36.05.36.06.36.05h.36l.37.07.36.02.36-.07.36-.02.37.19.36-.02.36.07.36.08.36-.08.37.06.36.06.36.01.36.12.36.01.37.02.36-.01.36.01.36-.08.36.01.37-.05.36-.02.36-.11.36-.01.36.37.37-.04.36-.02.36.03.36-.42.37.16.36-.37.36.04.36.09.36.03.37-.02.36.04h.36l.36-.06.36.03.37.03.36-.02.36-.12.36.02.36.17.37-.01.36-.12.36.11.36.09.37.02.36-.13.36.06.36.03.36-.03h.73l.36-.03.36-.09.36.64.37-.26.36.01.36-.05h.36l.36.22.37.05.36-.01.36.07.36-.01.36.02.37.01.36-.02.36-.04.36-.17.37.18.36-.01h.36l.36.02.36.03.37-.04h.72l.36-.29.36.01.37-.03.36.01.36-.01.36.28.36.07h.37l.36.02.36.01h.36l.37-.01.36.02.36-.04.36-.11.36-.04.37-.02.36-.04.36-.12.36-.07.36-.14.37-.03.36.04.36-.07.36-.16.36-.01.37-.06.36-.03.36.01.36.04.36-.07.37.04.36-.14.36-.1.36.79.37.13.36-.02.36-.04.36-.03.36-.06.37-.17.36.13.36.02.36-.01.36.06.37.07.36-.01.36-.05.36.03.36-.02.37-.05.36-.01.36-.07.36-.01.37-.09h.36l.36-.24.36-.01.36-.08.37-.03.36-.04.36-.07.36-.08.36-.1.37-.51.36.08.36.03.36-.01.36.03.37-.53.36-.02.36-.03.36-.08.37.22.36-.02.36-.01.36-.11.36-.04h.37l.36-.09.36-.08.36-.07.36-.11.37-.1.36-.18.36-.08.36.12.36-.04.37-.87.36.02h.36l.36-.03h.36l.37-.06.36-.07.36-.04.36-.04.37-.06.36-.1.36-.02.36-.11.36-.05.37-1.07.36.01.36-.06"/><use xlink:href="#3ab31__f" color="#00C853" transform="matrix(3.75 0 0 3.75 182.98 110.18)"/><use xlink:href="#3ab31__f" color="#00C853" transform="matrix(3.75 0 0 3.75 220.55 22.51)"/></g><path fill="none" d="M28 45.01V162.5M371.99 45.01H28" color="#000"/></svg>