<svg xmlns="http://www.w3.org/2000/svg" viewBox="0 0 40 4"><path fill="none" d="M0 0h40v4H0z"/><path fill="none" d="M0 4h.75m39.24 0h-.75M0 3h.75m39.24 0h-.75M0 2h.75m39.24 0h-.75M0 1.01h.75m39.24 0h-.75M0 .01h.75m39.24 0h-.75M0 4v-.75M0 .01v.75M1 4v-.75M1 .01v.75M2 4v-.75M2 .01v.75M3 4v-.75M3 .01v.75M4 4v-.75M4 .01v.75M5 4v-.75M5 .01v.75M6 4v-.75M6 .01v.75M7 4v-.75M7 .01v.75M8 4v-.75M8 .01v.75M9 4v-.75M9 .01v.75M10 4v-.75m0-3.24v.75M11 4v-.75m0-3.24v.75M12 4v-.75m0-3.24v.75M13 4v-.75m0-3.24v.75M14 4v-.75m0-3.24v.75M15 4v-.75m0-3.24v.75M16 4v-.75m0-3.24v.75M17 4v-.75m0-3.24v.75M18 4v-.75m0-3.24v.75M19 4v-.75m0-3.24v.75M20 4v-.75m0-3.24v.75M20.99 4v-.75m0-3.24v.75m1 3.24v-.75m0-3.24v.75m1 3.24v-.75m0-3.24v.75m1 3.24v-.75m0-3.24v.75m1 3.24v-.75m0-3.24v.75m1 3.24v-.75m0-3.24v.75m1 3.24v-.75m0-3.24v.75m1 3.24v-.75m0-3.24v.75m1 3.24v-.75m0-3.24v.75m1 3.24v-.75m0-3.24v.75m1 3.24v-.75m0-3.24v.75m1 3.24v-.75m0-3.24v.75m1 3.24v-.75m0-3.24v.75m1 3.24v-.75m0-3.24v.75m1 3.24v-.75m0-3.24v.75m1 3.24v-.75m0-3.24v.75m1 3.24v-.75m0-3.24v.75m1 3.24v-.75m0-3.24v.75m1 3.24v-.75m0-3.24v.75m1 3.24v-.75m0-3.24v.75" color="#000"/><g stroke-linecap="round" stroke-linejoin="round" stroke-width="0" color="#000" font-family="KaTeX_Typewriter" font-size="1" text-anchor="middle"><text transform="translate(9.5 1.02)"><tspan>0</tspan></text><text transform="translate(12.5 1.02)"><tspan>1</tspan></text><text transform="translate(15.5 1.02)"><tspan>2</tspan></text><text transform="translate(18.5 1.02)"><tspan>3</tspan></text><text transform="translate(21.49 1.02)"><tspan>4</tspan></text><text transform="translate(24.49 1.02)"><tspan>5</tspan></text><text transform="translate(27.49 1.02)"><tspan>6</tspan></text><text transform="translate(30.49 1.02)"><tspan>7</tspan></text><text transform="translate(9.5 3.18)"><tspan>A</tspan></text><text transform="translate(12.5 3.18)"><tspan>B</tspan></text><text transform="translate(15.5 3.18)"><tspan>C</tspan></text><text transform="translate(18.5 3.18)"><tspan>D</tspan></text><text transform="translate(21.49 3.18)"><tspan>E</tspan></text><text transform="translate(24.49 3.18)"><tspan>F</tspan></text><text transform="translate(27.49 3.18)"><tspan>G</tspan></text></g><path fill="none" stroke="#000" stroke-linecap="round" stroke-linejoin="round" stroke-width=".1" d="M8.01 1.98V3.7m3-1.72V3.7m3-1.72V3.7m3-1.72V3.7m3-1.72V3.7M23 1.98V3.7m3-1.72V3.7m3-1.72V3.7M8.01 1.98H32M8.01 3.7H32m0-1.72V3.7" color="#000"/></svg>