<svg xmlns="http://www.w3.org/2000/svg" viewBox="0 0 36 17"><path fill="none" d="M0 0h36v17H0z"/><path fill="none" d="M0 17h.75m35.24 0h-.75M0 16h.75m35.24 0h-.75M0 15h.75m35.24 0h-.75M0 14h.75m35.24 0h-.75M0 13h.75m35.24 0h-.75M0 12h.75m35.24 0h-.75M0 11h.75m35.24 0h-.75M0 10h.75m35.24 0h-.75M0 9h.75m35.24 0h-.75M0 8.01h.75m35.24 0h-.75M0 7.01h.75m35.24 0h-.75M0 6.01h.75m35.24 0h-.75M0 5.01h.75m35.24 0h-.75M0 4.01h.75m35.24 0h-.75M0 3.01h.75m35.24 0h-.75M0 2.01h.75m35.24 0h-.75M0 1.01h.75m35.24 0h-.75M0 .01h.75m35.24 0h-.75M0 17v-.75M0 .01v.75M1 17v-.75M1 .01v.75M2 17v-.75M2 .01v.75M3 17v-.75M3 .01v.75M4 17v-.75M4 .01v.75M5 17v-.75M5 .01v.75M6 17v-.75M6 .01v.75M7 17v-.75M7 .01v.75M8 17v-.75M8 .01v.75M9 17v-.75M9 .01v.75M10 17v-.75M10 .01v.75M11 17v-.75M11 .01v.75M12 17v-.75M12 .01v.75M13 17v-.75M13 .01v.75M14 17v-.75M14 .01v.75M15 17v-.75M15 .01v.75M16 17v-.75M16 .01v.75M17 17v-.75M17 .01v.75M18 17v-.75M18 .01v.75M18.99 17v-.75m0-16.24v.75m1 16.24v-.75m0-16.24v.75m1 16.24v-.75m0-16.24v.75m1 16.24v-.75m0-16.24v.75m1 16.24v-.75m0-16.24v.75m1 16.24v-.75m0-16.24v.75m1 16.24v-.75m0-16.24v.75m1 16.24v-.75m0-16.24v.75m1 16.24v-.75m0-16.24v.75m1 16.24v-.75m0-16.24v.75m1 16.24v-.75m0-16.24v.75m1 16.24v-.75m0-16.24v.75m1 16.24v-.75m0-16.24v.75m1 16.24v-.75m0-16.24v.75m1 16.24v-.75m0-16.24v.75m1 16.24v-.75m0-16.24v.75m1 16.24v-.75m0-16.24v.75m1 16.24v-.75m0-16.24v.75" color="#000"/><g stroke-linecap="round" stroke-linejoin="round" stroke-width="0" color="#000" font-family="KaTeX_Typewriter" font-size="1" text-anchor="middle"><text transform="translate(14 4.34)"><tspan>G</tspan></text><text transform="translate(12 1.34)"><tspan>F</tspan></text><text transform="translate(10 4.34)"><tspan>E</tspan></text><text transform="translate(8 7.34)"><tspan>D</tspan></text><text transform="translate(6 10.33)"><tspan>C</tspan></text><text transform="translate(4 13.33)"><tspan>B</tspan></text><text transform="translate(2 16.33)"><tspan>A</tspan></text><text transform="translate(21.99 7.34)"><tspan>A</tspan></text><text transform="translate(23.99 4.34)"><tspan>B</tspan></text><text transform="translate(25.99 7.34)"><tspan>C</tspan></text><text transform="translate(27.99 1.34)"><tspan>D</tspan></text><text transform="translate(29.99 7.34)"><tspan>E</tspan></text><text transform="translate(31.99 4.34)"><tspan>F</tspan></text><text transform="translate(33.99 7.34)"><tspan>G</tspan></text></g><path fill="none" stroke="#000" stroke-linecap="round" stroke-linejoin="round" stroke-width=".1" d="m12.59 1.88.83 1.24m-2-1.24-.82 1.24M9.42 4.88 8.6 6.11M7.42 7.88 6.6 9.11m-1.18 1.77-.82 1.23m-1.18 1.76-.82 1.24M23.42 4.88l-.83 1.23m2-1.23.82 1.23m1.74-4.47-2.3 1.72m4-1.72 2.3 1.72m.26 1.52-.82 1.23m2-1.23.82 1.23" color="#000"/><g fill="none" stroke="#000" stroke-linecap="round" stroke-linejoin="round" stroke-width=".1" color="#000"><path d="M14.7 4.01v-.07l-.01-.04v-.03l-.01-.04-.01-.03-.02-.04-.01-.03-.02-.04-.01-.03-.02-.03-.02-.03-.03-.03-.02-.03-.03-.02-.02-.03-.03-.02-.03-.03-.03-.02-.03-.02-.03-.01-.04-.02-.03-.01-.04-.02-.03-.01-.04-.01h-.03l-.04-.01h-.15l-.04.01h-.03l-.04.01-.03.01-.04.02-.03.01-.04.02-.03.01-.03.02-.03.02-.03.03-.03.02-.02.03-.03.02-.02.03-.03.03-.02.03-.02.03-.01.03-.02.04-.01.03-.02.04-.01.03-.01.04v.03l-.01.04v.15l.01.04v.03l.01.04.01.03.02.04.01.03.02.04.01.03.02.03.02.03.03.03.02.03.03.02.02.03.03.02.03.03.03.02.03.02.03.01.04.02.03.01.04.02.03.01.04.01h.03l.04.01h.15l.04-.01h.03l.04-.01.03-.01.04-.02.03-.01.04-.02.03-.01.03-.02.03-.02.03-.03.03-.02.02-.03.03-.02.02-.03.03-.03.02-.03.02-.03.01-.03.02-.04.01-.03.02-.04.01-.03.01-.04v-.03l.01-.04v-.08Z"/><path d="M14.7 4.01v-.07l-.01-.04v-.03l-.01-.04-.01-.03-.02-.04-.01-.03-.02-.04-.01-.03-.02-.03-.02-.03-.03-.03-.02-.03-.03-.02-.02-.03-.03-.02-.03-.03-.03-.02-.03-.02-.03-.01-.04-.02-.03-.01-.04-.02-.03-.01-.04-.01h-.03l-.04-.01h-.15l-.04.01h-.03l-.04.01-.03.01-.04.02-.03.01-.04.02-.03.01-.03.02-.03.02-.03.03-.03.02-.02.03-.03.02-.02.03-.03.03-.02.03-.02.03-.01.03-.02.04-.01.03-.02.04-.01.03-.01.04v.03l-.01.04v.15l.01.04v.03l.01.04.01.03.02.04.01.03.02.04.01.03.02.03.02.03.03.03.02.03.03.02.02.03.03.02.03.03.03.02.03.02.03.01.04.02.03.01.04.02.03.01.04.01h.03l.04.01h.15l.04-.01h.03l.04-.01.03-.01.04-.02.03-.01.04-.02.03-.01.03-.02.03-.02.03-.03.03-.02.02-.03.03-.02.02-.03.03-.03.02-.03.02-.03.01-.03.02-.04.01-.03.02-.04.01-.03.01-.04v-.03l.01-.04v-.08Z"/></g><g fill="none" stroke="#000" stroke-linecap="round" stroke-linejoin="round" stroke-width=".1" color="#000"><path d="M12.7 1.01V.94L12.69.9V.87l-.01-.04-.01-.03-.02-.04-.01-.03-.02-.04-.01-.03-.02-.03-.02-.03-.03-.03-.02-.03-.03-.02-.02-.03-.03-.02-.03-.03-.03-.02-.03-.02-.03-.01-.04-.02-.03-.01-.04-.02-.03-.01-.04-.01h-.03l-.04-.01h-.15l-.04.01h-.03l-.04.01-.03.01-.04.02-.03.01-.04.02-.03.01-.03.02-.03.02-.03.03-.03.02-.02.03-.03.02-.02.03-.03.03-.02.03-.02.03-.01.03-.02.04-.01.03-.02.04-.01.03-.01.04V.9l-.01.04v.15l.01.04v.03l.01.04.01.03.02.04.01.03.02.04.01.03.02.03.02.03.03.03.02.03.03.02.02.03.03.02.03.03.03.02.03.02.03.01.04.02.03.01.04.02.03.01.04.01h.03l.04.01h.15l.04-.01h.03l.04-.01.03-.01.04-.02.03-.01.04-.02.03-.01.03-.02.03-.02.03-.03.03-.02.02-.03.03-.02.02-.03.03-.03.02-.03.02-.03.01-.03.02-.04.01-.03.02-.04.01-.03.01-.04v-.03l.01-.04v-.08Z"/><path d="M12.7 1.01V.94L12.69.9V.87l-.01-.04-.01-.03-.02-.04-.01-.03-.02-.04-.01-.03-.02-.03-.02-.03-.03-.03-.02-.03-.03-.02-.02-.03-.03-.02-.03-.03-.03-.02-.03-.02-.03-.01-.04-.02-.03-.01-.04-.02-.03-.01-.04-.01h-.03l-.04-.01h-.15l-.04.01h-.03l-.04.01-.03.01-.04.02-.03.01-.04.02-.03.01-.03.02-.03.02-.03.03-.03.02-.02.03-.03.02-.02.03-.03.03-.02.03-.02.03-.01.03-.02.04-.01.03-.02.04-.01.03-.01.04V.9l-.01.04v.15l.01.04v.03l.01.04.01.03.02.04.01.03.02.04.01.03.02.03.02.03.03.03.02.03.03.02.02.03.03.02.03.03.03.02.03.02.03.01.04.02.03.01.04.02.03.01.04.01h.03l.04.01h.15l.04-.01h.03l.04-.01.03-.01.04-.02.03-.01.04-.02.03-.01.03-.02.03-.02.03-.03.03-.02.02-.03.03-.02.02-.03.03-.03.02-.03.02-.03.01-.03.02-.04.01-.03.02-.04.01-.03.01-.04v-.03l.01-.04v-.08Z"/></g><g fill="none" stroke="#000" stroke-linecap="round" stroke-linejoin="round" stroke-width=".1" color="#000"><path d="M10.7 4.01v-.07l-.01-.04v-.03l-.01-.04-.01-.03-.02-.04-.01-.03-.02-.04-.01-.03-.02-.03-.02-.03-.03-.03-.02-.03-.03-.02-.02-.03-.03-.02-.03-.03-.03-.02-.03-.02-.03-.01-.04-.02-.03-.01-.04-.02-.03-.01-.04-.01h-.03l-.04-.01h-.15l-.04.01h-.03l-.04.01-.03.01-.04.02-.03.01-.04.02-.03.01-.03.02-.03.02-.03.03-.03.02-.02.03-.03.02-.02.03-.03.03-.02.03-.02.03-.01.03-.02.04-.01.03-.02.04-.01.03-.01.04v.03l-.01.04v.15l.01.04v.03l.01.04.01.03.02.04.01.03.02.04.01.03.02.03.02.03.03.03.02.03.03.02.02.03.03.02.03.03.03.02.03.02.03.01.04.02.03.01.04.02.03.01.04.01h.03l.04.01h.15l.04-.01h.03l.04-.01.03-.01.04-.02.03-.01.04-.02.03-.01.03-.02.03-.02.03-.03.03-.02.02-.03.03-.02.02-.03.03-.03.02-.03.02-.03.01-.03.02-.04.01-.03.02-.04.01-.03.01-.04v-.03l.01-.04v-.08Z"/><path d="M10.7 4.01v-.07l-.01-.04v-.03l-.01-.04-.01-.03-.02-.04-.01-.03-.02-.04-.01-.03-.02-.03-.02-.03-.03-.03-.02-.03-.03-.02-.02-.03-.03-.02-.03-.03-.03-.02-.03-.02-.03-.01-.04-.02-.03-.01-.04-.02-.03-.01-.04-.01h-.03l-.04-.01h-.15l-.04.01h-.03l-.04.01-.03.01-.04.02-.03.01-.04.02-.03.01-.03.02-.03.02-.03.03-.03.02-.02.03-.03.02-.02.03-.03.03-.02.03-.02.03-.01.03-.02.04-.01.03-.02.04-.01.03-.01.04v.03l-.01.04v.15l.01.04v.03l.01.04.01.03.02.04.01.03.02.04.01.03.02.03.02.03.03.03.02.03.03.02.02.03.03.02.03.03.03.02.03.02.03.01.04.02.03.01.04.02.03.01.04.01h.03l.04.01h.15l.04-.01h.03l.04-.01.03-.01.04-.02.03-.01.04-.02.03-.01.03-.02.03-.02.03-.03.03-.02.02-.03.03-.02.02-.03.03-.03.02-.03.02-.03.01-.03.02-.04.01-.03.02-.04.01-.03.01-.04v-.03l.01-.04v-.08Z"/></g><g fill="none" stroke="#000" stroke-linecap="round" stroke-linejoin="round" stroke-width=".1" color="#000"><path d="M8.7 7.01v-.07l-.01-.04v-.03l-.01-.04-.01-.03-.02-.04-.01-.03-.02-.04-.01-.03-.02-.03-.02-.03-.03-.03-.02-.03-.03-.02-.02-.03-.03-.02-.03-.03-.03-.02-.03-.02-.03-.01-.04-.02-.03-.01-.04-.02-.03-.01-.04-.01h-.03l-.04-.01h-.15l-.04.01h-.03l-.04.01-.03.01-.04.02-.03.01-.04.02-.03.01-.03.02-.03.02-.03.03-.03.02-.02.03-.03.02-.02.03-.03.03-.02.03-.02.03-.01.03-.02.04-.01.03-.02.04-.01.03-.01.04v.03l-.01.04v.15l.01.04v.03l.01.04.01.03.02.04.01.03.02.04.01.03.02.03.02.03.03.03.02.03.03.02.02.03.03.02.03.03.03.02.03.02.03.01.04.02.03.01.04.02.03.01.04.01h.03l.04.01h.15l.04-.01h.03l.04-.01.03-.01.04-.02.03-.01.04-.02.03-.01.03-.02.03-.02.03-.03.03-.02.02-.03.03-.02.02-.03.03-.03.02-.03.02-.03.01-.03.02-.04.01-.03.02-.04.01-.03.01-.04v-.03l.01-.04v-.08Z"/><path d="M8.7 7.01v-.07l-.01-.04v-.03l-.01-.04-.01-.03-.02-.04-.01-.03-.02-.04-.01-.03-.02-.03-.02-.03-.03-.03-.02-.03-.03-.02-.02-.03-.03-.02-.03-.03-.03-.02-.03-.02-.03-.01-.04-.02-.03-.01-.04-.02-.03-.01-.04-.01h-.03l-.04-.01h-.15l-.04.01h-.03l-.04.01-.03.01-.04.02-.03.01-.04.02-.03.01-.03.02-.03.02-.03.03-.03.02-.02.03-.03.02-.02.03-.03.03-.02.03-.02.03-.01.03-.02.04-.01.03-.02.04-.01.03-.01.04v.03l-.01.04v.15l.01.04v.03l.01.04.01.03.02.04.01.03.02.04.01.03.02.03.02.03.03.03.02.03.03.02.02.03.03.02.03.03.03.02.03.02.03.01.04.02.03.01.04.02.03.01.04.01h.03l.04.01h.15l.04-.01h.03l.04-.01.03-.01.04-.02.03-.01.04-.02.03-.01.03-.02.03-.02.03-.03.03-.02.02-.03.03-.02.02-.03.03-.03.02-.03.02-.03.01-.03.02-.04.01-.03.02-.04.01-.03.01-.04v-.03l.01-.04v-.08Z"/></g><g fill="none" stroke="#000" stroke-linecap="round" stroke-linejoin="round" stroke-width=".1" color="#000"><path d="M6.7 10v-.07l-.01-.04v-.03l-.01-.04-.01-.03-.02-.04-.01-.03-.02-.04-.01-.03-.02-.03-.02-.03-.03-.03-.02-.03-.03-.02-.02-.03-.03-.02-.03-.03-.03-.02-.03-.02-.03-.01-.04-.02-.03-.01-.04-.02-.03-.01-.04-.01h-.03l-.04-.01h-.15l-.04.01h-.03l-.04.01-.03.01-.04.02-.03.01-.04.02-.03.01-.03.02-.03.02-.03.03-.03.02-.02.03-.03.02-.02.03-.03.03-.02.03-.02.03-.01.03-.02.04-.01.03-.02.04-.01.03-.01.04v.03l-.01.04v.15l.01.04v.03l.01.04.01.03.02.04.01.03.02.04.01.03.02.03.02.03.03.03.02.03.03.02.02.03.03.02.03.03.03.02.03.02.03.01.04.02.03.01.04.02.03.01.04.01h.03l.04.01h.15l.04-.01h.03l.04-.01.03-.01.04-.02.03-.01.04-.02.03-.01.03-.02.03-.02.03-.03.03-.02.02-.03.03-.02.02-.03.03-.03.02-.03.02-.03.01-.03.02-.04.01-.03.02-.04.01-.03.01-.04v-.03l.01-.04V10Z"/><path d="M6.7 10v-.07l-.01-.04v-.03l-.01-.04-.01-.03-.02-.04-.01-.03-.02-.04-.01-.03-.02-.03-.02-.03-.03-.03-.02-.03-.03-.02-.02-.03-.03-.02-.03-.03-.03-.02-.03-.02-.03-.01-.04-.02-.03-.01-.04-.02-.03-.01-.04-.01h-.03l-.04-.01h-.15l-.04.01h-.03l-.04.01-.03.01-.04.02-.03.01-.04.02-.03.01-.03.02-.03.02-.03.03-.03.02-.02.03-.03.02-.02.03-.03.03-.02.03-.02.03-.01.03-.02.04-.01.03-.02.04-.01.03-.01.04v.03l-.01.04v.15l.01.04v.03l.01.04.01.03.02.04.01.03.02.04.01.03.02.03.02.03.03.03.02.03.03.02.02.03.03.02.03.03.03.02.03.02.03.01.04.02.03.01.04.02.03.01.04.01h.03l.04.01h.15l.04-.01h.03l.04-.01.03-.01.04-.02.03-.01.04-.02.03-.01.03-.02.03-.02.03-.03.03-.02.02-.03.03-.02.02-.03.03-.03.02-.03.02-.03.01-.03.02-.04.01-.03.02-.04.01-.03.01-.04v-.03l.01-.04V10Z"/></g><g fill="none" stroke="#000" stroke-linecap="round" stroke-linejoin="round" stroke-width=".1" color="#000"><path d="M4.7 13v-.07l-.01-.04v-.03l-.01-.04-.01-.03-.02-.04-.01-.03-.02-.04-.01-.03-.02-.03-.02-.03-.03-.03-.02-.03-.03-.02-.02-.03-.03-.02-.03-.03-.03-.02-.03-.02-.03-.01-.04-.02-.03-.01-.04-.02-.03-.01-.04-.01h-.03l-.04-.01h-.15l-.04.01h-.03l-.04.01-.03.01-.04.02-.03.01-.04.02-.03.01-.03.02-.03.02-.03.03-.03.02-.02.03-.03.02-.02.03-.03.03-.02.03-.02.03-.01.03-.02.04-.01.03-.02.04-.01.03-.01.04v.03l-.01.04v.15l.01.04v.03l.01.04.01.03.02.04.01.03.02.04.01.03.02.03.02.03.03.03.02.03.03.02.02.03.03.02.03.03.03.02.03.02.03.01.04.02.03.01.04.02.03.01.04.01h.03l.04.01h.15l.04-.01h.03l.04-.01.03-.01.04-.02.03-.01.04-.02.03-.01.03-.02.03-.02.03-.03.03-.02.02-.03.03-.02.02-.03.03-.03.02-.03.02-.03.01-.03.02-.04.01-.03.02-.04.01-.03.01-.04v-.03l.01-.04V13Z"/><path d="M4.7 13v-.07l-.01-.04v-.03l-.01-.04-.01-.03-.02-.04-.01-.03-.02-.04-.01-.03-.02-.03-.02-.03-.03-.03-.02-.03-.03-.02-.02-.03-.03-.02-.03-.03-.03-.02-.03-.02-.03-.01-.04-.02-.03-.01-.04-.02-.03-.01-.04-.01h-.03l-.04-.01h-.15l-.04.01h-.03l-.04.01-.03.01-.04.02-.03.01-.04.02-.03.01-.03.02-.03.02-.03.03-.03.02-.02.03-.03.02-.02.03-.03.03-.02.03-.02.03-.01.03-.02.04-.01.03-.02.04-.01.03-.01.04v.03l-.01.04v.15l.01.04v.03l.01.04.01.03.02.04.01.03.02.04.01.03.02.03.02.03.03.03.02.03.03.02.02.03.03.02.03.03.03.02.03.02.03.01.04.02.03.01.04.02.03.01.04.01h.03l.04.01h.15l.04-.01h.03l.04-.01.03-.01.04-.02.03-.01.04-.02.03-.01.03-.02.03-.02.03-.03.03-.02.02-.03.03-.02.02-.03.03-.03.02-.03.02-.03.01-.03.02-.04.01-.03.02-.04.01-.03.01-.04v-.03l.01-.04V13Z"/></g><path fill="none" stroke="#000" stroke-linecap="round" stroke-linejoin="round" stroke-width=".1" d="M2.7 16v-.07l-.01-.04v-.03l-.01-.04-.01-.03-.02-.04-.01-.03-.02-.04-.01-.03-.02-.03-.02-.03-.03-.03-.02-.03-.03-.02-.02-.03-.03-.02-.03-.03-.03-.02-.03-.02-.03-.01-.04-.02-.03-.01-.04-.02-.03-.01-.04-.01h-.03l-.04-.01h-.15l-.04.01h-.03l-.04.01-.03.01-.04.02-.03.01-.04.02-.03.01-.03.02-.03.02-.03.03-.03.02-.02.03-.03.02-.02.03-.03.03-.02.03-.02.03-.01.03-.02.04-.01.03-.02.04-.01.03-.01.04v.03l-.01.04v.15l.01.04v.03l.01.04.01.03.02.04.01.03.02.04.01.03.02.03.02.03.03.03.02.03.03.02.02.03.03.02.03.03.03.02.03.02.03.01.04.02.03.01.04.02.03.01.04.01h.03l.04.01h.15l.04-.01h.03l.04-.01.03-.01.04-.02.03-.01.04-.02.03-.01.03-.02.03-.02.03-.03.03-.02.02-.03.03-.02.02-.03.03-.03.02-.03.02-.03.01-.03.02-.04.01-.03.02-.04.01-.03.01-.04v-.03l.01-.04v-.07m0-.01v-.07l-.01-.04v-.03l-.01-.04-.01-.03-.02-.04-.01-.03-.02-.04-.01-.03-.02-.03-.02-.03-.03-.03-.02-.03-.03-.02-.02-.03-.03-.02-.03-.03-.03-.02-.03-.02-.03-.01-.04-.02-.03-.01-.04-.02-.03-.01-.04-.01h-.03l-.04-.01h-.15l-.04.01h-.03l-.04.01-.03.01-.04.02-.03.01-.04.02-.03.01-.03.02-.03.02-.03.03-.03.02-.02.03-.03.02-.02.03-.03.03-.02.03-.02.03-.01.03-.02.04-.01.03-.02.04-.01.03-.01.04v.03l-.01.04v.15l.01.04v.03l.01.04.01.03.02.04.01.03.02.04.01.03.02.03.02.03.03.03.02.03.03.02.02.03.03.02.03.03.03.02.03.02.03.01.04.02.03.01.04.02.03.01.04.01h.03l.04.01h.15l.04-.01h.03l.04-.01.03-.01.04-.02.03-.01.04-.02.03-.01.03-.02.03-.02.03-.03.03-.02.02-.03.03-.02.02-.03.03-.03.02-.03.02-.03.01-.03.02-.04.01-.03.02-.04.01-.03.01-.04v-.03l.01-.04v-.07" color="#000"/><g fill="none" stroke="#000" stroke-linecap="round" stroke-linejoin="round" stroke-width=".1" color="#000"><path d="M24.69 4.01v-.07l-.01-.04v-.03l-.01-.04-.01-.03-.02-.04-.01-.03-.02-.04-.01-.03-.02-.03-.02-.03-.03-.03-.02-.03-.03-.02-.02-.03-.03-.02-.03-.03-.03-.02-.03-.02-.03-.01-.04-.02-.03-.01-.04-.02-.03-.01-.04-.01h-.03l-.04-.01h-.15l-.04.01h-.03l-.04.01-.03.01-.04.02-.03.01-.04.02-.03.01-.03.02-.03.02-.03.03-.03.02-.02.03-.03.02-.02.03-.03.03-.02.03-.02.03-.01.03-.02.04-.01.03-.02.04-.01.03-.01.04v.03l-.01.04v.15l.01.04v.03l.01.04.01.03.02.04.01.03.02.04.01.03.02.03.02.03.03.03.02.03.03.02.02.03.03.02.03.03.03.02.03.02.03.01.04.02.03.01.04.02.03.01.04.01h.03l.04.01h.15l.04-.01h.03l.04-.01.03-.01.04-.02.03-.01.04-.02.03-.01.03-.02.03-.02.03-.03.03-.02.02-.03.03-.02.02-.03.03-.03.02-.03.02-.03.01-.03.02-.04.01-.03.02-.04.01-.03.01-.04v-.03l.01-.04v-.08Z"/><path d="M24.69 4.01v-.07l-.01-.04v-.03l-.01-.04-.01-.03-.02-.04-.01-.03-.02-.04-.01-.03-.02-.03-.02-.03-.03-.03-.02-.03-.03-.02-.02-.03-.03-.02-.03-.03-.03-.02-.03-.02-.03-.01-.04-.02-.03-.01-.04-.02-.03-.01-.04-.01h-.03l-.04-.01h-.15l-.04.01h-.03l-.04.01-.03.01-.04.02-.03.01-.04.02-.03.01-.03.02-.03.02-.03.03-.03.02-.02.03-.03.02-.02.03-.03.03-.02.03-.02.03-.01.03-.02.04-.01.03-.02.04-.01.03-.01.04v.03l-.01.04v.15l.01.04v.03l.01.04.01.03.02.04.01.03.02.04.01.03.02.03.02.03.03.03.02.03.03.02.02.03.03.02.03.03.03.02.03.02.03.01.04.02.03.01.04.02.03.01.04.01h.03l.04.01h.15l.04-.01h.03l.04-.01.03-.01.04-.02.03-.01.04-.02.03-.01.03-.02.03-.02.03-.03.03-.02.02-.03.03-.02.02-.03.03-.03.02-.03.02-.03.01-.03.02-.04.01-.03.02-.04.01-.03.01-.04v-.03l.01-.04v-.08Z"/></g><g fill="none" stroke="#000" stroke-linecap="round" stroke-linejoin="round" stroke-width=".1" color="#000"><path d="M28.69 1.01V.94L28.68.9V.87l-.01-.04-.01-.03-.02-.04-.01-.03-.02-.04-.01-.03-.02-.03-.02-.03-.03-.03-.02-.03-.03-.02-.02-.03-.03-.02-.03-.03-.03-.02-.03-.02-.03-.01-.04-.02-.03-.01-.04-.02-.03-.01-.04-.01h-.03l-.04-.01h-.15l-.04.01h-.03l-.04.01-.03.01-.04.02-.03.01-.04.02-.03.01-.03.02-.03.02-.03.03-.03.02-.02.03-.03.02-.02.03-.03.03-.02.03-.02.03-.01.03-.02.04-.01.03-.02.04-.01.03-.01.04V.9l-.01.04v.15l.01.04v.03l.01.04.01.03.02.04.01.03.02.04.01.03.02.03.02.03.03.03.02.03.03.02.02.03.03.02.03.03.03.02.03.02.03.01.04.02.03.01.04.02.03.01.04.01h.03l.04.01h.15l.04-.01h.03l.04-.01.03-.01.04-.02.03-.01.04-.02.03-.01.03-.02.03-.02.03-.03.03-.02.02-.03.03-.02.02-.03.03-.03.02-.03.02-.03.01-.03.02-.04.01-.03.02-.04.01-.03.01-.04v-.03l.01-.04v-.08Z"/><path d="M28.69 1.01V.94L28.68.9V.87l-.01-.04-.01-.03-.02-.04-.01-.03-.02-.04-.01-.03-.02-.03-.02-.03-.03-.03-.02-.03-.03-.02-.02-.03-.03-.02-.03-.03-.03-.02-.03-.02-.03-.01-.04-.02-.03-.01-.04-.02-.03-.01-.04-.01h-.03l-.04-.01h-.15l-.04.01h-.03l-.04.01-.03.01-.04.02-.03.01-.04.02-.03.01-.03.02-.03.02-.03.03-.03.02-.02.03-.03.02-.02.03-.03.03-.02.03-.02.03-.01.03-.02.04-.01.03-.02.04-.01.03-.01.04V.9l-.01.04v.15l.01.04v.03l.01.04.01.03.02.04.01.03.02.04.01.03.02.03.02.03.03.03.02.03.03.02.02.03.03.02.03.03.03.02.03.02.03.01.04.02.03.01.04.02.03.01.04.01h.03l.04.01h.15l.04-.01h.03l.04-.01.03-.01.04-.02.03-.01.04-.02.03-.01.03-.02.03-.02.03-.03.03-.02.02-.03.03-.02.02-.03.03-.03.02-.03.02-.03.01-.03.02-.04.01-.03.02-.04.01-.03.01-.04v-.03l.01-.04v-.08Z"/></g><g fill="none" stroke="#000" stroke-linecap="round" stroke-linejoin="round" stroke-width=".1" color="#000"><path d="M32.69 4.01v-.07l-.01-.04v-.03l-.01-.04-.01-.03-.02-.04-.01-.03-.02-.04-.01-.03-.02-.03-.02-.03-.03-.03-.02-.03-.03-.02-.02-.03-.03-.02-.03-.03-.03-.02-.03-.02-.03-.01-.04-.02-.03-.01-.04-.02-.03-.01-.04-.01h-.03l-.04-.01h-.15l-.04.01h-.03l-.04.01-.03.01-.04.02-.03.01-.04.02-.03.01-.03.02-.03.02-.03.03-.03.02-.02.03-.03.02-.02.03-.03.03-.02.03-.02.03-.01.03-.02.04-.01.03-.02.04-.01.03-.01.04v.03l-.01.04v.15l.01.04v.03l.01.04.01.03.02.04.01.03.02.04.01.03.02.03.02.03.03.03.02.03.03.02.02.03.03.02.03.03.03.02.03.02.03.01.04.02.03.01.04.02.03.01.04.01h.03l.04.01h.15l.04-.01h.03l.04-.01.03-.01.04-.02.03-.01.04-.02.03-.01.03-.02.03-.02.03-.03.03-.02.02-.03.03-.02.02-.03.03-.03.02-.03.02-.03.01-.03.02-.04.01-.03.02-.04.01-.03.01-.04v-.03l.01-.04v-.08Z"/><path d="M32.69 4.01v-.07l-.01-.04v-.03l-.01-.04-.01-.03-.02-.04-.01-.03-.02-.04-.01-.03-.02-.03-.02-.03-.03-.03-.02-.03-.03-.02-.02-.03-.03-.02-.03-.03-.03-.02-.03-.02-.03-.01-.04-.02-.03-.01-.04-.02-.03-.01-.04-.01h-.03l-.04-.01h-.15l-.04.01h-.03l-.04.01-.03.01-.04.02-.03.01-.04.02-.03.01-.03.02-.03.02-.03.03-.03.02-.02.03-.03.02-.02.03-.03.03-.02.03-.02.03-.01.03-.02.04-.01.03-.02.04-.01.03-.01.04v.03l-.01.04v.15l.01.04v.03l.01.04.01.03.02.04.01.03.02.04.01.03.02.03.02.03.03.03.02.03.03.02.02.03.03.02.03.03.03.02.03.02.03.01.04.02.03.01.04.02.03.01.04.01h.03l.04.01h.15l.04-.01h.03l.04-.01.03-.01.04-.02.03-.01.04-.02.03-.01.03-.02.03-.02.03-.03.03-.02.02-.03.03-.02.02-.03.03-.03.02-.03.02-.03.01-.03.02-.04.01-.03.02-.04.01-.03.01-.04v-.03l.01-.04v-.08Z"/></g><g fill="none" stroke="#000" stroke-linecap="round" stroke-linejoin="round" stroke-width=".1" color="#000"><path d="M22.69 7.01v-.07l-.01-.04v-.03l-.01-.04-.01-.03-.02-.04-.01-.03-.02-.04-.01-.03-.02-.03-.02-.03-.03-.03-.02-.03-.03-.02-.02-.03-.03-.02-.03-.03-.03-.02-.03-.02-.03-.01-.04-.02-.03-.01-.04-.02-.03-.01-.04-.01h-.03l-.04-.01h-.15l-.04.01h-.03l-.04.01-.03.01-.04.02-.03.01-.04.02-.03.01-.03.02-.03.02-.03.03-.03.02-.02.03-.03.02-.02.03-.03.03-.02.03-.02.03-.01.03-.02.04-.01.03-.02.04-.01.03-.01.04v.03l-.01.04v.15l.01.04v.03l.01.04.01.03.02.04.01.03.02.04.01.03.02.03.02.03.03.03.02.03.03.02.02.03.03.02.03.03.03.02.03.02.03.01.04.02.03.01.04.02.03.01.04.01h.03l.04.01h.15l.04-.01h.03l.04-.01.03-.01.04-.02.03-.01.04-.02.03-.01.03-.02.03-.02.03-.03.03-.02.02-.03.03-.02.02-.03.03-.03.02-.03.02-.03.01-.03.02-.04.01-.03.02-.04.01-.03.01-.04v-.03l.01-.04v-.08Z"/><path d="M22.69 7.01v-.07l-.01-.04v-.03l-.01-.04-.01-.03-.02-.04-.01-.03-.02-.04-.01-.03-.02-.03-.02-.03-.03-.03-.02-.03-.03-.02-.02-.03-.03-.02-.03-.03-.03-.02-.03-.02-.03-.01-.04-.02-.03-.01-.04-.02-.03-.01-.04-.01h-.03l-.04-.01h-.15l-.04.01h-.03l-.04.01-.03.01-.04.02-.03.01-.04.02-.03.01-.03.02-.03.02-.03.03-.03.02-.02.03-.03.02-.02.03-.03.03-.02.03-.02.03-.01.03-.02.04-.01.03-.02.04-.01.03-.01.04v.03l-.01.04v.15l.01.04v.03l.01.04.01.03.02.04.01.03.02.04.01.03.02.03.02.03.03.03.02.03.03.02.02.03.03.02.03.03.03.02.03.02.03.01.04.02.03.01.04.02.03.01.04.01h.03l.04.01h.15l.04-.01h.03l.04-.01.03-.01.04-.02.03-.01.04-.02.03-.01.03-.02.03-.02.03-.03.03-.02.02-.03.03-.02.02-.03.03-.03.02-.03.02-.03.01-.03.02-.04.01-.03.02-.04.01-.03.01-.04v-.03l.01-.04v-.08Z"/></g><g fill="none" stroke="#000" stroke-linecap="round" stroke-linejoin="round" stroke-width=".1" color="#000"><path d="M26.69 7.01v-.07l-.01-.04v-.03l-.01-.04-.01-.03-.02-.04-.01-.03-.02-.04-.01-.03-.02-.03-.02-.03-.03-.03-.02-.03-.03-.02-.02-.03-.03-.02-.03-.03-.03-.02-.03-.02-.03-.01-.04-.02-.03-.01-.04-.02-.03-.01-.04-.01h-.03l-.04-.01h-.15l-.04.01h-.03l-.04.01-.03.01-.04.02-.03.01-.04.02-.03.01-.03.02-.03.02-.03.03-.03.02-.02.03-.03.02-.02.03-.03.03-.02.03-.02.03-.01.03-.02.04-.01.03-.02.04-.01.03-.01.04v.03l-.01.04v.15l.01.04v.03l.01.04.01.03.02.04.01.03.02.04.01.03.02.03.02.03.03.03.02.03.03.02.02.03.03.02.03.03.03.02.03.02.03.01.04.02.03.01.04.02.03.01.04.01h.03l.04.01h.15l.04-.01h.03l.04-.01.03-.01.04-.02.03-.01.04-.02.03-.01.03-.02.03-.02.03-.03.03-.02.02-.03.03-.02.02-.03.03-.03.02-.03.02-.03.01-.03.02-.04.01-.03.02-.04.01-.03.01-.04v-.03l.01-.04v-.08Z"/><path d="M26.69 7.01v-.07l-.01-.04v-.03l-.01-.04-.01-.03-.02-.04-.01-.03-.02-.04-.01-.03-.02-.03-.02-.03-.03-.03-.02-.03-.03-.02-.02-.03-.03-.02-.03-.03-.03-.02-.03-.02-.03-.01-.04-.02-.03-.01-.04-.02-.03-.01-.04-.01h-.03l-.04-.01h-.15l-.04.01h-.03l-.04.01-.03.01-.04.02-.03.01-.04.02-.03.01-.03.02-.03.02-.03.03-.03.02-.02.03-.03.02-.02.03-.03.03-.02.03-.02.03-.01.03-.02.04-.01.03-.02.04-.01.03-.01.04v.03l-.01.04v.15l.01.04v.03l.01.04.01.03.02.04.01.03.02.04.01.03.02.03.02.03.03.03.02.03.03.02.02.03.03.02.03.03.03.02.03.02.03.01.04.02.03.01.04.02.03.01.04.01h.03l.04.01h.15l.04-.01h.03l.04-.01.03-.01.04-.02.03-.01.04-.02.03-.01.03-.02.03-.02.03-.03.03-.02.02-.03.03-.02.02-.03.03-.03.02-.03.02-.03.01-.03.02-.04.01-.03.02-.04.01-.03.01-.04v-.03l.01-.04v-.08Z"/></g><g fill="none" stroke="#000" stroke-linecap="round" stroke-linejoin="round" stroke-width=".1" color="#000"><path d="M30.69 7.01v-.07l-.01-.04v-.03l-.01-.04-.01-.03-.02-.04-.01-.03-.02-.04-.01-.03-.02-.03-.02-.03-.03-.03-.02-.03-.03-.02-.02-.03-.03-.02-.03-.03-.03-.02-.03-.02-.03-.01-.04-.02-.03-.01-.04-.02-.03-.01-.04-.01h-.03l-.04-.01h-.15l-.04.01h-.03l-.04.01-.03.01-.04.02-.03.01-.04.02-.03.01-.03.02-.03.02-.03.03-.03.02-.02.03-.03.02-.02.03-.03.03-.02.03-.02.03-.01.03-.02.04-.01.03-.02.04-.01.03-.01.04v.03l-.01.04v.15l.01.04v.03l.01.04.01.03.02.04.01.03.02.04.01.03.02.03.02.03.03.03.02.03.03.02.02.03.03.02.03.03.03.02.03.02.03.01.04.02.03.01.04.02.03.01.04.01h.03l.04.01h.15l.04-.01h.03l.04-.01.03-.01.04-.02.03-.01.04-.02.03-.01.03-.02.03-.02.03-.03.03-.02.02-.03.03-.02.02-.03.03-.03.02-.03.02-.03.01-.03.02-.04.01-.03.02-.04.01-.03.01-.04v-.03l.01-.04v-.08Z"/><path d="M30.69 7.01v-.07l-.01-.04v-.03l-.01-.04-.01-.03-.02-.04-.01-.03-.02-.04-.01-.03-.02-.03-.02-.03-.03-.03-.02-.03-.03-.02-.02-.03-.03-.02-.03-.03-.03-.02-.03-.02-.03-.01-.04-.02-.03-.01-.04-.02-.03-.01-.04-.01h-.03l-.04-.01h-.15l-.04.01h-.03l-.04.01-.03.01-.04.02-.03.01-.04.02-.03.01-.03.02-.03.02-.03.03-.03.02-.02.03-.03.02-.02.03-.03.03-.02.03-.02.03-.01.03-.02.04-.01.03-.02.04-.01.03-.01.04v.03l-.01.04v.15l.01.04v.03l.01.04.01.03.02.04.01.03.02.04.01.03.02.03.02.03.03.03.02.03.03.02.02.03.03.02.03.03.03.02.03.02.03.01.04.02.03.01.04.02.03.01.04.01h.03l.04.01h.15l.04-.01h.03l.04-.01.03-.01.04-.02.03-.01.04-.02.03-.01.03-.02.03-.02.03-.03.03-.02.02-.03.03-.02.02-.03.03-.03.02-.03.02-.03.01-.03.02-.04.01-.03.02-.04.01-.03.01-.04v-.03l.01-.04v-.08Z"/></g><g fill="none" stroke="#000" stroke-linecap="round" stroke-linejoin="round" stroke-width=".1" color="#000"><path d="M34.69 7.01v-.07l-.01-.04v-.03l-.01-.04-.01-.03-.02-.04-.01-.03-.02-.04-.01-.03-.02-.03-.02-.03-.03-.03-.02-.03-.03-.02-.02-.03-.03-.02-.03-.03-.03-.02-.03-.02-.03-.01-.04-.02-.03-.01-.04-.02-.03-.01-.04-.01h-.03l-.04-.01h-.15l-.04.01h-.03l-.04.01-.03.01-.04.02-.03.01-.04.02-.03.01-.03.02-.03.02-.03.03-.03.02-.02.03-.03.02-.02.03-.03.03-.02.03-.02.03-.01.03-.02.04-.01.03-.02.04-.01.03-.01.04v.03l-.01.04v.15l.01.04v.03l.01.04.01.03.02.04.01.03.02.04.01.03.02.03.02.03.03.03.02.03.03.02.02.03.03.02.03.03.03.02.03.02.03.01.04.02.03.01.04.02.03.01.04.01h.03l.04.01h.15l.04-.01h.03l.04-.01.03-.01.04-.02.03-.01.04-.02.03-.01.03-.02.03-.02.03-.03.03-.02.02-.03.03-.02.02-.03.03-.03.02-.03.02-.03.01-.03.02-.04.01-.03.02-.04.01-.03.01-.04v-.03l.01-.04v-.08Z"/><path d="M34.69 7.01v-.07l-.01-.04v-.03l-.01-.04-.01-.03-.02-.04-.01-.03-.02-.04-.01-.03-.02-.03-.02-.03-.03-.03-.02-.03-.03-.02-.02-.03-.03-.02-.03-.03-.03-.02-.03-.02-.03-.01-.04-.02-.03-.01-.04-.02-.03-.01-.04-.01h-.03l-.04-.01h-.15l-.04.01h-.03l-.04.01-.03.01-.04.02-.03.01-.04.02-.03.01-.03.02-.03.02-.03.03-.03.02-.02.03-.03.02-.02.03-.03.03-.02.03-.02.03-.01.03-.02.04-.01.03-.02.04-.01.03-.01.04v.03l-.01.04v.15l.01.04v.03l.01.04.01.03.02.04.01.03.02.04.01.03.02.03.02.03.03.03.02.03.03.02.02.03.03.02.03.03.03.02.03.02.03.01.04.02.03.01.04.02.03.01.04.01h.03l.04.01h.15l.04-.01h.03l.04-.01.03-.01.04-.02.03-.01.04-.02.03-.01.03-.02.03-.02.03-.03.03-.02.02-.03.03-.02.02-.03.03-.03.02-.03.02-.03.01-.03.02-.04.01-.03.02-.04.01-.03.01-.04v-.03l.01-.04v-.08Z"/></g></svg>