<svg xmlns="http://www.w3.org/2000/svg" viewBox="0 0 2 2"><path fill="none" d="M0 0h2v2H0z"/><path fill="none" d="M0 2h.75m1.24 0h-.75M0 1h.75m1.24 0h-.75M0 .01h.75m1.24 0h-.75M0 2v-.75M0 .01v.75M1 2v-.75M1 .01v.75M1.99 2v-.75m0-1.24v.75" color="#000"/><text stroke-linecap="round" stroke-linejoin="round" stroke-width="0" color="#000" font-family="KaTeX_Typewriter" font-size="1" text-anchor="middle" transform="translate(1 1.33)"><tspan>C</tspan></text><path fill="none" stroke="#000" stroke-linecap="round" stroke-linejoin="round" stroke-width=".1" d="M1.7 1V.97L1.69.93V.89L1.68.86 1.67.82 1.66.79 1.65.75 1.64.72 1.62.69 1.6.65 1.59.62 1.56.59 1.54.56 1.52.53 1.49.51 1.47.48 1.44.46 1.41.44 1.38.41 1.35.4 1.31.38 1.28.36 1.25.35 1.21.34 1.18.33 1.14.32 1.11.31h-.04L1.03.3H.96L.92.31H.88L.85.32.81.33.78.34.74.35.71.36.68.38.64.4.61.41.58.44.55.46.52.48.5.51.47.53.45.56.43.59.4.62.39.65.37.69.35.72.34.75.33.79.32.82.31.86.3.89v.04L.29.97v.07l.01.04v.04l.01.03.01.04.01.03.01.04.01.03.02.03.02.04.01.03.03.03.02.03.02.03.03.02.02.03.03.02.03.02.03.03.03.01.04.02.03.02.03.01.04.01.03.01.04.01.03.01h.04l.04.01h.07l.04-.01h.04l.03-.01.04-.01.03-.01.04-.01.03-.01.03-.02.04-.02.03-.01.03-.03.03-.02.03-.02.02-.03.03-.02.02-.03.02-.03.03-.03.01-.03.02-.04.02-.03.01-.03.01-.04.01-.03.01-.04.01-.03v-.04l.01-.04v-.03m0-.01V.97L1.69.93V.89L1.68.86 1.67.82 1.66.79 1.65.75 1.64.72 1.62.69 1.6.65 1.59.62 1.56.59 1.54.56 1.52.53 1.49.51 1.47.48 1.44.46 1.41.44 1.38.41 1.35.4 1.31.38 1.28.36 1.25.35 1.21.34 1.18.33 1.14.32 1.11.31h-.04L1.03.3H.96L.92.31H.88L.85.32.81.33.78.34.74.35.71.36.68.38.64.4.61.41.58.44.55.46.52.48.5.51.47.53.45.56.43.59.4.62.39.65.37.69.35.72.34.75.33.79.32.82.31.86.3.89v.04L.29.97v.07l.01.04v.04l.01.03.01.04.01.03.01.04.01.03.02.03.02.04.01.03.03.03.02.03.02.03.03.02.02.03.03.02.03.02.03.03.03.01.04.02.03.02.03.01.04.01.03.01.04.01.03.01h.04l.04.01h.07l.04-.01h.04l.03-.01.04-.01.03-.01.04-.01.03-.01.03-.02.04-.02.03-.01.03-.03.03-.02.03-.02.02-.03.03-.02.02-.03.02-.03.03-.03.01-.03.02-.04.02-.03.01-.03.01-.04.01-.03.01-.04.01-.03v-.04l.01-.04v-.03" color="#000"/></svg>