<svg xmlns="http://www.w3.org/2000/svg" viewBox="0 0 36 14"><path fill="none" d="M0 0h36v14H0z"/><path fill="none" d="M0 14h.75m35.24 0h-.75M0 13h.75m35.24 0h-.75M0 12h.75m35.24 0h-.75M0 11h.75m35.24 0h-.75M0 10h.75m35.24 0h-.75M0 9h.75m35.24 0h-.75M0 8h.75m35.24 0h-.75M0 7h.75m35.24 0h-.75M0 6.01h.75m35.24 0h-.75M0 5.01h.75m35.24 0h-.75M0 4.01h.75m35.24 0h-.75M0 3.01h.75m35.24 0h-.75M0 2.01h.75m35.24 0h-.75M0 1.01h.75m35.24 0h-.75M0 .01h.75m35.24 0h-.75M0 14v-.75M0 .01v.75M1 14v-.75M1 .01v.75M2 14v-.75M2 .01v.75M3 14v-.75M3 .01v.75M4 14v-.75M4 .01v.75M5 14v-.75M5 .01v.75M6 14v-.75M6 .01v.75M7 14v-.75M7 .01v.75M8 14v-.75M8 .01v.75M9 14v-.75M9 .01v.75M10 14v-.75M10 .01v.75M11 14v-.75M11 .01v.75M12 14v-.75M12 .01v.75M13 14v-.75M13 .01v.75M14 14v-.75M14 .01v.75M15 14v-.75M15 .01v.75M16 14v-.75M16 .01v.75M17 14v-.75M17 .01v.75M18 14v-.75M18 .01v.75M18.99 14v-.75m0-13.24v.75m1 13.24v-.75m0-13.24v.75m1 13.24v-.75m0-13.24v.75m1 13.24v-.75m0-13.24v.75m1 13.24v-.75m0-13.24v.75m1 13.24v-.75m0-13.24v.75m1 13.24v-.75m0-13.24v.75m1 13.24v-.75m0-13.24v.75m1 13.24v-.75m0-13.24v.75m1 13.24v-.75m0-13.24v.75m1 13.24v-.75m0-13.24v.75m1 13.24v-.75m0-13.24v.75m1 13.24v-.75m0-13.24v.75m1 13.24v-.75m0-13.24v.75m1 13.24v-.75m0-13.24v.75m1 13.24v-.75m0-13.24v.75m1 13.24v-.75m0-13.24v.75m1 13.24v-.75m0-13.24v.75" color="#000"/><g fill="none" stroke="currentColor" stroke-linecap="round" stroke-linejoin="round" stroke-width=".1" color="#000"><path stroke="#EC6F1A" d="M23.49 13.5v-.99h.99v.99h-.99Z"/><text fill="#2962FF" stroke="none" font-family="KaTeX_Typewriter" font-size="1" text-anchor="middle" transform="translate(12 1.34)"><tspan>OPERATION 1</tspan></text><text fill="#EC6F1A" stroke="none" font-family="KaTeX_Typewriter" font-size="1" text-anchor="middle" transform="translate(23.99 1.34)"><tspan>OPERATION 2</tspan></text><path fill="#2962FF" stroke="none" d="m13.23 3.39.07.15-.34-.02.19-.29.08.16z" shape-rendering="crispEdges"/><path stroke="#2962FF" d="m13.23 3.39.07.15-.34-.02.19-.29.08.16Zm3.83-1.92-3.83 1.92"/><path fill="#EC6F1A" stroke="none" d="m22.78 3.39.08-.16.19.29-.34.02.07-.15z" shape-rendering="crispEdges"/><path stroke="#EC6F1A" d="m22.78 3.39.08-.16.19.29-.34.02.07-.15Zm-3.83-1.92 3.83 1.92"/><path fill="#2962FF" stroke="none" d="m9.97 6.04.12.12-.33.09.09-.33.12.12z" shape-rendering="crispEdges"/><path stroke="#2962FF" d="m9.97 6.04.12.12-.33.09.09-.33.12.12Zm1.29-1.29L9.97 6.04"/><path stroke="#000" d="m12.01 4 3 2.99"/><path fill="#EC6F1A" stroke="none" d="m21.96 6.04.12.12-.33.09.09-.33.12.12z" shape-rendering="crispEdges"/><path stroke="#EC6F1A" d="m21.96 6.04.12.12-.33.09.09-.33.12.12Zm1.29-1.29-1.29 1.29"/><path stroke="#000" d="m24 4 3 2.99"/><path fill="#2962FF" stroke="none" d="m8.11 8.77.16.08-.29.19-.02-.34.15.07z" shape-rendering="crispEdges"/><path stroke="#2962FF" d="m8.11 8.77.16.08-.29.19-.02-.34.15.07Zm.42-.83-.42.83"/><path stroke="#000" d="m9.01 6.99 1.5 3m4.5-3-1.5 3m1.5-3 1.5 3m4.49-3-1.5 3"/><path fill="#EC6F1A" stroke="none" d="m21.9 8.77.15-.07-.02.34-.29-.19.16-.08z" shape-rendering="crispEdges"/><path stroke="#EC6F1A" d="m21.9 8.77.15-.07-.02.34-.29-.19.16-.08Zm-.42-.83.42.83"/><path stroke="#000" d="m27 6.99-1.5 3m1.5-3 1.5 3"/><path fill="#EC6F1A" stroke="none" d="m23.4 11.77.15-.07-.02.34-.29-.19.16-.08z" shape-rendering="crispEdges"/><path stroke="#EC6F1A" d="m23.4 11.77.15-.07-.02.34-.29-.19.16-.08Zm-.42-.83.42.83"/></g><g fill="none" stroke="currentColor" stroke-linecap="round" stroke-linejoin="round" stroke-width=".1" color="#000"><path fill="#000" stroke="none" d="M18.35 1.01V.98l-.01-.02V.92l-.01-.01-.01-.02V.87l-.01-.02-.01-.01-.01-.02-.01-.01-.01-.02-.01-.01-.02-.01-.01-.02-.01-.01-.02-.01-.01-.01-.02-.01-.01-.01-.02-.01h-.02L18.1.68l-.01-.01h-.04l-.02-.01h-.07l-.02.01h-.04l-.01.01-.02.01h-.02l-.02.01-.01.01-.02.01-.01.01-.02.01-.01.01-.01.02-.02.01-.01.01-.01.02-.01.01-.01.02-.01.01-.01.02v.02l-.01.02-.01.01v.04l-.01.02v.07l.01.02v.04l.01.01.01.02v.02l.01.02.01.01.01.02.01.01.01.02.01.01.02.01.01.02.01.01.02.01.01.01.02.01.01.01.02.01h.02l.02.01.01.01h.04l.02.01h.07l.02-.01h.04l.01-.01.02-.01h.02l.02-.01.01-.01.02-.01.01-.01.02-.01.01-.01.01-.02.02-.01.01-.01.01-.02.01-.01.01-.02.01-.01.01-.02v-.02l.01-.02.01-.01v-.04l.01-.02v-.02z" shape-rendering="crispEdges"/><path stroke="#000" d="M18.35 1.01V.98l-.01-.02V.92l-.01-.01-.01-.02V.87l-.01-.02-.01-.01-.01-.02-.01-.01-.01-.02-.01-.01-.02-.01-.01-.02-.01-.01-.02-.01-.01-.01-.02-.01-.01-.01-.02-.01h-.02L18.1.68l-.01-.01h-.04l-.02-.01h-.07l-.02.01h-.04l-.01.01-.02.01h-.02l-.02.01-.01.01-.02.01-.01.01-.02.01-.01.01-.01.02-.02.01-.01.01-.01.02-.01.01-.01.02-.01.01-.01.02v.02l-.01.02-.01.01v.04l-.01.02v.07l.01.02v.04l.01.01.01.02v.02l.01.02.01.01.01.02.01.01.01.02.01.01.02.01.01.02.01.01.02.01.01.01.02.01.01.01.02.01h.02l.02.01.01.01h.04l.02.01h.07l.02-.01h.04l.01-.01.02-.01h.02l.02-.01.01-.01.02-.01.01-.01.02-.01.01-.01.01-.02.02-.01.01-.01.01-.02.01-.01.01-.02.01-.01.01-.02v-.02l.01-.02.01-.01v-.04l.01-.02v-.04Z"/></g><g fill="none" stroke="currentColor" stroke-linecap="round" stroke-linejoin="round" stroke-width=".1" color="#000"><path fill="#000" stroke="none" d="M12.35 4.01v-.03l-.01-.02v-.04l-.01-.01-.01-.02v-.02l-.01-.02-.01-.01-.01-.02-.01-.01-.01-.02-.01-.01-.02-.01-.01-.02-.01-.01-.02-.01-.01-.01-.02-.01-.01-.01-.02-.01h-.02l-.02-.01-.01-.01h-.04l-.02-.01h-.07l-.02.01h-.04l-.01.01-.02.01h-.02l-.02.01-.01.01-.02.01-.01.01-.02.01-.01.01-.01.02-.02.01-.01.01-.01.02-.01.01-.01.02-.01.01-.01.02v.02l-.01.02-.01.01v.04l-.01.02v.07l.01.02v.04l.01.01.01.02v.02l.01.02.01.01.01.02.01.01.01.02.01.01.02.01.01.02.01.01.02.01.01.01.02.01.01.01.02.01h.02l.02.01.01.01h.04l.02.01h.07l.02-.01h.04l.01-.01.02-.01h.02l.02-.01.01-.01.02-.01.01-.01.02-.01.01-.01.01-.02.02-.01.01-.01.01-.02.01-.01.01-.02.01-.01.01-.02v-.02l.01-.02.01-.01v-.04l.01-.02v-.02z" shape-rendering="crispEdges"/><path stroke="#000" d="M12.35 4.01v-.03l-.01-.02v-.04l-.01-.01-.01-.02v-.02l-.01-.02-.01-.01-.01-.02-.01-.01-.01-.02-.01-.01-.02-.01-.01-.02-.01-.01-.02-.01-.01-.01-.02-.01-.01-.01-.02-.01h-.02l-.02-.01-.01-.01h-.04l-.02-.01h-.07l-.02.01h-.04l-.01.01-.02.01h-.02l-.02.01-.01.01-.02.01-.01.01-.02.01-.01.01-.01.02-.02.01-.01.01-.01.02-.01.01-.01.02-.01.01-.01.02v.02l-.01.02-.01.01v.04l-.01.02v.07l.01.02v.04l.01.01.01.02v.02l.01.02.01.01.01.02.01.01.01.02.01.01.02.01.01.02.01.01.02.01.01.01.02.01.01.01.02.01h.02l.02.01.01.01h.04l.02.01h.07l.02-.01h.04l.01-.01.02-.01h.02l.02-.01.01-.01.02-.01.01-.01.02-.01.01-.01.01-.02.02-.01.01-.01.01-.02.01-.01.01-.02.01-.01.01-.02v-.02l.01-.02.01-.01v-.04l.01-.02v-.04Z"/></g><g fill="none" stroke="currentColor" stroke-linecap="round" stroke-linejoin="round" stroke-width=".1" color="#000"><path fill="#000" stroke="none" d="M24.34 4.01v-.03l-.01-.02v-.04l-.01-.01-.01-.02v-.02l-.01-.02-.01-.01-.01-.02-.01-.01-.01-.02-.01-.01-.02-.01-.01-.02-.01-.01-.02-.01-.01-.01-.02-.01-.01-.01-.02-.01h-.02l-.02-.01-.01-.01h-.04l-.02-.01h-.07l-.02.01h-.04l-.01.01-.02.01h-.02l-.02.01-.01.01-.02.01-.01.01-.02.01-.01.01-.01.02-.02.01-.01.01-.01.02-.01.01-.01.02-.01.01-.01.02v.02l-.01.02-.01.01v.04l-.01.02v.07l.01.02v.04l.01.01.01.02v.02l.01.02.01.01.01.02.01.01.01.02.01.01.02.01.01.02.01.01.02.01.01.01.02.01.01.01.02.01h.02l.02.01.01.01h.04l.02.01h.07l.02-.01h.04l.01-.01.02-.01h.02l.02-.01.01-.01.02-.01.01-.01.02-.01.01-.01.01-.02.02-.01.01-.01.01-.02.01-.01.01-.02.01-.01.01-.02v-.02l.01-.02.01-.01v-.04l.01-.02v-.02z" shape-rendering="crispEdges"/><path stroke="#000" d="M24.34 4.01v-.03l-.01-.02v-.04l-.01-.01-.01-.02v-.02l-.01-.02-.01-.01-.01-.02-.01-.01-.01-.02-.01-.01-.02-.01-.01-.02-.01-.01-.02-.01-.01-.01-.02-.01-.01-.01-.02-.01h-.02l-.02-.01-.01-.01h-.04l-.02-.01h-.07l-.02.01h-.04l-.01.01-.02.01h-.02l-.02.01-.01.01-.02.01-.01.01-.02.01-.01.01-.01.02-.02.01-.01.01-.01.02-.01.01-.01.02-.01.01-.01.02v.02l-.01.02-.01.01v.04l-.01.02v.07l.01.02v.04l.01.01.01.02v.02l.01.02.01.01.01.02.01.01.01.02.01.01.02.01.01.02.01.01.02.01.01.01.02.01.01.01.02.01h.02l.02.01.01.01h.04l.02.01h.07l.02-.01h.04l.01-.01.02-.01h.02l.02-.01.01-.01.02-.01.01-.01.02-.01.01-.01.01-.02.02-.01.01-.01.01-.02.01-.01.01-.02.01-.01.01-.02v-.02l.01-.02.01-.01v-.04l.01-.02v-.04Z"/></g><g fill="none" stroke="currentColor" stroke-linecap="round" stroke-linejoin="round" stroke-width=".1" color="#000"><path fill="#000" stroke="none" d="M9.35 7v-.03l-.01-.02v-.04l-.01-.01-.01-.02v-.02l-.01-.02-.01-.01-.01-.02-.01-.01-.01-.02-.01-.01-.02-.01-.01-.02-.01-.01-.02-.01-.01-.01-.02-.01-.01-.01-.02-.01h-.02l-.02-.01-.01-.01h-.04l-.02-.01h-.07l-.02.01H8.9l-.01.01-.02.01h-.02l-.02.01-.01.01-.02.01-.01.01-.02.01-.01.01-.01.02-.02.01-.01.01-.01.02-.01.01-.01.02-.01.01-.01.02v.02l-.01.02-.01.01v.04l-.01.02v.07l.01.02v.04l.01.01.01.02v.02l.01.02.01.01.01.02.01.01.01.02.01.01.02.01.01.02.01.01.02.01.01.01.02.01.01.01.02.01h.02l.02.01.01.01h.04l.02.01h.07l.02-.01h.04l.01-.01.02-.01h.02l.02-.01.01-.01.02-.01.01-.01.02-.01.01-.01.01-.02.02-.01.01-.01.01-.02.01-.01.01-.02.01-.01.01-.02v-.02l.01-.02.01-.01v-.04l.01-.02v-.02z" shape-rendering="crispEdges"/><path stroke="#000" d="M9.35 7v-.03l-.01-.02v-.04l-.01-.01-.01-.02v-.02l-.01-.02-.01-.01-.01-.02-.01-.01-.01-.02-.01-.01-.02-.01-.01-.02-.01-.01-.02-.01-.01-.01-.02-.01-.01-.01-.02-.01h-.02l-.02-.01-.01-.01h-.04l-.02-.01h-.07l-.02.01H8.9l-.01.01-.02.01h-.02l-.02.01-.01.01-.02.01-.01.01-.02.01-.01.01-.01.02-.02.01-.01.01-.01.02-.01.01-.01.02-.01.01-.01.02v.02l-.01.02-.01.01v.04l-.01.02v.07l.01.02v.04l.01.01.01.02v.02l.01.02.01.01.01.02.01.01.01.02.01.01.02.01.01.02.01.01.02.01.01.01.02.01.01.01.02.01h.02l.02.01.01.01h.04l.02.01h.07l.02-.01h.04l.01-.01.02-.01h.02l.02-.01.01-.01.02-.01.01-.01.02-.01.01-.01.01-.02.02-.01.01-.01.01-.02.01-.01.01-.02.01-.01.01-.02v-.02l.01-.02.01-.01v-.04l.01-.02V7Z"/></g><g fill="none" stroke="currentColor" stroke-linecap="round" stroke-linejoin="round" stroke-width=".1" color="#000"><path fill="#000" stroke="none" d="M15.35 7v-.03l-.01-.02v-.04l-.01-.01-.01-.02v-.02l-.01-.02-.01-.01-.01-.02-.01-.01-.01-.02-.01-.01-.02-.01-.01-.02-.01-.01-.02-.01-.01-.01-.02-.01-.01-.01-.02-.01h-.02l-.02-.01-.01-.01h-.04l-.02-.01h-.07l-.02.01h-.04l-.01.01-.02.01h-.02l-.02.01-.01.01-.02.01-.01.01-.02.01-.01.01-.01.02-.02.01-.01.01-.01.02-.01.01-.01.02-.01.01-.01.02v.02l-.01.02-.01.01v.04l-.01.02v.07l.01.02v.04l.01.01.01.02v.02l.01.02.01.01.01.02.01.01.01.02.01.01.02.01.01.02.01.01.02.01.01.01.02.01.01.01.02.01h.02l.02.01.01.01h.04l.02.01h.07l.02-.01h.04l.01-.01.02-.01h.02l.02-.01.01-.01.02-.01.01-.01.02-.01.01-.01.01-.02.02-.01.01-.01.01-.02.01-.01.01-.02.01-.01.01-.02v-.02l.01-.02.01-.01v-.04l.01-.02v-.02z" shape-rendering="crispEdges"/><path stroke="#000" d="M15.35 7v-.03l-.01-.02v-.04l-.01-.01-.01-.02v-.02l-.01-.02-.01-.01-.01-.02-.01-.01-.01-.02-.01-.01-.02-.01-.01-.02-.01-.01-.02-.01-.01-.01-.02-.01-.01-.01-.02-.01h-.02l-.02-.01-.01-.01h-.04l-.02-.01h-.07l-.02.01h-.04l-.01.01-.02.01h-.02l-.02.01-.01.01-.02.01-.01.01-.02.01-.01.01-.01.02-.02.01-.01.01-.01.02-.01.01-.01.02-.01.01-.01.02v.02l-.01.02-.01.01v.04l-.01.02v.07l.01.02v.04l.01.01.01.02v.02l.01.02.01.01.01.02.01.01.01.02.01.01.02.01.01.02.01.01.02.01.01.01.02.01.01.01.02.01h.02l.02.01.01.01h.04l.02.01h.07l.02-.01h.04l.01-.01.02-.01h.02l.02-.01.01-.01.02-.01.01-.01.02-.01.01-.01.01-.02.02-.01.01-.01.01-.02.01-.01.01-.02.01-.01.01-.02v-.02l.01-.02.01-.01v-.04l.01-.02V7Z"/></g><g fill="none" stroke="currentColor" stroke-linecap="round" stroke-linejoin="round" stroke-width=".1" color="#000"><path fill="#000" stroke="none" d="M21.34 7v-.03l-.01-.02v-.04l-.01-.01-.01-.02v-.02l-.01-.02-.01-.01-.01-.02-.01-.01-.01-.02-.01-.01-.02-.01-.01-.02-.01-.01-.02-.01-.01-.01-.02-.01-.01-.01-.02-.01h-.02l-.02-.01-.01-.01h-.04l-.02-.01h-.07l-.02.01h-.04l-.01.01-.02.01h-.02l-.02.01-.01.01-.02.01-.01.01-.02.01-.01.01-.01.02-.02.01-.01.01-.01.02-.01.01-.01.02-.01.01-.01.02v.02l-.01.02-.01.01v.04l-.01.02v.07l.01.02v.04l.01.01.01.02v.02l.01.02.01.01.01.02.01.01.01.02.01.01.02.01.01.02.01.01.02.01.01.01.02.01.01.01.02.01h.02l.02.01.01.01h.04l.02.01h.07l.02-.01h.04l.01-.01.02-.01h.02l.02-.01.01-.01.02-.01.01-.01.02-.01.01-.01.01-.02.02-.01.01-.01.01-.02.01-.01.01-.02.01-.01.01-.02v-.02l.01-.02.01-.01v-.04l.01-.02v-.02z" shape-rendering="crispEdges"/><path stroke="#000" d="M21.34 7v-.03l-.01-.02v-.04l-.01-.01-.01-.02v-.02l-.01-.02-.01-.01-.01-.02-.01-.01-.01-.02-.01-.01-.02-.01-.01-.02-.01-.01-.02-.01-.01-.01-.02-.01-.01-.01-.02-.01h-.02l-.02-.01-.01-.01h-.04l-.02-.01h-.07l-.02.01h-.04l-.01.01-.02.01h-.02l-.02.01-.01.01-.02.01-.01.01-.02.01-.01.01-.01.02-.02.01-.01.01-.01.02-.01.01-.01.02-.01.01-.01.02v.02l-.01.02-.01.01v.04l-.01.02v.07l.01.02v.04l.01.01.01.02v.02l.01.02.01.01.01.02.01.01.01.02.01.01.02.01.01.02.01.01.02.01.01.01.02.01.01.01.02.01h.02l.02.01.01.01h.04l.02.01h.07l.02-.01h.04l.01-.01.02-.01h.02l.02-.01.01-.01.02-.01.01-.01.02-.01.01-.01.01-.02.02-.01.01-.01.01-.02.01-.01.01-.02.01-.01.01-.02v-.02l.01-.02.01-.01v-.04l.01-.02V7Z"/></g><g fill="none" stroke="currentColor" stroke-linecap="round" stroke-linejoin="round" stroke-width=".1" color="#000"><path fill="#000" stroke="none" d="M27.34 7v-.03l-.01-.02v-.04l-.01-.01-.01-.02v-.02l-.01-.02-.01-.01-.01-.02-.01-.01-.01-.02-.01-.01-.02-.01-.01-.02-.01-.01-.02-.01-.01-.01-.02-.01-.01-.01-.02-.01h-.02l-.02-.01-.01-.01h-.04l-.02-.01h-.07l-.02.01h-.04l-.01.01-.02.01h-.02l-.02.01-.01.01-.02.01-.01.01-.02.01-.01.01-.01.02-.02.01-.01.01-.01.02-.01.01-.01.02-.01.01-.01.02v.02l-.01.02-.01.01v.04l-.01.02v.07l.01.02v.04l.01.01.01.02v.02l.01.02.01.01.01.02.01.01.01.02.01.01.02.01.01.02.01.01.02.01.01.01.02.01.01.01.02.01h.02l.02.01.01.01h.04l.02.01h.07l.02-.01h.04l.01-.01.02-.01h.02l.02-.01.01-.01.02-.01.01-.01.02-.01.01-.01.01-.02.02-.01.01-.01.01-.02.01-.01.01-.02.01-.01.01-.02v-.02l.01-.02.01-.01v-.04l.01-.02v-.02z" shape-rendering="crispEdges"/><path stroke="#000" d="M27.34 7v-.03l-.01-.02v-.04l-.01-.01-.01-.02v-.02l-.01-.02-.01-.01-.01-.02-.01-.01-.01-.02-.01-.01-.02-.01-.01-.02-.01-.01-.02-.01-.01-.01-.02-.01-.01-.01-.02-.01h-.02l-.02-.01-.01-.01h-.04l-.02-.01h-.07l-.02.01h-.04l-.01.01-.02.01h-.02l-.02.01-.01.01-.02.01-.01.01-.02.01-.01.01-.01.02-.02.01-.01.01-.01.02-.01.01-.01.02-.01.01-.01.02v.02l-.01.02-.01.01v.04l-.01.02v.07l.01.02v.04l.01.01.01.02v.02l.01.02.01.01.01.02.01.01.01.02.01.01.02.01.01.02.01.01.02.01.01.01.02.01.01.01.02.01h.02l.02.01.01.01h.04l.02.01h.07l.02-.01h.04l.01-.01.02-.01h.02l.02-.01.01-.01.02-.01.01-.01.02-.01.01-.01.01-.02.02-.01.01-.01.01-.02.01-.01.01-.02.01-.01.01-.02v-.02l.01-.02.01-.01v-.04l.01-.02V7Z"/></g><g fill="none" stroke="currentColor" stroke-linecap="round" stroke-linejoin="round" stroke-width=".1" color="#000"><path fill="#2962FF" stroke="none" d="M7.85 10v-.03l-.01-.02v-.04l-.01-.01-.01-.02v-.02l-.01-.02-.01-.01-.01-.02-.01-.01-.01-.02-.01-.01-.02-.01-.01-.02-.01-.01-.02-.01-.01-.01-.02-.01-.01-.01-.02-.01h-.02l-.02-.01-.01-.01h-.04l-.02-.01h-.07l-.02.01H7.4l-.01.01-.02.01h-.02l-.02.01-.01.01-.02.01-.01.01-.02.01-.01.01-.01.02-.02.01-.01.01-.01.02-.01.01-.01.02-.01.01-.01.02v.02l-.01.02-.01.01v.04l-.01.02v.07l.01.02v.04l.01.01.01.02v.02l.01.02.01.01.01.02.01.01.01.02.01.01.02.01.01.02.01.01.02.01.01.01.02.01.01.01.02.01h.02l.02.01.01.01h.04l.02.01h.07l.02-.01h.04l.01-.01.02-.01h.02l.02-.01.01-.01.02-.01.01-.01.02-.01.01-.01.01-.02.02-.01.01-.01.01-.02.01-.01.01-.02.01-.01.01-.02v-.02l.01-.02.01-.01v-.04l.01-.02v-.02z" shape-rendering="crispEdges"/><path stroke="#2962FF" d="M7.85 10v-.03l-.01-.02v-.04l-.01-.01-.01-.02v-.02l-.01-.02-.01-.01-.01-.02-.01-.01-.01-.02-.01-.01-.02-.01-.01-.02-.01-.01-.02-.01-.01-.01-.02-.01-.01-.01-.02-.01h-.02l-.02-.01-.01-.01h-.04l-.02-.01h-.07l-.02.01H7.4l-.01.01-.02.01h-.02l-.02.01-.01.01-.02.01-.01.01-.02.01-.01.01-.01.02-.02.01-.01.01-.01.02-.01.01-.01.02-.01.01-.01.02v.02l-.01.02-.01.01v.04l-.01.02v.07l.01.02v.04l.01.01.01.02v.02l.01.02.01.01.01.02.01.01.01.02.01.01.02.01.01.02.01.01.02.01.01.01.02.01.01.01.02.01h.02l.02.01.01.01h.04l.02.01h.07l.02-.01h.04l.01-.01.02-.01h.02l.02-.01.01-.01.02-.01.01-.01.02-.01.01-.01.01-.02.02-.01.01-.01.01-.02.01-.01.01-.02.01-.01.01-.02v-.02l.01-.02.01-.01v-.04l.01-.02V10Z"/></g><g fill="none" stroke="currentColor" stroke-linecap="round" stroke-linejoin="round" stroke-width=".1" color="#000"><path fill="#000" stroke="none" d="M10.85 10v-.03l-.01-.02v-.04l-.01-.01-.01-.02v-.02l-.01-.02-.01-.01-.01-.02-.01-.01-.01-.02-.01-.01-.02-.01-.01-.02-.01-.01-.02-.01-.01-.01-.02-.01-.01-.01-.02-.01h-.02l-.02-.01-.01-.01h-.04l-.02-.01h-.07l-.02.01h-.04l-.01.01-.02.01h-.02l-.02.01-.01.01-.02.01-.01.01-.02.01-.01.01-.01.02-.02.01-.01.01-.01.02-.01.01-.01.02-.01.01-.01.02v.02l-.01.02-.01.01v.04l-.01.02v.07l.01.02v.04l.01.01.01.02v.02l.01.02.01.01.01.02.01.01.01.02.01.01.02.01.01.02.01.01.02.01.01.01.02.01.01.01.02.01h.02l.02.01.01.01h.04l.02.01h.07l.02-.01h.04l.01-.01.02-.01h.02l.02-.01.01-.01.02-.01.01-.01.02-.01.01-.01.01-.02.02-.01.01-.01.01-.02.01-.01.01-.02.01-.01.01-.02v-.02l.01-.02.01-.01v-.04l.01-.02v-.02z" shape-rendering="crispEdges"/><path stroke="#000" d="M10.85 10v-.03l-.01-.02v-.04l-.01-.01-.01-.02v-.02l-.01-.02-.01-.01-.01-.02-.01-.01-.01-.02-.01-.01-.02-.01-.01-.02-.01-.01-.02-.01-.01-.01-.02-.01-.01-.01-.02-.01h-.02l-.02-.01-.01-.01h-.04l-.02-.01h-.07l-.02.01h-.04l-.01.01-.02.01h-.02l-.02.01-.01.01-.02.01-.01.01-.02.01-.01.01-.01.02-.02.01-.01.01-.01.02-.01.01-.01.02-.01.01-.01.02v.02l-.01.02-.01.01v.04l-.01.02v.07l.01.02v.04l.01.01.01.02v.02l.01.02.01.01.01.02.01.01.01.02.01.01.02.01.01.02.01.01.02.01.01.01.02.01.01.01.02.01h.02l.02.01.01.01h.04l.02.01h.07l.02-.01h.04l.01-.01.02-.01h.02l.02-.01.01-.01.02-.01.01-.01.02-.01.01-.01.01-.02.02-.01.01-.01.01-.02.01-.01.01-.02.01-.01.01-.02v-.02l.01-.02.01-.01v-.04l.01-.02V10Z"/></g><g fill="none" stroke="currentColor" stroke-linecap="round" stroke-linejoin="round" stroke-width=".1" color="#000"><path fill="#000" stroke="none" d="M13.85 10v-.03l-.01-.02v-.04l-.01-.01-.01-.02v-.02l-.01-.02-.01-.01-.01-.02-.01-.01-.01-.02-.01-.01-.02-.01-.01-.02-.01-.01-.02-.01-.01-.01-.02-.01-.01-.01-.02-.01h-.02l-.02-.01-.01-.01h-.04l-.02-.01h-.07l-.02.01h-.04l-.01.01-.02.01h-.02l-.02.01-.01.01-.02.01-.01.01-.02.01-.01.01-.01.02-.02.01-.01.01-.01.02-.01.01-.01.02-.01.01-.01.02v.02l-.01.02-.01.01v.04l-.01.02v.07l.01.02v.04l.01.01.01.02v.02l.01.02.01.01.01.02.01.01.01.02.01.01.02.01.01.02.01.01.02.01.01.01.02.01.01.01.02.01h.02l.02.01.01.01h.04l.02.01h.07l.02-.01h.04l.01-.01.02-.01h.02l.02-.01.01-.01.02-.01.01-.01.02-.01.01-.01.01-.02.02-.01.01-.01.01-.02.01-.01.01-.02.01-.01.01-.02v-.02l.01-.02.01-.01v-.04l.01-.02v-.02z" shape-rendering="crispEdges"/><path stroke="#000" d="M13.85 10v-.03l-.01-.02v-.04l-.01-.01-.01-.02v-.02l-.01-.02-.01-.01-.01-.02-.01-.01-.01-.02-.01-.01-.02-.01-.01-.02-.01-.01-.02-.01-.01-.01-.02-.01-.01-.01-.02-.01h-.02l-.02-.01-.01-.01h-.04l-.02-.01h-.07l-.02.01h-.04l-.01.01-.02.01h-.02l-.02.01-.01.01-.02.01-.01.01-.02.01-.01.01-.01.02-.02.01-.01.01-.01.02-.01.01-.01.02-.01.01-.01.02v.02l-.01.02-.01.01v.04l-.01.02v.07l.01.02v.04l.01.01.01.02v.02l.01.02.01.01.01.02.01.01.01.02.01.01.02.01.01.02.01.01.02.01.01.01.02.01.01.01.02.01h.02l.02.01.01.01h.04l.02.01h.07l.02-.01h.04l.01-.01.02-.01h.02l.02-.01.01-.01.02-.01.01-.01.02-.01.01-.01.01-.02.02-.01.01-.01.01-.02.01-.01.01-.02.01-.01.01-.02v-.02l.01-.02.01-.01v-.04l.01-.02V10Z"/></g><g fill="none" stroke="currentColor" stroke-linecap="round" stroke-linejoin="round" stroke-width=".1" color="#000"><path fill="#000" stroke="none" d="M16.85 10v-.03l-.01-.02v-.04l-.01-.01-.01-.02v-.02l-.01-.02-.01-.01-.01-.02-.01-.01-.01-.02-.01-.01-.02-.01-.01-.02-.01-.01-.02-.01-.01-.01-.02-.01-.01-.01-.02-.01h-.02l-.02-.01-.01-.01h-.04l-.02-.01h-.07l-.02.01h-.04l-.01.01-.02.01h-.02l-.02.01-.01.01-.02.01-.01.01-.02.01-.01.01-.01.02-.02.01-.01.01-.01.02-.01.01-.01.02-.01.01-.01.02v.02l-.01.02-.01.01v.04l-.01.02v.07l.01.02v.04l.01.01.01.02v.02l.01.02.01.01.01.02.01.01.01.02.01.01.02.01.01.02.01.01.02.01.01.01.02.01.01.01.02.01h.02l.02.01.01.01h.04l.02.01h.07l.02-.01h.04l.01-.01.02-.01h.02l.02-.01.01-.01.02-.01.01-.01.02-.01.01-.01.01-.02.02-.01.01-.01.01-.02.01-.01.01-.02.01-.01.01-.02v-.02l.01-.02.01-.01v-.04l.01-.02v-.02z" shape-rendering="crispEdges"/><path stroke="#000" d="M16.85 10v-.03l-.01-.02v-.04l-.01-.01-.01-.02v-.02l-.01-.02-.01-.01-.01-.02-.01-.01-.01-.02-.01-.01-.02-.01-.01-.02-.01-.01-.02-.01-.01-.01-.02-.01-.01-.01-.02-.01h-.02l-.02-.01-.01-.01h-.04l-.02-.01h-.07l-.02.01h-.04l-.01.01-.02.01h-.02l-.02.01-.01.01-.02.01-.01.01-.02.01-.01.01-.01.02-.02.01-.01.01-.01.02-.01.01-.01.02-.01.01-.01.02v.02l-.01.02-.01.01v.04l-.01.02v.07l.01.02v.04l.01.01.01.02v.02l.01.02.01.01.01.02.01.01.01.02.01.01.02.01.01.02.01.01.02.01.01.01.02.01.01.01.02.01h.02l.02.01.01.01h.04l.02.01h.07l.02-.01h.04l.01-.01.02-.01h.02l.02-.01.01-.01.02-.01.01-.01.02-.01.01-.01.01-.02.02-.01.01-.01.01-.02.01-.01.01-.02.01-.01.01-.02v-.02l.01-.02.01-.01v-.04l.01-.02V10Z"/></g><g fill="none" stroke="currentColor" stroke-linecap="round" stroke-linejoin="round" stroke-width=".1" color="#000"><path fill="#000" stroke="none" d="M19.84 10v-.03l-.01-.02v-.04l-.01-.01-.01-.02v-.02l-.01-.02-.01-.01-.01-.02-.01-.01-.01-.02-.01-.01-.02-.01-.01-.02-.01-.01-.02-.01-.01-.01-.02-.01-.01-.01-.02-.01h-.02l-.02-.01-.01-.01h-.04l-.02-.01h-.07l-.02.01h-.04l-.01.01-.02.01h-.02l-.02.01-.01.01-.02.01-.01.01-.02.01-.01.01-.01.02-.02.01-.01.01-.01.02-.01.01-.01.02-.01.01-.01.02v.02l-.01.02-.01.01v.04l-.01.02v.07l.01.02v.04l.01.01.01.02v.02l.01.02.01.01.01.02.01.01.01.02.01.01.02.01.01.02.01.01.02.01.01.01.02.01.01.01.02.01h.02l.02.01.01.01h.04l.02.01h.07l.02-.01h.04l.01-.01.02-.01h.02l.02-.01.01-.01.02-.01.01-.01.02-.01.01-.01.01-.02.02-.01.01-.01.01-.02.01-.01.01-.02.01-.01.01-.02v-.02l.01-.02.01-.01v-.04l.01-.02v-.02z" shape-rendering="crispEdges"/><path stroke="#000" d="M19.84 10v-.03l-.01-.02v-.04l-.01-.01-.01-.02v-.02l-.01-.02-.01-.01-.01-.02-.01-.01-.01-.02-.01-.01-.02-.01-.01-.02-.01-.01-.02-.01-.01-.01-.02-.01-.01-.01-.02-.01h-.02l-.02-.01-.01-.01h-.04l-.02-.01h-.07l-.02.01h-.04l-.01.01-.02.01h-.02l-.02.01-.01.01-.02.01-.01.01-.02.01-.01.01-.01.02-.02.01-.01.01-.01.02-.01.01-.01.02-.01.01-.01.02v.02l-.01.02-.01.01v.04l-.01.02v.07l.01.02v.04l.01.01.01.02v.02l.01.02.01.01.01.02.01.01.01.02.01.01.02.01.01.02.01.01.02.01.01.01.02.01.01.01.02.01h.02l.02.01.01.01h.04l.02.01h.07l.02-.01h.04l.01-.01.02-.01h.02l.02-.01.01-.01.02-.01.01-.01.02-.01.01-.01.01-.02.02-.01.01-.01.01-.02.01-.01.01-.02.01-.01.01-.02v-.02l.01-.02.01-.01v-.04l.01-.02V10Z"/></g><g fill="none" stroke="currentColor" stroke-linecap="round" stroke-linejoin="round" stroke-width=".1" color="#000"><path fill="#000" stroke="none" d="M22.84 10v-.03l-.01-.02v-.04l-.01-.01-.01-.02v-.02l-.01-.02-.01-.01-.01-.02-.01-.01-.01-.02-.01-.01-.02-.01-.01-.02-.01-.01-.02-.01-.01-.01-.02-.01-.01-.01-.02-.01h-.02l-.02-.01-.01-.01h-.04l-.02-.01h-.07l-.02.01h-.04l-.01.01-.02.01h-.02l-.02.01-.01.01-.02.01-.01.01-.02.01-.01.01-.01.02-.02.01-.01.01-.01.02-.01.01-.01.02-.01.01-.01.02v.02l-.01.02-.01.01v.04l-.01.02v.07l.01.02v.04l.01.01.01.02v.02l.01.02.01.01.01.02.01.01.01.02.01.01.02.01.01.02.01.01.02.01.01.01.02.01.01.01.02.01h.02l.02.01.01.01h.04l.02.01h.07l.02-.01h.04l.01-.01.02-.01h.02l.02-.01.01-.01.02-.01.01-.01.02-.01.01-.01.01-.02.02-.01.01-.01.01-.02.01-.01.01-.02.01-.01.01-.02v-.02l.01-.02.01-.01v-.04l.01-.02v-.02z" shape-rendering="crispEdges"/><path stroke="#000" d="M22.84 10v-.03l-.01-.02v-.04l-.01-.01-.01-.02v-.02l-.01-.02-.01-.01-.01-.02-.01-.01-.01-.02-.01-.01-.02-.01-.01-.02-.01-.01-.02-.01-.01-.01-.02-.01-.01-.01-.02-.01h-.02l-.02-.01-.01-.01h-.04l-.02-.01h-.07l-.02.01h-.04l-.01.01-.02.01h-.02l-.02.01-.01.01-.02.01-.01.01-.02.01-.01.01-.01.02-.02.01-.01.01-.01.02-.01.01-.01.02-.01.01-.01.02v.02l-.01.02-.01.01v.04l-.01.02v.07l.01.02v.04l.01.01.01.02v.02l.01.02.01.01.01.02.01.01.01.02.01.01.02.01.01.02.01.01.02.01.01.01.02.01.01.01.02.01h.02l.02.01.01.01h.04l.02.01h.07l.02-.01h.04l.01-.01.02-.01h.02l.02-.01.01-.01.02-.01.01-.01.02-.01.01-.01.01-.02.02-.01.01-.01.01-.02.01-.01.01-.02.01-.01.01-.02v-.02l.01-.02.01-.01v-.04l.01-.02V10Z"/></g><g fill="none" stroke="currentColor" stroke-linecap="round" stroke-linejoin="round" stroke-width=".1" color="#000"><path fill="#000" stroke="none" d="M25.84 10v-.03l-.01-.02v-.04l-.01-.01-.01-.02v-.02l-.01-.02-.01-.01-.01-.02-.01-.01-.01-.02-.01-.01-.02-.01-.01-.02-.01-.01-.02-.01-.01-.01-.02-.01-.01-.01-.02-.01h-.02l-.02-.01-.01-.01h-.04l-.02-.01h-.07l-.02.01h-.04l-.01.01-.02.01h-.02l-.02.01-.01.01-.02.01-.01.01-.02.01-.01.01-.01.02-.02.01-.01.01-.01.02-.01.01-.01.02-.01.01-.01.02v.02l-.01.02-.01.01v.04l-.01.02v.07l.01.02v.04l.01.01.01.02v.02l.01.02.01.01.01.02.01.01.01.02.01.01.02.01.01.02.01.01.02.01.01.01.02.01.01.01.02.01h.02l.02.01.01.01h.04l.02.01h.07l.02-.01h.04l.01-.01.02-.01h.02l.02-.01.01-.01.02-.01.01-.01.02-.01.01-.01.01-.02.02-.01.01-.01.01-.02.01-.01.01-.02.01-.01.01-.02v-.02l.01-.02.01-.01v-.04l.01-.02v-.02z" shape-rendering="crispEdges"/><path stroke="#000" d="M25.84 10v-.03l-.01-.02v-.04l-.01-.01-.01-.02v-.02l-.01-.02-.01-.01-.01-.02-.01-.01-.01-.02-.01-.01-.02-.01-.01-.02-.01-.01-.02-.01-.01-.01-.02-.01-.01-.01-.02-.01h-.02l-.02-.01-.01-.01h-.04l-.02-.01h-.07l-.02.01h-.04l-.01.01-.02.01h-.02l-.02.01-.01.01-.02.01-.01.01-.02.01-.01.01-.01.02-.02.01-.01.01-.01.02-.01.01-.01.02-.01.01-.01.02v.02l-.01.02-.01.01v.04l-.01.02v.07l.01.02v.04l.01.01.01.02v.02l.01.02.01.01.01.02.01.01.01.02.01.01.02.01.01.02.01.01.02.01.01.01.02.01.01.01.02.01h.02l.02.01.01.01h.04l.02.01h.07l.02-.01h.04l.01-.01.02-.01h.02l.02-.01.01-.01.02-.01.01-.01.02-.01.01-.01.01-.02.02-.01.01-.01.01-.02.01-.01.01-.02.01-.01.01-.02v-.02l.01-.02.01-.01v-.04l.01-.02V10Z"/></g><g fill="none" stroke="currentColor" stroke-linecap="round" stroke-linejoin="round" stroke-width=".1" color="#000"><path fill="#000" stroke="none" d="M28.84 10v-.03l-.01-.02v-.04l-.01-.01-.01-.02v-.02l-.01-.02-.01-.01-.01-.02-.01-.01-.01-.02-.01-.01-.02-.01-.01-.02-.01-.01-.02-.01-.01-.01-.02-.01-.01-.01-.02-.01h-.02l-.02-.01-.01-.01h-.04l-.02-.01h-.07l-.02.01h-.04l-.01.01-.02.01h-.02l-.02.01-.01.01-.02.01-.01.01-.02.01-.01.01-.01.02-.02.01-.01.01-.01.02-.01.01-.01.02-.01.01-.01.02v.02l-.01.02-.01.01v.04l-.01.02v.07l.01.02v.04l.01.01.01.02v.02l.01.02.01.01.01.02.01.01.01.02.01.01.02.01.01.02.01.01.02.01.01.01.02.01.01.01.02.01h.02l.02.01.01.01h.04l.02.01h.07l.02-.01h.04l.01-.01.02-.01h.02l.02-.01.01-.01.02-.01.01-.01.02-.01.01-.01.01-.02.02-.01.01-.01.01-.02.01-.01.01-.02.01-.01.01-.02v-.02l.01-.02.01-.01v-.04l.01-.02v-.02z" shape-rendering="crispEdges"/><path stroke="#000" d="M28.84 10v-.03l-.01-.02v-.04l-.01-.01-.01-.02v-.02l-.01-.02-.01-.01-.01-.02-.01-.01-.01-.02-.01-.01-.02-.01-.01-.02-.01-.01-.02-.01-.01-.01-.02-.01-.01-.01-.02-.01h-.02l-.02-.01-.01-.01h-.04l-.02-.01h-.07l-.02.01h-.04l-.01.01-.02.01h-.02l-.02.01-.01.01-.02.01-.01.01-.02.01-.01.01-.01.02-.02.01-.01.01-.01.02-.01.01-.01.02-.01.01-.01.02v.02l-.01.02-.01.01v.04l-.01.02v.07l.01.02v.04l.01.01.01.02v.02l.01.02.01.01.01.02.01.01.01.02.01.01.02.01.01.02.01.01.02.01.01.01.02.01.01.01.02.01h.02l.02.01.01.01h.04l.02.01h.07l.02-.01h.04l.01-.01.02-.01h.02l.02-.01.01-.01.02-.01.01-.01.02-.01.01-.01.01-.02.02-.01.01-.01.01-.02.01-.01.01-.02.01-.01.01-.02v-.02l.01-.02.01-.01v-.04l.01-.02V10Z"/></g></svg>