<svg xmlns="http://www.w3.org/2000/svg" viewBox="0 0 36 18"><path fill="none" d="M0 0h36v18H0z"/><path fill="none" d="M0 18h.75m35.24 0h-.75M0 17h.75m35.24 0h-.75M0 16h.75m35.24 0h-.75M0 15h.75m35.24 0h-.75M0 14h.75m35.24 0h-.75M0 13h.75m35.24 0h-.75M0 12h.75m35.24 0h-.75M0 11h.75m35.24 0h-.75M0 10h.75m35.24 0h-.75M0 9h.75m35.24 0h-.75M0 8.01h.75m35.24 0h-.75M0 7.01h.75m35.24 0h-.75M0 6.01h.75m35.24 0h-.75M0 5.01h.75m35.24 0h-.75M0 4.01h.75m35.24 0h-.75M0 3.01h.75m35.24 0h-.75M0 2.01h.75m35.24 0h-.75M0 1.01h.75m35.24 0h-.75M0 .01h.75m35.24 0h-.75M0 18v-.75M0 .01v.75M1 18v-.75M1 .01v.75M2 18v-.75M2 .01v.75M3 18v-.75M3 .01v.75M4 18v-.75M4 .01v.75M5 18v-.75M5 .01v.75M6 18v-.75M6 .01v.75M7 18v-.75M7 .01v.75M8 18v-.75M8 .01v.75M9 18v-.75M9 .01v.75M10 18v-.75M10 .01v.75M11 18v-.75M11 .01v.75M12 18v-.75M12 .01v.75M13 18v-.75M13 .01v.75M14 18v-.75M14 .01v.75M15 18v-.75M15 .01v.75M16 18v-.75M16 .01v.75M17 18v-.75M17 .01v.75M18 18v-.75M18 .01v.75M18.99 18v-.75m0-17.24v.75m1 17.24v-.75m0-17.24v.75m1 17.24v-.75m0-17.24v.75m1 17.24v-.75m0-17.24v.75m1 17.24v-.75m0-17.24v.75m1 17.24v-.75m0-17.24v.75m1 17.24v-.75m0-17.24v.75m1 17.24v-.75m0-17.24v.75m1 17.24v-.75m0-17.24v.75m1 17.24v-.75m0-17.24v.75m1 17.24v-.75m0-17.24v.75m1 17.24v-.75m0-17.24v.75m1 17.24v-.75m0-17.24v.75m1 17.24v-.75m0-17.24v.75m1 17.24v-.75m0-17.24v.75m1 17.24v-.75m0-17.24v.75m1 17.24v-.75m0-17.24v.75m1 17.24v-.75m0-17.24v.75" color="#000"/><g fill="none" stroke="#2962FF" stroke-linecap="round" stroke-linejoin="round" stroke-width=".1" color="#000"><path d="m9.39 17.35.61-1.06.6 1.06H9.39Z"/>Z<path d="m9.39 17.35.61-1.06.6 1.06H9.39Z"/>Z</g><g fill="none" stroke="#2962FF" stroke-linecap="round" stroke-linejoin="round" stroke-width=".1" color="#000"><path d="M12.39 14.36 13 13.3l.6 1.06h-1.21Z"/>Z<path d="M12.39 14.36 13 13.3l.6 1.06h-1.21Z"/>Z</g><g fill="none" stroke="#2962FF" stroke-linecap="round" stroke-linejoin="round" stroke-width=".1" color="#000"><path d="M15.39 11.36 16 10.3l.6 1.06h-1.21Z"/>Z<path d="M15.39 11.36 16 10.3l.6 1.06h-1.21Z"/>Z</g><g fill="none" stroke="#EC6F1A" stroke-linecap="round" stroke-linejoin="round" stroke-width=".1" color="#000"><path d="m19.39 11.36.6-1.06.61 1.06h-1.21Z"/>Z<path d="m19.39 11.36.6-1.06.61 1.06h-1.21Z"/>Z</g><g fill="none" stroke="#EC6F1A" stroke-linecap="round" stroke-linejoin="round" stroke-width=".1" color="#000"><path d="m22.39 14.36.6-1.06.61 1.06h-1.21Z"/>Z<path d="m22.39 14.36.6-1.06.61 1.06h-1.21Z"/>Z</g><g fill="none" stroke="currentColor" stroke-linecap="round" stroke-linejoin="round" stroke-width=".1" color="#000"><path stroke="#EC6F1A" d="m25.39 17.35.6-1.06.61 1.06h-1.21Z"/>Z<path stroke="#EC6F1A" d="m25.39 17.35.6-1.06.61 1.06h-1.21Z"/>Z<text fill="#000" stroke="none" font-family="KaTeX_Typewriter" font-size="1" text-anchor="middle" transform="translate(18 3.34)"><tspan>D</tspan></text><text fill="#000" stroke="none" font-family="KaTeX_Typewriter" font-size="1" text-anchor="middle" transform="translate(7 14.33)"><tspan>A</tspan></text><text fill="#000" stroke="none" font-family="KaTeX_Typewriter" font-size="1" text-anchor="middle" transform="translate(10 11.33)"><tspan>B</tspan></text><text fill="#000" stroke="none" font-family="KaTeX_Typewriter" font-size="1" text-anchor="middle" transform="translate(13 8.34)"><tspan>C</tspan></text><text fill="#000" stroke="none" font-family="KaTeX_Typewriter" font-size="1" text-anchor="middle" transform="translate(22.99 8.34)"><tspan>E</tspan></text><text fill="#000" stroke="none" font-family="KaTeX_Typewriter" font-size="1" text-anchor="middle" transform="translate(25.99 11.33)"><tspan>F</tspan></text><text fill="#000" stroke="none" font-family="KaTeX_Typewriter" font-size="1" text-anchor="middle" transform="translate(28.99 14.33)"><tspan>G</tspan></text><text fill="#000" stroke="none" font-family="KaTeX_Typewriter" font-size="1" text-anchor="middle" transform="translate(4 17.33)"><tspan>HEAD</tspan></text><text fill="#000" stroke="none" font-family="KaTeX_Typewriter" font-size="1" text-anchor="middle" transform="translate(31.99 17.33)"><tspan>TAIL</tspan></text><text fill="#000" stroke="none" font-family="KaTeX_Typewriter" font-size="1" text-anchor="middle" transform="translate(18 1.34)"><tspan>ROOT</tspan></text><path fill="#000" stroke="none" d="m9.05 11.95-.12-.12.33-.09-.09.33-.12-.12z" shape-rendering="crispEdges"/><path stroke="#000" d="m9.05 11.95-.12-.12.33-.09-.09.33-.12-.12Zm-1.29 1.29 1.29-1.29"/><path fill="#000" stroke="none" d="m12.05 8.96-.12-.13.33-.08-.09.33-.12-.12z" shape-rendering="crispEdges"/><path stroke="#000" d="m12.05 8.96-.12-.13.33-.08-.09.33-.12-.12Zm-1.29 1.28 1.29-1.28"/><path fill="#000" stroke="none" d="m23.96 8.96-.12.12-.09-.33.33.08-.12.13z" shape-rendering="crispEdges"/><path stroke="#000" d="m23.96 8.96-.12.12-.09-.33.33.08-.12.13Zm1.29 1.28-1.29-1.28"/><path fill="#000" stroke="none" d="m26.96 11.95-.12.12-.09-.33.33.09-.12.12z" shape-rendering="crispEdges"/><path stroke="#000" d="m26.96 11.95-.12.12-.09-.33.33.09-.12.12Zm1.29 1.29-1.29-1.29"/><path fill="#2962FF" stroke="none" d="m15.05 10.03.12-.12.09.33-.33-.08.12-.13z" shape-rendering="crispEdges"/><path stroke="#2962FF" d="m15.05 10.03.12-.12.09.33-.33-.08.12-.13Zm-1.29-1.28 1.29 1.28"/><path fill="#2962FF" stroke="none" d="m12.05 13.03.12-.12.09.33-.33-.09.12-.12z" shape-rendering="crispEdges"/><path stroke="#2962FF" d="m12.05 13.03.12-.12.09.33-.33-.09.12-.12Zm-1.29-1.29 1.29 1.29"/><path fill="#2962FF" stroke="none" d="m9.05 16.03.12-.12.09.33-.33-.09.12-.12z" shape-rendering="crispEdges"/><path stroke="#2962FF" d="m9.05 16.03.12-.12.09.33-.33-.09.12-.12Zm-1.29-1.29 1.29 1.29"/><path fill="#EC6F1A" stroke="none" d="m20.96 10.03.12.13-.33.08.09-.33.12.12z" shape-rendering="crispEdges"/><path stroke="#EC6F1A" d="m20.96 10.03.12.13-.33.08.09-.33.12.12Zm1.29-1.28-1.29 1.28"/><path fill="#EC6F1A" stroke="none" d="m23.96 13.03.12.12-.33.09.09-.33.12.12z" shape-rendering="crispEdges"/><path stroke="#EC6F1A" d="m23.96 13.03.12.12-.33.09.09-.33.12.12Zm1.29-1.29-1.29 1.29"/><path fill="#EC6F1A" stroke="none" d="m26.96 16.03.12.12-.33.09.09-.33.12.12z" shape-rendering="crispEdges"/><path stroke="#EC6F1A" d="m26.96 16.03.12.12-.33.09.09-.33.12.12Zm1.29-1.29-1.29 1.29"/><path stroke="#000" stroke-dasharray="0.1,0.2" d="m13.76 7.25 3.5-3.5m4.99 3.5-3.5-3.5"/><path fill="#000" stroke="none" d="m6.05 14.95-.12-.12.33-.09-.09.33-.12-.12z" shape-rendering="crispEdges"/><path stroke="#000" d="m6.05 14.95-.12-.12.33-.09-.09.33-.12-.12Zm-1.29 1.29 1.29-1.29"/><path fill="#000" stroke="none" d="m29.96 14.95-.12.12-.09-.33.33.09-.12.12z" shape-rendering="crispEdges"/><path stroke="#000" d="m29.96 14.95-.12.12-.09-.33.33.09-.12.12Zm1.29 1.29-1.29-1.29"/></g><g fill="none" stroke="#29C3F6" stroke-linecap="round" stroke-linejoin="round" stroke-width=".1" color="#000"><path d="M18.7 3.01v-.07l-.01-.04v-.03l-.01-.04-.01-.03-.02-.04-.01-.03-.02-.04-.01-.03-.02-.03-.02-.03-.03-.03-.02-.03-.03-.02-.02-.03-.03-.02-.03-.03-.03-.02-.03-.02-.03-.01-.04-.02-.03-.01-.04-.02-.03-.01-.04-.01h-.03l-.04-.01h-.15l-.04.01h-.03l-.04.01-.03.01-.04.02-.03.01-.04.02-.03.01-.03.02-.03.02-.03.03-.03.02-.02.03-.03.02-.02.03-.03.03-.02.03-.02.03-.01.03-.02.04-.01.03-.02.04-.01.03-.01.04v.03l-.01.04v.15l.01.04v.03l.01.04.01.03.02.04.01.03.02.04.01.03.02.03.02.03.03.03.02.03.03.02.02.03.03.02.03.03.03.02.03.02.03.01.04.02.03.01.04.02.03.01.04.01h.03l.04.01h.15l.04-.01h.03l.04-.01.03-.01.04-.02.03-.01.04-.02.03-.01.03-.02.03-.02.03-.03.03-.02.02-.03.03-.02.02-.03.03-.03.02-.03.02-.03.01-.03.02-.04.01-.03.02-.04.01-.03.01-.04v-.03l.01-.04v-.08Z"/><path d="M18.7 3.01v-.07l-.01-.04v-.03l-.01-.04-.01-.03-.02-.04-.01-.03-.02-.04-.01-.03-.02-.03-.02-.03-.03-.03-.02-.03-.03-.02-.02-.03-.03-.02-.03-.03-.03-.02-.03-.02-.03-.01-.04-.02-.03-.01-.04-.02-.03-.01-.04-.01h-.03l-.04-.01h-.15l-.04.01h-.03l-.04.01-.03.01-.04.02-.03.01-.04.02-.03.01-.03.02-.03.02-.03.03-.03.02-.02.03-.03.02-.02.03-.03.03-.02.03-.02.03-.01.03-.02.04-.01.03-.02.04-.01.03-.01.04v.03l-.01.04v.15l.01.04v.03l.01.04.01.03.02.04.01.03.02.04.01.03.02.03.02.03.03.03.02.03.03.02.02.03.03.02.03.03.03.02.03.02.03.01.04.02.03.01.04.02.03.01.04.01h.03l.04.01h.15l.04-.01h.03l.04-.01.03-.01.04-.02.03-.01.04-.02.03-.01.03-.02.03-.02.03-.03.03-.02.02-.03.03-.02.02-.03.03-.03.02-.03.02-.03.01-.03.02-.04.01-.03.02-.04.01-.03.01-.04v-.03l.01-.04v-.08Z"/></g><g fill="none" stroke="#2962FF" stroke-linecap="round" stroke-linejoin="round" stroke-width=".1" color="#000"><path d="M13.7 8.01v-.07l-.01-.04v-.03l-.01-.04-.01-.03-.02-.04-.01-.03-.02-.04-.01-.03-.02-.03-.02-.03-.03-.03-.02-.03-.03-.02-.02-.03-.03-.02-.03-.03-.03-.02-.03-.02-.03-.01-.04-.02-.03-.01-.04-.02-.03-.01-.04-.01h-.03l-.04-.01h-.15l-.04.01h-.03l-.04.01-.03.01-.04.02-.03.01-.04.02-.03.01-.03.02-.03.02-.03.03-.03.02-.02.03-.03.02-.02.03-.03.03-.02.03-.02.03-.01.03-.02.04-.01.03-.02.04-.01.03-.01.04v.03l-.01.04v.15l.01.04v.03l.01.04.01.03.02.04.01.03.02.04.01.03.02.03.02.03.03.03.02.03.03.02.02.03.03.02.03.03.03.02.03.02.03.01.04.02.03.01.04.02.03.01.04.01h.03l.04.01h.15l.04-.01h.03l.04-.01.03-.01.04-.02.03-.01.04-.02.03-.01.03-.02.03-.02.03-.03.03-.02.02-.03.03-.02.02-.03.03-.03.02-.03.02-.03.01-.03.02-.04.01-.03.02-.04.01-.03.01-.04v-.03l.01-.04v-.08Z"/><path d="M13.7 8.01v-.07l-.01-.04v-.03l-.01-.04-.01-.03-.02-.04-.01-.03-.02-.04-.01-.03-.02-.03-.02-.03-.03-.03-.02-.03-.03-.02-.02-.03-.03-.02-.03-.03-.03-.02-.03-.02-.03-.01-.04-.02-.03-.01-.04-.02-.03-.01-.04-.01h-.03l-.04-.01h-.15l-.04.01h-.03l-.04.01-.03.01-.04.02-.03.01-.04.02-.03.01-.03.02-.03.02-.03.03-.03.02-.02.03-.03.02-.02.03-.03.03-.02.03-.02.03-.01.03-.02.04-.01.03-.02.04-.01.03-.01.04v.03l-.01.04v.15l.01.04v.03l.01.04.01.03.02.04.01.03.02.04.01.03.02.03.02.03.03.03.02.03.03.02.02.03.03.02.03.03.03.02.03.02.03.01.04.02.03.01.04.02.03.01.04.01h.03l.04.01h.15l.04-.01h.03l.04-.01.03-.01.04-.02.03-.01.04-.02.03-.01.03-.02.03-.02.03-.03.03-.02.02-.03.03-.02.02-.03.03-.03.02-.03.02-.03.01-.03.02-.04.01-.03.02-.04.01-.03.01-.04v-.03l.01-.04v-.08Z"/></g><g fill="none" stroke="#2962FF" stroke-linecap="round" stroke-linejoin="round" stroke-width=".1" color="#000"><path d="M10.7 11v-.07l-.01-.04v-.03l-.01-.04-.01-.03-.02-.04-.01-.03-.02-.04-.01-.03-.02-.03-.02-.03-.03-.03-.02-.03-.03-.02-.02-.03-.03-.02-.03-.03-.03-.02-.03-.02-.03-.01-.04-.02-.03-.01-.04-.02-.03-.01-.04-.01h-.03l-.04-.01h-.15l-.04.01h-.03l-.04.01-.03.01-.04.02-.03.01-.04.02-.03.01-.03.02-.03.02-.03.03-.03.02-.02.03-.03.02-.02.03-.03.03-.02.03-.02.03-.01.03-.02.04-.01.03-.02.04-.01.03-.01.04v.03l-.01.04v.15l.01.04v.03l.01.04.01.03.02.04.01.03.02.04.01.03.02.03.02.03.03.03.02.03.03.02.02.03.03.02.03.03.03.02.03.02.03.01.04.02.03.01.04.02.03.01.04.01h.03l.04.01h.15l.04-.01h.03l.04-.01.03-.01.04-.02.03-.01.04-.02.03-.01.03-.02.03-.02.03-.03.03-.02.02-.03.03-.02.02-.03.03-.03.02-.03.02-.03.01-.03.02-.04.01-.03.02-.04.01-.03.01-.04v-.03l.01-.04V11Z"/><path d="M10.7 11v-.07l-.01-.04v-.03l-.01-.04-.01-.03-.02-.04-.01-.03-.02-.04-.01-.03-.02-.03-.02-.03-.03-.03-.02-.03-.03-.02-.02-.03-.03-.02-.03-.03-.03-.02-.03-.02-.03-.01-.04-.02-.03-.01-.04-.02-.03-.01-.04-.01h-.03l-.04-.01h-.15l-.04.01h-.03l-.04.01-.03.01-.04.02-.03.01-.04.02-.03.01-.03.02-.03.02-.03.03-.03.02-.02.03-.03.02-.02.03-.03.03-.02.03-.02.03-.01.03-.02.04-.01.03-.02.04-.01.03-.01.04v.03l-.01.04v.15l.01.04v.03l.01.04.01.03.02.04.01.03.02.04.01.03.02.03.02.03.03.03.02.03.03.02.02.03.03.02.03.03.03.02.03.02.03.01.04.02.03.01.04.02.03.01.04.01h.03l.04.01h.15l.04-.01h.03l.04-.01.03-.01.04-.02.03-.01.04-.02.03-.01.03-.02.03-.02.03-.03.03-.02.02-.03.03-.02.02-.03.03-.03.02-.03.02-.03.01-.03.02-.04.01-.03.02-.04.01-.03.01-.04v-.03l.01-.04V11Z"/></g><g fill="none" stroke="#2962FF" stroke-linecap="round" stroke-linejoin="round" stroke-width=".1" color="#000"><path d="M7.7 14v-.07l-.01-.04v-.03l-.01-.04-.01-.03-.02-.04-.01-.03-.02-.04-.01-.03-.02-.03-.02-.03-.03-.03-.02-.03-.03-.02-.02-.03-.03-.02-.03-.03-.03-.02-.03-.02-.03-.01-.04-.02-.03-.01-.04-.02-.03-.01-.04-.01h-.03l-.04-.01h-.15l-.04.01h-.03l-.04.01-.03.01-.04.02-.03.01-.04.02-.03.01-.03.02-.03.02-.03.03-.03.02-.02.03-.03.02-.02.03-.03.03-.02.03-.02.03-.01.03-.02.04-.01.03-.02.04-.01.03-.01.04v.03l-.01.04v.15l.01.04v.03l.01.04.01.03.02.04.01.03.02.04.01.03.02.03.02.03.03.03.02.03.03.02.02.03.03.02.03.03.03.02.03.02.03.01.04.02.03.01.04.02.03.01.04.01h.03l.04.01h.15l.04-.01h.03l.04-.01.03-.01.04-.02.03-.01.04-.02.03-.01.03-.02.03-.02.03-.03.03-.02.02-.03.03-.02.02-.03.03-.03.02-.03.02-.03.01-.03.02-.04.01-.03.02-.04.01-.03.01-.04v-.03l.01-.04V14Z"/><path d="M7.7 14v-.07l-.01-.04v-.03l-.01-.04-.01-.03-.02-.04-.01-.03-.02-.04-.01-.03-.02-.03-.02-.03-.03-.03-.02-.03-.03-.02-.02-.03-.03-.02-.03-.03-.03-.02-.03-.02-.03-.01-.04-.02-.03-.01-.04-.02-.03-.01-.04-.01h-.03l-.04-.01h-.15l-.04.01h-.03l-.04.01-.03.01-.04.02-.03.01-.04.02-.03.01-.03.02-.03.02-.03.03-.03.02-.02.03-.03.02-.02.03-.03.03-.02.03-.02.03-.01.03-.02.04-.01.03-.02.04-.01.03-.01.04v.03l-.01.04v.15l.01.04v.03l.01.04.01.03.02.04.01.03.02.04.01.03.02.03.02.03.03.03.02.03.03.02.02.03.03.02.03.03.03.02.03.02.03.01.04.02.03.01.04.02.03.01.04.01h.03l.04.01h.15l.04-.01h.03l.04-.01.03-.01.04-.02.03-.01.04-.02.03-.01.03-.02.03-.02.03-.03.03-.02.02-.03.03-.02.02-.03.03-.03.02-.03.02-.03.01-.03.02-.04.01-.03.02-.04.01-.03.01-.04v-.03l.01-.04V14Z"/></g><g fill="none" stroke="#EC6F1A" stroke-linecap="round" stroke-linejoin="round" stroke-width=".1" color="#000"><path d="M23.69 8.01v-.07l-.01-.04v-.03l-.01-.04-.01-.03-.02-.04-.01-.03-.02-.04-.01-.03-.02-.03-.02-.03-.03-.03-.02-.03-.03-.02-.02-.03-.03-.02-.03-.03-.03-.02-.03-.02-.03-.01-.04-.02-.03-.01-.04-.02-.03-.01-.04-.01h-.03l-.04-.01h-.15l-.04.01h-.03l-.04.01-.03.01-.04.02-.03.01-.04.02-.03.01-.03.02-.03.02-.03.03-.03.02-.02.03-.03.02-.02.03-.03.03-.02.03-.02.03-.01.03-.02.04-.01.03-.02.04-.01.03-.01.04v.03l-.01.04v.15l.01.04v.03l.01.04.01.03.02.04.01.03.02.04.01.03.02.03.02.03.03.03.02.03.03.02.02.03.03.02.03.03.03.02.03.02.03.01.04.02.03.01.04.02.03.01.04.01h.03l.04.01h.15l.04-.01h.03l.04-.01.03-.01.04-.02.03-.01.04-.02.03-.01.03-.02.03-.02.03-.03.03-.02.02-.03.03-.02.02-.03.03-.03.02-.03.02-.03.01-.03.02-.04.01-.03.02-.04.01-.03.01-.04v-.03l.01-.04v-.08Z"/><path d="M23.69 8.01v-.07l-.01-.04v-.03l-.01-.04-.01-.03-.02-.04-.01-.03-.02-.04-.01-.03-.02-.03-.02-.03-.03-.03-.02-.03-.03-.02-.02-.03-.03-.02-.03-.03-.03-.02-.03-.02-.03-.01-.04-.02-.03-.01-.04-.02-.03-.01-.04-.01h-.03l-.04-.01h-.15l-.04.01h-.03l-.04.01-.03.01-.04.02-.03.01-.04.02-.03.01-.03.02-.03.02-.03.03-.03.02-.02.03-.03.02-.02.03-.03.03-.02.03-.02.03-.01.03-.02.04-.01.03-.02.04-.01.03-.01.04v.03l-.01.04v.15l.01.04v.03l.01.04.01.03.02.04.01.03.02.04.01.03.02.03.02.03.03.03.02.03.03.02.02.03.03.02.03.03.03.02.03.02.03.01.04.02.03.01.04.02.03.01.04.01h.03l.04.01h.15l.04-.01h.03l.04-.01.03-.01.04-.02.03-.01.04-.02.03-.01.03-.02.03-.02.03-.03.03-.02.02-.03.03-.02.02-.03.03-.03.02-.03.02-.03.01-.03.02-.04.01-.03.02-.04.01-.03.01-.04v-.03l.01-.04v-.08Z"/></g><g fill="none" stroke="#EC6F1A" stroke-linecap="round" stroke-linejoin="round" stroke-width=".1" color="#000"><path d="M26.69 11v-.07l-.01-.04v-.03l-.01-.04-.01-.03-.02-.04-.01-.03-.02-.04-.01-.03-.02-.03-.02-.03-.03-.03-.02-.03-.03-.02-.02-.03-.03-.02-.03-.03-.03-.02-.03-.02-.03-.01-.04-.02-.03-.01-.04-.02-.03-.01-.04-.01h-.03l-.04-.01h-.15l-.04.01h-.03l-.04.01-.03.01-.04.02-.03.01-.04.02-.03.01-.03.02-.03.02-.03.03-.03.02-.02.03-.03.02-.02.03-.03.03-.02.03-.02.03-.01.03-.02.04-.01.03-.02.04-.01.03-.01.04v.03l-.01.04v.15l.01.04v.03l.01.04.01.03.02.04.01.03.02.04.01.03.02.03.02.03.03.03.02.03.03.02.02.03.03.02.03.03.03.02.03.02.03.01.04.02.03.01.04.02.03.01.04.01h.03l.04.01h.15l.04-.01h.03l.04-.01.03-.01.04-.02.03-.01.04-.02.03-.01.03-.02.03-.02.03-.03.03-.02.02-.03.03-.02.02-.03.03-.03.02-.03.02-.03.01-.03.02-.04.01-.03.02-.04.01-.03.01-.04v-.03l.01-.04V11Z"/><path d="M26.69 11v-.07l-.01-.04v-.03l-.01-.04-.01-.03-.02-.04-.01-.03-.02-.04-.01-.03-.02-.03-.02-.03-.03-.03-.02-.03-.03-.02-.02-.03-.03-.02-.03-.03-.03-.02-.03-.02-.03-.01-.04-.02-.03-.01-.04-.02-.03-.01-.04-.01h-.03l-.04-.01h-.15l-.04.01h-.03l-.04.01-.03.01-.04.02-.03.01-.04.02-.03.01-.03.02-.03.02-.03.03-.03.02-.02.03-.03.02-.02.03-.03.03-.02.03-.02.03-.01.03-.02.04-.01.03-.02.04-.01.03-.01.04v.03l-.01.04v.15l.01.04v.03l.01.04.01.03.02.04.01.03.02.04.01.03.02.03.02.03.03.03.02.03.03.02.02.03.03.02.03.03.03.02.03.02.03.01.04.02.03.01.04.02.03.01.04.01h.03l.04.01h.15l.04-.01h.03l.04-.01.03-.01.04-.02.03-.01.04-.02.03-.01.03-.02.03-.02.03-.03.03-.02.02-.03.03-.02.02-.03.03-.03.02-.03.02-.03.01-.03.02-.04.01-.03.02-.04.01-.03.01-.04v-.03l.01-.04V11Z"/></g><g fill="none" stroke="#EC6F1A" stroke-linecap="round" stroke-linejoin="round" stroke-width=".1" color="#000"><path d="M29.69 14v-.07l-.01-.04v-.03l-.01-.04-.01-.03-.02-.04-.01-.03-.02-.04-.01-.03-.02-.03-.02-.03-.03-.03-.02-.03-.03-.02-.02-.03-.03-.02-.03-.03-.03-.02-.03-.02-.03-.01-.04-.02-.03-.01-.04-.02-.03-.01-.04-.01h-.03l-.04-.01h-.15l-.04.01h-.03l-.04.01-.03.01-.04.02-.03.01-.04.02-.03.01-.03.02-.03.02-.03.03-.03.02-.02.03-.03.02-.02.03-.03.03-.02.03-.02.03-.01.03-.02.04-.01.03-.02.04-.01.03-.01.04v.03l-.01.04v.15l.01.04v.03l.01.04.01.03.02.04.01.03.02.04.01.03.02.03.02.03.03.03.02.03.03.02.02.03.03.02.03.03.03.02.03.02.03.01.04.02.03.01.04.02.03.01.04.01h.03l.04.01h.15l.04-.01h.03l.04-.01.03-.01.04-.02.03-.01.04-.02.03-.01.03-.02.03-.02.03-.03.03-.02.02-.03.03-.02.02-.03.03-.03.02-.03.02-.03.01-.03.02-.04.01-.03.02-.04.01-.03.01-.04v-.03l.01-.04V14Z"/><path d="M29.69 14v-.07l-.01-.04v-.03l-.01-.04-.01-.03-.02-.04-.01-.03-.02-.04-.01-.03-.02-.03-.02-.03-.03-.03-.02-.03-.03-.02-.02-.03-.03-.02-.03-.03-.03-.02-.03-.02-.03-.01-.04-.02-.03-.01-.04-.02-.03-.01-.04-.01h-.03l-.04-.01h-.15l-.04.01h-.03l-.04.01-.03.01-.04.02-.03.01-.04.02-.03.01-.03.02-.03.02-.03.03-.03.02-.02.03-.03.02-.02.03-.03.03-.02.03-.02.03-.01.03-.02.04-.01.03-.02.04-.01.03-.01.04v.03l-.01.04v.15l.01.04v.03l.01.04.01.03.02.04.01.03.02.04.01.03.02.03.02.03.03.03.02.03.03.02.02.03.03.02.03.03.03.02.03.02.03.01.04.02.03.01.04.02.03.01.04.01h.03l.04.01h.15l.04-.01h.03l.04-.01.03-.01.04-.02.03-.01.04-.02.03-.01.03-.02.03-.02.03-.03.03-.02.02-.03.03-.02.02-.03.03-.03.02-.03.02-.03.01-.03.02-.04.01-.03.02-.04.01-.03.01-.04v-.03l.01-.04V14Z"/></g></svg>