<svg xmlns="http://www.w3.org/2000/svg" viewBox="0 0 53 14"><path fill="none" d="M0 0h53v14H0z"/><path fill="none" d="M0 14h.75m52.24 0h-.75M0 13h.75m52.24 0h-.75M0 12h.75m52.24 0h-.75M0 11h.75m52.24 0h-.75M0 10h.75m52.24 0h-.75M0 9h.75m52.24 0h-.75M0 8h.75m52.24 0h-.75M0 7h.75m52.24 0h-.75M0 6.01h.75m52.24 0h-.75M0 5.01h.75m52.24 0h-.75M0 4.01h.75m52.24 0h-.75M0 3.01h.75m52.24 0h-.75M0 2.01h.75m52.24 0h-.75M0 1.01h.75m52.24 0h-.75M0 .01h.75m52.24 0h-.75M0 14v-.75M0 .01v.75M1 14v-.75M1 .01v.75M2 14v-.75M2 .01v.75M3 14v-.75M3 .01v.75M4 14v-.75M4 .01v.75M5 14v-.75M5 .01v.75M6 14v-.75M6 .01v.75M7 14v-.75M7 .01v.75M8 14v-.75M8 .01v.75M9 14v-.75M9 .01v.75M10 14v-.75M10 .01v.75M11 14v-.75M11 .01v.75M12 14v-.75M12 .01v.75M13 14v-.75M13 .01v.75M14 14v-.75M14 .01v.75M15 14v-.75M15 .01v.75M16 14v-.75M16 .01v.75M17 14v-.75M17 .01v.75M18 14v-.75M18 .01v.75M19 14v-.75M19 .01v.75M20 14v-.75M20 .01v.75M21 14v-.75M21 .01v.75M22 14v-.75M22 .01v.75M23 14v-.75M23 .01v.75M24 14v-.75M24 .01v.75M25 14v-.75M25 .01v.75M26 14v-.75M26 .01v.75M26.99 14v-.75m0-13.24v.75m1 13.24v-.75m0-13.24v.75m1 13.24v-.75m0-13.24v.75m1 13.24v-.75m0-13.24v.75m1 13.24v-.75m0-13.24v.75m1 13.24v-.75m0-13.24v.75m1 13.24v-.75m0-13.24v.75m1 13.24v-.75m0-13.24v.75m1 13.24v-.75m0-13.24v.75m1 13.24v-.75m0-13.24v.75m1 13.24v-.75m0-13.24v.75m1 13.24v-.75m0-13.24v.75m1 13.24v-.75m0-13.24v.75m1 13.24v-.75m0-13.24v.75m1 13.24v-.75m0-13.24v.75m1 13.24v-.75m0-13.24v.75m1 13.24v-.75m0-13.24v.75m1 13.24v-.75m0-13.24v.75m1 13.24v-.75m0-13.24v.75m1 13.24v-.75m0-13.24v.75m1 13.24v-.75m0-13.24v.75m1 13.24v-.75m0-13.24v.75m1 13.24v-.75m0-13.24v.75m1 13.24v-.75m0-13.24v.75m1 13.24v-.75m0-13.24v.75m1 13.24v-.75m0-13.24v.75m1 13.24v-.75m0-13.24v.75" color="#000"/><g fill="none" stroke="currentColor" stroke-linecap="round" stroke-linejoin="round" stroke-width=".1" color="#000"><path stroke="#2962FF" d="M14.5 13.5v-.99h.99v.99h-.99Z"/><path stroke="#000" d="m12.01 1-6 3"/><path fill="#2962FF" stroke="none" d="m16.79 3.39.08-.16.19.29-.34.02.07-.15z" shape-rendering="crispEdges"/><path stroke="#2962FF" d="m16.79 3.39.08-.16.19.29-.34.02.07-.15Zm-3.83-1.92 3.83 1.92"/><path stroke="#000" d="m6.01 4-3 2.99m3-2.99 3 2.99"/><path fill="#2962FF" stroke="none" d="m15.97 6.04.12.12-.33.09.09-.33.12.12z" shape-rendering="crispEdges"/><path stroke="#2962FF" d="m15.97 6.04.12.12-.33.09.09-.33.12.12Zm1.29-1.29-1.29 1.29"/><path stroke="#000" d="m18.01 4 3 2.99m-18 0-1.5 3m1.5-3 1.5 3m4.5-3-1.5 3m1.5-3 1.5 3"/><path fill="#2962FF" stroke="none" d="m14.11 8.77.16.08-.29.19-.02-.34.15.07z" shape-rendering="crispEdges"/><path stroke="#2962FF" d="m14.11 8.77.16.08-.29.19-.02-.34.15.07Zm.42-.83-.42.83"/><path stroke="#000" d="m15.01 6.99 1.5 3m4.5-3-1.5 3m1.5-3 1.5 3"/><path fill="#2962FF" stroke="none" d="m14.4 11.77.15-.07-.02.34-.29-.19.16-.08z" shape-rendering="crispEdges"/><path stroke="#2962FF" d="m14.4 11.77.15-.07-.02.34-.29-.19.16-.08Zm-.42-.83.42.83"/><path stroke="#000" d="m42 1-6 3"/><path stroke="#2962FF" stroke-dasharray="0.4,0.2,0.1,0.2" d="m42 1 6 3"/><path stroke="#000" d="m36 4-3 2.99M36 4l3 2.99"/><path stroke="#2962FF" stroke-dasharray="0.4,0.2,0.1,0.2" d="m48 4-3 2.99"/><path stroke="#000" d="m48 4 3 2.99m-18 0-1.5 3m1.5-3 1.5 3m4.5-3-1.5 3m1.5-3 1.5 3"/><path stroke="#2962FF" stroke-dasharray="0.4,0.2,0.1,0.2" d="m45 6.99-1.5 3"/><path stroke="#000" d="m45 6.99 1.5 3m4.5-3-1.5 3m1.5-3 1.5 3"/><path stroke="#2962FF" stroke-dasharray="0.4,0.2,0.1,0.2" d="m43.5 9.99 1.5 3"/></g><g fill="none" stroke="currentColor" stroke-linecap="round" stroke-linejoin="round" stroke-width=".1" color="#000"><path fill="#2962FF" stroke="none" d="M12.35 1.01V.98l-.01-.02V.92l-.01-.01V.89l-.01-.02-.01-.02-.01-.01-.01-.02-.01-.01-.01-.02-.01-.01-.02-.01-.01-.02-.01-.01-.02-.01-.01-.01-.02-.01-.01-.01-.02-.01-.02-.01h-.02l-.01-.01h-.04l-.02-.01h-.07l-.02.01h-.04l-.01.01h-.02l-.02.01-.02.01-.01.01-.02.01-.01.01-.02.01-.01.01-.01.02-.02.01-.01.01-.01.02-.01.01-.01.02-.01.01-.01.02-.01.02v.02l-.01.01v.04l-.01.02v.07l.01.02v.04l.01.01v.02l.01.02.01.02.01.01.01.02.01.01.01.02.01.01.02.01.01.02.01.01.02.01.01.01.02.01.01.01.02.01.02.01h.02l.01.01h.04l.02.01h.07l.02-.01h.04l.01-.01h.02l.02-.01.02-.01.01-.01.02-.01.01-.01.02-.01.01-.01.01-.02.02-.01.01-.01.01-.02.01-.01.01-.02.01-.01.01-.02.01-.02v-.02l.01-.01v-.04l.01-.02v-.02z" shape-rendering="crispEdges"/><path stroke="#2962FF" d="M12.35 1.01V.98l-.01-.02V.92l-.01-.01V.89l-.01-.02-.01-.02-.01-.01-.01-.02-.01-.01-.01-.02-.01-.01-.02-.01-.01-.02-.01-.01-.02-.01-.01-.01-.02-.01-.01-.01-.02-.01-.02-.01h-.02l-.01-.01h-.04l-.02-.01h-.07l-.02.01h-.04l-.01.01h-.02l-.02.01-.02.01-.01.01-.02.01-.01.01-.02.01-.01.01-.01.02-.02.01-.01.01-.01.02-.01.01-.01.02-.01.01-.01.02-.01.02v.02l-.01.01v.04l-.01.02v.07l.01.02v.04l.01.01v.02l.01.02.01.02.01.01.01.02.01.01.01.02.01.01.02.01.01.02.01.01.02.01.01.01.02.01.01.01.02.01.02.01h.02l.01.01h.04l.02.01h.07l.02-.01h.04l.01-.01h.02l.02-.01.02-.01.01-.01.02-.01.01-.01.02-.01.01-.01.01-.02.02-.01.01-.01.01-.02.01-.01.01-.02.01-.01.01-.02.01-.02v-.02l.01-.01v-.04l.01-.02v-.04Z"/></g><g fill="none" stroke="currentColor" stroke-linecap="round" stroke-linejoin="round" stroke-width=".1" color="#000"><path fill="#000" stroke="none" d="M6.35 4.01v-.03l-.01-.02v-.04l-.01-.01v-.02l-.01-.02-.01-.02-.01-.01-.01-.02-.01-.01-.01-.02-.01-.01-.02-.01-.01-.02-.01-.01-.02-.01-.01-.01-.02-.01-.01-.01-.02-.01-.02-.01H6.1l-.01-.01h-.04l-.02-.01h-.07l-.02.01H5.9l-.01.01h-.02l-.02.01-.02.01-.01.01-.02.01-.01.01-.02.01-.01.01-.01.02-.02.01-.01.01-.01.02-.01.01-.01.02-.01.01-.01.02-.01.02v.02l-.01.01v.04l-.01.02v.07l.01.02v.04l.01.01v.02l.01.02.01.02.01.01.01.02.01.01.01.02.01.01.02.01.01.02.01.01.02.01.01.01.02.01.01.01.02.01.02.01h.02l.01.01h.04l.02.01h.07l.02-.01h.04l.01-.01h.02l.02-.01.02-.01.01-.01.02-.01.01-.01.02-.01.01-.01.01-.02.02-.01.01-.01.01-.02.01-.01.01-.02.01-.01.01-.02.01-.02v-.02l.01-.01v-.04l.01-.02v-.02z" shape-rendering="crispEdges"/><path stroke="#000" d="M6.35 4.01v-.03l-.01-.02v-.04l-.01-.01v-.02l-.01-.02-.01-.02-.01-.01-.01-.02-.01-.01-.01-.02-.01-.01-.02-.01-.01-.02-.01-.01-.02-.01-.01-.01-.02-.01-.01-.01-.02-.01-.02-.01H6.1l-.01-.01h-.04l-.02-.01h-.07l-.02.01H5.9l-.01.01h-.02l-.02.01-.02.01-.01.01-.02.01-.01.01-.02.01-.01.01-.01.02-.02.01-.01.01-.01.02-.01.01-.01.02-.01.01-.01.02-.01.02v.02l-.01.01v.04l-.01.02v.07l.01.02v.04l.01.01v.02l.01.02.01.02.01.01.01.02.01.01.01.02.01.01.02.01.01.02.01.01.02.01.01.01.02.01.01.01.02.01.02.01h.02l.01.01h.04l.02.01h.07l.02-.01h.04l.01-.01h.02l.02-.01.02-.01.01-.01.02-.01.01-.01.02-.01.01-.01.01-.02.02-.01.01-.01.01-.02.01-.01.01-.02.01-.01.01-.02.01-.02v-.02l.01-.01v-.04l.01-.02v-.04Z"/></g><g fill="none" stroke="currentColor" stroke-linecap="round" stroke-linejoin="round" stroke-width=".1" color="#000"><path fill="#2962FF" stroke="none" d="M18.35 4.01v-.03l-.01-.02v-.04l-.01-.01v-.02l-.01-.02-.01-.02-.01-.01-.01-.02-.01-.01-.01-.02-.01-.01-.02-.01-.01-.02-.01-.01-.02-.01-.01-.01-.02-.01-.01-.01-.02-.01-.02-.01h-.02l-.01-.01h-.04l-.02-.01h-.07l-.02.01h-.04l-.01.01h-.02l-.02.01-.02.01-.01.01-.02.01-.01.01-.02.01-.01.01-.01.02-.02.01-.01.01-.01.02-.01.01-.01.02-.01.01-.01.02-.01.02v.02l-.01.01v.04l-.01.02v.07l.01.02v.04l.01.01v.02l.01.02.01.02.01.01.01.02.01.01.01.02.01.01.02.01.01.02.01.01.02.01.01.01.02.01.01.01.02.01.02.01h.02l.01.01h.04l.02.01h.07l.02-.01h.04l.01-.01h.02l.02-.01.02-.01.01-.01.02-.01.01-.01.02-.01.01-.01.01-.02.02-.01.01-.01.01-.02.01-.01.01-.02.01-.01.01-.02.01-.02v-.02l.01-.01v-.04l.01-.02v-.02z" shape-rendering="crispEdges"/><path stroke="#2962FF" d="M18.35 4.01v-.03l-.01-.02v-.04l-.01-.01v-.02l-.01-.02-.01-.02-.01-.01-.01-.02-.01-.01-.01-.02-.01-.01-.02-.01-.01-.02-.01-.01-.02-.01-.01-.01-.02-.01-.01-.01-.02-.01-.02-.01h-.02l-.01-.01h-.04l-.02-.01h-.07l-.02.01h-.04l-.01.01h-.02l-.02.01-.02.01-.01.01-.02.01-.01.01-.02.01-.01.01-.01.02-.02.01-.01.01-.01.02-.01.01-.01.02-.01.01-.01.02-.01.02v.02l-.01.01v.04l-.01.02v.07l.01.02v.04l.01.01v.02l.01.02.01.02.01.01.01.02.01.01.01.02.01.01.02.01.01.02.01.01.02.01.01.01.02.01.01.01.02.01.02.01h.02l.01.01h.04l.02.01h.07l.02-.01h.04l.01-.01h.02l.02-.01.02-.01.01-.01.02-.01.01-.01.02-.01.01-.01.01-.02.02-.01.01-.01.01-.02.01-.01.01-.02.01-.01.01-.02.01-.02v-.02l.01-.01v-.04l.01-.02v-.04Z"/></g><g fill="none" stroke="currentColor" stroke-linecap="round" stroke-linejoin="round" stroke-width=".1" color="#000"><path fill="#000" stroke="none" d="M3.35 7v-.03l-.01-.02v-.04l-.01-.01v-.02l-.01-.02-.01-.02-.01-.01-.01-.02-.01-.01-.01-.02-.01-.01-.02-.01-.01-.02-.01-.01-.02-.01-.01-.01-.02-.01-.01-.01-.02-.01-.02-.01H3.1l-.01-.01h-.04l-.02-.01h-.07l-.02.01H2.9l-.01.01h-.02l-.02.01-.02.01-.01.01-.02.01-.01.01-.02.01-.01.01-.01.02-.02.01-.01.01-.01.02-.01.01-.01.02-.01.01-.01.02-.01.02v.02l-.01.01v.04l-.01.02v.07l.01.02v.04l.01.01v.02l.01.02.01.02.01.01.01.02.01.01.01.02.01.01.02.01.01.02.01.01.02.01.01.01.02.01.01.01.02.01.02.01h.02l.01.01h.04l.02.01h.07l.02-.01h.04l.01-.01h.02l.02-.01.02-.01.01-.01.02-.01.01-.01.02-.01.01-.01.01-.02.02-.01.01-.01.01-.02.01-.01.01-.02.01-.01.01-.02.01-.02v-.02l.01-.01v-.04l.01-.02v-.02z" shape-rendering="crispEdges"/><path stroke="#000" d="M3.35 7v-.03l-.01-.02v-.04l-.01-.01v-.02l-.01-.02-.01-.02-.01-.01-.01-.02-.01-.01-.01-.02-.01-.01-.02-.01-.01-.02-.01-.01-.02-.01-.01-.01-.02-.01-.01-.01-.02-.01-.02-.01H3.1l-.01-.01h-.04l-.02-.01h-.07l-.02.01H2.9l-.01.01h-.02l-.02.01-.02.01-.01.01-.02.01-.01.01-.02.01-.01.01-.01.02-.02.01-.01.01-.01.02-.01.01-.01.02-.01.01-.01.02-.01.02v.02l-.01.01v.04l-.01.02v.07l.01.02v.04l.01.01v.02l.01.02.01.02.01.01.01.02.01.01.01.02.01.01.02.01.01.02.01.01.02.01.01.01.02.01.01.01.02.01.02.01h.02l.01.01h.04l.02.01h.07l.02-.01h.04l.01-.01h.02l.02-.01.02-.01.01-.01.02-.01.01-.01.02-.01.01-.01.01-.02.02-.01.01-.01.01-.02.01-.01.01-.02.01-.01.01-.02.01-.02v-.02l.01-.01v-.04l.01-.02V7Z"/></g><g fill="none" stroke="currentColor" stroke-linecap="round" stroke-linejoin="round" stroke-width=".1" color="#000"><path fill="#000" stroke="none" d="M9.35 7v-.03l-.01-.02v-.04l-.01-.01v-.02l-.01-.02-.01-.02-.01-.01-.01-.02-.01-.01-.01-.02-.01-.01-.02-.01-.01-.02-.01-.01-.02-.01-.01-.01-.02-.01-.01-.01-.02-.01-.02-.01H9.1l-.01-.01h-.04l-.02-.01h-.07l-.02.01H8.9l-.01.01h-.02l-.02.01-.02.01-.01.01-.02.01-.01.01-.02.01-.01.01-.01.02-.02.01-.01.01-.01.02-.01.01-.01.02-.01.01-.01.02-.01.02v.02l-.01.01v.04l-.01.02v.07l.01.02v.04l.01.01v.02l.01.02.01.02.01.01.01.02.01.01.01.02.01.01.02.01.01.02.01.01.02.01.01.01.02.01.01.01.02.01.02.01h.02l.01.01h.04l.02.01h.07l.02-.01h.04l.01-.01h.02l.02-.01.02-.01.01-.01.02-.01.01-.01.02-.01.01-.01.01-.02.02-.01.01-.01.01-.02.01-.01.01-.02.01-.01.01-.02.01-.02v-.02l.01-.01v-.04l.01-.02v-.02z" shape-rendering="crispEdges"/><path stroke="#000" d="M9.35 7v-.03l-.01-.02v-.04l-.01-.01v-.02l-.01-.02-.01-.02-.01-.01-.01-.02-.01-.01-.01-.02-.01-.01-.02-.01-.01-.02-.01-.01-.02-.01-.01-.01-.02-.01-.01-.01-.02-.01-.02-.01H9.1l-.01-.01h-.04l-.02-.01h-.07l-.02.01H8.9l-.01.01h-.02l-.02.01-.02.01-.01.01-.02.01-.01.01-.02.01-.01.01-.01.02-.02.01-.01.01-.01.02-.01.01-.01.02-.01.01-.01.02-.01.02v.02l-.01.01v.04l-.01.02v.07l.01.02v.04l.01.01v.02l.01.02.01.02.01.01.01.02.01.01.01.02.01.01.02.01.01.02.01.01.02.01.01.01.02.01.01.01.02.01.02.01h.02l.01.01h.04l.02.01h.07l.02-.01h.04l.01-.01h.02l.02-.01.02-.01.01-.01.02-.01.01-.01.02-.01.01-.01.01-.02.02-.01.01-.01.01-.02.01-.01.01-.02.01-.01.01-.02.01-.02v-.02l.01-.01v-.04l.01-.02V7Z"/></g><g fill="none" stroke="currentColor" stroke-linecap="round" stroke-linejoin="round" stroke-width=".1" color="#000"><path fill="#2962FF" stroke="none" d="M15.35 7v-.03l-.01-.02v-.04l-.01-.01v-.02l-.01-.02-.01-.02-.01-.01-.01-.02-.01-.01-.01-.02-.01-.01-.02-.01-.01-.02-.01-.01-.02-.01-.01-.01-.02-.01-.01-.01-.02-.01-.02-.01h-.02l-.01-.01h-.04l-.02-.01h-.07l-.02.01h-.04l-.01.01h-.02l-.02.01-.02.01-.01.01-.02.01-.01.01-.02.01-.01.01-.01.02-.02.01-.01.01-.01.02-.01.01-.01.02-.01.01-.01.02-.01.02v.02l-.01.01v.04l-.01.02v.07l.01.02v.04l.01.01v.02l.01.02.01.02.01.01.01.02.01.01.01.02.01.01.02.01.01.02.01.01.02.01.01.01.02.01.01.01.02.01.02.01h.02l.01.01h.04l.02.01h.07l.02-.01h.04l.01-.01h.02l.02-.01.02-.01.01-.01.02-.01.01-.01.02-.01.01-.01.01-.02.02-.01.01-.01.01-.02.01-.01.01-.02.01-.01.01-.02.01-.02v-.02l.01-.01v-.04l.01-.02v-.02z" shape-rendering="crispEdges"/><path stroke="#2962FF" d="M15.35 7v-.03l-.01-.02v-.04l-.01-.01v-.02l-.01-.02-.01-.02-.01-.01-.01-.02-.01-.01-.01-.02-.01-.01-.02-.01-.01-.02-.01-.01-.02-.01-.01-.01-.02-.01-.01-.01-.02-.01-.02-.01h-.02l-.01-.01h-.04l-.02-.01h-.07l-.02.01h-.04l-.01.01h-.02l-.02.01-.02.01-.01.01-.02.01-.01.01-.02.01-.01.01-.01.02-.02.01-.01.01-.01.02-.01.01-.01.02-.01.01-.01.02-.01.02v.02l-.01.01v.04l-.01.02v.07l.01.02v.04l.01.01v.02l.01.02.01.02.01.01.01.02.01.01.01.02.01.01.02.01.01.02.01.01.02.01.01.01.02.01.01.01.02.01.02.01h.02l.01.01h.04l.02.01h.07l.02-.01h.04l.01-.01h.02l.02-.01.02-.01.01-.01.02-.01.01-.01.02-.01.01-.01.01-.02.02-.01.01-.01.01-.02.01-.01.01-.02.01-.01.01-.02.01-.02v-.02l.01-.01v-.04l.01-.02V7Z"/></g><g fill="none" stroke="currentColor" stroke-linecap="round" stroke-linejoin="round" stroke-width=".1" color="#000"><path fill="#000" stroke="none" d="M21.35 7v-.03l-.01-.02v-.04l-.01-.01v-.02l-.01-.02-.01-.02-.01-.01-.01-.02-.01-.01-.01-.02-.01-.01-.02-.01-.01-.02-.01-.01-.02-.01-.01-.01-.02-.01-.01-.01-.02-.01-.02-.01h-.02l-.01-.01h-.04l-.02-.01h-.07l-.02.01h-.04l-.01.01h-.02l-.02.01-.02.01-.01.01-.02.01-.01.01-.02.01-.01.01-.01.02-.02.01-.01.01-.01.02-.01.01-.01.02-.01.01-.01.02-.01.02v.02l-.01.01v.04l-.01.02v.07l.01.02v.04l.01.01v.02l.01.02.01.02.01.01.01.02.01.01.01.02.01.01.02.01.01.02.01.01.02.01.01.01.02.01.01.01.02.01.02.01h.02l.01.01h.04l.02.01h.07l.02-.01h.04l.01-.01h.02l.02-.01.02-.01.01-.01.02-.01.01-.01.02-.01.01-.01.01-.02.02-.01.01-.01.01-.02.01-.01.01-.02.01-.01.01-.02.01-.02v-.02l.01-.01v-.04l.01-.02v-.02z" shape-rendering="crispEdges"/><path stroke="#000" d="M21.35 7v-.03l-.01-.02v-.04l-.01-.01v-.02l-.01-.02-.01-.02-.01-.01-.01-.02-.01-.01-.01-.02-.01-.01-.02-.01-.01-.02-.01-.01-.02-.01-.01-.01-.02-.01-.01-.01-.02-.01-.02-.01h-.02l-.01-.01h-.04l-.02-.01h-.07l-.02.01h-.04l-.01.01h-.02l-.02.01-.02.01-.01.01-.02.01-.01.01-.02.01-.01.01-.01.02-.02.01-.01.01-.01.02-.01.01-.01.02-.01.01-.01.02-.01.02v.02l-.01.01v.04l-.01.02v.07l.01.02v.04l.01.01v.02l.01.02.01.02.01.01.01.02.01.01.01.02.01.01.02.01.01.02.01.01.02.01.01.01.02.01.01.01.02.01.02.01h.02l.01.01h.04l.02.01h.07l.02-.01h.04l.01-.01h.02l.02-.01.02-.01.01-.01.02-.01.01-.01.02-.01.01-.01.01-.02.02-.01.01-.01.01-.02.01-.01.01-.02.01-.01.01-.02.01-.02v-.02l.01-.01v-.04l.01-.02V7Z"/></g><g fill="none" stroke="currentColor" stroke-linecap="round" stroke-linejoin="round" stroke-width=".1" color="#000"><path fill="#000" stroke="none" d="M1.85 10v-.03l-.01-.02v-.04l-.01-.01v-.02l-.01-.02-.01-.02-.01-.01-.01-.02-.01-.01-.01-.02-.01-.01-.02-.01-.01-.02-.01-.01-.02-.01-.01-.01-.02-.01-.01-.01-.02-.01-.02-.01H1.6l-.01-.01h-.04l-.02-.01h-.07l-.02.01H1.4l-.01.01h-.02l-.02.01-.02.01-.01.01-.02.01-.01.01-.02.01-.01.01-.01.02-.02.01-.01.01-.01.02-.01.01-.01.02-.01.01-.01.02-.01.02v.02l-.01.01v.04l-.01.02v.07l.01.02v.04l.01.01v.02l.01.02.01.02.01.01.01.02.01.01.01.02.01.01.02.01.01.02.01.01.02.01.01.01.02.01.01.01.02.01.02.01h.02l.01.01h.04l.02.01h.07l.02-.01h.04l.01-.01h.02l.02-.01.02-.01.01-.01.02-.01.01-.01.02-.01.01-.01.01-.02.02-.01.01-.01.01-.02.01-.01.01-.02.01-.01.01-.02.01-.02v-.02l.01-.01v-.04l.01-.02v-.02z" shape-rendering="crispEdges"/><path stroke="#000" d="M1.85 10v-.03l-.01-.02v-.04l-.01-.01v-.02l-.01-.02-.01-.02-.01-.01-.01-.02-.01-.01-.01-.02-.01-.01-.02-.01-.01-.02-.01-.01-.02-.01-.01-.01-.02-.01-.01-.01-.02-.01-.02-.01H1.6l-.01-.01h-.04l-.02-.01h-.07l-.02.01H1.4l-.01.01h-.02l-.02.01-.02.01-.01.01-.02.01-.01.01-.02.01-.01.01-.01.02-.02.01-.01.01-.01.02-.01.01-.01.02-.01.01-.01.02-.01.02v.02l-.01.01v.04l-.01.02v.07l.01.02v.04l.01.01v.02l.01.02.01.02.01.01.01.02.01.01.01.02.01.01.02.01.01.02.01.01.02.01.01.01.02.01.01.01.02.01.02.01h.02l.01.01h.04l.02.01h.07l.02-.01h.04l.01-.01h.02l.02-.01.02-.01.01-.01.02-.01.01-.01.02-.01.01-.01.01-.02.02-.01.01-.01.01-.02.01-.01.01-.02.01-.01.01-.02.01-.02v-.02l.01-.01v-.04l.01-.02V10Z"/></g><g fill="none" stroke="currentColor" stroke-linecap="round" stroke-linejoin="round" stroke-width=".1" color="#000"><path fill="#000" stroke="none" d="M4.85 10v-.03l-.01-.02v-.04l-.01-.01v-.02l-.01-.02-.01-.02-.01-.01-.01-.02-.01-.01-.01-.02-.01-.01-.02-.01-.01-.02-.01-.01-.02-.01-.01-.01-.02-.01-.01-.01-.02-.01-.02-.01H4.6l-.01-.01h-.04l-.02-.01h-.07l-.02.01H4.4l-.01.01h-.02l-.02.01-.02.01-.01.01-.02.01-.01.01-.02.01-.01.01-.01.02-.02.01-.01.01-.01.02-.01.01-.01.02-.01.01-.01.02-.01.02v.02l-.01.01v.04l-.01.02v.07l.01.02v.04l.01.01v.02l.01.02.01.02.01.01.01.02.01.01.01.02.01.01.02.01.01.02.01.01.02.01.01.01.02.01.01.01.02.01.02.01h.02l.01.01h.04l.02.01h.07l.02-.01h.04l.01-.01h.02l.02-.01.02-.01.01-.01.02-.01.01-.01.02-.01.01-.01.01-.02.02-.01.01-.01.01-.02.01-.01.01-.02.01-.01.01-.02.01-.02v-.02l.01-.01v-.04l.01-.02v-.02z" shape-rendering="crispEdges"/><path stroke="#000" d="M4.85 10v-.03l-.01-.02v-.04l-.01-.01v-.02l-.01-.02-.01-.02-.01-.01-.01-.02-.01-.01-.01-.02-.01-.01-.02-.01-.01-.02-.01-.01-.02-.01-.01-.01-.02-.01-.01-.01-.02-.01-.02-.01H4.6l-.01-.01h-.04l-.02-.01h-.07l-.02.01H4.4l-.01.01h-.02l-.02.01-.02.01-.01.01-.02.01-.01.01-.02.01-.01.01-.01.02-.02.01-.01.01-.01.02-.01.01-.01.02-.01.01-.01.02-.01.02v.02l-.01.01v.04l-.01.02v.07l.01.02v.04l.01.01v.02l.01.02.01.02.01.01.01.02.01.01.01.02.01.01.02.01.01.02.01.01.02.01.01.01.02.01.01.01.02.01.02.01h.02l.01.01h.04l.02.01h.07l.02-.01h.04l.01-.01h.02l.02-.01.02-.01.01-.01.02-.01.01-.01.02-.01.01-.01.01-.02.02-.01.01-.01.01-.02.01-.01.01-.02.01-.01.01-.02.01-.02v-.02l.01-.01v-.04l.01-.02V10Z"/></g><g fill="none" stroke="currentColor" stroke-linecap="round" stroke-linejoin="round" stroke-width=".1" color="#000"><path fill="#000" stroke="none" d="M7.85 10v-.03l-.01-.02v-.04l-.01-.01v-.02l-.01-.02-.01-.02-.01-.01-.01-.02-.01-.01-.01-.02-.01-.01-.02-.01-.01-.02-.01-.01-.02-.01-.01-.01-.02-.01-.01-.01-.02-.01-.02-.01H7.6l-.01-.01h-.04l-.02-.01h-.07l-.02.01H7.4l-.01.01h-.02l-.02.01-.02.01-.01.01-.02.01-.01.01-.02.01-.01.01-.01.02-.02.01-.01.01-.01.02-.01.01-.01.02-.01.01-.01.02-.01.02v.02l-.01.01v.04l-.01.02v.07l.01.02v.04l.01.01v.02l.01.02.01.02.01.01.01.02.01.01.01.02.01.01.02.01.01.02.01.01.02.01.01.01.02.01.01.01.02.01.02.01h.02l.01.01h.04l.02.01h.07l.02-.01h.04l.01-.01h.02l.02-.01.02-.01.01-.01.02-.01.01-.01.02-.01.01-.01.01-.02.02-.01.01-.01.01-.02.01-.01.01-.02.01-.01.01-.02.01-.02v-.02l.01-.01v-.04l.01-.02v-.02z" shape-rendering="crispEdges"/><path stroke="#000" d="M7.85 10v-.03l-.01-.02v-.04l-.01-.01v-.02l-.01-.02-.01-.02-.01-.01-.01-.02-.01-.01-.01-.02-.01-.01-.02-.01-.01-.02-.01-.01-.02-.01-.01-.01-.02-.01-.01-.01-.02-.01-.02-.01H7.6l-.01-.01h-.04l-.02-.01h-.07l-.02.01H7.4l-.01.01h-.02l-.02.01-.02.01-.01.01-.02.01-.01.01-.02.01-.01.01-.01.02-.02.01-.01.01-.01.02-.01.01-.01.02-.01.01-.01.02-.01.02v.02l-.01.01v.04l-.01.02v.07l.01.02v.04l.01.01v.02l.01.02.01.02.01.01.01.02.01.01.01.02.01.01.02.01.01.02.01.01.02.01.01.01.02.01.01.01.02.01.02.01h.02l.01.01h.04l.02.01h.07l.02-.01h.04l.01-.01h.02l.02-.01.02-.01.01-.01.02-.01.01-.01.02-.01.01-.01.01-.02.02-.01.01-.01.01-.02.01-.01.01-.02.01-.01.01-.02.01-.02v-.02l.01-.01v-.04l.01-.02V10Z"/></g><g fill="none" stroke="currentColor" stroke-linecap="round" stroke-linejoin="round" stroke-width=".1" color="#000"><path fill="#000" stroke="none" d="M10.85 10v-.03l-.01-.02v-.04l-.01-.01v-.02l-.01-.02-.01-.02-.01-.01-.01-.02-.01-.01-.01-.02-.01-.01-.02-.01-.01-.02-.01-.01-.02-.01-.01-.01-.02-.01-.01-.01-.02-.01-.02-.01h-.02l-.01-.01h-.04l-.02-.01h-.07l-.02.01h-.04l-.01.01h-.02l-.02.01-.02.01-.01.01-.02.01-.01.01-.02.01-.01.01-.01.02-.02.01-.01.01-.01.02-.01.01-.01.02-.01.01-.01.02-.01.02v.02l-.01.01v.04l-.01.02v.07l.01.02v.04l.01.01v.02l.01.02.01.02.01.01.01.02.01.01.01.02.01.01.02.01.01.02.01.01.02.01.01.01.02.01.01.01.02.01.02.01h.02l.01.01h.04l.02.01h.07l.02-.01h.04l.01-.01h.02l.02-.01.02-.01.01-.01.02-.01.01-.01.02-.01.01-.01.01-.02.02-.01.01-.01.01-.02.01-.01.01-.02.01-.01.01-.02.01-.02v-.02l.01-.01v-.04l.01-.02v-.02z" shape-rendering="crispEdges"/><path stroke="#000" d="M10.85 10v-.03l-.01-.02v-.04l-.01-.01v-.02l-.01-.02-.01-.02-.01-.01-.01-.02-.01-.01-.01-.02-.01-.01-.02-.01-.01-.02-.01-.01-.02-.01-.01-.01-.02-.01-.01-.01-.02-.01-.02-.01h-.02l-.01-.01h-.04l-.02-.01h-.07l-.02.01h-.04l-.01.01h-.02l-.02.01-.02.01-.01.01-.02.01-.01.01-.02.01-.01.01-.01.02-.02.01-.01.01-.01.02-.01.01-.01.02-.01.01-.01.02-.01.02v.02l-.01.01v.04l-.01.02v.07l.01.02v.04l.01.01v.02l.01.02.01.02.01.01.01.02.01.01.01.02.01.01.02.01.01.02.01.01.02.01.01.01.02.01.01.01.02.01.02.01h.02l.01.01h.04l.02.01h.07l.02-.01h.04l.01-.01h.02l.02-.01.02-.01.01-.01.02-.01.01-.01.02-.01.01-.01.01-.02.02-.01.01-.01.01-.02.01-.01.01-.02.01-.01.01-.02.01-.02v-.02l.01-.01v-.04l.01-.02V10Z"/></g><g fill="none" stroke="currentColor" stroke-linecap="round" stroke-linejoin="round" stroke-width=".1" color="#000"><path fill="#2962FF" stroke="none" d="M13.85 10v-.03l-.01-.02v-.04l-.01-.01v-.02l-.01-.02-.01-.02-.01-.01-.01-.02-.01-.01-.01-.02-.01-.01-.02-.01-.01-.02-.01-.01-.02-.01-.01-.01-.02-.01-.01-.01-.02-.01-.02-.01h-.02l-.01-.01h-.04l-.02-.01h-.07l-.02.01h-.04l-.01.01h-.02l-.02.01-.02.01-.01.01-.02.01-.01.01-.02.01-.01.01-.01.02-.02.01-.01.01-.01.02-.01.01-.01.02-.01.01-.01.02-.01.02v.02l-.01.01v.04l-.01.02v.07l.01.02v.04l.01.01v.02l.01.02.01.02.01.01.01.02.01.01.01.02.01.01.02.01.01.02.01.01.02.01.01.01.02.01.01.01.02.01.02.01h.02l.01.01h.04l.02.01h.07l.02-.01h.04l.01-.01h.02l.02-.01.02-.01.01-.01.02-.01.01-.01.02-.01.01-.01.01-.02.02-.01.01-.01.01-.02.01-.01.01-.02.01-.01.01-.02.01-.02v-.02l.01-.01v-.04l.01-.02v-.02z" shape-rendering="crispEdges"/><path stroke="#2962FF" d="M13.85 10v-.03l-.01-.02v-.04l-.01-.01v-.02l-.01-.02-.01-.02-.01-.01-.01-.02-.01-.01-.01-.02-.01-.01-.02-.01-.01-.02-.01-.01-.02-.01-.01-.01-.02-.01-.01-.01-.02-.01-.02-.01h-.02l-.01-.01h-.04l-.02-.01h-.07l-.02.01h-.04l-.01.01h-.02l-.02.01-.02.01-.01.01-.02.01-.01.01-.02.01-.01.01-.01.02-.02.01-.01.01-.01.02-.01.01-.01.02-.01.01-.01.02-.01.02v.02l-.01.01v.04l-.01.02v.07l.01.02v.04l.01.01v.02l.01.02.01.02.01.01.01.02.01.01.01.02.01.01.02.01.01.02.01.01.02.01.01.01.02.01.01.01.02.01.02.01h.02l.01.01h.04l.02.01h.07l.02-.01h.04l.01-.01h.02l.02-.01.02-.01.01-.01.02-.01.01-.01.02-.01.01-.01.01-.02.02-.01.01-.01.01-.02.01-.01.01-.02.01-.01.01-.02.01-.02v-.02l.01-.01v-.04l.01-.02V10Z"/></g><g fill="none" stroke="currentColor" stroke-linecap="round" stroke-linejoin="round" stroke-width=".1" color="#000"><path fill="#000" stroke="none" d="M16.85 10v-.03l-.01-.02v-.04l-.01-.01v-.02l-.01-.02-.01-.02-.01-.01-.01-.02-.01-.01-.01-.02-.01-.01-.02-.01-.01-.02-.01-.01-.02-.01-.01-.01-.02-.01-.01-.01-.02-.01-.02-.01h-.02l-.01-.01h-.04l-.02-.01h-.07l-.02.01h-.04l-.01.01h-.02l-.02.01-.02.01-.01.01-.02.01-.01.01-.02.01-.01.01-.01.02-.02.01-.01.01-.01.02-.01.01-.01.02-.01.01-.01.02-.01.02v.02l-.01.01v.04l-.01.02v.07l.01.02v.04l.01.01v.02l.01.02.01.02.01.01.01.02.01.01.01.02.01.01.02.01.01.02.01.01.02.01.01.01.02.01.01.01.02.01.02.01h.02l.01.01h.04l.02.01h.07l.02-.01h.04l.01-.01h.02l.02-.01.02-.01.01-.01.02-.01.01-.01.02-.01.01-.01.01-.02.02-.01.01-.01.01-.02.01-.01.01-.02.01-.01.01-.02.01-.02v-.02l.01-.01v-.04l.01-.02v-.02z" shape-rendering="crispEdges"/><path stroke="#000" d="M16.85 10v-.03l-.01-.02v-.04l-.01-.01v-.02l-.01-.02-.01-.02-.01-.01-.01-.02-.01-.01-.01-.02-.01-.01-.02-.01-.01-.02-.01-.01-.02-.01-.01-.01-.02-.01-.01-.01-.02-.01-.02-.01h-.02l-.01-.01h-.04l-.02-.01h-.07l-.02.01h-.04l-.01.01h-.02l-.02.01-.02.01-.01.01-.02.01-.01.01-.02.01-.01.01-.01.02-.02.01-.01.01-.01.02-.01.01-.01.02-.01.01-.01.02-.01.02v.02l-.01.01v.04l-.01.02v.07l.01.02v.04l.01.01v.02l.01.02.01.02.01.01.01.02.01.01.01.02.01.01.02.01.01.02.01.01.02.01.01.01.02.01.01.01.02.01.02.01h.02l.01.01h.04l.02.01h.07l.02-.01h.04l.01-.01h.02l.02-.01.02-.01.01-.01.02-.01.01-.01.02-.01.01-.01.01-.02.02-.01.01-.01.01-.02.01-.01.01-.02.01-.01.01-.02.01-.02v-.02l.01-.01v-.04l.01-.02V10Z"/></g><g fill="none" stroke="currentColor" stroke-linecap="round" stroke-linejoin="round" stroke-width=".1" color="#000"><path fill="#000" stroke="none" d="M19.85 10v-.03l-.01-.02v-.04l-.01-.01v-.02l-.01-.02-.01-.02-.01-.01-.01-.02-.01-.01-.01-.02-.01-.01-.02-.01-.01-.02-.01-.01-.02-.01-.01-.01-.02-.01-.01-.01-.02-.01-.02-.01h-.02l-.01-.01h-.04l-.02-.01h-.07l-.02.01h-.04l-.01.01h-.02l-.02.01-.02.01-.01.01-.02.01-.01.01-.02.01-.01.01-.01.02-.02.01-.01.01-.01.02-.01.01-.01.02-.01.01-.01.02-.01.02v.02l-.01.01v.04l-.01.02v.07l.01.02v.04l.01.01v.02l.01.02.01.02.01.01.01.02.01.01.01.02.01.01.02.01.01.02.01.01.02.01.01.01.02.01.01.01.02.01.02.01h.02l.01.01h.04l.02.01h.07l.02-.01h.04l.01-.01h.02l.02-.01.02-.01.01-.01.02-.01.01-.01.02-.01.01-.01.01-.02.02-.01.01-.01.01-.02.01-.01.01-.02.01-.01.01-.02.01-.02v-.02l.01-.01v-.04l.01-.02v-.02z" shape-rendering="crispEdges"/><path stroke="#000" d="M19.85 10v-.03l-.01-.02v-.04l-.01-.01v-.02l-.01-.02-.01-.02-.01-.01-.01-.02-.01-.01-.01-.02-.01-.01-.02-.01-.01-.02-.01-.01-.02-.01-.01-.01-.02-.01-.01-.01-.02-.01-.02-.01h-.02l-.01-.01h-.04l-.02-.01h-.07l-.02.01h-.04l-.01.01h-.02l-.02.01-.02.01-.01.01-.02.01-.01.01-.02.01-.01.01-.01.02-.02.01-.01.01-.01.02-.01.01-.01.02-.01.01-.01.02-.01.02v.02l-.01.01v.04l-.01.02v.07l.01.02v.04l.01.01v.02l.01.02.01.02.01.01.01.02.01.01.01.02.01.01.02.01.01.02.01.01.02.01.01.01.02.01.01.01.02.01.02.01h.02l.01.01h.04l.02.01h.07l.02-.01h.04l.01-.01h.02l.02-.01.02-.01.01-.01.02-.01.01-.01.02-.01.01-.01.01-.02.02-.01.01-.01.01-.02.01-.01.01-.02.01-.01.01-.02.01-.02v-.02l.01-.01v-.04l.01-.02V10Z"/></g><g fill="none" stroke="currentColor" stroke-linecap="round" stroke-linejoin="round" stroke-width=".1" color="#000"><path fill="#000" stroke="none" d="M22.85 10v-.03l-.01-.02v-.04l-.01-.01v-.02l-.01-.02-.01-.02-.01-.01-.01-.02-.01-.01-.01-.02-.01-.01-.02-.01-.01-.02-.01-.01-.02-.01-.01-.01-.02-.01-.01-.01-.02-.01-.02-.01h-.02l-.01-.01h-.04l-.02-.01h-.07l-.02.01h-.04l-.01.01h-.02l-.02.01-.02.01-.01.01-.02.01-.01.01-.02.01-.01.01-.01.02-.02.01-.01.01-.01.02-.01.01-.01.02-.01.01-.01.02-.01.02v.02l-.01.01v.04l-.01.02v.07l.01.02v.04l.01.01v.02l.01.02.01.02.01.01.01.02.01.01.01.02.01.01.02.01.01.02.01.01.02.01.01.01.02.01.01.01.02.01.02.01h.02l.01.01h.04l.02.01h.07l.02-.01h.04l.01-.01h.02l.02-.01.02-.01.01-.01.02-.01.01-.01.02-.01.01-.01.01-.02.02-.01.01-.01.01-.02.01-.01.01-.02.01-.01.01-.02.01-.02v-.02l.01-.01v-.04l.01-.02v-.02z" shape-rendering="crispEdges"/><path stroke="#000" d="M22.85 10v-.03l-.01-.02v-.04l-.01-.01v-.02l-.01-.02-.01-.02-.01-.01-.01-.02-.01-.01-.01-.02-.01-.01-.02-.01-.01-.02-.01-.01-.02-.01-.01-.01-.02-.01-.01-.01-.02-.01-.02-.01h-.02l-.01-.01h-.04l-.02-.01h-.07l-.02.01h-.04l-.01.01h-.02l-.02.01-.02.01-.01.01-.02.01-.01.01-.02.01-.01.01-.01.02-.02.01-.01.01-.01.02-.01.01-.01.02-.01.01-.01.02-.01.02v.02l-.01.01v.04l-.01.02v.07l.01.02v.04l.01.01v.02l.01.02.01.02.01.01.01.02.01.01.01.02.01.01.02.01.01.02.01.01.02.01.01.01.02.01.01.01.02.01.02.01h.02l.01.01h.04l.02.01h.07l.02-.01h.04l.01-.01h.02l.02-.01.02-.01.01-.01.02-.01.01-.01.02-.01.01-.01.01-.02.02-.01.01-.01.01-.02.01-.01.01-.02.01-.01.01-.02.01-.02v-.02l.01-.01v-.04l.01-.02V10Z"/></g><g fill="none" stroke="currentColor" stroke-linecap="round" stroke-linejoin="round" stroke-width=".1" color="#000"><path fill="#2962FF" stroke="none" d="M42.34 1.01V.98l-.01-.02V.92l-.01-.01V.89l-.01-.02-.01-.02-.01-.01-.01-.02-.01-.01-.01-.02-.01-.01-.02-.01-.01-.02-.01-.01-.02-.01-.01-.01-.02-.01-.01-.01-.02-.01-.02-.01h-.02l-.01-.01h-.04l-.02-.01h-.07l-.02.01h-.04l-.01.01h-.02l-.02.01-.02.01-.01.01-.02.01-.01.01-.02.01-.01.01-.01.02-.02.01-.01.01-.01.02-.01.01-.01.02-.01.01-.01.02-.01.02v.02l-.01.01v.04l-.01.02v.07l.01.02v.04l.01.01v.02l.01.02.01.02.01.01.01.02.01.01.01.02.01.01.02.01.01.02.01.01.02.01.01.01.02.01.01.01.02.01.02.01h.02l.01.01h.04l.02.01h.07l.02-.01h.04l.01-.01h.02l.02-.01.02-.01.01-.01.02-.01.01-.01.02-.01.01-.01.01-.02.02-.01.01-.01.01-.02.01-.01.01-.02.01-.01.01-.02.01-.02v-.02l.01-.01v-.04l.01-.02v-.02z" shape-rendering="crispEdges"/><path stroke="#2962FF" d="M42.34 1.01V.98l-.01-.02V.92l-.01-.01V.89l-.01-.02-.01-.02-.01-.01-.01-.02-.01-.01-.01-.02-.01-.01-.02-.01-.01-.02-.01-.01-.02-.01-.01-.01-.02-.01-.01-.01-.02-.01-.02-.01h-.02l-.01-.01h-.04l-.02-.01h-.07l-.02.01h-.04l-.01.01h-.02l-.02.01-.02.01-.01.01-.02.01-.01.01-.02.01-.01.01-.01.02-.02.01-.01.01-.01.02-.01.01-.01.02-.01.01-.01.02-.01.02v.02l-.01.01v.04l-.01.02v.07l.01.02v.04l.01.01v.02l.01.02.01.02.01.01.01.02.01.01.01.02.01.01.02.01.01.02.01.01.02.01.01.01.02.01.01.01.02.01.02.01h.02l.01.01h.04l.02.01h.07l.02-.01h.04l.01-.01h.02l.02-.01.02-.01.01-.01.02-.01.01-.01.02-.01.01-.01.01-.02.02-.01.01-.01.01-.02.01-.01.01-.02.01-.01.01-.02.01-.02v-.02l.01-.01v-.04l.01-.02v-.04Z"/></g><g fill="none" stroke="currentColor" stroke-linecap="round" stroke-linejoin="round" stroke-width=".1" color="#000"><path fill="#000" stroke="none" d="M36.34 4.01v-.03l-.01-.02v-.04l-.01-.01v-.02l-.01-.02-.01-.02-.01-.01-.01-.02-.01-.01-.01-.02-.01-.01-.02-.01-.01-.02-.01-.01-.02-.01-.01-.01-.02-.01-.01-.01-.02-.01-.02-.01h-.02l-.01-.01h-.04l-.02-.01h-.07l-.02.01h-.04l-.01.01h-.02l-.02.01-.02.01-.01.01-.02.01-.01.01-.02.01-.01.01-.01.02-.02.01-.01.01-.01.02-.01.01-.01.02-.01.01-.01.02-.01.02v.02l-.01.01v.04l-.01.02v.07l.01.02v.04l.01.01v.02l.01.02.01.02.01.01.01.02.01.01.01.02.01.01.02.01.01.02.01.01.02.01.01.01.02.01.01.01.02.01.02.01h.02l.01.01h.04l.02.01h.07l.02-.01h.04l.01-.01h.02l.02-.01.02-.01.01-.01.02-.01.01-.01.02-.01.01-.01.01-.02.02-.01.01-.01.01-.02.01-.01.01-.02.01-.01.01-.02.01-.02v-.02l.01-.01v-.04l.01-.02v-.02z" shape-rendering="crispEdges"/><path stroke="#000" d="M36.34 4.01v-.03l-.01-.02v-.04l-.01-.01v-.02l-.01-.02-.01-.02-.01-.01-.01-.02-.01-.01-.01-.02-.01-.01-.02-.01-.01-.02-.01-.01-.02-.01-.01-.01-.02-.01-.01-.01-.02-.01-.02-.01h-.02l-.01-.01h-.04l-.02-.01h-.07l-.02.01h-.04l-.01.01h-.02l-.02.01-.02.01-.01.01-.02.01-.01.01-.02.01-.01.01-.01.02-.02.01-.01.01-.01.02-.01.01-.01.02-.01.01-.01.02-.01.02v.02l-.01.01v.04l-.01.02v.07l.01.02v.04l.01.01v.02l.01.02.01.02.01.01.01.02.01.01.01.02.01.01.02.01.01.02.01.01.02.01.01.01.02.01.01.01.02.01.02.01h.02l.01.01h.04l.02.01h.07l.02-.01h.04l.01-.01h.02l.02-.01.02-.01.01-.01.02-.01.01-.01.02-.01.01-.01.01-.02.02-.01.01-.01.01-.02.01-.01.01-.02.01-.01.01-.02.01-.02v-.02l.01-.01v-.04l.01-.02v-.04Z"/></g><g fill="none" stroke="currentColor" stroke-linecap="round" stroke-linejoin="round" stroke-width=".1" color="#000"><path fill="#2962FF" stroke="none" d="M48.34 4.01v-.03l-.01-.02v-.04l-.01-.01v-.02l-.01-.02-.01-.02-.01-.01-.01-.02-.01-.01-.01-.02-.01-.01-.02-.01-.01-.02-.01-.01-.02-.01-.01-.01-.02-.01-.01-.01-.02-.01-.02-.01h-.02l-.01-.01h-.04l-.02-.01h-.07l-.02.01h-.04l-.01.01h-.02l-.02.01-.02.01-.01.01-.02.01-.01.01-.02.01-.01.01-.01.02-.02.01-.01.01-.01.02-.01.01-.01.02-.01.01-.01.02-.01.02v.02l-.01.01v.04l-.01.02v.07l.01.02v.04l.01.01v.02l.01.02.01.02.01.01.01.02.01.01.01.02.01.01.02.01.01.02.01.01.02.01.01.01.02.01.01.01.02.01.02.01h.02l.01.01h.04l.02.01h.07l.02-.01h.04l.01-.01h.02l.02-.01.02-.01.01-.01.02-.01.01-.01.02-.01.01-.01.01-.02.02-.01.01-.01.01-.02.01-.01.01-.02.01-.01.01-.02.01-.02v-.02l.01-.01v-.04l.01-.02v-.02z" shape-rendering="crispEdges"/><path stroke="#2962FF" d="M48.34 4.01v-.03l-.01-.02v-.04l-.01-.01v-.02l-.01-.02-.01-.02-.01-.01-.01-.02-.01-.01-.01-.02-.01-.01-.02-.01-.01-.02-.01-.01-.02-.01-.01-.01-.02-.01-.01-.01-.02-.01-.02-.01h-.02l-.01-.01h-.04l-.02-.01h-.07l-.02.01h-.04l-.01.01h-.02l-.02.01-.02.01-.01.01-.02.01-.01.01-.02.01-.01.01-.01.02-.02.01-.01.01-.01.02-.01.01-.01.02-.01.01-.01.02-.01.02v.02l-.01.01v.04l-.01.02v.07l.01.02v.04l.01.01v.02l.01.02.01.02.01.01.01.02.01.01.01.02.01.01.02.01.01.02.01.01.02.01.01.01.02.01.01.01.02.01.02.01h.02l.01.01h.04l.02.01h.07l.02-.01h.04l.01-.01h.02l.02-.01.02-.01.01-.01.02-.01.01-.01.02-.01.01-.01.01-.02.02-.01.01-.01.01-.02.01-.01.01-.02.01-.01.01-.02.01-.02v-.02l.01-.01v-.04l.01-.02v-.04Z"/></g><g fill="none" stroke="currentColor" stroke-linecap="round" stroke-linejoin="round" stroke-width=".1" color="#000"><path fill="#000" stroke="none" d="M33.34 7v-.03l-.01-.02v-.04l-.01-.01v-.02l-.01-.02-.01-.02-.01-.01-.01-.02-.01-.01-.01-.02-.01-.01-.02-.01-.01-.02-.01-.01-.02-.01-.01-.01-.02-.01-.01-.01-.02-.01-.02-.01h-.02l-.01-.01h-.04l-.02-.01h-.07l-.02.01h-.04l-.01.01h-.02l-.02.01-.02.01-.01.01-.02.01-.01.01-.02.01-.01.01-.01.02-.02.01-.01.01-.01.02-.01.01-.01.02-.01.01-.01.02-.01.02v.02l-.01.01v.04l-.01.02v.07l.01.02v.04l.01.01v.02l.01.02.01.02.01.01.01.02.01.01.01.02.01.01.02.01.01.02.01.01.02.01.01.01.02.01.01.01.02.01.02.01h.02l.01.01h.04l.02.01h.07l.02-.01h.04l.01-.01h.02l.02-.01.02-.01.01-.01.02-.01.01-.01.02-.01.01-.01.01-.02.02-.01.01-.01.01-.02.01-.01.01-.02.01-.01.01-.02.01-.02v-.02l.01-.01v-.04l.01-.02v-.02z" shape-rendering="crispEdges"/><path stroke="#000" d="M33.34 7v-.03l-.01-.02v-.04l-.01-.01v-.02l-.01-.02-.01-.02-.01-.01-.01-.02-.01-.01-.01-.02-.01-.01-.02-.01-.01-.02-.01-.01-.02-.01-.01-.01-.02-.01-.01-.01-.02-.01-.02-.01h-.02l-.01-.01h-.04l-.02-.01h-.07l-.02.01h-.04l-.01.01h-.02l-.02.01-.02.01-.01.01-.02.01-.01.01-.02.01-.01.01-.01.02-.02.01-.01.01-.01.02-.01.01-.01.02-.01.01-.01.02-.01.02v.02l-.01.01v.04l-.01.02v.07l.01.02v.04l.01.01v.02l.01.02.01.02.01.01.01.02.01.01.01.02.01.01.02.01.01.02.01.01.02.01.01.01.02.01.01.01.02.01.02.01h.02l.01.01h.04l.02.01h.07l.02-.01h.04l.01-.01h.02l.02-.01.02-.01.01-.01.02-.01.01-.01.02-.01.01-.01.01-.02.02-.01.01-.01.01-.02.01-.01.01-.02.01-.01.01-.02.01-.02v-.02l.01-.01v-.04l.01-.02V7Z"/></g><g fill="none" stroke="currentColor" stroke-linecap="round" stroke-linejoin="round" stroke-width=".1" color="#000"><path fill="#000" stroke="none" d="M39.34 7v-.03l-.01-.02v-.04l-.01-.01v-.02l-.01-.02-.01-.02-.01-.01-.01-.02-.01-.01-.01-.02-.01-.01-.02-.01-.01-.02-.01-.01-.02-.01-.01-.01-.02-.01-.01-.01-.02-.01-.02-.01h-.02l-.01-.01h-.04l-.02-.01h-.07l-.02.01h-.04l-.01.01h-.02l-.02.01-.02.01-.01.01-.02.01-.01.01-.02.01-.01.01-.01.02-.02.01-.01.01-.01.02-.01.01-.01.02-.01.01-.01.02-.01.02v.02l-.01.01v.04l-.01.02v.07l.01.02v.04l.01.01v.02l.01.02.01.02.01.01.01.02.01.01.01.02.01.01.02.01.01.02.01.01.02.01.01.01.02.01.01.01.02.01.02.01h.02l.01.01h.04l.02.01h.07l.02-.01h.04l.01-.01h.02l.02-.01.02-.01.01-.01.02-.01.01-.01.02-.01.01-.01.01-.02.02-.01.01-.01.01-.02.01-.01.01-.02.01-.01.01-.02.01-.02v-.02l.01-.01v-.04l.01-.02v-.02z" shape-rendering="crispEdges"/><path stroke="#000" d="M39.34 7v-.03l-.01-.02v-.04l-.01-.01v-.02l-.01-.02-.01-.02-.01-.01-.01-.02-.01-.01-.01-.02-.01-.01-.02-.01-.01-.02-.01-.01-.02-.01-.01-.01-.02-.01-.01-.01-.02-.01-.02-.01h-.02l-.01-.01h-.04l-.02-.01h-.07l-.02.01h-.04l-.01.01h-.02l-.02.01-.02.01-.01.01-.02.01-.01.01-.02.01-.01.01-.01.02-.02.01-.01.01-.01.02-.01.01-.01.02-.01.01-.01.02-.01.02v.02l-.01.01v.04l-.01.02v.07l.01.02v.04l.01.01v.02l.01.02.01.02.01.01.01.02.01.01.01.02.01.01.02.01.01.02.01.01.02.01.01.01.02.01.01.01.02.01.02.01h.02l.01.01h.04l.02.01h.07l.02-.01h.04l.01-.01h.02l.02-.01.02-.01.01-.01.02-.01.01-.01.02-.01.01-.01.01-.02.02-.01.01-.01.01-.02.01-.01.01-.02.01-.01.01-.02.01-.02v-.02l.01-.01v-.04l.01-.02V7Z"/></g><g fill="none" stroke="currentColor" stroke-linecap="round" stroke-linejoin="round" stroke-width=".1" color="#000"><path fill="#2962FF" stroke="none" d="M45.34 7v-.03l-.01-.02v-.04l-.01-.01v-.02l-.01-.02-.01-.02-.01-.01-.01-.02-.01-.01-.01-.02-.01-.01-.02-.01-.01-.02-.01-.01-.02-.01-.01-.01-.02-.01-.01-.01-.02-.01-.02-.01h-.02l-.01-.01h-.04l-.02-.01h-.07l-.02.01h-.04l-.01.01h-.02l-.02.01-.02.01-.01.01-.02.01-.01.01-.02.01-.01.01-.01.02-.02.01-.01.01-.01.02-.01.01-.01.02-.01.01-.01.02-.01.02v.02l-.01.01v.04l-.01.02v.07l.01.02v.04l.01.01v.02l.01.02.01.02.01.01.01.02.01.01.01.02.01.01.02.01.01.02.01.01.02.01.01.01.02.01.01.01.02.01.02.01h.02l.01.01h.04l.02.01h.07l.02-.01h.04l.01-.01h.02l.02-.01.02-.01.01-.01.02-.01.01-.01.02-.01.01-.01.01-.02.02-.01.01-.01.01-.02.01-.01.01-.02.01-.01.01-.02.01-.02v-.02l.01-.01v-.04l.01-.02v-.02z" shape-rendering="crispEdges"/><path stroke="#2962FF" d="M45.34 7v-.03l-.01-.02v-.04l-.01-.01v-.02l-.01-.02-.01-.02-.01-.01-.01-.02-.01-.01-.01-.02-.01-.01-.02-.01-.01-.02-.01-.01-.02-.01-.01-.01-.02-.01-.01-.01-.02-.01-.02-.01h-.02l-.01-.01h-.04l-.02-.01h-.07l-.02.01h-.04l-.01.01h-.02l-.02.01-.02.01-.01.01-.02.01-.01.01-.02.01-.01.01-.01.02-.02.01-.01.01-.01.02-.01.01-.01.02-.01.01-.01.02-.01.02v.02l-.01.01v.04l-.01.02v.07l.01.02v.04l.01.01v.02l.01.02.01.02.01.01.01.02.01.01.01.02.01.01.02.01.01.02.01.01.02.01.01.01.02.01.01.01.02.01.02.01h.02l.01.01h.04l.02.01h.07l.02-.01h.04l.01-.01h.02l.02-.01.02-.01.01-.01.02-.01.01-.01.02-.01.01-.01.01-.02.02-.01.01-.01.01-.02.01-.01.01-.02.01-.01.01-.02.01-.02v-.02l.01-.01v-.04l.01-.02V7Z"/></g><g fill="none" stroke="currentColor" stroke-linecap="round" stroke-linejoin="round" stroke-width=".1" color="#000"><path fill="#000" stroke="none" d="M51.34 7v-.03l-.01-.02v-.04l-.01-.01v-.02l-.01-.02-.01-.02-.01-.01-.01-.02-.01-.01-.01-.02-.01-.01-.02-.01-.01-.02-.01-.01-.02-.01-.01-.01-.02-.01-.01-.01-.02-.01-.02-.01h-.02l-.01-.01h-.04l-.02-.01h-.07l-.02.01h-.04l-.01.01h-.02l-.02.01-.02.01-.01.01-.02.01-.01.01-.02.01-.01.01-.01.02-.02.01-.01.01-.01.02-.01.01-.01.02-.01.01-.01.02-.01.02v.02l-.01.01v.04l-.01.02v.07l.01.02v.04l.01.01v.02l.01.02.01.02.01.01.01.02.01.01.01.02.01.01.02.01.01.02.01.01.02.01.01.01.02.01.01.01.02.01.02.01h.02l.01.01h.04l.02.01h.07l.02-.01h.04l.01-.01h.02l.02-.01.02-.01.01-.01.02-.01.01-.01.02-.01.01-.01.01-.02.02-.01.01-.01.01-.02.01-.01.01-.02.01-.01.01-.02.01-.02v-.02l.01-.01v-.04l.01-.02v-.02z" shape-rendering="crispEdges"/><path stroke="#000" d="M51.34 7v-.03l-.01-.02v-.04l-.01-.01v-.02l-.01-.02-.01-.02-.01-.01-.01-.02-.01-.01-.01-.02-.01-.01-.02-.01-.01-.02-.01-.01-.02-.01-.01-.01-.02-.01-.01-.01-.02-.01-.02-.01h-.02l-.01-.01h-.04l-.02-.01h-.07l-.02.01h-.04l-.01.01h-.02l-.02.01-.02.01-.01.01-.02.01-.01.01-.02.01-.01.01-.01.02-.02.01-.01.01-.01.02-.01.01-.01.02-.01.01-.01.02-.01.02v.02l-.01.01v.04l-.01.02v.07l.01.02v.04l.01.01v.02l.01.02.01.02.01.01.01.02.01.01.01.02.01.01.02.01.01.02.01.01.02.01.01.01.02.01.01.01.02.01.02.01h.02l.01.01h.04l.02.01h.07l.02-.01h.04l.01-.01h.02l.02-.01.02-.01.01-.01.02-.01.01-.01.02-.01.01-.01.01-.02.02-.01.01-.01.01-.02.01-.01.01-.02.01-.01.01-.02.01-.02v-.02l.01-.01v-.04l.01-.02V7Z"/></g><g fill="none" stroke="currentColor" stroke-linecap="round" stroke-linejoin="round" stroke-width=".1" color="#000"><path fill="#000" stroke="none" d="M31.84 10v-.03l-.01-.02v-.04l-.01-.01v-.02l-.01-.02-.01-.02-.01-.01-.01-.02-.01-.01-.01-.02-.01-.01-.02-.01-.01-.02-.01-.01-.02-.01-.01-.01-.02-.01-.01-.01-.02-.01-.02-.01h-.02l-.01-.01h-.04l-.02-.01h-.07l-.02.01h-.04l-.01.01h-.02l-.02.01-.02.01-.01.01-.02.01-.01.01-.02.01-.01.01-.01.02-.02.01-.01.01-.01.02-.01.01-.01.02-.01.01-.01.02-.01.02v.02l-.01.01v.04l-.01.02v.07l.01.02v.04l.01.01v.02l.01.02.01.02.01.01.01.02.01.01.01.02.01.01.02.01.01.02.01.01.02.01.01.01.02.01.01.01.02.01.02.01h.02l.01.01h.04l.02.01h.07l.02-.01h.04l.01-.01h.02l.02-.01.02-.01.01-.01.02-.01.01-.01.02-.01.01-.01.01-.02.02-.01.01-.01.01-.02.01-.01.01-.02.01-.01.01-.02.01-.02v-.02l.01-.01v-.04l.01-.02v-.02z" shape-rendering="crispEdges"/><path stroke="#000" d="M31.84 10v-.03l-.01-.02v-.04l-.01-.01v-.02l-.01-.02-.01-.02-.01-.01-.01-.02-.01-.01-.01-.02-.01-.01-.02-.01-.01-.02-.01-.01-.02-.01-.01-.01-.02-.01-.01-.01-.02-.01-.02-.01h-.02l-.01-.01h-.04l-.02-.01h-.07l-.02.01h-.04l-.01.01h-.02l-.02.01-.02.01-.01.01-.02.01-.01.01-.02.01-.01.01-.01.02-.02.01-.01.01-.01.02-.01.01-.01.02-.01.01-.01.02-.01.02v.02l-.01.01v.04l-.01.02v.07l.01.02v.04l.01.01v.02l.01.02.01.02.01.01.01.02.01.01.01.02.01.01.02.01.01.02.01.01.02.01.01.01.02.01.01.01.02.01.02.01h.02l.01.01h.04l.02.01h.07l.02-.01h.04l.01-.01h.02l.02-.01.02-.01.01-.01.02-.01.01-.01.02-.01.01-.01.01-.02.02-.01.01-.01.01-.02.01-.01.01-.02.01-.01.01-.02.01-.02v-.02l.01-.01v-.04l.01-.02V10Z"/></g><g fill="none" stroke="currentColor" stroke-linecap="round" stroke-linejoin="round" stroke-width=".1" color="#000"><path fill="#000" stroke="none" d="M34.84 10v-.03l-.01-.02v-.04l-.01-.01v-.02l-.01-.02-.01-.02-.01-.01-.01-.02-.01-.01-.01-.02-.01-.01-.02-.01-.01-.02-.01-.01-.02-.01-.01-.01-.02-.01-.01-.01-.02-.01-.02-.01h-.02l-.01-.01h-.04l-.02-.01h-.07l-.02.01h-.04l-.01.01h-.02l-.02.01-.02.01-.01.01-.02.01-.01.01-.02.01-.01.01-.01.02-.02.01-.01.01-.01.02-.01.01-.01.02-.01.01-.01.02-.01.02v.02l-.01.01v.04l-.01.02v.07l.01.02v.04l.01.01v.02l.01.02.01.02.01.01.01.02.01.01.01.02.01.01.02.01.01.02.01.01.02.01.01.01.02.01.01.01.02.01.02.01h.02l.01.01h.04l.02.01h.07l.02-.01h.04l.01-.01h.02l.02-.01.02-.01.01-.01.02-.01.01-.01.02-.01.01-.01.01-.02.02-.01.01-.01.01-.02.01-.01.01-.02.01-.01.01-.02.01-.02v-.02l.01-.01v-.04l.01-.02v-.02z" shape-rendering="crispEdges"/><path stroke="#000" d="M34.84 10v-.03l-.01-.02v-.04l-.01-.01v-.02l-.01-.02-.01-.02-.01-.01-.01-.02-.01-.01-.01-.02-.01-.01-.02-.01-.01-.02-.01-.01-.02-.01-.01-.01-.02-.01-.01-.01-.02-.01-.02-.01h-.02l-.01-.01h-.04l-.02-.01h-.07l-.02.01h-.04l-.01.01h-.02l-.02.01-.02.01-.01.01-.02.01-.01.01-.02.01-.01.01-.01.02-.02.01-.01.01-.01.02-.01.01-.01.02-.01.01-.01.02-.01.02v.02l-.01.01v.04l-.01.02v.07l.01.02v.04l.01.01v.02l.01.02.01.02.01.01.01.02.01.01.01.02.01.01.02.01.01.02.01.01.02.01.01.01.02.01.01.01.02.01.02.01h.02l.01.01h.04l.02.01h.07l.02-.01h.04l.01-.01h.02l.02-.01.02-.01.01-.01.02-.01.01-.01.02-.01.01-.01.01-.02.02-.01.01-.01.01-.02.01-.01.01-.02.01-.01.01-.02.01-.02v-.02l.01-.01v-.04l.01-.02V10Z"/></g><g fill="none" stroke="currentColor" stroke-linecap="round" stroke-linejoin="round" stroke-width=".1" color="#000"><path fill="#000" stroke="none" d="M37.84 10v-.03l-.01-.02v-.04l-.01-.01v-.02l-.01-.02-.01-.02-.01-.01-.01-.02-.01-.01-.01-.02-.01-.01-.02-.01-.01-.02-.01-.01-.02-.01-.01-.01-.02-.01-.01-.01-.02-.01-.02-.01h-.02l-.01-.01h-.04l-.02-.01h-.07l-.02.01h-.04l-.01.01h-.02l-.02.01-.02.01-.01.01-.02.01-.01.01-.02.01-.01.01-.01.02-.02.01-.01.01-.01.02-.01.01-.01.02-.01.01-.01.02-.01.02v.02l-.01.01v.04l-.01.02v.07l.01.02v.04l.01.01v.02l.01.02.01.02.01.01.01.02.01.01.01.02.01.01.02.01.01.02.01.01.02.01.01.01.02.01.01.01.02.01.02.01h.02l.01.01h.04l.02.01h.07l.02-.01h.04l.01-.01h.02l.02-.01.02-.01.01-.01.02-.01.01-.01.02-.01.01-.01.01-.02.02-.01.01-.01.01-.02.01-.01.01-.02.01-.01.01-.02.01-.02v-.02l.01-.01v-.04l.01-.02v-.02z" shape-rendering="crispEdges"/><path stroke="#000" d="M37.84 10v-.03l-.01-.02v-.04l-.01-.01v-.02l-.01-.02-.01-.02-.01-.01-.01-.02-.01-.01-.01-.02-.01-.01-.02-.01-.01-.02-.01-.01-.02-.01-.01-.01-.02-.01-.01-.01-.02-.01-.02-.01h-.02l-.01-.01h-.04l-.02-.01h-.07l-.02.01h-.04l-.01.01h-.02l-.02.01-.02.01-.01.01-.02.01-.01.01-.02.01-.01.01-.01.02-.02.01-.01.01-.01.02-.01.01-.01.02-.01.01-.01.02-.01.02v.02l-.01.01v.04l-.01.02v.07l.01.02v.04l.01.01v.02l.01.02.01.02.01.01.01.02.01.01.01.02.01.01.02.01.01.02.01.01.02.01.01.01.02.01.01.01.02.01.02.01h.02l.01.01h.04l.02.01h.07l.02-.01h.04l.01-.01h.02l.02-.01.02-.01.01-.01.02-.01.01-.01.02-.01.01-.01.01-.02.02-.01.01-.01.01-.02.01-.01.01-.02.01-.01.01-.02.01-.02v-.02l.01-.01v-.04l.01-.02V10Z"/></g><g fill="none" stroke="currentColor" stroke-linecap="round" stroke-linejoin="round" stroke-width=".1" color="#000"><path fill="#000" stroke="none" d="M40.84 10v-.03l-.01-.02v-.04l-.01-.01v-.02l-.01-.02-.01-.02-.01-.01-.01-.02-.01-.01-.01-.02-.01-.01-.02-.01-.01-.02-.01-.01-.02-.01-.01-.01-.02-.01-.01-.01-.02-.01-.02-.01h-.02l-.01-.01h-.04l-.02-.01h-.07l-.02.01h-.04l-.01.01h-.02l-.02.01-.02.01-.01.01-.02.01-.01.01-.02.01-.01.01-.01.02-.02.01-.01.01-.01.02-.01.01-.01.02-.01.01-.01.02-.01.02v.02l-.01.01v.04l-.01.02v.07l.01.02v.04l.01.01v.02l.01.02.01.02.01.01.01.02.01.01.01.02.01.01.02.01.01.02.01.01.02.01.01.01.02.01.01.01.02.01.02.01h.02l.01.01h.04l.02.01h.07l.02-.01h.04l.01-.01h.02l.02-.01.02-.01.01-.01.02-.01.01-.01.02-.01.01-.01.01-.02.02-.01.01-.01.01-.02.01-.01.01-.02.01-.01.01-.02.01-.02v-.02l.01-.01v-.04l.01-.02v-.02z" shape-rendering="crispEdges"/><path stroke="#000" d="M40.84 10v-.03l-.01-.02v-.04l-.01-.01v-.02l-.01-.02-.01-.02-.01-.01-.01-.02-.01-.01-.01-.02-.01-.01-.02-.01-.01-.02-.01-.01-.02-.01-.01-.01-.02-.01-.01-.01-.02-.01-.02-.01h-.02l-.01-.01h-.04l-.02-.01h-.07l-.02.01h-.04l-.01.01h-.02l-.02.01-.02.01-.01.01-.02.01-.01.01-.02.01-.01.01-.01.02-.02.01-.01.01-.01.02-.01.01-.01.02-.01.01-.01.02-.01.02v.02l-.01.01v.04l-.01.02v.07l.01.02v.04l.01.01v.02l.01.02.01.02.01.01.01.02.01.01.01.02.01.01.02.01.01.02.01.01.02.01.01.01.02.01.01.01.02.01.02.01h.02l.01.01h.04l.02.01h.07l.02-.01h.04l.01-.01h.02l.02-.01.02-.01.01-.01.02-.01.01-.01.02-.01.01-.01.01-.02.02-.01.01-.01.01-.02.01-.01.01-.02.01-.01.01-.02.01-.02v-.02l.01-.01v-.04l.01-.02V10Z"/></g><g fill="none" stroke="currentColor" stroke-linecap="round" stroke-linejoin="round" stroke-width=".1" color="#000"><path fill="#2962FF" stroke="none" d="M43.84 10v-.03l-.01-.02v-.04l-.01-.01v-.02l-.01-.02-.01-.02-.01-.01-.01-.02-.01-.01-.01-.02-.01-.01-.02-.01-.01-.02-.01-.01-.02-.01-.01-.01-.02-.01-.01-.01-.02-.01-.02-.01h-.02l-.01-.01h-.04l-.02-.01h-.07l-.02.01h-.04l-.01.01h-.02l-.02.01-.02.01-.01.01-.02.01-.01.01-.02.01-.01.01-.01.02-.02.01-.01.01-.01.02-.01.01-.01.02-.01.01-.01.02-.01.02v.02l-.01.01v.04l-.01.02v.07l.01.02v.04l.01.01v.02l.01.02.01.02.01.01.01.02.01.01.01.02.01.01.02.01.01.02.01.01.02.01.01.01.02.01.01.01.02.01.02.01h.02l.01.01h.04l.02.01h.07l.02-.01h.04l.01-.01h.02l.02-.01.02-.01.01-.01.02-.01.01-.01.02-.01.01-.01.01-.02.02-.01.01-.01.01-.02.01-.01.01-.02.01-.01.01-.02.01-.02v-.02l.01-.01v-.04l.01-.02v-.02z" shape-rendering="crispEdges"/><path stroke="#2962FF" d="M43.84 10v-.03l-.01-.02v-.04l-.01-.01v-.02l-.01-.02-.01-.02-.01-.01-.01-.02-.01-.01-.01-.02-.01-.01-.02-.01-.01-.02-.01-.01-.02-.01-.01-.01-.02-.01-.01-.01-.02-.01-.02-.01h-.02l-.01-.01h-.04l-.02-.01h-.07l-.02.01h-.04l-.01.01h-.02l-.02.01-.02.01-.01.01-.02.01-.01.01-.02.01-.01.01-.01.02-.02.01-.01.01-.01.02-.01.01-.01.02-.01.01-.01.02-.01.02v.02l-.01.01v.04l-.01.02v.07l.01.02v.04l.01.01v.02l.01.02.01.02.01.01.01.02.01.01.01.02.01.01.02.01.01.02.01.01.02.01.01.01.02.01.01.01.02.01.02.01h.02l.01.01h.04l.02.01h.07l.02-.01h.04l.01-.01h.02l.02-.01.02-.01.01-.01.02-.01.01-.01.02-.01.01-.01.01-.02.02-.01.01-.01.01-.02.01-.01.01-.02.01-.01.01-.02.01-.02v-.02l.01-.01v-.04l.01-.02V10Z"/></g><g fill="none" stroke="currentColor" stroke-linecap="round" stroke-linejoin="round" stroke-width=".1" color="#000"><path fill="#000" stroke="none" d="M46.84 10v-.03l-.01-.02v-.04l-.01-.01v-.02l-.01-.02-.01-.02-.01-.01-.01-.02-.01-.01-.01-.02-.01-.01-.02-.01-.01-.02-.01-.01-.02-.01-.01-.01-.02-.01-.01-.01-.02-.01-.02-.01h-.02l-.01-.01h-.04l-.02-.01h-.07l-.02.01h-.04l-.01.01h-.02l-.02.01-.02.01-.01.01-.02.01-.01.01-.02.01-.01.01-.01.02-.02.01-.01.01-.01.02-.01.01-.01.02-.01.01-.01.02-.01.02v.02l-.01.01v.04l-.01.02v.07l.01.02v.04l.01.01v.02l.01.02.01.02.01.01.01.02.01.01.01.02.01.01.02.01.01.02.01.01.02.01.01.01.02.01.01.01.02.01.02.01h.02l.01.01h.04l.02.01h.07l.02-.01h.04l.01-.01h.02l.02-.01.02-.01.01-.01.02-.01.01-.01.02-.01.01-.01.01-.02.02-.01.01-.01.01-.02.01-.01.01-.02.01-.01.01-.02.01-.02v-.02l.01-.01v-.04l.01-.02v-.02z" shape-rendering="crispEdges"/><path stroke="#000" d="M46.84 10v-.03l-.01-.02v-.04l-.01-.01v-.02l-.01-.02-.01-.02-.01-.01-.01-.02-.01-.01-.01-.02-.01-.01-.02-.01-.01-.02-.01-.01-.02-.01-.01-.01-.02-.01-.01-.01-.02-.01-.02-.01h-.02l-.01-.01h-.04l-.02-.01h-.07l-.02.01h-.04l-.01.01h-.02l-.02.01-.02.01-.01.01-.02.01-.01.01-.02.01-.01.01-.01.02-.02.01-.01.01-.01.02-.01.01-.01.02-.01.01-.01.02-.01.02v.02l-.01.01v.04l-.01.02v.07l.01.02v.04l.01.01v.02l.01.02.01.02.01.01.01.02.01.01.01.02.01.01.02.01.01.02.01.01.02.01.01.01.02.01.01.01.02.01.02.01h.02l.01.01h.04l.02.01h.07l.02-.01h.04l.01-.01h.02l.02-.01.02-.01.01-.01.02-.01.01-.01.02-.01.01-.01.01-.02.02-.01.01-.01.01-.02.01-.01.01-.02.01-.01.01-.02.01-.02v-.02l.01-.01v-.04l.01-.02V10Z"/></g><g fill="none" stroke="currentColor" stroke-linecap="round" stroke-linejoin="round" stroke-width=".1" color="#000"><path fill="#000" stroke="none" d="M49.84 10v-.03l-.01-.02v-.04l-.01-.01v-.02l-.01-.02-.01-.02-.01-.01-.01-.02-.01-.01-.01-.02-.01-.01-.02-.01-.01-.02-.01-.01-.02-.01-.01-.01-.02-.01-.01-.01-.02-.01-.02-.01h-.02l-.01-.01h-.04l-.02-.01h-.07l-.02.01h-.04l-.01.01h-.02l-.02.01-.02.01-.01.01-.02.01-.01.01-.02.01-.01.01-.01.02-.02.01-.01.01-.01.02-.01.01-.01.02-.01.01-.01.02-.01.02v.02l-.01.01v.04l-.01.02v.07l.01.02v.04l.01.01v.02l.01.02.01.02.01.01.01.02.01.01.01.02.01.01.02.01.01.02.01.01.02.01.01.01.02.01.01.01.02.01.02.01h.02l.01.01h.04l.02.01h.07l.02-.01h.04l.01-.01h.02l.02-.01.02-.01.01-.01.02-.01.01-.01.02-.01.01-.01.01-.02.02-.01.01-.01.01-.02.01-.01.01-.02.01-.01.01-.02.01-.02v-.02l.01-.01v-.04l.01-.02v-.02z" shape-rendering="crispEdges"/><path stroke="#000" d="M49.84 10v-.03l-.01-.02v-.04l-.01-.01v-.02l-.01-.02-.01-.02-.01-.01-.01-.02-.01-.01-.01-.02-.01-.01-.02-.01-.01-.02-.01-.01-.02-.01-.01-.01-.02-.01-.01-.01-.02-.01-.02-.01h-.02l-.01-.01h-.04l-.02-.01h-.07l-.02.01h-.04l-.01.01h-.02l-.02.01-.02.01-.01.01-.02.01-.01.01-.02.01-.01.01-.01.02-.02.01-.01.01-.01.02-.01.01-.01.02-.01.01-.01.02-.01.02v.02l-.01.01v.04l-.01.02v.07l.01.02v.04l.01.01v.02l.01.02.01.02.01.01.01.02.01.01.01.02.01.01.02.01.01.02.01.01.02.01.01.01.02.01.01.01.02.01.02.01h.02l.01.01h.04l.02.01h.07l.02-.01h.04l.01-.01h.02l.02-.01.02-.01.01-.01.02-.01.01-.01.02-.01.01-.01.01-.02.02-.01.01-.01.01-.02.01-.01.01-.02.01-.01.01-.02.01-.02v-.02l.01-.01v-.04l.01-.02V10Z"/></g><g fill="none" stroke="currentColor" stroke-linecap="round" stroke-linejoin="round" stroke-width=".1" color="#000"><path fill="#000" stroke="none" d="M52.84 10v-.03l-.01-.02v-.04l-.01-.01v-.02l-.01-.02-.01-.02-.01-.01-.01-.02-.01-.01-.01-.02-.01-.01-.02-.01-.01-.02-.01-.01-.02-.01-.01-.01-.02-.01-.01-.01-.02-.01-.02-.01h-.02l-.01-.01h-.04l-.02-.01h-.07l-.02.01h-.04l-.01.01h-.02l-.02.01-.02.01-.01.01-.02.01-.01.01-.02.01-.01.01-.01.02-.02.01-.01.01-.01.02-.01.01-.01.02-.01.01-.01.02-.01.02v.02l-.01.01v.04l-.01.02v.07l.01.02v.04l.01.01v.02l.01.02.01.02.01.01.01.02.01.01.01.02.01.01.02.01.01.02.01.01.02.01.01.01.02.01.01.01.02.01.02.01h.02l.01.01h.04l.02.01h.07l.02-.01h.04l.01-.01h.02l.02-.01.02-.01.01-.01.02-.01.01-.01.02-.01.01-.01.01-.02.02-.01.01-.01.01-.02.01-.01.01-.02.01-.01.01-.02.01-.02v-.02l.01-.01v-.04l.01-.02v-.02z" shape-rendering="crispEdges"/><path stroke="#000" d="M52.84 10v-.03l-.01-.02v-.04l-.01-.01v-.02l-.01-.02-.01-.02-.01-.01-.01-.02-.01-.01-.01-.02-.01-.01-.02-.01-.01-.02-.01-.01-.02-.01-.01-.01-.02-.01-.01-.01-.02-.01-.02-.01h-.02l-.01-.01h-.04l-.02-.01h-.07l-.02.01h-.04l-.01.01h-.02l-.02.01-.02.01-.01.01-.02.01-.01.01-.02.01-.01.01-.01.02-.02.01-.01.01-.01.02-.01.01-.01.02-.01.01-.01.02-.01.02v.02l-.01.01v.04l-.01.02v.07l.01.02v.04l.01.01v.02l.01.02.01.02.01.01.01.02.01.01.01.02.01.01.02.01.01.02.01.01.02.01.01.01.02.01.01.01.02.01.02.01h.02l.01.01h.04l.02.01h.07l.02-.01h.04l.01-.01h.02l.02-.01.02-.01.01-.01.02-.01.01-.01.02-.01.01-.01.01-.02.02-.01.01-.01.01-.02.01-.01.01-.02.01-.01.01-.02.01-.02v-.02l.01-.01v-.04l.01-.02V10Z"/></g><g fill="none" stroke="currentColor" stroke-linecap="round" stroke-linejoin="round" stroke-width=".1" color="#000"><path fill="#2962FF" stroke="none" d="M45.34 13v-.03l-.01-.02v-.04l-.01-.01v-.02l-.01-.02-.01-.02-.01-.01-.01-.02-.01-.01-.01-.02-.01-.01-.02-.01-.01-.02-.01-.01-.02-.01-.01-.01-.02-.01-.01-.01-.02-.01-.02-.01h-.02l-.01-.01h-.04l-.02-.01h-.07l-.02.01h-.04l-.01.01h-.02l-.02.01-.02.01-.01.01-.02.01-.01.01-.02.01-.01.01-.01.02-.02.01-.01.01-.01.02-.01.01-.01.02-.01.01-.01.02-.01.02v.02l-.01.01v.04l-.01.02v.07l.01.02v.04l.01.01v.02l.01.02.01.02.01.01.01.02.01.01.01.02.01.01.02.01.01.02.01.01.02.01.01.01.02.01.01.01.02.01.02.01h.02l.01.01h.04l.02.01h.07l.02-.01h.04l.01-.01h.02l.02-.01.02-.01.01-.01.02-.01.01-.01.02-.01.01-.01.01-.02.02-.01.01-.01.01-.02.01-.01.01-.02.01-.01.01-.02.01-.02v-.02l.01-.01v-.04l.01-.02v-.02z" shape-rendering="crispEdges"/><path stroke="#2962FF" d="M45.34 13v-.03l-.01-.02v-.04l-.01-.01v-.02l-.01-.02-.01-.02-.01-.01-.01-.02-.01-.01-.01-.02-.01-.01-.02-.01-.01-.02-.01-.01-.02-.01-.01-.01-.02-.01-.01-.01-.02-.01-.02-.01h-.02l-.01-.01h-.04l-.02-.01h-.07l-.02.01h-.04l-.01.01h-.02l-.02.01-.02.01-.01.01-.02.01-.01.01-.02.01-.01.01-.01.02-.02.01-.01.01-.01.02-.01.01-.01.02-.01.01-.01.02-.01.02v.02l-.01.01v.04l-.01.02v.07l.01.02v.04l.01.01v.02l.01.02.01.02.01.01.01.02.01.01.01.02.01.01.02.01.01.02.01.01.02.01.01.01.02.01.01.01.02.01.02.01h.02l.01.01h.04l.02.01h.07l.02-.01h.04l.01-.01h.02l.02-.01.02-.01.01-.01.02-.01.01-.01.02-.01.01-.01.01-.02.02-.01.01-.01.01-.02.01-.01.01-.02.01-.01.01-.02.01-.02v-.02l.01-.01v-.04l.01-.02v-.03"/></g></svg>