<svg xmlns="http://www.w3.org/2000/svg" viewBox="0 0 36 6"><path fill="none" d="M0 0h36v6H0z"/><path fill="none" d="M0 6h.75m35.24 0h-.75M0 5h.75m35.24 0h-.75M0 4h.75m35.24 0h-.75M0 3h.75m35.24 0h-.75M0 2.01h.75m35.24 0h-.75M0 1.01h.75m35.24 0h-.75M0 .01h.75m35.24 0h-.75M0 6v-.75M0 .01v.75M1 6v-.75M1 .01v.75M2 6v-.75M2 .01v.75M3 6v-.75M3 .01v.75M4 6v-.75M4 .01v.75M5 6v-.75M5 .01v.75M6 6v-.75M6 .01v.75M7 6v-.75M7 .01v.75M8 6v-.75M8 .01v.75M9 6v-.75M9 .01v.75M10 6v-.75m0-5.24v.75M11 6v-.75m0-5.24v.75M12 6v-.75m0-5.24v.75M13 6v-.75m0-5.24v.75M14 6v-.75m0-5.24v.75M15 6v-.75m0-5.24v.75M16 6v-.75m0-5.24v.75M17 6v-.75m0-5.24v.75M18 6v-.75m0-5.24v.75M18.99 6v-.75m0-5.24v.75m1 5.24v-.75m0-5.24v.75m1 5.24v-.75m0-5.24v.75m1 5.24v-.75m0-5.24v.75m1 5.24v-.75m0-5.24v.75m1 5.24v-.75m0-5.24v.75m1 5.24v-.75m0-5.24v.75m1 5.24v-.75m0-5.24v.75m1 5.24v-.75m0-5.24v.75m1 5.24v-.75m0-5.24v.75m1 5.24v-.75m0-5.24v.75m1 5.24v-.75m0-5.24v.75m1 5.24v-.75m0-5.24v.75m1 5.24v-.75m0-5.24v.75m1 5.24v-.75m0-5.24v.75m1 5.24v-.75m0-5.24v.75m1 5.24v-.75m0-5.24v.75m1 5.24v-.75m0-5.24v.75" color="#000"/><path fill="none" stroke="#000" stroke-linecap="round" stroke-linejoin="round" stroke-width=".1" d="M5.5 5.5v-.99h.99v.99H5.5Z" color="#000"/><g fill="none" stroke="currentColor" stroke-linecap="round" stroke-linejoin="round" stroke-width=".1" color="#000"><path stroke="#000" d="M29.49 5.5v-.99h.99v.99h-.99Z"/><text fill="#000" stroke="none" font-family="KaTeX_Typewriter" font-size="1" text-anchor="middle" transform="translate(9 4.33)"><tspan>A</tspan></text><text fill="#000" stroke="none" font-family="KaTeX_Typewriter" font-size="1" text-anchor="middle" transform="translate(12 3.33)"><tspan>B</tspan></text><text fill="#000" stroke="none" font-family="KaTeX_Typewriter" font-size="1" text-anchor="middle" transform="translate(15 2.34)"><tspan>C</tspan></text><text fill="#000" stroke="none" font-family="KaTeX_Typewriter" font-size="1" text-anchor="middle" transform="translate(18 1.34)"><tspan>D</tspan></text><text fill="#000" stroke="none" font-family="KaTeX_Typewriter" font-size="1" text-anchor="middle" transform="translate(20.99 2.34)"><tspan>E</tspan></text><text fill="#000" stroke="none" font-family="KaTeX_Typewriter" font-size="1" text-anchor="middle" transform="translate(23.99 3.33)"><tspan>F</tspan></text><text fill="#000" stroke="none" font-family="KaTeX_Typewriter" font-size="1" text-anchor="middle" transform="translate(26.99 4.33)"><tspan>G</tspan></text><path fill="#000" stroke="none" d="m7.29 4.57.06.16-.34-.07.23-.26.05.17z" shape-rendering="crispEdges"/><path stroke="#000" d="m7.29 4.57.06.16-.34-.07.23-.26.05.17ZM8 4.33l-.71.24"/><path fill="#000" stroke="none" d="m10.29 3.57.06.16-.34-.07.23-.26.05.17z" shape-rendering="crispEdges"/><path stroke="#000" d="m10.29 3.57.06.16-.34-.07.23-.26.05.17Zm.71-.24-.71.24"/><path fill="#000" stroke="none" d="m13.29 2.57.06.16-.34-.07.23-.26.05.17z" shape-rendering="crispEdges"/><path stroke="#000" d="m13.29 2.57.06.16-.34-.07.23-.26.05.17Zm.71-.24-.71.24"/><path fill="#000" stroke="none" d="m16.29 1.57.06.16-.34-.07.23-.26.05.17z" shape-rendering="crispEdges"/><path stroke="#000" d="m16.29 1.57.06.16-.34-.07.23-.26.05.17Zm.71-.24-.71.24"/><path fill="#000" stroke="none" d="m19.72 1.57.05-.17.23.26-.34.07.06-.16z" shape-rendering="crispEdges"/><path stroke="#000" d="m19.72 1.57.05-.17.23.26-.34.07.06-.16Zm-.71-.24.71.24"/><path fill="#000" stroke="none" d="m22.72 2.57.05-.17.23.26-.34.07.06-.16z" shape-rendering="crispEdges"/><path stroke="#000" d="m22.72 2.57.05-.17.23.26-.34.07.06-.16Zm-.71-.24.71.24"/><path fill="#000" stroke="none" d="m25.72 3.57.05-.17.23.26-.34.07.06-.16z" shape-rendering="crispEdges"/><path stroke="#000" d="m25.72 3.57.05-.17.23.26-.34.07.06-.16Zm-.71-.24.71.24"/><path fill="#000" stroke="none" d="m28.72 4.57.05-.17.23.26-.34.07.06-.16z" shape-rendering="crispEdges"/><path stroke="#000" d="m28.72 4.57.05-.17.23.26-.34.07.06-.16Zm-.71-.24.71.24"/></g><path fill="none" stroke="#000" stroke-linecap="round" stroke-linejoin="round" stroke-width=".1" d="M9.7 4v-.07l-.01-.04v-.03l-.01-.04-.01-.03-.02-.04-.01-.03-.02-.04-.01-.03-.02-.03-.02-.03-.03-.03-.02-.03-.03-.02-.02-.03-.03-.02-.03-.03-.03-.02-.03-.02-.03-.01-.04-.02-.03-.01-.04-.02-.03-.01-.04-.01h-.03l-.04-.01h-.15l-.04.01h-.03l-.04.01-.03.01-.04.02-.03.01-.04.02-.03.01-.03.02-.03.02-.03.03-.03.02-.02.03-.03.02-.02.03-.03.03-.02.03-.02.03-.01.03-.02.04-.01.03-.02.04-.01.03-.01.04v.03l-.01.04v.15l.01.04v.03l.01.04.01.03.02.04.01.03.02.04.01.03.02.03.02.03.03.03.02.03.03.02.02.03.03.02.03.03.03.02.03.02.03.01.04.02.03.01.04.02.03.01.04.01h.03l.04.01h.15l.04-.01h.03l.04-.01.03-.01.04-.02.03-.01.04-.02.03-.01.03-.02.03-.02.03-.03.03-.02.02-.03.03-.02.02-.03.03-.03.02-.03.02-.03.01-.03.02-.04.01-.03.02-.04.01-.03.01-.04v-.03l.01-.04v-.07m0-.01v-.07l-.01-.04v-.03l-.01-.04-.01-.03-.02-.04-.01-.03-.02-.04-.01-.03-.02-.03-.02-.03-.03-.03-.02-.03-.03-.02-.02-.03-.03-.02-.03-.03-.03-.02-.03-.02-.03-.01-.04-.02-.03-.01-.04-.02-.03-.01-.04-.01h-.03l-.04-.01h-.15l-.04.01h-.03l-.04.01-.03.01-.04.02-.03.01-.04.02-.03.01-.03.02-.03.02-.03.03-.03.02-.02.03-.03.02-.02.03-.03.03-.02.03-.02.03-.01.03-.02.04-.01.03-.02.04-.01.03-.01.04v.03l-.01.04v.15l.01.04v.03l.01.04.01.03.02.04.01.03.02.04.01.03.02.03.02.03.03.03.02.03.03.02.02.03.03.02.03.03.03.02.03.02.03.01.04.02.03.01.04.02.03.01.04.01h.03l.04.01h.15l.04-.01h.03l.04-.01.03-.01.04-.02.03-.01.04-.02.03-.01.03-.02.03-.02.03-.03.03-.02.02-.03.03-.02.02-.03.03-.03.02-.03.02-.03.01-.03.02-.04.01-.03.02-.04.01-.03.01-.04v-.03l.01-.04v-.07" color="#000"/><g fill="none" stroke="#000" stroke-linecap="round" stroke-linejoin="round" stroke-width=".1" color="#000"><path d="M12.7 3v-.07l-.01-.04v-.03l-.01-.04-.01-.03-.02-.04-.01-.03-.02-.04-.01-.03-.02-.03-.02-.03-.03-.03-.02-.03-.03-.02-.02-.03-.03-.02-.03-.03-.03-.02-.03-.02-.03-.01-.04-.02-.03-.01-.04-.02-.03-.01-.04-.01h-.03l-.04-.01h-.15l-.04.01h-.03l-.04.01-.03.01-.04.02-.03.01-.04.02-.03.01-.03.02-.03.02-.03.03-.03.02-.02.03-.03.02-.02.03-.03.03-.02.03-.02.03-.01.03-.02.04-.01.03-.02.04-.01.03-.01.04v.03l-.01.04v.15l.01.04v.03l.01.04.01.03.02.04.01.03.02.04.01.03.02.03.02.03.03.03.02.03.03.02.02.03.03.02.03.03.03.02.03.02.03.01.04.02.03.01.04.02.03.01.04.01h.03l.04.01h.15l.04-.01h.03l.04-.01.03-.01.04-.02.03-.01.04-.02.03-.01.03-.02.03-.02.03-.03.03-.02.02-.03.03-.02.02-.03.03-.03.02-.03.02-.03.01-.03.02-.04.01-.03.02-.04.01-.03.01-.04v-.03l.01-.04V3Z"/><path d="M12.7 3v-.07l-.01-.04v-.03l-.01-.04-.01-.03-.02-.04-.01-.03-.02-.04-.01-.03-.02-.03-.02-.03-.03-.03-.02-.03-.03-.02-.02-.03-.03-.02-.03-.03-.03-.02-.03-.02-.03-.01-.04-.02-.03-.01-.04-.02-.03-.01-.04-.01h-.03l-.04-.01h-.15l-.04.01h-.03l-.04.01-.03.01-.04.02-.03.01-.04.02-.03.01-.03.02-.03.02-.03.03-.03.02-.02.03-.03.02-.02.03-.03.03-.02.03-.02.03-.01.03-.02.04-.01.03-.02.04-.01.03-.01.04v.03l-.01.04v.15l.01.04v.03l.01.04.01.03.02.04.01.03.02.04.01.03.02.03.02.03.03.03.02.03.03.02.02.03.03.02.03.03.03.02.03.02.03.01.04.02.03.01.04.02.03.01.04.01h.03l.04.01h.15l.04-.01h.03l.04-.01.03-.01.04-.02.03-.01.04-.02.03-.01.03-.02.03-.02.03-.03.03-.02.02-.03.03-.02.02-.03.03-.03.02-.03.02-.03.01-.03.02-.04.01-.03.02-.04.01-.03.01-.04v-.03l.01-.04V3Z"/></g><g fill="none" stroke="#000" stroke-linecap="round" stroke-linejoin="round" stroke-width=".1" color="#000"><path d="M15.7 2.01v-.07l-.01-.04v-.03l-.01-.04-.01-.03-.02-.04-.01-.03-.02-.04-.01-.03-.02-.03-.02-.03-.03-.03-.02-.03-.03-.02-.02-.03-.03-.02-.03-.03-.03-.02-.03-.02-.03-.01-.04-.02-.03-.01-.04-.02-.03-.01-.04-.01h-.03l-.04-.01h-.15l-.04.01h-.03l-.04.01-.03.01-.04.02-.03.01-.04.02-.03.01-.03.02-.03.02-.03.03-.03.02-.02.03-.03.02-.02.03-.03.03-.02.03-.02.03-.01.03-.02.04-.01.03-.02.04-.01.03-.01.04v.03l-.01.04v.15l.01.04v.03l.01.04.01.03.02.04.01.03.02.04.01.03.02.03.02.03.03.03.02.03.03.02.02.03.03.02.03.03.03.02.03.02.03.01.04.02.03.01.04.02.03.01.04.01h.03l.04.01h.15l.04-.01h.03l.04-.01.03-.01.04-.02.03-.01.04-.02.03-.01.03-.02.03-.02.03-.03.03-.02.02-.03.03-.02.02-.03.03-.03.02-.03.02-.03.01-.03.02-.04.01-.03.02-.04.01-.03.01-.04v-.03l.01-.04v-.08Z"/><path d="M15.7 2.01v-.07l-.01-.04v-.03l-.01-.04-.01-.03-.02-.04-.01-.03-.02-.04-.01-.03-.02-.03-.02-.03-.03-.03-.02-.03-.03-.02-.02-.03-.03-.02-.03-.03-.03-.02-.03-.02-.03-.01-.04-.02-.03-.01-.04-.02-.03-.01-.04-.01h-.03l-.04-.01h-.15l-.04.01h-.03l-.04.01-.03.01-.04.02-.03.01-.04.02-.03.01-.03.02-.03.02-.03.03-.03.02-.02.03-.03.02-.02.03-.03.03-.02.03-.02.03-.01.03-.02.04-.01.03-.02.04-.01.03-.01.04v.03l-.01.04v.15l.01.04v.03l.01.04.01.03.02.04.01.03.02.04.01.03.02.03.02.03.03.03.02.03.03.02.02.03.03.02.03.03.03.02.03.02.03.01.04.02.03.01.04.02.03.01.04.01h.03l.04.01h.15l.04-.01h.03l.04-.01.03-.01.04-.02.03-.01.04-.02.03-.01.03-.02.03-.02.03-.03.03-.02.02-.03.03-.02.02-.03.03-.03.02-.03.02-.03.01-.03.02-.04.01-.03.02-.04.01-.03.01-.04v-.03l.01-.04v-.08Z"/></g><g fill="none" stroke="#000" stroke-linecap="round" stroke-linejoin="round" stroke-width=".1" color="#000"><path d="M18.7 1.01V.94L18.69.9V.87l-.01-.04-.01-.03-.02-.04-.01-.03-.02-.04-.01-.03-.02-.03-.02-.03-.03-.03-.02-.03-.03-.02-.02-.03-.03-.02-.03-.03-.03-.02-.03-.02-.03-.01-.04-.02-.03-.01-.04-.02-.03-.01-.04-.01h-.03l-.04-.01h-.15l-.04.01h-.03l-.04.01-.03.01-.04.02-.03.01-.04.02-.03.01-.03.02-.03.02-.03.03-.03.02-.02.03-.03.02-.02.03-.03.03-.02.03-.02.03-.01.03-.02.04-.01.03-.02.04-.01.03-.01.04V.9l-.01.04v.15l.01.04v.03l.01.04.01.03.02.04.01.03.02.04.01.03.02.03.02.03.03.03.02.03.03.02.02.03.03.02.03.03.03.02.03.02.03.01.04.02.03.01.04.02.03.01.04.01h.03l.04.01h.15l.04-.01h.03l.04-.01.03-.01.04-.02.03-.01.04-.02.03-.01.03-.02.03-.02.03-.03.03-.02.02-.03.03-.02.02-.03.03-.03.02-.03.02-.03.01-.03.02-.04.01-.03.02-.04.01-.03.01-.04v-.03l.01-.04v-.08Z"/><path d="M18.7 1.01V.94L18.69.9V.87l-.01-.04-.01-.03-.02-.04-.01-.03-.02-.04-.01-.03-.02-.03-.02-.03-.03-.03-.02-.03-.03-.02-.02-.03-.03-.02-.03-.03-.03-.02-.03-.02-.03-.01-.04-.02-.03-.01-.04-.02-.03-.01-.04-.01h-.03l-.04-.01h-.15l-.04.01h-.03l-.04.01-.03.01-.04.02-.03.01-.04.02-.03.01-.03.02-.03.02-.03.03-.03.02-.02.03-.03.02-.02.03-.03.03-.02.03-.02.03-.01.03-.02.04-.01.03-.02.04-.01.03-.01.04V.9l-.01.04v.15l.01.04v.03l.01.04.01.03.02.04.01.03.02.04.01.03.02.03.02.03.03.03.02.03.03.02.02.03.03.02.03.03.03.02.03.02.03.01.04.02.03.01.04.02.03.01.04.01h.03l.04.01h.15l.04-.01h.03l.04-.01.03-.01.04-.02.03-.01.04-.02.03-.01.03-.02.03-.02.03-.03.03-.02.02-.03.03-.02.02-.03.03-.03.02-.03.02-.03.01-.03.02-.04.01-.03.02-.04.01-.03.01-.04v-.03l.01-.04v-.08Z"/></g><g fill="none" stroke="#000" stroke-linecap="round" stroke-linejoin="round" stroke-width=".1" color="#000"><path d="M21.69 2.01v-.07l-.01-.04v-.03l-.01-.04-.01-.03-.02-.04-.01-.03-.02-.04-.01-.03-.02-.03-.02-.03-.03-.03-.02-.03-.03-.02-.02-.03-.03-.02-.03-.03-.03-.02-.03-.02-.03-.01-.04-.02-.03-.01-.04-.02-.03-.01-.04-.01h-.03l-.04-.01h-.15l-.04.01h-.03l-.04.01-.03.01-.04.02-.03.01-.04.02-.03.01-.03.02-.03.02-.03.03-.03.02-.02.03-.03.02-.02.03-.03.03-.02.03-.02.03-.01.03-.02.04-.01.03-.02.04-.01.03-.01.04v.03l-.01.04v.15l.01.04v.03l.01.04.01.03.02.04.01.03.02.04.01.03.02.03.02.03.03.03.02.03.03.02.02.03.03.02.03.03.03.02.03.02.03.01.04.02.03.01.04.02.03.01.04.01h.03l.04.01h.15l.04-.01h.03l.04-.01.03-.01.04-.02.03-.01.04-.02.03-.01.03-.02.03-.02.03-.03.03-.02.02-.03.03-.02.02-.03.03-.03.02-.03.02-.03.01-.03.02-.04.01-.03.02-.04.01-.03.01-.04v-.03l.01-.04v-.08Z"/><path d="M21.69 2.01v-.07l-.01-.04v-.03l-.01-.04-.01-.03-.02-.04-.01-.03-.02-.04-.01-.03-.02-.03-.02-.03-.03-.03-.02-.03-.03-.02-.02-.03-.03-.02-.03-.03-.03-.02-.03-.02-.03-.01-.04-.02-.03-.01-.04-.02-.03-.01-.04-.01h-.03l-.04-.01h-.15l-.04.01h-.03l-.04.01-.03.01-.04.02-.03.01-.04.02-.03.01-.03.02-.03.02-.03.03-.03.02-.02.03-.03.02-.02.03-.03.03-.02.03-.02.03-.01.03-.02.04-.01.03-.02.04-.01.03-.01.04v.03l-.01.04v.15l.01.04v.03l.01.04.01.03.02.04.01.03.02.04.01.03.02.03.02.03.03.03.02.03.03.02.02.03.03.02.03.03.03.02.03.02.03.01.04.02.03.01.04.02.03.01.04.01h.03l.04.01h.15l.04-.01h.03l.04-.01.03-.01.04-.02.03-.01.04-.02.03-.01.03-.02.03-.02.03-.03.03-.02.02-.03.03-.02.02-.03.03-.03.02-.03.02-.03.01-.03.02-.04.01-.03.02-.04.01-.03.01-.04v-.03l.01-.04v-.08Z"/></g><g fill="none" stroke="#000" stroke-linecap="round" stroke-linejoin="round" stroke-width=".1" color="#000"><path d="M24.69 3v-.07l-.01-.04v-.03l-.01-.04-.01-.03-.02-.04-.01-.03-.02-.04-.01-.03-.02-.03-.02-.03-.03-.03-.02-.03-.03-.02-.02-.03-.03-.02-.03-.03-.03-.02-.03-.02-.03-.01-.04-.02-.03-.01-.04-.02-.03-.01-.04-.01h-.03l-.04-.01h-.15l-.04.01h-.03l-.04.01-.03.01-.04.02-.03.01-.04.02-.03.01-.03.02-.03.02-.03.03-.03.02-.02.03-.03.02-.02.03-.03.03-.02.03-.02.03-.01.03-.02.04-.01.03-.02.04-.01.03-.01.04v.03l-.01.04v.15l.01.04v.03l.01.04.01.03.02.04.01.03.02.04.01.03.02.03.02.03.03.03.02.03.03.02.02.03.03.02.03.03.03.02.03.02.03.01.04.02.03.01.04.02.03.01.04.01h.03l.04.01h.15l.04-.01h.03l.04-.01.03-.01.04-.02.03-.01.04-.02.03-.01.03-.02.03-.02.03-.03.03-.02.02-.03.03-.02.02-.03.03-.03.02-.03.02-.03.01-.03.02-.04.01-.03.02-.04.01-.03.01-.04v-.03l.01-.04V3Z"/><path d="M24.69 3v-.07l-.01-.04v-.03l-.01-.04-.01-.03-.02-.04-.01-.03-.02-.04-.01-.03-.02-.03-.02-.03-.03-.03-.02-.03-.03-.02-.02-.03-.03-.02-.03-.03-.03-.02-.03-.02-.03-.01-.04-.02-.03-.01-.04-.02-.03-.01-.04-.01h-.03l-.04-.01h-.15l-.04.01h-.03l-.04.01-.03.01-.04.02-.03.01-.04.02-.03.01-.03.02-.03.02-.03.03-.03.02-.02.03-.03.02-.02.03-.03.03-.02.03-.02.03-.01.03-.02.04-.01.03-.02.04-.01.03-.01.04v.03l-.01.04v.15l.01.04v.03l.01.04.01.03.02.04.01.03.02.04.01.03.02.03.02.03.03.03.02.03.03.02.02.03.03.02.03.03.03.02.03.02.03.01.04.02.03.01.04.02.03.01.04.01h.03l.04.01h.15l.04-.01h.03l.04-.01.03-.01.04-.02.03-.01.04-.02.03-.01.03-.02.03-.02.03-.03.03-.02.02-.03.03-.02.02-.03.03-.03.02-.03.02-.03.01-.03.02-.04.01-.03.02-.04.01-.03.01-.04v-.03l.01-.04V3Z"/></g><path fill="none" stroke="#000" stroke-linecap="round" stroke-linejoin="round" stroke-width=".1" d="M27.69 4v-.07l-.01-.04v-.03l-.01-.04-.01-.03-.02-.04-.01-.03-.02-.04-.01-.03-.02-.03-.02-.03-.03-.03-.02-.03-.03-.02-.02-.03-.03-.02-.03-.03-.03-.02-.03-.02-.03-.01-.04-.02-.03-.01-.04-.02-.03-.01-.04-.01h-.03l-.04-.01h-.15l-.04.01h-.03l-.04.01-.03.01-.04.02-.03.01-.04.02-.03.01-.03.02-.03.02-.03.03-.03.02-.02.03-.03.02-.02.03-.03.03-.02.03-.02.03-.01.03-.02.04-.01.03-.02.04-.01.03-.01.04v.03l-.01.04v.15l.01.04v.03l.01.04.01.03.02.04.01.03.02.04.01.03.02.03.02.03.03.03.02.03.03.02.02.03.03.02.03.03.03.02.03.02.03.01.04.02.03.01.04.02.03.01.04.01h.03l.04.01h.15l.04-.01h.03l.04-.01.03-.01.04-.02.03-.01.04-.02.03-.01.03-.02.03-.02.03-.03.03-.02.02-.03.03-.02.02-.03.03-.03.02-.03.02-.03.01-.03.02-.04.01-.03.02-.04.01-.03.01-.04v-.03l.01-.04v-.07m0-.01v-.07l-.01-.04v-.03l-.01-.04-.01-.03-.02-.04-.01-.03-.02-.04-.01-.03-.02-.03-.02-.03-.03-.03-.02-.03-.03-.02-.02-.03-.03-.02-.03-.03-.03-.02-.03-.02-.03-.01-.04-.02-.03-.01-.04-.02-.03-.01-.04-.01h-.03l-.04-.01h-.15l-.04.01h-.03l-.04.01-.03.01-.04.02-.03.01-.04.02-.03.01-.03.02-.03.02-.03.03-.03.02-.02.03-.03.02-.02.03-.03.03-.02.03-.02.03-.01.03-.02.04-.01.03-.02.04-.01.03-.01.04v.03l-.01.04v.15l.01.04v.03l.01.04.01.03.02.04.01.03.02.04.01.03.02.03.02.03.03.03.02.03.03.02.02.03.03.02.03.03.03.02.03.02.03.01.04.02.03.01.04.02.03.01.04.01h.03l.04.01h.15l.04-.01h.03l.04-.01.03-.01.04-.02.03-.01.04-.02.03-.01.03-.02.03-.02.03-.03.03-.02.02-.03.03-.02.02-.03.03-.03.02-.03.02-.03.01-.03.02-.04.01-.03.02-.04.01-.03.01-.04v-.03l.01-.04v-.07" color="#000"/></svg>