<svg xmlns="http://www.w3.org/2000/svg" viewBox="0 0 36 12"><path fill="none" d="M0 0h36v12H0z"/><path fill="none" d="M0 12h.75m35.24 0h-.75M0 11h.75m35.24 0h-.75M0 10h.75m35.24 0h-.75M0 9h.75m35.24 0h-.75M0 8h.75m35.24 0h-.75M0 7h.75m35.24 0h-.75M0 6h.75m35.24 0h-.75M0 5.01h.75m35.24 0h-.75M0 4.01h.75m35.24 0h-.75M0 3.01h.75m35.24 0h-.75M0 2.01h.75m35.24 0h-.75M0 1.01h.75m35.24 0h-.75M0 .01h.75m35.24 0h-.75M0 12v-.75M0 .01v.75M1 12v-.75M1 .01v.75M2 12v-.75M2 .01v.75M3 12v-.75M3 .01v.75M4 12v-.75M4 .01v.75M5 12v-.75M5 .01v.75M6 12v-.75M6 .01v.75M7 12v-.75M7 .01v.75M8 12v-.75M8 .01v.75M9 12v-.75M9 .01v.75M10 12v-.75M10 .01v.75M11 12v-.75M11 .01v.75M12 12v-.75M12 .01v.75M13 12v-.75M13 .01v.75M14 12v-.75M14 .01v.75M15 12v-.75M15 .01v.75M16 12v-.75M16 .01v.75M17 12v-.75M17 .01v.75M18 12v-.75M18 .01v.75M18.99 12v-.75m0-11.24v.75m1 11.24v-.75m0-11.24v.75m1 11.24v-.75m0-11.24v.75m1 11.24v-.75m0-11.24v.75m1 11.24v-.75m0-11.24v.75m1 11.24v-.75m0-11.24v.75m1 11.24v-.75m0-11.24v.75m1 11.24v-.75m0-11.24v.75m1 11.24v-.75m0-11.24v.75m1 11.24v-.75m0-11.24v.75m1 11.24v-.75m0-11.24v.75m1 11.24v-.75m0-11.24v.75m1 11.24v-.75m0-11.24v.75m1 11.24v-.75m0-11.24v.75m1 11.24v-.75m0-11.24v.75m1 11.24v-.75m0-11.24v.75m1 11.24v-.75m0-11.24v.75m1 11.24v-.75m0-11.24v.75" color="#000"/><path fill="none" stroke="#2962FF" stroke-linecap="round" stroke-linejoin="round" stroke-width=".1" d="M1 11.5v-.99h.99v.99H1Zm1 0v-.99h.99v.99H2Zm1 0v-.99h.99v.99H3Zm1 0v-.99h.99v.99H4Zm1 0v-.99h.99v.99H5Zm1 0v-.99h.99v.99H6Zm1 0v-.99h.99v.99H7Zm1 0v-.99h.99v.99H8Z" color="#000"/><path fill="none" stroke="#EC6F1A" stroke-linecap="round" stroke-linejoin="round" stroke-width=".1" d="M11 9.5v-.99h.99v.99H11Zm1 0v-.99h.99v.99H12Zm1 0v-.99h.99v.99H13Zm1 0v-.99h.99v.99H14Z" color="#000"/><path fill="none" stroke="#2962FF" stroke-linecap="round" stroke-linejoin="round" stroke-width=".1" d="M19.99 11.5v-.99h.99v.99h-.99Zm1 0v-.99h.99v.99h-.99Zm1 0v-.99h.99v.99h-.99Zm1 0v-.99h.99v.99h-.99Zm1 0v-.99h.99v.99h-.99Zm1 0v-.99h.99v.99h-.99Zm1 0v-.99h.99v.99h-.99Zm1 0v-.99h.99v.99h-.99Z" color="#000"/><path fill="none" stroke="#EC6F1A" stroke-linecap="round" stroke-linejoin="round" stroke-width=".1" d="M30.99 7.5v-.99h.99v.99h-.99Z" color="#000"/><g fill="none" stroke="currentColor" stroke-linecap="round" stroke-linejoin="round" stroke-width=".1" color="#000"><path stroke="#EC6F1A" d="M31.99 7.5v-.99h.99v.99h-.99Z"/><text fill="#000" stroke="none" font-family="KaTeX_Typewriter" font-size="1" text-anchor="middle" transform="translate(9 1.34)"><tspan>BALANCED</tspan></text><text fill="#000" stroke="none" font-family="KaTeX_Typewriter" font-size="1" text-anchor="middle" transform="translate(27.99 1.34)"><tspan>NOT BALANCED</tspan></text><text fill="#2962FF" stroke="none" font-family="KaTeX_Typewriter" font-size="1" text-anchor="middle" transform="translate(10 11.33)"><tspan>8</tspan></text><text fill="#EC6F1A" stroke="none" font-family="KaTeX_Typewriter" font-size="1" text-anchor="middle" transform="translate(16 9.33)"><tspan>4</tspan></text><text fill="#2962FF" stroke="none" font-family="KaTeX_Typewriter" font-size="1" text-anchor="middle" transform="translate(28.99 11.33)"><tspan>8</tspan></text><text fill="#EC6F1A" stroke="none" font-family="KaTeX_Typewriter" font-size="1" text-anchor="middle" transform="translate(33.99 7.33)"><tspan>2</tspan></text><path stroke="#000" d="m5.01 5-2 1.99m2-1.99 2 1.99m-4 0-1 2m1-2 1 2m3-2-1 2m1-2 1 2m-6.26 1.03.02-.06m.5.06-.02-.06m1.5.06.02-.06m.5.06-.02-.06m1.5.06.02-.06m.5.06-.02-.06m1.5.06.02-.06m.49.06-.01-.06M9.01 3l-4 2m4-2 4 2-1 1.99m1-1.99 1 1.99m-2.26 1.03.01-.06m.5.06-.01-.06m1.5.06.01-.06m.5.06-.01-.06M24 5l-2 1.99M24 5l2 1.99m-4 0-1 2m1-2 1 2m3-2-1 2m1-2 1 2m-6.25 1.03.01-.06m.5.06-.01-.06m1.5.06.01-.06m.5.06-.01-.06m1.5.06.01-.06m.5.06-.01-.06m1.5.06.01-.06m.5.06-.01-.06M28 3l-4 2m4-2 4 2m-.47.94-.05.11m1-.11.05.11"/></g><g fill="none" stroke="currentColor" stroke-linecap="round" stroke-linejoin="round" stroke-width=".1" color="#000"><path fill="#000" stroke="none" d="M5.35 5.01v-.03l-.01-.02v-.04l-.01-.01-.01-.02v-.02l-.01-.02-.01-.01-.01-.02-.01-.01-.01-.02-.01-.01-.02-.01-.01-.02-.01-.01-.02-.01-.01-.01-.02-.01-.01-.01-.02-.01h-.02l-.02-.01-.01-.01h-.04l-.02-.01h-.07l-.02.01H4.9l-.01.01-.02.01h-.02l-.02.01-.01.01-.02.01-.01.01-.02.01-.01.01-.01.02-.02.01-.01.01-.01.02-.01.01-.01.02-.01.01-.01.02v.02l-.01.02-.01.01v.04l-.01.02v.07l.01.02v.04l.01.01.01.02v.02l.01.02.01.01.01.02.01.01.01.02.01.01.02.01.01.02.01.01.02.01.01.01.02.01.01.01.02.01h.02l.02.01.01.01h.04l.02.01h.07l.02-.01h.04l.01-.01.02-.01h.02l.02-.01.01-.01.02-.01.01-.01.02-.01.01-.01.01-.02.02-.01.01-.01.01-.02.01-.01.01-.02.01-.01.01-.02v-.02l.01-.02.01-.01v-.04l.01-.02v-.02z" shape-rendering="crispEdges"/><path stroke="#000" d="M5.35 5.01v-.03l-.01-.02v-.04l-.01-.01-.01-.02v-.02l-.01-.02-.01-.01-.01-.02-.01-.01-.01-.02-.01-.01-.02-.01-.01-.02-.01-.01-.02-.01-.01-.01-.02-.01-.01-.01-.02-.01h-.02l-.02-.01-.01-.01h-.04l-.02-.01h-.07l-.02.01H4.9l-.01.01-.02.01h-.02l-.02.01-.01.01-.02.01-.01.01-.02.01-.01.01-.01.02-.02.01-.01.01-.01.02-.01.01-.01.02-.01.01-.01.02v.02l-.01.02-.01.01v.04l-.01.02v.07l.01.02v.04l.01.01.01.02v.02l.01.02.01.01.01.02.01.01.01.02.01.01.02.01.01.02.01.01.02.01.01.01.02.01.01.01.02.01h.02l.02.01.01.01h.04l.02.01h.07l.02-.01h.04l.01-.01.02-.01h.02l.02-.01.01-.01.02-.01.01-.01.02-.01.01-.01.01-.02.02-.01.01-.01.01-.02.01-.01.01-.02.01-.01.01-.02v-.02l.01-.02.01-.01v-.04l.01-.02v-.04Z"/></g><g fill="none" stroke="currentColor" stroke-linecap="round" stroke-linejoin="round" stroke-width=".1" color="#000"><path fill="#000" stroke="none" d="M3.35 7v-.03l-.01-.02v-.04l-.01-.01-.01-.02v-.02l-.01-.02-.01-.01-.01-.02-.01-.01-.01-.02-.01-.01-.02-.01-.01-.02-.01-.01-.02-.01-.01-.01-.02-.01-.01-.01-.02-.01h-.02l-.02-.01-.01-.01h-.04l-.02-.01h-.07l-.02.01H2.9l-.01.01-.02.01h-.02l-.02.01-.01.01-.02.01-.01.01-.02.01-.01.01-.01.02-.02.01-.01.01-.01.02-.01.01-.01.02-.01.01-.01.02v.02l-.01.02-.01.01v.04l-.01.02v.07l.01.02v.04l.01.01.01.02v.02l.01.02.01.01.01.02.01.01.01.02.01.01.02.01.01.02.01.01.02.01.01.01.02.01.01.01.02.01h.02l.02.01.01.01h.04l.02.01h.07l.02-.01h.04l.01-.01.02-.01h.02l.02-.01.01-.01.02-.01.01-.01.02-.01.01-.01.01-.02.02-.01.01-.01.01-.02.01-.01.01-.02.01-.01.01-.02v-.02l.01-.02.01-.01v-.04l.01-.02v-.02z" shape-rendering="crispEdges"/><path stroke="#000" d="M3.35 7v-.03l-.01-.02v-.04l-.01-.01-.01-.02v-.02l-.01-.02-.01-.01-.01-.02-.01-.01-.01-.02-.01-.01-.02-.01-.01-.02-.01-.01-.02-.01-.01-.01-.02-.01-.01-.01-.02-.01h-.02l-.02-.01-.01-.01h-.04l-.02-.01h-.07l-.02.01H2.9l-.01.01-.02.01h-.02l-.02.01-.01.01-.02.01-.01.01-.02.01-.01.01-.01.02-.02.01-.01.01-.01.02-.01.01-.01.02-.01.01-.01.02v.02l-.01.02-.01.01v.04l-.01.02v.07l.01.02v.04l.01.01.01.02v.02l.01.02.01.01.01.02.01.01.01.02.01.01.02.01.01.02.01.01.02.01.01.01.02.01.01.01.02.01h.02l.02.01.01.01h.04l.02.01h.07l.02-.01h.04l.01-.01.02-.01h.02l.02-.01.01-.01.02-.01.01-.01.02-.01.01-.01.01-.02.02-.01.01-.01.01-.02.01-.01.01-.02.01-.01.01-.02v-.02l.01-.02.01-.01v-.04l.01-.02V7Z"/></g><g fill="none" stroke="currentColor" stroke-linecap="round" stroke-linejoin="round" stroke-width=".1" color="#000"><path fill="#000" stroke="none" d="M7.35 7v-.03l-.01-.02v-.04l-.01-.01-.01-.02v-.02l-.01-.02-.01-.01-.01-.02-.01-.01-.01-.02-.01-.01-.02-.01-.01-.02-.01-.01-.02-.01-.01-.01-.02-.01-.01-.01-.02-.01h-.02l-.02-.01-.01-.01h-.04l-.02-.01h-.07l-.02.01H6.9l-.01.01-.02.01h-.02l-.02.01-.01.01-.02.01-.01.01-.02.01-.01.01-.01.02-.02.01-.01.01-.01.02-.01.01-.01.02-.01.01-.01.02v.02l-.01.02-.01.01v.04l-.01.02v.07l.01.02v.04l.01.01.01.02v.02l.01.02.01.01.01.02.01.01.01.02.01.01.02.01.01.02.01.01.02.01.01.01.02.01.01.01.02.01h.02l.02.01.01.01h.04l.02.01h.07l.02-.01h.04l.01-.01.02-.01h.02l.02-.01.01-.01.02-.01.01-.01.02-.01.01-.01.01-.02.02-.01.01-.01.01-.02.01-.01.01-.02.01-.01.01-.02v-.02l.01-.02.01-.01v-.04l.01-.02v-.02z" shape-rendering="crispEdges"/><path stroke="#000" d="M7.35 7v-.03l-.01-.02v-.04l-.01-.01-.01-.02v-.02l-.01-.02-.01-.01-.01-.02-.01-.01-.01-.02-.01-.01-.02-.01-.01-.02-.01-.01-.02-.01-.01-.01-.02-.01-.01-.01-.02-.01h-.02l-.02-.01-.01-.01h-.04l-.02-.01h-.07l-.02.01H6.9l-.01.01-.02.01h-.02l-.02.01-.01.01-.02.01-.01.01-.02.01-.01.01-.01.02-.02.01-.01.01-.01.02-.01.01-.01.02-.01.01-.01.02v.02l-.01.02-.01.01v.04l-.01.02v.07l.01.02v.04l.01.01.01.02v.02l.01.02.01.01.01.02.01.01.01.02.01.01.02.01.01.02.01.01.02.01.01.01.02.01.01.01.02.01h.02l.02.01.01.01h.04l.02.01h.07l.02-.01h.04l.01-.01.02-.01h.02l.02-.01.01-.01.02-.01.01-.01.02-.01.01-.01.01-.02.02-.01.01-.01.01-.02.01-.01.01-.02.01-.01.01-.02v-.02l.01-.02.01-.01v-.04l.01-.02V7Z"/></g><g fill="none" stroke="currentColor" stroke-linecap="round" stroke-linejoin="round" stroke-width=".1" color="#000"><path fill="#000" stroke="none" d="M2.35 9v-.03l-.01-.02v-.04l-.01-.01-.01-.02v-.02l-.01-.02-.01-.01-.01-.02-.01-.01-.01-.02-.01-.01-.02-.01-.01-.02-.01-.01-.02-.01-.01-.01-.02-.01-.01-.01-.02-.01h-.02l-.02-.01-.01-.01h-.04l-.02-.01h-.07l-.02.01H1.9l-.01.01-.02.01h-.02l-.02.01-.01.01-.02.01-.01.01-.02.01-.01.01-.01.02-.02.01-.01.01-.01.02-.01.01-.01.02-.01.01-.01.02v.02l-.01.02-.01.01v.04l-.01.02v.07l.01.02v.04l.01.01.01.02v.02l.01.02.01.01.01.02.01.01.01.02.01.01.02.01.01.02.01.01.02.01.01.01.02.01.01.01.02.01h.02l.02.01.01.01h.04l.02.01h.07l.02-.01h.04l.01-.01.02-.01h.02l.02-.01.01-.01.02-.01.01-.01.02-.01.01-.01.01-.02.02-.01.01-.01.01-.02.01-.01.01-.02.01-.01.01-.02v-.02l.01-.02.01-.01v-.04l.01-.02v-.02z" shape-rendering="crispEdges"/><path stroke="#000" d="M2.35 9v-.03l-.01-.02v-.04l-.01-.01-.01-.02v-.02l-.01-.02-.01-.01-.01-.02-.01-.01-.01-.02-.01-.01-.02-.01-.01-.02-.01-.01-.02-.01-.01-.01-.02-.01-.01-.01-.02-.01h-.02l-.02-.01-.01-.01h-.04l-.02-.01h-.07l-.02.01H1.9l-.01.01-.02.01h-.02l-.02.01-.01.01-.02.01-.01.01-.02.01-.01.01-.01.02-.02.01-.01.01-.01.02-.01.01-.01.02-.01.01-.01.02v.02l-.01.02-.01.01v.04l-.01.02v.07l.01.02v.04l.01.01.01.02v.02l.01.02.01.01.01.02.01.01.01.02.01.01.02.01.01.02.01.01.02.01.01.01.02.01.01.01.02.01h.02l.02.01.01.01h.04l.02.01h.07l.02-.01h.04l.01-.01.02-.01h.02l.02-.01.01-.01.02-.01.01-.01.02-.01.01-.01.01-.02.02-.01.01-.01.01-.02.01-.01.01-.02.01-.01.01-.02v-.02l.01-.02.01-.01v-.04l.01-.02V9Z"/></g><g fill="none" stroke="currentColor" stroke-linecap="round" stroke-linejoin="round" stroke-width=".1" color="#000"><path fill="#000" stroke="none" d="M4.35 9v-.03l-.01-.02v-.04l-.01-.01-.01-.02v-.02l-.01-.02-.01-.01-.01-.02-.01-.01-.01-.02-.01-.01-.02-.01-.01-.02-.01-.01-.02-.01-.01-.01-.02-.01-.01-.01-.02-.01h-.02l-.02-.01-.01-.01h-.04l-.02-.01h-.07l-.02.01H3.9l-.01.01-.02.01h-.02l-.02.01-.01.01-.02.01-.01.01-.02.01-.01.01-.01.02-.02.01-.01.01-.01.02-.01.01-.01.02-.01.01-.01.02v.02l-.01.02-.01.01v.04l-.01.02v.07l.01.02v.04l.01.01.01.02v.02l.01.02.01.01.01.02.01.01.01.02.01.01.02.01.01.02.01.01.02.01.01.01.02.01.01.01.02.01h.02l.02.01.01.01h.04l.02.01h.07l.02-.01h.04l.01-.01.02-.01h.02l.02-.01.01-.01.02-.01.01-.01.02-.01.01-.01.01-.02.02-.01.01-.01.01-.02.01-.01.01-.02.01-.01.01-.02v-.02l.01-.02.01-.01v-.04l.01-.02v-.02z" shape-rendering="crispEdges"/><path stroke="#000" d="M4.35 9v-.03l-.01-.02v-.04l-.01-.01-.01-.02v-.02l-.01-.02-.01-.01-.01-.02-.01-.01-.01-.02-.01-.01-.02-.01-.01-.02-.01-.01-.02-.01-.01-.01-.02-.01-.01-.01-.02-.01h-.02l-.02-.01-.01-.01h-.04l-.02-.01h-.07l-.02.01H3.9l-.01.01-.02.01h-.02l-.02.01-.01.01-.02.01-.01.01-.02.01-.01.01-.01.02-.02.01-.01.01-.01.02-.01.01-.01.02-.01.01-.01.02v.02l-.01.02-.01.01v.04l-.01.02v.07l.01.02v.04l.01.01.01.02v.02l.01.02.01.01.01.02.01.01.01.02.01.01.02.01.01.02.01.01.02.01.01.01.02.01.01.01.02.01h.02l.02.01.01.01h.04l.02.01h.07l.02-.01h.04l.01-.01.02-.01h.02l.02-.01.01-.01.02-.01.01-.01.02-.01.01-.01.01-.02.02-.01.01-.01.01-.02.01-.01.01-.02.01-.01.01-.02v-.02l.01-.02.01-.01v-.04l.01-.02V9Z"/></g><g fill="none" stroke="currentColor" stroke-linecap="round" stroke-linejoin="round" stroke-width=".1" color="#000"><path fill="#000" stroke="none" d="M6.35 9v-.03l-.01-.02v-.04l-.01-.01-.01-.02v-.02l-.01-.02-.01-.01-.01-.02-.01-.01-.01-.02-.01-.01-.02-.01-.01-.02-.01-.01-.02-.01-.01-.01-.02-.01-.01-.01-.02-.01h-.02l-.02-.01-.01-.01h-.04l-.02-.01h-.07l-.02.01H5.9l-.01.01-.02.01h-.02l-.02.01-.01.01-.02.01-.01.01-.02.01-.01.01-.01.02-.02.01-.01.01-.01.02-.01.01-.01.02-.01.01-.01.02v.02l-.01.02-.01.01v.04l-.01.02v.07l.01.02v.04l.01.01.01.02v.02l.01.02.01.01.01.02.01.01.01.02.01.01.02.01.01.02.01.01.02.01.01.01.02.01.01.01.02.01h.02l.02.01.01.01h.04l.02.01h.07l.02-.01h.04l.01-.01.02-.01h.02l.02-.01.01-.01.02-.01.01-.01.02-.01.01-.01.01-.02.02-.01.01-.01.01-.02.01-.01.01-.02.01-.01.01-.02v-.02l.01-.02.01-.01v-.04l.01-.02v-.02z" shape-rendering="crispEdges"/><path stroke="#000" d="M6.35 9v-.03l-.01-.02v-.04l-.01-.01-.01-.02v-.02l-.01-.02-.01-.01-.01-.02-.01-.01-.01-.02-.01-.01-.02-.01-.01-.02-.01-.01-.02-.01-.01-.01-.02-.01-.01-.01-.02-.01h-.02l-.02-.01-.01-.01h-.04l-.02-.01h-.07l-.02.01H5.9l-.01.01-.02.01h-.02l-.02.01-.01.01-.02.01-.01.01-.02.01-.01.01-.01.02-.02.01-.01.01-.01.02-.01.01-.01.02-.01.01-.01.02v.02l-.01.02-.01.01v.04l-.01.02v.07l.01.02v.04l.01.01.01.02v.02l.01.02.01.01.01.02.01.01.01.02.01.01.02.01.01.02.01.01.02.01.01.01.02.01.01.01.02.01h.02l.02.01.01.01h.04l.02.01h.07l.02-.01h.04l.01-.01.02-.01h.02l.02-.01.01-.01.02-.01.01-.01.02-.01.01-.01.01-.02.02-.01.01-.01.01-.02.01-.01.01-.02.01-.01.01-.02v-.02l.01-.02.01-.01v-.04l.01-.02V9Z"/></g><g fill="none" stroke="currentColor" stroke-linecap="round" stroke-linejoin="round" stroke-width=".1" color="#000"><path fill="#000" stroke="none" d="M8.35 9v-.03l-.01-.02v-.04l-.01-.01-.01-.02v-.02l-.01-.02-.01-.01-.01-.02-.01-.01-.01-.02-.01-.01-.02-.01-.01-.02-.01-.01-.02-.01-.01-.01-.02-.01-.01-.01-.02-.01h-.02l-.02-.01-.01-.01h-.04l-.02-.01h-.07l-.02.01H7.9l-.01.01-.02.01h-.02l-.02.01-.01.01-.02.01-.01.01-.02.01-.01.01-.01.02-.02.01-.01.01-.01.02-.01.01-.01.02-.01.01-.01.02v.02l-.01.02-.01.01v.04l-.01.02v.07l.01.02v.04l.01.01.01.02v.02l.01.02.01.01.01.02.01.01.01.02.01.01.02.01.01.02.01.01.02.01.01.01.02.01.01.01.02.01h.02l.02.01.01.01h.04l.02.01h.07l.02-.01h.04l.01-.01.02-.01h.02l.02-.01.01-.01.02-.01.01-.01.02-.01.01-.01.01-.02.02-.01.01-.01.01-.02.01-.01.01-.02.01-.01.01-.02v-.02l.01-.02.01-.01v-.04l.01-.02v-.02z" shape-rendering="crispEdges"/><path stroke="#000" d="M8.35 9v-.03l-.01-.02v-.04l-.01-.01-.01-.02v-.02l-.01-.02-.01-.01-.01-.02-.01-.01-.01-.02-.01-.01-.02-.01-.01-.02-.01-.01-.02-.01-.01-.01-.02-.01-.01-.01-.02-.01h-.02l-.02-.01-.01-.01h-.04l-.02-.01h-.07l-.02.01H7.9l-.01.01-.02.01h-.02l-.02.01-.01.01-.02.01-.01.01-.02.01-.01.01-.01.02-.02.01-.01.01-.01.02-.01.01-.01.02-.01.01-.01.02v.02l-.01.02-.01.01v.04l-.01.02v.07l.01.02v.04l.01.01.01.02v.02l.01.02.01.01.01.02.01.01.01.02.01.01.02.01.01.02.01.01.02.01.01.01.02.01.01.01.02.01h.02l.02.01.01.01h.04l.02.01h.07l.02-.01h.04l.01-.01.02-.01h.02l.02-.01.01-.01.02-.01.01-.01.02-.01.01-.01.01-.02.02-.01.01-.01.01-.02.01-.01.01-.02.01-.01.01-.02v-.02l.01-.02.01-.01v-.04l.01-.02V9Z"/></g><g fill="none" stroke="currentColor" stroke-linecap="round" stroke-linejoin="round" stroke-width=".1" color="#000"><path fill="#000" stroke="none" d="M9.35 3.01v-.03l-.01-.02v-.04l-.01-.01-.01-.02v-.02l-.01-.02-.01-.01-.01-.02-.01-.01-.01-.02-.01-.01-.02-.01-.01-.02-.01-.01-.02-.01-.01-.01-.02-.01-.01-.01-.02-.01h-.02l-.02-.01-.01-.01h-.04l-.02-.01h-.07l-.02.01H8.9l-.01.01-.02.01h-.02l-.02.01-.01.01-.02.01-.01.01-.02.01-.01.01-.01.02-.02.01-.01.01-.01.02-.01.01-.01.02-.01.01-.01.02v.02l-.01.02-.01.01v.04l-.01.02v.07l.01.02v.04l.01.01.01.02v.02l.01.02.01.01.01.02.01.01.01.02.01.01.02.01.01.02.01.01.02.01.01.01.02.01.01.01.02.01h.02l.02.01.01.01h.04l.02.01h.07l.02-.01h.04l.01-.01.02-.01h.02l.02-.01.01-.01.02-.01.01-.01.02-.01.01-.01.01-.02.02-.01.01-.01.01-.02.01-.01.01-.02.01-.01.01-.02v-.02l.01-.02.01-.01v-.04l.01-.02v-.02z" shape-rendering="crispEdges"/><path stroke="#000" d="M9.35 3.01v-.03l-.01-.02v-.04l-.01-.01-.01-.02v-.02l-.01-.02-.01-.01-.01-.02-.01-.01-.01-.02-.01-.01-.02-.01-.01-.02-.01-.01-.02-.01-.01-.01-.02-.01-.01-.01-.02-.01h-.02l-.02-.01-.01-.01h-.04l-.02-.01h-.07l-.02.01H8.9l-.01.01-.02.01h-.02l-.02.01-.01.01-.02.01-.01.01-.02.01-.01.01-.01.02-.02.01-.01.01-.01.02-.01.01-.01.02-.01.01-.01.02v.02l-.01.02-.01.01v.04l-.01.02v.07l.01.02v.04l.01.01.01.02v.02l.01.02.01.01.01.02.01.01.01.02.01.01.02.01.01.02.01.01.02.01.01.01.02.01.01.01.02.01h.02l.02.01.01.01h.04l.02.01h.07l.02-.01h.04l.01-.01.02-.01h.02l.02-.01.01-.01.02-.01.01-.01.02-.01.01-.01.01-.02.02-.01.01-.01.01-.02.01-.01.01-.02.01-.01.01-.02v-.02l.01-.02.01-.01v-.04l.01-.02v-.04Z"/></g><g fill="none" stroke="currentColor" stroke-linecap="round" stroke-linejoin="round" stroke-width=".1" color="#000"><path fill="#000" stroke="none" d="M13.35 5.01v-.03l-.01-.02v-.04l-.01-.01-.01-.02v-.02l-.01-.02-.01-.01-.01-.02-.01-.01-.01-.02-.01-.01-.02-.01-.01-.02-.01-.01-.02-.01-.01-.01-.02-.01-.01-.01-.02-.01h-.02l-.02-.01-.01-.01h-.04l-.02-.01h-.07l-.02.01h-.04l-.01.01-.02.01h-.02l-.02.01-.01.01-.02.01-.01.01-.02.01-.01.01-.01.02-.02.01-.01.01-.01.02-.01.01-.01.02-.01.01-.01.02v.02l-.01.02-.01.01v.04l-.01.02v.07l.01.02v.04l.01.01.01.02v.02l.01.02.01.01.01.02.01.01.01.02.01.01.02.01.01.02.01.01.02.01.01.01.02.01.01.01.02.01h.02l.02.01.01.01h.04l.02.01h.07l.02-.01h.04l.01-.01.02-.01h.02l.02-.01.01-.01.02-.01.01-.01.02-.01.01-.01.01-.02.02-.01.01-.01.01-.02.01-.01.01-.02.01-.01.01-.02v-.02l.01-.02.01-.01v-.04l.01-.02v-.02z" shape-rendering="crispEdges"/><path stroke="#000" d="M13.35 5.01v-.03l-.01-.02v-.04l-.01-.01-.01-.02v-.02l-.01-.02-.01-.01-.01-.02-.01-.01-.01-.02-.01-.01-.02-.01-.01-.02-.01-.01-.02-.01-.01-.01-.02-.01-.01-.01-.02-.01h-.02l-.02-.01-.01-.01h-.04l-.02-.01h-.07l-.02.01h-.04l-.01.01-.02.01h-.02l-.02.01-.01.01-.02.01-.01.01-.02.01-.01.01-.01.02-.02.01-.01.01-.01.02-.01.01-.01.02-.01.01-.01.02v.02l-.01.02-.01.01v.04l-.01.02v.07l.01.02v.04l.01.01.01.02v.02l.01.02.01.01.01.02.01.01.01.02.01.01.02.01.01.02.01.01.02.01.01.01.02.01.01.01.02.01h.02l.02.01.01.01h.04l.02.01h.07l.02-.01h.04l.01-.01.02-.01h.02l.02-.01.01-.01.02-.01.01-.01.02-.01.01-.01.01-.02.02-.01.01-.01.01-.02.01-.01.01-.02.01-.01.01-.02v-.02l.01-.02.01-.01v-.04l.01-.02v-.04Z"/></g><g fill="none" stroke="currentColor" stroke-linecap="round" stroke-linejoin="round" stroke-width=".1" color="#000"><path fill="#000" stroke="none" d="M12.35 7v-.03l-.01-.02v-.04l-.01-.01-.01-.02v-.02l-.01-.02-.01-.01-.01-.02-.01-.01-.01-.02-.01-.01-.02-.01-.01-.02-.01-.01-.02-.01-.01-.01-.02-.01-.01-.01-.02-.01h-.02l-.02-.01-.01-.01h-.04l-.02-.01h-.07l-.02.01h-.04l-.01.01-.02.01h-.02l-.02.01-.01.01-.02.01-.01.01-.02.01-.01.01-.01.02-.02.01-.01.01-.01.02-.01.01-.01.02-.01.01-.01.02v.02l-.01.02-.01.01v.04l-.01.02v.07l.01.02v.04l.01.01.01.02v.02l.01.02.01.01.01.02.01.01.01.02.01.01.02.01.01.02.01.01.02.01.01.01.02.01.01.01.02.01h.02l.02.01.01.01h.04l.02.01h.07l.02-.01h.04l.01-.01.02-.01h.02l.02-.01.01-.01.02-.01.01-.01.02-.01.01-.01.01-.02.02-.01.01-.01.01-.02.01-.01.01-.02.01-.01.01-.02v-.02l.01-.02.01-.01v-.04l.01-.02v-.02z" shape-rendering="crispEdges"/><path stroke="#000" d="M12.35 7v-.03l-.01-.02v-.04l-.01-.01-.01-.02v-.02l-.01-.02-.01-.01-.01-.02-.01-.01-.01-.02-.01-.01-.02-.01-.01-.02-.01-.01-.02-.01-.01-.01-.02-.01-.01-.01-.02-.01h-.02l-.02-.01-.01-.01h-.04l-.02-.01h-.07l-.02.01h-.04l-.01.01-.02.01h-.02l-.02.01-.01.01-.02.01-.01.01-.02.01-.01.01-.01.02-.02.01-.01.01-.01.02-.01.01-.01.02-.01.01-.01.02v.02l-.01.02-.01.01v.04l-.01.02v.07l.01.02v.04l.01.01.01.02v.02l.01.02.01.01.01.02.01.01.01.02.01.01.02.01.01.02.01.01.02.01.01.01.02.01.01.01.02.01h.02l.02.01.01.01h.04l.02.01h.07l.02-.01h.04l.01-.01.02-.01h.02l.02-.01.01-.01.02-.01.01-.01.02-.01.01-.01.01-.02.02-.01.01-.01.01-.02.01-.01.01-.02.01-.01.01-.02v-.02l.01-.02.01-.01v-.04l.01-.02V7Z"/></g><g fill="none" stroke="currentColor" stroke-linecap="round" stroke-linejoin="round" stroke-width=".1" color="#000"><path fill="#000" stroke="none" d="M14.35 7v-.03l-.01-.02v-.04l-.01-.01-.01-.02v-.02l-.01-.02-.01-.01-.01-.02-.01-.01-.01-.02-.01-.01-.02-.01-.01-.02-.01-.01-.02-.01-.01-.01-.02-.01-.01-.01-.02-.01h-.02l-.02-.01-.01-.01h-.04l-.02-.01h-.07l-.02.01h-.04l-.01.01-.02.01h-.02l-.02.01-.01.01-.02.01-.01.01-.02.01-.01.01-.01.02-.02.01-.01.01-.01.02-.01.01-.01.02-.01.01-.01.02v.02l-.01.02-.01.01v.04l-.01.02v.07l.01.02v.04l.01.01.01.02v.02l.01.02.01.01.01.02.01.01.01.02.01.01.02.01.01.02.01.01.02.01.01.01.02.01.01.01.02.01h.02l.02.01.01.01h.04l.02.01h.07l.02-.01h.04l.01-.01.02-.01h.02l.02-.01.01-.01.02-.01.01-.01.02-.01.01-.01.01-.02.02-.01.01-.01.01-.02.01-.01.01-.02.01-.01.01-.02v-.02l.01-.02.01-.01v-.04l.01-.02v-.02z" shape-rendering="crispEdges"/><path stroke="#000" d="M14.35 7v-.03l-.01-.02v-.04l-.01-.01-.01-.02v-.02l-.01-.02-.01-.01-.01-.02-.01-.01-.01-.02-.01-.01-.02-.01-.01-.02-.01-.01-.02-.01-.01-.01-.02-.01-.01-.01-.02-.01h-.02l-.02-.01-.01-.01h-.04l-.02-.01h-.07l-.02.01h-.04l-.01.01-.02.01h-.02l-.02.01-.01.01-.02.01-.01.01-.02.01-.01.01-.01.02-.02.01-.01.01-.01.02-.01.01-.01.02-.01.01-.01.02v.02l-.01.02-.01.01v.04l-.01.02v.07l.01.02v.04l.01.01.01.02v.02l.01.02.01.01.01.02.01.01.01.02.01.01.02.01.01.02.01.01.02.01.01.01.02.01.01.01.02.01h.02l.02.01.01.01h.04l.02.01h.07l.02-.01h.04l.01-.01.02-.01h.02l.02-.01.01-.01.02-.01.01-.01.02-.01.01-.01.01-.02.02-.01.01-.01.01-.02.01-.01.01-.02.01-.01.01-.02v-.02l.01-.02.01-.01v-.04l.01-.02V7Z"/></g><g fill="none" stroke="currentColor" stroke-linecap="round" stroke-linejoin="round" stroke-width=".1" color="#000"><path fill="#000" stroke="none" d="M24.34 5.01v-.03l-.01-.02v-.04l-.01-.01-.01-.02v-.02l-.01-.02-.01-.01-.01-.02-.01-.01-.01-.02-.01-.01-.02-.01-.01-.02-.01-.01-.02-.01-.01-.01-.02-.01-.01-.01-.02-.01h-.02l-.02-.01-.01-.01h-.04l-.02-.01h-.07l-.02.01h-.04l-.01.01-.02.01h-.02l-.02.01-.01.01-.02.01-.01.01-.02.01-.01.01-.01.02-.02.01-.01.01-.01.02-.01.01-.01.02-.01.01-.01.02v.02l-.01.02-.01.01v.04l-.01.02v.07l.01.02v.04l.01.01.01.02v.02l.01.02.01.01.01.02.01.01.01.02.01.01.02.01.01.02.01.01.02.01.01.01.02.01.01.01.02.01h.02l.02.01.01.01h.04l.02.01h.07l.02-.01h.04l.01-.01.02-.01h.02l.02-.01.01-.01.02-.01.01-.01.02-.01.01-.01.01-.02.02-.01.01-.01.01-.02.01-.01.01-.02.01-.01.01-.02v-.02l.01-.02.01-.01v-.04l.01-.02v-.02z" shape-rendering="crispEdges"/><path stroke="#000" d="M24.34 5.01v-.03l-.01-.02v-.04l-.01-.01-.01-.02v-.02l-.01-.02-.01-.01-.01-.02-.01-.01-.01-.02-.01-.01-.02-.01-.01-.02-.01-.01-.02-.01-.01-.01-.02-.01-.01-.01-.02-.01h-.02l-.02-.01-.01-.01h-.04l-.02-.01h-.07l-.02.01h-.04l-.01.01-.02.01h-.02l-.02.01-.01.01-.02.01-.01.01-.02.01-.01.01-.01.02-.02.01-.01.01-.01.02-.01.01-.01.02-.01.01-.01.02v.02l-.01.02-.01.01v.04l-.01.02v.07l.01.02v.04l.01.01.01.02v.02l.01.02.01.01.01.02.01.01.01.02.01.01.02.01.01.02.01.01.02.01.01.01.02.01.01.01.02.01h.02l.02.01.01.01h.04l.02.01h.07l.02-.01h.04l.01-.01.02-.01h.02l.02-.01.01-.01.02-.01.01-.01.02-.01.01-.01.01-.02.02-.01.01-.01.01-.02.01-.01.01-.02.01-.01.01-.02v-.02l.01-.02.01-.01v-.04l.01-.02v-.04Z"/></g><g fill="none" stroke="currentColor" stroke-linecap="round" stroke-linejoin="round" stroke-width=".1" color="#000"><path fill="#000" stroke="none" d="M22.34 7v-.03l-.01-.02v-.04l-.01-.01-.01-.02v-.02l-.01-.02-.01-.01-.01-.02-.01-.01-.01-.02-.01-.01-.02-.01-.01-.02-.01-.01-.02-.01-.01-.01-.02-.01-.01-.01-.02-.01h-.02l-.02-.01-.01-.01h-.04l-.02-.01h-.07l-.02.01h-.04l-.01.01-.02.01h-.02l-.02.01-.01.01-.02.01-.01.01-.02.01-.01.01-.01.02-.02.01-.01.01-.01.02-.01.01-.01.02-.01.01-.01.02v.02l-.01.02-.01.01v.04l-.01.02v.07l.01.02v.04l.01.01.01.02v.02l.01.02.01.01.01.02.01.01.01.02.01.01.02.01.01.02.01.01.02.01.01.01.02.01.01.01.02.01h.02l.02.01.01.01h.04l.02.01h.07l.02-.01h.04l.01-.01.02-.01h.02l.02-.01.01-.01.02-.01.01-.01.02-.01.01-.01.01-.02.02-.01.01-.01.01-.02.01-.01.01-.02.01-.01.01-.02v-.02l.01-.02.01-.01v-.04l.01-.02v-.02z" shape-rendering="crispEdges"/><path stroke="#000" d="M22.34 7v-.03l-.01-.02v-.04l-.01-.01-.01-.02v-.02l-.01-.02-.01-.01-.01-.02-.01-.01-.01-.02-.01-.01-.02-.01-.01-.02-.01-.01-.02-.01-.01-.01-.02-.01-.01-.01-.02-.01h-.02l-.02-.01-.01-.01h-.04l-.02-.01h-.07l-.02.01h-.04l-.01.01-.02.01h-.02l-.02.01-.01.01-.02.01-.01.01-.02.01-.01.01-.01.02-.02.01-.01.01-.01.02-.01.01-.01.02-.01.01-.01.02v.02l-.01.02-.01.01v.04l-.01.02v.07l.01.02v.04l.01.01.01.02v.02l.01.02.01.01.01.02.01.01.01.02.01.01.02.01.01.02.01.01.02.01.01.01.02.01.01.01.02.01h.02l.02.01.01.01h.04l.02.01h.07l.02-.01h.04l.01-.01.02-.01h.02l.02-.01.01-.01.02-.01.01-.01.02-.01.01-.01.01-.02.02-.01.01-.01.01-.02.01-.01.01-.02.01-.01.01-.02v-.02l.01-.02.01-.01v-.04l.01-.02V7Z"/></g><g fill="none" stroke="currentColor" stroke-linecap="round" stroke-linejoin="round" stroke-width=".1" color="#000"><path fill="#000" stroke="none" d="M26.34 7v-.03l-.01-.02v-.04l-.01-.01-.01-.02v-.02l-.01-.02-.01-.01-.01-.02-.01-.01-.01-.02-.01-.01-.02-.01-.01-.02-.01-.01-.02-.01-.01-.01-.02-.01-.01-.01-.02-.01h-.02l-.02-.01-.01-.01h-.04l-.02-.01h-.07l-.02.01h-.04l-.01.01-.02.01h-.02l-.02.01-.01.01-.02.01-.01.01-.02.01-.01.01-.01.02-.02.01-.01.01-.01.02-.01.01-.01.02-.01.01-.01.02v.02l-.01.02-.01.01v.04l-.01.02v.07l.01.02v.04l.01.01.01.02v.02l.01.02.01.01.01.02.01.01.01.02.01.01.02.01.01.02.01.01.02.01.01.01.02.01.01.01.02.01h.02l.02.01.01.01h.04l.02.01h.07l.02-.01h.04l.01-.01.02-.01h.02l.02-.01.01-.01.02-.01.01-.01.02-.01.01-.01.01-.02.02-.01.01-.01.01-.02.01-.01.01-.02.01-.01.01-.02v-.02l.01-.02.01-.01v-.04l.01-.02v-.02z" shape-rendering="crispEdges"/><path stroke="#000" d="M26.34 7v-.03l-.01-.02v-.04l-.01-.01-.01-.02v-.02l-.01-.02-.01-.01-.01-.02-.01-.01-.01-.02-.01-.01-.02-.01-.01-.02-.01-.01-.02-.01-.01-.01-.02-.01-.01-.01-.02-.01h-.02l-.02-.01-.01-.01h-.04l-.02-.01h-.07l-.02.01h-.04l-.01.01-.02.01h-.02l-.02.01-.01.01-.02.01-.01.01-.02.01-.01.01-.01.02-.02.01-.01.01-.01.02-.01.01-.01.02-.01.01-.01.02v.02l-.01.02-.01.01v.04l-.01.02v.07l.01.02v.04l.01.01.01.02v.02l.01.02.01.01.01.02.01.01.01.02.01.01.02.01.01.02.01.01.02.01.01.01.02.01.01.01.02.01h.02l.02.01.01.01h.04l.02.01h.07l.02-.01h.04l.01-.01.02-.01h.02l.02-.01.01-.01.02-.01.01-.01.02-.01.01-.01.01-.02.02-.01.01-.01.01-.02.01-.01.01-.02.01-.01.01-.02v-.02l.01-.02.01-.01v-.04l.01-.02V7Z"/></g><g fill="none" stroke="currentColor" stroke-linecap="round" stroke-linejoin="round" stroke-width=".1" color="#000"><path fill="#000" stroke="none" d="M21.34 9v-.03l-.01-.02v-.04l-.01-.01-.01-.02v-.02l-.01-.02-.01-.01-.01-.02-.01-.01-.01-.02-.01-.01-.02-.01-.01-.02-.01-.01-.02-.01-.01-.01-.02-.01-.01-.01-.02-.01h-.02l-.02-.01-.01-.01h-.04l-.02-.01h-.07l-.02.01h-.04l-.01.01-.02.01h-.02l-.02.01-.01.01-.02.01-.01.01-.02.01-.01.01-.01.02-.02.01-.01.01-.01.02-.01.01-.01.02-.01.01-.01.02v.02l-.01.02-.01.01v.04l-.01.02v.07l.01.02v.04l.01.01.01.02v.02l.01.02.01.01.01.02.01.01.01.02.01.01.02.01.01.02.01.01.02.01.01.01.02.01.01.01.02.01h.02l.02.01.01.01h.04l.02.01h.07l.02-.01h.04l.01-.01.02-.01h.02l.02-.01.01-.01.02-.01.01-.01.02-.01.01-.01.01-.02.02-.01.01-.01.01-.02.01-.01.01-.02.01-.01.01-.02v-.02l.01-.02.01-.01v-.04l.01-.02v-.02z" shape-rendering="crispEdges"/><path stroke="#000" d="M21.34 9v-.03l-.01-.02v-.04l-.01-.01-.01-.02v-.02l-.01-.02-.01-.01-.01-.02-.01-.01-.01-.02-.01-.01-.02-.01-.01-.02-.01-.01-.02-.01-.01-.01-.02-.01-.01-.01-.02-.01h-.02l-.02-.01-.01-.01h-.04l-.02-.01h-.07l-.02.01h-.04l-.01.01-.02.01h-.02l-.02.01-.01.01-.02.01-.01.01-.02.01-.01.01-.01.02-.02.01-.01.01-.01.02-.01.01-.01.02-.01.01-.01.02v.02l-.01.02-.01.01v.04l-.01.02v.07l.01.02v.04l.01.01.01.02v.02l.01.02.01.01.01.02.01.01.01.02.01.01.02.01.01.02.01.01.02.01.01.01.02.01.01.01.02.01h.02l.02.01.01.01h.04l.02.01h.07l.02-.01h.04l.01-.01.02-.01h.02l.02-.01.01-.01.02-.01.01-.01.02-.01.01-.01.01-.02.02-.01.01-.01.01-.02.01-.01.01-.02.01-.01.01-.02v-.02l.01-.02.01-.01v-.04l.01-.02V9Z"/></g><g fill="none" stroke="currentColor" stroke-linecap="round" stroke-linejoin="round" stroke-width=".1" color="#000"><path fill="#000" stroke="none" d="M23.34 9v-.03l-.01-.02v-.04l-.01-.01-.01-.02v-.02l-.01-.02-.01-.01-.01-.02-.01-.01-.01-.02-.01-.01-.02-.01-.01-.02-.01-.01-.02-.01-.01-.01-.02-.01-.01-.01-.02-.01h-.02l-.02-.01-.01-.01h-.04l-.02-.01h-.07l-.02.01h-.04l-.01.01-.02.01h-.02l-.02.01-.01.01-.02.01-.01.01-.02.01-.01.01-.01.02-.02.01-.01.01-.01.02-.01.01-.01.02-.01.01-.01.02v.02l-.01.02-.01.01v.04l-.01.02v.07l.01.02v.04l.01.01.01.02v.02l.01.02.01.01.01.02.01.01.01.02.01.01.02.01.01.02.01.01.02.01.01.01.02.01.01.01.02.01h.02l.02.01.01.01h.04l.02.01h.07l.02-.01h.04l.01-.01.02-.01h.02l.02-.01.01-.01.02-.01.01-.01.02-.01.01-.01.01-.02.02-.01.01-.01.01-.02.01-.01.01-.02.01-.01.01-.02v-.02l.01-.02.01-.01v-.04l.01-.02v-.02z" shape-rendering="crispEdges"/><path stroke="#000" d="M23.34 9v-.03l-.01-.02v-.04l-.01-.01-.01-.02v-.02l-.01-.02-.01-.01-.01-.02-.01-.01-.01-.02-.01-.01-.02-.01-.01-.02-.01-.01-.02-.01-.01-.01-.02-.01-.01-.01-.02-.01h-.02l-.02-.01-.01-.01h-.04l-.02-.01h-.07l-.02.01h-.04l-.01.01-.02.01h-.02l-.02.01-.01.01-.02.01-.01.01-.02.01-.01.01-.01.02-.02.01-.01.01-.01.02-.01.01-.01.02-.01.01-.01.02v.02l-.01.02-.01.01v.04l-.01.02v.07l.01.02v.04l.01.01.01.02v.02l.01.02.01.01.01.02.01.01.01.02.01.01.02.01.01.02.01.01.02.01.01.01.02.01.01.01.02.01h.02l.02.01.01.01h.04l.02.01h.07l.02-.01h.04l.01-.01.02-.01h.02l.02-.01.01-.01.02-.01.01-.01.02-.01.01-.01.01-.02.02-.01.01-.01.01-.02.01-.01.01-.02.01-.01.01-.02v-.02l.01-.02.01-.01v-.04l.01-.02V9Z"/></g><g fill="none" stroke="currentColor" stroke-linecap="round" stroke-linejoin="round" stroke-width=".1" color="#000"><path fill="#000" stroke="none" d="M25.34 9v-.03l-.01-.02v-.04l-.01-.01-.01-.02v-.02l-.01-.02-.01-.01-.01-.02-.01-.01-.01-.02-.01-.01-.02-.01-.01-.02-.01-.01-.02-.01-.01-.01-.02-.01-.01-.01-.02-.01h-.02l-.02-.01-.01-.01h-.04l-.02-.01h-.07l-.02.01h-.04l-.01.01-.02.01h-.02l-.02.01-.01.01-.02.01-.01.01-.02.01-.01.01-.01.02-.02.01-.01.01-.01.02-.01.01-.01.02-.01.01-.01.02v.02l-.01.02-.01.01v.04l-.01.02v.07l.01.02v.04l.01.01.01.02v.02l.01.02.01.01.01.02.01.01.01.02.01.01.02.01.01.02.01.01.02.01.01.01.02.01.01.01.02.01h.02l.02.01.01.01h.04l.02.01h.07l.02-.01h.04l.01-.01.02-.01h.02l.02-.01.01-.01.02-.01.01-.01.02-.01.01-.01.01-.02.02-.01.01-.01.01-.02.01-.01.01-.02.01-.01.01-.02v-.02l.01-.02.01-.01v-.04l.01-.02v-.02z" shape-rendering="crispEdges"/><path stroke="#000" d="M25.34 9v-.03l-.01-.02v-.04l-.01-.01-.01-.02v-.02l-.01-.02-.01-.01-.01-.02-.01-.01-.01-.02-.01-.01-.02-.01-.01-.02-.01-.01-.02-.01-.01-.01-.02-.01-.01-.01-.02-.01h-.02l-.02-.01-.01-.01h-.04l-.02-.01h-.07l-.02.01h-.04l-.01.01-.02.01h-.02l-.02.01-.01.01-.02.01-.01.01-.02.01-.01.01-.01.02-.02.01-.01.01-.01.02-.01.01-.01.02-.01.01-.01.02v.02l-.01.02-.01.01v.04l-.01.02v.07l.01.02v.04l.01.01.01.02v.02l.01.02.01.01.01.02.01.01.01.02.01.01.02.01.01.02.01.01.02.01.01.01.02.01.01.01.02.01h.02l.02.01.01.01h.04l.02.01h.07l.02-.01h.04l.01-.01.02-.01h.02l.02-.01.01-.01.02-.01.01-.01.02-.01.01-.01.01-.02.02-.01.01-.01.01-.02.01-.01.01-.02.01-.01.01-.02v-.02l.01-.02.01-.01v-.04l.01-.02V9Z"/></g><g fill="none" stroke="currentColor" stroke-linecap="round" stroke-linejoin="round" stroke-width=".1" color="#000"><path fill="#000" stroke="none" d="M27.34 9v-.03l-.01-.02v-.04l-.01-.01-.01-.02v-.02l-.01-.02-.01-.01-.01-.02-.01-.01-.01-.02-.01-.01-.02-.01-.01-.02-.01-.01-.02-.01-.01-.01-.02-.01-.01-.01-.02-.01h-.02l-.02-.01-.01-.01h-.04l-.02-.01h-.07l-.02.01h-.04l-.01.01-.02.01h-.02l-.02.01-.01.01-.02.01-.01.01-.02.01-.01.01-.01.02-.02.01-.01.01-.01.02-.01.01-.01.02-.01.01-.01.02v.02l-.01.02-.01.01v.04l-.01.02v.07l.01.02v.04l.01.01.01.02v.02l.01.02.01.01.01.02.01.01.01.02.01.01.02.01.01.02.01.01.02.01.01.01.02.01.01.01.02.01h.02l.02.01.01.01h.04l.02.01h.07l.02-.01h.04l.01-.01.02-.01h.02l.02-.01.01-.01.02-.01.01-.01.02-.01.01-.01.01-.02.02-.01.01-.01.01-.02.01-.01.01-.02.01-.01.01-.02v-.02l.01-.02.01-.01v-.04l.01-.02v-.02z" shape-rendering="crispEdges"/><path stroke="#000" d="M27.34 9v-.03l-.01-.02v-.04l-.01-.01-.01-.02v-.02l-.01-.02-.01-.01-.01-.02-.01-.01-.01-.02-.01-.01-.02-.01-.01-.02-.01-.01-.02-.01-.01-.01-.02-.01-.01-.01-.02-.01h-.02l-.02-.01-.01-.01h-.04l-.02-.01h-.07l-.02.01h-.04l-.01.01-.02.01h-.02l-.02.01-.01.01-.02.01-.01.01-.02.01-.01.01-.01.02-.02.01-.01.01-.01.02-.01.01-.01.02-.01.01-.01.02v.02l-.01.02-.01.01v.04l-.01.02v.07l.01.02v.04l.01.01.01.02v.02l.01.02.01.01.01.02.01.01.01.02.01.01.02.01.01.02.01.01.02.01.01.01.02.01.01.01.02.01h.02l.02.01.01.01h.04l.02.01h.07l.02-.01h.04l.01-.01.02-.01h.02l.02-.01.01-.01.02-.01.01-.01.02-.01.01-.01.01-.02.02-.01.01-.01.01-.02.01-.01.01-.02.01-.01.01-.02v-.02l.01-.02.01-.01v-.04l.01-.02V9Z"/></g><g fill="none" stroke="currentColor" stroke-linecap="round" stroke-linejoin="round" stroke-width=".1" color="#000"><path fill="#000" stroke="none" d="M28.34 3.01v-.03l-.01-.02v-.04l-.01-.01-.01-.02v-.02l-.01-.02-.01-.01-.01-.02-.01-.01-.01-.02-.01-.01-.02-.01-.01-.02-.01-.01-.02-.01-.01-.01-.02-.01-.01-.01-.02-.01h-.02l-.02-.01-.01-.01h-.04l-.02-.01h-.07l-.02.01h-.04l-.01.01-.02.01h-.02l-.02.01-.01.01-.02.01-.01.01-.02.01-.01.01-.01.02-.02.01-.01.01-.01.02-.01.01-.01.02-.01.01-.01.02v.02l-.01.02-.01.01v.04l-.01.02v.07l.01.02v.04l.01.01.01.02v.02l.01.02.01.01.01.02.01.01.01.02.01.01.02.01.01.02.01.01.02.01.01.01.02.01.01.01.02.01h.02l.02.01.01.01h.04l.02.01h.07l.02-.01h.04l.01-.01.02-.01h.02l.02-.01.01-.01.02-.01.01-.01.02-.01.01-.01.01-.02.02-.01.01-.01.01-.02.01-.01.01-.02.01-.01.01-.02v-.02l.01-.02.01-.01v-.04l.01-.02v-.02z" shape-rendering="crispEdges"/><path stroke="#000" d="M28.34 3.01v-.03l-.01-.02v-.04l-.01-.01-.01-.02v-.02l-.01-.02-.01-.01-.01-.02-.01-.01-.01-.02-.01-.01-.02-.01-.01-.02-.01-.01-.02-.01-.01-.01-.02-.01-.01-.01-.02-.01h-.02l-.02-.01-.01-.01h-.04l-.02-.01h-.07l-.02.01h-.04l-.01.01-.02.01h-.02l-.02.01-.01.01-.02.01-.01.01-.02.01-.01.01-.01.02-.02.01-.01.01-.01.02-.01.01-.01.02-.01.01-.01.02v.02l-.01.02-.01.01v.04l-.01.02v.07l.01.02v.04l.01.01.01.02v.02l.01.02.01.01.01.02.01.01.01.02.01.01.02.01.01.02.01.01.02.01.01.01.02.01.01.01.02.01h.02l.02.01.01.01h.04l.02.01h.07l.02-.01h.04l.01-.01.02-.01h.02l.02-.01.01-.01.02-.01.01-.01.02-.01.01-.01.01-.02.02-.01.01-.01.01-.02.01-.01.01-.02.01-.01.01-.02v-.02l.01-.02.01-.01v-.04l.01-.02v-.04Z"/></g><g fill="none" stroke="currentColor" stroke-linecap="round" stroke-linejoin="round" stroke-width=".1" color="#000"><path fill="#000" stroke="none" d="M32.34 5.01v-.03l-.01-.02v-.04l-.01-.01-.01-.02v-.02l-.01-.02-.01-.01-.01-.02-.01-.01-.01-.02-.01-.01-.02-.01-.01-.02-.01-.01-.02-.01-.01-.01-.02-.01-.01-.01-.02-.01h-.02l-.02-.01-.01-.01h-.04l-.02-.01h-.07l-.02.01h-.04l-.01.01-.02.01h-.02l-.02.01-.01.01-.02.01-.01.01-.02.01-.01.01-.01.02-.02.01-.01.01-.01.02-.01.01-.01.02-.01.01-.01.02v.02l-.01.02-.01.01v.04l-.01.02v.07l.01.02v.04l.01.01.01.02v.02l.01.02.01.01.01.02.01.01.01.02.01.01.02.01.01.02.01.01.02.01.01.01.02.01.01.01.02.01h.02l.02.01.01.01h.04l.02.01h.07l.02-.01h.04l.01-.01.02-.01h.02l.02-.01.01-.01.02-.01.01-.01.02-.01.01-.01.01-.02.02-.01.01-.01.01-.02.01-.01.01-.02.01-.01.01-.02v-.02l.01-.02.01-.01v-.04l.01-.02v-.02z" shape-rendering="crispEdges"/><path stroke="#000" d="M32.34 5.01v-.03l-.01-.02v-.04l-.01-.01-.01-.02v-.02l-.01-.02-.01-.01-.01-.02-.01-.01-.01-.02-.01-.01-.02-.01-.01-.02-.01-.01-.02-.01-.01-.01-.02-.01-.01-.01-.02-.01h-.02l-.02-.01-.01-.01h-.04l-.02-.01h-.07l-.02.01h-.04l-.01.01-.02.01h-.02l-.02.01-.01.01-.02.01-.01.01-.02.01-.01.01-.01.02-.02.01-.01.01-.01.02-.01.01-.01.02-.01.01-.01.02v.02l-.01.02-.01.01v.04l-.01.02v.07l.01.02v.04l.01.01.01.02v.02l.01.02.01.01.01.02.01.01.01.02.01.01.02.01.01.02.01.01.02.01.01.01.02.01.01.01.02.01h.02l.02.01.01.01h.04l.02.01h.07l.02-.01h.04l.01-.01.02-.01h.02l.02-.01.01-.01.02-.01.01-.01.02-.01.01-.01.01-.02.02-.01.01-.01.01-.02.01-.01.01-.02.01-.01.01-.02v-.02l.01-.02.01-.01v-.04l.01-.02v-.04Z"/></g></svg>