<svg xmlns="http://www.w3.org/2000/svg" viewBox="0 0 36 12"><path fill="none" d="M0 0h36v12H0z"/><path fill="none" d="M0 12h.75m35.24 0h-.75M0 11h.75m35.24 0h-.75M0 10h.75m35.24 0h-.75M0 9h.75m35.24 0h-.75M0 8h.75m35.24 0h-.75M0 7h.75m35.24 0h-.75M0 6h.75m35.24 0h-.75M0 5.01h.75m35.24 0h-.75M0 4.01h.75m35.24 0h-.75M0 3.01h.75m35.24 0h-.75M0 2.01h.75m35.24 0h-.75M0 1.01h.75m35.24 0h-.75M0 .01h.75m35.24 0h-.75M0 12v-.75M0 .01v.75M1 12v-.75M1 .01v.75M2 12v-.75M2 .01v.75M3 12v-.75M3 .01v.75M4 12v-.75M4 .01v.75M5 12v-.75M5 .01v.75M6 12v-.75M6 .01v.75M7 12v-.75M7 .01v.75M8 12v-.75M8 .01v.75M9 12v-.75M9 .01v.75M10 12v-.75M10 .01v.75M11 12v-.75M11 .01v.75M12 12v-.75M12 .01v.75M13 12v-.75M13 .01v.75M14 12v-.75M14 .01v.75M15 12v-.75M15 .01v.75M16 12v-.75M16 .01v.75M17 12v-.75M17 .01v.75M18 12v-.75M18 .01v.75M18.99 12v-.75m0-11.24v.75m1 11.24v-.75m0-11.24v.75m1 11.24v-.75m0-11.24v.75m1 11.24v-.75m0-11.24v.75m1 11.24v-.75m0-11.24v.75m1 11.24v-.75m0-11.24v.75m1 11.24v-.75m0-11.24v.75m1 11.24v-.75m0-11.24v.75m1 11.24v-.75m0-11.24v.75m1 11.24v-.75m0-11.24v.75m1 11.24v-.75m0-11.24v.75m1 11.24v-.75m0-11.24v.75m1 11.24v-.75m0-11.24v.75m1 11.24v-.75m0-11.24v.75m1 11.24v-.75m0-11.24v.75m1 11.24v-.75m0-11.24v.75m1 11.24v-.75m0-11.24v.75m1 11.24v-.75m0-11.24v.75" color="#000"/><path fill="none" stroke="#000" stroke-linecap="round" stroke-linejoin="round" stroke-width=".1" d="M5.75 11.5v-.99h.99v.99h-.99Z" color="#000"/><g fill="none" stroke="currentColor" stroke-linecap="round" stroke-linejoin="round" stroke-width=".1" color="#000"><path fill="#000" stroke="none" d="M21.74 11.5h.99v-.99h-.99z" shape-rendering="crispEdges"/><path stroke="#000" d="M21.74 11.5v-.99h.99v.99h-.99Z"/><text fill="#000" stroke="none" font-family="KaTeX_Typewriter" font-size="1" text-anchor="middle" transform="translate(11.5 11.33)"><tspan>MEDIAN-BALANCED</tspan></text><text fill="#000" stroke="none" font-family="KaTeX_Typewriter" font-size="1" text-anchor="middle" transform="translate(27.49 11.33)"><tspan>MEDIAN-BALANCED</tspan></text><text fill="#000" stroke="none" font-family="KaTeX_Typewriter" font-size="1" text-anchor="middle" transform="translate(8 4.34)"><tspan>A</tspan></text><text fill="#000" stroke="none" font-family="KaTeX_Typewriter" font-size="1" text-anchor="middle" transform="translate(10 1.34)"><tspan>B</tspan></text><text fill="#000" stroke="none" font-family="KaTeX_Typewriter" font-size="1" text-anchor="middle" transform="translate(10 7.33)"><tspan>C</tspan></text><text fill="#000" stroke="none" font-family="KaTeX_Typewriter" font-size="1" text-anchor="middle" transform="translate(12 4.34)"><tspan>D</tspan></text><text fill="#000" stroke="none" font-family="KaTeX_Typewriter" font-size="1" text-anchor="middle" transform="translate(14 7.33)"><tspan>E</tspan></text><text fill="#000" stroke="none" font-family="KaTeX_Typewriter" font-size="1" text-anchor="middle" transform="translate(22.99 7.33)"><tspan>A</tspan></text><text fill="#000" stroke="none" font-family="KaTeX_Typewriter" font-size="1" text-anchor="middle" transform="translate(24.99 4.34)"><tspan>B</tspan></text><text fill="#000" stroke="none" font-family="KaTeX_Typewriter" font-size="1" text-anchor="middle" transform="translate(26.99 1.34)"><tspan>C</tspan></text><text fill="#000" stroke="none" font-family="KaTeX_Typewriter" font-size="1" text-anchor="middle" transform="translate(28.99 4.34)"><tspan>D</tspan></text><text fill="#000" stroke="none" font-family="KaTeX_Typewriter" font-size="1" text-anchor="middle" transform="translate(30.99 7.33)"><tspan>E</tspan></text><path stroke="#000" d="m8.6 3.11.82-1.23m1.18 0 .82 1.23m1.17 1.77.83 1.23m-2-1.23-.82 1.23m12.99 0 .82-1.23m1.18-1.77.82-1.23m1.18 0 .82 1.23m1.18 1.77.82 1.23"/></g><g fill="none" stroke="#000" stroke-linecap="round" stroke-linejoin="round" stroke-width=".1" color="#000"><path d="M8.7 4.01v-.07l-.01-.04v-.03l-.01-.04-.01-.03-.02-.04-.01-.03-.02-.04-.01-.03-.02-.03-.02-.03-.03-.03-.02-.03-.03-.02-.02-.03-.03-.02-.03-.03-.03-.02-.03-.02-.03-.01-.04-.02-.03-.01-.04-.02-.03-.01-.04-.01h-.03l-.04-.01h-.15l-.04.01h-.03l-.04.01-.03.01-.04.02-.03.01-.04.02-.03.01-.03.02-.03.02-.03.03-.03.02-.02.03-.03.02-.02.03-.03.03-.02.03-.02.03-.01.03-.02.04-.01.03-.02.04-.01.03-.01.04v.03l-.01.04v.15l.01.04v.03l.01.04.01.03.02.04.01.03.02.04.01.03.02.03.02.03.03.03.02.03.03.02.02.03.03.02.03.03.03.02.03.02.03.01.04.02.03.01.04.02.03.01.04.01h.03l.04.01h.15l.04-.01h.03l.04-.01.03-.01.04-.02.03-.01.04-.02.03-.01.03-.02.03-.02.03-.03.03-.02.02-.03.03-.02.02-.03.03-.03.02-.03.02-.03.01-.03.02-.04.01-.03.02-.04.01-.03.01-.04v-.03l.01-.04v-.08Z"/><path d="M8.7 4.01v-.07l-.01-.04v-.03l-.01-.04-.01-.03-.02-.04-.01-.03-.02-.04-.01-.03-.02-.03-.02-.03-.03-.03-.02-.03-.03-.02-.02-.03-.03-.02-.03-.03-.03-.02-.03-.02-.03-.01-.04-.02-.03-.01-.04-.02-.03-.01-.04-.01h-.03l-.04-.01h-.15l-.04.01h-.03l-.04.01-.03.01-.04.02-.03.01-.04.02-.03.01-.03.02-.03.02-.03.03-.03.02-.02.03-.03.02-.02.03-.03.03-.02.03-.02.03-.01.03-.02.04-.01.03-.02.04-.01.03-.01.04v.03l-.01.04v.15l.01.04v.03l.01.04.01.03.02.04.01.03.02.04.01.03.02.03.02.03.03.03.02.03.03.02.02.03.03.02.03.03.03.02.03.02.03.01.04.02.03.01.04.02.03.01.04.01h.03l.04.01h.15l.04-.01h.03l.04-.01.03-.01.04-.02.03-.01.04-.02.03-.01.03-.02.03-.02.03-.03.03-.02.02-.03.03-.02.02-.03.03-.03.02-.03.02-.03.01-.03.02-.04.01-.03.02-.04.01-.03.01-.04v-.03l.01-.04v-.08Z"/></g><g fill="none" stroke="#000" stroke-linecap="round" stroke-linejoin="round" stroke-width=".1" color="#000"><path d="M10.7 1.01V.94L10.69.9V.87l-.01-.04-.01-.03-.02-.04-.01-.03-.02-.04-.01-.03-.02-.03-.02-.03-.03-.03-.02-.03-.03-.02-.02-.03-.03-.02-.03-.03-.03-.02-.03-.02-.03-.01-.04-.02-.03-.01-.04-.02-.03-.01-.04-.01h-.03l-.04-.01h-.15l-.04.01h-.03l-.04.01-.03.01-.04.02-.03.01-.04.02-.03.01-.03.02-.03.02-.03.03-.03.02-.02.03-.03.02-.02.03-.03.03-.02.03-.02.03-.01.03-.02.04-.01.03-.02.04-.01.03-.01.04V.9l-.01.04v.15l.01.04v.03l.01.04.01.03.02.04.01.03.02.04.01.03.02.03.02.03.03.03.02.03.03.02.02.03.03.02.03.03.03.02.03.02.03.01.04.02.03.01.04.02.03.01.04.01h.03l.04.01h.15l.04-.01h.03l.04-.01.03-.01.04-.02.03-.01.04-.02.03-.01.03-.02.03-.02.03-.03.03-.02.02-.03.03-.02.02-.03.03-.03.02-.03.02-.03.01-.03.02-.04.01-.03.02-.04.01-.03.01-.04v-.03l.01-.04v-.08Z"/><path d="M10.7 1.01V.94L10.69.9V.87l-.01-.04-.01-.03-.02-.04-.01-.03-.02-.04-.01-.03-.02-.03-.02-.03-.03-.03-.02-.03-.03-.02-.02-.03-.03-.02-.03-.03-.03-.02-.03-.02-.03-.01-.04-.02-.03-.01-.04-.02-.03-.01-.04-.01h-.03l-.04-.01h-.15l-.04.01h-.03l-.04.01-.03.01-.04.02-.03.01-.04.02-.03.01-.03.02-.03.02-.03.03-.03.02-.02.03-.03.02-.02.03-.03.03-.02.03-.02.03-.01.03-.02.04-.01.03-.02.04-.01.03-.01.04V.9l-.01.04v.15l.01.04v.03l.01.04.01.03.02.04.01.03.02.04.01.03.02.03.02.03.03.03.02.03.03.02.02.03.03.02.03.03.03.02.03.02.03.01.04.02.03.01.04.02.03.01.04.01h.03l.04.01h.15l.04-.01h.03l.04-.01.03-.01.04-.02.03-.01.04-.02.03-.01.03-.02.03-.02.03-.03.03-.02.02-.03.03-.02.02-.03.03-.03.02-.03.02-.03.01-.03.02-.04.01-.03.02-.04.01-.03.01-.04v-.03l.01-.04v-.08Z"/></g><g fill="none" stroke="#000" stroke-linecap="round" stroke-linejoin="round" stroke-width=".1" color="#000"><path d="M10.7 7v-.07l-.01-.04v-.03l-.01-.04-.01-.03-.02-.04-.01-.03-.02-.04-.01-.03-.02-.03-.02-.03-.03-.03-.02-.03-.03-.02-.02-.03-.03-.02-.03-.03-.03-.02-.03-.02-.03-.01-.04-.02-.03-.01-.04-.02-.03-.01-.04-.01h-.03l-.04-.01h-.15l-.04.01h-.03l-.04.01-.03.01-.04.02-.03.01-.04.02-.03.01-.03.02-.03.02-.03.03-.03.02-.02.03-.03.02-.02.03-.03.03-.02.03-.02.03-.01.03-.02.04-.01.03-.02.04-.01.03-.01.04v.03l-.01.04v.15l.01.04v.03l.01.04.01.03.02.04.01.03.02.04.01.03.02.03.02.03.03.03.02.03.03.02.02.03.03.02.03.03.03.02.03.02.03.01.04.02.03.01.04.02.03.01.04.01h.03l.04.01h.15l.04-.01h.03l.04-.01.03-.01.04-.02.03-.01.04-.02.03-.01.03-.02.03-.02.03-.03.03-.02.02-.03.03-.02.02-.03.03-.03.02-.03.02-.03.01-.03.02-.04.01-.03.02-.04.01-.03.01-.04v-.03l.01-.04V7Z"/><path d="M10.7 7v-.07l-.01-.04v-.03l-.01-.04-.01-.03-.02-.04-.01-.03-.02-.04-.01-.03-.02-.03-.02-.03-.03-.03-.02-.03-.03-.02-.02-.03-.03-.02-.03-.03-.03-.02-.03-.02-.03-.01-.04-.02-.03-.01-.04-.02-.03-.01-.04-.01h-.03l-.04-.01h-.15l-.04.01h-.03l-.04.01-.03.01-.04.02-.03.01-.04.02-.03.01-.03.02-.03.02-.03.03-.03.02-.02.03-.03.02-.02.03-.03.03-.02.03-.02.03-.01.03-.02.04-.01.03-.02.04-.01.03-.01.04v.03l-.01.04v.15l.01.04v.03l.01.04.01.03.02.04.01.03.02.04.01.03.02.03.02.03.03.03.02.03.03.02.02.03.03.02.03.03.03.02.03.02.03.01.04.02.03.01.04.02.03.01.04.01h.03l.04.01h.15l.04-.01h.03l.04-.01.03-.01.04-.02.03-.01.04-.02.03-.01.03-.02.03-.02.03-.03.03-.02.02-.03.03-.02.02-.03.03-.03.02-.03.02-.03.01-.03.02-.04.01-.03.02-.04.01-.03.01-.04v-.03l.01-.04V7Z"/></g><g fill="none" stroke="#000" stroke-linecap="round" stroke-linejoin="round" stroke-width=".1" color="#000"><path d="M12.7 4.01v-.07l-.01-.04v-.03l-.01-.04-.01-.03-.02-.04-.01-.03-.02-.04-.01-.03-.02-.03-.02-.03-.03-.03-.02-.03-.03-.02-.02-.03-.03-.02-.03-.03-.03-.02-.03-.02-.03-.01-.04-.02-.03-.01-.04-.02-.03-.01-.04-.01h-.03l-.04-.01h-.15l-.04.01h-.03l-.04.01-.03.01-.04.02-.03.01-.04.02-.03.01-.03.02-.03.02-.03.03-.03.02-.02.03-.03.02-.02.03-.03.03-.02.03-.02.03-.01.03-.02.04-.01.03-.02.04-.01.03-.01.04v.03l-.01.04v.15l.01.04v.03l.01.04.01.03.02.04.01.03.02.04.01.03.02.03.02.03.03.03.02.03.03.02.02.03.03.02.03.03.03.02.03.02.03.01.04.02.03.01.04.02.03.01.04.01h.03l.04.01h.15l.04-.01h.03l.04-.01.03-.01.04-.02.03-.01.04-.02.03-.01.03-.02.03-.02.03-.03.03-.02.02-.03.03-.02.02-.03.03-.03.02-.03.02-.03.01-.03.02-.04.01-.03.02-.04.01-.03.01-.04v-.03l.01-.04v-.08Z"/><path d="M12.7 4.01v-.07l-.01-.04v-.03l-.01-.04-.01-.03-.02-.04-.01-.03-.02-.04-.01-.03-.02-.03-.02-.03-.03-.03-.02-.03-.03-.02-.02-.03-.03-.02-.03-.03-.03-.02-.03-.02-.03-.01-.04-.02-.03-.01-.04-.02-.03-.01-.04-.01h-.03l-.04-.01h-.15l-.04.01h-.03l-.04.01-.03.01-.04.02-.03.01-.04.02-.03.01-.03.02-.03.02-.03.03-.03.02-.02.03-.03.02-.02.03-.03.03-.02.03-.02.03-.01.03-.02.04-.01.03-.02.04-.01.03-.01.04v.03l-.01.04v.15l.01.04v.03l.01.04.01.03.02.04.01.03.02.04.01.03.02.03.02.03.03.03.02.03.03.02.02.03.03.02.03.03.03.02.03.02.03.01.04.02.03.01.04.02.03.01.04.01h.03l.04.01h.15l.04-.01h.03l.04-.01.03-.01.04-.02.03-.01.04-.02.03-.01.03-.02.03-.02.03-.03.03-.02.02-.03.03-.02.02-.03.03-.03.02-.03.02-.03.01-.03.02-.04.01-.03.02-.04.01-.03.01-.04v-.03l.01-.04v-.08Z"/></g><g fill="none" stroke="#000" stroke-linecap="round" stroke-linejoin="round" stroke-width=".1" color="#000"><path d="M14.7 7v-.07l-.01-.04v-.03l-.01-.04-.01-.03-.02-.04-.01-.03-.02-.04-.01-.03-.02-.03-.02-.03-.03-.03-.02-.03-.03-.02-.02-.03-.03-.02-.03-.03-.03-.02-.03-.02-.03-.01-.04-.02-.03-.01-.04-.02-.03-.01-.04-.01h-.03l-.04-.01h-.15l-.04.01h-.03l-.04.01-.03.01-.04.02-.03.01-.04.02-.03.01-.03.02-.03.02-.03.03-.03.02-.02.03-.03.02-.02.03-.03.03-.02.03-.02.03-.01.03-.02.04-.01.03-.02.04-.01.03-.01.04v.03l-.01.04v.15l.01.04v.03l.01.04.01.03.02.04.01.03.02.04.01.03.02.03.02.03.03.03.02.03.03.02.02.03.03.02.03.03.03.02.03.02.03.01.04.02.03.01.04.02.03.01.04.01h.03l.04.01h.15l.04-.01h.03l.04-.01.03-.01.04-.02.03-.01.04-.02.03-.01.03-.02.03-.02.03-.03.03-.02.02-.03.03-.02.02-.03.03-.03.02-.03.02-.03.01-.03.02-.04.01-.03.02-.04.01-.03.01-.04v-.03l.01-.04V7Z"/><path d="M14.7 7v-.07l-.01-.04v-.03l-.01-.04-.01-.03-.02-.04-.01-.03-.02-.04-.01-.03-.02-.03-.02-.03-.03-.03-.02-.03-.03-.02-.02-.03-.03-.02-.03-.03-.03-.02-.03-.02-.03-.01-.04-.02-.03-.01-.04-.02-.03-.01-.04-.01h-.03l-.04-.01h-.15l-.04.01h-.03l-.04.01-.03.01-.04.02-.03.01-.04.02-.03.01-.03.02-.03.02-.03.03-.03.02-.02.03-.03.02-.02.03-.03.03-.02.03-.02.03-.01.03-.02.04-.01.03-.02.04-.01.03-.01.04v.03l-.01.04v.15l.01.04v.03l.01.04.01.03.02.04.01.03.02.04.01.03.02.03.02.03.03.03.02.03.03.02.02.03.03.02.03.03.03.02.03.02.03.01.04.02.03.01.04.02.03.01.04.01h.03l.04.01h.15l.04-.01h.03l.04-.01.03-.01.04-.02.03-.01.04-.02.03-.01.03-.02.03-.02.03-.03.03-.02.02-.03.03-.02.02-.03.03-.03.02-.03.02-.03.01-.03.02-.04.01-.03.02-.04.01-.03.01-.04v-.03l.01-.04V7Z"/></g><g fill="none" stroke="#000" stroke-linecap="round" stroke-linejoin="round" stroke-width=".1" color="#000"><path d="M23.69 7v-.07l-.01-.04v-.03l-.01-.04-.01-.03-.02-.04-.01-.03-.02-.04-.01-.03-.02-.03-.02-.03-.03-.03-.02-.03-.03-.02-.02-.03-.03-.02-.03-.03-.03-.02-.03-.02-.03-.01-.04-.02-.03-.01-.04-.02-.03-.01-.04-.01h-.03l-.04-.01h-.15l-.04.01h-.03l-.04.01-.03.01-.04.02-.03.01-.04.02-.03.01-.03.02-.03.02-.03.03-.03.02-.02.03-.03.02-.02.03-.03.03-.02.03-.02.03-.01.03-.02.04-.01.03-.02.04-.01.03-.01.04v.03l-.01.04v.15l.01.04v.03l.01.04.01.03.02.04.01.03.02.04.01.03.02.03.02.03.03.03.02.03.03.02.02.03.03.02.03.03.03.02.03.02.03.01.04.02.03.01.04.02.03.01.04.01h.03l.04.01h.15l.04-.01h.03l.04-.01.03-.01.04-.02.03-.01.04-.02.03-.01.03-.02.03-.02.03-.03.03-.02.02-.03.03-.02.02-.03.03-.03.02-.03.02-.03.01-.03.02-.04.01-.03.02-.04.01-.03.01-.04v-.03l.01-.04V7Z"/><path d="M23.69 7v-.07l-.01-.04v-.03l-.01-.04-.01-.03-.02-.04-.01-.03-.02-.04-.01-.03-.02-.03-.02-.03-.03-.03-.02-.03-.03-.02-.02-.03-.03-.02-.03-.03-.03-.02-.03-.02-.03-.01-.04-.02-.03-.01-.04-.02-.03-.01-.04-.01h-.03l-.04-.01h-.15l-.04.01h-.03l-.04.01-.03.01-.04.02-.03.01-.04.02-.03.01-.03.02-.03.02-.03.03-.03.02-.02.03-.03.02-.02.03-.03.03-.02.03-.02.03-.01.03-.02.04-.01.03-.02.04-.01.03-.01.04v.03l-.01.04v.15l.01.04v.03l.01.04.01.03.02.04.01.03.02.04.01.03.02.03.02.03.03.03.02.03.03.02.02.03.03.02.03.03.03.02.03.02.03.01.04.02.03.01.04.02.03.01.04.01h.03l.04.01h.15l.04-.01h.03l.04-.01.03-.01.04-.02.03-.01.04-.02.03-.01.03-.02.03-.02.03-.03.03-.02.02-.03.03-.02.02-.03.03-.03.02-.03.02-.03.01-.03.02-.04.01-.03.02-.04.01-.03.01-.04v-.03l.01-.04V7Z"/></g><g fill="none" stroke="#000" stroke-linecap="round" stroke-linejoin="round" stroke-width=".1" color="#000"><path d="M25.69 4.01v-.07l-.01-.04v-.03l-.01-.04-.01-.03-.02-.04-.01-.03-.02-.04-.01-.03-.02-.03-.02-.03-.03-.03-.02-.03-.03-.02-.02-.03-.03-.02-.03-.03-.03-.02-.03-.02-.03-.01-.04-.02-.03-.01-.04-.02-.03-.01-.04-.01h-.03l-.04-.01h-.15l-.04.01h-.03l-.04.01-.03.01-.04.02-.03.01-.04.02-.03.01-.03.02-.03.02-.03.03-.03.02-.02.03-.03.02-.02.03-.03.03-.02.03-.02.03-.01.03-.02.04-.01.03-.02.04-.01.03-.01.04v.03l-.01.04v.15l.01.04v.03l.01.04.01.03.02.04.01.03.02.04.01.03.02.03.02.03.03.03.02.03.03.02.02.03.03.02.03.03.03.02.03.02.03.01.04.02.03.01.04.02.03.01.04.01h.03l.04.01h.15l.04-.01h.03l.04-.01.03-.01.04-.02.03-.01.04-.02.03-.01.03-.02.03-.02.03-.03.03-.02.02-.03.03-.02.02-.03.03-.03.02-.03.02-.03.01-.03.02-.04.01-.03.02-.04.01-.03.01-.04v-.03l.01-.04v-.08Z"/><path d="M25.69 4.01v-.07l-.01-.04v-.03l-.01-.04-.01-.03-.02-.04-.01-.03-.02-.04-.01-.03-.02-.03-.02-.03-.03-.03-.02-.03-.03-.02-.02-.03-.03-.02-.03-.03-.03-.02-.03-.02-.03-.01-.04-.02-.03-.01-.04-.02-.03-.01-.04-.01h-.03l-.04-.01h-.15l-.04.01h-.03l-.04.01-.03.01-.04.02-.03.01-.04.02-.03.01-.03.02-.03.02-.03.03-.03.02-.02.03-.03.02-.02.03-.03.03-.02.03-.02.03-.01.03-.02.04-.01.03-.02.04-.01.03-.01.04v.03l-.01.04v.15l.01.04v.03l.01.04.01.03.02.04.01.03.02.04.01.03.02.03.02.03.03.03.02.03.03.02.02.03.03.02.03.03.03.02.03.02.03.01.04.02.03.01.04.02.03.01.04.01h.03l.04.01h.15l.04-.01h.03l.04-.01.03-.01.04-.02.03-.01.04-.02.03-.01.03-.02.03-.02.03-.03.03-.02.02-.03.03-.02.02-.03.03-.03.02-.03.02-.03.01-.03.02-.04.01-.03.02-.04.01-.03.01-.04v-.03l.01-.04v-.08Z"/></g><g fill="none" stroke="#000" stroke-linecap="round" stroke-linejoin="round" stroke-width=".1" color="#000"><path d="M27.69 1.01V.94L27.68.9V.87l-.01-.04-.01-.03-.02-.04-.01-.03-.02-.04-.01-.03-.02-.03-.02-.03-.03-.03-.02-.03-.03-.02-.02-.03-.03-.02-.03-.03-.03-.02-.03-.02-.03-.01-.04-.02-.03-.01-.04-.02-.03-.01-.04-.01h-.03l-.04-.01h-.15l-.04.01h-.03l-.04.01-.03.01-.04.02-.03.01-.04.02-.03.01-.03.02-.03.02-.03.03-.03.02-.02.03-.03.02-.02.03-.03.03-.02.03-.02.03-.01.03-.02.04-.01.03-.02.04-.01.03-.01.04V.9l-.01.04v.15l.01.04v.03l.01.04.01.03.02.04.01.03.02.04.01.03.02.03.02.03.03.03.02.03.03.02.02.03.03.02.03.03.03.02.03.02.03.01.04.02.03.01.04.02.03.01.04.01h.03l.04.01h.15l.04-.01h.03l.04-.01.03-.01.04-.02.03-.01.04-.02.03-.01.03-.02.03-.02.03-.03.03-.02.02-.03.03-.02.02-.03.03-.03.02-.03.02-.03.01-.03.02-.04.01-.03.02-.04.01-.03.01-.04v-.03l.01-.04v-.08Z"/><path d="M27.69 1.01V.94L27.68.9V.87l-.01-.04-.01-.03-.02-.04-.01-.03-.02-.04-.01-.03-.02-.03-.02-.03-.03-.03-.02-.03-.03-.02-.02-.03-.03-.02-.03-.03-.03-.02-.03-.02-.03-.01-.04-.02-.03-.01-.04-.02-.03-.01-.04-.01h-.03l-.04-.01h-.15l-.04.01h-.03l-.04.01-.03.01-.04.02-.03.01-.04.02-.03.01-.03.02-.03.02-.03.03-.03.02-.02.03-.03.02-.02.03-.03.03-.02.03-.02.03-.01.03-.02.04-.01.03-.02.04-.01.03-.01.04V.9l-.01.04v.15l.01.04v.03l.01.04.01.03.02.04.01.03.02.04.01.03.02.03.02.03.03.03.02.03.03.02.02.03.03.02.03.03.03.02.03.02.03.01.04.02.03.01.04.02.03.01.04.01h.03l.04.01h.15l.04-.01h.03l.04-.01.03-.01.04-.02.03-.01.04-.02.03-.01.03-.02.03-.02.03-.03.03-.02.02-.03.03-.02.02-.03.03-.03.02-.03.02-.03.01-.03.02-.04.01-.03.02-.04.01-.03.01-.04v-.03l.01-.04v-.08Z"/></g><g fill="none" stroke="#000" stroke-linecap="round" stroke-linejoin="round" stroke-width=".1" color="#000"><path d="M29.69 4.01v-.07l-.01-.04v-.03l-.01-.04-.01-.03-.02-.04-.01-.03-.02-.04-.01-.03-.02-.03-.02-.03-.03-.03-.02-.03-.03-.02-.02-.03-.03-.02-.03-.03-.03-.02-.03-.02-.03-.01-.04-.02-.03-.01-.04-.02-.03-.01-.04-.01h-.03l-.04-.01h-.15l-.04.01h-.03l-.04.01-.03.01-.04.02-.03.01-.04.02-.03.01-.03.02-.03.02-.03.03-.03.02-.02.03-.03.02-.02.03-.03.03-.02.03-.02.03-.01.03-.02.04-.01.03-.02.04-.01.03-.01.04v.03l-.01.04v.15l.01.04v.03l.01.04.01.03.02.04.01.03.02.04.01.03.02.03.02.03.03.03.02.03.03.02.02.03.03.02.03.03.03.02.03.02.03.01.04.02.03.01.04.02.03.01.04.01h.03l.04.01h.15l.04-.01h.03l.04-.01.03-.01.04-.02.03-.01.04-.02.03-.01.03-.02.03-.02.03-.03.03-.02.02-.03.03-.02.02-.03.03-.03.02-.03.02-.03.01-.03.02-.04.01-.03.02-.04.01-.03.01-.04v-.03l.01-.04v-.08Z"/><path d="M29.69 4.01v-.07l-.01-.04v-.03l-.01-.04-.01-.03-.02-.04-.01-.03-.02-.04-.01-.03-.02-.03-.02-.03-.03-.03-.02-.03-.03-.02-.02-.03-.03-.02-.03-.03-.03-.02-.03-.02-.03-.01-.04-.02-.03-.01-.04-.02-.03-.01-.04-.01h-.03l-.04-.01h-.15l-.04.01h-.03l-.04.01-.03.01-.04.02-.03.01-.04.02-.03.01-.03.02-.03.02-.03.03-.03.02-.02.03-.03.02-.02.03-.03.03-.02.03-.02.03-.01.03-.02.04-.01.03-.02.04-.01.03-.01.04v.03l-.01.04v.15l.01.04v.03l.01.04.01.03.02.04.01.03.02.04.01.03.02.03.02.03.03.03.02.03.03.02.02.03.03.02.03.03.03.02.03.02.03.01.04.02.03.01.04.02.03.01.04.01h.03l.04.01h.15l.04-.01h.03l.04-.01.03-.01.04-.02.03-.01.04-.02.03-.01.03-.02.03-.02.03-.03.03-.02.02-.03.03-.02.02-.03.03-.03.02-.03.02-.03.01-.03.02-.04.01-.03.02-.04.01-.03.01-.04v-.03l.01-.04v-.08Z"/></g><g fill="none" stroke="#000" stroke-linecap="round" stroke-linejoin="round" stroke-width=".1" color="#000"><path d="M31.69 7v-.07l-.01-.04v-.03l-.01-.04-.01-.03-.02-.04-.01-.03-.02-.04-.01-.03-.02-.03-.02-.03-.03-.03-.02-.03-.03-.02-.02-.03-.03-.02-.03-.03-.03-.02-.03-.02-.03-.01-.04-.02-.03-.01-.04-.02-.03-.01-.04-.01h-.03l-.04-.01h-.15l-.04.01h-.03l-.04.01-.03.01-.04.02-.03.01-.04.02-.03.01-.03.02-.03.02-.03.03-.03.02-.02.03-.03.02-.02.03-.03.03-.02.03-.02.03-.01.03-.02.04-.01.03-.02.04-.01.03-.01.04v.03l-.01.04v.15l.01.04v.03l.01.04.01.03.02.04.01.03.02.04.01.03.02.03.02.03.03.03.02.03.03.02.02.03.03.02.03.03.03.02.03.02.03.01.04.02.03.01.04.02.03.01.04.01h.03l.04.01h.15l.04-.01h.03l.04-.01.03-.01.04-.02.03-.01.04-.02.03-.01.03-.02.03-.02.03-.03.03-.02.02-.03.03-.02.02-.03.03-.03.02-.03.02-.03.01-.03.02-.04.01-.03.02-.04.01-.03.01-.04v-.03l.01-.04V7Z"/><path d="M31.69 7v-.07l-.01-.04v-.03l-.01-.04-.01-.03-.02-.04-.01-.03-.02-.04-.01-.03-.02-.03-.02-.03-.03-.03-.02-.03-.03-.02-.02-.03-.03-.02-.03-.03-.03-.02-.03-.02-.03-.01-.04-.02-.03-.01-.04-.02-.03-.01-.04-.01h-.03l-.04-.01h-.15l-.04.01h-.03l-.04.01-.03.01-.04.02-.03.01-.04.02-.03.01-.03.02-.03.02-.03.03-.03.02-.02.03-.03.02-.02.03-.03.03-.02.03-.02.03-.01.03-.02.04-.01.03-.02.04-.01.03-.01.04v.03l-.01.04v.15l.01.04v.03l.01.04.01.03.02.04.01.03.02.04.01.03.02.03.02.03.03.03.02.03.03.02.02.03.03.02.03.03.03.02.03.02.03.01.04.02.03.01.04.02.03.01.04.01h.03l.04.01h.15l.04-.01h.03l.04-.01.03-.01.04-.02.03-.01.04-.02.03-.01.03-.02.03-.02.03-.03.03-.02.02-.03.03-.02.02-.03.03-.03.02-.03.02-.03.01-.03.02-.04.01-.03.02-.04.01-.03.01-.04v-.03l.01-.04V7Z"/></g></svg>