<svg xmlns="http://www.w3.org/2000/svg" xmlns:xlink="http://www.w3.org/1999/xlink" viewBox="0 0 400 150"><path fill="none" d="M0 0h400v150H0z"/><defs><path id="573e2__a" stroke="currentColor" stroke-width=".267" d="M-1 0h2M0-1v2"/><path id="573e2__b" stroke="currentColor" stroke-width=".267" d="m-1-1 2 2m0-2-2 2"/><path id="573e2__c" stroke="currentColor" stroke-width=".267" d="M-1 0h2M0-1v2m-1-2 2 2m-2 0 2-2"/></defs><path fill="none" stroke="#CCC" stroke-dasharray="0.1,0.2" stroke-linecap="round" stroke-linejoin="round" stroke-width=".1" d="M7 120V15.01" class="573e2__gridline" color="#000"/><g fill="none" stroke-linecap="round" stroke-linejoin="round" stroke-width="0" color="#000"><path d="M7 120v-7.5m0-97.49v7.5"/><text fill="#000" font-family="KaTeX_Main" font-size="10" text-anchor="middle" transform="translate(7 138.25)"><tspan> 1</tspan></text></g><path fill="none" d="M34.47 120v-3.75m0-101.24v3.75M50.54 120v-3.75m0-101.24v3.75M61.94 120v-3.75m0-101.24v3.75M70.78 120v-3.75m0-101.24v3.75M78 120v-3.75m0-101.24v3.75M84.11 120v-3.75m0-101.24v3.75M89.4 120v-3.75m0-101.24v3.75M94.07 120v-3.75m0-101.24v3.75" color="#000"/><path fill="none" stroke="#CCC" stroke-dasharray="0.1,0.2" stroke-linecap="round" stroke-linejoin="round" stroke-width=".1" d="M98.25 120V18.76" class="573e2__gridline" color="#000"/><g fill="none" stroke-linecap="round" stroke-linejoin="round" stroke-width="0" color="#000"><path d="M98.25 120v-7.5m0-97.49v7.5"/><text fill="#000" font-family="KaTeX_Main" font-size="10" text-anchor="middle" transform="translate(98.25 138.25)"><tspan> 10</tspan></text></g><path fill="none" d="M125.72 120v-3.75m0-101.24v3.75M141.78 120v-3.75m0-101.24v3.75M153.18 120v-3.75m0-101.24v3.75M162.03 120v-3.75m0-101.24v3.75M169.25 120v-3.75m0-101.24v3.75M175.36 120v-3.75m0-101.24v3.75M180.65 120v-3.75m0-101.24v3.75M185.32 120v-3.75m0-101.24v3.75" color="#000"/><path fill="none" stroke="#CCC" stroke-dasharray="0.1,0.2" stroke-linecap="round" stroke-linejoin="round" stroke-width=".1" d="M189.5 120V18.76" class="573e2__gridline" color="#000"/><g fill="none" stroke-linecap="round" stroke-linejoin="round" stroke-width="0" color="#000"><path d="M189.5 120v-7.5m0-97.49v7.5"/><text fill="#000" font-family="KaTeX_Main" font-size="10" text-anchor="middle" transform="translate(189.5 138.25)"><tspan> 100</tspan></text></g><path fill="none" d="M216.96 120v-3.75m0-101.24v3.75M233.03 120v-3.75m0-101.24v3.75M244.43 120v-3.75m0-101.24v3.75M253.27 120v-3.75m0-101.24v3.75M260.5 120v-3.75m0-101.24v3.75M266.61 120v-3.75m0-101.24v3.75M271.9 120v-3.75m0-101.24v3.75M276.57 120v-3.75m0-101.24v3.75" color="#000"/><path fill="none" stroke="#CCC" stroke-dasharray="0.1,0.2" stroke-linecap="round" stroke-linejoin="round" stroke-width=".1" d="M280.74 120V18.76" class="573e2__gridline" color="#000"/><g fill="none" stroke-linecap="round" stroke-linejoin="round" stroke-width="0" color="#000"><path d="M280.74 120v-7.5m0-97.49v7.5"/><text fill="#000" font-family="KaTeX_Main" font-size="10" text-anchor="middle" transform="translate(280.74 138.25)"><tspan> 1000</tspan></text></g><path fill="none" d="M308.21 120v-3.75m0-101.24v3.75M324.28 120v-3.75m0-101.24v3.75M335.68 120v-3.75m0-101.24v3.75M344.52 120v-3.75m0-101.24v3.75M351.75 120v-3.75m0-101.24v3.75M357.86 120v-3.75m0-101.24v3.75M363.15 120v-3.75m0-101.24v3.75M367.81 120v-3.75m0-101.24v3.75" color="#000"/><path fill="none" stroke="#CCC" stroke-dasharray="0.1,0.2" stroke-linecap="round" stroke-linejoin="round" stroke-width=".1" d="M371.99 120V15.01" class="573e2__gridline" color="#000"/><g fill="none" stroke-linecap="round" stroke-linejoin="round" stroke-width="0" color="#000"><path d="M371.99 120v-7.5m0-97.49v7.5"/><text fill="#000" font-family="KaTeX_Main" font-size="10" text-anchor="middle" transform="translate(371.99 138.25)"><tspan> 10000</tspan></text></g><g fill="none" stroke-linecap="round" stroke-linejoin="round" stroke-width="0" color="#000"><path d="M371.99 120h-7.5"/><text fill="#000" font-family="KaTeX_Main" font-size="10" transform="translate(378.99 123.25)"><tspan> 0</tspan></text></g><g fill="none" stroke-linecap="round" stroke-linejoin="round" stroke-width="0" color="#000"><path d="M371.99 109.5h-7.5"/><text fill="#000" font-family="KaTeX_Main" font-size="10" transform="translate(378.99 112.75)"><tspan> 20</tspan></text></g><g fill="none" stroke-linecap="round" stroke-linejoin="round" stroke-width="0" color="#000"><path d="M371.99 99h-7.5"/><text fill="#000" font-family="KaTeX_Main" font-size="10" transform="translate(378.99 102.25)"><tspan> 40</tspan></text></g><g fill="none" stroke-linecap="round" stroke-linejoin="round" stroke-width="0" color="#000"><path d="M371.99 88.5h-7.5"/><text fill="#000" font-family="KaTeX_Main" font-size="10" transform="translate(378.99 91.75)"><tspan> 60</tspan></text></g><g fill="none" stroke-linecap="round" stroke-linejoin="round" stroke-width="0" color="#000"><path d="M371.99 78h-7.5"/><text fill="#000" font-family="KaTeX_Main" font-size="10" transform="translate(378.99 81.25)"><tspan> 80</tspan></text></g><g fill="none" stroke-linecap="round" stroke-linejoin="round" stroke-width="0" color="#000"><path d="M371.99 67.5h-7.5"/><text fill="#000" font-family="KaTeX_Main" font-size="10" transform="translate(378.99 70.75)"><tspan> 100</tspan></text></g><g fill="none" stroke-linecap="round" stroke-linejoin="round" stroke-width="0" color="#000"><path d="M371.99 57.01h-7.5"/><text fill="#000" font-family="KaTeX_Main" font-size="10" transform="translate(378.99 60.26)"><tspan> 120</tspan></text></g><g fill="none" stroke-linecap="round" stroke-linejoin="round" stroke-width="0" color="#000"><path d="M371.99 46.51h-7.5"/><text fill="#000" font-family="KaTeX_Main" font-size="10" transform="translate(378.99 49.76)"><tspan> 140</tspan></text></g><g fill="none" stroke-linecap="round" stroke-linejoin="round" stroke-width="0" color="#000"><path d="M371.99 36.01h-7.5"/><text fill="#000" font-family="KaTeX_Main" font-size="10" transform="translate(378.99 39.26)"><tspan> 160</tspan></text></g><g fill="none" stroke-linecap="round" stroke-linejoin="round" stroke-width="0" color="#000"><path d="M371.99 25.51h-7.5"/><text fill="#000" font-family="KaTeX_Main" font-size="10" transform="translate(378.99 28.76)"><tspan> 180</tspan></text></g><g fill="none" stroke-linecap="round" stroke-linejoin="round" stroke-width="0" color="#000"><path d="M371.99 15.01h-7.5"/><text fill="#000" font-family="KaTeX_Main" font-size="10" transform="translate(378.99 18.26)"><tspan> 200</tspan></text></g><path fill="none" d="M7 15.01V120h364.99M7 15.01" color="#000"/><text stroke-linecap="round" stroke-linejoin="round" color="#000" font-family="KaTeX_Main" font-size="10" transform="translate(59.75 12.64)"><tspan>log</tspan><tspan dy="3" font-size="8">2</tspan><tspan dy="-3">(x)</tspan></text><g fill="none" stroke="currentColor" stroke-linecap="round" stroke-linejoin="round" color="#000"><path stroke="#2962FF" d="M17.25 9.39h35.5M7 120l3.69-.07 3.68-.07 3.69-.07 3.69-.07 3.68-.07 3.69-.07 3.69-.07 3.68-.07 3.69-.07 3.69-.07 3.68-.08 3.69-.07 3.69-.07 3.68-.07 3.69-.07 3.69-.07 3.69-.07 3.68-.07 3.69-.07 3.69-.07 3.68-.07 3.69-.07 3.69-.07 3.68-.07 3.69-.07 3.69-.07 3.68-.07 3.69-.07 3.69-.07 3.68-.07 3.69-.07 3.69-.07 3.68-.08 3.69-.07 3.69-.07 3.68-.07 3.69-.07 3.69-.07 3.68-.07 3.69-.07 3.69-.07 3.68-.07 3.69-.07 3.69-.07 3.68-.07 3.69-.07 3.69-.07 3.68-.07 3.69-.07 3.69-.07 3.69-.07 3.68-.07 3.69-.07 3.69-.07 3.68-.08 3.69-.07 3.69-.07 3.68-.07 3.69-.07 3.69-.07 3.68-.07 3.69-.07 3.69-.07 3.68-.07 3.69-.07 3.69-.07 3.68-.07 3.69-.07 3.69-.07 3.68-.07 3.69-.07 3.69-.07 3.68-.07 3.69-.07 3.69-.07 3.68-.07 3.69-.08 3.69-.07 3.68-.07 3.69-.07 3.69-.07 3.68-.07 3.69-.07 3.69-.07 3.69-.07 3.68-.07 3.69-.07 3.69-.07 3.68-.07 3.69-.07 3.69-.07 3.68-.07 3.69-.07 3.69-.07 3.68-.07 3.69-.07 3.69-.07 3.68-.07 3.69-.08"/><use xlink:href="#573e2__a" color="#2962FF" transform="matrix(3.75 0 0 3.75 7 120)"/><use xlink:href="#573e2__a" color="#2962FF" transform="matrix(3.75 0 0 3.75 371.99 113.02)"/><use xlink:href="#573e2__a" color="#2962FF" transform="matrix(3.75 0 0 3.75 35 9.39)"/></g><text stroke-linecap="round" stroke-linejoin="round" color="#000" font-family="KaTeX_Main" font-size="10" transform="translate(179.25 12.64)"><tspan>11 * log</tspan><tspan dy="3" font-size="8">12</tspan><tspan dy="-3">(x)</tspan></text><g fill="none" stroke="currentColor" stroke-linecap="round" stroke-linejoin="round" color="#000"><path stroke="#29C3F6" stroke-dasharray="4.0,2.0,1.0,2.0" d="M136.75 9.39h35.5M7 120l3.69-.22 3.68-.21 3.69-.22 3.69-.21 3.68-.22 3.69-.22 3.69-.21 3.68-.22 3.69-.22 3.69-.21 3.68-.22 3.69-.21 3.69-.22 3.68-.22 3.69-.21 3.69-.22 3.69-.22 3.68-.21 3.69-.22 3.69-.21 3.68-.22 3.69-.22 3.69-.21 3.68-.22 3.69-.21 3.69-.22 3.68-.22 3.69-.21 3.69-.22 3.68-.22 3.69-.21 3.69-.22 3.68-.21 3.69-.22 3.69-.22 3.68-.21 3.69-.22 3.69-.22 3.68-.21 3.69-.22 3.69-.21 3.68-.22 3.69-.22 3.69-.21 3.68-.22 3.69-.21 3.69-.22 3.68-.22 3.69-.21 3.69-.22 3.69-.22 3.68-.21 3.69-.22 3.69-.21 3.68-.22 3.69-.22 3.69-.21 3.68-.22 3.69-.22 3.69-.21 3.68-.22 3.69-.21 3.69-.22 3.68-.22 3.69-.21 3.69-.22 3.68-.21 3.69-.22 3.69-.22 3.68-.21 3.69-.22 3.69-.22 3.68-.21 3.69-.22 3.69-.21 3.68-.22 3.69-.22 3.69-.21 3.68-.22 3.69-.22 3.69-.21 3.68-.22 3.69-.21 3.69-.22 3.69-.22 3.68-.21 3.69-.22 3.69-.21 3.68-.22 3.69-.22 3.69-.21 3.68-.22 3.69-.22 3.69-.21 3.68-.22 3.69-.21 3.69-.22 3.68-.22 3.69-.21"/><use xlink:href="#573e2__b" color="#29C3F6" transform="matrix(3.75 0 0 3.75 69.68 116.32)"/><use xlink:href="#573e2__b" color="#29C3F6" transform="matrix(3.75 0 0 3.75 154.5 9.39)"/></g><text stroke-linecap="round" stroke-linejoin="round" color="#000" font-family="KaTeX_Main" font-size="10" transform="translate(298.75 12.64)"><tspan>32 * log</tspan><tspan dy="3" font-size="8">5</tspan><tspan dy="-3">(x)</tspan></text><g fill="none" stroke="currentColor" stroke-linecap="round" stroke-linejoin="round" color="#000"><path stroke="#EC6F1A" stroke-dasharray="4.5,2.0,0.5,2.0,0.5,2.0" d="M256.25 9.39h35.5M7 120l3.69-.97 3.68-.97 3.69-.97 3.69-.97 3.68-.98 3.69-.97 3.69-.97 3.68-.97 3.69-.97 3.69-.97 3.68-.97 3.69-.97 3.69-.97 3.68-.97 3.69-.98 3.69-.97 3.69-.97 3.68-.97 3.69-.97 3.69-.97 3.68-.97 3.69-.97 3.69-.97 3.68-.97 3.69-.98 3.69-.97 3.68-.97 3.69-.97 3.69-.97 3.68-.97 3.69-.97 3.69-.97 3.68-.97 3.69-.98 3.69-.97 3.68-.97 3.69-.97 3.69-.97 3.68-.97 3.69-.97 3.69-.97 3.68-.97 3.69-.97 3.69-.98 3.68-.97 3.69-.97 3.69-.97 3.68-.97 3.69-.97 3.69-.97 3.69-.97 3.68-.97 3.69-.97 3.69-.98 3.68-.97 3.69-.97 3.69-.97 3.68-.97 3.69-.97 3.69-.97 3.68-.97 3.69-.97 3.69-.98 3.68-.97 3.69-.97 3.69-.97 3.68-.97 3.69-.97 3.69-.97 3.68-.97 3.69-.97 3.69-.97 3.68-.98 3.69-.97 3.69-.97 3.68-.97 3.69-.97 3.69-.97 3.68-.97 3.69-.97 3.69-.97 3.68-.97 3.69-.98 3.69-.97 3.69-.97 3.68-.97 3.69-.97 3.69-.97 3.68-.97 3.69-.97 3.69-.97 3.68-.98 3.69-.97 3.69-.97 3.68-.97 3.69-.97 3.69-.97 3.68-.97 3.69-.97"/><use xlink:href="#573e2__c" color="#EC6F1A" transform="matrix(3.75 0 0 3.75 132.35 86.98)"/><use xlink:href="#573e2__c" color="#EC6F1A" transform="matrix(3.75 0 0 3.75 274 9.39)"/></g><path fill="none" d="M7 15.01V120h364.99M7 15.01" color="#000"/></svg>