<svg xmlns="http://www.w3.org/2000/svg" viewBox="0 0 36 11"><path fill="none" d="M0 0h36v11H0z"/><path fill="none" d="M0 11h.75m35.24 0h-.75M0 10h.75m35.24 0h-.75M0 9h.75m35.24 0h-.75M0 8h.75m35.24 0h-.75M0 7h.75m35.24 0h-.75M0 6h.75m35.24 0h-.75M0 5.01h.75m35.24 0h-.75M0 4.01h.75m35.24 0h-.75M0 3.01h.75m35.24 0h-.75M0 2.01h.75m35.24 0h-.75M0 1.01h.75m35.24 0h-.75M0 .01h.75m35.24 0h-.75M0 11v-.75M0 .01v.75M1 11v-.75M1 .01v.75M2 11v-.75M2 .01v.75M3 11v-.75M3 .01v.75M4 11v-.75M4 .01v.75M5 11v-.75M5 .01v.75M6 11v-.75M6 .01v.75M7 11v-.75M7 .01v.75M8 11v-.75M8 .01v.75M9 11v-.75M9 .01v.75M10 11v-.75M10 .01v.75M11 11v-.75M11 .01v.75M12 11v-.75M12 .01v.75M13 11v-.75M13 .01v.75M14 11v-.75M14 .01v.75M15 11v-.75M15 .01v.75M16 11v-.75M16 .01v.75M17 11v-.75M17 .01v.75M18 11v-.75M18 .01v.75M18.99 11v-.75m0-10.24v.75m1 10.24v-.75m0-10.24v.75m1 10.24v-.75m0-10.24v.75m1 10.24v-.75m0-10.24v.75m1 10.24v-.75m0-10.24v.75m1 10.24v-.75m0-10.24v.75m1 10.24v-.75m0-10.24v.75m1 10.24v-.75m0-10.24v.75m1 10.24v-.75m0-10.24v.75m1 10.24v-.75m0-10.24v.75m1 10.24v-.75m0-10.24v.75m1 10.24v-.75m0-10.24v.75m1 10.24v-.75m0-10.24v.75m1 10.24v-.75m0-10.24v.75m1 10.24v-.75m0-10.24v.75m1 10.24v-.75m0-10.24v.75m1 10.24v-.75m0-10.24v.75m1 10.24v-.75m0-10.24v.75" color="#000"/><g fill="none" stroke="#000" stroke-linecap="round" stroke-linejoin="round" stroke-width=".1" color="#000"><path fill="#000" stroke="none" d="m13.23 3.39.07.15-.34-.02.19-.29.08.16z" shape-rendering="crispEdges"/><path d="m13.23 3.39.07.15-.34-.02.19-.29.08.16Z"/><path fill="#000" stroke="none" d="m16.79 1.6-.07-.15.34.02-.19.29-.08-.16z" shape-rendering="crispEdges"/><path d="m16.79 1.6-.07-.15.34.02-.19.29-.08-.16Zm0 0-3.56 1.79"/><path fill="#000" stroke="none" d="m22.78 3.39.08-.16.19.29-.34.02.07-.15z" shape-rendering="crispEdges"/><path d="m22.78 3.39.08-.16.19.29-.34.02.07-.15Z"/><path fill="#000" stroke="none" d="m19.22 1.6-.08.16-.19-.29.34-.02-.07.15z" shape-rendering="crispEdges"/><path d="m19.22 1.6-.08.16-.19-.29.34-.02-.07.15Zm0 0 3.56 1.79"/><path fill="#000" stroke="none" d="m9.97 6.03.12.13-.33.08.09-.33.12.12z" shape-rendering="crispEdges"/><path d="m9.97 6.03.12.13-.33.08.09-.33.12.12Z"/><path fill="#000" stroke="none" d="m11.05 4.96-.12-.13.33-.08-.09.33-.12-.12z" shape-rendering="crispEdges"/><path d="m11.05 4.96-.12-.13.33-.08-.09.33-.12-.12Zm0 0L9.97 6.03"/><path fill="#000" stroke="none" d="m14.05 6.03.12-.12.09.33-.33-.08.12-.13z" shape-rendering="crispEdges"/><path d="m14.05 6.03.12-.12.09.33-.33-.08.12-.13Z"/><path fill="#000" stroke="none" d="m12.97 4.96-.12.12-.09-.33.33.08-.12.13z" shape-rendering="crispEdges"/><path d="m12.97 4.96-.12.12-.09-.33.33.08-.12.13Zm0 0 1.08 1.07"/><path fill="#000" stroke="none" d="m21.96 6.03.12.13-.33.08.09-.33.12.12z" shape-rendering="crispEdges"/><path d="m21.96 6.03.12.13-.33.08.09-.33.12.12Z"/><path fill="#000" stroke="none" d="m23.04 4.96-.12-.13.33-.08-.09.33-.12-.12z" shape-rendering="crispEdges"/><path d="m23.04 4.96-.12-.13.33-.08-.09.33-.12-.12Zm0 0-1.08 1.07"/><path fill="#000" stroke="none" d="m26.04 6.03.12-.12.09.33-.33-.08.12-.13z" shape-rendering="crispEdges"/><path d="m26.04 6.03.12-.12.09.33-.33-.08.12-.13Z"/><path fill="#000" stroke="none" d="m24.96 4.96-.12.12-.09-.33.33.08-.12.13z" shape-rendering="crispEdges"/><path d="m24.96 4.96-.12.12-.09-.33.33.08-.12.13Zm0 0 1.08 1.07"/><path fill="#000" stroke="none" d="m8.11 8.77.16.08-.29.19-.02-.34.15.07z" shape-rendering="crispEdges"/><path d="m8.11 8.77.16.08-.29.19-.02-.34.15.07Z"/><path fill="#000" stroke="none" d="m8.4 8.21-.16-.08.29-.19.02.34-.15-.07z" shape-rendering="crispEdges"/><path d="m8.4 8.21-.16-.08.29-.19.02.34-.15-.07Zm0 0-.29.56"/><path fill="#000" stroke="none" d="m9.9 8.77.15-.07-.02.34-.29-.19.16-.08z" shape-rendering="crispEdges"/><path d="m9.9 8.77.15-.07-.02.34-.29-.19.16-.08Z"/><path fill="#000" stroke="none" d="m9.61 8.21-.15.07.02-.34.29.19-.16.08z" shape-rendering="crispEdges"/><path d="m9.61 8.21-.15.07.02-.34.29.19-.16.08Zm0 0 .29.56"/><path fill="#000" stroke="none" d="m14.11 8.77.16.08-.29.19-.02-.34.15.07z" shape-rendering="crispEdges"/><path d="m14.11 8.77.16.08-.29.19-.02-.34.15.07Z"/><path fill="#000" stroke="none" d="m14.4 8.21-.16-.08.29-.19.02.34-.15-.07z" shape-rendering="crispEdges"/><path d="m14.4 8.21-.16-.08.29-.19.02.34-.15-.07Zm0 0-.29.56"/><path fill="#000" stroke="none" d="m15.9 8.77.15-.07-.02.34-.29-.19.16-.08z" shape-rendering="crispEdges"/><path d="m15.9 8.77.15-.07-.02.34-.29-.19.16-.08Z"/><path fill="#000" stroke="none" d="m15.61 8.21-.15.07.02-.34.29.19-.16.08z" shape-rendering="crispEdges"/><path d="m15.61 8.21-.15.07.02-.34.29.19-.16.08Zm0 0 .29.56"/><path fill="#000" stroke="none" d="m20.11 8.77.16.08-.29.19-.02-.34.15.07z" shape-rendering="crispEdges"/><path d="m20.11 8.77.16.08-.29.19-.02-.34.15.07Z"/><path fill="#000" stroke="none" d="m20.4 8.21-.16-.08.29-.19.02.34-.15-.07z" shape-rendering="crispEdges"/><path d="m20.4 8.21-.16-.08.29-.19.02.34-.15-.07Zm0 0-.29.56"/><path fill="#000" stroke="none" d="m21.9 8.77.15-.07-.02.34-.29-.19.16-.08z" shape-rendering="crispEdges"/><path d="m21.9 8.77.15-.07-.02.34-.29-.19.16-.08Z"/><path fill="#000" stroke="none" d="m21.61 8.21-.15.07.02-.34.29.19-.16.08z" shape-rendering="crispEdges"/><path d="m21.61 8.21-.15.07.02-.34.29.19-.16.08Zm0 0 .29.56"/><path fill="#000" stroke="none" d="m26.11 8.77.16.08-.29.19-.02-.34.15.07z" shape-rendering="crispEdges"/><path d="m26.11 8.77.16.08-.29.19-.02-.34.15.07Z"/><path fill="#000" stroke="none" d="m26.4 8.21-.16-.08.29-.19.02.34-.15-.07z" shape-rendering="crispEdges"/><path d="m26.4 8.21-.16-.08.29-.19.02.34-.15-.07Zm0 0-.29.56"/><path fill="#000" stroke="none" d="m27.9 8.77.15-.07-.02.34-.29-.19.16-.08z" shape-rendering="crispEdges"/><path d="m27.9 8.77.15-.07-.02.34-.29-.19.16-.08Z"/><path fill="#000" stroke="none" d="m27.61 8.21-.15.07.02-.34.29.19-.16.08z" shape-rendering="crispEdges"/><path d="m27.61 8.21-.15.07.02-.34.29.19-.16.08Zm0 0 .29.56"/></g><g fill="none" stroke="currentColor" stroke-linecap="round" stroke-linejoin="round" stroke-width=".1" color="#000"><path fill="#000" stroke="none" d="M18.35 1.01V.98l-.01-.02V.92l-.01-.01-.01-.02V.87l-.01-.02-.01-.01-.01-.02-.01-.01-.01-.02-.01-.01-.02-.01-.01-.02-.01-.01-.02-.01-.01-.01-.02-.01-.01-.01-.02-.01h-.02L18.1.68l-.01-.01h-.04l-.02-.01h-.07l-.02.01h-.04l-.01.01-.02.01h-.02l-.02.01-.01.01-.02.01-.01.01-.02.01-.01.01-.01.02-.02.01-.01.01-.01.02-.01.01-.01.02-.01.01-.01.02v.02l-.01.02-.01.01v.04l-.01.02v.07l.01.02v.04l.01.01.01.02v.02l.01.02.01.01.01.02.01.01.01.02.01.01.02.01.01.02.01.01.02.01.01.01.02.01.01.01.02.01h.02l.02.01.01.01h.04l.02.01h.07l.02-.01h.04l.01-.01.02-.01h.02l.02-.01.01-.01.02-.01.01-.01.02-.01.01-.01.01-.02.02-.01.01-.01.01-.02.01-.01.01-.02.01-.01.01-.02v-.02l.01-.02.01-.01v-.04l.01-.02v-.02z" shape-rendering="crispEdges"/><path stroke="#000" d="M18.35 1.01V.98l-.01-.02V.92l-.01-.01-.01-.02V.87l-.01-.02-.01-.01-.01-.02-.01-.01-.01-.02-.01-.01-.02-.01-.01-.02-.01-.01-.02-.01-.01-.01-.02-.01-.01-.01-.02-.01h-.02L18.1.68l-.01-.01h-.04l-.02-.01h-.07l-.02.01h-.04l-.01.01-.02.01h-.02l-.02.01-.01.01-.02.01-.01.01-.02.01-.01.01-.01.02-.02.01-.01.01-.01.02-.01.01-.01.02-.01.01-.01.02v.02l-.01.02-.01.01v.04l-.01.02v.07l.01.02v.04l.01.01.01.02v.02l.01.02.01.01.01.02.01.01.01.02.01.01.02.01.01.02.01.01.02.01.01.01.02.01.01.01.02.01h.02l.02.01.01.01h.04l.02.01h.07l.02-.01h.04l.01-.01.02-.01h.02l.02-.01.01-.01.02-.01.01-.01.02-.01.01-.01.01-.02.02-.01.01-.01.01-.02.01-.01.01-.02.01-.01.01-.02v-.02l.01-.02.01-.01v-.04l.01-.02v-.04Z"/></g><g fill="none" stroke="currentColor" stroke-linecap="round" stroke-linejoin="round" stroke-width=".1" color="#000"><path fill="#000" stroke="none" d="M12.35 4.01v-.03l-.01-.02v-.04l-.01-.01-.01-.02v-.02l-.01-.02-.01-.01-.01-.02-.01-.01-.01-.02-.01-.01-.02-.01-.01-.02-.01-.01-.02-.01-.01-.01-.02-.01-.01-.01-.02-.01h-.02l-.02-.01-.01-.01h-.04l-.02-.01h-.07l-.02.01h-.04l-.01.01-.02.01h-.02l-.02.01-.01.01-.02.01-.01.01-.02.01-.01.01-.01.02-.02.01-.01.01-.01.02-.01.01-.01.02-.01.01-.01.02v.02l-.01.02-.01.01v.04l-.01.02v.07l.01.02v.04l.01.01.01.02v.02l.01.02.01.01.01.02.01.01.01.02.01.01.02.01.01.02.01.01.02.01.01.01.02.01.01.01.02.01h.02l.02.01.01.01h.04l.02.01h.07l.02-.01h.04l.01-.01.02-.01h.02l.02-.01.01-.01.02-.01.01-.01.02-.01.01-.01.01-.02.02-.01.01-.01.01-.02.01-.01.01-.02.01-.01.01-.02v-.02l.01-.02.01-.01v-.04l.01-.02v-.02z" shape-rendering="crispEdges"/><path stroke="#000" d="M12.35 4.01v-.03l-.01-.02v-.04l-.01-.01-.01-.02v-.02l-.01-.02-.01-.01-.01-.02-.01-.01-.01-.02-.01-.01-.02-.01-.01-.02-.01-.01-.02-.01-.01-.01-.02-.01-.01-.01-.02-.01h-.02l-.02-.01-.01-.01h-.04l-.02-.01h-.07l-.02.01h-.04l-.01.01-.02.01h-.02l-.02.01-.01.01-.02.01-.01.01-.02.01-.01.01-.01.02-.02.01-.01.01-.01.02-.01.01-.01.02-.01.01-.01.02v.02l-.01.02-.01.01v.04l-.01.02v.07l.01.02v.04l.01.01.01.02v.02l.01.02.01.01.01.02.01.01.01.02.01.01.02.01.01.02.01.01.02.01.01.01.02.01.01.01.02.01h.02l.02.01.01.01h.04l.02.01h.07l.02-.01h.04l.01-.01.02-.01h.02l.02-.01.01-.01.02-.01.01-.01.02-.01.01-.01.01-.02.02-.01.01-.01.01-.02.01-.01.01-.02.01-.01.01-.02v-.02l.01-.02.01-.01v-.04l.01-.02v-.04Z"/></g><g fill="none" stroke="currentColor" stroke-linecap="round" stroke-linejoin="round" stroke-width=".1" color="#000"><path fill="#000" stroke="none" d="M24.34 4.01v-.03l-.01-.02v-.04l-.01-.01-.01-.02v-.02l-.01-.02-.01-.01-.01-.02-.01-.01-.01-.02-.01-.01-.02-.01-.01-.02-.01-.01-.02-.01-.01-.01-.02-.01-.01-.01-.02-.01h-.02l-.02-.01-.01-.01h-.04l-.02-.01h-.07l-.02.01h-.04l-.01.01-.02.01h-.02l-.02.01-.01.01-.02.01-.01.01-.02.01-.01.01-.01.02-.02.01-.01.01-.01.02-.01.01-.01.02-.01.01-.01.02v.02l-.01.02-.01.01v.04l-.01.02v.07l.01.02v.04l.01.01.01.02v.02l.01.02.01.01.01.02.01.01.01.02.01.01.02.01.01.02.01.01.02.01.01.01.02.01.01.01.02.01h.02l.02.01.01.01h.04l.02.01h.07l.02-.01h.04l.01-.01.02-.01h.02l.02-.01.01-.01.02-.01.01-.01.02-.01.01-.01.01-.02.02-.01.01-.01.01-.02.01-.01.01-.02.01-.01.01-.02v-.02l.01-.02.01-.01v-.04l.01-.02v-.02z" shape-rendering="crispEdges"/><path stroke="#000" d="M24.34 4.01v-.03l-.01-.02v-.04l-.01-.01-.01-.02v-.02l-.01-.02-.01-.01-.01-.02-.01-.01-.01-.02-.01-.01-.02-.01-.01-.02-.01-.01-.02-.01-.01-.01-.02-.01-.01-.01-.02-.01h-.02l-.02-.01-.01-.01h-.04l-.02-.01h-.07l-.02.01h-.04l-.01.01-.02.01h-.02l-.02.01-.01.01-.02.01-.01.01-.02.01-.01.01-.01.02-.02.01-.01.01-.01.02-.01.01-.01.02-.01.01-.01.02v.02l-.01.02-.01.01v.04l-.01.02v.07l.01.02v.04l.01.01.01.02v.02l.01.02.01.01.01.02.01.01.01.02.01.01.02.01.01.02.01.01.02.01.01.01.02.01.01.01.02.01h.02l.02.01.01.01h.04l.02.01h.07l.02-.01h.04l.01-.01.02-.01h.02l.02-.01.01-.01.02-.01.01-.01.02-.01.01-.01.01-.02.02-.01.01-.01.01-.02.01-.01.01-.02.01-.01.01-.02v-.02l.01-.02.01-.01v-.04l.01-.02v-.04Z"/></g><g fill="none" stroke="currentColor" stroke-linecap="round" stroke-linejoin="round" stroke-width=".1" color="#000"><path fill="#000" stroke="none" d="M9.35 7v-.03l-.01-.02v-.04l-.01-.01-.01-.02v-.02l-.01-.02-.01-.01-.01-.02-.01-.01-.01-.02-.01-.01-.02-.01-.01-.02-.01-.01-.02-.01-.01-.01-.02-.01-.01-.01-.02-.01h-.02l-.02-.01-.01-.01h-.04l-.02-.01h-.07l-.02.01H8.9l-.01.01-.02.01h-.02l-.02.01-.01.01-.02.01-.01.01-.02.01-.01.01-.01.02-.02.01-.01.01-.01.02-.01.01-.01.02-.01.01-.01.02v.02l-.01.02-.01.01v.04l-.01.02v.07l.01.02v.04l.01.01.01.02v.02l.01.02.01.01.01.02.01.01.01.02.01.01.02.01.01.02.01.01.02.01.01.01.02.01.01.01.02.01h.02l.02.01.01.01h.04l.02.01h.07l.02-.01h.04l.01-.01.02-.01h.02l.02-.01.01-.01.02-.01.01-.01.02-.01.01-.01.01-.02.02-.01.01-.01.01-.02.01-.01.01-.02.01-.01.01-.02v-.02l.01-.02.01-.01v-.04l.01-.02v-.02z" shape-rendering="crispEdges"/><path stroke="#000" d="M9.35 7v-.03l-.01-.02v-.04l-.01-.01-.01-.02v-.02l-.01-.02-.01-.01-.01-.02-.01-.01-.01-.02-.01-.01-.02-.01-.01-.02-.01-.01-.02-.01-.01-.01-.02-.01-.01-.01-.02-.01h-.02l-.02-.01-.01-.01h-.04l-.02-.01h-.07l-.02.01H8.9l-.01.01-.02.01h-.02l-.02.01-.01.01-.02.01-.01.01-.02.01-.01.01-.01.02-.02.01-.01.01-.01.02-.01.01-.01.02-.01.01-.01.02v.02l-.01.02-.01.01v.04l-.01.02v.07l.01.02v.04l.01.01.01.02v.02l.01.02.01.01.01.02.01.01.01.02.01.01.02.01.01.02.01.01.02.01.01.01.02.01.01.01.02.01h.02l.02.01.01.01h.04l.02.01h.07l.02-.01h.04l.01-.01.02-.01h.02l.02-.01.01-.01.02-.01.01-.01.02-.01.01-.01.01-.02.02-.01.01-.01.01-.02.01-.01.01-.02.01-.01.01-.02v-.02l.01-.02.01-.01v-.04l.01-.02V7Z"/></g><g fill="none" stroke="currentColor" stroke-linecap="round" stroke-linejoin="round" stroke-width=".1" color="#000"><path fill="#000" stroke="none" d="M15.35 7v-.03l-.01-.02v-.04l-.01-.01-.01-.02v-.02l-.01-.02-.01-.01-.01-.02-.01-.01-.01-.02-.01-.01-.02-.01-.01-.02-.01-.01-.02-.01-.01-.01-.02-.01-.01-.01-.02-.01h-.02l-.02-.01-.01-.01h-.04l-.02-.01h-.07l-.02.01h-.04l-.01.01-.02.01h-.02l-.02.01-.01.01-.02.01-.01.01-.02.01-.01.01-.01.02-.02.01-.01.01-.01.02-.01.01-.01.02-.01.01-.01.02v.02l-.01.02-.01.01v.04l-.01.02v.07l.01.02v.04l.01.01.01.02v.02l.01.02.01.01.01.02.01.01.01.02.01.01.02.01.01.02.01.01.02.01.01.01.02.01.01.01.02.01h.02l.02.01.01.01h.04l.02.01h.07l.02-.01h.04l.01-.01.02-.01h.02l.02-.01.01-.01.02-.01.01-.01.02-.01.01-.01.01-.02.02-.01.01-.01.01-.02.01-.01.01-.02.01-.01.01-.02v-.02l.01-.02.01-.01v-.04l.01-.02v-.02z" shape-rendering="crispEdges"/><path stroke="#000" d="M15.35 7v-.03l-.01-.02v-.04l-.01-.01-.01-.02v-.02l-.01-.02-.01-.01-.01-.02-.01-.01-.01-.02-.01-.01-.02-.01-.01-.02-.01-.01-.02-.01-.01-.01-.02-.01-.01-.01-.02-.01h-.02l-.02-.01-.01-.01h-.04l-.02-.01h-.07l-.02.01h-.04l-.01.01-.02.01h-.02l-.02.01-.01.01-.02.01-.01.01-.02.01-.01.01-.01.02-.02.01-.01.01-.01.02-.01.01-.01.02-.01.01-.01.02v.02l-.01.02-.01.01v.04l-.01.02v.07l.01.02v.04l.01.01.01.02v.02l.01.02.01.01.01.02.01.01.01.02.01.01.02.01.01.02.01.01.02.01.01.01.02.01.01.01.02.01h.02l.02.01.01.01h.04l.02.01h.07l.02-.01h.04l.01-.01.02-.01h.02l.02-.01.01-.01.02-.01.01-.01.02-.01.01-.01.01-.02.02-.01.01-.01.01-.02.01-.01.01-.02.01-.01.01-.02v-.02l.01-.02.01-.01v-.04l.01-.02V7Z"/></g><g fill="none" stroke="currentColor" stroke-linecap="round" stroke-linejoin="round" stroke-width=".1" color="#000"><path fill="#000" stroke="none" d="M21.34 7v-.03l-.01-.02v-.04l-.01-.01-.01-.02v-.02l-.01-.02-.01-.01-.01-.02-.01-.01-.01-.02-.01-.01-.02-.01-.01-.02-.01-.01-.02-.01-.01-.01-.02-.01-.01-.01-.02-.01h-.02l-.02-.01-.01-.01h-.04l-.02-.01h-.07l-.02.01h-.04l-.01.01-.02.01h-.02l-.02.01-.01.01-.02.01-.01.01-.02.01-.01.01-.01.02-.02.01-.01.01-.01.02-.01.01-.01.02-.01.01-.01.02v.02l-.01.02-.01.01v.04l-.01.02v.07l.01.02v.04l.01.01.01.02v.02l.01.02.01.01.01.02.01.01.01.02.01.01.02.01.01.02.01.01.02.01.01.01.02.01.01.01.02.01h.02l.02.01.01.01h.04l.02.01h.07l.02-.01h.04l.01-.01.02-.01h.02l.02-.01.01-.01.02-.01.01-.01.02-.01.01-.01.01-.02.02-.01.01-.01.01-.02.01-.01.01-.02.01-.01.01-.02v-.02l.01-.02.01-.01v-.04l.01-.02v-.02z" shape-rendering="crispEdges"/><path stroke="#000" d="M21.34 7v-.03l-.01-.02v-.04l-.01-.01-.01-.02v-.02l-.01-.02-.01-.01-.01-.02-.01-.01-.01-.02-.01-.01-.02-.01-.01-.02-.01-.01-.02-.01-.01-.01-.02-.01-.01-.01-.02-.01h-.02l-.02-.01-.01-.01h-.04l-.02-.01h-.07l-.02.01h-.04l-.01.01-.02.01h-.02l-.02.01-.01.01-.02.01-.01.01-.02.01-.01.01-.01.02-.02.01-.01.01-.01.02-.01.01-.01.02-.01.01-.01.02v.02l-.01.02-.01.01v.04l-.01.02v.07l.01.02v.04l.01.01.01.02v.02l.01.02.01.01.01.02.01.01.01.02.01.01.02.01.01.02.01.01.02.01.01.01.02.01.01.01.02.01h.02l.02.01.01.01h.04l.02.01h.07l.02-.01h.04l.01-.01.02-.01h.02l.02-.01.01-.01.02-.01.01-.01.02-.01.01-.01.01-.02.02-.01.01-.01.01-.02.01-.01.01-.02.01-.01.01-.02v-.02l.01-.02.01-.01v-.04l.01-.02V7Z"/></g><g fill="none" stroke="currentColor" stroke-linecap="round" stroke-linejoin="round" stroke-width=".1" color="#000"><path fill="#000" stroke="none" d="M27.34 7v-.03l-.01-.02v-.04l-.01-.01-.01-.02v-.02l-.01-.02-.01-.01-.01-.02-.01-.01-.01-.02-.01-.01-.02-.01-.01-.02-.01-.01-.02-.01-.01-.01-.02-.01-.01-.01-.02-.01h-.02l-.02-.01-.01-.01h-.04l-.02-.01h-.07l-.02.01h-.04l-.01.01-.02.01h-.02l-.02.01-.01.01-.02.01-.01.01-.02.01-.01.01-.01.02-.02.01-.01.01-.01.02-.01.01-.01.02-.01.01-.01.02v.02l-.01.02-.01.01v.04l-.01.02v.07l.01.02v.04l.01.01.01.02v.02l.01.02.01.01.01.02.01.01.01.02.01.01.02.01.01.02.01.01.02.01.01.01.02.01.01.01.02.01h.02l.02.01.01.01h.04l.02.01h.07l.02-.01h.04l.01-.01.02-.01h.02l.02-.01.01-.01.02-.01.01-.01.02-.01.01-.01.01-.02.02-.01.01-.01.01-.02.01-.01.01-.02.01-.01.01-.02v-.02l.01-.02.01-.01v-.04l.01-.02v-.02z" shape-rendering="crispEdges"/><path stroke="#000" d="M27.34 7v-.03l-.01-.02v-.04l-.01-.01-.01-.02v-.02l-.01-.02-.01-.01-.01-.02-.01-.01-.01-.02-.01-.01-.02-.01-.01-.02-.01-.01-.02-.01-.01-.01-.02-.01-.01-.01-.02-.01h-.02l-.02-.01-.01-.01h-.04l-.02-.01h-.07l-.02.01h-.04l-.01.01-.02.01h-.02l-.02.01-.01.01-.02.01-.01.01-.02.01-.01.01-.01.02-.02.01-.01.01-.01.02-.01.01-.01.02-.01.01-.01.02v.02l-.01.02-.01.01v.04l-.01.02v.07l.01.02v.04l.01.01.01.02v.02l.01.02.01.01.01.02.01.01.01.02.01.01.02.01.01.02.01.01.02.01.01.01.02.01.01.01.02.01h.02l.02.01.01.01h.04l.02.01h.07l.02-.01h.04l.01-.01.02-.01h.02l.02-.01.01-.01.02-.01.01-.01.02-.01.01-.01.01-.02.02-.01.01-.01.01-.02.01-.01.01-.02.01-.01.01-.02v-.02l.01-.02.01-.01v-.04l.01-.02V7Z"/></g><g fill="none" stroke="currentColor" stroke-linecap="round" stroke-linejoin="round" stroke-width=".1" color="#000"><path fill="#000" stroke="none" d="M7.85 10v-.03l-.01-.02v-.04l-.01-.01-.01-.02v-.02l-.01-.02-.01-.01-.01-.02-.01-.01-.01-.02-.01-.01-.02-.01-.01-.02-.01-.01-.02-.01-.01-.01-.02-.01-.01-.01-.02-.01h-.02l-.02-.01-.01-.01h-.04l-.02-.01h-.07l-.02.01H7.4l-.01.01-.02.01h-.02l-.02.01-.01.01-.02.01-.01.01-.02.01-.01.01-.01.02-.02.01-.01.01-.01.02-.01.01-.01.02-.01.01-.01.02v.02l-.01.02-.01.01v.04l-.01.02v.07l.01.02v.04l.01.01.01.02v.02l.01.02.01.01.01.02.01.01.01.02.01.01.02.01.01.02.01.01.02.01.01.01.02.01.01.01.02.01h.02l.02.01.01.01h.04l.02.01h.07l.02-.01h.04l.01-.01.02-.01h.02l.02-.01.01-.01.02-.01.01-.01.02-.01.01-.01.01-.02.02-.01.01-.01.01-.02.01-.01.01-.02.01-.01.01-.02v-.02l.01-.02.01-.01v-.04l.01-.02v-.02z" shape-rendering="crispEdges"/><path stroke="#000" d="M7.85 10v-.03l-.01-.02v-.04l-.01-.01-.01-.02v-.02l-.01-.02-.01-.01-.01-.02-.01-.01-.01-.02-.01-.01-.02-.01-.01-.02-.01-.01-.02-.01-.01-.01-.02-.01-.01-.01-.02-.01h-.02l-.02-.01-.01-.01h-.04l-.02-.01h-.07l-.02.01H7.4l-.01.01-.02.01h-.02l-.02.01-.01.01-.02.01-.01.01-.02.01-.01.01-.01.02-.02.01-.01.01-.01.02-.01.01-.01.02-.01.01-.01.02v.02l-.01.02-.01.01v.04l-.01.02v.07l.01.02v.04l.01.01.01.02v.02l.01.02.01.01.01.02.01.01.01.02.01.01.02.01.01.02.01.01.02.01.01.01.02.01.01.01.02.01h.02l.02.01.01.01h.04l.02.01h.07l.02-.01h.04l.01-.01.02-.01h.02l.02-.01.01-.01.02-.01.01-.01.02-.01.01-.01.01-.02.02-.01.01-.01.01-.02.01-.01.01-.02.01-.01.01-.02v-.02l.01-.02.01-.01v-.04l.01-.02v-.03"/></g><g fill="none" stroke="currentColor" stroke-linecap="round" stroke-linejoin="round" stroke-width=".1" color="#000"><path fill="#000" stroke="none" d="M10.85 10v-.03l-.01-.02v-.04l-.01-.01-.01-.02v-.02l-.01-.02-.01-.01-.01-.02-.01-.01-.01-.02-.01-.01-.02-.01-.01-.02-.01-.01-.02-.01-.01-.01-.02-.01-.01-.01-.02-.01h-.02l-.02-.01-.01-.01h-.04l-.02-.01h-.07l-.02.01h-.04l-.01.01-.02.01h-.02l-.02.01-.01.01-.02.01-.01.01-.02.01-.01.01-.01.02-.02.01-.01.01-.01.02-.01.01-.01.02-.01.01-.01.02v.02l-.01.02-.01.01v.04l-.01.02v.07l.01.02v.04l.01.01.01.02v.02l.01.02.01.01.01.02.01.01.01.02.01.01.02.01.01.02.01.01.02.01.01.01.02.01.01.01.02.01h.02l.02.01.01.01h.04l.02.01h.07l.02-.01h.04l.01-.01.02-.01h.02l.02-.01.01-.01.02-.01.01-.01.02-.01.01-.01.01-.02.02-.01.01-.01.01-.02.01-.01.01-.02.01-.01.01-.02v-.02l.01-.02.01-.01v-.04l.01-.02v-.02z" shape-rendering="crispEdges"/><path stroke="#000" d="M10.85 10v-.03l-.01-.02v-.04l-.01-.01-.01-.02v-.02l-.01-.02-.01-.01-.01-.02-.01-.01-.01-.02-.01-.01-.02-.01-.01-.02-.01-.01-.02-.01-.01-.01-.02-.01-.01-.01-.02-.01h-.02l-.02-.01-.01-.01h-.04l-.02-.01h-.07l-.02.01h-.04l-.01.01-.02.01h-.02l-.02.01-.01.01-.02.01-.01.01-.02.01-.01.01-.01.02-.02.01-.01.01-.01.02-.01.01-.01.02-.01.01-.01.02v.02l-.01.02-.01.01v.04l-.01.02v.07l.01.02v.04l.01.01.01.02v.02l.01.02.01.01.01.02.01.01.01.02.01.01.02.01.01.02.01.01.02.01.01.01.02.01.01.01.02.01h.02l.02.01.01.01h.04l.02.01h.07l.02-.01h.04l.01-.01.02-.01h.02l.02-.01.01-.01.02-.01.01-.01.02-.01.01-.01.01-.02.02-.01.01-.01.01-.02.01-.01.01-.02.01-.01.01-.02v-.02l.01-.02.01-.01v-.04l.01-.02v-.03"/></g><g fill="none" stroke="currentColor" stroke-linecap="round" stroke-linejoin="round" stroke-width=".1" color="#000"><path fill="#000" stroke="none" d="M13.85 10v-.03l-.01-.02v-.04l-.01-.01-.01-.02v-.02l-.01-.02-.01-.01-.01-.02-.01-.01-.01-.02-.01-.01-.02-.01-.01-.02-.01-.01-.02-.01-.01-.01-.02-.01-.01-.01-.02-.01h-.02l-.02-.01-.01-.01h-.04l-.02-.01h-.07l-.02.01h-.04l-.01.01-.02.01h-.02l-.02.01-.01.01-.02.01-.01.01-.02.01-.01.01-.01.02-.02.01-.01.01-.01.02-.01.01-.01.02-.01.01-.01.02v.02l-.01.02-.01.01v.04l-.01.02v.07l.01.02v.04l.01.01.01.02v.02l.01.02.01.01.01.02.01.01.01.02.01.01.02.01.01.02.01.01.02.01.01.01.02.01.01.01.02.01h.02l.02.01.01.01h.04l.02.01h.07l.02-.01h.04l.01-.01.02-.01h.02l.02-.01.01-.01.02-.01.01-.01.02-.01.01-.01.01-.02.02-.01.01-.01.01-.02.01-.01.01-.02.01-.01.01-.02v-.02l.01-.02.01-.01v-.04l.01-.02v-.02z" shape-rendering="crispEdges"/><path stroke="#000" d="M13.85 10v-.03l-.01-.02v-.04l-.01-.01-.01-.02v-.02l-.01-.02-.01-.01-.01-.02-.01-.01-.01-.02-.01-.01-.02-.01-.01-.02-.01-.01-.02-.01-.01-.01-.02-.01-.01-.01-.02-.01h-.02l-.02-.01-.01-.01h-.04l-.02-.01h-.07l-.02.01h-.04l-.01.01-.02.01h-.02l-.02.01-.01.01-.02.01-.01.01-.02.01-.01.01-.01.02-.02.01-.01.01-.01.02-.01.01-.01.02-.01.01-.01.02v.02l-.01.02-.01.01v.04l-.01.02v.07l.01.02v.04l.01.01.01.02v.02l.01.02.01.01.01.02.01.01.01.02.01.01.02.01.01.02.01.01.02.01.01.01.02.01.01.01.02.01h.02l.02.01.01.01h.04l.02.01h.07l.02-.01h.04l.01-.01.02-.01h.02l.02-.01.01-.01.02-.01.01-.01.02-.01.01-.01.01-.02.02-.01.01-.01.01-.02.01-.01.01-.02.01-.01.01-.02v-.02l.01-.02.01-.01v-.04l.01-.02v-.03"/></g><g fill="none" stroke="currentColor" stroke-linecap="round" stroke-linejoin="round" stroke-width=".1" color="#000"><path fill="#000" stroke="none" d="M16.85 10v-.03l-.01-.02v-.04l-.01-.01-.01-.02v-.02l-.01-.02-.01-.01-.01-.02-.01-.01-.01-.02-.01-.01-.02-.01-.01-.02-.01-.01-.02-.01-.01-.01-.02-.01-.01-.01-.02-.01h-.02l-.02-.01-.01-.01h-.04l-.02-.01h-.07l-.02.01h-.04l-.01.01-.02.01h-.02l-.02.01-.01.01-.02.01-.01.01-.02.01-.01.01-.01.02-.02.01-.01.01-.01.02-.01.01-.01.02-.01.01-.01.02v.02l-.01.02-.01.01v.04l-.01.02v.07l.01.02v.04l.01.01.01.02v.02l.01.02.01.01.01.02.01.01.01.02.01.01.02.01.01.02.01.01.02.01.01.01.02.01.01.01.02.01h.02l.02.01.01.01h.04l.02.01h.07l.02-.01h.04l.01-.01.02-.01h.02l.02-.01.01-.01.02-.01.01-.01.02-.01.01-.01.01-.02.02-.01.01-.01.01-.02.01-.01.01-.02.01-.01.01-.02v-.02l.01-.02.01-.01v-.04l.01-.02v-.02z" shape-rendering="crispEdges"/><path stroke="#000" d="M16.85 10v-.03l-.01-.02v-.04l-.01-.01-.01-.02v-.02l-.01-.02-.01-.01-.01-.02-.01-.01-.01-.02-.01-.01-.02-.01-.01-.02-.01-.01-.02-.01-.01-.01-.02-.01-.01-.01-.02-.01h-.02l-.02-.01-.01-.01h-.04l-.02-.01h-.07l-.02.01h-.04l-.01.01-.02.01h-.02l-.02.01-.01.01-.02.01-.01.01-.02.01-.01.01-.01.02-.02.01-.01.01-.01.02-.01.01-.01.02-.01.01-.01.02v.02l-.01.02-.01.01v.04l-.01.02v.07l.01.02v.04l.01.01.01.02v.02l.01.02.01.01.01.02.01.01.01.02.01.01.02.01.01.02.01.01.02.01.01.01.02.01.01.01.02.01h.02l.02.01.01.01h.04l.02.01h.07l.02-.01h.04l.01-.01.02-.01h.02l.02-.01.01-.01.02-.01.01-.01.02-.01.01-.01.01-.02.02-.01.01-.01.01-.02.01-.01.01-.02.01-.01.01-.02v-.02l.01-.02.01-.01v-.04l.01-.02v-.03"/></g><g fill="none" stroke="currentColor" stroke-linecap="round" stroke-linejoin="round" stroke-width=".1" color="#000"><path fill="#000" stroke="none" d="M19.84 10v-.03l-.01-.02v-.04l-.01-.01-.01-.02v-.02l-.01-.02-.01-.01-.01-.02-.01-.01-.01-.02-.01-.01-.02-.01-.01-.02-.01-.01-.02-.01-.01-.01-.02-.01-.01-.01-.02-.01h-.02l-.02-.01-.01-.01h-.04l-.02-.01h-.07l-.02.01h-.04l-.01.01-.02.01h-.02l-.02.01-.01.01-.02.01-.01.01-.02.01-.01.01-.01.02-.02.01-.01.01-.01.02-.01.01-.01.02-.01.01-.01.02v.02l-.01.02-.01.01v.04l-.01.02v.07l.01.02v.04l.01.01.01.02v.02l.01.02.01.01.01.02.01.01.01.02.01.01.02.01.01.02.01.01.02.01.01.01.02.01.01.01.02.01h.02l.02.01.01.01h.04l.02.01h.07l.02-.01h.04l.01-.01.02-.01h.02l.02-.01.01-.01.02-.01.01-.01.02-.01.01-.01.01-.02.02-.01.01-.01.01-.02.01-.01.01-.02.01-.01.01-.02v-.02l.01-.02.01-.01v-.04l.01-.02v-.02z" shape-rendering="crispEdges"/><path stroke="#000" d="M19.84 10v-.03l-.01-.02v-.04l-.01-.01-.01-.02v-.02l-.01-.02-.01-.01-.01-.02-.01-.01-.01-.02-.01-.01-.02-.01-.01-.02-.01-.01-.02-.01-.01-.01-.02-.01-.01-.01-.02-.01h-.02l-.02-.01-.01-.01h-.04l-.02-.01h-.07l-.02.01h-.04l-.01.01-.02.01h-.02l-.02.01-.01.01-.02.01-.01.01-.02.01-.01.01-.01.02-.02.01-.01.01-.01.02-.01.01-.01.02-.01.01-.01.02v.02l-.01.02-.01.01v.04l-.01.02v.07l.01.02v.04l.01.01.01.02v.02l.01.02.01.01.01.02.01.01.01.02.01.01.02.01.01.02.01.01.02.01.01.01.02.01.01.01.02.01h.02l.02.01.01.01h.04l.02.01h.07l.02-.01h.04l.01-.01.02-.01h.02l.02-.01.01-.01.02-.01.01-.01.02-.01.01-.01.01-.02.02-.01.01-.01.01-.02.01-.01.01-.02.01-.01.01-.02v-.02l.01-.02.01-.01v-.04l.01-.02v-.03"/></g><g fill="none" stroke="currentColor" stroke-linecap="round" stroke-linejoin="round" stroke-width=".1" color="#000"><path fill="#000" stroke="none" d="M22.84 10v-.03l-.01-.02v-.04l-.01-.01-.01-.02v-.02l-.01-.02-.01-.01-.01-.02-.01-.01-.01-.02-.01-.01-.02-.01-.01-.02-.01-.01-.02-.01-.01-.01-.02-.01-.01-.01-.02-.01h-.02l-.02-.01-.01-.01h-.04l-.02-.01h-.07l-.02.01h-.04l-.01.01-.02.01h-.02l-.02.01-.01.01-.02.01-.01.01-.02.01-.01.01-.01.02-.02.01-.01.01-.01.02-.01.01-.01.02-.01.01-.01.02v.02l-.01.02-.01.01v.04l-.01.02v.07l.01.02v.04l.01.01.01.02v.02l.01.02.01.01.01.02.01.01.01.02.01.01.02.01.01.02.01.01.02.01.01.01.02.01.01.01.02.01h.02l.02.01.01.01h.04l.02.01h.07l.02-.01h.04l.01-.01.02-.01h.02l.02-.01.01-.01.02-.01.01-.01.02-.01.01-.01.01-.02.02-.01.01-.01.01-.02.01-.01.01-.02.01-.01.01-.02v-.02l.01-.02.01-.01v-.04l.01-.02v-.02z" shape-rendering="crispEdges"/><path stroke="#000" d="M22.84 10v-.03l-.01-.02v-.04l-.01-.01-.01-.02v-.02l-.01-.02-.01-.01-.01-.02-.01-.01-.01-.02-.01-.01-.02-.01-.01-.02-.01-.01-.02-.01-.01-.01-.02-.01-.01-.01-.02-.01h-.02l-.02-.01-.01-.01h-.04l-.02-.01h-.07l-.02.01h-.04l-.01.01-.02.01h-.02l-.02.01-.01.01-.02.01-.01.01-.02.01-.01.01-.01.02-.02.01-.01.01-.01.02-.01.01-.01.02-.01.01-.01.02v.02l-.01.02-.01.01v.04l-.01.02v.07l.01.02v.04l.01.01.01.02v.02l.01.02.01.01.01.02.01.01.01.02.01.01.02.01.01.02.01.01.02.01.01.01.02.01.01.01.02.01h.02l.02.01.01.01h.04l.02.01h.07l.02-.01h.04l.01-.01.02-.01h.02l.02-.01.01-.01.02-.01.01-.01.02-.01.01-.01.01-.02.02-.01.01-.01.01-.02.01-.01.01-.02.01-.01.01-.02v-.02l.01-.02.01-.01v-.04l.01-.02v-.03"/></g><g fill="none" stroke="currentColor" stroke-linecap="round" stroke-linejoin="round" stroke-width=".1" color="#000"><path fill="#000" stroke="none" d="M25.84 10v-.03l-.01-.02v-.04l-.01-.01-.01-.02v-.02l-.01-.02-.01-.01-.01-.02-.01-.01-.01-.02-.01-.01-.02-.01-.01-.02-.01-.01-.02-.01-.01-.01-.02-.01-.01-.01-.02-.01h-.02l-.02-.01-.01-.01h-.04l-.02-.01h-.07l-.02.01h-.04l-.01.01-.02.01h-.02l-.02.01-.01.01-.02.01-.01.01-.02.01-.01.01-.01.02-.02.01-.01.01-.01.02-.01.01-.01.02-.01.01-.01.02v.02l-.01.02-.01.01v.04l-.01.02v.07l.01.02v.04l.01.01.01.02v.02l.01.02.01.01.01.02.01.01.01.02.01.01.02.01.01.02.01.01.02.01.01.01.02.01.01.01.02.01h.02l.02.01.01.01h.04l.02.01h.07l.02-.01h.04l.01-.01.02-.01h.02l.02-.01.01-.01.02-.01.01-.01.02-.01.01-.01.01-.02.02-.01.01-.01.01-.02.01-.01.01-.02.01-.01.01-.02v-.02l.01-.02.01-.01v-.04l.01-.02v-.02z" shape-rendering="crispEdges"/><path stroke="#000" d="M25.84 10v-.03l-.01-.02v-.04l-.01-.01-.01-.02v-.02l-.01-.02-.01-.01-.01-.02-.01-.01-.01-.02-.01-.01-.02-.01-.01-.02-.01-.01-.02-.01-.01-.01-.02-.01-.01-.01-.02-.01h-.02l-.02-.01-.01-.01h-.04l-.02-.01h-.07l-.02.01h-.04l-.01.01-.02.01h-.02l-.02.01-.01.01-.02.01-.01.01-.02.01-.01.01-.01.02-.02.01-.01.01-.01.02-.01.01-.01.02-.01.01-.01.02v.02l-.01.02-.01.01v.04l-.01.02v.07l.01.02v.04l.01.01.01.02v.02l.01.02.01.01.01.02.01.01.01.02.01.01.02.01.01.02.01.01.02.01.01.01.02.01.01.01.02.01h.02l.02.01.01.01h.04l.02.01h.07l.02-.01h.04l.01-.01.02-.01h.02l.02-.01.01-.01.02-.01.01-.01.02-.01.01-.01.01-.02.02-.01.01-.01.01-.02.01-.01.01-.02.01-.01.01-.02v-.02l.01-.02.01-.01v-.04l.01-.02v-.03"/></g><g fill="none" stroke="currentColor" stroke-linecap="round" stroke-linejoin="round" stroke-width=".1" color="#000"><path fill="#000" stroke="none" d="M28.84 10v-.03l-.01-.02v-.04l-.01-.01-.01-.02v-.02l-.01-.02-.01-.01-.01-.02-.01-.01-.01-.02-.01-.01-.02-.01-.01-.02-.01-.01-.02-.01-.01-.01-.02-.01-.01-.01-.02-.01h-.02l-.02-.01-.01-.01h-.04l-.02-.01h-.07l-.02.01h-.04l-.01.01-.02.01h-.02l-.02.01-.01.01-.02.01-.01.01-.02.01-.01.01-.01.02-.02.01-.01.01-.01.02-.01.01-.01.02-.01.01-.01.02v.02l-.01.02-.01.01v.04l-.01.02v.07l.01.02v.04l.01.01.01.02v.02l.01.02.01.01.01.02.01.01.01.02.01.01.02.01.01.02.01.01.02.01.01.01.02.01.01.01.02.01h.02l.02.01.01.01h.04l.02.01h.07l.02-.01h.04l.01-.01.02-.01h.02l.02-.01.01-.01.02-.01.01-.01.02-.01.01-.01.01-.02.02-.01.01-.01.01-.02.01-.01.01-.02.01-.01.01-.02v-.02l.01-.02.01-.01v-.04l.01-.02v-.02z" shape-rendering="crispEdges"/><path stroke="#000" d="M28.84 10v-.03l-.01-.02v-.04l-.01-.01-.01-.02v-.02l-.01-.02-.01-.01-.01-.02-.01-.01-.01-.02-.01-.01-.02-.01-.01-.02-.01-.01-.02-.01-.01-.01-.02-.01-.01-.01-.02-.01h-.02l-.02-.01-.01-.01h-.04l-.02-.01h-.07l-.02.01h-.04l-.01.01-.02.01h-.02l-.02.01-.01.01-.02.01-.01.01-.02.01-.01.01-.01.02-.02.01-.01.01-.01.02-.01.01-.01.02-.01.01-.01.02v.02l-.01.02-.01.01v.04l-.01.02v.07l.01.02v.04l.01.01.01.02v.02l.01.02.01.01.01.02.01.01.01.02.01.01.02.01.01.02.01.01.02.01.01.01.02.01.01.01.02.01h.02l.02.01.01.01h.04l.02.01h.07l.02-.01h.04l.01-.01.02-.01h.02l.02-.01.01-.01.02-.01.01-.01.02-.01.01-.01.01-.02.02-.01.01-.01.01-.02.01-.01.01-.02.01-.01.01-.02v-.02l.01-.02.01-.01v-.04l.01-.02v-.03"/></g></svg>