<svg xmlns="http://www.w3.org/2000/svg" viewBox="0 0 36 44"><path fill="none" d="M0 0h36v44H0z"/><path fill="none" d="M0 44h.75m35.24 0h-.75M0 43h.75m35.24 0h-.75M0 42h.75m35.24 0h-.75M0 41h.75m35.24 0h-.75M0 40h.75m35.24 0h-.75M0 39h.75m35.24 0h-.75M0 38h.75m35.24 0h-.75M0 37h.75m35.24 0h-.75M0 36h.75m35.24 0h-.75M0 35h.75m35.24 0h-.75M0 34h.75m35.24 0h-.75M0 33h.75m35.24 0h-.75M0 32h.75m35.24 0h-.75M0 31h.75m35.24 0h-.75M0 30h.75m35.24 0h-.75M0 29h.75m35.24 0h-.75M0 28h.75m35.24 0h-.75M0 27h.75m35.24 0h-.75M0 26h.75m35.24 0h-.75M0 25h.75m35.24 0h-.75M0 24h.75m35.24 0h-.75M0 23h.75m35.24 0h-.75M0 22h.75m35.24 0h-.75M0 21.01h.75m35.24 0h-.75M0 20.01h.75m35.24 0h-.75M0 19.01h.75m35.24 0h-.75M0 18.01h.75m35.24 0h-.75M0 17.01h.75m35.24 0h-.75M0 16.01h.75m35.24 0h-.75M0 15.01h.75m35.24 0h-.75M0 14.01h.75m35.24 0h-.75M0 13.01h.75m35.24 0h-.75M0 12.01h.75m35.24 0h-.75M0 11.01h.75m35.24 0h-.75M0 10.01h.75m35.24 0h-.75M0 9.01h.75m35.24 0h-.75M0 8.01h.75m35.24 0h-.75M0 7.01h.75m35.24 0h-.75M0 6.01h.75m35.24 0h-.75M0 5.01h.75m35.24 0h-.75M0 4.01h.75m35.24 0h-.75M0 3.01h.75m35.24 0h-.75M0 2.01h.75m35.24 0h-.75M0 1.01h.75m35.24 0h-.75M0 .01h.75m35.24 0h-.75M0 44v-.75M0 .01v.75M1 44v-.75M1 .01v.75M2 44v-.75M2 .01v.75M3 44v-.75M3 .01v.75M4 44v-.75M4 .01v.75M5 44v-.75M5 .01v.75M6 44v-.75M6 .01v.75M7 44v-.75M7 .01v.75M8 44v-.75M8 .01v.75M9 44v-.75M9 .01v.75M10 44v-.75M10 .01v.75M11 44v-.75M11 .01v.75M12 44v-.75M12 .01v.75M13 44v-.75M13 .01v.75M14 44v-.75M14 .01v.75M15 44v-.75M15 .01v.75M16 44v-.75M16 .01v.75M17 44v-.75M17 .01v.75M18 44v-.75M18 .01v.75M18.99 44v-.75m0-43.24v.75m1 43.24v-.75m0-43.24v.75m1 43.24v-.75m0-43.24v.75m1 43.24v-.75m0-43.24v.75m1 43.24v-.75m0-43.24v.75m1 43.24v-.75m0-43.24v.75m1 43.24v-.75m0-43.24v.75m1 43.24v-.75m0-43.24v.75m1 43.24v-.75m0-43.24v.75m1 43.24v-.75m0-43.24v.75m1 43.24v-.75m0-43.24v.75m1 43.24v-.75m0-43.24v.75m1 43.24v-.75m0-43.24v.75m1 43.24v-.75m0-43.24v.75m1 43.24v-.75m0-43.24v.75m1 43.24v-.75m0-43.24v.75m1 43.24v-.75m0-43.24v.75m1 43.24v-.75m0-43.24v.75" color="#000"/><g fill="none" stroke="#2962FF" stroke-linecap="round" stroke-linejoin="round" stroke-width=".1" color="#000"><path d="M14.39 4.36 15 3.3l.6 1.06h-1.21Z"/>Z<path d="M14.39 4.36 15 3.3l.6 1.06h-1.21Z"/>Z</g><g fill="none" stroke="#2962FF" stroke-linecap="round" stroke-linejoin="round" stroke-width=".1" color="#000"><path d="M17.39 7.36 18 6.3l.6 1.06h-1.21Z"/>Z<path d="M17.39 7.36 18 6.3l.6 1.06h-1.21Z"/>Z</g><g fill="none" stroke="#EC6F1A" stroke-linecap="round" stroke-linejoin="round" stroke-width=".1" color="#000"><path d="m26.39 10.36.6-1.06.61 1.06h-1.21Z"/>Z<path d="m26.39 10.36.6-1.06.61 1.06h-1.21Z"/>Z</g><g fill="none" stroke="#EC6F1A" stroke-linecap="round" stroke-linejoin="round" stroke-width=".1" color="#000"><path d="m23.39 13.36.6-1.06.61 1.06h-1.21Z"/>Z<path d="m23.39 13.36.6-1.06.61 1.06h-1.21Z"/>Z</g><g fill="none" stroke="#29C3F6" stroke-linecap="round" stroke-linejoin="round" stroke-width=".1" color="#000"><path d="M14.39 16.36 15 15.3l.6 1.06h-1.21Z"/>Z<path d="M14.39 16.36 15 15.3l.6 1.06h-1.21Z"/>Z</g><g fill="none" stroke="#EC6F1A" stroke-linecap="round" stroke-linejoin="round" stroke-width=".1" color="#000"><path d="M17.39 19.36 18 18.3l.6 1.06h-1.21Z"/>Z<path d="M17.39 19.36 18 18.3l.6 1.06h-1.21Z"/>Z</g><g fill="none" stroke="#EC6F1A" stroke-linecap="round" stroke-linejoin="round" stroke-width=".1" color="#000"><path d="m20.39 22.36.6-1.06.61 1.06h-1.21Z"/>Z<path d="m20.39 22.36.6-1.06.61 1.06h-1.21Z"/>Z</g><g fill="none" stroke="#2962FF" stroke-linecap="round" stroke-linejoin="round" stroke-width=".1" color="#000"><path d="M4.39 34.36 5 33.3l.6 1.06H4.39Z"/>Z<path d="M4.39 34.36 5 33.3l.6 1.06H4.39Z"/>Z</g><g fill="none" stroke="#2962FF" stroke-linecap="round" stroke-linejoin="round" stroke-width=".1" color="#000"><path d="M7.39 37.36 8 36.29l.6 1.07H7.39Z"/>Z<path d="M7.39 37.36 8 36.29l.6 1.07H7.39Z"/>Z</g><g fill="none" stroke="#29C3F6" stroke-linecap="round" stroke-linejoin="round" stroke-width=".1" color="#000"><path d="m13.39 37.36.61-1.07.6 1.07h-1.21Z"/>Z<path d="m13.39 37.36.61-1.07.6 1.07h-1.21Z"/>Z</g><g fill="none" stroke="#EC6F1A" stroke-linecap="round" stroke-linejoin="round" stroke-width=".1" color="#000"><path d="m18.39 40.35.6-1.06.61 1.06h-1.21Z"/>Z<path d="m18.39 40.35.6-1.06.61 1.06h-1.21Z"/>Z</g><g fill="none" stroke="#EC6F1A" stroke-linecap="round" stroke-linejoin="round" stroke-width=".1" color="#000"><path d="m21.39 43.35.6-1.06.61 1.06h-1.21Z"/>Z<path d="m21.39 43.35.6-1.06.61 1.06h-1.21Z"/>Z</g><g fill="none" stroke="#EC6F1A" stroke-linecap="round" stroke-linejoin="round" stroke-width=".1" color="#000"><path d="m30.39 34.36.6-1.06.61 1.06h-1.21Z"/>Z<path d="m30.39 34.36.6-1.06.61 1.06h-1.21Z"/>Z</g><g fill="none" stroke="currentColor" stroke-linecap="round" stroke-linejoin="round" stroke-width=".1" color="#000"><path stroke="#EC6F1A" d="m27.39 37.36.6-1.07.61 1.07h-1.21Z"/>Z<path stroke="#EC6F1A" d="m27.39 37.36.6-1.07.61 1.07h-1.21Z"/>Z<text fill="#000" stroke="none" font-family="KaTeX_Typewriter" font-size="1" text-anchor="middle" transform="translate(18 1.34)"><tspan>A</tspan></text><text fill="#000" stroke="none" font-family="KaTeX_Typewriter" font-size="1" text-anchor="middle" transform="translate(20.99 4.34)"><tspan>B</tspan></text><text fill="#000" stroke="none" font-family="KaTeX_Typewriter" font-size="1" text-anchor="middle" transform="translate(23.99 7.34)"><tspan>G</tspan></text><text fill="#000" stroke="none" font-family="KaTeX_Typewriter" font-size="1" text-anchor="middle" transform="translate(20.99 10.34)"><tspan>F</tspan></text><text fill="#000" stroke="none" font-family="KaTeX_Typewriter" font-size="1" text-anchor="middle" transform="translate(18 13.34)"><tspan>C</tspan></text><text fill="#000" stroke="none" font-family="KaTeX_Typewriter" font-size="1" text-anchor="middle" transform="translate(20.99 16.34)"><tspan>D</tspan></text><text fill="#000" stroke="none" font-family="KaTeX_Typewriter" font-size="1" text-anchor="middle" transform="translate(23.99 19.34)"><tspan>E</tspan></text><text fill="#000" stroke="none" font-family="KaTeX_Typewriter" font-size="1" text-anchor="middle" transform="translate(18 28.33)"><tspan>C</tspan></text><text fill="#000" stroke="none" font-family="KaTeX_Typewriter" font-size="1" text-anchor="middle" transform="translate(8 31.33)"><tspan>A</tspan></text><text fill="#000" stroke="none" font-family="KaTeX_Typewriter" font-size="1" text-anchor="middle" transform="translate(11 34.33)"><tspan>B</tspan></text><text fill="#000" stroke="none" font-family="KaTeX_Typewriter" font-size="1" text-anchor="middle" transform="translate(27.99 31.33)"><tspan>G</tspan></text><text fill="#000" stroke="none" font-family="KaTeX_Typewriter" font-size="1" text-anchor="middle" transform="translate(24.99 34.33)"><tspan>F</tspan></text><text fill="#000" stroke="none" font-family="KaTeX_Typewriter" font-size="1" text-anchor="middle" transform="translate(21.99 37.33)"><tspan>D</tspan></text><text fill="#000" stroke="none" font-family="KaTeX_Typewriter" font-size="1" text-anchor="middle" transform="translate(24.99 40.33)"><tspan>E</tspan></text><path stroke="#2962FF" d="m17.26 1.75-1.5 1.5m4.49 1.5-1.5 1.5"/><path stroke="#EC6F1A" d="m24.75 7.75 1.5 1.5m-4.5 1.5 1.5 1.5"/><path stroke="#29C3F6" d="m17.26 13.75-1.5 1.5"/><path stroke="#EC6F1A" d="m20.25 16.75-1.5 1.5m4.5 1.5-1.5 1.5"/><path fill="#000" stroke="none" d="m20.04 3.04.12-.12.09.33-.33-.09.12-.12z" shape-rendering="crispEdges"/><path stroke="#000" d="m20.04 3.04.12-.12.09.33-.33-.09.12-.12Zm-1.29-1.29 1.29 1.29"/><path fill="#000" stroke="none" d="m23.04 6.04.12-.12.09.33-.33-.09.12-.12z" shape-rendering="crispEdges"/><path stroke="#000" d="m23.04 6.04.12-.12.09.33-.33-.09.12-.12Zm-1.29-1.29 1.29 1.29"/><path fill="#000" stroke="none" d="m21.96 9.04.12.12-.33.09.09-.33.12.12z" shape-rendering="crispEdges"/><path stroke="#000" d="m21.96 9.04.12.12-.33.09.09-.33.12.12Zm1.29-1.29-1.29 1.29"/><path fill="#000" stroke="none" d="m18.96 12.04.12.12-.33.09.09-.33.12.12z" shape-rendering="crispEdges"/><path stroke="#000" d="m18.96 12.04.12.12-.33.09.09-.33.12.12Zm1.29-1.29-1.29 1.29"/><path stroke="#EC6F1A" d="m18.75 13.75 1.5 1.5m1.5 1.5 1.5 1.5"/><path fill="#000" stroke="none" d="m9.31 30.61.05.16-.34-.08.24-.25.05.17z" shape-rendering="crispEdges"/><path stroke="#000" d="m9.31 30.61.05.16-.34-.08.24-.25.05.17Zm7.68-2.31-7.68 2.31"/><path fill="#000" stroke="none" d="m26.7 30.61.05-.17.24.25-.34.08.05-.16z" shape-rendering="crispEdges"/><path stroke="#000" d="m26.7 30.61.05-.17.24.25-.34.08.05-.16Zm-7.68-2.31 7.68 2.31"/><path fill="#000" stroke="none" d="m10.05 33.03.12-.12.09.33-.33-.09.12-.12z" shape-rendering="crispEdges"/><path stroke="#000" d="m10.05 33.03.12-.12.09.33-.33-.09.12-.12Zm-1.29-1.29 1.29 1.29"/><path fill="#000" stroke="none" d="m13.05 36.03.12-.12.09.33-.33-.09.12-.12z" shape-rendering="crispEdges"/><path stroke="#000" d="m13.05 36.03.12-.12.09.33-.33-.09.12-.12Zm-1.29-1.29 1.29 1.29"/><path stroke="#2962FF" d="m7.26 31.74-1.5 1.5m4.5 1.5-1.5 1.5"/><path fill="#000" stroke="none" d="m25.96 33.03.12.12-.33.09.09-.33.12.12z" shape-rendering="crispEdges"/><path stroke="#000" d="m25.96 33.03.12.12-.33.09.09-.33.12.12Zm1.29-1.29-1.29 1.29"/><path fill="#000" stroke="none" d="m22.96 36.03.12.12-.33.09.09-.33.12.12z" shape-rendering="crispEdges"/><path stroke="#000" d="m22.96 36.03.12.12-.33.09.09-.33.12.12Zm1.29-1.29-1.29 1.29"/><path stroke="#EC6F1A" d="m28.75 31.74 1.5 1.5m-4.5 1.5 1.5 1.5m-6 1.5-1.5 1.5m3-1.5 1.5 1.5m0 1.5-1.5 1.5"/></g><g fill="none" stroke="#2962FF" stroke-linecap="round" stroke-linejoin="round" stroke-width=".1" color="#000"><path d="M18.7 1.01V.94L18.69.9V.87l-.01-.04-.01-.03-.02-.04-.01-.03-.02-.04-.01-.03-.02-.03-.02-.03-.03-.03-.02-.03-.03-.02-.02-.03-.03-.02-.03-.03-.03-.02-.03-.02-.03-.01-.04-.02-.03-.01-.04-.02-.03-.01-.04-.01h-.03l-.04-.01h-.15l-.04.01h-.03l-.04.01-.03.01-.04.02-.03.01-.04.02-.03.01-.03.02-.03.02-.03.03-.03.02-.02.03-.03.02-.02.03-.03.03-.02.03-.02.03-.01.03-.02.04-.01.03-.02.04-.01.03-.01.04V.9l-.01.04v.15l.01.04v.03l.01.04.01.03.02.04.01.03.02.04.01.03.02.03.02.03.03.03.02.03.03.02.02.03.03.02.03.03.03.02.03.02.03.01.04.02.03.01.04.02.03.01.04.01h.03l.04.01h.15l.04-.01h.03l.04-.01.03-.01.04-.02.03-.01.04-.02.03-.01.03-.02.03-.02.03-.03.03-.02.02-.03.03-.02.02-.03.03-.03.02-.03.02-.03.01-.03.02-.04.01-.03.02-.04.01-.03.01-.04v-.03l.01-.04v-.08Z"/><path d="M18.7 1.01V.94L18.69.9V.87l-.01-.04-.01-.03-.02-.04-.01-.03-.02-.04-.01-.03-.02-.03-.02-.03-.03-.03-.02-.03-.03-.02-.02-.03-.03-.02-.03-.03-.03-.02-.03-.02-.03-.01-.04-.02-.03-.01-.04-.02-.03-.01-.04-.01h-.03l-.04-.01h-.15l-.04.01h-.03l-.04.01-.03.01-.04.02-.03.01-.04.02-.03.01-.03.02-.03.02-.03.03-.03.02-.02.03-.03.02-.02.03-.03.03-.02.03-.02.03-.01.03-.02.04-.01.03-.02.04-.01.03-.01.04V.9l-.01.04v.15l.01.04v.03l.01.04.01.03.02.04.01.03.02.04.01.03.02.03.02.03.03.03.02.03.03.02.02.03.03.02.03.03.03.02.03.02.03.01.04.02.03.01.04.02.03.01.04.01h.03l.04.01h.15l.04-.01h.03l.04-.01.03-.01.04-.02.03-.01.04-.02.03-.01.03-.02.03-.02.03-.03.03-.02.02-.03.03-.02.02-.03.03-.03.02-.03.02-.03.01-.03.02-.04.01-.03.02-.04.01-.03.01-.04v-.03l.01-.04v-.08Z"/></g><g fill="none" stroke="#2962FF" stroke-linecap="round" stroke-linejoin="round" stroke-width=".1" color="#000"><path d="M21.69 4.01v-.07l-.01-.04v-.03l-.01-.04-.01-.03-.02-.04-.01-.03-.02-.04-.01-.03-.02-.03-.02-.03-.03-.03-.02-.03-.03-.02-.02-.03-.03-.02-.03-.03-.03-.02-.03-.02-.03-.01-.04-.02-.03-.01-.04-.02-.03-.01-.04-.01h-.03l-.04-.01h-.15l-.04.01h-.03l-.04.01-.03.01-.04.02-.03.01-.04.02-.03.01-.03.02-.03.02-.03.03-.03.02-.02.03-.03.02-.02.03-.03.03-.02.03-.02.03-.01.03-.02.04-.01.03-.02.04-.01.03-.01.04v.03l-.01.04v.15l.01.04v.03l.01.04.01.03.02.04.01.03.02.04.01.03.02.03.02.03.03.03.02.03.03.02.02.03.03.02.03.03.03.02.03.02.03.01.04.02.03.01.04.02.03.01.04.01h.03l.04.01h.15l.04-.01h.03l.04-.01.03-.01.04-.02.03-.01.04-.02.03-.01.03-.02.03-.02.03-.03.03-.02.02-.03.03-.02.02-.03.03-.03.02-.03.02-.03.01-.03.02-.04.01-.03.02-.04.01-.03.01-.04v-.03l.01-.04v-.08Z"/><path d="M21.69 4.01v-.07l-.01-.04v-.03l-.01-.04-.01-.03-.02-.04-.01-.03-.02-.04-.01-.03-.02-.03-.02-.03-.03-.03-.02-.03-.03-.02-.02-.03-.03-.02-.03-.03-.03-.02-.03-.02-.03-.01-.04-.02-.03-.01-.04-.02-.03-.01-.04-.01h-.03l-.04-.01h-.15l-.04.01h-.03l-.04.01-.03.01-.04.02-.03.01-.04.02-.03.01-.03.02-.03.02-.03.03-.03.02-.02.03-.03.02-.02.03-.03.03-.02.03-.02.03-.01.03-.02.04-.01.03-.02.04-.01.03-.01.04v.03l-.01.04v.15l.01.04v.03l.01.04.01.03.02.04.01.03.02.04.01.03.02.03.02.03.03.03.02.03.03.02.02.03.03.02.03.03.03.02.03.02.03.01.04.02.03.01.04.02.03.01.04.01h.03l.04.01h.15l.04-.01h.03l.04-.01.03-.01.04-.02.03-.01.04-.02.03-.01.03-.02.03-.02.03-.03.03-.02.02-.03.03-.02.02-.03.03-.03.02-.03.02-.03.01-.03.02-.04.01-.03.02-.04.01-.03.01-.04v-.03l.01-.04v-.08Z"/></g><g fill="none" stroke="#EC6F1A" stroke-linecap="round" stroke-linejoin="round" stroke-width=".1" color="#000"><path d="M24.69 7.01v-.07l-.01-.04v-.03l-.01-.04-.01-.03-.02-.04-.01-.03-.02-.04-.01-.03-.02-.03-.02-.03-.03-.03-.02-.03-.03-.02-.02-.03-.03-.02-.03-.03-.03-.02-.03-.02-.03-.01-.04-.02-.03-.01-.04-.02-.03-.01-.04-.01h-.03l-.04-.01h-.15l-.04.01h-.03l-.04.01-.03.01-.04.02-.03.01-.04.02-.03.01-.03.02-.03.02-.03.03-.03.02-.02.03-.03.02-.02.03-.03.03-.02.03-.02.03-.01.03-.02.04-.01.03-.02.04-.01.03-.01.04v.03l-.01.04v.15l.01.04v.03l.01.04.01.03.02.04.01.03.02.04.01.03.02.03.02.03.03.03.02.03.03.02.02.03.03.02.03.03.03.02.03.02.03.01.04.02.03.01.04.02.03.01.04.01h.03l.04.01h.15l.04-.01h.03l.04-.01.03-.01.04-.02.03-.01.04-.02.03-.01.03-.02.03-.02.03-.03.03-.02.02-.03.03-.02.02-.03.03-.03.02-.03.02-.03.01-.03.02-.04.01-.03.02-.04.01-.03.01-.04v-.03l.01-.04v-.08Z"/><path d="M24.69 7.01v-.07l-.01-.04v-.03l-.01-.04-.01-.03-.02-.04-.01-.03-.02-.04-.01-.03-.02-.03-.02-.03-.03-.03-.02-.03-.03-.02-.02-.03-.03-.02-.03-.03-.03-.02-.03-.02-.03-.01-.04-.02-.03-.01-.04-.02-.03-.01-.04-.01h-.03l-.04-.01h-.15l-.04.01h-.03l-.04.01-.03.01-.04.02-.03.01-.04.02-.03.01-.03.02-.03.02-.03.03-.03.02-.02.03-.03.02-.02.03-.03.03-.02.03-.02.03-.01.03-.02.04-.01.03-.02.04-.01.03-.01.04v.03l-.01.04v.15l.01.04v.03l.01.04.01.03.02.04.01.03.02.04.01.03.02.03.02.03.03.03.02.03.03.02.02.03.03.02.03.03.03.02.03.02.03.01.04.02.03.01.04.02.03.01.04.01h.03l.04.01h.15l.04-.01h.03l.04-.01.03-.01.04-.02.03-.01.04-.02.03-.01.03-.02.03-.02.03-.03.03-.02.02-.03.03-.02.02-.03.03-.03.02-.03.02-.03.01-.03.02-.04.01-.03.02-.04.01-.03.01-.04v-.03l.01-.04v-.08Z"/></g><g fill="none" stroke="#EC6F1A" stroke-linecap="round" stroke-linejoin="round" stroke-width=".1" color="#000"><path d="M21.69 10.01v-.07l-.01-.04v-.03l-.01-.04-.01-.03-.02-.04-.01-.03-.02-.04-.01-.03-.02-.03-.02-.03-.03-.03-.02-.03-.03-.02-.02-.03-.03-.02-.03-.03-.03-.02-.03-.02-.03-.01-.04-.02-.03-.01-.04-.02-.03-.01-.04-.01h-.03l-.04-.01h-.15l-.04.01h-.03l-.04.01-.03.01-.04.02-.03.01-.04.02-.03.01-.03.02-.03.02-.03.03-.03.02-.02.03-.03.02-.02.03-.03.03-.02.03-.02.03-.01.03-.02.04-.01.03-.02.04-.01.03-.01.04v.03l-.01.04v.15l.01.04v.03l.01.04.01.03.02.04.01.03.02.04.01.03.02.03.02.03.03.03.02.03.03.02.02.03.03.02.03.03.03.02.03.02.03.01.04.02.03.01.04.02.03.01.04.01h.03l.04.01h.15l.04-.01h.03l.04-.01.03-.01.04-.02.03-.01.04-.02.03-.01.03-.02.03-.02.03-.03.03-.02.02-.03.03-.02.02-.03.03-.03.02-.03.02-.03.01-.03.02-.04.01-.03.02-.04.01-.03.01-.04v-.03l.01-.04v-.08Z"/><path d="M21.69 10.01v-.07l-.01-.04v-.03l-.01-.04-.01-.03-.02-.04-.01-.03-.02-.04-.01-.03-.02-.03-.02-.03-.03-.03-.02-.03-.03-.02-.02-.03-.03-.02-.03-.03-.03-.02-.03-.02-.03-.01-.04-.02-.03-.01-.04-.02-.03-.01-.04-.01h-.03l-.04-.01h-.15l-.04.01h-.03l-.04.01-.03.01-.04.02-.03.01-.04.02-.03.01-.03.02-.03.02-.03.03-.03.02-.02.03-.03.02-.02.03-.03.03-.02.03-.02.03-.01.03-.02.04-.01.03-.02.04-.01.03-.01.04v.03l-.01.04v.15l.01.04v.03l.01.04.01.03.02.04.01.03.02.04.01.03.02.03.02.03.03.03.02.03.03.02.02.03.03.02.03.03.03.02.03.02.03.01.04.02.03.01.04.02.03.01.04.01h.03l.04.01h.15l.04-.01h.03l.04-.01.03-.01.04-.02.03-.01.04-.02.03-.01.03-.02.03-.02.03-.03.03-.02.02-.03.03-.02.02-.03.03-.03.02-.03.02-.03.01-.03.02-.04.01-.03.02-.04.01-.03.01-.04v-.03l.01-.04v-.08Z"/></g><g fill="none" stroke="#29C3F6" stroke-linecap="round" stroke-linejoin="round" stroke-width=".1" color="#000"><path d="M18.7 13.01v-.07l-.01-.04v-.03l-.01-.04-.01-.03-.02-.04-.01-.03-.02-.04-.01-.03-.02-.03-.02-.03-.03-.03-.02-.03-.03-.02-.02-.03-.03-.02-.03-.03-.03-.02-.03-.02-.03-.01-.04-.02-.03-.01-.04-.02-.03-.01-.04-.01h-.03l-.04-.01h-.15l-.04.01h-.03l-.04.01-.03.01-.04.02-.03.01-.04.02-.03.01-.03.02-.03.02-.03.03-.03.02-.02.03-.03.02-.02.03-.03.03-.02.03-.02.03-.01.03-.02.04-.01.03-.02.04-.01.03-.01.04v.03l-.01.04v.15l.01.04v.03l.01.04.01.03.02.04.01.03.02.04.01.03.02.03.02.03.03.03.02.03.03.02.02.03.03.02.03.03.03.02.03.02.03.01.04.02.03.01.04.02.03.01.04.01h.03l.04.01h.15l.04-.01h.03l.04-.01.03-.01.04-.02.03-.01.04-.02.03-.01.03-.02.03-.02.03-.03.03-.02.02-.03.03-.02.02-.03.03-.03.02-.03.02-.03.01-.03.02-.04.01-.03.02-.04.01-.03.01-.04v-.03l.01-.04v-.08Z"/><path d="M18.7 13.01v-.07l-.01-.04v-.03l-.01-.04-.01-.03-.02-.04-.01-.03-.02-.04-.01-.03-.02-.03-.02-.03-.03-.03-.02-.03-.03-.02-.02-.03-.03-.02-.03-.03-.03-.02-.03-.02-.03-.01-.04-.02-.03-.01-.04-.02-.03-.01-.04-.01h-.03l-.04-.01h-.15l-.04.01h-.03l-.04.01-.03.01-.04.02-.03.01-.04.02-.03.01-.03.02-.03.02-.03.03-.03.02-.02.03-.03.02-.02.03-.03.03-.02.03-.02.03-.01.03-.02.04-.01.03-.02.04-.01.03-.01.04v.03l-.01.04v.15l.01.04v.03l.01.04.01.03.02.04.01.03.02.04.01.03.02.03.02.03.03.03.02.03.03.02.02.03.03.02.03.03.03.02.03.02.03.01.04.02.03.01.04.02.03.01.04.01h.03l.04.01h.15l.04-.01h.03l.04-.01.03-.01.04-.02.03-.01.04-.02.03-.01.03-.02.03-.02.03-.03.03-.02.02-.03.03-.02.02-.03.03-.03.02-.03.02-.03.01-.03.02-.04.01-.03.02-.04.01-.03.01-.04v-.03l.01-.04v-.08Z"/></g><g fill="none" stroke="#EC6F1A" stroke-linecap="round" stroke-linejoin="round" stroke-width=".1" color="#000"><path d="M21.69 16.01v-.07l-.01-.04v-.03l-.01-.04-.01-.03-.02-.04-.01-.03-.02-.04-.01-.03-.02-.03-.02-.03-.03-.03-.02-.03-.03-.02-.02-.03-.03-.02-.03-.03-.03-.02-.03-.02-.03-.01-.04-.02-.03-.01-.04-.02-.03-.01-.04-.01h-.03l-.04-.01h-.15l-.04.01h-.03l-.04.01-.03.01-.04.02-.03.01-.04.02-.03.01-.03.02-.03.02-.03.03-.03.02-.02.03-.03.02-.02.03-.03.03-.02.03-.02.03-.01.03-.02.04-.01.03-.02.04-.01.03-.01.04v.03l-.01.04v.15l.01.04v.03l.01.04.01.03.02.04.01.03.02.04.01.03.02.03.02.03.03.03.02.03.03.02.02.03.03.02.03.03.03.02.03.02.03.01.04.02.03.01.04.02.03.01.04.01h.03l.04.01h.15l.04-.01h.03l.04-.01.03-.01.04-.02.03-.01.04-.02.03-.01.03-.02.03-.02.03-.03.03-.02.02-.03.03-.02.02-.03.03-.03.02-.03.02-.03.01-.03.02-.04.01-.03.02-.04.01-.03.01-.04v-.03l.01-.04v-.08Z"/><path d="M21.69 16.01v-.07l-.01-.04v-.03l-.01-.04-.01-.03-.02-.04-.01-.03-.02-.04-.01-.03-.02-.03-.02-.03-.03-.03-.02-.03-.03-.02-.02-.03-.03-.02-.03-.03-.03-.02-.03-.02-.03-.01-.04-.02-.03-.01-.04-.02-.03-.01-.04-.01h-.03l-.04-.01h-.15l-.04.01h-.03l-.04.01-.03.01-.04.02-.03.01-.04.02-.03.01-.03.02-.03.02-.03.03-.03.02-.02.03-.03.02-.02.03-.03.03-.02.03-.02.03-.01.03-.02.04-.01.03-.02.04-.01.03-.01.04v.03l-.01.04v.15l.01.04v.03l.01.04.01.03.02.04.01.03.02.04.01.03.02.03.02.03.03.03.02.03.03.02.02.03.03.02.03.03.03.02.03.02.03.01.04.02.03.01.04.02.03.01.04.01h.03l.04.01h.15l.04-.01h.03l.04-.01.03-.01.04-.02.03-.01.04-.02.03-.01.03-.02.03-.02.03-.03.03-.02.02-.03.03-.02.02-.03.03-.03.02-.03.02-.03.01-.03.02-.04.01-.03.02-.04.01-.03.01-.04v-.03l.01-.04v-.08Z"/></g><g fill="none" stroke="#EC6F1A" stroke-linecap="round" stroke-linejoin="round" stroke-width=".1" color="#000"><path d="M24.69 19.01v-.07l-.01-.04v-.03l-.01-.04-.01-.03-.02-.04-.01-.03-.02-.04-.01-.03-.02-.03-.02-.03-.03-.03-.02-.03-.03-.02-.02-.03-.03-.02-.03-.03-.03-.02-.03-.02-.03-.01-.04-.02-.03-.01-.04-.02-.03-.01-.04-.01h-.03l-.04-.01h-.15l-.04.01h-.03l-.04.01-.03.01-.04.02-.03.01-.04.02-.03.01-.03.02-.03.02-.03.03-.03.02-.02.03-.03.02-.02.03-.03.03-.02.03-.02.03-.01.03-.02.04-.01.03-.02.04-.01.03-.01.04v.03l-.01.04v.15l.01.04v.03l.01.04.01.03.02.04.01.03.02.04.01.03.02.03.02.03.03.03.02.03.03.02.02.03.03.02.03.03.03.02.03.02.03.01.04.02.03.01.04.02.03.01.04.01h.03l.04.01h.15l.04-.01h.03l.04-.01.03-.01.04-.02.03-.01.04-.02.03-.01.03-.02.03-.02.03-.03.03-.02.02-.03.03-.02.02-.03.03-.03.02-.03.02-.03.01-.03.02-.04.01-.03.02-.04.01-.03.01-.04v-.03l.01-.04v-.08Z"/><path d="M24.69 19.01v-.07l-.01-.04v-.03l-.01-.04-.01-.03-.02-.04-.01-.03-.02-.04-.01-.03-.02-.03-.02-.03-.03-.03-.02-.03-.03-.02-.02-.03-.03-.02-.03-.03-.03-.02-.03-.02-.03-.01-.04-.02-.03-.01-.04-.02-.03-.01-.04-.01h-.03l-.04-.01h-.15l-.04.01h-.03l-.04.01-.03.01-.04.02-.03.01-.04.02-.03.01-.03.02-.03.02-.03.03-.03.02-.02.03-.03.02-.02.03-.03.03-.02.03-.02.03-.01.03-.02.04-.01.03-.02.04-.01.03-.01.04v.03l-.01.04v.15l.01.04v.03l.01.04.01.03.02.04.01.03.02.04.01.03.02.03.02.03.03.03.02.03.03.02.02.03.03.02.03.03.03.02.03.02.03.01.04.02.03.01.04.02.03.01.04.01h.03l.04.01h.15l.04-.01h.03l.04-.01.03-.01.04-.02.03-.01.04-.02.03-.01.03-.02.03-.02.03-.03.03-.02.02-.03.03-.02.02-.03.03-.03.02-.03.02-.03.01-.03.02-.04.01-.03.02-.04.01-.03.01-.04v-.03l.01-.04v-.08Z"/></g><g fill="none" stroke="#29C3F6" stroke-linecap="round" stroke-linejoin="round" stroke-width=".1" color="#000"><path d="M18.7 28v-.07l-.01-.04v-.03l-.01-.04-.01-.03-.02-.04-.01-.03-.02-.04-.01-.03-.02-.03-.02-.03-.03-.03-.02-.03-.03-.02-.02-.03-.03-.02-.03-.03-.03-.02-.03-.02-.03-.01-.04-.02-.03-.01-.04-.02-.03-.01-.04-.01h-.03l-.04-.01h-.15l-.04.01h-.03l-.04.01-.03.01-.04.02-.03.01-.04.02-.03.01-.03.02-.03.02-.03.03-.03.02-.02.03-.03.02-.02.03-.03.03-.02.03-.02.03-.01.03-.02.04-.01.03-.02.04-.01.03-.01.04v.03l-.01.04v.15l.01.04v.03l.01.04.01.03.02.04.01.03.02.04.01.03.02.03.02.03.03.03.02.03.03.02.02.03.03.02.03.03.03.02.03.02.03.01.04.02.03.01.04.02.03.01.04.01h.03l.04.01h.15l.04-.01h.03l.04-.01.03-.01.04-.02.03-.01.04-.02.03-.01.03-.02.03-.02.03-.03.03-.02.02-.03.03-.02.02-.03.03-.03.02-.03.02-.03.01-.03.02-.04.01-.03.02-.04.01-.03.01-.04v-.03l.01-.04V28Z"/><path d="M18.7 28v-.07l-.01-.04v-.03l-.01-.04-.01-.03-.02-.04-.01-.03-.02-.04-.01-.03-.02-.03-.02-.03-.03-.03-.02-.03-.03-.02-.02-.03-.03-.02-.03-.03-.03-.02-.03-.02-.03-.01-.04-.02-.03-.01-.04-.02-.03-.01-.04-.01h-.03l-.04-.01h-.15l-.04.01h-.03l-.04.01-.03.01-.04.02-.03.01-.04.02-.03.01-.03.02-.03.02-.03.03-.03.02-.02.03-.03.02-.02.03-.03.03-.02.03-.02.03-.01.03-.02.04-.01.03-.02.04-.01.03-.01.04v.03l-.01.04v.15l.01.04v.03l.01.04.01.03.02.04.01.03.02.04.01.03.02.03.02.03.03.03.02.03.03.02.02.03.03.02.03.03.03.02.03.02.03.01.04.02.03.01.04.02.03.01.04.01h.03l.04.01h.15l.04-.01h.03l.04-.01.03-.01.04-.02.03-.01.04-.02.03-.01.03-.02.03-.02.03-.03.03-.02.02-.03.03-.02.02-.03.03-.03.02-.03.02-.03.01-.03.02-.04.01-.03.02-.04.01-.03.01-.04v-.03l.01-.04V28Z"/></g><g fill="none" stroke="#2962FF" stroke-linecap="round" stroke-linejoin="round" stroke-width=".1" color="#000"><path d="M8.7 31v-.07l-.01-.04v-.03l-.01-.04-.01-.03-.02-.04-.01-.03-.02-.04-.01-.03-.02-.03-.02-.03-.03-.03-.02-.03-.03-.02-.02-.03-.03-.02-.03-.03-.03-.02-.03-.02-.03-.01-.04-.02-.03-.01-.04-.02-.03-.01-.04-.01h-.03l-.04-.01h-.15l-.04.01h-.03l-.04.01-.03.01-.04.02-.03.01-.04.02-.03.01-.03.02-.03.02-.03.03-.03.02-.02.03-.03.02-.02.03-.03.03-.02.03-.02.03-.01.03-.02.04-.01.03-.02.04-.01.03-.01.04v.03l-.01.04v.15l.01.04v.03l.01.04.01.03.02.04.01.03.02.04.01.03.02.03.02.03.03.03.02.03.03.02.02.03.03.02.03.03.03.02.03.02.03.01.04.02.03.01.04.02.03.01.04.01h.03l.04.01h.15l.04-.01h.03l.04-.01.03-.01.04-.02.03-.01.04-.02.03-.01.03-.02.03-.02.03-.03.03-.02.02-.03.03-.02.02-.03.03-.03.02-.03.02-.03.01-.03.02-.04.01-.03.02-.04.01-.03.01-.04v-.03l.01-.04V31Z"/><path d="M8.7 31v-.07l-.01-.04v-.03l-.01-.04-.01-.03-.02-.04-.01-.03-.02-.04-.01-.03-.02-.03-.02-.03-.03-.03-.02-.03-.03-.02-.02-.03-.03-.02-.03-.03-.03-.02-.03-.02-.03-.01-.04-.02-.03-.01-.04-.02-.03-.01-.04-.01h-.03l-.04-.01h-.15l-.04.01h-.03l-.04.01-.03.01-.04.02-.03.01-.04.02-.03.01-.03.02-.03.02-.03.03-.03.02-.02.03-.03.02-.02.03-.03.03-.02.03-.02.03-.01.03-.02.04-.01.03-.02.04-.01.03-.01.04v.03l-.01.04v.15l.01.04v.03l.01.04.01.03.02.04.01.03.02.04.01.03.02.03.02.03.03.03.02.03.03.02.02.03.03.02.03.03.03.02.03.02.03.01.04.02.03.01.04.02.03.01.04.01h.03l.04.01h.15l.04-.01h.03l.04-.01.03-.01.04-.02.03-.01.04-.02.03-.01.03-.02.03-.02.03-.03.03-.02.02-.03.03-.02.02-.03.03-.03.02-.03.02-.03.01-.03.02-.04.01-.03.02-.04.01-.03.01-.04v-.03l.01-.04V31Z"/></g><g fill="none" stroke="#2962FF" stroke-linecap="round" stroke-linejoin="round" stroke-width=".1" color="#000"><path d="M11.7 34v-.07l-.01-.04v-.03l-.01-.04-.01-.03-.02-.04-.01-.03-.02-.04-.01-.03-.02-.03-.02-.03-.03-.03-.02-.03-.03-.02-.02-.03-.03-.02-.03-.03-.03-.02-.03-.02-.03-.01-.04-.02-.03-.01-.04-.02-.03-.01-.04-.01h-.03l-.04-.01h-.15l-.04.01h-.03l-.04.01-.03.01-.04.02-.03.01-.04.02-.03.01-.03.02-.03.02-.03.03-.03.02-.02.03-.03.02-.02.03-.03.03-.02.03-.02.03-.01.03-.02.04-.01.03-.02.04-.01.03-.01.04v.03l-.01.04v.15l.01.04v.03l.01.04.01.03.02.04.01.03.02.04.01.03.02.03.02.03.03.03.02.03.03.02.02.03.03.02.03.03.03.02.03.02.03.01.04.02.03.01.04.02.03.01.04.01h.03l.04.01h.15l.04-.01h.03l.04-.01.03-.01.04-.02.03-.01.04-.02.03-.01.03-.02.03-.02.03-.03.03-.02.02-.03.03-.02.02-.03.03-.03.02-.03.02-.03.01-.03.02-.04.01-.03.02-.04.01-.03.01-.04v-.03l.01-.04V34Z"/><path d="M11.7 34v-.07l-.01-.04v-.03l-.01-.04-.01-.03-.02-.04-.01-.03-.02-.04-.01-.03-.02-.03-.02-.03-.03-.03-.02-.03-.03-.02-.02-.03-.03-.02-.03-.03-.03-.02-.03-.02-.03-.01-.04-.02-.03-.01-.04-.02-.03-.01-.04-.01h-.03l-.04-.01h-.15l-.04.01h-.03l-.04.01-.03.01-.04.02-.03.01-.04.02-.03.01-.03.02-.03.02-.03.03-.03.02-.02.03-.03.02-.02.03-.03.03-.02.03-.02.03-.01.03-.02.04-.01.03-.02.04-.01.03-.01.04v.03l-.01.04v.15l.01.04v.03l.01.04.01.03.02.04.01.03.02.04.01.03.02.03.02.03.03.03.02.03.03.02.02.03.03.02.03.03.03.02.03.02.03.01.04.02.03.01.04.02.03.01.04.01h.03l.04.01h.15l.04-.01h.03l.04-.01.03-.01.04-.02.03-.01.04-.02.03-.01.03-.02.03-.02.03-.03.03-.02.02-.03.03-.02.02-.03.03-.03.02-.03.02-.03.01-.03.02-.04.01-.03.02-.04.01-.03.01-.04v-.03l.01-.04V34Z"/></g><g fill="none" stroke="#EC6F1A" stroke-linecap="round" stroke-linejoin="round" stroke-width=".1" color="#000"><path d="M28.69 31v-.07l-.01-.04v-.03l-.01-.04-.01-.03-.02-.04-.01-.03-.02-.04-.01-.03-.02-.03-.02-.03-.03-.03-.02-.03-.03-.02-.02-.03-.03-.02-.03-.03-.03-.02-.03-.02-.03-.01-.04-.02-.03-.01-.04-.02-.03-.01-.04-.01h-.03l-.04-.01h-.15l-.04.01h-.03l-.04.01-.03.01-.04.02-.03.01-.04.02-.03.01-.03.02-.03.02-.03.03-.03.02-.02.03-.03.02-.02.03-.03.03-.02.03-.02.03-.01.03-.02.04-.01.03-.02.04-.01.03-.01.04v.03l-.01.04v.15l.01.04v.03l.01.04.01.03.02.04.01.03.02.04.01.03.02.03.02.03.03.03.02.03.03.02.02.03.03.02.03.03.03.02.03.02.03.01.04.02.03.01.04.02.03.01.04.01h.03l.04.01h.15l.04-.01h.03l.04-.01.03-.01.04-.02.03-.01.04-.02.03-.01.03-.02.03-.02.03-.03.03-.02.02-.03.03-.02.02-.03.03-.03.02-.03.02-.03.01-.03.02-.04.01-.03.02-.04.01-.03.01-.04v-.03l.01-.04V31Z"/><path d="M28.69 31v-.07l-.01-.04v-.03l-.01-.04-.01-.03-.02-.04-.01-.03-.02-.04-.01-.03-.02-.03-.02-.03-.03-.03-.02-.03-.03-.02-.02-.03-.03-.02-.03-.03-.03-.02-.03-.02-.03-.01-.04-.02-.03-.01-.04-.02-.03-.01-.04-.01h-.03l-.04-.01h-.15l-.04.01h-.03l-.04.01-.03.01-.04.02-.03.01-.04.02-.03.01-.03.02-.03.02-.03.03-.03.02-.02.03-.03.02-.02.03-.03.03-.02.03-.02.03-.01.03-.02.04-.01.03-.02.04-.01.03-.01.04v.03l-.01.04v.15l.01.04v.03l.01.04.01.03.02.04.01.03.02.04.01.03.02.03.02.03.03.03.02.03.03.02.02.03.03.02.03.03.03.02.03.02.03.01.04.02.03.01.04.02.03.01.04.01h.03l.04.01h.15l.04-.01h.03l.04-.01.03-.01.04-.02.03-.01.04-.02.03-.01.03-.02.03-.02.03-.03.03-.02.02-.03.03-.02.02-.03.03-.03.02-.03.02-.03.01-.03.02-.04.01-.03.02-.04.01-.03.01-.04v-.03l.01-.04V31Z"/></g><g fill="none" stroke="#EC6F1A" stroke-linecap="round" stroke-linejoin="round" stroke-width=".1" color="#000"><path d="M25.69 34v-.07l-.01-.04v-.03l-.01-.04-.01-.03-.02-.04-.01-.03-.02-.04-.01-.03-.02-.03-.02-.03-.03-.03-.02-.03-.03-.02-.02-.03-.03-.02-.03-.03-.03-.02-.03-.02-.03-.01-.04-.02-.03-.01-.04-.02-.03-.01-.04-.01h-.03l-.04-.01h-.15l-.04.01h-.03l-.04.01-.03.01-.04.02-.03.01-.04.02-.03.01-.03.02-.03.02-.03.03-.03.02-.02.03-.03.02-.02.03-.03.03-.02.03-.02.03-.01.03-.02.04-.01.03-.02.04-.01.03-.01.04v.03l-.01.04v.15l.01.04v.03l.01.04.01.03.02.04.01.03.02.04.01.03.02.03.02.03.03.03.02.03.03.02.02.03.03.02.03.03.03.02.03.02.03.01.04.02.03.01.04.02.03.01.04.01h.03l.04.01h.15l.04-.01h.03l.04-.01.03-.01.04-.02.03-.01.04-.02.03-.01.03-.02.03-.02.03-.03.03-.02.02-.03.03-.02.02-.03.03-.03.02-.03.02-.03.01-.03.02-.04.01-.03.02-.04.01-.03.01-.04v-.03l.01-.04V34Z"/><path d="M25.69 34v-.07l-.01-.04v-.03l-.01-.04-.01-.03-.02-.04-.01-.03-.02-.04-.01-.03-.02-.03-.02-.03-.03-.03-.02-.03-.03-.02-.02-.03-.03-.02-.03-.03-.03-.02-.03-.02-.03-.01-.04-.02-.03-.01-.04-.02-.03-.01-.04-.01h-.03l-.04-.01h-.15l-.04.01h-.03l-.04.01-.03.01-.04.02-.03.01-.04.02-.03.01-.03.02-.03.02-.03.03-.03.02-.02.03-.03.02-.02.03-.03.03-.02.03-.02.03-.01.03-.02.04-.01.03-.02.04-.01.03-.01.04v.03l-.01.04v.15l.01.04v.03l.01.04.01.03.02.04.01.03.02.04.01.03.02.03.02.03.03.03.02.03.03.02.02.03.03.02.03.03.03.02.03.02.03.01.04.02.03.01.04.02.03.01.04.01h.03l.04.01h.15l.04-.01h.03l.04-.01.03-.01.04-.02.03-.01.04-.02.03-.01.03-.02.03-.02.03-.03.03-.02.02-.03.03-.02.02-.03.03-.03.02-.03.02-.03.01-.03.02-.04.01-.03.02-.04.01-.03.01-.04v-.03l.01-.04V34Z"/></g><g fill="none" stroke="#EC6F1A" stroke-linecap="round" stroke-linejoin="round" stroke-width=".1" color="#000"><path d="M22.69 37v-.07l-.01-.04v-.03l-.01-.04-.01-.03-.02-.04-.01-.03-.02-.04-.01-.03-.02-.03-.02-.03-.03-.03-.02-.03-.03-.02-.02-.03-.03-.02-.03-.03-.03-.02-.03-.02-.03-.01-.04-.02-.03-.01-.04-.02-.03-.01-.04-.01h-.03l-.04-.01h-.15l-.04.01h-.03l-.04.01-.03.01-.04.02-.03.01-.04.02-.03.01-.03.02-.03.02-.03.03-.03.02-.02.03-.03.02-.02.03-.03.03-.02.03-.02.03-.01.03-.02.04-.01.03-.02.04-.01.03-.01.04v.03l-.01.04v.15l.01.04v.03l.01.04.01.03.02.04.01.03.02.04.01.03.02.03.02.03.03.03.02.03.03.02.02.03.03.02.03.03.03.02.03.02.03.01.04.02.03.01.04.02.03.01.04.01h.03l.04.01h.15l.04-.01h.03l.04-.01.03-.01.04-.02.03-.01.04-.02.03-.01.03-.02.03-.02.03-.03.03-.02.02-.03.03-.02.02-.03.03-.03.02-.03.02-.03.01-.03.02-.04.01-.03.02-.04.01-.03.01-.04v-.03l.01-.04V37Z"/><path d="M22.69 37v-.07l-.01-.04v-.03l-.01-.04-.01-.03-.02-.04-.01-.03-.02-.04-.01-.03-.02-.03-.02-.03-.03-.03-.02-.03-.03-.02-.02-.03-.03-.02-.03-.03-.03-.02-.03-.02-.03-.01-.04-.02-.03-.01-.04-.02-.03-.01-.04-.01h-.03l-.04-.01h-.15l-.04.01h-.03l-.04.01-.03.01-.04.02-.03.01-.04.02-.03.01-.03.02-.03.02-.03.03-.03.02-.02.03-.03.02-.02.03-.03.03-.02.03-.02.03-.01.03-.02.04-.01.03-.02.04-.01.03-.01.04v.03l-.01.04v.15l.01.04v.03l.01.04.01.03.02.04.01.03.02.04.01.03.02.03.02.03.03.03.02.03.03.02.02.03.03.02.03.03.03.02.03.02.03.01.04.02.03.01.04.02.03.01.04.01h.03l.04.01h.15l.04-.01h.03l.04-.01.03-.01.04-.02.03-.01.04-.02.03-.01.03-.02.03-.02.03-.03.03-.02.02-.03.03-.02.02-.03.03-.03.02-.03.02-.03.01-.03.02-.04.01-.03.02-.04.01-.03.01-.04v-.03l.01-.04V37Z"/></g><g fill="none" stroke="#EC6F1A" stroke-linecap="round" stroke-linejoin="round" stroke-width=".1" color="#000"><path d="M25.69 40v-.07l-.01-.04v-.03l-.01-.04-.01-.03-.02-.04-.01-.03-.02-.04-.01-.03-.02-.03-.02-.03-.03-.03-.02-.03-.03-.02-.02-.03-.03-.02-.03-.03-.03-.02-.03-.02-.03-.01-.04-.02-.03-.01-.04-.02-.03-.01-.04-.01h-.03l-.04-.01h-.15l-.04.01h-.03l-.04.01-.03.01-.04.02-.03.01-.04.02-.03.01-.03.02-.03.02-.03.03-.03.02-.02.03-.03.02-.02.03-.03.03-.02.03-.02.03-.01.03-.02.04-.01.03-.02.04-.01.03-.01.04v.03l-.01.04v.15l.01.04v.03l.01.04.01.03.02.04.01.03.02.04.01.03.02.03.02.03.03.03.02.03.03.02.02.03.03.02.03.03.03.02.03.02.03.01.04.02.03.01.04.02.03.01.04.01h.03l.04.01h.15l.04-.01h.03l.04-.01.03-.01.04-.02.03-.01.04-.02.03-.01.03-.02.03-.02.03-.03.03-.02.02-.03.03-.02.02-.03.03-.03.02-.03.02-.03.01-.03.02-.04.01-.03.02-.04.01-.03.01-.04v-.03l.01-.04V40Z"/><path d="M25.69 40v-.07l-.01-.04v-.03l-.01-.04-.01-.03-.02-.04-.01-.03-.02-.04-.01-.03-.02-.03-.02-.03-.03-.03-.02-.03-.03-.02-.02-.03-.03-.02-.03-.03-.03-.02-.03-.02-.03-.01-.04-.02-.03-.01-.04-.02-.03-.01-.04-.01h-.03l-.04-.01h-.15l-.04.01h-.03l-.04.01-.03.01-.04.02-.03.01-.04.02-.03.01-.03.02-.03.02-.03.03-.03.02-.02.03-.03.02-.02.03-.03.03-.02.03-.02.03-.01.03-.02.04-.01.03-.02.04-.01.03-.01.04v.03l-.01.04v.15l.01.04v.03l.01.04.01.03.02.04.01.03.02.04.01.03.02.03.02.03.03.03.02.03.03.02.02.03.03.02.03.03.03.02.03.02.03.01.04.02.03.01.04.02.03.01.04.01h.03l.04.01h.15l.04-.01h.03l.04-.01.03-.01.04-.02.03-.01.04-.02.03-.01.03-.02.03-.02.03-.03.03-.02.02-.03.03-.02.02-.03.03-.03.02-.03.02-.03.01-.03.02-.04.01-.03.02-.04.01-.03.01-.04v-.03l.01-.04V40Z"/></g></svg>