<svg xmlns="http://www.w3.org/2000/svg" viewBox="0 0 36 8"><path fill="none" d="M0 0h36v8H0z"/><path fill="none" d="M0 8h.75m35.24 0h-.75M0 7h.75m35.24 0h-.75M0 6h.75m35.24 0h-.75M0 5h.75m35.24 0h-.75M0 4h.75m35.24 0h-.75M0 3.01h.75m35.24 0h-.75M0 2.01h.75m35.24 0h-.75M0 1.01h.75m35.24 0h-.75M0 .01h.75m35.24 0h-.75M0 8v-.75M0 .01v.75M1 8v-.75M1 .01v.75M2 8v-.75M2 .01v.75M3 8v-.75M3 .01v.75M4 8v-.75M4 .01v.75M5 8v-.75M5 .01v.75M6 8v-.75M6 .01v.75M7 8v-.75M7 .01v.75M8 8v-.75M8 .01v.75M9 8v-.75M9 .01v.75M10 8v-.75m0-7.24v.75M11 8v-.75m0-7.24v.75M12 8v-.75m0-7.24v.75M13 8v-.75m0-7.24v.75M14 8v-.75m0-7.24v.75M15 8v-.75m0-7.24v.75M16 8v-.75m0-7.24v.75M17 8v-.75m0-7.24v.75M18 8v-.75m0-7.24v.75M18.99 8v-.75m0-7.24v.75m1 7.24v-.75m0-7.24v.75m1 7.24v-.75m0-7.24v.75m1 7.24v-.75m0-7.24v.75m1 7.24v-.75m0-7.24v.75m1 7.24v-.75m0-7.24v.75m1 7.24v-.75m0-7.24v.75m1 7.24v-.75m0-7.24v.75m1 7.24v-.75m0-7.24v.75m1 7.24v-.75m0-7.24v.75m1 7.24v-.75m0-7.24v.75m1 7.24v-.75m0-7.24v.75m1 7.24v-.75m0-7.24v.75m1 7.24v-.75m0-7.24v.75m1 7.24v-.75m0-7.24v.75m1 7.24v-.75m0-7.24v.75m1 7.24v-.75m0-7.24v.75m1 7.24v-.75m0-7.24v.75" color="#000"/><g stroke-linecap="round" stroke-linejoin="round" stroke-width="0" color="#000" font-family="KaTeX_Typewriter" font-size="1" text-anchor="middle"><text transform="translate(.5 1.34)"><tspan>1</tspan></text><text transform="translate(3 1.34)"><tspan>3</tspan></text><text transform="translate(7 1.34)"><tspan>7</tspan></text><text transform="translate(14 1.34)"><tspan>15</tspan></text><text transform="translate(27.99 1.34)"><tspan>31</tspan></text></g><path fill="none" stroke="#000" stroke-linecap="round" stroke-linejoin="round" stroke-width=".1" d="m3.01 3-.5.99m.5-.99.5.99M7.01 3l-1 .99m1-.99 1 .99m-2 0-.5 1m.5-1 .5 1m1.5-1-.5 1m.5-1 .5 1M14.01 3l-2 .99m2-.99 2 .99m-4 0-1 1m1-1 1 1m3-1-1 1m1-1 1 1m-6 0-.5 1m.5-1 .5 1m1.5-1-.5 1m.5-1 .5 1m1.5-1-.5 1m.5-1 .5 1m1.5-1-.5 1m.5-1 .5 1M28 3l-4 .99M28 3l4 .99m-8 0-2 1m2-1 2 1m6-1-2 1m2-1 2 1m-12 0-1 1m1-1 1 1m3-1-1 1m1-1 1 1m3-1-1 1m1-1 1 1m3-1-1 1m1-1 1 1m-14 0-.5 1m.5-1 .5 1m1.5-1-.5 1m.5-1 .5 1m1.5-1-.5 1m.5-1 .5 1m1.5-1-.5 1m.5-1 .5 1m1.5-1-.5 1m.5-1 .5 1m1.5-1-.5 1m.5-1 .5 1m1.5-1-.5 1m.5-1 .5 1m1.5-1-.5 1m.5-1 .5 1" color="#000"/><g fill="none" stroke="currentColor" stroke-linecap="round" stroke-linejoin="round" stroke-width=".1" color="#000"><path fill="#000" stroke="none" d="M.69 3.01v-.06l-.01-.01v-.01l-.01-.01-.01-.01V2.9l-.01-.01-.01-.01v-.01H.63l-.01-.01-.01-.01H.6l-.01-.01-.01-.01H.57l-.01-.01H.43l-.01.01H.41l-.01.01-.01.01H.38l-.01.01-.01.01H.35v.01l-.01.01-.01.01v.01l-.01.01-.01.01v.01l-.01.01v.13l.01.01v.01l.01.01.01.01v.01l.01.01.01.01v.01h.01l.01.01.01.01h.01l.01.01.01.01h.01l.01.01h.13l.01-.01h.01l.01-.01.01-.01h.01l.01-.01.01-.01h.01v-.01l.01-.01.01-.01v-.01l.01-.01.01-.01v-.01l.01-.01v-.05z" shape-rendering="crispEdges"/><path stroke="#000" d="M.69 3.01v-.06l-.01-.01v-.01l-.01-.01-.01-.01V2.9l-.01-.01-.01-.01v-.01H.63l-.01-.01-.01-.01H.6l-.01-.01-.01-.01H.57l-.01-.01H.43l-.01.01H.41l-.01.01-.01.01H.38l-.01.01-.01.01H.35v.01l-.01.01-.01.01v.01l-.01.01-.01.01v.01l-.01.01v.13l.01.01v.01l.01.01.01.01v.01l.01.01.01.01v.01h.01l.01.01.01.01h.01l.01.01.01.01h.01l.01.01h.13l.01-.01h.01l.01-.01.01-.01h.01l.01-.01.01-.01h.01v-.01l.01-.01.01-.01v-.01l.01-.01.01-.01v-.01l.01-.01v-.07Z"/></g><g fill="none" stroke="currentColor" stroke-linecap="round" stroke-linejoin="round" stroke-width=".1" color="#000"><path fill="#000" stroke="none" d="M3.19 3.01v-.06l-.01-.01v-.01l-.01-.01-.01-.01V2.9l-.01-.01-.01-.01v-.01h-.01l-.01-.01-.01-.01H3.1l-.01-.01-.01-.01h-.01l-.01-.01h-.13l-.01.01h-.01l-.01.01-.01.01h-.01l-.01.01-.01.01h-.01v.01l-.01.01-.01.01v.01l-.01.01-.01.01v.01l-.01.01v.13l.01.01v.01l.01.01.01.01v.01l.01.01.01.01v.01h.01l.01.01.01.01h.01l.01.01.01.01h.01l.01.01h.13l.01-.01h.01l.01-.01.01-.01h.01l.01-.01.01-.01h.01v-.01l.01-.01.01-.01v-.01l.01-.01.01-.01v-.01l.01-.01v-.05z" shape-rendering="crispEdges"/><path stroke="#000" d="M3.19 3.01v-.06l-.01-.01v-.01l-.01-.01-.01-.01V2.9l-.01-.01-.01-.01v-.01h-.01l-.01-.01-.01-.01H3.1l-.01-.01-.01-.01h-.01l-.01-.01h-.13l-.01.01h-.01l-.01.01-.01.01h-.01l-.01.01-.01.01h-.01v.01l-.01.01-.01.01v.01l-.01.01-.01.01v.01l-.01.01v.13l.01.01v.01l.01.01.01.01v.01l.01.01.01.01v.01h.01l.01.01.01.01h.01l.01.01.01.01h.01l.01.01h.13l.01-.01h.01l.01-.01.01-.01h.01l.01-.01.01-.01h.01v-.01l.01-.01.01-.01v-.01l.01-.01.01-.01v-.01l.01-.01v-.07Z"/></g><g fill="none" stroke="currentColor" stroke-linecap="round" stroke-linejoin="round" stroke-width=".1" color="#000"><path fill="#000" stroke="none" d="M2.69 4v-.06l-.01-.01v-.01l-.01-.01-.01-.01v-.01l-.01-.01-.01-.01v-.01h-.01l-.01-.01-.01-.01H2.6l-.01-.01-.01-.01h-.01l-.01-.01h-.13l-.01.01h-.01l-.01.01-.01.01h-.01l-.01.01-.01.01h-.01v.01l-.01.01-.01.01v.01l-.01.01-.01.01v.01l-.01.01v.13l.01.01v.01l.01.01.01.01v.01l.01.01.01.01v.01h.01l.01.01.01.01h.01l.01.01.01.01h.01l.01.01h.13l.01-.01h.01l.01-.01.01-.01h.01l.01-.01.01-.01h.01v-.01l.01-.01.01-.01v-.01l.01-.01.01-.01v-.01l.01-.01v-.05z" shape-rendering="crispEdges"/><path stroke="#000" d="M2.69 4v-.06l-.01-.01v-.01l-.01-.01-.01-.01v-.01l-.01-.01-.01-.01v-.01h-.01l-.01-.01-.01-.01H2.6l-.01-.01-.01-.01h-.01l-.01-.01h-.13l-.01.01h-.01l-.01.01-.01.01h-.01l-.01.01-.01.01h-.01v.01l-.01.01-.01.01v.01l-.01.01-.01.01v.01l-.01.01v.13l.01.01v.01l.01.01.01.01v.01l.01.01.01.01v.01h.01l.01.01.01.01h.01l.01.01.01.01h.01l.01.01h.13l.01-.01h.01l.01-.01.01-.01h.01l.01-.01.01-.01h.01v-.01l.01-.01.01-.01v-.01l.01-.01.01-.01v-.01l.01-.01V4Z"/></g><g fill="none" stroke="currentColor" stroke-linecap="round" stroke-linejoin="round" stroke-width=".1" color="#000"><path fill="#000" stroke="none" d="M3.69 4v-.06l-.01-.01v-.01l-.01-.01-.01-.01v-.01l-.01-.01-.01-.01v-.01h-.01l-.01-.01-.01-.01H3.6l-.01-.01-.01-.01h-.01l-.01-.01h-.13l-.01.01h-.01l-.01.01-.01.01h-.01l-.01.01-.01.01h-.01v.01l-.01.01-.01.01v.01l-.01.01-.01.01v.01l-.01.01v.13l.01.01v.01l.01.01.01.01v.01l.01.01.01.01v.01h.01l.01.01.01.01h.01l.01.01.01.01h.01l.01.01h.13l.01-.01h.01l.01-.01.01-.01h.01l.01-.01.01-.01h.01v-.01l.01-.01.01-.01v-.01l.01-.01.01-.01v-.01l.01-.01v-.05z" shape-rendering="crispEdges"/><path stroke="#000" d="M3.69 4v-.06l-.01-.01v-.01l-.01-.01-.01-.01v-.01l-.01-.01-.01-.01v-.01h-.01l-.01-.01-.01-.01H3.6l-.01-.01-.01-.01h-.01l-.01-.01h-.13l-.01.01h-.01l-.01.01-.01.01h-.01l-.01.01-.01.01h-.01v.01l-.01.01-.01.01v.01l-.01.01-.01.01v.01l-.01.01v.13l.01.01v.01l.01.01.01.01v.01l.01.01.01.01v.01h.01l.01.01.01.01h.01l.01.01.01.01h.01l.01.01h.13l.01-.01h.01l.01-.01.01-.01h.01l.01-.01.01-.01h.01v-.01l.01-.01.01-.01v-.01l.01-.01.01-.01v-.01l.01-.01V4Z"/></g><g fill="none" stroke="currentColor" stroke-linecap="round" stroke-linejoin="round" stroke-width=".1" color="#000"><path fill="#000" stroke="none" d="M7.19 3.01v-.06l-.01-.01v-.01l-.01-.01-.01-.01V2.9l-.01-.01-.01-.01v-.01h-.01l-.01-.01-.01-.01H7.1l-.01-.01-.01-.01h-.01l-.01-.01h-.13l-.01.01h-.01l-.01.01-.01.01h-.01l-.01.01-.01.01h-.01v.01l-.01.01-.01.01v.01l-.01.01-.01.01v.01l-.01.01v.13l.01.01v.01l.01.01.01.01v.01l.01.01.01.01v.01h.01l.01.01.01.01h.01l.01.01.01.01h.01l.01.01h.13l.01-.01h.01l.01-.01.01-.01h.01l.01-.01.01-.01h.01v-.01l.01-.01.01-.01v-.01l.01-.01.01-.01v-.01l.01-.01v-.05z" shape-rendering="crispEdges"/><path stroke="#000" d="M7.19 3.01v-.06l-.01-.01v-.01l-.01-.01-.01-.01V2.9l-.01-.01-.01-.01v-.01h-.01l-.01-.01-.01-.01H7.1l-.01-.01-.01-.01h-.01l-.01-.01h-.13l-.01.01h-.01l-.01.01-.01.01h-.01l-.01.01-.01.01h-.01v.01l-.01.01-.01.01v.01l-.01.01-.01.01v.01l-.01.01v.13l.01.01v.01l.01.01.01.01v.01l.01.01.01.01v.01h.01l.01.01.01.01h.01l.01.01.01.01h.01l.01.01h.13l.01-.01h.01l.01-.01.01-.01h.01l.01-.01.01-.01h.01v-.01l.01-.01.01-.01v-.01l.01-.01.01-.01v-.01l.01-.01v-.07Z"/></g><g fill="none" stroke="currentColor" stroke-linecap="round" stroke-linejoin="round" stroke-width=".1" color="#000"><path fill="#000" stroke="none" d="M6.19 4v-.06l-.01-.01v-.01l-.01-.01-.01-.01v-.01l-.01-.01-.01-.01v-.01h-.01l-.01-.01-.01-.01H6.1l-.01-.01-.01-.01h-.01l-.01-.01h-.13l-.01.01h-.01l-.01.01-.01.01h-.01l-.01.01-.01.01h-.01v.01l-.01.01-.01.01v.01l-.01.01-.01.01v.01l-.01.01v.13l.01.01v.01l.01.01.01.01v.01l.01.01.01.01v.01h.01l.01.01.01.01h.01l.01.01.01.01h.01l.01.01h.13l.01-.01h.01l.01-.01.01-.01h.01l.01-.01.01-.01h.01v-.01l.01-.01.01-.01v-.01l.01-.01.01-.01v-.01l.01-.01v-.05z" shape-rendering="crispEdges"/><path stroke="#000" d="M6.19 4v-.06l-.01-.01v-.01l-.01-.01-.01-.01v-.01l-.01-.01-.01-.01v-.01h-.01l-.01-.01-.01-.01H6.1l-.01-.01-.01-.01h-.01l-.01-.01h-.13l-.01.01h-.01l-.01.01-.01.01h-.01l-.01.01-.01.01h-.01v.01l-.01.01-.01.01v.01l-.01.01-.01.01v.01l-.01.01v.13l.01.01v.01l.01.01.01.01v.01l.01.01.01.01v.01h.01l.01.01.01.01h.01l.01.01.01.01h.01l.01.01h.13l.01-.01h.01l.01-.01.01-.01h.01l.01-.01.01-.01h.01v-.01l.01-.01.01-.01v-.01l.01-.01.01-.01v-.01l.01-.01V4Z"/></g><g fill="none" stroke="currentColor" stroke-linecap="round" stroke-linejoin="round" stroke-width=".1" color="#000"><path fill="#000" stroke="none" d="M8.19 4v-.06l-.01-.01v-.01l-.01-.01-.01-.01v-.01l-.01-.01-.01-.01v-.01h-.01l-.01-.01-.01-.01H8.1l-.01-.01-.01-.01h-.01l-.01-.01h-.13l-.01.01h-.01l-.01.01-.01.01h-.01l-.01.01-.01.01h-.01v.01l-.01.01-.01.01v.01l-.01.01-.01.01v.01l-.01.01v.13l.01.01v.01l.01.01.01.01v.01l.01.01.01.01v.01h.01l.01.01.01.01h.01l.01.01.01.01h.01l.01.01h.13l.01-.01h.01l.01-.01.01-.01h.01l.01-.01.01-.01h.01v-.01l.01-.01.01-.01v-.01l.01-.01.01-.01v-.01l.01-.01v-.05z" shape-rendering="crispEdges"/><path stroke="#000" d="M8.19 4v-.06l-.01-.01v-.01l-.01-.01-.01-.01v-.01l-.01-.01-.01-.01v-.01h-.01l-.01-.01-.01-.01H8.1l-.01-.01-.01-.01h-.01l-.01-.01h-.13l-.01.01h-.01l-.01.01-.01.01h-.01l-.01.01-.01.01h-.01v.01l-.01.01-.01.01v.01l-.01.01-.01.01v.01l-.01.01v.13l.01.01v.01l.01.01.01.01v.01l.01.01.01.01v.01h.01l.01.01.01.01h.01l.01.01.01.01h.01l.01.01h.13l.01-.01h.01l.01-.01.01-.01h.01l.01-.01.01-.01h.01v-.01l.01-.01.01-.01v-.01l.01-.01.01-.01v-.01l.01-.01V4Z"/></g><g fill="none" stroke="currentColor" stroke-linecap="round" stroke-linejoin="round" stroke-width=".1" color="#000"><path fill="#000" stroke="none" d="M5.69 5v-.06l-.01-.01v-.01l-.01-.01-.01-.01v-.01l-.01-.01-.01-.01v-.01h-.01l-.01-.01-.01-.01H5.6l-.01-.01-.01-.01h-.01l-.01-.01h-.13l-.01.01h-.01l-.01.01-.01.01h-.01l-.01.01-.01.01h-.01v.01l-.01.01-.01.01v.01l-.01.01-.01.01v.01l-.01.01v.13l.01.01v.01l.01.01.01.01v.01l.01.01.01.01v.01h.01l.01.01.01.01h.01l.01.01.01.01h.01l.01.01h.13l.01-.01h.01l.01-.01.01-.01h.01l.01-.01.01-.01h.01v-.01l.01-.01.01-.01v-.01l.01-.01.01-.01v-.01l.01-.01v-.05z" shape-rendering="crispEdges"/><path stroke="#000" d="M5.69 5v-.06l-.01-.01v-.01l-.01-.01-.01-.01v-.01l-.01-.01-.01-.01v-.01h-.01l-.01-.01-.01-.01H5.6l-.01-.01-.01-.01h-.01l-.01-.01h-.13l-.01.01h-.01l-.01.01-.01.01h-.01l-.01.01-.01.01h-.01v.01l-.01.01-.01.01v.01l-.01.01-.01.01v.01l-.01.01v.13l.01.01v.01l.01.01.01.01v.01l.01.01.01.01v.01h.01l.01.01.01.01h.01l.01.01.01.01h.01l.01.01h.13l.01-.01h.01l.01-.01.01-.01h.01l.01-.01.01-.01h.01v-.01l.01-.01.01-.01v-.01l.01-.01.01-.01v-.01l.01-.01V5Z"/></g><g fill="none" stroke="currentColor" stroke-linecap="round" stroke-linejoin="round" stroke-width=".1" color="#000"><path fill="#000" stroke="none" d="M6.69 5v-.06l-.01-.01v-.01l-.01-.01-.01-.01v-.01l-.01-.01-.01-.01v-.01h-.01l-.01-.01-.01-.01H6.6l-.01-.01-.01-.01h-.01l-.01-.01h-.13l-.01.01h-.01l-.01.01-.01.01h-.01l-.01.01-.01.01h-.01v.01l-.01.01-.01.01v.01l-.01.01-.01.01v.01l-.01.01v.13l.01.01v.01l.01.01.01.01v.01l.01.01.01.01v.01h.01l.01.01.01.01h.01l.01.01.01.01h.01l.01.01h.13l.01-.01h.01l.01-.01.01-.01h.01l.01-.01.01-.01h.01v-.01l.01-.01.01-.01v-.01l.01-.01.01-.01v-.01l.01-.01v-.05z" shape-rendering="crispEdges"/><path stroke="#000" d="M6.69 5v-.06l-.01-.01v-.01l-.01-.01-.01-.01v-.01l-.01-.01-.01-.01v-.01h-.01l-.01-.01-.01-.01H6.6l-.01-.01-.01-.01h-.01l-.01-.01h-.13l-.01.01h-.01l-.01.01-.01.01h-.01l-.01.01-.01.01h-.01v.01l-.01.01-.01.01v.01l-.01.01-.01.01v.01l-.01.01v.13l.01.01v.01l.01.01.01.01v.01l.01.01.01.01v.01h.01l.01.01.01.01h.01l.01.01.01.01h.01l.01.01h.13l.01-.01h.01l.01-.01.01-.01h.01l.01-.01.01-.01h.01v-.01l.01-.01.01-.01v-.01l.01-.01.01-.01v-.01l.01-.01V5Z"/></g><g fill="none" stroke="currentColor" stroke-linecap="round" stroke-linejoin="round" stroke-width=".1" color="#000"><path fill="#000" stroke="none" d="M7.69 5v-.06l-.01-.01v-.01l-.01-.01-.01-.01v-.01l-.01-.01-.01-.01v-.01h-.01l-.01-.01-.01-.01H7.6l-.01-.01-.01-.01h-.01l-.01-.01h-.13l-.01.01h-.01l-.01.01-.01.01h-.01l-.01.01-.01.01h-.01v.01l-.01.01-.01.01v.01l-.01.01-.01.01v.01l-.01.01v.13l.01.01v.01l.01.01.01.01v.01l.01.01.01.01v.01h.01l.01.01.01.01h.01l.01.01.01.01h.01l.01.01h.13l.01-.01h.01l.01-.01.01-.01h.01l.01-.01.01-.01h.01v-.01l.01-.01.01-.01v-.01l.01-.01.01-.01v-.01l.01-.01v-.05z" shape-rendering="crispEdges"/><path stroke="#000" d="M7.69 5v-.06l-.01-.01v-.01l-.01-.01-.01-.01v-.01l-.01-.01-.01-.01v-.01h-.01l-.01-.01-.01-.01H7.6l-.01-.01-.01-.01h-.01l-.01-.01h-.13l-.01.01h-.01l-.01.01-.01.01h-.01l-.01.01-.01.01h-.01v.01l-.01.01-.01.01v.01l-.01.01-.01.01v.01l-.01.01v.13l.01.01v.01l.01.01.01.01v.01l.01.01.01.01v.01h.01l.01.01.01.01h.01l.01.01.01.01h.01l.01.01h.13l.01-.01h.01l.01-.01.01-.01h.01l.01-.01.01-.01h.01v-.01l.01-.01.01-.01v-.01l.01-.01.01-.01v-.01l.01-.01V5Z"/></g><g fill="none" stroke="currentColor" stroke-linecap="round" stroke-linejoin="round" stroke-width=".1" color="#000"><path fill="#000" stroke="none" d="M8.69 5v-.06l-.01-.01v-.01l-.01-.01-.01-.01v-.01l-.01-.01-.01-.01v-.01h-.01l-.01-.01-.01-.01H8.6l-.01-.01-.01-.01h-.01l-.01-.01h-.13l-.01.01h-.01l-.01.01-.01.01h-.01l-.01.01-.01.01h-.01v.01l-.01.01-.01.01v.01l-.01.01-.01.01v.01l-.01.01v.13l.01.01v.01l.01.01.01.01v.01l.01.01.01.01v.01h.01l.01.01.01.01h.01l.01.01.01.01h.01l.01.01h.13l.01-.01h.01l.01-.01.01-.01h.01l.01-.01.01-.01h.01v-.01l.01-.01.01-.01v-.01l.01-.01.01-.01v-.01l.01-.01v-.05z" shape-rendering="crispEdges"/><path stroke="#000" d="M8.69 5v-.06l-.01-.01v-.01l-.01-.01-.01-.01v-.01l-.01-.01-.01-.01v-.01h-.01l-.01-.01-.01-.01H8.6l-.01-.01-.01-.01h-.01l-.01-.01h-.13l-.01.01h-.01l-.01.01-.01.01h-.01l-.01.01-.01.01h-.01v.01l-.01.01-.01.01v.01l-.01.01-.01.01v.01l-.01.01v.13l.01.01v.01l.01.01.01.01v.01l.01.01.01.01v.01h.01l.01.01.01.01h.01l.01.01.01.01h.01l.01.01h.13l.01-.01h.01l.01-.01.01-.01h.01l.01-.01.01-.01h.01v-.01l.01-.01.01-.01v-.01l.01-.01.01-.01v-.01l.01-.01V5Z"/></g><g fill="none" stroke="currentColor" stroke-linecap="round" stroke-linejoin="round" stroke-width=".1" color="#000"><path fill="#000" stroke="none" d="M14.19 3.01v-.06l-.01-.01v-.01l-.01-.01-.01-.01V2.9l-.01-.01-.01-.01v-.01h-.01l-.01-.01-.01-.01h-.01l-.01-.01-.01-.01h-.01l-.01-.01h-.13l-.01.01h-.01l-.01.01-.01.01h-.01l-.01.01-.01.01h-.01v.01l-.01.01-.01.01v.01l-.01.01-.01.01v.01l-.01.01v.13l.01.01v.01l.01.01.01.01v.01l.01.01.01.01v.01h.01l.01.01.01.01h.01l.01.01.01.01h.01l.01.01h.13l.01-.01h.01l.01-.01.01-.01h.01l.01-.01.01-.01h.01v-.01l.01-.01.01-.01v-.01l.01-.01.01-.01v-.01l.01-.01v-.05z" shape-rendering="crispEdges"/><path stroke="#000" d="M14.19 3.01v-.06l-.01-.01v-.01l-.01-.01-.01-.01V2.9l-.01-.01-.01-.01v-.01h-.01l-.01-.01-.01-.01h-.01l-.01-.01-.01-.01h-.01l-.01-.01h-.13l-.01.01h-.01l-.01.01-.01.01h-.01l-.01.01-.01.01h-.01v.01l-.01.01-.01.01v.01l-.01.01-.01.01v.01l-.01.01v.13l.01.01v.01l.01.01.01.01v.01l.01.01.01.01v.01h.01l.01.01.01.01h.01l.01.01.01.01h.01l.01.01h.13l.01-.01h.01l.01-.01.01-.01h.01l.01-.01.01-.01h.01v-.01l.01-.01.01-.01v-.01l.01-.01.01-.01v-.01l.01-.01v-.07Z"/></g><g fill="none" stroke="currentColor" stroke-linecap="round" stroke-linejoin="round" stroke-width=".1" color="#000"><path fill="#000" stroke="none" d="M12.19 4v-.06l-.01-.01v-.01l-.01-.01-.01-.01v-.01l-.01-.01-.01-.01v-.01h-.01l-.01-.01-.01-.01h-.01l-.01-.01-.01-.01h-.01l-.01-.01h-.13l-.01.01h-.01l-.01.01-.01.01h-.01l-.01.01-.01.01h-.01v.01l-.01.01-.01.01v.01l-.01.01-.01.01v.01l-.01.01v.13l.01.01v.01l.01.01.01.01v.01l.01.01.01.01v.01h.01l.01.01.01.01h.01l.01.01.01.01h.01l.01.01h.13l.01-.01h.01l.01-.01.01-.01h.01l.01-.01.01-.01h.01v-.01l.01-.01.01-.01v-.01l.01-.01.01-.01v-.01l.01-.01v-.05z" shape-rendering="crispEdges"/><path stroke="#000" d="M12.19 4v-.06l-.01-.01v-.01l-.01-.01-.01-.01v-.01l-.01-.01-.01-.01v-.01h-.01l-.01-.01-.01-.01h-.01l-.01-.01-.01-.01h-.01l-.01-.01h-.13l-.01.01h-.01l-.01.01-.01.01h-.01l-.01.01-.01.01h-.01v.01l-.01.01-.01.01v.01l-.01.01-.01.01v.01l-.01.01v.13l.01.01v.01l.01.01.01.01v.01l.01.01.01.01v.01h.01l.01.01.01.01h.01l.01.01.01.01h.01l.01.01h.13l.01-.01h.01l.01-.01.01-.01h.01l.01-.01.01-.01h.01v-.01l.01-.01.01-.01v-.01l.01-.01.01-.01v-.01l.01-.01V4Z"/></g><g fill="none" stroke="currentColor" stroke-linecap="round" stroke-linejoin="round" stroke-width=".1" color="#000"><path fill="#000" stroke="none" d="M16.19 4v-.06l-.01-.01v-.01l-.01-.01-.01-.01v-.01l-.01-.01-.01-.01v-.01h-.01l-.01-.01-.01-.01h-.01l-.01-.01-.01-.01h-.01l-.01-.01h-.13l-.01.01h-.01l-.01.01-.01.01h-.01l-.01.01-.01.01h-.01v.01l-.01.01-.01.01v.01l-.01.01-.01.01v.01l-.01.01v.13l.01.01v.01l.01.01.01.01v.01l.01.01.01.01v.01h.01l.01.01.01.01h.01l.01.01.01.01h.01l.01.01h.13l.01-.01h.01l.01-.01.01-.01h.01l.01-.01.01-.01h.01v-.01l.01-.01.01-.01v-.01l.01-.01.01-.01v-.01l.01-.01v-.05z" shape-rendering="crispEdges"/><path stroke="#000" d="M16.19 4v-.06l-.01-.01v-.01l-.01-.01-.01-.01v-.01l-.01-.01-.01-.01v-.01h-.01l-.01-.01-.01-.01h-.01l-.01-.01-.01-.01h-.01l-.01-.01h-.13l-.01.01h-.01l-.01.01-.01.01h-.01l-.01.01-.01.01h-.01v.01l-.01.01-.01.01v.01l-.01.01-.01.01v.01l-.01.01v.13l.01.01v.01l.01.01.01.01v.01l.01.01.01.01v.01h.01l.01.01.01.01h.01l.01.01.01.01h.01l.01.01h.13l.01-.01h.01l.01-.01.01-.01h.01l.01-.01.01-.01h.01v-.01l.01-.01.01-.01v-.01l.01-.01.01-.01v-.01l.01-.01V4Z"/></g><g fill="none" stroke="currentColor" stroke-linecap="round" stroke-linejoin="round" stroke-width=".1" color="#000"><path fill="#000" stroke="none" d="M11.19 5v-.06l-.01-.01v-.01l-.01-.01-.01-.01v-.01l-.01-.01-.01-.01v-.01h-.01l-.01-.01-.01-.01h-.01l-.01-.01-.01-.01h-.01l-.01-.01h-.13l-.01.01h-.01l-.01.01-.01.01h-.01l-.01.01-.01.01h-.01v.01l-.01.01-.01.01v.01l-.01.01-.01.01v.01l-.01.01v.13l.01.01v.01l.01.01.01.01v.01l.01.01.01.01v.01h.01l.01.01.01.01h.01l.01.01.01.01h.01l.01.01h.13l.01-.01h.01l.01-.01.01-.01h.01l.01-.01.01-.01h.01v-.01l.01-.01.01-.01v-.01l.01-.01.01-.01v-.01l.01-.01v-.05z" shape-rendering="crispEdges"/><path stroke="#000" d="M11.19 5v-.06l-.01-.01v-.01l-.01-.01-.01-.01v-.01l-.01-.01-.01-.01v-.01h-.01l-.01-.01-.01-.01h-.01l-.01-.01-.01-.01h-.01l-.01-.01h-.13l-.01.01h-.01l-.01.01-.01.01h-.01l-.01.01-.01.01h-.01v.01l-.01.01-.01.01v.01l-.01.01-.01.01v.01l-.01.01v.13l.01.01v.01l.01.01.01.01v.01l.01.01.01.01v.01h.01l.01.01.01.01h.01l.01.01.01.01h.01l.01.01h.13l.01-.01h.01l.01-.01.01-.01h.01l.01-.01.01-.01h.01v-.01l.01-.01.01-.01v-.01l.01-.01.01-.01v-.01l.01-.01V5Z"/></g><g fill="none" stroke="currentColor" stroke-linecap="round" stroke-linejoin="round" stroke-width=".1" color="#000"><path fill="#000" stroke="none" d="M13.19 5v-.06l-.01-.01v-.01l-.01-.01-.01-.01v-.01l-.01-.01-.01-.01v-.01h-.01l-.01-.01-.01-.01h-.01l-.01-.01-.01-.01h-.01l-.01-.01h-.13l-.01.01h-.01l-.01.01-.01.01h-.01l-.01.01-.01.01h-.01v.01l-.01.01-.01.01v.01l-.01.01-.01.01v.01l-.01.01v.13l.01.01v.01l.01.01.01.01v.01l.01.01.01.01v.01h.01l.01.01.01.01h.01l.01.01.01.01h.01l.01.01h.13l.01-.01h.01l.01-.01.01-.01h.01l.01-.01.01-.01h.01v-.01l.01-.01.01-.01v-.01l.01-.01.01-.01v-.01l.01-.01v-.05z" shape-rendering="crispEdges"/><path stroke="#000" d="M13.19 5v-.06l-.01-.01v-.01l-.01-.01-.01-.01v-.01l-.01-.01-.01-.01v-.01h-.01l-.01-.01-.01-.01h-.01l-.01-.01-.01-.01h-.01l-.01-.01h-.13l-.01.01h-.01l-.01.01-.01.01h-.01l-.01.01-.01.01h-.01v.01l-.01.01-.01.01v.01l-.01.01-.01.01v.01l-.01.01v.13l.01.01v.01l.01.01.01.01v.01l.01.01.01.01v.01h.01l.01.01.01.01h.01l.01.01.01.01h.01l.01.01h.13l.01-.01h.01l.01-.01.01-.01h.01l.01-.01.01-.01h.01v-.01l.01-.01.01-.01v-.01l.01-.01.01-.01v-.01l.01-.01V5Z"/></g><g fill="none" stroke="currentColor" stroke-linecap="round" stroke-linejoin="round" stroke-width=".1" color="#000"><path fill="#000" stroke="none" d="M15.19 5v-.06l-.01-.01v-.01l-.01-.01-.01-.01v-.01l-.01-.01-.01-.01v-.01h-.01l-.01-.01-.01-.01h-.01l-.01-.01-.01-.01h-.01l-.01-.01h-.13l-.01.01h-.01l-.01.01-.01.01h-.01l-.01.01-.01.01h-.01v.01l-.01.01-.01.01v.01l-.01.01-.01.01v.01l-.01.01v.13l.01.01v.01l.01.01.01.01v.01l.01.01.01.01v.01h.01l.01.01.01.01h.01l.01.01.01.01h.01l.01.01h.13l.01-.01h.01l.01-.01.01-.01h.01l.01-.01.01-.01h.01v-.01l.01-.01.01-.01v-.01l.01-.01.01-.01v-.01l.01-.01v-.05z" shape-rendering="crispEdges"/><path stroke="#000" d="M15.19 5v-.06l-.01-.01v-.01l-.01-.01-.01-.01v-.01l-.01-.01-.01-.01v-.01h-.01l-.01-.01-.01-.01h-.01l-.01-.01-.01-.01h-.01l-.01-.01h-.13l-.01.01h-.01l-.01.01-.01.01h-.01l-.01.01-.01.01h-.01v.01l-.01.01-.01.01v.01l-.01.01-.01.01v.01l-.01.01v.13l.01.01v.01l.01.01.01.01v.01l.01.01.01.01v.01h.01l.01.01.01.01h.01l.01.01.01.01h.01l.01.01h.13l.01-.01h.01l.01-.01.01-.01h.01l.01-.01.01-.01h.01v-.01l.01-.01.01-.01v-.01l.01-.01.01-.01v-.01l.01-.01V5Z"/></g><g fill="none" stroke="currentColor" stroke-linecap="round" stroke-linejoin="round" stroke-width=".1" color="#000"><path fill="#000" stroke="none" d="M17.19 5v-.06l-.01-.01v-.01l-.01-.01-.01-.01v-.01l-.01-.01-.01-.01v-.01h-.01l-.01-.01-.01-.01h-.01l-.01-.01-.01-.01h-.01l-.01-.01h-.13l-.01.01h-.01l-.01.01-.01.01h-.01l-.01.01-.01.01h-.01v.01l-.01.01-.01.01v.01l-.01.01-.01.01v.01l-.01.01v.13l.01.01v.01l.01.01.01.01v.01l.01.01.01.01v.01h.01l.01.01.01.01h.01l.01.01.01.01h.01l.01.01h.13l.01-.01h.01l.01-.01.01-.01h.01l.01-.01.01-.01h.01v-.01l.01-.01.01-.01v-.01l.01-.01.01-.01v-.01l.01-.01v-.05z" shape-rendering="crispEdges"/><path stroke="#000" d="M17.19 5v-.06l-.01-.01v-.01l-.01-.01-.01-.01v-.01l-.01-.01-.01-.01v-.01h-.01l-.01-.01-.01-.01h-.01l-.01-.01-.01-.01h-.01l-.01-.01h-.13l-.01.01h-.01l-.01.01-.01.01h-.01l-.01.01-.01.01h-.01v.01l-.01.01-.01.01v.01l-.01.01-.01.01v.01l-.01.01v.13l.01.01v.01l.01.01.01.01v.01l.01.01.01.01v.01h.01l.01.01.01.01h.01l.01.01.01.01h.01l.01.01h.13l.01-.01h.01l.01-.01.01-.01h.01l.01-.01.01-.01h.01v-.01l.01-.01.01-.01v-.01l.01-.01.01-.01v-.01l.01-.01V5Z"/></g><g fill="none" stroke="currentColor" stroke-linecap="round" stroke-linejoin="round" stroke-width=".1" color="#000"><path fill="#000" stroke="none" d="M10.69 6v-.06l-.01-.01v-.01l-.01-.01-.01-.01v-.01l-.01-.01-.01-.01v-.01h-.01l-.01-.01-.01-.01h-.01l-.01-.01-.01-.01h-.01l-.01-.01h-.13l-.01.01h-.01l-.01.01-.01.01h-.01l-.01.01-.01.01h-.01v.01l-.01.01-.01.01v.01l-.01.01-.01.01v.01l-.01.01v.13l.01.01v.01l.01.01.01.01v.01l.01.01.01.01v.01h.01l.01.01.01.01h.01l.01.01.01.01h.01l.01.01h.13l.01-.01h.01l.01-.01.01-.01h.01l.01-.01.01-.01h.01v-.01l.01-.01.01-.01v-.01l.01-.01.01-.01v-.01l.01-.01v-.05z" shape-rendering="crispEdges"/><path stroke="#000" d="M10.69 6v-.06l-.01-.01v-.01l-.01-.01-.01-.01v-.01l-.01-.01-.01-.01v-.01h-.01l-.01-.01-.01-.01h-.01l-.01-.01-.01-.01h-.01l-.01-.01h-.13l-.01.01h-.01l-.01.01-.01.01h-.01l-.01.01-.01.01h-.01v.01l-.01.01-.01.01v.01l-.01.01-.01.01v.01l-.01.01v.13l.01.01v.01l.01.01.01.01v.01l.01.01.01.01v.01h.01l.01.01.01.01h.01l.01.01.01.01h.01l.01.01h.13l.01-.01h.01l.01-.01.01-.01h.01l.01-.01.01-.01h.01v-.01l.01-.01.01-.01v-.01l.01-.01.01-.01v-.01l.01-.01V6Z"/></g><g fill="none" stroke="currentColor" stroke-linecap="round" stroke-linejoin="round" stroke-width=".1" color="#000"><path fill="#000" stroke="none" d="M11.69 6v-.06l-.01-.01v-.01l-.01-.01-.01-.01v-.01l-.01-.01-.01-.01v-.01h-.01l-.01-.01-.01-.01h-.01l-.01-.01-.01-.01h-.01l-.01-.01h-.13l-.01.01h-.01l-.01.01-.01.01h-.01l-.01.01-.01.01h-.01v.01l-.01.01-.01.01v.01l-.01.01-.01.01v.01l-.01.01v.13l.01.01v.01l.01.01.01.01v.01l.01.01.01.01v.01h.01l.01.01.01.01h.01l.01.01.01.01h.01l.01.01h.13l.01-.01h.01l.01-.01.01-.01h.01l.01-.01.01-.01h.01v-.01l.01-.01.01-.01v-.01l.01-.01.01-.01v-.01l.01-.01v-.05z" shape-rendering="crispEdges"/><path stroke="#000" d="M11.69 6v-.06l-.01-.01v-.01l-.01-.01-.01-.01v-.01l-.01-.01-.01-.01v-.01h-.01l-.01-.01-.01-.01h-.01l-.01-.01-.01-.01h-.01l-.01-.01h-.13l-.01.01h-.01l-.01.01-.01.01h-.01l-.01.01-.01.01h-.01v.01l-.01.01-.01.01v.01l-.01.01-.01.01v.01l-.01.01v.13l.01.01v.01l.01.01.01.01v.01l.01.01.01.01v.01h.01l.01.01.01.01h.01l.01.01.01.01h.01l.01.01h.13l.01-.01h.01l.01-.01.01-.01h.01l.01-.01.01-.01h.01v-.01l.01-.01.01-.01v-.01l.01-.01.01-.01v-.01l.01-.01V6Z"/></g><g fill="none" stroke="currentColor" stroke-linecap="round" stroke-linejoin="round" stroke-width=".1" color="#000"><path fill="#000" stroke="none" d="M12.69 6v-.06l-.01-.01v-.01l-.01-.01-.01-.01v-.01l-.01-.01-.01-.01v-.01h-.01l-.01-.01-.01-.01h-.01l-.01-.01-.01-.01h-.01l-.01-.01h-.13l-.01.01h-.01l-.01.01-.01.01h-.01l-.01.01-.01.01h-.01v.01l-.01.01-.01.01v.01l-.01.01-.01.01v.01l-.01.01v.13l.01.01v.01l.01.01.01.01v.01l.01.01.01.01v.01h.01l.01.01.01.01h.01l.01.01.01.01h.01l.01.01h.13l.01-.01h.01l.01-.01.01-.01h.01l.01-.01.01-.01h.01v-.01l.01-.01.01-.01v-.01l.01-.01.01-.01v-.01l.01-.01v-.05z" shape-rendering="crispEdges"/><path stroke="#000" d="M12.69 6v-.06l-.01-.01v-.01l-.01-.01-.01-.01v-.01l-.01-.01-.01-.01v-.01h-.01l-.01-.01-.01-.01h-.01l-.01-.01-.01-.01h-.01l-.01-.01h-.13l-.01.01h-.01l-.01.01-.01.01h-.01l-.01.01-.01.01h-.01v.01l-.01.01-.01.01v.01l-.01.01-.01.01v.01l-.01.01v.13l.01.01v.01l.01.01.01.01v.01l.01.01.01.01v.01h.01l.01.01.01.01h.01l.01.01.01.01h.01l.01.01h.13l.01-.01h.01l.01-.01.01-.01h.01l.01-.01.01-.01h.01v-.01l.01-.01.01-.01v-.01l.01-.01.01-.01v-.01l.01-.01V6Z"/></g><g fill="none" stroke="currentColor" stroke-linecap="round" stroke-linejoin="round" stroke-width=".1" color="#000"><path fill="#000" stroke="none" d="M13.69 6v-.06l-.01-.01v-.01l-.01-.01-.01-.01v-.01l-.01-.01-.01-.01v-.01h-.01l-.01-.01-.01-.01h-.01l-.01-.01-.01-.01h-.01l-.01-.01h-.13l-.01.01h-.01l-.01.01-.01.01h-.01l-.01.01-.01.01h-.01v.01l-.01.01-.01.01v.01l-.01.01-.01.01v.01l-.01.01v.13l.01.01v.01l.01.01.01.01v.01l.01.01.01.01v.01h.01l.01.01.01.01h.01l.01.01.01.01h.01l.01.01h.13l.01-.01h.01l.01-.01.01-.01h.01l.01-.01.01-.01h.01v-.01l.01-.01.01-.01v-.01l.01-.01.01-.01v-.01l.01-.01v-.05z" shape-rendering="crispEdges"/><path stroke="#000" d="M13.69 6v-.06l-.01-.01v-.01l-.01-.01-.01-.01v-.01l-.01-.01-.01-.01v-.01h-.01l-.01-.01-.01-.01h-.01l-.01-.01-.01-.01h-.01l-.01-.01h-.13l-.01.01h-.01l-.01.01-.01.01h-.01l-.01.01-.01.01h-.01v.01l-.01.01-.01.01v.01l-.01.01-.01.01v.01l-.01.01v.13l.01.01v.01l.01.01.01.01v.01l.01.01.01.01v.01h.01l.01.01.01.01h.01l.01.01.01.01h.01l.01.01h.13l.01-.01h.01l.01-.01.01-.01h.01l.01-.01.01-.01h.01v-.01l.01-.01.01-.01v-.01l.01-.01.01-.01v-.01l.01-.01V6Z"/></g><g fill="none" stroke="currentColor" stroke-linecap="round" stroke-linejoin="round" stroke-width=".1" color="#000"><path fill="#000" stroke="none" d="M14.69 6v-.06l-.01-.01v-.01l-.01-.01-.01-.01v-.01l-.01-.01-.01-.01v-.01h-.01l-.01-.01-.01-.01h-.01l-.01-.01-.01-.01h-.01l-.01-.01h-.13l-.01.01h-.01l-.01.01-.01.01h-.01l-.01.01-.01.01h-.01v.01l-.01.01-.01.01v.01l-.01.01-.01.01v.01l-.01.01v.13l.01.01v.01l.01.01.01.01v.01l.01.01.01.01v.01h.01l.01.01.01.01h.01l.01.01.01.01h.01l.01.01h.13l.01-.01h.01l.01-.01.01-.01h.01l.01-.01.01-.01h.01v-.01l.01-.01.01-.01v-.01l.01-.01.01-.01v-.01l.01-.01v-.05z" shape-rendering="crispEdges"/><path stroke="#000" d="M14.69 6v-.06l-.01-.01v-.01l-.01-.01-.01-.01v-.01l-.01-.01-.01-.01v-.01h-.01l-.01-.01-.01-.01h-.01l-.01-.01-.01-.01h-.01l-.01-.01h-.13l-.01.01h-.01l-.01.01-.01.01h-.01l-.01.01-.01.01h-.01v.01l-.01.01-.01.01v.01l-.01.01-.01.01v.01l-.01.01v.13l.01.01v.01l.01.01.01.01v.01l.01.01.01.01v.01h.01l.01.01.01.01h.01l.01.01.01.01h.01l.01.01h.13l.01-.01h.01l.01-.01.01-.01h.01l.01-.01.01-.01h.01v-.01l.01-.01.01-.01v-.01l.01-.01.01-.01v-.01l.01-.01V6Z"/></g><g fill="none" stroke="currentColor" stroke-linecap="round" stroke-linejoin="round" stroke-width=".1" color="#000"><path fill="#000" stroke="none" d="M15.69 6v-.06l-.01-.01v-.01l-.01-.01-.01-.01v-.01l-.01-.01-.01-.01v-.01h-.01l-.01-.01-.01-.01h-.01l-.01-.01-.01-.01h-.01l-.01-.01h-.13l-.01.01h-.01l-.01.01-.01.01h-.01l-.01.01-.01.01h-.01v.01l-.01.01-.01.01v.01l-.01.01-.01.01v.01l-.01.01v.13l.01.01v.01l.01.01.01.01v.01l.01.01.01.01v.01h.01l.01.01.01.01h.01l.01.01.01.01h.01l.01.01h.13l.01-.01h.01l.01-.01.01-.01h.01l.01-.01.01-.01h.01v-.01l.01-.01.01-.01v-.01l.01-.01.01-.01v-.01l.01-.01v-.05z" shape-rendering="crispEdges"/><path stroke="#000" d="M15.69 6v-.06l-.01-.01v-.01l-.01-.01-.01-.01v-.01l-.01-.01-.01-.01v-.01h-.01l-.01-.01-.01-.01h-.01l-.01-.01-.01-.01h-.01l-.01-.01h-.13l-.01.01h-.01l-.01.01-.01.01h-.01l-.01.01-.01.01h-.01v.01l-.01.01-.01.01v.01l-.01.01-.01.01v.01l-.01.01v.13l.01.01v.01l.01.01.01.01v.01l.01.01.01.01v.01h.01l.01.01.01.01h.01l.01.01.01.01h.01l.01.01h.13l.01-.01h.01l.01-.01.01-.01h.01l.01-.01.01-.01h.01v-.01l.01-.01.01-.01v-.01l.01-.01.01-.01v-.01l.01-.01V6Z"/></g><g fill="none" stroke="currentColor" stroke-linecap="round" stroke-linejoin="round" stroke-width=".1" color="#000"><path fill="#000" stroke="none" d="M16.69 6v-.06l-.01-.01v-.01l-.01-.01-.01-.01v-.01l-.01-.01-.01-.01v-.01h-.01l-.01-.01-.01-.01h-.01l-.01-.01-.01-.01h-.01l-.01-.01h-.13l-.01.01h-.01l-.01.01-.01.01h-.01l-.01.01-.01.01h-.01v.01l-.01.01-.01.01v.01l-.01.01-.01.01v.01l-.01.01v.13l.01.01v.01l.01.01.01.01v.01l.01.01.01.01v.01h.01l.01.01.01.01h.01l.01.01.01.01h.01l.01.01h.13l.01-.01h.01l.01-.01.01-.01h.01l.01-.01.01-.01h.01v-.01l.01-.01.01-.01v-.01l.01-.01.01-.01v-.01l.01-.01v-.05z" shape-rendering="crispEdges"/><path stroke="#000" d="M16.69 6v-.06l-.01-.01v-.01l-.01-.01-.01-.01v-.01l-.01-.01-.01-.01v-.01h-.01l-.01-.01-.01-.01h-.01l-.01-.01-.01-.01h-.01l-.01-.01h-.13l-.01.01h-.01l-.01.01-.01.01h-.01l-.01.01-.01.01h-.01v.01l-.01.01-.01.01v.01l-.01.01-.01.01v.01l-.01.01v.13l.01.01v.01l.01.01.01.01v.01l.01.01.01.01v.01h.01l.01.01.01.01h.01l.01.01.01.01h.01l.01.01h.13l.01-.01h.01l.01-.01.01-.01h.01l.01-.01.01-.01h.01v-.01l.01-.01.01-.01v-.01l.01-.01.01-.01v-.01l.01-.01V6Z"/></g><g fill="none" stroke="currentColor" stroke-linecap="round" stroke-linejoin="round" stroke-width=".1" color="#000"><path fill="#000" stroke="none" d="M17.69 6v-.06l-.01-.01v-.01l-.01-.01-.01-.01v-.01l-.01-.01-.01-.01v-.01h-.01l-.01-.01-.01-.01h-.01l-.01-.01-.01-.01h-.01l-.01-.01h-.13l-.01.01h-.01l-.01.01-.01.01h-.01l-.01.01-.01.01h-.01v.01l-.01.01-.01.01v.01l-.01.01-.01.01v.01l-.01.01v.13l.01.01v.01l.01.01.01.01v.01l.01.01.01.01v.01h.01l.01.01.01.01h.01l.01.01.01.01h.01l.01.01h.13l.01-.01h.01l.01-.01.01-.01h.01l.01-.01.01-.01h.01v-.01l.01-.01.01-.01v-.01l.01-.01.01-.01v-.01l.01-.01v-.05z" shape-rendering="crispEdges"/><path stroke="#000" d="M17.69 6v-.06l-.01-.01v-.01l-.01-.01-.01-.01v-.01l-.01-.01-.01-.01v-.01h-.01l-.01-.01-.01-.01h-.01l-.01-.01-.01-.01h-.01l-.01-.01h-.13l-.01.01h-.01l-.01.01-.01.01h-.01l-.01.01-.01.01h-.01v.01l-.01.01-.01.01v.01l-.01.01-.01.01v.01l-.01.01v.13l.01.01v.01l.01.01.01.01v.01l.01.01.01.01v.01h.01l.01.01.01.01h.01l.01.01.01.01h.01l.01.01h.13l.01-.01h.01l.01-.01.01-.01h.01l.01-.01.01-.01h.01v-.01l.01-.01.01-.01v-.01l.01-.01.01-.01v-.01l.01-.01V6Z"/></g><g fill="none" stroke="currentColor" stroke-linecap="round" stroke-linejoin="round" stroke-width=".1" color="#000"><path fill="#000" stroke="none" d="M28.18 3.01v-.06l-.01-.01v-.01l-.01-.01-.01-.01V2.9l-.01-.01-.01-.01v-.01h-.01l-.01-.01-.01-.01h-.01l-.01-.01-.01-.01h-.01l-.01-.01h-.13l-.01.01h-.01l-.01.01-.01.01h-.01l-.01.01-.01.01h-.01v.01l-.01.01-.01.01v.01l-.01.01-.01.01v.01l-.01.01v.13l.01.01v.01l.01.01.01.01v.01l.01.01.01.01v.01h.01l.01.01.01.01h.01l.01.01.01.01h.01l.01.01h.13l.01-.01h.01l.01-.01.01-.01h.01l.01-.01.01-.01h.01v-.01l.01-.01.01-.01v-.01l.01-.01.01-.01v-.01l.01-.01v-.05z" shape-rendering="crispEdges"/><path stroke="#000" d="M28.18 3.01v-.06l-.01-.01v-.01l-.01-.01-.01-.01V2.9l-.01-.01-.01-.01v-.01h-.01l-.01-.01-.01-.01h-.01l-.01-.01-.01-.01h-.01l-.01-.01h-.13l-.01.01h-.01l-.01.01-.01.01h-.01l-.01.01-.01.01h-.01v.01l-.01.01-.01.01v.01l-.01.01-.01.01v.01l-.01.01v.13l.01.01v.01l.01.01.01.01v.01l.01.01.01.01v.01h.01l.01.01.01.01h.01l.01.01.01.01h.01l.01.01h.13l.01-.01h.01l.01-.01.01-.01h.01l.01-.01.01-.01h.01v-.01l.01-.01.01-.01v-.01l.01-.01.01-.01v-.01l.01-.01v-.07Z"/></g><g fill="none" stroke="currentColor" stroke-linecap="round" stroke-linejoin="round" stroke-width=".1" color="#000"><path fill="#000" stroke="none" d="M24.18 4v-.06l-.01-.01v-.01l-.01-.01-.01-.01v-.01l-.01-.01-.01-.01v-.01h-.01l-.01-.01-.01-.01h-.01l-.01-.01-.01-.01h-.01l-.01-.01h-.13l-.01.01h-.01l-.01.01-.01.01h-.01l-.01.01-.01.01h-.01v.01l-.01.01-.01.01v.01l-.01.01-.01.01v.01l-.01.01v.13l.01.01v.01l.01.01.01.01v.01l.01.01.01.01v.01h.01l.01.01.01.01h.01l.01.01.01.01h.01l.01.01h.13l.01-.01h.01l.01-.01.01-.01h.01l.01-.01.01-.01h.01v-.01l.01-.01.01-.01v-.01l.01-.01.01-.01v-.01l.01-.01v-.05z" shape-rendering="crispEdges"/><path stroke="#000" d="M24.18 4v-.06l-.01-.01v-.01l-.01-.01-.01-.01v-.01l-.01-.01-.01-.01v-.01h-.01l-.01-.01-.01-.01h-.01l-.01-.01-.01-.01h-.01l-.01-.01h-.13l-.01.01h-.01l-.01.01-.01.01h-.01l-.01.01-.01.01h-.01v.01l-.01.01-.01.01v.01l-.01.01-.01.01v.01l-.01.01v.13l.01.01v.01l.01.01.01.01v.01l.01.01.01.01v.01h.01l.01.01.01.01h.01l.01.01.01.01h.01l.01.01h.13l.01-.01h.01l.01-.01.01-.01h.01l.01-.01.01-.01h.01v-.01l.01-.01.01-.01v-.01l.01-.01.01-.01v-.01l.01-.01V4Z"/></g><g fill="none" stroke="currentColor" stroke-linecap="round" stroke-linejoin="round" stroke-width=".1" color="#000"><path fill="#000" stroke="none" d="M32.18 4v-.06l-.01-.01v-.01l-.01-.01-.01-.01v-.01l-.01-.01-.01-.01v-.01h-.01l-.01-.01-.01-.01h-.01l-.01-.01-.01-.01h-.01l-.01-.01h-.13l-.01.01h-.01l-.01.01-.01.01h-.01l-.01.01-.01.01h-.01v.01l-.01.01-.01.01v.01l-.01.01-.01.01v.01l-.01.01v.13l.01.01v.01l.01.01.01.01v.01l.01.01.01.01v.01h.01l.01.01.01.01h.01l.01.01.01.01h.01l.01.01h.13l.01-.01h.01l.01-.01.01-.01h.01l.01-.01.01-.01h.01v-.01l.01-.01.01-.01v-.01l.01-.01.01-.01v-.01l.01-.01v-.05z" shape-rendering="crispEdges"/><path stroke="#000" d="M32.18 4v-.06l-.01-.01v-.01l-.01-.01-.01-.01v-.01l-.01-.01-.01-.01v-.01h-.01l-.01-.01-.01-.01h-.01l-.01-.01-.01-.01h-.01l-.01-.01h-.13l-.01.01h-.01l-.01.01-.01.01h-.01l-.01.01-.01.01h-.01v.01l-.01.01-.01.01v.01l-.01.01-.01.01v.01l-.01.01v.13l.01.01v.01l.01.01.01.01v.01l.01.01.01.01v.01h.01l.01.01.01.01h.01l.01.01.01.01h.01l.01.01h.13l.01-.01h.01l.01-.01.01-.01h.01l.01-.01.01-.01h.01v-.01l.01-.01.01-.01v-.01l.01-.01.01-.01v-.01l.01-.01V4Z"/></g><g fill="none" stroke="currentColor" stroke-linecap="round" stroke-linejoin="round" stroke-width=".1" color="#000"><path fill="#000" stroke="none" d="M22.18 5v-.06l-.01-.01v-.01l-.01-.01-.01-.01v-.01l-.01-.01-.01-.01v-.01h-.01l-.01-.01-.01-.01h-.01l-.01-.01-.01-.01h-.01l-.01-.01h-.13l-.01.01h-.01l-.01.01-.01.01h-.01l-.01.01-.01.01h-.01v.01l-.01.01-.01.01v.01l-.01.01-.01.01v.01l-.01.01v.13l.01.01v.01l.01.01.01.01v.01l.01.01.01.01v.01h.01l.01.01.01.01h.01l.01.01.01.01h.01l.01.01h.13l.01-.01h.01l.01-.01.01-.01h.01l.01-.01.01-.01h.01v-.01l.01-.01.01-.01v-.01l.01-.01.01-.01v-.01l.01-.01v-.05z" shape-rendering="crispEdges"/><path stroke="#000" d="M22.18 5v-.06l-.01-.01v-.01l-.01-.01-.01-.01v-.01l-.01-.01-.01-.01v-.01h-.01l-.01-.01-.01-.01h-.01l-.01-.01-.01-.01h-.01l-.01-.01h-.13l-.01.01h-.01l-.01.01-.01.01h-.01l-.01.01-.01.01h-.01v.01l-.01.01-.01.01v.01l-.01.01-.01.01v.01l-.01.01v.13l.01.01v.01l.01.01.01.01v.01l.01.01.01.01v.01h.01l.01.01.01.01h.01l.01.01.01.01h.01l.01.01h.13l.01-.01h.01l.01-.01.01-.01h.01l.01-.01.01-.01h.01v-.01l.01-.01.01-.01v-.01l.01-.01.01-.01v-.01l.01-.01V5Z"/></g><g fill="none" stroke="currentColor" stroke-linecap="round" stroke-linejoin="round" stroke-width=".1" color="#000"><path fill="#000" stroke="none" d="M26.18 5v-.06l-.01-.01v-.01l-.01-.01-.01-.01v-.01l-.01-.01-.01-.01v-.01h-.01l-.01-.01-.01-.01h-.01l-.01-.01-.01-.01h-.01l-.01-.01h-.13l-.01.01h-.01l-.01.01-.01.01h-.01l-.01.01-.01.01h-.01v.01l-.01.01-.01.01v.01l-.01.01-.01.01v.01l-.01.01v.13l.01.01v.01l.01.01.01.01v.01l.01.01.01.01v.01h.01l.01.01.01.01h.01l.01.01.01.01h.01l.01.01h.13l.01-.01h.01l.01-.01.01-.01h.01l.01-.01.01-.01h.01v-.01l.01-.01.01-.01v-.01l.01-.01.01-.01v-.01l.01-.01v-.05z" shape-rendering="crispEdges"/><path stroke="#000" d="M26.18 5v-.06l-.01-.01v-.01l-.01-.01-.01-.01v-.01l-.01-.01-.01-.01v-.01h-.01l-.01-.01-.01-.01h-.01l-.01-.01-.01-.01h-.01l-.01-.01h-.13l-.01.01h-.01l-.01.01-.01.01h-.01l-.01.01-.01.01h-.01v.01l-.01.01-.01.01v.01l-.01.01-.01.01v.01l-.01.01v.13l.01.01v.01l.01.01.01.01v.01l.01.01.01.01v.01h.01l.01.01.01.01h.01l.01.01.01.01h.01l.01.01h.13l.01-.01h.01l.01-.01.01-.01h.01l.01-.01.01-.01h.01v-.01l.01-.01.01-.01v-.01l.01-.01.01-.01v-.01l.01-.01V5Z"/></g><g fill="none" stroke="currentColor" stroke-linecap="round" stroke-linejoin="round" stroke-width=".1" color="#000"><path fill="#000" stroke="none" d="M30.18 5v-.06l-.01-.01v-.01l-.01-.01-.01-.01v-.01l-.01-.01-.01-.01v-.01h-.01l-.01-.01-.01-.01h-.01l-.01-.01-.01-.01h-.01l-.01-.01h-.13l-.01.01h-.01l-.01.01-.01.01h-.01l-.01.01-.01.01h-.01v.01l-.01.01-.01.01v.01l-.01.01-.01.01v.01l-.01.01v.13l.01.01v.01l.01.01.01.01v.01l.01.01.01.01v.01h.01l.01.01.01.01h.01l.01.01.01.01h.01l.01.01h.13l.01-.01h.01l.01-.01.01-.01h.01l.01-.01.01-.01h.01v-.01l.01-.01.01-.01v-.01l.01-.01.01-.01v-.01l.01-.01v-.05z" shape-rendering="crispEdges"/><path stroke="#000" d="M30.18 5v-.06l-.01-.01v-.01l-.01-.01-.01-.01v-.01l-.01-.01-.01-.01v-.01h-.01l-.01-.01-.01-.01h-.01l-.01-.01-.01-.01h-.01l-.01-.01h-.13l-.01.01h-.01l-.01.01-.01.01h-.01l-.01.01-.01.01h-.01v.01l-.01.01-.01.01v.01l-.01.01-.01.01v.01l-.01.01v.13l.01.01v.01l.01.01.01.01v.01l.01.01.01.01v.01h.01l.01.01.01.01h.01l.01.01.01.01h.01l.01.01h.13l.01-.01h.01l.01-.01.01-.01h.01l.01-.01.01-.01h.01v-.01l.01-.01.01-.01v-.01l.01-.01.01-.01v-.01l.01-.01V5Z"/></g><g fill="none" stroke="currentColor" stroke-linecap="round" stroke-linejoin="round" stroke-width=".1" color="#000"><path fill="#000" stroke="none" d="M34.18 5v-.06l-.01-.01v-.01l-.01-.01-.01-.01v-.01l-.01-.01-.01-.01v-.01h-.01l-.01-.01-.01-.01h-.01l-.01-.01-.01-.01h-.01l-.01-.01h-.13l-.01.01h-.01l-.01.01-.01.01h-.01l-.01.01-.01.01h-.01v.01l-.01.01-.01.01v.01l-.01.01-.01.01v.01l-.01.01v.13l.01.01v.01l.01.01.01.01v.01l.01.01.01.01v.01h.01l.01.01.01.01h.01l.01.01.01.01h.01l.01.01h.13l.01-.01h.01l.01-.01.01-.01h.01l.01-.01.01-.01h.01v-.01l.01-.01.01-.01v-.01l.01-.01.01-.01v-.01l.01-.01v-.05z" shape-rendering="crispEdges"/><path stroke="#000" d="M34.18 5v-.06l-.01-.01v-.01l-.01-.01-.01-.01v-.01l-.01-.01-.01-.01v-.01h-.01l-.01-.01-.01-.01h-.01l-.01-.01-.01-.01h-.01l-.01-.01h-.13l-.01.01h-.01l-.01.01-.01.01h-.01l-.01.01-.01.01h-.01v.01l-.01.01-.01.01v.01l-.01.01-.01.01v.01l-.01.01v.13l.01.01v.01l.01.01.01.01v.01l.01.01.01.01v.01h.01l.01.01.01.01h.01l.01.01.01.01h.01l.01.01h.13l.01-.01h.01l.01-.01.01-.01h.01l.01-.01.01-.01h.01v-.01l.01-.01.01-.01v-.01l.01-.01.01-.01v-.01l.01-.01V5Z"/></g><g fill="none" stroke="currentColor" stroke-linecap="round" stroke-linejoin="round" stroke-width=".1" color="#000"><path fill="#000" stroke="none" d="M21.18 6v-.06l-.01-.01v-.01l-.01-.01-.01-.01v-.01l-.01-.01-.01-.01v-.01h-.01l-.01-.01-.01-.01h-.01l-.01-.01-.01-.01h-.01l-.01-.01h-.13l-.01.01h-.01l-.01.01-.01.01h-.01l-.01.01-.01.01h-.01v.01l-.01.01-.01.01v.01l-.01.01-.01.01v.01l-.01.01v.13l.01.01v.01l.01.01.01.01v.01l.01.01.01.01v.01h.01l.01.01.01.01h.01l.01.01.01.01h.01l.01.01h.13l.01-.01h.01l.01-.01.01-.01h.01l.01-.01.01-.01h.01v-.01l.01-.01.01-.01v-.01l.01-.01.01-.01v-.01l.01-.01v-.05z" shape-rendering="crispEdges"/><path stroke="#000" d="M21.18 6v-.06l-.01-.01v-.01l-.01-.01-.01-.01v-.01l-.01-.01-.01-.01v-.01h-.01l-.01-.01-.01-.01h-.01l-.01-.01-.01-.01h-.01l-.01-.01h-.13l-.01.01h-.01l-.01.01-.01.01h-.01l-.01.01-.01.01h-.01v.01l-.01.01-.01.01v.01l-.01.01-.01.01v.01l-.01.01v.13l.01.01v.01l.01.01.01.01v.01l.01.01.01.01v.01h.01l.01.01.01.01h.01l.01.01.01.01h.01l.01.01h.13l.01-.01h.01l.01-.01.01-.01h.01l.01-.01.01-.01h.01v-.01l.01-.01.01-.01v-.01l.01-.01.01-.01v-.01l.01-.01V6Z"/></g><g fill="none" stroke="currentColor" stroke-linecap="round" stroke-linejoin="round" stroke-width=".1" color="#000"><path fill="#000" stroke="none" d="M23.18 6v-.06l-.01-.01v-.01l-.01-.01-.01-.01v-.01l-.01-.01-.01-.01v-.01h-.01l-.01-.01-.01-.01h-.01l-.01-.01-.01-.01h-.01l-.01-.01h-.13l-.01.01h-.01l-.01.01-.01.01h-.01l-.01.01-.01.01h-.01v.01l-.01.01-.01.01v.01l-.01.01-.01.01v.01l-.01.01v.13l.01.01v.01l.01.01.01.01v.01l.01.01.01.01v.01h.01l.01.01.01.01h.01l.01.01.01.01h.01l.01.01h.13l.01-.01h.01l.01-.01.01-.01h.01l.01-.01.01-.01h.01v-.01l.01-.01.01-.01v-.01l.01-.01.01-.01v-.01l.01-.01v-.05z" shape-rendering="crispEdges"/><path stroke="#000" d="M23.18 6v-.06l-.01-.01v-.01l-.01-.01-.01-.01v-.01l-.01-.01-.01-.01v-.01h-.01l-.01-.01-.01-.01h-.01l-.01-.01-.01-.01h-.01l-.01-.01h-.13l-.01.01h-.01l-.01.01-.01.01h-.01l-.01.01-.01.01h-.01v.01l-.01.01-.01.01v.01l-.01.01-.01.01v.01l-.01.01v.13l.01.01v.01l.01.01.01.01v.01l.01.01.01.01v.01h.01l.01.01.01.01h.01l.01.01.01.01h.01l.01.01h.13l.01-.01h.01l.01-.01.01-.01h.01l.01-.01.01-.01h.01v-.01l.01-.01.01-.01v-.01l.01-.01.01-.01v-.01l.01-.01V6Z"/></g><g fill="none" stroke="currentColor" stroke-linecap="round" stroke-linejoin="round" stroke-width=".1" color="#000"><path fill="#000" stroke="none" d="M25.18 6v-.06l-.01-.01v-.01l-.01-.01-.01-.01v-.01l-.01-.01-.01-.01v-.01h-.01l-.01-.01-.01-.01h-.01l-.01-.01-.01-.01h-.01l-.01-.01h-.13l-.01.01h-.01l-.01.01-.01.01h-.01l-.01.01-.01.01h-.01v.01l-.01.01-.01.01v.01l-.01.01-.01.01v.01l-.01.01v.13l.01.01v.01l.01.01.01.01v.01l.01.01.01.01v.01h.01l.01.01.01.01h.01l.01.01.01.01h.01l.01.01h.13l.01-.01h.01l.01-.01.01-.01h.01l.01-.01.01-.01h.01v-.01l.01-.01.01-.01v-.01l.01-.01.01-.01v-.01l.01-.01v-.05z" shape-rendering="crispEdges"/><path stroke="#000" d="M25.18 6v-.06l-.01-.01v-.01l-.01-.01-.01-.01v-.01l-.01-.01-.01-.01v-.01h-.01l-.01-.01-.01-.01h-.01l-.01-.01-.01-.01h-.01l-.01-.01h-.13l-.01.01h-.01l-.01.01-.01.01h-.01l-.01.01-.01.01h-.01v.01l-.01.01-.01.01v.01l-.01.01-.01.01v.01l-.01.01v.13l.01.01v.01l.01.01.01.01v.01l.01.01.01.01v.01h.01l.01.01.01.01h.01l.01.01.01.01h.01l.01.01h.13l.01-.01h.01l.01-.01.01-.01h.01l.01-.01.01-.01h.01v-.01l.01-.01.01-.01v-.01l.01-.01.01-.01v-.01l.01-.01V6Z"/></g><g fill="none" stroke="currentColor" stroke-linecap="round" stroke-linejoin="round" stroke-width=".1" color="#000"><path fill="#000" stroke="none" d="M27.18 6v-.06l-.01-.01v-.01l-.01-.01-.01-.01v-.01l-.01-.01-.01-.01v-.01h-.01l-.01-.01-.01-.01h-.01l-.01-.01-.01-.01h-.01l-.01-.01h-.13l-.01.01h-.01l-.01.01-.01.01h-.01l-.01.01-.01.01h-.01v.01l-.01.01-.01.01v.01l-.01.01-.01.01v.01l-.01.01v.13l.01.01v.01l.01.01.01.01v.01l.01.01.01.01v.01h.01l.01.01.01.01h.01l.01.01.01.01h.01l.01.01h.13l.01-.01h.01l.01-.01.01-.01h.01l.01-.01.01-.01h.01v-.01l.01-.01.01-.01v-.01l.01-.01.01-.01v-.01l.01-.01v-.05z" shape-rendering="crispEdges"/><path stroke="#000" d="M27.18 6v-.06l-.01-.01v-.01l-.01-.01-.01-.01v-.01l-.01-.01-.01-.01v-.01h-.01l-.01-.01-.01-.01h-.01l-.01-.01-.01-.01h-.01l-.01-.01h-.13l-.01.01h-.01l-.01.01-.01.01h-.01l-.01.01-.01.01h-.01v.01l-.01.01-.01.01v.01l-.01.01-.01.01v.01l-.01.01v.13l.01.01v.01l.01.01.01.01v.01l.01.01.01.01v.01h.01l.01.01.01.01h.01l.01.01.01.01h.01l.01.01h.13l.01-.01h.01l.01-.01.01-.01h.01l.01-.01.01-.01h.01v-.01l.01-.01.01-.01v-.01l.01-.01.01-.01v-.01l.01-.01V6Z"/></g><g fill="none" stroke="currentColor" stroke-linecap="round" stroke-linejoin="round" stroke-width=".1" color="#000"><path fill="#000" stroke="none" d="M29.18 6v-.06l-.01-.01v-.01l-.01-.01-.01-.01v-.01l-.01-.01-.01-.01v-.01h-.01l-.01-.01-.01-.01h-.01l-.01-.01-.01-.01h-.01l-.01-.01h-.13l-.01.01h-.01l-.01.01-.01.01h-.01l-.01.01-.01.01h-.01v.01l-.01.01-.01.01v.01l-.01.01-.01.01v.01l-.01.01v.13l.01.01v.01l.01.01.01.01v.01l.01.01.01.01v.01h.01l.01.01.01.01h.01l.01.01.01.01h.01l.01.01h.13l.01-.01h.01l.01-.01.01-.01h.01l.01-.01.01-.01h.01v-.01l.01-.01.01-.01v-.01l.01-.01.01-.01v-.01l.01-.01v-.05z" shape-rendering="crispEdges"/><path stroke="#000" d="M29.18 6v-.06l-.01-.01v-.01l-.01-.01-.01-.01v-.01l-.01-.01-.01-.01v-.01h-.01l-.01-.01-.01-.01h-.01l-.01-.01-.01-.01h-.01l-.01-.01h-.13l-.01.01h-.01l-.01.01-.01.01h-.01l-.01.01-.01.01h-.01v.01l-.01.01-.01.01v.01l-.01.01-.01.01v.01l-.01.01v.13l.01.01v.01l.01.01.01.01v.01l.01.01.01.01v.01h.01l.01.01.01.01h.01l.01.01.01.01h.01l.01.01h.13l.01-.01h.01l.01-.01.01-.01h.01l.01-.01.01-.01h.01v-.01l.01-.01.01-.01v-.01l.01-.01.01-.01v-.01l.01-.01V6Z"/></g><g fill="none" stroke="currentColor" stroke-linecap="round" stroke-linejoin="round" stroke-width=".1" color="#000"><path fill="#000" stroke="none" d="M31.18 6v-.06l-.01-.01v-.01l-.01-.01-.01-.01v-.01l-.01-.01-.01-.01v-.01h-.01l-.01-.01-.01-.01h-.01l-.01-.01-.01-.01h-.01l-.01-.01h-.13l-.01.01h-.01l-.01.01-.01.01h-.01l-.01.01-.01.01h-.01v.01l-.01.01-.01.01v.01l-.01.01-.01.01v.01l-.01.01v.13l.01.01v.01l.01.01.01.01v.01l.01.01.01.01v.01h.01l.01.01.01.01h.01l.01.01.01.01h.01l.01.01h.13l.01-.01h.01l.01-.01.01-.01h.01l.01-.01.01-.01h.01v-.01l.01-.01.01-.01v-.01l.01-.01.01-.01v-.01l.01-.01v-.05z" shape-rendering="crispEdges"/><path stroke="#000" d="M31.18 6v-.06l-.01-.01v-.01l-.01-.01-.01-.01v-.01l-.01-.01-.01-.01v-.01h-.01l-.01-.01-.01-.01h-.01l-.01-.01-.01-.01h-.01l-.01-.01h-.13l-.01.01h-.01l-.01.01-.01.01h-.01l-.01.01-.01.01h-.01v.01l-.01.01-.01.01v.01l-.01.01-.01.01v.01l-.01.01v.13l.01.01v.01l.01.01.01.01v.01l.01.01.01.01v.01h.01l.01.01.01.01h.01l.01.01.01.01h.01l.01.01h.13l.01-.01h.01l.01-.01.01-.01h.01l.01-.01.01-.01h.01v-.01l.01-.01.01-.01v-.01l.01-.01.01-.01v-.01l.01-.01V6Z"/></g><g fill="none" stroke="currentColor" stroke-linecap="round" stroke-linejoin="round" stroke-width=".1" color="#000"><path fill="#000" stroke="none" d="M33.18 6v-.06l-.01-.01v-.01l-.01-.01-.01-.01v-.01l-.01-.01-.01-.01v-.01h-.01l-.01-.01-.01-.01h-.01l-.01-.01-.01-.01h-.01l-.01-.01h-.13l-.01.01h-.01l-.01.01-.01.01h-.01l-.01.01-.01.01h-.01v.01l-.01.01-.01.01v.01l-.01.01-.01.01v.01l-.01.01v.13l.01.01v.01l.01.01.01.01v.01l.01.01.01.01v.01h.01l.01.01.01.01h.01l.01.01.01.01h.01l.01.01h.13l.01-.01h.01l.01-.01.01-.01h.01l.01-.01.01-.01h.01v-.01l.01-.01.01-.01v-.01l.01-.01.01-.01v-.01l.01-.01v-.05z" shape-rendering="crispEdges"/><path stroke="#000" d="M33.18 6v-.06l-.01-.01v-.01l-.01-.01-.01-.01v-.01l-.01-.01-.01-.01v-.01h-.01l-.01-.01-.01-.01h-.01l-.01-.01-.01-.01h-.01l-.01-.01h-.13l-.01.01h-.01l-.01.01-.01.01h-.01l-.01.01-.01.01h-.01v.01l-.01.01-.01.01v.01l-.01.01-.01.01v.01l-.01.01v.13l.01.01v.01l.01.01.01.01v.01l.01.01.01.01v.01h.01l.01.01.01.01h.01l.01.01.01.01h.01l.01.01h.13l.01-.01h.01l.01-.01.01-.01h.01l.01-.01.01-.01h.01v-.01l.01-.01.01-.01v-.01l.01-.01.01-.01v-.01l.01-.01V6Z"/></g><g fill="none" stroke="currentColor" stroke-linecap="round" stroke-linejoin="round" stroke-width=".1" color="#000"><path fill="#000" stroke="none" d="M35.18 6v-.06l-.01-.01v-.01l-.01-.01-.01-.01v-.01l-.01-.01-.01-.01v-.01h-.01l-.01-.01-.01-.01h-.01l-.01-.01-.01-.01h-.01l-.01-.01h-.13l-.01.01h-.01l-.01.01-.01.01h-.01l-.01.01-.01.01h-.01v.01l-.01.01-.01.01v.01l-.01.01-.01.01v.01l-.01.01v.13l.01.01v.01l.01.01.01.01v.01l.01.01.01.01v.01h.01l.01.01.01.01h.01l.01.01.01.01h.01l.01.01h.13l.01-.01h.01l.01-.01.01-.01h.01l.01-.01.01-.01h.01v-.01l.01-.01.01-.01v-.01l.01-.01.01-.01v-.01l.01-.01v-.05z" shape-rendering="crispEdges"/><path stroke="#000" d="M35.18 6v-.06l-.01-.01v-.01l-.01-.01-.01-.01v-.01l-.01-.01-.01-.01v-.01h-.01l-.01-.01-.01-.01h-.01l-.01-.01-.01-.01h-.01l-.01-.01h-.13l-.01.01h-.01l-.01.01-.01.01h-.01l-.01.01-.01.01h-.01v.01l-.01.01-.01.01v.01l-.01.01-.01.01v.01l-.01.01v.13l.01.01v.01l.01.01.01.01v.01l.01.01.01.01v.01h.01l.01.01.01.01h.01l.01.01.01.01h.01l.01.01h.13l.01-.01h.01l.01-.01.01-.01h.01l.01-.01.01-.01h.01v-.01l.01-.01.01-.01v-.01l.01-.01.01-.01v-.01l.01-.01V6Z"/></g><g fill="none" stroke="currentColor" stroke-linecap="round" stroke-linejoin="round" stroke-width=".1" color="#000"><path fill="#000" stroke="none" d="M20.68 7v-.06l-.01-.01v-.01l-.01-.01-.01-.01v-.01l-.01-.01-.01-.01v-.01h-.01l-.01-.01-.01-.01h-.01l-.01-.01-.01-.01h-.01l-.01-.01h-.13l-.01.01h-.01l-.01.01-.01.01h-.01l-.01.01-.01.01h-.01v.01l-.01.01-.01.01v.01l-.01.01-.01.01v.01l-.01.01v.13l.01.01v.01l.01.01.01.01v.01l.01.01.01.01v.01h.01l.01.01.01.01h.01l.01.01.01.01h.01l.01.01h.13l.01-.01h.01l.01-.01.01-.01h.01l.01-.01.01-.01h.01v-.01l.01-.01.01-.01v-.01l.01-.01.01-.01v-.01l.01-.01v-.05z" shape-rendering="crispEdges"/><path stroke="#000" d="M20.68 7v-.06l-.01-.01v-.01l-.01-.01-.01-.01v-.01l-.01-.01-.01-.01v-.01h-.01l-.01-.01-.01-.01h-.01l-.01-.01-.01-.01h-.01l-.01-.01h-.13l-.01.01h-.01l-.01.01-.01.01h-.01l-.01.01-.01.01h-.01v.01l-.01.01-.01.01v.01l-.01.01-.01.01v.01l-.01.01v.13l.01.01v.01l.01.01.01.01v.01l.01.01.01.01v.01h.01l.01.01.01.01h.01l.01.01.01.01h.01l.01.01h.13l.01-.01h.01l.01-.01.01-.01h.01l.01-.01.01-.01h.01v-.01l.01-.01.01-.01v-.01l.01-.01.01-.01v-.01l.01-.01V7Z"/></g><g fill="none" stroke="currentColor" stroke-linecap="round" stroke-linejoin="round" stroke-width=".1" color="#000"><path fill="#000" stroke="none" d="M21.68 7v-.06l-.01-.01v-.01l-.01-.01-.01-.01v-.01l-.01-.01-.01-.01v-.01h-.01l-.01-.01-.01-.01h-.01l-.01-.01-.01-.01h-.01l-.01-.01h-.13l-.01.01h-.01l-.01.01-.01.01h-.01l-.01.01-.01.01h-.01v.01l-.01.01-.01.01v.01l-.01.01-.01.01v.01l-.01.01v.13l.01.01v.01l.01.01.01.01v.01l.01.01.01.01v.01h.01l.01.01.01.01h.01l.01.01.01.01h.01l.01.01h.13l.01-.01h.01l.01-.01.01-.01h.01l.01-.01.01-.01h.01v-.01l.01-.01.01-.01v-.01l.01-.01.01-.01v-.01l.01-.01v-.05z" shape-rendering="crispEdges"/><path stroke="#000" d="M21.68 7v-.06l-.01-.01v-.01l-.01-.01-.01-.01v-.01l-.01-.01-.01-.01v-.01h-.01l-.01-.01-.01-.01h-.01l-.01-.01-.01-.01h-.01l-.01-.01h-.13l-.01.01h-.01l-.01.01-.01.01h-.01l-.01.01-.01.01h-.01v.01l-.01.01-.01.01v.01l-.01.01-.01.01v.01l-.01.01v.13l.01.01v.01l.01.01.01.01v.01l.01.01.01.01v.01h.01l.01.01.01.01h.01l.01.01.01.01h.01l.01.01h.13l.01-.01h.01l.01-.01.01-.01h.01l.01-.01.01-.01h.01v-.01l.01-.01.01-.01v-.01l.01-.01.01-.01v-.01l.01-.01V7Z"/></g><g fill="none" stroke="currentColor" stroke-linecap="round" stroke-linejoin="round" stroke-width=".1" color="#000"><path fill="#000" stroke="none" d="M22.68 7v-.06l-.01-.01v-.01l-.01-.01-.01-.01v-.01l-.01-.01-.01-.01v-.01h-.01l-.01-.01-.01-.01h-.01l-.01-.01-.01-.01h-.01l-.01-.01h-.13l-.01.01h-.01l-.01.01-.01.01h-.01l-.01.01-.01.01h-.01v.01l-.01.01-.01.01v.01l-.01.01-.01.01v.01l-.01.01v.13l.01.01v.01l.01.01.01.01v.01l.01.01.01.01v.01h.01l.01.01.01.01h.01l.01.01.01.01h.01l.01.01h.13l.01-.01h.01l.01-.01.01-.01h.01l.01-.01.01-.01h.01v-.01l.01-.01.01-.01v-.01l.01-.01.01-.01v-.01l.01-.01v-.05z" shape-rendering="crispEdges"/><path stroke="#000" d="M22.68 7v-.06l-.01-.01v-.01l-.01-.01-.01-.01v-.01l-.01-.01-.01-.01v-.01h-.01l-.01-.01-.01-.01h-.01l-.01-.01-.01-.01h-.01l-.01-.01h-.13l-.01.01h-.01l-.01.01-.01.01h-.01l-.01.01-.01.01h-.01v.01l-.01.01-.01.01v.01l-.01.01-.01.01v.01l-.01.01v.13l.01.01v.01l.01.01.01.01v.01l.01.01.01.01v.01h.01l.01.01.01.01h.01l.01.01.01.01h.01l.01.01h.13l.01-.01h.01l.01-.01.01-.01h.01l.01-.01.01-.01h.01v-.01l.01-.01.01-.01v-.01l.01-.01.01-.01v-.01l.01-.01V7Z"/></g><g fill="none" stroke="currentColor" stroke-linecap="round" stroke-linejoin="round" stroke-width=".1" color="#000"><path fill="#000" stroke="none" d="M23.68 7v-.06l-.01-.01v-.01l-.01-.01-.01-.01v-.01l-.01-.01-.01-.01v-.01h-.01l-.01-.01-.01-.01h-.01l-.01-.01-.01-.01h-.01l-.01-.01h-.13l-.01.01h-.01l-.01.01-.01.01h-.01l-.01.01-.01.01h-.01v.01l-.01.01-.01.01v.01l-.01.01-.01.01v.01l-.01.01v.13l.01.01v.01l.01.01.01.01v.01l.01.01.01.01v.01h.01l.01.01.01.01h.01l.01.01.01.01h.01l.01.01h.13l.01-.01h.01l.01-.01.01-.01h.01l.01-.01.01-.01h.01v-.01l.01-.01.01-.01v-.01l.01-.01.01-.01v-.01l.01-.01v-.05z" shape-rendering="crispEdges"/><path stroke="#000" d="M23.68 7v-.06l-.01-.01v-.01l-.01-.01-.01-.01v-.01l-.01-.01-.01-.01v-.01h-.01l-.01-.01-.01-.01h-.01l-.01-.01-.01-.01h-.01l-.01-.01h-.13l-.01.01h-.01l-.01.01-.01.01h-.01l-.01.01-.01.01h-.01v.01l-.01.01-.01.01v.01l-.01.01-.01.01v.01l-.01.01v.13l.01.01v.01l.01.01.01.01v.01l.01.01.01.01v.01h.01l.01.01.01.01h.01l.01.01.01.01h.01l.01.01h.13l.01-.01h.01l.01-.01.01-.01h.01l.01-.01.01-.01h.01v-.01l.01-.01.01-.01v-.01l.01-.01.01-.01v-.01l.01-.01V7Z"/></g><g fill="none" stroke="currentColor" stroke-linecap="round" stroke-linejoin="round" stroke-width=".1" color="#000"><path fill="#000" stroke="none" d="M24.68 7v-.06l-.01-.01v-.01l-.01-.01-.01-.01v-.01l-.01-.01-.01-.01v-.01h-.01l-.01-.01-.01-.01h-.01l-.01-.01-.01-.01h-.01l-.01-.01h-.13l-.01.01h-.01l-.01.01-.01.01h-.01l-.01.01-.01.01h-.01v.01l-.01.01-.01.01v.01l-.01.01-.01.01v.01l-.01.01v.13l.01.01v.01l.01.01.01.01v.01l.01.01.01.01v.01h.01l.01.01.01.01h.01l.01.01.01.01h.01l.01.01h.13l.01-.01h.01l.01-.01.01-.01h.01l.01-.01.01-.01h.01v-.01l.01-.01.01-.01v-.01l.01-.01.01-.01v-.01l.01-.01v-.05z" shape-rendering="crispEdges"/><path stroke="#000" d="M24.68 7v-.06l-.01-.01v-.01l-.01-.01-.01-.01v-.01l-.01-.01-.01-.01v-.01h-.01l-.01-.01-.01-.01h-.01l-.01-.01-.01-.01h-.01l-.01-.01h-.13l-.01.01h-.01l-.01.01-.01.01h-.01l-.01.01-.01.01h-.01v.01l-.01.01-.01.01v.01l-.01.01-.01.01v.01l-.01.01v.13l.01.01v.01l.01.01.01.01v.01l.01.01.01.01v.01h.01l.01.01.01.01h.01l.01.01.01.01h.01l.01.01h.13l.01-.01h.01l.01-.01.01-.01h.01l.01-.01.01-.01h.01v-.01l.01-.01.01-.01v-.01l.01-.01.01-.01v-.01l.01-.01V7Z"/></g><g fill="none" stroke="currentColor" stroke-linecap="round" stroke-linejoin="round" stroke-width=".1" color="#000"><path fill="#000" stroke="none" d="M25.68 7v-.06l-.01-.01v-.01l-.01-.01-.01-.01v-.01l-.01-.01-.01-.01v-.01h-.01l-.01-.01-.01-.01h-.01l-.01-.01-.01-.01h-.01l-.01-.01h-.13l-.01.01h-.01l-.01.01-.01.01h-.01l-.01.01-.01.01h-.01v.01l-.01.01-.01.01v.01l-.01.01-.01.01v.01l-.01.01v.13l.01.01v.01l.01.01.01.01v.01l.01.01.01.01v.01h.01l.01.01.01.01h.01l.01.01.01.01h.01l.01.01h.13l.01-.01h.01l.01-.01.01-.01h.01l.01-.01.01-.01h.01v-.01l.01-.01.01-.01v-.01l.01-.01.01-.01v-.01l.01-.01v-.05z" shape-rendering="crispEdges"/><path stroke="#000" d="M25.68 7v-.06l-.01-.01v-.01l-.01-.01-.01-.01v-.01l-.01-.01-.01-.01v-.01h-.01l-.01-.01-.01-.01h-.01l-.01-.01-.01-.01h-.01l-.01-.01h-.13l-.01.01h-.01l-.01.01-.01.01h-.01l-.01.01-.01.01h-.01v.01l-.01.01-.01.01v.01l-.01.01-.01.01v.01l-.01.01v.13l.01.01v.01l.01.01.01.01v.01l.01.01.01.01v.01h.01l.01.01.01.01h.01l.01.01.01.01h.01l.01.01h.13l.01-.01h.01l.01-.01.01-.01h.01l.01-.01.01-.01h.01v-.01l.01-.01.01-.01v-.01l.01-.01.01-.01v-.01l.01-.01V7Z"/></g><g fill="none" stroke="currentColor" stroke-linecap="round" stroke-linejoin="round" stroke-width=".1" color="#000"><path fill="#000" stroke="none" d="M26.68 7v-.06l-.01-.01v-.01l-.01-.01-.01-.01v-.01l-.01-.01-.01-.01v-.01h-.01l-.01-.01-.01-.01h-.01l-.01-.01-.01-.01h-.01l-.01-.01h-.13l-.01.01h-.01l-.01.01-.01.01h-.01l-.01.01-.01.01h-.01v.01l-.01.01-.01.01v.01l-.01.01-.01.01v.01l-.01.01v.13l.01.01v.01l.01.01.01.01v.01l.01.01.01.01v.01h.01l.01.01.01.01h.01l.01.01.01.01h.01l.01.01h.13l.01-.01h.01l.01-.01.01-.01h.01l.01-.01.01-.01h.01v-.01l.01-.01.01-.01v-.01l.01-.01.01-.01v-.01l.01-.01v-.05z" shape-rendering="crispEdges"/><path stroke="#000" d="M26.68 7v-.06l-.01-.01v-.01l-.01-.01-.01-.01v-.01l-.01-.01-.01-.01v-.01h-.01l-.01-.01-.01-.01h-.01l-.01-.01-.01-.01h-.01l-.01-.01h-.13l-.01.01h-.01l-.01.01-.01.01h-.01l-.01.01-.01.01h-.01v.01l-.01.01-.01.01v.01l-.01.01-.01.01v.01l-.01.01v.13l.01.01v.01l.01.01.01.01v.01l.01.01.01.01v.01h.01l.01.01.01.01h.01l.01.01.01.01h.01l.01.01h.13l.01-.01h.01l.01-.01.01-.01h.01l.01-.01.01-.01h.01v-.01l.01-.01.01-.01v-.01l.01-.01.01-.01v-.01l.01-.01V7Z"/></g><g fill="none" stroke="currentColor" stroke-linecap="round" stroke-linejoin="round" stroke-width=".1" color="#000"><path fill="#000" stroke="none" d="M27.68 7v-.06l-.01-.01v-.01l-.01-.01-.01-.01v-.01l-.01-.01-.01-.01v-.01h-.01l-.01-.01-.01-.01h-.01l-.01-.01-.01-.01h-.01l-.01-.01h-.13l-.01.01h-.01l-.01.01-.01.01h-.01l-.01.01-.01.01h-.01v.01l-.01.01-.01.01v.01l-.01.01-.01.01v.01l-.01.01v.13l.01.01v.01l.01.01.01.01v.01l.01.01.01.01v.01h.01l.01.01.01.01h.01l.01.01.01.01h.01l.01.01h.13l.01-.01h.01l.01-.01.01-.01h.01l.01-.01.01-.01h.01v-.01l.01-.01.01-.01v-.01l.01-.01.01-.01v-.01l.01-.01v-.05z" shape-rendering="crispEdges"/><path stroke="#000" d="M27.68 7v-.06l-.01-.01v-.01l-.01-.01-.01-.01v-.01l-.01-.01-.01-.01v-.01h-.01l-.01-.01-.01-.01h-.01l-.01-.01-.01-.01h-.01l-.01-.01h-.13l-.01.01h-.01l-.01.01-.01.01h-.01l-.01.01-.01.01h-.01v.01l-.01.01-.01.01v.01l-.01.01-.01.01v.01l-.01.01v.13l.01.01v.01l.01.01.01.01v.01l.01.01.01.01v.01h.01l.01.01.01.01h.01l.01.01.01.01h.01l.01.01h.13l.01-.01h.01l.01-.01.01-.01h.01l.01-.01.01-.01h.01v-.01l.01-.01.01-.01v-.01l.01-.01.01-.01v-.01l.01-.01V7Z"/></g><g fill="none" stroke="currentColor" stroke-linecap="round" stroke-linejoin="round" stroke-width=".1" color="#000"><path fill="#000" stroke="none" d="M28.68 7v-.06l-.01-.01v-.01l-.01-.01-.01-.01v-.01l-.01-.01-.01-.01v-.01h-.01l-.01-.01-.01-.01h-.01l-.01-.01-.01-.01h-.01l-.01-.01h-.13l-.01.01h-.01l-.01.01-.01.01h-.01l-.01.01-.01.01h-.01v.01l-.01.01-.01.01v.01l-.01.01-.01.01v.01l-.01.01v.13l.01.01v.01l.01.01.01.01v.01l.01.01.01.01v.01h.01l.01.01.01.01h.01l.01.01.01.01h.01l.01.01h.13l.01-.01h.01l.01-.01.01-.01h.01l.01-.01.01-.01h.01v-.01l.01-.01.01-.01v-.01l.01-.01.01-.01v-.01l.01-.01v-.05z" shape-rendering="crispEdges"/><path stroke="#000" d="M28.68 7v-.06l-.01-.01v-.01l-.01-.01-.01-.01v-.01l-.01-.01-.01-.01v-.01h-.01l-.01-.01-.01-.01h-.01l-.01-.01-.01-.01h-.01l-.01-.01h-.13l-.01.01h-.01l-.01.01-.01.01h-.01l-.01.01-.01.01h-.01v.01l-.01.01-.01.01v.01l-.01.01-.01.01v.01l-.01.01v.13l.01.01v.01l.01.01.01.01v.01l.01.01.01.01v.01h.01l.01.01.01.01h.01l.01.01.01.01h.01l.01.01h.13l.01-.01h.01l.01-.01.01-.01h.01l.01-.01.01-.01h.01v-.01l.01-.01.01-.01v-.01l.01-.01.01-.01v-.01l.01-.01V7Z"/></g><g fill="none" stroke="currentColor" stroke-linecap="round" stroke-linejoin="round" stroke-width=".1" color="#000"><path fill="#000" stroke="none" d="M29.68 7v-.06l-.01-.01v-.01l-.01-.01-.01-.01v-.01l-.01-.01-.01-.01v-.01h-.01l-.01-.01-.01-.01h-.01l-.01-.01-.01-.01h-.01l-.01-.01h-.13l-.01.01h-.01l-.01.01-.01.01h-.01l-.01.01-.01.01h-.01v.01l-.01.01-.01.01v.01l-.01.01-.01.01v.01l-.01.01v.13l.01.01v.01l.01.01.01.01v.01l.01.01.01.01v.01h.01l.01.01.01.01h.01l.01.01.01.01h.01l.01.01h.13l.01-.01h.01l.01-.01.01-.01h.01l.01-.01.01-.01h.01v-.01l.01-.01.01-.01v-.01l.01-.01.01-.01v-.01l.01-.01v-.05z" shape-rendering="crispEdges"/><path stroke="#000" d="M29.68 7v-.06l-.01-.01v-.01l-.01-.01-.01-.01v-.01l-.01-.01-.01-.01v-.01h-.01l-.01-.01-.01-.01h-.01l-.01-.01-.01-.01h-.01l-.01-.01h-.13l-.01.01h-.01l-.01.01-.01.01h-.01l-.01.01-.01.01h-.01v.01l-.01.01-.01.01v.01l-.01.01-.01.01v.01l-.01.01v.13l.01.01v.01l.01.01.01.01v.01l.01.01.01.01v.01h.01l.01.01.01.01h.01l.01.01.01.01h.01l.01.01h.13l.01-.01h.01l.01-.01.01-.01h.01l.01-.01.01-.01h.01v-.01l.01-.01.01-.01v-.01l.01-.01.01-.01v-.01l.01-.01V7Z"/></g><g fill="none" stroke="currentColor" stroke-linecap="round" stroke-linejoin="round" stroke-width=".1" color="#000"><path fill="#000" stroke="none" d="M30.68 7v-.06l-.01-.01v-.01l-.01-.01-.01-.01v-.01l-.01-.01-.01-.01v-.01h-.01l-.01-.01-.01-.01h-.01l-.01-.01-.01-.01h-.01l-.01-.01h-.13l-.01.01h-.01l-.01.01-.01.01h-.01l-.01.01-.01.01h-.01v.01l-.01.01-.01.01v.01l-.01.01-.01.01v.01l-.01.01v.13l.01.01v.01l.01.01.01.01v.01l.01.01.01.01v.01h.01l.01.01.01.01h.01l.01.01.01.01h.01l.01.01h.13l.01-.01h.01l.01-.01.01-.01h.01l.01-.01.01-.01h.01v-.01l.01-.01.01-.01v-.01l.01-.01.01-.01v-.01l.01-.01v-.05z" shape-rendering="crispEdges"/><path stroke="#000" d="M30.68 7v-.06l-.01-.01v-.01l-.01-.01-.01-.01v-.01l-.01-.01-.01-.01v-.01h-.01l-.01-.01-.01-.01h-.01l-.01-.01-.01-.01h-.01l-.01-.01h-.13l-.01.01h-.01l-.01.01-.01.01h-.01l-.01.01-.01.01h-.01v.01l-.01.01-.01.01v.01l-.01.01-.01.01v.01l-.01.01v.13l.01.01v.01l.01.01.01.01v.01l.01.01.01.01v.01h.01l.01.01.01.01h.01l.01.01.01.01h.01l.01.01h.13l.01-.01h.01l.01-.01.01-.01h.01l.01-.01.01-.01h.01v-.01l.01-.01.01-.01v-.01l.01-.01.01-.01v-.01l.01-.01V7Z"/></g><g fill="none" stroke="currentColor" stroke-linecap="round" stroke-linejoin="round" stroke-width=".1" color="#000"><path fill="#000" stroke="none" d="M31.68 7v-.06l-.01-.01v-.01l-.01-.01-.01-.01v-.01l-.01-.01-.01-.01v-.01h-.01l-.01-.01-.01-.01h-.01l-.01-.01-.01-.01h-.01l-.01-.01h-.13l-.01.01h-.01l-.01.01-.01.01h-.01l-.01.01-.01.01h-.01v.01l-.01.01-.01.01v.01l-.01.01-.01.01v.01l-.01.01v.13l.01.01v.01l.01.01.01.01v.01l.01.01.01.01v.01h.01l.01.01.01.01h.01l.01.01.01.01h.01l.01.01h.13l.01-.01h.01l.01-.01.01-.01h.01l.01-.01.01-.01h.01v-.01l.01-.01.01-.01v-.01l.01-.01.01-.01v-.01l.01-.01v-.05z" shape-rendering="crispEdges"/><path stroke="#000" d="M31.68 7v-.06l-.01-.01v-.01l-.01-.01-.01-.01v-.01l-.01-.01-.01-.01v-.01h-.01l-.01-.01-.01-.01h-.01l-.01-.01-.01-.01h-.01l-.01-.01h-.13l-.01.01h-.01l-.01.01-.01.01h-.01l-.01.01-.01.01h-.01v.01l-.01.01-.01.01v.01l-.01.01-.01.01v.01l-.01.01v.13l.01.01v.01l.01.01.01.01v.01l.01.01.01.01v.01h.01l.01.01.01.01h.01l.01.01.01.01h.01l.01.01h.13l.01-.01h.01l.01-.01.01-.01h.01l.01-.01.01-.01h.01v-.01l.01-.01.01-.01v-.01l.01-.01.01-.01v-.01l.01-.01V7Z"/></g><g fill="none" stroke="currentColor" stroke-linecap="round" stroke-linejoin="round" stroke-width=".1" color="#000"><path fill="#000" stroke="none" d="M32.68 7v-.06l-.01-.01v-.01l-.01-.01-.01-.01v-.01l-.01-.01-.01-.01v-.01h-.01l-.01-.01-.01-.01h-.01l-.01-.01-.01-.01h-.01l-.01-.01h-.13l-.01.01h-.01l-.01.01-.01.01h-.01l-.01.01-.01.01h-.01v.01l-.01.01-.01.01v.01l-.01.01-.01.01v.01l-.01.01v.13l.01.01v.01l.01.01.01.01v.01l.01.01.01.01v.01h.01l.01.01.01.01h.01l.01.01.01.01h.01l.01.01h.13l.01-.01h.01l.01-.01.01-.01h.01l.01-.01.01-.01h.01v-.01l.01-.01.01-.01v-.01l.01-.01.01-.01v-.01l.01-.01v-.05z" shape-rendering="crispEdges"/><path stroke="#000" d="M32.68 7v-.06l-.01-.01v-.01l-.01-.01-.01-.01v-.01l-.01-.01-.01-.01v-.01h-.01l-.01-.01-.01-.01h-.01l-.01-.01-.01-.01h-.01l-.01-.01h-.13l-.01.01h-.01l-.01.01-.01.01h-.01l-.01.01-.01.01h-.01v.01l-.01.01-.01.01v.01l-.01.01-.01.01v.01l-.01.01v.13l.01.01v.01l.01.01.01.01v.01l.01.01.01.01v.01h.01l.01.01.01.01h.01l.01.01.01.01h.01l.01.01h.13l.01-.01h.01l.01-.01.01-.01h.01l.01-.01.01-.01h.01v-.01l.01-.01.01-.01v-.01l.01-.01.01-.01v-.01l.01-.01V7Z"/></g><g fill="none" stroke="currentColor" stroke-linecap="round" stroke-linejoin="round" stroke-width=".1" color="#000"><path fill="#000" stroke="none" d="M33.68 7v-.06l-.01-.01v-.01l-.01-.01-.01-.01v-.01l-.01-.01-.01-.01v-.01h-.01l-.01-.01-.01-.01h-.01l-.01-.01-.01-.01h-.01l-.01-.01h-.13l-.01.01h-.01l-.01.01-.01.01h-.01l-.01.01-.01.01h-.01v.01l-.01.01-.01.01v.01l-.01.01-.01.01v.01l-.01.01v.13l.01.01v.01l.01.01.01.01v.01l.01.01.01.01v.01h.01l.01.01.01.01h.01l.01.01.01.01h.01l.01.01h.13l.01-.01h.01l.01-.01.01-.01h.01l.01-.01.01-.01h.01v-.01l.01-.01.01-.01v-.01l.01-.01.01-.01v-.01l.01-.01v-.05z" shape-rendering="crispEdges"/><path stroke="#000" d="M33.68 7v-.06l-.01-.01v-.01l-.01-.01-.01-.01v-.01l-.01-.01-.01-.01v-.01h-.01l-.01-.01-.01-.01h-.01l-.01-.01-.01-.01h-.01l-.01-.01h-.13l-.01.01h-.01l-.01.01-.01.01h-.01l-.01.01-.01.01h-.01v.01l-.01.01-.01.01v.01l-.01.01-.01.01v.01l-.01.01v.13l.01.01v.01l.01.01.01.01v.01l.01.01.01.01v.01h.01l.01.01.01.01h.01l.01.01.01.01h.01l.01.01h.13l.01-.01h.01l.01-.01.01-.01h.01l.01-.01.01-.01h.01v-.01l.01-.01.01-.01v-.01l.01-.01.01-.01v-.01l.01-.01V7Z"/></g><g fill="none" stroke="currentColor" stroke-linecap="round" stroke-linejoin="round" stroke-width=".1" color="#000"><path fill="#000" stroke="none" d="M34.68 7v-.06l-.01-.01v-.01l-.01-.01-.01-.01v-.01l-.01-.01-.01-.01v-.01h-.01l-.01-.01-.01-.01h-.01l-.01-.01-.01-.01h-.01l-.01-.01h-.13l-.01.01h-.01l-.01.01-.01.01h-.01l-.01.01-.01.01h-.01v.01l-.01.01-.01.01v.01l-.01.01-.01.01v.01l-.01.01v.13l.01.01v.01l.01.01.01.01v.01l.01.01.01.01v.01h.01l.01.01.01.01h.01l.01.01.01.01h.01l.01.01h.13l.01-.01h.01l.01-.01.01-.01h.01l.01-.01.01-.01h.01v-.01l.01-.01.01-.01v-.01l.01-.01.01-.01v-.01l.01-.01v-.05z" shape-rendering="crispEdges"/><path stroke="#000" d="M34.68 7v-.06l-.01-.01v-.01l-.01-.01-.01-.01v-.01l-.01-.01-.01-.01v-.01h-.01l-.01-.01-.01-.01h-.01l-.01-.01-.01-.01h-.01l-.01-.01h-.13l-.01.01h-.01l-.01.01-.01.01h-.01l-.01.01-.01.01h-.01v.01l-.01.01-.01.01v.01l-.01.01-.01.01v.01l-.01.01v.13l.01.01v.01l.01.01.01.01v.01l.01.01.01.01v.01h.01l.01.01.01.01h.01l.01.01.01.01h.01l.01.01h.13l.01-.01h.01l.01-.01.01-.01h.01l.01-.01.01-.01h.01v-.01l.01-.01.01-.01v-.01l.01-.01.01-.01v-.01l.01-.01V7Z"/></g><g fill="none" stroke="currentColor" stroke-linecap="round" stroke-linejoin="round" stroke-width=".1" color="#000"><path fill="#000" stroke="none" d="M35.68 7v-.06l-.01-.01v-.01l-.01-.01-.01-.01v-.01l-.01-.01-.01-.01v-.01h-.01l-.01-.01-.01-.01h-.01l-.01-.01-.01-.01h-.01l-.01-.01h-.13l-.01.01h-.01l-.01.01-.01.01h-.01l-.01.01-.01.01h-.01v.01l-.01.01-.01.01v.01l-.01.01-.01.01v.01l-.01.01v.13l.01.01v.01l.01.01.01.01v.01l.01.01.01.01v.01h.01l.01.01.01.01h.01l.01.01.01.01h.01l.01.01h.13l.01-.01h.01l.01-.01.01-.01h.01l.01-.01.01-.01h.01v-.01l.01-.01.01-.01v-.01l.01-.01.01-.01v-.01l.01-.01v-.05z" shape-rendering="crispEdges"/><path stroke="#000" d="M35.68 7v-.06l-.01-.01v-.01l-.01-.01-.01-.01v-.01l-.01-.01-.01-.01v-.01h-.01l-.01-.01-.01-.01h-.01l-.01-.01-.01-.01h-.01l-.01-.01h-.13l-.01.01h-.01l-.01.01-.01.01h-.01l-.01.01-.01.01h-.01v.01l-.01.01-.01.01v.01l-.01.01-.01.01v.01l-.01.01v.13l.01.01v.01l.01.01.01.01v.01l.01.01.01.01v.01h.01l.01.01.01.01h.01l.01.01.01.01h.01l.01.01h.13l.01-.01h.01l.01-.01.01-.01h.01l.01-.01.01-.01h.01v-.01l.01-.01.01-.01v-.01l.01-.01.01-.01v-.01l.01-.01V7Z"/></g></svg>