<svg xmlns="http://www.w3.org/2000/svg" viewBox="0 0 36 7"><path fill="none" d="M0 0h36v7H0z"/><path fill="none" d="M0 7h.75m35.24 0h-.75M0 6h.75m35.24 0h-.75M0 5h.75m35.24 0h-.75M0 4h.75m35.24 0h-.75M0 3.01h.75m35.24 0h-.75M0 2.01h.75m35.24 0h-.75M0 1.01h.75m35.24 0h-.75M0 .01h.75m35.24 0h-.75M0 7v-.75M0 .01v.75M1 7v-.75M1 .01v.75M2 7v-.75M2 .01v.75M3 7v-.75M3 .01v.75M4 7v-.75M4 .01v.75M5 7v-.75M5 .01v.75M6 7v-.75M6 .01v.75M7 7v-.75M7 .01v.75M8 7v-.75M8 .01v.75M9 7v-.75M9 .01v.75M10 7v-.75m0-6.24v.75M11 7v-.75m0-6.24v.75M12 7v-.75m0-6.24v.75M13 7v-.75m0-6.24v.75M14 7v-.75m0-6.24v.75M15 7v-.75m0-6.24v.75M16 7v-.75m0-6.24v.75M17 7v-.75m0-6.24v.75M18 7v-.75m0-6.24v.75M18.99 7v-.75m0-6.24v.75m1 6.24v-.75m0-6.24v.75m1 6.24v-.75m0-6.24v.75m1 6.24v-.75m0-6.24v.75m1 6.24v-.75m0-6.24v.75m1 6.24v-.75m0-6.24v.75m1 6.24v-.75m0-6.24v.75m1 6.24v-.75m0-6.24v.75m1 6.24v-.75m0-6.24v.75m1 6.24v-.75m0-6.24v.75m1 6.24v-.75m0-6.24v.75m1 6.24v-.75m0-6.24v.75m1 6.24v-.75m0-6.24v.75m1 6.24v-.75m0-6.24v.75m1 6.24v-.75m0-6.24v.75m1 6.24v-.75m0-6.24v.75m1 6.24v-.75m0-6.24v.75m1 6.24v-.75m0-6.24v.75" color="#000"/><path fill="none" stroke="#000" stroke-linecap="round" stroke-linejoin="round" stroke-width=".1" d="m4.51 4.99.5 1m-.5-1-.5 1m4.5-1 .5 1m21.49-1-.5 1m.5-1 .5 1m1.5-1-.5 1m.5-1 .5 1m-29.49-2 1 1m-1-1-1 1m5-1 1 1m-1-1-1 1m5-1 1 1m-1-1-1 1m12.99-1 1 1m3-1 1 1m3-1-1 1m1-1 1 1M5.51 3l2 .99m-2-.99-2 .99m10-.99 2 .99m-2-.99-2 .99M21.5 3l2 .99m-2-.99-2 .99m10-.99-2 .99m2-.99 2 .99M9.51 2l4 1m-4-1-4 1M25.5 2l-4 1m4-1 4 1M17.51 1l-8 1m8-1 7.99 1" color="#000"/><g fill="none" stroke="currentColor" stroke-linecap="round" stroke-linejoin="round" stroke-width=".1" color="#000"><path fill="#F44336" stroke="none" d="M4.19 6v-.06l-.01-.01v-.01l-.01-.01-.01-.01v-.01l-.01-.01-.01-.01v-.01h-.01l-.01-.01-.01-.01H4.1l-.01-.01-.01-.01h-.01l-.01-.01h-.13l-.01.01h-.01l-.01.01-.01.01h-.01l-.01.01-.01.01h-.01v.01l-.01.01-.01.01v.01l-.01.01-.01.01v.01l-.01.01v.13l.01.01v.01l.01.01.01.01v.01l.01.01.01.01v.01h.01l.01.01.01.01h.01l.01.01.01.01h.01l.01.01h.13l.01-.01h.01l.01-.01.01-.01h.01l.01-.01.01-.01h.01v-.01l.01-.01.01-.01v-.01l.01-.01.01-.01v-.01l.01-.01v-.05z" shape-rendering="crispEdges"/><path stroke="#F44336" d="M4.19 6v-.06l-.01-.01v-.01l-.01-.01-.01-.01v-.01l-.01-.01-.01-.01v-.01h-.01l-.01-.01-.01-.01H4.1l-.01-.01-.01-.01h-.01l-.01-.01h-.13l-.01.01h-.01l-.01.01-.01.01h-.01l-.01.01-.01.01h-.01v.01l-.01.01-.01.01v.01l-.01.01-.01.01v.01l-.01.01v.13l.01.01v.01l.01.01.01.01v.01l.01.01.01.01v.01h.01l.01.01.01.01h.01l.01.01.01.01h.01l.01.01h.13l.01-.01h.01l.01-.01.01-.01h.01l.01-.01.01-.01h.01v-.01l.01-.01.01-.01v-.01l.01-.01.01-.01v-.01l.01-.01V6Z"/></g><g fill="none" stroke="currentColor" stroke-linecap="round" stroke-linejoin="round" stroke-width=".1" color="#000"><path fill="#F44336" stroke="none" d="M5.19 6v-.06l-.01-.01v-.01l-.01-.01-.01-.01v-.01l-.01-.01-.01-.01v-.01h-.01l-.01-.01-.01-.01H5.1l-.01-.01-.01-.01h-.01l-.01-.01h-.13l-.01.01h-.01l-.01.01-.01.01h-.01l-.01.01-.01.01h-.01v.01l-.01.01-.01.01v.01l-.01.01-.01.01v.01l-.01.01v.13l.01.01v.01l.01.01.01.01v.01l.01.01.01.01v.01h.01l.01.01.01.01h.01l.01.01.01.01h.01l.01.01h.13l.01-.01h.01l.01-.01.01-.01h.01l.01-.01.01-.01h.01v-.01l.01-.01.01-.01v-.01l.01-.01.01-.01v-.01l.01-.01v-.05z" shape-rendering="crispEdges"/><path stroke="#F44336" d="M5.19 6v-.06l-.01-.01v-.01l-.01-.01-.01-.01v-.01l-.01-.01-.01-.01v-.01h-.01l-.01-.01-.01-.01H5.1l-.01-.01-.01-.01h-.01l-.01-.01h-.13l-.01.01h-.01l-.01.01-.01.01h-.01l-.01.01-.01.01h-.01v.01l-.01.01-.01.01v.01l-.01.01-.01.01v.01l-.01.01v.13l.01.01v.01l.01.01.01.01v.01l.01.01.01.01v.01h.01l.01.01.01.01h.01l.01.01.01.01h.01l.01.01h.13l.01-.01h.01l.01-.01.01-.01h.01l.01-.01.01-.01h.01v-.01l.01-.01.01-.01v-.01l.01-.01.01-.01v-.01l.01-.01V6Z"/></g><g fill="none" stroke="currentColor" stroke-linecap="round" stroke-linejoin="round" stroke-width=".1" color="#000"><path fill="#F44336" stroke="none" d="M9.19 6v-.06l-.01-.01v-.01l-.01-.01-.01-.01v-.01l-.01-.01-.01-.01v-.01h-.01l-.01-.01-.01-.01H9.1l-.01-.01-.01-.01h-.01l-.01-.01h-.13l-.01.01h-.01l-.01.01-.01.01h-.01l-.01.01-.01.01h-.01v.01l-.01.01-.01.01v.01l-.01.01-.01.01v.01l-.01.01v.13l.01.01v.01l.01.01.01.01v.01l.01.01.01.01v.01h.01l.01.01.01.01h.01l.01.01.01.01h.01l.01.01h.13l.01-.01h.01l.01-.01.01-.01h.01l.01-.01.01-.01h.01v-.01l.01-.01.01-.01v-.01l.01-.01.01-.01v-.01l.01-.01v-.05z" shape-rendering="crispEdges"/><path stroke="#F44336" d="M9.19 6v-.06l-.01-.01v-.01l-.01-.01-.01-.01v-.01l-.01-.01-.01-.01v-.01h-.01l-.01-.01-.01-.01H9.1l-.01-.01-.01-.01h-.01l-.01-.01h-.13l-.01.01h-.01l-.01.01-.01.01h-.01l-.01.01-.01.01h-.01v.01l-.01.01-.01.01v.01l-.01.01-.01.01v.01l-.01.01v.13l.01.01v.01l.01.01.01.01v.01l.01.01.01.01v.01h.01l.01.01.01.01h.01l.01.01.01.01h.01l.01.01h.13l.01-.01h.01l.01-.01.01-.01h.01l.01-.01.01-.01h.01v-.01l.01-.01.01-.01v-.01l.01-.01.01-.01v-.01l.01-.01V6Z"/></g><g fill="none" stroke="currentColor" stroke-linecap="round" stroke-linejoin="round" stroke-width=".1" color="#000"><path fill="#F44336" stroke="none" d="M30.18 6v-.06l-.01-.01v-.01l-.01-.01-.01-.01v-.01l-.01-.01-.01-.01v-.01h-.01l-.01-.01-.01-.01h-.01l-.01-.01-.01-.01h-.01l-.01-.01h-.13l-.01.01h-.01l-.01.01-.01.01h-.01l-.01.01-.01.01h-.01v.01l-.01.01-.01.01v.01l-.01.01-.01.01v.01l-.01.01v.13l.01.01v.01l.01.01.01.01v.01l.01.01.01.01v.01h.01l.01.01.01.01h.01l.01.01.01.01h.01l.01.01h.13l.01-.01h.01l.01-.01.01-.01h.01l.01-.01.01-.01h.01v-.01l.01-.01.01-.01v-.01l.01-.01.01-.01v-.01l.01-.01v-.05z" shape-rendering="crispEdges"/><path stroke="#F44336" d="M30.18 6v-.06l-.01-.01v-.01l-.01-.01-.01-.01v-.01l-.01-.01-.01-.01v-.01h-.01l-.01-.01-.01-.01h-.01l-.01-.01-.01-.01h-.01l-.01-.01h-.13l-.01.01h-.01l-.01.01-.01.01h-.01l-.01.01-.01.01h-.01v.01l-.01.01-.01.01v.01l-.01.01-.01.01v.01l-.01.01v.13l.01.01v.01l.01.01.01.01v.01l.01.01.01.01v.01h.01l.01.01.01.01h.01l.01.01.01.01h.01l.01.01h.13l.01-.01h.01l.01-.01.01-.01h.01l.01-.01.01-.01h.01v-.01l.01-.01.01-.01v-.01l.01-.01.01-.01v-.01l.01-.01V6Z"/></g><g fill="none" stroke="currentColor" stroke-linecap="round" stroke-linejoin="round" stroke-width=".1" color="#000"><path fill="#F44336" stroke="none" d="M31.18 6v-.06l-.01-.01v-.01l-.01-.01-.01-.01v-.01l-.01-.01-.01-.01v-.01h-.01l-.01-.01-.01-.01h-.01l-.01-.01-.01-.01h-.01l-.01-.01h-.13l-.01.01h-.01l-.01.01-.01.01h-.01l-.01.01-.01.01h-.01v.01l-.01.01-.01.01v.01l-.01.01-.01.01v.01l-.01.01v.13l.01.01v.01l.01.01.01.01v.01l.01.01.01.01v.01h.01l.01.01.01.01h.01l.01.01.01.01h.01l.01.01h.13l.01-.01h.01l.01-.01.01-.01h.01l.01-.01.01-.01h.01v-.01l.01-.01.01-.01v-.01l.01-.01.01-.01v-.01l.01-.01v-.05z" shape-rendering="crispEdges"/><path stroke="#F44336" d="M31.18 6v-.06l-.01-.01v-.01l-.01-.01-.01-.01v-.01l-.01-.01-.01-.01v-.01h-.01l-.01-.01-.01-.01h-.01l-.01-.01-.01-.01h-.01l-.01-.01h-.13l-.01.01h-.01l-.01.01-.01.01h-.01l-.01.01-.01.01h-.01v.01l-.01.01-.01.01v.01l-.01.01-.01.01v.01l-.01.01v.13l.01.01v.01l.01.01.01.01v.01l.01.01.01.01v.01h.01l.01.01.01.01h.01l.01.01.01.01h.01l.01.01h.13l.01-.01h.01l.01-.01.01-.01h.01l.01-.01.01-.01h.01v-.01l.01-.01.01-.01v-.01l.01-.01.01-.01v-.01l.01-.01V6Z"/></g><g fill="none" stroke="currentColor" stroke-linecap="round" stroke-linejoin="round" stroke-width=".1" color="#000"><path fill="#F44336" stroke="none" d="M32.18 6v-.06l-.01-.01v-.01l-.01-.01-.01-.01v-.01l-.01-.01-.01-.01v-.01h-.01l-.01-.01-.01-.01h-.01l-.01-.01-.01-.01h-.01l-.01-.01h-.13l-.01.01h-.01l-.01.01-.01.01h-.01l-.01.01-.01.01h-.01v.01l-.01.01-.01.01v.01l-.01.01-.01.01v.01l-.01.01v.13l.01.01v.01l.01.01.01.01v.01l.01.01.01.01v.01h.01l.01.01.01.01h.01l.01.01.01.01h.01l.01.01h.13l.01-.01h.01l.01-.01.01-.01h.01l.01-.01.01-.01h.01v-.01l.01-.01.01-.01v-.01l.01-.01.01-.01v-.01l.01-.01v-.05z" shape-rendering="crispEdges"/><path stroke="#F44336" d="M32.18 6v-.06l-.01-.01v-.01l-.01-.01-.01-.01v-.01l-.01-.01-.01-.01v-.01h-.01l-.01-.01-.01-.01h-.01l-.01-.01-.01-.01h-.01l-.01-.01h-.13l-.01.01h-.01l-.01.01-.01.01h-.01l-.01.01-.01.01h-.01v.01l-.01.01-.01.01v.01l-.01.01-.01.01v.01l-.01.01v.13l.01.01v.01l.01.01.01.01v.01l.01.01.01.01v.01h.01l.01.01.01.01h.01l.01.01.01.01h.01l.01.01h.13l.01-.01h.01l.01-.01.01-.01h.01l.01-.01.01-.01h.01v-.01l.01-.01.01-.01v-.01l.01-.01.01-.01v-.01l.01-.01V6Z"/></g><g fill="none" stroke="currentColor" stroke-linecap="round" stroke-linejoin="round" stroke-width=".1" color="#000"><path fill="#F44336" stroke="none" d="M33.18 6v-.06l-.01-.01v-.01l-.01-.01-.01-.01v-.01l-.01-.01-.01-.01v-.01h-.01l-.01-.01-.01-.01h-.01l-.01-.01-.01-.01h-.01l-.01-.01h-.13l-.01.01h-.01l-.01.01-.01.01h-.01l-.01.01-.01.01h-.01v.01l-.01.01-.01.01v.01l-.01.01-.01.01v.01l-.01.01v.13l.01.01v.01l.01.01.01.01v.01l.01.01.01.01v.01h.01l.01.01.01.01h.01l.01.01.01.01h.01l.01.01h.13l.01-.01h.01l.01-.01.01-.01h.01l.01-.01.01-.01h.01v-.01l.01-.01.01-.01v-.01l.01-.01.01-.01v-.01l.01-.01v-.05z" shape-rendering="crispEdges"/><path stroke="#F44336" d="M33.18 6v-.06l-.01-.01v-.01l-.01-.01-.01-.01v-.01l-.01-.01-.01-.01v-.01h-.01l-.01-.01-.01-.01h-.01l-.01-.01-.01-.01h-.01l-.01-.01h-.13l-.01.01h-.01l-.01.01-.01.01h-.01l-.01.01-.01.01h-.01v.01l-.01.01-.01.01v.01l-.01.01-.01.01v.01l-.01.01v.13l.01.01v.01l.01.01.01.01v.01l.01.01.01.01v.01h.01l.01.01.01.01h.01l.01.01.01.01h.01l.01.01h.13l.01-.01h.01l.01-.01.01-.01h.01l.01-.01.01-.01h.01v-.01l.01-.01.01-.01v-.01l.01-.01.01-.01v-.01l.01-.01V6Z"/></g><g fill="none" stroke="currentColor" stroke-linecap="round" stroke-linejoin="round" stroke-width=".1" color="#000"><path fill="#000" stroke="none" d="M2.69 5v-.06l-.01-.01v-.01l-.01-.01-.01-.01v-.01l-.01-.01-.01-.01v-.01h-.01l-.01-.01-.01-.01H2.6l-.01-.01-.01-.01h-.01l-.01-.01h-.13l-.01.01h-.01l-.01.01-.01.01h-.01l-.01.01-.01.01h-.01v.01l-.01.01-.01.01v.01l-.01.01-.01.01v.01l-.01.01v.13l.01.01v.01l.01.01.01.01v.01l.01.01.01.01v.01h.01l.01.01.01.01h.01l.01.01.01.01h.01l.01.01h.13l.01-.01h.01l.01-.01.01-.01h.01l.01-.01.01-.01h.01v-.01l.01-.01.01-.01v-.01l.01-.01.01-.01v-.01l.01-.01v-.05z" shape-rendering="crispEdges"/><path stroke="#000" d="M2.69 5v-.06l-.01-.01v-.01l-.01-.01-.01-.01v-.01l-.01-.01-.01-.01v-.01h-.01l-.01-.01-.01-.01H2.6l-.01-.01-.01-.01h-.01l-.01-.01h-.13l-.01.01h-.01l-.01.01-.01.01h-.01l-.01.01-.01.01h-.01v.01l-.01.01-.01.01v.01l-.01.01-.01.01v.01l-.01.01v.13l.01.01v.01l.01.01.01.01v.01l.01.01.01.01v.01h.01l.01.01.01.01h.01l.01.01.01.01h.01l.01.01h.13l.01-.01h.01l.01-.01.01-.01h.01l.01-.01.01-.01h.01v-.01l.01-.01.01-.01v-.01l.01-.01.01-.01v-.01l.01-.01V5Z"/></g><g fill="none" stroke="currentColor" stroke-linecap="round" stroke-linejoin="round" stroke-width=".1" color="#000"><path fill="#000" stroke="none" d="M4.69 5v-.06l-.01-.01v-.01l-.01-.01-.01-.01v-.01l-.01-.01-.01-.01v-.01h-.01l-.01-.01-.01-.01H4.6l-.01-.01-.01-.01h-.01l-.01-.01h-.13l-.01.01h-.01l-.01.01-.01.01h-.01l-.01.01-.01.01h-.01v.01l-.01.01-.01.01v.01l-.01.01-.01.01v.01l-.01.01v.13l.01.01v.01l.01.01.01.01v.01l.01.01.01.01v.01h.01l.01.01.01.01h.01l.01.01.01.01h.01l.01.01h.13l.01-.01h.01l.01-.01.01-.01h.01l.01-.01.01-.01h.01v-.01l.01-.01.01-.01v-.01l.01-.01.01-.01v-.01l.01-.01v-.05z" shape-rendering="crispEdges"/><path stroke="#000" d="M4.69 5v-.06l-.01-.01v-.01l-.01-.01-.01-.01v-.01l-.01-.01-.01-.01v-.01h-.01l-.01-.01-.01-.01H4.6l-.01-.01-.01-.01h-.01l-.01-.01h-.13l-.01.01h-.01l-.01.01-.01.01h-.01l-.01.01-.01.01h-.01v.01l-.01.01-.01.01v.01l-.01.01-.01.01v.01l-.01.01v.13l.01.01v.01l.01.01.01.01v.01l.01.01.01.01v.01h.01l.01.01.01.01h.01l.01.01.01.01h.01l.01.01h.13l.01-.01h.01l.01-.01.01-.01h.01l.01-.01.01-.01h.01v-.01l.01-.01.01-.01v-.01l.01-.01.01-.01v-.01l.01-.01V5Z"/></g><g fill="none" stroke="currentColor" stroke-linecap="round" stroke-linejoin="round" stroke-width=".1" color="#000"><path fill="#000" stroke="none" d="M6.69 5v-.06l-.01-.01v-.01l-.01-.01-.01-.01v-.01l-.01-.01-.01-.01v-.01h-.01l-.01-.01-.01-.01H6.6l-.01-.01-.01-.01h-.01l-.01-.01h-.13l-.01.01h-.01l-.01.01-.01.01h-.01l-.01.01-.01.01h-.01v.01l-.01.01-.01.01v.01l-.01.01-.01.01v.01l-.01.01v.13l.01.01v.01l.01.01.01.01v.01l.01.01.01.01v.01h.01l.01.01.01.01h.01l.01.01.01.01h.01l.01.01h.13l.01-.01h.01l.01-.01.01-.01h.01l.01-.01.01-.01h.01v-.01l.01-.01.01-.01v-.01l.01-.01.01-.01v-.01l.01-.01v-.05z" shape-rendering="crispEdges"/><path stroke="#000" d="M6.69 5v-.06l-.01-.01v-.01l-.01-.01-.01-.01v-.01l-.01-.01-.01-.01v-.01h-.01l-.01-.01-.01-.01H6.6l-.01-.01-.01-.01h-.01l-.01-.01h-.13l-.01.01h-.01l-.01.01-.01.01h-.01l-.01.01-.01.01h-.01v.01l-.01.01-.01.01v.01l-.01.01-.01.01v.01l-.01.01v.13l.01.01v.01l.01.01.01.01v.01l.01.01.01.01v.01h.01l.01.01.01.01h.01l.01.01.01.01h.01l.01.01h.13l.01-.01h.01l.01-.01.01-.01h.01l.01-.01.01-.01h.01v-.01l.01-.01.01-.01v-.01l.01-.01.01-.01v-.01l.01-.01V5Z"/></g><g fill="none" stroke="currentColor" stroke-linecap="round" stroke-linejoin="round" stroke-width=".1" color="#000"><path fill="#000" stroke="none" d="M8.69 5v-.06l-.01-.01v-.01l-.01-.01-.01-.01v-.01l-.01-.01-.01-.01v-.01h-.01l-.01-.01-.01-.01H8.6l-.01-.01-.01-.01h-.01l-.01-.01h-.13l-.01.01h-.01l-.01.01-.01.01h-.01l-.01.01-.01.01h-.01v.01l-.01.01-.01.01v.01l-.01.01-.01.01v.01l-.01.01v.13l.01.01v.01l.01.01.01.01v.01l.01.01.01.01v.01h.01l.01.01.01.01h.01l.01.01.01.01h.01l.01.01h.13l.01-.01h.01l.01-.01.01-.01h.01l.01-.01.01-.01h.01v-.01l.01-.01.01-.01v-.01l.01-.01.01-.01v-.01l.01-.01v-.05z" shape-rendering="crispEdges"/><path stroke="#000" d="M8.69 5v-.06l-.01-.01v-.01l-.01-.01-.01-.01v-.01l-.01-.01-.01-.01v-.01h-.01l-.01-.01-.01-.01H8.6l-.01-.01-.01-.01h-.01l-.01-.01h-.13l-.01.01h-.01l-.01.01-.01.01h-.01l-.01.01-.01.01h-.01v.01l-.01.01-.01.01v.01l-.01.01-.01.01v.01l-.01.01v.13l.01.01v.01l.01.01.01.01v.01l.01.01.01.01v.01h.01l.01.01.01.01h.01l.01.01.01.01h.01l.01.01h.13l.01-.01h.01l.01-.01.01-.01h.01l.01-.01.01-.01h.01v-.01l.01-.01.01-.01v-.01l.01-.01.01-.01v-.01l.01-.01V5Z"/></g><g fill="none" stroke="currentColor" stroke-linecap="round" stroke-linejoin="round" stroke-width=".1" color="#000"><path fill="#F44336" stroke="none" d="M10.69 5v-.06l-.01-.01v-.01l-.01-.01-.01-.01v-.01l-.01-.01-.01-.01v-.01h-.01l-.01-.01-.01-.01h-.01l-.01-.01-.01-.01h-.01l-.01-.01h-.13l-.01.01h-.01l-.01.01-.01.01h-.01l-.01.01-.01.01h-.01v.01l-.01.01-.01.01v.01l-.01.01-.01.01v.01l-.01.01v.13l.01.01v.01l.01.01.01.01v.01l.01.01.01.01v.01h.01l.01.01.01.01h.01l.01.01.01.01h.01l.01.01h.13l.01-.01h.01l.01-.01.01-.01h.01l.01-.01.01-.01h.01v-.01l.01-.01.01-.01v-.01l.01-.01.01-.01v-.01l.01-.01v-.05z" shape-rendering="crispEdges"/><path stroke="#F44336" d="M10.69 5v-.06l-.01-.01v-.01l-.01-.01-.01-.01v-.01l-.01-.01-.01-.01v-.01h-.01l-.01-.01-.01-.01h-.01l-.01-.01-.01-.01h-.01l-.01-.01h-.13l-.01.01h-.01l-.01.01-.01.01h-.01l-.01.01-.01.01h-.01v.01l-.01.01-.01.01v.01l-.01.01-.01.01v.01l-.01.01v.13l.01.01v.01l.01.01.01.01v.01l.01.01.01.01v.01h.01l.01.01.01.01h.01l.01.01.01.01h.01l.01.01h.13l.01-.01h.01l.01-.01.01-.01h.01l.01-.01.01-.01h.01v-.01l.01-.01.01-.01v-.01l.01-.01.01-.01v-.01l.01-.01V5Z"/></g><g fill="none" stroke="currentColor" stroke-linecap="round" stroke-linejoin="round" stroke-width=".1" color="#000"><path fill="#F44336" stroke="none" d="M12.69 5v-.06l-.01-.01v-.01l-.01-.01-.01-.01v-.01l-.01-.01-.01-.01v-.01h-.01l-.01-.01-.01-.01h-.01l-.01-.01-.01-.01h-.01l-.01-.01h-.13l-.01.01h-.01l-.01.01-.01.01h-.01l-.01.01-.01.01h-.01v.01l-.01.01-.01.01v.01l-.01.01-.01.01v.01l-.01.01v.13l.01.01v.01l.01.01.01.01v.01l.01.01.01.01v.01h.01l.01.01.01.01h.01l.01.01.01.01h.01l.01.01h.13l.01-.01h.01l.01-.01.01-.01h.01l.01-.01.01-.01h.01v-.01l.01-.01.01-.01v-.01l.01-.01.01-.01v-.01l.01-.01v-.05z" shape-rendering="crispEdges"/><path stroke="#F44336" d="M12.69 5v-.06l-.01-.01v-.01l-.01-.01-.01-.01v-.01l-.01-.01-.01-.01v-.01h-.01l-.01-.01-.01-.01h-.01l-.01-.01-.01-.01h-.01l-.01-.01h-.13l-.01.01h-.01l-.01.01-.01.01h-.01l-.01.01-.01.01h-.01v.01l-.01.01-.01.01v.01l-.01.01-.01.01v.01l-.01.01v.13l.01.01v.01l.01.01.01.01v.01l.01.01.01.01v.01h.01l.01.01.01.01h.01l.01.01.01.01h.01l.01.01h.13l.01-.01h.01l.01-.01.01-.01h.01l.01-.01.01-.01h.01v-.01l.01-.01.01-.01v-.01l.01-.01.01-.01v-.01l.01-.01V5Z"/></g><g fill="none" stroke="currentColor" stroke-linecap="round" stroke-linejoin="round" stroke-width=".1" color="#000"><path fill="#F44336" stroke="none" d="M24.68 5v-.06l-.01-.01v-.01l-.01-.01-.01-.01v-.01l-.01-.01-.01-.01v-.01h-.01l-.01-.01-.01-.01h-.01l-.01-.01-.01-.01h-.01l-.01-.01h-.13l-.01.01h-.01l-.01.01-.01.01h-.01l-.01.01-.01.01h-.01v.01l-.01.01-.01.01v.01l-.01.01-.01.01v.01l-.01.01v.13l.01.01v.01l.01.01.01.01v.01l.01.01.01.01v.01h.01l.01.01.01.01h.01l.01.01.01.01h.01l.01.01h.13l.01-.01h.01l.01-.01.01-.01h.01l.01-.01.01-.01h.01v-.01l.01-.01.01-.01v-.01l.01-.01.01-.01v-.01l.01-.01v-.05z" shape-rendering="crispEdges"/><path stroke="#F44336" d="M24.68 5v-.06l-.01-.01v-.01l-.01-.01-.01-.01v-.01l-.01-.01-.01-.01v-.01h-.01l-.01-.01-.01-.01h-.01l-.01-.01-.01-.01h-.01l-.01-.01h-.13l-.01.01h-.01l-.01.01-.01.01h-.01l-.01.01-.01.01h-.01v.01l-.01.01-.01.01v.01l-.01.01-.01.01v.01l-.01.01v.13l.01.01v.01l.01.01.01.01v.01l.01.01.01.01v.01h.01l.01.01.01.01h.01l.01.01.01.01h.01l.01.01h.13l.01-.01h.01l.01-.01.01-.01h.01l.01-.01.01-.01h.01v-.01l.01-.01.01-.01v-.01l.01-.01.01-.01v-.01l.01-.01V5Z"/></g><g fill="none" stroke="currentColor" stroke-linecap="round" stroke-linejoin="round" stroke-width=".1" color="#000"><path fill="#F44336" stroke="none" d="M28.68 5v-.06l-.01-.01v-.01l-.01-.01-.01-.01v-.01l-.01-.01-.01-.01v-.01h-.01l-.01-.01-.01-.01h-.01l-.01-.01-.01-.01h-.01l-.01-.01h-.13l-.01.01h-.01l-.01.01-.01.01h-.01l-.01.01-.01.01h-.01v.01l-.01.01-.01.01v.01l-.01.01-.01.01v.01l-.01.01v.13l.01.01v.01l.01.01.01.01v.01l.01.01.01.01v.01h.01l.01.01.01.01h.01l.01.01.01.01h.01l.01.01h.13l.01-.01h.01l.01-.01.01-.01h.01l.01-.01.01-.01h.01v-.01l.01-.01.01-.01v-.01l.01-.01.01-.01v-.01l.01-.01v-.05z" shape-rendering="crispEdges"/><path stroke="#F44336" d="M28.68 5v-.06l-.01-.01v-.01l-.01-.01-.01-.01v-.01l-.01-.01-.01-.01v-.01h-.01l-.01-.01-.01-.01h-.01l-.01-.01-.01-.01h-.01l-.01-.01h-.13l-.01.01h-.01l-.01.01-.01.01h-.01l-.01.01-.01.01h-.01v.01l-.01.01-.01.01v.01l-.01.01-.01.01v.01l-.01.01v.13l.01.01v.01l.01.01.01.01v.01l.01.01.01.01v.01h.01l.01.01.01.01h.01l.01.01.01.01h.01l.01.01h.13l.01-.01h.01l.01-.01.01-.01h.01l.01-.01.01-.01h.01v-.01l.01-.01.01-.01v-.01l.01-.01.01-.01v-.01l.01-.01V5Z"/></g><g fill="none" stroke="currentColor" stroke-linecap="round" stroke-linejoin="round" stroke-width=".1" color="#000"><path fill="#000" stroke="none" d="M30.68 5v-.06l-.01-.01v-.01l-.01-.01-.01-.01v-.01l-.01-.01-.01-.01v-.01h-.01l-.01-.01-.01-.01h-.01l-.01-.01-.01-.01h-.01l-.01-.01h-.13l-.01.01h-.01l-.01.01-.01.01h-.01l-.01.01-.01.01h-.01v.01l-.01.01-.01.01v.01l-.01.01-.01.01v.01l-.01.01v.13l.01.01v.01l.01.01.01.01v.01l.01.01.01.01v.01h.01l.01.01.01.01h.01l.01.01.01.01h.01l.01.01h.13l.01-.01h.01l.01-.01.01-.01h.01l.01-.01.01-.01h.01v-.01l.01-.01.01-.01v-.01l.01-.01.01-.01v-.01l.01-.01v-.05z" shape-rendering="crispEdges"/><path stroke="#000" d="M30.68 5v-.06l-.01-.01v-.01l-.01-.01-.01-.01v-.01l-.01-.01-.01-.01v-.01h-.01l-.01-.01-.01-.01h-.01l-.01-.01-.01-.01h-.01l-.01-.01h-.13l-.01.01h-.01l-.01.01-.01.01h-.01l-.01.01-.01.01h-.01v.01l-.01.01-.01.01v.01l-.01.01-.01.01v.01l-.01.01v.13l.01.01v.01l.01.01.01.01v.01l.01.01.01.01v.01h.01l.01.01.01.01h.01l.01.01.01.01h.01l.01.01h.13l.01-.01h.01l.01-.01.01-.01h.01l.01-.01.01-.01h.01v-.01l.01-.01.01-.01v-.01l.01-.01.01-.01v-.01l.01-.01V5Z"/></g><g fill="none" stroke="currentColor" stroke-linecap="round" stroke-linejoin="round" stroke-width=".1" color="#000"><path fill="#000" stroke="none" d="M32.68 5v-.06l-.01-.01v-.01l-.01-.01-.01-.01v-.01l-.01-.01-.01-.01v-.01h-.01l-.01-.01-.01-.01h-.01l-.01-.01-.01-.01h-.01l-.01-.01h-.13l-.01.01h-.01l-.01.01-.01.01h-.01l-.01.01-.01.01h-.01v.01l-.01.01-.01.01v.01l-.01.01-.01.01v.01l-.01.01v.13l.01.01v.01l.01.01.01.01v.01l.01.01.01.01v.01h.01l.01.01.01.01h.01l.01.01.01.01h.01l.01.01h.13l.01-.01h.01l.01-.01.01-.01h.01l.01-.01.01-.01h.01v-.01l.01-.01.01-.01v-.01l.01-.01.01-.01v-.01l.01-.01v-.05z" shape-rendering="crispEdges"/><path stroke="#000" d="M32.68 5v-.06l-.01-.01v-.01l-.01-.01-.01-.01v-.01l-.01-.01-.01-.01v-.01h-.01l-.01-.01-.01-.01h-.01l-.01-.01-.01-.01h-.01l-.01-.01h-.13l-.01.01h-.01l-.01.01-.01.01h-.01l-.01.01-.01.01h-.01v.01l-.01.01-.01.01v.01l-.01.01-.01.01v.01l-.01.01v.13l.01.01v.01l.01.01.01.01v.01l.01.01.01.01v.01h.01l.01.01.01.01h.01l.01.01.01.01h.01l.01.01h.13l.01-.01h.01l.01-.01.01-.01h.01l.01-.01.01-.01h.01v-.01l.01-.01.01-.01v-.01l.01-.01.01-.01v-.01l.01-.01V5Z"/></g><g fill="none" stroke="currentColor" stroke-linecap="round" stroke-linejoin="round" stroke-width=".1" color="#000"><path fill="#F44336" stroke="none" d="M3.69 4v-.06l-.01-.01v-.01l-.01-.01-.01-.01v-.01l-.01-.01-.01-.01v-.01h-.01l-.01-.01-.01-.01H3.6l-.01-.01-.01-.01h-.01l-.01-.01h-.13l-.01.01h-.01l-.01.01-.01.01h-.01l-.01.01-.01.01h-.01v.01l-.01.01-.01.01v.01l-.01.01-.01.01v.01l-.01.01v.13l.01.01v.01l.01.01.01.01v.01l.01.01.01.01v.01h.01l.01.01.01.01h.01l.01.01.01.01h.01l.01.01h.13l.01-.01h.01l.01-.01.01-.01h.01l.01-.01.01-.01h.01v-.01l.01-.01.01-.01v-.01l.01-.01.01-.01v-.01l.01-.01v-.05z" shape-rendering="crispEdges"/><path stroke="#F44336" d="M3.69 4v-.06l-.01-.01v-.01l-.01-.01-.01-.01v-.01l-.01-.01-.01-.01v-.01h-.01l-.01-.01-.01-.01H3.6l-.01-.01-.01-.01h-.01l-.01-.01h-.13l-.01.01h-.01l-.01.01-.01.01h-.01l-.01.01-.01.01h-.01v.01l-.01.01-.01.01v.01l-.01.01-.01.01v.01l-.01.01v.13l.01.01v.01l.01.01.01.01v.01l.01.01.01.01v.01h.01l.01.01.01.01h.01l.01.01.01.01h.01l.01.01h.13l.01-.01h.01l.01-.01.01-.01h.01l.01-.01.01-.01h.01v-.01l.01-.01.01-.01v-.01l.01-.01.01-.01v-.01l.01-.01V4Z"/></g><g fill="none" stroke="currentColor" stroke-linecap="round" stroke-linejoin="round" stroke-width=".1" color="#000"><path fill="#F44336" stroke="none" d="M7.69 4v-.06l-.01-.01v-.01l-.01-.01-.01-.01v-.01l-.01-.01-.01-.01v-.01h-.01l-.01-.01-.01-.01H7.6l-.01-.01-.01-.01h-.01l-.01-.01h-.13l-.01.01h-.01l-.01.01-.01.01h-.01l-.01.01-.01.01h-.01v.01l-.01.01-.01.01v.01l-.01.01-.01.01v.01l-.01.01v.13l.01.01v.01l.01.01.01.01v.01l.01.01.01.01v.01h.01l.01.01.01.01h.01l.01.01.01.01h.01l.01.01h.13l.01-.01h.01l.01-.01.01-.01h.01l.01-.01.01-.01h.01v-.01l.01-.01.01-.01v-.01l.01-.01.01-.01v-.01l.01-.01v-.05z" shape-rendering="crispEdges"/><path stroke="#F44336" d="M7.69 4v-.06l-.01-.01v-.01l-.01-.01-.01-.01v-.01l-.01-.01-.01-.01v-.01h-.01l-.01-.01-.01-.01H7.6l-.01-.01-.01-.01h-.01l-.01-.01h-.13l-.01.01h-.01l-.01.01-.01.01h-.01l-.01.01-.01.01h-.01v.01l-.01.01-.01.01v.01l-.01.01-.01.01v.01l-.01.01v.13l.01.01v.01l.01.01.01.01v.01l.01.01.01.01v.01h.01l.01.01.01.01h.01l.01.01.01.01h.01l.01.01h.13l.01-.01h.01l.01-.01.01-.01h.01l.01-.01.01-.01h.01v-.01l.01-.01.01-.01v-.01l.01-.01.01-.01v-.01l.01-.01V4Z"/></g><g fill="none" stroke="currentColor" stroke-linecap="round" stroke-linejoin="round" stroke-width=".1" color="#000"><path fill="#000" stroke="none" d="M11.69 4v-.06l-.01-.01v-.01l-.01-.01-.01-.01v-.01l-.01-.01-.01-.01v-.01h-.01l-.01-.01-.01-.01h-.01l-.01-.01-.01-.01h-.01l-.01-.01h-.13l-.01.01h-.01l-.01.01-.01.01h-.01l-.01.01-.01.01h-.01v.01l-.01.01-.01.01v.01l-.01.01-.01.01v.01l-.01.01v.13l.01.01v.01l.01.01.01.01v.01l.01.01.01.01v.01h.01l.01.01.01.01h.01l.01.01.01.01h.01l.01.01h.13l.01-.01h.01l.01-.01.01-.01h.01l.01-.01.01-.01h.01v-.01l.01-.01.01-.01v-.01l.01-.01.01-.01v-.01l.01-.01v-.05z" shape-rendering="crispEdges"/><path stroke="#000" d="M11.69 4v-.06l-.01-.01v-.01l-.01-.01-.01-.01v-.01l-.01-.01-.01-.01v-.01h-.01l-.01-.01-.01-.01h-.01l-.01-.01-.01-.01h-.01l-.01-.01h-.13l-.01.01h-.01l-.01.01-.01.01h-.01l-.01.01-.01.01h-.01v.01l-.01.01-.01.01v.01l-.01.01-.01.01v.01l-.01.01v.13l.01.01v.01l.01.01.01.01v.01l.01.01.01.01v.01h.01l.01.01.01.01h.01l.01.01.01.01h.01l.01.01h.13l.01-.01h.01l.01-.01.01-.01h.01l.01-.01.01-.01h.01v-.01l.01-.01.01-.01v-.01l.01-.01.01-.01v-.01l.01-.01V4Z"/></g><g fill="none" stroke="currentColor" stroke-linecap="round" stroke-linejoin="round" stroke-width=".1" color="#000"><path fill="#000" stroke="none" d="M15.69 4v-.06l-.01-.01v-.01l-.01-.01-.01-.01v-.01l-.01-.01-.01-.01v-.01h-.01l-.01-.01-.01-.01h-.01l-.01-.01-.01-.01h-.01l-.01-.01h-.13l-.01.01h-.01l-.01.01-.01.01h-.01l-.01.01-.01.01h-.01v.01l-.01.01-.01.01v.01l-.01.01-.01.01v.01l-.01.01v.13l.01.01v.01l.01.01.01.01v.01l.01.01.01.01v.01h.01l.01.01.01.01h.01l.01.01.01.01h.01l.01.01h.13l.01-.01h.01l.01-.01.01-.01h.01l.01-.01.01-.01h.01v-.01l.01-.01.01-.01v-.01l.01-.01.01-.01v-.01l.01-.01v-.05z" shape-rendering="crispEdges"/><path stroke="#000" d="M15.69 4v-.06l-.01-.01v-.01l-.01-.01-.01-.01v-.01l-.01-.01-.01-.01v-.01h-.01l-.01-.01-.01-.01h-.01l-.01-.01-.01-.01h-.01l-.01-.01h-.13l-.01.01h-.01l-.01.01-.01.01h-.01l-.01.01-.01.01h-.01v.01l-.01.01-.01.01v.01l-.01.01-.01.01v.01l-.01.01v.13l.01.01v.01l.01.01.01.01v.01l.01.01.01.01v.01h.01l.01.01.01.01h.01l.01.01.01.01h.01l.01.01h.13l.01-.01h.01l.01-.01.01-.01h.01l.01-.01.01-.01h.01v-.01l.01-.01.01-.01v-.01l.01-.01.01-.01v-.01l.01-.01V4Z"/></g><g fill="none" stroke="currentColor" stroke-linecap="round" stroke-linejoin="round" stroke-width=".1" color="#000"><path fill="#000" stroke="none" d="M19.68 4v-.06l-.01-.01v-.01l-.01-.01-.01-.01v-.01l-.01-.01-.01-.01v-.01h-.01l-.01-.01-.01-.01h-.01l-.01-.01-.01-.01h-.01l-.01-.01h-.13l-.01.01h-.01l-.01.01-.01.01h-.01l-.01.01-.01.01h-.01v.01l-.01.01-.01.01v.01l-.01.01-.01.01v.01l-.01.01v.13l.01.01v.01l.01.01.01.01v.01l.01.01.01.01v.01h.01l.01.01.01.01h.01l.01.01.01.01h.01l.01.01h.13l.01-.01h.01l.01-.01.01-.01h.01l.01-.01.01-.01h.01v-.01l.01-.01.01-.01v-.01l.01-.01.01-.01v-.01l.01-.01v-.05z" shape-rendering="crispEdges"/><path stroke="#000" d="M19.68 4v-.06l-.01-.01v-.01l-.01-.01-.01-.01v-.01l-.01-.01-.01-.01v-.01h-.01l-.01-.01-.01-.01h-.01l-.01-.01-.01-.01h-.01l-.01-.01h-.13l-.01.01h-.01l-.01.01-.01.01h-.01l-.01.01-.01.01h-.01v.01l-.01.01-.01.01v.01l-.01.01-.01.01v.01l-.01.01v.13l.01.01v.01l.01.01.01.01v.01l.01.01.01.01v.01h.01l.01.01.01.01h.01l.01.01.01.01h.01l.01.01h.13l.01-.01h.01l.01-.01.01-.01h.01l.01-.01.01-.01h.01v-.01l.01-.01.01-.01v-.01l.01-.01.01-.01v-.01l.01-.01V4Z"/></g><g fill="none" stroke="currentColor" stroke-linecap="round" stroke-linejoin="round" stroke-width=".1" color="#000"><path fill="#000" stroke="none" d="M23.68 4v-.06l-.01-.01v-.01l-.01-.01-.01-.01v-.01l-.01-.01-.01-.01v-.01h-.01l-.01-.01-.01-.01h-.01l-.01-.01-.01-.01h-.01l-.01-.01h-.13l-.01.01h-.01l-.01.01-.01.01h-.01l-.01.01-.01.01h-.01v.01l-.01.01-.01.01v.01l-.01.01-.01.01v.01l-.01.01v.13l.01.01v.01l.01.01.01.01v.01l.01.01.01.01v.01h.01l.01.01.01.01h.01l.01.01.01.01h.01l.01.01h.13l.01-.01h.01l.01-.01.01-.01h.01l.01-.01.01-.01h.01v-.01l.01-.01.01-.01v-.01l.01-.01.01-.01v-.01l.01-.01v-.05z" shape-rendering="crispEdges"/><path stroke="#000" d="M23.68 4v-.06l-.01-.01v-.01l-.01-.01-.01-.01v-.01l-.01-.01-.01-.01v-.01h-.01l-.01-.01-.01-.01h-.01l-.01-.01-.01-.01h-.01l-.01-.01h-.13l-.01.01h-.01l-.01.01-.01.01h-.01l-.01.01-.01.01h-.01v.01l-.01.01-.01.01v.01l-.01.01-.01.01v.01l-.01.01v.13l.01.01v.01l.01.01.01.01v.01l.01.01.01.01v.01h.01l.01.01.01.01h.01l.01.01.01.01h.01l.01.01h.13l.01-.01h.01l.01-.01.01-.01h.01l.01-.01.01-.01h.01v-.01l.01-.01.01-.01v-.01l.01-.01.01-.01v-.01l.01-.01V4Z"/></g><g fill="none" stroke="currentColor" stroke-linecap="round" stroke-linejoin="round" stroke-width=".1" color="#000"><path fill="#000" stroke="none" d="M27.68 4v-.06l-.01-.01v-.01l-.01-.01-.01-.01v-.01l-.01-.01-.01-.01v-.01h-.01l-.01-.01-.01-.01h-.01l-.01-.01-.01-.01h-.01l-.01-.01h-.13l-.01.01h-.01l-.01.01-.01.01h-.01l-.01.01-.01.01h-.01v.01l-.01.01-.01.01v.01l-.01.01-.01.01v.01l-.01.01v.13l.01.01v.01l.01.01.01.01v.01l.01.01.01.01v.01h.01l.01.01.01.01h.01l.01.01.01.01h.01l.01.01h.13l.01-.01h.01l.01-.01.01-.01h.01l.01-.01.01-.01h.01v-.01l.01-.01.01-.01v-.01l.01-.01.01-.01v-.01l.01-.01v-.05z" shape-rendering="crispEdges"/><path stroke="#000" d="M27.68 4v-.06l-.01-.01v-.01l-.01-.01-.01-.01v-.01l-.01-.01-.01-.01v-.01h-.01l-.01-.01-.01-.01h-.01l-.01-.01-.01-.01h-.01l-.01-.01h-.13l-.01.01h-.01l-.01.01-.01.01h-.01l-.01.01-.01.01h-.01v.01l-.01.01-.01.01v.01l-.01.01-.01.01v.01l-.01.01v.13l.01.01v.01l.01.01.01.01v.01l.01.01.01.01v.01h.01l.01.01.01.01h.01l.01.01.01.01h.01l.01.01h.13l.01-.01h.01l.01-.01.01-.01h.01l.01-.01.01-.01h.01v-.01l.01-.01.01-.01v-.01l.01-.01.01-.01v-.01l.01-.01V4Z"/></g><g fill="none" stroke="currentColor" stroke-linecap="round" stroke-linejoin="round" stroke-width=".1" color="#000"><path fill="#F44336" stroke="none" d="M31.68 4v-.06l-.01-.01v-.01l-.01-.01-.01-.01v-.01l-.01-.01-.01-.01v-.01h-.01l-.01-.01-.01-.01h-.01l-.01-.01-.01-.01h-.01l-.01-.01h-.13l-.01.01h-.01l-.01.01-.01.01h-.01l-.01.01-.01.01h-.01v.01l-.01.01-.01.01v.01l-.01.01-.01.01v.01l-.01.01v.13l.01.01v.01l.01.01.01.01v.01l.01.01.01.01v.01h.01l.01.01.01.01h.01l.01.01.01.01h.01l.01.01h.13l.01-.01h.01l.01-.01.01-.01h.01l.01-.01.01-.01h.01v-.01l.01-.01.01-.01v-.01l.01-.01.01-.01v-.01l.01-.01v-.05z" shape-rendering="crispEdges"/><path stroke="#F44336" d="M31.68 4v-.06l-.01-.01v-.01l-.01-.01-.01-.01v-.01l-.01-.01-.01-.01v-.01h-.01l-.01-.01-.01-.01h-.01l-.01-.01-.01-.01h-.01l-.01-.01h-.13l-.01.01h-.01l-.01.01-.01.01h-.01l-.01.01-.01.01h-.01v.01l-.01.01-.01.01v.01l-.01.01-.01.01v.01l-.01.01v.13l.01.01v.01l.01.01.01.01v.01l.01.01.01.01v.01h.01l.01.01.01.01h.01l.01.01.01.01h.01l.01.01h.13l.01-.01h.01l.01-.01.01-.01h.01l.01-.01.01-.01h.01v-.01l.01-.01.01-.01v-.01l.01-.01.01-.01v-.01l.01-.01V4Z"/></g><g fill="none" stroke="currentColor" stroke-linecap="round" stroke-linejoin="round" stroke-width=".1" color="#000"><path fill="#000" stroke="none" d="M5.69 3.01v-.06l-.01-.01v-.01l-.01-.01-.01-.01V2.9l-.01-.01-.01-.01v-.01h-.01l-.01-.01-.01-.01H5.6l-.01-.01-.01-.01h-.01l-.01-.01h-.13l-.01.01h-.01l-.01.01-.01.01h-.01l-.01.01-.01.01h-.01v.01l-.01.01-.01.01v.01l-.01.01-.01.01v.01l-.01.01v.13l.01.01v.01l.01.01.01.01v.01l.01.01.01.01v.01h.01l.01.01.01.01h.01l.01.01.01.01h.01l.01.01h.13l.01-.01h.01l.01-.01.01-.01h.01l.01-.01.01-.01h.01v-.01l.01-.01.01-.01v-.01l.01-.01.01-.01v-.01l.01-.01v-.05z" shape-rendering="crispEdges"/><path stroke="#000" d="M5.69 3.01v-.06l-.01-.01v-.01l-.01-.01-.01-.01V2.9l-.01-.01-.01-.01v-.01h-.01l-.01-.01-.01-.01H5.6l-.01-.01-.01-.01h-.01l-.01-.01h-.13l-.01.01h-.01l-.01.01-.01.01h-.01l-.01.01-.01.01h-.01v.01l-.01.01-.01.01v.01l-.01.01-.01.01v.01l-.01.01v.13l.01.01v.01l.01.01.01.01v.01l.01.01.01.01v.01h.01l.01.01.01.01h.01l.01.01.01.01h.01l.01.01h.13l.01-.01h.01l.01-.01.01-.01h.01l.01-.01.01-.01h.01v-.01l.01-.01.01-.01v-.01l.01-.01.01-.01v-.01l.01-.01v-.07Z"/></g><g fill="none" stroke="currentColor" stroke-linecap="round" stroke-linejoin="round" stroke-width=".1" color="#000"><path fill="#000" stroke="none" d="M13.69 3.01v-.06l-.01-.01v-.01l-.01-.01-.01-.01V2.9l-.01-.01-.01-.01v-.01h-.01l-.01-.01-.01-.01h-.01l-.01-.01-.01-.01h-.01l-.01-.01h-.13l-.01.01h-.01l-.01.01-.01.01h-.01l-.01.01-.01.01h-.01v.01l-.01.01-.01.01v.01l-.01.01-.01.01v.01l-.01.01v.13l.01.01v.01l.01.01.01.01v.01l.01.01.01.01v.01h.01l.01.01.01.01h.01l.01.01.01.01h.01l.01.01h.13l.01-.01h.01l.01-.01.01-.01h.01l.01-.01.01-.01h.01v-.01l.01-.01.01-.01v-.01l.01-.01.01-.01v-.01l.01-.01v-.05z" shape-rendering="crispEdges"/><path stroke="#000" d="M13.69 3.01v-.06l-.01-.01v-.01l-.01-.01-.01-.01V2.9l-.01-.01-.01-.01v-.01h-.01l-.01-.01-.01-.01h-.01l-.01-.01-.01-.01h-.01l-.01-.01h-.13l-.01.01h-.01l-.01.01-.01.01h-.01l-.01.01-.01.01h-.01v.01l-.01.01-.01.01v.01l-.01.01-.01.01v.01l-.01.01v.13l.01.01v.01l.01.01.01.01v.01l.01.01.01.01v.01h.01l.01.01.01.01h.01l.01.01.01.01h.01l.01.01h.13l.01-.01h.01l.01-.01.01-.01h.01l.01-.01.01-.01h.01v-.01l.01-.01.01-.01v-.01l.01-.01.01-.01v-.01l.01-.01v-.07Z"/></g><g fill="none" stroke="currentColor" stroke-linecap="round" stroke-linejoin="round" stroke-width=".1" color="#000"><path fill="#000" stroke="none" d="M21.68 3.01v-.06l-.01-.01v-.01l-.01-.01-.01-.01V2.9l-.01-.01-.01-.01v-.01h-.01l-.01-.01-.01-.01h-.01l-.01-.01-.01-.01h-.01l-.01-.01h-.13l-.01.01h-.01l-.01.01-.01.01h-.01l-.01.01-.01.01h-.01v.01l-.01.01-.01.01v.01l-.01.01-.01.01v.01l-.01.01v.13l.01.01v.01l.01.01.01.01v.01l.01.01.01.01v.01h.01l.01.01.01.01h.01l.01.01.01.01h.01l.01.01h.13l.01-.01h.01l.01-.01.01-.01h.01l.01-.01.01-.01h.01v-.01l.01-.01.01-.01v-.01l.01-.01.01-.01v-.01l.01-.01v-.05z" shape-rendering="crispEdges"/><path stroke="#000" d="M21.68 3.01v-.06l-.01-.01v-.01l-.01-.01-.01-.01V2.9l-.01-.01-.01-.01v-.01h-.01l-.01-.01-.01-.01h-.01l-.01-.01-.01-.01h-.01l-.01-.01h-.13l-.01.01h-.01l-.01.01-.01.01h-.01l-.01.01-.01.01h-.01v.01l-.01.01-.01.01v.01l-.01.01-.01.01v.01l-.01.01v.13l.01.01v.01l.01.01.01.01v.01l.01.01.01.01v.01h.01l.01.01.01.01h.01l.01.01.01.01h.01l.01.01h.13l.01-.01h.01l.01-.01.01-.01h.01l.01-.01.01-.01h.01v-.01l.01-.01.01-.01v-.01l.01-.01.01-.01v-.01l.01-.01v-.07Z"/></g><g fill="none" stroke="currentColor" stroke-linecap="round" stroke-linejoin="round" stroke-width=".1" color="#000"><path fill="#000" stroke="none" d="M29.68 3.01v-.06l-.01-.01v-.01l-.01-.01-.01-.01V2.9l-.01-.01-.01-.01v-.01h-.01l-.01-.01-.01-.01h-.01l-.01-.01-.01-.01h-.01l-.01-.01h-.13l-.01.01h-.01l-.01.01-.01.01h-.01l-.01.01-.01.01h-.01v.01l-.01.01-.01.01v.01l-.01.01-.01.01v.01l-.01.01v.13l.01.01v.01l.01.01.01.01v.01l.01.01.01.01v.01h.01l.01.01.01.01h.01l.01.01.01.01h.01l.01.01h.13l.01-.01h.01l.01-.01.01-.01h.01l.01-.01.01-.01h.01v-.01l.01-.01.01-.01v-.01l.01-.01.01-.01v-.01l.01-.01v-.05z" shape-rendering="crispEdges"/><path stroke="#000" d="M29.68 3.01v-.06l-.01-.01v-.01l-.01-.01-.01-.01V2.9l-.01-.01-.01-.01v-.01h-.01l-.01-.01-.01-.01h-.01l-.01-.01-.01-.01h-.01l-.01-.01h-.13l-.01.01h-.01l-.01.01-.01.01h-.01l-.01.01-.01.01h-.01v.01l-.01.01-.01.01v.01l-.01.01-.01.01v.01l-.01.01v.13l.01.01v.01l.01.01.01.01v.01l.01.01.01.01v.01h.01l.01.01.01.01h.01l.01.01.01.01h.01l.01.01h.13l.01-.01h.01l.01-.01.01-.01h.01l.01-.01.01-.01h.01v-.01l.01-.01.01-.01v-.01l.01-.01.01-.01v-.01l.01-.01v-.07Z"/></g><g fill="none" stroke="currentColor" stroke-linecap="round" stroke-linejoin="round" stroke-width=".1" color="#000"><path fill="#F44336" stroke="none" d="M9.69 2.01v-.06l-.01-.01v-.01l-.01-.01-.01-.01V1.9l-.01-.01-.01-.01v-.01h-.01l-.01-.01-.01-.01H9.6l-.01-.01-.01-.01h-.01l-.01-.01h-.13l-.01.01h-.01l-.01.01-.01.01h-.01l-.01.01-.01.01h-.01v.01l-.01.01-.01.01v.01l-.01.01-.01.01v.01l-.01.01v.13l.01.01v.01l.01.01.01.01v.01l.01.01.01.01v.01h.01l.01.01.01.01h.01l.01.01.01.01h.01l.01.01h.13l.01-.01h.01l.01-.01.01-.01h.01l.01-.01.01-.01h.01v-.01l.01-.01.01-.01v-.01l.01-.01.01-.01v-.01l.01-.01v-.05z" shape-rendering="crispEdges"/><path stroke="#F44336" d="M9.69 2.01v-.06l-.01-.01v-.01l-.01-.01-.01-.01V1.9l-.01-.01-.01-.01v-.01h-.01l-.01-.01-.01-.01H9.6l-.01-.01-.01-.01h-.01l-.01-.01h-.13l-.01.01h-.01l-.01.01-.01.01h-.01l-.01.01-.01.01h-.01v.01l-.01.01-.01.01v.01l-.01.01-.01.01v.01l-.01.01v.13l.01.01v.01l.01.01.01.01v.01l.01.01.01.01v.01h.01l.01.01.01.01h.01l.01.01.01.01h.01l.01.01h.13l.01-.01h.01l.01-.01.01-.01h.01l.01-.01.01-.01h.01v-.01l.01-.01.01-.01v-.01l.01-.01.01-.01v-.01l.01-.01v-.07Z"/></g><g fill="none" stroke="currentColor" stroke-linecap="round" stroke-linejoin="round" stroke-width=".1" color="#000"><path fill="#F44336" stroke="none" d="M25.68 2.01v-.06l-.01-.01v-.01l-.01-.01-.01-.01V1.9l-.01-.01-.01-.01v-.01h-.01l-.01-.01-.01-.01h-.01l-.01-.01-.01-.01h-.01l-.01-.01h-.13l-.01.01h-.01l-.01.01-.01.01h-.01l-.01.01-.01.01h-.01v.01l-.01.01-.01.01v.01l-.01.01-.01.01v.01l-.01.01v.13l.01.01v.01l.01.01.01.01v.01l.01.01.01.01v.01h.01l.01.01.01.01h.01l.01.01.01.01h.01l.01.01h.13l.01-.01h.01l.01-.01.01-.01h.01l.01-.01.01-.01h.01v-.01l.01-.01.01-.01v-.01l.01-.01.01-.01v-.01l.01-.01v-.05z" shape-rendering="crispEdges"/><path stroke="#F44336" d="M25.68 2.01v-.06l-.01-.01v-.01l-.01-.01-.01-.01V1.9l-.01-.01-.01-.01v-.01h-.01l-.01-.01-.01-.01h-.01l-.01-.01-.01-.01h-.01l-.01-.01h-.13l-.01.01h-.01l-.01.01-.01.01h-.01l-.01.01-.01.01h-.01v.01l-.01.01-.01.01v.01l-.01.01-.01.01v.01l-.01.01v.13l.01.01v.01l.01.01.01.01v.01l.01.01.01.01v.01h.01l.01.01.01.01h.01l.01.01.01.01h.01l.01.01h.13l.01-.01h.01l.01-.01.01-.01h.01l.01-.01.01-.01h.01v-.01l.01-.01.01-.01v-.01l.01-.01.01-.01v-.01l.01-.01v-.07Z"/></g><g fill="none" stroke="currentColor" stroke-linecap="round" stroke-linejoin="round" stroke-width=".1" color="#000"><path fill="#000" stroke="none" d="M17.69 1.01V.95l-.01-.01V.93l-.01-.01-.01-.01V.9l-.01-.01-.01-.01V.87h-.01l-.01-.01-.01-.01h-.01l-.01-.01-.01-.01h-.01l-.01-.01h-.13l-.01.01h-.01l-.01.01-.01.01h-.01l-.01.01-.01.01h-.01v.01l-.01.01-.01.01v.01l-.01.01-.01.01v.01l-.01.01v.13l.01.01v.01l.01.01.01.01v.01l.01.01.01.01v.01h.01l.01.01.01.01h.01l.01.01.01.01h.01l.01.01h.13l.01-.01h.01l.01-.01.01-.01h.01l.01-.01.01-.01h.01v-.01l.01-.01.01-.01v-.01l.01-.01.01-.01v-.01l.01-.01v-.05z" shape-rendering="crispEdges"/><path stroke="#000" d="M17.69 1.01V.95l-.01-.01V.93l-.01-.01-.01-.01V.9l-.01-.01-.01-.01V.87h-.01l-.01-.01-.01-.01h-.01l-.01-.01-.01-.01h-.01l-.01-.01h-.13l-.01.01h-.01l-.01.01-.01.01h-.01l-.01.01-.01.01h-.01v.01l-.01.01-.01.01v.01l-.01.01-.01.01v.01l-.01.01v.13l.01.01v.01l.01.01.01.01v.01l.01.01.01.01v.01h.01l.01.01.01.01h.01l.01.01.01.01h.01l.01.01h.13l.01-.01h.01l.01-.01.01-.01h.01l.01-.01.01-.01h.01v-.01l.01-.01.01-.01v-.01l.01-.01.01-.01v-.01l.01-.01v-.07Z"/></g></svg>