<svg xmlns="http://www.w3.org/2000/svg" viewBox="0 0 36 11"><path fill="none" d="M0 0h36v11H0z"/><path fill="none" d="M0 11h.75m35.24 0h-.75M0 10h.75m35.24 0h-.75M0 9h.75m35.24 0h-.75M0 8h.75m35.24 0h-.75M0 7h.75m35.24 0h-.75M0 6h.75m35.24 0h-.75M0 5.01h.75m35.24 0h-.75M0 4.01h.75m35.24 0h-.75M0 3.01h.75m35.24 0h-.75M0 2.01h.75m35.24 0h-.75M0 1.01h.75m35.24 0h-.75M0 .01h.75m35.24 0h-.75M0 11v-.75M0 .01v.75M1 11v-.75M1 .01v.75M2 11v-.75M2 .01v.75M3 11v-.75M3 .01v.75M4 11v-.75M4 .01v.75M5 11v-.75M5 .01v.75M6 11v-.75M6 .01v.75M7 11v-.75M7 .01v.75M8 11v-.75M8 .01v.75M9 11v-.75M9 .01v.75M10 11v-.75M10 .01v.75M11 11v-.75M11 .01v.75M12 11v-.75M12 .01v.75M13 11v-.75M13 .01v.75M14 11v-.75M14 .01v.75M15 11v-.75M15 .01v.75M16 11v-.75M16 .01v.75M17 11v-.75M17 .01v.75M18 11v-.75M18 .01v.75M18.99 11v-.75m0-10.24v.75m1 10.24v-.75m0-10.24v.75m1 10.24v-.75m0-10.24v.75m1 10.24v-.75m0-10.24v.75m1 10.24v-.75m0-10.24v.75m1 10.24v-.75m0-10.24v.75m1 10.24v-.75m0-10.24v.75m1 10.24v-.75m0-10.24v.75m1 10.24v-.75m0-10.24v.75m1 10.24v-.75m0-10.24v.75m1 10.24v-.75m0-10.24v.75m1 10.24v-.75m0-10.24v.75m1 10.24v-.75m0-10.24v.75m1 10.24v-.75m0-10.24v.75m1 10.24v-.75m0-10.24v.75m1 10.24v-.75m0-10.24v.75m1 10.24v-.75m0-10.24v.75m1 10.24v-.75m0-10.24v.75" color="#000"/><g fill="none" stroke="#2962FF" stroke-linecap="round" stroke-linejoin="round" stroke-width=".1" color="#000"><path d="M3.39 10.35 4 9.29l.6 1.06H3.39Z"/>Z<path d="M3.39 10.35 4 9.29l.6 1.06H3.39Z"/>Z</g><g fill="none" stroke="#29C3F6" stroke-linecap="round" stroke-linejoin="round" stroke-width=".1" color="#000"><path d="M9.39 7.36 10 6.3l.6 1.06H9.39Z"/>Z<path d="M9.39 7.36 10 6.3l.6 1.06H9.39Z"/>Z</g><g fill="none" stroke="#2962FF" stroke-linecap="round" stroke-linejoin="round" stroke-width=".1" color="#000"><path d="m25.39 7.36.6-1.06.61 1.06h-1.21Z"/>Z<path d="m25.39 7.36.6-1.06.61 1.06h-1.21Z"/>Z</g><g fill="none" stroke="currentColor" stroke-linecap="round" stroke-linejoin="round" stroke-width=".1" color="#000"><path stroke="#29C3F6" d="m31.39 10.35.6-1.06.61 1.06h-1.21Z"/>Z<path stroke="#29C3F6" d="m31.39 10.35.6-1.06.61 1.06h-1.21Z"/>Z<text fill="#000" stroke="none" font-family="KaTeX_Typewriter" font-size="1" text-anchor="middle" transform="translate(18 3.34)"><tspan>ROTATE RIGHT</tspan></text><text fill="#000" stroke="none" font-family="KaTeX_Typewriter" font-size="1" text-anchor="middle" transform="translate(18 9.33)"><tspan>ROTATE LEFT</tspan></text><text fill="#000" stroke="none" font-family="KaTeX_Typewriter" font-size="1" text-anchor="middle" transform="translate(6 7.33)"><tspan>A</tspan></text><text fill="#000" stroke="none" font-family="KaTeX_Typewriter" font-size="1" text-anchor="middle" transform="translate(8 10.33)"><tspan>B</tspan></text><text fill="#000" stroke="none" font-family="KaTeX_Typewriter" font-size="1" text-anchor="middle" transform="translate(8 4.34)"><tspan>C</tspan></text><text fill="#000" stroke="none" font-family="KaTeX_Typewriter" font-size="1" text-anchor="middle" transform="translate(27.99 4.34)"><tspan>A</tspan></text><text fill="#000" stroke="none" font-family="KaTeX_Typewriter" font-size="1" text-anchor="middle" transform="translate(27.99 10.33)"><tspan>B</tspan></text><text fill="#000" stroke="none" font-family="KaTeX_Typewriter" font-size="1" text-anchor="middle" transform="translate(29.99 7.33)"><tspan>C</tspan></text><path fill="#000" stroke="none" d="M21.7 4v-.17L22 4l-.3.17V4z" shape-rendering="crispEdges"/><path stroke="#000" d="M21.7 4v-.17L22 4l-.3.17V4Zm-7.69 0h7.69"/><path fill="#000" stroke="none" d="M14.31 7.99v.17l-.3-.17.3-.17v.17z" shape-rendering="crispEdges"/><path stroke="#000" d="M14.31 7.99v.17l-.3-.17.3-.17v.17Zm7.69 0h-7.69"/><path stroke="#2962FF" d="M5.42 7.88 4.6 9.11"/><path fill="#000" stroke="none" d="m7.26 8.86.14-.09.02.34-.31-.15.15-.1z" shape-rendering="crispEdges"/><path stroke="#000" d="m7.26 8.86.14-.09.02.34-.31-.15.15-.1Zm-.66-.98.66.98"/><path fill="#000" stroke="none" d="m6.76 5.86.15.1-.31.15.02-.34.14.09z" shape-rendering="crispEdges"/><path stroke="#000" d="m6.76 5.86.15.1-.31.15.02-.34.14.09Zm.66-.98-.66.98"/><path stroke="#29C3F6" d="m8.6 4.88.82 1.23"/><path stroke="#000" stroke-dasharray="0.1,0.2" d="m5.35.01 2.07 3.1M25.34.01l2.07 3.1"/><path stroke="#2962FF" d="m27.41 4.88-.82 1.23"/><path fill="#000" stroke="none" d="m29.25 5.86.14-.09.02.34-.31-.15.15-.1z" shape-rendering="crispEdges"/><path stroke="#000" d="m29.25 5.86.14-.09.02.34-.31-.15.15-.1Zm-.66-.98.66.98"/><path fill="#000" stroke="none" d="m28.75 8.86.15.1-.31.15.02-.34.14.09z" shape-rendering="crispEdges"/><path stroke="#000" d="m28.75 8.86.15.1-.31.15.02-.34.14.09Zm.66-.98-.66.98"/><path stroke="#29C3F6" d="m30.59 7.88.82 1.23"/></g><g fill="none" stroke="#2962FF" stroke-linecap="round" stroke-linejoin="round" stroke-width=".1" color="#000"><path d="M6.7 7v-.07l-.01-.04v-.03l-.01-.04-.01-.03-.02-.04-.01-.03-.02-.04-.01-.03-.02-.03-.02-.03-.03-.03-.02-.03-.03-.02-.02-.03-.03-.02-.03-.03-.03-.02-.03-.02-.03-.01-.04-.02-.03-.01-.04-.02-.03-.01-.04-.01h-.03l-.04-.01h-.15l-.04.01h-.03l-.04.01-.03.01-.04.02-.03.01-.04.02-.03.01-.03.02-.03.02-.03.03-.03.02-.02.03-.03.02-.02.03-.03.03-.02.03-.02.03-.01.03-.02.04-.01.03-.02.04-.01.03-.01.04v.03l-.01.04v.15l.01.04v.03l.01.04.01.03.02.04.01.03.02.04.01.03.02.03.02.03.03.03.02.03.03.02.02.03.03.02.03.03.03.02.03.02.03.01.04.02.03.01.04.02.03.01.04.01h.03l.04.01h.15l.04-.01h.03l.04-.01.03-.01.04-.02.03-.01.04-.02.03-.01.03-.02.03-.02.03-.03.03-.02.02-.03.03-.02.02-.03.03-.03.02-.03.02-.03.01-.03.02-.04.01-.03.02-.04.01-.03.01-.04v-.03l.01-.04V7Z"/><path d="M6.7 7v-.07l-.01-.04v-.03l-.01-.04-.01-.03-.02-.04-.01-.03-.02-.04-.01-.03-.02-.03-.02-.03-.03-.03-.02-.03-.03-.02-.02-.03-.03-.02-.03-.03-.03-.02-.03-.02-.03-.01-.04-.02-.03-.01-.04-.02-.03-.01-.04-.01h-.03l-.04-.01h-.15l-.04.01h-.03l-.04.01-.03.01-.04.02-.03.01-.04.02-.03.01-.03.02-.03.02-.03.03-.03.02-.02.03-.03.02-.02.03-.03.03-.02.03-.02.03-.01.03-.02.04-.01.03-.02.04-.01.03-.01.04v.03l-.01.04v.15l.01.04v.03l.01.04.01.03.02.04.01.03.02.04.01.03.02.03.02.03.03.03.02.03.03.02.02.03.03.02.03.03.03.02.03.02.03.01.04.02.03.01.04.02.03.01.04.01h.03l.04.01h.15l.04-.01h.03l.04-.01.03-.01.04-.02.03-.01.04-.02.03-.01.03-.02.03-.02.03-.03.03-.02.02-.03.03-.02.02-.03.03-.03.02-.03.02-.03.01-.03.02-.04.01-.03.02-.04.01-.03.01-.04v-.03l.01-.04V7Z"/></g><path fill="none" stroke="#EC6F1A" stroke-linecap="round" stroke-linejoin="round" stroke-width=".1" d="M8.7 10v-.07l-.01-.04v-.03l-.01-.04-.01-.03-.02-.04-.01-.03-.02-.04-.01-.03-.02-.03-.02-.03-.03-.03-.02-.03-.03-.02-.02-.03-.03-.02-.03-.03-.03-.02-.03-.02-.03-.01-.04-.02-.03-.01-.04-.02-.03-.01-.04-.01h-.03l-.04-.01h-.15l-.04.01h-.03l-.04.01-.03.01-.04.02-.03.01-.04.02-.03.01-.03.02-.03.02-.03.03-.03.02-.02.03-.03.02-.02.03-.03.03-.02.03-.02.03-.01.03-.02.04-.01.03-.02.04-.01.03-.01.04v.03l-.01.04v.15l.01.04v.03l.01.04.01.03.02.04.01.03.02.04.01.03.02.03.02.03.03.03.02.03.03.02.02.03.03.02.03.03.03.02.03.02.03.01.04.02.03.01.04.02.03.01.04.01h.03l.04.01h.15l.04-.01h.03l.04-.01.03-.01.04-.02.03-.01.04-.02.03-.01.03-.02.03-.02.03-.03.03-.02.02-.03.03-.02.02-.03.03-.03.02-.03.02-.03.01-.03.02-.04.01-.03.02-.04.01-.03.01-.04v-.03l.01-.04v-.07m0-.01v-.07l-.01-.04v-.03l-.01-.04-.01-.03-.02-.04-.01-.03-.02-.04-.01-.03-.02-.03-.02-.03-.03-.03-.02-.03-.03-.02-.02-.03-.03-.02-.03-.03-.03-.02-.03-.02-.03-.01-.04-.02-.03-.01-.04-.02-.03-.01-.04-.01h-.03l-.04-.01h-.15l-.04.01h-.03l-.04.01-.03.01-.04.02-.03.01-.04.02-.03.01-.03.02-.03.02-.03.03-.03.02-.02.03-.03.02-.02.03-.03.03-.02.03-.02.03-.01.03-.02.04-.01.03-.02.04-.01.03-.01.04v.03l-.01.04v.15l.01.04v.03l.01.04.01.03.02.04.01.03.02.04.01.03.02.03.02.03.03.03.02.03.03.02.02.03.03.02.03.03.03.02.03.02.03.01.04.02.03.01.04.02.03.01.04.01h.03l.04.01h.15l.04-.01h.03l.04-.01.03-.01.04-.02.03-.01.04-.02.03-.01.03-.02.03-.02.03-.03.03-.02.02-.03.03-.02.02-.03.03-.03.02-.03.02-.03.01-.03.02-.04.01-.03.02-.04.01-.03.01-.04v-.03l.01-.04v-.07" color="#000"/><g fill="none" stroke="#29C3F6" stroke-linecap="round" stroke-linejoin="round" stroke-width=".1" color="#000"><path d="M8.7 4.01v-.07l-.01-.04v-.03l-.01-.04-.01-.03-.02-.04-.01-.03-.02-.04-.01-.03-.02-.03-.02-.03-.03-.03-.02-.03-.03-.02-.02-.03-.03-.02-.03-.03-.03-.02-.03-.02-.03-.01-.04-.02-.03-.01-.04-.02-.03-.01-.04-.01h-.03l-.04-.01h-.15l-.04.01h-.03l-.04.01-.03.01-.04.02-.03.01-.04.02-.03.01-.03.02-.03.02-.03.03-.03.02-.02.03-.03.02-.02.03-.03.03-.02.03-.02.03-.01.03-.02.04-.01.03-.02.04-.01.03-.01.04v.03l-.01.04v.15l.01.04v.03l.01.04.01.03.02.04.01.03.02.04.01.03.02.03.02.03.03.03.02.03.03.02.02.03.03.02.03.03.03.02.03.02.03.01.04.02.03.01.04.02.03.01.04.01h.03l.04.01h.15l.04-.01h.03l.04-.01.03-.01.04-.02.03-.01.04-.02.03-.01.03-.02.03-.02.03-.03.03-.02.02-.03.03-.02.02-.03.03-.03.02-.03.02-.03.01-.03.02-.04.01-.03.02-.04.01-.03.01-.04v-.03l.01-.04v-.08Z"/><path d="M8.7 4.01v-.07l-.01-.04v-.03l-.01-.04-.01-.03-.02-.04-.01-.03-.02-.04-.01-.03-.02-.03-.02-.03-.03-.03-.02-.03-.03-.02-.02-.03-.03-.02-.03-.03-.03-.02-.03-.02-.03-.01-.04-.02-.03-.01-.04-.02-.03-.01-.04-.01h-.03l-.04-.01h-.15l-.04.01h-.03l-.04.01-.03.01-.04.02-.03.01-.04.02-.03.01-.03.02-.03.02-.03.03-.03.02-.02.03-.03.02-.02.03-.03.03-.02.03-.02.03-.01.03-.02.04-.01.03-.02.04-.01.03-.01.04v.03l-.01.04v.15l.01.04v.03l.01.04.01.03.02.04.01.03.02.04.01.03.02.03.02.03.03.03.02.03.03.02.02.03.03.02.03.03.03.02.03.02.03.01.04.02.03.01.04.02.03.01.04.01h.03l.04.01h.15l.04-.01h.03l.04-.01.03-.01.04-.02.03-.01.04-.02.03-.01.03-.02.03-.02.03-.03.03-.02.02-.03.03-.02.02-.03.03-.03.02-.03.02-.03.01-.03.02-.04.01-.03.02-.04.01-.03.01-.04v-.03l.01-.04v-.08Z"/></g><g fill="none" stroke="#2962FF" stroke-linecap="round" stroke-linejoin="round" stroke-width=".1" color="#000"><path d="M28.69 4.01v-.07l-.01-.04v-.03l-.01-.04-.01-.03-.02-.04-.01-.03-.02-.04-.01-.03-.02-.03-.02-.03-.03-.03-.02-.03-.03-.02-.02-.03-.03-.02-.03-.03-.03-.02-.03-.02-.03-.01-.04-.02-.03-.01-.04-.02-.03-.01-.04-.01h-.03l-.04-.01h-.15l-.04.01h-.03l-.04.01-.03.01-.04.02-.03.01-.04.02-.03.01-.03.02-.03.02-.03.03-.03.02-.02.03-.03.02-.02.03-.03.03-.02.03-.02.03-.01.03-.02.04-.01.03-.02.04-.01.03-.01.04v.03l-.01.04v.15l.01.04v.03l.01.04.01.03.02.04.01.03.02.04.01.03.02.03.02.03.03.03.02.03.03.02.02.03.03.02.03.03.03.02.03.02.03.01.04.02.03.01.04.02.03.01.04.01h.03l.04.01h.15l.04-.01h.03l.04-.01.03-.01.04-.02.03-.01.04-.02.03-.01.03-.02.03-.02.03-.03.03-.02.02-.03.03-.02.02-.03.03-.03.02-.03.02-.03.01-.03.02-.04.01-.03.02-.04.01-.03.01-.04v-.03l.01-.04v-.08Z"/><path d="M28.69 4.01v-.07l-.01-.04v-.03l-.01-.04-.01-.03-.02-.04-.01-.03-.02-.04-.01-.03-.02-.03-.02-.03-.03-.03-.02-.03-.03-.02-.02-.03-.03-.02-.03-.03-.03-.02-.03-.02-.03-.01-.04-.02-.03-.01-.04-.02-.03-.01-.04-.01h-.03l-.04-.01h-.15l-.04.01h-.03l-.04.01-.03.01-.04.02-.03.01-.04.02-.03.01-.03.02-.03.02-.03.03-.03.02-.02.03-.03.02-.02.03-.03.03-.02.03-.02.03-.01.03-.02.04-.01.03-.02.04-.01.03-.01.04v.03l-.01.04v.15l.01.04v.03l.01.04.01.03.02.04.01.03.02.04.01.03.02.03.02.03.03.03.02.03.03.02.02.03.03.02.03.03.03.02.03.02.03.01.04.02.03.01.04.02.03.01.04.01h.03l.04.01h.15l.04-.01h.03l.04-.01.03-.01.04-.02.03-.01.04-.02.03-.01.03-.02.03-.02.03-.03.03-.02.02-.03.03-.02.02-.03.03-.03.02-.03.02-.03.01-.03.02-.04.01-.03.02-.04.01-.03.01-.04v-.03l.01-.04v-.08Z"/></g><path fill="none" stroke="#EC6F1A" stroke-linecap="round" stroke-linejoin="round" stroke-width=".1" d="M28.69 10v-.07l-.01-.04v-.03l-.01-.04-.01-.03-.02-.04-.01-.03-.02-.04-.01-.03-.02-.03-.02-.03-.03-.03-.02-.03-.03-.02-.02-.03-.03-.02-.03-.03-.03-.02-.03-.02-.03-.01-.04-.02-.03-.01-.04-.02-.03-.01-.04-.01h-.03l-.04-.01h-.15l-.04.01h-.03l-.04.01-.03.01-.04.02-.03.01-.04.02-.03.01-.03.02-.03.02-.03.03-.03.02-.02.03-.03.02-.02.03-.03.03-.02.03-.02.03-.01.03-.02.04-.01.03-.02.04-.01.03-.01.04v.03l-.01.04v.15l.01.04v.03l.01.04.01.03.02.04.01.03.02.04.01.03.02.03.02.03.03.03.02.03.03.02.02.03.03.02.03.03.03.02.03.02.03.01.04.02.03.01.04.02.03.01.04.01h.03l.04.01h.15l.04-.01h.03l.04-.01.03-.01.04-.02.03-.01.04-.02.03-.01.03-.02.03-.02.03-.03.03-.02.02-.03.03-.02.02-.03.03-.03.02-.03.02-.03.01-.03.02-.04.01-.03.02-.04.01-.03.01-.04v-.03l.01-.04v-.07m0-.01v-.07l-.01-.04v-.03l-.01-.04-.01-.03-.02-.04-.01-.03-.02-.04-.01-.03-.02-.03-.02-.03-.03-.03-.02-.03-.03-.02-.02-.03-.03-.02-.03-.03-.03-.02-.03-.02-.03-.01-.04-.02-.03-.01-.04-.02-.03-.01-.04-.01h-.03l-.04-.01h-.15l-.04.01h-.03l-.04.01-.03.01-.04.02-.03.01-.04.02-.03.01-.03.02-.03.02-.03.03-.03.02-.02.03-.03.02-.02.03-.03.03-.02.03-.02.03-.01.03-.02.04-.01.03-.02.04-.01.03-.01.04v.03l-.01.04v.15l.01.04v.03l.01.04.01.03.02.04.01.03.02.04.01.03.02.03.02.03.03.03.02.03.03.02.02.03.03.02.03.03.03.02.03.02.03.01.04.02.03.01.04.02.03.01.04.01h.03l.04.01h.15l.04-.01h.03l.04-.01.03-.01.04-.02.03-.01.04-.02.03-.01.03-.02.03-.02.03-.03.03-.02.02-.03.03-.02.02-.03.03-.03.02-.03.02-.03.01-.03.02-.04.01-.03.02-.04.01-.03.01-.04v-.03l.01-.04v-.07" color="#000"/><g fill="none" stroke="#29C3F6" stroke-linecap="round" stroke-linejoin="round" stroke-width=".1" color="#000"><path d="M30.69 7v-.07l-.01-.04v-.03l-.01-.04-.01-.03-.02-.04-.01-.03-.02-.04-.01-.03-.02-.03-.02-.03-.03-.03-.02-.03-.03-.02-.02-.03-.03-.02-.03-.03-.03-.02-.03-.02-.03-.01-.04-.02-.03-.01-.04-.02-.03-.01-.04-.01h-.03l-.04-.01h-.15l-.04.01h-.03l-.04.01-.03.01-.04.02-.03.01-.04.02-.03.01-.03.02-.03.02-.03.03-.03.02-.02.03-.03.02-.02.03-.03.03-.02.03-.02.03-.01.03-.02.04-.01.03-.02.04-.01.03-.01.04v.03l-.01.04v.15l.01.04v.03l.01.04.01.03.02.04.01.03.02.04.01.03.02.03.02.03.03.03.02.03.03.02.02.03.03.02.03.03.03.02.03.02.03.01.04.02.03.01.04.02.03.01.04.01h.03l.04.01h.15l.04-.01h.03l.04-.01.03-.01.04-.02.03-.01.04-.02.03-.01.03-.02.03-.02.03-.03.03-.02.02-.03.03-.02.02-.03.03-.03.02-.03.02-.03.01-.03.02-.04.01-.03.02-.04.01-.03.01-.04v-.03l.01-.04V7Z"/><path d="M30.69 7v-.07l-.01-.04v-.03l-.01-.04-.01-.03-.02-.04-.01-.03-.02-.04-.01-.03-.02-.03-.02-.03-.03-.03-.02-.03-.03-.02-.02-.03-.03-.02-.03-.03-.03-.02-.03-.02-.03-.01-.04-.02-.03-.01-.04-.02-.03-.01-.04-.01h-.03l-.04-.01h-.15l-.04.01h-.03l-.04.01-.03.01-.04.02-.03.01-.04.02-.03.01-.03.02-.03.02-.03.03-.03.02-.02.03-.03.02-.02.03-.03.03-.02.03-.02.03-.01.03-.02.04-.01.03-.02.04-.01.03-.01.04v.03l-.01.04v.15l.01.04v.03l.01.04.01.03.02.04.01.03.02.04.01.03.02.03.02.03.03.03.02.03.03.02.02.03.03.02.03.03.03.02.03.02.03.01.04.02.03.01.04.02.03.01.04.01h.03l.04.01h.15l.04-.01h.03l.04-.01.03-.01.04-.02.03-.01.04-.02.03-.01.03-.02.03-.02.03-.03.03-.02.02-.03.03-.02.02-.03.03-.03.02-.03.02-.03.01-.03.02-.04.01-.03.02-.04.01-.03.01-.04v-.03l.01-.04V7Z"/></g></svg>