<svg xmlns="http://www.w3.org/2000/svg" viewBox="0 0 36 40"><path fill="none" d="M0 0h36v40H0z"/><path fill="none" d="M0 40h.75m35.24 0h-.75M0 39h.75m35.24 0h-.75M0 38h.75m35.24 0h-.75M0 37h.75m35.24 0h-.75M0 36h.75m35.24 0h-.75M0 35h.75m35.24 0h-.75M0 34h.75m35.24 0h-.75M0 33h.75m35.24 0h-.75M0 32h.75m35.24 0h-.75M0 31h.75m35.24 0h-.75M0 30h.75m35.24 0h-.75M0 29h.75m35.24 0h-.75M0 28h.75m35.24 0h-.75M0 27h.75m35.24 0h-.75M0 26h.75m35.24 0h-.75M0 25h.75m35.24 0h-.75M0 24h.75m35.24 0h-.75M0 23h.75m35.24 0h-.75M0 22h.75m35.24 0h-.75M0 21h.75m35.24 0h-.75M0 20h.75m35.24 0h-.75M0 19.01h.75m35.24 0h-.75M0 18.01h.75m35.24 0h-.75M0 17.01h.75m35.24 0h-.75M0 16.01h.75m35.24 0h-.75M0 15.01h.75m35.24 0h-.75M0 14.01h.75m35.24 0h-.75M0 13.01h.75m35.24 0h-.75M0 12.01h.75m35.24 0h-.75M0 11.01h.75m35.24 0h-.75M0 10.01h.75m35.24 0h-.75M0 9.01h.75m35.24 0h-.75M0 8.01h.75m35.24 0h-.75M0 7.01h.75m35.24 0h-.75M0 6.01h.75m35.24 0h-.75M0 5.01h.75m35.24 0h-.75M0 4.01h.75m35.24 0h-.75M0 3.01h.75m35.24 0h-.75M0 2.01h.75m35.24 0h-.75M0 1.01h.75m35.24 0h-.75M0 .01h.75m35.24 0h-.75M0 40v-.75M0 .01v.75M1 40v-.75M1 .01v.75M2 40v-.75M2 .01v.75M3 40v-.75M3 .01v.75M4 40v-.75M4 .01v.75M5 40v-.75M5 .01v.75M6 40v-.75M6 .01v.75M7 40v-.75M7 .01v.75M8 40v-.75M8 .01v.75M9 40v-.75M9 .01v.75M10 40v-.75M10 .01v.75M11 40v-.75M11 .01v.75M12 40v-.75M12 .01v.75M13 40v-.75M13 .01v.75M14 40v-.75M14 .01v.75M15 40v-.75M15 .01v.75M16 40v-.75M16 .01v.75M17 40v-.75M17 .01v.75M18 40v-.75M18 .01v.75M18.99 40v-.75m0-39.24v.75m1 39.24v-.75m0-39.24v.75m1 39.24v-.75m0-39.24v.75m1 39.24v-.75m0-39.24v.75m1 39.24v-.75m0-39.24v.75m1 39.24v-.75m0-39.24v.75m1 39.24v-.75m0-39.24v.75m1 39.24v-.75m0-39.24v.75m1 39.24v-.75m0-39.24v.75m1 39.24v-.75m0-39.24v.75m1 39.24v-.75m0-39.24v.75m1 39.24v-.75m0-39.24v.75m1 39.24v-.75m0-39.24v.75m1 39.24v-.75m0-39.24v.75m1 39.24v-.75m0-39.24v.75m1 39.24v-.75m0-39.24v.75m1 39.24v-.75m0-39.24v.75m1 39.24v-.75m0-39.24v.75" color="#000"/><g fill="none" stroke="#2962FF" stroke-linecap="round" stroke-linejoin="round" stroke-width=".1" color="#000"><path d="M2.89 5.36 3.5 4.3l.6 1.06H2.89Z"/>Z<path d="M2.89 5.36 3.5 4.3l.6 1.06H2.89Z"/>Z</g><g fill="none" stroke="#2962FF" stroke-linecap="round" stroke-linejoin="round" stroke-width=".1" color="#000"><path d="M5.89 8.36 6.5 7.3l.6 1.06H5.89Z"/>Z<path d="M5.89 8.36 6.5 7.3l.6 1.06H5.89Z"/>Z</g><g fill="none" stroke="#2962FF" stroke-linecap="round" stroke-linejoin="round" stroke-width=".1" color="#000"><path d="m8.89 11.36.61-1.06.6 1.06H8.89Z"/>Z<path d="m8.89 11.36.61-1.06.6 1.06H8.89Z"/>Z</g><g fill="none" stroke="#2962FF" stroke-linecap="round" stroke-linejoin="round" stroke-width=".1" color="#000"><path d="m11.89 14.36.61-1.06.6 1.06h-1.21Z"/>Z<path d="m11.89 14.36.61-1.06.6 1.06h-1.21Z"/>Z</g><g fill="none" stroke="#EC6F1A" stroke-linecap="round" stroke-linejoin="round" stroke-width=".1" color="#000"><path d="m31.89 5.36.6-1.06.61 1.06h-1.21Z"/>Z<path d="m31.89 5.36.6-1.06.61 1.06h-1.21Z"/>Z</g><g fill="none" stroke="#EC6F1A" stroke-linecap="round" stroke-linejoin="round" stroke-width=".1" color="#000"><path d="m28.89 8.36.6-1.06.61 1.06h-1.21Z"/>Z<path d="m28.89 8.36.6-1.06.61 1.06h-1.21Z"/>Z</g><g fill="none" stroke="#EC6F1A" stroke-linecap="round" stroke-linejoin="round" stroke-width=".1" color="#000"><path d="m25.89 11.36.6-1.06.61 1.06h-1.21Z"/>Z<path d="m25.89 11.36.6-1.06.61 1.06h-1.21Z"/>Z</g><g fill="none" stroke="#2962FF" stroke-linecap="round" stroke-linejoin="round" stroke-width=".1" color="#000"><path d="M15.39 21.36 16 20.3l.6 1.06h-1.21Z"/>Z<path d="M15.39 21.36 16 20.3l.6 1.06h-1.21Z"/>Z</g><g fill="none" stroke="#2962FF" stroke-linecap="round" stroke-linejoin="round" stroke-width=".1" color="#000"><path d="m18.39 24.36.6-1.06.61 1.06h-1.21Z"/>Z<path d="m18.39 24.36.6-1.06.61 1.06h-1.21Z"/>Z</g><g fill="none" stroke="#2962FF" stroke-linecap="round" stroke-linejoin="round" stroke-width=".1" color="#000"><path d="m15.39 33.36.61-1.07.6 1.07h-1.21Z"/>Z<path d="m15.39 33.36.61-1.07.6 1.07h-1.21Z"/>Z</g><g fill="none" stroke="#2962FF" stroke-linecap="round" stroke-linejoin="round" stroke-width=".1" color="#000"><path d="m18.39 36.35.6-1.06.61 1.06h-1.21Z"/>Z<path d="m18.39 36.35.6-1.06.61 1.06h-1.21Z"/>Z</g><g fill="none" stroke="#EC6F1A" stroke-linecap="round" stroke-linejoin="round" stroke-width=".1" color="#000"><path d="m27.39 27.36.6-1.06.61 1.06h-1.21Z"/>Z<path d="m27.39 27.36.6-1.06.61 1.06h-1.21Z"/>Z</g><g fill="none" stroke="#EC6F1A" stroke-linecap="round" stroke-linejoin="round" stroke-width=".1" color="#000"><path d="m24.39 30.36.6-1.06.61 1.06h-1.21Z"/>Z<path d="m24.39 30.36.6-1.06.61 1.06h-1.21Z"/>Z</g><g fill="none" stroke="currentColor" stroke-linecap="round" stroke-linejoin="round" stroke-width=".1" color="#000"><path stroke="#EC6F1A" d="m27.39 39.35.6-1.06.61 1.06h-1.21Z"/>Z<path stroke="#EC6F1A" d="m27.39 39.35.6-1.06.61 1.06h-1.21Z"/>Z<text fill="#000" stroke="none" font-family="KaTeX_Typewriter" font-size="1" text-anchor="middle" transform="translate(6.5 .84)"><tspan>9</tspan></text><text fill="#000" stroke="none" font-family="KaTeX_Typewriter" font-size="1" text-anchor="middle" transform="translate(9.5 3.84)"><tspan>8</tspan></text><text fill="#000" stroke="none" font-family="KaTeX_Typewriter" font-size="1" text-anchor="middle" transform="translate(12.5 6.84)"><tspan>5</tspan></text><text fill="#000" stroke="none" font-family="KaTeX_Typewriter" font-size="1" text-anchor="middle" transform="translate(15.5 9.84)"><tspan>4</tspan></text><text fill="#000" stroke="none" font-family="KaTeX_Typewriter" font-size="1" text-anchor="middle" transform="translate(6.5 2.34)"><tspan>A</tspan></text><text fill="#000" stroke="none" font-family="KaTeX_Typewriter" font-size="1" text-anchor="middle" transform="translate(9.5 5.34)"><tspan>B</tspan></text><text fill="#000" stroke="none" font-family="KaTeX_Typewriter" font-size="1" text-anchor="middle" transform="translate(12.5 8.34)"><tspan>C</tspan></text><text fill="#000" stroke="none" font-family="KaTeX_Typewriter" font-size="1" text-anchor="middle" transform="translate(15.5 11.34)"><tspan>D</tspan></text><text fill="#000" stroke="none" font-family="KaTeX_Typewriter" font-size="1" text-anchor="middle" transform="translate(29.49 .84)"><tspan>7</tspan></text><text fill="#000" stroke="none" font-family="KaTeX_Typewriter" font-size="1" text-anchor="middle" transform="translate(26.49 3.84)"><tspan>6</tspan></text><text fill="#000" stroke="none" font-family="KaTeX_Typewriter" font-size="1" text-anchor="middle" transform="translate(23.49 6.84)"><tspan>3</tspan></text><text fill="#000" stroke="none" font-family="KaTeX_Typewriter" font-size="1" text-anchor="middle" transform="translate(29.49 2.34)"><tspan>Z</tspan></text><text fill="#000" stroke="none" font-family="KaTeX_Typewriter" font-size="1" text-anchor="middle" transform="translate(26.49 5.34)"><tspan>Y</tspan></text><text fill="#000" stroke="none" font-family="KaTeX_Typewriter" font-size="1" text-anchor="middle" transform="translate(23.49 8.34)"><tspan>X</tspan></text><text fill="#000" stroke="none" font-family="KaTeX_Typewriter" font-size="1" text-anchor="middle" transform="translate(18.99 18.34)"><tspan>A</tspan></text><text fill="#000" stroke="none" font-family="KaTeX_Typewriter" font-size="1" text-anchor="middle" transform="translate(21.99 21.33)"><tspan>B</tspan></text><text fill="#000" stroke="none" font-family="KaTeX_Typewriter" font-size="1" text-anchor="middle" transform="translate(24.99 24.33)"><tspan>Z</tspan></text><text fill="#000" stroke="none" font-family="KaTeX_Typewriter" font-size="1" text-anchor="middle" transform="translate(21.99 27.33)"><tspan>Y</tspan></text><text fill="#000" stroke="none" font-family="KaTeX_Typewriter" font-size="1" text-anchor="middle" transform="translate(18.99 30.33)"><tspan>C</tspan></text><text fill="#000" stroke="none" font-family="KaTeX_Typewriter" font-size="1" text-anchor="middle" transform="translate(21.99 33.33)"><tspan>D</tspan></text><text fill="#000" stroke="none" font-family="KaTeX_Typewriter" font-size="1" text-anchor="middle" transform="translate(24.99 36.33)"><tspan>X</tspan></text><text fill="#000" stroke="none" font-family="KaTeX_Typewriter" font-size="1" text-anchor="middle" transform="translate(18.99 16.84)"><tspan>9</tspan></text><text fill="#000" stroke="none" font-family="KaTeX_Typewriter" font-size="1" text-anchor="middle" transform="translate(21.99 19.84)"><tspan>8</tspan></text><text fill="#000" stroke="none" font-family="KaTeX_Typewriter" font-size="1" text-anchor="middle" transform="translate(24.99 22.83)"><tspan>7</tspan></text><text fill="#000" stroke="none" font-family="KaTeX_Typewriter" font-size="1" text-anchor="middle" transform="translate(21.99 25.83)"><tspan>6</tspan></text><text fill="#000" stroke="none" font-family="KaTeX_Typewriter" font-size="1" text-anchor="middle" transform="translate(18.99 28.83)"><tspan>5</tspan></text><text fill="#000" stroke="none" font-family="KaTeX_Typewriter" font-size="1" text-anchor="middle" transform="translate(21.99 31.83)"><tspan>4</tspan></text><text fill="#000" stroke="none" font-family="KaTeX_Typewriter" font-size="1" text-anchor="middle" transform="translate(24.99 34.83)"><tspan>3</tspan></text><path fill="#000" stroke="none" d="m8.55 4.04.12-.12.09.33-.33-.09.12-.12z" shape-rendering="crispEdges"/><path stroke="#000" d="m8.55 4.04.12-.12.09.33-.33-.09.12-.12ZM7.26 2.75l1.29 1.29"/><path fill="#000" stroke="none" d="m11.55 7.04.12-.12.09.33-.33-.09.12-.12z" shape-rendering="crispEdges"/><path stroke="#000" d="m11.55 7.04.12-.12.09.33-.33-.09.12-.12Zm-1.29-1.29 1.29 1.29"/><path fill="#000" stroke="none" d="m14.55 10.04.12-.12.09.33-.33-.09.12-.12z" shape-rendering="crispEdges"/><path stroke="#000" d="m14.55 10.04.12-.12.09.33-.33-.09.12-.12Zm-1.29-1.29 1.29 1.29"/><path stroke="#2962FF" d="m5.76 2.75-1.5 1.5m4.5 1.5-1.5 1.5m4.5 1.5-1.5 1.5m4.5 1.5-1.5 1.5"/><path fill="#000" stroke="none" d="m27.46 4.04.12.12-.33.09.09-.33.12.12z" shape-rendering="crispEdges"/><path stroke="#000" d="m27.46 4.04.12.12-.33.09.09-.33.12.12Zm1.29-1.29-1.29 1.29"/><path fill="#000" stroke="none" d="m24.46 7.04.12.12-.33.09.09-.33.12.12z" shape-rendering="crispEdges"/><path stroke="#000" d="m24.46 7.04.12.12-.33.09.09-.33.12.12Zm1.29-1.29-1.29 1.29"/><path stroke="#EC6F1A" d="m30.25 2.75 1.5 1.5m-4.5 1.5 1.5 1.5m-4.5 1.5 1.5 1.5"/><path stroke="#000" d="m19.75 18.75 1.5 1.49m1.5 1.5 1.5 1.5m0 1.5-1.5 1.5m-1.5 1.5-1.5 1.5m0 1.5 1.5 1.5m1.5 1.5 1.5 1.5"/><path stroke="#2962FF" d="m18.25 18.75-1.49 1.49m4.49 1.5-1.5 1.5"/><path stroke="#EC6F1A" d="m25.75 24.74 1.5 1.5m-4.5 1.5 1.5 1.5"/><path stroke="#2962FF" d="m18.25 30.74-1.49 1.5m4.49 1.5-1.5 1.5"/><path stroke="#EC6F1A" d="m25.75 36.74 1.5 1.5"/></g><g fill="none" stroke="#2962FF" stroke-linecap="round" stroke-linejoin="round" stroke-width=".1" color="#000"><path d="M7.2 2.01v-.07l-.01-.04v-.03l-.01-.04-.01-.03-.02-.04-.01-.03-.02-.04-.01-.03-.02-.03-.02-.03-.03-.03-.02-.03-.03-.02-.02-.03-.03-.02-.03-.03-.03-.02-.03-.02-.03-.01-.04-.02-.03-.01-.04-.02-.03-.01-.04-.01h-.03l-.04-.01h-.15l-.04.01h-.03l-.04.01-.03.01-.04.02-.03.01-.04.02-.03.01-.03.02-.03.02-.03.03-.03.02-.02.03-.03.02-.02.03-.03.03-.02.03-.02.03-.01.03-.02.04-.01.03-.02.04-.01.03-.01.04v.03l-.01.04v.15l.01.04v.03l.01.04.01.03.02.04.01.03.02.04.01.03.02.03.02.03.03.03.02.03.03.02.02.03.03.02.03.03.03.02.03.02.03.01.04.02.03.01.04.02.03.01.04.01h.03l.04.01h.15l.04-.01h.03l.04-.01.03-.01.04-.02.03-.01.04-.02.03-.01.03-.02.03-.02.03-.03.03-.02.02-.03.03-.02.02-.03.03-.03.02-.03.02-.03.01-.03.02-.04.01-.03.02-.04.01-.03.01-.04v-.03l.01-.04v-.08Z"/><path d="M7.2 2.01v-.07l-.01-.04v-.03l-.01-.04-.01-.03-.02-.04-.01-.03-.02-.04-.01-.03-.02-.03-.02-.03-.03-.03-.02-.03-.03-.02-.02-.03-.03-.02-.03-.03-.03-.02-.03-.02-.03-.01-.04-.02-.03-.01-.04-.02-.03-.01-.04-.01h-.03l-.04-.01h-.15l-.04.01h-.03l-.04.01-.03.01-.04.02-.03.01-.04.02-.03.01-.03.02-.03.02-.03.03-.03.02-.02.03-.03.02-.02.03-.03.03-.02.03-.02.03-.01.03-.02.04-.01.03-.02.04-.01.03-.01.04v.03l-.01.04v.15l.01.04v.03l.01.04.01.03.02.04.01.03.02.04.01.03.02.03.02.03.03.03.02.03.03.02.02.03.03.02.03.03.03.02.03.02.03.01.04.02.03.01.04.02.03.01.04.01h.03l.04.01h.15l.04-.01h.03l.04-.01.03-.01.04-.02.03-.01.04-.02.03-.01.03-.02.03-.02.03-.03.03-.02.02-.03.03-.02.02-.03.03-.03.02-.03.02-.03.01-.03.02-.04.01-.03.02-.04.01-.03.01-.04v-.03l.01-.04v-.08Z"/></g><g fill="none" stroke="#2962FF" stroke-linecap="round" stroke-linejoin="round" stroke-width=".1" color="#000"><path d="M10.2 5.01v-.07l-.01-.04v-.03l-.01-.04-.01-.03-.02-.04-.01-.03-.02-.04-.01-.03-.02-.03-.02-.03-.03-.03-.02-.03-.03-.02-.02-.03-.03-.02-.03-.03-.03-.02-.03-.02-.03-.01-.04-.02-.03-.01-.04-.02-.03-.01-.04-.01h-.03l-.04-.01h-.15l-.04.01h-.03l-.04.01-.03.01-.04.02-.03.01-.04.02-.03.01-.03.02-.03.02-.03.03-.03.02-.02.03-.03.02-.02.03-.03.03-.02.03-.02.03-.01.03-.02.04-.01.03-.02.04-.01.03-.01.04v.03l-.01.04v.15l.01.04v.03l.01.04.01.03.02.04.01.03.02.04.01.03.02.03.02.03.03.03.02.03.03.02.02.03.03.02.03.03.03.02.03.02.03.01.04.02.03.01.04.02.03.01.04.01h.03l.04.01h.15l.04-.01h.03l.04-.01.03-.01.04-.02.03-.01.04-.02.03-.01.03-.02.03-.02.03-.03.03-.02.02-.03.03-.02.02-.03.03-.03.02-.03.02-.03.01-.03.02-.04.01-.03.02-.04.01-.03.01-.04v-.03l.01-.04v-.08Z"/><path d="M10.2 5.01v-.07l-.01-.04v-.03l-.01-.04-.01-.03-.02-.04-.01-.03-.02-.04-.01-.03-.02-.03-.02-.03-.03-.03-.02-.03-.03-.02-.02-.03-.03-.02-.03-.03-.03-.02-.03-.02-.03-.01-.04-.02-.03-.01-.04-.02-.03-.01-.04-.01h-.03l-.04-.01h-.15l-.04.01h-.03l-.04.01-.03.01-.04.02-.03.01-.04.02-.03.01-.03.02-.03.02-.03.03-.03.02-.02.03-.03.02-.02.03-.03.03-.02.03-.02.03-.01.03-.02.04-.01.03-.02.04-.01.03-.01.04v.03l-.01.04v.15l.01.04v.03l.01.04.01.03.02.04.01.03.02.04.01.03.02.03.02.03.03.03.02.03.03.02.02.03.03.02.03.03.03.02.03.02.03.01.04.02.03.01.04.02.03.01.04.01h.03l.04.01h.15l.04-.01h.03l.04-.01.03-.01.04-.02.03-.01.04-.02.03-.01.03-.02.03-.02.03-.03.03-.02.02-.03.03-.02.02-.03.03-.03.02-.03.02-.03.01-.03.02-.04.01-.03.02-.04.01-.03.01-.04v-.03l.01-.04v-.08Z"/></g><g fill="none" stroke="#2962FF" stroke-linecap="round" stroke-linejoin="round" stroke-width=".1" color="#000"><path d="M13.2 8.01v-.07l-.01-.04v-.03l-.01-.04-.01-.03-.02-.04-.01-.03-.02-.04-.01-.03-.02-.03-.02-.03-.03-.03-.02-.03-.03-.02-.02-.03-.03-.02-.03-.03-.03-.02-.03-.02-.03-.01-.04-.02-.03-.01-.04-.02-.03-.01-.04-.01h-.03l-.04-.01h-.15l-.04.01h-.03l-.04.01-.03.01-.04.02-.03.01-.04.02-.03.01-.03.02-.03.02-.03.03-.03.02-.02.03-.03.02-.02.03-.03.03-.02.03-.02.03-.01.03-.02.04-.01.03-.02.04-.01.03-.01.04v.03l-.01.04v.15l.01.04v.03l.01.04.01.03.02.04.01.03.02.04.01.03.02.03.02.03.03.03.02.03.03.02.02.03.03.02.03.03.03.02.03.02.03.01.04.02.03.01.04.02.03.01.04.01h.03l.04.01h.15l.04-.01h.03l.04-.01.03-.01.04-.02.03-.01.04-.02.03-.01.03-.02.03-.02.03-.03.03-.02.02-.03.03-.02.02-.03.03-.03.02-.03.02-.03.01-.03.02-.04.01-.03.02-.04.01-.03.01-.04v-.03l.01-.04v-.08Z"/><path d="M13.2 8.01v-.07l-.01-.04v-.03l-.01-.04-.01-.03-.02-.04-.01-.03-.02-.04-.01-.03-.02-.03-.02-.03-.03-.03-.02-.03-.03-.02-.02-.03-.03-.02-.03-.03-.03-.02-.03-.02-.03-.01-.04-.02-.03-.01-.04-.02-.03-.01-.04-.01h-.03l-.04-.01h-.15l-.04.01h-.03l-.04.01-.03.01-.04.02-.03.01-.04.02-.03.01-.03.02-.03.02-.03.03-.03.02-.02.03-.03.02-.02.03-.03.03-.02.03-.02.03-.01.03-.02.04-.01.03-.02.04-.01.03-.01.04v.03l-.01.04v.15l.01.04v.03l.01.04.01.03.02.04.01.03.02.04.01.03.02.03.02.03.03.03.02.03.03.02.02.03.03.02.03.03.03.02.03.02.03.01.04.02.03.01.04.02.03.01.04.01h.03l.04.01h.15l.04-.01h.03l.04-.01.03-.01.04-.02.03-.01.04-.02.03-.01.03-.02.03-.02.03-.03.03-.02.02-.03.03-.02.02-.03.03-.03.02-.03.02-.03.01-.03.02-.04.01-.03.02-.04.01-.03.01-.04v-.03l.01-.04v-.08Z"/></g><g fill="none" stroke="#2962FF" stroke-linecap="round" stroke-linejoin="round" stroke-width=".1" color="#000"><path d="M16.2 11.01v-.07l-.01-.04v-.03l-.01-.04-.01-.03-.02-.04-.01-.03-.02-.04-.01-.03-.02-.03-.02-.03-.03-.03-.02-.03-.03-.02-.02-.03-.03-.02-.03-.03-.03-.02-.03-.02-.03-.01-.04-.02-.03-.01-.04-.02-.03-.01-.04-.01h-.03l-.04-.01h-.15l-.04.01h-.03l-.04.01-.03.01-.04.02-.03.01-.04.02-.03.01-.03.02-.03.02-.03.03-.03.02-.02.03-.03.02-.02.03-.03.03-.02.03-.02.03-.01.03-.02.04-.01.03-.02.04-.01.03-.01.04v.03l-.01.04v.15l.01.04v.03l.01.04.01.03.02.04.01.03.02.04.01.03.02.03.02.03.03.03.02.03.03.02.02.03.03.02.03.03.03.02.03.02.03.01.04.02.03.01.04.02.03.01.04.01h.03l.04.01h.15l.04-.01h.03l.04-.01.03-.01.04-.02.03-.01.04-.02.03-.01.03-.02.03-.02.03-.03.03-.02.02-.03.03-.02.02-.03.03-.03.02-.03.02-.03.01-.03.02-.04.01-.03.02-.04.01-.03.01-.04v-.03l.01-.04v-.08Z"/><path d="M16.2 11.01v-.07l-.01-.04v-.03l-.01-.04-.01-.03-.02-.04-.01-.03-.02-.04-.01-.03-.02-.03-.02-.03-.03-.03-.02-.03-.03-.02-.02-.03-.03-.02-.03-.03-.03-.02-.03-.02-.03-.01-.04-.02-.03-.01-.04-.02-.03-.01-.04-.01h-.03l-.04-.01h-.15l-.04.01h-.03l-.04.01-.03.01-.04.02-.03.01-.04.02-.03.01-.03.02-.03.02-.03.03-.03.02-.02.03-.03.02-.02.03-.03.03-.02.03-.02.03-.01.03-.02.04-.01.03-.02.04-.01.03-.01.04v.03l-.01.04v.15l.01.04v.03l.01.04.01.03.02.04.01.03.02.04.01.03.02.03.02.03.03.03.02.03.03.02.02.03.03.02.03.03.03.02.03.02.03.01.04.02.03.01.04.02.03.01.04.01h.03l.04.01h.15l.04-.01h.03l.04-.01.03-.01.04-.02.03-.01.04-.02.03-.01.03-.02.03-.02.03-.03.03-.02.02-.03.03-.02.02-.03.03-.03.02-.03.02-.03.01-.03.02-.04.01-.03.02-.04.01-.03.01-.04v-.03l.01-.04v-.08Z"/></g><g fill="none" stroke="#EC6F1A" stroke-linecap="round" stroke-linejoin="round" stroke-width=".1" color="#000"><path d="M24.19 8.01v-.07l-.01-.04v-.03l-.01-.04-.01-.03-.02-.04-.01-.03-.02-.04-.01-.03-.02-.03-.02-.03-.03-.03-.02-.03-.03-.02-.02-.03-.03-.02-.03-.03-.03-.02-.03-.02-.03-.01-.04-.02-.03-.01-.04-.02-.03-.01-.04-.01h-.03l-.04-.01h-.15l-.04.01h-.03l-.04.01-.03.01-.04.02-.03.01-.04.02-.03.01-.03.02-.03.02-.03.03-.03.02-.02.03-.03.02-.02.03-.03.03-.02.03-.02.03-.01.03-.02.04-.01.03-.02.04-.01.03-.01.04v.03l-.01.04v.15l.01.04v.03l.01.04.01.03.02.04.01.03.02.04.01.03.02.03.02.03.03.03.02.03.03.02.02.03.03.02.03.03.03.02.03.02.03.01.04.02.03.01.04.02.03.01.04.01h.03l.04.01h.15l.04-.01h.03l.04-.01.03-.01.04-.02.03-.01.04-.02.03-.01.03-.02.03-.02.03-.03.03-.02.02-.03.03-.02.02-.03.03-.03.02-.03.02-.03.01-.03.02-.04.01-.03.02-.04.01-.03.01-.04v-.03l.01-.04v-.08Z"/><path d="M24.19 8.01v-.07l-.01-.04v-.03l-.01-.04-.01-.03-.02-.04-.01-.03-.02-.04-.01-.03-.02-.03-.02-.03-.03-.03-.02-.03-.03-.02-.02-.03-.03-.02-.03-.03-.03-.02-.03-.02-.03-.01-.04-.02-.03-.01-.04-.02-.03-.01-.04-.01h-.03l-.04-.01h-.15l-.04.01h-.03l-.04.01-.03.01-.04.02-.03.01-.04.02-.03.01-.03.02-.03.02-.03.03-.03.02-.02.03-.03.02-.02.03-.03.03-.02.03-.02.03-.01.03-.02.04-.01.03-.02.04-.01.03-.01.04v.03l-.01.04v.15l.01.04v.03l.01.04.01.03.02.04.01.03.02.04.01.03.02.03.02.03.03.03.02.03.03.02.02.03.03.02.03.03.03.02.03.02.03.01.04.02.03.01.04.02.03.01.04.01h.03l.04.01h.15l.04-.01h.03l.04-.01.03-.01.04-.02.03-.01.04-.02.03-.01.03-.02.03-.02.03-.03.03-.02.02-.03.03-.02.02-.03.03-.03.02-.03.02-.03.01-.03.02-.04.01-.03.02-.04.01-.03.01-.04v-.03l.01-.04v-.08Z"/></g><g fill="none" stroke="#EC6F1A" stroke-linecap="round" stroke-linejoin="round" stroke-width=".1" color="#000"><path d="M27.19 5.01v-.07l-.01-.04v-.03l-.01-.04-.01-.03-.02-.04-.01-.03-.02-.04-.01-.03-.02-.03-.02-.03-.03-.03-.02-.03-.03-.02-.02-.03-.03-.02-.03-.03-.03-.02-.03-.02-.03-.01-.04-.02-.03-.01-.04-.02-.03-.01-.04-.01h-.03l-.04-.01h-.15l-.04.01h-.03l-.04.01-.03.01-.04.02-.03.01-.04.02-.03.01-.03.02-.03.02-.03.03-.03.02-.02.03-.03.02-.02.03-.03.03-.02.03-.02.03-.01.03-.02.04-.01.03-.02.04-.01.03-.01.04v.03l-.01.04v.15l.01.04v.03l.01.04.01.03.02.04.01.03.02.04.01.03.02.03.02.03.03.03.02.03.03.02.02.03.03.02.03.03.03.02.03.02.03.01.04.02.03.01.04.02.03.01.04.01h.03l.04.01h.15l.04-.01h.03l.04-.01.03-.01.04-.02.03-.01.04-.02.03-.01.03-.02.03-.02.03-.03.03-.02.02-.03.03-.02.02-.03.03-.03.02-.03.02-.03.01-.03.02-.04.01-.03.02-.04.01-.03.01-.04v-.03l.01-.04v-.08Z"/><path d="M27.19 5.01v-.07l-.01-.04v-.03l-.01-.04-.01-.03-.02-.04-.01-.03-.02-.04-.01-.03-.02-.03-.02-.03-.03-.03-.02-.03-.03-.02-.02-.03-.03-.02-.03-.03-.03-.02-.03-.02-.03-.01-.04-.02-.03-.01-.04-.02-.03-.01-.04-.01h-.03l-.04-.01h-.15l-.04.01h-.03l-.04.01-.03.01-.04.02-.03.01-.04.02-.03.01-.03.02-.03.02-.03.03-.03.02-.02.03-.03.02-.02.03-.03.03-.02.03-.02.03-.01.03-.02.04-.01.03-.02.04-.01.03-.01.04v.03l-.01.04v.15l.01.04v.03l.01.04.01.03.02.04.01.03.02.04.01.03.02.03.02.03.03.03.02.03.03.02.02.03.03.02.03.03.03.02.03.02.03.01.04.02.03.01.04.02.03.01.04.01h.03l.04.01h.15l.04-.01h.03l.04-.01.03-.01.04-.02.03-.01.04-.02.03-.01.03-.02.03-.02.03-.03.03-.02.02-.03.03-.02.02-.03.03-.03.02-.03.02-.03.01-.03.02-.04.01-.03.02-.04.01-.03.01-.04v-.03l.01-.04v-.08Z"/></g><g fill="none" stroke="#EC6F1A" stroke-linecap="round" stroke-linejoin="round" stroke-width=".1" color="#000"><path d="M30.19 2.01v-.07l-.01-.04v-.03l-.01-.04-.01-.03-.02-.04-.01-.03-.02-.04-.01-.03-.02-.03-.02-.03-.03-.03-.02-.03-.03-.02-.02-.03-.03-.02-.03-.03-.03-.02-.03-.02-.03-.01-.04-.02-.03-.01-.04-.02-.03-.01-.04-.01h-.03l-.04-.01h-.15l-.04.01h-.03l-.04.01-.03.01-.04.02-.03.01-.04.02-.03.01-.03.02-.03.02-.03.03-.03.02-.02.03-.03.02-.02.03-.03.03-.02.03-.02.03-.01.03-.02.04-.01.03-.02.04-.01.03-.01.04v.03l-.01.04v.15l.01.04v.03l.01.04.01.03.02.04.01.03.02.04.01.03.02.03.02.03.03.03.02.03.03.02.02.03.03.02.03.03.03.02.03.02.03.01.04.02.03.01.04.02.03.01.04.01h.03l.04.01h.15l.04-.01h.03l.04-.01.03-.01.04-.02.03-.01.04-.02.03-.01.03-.02.03-.02.03-.03.03-.02.02-.03.03-.02.02-.03.03-.03.02-.03.02-.03.01-.03.02-.04.01-.03.02-.04.01-.03.01-.04v-.03l.01-.04v-.08Z"/><path d="M30.19 2.01v-.07l-.01-.04v-.03l-.01-.04-.01-.03-.02-.04-.01-.03-.02-.04-.01-.03-.02-.03-.02-.03-.03-.03-.02-.03-.03-.02-.02-.03-.03-.02-.03-.03-.03-.02-.03-.02-.03-.01-.04-.02-.03-.01-.04-.02-.03-.01-.04-.01h-.03l-.04-.01h-.15l-.04.01h-.03l-.04.01-.03.01-.04.02-.03.01-.04.02-.03.01-.03.02-.03.02-.03.03-.03.02-.02.03-.03.02-.02.03-.03.03-.02.03-.02.03-.01.03-.02.04-.01.03-.02.04-.01.03-.01.04v.03l-.01.04v.15l.01.04v.03l.01.04.01.03.02.04.01.03.02.04.01.03.02.03.02.03.03.03.02.03.03.02.02.03.03.02.03.03.03.02.03.02.03.01.04.02.03.01.04.02.03.01.04.01h.03l.04.01h.15l.04-.01h.03l.04-.01.03-.01.04-.02.03-.01.04-.02.03-.01.03-.02.03-.02.03-.03.03-.02.02-.03.03-.02.02-.03.03-.03.02-.03.02-.03.01-.03.02-.04.01-.03.02-.04.01-.03.01-.04v-.03l.01-.04v-.08Z"/></g><g fill="none" stroke="#2962FF" stroke-linecap="round" stroke-linejoin="round" stroke-width=".1" color="#000"><path d="M19.69 18.01v-.07l-.01-.04v-.03l-.01-.04-.01-.03-.02-.04-.01-.03-.02-.04-.01-.03-.02-.03-.02-.03-.03-.03-.02-.03-.03-.02-.02-.03-.03-.02-.03-.03-.03-.02-.03-.02-.03-.01-.04-.02-.03-.01-.04-.02-.03-.01-.04-.01h-.03l-.04-.01h-.15l-.04.01h-.03l-.04.01-.03.01-.04.02-.03.01-.04.02-.03.01-.03.02-.03.02-.03.03-.03.02-.02.03-.03.02-.02.03-.03.03-.02.03-.02.03-.01.03-.02.04-.01.03-.02.04-.01.03-.01.04v.03l-.01.04v.15l.01.04v.03l.01.04.01.03.02.04.01.03.02.04.01.03.02.03.02.03.03.03.02.03.03.02.02.03.03.02.03.03.03.02.03.02.03.01.04.02.03.01.04.02.03.01.04.01h.03l.04.01h.15l.04-.01h.03l.04-.01.03-.01.04-.02.03-.01.04-.02.03-.01.03-.02.03-.02.03-.03.03-.02.02-.03.03-.02.02-.03.03-.03.02-.03.02-.03.01-.03.02-.04.01-.03.02-.04.01-.03.01-.04v-.03l.01-.04v-.08Z"/><path d="M19.69 18.01v-.07l-.01-.04v-.03l-.01-.04-.01-.03-.02-.04-.01-.03-.02-.04-.01-.03-.02-.03-.02-.03-.03-.03-.02-.03-.03-.02-.02-.03-.03-.02-.03-.03-.03-.02-.03-.02-.03-.01-.04-.02-.03-.01-.04-.02-.03-.01-.04-.01h-.03l-.04-.01h-.15l-.04.01h-.03l-.04.01-.03.01-.04.02-.03.01-.04.02-.03.01-.03.02-.03.02-.03.03-.03.02-.02.03-.03.02-.02.03-.03.03-.02.03-.02.03-.01.03-.02.04-.01.03-.02.04-.01.03-.01.04v.03l-.01.04v.15l.01.04v.03l.01.04.01.03.02.04.01.03.02.04.01.03.02.03.02.03.03.03.02.03.03.02.02.03.03.02.03.03.03.02.03.02.03.01.04.02.03.01.04.02.03.01.04.01h.03l.04.01h.15l.04-.01h.03l.04-.01.03-.01.04-.02.03-.01.04-.02.03-.01.03-.02.03-.02.03-.03.03-.02.02-.03.03-.02.02-.03.03-.03.02-.03.02-.03.01-.03.02-.04.01-.03.02-.04.01-.03.01-.04v-.03l.01-.04v-.08Z"/></g><g fill="none" stroke="#2962FF" stroke-linecap="round" stroke-linejoin="round" stroke-width=".1" color="#000"><path d="M22.69 21v-.07l-.01-.04v-.03l-.01-.04-.01-.03-.02-.04-.01-.03-.02-.04-.01-.03-.02-.03-.02-.03-.03-.03-.02-.03-.03-.02-.02-.03-.03-.02-.03-.03-.03-.02-.03-.02-.03-.01-.04-.02-.03-.01-.04-.02-.03-.01-.04-.01h-.03l-.04-.01h-.15l-.04.01h-.03l-.04.01-.03.01-.04.02-.03.01-.04.02-.03.01-.03.02-.03.02-.03.03-.03.02-.02.03-.03.02-.02.03-.03.03-.02.03-.02.03-.01.03-.02.04-.01.03-.02.04-.01.03-.01.04v.03l-.01.04v.15l.01.04v.03l.01.04.01.03.02.04.01.03.02.04.01.03.02.03.02.03.03.03.02.03.03.02.02.03.03.02.03.03.03.02.03.02.03.01.04.02.03.01.04.02.03.01.04.01h.03l.04.01h.15l.04-.01h.03l.04-.01.03-.01.04-.02.03-.01.04-.02.03-.01.03-.02.03-.02.03-.03.03-.02.02-.03.03-.02.02-.03.03-.03.02-.03.02-.03.01-.03.02-.04.01-.03.02-.04.01-.03.01-.04v-.03l.01-.04V21Z"/><path d="M22.69 21v-.07l-.01-.04v-.03l-.01-.04-.01-.03-.02-.04-.01-.03-.02-.04-.01-.03-.02-.03-.02-.03-.03-.03-.02-.03-.03-.02-.02-.03-.03-.02-.03-.03-.03-.02-.03-.02-.03-.01-.04-.02-.03-.01-.04-.02-.03-.01-.04-.01h-.03l-.04-.01h-.15l-.04.01h-.03l-.04.01-.03.01-.04.02-.03.01-.04.02-.03.01-.03.02-.03.02-.03.03-.03.02-.02.03-.03.02-.02.03-.03.03-.02.03-.02.03-.01.03-.02.04-.01.03-.02.04-.01.03-.01.04v.03l-.01.04v.15l.01.04v.03l.01.04.01.03.02.04.01.03.02.04.01.03.02.03.02.03.03.03.02.03.03.02.02.03.03.02.03.03.03.02.03.02.03.01.04.02.03.01.04.02.03.01.04.01h.03l.04.01h.15l.04-.01h.03l.04-.01.03-.01.04-.02.03-.01.04-.02.03-.01.03-.02.03-.02.03-.03.03-.02.02-.03.03-.02.02-.03.03-.03.02-.03.02-.03.01-.03.02-.04.01-.03.02-.04.01-.03.01-.04v-.03l.01-.04V21Z"/></g><g fill="none" stroke="#EC6F1A" stroke-linecap="round" stroke-linejoin="round" stroke-width=".1" color="#000"><path d="M25.69 24v-.07l-.01-.04v-.03l-.01-.04-.01-.03-.02-.04-.01-.03-.02-.04-.01-.03-.02-.03-.02-.03-.03-.03-.02-.03-.03-.02-.02-.03-.03-.02-.03-.03-.03-.02-.03-.02-.03-.01-.04-.02-.03-.01-.04-.02-.03-.01-.04-.01h-.03l-.04-.01h-.15l-.04.01h-.03l-.04.01-.03.01-.04.02-.03.01-.04.02-.03.01-.03.02-.03.02-.03.03-.03.02-.02.03-.03.02-.02.03-.03.03-.02.03-.02.03-.01.03-.02.04-.01.03-.02.04-.01.03-.01.04v.03l-.01.04v.15l.01.04v.03l.01.04.01.03.02.04.01.03.02.04.01.03.02.03.02.03.03.03.02.03.03.02.02.03.03.02.03.03.03.02.03.02.03.01.04.02.03.01.04.02.03.01.04.01h.03l.04.01h.15l.04-.01h.03l.04-.01.03-.01.04-.02.03-.01.04-.02.03-.01.03-.02.03-.02.03-.03.03-.02.02-.03.03-.02.02-.03.03-.03.02-.03.02-.03.01-.03.02-.04.01-.03.02-.04.01-.03.01-.04v-.03l.01-.04V24Z"/><path d="M25.69 24v-.07l-.01-.04v-.03l-.01-.04-.01-.03-.02-.04-.01-.03-.02-.04-.01-.03-.02-.03-.02-.03-.03-.03-.02-.03-.03-.02-.02-.03-.03-.02-.03-.03-.03-.02-.03-.02-.03-.01-.04-.02-.03-.01-.04-.02-.03-.01-.04-.01h-.03l-.04-.01h-.15l-.04.01h-.03l-.04.01-.03.01-.04.02-.03.01-.04.02-.03.01-.03.02-.03.02-.03.03-.03.02-.02.03-.03.02-.02.03-.03.03-.02.03-.02.03-.01.03-.02.04-.01.03-.02.04-.01.03-.01.04v.03l-.01.04v.15l.01.04v.03l.01.04.01.03.02.04.01.03.02.04.01.03.02.03.02.03.03.03.02.03.03.02.02.03.03.02.03.03.03.02.03.02.03.01.04.02.03.01.04.02.03.01.04.01h.03l.04.01h.15l.04-.01h.03l.04-.01.03-.01.04-.02.03-.01.04-.02.03-.01.03-.02.03-.02.03-.03.03-.02.02-.03.03-.02.02-.03.03-.03.02-.03.02-.03.01-.03.02-.04.01-.03.02-.04.01-.03.01-.04v-.03l.01-.04V24Z"/></g><g fill="none" stroke="#EC6F1A" stroke-linecap="round" stroke-linejoin="round" stroke-width=".1" color="#000"><path d="M22.69 27v-.07l-.01-.04v-.03l-.01-.04-.01-.03-.02-.04-.01-.03-.02-.04-.01-.03-.02-.03-.02-.03-.03-.03-.02-.03-.03-.02-.02-.03-.03-.02-.03-.03-.03-.02-.03-.02-.03-.01-.04-.02-.03-.01-.04-.02-.03-.01-.04-.01h-.03l-.04-.01h-.15l-.04.01h-.03l-.04.01-.03.01-.04.02-.03.01-.04.02-.03.01-.03.02-.03.02-.03.03-.03.02-.02.03-.03.02-.02.03-.03.03-.02.03-.02.03-.01.03-.02.04-.01.03-.02.04-.01.03-.01.04v.03l-.01.04v.15l.01.04v.03l.01.04.01.03.02.04.01.03.02.04.01.03.02.03.02.03.03.03.02.03.03.02.02.03.03.02.03.03.03.02.03.02.03.01.04.02.03.01.04.02.03.01.04.01h.03l.04.01h.15l.04-.01h.03l.04-.01.03-.01.04-.02.03-.01.04-.02.03-.01.03-.02.03-.02.03-.03.03-.02.02-.03.03-.02.02-.03.03-.03.02-.03.02-.03.01-.03.02-.04.01-.03.02-.04.01-.03.01-.04v-.03l.01-.04V27Z"/><path d="M22.69 27v-.07l-.01-.04v-.03l-.01-.04-.01-.03-.02-.04-.01-.03-.02-.04-.01-.03-.02-.03-.02-.03-.03-.03-.02-.03-.03-.02-.02-.03-.03-.02-.03-.03-.03-.02-.03-.02-.03-.01-.04-.02-.03-.01-.04-.02-.03-.01-.04-.01h-.03l-.04-.01h-.15l-.04.01h-.03l-.04.01-.03.01-.04.02-.03.01-.04.02-.03.01-.03.02-.03.02-.03.03-.03.02-.02.03-.03.02-.02.03-.03.03-.02.03-.02.03-.01.03-.02.04-.01.03-.02.04-.01.03-.01.04v.03l-.01.04v.15l.01.04v.03l.01.04.01.03.02.04.01.03.02.04.01.03.02.03.02.03.03.03.02.03.03.02.02.03.03.02.03.03.03.02.03.02.03.01.04.02.03.01.04.02.03.01.04.01h.03l.04.01h.15l.04-.01h.03l.04-.01.03-.01.04-.02.03-.01.04-.02.03-.01.03-.02.03-.02.03-.03.03-.02.02-.03.03-.02.02-.03.03-.03.02-.03.02-.03.01-.03.02-.04.01-.03.02-.04.01-.03.01-.04v-.03l.01-.04V27Z"/></g><g fill="none" stroke="#2962FF" stroke-linecap="round" stroke-linejoin="round" stroke-width=".1" color="#000"><path d="M19.69 30v-.07l-.01-.04v-.03l-.01-.04-.01-.03-.02-.04-.01-.03-.02-.04-.01-.03-.02-.03-.02-.03-.03-.03-.02-.03-.03-.02-.02-.03-.03-.02-.03-.03-.03-.02-.03-.02-.03-.01-.04-.02-.03-.01-.04-.02-.03-.01-.04-.01h-.03l-.04-.01h-.15l-.04.01h-.03l-.04.01-.03.01-.04.02-.03.01-.04.02-.03.01-.03.02-.03.02-.03.03-.03.02-.02.03-.03.02-.02.03-.03.03-.02.03-.02.03-.01.03-.02.04-.01.03-.02.04-.01.03-.01.04v.03l-.01.04v.15l.01.04v.03l.01.04.01.03.02.04.01.03.02.04.01.03.02.03.02.03.03.03.02.03.03.02.02.03.03.02.03.03.03.02.03.02.03.01.04.02.03.01.04.02.03.01.04.01h.03l.04.01h.15l.04-.01h.03l.04-.01.03-.01.04-.02.03-.01.04-.02.03-.01.03-.02.03-.02.03-.03.03-.02.02-.03.03-.02.02-.03.03-.03.02-.03.02-.03.01-.03.02-.04.01-.03.02-.04.01-.03.01-.04v-.03l.01-.04V30Z"/><path d="M19.69 30v-.07l-.01-.04v-.03l-.01-.04-.01-.03-.02-.04-.01-.03-.02-.04-.01-.03-.02-.03-.02-.03-.03-.03-.02-.03-.03-.02-.02-.03-.03-.02-.03-.03-.03-.02-.03-.02-.03-.01-.04-.02-.03-.01-.04-.02-.03-.01-.04-.01h-.03l-.04-.01h-.15l-.04.01h-.03l-.04.01-.03.01-.04.02-.03.01-.04.02-.03.01-.03.02-.03.02-.03.03-.03.02-.02.03-.03.02-.02.03-.03.03-.02.03-.02.03-.01.03-.02.04-.01.03-.02.04-.01.03-.01.04v.03l-.01.04v.15l.01.04v.03l.01.04.01.03.02.04.01.03.02.04.01.03.02.03.02.03.03.03.02.03.03.02.02.03.03.02.03.03.03.02.03.02.03.01.04.02.03.01.04.02.03.01.04.01h.03l.04.01h.15l.04-.01h.03l.04-.01.03-.01.04-.02.03-.01.04-.02.03-.01.03-.02.03-.02.03-.03.03-.02.02-.03.03-.02.02-.03.03-.03.02-.03.02-.03.01-.03.02-.04.01-.03.02-.04.01-.03.01-.04v-.03l.01-.04V30Z"/></g><g fill="none" stroke="#2962FF" stroke-linecap="round" stroke-linejoin="round" stroke-width=".1" color="#000"><path d="M22.69 33v-.07l-.01-.04v-.03l-.01-.04-.01-.03-.02-.04-.01-.03-.02-.04-.01-.03-.02-.03-.02-.03-.03-.03-.02-.03-.03-.02-.02-.03-.03-.02-.03-.03-.03-.02-.03-.02-.03-.01-.04-.02-.03-.01-.04-.02-.03-.01-.04-.01h-.03l-.04-.01h-.15l-.04.01h-.03l-.04.01-.03.01-.04.02-.03.01-.04.02-.03.01-.03.02-.03.02-.03.03-.03.02-.02.03-.03.02-.02.03-.03.03-.02.03-.02.03-.01.03-.02.04-.01.03-.02.04-.01.03-.01.04v.03l-.01.04v.15l.01.04v.03l.01.04.01.03.02.04.01.03.02.04.01.03.02.03.02.03.03.03.02.03.03.02.02.03.03.02.03.03.03.02.03.02.03.01.04.02.03.01.04.02.03.01.04.01h.03l.04.01h.15l.04-.01h.03l.04-.01.03-.01.04-.02.03-.01.04-.02.03-.01.03-.02.03-.02.03-.03.03-.02.02-.03.03-.02.02-.03.03-.03.02-.03.02-.03.01-.03.02-.04.01-.03.02-.04.01-.03.01-.04v-.03l.01-.04V33Z"/><path d="M22.69 33v-.07l-.01-.04v-.03l-.01-.04-.01-.03-.02-.04-.01-.03-.02-.04-.01-.03-.02-.03-.02-.03-.03-.03-.02-.03-.03-.02-.02-.03-.03-.02-.03-.03-.03-.02-.03-.02-.03-.01-.04-.02-.03-.01-.04-.02-.03-.01-.04-.01h-.03l-.04-.01h-.15l-.04.01h-.03l-.04.01-.03.01-.04.02-.03.01-.04.02-.03.01-.03.02-.03.02-.03.03-.03.02-.02.03-.03.02-.02.03-.03.03-.02.03-.02.03-.01.03-.02.04-.01.03-.02.04-.01.03-.01.04v.03l-.01.04v.15l.01.04v.03l.01.04.01.03.02.04.01.03.02.04.01.03.02.03.02.03.03.03.02.03.03.02.02.03.03.02.03.03.03.02.03.02.03.01.04.02.03.01.04.02.03.01.04.01h.03l.04.01h.15l.04-.01h.03l.04-.01.03-.01.04-.02.03-.01.04-.02.03-.01.03-.02.03-.02.03-.03.03-.02.02-.03.03-.02.02-.03.03-.03.02-.03.02-.03.01-.03.02-.04.01-.03.02-.04.01-.03.01-.04v-.03l.01-.04V33Z"/></g><g fill="none" stroke="#EC6F1A" stroke-linecap="round" stroke-linejoin="round" stroke-width=".1" color="#000"><path d="M25.69 36v-.07l-.01-.04v-.03l-.01-.04-.01-.03-.02-.04-.01-.03-.02-.04-.01-.03-.02-.03-.02-.03-.03-.03-.02-.03-.03-.02-.02-.03-.03-.02-.03-.03-.03-.02-.03-.02-.03-.01-.04-.02-.03-.01-.04-.02-.03-.01-.04-.01h-.03l-.04-.01h-.15l-.04.01h-.03l-.04.01-.03.01-.04.02-.03.01-.04.02-.03.01-.03.02-.03.02-.03.03-.03.02-.02.03-.03.02-.02.03-.03.03-.02.03-.02.03-.01.03-.02.04-.01.03-.02.04-.01.03-.01.04v.03l-.01.04v.15l.01.04v.03l.01.04.01.03.02.04.01.03.02.04.01.03.02.03.02.03.03.03.02.03.03.02.02.03.03.02.03.03.03.02.03.02.03.01.04.02.03.01.04.02.03.01.04.01h.03l.04.01h.15l.04-.01h.03l.04-.01.03-.01.04-.02.03-.01.04-.02.03-.01.03-.02.03-.02.03-.03.03-.02.02-.03.03-.02.02-.03.03-.03.02-.03.02-.03.01-.03.02-.04.01-.03.02-.04.01-.03.01-.04v-.03l.01-.04V36Z"/><path d="M25.69 36v-.07l-.01-.04v-.03l-.01-.04-.01-.03-.02-.04-.01-.03-.02-.04-.01-.03-.02-.03-.02-.03-.03-.03-.02-.03-.03-.02-.02-.03-.03-.02-.03-.03-.03-.02-.03-.02-.03-.01-.04-.02-.03-.01-.04-.02-.03-.01-.04-.01h-.03l-.04-.01h-.15l-.04.01h-.03l-.04.01-.03.01-.04.02-.03.01-.04.02-.03.01-.03.02-.03.02-.03.03-.03.02-.02.03-.03.02-.02.03-.03.03-.02.03-.02.03-.01.03-.02.04-.01.03-.02.04-.01.03-.01.04v.03l-.01.04v.15l.01.04v.03l.01.04.01.03.02.04.01.03.02.04.01.03.02.03.02.03.03.03.02.03.03.02.02.03.03.02.03.03.03.02.03.02.03.01.04.02.03.01.04.02.03.01.04.01h.03l.04.01h.15l.04-.01h.03l.04-.01.03-.01.04-.02.03-.01.04-.02.03-.01.03-.02.03-.02.03-.03.03-.02.02-.03.03-.02.02-.03.03-.03.02-.03.02-.03.01-.03.02-.04.01-.03.02-.04.01-.03.01-.04v-.03l.01-.04V36Z"/></g></svg>