<svg xmlns="http://www.w3.org/2000/svg" xmlns:xlink="http://www.w3.org/1999/xlink" viewBox="0 0 400 200"><path fill="none" d="M0 0h400v200H0z"/><defs><use xlink:href="#e82df__a" id="e82df__d" fill="currentColor" stroke="none"/><use xlink:href="#e82df__b" id="e82df__c" stroke="currentColor" transform="rotate(180)"/><circle id="e82df__a" cx="0" cy="0" r="1" stroke="currentColor" stroke-width=".267"/><path id="e82df__b" stroke="currentColor" stroke-width=".267" d="m0-1.33-1.33 2h2.66z"/></defs><path fill="none" stroke="#CCC" stroke-linecap="round" stroke-linejoin="round" stroke-width=".1" d="M46.1 162.5V45.01" class="e82df__gridline" color="#000"/><g fill="none" stroke-linecap="round" stroke-linejoin="round" stroke-width="0" color="#000"><path d="M46.1 162.5V155m0-109.99v7.5"/><text fill="#000" font-family="KaTeX_Main" font-size="8" text-anchor="middle" transform="translate(46.1 172.6)"><tspan> 1</tspan></text></g><path fill="none" stroke="#CCC" stroke-linecap="round" stroke-linejoin="round" stroke-width=".1" d="M82.31 162.5V45.01" class="e82df__gridline" color="#000"/><g fill="none" stroke-linecap="round" stroke-linejoin="round" stroke-width="0" color="#000"><path d="M82.31 162.5V155m0-109.99v7.5"/><text fill="#000" font-family="KaTeX_Main" font-size="8" text-anchor="middle" transform="translate(82.31 172.6)"><tspan> 2</tspan></text></g><path fill="none" stroke="#CCC" stroke-linecap="round" stroke-linejoin="round" stroke-width=".1" d="M118.52 162.5V45.01" class="e82df__gridline" color="#000"/><g fill="none" stroke-linecap="round" stroke-linejoin="round" stroke-width="0" color="#000"><path d="M118.52 162.5V155m0-109.99v7.5"/><text fill="#000" font-family="KaTeX_Main" font-size="8" text-anchor="middle" transform="translate(118.52 172.6)"><tspan> 3</tspan></text></g><path fill="none" stroke="#CCC" stroke-linecap="round" stroke-linejoin="round" stroke-width=".1" d="M154.73 162.5V45.01" class="e82df__gridline" color="#000"/><g fill="none" stroke-linecap="round" stroke-linejoin="round" stroke-width="0" color="#000"><path d="M154.73 162.5V155m0-109.99v7.5"/><text fill="#000" font-family="KaTeX_Main" font-size="8" text-anchor="middle" transform="translate(154.73 172.6)"><tspan> 4</tspan></text></g><path fill="none" stroke="#CCC" stroke-linecap="round" stroke-linejoin="round" stroke-width=".1" d="M190.94 162.5V45.01" class="e82df__gridline" color="#000"/><g fill="none" stroke-linecap="round" stroke-linejoin="round" stroke-width="0" color="#000"><path d="M190.94 162.5V155m0-109.99v7.5"/><text fill="#000" font-family="KaTeX_Main" font-size="8" text-anchor="middle" transform="translate(190.94 172.6)"><tspan> 5</tspan></text></g><path fill="none" stroke="#CCC" stroke-linecap="round" stroke-linejoin="round" stroke-width=".1" d="M227.15 162.5V45.01" class="e82df__gridline" color="#000"/><g fill="none" stroke-linecap="round" stroke-linejoin="round" stroke-width="0" color="#000"><path d="M227.15 162.5V155m0-109.99v7.5"/><text fill="#000" font-family="KaTeX_Main" font-size="8" text-anchor="middle" transform="translate(227.15 172.6)"><tspan> 6</tspan></text></g><path fill="none" stroke="#CCC" stroke-linecap="round" stroke-linejoin="round" stroke-width=".1" d="M263.36 162.5V45.01" class="e82df__gridline" color="#000"/><g fill="none" stroke-linecap="round" stroke-linejoin="round" stroke-width="0" color="#000"><path d="M263.36 162.5V155m0-109.99v7.5"/><text fill="#000" font-family="KaTeX_Main" font-size="8" text-anchor="middle" transform="translate(263.36 172.6)"><tspan> 7</tspan></text></g><path fill="none" stroke="#CCC" stroke-linecap="round" stroke-linejoin="round" stroke-width=".1" d="M299.57 162.5V45.01" class="e82df__gridline" color="#000"/><g fill="none" stroke-linecap="round" stroke-linejoin="round" stroke-width="0" color="#000"><path d="M299.57 162.5V155m0-109.99v7.5"/><text fill="#000" font-family="KaTeX_Main" font-size="8" text-anchor="middle" transform="translate(299.57 172.6)"><tspan> 8</tspan></text></g><path fill="none" stroke="#CCC" stroke-linecap="round" stroke-linejoin="round" stroke-width=".1" d="M335.78 162.5V45.01" class="e82df__gridline" color="#000"/><g fill="none" stroke-linecap="round" stroke-linejoin="round" stroke-width="0" color="#000"><path d="M335.78 162.5V155m0-109.99v7.5"/><text fill="#000" font-family="KaTeX_Main" font-size="8" text-anchor="middle" transform="translate(335.78 172.6)"><tspan> 9</tspan></text></g><path fill="none" stroke="#CCC" stroke-linecap="round" stroke-linejoin="round" stroke-width=".1" d="M371.99 162.5V45.01" class="e82df__gridline" color="#000"/><g fill="none" stroke-linecap="round" stroke-linejoin="round" stroke-width="0" color="#000"><path d="M371.99 162.5V155m0-109.99v7.5"/><text fill="#000" font-family="KaTeX_Main" font-size="8" text-anchor="middle" transform="translate(371.99 172.6)"><tspan> 10</tspan></text></g><g fill="none" stroke-linecap="round" stroke-linejoin="round" stroke-width="0" color="#000"><path d="M371.99 162.5h-7.5"/><text fill="#000" font-family="KaTeX_Main" font-size="8" transform="translate(378.99 165.1)"><tspan>3.00</tspan></text></g><g fill="none" stroke-linecap="round" stroke-linejoin="round" stroke-width="0" color="#000"><path d="M371.99 145.72h-7.5"/><text fill="#000" font-family="KaTeX_Main" font-size="8" transform="translate(378.99 148.32)"><tspan>3.50</tspan></text></g><g fill="none" stroke-linecap="round" stroke-linejoin="round" stroke-width="0" color="#000"><path d="M371.99 128.93h-7.5"/><text fill="#000" font-family="KaTeX_Main" font-size="8" transform="translate(378.99 131.53)"><tspan>4.00</tspan></text></g><g fill="none" stroke-linecap="round" stroke-linejoin="round" stroke-width="0" color="#000"><path d="M371.99 112.15h-7.5"/><text fill="#000" font-family="KaTeX_Main" font-size="8" transform="translate(378.99 114.75)"><tspan>4.50</tspan></text></g><g fill="none" stroke-linecap="round" stroke-linejoin="round" stroke-width="0" color="#000"><path d="M371.99 95.36h-7.5"/><text fill="#000" font-family="KaTeX_Main" font-size="8" transform="translate(378.99 97.96)"><tspan>5.00</tspan></text></g><g fill="none" stroke-linecap="round" stroke-linejoin="round" stroke-width="0" color="#000"><path d="M371.99 78.58h-7.5"/><text fill="#000" font-family="KaTeX_Main" font-size="8" transform="translate(378.99 81.18)"><tspan>5.50</tspan></text></g><g fill="none" stroke-linecap="round" stroke-linejoin="round" stroke-width="0" color="#000"><path d="M371.99 61.79h-7.5"/><text fill="#000" font-family="KaTeX_Main" font-size="8" transform="translate(378.99 64.39)"><tspan>6.00</tspan></text></g><g fill="none" stroke-linecap="round" stroke-linejoin="round" stroke-width="0" color="#000"><path d="M371.99 45.01h-7.5"/><text fill="#000" font-family="KaTeX_Main" font-size="8" transform="translate(378.99 47.61)"><tspan>6.50</tspan></text></g><path fill="none" d="M28 45.01V162.5M371.99 45.01H28" color="#000"/><text stroke-linecap="round" stroke-linejoin="round" stroke-width="0" color="#000" font-family="KaTeX_Main" font-size="10" text-anchor="middle" transform="rotate(-90 57.63 46.13)"><tspan font-weight="bold">Duration </tspan><tspan> in milliseconds</tspan></text><text stroke-linecap="round" stroke-linejoin="round" stroke-width="0" color="#000" font-family="KaTeX_Main" font-size="10" text-anchor="middle" transform="translate(199.99 195.75)"><tspan>Operations / 10</tspan><tspan dy="-5" font-size="8">6</tspan></text><text stroke-linecap="round" stroke-linejoin="round" color="#000" font-family="KaTeX_Main" font-size="8" transform="translate(71.2 10.11)"><tspan>RedBlackBottomUp</tspan></text><g fill="none" stroke="currentColor" stroke-linecap="round" stroke-linejoin="round" color="#000"><path stroke="#F44336" d="M35.7 7.51h29.9M28 120.67l.36-7.4.36 4.55.37-8.86.36-1.06.36-1.43.36 6.02.36.19.37-9.37.36-1.31.36-1.28.36 6.55.37-1.49.36-.35.36-7.83.36-.96.36-.27.37 5.66.36.96.36-8.08.36-.95.36-.75.37-.76.36 4.03.36.69.36-6.54.36-1.32.37-.94.36 4.43.36 1.23.36.75.36-8.05.37-1.61.36 4.39.36-7.27.36 6.27.37-7.16.36-1.86.36 4.21.36-7.73.36-.92.37 5.86.36-5.97.36 4.11.36-7.88.36-.93.37 4.34.36.08.36.15.36-7.11.36-1.76.37 21.09.36-7.55.36 6.07.36.04.37.23.36-.1.36-7.84.36 5.95.36-6.53.37 5.49.36.27.36-7.64.36 4.84.36-6.4.37 5.7.36 1.08.36.73.36.37.36-6.67.37 5.31.36.7.36-7.46.36 7.1.37-6.82.36 5.85.36.4.36.57.36-.32.37.39.36.23.36-.56.36-7.91.36 6.49.37-7.02.36 3.76.36-.4.36-6.67.36 7.05.37.94.36.43.36.73.36-7.87.36 6.68.37-6.33.36 5.8.36.19.36-7.01.37 5.5.36-5.2.36 5.34.36.71.36-.03.37-.08.36-6.89.36 5.63.36-.14.36-7.02.37 6.17.36-7.69.36 5.48.36 1.51.36.7.37.62.36.23.36.3.36-.12.37-7.84.36 6.76.36-6.36.36 5.53.36.19.37-8.09.36 6.66.36.67.36.32.36.5.37-7.41.36 4.5.36-6.8.36 5.95.36.17.37-6.95.36 7.27.36-5.53.36 5.65.36.72.37.51.36.5.36-6.42.36 5.51.37.74.36-7.83.36 6.24.36-5.99.36 5.93.37.03.36 1 .36-.25.36.39.36-.71.37-1.14.36-8.78.36 7.01.36-5.78.36 6.34.37.92.36-7.11.36 6.78.36-.23.37.57.36.63.36-7.36.36 6.73.36-5.95.37 5.84.36.65.36-7.23.36 6.84.36-7.06.37 5.07.36.71.36 1.1.36.05.36-6.14.37 5.64.36.42.36-7.42.36 6.95.36-6.11.37 5.62.36.87.36.41.36.24.37.25.36-.35.36-.24.36-7.54.36 5.94.37-7.35.36 5.26.36.52.36-6.66.36 7.35.37.56.36.07.36.39.36-7.16.36 6.89.37-6.38.36 6.44.36.16.36-7.1.37 6.51.36-5.64.36 5.86.36.21.36.84.37-.14.36-6.59.36 5.69.36.16.36-8.28.37 6.9.36-6.46.36 6.39.36.53.36.61.37.44.36-.23.36.45.36.12.37-7.73.36 6.72.36-7 .36 5.84.36.66.37-7.3.36 7.07.36.88.36.42.36.04.37-7.14.36 6.06.36-7.3.36 6.1.36.94.37-7.1.36 6.04.36-7.75.36 6.61.36 1.05.37 1.09.36.33.36-6.21.36 5.56.37.87.36-7.28.36 7.12.36-6.41.36 5.6.37.13.36-1.02.36-.64.36.65.36.82.37.35.36-7.09.36 6.84.36-6.81.36 5.37.37.67.36-7.27.36 6.69.36.93.37.48.36-.34.36-6.96.36 7 .36-6.22.37 5.65.36-.49.36-7.03.36 6.78.36-5.94.37 5.97.36.35.36.81.36-.13.36-6.59.37 6.14.36.56.36-6.75.36 6.62.36-6.31.37 6.12.36.21.36.68.36.37.37-1.6.36-.95.36.4.36-7.09.36 7.39.37-6.39.36 6.29.36-5.47.36 5.17.36 1.24.37.18.36.22.36.16.36-7.13.36 6.86.37-6.64.36 6.54.36-5.68.36 4.36.37 1.08.36-6.46.36 6.34.36.56.36.16.37-1.19.36-6.53.36 6.18.36.14.36-7.23.37 6.91.36-6.64.36 6.11.36.85.36.82.37.29.36.18.36-.32.36.6.36-7.84.37 5.57.36-6.69.36 6.48.36-5 .37 4.91.36 1.13h.36l.36-2.48.36-.53.37-6.83.36 7.66.36-5.81.36 6.47.36-5.43.37 6.03.36.55.36-6.5.36 6.19.36.94.37.4.36.13.36-7.03.36 5.6.37-6.45.36 4.42.36-.08.36-5.91.36 6.78.37 1.36.36-.06.36-.11.36.94.36-.69.37-6.99.36 4.85.36 1.12.36-6.72.36 6.4.37-5.26.36 5.23.36.68.36.53.37.51.36-6.03.36 4.16.36-.27.36-5.87.37 6.54.36-6.27.36 5.32.36 1.22.36-6.55.37 6.75.36.81.36-.22.36.2.36-7.38.37 5.96.36-5.56.36 5.51.36.04.36-8.57.37 6.25.36 1.64.36.74.36.75.37.51.36.19.36-6.33.36 5.09.36-.01.37-7.16.36 6.31.36-6.12.36 5.8.36.57.37.4.36.58.36-5.95.36 4.7.36.93.37-6.61.36 6.17.36-5.88.36 4.57.37.43.36-6.78.36 6.81.36.97.36.35.37.06.36-6.42.36 5.94.36-6.37.36 5.72.37.73.36-7.39.36 6.58.36.66.36.29.37.16.36-.8.36-.04.36-5.89.36 4.73.37 1.53.36-7.3.36 6 .36-5.71.37 5.75.36.7.36.15.36.74.36-6.36.37 5.28.36.28.36-6.73.36 6.04.36-5.59.37 4.94.36.89.36-7.35.36 5.22.36.26.37-.18.36.24.36-6 .36 6.98.37-5.48.36 5.8.36.29.36-7.12.36 6.19.37 1.07.36.62.36.66.36-.32.36.33.37-5.97.36 5.12.36.73.36-6.93.36 6.12.37-6.54.36 5.67.36.86.36-.66.37-.1.36-6.09.36 5.91.36.7.36-7.16.37 6.19.36-6.36.36 5.69.36.32.36-7.12.37 6.92.36.51.36-.13.36-.7.36-6.91.37 6.01.36-4.93.36 5.92.36 1.1.36-6.92.37 6.51.36.56.36.17.36.4.37.35.36.27.36-6.66.36 5.38.36.23.37-6.77.36 6.65.36-6.41.36 6.03.36.89h.37l.36.29.36-6.9.36 4.28.36.4.37-6.68.36 7.05.36-6.23.36 5.64.37 1.68.36-6.78.36 6.84.36.32.36.08.37.56.36-7.32.36 6.16.36-5.98.36 4.68.37.21.36-7.01.36 7.2.36.45.36.78.37-.85.36.32.36.19.36-5.82.36 5.82.37.55.36-6.81.36 6.93.36-6.61.37 5.1.36 1.21.36.51.36.12.36-6.49.37 4.85.36-2.22.36-9.04.36 6.89.36-5.36.37 7.26.36.96.36-6.43.36 7.67.36 1.02.37.26.36.17.36-7.96.36 6.93.37-6.07.36 5.1.36 1.71.36-7.56.36 6.6.37.74.36.91.36.46.36.13.36-.55.37-6.84.36 5.49.36.5.36-8.17.36 6.68.37-5.82.36 6.28.36 1.03.36-.05.36.23.37-6.4.36 5.74.36.69.36-7.26.37 5.46.36-6.94.36 5.43.36 1.22.36-6.08.37 7.33h.36l.36 1.21.36.08.36-6.55.37 6.23.36-5.99.36 5.81.36.72.36-7.2.37 7 .36-.3.36.1.36-.15.37.08.36.45.36-6.94.36 6.01.36.63.37-7.82.36 5.96.36-6.64.36 6.62.36.52.37.49.36.82.36-6.51.36 5.75.36.82.37-7.36.36 6.19.36-6.72.36 3.88.37 1.22.36-7.16.36 7.2.36.51.36.83.37.79.36-7.58.36 7.09.36-7.35.36 6.04.37 1.1.36-7.03.36 7.35.36.86.36.43.37.4.36.1.36.03.36-7.22.36 5.99.37.08.36-7.26.36 5.41.36-8.29.37 5.68.36.5.36 1.03.36 1.11.36-6.58.37 6.4.36 1.03.36-7.47.36 6.77.36-5.9.37 6.17.36-5.66.36 4.75.36-.39.36.89.37.82.36.22.36-7.77.36 7.19.37-6.28.36 6.23.36-4.51.36 4.05.36.85h.37l.36-.33.36.18.36.41.36.18.37-6.62.36 6.17.36.04.36-7.03.36 6.57.37-6.27.36 5.21.36.16.36.63.36.09.37-7.45.36 6.2.36.7.36-8.56.37 7.34.36-7.61.36 6.17.36-4.93.36 5.78.37 1.05.36.96.36.06.36.72.36-7.27.37 6.93.36-6.34.36 5.91.36-5.81.36 5.23.37 1.06.36.81.36-.8.36-.83.37.16.36.6.36-6.79.36 5.83.36-5.53.37 5.14.36 1.37.36-6.77.36 6.35.36.5.37.82.36-.55.36-6.82.36 6.05.36-7.13.37 5.08.36 1.06.36-6.17.36 6.1.36-6.62.37 4.29.36 1.04.36 1.53.36-.02.37-5.64.36 4.81.36 1.37.36-7.3.36 5.99.37-5.53.36 5.15.36.58.36.22.36-.01.37-.15.36-1.5.36.54.36-6.25.36 6.64.37-5.09.36 5.24.36.99.36-6.71.37 6.52.36.26.36.38.36.42.36-7.07.37 5.75.36-6.36.36 5.09.36 1.13.36-7.18.37 7.32.36-5.98.36 5.76.36-.86.36 1.1.37.44.36-6.24.36 4.44.36.24.37-5.84.36 6.16.36-5.83.36 5.72.36.7.37.98.36.66.36-.62.36.39.36-1.17.37-7.19.36 6.9.36-6.27.36 5.94.36.69.37-6.67.36 5.77.36.35.36.2.36.61.37-7.37.36 6.84.36-5.68.36 4.92.37 1.53.36-7.43.36 6.85.36-6.08.36 5.7.37.91.36.4.36-.28.36-5.73.36 4.75.37-.14.36-7.42.36 6.6.36-5.58.36 5.95.37 1.12.36.41.36.71.36-.24.37-.17.36.16.36-6.87.36 6.22.36-6.59.37 5.22.36.38.36-7.96.36 6.91.36.93.37.67.36-.56.36-7.4.36 6.09.36-5 .37 5.97.36.86.36-7.06.36 6.48.36-5.3.37 5.19.36.33.36 1.12.36.17.37-6.38.36 4.32.36.16.36-8.61.36 7.24.37-5.56.36 6.36.36-.35.36 1.06.36.52.37.14.36.46.36.11.36-6.28.36 6.7.37-5.75.36 4.79.36-.89.36-6.52.37 6.8.36 1.18.36.07.36.75.36-7.25.37 6.01.36-5.49.36 5.58.36.85.36-7.18.37 6.09.36-6.08.36 5.05.36 1.19.36.3.37.42.36-6.61.36 5.46.36.87.36-7.01.37 5.84.36-6.22.36 5.95.36.53.37.88.36.22.36.43.36-.29.36-.81.37-7.53.36 6.02.36-5.55.36 5.32.36 1.21.37-7.11.36 6.63.36 1.35.36-.04.36-.19.37-6.59.36 6.31.36-5.99.36 5.37.37.91.36-8.3.36 5.86.36-5.47.36 5.91.37 1.08.36.77.36.43.36-6.53.36 5.52.37.82.36-6.86.36 6.47.36-6.42.36 5.78.37.79.36.06.36.03.36.19.37-.83.36.32.36-7.22.36 5.6.36-6.2.37 5.6.36 1.38.36-6.92.36 7.2.36.46.37.21.36.33.36-7.38.36 6.89.36-6.16.37 5.64.36-.52.36-8.31.36 7.83.36-7.72.37 5.39.36 1.33.36 1.19.36.77.37-6.03.36 5.45.36.96.36-6.97.36 6.75.37-6.41.36 6.02.36.74"/><use xlink:href="#e82df__b" color="#F44336" transform="matrix(3.75 0 0 3.75 354.25 49.66)"/><use xlink:href="#e82df__b" color="#F44336" transform="matrix(3.75 0 0 3.75 50.65 7.51)"/></g><text stroke-linecap="round" stroke-linejoin="round" color="#000" font-family="KaTeX_Main" font-size="8" transform="translate(71.2 25.11)"><tspan>RedBlackTopDown</tspan></text><g fill="none" stroke="currentColor" stroke-linecap="round" stroke-linejoin="round" color="#000"><path stroke="#3B75EA" d="M35.7 22.51h29.9M28 150.27l.36 6.09.36.61.37-.7.36-8.1.36-.17.36-1.67.36 5.41.37 1.04.36-8.39.36-.53.36-.46.37 4.43.36-7.65.36 7.82.36-8.07.36-.69.37 5.52.36-8.04.36 6.83.36-.33.36-7.27.37 5.19.36-8.32.36-.5.36 6.37.36-6.64.37 5.87.36-8.09.36-1.63.36-.15.36 5.91.37-.3.36-9.01.36-.99.36-.4.37 5.9.36.08.36.79.36-8.85.36-.99.37-1.11.36 5.26.36.42.36-8.22.36-.82.37-.78.36.66.36 4.31.36.55.36-6.82.37-4.32.36-6.65.36 6.05.36-7.29.37 5.35.36.87.36.2.36-.24.36-.32.37.16.36-.82.36-7.86.36 6.4.36-6.13.37 4.99.36.07.36-6.53.36 6.13.36.84.37-.39.36.49.36-7.86.36 6.48.37-6.64.36 5.35.36.39.36-6.9.36 6.04.37-6.03.36 5.01.36.93.36.68.36-1.44.37-6.86.36 5.73.36.52.36-6.28.36 6.92.37-6.57.36 5.58.36.28.36.6.36-.42.37.15.36-.51.36.3.36-8.25.37 5.72.36-6.8.36 5.45.36 1.12.36-6.37.37 6.65.36.27.36.23.36-.26.36-6.88.37 6.06.36-6 .36 3.58.36.26.36-6.2.37 6.21.36-6.06.36 4.99.36.52.37.55.36.07.36-6.46.36 5.53.36.54.37-7.48.36 6.28.36-6.9.36 5.5.36.82.37-.41.36-.25.36.6.36-.2.36.02.37-6.46.36 6.27.36-5.45.36 4.7.36.17.37-6.27.36 6.58.36.25.36.02.37.09.36-6.72.36 6.09.36-6.34.36 5.47.37.34.36-5.93.36 6.49.36-5.92.36 5.58.37.1.36 1.38.36-.24.36-6.54.36 6.05.37.17.36-8.3.36 5.52.36-5.54.37 5.98.36.77.36.46.36.57.36.52.37-.1.36-.5.36-6.4.36 5.4.36-5.05.37 4.73.36.9.36-6.76.36 5.61.36 1.01.37.33.36.04.36-6.92.36 5.59.36-5.38.37 4.93.36.69.36-6.61.36 6.06.37-6.18.36 5.38.36.69.36.74.36-.03.37-6.48.36 5.79.36.07.36-7.19.36 6.52.37-6.31.36 5.57.36.82.36.5.36-.06.37.59.36-.13.36-1.33.36-6.35.37 5.53.36-6.61.36 6.22.36-.24.36-5.79.37 6.49.36-.93.36 2.25.36-.5.36-6.47.37 5.49.36-7.48.36 6.12.36 1.22.36-6.51.37 5.99.36-6.44.36 5.25.36.84.37.18.36 1.07.36-7.66.36 5.85.36.14.37-6.66.36 6.4.36-5.93.36 5.41.36.65.37.37.36.5.36.62.36.25.36.37.37-7.86.36 5.96.36-5.79.36 5.74.36-.16.37-7.69.36 6.9.36.71.36-.13.37.91.36-8.23.36 7.25.36-6.49.36 5.57.37-.3.36-6.86.36 6.48.36-5.78.36 5.99.37.5.36-.24.36.2.36-6.2.36 6.03.37.41.36-6.77.36 6.54.36-6.06.37 5.48.36-.57.36.38.36.24.36.7.37-1.16.36-.25.36-7.08.36 6.51.36-5.75.37 5.85.36.58.36-6.43.36 6.83.36-.11.37.31.36.66.36-7.52.36 6.33.36-5.81.37 5.07.36.57.36-6.6.36 5.84.37-7 .36 6.25.36-.44.36.14.36.43.37-6.48.36 5.35.36.58.36-7.06.36 6.49.37-6.24.36 6.68.36.36.36-.12.36-.32.37.63.36.15.36-.11.36-7.9.37 7.53.36-6.57.36 6.08.36.02.36-7.18.37 5.26.36.71.36.65.36-.45.36-7.18.37 6.73.36-6.96.36 6.01.36.13.36-6.81.37 6.52.36-6.47.36 6.03.36 1.41.36.43.37-.84.36-6.17.36 5.65.36.06.37-7.9.36 6.59.36-6.02.36 5.74.36.11.37-1.76.36.17.36.94.36-.37.36-.12.37-7.24.36 6.29.36-6.79.36 5.5.36.62.37-7.04.36 7.11.36.12.36.47.37-.18.36-7.53.36 6.7.36-6.06.36 6.16.37-.16.36-6.69.36 6.84.36-6.69.36 6.23.37-.09.36 1.33.36-.89.36-6.43.36 6.4.37.05.36-6.17.36 7.22.36-6.56.37 5.99.36.5.36 1.08.36-.21.36.13.37-.91.36-.39.36-8.22.36 7.24.36-6.09.37 6.13.36-5.35.36 5.45.36.62.36.12.37.62.36-.61.36-6.62.36 6.6.36-6.47.37 6.01.36-5.92.36 5.77.36.97.37-7.19.36 6.28.36 1.15.36.1.36-.35.37-6.92.36 6.09.36-5.64.36 5.41.36.29.37-6.1.36 6.1.36.44.36-.45.36.36.37.32.36-.03.36-5.9.36 4.84.37.09.36-6.36.36 6 .36-6.2.36 5.94.37.01.36.58.36.26.36-5.92.36 4.82.37.87.36-5.9.36 5.72.36-5.54.36 4.57.37-.06.36-6.51.36 6.57.36.94.36.36.37-.12.36-6.33.36 5.82.36-6.21.37 6.26.36.76.36-7.69.36 7.42.36.13.37-.79.36.17.36.78.36-.09.36-6.49.37 4.74.36.35.36-6.44.36 6.63.36-6.29.37 6.48.36.23.36.54.36.41.37-6.55.36 5.13.36.89.36-6.34.36 5.66.37-5.94.36 5.6.36.68.36-6.84.36 6.28.37.34.36.1.36.21.36-7.09.36 7.13.37-6.66.36 4.96.36.76.36-6.47.37 6.52.36 1.01.36-1 .36.22.36.15.37.6.36-7.91.36 5.88.36.8.36-6.52.37 6.13.36-4.6.36 4.83.36 1.01.36.6.37-.53.36-5.15.36 5.06.36 1.5.36-6.22.37 6.34.36-5.73.36 5.33.36.93.37-6.47.36 6.35.36.19.36.53.36-.47.37-6.33.36 5.83.36-6.11.36 5.25.36 1.28.37-7.03.36 6.32.36.78.36.27.36-.44.37.41.36-1.2.36-6.01.36 5.18.37.32.36-6.15.36 6.92.36-6.04.36 4.23.37.46.36.49.36.37.36-6.2.36 5.39.37.29.36-6.65.36 5.75.36-6.21.36 5.58.37 1.02.36-7.02.36 7.11.36.42.36-.33.37.1.36-6.67.36 6.53.36-6.44.37 5.77.36.69.36-6.74.36 6.4.36-.72.37-.64.36.71.36 1.22.36.13.36-6.85.37 4.93.36.49.36-6.71.36 7.25.36-6.75.37 6.27.36-.16.36.02.36.56.37-6.77.36 3.89.36 2.82.36-7.19.36 6.42.37-6.03.36 6.11.36.45.36-7.19.36 6.62.37.39.36.37.36-.25.36-7.42.36 6.56.37-6.21.36 5.26.36 1.24.36-6.88.36 6.55.37.51.36.59.36-.7.36.37.37-.14.36-6.56.36 5.17h.36l.36-5.98.37 5.34.36-6.31.36 6.8.36.49.36.2.37.17.36-6.23.36 5.99.36 1.12.36-7.53.37 6.95.36-6.84.36 6.27.36.23.37-6.65.36 6.94.36-.02.36.13.36.36.37-7.21.36 6.55.36-6.01.36 6.22.36-.37.37-6.9.36 7 .36.89.36-.68.36-.25.37.05.36-.36.36-5.86.36 5.01.37 1.03.36-6.77.36 6.47.36-6.31.36 5.14.37 1.26.36.29.36-.17.36-6.11.36 5.39.37.61.36-9.19.36 7.44.36-5.49.36 5.72.37.5.36-7.75.36 7.57.36.17.36.01.37-.3.36-7.24.36 6.82.36-5.77.37 5.76.36.32.36-7.56.36 5.66.36.79.37.65.36.62.36 1.06.36-.62.36-7.41.37 6.57.36.46.36-6.8.36 6.16.36-7.1.37 6.13.36.45.36-.03.36.17.37-6.42.36 5.96.36.31.36-6.75.36 6.14.37-5.54.36 5.69.36.57.36-6.56.36 6.62.37-.1.36.08.36.16.36-6.66.36 6.14.37-6.09.36 5.58.36 1.39.36-7.7.36 6.93.37.24.36.79.36-.43.36-.22.37.29.36-6.54.36 4.76.36.08.36-6.48.37 6.88.36-5.51.36 5.58.36.86.36-.17.37.17.36-5.9.36 5.01.36 1.09.36-6.52.37 6.02.36-6.13.36 6.47.36-.45.37-6.57.36 6.65.36.62.36-.16.36.12.37-6.85.36 6.45.36-6.13.36 5.99.36.74.37-7.41.36 6.41.36.45.36.28.36-.63.37-.04.36.4.36-5.88.36 5.04.36.51.37-6.92.36 5.26.36-5.25.36 6.27.37.51.36.68.36.1.36-8.12.36 6.88.37.48.36-6.97.36 6.94.36-6.21.36 5.95.37-5.38.36 4.85.36 1.2.36-.35.36.12.37.77.36-7.15.36 6.63.36-6.74.37 5.18.36-5.75.36 5.74.36.93.36.83.37-.28.36.42.36-.44.36.54.36-7.53.37 5.96.36-4.71.36 4.8.36.67.36-5.87.37 5.63.36.68.36.16.36-.21.37-6.11.36 6.03.36-6.18.36 5.09.36.37.37-5.78.36 6.37.36-5.75.36 5.08.36.9.37-.13.36.31.36-6.26.36 5.32.36.85.37-7.3.36 6.38.36-5.71.36 5.68.36.21.37.64.36.09.36.24.36-.07.37-.87.36-6.92.36 6.73.36-5.44.36 5.21.37.46.36-6.52.36 5.88.36.86.36.5.37.02.36-7.12.36 6.41.36-5.8.36 5.45.37.33.36-6.55.36 6.38.36-5.93.37 5.24.36.9.36.04.36.31.36-6.46.37 5.26.36 1.15.36-7.05.36 6.74.36-5.74.37 5.66.36.26.36.63.36-.42.36-.36.37.42.36-.06.36-7.26.36 6.2.36-6.62.37 5.64.36 1.1.36-6.27.36 6.63.37-.49.36.94.36-.36.36-6.06.36 6.42.37-6.16.36 5.11.36 1 .36-7.01.36 7.09.37-6.68.36 5.45.36-.1.36 1.78.36-.68.37-5.53.36 5.53.36-.45.36-5.76.37 6.29.36-4.98.36 5.89.36.87.36.1.37-.02.36.31.36.07.36.19.36-6.24.37 6.28.36-6.07.36 5.17.36.94.36-6.8.37 7.26.36-.16.36-.25.36.08.36-6.4.37 5.67.36-5.49.36 5.8.36.58.37-7.6.36 6.62.36-6.05.36 5.38.36 1.22.37.29.36-.14.36-5.62.36 4.82.36.47.37-6.64.36 5.46.36-7.52.36 5.77.36 1.39.37 1.29.36-.54.36-1.06.36.93.37.87.36-6.43.36 6.06.36-5.97.36 5.83.37.39.36-6.78.36 6.29.36 1.05.36-.54.37.77.36-6.81.36 6.41.36-6.88.36 6.03.37-.86.36-6.61.36 5.81.36-6.4.37 5.48.36.95.36.26.36-.41.36-5.72.37 4.73.36.6.36-6.31.36 6.26.36-5.99.37 5.4.36.72.36.22h.36l.36-.01.37-.03.36.22.36-7.62.36 6.6.36-5.82.37 5.58.36.12.36-6.64.36 6.63.37-.51.36.61.36.61.36-7.14.36 6.25.37-7.15.36 6.23.36 1.44"/><use xlink:href="#e82df__c" color="#3B75EA" transform="matrix(3.75 0 0 3.75 67.83 94.61)"/><use xlink:href="#e82df__c" color="#3B75EA" transform="matrix(3.75 0 0 3.75 50.65 22.51)"/></g><text stroke-linecap="round" stroke-linejoin="round" color="#000" font-family="KaTeX_Main" font-size="8" transform="translate(241.1 10.11)"><tspan>RedBlackRelaxedBottomUp</tspan></text><g fill="none" stroke="currentColor" stroke-linecap="round" stroke-linejoin="round" color="#000"><path stroke="#EC6F1A" stroke-dasharray="1.0,2.0" d="M205.6 7.51h29.9M28 113.1l.36-1.57.36 5.25.37-8.72.36 7.04.36-7.8.36-2.48.36 5.26.37-8.5.36 7.64.36-.22.36-7.95.37 4.37.36-8.23.36-.67.36 6.89.36-6.7.37 5.14.36-8.28.36-.71.36-.53.36 6.71.37.4.36-8.1.36-1.42.36-.54.36 5.9.37-.05.36.62.36-8.08.36-1.55.36-1.86.37 5.18.36.03.36-7.6.36-2.08.37-1.35.36 5.48.36-8.03.36 6.87.36-6.86.37-1.67.36 5.17.36-8.02.36 6.27.36-.09.37-6.53.36 4.74.36-8.36.36-.93.36 6.31.37 39.75.36-7.15.36 5.51.36-.21.37-7.89.36 6.56.36-7.15.36 6.17.36.22.37-7.28.36 6.13.36.9.36.18.36.2.37-8.04.36 6.78.36-6.77.36 5.91.36.24.37-8.34.36 7.57.36.46.36.13.37-.03.36.07.36-.22.36-7.38.36 5.71.37.88.36-8.15.36 6.89.36-7.04.36 6.25.37.59.36.24.36.18.36-7.08.36 5.59.37.21.36-8.21.36 7.01.36-7.24.36 7.06.37-6.15.36 4.82.36.86.36.1.37.51.36.26.36-7.62.36 6.94.36-6.92.37 5.98.36-5.94.36 5.08.36.88.36.46.37.01.36.2h.36l.36-.24.36-6.87.37 5.79.36-6.21.36 5.02.36.42.37-6.73.36 6.2.36.64.36.35.36-.09.37-6.81.36 6.07.36-6.47.36 5.2.36.53.37-7.26.36 6.2.36-6.18.36 5.33.36.5.37.64.36.23.36-5.87.36 4.86.36.71.37-7.2.36 6.2.36-6.52.36 3.99.37.06.36 1.05.36-.03.36.7.36.15.37.06.36-7.12.36 6.07.36-6.48.36 5.22.37.43.36-6.85.36 7.05.36.12.36.63.37.02.36-6.89.36 6.2.36-6.16.37 5.51.36.33.36-6.97.36 6.3.36-6.03.37 5.8.36.63.36.28.36.28.36-5.83.37 4.6.36.55.36-6.54.36 6.2.36-5.69.37 5.26.36.87.36-.26.36.13.36.56.37-.25.36.35.36-7.04.36 6.15.37-6.25.36 4.96.36.44.36-7.63.36 6.73.37.69.36.35.36.14.36-6.5.36 6.01.37-6.16.36 5.19.36.53.36-6.83.36 5.67.37-6.05.36 5.79.36.37.36.45.37-.05.36-6.03.36 5.78.36.5.36-6.6.37 6.17.36-6.85.36 5.97.36-.1.36.55.37-.18.36.08.36.16.36.61.36-7.26.37 5.89.36-6.02.36 5.3.36.79.37-7.43.36 6.71.36.49.36.15.36.31.37-6.89.36 5.66.36-5.83.36 4.96.36.55.37-6.99.36 6.38.36-6.13.36 5.23.36.86.37.21.36-.5.36-5.69.36 5.46.36.7.37-7.19.36 6.34.36-6.03.36 5.12.37 1.18.36.4.36.29.36.01.36.1.37.16.36-6.8.36 6.15.36-6.3.36 5.55.37.35.36-6.95.36 6.52.36.22.36-.03.37.37.36-6.61.36 6.07.36-6.2.37 5.33.36.33.36-6.96.36 6.87.36-6.64.37 5.74h.36l.36.59.36.16.36-6.2.37 5.49.36-.24.36-6.2.36 6.42.36-6.51.37 5.95.36.58.36.46.36.09.36.23.37.03.36-.24.36-6.91.36 6.2.37-6.52.36 5.53.36-.11.36-6.72.36 6.62.37-.13.36.23.36.71.36-7.01.36 6.88.37-6.61.36 5.63.36.21.36-7.1.36 6.36.37-6.09.36 5.83.36.28.36.33.37.13.36-6.91.36 5.24.36.66.36-7.32.37 6.41.36-6.03.36 6.37.36.02.36.62.37-.28.36.41.36-.07.36.56.36-7.08.37 5.95.36-6.47.36 5.95.36.53.36-6.75.37 6.58.36.34.36.02.36.44.37-7.33.36 6.35.36-6.1.36 5.66.36.12.37-7.52.36 6.28.36-5.88.36 5.96.36.18.37.64.36-.25.36-5.97.36 6.14.36.5.37-6.73.36 6.79.36-6.86.36 6.69.37.63.36.05.36-.16.36.23.36.09.37.57.36-7.24.36 5.99.36-6.38.36 5.58.37.62.36-6.96.36 6.92.36.13.36.1.37.11.36-6.96.36 6.69.36-6.3.37 5.56.36.48.36-7.47.36 5.96.36-5.87.37 6.18.36.26.36-.16.36.52.36-6.73.37 6.13.36.57.36-6.9.36 6.52.36-6.81.37 6.15.36-.16.36.85.36.4.36-.6.37.18.36.26.36-6.78.36 6.69.37-6.39.36 5.74.36.38.36-7.27.36 6.9.37.16.36-.07.36.41.36-7.01.36 6.71.37-6.53.36 6.17.36-.3.36-10.31.36 7.53.37-5.89.36 6.81.36.48.36.06.37-.2.36-6.43.36 5.92.36.6.36-6.75.37 6.23.36-6.35.36 4.45.36.49.36.33.37.94.36-.08.36.67.36-.05.36-7.98.37 7.72.36-6.55.36 5.63.36 1.07.36-7.06.37 7 .36.05.36.42.36-.51.37-6.39.36 6.54.36-6.51.36 6.09.36-.07.37-6.69.36 6.44.36-6.5.36 6.22.36.89.37-.19.36-.03.36-7.09.36 6.6.36.22.37-6.46.36 5.85.36-6.35.36 6.29.37.5.36.22.36-.2.36.36.36-.06.37.03.36-6.85.36 6.77.36-6.75.36 6.21.37-6.11.36 5.19.36.26.36.36.36.58.37-.06.36-7.02.36 6.93.36-6.87.37 6.52.36-6.21.36 5.2.36 1.59.36-7.17.37 6.64.36-.08.36-.07.36.15.36-6.8.37 6.48.36-5.82.36 5.34.36.52.36-6.37.37 5.31.36 1.06.36.19.36.2.36.31.37-.07.36-6.05.36 4.9.36.49.37-6.26.36 5.57.36-5.69.36 5.38.36.63.37.06.36.14.36-5.94.36 5.16.36.55.37-6.02.36 6.06.36-5.91.36 4.99.36.65.37-6.47.36 5.86.36.71.36-.03.37-.15.36-5.84.36 6.35.36-6.25.36 5.25.37 1.18.36-7.15.36 6.35.36.56.36.07.37-.37.36.33.36.89.36-7.13.36 5.72.37.27.36-6.58.36 6.55.36-5.84.36 5.71.37.29.36-.03.36.58.36-6.32.37 5.44.36.03.36-6.09.36 6.01.36-5.76.37 5.32.36.89.36-6.91.36 6.64.36-.31.37.86.36-.42.36-6.45.36 6.28.36-5.65.37 4.94.36.46.36-6.54.36 6.4.37.03.36-.04.36.27.36-.22.36-.32.37-5.8.36 5.44.36.15.36-5.99.36 5.79.37-5.85.36 5.74.36.73.36.21.36-.46.37-5.86.36 5.54.36.35.36-6.38.36 6.3.37-6.16.36 5.85.36.48.36-6.55.37 5.76.36.24.36.38.36.38.36-6.45.37 6.05.36-7.58.36 5.32.36.92.36-6.27.37 7.33.36-.08.36.09.36.23.36-.14.37.08.36-6.39.36 5.74.36.47.37-6.97.36 6.65.36-6.06.36 5.8.36.16.37.64.36-.2.36-5.86.36 5.46.36.51.37-7 .36 6.6.36-6.08.36 5.39.36.92.37-6.89.36 6.17.36.64.36-.23.37.64.36-7.03.36 6.74.36-6.44.36 5.81.37.98.36-7.4.36 7.05.36-.03.36.15.37-.05.36.19.36-1.08.36-5.32.36 6.22.37-.13.36-6.73.36 6.51.36-6.19.36 5.45.37.58.36.54.36-.55.36-5.93.37 5.12.36.71.36-6.88.36 6.58.36-5.96.37 6.15.36.66.36-7.73.36 7.1.36.47.37.16.36-.45.36-6.1.36 6.08.36-6.37.37 6.42.36-1.59.36-8.28.36 7.84.37.42.36.7.36.74.36.16.36.15.37-7.07.36 6.24.36.76.36-6.86.36 6.29.37-6.21.36 5.8.36.45.36.45.36-.06.37-6.18.36 5.4.36.99.36-7.3.36 6.89.37-6.45.36 6.32.36-.12.36-6.28.37 6.08.36.55.36-.27.36.18.36-7.75.37 7.06.36-6.19.36 5.73.36.73.36-6.87.37 6.4.36.68.36.5.36-.11.36.03.37-.2.36-6.21.36 5.93.36.33.37-6.74.36 6.51.36-6.23.36 5.68.36.78.37.04.36.37.36-6.8.36 6.25.36.15.37-6.16.36 5.96.36-6.05.36 6.06.36-.03.37-6.82.36 6.81.36.25.36-.08h.36l.37-6.32.36 6.05.36-6.05.36 5.54.37.51.36-7.09.36 6.9.36-.07.36-.09.37.18.36-.23.36.03.36-7 .36 6.5.37.95.36-6.87.36 6.7.36-6.73.36 5.91.37.35.36.1.36.04.36-5.95.37 5.24.36.67.36-6.62.36 6.73.36-6.38.37 6.41.36-.04.36-6.69.36 6.55.36.36.37.26.36-.33.36-6.61.36 6.1.36-5.64.37 5.49.36.69.36-7.47.36 6.64.37.97.36-.04.36-.35.36-.04.36.08.37-6.52.36 6.51.36.03.36-6.62.36 6.32.37-6.56.36 6.1.36.31.36.3.36.11.37-6.91.36 6.4.36.21.36-6.74.36 6.75.37-6.18.36 6.16.36.33.36-7.45.37 7.3.36-.26.36.46.36.21.36-7.07.37 6.8.36-6.54.36 5.73.36.91.36-6.93.37 6.88.36-.43.36.39.36.26.36.19.37-.29.36-6.79.36 6.18.36.19.37-7.2.36 7.09.36-6.58.36 6.29.36.32.37.29.36-.58.36-6.4.36 6.42.36-.16.37-6.57.36 6.74.36-6.38.36 5.46.36-5.39.37 5.32.36.71.36.27.36.09.36.38.37-7.46.36 6.71.36-6.19.36 6.08.37-5.84.36 5.19.36.67.36.19.36.47.37-.07.36.24.36-.41.36-6.76.36 5.97.37-5.71.36 5.23.36.69.36-6.22.36 5.72.37 1.06.36.05.36-.59.36-6.02.37 5.85.36-5.78.36 5.56.36 1.15.36-6.69.37 6.22.36-5.86.36 4.84.36.32.36.14.37.65.36-5.88.36 4.55.36 1.51.36-6.93.37 6.57.36-6.08.36 5.35.36.28.36.33.37.18.36.27.36.19.36-.6.37-6.07.36 5.77.36-5.55.36 5.42.36.69.37-6.75.36 6.09.36.49.36.27.36.02.37-6.98.36 5.8.36-5.49.36 5.18.36.45.37-5.76.36 5.81.36-5.54.36 4.94.37 1.31.36-.25.36-.16.36-6.1.36 5.38.37.76.36-6.73.36 6.38.36-5.52.36 4.7.37.9.36-.67.36-1.29.36 1.12.36-.03.37 1.31.36-7.37.36 6.65.36-6.09.37 5.71.36.6.36-6.36.36 6.13.36.58.37.23.36.46.36-7.14.36 6.13.36-6.03.37 5.77.36.63.36-6.83.36 6.47.36-5.7.37 5.22.36.83.36-.22.36.4.36-6.68.37 5.69.36.57.36-6.4.36 6.22.37-6.31.36 5.74.36.51.36.1.36.47.37-.16.36-.03.36.08"/><use xlink:href="#e82df__a" color="#EC6F1A" transform="matrix(3.75 0 0 3.75 125.4 79.89)"/><use xlink:href="#e82df__a" color="#EC6F1A" transform="matrix(3.75 0 0 3.75 220.55 7.51)"/></g><text stroke-linecap="round" stroke-linejoin="round" color="#000" font-family="KaTeX_Main" font-size="8" transform="translate(241.1 25.11)"><tspan>RedBlackRelaxedTopDown</tspan></text><g fill="none" stroke="currentColor" stroke-linecap="round" stroke-linejoin="round" color="#000"><path stroke="violet" stroke-dasharray="4.0,2.0,1.0,2.0" d="M205.6 22.51h29.9M28 157.43l.36-6.31.36 4.1.37-7.34.36.38.36 5.93.36-7.36.36 5.33.37-7.92.36-.37.36-.91.36 7.14.37-.51.36-8.3.36-.61.36-2.24.36 6.51.37-.16.36.22.36-7.86.36-1.43.36-1.01.37 5.19.36.68.36-7.52.36-.84.36-1.5.37 5.12.36-7.62.36 7.26.36-7.25.36-1.21.37 4.62.36-7.04.36 6.42.36.06.37-7.63.36 4.76.36-8.11.36-1.49.36 6.3.37-6.12.36 4.4.36-8.01.36.39.36-1.7.37 6.13.36.14.36-8.32.36-.04.36-1.48.37 18.01.36.63h.36l.36-.75.37.25.36-.23.36-6.98.36 5.61.36-.21.37-7.28.36 6.64.36-6.92.36 5.63.36-.7.37-.24.36-1.03.36-5.74.36 5.23.36.05.37-8.29.36 6.92.36-7.2.36 5.91.37.22.36-7.94.36 6.54.36.31.36-.33.37.17.36-7.81.36 6.21.36-7.77.36 6.36.37-.19.36-7.69.36 7.07.36.08.36-.42.37.07.36-.96.36.67.36-7.59.36 6.4.37.31.36-7.51.36 6.67.36-6.54.37 6.12.36.04.36.25.36-.02.36-7.46.37 6.09.36-.1.36-6.98.36 6.65.36-6.7.37 6.32.36.12.36-7.39.36 7.12.36.52.37.09.36-.58.36-7.7.36 7.43.37-7.1.36 6.17.36.32.36-6.98.36 6.28.37.67.36-.34.36-.16.36.11.36-.11.37-7.41.36 6.23.36.18.36-7.87.36 6.93.37-6.81.36 6.45.36.52.36.23.36-.48.37-7.01.36 6.52.36.31.36-7.19.37 7.24.36-6.88.36 5.9.36-5.98.36 5.33.37.65.36.39.36-.1.36-.52.36-7.62.37 6.95.36-6.83.36 6.69.36-6.03.36 5.31.37.03.36.24.36.47.36.12.37-.34.36.05.36-6.92.36 6.03.36-5.84.37 4.63.36.32.36-6.52.36 6.92.36.58.37-.54.36.32.36-7.26.36 6.22.36.69.37-7.29.36 7.39.36-6.97.36 6.02.36-5.39.37 5.55.36.25.36-.03.36-.28.37.7.36-7.44.36 6.91.36-6.52.36 5.7.37-5.76.36 5.55.36.19.36.51.36.06.37-.42.36.22.36.11.36-7.39.36 6.24.37-5.55.36 5.24.36.76.36-7.35.37 5.96.36 1.02.36-.14.36.2.36-7 .37 5.72.36-5.86.36 5.7.36-.05.36-6.46.37 6.38.36-5.94.36 5.45.36.81.36.82.37-.34.36-6.29.36 5.18.36.58.37-6.72.36 6.21.36-6.22.36 5.63.36.9.37.25.36.06.36-.07.36.03.36-.37.37-6.91.36 6.2.36-6.19.36 5.54.36.64.37-6.94.36 6.43.36.32.36.1.36.53.37-7.13.36 5.82.36-5.54.36 5.39.37.99.36-6.94.36 6.54.36-6.53.36 5.45.37.23.36.98.36-.59.36-6.34.36 5.47.37.22.36-6.16.36 5.97.36-5.73.36 5.15.37.93.36.18.36.29.36.03.37-.01.36-.67.36-6.66.36 6.34.36-6.09.37 5.67.36.17.36-6.71.36 6.9.36.16.37.37.36-.24.36-6.64.36 6.27.36-6.13.37 5.34.36.51.36-6.72.36 6.67.36-5.8.37 5.58.36.65.36-.18.36-.63.37-6.2.36 5.36.36.61.36-6.62.36 6.6.37-6.47.36 5.53.36 1.12.36.45.36.26.37-.71.36.41.36-.27.36-7.33.36 6.2.37-5.6.36 5.36.36.35.36-6.48.37 6.09.36.62.36.16.36-.03.36-6.81.37 6.46.36-6.48.36 6.3.36.2.36-6.64.37 6.45.36-6.2.36 5.79.36.14.36.48.37.31.36-6.82.36 5.79.36.35.36-6.55.37 6.27.36-5.94.36 5.55.36.72.37-.65.36.63.36.3.36-.23.36.34.37-7.36.36 6.21.36-6.39.36 6.03.36.8.37-6.62.36 6.28.36.32.36-.2.36.28.37-6.82.36 6.6.36-6.51.36 5.72.37.83.36-7.41.36 6.63.36-5.85.36 5.91.37.52.36-.13.36.19.36-6.42.36 5.37.37.92.36-7.03.36 6.62.36-6.24.36 5.43.37 1.12.36.08.36-.21h.36l.37-.59.36.3.36-6.76.36 6.69.36-6.2.37 5.77.36.33.36-6.65.36 6.34.36.26h.37l.36.08.36-7.16.36 6.59.36-6.28.37 6.04.36.5.36-6.78.36 6.35.36-6.16.37 5.69.36.72.36-.08.36.41.37-6.51.36 5.64.36 1.04.36-7.51.36 6.72.37-6.46.36 5.8.36.21.36.66.36-.16.37.32.36-.08.36-.46.36-7.11.36 7.03.37-6.46.36 6.21.36.7.36-7.41.37 6.79.36.31.36.02.36.64.36-7.18.37 6.8.36-6.59.36 6.17.36-.26.36-7.2.37 7.16.36-6.66.36 6.32.36.28.36-.02.37.63.36-6.54.36 5.32.36.88.36-7.18.37 6.53.36-6.31.36 6.42.36.03.37.66.36-.37.36.08.36.08.36.24.37-7.04.36 6.55.36-6.43.36 5.67.36.99.37-7.45.36 6.57.36-.01.36.44.36.05.37-7.57.36 7.04.36-6.03.36 5.79.37.52.36-6.83.36 6.86.36-6.59.36 5.55.37.42.36.53.36.51.36-7 .36 5.85.37.72.36-7.05.36 6.85.36-6.99.36 5.76.37.56.36.33.36.15.36.11.37.5.36-.24.36-7.6.36 6.96.36-6.74.37 6.42.36.15.36-7.11.36 6.44.36 1.02.37.14.36-.42.36-6.88.36 6.44.36-5.91.37 5.43.36 1.04.36-7.22.36 7.34.36-6.93.37 5.02.36.7.36.53.36.51.37-6.59.36 6.03.36-.25.36-6.94.36 6.36.37-5.61.36 6.54.36.01.36.62.36-.32.37.11.36-.07.36-.44.36-6.34.36 6.54.37-6.54.36 5.45.36-5.06.36 5.39.37.35.36.58.36.41.36-.3.36-7.05.37 6.66.36-6.72.36 5.58.36-5.1.36 4.97.37-.83.36-7.07.36 7.36.36.28.36 1.45.37-.14.36-6.46.36 6.18.36.12.36-6.77.37 6.3.36-6.23.36 6.19.36.5.37.28.36-.21.36-.16.36.39.36-.24.37-7.45.36 7.48.36-6.08.36 5.83.36-5.8.37 5.67.36.28.36-.34.36.74.36-.3.37-7.01.36 6.45.36-6.74.36 6.62.37-6.21.36 5.03.36 1.8.36-6.95.36 6.21.37.14.36.19.36.57.36-6.89.36 5.97.37-5.75.36 5.37.36.55.36-6.86.36 6.45.37.6.36-.08.36-.11.36.12.36-.42.37-5.53.36 5.01.36.37.36-6.36.37 6.2.36-5.8.36 5.45.36.77.36.46.37.2.36-6.43.36 5.35.36.18.36-6.04.37 6.19.36-6.13.36 5.1.36 1.4.36-7.04.37 6.06.36-.49.36 1.21.36.04.37-7.16.36 6.87.36-6.09.36 5.25.36.29.37-6.86.36 6.68.36.39.36.54.36-.44.37.43.36.5.36-6.06.36 4.91.36.66.37-6.58.36 5.7.36-5.69.36 5.63.37 1.01.36-.26.36.47.36-6.37.36 5.37.37.59.36-7.28.36 6.25.36-5.79.36 5.59.37.87.36-6.86.36 6.64.36.47.36-.05.37.31.36-7.03.36 5.89.36-6.04.36 5.51.37.91.36-6.72.36 6.22.36.71.37-.23.36.26.36-.05.36.42.36-6.84.37 5.8.36 1.1.36-7.12.36 5.94.36-5.38.37 4.96.36 1.05.36.34.36-.63.36-6.05.37 5.66.36.51.36-6.68.36 6.18.37-5.68.36 5.74.36.29.36-6.86.36 6.53.37.16.36.39.36.54.36-7 .36 6.18.37-5.96.36 6.32.36-.01.36-5.69.36 5.96.37.6.36-.04.36.34.36-.06.36.21.37-6.32.36 5.27.36.31.36-6.93.37 6.43.36-5.76.36 5.68.36.32.36.18.37.54.36-6.65.36 5.05.36.65.36-6.59.37 6.65.36-5.15.36 5.07.36.38.36-6.18.37 6.66.36-.22.36.06.36.05.37-6.74.36 6.6.36-6.35.36 5.07.36.52.37-6.21.36 6.41.36.34.36.44.36-.5.37-1.33.36-.02.36-5.9.36 5.53.36.45.37-6.5.36 6.23.36-5.73.36 5.31.36.83.37.15.36-.43.36-6.21.36 5.47.37.5.36-6.45.36 6.54.36-6.3.36 5.91.37.49.36-6.6.36 6.48.36.18.36.55.37-.6.36-6.62.36 6.33.36-6.38.36 5.62.37 1.19.36-6.63.36 6.32.36.56.37.26.36-.2.36.12.36-.01.36-6.43.37 5.52.36.45.36-6.54.36 6.52.36-6.56.37 5.9.36.34.36.8.36.05.36-6.71.37 5.75.36.05.36-7.04.36 6.8.37-5.69.36 5.84.36-.11.36-6.98.36 6.62.37.77.36.77.36-.43.36-6.86.36 6.8.37-6.53.36 5.89.36.28.36-6.41.36 6.23.37.38.36-.13.36.82.36-.35.36.36.37-6.11.36 5.43.36.52.36-6.98.37 7.03.36-6.63.36 6.59.36-.08.36-.02.37.02.36-6.36.36 4.77.36 1.07.36-7.11.37 7.05.36-6.71.36 6.24.36.21.36-6.53.37 6.52.36-.05.36.36.36.22.37-7.01.36 5.92.36-5.74.36 5.95.36.28.37-6.92.36 7.01.36.13.36.06.36-.55.37.58.36.06.36-6.15.36 5.64.36.01.37-6.9.36 6.79.36-6.47.36 5.69.36 1.3.37-.44.36-.34.36-5.75.36 6.17.37.42.36-7.69.36 6.6.36-5.82.36 5.97.37.67.36-6.89.36 6.54.36.54.36.08.37-.07.36-7.11.36 6.31.36-5.99.36 6.23.37-.09.36-7.2.36 6.71.36.61.37-.24.36.66.36-.22.36.58.36-7.02.37 6 .36-.1.36-6.56.36 6.32.36-5.57.37 5.7.36.25.36-.2.36.85.36-7.06.37 6.31.36.31.36-7.11.36 6.55.36-6.33.37 4.31.36-5.29.36 5.84.36 1.3.37.58.36-.4.36.72.36-7.96.36 6.85.37-6.61.36 5.99.36-4.58.36 4.78.36.77.37.1.36.61.36-.13.36-.2.36-.05.37-6.06.36 5.8.36-5.51.36 4.11.37 1.69.36-6.56.36 6.81.36.46.36.24.37-.31.36-6.39.36 5.84.36 1.39.36-7.42.37 6.17.36-6.37.36 5.74.36-5.82.36 4.92.37 1.08.36.19.36-.21.36.71.37-7.42.36 6.59.36-6.18.36 5.64.36-6.02.37 5.53.36.95.36.52.36-.31.36.48.37-.21.36.38.36-7.5.36 6.2.36-5.44.37 4.7.36 1.07.36-7.11.36 7.23.36-.11.37.58.36-.31.36-6.53.36 6.32.37-5.83.36 4.97.36.64.36-6.41.36 6.25.37-5.92.36 5.97.36.3"/><use xlink:href="#e82df__d" color="violet" transform="matrix(3.75 0 0 3.75 182.98 92.55)"/><use xlink:href="#e82df__d" color="violet" transform="matrix(3.75 0 0 3.75 220.55 22.51)"/></g><path fill="none" d="M28 45.01V162.5M371.99 45.01H28" color="#000"/></svg>