<svg xmlns="http://www.w3.org/2000/svg" xmlns:xlink="http://www.w3.org/1999/xlink" viewBox="0 0 400 200"><path fill="none" d="M0 0h400v200H0z"/><defs><use xlink:href="#c0737__a" id="c0737__g" fill="currentColor" stroke="none"/><use xlink:href="#c0737__b" id="c0737__c" stroke="currentColor" transform="rotate(180)"/><use xlink:href="#c0737__c" id="c0737__f" fill="currentColor" stroke="none"/><use xlink:href="#c0737__d" id="c0737__e" stroke="currentColor" transform="rotate(45)"/><use xlink:href="#c0737__e" id="c0737__h" fill="currentColor" stroke="none"/><path id="c0737__d" stroke="currentColor" stroke-width=".267" d="M-1-1h2v2h-2z"/><path id="c0737__b" stroke="currentColor" stroke-width=".267" d="m0-1.33-1.33 2h2.66z"/><path id="c0737__i" stroke="currentColor" stroke-width=".267" d="M0 1.33 1.265.411.782-1.067l-1.564-.009-.483 1.487z"/><circle id="c0737__a" cx="0" cy="0" r="1" stroke="currentColor" stroke-width=".267"/></defs><path fill="none" stroke="#CCC" stroke-linecap="round" stroke-linejoin="round" stroke-width=".1" d="M46.1 162.5V75.01" class="c0737__gridline" color="#000"/><g fill="none" stroke-linecap="round" stroke-linejoin="round" stroke-width="0" color="#000"><path d="M46.1 162.5V155m0-79.99v7.5"/><text fill="#000" font-family="KaTeX_Main" font-size="8" text-anchor="middle" transform="translate(46.1 172.6)"><tspan> 1</tspan></text></g><path fill="none" stroke="#CCC" stroke-linecap="round" stroke-linejoin="round" stroke-width=".1" d="M82.31 162.5V75.01" class="c0737__gridline" color="#000"/><g fill="none" stroke-linecap="round" stroke-linejoin="round" stroke-width="0" color="#000"><path d="M82.31 162.5V155m0-79.99v7.5"/><text fill="#000" font-family="KaTeX_Main" font-size="8" text-anchor="middle" transform="translate(82.31 172.6)"><tspan> 2</tspan></text></g><path fill="none" stroke="#CCC" stroke-linecap="round" stroke-linejoin="round" stroke-width=".1" d="M118.52 162.5V75.01" class="c0737__gridline" color="#000"/><g fill="none" stroke-linecap="round" stroke-linejoin="round" stroke-width="0" color="#000"><path d="M118.52 162.5V155m0-79.99v7.5"/><text fill="#000" font-family="KaTeX_Main" font-size="8" text-anchor="middle" transform="translate(118.52 172.6)"><tspan> 3</tspan></text></g><path fill="none" stroke="#CCC" stroke-linecap="round" stroke-linejoin="round" stroke-width=".1" d="M154.73 162.5V75.01" class="c0737__gridline" color="#000"/><g fill="none" stroke-linecap="round" stroke-linejoin="round" stroke-width="0" color="#000"><path d="M154.73 162.5V155m0-79.99v7.5"/><text fill="#000" font-family="KaTeX_Main" font-size="8" text-anchor="middle" transform="translate(154.73 172.6)"><tspan> 4</tspan></text></g><path fill="none" stroke="#CCC" stroke-linecap="round" stroke-linejoin="round" stroke-width=".1" d="M190.94 162.5V75.01" class="c0737__gridline" color="#000"/><g fill="none" stroke-linecap="round" stroke-linejoin="round" stroke-width="0" color="#000"><path d="M190.94 162.5V155m0-79.99v7.5"/><text fill="#000" font-family="KaTeX_Main" font-size="8" text-anchor="middle" transform="translate(190.94 172.6)"><tspan> 5</tspan></text></g><path fill="none" stroke="#CCC" stroke-linecap="round" stroke-linejoin="round" stroke-width=".1" d="M227.15 162.5V75.01" class="c0737__gridline" color="#000"/><g fill="none" stroke-linecap="round" stroke-linejoin="round" stroke-width="0" color="#000"><path d="M227.15 162.5V155m0-79.99v7.5"/><text fill="#000" font-family="KaTeX_Main" font-size="8" text-anchor="middle" transform="translate(227.15 172.6)"><tspan> 6</tspan></text></g><path fill="none" stroke="#CCC" stroke-linecap="round" stroke-linejoin="round" stroke-width=".1" d="M263.36 162.5V75.01" class="c0737__gridline" color="#000"/><g fill="none" stroke-linecap="round" stroke-linejoin="round" stroke-width="0" color="#000"><path d="M263.36 162.5V155m0-79.99v7.5"/><text fill="#000" font-family="KaTeX_Main" font-size="8" text-anchor="middle" transform="translate(263.36 172.6)"><tspan> 7</tspan></text></g><path fill="none" stroke="#CCC" stroke-linecap="round" stroke-linejoin="round" stroke-width=".1" d="M299.57 162.5V75.01" class="c0737__gridline" color="#000"/><g fill="none" stroke-linecap="round" stroke-linejoin="round" stroke-width="0" color="#000"><path d="M299.57 162.5V155m0-79.99v7.5"/><text fill="#000" font-family="KaTeX_Main" font-size="8" text-anchor="middle" transform="translate(299.57 172.6)"><tspan> 8</tspan></text></g><path fill="none" stroke="#CCC" stroke-linecap="round" stroke-linejoin="round" stroke-width=".1" d="M335.78 162.5V75.01" class="c0737__gridline" color="#000"/><g fill="none" stroke-linecap="round" stroke-linejoin="round" stroke-width="0" color="#000"><path d="M335.78 162.5V155m0-79.99v7.5"/><text fill="#000" font-family="KaTeX_Main" font-size="8" text-anchor="middle" transform="translate(335.78 172.6)"><tspan> 9</tspan></text></g><path fill="none" stroke="#CCC" stroke-linecap="round" stroke-linejoin="round" stroke-width=".1" d="M371.99 162.5V75.01" class="c0737__gridline" color="#000"/><g fill="none" stroke-linecap="round" stroke-linejoin="round" stroke-width="0" color="#000"><path d="M371.99 162.5V155m0-79.99v7.5"/><text fill="#000" font-family="KaTeX_Main" font-size="8" text-anchor="middle" transform="translate(371.99 172.6)"><tspan> 10</tspan></text></g><g fill="none" stroke-linecap="round" stroke-linejoin="round" stroke-width="0" color="#000"><path d="M371.99 158.13h-7.5"/><text fill="#000" font-family="KaTeX_Main" font-size="8" transform="translate(378.99 160.73)"><tspan>0</tspan></text></g><g fill="none" stroke-linecap="round" stroke-linejoin="round" stroke-width="0" color="#000"><path d="M371.99 136.25h-7.5"/><text fill="#000" font-family="KaTeX_Main" font-size="8" transform="translate(378.99 138.85)"><tspan>5</tspan></text></g><g fill="none" stroke-linecap="round" stroke-linejoin="round" stroke-width="0" color="#000"><path d="M371.99 114.38h-7.5"/><text fill="#000" font-family="KaTeX_Main" font-size="8" transform="translate(378.99 116.98)"><tspan>10</tspan></text></g><g fill="none" stroke-linecap="round" stroke-linejoin="round" stroke-width="0" color="#000"><path d="M371.99 92.51h-7.5"/><text fill="#000" font-family="KaTeX_Main" font-size="8" transform="translate(378.99 95.11)"><tspan>15</tspan></text></g><path fill="none" d="M28 75.01v87.49m343.99-87.49H28" color="#000"/><text stroke-linecap="round" stroke-linejoin="round" stroke-width="0" color="#000" font-family="KaTeX_Main" font-size="10" text-anchor="middle" transform="rotate(-90 65.13 53.63)"><tspan>log</tspan><tspan dy="3" font-size="8">2</tspan><tspan dy="-3">(</tspan><tspan font-weight="bold">Maximum Path Length </tspan><tspan> / log</tspan><tspan dy="3" font-size="8">2</tspan><tspan dy="-3">(Size))</tspan></text><text stroke-linecap="round" stroke-linejoin="round" stroke-width="0" color="#000" font-family="KaTeX_Main" font-size="10" text-anchor="middle" transform="translate(199.99 195.75)"><tspan>Operations / 10</tspan><tspan dy="-5" font-size="8">6</tspan></text><text stroke-linecap="round" stroke-linejoin="round" color="#000" font-family="KaTeX_Main" font-size="8" transform="translate(76.8 10.11)"><tspan>AVLTopDown</tspan></text><g fill="none" stroke="currentColor" stroke-linecap="round" stroke-linejoin="round" color="#000"><path stroke="#29C3F6" stroke-dasharray="2.5,4.0" d="M41.3 7.51h29.9M28 158.44l.36.01.36.01.37-.33.36.01.36.01.36.01.36.01h.37l.36.01.36.01.36.01.37.01h.36l.36.01.36.01h.36l.37.01.36.01.36.01h.36l.36.01.37.01h.36l.36.01h.36l.36.01.37.01h.36l.36.01h.36l.36.01.37.01h.36l.36.01h.36l.37.01h.36l.36.01h.36l.36.01h.37l.36.01h.36l.36.01h.36l.37.01h.36l.36.01h.36l.36.01h.37l.36.01h.36l.36.01.37-.32h.72l.36.01h.36l.37.01h.36l.36.01h.72l.37.01h.36l.36.01h.72l.37.01h.72l.36.01h.73l.36.01h.36l.36.01h.73l.36.01h.72l.37.01h.72l.36.01h.73l.36.01h.72l.36.01h1.09l.36.01h.73l.36.01h.72l.37.01h1.08l.36.01h1.09l.36.01h.73l.36.01h1.09l.36.01h1.08l.37.01h1.08l.36.01h1.09l.36.01h1.09l.36.01h1.09l.36.01h1.09l.36.01h1.45l.36.01h1.45l.36.01h1.08l.37.01h1.08l.37-.3h1.44l.37.01h1.44l.37.01H91l.37.01h1.44l.37.01h1.81l.36.01h1.45l.36.01h1.81l.36.01h1.81l.37.01h1.81l.36.01h1.81l.36.01h1.81l.36.01h1.81l.37.01h2.17l.36.01h2.17l.36.01h2.18l.36.01h2.17l.36.01h2.18l.36.01h2.53l.37.01h2.17l.36.01h2.53l.37.01h2.53l.36.01h2.9l.36.01h2.54l.36.01h2.9l.36.01h2.89l.37.01h2.89l.37.01h2.89l.36.01h3.26l.37.01h3.25l.37.01h1.08l.37-.29h3.25l.37.01h3.25l.37.01h3.62l.36.01h3.62l.36.01h3.62l.37.01h3.98l.36.01h3.98l.37.01h3.98l.36.01h4.35l.36.01h4.34l.37.01h4.34l.36.01h4.71l.36.01h4.71l.36.01h4.71l.36.01h5.07l.36.01h5.07l.36.01h5.44l.36.01h5.43l.36.01h5.43l.36.01h5.8l.36.01h5.79l.37.01h6.15l.36.01h6.16l.36.01h6.52l.36.01h6.52l.36.01h6.88l.36.01H305l.36.01h7.25l.36.01h.36l.36-.28h7.24l.37.01h7.6l.36.01h7.61l.36.01h8.33l.36.01h8.33l.36.01h8.33l.36.01h8.69"/><use xlink:href="#c0737__f" color="#29C3F6" transform="matrix(3.75 0 0 3.75 354.25 158.17)"/><use xlink:href="#c0737__f" color="#29C3F6" transform="matrix(3.75 0 0 3.75 56.25 7.51)"/></g><text stroke-linecap="round" stroke-linejoin="round" color="#000" font-family="KaTeX_Main" font-size="8" transform="translate(76.8 25.11)"><tspan>AVLRelaxedBottomUp</tspan></text><g fill="none" stroke="currentColor" stroke-linecap="round" stroke-linejoin="round" color="#000"><path stroke="#D336C8" d="M41.3 22.51h29.9M28 158.44l.36.01.36.01.37-.33.36.01.36.01.36.01.36.01h.37l.36.01.36.01.36.01.37.01h.36l.36.01.36.01h.36l.37.01.36.01.36.01h.36l.36.01.37.01h.36l.36.01h.36l.36.01.37.01h.36l.36.01h.36l.36.01.37.01h.36l.36.01h.36l.37.01h.36l.36.01h.36l.36.01h.37l.36.01h.36l.36.01h.36l.37.01h.36l.36.01h.36l.36.01h.37l.36.01h.36l.36.01.37-.32h.72l.36.01h.36l.37.01h.36l.36.01h.72l.37.01h.36l.36.01h.72l.37.01h.72l.36.01h.73l.36.01h.36l.36.01h.73l.36.01h.72l.37.01h.72l.36.01h.73l.36.01h.72l.36.01h1.09l.36.01h.73l.36.01h.72l.37.01h1.08l.36.01h1.09l.36.01h.73l.36.01h1.09l.36.01h1.08l.37.01h1.08l.36.01h1.09l.36.01h1.09l.36.01h1.09l.36.01h1.09l.36.01h1.45l.36.01h1.45l.36.01h1.08l.37.01h1.08l.37-.3h1.44l.37.01h1.44l.37.01H91l.37.01h1.44l.37.01h1.81l.36.01h1.45l.36.01h1.81l.36.01h1.81l.37.01h1.81l.36.01h1.81l.36.01h1.81l.36.01h1.81l.37.01h2.17l.36.01h2.17l.36.01h2.18l.36.01h2.17l.36.01h2.18l.36.01h2.53l.37.01h2.17l.36.01h2.53l.37.01h2.53l.36.01h2.9l.36.01h2.54l.36.01h2.9l.36.01h2.89l.37.01h2.89l.37.01h2.89l.36.01h3.26l.37.01h3.25l.37.01h1.08l.37-.29h3.25l.37.01h3.25l.37.01h3.62l.36.01h3.62l.36.01h3.62l.37.01h3.98l.36.01h3.98l.37.01h3.98l.36.01h4.35l.36.01h4.34l.37.01h4.34l.36.01h4.71l.36.01h4.71l.36.01h4.71l.36.01h5.07l.36.01h5.07l.36.01h5.44l.36.01h5.43l.36.01h5.43l.36.01h5.8l.36.01h5.79l.37.01h6.15l.36.01h6.16l.36.01h6.52l.36.01h6.52l.36.01h6.88l.36.01H305l.36.01h7.25l.36.01h.36l.36-.28h7.24l.37.01h7.6l.36.01h7.61l.36.01h8.33l.36.01h8.33l.36.01h8.33l.36.01h8.69"/><use xlink:href="#c0737__b" color="#D336C8" transform="matrix(3.75 0 0 3.75 67.83 158.31)"/><use xlink:href="#c0737__b" color="#D336C8" transform="matrix(3.75 0 0 3.75 56.25 22.51)"/></g><text stroke-linecap="round" stroke-linejoin="round" color="#000" font-family="KaTeX_Main" font-size="8" transform="translate(76.8 40.11)"><tspan>RedBlackBottomUp</tspan></text><g fill="none" stroke="currentColor" stroke-linecap="round" stroke-linejoin="round" color="#000"><path stroke="#F44336" d="M41.3 37.51h29.9M28 154.43l.36.01.36.01.37-.17h.36l.36.01.36.01.36.01.37.01.36.01h.36l.36.01.37.01.36.01h.36l.36.01.36.01.37.01h.36l.36.01.36.01h.36l.37.01.36.01h.36l.36.01.36.01h.37l.36.01.36-.17h.36l.36.01h.37l.36.01h.36l.36.01.37.01h.36l.36.01h.36l.36.01h.37l.36.01h.36l.36.01h.36l.37.01h.36l.36.01h.72l.37.01h.36l.36.01h.36l.37-.17.36.01h.36l.36.01h.73l.36.01h.36l.36.01h.73l.36.01h.36l.36.01h.73l.36.01h.36l.36.01h.73l.36.01h.72l.37.01h.72l.36.01h.73l.36.01h.72l.36.01h.73l.36.01h.72l.37.01h1.08l.37.01h.72l.36.01h.73l.36.01h1.08l.37-.16h.72l.36.01h.73l.36.01h1.09l.36.01h1.08l.37.01h1.08l.36.01h1.09l.36.01h1.09l.36.01h1.09l.36.01h1.45l.36.01h1.09l.36.01h1.45l.36.01h1.45l.36.01h.72l.37-.16h.72l.36.01h1.45l.36.01h1.45l.36.01h1.81l.36.01h1.45l.37.01h1.44l.37.01h1.81l.36.01h1.81l.36.01h1.81l.36.01h1.81l.37.01h1.81l.36.01h1.81l.36.01h2.17l.37.01h2.17l.36.01h2.17l.37.01h2.17l.36.01h2.17l.36.01h1.45l.37-.16h.36l.36.01h2.53l.37.01h2.17l.36.01h2.54l.36.01h2.89l.37.01h2.53l.36.01h2.9l.36.01h2.9l.36.01h2.9l.36.01h2.9l.36.01h3.26l.36.01h2.9l.36.01h2.53l.37-.15h2.53l.36.01h3.62l.36.01h3.63l.36.01h3.62l.36.01h3.62l.36.01h3.99l.36.01h3.98l.36.01h3.99l.36.01h3.98l.36.01h4.35l.36.01h4.71l.36.01h4.35l.36.01h4.71l.36.01h5.07l.36.01h4.71l.36.01h5.07l.36.01h3.98l.36-.15h2.18l.36.01h5.43l.36.01h5.8l.36.01h5.79l.36.01h5.8l.36.01h6.16l.36.01h6.15l.37.01h6.51l.37.01h6.51l.36.01h6.88l.37.01h6.88l.36.01h7.24l.36-.14h6.16l.36.01h7.6l.37.01h7.96l.36.01h7.97l.36.01h8.33l.36.01h8.33l.36.01h8.69l.37.01h.72"/><use xlink:href="#c0737__b" color="#F44336" transform="matrix(3.75 0 0 3.75 125.4 154.24)"/><use xlink:href="#c0737__b" color="#F44336" transform="matrix(3.75 0 0 3.75 56.25 37.51)"/></g><text stroke-linecap="round" stroke-linejoin="round" color="#000" font-family="KaTeX_Main" font-size="8" transform="translate(76.8 55.11)"><tspan>RedBlackRelaxedTopDown</tspan></text><g fill="none" stroke="currentColor" stroke-linecap="round" stroke-linejoin="round" color="#000"><path stroke="violet" stroke-dasharray="4.0,2.0,1.0,2.0" d="M41.3 52.51h29.9M28 155.89h.36l.36-1.06.37 1.32.36-.68.36.46.36-.44.36.46.37-.44.36.94.36-1.14.36.22.37-.41.36.21.36-.2.36.43.36.7.37-.47.36.24.36-.22.36-.43.36.01.37-.4.36.84.36-.21.36-.21.36.01.37-.6.36.2.36.63.36-.21.36.67.37.01.36-.23.36-.21h.36l.37-.41.36.42.36-.61.36.85.36-.84.37.41.36.22.36.23.36-.84.36-.19.37.2.36.62.36-.2h.36l.36.22.37-.21.36.22.36-.81.36-.19.37 1.7.36-.46.36-.22.36-.42.36.65.37-.22.36-.81.36.4.36.42.36.01.37.22.36-.63.36.21.36.67.36-.23.37-.84.36.41.36-.2.36.42.37-.81.36.82.36-.62.36.41.36-.59.37.39.36.01.36-.39.36 1.04.36-.22.37-.21h.36l.36.22.36-.42.36.21.37-.2.36-.2.36.41.36-.4h.36l.37-.38.36 1.7.36-.9.36-.21h.37l.36.01.36-.2.36.41.36-.4.37.41.36-.97.36.56.36-.38.36.2.37.39.36.43.36-.62.36 1.07.36-.44.37-.62.36.62.36-.21H70l.37-.6.36.4.36.21.36-.2h.36l.37-.39.36.39.36.01.36-.4.36-.18.37 1.46.36-.67.36.22.36-1 .36.38.37.01.36-.2.36.4.36.21h.36l.37.22.36-1 .36.38.36-.56.37.77.36-.58.36.58h.36l.36.21.37-.4.36.2.36-.2.36-.19.36.4.37-.2h.36l.36-.38.36.59.36-.4.37-.37.36.19.36-.36.36.95.37.64h.36l.36-.43.36.9.36-1.1h.37l.36-.39.36.81.36-.21.36-.2h.73l.36-.76.36.97.36-.6.37.82.36-.42.36.21.36-.21.36.01.37.2.36-.78.36.19.36.39.37-.2.36-.38.36 1.01.36-.21h.36l.37-.79h.36l.36 1.01.36-.62.36.62.37-.81.36.6.36-.2h.36l.36-.77.37.19.36.58h.36l.36-.58.37.39h.36l.36-.19.36-.37.36.56.37-.19.36.4.36-.39h.36l.36-.37.37 1.19.36-.22.36-.4.36.2.36-.39.37.19.36.2.36-.19.36-.2.37.4.36.42.36-.81h.36l.36.2.37.62.36-.82.36.4.36-.58.36.79.37-.41.36-.19.36-.19.36.01h.73l.36-.36.36 1.37.36.22.36-.84h.73l.36-.19.36.39.37-.39.36.4.36-.4.36-.37.36.19.37-.18.36.56.36-.56.36.18.36.79.37-.4h.36l.36-.91.36.91.36-.38h.37l.36-.36.36.75.36-.57.37 1.41.36-1.03.36.19.36.21.36-.2.37-.38.36.38.36.62.36-.21.36-.21.37-.2.36-.38.36.19.36.4h.36l.37-.2.36.41.36-.41.36-.38.36-.18.37.18.36.19.36.4.36-.2.37-.19h.36l.36 1.04.36-1.04.36.2.37-.57.36.98.36-.6h.72l.37.6.36-.97.36.18.36-.36.36.55.37.82.36-.62h.36l.36-.19.37.4.36-.59.36-.36.36.75.36-.38h1.09l.36-.18.36-.68.37 1.05.36.6.36-.4.36.2.36-.2h.37l.36.2.36-.2.36-.74.36.95.37-.59.36.19.36-.72.36 1.12.37-.39h.36l.36-.55.36.36.36.19.37.2.36-.2.36-.18.36.38.36-.38h.37l.36-.36.36.55.36.2.36-.39.37.19.36-.37.36.19.36.19.37.6.36-.79.36-.18.36.18.36.19.37-.55.36.55.36.01.36.19.36-.56h.37l.36-.35.36.91.36-.74.36.18.37-.52.36 1.09.36-.19.36-.73.37 1.33.36-.21.36.21.36-.21.36-.19.37.2.36.64.36-.84.36-.2.36.01h.73l.36-.37.36 1.41.36-.64.37.42.36-.62h.36l.36-.2.36-.18.37.19.36.39.36-.39.36.19.37-.91.36.53.36.39h.36l.36-.57.37 1.19.36-.42h.36l.36-.39h.36l.37.19.36-.38.36.19.36-.19.36.19.37.4.36-.2.36-.38.36-.36.37.36.36-.18.36.56.36-.19.36.4.37-.59.36.59.36-.95.36.01.36.94.37.21.36-.41.36-.19.36.19.36.2.37-.94.36.55.36-.55.36.95h.36l.37-.4.36-.18.36 1 .36-.42.37-.58.36-.18.36.37.36.19.36-.56.37.37.36-.19.36.19.36-.37.36-.35.37.73.36-.55.36 1.15.36-.6.36.19.37-.19.36.4.36-.95.36.75.37-.38h1.08l.36-.18.37-.18.36-.17.36.91.36-.38.36.19.37-.37.36.18.36.19.36-.18.36-.19.37-.35.36.36.36-.18.36-.17.37.91.36.2.36-.39.36.2.36.4.37-.79.36.79.36-.6.36.4.36-.77.37.57.36-.38.36.38.36-.19.36-.19h.37l.36.39.36-.57h.36l.36.37.37.4h.36l.36-.77h.36l.37.38.36-.37.36.56.36-.38.36.58.37.01.36-.77h.36l.36-.18.36.55.37-.37.36-.17.36.74h.36l.36-.19.37-.19.36.19.36-.37.36.56.37-.74.36.55.36-.55.36.75.36-.75.37.01h.36l.36-.18.36-.16.36 1.49.37-.21.36-.2.36.41.36-.6.36-.19.37-.18.36.18.36.39.36-.38.36.18.37-.37.36-.35.36.73.36-.37h.37l.36.37h.72l.36-.37.37.57.36-.92.36.35.36-.18.36.37.37-.54.36 1.12.36-.58.36.38.36-.91.37.17h.36l.36.36.36.38.37-.56.36.18.36.19.36-.19.36-.53.37-.33.36 1.05.36-.18.36-.36h.36l.37.36.36-.36.36-.17.36-.17.36.52.37.18.36-.18.36-.35h.36l.36 1.32h.37l.36-.97.36.77.36-.58.37.38.36-.19.36.19.36-.38.36.58.37-.94.36.55.36-.19.36.39.36.2.37-.4.36.2.36-.38.36.18.36.2.37-.38h.36l.36-.36.36.36.37-.18.36-.18.36.55.36 1.04.36-1.04.37.2.36-.39.36.19.36.2.36-.2.37-.18.36.18.36-.54.36.36.36-.54.37.92.36-.74.36.36.36-.18.37.56.36-.19.36-.72.36.53h.36l.37-.18.36-.18.36.18h.36l.36.98.37-.79.36-.19.36.57.36-.38.36-.18.37-.35.36 1.32.36-.41h.36l.36-.56h.73l.36.57.36-.57.37.37.36.2.36-.2.36-.72.36.18h.37l.36.36.36-.7.36.89.36-.37.37.18.36.58.36-.58h.36l.36-.36.37.36h.36l.36-.18.36.19.37.18.36-.54h.36l.36-.18.36-.16.37 1.49.36-.79.36.19.36-.55.36.74.37-.74.36-.17.36.17.36.18.36-.18.37.18.36-.35.36.17.36-.82.36 1.37.37-.37.36.57h.72l.37-.38.36.58.36-.39.36-.55.36.36h.73l.36-.53.36.72h.36l.37-.19.36-.36.36-.34.36.89h.36l.37.01.36-.55.36.74.36-.56.37.18.36-.87.36 1.06h.36l.36-.19.37-.18h.72l.36.37.36-.89.37.7.36-.36.36.37.36-.19.36-.17.37.36.36.19.36-.38.36.01.36-.18.37-.17.36.53.36-.36h.36l.37-.34.36.34.36.55.36-.89.36 1.09.37-.57.36.57.36-.39.36.01.36-.36.37 1.15.36-.98h.36l.36-.35.36.36.37-.18.36-.17.36.35.36.37.37.19.36-.38.36-.36.36.18.36-.35.37.35.36-.18.36.18h.36l.36-.68.37.16.36.71.36-.19.36-.35.36.35.37.38.36-.19.36-.18.36-.35.37.53.36-.53.36.35.36-.68.36.68.37.18h.36l.36-.7h.36l.36.17h.37l.36-.49.36.84.36.19.36-.36.37.17.36-.51.36-.17.36 1.66.36-.41.37.2.36-.39.36.39.36-.2.37-.56.36.37.36-.37.36.18.36.79.37-.6h.36l.36.6.36.01.36-.79h.37l.36-.19.36.77.36-.77.36.57.37-.56.36.56.36-.56.36-.18.37-.17.36.35.36.97.36-.41.36-.19.37.2.36.2.36-.77.36.18.36.19.37-.19.36.19.36-.37.36.19.36-.36h.37l.36.17.36.38h.36l.36-.19.37-.18.36.56.36-.38h.36l.37-.86.36.86.36-.36h.36l.36.36.37.59.36-.59.36.39.36-.92.36.54.37.58.36-.4h.36l.36-.37.36.38.37-.19.36-.18.36.37.36-.37.37.18h.36l.36-.18.36-.18.36.55.37-.37.36.77.36-.95.36.18h.73l.36.37.36-.19.36.01.36.58.37-.94.36.17.36-.52.36.9.36-.55h.37l.36-.18.36.92.36-.38h.37l.36-.18h.36l.36.37.36-.55h.73l.36.55.36-.55.36-.34.37.34.36-.34h.36l.36.89.36.61.37-.41.36.62.36-1 .36.19.37-.38.36.38.36-.19.36.19h.36l.37-.19.36-.7.36 1.08.36-.56.36.18.37-.7.36 1.08.36-.19.36-.19.36.19.37-.55.36.18h.36l.36-.18h.37l.36.95.36-.4.36.01.36-.55h.37l.36.18.36-.36.36 1.12.36-.76.37.37.36-.19.36.19.36-.72.36-.17.37.52.36.37.36-.55.36.18h.73l.36-.35h.36l.36-.33.37 1.05.36-.37.36-.17.36-.35.36 1.29.37-.2.36-.74.36.17"/><use xlink:href="#c0737__g" color="violet" transform="matrix(3.75 0 0 3.75 182.98 155.07)"/><use xlink:href="#c0737__g" color="violet" transform="matrix(3.75 0 0 3.75 56.25 52.51)"/></g><text stroke-linecap="round" stroke-linejoin="round" color="#000" font-family="KaTeX_Main" font-size="8" transform="translate(241.1 10.11)"><tspan>LBSTBottomUp</tspan></text><g fill="none" stroke="currentColor" stroke-linecap="round" stroke-linejoin="round" color="#000"><path stroke="#3B75EA" d="M205.6 7.51h29.9M28 158.44l.36.01.36.01.37-.33.36.01.36.01.36.01.36.01h.37l.36.01.36.01.36.01.37.01h.36l.36.01.36.01h.36l.37.01.36.01.36.01h.36l.36.01.37.01h.36l.36.01h.36l.36.01.37.01h.36l.36.01h.36l.36.01.37.01h.36l.36.01h.36l.37.01h.36l.36.01h.36l.36.01h.37l.36.01h.36l.36.01h.36l.37.01h.36l.36.01h.36l.36.01h.37l.36.01h.36l.36.01.37-.32h.72l.36.01h.36l.37.01h.36l.36.01h.72l.37.01h.36l.36.01h.72l.37.01h.72l.36.01h.73l.36.01h.36l.36.01h.73l.36.01h.72l.37.01h.72l.36.01h.73l.36.01h.72l.36.01h1.09l.36.01h.73l.36.01h.72l.37.01h1.08l.36.01h1.09l.36.01h.73l.36.01h1.09l.36.01h1.08l.37.01h1.08l.36.01h1.09l.36.01h1.09l.36.01h1.09l.36.01h1.09l.36.01h1.45l.36.01h1.45l.36.01h1.08l.37.01h1.08l.37-.3h1.44l.37.01h1.44l.37.01H91l.37.01h1.44l.37.01h1.81l.36.01h1.45l.36.01h1.81l.36.01h1.81l.37.01h1.81l.36.01h1.81l.36.01h1.81l.36.01h1.81l.37.01h2.17l.36.01h2.17l.36.01h2.18l.36.01h2.17l.36.01h2.18l.36.01h2.53l.37.01h2.17l.36.01h2.53l.37.01h2.53l.36.01h2.9l.36.01h2.54l.36.01h2.9l.36.01h2.89l.37.01h2.89l.37.01h2.89l.36.01h3.26l.37.01h3.25l.37.01h1.08l.37-.29h3.25l.37.01h3.25l.37.01h3.62l.36.01h3.62l.36.01h3.62l.37.01h3.98l.36.01h3.98l.37.01h3.98l.36.01h4.35l.36.01h4.34l.37.01h4.34l.36.01h4.71l.36.01h4.71l.36.01h4.71l.36.01h5.07l.36.01h5.07l.36.01h5.44l.36.01h5.43l.36.01h5.43l.36.01h5.8l.36.01h5.79l.37.01h6.15l.36.01h6.16l.36.01h6.52l.36.01h6.52l.36.01h6.88l.36.01H305l.36.01h7.25l.36.01h.36l.36-.28h7.24l.37.01h7.6l.36.01h7.61l.36.01h8.33l.36.01h8.33l.36.01h8.33l.36.01h8.69"/><use xlink:href="#c0737__a" color="#3B75EA" transform="matrix(3.75 0 0 3.75 240.55 158.3)"/><use xlink:href="#c0737__a" color="#3B75EA" transform="matrix(3.75 0 0 3.75 220.55 7.51)"/></g><text stroke-linecap="round" stroke-linejoin="round" color="#000" font-family="KaTeX_Main" font-size="8" transform="translate(241.1 25.11)"><tspan>LBSTRelaxed</tspan></text><g fill="none" stroke="currentColor" stroke-linecap="round" stroke-linejoin="round" color="#000"><path stroke="#FFAB00" stroke-dasharray="4.0,2.0,1.0,2.0" d="M205.6 22.51h29.9M28 156.12l.36-1.86.36 1.41.37-1.39.36 1.64.36.25.36-.68.36-1.86.37.34.36 2.74.36-1.81.36.42.37-1.49.36.53.36.77.36-.39.36.61.37.44.36.24.36-.22.36.47.36-2.39.37 1.94.36-.43.36.22.36.7.36-2.23.37 1.55.36-1 .36-.7.36 1.09.36-.55.37 1.88.36-.9.36-.97.36.01.37-.52.36 1.29.36 1.62.36-2.19.36 1.7.37-.68.36.45.36-1.98.36 2.23.36-.68.37-1.36.36.18.36.98.36-.6.36-.37.37-.17.36.95.36.42.36-1.18.37 2.65.36-3.64.36.48.36 1.09.36-1.4.37-.15.36.65.36.35.36.98.36.22.37-1 .36.59.36-1.45.36 2.56.36-.68.37-1.36.36-.66h.36l.36 2.48.37-2.15.36 1.09.36-.38.36.19.36.82.37-1.87.36-.31.36.16.36.33.36.52.37-.84.36 1.61.36-1.11.36 1.12.36-.2.37-.38.36.59.36.65.36-1.41.36-.52.37.01.36.52.36.98.36-1.97.37.65.36 1.32.36-1.48.36.7.36-.7.37-.16.36 1.66.36-1.32.36.53.36-1.17.37 1.56.36 1.08.36-1.81.36.74.36-.91.37 1.76.36-2.4.36 1.76.36-1.11.37-.17.36.17.36.73.36-.37.36-.68.37 1.45.36.42.36-.41.36-.4.36 1.51.37-2.72.36 1.82.36-1.81.36 2.25.36-.84.37-1.24.36-.16.36.33.36-.17.36 1.06.37.4.36-.77.36.77.36-.76.37-.52.36.35.36.94.36-1.45.36 2.1.37-.22h.36l.36-1.87.36-.15.36 1.02.37.39.36.2.36-1.11.36-.49.36.49.37 1.12.36-1.11.36-.17.36 1.09.37-1.57.36 2.88.36-.24.36-1.45.36-1.33.37-.15.36 2.71.36-2.7.36.46.36.84.37.57.36.2.36-1.76.36 2.41.36-1.59.37.18.36-.17.36-1.12.36.78.36.34.37-.5.36 1.45.36-.39.36-1.06.37-.46.36 1.72.36-1.87.36.31.36-.15.37 1.33.36-1.02.36.16h.36l.36-.61.37 2.27.36-2.12.36 1.72.36-.2.36-1.67.37 1.49.36.79.36-2.27.36.78.37 1.5.36-.41.36-.19.36-.89.36 1.08.37-1.08.36 1.09.36.41.36-.41.36-1.08.37 1.08.36.21.36-.2.36.41.36-1.49.37 1.28.36-1.28.36 1.49.36-2.27.37.15.36.16.36 1 .36-.68.36-.47.37 1.92h.36l.36-1.61.36 1.61.36-.58.37.38.36-.38.36-1.48.36 1.49.36-1.48.37 2.7.36-.64.36.88.36-1.27.36-.55.37 1.37.36-.21.36-2.12.36.97.37-.66.36 1.21.36-1.67.36 2.28.36-1.82.37 1.41.36-1.25.36.01.36.33h.36l.37-.49.36 2.48.36-2.93.36.3.36 1.56.37-.74.36.55.36-1.05.36.51.37-.51.36-.61.36.78.36 1.93.36-1.76.37.54.36-.54.36 1.12.36-1.28.36.52.37 1.19.36-1.19.36-1.3.36.78.36 1.5h.37l.36-1.49.36.34.36-.82h.36l.37 1.97.36-1.81.36-.46.36.15.37 1.92.36-1.28.36-.48.36-.15.36.97.37.37.36-.71.36 1.5.36-1.15.36.94.37-.94.36 1.37.36.22.36-1.93.36.52.37 1.19h.36l.36-.42h.36l.37.21.36-1.65.36.33.36.18.36.94.37.42.36-1.53.36-.5.36.67h.36l.37-.34.36.52.36.57.36-.74.36 1.36.37-2.03.36-.15.36 1.56.36-1.08.36 1.49.37-1.49.36-.63.36 1.53.36-1.37.37 1 .36.37h.36l.36.6.36-.79.37.19.36-.89.36 1.93.36-.43.36-.6.37.39.36-2.06.36.3.36-.3.36 2.07.37-.58.36-1.03.36.16.36 1.45.37-.58.36-.36.36-.82.36-.15.36 2.12.37-1.65.36.68.36.98.36-2.27.36.45.37 1.61.36-.76.36-.35.36-.49.36.32.37-.48.36.16.36.49.36-.33.37 1.25.36.2.36.65.36-1.59.36-.5.37 2.09.36-2.99.36 2.15.36-1.72h.36l.37 1.92.36.21.36-.21.36-2.21.36 1.63.37-1.02.36.49.36-1.09.36 1.27.36 1.15.37-.41.36-1.71.36-.3.36 2.42.37-2.27.36-.14.36.76.36.86.36.39.37-.38.36-1.63.36 1.27.36.94.36-.39.37-1.37.36 1.56.36-2.15.36 2.78.36-1.01.37-1.76.36 2.35.36-.39.36-.89.37-.17.36.17.36.17.36.17.36.36.37.39.36-1.57.36.65.36.92.36.84.37-2.56.36 1.72.36-1.25.36.87.36-.18.37-1.45.36 2.42.36-1.15.36-.5.36 1.45.37-2.21.36 1.82.36-1.67.36.95.37-.17.36 1.08.36-2.01.36 1.45.36.77.37-.4h.36l.36 1.04.36-.84.36-.92h.37l.36.54.36-1.18.36 1 .36-1.45.37.3h.36l.36.97.36.75.37-1.09.36-.48.36.49.36 1.7.36-2.63h.37l.36 1.1.36.35.36.56.36-.91.37-.17.36-.92.36.76.36-.62.36 2.28.37-2.27.36.94.36-.33h.36l.37-.61.36 1.86h.36l.36-.19.36.4.37-.59.36-.86.36-.62.36.46.36.49.37-.64.36.15.36.5.36.91.36-2.15.37 2.35.36-.39.36-.19.36 1.01.36-2.49.37.3.36.83.36-1.27.36 2.01.37-.56.36-.69.36.51h.36l.36.18.37-1.59.36 1.59.36.37.36-1.21.36-.6.37.44.36 2.64.36-1.26.36 1.26.36-.45.37-1.7.36-.17.36 1.66h.36l.37-.2.36-1.29.36.34.36.75.36-2.01.37.92.36 1.71.36-.42.36-1.92.36 1.72.37-1.08.36-.17.36 2.1.36-1.04.36-.19.37-.7.36.7.36.59.36-2.07.36.3h.37l.36 1.57.36-.92.36-1.23.37.74.36-.45.36 1.48.36.79.36-.41.37-2.15.36 1.77h.36l.36-1.18.36 1.57.37-.57.36 1.19.36-.81.36-.73.36-.49.37-.74.36 2.56.36-.41.36-.19.37.19.36-.56.36-.68.36 2.09.36-1.41h.37l.36-.84.36 1.21.36-1.81.36 1.63.37-1.48.36.61.36-.61.36.45.36-.74.37 1.24.36-.65.36 1 .36-.68.36 1.65.37-.2.36-1.45.36 1.05.36-1.36.37.48.36.16.36.54.36 1.22.36.01.37-2.56.36 1.71.36-.91.36-.95.36.15.37 2.12.36-2.41.36.76.36-.62.36 1.3.37-1.3.36 2.28.36-2.27.36-.15.37 2.21.36-.39h.36l.36-1.37.36 1.37h.37l.36-1.96.36 2.36.36-1.12.36-.8.37-.29.36.76.36.33.36.54.36-1.63.37 1.82h.36l.36.39.36-2.35.37 1.41.36-1.27.36 1.63h.36l.36-.36.37-1.41.36.75.36 1.21.36-1.37.36 1.57.37.2.36-.39.36-1.67.36.14.36 1.16.37-1.45.36.76.36-.46.36.47.36-.91.37 1.96.36-.72.36-.65h.36l.37-.58.36.28.36 1.13h.36l.36 1.15.37-1.49.36-.17.36-.61.36 1.12.36-.97.37 1.15.36-.68.36-.91.36 3 .36-1.04.37-.19.36.39.36-1.09.36-.32.37-.16.36 1.77.36-.2.36-1.86.36.94.37.54.36-.18.36.37.36.19h.36l.37-1.56.36.48.36-.48.36 1.57.36.2.37-1.12.36-.65.36.82.36-1.26.36.76.37-.62.36.15.36 1.53.36.6.37-1.82.36 1.22.36-1.96.36.9.36-.31.37-.15.36.8.36.35.36.18.36-.86.37-.16h.36l.36-.31.36 1.92.36-.2.37-.57.36-1.15h.36l.36.64.37-.63.36.97.36-.34.36-.33.36-.15.37-.15.36.47.36.5.36-.5h.36l.37 2.32.36-2.94.36 1.67.36-.89.36-.16.37.33.36.92.36-1.86.36.94.36 1.12.37-2.06.36-.29.36.44.36.31.37.84.36.56.36-2.15.36 1.96.36-.55h.37l.36-.5.36-.76.36 1.26.36-.17.37-.8.36.47.36-.76.36.93.36-1.07.37.44.36 1.71.36-1.25.36.69.37-.69.36.87.36-.53.36-.8.36 1.72.37-.39.36-.7.36 1.09.36-1.41.36.32.37.71.36.58.36-.39.36-1.06.36 1.45.37-2.21.36 1.63.36-.53.36.53.37-1.18.36 1.37h.36l.36-1.82.36.15h.37l.36.62.36-.76.36 1.26.36-1.26.37 1.44h.36l.36-.17.36.17.36-1.58.37 1.96.36-1.06h.36l.36-1.04.36.88.37 1.61.36-1.76.36 1.37.36.81.37-2.18.36-.59.36 1.24.36-.17.36.17.37.92.36-.2.36-1.67.36 2.07.36-2.35.37 1.77.36-1.34.36.64.36.7.36-.87.37-.9.36.14.36 1.1.36 1.32.37-.79.36-2.04.36.41.36.15.36 1.12.37-1.55.36 1.21.36-.16.36.86.36-.7.37.7.36.8.36-1.66.36.16.36-1.34.37.57.36.14.36-.57.36 1.73.36-.69.37.87.36-.7.36-1.21.36.58h.37l.36-.3.36 2.01.36-1.86.36 1.3.37-1.59.36.15.36 1.81.36-.89.36-.92.37 1.81h.36l.36-.37.36-1.3.36.95.37-1.09.36.93.36 1.08.36-2.15.37.29.36.61.36-1.17.36.56.36 2.49.37-.82.36-2.1.36 2.3.36-1.25.36 1.05.37-1.05.36.16.36.34.36-.34.36-.78.37-.42.36 1.2h.36l.36-.63.36-.57.37 1.55.36-.18.36-1.09.36 1.45.37.56.36-1.71.36.31.36 1.02.36-1.18.37.48.36.89.36-1.67.36.78.36.52.37-.18.36-.97.36-.15.36 2.49.36-.42.37-.4.36-1.95.36.43.36-.57.37.43.36-.29.36.44.36 1.15.36.18.37-.18.36-.85.36 1.41.36-1.08.36-1.07.37 1.59.36-1 .36-.3h.36l.36 2.07.37-2.36.36.75.36-.6.36-.28.37 1.2.36.89.36-1.67h.36l.36 1.3.37-.68.36-.76.36.29.36.47.36-1.04.37.58.36 2.12.36-2.12.36 1.15.36-1.73.37 1.55.36-1.41.36 1.96.36-2.09.36 1.04h.37l.36 1.05.36-2.23.36.14.37 2.09.36-1.95.36 1.77.36-1.34h.36l.37.31.36 1.41.36-2.01"/><use xlink:href="#c0737__h" color="#FFAB00" transform="matrix(3.75 0 0 3.75 298.12 154.94)"/><use xlink:href="#c0737__h" color="#FFAB00" transform="matrix(3.75 0 0 3.75 220.55 22.51)"/></g><text stroke-linecap="round" stroke-linejoin="round" color="#000" font-family="KaTeX_Main" font-size="8" transform="translate(241.1 40.11)"><tspan>TreapTopDown</tspan></text><g fill="none" stroke="currentColor" stroke-linecap="round" stroke-linejoin="round" color="#000"><path stroke="#00C853" stroke-dasharray="4.5,2.0,0.5,2.0,0.5,2.0" d="M205.6 37.51h29.9M28 152.52l.36.01.36.01.37.01.36.01.36.01.36.01.36.01h.37l.36.01.36.01.36.01.37.01h.36l.36.01.36.01h.36l.37.01.36.01.36.01h.36l.36.01.37.01h.36l.36.01h.36l.36.01.37.01h.36l.36.01h.36l.36.01.37.01h.36l.36.01h.36l.37.01h.36l.36.01h.36l.36.01h.37l.36.01h.36l.36-.13.36.01h.37l.36.01h.36l.36-.13.36.01h.37l.36.01h.36l.36.01h.37l.36.01H49l.36.01h.37l.36.01h.72l.36.01h.37l.36.01h.72l.36.01h.37l.36.01h.72l.37.01h.72l.36.01h.73l.36.01h.72l.36.01h.73l.36.01h.72l.37.01h.72l.36.01h.73l.36.01h.72l.37.01h1.08l.36.01h.73l.36.01h1.09l.36.01h.72l.36.01h1.09l.36.01h1.09l.36.01h1.09l.36.01h1.09l.36.01h1.08l.37.01h1.08l.36.01h1.09l.36.01h1.45l.36.01h.73l.36-.13.36.01h1.45l.36.01h1.45l.36.01h.37l.36-.13.36.01h1.45l.36.01h1.45l.36.01h1.81l.36-.12h.36l.37.01h1.81l.36.01h1.45l.36.01h1.81l.36.01h1.81l.37.01h1.81l.36.01h1.81l.36.01h1.81l.36.01h1.81l.37.01h2.17l.36.01h2.17l.36.01h2.18l.36.01h2.17l.36.01h2.18l.36.01h2.53l.37.01h2.17l.36.01h2.53l.37.01h2.53l.36.01h2.54l.36.01h2.9l.36.01h2.9l.36.01h2.89l.37-.24h.36l.36.01h2.9l.36-.11h.36l.36-.12h.37l.36.01h2.9l.36.01h3.26l.36.01h1.81l.36-.11h2.54l.36.01h3.26l.36.01h2.9l.36-.11h1.08l.37.01h3.62l.36.01h3.62l.36.01h3.98l.37.01h2.89l.37-.11h.72l.36.01h1.45l.36-.11h1.09l.36.01h4.35l.36.01h4.34l.37-.1h2.17l.36.01h4.71l.36.01h4.71l.36.01h4.71l.36.01h4.71l.36.01h2.17l.36-.1h4.71l.36.01h5.43l.36.01h5.44l.36.01h5.43l.36.01h5.8l.36.01h5.79l.36.01h5.8l.36.01h6.15l.37.01h6.51l.37.01h6.51l.37.01h6.51l.37.01h7.24l.36.01h6.88l.36.01h7.24l.37.01h7.6l.36.01h7.97l.36.01h7.97l.36.01h3.98l.36-.1h5.8l.36.01h8.69l.36.01h8.69l.36.01h1.09"/><use xlink:href="#c0737__i" color="#00C853" transform="matrix(3.75 0 0 3.75 355.7 151.92)"/><use xlink:href="#c0737__i" color="#00C853" transform="matrix(3.75 0 0 3.75 220.55 37.51)"/></g><text stroke-linecap="round" stroke-linejoin="round" color="#000" font-family="KaTeX_Main" font-size="8" transform="translate(241.1 55.11)"><tspan>Splay</tspan></text><g fill="none" stroke="currentColor" stroke-linecap="round" stroke-linejoin="round" color="#000"><path stroke="#29C3F6" d="M205.6 52.51h29.9M28 93.87l.36-.12.36-.11.37-.11.36-.11.36-.11.36-.1.36-.11.37-.1.36-.1.36-.09.36-.1.37-.1.36-.09.36-.09.36-.09.36-.09.37-.09.36-.09.36-.08.36-.08.36-.09.37-.08.36-.08.36-.08.36-.08.36-.08.37-.07.36-.08.36-.07.36-.07.36-.08.37-.07.36-.07.36-.07.36-.07.37-.07.36-.07.36-.06.36-.07.36-.06.37-.07.36-.06.36-.07.36-.06.36-.06.37-.06.36-.06.36-.06.36-.06.36-.06.37-.06.36-.06.36-.05.36-.06.37-.06.36-.05.36-.06.36-.05.36-.06.37-.05.36-.05.36-.05.36-.06.36-.05.37-.05.36-.05.36-.05.36-.05.36-.05.37-.05.36-.05.36-.05.36-.04.37-.05.36-.05.36-.04.36-.05.36-.05.37-.04.36-.05.36-.04.36-.05.36-.04.37-.05.36-.04.36-.04.36-.05.36-.04.37-.04.36-.04.36-.04.36-.05.36-.04.37-.04.36-.04.36-.04.36-.04.37-.04.36-.04.36-.04.36-.04.36-.03.37-.04.36-.04.36-.04.36-.04.36-.03.37-.04.36-.04.36-.04.36-.03.36-.04.37-.03.36-.04.36-.04.36-.03.37-.04.36-.03.36-.04.36-.03.36-.04.37-.03.36-.03.36-.04.36-.03.36-.04.37-.03.36-.03.36-.03.36-.04.36-.03.37-.03.36-.03.36-.04.36-.03.36-.03.37-.03.36-.03.36-.03.36-.03.37-.04.36-.03.36-.03.36-.03.36-.03.37-.03.36-.03.36-.03.36-.03.36-.03.37-.03.36-.02.36-.03.36-.03.36-.03.37-.03.36-.03.36-.03.36-.02.37-.03.36-.03.36-.03.36-.03.36-.02.37-.03.36-.03.36-.03.36-.02.36-.03.37-.03.36-.02.36-.03.36-.03.36-.02.37-.03.36-.02.36-.03.36-.03.36-.02.37-.03.36-.02.36-.03.36-.02.37-.03.36-.02.36-.03.36-.02.36-.03.37-.02.36-.03.36-.02.36-.03.36-.02.37-.03.36-.02.36-.02.36-.03.36-.02.37-.02.36-.03.36-.02.36-.02.37-.03.36-.02.36-.02.36-.03.36-.02.37-.02.36-.03.36-.02.36-.02.36-.02.37-.03.36-.02.36-.02.36-.02.36-.03.37-.02.36-.02.36-.02.36-.02.37-.02.36-.03.36-.02.36-.02.36-.02.37-.02.36-.02.36-.02.36-.02.36-.03.37-.02.36-.02.36-.02.36-.02.36-.02.37-.02.36-.02.36-.02.36-.02.36-.02.37-.02.36-.02.36-.02.36-.02.37-.02.36-.02.36-.02.36-.02.36-.02.37-.02.36-.02.36-.02.36-.02.36-.02.37-.02.36-.02.36-.02.36-.02.36-.01.37-.02.36-.02.36-.02.36-.02.37-.02.36-.02.36-.02.36-.01.36-.02.37-.02.36-.02.36-.02.36-.02.36-.01.37-.02.36-.02.36-.02.36-.02.36-.01.37-.02.36-.02.36-.02.36-.02.36-.01.37-.02.36-.02.36-.02.36-.01.37-.02.36-.02.36-.02.36-.01.36-.02.37-.02.36-.01.36-.02.36-.02.36-.02.37-.01.36-.02.36-.02.36-.01.36-.02.37-.02.36-.01.36-.02.36-.02.37-.01.36-.02.36-.01.36-.02.36-.02.37-.01.36-.02.36-.02.36-.01.36-.02.37-.01.36-.02.36-.02.36-.01.36-.02.37-.01.36-.02.36-.02.36-.01.36-.02.37-.01.36-.02.36-.01.36-.02.37-.01.36-.02.36-.02.36-.01.36-.02.37-.01.36-.02.36-.01.36-.02.36-.01.37-.02.36-.01.36-.02.36-.01.36-.02.37-.01.36-.02.36-.01.36-.02.37-.01.36-.02.36-.01.36-.01.36-.02.37-.01.36-.02.36-.01.36-.02.36-.01.37-.02.36-.01.36-.01.36-.02.36-.01.37-.02.36-.01.36-.02.36-.01.37-.01.36-.02.36-.01.36-.02.36-.01.37-.01.36-.02.36-.01.36-.02.36-.01.37-.01.36-.02.36-.01.36-.01.36-.02.37-.01.36-.01.36-.02.36-.01.36-.01.37-.02.36-.01.36-.01.36-.02.37-.01.36-.01.36-.02.36-.01.36-.01.37-.02.36-.01.36-.01.36-.02.36-.01.37-.01.36-.02.36-.01.36-.01.36-.01.37-.02.36-.01.36-.01.36-.02.37-.01.36-.01.36-.01.36-.02.36-.01.37-.01.36-.01.36-.02.36-.01.36-.01.37-.01.36-.02.36-.01.36-.01.36-.01.37-.02.36-.01.36-.01.36-.01.36-.02.37-.01.36-.01.36-.01.36-.01.37-.02.36-.01.36-.01.36-.01.36-.02.37-.01.36-.01.36-.01.36-.01.36-.01.37-.02.36-.01.36-.01.36-.01.36-.01.37-.02.36-.01.36-.01.36-.01.37-.01.36-.01.36-.02.36-.01.36-.01.37-.01.36-.01.36-.01.36-.02.36-.01.37-.01.36-.01.36-.01.36-.01.36-.01.37-.02.36-.01.36-.01.36-.01.37-.01.36-.01.36-.01.36-.01.36-.02.37-.01.36-.01.36-.01.36-.01.36-.01.37-.01.36-.01.36-.01.36-.01.36-.02.37-.01.36-.01.36-.01.36-.01.36-.01.37-.01.36-.01.36-.01.36-.01.37-.01.36-.01.36-.02.36-.01.36-.01.37-.01.36-.01.36-.01.36-.01.36-.01.37-.01.36-.01.36-.01.36-.01.36-.01.37-.01.36-.01.36-.01.36-.01.37-.02.36-.01.36-.01.36-.01.36-.01.37-.01.36-.01.36-.01.36-.01.36-.01.37-.01.36-.01.36-.01.36-.01.36-.01.37-.01.36-.01.36-.01.36-.01.36-.01.37-.01.36-.01.36-.01.36-.01.37-.01.36-.01.36-.01.36-.01.36-.01.37-.01.36-.01.36-.01.36-.01.36-.01.37-.01.36-.01.36-.01.36-.01.36-.01.37-.01.36-.01.36-.01.36-.01.37-.01.36-.01.36-.01.36-.01h.36l.37-.01.36-.01.36-.01.36-.01.36-.01.37-.01.36-.01.36-.01.36-.01.36-.01.37-.01.36-.01.36-.01.36-.01.36-.01.37-.01.36-.01.36-.01h.36l.37-.01.36-.01.36-.01.36-.01.36-.01.37-.01.36-.01.36-.01.36-.01.36-.01.37-.01.36-.01h.36l.36-.01.36-.01.37-.01.36-.01.36-.01.36-.01.37-.01.36-.01.36-.01h.36l.36-.01.37-.01.36-.01.36-.01.36-.01.36-.01.37-.01.36-.01.36-.01h.36l.36-.01.37-.01.36-.01.36-.01.36-.01.37-.01.36-.01h.36l.36-.01.36-.01.37-.01.36-.01.36-.01.36-.01.36-.01h.37l.36-.01.36-.01.36-.01.36-.01.37-.01.36-.01h.36l.36-.01.36-.01.37-.01.36-.01.36-.01.36-.01h.37l.36-.01.36-.01.36-.01.36-.01.37-.01h.36l.36-.01.36-.01.36-.01.37-.01.36-.01.36-.01h.36l.36-.01.37-.01.36-.01.36-.01h.36l.37-.01.36-.01.36-.01.36-.01.36-.01h.37l.36-.01.36-.01.36-.01.36-.01.37-.01h.36l.36-.01.36-.01.36-.01.37-.01h.36l.36-.01.36-.01.36-.01.37-.01h.36l.36-.01.36-.01.37-.01.36-.01h.36l.36-.01.36-.01.37-.01.36-.01h.36l.36-.01.36-.01.37-.01.36-.01h.36l.36-.01.36-.01.37-.01h.36l.36-.01.36-.01.37-.01.36-.01h.36l.36-.01.36-.01.37-.01h.36l.36-.01.36-.01.36-.01.37-.01h.36l.36-.01.36-.01.36-.01h.37l.36-.01.36-.01.36-.01h.36l.37-.01.36-.01.36-.01h.36l.37-.01.36-.01.36-.01h.36l.36-.01.37-.01.36-.01h.36l.36-.01.36-.01.37-.01h.36l.36-.01.36-.01.36-.01h.37l.36-.01.36-.01.36-.01h.37l.36-.01.36-.01.36-.01h.36l.37-.01.36-.01.36-.01h.36l.36-.01.37-.01h.36l.36-.01.36-.01.36-.01h.37l.36-.01.36-.01.36-.01h.37l.36-.01.36-.01h.36l.36-.01.37-.01.36-.01h.36l.36-.01.36-.01h.37l.36-.01.36-.01.36-.01h.36l.37-.01.36-.01h.36l.36-.01.36-.01h.37l.36-.01.36-.01.36-.01h.37l.36-.01.36-.01h.36l.36-.01.37-.01h.36l.36-.01.36-.01.36-.01h.37l.36-.01.36-.01h.36l.36-.01.37-.01h.36l.36-.01.36-.01h.37l.36-.01.36-.01h.36l.36-.01.37-.01.36-.01h.36l.36-.01.36-.01h.37l.36-.01.36-.01h.36l.36-.01.37-.01h.36l.36-.01.36-.01h.36l.37-.01.36-.01h.36l.36-.01.37-.01h.36l.36-.01.36-.01h.36l.37-.01.36-.01h.36l.36-.01.36-.01h.37l.36-.01.36-.01h.36l.36-.01.37-.01h.36l.36-.01.36-.01h.37l.36-.01h.36l.36-.01.36-.01h.37l.36-.01.36-.01h.36l.36-.01.37-.01h.36l.36-.01.36-.01h.36l.37-.01.36-.01h.36l.36-.01h.36l.37-.01.36-.01h.36l.36-.01.37-.01h.36l.36-.01.36-.01h.36l.37-.01h.36l.36-.01.36-.01h.36l.37-.01.36-.01h.36l.36-.01h.36l.37-.01.36-.01h.36l.36-.01.37-.01h.36l.36-.01h.36l.36-.01.37-.01h.36l.36-.01.36-.01"/><use xlink:href="#c0737__d" color="#29C3F6" transform="matrix(3.75 0 0 3.75 66.74 87.18)"/><use xlink:href="#c0737__d" color="#29C3F6" transform="matrix(3.75 0 0 3.75 220.55 52.51)"/></g><path fill="none" d="M28 75.01v87.49m343.99-87.49H28" color="#000"/></svg>