<svg xmlns="http://www.w3.org/2000/svg" xmlns:xlink="http://www.w3.org/1999/xlink" viewBox="0 0 400 200"><path fill="none" d="M0 0h400v200H0z"/><defs><use xlink:href="#e4823__a" id="e4823__f" stroke="currentColor" transform="rotate(180)"/><use xlink:href="#e4823__b" id="e4823__c" stroke="currentColor" transform="rotate(45)"/><use xlink:href="#e4823__c" id="e4823__e" fill="currentColor" stroke="none"/><path id="e4823__b" stroke="currentColor" stroke-width=".267" d="M-1-1h2v2h-2z"/><path id="e4823__a" stroke="currentColor" stroke-width=".267" d="m0-1.33-1.33 2h2.66z"/><circle id="e4823__d" cx="0" cy="0" r="1" stroke="currentColor" stroke-width=".267"/></defs><path fill="none" stroke="#CCC" stroke-linecap="round" stroke-linejoin="round" stroke-width=".1" d="M46.1 162.5V45.01" class="e4823__gridline" color="#000"/><g fill="none" stroke-linecap="round" stroke-linejoin="round" stroke-width="0" color="#000"><path d="M46.1 162.5V155m0-109.99v7.5"/><text fill="#000" font-family="KaTeX_Main" font-size="8" text-anchor="middle" transform="translate(46.1 172.6)"><tspan> 1</tspan></text></g><path fill="none" stroke="#CCC" stroke-linecap="round" stroke-linejoin="round" stroke-width=".1" d="M82.31 162.5V45.01" class="e4823__gridline" color="#000"/><g fill="none" stroke-linecap="round" stroke-linejoin="round" stroke-width="0" color="#000"><path d="M82.31 162.5V155m0-109.99v7.5"/><text fill="#000" font-family="KaTeX_Main" font-size="8" text-anchor="middle" transform="translate(82.31 172.6)"><tspan> 2</tspan></text></g><path fill="none" stroke="#CCC" stroke-linecap="round" stroke-linejoin="round" stroke-width=".1" d="M118.52 162.5V45.01" class="e4823__gridline" color="#000"/><g fill="none" stroke-linecap="round" stroke-linejoin="round" stroke-width="0" color="#000"><path d="M118.52 162.5V155m0-109.99v7.5"/><text fill="#000" font-family="KaTeX_Main" font-size="8" text-anchor="middle" transform="translate(118.52 172.6)"><tspan> 3</tspan></text></g><path fill="none" stroke="#CCC" stroke-linecap="round" stroke-linejoin="round" stroke-width=".1" d="M154.73 162.5V45.01" class="e4823__gridline" color="#000"/><g fill="none" stroke-linecap="round" stroke-linejoin="round" stroke-width="0" color="#000"><path d="M154.73 162.5V155m0-109.99v7.5"/><text fill="#000" font-family="KaTeX_Main" font-size="8" text-anchor="middle" transform="translate(154.73 172.6)"><tspan> 4</tspan></text></g><path fill="none" stroke="#CCC" stroke-linecap="round" stroke-linejoin="round" stroke-width=".1" d="M190.94 162.5V45.01" class="e4823__gridline" color="#000"/><g fill="none" stroke-linecap="round" stroke-linejoin="round" stroke-width="0" color="#000"><path d="M190.94 162.5V155m0-109.99v7.5"/><text fill="#000" font-family="KaTeX_Main" font-size="8" text-anchor="middle" transform="translate(190.94 172.6)"><tspan> 5</tspan></text></g><path fill="none" stroke="#CCC" stroke-linecap="round" stroke-linejoin="round" stroke-width=".1" d="M227.15 162.5V45.01" class="e4823__gridline" color="#000"/><g fill="none" stroke-linecap="round" stroke-linejoin="round" stroke-width="0" color="#000"><path d="M227.15 162.5V155m0-109.99v7.5"/><text fill="#000" font-family="KaTeX_Main" font-size="8" text-anchor="middle" transform="translate(227.15 172.6)"><tspan> 6</tspan></text></g><path fill="none" stroke="#CCC" stroke-linecap="round" stroke-linejoin="round" stroke-width=".1" d="M263.36 162.5V45.01" class="e4823__gridline" color="#000"/><g fill="none" stroke-linecap="round" stroke-linejoin="round" stroke-width="0" color="#000"><path d="M263.36 162.5V155m0-109.99v7.5"/><text fill="#000" font-family="KaTeX_Main" font-size="8" text-anchor="middle" transform="translate(263.36 172.6)"><tspan> 7</tspan></text></g><path fill="none" stroke="#CCC" stroke-linecap="round" stroke-linejoin="round" stroke-width=".1" d="M299.57 162.5V45.01" class="e4823__gridline" color="#000"/><g fill="none" stroke-linecap="round" stroke-linejoin="round" stroke-width="0" color="#000"><path d="M299.57 162.5V155m0-109.99v7.5"/><text fill="#000" font-family="KaTeX_Main" font-size="8" text-anchor="middle" transform="translate(299.57 172.6)"><tspan> 8</tspan></text></g><path fill="none" stroke="#CCC" stroke-linecap="round" stroke-linejoin="round" stroke-width=".1" d="M335.78 162.5V45.01" class="e4823__gridline" color="#000"/><g fill="none" stroke-linecap="round" stroke-linejoin="round" stroke-width="0" color="#000"><path d="M335.78 162.5V155m0-109.99v7.5"/><text fill="#000" font-family="KaTeX_Main" font-size="8" text-anchor="middle" transform="translate(335.78 172.6)"><tspan> 9</tspan></text></g><path fill="none" stroke="#CCC" stroke-linecap="round" stroke-linejoin="round" stroke-width=".1" d="M371.99 162.5V45.01" class="e4823__gridline" color="#000"/><g fill="none" stroke-linecap="round" stroke-linejoin="round" stroke-width="0" color="#000"><path d="M371.99 162.5V155m0-109.99v7.5"/><text fill="#000" font-family="KaTeX_Main" font-size="8" text-anchor="middle" transform="translate(371.99 172.6)"><tspan> 10</tspan></text></g><g fill="none" stroke-linecap="round" stroke-linejoin="round" stroke-width="0" color="#000"><path d="M371.99 162.5h-7.5"/><text fill="#000" font-family="KaTeX_Main" font-size="8" transform="translate(378.99 165.1)"><tspan>0.920</tspan></text></g><g fill="none" stroke-linecap="round" stroke-linejoin="round" stroke-width="0" color="#000"><path d="M371.99 149.45h-7.5"/><text fill="#000" font-family="KaTeX_Main" font-size="8" transform="translate(378.99 152.05)"><tspan>0.940</tspan></text></g><g fill="none" stroke-linecap="round" stroke-linejoin="round" stroke-width="0" color="#000"><path d="M371.99 136.39h-7.5"/><text fill="#000" font-family="KaTeX_Main" font-size="8" transform="translate(378.99 138.99)"><tspan>0.960</tspan></text></g><g fill="none" stroke-linecap="round" stroke-linejoin="round" stroke-width="0" color="#000"><path d="M371.99 123.34h-7.5"/><text fill="#000" font-family="KaTeX_Main" font-size="8" transform="translate(378.99 125.94)"><tspan>0.980</tspan></text></g><g fill="none" stroke-linecap="round" stroke-linejoin="round" stroke-width="0" color="#000"><path d="M371.99 110.28h-7.5"/><text fill="#000" font-family="KaTeX_Main" font-size="8" transform="translate(378.99 112.88)"><tspan>1.000</tspan></text></g><g fill="none" stroke-linecap="round" stroke-linejoin="round" stroke-width="0" color="#000"><path d="M371.99 97.23h-7.5"/><text fill="#000" font-family="KaTeX_Main" font-size="8" transform="translate(378.99 99.83)"><tspan>1.020</tspan></text></g><g fill="none" stroke-linecap="round" stroke-linejoin="round" stroke-width="0" color="#000"><path d="M371.99 84.17h-7.5"/><text fill="#000" font-family="KaTeX_Main" font-size="8" transform="translate(378.99 86.77)"><tspan>1.040</tspan></text></g><g fill="none" stroke-linecap="round" stroke-linejoin="round" stroke-width="0" color="#000"><path d="M371.99 71.12h-7.5"/><text fill="#000" font-family="KaTeX_Main" font-size="8" transform="translate(378.99 73.72)"><tspan>1.060</tspan></text></g><g fill="none" stroke-linecap="round" stroke-linejoin="round" stroke-width="0" color="#000"><path d="M371.99 58.06h-7.5"/><text fill="#000" font-family="KaTeX_Main" font-size="8" transform="translate(378.99 60.66)"><tspan>1.080</tspan></text></g><g fill="none" stroke-linecap="round" stroke-linejoin="round" stroke-width="0" color="#000"><path d="M371.99 45.01h-7.5"/><text fill="#000" font-family="KaTeX_Main" font-size="8" transform="translate(378.99 47.61)"><tspan>1.100</tspan></text></g><path fill="none" d="M28 45.01V162.5M371.99 45.01H28" color="#000"/><text stroke-linecap="round" stroke-linejoin="round" stroke-width="0" color="#000" font-family="KaTeX_Main" font-size="10" text-anchor="middle" transform="rotate(-90 57.63 46.13)"><tspan font-weight="bold">Average Path Length </tspan><tspan> / log</tspan><tspan dy="3" font-size="8">2</tspan><tspan dy="-3">(Size)</tspan></text><text stroke-linecap="round" stroke-linejoin="round" stroke-width="0" color="#000" font-family="KaTeX_Main" font-size="10" text-anchor="middle" transform="translate(199.99 195.75)"><tspan>Operations / 10</tspan><tspan dy="-5" font-size="8">6</tspan></text><text stroke-linecap="round" stroke-linejoin="round" color="#000" font-family="KaTeX_Main" font-size="8" transform="translate(132.8 10.11)"><tspan>LBSTBottomUp</tspan></text><g fill="none" stroke="currentColor" stroke-linecap="round" stroke-linejoin="round" color="#000"><path stroke="#3B75EA" d="M97.3 7.51h29.9M28 159.79l.36-.1.36-.1.37-.1.36-.09.36-.08.36-.09.36-.09.37-.09.36-.08.36-.09.36-.07.37-.06.36-.05.36-.04.36-.02.36.01.37.02.36.03.36.06.36.07.36.08.37.09.36.09.36.1.36.09.36.09.37.08.36.08.36.06.36.05.36.04.37.03.36.01h.72l.37-.02.36-.02.36-.03.36-.04.36-.04.37-.05.36-.05.36-.05.36-.05.36-.05.37-.05.36-.05.36-.06.36-.04.36-.05.37-.04.36-.05.36-.03.36-.04.37-.03.36-.03.36-.03.36-.02.36-.02.37-.02.36-.02.36-.02.36-.01.36-.01.37-.01.36-.01.36-.01h.36l.36-.01.37-.01h.36l.36-.01h.73l.36-.01h.36l.36-.01h.73l.36-.01h.72l.36-.01h1.09l.36-.01h.73l.36-.01h1.45l.36-.01h1.45l.36-.01h2.17l.36-.01h2.54l.36-.01h2.54l.36-.01h2.17l.36-.01h2.17l.37-.01h2.17l.36-.01h22.45l.36-.01h4.71l.36-.01h2.54l.36-.01h1.81l.36-.01h1.81l.36-.01h1.82l.36-.01h2.53l.36-.01h3.26l.37-.01h4.34l.36-.01h4.35l.36-.01h4.71l.36-.01h10.86l.36.01h16.66l.36-.01h3.62l.37-.01h2.89l.36-.01h2.18l.36-.01h1.81l.36-.01h1.81l.36-.01h1.81l.37-.01h2.17l.36-.01h3.26l.36-.01h3.99l.36-.01h3.62l.36-.01h2.9l.36-.01h2.53l.37-.01h2.53l.36-.01h2.54l.36-.01h2.17l.36-.01h2.18l.36-.01h2.17l.36-.01h2.54l.36-.01h3.62l.36-.01h5.43l.37-.01h6.51l.37-.01h23.89l.37-.01h4.7l.37-.01h34.4l.36.01h3.98l.36-.01h5.07l.36-.01h3.26l.36-.01h3.26l.37-.01h3.62l.36-.01h5.43l.36-.01h14.85l.36.01h2.17l.36.01h1.82l.36.01h1.81l.36.01h1.81l.36.01h6.88l.36-.01h1.45l.37-.01h2.53l.36-.01h2.9l.36-.01.36.01h3.62l.37.01h.72"/><use xlink:href="#e4823__d" color="#3B75EA" transform="matrix(3.75 0 0 3.75 353.89 158.16)"/><use xlink:href="#e4823__d" color="#3B75EA" transform="matrix(3.75 0 0 3.75 112.25 7.51)"/></g><text stroke-linecap="round" stroke-linejoin="round" color="#000" font-family="KaTeX_Main" font-size="8" transform="translate(132.8 25.11)"><tspan>LBSTRelaxed</tspan></text><g fill="none" stroke="currentColor" stroke-linecap="round" stroke-linejoin="round" color="#000"><path stroke="#FFAB00" stroke-dasharray="4.0,2.0,1.0,2.0" d="M97.3 22.51h29.9M28 81.47l.36-1.63.36-1.56.37-1.49.36-1.37.36-1.24.36-1.08.36-.87.37-.63.36-.33h.36l.36.39.37.8.36 1.26.36 1.73.36 2.21.36 2.69.37 3.13.36 3.56.36 3.91.36 4.21.36 4.44.37 4.58.36 4.64.36 4.61.36 4.52.36 4.35.37 4.12.36 3.85.36 3.53.36 3.2.36 2.84.37 2.5.36 2.16.36 1.83.36 1.52.37 1.24.36 1 .36.77.36.59.36.41.37.29.36.17.36.08h.36l.36-.04.37-.09.36-.11.36-.14.36-.14.36-.15.37-.15.36-.15.36-.14.36-.14.37-.12.36-.12.36-.1.36-.1.36-.09.37-.08.36-.07.36-.07.36-.06.36-.06.37-.05.36-.04.36-.04.36-.04.36-.04.37-.04.36-.03.36-.03.36-.03.37-.03.36-.03.36-.03.36-.03.36-.02.37-.03.36-.03.36-.03.36-.02.36-.03.37-.03.36-.02.36-.03.36-.03.36-.03.37-.02.36-.03.36-.03.36-.02.36-.03.37-.03.36-.02.36-.03.36-.03.37-.02.36-.03.36-.02.36-.03.36-.03.37-.02.36-.03.36-.02.36-.03.36-.02.37-.03.36-.02.36-.03.36-.02.36-.03.37-.02.36-.03.36-.02.36-.03.37-.02.36-.02.36-.03.36-.02.36-.03.37-.02.36-.02.36-.03.36-.02.36-.03.37-.02.36-.02.36-.03.36-.02.36-.03.37-.02.36-.02.36-.03.36-.02.36-.03.37-.02.36-.03.36-.02.36-.03.37-.02.36-.03.36-.02.36-.03.36-.02.37-.03.36-.02.36-.03.36-.02.36-.03.37-.02.36-.03.36-.02.36-.03.36-.02.37-.03.36-.02.36-.03.36-.02.37-.02.36-.03.36-.02.36-.02.36-.03.37-.02.36-.02.36-.03.36-.02.36-.02.37-.03.36-.02.36-.02.36-.02.36-.02.37-.03.36-.02.36-.02.36-.02.36-.02.37-.03.36-.02.36-.02.36-.02.37-.02.36-.02.36-.02.36-.03.36-.02.37-.02.36-.02.36-.02.36-.02.36-.02.37-.02.36-.03.36-.02.36-.02.36-.02.37-.02.36-.02.36-.02.36-.03.37-.02.36-.02.36-.02.36-.02.36-.02.37-.02.36-.03.36-.02.36-.02.36-.02.37-.02.36-.02.36-.02.36-.02.36-.02.37-.02.36-.02.36-.02.36-.02.37-.02.36-.02.36-.02.36-.02.36-.02.37-.02.36-.02.36-.02.36-.02.36-.02.37-.02.36-.02.36-.02.36-.02.36-.02.37-.02.36-.02.36-.02.36-.02.36-.02.37-.02.36-.02.36-.02.36-.02.37-.02.36-.02.36-.02.36-.02.36-.02.37-.02.36-.02.36-.02.36-.02.36-.02.37-.02.36-.02.36-.01.36-.02.36-.02.37-.02.36-.02.36-.02.36-.02.37-.02.36-.02.36-.02.36-.02.36-.02.37-.02.36-.02.36-.02.36-.02.36-.02.37-.02.36-.01.36-.02.36-.02.36-.02.37-.02.36-.02.36-.02.36-.01.36-.02.37-.02.36-.02.36-.02.36-.02.37-.01.36-.02.36-.02.36-.01.36-.02.37-.02.36-.02.36-.01.36-.02.36-.02.37-.01.36-.02.36-.02.36-.01.36-.02.37-.01.36-.02.36-.02.36-.01.37-.02.36-.01.36-.02.36-.02.36-.01.37-.02.36-.01.36-.02.36-.01.36-.02.37-.02.36-.01.36-.02.36-.01.36-.02.37-.01.36-.02.36-.02.36-.01.36-.02.37-.01.36-.02.36-.01.36-.02.37-.02.36-.01.36-.02.36-.01.36-.02.37-.01.36-.02.36-.01.36-.02.36-.02.37-.01.36-.02.36-.01.36-.02.36-.01.37-.02.36-.01.36-.02.36-.02.37-.01.36-.02.36-.01.36-.02.36-.01.37-.02.36-.01.36-.02.36-.02.36-.01.37-.02.36-.01.36-.02.36-.01.36-.02.37-.01.36-.02.36-.02.36-.01.37-.02.36-.01.36-.02.36-.01.36-.02.37-.01.36-.02.36-.01.36-.02.36-.01.37-.02.36-.01.36-.01.36-.02.36-.01.37-.02.36-.01.36-.01.36-.02.36-.01.37-.01.36-.02.36-.01.36-.01.37-.02.36-.01.36-.01.36-.02.36-.01.37-.01.36-.01.36-.02.36-.01.36-.01.37-.01.36-.02.36-.01.36-.01.36-.01.37-.02.36-.01.36-.01.36-.02.37-.01.36-.01.36-.01.36-.02.36-.01.37-.01.36-.02.36-.01.36-.01.36-.02.37-.01.36-.02.36-.01.36-.01.36-.02.37-.01.36-.02.36-.01.36-.01.36-.02.37-.01.36-.02.36-.01.36-.02.37-.01.36-.02.36-.01.36-.02.36-.01.37-.01.36-.02.36-.01.36-.02.36-.01.37-.02.36-.01.36-.02.36-.01.36-.02.37-.01.36-.02.36-.01.36-.01.37-.02.36-.01.36-.02.36-.01.36-.02.37-.01.36-.01.36-.02.36-.01.36-.02.37-.01.36-.02.36-.01.36-.01.36-.02.37-.01.36-.02.36-.01.36-.01.37-.02.36-.01.36-.01.36-.02.36-.01.37-.02.36-.01.36-.01.36-.02.36-.01.37-.01.36-.02.36-.01.36-.01.36-.02.37-.01.36-.01.36-.02.36-.01.36-.01.37-.02.36-.01.36-.01.36-.02.37-.01.36-.01.36-.02.36-.01.36-.01.37-.02.36-.01.36-.01.36-.01.36-.02.37-.01.36-.01.36-.02.36-.01.36-.01.37-.02.36-.01.36-.01.36-.02.37-.01.36-.01.36-.02.36-.01.36-.01.37-.02.36-.01.36-.02.36-.01.36-.01.37-.02.36-.01.36-.01.36-.02.36-.01.37-.02.36-.01.36-.01.36-.02.36-.01.37-.02.36-.01.36-.01.36-.02.37-.01.36-.02.36-.01.36-.01.36-.02.37-.01.36-.02.36-.01.36-.01.36-.02.37-.01.36-.02.36-.01.36-.01.36-.02.37-.01.36-.02.36-.01.36-.01.37-.02.36-.01.36-.02.36-.01.36-.01.37-.02.36-.01.36-.01.36-.02.36-.01.37-.01.36-.02.36-.01.36-.01.36-.02.37-.01.36-.01.36-.02.36-.01.36-.01.37-.01.36-.02.36-.01.36-.01.37-.01.36-.01.36-.02.36-.01.36-.01.37-.01.36-.01.36-.01.36-.01.36-.02.37-.01.36-.01.36-.01.36-.01.36-.01.37-.01.36-.01.36-.01.36-.01.37-.01.36-.01.36-.01.36-.01.36-.01.37-.01.36-.01.36-.01.36-.01.36-.01.37-.01.36-.01.36-.01.36-.01.36-.01.37-.01.36-.01.36-.01.36-.01.37-.01.36-.01.36-.01.36-.01.36-.01.37-.01.36-.01.36-.01.36-.01.36-.01.37-.01.36-.01.36-.02.36-.01.36-.01.37-.01.36-.01.36-.01.36-.01.36-.01.37-.01.36-.01.36-.01.36-.01.37-.01.36-.01.36-.01.36-.01.36-.01.37-.01.36-.01.36-.01.36-.01.36-.01.37-.02.36-.01.36-.01.36-.01.36-.01.37-.01.36-.01.36-.01.36-.01.37-.01.36-.01.36-.01.36-.01.36-.02.37-.01.36-.01.36-.01.36-.01.36-.01.37-.01.36-.01.36-.01.36-.01.36-.01.37-.01.36-.01.36-.01.36-.01.36-.01.37-.01.36-.01.36-.01.36-.01.37-.01.36-.01.36-.01.36-.01.36-.01.37-.01.36-.01.36-.01.36-.01h.36l.37-.01.36-.01.36-.01.36-.01.36-.01.37-.01h.36l.36-.01.36-.01.37-.01.36-.01.36-.01h.36l.36-.01.37-.01.36-.01.36-.01.36-.01h.36l.37-.01.36-.01.36-.01.36-.01.36-.01.37-.01.36-.01h.36l.36-.01.36-.01.37-.01.36-.01.36-.01.36-.01.37-.01h.36l.36-.01.36-.01.36-.01.37-.01.36-.01h.36l.36-.01.36-.01.37-.01.36-.01h.36l.36-.01.36-.01.37-.01h.36l.36-.01.36-.01.37-.01.36-.01h.36l.36-.01.36-.01.37-.01.36-.01h.36l.36-.01.36-.01.37-.01.36-.01.36-.01.36-.01h.36l.37-.01.36-.01.36-.01.36-.01.37-.01.36-.01.36-.01.36-.01.36-.01.37-.01h.36l.36-.01.36-.01.36-.01.37-.01.36-.01.36-.01.36-.01.36-.01h.37l.36-.01.36-.01.36-.01.36-.01.37-.01h.36l.36-.01.36-.01.37-.01.36-.01.36-.01h.36l.36-.01.37-.01.36-.01.36-.01.36-.01.36-.01.37-.01.36-.01.36-.01h.36l.36-.01.37-.01.36-.01.36-.01.36-.01.37-.01.36-.01.36-.01.36-.01.36-.01.37-.01.36-.01.36-.01.36-.01.36-.01.37-.01.36-.01.36-.01.36-.01.36-.01.37-.01h.36l.36-.01.36-.01.36-.01.37-.01.36-.01.36-.01.36-.01.37-.01.36-.01h.36l.36-.01.36-.01.37-.01.36-.01.36-.01.36-.01.36-.01.37-.01.36-.01.36-.01.36-.01h.36l.37-.01.36-.01.36-.01.36-.01.37-.01.36-.01h.36l.36-.01.36-.01.37-.01h.36l.36-.01.36-.01h.36l.37-.01h.36l.36-.01.36-.01h.36l.37-.01h.36l.36-.01h.36l.36-.01h.37l.36-.01h.36l.36-.01h.37l.36-.01h.36l.36-.01.36-.01h.37l.36-.01.36-.01.36-.01h.36l.37-.01.36-.01.36-.01h.36l.36-.01.37-.01.36-.01.36-.01h.36l.37-.01.36-.01.36-.01.36-.01h.36l.37-.01.36-.01.36-.01h.36l.36-.01.37-.01.36-.01h.36l.36-.01h.36l.37-.01.36-.01h.36l.36-.01.37-.01h.36l.36-.01.36-.01.36-.01.37-.01.36-.01.36-.01.36-.01.36-.01.37-.01.36-.01.36-.01.36-.01.36-.01.37-.01.36-.01.36-.01.36-.01.36-.01.37-.01.36-.01.36-.01.36-.01h.37l.36-.01.36-.01.36-.01.36-.01.37-.01.36-.01.36-.01"/><use xlink:href="#e4823__e" color="#FFAB00" transform="matrix(3.75 0 0 3.75 67.83 148.95)"/><use xlink:href="#e4823__e" color="#FFAB00" transform="matrix(3.75 0 0 3.75 112.25 22.51)"/></g><text stroke-linecap="round" stroke-linejoin="round" color="#000" font-family="KaTeX_Main" font-size="8" transform="translate(241.1 10.11)"><tspan>WBSTBottomUp</tspan></text><g fill="none" stroke="currentColor" stroke-linecap="round" stroke-linejoin="round" color="#000"><path stroke="#000" d="M205.6 7.51h29.9M28 144.13l.36-.06.36-.05.37-.05.36-.04.36-.04.36-.03.36-.02.37-.01h.36l.36.03.36.04.37.07.36.1.36.14.36.16.36.2.37.23.36.26.36.28.36.3.36.31.37.32.36.33.36.31.36.3.36.29.37.26.36.24.36.21.36.17.36.15.37.11.36.08.36.06.36.02h.37l.36-.03.36-.04.36-.06.36-.08.37-.08.36-.1.36-.1.36-.1.36-.1.37-.1.36-.1.36-.1.36-.09.36-.08.37-.08.36-.06.36-.07.36-.05.37-.05.36-.03.36-.04.36-.02.36-.02.37-.02.36-.01.36-.01h1.45l.36.01.36.01h.36l.37.01.36.01.36.01.36.01.37.01.36.01.36.01.36.01.36.01.37.01.36.01.36.01.36.01h.36l.37.01.36.01.36.01h.36l.36.01.37.01h.36l.36.01.36.01h.36l.37.01h.36l.36.01.36.01h.37l.36.01.36.01h.36l.36.01h.37l.36.01.36.01h.36l.36.01h.37l.36.01h.36l.36.01.36.01h.37l.36.01h.36l.36.01h.37l.36.01.36.01h.36l.36.01h.37l.36.01h.36l.36.01h.36l.37.01h.36l.36.01h.36l.36.01h.37l.36.01h.72l.36.01h.37l.36.01h.72l.37.01h.36l.36.01h.72l.37.01h.72l.36.01h.73l.36.01h.72l.36.01h1.09l.36.01h.73l.36.01h1.09l.36.01h1.08l.37.01h1.08l.36.01h.73l.36.01h1.09l.36.01h1.45l.36.01h1.09l.36.01h1.81l.36.01h2.17l.37.01h2.89l.36.01h3.26l.37.01h2.89l.36.01h2.54l.36.01h2.54l.36.01h3.26l.36.01h3.62l.36.01h2.9l.36.01h2.53l.37.01h2.53l.36.01h2.9l.36.01h3.26l.36.01h3.26l.36.01h2.9l.36.01h2.9l.36.01h2.9l.36.01h2.17l.37.01h2.17l.36.01h2.17l.37.01h2.17l.36.01h2.53l.37.01h6.88l.36.01h7.6l.36.01h3.99l.36.01h7.24l.36-.01h4.35l.36-.01h23.54l.36-.01h9.78l.36.01h3.98l.36.01h3.99l.36.01h5.43l.36.01h8.33l.36.01h9.42l.36.01h7.96l.37.01h2.53l.36.01h1.45l.36.01h1.45l.36.01h1.45l.36.01h1.45l.37.01h2.53l.36.01h4.71l.36.01h3.62l.36.01h3.26l.37.01h6.51l.37.01h5.79l.36.01h2.17l.37.01h2.17l.36.01h2.53l.37.01h3.98l.36.01h4.71l.36.01h5.07l.36.01h23.54l.36-.01h2.54l.36-.01h1.45l.36-.01h1.81l.36-.01h2.17l.37.01h1.08l.36.01h.73l.36.01"/><use xlink:href="#e4823__a" transform="matrix(3.75 0 0 3.75 125.4 147.89)"/><use xlink:href="#e4823__a" transform="matrix(3.75 0 0 3.75 220.55 7.51)"/></g><text stroke-linecap="round" stroke-linejoin="round" color="#000" font-family="KaTeX_Main" font-size="8" transform="translate(241.1 25.11)"><tspan>WBSTRelaxed</tspan></text><g fill="none" stroke="currentColor" stroke-linecap="round" stroke-linejoin="round" color="#000"><path stroke="violet" stroke-dasharray="4.5,2.0,0.5,2.0,0.5,2.0" d="M205.6 22.51h29.9M28 145.34l.36-.35.36-.47.37-.57.36-.64.36-.7.36-.74.36-.76.37-.78.36-.8.36-.8.36-.81.37-.81.36-.81.36-.81.36-.81.36-.81.37-.81.36-.8.36-.81.36-.8.36-.79.37-.8.36-.79.36-.78.36-.79.36-.78.37-.77.36-.77.36-.77.36-.75.36-.76.37-.74.36-.74.36-.72.36-.72.37-.7.36-.69.36-.68.36-.65.36-.64.37-.61.36-.59.36-.56.36-.54.36-.5.37-.48.36-.44.36-.41.36-.38.36-.35.37-.31.36-.28.36-.26.36-.22.37-.19.36-.17.36-.14.36-.12.36-.09.37-.08.36-.07.36-.04.36-.04.36-.02.37-.01.36-.01h.36l.36.01.36.01.37.02.36.02.36.02.36.02.37.03.36.03.36.02.36.03.36.03.37.02.36.03.36.03.36.02.36.03.37.02.36.03.36.02.36.03.36.02.37.02.36.02.36.03.36.02.36.02.37.02.36.02.36.02.36.02.37.02.36.02.36.02.36.02.36.02.37.02.36.02.36.02.36.01.36.02.37.02.36.02.36.01.36.02.36.02.37.01.36.02.36.01.36.02.37.01.36.02.36.01.36.01.36.02.37.01.36.01.36.01.36.02.36.01.37.01.36.01.36.01.36.01.36.01.37.01.36.01.36.01.36.01.36.01.37.01.36.01.36.01.36.01h.37l.36.01.36.01.36.01h.36l.37.01.36.01.36.01h.36l.36.01.37.01h.36l.36.01.36.01h.36l.37.01.36.01h.36l.36.01.37.01h.36l.36.01h.36l.36.01.37.01h.36l.36.01.36.01h.36l.37.01.36.01h.36l.36.01.36.01h.37l.36.01.36.01h.36l.36.01.37.01h.36l.36.01.36.01h.37l.36.01.36.01h.36l.36.01h.37l.36.01h.36l.36.01.36.01h.37l.36.01h.36l.36.01h.36l.37.01h.72l.36.01h.37l.36.01h.36l.36.01h.73l.36.01h.72l.36.01h.73l.36.01h.72l.37.01h.72l.36.01h1.45l.36.01h2.54l.36.01h2.17l.36-.01h2.9l.36-.01h1.45l.36-.01h1.09l.36-.01h.73l.36-.01h1.09l.36-.01h.72l.36-.01h.73l.36-.01h.72l.37-.01h1.08l.36-.01h1.09l.36-.01h1.81l.37-.01h2.17l.36-.01h2.9l.36-.01h1.81l.36-.01h1.45l.36-.01h1.45l.36-.01h1.09l.36-.01h1.45l.36-.01h1.45l.36-.01h2.54l.36-.01h11.59l.36-.01h6.15l.37-.01h2.53l.36-.01h1.45l.36-.01h1.09l.36-.01h.73l.36-.01h.36l.36-.01h.73l.36-.01h.36l.36-.01h.36l.37-.01h.36l.36-.01h.36l.36-.01.37-.01h.36l.36-.01h.36l.36-.01h.37l.36-.01.36-.01h.36l.37-.01h.36l.36-.01h.36l.36-.01h.37l.36-.01.36-.01h.36l.36-.01h.37l.36-.01h.36l.36-.01h.36l.37-.01h.36l.36-.01h.73l.36-.01h.36l.36-.01h.36l.37-.01h.36l.36-.01h.36l.36-.01h.73l.36-.01h.36l.36-.01h.37l.36-.01h.36l.36-.01h.73l.36-.01h.36l.36-.01h.37l.36-.01h.36l.36-.01h.73l.36-.01h.36l.36-.01h.36l.37-.01h.72l.36-.01h.36l.37-.01h.72l.36-.01h.37l.36-.01h.72l.36-.01h.37l.36-.01h.72l.36-.01h.37l.36-.01h.72l.36-.01h.37l.36-.01h.36l.36-.01h.37l.36-.01h.36l.36-.01h.36l.37-.01h.36l.36-.01.36-.01h.36l.37-.01h.36l.36-.01.36-.01h.36l.37-.01.36-.01h.36l.36-.01.36-.01h.37l.36-.01.36-.01h.36l.37-.01.36-.01h.36l.36-.01.36-.01h.37l.36-.01.36-.01h.36l.36-.01h.37l.36-.01.36-.01h.36l.36-.01h.37l.36-.01h.36l.36-.01h.37l.36-.01h.36l.36-.01h.36l.37-.01h.36l.36-.01h.72l.37-.01h.36l.36-.01h.72l.37-.01h1.08l.36-.01h.73l.36-.01h1.09l.36-.01h1.09l.36-.01h1.45l.36-.01h1.08l.37-.01h1.08l.37-.01h1.08l.36-.01h.73l.36-.01h.72l.37-.01h.72l.36-.01h.73l.36-.01h.72l.37-.01h.72l.36-.01h.73l.36-.01h1.08l.37-.01h.72l.36-.01h1.09l.36-.01h1.09l.36-.01h1.09l.36-.01h1.45l.36-.01h1.45l.36-.01h1.45l.36-.01h1.09l.36-.01h1.08l.37-.01h.72l.36-.01h.73l.36-.01h.36l.36-.01h.73l.36-.01h.36l.36-.01h.36l.37-.01h.36l.36-.01h.36l.37-.01h.36l.36-.01h.36l.36-.01h.73l.36-.01h.36l.36-.01h.73l.36-.01h.72l.37-.01h.72l.36-.01h1.45l.36-.01h1.81l.37-.01h2.17l.36-.01h1.81l.36-.01h1.45l.36-.01h1.45l.36-.01h1.09l.36-.01h1.09l.36-.01h1.09l.36-.01h.72l.37-.01h.72l.36-.01h.73l.36-.01h.36l.36-.01h.73l.36-.01h.36l.36-.01h.37l.36-.01h.36l.36-.01h.36l.37-.01h.36l.36-.01h.72l.37-.01h.36l.36-.01h.36l.36-.01h.73l.36-.01h.72l.37-.01h.36l.36-.01h.73l.36-.01h.72l.36-.01h.73l.36-.01h.36l.36-.01h.73l.36-.01h.36l.36-.01h.37l.36-.01h.36l.36-.01h.37l.36-.01.36-.01h.36l.36-.01h.37l.36-.01h.36l.36-.01.36-.01h.37l.36-.01h.36l.36-.01h.36l.37-.01.36-.01h.36l.36-.01h.73l.36-.01h.36l.36-.01h.37l.36-.01h.72l.36-.01h.37l.36-.01h.72l.36-.01h.37l.36-.01h.72l.36-.01h.37l.36-.01h.72l.37-.01h.72l.36-.01h.73l.36-.01h1.08l.37-.01h1.81l.36-.01h2.17l.36-.01h1.09l.36-.01h1.09l.36-.01h1.45l.36-.01h3.26l.36-.01h2.17l.37-.01h1.08l.36-.01h1.09l.36-.01h.73l.36-.01h.36l.36-.01h.37l.36-.01h.36l.36-.01h.36l.37-.01.36-.01h.36l.36-.01.36-.01.37-.01.36-.01.36-.01.36-.01.36-.01.37-.01.36-.01.36-.01.36-.01h.37l.36-.01.36-.01.36-.01.36-.01.37-.01.36-.01h.36"/><use xlink:href="#e4823__f" color="violet" transform="matrix(3.75 0 0 3.75 182.98 110.34)"/><use xlink:href="#e4823__f" color="violet" transform="matrix(3.75 0 0 3.75 220.55 22.51)"/></g><path fill="none" d="M28 45.01V162.5M371.99 45.01H28" color="#000"/></svg>