<svg xmlns="http://www.w3.org/2000/svg" xmlns:xlink="http://www.w3.org/1999/xlink" viewBox="0 0 400 200"><path fill="none" d="M0 0h400v200H0z"/><defs><use xlink:href="#06cd5__a" id="06cd5__e" fill="currentColor" stroke="none"/><use xlink:href="#06cd5__b" id="06cd5__c" stroke="currentColor" transform="rotate(45)"/><use xlink:href="#06cd5__c" id="06cd5__f" fill="currentColor" stroke="none"/><path id="06cd5__b" stroke="currentColor" stroke-width=".267" d="M-1-1h2v2h-2z"/><path id="06cd5__d" stroke="currentColor" stroke-width=".267" d="m0-1.33-1.33 2h2.66z"/><circle id="06cd5__a" cx="0" cy="0" r="1" stroke="currentColor" stroke-width=".267"/></defs><path fill="none" stroke="#CCC" stroke-linecap="round" stroke-linejoin="round" stroke-width=".1" d="M46.1 162.5V45.01" class="06cd5__gridline" color="#000"/><g fill="none" stroke-linecap="round" stroke-linejoin="round" stroke-width="0" color="#000"><path d="M46.1 162.5V155m0-109.99v7.5"/><text fill="#000" font-family="KaTeX_Main" font-size="8" text-anchor="middle" transform="translate(46.1 172.6)"><tspan> 1</tspan></text></g><path fill="none" stroke="#CCC" stroke-linecap="round" stroke-linejoin="round" stroke-width=".1" d="M82.31 162.5V45.01" class="06cd5__gridline" color="#000"/><g fill="none" stroke-linecap="round" stroke-linejoin="round" stroke-width="0" color="#000"><path d="M82.31 162.5V155m0-109.99v7.5"/><text fill="#000" font-family="KaTeX_Main" font-size="8" text-anchor="middle" transform="translate(82.31 172.6)"><tspan> 2</tspan></text></g><path fill="none" stroke="#CCC" stroke-linecap="round" stroke-linejoin="round" stroke-width=".1" d="M118.52 162.5V45.01" class="06cd5__gridline" color="#000"/><g fill="none" stroke-linecap="round" stroke-linejoin="round" stroke-width="0" color="#000"><path d="M118.52 162.5V155m0-109.99v7.5"/><text fill="#000" font-family="KaTeX_Main" font-size="8" text-anchor="middle" transform="translate(118.52 172.6)"><tspan> 3</tspan></text></g><path fill="none" stroke="#CCC" stroke-linecap="round" stroke-linejoin="round" stroke-width=".1" d="M154.73 162.5V45.01" class="06cd5__gridline" color="#000"/><g fill="none" stroke-linecap="round" stroke-linejoin="round" stroke-width="0" color="#000"><path d="M154.73 162.5V155m0-109.99v7.5"/><text fill="#000" font-family="KaTeX_Main" font-size="8" text-anchor="middle" transform="translate(154.73 172.6)"><tspan> 4</tspan></text></g><path fill="none" stroke="#CCC" stroke-linecap="round" stroke-linejoin="round" stroke-width=".1" d="M190.94 162.5V45.01" class="06cd5__gridline" color="#000"/><g fill="none" stroke-linecap="round" stroke-linejoin="round" stroke-width="0" color="#000"><path d="M190.94 162.5V155m0-109.99v7.5"/><text fill="#000" font-family="KaTeX_Main" font-size="8" text-anchor="middle" transform="translate(190.94 172.6)"><tspan> 5</tspan></text></g><path fill="none" stroke="#CCC" stroke-linecap="round" stroke-linejoin="round" stroke-width=".1" d="M227.15 162.5V45.01" class="06cd5__gridline" color="#000"/><g fill="none" stroke-linecap="round" stroke-linejoin="round" stroke-width="0" color="#000"><path d="M227.15 162.5V155m0-109.99v7.5"/><text fill="#000" font-family="KaTeX_Main" font-size="8" text-anchor="middle" transform="translate(227.15 172.6)"><tspan> 6</tspan></text></g><path fill="none" stroke="#CCC" stroke-linecap="round" stroke-linejoin="round" stroke-width=".1" d="M263.36 162.5V45.01" class="06cd5__gridline" color="#000"/><g fill="none" stroke-linecap="round" stroke-linejoin="round" stroke-width="0" color="#000"><path d="M263.36 162.5V155m0-109.99v7.5"/><text fill="#000" font-family="KaTeX_Main" font-size="8" text-anchor="middle" transform="translate(263.36 172.6)"><tspan> 7</tspan></text></g><path fill="none" stroke="#CCC" stroke-linecap="round" stroke-linejoin="round" stroke-width=".1" d="M299.57 162.5V45.01" class="06cd5__gridline" color="#000"/><g fill="none" stroke-linecap="round" stroke-linejoin="round" stroke-width="0" color="#000"><path d="M299.57 162.5V155m0-109.99v7.5"/><text fill="#000" font-family="KaTeX_Main" font-size="8" text-anchor="middle" transform="translate(299.57 172.6)"><tspan> 8</tspan></text></g><path fill="none" stroke="#CCC" stroke-linecap="round" stroke-linejoin="round" stroke-width=".1" d="M335.78 162.5V45.01" class="06cd5__gridline" color="#000"/><g fill="none" stroke-linecap="round" stroke-linejoin="round" stroke-width="0" color="#000"><path d="M335.78 162.5V155m0-109.99v7.5"/><text fill="#000" font-family="KaTeX_Main" font-size="8" text-anchor="middle" transform="translate(335.78 172.6)"><tspan> 9</tspan></text></g><path fill="none" stroke="#CCC" stroke-linecap="round" stroke-linejoin="round" stroke-width=".1" d="M371.99 162.5V45.01" class="06cd5__gridline" color="#000"/><g fill="none" stroke-linecap="round" stroke-linejoin="round" stroke-width="0" color="#000"><path d="M371.99 162.5V155m0-109.99v7.5"/><text fill="#000" font-family="KaTeX_Main" font-size="8" text-anchor="middle" transform="translate(371.99 172.6)"><tspan> 10</tspan></text></g><g fill="none" stroke-linecap="round" stroke-linejoin="round" stroke-width="0" color="#000"><path d="M371.99 162.5h-7.5"/><text fill="#000" font-family="KaTeX_Main" font-size="8" transform="translate(378.99 165.1)"><tspan>0.00</tspan></text></g><g fill="none" stroke-linecap="round" stroke-linejoin="round" stroke-width="0" color="#000"><path d="M371.99 147.81h-7.5"/><text fill="#000" font-family="KaTeX_Main" font-size="8" transform="translate(378.99 150.41)"><tspan>0.05</tspan></text></g><g fill="none" stroke-linecap="round" stroke-linejoin="round" stroke-width="0" color="#000"><path d="M371.99 133.13h-7.5"/><text fill="#000" font-family="KaTeX_Main" font-size="8" transform="translate(378.99 135.73)"><tspan>0.10</tspan></text></g><g fill="none" stroke-linecap="round" stroke-linejoin="round" stroke-width="0" color="#000"><path d="M371.99 118.44h-7.5"/><text fill="#000" font-family="KaTeX_Main" font-size="8" transform="translate(378.99 121.04)"><tspan>0.15</tspan></text></g><g fill="none" stroke-linecap="round" stroke-linejoin="round" stroke-width="0" color="#000"><path d="M371.99 103.75h-7.5"/><text fill="#000" font-family="KaTeX_Main" font-size="8" transform="translate(378.99 106.35)"><tspan>0.20</tspan></text></g><g fill="none" stroke-linecap="round" stroke-linejoin="round" stroke-width="0" color="#000"><path d="M371.99 89.07h-7.5"/><text fill="#000" font-family="KaTeX_Main" font-size="8" transform="translate(378.99 91.67)"><tspan>0.25</tspan></text></g><g fill="none" stroke-linecap="round" stroke-linejoin="round" stroke-width="0" color="#000"><path d="M371.99 74.38h-7.5"/><text fill="#000" font-family="KaTeX_Main" font-size="8" transform="translate(378.99 76.98)"><tspan>0.30</tspan></text></g><g fill="none" stroke-linecap="round" stroke-linejoin="round" stroke-width="0" color="#000"><path d="M371.99 59.7h-7.5"/><text fill="#000" font-family="KaTeX_Main" font-size="8" transform="translate(378.99 62.3)"><tspan>0.35</tspan></text></g><g fill="none" stroke-linecap="round" stroke-linejoin="round" stroke-width="0" color="#000"><path d="M371.99 45.01h-7.5"/><text fill="#000" font-family="KaTeX_Main" font-size="8" transform="translate(378.99 47.61)"><tspan>0.40</tspan></text></g><path fill="none" d="M28 45.01V162.5M371.99 45.01H28" color="#000"/><text stroke-linecap="round" stroke-linejoin="round" stroke-width="0" color="#000" font-family="KaTeX_Main" font-size="10" text-anchor="middle" transform="rotate(-90 57.63 46.13)"><tspan font-weight="bold">Rotations</tspan><tspan> / Operations</tspan></text><text stroke-linecap="round" stroke-linejoin="round" stroke-width="0" color="#000" font-family="KaTeX_Main" font-size="10" text-anchor="middle" transform="translate(199.99 195.75)"><tspan>Operations / 10</tspan><tspan dy="-5" font-size="8">6</tspan></text><text stroke-linecap="round" stroke-linejoin="round" color="#000" font-family="KaTeX_Main" font-size="8" transform="translate(76.8 10.11)"><tspan>AVLRelaxedBottomUp</tspan></text><g fill="none" stroke="currentColor" stroke-linecap="round" stroke-linejoin="round" color="#000"><path stroke="#D336C8" d="M41.3 7.51h29.9M28 60.43l.36-1.73.36 4.05.37-2.06.36 1.24.36-3.29.36 1.5.36-1.09.37.59.36 3.9.36-5.84.36 3.55.37-1.23.36-.15.36.12.36-1.73.36.03.37-.83.36 5.88.36-4.32.36.12.36 2.17.37-2.82.36 1.41.36-1.5.36.83.36-.71.37-.85.36 1.03.36.53.36 1.08.36-1.49.37 1.4.36.21.36.21.36-.21.37.26.36 2.03.36-4.08.36 5.23.36-5.58.37 3.81.36 1.24.36-1.97.36.59.36 2.41.37-3.12.36-.47.36-.56.36-2.73.36 4.32.37 1.85.36-2.14.36-4.06.36 1.77.37.14.36 3.7.36-4.25.36 3.14.36-4.35.37 2.97.36-1.56.36-1.23.36 5.61.36-3.76.37.11.36-1.58.36.2.36.12.36 2.67.37-3.58.36 2.73.36.27.36 2.41.37-2.32.36.58.36 2.91.36-4.93.36 1.02.37 2.03.36-4.05.36 4.55.36-4.11.36 1.44.37.23.36-.47.36.8.36.49.36 1.12.37-2.67.36 1.11.36-1.29.36 1.73.36-1.9.37 1.7.36-2.29.36-.97.36.73.37 4.35.36-2.09.36-.14.36-1.56.36-.5.37-.67.36 2.55.36 1.97.36 2.53.36-3.91.37-2.59.36-.26.36.06.36.65.36-1.09.37.26.36 3.62.36.73.36-3 .37-.2.36-1.06.36 1.65.36 2.32.36-5.2.37.64.36 1.44.36 1.65.36-3.03.36 4.44.37-3.7.36.11.36 1.33.36-.83.36.94.37-.85.36 1.7.36.53.36-4.7.36 4.38.37 1.29.36-5.05.36 3.41.36-1.06.37 1.59.36-.47.36.35.36 2.53.36-4.94.37-1.06.36 5.67.36-3.11.36-.3.36-1.11.37 1.11.36-1.99.36 2.38.36-.39.36-.26.37.35.36-1.02.36 1.4.36.33.37-3.47.36 1.56.36-.65.36 2.76.36-.85.37 3.82.36-2.82.36-.65.36-1.55.36-.68.37.74.36 2.4.36-2.14.36-.12.36-.2h.37l.36 3.23.36-.21.36.59.36-3.55.37-1.91.36 1.47.36.94.36-1.44.37 3.34.36.5.36-.82.36-.2.36.23.37.06.36-2.38.36.79.36-.29.36 2.11.37-.02.36-2.68.36 4.97.36-4.82.36 3.38.37-.71.36-2.35.36 2.21.36-1.36.37-1.08.36 2.14.36.74.36.47.36.91.37-5.41.36 3.61.36.03.36-.11.36-2.62.37.15.36 4.35.36-1 .36-2.53.36 5.7.37-7.14.36 1.44.36 1 .36-.62.37 1.71.36.14.36-2.02.36.47.36 2.41.37-4.85.36 3.99.36.83.36-4.35.36 2.61.37.5.36.5.36-3.14.36 3.08.36-.44.37-3.43.36 1.93.36-1.43.36.85.36 2.91.37-2.21.36-.85.36 1.56.36-1.91.37 2.58.36-1.99.36-1 .36 4.55.36-.85.37-1.27.36-.91.36-1.79.36-2.29.36 7.17.37-2.35.36 2.85.36-2.88.36-1.56.36 4.38.37-1.97.36-.26h.36l.36-.47.37-.91.36-1.68.36.06.36 3.55.36-4.11.37 3.94.36-2.76.36.17.36 2.29.36-3.81.37 3.96.36 1.24.36-2.12.36-.88.36-1.62.37 1 .36 5.35.36-6.23.36 1 .36-1.12.37 1.09.36.12.36 2.35.36-4.17.37 3.84.36-1.9.36.79.36-2.44.36-.06.37 2.12.36-3.23.36 6.58.36-.94.36-2.91.37-.41.36 1.91.36-1.06.36-.88.36-.06.37 1.14.36.12.36.74.36-1.24.37.18.36-2.35.36 1.88.36 3.32.36-2.35.37-1.21.36-.73.36.38.36.41.36 1.97.37-4.79.36 5.55.36-2.55.36-.06.36 1.12.37-.86.36-.08.36-.62.36 2.61.36-.47.37-.09.36-2.37.36-3.18.36 5.23.37-1.03.36.44.36.56.36.33.36-3.06.37 1.59.36.53.36-.12.36-1.32.36.06.37 3.58.36-2.91.36.06.36 3.23.36-2.23.37-.65.36-1.79.36.82.36 2.09.37 3.23.36-3.79.36-2.41.36 4.35.36-3.79.37-.38.36.97.36-1.44.36 2.82.36-.56.37.47.36 1.56.36-2.12.36-3.96.36 4.72.37-1.82.36 1.88.36-2.05.36 1.55.37 3.62.36-3.67.36 1.02.36-2.99.36 1.44.37-.65.36-1.82.36 1.82.36 2.09.36-.89.37-.49.36-3.59.36 5.02.36-1.26.36-.85.37-.47.36 1.56.36-1.38.36 2.55.36-2.02.37.26.36.76.36-.47.36 1.03.37-.65.36-3.4.36 1.88.36 2.02.36-1.55.37-1.21.36.65.36-.53h.36l.36 2.5.37 1.64.36-.23.36 1.03.36-.27.36-3.76.37 2.94.36-2.7.36 1.91.36-1.91.37 3.76.36-2.68.36-.2.36-.47.36-.59.37-1.06.36.88.36.83.36 3.52.36-6.73.37 7.82.36-2.35.36 1.2.36-2.73.36 1.47.37-1.73.36 1.38.36 1.26.36-2.12.36-2.23.37 1.88.36.56.36.29.36-2.08.37 3.64.36-4.64.36 3.23.36 2.2.36-1.99.37-2.41.36-1.47.36 3.52.36-1.2.36.7.37.62.36-2.99.36 3.49.36-1.97.36 1.15.37-.35.36-.33.36 1.79.36-.55.37-.91.36 1.29.36-4.23.36 2.85.36-4.23.37 2.88.36-1.03.36 1.29.36 1.68.36-.5.37-.62.36-.73.36 1.02h.36l.36.68.37-1.73.36.38.36 1.85.36-1.76.37.99.36 2.53.36-2.91.36-1.29.36 1.35.37.5.36-2.06.36 1.59.36.29.36-1.41.37.91.36 1.94.36-.32.36-1.79.36 1.94.37-1.32.36.05.36.12.36-4.61.36 3.67.37 1.68.36-1.65.36.38h.36l.37 1.12.36-.29.36-1.59.36.03.36 3.82.37-4.06.36.77.36 1.82.36.29.36-.61.37-4.03.36 4.11.36-1.05.36-1.68.36 2.12.37.64.36-2.11.36 1.58.36-1.73.37-1.03.36 1.5.36 4.11.36-3.55.36 2.73.37-1.32.36-.12.36-3.64.36 2.58.36-.35.37.68.36-.74.36-1.58.36 6.34.36-3.55.37-1.62.36 1.41.36-1.67.36-.18.36-.7.37.23.36 2.7.36 1.3.36-4.41.37-1.56.36 2.91.36.38.36-2.82.36 5.73.37-2.79.36 2.06.36-5.35.36 2.15.36-2.5.37 4.99.36.71.36 1.26.36-7.23.36 5.09.37.82.36-2.94.36 1.62.36.17.37.33.36-4.2.36 1.26.36 3.9.36-1.14.37.56.36-2.62.36.24.36 5.02.36-4.2.37 1.44.36-2.11.36.82.36 2.7.36-1.2.37.17.36-4.61.36 4.35.36 1.82.36-4.26.37 1.64.36.06.36.94.36-3.17.37 2 .36.85.36-3.23.36 3.14.36-3.14.37.41.36 3.08.36-2.37.36 1.32.36-.47.37-1.41.36 2.14.36 1.88.36-.53.36.91.37-3.2.36-.59.36 1.27.36-.09.37-.18.36-.26.36-2.38.36 5.17.36-3.94.37-.5.36-.55.36 2.99.36-1.5.36-.79.37 3.5.36-2.35.36-1.27.36 2.44.36-.56.37-1.55.36 2.87h.36l.36-1.85.37-1.35.36.91.36 1.71.36-1.3.36-3.26.37-.05.36 5.69.36-2.67.36-.88.36 2.23.37-2.17.36 3.38.36-1.38.36.49.36.36.37.64.36-7.25.36 1.61.36 4.85.36-4.02.37 3.61.36 2.55.36-1.82.36 1.38.37-4.37.36 1.17.36-1.94.36 2.29.36.97.37-1.52.36 2.99.36-3.96.36-2.79.36 3.9.37-1.93.36.73.36.32.36.71.36 1.58.37-.41.36-2.29.36.41.36 1.06.37-1.12.36-2.2.36 1.21.36.41.36 2.99.37-2.41.36 3.88.36-3.11.36-.33.36-.32.37 2.2.36-.7.36.18.36.85.36-3.76.37-1.56.36-1.7.36 4.76.36 2.76.36-2 .37-.65.36-2.26.36 3.53.36-1.21.37 2.56.36-.47.36-.77.36-.06.36 2.33.37-4.41.36-.41.36 1.2.36 1.88.36.77.37-2.71.36-.61.36 1.94.36-2.38.36 5.49.37-1.65.36-2.46.36-1.97.36 2.76.37-1.35.36 3.35.36-4.91.36 2.15.36-.27.37-.82.36 3.58.36-1.97.36 1.15.36 1.41.37-2.35.36-.7.36-3.24.36 6.29.36-5.14.37 3.64.36-.2.36-2.12.36-.35.36 1.67.37.97.36-2.14.36 1.82.36-1.41.37-.32.36-.27.36-.85.36 1.06.36 1.58.37.39.36-4.2.36 4.08.36-2.23.36.91.37-.3.36-.23.36-1.91.36 1.79.36-.73.37 1.32.36.2.36-.38.36 1.73.37-3.49.36.41.36 1.09.36 2.7.36-2.97.37-.23.36 1.5.36-2 .36 3.05.36-1.11.37-2.15.36 1.41h.36l.36 1.65.36-1.5.37.03.36 1.91.36-2.03.36-.88.37 1.76.36-.35.36 1.53.36-2.82.36.64.37.8.36.11.36-.17.36-.15.36-2.14.37 4.49.36-3.35.36-.06.36-1.88.36.42.37 3.58.36 1.47.36-1.32.36.35.36-1.38.37-1.47.36 1.23.36-.29.36.5.37-1.38.36-.38.36.79.36.53.36-3.29.37 6.61.36-4 .36.56.36-1.94.36 2.23.37 1.85.36-1.38.36 2.09.36-.5.36-.26.37-.44.36-3.47.36 3.52.36-2.67.37.65.36.32.36 2.41.36-3.73.36.79.37.15.36 1 .36-.21.36.41.36-.94.37 1 .36 2.35.36-2.17.36.91.36 1.7.37-4.37.36-.83.36.65.36.56.36.17.37 2.62.36-2.47.36.5.36.7.37-.17.36-1.21.36-1.2.36 2.73.36-1.47.37-2.9.36 1.61.36 3.82.36-1.56.36-.91.37.79.36-1.08.36 3.23.36-3.2.36 1.88.37-.12.36-3.79.36 2.79.36-.06.37-3.05.36 3.29.36-.38.36 1.02.36 1.27.37-1 .36-.77.36-1.85.36 2.06.36-4.46.37 2.49.36-.2.36 3.14.36-1.5h.36l.37-.41.36 3.38.36-.91.36-1.62.36-2.79.37.91.36-.44.36 2.15.36 1.46.37-2.11.36.56.36-2.56.36.56.36 2.64.37-2.08.36 4.99.36-4.08.36-.82.36.23.37 2.23.36-1.52.36-.59.36-1.15.36 3.44.37.5.36-3.61.36.03.36-.83.37 3 .36-1.88.36 1.82.36-1.41.36-1.35.37 3.44.36-1.38.36-1 .36 2.61.36-.65.37.77.36-.59.36-2.82.36-.26.36 5.75.37-2.87.36-3.59.36 5.94.36-2.97.37 1.88.36-.71.36-.38.36-1.73.36-3.32.37 1.76.36 2.29.36 1.27.36-2.29.36 2.32.37-3.12.36 2.62.36-.83.36.21.36 2.38.37-1.76.36-.24.36 1.82.36-.56.36-.97.37.86.36-1.82.36 2.11.36-4.43.37-.5.36 1.35.36 1.05.36.42.36.17.37-1.76.36.68.36 1.79"/><use xlink:href="#06cd5__d" color="#D336C8" transform="matrix(3.75 0 0 3.75 354.25 58.61)"/><use xlink:href="#06cd5__d" color="#D336C8" transform="matrix(3.75 0 0 3.75 56.25 7.51)"/></g><text stroke-linecap="round" stroke-linejoin="round" color="#000" font-family="KaTeX_Main" font-size="8" transform="translate(76.8 25.11)"><tspan>RedBlackRelaxedTopDown</tspan></text><g fill="none" stroke="currentColor" stroke-linecap="round" stroke-linejoin="round" color="#000"><path stroke="violet" stroke-dasharray="4.0,2.0,1.0,2.0" d="M41.3 22.51h29.9M28 77.88l.36-2.62.36 2.21.37-1.8.36.03.36-2.08.36 3.93.36-2.49.37.79.36 1.44.36-2.47.36 1.97.37-1.26.36.12.36-2.88.36 2.58.36-3.46.37 4.08.36 2.7.36-.38.36-3.06.36-.03.37 1.24.36-1.62.36-.94.36 1.59.36.26.37-.79.36 2.76.36-2.67.36-.71.36 1.85.37.53.36.38.36-.02.36-3.91.37 2.82.36 1.35.36-2.44.36 4.06.36-4.73.37 2.43.36-.08.36-.91h.36l.36 3.96.37-1.88.36-2.82.36.44.36.53.36 1.91.37.5.36-1.12.36-3.43.36 3.11.37-1.12.36 4.76.36-7.72.36 2.61.36-1.79.37 5.96.36-4.49.36 2.11.36.44.36-.97.37-1.82.36 1.62.36-2.88.36 1.26.36 1.88.37-4.08.36 1.5.36 2.52.36.8.37.64.36-2.88.36 1.24.36-.38.36-1.74.37-.76.36.82.36 3.82.36-4.43.36 3.17.37-1.15.36-.73.36-.71.36 4.38.36-2.67.37-2.5.36 2.53.36 2.4.36-1.93.36.11.37.24.36-2.32.36-.15.36 1.97.37.53.36-3.32.36 1.2.36-.2.36.73.37-3.17.36 3.61.36.59.36 1.67.36-3.32.37 1.62.36-.85.36-.77.36 1.06.36.8.37-2.91.36 1.58.36 1.03L70 76l.37-1.73.36-1.36.36 2.56.36-.03.36.41.37-.44.36-1.5.36 2.65.36-1.53.36 1.76.37-1.2.36-2.5.36 3.7.36-1.47.36.44.37.38.36-1.11.36.56.36-2.53.36 2.94.37.73.36-.97.36-3.2.36 2.41.37.03.36.73.36-1.26.36 3.55.36-3.46.37 1.61.36.53.36-.09.36-.11.36-1.06.37-1.06.36 1.32.36-2.49.36 5.67.36-1.21.37-1.76.36-1.23.36-.53.36.82.37.91.36-.7.36 1.58.36.5.36-2.2.37 2.76.36-2.09.36-.2.36.35.36 1.26.37-1.88.36 2.06.36-.94.36.82.36-1.11.37-.39.36.86.36-1 .36.2.36-2.32.37 3.88.36-.35.36-3.17.36-1.03.37 5.96.36-1.32.36-2.35.36 2.44.36-3.09.37-.85.36 2.94.36-.36.36-2.37.36 2.32.37-.36.36-.14.36 5.23.36-7.61.36 4.02.37.09.36-3.17.36 3.08.36-2.79.37 1.09.36 1.5.36-1.91.36-.06.36.85.37-3 .36 4.17.36-3.4.36 2.99.36-3.43.37-.47.36 4.93.36-1.7.36.79.36 4.73.37-7.67.36.74.36.14.36 1.59.37 1.47.36-.97.36-2.41.36 3 .36.12.37-2.3.36-.2.36 2.08.36-2.14h.36l.37.09.36 1.91.36-1.32.36-3.21.36 4.44.37.94.36-2.56.36-.35.36 1.47.36-.73.37.55.36-.35.36-.91.36-.97.37 2.26.36-.73.36-1.23.36 3.37.36-.61.37.29.36-2.61.36.14.36-1.05.36 4.2.37-2.71.36 2.76.36-1.46.36-2.03.36-.65.37 2.32.36.53.36.5.36-1.94.37 1.97.36-1.67.36-.65.36-.38.36.88.37 2.55.36-3.49.36.18.36 2.35.36-1.8.37.97.36 3.09.36-4.88.36-1 .36.09.37.56.36 5.55.36-4.55.36-.27.36 1.65.37-2.23.36.08.36.94.36 4.5.37-7.64.36 3.38.36 1.5.36-2 .36-.18.37.53.36-2.7.36 6.2.36-4.12.36 1.8.37-1.62.36 3.44.36-3.15.36.15.36-.35.37 3.35.36-3.79.36.56.36-1.59.37 2.59.36-1.88.36.08.36 3.44.36-3.26.37 1.15.36 1.23.36-2.41.36 2.23.36-.38.37-1 .36 1.85.36-1.64.36-1.06.36 1.35.37-.97.36-.23.36 1.52.36 1.36.36-2.88.37 1.14.36-1.17.36-1.15.36 3.62.37-.77.36-2.2.36 2.38.36.5.36-2.73.37 2.52.36-1.09.36-2.67.36 3.61.36-2.55.37 3 .36-2.12.36-.23.36 3.14.36-3.12.37.15.36-.38.36 4.93.36-4.34.37.5.36 1.2.36-.53.36.12.36-2.29.37.29.36.85.36-2.46.36 4.02.36-.76.37 1.08.36.03.36-2.76.36 1.79.36-.94.37-2.2.36 1.24.36-.09.36 3.93.37-.73.36-1.59.36.06.36.09.36-.41.37-1.21.36 2.29.36-3.58.36 2.26.36.62.37-.79.36-1.88.36 3.4.36-.97.36-.32.37-2.88.36 5.06.36-5.85.36 4.85.36 1.23.37-4.7.36 6.55.36-2.41.36-3.02.37 3.37.36-4.25.36 5.31.36-.88.36-3.73.37 2.12.36-1.03.36-.44h.36l.36 2.29.37-.59.36.85.36-.09.36-.64.36.17.37-2.29.36 2.38.36-.79.36-1.82.37 6.34.36-4.93.36 3.35.36-5.38.36 2.32.37-.94.36 2.09.36-.68.36 4.11.36-9.66.37 7.9.36-4.58.36 2.85.36-2.53.36-.56.37 3.09.36-.79.36-1.74.36 4.73.36-5.78.37 4.87.36-.85.36-1.76.36.14.37 1.94.36-1.14.36.2.36 2.65.36-2.15.37-2.85.36-2.23.36 4.44.36-2.09.36 1.38.37-2 .36.83.36-.86.36.18.36 3.52.37.97.36-3.11.36 1.56.36-.06.37-.77.36-2.93.36 1.11.36-.23.36-1.88.37 1.79.36 1.29.36-.09.36-1.43.36 2.87.37-1.82.36-1.61.36 3.99.36-1.23.36.38.37.09.36-2.85.36 2.2.36-1.79.37.73.36.03.36-.11.36 2.58.36.65.37-.88.36-1.44.36.88.36-1.97.36.79.37 1.09.36-1.38.36 1.56.36-2.68.36 4.26.37-2.73.36-.35.36-.24.36-1.08.36 2.35.37-.15.36-.18.36 4.15.36-5.56.37 2.56.36-1 .36-1 .36-.26.36 3.49.37-4.2.36 2.03.36.23.36-.76.36 2.76.37-3.73.36 2.47.36-1.68.36.15.36 1.7.37-1.73.36 1.53.36-1.35.36-.62.37 1.38.36-.35.36-.15.36.94.36 4 .37-8.11.36 3.23.36-1 .36-.88.36 2.12.37-.42.36 1.5.36-1.23.36.97.36-.97.37 1.73.36-.82.36-2.79.36 1.82.36-2.85.37 3.73.36-1.26.36 3.38.36-2.03.37-.82.36-.85.36 3.64.36-4.23.36 4.11.37-3.88.36 2.73.36-3.7.36-.38.36 2.03.37.94.36 1 .36 1.29.36-5.05.36.47.37 3.14.36-.23.36-.15.36-2.7.37 3.32.36-3.41.36 3.64.36.12.36-1.24.37-2.37.36.41.36 2.7.36 1.29.36-1.67.37.44.36-2.85.36.32.36 1.7.36-2.64.37 4.05.36-4.99.36 1.21.36 2.05.36-1.91.37 1.74.36.08.36 1.97.36-3.46.37 2.43.36-1.82.36-.03.36.71.36.06.37.17.36-1.14.36.56.36 2.84.36-1.96.37-2.21.36 2.21.36 1.14.36-2.35.36 3.64.37-5.34.36 3.73.36.23.36-3.76.37 2.85.36-2.43.36.88.36 1.85.36-.27.37-.97.36 1.09.36-2.91.36 4.61.36-3.87.37 1.7.36-2.58.36 3.49.36-4.08.36 4.64h.37l.36-2.09.36.91.36 1.03.37-3.29.36-.2.36 2.05.36-1.32.36.18.37 1.2.36 2.59.36-3.06.36.06.36-.97.37.71.36.08.36-.14.36.06.36.94.37.35.36-4.52.36 1.55.36 2.73.36-3.2.37 4.2.36-2.64.36 3.38.36-1.41.37.79.36-2.85.36 1.67.36.39.36-1.35.37-2.12.36 4.2.36-.88.36-2.5.36-.08.37.38.36.23.36 1.15.36-1.09.36 3.14.37-.88.36-1.76.36-.76.36.55.37-.29.36-2.5.36 2.76.36.33.36 1.94.37-2.03.36 1.06.36-1.12.36.18.36-.03.37.44.36.44.36-1.18.36.94.36-2.96.37.56.36-.24.36.21h.36l.36 3.81.37-2.9.36-2.26.36 4.22.36.33.37 2.05.36-1.82.36-.32.36-.03.36.53.37-4.05.36.67.36 1 .36 1.41.36.7.37-1.55.36-1.29.36 1.08.36-1.7.36 3.76.37 1.14.36-1.76.36.15.36-1.18.37-.7.36 3.99.36-5.2.36 1.74.36-.33.37-.14.36 1.85.36-1 .36.82.36-.76.37 1.11.36-2.32.36 1.59.36-1.18.36 2.94.37-1.06.36-1.29.36 1.47.36-1.2.36-2.03.37 3.94.36-3.18.36.41.36-1.29.37 5.05.36-5.25.36-.77.36 4.03.36-1.62.37-.73.36 1.5.36.29.36.41.36-.35.37-2.29.36-4 .36 4.53.36 3.67.36-5.41.37 3.32.36.47.36-1.2.36.06.37 1.58.36-2.79.36.62.36 3.44.36-5.91.37 4 .36-3.03.36-.03.36 6.11.36-3.7.37-4.05.36 4.87.36-1.76.36 3.61.36-1.47.37-1.64.36-1.82.36 1.85.36.62.37-1.83.36.91.36 2.18.36-1.91.36 1.29.37-1.17.36-1.5.36 1.29.36 1.53.36-4.17.37 5.28.36-3.81.36.76.36-.15.36.65.37-.06.36 3.73.36-1.56.36-2.29.36-.82.37 2.03.36-1.5.36-.32.36.35.37-1.38.36 1.41.36 1.85.36-2.38.36-2.64.37 6.69.36-5.11.36 2.15.36-2.21.36 2.38.37.71.36-1.79.36 2.4.36-1.82.36 1.79.37-1.38.36.94.36-.85.36 1.82.37-4.37.36 4.11.36-.85.36-1.12.36-.18.37.71.36-.65.36.3.36.64.36-2.58.37 4.02.36-.38.36-2.38.36.18.36.47.37-3.12.36 3.35.36.15.36-2.09.36 3.15.37-.33.36-.61.36.32.36 2.03.37-.5.36-2.56.36 1.79.36-1.99.36-.83.37.65.36-1.2.36 1.7.36.5.36-1.53.37 1.18.36.17.36-.88.36.21.36 1.7.37.85.36-1.44.36-.97.36-2.23.37 6.08.36-3.55.36-1.53.36 4.47.36-2 .37-1.79.36-.06.36-.12.36.23.36 1.06.37-.17.36-2.18.36.09.36 2.38.36-3.11.37 1.47.36 3.23.36.29.36-2.09.36.15.37-.35.36-.88.36 1.52.36-1.49.37 3.17.36.15.36-1.15.36-1.06.36 2.94.37-3.85.36 3.44.36-2.7.36.26.36-.09.37.09.36-2.03.36 2.06.36.12.36-.03.37 2.32.36-1.5.36-4.14.36 4.7.37-1.76.36.47.36.08.36-.55.36-.44.37-.47.36.08.36.97.36 2.68.36-2 .37-.94.36.7.36-.17.36-.44.36.26.37-.41.36-1.29.36 2.96.36-1.05.37 2.93.36-2.17.36.68.36-1.27.36-1.76.37-.47.36 2.41.36 3.03.36-5.29.36 4.02.37-4.2.36 3.17.36-1.38.36.71.36.15.37.61.36-2.08.36 2.11.36.47.36-2.03.37.3.36-.18.36.44.36-2.02.37 2.26.36-2 .36.53.36.29.36 1.85.37-1.7.36-2.53.36 3.68"/><use xlink:href="#06cd5__e" color="violet" transform="matrix(3.75 0 0 3.75 67.83 74.73)"/><use xlink:href="#06cd5__e" color="violet" transform="matrix(3.75 0 0 3.75 56.25 22.51)"/></g><text stroke-linecap="round" stroke-linejoin="round" color="#000" font-family="KaTeX_Main" font-size="8" transform="translate(241.1 10.11)"><tspan>LBSTRelaxed</tspan></text><g fill="none" stroke="currentColor" stroke-linecap="round" stroke-linejoin="round" color="#000"><path stroke="#FFAB00" stroke-dasharray="4.0,2.0,1.0,2.0" d="M205.6 7.51h29.9M28 162.5h343.99"/><use xlink:href="#06cd5__f" color="#FFAB00" transform="matrix(3.75 0 0 3.75 125.4 162.5)"/><use xlink:href="#06cd5__f" color="#FFAB00" transform="matrix(3.75 0 0 3.75 220.55 7.51)"/></g><path fill="none" d="M28 45.01V162.5M371.99 45.01H28" color="#000"/></svg>