<svg xmlns="http://www.w3.org/2000/svg" xmlns:xlink="http://www.w3.org/1999/xlink" viewBox="0 0 400 200"><path fill="none" d="M0 0h400v200H0z"/><defs><use xlink:href="#05b73__a" id="05b73__c" fill="currentColor" stroke="none"/><use xlink:href="#05b73__a" id="05b73__b" stroke="currentColor" transform="rotate(180)"/><use xlink:href="#05b73__b" id="05b73__d" fill="currentColor" stroke="none"/><path id="05b73__a" stroke="currentColor" stroke-width=".267" d="m0-1.33-1.33 2h2.66z"/></defs><path fill="none" stroke="#CCC" stroke-linecap="round" stroke-linejoin="round" stroke-width=".1" d="M46.1 162.5V45.01" class="05b73__gridline" color="#000"/><g fill="none" stroke-linecap="round" stroke-linejoin="round" stroke-width="0" color="#000"><path d="M46.1 162.5V155m0-109.99v7.5"/><text fill="#000" font-family="KaTeX_Main" font-size="8" text-anchor="middle" transform="translate(46.1 172.6)"><tspan> 1</tspan></text></g><path fill="none" stroke="#CCC" stroke-linecap="round" stroke-linejoin="round" stroke-width=".1" d="M82.31 162.5V45.01" class="05b73__gridline" color="#000"/><g fill="none" stroke-linecap="round" stroke-linejoin="round" stroke-width="0" color="#000"><path d="M82.31 162.5V155m0-109.99v7.5"/><text fill="#000" font-family="KaTeX_Main" font-size="8" text-anchor="middle" transform="translate(82.31 172.6)"><tspan> 2</tspan></text></g><path fill="none" stroke="#CCC" stroke-linecap="round" stroke-linejoin="round" stroke-width=".1" d="M118.52 162.5V45.01" class="05b73__gridline" color="#000"/><g fill="none" stroke-linecap="round" stroke-linejoin="round" stroke-width="0" color="#000"><path d="M118.52 162.5V155m0-109.99v7.5"/><text fill="#000" font-family="KaTeX_Main" font-size="8" text-anchor="middle" transform="translate(118.52 172.6)"><tspan> 3</tspan></text></g><path fill="none" stroke="#CCC" stroke-linecap="round" stroke-linejoin="round" stroke-width=".1" d="M154.73 162.5V45.01" class="05b73__gridline" color="#000"/><g fill="none" stroke-linecap="round" stroke-linejoin="round" stroke-width="0" color="#000"><path d="M154.73 162.5V155m0-109.99v7.5"/><text fill="#000" font-family="KaTeX_Main" font-size="8" text-anchor="middle" transform="translate(154.73 172.6)"><tspan> 4</tspan></text></g><path fill="none" stroke="#CCC" stroke-linecap="round" stroke-linejoin="round" stroke-width=".1" d="M190.94 162.5V45.01" class="05b73__gridline" color="#000"/><g fill="none" stroke-linecap="round" stroke-linejoin="round" stroke-width="0" color="#000"><path d="M190.94 162.5V155m0-109.99v7.5"/><text fill="#000" font-family="KaTeX_Main" font-size="8" text-anchor="middle" transform="translate(190.94 172.6)"><tspan> 5</tspan></text></g><path fill="none" stroke="#CCC" stroke-linecap="round" stroke-linejoin="round" stroke-width=".1" d="M227.15 162.5V45.01" class="05b73__gridline" color="#000"/><g fill="none" stroke-linecap="round" stroke-linejoin="round" stroke-width="0" color="#000"><path d="M227.15 162.5V155m0-109.99v7.5"/><text fill="#000" font-family="KaTeX_Main" font-size="8" text-anchor="middle" transform="translate(227.15 172.6)"><tspan> 6</tspan></text></g><path fill="none" stroke="#CCC" stroke-linecap="round" stroke-linejoin="round" stroke-width=".1" d="M263.36 162.5V45.01" class="05b73__gridline" color="#000"/><g fill="none" stroke-linecap="round" stroke-linejoin="round" stroke-width="0" color="#000"><path d="M263.36 162.5V155m0-109.99v7.5"/><text fill="#000" font-family="KaTeX_Main" font-size="8" text-anchor="middle" transform="translate(263.36 172.6)"><tspan> 7</tspan></text></g><path fill="none" stroke="#CCC" stroke-linecap="round" stroke-linejoin="round" stroke-width=".1" d="M299.57 162.5V45.01" class="05b73__gridline" color="#000"/><g fill="none" stroke-linecap="round" stroke-linejoin="round" stroke-width="0" color="#000"><path d="M299.57 162.5V155m0-109.99v7.5"/><text fill="#000" font-family="KaTeX_Main" font-size="8" text-anchor="middle" transform="translate(299.57 172.6)"><tspan> 8</tspan></text></g><path fill="none" stroke="#CCC" stroke-linecap="round" stroke-linejoin="round" stroke-width=".1" d="M335.78 162.5V45.01" class="05b73__gridline" color="#000"/><g fill="none" stroke-linecap="round" stroke-linejoin="round" stroke-width="0" color="#000"><path d="M335.78 162.5V155m0-109.99v7.5"/><text fill="#000" font-family="KaTeX_Main" font-size="8" text-anchor="middle" transform="translate(335.78 172.6)"><tspan> 9</tspan></text></g><path fill="none" stroke="#CCC" stroke-linecap="round" stroke-linejoin="round" stroke-width=".1" d="M371.99 162.5V45.01" class="05b73__gridline" color="#000"/><g fill="none" stroke-linecap="round" stroke-linejoin="round" stroke-width="0" color="#000"><path d="M371.99 162.5V155m0-109.99v7.5"/><text fill="#000" font-family="KaTeX_Main" font-size="8" text-anchor="middle" transform="translate(371.99 172.6)"><tspan> 10</tspan></text></g><g fill="none" stroke-linecap="round" stroke-linejoin="round" stroke-width="0" color="#000"><path d="M371.99 162.5h-7.5"/><text fill="#000" font-family="KaTeX_Main" font-size="8" transform="translate(378.99 165.1)"><tspan>0.80</tspan></text></g><g fill="none" stroke-linecap="round" stroke-linejoin="round" stroke-width="0" color="#000"><path d="M371.99 149.45h-7.5"/><text fill="#000" font-family="KaTeX_Main" font-size="8" transform="translate(378.99 152.05)"><tspan>0.90</tspan></text></g><g fill="none" stroke-linecap="round" stroke-linejoin="round" stroke-width="0" color="#000"><path d="M371.99 136.39h-7.5"/><text fill="#000" font-family="KaTeX_Main" font-size="8" transform="translate(378.99 138.99)"><tspan>1.00</tspan></text></g><g fill="none" stroke-linecap="round" stroke-linejoin="round" stroke-width="0" color="#000"><path d="M371.99 123.34h-7.5"/><text fill="#000" font-family="KaTeX_Main" font-size="8" transform="translate(378.99 125.94)"><tspan>1.10</tspan></text></g><g fill="none" stroke-linecap="round" stroke-linejoin="round" stroke-width="0" color="#000"><path d="M371.99 110.28h-7.5"/><text fill="#000" font-family="KaTeX_Main" font-size="8" transform="translate(378.99 112.88)"><tspan>1.20</tspan></text></g><g fill="none" stroke-linecap="round" stroke-linejoin="round" stroke-width="0" color="#000"><path d="M371.99 97.23h-7.5"/><text fill="#000" font-family="KaTeX_Main" font-size="8" transform="translate(378.99 99.83)"><tspan>1.30</tspan></text></g><g fill="none" stroke-linecap="round" stroke-linejoin="round" stroke-width="0" color="#000"><path d="M371.99 84.17h-7.5"/><text fill="#000" font-family="KaTeX_Main" font-size="8" transform="translate(378.99 86.77)"><tspan>1.40</tspan></text></g><g fill="none" stroke-linecap="round" stroke-linejoin="round" stroke-width="0" color="#000"><path d="M371.99 71.12h-7.5"/><text fill="#000" font-family="KaTeX_Main" font-size="8" transform="translate(378.99 73.72)"><tspan>1.50</tspan></text></g><g fill="none" stroke-linecap="round" stroke-linejoin="round" stroke-width="0" color="#000"><path d="M371.99 58.06h-7.5"/><text fill="#000" font-family="KaTeX_Main" font-size="8" transform="translate(378.99 60.66)"><tspan>1.60</tspan></text></g><g fill="none" stroke-linecap="round" stroke-linejoin="round" stroke-width="0" color="#000"><path d="M371.99 45.01h-7.5"/><text fill="#000" font-family="KaTeX_Main" font-size="8" transform="translate(378.99 47.61)"><tspan>1.70</tspan></text></g><path fill="none" d="M28 45.01V162.5M371.99 45.01H28" color="#000"/><text stroke-linecap="round" stroke-linejoin="round" stroke-width="0" color="#000" font-family="KaTeX_Main" font-size="10" text-anchor="middle" transform="rotate(-90 57.63 46.13)"><tspan font-weight="bold">Duration </tspan><tspan> in milliseconds</tspan></text><text stroke-linecap="round" stroke-linejoin="round" stroke-width="0" color="#000" font-family="KaTeX_Main" font-size="10" text-anchor="middle" transform="translate(199.99 195.75)"><tspan>Operations / 10</tspan><tspan dy="-5" font-size="8">6</tspan></text><text stroke-linecap="round" stroke-linejoin="round" stroke-width=".5" color="#000" font-family="KaTeX_Main" font-size="8" transform="translate(116 10.11)"><tspan>AVLBottomUp</tspan></text><g fill="none" stroke="currentColor" stroke-linecap="round" stroke-linejoin="round" stroke-width=".5" color="#000"><path stroke="#000" d="M80.5 7.51h29.9M28 125.87l.36-.06.36 24.44.37-27.28.36 22.7.36-24.69.36-.43.36 24.8.37-24.36.36 24.73.36-24.47.36 24.58.37-24.47.36.15.36 24.43.36-24.56.36 24.84.37-24.39.36 24.06.36-24.11.36 24.71.36-24.89.37.94.36 24.1.36-24.48.36.04.36 24.44.37-24.2.36 24.81.36-25.16.36 23.6.36-24.67.37 25.42.36-24.85.36 24.3.36-24.19.37-.13.36 23.74.36-24.39.36 25.11.36-25.34.37.43.36 24.93.36-25.18.36 24.55.36-24.5.37 25.22.36-25.23.36-.21.36 25.14.36-24.6.37 24.68.36-24.46.36 24.55.36-24.59.37 24.04.36-28.92.36.5.36 24.54.36-24.98.37-.19.36 24.62.36-24.32.36 23.95.36-23.81.37 24.08.36-24.57.36 24.66.36-24.24.36-.21.37 24.48.36-24.45.36 23.89.36-24.81.37 25.14.36-24.88.36-.05.36 25.09.36-24.64.37 24.65.36-25.03.36 24.84.36-24.43.36-.67.37 25.45.36-24.79.36 24.72.36-24.66.36 25.13.37-24.9.36 25.1.36-24.58.36.38.36 24.11.37-24.06.36-.41.36 24.19.36-24.51.37 24.23.36-24.18.36 24.67.36-25.11.36 24.63.37-24.32.36.07.36 24.1.36-24.63.36 24.7.37-24.23.36 23.66.36-23.83.36-.63.36 24.6.37-24.23.36 24.65.36-24.39.36.32.37 23.99.36-22.78.36 23.26.36-23.83.36 23.93.37-23.68.36 24.29.36-24.71.36 24.08.36-23.75.37.03.36 23.37.36-23.57.36-.01.36 24.5.37-24.73.36 23.99.36-23.75.36 23.45.36-24.28.37 23.47.36-23.53.36.22.36 23.62.37-23.52.36 23.82.36-24.46.36 24.42.36-24.13.37.5.36 23.78.36-24.66.36 24 .36-24.07.37.07.36 24.18.36-24.15.36 24 .36-23.36.37 23.79.36-23.88.36 23.74.36-23.06.37-2.16.36 20.2.36-22.34.36-1.38.36 23.66.37-23.8.36 23.89.36-23.88.36 24.03.36-23.92.37 23.68.36-23.54.36 23.51.36-23.71.36-.68.37 23.89.36-24.07.36 23.72.36-23.76.36 24 .37-24 .36-.13.36 24.18.36-23.93.37 24.26.36-23.74.36-.1.36 23.52.36-24.35.37 24.48.36-23.96.36 24.05.36-23.54.36 24.12.37-23.55.36-.29.36 23.87.36-24.33.36.18.37 23.85.36-24.27.36 24.07.36-24.04.37 23.72.36-24.05.36 24.16.36-24.09.36.28.37 23.42.36-23.38.36 23.74.36-23.56.36 23.5.37-24.41.36 23.76.36-23.75.36.29.36 24.16.37-23.74.36 24.07.36-23.75.36-.38.37 24.24.36-23.66.36 23.82.36-23.7.36 23.66.37-23.61.36 24.02.36-23.9.36-.21.36 24.22.37-24.06.36-.23.36 24 .36-23.9.36 23.28.37-23.86.36 23.96.36-23.73.36 23.66.36-23.63.37.13.36 23.53.36-24.26.36 24.42.37-24.36.36 23.78.36-23.87.36 23.8.36-23.83.37-.12.36 23.96.36-23.68.36-.24.36 24.04.37-23.94.36 24.04.36-23.71.36 23.71.36-23.93.37 23.93.36-23.24.36 23.7.36-23.69.37-.41.36 24.09.36-23.97.36.41.36 23.29.37-23.86.36 23.9.36-23.65.36 23.78.36-23.66.37 23.99.36-24.29.36.13.36 23.92.36-24.57.37 23.79.36-24.26.36 23.71.36-23.94.36 23.82.37-23.29.36-.28.36 23.98.36-24.36.37.07.36 24.26.36-24.05.36 24.22.36-24.22.37 24.08.36-23.53.36 24.23.36-23.78.36-.1.37 23.89.36-24.2.36 24.09.36-23.82.36.28.37 23.79.36-24.2.36 24.04.36-24.13.37 23.87.36-24.05.36 23.97.36-23.36.36-.35.37 24.01.36-23.88.36 23.57.36-23.86.36 24.07.37-24.83.36 23.89.36-23.9.36.25.36 24.24.37-23.5.36.31.36 23.64.36-23.75.36 24.23.37-23.93.36 24.1.36-24.08.36 23.98.37-23.95.36.19.36 23.91.36-23.6.36 23.83.37-23.7.36.19.36 23.49.36-23.66.36 23.79.37-24.19.36 23.97.36-24.14.36-.38.36 23.85.37-23.71.36 23.9.36-23.8.36 23.59.37-23.97.36 23.89.36-23.74.36 23.3.36-24.03.37.31.36 24.22.36-23.96.36.06.36 24.19.37-23.72.36 23.68.36-23.51.36 23.88.36-23.82.37 23.4.36-22.84.36-.11.36 23.46.37-28.4.36 20.47.36-24.05.36.27.36 23.56.37-23.6.36 23.32.36-23.85.36 24.26.36-24.02.37-.14.36 24.18.36-23.79.36 23.81.36-23.61.37 23.62.36-23.92.36 23.82.36-23.83.36.21.37 24.09.36-23.78.36-.82.36 24.67.37-24.04.36 24 .36-24.32.36 22.89.36-23.23.37 24.15.36-23.99.36 24.21.36-23.44.36-.19.37 24.37.36-23.95.36 23.45.36-24.1.36.11.37 23.77.36-23.43.36 23.77.36-23.68.37 23.69.36-23.52.36-.51.36 23.61.36-23.58.37 24.31.36-23.92.36 23.39.36-23.58.36 23.7.37-24.36.36-.55.36 23.93.36-23.2.36-.1.37 23.93.36-23.42.36 24.39.36-24.46.36 23.55.37-23.33.36 24.03.36-23.66.36.03.37 23.91.36-23.87.36 24.23.36-24.04.36 24.14.37-23.86.36.17.36 23.59.36-23.77.36 23.81.37-23.99.36 24.14.36-23.99.36-.42.36 24.01.37-23.38.36 23.65.36-24.11.36 23.65.37-23.73.36 23.71.36-23.78.36-.36.36 23.95.37-23.87.36-.13.36 23.57.36-23.56.36 23.88.37-23.74.36 23.63.36-23.1.36 23.28.36-23.78.37-.07.36 23.85.36-23.97.36 24.37.37-23.68.36 23.95.36-24.23.36.13.36 23.6.37-23.59.36 23.42.36-24.02.36.3.36 23.87.37-23.75.36 23.76.36-23.77.36 23.92.36-23.86.37 23.9.36-24.16.36 23.48.36-23.84.36.21.37 23.94.36-23.56.36-.24.36 24.25.37-23.82.36 23.76.36-24.03.36 24.17.36-24.22.37 24.18.36-24.1.36-.12.36 24.28.36-24.54.37 24.06.36-24.08.36 23.93.36-23.9.36.03.37 23.89.36-24.4.36 23.99.36-23.55.37-.09.36 23.92.36-24.04.36 23.98.36-24.18.37 23.53.36-23.32.36 24.1.36-24.48.36.04.37 22.86.36-23.1.36-.8.36 24.6.36-23.93.37 24.09.36-23.94.36 23.66.36-23.46.36 23.83.37-23.57.36 23.74.36-23.26h.36l.37 23.87.36-23.55.36 23.65.36-22.91.36 23.2.37-22.85.36-.56.36 23.45.36-23.43.36 23.45.37-23.35.36.19.36 22.39.36-23.03.36 22.96.37-22.8.36 22.78.36-23.14.36 22.85.37-22.8.36-.73.36 23.33.36-23.04.36-.53.37 23.7.36-22.61.36 23.4.36-23.18.36 23.17.37-23 .36 22.98.36-22.7.36-.25.36 23.66.37-22.81.36 23.03.36-23.19.36 23.34.36-23.16.37 22.99.36-22.93.36.15.36 22.92.37-23.96.36 23.53.36-23.82.36.43.36 22.47.37-22.81.36 23.38.36-23.34.36 23.06.36-23.09.37 23.09.36-23.45.36.03.36 23.08.36-22.65.37.09.36 22.86.36-22.58.36 23.25.37-23.31.36 23.13.36-23.3.36 22.43.36-23.7.37.44.36 23.48.36-23.18.36 23.72.36-24.08.37 23.79.36-22.98.36 22.61.36-22.2.36.11.37 23.01.36-23.71.36-.04.36 23.23.37-23.02.36 22.96.36-22.91.36 22.75.36-22.86.37 22.84.36-22.67.36 22.73.36-22.79.36-.16.37 22.44.36-23.1.36-.12.36 22.98.36-23.02.37 22.78.36-22.6.36 22.91.36-23.05.36 22.94.37-22.92h.36l.36 23.51.36-22.38.37 23.13.36-23.05.36 23.22.36-22.29.36 22.55.37-22.82.36-.14.36 22.94.36-23.25.36-.03.37 23.46.36-23.45.36 22.56.36-22.89.36 22.97.37-23.35.36 23.25.36-23.55.36.19.37 23.15.36-23.45.36 23.06.36-23.1.36.12.37 23.32.36-22.97.36 22.97.36-22.78.36 23.43.37-23.39.36 23.31.36-23.08.36-.5.36 23.37.37-22.5.36 23.01.36-23.03.36 23.32.36-23.51.37 23.01.36-22.77.36-.04.36 22.91.37-23.2.36-.12.36 22.57.36-23.05.36 23.34.37-23.17.36 23.15.36-23.07.36 23.11.36-23.62.37-.21.36 23.44.36-23.09.36 22.85.36-23.17.37.73.36 23.02.36-22.96.36 23.34.37-22.92.36 23.07.36-23.81.36-.19.36 23.32.37-22.85.36 22.97.36-23.06.36 22.94.36-23.11.37 22.85.36-22.83.36 22.41.36-22.86.36-.06.37 23.19.36-23.44.36-.24.36 23.42.36-23.29.37 23.34.36-23.51.36 23.01.36-23.06.37 23.35.36-23.32.36-.01.36 23.24.36-23.19.37 22.47.36-22.97.36-.49.36 23.8.36-23.34.37 23.39.36-23.33.36 23.32.36-22.74.36-.21.37 23.4.36-22.94.36 23.75.36-23.18.37 23.31.36-22.97.36 23.43.36-22.8.36-.03.37 22.94.36-23.32.36-.11.36 23.44.36-23.08.37 22.6.36-23.72.36 22.6.36-23.32.36 23.33.37-23.25.36 23.11.36-23.43.36.03.37 23.05.36-23.05.36 23.07.36-23.33.36-.1.37 23.47.36-22.95.36 23.21.36-23.01.36 23.3.37-21.97.36-.06.36 23.5.36-23.1.36 23.01.37-22.81.36 23.08.36-22.79.36 21.78.36-29.47.37-.03.36 22.97.36-23.42.36-.11.37 23.18.36-23.15.36 22.82.36-23.31.36 23.02.37-23.06.36 22.92.36-22.97.36-1.09.36 23.18.37-23.1.36 23.06.36-22.97.36 23.17.36-23.35.37.73.36 23.06.36-22.62.36 23.11.37-22.53.36 22.92.36-24.06.36-.06.36 23.77.37-22.99.36 23.36.36-22.85.36 23.27.36-23.19.37 23.3.36-22.96.36-.3.36 23.01.36-23.13.37-.31.36 22.87.36-22.92.36 22.73.36-23 .37 23.15.36-23.61.36 23.16.36-22.84.37.17.36 22.86.36-23.07.36 23.11.36-23.66.37 23.04.36-23.35.36.11.36 23.5.36-23.3.37 23.5.36-23.07.36.01.36 23.48.36-23.43.37 23.35.36-22.89.36 22.63.36-23.05.37 23.25.36-22.68.36 23.6.36-22.43.36-.27.37 22.66.36-22.63.36-.45.36 23.68.36-23.58.37 22.86.36-23.69.36 22.48.36-23.32.36 23.19.37-23.05.36-.23.36 23.23.36-23.08.36 23.05.37-22.97.36 22.83.36-23.05.36.09.37 25.25.36-24.63.36 23.03.36-22.04.36-.64.37 23.24.36-20.78.36 21.32.36-23.42.36 23.04.37-22.9.36 23.23.36-22.63.36-.21.36 23.03.37-23.22.36.17.36 22.7.36-23.01.37 22.81.36-23.63.36 23.01.36-23.12.36 23.18.37-23.39.36 23.59.36-22.89.36-.9.36 22.92.37-22.76.36 23.06.36-22.92.36 22.8.36-23.03.37.29.36 23.17.36-22.68.36 23.18.37-22.64.36.07.36 22.29.36-23.26.36 23.48.37-22.98.36 23.13.36-23.07.36 22.96.36-22.51.37.06.36 23.13.36-23.01.36.09.36 23.46.37-23.24.36 23.05.36-22.91.36 23.08.36-23.35.37 23.32.36-23.15.36-.35.36 23.33.37-23.02.36 22.83.36-22.56.36 22.66.36-24.43.37 22.92.36-23.09.36.01"/><use xlink:href="#05b73__c" transform="matrix(3.75 0 0 3.75 354.25 98.03)"/><use xlink:href="#05b73__c" transform="matrix(3.75 0 0 3.75 95.45 7.51)"/></g><text stroke-linecap="round" stroke-linejoin="round" color="#000" font-family="KaTeX_Main" font-size="8" transform="translate(116 25.11)"><tspan>AVLTopDown</tspan></text><g fill="none" stroke="currentColor" stroke-linecap="round" stroke-linejoin="round" color="#000"><path stroke="#29C3F6" stroke-dasharray="2.5,4.0" d="M80.5 22.51h29.9M28 109.4l.36-22.43.36 25.97.37-36.81.36 3.48.36 23.09.36-23.04.36-1.96.37 25.39.36-30.14.36 30.33.36-24.94.37 23.5.36-22.74.36 23.31.36-22.25.36-15.48.37 39.25.36-27.39.36 26.87.36-26.17.36 26.14.37-28.86.36 4.03.36 26.69.36-25.28.36 26.61.37-23.75.36.08.36 12.62.36-15.98.36 21.77.37-23.16.36 24.68.36-24.73.36 22.4.37-25.7.36 28.09.36-25.41.36 1.59.36 24.95.37-22.98.36-12.27.36 32.12.36-23.45.36 26.9.37-25.71.36 23.08.36-23.97.36 20.48.36-19.37.37-2.27.36 26.88.36-24.51.36 25.13.37-34.37.36 22.87.36-19.84.36.71.36 23.77.37-27.19.36 29.5.36-26.5.36-.17.36 23.62.37-21.52.36 25.4.36-24.42.36 10.4.36-9.38.37 24.31.36-22.85.36-2.6.36 21.52.37-21.56.36 25.19.36-23.55.36-2.94.36 26.7.37-24.4.36 25.13.36-36.4.36 17.34.36-8.59.37 24.68.36-26.43.36-1.26.36 27.86.36-25.3.37 26.07.36-27.34.36 27.45.36-23.74.36-.11.37 14.9.36-18.67.36 29.27.36-23.94.37-2.66.36 23.13.36-21.56.36 24.59.36-25.62.37 25.67.36-24.56.36 24.04.36-23.75.36-6.81.37 16.26.36-12.51.36.88.36 24.32.36-29.1.37 28.93.36-25.35.36 24.05L70 73.1l.37 24.64.36-24.07.36 1.81.36 18.45.36-26.66.37 31.55.36-25.33.36 24.84.36-27.79.36 28.05.37-24.13.36 1.54.36 24.16.36-26.36.36 26.83.37-22.75.36-5.44.36 9.45.36-12.75.36 28.11.37-23.33.36 21.33.36-20.25.36 23.73.37-24.61.36 1.58.36 21.91.36-22.84.36 1.69.37 22.16.36-32.01.36 34.08.36-24.35.36 22.95.37-25.53.36 23.16.36-20.8.36-2.1.36 24.65.37-23.32.36 23.63.36-23.02.36 22.26.37-40.09.36 26.37.36-14.56.36-.08.36 23.84.37-24 .36 26.09.36-25.83.36-.59.36 18.54.37-18.55.36 25 .36-24.31.36 23.19.36-20.28.37 21.28.36-20.23.36-2.15.36 19.56.36-17.9.37-2.59.36 26.63.36-25.08.36 24.77.37-23.45.36 12.32.36-29.15.36 37.71.36-24.68.37 1.22.36 21.17.36-22.17.36 25.01.36-26.13.37 24.89.36-29.07.36 29.79.36-22.3.36-1.06.37 24 .36-24.31.36.45.36 26.7.37-26.05.36 17.38.36-16.36.36 20.07.36-20.54.37 24.03.36-22.39.36-.5.36 15.94.36-31.69.37 18.37.36-18.08.36 13.87.36 23.09.36-23.65.37 22.31.36-25.26.36 24.96.36-26.59.37 25.35.36-21.07.36-.38.36 25.64.36-28.42.37 26.39.36-24.22.36 24.14.36-29.74.36 30.39.37-25.8.36 2.83.36 22.38.36-21.88.36.26.37 19.94.36-35.73.36 30.15.36-17.59.36 24.94.37-24.54.36 24.8.36-24.16.36-1.93.37 24.95.36-22.09.36 17.56.36-18.36.36 1.19.37 25.47.36-27.57.36 26.15.36-27.23.36 24.27.37-22.14.36-.93.36 24.09.36-24.17.36 23.81.37-21.95.36 22.28.36-22.81.36 9.29.37-26.55.36 32.43.36-16.92.36-.85.36 24.44.37-23.25.36 1.78.36 20.94.36-23.03.36 17.78.37-18.29.36 25.69.36-24.16.36 22.79.36-19.78.37-3.28.36 27.1.36-27.06.36 22.46.36-19.64.37-2.63.36 26.05.36-22.63.36 23.46.37-23.91.36 10.16.36-25.52.36 12.29.36 23.23.37-22.84.36 21.34.36-22.01.36 24.51.36-26.1.37 24.8.36-28.52.36 6.25.36 25.15.36-24.65.37 22.09.36-21.08.36-1.04.36 26.66.37-26.05.36 18.08.36-16.52.36 19.83.36-19.96.37 23.48.36-23.38.36-.16.36 13.93.36-29.87.37 18.7.36-16.07.36 11.56.36 23.84.36-25.78.37 26.35.36-27.14.36 24.02.36-28.6.36 5.67.37 25.88.36-24.88.36 25.46.36-28.62.37 25.84.36-22.99.36 24.35.36-30.84.36 6.8.37 21.64.36-20.91.36-1.35.36 26.42.36-22.66.37 16.64.36-33.73.36 32.66.36-20.15.36 24.73.37-24.78.36 2.29.36 23.22.36-26.24.37 24.87.36-24.67.36 22.7.36-20.38.36.39.37 25.97.36-28.28.36 24.26.36-22.23.36 21.75.37-22.42.36-.84.36 22.61.36-21.15.36 22.81.37-22.44.36 22.6.36-25.28.36 12.02.37-30.41.36-2.11.36 39.95.36-22.12.36-.83.37 25.22.36-24.73.36 23.7.36-22.02.36 22.89.37-27.39.36 26.47.36-22.11.36-3.35.36 28.87.37-27.35.36 28.07.36-30.74.36 21.27.36-14.15.37-2.71.36 26.86.36-23.84.36 21.15.37-22.14.36.44.36 16.9.36-20.34.36 24.19.37-25.39.36 22.18.36-20.92.36 24.43.36-25.3.37 23.52.36-32.08.36 10.51.36 23.94.36-23.17.37-6.08.36 30.03.36-23.39.36 24.77.37-27.09.36 25.66.36-23.25.36 22.93.36-22.27.37 1.35.36 15.45.36-32.32.36 22.68.36-24.73.37 37.75.36-23.09.36 1.69.36 21.75.36-22.52.37 23.79.36-25.18.36-1.62.36 26.8.36-24.78.37 25.13.36-24.62.36 20.8.36-22.63.37 23.38.36-21.73.36.13.36 9.64.36-8.93.37 21.15.36-19.77.36-1.44.36 23.47.36-21.01.37 22.84.36-26.09.36 19.39.36-20.03.36 24.12.37-26.14.36 3.63.36 23.85.36-25.23.37 24.19.36-36 .36 34.44.36-21.5.36 1.28.37 23.36.36-30.03.36 29.28.36-23.78.36-2.18.37 25.38.36-23.28.36 23.81.36-23.4.36 23.73.37-24.03.36 8.27.36-22.17.36-1.77.37 19.89.36-21.98.36.97.36 31.81.36-15.71.37 25.14.36-23.21.36 22.6.36-22.83.36 22.94.37-27.97.36 3.61.36 25.62.36-30.17.36 31.26.37-28.42.36 27.86.36-33.31.36 26.71.36-18.57.37.53.36 25.24.36-23.77.36 20.93.37-21.42.36-.38.36 17.18.36-20.05.36 24.06.37-25.21.36 23.76.36-21.24.36 23.22.36-24.02.37-3.39.36 19.49.36-14.65.36-.08.36 24.05.37-29.94.36 29.52.36-23.83.36 22.37.37-22.54.36 25.79.36-23.09.36-1.49.36 24.47.37-23.36.36 13.58.36-29.35.36 21.67.36-22.72.37 35.83.36-23.15.36-.21.36 25.59.36-24.28.37 24.29.36-26.19.36.52.36 25.05.36-24.67.37 24.94.36-23.35.36 18.22.36-18.38.37 19.74.36-19.84.36-1.71.36 10.95.36-10.2.37-.74.36 26.07.36-23.3.36 22.09.36-20.78.37 23.67.36-28.13.36 25.66.36-22.88.36-.53.37 17.06.36-18.65.36 24.35.36-29.78.37 27.84.36-23.98.36 21.86.36-18.22.36-.07.37 20.85.36-22.86.36 1.4.36 24.59.36-26.92.37 25.75.36-22.65.36 20 .36-19.23.36 22.71.37-25.47.36-12.53.36 23.71.36-23.86.36 18.01.37-18.35.36 13.41.36 24.15.36-23.27.37 23.73.36-25.77.36 25.01.36-22.23.36 22.51.37-23.39.36.88.36 24.72.36-28.18.36 27.24.37-25.57.36 25.93.36-35.65.36 31.99.36-21.47.37 2.53.36 23.57.36-23.4.36-3.26.37 25.54.36-22.44.36 15.24.36-18.43.36 23.17.37-24.45.36 21.02.36-20.2.36-.1.36 25.26.37-29.5.36 23.17.36-16.77.36.88.36 22.81.37-29.43.36 30.12.36-23.11.36 21.02.37-21.35.36 1.27.36 23.76.36-23.65.36 23.84.37-23.57.36 10.11.36-26.21.36 22.01.36-19.9.37 32.41.36-22.73.36-.04.36 20.14.36-19.43.37-.1.36 20.82.36-22.83.36 25.65.36-24.28.37 23.95.36-22.59.36 17.1.36-17.15.37-3.6.36 26.8.36-26.46.36 15.4.36-11.9.37-2.23.36 26.07.36-23.07.36 21.55.36-20.54.37 21.86.36-28.09.36 4.35.36 23.46.36-23.83.37 20.14.36-20.56.36 23.3.36-25.05.37 24.13.36-35.43.36 12.54.36 25.01.36-23.65.37 17.69.36-18.55.36.29.36 23.69.36-25.99.37 25.05.36-21.82.36 21.99.36-22.01.36 23.13.37-27.8.36-10.56.36 23.5.36-25.11.36 20.09.37-21.09.36 1.77.36 33.87.36-18.33.37 24.22.36-22.85.36 22.67.36-22.99.36-3.22.37 27.01.36-23.21.36 22 .36-27.31.36 27.42.37-24.7.36 24.94.36-37.11.36 13.21.36 22.92.37-20.24.36-.79.36 22.53.36-23.62.37 23.9.36-22.49.36 14.3.36-17.37.36 23.36.37-25.21.36 1.53.36 24.05.36-23.97.36 25.25.37-32.21.36 27.96.36-18.92.36.38.36 23.24.37-29.97.36 30.01.36-22.29.36 20.76.36-20.62.37 1.45.36 22.19.36-22.76.36 22.39.37-22.92.36 9.38.36-24.09.36 20.9.36-18.84.37 8.43.36 23.13.36-23.46.36 1.25.36 22.78.37-24.28.36 23.49.36-21.95.36 23.24.36-24.32.37 23.97.36-22.17.36-5.97.36 29.41.37-27.99.36 27.3.36-28.95.36 19.44.36-13.59.37-1.37.36 25.88.36-22.69.36 21.48.36-20.92.37.21.36 16.66.36-18.75.36 22.72.36-28.19.37 27.11.36-23.66.36 24.08.36-29.38.37 27.55.36-22.33.36-2.43.36 27.63.36-24.03.37-5.21.36 27.74.36-23.11.36 21.66.36-21.13.37 22.25.36-21.48.36 19.57.36-19.52.36.4.37 15.69.36-30.76.36 23.21.36-25.33.36 16.38.37-21.5.36 1.49.36 36.09.36-20.38.37 23.92.36-22.92.36-.91.36 23.79.36-22.67.37 21.57.36-22.61.36 19.09.36-20.87.36 23.87.37-21.53.36-.44.36 22.53.36-22.51.36 17.62.37-15.31.36-1.81.36 21.53.36-22.4.37 23.82.36-25.52.36 17.44.36-17.63.36 24 .37-26.18.36.49.36 26.03.36-23.41.36 24.13.37-34.45.36 18.7.36-6.9.36.53.36 22.96.37-28.49.36 27.4.36-22.93.36.24.36 24.16.37-22.23.36 18.53.36-19.49.36 21.88.37-22.48.36 22.71.36-23.5.36-1.19.36 14.02.37-14.65.36 1.26.36 22.85.36-22.95.36 22.74.37-26.47.36 21.46.36-18.77.36 24.61.36-22.41.37-.25.36 23.48.36-26.95.36 26.35.37-23.37.36 18.09.36-34.22.36 34.29.36-18.49.37 1.43.36 22.64.36-22.38.36 22.21.36-23.47.37 1.12.36 10.62.36-11.92.36 22.52.36-23.05.37 21.01.36-20.52.36 23.81.36-28.5.36 3.35.37 24.13.36-23.37.36.78.36 23.32.37-23.69.36 23.86.36-23.57.36 23.11.36-22.85.37 23.16.36-22.98.36-14.95.36 22.24.36-21.53.37 21.98.36-21.71.36 21.62.36-23.97.36 37.62.37-23.87.36 1.25.36 23.38.36-23.82.37 23.99.36-26.4.36 3.18.36 23.94.36-22.34.37 22.36.36-22.3.36 18.9.36-18.41.36 18.94.37-17.22.36-2.2.36 22.37.36-22.57.36-2.22.37 27.06.36-24.45.36 23.56.36-24.07.37 24.18.36-31.43.36 25.85.36-19.57.36.31.37 17.5.36-17.92.36 23.42.36-22.86.36 23.69.37-37.55.36 24.92.36-10.09.36.59.36 22.96.37-28.43.36 4.02.36 23.84.36-23.6.36 24.69.37-22.08.36 18.41.36-18.6.36 21.27.37-21.63.36-.33.36 24.71.36-28.7.36 17.96.37-16.15.36.56.36 23.12"/><use xlink:href="#05b73__d" color="#29C3F6" transform="matrix(3.75 0 0 3.75 67.83 74.8)"/><use xlink:href="#05b73__d" color="#29C3F6" transform="matrix(3.75 0 0 3.75 95.45 22.51)"/></g><text stroke-linecap="round" stroke-linejoin="round" color="#000" font-family="KaTeX_Main" font-size="8" transform="translate(241.1 10.11)"><tspan>AVLWeakBottomUp</tspan></text><g fill="none" stroke="currentColor" stroke-linecap="round" stroke-linejoin="round" color="#000"><path stroke="#00C853" d="M205.6 7.51h29.9M28 127.74l.36-.67.36 24.66.37-27.24.36-1.6.36 25.1.36-24.38.36 24.03.37-24.66.36 24.9.36-26.23.36 25.67.37-24.29.36-.57.36 24.33.36-24.86.36 24.65.37-25.25.36 25.14.36-24.94.36 23.53.36-23.83.37.08.36 24.5.36-25.22.36 25.72.36-24.44.37-.56.36 25.14.36-24.56.36 24.73.36-24.9.37 24.54.36-24.18.36 24.86.36-24.5.37.53.36 24.33.36-24.55.36.33.36 23.56.37-24.03.36 24.04.36-24.19.36 23.57.36-24.24.37 24.68.36-25.55.36 1.05.36 24.35.36-24.08.37 23.35.36-24.37.36 24.91.36-25.38.37 23.97.36-30.36.36.13.36 24.84.36-23.49.37-.07.36 24.88.36-24.51.36 24.67.36-24.27.37 24.82.36-24.44.36 25.02.36-24.88.36.07.37 24.53.36-24.49.36 24.86.36-24.76.37-.64.36 25.53.36-24.64.36 24.11.36-24.61.37 24.51.36-23.92.36 23.48.36-24.79.36.4.37 24.74.36-25.25.36 24.61.36-25.31.36 25.39.37-24.71.36 25 .36-24.63.36-.69.36 24.54.37-24.05.36.68.36 23.48.36-24.13.37 25.47.36-24.99.36 24.77.36-25.14.36 24.94.37-24.33.36-.1.36 24.22.36-24.21.36 24.16.37-24.49.36.31.36 23.85.36-24.5.36 24.8.37-24.75.36 24.55.36-25.82.36 25.74.37-25.13.36.47.36 24.33.36-24.29.36 24.14.37-25.32.36 25.06.36-24.59.36 24.59.36-24.35.37.7.36 23.32.36-23.78.36-.01.36 24.45.37-24.5.36 24.5.36-24.33.36 23.58.36-23.32.37 23.54.36-23.16.36-.7.36 24.77.37-23.65.36 24.46.36-23.62.36-.35.36 24.06.37-24.16.36 23.64.36-24.31.36 24.29.36-24.07.37.08.36 23.8.36-24 .36 24.4.36-24.31.37 23.82.36-24.05.36 23.45.36-23.43.37-2.34.36 18.41.36-23.73.36 23.81.36-23.52.37-.02.36 24.66.36-24.25.36 24.66.36-23.76.37 23.99.36-23.56.36 23.55.36-23.64.36-.4.37 24.02.36-23.27.36 23.95.36-23.69.36.05.37 23.56.36-23.66.36 23.4.36-24.39.37 24.15.36-23.98.36.03.36 22.48.36-23.55.37 24.13.36-24.13.36 24.01.36-24.21.36 24.09.37-23.59.36-.3.36 23.9.36-23.22.36-.16.37 24.77.36-23.45.36 23.58.36-23.69.37 23.81.36-23.28.36 23.71.36-23.73.36-.61.37 24.37.36-24.09.36 23.71.36-23.44.36 23.92.37-23.75.36-.23.36 23.54.36-23.95.36 24.52.37-24.11.36 23.84.36-24.05.36.06.37 23.33.36-23.47.36 23.54.36-23.69.36 23.77.37-23.84.36 23.6.36-23.9.36.25.36 23.48.37-23.51.36-.25.36 24.22.36-24.01.36 24.22.37-23.74.36 23.62.36-23.81.36 24.1.36-24.14.37.33.36 23.48.36-23.63.36 23.86.37-23.55.36 23.66.36-23.99.36.03.36 24.11.37-23.94.36 23.81.36-24.26.36 23.93.36-23.93.37-.41.36 24.08.36-23.91.36 24.05.36-24.1.37 24.04.36-23.88.36 23.51.36-24.01.37-.28.36 23.4.36-24.64.36.43.36 24.85.37-23.94.36 23.89.36-23.22.36 23.1.36-23.17.37 24.66.36-23.73.36-.08.36 23.85.36-23.92.37 23.94.36-23.92.36 24.07.36-23.62.36-.46.37 24.34.36-24.09.36 23.75.36-23.62.37-.25.36 23.97.36-23.96.36 23.13.36-24.02.37 23.91.36-23.33.36 23.51.36-24.21.36.35.37 23.6.36-23.7.36 24.19.36-23.88.36-.12.37 23.74.36-23.9.36 23.87.36-24.1.37 24.6.36-23.74.36 23.49.36-23.56.36.36.37 23.87.36-24.01.36 23.25.36-23.51.36 24 .37-24.16.36.82.36 23.68.36-23.58.36 23.66.37-23.7.36-.25.36 23.17.36-23.44.36 23.53.37-23.83.36 23.79.36-24.06.36 23.95.37-24.13.36.78.36 23.15.36-23.68.36-.29.37 24.3.36-23.89.36 23.67.36-23.17.36 23.82.37-24.23.36 23.83.36-23.72.36-.3.36 23.63.37-23.34.36 23.74.36-23.88.36 23.94.37-23.49.36 24.01.36-24.25.36.32.36 23.77.37-24.24.36 24.23.36-24.13.36-.28.36 24.44.37-23.97.36 23.96.36-23.91.36 23.72.36-23.71.37 23.24.36-23.61.36.04.36 23.63.37-28.43.36-3.08.36 24.33.36-24.04.36 23.4.37-23.35.36 24.2.36-24.02.36 24.04.36-23.3.37-.03.36 23.87.36-23.79.36 24.06.36-23.81.37 23.58.36-23.72.36 23.85.36-23.65.36-.38.37 24.35.36-24.3.36 23.71.36-23.87.37.36.36 23.75.36-23.98.36 23.11.36-24.02.37 23.97.36-24.15.36 23.47.36-23.74.36.11.37 23.69.36-24.06.36.14.36 23.85.36-23.9.37 23.99.36-24.95.36 24.25.36-23.78.37 24.44.36-24.25.36.92.36 23.71.36-22.57.37 22.98.36-23.93.36 23.95.36-23.25.36 24.21.37-24.72.36.18.36 23.87.36-24.04.36.2.37 23.51.36-23.57.36 23.95.36-24.33.36 23.97.37-23.59.36 23.36.36-23.5.36.3.37 23.18.36-23.48.36 23.43.36-23.95.36.38.37 24 .36-24.01.36 24.33.36-23.95.36 23.89.37-23.59.36 24.01.36-23.77.36-.36.36 24.56.37-23.76.36 23.42.36-23.54.36 24.37.37-23.67.36 23.2.36-23.94.36-.2.36 23.83.37-23.91.36-.19.36 23.45.36-23.99.36 23.89.37-23.73.36 23.5.36-24.05.36 24.07.36-23.36.37-.54.36 23.74.36-23.67.36 23.7.37-24.38.36-.37.36 24.68.36-23.69.36 23.26.37-23.45.36 24.19.36-23.92.36 24.16.36-24 .37.22.36 24.19.36-23.96.36 24.2.36-23.36.37 23.76.36-23.42.36 23.83.36-24.02.36.37.37 23.48.36-24.33.36-.17.36 24.06.37-23.83.36 23.97.36-24.26.36 23.25.36-23.88.37 23.7.36-23.7.36-.64.36 24.2.36-23.54.37 23.45.36-24.1.36.17.36 23.97.36-23.6.37 23.37.36-24.27.36 23.8.36-24.97.37 1.95.36 23.91.36-24.18.36 24.04.36-23.91.37 23.73.36-23.41.36 23.85.36-23.54.36.7.37 24.13.36-24.51.36 23.87.36-24.1.36.2.37 23.95.36-23.8.36 23.12.36-24.35.36 24.5.37-23.88.36 24.16.36-24.13.36-.2.37 23.61.36-24.08.36 23.89.36-23.72.36-.14.37 23.49.36-23.17.36 23.84.36-23.69.36 23.79.37-23.4.36.04.36 23.25.36-23.67.36 24.01.37-23.91.36 24.05.36-23.65.36 23.97.37-23.25.36.11.36 23.44.36-23.85.36-.18.37 23.57.36-23.61.36 23.12.36-23.45.36 23.64.37-23.67.36 23.62.36-23.06.36-.12.36 23.15.37-23.38.36 23.33.36-23.35.36 23.11.36-23.76.37.21.36 22.51.36-22.54.36 23.74.37-23.49.36 23.61.36-22.67.36-.37.36 23.26.37-23 .36 23.19.36-22.78.36 23.31.36-23.15.37 23.53.36-23.05.36.23.36 23.37.36-23.49.37-.28.36 23.26.36-23.31.36 23.05.37-22.99.36 23.24.36-23.47.36 22.71.36-23.35.37-.24.36 23.32.36-23 .36 22.52.36-22.49.37 22.62.36-23.13.36-.23.36 22.85.36-22.49.37 23.16.36-23.45.36 23.28.36-22.57.37-.4.36 23.2.36-22.77.36 23.02.36-22.95.37 23.31.36-23.06.36 22.97.36-22.82.36-.31.37 23.55.36-23.03.36-.85.36 23.11.36-23.26.37 22.96.36-22.99.36 23.01.36-23.52.36 23.46.37-23.34.36.08.36 22.55.36-23.21.37 23.17.36-23.1.36 22.65.36-23.01.36.28.37 23.38.36-26.29.36 26.14.36-23.35.36.3.37 23.28.36-22.97.36 23.18.36-23.21.36 23.03.37-22.86.36 23.08.36-22.96.36-.06.37 23.15.36-23.36.36 23.45.36-23.12.36-.39.37 23.46.36-23.37.36 22.79.36-23.33.36 22.94.37-23.15.36 22.91.36-23.36.36.08.36 22.55.37-22.71.36 22.91.36-23.03.36 23.33.36-24.06.37.26.36 23.11.36-23.35.36 23.43.37-22.39.36.47.36 23.24.36-23.61.36 23.66.37-23.12.36 23.05.36-22.78.36 24.08.36-23.16.37.02.36 23.37.36-23.44.36.16.36 23.42.37-23.53.36 23.34.36-23.6.36 23.37.37-23.17.36 23.16.36-24.09.36 22 .36-22.36.37-.23.36 22.67.36-23.31.36 23.23.36-23.26.37 23.33.36-22.74.36-.07.36 22.98.36-22.97.37 23.22.36-22.57.36-.48.36 23.29.36-23.15.37 23.33.36-23.46.36 22.93.36-22.55.37 23.22.36-22.66.36.1.36 23.28.36-23.03.37.01.36 22.77.36-23.31.36 22.65.36-22.65.37 22.85.36-23.55.36 23.01.36-23.25.36.27.37 22.64.36-23.09.36 23.44.36-23.09.37 23.28.36-23.33.36 23.33.36-23.34.36-.04.37 23.65.36-23.4.36 23.25.36-23.11.36.05.37 23.06.36-23.21.36 22.73.36-23.32.36 23.41.37-23.33.36 23.3.36-22.63.36.28.37 23.28.36-22.98.36-.09.36 22.97.36-22.93.37 23.11.36-23.05.36 23.27.36-23.44.36 23.05.37-22.9.36-.26.36 23.26.36-23.22.36 23.06.37-22.95.36 22.89.36-23.29.36 22.15.36-30.64.37.25.36 23.35.36-23.19.36.06.37 23.57.36-22.77.36 23.26.36-22.9.36 23.4.37-23.21.36 23.14.36-22.85.36-.63.36 23.67.37-23.13.36 23.61.36-22.82.36.04.36 23.19.37-23.38.36 23.6.36-23.64.36 23.28.37-22.56.36 23.01.36-23.75.36-.47.36 23.52.37-23.6.36 22.72.36-22.92.36 22.78.36-22.86.37 22.77.36-22.3.36-.35.36 23.07.36-23.16.37.56.36 23.34.36-22.97.36 23.43.36-23.59.37 23.4.36-23.63.36 22.93.36-22.68.37-.26.36 23.69.36-23.41.36 23.58.36-23.5.37-.23.36 23.12.36-23.37.36 22.91.36-22.89.37 23.22.36-23.42.36 23.23.36-23.15.36.18.37 22.71.36-22.9.36 22.36.36-23.55.37 22.84.36-22.73.36 23.14.36-23.17.36.26.37 22.39.36-22.98.36-.34.36 23.64.36-23.1.37 23.79.36-23.2.36 22.38.36-22.83.36 22.94.37-22.88.36-.16.36 23.66.36-22.82.36 23.02.37-22.9.36.01.36 23.2.36-23.19.37 23.08.36-23.85.36 23.15.36-22.7.36-.85.37 23.5.36-23.14.36 23.05.36-23.15.36 23.1.37-22.99.36 22.81.36-22.35.36-.3.36 23.27.37-23.56.36 23.36.36-22.79.36.08.37 23.15.36-22.77.36 23.57.36-23.15.36 23.65.37-23.16.36 22.98.36-22.92.36-.43.36 23.24.37-23.02.36 23.74.36-22.92.36.27.36 22.97.37-23.35.36 23.11.36-22.93.36 22.96.37-22.78.36-.11.36 21.45.36-22.76.36 23.09.37-23.38.36 23.36.36-23.49.36 22.93.36-23.56.37-.18.36 23.74.36-23.64.36-.13.36 24.11.37-23.13.36 23.5.36-23.13.36 23.18.36-23.23.37 23.13.36-23.05.36.22.36 23.09.37-22.6.36 22.96.36-22.92.36 23.33.36-23.86.37.1.36 22.52.36-23"/><use xlink:href="#05b73__a" color="#00C853" transform="matrix(3.75 0 0 3.75 125.4 134.61)"/><use xlink:href="#05b73__a" color="#00C853" transform="matrix(3.75 0 0 3.75 220.55 7.51)"/></g><text stroke-linecap="round" stroke-linejoin="round" color="#000" font-family="KaTeX_Main" font-size="8" transform="translate(241.1 25.11)"><tspan>AVLWeakTopDown</tspan></text><g fill="none" stroke="currentColor" stroke-linecap="round" stroke-linejoin="round" color="#000"><path stroke="#FFAB00" stroke-dasharray="4.5,2.0,0.5,2.0,0.5,2.0" d="M205.6 22.51h29.9M28 118.78l.36 25.3.36-27.41.37 13.73.36-18.34.36-.51.36 24.26.36-24.04.37 35.89.36-30.53.36-8.54.36 28.53.37-8.75.36 18.71.36-22.18.36 19.03.36-28.78.37 25.14.36-24.54.36 1.1.36 21.42.36-2.97.37-3.88.36 12.04.36-18.11.36 30.08.36-31.65.37 27.02.36-31.15.36 16.01.36-23.28.36 25.31.37-21.54.36-7.09.36 41.17.36-29.23.37 13.19.36-22.29.36 37.19.36-28.35.36 4.92.37 18.23.36-31.08.36 23.94.36-22.04.36 5.23.37 14.66.36-9.81.36 21.67.36-33.61.36 29.72.37-23.33.36 23.37.36-24.74.36-3.18.37 18.44.36-29.15.36 6.8.36 30.72.36-33.98.37 36.52.36-28.16.36 11.68.36-19.81.36 29.5.37-20.58.36-.33.36 24.11.36-28.99.36 13.81.37-25.87.36 34.09.36-33.03.36 40.36.37-20.72.36-9.76.36 26.05.36-24.29.36 27.74.37-25.59.36-2.16.36 22.56.36-34.86.36 29.14.37-18.47.36 18.31.36-14.99.36 27.28.36-33.13.37-.13.36 27.46.36-4.03.36-8.37.36 27.67.37-30.05.36 11.53.36-19.16.36 30.15.37-32.83.36 36.59.36-24.59.36-12.2.36 25.8.37-21.81.36 29.07.36-35.06.36 26.62.36-28.36.37 16.3.36-20.09.36 3.83.36 22.93.36-19.53.37 2.18.36 20.38.36-31.16.36 29.85.37-3.8.36 11.95.36-22.94.36 25.46.36-34.34.37 25.68.36-25.22.36.95.36 27.21.36-9.31.37-6.71.36 16.85.36-17.09.36 29.92.36-35.61.37 24.8.36-26.4.36 11.9.36-18.13.36.93.37 25.88.36-25.04.36 30.08.36-23.3.37 10.58.36-16.65.36 35.55.36-30.26.36 4.09.37 18.96.36-32.27.36 4.36.36 26.62.36-22.69.37 18.83.36-12.97.36 19.69.36-34.36.36 30.97.37-20.13.36-8.91.36 30.31.36-29.57.37 16.29.36-24.5.36 5.8.36 31.42.36-33.26.37 35.99.36-26.43.36 14.4.36-22.55.36 31.72.37-22.44.36-.56.36 22.6.36-30.19.36 19.55.37-26.55.36 36.93.36-38.09.36 44.16.36-24.77.37-9.83.36 25.28.36-22.83.36 2.58.37 18.8.36-23.21.36 19.43.36-31.32.36 25.1.37-16.91.36 15.9.36-14.93.36 2.68.36 17.8.37-22.08.36 27.36.36-9.69.36-3.45.36 24.43.37-26.4.36 11.21.36-18.23.36 27.95.37-32.07.36 9.74.36 25.4.36-31.63.36 22.44.37-20.08.36 23.85.36-30.83.36 28.73.36-26.81.37 13.4.36-20.65.36 4.74.36 17.04.36-13.91.37-.23.36 20.28.36-28.57.36 27.26.37-7.83.36 14.08.36-19.29.36 21.89.36-33.16.37 4.08.36 25.74.36-24.45.36 25.55.36-2.97.37-11.34.36 22.89.36-24.35.36 31.52.36-32.51.37 24.95.36-25.37.36-14.52.36 34.12.36-22.93.37 21.67.36-22.92.36 30.14.36-27.94.37 15.93.36-19.45.36 15.49.36 14.08.36-21.6.37-3.38.36 12.02.36-13.19.36 22.17.36-25.51.37 26.62.36-17.18.36 19.72.36-35.29.36 32.92.37-19.7.36-8.74.36 30.19.36-34.06.37 19.18.36-21.4.36 5.12.36 26.41.36-30.67.37 37.18.36-29.2.36 16.44.36-21.05.36 10.15.37 18.37.36-20.51.36 21.04.36-31.41.36 24.07.37-27.04.36 31.5.36-31.75.36 20 .36 20.8.37-34.86.36-.21.36 29.71.36-27.44.37 25.08.36-26.16.36 16.14.36-24.15.36 22.25.37-16.73.36-9.64.36 37.77.36-23.84.36 14.13.37-19.73.36 30.1.36-13.46.36-.25.36 21.31.37-29.64.36 16.17.36-16.09.36 26.78.37-32.08.36 10.31.36 24.71.36-40.15.36 34.24.37-24.41.36 20.99.36-21.35.36 18.51.36-25.65.37-15.51.36 36.3.36-19.12.36-1.96.36 30.24.37-21.99.36 17.73.36-24.14.36 27.8.36-15.14.37 17.62.36-19.81.36-.78.36 13.85.37-24.02.36 32.02.36-30.89.36 35.82.36-22.62.37-6.95.36 25.93.36-22.65.36 25.2.36-33.07.37 3.36.36 18.11.36-36.03.36 34.77.36-20.48.37 20.62.36-18.19.36 25.88.36-31.42.37 21.98.36-22.92.36 11.9.36 14.32.36-21.52.37-1.32.36 13.22.36-16.31.36 27.41.36-26.68.37 26.76.36-22.09.36 21.54.36-33.98.36 11.11.37 25.22.36-35.35.36 31.09.36-29.01.37 15.03.36-23.73.36 11.51.36 24.14.36-25.45.37 31.09.36-26.38.36-8.82.36 27.77.36-13.89.37 18.39.36-19.47.36 19.99.36-30.89.36 26.39.37-22.99.36.88.36 19.74.36-11.97.36-.35.37 12.88.36-22.57.36 34.09.36-30.44.37 27.06.36-28.73.36 19.78.36-23.23.36 22.51.37-21.11.36-8.15.36 41.12.36-27.47.36 17.3.37-21.61.36 34.33.36-22.06.36 2.4.36 19.05.37-30.12.36 20.52.36-26.36.36 7.83.37 11.72.36-6.2.36 20.27.36-32.5.36 26.16.37-23.99.36 23.47.36-24.33.36-.42.36 18.83.37-29.35.36 2.84.36 28.31.36-30.02.36 33.78.37-26.92.36 19.14.36-26.01.36 31.53.36-17.43.37.22.36 23 .36-28.25.36 16 .37-19.1.36 30.75.36-34.28.36 38.9.36-12.9.37-8.38.36 22.1.36-21.09.36 27.63.36-29.78.37-4.1.36 24.54.36-35.58.36 27.74.36-16.97.37 15.05.36-14.02.36 20.75.36-28.52.37-2.39.36 29.09.36-11.95.36-8.32.36 30.61.37-29.22.36 16.18.36-21.45.36 27.01.36-29.52.37 34.37.36-24.62.36-4.88.36 22.45.36-23.98.37 31.02.36-30.93.36 27.03.36-27.51.37 13.11.36-20.19.36 1.28.36 25.45.36-21.9.37 2.92.36 16.61.36-26.92.36 26.75.36-10.81.37 17.99.36-23.44.36 21.24.36-32.81.36 25.7.37-25.51.36 4.84.36 25.31.36-12.47.36-5.66.37 19.26.36-21.39.36 32.15.36-33.23.37 25.65.36-25.15.36 15.6.36-19.69.36-.39.37 23.98.36-25.11.36 32.04.36-25.96.36 17.61.37-36.19.36 58.54.36-25.55.36 5.29.36 13.95.37-32.59.36 5.01.36 26.07.36-21.3.37 18.03.36-13.8.36 20.42.36-34.13.36 30.33.37-20.42.36-9.94.36 31.26.36-30.5.36 16.88.37-26.17.36 6.7.36 30.75.36-31.95.36 34.8.37-25.5.36 16.02.36-22.75.36 33.46.36-20.45.37-.81.36 23.53.36-32.12.36 21.81.37-25.02.36 36.39.36-36.56.36 40.17.36-20.76.37-14.77.36 29.89.36-23.47.36-3.86.36 27.65.37-29.02.36 18.84.36-35.47.36 33.61.36-16.13.37 17.59.36-18.45.36 1.83.36 15.88.37-21.28.36 27.55.36-21.91.36 1.39.36 18.75.37-24.07.36 9.39.36-12.36.36 28.18.36-29.59.37 8.88.36 19.43.36-31.2.36 25.59.36-16.3.37 21 .36-33.89.36 27.06.36-20.79.36 5.49.37-14.01.36 10.4.36 19.25.36-14.71.37-.99.36 18.52.36-25.03.36 22.74.36-10.12.37 15.71.36-19.2.36 19.71.36-31.81.36 3.02.37 24.81.36-23.85.36 29.35.36-19.76.36-8 .37 21.83.36-23.9.36 31.29.36-30.3.37 24.2.36-20.99.36-8.66.36 26.85.36-24.87.37 21.62.36-22.52.36 32.7.36-27.99.36 16.41.37-18.44.36 18.22.36 15.25.36-19.88.36-5.21.37 14.55.36-22.21.36 24.63.36-23.67.37 21.08.36-12.88.36 20.24.36-34.01.36 26.81.37-17.45.36-6.55.36 25.25.36-26.44.36 17.37.37-21.41.36-.15.36 24.03.36-29.08.36 34.49.37-23.14.36 10.28.36-17.18.36 12.88.36 21.26.37-21.99.36 21.51.36-29.51.36 22.23.37-23.86.36 28.32.36-36.29.36 31.64.36 21.23.37-34.34.36 5.79.36 23.89.36-27.66.36 28.54.37-28.74.36 14.36.36-26.84.36 31.03.36-16.51.37-8.95.36 31.07.36-21.27.36 15.57.37-20.6.36 26.79.36-22.59.36-.49.36 21.33.37-27.3.36 13.36.36-11.63.36 29.62.36-31.13.37 7.57.36 21.63.36-34.86.36 33.73.36-21.95.37 17.34.36-25.96.36 21.15.36-22.58.36-21.58.37 39.47.36-15.18.36-4.99.36 29.37.37-21.16.36 16.85.36-23.99.36 28.48.36-16.69.37 19.42.36-23.3.36-.45.36 14.46.36-21.08.37 29.23.36-29.11.36 33.29.36-23.85.36-4.48.37 22.43.36-24.66.36 31.39.36-30.46.37 2.02.36 21.39.36-31.28.36 26.09.36-20.84.37 18.83.36-14.44.36 24.15.36-29.28.36 21.3.37-22.2.36 20.42.36 10.42.36-19.06.36-2.12.37 9.38.36-15.64.36 28.04.36-24.73.36 23 .37-20.47.36 17.73.36-33.02.36 12.14.37 25.5.36-35.54.36 29.78.36-28.5.36 14.06.37-24.7.36 8.79.36 28.06.36-21.45.36 28.51.37-26.7.36-5.55.36 26.76.36-12.62.36 19.08.37-20.85.36 21.09.36-30.85.36 25.19.37-21.86.36.8.36 20.68.36-13.1.36 1.79.37 5.37.36-9.27.36 26.26.36-37.85.36 31.19.37-33.53.36 20.2.36-31.68.36 37.8.36-19.67.37-4.41.36 33.46.36-27.32.36 15.13.37-22.47.36 27.87.36-28.12.36 8.26.36 16.82.37-25.68.36 12.99.36-9.53.36 7.39.36 15.35.37-16.66.36 21.59.36-38.02.36 29.76.36-17.4.37 19.93.36-30.12.36 1.92.36 22.3.36-40.73.37 2.49.36 42.11.36-30.07.36 36.98.37-21.93.36 13 .36-20.22.36 25.19.36-19.25.37.44.36 22.03.36-27.03.36 18.02.36-19.98.37 27.45.36-29.13.36 28.87.36-17.51.36-6.64.37 24.18.36-20.32.36 24.05.36-25.87.37-1.77.36 21.55.36-29.66.36 28.09.36-19.11.37 16.27.36-14.7.36 23.31.36-28.8.36-1.59.37 26.31.36-11.26.36-5 .36 25.48.36-24.03.37 14.13.36-26.95.36 30.94.36-28.7.36 34.44.37-23.49.36-8.09.36 23.37.36-22.83.37 29.38.36-31.27.36 27 .36-27.73.36 16.02.37-18.12.36.73.36 24.06.36-20.4.36-.7.37 23.08.36-35.98.36 32.93.36-8.26.36 15.05.37-19.66.36 20.93.36-33.19.36 25.33.37-22.05.36 1.47.36 24.55.36-5.37.36-2.54.37 11.33.36-17.78.36 29.53.36-33.68.36 25.65.37-26.92.36 15.3.36-21.97.36.57.36 23.45.37-24.31.36 29.91.36-23.19.36 8.46.36-16.41.37 36.62.36-28.77.36 2.97.36 22.22.37-31.9.36-.24.36 24.73.36-19.82.36 18.89.37-10.01.36 19.35.36-32.67.36 27.38.36-18.8.37-6.6.36 29.05.36-30.86.36 18.17.36-22.81.37-1.15.36 30.87.36-34.23.36 36.07.37-23.73.36 14.32.36-21.12.36 30.72.36-21.98.37-2.48.36 22.77.36-27.71.36 18.76.36-32.31.37 39.06.36-30.75.36 36.85.36-23.84.36-5.82.37 23.93.36-18.84.36-1.03.36 23.62.37-24.16.36 17.64.36-27.64.36 27.78.36-20.03.37 16.57.36-14.39.36 1.82.36 18.11.36-29.51.37 24.28.36 1.69.36-2.49.36 21.51.36-26.76.37 10.86.36-16.6.36 26.62.36-26.57.36 6.84.37 22.38.36-28.69.36 24.58.36-24.87.37 27.65.36-31.21.36 24.98.36-26.26.36 16.35.37-20 .36 3.69.36 19.24"/><use xlink:href="#05b73__b" color="#FFAB00" transform="matrix(3.75 0 0 3.75 182.98 97.24)"/><use xlink:href="#05b73__b" color="#FFAB00" transform="matrix(3.75 0 0 3.75 220.55 22.51)"/></g><path fill="none" d="M28 45.01V162.5M371.99 45.01H28" color="#000"/></svg>