<svg xmlns="http://www.w3.org/2000/svg" xmlns:xlink="http://www.w3.org/1999/xlink" viewBox="0 0 400 200"><path fill="none" d="M0 0h400v200H0z"/><defs><use xlink:href="#06c57__a" id="06c57__b" fill="currentColor" stroke="none"/><use xlink:href="#06c57__a" id="06c57__c" stroke="currentColor" transform="rotate(180)"/><path id="06c57__a" stroke="currentColor" stroke-width=".267" d="m0-1.33-1.33 2h2.66z"/></defs><path fill="none" stroke="#CCC" stroke-linecap="round" stroke-linejoin="round" stroke-width=".1" d="M46.1 162.5V45.01" class="06c57__gridline" color="#000"/><g fill="none" stroke-linecap="round" stroke-linejoin="round" stroke-width="0" color="#000"><path d="M46.1 162.5V155m0-109.99v7.5"/><text fill="#000" font-family="KaTeX_Main" font-size="8" text-anchor="middle" transform="translate(46.1 172.6)"><tspan> 1</tspan></text></g><path fill="none" stroke="#CCC" stroke-linecap="round" stroke-linejoin="round" stroke-width=".1" d="M82.31 162.5V45.01" class="06c57__gridline" color="#000"/><g fill="none" stroke-linecap="round" stroke-linejoin="round" stroke-width="0" color="#000"><path d="M82.31 162.5V155m0-109.99v7.5"/><text fill="#000" font-family="KaTeX_Main" font-size="8" text-anchor="middle" transform="translate(82.31 172.6)"><tspan> 2</tspan></text></g><path fill="none" stroke="#CCC" stroke-linecap="round" stroke-linejoin="round" stroke-width=".1" d="M118.52 162.5V45.01" class="06c57__gridline" color="#000"/><g fill="none" stroke-linecap="round" stroke-linejoin="round" stroke-width="0" color="#000"><path d="M118.52 162.5V155m0-109.99v7.5"/><text fill="#000" font-family="KaTeX_Main" font-size="8" text-anchor="middle" transform="translate(118.52 172.6)"><tspan> 3</tspan></text></g><path fill="none" stroke="#CCC" stroke-linecap="round" stroke-linejoin="round" stroke-width=".1" d="M154.73 162.5V45.01" class="06c57__gridline" color="#000"/><g fill="none" stroke-linecap="round" stroke-linejoin="round" stroke-width="0" color="#000"><path d="M154.73 162.5V155m0-109.99v7.5"/><text fill="#000" font-family="KaTeX_Main" font-size="8" text-anchor="middle" transform="translate(154.73 172.6)"><tspan> 4</tspan></text></g><path fill="none" stroke="#CCC" stroke-linecap="round" stroke-linejoin="round" stroke-width=".1" d="M190.94 162.5V45.01" class="06c57__gridline" color="#000"/><g fill="none" stroke-linecap="round" stroke-linejoin="round" stroke-width="0" color="#000"><path d="M190.94 162.5V155m0-109.99v7.5"/><text fill="#000" font-family="KaTeX_Main" font-size="8" text-anchor="middle" transform="translate(190.94 172.6)"><tspan> 5</tspan></text></g><path fill="none" stroke="#CCC" stroke-linecap="round" stroke-linejoin="round" stroke-width=".1" d="M227.15 162.5V45.01" class="06c57__gridline" color="#000"/><g fill="none" stroke-linecap="round" stroke-linejoin="round" stroke-width="0" color="#000"><path d="M227.15 162.5V155m0-109.99v7.5"/><text fill="#000" font-family="KaTeX_Main" font-size="8" text-anchor="middle" transform="translate(227.15 172.6)"><tspan> 6</tspan></text></g><path fill="none" stroke="#CCC" stroke-linecap="round" stroke-linejoin="round" stroke-width=".1" d="M263.36 162.5V45.01" class="06c57__gridline" color="#000"/><g fill="none" stroke-linecap="round" stroke-linejoin="round" stroke-width="0" color="#000"><path d="M263.36 162.5V155m0-109.99v7.5"/><text fill="#000" font-family="KaTeX_Main" font-size="8" text-anchor="middle" transform="translate(263.36 172.6)"><tspan> 7</tspan></text></g><path fill="none" stroke="#CCC" stroke-linecap="round" stroke-linejoin="round" stroke-width=".1" d="M299.57 162.5V45.01" class="06c57__gridline" color="#000"/><g fill="none" stroke-linecap="round" stroke-linejoin="round" stroke-width="0" color="#000"><path d="M299.57 162.5V155m0-109.99v7.5"/><text fill="#000" font-family="KaTeX_Main" font-size="8" text-anchor="middle" transform="translate(299.57 172.6)"><tspan> 8</tspan></text></g><path fill="none" stroke="#CCC" stroke-linecap="round" stroke-linejoin="round" stroke-width=".1" d="M335.78 162.5V45.01" class="06c57__gridline" color="#000"/><g fill="none" stroke-linecap="round" stroke-linejoin="round" stroke-width="0" color="#000"><path d="M335.78 162.5V155m0-109.99v7.5"/><text fill="#000" font-family="KaTeX_Main" font-size="8" text-anchor="middle" transform="translate(335.78 172.6)"><tspan> 9</tspan></text></g><path fill="none" stroke="#CCC" stroke-linecap="round" stroke-linejoin="round" stroke-width=".1" d="M371.99 162.5V45.01" class="06c57__gridline" color="#000"/><g fill="none" stroke-linecap="round" stroke-linejoin="round" stroke-width="0" color="#000"><path d="M371.99 162.5V155m0-109.99v7.5"/><text fill="#000" font-family="KaTeX_Main" font-size="8" text-anchor="middle" transform="translate(371.99 172.6)"><tspan> 10</tspan></text></g><g fill="none" stroke-linecap="round" stroke-linejoin="round" stroke-width="0" color="#000"><path d="M371.99 162.5h-7.5"/><text fill="#000" font-family="KaTeX_Main" font-size="8" transform="translate(378.99 165.1)"><tspan>0.900</tspan></text></g><g fill="none" stroke-linecap="round" stroke-linejoin="round" stroke-width="0" color="#000"><path d="M371.99 145.72h-7.5"/><text fill="#000" font-family="KaTeX_Main" font-size="8" transform="translate(378.99 148.32)"><tspan>0.950</tspan></text></g><g fill="none" stroke-linecap="round" stroke-linejoin="round" stroke-width="0" color="#000"><path d="M371.99 128.93h-7.5"/><text fill="#000" font-family="KaTeX_Main" font-size="8" transform="translate(378.99 131.53)"><tspan>1.000</tspan></text></g><g fill="none" stroke-linecap="round" stroke-linejoin="round" stroke-width="0" color="#000"><path d="M371.99 112.15h-7.5"/><text fill="#000" font-family="KaTeX_Main" font-size="8" transform="translate(378.99 114.75)"><tspan>1.050</tspan></text></g><g fill="none" stroke-linecap="round" stroke-linejoin="round" stroke-width="0" color="#000"><path d="M371.99 95.36h-7.5"/><text fill="#000" font-family="KaTeX_Main" font-size="8" transform="translate(378.99 97.96)"><tspan>1.100</tspan></text></g><g fill="none" stroke-linecap="round" stroke-linejoin="round" stroke-width="0" color="#000"><path d="M371.99 78.58h-7.5"/><text fill="#000" font-family="KaTeX_Main" font-size="8" transform="translate(378.99 81.18)"><tspan>1.150</tspan></text></g><g fill="none" stroke-linecap="round" stroke-linejoin="round" stroke-width="0" color="#000"><path d="M371.99 61.79h-7.5"/><text fill="#000" font-family="KaTeX_Main" font-size="8" transform="translate(378.99 64.39)"><tspan>1.200</tspan></text></g><g fill="none" stroke-linecap="round" stroke-linejoin="round" stroke-width="0" color="#000"><path d="M371.99 45.01h-7.5"/><text fill="#000" font-family="KaTeX_Main" font-size="8" transform="translate(378.99 47.61)"><tspan>1.250</tspan></text></g><path fill="none" d="M28 45.01V162.5M371.99 45.01H28" color="#000"/><text stroke-linecap="round" stroke-linejoin="round" stroke-width="0" color="#000" font-family="KaTeX_Main" font-size="10" text-anchor="middle" transform="rotate(-90 57.63 46.13)"><tspan font-weight="bold">Average Path Length </tspan><tspan> / log</tspan><tspan dy="3" font-size="8">2</tspan><tspan dy="-3">(Size)</tspan></text><text stroke-linecap="round" stroke-linejoin="round" stroke-width="0" color="#000" font-family="KaTeX_Main" font-size="10" text-anchor="middle" transform="translate(199.99 195.75)"><tspan>Operations / 10</tspan><tspan dy="-5" font-size="8">6</tspan></text><text stroke-linecap="round" stroke-linejoin="round" stroke-width=".5" color="#000" font-family="KaTeX_Main" font-size="8" transform="translate(99.2 10.11)"><tspan>AVLBottomUp</tspan></text><g fill="none" stroke="currentColor" stroke-linecap="round" stroke-linejoin="round" stroke-width=".5" color="#000"><path stroke="#000" d="M63.7 7.51h29.9M28 155.39l.36-.27.36 1.9.37-.08.36-.15.36-.23.36-.24.36-.28.37-.33.36-.07.36-.08.36-.19.37-.2.36 1.28.36-.1.36-.05.36-.13.37-.16.36-.1.36-.16.36-.18.36-.28.37-.26.36-.28.36-.15.36-.25.36.02.37-.06.36-.07.36-.1.36-.14.36-.12.37-.15.36-.17.36-.18.36-.21.37-.21.36-.25.36-.26.36 1.9.36-.13.37-.15.36-.15.36-.18.36-.19.36.4.37-.11.36-.13.36-.14.36-.16.36-.18.37 2.15.36-.05.36-.07.36-.08.37-.09.36-.09.36-.04.36.17.36-.05.37-.02.36-.08.36-.07.36-.09.36-.1.37-.1.36-.04.36-.1.36-.12.36.42.37-.09.36-.1.36-.06.36-.11.37-.07.36.01.36-.11.36-.11.36-.12.37-.13.36-.13.36-.14.36-.16.36-.15.37-.14.36.36.36-.16.36.48.36-.08.37-.08.36-.03.36-.07.36-.07.36-.07.37 1.26.36.01.36-.04.36-.06.37-.05.36-.05.36-.05.36-.06.36-.08.37-.08.36.39.36-.06.36-.08.36-.08.37.95.36-.05.36-.05.36-.06.36-.07.37-.08.36-.08.36-.1.36-.1.37-.11.36-.12.36-.14.36-.15.36-.13.37-.25.36-.1.36-.09.36-.02.36-.13.37-.13.36.72.36-.08.36-.08.36-.1.37-.09.36-.1.36.85.36-.03.36-.04.37-.04.36-.05.36-.04.36-.06.37-.05.36-.06.36-.06.36-.05.36-.03.37-.08.36-.07.36-.09.36-.08.36-.09.37-.03.36-.24.36-.07.36-.09.36-.09.37-.12.36-.1.36-.12.36 1.83.37-.06.36-.07.36-.07.36-.06h.36l.37-.11.36-.12.36-.14.36.54.36-.09.37.11.36.18.36-.04.36-.05.36-.07.37-.06.36-.09.36-.08.36-.09.36-.07.37-.1.36-.11.36-.12.36-.12.37.34.36-.05.36-.05.36.21.36-.05.37-.05.36-.06.36-.06.36-.07.36-.01.37-.05.36-.08.36-.06.36-.09.36-.07.37-.08.36-.08.36.02.36-.02.37 1.93.36-.04.36-.05.36-.05.36-.01.37-.04.36-.04.36-.04.36-.05.36-.05.37.13.36-.06.36.29.36-.03.36-.04.37-.04.36-.06.36-.07.36-.05.37-.09.36.47.36-.03.36-.03.36-.04.37-.06.36-.07.36-.07.36-.09.36-.09.37-.11.36-.11.36-.13.36-.13.36-.15.37.37.36-.02.36-.04.36-.05.36-.07.37-.07.36.5.36-.04.36-.06.37-.06.36-.06.36.13.36-.04.36-.05h.37l.36-.04.36-.04.36-.05.36-.05.37-.07.36.22.36-.02.36-.04.36-.03.37-.05.36-.05.36-.06.36-.07.37-.08.36-.08.36-.1.36.1.36-.09.37.24.36.15.36-.08.36-.1.36.21.37-.1.36-.1.36-.12.36-.13.36-.12.37-.13.36-.12.36 1.55.36-.07.36-.09.37-.1.36-.1.36-.11.36-.12.37-.13.36-.07.36.12.36-.08.36-.1.37-.1.36-.11.36-.11.36-.13.36-.13.37.08.36.46.36-.08.36-.1.36-.11.37.6.36-.05.36.01.36-.05.37-.05.36-.02.36-.08.36-.09.36-.08.37-.11.36-.11.36.03.36-.11.36-.12.37.38.36-.1.36-.09.36.05.36-.1.37-.1.36-.14.36-.09.36-.08.36-.1.37-.11.36 1.78.36-.05.36-.06.37.05.36-.05.36-.05.36-.07.36-.07.37-.09.36-.05.36-.09.36-.1.36-.12.37-.12.36-.08.36-.11.36-.12.36-.14.37.81.36-.08.36-.08.36-.1.37.5.36-.04.36-.05.36-.06.36-.1.37-.07.36-.08.36-.08.36-.09.36-.06.37.09.36-.06.36.93.36.02.36.01.37-.01.36-.02.36-.03.36-.04.37-.05.36-.09.36-.06.36-.09.36-.08.37-.1.36-.16.36-.1.36-.1.36-.1.37-.11.36-.12.36-.12.36-.13.36-.11.37.24.36-.13.36.7.36-.03.36-.09.37-.09.36-.1.36-.1.36-.11.37-.13.36-.13.36-.14.36.94.36-.02.37-.07.36.05.36-.07.36-.08.36-.07.37.09.36-.04.36-.04.36-.05.36-.06.37-.07.36-.07.36-.09.36-.08.37-.09.36-.1.36-.1.36 1.66.36.49.37-.02.36-.03.36-.05.36-.05.36-.03.37-.07.36-.08.36-.08.36-.1.36-.11.37.18.36-.05.36-.07.36.02.36.11.37-.06.36-.07.36-.09.36-.06.37-.1.36-.1.36-.13.36-.13.36-.14.37.64.36-.08.36-.08.36-.09.36-.1.37-.07.36.01.36-.06.36-.07.36-.08.37-.08.36-.09.36 1.22.36.01h.37l.36.03.36-.02.36-.03.36-.05.37-.04.36-.07.36-.06.36-.09.36-.11.37-.09.36-.11.36-.09.36-.12.36-.15.37-.13.36-.13.36-.15.36-.15.37-.16.36.72.36-.1.36.73.36-.04.37-.04.36-.05.36-.01.36-.07.36-.06.37-.2.36-.02.36.1.36.09.36.07.37.08.36.05.36.04.36-.01.36-.03.37.02.36.02.36.44.36.04.37.03.36.02.36.06.36.01h.36l.37.03.36-.02.36-.04.36-.04.36-.12.37.28h.36l.36-.01.36-.02.36-.01.37-.04.36-.03.36-.04.36-.06.37-.07.36-.07.36.01.36-.08.36-.06.37-.07.36-.1.36-.38.36-.12.36-.01.37.02.36.02h.36l.36.01h.36l.37-.01.36-.02.36-.02.36-.04.36-.05.37.01.36-.05.36-.02h.36l.37-.09.36-.05.36-.05.36-.05.36-.07.37.09.36-.09.36-.09.36-.1.36.2.37-.07.36 1.81.36-.08.36.05.36.04.37-.02.36-.03.36-.03.36-.05.37-.05.36-.06.36-.06.36-.07.36-.07.37-.09.36-.09.36-.09h.36l.36-.08.37-.34.36-.04.36-.06.36-.07.36-.09.37-.09.36.56.36.01.36-.01h.36l.37.01.36-.02.36-.02.36-.03.37-.03.36-.04.36-.04.36-.05.36-.07.37-.05.36-.08.36-.08.36-.08.36-.09.37-.1.36-.1.36-.12.36 1.41.36-.08.37-.11.36.47.36-.03.36-.04.37-.05.36-.1.36-.06.36-.08.36.05.37-.06.36-.04.36-.06.36-.05.36-.08.37-.08.36-.09.36-.1.36-.11.36-.12.37-.36.36-.05.36-.02.36-.06.37-.06.36-.08.36-.08.36-.1.36.72.37-.02.36-.03.36-.03.36-.05.36-.06.37-.04.36.06.36-.07.36-.08.36-.08.37-.09.36.39.36-.06.36-.06.36-.05.37-.07.36-.07.36.26.36-.14.37-.05.36-.07.36-.07.36-.09.36-.09.37 1.91.36.01.36-.03.36-.03.36-.04.37-.04.36-.06.36-.06.36-.07.36-.08.37-.08.36-.1.36-.04.36-.11.37-.11.36.22.36-.03.36-.04.36-.05.37-.06.36-.05.36-.08.36-.08.36-.11.37-.11.36-.11.36-.16.36-.13.36 1.55.37.11.36-.02.36-.04.36-.05.36-.06.37-.07.36-.08.36-.1.36-.11.37-.11.36-.03.36-.1.36-.08.36-.12.37.02.36-.1.36-.11.36-.11.36-.12.37-.14.36-.12.36-.14.36-.14.36-.16.37-.16.36.32.36-.1.36-.12.37-.12.36.96.36-.02.36-.02.36-.04.37-.03.36-.05.36.42.36.02.36-.03.37-.05.36.8.36-.08.36-.02.36-.04.37-.05.36-.06.36-.09.36-.09.36-.08.37-.11.36-.03.36-.13.36-.13.37-.14.36-.14.36-.14.36-.03.36-.13.37-.15.36-.04.36-.16.36-.15.36.29.37-.11.36-.08.36-.11.36.38.36-.12.37-.14.36.37.36-.07.36-.09.37.98.36-.02.36.03.36-.04.36-.04.37-.05.36-.05.36-.07.36-.07.36-.07.37-.08.36-.08.36-.08.36.17.36-.06.37-.04.36-.06.36-.07.36-.07.37-.03.36-.09.36-.08.36-.1.36-.04.37 1.67.36-.02.36-.05h.36l.36-.06.37-.05.36-.08.36.05.36-.09.36-.09.37-.11.36-.22.36-.11.36.02.36-.13.37-.13.36.59.36-.07.36-.09.37-.1.36.52.36-.03.36-.05.36-.05.37-.05.36-.06.36-.06.36-.07.36.2.37-.08.36-.07.36-.08.36-.14.36-.09.37-.09.36-.11.36-.03.36-.1.37.17.36-.08.36-.09.36-.09.36-.11.37-.11.36-.11.36-.09.36 1.55.36-.01.37-.04.36-.08.36-.18.36-.04.36-.05.37-.04.36-.06.36-.07.36.67h.36l.37.09.36.1.36-.01.36-.02.37-.03.36-.04.36-.05.36-.06.36-.06.37-.08.36-.08.36-.09.36-.1.36-.12.37-.12.36-.14.36-.13.36-.07.36-.04.37-.05.36-.06.36-.07.36-.07.37-.08.36-.08.36-.09.36-.09.36-.02.37.42.36-.04.36-.04.36-.11.36-.05.37-.06.36-.05.36-.08.36-.07.36-.09.37-.09.36-.11.36-.11.36-.11.36 2.16.37-.09.36.07.36-.09.36-.1.37-.11.36-.12.36-.1.36-.12.36-.15.37.71.36-.07.36-.08.36-.09.36.16.37-.08.36.29.36-.01.36-.03.36.02.37-.03.36-.04.36.06.36.1.37-.05.36-.04.36-.07.36-.07.36-.06.37-.07.36-.07.36-.08.36-.08.36-.09.37-.1.36-.09.36-.15.36-.05.36-.08.37-.1.36-.09.36 1.49.36-.05.37-.07.36-.07.36-.08.36-.09.36-.1.37-.11.36.67.36-.03.36-.05.36-.05.37-.09.36-.08.36-.08.36-.08.36-.1.37-.11.36-.12.36.01.36-.12.36-.14.37.82.36-.06.36-.07.36-.02.37.01.36-.05.36-.06.36-.07.36-.05.37-.07.36.06.36-.12"/><use xlink:href="#06c57__b" transform="matrix(3.75 0 0 3.75 354.25 155.1)"/><use xlink:href="#06c57__b" transform="matrix(3.75 0 0 3.75 78.65 7.51)"/></g><text stroke-linecap="round" stroke-linejoin="round" color="#000" font-family="KaTeX_Main" font-size="8" transform="translate(99.2 25.11)"><tspan>AVLWeakTopDown</tspan></text><g fill="none" stroke="currentColor" stroke-linecap="round" stroke-linejoin="round" color="#000"><path stroke="#FFAB00" stroke-dasharray="4.5,2.0,0.5,2.0,0.5,2.0" d="M63.7 22.51h29.9M28 158.22l.36-5.43.36 1.19.37.8.36.85.36.3.36-.74.36.72.37-5.01.36-.31.36 2 .36 3.04.37 2.07.36.41.36-7.66.36 2.61.36-5.09.37 2.86.36 1.95.36 3.39.36-.45.36 1.41.37-.97.36-3.53.36-.14.36 2.95.36.32.37-3.83.36 1.18.36.67.36 1.67.36-4.24.37 3.25.36.97.36-3.83.36 1.92.37 1.49.36-4.35.36 2.64.36 1.21.36-2.47.37-.12.36 2.93.36 1.9.36-6.56.36-.19.37 4.22.36 2.03.36-1.7.36 1.39.36-4.35.37-3.21.36 3.04.36 3.15.36 2.26.37-.28.36-.2.36-5.51.36 1.02.36 3.51.37.37.36-3.3.36-2.2.36 4.15.36 1.27.37-4.15.36 1.95.36 2.15.36-6.95.36 5.55.37-2.42.36-1.63.36 4.6.36 1.39.37-4.91.36 1.94.36.53.36-.61.36 2.68.37 2.01.36-3.4.36 1.4.36-3.89.36 2.21.37-3.62.36 3.11.36-3.4.36.74.36 1.7.37 1.84.36 2.2.36-3.82.36-3.81.36 1.54.37.14.36 2.37.36 3.26.36-1.11.37-1.74.36 3.07.36-6.09.36.1.36 2.78.37.99.36 2.74.36.32.36-9.2.36 3.61.37.5.36 2.28.36 1.42.36-4.53.36-1.56.37 3.57.36 1.79.36 1.55.36-3.1.37-4.78.36 2.37.36-1.97.36 4.03.36 2.93.37 1.66.36-8.9.36-1.85.36 4.24.36 3.93.37 1.51.36.69.36-2.07.36.99.36-6.55.37 2.94.36 2.96.36.73.36-5.32.36-1.77.37 3.26.36 2.61.36 2.57.36-3.21.37-2.11.36-1.07.36 3.9.36-5.23.36-.19.37 2.82.36 1.66.36 2.3.36.88.36-6.73.37-1.44.36 3.54.36 2.27.36 1.17.36-1.16.37-.58.36-.64.36-.51.36-2.72.37 1.52.36 1.05.36 3.14.36.71.36-8.88.37 3.63.36 2.85.36-.44.36 2.8.36-.14.37.37.36-1.09.36-5.25.36 2.64.36 2.55.37-1.61.36-11.92.36 6.86.36 2.49.36 3.2.37 1.1.36.81.36-5.68.36.11.37 2.67.36.34.36-2.51.36 1.22.36-4.3.37 2.67.36 3.8.36-5.48.36.26.36 1.79.37 2.59.36 2.14.36.1.36-3.93.36-1.74.37-3.25.36 3.44.36 3.66.36 1.13.37.01.36-.32.36-4.01.36-1.28.36 3.85.37.73.36-3.56.36 2.14.36 2.21.36-4.28.37-1.04.36-2.36.36 1.73.36 2.71.36-4.58.37 3.92.36.5.36 2.29.36-4.62.37 3.01.36 2.26.36 1.49.36-1.35.36-5.39.37 2.48.36 1.99.36-1.08.36-10.48.36 2.98.37 5.76.36 1.32.36.41.36-1 .36 2.09.37 1.37.36 1.22.36-5.67.36.83.36 3.05.37 1.35.36-9.41.36 4.61.36-4.58.37 1.83.36 1.79.36-1.15.36 3.15.36-3.35.37 1.69.36 2.81.36-4.72.36 4.39.36 2.13.37-10.06.36 4.94.36 2.23.36 1.86.36 2.15.37-8.45.36 3.29.36-7.08.36 4.52.37 3.04.36 3.08.36 1 .36-1.11.36-2.85.37-.74.36 3.64.36-4.81.36 1.27.36 1.86.37 2.09.36.78.36-.38.36-6.47.36 4.07.37 1.7.36.2.36.23.36-3.84.36-1.48.37 2.54.36 1.4.36.98.36-6.86.37 3.18.36.24.36 2.66.36 2.19.36-5.38.37.87.36 2.93.36.62.36-1.37.36.86.37.67.36-5.32.36 3.07.36 2.24.36-5.75.37 2.46.36 1.91.36 1.8.36-.04.37-6.04.36-1.87.36 3.52.36 1.72.36.16.37-1.93.36 3.19.36-4.81.36 3.66.36 1 .37 1.95.36-1.91.36.69.36-6.12.36-3.5.37 4.03.36 2.62.36 2.57.36 2.03.36-9.55.37 3.83.36 2.17.36-.45.36-.29.37-4.42.36.94.36 2.17.36 2.91.36-.77.37.22.36-.02.36-2.81.36 3.22.36 1.29.37 1.07.36-1.05.36-5.17.36 3.09.36 2.57.37-1.18.36.14.36-4.49.36 3.28.37 2.58.36.28.36-6.93.36 3.28.36 2.47.37-.09.36-5.25.36.96.36 2.6.36-3.84.37 3.41.36-2.82.36 3.79.36.46.36-1.81.37 1.85.36-4.42.36.45.36 3.58.37-6.6.36 3.17.36 2.38.36 2.19.36.13.37 1.42.36-8.2.36-.41.36 3.62.36 2.26.37 1.95.36-6.92.36-1.04.36 3.77.36 3.31.37-8 .36 2.16.36 2.58.36-2.58.36 3.14.37-3.32.36 1.29.36.61.36 3.44.37.2.36-.85.36.46.36-.71.36-1.67.37-1.84.36 3.43.36-4.38.36 2.66.36 2.42.37-4.72.36 6.74.36-1.73.36-5.39.36 4.1.37 2.46.36-.01.36-2.41.36 1.91.37-7.19.36 2.87.36.92.36-.31.36 2.75.37 1.05.36 1.07.36-7.28.36.42.36 3.39.37 1.33.36-5.93.36-.03.36 4.4.36 2.53h.37l.36-5.26.36.4.36 2.38.36-3.23.37 2.85.36 2.81.36.17.36-.41.37-7.72.36 3.79.36 3.43.36.64.36-7.06.37 2.39.36-.97.36 2.74.36 1.96.36-4.63.37 2.99.36-.42.36-1.78.36 3.2.36 1.07.37-4.78.36 3.13.36.05.36-3.21.37 3.54.36 2.02.36-6.55.36 3.04.36-.87.37.04.36 2.4.36-4.34.36 2.96.36 2.36.37 1.44.36-6.3.36-.5.36 4.8.36 1.25.37-6.22.36 4.94.36 1.83.36-2.74.37-1.96.36 3.02.36-1.45.36-.44.36 3.01.37.14.36-5.67.36 2.81.36 2.84.36-4.68.37-.13.36 3.06.36-3.52.36-1.78.36 3.63.37 3.61.36-5.69.36 2.46.36-3.71.36.18.37 2.55.36 3.33.36-5.47.36 1.52.37-4.64.36 2.57.36 2.78.36 3.59.36-.47.37 2.11.36-2.03.36-3.12.36-2.22.36 3.7.37-3.51.36.42.36 1.78.36 3.6.36.76.37 1.85.36-11.12.36 4.19.36 3.08.37 1.5.36 1.98.36-7.64.36-.06.36 3.26.37 2.45.36.69.36-.95.36-4.65.36 2.42.37 2.43.36.71.36-1.69.36-1.41.36-1.36.37 1.87.36 2.53.36-.51.36-6.65.36 1.37.37.69.36 3.75.36-2.86.36-.67.37 1.59.36 2.26.36-5.2.36 2.28.36 2.92.37-4.65.36-.65.36 4.54.36-5.01.36 2.45.37-2.04.36.54.36 3.39.36-5.08.36 1.2.37 4.2.36 1.03.36-7.54.36 6.52.37 1.33.36-5.14.36 2.84.36-3.66.36.26.37 2.58.36 2.85.36-.47.36.13.36-6.31.37 4.24.36 2.54.36.29.36-8.49.36 5.22.37 2.73.36-6.18.36 2.74.36 2.84.36 1.51.37-1.87.36-.4.36-3.62.36 3.59.37 1.37.36.13.36-6.19.36 6.07.36-2.24.37-.67.36 3.55.36 1.89.36-7.63.36-.6.37 4.41.36.89.36-.97.36-5.43.36-2.99.37 2.64.36 6.7.36 1.89.36-6.05.37 2.9.36.08.36-1.48.36.91.36.94.37 2.33.36-.45.36-4.87.36-3.25.36 1.76.37 2.56.36 2.98.36 1.13.36-1.95.36.56.37-4.87.36 3.53.36-5.27.36 2.99.37-2.58.36 5 .36 2.28.36-8.06.36 2.81.37-1.2.36 4.58.36 1.08.36-.58.36.73.37-.35.36-5 .36-3.07.36 3.16.36 3.12.37 1.17.36-1.86.36 2.92.36 2.02.36-6.37.37.29.36 2.48.36 2.71.36-1.37.37.44.36-5.89.36 3.33.36-3.48.36 2.75.37 2.29.36 1.92.36-2.3.36-5.5.36 2.9.37 2.96.36-4.74.36 2.44.36 1.94.36 2.32.37-.88.36-4.71h.36l.36 3.68.37-5.75.36 1.07.36 1.55.36-3.45.36 4.2.37 3.26.36.75.36-6 .36.27.36 2.08.37-5.52.36-1.09.36 4.35.36 2.42.36 2.21.37 1.47.36-2.21.36-5.17.36 3.64.36 2.59.37 2.12.36 1.41.36-8.09.36 3.19.37 1.89.36-7.05.36 3.86.36-5.88.36-2.53.37 2.52.36-2.96.36 4.49.36 3.23.36 1.75.37-.89.36 2.78.36 1.2.36-1.9.36-3.79.37 3.43.36 1.98.36-4.95.36 1.77.37.53.36-2.05.36 1.89.36-3.54.36 3.05.37 2.54.36-1.45.36-.13.36 2.68.36.38.37-8.27.36 3.1.36 4.2.36 1.51.36-7.99.37 3.35.36-2.98.36 2.75.36-3.05.36 1.76.37 4.24.36-5.56.36-1.47.36 4.13.37 2.64.36 1.27.36 1.53.36-2.08.36-8.96.37 4.15.36-2.92.36 2.93.36 2.8.36 2.63.37.26.36-9.62.36 5.15.36 3.64.36-2.15.37-2.85.36-.28.36 3.14.36-4.75.37 3.21.36 2.75.36-1.16.36-2.41.36 2.72.37 2.81.36-7.83.36 5.22.36-.4.36-4.85.37 4.15.36-2.71.36-1.99.36 5.13.36-.21.37-6.88.36-2.71.36 2.43.36 2.94.37 6.1.36-5.63.36.55.36 5.93.36-4.03.37 1.91.36-.65.36-.63.36-4.87.36 1.68.37 5.49.36 1.83.36-.83.36-8.5.36 4.56.37 2.95.36 1.95.36-9.65.36 4.6.36-3.87.37 3.45.36 3.01.36.48.36-8.19.37 4.5.36 2.7.36-4.08.36 3.28.36 2.57.37.47.36-8.75.36 5.6.36 2.23.36-4.7.37 2.89.36 1.98.36-1.92.36-3.63.36-2.53.37 1.29.36 2.25.36 4.2.36-.27.37-7.59.36 1.34.36.51.36 3.76.36 2.59.37-8.68.36 5.61.36 3.2.36-4.91.36-1.48.37 3.67.36 3.23.36.16.36-7.57.36 1.69.37 3.99.36 1.41.36-4.49.36-2.82.36 4 .37.85.36-1.85.36-3.16.36 1.2.37 2.71.36 2.57.36-.31.36.53.36-5.07.37 4.19.36 1.76.36 1.33.36-1.14.36-7.08.37 3.09.36-4.2.36 2.9.36-2.94.36 3.48.37 3.37.36 1.28.36-5.62.36 3.22.37 1.7.36 1.67.36-1.57.36 1.18.36-5.41.37 3.05.36-5.3.36.9.36 3.04.36 2.53.37-8.37.36 5.41.36 3.01.36 1.54.36-6.04.37 1.44.36 2.87.36-5.57.36 2.25.36 2.98.37 1.89.36-3.05.36-1.12.36 1.08.37 2.61.36-.12.36-.14.36-7.17.36 3.68.37 1.84.36-2.96.36.1.36 2.91.36 2.26.37-1.15.36-7.98.36 3.73.36 3.08.36-.78.37-3.71.36 4.44.36 1.38.36-8.23.37 5.33.36 2.7.36-1.99.36-.76.36 2.47.37-.83.36-1.16.36-4.06.36-.07.36 2.95.37-3.13.36 3.44.36 2.39.36 1.65.36-6.74.37 4.29.36 2.12.36-5.52.36 2.31.37.33.36-2.51.36 2.21.36.09.36-2.17.37 3.16.36-7.59.36-.57.36 3.86.36 2.72.37-1.99.36 2.9.36 2.55.36-8.44.36-3.82.37 6.86.36 2.88.36 2.51.36 1.38.36-2.53.37-2.43.36 2.49.36 1.45.36-5.74.37 3.89.36.92.36 1.05.36-3.98.36 1.75.37-.74.36-1.61.36-2.95"/><use xlink:href="#06c57__c" color="#FFAB00" transform="matrix(3.75 0 0 3.75 67.83 156.03)"/><use xlink:href="#06c57__c" color="#FFAB00" transform="matrix(3.75 0 0 3.75 78.65 22.51)"/></g><text stroke-linecap="round" stroke-linejoin="round" color="#000" font-family="KaTeX_Main" font-size="8" transform="translate(241.1 10.11)"><tspan>AVLRelaxedBottomUp</tspan></text><g fill="none" stroke="currentColor" stroke-linecap="round" stroke-linejoin="round" color="#000"><path stroke="#D336C8" d="M205.6 7.51h29.9M28 130.01l.36-.99.36-1.61.37-1.4.36.2.36-.75.36-1.18.36-1.45.37 8.06.36-2.41.36-2.27.36-.55.37-1.57.36-2 .36-2.13.36-1.89.36 6.32.37-1.25.36-1.08.36.62.36-.96.36-1.58.37 12.28.36-2.15.36-2.68.36-2.65.36-.39.37-2.04.36 5.75.36-1.69.36-.82.36-1.99.37-1.43.36-2.11.36-3.08.36-2.77.37-3.17.36-.6.36-2.05.36 5.44.36-1.2.37-1.5.36-1.51.36-1.61h.36l.36-.87.37-1.55.36-1.51.36 12.04.36-2.26.36-2.33.37-1.68.36-2.22.36.63.36-1.48.37-1.81.36-1.57.36 6.73.36-1.38.36-1.54.37-.26.36-.57.36-.83.36-1.29.36 13.15.37-2.47.36-2.67.36-3.25.36-.27.36-1.7.37 5.09.36-1.97.36-2.44.36 10.95.37-2.67.36-2.87.36-1.35.36-2.37.36 4.74.37-1.73.36-.96.36-.57.36 8.69.36-2.31.37-2.15.36-2.67.36-1.45.36-2 .36 2.83.37-1.29.36-1.23.36-.53.36-.94.36-1.08.37-1.27.36-1.22.36-1.58.36-.1.37 10.93.36-2.39.36-1.5.36-2.69.36-2.63.37 5.31.36-1.27.36-1.9.36-1.22.36.2.37-1.55.36-2 .36-2.06.36 12.72.36-2.56.37-2.12.36-.68.36-1.72.36-1.58.37-1.86.36 6.27.36-1.45.36-1.98.36-1.07.37 10.67.36-2.24.36-2.62.36-.89.36-2.7.37 3.5.36-2.34.36-2.9.36-2.75.36-2.99.37-2.75.36-1.02.36-2.37.36-2.35.36 3.84.37-2.65.36-2.32.36-2.55.36 11.24.37-2.98.36-1.27.36-2.17.36 4.09.36-2.01.37-2.46.36-2.68.36-.07.36-1.22.36 12.69.37-2.45.36-2.37.36-.98.36-2.48.36 3.16.37-2.3.36-1.95.36 10.12.36-3 .37-2.22.36-1.42.36-2.3.36-2.55.36 4.67.37-1.49.36-2.19.36 12.68.36-2.6.36-1.51.37-2.18.36 2.16.36-1.1.36-1.62.36-.48.37-1.07.36-.44.36-1.73.36-1.08.36-.2.37-1.65.36-.94.36 11.43.36-2.21.37-1.92.36-2.02.36 1.16.36-.69.36-1.2.37-1.12.36-1.67.36.12.36-1.82.36-1.22.37 12.54.36-1.48.36-2.3.36-1.94.36-1.17.37-2.28.36-.48.36 11.16.36-1.06.37-1.84.36-2.3.36-2.42.36 3.07.36-2.12.37-.87.36-.66.36 1.28.36-1.75.36-2.37.37-1.05.36 9.05.36-1.36.36-1.69.36-2.05.37-2.4.36-1.65.36-2.15.36-.18.37-2.09.36-1.37.36 11.59.36-1.9.36-1.28.37-1.48.36-1.78.36-.81.36-1.4.36-1.38.37 13.43.36-2.3.36-2.83.36-2.03.36-2.89.37-1.01.36-1.76.36-2.14.36 4.2.36 10.14.37-2.44.36-3.26.36-2.97.36-1.04.37-2.31.36-1.91.36 4.49.36-1.85.36 12.45.37-2.99.36-3.24.36-1.49.36-2.9.36-2.29.37 5.4.36-1.1.36-1.39.36-1.62.36-1.33h.37l.36 11.26.36-1.71.36-2.02.37-.87.36-1.62.36-1.68.36 3.68.36-1.05.37-1.29.36-.71.36-1.06.36-1.36.36.2.37-1.13.36-1.8.36-.87.36-1.6.36 12.54.37-2.61.36-2.01.36-2.49.36-2.73.36.58.37-2.1.36 4.52.36-2.4.36 10.83.37-2.13.36-2.52.36-2.42.36-.74.36-2.12.37 3.7.36-2.22.36-2.6.36-3.2.36-3.5.37-2.93.36-1.15.36-2.42.36 4.57.36-2.06.37-1.23.36-2.47.36-2.41.36-1.93.37 12.08.36-2.3.36-2.45.36-1.96.36-.01.37-1.56.36-1.92.36-1.52.36 6.6.36-1.6.37-.15.36-1.06.36-1.17.36-1.01.36-1.86.37 12.54.36-2.91.36-2.93.36-1.47.36-1.92.37 6.1.36-1.99.36-2.42.36 10.41.37-2.38.36-2.6.36 1.5.36-1.76.36-1.08.37-1.51.36 1.46.36-2.17.36-2.54.36-.86.37 13.13.36-2.33.36-2.61.36-2.33.36-1.19.37-1.85.36 2.84.36-1.22.36.24.37.79.36-1.97.36-2.49.36-1.14.36-2.21.37 11.74.36-1.86.36-.78.36-2.1.36 2.98.37-1.15.36-.61.36-.54.36-.67.36-1.63.37 12 .36-3.26.36-3.61.36-2.08.37-2.63.36-2.56.36 5.85.36-1.38.36-1.25.37-1.93.36 10.39.36-2.41.36.17.36-1.58.37-1.95.36-.45.36-2.01.36.54.36-2.12.37-1.34.36-1.96.36 13.19.36-2.81.36-1.21.37 1.23.36-1.5.36-.29.36-.93.37-1.59.36-1.46.36-2.67.36-2.36.36 10.54.37-2.89.36-1.29.36-2.84.36-2.37.36 5.26.37-2.1.36-2.39.36.32.36-1.27.36 12.86.37-2.42.36-3.04.36-1.58.36-3.04.37 5.58.36-1.94.36-1.81.36-.37.36-.91.37-1.55.36-1.94.36 10.99.36-1.74.36-2.83.37-1.73.36-2.47.36-2.24.36 5.29.36-2.42.37-1.54.36-1.65.36 13.45.36-2.21.36-2.34.37-1.42.36-1.67.36 3.09.36-1.15.37-1.19.36-1.01.36.21.36-2.07.36-2.2.37-1.6.36 11.55.36-2.39.36-2.84.36-1.38.37-2.76.36-1.22.36 4.62.36-1.66.36-1.46.37-.13.36 13.1.36-2.05.36-1.54.37-2.33.36-2.46.36-1.72.36 3.42.36-1.64.37-.72.36-.5.36-.43.36-.95.36-1.28.37-.62.36-1.31.36.55.36 11.01.36-2.26.37-1.79.36-1.76.36-2.23.36 3.22.37-2.01.36-2.32.36-1.83.36-1.81.36-1.67.37 9.57.36-2.04.36-1.91.36-1.45.36-1.11.37-.38.36-.71.36-1.33.36-.84.36-.7.37-1.16.36-1.45.36.41.36-1.06.36 12.79.37-1.62.36-2.27.36-.97.36 2.42.37-.58.36-.22.36-1.83.36-1.9.36-.5.37-1.78.36-1.08.36-1.75.36 13.62.36-2.39.37-2.41.36 1.68.36.46.36-1.51.36-2.08.37-2.29.36-2.24.36 10.82.36-2.12.37-2.32.36 1.47.36-1.72.36-1.38.36-1.63.37-1.29.36 2.08.36-2.13.36-1.63.36-1.95.37 12.82.36-2.23.36-2.13.36.92.36-1.19.37-.59.36-1.21.36-1.34.36-1.64.36 2.4.37-1.82.36 10.4.36-2.22.36-2.51.37.48.36-1.39.36-.57.36-1.24.36.92.37-2.23.36-.94.36-2.28.36-2.29.36 12.01.37-2.64.36-2.15.36-1.7.36 3.24.36-1.45.37-1.5.36-.92.36 1.82.36-1.57.37-2.16.36-.99.36-1.6.36 11.75.36-2.03.37-1.76.36-1.5.36-1.13.36-1.56.36-.99.37-1.21.36.12.36-1.57.36 12.86.36-3.23.37-2.73.36-3.08.36-.8.36-2.16.36 4.82.37-2.14.36-1.71.36-2.01.36-1.88.37 12.77.36-2.14.36-.79.36-2.02.36-1.54.37-2.2.36 4.66.36-1.48.36-2.14.36 11.85.37-2.75.36-1.56.36-2.74.36 1.87.36-1.65.37-.54.36-1.49.36.32.36-2.31.37-1.14.36-2.41.36 11.77.36-1.65.36-1.07.37-1.78.36-2.02.36-1.79.36-1.63.36-.33.37-1.47.36 13.34.36-2.27.36-1.45.36-1.85.37-.94.36-1.27.36-1.71.36-1.57.37-2.11.36-1.58.36 1.3.36-1.93.36 11.19.37-2.86.36-2.56.36-2.7.36.64.36-2.19.37 5.44.36-1.78.36-1.11.36-1.55.36-.18.37-1.32.36 12.92.36-2.5.36-1.3.36-2.06.37-2.13.36 3.43.36-1.04.36-1.42.37.27.36-2.5.36-2.12.36-.99.36-1.64.37 12.61.36-1.42.36-1.38.36-2.56.36-1.26.37-.63.36-1.77.36-1.9.36-2.36.36-2.63.37-1.74.36-1.65.36-.78.36 3.34.37-1.35.36-1.73.36-1.4.36-.88.36-1.64.37-1.73.36 11.7.36-2.06.36-2.46.36-2.43.37 3.25.36-1.88.36-1.64.36-1.25.36-.16.37.12.36-.48.36-1.19.36-.84.36-.15.37-.59.36 13.13.36-2.66.36-3.11.37-1.68.36-2.34.36-3.07.36-.69.36 5.1.37-1.73.36-.04.36-1.65.36-.66.36-1.58.37-1.65.36 11.69.36-2.15.36-2.3.36 2.99.37-1.74.36-.08.36-2.3.36-1.98.37-1.79.36-1.83.36 13.29.36-2.46.36-1.19.37 1.42.36-1.5.36.19.36-1.35.36-2 .37-1.86.36-.77.36-.35.36-1.14.36-1.64.37 11.74.36-2.2.36-1.79.36-1.77.36 2.74.37-.54.36-.76.36-1.19.36-1.78.37-.48.36-.59.36-.99.36-.83.36-.66.37.15.36-1.26.36-1 .36-1.72.36 14.09.37-1.84.36-2.14.36-2.54.36-.89.36-1.19.37-1.44.36 5.45.36-1.49.36-2.13.37-1.21.36-1.54.36 11.63.36-1.87.36-2 .37-1.01.36-1.3.36 2.65.36.11.36-1.03.37-1.59.36-2.13.36-1.44.36-1.73h.36l.37-1.08.36 13.82.36-2.36.36-1.37.37-1.27.36-.94.36-.75.36-1.4.36-1.12.37-.15.36-1.77.36-1.22.36 11.29.36-1.95.37-1.62.36-2.16.36-2.06.36-.81.36-1.02.37-1.6.36-.79.36 12.66.36-2.36.36-2.74.37-1.95.36-1.3.36 3.1.36-1.25.37-.39.36 1.63.36-1.47.36-1.36.36-2.11.37 10.98.36-1.73.36-2.2.36-2.1.36 2.38.37-1.54.36-1.83.36-.87.36.92.36-1.87.37-2.42.36-1.56.36-1.72.36-1.47.37 14.09.36-2.12.36-1.46.36-2.21.36-.93.37 3.18.36-1.67.36-1.64.36-1.95.36-2.21.37 11.11.36-1.51.36-2.16.36 1.62.36-.71.37-1.24.36-1.4.36-.38.36-1.89.36-1.94.37-2.28.36 12.12.36-3.05.36-1.26.37-2.77.36-2.35.36-1.23.36-1.83.36-1.64.37 6.21.36-1.02.36.11.36-1.41.36-.26.37-1.55.36 11.07.36-2 .36-.81.36.57.37-.62.36-.79.36-.89.36-1.46.37 1.26.36-2.29.36-1.98.36-1.73.36 13.81.37-2 .36-2.18.36.71.36-1.53.36-.19.37-1.51.36.29.36-2.36.36-1.51.36-2.22.37-1.56.36 11.83.36-2.32.36-2.05.36-1.07.37-.33.36-1.29.36-1.04.36-.89.37-.3.36-1.2.36 12.9.36-2.15.36-1.67.37.63.36-1.27.36-.34.36-1.36.36-.11.37-1 .36-1.29.36-1.5.36-.45.36-1.75.37-1.34.36 10.9.36-2.57.36-2.26.37-2.4.36-.75.36-2.01.36 4.85.36-1.56.37-2.42.36-1.34.36 13.27.36-2.45.36-2.81.37-1.1.36-2.37.36-1.83.36-1.52.36 10.97.37-1.82.36-2.58.36.49.36-.62.37-1.43.36-1.84.36 1.53.36-2.18.36-2.65.37-1.83.36-1.57.36 12.89.36-1.48.36-1.96.37 1.61.36-1.33.36-1.51.36-1.01.36-1.45.37 1.7.36-1.97.36-.98.36 10.44.36-2.11.37-1.14.36-2.72.36 1.84.36-.8.37-1.66.36.53.36-2.02.36-2.34.36-1.5.37 13.78.36-1.64.36-2"/><use xlink:href="#06c57__a" color="#D336C8" transform="matrix(3.75 0 0 3.75 125.4 91.66)"/><use xlink:href="#06c57__a" color="#D336C8" transform="matrix(3.75 0 0 3.75 220.55 7.51)"/></g><text stroke-linecap="round" stroke-linejoin="round" color="#000" font-family="KaTeX_Main" font-size="8" transform="translate(241.1 25.11)"><tspan>AVLRelaxedTopDown</tspan></text><g fill="none" stroke="currentColor" stroke-linecap="round" stroke-linejoin="round" color="#000"><path stroke="#9F650D" stroke-dasharray="4.0,2.0,1.0,2.0" d="M205.6 22.51h29.9M28 124.31l.36-3.09.36-3.78.37 10.12.36-2.2.36-2.85.36-2.83.36-3.29.37-3.41.36-3.59.36-3.72.36-.81.37-1.98.36 25.19.36.09.36-.82.36-.85.37-1.81.36 10.73.36-1.8.36-2.38.36-3.26.37-3.86.36-2.74.36-3.12.36 1.27.36 5.52.37-2.22.36-.26.36-1.6.36-1.75.36-2.26.37-2.32.36-2.73.36-.89.36-2.58.37-2.69.36 14.11.36 12.37.36-1.52.36-.59.37-1.91.36-2.46.36-3.07.36-3.03.36 1.45.37-1.9.36-1.57.36-2.18.36-2.73.36-1.72.37-2.46.36 12.3.36-1.52.36-2.01.37-2.81.36-3.49.36-.81.36 3.77.36-1.14.37-1.27.36-.87.36-1.41.36-1.51.36-2.18.37 1.78.36-1.62.36-2.25.36-2.23.36-3.13.37-2.89.36 19.57.36-1.17.36-1.66.37-1.41.36-2.38.36-3.09.36 15.88.36-2.66.37-3.24.36-3.89.36-4.61.36 7.69.36-1.95.37-1.22.36-1.7.36-2.67.36-1.15.36.11.37-.7.36-1.21.36 23.09.36-1.34.36-1.77.37-2.2.36-2.5.36.81.36-1.32.37-1.77.36-1.4.36-2.55.36-2.41.36-2.86.37-3.18.36-3.06.36 15.33.36-1.47.36-2.28.37-2.12.36-2.61.36-2.49.36-1.01.36 5.06.37-1.31.36-1.99.36-2.12.36-2.2.37-2.22.36-2.79.36-2.51.36-2.94.36-2.11.37-2.59.36 7.13.36 9.72.36-.64.36-1.08.37-1.59.36-1.89.36-2.42.36 12.56.36-2.31.37-1.92.36-1.62.36.38.36-1.8.36-2.15.37-3.11.36-3.73.36-3.06.36-3.23.37-3.05.36 7.91.36-1.43.36 26.51.36-.25.37-.91.36-1.66.36-1.87.36-.48.36-1.62.37-2.06.36-2.36.36-2.57.36-.85.36.69.37-2.48.36-2.87.36-2.76.36-3.05.37 11.39.36-2.15.36-2.33.36-3.12.36-3.15.37-1.12.36 19.36.36-.95.36-1.6.36-1.92.37-2.37.36-2.72.36-2.88.36-2.84.36-3.34.37-3.32.36-2.6.36 9.02.36-.92.36-1.57.37-2.26.36-2.24.36 12.06.36-1.14.37-1.05.36-1.18.36-1.82.36-2.31.36-2.96.37-1.73.36-2.44.36 8.62.36-1.85.36-1.53.37-1.78.36-1.96.36-1.83.36-2.5.36-2.74.37 9.88.36-.78.36-1.09.36 12.72.37-1.37.36-2.32.36-1.14.36-2.07.36-2.36.37-3.29.36 1.58.36-1.82.36-2.35.36-2.01.37-2.95.36 25.2.36-1.3.36-2.05.36-1.91.37-2.38.36-3.4.36-3.84.36 5.68.37-1.6.36-1.87.36-2.98.36-3.54.36.56.37-1.6.36-2.01.36-2.5.36-1.08.36-2.7.37-2.49.36-2.9.36-2.92.36 16.34.36 28.45.37-.91.36-1.57.36-1.91.36-1.36.36-2.13.37-2.77.36.68.36-1.63.36-2.24.37-2.66.36-3.69.36 11.61.36-2.08.36-2.54.37-3.09.36-3.67.36-4.19.36 7.09.36-1.35.37-1.55.36-1.59.36-1.6.36-1.68.36-1.7.37-.05.36-1.18.36-1.26.36-1.42.37-1.86.36-1.77.36 13.25.36-.94.36-.8.37-1.28.36-1 .36.7.36-1.11.36-1.96.37-1.65.36-1.46.36-1.98.36-2.04.36-2.22.37-2.66.36 39.2.36-1.21.36-1.78.36-2.59.37-3.26.36-3.55.36-2.41.36-.67.37 5.86.36-1.18.36-1.33.36-1.92.36.33.37-1.85.36-1.57.36-1.84.36-1.91.36-.85.37-1.65.36-1.91.36-1.63.36-1.96.36-1.7.37 13.9.36-.27.36-.65.36-.66.37-1.5.36-2.51.36-3.16.36.25.36-1.8.37 18.54.36-1.39.36-1.31.36-1.6.36-1.44.37-1.78.36-1.59.36-2 .36-2.39.36-2.5.37-1.55.36-2.6.36 13.59.36-1.25.36-1.52.37-1.89.36-2.04.36-1.59.36-1.71.37-2.05.36-2.5.36-2.65.36 1.35.36-2.48.37-2.82.36-3.71.36-1.3.36 12.83.36-1.25.37-1.91.36-2.39.36-1.41.36-2.72.36-2.91.37-2.95.36-3.16.36 1.28.36 20.03.37-1.83.36-2.38.36.56.36-1.06.36-1.51.37-1.92.36-2.19.36-2.26.36-2.85.36-2.16.37 28.65.36-1.18.36-1.62.36-1.84.36-1.07.37-.87.36-1.27.36-2.01.36-1.54.37-2.43.36-2 .36.59.36-1.47.36-.77.37-1 .36-1.59.36-1.93.36-1.6.36-2.42.37-2.15.36 12.83.36-1.02.36 27.69.36-1.1.37-1.69.36-2.21.36-2.85.36.23.36-1.96.37-2.48.36-2.96.36-3.61.36-2.62.37 11.31.36-1.89.36-3.02.36-2.02.36-3.01.37-3.43.36-3.1.36.57.36 5.93.36-.76.37-.81.36-1.38.36-2.12.36.67.36-1.01.37-1.43.36-1.4.36 12.68.36-1.91.37-2.08.36-2.73.36-3.19.36 1.01.36-2.55.37-3.37.36-3.25.36 25.15.36-1.48.36-1.9.37-2.39.36-1.16.36-2.19.36-2.67.36-2.6.37-2.83.36 5.91.36-.55.36-.94.36.07.37-1.39.36-2.27.36-2.28.36.57.37-1.71.36-2.68.36-3.24.36-3.81.36 20.44.37-1.58.36-.61.36-1.67.36-2.69.36.67.37-2.26.36-2.95.36-2.12.36-2.97.36-3.78.37 5.69.36-.97.36-1.17.36-1.19.37-1.45.36-2.3.36.44.36-2.51.36-3.19.37-1.37.36-3.33.36-3.13.36 20.02.36-1.88.37-2.24.36-1.94.36-2.46.36 15.66.36-1.3.37-1.72.36-2.46.36-1.9.36-2.56.37-3.14.36-3.06.36.54.36-2.81.36-2.54.37-3.36.36-3.89.36-2.46.36 7.91.36-1.68.37-2.37.36-2.63.36 11.39.36-1.43.36-1.77.37-1.26.36-1.21.36-1.92.36-.58.36 31.75.37-1.3.36-1.55.36-.8.36-2.02.37-2.25.36-2.4.36-2.85.36-1.7.36.02.37-1.09.36-.58.36-.54.36-1.3.36-1.61.37-2.13.36-.98.36 14.15.36-.43.36-.84.37-.83.36-2.18.36-1.8.36-2.5.37-.78.36-2.02.36-2.68.36-3.11.36-2.45.37-3.3.36-2.98.36-2.85.36 8.25.36-1.47.37-2.03.36-2.32.36-2.63.36-2.66.36 14.54.37-1.05.36-1.2.36-.91.36 14.01.36-.92.37-1.85.36-2.51.36-2.99.36 1.36.37-2.46.36-1.99.36-.88.36-2.49.36-2.97.37 41.53.36-1.61.36-2.01.36-1.95.36-2.64.37-2.73.36 5.69.36-1.44.36-1.38.36-1.55.37-2.29.36-2.45.36-2.38.36 1.57.37-2.27.36-2.83.36-2.29.36-2.71.36-3.5.37 20.56.36-1.2.36-1.56.36-.88.36-.4.37-1.39.36-1.26.36-2.09.36 1.61.36-1.3.37-1.74.36-1.62.36-2.33.36-2.65.36-2.69.37-2.95.36-3.1.36 7.11.36.12.37-.75.36-1.04.36-.53.36-1.91.36.11.37.93.36-1.11.36-1.52.36-2.07.36-1.93.37-2.66.36-3.37.36-3.13.36 1.31.36 18.69.37-2.62.36-1.15.36-1.73.36-2.1.37-2.5.36-1.16.36-2.36.36 2.22.36-1.75.37-2.62.36-3.37.36 28.55.36-1.91.36-2.29.37-2.63.36-2.86.36-3.2.36-2.77.36-2.64.37 7.79.36-.8.36-.6.36-1.04.37-1.03.36-1.63.36-1.68.36-1.47.36-2.04.37-2.38.36-2.19.36-2.44.36-2.4.36 14.71.37-.5.36 39.61.36-1.38.36-1.96.36-2.43.37-2.68.36.19.36-1.84.36-1.58.36-1.9.37-2.4.36-2.84.36-3.39.36-2.62.37-2.95.36 7.6.36-1.67.36 10.62.36-.34.37-1.05.36-1.38.36-1.34.36-2.11.36-2.74.37-2.73.36-2.88.36-1.44.36.38.36-1.3.37-1.09.36-1.33.36-2.08.36-2.31.37-1.09.36 3.62.36-1.27.36 9.69.36-.94.37-1.11.36 11.49.36-1.84.36-3 .36-3.2.37-3.27.36 1.8.36-1.54.36-1.69.36-1.75.37-1.96.36-1.82.36-1.98.36-1.83.36-2.55.37-1.65.36-2.01.36 29.27.36-1.41.37-1.35.36-2.8.36-2.25.36-3.36.36-.76.37-2.61.36 7.38.36-1.83.36-2.64.36-2.67.37 1.6.36-1.52.36-1.59.36-2.17.36-1.45.37-2.53.36-2.93.36 12.75.36-1.65.37-2.29.36-2.2.36-3.2.36-3.78.36-3.8.37 23.45.36-1.58.36-1.46.36-1.77.36-2.44.37.69.36-1.45.36-1.7.36-2.11.36-2.62.37-2.3.36-2.67.36-3.19.36.9.36-2.24.37-2.84.36-3.19.36-2.77.36-.76.37-1.95.36 5.55.36-2.3.36-2.83.36 12.23.37-1.78.36-1.61.36-2.1.36-2.7.36-2.96.37-2.98.36.18.36 19.7.36-1.66.36-2.35.37-3.03.36.92.36-1.92.36-2.01.37-2.14.36-2.74.36-3.36.36.06.36 26.26.37-1.97.36-3.37.36-1.38.36-3.22.36 5.86.37-.94.36-1.49.36-1.37.36-1.98.36-2.29.37-3.11.36-.97.36 1.03.36-.43.37 28.08.36-1.98.36-2.75.36-3.45.36 1.21.37-2.33.36-2.51.36-2.49.36-2.11.36-2.09.37-2.27.36-2.68.36-2.86.36 14.26.36-.92.37-1.58.36-1.49.36-1.31.36-2.46.36.09.37-1.94.36-2.28.36-2.83.36-2.55.37-2.81.36-3.31.36-2.83.36-1.84.36 14.16.37 13.07.36-1.29.36-2.05.36-1.74.36-2.48.37-2.95.36-2.17.36-2.23.36 1.6.36-1.51.37-2.22.36-2.68.36-2.2.36-.65.37 40.52.36-2.2.36-2.58.36-3.53.36-3.32.37-3.62.36-1.87.36 1.15.36 6.36.36-.24.37-.76.36-1.35.36-1.56.36-2.09.36-2.03.37.68.36-1.23.36-.86.36-1.86.36-2.69.37-3.56.36 20.56.36-1.06.36-1.35.37-2.02.36-2.51.36-1.82.36-2.43.36 1.75.37-1.33.36-1.48.36-1.67.36-1.88.36-1.46.37-2.69.36-.52.36-2.01.36-1.97.36-2.64.37-3.16.36-3.95.36 5.35.36-1.78.37-2.31.36-2.75.36-2.57.36-3.37.36 13.76.37-1.17.36-.84.36-1.19.36-2.04.36-2.65.37 19.25.36-1.35.36-1.91.36-2.64.36-3.79.37 1.22.36-1.83.36-2.02.36-2.35.36-2.87.37-2.41.36-3.1.36-3.12.36 9.54.37-1.46.36-2.43.36-2.99.36 28.45.36-.98.37-1.38.36-1.51.36-1.56.36-2.24.36-.89.37-2.6.36-2.45.36-2.97.36-3.57.36-4 .37 13.17.36-1.81.36-2.23.36-2.13.37-2.45.36-3.05.36-3.6.36 37.24.36-1.16.37-1.63.36-1.67.36-.59.36-1.59.36-2.36.37-2.18.36-2.48.36-3.1.36-3.97.36 6.05.37-1.04.36-1.22.36-1.09.36-1.63.37-2.58.36 1.19.36-1.72.36-2.63.36-2.84.37-3.3.36-3.72.36 20.52.36-.85.36-.72.37-1.01.36-1.71.36-2.38.36-2.9.36 16.2.37-1.9.36-2.36.36-2.61.36-3.3.36-3.57.37 1.24.36-2.49.36-2.89.36-2.72.37-2.59.36-2.9.36-3.32.36 13.95.36-1.53.37-2.16.36-2.52.36-2.96"/><use xlink:href="#06c57__c" color="#9F650D" transform="matrix(3.75 0 0 3.75 182.98 84.08)"/><use xlink:href="#06c57__c" color="#9F650D" transform="matrix(3.75 0 0 3.75 220.55 22.51)"/></g><path fill="none" d="M28 45.01V162.5M371.99 45.01H28" color="#000"/></svg>