<svg xmlns="http://www.w3.org/2000/svg" xmlns:xlink="http://www.w3.org/1999/xlink" viewBox="0 0 400 200"><path fill="none" d="M0 0h400v200H0z"/><defs><use xlink:href="#dcb90__a" id="dcb90__b" fill="currentColor" stroke="none"/><use xlink:href="#dcb90__a" id="dcb90__c" stroke="currentColor" transform="rotate(180)"/><path id="dcb90__a" stroke="currentColor" stroke-width=".267" d="m0-1.33-1.33 2h2.66z"/></defs><path fill="none" stroke="#CCC" stroke-linecap="round" stroke-linejoin="round" stroke-width=".1" d="M46.1 162.5V45.01" class="dcb90__gridline" color="#000"/><g fill="none" stroke-linecap="round" stroke-linejoin="round" stroke-width="0" color="#000"><path d="M46.1 162.5V155m0-109.99v7.5"/><text fill="#000" font-family="KaTeX_Main" font-size="8" text-anchor="middle" transform="translate(46.1 172.6)"><tspan> 1</tspan></text></g><path fill="none" stroke="#CCC" stroke-linecap="round" stroke-linejoin="round" stroke-width=".1" d="M82.31 162.5V45.01" class="dcb90__gridline" color="#000"/><g fill="none" stroke-linecap="round" stroke-linejoin="round" stroke-width="0" color="#000"><path d="M82.31 162.5V155m0-109.99v7.5"/><text fill="#000" font-family="KaTeX_Main" font-size="8" text-anchor="middle" transform="translate(82.31 172.6)"><tspan> 2</tspan></text></g><path fill="none" stroke="#CCC" stroke-linecap="round" stroke-linejoin="round" stroke-width=".1" d="M118.52 162.5V45.01" class="dcb90__gridline" color="#000"/><g fill="none" stroke-linecap="round" stroke-linejoin="round" stroke-width="0" color="#000"><path d="M118.52 162.5V155m0-109.99v7.5"/><text fill="#000" font-family="KaTeX_Main" font-size="8" text-anchor="middle" transform="translate(118.52 172.6)"><tspan> 3</tspan></text></g><path fill="none" stroke="#CCC" stroke-linecap="round" stroke-linejoin="round" stroke-width=".1" d="M154.73 162.5V45.01" class="dcb90__gridline" color="#000"/><g fill="none" stroke-linecap="round" stroke-linejoin="round" stroke-width="0" color="#000"><path d="M154.73 162.5V155m0-109.99v7.5"/><text fill="#000" font-family="KaTeX_Main" font-size="8" text-anchor="middle" transform="translate(154.73 172.6)"><tspan> 4</tspan></text></g><path fill="none" stroke="#CCC" stroke-linecap="round" stroke-linejoin="round" stroke-width=".1" d="M190.94 162.5V45.01" class="dcb90__gridline" color="#000"/><g fill="none" stroke-linecap="round" stroke-linejoin="round" stroke-width="0" color="#000"><path d="M190.94 162.5V155m0-109.99v7.5"/><text fill="#000" font-family="KaTeX_Main" font-size="8" text-anchor="middle" transform="translate(190.94 172.6)"><tspan> 5</tspan></text></g><path fill="none" stroke="#CCC" stroke-linecap="round" stroke-linejoin="round" stroke-width=".1" d="M227.15 162.5V45.01" class="dcb90__gridline" color="#000"/><g fill="none" stroke-linecap="round" stroke-linejoin="round" stroke-width="0" color="#000"><path d="M227.15 162.5V155m0-109.99v7.5"/><text fill="#000" font-family="KaTeX_Main" font-size="8" text-anchor="middle" transform="translate(227.15 172.6)"><tspan> 6</tspan></text></g><path fill="none" stroke="#CCC" stroke-linecap="round" stroke-linejoin="round" stroke-width=".1" d="M263.36 162.5V45.01" class="dcb90__gridline" color="#000"/><g fill="none" stroke-linecap="round" stroke-linejoin="round" stroke-width="0" color="#000"><path d="M263.36 162.5V155m0-109.99v7.5"/><text fill="#000" font-family="KaTeX_Main" font-size="8" text-anchor="middle" transform="translate(263.36 172.6)"><tspan> 7</tspan></text></g><path fill="none" stroke="#CCC" stroke-linecap="round" stroke-linejoin="round" stroke-width=".1" d="M299.57 162.5V45.01" class="dcb90__gridline" color="#000"/><g fill="none" stroke-linecap="round" stroke-linejoin="round" stroke-width="0" color="#000"><path d="M299.57 162.5V155m0-109.99v7.5"/><text fill="#000" font-family="KaTeX_Main" font-size="8" text-anchor="middle" transform="translate(299.57 172.6)"><tspan> 8</tspan></text></g><path fill="none" stroke="#CCC" stroke-linecap="round" stroke-linejoin="round" stroke-width=".1" d="M335.78 162.5V45.01" class="dcb90__gridline" color="#000"/><g fill="none" stroke-linecap="round" stroke-linejoin="round" stroke-width="0" color="#000"><path d="M335.78 162.5V155m0-109.99v7.5"/><text fill="#000" font-family="KaTeX_Main" font-size="8" text-anchor="middle" transform="translate(335.78 172.6)"><tspan> 9</tspan></text></g><path fill="none" stroke="#CCC" stroke-linecap="round" stroke-linejoin="round" stroke-width=".1" d="M371.99 162.5V45.01" class="dcb90__gridline" color="#000"/><g fill="none" stroke-linecap="round" stroke-linejoin="round" stroke-width="0" color="#000"><path d="M371.99 162.5V155m0-109.99v7.5"/><text fill="#000" font-family="KaTeX_Main" font-size="8" text-anchor="middle" transform="translate(371.99 172.6)"><tspan> 10</tspan></text></g><g fill="none" stroke-linecap="round" stroke-linejoin="round" stroke-width="0" color="#000"><path d="M371.99 162.5h-7.5"/><text fill="#000" font-family="KaTeX_Main" font-size="8" transform="translate(378.99 165.1)"><tspan>0</tspan></text></g><g fill="none" stroke-linecap="round" stroke-linejoin="round" stroke-width="0" color="#000"><path d="M371.99 45.01h-7.5"/><text fill="#000" font-family="KaTeX_Main" font-size="8" transform="translate(378.99 47.61)"><tspan>1</tspan></text></g><path fill="none" d="M28 45.01V162.5M371.99 45.01H28" color="#000"/><text stroke-linecap="round" stroke-linejoin="round" stroke-width="0" color="#000" font-family="KaTeX_Main" font-size="10" text-anchor="middle" transform="rotate(-90 57.63 46.13)"><tspan>log</tspan><tspan dy="3" font-size="8">2</tspan><tspan dy="-3">(</tspan><tspan font-weight="bold">Maximum Path Length </tspan><tspan> / log</tspan><tspan dy="3" font-size="8">2</tspan><tspan dy="-3">(Size))</tspan></text><text stroke-linecap="round" stroke-linejoin="round" stroke-width="0" color="#000" font-family="KaTeX_Main" font-size="10" text-anchor="middle" transform="translate(199.99 195.75)"><tspan>Operations / 10</tspan><tspan dy="-5" font-size="8">6</tspan></text><text stroke-linecap="round" stroke-linejoin="round" stroke-width=".5" color="#000" font-family="KaTeX_Main" font-size="8" transform="translate(99.2 10.11)"><tspan>AVLBottomUp</tspan></text><g fill="none" stroke="currentColor" stroke-linecap="round" stroke-linejoin="round" stroke-width=".5" color="#000"><path stroke="#000" d="M63.7 7.51h29.9M28 137.04l.36.25.36.25.37.25.36.24.36.24.36.23.36.22.37.23.36.21.36.22.36.21.37.2.36.21.36.2.36.19.36.2.37.19.36.19.36.18.36-7.35.36.17.37.18.36.17.36.17.36.17.36.17.37.16.36.16.36.16.36.16.36.15.37.16.36.15.36.15.36.14.37.15.36.14.36.14.36.14.36.14.37.14.36.13.36.14.36.13.36.13.37.13.36.12.36.13.36.13.36.12h325.89"/><use xlink:href="#dcb90__b" transform="matrix(3.75 0 0 3.75 354.25 138.23)"/><use xlink:href="#dcb90__b" transform="matrix(3.75 0 0 3.75 78.65 7.51)"/></g><text stroke-linecap="round" stroke-linejoin="round" color="#000" font-family="KaTeX_Main" font-size="8" transform="translate(99.2 25.11)"><tspan>AVLWeakTopDown</tspan></text><g fill="none" stroke="currentColor" stroke-linecap="round" stroke-linejoin="round" color="#000"><path stroke="#FFAB00" stroke-dasharray="4.5,2.0,0.5,2.0,0.5,2.0" d="M63.7 22.51h29.9M28 131.02l.36-8.28.36-7.88h.37l.36 7.88h.36l.36-7.88.36 7.88.37-7.88h.72l.36 7.88h.73l.36-7.88h1.45l.36 7.88h1.09l.36-7.88h.36l.36 7.88h.36l.37-7.88h.36l.36 7.88h.36l.36-7.88h.37l.36 7.88.36-7.88h.36l.37 7.88.36-7.88.36 7.88h.36l.36-7.88h.37l.36 7.88h.72l.36-7.88h.37l.36 7.88h.72l.36-7.88h.73l.36 7.88h1.09l.36-7.88h.72l.37 7.88h.36l.36-7.88.36 7.88h1.45l.36-7.88.36 7.88.37-7.88h.36l.36 7.88h1.45l.36-7.88.36 7.88h1.09l.36-7.88.36 7.88.37-7.88.36 7.88.36-7.88h.72l.37 7.88h.72l.36-7.88h1.09l.36 7.88.36-7.88.37 7.88h.36l.36-7.88h.72l.37 7.88.36 8.28.36-8.28.36-7.88h.73l.36 7.88h.72l.36-7.88.37 7.88H70l.37-7.88h1.08l.36 7.88.37 8.28.36-16.16.36-7.54.36 7.54.36 7.88.37 8.28h.36l.36-8.28h.36l.36-7.88.37 7.88h.72l.36-7.88h.73l.36 7.88h1.09l.36-7.88.36 7.88.36-7.88h.36l.37 7.88h1.08l.36-7.88h.73l.36 7.88h1.81l.36-7.88.37 7.88h.72l.36 8.28.36-16.16h.37l.36 7.88.36-7.88.36 7.88h1.45l.36-7.88.36 7.88h.37l.36-7.88h.72l.36 7.88h.37l.36 8.28.36-16.16h.36l.37 7.88h1.08l.36-7.88h.37l.36 7.88.36-7.88h.72l.37 7.88h.72l.36-7.88h.73l.36 7.88h1.45l.36-7.88h.36l.36 7.88h1.45l.36-7.88h2.18l.36 7.88h.36l.36-7.88h.37l.36 7.88.36 8.28.36-8.28.36-7.88h.37l.36 7.88h.36l.36-7.88h1.09l.36 16.16.36-8.28h1.45l.36-7.88.36 7.88h.37l.36-7.88h1.81l.36 7.88.36-7.88h.37l.36 7.88.36-7.88.36 7.88h.36l.37-7.88h.72l.36 7.88h.36l.37-7.88h.36l.36-7.54.36 7.54h.37l.36 7.88h.72l.36-7.88h.37l.36 7.88.36-7.88h.36l.36 7.88h1.09l.36-7.88.36 7.88h1.09l.36-7.88h.73l.36 7.88h.36l.36-7.88h.73l.36 7.88h.36l.36-7.88h.37l.36 7.88h1.45l.36-7.88.36 7.88h.36l.36-7.88.37 7.88h1.08l.37-7.88h.72l.36 7.88.36-7.88.37 7.88h.36l.36-7.88.36 7.88h1.45l.36-7.88.36-7.54.37 7.54h.36l.36 7.88h.36l.36-7.88h.37l.36 7.88h.72l.37-7.88h.72l.36 7.88h1.09l.36-7.88h.36l.36 7.88h.73l.36-7.88.36 7.88h1.09l.36-7.88.36 7.88h.73l.36-7.88h.36l.36 7.88h.37l.36-7.88h.36l.36 7.88.36-7.88.37 7.88.36-7.88.36 7.88.36-7.88.36 7.88h.37l.36-7.88h.36l.36 7.88.37-7.88h.36l.36 7.88h1.09l.36-7.88h.72l.36 7.88h.37l.36-7.88h.72l.36 7.88.37-7.88h.36l.36 7.88.36-7.88h1.45l.36 7.88h.37l.36-7.88.36 7.88h.36l.36-7.88h.37l.36 7.88.36-7.88h.36l.36 7.88.37-7.88.36 7.88h.36l.36-7.88.36 7.88h1.45l.37-7.88h.36l.36 7.88.36-7.88.36 7.88h.73l.36-7.88h.72l.37 7.88.36-7.88h.36l.36 7.88h.73l.36-7.88h.36l.36 7.88.36-7.88h.37l.36 7.88h.72l.37-7.88h.36l.36 7.88h.36l.36-7.88h1.09l.36 7.88.36-7.88.37 7.88h.36l.36-7.88.36 7.88h.36l.37-7.88.36 7.88h.36l.36-7.88.37 7.88h.36l.36-7.88h.36l.36 7.88.37-7.88.36 7.88.36-7.88h.36l.36 7.88h.37l.36-7.88h.36l.36 7.88h.36l.37-7.88.36 7.88h.72l.37-7.88.36 7.88h1.45l.36-7.88h.36l.36 7.88.36-7.88h.37l.36 7.88.36-7.88h.72l.37 7.88.36-7.88.36 7.88.36-7.88h.73l.36 7.88.36-7.88.36 7.88.37-7.88h.72l.36 7.88h1.09l.36-7.88h1.81l.36 7.88h.73l.36-7.88h.36l.36 7.88h.73l.36-7.88h.36l.36 7.88h1.09l.36-7.88h.36l.37 7.88h1.08l.36-7.88.37 7.88h.72l.36-7.88h.73l.36 7.88h.36l.36-7.88.37 7.88h.36l.36-7.88h.36l.36 7.88.37-7.88h.36l.36 7.88.36-7.88h1.09l.36 7.88.36-7.88h.36l.37 7.88h.36l.36-7.88.36 7.88h.37l.36-7.88.36 7.88.36-7.88h.73l.36 7.88h.72l.36-7.88h.37l.36 7.88h.36l.36-7.88h.36l.37 7.88.36-7.88h.36l.36 7.88h1.09l.36-7.88.36 7.88h.73l.36-7.88.36 7.88.36-7.88h.37l.36 7.88h.36l.36-7.88h.73l.36 7.88h.36l.36-7.88h.73l.36 7.88h.36l.36-7.88.37 7.88h.36l.36-7.88.36 7.88h1.09l.36-7.88h1.09l.36 7.88h1.08l.37-7.88h.72l.36 7.88.37-7.88.36 7.88h.36l.36-7.88h.73l.36 7.88h.36l.36-7.88.36 7.88h.37l.36-7.88h1.45l.36 7.88h.72l.36-7.88h.37l.36 7.88.36 8.28.36-8.28h.37l.36-7.88.36 7.88.36-7.88.36 7.88h1.09l.36-7.88h.36l.37 7.88.36-7.88.36 7.88h1.09l.36-7.88h.36l.36 7.88.37-7.88h1.44l.37 7.88h.36l.36-7.88h.36l.36 7.88.37-7.88.36-7.54.36 7.54h.72l.37 7.88h.36l.36-7.88h.36l.36 7.88h.73l.36-7.88h.36l.37 7.88.36-7.88.36 7.88.36-7.88.36-7.54.37 7.54.36-7.54.36 7.54h.36l.36 7.88.37-7.88.36 7.88h.72l.36-7.88h.37l.36 7.88.36-7.88.36 7.88h.37l.36-7.88.36 7.88.36-7.88h.36l.37 7.88h1.44l.37-7.88h.36l.36 7.88h.36l.36-7.88.37 7.88.36-7.88.36 7.88.36-7.88h.36l.37 7.88.36-7.88h.72l.37 7.88h.36l.36 8.28.36-8.28.36-7.88h1.45l.36 7.88h.37l.36-7.88.36 7.88h1.09l.36-7.88.36 7.88.36-7.88h.37l.36 7.88h.36l.36-7.88.36 7.88h.37l.36-7.88.36 7.88h.36l.36-7.88.37 7.88.36-7.88h.36l.36 7.88h.36l.37-7.88h.72l.36 7.88.37 8.28.36-16.16h.36l.36 7.88.36-7.88.37 7.88h.72l.36-7.88h.36l.37 7.88h.72l.36-7.88h.36l.37 7.88h.36l.36-7.88h1.09l.36 7.88h.36l.36-7.88h.37l.36 7.88.36-7.88.36 7.88h.73l.36-7.88.36 7.88h.36l.36-7.88.37 7.88h.72l.36-7.88h1.09l.36 7.88h.36l.37-7.88h.72l.36 7.88h.36l.37-7.88h.36l.36 7.88.36-7.88h.36l.37 7.88h.72l.36-7.88h.36l.37 7.88h.36l.36-7.88h.72l.37 7.88.36-7.88h1.09l.36 7.88h.72l.36-7.88.37 7.88h1.08l.36-7.88h1.81l.37 7.88h.36l.36-7.88.36 7.88h1.45l.36-7.88.37 7.88.36-7.88h.72l.36 7.88.37-7.88h.36l.36 7.88h.72l.37-7.88.36 7.88.36-7.88h.36l.36 7.88h2.54l.36-7.88h.36l.37 7.88.36-7.88h.36l.36 7.88h.73l.36-7.88h.36l.36 7.88h.36l.37-7.88.36 7.88h.36l.36-7.88h.37l.36 7.88h1.08l.37 8.28.36-8.28.36-7.88h.36l.36 7.88.37-7.88h.36l.36 7.88.36 8.28.36-16.16.37 7.88h.36l.36-7.88h.36l.37 7.88.36-7.88.36 7.88h.36l.36-7.88.37 7.88.36-7.88h1.81l.36 7.88.36-7.88.36-7.54.37 7.54h.36l.36 7.88h.72l.37-7.88.36 7.88h.36l.36-7.88.37 7.88h.72l.36-7.88.36 7.88h.37l.36-7.88h.36"/><use xlink:href="#dcb90__c" color="#FFAB00" transform="matrix(3.75 0 0 3.75 67.83 122.74)"/><use xlink:href="#dcb90__c" color="#FFAB00" transform="matrix(3.75 0 0 3.75 78.65 22.51)"/></g><text stroke-linecap="round" stroke-linejoin="round" color="#000" font-family="KaTeX_Main" font-size="8" transform="translate(241.1 10.11)"><tspan>AVLRelaxedBottomUp</tspan></text><g fill="none" stroke="currentColor" stroke-linecap="round" stroke-linejoin="round" color="#000"><path stroke="#D336C8" d="M205.6 7.51h29.9M28 122.74h11.59l.36-7.88h34.76l.36-7.54h59.75l.36-7.21h131.44l.36-6.92h105.01"/><use xlink:href="#dcb90__a" color="#D336C8" transform="matrix(3.75 0 0 3.75 125.4 107.32)"/><use xlink:href="#dcb90__a" color="#D336C8" transform="matrix(3.75 0 0 3.75 220.55 7.51)"/></g><text stroke-linecap="round" stroke-linejoin="round" color="#000" font-family="KaTeX_Main" font-size="8" transform="translate(241.1 25.11)"><tspan>AVLRelaxedTopDown</tspan></text><g fill="none" stroke="currentColor" stroke-linecap="round" stroke-linejoin="round" color="#000"><path stroke="#9F650D" stroke-dasharray="4.0,2.0,1.0,2.0" d="M205.6 22.51h29.9M28 107.32h3.26l.36-7.21h.73l.36 14.75h1.08l.37-7.54.36 7.54h1.08l.37-7.54h4.7l.37-7.21.36 7.21.36 7.54h1.45l.36-7.54h1.81l.36-7.21h.36l.37 7.21h1.81l.36-7.21.36 7.21h1.81l.36-7.21h2.18l.36 7.21h1.09l.36-7.21h.36l.36 7.21h1.09l.36-7.21.36 7.21h.36l.37-7.21.36 7.21.36-7.21h1.45l.36 7.21h3.98l.37-7.21h.36l.36 7.21h1.45l.36-7.21h3.62l.36-6.92h.73l.36 6.92h1.81l.36 7.21h.73l.36-7.21h1.08l.37-6.92h.36l.36-6.65h.73l.36 6.65h.36l.36 6.92.36 7.21h2.18l.36-7.21h2.17l.36-6.92.37 6.92h1.44l.37-6.92.36 6.92h2.53l.36-6.92h2.54l.36 6.92h2.17l.37-6.92h4.34l.36 6.92h1.81l.37-6.92h1.81l.36 6.92h1.45l.36-6.92h1.81l.36-6.65.36 6.65h.73l.36-6.65h1.81l.36 6.65.36 14.13h1.09l.36-7.21h2.18l.36-6.92.36 6.92h.36l.36-6.92.37 6.92.36-6.92h.36l.36 6.92h2.17l.37-6.92h2.53l.36 6.92h.73l.36-6.92h2.53l.37-6.65.36 13.57h7.6l.36-6.92.37 6.92h2.17l.36-6.92h.36l.37 6.92h7.24l.36-6.92h1.09l.36-6.65.36 6.65h2.53l.37-6.65h.72l.36 6.65h2.18l.36-6.65.36 6.65.36-6.65h.36l.37 13.57h2.89l.37-6.92h4.34l.36 6.92h5.8l.36-6.92h.36l.36 6.92h1.09l.36-6.92h1.45l.36 6.92h.73l.36-6.92h1.08l.37-6.65.36 6.65.36 6.92h2.17l.36-6.92h1.09l.36 6.92h1.09l.36-6.92h1.45l.36-6.65.36 13.57h1.09l.36-6.92h1.81l.36-6.65.37 6.65h1.81l.36-6.65h.72l.37-6.39.36 6.39.36-6.39.36 13.04.36-6.65h1.09l.36 6.65h1.81l.37-6.65h1.81l.36-6.39h1.81l.36 6.39h1.81l.36-6.39.36 13.04h8.33l.37-6.65h2.17l.36-6.39h2.17l.36 6.39h1.09l.36 6.65h.73l.36-6.65.36-6.39.36 6.39h1.81l.37 13.57h1.08l.36-6.92h.37l.36 6.92h1.45l.36-6.92h2.17l.36-6.65.37 13.57h2.17l.36-6.92h1.81l.36-6.65h2.54l.36 6.65h.72l.37-6.65h1.81l.36-6.39h.72l.36 6.39h1.82l.36-6.39h1.81l.36 13.04h1.09l.36-6.65h5.43l.36-6.39.36 6.39h.37l.36 6.65h11.22l.37-6.65h.72l.36 6.65h15.21l.36-6.65.36-6.39.37 13.04h3.98l.36-6.65h1.09l.36-6.39.36 6.39.36-6.39h1.45l.36 6.39h1.81l.37-6.39h.36l.36 6.39h2.9l.36-6.39h.36l.36 13.04h.37l.36-6.65.36 6.65.36-6.65.36 6.65h1.81l.37-6.65h1.08l.37 6.65h3.62l.36-6.65h.36l.36 6.65h1.81l.36-6.65h3.26l.37 6.65h1.44l.37-6.65h2.53l.36-6.39.37 13.04h6.87l.37-6.65.36 6.65h4.71l.36-6.65h1.45l.36-6.39h2.17l.36 6.39h1.45l.36-6.39.37 6.39h2.53l.36-6.39h2.9l.36 13.04h1.81l.36-6.65h1.09l.36-6.39h.36l.37 6.39h.72l.36-6.39h.37l.36 6.39.36-6.39.36 13.04h3.26l.36-6.65h3.62l.37-6.39h.36l.36 13.04h1.81l.36-6.65.36 6.65h1.09l.36-6.65h1.09l.36-6.39.36 6.39.37-6.39h.72l.36 6.39h1.45"/><use xlink:href="#dcb90__c" color="#9F650D" transform="matrix(3.75 0 0 3.75 182.98 93.19)"/><use xlink:href="#dcb90__c" color="#9F650D" transform="matrix(3.75 0 0 3.75 220.55 22.51)"/></g><path fill="none" d="M28 45.01V162.5M371.99 45.01H28" color="#000"/></svg>