<svg xmlns="http://www.w3.org/2000/svg" xmlns:xlink="http://www.w3.org/1999/xlink" viewBox="0 0 400 200"><path fill="none" d="M0 0h400v200H0z"/><defs><path id="7eb78__c" fill="currentColor" stroke="currentColor" stroke-width=".267" d="M-1-1h2v2h-2z"/><path id="7eb78__a" stroke="currentColor" stroke-width=".267" d="m0-1.33-1.33 2h2.66z"/><path id="7eb78__e" stroke="currentColor" stroke-width=".267" d="M0 1.33 1.265.411.782-1.067l-1.564-.009-.483 1.487z"/><use xlink:href="#7eb78__a" id="7eb78__g" fill="currentColor" stroke="none"/><use xlink:href="#7eb78__a" id="7eb78__b" stroke="currentColor" transform="rotate(180)"/><use xlink:href="#7eb78__b" id="7eb78__f" fill="currentColor" stroke="none"/><circle id="7eb78__d" cx="0" cy="0" r="1" stroke="currentColor" stroke-width=".267"/></defs><path fill="none" stroke="#CCC" stroke-linecap="round" stroke-linejoin="round" stroke-width=".1" d="M46.1 162.5V60.01" class="7eb78__gridline" color="#000"/><g fill="none" stroke-linecap="round" stroke-linejoin="round" stroke-width="0" color="#000"><path d="M46.1 162.5V155m0-94.99v7.5"/><text fill="#000" font-family="KaTeX_Main" font-size="8" text-anchor="middle" transform="translate(46.1 172.6)"><tspan> 1</tspan></text></g><path fill="none" stroke="#CCC" stroke-linecap="round" stroke-linejoin="round" stroke-width=".1" d="M82.31 162.5V60.01" class="7eb78__gridline" color="#000"/><g fill="none" stroke-linecap="round" stroke-linejoin="round" stroke-width="0" color="#000"><path d="M82.31 162.5V155m0-94.99v7.5"/><text fill="#000" font-family="KaTeX_Main" font-size="8" text-anchor="middle" transform="translate(82.31 172.6)"><tspan> 2</tspan></text></g><path fill="none" stroke="#CCC" stroke-linecap="round" stroke-linejoin="round" stroke-width=".1" d="M118.52 162.5V60.01" class="7eb78__gridline" color="#000"/><g fill="none" stroke-linecap="round" stroke-linejoin="round" stroke-width="0" color="#000"><path d="M118.52 162.5V155m0-94.99v7.5"/><text fill="#000" font-family="KaTeX_Main" font-size="8" text-anchor="middle" transform="translate(118.52 172.6)"><tspan> 3</tspan></text></g><path fill="none" stroke="#CCC" stroke-linecap="round" stroke-linejoin="round" stroke-width=".1" d="M154.73 162.5V60.01" class="7eb78__gridline" color="#000"/><g fill="none" stroke-linecap="round" stroke-linejoin="round" stroke-width="0" color="#000"><path d="M154.73 162.5V155m0-94.99v7.5"/><text fill="#000" font-family="KaTeX_Main" font-size="8" text-anchor="middle" transform="translate(154.73 172.6)"><tspan> 4</tspan></text></g><path fill="none" stroke="#CCC" stroke-linecap="round" stroke-linejoin="round" stroke-width=".1" d="M190.94 162.5V60.01" class="7eb78__gridline" color="#000"/><g fill="none" stroke-linecap="round" stroke-linejoin="round" stroke-width="0" color="#000"><path d="M190.94 162.5V155m0-94.99v7.5"/><text fill="#000" font-family="KaTeX_Main" font-size="8" text-anchor="middle" transform="translate(190.94 172.6)"><tspan> 5</tspan></text></g><path fill="none" stroke="#CCC" stroke-linecap="round" stroke-linejoin="round" stroke-width=".1" d="M227.15 162.5V60.01" class="7eb78__gridline" color="#000"/><g fill="none" stroke-linecap="round" stroke-linejoin="round" stroke-width="0" color="#000"><path d="M227.15 162.5V155m0-94.99v7.5"/><text fill="#000" font-family="KaTeX_Main" font-size="8" text-anchor="middle" transform="translate(227.15 172.6)"><tspan> 6</tspan></text></g><path fill="none" stroke="#CCC" stroke-linecap="round" stroke-linejoin="round" stroke-width=".1" d="M263.36 162.5V60.01" class="7eb78__gridline" color="#000"/><g fill="none" stroke-linecap="round" stroke-linejoin="round" stroke-width="0" color="#000"><path d="M263.36 162.5V155m0-94.99v7.5"/><text fill="#000" font-family="KaTeX_Main" font-size="8" text-anchor="middle" transform="translate(263.36 172.6)"><tspan> 7</tspan></text></g><path fill="none" stroke="#CCC" stroke-linecap="round" stroke-linejoin="round" stroke-width=".1" d="M299.57 162.5V60.01" class="7eb78__gridline" color="#000"/><g fill="none" stroke-linecap="round" stroke-linejoin="round" stroke-width="0" color="#000"><path d="M299.57 162.5V155m0-94.99v7.5"/><text fill="#000" font-family="KaTeX_Main" font-size="8" text-anchor="middle" transform="translate(299.57 172.6)"><tspan> 8</tspan></text></g><path fill="none" stroke="#CCC" stroke-linecap="round" stroke-linejoin="round" stroke-width=".1" d="M335.78 162.5V60.01" class="7eb78__gridline" color="#000"/><g fill="none" stroke-linecap="round" stroke-linejoin="round" stroke-width="0" color="#000"><path d="M335.78 162.5V155m0-94.99v7.5"/><text fill="#000" font-family="KaTeX_Main" font-size="8" text-anchor="middle" transform="translate(335.78 172.6)"><tspan> 9</tspan></text></g><path fill="none" stroke="#CCC" stroke-linecap="round" stroke-linejoin="round" stroke-width=".1" d="M371.99 162.5V60.01" class="7eb78__gridline" color="#000"/><g fill="none" stroke-linecap="round" stroke-linejoin="round" stroke-width="0" color="#000"><path d="M371.99 162.5V155m0-94.99v7.5"/><text fill="#000" font-family="KaTeX_Main" font-size="8" text-anchor="middle" transform="translate(371.99 172.6)"><tspan> 10</tspan></text></g><g fill="none" stroke-linecap="round" stroke-linejoin="round" stroke-width="0" color="#000"><path d="M371.99 162.5h-7.5"/><text fill="#000" font-family="KaTeX_Main" font-size="8" transform="translate(378.99 165.1)"><tspan>2.00</tspan></text></g><g fill="none" stroke-linecap="round" stroke-linejoin="round" stroke-width="0" color="#000"><path d="M371.99 147.86h-7.5"/><text fill="#000" font-family="KaTeX_Main" font-size="8" transform="translate(378.99 150.46)"><tspan>4.00</tspan></text></g><g fill="none" stroke-linecap="round" stroke-linejoin="round" stroke-width="0" color="#000"><path d="M371.99 133.22h-7.5"/><text fill="#000" font-family="KaTeX_Main" font-size="8" transform="translate(378.99 135.82)"><tspan>6.00</tspan></text></g><g fill="none" stroke-linecap="round" stroke-linejoin="round" stroke-width="0" color="#000"><path d="M371.99 118.58h-7.5"/><text fill="#000" font-family="KaTeX_Main" font-size="8" transform="translate(378.99 121.18)"><tspan>8.00</tspan></text></g><g fill="none" stroke-linecap="round" stroke-linejoin="round" stroke-width="0" color="#000"><path d="M371.99 103.93h-7.5"/><text fill="#000" font-family="KaTeX_Main" font-size="8" transform="translate(378.99 106.53)"><tspan>10.00</tspan></text></g><g fill="none" stroke-linecap="round" stroke-linejoin="round" stroke-width="0" color="#000"><path d="M371.99 89.29h-7.5"/><text fill="#000" font-family="KaTeX_Main" font-size="8" transform="translate(378.99 91.89)"><tspan>12.00</tspan></text></g><g fill="none" stroke-linecap="round" stroke-linejoin="round" stroke-width="0" color="#000"><path d="M371.99 74.65h-7.5"/><text fill="#000" font-family="KaTeX_Main" font-size="8" transform="translate(378.99 77.25)"><tspan>14.00</tspan></text></g><g fill="none" stroke-linecap="round" stroke-linejoin="round" stroke-width="0" color="#000"><path d="M371.99 60.01h-7.5"/><text fill="#000" font-family="KaTeX_Main" font-size="8" transform="translate(378.99 62.61)"><tspan>16.00</tspan></text></g><path fill="none" d="M28 60.01V162.5M371.99 60.01H28" color="#000"/><text stroke-linecap="round" stroke-linejoin="round" stroke-width="0" color="#000" font-family="KaTeX_Main" font-size="10" text-anchor="middle" transform="rotate(-90 61.38 49.88)"><tspan font-weight="bold">Duration </tspan><tspan> in milliseconds</tspan></text><text stroke-linecap="round" stroke-linejoin="round" stroke-width="0" color="#000" font-family="KaTeX_Main" font-size="10" text-anchor="middle" transform="translate(199.99 195.75)"><tspan>Operations / 10</tspan><tspan dy="-5" font-size="8">6</tspan></text><text stroke-linecap="round" stroke-linejoin="round" color="#000" font-family="KaTeX_Main" font-size="8" transform="translate(110.4 10.11)"><tspan>Conc</tspan></text><g fill="none" stroke="currentColor" stroke-linecap="round" stroke-linejoin="round" color="#000"><path stroke="#D336C8" stroke-dasharray="1.0,2.0" d="M74.9 7.51h29.9M28 76.42l.17-.21.17-.22.02-.02.16-.19.17-.21.03-.05.14-.16.17-.21.06-.07.11-.14.18-.21.07-.09.1-.12.17-.21.09-.1.08-.1.17-.21.11-.12.07-.08.17-.2.12-.14.05-.06.17-.19.15-.17.03-.03.17-.19.16-.18.01-.02.17-.19.17-.18.01-.01.17-.18.17-.18.02-.03.15-.16.17-.18.05-.04.12-.13.18-.18.06-.06.11-.12.17-.17.08-.08.09-.09.17-.17.1-.09.08-.08.17-.16.11-.11.06-.06.17-.16.14-.13.03-.03.18-.16.15-.14.02-.02.17-.16.17-.15v-.01l.18-.15.17-.15.01-.02.16-.14.17-.15.03-.03.14-.12.18-.15.05-.04.12-.1.17-.15.07-.06.1-.09.17-.14.09-.07.09-.07.17-.14.1-.09.07-.05.17-.14.12-.1.05-.04.18-.14.14-.11.03-.02.17-.13.16-.12.01-.02.17-.13.18-.12v-.01l.17-.12.17-.12.02-.02.15-.11.18-.11.03-.03.14-.09.17-.12.06-.03.11-.08.17-.11.08-.05.1-.05.17-.11.09-.05.08-.05.17-.1.11-.06.06-.03.18-.09.13-.06.04-.03.17-.08.15-.07.02-.01.17-.07.17-.07h.01l.17-.07.17-.06.01-.01.16-.05.17-.05.03-.01.15-.04.17-.05.05-.01.12-.03.17-.03.07-.02.11-.02.17-.02.08-.01.09-.02.17-.01.1-.01.07-.01.18-.01h.11l.06-.01h.34l.17.01h.18l.17.01.17.02.17.01.17.02h.02l.16.02.17.02.03.01.14.02.17.02.06.01.11.02.18.03.07.01.1.02.17.03.09.01.08.02.18.03.1.02.07.01.17.03.13.02.04.01.17.03.15.02.03.01.17.03.16.02h.01l.17.03.17.03H49l.17.02.17.02.02.01.15.01.17.02.05.01.12.01.18.02.06.01.11.01.17.01.08.01h.09l.17.01.1.01h.08l.17.01.11.01h.23l.14.01h.9l.17-.01h.17l.17-.01h.03l.14-.01.18-.01h.05l.12-.01.17-.01h.07l.1-.01.17-.01.09-.01.09-.01.17-.01.1-.01.07-.01.17-.01.13-.01.04-.01.18-.02.14-.01h.03l.17-.02.16-.02h.01l.18-.02.17-.02.17-.02.17-.02.02-.01.15-.01.18-.03h.04l.13-.02.17-.02.06-.01.11-.01.17-.03.08-.01.1-.01.17-.02.09-.02.08-.01.17-.02.11-.02.06-.01.18-.02.13-.02h.04l.17-.03.15-.02h.02l.17-.03.17-.02h.01l.17-.03.17-.02h.01l.16-.03.17-.02.03-.01.15-.02.17-.02.05-.01.12-.02.17-.02.07-.01.11-.02.17-.02.08-.01.09-.02.17-.02.1-.01.07-.01.18-.03.11-.02h.06l.17-.03.14-.02h.03l.17-.02.16-.03h.02l.17-.02.17-.02.17-.03.17-.02h.02l.16-.02.17-.03h.04l.13-.02.17-.02.06-.01.11-.01.18-.02.07-.01.1-.01.17-.02.09-.01.08-.01.18-.02.1-.02H65l.17-.02.13-.02h.04l.17-.02.15-.02h.03l.17-.02.16-.02h.01l.17-.01.17-.02h.01l.17-.02.17-.02h.02l.15-.01.17-.02h.05l.12-.01.18-.02h.06l.11-.01.17-.02h.08l.09-.01.17-.02h.1l.08-.01.17-.01.11-.01h.06l.17-.02.14-.01h.04l.17-.01.15-.01h.02l.17-.01.17-.02.18-.01.17-.01H70l.16-.01.17-.01h.04l.13-.01.18-.01h.05l.12-.01.17-.01h.07l.1-.01.17-.01h.18l.17-.01.1-.01h.07l.17-.01.13-.01h.04l.18-.01h.14l.03-.01h.17l.16-.01h.01l.18-.01.17-.01.17-.01h.19l.15-.01.18-.01h.04l.13-.01.17-.01h.17l.17-.01h.08l.1-.01.17-.01h.17l.17-.01.11-.01h.06l.18-.01.13-.01h.04l.17-.01h.17l.17-.01.17-.01h.01l.17-.01.17-.01h.01l.16-.01.18-.01h.17l.17-.01.05-.01h.12l.17-.01.07-.01h.11l.17-.01h.08l.09-.01.17-.01h.1l.07-.01.18-.01h.12l.05-.01.17-.01.14-.01h.03l.17-.01.16-.01h.02l.17-.01.17-.01.17-.01.17-.01h.02l.16-.01.17-.01h.04l.13-.01.17-.01h.06l.12-.01.17-.01h.07l.1-.01.17-.01h.17l.18-.01.1-.01h.07l.17-.01.13-.01h.04l.17-.01.15-.01h.03l.17-.01.16-.01h.01l.17-.01.17-.01h.01l.17-.01.17-.01h.02l.15-.01.17-.01h.17l.18-.01.06-.01h.11l.17-.01h.08l.09-.01h.18l.09-.01h.08l.17-.01h.12l.05-.01h.17l.14-.01h.04l.17-.01h.17l.17-.01.17-.01h.18l.17-.01h.17l.17-.01h.04l.13-.01h.35l.17-.01h.17l.17-.01h.18l.17-.01h.34l.13-.01h.39l.17-.01h.52l.17-.01h.92l.11-.01h3.62l.17.01h1.2l.17.01h.88l.16.01h.69l.17.01h.69l.1.01h.58l.15.01h.54l.17.01h.69l.05.01h.64l.08.01h.78l.17.01h.52l.17.01h.69l.17.01h.86l.17.01h.87l.17.01h.86l.17.01h1.2l.08.01h.96l.13.01h1.08l.16.01h1.04l.17.01h1.2l.17.01h1.25l.13.01h1.55l.13.01h1.59l.17.01h1.21l.17.01h1.03l.17.01h.69l.04.01h.72l.1.01h.63l.06.01h.52l.14.01h.37l.18.01h.34l.17.01h.52l.17.01h.34l.08.01h.44l.17.01h.35l.13.01h.56l.16.01h.36l.16.01h.35l.17.01h.52l.17.01h.69l.12.01h.74l.17.01h1.26l.12.01h3.95l.18-.01h1.37l.17-.01h1.09l.12-.01h.97l.06-.01h1.03l.18-.01h.9l.13-.01h1.03l.17-.01h1.04l.16-.01h1.09l.12-.01h1.03l.18-.01h1.2l.17-.01h1.38l.17-.01h1.9l.17-.01h4.64l.18.01h2.06l.17.01h1.38l.1.01h1.45l.17.01h1.27l.11.01h1.55l.15.01h15.57l.11.01h2.23l.18.01h2.58l.17.01h4.51l.14.01h3.61l.17.01h1.72l.15.01h1.45l.12.01h1.21l.12.01h1.25l.18.01h1.37l.1.01h1.28l.16.01h2.25l.17.01h5.19l.15-.01h2.23l.15-.01h1.45l.12-.01h1.38l.17-.01h1.38l.17-.01h1.2l.18-.01h1.56l.16-.01h6.19l.16.01h1.39l.06.01h.97l.12.01h1.09l.17.01h1.27l.11.01h4.13l.11-.01h1.09l.17-.01h1.04l.17-.01h.69l.1-.01h.76l.17-.01h.88l.15-.01h1.03l.18-.01h4.81l.18.01h1.2l.05.01h1.16l.17.01h1.03l.17.01h.86l.17.01h1.04l.11.01h1.09l.17.01h.91l.13.01h.96l.07.01h.86l.15.01h.73l.15.01h.69l.17.01h.52l.17.01h.69l.14.01h.55l.17.01h.52l.17.01h.69l.08.01h.78l.17.01h1.03l.17.01h4.13l.18-.01h1.03l.11-.01h.75l.17-.01h.69l.17-.01h.52l.17-.01h.52l.17-.01h.51l.18-.01h.51l.17-.01h.69l.17-.01h.52l.17-.01h.8l.06-.01h1.03l.01-.01h1.54l.18-.01h5.67l.18-.01h1.2l.17-.01h.86l.18-.01h.51l.17-.01h.69l.17-.01h.52l.17-.01h.52l.17-.01h.69l.16-.01h1.39l.05-.01h2.01l.17.01h1.55l.18.01h1.2l.17.01h1.72l.18.01h1.72l.16-.01h1.56l.17-.01h.86l.17-.01h.86l.17-.01h.69l.17-.01h.69l.09-.01h.77l.18-.01h.68l.18-.01h.68l.04-.01h.82l.18-.01h.81l.05-.01h1.03l.01-.01h1.54l.17-.01h1.55l.17.01h1.28l.1.01h.86l.12.01h.74l.17.01h.69l.17.01h1.21l.17.01h6.99l.06.01h1.39l.16.01h2.07l.17.01h2.75l.17.01h1.56l.17.01h1.28l.09.01h2.58l.18.01h1.37l.12.01h.57l.16.01h.18l.18.01h.34l.02.01h.15l.17.01h.18l.17.01h.17l.17.01h.08l.1.01.17.01h.17l.17.01.11.01h.06l.18.01.12.01h.05l.17.01h.15l.02.01h.17l.17.01h.01l.17.01.17.01h.01l.16.01.17.01h.18l.17.01h.04l.13.01h.17l.07.01h.28l.08.01h.26l.1.01h.76l.17.01h.35l.17-.01h.86l.17-.01h.52l.17-.01h.45l.07-.01h.34l.17-.01h.52l.17-.01h.35l.17-.01h.38l.13-.01h.35l.17-.01h.44l.08-.01h.34l.17-.01h.17l.18-.01h.17l.17-.01h.17l.18-.01h.18l.16-.01h.2l.14-.01.18-.01h.17l.17-.01h.07l.1-.01h.17l.09-.01h.09l.17-.01h.1l.07-.01.17-.01h.17l.18-.01.14-.01h.03l.17-.01.16-.01h.18l.18-.01.17-.01h.19l.15-.01h.35l.17-.01h.17l.17-.01h.18l.17-.01.09-.01h.08l.17-.01.11-.01.06-.01.18-.01.12-.01.05-.01.17-.01.15-.01h.02l.17-.01h.18l.17.01.17.01h.01l.16.02.17.03.03.01.15.03.17.05.05.01.12.04.17.05.07.01.11.01.17.01h.08l.09-.01.17-.08.1-.05.07-.05.18-.17.11-.09.06-.02.17-.07.14-.02.03.01.17.33.16.5.02.07.17 1.06.08.66.09.62"/><use xlink:href="#7eb78__c" color="#D336C8" transform="matrix(3.75 0 0 3.75 366.2 61.69)"/><use xlink:href="#7eb78__c" color="#D336C8" transform="matrix(3.75 0 0 3.75 89.85 7.51)"/></g><text stroke-linecap="round" stroke-linejoin="round" color="#000" font-family="KaTeX_Main" font-size="8" transform="translate(110.4 25.11)"><tspan>LBSTBottomUp</tspan></text><g fill="none" stroke="currentColor" stroke-linecap="round" stroke-linejoin="round" color="#000"><path stroke="#3B75EA" d="M74.9 22.51h29.9M28 152.55l.17-.1.17-.1.02-.01.16-.09.17-.1.03-.02.14-.08.17-.1.06-.03.11-.07.18-.1.07-.04.1-.06.17-.1.09-.05.08-.05.17-.1.11-.07.07-.03.17-.1.12-.08.05-.02.17-.1.15-.09.03-.01.17-.1.16-.09.01-.01.17-.1.17-.09.01-.01.17-.09.17-.1.02-.01.15-.08.17-.1.05-.02.12-.07.18-.1.06-.03.11-.06.17-.09.08-.04.09-.05.17-.09.1-.06.08-.03.17-.09.11-.06.06-.03.17-.09.14-.07.03-.02.18-.09.15-.08.02-.01.17-.09.17-.08v-.01l.18-.08.17-.09.01-.01.16-.08.17-.09.03-.01.14-.08.18-.08.05-.03.12-.06.17-.09.07-.03.1-.06.17-.08.09-.05.09-.04.17-.09.1-.05.07-.03.17-.09.12-.06.05-.03.18-.09.14-.07.03-.01.17-.09.16-.08h.01l.17-.09.18-.08v-.01l.17-.08.17-.08.02-.01.15-.07.18-.09.03-.01.14-.07.17-.08.06-.02.11-.06.17-.07.08-.04.1-.04.17-.08.09-.04.08-.03.17-.07.11-.05.06-.02.18-.07.13-.05.04-.02.17-.07.15-.05.02-.01.17-.06.17-.06.01-.01.17-.05.17-.06h.01l.16-.05.17-.06.03-.01.15-.04.17-.04.05-.02.12-.03.17-.04.07-.02.11-.02.17-.04.08-.02.09-.02.17-.03.1-.02.07-.02.18-.02.11-.02.06-.01.17-.03.14-.02h.03l.17-.02.16-.02h.02l.17-.02.17-.01.17-.02.17-.01h.02l.16-.01.17-.01h.17l.17-.01h.17l.18-.01h.51l.18-.01h.51l.17.01h1.72l.18-.01h.51l.17-.01h.35l.11-.01h.23l.14-.01h.21l.15-.01h.02l.17-.01h.17l.18-.01h.17l.01-.01h.16l.17-.01h.03l.14-.01h.18l.05-.01h.12l.17-.01h.17l.17-.01.09-.01h.09l.17-.01h.17l.17-.01h.13l.04-.01h.18l.14-.01h.03l.17-.01h.17l.18-.01.17-.01h.17l.17-.01h.17l.18-.01h.17l.17-.01h.17l.17-.01h.18l.17-.01h.17l.17-.01h.17l.18-.01h.17l.17-.01h.17l.17-.01h.18l.17-.01h.18l.16-.01h.2l.15-.01h.22l.12-.01h.24l.11-.01h.17l.08-.01h.26l.1-.01h.07l.18-.01h.17l.17-.01.14-.01h.2l.16-.01h.02l.17-.01h.17l.17-.01.17-.01h.02l.16-.01.17-.01h.17l.17-.01h.06l.11-.01.18-.01h.07l.1-.01.17-.01h.09l.08-.01h.18l.1-.01H65l.17-.01.13-.01h.04l.17-.01.15-.01h.03l.17-.01.16-.01h.01l.17-.01.17-.01h.01l.17-.01.17-.01h.17l.17-.01.05-.01h.12l.18-.01h.06l.11-.01.17-.01h.08l.09-.01.17-.01h.1l.08-.01h.17l.11-.01h.06l.17-.01.14-.01h.04l.17-.01h.17l.17-.01.17-.01.18-.01.17-.01h.17l.17-.01h.04l.13-.01h.18l.05-.01h.12l.17-.01h.07l.1-.01h.17l.09-.01h.09l.17-.01h.17l.17-.01h.17l.18-.01.14-.01h.2l.16-.01h.01l.18-.01h.17l.17-.01h.19l.15-.01.18-.01h.17l.17-.01h.17l.17-.01h.18l.17-.01h.09l.08-.01h.17l.11-.01h.24l.13-.01h.21l.15-.01h.19l.17-.01h.01l.17-.01h.18l.16-.01h.2l.15-.01h.22l.12-.01h.24l.11-.01h.17l.08-.01h.26l.1-.01h.25l.12-.01h.22l.14-.01h.36l.02-.01h.34l.17-.01h.19l.16-.01H81l.17-.01h.35l.07-.01h.44l.18-.01h.34l.13-.01h.39l.17-.01h.34l.17-.01h.37l.15-.01h.34l.18-.01h.34l.08-.01h.36l.08-.01h.34l.17-.01h.18l.17-.01h.34l.17-.01h.18l.17-.01h.17l.17-.01h.17l.18-.01h.17l.17-.01h.07l.1-.01h.26l.09-.01h.17l.1-.01h.24l.13-.01h.05l.17-.01h.17l.17-.01.16-.01h.19l.17-.01h.17l.17-.01H91l.15-.01h.18l.04-.01h.13l.17-.01h.17l.17-.01h.18l.17-.01h.09l.08-.01h.17l.11-.01h.06l.18-.01h.17l.17-.01h.17l.17-.01h.18l.17-.01h.18l.16-.01h.18l.03-.01h.31l.05-.01h.29l.07-.01h.28l.08-.01h.36l.07-.01h.3l.05-.01h.34l.17-.01h.18l.17-.01h.34l.17-.01h.35l.04-.01h.36l.12-.01h.34l.17-.01h.17l.18-.01h.34l.13-.01h.36l.03-.01h.34l.17-.01h.18l.17-.01h.34l.17-.01h.17l.18-.01h.17l.17-.01h.35l.09-.01h.25l.12-.01h.22l.14-.01h.21l.15-.01h.36l.18-.01h.18l.16-.01h.21l.13-.01h.35l.17-.01h.17l.17-.01h.35l.1-.01h.24l.13-.01h.39l.17-.01h.17l.18-.01h.34l.17-.01h.39l.13-.01h.34l.17-.01h.35l.09-.01h.42l.18-.01h.34l.15-.01h.2l.16-.01h.36l.16-.01h.35l.17-.01h.17l.17-.01h.35l.08-.01h.36l.07-.01h.3l.05-.01h.34l.17-.01h.18l.17-.01h.17l.17-.01h.19l.16-.01h.17l.04-.01h.13l.17-.01h.18l.17-.01h.17l.17-.01h.17l.18-.01h.17l.17-.01h.13l.04-.01h.17l.15-.01h.2l.16-.01h.18l.17-.01h.01l.17-.01h.2l.14-.01h.17l.05-.01h.13l.17-.01h.17l.17-.01h.17l.18-.01h.09l.08-.01h.17l.12-.01h.22l.14-.01h.04l.17-.01h.17l.17-.01h.17l.18-.01h.17l.01-.01h.16l.17-.01h.17l.18-.01h.17l.17-.01h.17l.17-.01h.09l.09-.01h.28l.06-.01h.17l.13-.01h.22l.14-.01h.2l.16-.01h.19l.17-.01h.17l.17-.01h.03l.14-.01h.22l.13-.01h.23l.11-.01h.35l.17-.01h.17l.17-.01h.17l.18-.01h.17l.17-.01h.17l.18-.01h.34l.17-.01h.17l.18-.01h.39l.12-.01h.35l.17-.01h.34l.1-.01h.42l.17-.01h.34l.16-.01h.53l.18-.01h.68l.06-.01h.8l.18-.01h.68l.15-.01h.89l.17-.01h.86l.17-.01h.69l.12-.01h.57l.15-.01h.54l.17-.01h.51l.18-.01h.51l.18-.01h.45l.06-.01h.35l.17-.01h.51l.18-.01h.34l.17-.01h.39l.13-.01h.34l.17-.01h.44l.08-.01h.52l.13-.01h.38l.18-.01h.52l.16-.01h.35l.17-.01h.52l.17-.01h.51l.18-.01h.48l.03-.01h.52l.17-.01h.37l.15-.01h.34l.17-.01h.42l.1-.01h.34l.18-.01h.34l.13-.01h.36l.03-.01h.34l.17-.01h.18l.17-.01h.2l.14-.01h.22l.13-.01h.23l.11-.01h.25l.09-.01h.18l.1-.01h.24l.12-.01h.05l.17-.01h.18l.17-.01h.17l.17-.01.17-.01h.18l.17-.01h.17l.17-.01h.04l.13-.01h.18l.05-.01h.12l.17-.01h.17l.18-.01h.08l.09-.01h.17l.11-.01h.06l.17-.01h.18l.17-.01.14-.01h.2l.16-.01h.01l.18-.01.17-.01h.17l.17-.01h.03l.14-.01h.18l.04-.01h.13l.17-.01h.17l.17-.01h.08l.1-.01.17-.01h.17l.17-.01h.12l.06-.01h.17l.13-.01h.04l.17-.01h.17l.18-.01.16-.01h.18l.17-.01h.02l.15-.01h.18l.03-.01h.14l.17-.01h.17l.17-.01h.07l.11-.01h.17l.08-.01h.09l.17-.01h.17l.18-.01.12-.01h.22l.14-.01h.03l.18-.01h.17l.17-.01h.17l.17-.01.18-.01h.17l.17-.01h.04l.13-.01h.23l.12-.01h.17l.07-.01h.27l.09-.01h.08l.18-.01h.17l.17-.01h.17l.17-.01h.18l.17-.01h.17l.17-.01h.19l.16-.01h.2l.14-.01h.22l.13-.01h.23l.11-.01h.25l.09-.01h.28l.07-.01h.34l.17-.01h.18l.17-.01h.17l.17-.01h.35l.17-.01h.17l.17-.01h.18l.17-.01h.34l.07-.01h.36l.09-.01h.28l.06-.01h.35l.17-.01h.17l.17-.01h.17l.18-.01h.34l.17-.01h.17l.18-.01h.17l.17-.01h.35l.07-.01h.27l.1-.01h.24l.12-.01h.23l.13-.01h.21l.15-.01h.2l.16-.01h.18l.17-.01h.17l.18-.01h.17l.17-.01h.17l.17-.01h.18l.17-.01h.17l.17-.01h.18l.17-.01h.17l.17-.01h.17l.18-.01h.15l.02-.01h.17l.17-.01h.17l.18-.01h.17l.17-.01h.04l.13-.01h.23l.12-.01h.17l.07-.01h.1l.17-.01h.17l.18-.01h.11l.06-.01h.17l.13-.01h.04l.17-.01h.18l.17-.01.16-.01h.18l.18-.01h.01l.16-.01.17-.01h.17l.17-.01h.05l.13-.01.17-.01h.17l.17-.01.08-.01h.09l.18-.01h.1l.07-.01h.17l.12-.01h.05l.17-.01.14-.01h.04l.17-.01.15-.01h.19l.17-.01.18-.01.17-.01h.02l.15-.01.17-.01h.04l.14-.01.17-.01h.05l.12-.01h.17l.07-.01h.1l.18-.01.09-.01h.08l.17-.01.11-.01h.06l.17-.01.13-.01h.05l.17-.01.14-.01h.03l.17-.01.16-.01h.01l.18-.01h.17l.01-.01h.16l.17-.01h.03l.14-.01.18-.01h.04l.13-.01.17-.01h.06l.11-.01.18-.01h.07l.1-.01.17-.01h.1l.07-.01.17-.01h.12l.06-.01.17-.01h.13l.04-.01.17-.01h.17l.18-.01.16-.01h.01l.17-.01.17-.01h.02l.15-.01.18-.01h.03l.14-.01.17-.01h.05l.12-.01.17-.01h.07l.11-.01.17-.01h.09l.08-.01.17-.01h.11l.07-.01.17-.01h.17l.17-.01.14-.01h.03l.18-.01.15-.01h.02l.17-.01.17-.01h.01l.16-.01.18-.01h.02l.15-.01.17-.01h.04l.13-.01.17-.01h.06l.12-.01.17-.01h.07l.1-.01.17-.01h.1l.07-.01h.18l.11-.01h.06l.17-.01.13-.01h.04l.18-.01.14-.01h.03l.17-.01.16-.01h.01l.17-.01.18-.01h.01l.16-.01.17-.01h.17l.17-.01.05-.01h.13l.17-.01h.06l.11-.01.17-.01h.08l.09-.01h.18l.1-.01h.07l.17-.01.12-.01h.05l.17-.01h.14l.04-.01h.17l.15-.01h.02l.17-.01.18-.01.17-.01h.19l.15-.01.17-.01h.04l.14-.01h.17l.05-.01h.12l.17-.01h.17l.18-.01.09-.01h.08l.17-.01h.17l.17-.01h.13l.05-.01h.17l.14-.01h.03l.17-.01h.17l.18-.01.17-.01h.17l.17-.01h.18l.17-.01h.04l.13-.01h.23l.11-.01h.18l.07-.01h.27l.1-.01h.07l.17-.01h.18l.17-.01h.17l.17-.01h.17l.18-.01h.17l.17-.01h.17l.02-.01h.15l.18-.01h.17l.17-.01h.34l.07-.01h.28l.09-.01h.25l.11-.01h.24l.12-.01h.22l.14-.01h.21l.15-.01h.37l.16-.01h.2l.15-.01h.34l.17-.01h.18l.17-.01h.34l.1-.01h.42l.17-.01h.17l.18-.01h.34l.16-.01h.37l.16-.01h.51l.05-.01h.47l.17-.01h.45l.07-.01h.34l.17-.01h.52l.17-.01h.35l.17-.01h.52l.17-.01h.41l.1-.01h.52l.11-.01h.41l.17-.01h.51l.18-.01h.34l.17-.01h.52l.17-.01h.52l.17-.01h.46l.06-.01h.66l.02-.01h.71l.15-.01h.57l.12-.01h.69l.17-.01h.69l.14-.01h.73l.16-.01h.69l.17-.01h.69l.1-.01h.59l.13-.01h.56l.17-.01h.52l.17-.01h.52l.17-.01h.43l.08-.01h.52l.12-.01h.4l.17-.01h.34l.18-.01h.51l.17-.01h.35l.05-.01h.46l.18-.01h.45l.06-.01h.52l.14-.01h.38l.17-.01h.51l.03-.01h.49l.17-.01h.52l.17-.01h.69l.13-.01h.73l.17-.01h.69l.17-.01h.86l.17-.01h.86l.18-.01h1.24l.13-.01h1.32l.06-.01h1.55l.17-.01h1.55l.17-.01h1.21l.17-.01h1.03l.17-.01h.86l.17-.01h.69l.17-.01h.52l.17-.01h.52l.17-.01h.43l.09-.01h.51l.12-.01h.4l.17-.01h.35l.17-.01h.36l.16-.01h.51l.05-.01h.47l.17-.01h.52l.17-.01h.51l.18-.01h.52l.16-.01h.69l.18-.01h.86l.17-.01h1.2l.17-.01h1.38l.17-.01h1.55l.17-.01h1.04l.17-.01h1.14l.06-.01h1.04l.17-.01h1.03l.17-.01h1.03l.12-.01h1.43l.02-.01h1.7l.11-.01h1.61l.18-.01h1.11l.09-.01h1.03l.18-.01h.68l.18-.01h.73l.13-.01h.69l.17-.01h.69l.13-.01h.9l.17-.01h.86l.17-.01H298l.12-.01h1.25l.17-.01h1.21l.17-.01h1.03l.16-.01h.72l.16-.01h.56l.12-.01h.52l.09-.01h.43l.17-.01h.51l.18-.01h.34l.17-.01h.37l.15-.01h.34l.18-.01h.51l.17-.01h.46l.06-.01h.69l.17-.01h.69l.17-.01h.86l.17-.01h1.55l.17-.01h1.38l.17-.01h.8l.06-.01h.67l.02-.01h.52l.17-.01h.37l.15-.01h.34l.17-.01h.35l.08-.01h.36l.07-.01h.35l.17-.01h.17l.17-.01h.35l.17-.01h.17l.17-.01h.38l.14-.01h.34l.18-.01h.43l.08-.01h.69l.17-.01h.87l.17-.01h4.81l.09-.01h1.08l.04-.01h.69l.17-.01h.34l.17-.01h.52l.17-.01h.44l.08-.01h.34l.18-.01h.51l.17-.01h.53l.16-.01h.93l.1-.01h2.07l.17.01h1.38l.17.01h2.58l.04-.01h.73l.09-.01h.35l.17-.01h.34l.13-.01h.39l.17-.01h.17l.17-.01h.19l.16-.01h.34l.18-.01h.17l.17-.01h.17l.17-.01h.35l.1-.01h.41l.18-.01h.51l.17-.01h1.04l.17-.01h.86l.17.01h1.38l.17.01h1.2l.18.01h.44l.07-.01h1.02l.02-.01h.34l.17-.01h.35l.17-.01h.17l.17-.01h.17l.18-.01h.07l.1-.01h.26l.08-.01h.17l.11-.01h.24l.12-.01h.05l.17-.01h.18l.17-.01h.17l.17-.01h.17l.01-.01h.17l.17-.01h.34l.04-.01h.37l.11-.01h1.89l.17.01h.52l.17.01h.52l.17.01h.43l.09.01h.34l.17.01.12.01h.05l.18.01h.14l.03.01.17.01.16.01h.01l.17.01.18.01.17.02.17.01h.02l.15.01.18.01h.03l.14.01h.69l.17-.01.09-.01.08-.01.17-.02.11-.01.06-.01.18-.02.12-.01.05-.01.17-.02.15-.02h.02l.17-.02.17-.01h.52l.17.02h.03l.15.01.17.03.05.01.12.02.17.02.07.01.11.02.17.03h.17l.17.01h.1l.07-.01.18-.04.11-.03.06-.02.17-.07.14-.07.03-.01.17-.09.16-.11.02-.01.17-.28.08-.17.09-.16"/><use xlink:href="#7eb78__d" color="#3B75EA" transform="matrix(3.75 0 0 3.75 79.62 143.53)"/><use xlink:href="#7eb78__d" color="#3B75EA" transform="matrix(3.75 0 0 3.75 89.85 22.51)"/></g><text stroke-linecap="round" stroke-linejoin="round" color="#000" font-family="KaTeX_Main" font-size="8" transform="translate(110.4 40.11)"><tspan>TreapTopDown</tspan></text><g fill="none" stroke="currentColor" stroke-linecap="round" stroke-linejoin="round" color="#000"><path stroke="#F44336" stroke-dasharray="4.5,2.0,0.5,2.0,0.5,2.0" d="M74.9 37.51h29.9M28 150.99l.17-.14.17-.13.02-.02.16-.12.17-.13.03-.03.14-.11.17-.14.06-.04.11-.09.18-.14.07-.06.1-.08.17-.14.09-.07.08-.06.17-.14.11-.09.07-.05.17-.14.12-.1.05-.04.17-.13.15-.12.03-.02.17-.14.16-.13.01-.01.17-.13.17-.14.01-.01.17-.13.17-.13.02-.02.15-.12.17-.14.05-.03.12-.1.18-.14.06-.05.11-.09.17-.14.08-.06.09-.07.17-.14.1-.08.08-.06.17-.14.11-.09.06-.05.17-.13.14-.11.03-.03.18-.14.15-.12.02-.02.17-.14.17-.14.18-.14.17-.14.01-.01.16-.13.17-.14.03-.03.14-.11.18-.14.05-.04.12-.1.17-.14.07-.06.1-.08.17-.14.09-.07.09-.07.17-.14.1-.08.07-.06.17-.14.12-.1.05-.04.18-.13.14-.12.03-.02.17-.14.16-.12.01-.02.17-.13.18-.14.17-.13.17-.14.02-.01.15-.12.18-.13.03-.03.14-.1.17-.13.06-.05.11-.08.17-.13.08-.06.1-.07.17-.13.09-.06.08-.06.17-.12.11-.08.06-.04.18-.12.13-.09.04-.03.17-.11.15-.1.02-.02.17-.11.17-.1.01-.01.17-.1.17-.11h.01l.16-.1.17-.1.03-.01.15-.08.17-.1.05-.02.12-.07.17-.09.07-.03.11-.05.17-.08.08-.04.09-.04.17-.08.1-.04.07-.03.18-.07.11-.05.06-.02.17-.07.14-.04.03-.02.17-.06.16-.05h.02l.17-.06.17-.05.17-.05.17-.05h.02l.16-.04.17-.04.03-.01.14-.04.17-.03.06-.02.11-.02.18-.04.07-.01.1-.02.17-.03.09-.02.08-.02.18-.03.1-.01.07-.02.17-.02.13-.02.04-.01.17-.03.15-.02h.03l.17-.03.16-.02h.01l.17-.03.17-.02H49l.17-.02.17-.03h.02l.15-.02.17-.02.05-.01.12-.02.18-.02.06-.01.11-.01.17-.02.08-.01.09-.01.17-.02.1-.02.08-.01.17-.02.11-.01.06-.01.17-.02.14-.02h.04l.17-.02.15-.02h.02l.17-.03.17-.02.18-.02.17-.02h.01l.16-.02.17-.02h.03l.14-.02.18-.02.05-.01.12-.01.17-.02.07-.01.1-.01.17-.02.09-.01.09-.01.17-.02.1-.01.07-.01.17-.02.13-.01.04-.01.18-.02.14-.02h.03l.17-.02.16-.02h.01l.18-.02.17-.02.17-.02.17-.02h.02l.15-.02.18-.01.04-.01.13-.01.17-.02.06-.01.11-.01.17-.02.08-.01.1-.01.17-.02.09-.01.08-.01.17-.02.11-.01.06-.01.18-.02.13-.01.04-.01.17-.02.15-.02h.02l.17-.02.17-.02h.01l.17-.02.17-.02h.01l.16-.02.17-.02.03-.01.15-.01.17-.02.05-.01.12-.01.17-.02.07-.01.11-.02.17-.02.08-.01.09-.01.17-.02.1-.01.07-.01.18-.02.11-.01.06-.01.17-.02.14-.02h.03l.17-.02.16-.02h.02l.17-.02.17-.02.17-.02.17-.02.02-.01.16-.01.17-.02.04-.01.13-.01.17-.02.06-.01.11-.01.18-.02.07-.01.1-.01.17-.02.09-.01.08-.01.18-.02.1-.01H65l.17-.02.13-.02h.04l.17-.02.15-.01.03-.01.17-.01.16-.02h.01l.17-.02.17-.01h.01l.17-.02.17-.01.02-.01.15-.01.17-.02h.05l.12-.01.18-.02h.06l.11-.01.17-.02h.08l.09-.01.17-.02.1-.01h.08l.17-.02.11-.01h.06l.17-.02.14-.01h.04l.17-.01.15-.02h.02l.17-.01.17-.02.18-.01.17-.02H70l.16-.01.17-.01.04-.01.13-.01.18-.01.05-.01.12-.01.17-.01.07-.01.1-.01.17-.01.09-.01h.09l.17-.02.1-.01h.07l.17-.02.13-.01h.04l.18-.02.14-.01h.03l.17-.02.16-.01h.01l.18-.02.17-.01.17-.02.17-.01h.02l.15-.02.18-.01h.04l.13-.02.17-.01.06-.01h.11l.17-.02.08-.01h.1l.17-.02.09-.01h.08l.17-.02.11-.01h.06l.18-.02.13-.01h.04l.17-.02.15-.01h.02l.17-.01.17-.02h.01l.17-.01.17-.01.01-.01.16-.01.18-.01h.02l.15-.01.17-.02h.05l.12-.01.17-.01.07-.01.11-.01.17-.01h.08l.09-.01.17-.01.1-.01h.07l.18-.02h.12l.05-.01.17-.01.14-.01h.03l.17-.01.16-.01h.02l.17-.02.17-.01.17-.01.17-.01h.02l.16-.01.17-.01h.04l.13-.01.17-.01h.06l.12-.01.17-.01.07-.01h.1l.17-.01.09-.01h.08l.18-.01.1-.01h.07l.17-.01.13-.01h.04l.17-.01.15-.01h.03l.17-.01.16-.01.01-.01.17-.01.17-.01h.01l.17-.01.17-.01h.02l.15-.01.17-.01h.05l.12-.01.18-.01h.06l.11-.01.17-.01.08-.01h.09l.18-.01.09-.01h.08l.17-.01.12-.01h.05l.17-.01.14-.01.04-.01.17-.01.15-.01h.02l.17-.01.17-.01.18-.01.17-.01h.01l.16-.01.17-.01h.04l.13-.01.18-.01.05-.01h.12l.17-.02h.07l.1-.01.17-.01h.09l.09-.01.17-.01h.1l.07-.01.17-.01h.13l.05-.01.17-.01.14-.01h.03l.17-.01.16-.01h.01l.18-.01.17-.01h.17l.17-.01H91l.15-.01.18-.01h.04l.13-.01.17-.01h.06l.11-.01.17-.01h.18l.17-.01.09-.01h.08l.17-.01h.11l.06-.01h.18l.13-.01h.04l.17-.01h.15l.02-.01h.17l.17-.01h.01l.17-.01h.18l.16-.01.18-.01h.17l.17-.01h.05l.12-.01h.17l.07-.01h.11l.17-.01h.17l.17-.01h.1l.07-.01h.18l.12-.01h.22l.14-.01h.03l.17-.01h.18l.17-.01h.17l.17-.01h.17l.02-.01h.16l.17-.01h.17l.17-.01h.18l.17-.01h.07l.1-.01h.26l.08-.01h.18l.1-.01h.24l.13-.01h.04l.17-.01h.18l.17-.01h.17l.17-.01.17-.01h.18l.17-.01h.17l.17-.01h.17l.18-.01h.06l.11-.01h.25l.09-.01h.18l.09-.01h.08l.17-.01h.17l.17-.01h.18l.17-.01h.15l.02-.01h.17l.17-.01h.18l.17-.01h.01l.16-.01h.21l.13-.01.18-.01h.17l.17-.01h.07l.1-.01h.17l.09-.01h.09l.17-.01h.17l.17-.01h.13l.05-.01h.17l.14-.01h.03l.17-.01h.17l.18-.01.17-.01.17-.01h.17l.03-.01h.14l.18-.01h.04l.13-.01.17-.01h.17l.17-.01.08-.01h.1l.17-.01h.09l.08-.01h.17l.12-.01h.05l.18-.01.13-.01h.04l.17-.01h.17l.18-.01.16-.01h.01l.17-.01.17-.01h.01l.16-.01.18-.01h.17l.17-.01h.05l.12-.01.17-.01h.07l.11-.01h.17l.08-.01h.09l.17-.01.1-.01h.07l.18-.01h.17l.17-.01.14-.01h.03l.17-.01.16-.01h.19l.17-.01.17-.01.18-.01h.17l.17-.01h.04l.13-.01h.17l.06-.01h.12l.17-.01h.17l.17-.01h.09l.08-.01h.18l.11-.01h.23l.13-.01h.04l.17-.01h.18l.17-.01h.17l.17-.01h.18l.17-.01h.17l.03-.01h.31l.05-.01h.3l.06-.01h.28l.08-.01h.27l.09-.01h.37l.05-.01h.35l.17-.01h.17l.17-.01h.35l.17-.01h.17l.17-.01h.4l.12-.01h.34l.17-.01h.35l.11-.01h.41l.17-.01h.34l.16-.01h.36l.17-.01h.34l.18-.01h.51l.17-.01h.44l.08-.01h.52l.13-.01h.56l.16-.01h.73l.14-.01h.69l.17-.01h.69l.12-.01h.74l.17-.01h.69l.17-.01h.69l.07-.01h.62l.11-.01h.57l.15-.01h.37l.17-.01h.35l.17-.01h.39l.13-.01h.34l.17-.01h.35l.09-.01h.42l.17-.01h.18l.17-.01h.34l.17-.01h.18l.17-.01h.34l.04-.01h.36l.12-.01h.24l.1-.01h.35l.17-.01h.17l.17-.01h.35l.14-.01h.2l.16-.01h.36l.17-.01h.2l.14-.01h.35l.17-.01h.34l.08-.01h.44l.17-.01h.18l.17-.01h.49l.02-.01h.35l.17-.01h.34l.18-.01h.51l.17-.01h.35l.08-.01h.43l.18-.01h.34l.14-.01h.38l.17-.01h.34l.18-.01h.51l.17-.01h.42l.1-.01h.34l.18-.01h.51l.17-.01h.52l.17-.01h.35l.17-.01h.69l.06-.01h.63l.1-.01h.76l.17-.01h.69l.17-.01h.86l.17-.01h1.03l.13-.01h1.08l.17-.01h1.03l.17-.01h.87l.17-.01h.86l.17-.01h.91l.12-.01h.86l.11-.01h.75l.18-.01h.68l.18-.01h.74l.12-.01h.68l.18-.01h.68l.15-.01h.54l.18-.01h.51l.17-.01h.52l.17-.01h.52l.17-.01h.52l.17-.01h.34l.17-.01h.37l.15-.01h.35l.17-.01h.41l.1-.01h.35l.17-.01h.34l.13-.01h.39l.17-.01h.35l.17-.01h.17l.17-.01h.39l.13-.01h.34l.18-.01h.17l.17-.01h.34l.12-.01h.4l.17-.01h.17l.18-.01h.34l.17-.01h.38l.14-.01h.34l.17-.01h.35l.08-.01h.44l.17-.01h.48l.03-.01h.52l.17-.01h.52l.17-.01h.52l.17-.01h.51l.18-.01h.68l.15-.01h.89l.17-.01h1.03l.08-.01h1.3l.15-.01h1.57l.17-.01h1.89l.18-.01h1.89l.1-.01h1.96l.18-.01h2.23l.18-.01h7.91l.17-.01h2.24l.17-.01h1.25l.13-.01h1.03l.17-.01h1.04l.17-.01h.86l.17-.01h1.14l.07-.01h1.2l.17-.01h1.21l.17-.01h1.03l.13-.01h1.08l.01-.01h.85l.17-.01h.69l.1-.01h.76l.17-.01h.52l.17-.01h.55l.14-.01h.58l.1-.01h.69l.17-.01h.52l.17-.01h.69l.17-.01h.69l.06-.01h.97l.12-.01h1.09l.17-.01h1.27l.11-.01h1.55l.15-.01h1.57l.17-.01h1.55l.17-.01h2.06l.18-.01h2.27l.14.01h1.72l.17.01h1.23l.15.01h1.03l.17.01h1.03l.15.01h1.23l.17.01h1.72l.14.01h3.3l.18.01h5.16l.05-.01h2.01l.17-.01h1.21l.17-.01h1.03l.12-.01h.92l.17-.01h.86l.17-.01h.86l.17-.01h.86l.18-.01h1.03l.17-.01h1.21l.17-.01h1.2l.17-.01h1.9l.1-.01h4.37l.17.01h5.34l.17-.01h.86l.17-.01h.69l.17-.01h.52l.17-.01h.52l.17-.01h.44l.08-.01h.51l.13-.01h.56l.17-.01h.36l.16-.01h.69l.17-.01h.52l.17-.01h.86l.17-.01h1.38l.17-.01h5.68l.17.01h.86l.17.01h.78l.08.01h.52l.12.01h.39l.18.01h.34l.17.01h.37l.15.01h.34l.18.01h.34l.08.01h.36l.08.01h.34l.17.01h.35l.15.01h.36l.17.01h.52l.03.01h.83l.17.01h2.07l.17-.01h.74l.12-.01h.52l.09-.01h.42l.18-.01h.51l.17-.01h.35l.17-.01h.52l.17-.01h.51l.18-.01h.86l.17-.01h2.06l.18.01h1.72l.16.01h1.9l.17-.01h.82l.04-.01h.52l.17-.01h.36l.16-.01h.2l.14-.01h.35l.17-.01h.17l.17-.01h.18l.17-.01h.34l.12-.01h.23l.13-.01h.37l.01-.01h.35l.17-.01h.55l.14-.01h1.72l.17.01h.52l.17.01h.18l.16.01h.35l.17.01h.17l.17.01h.07l.1.01h.26l.09.01h.17l.1.01h.25l.11.01h.23l.13.01h.04l.17.01h.18l.17.01h.17l.17.01h.35l.17.01h.4l.11.01h2.42l.17-.01h.34l.17-.01h.41l.11-.01h.34l.17-.01h.35l.11-.01h.36l.04-.01h.52l.17-.01h.72l.14-.01h1.21l.1.01h.76l.17.01h.52l.17.01h.34l.17.01h.52l.17.01h1.9l.17-.01h.54l.15-.01h.34l.17-.01h.43l.09-.01h.69l.17-.01h1.72l.17.01h.86l.17.01h.52l.17.01h.69l.17.01h.86l.18.01h.51l.17.01h.35l.11.01h.23l.14.01h.21l.15.01h.19l.17.01h.18l.17.01h.37l.14.01h.52l.07-.01h.36l.09-.01h.17l.1-.01h.07l.17-.01h.12l.05-.01.18-.01h.14l.03-.01h.17l.16-.01h.01l.17-.01h.18l.17-.01h.69l.17.01h.52l.17.01h.17l.17-.01h.17l.18-.01.12-.01h.05l.17-.02.15-.01.02-.01.17-.01.17-.02h.01l.17-.02.17-.02h.01l.16-.02.17-.01.03-.01h.15l.17-.01h.41l.11.01.17.01.08.01.09.02.17.02.1.03.07.01.18.06.11.04.06.02.17.08.14.07.03.01.17.09.16.06h.02l.17.03.08.01.09.02"/><use xlink:href="#7eb78__e" color="#F44336" transform="matrix(3.75 0 0 3.75 136.99 132.61)"/><use xlink:href="#7eb78__e" color="#F44336" transform="matrix(3.75 0 0 3.75 89.85 37.51)"/></g><text stroke-linecap="round" stroke-linejoin="round" color="#000" font-family="KaTeX_Main" font-size="8" transform="translate(241.1 10.11)"><tspan>AVLTopDown</tspan></text><g fill="none" stroke="currentColor" stroke-linecap="round" stroke-linejoin="round" color="#000"><path stroke="#29C3F6" stroke-dasharray="2.5,4.0" d="M205.6 7.51h29.9M28 153.76l.17-.09.17-.09.02-.01.16-.09.17-.09.03-.02.14-.08.17-.1.06-.03.11-.06.18-.1.07-.04.1-.06.17-.09.09-.05.08-.05.17-.1.11-.06.07-.03.17-.1.12-.07.05-.03.17-.1.15-.08.03-.01.17-.1.16-.09.01-.01.17-.09.17-.1h.01l.17-.09.17-.1.02-.01.15-.09.17-.09.05-.03.12-.07.18-.09.06-.04.11-.06.17-.09.08-.05.09-.05.17-.09.1-.06.08-.04.17-.1.11-.06.06-.03.17-.1.14-.07.03-.02.18-.1.15-.08.02-.01.17-.1.17-.09.18-.1.17-.09.01-.01.16-.09.17-.09.03-.02.14-.08.18-.09.05-.03.12-.07.17-.09.07-.04.1-.06.17-.09.09-.05.09-.04.17-.1.1-.05.07-.04.17-.09.12-.07.05-.02.18-.09.14-.08.03-.01.17-.09.16-.09.01-.01.17-.09.18-.08v-.01l.17-.08.17-.09.02-.02.15-.07.18-.09.03-.02.14-.07.17-.09.06-.03.11-.06.17-.09.08-.04.1-.05.17-.09.09-.05.08-.05.17-.09.11-.06.06-.03.18-.1.13-.07.04-.02.17-.1.15-.08.02-.02.17-.1.17-.09.01-.01.17-.1.17-.1.01-.01.16-.1.17-.1.03-.02.15-.09.17-.11.05-.03.12-.08.17-.11.07-.04.11-.07.17-.12.08-.05.09-.06.17-.12.1-.07.07-.05.18-.12.11-.08.06-.04.17-.12.14-.1.03-.02.17-.13.16-.11.02-.01.17-.12.17-.13.17-.12.17-.12.02-.02.16-.11.17-.12.03-.02.14-.1.17-.12.06-.04.11-.08.18-.12.07-.05.1-.07.17-.12.09-.06.08-.05.18-.12.1-.07.07-.04.17-.11.13-.08.04-.03.17-.1.15-.09.03-.02.17-.1.16-.09.01-.01.17-.1.17-.09.01-.01.17-.09.17-.09.02-.01.15-.07.17-.09.05-.02.12-.06.18-.08.06-.03.11-.05.17-.08.08-.03.09-.04.17-.08.1-.04.08-.03.17-.06.11-.05.06-.02.17-.06.14-.05.04-.01.17-.06.15-.05.02-.01.17-.05.17-.06.18-.05.17-.05h.01l.16-.05.17-.05h.03l.14-.04.18-.05.05-.01.12-.03.17-.04.07-.02.1-.02.17-.04.09-.02.09-.02.17-.03.1-.02.07-.02.17-.03.13-.03h.04l.18-.04.14-.02.03-.01.17-.03.16-.03h.01l.18-.03.17-.03.17-.02.17-.03h.02l.15-.03.18-.02.04-.01.13-.02.17-.02.06-.01.11-.02.17-.02.08-.01.1-.01.17-.03.09-.01.08-.01.17-.02.11-.02.06-.01.18-.02.13-.01.04-.01.17-.02.15-.02h.02l.17-.03.17-.02h.01l.17-.02.17-.02h.01l.16-.02.17-.02.03-.01.15-.02.17-.02.05-.01.12-.01.17-.02.07-.01.11-.02.17-.02.08-.01.09-.01.17-.02.1-.02.07-.01.18-.02.11-.02h.06l.17-.03.14-.02h.03l.17-.02.16-.03h.02l.17-.02.17-.03.17-.02.17-.03h.02l.16-.02.17-.03h.04l.13-.02.17-.03h.06l.11-.02.18-.03.07-.01.1-.01.17-.03.09-.01.08-.01.18-.03.1-.01.07-.01.17-.03.13-.02h.04l.17-.03.15-.02.03-.01.17-.02.16-.02.01-.01.17-.02.17-.03h.01l.17-.02.17-.03h.02l.15-.02.17-.03h.05l.12-.02.18-.03h.06l.11-.02.17-.02.08-.02.09-.01.17-.02.1-.02.08-.01.17-.02.11-.02h.06l.17-.03.14-.02h.04l.17-.02.15-.03h.02l.17-.02.17-.02.18-.03.17-.02H70l.16-.02.17-.03h.04l.13-.02.18-.02.05-.01.12-.01.17-.03h.07l.1-.02.17-.02.09-.01.09-.01.17-.02.1-.02.07-.01.17-.02.13-.01.04-.01.18-.02.14-.02.03-.01.17-.02.16-.02h.01l.18-.02.17-.03.17-.02.17-.02h.02l.15-.02.18-.03h.04l.13-.02.17-.02.06-.01.11-.02.17-.02.08-.01.1-.01.17-.03.09-.01.08-.01.17-.02.11-.02.06-.01.18-.02.13-.02h.04l.17-.03.15-.02h.02l.17-.03.17-.02h.01l.17-.03.17-.02h.01l.16-.02.18-.03h.02l.15-.02.17-.03.05-.01.12-.01.17-.03.07-.01.11-.01.17-.03.08-.01.09-.01.17-.03.1-.01.07-.01.18-.03.12-.01.05-.01.17-.02.14-.02.03-.01.17-.02.16-.03h.02l.17-.02.17-.03.17-.02.17-.02.02-.01.16-.02.17-.02.04-.01.13-.02.17-.02.06-.01.12-.01.17-.03.07-.01.1-.01.17-.02.09-.01.08-.01.18-.03.1-.01.07-.01.17-.02.13-.02.04-.01.17-.02.15-.02h.03l.17-.02.16-.02.01-.01.17-.02.17-.02h.01l.17-.02.17-.02.02-.01.15-.02.17-.02.05-.01.12-.01.18-.02.06-.01.11-.02.17-.02.08-.01.09-.01.18-.02.09-.02.08-.01.17-.02.12-.02h.05l.17-.03.14-.01.04-.01.17-.02.15-.02.02-.01.17-.02.17-.02.18-.03.17-.02h.01l.16-.02.17-.03h.04l.13-.02.18-.03h.05l.12-.02.17-.03.07-.01.1-.01.17-.02.09-.02.09-.01.17-.02.1-.02.07-.01.17-.02.13-.02.05-.01.17-.02.14-.02.03-.01.17-.02.16-.03h.01l.18-.02.17-.03.17-.02.17-.03H91l.15-.02.18-.03h.04l.13-.02.17-.03.06-.01.11-.01.17-.03.08-.01.1-.01.17-.02.09-.02.08-.01.17-.02.11-.02h.06l.18-.03.13-.01.04-.01.17-.02.15-.02h.02l.17-.03.17-.02h.01l.17-.02.17-.02h.01l.16-.02.18-.02.03-.01.14-.01.17-.02.05-.01.12-.01.17-.02.07-.01.11-.01.17-.02.08-.01.09-.01.17-.02.1-.01.07-.01.18-.01.12-.02h.05l.17-.02.14-.01.03-.01.17-.01.16-.02h.02l.17-.02.17-.01.17-.02.17-.01.02-.01.16-.01.17-.02h.04l.13-.01.17-.02h.06l.12-.01.17-.02h.07l.1-.01.17-.02h.09l.08-.01.18-.02.1-.01h.07l.17-.02.13-.01h.04l.17-.01.15-.02h.03l.17-.01.16-.02h.01l.17-.01.17-.02h.01l.17-.01.17-.01.03-.01.14-.01.17-.01.05-.01.12-.01.18-.01.06-.01h.11l.17-.02h.08l.09-.01.18-.02h.09l.08-.01.17-.02h.12l.05-.01.17-.01.14-.01.04-.01.17-.01.15-.01.02-.01.17-.01.17-.01.18-.02.17-.01h.01l.16-.02.17-.01h.04l.13-.02.18-.01h.05l.12-.01.17-.02h.07l.1-.01.17-.02.09-.01h.09l.17-.02.1-.01h.07l.17-.02.13-.01h.05l.17-.01.14-.02h.03l.17-.01.16-.02h.01l.18-.01.17-.02.17-.01.17-.02h.03l.14-.01.18-.02h.04l.13-.01.17-.02h.06l.11-.01.17-.02h.08l.1-.01.17-.02h.09l.08-.01.17-.02.12-.01h.05l.18-.02.13-.01h.04l.17-.02.15-.01h.02l.18-.02.16-.02h.01l.17-.01.17-.02h.01l.16-.02.18-.01h.03l.14-.02.17-.02h.05l.12-.01.17-.02.07-.01.11-.01.17-.01.08-.01.09-.01.17-.02.1-.01h.07l.18-.02.12-.01.05-.01.17-.02.14-.01.03-.01.17-.01.16-.02h.02l.17-.02.17-.02.17-.02.18-.02h.01l.16-.01.17-.02.04-.01.13-.01.17-.02.06-.01.12-.01.17-.02h.07l.1-.02.17-.01.09-.01.08-.01.18-.02.11-.01.06-.01.17-.02.13-.01.04-.01.17-.02.15-.01.03-.01.17-.01.16-.02h.01l.17-.02.17-.02h.01l.17-.02.17-.02h.03l.14-.02.17-.02h.05l.13-.01.17-.02.06-.01.11-.01.17-.02.08-.01.09-.01.18-.01.09-.01.08-.01.17-.02.12-.01.05-.01.17-.02.14-.01h.04l.17-.02.15-.02h.02l.17-.02.17-.01.18-.02.17-.02h.01l.16-.01.17-.02h.04l.13-.02.18-.01.05-.01.12-.01.17-.02h.07l.1-.01.17-.02.09-.01h.09l.17-.02.11-.01h.06l.17-.02.13-.01h.05l.17-.02.14-.01.03-.01.17-.01.16-.01h.01l.18-.02.17-.01.17-.02.17-.01h.03l.14-.02.18-.01h.04l.13-.01.17-.02h.06l.11-.01.17-.01.08-.01.1-.01.17-.01.09-.01h.08l.17-.02h.12l.05-.01.18-.01.13-.01h.04l.17-.02.15-.01h.02l.18-.01.16-.01h.01l.17-.01.17-.01.01-.01.16-.01.18-.01h.03l.14-.01.17-.01h.05l.12-.01.17-.01h.07l.11-.01.17-.01.08-.01h.09l.17-.01.1-.01h.07l.18-.01.12-.01h.05l.17-.01.14-.01h.03l.17-.01.16-.01h.02l.17-.01.17-.01.17-.01.18-.01h.17l.17-.01h.04l.13-.01.17-.01h.06l.12-.01.17-.01h.07l.1-.01h.17l.09-.01h.08l.18-.01.11-.01h.06l.17-.01h.13l.04-.01h.17l.15-.01h.03l.17-.01.16-.01h.01l.17-.01.17-.01h.18l.17-.01h.03l.14-.01.17-.01h.05l.13-.01h.17l.06-.01h.11l.17-.01h.08l.09-.01.18-.01h.09l.08-.01h.17l.12-.01h.05l.17-.01.14-.01h.04l.17-.01h.17l.17-.01.17-.01.18-.01.17-.01h.17l.17-.01h.04l.13-.01.18-.01h.05l.12-.01h.17l.07-.01h.1l.18-.01h.08l.09-.01.17-.01h.17l.17-.01.13-.01h.05l.17-.01h.14l.03-.01h.17l.16-.01h.01l.18-.01.17-.01h.17l.17-.01h.03l.14-.01.18-.01h.17l.17-.01h.06l.11-.01.17-.01h.18l.17-.01.09-.01h.08l.17-.01h.18l.17-.01.13-.01h.04l.17-.01h.17l.18-.01.16-.01h.18l.17-.01h.01l.16-.01.18-.01h.17l.17-.01h.05l.12-.01h.17l.07-.01h.11l.17-.01h.08l.09-.01h.17l.11-.01h.06l.18-.01h.17l.17-.01.14-.01h.03l.18-.01h.17l.17-.01.17-.01h.17l.18-.01h.02l.15-.01h.17l.04-.01h.13l.17-.01h.06l.12-.01h.24l.1-.01.17-.01h.17l.18-.01h.11l.06-.01h.17l.13-.01h.04l.17-.01h.18l.17-.01h.17l.17-.01.17-.01h.18l.17-.01h.03l.14-.01h.22l.13-.01h.17l.06-.01h.28l.08-.01h.09l.18-.01h.17l.17-.01h.17l.17-.01h.18l.17-.01h.17l.17-.01h.17l.18-.01h.19l.15-.01h.21l.13-.01h.23l.12-.01h.34l.18-.01h.17l.17-.01h.34l.13-.01h.22l.14-.01h.37l.18-.01h.34l.17-.01h.35l.04-.01h.47l.17-.01h.35l.1-.01h.42l.17-.01h.49l.02-.01h.52l.17-.01h.38l.14-.01h.34l.17-.01h.43l.09-.01h.52l.12-.01h.36l.03-.01h.35l.17-.01h.34l.18-.01h.34l.04-.01h.36l.12-.01h.34l.17-.01h.17l.18-.01h.17l.17-.01h.17l.17-.01h.18l.17-.01h.17l.17-.01h.19l.16-.01h.2l.14-.01h.22l.13-.01h.23l.11-.01h.17l.08-.01h.09l.18-.01h.17l.17-.01h.17l.17-.01h.18l.17-.01.15-.01h.19l.17-.01h.18l.17-.01h.02l.15-.01h.21l.14-.01h.17l.05-.01h.12l.17-.01h.17l.18-.01h.08l.09-.01h.17l.11-.01h.23l.13-.01h.05l.17-.01h.17l.17-.01h.17l.18-.01h.17l.01-.01h.16l.17-.01h.17l.18-.01h.17l.17-.01h.17l.18-.01h.07l.1-.01h.27l.07-.01h.17l.12-.01h.23l.13-.01h.21l.15-.01h.2l.16-.01h.18l.17-.01h.17l.18-.01h.17l.17-.01h.17l.17-.01h.18l.17-.01h.17l.17-.01h.35l.12-.01h.22l.14-.01h.21l.15-.01h.19l.17-.01h.17l.18-.01h.34l.04-.01h.36l.12-.01h.24l.1-.01h.34l.18-.01h.17l.17-.01h.17l.17-.01h.18l.17-.01h.34l.18-.01h.17l.17-.01h.17l.17-.01h.18l.17-.01h.34l.08-.01h.37l.07-.01h.29l.05-.01h.35l.17-.01h.17l.17-.01h.35l.17-.01h.17l.17-.01h.35l.05-.01h.36l.1-.01h.35l.17-.01h.34l.13-.01h.36l.03-.01h.34l.18-.01h.34l.17-.01h.39l.13-.01h.34l.18-.01h.44l.07-.01h.52l.13-.01h.38l.18-.01h.34l.17-.01h.38l.14-.01h.51l.07-.01h.45l.17-.01h.47l.05-.01h.52l.15-.01h.37l.16-.01h.35l.17-.01h.4l.12-.01h.51l.1-.01h.42l.17-.01h.52l.17-.01h.34l.18-.01h.51l.17-.01h.41l.11-.01h.62l.07-.01h.51l.14-.01h.55l.18-.01h.51l.17-.01h.69l.07-.01h.62l.11-.01h.58l.14-.01h.73l.16-.01h.56l.13-.01h.59l.1-.01h.63l.06-.01h.68l.18-.01h.53l.15-.01h.57l.12-.01h.69l.17-.01h.69l.14-.01h.72l.01-.01h.85l.17-.01h.79l.07-.01h.87l.14-.01h.89l.17-.01h1.12l.08-.01h1.21l.15-.01h1.45l.12-.01h2.78l.15-.01h2.23l.15.01h11.55l.04-.01h2.2l.17-.01h1.38l.17-.01h.86l.17-.01h.69l.15-.01h.54l.17-.01h.52l.17-.01h.52l.17-.01h.34l.11-.01h.41l.17-.01h.35l.16-.01h.18l.17-.01h.37l.15-.01h.34l.17-.01h.18l.17-.01h.17l.17-.01h.35l.11-.01h.23l.13-.01h.39l.17-.01h.17l.17-.01h.19l.16-.01h.2l.14-.01h.35l.17-.01h.17l.17-.01h.35l.1-.01h.24l.12-.01h.36l.04-.01h.34l.17-.01h.35l.17-.01h.17l.17-.01h.4l.12-.01h.34l.18-.01h.34l.11-.01h.41l.17-.01h.52l.17-.01h.34l.17-.01h.52l.17-.01h.52l.17-.01h.69l.13-.01h.56l.17-.01h.86l.17-.01h.86l.17-.01h1.21l.17-.01h1.26l.12-.01h1.33l.04-.01h1.21l.17-.01h1.03l.09-.01h.95l.13-.01h.9l.17-.01h.86l.17-.01h1.03l.13-.01h1.42l.03-.01h2.04l.13-.01h2.28l.17-.01h1.55l.17-.01h1.21l.05-.01h1.15l.17-.01h1.72l.17-.01h1.9l.17.01h1.38l.17.01h1.03l.11.01h.75l.17.01h.69l.17.01h.86l.18.01h.86l.17.01h.69l.17.01h.86l.17.01h.86l.17.01h.86l.18.01h.69l.17.01h.75l.11.01h.69l.17.01h.51l.18.01h.68l.18.01h.73l.13.01h1.03l.17.01h4.3l.17-.01h1.38l.07-.01h1.65l.16-.01h7.07l.17-.01h.86l.18-.01h.68l.09-.01h.43l.17-.01h.35l.13-.01h.38l.17-.01h.18l.17-.01h.34l.17-.01h.18l.17-.01h.17l.17-.01h.18l.17-.01h.17l.17-.01h.35l.12-.01h.22l.15-.01h.19l.17-.01h.18l.17-.01h.37l.15-.01h.21l.13-.01h.34l.18-.01h.44l.07-.01h.52l.13-.01h.39l.17-.01h.53l.16-.01h.68l.18-.01h.51l.17-.01h.52l.17-.01h.35l.16-.01h.53l.17-.01h.38l.13-.01h.52l.08-.01h.61l.11-.01h.75l.17-.01h2.41l.17.01h.52l.17.01h.52l.17.01h.19l.15.01h.35l.17.01h.34l.08.01h.36l.08.01h.52l.12.01h1.6l.17-.01h.41l.1-.01h.26l.09-.01h.27l.07-.01h.18l.11-.01h.06l.17-.01h.17l.17-.01.16-.01h.02l.17-.01h.17l.17-.01.17-.01h.18l.17-.01h.03l.14-.01h.17l.06-.01h.11l.18-.01h.17l.17-.01h.34l.11-.01h1.45l.17.01h.19l.15.01h.34l.18.01h.17l.17.01h.17l.17.01h.1l.08.01h.28l.06.01h.31l.03.01h.18l.15.01h.19l.17.01h.18l.17.01h.17l.17.01h.03l.14.01h.18l.05.01h.12l.17.01h.17l.17.01h.86l.18-.01h.17l.17-.01.16-.01h.01l.17-.01.18-.01.17-.02.17-.01h.02l.15-.01.18-.01h.03l.14-.01h.69l.17.01.09.01h.08l.17.01.11.01h.06l.18.02.12.01h.05l.17.01.15.01h.37l.17-.01h.18l.16-.01.17-.02h.03l.15-.01.17-.01h.05l.12-.01h.69l.17.01h.17l.18-.01h.11l.06-.01.17-.01h.17l.17.01.16.04.02.01.17.22.08.16.09.15"/><use xlink:href="#7eb78__f" color="#29C3F6" transform="matrix(3.75 0 0 3.75 194.4 128.53)"/><use xlink:href="#7eb78__f" color="#29C3F6" transform="matrix(3.75 0 0 3.75 220.55 7.51)"/></g><text stroke-linecap="round" stroke-linejoin="round" stroke-width=".5" color="#000" font-family="KaTeX_Main" font-size="8" transform="translate(241.1 25.11)"><tspan>AVLBottomUp</tspan></text><g fill="none" stroke="currentColor" stroke-linecap="round" stroke-linejoin="round" stroke-width=".5" color="#000"><path stroke="#000" d="M205.6 22.51h29.9M28 150.14l.17-.13.17-.14.02-.02.16-.12.17-.13.03-.03.14-.11.17-.14.06-.04.11-.09.18-.14.07-.05.1-.08.17-.14.09-.07.08-.06.17-.13.11-.09.07-.05.17-.13.12-.1.05-.04.17-.13.15-.11.03-.02.17-.14.16-.12.01-.01.17-.13.17-.13.01-.01.17-.13.17-.13.02-.02.15-.11.17-.13.05-.04.12-.09.18-.13.06-.05.11-.09.17-.12.08-.06.09-.07.17-.13.1-.07.08-.06.17-.13.11-.08.06-.04.17-.13.14-.09.03-.03.18-.12.15-.11.02-.01.17-.13.17-.11v-.01l.18-.11.17-.12.01-.01.16-.11.17-.11.03-.02.14-.1.18-.11.05-.03.12-.08.17-.11.07-.04.1-.07.17-.11.09-.05.09-.06.17-.1.1-.07.07-.04.17-.1.12-.08.05-.03.18-.1.14-.08.03-.02.17-.1.16-.1h.01l.17-.11.18-.1.17-.09.17-.1.02-.02.15-.08.18-.1.03-.02.14-.08.17-.09.06-.03.11-.07.17-.09.08-.04.1-.06.17-.09.09-.05.08-.05.17-.09.11-.06.06-.03.18-.09.13-.07.04-.03.17-.09.15-.08.02-.01.17-.09.17-.09h.01l.17-.09.17-.09h.01l.16-.09.17-.08.03-.02.15-.07.17-.09.05-.02.12-.07.17-.08.07-.03.11-.06.17-.08.08-.04.09-.05.17-.08.1-.05.07-.03.18-.08.11-.06.06-.02.17-.09.14-.06.03-.01.17-.08.16-.07.02-.01.17-.08.17-.07.17-.08.17-.07.02-.01.16-.06.17-.08.03-.01.14-.06.17-.06.06-.03.11-.04.18-.07.07-.03.1-.03.17-.07.09-.03.08-.03.18-.06.1-.04.07-.02.17-.06.13-.04.04-.01.17-.06.15-.04.03-.01.17-.06.16-.04.01-.01.17-.05.17-.04.01-.01.17-.04.17-.05h.02l.15-.04.17-.05.05-.01.12-.03.18-.04.06-.01.11-.03.17-.04.08-.02.09-.02.17-.03.1-.02.08-.02.17-.04.11-.02.06-.01.17-.04.14-.02.04-.01.17-.03.15-.03h.02l.17-.04.17-.03.18-.03.17-.03h.01l.16-.03.17-.03.03-.01.14-.02.18-.03.05-.01.12-.02.17-.03.07-.01.1-.02.17-.03.09-.02.09-.01.17-.03.1-.02.07-.01.17-.03.13-.02.04-.01.18-.03.14-.03h.03l.17-.03.16-.03h.01l.18-.03.17-.03.17-.03.17-.03.02-.01.15-.02.18-.03.04-.01.13-.02.17-.03.06-.01.11-.02.17-.04.08-.01.1-.02.17-.03.09-.01.08-.02.17-.03.11-.02.06-.01.18-.03.13-.02.04-.01.17-.03.15-.03h.02l.17-.03.17-.03h.01l.17-.03.17-.03.01-.01.16-.02.17-.03.03-.01.15-.02.17-.03.05-.01.12-.02.17-.03.07-.01.11-.02.17-.03.08-.01.09-.02.17-.02.1-.02.07-.01.18-.03.11-.02h.06l.17-.03.14-.02.03-.01.17-.02.16-.03h.02l.17-.02.17-.03.17-.02.17-.03h.02l.16-.02.17-.03h.04l.13-.02.17-.02.06-.01.11-.01.18-.03.07-.01.1-.01.17-.02.09-.01.08-.01.18-.02.1-.02.07-.01.17-.02.13-.01.04-.01.17-.02.15-.01.03-.01.17-.02.16-.02h.01l.17-.02.17-.02h.01l.17-.02.17-.02h.02l.15-.02.17-.02h.05l.12-.02.18-.02h.06l.11-.02.17-.02.08-.01.09-.01.17-.02.1-.01.08-.01.17-.02.11-.01.06-.01.17-.02.14-.01.04-.01.17-.02.15-.02h.02l.17-.02.17-.02.18-.02.17-.03H70l.16-.02.17-.02h.04l.13-.02.18-.02.05-.01.12-.01.17-.03.07-.01.1-.01.17-.02.09-.01.09-.01.17-.03.1-.01.07-.01.17-.02.13-.02h.04l.18-.02.14-.02.03-.01.17-.02.16-.02h.01l.18-.02.17-.02.17-.03.17-.02h.02l.15-.02.18-.02.04-.01.13-.01.17-.02.06-.01.11-.01.17-.03h.08l.1-.02.17-.02.09-.01.08-.01.17-.02.11-.01.06-.01.18-.02.13-.01.04-.01.17-.02.15-.02h.02l.17-.02.17-.02h.01l.17-.02.17-.02h.01l.16-.02.18-.02h.02l.15-.02.17-.02h.05l.12-.02.17-.01.07-.01.11-.01.17-.02.08-.01.09-.01.17-.02.1-.01.07-.01.18-.02.12-.02h.05l.17-.02.14-.02h.03l.17-.02.16-.02h.02l.17-.02.17-.02.17-.02.17-.02h.02l.16-.02.17-.02h.04l.13-.02.17-.02.06-.01.12-.01.17-.02.07-.01.1-.01.17-.02.09-.01.08-.01.18-.02.1-.01.07-.01.17-.02.13-.02h.04l.17-.02.15-.02h.03l.17-.02.16-.02h.01l.17-.02.17-.02h.01l.17-.02.17-.02h.02l.15-.02.17-.02h.05l.12-.02.18-.02h.06l.11-.01.17-.02.08-.01.09-.01.18-.02.09-.01.08-.01.17-.02.12-.01h.05l.17-.02.14-.02h.04l.17-.02.15-.01h.02l.17-.02.17-.02.18-.01.17-.02h.01l.16-.02.17-.01.04-.01.13-.01.18-.02h.05l.12-.01.17-.02.07-.01.1-.01.17-.01.09-.01.09-.01.17-.01.1-.01.07-.01.17-.01.13-.02h.05l.17-.02.14-.01h.03l.17-.02.16-.01.01-.01.18-.01.17-.02.17-.01.17-.02H91l.15-.02.18-.01.04-.01.13-.01.17-.02h.06l.11-.02.17-.01.08-.01.1-.01.17-.02.09-.01.08-.01.17-.01.11-.02h.06l.18-.02.13-.01.04-.01.17-.02.15-.02h.02l.17-.02.17-.02h.01l.17-.02.17-.02h.01l.16-.02.18-.02h.03l.14-.02.17-.02h.05l.12-.02.17-.02.07-.01.11-.01.17-.02.08-.01.09-.02.17-.02.1-.01.07-.01.18-.02.12-.02h.05l.17-.03.14-.01.03-.01.17-.02.16-.02h.02l.17-.03.17-.02.17-.02.17-.03h.02l.16-.02.17-.02.04-.01.13-.01.17-.03h.06l.12-.02.17-.02.07-.01.1-.02.17-.02.09-.01.08-.01.18-.03.1-.01.07-.01.17-.02.13-.02h.04l.17-.03.15-.02h.03l.17-.02.16-.02.01-.01.17-.02.17-.02h.01l.17-.02.17-.03h.03l.14-.02.17-.02.05-.01.12-.01.18-.02.06-.01.11-.02.17-.02.08-.01.09-.01.18-.02.09-.01.08-.01.17-.02.12-.02.05-.01.17-.02.14-.01.04-.01.17-.02.15-.02h.02l.17-.02.17-.02.18-.02.17-.03h.01l.16-.02.17-.02h.04l.13-.02.18-.02.05-.01.12-.01.17-.02.07-.01.1-.01.17-.02.09-.01.09-.01.17-.02.1-.01.07-.01.17-.02.13-.02h.05l.17-.02.14-.02h.03l.17-.02.16-.02h.01l.18-.02.17-.02.17-.02.17-.02.03-.01.14-.01.18-.02.04-.01.13-.01.17-.02.06-.01.11-.01.17-.02.08-.01.1-.01.17-.02.09-.01.08-.01.17-.01.12-.02h.05l.18-.02.13-.02h.04l.17-.02.15-.01.02-.01.18-.01.16-.02h.01l.17-.02.17-.02h.01l.16-.01.18-.02h.03l.14-.02.17-.01.05-.01.12-.01.17-.02h.07l.11-.01.17-.02.08-.01.09-.01.17-.01.1-.01.07-.01.18-.01.12-.01.05-.01.17-.01.14-.01.03-.01.17-.01.16-.02h.02l.17-.01.17-.02.17-.01.18-.01.01-.01.16-.01.17-.01h.04l.13-.02.17-.01h.06l.12-.01.17-.02h.07l.1-.01.17-.01.09-.01h.08l.18-.02.11-.01h.06l.17-.01.13-.01h.04l.17-.02.15-.01h.03l.17-.01.16-.01h.01l.17-.01.17-.02h.01l.17-.01.17-.01h.03l.14-.01.17-.01.05-.01h.13l.17-.01.06-.01.11-.01.17-.01h.08l.09-.01.18-.01h.09l.08-.01.17-.01.12-.01h.05l.17-.01.14-.01h.04l.17-.01.15-.01h.02l.17-.01.17-.01.18-.01.17-.01h.01l.16-.01.17-.01h.04l.13-.01.18-.01h.05l.12-.01.17-.01h.17l.17-.01.09-.01h.09l.17-.01.11-.01h.06l.17-.01h.13l.05-.01h.17l.14-.01h.03l.17-.01.16-.01h.01l.18-.01h.17v-.01h.17l.17-.01h.03l.14-.01.18-.01h.17l.17-.01h.06l.11-.01.17-.01h.18l.17-.01h.09l.08-.01.17-.01h.17l.18-.01.13-.01h.21l.15-.01h.02l.18-.01.16-.01h.18l.17-.01h.01l.16-.01h.18l.03-.01h.14l.17-.01h.05l.12-.01h.17l.07-.01h.11l.17-.01h.17l.17-.01.1-.01h.07l.18-.01h.17l.17-.01.14-.01h.2l.16-.01h.02l.17-.01.17-.01h.17l.18-.01h.02l.15-.01h.17l.04-.01h.13l.17-.01h.06l.12-.01h.17l.07-.01h.1l.17-.01h.17l.18-.01.11-.01h.23l.13-.01h.04l.17-.01h.15l.03-.01h.17l.16-.01h.01l.17-.01h.18l.17-.01.17-.01h.17l.17-.01h.05l.13-.01h.17l.06-.01h.11l.17-.01h.17l.18-.01h.09l.08-.01h.17l.12-.01h.22l.14-.01h.04l.17-.01h.17l.17-.01.17-.01h.18l.17-.01h.17l.17-.01h.04l.13-.01h.23l.12-.01h.17l.07-.01h.1l.18-.01h.17l.17-.01h.17l.17-.01h.13l.05-.01h.17l.14-.01h.2l.16-.01h.19l.17-.01.17-.01h.2l.14-.01h.18l.04-.01h.13l.17-.01h.17l.17-.01h.18l.17-.01h.09l.08-.01h.17l.12-.01h.23l.13-.01h.21l.15-.01h.02l.18-.01h.17l.17-.01h.18l.16-.01.18-.01h.17l.17-.01h.17l.17-.01h.07l.11-.01h.17l.08-.01h.26l.11-.01h.06l.18-.01h.17l.17-.01h.17l.18-.01.15-.01h.19l.17-.01h.17l.18-.01h.02l.15-.01h.21l.13-.01.17-.01h.18l.17-.01h.17l.17-.01h.09l.08-.01h.18l.11-.01h.06l.17-.01h.17l.17-.01h.18l.17-.01.16-.01h.18l.17-.01h.01l.17-.01h.2l.14-.01.17-.01h.18l.17-.01h.06l.11-.01h.17l.08-.01h.09l.18-.01h.17l.17-.01h.12l.05-.01h.17l.14-.01h.04l.17-.01h.17l.17-.01h.17l.18-.01.17-.01h.17l.17-.01h.04l.13-.01h.18l.05-.01h.12l.17-.01h.17l.18-.01h.17l.17-.01h.11l.06-.01h.17l.13-.01h.22l.14-.01h.03l.17-.01h.17l.18-.01h.17l.17-.01h.17l.03-.01h.14l.18-.01h.17l.17-.01h.17l.17-.01h.18l.17-.01h.17l.17-.01h.18l.17-.01h.17l.17-.01h.17l.18-.01h.34l.17-.01h.17l.18-.01h.17l.17-.01h.34l.07-.01h.28l.08-.01h.37l.06-.01h.35l.17-.01h.17l.18-.01h.34l.17-.01h.17l.18-.01h.34l.04-.01h.36l.12-.01h.34l.17-.01h.17l.18-.01h.34l.13-.01h.36l.03-.01h.34l.17-.01h.35l.17-.01h.17l.17-.01h.41l.11-.01h.34l.18-.01h.34l.12-.01h.4l.17-.01h.34l.17-.01h.37l.15-.01h.57l.12-.01h.52l.08-.01h.6l.13-.01h.56l.16-.01h.53l.17-.01h.75l.11-.01h.69l.17-.01h.52l.17-.01h.69l.17-.01h.52l.17-.01h.69l.08-.01h.61l.12-.01h.39l.18-.01h.51l.17-.01h.35l.17-.01h.52l.17-.01h.44l.07-.01h.35l.17-.01h.49l.03-.01h.51l.18-.01h.34l.03-.01h.49l.17-.01h.34l.08-.01h.44l.17-.01h.34l.14-.01h.36l.02-.01h.34l.18-.01h.34l.17-.01h.4l.12-.01h.34l.18-.01h.34l.11-.01h.41l.17-.01h.34l.16-.01h.19l.17-.01h.37l.14-.01h.35l.17-.01h.42l.1-.01h.34l.17-.01h.35l.13-.01h.38l.18-.01h.53l.15-.01h.35l.17-.01h.52l.17-.01h.45l.07-.01h.51l.14-.01h.55l.17-.01h.73l.13-.01h.69l.17-.01h.52l.17-.01h.86l.17-.01h.69l.17-.01h.77l.09-.01h.86l.14-.01h.9l.17-.01h.86l.17-.01h.86l.17-.01h1.04l.17-.01h.86l.17-.01h.86l.17-.01h.86l.18-.01h.68l.18-.01h.51l.17-.01h.52l.17-.01h.52l.17-.01h.5l.02-.01h.51l.18-.01h.34l.04-.01h.36l.12-.01h.34l.17-.01h.35l.11-.01h.36l.04-.01h.35l.17-.01h.17l.17-.01h.35l.17-.01h.17l.17-.01h.35l.06-.01h.37l.08-.01h.35l.17-.01h.17l.17-.01h.35l.15-.01h.19l.18-.01h.36l.15-.01h.35l.17-.01h.17l.17-.01h.44l.08-.01h.34l.17-.01h.35l.14-.01h.37l.18-.01h.34l.17-.01h.35l.04-.01h.47l.18-.01h.34l.1-.01h.42l.17-.01h.34l.15-.01h.37l.17-.01h.52l.03-.01h.48l.18-.01h.43l.08-.01h.52l.12-.01h.39l.18-.01h.52l.16-.01h.52l.04-.01h.65l.07-.01h.73l.06-.01h.69l.17-.01h.89l.14-.01h.95l.08-.01h1.21l.15-.01h1.09l.14-.01h1.03l.17-.01h.86l.17-.01h.89l.15-.01h.94l.09-.01h.86l.13-.01h.9l.17-.01h.86l.18-.01h1.03l.12-.01h1.25l.18-.01h1.55l.17-.01H261l.17.01h1.2l.18.01h.81l.05.01h.69l.17.01h.69l.17.01h.51l.18.01h.51l.17.01h.84l.02.01h.87l.17.01h4.3l.08-.01h1.12l.18-.01h.68l.18-.01h.86l.17-.01h.86l.17-.01h.85l.01-.01h1.07l.14-.01h.95l.08-.01h1.03l.17-.01h.89l.15-.01h.86l.08-.01h.78l.17-.01h.86l.17-.01h.86l.05-.01h1.33l.12-.01h2.98l.17.01h1.37l.18.01h1.37l.09.01h2.89l.12-.01h1.03l.18-.01h.51l.17-.01h.53l.16-.01h.56l.13-.01h.52l.08-.01h.6l.12-.01h.57l.16-.01h.72l.16-.01h1.03l.17-.01h1.38l.16-.01h1.21l.18-.01h.78l.08-.01h.64l.04-.01h.52l.17-.01h.36l.16-.01h.34l.17-.01h.18l.17-.01h.34l.09-.01h.36l.07-.01h.34l.18-.01h.17l.17-.01h.34l.18-.01h.17l.17-.01h.38l.14-.01h.51l.08-.01h.61l.11-.01h.75l.17-.01h2.07l.17-.01h2.27l.14-.01h.86l.09-.01h.6l.12-.01h.39l.18-.01h.34l.17-.01h.37l.15-.01h.34l.18-.01h.34l.08-.01h.44l.17-.01h.34l.13-.01h.39l.17-.01h.53l.16-.01H330l.17.01h.69l.17.01h.41l.11.01h.52l.09.01h.6l.12.01h.56l.17.01h.72l.15.01h1.72l.17.01h1.2l.02-.01h4.46l.17.01h2.97l.13-.01h1.03l.17-.01h.52l.17-.01h.34l.18-.01h.36l.15-.01h.35l.17-.01h.17l.17-.01h.35l.09-.01h.36l.06-.01h.35l.17-.01h.52l.17-.01h1.63l.09.01h.52l.11.01h.23l.14.01h.2l.16.01h.19l.17.01h.17l.17.01h.18l.17.01h.17l.17.01h.35l.07.01h.44l.17.01h.47l.05.01h1.04l.17-.01h.34l.17-.01h.17l.18-.01h.06l.11-.01h.17l.08-.01h.09l.17-.01.1-.01h.08l.17-.01.11-.01.06-.01.17-.01.14-.01h.03l.18-.01.15-.01.02-.01.17-.01.17-.01.18-.02.17-.01h.01l.16-.01.17-.02h.03l.14-.01.18-.02h.05l.12-.01.17-.01.07-.01h.1l.17-.02h.09l.09-.01.17-.01h.17l.17-.01h.17l.18-.01h.17l.17.01h.17l.17.01.18.01.17.01.17.02h.02l.15.02.18.02h.03l.14.02.17.02.06.01.11.01.17.03.08.01.1.01.17.02.09.01.08.01.17.01.11.01h.06l.18.01h.51l.17-.01.17-.01.01-.01.17-.01.17-.01h.01l.16-.02h.57l.12.01.17.02.07.02.11.02.17.05.08.02.09.03.17.06.1.04.07.03.18.06.11.04.06.02.17.04.14.02h.03l.17.01h.18l.17-.02.08-.02.09-.01"/><use xlink:href="#7eb78__g" transform="matrix(3.75 0 0 3.75 251.77 125.75)"/><use xlink:href="#7eb78__g" transform="matrix(3.75 0 0 3.75 220.55 22.51)"/></g><text stroke-linecap="round" stroke-linejoin="round" color="#000" font-family="KaTeX_Main" font-size="8" transform="translate(241.1 40.11)"><tspan>RedBlackBottomUp</tspan></text><g fill="none" stroke="currentColor" stroke-linecap="round" stroke-linejoin="round" color="#000"><path stroke="#F44336" d="M205.6 37.51h29.9M28 145.9l.17-.14.17-.14.02-.01.16-.13.17-.14.03-.03.14-.11.17-.15.06-.04.11-.1.18-.14.07-.06.1-.08.17-.14.09-.08.08-.07.17-.14.11-.09.07-.05.17-.14.12-.1.05-.04.17-.14.15-.12.03-.02.17-.14.16-.14h.01l.17-.14.17-.14.01-.01.17-.13.17-.14.02-.02.15-.12.17-.13.05-.04.12-.1.18-.13.06-.05.11-.09.17-.13.08-.06.09-.08.17-.13.1-.07.08-.06.17-.14.11-.08.06-.05.17-.13.14-.1.03-.03.18-.13.15-.12.02-.01.17-.13.17-.13.18-.13.17-.13.01-.01.16-.12.17-.13.03-.02.14-.1.18-.13.05-.04.12-.09.17-.12.07-.05.1-.08.17-.13.09-.06.09-.06.17-.12.1-.08.07-.05.17-.12.12-.08.05-.04.18-.12.14-.1.03-.02.17-.12.16-.1.01-.01.17-.12.18-.11.17-.11.17-.11.02-.02.15-.09.18-.11.03-.02.14-.08.17-.11.06-.03.11-.07.17-.09.08-.05.1-.05.17-.09.09-.05.08-.05.17-.08.11-.06.06-.03.18-.08.13-.06.04-.02.17-.08.15-.07.02-.01.17-.07.17-.06.01-.01.17-.06.17-.06.01-.01.16-.05.17-.05.03-.01.15-.05.17-.04.05-.02.12-.03.17-.04.07-.01.11-.02.17-.04.08-.01.09-.02.17-.03.1-.01.07-.01.18-.02.11-.01.06-.01.17-.01.14-.01h.03l.17-.01.16-.01h.19l.17-.01.17.01h.52l.03.01h.14l.17.01h.17l.18.01h.07l.1.01.17.01h.09l.08.01h.18l.1.01h.07l.17.01h.13l.04.01h.32l.03.01h1.03l.02-.01h.15l.17-.01h.17l.18-.01.06-.01.11-.01.17-.01h.08l.09-.01.17-.02.1-.01.08-.01.17-.01.11-.02h.06l.17-.03.14-.01.04-.01.17-.02.15-.02.02-.01.17-.02.17-.03.18-.03.17-.02.01-.01.16-.02.17-.03.03-.01.14-.02.18-.03.05-.01.12-.02.17-.03.07-.01.1-.02.17-.03.09-.02.09-.01.17-.04.1-.02.07-.01.17-.03.13-.02.04-.01.18-.03.14-.03h.03l.17-.03.16-.03h.01l.18-.03.17-.03.17-.03.17-.03.02-.01.15-.02.18-.03.04-.01.13-.02.17-.03.06-.01.11-.02.17-.02.08-.02.1-.01.17-.03.09-.01.08-.02.17-.02.11-.02.06-.01.18-.03.13-.02h.04l.17-.03.15-.02.02-.01.17-.02.17-.03h.01l.17-.02.17-.03h.01l.16-.02.17-.03h.03l.15-.03.17-.02.05-.01.12-.02.17-.02.07-.01.11-.02.17-.02.08-.02.09-.01.17-.03.1-.01.07-.01.18-.03.11-.02h.06l.17-.03.14-.02.03-.01.17-.02.16-.03h.02l.17-.03.17-.02.17-.03.17-.02.02-.01.16-.02.17-.03h.04l.13-.02.17-.03.06-.01.11-.02.18-.02.07-.02.1-.01.17-.03.09-.01.08-.01.18-.03.1-.02.07-.01.17-.02.13-.02.04-.01.17-.03.15-.02h.03l.17-.03.16-.02h.01l.17-.03.17-.02.01-.01.17-.02.17-.03h.02l.15-.02.17-.03h.05l.12-.02.18-.03h.06l.11-.02.17-.02.08-.02.09-.01.17-.02.1-.02.08-.01.17-.02.11-.02h.06l.17-.03.14-.02h.04l.17-.03.15-.02h.02l.17-.02.17-.02.18-.03.17-.02H70l.16-.02.17-.03h.04l.13-.02.18-.02.05-.01.12-.01.17-.03.07-.01.1-.01.17-.02.09-.01.09-.01.17-.03.1-.01.07-.01.17-.02.13-.02h.04l.18-.03.14-.01.03-.01.17-.02.16-.02h.01l.18-.03.17-.02.17-.02.17-.03h.02l.15-.02.18-.02.04-.01.13-.01.17-.03.06-.01.11-.01.17-.02.08-.01.1-.02.17-.02.09-.01.08-.01.17-.03.11-.01.06-.01.18-.02.13-.02.04-.01.17-.02.15-.02h.02l.17-.03.17-.02h.01l.17-.02.17-.03h.01l.16-.02.18-.02.02-.01.15-.02.17-.02.05-.01.12-.01.17-.03.07-.01.11-.01.17-.02.08-.01.09-.02.17-.02.1-.01.07-.01.18-.02.12-.02h.05l.17-.03.14-.01.03-.01.17-.02.16-.02h.02l.17-.02.17-.02.17-.03.17-.02h.02l.16-.02.17-.02h.04L81 131l.17-.02.06-.01.12-.01.17-.02.07-.01.1-.01.17-.02.09-.01.08-.01.18-.02.1-.01.07-.01.17-.02.13-.01.04-.01.17-.02.15-.01.03-.01.17-.02.16-.01h.01l.17-.02.17-.02h.01l.17-.02.17-.02h.02l.15-.02.17-.02h.05l.12-.02.18-.02h.06l.11-.02.17-.01.08-.01.09-.01.18-.02.09-.01.08-.01.17-.02.12-.01.05-.01.17-.02.14-.01.04-.01.17-.02.15-.02h.02l.17-.02.17-.02.18-.02.17-.02h.01l.16-.02.17-.02h.04l.13-.02.18-.02h.05l.12-.02.17-.02h.07l.1-.02.17-.02.09-.01.09-.01.17-.02.1-.01.07-.01.17-.02.13-.01.05-.01.17-.02.14-.01.03-.01.17-.02.16-.02h.01l.18-.02.17-.02.17-.02.17-.02H91l.15-.02.18-.02h.04l.13-.02.17-.01.06-.01.11-.01.17-.02.08-.01.1-.01.17-.02.09-.01.08-.01.17-.02.11-.01.06-.01.18-.02.13-.01.04-.01.17-.01.15-.02h.02l.17-.02.17-.02h.01l.17-.02.17-.01h.01l.16-.02.18-.02h.03l.14-.02.17-.01.05-.01.12-.01.17-.02h.07l.11-.01.17-.02.08-.01.09-.01.17-.01.1-.01.07-.01.18-.02.12-.01h.05l.17-.02.14-.01.03-.01.17-.01.16-.02h.02l.17-.02.17-.01.17-.02.17-.01.02-.01.16-.01.17-.02h.04l.13-.01.17-.02.06-.01.12-.01.17-.01.07-.01.1-.01.17-.02.09-.01h.08l.18-.02.1-.01.07-.01.17-.01.13-.02h.04l.17-.02.15-.01.03-.01.17-.01.16-.02h.01l.17-.02.17-.02h.01l.17-.02.17-.01.03-.01.14-.01.17-.02.05-.01.12-.01.18-.02.06-.01.11-.01.17-.02.08-.01.09-.01.18-.02.09-.01.08-.01.17-.02.12-.01.05-.01.17-.02.14-.01.04-.01.17-.02.15-.02h.02l.17-.02.17-.02.18-.02.17-.02h.01l.16-.02.17-.02.04-.01.13-.02.18-.02h.05l.12-.02.17-.02.07-.01.1-.01.17-.02.09-.01.09-.02.17-.02.1-.01.07-.01.17-.02.13-.02h.05l.17-.02.14-.02.03-.01.17-.02.16-.02h.01l.18-.02.17-.02.17-.02.17-.03h.03l.14-.02.18-.02h.04l.13-.02.17-.02.06-.01.11-.01.17-.02.08-.01.1-.01.17-.03.09-.01.08-.01.17-.02.12-.01.05-.01.18-.02.13-.01.04-.01.17-.02.15-.01.02-.01.18-.02.16-.01.01-.01.17-.01.17-.02.01-.01.16-.01.18-.02h.03l.14-.02.17-.02h.05l.12-.02.17-.01.07-.01.11-.01.17-.02.08-.01.09-.01.17-.01.1-.01.07-.01.18-.02.12-.01h.05l.17-.02.14-.01.03-.01.17-.01.16-.02h.02l.17-.01.17-.02.17-.01.18-.02h.01l.16-.01.17-.02h.04l.13-.01.17-.02h.06l.12-.01.17-.02h.07l.1-.01.17-.01.09-.01.08-.01.18-.01.11-.01h.06l.17-.01.13-.01.04-.01.17-.01.15-.01h.03l.17-.01.16-.02h.01l.17-.01.17-.01h.01l.17-.01.17-.01h.03l.14-.01.17-.01.05-.01.13-.01.17-.01h.06l.11-.01.17-.01h.08l.09-.01.18-.01.09-.01h.08l.17-.01.12-.01h.05l.17-.01.14-.01h.04l.17-.01.15-.01h.02l.17-.01.17-.01.18-.01.17-.01h.01l.16-.01.17-.01h.04l.13-.01.18-.01h.05l.12-.01.17-.01h.07l.1-.01.17-.01h.18l.17-.01.11-.01h.06l.17-.01.13-.01h.05l.17-.01.14-.01h.03l.17-.01.16-.01h.01l.18-.01.17-.01.17-.01h.17l.03-.01h.14l.18-.01.04-.01h.13l.17-.01h.06l.11-.01.17-.01h.08l.1-.01.17-.01h.09l.08-.01.17-.01h.17l.18-.01.13-.01h.04l.17-.01.15-.01h.02l.18-.01.16-.01h.01l.17-.01h.18l.16-.01.18-.01h.03l.14-.01.17-.01h.05l.12-.01h.17l.07-.01h.11l.17-.01.08-.01h.09l.17-.01h.1l.07-.01h.18l.12-.01h.05l.17-.01.14-.01h.03l.17-.01h.18l.17-.01.17-.01.17-.01.18-.01h.17l.17-.01h.04l.13-.01.17-.01h.18l.17-.01h.07l.1-.01.17-.01h.17l.18-.01.11-.01h.06l.17-.01h.17l.17-.01.15-.01h.03l.17-.01h.17l.17-.01.17-.01h.01l.17-.01h.17l.03-.01h.14l.17-.01h.05l.13-.01.17-.01h.17l.17-.01h.08l.09-.01.18-.01h.17l.17-.01.12-.01h.05l.17-.01h.18l.17-.01.15-.01h.02l.17-.01h.17v-.01h.18l.17-.01h.02l.15-.01.17-.01h.17l.18-.01h.05l.12-.01.17-.01h.17l.18-.01.08-.01h.09l.17-.01h.17l.17-.01.13-.01h.05l.17-.01h.17l.17-.01.16-.01h.01l.18-.01h.17l.17-.01.17-.01h.03l.14-.01h.22l.13-.01.17-.01h.17l.17-.01h.08l.1-.01h.17l.09-.01h.08l.17-.01h.18l.17-.01.13-.01h.21l.15-.01h.02l.18-.01h.17l.17-.01.17-.01h.17l.18-.01h.03l.14-.01h.22l.12-.01h.17l.07-.01h.11l.17-.01h.17l.17-.01h.11l.06-.01h.18l.12-.01h.22l.14-.01h.03l.18-.01h.17l.17-.01h.17l.17-.01.18-.01h.17l.17-.01h.04l.13-.01h.23l.12-.01h.17l.07-.01h.1l.17-.01h.17l.18-.01h.11l.06-.01h.17l.13-.01h.21l.15-.01h.03l.17-.01h.17l.17-.01.17-.01h.18l.17-.01h.17l.17-.01h.05l.13-.01h.17l.06-.01h.28l.08-.01h.09l.18-.01h.17l.17-.01h.17l.17-.01h.14l.04-.01h.17l.15-.01h.19l.17-.01h.18l.17-.01h.17l.17-.01h.17l.18-.01h.17l.17-.01h.17l.18-.01h.17l.17-.01h.17l.17-.01h.18l.17-.01h.17l.17-.01h.17l.18-.01h.17l.17-.01h.2l.14-.01h.22l.13-.01h.23l.11-.01h.35l.17-.01h.17l.17-.01h.18l.17-.01h.17l.17-.01h.17l.18-.01h.16l.01-.01h.17l.17-.01h.17l.18-.01h.17l.17-.01h.17l.17-.01h.07l.11-.01h.25l.09-.01h.17l.11-.01h.06l.18-.01h.17l.17-.01h.17l.18-.01.15-.01h.19l.17-.01.17-.01h.2l.15-.01.17-.01h.17l.17-.01h.06l.12-.01h.17l.07-.01h.1l.17-.01h.17l.18-.01.11-.01h.23l.13-.01h.04l.17-.01h.18l.17-.01.16-.01h.01l.17-.01h.19l.16-.01.17-.01h.17l.17-.01h.18l.17-.01h.06l.11-.01h.17l.08-.01h.09l.18-.01h.17l.17-.01h.12l.05-.01h.17l.14-.01h.21l.15-.01h.02l.17-.01h.17l.18-.01h.19l.15-.01.17-.01h.18l.17-.01h.17l.17-.01h.17l.18-.01h.08l.09-.01h.28l.06-.01h.17l.13-.01h.22l.14-.01h.2l.16-.01h.19l.17-.01h.01l.16-.01h.2l.14-.01h.22l.13-.01h.23l.11-.01h.18l.07-.01h.27l.1-.01h.24l.12-.01h.23l.13-.01h.21l.15-.01h.2l.16-.01h.18l.17-.01h.17l.18-.01h.17l.17-.01h.17l.17-.01h.18l.17-.01h.17l.17-.01h.35l.12-.01h.22l.14-.01h.21l.15-.01h.36l.17-.01h.35l.17-.01h.17l.17-.01h.42l.1-.01h.34l.18-.01h.47l.04-.01h.52l.16-.01h.53l.17-.01h.39l.13-.01h.59l.09-.01h.69l.17-.01h.52l.17-.01h.69l.17-.01h.69l.07-.01h.79l.17-.01h.69l.16-.01h.7l.03-.01h.83l.18-.01h.51l.17-.01h.69l.15-.01h.71l.02-.01h.67l.05-.01h.64l.09-.01h.43l.17-.01h.51l.18-.01h.34l.17-.01h.52l.17-.01h.4l.12-.01h.34l.17-.01h.46l.06-.01h.52l.14-.01h.37l.17-.01h.35l.17-.01h.39l.13-.01h.51l.08-.01h.44l.17-.01h.52l.17-.01h.52l.17-.01h.69l.17-.01h.51l.18-.01h.81l.05-.01h.86l.17-.01h.73l.13-.01h.96l.07-.01h1.03l.18-.01h.89l.14-.01h1.03l.17-.01h1.04l.15-.01h1.22l.17-.01h1.38l.13-.01h1.25l.17-.01h1.03l.09-.01h.94l.14-.01h.73l.17-.01h.55l.14-.01h.58l.1-.01h.52l.11-.01h.41l.17-.01h.51l.18-.01h.34l.17-.01h.39l.13-.01h.34l.18-.01h.51l.17-.01h.35l.13-.01h.38l.18-.01h.53l.15-.01h.35l.17-.01h.52l.17-.01h.52l.17-.01h.69l.15-.01h.53l.18-.01h.68l.06-.01h.73l.08-.01h.64l.04-.01h.69l.17-.01h.55l.14-.01h.52l.06-.01h.63l.1-.01h.59l.13-.01h.55l.18-.01h.51l.17-.01h.52l.17-.01h.69l.11-.01h.75l.17-.01h.89l.15-.01h.86l.08-.01h1.08l.04-.01h1.05l.15-.01h.69l.18-.01h.79l.07-.01h.68l.18-.01h.52l.16-.01h.56l.13-.01h.6l.09-.01h.52l.11-.01h.58l.14-.01h.37l.17-.01h.55l.14-.01h.58l.11-.01h.69l.17-.01h.69l.15-.01h.88l.17-.01h1.21l.17-.01h1.21l.17-.01h1.26l.11-.01h1.21l.13-.01h.9l.17-.01h.86l.18-.01h1.03l.12-.01h1.25l.18-.01h5.16l.17.01h1.38l.17.01h1.2l.18.01h1.03l.14.01h1.24l.17.01h1.03l.1.01h1.45l.17.01h2.93l.16-.01h.87l.17-.01h.4l.12-.01h.51l.1-.01h.36l.06-.01h.34l.18-.01h.17l.17-.01h.17l.17-.01h.19l.16-.01h.2l.14-.01h.22l.13-.01h.24l.1-.01h.17l.09-.01h.26l.1-.01h.24l.12-.01h.23l.13-.01h.21l.16-.01h.01l.17-.01h.18l.17-.01h.19l.15-.01h.35l.17-.01h.17l.17-.01h.17l.18-.01h.17l.17-.01h.35l.12-.01h.39l.17-.01h.35l.17-.01h.37l.15-.01h.51l.07-.01h.62l.1-.01h.93l.16-.01h2.94l.17.01h.87l.17.01h.55l.13.01h.35l.17.01h.44l.08.01h.34l.17.01h.17l.18.01h.34l.17.01h.17l.18.01h.34l.03.01h.36l.13.01h.24l.1.01h.35l.17.01h.17l.17.01h.35l.13.01h.21l.16.01h.36l.17.01h.55l.14.01h.68l.18.01h2.06l.17-.01h.76l.1-.01h.62l.07-.01h.52l.13-.01h.56l.17-.01h.36l.16-.01h.68l.18-.01h1.03l.12-.01h1.6l.17.01h1.72l.13.01h1.59l.18-.01h.77l.09-.01h.34l.17-.01h.35l.13-.01h.21l.16-.01h.18l.18-.01h.17l.17-.01h.02l.15-.01h.21l.14-.01.17-.01h.17l.17-.01h.08l.1-.01h.17l.09-.01h.08l.17-.01h.11l.06-.01h.18l.12-.01h.05l.17-.01h.17l.17-.01.17-.01h.18l.17-.01h.01l.16-.01h.2l.15-.01h.17l.04-.01h.3l.07-.01h.36l.09-.01h.34l.18-.01h.47l.04-.01h1.05l.16-.01h2.58l.16-.01h.87l.17-.01h.52l.17-.01h.52l.17-.01h.34l.13-.01h.39l.17-.01h.34l.18-.01h.51l.18-.01h.41l.1-.01h.69l.17-.01h2.76l.17.01h.69l.12.01h.74l.17.01h.69l.17.01h1.72l.14-.01h.55l.17-.01h.52l.17-.01h.4l.11-.01h.52l.09-.01h.6l.12-.01h.74l.17-.01h.35l.17-.01h.38l.13-.01h.24l.11-.01h.25l.09-.01h.17l.1-.01h.08l.17-.01h.17l.17-.01.14-.01h.21l.15-.01h.02l.17-.01.17-.01h.18l.17-.01h.01l.16-.01h.34l.18-.01h.17l.17.01h.17l.17.01h.09l.09.01.17.01.1.01h.07l.17.02.12.02h.05l.18.03.14.02h.03l.17.03.16.02.01.01.17.02.18.03.17.03.17.02h.02l.15.02.18.02h.03l.14.01.17.01h.42l.1-.01.17-.01.09-.01h.08l.17-.02.11-.01.06-.01.18-.02.12-.02h.05l.17-.02.15-.01h.02l.17-.01h.35l.17.01h.01l.16.02.17.02h.03l.15.02.17.02.05.01.12.02.17.02h.07l.11.01h.34l.17-.02.1-.02.07-.01.18-.03.11-.03.06-.01.17-.03.14-.03.03-.01.17-.06.16-.09.02-.02.17-.35.08-.24.09-.23"/><use xlink:href="#7eb78__a" color="#F44336" transform="matrix(3.75 0 0 3.75 309.18 123.1)"/><use xlink:href="#7eb78__a" color="#F44336" transform="matrix(3.75 0 0 3.75 220.55 37.51)"/></g><path fill="none" d="M28 60.01V162.5M371.99 60.01H28" color="#000"/></svg>