<svg xmlns="http://www.w3.org/2000/svg" xmlns:xlink="http://www.w3.org/1999/xlink" viewBox="0 0 400 200"><path fill="none" d="M0 0h400v200H0z"/><defs><use xlink:href="#3579f__a" id="3579f__b" fill="currentColor" stroke="none"/><use xlink:href="#3579f__a" id="3579f__c" stroke="currentColor" transform="rotate(180)"/><path id="3579f__a" stroke="currentColor" stroke-width=".267" d="m0-1.33-1.33 2h2.66z"/></defs><path fill="none" stroke="#CCC" stroke-linecap="round" stroke-linejoin="round" stroke-width=".1" d="M46.1 162.5V45.01" class="3579f__gridline" color="#000"/><g fill="none" stroke-linecap="round" stroke-linejoin="round" stroke-width="0" color="#000"><path d="M46.1 162.5V155m0-109.99v7.5"/><text fill="#000" font-family="KaTeX_Main" font-size="8" text-anchor="middle" transform="translate(46.1 172.6)"><tspan> 1</tspan></text></g><path fill="none" stroke="#CCC" stroke-linecap="round" stroke-linejoin="round" stroke-width=".1" d="M82.31 162.5V45.01" class="3579f__gridline" color="#000"/><g fill="none" stroke-linecap="round" stroke-linejoin="round" stroke-width="0" color="#000"><path d="M82.31 162.5V155m0-109.99v7.5"/><text fill="#000" font-family="KaTeX_Main" font-size="8" text-anchor="middle" transform="translate(82.31 172.6)"><tspan> 2</tspan></text></g><path fill="none" stroke="#CCC" stroke-linecap="round" stroke-linejoin="round" stroke-width=".1" d="M118.52 162.5V45.01" class="3579f__gridline" color="#000"/><g fill="none" stroke-linecap="round" stroke-linejoin="round" stroke-width="0" color="#000"><path d="M118.52 162.5V155m0-109.99v7.5"/><text fill="#000" font-family="KaTeX_Main" font-size="8" text-anchor="middle" transform="translate(118.52 172.6)"><tspan> 3</tspan></text></g><path fill="none" stroke="#CCC" stroke-linecap="round" stroke-linejoin="round" stroke-width=".1" d="M154.73 162.5V45.01" class="3579f__gridline" color="#000"/><g fill="none" stroke-linecap="round" stroke-linejoin="round" stroke-width="0" color="#000"><path d="M154.73 162.5V155m0-109.99v7.5"/><text fill="#000" font-family="KaTeX_Main" font-size="8" text-anchor="middle" transform="translate(154.73 172.6)"><tspan> 4</tspan></text></g><path fill="none" stroke="#CCC" stroke-linecap="round" stroke-linejoin="round" stroke-width=".1" d="M190.94 162.5V45.01" class="3579f__gridline" color="#000"/><g fill="none" stroke-linecap="round" stroke-linejoin="round" stroke-width="0" color="#000"><path d="M190.94 162.5V155m0-109.99v7.5"/><text fill="#000" font-family="KaTeX_Main" font-size="8" text-anchor="middle" transform="translate(190.94 172.6)"><tspan> 5</tspan></text></g><path fill="none" stroke="#CCC" stroke-linecap="round" stroke-linejoin="round" stroke-width=".1" d="M227.15 162.5V45.01" class="3579f__gridline" color="#000"/><g fill="none" stroke-linecap="round" stroke-linejoin="round" stroke-width="0" color="#000"><path d="M227.15 162.5V155m0-109.99v7.5"/><text fill="#000" font-family="KaTeX_Main" font-size="8" text-anchor="middle" transform="translate(227.15 172.6)"><tspan> 6</tspan></text></g><path fill="none" stroke="#CCC" stroke-linecap="round" stroke-linejoin="round" stroke-width=".1" d="M263.36 162.5V45.01" class="3579f__gridline" color="#000"/><g fill="none" stroke-linecap="round" stroke-linejoin="round" stroke-width="0" color="#000"><path d="M263.36 162.5V155m0-109.99v7.5"/><text fill="#000" font-family="KaTeX_Main" font-size="8" text-anchor="middle" transform="translate(263.36 172.6)"><tspan> 7</tspan></text></g><path fill="none" stroke="#CCC" stroke-linecap="round" stroke-linejoin="round" stroke-width=".1" d="M299.57 162.5V45.01" class="3579f__gridline" color="#000"/><g fill="none" stroke-linecap="round" stroke-linejoin="round" stroke-width="0" color="#000"><path d="M299.57 162.5V155m0-109.99v7.5"/><text fill="#000" font-family="KaTeX_Main" font-size="8" text-anchor="middle" transform="translate(299.57 172.6)"><tspan> 8</tspan></text></g><path fill="none" stroke="#CCC" stroke-linecap="round" stroke-linejoin="round" stroke-width=".1" d="M335.78 162.5V45.01" class="3579f__gridline" color="#000"/><g fill="none" stroke-linecap="round" stroke-linejoin="round" stroke-width="0" color="#000"><path d="M335.78 162.5V155m0-109.99v7.5"/><text fill="#000" font-family="KaTeX_Main" font-size="8" text-anchor="middle" transform="translate(335.78 172.6)"><tspan> 9</tspan></text></g><path fill="none" stroke="#CCC" stroke-linecap="round" stroke-linejoin="round" stroke-width=".1" d="M371.99 162.5V45.01" class="3579f__gridline" color="#000"/><g fill="none" stroke-linecap="round" stroke-linejoin="round" stroke-width="0" color="#000"><path d="M371.99 162.5V155m0-109.99v7.5"/><text fill="#000" font-family="KaTeX_Main" font-size="8" text-anchor="middle" transform="translate(371.99 172.6)"><tspan> 10</tspan></text></g><g fill="none" stroke-linecap="round" stroke-linejoin="round" stroke-width="0" color="#000"><path d="M371.99 162.5h-7.5"/><text fill="#000" font-family="KaTeX_Main" font-size="8" transform="translate(378.99 165.1)"><tspan>1.12</tspan></text></g><g fill="none" stroke-linecap="round" stroke-linejoin="round" stroke-width="0" color="#000"><path d="M371.99 145.72h-7.5"/><text fill="#000" font-family="KaTeX_Main" font-size="8" transform="translate(378.99 148.32)"><tspan>1.14</tspan></text></g><g fill="none" stroke-linecap="round" stroke-linejoin="round" stroke-width="0" color="#000"><path d="M371.99 128.93h-7.5"/><text fill="#000" font-family="KaTeX_Main" font-size="8" transform="translate(378.99 131.53)"><tspan>1.16</tspan></text></g><g fill="none" stroke-linecap="round" stroke-linejoin="round" stroke-width="0" color="#000"><path d="M371.99 112.15h-7.5"/><text fill="#000" font-family="KaTeX_Main" font-size="8" transform="translate(378.99 114.75)"><tspan>1.18</tspan></text></g><g fill="none" stroke-linecap="round" stroke-linejoin="round" stroke-width="0" color="#000"><path d="M371.99 95.36h-7.5"/><text fill="#000" font-family="KaTeX_Main" font-size="8" transform="translate(378.99 97.96)"><tspan>1.20</tspan></text></g><g fill="none" stroke-linecap="round" stroke-linejoin="round" stroke-width="0" color="#000"><path d="M371.99 78.58h-7.5"/><text fill="#000" font-family="KaTeX_Main" font-size="8" transform="translate(378.99 81.18)"><tspan>1.22</tspan></text></g><g fill="none" stroke-linecap="round" stroke-linejoin="round" stroke-width="0" color="#000"><path d="M371.99 61.79h-7.5"/><text fill="#000" font-family="KaTeX_Main" font-size="8" transform="translate(378.99 64.39)"><tspan>1.24</tspan></text></g><g fill="none" stroke-linecap="round" stroke-linejoin="round" stroke-width="0" color="#000"><path d="M371.99 45.01h-7.5"/><text fill="#000" font-family="KaTeX_Main" font-size="8" transform="translate(378.99 47.61)"><tspan>1.26</tspan></text></g><path fill="none" d="M28 45.01V162.5M371.99 45.01H28" color="#000"/><text stroke-linecap="round" stroke-linejoin="round" stroke-width="0" color="#000" font-family="KaTeX_Main" font-size="10" text-anchor="middle" transform="rotate(-90 57.63 46.13)"><tspan font-weight="bold">Maximum Path Length </tspan><tspan> / log</tspan><tspan dy="3" font-size="8">2</tspan><tspan dy="-3">(Size)</tspan></text><text stroke-linecap="round" stroke-linejoin="round" stroke-width="0" color="#000" font-family="KaTeX_Main" font-size="10" text-anchor="middle" transform="translate(199.99 195.75)"><tspan>Operations / 10</tspan><tspan dy="-5" font-size="8">6</tspan></text><text stroke-linecap="round" stroke-linejoin="round" stroke-width=".5" color="#000" font-family="KaTeX_Main" font-size="8" transform="translate(110.4 10.11)"><tspan>AVLBottomUp</tspan></text><g fill="none" stroke="currentColor" stroke-linecap="round" stroke-linejoin="round" stroke-width=".5" color="#000"><path stroke="#000" d="M74.9 7.51h29.9M28 127.19l.36 1.46.36 1.44.37 1.41.36 1.38.36 1.34.36 1.32.36 1.29.37 1.27.36 1.23.36 1.22.36 1.2.37 1.16.36 1.15.36 1.14.36 1.1.36 1.09.37 1.07.36 1.06.36 1.03.36 1.02.36.99.37.99.36.97.36.96.36.94.36.92.37.91.36.9.36.88.36.88.36-41.9.37.88.36.88.36.86.36.86.37.84.36.82.36.81.36.82.36.78.37.79.36.78.36.77.36.75.36.75.37.74.36.73.36.72.36.71.36.71.37.7.36.68.36.69.36.67.37.67.36.66.36.65.36.64.36.65.37.63.36.62.36.62.36.61.36.61.37.6.36.6.36.58.36.58.36.58.37.57.36.57.36.57.36.55.37.54.36.55.36.55.36.53.36.53.37.53.36.52.36.51.36.51.36.52.37.5.36.5.36.5.36.48.36.49.37.49.36.48.36.47.36.48.36-40.58.37.48.36.48.36.47.36.48.37.47.36.46.36.47.36.46.36.45.37.45.36.45.36.44.36.45.36.43.37.44.36.44.36.42.36.42.36.43.37.42.36.42.36.41.36.41.37.42.36.4.36.4.36.4.36.4.37.39.36.4.36.38.36.4.36.38.37.38.36.38.36.38.36.37.36.37.37.37.36.37.36.37.36.36.36.36.37.36.36.36.36.36.36.35.37.35.36.35.36.34.36.34.36.35.37.34.36.34.36.33.36.34.36.34.37.32.36.33.36.33.36.32.36.32.37.33.36.32.36.32.36.31.37.32.36.31.36.31.36.31.36.31.37.3.36.31.36.3.36.31.36.29.37.3.36.3.36.3.36.29.36.29.37.29.36.29.36.29.36.29.36.28.37.29.36.27.36.29.36.28.37.27.36.28.36.28.36.27.36.27.37.27.36.28.36.27.36.26.36.26.37.27.36.26.36-39.26.36.27.36.27.37.27.36.27.36.27.36.27.37.26.36.26.36.26.36.27.36.26.37.26.36.26.36.26.36.25.36.25.37.26.36.25.36.25.36.25.36.25.37.25.36.24.36.26.36.24.37.24.36.25.36.24.36.23.36.25.37.24.36.24.36.23.36.24.36.23.37.24.36.23.36.24.36.22.36.24.37.22.36.23.36.23.36.23.36.22.37.23.36.22.36.23.36.22.37.22.36.22.36.22.36.22.36.22.37.22.36.21.36.22.36.21.36.22.37.21.36.22.36.21.36.21.36.21.37.21.36.21.36.21.36.21.37.2.36.21.36.2.36.2.36.21.37.2.36.2.36.2.36.21.36.2.37.2.36.19.36.2.36.2.36.2.37.19.36.19.36.2.36.2.36.19.37.19.36.2.36.18.36.19.37.2.36.18.36.2.36.18.36.19.37.19.36.18.36.19.36.18.36.19.37.18.36.19.36.18.36.18.36.18.37.19.36.17.36.18.36.18.37.18.36.17.36.19.36.18.36.17.37.18.36.17.36.17.36.18.36.17.37.17.36.18.36.17.36.17.36.17.37.18.36.16.36.17.36.17.36.17.37.17.36.16.36.17.36.17.37.17.36.16.36.16.36.17.36.16.37.17.36.16.36.17.36.16.36.16.37.16.36.16.36.16.36.16.36.16.37.16.36.15.36.16.36.16.37.16.36.15.36.16.36.16.36.15.37.16.36.15.36.15.36.16.36.15.37.15.36.16.36.15.36.15.36.15.37.15.36.15.36.15.36.15.37.15.36.15.36.15.36.15.36.14.37.15.36.15.36.15.36.14.36.14.37.15.36.15.36.14.36.14.36.15.37.14.36.15.36.14.36.14.36.14.37.14.36.14.36.14.36.15.37.13.36.14.36.15.36.13.36.14.37.14.36.13.36.15.36.13.36.14.37.14.36.13.36.14.36.13.36.13.37.14.36.14.36.13.36.13.37.14.36.13.36.13.36.14.36.13.37.13.36.13.36.14.36.12.36.14.37.12.36.14.36.12.36.14.36.12.37.13.36.13.36.13.36-37.68.36.13.37.14.36.13.36.13.36.13.37.14.36.12.36.14.36.12.36.14.37.12.36.14.36.12.36.13.36.13.37.13.36.12.36.13.36.13.36.13.37.13.36.12.36.13.36.12.37.13.36.13.36.12.36.12.36.12.37.13.36.13.36.12.36.12.36.13.37.12.36.12.36.12.36.12.36.13.37.12.36.12.36.12.36.12.37.12.36.12.36.12.36.12.36.12.37.12.36.12.36.11.36.13.36.12.37.11.36.12.36.12.36.12.36.11.37.11.36.12.36.12.36.12.36.11.37.12.36.11.36.12.36.11.37.11.36.12.36.12.36.11.36.12.37.1.36.12.36.11.36.11.36.12.37.11.36.11.36.11.36.11.36.11.37.12.36.11.36.11.36.11.37.11.36.1.36.12.36.11.36.11.37.11.36.11.36.11.36.1.36.11.37.11.36.11.36.1.36.11.36.1.37.11.36.11.36.11.36.1.36.11.37.11.36.1.36.11.36.1.37.11.36.1.36.11.36.1.36.11.37.1.36.11.36.1.36.1.36.11.37.1.36.1.36.1.36.11.36.1.37.1.36.1.36.1.36.1.37.11.36.1.36.11.36.1.36.1.37.1.36.1.36.1.36.09.36.1.37.1.36.1.36.1.36.1.36.11.37.09.36.1.36.1.36.09.36.1.37.1.36.1.36.1.36.1.37.09.36.1.36.09.36.1.36.09.37.11.36.09.36.1.36.09.36.1.37.09.36.1.36.1.36.09.36.09.37.09.36.1.36.1.36.09.37.09.36.1.36.09.36.1.36.09.37.09.36.09.36.1.36.09.36.09.37.09.36.1.36.09.36.09.36.09.37.09.36.1.36.09.36.09.37.09.36.09.36.09.36.09.36.09.37.09.36.09.36.09.36.1.36.08.37.09.36.09.36.09.36.09.36.08.37.1.36.09.36.08.36.1.36.08.37.09.36.09.36.09.36.08.37.09.36.09.36.08.36.09.36.09.37.08.36.09.36.09.36.08.36.09.37.09.36.08.36.09.36.08.36.09.37.09.36.08.36.08.36.09.37.08.36.09.36.09.36.08.36.09.37.08.36.08.36.09.36.08.36.09.37.08.36.08.36.08.36.08.36.09.37.08.36.08.36.09.36.08.36.08.37.08.36.09.36.08.36.08.37.08.36.08.36.09.36.07.36.09.37.08.36.08.36.08.36.08.36.08.37.08.36.09.36.07.36.09.36.07.37.09.36.07.36.09.36.07.37.09.36.07.36.08.36.08.36.08.37.08.36.07.36.09.36.07.36.08.37.08.36.08.36.07.36.08.36.08.37.08.36.08.36.07.36.08.36.08.37.08.36.07.36.08.36.08.37.08.36.07.36.08.36.07.36.08.37.07.36.08.36.08.36.07.36.08.37.07.36.08.36.07.36.08.36.07.37.08.36.07.36.08.36.08.37.07.36-36.51.36.07.36.09.36.07.37.08.36.07.36.08.36.07.36.08.37.08.36.08.36.07.36.08.36.08.37.07.36.08.36.07.36.08.37.07.36.08.36.07.36.08.36.08.37.07.36.08.36.07.36.08.36.06.37.08.36.08.36.07.36.08.36.07.37.08.36.07.36.07.36.08.36.07.37.07.36.07.36.08.36.08.37.06.36.08.36.07.36.07.36.08.37.07.36.07.36.07.36.08.36.07.37.07.36.07.36.08.36.07.36.07.37.07.36.07.36.08.36.06.37.08.36.07.36.07.36.07.36.07.37.07.36.07.36.07.36.07.36.08.37.06.36.07.36.08.36.06.36.08.37.07.36.06.36.07.36.08.36.06.37.07.36.08.36.06.36.07.37.07.36.07.36.07.36.07.36.06.37.07.36.08.36.06.36.07.36.07.37.07.36.06.36.07.36.08.36.06.37.07.36.07.36.06.36.07.37.07.36.07.36.06.36.07.36.07.37.06.36.07.36.07.36.07.36.06.37.07.36.07.36.06.36.07.36.07.37.06.36.06.36.07.36.07.36.07.37.06.36.07.36.06.36.07.37.06.36.07.36.07.36.06.36.06.37.07.36.07.36.06.36.06.36.07.37.07.36.06.36.06.36.07.36.06.37.07.36.06.36.06.36.07.37.07.36.06.36.06.36.07.36.06.37.07.36.05.36.07.36.07.36.06.37.06.36.06.36.07.36.06.36.07.37.05.36.07.36.06.36.07.37.06.36.06.36.06.36.06.36.07.37.06.36.06.36.06.36.07.36.06.37.06.36.06.36.06.36.06.36.07.37.06.36.06.36.06.36.06.36.06.37.07.36.06.36.06.36.06.37.06.36.06.36.06.36.07.36.06.37.05.36.06.36.06"/><use xlink:href="#3579f__b" transform="matrix(3.75 0 0 3.75 354.25 124.95)"/><use xlink:href="#3579f__b" transform="matrix(3.75 0 0 3.75 89.85 7.51)"/></g><text stroke-linecap="round" stroke-linejoin="round" color="#000" font-family="KaTeX_Main" font-size="8" transform="translate(110.4 25.11)"><tspan>RedBlackBottomUp</tspan></text><g fill="none" stroke="currentColor" stroke-linecap="round" stroke-linejoin="round" color="#000"><path stroke="#F44336" d="M74.9 22.51h29.9M28 127.19l.36 1.46.36 1.44.37 1.41.36 1.38.36 1.34.36 1.32.36 1.29.37 1.27.36 1.23.36 1.22.36 1.2.37 1.16.36 1.15.36-42.38.36 1.16.36 1.14.37 1.12.36 1.1.36 1.08.36 1.07.36 1.04.37 1.03.36 1.01.36 1 .36.98.36.97.37.96.36.94.36.92.36.91.36.9.37.88.36.88.36.86.36.86.37.84.36.82.36.81.36.82.36.78.37.79.36.78.36.77.36.75.36.75.37.74.36.73.36.72.36.71.36.71.37.7.36.68.36.69.36.67.37.67.36.66.36.65.36.64.36.65.37.63.36.62.36.62.36.61.36.61.37.6.36.6.36.58.36-41.03.36.61.37.59.36.6.36.59.36.58.37.57.36.57.36.56.36.56.36.56.37.54.36.55.36.53.36.54.36.53.37.53.36.52.36.52.36.51.36.5.37.51.36.5.36.5.36.49.36.49.37.48.36.48.36.47.36.48.37.47.36.46.36.47.36.46.36.45.37.45.36.45.36.44.36.45.36.43.37.44.36.44.36.42.36.42.36.43.37.42.36.42.36.41.36.41.37.42.36.4.36.4.36.4.36.4.37.39.36.4.36.38.36.4.36.38.37.38.36.38.36.38.36.37.36.37.37-39.98.36.38.36.39.36.37.36.38.37.37.36.38.36.37.36.36.37.37.36.36.36.36.36.36.36.35.37.36.36.36.36.34.36.35.36.35.37.34.36.35.36.34.36.34.36.33.37.34.36.33.36.33.36.33.37.32.36.33.36.33.36.32.36.33.37.31.36.31.36.32.36.31.36.32.37.31.36.31.36.31.36.31.36.3.37.3.36.3.36.31.36.29.36.3.37.29.36.3.36.29.36.29.37.29.36.29.36.28.36.29.36.28.37.29.36.27.36.29.36.28.36.27.37.28.36.28.36.27.36.27.36.27.37.27.36.27.36.27.36.27.37.26.36.26.36.26.36.27.36.26.37.26.36.26.36.26.36.25.36.25.37.26.36.25.36.25.36.25.36.25.37.25.36.24.36.26.36.24.37.24.36.25.36.24.36.23.36.25.37.24.36.24.36.23.36.24.36.23.37.24.36.23.36.24.36.22.36.24.37.22.36.23.36.23.36.23.36.22.37.23.36.22.36.23.36.22.37.22.36.22.36.22.36.22.36.22.37.22.36.21.36.22.36.21.36.22.37.21.36.22.36.21.36.21.36.21.37.21.36.21.36.21.36.21.37.2.36.21.36.2.36.2.36.21.37.2.36.2.36.2.36.21.36.2.37.2.36.19.36.2.36.2.36.2.37.19.36.19.36.2.36.2.36.19.37.19.36.2.36.18.36.19.37.2.36.18.36.2.36.18.36.19.37.19.36.18.36-38.44.36.18.36.2.37.19.36.19.36.19.36.19.36.19.37.19.36.18.36.19.36.19.37.18.36.19.36.18.36.19.36.18.37.19.36.17.36.19.36.18.36.18.37.18.36.18.36.18.36.18.36.18.37.17.36.18.36.18.36.17.36.18.37.17.36.17.36.18.36.17.37.17.36.18.36.17.36.17.36.17.37.17.36.17.36.17.36.17.36.17.37.17.36.16.36.16.36.17.36.17.37.17.36.16.36.16.36.16.37.17.36.16.36.17.36.16.36.16.37.16.36.16.36.16.36.16.36.16.37.16.36.15.36.16.36.16.36.16.37.16.36.15.36.16.36.15.37.16.36.15.36.15.36.16.36.15.37.16.36.16.36.15.36.15.36.15.37.15.36.15.36.15.36.14.36.16.37.15.36.15.36.14.36.15.36.15.37.14.36.16.36.14.36.14.37.15.36.14.36.15.36.15.36.14.37.14.36.15.36.14.36.14.36.14.37.15.36.14.36.14.36.14.36.14.37.14.36.14.36.14.36.14.37.14.36.14.36.13.36.15.36.13.37.13.36.15.36.13.36.14.36.13.37.13.36.15.36.13.36.14.36.13.37.13.36.14.36.12.36.14.36.13.37.14.36.13.36.13.36.13.37.14.36.12.36.14.36.12.36.14.37.12.36.14.36.12.36.13.36.13.37.13.36.12.36.13.36.13.36.13.37.13.36.12.36.13.36.12.37.13.36.13.36.12.36.12.36.12.37.13.36.13.36.12.36.12.36.13.37.12.36.12.36.12.36.12.36.13.37.12.36.12.36.12.36.12.37.12.36.12.36.12.36.12.36.12.37.12.36.12.36.11.36.13.36.12.37.11.36.12.36.12.36.12.36.11.37.11.36.12.36.12.36.12.36.11.37.12.36.11.36.12.36.11.37.11.36.12.36.12.36.11.36.12.37.1.36.12.36.11.36.11.36.12.37.11.36.11.36.11.36.11.36.11.37.12.36.11.36.11.36.11.37.11.36.1.36.12.36.11.36.11.37.11.36.11.36.11.36.1.36.11.37.11.36.11.36.1.36.11.36.1.37.11.36.11.36.11.36.1.36.11.37.11.36.1.36.11.36.1.37.11.36.1.36.11.36.1.36.11.37.1.36.11.36.1.36.1.36.11.37.1.36.1.36.1.36.11.36.1.37.1.36.1.36.1.36.1.37.11.36.1.36.11.36.1.36.1.37.1.36.1.36.1.36.09.36.1.37.1.36.1.36.1.36.1.36.11.37.09.36.1.36.1.36.09.36.1.37.1.36.1.36.1.36.1.37.09.36-37.04.36.1.36.11.36.1.37.1.36.1.36.1.36.1.36.09.37.1.36.1.36.1.36.1.36.1.37.1.36.1.36.09.36.1.37.1.36.09.36.1.36.1.36.1.37.09.36.1.36.09.36.1.36.1.37.1.36.09.36.1.36.09.36.09.37.11.36.09.36.09.36.1.37.09.36.1.36.09.36.09.36.1.37.09.36.1.36.09.36.09.36.09.37.09.36.1.36.09.36.09.36.09.37.1.36.09.36.09.36.09.36.1.37.09.36.09.36.09.36.09.37.1.36.08.36.09.36.1.36.09.37.08.36.09.36.1.36.08.36.09.37.09.36.09.36.09.36.09.36.09.37.09.36.08.36.1.36.08.37.09.36.09.36.09.36.08.36.09.37.09.36.09.36.08.36.09.36.09.37.08.36.09.36.09.36.08.36.09.37.08.36.1.36.08.36.08.36.09.37.08.36.09.36.09.36.08.37.08.36.09.36.08.36.09.36.08.37.08.36.09.36.08.36.09.36.08.37.08.36.09.36.08.36.09.36.08.37.08.36.09.36.08.36.09.37.07.36.08.36.09.36.08.36.09.37.07.36.09.36.08.36.08.36.08.37.08.36.09.36.07.36.09.36.08.37.08.36.08.36.08.36.08.36.08.37.08.36.08.36.08.36.08.37.08.36.08.36.08.36.07.36.09.37.07.36.09.36.07.36.09.36.07.37.08.36.08.36.08.36.07.36.09.37.07.36.08.36.07.36.09.37.07.36.08.36.07.36.09.36.07.37.08.36.07.36.08.36.07.36.08.37.08.36.08.36.07.36.08.36.08.37.07.36.08.36.07.36.08.37.07.36.08.36.07.36.08.36.08.37.07.36.08.36.07.36.08.36.06.37.08.36.08.36.07.36.08.36.07.37.08.36.07.36.07.36.08.36.07.37.07.36.07.36.08.36.08.37.06.36.08.36.07.36.07.36.08.37.07.36.07.36.07.36.08.36.07.37.07.36.07.36.08.36.07.36.07.37.07.36.07.36.08.36.06.37.08.36.07.36.07.36.07.36.07.37.07.36.07.36.07.36.07.36.08.37.06.36.07.36.08.36.06.36.08.37.07.36.06.36.07.36.08.36.06.37.07.36.08.36.06.36.07.37.07.36.07.36.07.36.07.36.06.37.07.36.08.36.06.36.07.36.07.37.07.36.06.36.07.36.08.36.06.37.07.36.07.36.06.36.07.37.07.36.07.36.06.36.07.36.07.37.06.36.07.36.07.36.07.36.06.37.07.36.07.36.06.36.07.36.07.37.06.36.06.36.07.36.07.36.07.37.06.36.07.36.06.36.07.37.06.36.07.36.07.36.06.36.06.37.07.36.07.36.06.36.06.36.07.37.07.36.06.36.06.36.07.36.06.37.07.36.06.36.06.36.07.37.07.36.06.36.06.36.07.36.06.37.07.36.05.36.07.36.07.36.06.37.06.36.06.36.07.36.06.36.07.37.05.36.07.36.06.36.07.37.06.36.06.36.06.36.06.36.07.37.06.36.06.36.06.36.07.36.06.37.06.36.06.36.06.36.06.36.07.37.06.36.06.36.06.36.06.36.06.37.07.36.06.36.06.36.06.37.06.36.06.36.06.36.07.36.06.37.05.36.06.36.06"/><use xlink:href="#3579f__a" color="#F44336" transform="matrix(3.75 0 0 3.75 67.83 125.15)"/><use xlink:href="#3579f__a" color="#F44336" transform="matrix(3.75 0 0 3.75 89.85 22.51)"/></g><text stroke-linecap="round" stroke-linejoin="round" color="#000" font-family="KaTeX_Main" font-size="8" transform="translate(241.1 10.11)"><tspan>AVLWeakBottomUp</tspan></text><g fill="none" stroke="currentColor" stroke-linecap="round" stroke-linejoin="round" color="#000"><path stroke="#00C853" d="M205.6 7.51h29.9M28 127.19l.36 1.46.36 1.44.37 1.41.36 1.38.36 1.34.36 1.32.36 1.29.37 1.27.36 1.23.36 1.22.36 1.2.37 1.16.36 1.15.36 1.14.36 1.1.36 1.09.37 1.07.36 1.06.36 1.03.36 1.02.36.99.37.99.36.97.36.96.36.94.36.92.37.91.36.9.36.88.36.88.36-41.9.37.88.36.88.36.86.36.86.37.84.36.82.36.81.36.82.36.78.37.79.36.78.36.77.36.75.36.75.37.74.36.73.36.72.36.71.36.71.37.7.36.68.36.69.36.67.37.67.36.66.36.65.36.64.36.65.37.63.36.62.36.62.36.61.36.61.37.6.36.6.36.58.36.58.36.58.37.57.36.57.36.57.36.55.37.54.36.55.36.55.36.53.36.53.37.53.36.52.36.51.36.51.36.52.37.5.36.5.36.5.36.48.36.49.37.49.36.48.36.47.36.48.36-40.58.37.48.36.48.36.47.36.48.37.47.36.46.36.47.36.46.36.45.37.45.36.45.36.44.36.45.36.43.37.44.36.44.36.42.36.42.36.43.37.42.36.42.36.41.36.41.37.42.36.4.36.4.36.4.36.4.37.39.36.4.36.38.36.4.36.38.37.38.36.38.36.38.36.37.36.37.37.37.36.37.36.37.36.36.36.36.37.36.36.36.36.36.36.35.37.35.36.35.36.34.36.34.36.35.37.34.36.34.36.33.36.34.36.34.37.32.36.33.36.33.36.32.36.32.37.33.36.32.36.32.36.31.37.32.36.31.36.31.36.31.36.31.37.3.36.31.36.3.36.31.36.29.37.3.36.3.36.3.36.29.36.29.37.29.36.29.36.29.36.29.36.28.37.29.36.27.36.29.36.28.37.27.36.28.36.28.36.27.36.27.37.27.36.28.36.27.36.26.36.26.37.27.36.26.36-39.26.36.27.36.27.37.27.36.27.36.27.36.27.37.26.36.26.36.26.36.27.36.26.37.26.36.26.36.26.36.25.36.25.37.26.36.25.36.25.36.25.36.25.37.25.36.24.36.26.36.24.37.24.36.25.36.24.36.23.36.25.37.24.36.24.36.23.36.24.36.23.37.24.36.23.36.24.36.22.36.24.37.22.36.23.36.23.36.23.36.22.37.23.36.22.36.23.36.22.37.22.36.22.36.22.36.22.36.22.37.22.36.21.36.22.36.21.36.22.37.21.36.22.36.21.36.21.36.21.37.21.36.21.36.21.36.21.37.2.36.21.36.2.36.2.36.21.37.2.36.2.36.2.36.21.36.2.37.2.36.19.36.2.36.2.36.2.37.19.36.19.36.2.36.2.36.19.37.19.36.2.36.18.36.19.37.2.36.18.36.2.36.18.36.19.37.19.36.18.36.19.36.18.36.19.37.18.36.19.36.18.36.18.36.18.37.19.36.17.36.18.36.18.37.18.36.17.36.19.36.18.36.17.37.18.36.17.36.17.36.18.36.17.37.17.36.18.36.17.36.17.36.17.37.18.36.16.36.17.36.17.36.17.37.17.36.16.36.17.36.17.37.17.36.16.36.16.36.17.36.16.37.17.36.16.36.17.36.16.36.16.37.16.36.16.36.16.36.16.36.16.37.16.36.15.36.16.36.16.37.16.36.15.36.16.36.16.36.15.37.16.36.15.36.15.36.16.36.15.37.15.36.16.36.15.36.15.36.15.37.15.36.15.36.15.36.15.37.15.36.15.36.15.36.15.36.14.37.15.36.15.36.15.36.14.36.14.37.15.36.15.36.14.36.14.36.15.37.14.36.15.36.14.36.14.36.14.37.14.36.14.36.14.36.15.37.13.36.14.36.15.36.13.36.14.37.14.36.13.36.15.36.13.36.14.37.14.36.13.36.14.36.13.36.13.37.14.36.14.36.13.36.13.37.14.36.13.36.13.36.14.36.13.37.13.36.13.36.14.36.12.36.14.37.12.36.14.36.12.36.14.36.12.37.13.36.13.36.13.36-37.68.36.13.37.14.36.13.36.13.36.13.37.14.36.12.36.14.36.12.36.14.37.12.36.14.36.12.36.13.36.13.37.13.36.12.36.13.36.13.36.13.37.13.36.12.36.13.36.12.37.13.36.13.36.12.36.12.36.12.37.13.36.13.36.12.36.12.36.13.37.12.36.12.36.12.36.12.36.13.37.12.36.12.36.12.36.12.37.12.36.12.36.12.36.12.36.12.37.12.36.12.36.11.36.13.36.12.37.11.36.12.36.12.36.12.36.11.37.11.36.12.36.12.36.12.36.11.37.12.36.11.36.12.36.11.37.11.36.12.36.12.36.11.36.12.37.1.36.12.36.11.36.11.36.12.37.11.36.11.36.11.36.11.36.11.37.12.36.11.36.11.36.11.37.11.36.1.36.12.36.11.36.11.37.11.36.11.36.11.36.1.36.11.37.11.36.11.36.1.36.11.36.1.37.11.36.11.36.11.36.1.36.11.37.11.36.1.36.11.36.1.37.11.36.1.36.11.36.1.36.11.37.1.36.11.36.1.36.1.36.11.37.1.36.1.36.1.36.11.36.1.37.1.36.1.36.1.36.1.37.11.36.1.36.11.36.1.36.1.37.1.36.1.36.1.36.09.36.1.37.1.36.1.36.1.36.1.36.11.37.09.36.1.36.1.36.09.36.1.37.1.36.1.36.1.36.1.37.09.36.1.36.09.36.1.36.09.37.11.36.09.36.1.36.09.36.1.37.09.36.1.36.1.36.09.36.09.37.09.36.1.36.1.36.09.37.09.36.1.36.09.36.1.36.09.37.09.36.09.36.1.36.09.36.09.37.09.36.1.36.09.36.09.36.09.37.09.36.1.36.09.36.09.37.09.36.09.36.09.36.09.36.09.37.09.36.09.36.09.36.1.36.08.37.09.36.09.36.09.36.09.36.08.37.1.36.09.36.08.36.1.36.08.37.09.36.09.36.09.36.08.37.09.36.09.36.08.36.09.36.09.37.08.36.09.36.09.36.08.36.09.37.09.36.08.36.09.36.08.36.09.37.09.36.08.36.08.36.09.37.08.36.09.36.09.36.08.36.09.37.08.36.08.36.09.36.08.36.09.37.08.36.08.36.08.36.08.36.09.37.08.36.08.36.09.36.08.36.08.37.08.36.09.36.08.36.08.37.08.36.08.36.09.36.07.36.09.37.08.36.08.36.08.36.08.36.08.37.08.36.09.36.07.36.09.36.07.37.09.36.07.36.09.36.07.37.09.36.07.36.08.36.08.36.08.37.08.36.07.36.09.36.07.36.08.37.08.36.08.36.07.36.08.36.08.37.08.36.08.36.07.36.08.36.08.37.08.36.07.36.08.36.08.37.08.36.07.36.08.36.07.36.08.37.07.36.08.36.08.36.07.36.08.37.07.36.08.36.07.36.08.36.07.37.08.36.07.36.08.36.08.37.07.36-36.51.36.07.36.09.36.07.37.08.36.07.36.08.36.07.36.08.37.08.36.08.36.07.36.08.36.08.37.07.36.08.36.07.36.08.37.07.36.08.36.07.36.08.36.08.37.07.36.08.36.07.36.08.36.06.37.08.36.08.36.07.36.08.36.07.37.08.36.07.36.07.36.08.36.07.37.07.36.07.36.08.36.08.37.06.36.08.36.07.36.07.36.08.37.07.36.07.36.07.36.08.36.07.37.07.36.07.36.08.36.07.36.07.37.07.36.07.36.08.36.06.37.08.36.07.36.07.36.07.36.07.37.07.36.07.36.07.36.07.36.08.37.06.36.07.36.08.36.06.36.08.37.07.36.06.36.07.36.08.36.06.37.07.36.08.36.06.36.07.37.07.36.07.36.07.36.07.36.06.37.07.36.08.36.06.36.07.36.07.37.07.36.06.36.07.36.08.36.06.37.07.36.07.36.06.36.07.37.07.36.07.36.06.36.07.36.07.37.06.36.07.36.07.36.07.36.06.37.07.36.07.36.06.36.07.36.07.37.06.36.06.36.07.36.07.36.07.37.06.36.07.36.06.36.07.37.06.36.07.36.07.36.06.36.06.37.07.36.07.36.06.36.06.36.07.37.07.36.06.36.06.36.07.36.06.37.07.36.06.36.06.36.07.37.07.36.06.36.06.36.07.36.06.37.07.36.05.36.07.36.07.36.06.37.06.36.06.36.07.36.06.36.07.37.05.36.07.36.06.36.07.37.06.36.06.36.06.36.06.36.07.37.06.36.06.36.06.36.07.36.06.37.06.36.06.36.06.36.06.36.07.37.06.36.06.36.06.36.06.36.06.37.07.36.06.36.06.36.06.37.06.36.06.36.06.36.07.36.06.37.05.36.06.36.06"/><use xlink:href="#3579f__a" color="#00C853" transform="matrix(3.75 0 0 3.75 125.4 131.34)"/><use xlink:href="#3579f__a" color="#00C853" transform="matrix(3.75 0 0 3.75 220.55 7.51)"/></g><text stroke-linecap="round" stroke-linejoin="round" color="#000" font-family="KaTeX_Main" font-size="8" transform="translate(241.1 25.11)"><tspan>AVLWeakTopDown</tspan></text><g fill="none" stroke="currentColor" stroke-linecap="round" stroke-linejoin="round" color="#000"><path stroke="#FFAB00" stroke-dasharray="4.5,2.0,0.5,2.0,0.5,2.0" d="M205.6 22.51h29.9M28 82.86l.36 1.53.36 1.51.37 1.47.36 1.43.36 1.41.36 1.38.36 1.35.37 1.32.36 1.3.36 1.27.36 1.24.37 1.23.36 1.2.36 1.18.36 1.16.36 1.14.37 1.12.36 1.1.36 1.08.36 1.07.36 1.04.37 1.03.36 1.01.36 1 .36.98.36.97.37.96.36.94.36.92.36.91.36.9.37.88.36.88.36.86.36-41.75.37.87.36.87.36.84.36.85.36.83.37.82.36.81.36.8.36.79.36.78.37.77.36.76.36.76.36.74.36.74.37.73.36.71.36.71.36.71.37.69.36.69.36.68.36.67.36.67.37.66.36-41.14.36.67.36.67.36.66.37.65.36.65.36.64.36.63.36.63.37.62.36.62.36.61.36.6.37.6.36.6.36.58.36.58.36.58.37.57.36.56.36.57.36.56.36.55.37.55.36.54.36.54.36.53.36.53.37.53.36.52.36.52.36.51.36.5.37.51.36.5.36.5.36.49.37.49.36.48.36.48.36.48.36.47.37.47.36.47.36.46.36.46.36.47.37.45.36.44.36.46.36.43.36.45.37.43.36.44.36.43.36.43.37.42.36.42.36.42.36.42.36.42.37.41.36.41.36.41.36.4.36.4.37.4.36.39.36.4.36.38.36.4.37.38.36.38.36.39.36.37.36.38.37.37.36.38.36.37.36.36.37.37.36.36.36.36.36.36.36.35.37.36.36.36.36.34.36.35.36.35.37.34.36.35.36.34.36.34.36-39.69.37.34.36.36.36.34.36.34.37.34.36.34.36.34.36.33.36.33.37.34.36.33.36.32.36.33.36.33.37.32.36.32.36.32.36.32.36.31.37.32.36.31.36.31.36.31.36.31.37.31.36.31.36.31.36.3.37.29.36.3.36.31.36.29.36.29.37.3.36.29.36.29.36.3.36.28.37.29.36.28.36.29.36.28.36.28.37.29.36.27.36.28.36.28.37.27.36.28.36.27.36.28.36.27.37.26.36.27.36.27.36.27.36.26.37.27.36.26.36.26.36.26.36.26.37.26.36.25.36.26.36.25.37.26.36.26.36.25.36.25.36.24.37.25.36.25.36.25.36.24.36.25.37.24.36.24.36.25.36.24.36.23.37.25.36.23.36.24.36.23.36.24.37.23.36.24.36.23.36.23.37.23.36.23.36.23.36.23.36.23.37.23.36.21.36.23.36.23.36.21.37.23.36.22.36.23.36.21.36.22.37.22.36.22.36.21.36.22.37.22.36.2.36.22.36.21.36.21.37.21.36.21.36.21.36.21.36.21.37.21.36.2.36.21.36.2.36.21.37.21.36.2.36.2.36.2.36.2.37.2.36.2.36.21.36.19.37.2.36.19.36.2.36.2.36.19.37.19.36.2.36.2.36.18.36.2.37.19.36.19.36.19.36.19.36.19.37.19.36.18.36.19.36.19.37.18.36.19.36.18.36.19.36.18.37.19.36.17.36.19.36.18.36.18.37.18.36.18.36.18.36.18.36.18.37.17.36.18.36.18.36.17.36.18.37.17.36.17.36.18.36.17.37.17.36.18.36.17.36.17.36.17.37.17.36.17.36.17.36.17.36.17.37.17.36.16.36.16.36.17.36.17.37.17.36.16.36.16.36.16.37.17.36.16.36.17.36.16.36.16.37-38.07.36.17.36.17.36.16.36.16.37.17.36.17.36.16.36.17.36.16.37.16.36.16.36.16.36.16.37.17.36.16.36.16.36.16.36.16.37.16.36.16.36.16.36.15.36.16.37.16.36.15.36.16.36.15.36.16.37.15.36.16.36.15.36.15.36.16.37.15.36.15.36.15.36.15.37.15.36.16.36.15.36.15.36.15.37.15.36.14.36.15.36.15.36.15.37.15.36.14.36.15.36.14.36.16.37.14.36.14.36.15.36.14.37.15.36.14.36.14.36.15.36.14.37.14.36.14.36.15.36.14.36.14.37.14.36.14.36.14.36.14.36.14.37.14.36.13.36.15.36.13.36.14.37.14.36.13.36.15.36.13.37.13.36.14.36.14.36.14.36.13.37.13.36.14.36.13.36.14.36.13.37.13.36.13.36.14.36.13.36.13.37.13.36.13.36.13.36.13.37.14.36.12.36.13.36.13.36.13.37.13.36.13.36.13.36.13.36.13.37.12.36.13.36.12.36.13.36.13.37.13.36.13.36 37.72.36.12.37.12.36.12.36-37.46.36.12.36.13.37.12.36.12.36.13.36.12.36.12.37.13.36.12.36.12.36.12.36.12.37.12.36.13.36.12.36.11.36.13.37.12.36.11.36.12.36.13.37.11.36.12.36.12.36.12.36.11.37.12.36.12.36.12.36.11.36.12.37.12.36.12.36.11.36.11.36.12.37.12.36.12.36.1.36.12.37.12.36.11.36.12.36.11.36.11.37.11.36.12.36.11.36.12.36.11.37.1.36.12.36.11.36.11.36.12.37.11.36.11.36.1.36.11.36.12.37.11.36.11.36.11.36.11.37.11.36.11.36.11.36.1.36.11.37.11.36.1.36.11.36.11.36.11.37.11.36.1.36.11.36.11.36.11.37.1.36.11.36.1.36.11.37.11.36.1.36.11.36.1.36.11.37.1.36.1.36.11.36.1.36.1.37.11.36.1.36.1.36.11.36.1.37.1.36.1.36.11.36.1.36.1.37.1.36.1.36.1.36.1.37.1.36.1.36.1.36.11.36.1.37.1.36.1.36.1.36.1.36.09.37.1.36.1.36.1.36.1.36.1.37.1.36.1.36.09.36.1.37.1.36.09.36.1.36.1.36.1.37.09.36.1.36.09.36.1.36.1.37.1.36.09.36.1.36.09.36.09.37.11.36.09.36.09.36.1.37.09.36.1.36.09.36.09.36.1.37.09.36.1.36.09.36.09.36.09.37.09.36.1.36.09.36.09.36.09.37.1.36.09.36.09.36.09.36.1.37.09.36.09.36.09.36.09.37.1.36.08.36.09.36.1.36.09.37.08.36.09.36.1.36.08.36.09.37.09.36.09.36.09.36.09.36.09.37.09.36.08.36.1.36.08.37.09.36.09.36.09.36.08.36.09.37.09.36.09.36.08.36.09.36.09.37.08.36.09.36.09.36.08.36.09.37.08.36.1.36.08.36.08.36.09.37.08.36.09.36.09.36.08.37.08.36.09.36.08.36.09.36.08.37.08.36.09.36.08.36.09.36.08.37.08.36.09.36.08.36.09.36.08.37.08.36.09.36.08.36.09.37.07.36.08.36.09.36.08.36.09.37.07.36.09.36.08.36.08.36.08.37.08.36.09.36.07.36.09.36.08.37.08.36.08.36.08.36.08.36.08.37.08.36.08.36.08.36.08.37.08.36.08.36.08.36.07.36.09.37.07.36.09.36.07.36.09.36.07.37.08.36.08.36.08.36-36.53.36.08.37.07.36.09.36.08.36.08.37.08.36.08.36.08.36.08.36.08.37.08.36.08.36.08.36.08.36.08.37.08.36.07.36.09.36.07.36.09.37.07.36.08.36.08.36.08.37.07.36.09.36.07.36.08.36.08.37.08.36.07.36.08.36.08.36.08.37.07.36.08.36.08.36.07.36.09.37.07.36.08.36.07.36.08.36.07.37.08.36.07.36.08.36.07.37.09.36.07.36.08.36.08.36.07.37.08.36.06.36.08.36.07.36.08.37.08.36.07.36.08.36.07.36.08.37.07.36.07.36.08.36.07.37.08.36.07.36.08.36.07.36.07.37.08.36.07.36.07.36.07.36.08.37.07.36.07.36.08.36.07.36.07.37.08.36.06.36.08.36.07.36.07.37.08.36.06.36.08.36.07.37.07.36.08.36.07.36.07.36.07.37.07.36.07.36.08.36.06.36.07.37.08.36.06.36.08.36.07.36.07.37.07.36.07.36.07.36.07.37.07.36.07.36.07.36.07.36.07.37.07.36.07.36.06.36.08.36.06.37.07.36.07.36.07.36.07.36.07.37.07.36.06.36.08.36.07.36.06.37.07.36.07.36.06.36.07.37.08.36.06.36.07.36.07.36.07.37.06.36.07.36.07.36.06.36.07.37.07.36.07.36.06.36.07.36.07.37.06.36.07.36.07.36.07.37.06.36.06.36.07.36.07.36.06.37.07.36.07.36.06.36.07.36.06.37.07.36.06.36.07.36.07.36.06.37.06.36.07.36.07.36.07.37.05.36.07.36.07.36.06.36.06.37.07.36.07.36.06.36.07.36.06.37.06.36.07.36.07.36.05.36.07.37.06.36.07.36.06.36.06.36.07.37.06.36.07.36.05.36.07.37.07.36.06.36.06.36.06.36.07.37.06.36.07.36.06"/><use xlink:href="#3579f__c" color="#FFAB00" transform="matrix(3.75 0 0 3.75 182.98 81.23)"/><use xlink:href="#3579f__c" color="#FFAB00" transform="matrix(3.75 0 0 3.75 220.55 22.51)"/></g><path fill="none" d="M28 45.01V162.5M371.99 45.01H28" color="#000"/></svg>