<svg xmlns="http://www.w3.org/2000/svg" xmlns:xlink="http://www.w3.org/1999/xlink" viewBox="0 0 400 200"><path fill="none" d="M0 0h400v200H0z"/><defs><use xlink:href="#8390b__a" id="8390b__b" fill="currentColor" stroke="none"/><use xlink:href="#8390b__a" id="8390b__c" stroke="currentColor" transform="rotate(180)"/><path id="8390b__a" stroke="currentColor" stroke-width=".267" d="m0-1.33-1.33 2h2.66z"/></defs><path fill="none" stroke="#CCC" stroke-linecap="round" stroke-linejoin="round" stroke-width=".1" d="M46.1 162.5V45.01" class="8390b__gridline" color="#000"/><g fill="none" stroke-linecap="round" stroke-linejoin="round" stroke-width="0" color="#000"><path d="M46.1 162.5V155m0-109.99v7.5"/><text fill="#000" font-family="KaTeX_Main" font-size="8" text-anchor="middle" transform="translate(46.1 172.6)"><tspan> 1</tspan></text></g><path fill="none" stroke="#CCC" stroke-linecap="round" stroke-linejoin="round" stroke-width=".1" d="M82.31 162.5V45.01" class="8390b__gridline" color="#000"/><g fill="none" stroke-linecap="round" stroke-linejoin="round" stroke-width="0" color="#000"><path d="M82.31 162.5V155m0-109.99v7.5"/><text fill="#000" font-family="KaTeX_Main" font-size="8" text-anchor="middle" transform="translate(82.31 172.6)"><tspan> 2</tspan></text></g><path fill="none" stroke="#CCC" stroke-linecap="round" stroke-linejoin="round" stroke-width=".1" d="M118.52 162.5V45.01" class="8390b__gridline" color="#000"/><g fill="none" stroke-linecap="round" stroke-linejoin="round" stroke-width="0" color="#000"><path d="M118.52 162.5V155m0-109.99v7.5"/><text fill="#000" font-family="KaTeX_Main" font-size="8" text-anchor="middle" transform="translate(118.52 172.6)"><tspan> 3</tspan></text></g><path fill="none" stroke="#CCC" stroke-linecap="round" stroke-linejoin="round" stroke-width=".1" d="M154.73 162.5V45.01" class="8390b__gridline" color="#000"/><g fill="none" stroke-linecap="round" stroke-linejoin="round" stroke-width="0" color="#000"><path d="M154.73 162.5V155m0-109.99v7.5"/><text fill="#000" font-family="KaTeX_Main" font-size="8" text-anchor="middle" transform="translate(154.73 172.6)"><tspan> 4</tspan></text></g><path fill="none" stroke="#CCC" stroke-linecap="round" stroke-linejoin="round" stroke-width=".1" d="M190.94 162.5V45.01" class="8390b__gridline" color="#000"/><g fill="none" stroke-linecap="round" stroke-linejoin="round" stroke-width="0" color="#000"><path d="M190.94 162.5V155m0-109.99v7.5"/><text fill="#000" font-family="KaTeX_Main" font-size="8" text-anchor="middle" transform="translate(190.94 172.6)"><tspan> 5</tspan></text></g><path fill="none" stroke="#CCC" stroke-linecap="round" stroke-linejoin="round" stroke-width=".1" d="M227.15 162.5V45.01" class="8390b__gridline" color="#000"/><g fill="none" stroke-linecap="round" stroke-linejoin="round" stroke-width="0" color="#000"><path d="M227.15 162.5V155m0-109.99v7.5"/><text fill="#000" font-family="KaTeX_Main" font-size="8" text-anchor="middle" transform="translate(227.15 172.6)"><tspan> 6</tspan></text></g><path fill="none" stroke="#CCC" stroke-linecap="round" stroke-linejoin="round" stroke-width=".1" d="M263.36 162.5V45.01" class="8390b__gridline" color="#000"/><g fill="none" stroke-linecap="round" stroke-linejoin="round" stroke-width="0" color="#000"><path d="M263.36 162.5V155m0-109.99v7.5"/><text fill="#000" font-family="KaTeX_Main" font-size="8" text-anchor="middle" transform="translate(263.36 172.6)"><tspan> 7</tspan></text></g><path fill="none" stroke="#CCC" stroke-linecap="round" stroke-linejoin="round" stroke-width=".1" d="M299.57 162.5V45.01" class="8390b__gridline" color="#000"/><g fill="none" stroke-linecap="round" stroke-linejoin="round" stroke-width="0" color="#000"><path d="M299.57 162.5V155m0-109.99v7.5"/><text fill="#000" font-family="KaTeX_Main" font-size="8" text-anchor="middle" transform="translate(299.57 172.6)"><tspan> 8</tspan></text></g><path fill="none" stroke="#CCC" stroke-linecap="round" stroke-linejoin="round" stroke-width=".1" d="M335.78 162.5V45.01" class="8390b__gridline" color="#000"/><g fill="none" stroke-linecap="round" stroke-linejoin="round" stroke-width="0" color="#000"><path d="M335.78 162.5V155m0-109.99v7.5"/><text fill="#000" font-family="KaTeX_Main" font-size="8" text-anchor="middle" transform="translate(335.78 172.6)"><tspan> 9</tspan></text></g><path fill="none" stroke="#CCC" stroke-linecap="round" stroke-linejoin="round" stroke-width=".1" d="M371.99 162.5V45.01" class="8390b__gridline" color="#000"/><g fill="none" stroke-linecap="round" stroke-linejoin="round" stroke-width="0" color="#000"><path d="M371.99 162.5V155m0-109.99v7.5"/><text fill="#000" font-family="KaTeX_Main" font-size="8" text-anchor="middle" transform="translate(371.99 172.6)"><tspan> 10</tspan></text></g><g fill="none" stroke-linecap="round" stroke-linejoin="round" stroke-width="0" color="#000"><path d="M371.99 162.5h-7.5"/><text fill="#000" font-family="KaTeX_Main" font-size="8" transform="translate(378.99 165.1)"><tspan>1.60</tspan></text></g><g fill="none" stroke-linecap="round" stroke-linejoin="round" stroke-width="0" color="#000"><path d="M371.99 151.82h-7.5"/><text fill="#000" font-family="KaTeX_Main" font-size="8" transform="translate(378.99 154.42)"><tspan>1.80</tspan></text></g><g fill="none" stroke-linecap="round" stroke-linejoin="round" stroke-width="0" color="#000"><path d="M371.99 141.14h-7.5"/><text fill="#000" font-family="KaTeX_Main" font-size="8" transform="translate(378.99 143.74)"><tspan>2.00</tspan></text></g><g fill="none" stroke-linecap="round" stroke-linejoin="round" stroke-width="0" color="#000"><path d="M371.99 130.46h-7.5"/><text fill="#000" font-family="KaTeX_Main" font-size="8" transform="translate(378.99 133.06)"><tspan>2.20</tspan></text></g><g fill="none" stroke-linecap="round" stroke-linejoin="round" stroke-width="0" color="#000"><path d="M371.99 119.78h-7.5"/><text fill="#000" font-family="KaTeX_Main" font-size="8" transform="translate(378.99 122.38)"><tspan>2.40</tspan></text></g><g fill="none" stroke-linecap="round" stroke-linejoin="round" stroke-width="0" color="#000"><path d="M371.99 109.1h-7.5"/><text fill="#000" font-family="KaTeX_Main" font-size="8" transform="translate(378.99 111.7)"><tspan>2.60</tspan></text></g><g fill="none" stroke-linecap="round" stroke-linejoin="round" stroke-width="0" color="#000"><path d="M371.99 98.41h-7.5"/><text fill="#000" font-family="KaTeX_Main" font-size="8" transform="translate(378.99 101.01)"><tspan>2.80</tspan></text></g><g fill="none" stroke-linecap="round" stroke-linejoin="round" stroke-width="0" color="#000"><path d="M371.99 87.73h-7.5"/><text fill="#000" font-family="KaTeX_Main" font-size="8" transform="translate(378.99 90.33)"><tspan>3.00</tspan></text></g><g fill="none" stroke-linecap="round" stroke-linejoin="round" stroke-width="0" color="#000"><path d="M371.99 77.05h-7.5"/><text fill="#000" font-family="KaTeX_Main" font-size="8" transform="translate(378.99 79.65)"><tspan>3.20</tspan></text></g><g fill="none" stroke-linecap="round" stroke-linejoin="round" stroke-width="0" color="#000"><path d="M371.99 66.37h-7.5"/><text fill="#000" font-family="KaTeX_Main" font-size="8" transform="translate(378.99 68.97)"><tspan>3.40</tspan></text></g><g fill="none" stroke-linecap="round" stroke-linejoin="round" stroke-width="0" color="#000"><path d="M371.99 55.69h-7.5"/><text fill="#000" font-family="KaTeX_Main" font-size="8" transform="translate(378.99 58.29)"><tspan>3.60</tspan></text></g><g fill="none" stroke-linecap="round" stroke-linejoin="round" stroke-width="0" color="#000"><path d="M371.99 45.01h-7.5"/><text fill="#000" font-family="KaTeX_Main" font-size="8" transform="translate(378.99 47.61)"><tspan>3.80</tspan></text></g><path fill="none" d="M28 45.01V162.5M371.99 45.01H28" color="#000"/><text stroke-linecap="round" stroke-linejoin="round" stroke-width="0" color="#000" font-family="KaTeX_Main" font-size="10" text-anchor="middle" transform="rotate(-90 57.63 46.13)"><tspan font-weight="bold">Duration </tspan><tspan> in milliseconds</tspan></text><text stroke-linecap="round" stroke-linejoin="round" stroke-width="0" color="#000" font-family="KaTeX_Main" font-size="10" text-anchor="middle" transform="translate(199.99 195.75)"><tspan>Operations / 10</tspan><tspan dy="-5" font-size="8">6</tspan></text><text stroke-linecap="round" stroke-linejoin="round" stroke-width=".5" color="#000" font-family="KaTeX_Main" font-size="8" transform="translate(110.4 10.11)"><tspan>AVLBottomUp</tspan></text><g fill="none" stroke="currentColor" stroke-linecap="round" stroke-linejoin="round" stroke-width=".5" color="#000"><path stroke="#000" d="M74.9 7.51h29.9M28 149.75l.36 9.83.36-10.6.37.13.36 9.43.36-9.5.36 9.4.36-10.43.37 10.4.36-10.24.36.04.36 10.13.37-10.48.36 10.25.36-10.48.36-.94.36 10.77.37-9.97.36 9.83.36-10.07.36 10.16.36-10.58.37 10.13.36-10.2.36 10.01.36-10.95.36.4.37 10.08.36-10.77.36-.15.36 10.24.36-10.36.37 10.38.36-10.14.36 9.91.36-10.62.37 9.46.36-10.19h.36l.36 9.43.36-9.8.37 10.03.36-10.43.36 10.12.36-10.39.36-.36.37 10.57.36-10.02.36 10.28.36-10.53.36-.45.37 10.06.36-10.16.36 10.25.36-10.87.37 10.45.36-10.51.36 10.14.36-10.27.36.38.37 9.91.36-10.33.36-.27.36 9.87.36-9.97.37 10.41.36-10.46.36 9.95.36-10.36.36 10.76.37-11.25.36 10.4.36-10.27.36.15.37 9.79.36-10.1.36 10.53.36-11.01.36 10.58.37-9.93.36-.67.36 10.25.36-10.31.36 10.21.37-10.57.36.04.36 9.64.36-10.07.36 9.92.37-10.85.36 11.01.36-10.24.36 9.97.36-9.95.37.45.36 9.16.36-9.86.36-.49.37 10.2.36-10.2.36 9.81.36-10.36.36 10.11.37-10.25.36 9.68.36-9.66.36-.28.36 9.13.37-9.06.36 9.55.36-10.28.36 10.42.36-10.01.37 10.36.36-10.56.36-.38.36 10 .37-10.68.36 10.58.36-10.72.36.33.36 10.3.37-9.8.36 9.85.36-10.21.36 9.81.36-9.56.37 9.99.36-10.2.36.11.36 9.02.36-10.12.37-.03.36 10.38.36-9.81.36 9.87.36-9.77.37 9.19.36-10.12.36 10.65.36-10.49.37.25.36 9.18.36-9.71.36 9.69.36-9.42.37 9.99.36-10.56.36 10.09.36-10.08.36-.19.37 9.89.36-9.94.36.43.36 9.24.36-9.54.37 10.03.36-10.14.36 9.85.36-9.81.37 9.7.36-10.04.36 9.63.36-9.61.36-.1.37 9.66.36-10.04.36.45.36 9.46.36-10.28.37 9.96.36-9.91.36 9.73.36-10.25.36 10.82.37-10.34.36.56.36 9.25.36-9.91.36 9.87.37-10.32.36 9.81.36-9.45.36 10.06.37-10.56.36.02.36 10.04.36-9.72.36-.14.37 9.75.36-9.52.36 9.32.36-9.96.36 10.87.37-11.24.36 10.23.36-10.13.36.58.36 9.26.37-9.39.36 9.81.36-10.63.36.12.37 9.59.36-9.74.36 9.77.36-9.62.36 9.37.37-10.19.36 10.66.36-10.37.36-.12.36 10.13.37-9.9.36 9.77.36-10.41.36 10.32.36-10.59.37 9.81.36-9.95.36.32.36 9.82.37-10.28.36.86.36 9.56.36-10.32.36 10.07.37-9.15.36 9.09.36-9.49.36 9.07.36-10.43.37.16.36 9.83.36-9.89.36 10.25.36-9.55.37-.33.36 9.71.36-9.9.36 9.69.36-9.39.37 9.78.36-10.19.36.38.36 8.69.37-9.39.36 9.26.36-8.9.36 9.34.36-9.32.37 8.95.36-10.35.36 10.09.36-9.51.36-.44.37 9.54.36-10.04.36.05.36 9.89.36-10.2.37 10.4.36-9.85.36 9.76.36-10.23.37 10.04.36-10.11.36.46.36 8.98.36-9.47.37 10.44.36-10.73.36.29.36 9.56.36-9.92.37 10.67.36-10.5.36 10.04.36-10.25.36.16.37 9.71.36-9.85.36 10.04.36-9.77.36 9.6.37-9.81.36 10.14.36-10.66.36.42.37 9.43.36-9.94.36.8.36 8.64.36-9.16.37 9.77.36-10.48.36 10.07.36-9.92.36 10.28.37-10.49.36 10.21.36-9.92.36.04.36 10.02.37-9.97.36 9.75.36-10.39.36-.22.37 10.43.36-10.09.36 9.85.36-10.35.36 10.39.37-9.9.36.1.36 10.16.36-10.1.36 9.28.37-9.47.36 9.34.36-10.4.36 10.42.36-10.21.37.84.36 8.28.36-9.19.36.08.36 9.1.37-9.72.36 9.67.36-9.67.36 9.77.37-9.76.36 9.91.36-9.31.36-.29.36 9.34.37-9.56.36 9.46.36-9.2.36 9.56.36-9.92.37-.66.36 10.64.36-10.21.36 9.99.36-9.84.37 10.02.36-9.99.36-.36.36 9.12.37-9.04.36 9.65.36-10.07.36 9.83.36-9.75.37 9.82.36-9.64.36.53.36 8.81.36-9.68.37.18.36 9.14.36-9.53.36 10.07.36-9.57.37 9.89.36-10.79.36 10.02.36-9.34.37-.18.36 9.63.36-9.59.36 9.56.36-9.64.37 10.27.36-10.89.36-.19.36 10.11.36-9.73.37 9.55.36-10.25.36.82.36 9.27.36-9.58.37 9.75.36-9.84.36 9.99.36-9.77.36 9.88.37-9.67.36 9.11.36-9.7.36-.11.37 9.65.36-10 .36.18.36 9.82.36-9.37.37 9.04.36-9.13.36 9.23.36-9.65.36 9.65.37-9.73.36-.33.36 10.03.36-10.51.36 10.46.37-9.61.36 9.61.36-10.8.36.69.37 10.25.36-10.46.36 10.27.36-10.06.36-.33.37 10.16.36-10.15.36 9.67.36-9.65.36 10.32.37-10.96.36 10.56.36-10.44.36.25.36 9.29.37-10.03.36.02.36 10.12.36-9.89.36 10.2.37-10.45.36 10.07.36-9.65.36 9.57.37-10.08.36 9.93.36-9.46.36-.58.36 9.97.37-10.13.36 10.35.36-10.45.36 10.12.36-10.07.37.23.36 9.82.36-9.97.36 9.91.36-11 .37.81.36 9.97.36-9.84.36 9.21.37-9.57.36 8.4.36-9.68.36 10.73.36-9.39.37-.49.36 10.21.36-10.01.36-.06.36 8.96.37-9.43.36 9.54.36-10.06.36 10.84.36-10.41.37 10.57.36-10.6.36-.79.36 10.66.37-10.11.36 9.65.36-9.2.36 9.26.36-9.4.37 9.6.36-9.92.36-.53.36 10.8.36-10.38.37 9.9.36-10.6.36.55.36 9.94.36-9.91.37 9.32.36-9.31.36 9.47.36-9.9.36 9.85.37-9.46.36-.35.36 9.45.36-10.11.37.58.36 9.94.36-10.27.36 9.45.36-9.4.37 9.58.36-10.22.36 10.13.36-9.64.36-.31.37 10.3.36-10.12.36 9.66.36-9.46.36 10.36.37-11.08.36 10.21.36-10.08.36-.39.37 10.35.36-10.17.36.23.36 9.67.36-9.34.37 9.17.36-9.22.36 9.7.36-9.75.36 9.71.37-9.89.36 9.57.36-9.94.36-.18.36 9.75.37-10.13.36.8.36 8.93.36-9.53.36 9.93.37-9.68.36 9.57.36-9.54.36 9.97.37-10.43.36.34.36 9.74.36-9.82.36 9.55.37-9.66.36 10.32.36-10.07.36 9.64.36-10.38.37-.5.36 9.83.36-9.64.36.73.36 9.04.37-9.09.36 9.79.36-9.97.36 9.13.37-9.57.36 10.11.36-9.98.36.48.36 9.29.37-9.6.36 9.95.36-9.6.36-.16.36 9.69.37-10.2.36 10.2.36-10.26.36 10.31.36-10.13.37 10.17.36-10.56.36.33.36 9.12.36-9.26.37 9.53.36-9.55.36 9.71.36-10.03.37 9.61.36-10.06.36.43.36 9.61.36-9.69.37.26.36 9.41.36-10.03.36 10.7.36-9.93.37 9.81.36-9.65.36 9.87.36-9.89.36.11.37 9.15.36-9.45.36 9.73.36-9.71.37.03.36 9.26.36-9.24.36 9.77.36-10.11.37 9.61.36-9.76.36.19.36 9.29.36-10.14.37 10.19.36-10.09.36 9.57.36-9.64.36 10.02.37-9.54.36 9.6.36-10.03.36-.94.37 10.39.36-9.92.36.97.36 8.84.36-9.23.37 9.65.36-9.41.36 8.95.36-10.05.36 10.75.37-10.36.36.19.36 9.59.36-9.22.36 9.03.37-9.5.36.04.36 8.86.36-8.56.36 9 .37-9.63.36 9.29.36-9.09.36-1.17.37 10.69.36-9.41.36 9.4.36-9.64.36 9.85.37-10.13.36 9.84.36-9.56.36.23.36 9.16.37-9.58.36.27.36 8.96.36-9.79.36 10.7.37-9.93.36 9.16.36-10.02.36 9.87.37-9.74.36 9.81.36-10.42.36.33.36 10.08.37-9.45.36 9.17.36-9.01.36-.15.36 9.7.37-10.57.36 10.36.36-10.49.36 10.34.36-10.15.37-.01.36 10.39.36-9.85.36 9.95.36-10.44.37 10.12.36-10.06.36 10.2.36-9.63.37.06.36 9.08.36-9.76.36.32.36 9.21.37-9.72.36 9.22.36-9.62.36 10.24.36-9.15.37 9.77.36-9.89.36-.67.36 9.15.36-9.31.37 10.04.36-9.69.36 9.49.36-10.06.37.54.36 9.62.36-9.92.36 10.26.36-10.28.37 9.74.36-9.84.36.17.36 9.57.36-10.13.37 9.27.36-9.49.36 10.91.36-10.74.36 9.83.37-10.44.36-.04.36 10.03.36-9.17.36-.26.37 9.57.36-9.38.36 9.51.36-9.43.37 9.41.36-10.09.36 9.97.36-9.68.36.74.37 9.25.36-10.04.36 9.86.36-10.14.36 10.57.37-10.2.36-.25.36 9.8.36-10.2.36 10.93.37-10.39.36.17.36 8.41.36-8.86.37 9.29.36-9.02.36 10.02.36-10.54.36 9.86.37-9.54.36 10.06.36-10.01.36-.37.36 9.98.37-10.5.36.74.36 9.53.36-9.21.36 9.71.37-10.33.36 9.6.36-9.58.36 10.12.37-11.06.36.57.36 9.31.36-9.06.36 10.41.37-9.46.36 9.2.36-10.61.36.06.36 10.28.37-9.83.36 10.51.36-11.06.36 1.01.36 8.62.37-8.82.36 10 .36-10.6.36 9.97.36-10.54.37 10.75.36-9.58.36-.52.36 9.6.37-10.08.36.93.36 8.86.36-9.64.36 10.01.37-9.63.36 9.45.36-9.57.36 9.64.36-10.01.37 10.04.36-10.31.36.38.36 9.49.36-9.44.37 9.97.36-9.88.36 9.21.36-10.05.37.44.36 9.94.36-10.12.36 9.9.36-9.66h.37l.36 10.46.36-10.23.36 9.52L326 109l.37 10.39.36-9.79.36 9.49.36-9.59.36.23.37 9.86.36-9.31.36-.56.36 9.38.36-9.52.37 9.84.36-10.94.36 11.23.36-10.41.37 9.91.36-9.79.36.62.36 9.2.36-9.59.37 10.1.36-10.46.36 9.91.36-9.32.36 9.94.37-10.22.36-.21.36 9.96.36-10.6.36 10.63.37-10.1.36-.28.36 10.26.36-10.39.37 10.21.36-10.62.36 9.54.36-8.88.36 8.98.37-9.32.36.11.36 8.89.36-9.19.36-.37.37 8.94.36-8.79.36 9.89.36-9.65.36 9.32.37-9.03.36 8.81.36-9.52.36.9.36 9.24.37-9.54.36 9.63.36-9.88.36 9.75.37-9.86.36 9.75.36-9.86.36-.31.36 10.44.37-10.5.36.25.36 8.93.36-8.65.36 9.64.37-9.95.36 10.44.36-10.13.36 9.37.36-9.65.37 10.16.36-10.39.36.31.36 9.34.37-9.69.36.55.36 9.17.36-9.59.36 9.37.37-10.07.36 9.87.36-9.19.36 10.09.36-10.14.37-.31.36 9.7.36-10.63.36 10.63.36-9.94.37 10.53.36-9.85.36 10.18.36-9.87.37-.69.36 9.89.36-10.23.36.07.36 10 .37-9.64.36 9.74.36-10.45.36 10.25.36-10.01.37 10.7.36-10.59.36.83.36 8.81.36-10.37.37 10.37.36-10.27.36.86.36 8.92.36-9.98.37 10.53.36-10.41.36 10.51.36-10.05.37 10.74.36-10.28.36-.5.36 9.48.36-9.11.37 9.83.36-9.78.36 9.13"/><use xlink:href="#8390b__b" transform="matrix(3.75 0 0 3.75 354.25 108.48)"/><use xlink:href="#8390b__b" transform="matrix(3.75 0 0 3.75 89.85 7.51)"/></g><text stroke-linecap="round" stroke-linejoin="round" color="#000" font-family="KaTeX_Main" font-size="8" transform="translate(110.4 25.11)"><tspan>RedBlackBottomUp</tspan></text><g fill="none" stroke="currentColor" stroke-linecap="round" stroke-linejoin="round" color="#000"><path stroke="#F44336" d="M74.9 22.51h29.9M28 102.68l.36 9.42.36-10.27.37.45.36 9.16.36-9.68.36-.13.36 9.09.37-9.42.36 10.24.36-9.54.36 9.03.37-10.08.36 10.3.36-10.43.36 10.27.36-10.36.37.47.36 8.94.36-9.94.36 10.22.36-9.75.37 9.4.36-10.17.36.59.36 10.48.36-12.58.37 9.92.36-10.29.36.18.36 9.31.36-10.26.37 10.46.36-10.08.36 9.76.36-10.08.37 9.83.36-10.19.36.46.36 9.52.36-9.97.37.19.36 9.33.36-10.32.36 10.1.36-9.22.37 10.27.36-10.4.36 10.67.36-10.58.36-.2.37 8.52.36-9.88.36 10.32.36-10.57.37 10.42.36-10.3.36 9.94.36-13.24.36-.33.37 9.86.36-10.34.36 10.29.36-10.49.36-.01.37 10.03.36-9.76.36 9.38.36-10.49.36 10.82.37-10.32.36 9.94.36-10.31.36-.02.37 10.37.36-9.91.36-.5.36 9.84.36-10.37.37 10.79.36-10.23.36 10.05.36-10.46.36 10.8.37-11.11.36.18.36 9.71.36-9.19.36 10.33.37-10.98.36 10.63.36-10.13.36 10.96.36-11.14.37-.24.36 10.13.36-10.69.36.3.37 9.81.36-10.19.36 9.8.36-9.31.36 9.52.37-10.22.36 10.48.36-10.17.36 10.26.36-10.75.37.46.36 8.06.36-8.26.36.61.36 9.1.37-9.86.36 9.92.36-10.36.36 10.29.37-10.37.36 10.46.36-10.36.36.6.36 9.29.37-10.59.36 10.26.36-9.94.36 10.62.36-10.56.37 10.54.36-10.26.36.77.36 9.11.36-12.03.37.01.36 9.7.36-10.14.36 10.74.36-10.42.37 9.73.36-10.21.36 10.56.36-10.49.37-.1.36 9.98.36-10.1.36 10.03.36-9.97.37.31.36 9.39.36-9.92.36 10.96.36-11.07.37 9.92.36-10.07.36 9.76.36-10.08.36.03.37 10.57.36-10.39.36 9.91.36-9.8.37 9.98.36-10.54.36 10.58.36-10.34.36.11.37 10.24.36-10.6.36.77.36 8.97.36-9.23.37 10.45.36-10.99.36 9.8.36-9.82.36 10.09.37-10.09.36.17.36 9.19.36-9.8.36 9.59.37-10.16.36.14.36 9.77.36-9.46.37 10.12.36-10.06.36 10.29.36-10.51.36.44.37 9.21.36-9.19.36 10.37.36-11.19.36 10.49.37-10.51.36 10.07.36-10.15.36 10.4.36-10.29.37.46.36 9.86.36-10.37.36.55.37 8.37.36-9.91.36 9.97.36-9.28.36 10.4.37-10.6.36 10.1.36-9.71.36-.06.36 10.48.37-10.26.36 6.6.36-10.37.36-.22.36 9.49.37-9.78.36 9.9.36-10.11.36 9.98.37-11.31.36 1.69.36 9.82.36-10.38.36 10.02.37-9.41.36 9.01.36-9.76.36 9.7.36-9.86h.37l.36 10.11.36-10.49.36 1.51.36 8.93.37-9.7.36 9.61.36-10.15.36 9.73.36-9.47.37 9.56.36-9.67.36 9.76.36-10.85.37.58.36 9.94.36-9.71.36 9.36.36-9.84.37-.42.36 10.2.36-10.59.36 10.34.36-9.81.37 9.23.36-9.81.36 1.29.36 9.51.36-10.81.37 9.92.36-9.55.36 9.62.36-10.24.37 10.48.36-10.35.36-.14.36 9.16.36-9.35.37.97.36 8.86.36-9.64.36 9.27.36-9.37.37 10 .36-9.88.36 10.31.36-10.63.36 1.03.37 9.25.36-9.82.36 10.84.36-11.04.36 9.57.37-9.64.36-.05.36 9.66.36-9.77.37 9.61.36-10.32.36 10.36.36-10 .36.32.37 10.53.36-10.32.36 9.32.36-9.95.36 10.26.37-10.59.36 11.32.36-11.01.36.02.36 10.31.37-10.68.36 1.01.36 10.05.36-10.17.37 9.46.36-10.65.36 10.46.36-10.6.36 10.06.37-9.45.36-.18.36 9.72.36-9.82.36 9.65.37-10.11.36 10.39.36-10.58.36.53.36 9.13.37-8.96.36 8.93.36-9.51.36.37.36 9.2.37-9.32.36 9.41.36-9.77.36 10.53.37-9.95.36 9.4.36-9.47.36 9.48.36-10.73.37.8.36 9.42.36-9.74.36.47.36 9.36.37-9.63.36 10.11.36-9.92.36 9.33.36-9.54.37 9.75.36-9.85.36-.17.36 10.09.37-10.2.36 9.72.36-9.68.36 9.43.36-9.04.37-.03.36 10.3.36-10.88.36 9.54.36-10.24.37.54.36 9.62.36-9.83.36 9.7.36-9.6.37 10 .36-10.47.36 10.12.36-9.06.37-.57.36 8.65.36-9.04.36-.05.36 9.58.37-8.99.36 9 .36-10.36.36 11.12.36-10.44.37 10.11.36-10.03.36 11.42.36-11.65.36.15.37 10.1.36-10.43.36 10.18.36-9.58.36 9.09.37-9.49.36-.07.36 9.92.36-9.92.37 10.62.36-11.11.36.44.36 9.76.36-9.67.37 9.56.36-9.08.36 9.85.36-10.74.36 9.89.37-9.02.36.1.36 10.36.36-9.92.36-1.85.37 8.79.36-9.88.36 9.39.36-9.72.37 10.19.36-10.2.36 10.33.36-10.59.36.08.37 9.34.36-9.8.36 9.7.36-8.9.36 10.15.37-11.02.36 10.53.36-10.59.36-.5.36 10.35.37-10.2.36 9.88.36-9.53.36.29.36 9.54.37-9.61.36 10.08.36-10.06.36 9.7.37-10.03.36 9.51.36-9.73.36.34.36 9.75.37-10.29.36.14.36 9.54.36-9.66.36 10.19.37-9.59.36 9.32.36-9.74.36 9.85.36-10.62.37 1.02.36 9.74.36-9.91.36 9.33.37-9.32.36 9.43.36-10.87.36 11.19.36-8.9.37-1.45.36 10.13.36-10.36.36.37.36 8.9.37-9.37.36 9.65.36-10.07.36 10.28.36-10.75.37 10.51.36-10.34.36 10.47.36-10.1.37-.5.36 9.26.36-8.3.36-.22.36 9.61.37-9.74.36 9.88.36-10.41.36 10.91.36-10.22.37 9.84.36-9.39.36.32.36 8.91.36-9.55.37 9.52.36-9.61.36 9.23.36-9.41.36 9.44.37-10.09.36.32.36 10.28.36-10.62.37.3.36 10.56.36-10.63.36 9.48.36-9.91.37 9.66.36-9.99.36 10.83.36-10.62.36-.17.37 10.03.36-9.63.36 9.92.36-9.46.36.94.37 9.21.36-10.31.36 9.54.36-10.24.37 10.19.36-10.19.36 9.74.36-9.37.36-.38.37 9.22.36-9.18.36 9.32.36-9.43.36 10.4.37-10.69.36 9.73.36-9.98.36-.7.36 10.95.37-11.01.36 1.31.36 8.78.36-9.19.36 10.12.37-9.95.36 9.88.36-9.92.36 11.03.37-11.2.36.74.36 9.34.36-9.71.36 9.67.37-9.97.36.23.36 9.97.36-9.68.36 8.97.37-10.31.36 10.55.36-9.72.36.27.36 8.66.37-9.43.36 10.77.36-10.08.36 8.87.37-9.11.36 9.57.36-9.87.36 10.64.36-10.34.37-.73.36 11.15.36-9.61.36-.64.36 9.2.37-10.25.36 10.22.36-10.02.36 10.82.36-10.42.37 9.92.36-10.46.36.18.36 9.55.36-9.64.37 10.1.36-9.65.36-.51.36 9.79.37-10 .36 10.13.36-9.69.36 9.66.36-9.43.37-.28.36 9.08.36-8.84.36 10.04.36-10.19.37 9.87.36-9.55.36 8.73.36-9.66.36.04.37 9.01.36-8.95.36.83.36 8.99.37-10 .36 9.45.36-8.87.36 9.14.36-9.13.37 10.47.36-10.65.36 9.4.36-11.24.36 1.31.37 9.89.36-9.78.36 10.61.36-10.23.36.13.37 10.12.36-9.31.36 9.37.36-9.86.37 10.37.36-13.58.36.14.36 8.62.36-9.74.37 9.77.36-9.86.36 9.21.36-9.19.36 9.61.37-9.64.36.1.36 8.95.36-9.26.36.03.37 9.77.36-9.32.36 8.26.36-8.76.36 8.94.37-9.69.36 9.74.36-8.5.36-.62.37 9.42.36-8.65.36 8.54.36-9.98.36 10.95.37-10.59.36-.32.36 10.14.36-9.71.36 9.51.37-10.41.36 9.95.36-9.37.36-.97.36 10.61.37-9.78.36 9.05.36-9.16.36 9.81.37-9.51.36 9.55.36-10.11.36.18.36 9.83.37-9.59.36-.33.36 10.43.36-10.05.36 9.35.37-9.65.36 9.29.36-9.9.36 10.89.36-9.52.37-.74.36 9.41.36-9.67.36 10.45.36-10.87.37 9.64.36-9.29.36-.31.36 10.28.37-10.08.36 10.16.36-10.66.36.15.36 10.16.37-9.58.36 9.04.36-9.87.36 10.46.36-9.6.37 9.88.36-9.83.36 9.28.36-9.98.36-.02.37 10.31.36-10.02.36-.38.36 10.47.37-9.23.36 8.79.36-9.6.36 9.79.36-9.72.37 9.75.36-9.83.36-.05.36 9.29.36-10.3.37 9.97.36-10.12.36 10.55.36-10.07.36.03.37 9.41.36-11.73.36 11.8.36-9.94.36.44.37 9.52.36-9.6.36 8.82.36-10.61.37 10.39.36-9.94.36 10.83.36-8.64.36 1.24.37 8.29.36-10.23.36-.14.36 8.46.36-9.07.37 9.47.36-8.46.36 9.01.36-10.06.36 10.22.37-9.99.36 9.95.36-9.91.36 1.11.37 8.31.36-9.09.36 9.35.36-9.54.36 9.13.37-9.47.36-.22.36 10.63.36-9.93.36 9.11.37-10.66.36.57.36 8.88.36-8 .36 10.04.37-10.43.36 9.19.36-9.13.36 10.04.37-10.99.36.63.36 9.09.36-8.88.36.42.37 9.45.36-10.23.36 9.75.36-9.66.36 10.14.37-10.23.36 10.57.36-11.14.36 1.31.36 8.45.37-8.9.36 9.67.36-9.69.36 9.43.36-9.72.37 9.76.36-9.69.36-.62.36 11.38.37-11.14.36 9.85.36-10.27.36.22.36 9.86.37-9.33.36 9.43.36-9.56.36 9.47.36-10.72.37 9.99.36-9.33.36.04.36 10.14.36-10.05.37-.5.36 9.32.36-10.44.36 10.14.37-9.2.36 9.82.36-9.58.36 9.56.36-9.64.37.52.36 9.23.36-9.44.36 9.35.36-8.97.37 9.47.36-9.88.36 9.63.36-9.81.36.01.37 10.07.36-9.45.36-.57.36 9.14.36-8.92.37 9.7.36-11.06.36 11.01.36-9.85.37 9.53.36-9.81.36 9.4.36-10.09.36.1.37 9.82.36-9.58.36.39.36 10.04.36-9.95.37 9.68.36-9.5.36 10.3.36-9.46.36 10.1.37-10.15.36-.77.36 9.55.36-10.3.37 10.45.36-10.66.36 9.48.36-8.52.36 9.01.37-9.56.36-.44.36 9.05.36-9.08.36.43.37 8.54.36-8.86.36 9.61.36-9.66.36 9.01.37-8.68.36 8.66.36-9.8.36 1.47.36 8.59.37-9.16.36 9.49.36-10.1.36.27.37 9.78.36-10.11.36 9.42.36-10.24.36 10.41.37-10.11.36 9.5.36-10.97.36 1.45.36 9.93.37-10.07.36 10.19.36-9.81.36 9.23.36-9.64.37 10.57.36-10.65.36.04.36 9.26.37-9.57.36.61.36 9.59.36-9.86.36 9.36.37-10.23.36 10.64.36-9.72.36 9.33.36-9.77.37 1.57.36 8.69.36-10.35.36 9.48.36-9.72.37.83.36 9.2.36-9.31.36 10.15.37-10.73.36 9.53.36-9.81.36.03.36 9.46.37-8.44.36 10.1.36-10.03.36 9.81.36-9.9.37 10.78.36-10.27.36 9.46.36-9.88.36-1.09.37 10.93.36-10.73.36 1.09.36 9.02.36-9.52.37 10.58.36-11.01.36 9.67.36-9.62.37 10.88.36-10.84.36-.25.36 10.2.36-9.93.37 9.96.36-9.57.36-.55"/><use xlink:href="#8390b__a" color="#F44336" transform="matrix(3.75 0 0 3.75 67.83 88.89)"/><use xlink:href="#8390b__a" color="#F44336" transform="matrix(3.75 0 0 3.75 89.85 22.51)"/></g><text stroke-linecap="round" stroke-linejoin="round" color="#000" font-family="KaTeX_Main" font-size="8" transform="translate(241.1 10.11)"><tspan>AVLWeakBottomUp</tspan></text><g fill="none" stroke="currentColor" stroke-linecap="round" stroke-linejoin="round" color="#000"><path stroke="#00C853" d="M205.6 7.51h29.9M28 149.24l.36 9.96.36-10.23.37-.25.36 9.59.36-10.01.36 9.9.36-10.27.37-.21.36 10.46.36-10.84.36 11 .37-10.58.36 10.08.36-10.61.36 10.08.36-10.13.37.21.36 9.49.36-9.98.36 9.76.36-9.83.37 10 .36-10.05.36 9.78.36-10.59.36-.26.37 10.4.36-10.11.36-.35.36 10 .36-10.25.37 10.35.36-11.11.36 10.69.36-10.55.37 9.66.36-10.09.36-.33.36 9.64.36-9.7.37 10.19.36-10.82.36-.36.36 10.18.36-10.11.37 10.2.36-10 .36 10.38.36-10.43.36-.71.37 9.89.36-9.68.36 9.86.36-10.16.37 9.94.36-10.7.36 10.59.36-10.52.36.27.37 9.92.36-10.53.36 10.14.36-10.39.36.26.37 10.37.36-10.46.36 10.06.36-10.78.36 10.9.37-10.92.36 10.34.36-10.64.36.28.37 10.16.36-9.82.36 9.59.36-10.45.36-.32.37 10.95.36-10.53.36 9.91.36-10.32.36 10.5.37-11.32.36.8.36 9.4.36-9.55.36 10.12.37-10.61.36 9.96.36-10.25.36 10.29.36-10.01.37.27.36 9.17.36-10.2.36-.03.37 10.04.36-10.15.36 9.86.36-10.18.36 9.81.37-10.55.36 9.99.36-9.57.36-.08.36 9.04.37-9.5.36 9.87.36-10.5.36 10.83.36-10.42.37-.16.36 10.41.36-10.66.36 10.57.37-10.77.36 10.35.36-10.66.36.42.36 10.05.37-10.16.36 9.98.36-10.47.36 10.05.36-9.39.37 9.43.36-10.41.36.7.36 8.93.36-10.16.37.45.36 10.07.36-10.13.36 10.36.36-10.29.37 9.36.36-9.98.36 10.32.36-10.14.37.01.36 9.58.36-9.79.36 10.03.36-9.96.37 10.46.36-10.55.36.06.36 9.62.36-10.12.37 10.14.36-10.47.36 10.22.36-9.8.36-.02.37 9.74.36-9.83.36 9.74.36-9.9.37 9.79.36-10.25.36 10.07.36-10.09.36.02.37 9.82.36-10.33.36.32.36 9.5.36-9.73.37 10.03.36-10.15.36 9.73.36-9.68.36 10.33.37-10.38.36.22.36 9.6.36-9.64.36 9.58.37-10.07.36 9.46.36-9.65.36.6.37 9.23.36-9.68.36 9.67.36-9.65.36-.04.37 9.56.36-9.07.36 8.78.36-9.85.36 10.52.37-10.54.36 10.16.36-10.11.36.12.36 9.57.37-9.36.36 9.42.36-10.35.36.3.37 9.22.36-9.84.36 9.83.36-9.64.36 9.57.37-10.52.36 10.69.36-10.26.36-.1.36 9.98.37-9.91.36 10.13.36-10.78.36 10.17.36-10.33.37-.1.36 10.33.36-9.6.36 9.75.37-10.47.36.73.36 9.75.36-10.2.36 9.97.37-9.23.36 9.22.36-9.58.36 9.39.36-9.88.37-.21.36 10.01.36-9.63.36-.19.36 9.36.37-9.53.36 9.62.36-9.75.36 9.31.36-9.47.37 9.71.36-10 .36.4.36 8.25.37-8.86.36 9.21.36-8.86.36 9.33.36-9.32.37 8.79.36-10.28.36.14.36 10.61.36-10.52.37 9.37.36-9.6.36-.74.36 10.37.36-9.99.37 8.38.36-8.14.36 10 .36-10.22.37 10.01.36-9.96.36.26.36 8.84.36-9.28.37.3.36 8.93.36-9.29.36 9.41.36-9.76.37 10.43.36-10.03.36 9.85.36-10.19.36.09.37 10.03.36-9.98.36 9.67.36-10.2.36 9.75.37-9.24.36 10.04.36-10.58h.36l.37 10.03.36-10.06.36 10.1.36-10.16.36.08.37 10.13.36-10.45.36 9.92.36-10 .36 10.17.37-10.54.36 10.47.36-10.39.36.21.36 10.19.37-10.29.36.1.36 9.35.36-10.1.37 10.27.36-10.04.36 10.11.36-10.44.36 10.44.37-9.88.36.08.36 9.7.36-9.72.36 9.08.37-9.4.36 9.71.36-10.33.36 10.3.36-10.7.37.69.36 9.46.36-9.22.36.21.36 8.54.37-9.66.36 9.95.36-9.74.36 9.83.37-10.4.36 10.14.36-8.96.36-.37.36 8.55.37-9.06.36 9.61.36-9.57.36-.37.36 9.99.37-10.24.36 10.26.36-10.25.36 9.92.36-9.94.37 10.13.36-9.81.36-.29.36 9.34.37-9.23.36 9.33.36-10.34.36 10.1.36-9.13.37 8.87.36-9.45.36.2.36 9.54.36-9.78.37.24.36 9.55.36-9.8.36 9.59.36-9.54.37 10.2.36-10.72.36 10 .36-9.35.37-.23.36 9.54.36-9.41.36 9.38.36-9.64.37.24.36 9.13.36-10.12.36 10.25.36-9.99.37 9.93.36-10.57.36 11.19.36-10.64.36.26.37 8.98.36-9.4.36 10.15.36-9.89.36 9.25.37-9.53.36 9.82.36-9.97.36-.28.37 8.66.36-9.17.36.7.36 9.94.36-9.97.37 9.49.36-9.3.36 9.01.36-9.6.36 9.63.37-9.28.36.11.36 9.59.36-10.66.36 10.24.37-9.35.36-.01.36 8.96.36-9.43.37 10.46.36-10.44.36 10.36.36-10.78.36-.03.37 9.95.36-9.81.36 9.57.36-9.41.36 10.16.37-10.85.36 10.23.36-10.24.36-.08.36 9.5.37-10.05.36 9.88.36-9.18.36-.27.36 10.16.37-10.45.36 10.03.36-10.05.36 9.94.37-10.22.36 10.3.36-9.93.36-.09.36 9.77.37-9.81.36 9.79.36-10.16.36.02.36 9.98.37-9.35.36 9.37.36-9.77.36 10.01.36-11.24.37.86.36 9.25.36-9.55.36 9.7.37-9.77.36 9.97.36-10.96.36 10.36.36-9.25.37-.61.36 10.09.36-9.93.36-.02.36 8.98.37-9.01.36 9.28.36-9.92.36 10.73.36-10.63.37 10.47.36-10.43.36.06.36 9.33.37-9.13.36 9.15.36-9.21.36 9.81.36-10.13.37-.25.36 10.38.36-10.48.36 10.25.36-9.64.37 9.38.36-10.04.36.05.36 9.99.36-9.75.37 9.39.36-9.97.36 9.94.36-9.68.36 10.23.37-10.02.36-.38.36 9.51.36-10.01.37.72.36 9.83.36-10.49.36 9.75.36-9.57.37 9.47.36-10.29.36 10.34.36-9.68.36-.1.37 9.61.36-9.56.36 9.23.36-9.12.36 10.29.37-11.02.36-.02.36 10.06.36-10.21.37 10.12.36-10.01.36 9.43.36-9.47.36.38.37 9.13.36-9.3.36 9.66.36-9.45.36 9.55.37-9.9.36 9.66.36-10.14.36-.28.36 9.88.37-9.87.36.55.36 9.16.36-9.61.36 9.91.37-9.97.36 9.71.36-9.67.36 10.43.37-10.78.36.75.36 8.97.36-9.53.36 9.56.37-9.97.36 10.06.36-9.5.36-.44.36 9.56.37-10.41.36 9.89.36-9.79.36.41.36 9.54.37-9.28.36 9.8.36-10.16.36 9.57.37-9.73.36 9.83.36-9.71.36.32.36 9.75.37-9.67.36 10 .36-10.34.36.57.36 9.47.37-10.34.36 10.37.36-9.96.36 10.35.36-10.55.37 10.17.36-10.02.36.26.36 9.33.36-9.89.37 10 .36-9.92.36 9.96.36-9.91.37-.06.36 10 .36-9.87.36 9.57.36-9.74.37.15.36 9.49.36-9.8.36 10.39.36-10.02.37 9.75.36-9.39.36 9.49.36-9.15.36-1.01.37 9.52.36-9.29.36.12.36 9.53.37-9.43.36 9.03.36-9.13.36 9.52.36-10.29.37 10.09.36-9.85.36.25.36 8.97.36-9.56.37 9.82.36-10.09.36 9.88.36-9.97.36 10.37.37-10 .36-.02.36 9.62.36-10.04.37 10.05.36-10.05.36.65.36 9.18.36-9.45.37 9.64.36-9.61.36 8.9.36-9.72.36 10.57.37-10.21.36-.26.36 9.69.36-9.23.36-.44.37 9.95.36-9.36.36 8.56.36-8.54.36 9.03.37-9.76.36 9.47.36-9.24.36-.38.37 9.77.36-9.39.36 9.22.36-9.67.36 10.08.37-9.7.36 9.18.36-9.34.36.45.36 9.31.37-9.7.36 9.78.36-10.18.36-.12.36 10.7.37-9.59.36 8.83.36-9.79.36 9.64.37-9.71.36 9.83.36-10.45.36.21.36 10.22.37-9.49.36-.43.36 10.17.36-9.63.36 9.52.37-10.39.36 9.56.36-9.98.36 9.97.36-9.9.37.55.36 9.93.36-9.93.36 9.94.36-10.35.37 10.13.36-9.71.36 9.88.36-9.56.37-.41.36 9.98.36-10.47.36.17.36 9.42.37-9.46.36 9.54.36-9.47.36 9.9.36-9.65.37 9.99.36-9.87.36-.26.36 8.9.36-9.6.37 9.96.36-9.56.36-.41.36 9.44.37-9.05.36 9.35.36-9.5.36 10.05.36-9.97.37 9.72.36-9.86.36.45.36 9.09.36-10.24.37 9.55.36-9.26.36 10.41.36-10.75.36 10.16.37-10.56.36.05.36 9.97.36-9.49.36-.05.37 9.7.36-9.32.36 9.25.36-9.52.37 9.54.36-10.09.36 10.28.36-10.03.36 1.24.37 8.76.36-10.15.36 9.48.36-9.38.36.46.37 9.68.36-9.71.36 8.96.36-9.61.36 10.77.37-10.57.36 10.02.36-10.42.36.39.37 9.18.36-9.11.36 9.61.36-10.4.36 10.23.37-9.95.36 10.52.36-10.14.36-.78.36 10.54.37-10.35.36.21.36 9.71.36-9.48.36 9.43.37-9.21.36 9.42.36-9.44.36 10.03.37-10.6.36.47.36 8.77.36-9.16.36 9.8.37-9.51.36-.55.36 9.54.36-9.34.36 9.67.37-9.91.36 10.48.36-11.23.36 1.3.36 8.5.37-9.05.36 10.08.36-9.96.36 9.3.36-9.87.37 10.44.36-10.09.36-.14.36 9.31.37-9.82.36 10.66.36-10.6.36.39.36 9.8.37-9.5.36 9.47.36-10.09.36 10.12.36-10.12.37 9.85.36-9.87.36.39.36 9.53.36-9.64.37 9.79.36-9.54.36-1.14.36 9.95.37-9.42.36 9.73.36-9.88.36 9.71.36-9.82.37.12.36 10.41.36-10.06.36 9.09.36-9.63.37 9.92.36-9.48.36 9.31.36-9.43.36.14.37 9.77.36-9.84.36-.08.36 9.31.36-9.6.37 9.83.36-10.35.36 10.74.36-10.21.37 9.77.36-9.55.36.45.36 8.96.36-9.5.37 10.04.36-10.24.36 9.35.36-9.13.36.1.37 9.32.36-10.01.36 10.23.36-10.66.36 10.68.37-10.6.36.22.36 9.99.36-10.26.37 10.27.36-10.34.36 9.28.36-8.53.36 8.9.37-9.39.36-.18.36 8.75.36-8.73.36.04.37 8.58.36-8.6.36 9.87.36-9.84.36 9.15.37-9.01.36 9.01.36-9.9.36 1 .36 9.19.37-9.53.36 9.38.36-9.53.36 9.51.37-9.46.36-.44.36 10.11.36-10.14.36 10.44.37-10.35.36 9.69.36-10.49.36 1.48.36 9.48.37-10.06.36 10.57.36-10.15.36 8.9.36-9.62.37 10.29.36-10.22.36.18.36 9.14.37-9.53.36 1.05.36 9.02.36-9.82.36 9.19.37-9.92.36 10.47.36-10.19.36 10.34.36-10.05h.37l.36 9.39.36-10.14.36 10.35.36-9.89.37 10.34.36-9.77.36-.06.36 9.81.37-10.29.36 9.65.36-9.44.36-.31.36 9.83.37-9.46.36 9.77.36-10.26.36 10.07.36-9.8.37 10.58.36-10.34.36.46.36 8.73.36-10.03.37 10.28.36-10.83.36 1.29.36 8.99.36-10.02.37 10.36.36-10.06.36 10.14.36-9.7.37 10.63.36-10.44.36-.34.36 9.36.36-9.26.37 9.89.36-9.91.36 9.65"/><use xlink:href="#8390b__a" color="#00C853" transform="matrix(3.75 0 0 3.75 125.4 127.44)"/><use xlink:href="#8390b__a" color="#00C853" transform="matrix(3.75 0 0 3.75 220.55 7.51)"/></g><text stroke-linecap="round" stroke-linejoin="round" color="#000" font-family="KaTeX_Main" font-size="8" transform="translate(241.1 25.11)"><tspan>AVLWeakTopDown</tspan></text><g fill="none" stroke="currentColor" stroke-linecap="round" stroke-linejoin="round" color="#000"><path stroke="#FFAB00" stroke-dasharray="4.5,2.0,0.5,2.0,0.5,2.0" d="M205.6 22.51h29.9M28 143.75l.36 8.14.36-9.57.37 8.94.36-10.73.36 11.42.36-10.71.36 10.28.37-10.42.36 1.61.36 10.27.36-11.57.37-1.5.36 10.76.36-10.22.36 9.12.36-9.86.37 9.82.36-9.8.36 10.6.36-10.82.36 9.69.37-9.24.36-.84.36 10.59.36-11.84.36 1.41.37 8.26.36-9.64.36 11.24.36-9.42.36 9.08.37-9.67.36 8.3.36-12.22.36 1.74.37 10.72.36-8.79.36 10.15.36-11.49.36 8.84.37-8.94.36 10.09.36-10.1.36-.67.36 10.76.37-11.71.36.4.36 11.93.36-10.34.36 9.21.37-11.85.36 12.33.36-11.06.36 11.34.37-10.72.36.36.36 9.35.36-11.57.36 10.54.37-9.74.36.62.36 9.97.36-9.97.36 8.39.37-9.58.36 11.14.36-11.14.36 11.29.36-10.98.37.15.36 9.68.36-10.51.36 9.73.37-9.82.36 11.33.36-11.36.36 10.8.36-11.47.37 1.06.36 10.62.36-10.62.36-.39.36 9.61.37-10.17.36 10.74.36-11.47.36 10.42.36-9.9.37 8.27.36-9.61.36-.72.36 10.51.36-9.72.37 10.01.36-8.89.36-.63.36 8.89.37-9.99.36 8.65.36-8.11.36 10.2.36-10.57.37-1.53.36 11.88.36-12.55.36 11.2.36-8.76.37 8.87.36-11.69.36 12.41.36-8.31.36 9.13.37-10.99.36-2.65.36 12.59.36-9.58.37.56.36 9.45.36-10.41.36 10.27.36-10.53.37 10.15.36-14.4.36 13.22.36-10.66.36 1.83.37 9.12.36-8.62.36 8.65.36-10 .36-.27.37 9.51.36-9.5.36 9.21.36-10.37.36 10 .37-8.97.36-1.01.36 11.54.36-11.68.37 10.85.36-10.25.36 9.08.36-9.48.36 9.53.37-7.52.36-2.9.36 10.06.36-9.29.36 1.2.37 7.65.36-9.45.36 10.19.36-8.26.36 9.13.37-10.49.36 10.32.36-11.19.36 10.2.37-10.44.36-.06.36 9.62.36-5.97.36 8.55.37-10.01.36-.19.36 9.22.36-10.24.36 9.57.37-9.97.36 10.36.36-10.29.36 1.54.36 10.36.37-10.36.36 8.96.36-9.94.36 9.83.36-9.01.37 8.94.36-10.38.36.68.36 8.99.37-10.49.36 1.95.36 7.91.36-8.18.36 8.66.37-10.05.36 10.51.36-11.65.36 11.12.36-10.27.37-.39.36 8.76.36-8.7.36 10.19.36-11.41.37 10.18.36-8.94.36.38.36 9.13.37-10.29.36 10.01.36-9.16.36 10.31.36-11.4.37-.71.36 10.57.36-8.46.36 9.79.36-9.39.37 7.76.36-9.62.36 9.6.36-10.37.36.74.37 9.4.36-9.84.36.98.36 9.71.37-9.51.36 10.03.36-10.07.36 9.8.36-10.87.37 10.4.36-11.09.36.75.36 8.69.36-9.07.37 10.96.36-10.53.36 9.69.36-9.6.36-.77.37 10.08.36-9.64.36 8.9.36-10.17.36-.46.37 9.68.36-10.35.36 11.31.36-8.04.37 8.53.36-10.64.36 9.74.36-11.45.36 10.01.37-10.19.36.54.36 8.79.36-11.27.36-1.24.37 12 .36-8.7.36 11.08.36-11.82.36 10.26.37-8.27.36 11.95.36-13.35.36-.01.37 9.9.36-9.66.36 12.42.36-9.39.36 6.01.37-7.52.36-1.83.36 13.48.36-11.75.36 9.52.37-10.41.36-.3.36 10.48.36-9.27.36 7.73.37-8.08.36 9.11.36-10 .36 9.36.36-9.2.37 1.02.36 9.3.36-9.97.36.19.37 9.06.36-9.86.36 9.76.36-10.38.36 10.82.37-9.61.36 10.85.36-10.99.36 8.92.36-10.86.37 1.38.36 10.89.36-11.16.36 8.88.36-9.51.37 9.72.36-11.57.36.39.36 11.9.37-10.74.36 11.19.36-11.09.36.56.36 9.62.37-8.9.36 8.98.36-9.83.36 9.21.36-8.61.37 8.84.36-8.48.36-.59.36 9.58.36-10.63.37.64.36 7.4.36-7.53.36 9.13.36-10.02.37 10.45.36-9.45.36 9.92.36-9.37.37-.66.36 10.66.36-11.83.36 11.05.36-10.66.37 9.73.36-9.71.36 10.11.36-10.39.36-.59.37 9.12.36-9.42.36 10.55.36-9.09.36.19.37 8.18.36-8.27.36 9.93.36-10.71.37 9.41.36-9.97.36 7.4.36-7.36.36.65.37 9.14.36-9.91.36-1.17.36 9.38.36-10.17.37 10.3.36-9.34.36 11.76.36-12.29.36 13.24.37-9.63.36-1.6.36 9.76.36-8.78.37 8.61.36-9.29.36 12.16.36-11.83.36 10.64.37-11.31.36 1.13.36 9.46.36-9.54.36 1.48.37 7.98.36-9.81.36 10.99.36-10.16.36 9.89.37-8.53.36 7.99.36-10.68.36 10.87.36-9.61.37-.46.36 9.99.36-9.2.36-1.5.37 8.99.36-9.08.36 8.56.36-9.46.36 11.95.37-11.17.36 9.34.36-9.88.36.61.36 9.38.37-9.82.36 11.49.36-10.64.36 8.71.36-10.83.37 12.62.36-9.87.36-1.75.36 10.73.37-9.36.36.73.36 8.14.36-8.79.36 8.57.37-9.85.36 9.49.36-11.51.36 13.01.36-10.92.37 1.28.36 8.36.36-8.83.36 9.49.36-9.49.37-1.44.36 9.52.36-8.04.36 8.36.36-10.13.37 11.68.36-9.97.36 9.79.36-11.18.37-.2.36 9.94.36-9.31.36 9.14.36-9.31.37 8.97.36-10.61.36 10.37.36-8.98.36-1.42.37 10.89.36-10.8.36.98.36 9.52.36-10.91.37 10.49.36-9.39.36 10.21.36-14.09.37 10.86.36-7.36.36-1.91.36 9.94.36-7.99.37 9.57.36-9.2.36.19.36 8.77.36-11.21.37 10.43.36-10.9.36 11.24.36-8.97.36-.86.37 9.12.36-9.32.36 10.96.36-8.89.37 8.14.36-10.52.36 10.41.36-10.41.36 10.5.37-11.15.36 1.15.36 8.63.36-9.69.36.82.37 9.38.36-8.67.36 9.11.36-9.36.36 8.29.37-8.94.36 10.3.36-11.65.36 1.72.36 8.9.37-9.91.36 9.33.36-11.42.36 3.35.37 8.98.36-10.32.36 9.61.36-8.79.36 9.93.37-9.79.36-1.75.36 11.16.36-9.86.36 8.24.37-8.88.36 9.83.36-9.33.36 10.49.36-10.74.37-1.13.36 9.82.36-8.68.36-.67.37 8.17.36-8.65.36 9.91.36-9.61.36 9.76.37-10.36.36 9.76.36-8.52.36 8.78.36-9.29.37-1.96.36 11.11.36-8.95.36 8.62.36-11.16.37.64.36 11.36.36-12.23.36 10.53.36-9.83.37 9.12.36-10.13.36 1.02.36 10.79.37-11 .36 10.66.36-10.66.36 10.04.36-10.37.37 10.74.36-9.5.36-1.71.36 9.26.36-9.71.37.36.36 10.23.36-7.29.36 9.13.36-10.5.37 9.63.36-11.05.36 10.84.36-11.44.37-1.04.36 11.51.36-9.82.36 9.36.36-6.61.37 6.84.36-8.9.36-1.97.36 9.9.36-7.78.37 9.14.36-8.46.36 7.15.36-8.52.36-.38.37 9.43.36-10.44.36 10.39.36-9.56.36 9.12.37-9.64.36 9.82.36-8.16.36.39.37 10.86.36-8.78.36.16.36 7.89.36-10.35.37 8.9.36-9.3.36 8.07.36-8.72.36 10.72.37-10.63.36 1.64.36 9.49.36-7.89.36 7.2.37-9.36.36 10.95.36-9.4.36-1.27.37 10.6.36-11.02.36 9.62.36-10.15.36.01.37 8.42.36-7.76.36 9.65.36-9.84.36 9.92.37-10.63.36 9.67.36-8.45.36 10.97.36-10.53.37.41.36 7.38.36-8.28.36.92.37 7.66.36-8.91.36 8.97.36-9.48.36 10.88.37-11.15.36 11.08.36-9.21.36.13.36 8.74.37-10.08.36 10.14.36-10.78.36 10.92.36-10.79.37.5.36 10.3.36-10.68.36 10.16.36-10.14.37-.73.36 10.25.36-10.39.36 10.57.37-10.45.36 9.37.36-10.08.36 11.18.36-9.47.37-1.75.36 9.3.36-10.44.36 2.45.36 8.59.37-7.17.36 8.94.36-9.94.36 9.13.36-9.05.37 8.56.36-9.86.36 11 .36-11.17.37-.05.36 9.55.36-8.39.36 6.48.36-9.77.37 10.86.36-9.95.36 1.7.36 10.11.36-9.48.37 8.9.36-10.67.36.2.36 8.79.36-9.1.37 9.97.36-10.03.36 8.39.36-7.96.36 9.56.37-9.57.36.79.36 7.84.36-8.1.37-1.89.36 10.48.36-8.83.36 9.53.36-10.01.37 10.08.36-10.14.36 9.45.36-9.85.36 1.43.37 9.23.36-9.19.36 8.67.36-11.58.36 8.56.37-6.87.36 9.25.36-10.5.36.49.37 10.99.36-12.4.36 9.65.36-9.29.36 2.05.37 7.85.36-7.81.36 11.23.36-10.99.36 8.95.37-9.27.36 8.9.36-7.46.36-.98.36 7.1.37-9 .36-.9.36 10.6.36-9.87.36 10.72.37-9.91.36 7.8.36-9.87.36 9.88.37-6.89.36-.07.36 10.46.36-9.65.36 9.4.37-10 .36 10.89.36-10.54.36 9.34.36-10.21.37-.22.36 10.76.36-10.74.36-.57.36 10.3.37-9.88.36 9.95.36-10.14.36 10.41.37-10.03.36 9.53.36-10.43.36 9.59.36-9.89.37-.2.36 8.73.36-8.52.36-1.19.36 8.38.37-8.85.36 9.15.36-8.31.36 10.42.36-10.86.37 10.97.36-11.24.36-.53.36 10.1.37-9.99.36 13.5.36-11.93.36 11.23.36-10.41.37 10 .36-10.79.36-.78.36 10.63.36-10.44.37.41.36 8.97.36-9.9.36 8.54.36-8.69.37 9.4.36-8.85.36 8.6.36-9.96.36 1.21.37 9.43.36-8.03.36 7.94.36-10.43.37.31.36 10.17.36-10.61.36 10.62.36-8.23.37 9.36.36-9.59.36 11.09.36-10.7.36-1.74.37 9.35.36-8.32.36 8.08.36-8.79.36 10.66.37-10.81.36 9.45.36-10.64.36-.71.37 9.96.36-9.63.36-1.75.36 9.51.36-7.33.37 8.58.36-7.85.36 10.92.36-9.83.36 8.5.37-10.34.36-.25.36 8.47.36-7.68.36 11.37.37-11.67.36 1.88.36 10 .36-9 .36 10.11.37-10.17.36 8.48.36-7.87.36-1.47.37 7.86.36-7.22.36 11.44.36-10.12.36 8.78.37-9.67.36 10.59.36-8.86.36 9.57.36-9.6.37-1.45.36 8.51.36-7.86.36-1.9.36 11.13.37-9.09.36 8.06.36-6.74.36 7.35.37-8.5.36 10.78.36-12.42.36 1.96.36 8.38.37-8.69.36 9.09.36-10.56.36 1.64.36 8.12.37-9.11.36 8.61.36-8.61.36 10.57.36-12.33.37 2.7.36 5.77.36-8.06.36 11.55.36-11.68.37 10.22.36-9.95.36 9.53.36-9.67.37-1.06.36 10.55.36-10.34.36.34.36 10.25.37-10.33.36 9.9.36-9.2.36 9.71.36-10.94.37 10.49.36-8.17.36 10.11.36-11.45.36 1.51.37 8.6.36-9.88.36 10.84.36-9.8.37-1.31.36 9.07.36-8.78.36 10.41.36-11.17.37 11.23.36-11.37.36 1.44.36 9.62.36-10.63.37 9.43.36-9.46.36 9.71.36-10.33.36 10.93.37-10.51.36.88.36 9.05.36-8.78.37-3.7.36 11.42.36-8.79.36 7.79.36-7.56.37 9.26.36-9.85.36 9 .36-8.42.36-.96.37 7.95.36-7.4.36 6.36.36-8.01.36 8.16.37-7.25.36-.56.36 8.78.36-9.19.36 11.31.37-11.18.36 10.27.36-11.51.36 2.06.37 7.95.36-7.67.36 9.59.36-9.83.36 9.33.37-9.21.36 9.74.36-9.89"/><use xlink:href="#8390b__c" color="#FFAB00" transform="matrix(3.75 0 0 3.75 182.98 120.21)"/><use xlink:href="#8390b__c" color="#FFAB00" transform="matrix(3.75 0 0 3.75 220.55 22.51)"/></g><path fill="none" d="M28 45.01V162.5M371.99 45.01H28" color="#000"/></svg>