<svg xmlns="http://www.w3.org/2000/svg" xmlns:xlink="http://www.w3.org/1999/xlink" viewBox="0 0 400 200"><path fill="none" d="M0 0h400v200H0z"/><defs><use xlink:href="#ce3d2__a" id="ce3d2__f" stroke="currentColor" transform="rotate(180)"/><use xlink:href="#ce3d2__b" id="ce3d2__c" stroke="currentColor" transform="rotate(45)"/><use xlink:href="#ce3d2__c" id="ce3d2__e" fill="currentColor" stroke="none"/><path id="ce3d2__b" stroke="currentColor" stroke-width=".267" d="M-1-1h2v2h-2z"/><path id="ce3d2__a" stroke="currentColor" stroke-width=".267" d="m0-1.33-1.33 2h2.66z"/><circle id="ce3d2__d" cx="0" cy="0" r="1" stroke="currentColor" stroke-width=".267"/></defs><path fill="none" stroke="#CCC" stroke-linecap="round" stroke-linejoin="round" stroke-width=".1" d="M46.1 162.5V45.01" class="ce3d2__gridline" color="#000"/><g fill="none" stroke-linecap="round" stroke-linejoin="round" stroke-width="0" color="#000"><path d="M46.1 162.5V155m0-109.99v7.5"/><text fill="#000" font-family="KaTeX_Main" font-size="8" text-anchor="middle" transform="translate(46.1 172.6)"><tspan> 1</tspan></text></g><path fill="none" stroke="#CCC" stroke-linecap="round" stroke-linejoin="round" stroke-width=".1" d="M82.31 162.5V45.01" class="ce3d2__gridline" color="#000"/><g fill="none" stroke-linecap="round" stroke-linejoin="round" stroke-width="0" color="#000"><path d="M82.31 162.5V155m0-109.99v7.5"/><text fill="#000" font-family="KaTeX_Main" font-size="8" text-anchor="middle" transform="translate(82.31 172.6)"><tspan> 2</tspan></text></g><path fill="none" stroke="#CCC" stroke-linecap="round" stroke-linejoin="round" stroke-width=".1" d="M118.52 162.5V45.01" class="ce3d2__gridline" color="#000"/><g fill="none" stroke-linecap="round" stroke-linejoin="round" stroke-width="0" color="#000"><path d="M118.52 162.5V155m0-109.99v7.5"/><text fill="#000" font-family="KaTeX_Main" font-size="8" text-anchor="middle" transform="translate(118.52 172.6)"><tspan> 3</tspan></text></g><path fill="none" stroke="#CCC" stroke-linecap="round" stroke-linejoin="round" stroke-width=".1" d="M154.73 162.5V45.01" class="ce3d2__gridline" color="#000"/><g fill="none" stroke-linecap="round" stroke-linejoin="round" stroke-width="0" color="#000"><path d="M154.73 162.5V155m0-109.99v7.5"/><text fill="#000" font-family="KaTeX_Main" font-size="8" text-anchor="middle" transform="translate(154.73 172.6)"><tspan> 4</tspan></text></g><path fill="none" stroke="#CCC" stroke-linecap="round" stroke-linejoin="round" stroke-width=".1" d="M190.94 162.5V45.01" class="ce3d2__gridline" color="#000"/><g fill="none" stroke-linecap="round" stroke-linejoin="round" stroke-width="0" color="#000"><path d="M190.94 162.5V155m0-109.99v7.5"/><text fill="#000" font-family="KaTeX_Main" font-size="8" text-anchor="middle" transform="translate(190.94 172.6)"><tspan> 5</tspan></text></g><path fill="none" stroke="#CCC" stroke-linecap="round" stroke-linejoin="round" stroke-width=".1" d="M227.15 162.5V45.01" class="ce3d2__gridline" color="#000"/><g fill="none" stroke-linecap="round" stroke-linejoin="round" stroke-width="0" color="#000"><path d="M227.15 162.5V155m0-109.99v7.5"/><text fill="#000" font-family="KaTeX_Main" font-size="8" text-anchor="middle" transform="translate(227.15 172.6)"><tspan> 6</tspan></text></g><path fill="none" stroke="#CCC" stroke-linecap="round" stroke-linejoin="round" stroke-width=".1" d="M263.36 162.5V45.01" class="ce3d2__gridline" color="#000"/><g fill="none" stroke-linecap="round" stroke-linejoin="round" stroke-width="0" color="#000"><path d="M263.36 162.5V155m0-109.99v7.5"/><text fill="#000" font-family="KaTeX_Main" font-size="8" text-anchor="middle" transform="translate(263.36 172.6)"><tspan> 7</tspan></text></g><path fill="none" stroke="#CCC" stroke-linecap="round" stroke-linejoin="round" stroke-width=".1" d="M299.57 162.5V45.01" class="ce3d2__gridline" color="#000"/><g fill="none" stroke-linecap="round" stroke-linejoin="round" stroke-width="0" color="#000"><path d="M299.57 162.5V155m0-109.99v7.5"/><text fill="#000" font-family="KaTeX_Main" font-size="8" text-anchor="middle" transform="translate(299.57 172.6)"><tspan> 8</tspan></text></g><path fill="none" stroke="#CCC" stroke-linecap="round" stroke-linejoin="round" stroke-width=".1" d="M335.78 162.5V45.01" class="ce3d2__gridline" color="#000"/><g fill="none" stroke-linecap="round" stroke-linejoin="round" stroke-width="0" color="#000"><path d="M335.78 162.5V155m0-109.99v7.5"/><text fill="#000" font-family="KaTeX_Main" font-size="8" text-anchor="middle" transform="translate(335.78 172.6)"><tspan> 9</tspan></text></g><path fill="none" stroke="#CCC" stroke-linecap="round" stroke-linejoin="round" stroke-width=".1" d="M371.99 162.5V45.01" class="ce3d2__gridline" color="#000"/><g fill="none" stroke-linecap="round" stroke-linejoin="round" stroke-width="0" color="#000"><path d="M371.99 162.5V155m0-109.99v7.5"/><text fill="#000" font-family="KaTeX_Main" font-size="8" text-anchor="middle" transform="translate(371.99 172.6)"><tspan> 10</tspan></text></g><g fill="none" stroke-linecap="round" stroke-linejoin="round" stroke-width="0" color="#000"><path d="M371.99 162.5h-7.5"/><text fill="#000" font-family="KaTeX_Main" font-size="8" transform="translate(378.99 165.1)"><tspan>1.20</tspan></text></g><g fill="none" stroke-linecap="round" stroke-linejoin="round" stroke-width="0" color="#000"><path d="M371.99 149.45h-7.5"/><text fill="#000" font-family="KaTeX_Main" font-size="8" transform="translate(378.99 152.05)"><tspan>1.30</tspan></text></g><g fill="none" stroke-linecap="round" stroke-linejoin="round" stroke-width="0" color="#000"><path d="M371.99 136.39h-7.5"/><text fill="#000" font-family="KaTeX_Main" font-size="8" transform="translate(378.99 138.99)"><tspan>1.40</tspan></text></g><g fill="none" stroke-linecap="round" stroke-linejoin="round" stroke-width="0" color="#000"><path d="M371.99 123.34h-7.5"/><text fill="#000" font-family="KaTeX_Main" font-size="8" transform="translate(378.99 125.94)"><tspan>1.50</tspan></text></g><g fill="none" stroke-linecap="round" stroke-linejoin="round" stroke-width="0" color="#000"><path d="M371.99 110.28h-7.5"/><text fill="#000" font-family="KaTeX_Main" font-size="8" transform="translate(378.99 112.88)"><tspan>1.60</tspan></text></g><g fill="none" stroke-linecap="round" stroke-linejoin="round" stroke-width="0" color="#000"><path d="M371.99 97.23h-7.5"/><text fill="#000" font-family="KaTeX_Main" font-size="8" transform="translate(378.99 99.83)"><tspan>1.70</tspan></text></g><g fill="none" stroke-linecap="round" stroke-linejoin="round" stroke-width="0" color="#000"><path d="M371.99 84.17h-7.5"/><text fill="#000" font-family="KaTeX_Main" font-size="8" transform="translate(378.99 86.77)"><tspan>1.80</tspan></text></g><g fill="none" stroke-linecap="round" stroke-linejoin="round" stroke-width="0" color="#000"><path d="M371.99 71.12h-7.5"/><text fill="#000" font-family="KaTeX_Main" font-size="8" transform="translate(378.99 73.72)"><tspan>1.90</tspan></text></g><g fill="none" stroke-linecap="round" stroke-linejoin="round" stroke-width="0" color="#000"><path d="M371.99 58.06h-7.5"/><text fill="#000" font-family="KaTeX_Main" font-size="8" transform="translate(378.99 60.66)"><tspan>2.00</tspan></text></g><g fill="none" stroke-linecap="round" stroke-linejoin="round" stroke-width="0" color="#000"><path d="M371.99 45.01h-7.5"/><text fill="#000" font-family="KaTeX_Main" font-size="8" transform="translate(378.99 47.61)"><tspan>2.10</tspan></text></g><path fill="none" d="M28 45.01V162.5M371.99 45.01H28" color="#000"/><text stroke-linecap="round" stroke-linejoin="round" stroke-width="0" color="#000" font-family="KaTeX_Main" font-size="10" text-anchor="middle" transform="rotate(-90 57.63 46.13)"><tspan font-weight="bold">Maximum Path Length </tspan><tspan> / log</tspan><tspan dy="3" font-size="8">2</tspan><tspan dy="-3">(Size)</tspan></text><text stroke-linecap="round" stroke-linejoin="round" stroke-width="0" color="#000" font-family="KaTeX_Main" font-size="10" text-anchor="middle" transform="translate(199.99 195.75)"><tspan>Operations / 10</tspan><tspan dy="-5" font-size="8">6</tspan></text><text stroke-linecap="round" stroke-linejoin="round" color="#000" font-family="KaTeX_Main" font-size="8" transform="translate(132.8 10.11)"><tspan>LBSTBottomUp</tspan></text><g fill="none" stroke="currentColor" stroke-linecap="round" stroke-linejoin="round" color="#000"><path stroke="#3B75EA" d="M97.3 7.51h29.9M28 153.66l.36.25.36.24.37.24.36.23.36-6.61.36.23.36.23.37.22.36 7.03.36-6.59.36.21.37.2.36.21.36.2.36.19.36-6.56.37.2.36 6.93.36.18.36 6.91.36.17.37-6.55.36.18.36 6.86.36.16.36.16.37.15.36-6.52.36.16.36.15.36-6.49.37 6.8.36.14.36.15.36.14.37.14.36.15.36-6.48.36.14.36 6.74.37.14.36.13.36.13.36.13.36.12.37-6.44.36.13.36.12.36.13.36 6.67.37.12.36.12.36.11.36.12.37.11.36.11.36.11.36.11.36.11.37-6.4.36.11.36.11.36.11.36.1.37.11.36-6.38.36.11.36 6.58.36-6.37.37.11.36.1.36.1.36.1.37.1.36.1.36.1.36.1.36.1.37.09.36.1.36.09.36.1.36.09.37.09.36.09.36.09.36.09.36 6.49.37.09.36.08.36.09.36.08.36.08.37.08.36.08.36.08.36.08.37.08.36.08.36.08.36.08.36.07.37.08.36.07.36.08.36.07.36.08.37.07.36.07.36.07.36.08.36.07.37.07.36-6.25.36 6.39.36.07.37.07.36.07.36.06.36.07.36.07.37.07.36.06.36.07.36.06.36-6.22.37.06.36.07.36.06.36.07.36.07.37.06.36.06.36.07.36.06.36.07.37.06.36.06.36.06.36.06.37.07.36.06.36 6.31.36.06.36.06.37.05.36-6.18.36.06.36.05.36.06.37.06.36.06.36.05.36.06.36.06.37.05.36.06.36 6.28.36-6.17.37.06.36.05.36.06.36.05.36.05.37.06.36 6.25.36.05.36.06.36-6.15.37 6.25.36-6.15.36.05.36.06.36.05.37.05.36.05.36.05.36.05.36.05.37.05.36.05.36.05.36.05.37.04.36.05.36.05.36.05.36.05.37.04.36.05.36.05.36.05.36.04.37.05.36.05.36.04.36.05.36.04.37.05.36.04.36.05.36.04.37.05.36.04.36.05.36.04.36.04.37.05.36.04.36.04.36.05.36.04.37.04.36.04.36.05.36.04.36.04.37.04.36.04.36.04.36-6.06.37.04.36.04.36.04.36.05.36.04.37.04.36.04.36.04.36.04.36.04.37 6.14.36.04.36.04.36.03.36.04.37.04.36.04.36.04.36.04.36.03.37.04.36.04.36.04.36.04.37.03.36.04.36.04.36.03.36.04.37.04.36.03.36.04.36.03.36.04.37.04.36.03.36.04.36.03.36.04.37.03.36.04.36.03.36.04.37.03.36.04.36.03.36.04.36.03.37.04.36.03.36.03.36.04.36.03.37.03.36.04.36.03.36.03.36.04.37.03.36.03.36.04.36.03.36.03.37.03.36.03.36.04.36.03.37.03.36.03.36.04.36.03.36.03.37.03.36.03.36.03.36.03.36.03.37.03.36.04.36.03.36.03.36.03.37.03.36.03.36.03.36.03.37.03.36.03.36.03.36.03.36.03.37.03.36.03.36.03.36.02.36.03.37.03.36.03.36.03.36.03.36.03.37.03.36.03.36.02.36.03.36.03.37.03.36.03.36.03.36.02.37.03.36.03.36-5.94.36.03.36.03.37.02.36.03.36.03.36.03.36.03.37.03.36.02.36.03.36.03.36.03.37.02.36.03.36.03.36.03.37.02.36.03.36.03.36.03.36.02.37.03.36.03.36.02.36.03.36.03.37.02.36.03.36.03.36.02.36.03.37.03.36.02.36.03.36.03.37.02.36.03.36.02.36.03.36.02.37.03.36.03.36.02.36.03.36.02.37.03.36.02.36.03.36.02.36.03.37.02.36.03.36.02.36.03.36.02.37.03.36.02.36.02.36.03.37.02.36.03.36.02.36.03.36.02.37.02.36.03.36.02.36.03.36.02.37.02.36.03.36.02.36.02.36.03.37.02.36.03.36.02.36.02.37.03.36.02.36.02.36.03.36.02.37.02.36.02.36.03.36.02.36.02.37.03.36-5.87.36.03.36.02.36.02.37.02.36 5.91.36.02.36.02.36.03.37.02.36.02.36.02.36.03.37.02.36.02.36-5.85.36.02.36.02.37.02.36.03.36.02.36.02.36.02.37.03.36.02.36.02.36.02.36.02.37.03.36.02.36.02.36 5.88.37.03.36-5.84.36.02.36.02.36 5.88.37-5.84.36.02.36.03.36.02.36.02.37.02.36.02.36.02.36.02.36.02.37.02.36.03.36.02.36.02.37.02.36.02.36.02.36.02.36.02.37.02.36.02.36.02.36.02.36.02.37.03.36.02.36.02.36.02.36.02.37.02.36.02.36-5.82.36.02.36.02.37.02.36.03.36.01.36.03.37 5.85.36.02.36.02.36.02.36.02.37 5.84.36.02.36.02.36.02.36.02.37.02.36.02.36.02.36.01.36.02.37.02.36.02.36.02.36.02.37.02.36.01.36.02.36.02.36.02.37.02.36.02.36.01.36.02.36.02.37.02.36.02.36.01.36.02.36.02.37.02.36.02.36.01.36.02.36.02.37.02.36.01.36.02.36.02.37.02.36.01.36.02.36.02.36.02.37.02.36.01.36.02.36.02.36.01.37.02.36.02.36.02.36.01.36.02.37.02.36.01.36.02.36.02.37.02.36.01.36.02.36.02.36.01.37.02.36.02.36.01.36.02.36.02.37.01.36.02.36.02.36.01.36.02.37.02.36.01.36.02.36.02.36.01.37.02.36.02.36.01.36.02.37.01.36.02.36.02.36.01.36.02.37.02.36.01.36.02.36.01.36.02.37.02.36.01.36.02.36.01.36.02.37.02.36.01.36.02.36.01.37.02.36.01.36.02.36.02.36.01.37.02.36.01.36.02.36.01.36.02.37.01.36.02.36.02.36.01.36.02.37.01.36.02.36.01.36.02.37.01.36.02.36.01.36.02.36.01.37.02.36.01.36.02.36.01.36.02.37.01.36.02.36.01.36.02.36.01.37-5.73.36.02.36.01.36.02.36.01.37.02.36.01.36.02.36.01.37.02.36.01.36.02.36.01.36.02.37.01.36.02.36.01.36.02.36.01.37.02.36.01.36.02.36.01.36.02.37.01.36.02.36.01.36.02.37.01.36.02.36.01.36.02.36.01.37.02.36.01.36.01.36.02.36.01.37.02.36.01.36.02.36.01.36.02.37.01.36.01.36.02.36.01.36.02.37.01.36.02.36.01.36.02.37.01.36.01.36.02.36.01.36.02.37.01.36.01.36.02.36.01.36.02.37.01.36.01.36.02.36.01.36.02.37.01.36.01.36.02.36.01.37.01.36.02.36.01.36.02.36.01.37.01.36.02.36.01.36.01.36.02.37.01.36.01.36.02.36.01.36.02.37.01.36.01.36.02.36.01.36.01.37.02.36.01.36.01.36.02.37.01.36.01.36.02.36.01.36.01.37.01.36.02.36.01.36.02.36.01.37.01.36.01.36.02.36.01.36.01.37.02.36.01.36.01.36.02.37.01.36.01.36.01.36.02.36.01.37.01.36.02.36.01.36.01.36.01.37.02.36.01.36.01.36.01.36.02.37.01.36.01.36.02.36.01.37.01.36.01.36.02.36.01.36.01.37.01.36.02.36.01.36.01.36.01.37.02.36.01.36.01.36.01.36.02.37.01.36.01.36.01.36.02.36-5.67.37.02.36.01.36 5.68.36.02.37.01.36.01.36.01.36.02.36.01.37.01.36.01.36.01.36.02.36.01.37.01.36.01.36.01.36.02.36.01.37.01.36.01.36.01.36.02.37.01.36.01.36.01.36.01.36.02.37.01.36.01.36.01.36.01.36.01.37.02.36.01.36.01.36.01.36.01.37.02.36.01.36.01.36.01.36.01.37.01.36.01.36.02.36.01.37.01.36.01.36.01.36.01.36.02.37.01.36.01.36.01.36.01.36.01.37.01.36.02.36.01.36.01.36.01.37.01.36.01.36.01.36.01.37.02.36.01.36.01.36.01.36.01.37.01.36.01.36.01.36.02.36.01.37.01.36.01.36.01.36.01.36.01.37.01.36.02.36.01.36.01.36.01.37.01.36.01.36.01.36.01.37.01.36.01.36.02.36.01.36.01.37.01.36.01.36.01.36.01.36.01.37.01.36.01.36.01.36.01.36.01.37.02.36.01.36.01.36.01.37.01.36.01.36.01.36.01.36.01.37.01.36.01.36.01.36.01.36-5.61.37.01.36.01.36.01.36.01.36.01.37.01.36.01.36.01.36.01.37.02.36.01.36.01.36.01.36.01.37.01.36.01.36.01.36.01.36.01.37.01.36.01.36.01.36 5.63.36.02.37.01.36.01.36.01.36.01.36.01.37.01.36.01.36.01.36.01.37.01.36.01.36.01.36.01.36.01.37.01.36.01.36.01"/><use xlink:href="#ce3d2__d" color="#3B75EA" transform="matrix(3.75 0 0 3.75 354.25 155.84)"/><use xlink:href="#ce3d2__d" color="#3B75EA" transform="matrix(3.75 0 0 3.75 112.25 7.51)"/></g><text stroke-linecap="round" stroke-linejoin="round" color="#000" font-family="KaTeX_Main" font-size="8" transform="translate(132.8 25.11)"><tspan>LBSTRelaxed</tspan></text><g fill="none" stroke="currentColor" stroke-linecap="round" stroke-linejoin="round" color="#000"><path stroke="#FFAB00" stroke-dasharray="4.0,2.0,1.0,2.0" d="M97.3 22.51h29.9M28 77.81l.36-6.52.36.36.37.36.36-6.51.36-6.49.36.35.36.35.37-6.48.36 95.68.36-6.59.36.22.37-6.57.36-13.33.36-6.53.36.23.36.23.37.23.36-13.25.36.23.36.23.36-6.49.37.23.36-13.18.36-6.46.36.24.36.24.37.23.36-6.44.36-6.43.36.23.36.23.37.23.36-6.42.36 79.83.36-6.47.37.16.36-6.46.36.16.36-6.45.36-6.44.37.17.36.16.36-6.42.36.16.36-12.98.37.17.36.16.36.17.36-6.39.36.17.37-6.38.36.16.36.17.36-6.37.37.17.36-6.36.36.17.36.17.36.16.37.16.36-6.34.36.17.36-6.33.36.16.37.16.36-6.32.36.17.36.16.36.16.37.16.36.15.36 90.55.36-6.35.37.11.36.1.36.1.36-6.34.36.11.37-6.33.36-6.32.36.11.36.1.36-6.31.37.11.36.11.36.11.36-6.3.36.11.37.11.36.1.36.11.36-6.28.36.11.37.1.36-6.27.36.11.36.11.37-6.27.36.11.36-6.25.36.11.36.1.37.11.36.11.36-6.24.36-6.24.36.11.37.11.36.11.36.11.36-6.22.36-6.22.37.11.36.11.36.11.36.11.37.11.36.11.36.1.36.11.36.11.37.1.36 82 .36.07.36.07.36.07.37-6.22.36.07.36.08.36.07.36-6.21.37.07.36.07.36.07.36-6.2.36-6.2.37.08.36.07.36.08.36.07.37.07.36.08.36.07.36.07.36-6.18.37.07.36.08.36.07.36.07.36.07.37-6.16.36.07.36.07.36-6.16.36.08.37.07.36.07.36.08.36-6.15.37.07.36-6.14.36-6.13.36.07.36.08.37.07.36.08.36.07.36.08.36-6.13.37.08.36.07.36-6.11.36.07.36.08.37.07.36.08.36.07.36.08.36.07.37.07.36.08.36.07.36.07.37.08.36.07.36.07.36.07.36.07.37.07.36.07.36.07.36.07.36.07.37.07.36-6.08.36.06.36.07.36.07.37.07.36.07.36-6.07.36.07.37.07.36.07.36.07.36.06.36.07.37.07.36.07.36.06.36.07.36.07.37.06.36.07.36.06.36-6.05.36 91.8.37.04.36.04.36.04.36-6.06.37.04.36.05.36.04.36.04.36.05.37.04.36.04.36.05.36-6.06.36.05.37.04.36-6.05.36.05.36.04.36.05.37.04.36.04.36.05.36.04.36-6.03.37-6.04.36.05.36.05.36.04.37.05.36.04.36.05.36.04.36.05.37.04.36.05.36.04.36-6.02.36.05.37.04.36.05.36.04.36.05.36.04.37.05.36.04.36.04.36-6 .37.05.36.04.36.04.36.05.36.04.37.05.36.04.36.05.36.04.36-5.99.37.04.36.05.36.04.36.04.36-5.98.37.04.36.05.36.04.36.05.36-5.98.37.04.36.05.36.04.36.05.37.04.36-5.97.36.05.36.04.36.05.37.05.36.04.36.05.36.04.36.05.37.04.36.04.36.05.36.04.36.05.37.04.36.04.36.05.36-5.96.37.05.36.04.36.05.36.04.36.05.37.04.36-5.95.36.05.36.04.36-5.94.37.05.36.04.36.05.36.04.36.05.37.04.36.04.36.05.36.04.36.05.37.04.36.04.36.05.36.04.37.04.36.05.36.04.36-5.92.36.04.37.05.36.04.36.04.36.05.36.04.37.04.36.05.36.04.36.04.36 83.43.37.03.36.03.36.03.36.03.37.02.36.03.36.03.36.03.36.03.37.02.36.03.36.03.36.03.36-5.92.37.03.36.03.36.03.36.03.36.02.37.03.36.03.36.03.36-5.91.37.03.36-5.9.36.03.36.03.36.03.37.02.36.03.36.03.36.03.36.03.37.03.36.03.36.03.36.03.36.02.37.03.36.03.36.03.36.03.36.03.37.03.36.02.36.03.36.03.37-5.88.36.02.36.03.36.03.36.03.37.03.36.03.36.02.36.03.36.03.37-5.87.36.02.36.03.36.03.36.03.37.03.36.03.36.02.36.03.37-5.86.36.03.36.02.36.03.36.03.37.03.36.03.36.03.36-5.86.36.03.37.03.36.03.36.02.36.03.36.03.37.03.36-5.85.36.03.36.03.36.03.37.02.36.03.36.03.36.03.37.03.36.03.36.03.36.03.36.03.37.03.36.02.36-5.84.36.03.36.03.37.03.36.03.36-5.84.36.03.36.03.37.03.36.03.36.03.36.03.37.03.36.03.36.03.36.02.36.03.37.03.36.03.36.03.36.03.36.03.37.03.36.03.36.02.36.03.36.03.37.03.36.03.36.02.36-5.81.37.02.36.03.36.03.36.03.36.03.37.03.36.02.36.03.36.03.36.03.37.03.36.03.36-5.81.36.02.36.03.37.03.36.03.36.03.36.03.36.02.37.03.36.03.36.03.36.03.37.03.36.02.36.03.36.03.36.03.37.03.36.02.36.03.36.03.36.03.37-5.8.36.03.36.03.36.02.36.03.37-5.79.36.03.36.03.36.02.37.03.36.03.36.03.36.03.36.03.37.02.36.03.36.03.36.03.36.03.37.02.36.03.36.03.36.03.36.02.37.03.36.03.36.03.36.02.36-5.78.37.03.36.03.36.03.36.03.37.02.36.03.36.03.36.03.36.02.37.03.36 81.21.36.02.36.02.36.02.37.02.36.02.36-5.78.36.02.36.02.37.02.36.02.36.02.36.01.37.02.36-5.77.36.02.36.02.36.02.37.02.36.02.36.02.36.02.36.02.37.01.36-5.76.36.02.36-5.77.36.03.37.02.36.01.36.03.36.02.36.01.37.03.36.02.36.01.36.02.37.02.36.02.36.02.36.02.36-5.75.37.02.36.02.36.02.36.02.36-5.75.37.02.36.02.36.02.36.02.36.02.37.02.36.02.36.02.36.02.37.02.36.02.36.02.36.02.36.02.37.02.36.02.36.02.36.02.36.02.37.02.36.02.36.02.36.02.36.02.37.02.36.02.36.02.36.02.37.02.36.02.36.02.36.02.36.02.37.02.36.02.36.02.36.02.36.01.37.02.36.02.36.02.36.02.36-5.73.37.02.36.02.36.02.36-5.72.36.02.37.02.36.02.36.02.36.02.37.02.36.01.36.03.36.02.36.01.37.02.36.02.36.02.36.02.36.02.37.02.36.02.36.02.36.02.36.02.37.02.36.02.36.02.36-5.72.37.02.36.02.36.02.36.02.36.02.37.02.36.02.36.02.36.02.36.02.37.02.36.02.36-5.71.36-5.7.36.02.37.02.36.02.36.02.36.02.36.02.37.02.36.02.36.02.36.02.37.02.36.02.36.02.36.02.36.02.37.02.36.02.36.02.36.02.36.02.37.02.36-5.7.36.02.36.02.36.02.37.02.36.02.36.02.36.02.37.02.36.02.36.02.36.02.36.02.37.02.36.02.36.02.36-5.69.36.02.37.02.36.02.36.02.36.02.36.02.37.02.36.02.36.02.36.02.36.02.37-5.68.36.02.36.02.36.02.37-5.68.36.02.36.02.36.02.36.02.37.02.36.02.36.03.36.02.36.02.37.02.36.02.36.02.36.02.36.02.37.02.36.02.36.02.36.02.37.02.36.02.36.02.36.02.36.02.37.02.36.02.36.02.36.02.36.02.37.02.36.02.36.02.36.02.36.02.37.02.36.02.36.02.36.01.37.02.36.02.36.02.36.02.36.02.37.02.36.02.36.02.36.02.36.02.37.02.36.02.36.02.36.02.36.02.37.02.36.02.36.01.36.02.36.02.37.02.36.02.36.02.36.02.37.02.36.02.36.01.36.02.36.02.37.02.36.02.36.02.36.02.36.02.37.01.36.02.36.02.36.02.36.02.37.02.36.02.36.02.36.01.37.02.36.02.36.02.36.02.36.02.37.01.36.02.36.02.36.02.36.02.37.02.36.01.36.02.36.02.36.02.37.02.36.02.36.01.36.02.36.02.37.02.36.02.36.01.36.02.37.02.36.02.36.01.36-5.63.36.02.37.02.36.01.36.02.36.02.36.02.37.02.36.01.36.02.36.02.36-5.63.37.02.36.01.36.02.36.02.37.02.36.02.36.02.36.01.36.02.37.02.36.02.36.02.36.01.36.02.37.02.36.02.36 95.96.36.01.36.01.37.01.36.01.36.01.36.02.36.01.37.01.36.01.36.01.36.01.37.01.36-5.62.36.01.36.01.36.01.37.01.36.01.36.02.36-5.63.36.01.37.02.36.01.36.01.36-5.62.36.01.37.01.36.01.36.02.36.01.37.01.36.01.36.01.36.02.36.01.37.01.36.01.36.02.36.01.36.01.37.01.36.01.36.02.36.01.36.01.37.01.36.01.36.02.36.01.37.01.36.01.36.01.36.01.36.02.37.01.36.01.36-5.61.36.01.36.01.37.02.36.01.36.01.36.01.36.02.37.01.36.01.36-5.61.36-5.6.36.01.37.01.36.01.36.02.36.01.37.01.36.02.36.01.36.01.36.01.37.01.36.02.36.01"/><use xlink:href="#ce3d2__e" color="#FFAB00" transform="matrix(3.75 0 0 3.75 67.83 72.12)"/><use xlink:href="#ce3d2__e" color="#FFAB00" transform="matrix(3.75 0 0 3.75 112.25 22.51)"/></g><text stroke-linecap="round" stroke-linejoin="round" color="#000" font-family="KaTeX_Main" font-size="8" transform="translate(241.1 10.11)"><tspan>WBSTBottomUp</tspan></text><g fill="none" stroke="currentColor" stroke-linecap="round" stroke-linejoin="round" color="#000"><path stroke="#000" d="M205.6 7.51h29.9M28 132.97l.36.28.36 7.15.37.26.36.25.36.25.36.24.36-6.59.37.24.36.24.36.23.36.23.37.22.36.22.36.22.36.21.36-6.54.37 6.95.36 6.94.36.19.36.19.36.18.37.18.36.18.36.18.36.17.36.17.37-6.51.36.18.36.16.36.17.36.16.37.17.36-6.48.36.16.36.16.37 6.78.36.15.36.15.36.15.36.14.37-6.45.36.15.36.15.36.14.36.14.37.14.36.14.36.14.36.13.36.13.37.14.36.13.36.12.36.13.37.13.36.12.36.13.36-6.39.36 6.63.37.12.36-6.38.36 6.62.36.11.36.12.37 6.59.36.11.36.11.36-6.37.36.11.37.11.36.11.36.11.36.1.37-6.34.36 6.55.36-6.34.36-6.33.36.1.37 12.97.36.1.36.1.36.1.36.09.37.1.36.09.36.1.36.09.36.09.37-6.3.36.09.36-6.3.36.1.36.09.37 6.48.36.09.36.09.36.09.37.09.36.08.36.09.36 6.45.36.08.37.08.36.08.36.08.36.08.36.08.37.08.36.08.36.08.36 6.41.36-6.26.37.08.36.07.36.08.36.07.37.08.36.07.36.07.36-6.23.36.07.37.08.36.07.36 6.37.36.07.36.07.37.07.36.07.36-6.21.36.07.36.06.37.08.36.06.36.07.36.07.36.07.37.07.36.06.36.07.36.07.37.06.36.07.36.06.36-6.18.36.06.37.07.36.07.36 6.3.36.07.36.06.37.06.36.06.36.06.36.06.36.07.37.06.36.06.36.06.36.05.37-6.15.36 6.27.36.06.36.06.36.06.37.05.36.06.36-6.14.36.06.36.05.37.06.36.06.36.06.36.05.36 6.25.37.05.36.06.36.05.36-6.12.36.05.37.06.36.05.36.06.36.05.37.05.36.06.36.05.36.05.36.06.37.05.36.05.36.06.36.05.36.05.37.05.36.05.36.05.36.05.36.06.37.05.36.05.36.05.36.05.37.04.36.05.36.05.36.05.36.05.37.05.36.05.36.05.36.04.36.05.37.05.36.04.36.05.36.05.36.04.37.05.36.05.36.04.36.05.37.04.36.05.36.05.36.04.36.04.37.05.36.04.36.05.36.04.36.05.37.04.36.04.36.05.36.04.36.04.37.05.36.04.36.04.36.04.36.05.37.04.36.04.36.04.36.04.37.04.36.05.36.04.36.04.36.04.37.04.36.04.36.04.36.04.36.04.37.04.36.04.36.04.36.04.36.04.37.04.36.04.36.03.36.04.37.04.36.04.36.04.36.04.36.03.37.04.36.04.36.04.36.04.36.03.37.04.36.04.36.03.36.04.36.04.37.03.36.04.36.04.36-5.99.36.03.37.04.36.04.36.04.36.03.37.04.36.04.36.03.36.04.36.04.37.03.36 6.05.36-5.98.36 6.05.36.03.37.04.36.03.36.03.36.04.36.03.37.04.36-5.97.36.03.36 6.04.37.03.36.03.36.04.36.03.36.03.37.04.36.03.36.03.36.03.36.04.37.03.36.03.36.03.36.03.36.04.37.03.36.03.36.03.36.03.36.03.37.04.36.03.36.03.36.03.37.03.36.03.36.03.36.03.36.03.37.03.36.03.36.04.36.03.36.03.37.03.36.03.36.03.36.03.36.02.37.03.36.03.36.03.36.03.37.03.36.03.36-5.92.36.03.36.03.37.03.36.03.36.03.36.03.36.03.37.03.36.03.36.03.36.03.36.03.37.03.36.02.36.03.36.03.37.03.36.03.36.03.36.03.36.03.37.02.36.03.36.03.36.03.36.03.37.02.36.03.36.03.36.03.36.03.37.02.36.03.36.03.36.03.36.02.37.03.36.03.36.02.36.03.37.03.36.03.36.02.36.03.36.03.37.02.36.03.36.03.36.02.36.03.37.02.36.03.36.03.36.02.36.03.37.03.36.02.36.03.36.02.37.03.36.02.36.03.36.03.36.02.37.03.36-5.87.36.03.36.02.36.03.37.03.36.02.36.03.36.02.36.03.37.02.36.03.36.03.36.02.36.03.37.02.36.03.36.02.36.03.37.02.36.03.36.02.36.03.36.02.37.03.36.02.36.03.36.02.36.03.37.02.36.02.36.03.36.02.36.03.37.02.36 5.89.36.02.36.03.37.02.36.02.36.03.36.02.36.02.37.03.36.02.36.02.36-5.83.36.02.37.03.36.02.36 5.88.36.02.36.02.37.02.36.03.36.02.36.02.37.02.36.02.36.03.36.02.36.02.37.02.36.03.36.02.36.02.36.02.37.02.36.03.36-5.82.36.02.36.02.37 5.86.36.02.36.03.36-5.82.36.02.37.03.36.02.36.02.36.02.37.02.36.03.36.02.36.02.36.02.37.02.36.03.36.02.36.02.36.02.37 5.85.36.02.36.02.36.02.36.02.37.02.36.02.36.02.36.02.37.02.36.02.36.02.36.02.36.02.37.02.36.02.36.02.36.02.36.02.37.02.36.02.36.02.36.02.36.02.37.02.36.02.36.02.36.02.36.02.37.02.36.02.36.02.36.02.37.02.36.02.36.02.36.02.36.02.37.02.36.02.36.02.36.01.36.02.37.02.36.02.36.02.36.02.36.02.37.02.36.02.36.02.36.01.37-5.77.36.02.36.02.36.02.36.02.37.02.36 5.8.36.02.36.02.36.02.37.02.36.02.36.02.36.01.36.02.37.02.36.02.36.02.36.02.36.01.37.02.36.02.36.02.36.02.37.02.36.01.36.02.36.02.36.02.37.01.36.02.36.02.36.02.36.02.37-5.76.36.02.36.02.36.02.36 5.78.37-5.75.36.02.36.02.36.02.37.02.36.01.36.02.36.02.36.02.37.01.36.02.36.02.36.02.36.02.37.01.36.02.36.02.36.02.36.01.37.02.36.02.36.02.36.01.37.02.36.02.36.02.36.01.36.02.37.02.36.02.36.01.36.02.36.02.37.01.36.02.36.02.36.02.36.01.37.02.36.02.36.01.36.02.36.02.37.01.36.02.36.02.36.01.37.02.36.02.36.01.36.02.36 5.76.37.01.36.02.36.02.36.01.36.02.37.01.36.02.36.02.36.01.36.02.37.01.36.02.36.02.36.01.37.02.36.01.36.02.36.01.36.02.37.01.36.02.36.02.36.01.36.02.37.01.36.02.36.01.36.02.36.01.37.02.36.01.36.02.36.02.36.01.37.02.36.01.36.02.36.01.37.02.36-5.71.36.02.36.01.36.02.37.01.36.02.36.02.36.01.36.02.37.01.36.02.36.01.36.02.36.01.37.02.36-5.7.36.02.36.01.37.02.36 11.44.36.01.36.02.36.01.37.01.36.02.36.01.36.02.36.01.37.02.36.01.36.02.36.01.36.02.37-5.69.36.01.36.01.36.02.36.01.37.02.36.01.36.02.36.01.37.02.36.01.36.02.36 5.71.36.02.37.01.36.01.36.02.36.01.36-5.68.37.01.36.02.36.01.36 5.71.36.02.37.01.36.01.36.02.36.01.37.01.36.02.36.01.36.02.36.01.37.01.36-5.67.36.01.36.02.36 5.7.37.01.36-5.67.36.01.36.02.36.01.37.02.36.01.36.01.36.02.37.01.36.01.36.02.36.01.36.02.37.01.36.01.36.02.36.01.36.02.37.01.36.01.36.02.36.01.36.01.37.02.36.01.36.02.36.01.36.01.37.02.36.01.36.01.36.02.37.01.36.01.36.02.36.01.36.01.37.02.36.01.36.01.36.02.36.01.37.01.36.02.36.01.36.01.36.02.37.01.36.01.36-5.65.36.01.37.02.36.01.36.01.36.02.36.01.37.01.36.02.36.01.36.02.36.01.37.01.36.01.36.02.36.01.36.01.37.02.36.01.36.01.36.02.36.01.37.01.36.02.36.01.36.01.37.02.36.01.36.01.36.02.36.01.37.01.36.01.36.02.36.01.36.01.37.02.36.01.36.01.36 5.67.36.01.37.01.36.01.36.02.36.01.37.01.36.01.36.02.36.01.36.01.37.01.36.02.36.01.36.01.36.01.37-5.63.36.01.36.02.36.01.36.01.37.01.36.02.36.01.36.01.36.01.37.02.36.01.36.01.36.01.37.02.36.01.36.01.36.01.36.02.37.01.36.01.36.01.36.02.36.01.37.01.36.01.36.01.36.02.36.01.37.01.36.01.36.02.36.01.37.01.36.01.36-5.62.36.02.36.01.37.01.36.01.36 5.65.36.01.36.01.37.01.36.01.36.02.36.01.36.01.37.01.36.01.36.02.36.01.37.01.36.01.36.01.36.01.36.02.37.01.36.01.36.01.36.01.36.02.37.01.36.01.36.01.36.01.36.02.37.01.36.01.36.01.36.01.36.01.37.01.36.02.36.01.36.01.37.01.36.01.36-5.6.36.01.36.01.37.01.36.02.36.01"/><use xlink:href="#ce3d2__a" transform="matrix(3.75 0 0 3.75 125.4 137.88)"/><use xlink:href="#ce3d2__a" transform="matrix(3.75 0 0 3.75 220.55 7.51)"/></g><text stroke-linecap="round" stroke-linejoin="round" color="#000" font-family="KaTeX_Main" font-size="8" transform="translate(241.1 25.11)"><tspan>WBSTRelaxed</tspan></text><g fill="none" stroke="currentColor" stroke-linecap="round" stroke-linejoin="round" color="#000"><path stroke="violet" stroke-dasharray="4.5,2.0,0.5,2.0,0.5,2.0" d="M205.6 22.51h29.9M28 98.49l.36.34.36-6.55.37-6.54.36-6.52.36-13.36.36.34.36-6.49.37.34.36.33.36-6.47.36 88.63.37-6.57.36-6.55.36.22.36.22.36-6.54.37-20.01.36.24.36.23.36.23.36-6.49.37-6.48.36.23.36-6.46.36.23.36.23.37-6.45.36.23.36-6.44.36-6.43.36.23.37.23.36-6.42.36.23.36 79.76.37-6.47.36.16.36-6.46.36.16.36.15.37-6.44.36.16.36.16.36-13.01.36-6.41.37.17.36.16.36.16.36.16.36-6.39.37-6.39.36.16.36-6.37.36.16.37.17.36-6.37.36.17.36.16.36.16.37-12.85.36-12.84.36.17.36 84.57.36-6.37.37-6.37.36-6.36.36-6.35.36.13.36.12.37.13.36.12.36.12.36.12.37.12.36-6.33.36.12.36-6.32.36.13.37.12.36.12.36-6.31.36.12.36.12.37.12.36.12.36-6.29.36.12.36.12.37-6.28.36.12.36.12.36.12.36-6.27.37-6.26.36.12.36-6.26.36.13.37.12.36.12.36.12.36.12.36.11.37-6.23.36.12.36.12.36 82.6.36.08.37-6.26.36.08.36-6.25.36-6.25.36.09.37.08.36-6.24.36.09.36.08.37.09.36-6.23.36.08.36.09.36.09.37-6.22.36.08.36.09.36.08.36.09.37.08.36.09.36.08.36.08.36-6.19.37.08.36.08.36.09.36-6.19.36.08.37.09.36.08.36.08.36.08.37.09.36-6.18.36-6.17.36-6.16.36-6.16.37.09.36.08.36.09.36.09.36.08.37.09.36.09.36.08.36.08.36.09.37.08.36.08.36-6.13.36.08.37.08.36.09.36.08.36.08.36.08.37-6.12.36.08.36.09.36.08.36.08.37.08.36.08.36-6.11.36 92.94.36-6.14.37.05.36.06.36.05.36.06.36.05.37-12.3.36.06.36.05.36.06.37.05.36.06.36.06.36.05.36.06.37.05.36.05.36.06.36-6.1.36-6.1.37.05.36.06.36.06.36.05.36-6.09.37.06.36.06.36.05.36.06.37.06.36.05.36.06.36.05.36.06.37.05.36-6.07.36.05.36.06.36.06.37.05.36.06.36.05.36.06.36.05.37.05.36.06.36.05.36.06.37-6.06.36.06.36.05.36.05.36.06.37.05.36.05.36.06.36.05.36.05.37-6.04.36.06.36-6.04.36.06.36.05.37.05.36.06.36.05.36.06.36.05.37.05.36.06.36.05.36.05.37.05.36.06.36.05.36.05.36-6.02.37.06.36-6.02.36.06.36.05.36.05.37.06.36.05.36.05.36-6 .36-12.05.37.05.36.06.36.05.36.06.37.06.36.05.36.06.36.05.36.05.37.06.36.05.36.06.36.05.36.05.37.06.36.05.36.05.36.06.36.05.37.05.36.05.36.06.36 84.4.36.03.37.04.36.03.36.04.36-5.99.37.04.36.03.36.04.36.03.36.04.37-5.98.36.04.36.03.36.04.36.03.37.04.36.04.36-11.98.36-5.96.36.04.37.03.36.04.36.04.36.04.37.04.36.03.36.04.36.04.36.04.37.03.36.04.36.04.36.03.36.04.37.04.36-5.95.36.04.36-5.95.36.04.37.04.36.04.36.03.36.04.36.04.37.04.36.04.36.03.36.04.37.04.36.03.36.04.36.04.36.03.37.04.36.04.36-5.93.36.04.36.04.37.03.36-5.92.36.04.36.04.36-5.92.37.04.36.03.36.04.36-5.91.37.04.36-5.91.36.04.36.04.36.04.37.04.36.04.36.03.36.04.36.04.37.04.36.04.36.04.36.04.36.04.37.03.36.04.36.04.36.04.37.04.36.04.36.03.36.04.36.04.37.04.36.03.36.04.36.04.36.04.37.03.36-5.88.36.03.36.04.36-5.88.37.04.36.04.36.03.36.04.36.04.37.04.36.03.36.04.36.04.37.04.36.03.36.04.36.04.36.04.37.03.36.04.36.04.36.03.36.04.37.04.36.03.36-5.86.36.04.36.03.37.04.36.04.36.03.36.04.37.04.36.03.36.04.36-5.86.36.04.37.04.36.03.36.04.36.04.36.03.37.04.36.04.36.03.36.04.36.03.37.04.36.04.36.03.36 94.13.36.03.37-5.86.36.02.36.03.36.02.37.02.36.03.36.02.36.03.36.02.37.02.36.02.36-5.84.36.02.36.02.37.03.36.02.36.03.36.02.36.02.37.03.36-5.84.36.02.36.02.37.03.36.02.36.03.36.02.36.02.37.03.36.02.36.03.36.02.36.02.37-5.83.36.03.36.02.36.02.36-5.82.37.02.36.03.36.02.36.03.37.02.36.02.36.03.36.02.36.03.37.02.36.03.36.02.36-5.82.36-5.81.37.02.36-5.81.36.02.36.03.36.02.37.03.36.03.36.02.36.03.36.02.37.03.36.02.36.03.36.02.37.03.36.03.36.02.36.03.36.02.37.03.36.02.36.03.36.02.36.03.37.02.36.03.36.02.36.03.36.02.37.02.36.03.36.02.36.03.37.02.36.03.36.02.36.02.36.03.37.02.36.03.36.02.36.02.36.03.37.02.36-5.78.36.02.36.02.36.03.37-5.79.36.03.36.02.36.03.36.02.37.03.36.02.36.03.36.02.37.03.36.02.36.03.36.02.36.03.37.02.36-5.77.36.02.36.03.36.02.37-5.77.36.02.36.03.36.02.36.03.37.02.36.03.36-5.77.36.03.37.02.36.03.36.02.36.03.36.02.37.03.36.02.36.03.36.02.36.03.37.03.36.02.36.02.36.03.36.02.37.03.36.02.36.03.36.02.36.03.37.02.36.03.36.02.36.03.37.02.36.02.36.03.36.02.36.03.37.02.36.03.36.02.36.02.36-5.74.37.02.36.03.36.02.36.02.36.03.37.02.36.03.36.02.36.03.37.02.36.02.36.03.36.02.36.03.37.02.36.02.36.03.36.02.36.03.37.02.36.02.36.03.36.02.36.02.37.03.36.02.36.03.36.02.37-5.73.36.02.36.02.36.03.36.02.37.03.36.02.36.02.36.03.36.02.37.02.36.03.36.02.36.02.36.03.37.02.36.03.36.02.36.02.36.02.37.03.36.02.36.02.36.03.37.02.36.02.36.03.36.02.36.02.37.02.36.03.36.02.36.02.36.03.37.02.36.02.36.02.36.03.36.02.37.02.36.02.36.03.36.02.37.02.36.02.36.02.36-5.7.36.02.37.02.36.02.36.03.36.02.36.02.37 80.21.36.02.36.01.36.02.36.01.37.02.36.01.36.02.36.02.36-5.71.37.01.36.02.36.02.36.01.37-5.7.36.01.36.02.36.01.36.02.37.02.36.01.36.02.36.01.36.02.37.02.36-5.7.36.01.36.02.36.01.37.02.36.02.36.01.36.02.37.02.36.01.36.02.36.01.36.02.37.02.36.01.36.02.36.01.36.02.37.02.36.01.36.02.36.01.36.02.37.02.36.01.36.02.36.01.36.02.37.01.36.02.36.02.36.01.37.02.36.01.36.02.36.01.36.02.37.01.36.02.36.01.36.02.36.02.37-5.68.36.01.36.02.36.01.36.02.37-5.68.36.02.36.01.36.02.37.02.36.01.36.02.36.01.36.02.37.02.36.01.36.02.36.01.36.02.37.01.36.02.36.02.36.01.36.02.37.01.36-5.67.36.02.36.02.37.01.36.02.36.02.36.01.36.02.37.01.36.02.36-5.67.36.02.36.02.37.01.36.02.36.02.36.01.36.02.37.01.36.02.36.02.36.01.36.02.37.02.36.01.36.02.36.01.37.02.36.02.36.01.36.02.36.01.37.02.36.01.36.02.36.02.36.01.37.02.36.01.36.02.36.02.36.01.37.02.36.01.36.02.36.01.37.02.36-5.65.36.02.36.01.36.02.37.01.36.02.36.02.36.01.36.02.37.01.36.02.36.01.36.02.36.02.37.01.36.02.36.01.36.02.36.01.37.02.36.02.36.01.36.02.37.01.36.02.36.01.36.02.36.02.37.01.36.02.36.01.36.02.36.01.37.02.36.01.36.02.36.01.36.02.37.01.36.02.36.01.36.02.37.01.36-5.63.36.02.36.01.36.02.37.01.36.02.36.01.36.02.36.01.37.02.36.02.36.01.36.02.36.01.37.02.36.01.36.02.36.01.36.02.37.01.36.02.36.01.36.02.37.01.36-5.62.36.02.36.01.36.02.37.01.36.02.36.01.36.02.36.01.37.02.36.01.36.02.36.01.36.02.37-5.62.36.02.36.01.36.02.37.01.36.02.36.01.36.02.36-5.61.37.01.36.02.36.01.36.02.36.01.37.02.36.02.36.01.36.02.36.01.37.02.36.01.36-5.61.36.02.37.02.36.01.36.02.36.01.36.02.37.01.36.02.36.02.36.01.36.02.37.01.36.02.36.01.36.02.36.02.37.01.36.02.36.01.36.02.36.01.37.02.36.01.36.02.36.02.37.01.36.02.36.01.36.02.36.01.37.02.36.01.36.02"/><use xlink:href="#ce3d2__f" color="violet" transform="matrix(3.75 0 0 3.75 182.98 54.4)"/><use xlink:href="#ce3d2__f" color="violet" transform="matrix(3.75 0 0 3.75 220.55 22.51)"/></g><path fill="none" d="M28 45.01V162.5M371.99 45.01H28" color="#000"/></svg>