<svg xmlns="http://www.w3.org/2000/svg" xmlns:xlink="http://www.w3.org/1999/xlink" viewBox="0 0 400 200"><path fill="none" d="M0 0h400v200H0z"/><defs><use xlink:href="#f7999__a" id="f7999__c" fill="currentColor" stroke="none"/><use xlink:href="#f7999__a" id="f7999__b" stroke="currentColor" transform="rotate(180)"/><use xlink:href="#f7999__b" id="f7999__d" fill="currentColor" stroke="none"/><path id="f7999__a" stroke="currentColor" stroke-width=".267" d="m0-1.33-1.33 2h2.66z"/></defs><path fill="none" stroke="#CCC" stroke-linecap="round" stroke-linejoin="round" stroke-width=".1" d="M46.1 162.5V45.01" class="f7999__gridline" color="#000"/><g fill="none" stroke-linecap="round" stroke-linejoin="round" stroke-width="0" color="#000"><path d="M46.1 162.5V155m0-109.99v7.5"/><text fill="#000" font-family="KaTeX_Main" font-size="8" text-anchor="middle" transform="translate(46.1 172.6)"><tspan> 1</tspan></text></g><path fill="none" stroke="#CCC" stroke-linecap="round" stroke-linejoin="round" stroke-width=".1" d="M82.31 162.5V45.01" class="f7999__gridline" color="#000"/><g fill="none" stroke-linecap="round" stroke-linejoin="round" stroke-width="0" color="#000"><path d="M82.31 162.5V155m0-109.99v7.5"/><text fill="#000" font-family="KaTeX_Main" font-size="8" text-anchor="middle" transform="translate(82.31 172.6)"><tspan> 2</tspan></text></g><path fill="none" stroke="#CCC" stroke-linecap="round" stroke-linejoin="round" stroke-width=".1" d="M118.52 162.5V45.01" class="f7999__gridline" color="#000"/><g fill="none" stroke-linecap="round" stroke-linejoin="round" stroke-width="0" color="#000"><path d="M118.52 162.5V155m0-109.99v7.5"/><text fill="#000" font-family="KaTeX_Main" font-size="8" text-anchor="middle" transform="translate(118.52 172.6)"><tspan> 3</tspan></text></g><path fill="none" stroke="#CCC" stroke-linecap="round" stroke-linejoin="round" stroke-width=".1" d="M154.73 162.5V45.01" class="f7999__gridline" color="#000"/><g fill="none" stroke-linecap="round" stroke-linejoin="round" stroke-width="0" color="#000"><path d="M154.73 162.5V155m0-109.99v7.5"/><text fill="#000" font-family="KaTeX_Main" font-size="8" text-anchor="middle" transform="translate(154.73 172.6)"><tspan> 4</tspan></text></g><path fill="none" stroke="#CCC" stroke-linecap="round" stroke-linejoin="round" stroke-width=".1" d="M190.94 162.5V45.01" class="f7999__gridline" color="#000"/><g fill="none" stroke-linecap="round" stroke-linejoin="round" stroke-width="0" color="#000"><path d="M190.94 162.5V155m0-109.99v7.5"/><text fill="#000" font-family="KaTeX_Main" font-size="8" text-anchor="middle" transform="translate(190.94 172.6)"><tspan> 5</tspan></text></g><path fill="none" stroke="#CCC" stroke-linecap="round" stroke-linejoin="round" stroke-width=".1" d="M227.15 162.5V45.01" class="f7999__gridline" color="#000"/><g fill="none" stroke-linecap="round" stroke-linejoin="round" stroke-width="0" color="#000"><path d="M227.15 162.5V155m0-109.99v7.5"/><text fill="#000" font-family="KaTeX_Main" font-size="8" text-anchor="middle" transform="translate(227.15 172.6)"><tspan> 6</tspan></text></g><path fill="none" stroke="#CCC" stroke-linecap="round" stroke-linejoin="round" stroke-width=".1" d="M263.36 162.5V45.01" class="f7999__gridline" color="#000"/><g fill="none" stroke-linecap="round" stroke-linejoin="round" stroke-width="0" color="#000"><path d="M263.36 162.5V155m0-109.99v7.5"/><text fill="#000" font-family="KaTeX_Main" font-size="8" text-anchor="middle" transform="translate(263.36 172.6)"><tspan> 7</tspan></text></g><path fill="none" stroke="#CCC" stroke-linecap="round" stroke-linejoin="round" stroke-width=".1" d="M299.57 162.5V45.01" class="f7999__gridline" color="#000"/><g fill="none" stroke-linecap="round" stroke-linejoin="round" stroke-width="0" color="#000"><path d="M299.57 162.5V155m0-109.99v7.5"/><text fill="#000" font-family="KaTeX_Main" font-size="8" text-anchor="middle" transform="translate(299.57 172.6)"><tspan> 8</tspan></text></g><path fill="none" stroke="#CCC" stroke-linecap="round" stroke-linejoin="round" stroke-width=".1" d="M335.78 162.5V45.01" class="f7999__gridline" color="#000"/><g fill="none" stroke-linecap="round" stroke-linejoin="round" stroke-width="0" color="#000"><path d="M335.78 162.5V155m0-109.99v7.5"/><text fill="#000" font-family="KaTeX_Main" font-size="8" text-anchor="middle" transform="translate(335.78 172.6)"><tspan> 9</tspan></text></g><path fill="none" stroke="#CCC" stroke-linecap="round" stroke-linejoin="round" stroke-width=".1" d="M371.99 162.5V45.01" class="f7999__gridline" color="#000"/><g fill="none" stroke-linecap="round" stroke-linejoin="round" stroke-width="0" color="#000"><path d="M371.99 162.5V155m0-109.99v7.5"/><text fill="#000" font-family="KaTeX_Main" font-size="8" text-anchor="middle" transform="translate(371.99 172.6)"><tspan> 10</tspan></text></g><g fill="none" stroke-linecap="round" stroke-linejoin="round" stroke-width="0" color="#000"><path d="M371.99 162.5h-7.5"/><text fill="#000" font-family="KaTeX_Main" font-size="8" transform="translate(378.99 165.1)"><tspan>0.900</tspan></text></g><g fill="none" stroke-linecap="round" stroke-linejoin="round" stroke-width="0" color="#000"><path d="M371.99 147.81h-7.5"/><text fill="#000" font-family="KaTeX_Main" font-size="8" transform="translate(378.99 150.41)"><tspan>0.905</tspan></text></g><g fill="none" stroke-linecap="round" stroke-linejoin="round" stroke-width="0" color="#000"><path d="M371.99 133.13h-7.5"/><text fill="#000" font-family="KaTeX_Main" font-size="8" transform="translate(378.99 135.73)"><tspan>0.910</tspan></text></g><g fill="none" stroke-linecap="round" stroke-linejoin="round" stroke-width="0" color="#000"><path d="M371.99 118.44h-7.5"/><text fill="#000" font-family="KaTeX_Main" font-size="8" transform="translate(378.99 121.04)"><tspan>0.915</tspan></text></g><g fill="none" stroke-linecap="round" stroke-linejoin="round" stroke-width="0" color="#000"><path d="M371.99 103.75h-7.5"/><text fill="#000" font-family="KaTeX_Main" font-size="8" transform="translate(378.99 106.35)"><tspan>0.920</tspan></text></g><g fill="none" stroke-linecap="round" stroke-linejoin="round" stroke-width="0" color="#000"><path d="M371.99 89.07h-7.5"/><text fill="#000" font-family="KaTeX_Main" font-size="8" transform="translate(378.99 91.67)"><tspan>0.925</tspan></text></g><g fill="none" stroke-linecap="round" stroke-linejoin="round" stroke-width="0" color="#000"><path d="M371.99 74.38h-7.5"/><text fill="#000" font-family="KaTeX_Main" font-size="8" transform="translate(378.99 76.98)"><tspan>0.930</tspan></text></g><g fill="none" stroke-linecap="round" stroke-linejoin="round" stroke-width="0" color="#000"><path d="M371.99 59.7h-7.5"/><text fill="#000" font-family="KaTeX_Main" font-size="8" transform="translate(378.99 62.3)"><tspan>0.935</tspan></text></g><g fill="none" stroke-linecap="round" stroke-linejoin="round" stroke-width="0" color="#000"><path d="M371.99 45.01h-7.5"/><text fill="#000" font-family="KaTeX_Main" font-size="8" transform="translate(378.99 47.61)"><tspan>0.940</tspan></text></g><path fill="none" d="M28 45.01V162.5M371.99 45.01H28" color="#000"/><text stroke-linecap="round" stroke-linejoin="round" stroke-width="0" color="#000" font-family="KaTeX_Main" font-size="10" text-anchor="middle" transform="rotate(-90 57.63 46.13)"><tspan font-weight="bold">Average Path Length </tspan><tspan> / log</tspan><tspan dy="3" font-size="8">2</tspan><tspan dy="-3">(Size)</tspan></text><text stroke-linecap="round" stroke-linejoin="round" stroke-width="0" color="#000" font-family="KaTeX_Main" font-size="10" text-anchor="middle" transform="translate(199.99 195.75)"><tspan>Operations / 10</tspan><tspan dy="-5" font-size="8">6</tspan></text><text stroke-linecap="round" stroke-linejoin="round" stroke-width=".5" color="#000" font-family="KaTeX_Main" font-size="8" transform="translate(110.4 10.11)"><tspan>AVLBottomUp</tspan></text><g fill="none" stroke="currentColor" stroke-linecap="round" stroke-linejoin="round" stroke-width=".5" color="#000"><path stroke="#000" d="M74.9 7.51h29.9M28 121.14l.36-.37.36-.01.37-.38.36-.38.36-.47.36-.46.36-.24.37-.49.36-.45.36-.33.36-.38.37-.48.36-.34.36-.35.36-.35.36-.36.37-.26.36-.35.36-.26.36-.32.36-.34.37-.31.36-.21.36-.03.36-.29.36-.23.37-.38.36-.31.36-.25.36-.26.36-.26.37-.25.36-.22.36-.34.36-.22.37-.28.36-.23.36-.18.36-.26.36-.25.37-.19.36-.32.36-.18.36-.08.36-.29.37-.22.36-.22.36-.33.36-.19.36-.19.37-.03.36.03.36.05.36.01.37.02.36-.01.36-.07.36-.03.36-.03.37-.02h.36l.36-.02.36.13.36.01h.37l.36.01.36.07.36-.02.36.03.37-.01.36.05.36.04.36-.02.37-.03.36.01.36.1h.36l.36-.02.37.02.36-.01.36-.05.36-.01.36.1.37-.07h.36l.36.03.36-.01.36.01h.37l.36.03.36.1h.36l.36.02h.37l.36-.01h.36l.36-.01.37.05.36-.02h.36l.36-.03.36.05.37-.03.36-.01.36.03.36.04.36.02.37-.04.36.04.36-.04.36.03.36.02.37.04.36-.01.36.03.36-.05.37.01.36.01h.36l.36-.02.36-.02.37.04.36.02h.36l.36-.03.36-.01.37.03.36-.02.36.03.36-.05.36-.01.37-.02.36.01h.72l.36-.02.37.01.36.05.36-.03.36-.02.37-.03.36-.02.36-.02.36-.02.36.01.37.02h.36l.36.03.36.04.36.01.37-.02.36.01.36.02.36-.04.36-.05.37-.02.36-.01.36.04.36.02h.37l.36-.01.36.12.36.05.36-.02.37.01.36-.05.36-.06.36-.01.36-.03.37-.02h.36l.36.01h.36l.36-.01.37-.06.36-.02.36.01.36-.01.36.02.37.01.36-.03.36-.01.36.04h.37l.36-.05.36-.01.36-.02h.36l.37-.02.36.01.36.01.36.02.36-.01.37.02.36.03.36-.02.36.01.36-.03h.73l.36.02.36.01.37.01.36-.02.36-.1.36.08.36-.01.37-.01.36.04.36-.01.36.07h.36l.37.03.36.01.36-.02.36.02.36-.01.37.02.36.01.36.02.36-.01.37-.01.36-.2.36-.01.36.04.36-.01.37.02.36-.07.36-.02h.36l.36-.02.37.05.36.01.36.03h.36l.36-.11.37.02.36-.06.36.03.36.01.36.01.37.03.36.03.36-.03.36-.02.37.01.36.03.36.01.36-.03.36-.01.37-.05h.36l.36-.02.36-.01.36.01.37.02.36-.01.36.01.36-.01.36.04.37.02.36-.01.36.03.36-.02.37.11.36.03h.36l.36.07.36.01h.73l.36-.08.36-.01.36.04.37-.01.36-.03h.36l.36-.01.36.01.37.02.36-.01.36-.01.36-.02.36-.01.37-.02.36.02.36-.02h.36l.37-.01.36-.02.36-.01h.36l.36-.03.37-.05h.36l.36-.04h.36l.36.01.37.02.36.05.36-.03h.36l.36-.03.37.04.36-.03.36.01.36.08.37.01.36-.02.36-.03.36-.07.36.04.37.01.36-.03.36.01.36-.03.36-.03.37.02.36-.03.36.09.36.02.36-.04.37.08h.36l.36-.04.36-.02.36.02h.37l.36-.04.36.04.36.02.37-.02.36.01.36-.02.36.02.36-.01.37.02.36.07.36.01.36-.03.36-.02h.37l.36.01h.36l.36-.02.36.01.37-.03.36-.13.36-.04.36.04.37.01.36-.06.36.01.36.06.36.03h.37l.36-.05.36.01.36-.04.36.09.37.03.36.01.36.01.36.01h.36l.37.03h.36l.36.01h.36l.37-.03.36-.02.36-.03.36.01.36-.01.37.01.36.01.36-.02.36.02h.36l.37.04.36.01.36-.06.36-.01.36-.01.37.01.36-.03.36-.06h.36l.36.02.37-.1h.72l.36-.02.37-.02.36-.02.36-.02h.36l.36.01.37.03.36-.02h.36l.36.14.36-.04.37.03.36-.02.36.04h.36l.36.01.37-.04.36.04h.36l.36.03.37.03.36-.02.36.01.36-.03.36-.01.37-.03.36-.05h.36l.36-.01h.36l.37.01.36.01.36.02.36.02h.73l.36.02.36.01.36-.03.36.02.37.08h.36l.36-.01.36.01.37.01.36-.01.36-.04.36.05.36-.02.37.03.36-.01h.36l.36.03.36-.01.37-.03.36.01.36.02h.36l.36-.01.37-.01.36-.01.36.02.36-.01.37.02.36-.01h.36l.36-.02.36-.01.37-.04.36-.02h.72l.36-.03h.37l.36.03.36.03.36-.06.36.01.37-.01h.36l.36-.03h.36l.37.03h.36l.36.01h.36l.36.05.37-.02h.36l.36-.04.36.01.36-.03.37.01.36.01.36.01.36.01.36.03.37-.05.36-.04.36-.03.36.02.36.03.37.01.36.04.36.01.36.03.37-.04.36.02.36-.01.36-.04.36.02.37-.01.36-.02.36-.01.36.06.36.01.37.16h.36l.36-.01h.36l.36.05.37-.01.36.01.36-.01.36-.01.37-.04h.36l.36.02.36-.01h1.45l.36.05.36-.01.37-.03.36.01.36.01h.36l.36.01.37.02.36-.04.36-.02.36.02.36-.02.37.01.36-.04.36-.01h.36l.37.04.36-.01.36-.01.36-.04.36.08.37.01h.36l.36.04.36-.05.36-.01.37-.04.36-.01.36-.02.36-.05.36-.01.37-.02h.36l.36-.04.36-.07h.37l.36-.82.36.03.36-.01.36.02h.73l.36-.01.36.07.36.01.37-.02.36.08.36.01.36-.01h.36l.37-.01.36-.2.36-.01.36.01.36.01.37-.01.36.07.36-.01.36.01.37-.03.36.04.36.01.36-.05.36.03.37-.1.36.02.36.01.36-.02h.36l.37-.11.36-.01.36.02.36.84.36.04.37.01h.36l.36.02h.36l.37-.01.36.02.36.03.36-.02.36-.02.37.03.36-.01.36.02.36.01h.36l.37.01.36-.04.36.06.36-.04.36.02.37.05.36-.05.36-.03.36.03.37-.04h.36l.36.01.36.02.36-.02.37.01.36-.02.36-.02.36.03.36-.01.37.17.36-.02.36.02h.36l.36.01.37.06h.36l.36-.01.36.03.36.03.37.09.36-.18h.36l.36-.01.37-.02.36.05.36.17.36-.02.36-.01.37.01h.36l.36.01.36-.01.36-.15.37.04.36.02.36-.01.36-.03.36.03.37.08.36.01.36.02h.73l.36.09.36-.01.36.01h.73l.36.01.36.04.36.01.36.01.37-.02h1.08l.36.01.37.02.36-.02h.36l.36.02h.36l.37-.02.36.02.36.01.36.01.37.01.36-.04h.36l.36-.01h.36l.37-.01.36.01.36-.06.36-.03.36-.02.37-.02h.72l.36.02.36-.04.37.01.36.03h.36l.36-.02.37.01.36.02.36.04.36-.03.36-.03.37-.01.36.01.36-.01.36.04.36.01h.37l.36.02.36.01h.36l.36-.03.37.02.36.03h.36l.36-.03.36-.01.37-.03.36.03.36.03.36-.02.37.01.36-.01.36-.02h.36l.36.02.37-.05h.36l.36.01.36.03.36.02.37-.03.36-.05.36.03h.36l.36.01.37-.04.36.02.36-.02.36.01.37-.03.36.02h.36l.36-.05.36.09.37-.02.36.01.36.02.36.02.36.01.37.01.36-.01.36.01.36.07h.36l.37.06h1.08l.37-.02.36-.03.36-.02.36-.01.36-.01.37.01.36-.03h.36l.36.01.36-.02.37.1.36-.03.36.02.36.02.36.02.37.04.36.01.36.01.36.03.36-.03.37-.02.36.01.36.01.36-.07.37.02.36.03h.36l.36.01.36.03.37.01.36.02h.36l.36.02.36-.02.37-.01.36.01.36.02.36-.02.36-.02.37-.05.36.05.36-.03.36-.03.37-.03.36-.04.36-.01h.36l.36-.02.37.03.36.01.36-.01.36.04.36-.01.37.01.36-.01.36.05.36-.02.36-.05.37.01.36.08.36-.04.36-.01.36.02.37.03.36.01.36-.01h.36l.37.02.36-.01.36-.04h.36l.36-.02.37-.01.36.02.36.02.36-.03.36.03.37-.03.36.02.36.02.36.04.36-.02.37.03.36.02.36.02h.73l.36-.03h1.45l.36-.01.36-.02.36.02.36-.01.37-.02.36.01.36-.05.36-.02.36.02.37.01.36.02.36.04.36-.04h.36l.37-.01.36.04h.36l.36.02.37-.02.36-.01.36-.03.36.01.36.02.37.14.36.02h.36l.36-.01.36-.25.37-.02.36.02h.36l.36-.04.36-.02.37.01.36-.05.36-.04h.36l.37-.02.36.02.36.3.36.02.36.01.37.06.36-.02h.36l.36-.01.36.06.37.01.36.02.36-.01h.36l.36-.01.37-.02.36-.01.36-.05.36-.03.37.05.36.01h.36l.36.02.36-.02.37.02.36-.04.36.02.36.01.36.01h.37l.36.03h.36l.36-.01.36.02.37-.02.36-.1.36-.02.36.06.36-.01.37-.03.36-.06.36-.3.36.03.37-.1.36.02.36-.01.36.04h.36l.37-.01.36.01.36-.04"/><use xlink:href="#f7999__c" transform="matrix(3.75 0 0 3.75 354.25 107.24)"/><use xlink:href="#f7999__c" transform="matrix(3.75 0 0 3.75 89.85 7.51)"/></g><text stroke-linecap="round" stroke-linejoin="round" color="#000" font-family="KaTeX_Main" font-size="8" transform="translate(110.4 25.11)"><tspan>AVLTopDown</tspan></text><g fill="none" stroke="currentColor" stroke-linecap="round" stroke-linejoin="round" color="#000"><path stroke="#29C3F6" stroke-dasharray="2.5,4.0" d="M74.9 22.51h29.9M28 121.14l.36-.37.36-.01.37-.38.36-.38.36-.47.36-.46.36-.24.37-.49.36-.45.36-.33.36-.38.37-.48.36-.34.36-.35.36-.35.36-.36.37-.26.36-.35.36-.26.36-.32.36-.34.37-.31.36-.21.36-.03.36-.29.36-.23.37-.38.36-.31.36-.25.36-.26.36-.26.37-.25.36-.22.36-.34.36-.22.37-.28.36-.23.36-.18.36-.26.36-.25.37-.19.36-.32.36-.18.36-.08.36-.29.37-.22.36-.22.36-.33.36-.19.36-.19.37-.03.36.03.36.05.36.01.37.02.36-.01.36-.07.36-.03.36-.03.37-.02h.36l.36-.02.36.13.36.01h.37l.36.01.36.07.36-.02.36.03.37-.01.36.05.36.04.36-.02.37-.03.36.01.36.1h.36l.36-.02.37.02.36-.01.36-.05.36-.01.36.1.37-.07h.36l.36.03.36-.01.36.01h.37l.36.03.36.1h.36l.36.02h.37l.36-.01h.36l.36-.01.37.05.36-.02h.36l.36-.03.36.05.37-.03.36-.01.36.03.36.04.36.02.37-.04.36.04.36-.04.36.03.36.02.37.04.36-.01.36.03.36-.05.37.01.36.01h.36l.36-.02.36-.02.37.04.36.02h.36l.36-.03.36-.01.37.03.36-.02.36.03.36-.05.36-.01.37-.02.36.01h.72l.36-.02.37.01.36.05.36-.03.36-.02.37-.03.36-.02.36-.02.36-.02.36.01.37.02h.36l.36.03.36.04.36.01.37-.02.36.01.36.02.36-.04.36-.05.37-.02.36-.01.36.04.36.02h.37l.36-.01.36.12.36.05.36-.02.37.01.36-.05.36-.06.36-.01.36-.03.37-.02h.36l.36.01h.36l.36-.01.37-.06.36-.02.36.01.36-.01.36.02.37.01.36-.03.36-.01.36.04h.37l.36-.05.36-.01.36-.02h.36l.37-.02.36.01.36.01.36.02.36-.01.37.02.36.03.36-.02.36.01.36-.03h.73l.36.02.36.01.37.01.36-.02.36-.1.36.08.36-.01.37-.01.36.04.36-.01.36.07h.36l.37.03.36.01.36-.02.36.02.36-.01.37.02.36.01.36.02.36-.01.37-.01.36-.2.36-.01.36.04.36-.01.37.02.36-.07.36-.02h.36l.36-.02.37.05.36.01.36.03h.36l.36-.11.37.02.36-.06.36.03.36.01.36.01.37.03.36.03.36-.03.36-.02.37.01.36.03.36.01.36-.03.36-.01.37-.05h.36l.36-.02.36-.01.36.01.37.02.36-.01.36.01.36-.01.36.04.37.02.36-.01.36.03.36-.02.37.11.36.03h.36l.36.07.36.01h.73l.36-.08.36-.01.36.04.37-.01.36-.03h.36l.36-.01.36.01.37.02.36-.01.36-.01.36-.02.36-.01.37-.02.36.02.36-.02h.36l.37-.01.36-.02.36-.01h.36l.36-.03.37-.05h.36l.36-.04h.36l.36.01.37.02.36.05.36-.03h.36l.36-.03.37.04.36-.03.36.01.36.08.37.01.36-.02.36-.03.36-.07.36.04.37.01.36-.03.36.01.36-.03.36-.03.37.02.36-.03.36.09.36.02.36-.04.37.08h.36l.36-.04.36-.02.36.02h.37l.36-.04.36.04.36.02.37-.02.36.01.36-.02.36.02.36-.01.37.02.36.07.36.01.36-.03.36-.02h.37l.36.01h.36l.36-.02.36.01.37-.03.36-.13.36-.04.36.04.37.01.36-.06.36.01.36.06.36.03h.37l.36-.05.36.01.36-.04.36.09.37.03.36.01.36.01.36.01h.36l.37.03h.36l.36.01h.36l.37-.03.36-.02.36-.03.36.01.36-.01.37.01.36.01.36-.02.36.02h.36l.37.04.36.01.36-.06.36-.01.36-.01.37.01.36-.03.36-.06h.36l.36.02.37-.1h.72l.36-.02.37-.02.36-.02.36-.02h.36l.36.01.37.03.36-.02h.36l.36.14.36-.04.37.03.36-.02.36.04h.36l.36.01.37-.04.36.04h.36l.36.03.37.03.36-.02.36.01.36-.03.36-.01.37-.03.36-.05h.36l.36-.01h.36l.37.01.36.01.36.02.36.02h.73l.36.02.36.01.36-.03.36.02.37.08h.36l.36-.01.36.01.37.01.36-.01.36-.04.36.05.36-.02.37.03.36-.01h.36l.36.03.36-.01.37-.03.36.01.36.02h.36l.36-.01.37-.01.36-.01.36.02.36-.01.37.02.36-.01h.36l.36-.02.36-.01.37-.04.36-.02h.72l.36-.03h.37l.36.03.36.03.36-.06.36.01.37-.01h.36l.36-.03h.36l.37.03h.36l.36.01h.36l.36.05.37-.02h.36l.36-.04.36.01.36-.03.37.01.36.01.36.01.36.01.36.03.37-.05.36-.04.36-.03.36.02.36.03.37.01.36.04.36.01.36.03.37-.04.36.02.36-.01.36-.04.36.02.37-.01.36-.02.36-.01.36.06.36.01.37.16h.36l.36-.01h.36l.36.05.37-.01.36.01.36-.01.36-.01.37-.04h.36l.36.02.36-.01h1.45l.36.05.36-.01.37-.03.36.01.36.01h.36l.36.01.37.02.36-.04.36-.02.36.02.36-.02.37.01.36-.04.36-.01h.36l.37.04.36-.01.36-.01.36-.04.36.08.37.01h.36l.36.04.36-.05.36-.01.37-.04.36-.01.36-.02.36-.05.36-.01.37-.02h.36l.36-.04.36-.07h.37l.36-.82.36.03.36-.01.36.02h.73l.36-.01.36.07.36.01.37-.02.36.08.36.01.36-.01h.36l.37-.01.36-.2.36-.01.36.01.36.01.37-.01.36.07.36-.01.36.01.37-.03.36.04.36.01.36-.05.36.03.37-.1.36.02.36.01.36-.02h.36l.37-.11.36-.01.36.02.36.84.36.04.37.01h.36l.36.02h.36l.37-.01.36.02.36.03.36-.02.36-.02.37.03.36-.01.36.02.36.01h.36l.37.01.36-.04.36.06.36-.04.36.02.37.05.36-.05.36-.03.36.03.37-.04h.36l.36.01.36.02.36-.02.37.01.36-.02.36-.02.36.03.36-.01.37.17.36-.02.36.02h.36l.36.01.37.06h.36l.36-.01.36.03.36.03.37.09.36-.18h.36l.36-.01.37-.02.36.05.36.17.36-.02.36-.01.37.01h.36l.36.01.36-.01.36-.15.37.04.36.02.36-.01.36-.03.36.03.37.08.36.01.36.02h.73l.36.09.36-.01.36.01h.73l.36.01.36.04.36.01.36.01.37-.02h1.08l.36.01.37.02.36-.02h.36l.36.02h.36l.37-.02.36.02.36.01.36.01.37.01.36-.04h.36l.36-.01h.36l.37-.01.36.01.36-.06.36-.03.36-.02.37-.02h.72l.36.02.36-.04.37.01.36.03h.36l.36-.02.37.01.36.02.36.04.36-.03.36-.03.37-.01.36.01.36-.01.36.04.36.01h.37l.36.02.36.01h.36l.36-.03.37.02.36.03h.36l.36-.03.36-.01.37-.03.36.03.36.03.36-.02.37.01.36-.01.36-.02h.36l.36.02.37-.05h.36l.36.01.36.03.36.02.37-.03.36-.05.36.03h.36l.36.01.37-.04.36.02.36-.02.36.01.37-.03.36.02h.36l.36-.05.36.09.37-.02.36.01.36.02.36.02.36.01.37.01.36-.01.36.01.36.07h.36l.37.06h1.08l.37-.02.36-.03.36-.02.36-.01.36-.01.37.01.36-.03h.36l.36.01.36-.02.37.1.36-.03.36.02.36.02.36.02.37.04.36.01.36.01.36.03.36-.03.37-.02.36.01.36.01.36-.07.37.02.36.03h.36l.36.01.36.03.37.01.36.02h.36l.36.02.36-.02.37-.01.36.01.36.02.36-.02.36-.02.37-.05.36.05.36-.03.36-.03.37-.03.36-.04.36-.01h.36l.36-.02.37.03.36.01.36-.01.36.04.36-.01.37.01.36-.01.36.05.36-.02.36-.05.37.01.36.08.36-.04.36-.01.36.02.37.03.36.01.36-.01h.36l.37.02.36-.01.36-.04h.36l.36-.02.37-.01.36.02.36.02.36-.03.36.03.37-.03.36.02.36.02.36.04.36-.02.37.03.36.02.36.02h.73l.36-.03h1.45l.36-.01.36-.02.36.02.36-.01.37-.02.36.01.36-.05.36-.02.36.02.37.01.36.02.36.04.36-.04h.36l.37-.01.36.04h.36l.36.02.37-.02.36-.01.36-.03.36.01.36.02.37.14.36.02h.36l.36-.01.36-.25.37-.02.36.02h.36l.36-.04.36-.02.37.01.36-.05.36-.04h.36l.37-.02.36.02.36.3.36.02.36.01.37.06.36-.02h.36l.36-.01.36.06.37.01.36.02.36-.01h.36l.36-.01.37-.02.36-.01.36-.05.36-.03.37.05.36.01h.36l.36.02.36-.02.37.02.36-.04.36.02.36.01.36.01h.37l.36.03h.36l.36-.01.36.02.37-.02.36-.1.36-.02.36.06.36-.01.37-.03.36-.06.36-.3.36.03.37-.1.36.02.36-.01.36.04h.36l.37-.01.36.01.36-.04"/><use xlink:href="#f7999__d" color="#29C3F6" transform="matrix(3.75 0 0 3.75 67.83 107.25)"/><use xlink:href="#f7999__d" color="#29C3F6" transform="matrix(3.75 0 0 3.75 89.85 22.51)"/></g><text stroke-linecap="round" stroke-linejoin="round" color="#000" font-family="KaTeX_Main" font-size="8" transform="translate(241.1 10.11)"><tspan>RedBlackBottomUp</tspan></text><g fill="none" stroke="currentColor" stroke-linecap="round" stroke-linejoin="round" color="#000"><path stroke="#F44336" d="M205.6 7.51h29.9M28 134.41l.36-2.25.36-.3.37-.22.36.31.36 1.26.36-2.26.36-.83.37-.25.36-.44.36 1.24.36-1.47.37-.73.36.31.36 1.75.36-.68.36-.69.37-.58.36-.62.36.32.36.07.36-.04.37.14.36 1 .36-.71.36-1.93.36 1.75.37.41.36 1 .36-1.68.36.53.36.57.37.67.36 2.79.36.37.36-2.91.37-3.15.36.4.36.03.36-.84.36.23.37-.43.36-.08.36-.56.36.03.36-1.25.37.18.36.1.36-.53.36 3.22.36-.17.37-.16.36-.41.36-.74.36-3.17.37-1.25.36 1.37.36-1.82.36-1.06.36 1.64.37.43.36 1.73.36 2.8.36-2.19.36-1.29.37-.08.36 3.19.36.41.36.85.36.43.37-.71.36 1.23.36 1.31.36.61.37-.36.36-.2.36-.59.36.11.36-.82.37-6.36.36-.26.36.29.36-1.16.36-.49.37.46.36.34.36-.14.36.38.36-.03.37-.51.36-.56.36-.46.36 5.98.36-1.27.37-6.84.36 1.13.36-.06.36 7.21.37-1.23.36 1.98.36.11.36 1.21.36-1.85.37.14.36 1.17.36.58.36.04.36.12.37-.54.36-1.87.36.41.36-1.38.36.61h.37l.36-.49h.36l.36.55.37-.19.36.48.36-.91.36-1.03.36-.33.37 1.41.36-.2.36-.04.36.67.36-5.02.37-.16.36 1.39.36-.19.36.31.36-.91.37.98.36-.25.36-1.23.36-.48.36.06.37-1.77.36-3.02.36.98.36.18.37-1.07.36.16.36.31.36-.3.36-.02.37.29.36-.54.36-.69.36.31.36 4.48.37.04.36-6.41.36.02.36-.65.36-.07.37.74.36.69.36-.81.36-.22.37-.38.36.04.36.65.36-.6.36.38.37.22.36-.06.36-.72.36-.05.36.72.37.03.36.42.36.25.36-.31.36.55.37.27.36 4.32.36-.45.36.4.36.19.37-1.14.36-1.55.36.31.36-.45.37-.05.36-.02.36.4.36-.67.36.73.37.87.36.1.36-.58.36 2.78.36-.4.37-2.97.36-.28.36 1 .36 5.41.36-.44.37-.61.36.81.36 3.44.36-3.7.37-.34.36-.24.36 1.07.36-.95.36-.36.37-1.51.36.2.36-3.19.36 2.45.36.1.37-.33.36.37.36-.54.36.7.36-.95.37-.52.36-.24.36-1.07.36 2.39.37 2.57.36-4 .36-3.78.36-.73.36 1.92.37-.85.36-.06.36.29.36.75.36 5.74.37-60.23.36.35.36-3.04.36 4.89.36 61.08.37.97.36-1.27.36.8.36-.97.36-.25.37-.78.36-8.14.36 2.23.36 3.02.37.74.36-1.46.36-1.17.36-.04.36.38.37-.41.36.73.36-.34.36.59.36 2.39.37-.47.36-.64.36-.75.36 4.42.36.33.37-59.06.36.22.36.3.36-4.51.37-.97.36-.12.36-.5.36-.41.36 57.79.37.33.36.74.36-.59.36-.24.36-57.52.37.61.36.39.36-.43.36.31.36.66.37.21.36 4.32.36-1.57.36-.29.36.5.37 60.46.36-.47.36-.1.36-.47.37-1.12.36-.31.36-.43.36.62.36.46.37.16.36-.16.36.12.36-3.86.36-2.86.37-.14.36-.11.36.13.36-64.28.36-2.16.37-.43.36 61.81.36 1.13h.36l.37 1.33.36.42.36 3.56.36-.26.36-.67.37-.22.36.83.36-41.24.36-.04.36 3.28.37.41.36.92.36-.29.36 1.12.36.71.37-2.56.36-1.02.36-.89.36-.13.36 2.29.37-1.2.36-.21.36.09.36-1.88.37-3.05.36.26.36 4.91.36-.03.36.05.37-.1.36-.08.36-1.06.36.59.36-.56.37.7.36 13.98.36 1.22.36 1.41.36 1.24.37 1.05.36-.34.36-1.66.36-.04.37.06.36 1.85.36-.2.36.3.36-.42.37-4.44.36.5.36.17.36-16.32.36.24.37-.32.36-1.73.36.15.36 5.35.36 15.44.37.78.36 2.96.36 1.69.36-.35.37-19.12.36.39.36.45.36.5.36-.39.37-.69.36-.84.36-.29.36 1.03.36 2.08.37-.31.36-.08.36-4.8.36.7.36.04.37-.89.36-.61.36.06.36.52.36.02.37-.58.36.75.36-.43h.36l.37.15.36-.14.36.33.36 1.39.36-.45.37.84.36 2.21.36 15.86.36-4.28h.36l.37-.17.36-.67.36-4.97.36 1.05.36 1 .37-.29.36-3.78.36 2.46.36.11.37-4.15.36.01.36-1.28.36 6.68.36-.84.37 4.41.36.48.36.94.36-.88.36 3.64.37-.04.36-4.16.36 1 .36-.66.36 1.64.37 1.24.36.49.36-.26.36-.66.36-3.82.37-4.38.36-2.39.36-1.67.36-3.74.37-.5.36 8.25.36-.47.36-4 .36-1.86.37.81.36-.01.36-.42.36-14.56.36 4.9.37.06.36-4.04.36 2.86.36-.23.36-.77.37-.35.36-2.06.36.36.36 4.33.37.83.36 1.61.36-3.8.36.07.36.3.37-.12.36.2.36-1.02.36-.08.36.57.37-2.11.36 17.34.36-20.31.36 1.78.36.05.37-2.23.36 20.13.36-.19.36.03.37-.61.36-3.96.36 4.41.36-13.52.36-2.74.37 1.25.36-3.57.36.88.36 17.18.36.59.37-.02.36 1.9.36-4.96.36-.78.36-2.05.37-.81.36.87.36.24.36.33.36.28.37-.3.36-.06.36 4.29.36.59.37-.02.36.2h.36l.36-.29.36.53.37 3.87.36 3.29.36-15.14.36 4.72.36.36.37 15.33.36-4.86.36.58.36 1.2.36-5.15.37-.55.36-.4.36-.11.36-11.02.37-17.63.36 16.35.36 4.3.36-2.03.36 2.92.37-.48.36-.59.36.39.36 4.11.36 4.96.37-1.04.36-.75.36.36.36 5.64.36-1.32.37-4.99.36-4.1.36-.52.36-6.41.36 4.8.37-1.25.36.67.36.83.36-.7.37.99.36 7.66.36-.37.36-.68.36 1.26.37.34.36.3.36-.84.36-4.12.36-.5.37.72.36-3.78.36 1.21.36-4.92.36-.27.37.28.36 5.3.36-.23.36.51.37.07.36-1.1.36.14.36-1.33.36-17.23.37-.6.36-.21.36.26.36 4.28.36 1.01.37-.83.36-1.68.36 19.46.36 1.01.36-1.6.37 2.64.36.01.36-1.2.36-1.42.36-3.93.37 1.15.36 3.75.36-16.79.36-3.63.37.93.36-.03.36-1.28.36.53.36-.42.37-1.38.36 1.49.36 1.78.36 4.27.36-1.51.37-.19.36-.54.36.8.36 1.7.36-.06.37.53.36-1.87.36-3.63.36 10.16.37-.18.36-.55.36 5.67.36-.87.36 1.13.37-.26.36-3.31.36.48.36.04.36-13.27.37-.04.36-.35.36 28.32.36 1.28.36 1.02.37-1.27.36-13.45.36.65.36.14.37-2.2.36-4.06.36.03.36 16.96.36.83.37 1.29.36 1.29.36.28.36.59.36-.72.37 1.04.36.54.36-4 .36.75.36-.4.37.58.36-1.06.36 1.73.36-.81.36-12.63.37.05.36-1.57.36.6.36-.97.37-.13.36 3.89.36-.12.36-3.56.36-.61.37-5.25.36.59.36.11.36-1.07.36.15.37.18.36 8.4.36-1.09.36-.19.36-.42.37-2.32.36.78.36 3.92.36-.63.37.17.36.04.36-.08.36-.58.36 2.9.37-.15.36.21.36.47.36-.24.36 2.83.37.39.36.85.36 4.78.36.29.36-11.72.37-.66.36 3.69.36.27.36-.05.36 2.79.37-1.77.36 11.23.36-3.53.36-2.92.37-12.05.36-1.65.36 4.46.36-7.54.36.43.37-13.38.36-.2.36-3.19.36-.57.36.94.37.72.36 3.56.36-3.16.36-.15.36.32.37-1.48.36-.07.36-1.66.36 12.66.37-.62.36-.76.36.26.36 16.43.36-.58.37-.96.36-.21.36 6.17.36 1.31.36-2.21.37-13.57.36-.95.36.57.36 3.91.36-1.02.37 1.92.36-16.83.36 11.74.36.29.36.07.37 1.02.36-.29.36-.15.36.18.37-1 .36 17.37.36-.17.36-3.46.36-5.68.37 1.39.36 2.84.36-.45.36-3.22.36-.51.37.77.36.23.36.35.36 5.3.36 3.12.37.43.36-.2.36-12.62.36-5.56.37 2.62.36-.2.36 3.04.36-.4.36.83.37-.55.36 4.88.36-.17.36.19.36-.56.37-.81.36 2.78.36-.13.36 11.98.36-.28.37-2.01.36.07.36.5.36.27.37.04.36.41.36-.52.36-.54.36.37.37-.64.36-.33.36-.19.36.78.36.36.37-.28.36-1 .36.49.36.5.36-.64.37 1.18.36 1.08.36.31.36-.26.36-11.1.37-.9.36.42.36-4.33.36.37.37.2.36.59.36-.97.36-1.66.36-1.23.37-3.5.36 1.01.36-.06.36-.65.36.64.37-.06.36-1.38.36-.97.36 10.49.36-.06.37.33.36-3.26.36 4.39.36 3.44.37.1.36-1.1.36-.45.36-12.84.36-.02.37.62.36-4.19.36 6.01.36-2.35.36-1.04.37-.96.36-.78.36.86.36 1.52.36-.53.37 2.45.36.12.36-.06.36 1.34.36-2.11.37-1.11.36.56.36-.44.36-.55.37.59.36.39.36-.53.36 2.27.36-.25.37.62.36-.65.36-.09.36 3.01.36-.07.37 2.94.36-5.84.36.2.36.32.36.74.37-.06.36.32.36-7.02.36-.85.37.49.36.88.36.03.36 3.08.36 1.34.37 11.01.36-1.88.36-4.33.36 1.69.36.29.37.05.36-3.35.36-.43.36.7.36-1.05.37-.1.36.97.36-.87.36 1.91.36-.2.37 1.23.36-.73.36 1.19.36-.69.37-.12.36 5.42.36-.69.36.42h.36l.37 2.81.36-1.5h.36l.36.66.36 1.6.37-14 .36 4.64.36-4.93.36.5.36.24.37-.89.36.99h.36l.36-3.83.37-.9.36-.02.36 1.21.36-1.95.36-1.49.37.43.36.1.36.4.36-.03.36-.45.37.2.36-.05.36.13.36.23.36-3.54.37 3.71.36 1.45.36.35.36-2.33.37.19.36-.54.36 3.1.36.18.36-2.54.37 1.9.36-2.63.36-.92.36.8.36.58.37 11.93.36-15.96.36 1.14.36 15.41.36.25.37-.34.36-3.35.36-.35.36-3.07.36-.25.37 1.37.36.14.36 3.91.36 4.59.37 5.1.36-.49.36 4.71.36.12.36-.57.37-.39.36-.04.36 1.88"/><use xlink:href="#f7999__a" color="#F44336" transform="matrix(3.75 0 0 3.75 125.4 116.4)"/><use xlink:href="#f7999__a" color="#F44336" transform="matrix(3.75 0 0 3.75 220.55 7.51)"/></g><text stroke-linecap="round" stroke-linejoin="round" color="#000" font-family="KaTeX_Main" font-size="8" transform="translate(241.1 25.11)"><tspan>RedBlackTopDown</tspan></text><g fill="none" stroke="currentColor" stroke-linecap="round" stroke-linejoin="round" color="#000"><path stroke="#3B75EA" d="M205.6 22.51h29.9M28 135.33l.36 1.63.36.47.37-2.32.36 1.96.36.17.36-3.96.36 7.28.37.13.36 1.78.36-2.49.36-7.17.37 9.66.36-6.9.36-9.14.36 12.21.36-8.59.37.43.36 10.1.36-.3.36 1.04.36.45.37-6.94.36.1.36 11.47.36.68.36-.69.37-.16.36.11.36-2.86.36.1.36.37.37-1.36.36-6.3.36.51.36 2.32.37-.64.36-.46.36 2.6.36-1.66.36.87.37-2.56.36 3.59.36 3.54.36-2.27.36.64.37-.27.36 1.02.36-4.44.36 2.21.36-1.59.37-1.11.36-.3.36 1.03.36 3.4.37-.97.36-.87.36-.89.36-.44.36.43.37 2.14.36.82.36 1.16.36-1.77.36-.86.37.97.36.02.36-1.28.36 3 .36-.78.37-.51.36 2.84.36.84.36-1.03.37 1.72.36-2.14.36-.9.36.1.36 1.9.37 1.82.36-1.89.36-.03.36.59.36-.93.37.2.36-.07.36-1.27.36-1.35.36 2.18.37-.83.36-1.17.36 1.72.36 2.65.36-1.12.37.37.36.26.36-1.72.36-2.1.37.23.36.67.36-5.44.36.48.36-.16.37 6.75.36 1.27.36 1 .36-2.18.36-.17.37-1.1.36-.85.36-10.17.36 11.53.36.56h.37l.36 1.06.36-.43.36-6.13.37 6.92.36-2 .36-.17.36-5.37.36 3.99.37-.51.36-.71.36-2.16.36-2.39.36 5.13.37 1.21.36 1.55.36.23.36-.09.36-1.35.37-3.84.36 1.54.36-5.33.36 5.61.36-1.98.37-.78.36-2.57.36 4.08.36-.86.37-.67.36-1.61.36 3.22.36-.17.36-3.3.37 1.4.36-.15.36-.69.36-1.39.36 1.12.37.37.36-.48.36.37.36-.25.36 2.68.37.52.36-1.18.36.44.36-4.03.37.67.36 3.19.36.23.36-1.33.36 3.17.37-.85.36 2.13.36-.73.36.4.36-1.12.37.24.36-.76.36-2.43.36-1.94.36 1.14.37-.95.36-.08.36-4.7.36 5.6.36 1.16.37-12.18.36 7.84.36 2.86.36-.16.37 1.09.36 1.15.36-.52.36 2.91.36.34.37.02.36.53.36 1.12.36.17.36-4.2.37 3.75.36-.04.36.1.36.25.36-.25.37 1.54.36.88.36-.85.36-.9.37-.36.36-2.19.36.21.36.5.36 2.02.37-2.97.36.76.36 1.16.36-3.27.36-1.45.37 3.74.36-.42.36.42.36-1.2.36-.53.37-1.96.36 2.69.36-1.55.36-.19.37-.32.36-.55.36 2.51.36-.83.36.44.37-2.29.36-.64.36.66.36-.51.36-1.08.37.65.36 1.27.36 1.05.36-1.06.36 2.48.37.21.36.32.36-1.41.36 1.53.36.05.37-2.82.36-1.06.36 1.85.36-.06.37.09.36-2.03.36.04.36-.11.36-.55.37-.48.36-1.24.36.68.36.03.36-2.43.37.26.36 2.06.36 4.36.36-1.19.36-.71.37-1.16.36.15.36-.99.36.74.37-.84.36.1.36.13.36 3.11.36-1.72.37-1.08.36 1.78.36.83.36-1.04.36-.07.37.13.36 3.31.36-2.78.36.45.36-.22.37-1.01.36-.13.36-.84.36 2.44.36 1.73.37-1.81.36-1.62.36.66.36.5.37.08.36-1.22.36-.56.36 4.81.36-.38.37-.08.36.46.36.02.36-.3.36.97.37-.72.36.55.36-1.02.36.68.36.36.37-3.66.36 2.42.36-1.5.36-33.06.37 8.81.36-1.43.36 24.76.36 1.54.36-.25.37-.14.36-1.15.36.32.36 1.33.36-1 .37.43.36.72.36.07.36-.66.36-.75.37 1.66.36-1.58.36-.39.36.71.36-.01.37-1.8.36-.8.36 2.04.36-.19.37-.58.36-2.51.36 3.81.36 1.52.36-3.14.37.01.36.02.36.33.36 2.17.36.83.37-.05.36-18.84.36-30.59.36 1.49.36 9.4.37 12.33.36.07.36-1.63.36-9.18.37.77.36.11.36.05.36 10.44.36-2.17.37.88.36 25.45.36-.19.36-.18.36-.07.37-.33.36-.08.36-9.78.36 10.78.36-.57.37 1.13.36-2.92.36-.71.36 1.32.37-3.87.36 1.8.36-33.93.36 9.45.36.63.37.88.36.78.36-13.91.36 13.28.36 1.64.37-.4.36-13.42.36 33.55.36 2.56.36-.8.37-.18.36 1.54.36 1 .36-.39.36.34.37.2.36-.61.36-1.19.36-.53.37.02.36 4.73.36-1.15.36.57.36-.11.37-.83.36-2.48.36 1.09.36-2.19.36-.02.37 2.35.36 1.61.36-.7.36-.93.36 1.32.37-.57.36 2.26.36-.66.36-.2.37-3.27.36-.05.36-35.69.36-2.71.36.51.37-.27.36-.19.36 1.2.36.14.36-.15.37-1.09.36.77.36-.18.36-1.77.36 12.4.37-1.7.36 3.09.36-1.3.36-.71.36-.53.37 2.97.36.91.36-.13.36-.62.37.17.36-.93.36.37.36-2.38.36 4.6.37.32.36-1.3.36 25.03.36.53.36-.26.37.39.36-1.04.36.83.36-.15.36-.99.37-1.18.36.26.36-1.28.36.99.37-1 .36 1.49.36-12.12.36.68.36 12.44.37-.93.36-.2.36-3.69.36.3.36.57.37.22.36-.51.36-.87.36-.23.36.44.37-11.6.36 14.86.36 1.61.36-.02.37 1.63.36 1.46.36.34.36-.64.36-.97.37-.35.36.67.36-.53.36.12.36-.27.37-.77.36.08.36-.49.36.38.36 1.16.37-7.75.36 3.42.36-11.08.36.27.36-16.43.37-2.31.36 15.38.36 9.74.36.21.37 1.06.36-1.1.36 3.89.36-.21.36 1.33.37-1.08.36.41.36.4.36.55.36-.78.37-1.52.36-.35.36.18.36-34.94.36-3.7.37 2.75.36 40.74.36-1.7.36 1.23.37 2.69.36 1.78.36.83.36-.77.36.3.37.12.36-7.68.36 5.59.36.84.36.39.37.84.36.27.36 1.01.36.09.36-1.29.37-.63.36 1.09.36-.91.36.13.36-.49.37.37.36.31.36-1.43.36-2.01.37-1.82.36-1.8.36-.02.36-.4.36-.03.37 1.61.36.37.36-1.42.36 2.81.36.31.37.32.36.04.36.02.36.22.36-.57.37-3.41.36 1.78.36-2.39.36-1.32.37-3.66.36.02.36-.22.36-.62.36.28.37.5.36.78.36 1.52.36.3.36-.34.37.32.36 1.58.36.9.36 1.66.36 4.35.37.62.36-36.26.36 14.67.36-.87.36 19.35.37-1.04.36 1.07.36.63.36-.67.37-1.13.36 1.39.36-.93.36.99.36-1.83.37-1.4.36 2.48.36-1.23.36.06.36 1.15.37 2.43.36-.61.36-.77.36-2.57.36.51.37-2.88.36 2.21.36.81.36.61.37.69.36.53.36-.46.36-1.78.36.34.37-.6.36 5.29.36-.73.36 1.1.36-.77.37.43.36-.73.36-1.18.36-2.88.36-.06h.37l.36.09.36.91.36-3.01.37 1.93.36.15.36-1.37.36 1.67.36-.06.37.07.36.82.36.21.36.08.36-.68.37 1.76.36.47.36.08.36-.64.36-1.02.37-1.19.36-1.51.36 1.69.36.56.36.92.37 1.31.36.67.36-.58.36-.13.37-.48.36-.42.36-2.38.36 2.5.36.08.37-.85.36-1.3.36-.92.36.1.36-.05.37 1.45.36.88.36-.19.36.98.36.65.37.78.36.43.36.78.36-.59.37-.87.36.95.36.16.36-1.95.36 1.21.37.26.36-.85.36-1 .36-1.5.36.2.37-.43.36-.08.36 1.63.36 1.45.36-.95.37.26.36-.02.36.36.36-.81.36.61.37-.09.36.2.36-1.54.36-1.36.37 1.01.36-3.52.36 2.37.36-.06.36-.37.37 1.49.36 2.04.36.56.36-.9.36.32.37-1.9.36 2.24.36.07.36-1.97.36.51.37 1.04.36-.03.36-.17.36.33.37-.41.36.08.36-.67.36-.04.36-.83.37-1.17.36-.25.36 1.35.36-.05.36 1.46.37-.5.36-1.16.36.56.36-.78.36-.4.37-1.43.36.15.36 1.32.36 1.76.36-1.33.37-2.81.36 3.91.36.29.36.14.37 2.53.36-1.07.36.04.36-2.23.36.62.37.95.36-3.13.36.97.36.37.36-1.81.37.29.36 1.09.36 1.12.36.12.36.71.37-1.02.36-1.19.36.19.36.43.37.64.36-.04.36-.77.36-2.02.36.4.37 2.19.36-.24.36-1.05.36 1.98.36.27.37 1.13.36-2.69.36-.8.36 2.3.36 1.28.37-.94.36-2.18.36.08.36-.3.37-1.94.36 1.68.36 2.14.36 1.68.36.94.37-.31.36-1.47.36-.49.36-1.17.36-.25.37-1.06.36-.21.36.84.36 1.35.36-1.41.37-1.89.36-1.23.36 2.85.36-.19.36-.19.37 2.36.36-1.71.36-.41.36.65.37-.5.36.37.36-1.19.36.37.36.3.37.99.36-1.67.36.21.36 2.55.36.19.37-.29.36-.17.36-.01.36 1.17.36-.07.37 1.32.36.43.36-.57.36-.4.37 1.09.36-.15.36.21.36-.05.36-1.18.37-.44.36-4.14.36 1.23.36-.69.36-.82.37-.01.36 1.18.36-.44.36.71.36 1.93.37 2.49.36.65.36-1.54.36-.13.36.84.37-.39.36.03.36.25.36-.64.37 1.34.36-.39.36-.28.36.33.36-.37.37.34.36-.59.36-1.14.36-.89.36-1.25.37 1.31.36-1.68.36.39.36-1.31.36-.17.37 2.39.36.44.36-.96.36-.09.37.35.36-1.29.36 1.36.36-.19.36.53.37-.18.36-.23.36.16.36-.24.36.47.37 1.92.36-2.5.36.02.36-2.33.36 3.15.37.3.36 1.03.36-.11.36.67.36-.2.37-.05.36.46.36-.79.36.09.37.11.36-.65.36.23.36.71.36-.36.37.37.36-1.95.36.54.36.63.36-2.49.37-.26.36 1.45.36-.48.36.98.36.56.37-1.15.36-.98.36-.84.36 1.2.37.77.36 1.23.36-.27.36-1.64.36-.14.37.25.36-2.18.36 1.02.36-.84.36.05.37-.87.36-.19.36 1.83.36-.86.36-.85.37 1.91.36 1.78.36-.21.36-.46.37-.09.36-.82.36.7.36.18.36-.07.37.45.36.06.36-1.23.36-.52.36 2.47.37-.5.36-.56.36-.03.36-.03.36-.68.37 2.09.36.99.36-2.71.36 1.27.36.9.37.96.36-.33.36-.39.36-.92.37.23.36-1.84.36 1.09.36-.38.36.05.37-.25.36-.85.36-1.02"/><use xlink:href="#f7999__b" color="#3B75EA" transform="matrix(3.75 0 0 3.75 182.98 110.58)"/><use xlink:href="#f7999__b" color="#3B75EA" transform="matrix(3.75 0 0 3.75 220.55 22.51)"/></g><path fill="none" d="M28 45.01V162.5M371.99 45.01H28" color="#000"/></svg>