<svg xmlns="http://www.w3.org/2000/svg" xmlns:xlink="http://www.w3.org/1999/xlink" viewBox="0 0 400 200"><path fill="none" d="M0 0h400v200H0z"/><defs><path id="eef91__c" fill="currentColor" stroke="currentColor" stroke-width=".267" d="M-1-1h2v2h-2z"/><path id="eef91__a" stroke="currentColor" stroke-width=".267" d="m0-1.33-1.33 2h2.66z"/><path id="eef91__e" stroke="currentColor" stroke-width=".267" d="M0 1.33 1.265.411.782-1.067l-1.564-.009-.483 1.487z"/><use xlink:href="#eef91__a" id="eef91__g" fill="currentColor" stroke="none"/><use xlink:href="#eef91__a" id="eef91__b" stroke="currentColor" transform="rotate(180)"/><use xlink:href="#eef91__b" id="eef91__f" fill="currentColor" stroke="none"/><circle id="eef91__d" cx="0" cy="0" r="1" stroke="currentColor" stroke-width=".267"/></defs><path fill="none" stroke="#CCC" stroke-linecap="round" stroke-linejoin="round" stroke-width=".1" d="M46.1 162.5V60.01" class="eef91__gridline" color="#000"/><g fill="none" stroke-linecap="round" stroke-linejoin="round" stroke-width="0" color="#000"><path d="M46.1 162.5V155m0-94.99v7.5"/><text fill="#000" font-family="KaTeX_Main" font-size="8" text-anchor="middle" transform="translate(46.1 172.6)"><tspan> 1</tspan></text></g><path fill="none" stroke="#CCC" stroke-linecap="round" stroke-linejoin="round" stroke-width=".1" d="M82.31 162.5V60.01" class="eef91__gridline" color="#000"/><g fill="none" stroke-linecap="round" stroke-linejoin="round" stroke-width="0" color="#000"><path d="M82.31 162.5V155m0-94.99v7.5"/><text fill="#000" font-family="KaTeX_Main" font-size="8" text-anchor="middle" transform="translate(82.31 172.6)"><tspan> 2</tspan></text></g><path fill="none" stroke="#CCC" stroke-linecap="round" stroke-linejoin="round" stroke-width=".1" d="M118.52 162.5V60.01" class="eef91__gridline" color="#000"/><g fill="none" stroke-linecap="round" stroke-linejoin="round" stroke-width="0" color="#000"><path d="M118.52 162.5V155m0-94.99v7.5"/><text fill="#000" font-family="KaTeX_Main" font-size="8" text-anchor="middle" transform="translate(118.52 172.6)"><tspan> 3</tspan></text></g><path fill="none" stroke="#CCC" stroke-linecap="round" stroke-linejoin="round" stroke-width=".1" d="M154.73 162.5V60.01" class="eef91__gridline" color="#000"/><g fill="none" stroke-linecap="round" stroke-linejoin="round" stroke-width="0" color="#000"><path d="M154.73 162.5V155m0-94.99v7.5"/><text fill="#000" font-family="KaTeX_Main" font-size="8" text-anchor="middle" transform="translate(154.73 172.6)"><tspan> 4</tspan></text></g><path fill="none" stroke="#CCC" stroke-linecap="round" stroke-linejoin="round" stroke-width=".1" d="M190.94 162.5V60.01" class="eef91__gridline" color="#000"/><g fill="none" stroke-linecap="round" stroke-linejoin="round" stroke-width="0" color="#000"><path d="M190.94 162.5V155m0-94.99v7.5"/><text fill="#000" font-family="KaTeX_Main" font-size="8" text-anchor="middle" transform="translate(190.94 172.6)"><tspan> 5</tspan></text></g><path fill="none" stroke="#CCC" stroke-linecap="round" stroke-linejoin="round" stroke-width=".1" d="M227.15 162.5V60.01" class="eef91__gridline" color="#000"/><g fill="none" stroke-linecap="round" stroke-linejoin="round" stroke-width="0" color="#000"><path d="M227.15 162.5V155m0-94.99v7.5"/><text fill="#000" font-family="KaTeX_Main" font-size="8" text-anchor="middle" transform="translate(227.15 172.6)"><tspan> 6</tspan></text></g><path fill="none" stroke="#CCC" stroke-linecap="round" stroke-linejoin="round" stroke-width=".1" d="M263.36 162.5V60.01" class="eef91__gridline" color="#000"/><g fill="none" stroke-linecap="round" stroke-linejoin="round" stroke-width="0" color="#000"><path d="M263.36 162.5V155m0-94.99v7.5"/><text fill="#000" font-family="KaTeX_Main" font-size="8" text-anchor="middle" transform="translate(263.36 172.6)"><tspan> 7</tspan></text></g><path fill="none" stroke="#CCC" stroke-linecap="round" stroke-linejoin="round" stroke-width=".1" d="M299.57 162.5V60.01" class="eef91__gridline" color="#000"/><g fill="none" stroke-linecap="round" stroke-linejoin="round" stroke-width="0" color="#000"><path d="M299.57 162.5V155m0-94.99v7.5"/><text fill="#000" font-family="KaTeX_Main" font-size="8" text-anchor="middle" transform="translate(299.57 172.6)"><tspan> 8</tspan></text></g><path fill="none" stroke="#CCC" stroke-linecap="round" stroke-linejoin="round" stroke-width=".1" d="M335.78 162.5V60.01" class="eef91__gridline" color="#000"/><g fill="none" stroke-linecap="round" stroke-linejoin="round" stroke-width="0" color="#000"><path d="M335.78 162.5V155m0-94.99v7.5"/><text fill="#000" font-family="KaTeX_Main" font-size="8" text-anchor="middle" transform="translate(335.78 172.6)"><tspan> 9</tspan></text></g><path fill="none" stroke="#CCC" stroke-linecap="round" stroke-linejoin="round" stroke-width=".1" d="M371.99 162.5V60.01" class="eef91__gridline" color="#000"/><g fill="none" stroke-linecap="round" stroke-linejoin="round" stroke-width="0" color="#000"><path d="M371.99 162.5V155m0-94.99v7.5"/><text fill="#000" font-family="KaTeX_Main" font-size="8" text-anchor="middle" transform="translate(371.99 172.6)"><tspan> 10</tspan></text></g><g fill="none" stroke-linecap="round" stroke-linejoin="round" stroke-width="0" color="#000"><path d="M371.99 162.5h-7.5"/><text fill="#000" font-family="KaTeX_Main" font-size="8" transform="translate(378.99 165.1)"><tspan>0.00</tspan></text></g><g fill="none" stroke-linecap="round" stroke-linejoin="round" stroke-width="0" color="#000"><path d="M371.99 147.86h-7.5"/><text fill="#000" font-family="KaTeX_Main" font-size="8" transform="translate(378.99 150.46)"><tspan>0.20</tspan></text></g><g fill="none" stroke-linecap="round" stroke-linejoin="round" stroke-width="0" color="#000"><path d="M371.99 133.22h-7.5"/><text fill="#000" font-family="KaTeX_Main" font-size="8" transform="translate(378.99 135.82)"><tspan>0.40</tspan></text></g><g fill="none" stroke-linecap="round" stroke-linejoin="round" stroke-width="0" color="#000"><path d="M371.99 118.58h-7.5"/><text fill="#000" font-family="KaTeX_Main" font-size="8" transform="translate(378.99 121.18)"><tspan>0.60</tspan></text></g><g fill="none" stroke-linecap="round" stroke-linejoin="round" stroke-width="0" color="#000"><path d="M371.99 103.93h-7.5"/><text fill="#000" font-family="KaTeX_Main" font-size="8" transform="translate(378.99 106.53)"><tspan>0.80</tspan></text></g><g fill="none" stroke-linecap="round" stroke-linejoin="round" stroke-width="0" color="#000"><path d="M371.99 89.29h-7.5"/><text fill="#000" font-family="KaTeX_Main" font-size="8" transform="translate(378.99 91.89)"><tspan>1.00</tspan></text></g><g fill="none" stroke-linecap="round" stroke-linejoin="round" stroke-width="0" color="#000"><path d="M371.99 74.65h-7.5"/><text fill="#000" font-family="KaTeX_Main" font-size="8" transform="translate(378.99 77.25)"><tspan>1.20</tspan></text></g><g fill="none" stroke-linecap="round" stroke-linejoin="round" stroke-width="0" color="#000"><path d="M371.99 60.01h-7.5"/><text fill="#000" font-family="KaTeX_Main" font-size="8" transform="translate(378.99 62.61)"><tspan>1.40</tspan></text></g><path fill="none" d="M28 60.01V162.5M371.99 60.01H28" color="#000"/><text stroke-linecap="round" stroke-linejoin="round" stroke-width="0" color="#000" font-family="KaTeX_Main" font-size="10" text-anchor="middle" transform="rotate(-90 61.38 49.88)"><tspan font-weight="bold">Allocations </tspan><tspan> / log</tspan><tspan dy="3" font-size="8">2</tspan><tspan dy="-3">(Size)</tspan></text><text stroke-linecap="round" stroke-linejoin="round" stroke-width="0" color="#000" font-family="KaTeX_Main" font-size="10" text-anchor="middle" transform="translate(199.99 195.75)"><tspan>Operations / 10</tspan><tspan dy="-5" font-size="8">6</tspan></text><text stroke-linecap="round" stroke-linejoin="round" color="#000" font-family="KaTeX_Main" font-size="8" transform="translate(110.4 10.11)"><tspan>Conc</tspan></text><g fill="none" stroke="currentColor" stroke-linecap="round" stroke-linejoin="round" color="#000"><path stroke="#D336C8" stroke-dasharray="1.0,2.0" d="M74.9 7.51h29.9M28 77.43l.36.13.36.12.37-2.07.36-1.53.36.12.36.12.36.12.37.12.36.11.36.11.36.11.37.1.36.11.36.1.36.1.36.1.37.1.36.1.36.09.36.09.36.1.37.08.36.09.36.09.36.09.36.08.37.08.36.09.36.08.36.08.36.07.37.08.36.08.36.07.36.08.37.07.36.07.36.07.36.07.36.07.37.07.36.07.36.07.36.06.36.07.37.06.36.07.36.06.36.06.36.06.37 12.58.36.91.36.55.36-.18.37.97.36-.66.36-.7.36 1.69.36.59.37-1.44.36-1.25.36-.53.36-.52.36.18.37 1.21.36.77.36-.44.36 1.29.36-.96.37-1.2.36.31.36.7.36-.65.37-.46.36-.07.36-.45.36-.2.36 1.21.37.97.36-.72.36 1.66.36-1.05.36-.73.37 1.61.36.52.36-.06.36-1.15.36.43.37-.65.36-1.53.36.59.36.97.36-.6.37 1.63.36-.83.36-1.26.36-.08.37.5.36.44.36-1.52.36.58.36-.54.37-.66.36 1.47.36.68.36-.43.36 1.47.37-.55.36-.97.36 1.03.36.87.36.56.37-3.15.36.22.36-.58.36-.78.37 1.72.36.57.36-.56.36 1.58.36-.53.37-.63.36-1.35.36 1.02.36.71.36-1.56.37.59.36-.93.36-.58.36 1.52.36.69.37-.54.36 1.31.36-.14.36-.47.36-.12.37 1.2.36.97.36-1.71.36.79.37-1.08.36-1.14.36.2.36.58.36-.15.37.72.36.4.36-.64.36-1.47.36.54.37 1.02.36-1.43.36.64.36-.92.36-.96.37 1.51.36.52.36.39.36.07.37.83.36-.54.36-.6.36 1.39.36.75.37-1.82.36-.82.36-.6.36-.98.36 1.1.37.85.36.54.36-.19.36.92.36-.54.37-1.67.36.73.36.58.36-.92.36.17.37-.59.36-.69.36.42.36 1.21.37.6.36-.32.36 1.18.36-.85.36-.6.37 1.58.36.6.36-.71.36-.25.36-.27.37-.46.36-1.58.36.92.36.92.36-.71.37 1.58.36-1.04.36-1.15.36.21.37.59.36-.2.36-.98.36.3.36-.65.37-.17.36 1.11.36 1.01.36-.68.36 1.71.37-.91.36-.97.36 1.56.36.47.36.38.37-3.34.36.58.36-.59.36-.48.37 1.31.36.81.36-.53.36 1.53.36-.59.37-1.16.36-.52.36.76.36.59.36-1.63.37.52.36-.58.36-.73.36 1.65.36.58.37-.53.36 1.64.36-.6.36-.75.36.52.37 1.16.36.59.36-1.53.36.53.37-.82.36-1.3.36.48.36.59.36-.59.37 1.51.36-.37.36-.47.36-1.56.36.96.37.91.36-1.71.36.68.36-1.01.36-.58.37 1.48.36.64.36-.29.36.98.37.2.36-.59.36-.21.36 1.15.36 1.03.37-2.61.36-.09.36-.91.36-.93.36 1.58.37.45.36.29.36.24.36.71.36-.6.37-1.58.36.61.36.84.36-1.17.36.31.37-.6.36-1.08.36 1.29.36.69.37.59.36-.17.36.92.36-.58.36-.73.37 1.66.36.55.36-.92.36.19.36-.55.37-.84.36-1.1.36.98.36.6.36-.24.37 1.04.36-.75.36-1.38.36.59.37.54.36-.82.36-.07.36-.4.36-.51.37.06.36 1.22.36.92.36-.65.36 1.45.37-1.03.36-.55.36 1.48.36.64.36-.66.37-2.3.36.15.36-.58.36-.2.36 1.15.37 1.07.36-.79.36 1.71.36-.96.37-1.21.36.12.36.47.36.15.36-1.32.37.54.36-.68.36-.35.36 1.24.36.93.37-.6.36 1.56.36-.69.36-1.03.36 1.34.37.64.36.53.36-1.58.36.56.37-.57.36-1.72.36.78.36.58.36-.49.37 1.58.36-.55.36-.88.36-1.03.36.97.37.55.36-1.46.36.42.36-.68.36-.68.37 1.71.36.53.36-.57.36 1.52.37-.44.36-.5.36.08.36 1.25.36.84.37-2.94.36.08.36-.98.36-.58.36 1.52.37.65.36-.42.36 1.14.36.07.36-.53.37-1.61.36.72.36 1.06.36-1.66.36.73.37-.98.36-.81.36 1.64.36.45.37.07.36.45.36.66.36-.71.36-.3.37 1.2.36.96.36-1.29.36.44.36-.77.37-1.21.36-.19.36.53.36.53.36-.06.37.91.36-.59.36-1.69.36.7.37.67.36-.98.36.19.36-.55.36-.92.37.91.36.92.36.55.36-.18.36.97.37-.66.36-.7.36 1.7.36.58.36-1.43.37-1.27.36-.52.36-.52.36.17.36 1.22.37.78.36-.46.36 1.3.36-.96.37-1.2.36.3.36.7.36-.63.36-.47.37-.06.36-.46.36-.2.36 1.2.36.98.37-.73.36 1.67.36-1.05.36-.74.36 1.63.37.5.36-.04.36-1.17.36.45.37-.66.36-1.53.36.59.36.97.36-.6.37 1.62.36-.82.36-1.25.36-.09.36.5.37.45.36-1.53.36.58.36-.54.36-.67.37 1.48.36.68.36-.43.36 1.46.37-.54.36-.97.36 1.03.36.87.36.56.37-3.14.36.22.36-.6.36-.77.36 1.72.37.58.36-.57.36 1.58.36-.53.36-.62.37-1.36.36 1.02.36.71.36-1.56.36.59.37-.94.36-.57.36 1.52.36.69.37-.54.36 1.3.36-.13.36-.46.36-.13.37 1.2.36.97.36-1.71.36.79.36-1.08.37-1.13.36.19.36.58.36-.15.36.72.37.4.36-.63.36-1.48.36.54.37 1.02.36-1.42.36.63.36-.91.36-.97.37 1.51.36.52.36.4.36.07.36.82.37-.54.36-.6.36 1.4.36.73.36-1.81.37-.82.36-.6.36-.97.36 1.08.36.86.37.54.36-.19.36.92.36-.54.37-1.67.36.73.36.58.36-.91.36.15.37-.58.36-.69.36.42.36 1.2.36.61.37-.32.36 1.19.36-.86.36-.61.36 1.59.37.61.36-.71.36-.27.36-.26.37-.46.36-1.58.36.92.36.91.36-.7.37 1.58.36-1.04.36-1.15.36.21.36.59.37-.2.36-.99.36.31.36-.65.36-.17.37 1.1.36 1.02.36-.68.36 1.71.36-.91.37-.96.36 1.55.36.47.36.39.37-3.35.36.58.36-.59.36-.49.36 1.32.37.81.36-.53.36 1.53.36-.59.36-1.15.37-.54.36.77.36.59.36-1.63.36.52.37-.57.36-.74.36 1.64.36.59.37-.53.36 1.64.36-.6.36-.74.36.5.37 1.17.36.59.36-1.53.36.53.36-.81.37-1.31.36.47.36.6.36-.58.36 1.5.37-.38.36-.45.36-1.57.36.96.37.91.36-1.71.36.69.36-1.02.36-.59.37 1.49.36.64.36-.29.36.97.36.22.37-.6.36-.21.36 1.15.36 1.02.36-2.59.37-.1.36-.91.36-.93.36 1.58.36.45.37.3.36.22.36.73.36-.6.37-1.58.36.6.36.84.36-1.17.36.31.37-.6.36-1.07.36 1.28.36.69.36.59.37-.17.36.92.36-.59.36-.72.36 1.67.37.54.36-.92.36.19.36-.55.37-.84.36-1.11.36.99.36.61.36-.26.37 1.06.36-.76.36-1.37.36.57.36.55.37-.82.36-.07.36-.4.36-.51.36.05.37 1.23.36.92.36-.65.36 1.45.36-1.03.37-.54.36 1.47.36.64.36-.65.37-2.32.36.17.36-.59.36-.2.36 1.14.37 1.08.36-.79.36 1.72.36-.97.36-1.21.37.11.36.48.36.15.36-1.32.36.54.37-.67.36-.37.36 1.25.36.92.37-.59.36 1.55.36-.68.36-1.03.36 1.33.37.65.36.53.36-1.57.36.55.36-.57.37-1.72.36.78.36.58.36-.49.36 1.58.37-.55.36-.87.36-1.05.36.98.36.55.37-1.46.36.42.36-.68.36-.68.37 1.71.36.53.36-.57.36 1.52.36-.44.37-.5.36.07.36 1.26.36.85.36-2.95.37.08.36-.98.36-.58.36 1.52.36.64.37-.41.36 1.13.36.08.36-.53.37-1.6.36.71.36 1.06.36-1.67.36.73.37-.97.36-.81.36 1.63.36.46.36.08.37.44.36.66.36-.71.36-.3.36 1.2.37.96.36-1.29.36.44.36-.77.37-1.21.36-.2.36.54.36.53.36-.06.37.92.36-.59.36-1.7.36.71.36.66.37-.98.36.19.36-.56.36-.9.36.89.37.93.36.55.36-.17.36.96.36-.67.37-.69.36 1.7.36.58.36-1.43.37-1.27.36-.52.36-.51.36.15.36 1.23.37.78.36-.46.36 1.3.36-.96.36-1.2.37.31.36.69.36-.63.36-.48.36-.05.37-.46.36-.21.36 1.21.36.99.37-.73.36 1.66.36-1.04.36-.75.36 1.63.37.5.36-.04.36-1.17.36.45.36-.66.37-1.53.36.59.36.96.36-.59.36 1.62.37-.82.36-1.25.36-.09.36.5.36.46.37-1.55.36.59.36-.54.36-.67.37 1.47.36.69.36-.43.36 1.46.36-.54.37-.97.36 1.02.36.88.36.56.36-3.14.37.22.36-.6.36-.77.36 1.72.36.58.37-.57.36 1.58.36-.54.36-.6.37-1.37.36 1.01.36.73.36-1.57.36.6.37-.95.36-.57.36 1.52.36.69.36-.54.37 1.3.36-.13.36-.46.36-.14.36 1.21.37.97.36-1.71.36.79.36-1.08.36-1.13.37.19.36.58.36-.15.36.71.37.42.36-.64.36-1.49.36.55.36 1.02.37-1.42.36.62.36-.9.36-.97.36 1.51.37.51.36.41.36.07.36.82.36-.53.37-.61.36 1.4.36.72.36-1.79.37-.84.36-.59.36-.97.36 1.08.36.86.37.54.36-.19.36.92.36-.54.36-1.67.37.74.36.57.36-.91.36.15.36-.58.37-.68.36.4.36 1.21.36.61.37-.32.36 1.2.36-.87.36-.61.36 1.58.37.61.36-.69.36-.29.36-.24.36-.47.37-1.58.36.91.36.92.36-.71.36 1.6.37-1.05.36-1.15.36.21.36.59.36-.19.37-1.01.36.32.36-.65.36-.17.37 1.1.36 1.02.36-.68.36 1.71.36-.91.37-.97.36 1.55.36.48"/><use xlink:href="#eef91__c" color="#D336C8" transform="matrix(3.75 0 0 3.75 354.25 90.57)"/><use xlink:href="#eef91__c" color="#D336C8" transform="matrix(3.75 0 0 3.75 89.85 7.51)"/></g><text stroke-linecap="round" stroke-linejoin="round" color="#000" font-family="KaTeX_Main" font-size="8" transform="translate(110.4 25.11)"><tspan>LBSTBottomUp</tspan></text><g fill="none" stroke="currentColor" stroke-linecap="round" stroke-linejoin="round" color="#000"><path stroke="#3B75EA" d="M74.9 22.51h29.9M28 158.63l.36.01h.36l.37.01.36.01h.36l.36.01h.36l.37.01h.36l.36.01h.36l.37.01h.72l.36.01h.36l.37.01h.36l.36.01h.72l.37.01h.36l.36.01h.72l.37.01h.72l.36.01h.73l.36.01h.72l.37.01h.72l.36.01h1.09l.36.01h.72l.37.01h1.08l.36.01.37 1.83h325.52"/><use xlink:href="#eef91__d" color="#3B75EA" transform="matrix(3.75 0 0 3.75 67.83 160.66)"/><use xlink:href="#eef91__d" color="#3B75EA" transform="matrix(3.75 0 0 3.75 89.85 22.51)"/></g><text stroke-linecap="round" stroke-linejoin="round" color="#000" font-family="KaTeX_Main" font-size="8" transform="translate(110.4 40.11)"><tspan>TreapTopDown</tspan></text><g fill="none" stroke="currentColor" stroke-linecap="round" stroke-linejoin="round" color="#000"><path stroke="#F44336" stroke-dasharray="4.5,2.0,0.5,2.0,0.5,2.0" d="M74.9 37.51h29.9M28 158.63l.36.01h.36l.37.01.36.01h.36l.36.01h.36l.37.01h.36l.36.01h.36l.37.01h.72l.36.01h.36l.37.01h.36l.36.01h.72l.37.01h.36l.36.01h.72l.37.01h.72l.36.01h.73l.36.01h.72l.37.01h.72l.36.01h1.09l.36.01h.72l.37.01h1.08l.36.01.37 1.83h325.52"/><use xlink:href="#eef91__e" color="#F44336" transform="matrix(3.75 0 0 3.75 125.4 160.66)"/><use xlink:href="#eef91__e" color="#F44336" transform="matrix(3.75 0 0 3.75 89.85 37.51)"/></g><text stroke-linecap="round" stroke-linejoin="round" color="#000" font-family="KaTeX_Main" font-size="8" transform="translate(241.1 10.11)"><tspan>AVLTopDown</tspan></text><g fill="none" stroke="currentColor" stroke-linecap="round" stroke-linejoin="round" color="#000"><path stroke="#29C3F6" stroke-dasharray="2.5,4.0" d="M205.6 7.51h29.9M28 158.63l.36.01h.36l.37.01.36.01h.36l.36.01h.36l.37.01h.36l.36.01h.36l.37.01h.72l.36.01h.36l.37.01h.36l.36.01h.72l.37.01h.36l.36.01h.72l.37.01h.72l.36.01h.73l.36.01h.72l.37.01h.72l.36.01h1.09l.36.01h.72l.37.01h1.08l.36.01.37 1.83h325.52"/><use xlink:href="#eef91__f" color="#29C3F6" transform="matrix(3.75 0 0 3.75 182.98 160.66)"/><use xlink:href="#eef91__f" color="#29C3F6" transform="matrix(3.75 0 0 3.75 220.55 7.51)"/></g><text stroke-linecap="round" stroke-linejoin="round" stroke-width=".5" color="#000" font-family="KaTeX_Main" font-size="8" transform="translate(241.1 25.11)"><tspan>AVLBottomUp</tspan></text><g fill="none" stroke="currentColor" stroke-linecap="round" stroke-linejoin="round" stroke-width=".5" color="#000"><path stroke="#000" d="M205.6 22.51h29.9M28 158.63l.36.01h.36l.37.01.36.01h.36l.36.01h.36l.37.01h.36l.36.01h.36l.37.01h.72l.36.01h.36l.37.01h.36l.36.01h.72l.37.01h.36l.36.01h.72l.37.01h.72l.36.01h.73l.36.01h.72l.37.01h.72l.36.01h1.09l.36.01h.72l.37.01h1.08l.36.01.37 1.83h325.52"/><use xlink:href="#eef91__g" transform="matrix(3.75 0 0 3.75 240.55 160.66)"/><use xlink:href="#eef91__g" transform="matrix(3.75 0 0 3.75 220.55 22.51)"/></g><text stroke-linecap="round" stroke-linejoin="round" color="#000" font-family="KaTeX_Main" font-size="8" transform="translate(241.1 40.11)"><tspan>RedBlackBottomUp</tspan></text><g fill="none" stroke="currentColor" stroke-linecap="round" stroke-linejoin="round" color="#000"><path stroke="#F44336" d="M205.6 37.51h29.9M28 158.63l.36.01h.36l.37.01.36.01h.36l.36.01h.36l.37.01h.36l.36.01h.36l.37.01h.72l.36.01h.36l.37.01h.36l.36.01h.72l.37.01h.36l.36.01h.72l.37.01h.72l.36.01h.73l.36.01h.72l.37.01h.72l.36.01h1.09l.36.01h.72l.37.01h1.08l.36.01.37 1.83h325.52"/><use xlink:href="#eef91__a" color="#F44336" transform="matrix(3.75 0 0 3.75 298.12 160.66)"/><use xlink:href="#eef91__a" color="#F44336" transform="matrix(3.75 0 0 3.75 220.55 37.51)"/></g><path fill="none" d="M28 60.01V162.5M371.99 60.01H28" color="#000"/></svg>