<svg xmlns="http://www.w3.org/2000/svg" xmlns:xlink="http://www.w3.org/1999/xlink" viewBox="0 0 400 200"><path fill="none" d="M0 0h400v200H0z"/><defs><use xlink:href="#81db0__a" id="81db0__e" fill="currentColor" stroke="none"/><use xlink:href="#81db0__b" id="81db0__g" stroke="currentColor" transform="rotate(180)"/><use xlink:href="#81db0__c" id="81db0__d" stroke="currentColor" transform="rotate(45)"/><use xlink:href="#81db0__d" id="81db0__f" fill="currentColor" stroke="none"/><path id="81db0__c" stroke="currentColor" stroke-width=".267" d="M-1-1h2v2h-2z"/><path id="81db0__b" stroke="currentColor" stroke-width=".267" d="m0-1.33-1.33 2h2.66z"/><circle id="81db0__a" cx="0" cy="0" r="1" stroke="currentColor" stroke-width=".267"/></defs><path fill="none" stroke="#CCC" stroke-linecap="round" stroke-linejoin="round" stroke-width=".1" d="M46.1 162.5V45.01" class="81db0__gridline" color="#000"/><g fill="none" stroke-linecap="round" stroke-linejoin="round" stroke-width="0" color="#000"><path d="M46.1 162.5V155m0-109.99v7.5"/><text fill="#000" font-family="KaTeX_Main" font-size="8" text-anchor="middle" transform="translate(46.1 172.6)"><tspan> 1</tspan></text></g><path fill="none" stroke="#CCC" stroke-linecap="round" stroke-linejoin="round" stroke-width=".1" d="M82.31 162.5V45.01" class="81db0__gridline" color="#000"/><g fill="none" stroke-linecap="round" stroke-linejoin="round" stroke-width="0" color="#000"><path d="M82.31 162.5V155m0-109.99v7.5"/><text fill="#000" font-family="KaTeX_Main" font-size="8" text-anchor="middle" transform="translate(82.31 172.6)"><tspan> 2</tspan></text></g><path fill="none" stroke="#CCC" stroke-linecap="round" stroke-linejoin="round" stroke-width=".1" d="M118.52 162.5V45.01" class="81db0__gridline" color="#000"/><g fill="none" stroke-linecap="round" stroke-linejoin="round" stroke-width="0" color="#000"><path d="M118.52 162.5V155m0-109.99v7.5"/><text fill="#000" font-family="KaTeX_Main" font-size="8" text-anchor="middle" transform="translate(118.52 172.6)"><tspan> 3</tspan></text></g><path fill="none" stroke="#CCC" stroke-linecap="round" stroke-linejoin="round" stroke-width=".1" d="M154.73 162.5V45.01" class="81db0__gridline" color="#000"/><g fill="none" stroke-linecap="round" stroke-linejoin="round" stroke-width="0" color="#000"><path d="M154.73 162.5V155m0-109.99v7.5"/><text fill="#000" font-family="KaTeX_Main" font-size="8" text-anchor="middle" transform="translate(154.73 172.6)"><tspan> 4</tspan></text></g><path fill="none" stroke="#CCC" stroke-linecap="round" stroke-linejoin="round" stroke-width=".1" d="M190.94 162.5V45.01" class="81db0__gridline" color="#000"/><g fill="none" stroke-linecap="round" stroke-linejoin="round" stroke-width="0" color="#000"><path d="M190.94 162.5V155m0-109.99v7.5"/><text fill="#000" font-family="KaTeX_Main" font-size="8" text-anchor="middle" transform="translate(190.94 172.6)"><tspan> 5</tspan></text></g><path fill="none" stroke="#CCC" stroke-linecap="round" stroke-linejoin="round" stroke-width=".1" d="M227.15 162.5V45.01" class="81db0__gridline" color="#000"/><g fill="none" stroke-linecap="round" stroke-linejoin="round" stroke-width="0" color="#000"><path d="M227.15 162.5V155m0-109.99v7.5"/><text fill="#000" font-family="KaTeX_Main" font-size="8" text-anchor="middle" transform="translate(227.15 172.6)"><tspan> 6</tspan></text></g><path fill="none" stroke="#CCC" stroke-linecap="round" stroke-linejoin="round" stroke-width=".1" d="M263.36 162.5V45.01" class="81db0__gridline" color="#000"/><g fill="none" stroke-linecap="round" stroke-linejoin="round" stroke-width="0" color="#000"><path d="M263.36 162.5V155m0-109.99v7.5"/><text fill="#000" font-family="KaTeX_Main" font-size="8" text-anchor="middle" transform="translate(263.36 172.6)"><tspan> 7</tspan></text></g><path fill="none" stroke="#CCC" stroke-linecap="round" stroke-linejoin="round" stroke-width=".1" d="M299.57 162.5V45.01" class="81db0__gridline" color="#000"/><g fill="none" stroke-linecap="round" stroke-linejoin="round" stroke-width="0" color="#000"><path d="M299.57 162.5V155m0-109.99v7.5"/><text fill="#000" font-family="KaTeX_Main" font-size="8" text-anchor="middle" transform="translate(299.57 172.6)"><tspan> 8</tspan></text></g><path fill="none" stroke="#CCC" stroke-linecap="round" stroke-linejoin="round" stroke-width=".1" d="M335.78 162.5V45.01" class="81db0__gridline" color="#000"/><g fill="none" stroke-linecap="round" stroke-linejoin="round" stroke-width="0" color="#000"><path d="M335.78 162.5V155m0-109.99v7.5"/><text fill="#000" font-family="KaTeX_Main" font-size="8" text-anchor="middle" transform="translate(335.78 172.6)"><tspan> 9</tspan></text></g><path fill="none" stroke="#CCC" stroke-linecap="round" stroke-linejoin="round" stroke-width=".1" d="M371.99 162.5V45.01" class="81db0__gridline" color="#000"/><g fill="none" stroke-linecap="round" stroke-linejoin="round" stroke-width="0" color="#000"><path d="M371.99 162.5V155m0-109.99v7.5"/><text fill="#000" font-family="KaTeX_Main" font-size="8" text-anchor="middle" transform="translate(371.99 172.6)"><tspan> 10</tspan></text></g><g fill="none" stroke-linecap="round" stroke-linejoin="round" stroke-width="0" color="#000"><path d="M371.99 162.5h-7.5"/><text fill="#000" font-family="KaTeX_Main" font-size="8" transform="translate(378.99 165.1)"><tspan>0.910</tspan></text></g><g fill="none" stroke-linecap="round" stroke-linejoin="round" stroke-width="0" color="#000"><path d="M371.99 149.45h-7.5"/><text fill="#000" font-family="KaTeX_Main" font-size="8" transform="translate(378.99 152.05)"><tspan>0.920</tspan></text></g><g fill="none" stroke-linecap="round" stroke-linejoin="round" stroke-width="0" color="#000"><path d="M371.99 136.39h-7.5"/><text fill="#000" font-family="KaTeX_Main" font-size="8" transform="translate(378.99 138.99)"><tspan>0.930</tspan></text></g><g fill="none" stroke-linecap="round" stroke-linejoin="round" stroke-width="0" color="#000"><path d="M371.99 123.34h-7.5"/><text fill="#000" font-family="KaTeX_Main" font-size="8" transform="translate(378.99 125.94)"><tspan>0.940</tspan></text></g><g fill="none" stroke-linecap="round" stroke-linejoin="round" stroke-width="0" color="#000"><path d="M371.99 110.28h-7.5"/><text fill="#000" font-family="KaTeX_Main" font-size="8" transform="translate(378.99 112.88)"><tspan>0.950</tspan></text></g><g fill="none" stroke-linecap="round" stroke-linejoin="round" stroke-width="0" color="#000"><path d="M371.99 97.23h-7.5"/><text fill="#000" font-family="KaTeX_Main" font-size="8" transform="translate(378.99 99.83)"><tspan>0.960</tspan></text></g><g fill="none" stroke-linecap="round" stroke-linejoin="round" stroke-width="0" color="#000"><path d="M371.99 84.17h-7.5"/><text fill="#000" font-family="KaTeX_Main" font-size="8" transform="translate(378.99 86.77)"><tspan>0.970</tspan></text></g><g fill="none" stroke-linecap="round" stroke-linejoin="round" stroke-width="0" color="#000"><path d="M371.99 71.12h-7.5"/><text fill="#000" font-family="KaTeX_Main" font-size="8" transform="translate(378.99 73.72)"><tspan>0.980</tspan></text></g><g fill="none" stroke-linecap="round" stroke-linejoin="round" stroke-width="0" color="#000"><path d="M371.99 58.06h-7.5"/><text fill="#000" font-family="KaTeX_Main" font-size="8" transform="translate(378.99 60.66)"><tspan>0.990</tspan></text></g><g fill="none" stroke-linecap="round" stroke-linejoin="round" stroke-width="0" color="#000"><path d="M371.99 45.01h-7.5"/><text fill="#000" font-family="KaTeX_Main" font-size="8" transform="translate(378.99 47.61)"><tspan>1.000</tspan></text></g><path fill="none" d="M28 45.01V162.5M371.99 45.01H28" color="#000"/><text stroke-linecap="round" stroke-linejoin="round" stroke-width="0" color="#000" font-family="KaTeX_Main" font-size="10" text-anchor="middle" transform="rotate(-90 57.63 46.13)"><tspan font-weight="bold">Average Path Length </tspan><tspan> / log</tspan><tspan dy="3" font-size="8">2</tspan><tspan dy="-3">(Size)</tspan></text><text stroke-linecap="round" stroke-linejoin="round" stroke-width="0" color="#000" font-family="KaTeX_Main" font-size="10" text-anchor="middle" transform="translate(199.99 195.75)"><tspan>Operations / 10</tspan><tspan dy="-5" font-size="8">6</tspan></text><text stroke-linecap="round" stroke-linejoin="round" color="#000" font-family="KaTeX_Main" font-size="8" transform="translate(76.8 10.11)"><tspan>AVLRelaxedBottomUp</tspan></text><g fill="none" stroke="currentColor" stroke-linecap="round" stroke-linejoin="round" color="#000"><path stroke="#D336C8" d="M41.3 7.51h29.9M28 158.21l.36-.48.36 1.51.37.21.36.3.36-.78.36-.74.36-.54.37-.56.36-.4.36-.4.36-.71.37.35.36 1.08.36-.49.36-.38.36-.46.37-.43.36-.23.36-.23.36-.49.36-.64.37-.78.36-.58.36.33.36-.51.36-.32.37-.46.36-.42.36-.49.36-.29.36-.53.37.32.36-.53.36-.42.36-.51.37-.42.36-.45.36-.46.36 1.18.36-.18.37.68.36 2.67.36-.25.36-.02.36.23.37-.24.36-.24.36-.27.36-.33.36-.27.37 1.51.36-.19.36-.26.36-.24.37-.44.36-.15.36-.06.36-.2.36-.49.37-.28.36-.62.36-.69.36.16.36 2.85.37-.51.36-.63.36-.34.36-.77.36-.19.37 1.29.36-.7.36-.54.36-.58.37-.61.36-.35.36-.88.36 2.51.36-.51.37-.61.36-.33.36-.5.36-.62.36-.09.37-.6.36-.22.36-.76.36-.55.36-.06.37-.88.36.22.36-.7.36-.63.36-.74.37-.79.36-.46.36-.49.36-.78.37-.86.36-.76.36-.71.36-1.1.36 1.66.37 2.75.36-.56.36-.4.36-.62.36-.16.37.14.36-.36.36-.65.36-.76.36.24.37-.63.36-.58.36-.73.36.16.37-.79.36-.59.36-.37.36-.85.36 4.77.37-.73.36-.23.36-.76.36-.74.36-.74.37.25.36.01.36 1.26.36-.65.36-.62.37-.52.36-.76.36-.22.36-.68.36-.44.37-.3.36-.88.36-.66.36-.46.37-.78.36-.02.36-.97.36-.82.36 3.65.37-.34.36-.46.36-.64.36-.09.36-.68.37-.33.36-.64.36-.75.36-.75.36 12.42.37-.29.36-.37.36-.65.36 5.27.37-.33.36-.58.36-.15.36-.33.36-.48.37-.32.36-.74.36-.69.36 4.94.36-.46.37-.26.36-.59.36-.48.36-.33.36-.76.37.16.36-.66.36-.66.36-.08.36-.76.37-.68.36-.83.36 1.01.36-.41.37 1.83.36-.24.36-.47.36-.57.36-.32.37-.39.36-.52.36-.81.36-.28.36-.46.37-.71.36.31.36-.67.36-.65.36.36.37-.62.36-.59.36-.32.36-.47.37 4.76.36-.78.36-.41.36-.82.36-.36.37 2.77.36-.52.36-.25.36-.54.36-.62.37-.8.36-.45.36 2.84.36-.48.36-.66.37-.07.36-.63.36-.66.36.1.37-.74.36-.11.36-.58.36-.66.36-.8.37-.36.36-.89.36-.61.36-.14.36-.75.37-.71.36-.74.36.79.36-.79.36-.71.37 1.69.36-.78.36-.8.36-.77.36-.35.37-.8.36.63.36-.69.36-.81.37-.65.36-.02.36-.58.36-.4.36-.24.37-.83.36-.8.36-1.06.36-.29.36-.89.37-.42.36 1.13.36-1.01.36-.75.36 12.15.37-.55.36-.27.36-.47.36-.51.37-.57.36-.84.36 7.61.36 4.53.36-.37.37-.28.36-.57.36-.62.36.5.36-.58.37-.47.36-.76.36-.43.36.41.36-.55.37-.16.36-.57.36 1.83.36-.53.36-.57.37-.74.36.87.36-.62.36-.16.37-.04.36-.43.36-.58.36-.62.36-.38.37-.8.36-.82.36 1.01.36-.64.36-.78.37-.46.36.17.36-.7.36-.76.36-.3.37-.15.36-.86.36-.31.36-.73.37.29.36.03.36-.76.36-.87.36-.86.37 2.73.36-.67.36-.4.36-.47.36-.73.37-.4.36-.33.36-.81.36-.88.36 2 .37-.75.36-.59.36-.66.36-.01.36-.31.37-.85.36-.3.36-.9.36-.72.37-.32.36-.86.36-.88.36-1.06.36-.6.37-1.01.36-.65.36.84.36-.78.36-.66.37.98.36-.67.36-.88.36-.7.36 12.2.37-.64.36-.49.36-.39.36-.68.37-.23.36.06.36-.45.36-.59.36-.66.37-.7.36.07.36-.27.36-.32.36-.65.37-.9.36-.78.36 1.67.36-.67.36 12.42.37-.11.36-.41.36-.28.36-.36.37-.48.36-.69.36 1.64.36-.4.36-.44.37-.12.36-.59.36-.49.36.35.36-.58.37-.38.36-.51.36-.49.36-.72.36.4.37-.25.36-.6.36-.57.36-.58.36-.73.37-.4.36.93.36-.58.36-.66.37-.74.36 1.2.36 3.82.36.27.36-.04.37-.22.36-.51.36-.47.36-.7.36-.14.37.22.36-.54.36-.5.36-.58.36-.5.37-.62.36-.83.36.14.36-.39.37-.71.36-.53.36-.83.36 1.72.36-.94.37 2.86.36-.57.36-.73.36 2.24.36-.2.37-.69.36-.34.36-.33.36-.73.36-.38.37-.69.36-.74.36-.42.36.23.36-.47.37-.75.36-.42.36-.78.36-.84.37-.45.36-.87.36.93.36-.52.36-.85.37-.06.36-.92.36.94.36-.75.36-.85.37-.25.36-.77.36-.87.36-.39.36-.77.37-.83.36-1.06.36 8.49.36-.88.37-.64.36-.16.36-.64.36-.78.36-.86.37-.57.36-.92.36-.67.36-.51.36-.99.37-.17.36-.82.36 12.44.36-.5.36 12.56.37-.33.36-.22.36-.22.36-.12.37-.41.36-.13.36-.42.36.25.36.44.37-.34.36-.32.36-.67.36.31.36-.51.37-.4.36-.56.36 1.48.36-.5.36-.76.37.14.36-.63.36-.52.36-.51.36-.85.37-.73.36 3.98.36-.41.36-.38.37-.46.36-.42.36-.39.36-.74.36.2.37.15.36-.55.36-.55.36-.42.36-.65.37.05.36 1.14.36-.68.36-.24.36-.26.37-.56.36-.81.36-.19.36-.71.37-.77.36-.38.36-.77.36-1.02.36 3.92.37-.64.36-.39.36-.78.36-.52.36-.75.37-.04.36-.34.36-.66.36-.67.36.1.37-.71.36-.64.36.09.36-.59.36-.55.37-.53.36-.55.36-.71.36-.84.37 2.01.36-.59.36-.53.36-.52.36-.74.37-.47.36 3.33.36 1.26.36-.6.36-.17.37-.43.36 5.73.36-.69.36-.46.36-.05.37-.65.36-.48.36-.61.36-.74.37-.58.36.19.36-.45.36-.77.36-.65.37-.86.36.17.36-.46.36-.62.36-.85.37-.99.36.02.36-.83.36-1.05.36 12.37.37-.46.36-.1.36-.2.36-.45.36-.6.37-.23.36 4.01.36-.33.36-.3.37-.26.36-.54.36-.69.36.6.36-.36.37-.5.36-.34.36-.57.36-.56.36.46.37-.4.36 2.84.36-.66.36 2.64.36-.37.37-.65.36 1.13.36-.39.36-.26.37-.39.36-.48.36-.63.36.56.36-.02.37-.29.36-.52.36-.45.36-.42.36-.76.37.09.36-.72.36-.13.36-.48.36-.79.37-.38.36-.9.36.03.36-.62.37-.83.36-.62.36 1.35.36-.76.36 2.63.37-.52.36-.6.36-.35.36-.51.36-.58.37-.81.36-.29.36 1.33.36-.52.36-.16.37-.71.36-.34.36.26.36-.6.36-.72.37-.24.36-.35.36-.71.36-.44.37-.36.36-.64.36-.65.36-.75.36 1.25.37 1.57.36 1.06.36-.53.36-.61.36-.53.37-.58.36-.31.36-.7.36-.26.36-.6.37-.66.36-.7.36-.76.36-.05.37-.89.36.16.36-.41.36-.83.36-.3.37-.82.36-.87.36-.33.36-.94.36-.78.37.47.36-.09.36-.91.36-.97.36 13.83.37-.54.36-.53.36-.46.36-.57.36-.68.37.05.36-.69.36-.66.36-.61.37-.52.36-.89.36 12.46.36.45.36-.34.37-.25.36-.45.36-.59.36-.16.36-.11.37-.62.36-.36.36-.74.36-.46.36 1.05.37-.88.36 2.38.36-.31.36-.62.37-.44.36 8.76.36-.59.36-.26.36-.27.37-.67.36-.65.36-1.08.36-.45.36-.77.37.02.36-.82.36 1.11.36-.47.36-.22.37-.72.36-.88.36-.32.36-.57.36-.87.37-.65.36-.82.36-1.08.36 3.74.37-.79.36-.66.36-.42.36-.44.36-.76.37-.79.36-.3.36-.89.36-.27.36-.24.37-.83.36-.75.36.11.36-.82.36-.78.37-.34.36-.94.36 2.19.36-.5.37.36.36-.42.36-.64.36-.58.36-.79.37-.45.36.95.36-.64.36-.73.36-.66.37-.59.36-.68.36-.45.36-.07.36-.54.37-.86.36-.56.36-.84.36-1 .37.14.36.66.36.73.36-.79.36-.57.37 4.34.36-.85.36-.24.36-.95.36-.42.37-.61.36-1.01.36-.58.36-1.09.36 12.55.37-.2.36-.87.36.35.36-.55.36-1.79.37-.3.36-.69.36-.31.36-.56.37-.91.36-.18.36-.99.36.22.36-.78.37 12.19.36-.42.36-.35.36-.34.36-.29.37-.63.36-.46.36-.62.36-.61.36-.67.37.08.36.99.36-.42.36-.57.37-.32.36-.59.36-.2.36-.33.36-.73.37-.62.36-.8.36 3.97.36-.69.36-.74.37.13.36-.67.36-.84.36 1.24.36-.68.37-.5.36-.43.36-.29.36-.18.36-.74.37-.55.36-.88.36-.53.36 2.74.37-.66.36.24.36-.5.36-.65.36-.75.37.16.36-.68.36-.73.36-.86.36-.23.37-.8.36-.78.36.07.36-.82.36-.33.37-.72.36 3.89.36-.59.36-.8.37-.2.36-.54.36-.57.36-.61.36-.9.37-.08.36.82.36.29.36-.53.36-.42.37-.73.36-.55.36-.81.36-.45.36.47.37-.79.36-.51.36-.89.36-.64.36 3.07.37-.79.36-.75.36 2.13.36-.42.37-.68.36-.17.36-.35.36-.69.36-.55.37-.57.36-.92.36-.76.36 12.12.36.49.37 3.19.36-.15.36-.02.36-.42.36-.48.37.25.36-.51.36-.39.36-.24.37-.51.36-.5.36 1.59.36-.39.36-.44.37-.49.36.14.36-.58.36-.28.36-.2.37-.69.36-.38.36-.59.36-.61.36-.75.37-.17.36 1.42.36 1.21.36-.43.37-.44.36-.7.36-.27.36-.36.36-.61.37-.77.36-.01.36 4.18.36-.55.36-.71.37.35.36-.55.36-.53.36-.58.36-.34.37-.51.36-.43.36-.55.36-.61.36-.86.37.04.36 1.24.36-.74.36 2.77.37-.28.36-.59.36-.54.36-.08.36-.66.37-.27.36-.63.36-.45"/><use xlink:href="#81db0__b" color="#D336C8" transform="matrix(3.75 0 0 3.75 354.25 107.89)"/><use xlink:href="#81db0__b" color="#D336C8" transform="matrix(3.75 0 0 3.75 56.25 7.51)"/></g><text stroke-linecap="round" stroke-linejoin="round" color="#000" font-family="KaTeX_Main" font-size="8" transform="translate(76.8 25.11)"><tspan>RedBlackRelaxedTopDown</tspan></text><g fill="none" stroke="currentColor" stroke-linecap="round" stroke-linejoin="round" color="#000"><path stroke="violet" stroke-dasharray="4.0,2.0,1.0,2.0" d="M41.3 22.51h29.9M28 152.37l.36-1.54.36-2.4.37 6.52.36-1.66.36-.99.36-.76.36 3.23.37-1.18.36-.38.36 1.87.36-1.05.37-1.14.36-.98.36-.5.36-1.46.36.96.37-.2.36-1.08.36-.94.36-1.61.36-1.04.37-1.82.36 2.56.36-1.62.36 3.97.36-.94.37-1.4.36.54.36 3.59.36-1.01.36-.2.37-.85.36.07.36-1.05.36-1.05.37 2.8.36-.69.36-.99.36-.74.36.83.37-.72.36.8.36-.82.36-.54.36-1.03.37-.49.36-1.05.36-.45.36-.23.36-.84.37-.93.36-.91.36-1.12.36-.17.37-.81.36-1.2.36-.65.36-1.22.36-1.22.37 6.96.36-1.04.36 9.15.36-.76.36.14.37-.52.36.48.36-.24.36-.86.36-.93.37 1.3.36-.81.36-.89.36.08.37-.79.36-.99.36-.8.36.86.36.13.37-.64.36-.4.36-.4.36-.74.36-.54.37-.91.36-1.09.36 1.18.36-.47.36-.92.37-1.27.36.09.36-.97.36-1.28.36 2.58.37.92.36-.92.36-.41.36-1.04.37-.94.36-.99.36.03.36-1.13.36-.35.37 2.53.36-.97.36-.26.36-.35.36-1.09.37-.89.36-.78.36-.18.36-.77.36-1.24.37 2.49.36-.68.36-1.24.36-.16.37-1.33.36 1.17.36-.64.36-1.09.36-1.04.37-1.05.36-.82.36-.93.36-1.49.36 4.09.37-1.17.36-.89.36.56.36-1.01.36-.2.37-.71.36-1.15.36-.61.36-1.41.36-.68.37-1.37.36-.86.36.45.36 5.98.37-1.08.36.67.36-1.06.36 11.93.36-.5.37-.65.36-.94.36-1.03.36-.3.36-.88.37-.85.36-.23.36-1.07.36-1.17.36 12.09.37-1.05.36.91.36-.26.36-.18.37-.89.36-1 .36-.15.36-1.07.36-1.1.37 6.79.36-.39.36-.78.36-.07.36-.64.37-.93.36-1.06.36-.59.36 1.81.36-1.01.37-.34.36-.9.36-.79.36-.17.36-1.08.37-.72.36-.72.36.77.36-.67.37-1.02.36-.49.36-1.01.36-1.33.36.25.37 10.1.36-.84.36.99.36-.89.36-.68.37-1.16.36.5.36-.96.36-.67.36-.55.37-.85.36-1.14.36-.55.36-1.12.37 2.92.36-.47.36.12.36-.98.36-.97.37 2.51.36-.71.36-1.18.36-.07.36-1.19.37-.59.36-.72.36-.95.36-1.24.36-1.21.37 3.38.36-.99.36 1.58.36 1.82.37-.72.36-.88.36-.53.36-.94.36-.68.37-.57.36-.97.36-.71.36-1.2.36-.14.37-1.11.36-1.21.36 2.45.36-1.09.36-1.03.37.29.36-.97.36-1.05.36-1.16.36-.68.37-.84.36-1.4.36.55.36-.75.37-1.22.36-.39.36-1.36.36-1.16.36-.05.37-1.34.36-1.39.36 2.41.36.12.36-1.2.37-1.44.36-.26.36-.93.36-1.32.36 11.74.37-.72.36-.99.36-.7.36-1.27.37-1.12.36 11.55.36-.47.36-1.05.36-.31.37 6.83.36-.82.36-.81.36.14.36-.45.37-.79.36-.69.36-.33.36-.76.36-1.09.37-.58.36-.95.36-.18.36-.15.36-1.13.37.94.36.88.36-.83.36-.77.37-1.25.36.02.36-1.01.36-.82.36-.72.37 10.15.36-.95.36.84.36-1.04.36 1.05.37-.94.36-.15.36.06.36-.89.36-.45.37-.93.36-1.03.36-.22.36-1.18.37-1.16.36.09.36-1.02.36-1.16.36-1.31.37 2.36.36-.04.36-1.31.36 10.58.36-.9.37-.69.36-.59.36-.91.36-1.04.36 3.25.37-.93.36-.52.36-1.1.36.25.36-.95.37-.98.36-.61.36 3.06.36-.9.37.31.36-1 .36-.72.36-.37.36-.37.37-.62.36-1.11.36.77.36-.56.36-.97.37-.58.36-1.15.36-1.01.36.46.36-1.09.37-1.11.36.48.36 1.01.36-.91.37-1.17.36-.09.36-.7.36-1.07.36-.73.37-.84.36-1.06.36-1.24.36-.89.36-1.22.37.42.36-.33.36-1.18.36-.53.36 12.13.37-1.05.36-.09.36-.49.36-.7.37-1.05.36-1.36.36-.05.36-1.03.36-1.33.37 6.47.36-.89.36-.13.36-.1.36-1.07.37 2.92.36-.27.36-.9.36-.95.36-1.06.37-.13.36-.98.36-1.25.36 2.78.36-.95.37-.94.36.59.36-.92.36 12.16.37-1.47.36-.63.36.11.36-.81.36-.36.37-.82.36-.95.36 1.2.36-.91.36-.93.37.27.36-.82.36-.92.36-1.24.36-.37.37-.17.36-1.19.36-.7.36.8.37-.86.36-.2.36-1.12.36-.99.36-.76.37 2.46.36-1.04.36-.75.36-.34.36-1.17.37-1.31.36-.62.36 1.15.36-1.14.36 3.2.37-.97.36-.76.36-1.06.36-.04.36-1.08.37-.77.36-.7.36-.8.36-1.23.37-.6.36-1.37.36-1.2.36-.53.36.3.37-1.26.36 9.78.36.9.36-.62.36-1.11.37-.39.36-1.21.36-.52.36-.76.36-.64.37-1.21.36.53.36-.98.36-.99.37-1.23.36 3.96.36-.95.36-.25.36-.58.37-.86.36-1.09.36-.54.36-1.25.36-.72.37-1.47.36.21.36-1.26.36-1.23.36 11.99.37-.86.36-1.11.36.35.36-1.14.37.84.36-.62.36-.84.36-1.12.36-1.09.37 7.06.36-.77.36-1.06.36.33.36-.88.37-.83.36-.65.36-1.03.36.86.36-.94.37-.67.36-.18.36-1.03.36-.11.36-1.1.37-1.02.36.96.36 18.37.36-.96h.37l.36-.85.36-.94.36-1.25.36-.45.37-.2.36-1.18.36.69.36 2.85.36-.67.37-.04.36-.96.36-.83.36-.44.36-.78.37-1.09.36-.84.36-.56.36-1.03.37-1.37.36.04.36 11.83.36-.84.36 2.47.37.15.36-.62.36-.97.36-.28.36-.74.37-.73.36-.45.36-1.01.36-.63.36 2.62.37-1 .36-.83.36-.18.36-.06.36-.99.37 1.1.36-.3.36-.63.36-1.07.37-.37.36-1.15.36-.55.36-.27.36-.7.37-1.07.36-.93.36.6.36-.95.36-1.3.37 1.3.36-1.05.36-.35.36-.68.36-1 .37-1.19.36.67.36-1.22.36-.72.37-1.42.36.22.36-1.21.36-1.19.36-.87.37-1.19.36-1.48.36-.04.36-1.48.36 9.87.37-.53.36-.72.36-1.2.36-1.15.36 15.15.37-.36.36-1.04.36-.01.36-1.04.36-.76.37-.64.36-.92.36-1.14.36 2.79.37 6.99.36.27.36-.83.36.43.36-.77.37-.56.36-.43.36-.4.36-.92h.36l.37-.97.36-.71.36-1.28.36.16.36-1.07.37-.15.36.68.36.97.36-.78.37-.27.36-1.07.36-.79.36-1.12.36.16.37-1.1.36-.76.36.71.36-.66.36-1.31.37-.04.36.79.36-.9.36-.63.36-.16.37-.87.36-1.21.36-.57.36-1.03.37-.97.36-.24.36-1.24.36-.83.36 2.31.37-1.09.36-.99.36-.6.36-.34.36-1.1.37-1.39.36 3.33.36-.69.36-1.18.36 2.44.37-.92.36-.63.36-.12.36-1.05.36-.62.37-.71.36-.89.36-1.16.36-1.19.37 12.27.36-.93.36-1.04.36.82.36-.85.37-.9.36.64.36-.83.36-.07.36-1.1.37-.49.36-.55.36-1.04.36-.61.36-1.3.37-.97.36 1.38.36-1.06.36.76.37-.99.36.04.36-1.03.36-1.08.36-.69.37-.64.36-1.33.36-.36.36-1.31.36-1.06.37-.33.36-1.15.36-1.37.36.47.36 12.23.37-.07.36-1.08.36-.29.36-1.06.36-.93.37-.76.36-.77.36-1.23.36 6.73.37-.94.36-.76.36-1.21.36.1.36-1.04.37-.24.36-.63.36 21.75.36-.56.36-.07.37-.81.36-.57.36-.23.36-.12.36-.88.37-.58.36.9.36-.51.36-1.04.37-.29.36-1.07.36 3.23.36-.53.36-.02.37-.87.36-.8.36.96.36-.59.36-1.08.37.49.36-.84.36-.57.36-.38.36-1.01.37-.99.36-.73.36.18.36-.99.36-1.24.37 1.7.36-.74.36-1.08.36 2.46.37-.78.36-.51.36-.46.36-1.02.36-.62.37-1.12.36-.44.36-1.14.36-1.19.36 4.28.37-.91.36-1.03.36.75.36-.85.36-.95.37-.61.36-.83.36-.72.36-1.27.37-.68.36-.78.36-1.22.36-.35.36-1.37.37-1.11.36 1.26.36-1.31.36-1.11.36 3.01.37-.74.36-1.08.36-1.31.36-.62.36-.77.37-1.34.36.46.36-.86.36-1.04.37-.4.36-1.34.36-1.13.36 11.77.36-.56.37-1.12.36-.3.36-.49.36 1.86.36-1.01.37-.36.36-.73.36-1.22.36-.87.36 12.14.37-.75.36-1.18.36-.39.36-1.1.36-.24.37-.68.36.64.36-1.04.36 6.73.37-.88.36-.68.36-.96.36.41.36-.95.37-.68.36-.54.36-.81.36-1.12.36-.53.37-1.25.36 1.67.36-.18.36-.13.36-.83.37-.97.36.83.36-.74.36-1.19.37-.12.36-1.46.36-.62.36-.76.36-.98.37-1.29.36.4.36-1.06.36-.17.36-1.41.37 10.99.36-.84.36-.82.36-.63.36-.93.37-1.12.36-.2.36-1.21.36-.76.36-1.44.37 20.29.36-1.07.36-1.05.36 2.4.37 3.24.36-.88.36.46.36-.88.36-.64.37-.56.36-.81.36-1.07.36-.7.36 2.56.37-.44.36-1.11.36.15.36-1.14.36-.76.37-.74.36-.09.36-1.12.36.87.37-.66.36-.79.36-1.27.36.32.36-.71.37-1.07.36.6.36-.77.36-.89.36-.68.37-1.21.36-1.07.36.45.36-.6.36-.96.37-.43.36.81.36-1.15.36-1.05.36-.22.37-.8.36-1.15.36-1.02.36-.64.37-1.13.36-1.44.36-.96.36-1.21.36-.71.37-.47.36-1.54.36 2.57.36 11.97.36-.98.37-1.07.36-1.19.36-.17.36-1.12.36.57.37-.27.36-1.05.36-1.19.36 6.35.37-.92.36 12.09.36.16.36-.77.36.17.37-.74.36-.22.36-.79.36-.87.36.34.37-.97.36-.89.36.27.36-.85.36-.93.37-1.06.36.87.36-.11.36-1.05.37-.57.36 1.06.36-.9.36-.52.36-.9.37-1.09.36 1.04.36-1.07.36-.66.36-1.29.37.08.36-.87.36-1.07.36-.73.36.88.37-1.14.36.15.36-1.13.36-.94.36-.58.37-.79.36-1.25.36-.93.36 2.33.37-.68.36-1.29.36-.5.36-1.36.36-1.09.37-.95.36-.35.36-1.35"/><use xlink:href="#81db0__e" color="violet" transform="matrix(3.75 0 0 3.75 67.83 132.31)"/><use xlink:href="#81db0__e" color="violet" transform="matrix(3.75 0 0 3.75 56.25 22.51)"/></g><text stroke-linecap="round" stroke-linejoin="round" color="#000" font-family="KaTeX_Main" font-size="8" transform="translate(241.1 10.11)"><tspan>LBSTRelaxed</tspan></text><g fill="none" stroke="currentColor" stroke-linecap="round" stroke-linejoin="round" color="#000"><path stroke="#FFAB00" stroke-dasharray="4.0,2.0,1.0,2.0" d="M205.6 7.51h29.9M28 75.99l.36-3.07.36-3.83.37 5.15.36-2.93.36-2.55.36-3.35.36-2.58.37-2.33.36 20.41.36-2.04.36-2.42.37 1.19.36-1.91.36-1.63.36-2.22.36-1.22.37-2.25.36-2.17.36-2.26.36 3.18.36 4.4.37 20.18.36-1.15.36 21.3.36-.38.36-1.57.37-1.42.36-1.8.36.5.36-1.58.36-1.52.37-1.52.36-1.94.36 11.21.36-1.26.37-1.13.36-1.52.36 3.41.36-1.05.36-1.13.37-1.07.36-.92.36-.72.36-1.31.36-1.44.37-1.62.36.56.36-1.33.36-1.16.36-1.63.37-.5.36-1.04.36-.48.36-.97.37-.7.36-1.03.36-1.24.36-.93.36-.93.37 3.91.36 3.28.36-.87.36-.96.36-1.03.37-.64.36-.88.36-1.1.36 1.25.36 2.88.37-.22.36-.72.36-.58.36-.48.37-.94.36-1.11.36-.65.36-.59.36.6.37-.89.36-.78.36-.89.36-.66.36-.56.37-1.09.36 1.19.36-.67.36 20.95.36-.51.37-.54.36-.57.36-.06.36-.76.36-.87.37-.37.36.36.36.78.36-.65.37-.76.36-.67.36-.3.36-.93.36-.97.37.2.36-.7.36.64.36-.79.36-.72.37-.87.36-1.2.36-.67.36-1.26.36.23.37-.42.36-.54.36-1.08.36 4.45.37 4.56.36-.52.36-.46.36-.3.36-.09.37-.31.36-.42.36-.45.36-.39.36-.8.37-.83.36-.82.36.51.36-.1.36-.46.37-.36.36-.8.36-.34.36-.72.36-.83.37-1.02.36-.57.36-.76.36-.81.37-1.31.36.79h.36l.36 1.1.36.09.37-.86.36-.61.36-.45.36-.98.36-1.19.37-.16.36-.81.36-.47.36-1.12.36-.08.37-1.25.36-.34.36-.78.36-.78.37-.66.36-.75.36-.29.36 4.23.36-.28.37 4.81.36-.35.36-.63.36.32.36-.61.37-.69.36-.24.36-.2.36-.58.36-.79.37-.87.36.01.36-.14.36-1.04.36.71.37-.77.36-.73.36-.76.36-.4.37-.98.36-.19.36-.85.36-.79.36-.67.37.53.36-.77.36.13.36.88.36.34.37-.56.36-.78.36-.62.36-.6.36-.56.37-.42.36-.86.36 28.26.36-.13.37-.66.36-.98.36-.17.36-.85.36-.11.37-.42.36-.99.36-.12.36 4.55.36-.62.37 4.67.36-.52.36-.73.36.44.36-.39.37-.43.36-.08.36-.3.36-.54.37-.63.36-.9.36.57.36-.71.36-.98.37.4.36-.49.36-.54.36-.72.36-.28.37-.93.36-.48.36-.84.36.5.36-.71.37.66.36.15.36-.98.36.62.36.76.37-.82.36-.98.36-.43.36-.72.37-.39.36-.77.36-1.1.36-.84.36-.02.37-1.14.36-.88.36-1.35h.36l.36-.27.37-1.22.36-.78.36 4.5.36-.74.36-.42.37 4.32.36-.75.36.1.36-.51.37-.63.36-.59.36-.31.36-.28.36-.67.37-.73.36-.3.36-.52.36-.42.36-1 .37.13.36-.09.36-.73.36-1.01.36-.24.37-.63.36-1 .36-.88.36-1.02.36.82.37-.94.36.35.36-1.06.36 1.23.37.24.36-.98.36-.64.36-.49.36-.3.37-.75.36-.67.36-1.17.36-1.1.36.4.37-.81.36-.94.36-1.32.36.81.36-.85.37-.62.36-1.19.36 4.94.36-.72.37-.49.36 4.35.36-.67.36.37.36-.39.37-.29.36-.64h.36l.36-.47.36-.44.37-.81.36-.1h.36l.36-.52.36 26.76.37.81.36-.26.36-.69.36-.5.36-.93.37.29.36-.67.36-.88.36-.89.37 1.27.36.26.36-.73.36-.94.36 1.5h.37l.36-.63.36-.74.36-.43.36.04.37-.96.36-.67.36-1.12.36-.24.36-.35.37-.78.36-1.09.36-1.26.36.73.37-1.24.36-.35.36 3.6.36.09.36-.71.37-.59.36 4.23.36.17.36-.54.36-.71.37-.34.36-.73.36-.1.36-.67.36-.57.37-1 .36.54.36-.82.36-.63.37-1.1.36.89.36-.88.36-.73.36-.93.37-.73.36-.24.36-1.03.36-1.03.36-1.1.37 1.16.36.19.36-.86.36-.62.36-.77.37 1.56.36-.68.36-.92.36-.16.36-.6.37-.95.36-.74.36-1.26.36-.18.37-.52.36-.73.36-1.18.36-.23.36-.22.37-.83.36-.89.36 3.81.36.12.36-.71.37-.91.36 4.56.36.41.36-.58.36-.23.37-.58.36-.46.36-.25.36-.8.37-.54.36.11.36.15.36-.74.36-.69.37-.39.36.15.36-.34.36-.61.36-.69.37-.63.36-.22.36-.63.36-1 .36.9.37.58.36-.74.36-.83.36-.41.36-.85.37 2.03.36-.81.36-.68.36.22.37-.59.36 30.11.36-.89.36.13.36-.97.37-.15.36-.85.36-1.07.36.03.36-.12.37-.63.36-.78.36 4.28.36.09.36-.71.37-.89.36-.11.36 5.12.36-.46.37-.21.36-.49.36-.37.36-.39.36-.67.37-.58.36.76.36-.48.36-.73.36-.76.37-.21.36-.01.36-.59.36-.56.36-.77.37-.66.36-.22.36-.96.36-.98.37.91.36.55.36-.78.36-.47.36-.84.37-1.05.36 1.03.36.02.36-.98.36-.33.37-.17.36-.88.36-1.07.36-.04.36-1.15.37-.27.36-1.05.36-.64.36-.6.36-.29.37-.83.36 3.96.36-.65.36-.09.37-.64.36-1.09.36.39.36 4.6.36-.36.37-.46.36-.45.36-.74.36-.41.36-.71.37.16.36.19.36-.59.36-.82.36-.31.37-.65.36-.92.36.31.36-.65.37 15.1.36-.84.36.02.36-.84.36.93.37-.88.36.82.36-.69.36-.32.36-.64.37-.83.36.93.36.09.36-.31.36-.71.37-.19.36-.83.36.28.36-.65.36-.89.37-.36.36-1.11.36-.01.36-1.18.37.01.36-.95.36 4.3.36-.65.36-.96.37-.06.36-1.14.36.54.36 4.34.36-.28.37-.51.36-.66.36-.62.36-.81.36-.42.37.76.36-.49.36-.6.36-.96.37-.3.36-.81.36-.99.36.46.36-.83.37-.52.36-1.01.36-.43.36-1.09.36.63.37.37.36-.95.36-.75.36-.33.36-.86.37-1.08.36.68.36-.09.36-.23.36-1.1.37-.51.36-.85.36-.03.36-1.04.37-.89.36-.74.36-.74.36-.47.36-1.2.37.01.36 3.86.36-.52.36-.73.36-.9.37-.18.36-.11.36-.45.36 4.29.36-.32.37-.6.36-.55.36-.62.36-.86.37.34.36.04.36-.31.36-.61.36-.93h.37l.36-.81.36-.98.36.46.36-.39.37-.78.36-.83.36-.43.36.58.36-.74.37.31.36-.69.36.01.36-.74.37-.89.36-.8.36.8.36.47.36-.55.37-.93.36-.49.36-.77h.36l.36-.46.37-.99.36 29.78.36.24.36-.96.36-.55.37-1.15.36 5.14.36-.45.36-.73.36-.86.37-.09.36.13.36-.4.36 4.45.37-.49.36-.43.36-.51.36-.51.36-.89.37.34.36.3.36-.47.36-.59.36-.41.37-.62.36-.65.36-.77.36.27.36-.4.37-.68.36-1.01.36-1.2.36 1.62.37.32.36-.84.36-.79.36.22.36-.94.37-.73.36-.95.36.69.36.67.36-.91.37-.82.36-.5.36.15.36-.97.36-.52.37-1.1.36-1.2.36.58.36-1.06.36-.57.37 3.63.36.28.36-.72.36-.5.37-.95.36.77.36-.71.36-.61.36 4.55.37-.43.36-.41.36-.67.36-.4.36-1.01.37 1.17.36-.35.36-.37.36-.73.36.04.37-.74.36-.6.36-.83.36.66.37-.65.36-.81.36-.91.36-1.09.36 1.72.37.42.36-.74.36-.25.36-.22.36-.9.37-.58.36-.93.36-.52.36 1.85.36-.78.37-.77.36-.55.36.28.36-.91.36-.38.37-1.08.36-.09.36-.33.36-.55.37-.95.36 3.76.36.33.36-.6.36-.58.37-.81.36.95.36-.71.36-.29.36 4.47.37-.28.36-.59.36-.52.36-.51.36-.05.37.58.36-.56.36-.44.36-.03.37-.33.36-.69.36-.41.36-.85.36.26.37-.48.36-.49.36-.83.36.78.36 1.13.37-.69.36-.82.36 19.85.36-.12.36-.67.37-.66.36-.92.36-.46.36 1.94.37-.68.36-.88.36.47.36-.65.36-.73.37-.78.36-1.01.36-.01.36-.39.36-.61.37-1.08.36 4.22.36.22.36-.86.36-.68.37-.49.36.43.36-.83.36-.68.36-.38.37 4.74.36-.77.36-.49.36-.86.37.63.36-.17.36-.74.36-.51.36.08.37-.58.36-.99.36-.63.36-.92.36.09.37-.51.36-.9.36-.97.36.69.36.88.37-.87.36-.39.36-.7.36-.68.37-.73.36-.98.36-1.4.36-.46.36 1.62.37-.95.36-1.09.36-.28.36-.33.36-.81.37-.97.36-.6.36-.66.36-.34.36-1.07.37 3.82.36-.77.36-.17.36-.64.36-.9.37-.03.36-.22.36-.56.36-.92.37-.39.36 4.28.36-.69.36-.67.36-.1.37-.06.36-.4.36-.67.36-.09.36-.39.37-.65.36-.94.36-.64.36-.55.36-.23.37-.37.36-.87.36.8.36-1.11.37 1.03.36-.8.36-.28.36-.59.36-.43.37-.85.36-.98.36-.59.36-.88.36.86.37-.08.36-.22.36-.83.36-.06.36-.85.37-.97.36.1.36-1.1.36-.06.36-1.06.37 36.35.36-.65.36-.04.36-.62.37-.74.36.27.36-.84.36.35.36-.8.37-.32.36 4.4.36-.49.36-.68.36.68.37-.57.36-.73.36-.27.36-.01.36-.42.37-.62.36-.68.36-.76.36-.56.37-1.09.36.33.36-.92.36.86.36.87.37-.21.36-.96.36-.2.36-.69.36-.53.37-.95.36-.98.36-.34.36-1.13.36.69.37-.13.36.02.36-1.1.36-.16.37-.87.36-.78.36-.26.36-1.22.36-.08.37 3.75.36-.73.36-.75.36-.16.36-.85.37.07.36-.81.36-1.04.36.16.36-1.04.37-.36.36 4.18.36-.65.36.01.36-.39.37-.4.36-.87.36-.41.36.21.37-.57.36-.73.36-.76.36-.44.36-1.01.37-.95.36.18.36.69"/><use xlink:href="#81db0__f" color="#FFAB00" transform="matrix(3.75 0 0 3.75 125.4 91.82)"/><use xlink:href="#81db0__f" color="#FFAB00" transform="matrix(3.75 0 0 3.75 220.55 7.51)"/></g><text stroke-linecap="round" stroke-linejoin="round" color="#000" font-family="KaTeX_Main" font-size="8" transform="translate(241.1 25.11)"><tspan>WBSTRelaxed</tspan></text><g fill="none" stroke="currentColor" stroke-linecap="round" stroke-linejoin="round" color="#000"><path stroke="violet" stroke-dasharray="4.5,2.0,0.5,2.0,0.5,2.0" d="M205.6 22.51h29.9M28 95.78l.36-.48.36-1.97.37-2.23.36-2.71.36-1.48.36-1.75.36-3.02.37-2.54.36-2.67.36-3.29.36 20.72.37-1.19.36-1.74.36-1.18.36-1.75.36-1.37.37-.69.36-1.94.36-1.87.36-1.7.36-2.36.37-.4.36 2.58.36-1.76.36-1.78.36-1.68.37-1.49.36-2.03.36-1.27.36-1.98.36 3.61.37-1.53.36-1.71.36-1.75.36 16.94.37-1.19.36-.57.36-1.03.36-1.3.36-1.43.37-.9.36.41.36-1.43.36-1.24.36-1.45.37-1.64.36 5.38.36-1.25.36-1.28.36-1.19.37-.7.36-.82.36-.77.36 1.4.37-.73.36-.13.36.52.36-.95.36-.66.37-.57.36-.45.36-.78.36-.39.36-.93.37-.54.36-.85.36-1.14.36.2.36-.76.37-.6.36-1.31.36.17.36-1.15.37-1.03.36 1.49.36-1.08.36-.78.36-1.13.37-1.12.36-.76.36-.69.36 3.67.36-.98.37-1.16.36-1.14.36-.37.36-.22.36-.97.37-1.12.36-1.08.36-1.3.36 2.79.36-.77.37-.86.36-1.03.36 1.36.36 3.9.37-.64.36-.3.36-.65.36-.76.36-1.02.37-.35.36-.62.36-.03.36-1.01.36-.8.37 2.11.36-.98.36-.1.36-.52.36-.48.37-.43.36 24.97.36-.71.36-.65.37.89.36-.75.36-.75.36-.84.36.17.37.56.36-.21.36-.87.36-.87.36-.68.37-.77.36-.51.36.47.36-.83.36-1.12.37-.73.36 4.14.36-.26.36.25.36-.64.37-1.06.36-.57.36-.7.36-1.13.37 2.76.36-1.01.36-.76.36-.81.36-.99.37-.41.36 5.18.36-.05.36-.66.36-.53.37-.83.36-.78.36-.4.36-.32.36-.66.37-.91.36-1.04.36-1.15.36.83.37-.25.36.47.36-.78.36-.87.36-1.13.37.88.36-.8.36-.93.36-.52.36-1.04.37-1.1.36-.27.36.5.36-.95.36-.91.37-.33.36-1.06.36-.56.36-.91.36-.77.37-.83.36-1.37.36-.78.36 6.01.37-1.04.36-.07.36-1.05.36 1.79.36-.83.37 2.18.36-.54.36-.44.36-.92.36-.72.37-.63.36-.86.36-.32.36 4.87.36-.42.37-.73.36-.62.36.46.36-.58.37-.97.36-.24.36-.83.36-.74.36-.86.37-.69.36.37.36-.09.36 21.81.36-.52.37.56.36.66.36-.83.36.85.36-.79.37-.56.36-.7.36-.89.36-.4.37.62.36-.93.36-.89.36-.32.36-.49.37-.99.36-.53.36-.35.36-1.08.36-1.13.37-.64.36-1.22.36 7.09.36 1.57.36-.7.37-.76.36 2.65.36-.76.36-.33.36-.56.37-.29.36-1.04.36-.36.36-1.12.37-1.09.36 6.5.36-.62.36-.65.36.37.37-.84.36-.69.36-.56.36-.52.36-.84.37-.8.36-.68.36-1.16.36-1.19.36 2.71.37-.93.36.88.36-.59.36-.99.37-.74.36-.46.36-1.04.36-.61.36-.96.37-.99.36-1.25.36 1 .36-.33.36-.11.37-1.03.36-.73.36-.9.36-1.17.36-.94.37-.36.36-1.24.36-1.16.36-1.23.36 5.23.37 2.58.36 2.45.36-.76.36-.6.37-.41.36-.96.36-.69.36-.09.36-1.04.37-.74.36-.8.36-1.22.36 4.78.36 1.58.37-.64.36-.83.36-.24.36-.93.36-.87.37-.49.36-.31.36-1.03.36-.81.37-.89.36-1.3.36 2.75.36.67.36-.74.37-.53.36-.86.36-.9.36-.85.36-.37.37-.64.36-1.08.36-.94.36-.87.36.96.37-.33.36-.39.36-.46.36-1.11.36-1.11.37-.8.36-.09.36 24.82.36-.51.37-.98.36-1.17.36 1.97.36 8.23.36-.46.37-.6.36-.44.36-.63.36-.52.36-.6.37-.44.36-.7.36-.93.36-.19.36-.51.37 5.54.36.55.36-.81.36-.38.37-.64.36-.75.36.05.36-.46.36-.84.37-.8.36-.99.36-1.03.36.6.36-.69.37 1.65.36-.65.36-.94.36-1.07.36.14.37-1.03.36-.73.36-1.09.36-.87.37-1.11.36-.58.36.33.36-.88.36-.35.37-1.06.36-1.19.36-.27.36-1.08.36-1.31.37-1 .36-1.32.36-.38.36 2.14.36-1.25.37-1.23.36 8.37.36-.94.36-.99.36-.17.37-.8.36-1 .36-.74.36-.67.37-1.17.36-.23.36-.97.36 5.35.36-.71.37.47.36-.89.36.09.36-.7.36-.78.37-.86.36-.69.36-.75.36 26.76.36-.61.37-.83.36-.5.36.46.36.57h.37l.36-.85.36-.69.36-.56.36-1.08.37-.76.36.06.36-1.16.36-.95.36.55.37-1.09.36-.42.36.1.36-1.02.36-.92.37-1.27.36-1.01.36-.96.36 2.18.36-.68.37-1.2.36-.78.36-1 .36 7.39.37-.65.36-.13.36-.83.36-.64.36-.79.37-1 .36-.13.36-.76.36-1.04.36-.07.37 4.69.36-.76.36.42.36-.35.36-.76.37-.66.36-.78.36-1.01.36.33.37-.42.36-.87.36-.54.36-.79.36-.87.37-1.11.36 2.25.36-.74.36-.85.36-.66.37-1.04.36-.56.36-.59.36-.78.36-1.16.37-1.14.36.5.36-1.13.36-.55.37-.2.36.3.36-.96.36-.92.36-.7.37-.92.36-.75.36-.96.36-1.08.36-1.13.37-.84.36-.45.36 8.63.36-.7.36-.61.37-.93.36-.8.36-.73.36-.66.36 1.54.37-.95.36-.98.36 6.25.36-.56.37-.78.36.86.36-.6.36-.76.36-.79.37.1.36-.77.36-.68.36-.24.36 19.24.37-.96.36 1.52.36-.61.36-.88.36 2.42.37-.65.36-.79.36-.11.36-.74.37-.91.36-.36.36-.8.36-1.05.36 1.3.37-.94.36-.87.36-.05.36-1.09.36-.29.37-.95.36-.51.36-.99.36-1.23.36-.74.37-1 .36-.64.36 1.62.36-1.25.36 7.4.37-.55.36-.82.36-1.18.36.01.37-.8.36-1.07.36-.54.36-1.3.36-1.05.37 8.86.36-.72.36-.78.36.63.36-.79.37-.82.36-.86.36.14.36-.63.36-1.07.37-.31.36-1.12.36-.96.36.63.37-1.08.36-1.04.36 2.13.36 11.55.36-.79.37-.08.36-.65.36-.91.36-.79.36-.4.37-1.07.36 2.04.36-.82.36-.51.36-.87.37-.37.36-.2.36-1.11.36-.08.36-.84.37-1.14.36-.77.36-.86.36-1.27.37.18.36-.86.36-1.15.36 8.75.36-.78.37-.82.36-.14.36-.87.36-.89.36-.91.37-.51.36-1.08.36 8.23.36-.54.36-.62.37-.48.36-.14.36.01.36-.95.37.16.36-.67.36-1.06.36-.73.36-.3.37-1.11.36.53.36-.76.36-.89.36-.87.37 2.03.36-.91.36-.25.36-.93.36-.7.37-.91.36-.83.36-.8.36 2.02.37-.76.36-.96.36-.39.36-1.15.36-.11.37-.27.36-.65.36-.83.36-.9.36-1.03.37-.82.36-1.44.36.73.36-.89.36-1.29.37-.86.36 7.72.36-.88.36-.28.36-.4.37-.9.36-.72.36-.7.36-1.07.37 8.53.36-.22.36-.65.36-.52.36-.68.37.48.36-.71.36.13.36-.22.36-.89.37-.56.36-.62.36-.86.36.62.36-.63.37-.89.36-.42.36-.3.36 1.04.37-.18.36-.79.36-.62.36-.74.36-1.13.37-.71.36 2.52.36-.85.36-.61.36-.78.37-.98.36-.24.36-.61.36-.07.36-.72.37-1.23.36-.6.36-1.14.36-.92.36.35.37-.94.36-1 .36-.9.36 5.7.37 1.94.36-.09.36-.98.36-.5.36-.72.37-1.12.36-.39.36 8.93.36-.53.36-.51.37-.29.36-.79.36-.05.36-.14.36.23.37-.53.36-.95.36-.36.36-.96.37-.69.36 1 .36-.76.36-.81.36-.76.37-.75.36.45.36 1.2.36-.76.36-.61.37-.73.36-.99.36-.77.36 2.44.36-.71.37-.77.36-.52.36-.94.36-1.06.36-.32.37 34.96.36-.93.36-.96.36-.57.37-1.17.36-1.01.36.42.36-.61.36-1.16.37-.88.36-1.1.36 7.25.36-.19.36-.88.37-.68.36-.67.36-1.05.36-.75.36 7.86.37-.51.36-.65.36-.27.36-.88.37-.91.36.09.36.06.36-.6.36-.7.37-.57.36-.52.36-.83.36.52.36-.82.37-1.04.36-.69.36-1.1.36-1.01.36 2.02.37-.99.36-.64.36-.77.36-1.14.37-1.23.36 2.4.36-1.05.36-1 .36-.69.37-.83.36-1.14.36-.66.36-.38.36-.94.37-1.45.36-.8.36-.56.36-1.45.36.58.37-1 .36-1.42.36-.8.36-1.4.36 5.4.37 2.13.36-.94.36-.95.36-.68.37-1.21.36-1.04.36 9.16.36-.5.36-.64.37-.41.36-.75.36-.85.36-.43.36.75.37-.68.36-1.08.36-.37.36-.82.36-1.19.37.86.36-.47.36-1.02.36-.54.37-.87.36-1.21.36 1.13.36.47.36-.75.37-.8.36-.78.36-1.04.36 2.11.36-.5.37-.45.36-.64.36 17.26.36-.85.36-1.31.37.55.36-.3.36-1.05.36-.67.36-1.1.37-1.18.36.63.36-.95.36-.88.37-1 .36-1.12.36-1.35.36 7.93.36-.98.37-.22.36-.62.36-.97.36-1.05.36 8.71.37-.19.36-.72.36-.44.36-.58.36-.83.37-1.19.36 1.17.36-.8.36-.79.37-.57.36-.75.36-1.14.36.77.36-.74.37-1.11.36-.68.36-.95.36-1.19.36-.63.37 1.64.36-.84.36-.96.36-1.04.36-.75.37 1.99.36-.68.36-.92.36-.72.36-1.07.37-1.12.36-1.13.36-.21.36-.23.37-1.27.36-.95.36-1.1.36-1.44.36.15.37-.67.36-1.26.36-.33.36-1.08.36-1.37.37-.97.36 8.45.36-.86.36-.91.36-1.05.37-.81.36 8.17.36-.41.36-.27.37-.5.36-.65.36-.67.36-1.07.36.49.37.64.36-.84.36-.58.36-.75.36-1.01.37.65.36-.48.36-.71.36-.67.36-.77.37-1.2.36-.27.36.39.36.58.37-.66.36-1.04.36-.88.36 2.19.36-.77.37-.53.36-.26.36-1.02.36-.73.36-1.12.37-.25.36-.25.36-.51.36-.61.36-1 .37-1.2.36.58.36-.99.36-.86.36-.56.37-1.04.36-1.12.36 25.45.36 7.26.37-.55.36-.48.36-1.03.36-.63.36 9.01.37-.36.36-.13.36-.26"/><use xlink:href="#81db0__g" color="violet" transform="matrix(3.75 0 0 3.75 182.98 74.29)"/><use xlink:href="#81db0__g" color="violet" transform="matrix(3.75 0 0 3.75 220.55 22.51)"/></g><path fill="none" d="M28 45.01V162.5M371.99 45.01H28" color="#000"/></svg>