<svg xmlns="http://www.w3.org/2000/svg" xmlns:xlink="http://www.w3.org/1999/xlink" viewBox="0 0 400 200"><path fill="none" d="M0 0h400v200H0z"/><defs><use xlink:href="#6a1e8__a" id="6a1e8__e" fill="currentColor" stroke="none"/><use xlink:href="#6a1e8__b" id="6a1e8__g" stroke="currentColor" transform="rotate(180)"/><use xlink:href="#6a1e8__c" id="6a1e8__d" stroke="currentColor" transform="rotate(45)"/><use xlink:href="#6a1e8__d" id="6a1e8__f" fill="currentColor" stroke="none"/><path id="6a1e8__c" stroke="currentColor" stroke-width=".267" d="M-1-1h2v2h-2z"/><path id="6a1e8__b" stroke="currentColor" stroke-width=".267" d="m0-1.33-1.33 2h2.66z"/><circle id="6a1e8__a" cx="0" cy="0" r="1" stroke="currentColor" stroke-width=".267"/></defs><path fill="none" stroke="#CCC" stroke-linecap="round" stroke-linejoin="round" stroke-width=".1" d="M46.1 162.5V45.01" class="6a1e8__gridline" color="#000"/><g fill="none" stroke-linecap="round" stroke-linejoin="round" stroke-width="0" color="#000"><path d="M46.1 162.5V155m0-109.99v7.5"/><text fill="#000" font-family="KaTeX_Main" font-size="8" text-anchor="middle" transform="translate(46.1 172.6)"><tspan> 1</tspan></text></g><path fill="none" stroke="#CCC" stroke-linecap="round" stroke-linejoin="round" stroke-width=".1" d="M82.31 162.5V45.01" class="6a1e8__gridline" color="#000"/><g fill="none" stroke-linecap="round" stroke-linejoin="round" stroke-width="0" color="#000"><path d="M82.31 162.5V155m0-109.99v7.5"/><text fill="#000" font-family="KaTeX_Main" font-size="8" text-anchor="middle" transform="translate(82.31 172.6)"><tspan> 2</tspan></text></g><path fill="none" stroke="#CCC" stroke-linecap="round" stroke-linejoin="round" stroke-width=".1" d="M118.52 162.5V45.01" class="6a1e8__gridline" color="#000"/><g fill="none" stroke-linecap="round" stroke-linejoin="round" stroke-width="0" color="#000"><path d="M118.52 162.5V155m0-109.99v7.5"/><text fill="#000" font-family="KaTeX_Main" font-size="8" text-anchor="middle" transform="translate(118.52 172.6)"><tspan> 3</tspan></text></g><path fill="none" stroke="#CCC" stroke-linecap="round" stroke-linejoin="round" stroke-width=".1" d="M154.73 162.5V45.01" class="6a1e8__gridline" color="#000"/><g fill="none" stroke-linecap="round" stroke-linejoin="round" stroke-width="0" color="#000"><path d="M154.73 162.5V155m0-109.99v7.5"/><text fill="#000" font-family="KaTeX_Main" font-size="8" text-anchor="middle" transform="translate(154.73 172.6)"><tspan> 4</tspan></text></g><path fill="none" stroke="#CCC" stroke-linecap="round" stroke-linejoin="round" stroke-width=".1" d="M190.94 162.5V45.01" class="6a1e8__gridline" color="#000"/><g fill="none" stroke-linecap="round" stroke-linejoin="round" stroke-width="0" color="#000"><path d="M190.94 162.5V155m0-109.99v7.5"/><text fill="#000" font-family="KaTeX_Main" font-size="8" text-anchor="middle" transform="translate(190.94 172.6)"><tspan> 5</tspan></text></g><path fill="none" stroke="#CCC" stroke-linecap="round" stroke-linejoin="round" stroke-width=".1" d="M227.15 162.5V45.01" class="6a1e8__gridline" color="#000"/><g fill="none" stroke-linecap="round" stroke-linejoin="round" stroke-width="0" color="#000"><path d="M227.15 162.5V155m0-109.99v7.5"/><text fill="#000" font-family="KaTeX_Main" font-size="8" text-anchor="middle" transform="translate(227.15 172.6)"><tspan> 6</tspan></text></g><path fill="none" stroke="#CCC" stroke-linecap="round" stroke-linejoin="round" stroke-width=".1" d="M263.36 162.5V45.01" class="6a1e8__gridline" color="#000"/><g fill="none" stroke-linecap="round" stroke-linejoin="round" stroke-width="0" color="#000"><path d="M263.36 162.5V155m0-109.99v7.5"/><text fill="#000" font-family="KaTeX_Main" font-size="8" text-anchor="middle" transform="translate(263.36 172.6)"><tspan> 7</tspan></text></g><path fill="none" stroke="#CCC" stroke-linecap="round" stroke-linejoin="round" stroke-width=".1" d="M299.57 162.5V45.01" class="6a1e8__gridline" color="#000"/><g fill="none" stroke-linecap="round" stroke-linejoin="round" stroke-width="0" color="#000"><path d="M299.57 162.5V155m0-109.99v7.5"/><text fill="#000" font-family="KaTeX_Main" font-size="8" text-anchor="middle" transform="translate(299.57 172.6)"><tspan> 8</tspan></text></g><path fill="none" stroke="#CCC" stroke-linecap="round" stroke-linejoin="round" stroke-width=".1" d="M335.78 162.5V45.01" class="6a1e8__gridline" color="#000"/><g fill="none" stroke-linecap="round" stroke-linejoin="round" stroke-width="0" color="#000"><path d="M335.78 162.5V155m0-109.99v7.5"/><text fill="#000" font-family="KaTeX_Main" font-size="8" text-anchor="middle" transform="translate(335.78 172.6)"><tspan> 9</tspan></text></g><path fill="none" stroke="#CCC" stroke-linecap="round" stroke-linejoin="round" stroke-width=".1" d="M371.99 162.5V45.01" class="6a1e8__gridline" color="#000"/><g fill="none" stroke-linecap="round" stroke-linejoin="round" stroke-width="0" color="#000"><path d="M371.99 162.5V155m0-109.99v7.5"/><text fill="#000" font-family="KaTeX_Main" font-size="8" text-anchor="middle" transform="translate(371.99 172.6)"><tspan> 10</tspan></text></g><g fill="none" stroke-linecap="round" stroke-linejoin="round" stroke-width="0" color="#000"><path d="M371.99 162.5h-7.5"/><text fill="#000" font-family="KaTeX_Main" font-size="8" transform="translate(378.99 165.1)"><tspan>1.10</tspan></text></g><g fill="none" stroke-linecap="round" stroke-linejoin="round" stroke-width="0" color="#000"><path d="M371.99 149.45h-7.5"/><text fill="#000" font-family="KaTeX_Main" font-size="8" transform="translate(378.99 152.05)"><tspan>1.20</tspan></text></g><g fill="none" stroke-linecap="round" stroke-linejoin="round" stroke-width="0" color="#000"><path d="M371.99 136.39h-7.5"/><text fill="#000" font-family="KaTeX_Main" font-size="8" transform="translate(378.99 138.99)"><tspan>1.30</tspan></text></g><g fill="none" stroke-linecap="round" stroke-linejoin="round" stroke-width="0" color="#000"><path d="M371.99 123.34h-7.5"/><text fill="#000" font-family="KaTeX_Main" font-size="8" transform="translate(378.99 125.94)"><tspan>1.40</tspan></text></g><g fill="none" stroke-linecap="round" stroke-linejoin="round" stroke-width="0" color="#000"><path d="M371.99 110.28h-7.5"/><text fill="#000" font-family="KaTeX_Main" font-size="8" transform="translate(378.99 112.88)"><tspan>1.50</tspan></text></g><g fill="none" stroke-linecap="round" stroke-linejoin="round" stroke-width="0" color="#000"><path d="M371.99 97.23h-7.5"/><text fill="#000" font-family="KaTeX_Main" font-size="8" transform="translate(378.99 99.83)"><tspan>1.60</tspan></text></g><g fill="none" stroke-linecap="round" stroke-linejoin="round" stroke-width="0" color="#000"><path d="M371.99 84.17h-7.5"/><text fill="#000" font-family="KaTeX_Main" font-size="8" transform="translate(378.99 86.77)"><tspan>1.70</tspan></text></g><g fill="none" stroke-linecap="round" stroke-linejoin="round" stroke-width="0" color="#000"><path d="M371.99 71.12h-7.5"/><text fill="#000" font-family="KaTeX_Main" font-size="8" transform="translate(378.99 73.72)"><tspan>1.80</tspan></text></g><g fill="none" stroke-linecap="round" stroke-linejoin="round" stroke-width="0" color="#000"><path d="M371.99 58.06h-7.5"/><text fill="#000" font-family="KaTeX_Main" font-size="8" transform="translate(378.99 60.66)"><tspan>1.90</tspan></text></g><g fill="none" stroke-linecap="round" stroke-linejoin="round" stroke-width="0" color="#000"><path d="M371.99 45.01h-7.5"/><text fill="#000" font-family="KaTeX_Main" font-size="8" transform="translate(378.99 47.61)"><tspan>2.00</tspan></text></g><path fill="none" d="M28 45.01V162.5M371.99 45.01H28" color="#000"/><text stroke-linecap="round" stroke-linejoin="round" stroke-width="0" color="#000" font-family="KaTeX_Main" font-size="10" text-anchor="middle" transform="rotate(-90 57.63 46.13)"><tspan font-weight="bold">Maximum Path Length </tspan><tspan> / log</tspan><tspan dy="3" font-size="8">2</tspan><tspan dy="-3">(Size)</tspan></text><text stroke-linecap="round" stroke-linejoin="round" stroke-width="0" color="#000" font-family="KaTeX_Main" font-size="10" text-anchor="middle" transform="translate(199.99 195.75)"><tspan>Operations / 10</tspan><tspan dy="-5" font-size="8">6</tspan></text><text stroke-linecap="round" stroke-linejoin="round" color="#000" font-family="KaTeX_Main" font-size="8" transform="translate(76.8 10.11)"><tspan>AVLRelaxedBottomUp</tspan></text><g fill="none" stroke="currentColor" stroke-linecap="round" stroke-linejoin="round" color="#000"><path stroke="#D336C8" d="M41.3 7.51h29.9M28 159.91l.36.22.36.22.37-1.16.36.2.36.21.36.2.36.19.37.19.36.19.36.18.36.19.37.17.36.18.36.17.36-1.19.36.17.37.16.36.16.36.16.36-2.53.36.15.37.16.36.15.36.15.36.14.36.15.37.14.36.14.36.14.36.13.36-1.19.37.13.36.13.36.13.36.13.37.12.36.13.36.12.36.12.36.12.37.12.36.11.36.12.36.11.36.12.37.11.36.11.36.1.36.11.36.11h3.26l.37-1.31h9.41l.36-1.31h24.26l.36 1.31h3.26l.37-1.31h3.98l.36-1.31h10.5l.36-1.31h13.04l.36-1.31h5.43l.36 1.31h3.26l.37-1.31h21l.36-1.31h5.79l.36 1.31h6.52l.36 1.31h3.26l.37-1.31h15.93l.36-1.31h17.02l.36 1.31h.36l.36 1.31h3.26l.37-1.31h34.03l.36 1.31h3.26l.37-1.31h9.77l.36-1.31h23.9l.36 1.31h2.9l.36-1.31h.73l.36 1.31h13.4l.36-1.31h19.55l.36 1.31h2.9l.36-1.31h1.81l.37 1.31h7.6l.36-1.31h23.9l.36 1.31h3.26l.36-1.31h18.47"/><use xlink:href="#6a1e8__b" color="#D336C8" transform="matrix(3.75 0 0 3.75 354.25 152.84)"/><use xlink:href="#6a1e8__b" color="#D336C8" transform="matrix(3.75 0 0 3.75 56.25 7.51)"/></g><text stroke-linecap="round" stroke-linejoin="round" color="#000" font-family="KaTeX_Main" font-size="8" transform="translate(76.8 25.11)"><tspan>RedBlackRelaxedTopDown</tspan></text><g fill="none" stroke="currentColor" stroke-linecap="round" stroke-linejoin="round" color="#000"><path stroke="violet" stroke-dasharray="4.0,2.0,1.0,2.0" d="M41.3 22.51h29.9M28 135.09l.36.26.36-9.38.37 11.25.36-6.62.36 5.72.36-3.87.36 2.96.37-2.5.36 4.31.36-2.51.36 1.57.37-6.58.36 1.57.36 1.56.36 5.61.36-2.51.37.19.36 1.54.36-1.17.36-6.54.36-2.5.37 1.53.36 2.86.36-3.84.36 1.51.36 1.51.37-3.84.36.17.36 2.84.36 1.49.36 2.82.37-1.17.36-1.18.36.16.36 2.8.37-1.18.36 2.79.36-5.15.36 4.11.36.14.37 2.77.36.14.36-1.19.36-2.5.36-5.13.37 2.77.36 2.75.36-2.49.36 1.43.36 1.44.37-1.31h.36l.36-5.24.36 7.86.37-3.93.36-3.93.36-2.62.36 1.31.36 3.93.37 5.24.36-5.24.36 7.86.36 1.31.36-9.17.37-1.31.36 2.62.36 3.93h.36l.36-2.62.37 1.31h.36l.36-9.17.36 6.55.37-3.93.36 3.93.36-2.62.36 1.31.36 1.31h.37l.36 1.31.36-6.55.36 2.62.36 1.31.37-2.62.36-3.93.36 9.17.36-2.62.36-1.31.37-1.31.36 1.31.36 3.93.36-3.93.36 1.31h.37l.36 2.62.36-1.31.36-2.62.37-1.31.36-1.31.36 5.24h.36l.36-3.93.37 3.93.36-1.31.36-1.31.36-2.62.36-1.31.37 2.62h.36l.36 1.31h.36l.36-2.62.37 6.55.36-2.62.36-3.93H70l.37-2.62.36 6.55h.36l.36-2.62.36-3.93.37 5.24.36-1.31.36-2.62.36-2.62.36 9.17.37 3.93.36-6.55.36 2.62.36-3.93.36 2.62.37-5.24.36 1.31h.72l.36-2.62.37-2.62.36-1.31.36 9.17.36 2.62.37-7.86.36 7.86.36 1.31.36-2.62.36 5.24.37-3.93.36 2.62.36-3.93h.36l.36-1.31.37-1.31.36 3.93.36-6.55.36 3.93.36 5.24.37-2.62.36 3.93.36-6.55.36 7.86.37-6.55.36 2.62.36-5.24.36 6.55.36-6.55.37 13.1.36-10.48.36 2.62.36-1.31h.36l.37-2.62.36 3.93.36 2.62h.36l.36-2.62.37 1.31.36-5.24.36 1.31.36 2.62.36-2.62h.37l.36 5.24.36-6.55.36-1.31.37-3.93.36 6.55.36-1.31.36 2.62.36-3.93.37 6.55.36-2.62.36 9.17.36-9.17.36 2.62.37-7.86.36 7.86.36-3.93.36 1.31.36-1.31.37 3.93.36-7.86.36 2.62.36-5.24.37 3.93.36 3.93.36-1.31.36 6.55.36-3.93.37 1.31.36-3.93.36-3.93.36 6.55.36-5.24.37 3.93.36-2.62h.36l.36-2.62.36-6.55.37 5.24.36 6.55.36-3.93.36 5.24.37-1.31h.36l.36 1.31.36-1.31.36-6.55.37 5.24.36-3.93.36 5.24.36-7.86.36 6.55.37-1.31h.36l.36-6.55.36 5.24.36-2.62.37 6.55.36-5.24.36-2.62.36 5.24.36-1.31.37-2.62.36-2.62.36 5.24.36 2.62.37-5.24h.36l.36-6.55.36 6.55.36-1.31.37 1.31.36-2.62.36 3.93.36 2.62.36 2.62.37-5.24.36 3.93.36-1.31.36 2.62.36-6.55.37 3.93.36-5.24.36 9.17.36-9.17.37 5.24.36-6.55.36 7.86.36-3.93h.36l.37 5.24.36-3.93.36 2.62h.36l.36-3.93h.37l.36 6.55.36-3.93.36-3.93h.36l.37-1.31h.36l.36-3.93.36 9.17.36-5.24.37 6.55.36-6.55.36 7.86.36-1.31.37-7.86.36 7.86.36 1.31h.36l.36-5.24.37 1.31.36 2.62.36 3.93.36-1.31.36-5.24.37 7.86.36-10.48.36 5.24.36-2.62.36-1.31.37 1.31.36-1.31.36-1.31.36-1.31.37 1.31.36 3.93.36-3.93.36 2.62h.36l.37-3.93.36 2.62.36 1.31.36 9.17h.36l.37-3.93.36 2.62.36-5.24.36-1.31.36 6.55h.73l.36-2.62.36 1.31.36-1.31.37-5.24.36 2.62.36-3.93.36 2.62.37 6.55.36-6.55.36-2.62.36 7.86h.36l.37-7.86h.36l.36 3.93.36 1.31.36-3.93.37 1.31.36-1.31h.36l.36-2.62.36-3.93.37 5.24.36 1.31.36 6.55.36-3.93.37-1.31h.72l.36-5.24.36 3.93h.37l.36-2.62h.36l.36-2.62.36 2.62.37-3.93.36-3.93.36 5.24.36 5.24.36 1.31.37-2.62.36-2.62.36 5.24.36-3.93.37-1.31.36-2.62.36 3.93.36-2.62.36-2.62.37 6.55.36 5.24.36-7.86h.36l.36 5.24.37-2.62.36 6.55.36-5.24.36 2.62.36-5.24.37 2.62.36-1.31.36-1.31.36 2.62.36-5.24.37 5.24.36-1.31.36-3.93.36 2.62.37 1.31.36 1.31.36 2.62.36-6.55h.36l.37 3.93.36-3.93.36 1.31.36 1.31.36 1.31h.37l.36-3.93h.36l.36-2.62.36 3.93.37-2.62h.36l.36 3.93.36 2.62h.37l.36-2.62.36-1.31h.36l.36 2.62.37-5.24h.36l.36 5.24.36 5.24.36-11.79.37-2.62.36 1.31.36 5.24.36-1.31.36 13.1.37-3.93h.36l.36 1.31.36-5.24.36-2.62.37-1.31.36 1.31.36 2.62.36-3.93.37 2.62.36-6.55h.36l.36 2.62.36 1.31.37-1.31.36 11.79.36-2.62.36-1.31.36-2.62.37 5.24.36-6.55.36 1.31.36-2.62.36 1.31.37-5.24.36 9.17.36-3.93.36 1.31.37-7.86.36 1.31.36-1.31.36 5.24.36 3.93.37-5.24.36-2.62.36 5.24.36-5.24h.36l.37-3.93.36 7.86h.36l.36-2.62.36-3.93.37 6.55.36-6.55h.36l.36-2.62.37 7.86h.36l.36 1.31.36-3.93.36-1.31.37 9.17.36-1.31.36-7.86.36 6.55.36-3.93.37 1.31.36-5.24.36 5.24.36-5.24.36 7.86.37-7.86.36 5.24.36-2.62.36 2.62.36 1.31.37-1.31.36 1.31h.72l.37 2.62.36-5.24.36 2.62.36-3.93.36 2.62.37-3.93.36-1.31.36 6.55.36 6.55.36-3.93.37 1.31.36-2.62.36 1.31.36-1.31h.36l.37-2.62.36 6.55.36-7.86.36 1.31.37-5.24.36 7.86.36-3.93.36 1.31.36-3.93.37 10.48.36-2.62.36-9.17.36 5.24.36 1.31.37-2.62.36-3.93.36 6.55.36 2.62.36 5.24.37-3.93.36-2.62.36 2.62.36-1.31.36-3.93.37 1.31.36 7.86.36-1.31.36-1.31.37-2.62.36-2.62.36 1.31h.72l.37 1.31.36 2.62.36-5.24.36-3.93.36 1.31h.37l.36-1.31.36-1.31.36 6.55.36-2.62.37-1.31.36 6.55.36-2.62.36-1.31.37-3.93.36 5.24.36-2.62h.72l.37 1.31.36-3.93h.36l.36-2.62.36 6.55.37 7.86.36-5.24h.36l.36 1.31.36 6.55.37-9.17.36-5.24.36 5.24.36 2.62.36-3.93.37 1.31.36-2.62.36 5.24.36-13.1.37 15.72.36-1.31.36 1.31.36 2.62.36-5.24.37 1.31h.36l.36-3.93.36-3.93.36 7.86.37-2.62h.36l.36-9.17.36 11.79.36-3.93.37-1.31.36-2.62.36 1.31.36 2.62.37 1.31.36 1.31.36-5.24.36 3.93.36-3.93.37-1.31.36-3.93.36 7.86.36-1.31.36-3.93h.37l.36-2.62.36 1.31h.36l.36 1.31h.37l.36-1.31h.72l.37 1.31.36 1.31h.36l.36-1.31h.36l.37-2.62.36-2.62.36 2.62.36 1.31h.36l.37-5.24.36 10.48.36 1.31.36-5.24.36 5.24h.73l.36-1.31.36-3.93.36 1.31.37 5.24.36-7.86.36 2.62.36-2.62.37 3.93.36-1.31.36-5.24.36 7.86.36 1.31.37 2.62.36-3.93.36-2.62.36 1.31.36-3.93.37 1.31.36-1.31.36 1.31.36 1.31.36-7.86.37 1.31.36 3.93.36-1.31.36 7.86.37 1.31.36-1.31.36-1.31h.36l.36-3.93.37 2.62.36-3.93.36 5.24.36-6.55.36 7.86h.37l.36-2.62.36-2.62.36-2.62.36 1.31.37 5.24.36-3.93.36 2.62.36-1.31.36 3.93h.37l.36-5.24.36-3.93.36 10.48.37-5.24h.36l.36-5.24.36 9.17.36-1.31.37-5.24h.36l.36 7.86.36-1.31.36 6.55.37-3.93h.36l.36 1.31.36-1.31.36-3.93.37 2.62.36-5.24.36 6.55.36-6.55.37 6.55.36-7.86.36 6.55.36-9.17.36 3.93.37-2.62.36 3.93.36 5.24.36-1.31.36-5.24.37 2.62h.36l.36-3.93h.36l.36 2.62.37-5.24.36 2.62.36-2.62h.36l.36 1.31.37 3.93.36-1.31.36 3.93.36-1.31h.37l.36-3.93.36 3.93.36-5.24.36 2.62.37-7.86.36 9.17.36-7.86.36 5.24h.36l.37 5.24.36-5.24.36 6.55.36-7.86.36 3.93.37 1.31.36-1.31.36-1.31.36-5.24.37 2.62.36 1.31.36-2.62.36 3.93.36-7.86.37 5.24.36-3.93.36 2.62.36-2.62.36 9.17.37-1.31.36 2.62.36-5.24h.36l.36-2.62.37 3.93h.36l.36 1.31.36-3.93.37 6.55.36-9.17.36 1.31.36 2.62.36 1.31.37-5.24.36 2.62.36-2.62.36 11.79.36-5.24.37 1.31.36-1.31.36-1.31.36 5.24.36-2.62h.37l.36-2.62.36 6.55.36-6.55.36-1.31.37 1.31.36 1.31.36-1.31.36 6.55h.73l.36 2.62.36-7.86h.36l.37-1.31.36 3.93.36-3.93.36 2.62.36 1.31.37-1.31.36-5.24.36 2.62.36-1.31.36 5.24.37-9.17.36 9.17.36 1.31.36-2.62.37 1.31.36-6.55.36 5.24.36-3.93.36-1.31.37-2.62.36 10.48.36-5.24.36-2.62.36-5.24.37 10.48.36-1.31h.36l.36 3.93.36-1.31.37 1.31.36-2.62h.36l.36-5.24.36-1.31.37 6.55h.36l.36-3.93.36 2.62h.37l.36-1.31h.36l.36-3.93.36 1.31.37 6.55.36-2.62.36-2.62.36-2.62.36 9.17.37-1.31.36-3.93.36 1.31.36-1.31.36 2.62.37-2.62.36-2.62.36-1.31.36 7.86.37-5.24h.72l.36 3.93.36 1.31.37-6.55.36 1.31.36 5.24.36-1.31.36-3.93h.37l.36 2.62.36-3.93.36-1.31.36 1.31.37 1.31.36 3.93.36-7.86.36 6.55.36 1.31.37-2.62h1.08l.37-2.62.36-1.31.36-2.62.36 5.24.36-5.24.37 1.31.36-2.62.36 5.24.36 2.62.36-2.62.37 5.24.36-5.24.36 3.93.36-5.24.36 3.93.37-1.31.36 1.31.36-5.24.36 11.79.37-5.24.36 1.31.36-1.31.36-3.93.36 3.93.37-2.62.36 3.93.36 1.31h.36l.36-3.93.37-2.62.36 2.62.36 1.31.36-1.31.36-2.62.37 1.31.36 2.62.36-6.55.36-1.31h.37l.36 5.24.36-3.93.36 1.31.36 9.17.37-1.31.36 2.62.36-5.24.36 2.62.36-2.62.37 2.62.36-5.24.36 2.62.36-2.62.36 1.31.37-3.93.36 6.55.36-5.24.36-1.31.36-2.62.37 6.55.36-1.31.36-3.93.36 3.93.37-1.31.36-1.31h.36l.36-3.93.36 6.55.37-1.31.36-2.62.36-2.62"/><use xlink:href="#6a1e8__e" color="violet" transform="matrix(3.75 0 0 3.75 67.83 130.57)"/><use xlink:href="#6a1e8__e" color="violet" transform="matrix(3.75 0 0 3.75 56.25 22.51)"/></g><text stroke-linecap="round" stroke-linejoin="round" color="#000" font-family="KaTeX_Main" font-size="8" transform="translate(241.1 10.11)"><tspan>LBSTRelaxed</tspan></text><g fill="none" stroke="currentColor" stroke-linecap="round" stroke-linejoin="round" color="#000"><path stroke="#FFAB00" stroke-dasharray="4.0,2.0,1.0,2.0" d="M205.6 7.51h29.9M28 78.54l.36-16.18.36 16.86.37-12.03.36 3.08.36 1.7.36-7.88.36-2.41.37.32.36 30.27.36-9.25.36-2.44.37-1.08.36.27.36 4.33.36-10.56.36 8.37.37 1.6.36-6.49.36-6.48.36.25.36.24.37 5.62.36-13.17.36 32.38.36-1.13.36-11.82.37 13.56.36-9.13.36-7.79.36 8.19.36-2.46.37 2.86.36-10.43.36 12.14.36 8.14.37-18.36.36 20.04.36 10.75.36-24.94.36 8.1.37-6.42.36 15.99.36-19.6.36 15.96.36-11.67.37-1.15.36-2.46.36 1.48.36.16.36-10.32.37 14.41.36-3.93.36-9.17.36 11.79.37-1.31.36-7.86.36 7.86.36-9.17.36 7.86.37 5.24.36-2.62.36-6.55.36 2.62.36-1.31h.37l.36-7.86.36 5.24h.36l.36 5.24.37-1.31.36 7.86.36-11.79.36 7.86.37-10.48h.36l.36 2.62.36 9.17.36-11.79.37-1.31.36 6.55.36-14.41.36 11.79.36 7.86.37-10.48.36 17.03.36-15.72.36 17.03.36-3.93.37 15.72.36 2.62.36-9.17.36-7.86.36-7.86.37 11.79.36-5.24.36-2.62.36 5.24.37-1.31.36 5.24.36-2.62.36-1.31.36-6.55.37-1.31.36 5.24h.36l.36-6.55.36 9.17.37-9.17.36 5.24.36-1.31.36-9.17.36-7.86.37 9.17h.36l.36 9.17.36 1.31.37-3.93.36-19.65.36 18.34.36-7.86.36 7.86.37-7.86.36 1.31.36-6.55.36 28.82.36-15.72.37 2.62h.36l.36-9.17.36 19.65.36-11.79.37-1.31.36 5.24.36-11.79.36 10.48.36-3.93.37-3.93.36 7.86.36 5.24.36-17.03.37 17.03.36-17.03.36 20.96.36-11.79.36 10.48.37-19.65.36-10.48.36 10.48.36-5.24.36 7.86.37 15.72.36-14.41.36-7.86.36 5.24.36 13.1.37 2.62.36-13.1h.36l.36-11.79.37 2.62.36 2.62.36 7.86.36-3.93.36 7.86.37-1.31h.36l.36 1.31.36-7.86.36 10.48.37-5.24.36 10.48.36-1.31.36-14.41.36 10.48.37 5.24.36-20.96.36-2.62.36 11.79.36 10.48.37-26.2.36 6.55.36-1.31.36 3.93.37-10.48.36 15.72.36-2.62.36-11.79.36 14.41.37-1.31.36 7.86.36-13.1.36 13.1.36-10.48.37 7.86.36 2.62.36-5.24.36-9.17.36 15.72.37-13.1h.36l.36 6.55.36 19.65.37-9.17.36-11.79.36 2.62.36 7.86.36 5.24.37-2.62.36-3.93.36-2.62.36 3.93.36-1.31.37 3.93.36 3.93.36-1.31.36-5.24.36-10.48.37 19.65.36-9.17.36-1.31.36 15.72.37 1.31.36-20.96.36-7.86.36 23.58.36-11.79.37 2.62.36 1.31.36-11.79.36 3.93.36 10.48.37-13.1.36-15.72.36 3.93.36 7.86.36 10.48.37-1.31h.36l.36 6.55.36-3.93h.36l.37-3.93.36-1.31.36-14.41.36 10.48.37 3.93.36-18.34.36 10.48.36 1.31.36 9.17.37-1.31.36-2.62.36-5.24.36-6.55.36 2.62.37 10.48.36-9.17.36 1.31.36-6.55.36 2.62.37 6.55.36 6.55.36-10.48.36 13.1.37-13.1.36-13.1.36 7.86.36 3.93.36-9.17.37 19.65.36-10.48.36 7.86.36 3.93.36-3.93.37-2.62.36-6.55.36 10.48.36-7.86.36 6.55.37-18.34.36 17.03.36-1.31.36-1.31h.36l.37 7.86.36-5.24.36-14.41.36 13.1.37-2.62.36-1.31.36-2.62h.36l.36 2.62.37 14.41.36-5.24.36-6.55.36-1.31.36 7.86.37-15.72.36 11.79.36-1.31.36 9.17.36-7.86.37-7.86.36-2.62.36 11.79.36 5.24.37-10.48.36 9.17.36-9.17.36 15.72.36-18.34.37 13.1.36-2.62.36-6.55.36-7.86.36 6.55.37 5.24.36-5.24.36-5.24.36 13.1.36-5.24.37 19.65.36 1.31h.36l.36-9.17.36 5.24.37 6.55.36-5.24.36-11.79.36-9.17.37 24.89.36-1.31.36 1.31.36-19.65.36 11.79.37-13.1.36 3.93.36-1.31.36 1.31.36 1.31.37 2.62.36-5.24.36 3.93.36 6.55.36-11.79.37 7.86.36 1.31.36-9.17.36-2.62.37-5.24.36 22.27.36-3.93.36-1.31.36-9.17.37-6.55.36 2.62.36 7.86.36-14.41.36 11.79h.37l.36-3.93.36-9.17.36 26.2.36-22.27.37 11.79.36 2.62.36-13.1.36 2.62.37 18.34.36-20.96.36-6.55.36 26.2.36-10.48.37-3.93.36 13.1.36-20.96.36 11.79.36 3.93.37-13.1.36 6.55.36 9.17.36-13.1.36-11.79.37 13.1.36 9.17.36-10.48.36-2.62.36 1.31.37-10.48.36 24.89.36-5.24.36-15.72.37 7.86.36-18.34.36 23.58.36-14.41.36 1.31.37 6.55.36-1.31h.36l.36 1.31.36 2.62.37-3.93.36 10.48.36-7.86.36-17.03.36 14.41.37 5.24.36-7.86.36 1.31.36-13.1.37 13.1.36-9.17.36 7.86.36-7.86.36 27.51.37-18.34.36-10.48.36 14.41.36-7.86.36 1.31.37 2.62.36 13.1.36-3.93.36-28.82.36 20.96.37 11.79.36-26.2.36 7.86.36 3.93.36 10.48.37-15.72h.36l.36 14.41.36-13.1.37-5.24.36 39.3.36-2.62.36 1.31.36-20.96.37 13.1.36-6.55.36-6.55.36-3.93.36 5.24.37 17.03.36-17.03.36 2.62.36 6.55.36-3.93.37 6.55.36-13.1.36-3.93.36-2.62.37 27.51.36-17.03.36 1.31.36-11.79.36 11.79.37 10.48.36-24.89.36 26.2.36-22.27.36-1.31.37 11.79.36-5.24.36 17.03.36-14.41.36 5.24.37-9.17.36 1.31.36-2.62.36 11.79.37-9.17.36 18.34.36-14.41.36-11.79.36-5.24.37 10.48.36 11.79.36-2.62.36-9.17h.36l.37-2.62.36-6.55.36 7.86.36 7.86h.36l.37-9.17.36 3.93.36 3.93.36-10.48h.36l.37-9.17.36 9.17.36 18.34.36-26.2.37 6.55.36 7.86.36-13.1.36 20.96.36-10.48.37-3.93.36 6.55.36-1.31.36-1.31.36 2.62.37-10.48.36 20.96.36-2.62.36-6.55.36-5.24.37 11.79.36-13.1.36-3.93.36 2.62.37 11.79.36-1.31.36 14.41.36-20.96.36 13.1.37-5.24.36 13.1.36-5.24.36-7.86.36 9.17.37-13.1.36-6.55.36 6.55.36 6.55.36 10.48.37-24.89.36 13.1.36-5.24.36 10.48.36-15.72.37 14.41h.36l.36-1.31.36-10.48.37 2.62.36 1.31.36-3.93.36 5.24.36 11.79.37-14.41.36 6.55.36 7.86.36-22.27.36 20.96.37-23.58.36 15.72.36-2.62.36-3.93.36 2.62.37 1.31.36 10.48.36-10.48.36-15.72.37 10.48.36-15.72.36 14.41.36-1.31.36 7.86.37 1.31.36 5.24.36-19.65.36 18.34.36-18.34.37-1.31h.36l.36 1.31h.36l.36 11.79.37 1.31h.36l.36-7.86.36 6.55.36 6.55.37-14.41.36-5.24.36 6.55.36 11.79.37-9.17.36-11.79.36 22.27.36-24.89.36 9.17.37 9.17.36 2.62.36-10.48.36-7.86.36 3.93.37 9.17.36 3.93.36-11.79.36 5.24.36-7.86h.37l.36 7.86.36 2.62.36-1.31.37-2.62.36 10.48.36-11.79.36 3.93.36-1.31.37-1.31.36-1.31.36 10.48.36-1.31.36-11.79.37-10.48.36 14.41.36-7.86.36 2.62.36-3.93.37 23.58.36-11.79.36 5.24.36 9.17.37-10.48.36-18.34.36 15.72.36 15.72.36-1.31.37-26.2.36 14.41.36-1.31.36-9.17.36-1.31.37 7.86.36 2.62.36 20.96.36-19.65.36 18.34.37-15.72.36 18.34.36-5.24.36-2.62.36-13.1.37-1.31.36-2.62.36 9.17.36 15.72.37-31.44.36 28.82.36-9.17.36-5.24.36 1.31.37 3.93.36-5.24.36-1.31.36-9.17.36 7.86.37 1.31.36 6.55.36-17.03.36-3.93.36 23.58.37-17.03.36 2.62.36 5.24.36-5.24.37 2.62.36-3.93.36 5.24.36 5.24.36 5.24.37-22.27.36 7.86.36-2.62.36 14.41.36-22.27.37 9.17.36 2.62.36 6.55.36-1.31.36-20.96.37 15.72.36 2.62.36-9.17.36-6.55.36 9.17.37-1.31.36 17.03.36-9.17.36-7.86.37 13.1.36-6.55.36 10.48.36-22.27.36 6.55.37 3.93.36 6.55.36-9.17.36 15.72.36-13.1.37 1.31.36 5.24.36-3.93.36 9.17.36-26.2.37 22.27.36-10.48.36-6.55.36 2.62.37 2.62.36-1.31.36-14.41.36 15.72.36-2.62.37-9.17h.36l.36 9.17.36 1.31.36-5.24.37 9.17.36-3.93.36 2.62.36-5.24.36-6.55.37 6.55.36-13.1.36 11.79.36 10.48h.36l.37-6.55.36 2.62.36 6.55.36-19.65.37 7.86.36 2.62.36 6.55.36-15.72.36 6.55h.37l.36 3.93.36-6.55.36 1.31.36 9.17h.37l.36-6.55.36-5.24.36-2.62.36-2.62.37-7.86.36 18.34.36-2.62.36 1.31.37 1.31.36-1.31.36-5.24.36 5.24.36-1.31.37-2.62.36 7.86.36-3.93.36 13.1.36-19.65h.37l.36-3.93.36 30.13.36 1.31.36-10.48.37 13.1.36-19.65.36 7.86h.36l.37-3.93.36 11.79.36-10.48.36 15.72.36-14.41.37 3.93.36 11.79.36-3.93.36-10.48.36-15.72.37 18.34.36 9.17.36-11.79.36-5.24.36 1.31.37 10.48.36-6.55h.36l.36-1.31.36 5.24.37-3.93.36 7.86.36-9.17.36-18.34.37 22.27.36-6.55.36-10.48.36 9.17h.36l.37 9.17.36-26.2.36 17.03.36 1.31.36-6.55.37 18.34.36-15.72.36 2.62h.36l.36-1.31h.73l.36 14.41.36-22.27.37 3.93.36 7.86.36-1.31.36-2.62.36-3.93.37-2.62.36 17.03.36-9.17.36-11.79.36 14.41.37-9.17.36 7.86.36-9.17.36 1.31.36-6.55.37 2.62.36 2.62.36 5.24.36-9.17.36 5.24.37-9.17.36 6.55.36-6.55.36 1.31.37 14.41.36 3.93.36-9.17.36-2.62.36 1.31.37 7.86.36-13.1h.36l.36 5.24.36-5.24.37 7.86.36-6.55.36 7.86.36-9.17.36 17.03.37-1.31.36-19.65.36 15.72.36-1.31.37-6.55.36-2.62.36 10.48.36-10.48.36-11.79.37 2.62.36 7.86.36 2.62.36 2.62.36 7.86.37-22.27.36 5.24.36 1.31.36 2.62.36 1.31.37-6.55.36 2.62.36 15.72.36-7.86.36 3.93.37 7.86.36 6.55.36-13.1.36 13.1.37-15.72.36 6.55h.36l.36 6.55.36 6.55.37-15.72.36 2.62.36-6.55.36-5.24.36 10.48.37 9.17.36-15.72.36 1.31.36 6.55.36-10.48.37 5.24.36-2.62.36 20.96.36-2.62.37-28.82.36 28.82.36-15.72.36-1.31.36 17.03.37-15.72.36-3.93.36 17.03.36 2.62.36-24.89.37 6.55.36 5.24.36 6.55.36-9.17.36 14.41.37-1.31.36-6.55h.36l.36-22.27.37 22.27h.36l.36-13.1.36 6.55.36 11.79.37-2.62.36-3.93.36-13.1.36 7.86.36-13.1.37 19.65.36-5.24.36 3.93.36-14.41.36 1.31h.37l.36 13.1.36 9.17.36-11.79.36 1.31.37 5.24.36-15.72h.36l.36-5.24.37 17.03.36 1.31.36-11.79.36 14.41.36-14.41h.37l.36 10.48.36-17.03"/><use xlink:href="#6a1e8__f" color="#FFAB00" transform="matrix(3.75 0 0 3.75 125.4 69)"/><use xlink:href="#6a1e8__f" color="#FFAB00" transform="matrix(3.75 0 0 3.75 220.55 7.51)"/></g><text stroke-linecap="round" stroke-linejoin="round" color="#000" font-family="KaTeX_Main" font-size="8" transform="translate(241.1 25.11)"><tspan>WBSTRelaxed</tspan></text><g fill="none" stroke="currentColor" stroke-linecap="round" stroke-linejoin="round" color="#000"><path stroke="violet" stroke-dasharray="4.5,2.0,0.5,2.0,0.5,2.0" d="M205.6 22.51h29.9M28 97.85l.36-12.08.36 8.58.37-14.8.36-12.02.36-2.41.36 3.07.36.31.37 18.04.36-6.52.36-1.08.36 24.74.37-14.68.36-11.94.36 23.28.36-11.93.36-3.8.37 2.95.36-1.11.36-14.57.36 5.63.36 6.96.37-13.19.36 17.66.36-27.9.36 20.31.36.22.37-7.79.36 14.89.36-11.79.36-15.76.36 6.87.37 5.53.36 2.86.36 2.86.36 13.45.37 5.48.36-3.79.36-13.05.36-2.46.36-3.77.37 16.01.36-11.69.36 17.3.36-16.94.36 5.43.37-16.91.36 1.49.36 2.8.36 13.28.36-9.01.37-2.62.36-3.93.36-6.55.36 6.55.37 3.93.36-13.1.36 26.2.36-6.55.36-2.62.37-1.31.36-2.62.36 10.48.36-15.72.36 9.17.37 6.55.36-19.65.36 3.93.36 10.48.36-15.72.37 11.79h.36l.36-14.41.36 15.72.37-11.79.36-1.31.36 10.48.36-1.31.36 5.24h.37l.36-17.03.36 26.2.36-11.79.36 2.62.37-10.48.36 1.31h.36l.36-3.93.36 6.55.37-2.62.36-2.62.36-3.93.36 19.65.36-3.93.37 1.31.36-3.93.36 10.48.36-20.96.37 19.65.36-10.48.36 7.86.36-3.93.36-5.24.37-11.79.36 7.86.36 13.1.36-5.24.36-3.93.37-1.31.36 2.62.36-9.17.36 5.24.36 5.24.37-2.62.36 18.34.36 9.17.36-17.03.37-2.62.36 17.03.36-10.48.36 2.62.36-14.41.37 11.79.36 2.62.36-10.48.36 3.93.36 3.93.37-1.31.36 3.93.36-6.55.36 1.31.36-10.48.37 11.79.36-15.72.36 13.1.36-5.24.36 6.55.37-3.93.36-3.93.36-2.62.36 2.62.37 14.41.36-6.55.36-5.24.36 5.24.36-17.03.37 14.41.36-2.62.36-10.48.36 5.24.36-5.24.37 15.72.36-1.31.36-5.24.36-2.62.36 6.55h.37l.36-7.86.36 5.24.36-5.24.37-3.93.36 7.86.36-1.31.36 5.24.36 2.62h.37l.36-7.86.36 3.93h.72l.37-7.86.36-1.31.36 2.62.36-10.48.36-1.31.37 1.31.36 9.17.36 3.93.36-1.31.36-17.03.37 14.41.36 7.86L93.9 69l.36 14.41h.37l.36-22.27.36 15.72.36-1.31.36 3.93.37 10.48.36-13.1.36-11.79h.72l.37 10.48.36 1.31.36-1.31.36-1.31.36-10.48.37 13.1.36-5.24.36 10.48.36-10.48.37 9.17.36-3.93.36 6.55.36-6.55.36-7.86.37 10.48.36-11.79.36-6.55.36 35.37.36-10.48.37-3.93.36 7.86.36-7.86.36 7.86.36 2.62.37 1.31.36-11.79.36-1.31.36 10.48.37-14.41.36 14.41.36-13.1.36 1.31.36-9.17.37 2.62.36-1.31.36 9.17.36-1.31.36-2.62.37-2.62h.36l.36 7.86.36-15.72.36 19.65.37-10.48.36 13.1.36-19.65.36 1.31.36 3.93.37 2.62.36 7.86.36-10.48.36-3.93.37-6.55.36 13.1.36-6.55.36-1.31.36-1.31.37-1.31.36 1.31.36 7.86.36 5.24.36 3.93.37-17.03.36-6.55.36 5.24.36 1.31.36 2.62h.37l.36-3.93.36 10.48.36-6.55.37-5.24.36 13.1.36-2.62.36 2.62.36-1.31.37-6.55.36-2.62.36 5.24.36-3.93.36 6.55.37-6.55.36-6.55.36-6.55.36 14.41.36-11.79.37 10.48h.36l.36 1.31.36 9.17.36-22.27.37 23.58.36-9.17.36 7.86.36-20.96.37 23.58.36 5.24.36-20.96.36 5.24.36 6.55.37-9.17.36 1.31.36 6.55.36-14.41.36 13.1.37 7.86.36-9.17.36 14.41.36-24.89.36-3.93.37 15.72h.36l.36-5.24.36 1.31.37-2.62.36 2.62.36-15.72.36-1.31.36 13.1.37 6.55.36-11.79.36 10.48.36 7.86.36-9.17.37 5.24.36-9.17.36 1.31.36 11.79.36 5.24.37-15.72.36-7.86.36-2.62.36 11.79.36-5.24.37 7.86.36 7.86.36 1.31.36 6.55.37-2.62.36 1.31.36-7.86.36 7.86.36-2.62.37-9.17.36 3.93h.36l.36 5.24.36-6.55h.37l.36 14.41.36-5.24.36-13.1.36 13.1.37-11.79.36 1.31.36-9.17.36 6.55.37 1.31.36 2.62.36-2.62.36 6.55.36 5.24.37-15.72.36 1.31.36 5.24.36-5.24.36 10.48.37-11.79.36 13.1.36-18.34.36-1.31.36 2.62.37 5.24.36-5.24.36 19.65.36-19.65h.37l.36 6.55.36 10.48.36 6.55.36-18.34.37-7.86.36-2.62.36 9.17.36 13.1.36-22.27.37 3.93.36 5.24.36-3.93.36 17.03.36-17.03.37-1.31.36 6.55.36-3.93.36-5.24.36 1.31.37 22.27.36-32.75.36 30.13.36-27.51.37 23.58.36-10.48.36-9.17.36 3.93.36 17.03.37-15.72.36 11.79.36-17.03h.36l.36 14.41.37-1.31.36-14.41.36-2.62.36 11.79.36 9.17.37-7.86.36 20.96.36-7.86.36 9.17.37-3.93.36-6.55.36-5.24h.36l.36 3.93.37 7.86.36-2.62.36-18.34.36 7.86.36 7.86.37-3.93.36-1.31.36 14.41h.36l.36-10.48.37-15.72.36 23.58.36-14.41.36 17.03.36-27.51.37 13.1.36-5.24.36 10.48.36 6.55.37-11.79.36-3.93.36-5.24.36 10.48.36-11.79.37 14.41.36 11.79.36-28.82.36 11.79.36-7.86.37 20.96.36 3.93.36-18.34h.36l.36 7.86h.37l.36-14.41.36 1.31.36-2.62h.37l.36 13.1.36 2.62.36 3.93.36-10.48.37 7.86.36-5.24.36-1.31.36-17.03.36 9.17.37 15.72.36-23.58.36 11.79.36 11.79.36-9.17.37-11.79.36 1.31.36 10.48.36 1.31.37 2.62.36-5.24.36-9.17.36 18.34.36-1.31.37-9.17.36 9.17.36-20.96.36 3.93h.36l.37 9.17.36-1.31h.36l.36 2.62.36 10.48.37-3.93.36 3.93.36-17.03.36 2.62.36 7.86.37-9.17.36 9.17.36-1.31h.36l.37-7.86.36 2.62.36-3.93.36 3.93.36-14.41.37 11.79.36 5.24.36-13.1.36 20.96.36-2.62.37-5.24.36 19.65.36-6.55.36-9.17h.36l.37 5.24.36-11.79.36 17.03.36-17.03.37 15.72.36-5.24.36-3.93.36-1.31.36 2.62h.37l.36 5.24.36-22.27.36 20.96.36-6.55.37-15.72.36 18.34.36 7.86.36-24.89.36 6.55.37 2.62.36-5.24.36 10.48.36-10.48.36 19.65.37-9.17.36 11.79.36-15.72.36 9.17.37-14.41.36-1.31.36 7.86.36-6.55.36 2.62.37-1.31.36 5.24.36 11.79.36-11.79.36-2.62.37-13.1.36 20.96.36-6.55h.36l.36 6.55.37-11.79h.36l.36 7.86.36-9.17.37 9.17.36-7.86.36 13.1.36 6.55.36 6.55.37-2.62.36-13.1.36-1.31.36 11.79.36-2.62.37-1.31.36 6.55.36-17.03.36 10.48.36-3.93.37-7.86.36 1.31.36 6.55.36-3.93.36-1.31.37 2.62.36-2.62.36-9.17.36 9.17.37 6.55.36-15.72.36 11.79.36-6.55.36-3.93.37 15.72.36 3.93.36-20.96.36 10.48.36 2.62h.73l.36-13.1.36 6.55.36-6.55.37-5.24.36 23.58h.36l.36-6.55.37-2.62.36-9.17.36 2.62.36-1.31.36 11.79.37-11.79h.36l.36 3.93.36 7.86.36-9.17h.37l.36-1.31.36 9.17.36-11.79.36 11.79.37-6.55.36-6.55.36 7.86.36 7.86.37-10.48.36 5.24.36 10.48.36-14.41.36 1.31.37-7.86.36 2.62.36-1.31.36 6.55.36-5.24.37 1.31h.36l.36 9.17.36-6.55.36 3.93.37-5.24.36-14.41.36 11.79.36 11.79.36-11.79.37-3.93h.36l.36 3.93.36-7.86.37 7.86.36 6.55.36-1.31.36-7.86.36-11.79.37 9.17.36 1.31.36 11.79.36 2.62.36 3.93.37-6.55.36-2.62.36 2.62.36-5.24.36 11.79.37-14.41.36 2.62.36-9.17.36 13.1.37-22.27.36 15.72.36 14.41.36-27.51.36 23.58.37-2.62.36-7.86.36 6.55.36-9.17.36 13.1h.37l.36-9.17.36-6.55.36 2.62.36-1.31.37 3.93.36 11.79.36-15.72.36 11.79.36-10.48.37-3.93.36 19.65.36-11.79.36 5.24.37-5.24.36 9.17.36-3.93.36-14.41.36-3.93.37 9.17.36-7.86.36 10.48.36 1.31.36-7.86.37 14.41h.36l.36-6.55.36-3.93.36-6.55.37 10.48.36 1.31.36-7.86.36 3.93.37 5.24.36-6.55.36 17.03.36-11.79h.36l.37 9.17.36-17.03.36-2.62.36 10.48.36-3.93.37-6.55.36 7.86.36-7.86.36 5.24.36 5.24.37-14.41.36 10.48.36-10.48.36 1.31.36 5.24.37 30.13.36-14.41.36 13.1.36-15.72.37-2.62.36 10.48.36-7.86.36 13.1.36-3.93.37-19.65.36 3.93.36 15.72.36 2.62.36-9.17.37-5.24.36 9.17.36-7.86.36-9.17.36 13.1.37 11.79.36-14.41.36 6.55.36-13.1.37 3.93.36-2.62.36 10.48.36 9.17.36-13.1h.37l.36 5.24.36-10.48.36 15.72.36-9.17.37-6.55.36-7.86.36 6.55h.36l.36-13.1.37 13.1.36 6.55.36-13.1.36 11.79.37-2.62.36-3.93.36-2.62.36 11.79.36-1.31.37-9.17.36 7.86.36-13.1.36 13.1.36 1.31h.37l.36-15.72.36 13.1.36 2.62.36-6.55.37 6.55.36-10.48.36-9.17.36 7.86.36 10.48.37-6.55.36 11.79.36-20.96.36 14.41.37-2.62.36-15.72.36 26.2.36-7.86.36-10.48.37 13.1.36-20.96.36 9.17.36-1.31.36 19.65.37-6.55.36-19.65.36 6.55.36 10.48.36-13.1.37 11.79.36-10.48.36-1.31.36-5.24.37 3.93.36 1.31.36-10.48.36 23.58.36-7.86.37 1.31.36 3.93.36 5.24.36-5.24.36-17.03.37 19.65.36-18.34.36 24.89.36 1.31.36-3.93.37-1.31.36 2.62.36-3.93.36 9.17.36-1.31.37-17.03.36 2.62.36 6.55.36 5.24.37-7.86.36 3.93.36-1.31.36-2.62h.36l.37-1.31.36 6.55.36 2.62.36-20.96.36 17.03.37 1.31.36-2.62.36-7.86.36 17.03.36-3.93.37-10.48.36-5.24.36 1.31h.36l.37 5.24.36-3.93.36-3.93.36 18.34.36-17.03.37 10.48.36-3.93.36-2.62.36-2.62.36 17.03.37-14.41.36 1.31.36-10.48.36 22.27.36-6.55.37 13.1.36-14.41.36-3.93.36 3.93.36-2.62.37-5.24.36-6.55.36-7.86.36 19.65.37-14.41.36 19.65.36-15.72.36-3.93.36 22.27.37-10.48.36-6.55.36-3.93.36 15.72.36-9.17.37 9.17.36-15.72.36 14.41.36-1.31.36-1.31.37 3.93.36-6.55.36 3.93.36-3.93.37-9.17.36 13.1.36 9.17.36-7.86.36-13.1.37-7.86.36 19.65.36-1.31.36 10.48.36-13.1.37 15.72.36-9.17.36-15.72.36 13.1.36 2.62.37-7.86.36 7.86.36-15.72.36 3.93.37 13.1.36-13.1.36 6.55.36-11.79.36 1.31.37 22.27.36 1.31.36-6.55.36-3.93.36-6.55.37-10.48.36 9.17.36-1.31.36-5.24.36-6.55.37 9.17.36 1.31.36 15.72.36-23.58.36 10.48.37-9.17.36 13.1.36 17.03.36-10.48.37 3.93.36 5.24.36 2.62.36 3.93.36-7.86.37-2.62.36-9.17.36 15.72"/><use xlink:href="#6a1e8__g" color="violet" transform="matrix(3.75 0 0 3.75 182.98 67.69)"/><use xlink:href="#6a1e8__g" color="violet" transform="matrix(3.75 0 0 3.75 220.55 22.51)"/></g><path fill="none" d="M28 45.01V162.5M371.99 45.01H28" color="#000"/></svg>