<svg xmlns="http://www.w3.org/2000/svg" xmlns:xlink="http://www.w3.org/1999/xlink" viewBox="0 0 400 200"><path fill="none" d="M0 0h400v200H0z"/><defs><use xlink:href="#0cdf4__a" id="0cdf4__c" fill="currentColor" stroke="none"/><use xlink:href="#0cdf4__b" id="0cdf4__d" fill="currentColor" stroke="none"/><circle id="0cdf4__a" cx="0" cy="0" r="1" stroke="currentColor" stroke-width=".267"/><path id="0cdf4__b" stroke="currentColor" stroke-width=".267" d="m0-1.33-1.33 2h2.66z"/></defs><path fill="none" stroke="#CCC" stroke-linecap="round" stroke-linejoin="round" stroke-width=".1" d="M46.1 162.5V45.01" class="0cdf4__gridline" color="#000"/><g fill="none" stroke-linecap="round" stroke-linejoin="round" stroke-width="0" color="#000"><path d="M46.1 162.5V155m0-109.99v7.5"/><text fill="#000" font-family="KaTeX_Main" font-size="8" text-anchor="middle" transform="translate(46.1 172.6)"><tspan> 1</tspan></text></g><path fill="none" stroke="#CCC" stroke-linecap="round" stroke-linejoin="round" stroke-width=".1" d="M82.31 162.5V45.01" class="0cdf4__gridline" color="#000"/><g fill="none" stroke-linecap="round" stroke-linejoin="round" stroke-width="0" color="#000"><path d="M82.31 162.5V155m0-109.99v7.5"/><text fill="#000" font-family="KaTeX_Main" font-size="8" text-anchor="middle" transform="translate(82.31 172.6)"><tspan> 2</tspan></text></g><path fill="none" stroke="#CCC" stroke-linecap="round" stroke-linejoin="round" stroke-width=".1" d="M118.52 162.5V45.01" class="0cdf4__gridline" color="#000"/><g fill="none" stroke-linecap="round" stroke-linejoin="round" stroke-width="0" color="#000"><path d="M118.52 162.5V155m0-109.99v7.5"/><text fill="#000" font-family="KaTeX_Main" font-size="8" text-anchor="middle" transform="translate(118.52 172.6)"><tspan> 3</tspan></text></g><path fill="none" stroke="#CCC" stroke-linecap="round" stroke-linejoin="round" stroke-width=".1" d="M154.73 162.5V45.01" class="0cdf4__gridline" color="#000"/><g fill="none" stroke-linecap="round" stroke-linejoin="round" stroke-width="0" color="#000"><path d="M154.73 162.5V155m0-109.99v7.5"/><text fill="#000" font-family="KaTeX_Main" font-size="8" text-anchor="middle" transform="translate(154.73 172.6)"><tspan> 4</tspan></text></g><path fill="none" stroke="#CCC" stroke-linecap="round" stroke-linejoin="round" stroke-width=".1" d="M190.94 162.5V45.01" class="0cdf4__gridline" color="#000"/><g fill="none" stroke-linecap="round" stroke-linejoin="round" stroke-width="0" color="#000"><path d="M190.94 162.5V155m0-109.99v7.5"/><text fill="#000" font-family="KaTeX_Main" font-size="8" text-anchor="middle" transform="translate(190.94 172.6)"><tspan> 5</tspan></text></g><path fill="none" stroke="#CCC" stroke-linecap="round" stroke-linejoin="round" stroke-width=".1" d="M227.15 162.5V45.01" class="0cdf4__gridline" color="#000"/><g fill="none" stroke-linecap="round" stroke-linejoin="round" stroke-width="0" color="#000"><path d="M227.15 162.5V155m0-109.99v7.5"/><text fill="#000" font-family="KaTeX_Main" font-size="8" text-anchor="middle" transform="translate(227.15 172.6)"><tspan> 6</tspan></text></g><path fill="none" stroke="#CCC" stroke-linecap="round" stroke-linejoin="round" stroke-width=".1" d="M263.36 162.5V45.01" class="0cdf4__gridline" color="#000"/><g fill="none" stroke-linecap="round" stroke-linejoin="round" stroke-width="0" color="#000"><path d="M263.36 162.5V155m0-109.99v7.5"/><text fill="#000" font-family="KaTeX_Main" font-size="8" text-anchor="middle" transform="translate(263.36 172.6)"><tspan> 7</tspan></text></g><path fill="none" stroke="#CCC" stroke-linecap="round" stroke-linejoin="round" stroke-width=".1" d="M299.57 162.5V45.01" class="0cdf4__gridline" color="#000"/><g fill="none" stroke-linecap="round" stroke-linejoin="round" stroke-width="0" color="#000"><path d="M299.57 162.5V155m0-109.99v7.5"/><text fill="#000" font-family="KaTeX_Main" font-size="8" text-anchor="middle" transform="translate(299.57 172.6)"><tspan> 8</tspan></text></g><path fill="none" stroke="#CCC" stroke-linecap="round" stroke-linejoin="round" stroke-width=".1" d="M335.78 162.5V45.01" class="0cdf4__gridline" color="#000"/><g fill="none" stroke-linecap="round" stroke-linejoin="round" stroke-width="0" color="#000"><path d="M335.78 162.5V155m0-109.99v7.5"/><text fill="#000" font-family="KaTeX_Main" font-size="8" text-anchor="middle" transform="translate(335.78 172.6)"><tspan> 9</tspan></text></g><path fill="none" stroke="#CCC" stroke-linecap="round" stroke-linejoin="round" stroke-width=".1" d="M371.99 162.5V45.01" class="0cdf4__gridline" color="#000"/><g fill="none" stroke-linecap="round" stroke-linejoin="round" stroke-width="0" color="#000"><path d="M371.99 162.5V155m0-109.99v7.5"/><text fill="#000" font-family="KaTeX_Main" font-size="8" text-anchor="middle" transform="translate(371.99 172.6)"><tspan> 10</tspan></text></g><g fill="none" stroke-linecap="round" stroke-linejoin="round" stroke-width="0" color="#000"><path d="M371.99 162.5h-7.5"/><text fill="#000" font-family="KaTeX_Main" font-size="8" transform="translate(378.99 165.1)"><tspan>0.90</tspan></text></g><g fill="none" stroke-linecap="round" stroke-linejoin="round" stroke-width="0" color="#000"><path d="M371.99 150.75h-7.5"/><text fill="#000" font-family="KaTeX_Main" font-size="8" transform="translate(378.99 153.35)"><tspan>1.00</tspan></text></g><g fill="none" stroke-linecap="round" stroke-linejoin="round" stroke-width="0" color="#000"><path d="M371.99 139h-7.5"/><text fill="#000" font-family="KaTeX_Main" font-size="8" transform="translate(378.99 141.6)"><tspan>1.10</tspan></text></g><g fill="none" stroke-linecap="round" stroke-linejoin="round" stroke-width="0" color="#000"><path d="M371.99 127.25h-7.5"/><text fill="#000" font-family="KaTeX_Main" font-size="8" transform="translate(378.99 129.85)"><tspan>1.20</tspan></text></g><g fill="none" stroke-linecap="round" stroke-linejoin="round" stroke-width="0" color="#000"><path d="M371.99 115.5h-7.5"/><text fill="#000" font-family="KaTeX_Main" font-size="8" transform="translate(378.99 118.1)"><tspan>1.30</tspan></text></g><g fill="none" stroke-linecap="round" stroke-linejoin="round" stroke-width="0" color="#000"><path d="M371.99 103.75h-7.5"/><text fill="#000" font-family="KaTeX_Main" font-size="8" transform="translate(378.99 106.35)"><tspan>1.40</tspan></text></g><g fill="none" stroke-linecap="round" stroke-linejoin="round" stroke-width="0" color="#000"><path d="M371.99 92.01h-7.5"/><text fill="#000" font-family="KaTeX_Main" font-size="8" transform="translate(378.99 94.61)"><tspan>1.50</tspan></text></g><g fill="none" stroke-linecap="round" stroke-linejoin="round" stroke-width="0" color="#000"><path d="M371.99 80.26h-7.5"/><text fill="#000" font-family="KaTeX_Main" font-size="8" transform="translate(378.99 82.86)"><tspan>1.60</tspan></text></g><g fill="none" stroke-linecap="round" stroke-linejoin="round" stroke-width="0" color="#000"><path d="M371.99 68.51h-7.5"/><text fill="#000" font-family="KaTeX_Main" font-size="8" transform="translate(378.99 71.11)"><tspan>1.70</tspan></text></g><g fill="none" stroke-linecap="round" stroke-linejoin="round" stroke-width="0" color="#000"><path d="M371.99 56.76h-7.5"/><text fill="#000" font-family="KaTeX_Main" font-size="8" transform="translate(378.99 59.36)"><tspan>1.80</tspan></text></g><g fill="none" stroke-linecap="round" stroke-linejoin="round" stroke-width="0" color="#000"><path d="M371.99 45.01h-7.5"/><text fill="#000" font-family="KaTeX_Main" font-size="8" transform="translate(378.99 47.61)"><tspan>1.90</tspan></text></g><path fill="none" d="M28 45.01V162.5M371.99 45.01H28" color="#000"/><text stroke-linecap="round" stroke-linejoin="round" stroke-width="0" color="#000" font-family="KaTeX_Main" font-size="10" text-anchor="middle" transform="rotate(-90 57.63 46.13)"><tspan font-weight="bold">Maximum Path Length </tspan><tspan> / log</tspan><tspan dy="3" font-size="8">2</tspan><tspan dy="-3">(Size)</tspan></text><text stroke-linecap="round" stroke-linejoin="round" stroke-width="0" color="#000" font-family="KaTeX_Main" font-size="10" text-anchor="middle" transform="translate(199.99 195.75)"><tspan>Operations / 10</tspan><tspan dy="-5" font-size="8">6</tspan></text><text stroke-linecap="round" stroke-linejoin="round" color="#000" font-family="KaTeX_Main" font-size="8" transform="translate(132.8 10.11)"><tspan>LBSTBottomUp</tspan></text><g fill="none" stroke="currentColor" stroke-linecap="round" stroke-linejoin="round" color="#000"><path stroke="#3B75EA" d="M97.3 7.51h29.9M28 156.53l.36.17.36.17.37-6.02.36.16.36.17.36.16.36.15.37.16.36.15.36.14.36.15.37.14.36.14.36.13.36.14.36.13.37.13.36.13.36.12.36.12.36.13.37.11.36.12.36.12.36.11.36.11.37.11.36.11.36.11.36.1.36.11.37.1.36.1.36.1.36.1.37.1.36.09.36.1.36.09.36.09.37.09.36.09.36.09.36.09.36.08.37.09.36.08.36.09.36.08.36.08h3.26l.37-5.89h15.2l.37 5.89h3.25l.37-5.89h14.84l.36 5.89h3.26l.37-5.89h15.2l.37 5.89h3.25l.37-5.89h14.84l.36 5.89h3.26l.37-5.89h15.2l.37 5.89h2.89l.36-5.89h15.21l.36 5.89h3.26l.37-5.89h15.2l.37 5.89h2.89l.36-5.89h15.21l.36 5.89h3.26l.37-5.89h14.84l.36 5.89h3.26l.36-5.89h15.21l.36 5.89h3.26l.37-5.89h14.84l.36 5.89h3.26l.36-5.89h15.21l.36 5.89h2.9l.36-5.89h15.21l.36 5.89h3.26l.36-5.89h15.21l.36 5.89h2.9l.36-5.89h15.21l.36 5.89h3.26l.36-5.89h14.85l.36 5.89h3.26l.36-5.89h15.21l.36 5.89h2.9"/><use xlink:href="#0cdf4__a" color="#3B75EA" transform="matrix(3.75 0 0 3.75 354.25 150.35)"/><use xlink:href="#0cdf4__a" color="#3B75EA" transform="matrix(3.75 0 0 3.75 112.25 7.51)"/></g><text stroke-linecap="round" stroke-linejoin="round" color="#000" font-family="KaTeX_Main" font-size="8" transform="translate(132.8 25.11)"><tspan>LBSTTopDown</tspan></text><g fill="none" stroke="currentColor" stroke-linecap="round" stroke-linejoin="round" color="#000"><path stroke="#00C853" stroke-dasharray="1.0,2.0" d="M97.3 22.51h29.9M28 51.03l.36.33.36.32.37-5.87.36.32.36.31.36.3.36.29.37.29.36.29.36.27.36.28.37.27.36.26.36.26.36.25.36.25.37.25.36.24.36.24.36.23.36.23.37.22.36.23.36.22.36.21.36.21.37.21.36.21.36-5.8.36.21.36.2.37.2.36.2.36.19.36.19.37.19.36.19.36.18.36.18.36.18.37.18.36.17.36.18.36.17.36.17.37.16.36.17.36.16.36.16.36.16.37 5.89h2.89l.37-5.89h15.2l.37 5.89h3.25l.37-5.89h14.84l.36 5.89h3.26l.37-5.89h15.2l.37 5.89h3.25l.37-5.89h14.84l.36 5.89h3.26l.37-5.89h15.2l.37 5.89h2.89l.36-5.89h15.21l.36 5.89h3.26l.37-5.89h15.2l.37 5.89h2.89l.36-5.89h15.21l.36 5.89h3.26l.37-5.89h14.84l.36 5.89h3.26l.36-5.89h15.21l.36 5.89h3.26l.37-5.89h14.84l.36 5.89h3.26l.36-5.89h15.21l.36 5.89h2.9l.36-5.89h15.21l.36 5.89h3.26l.36-5.89h15.21l.36 5.89h2.9l.36-5.89h15.21l.36 5.89h3.26l.36-5.89h14.85l.36 5.89h3.26l.36-5.89h15.21l.36 5.89h2.9"/><use xlink:href="#0cdf4__c" color="#00C853" transform="matrix(3.75 0 0 3.75 67.83 56.03)"/><use xlink:href="#0cdf4__c" color="#00C853" transform="matrix(3.75 0 0 3.75 112.25 22.51)"/></g><text stroke-linecap="round" stroke-linejoin="round" color="#000" font-family="KaTeX_Main" font-size="8" transform="translate(241.1 10.11)"><tspan>WBSTBottomUp</tspan></text><g fill="none" stroke="currentColor" stroke-linecap="round" stroke-linejoin="round" color="#000"><path stroke="#000" d="M205.6 7.51h29.9M28 119.3l.36-5.98.36-18.33.37 24.96.36-12.13.36 6.39.36 6.36.36-5.95.37-5.93.36 18.59.36-18.19.36-5.91.37-5.91.36.21.36 30.66.36-24.18.36 24.5.37-18.06.36 18.37.36-18.02.36-5.88.36-5.88.37 6.22.36 6.2.36.15.36-11.88.36 12.19.37-29.89.36 12.19.36 12.15.36 18.13.36-5.86.37 6.12.36-11.83.36 6.11.36-11.8.37-5.82.36 6.09.36.14.36 6.08.36-17.7.37 6.08.36 17.92.36-5.81.36-17.64.36-11.7.37 35.61.36-11.71.36.12.36-5.78.36 17.8.37-23.57.36 5.89.36-11.79.36 29.47.37-23.57.36-5.9h.36l.36 11.79.36 5.9.37 17.68.36-5.9h.36l.36 11.79.36-23.57.37-5.9.36 5.9.36 5.89h.36l.36-11.79.37 11.79.36-11.79.36-17.68.36 23.58.37 11.78.36-5.89.36-5.89h.36l.36 5.89.37-11.79.36 11.79.36-29.47.36 23.58.36-5.9h.37l.36-17.68.36 41.26.36-17.68.36 5.89.37-29.47.36 23.58.36 5.89.36-11.79.36 11.79.37-11.79.36 5.9h.36l.36-5.9.37-5.89.36-11.79.36 23.58.36-5.9.36-5.89h.37l.36 5.89.36-5.89.36 35.36.36-29.47h.37l.36 5.9h.36l.36-11.79.36-5.9.37 29.47.36 11.79.36-29.47.36 11.79.37-17.68.36 17.68.36-5.89h.36l.36-11.79.37 35.36.36-11.79.36-17.68.36-5.89.36 17.68.37 5.89.36-17.68.36 5.9h.36l.36 5.89.37-5.89.36-11.79.36 5.89.36-11.79.36 5.9.37-5.9.36 17.69.36 11.78.36 11.79.37-29.47.36 11.79.36-11.79h.36l.36 5.9.37 5.89.36-5.89.36-5.9.36-17.68.36 17.68.37-17.68.36 23.58.36-23.58.36 29.47h.36l.37-5.89.36-5.9.36-11.79.36 17.69.37-5.9.36-5.89.36 5.89.36 5.9.36-11.79.37 29.47.36-17.68.36-5.9.36 11.79.36-11.79.37 23.58.36-23.58.36 23.58.36-11.79.36 5.89.37-17.68.36-5.89h.36l.36 29.47.36-17.68h.37l.36 5.89h.36l.36-23.58h.73l.36 29.47.36-11.78h.36l.37-11.79.36 11.79.36 17.68.36-23.58h.73l.36 11.79.36-11.79.36-5.89.36 11.79.37 5.89.36-23.58h.36l.36 17.69.37-11.79.36 29.47.36-23.58.36 11.79.36-17.68.37 17.68.36-23.58.36 11.79.36 5.9.36-5.9.37-5.89.36 11.79.36-11.79h.36l.36-29.48.37 58.95.36-5.9.36-5.89h.36l.37 5.89.36-11.78.36 11.78.36-11.78.36-5.9.37 11.79.36-11.79h.36l.36-11.79.36 23.58.37-5.89.36-5.9.36 23.58.36-29.47.36 11.79h.37l.36 5.89.36-17.68.36 17.68.36-17.68.37 17.68.36-29.47.36 23.58h.73l.36-5.9.36-5.89h.36l.36 29.47.37-5.9.36-17.68.36-11.79.36 17.69.36-5.9.37-11.79.36 11.79.36 17.68.36-11.78.36-11.79.37-5.9h.36l.36 23.58.36-17.68h.37l.36 11.79.36 5.89h.36l.36-29.47.37 41.26.36-17.68.36 11.78.36-11.78.36 11.78.37-11.78.36 23.57.36-29.47.36 5.9.36-11.79.37 5.89.36-5.89.36 11.79.36 17.68.36-11.79.37 5.89.36-5.89.36-11.79h.36l.37-11.79.36 23.58.36-5.89.36-5.9h.36l.37-17.68.36 5.89.36 17.69.36-5.9.36 17.68h.37l.36-5.89.36-5.89h.36l.36-11.79.37 11.79.36-17.69.36 23.58.36-23.58.37 11.79.36 5.9.36 5.89.36-23.58.36-5.89.37 5.89.36 17.69h.72l.36 5.89.37-5.89.36 5.89.36-23.58.36-5.89.36 47.15.37-11.79.36-5.89.36-11.79.36 17.68.36-5.89.37-23.58.36 11.79.36 11.79h.36l.37 5.89.36-17.68.36 5.9.36 17.68.36-5.9.37-23.57.36 11.79.36-5.9.36 11.79.36-23.58.37 23.58.36-17.68.36 11.79.36-17.69.36 11.79h.37l.36-11.79.36 29.47.36-5.89.37-5.89h.36l.36 5.89.36-11.79.36 5.9.37-5.9.36-5.89.36 11.79.36-11.79h.36l.37-11.79.36 47.15.36-23.57.36-5.9h.73l.36-5.89.36 17.68.36-11.79.37 11.79.36-29.47.36 17.68.36-11.79.36 5.9.37 11.79.36 11.78.36-17.68.36 29.47.36-11.79.37-17.68.36 17.68.36-5.89h.36l.36-17.68.37 11.79.36 5.89.36-5.89h.36l.36-11.79.37 11.79h.36l.36-11.79.36-5.9.37 41.26.36-17.68.36 5.89.36-29.47.36 11.79h.37l.36-5.89.36 11.79.36 5.89h.36l.37 5.89.36-29.47.36 11.79.36-17.68.36 23.58.37-17.69.36 17.69h.36l.36 5.89.37-11.79.36 5.9.36-5.9.36-5.89.36 11.79.37-5.9h.36l.36-5.89.36 17.68.36-11.79.37-11.79.36 5.9.36-11.79.36 29.47.36 11.79h.37l.36-11.79.36 23.58.36-29.47h.36l.37-11.79.36 23.57.36-5.89.36-5.89h.73l.36-23.58.36 29.47.36-17.68.37 23.57.36-11.78.36 5.89.36-5.89h.36l.37 5.89.36-23.58.36 5.9.36 11.79.36-5.9.37-11.79.36 29.47.36-5.89h.36l.37-23.58h.36l.36 29.47.36-17.68.36 17.68.37-23.57.36 17.68.36-5.89h.36l.36-23.58.37 5.89.36 17.69h.36l.36-17.69.36 11.79h.73l.36-11.79.36 17.69.37-5.9.36 11.79.36-11.79h.36l.36-11.79.37 35.37.36-5.9.36-11.78.36 5.89.36-11.79.37 5.9.36 5.89.36-5.89.36-5.9.36 11.79.37 11.79.36-23.58h.36l.36 5.9.36 17.68.37-23.58.36 11.79.36-17.68.36 23.57.37-11.78.36-5.9.36-5.89h1.09l.36-11.79.36 41.26.36 5.89.36-23.57h.73l.36-5.9.36 11.79.36-11.79.37 11.79.36-11.79.36-11.79.36 5.9.37-5.9.36 17.69.36-17.69.36 5.9.36 23.57.37-11.78h.36l.36-23.58.36 29.47.36-11.79h.37l.36-11.79.36 23.58.36-17.68.36 35.36.37-29.47.36 5.9.36 5.89.36-5.89.36-11.79.37 11.79.36 17.68.36-5.9.36-5.89.37-5.89.36-11.79.36 5.89.36 11.79h.36l.37-5.89.36 11.78.36-11.78.36-11.79.36-5.9.37 5.9.36 5.89.36 11.79.36-5.89.36-5.9h.37l.36 29.47.36-29.47.36 5.9.37-17.69.36 29.47.36-17.68h.72l.37 17.68.36-29.47.36 5.9.36-11.79.36 17.68.37 23.58.36-17.68h.36l.36-5.9.36 11.79.37-17.68.36-5.9.36 23.58.36-11.79h1.09l.36-5.89.36-23.58.37 35.37.36 17.68.36-11.79.36 5.89.36-5.89h.37l.36 5.89.36-5.89.36-23.58.36 29.47.37-17.68.36 5.9.36-23.58.36 35.36.36-11.78h.37l.36-17.69.36 11.79.36 5.9.37 5.89.36-5.89.36-5.9.36 11.79.36-11.79h.37l.36-11.79.36 17.69.36 5.89.36-11.79.37 5.9.36-11.79.36 5.89.36 5.9.36 17.68.37-23.58.36-5.89.36 5.89.36 5.9.37-17.69.36 17.69h.36l.36 5.89.36-17.68h.37l.36-11.79.36 35.36.36-23.57.36 5.89.37-17.68.36 35.36.36-5.89.36-23.58.36 29.47.37-5.89.36 5.89.36-5.89.36-5.89.36 5.89.37 17.68.36-23.57.36-5.9h1.09L263 91.4l.36 41.26.36-17.68.37 11.79.36-17.68h.36l.36-5.9.36-5.89.37 5.89.36 11.79.36-11.79.36 5.9.36-29.48.37 17.69.36 11.79h.36l.36-17.69.37 35.37.36-11.79h.36l.36-11.79h.36l.37 5.9.36-11.79.36 5.89.36-5.89.36 5.89.37 11.79.36-5.89.36-11.79.36-11.79.36 11.79.37-5.9.36 23.58.36-5.89.36 11.78.36-17.68.37 17.68.36-29.47h.36l.36 29.47.37 5.9.36-11.79.36-5.89.36 5.89.36 5.89.37-29.47.36 17.69.36-17.69.36 29.47h.36l.37-11.78.36-5.9.36 29.47.36-11.79.36-17.68.37-5.89.36 11.79.36 5.89.36-17.68.37 11.79.36-5.9.36 5.9.36-11.79.36-11.79.37 23.58.36-17.69.36 35.37.36-17.68.36 5.89.37-5.89.36 11.78.36-29.47.36 23.58.36-11.79h1.09l.36-5.89.36-5.9.37-5.89.36 29.47.36-11.79.36 5.9.37-11.79.36 5.89.36 11.79.36-5.89.36-5.9.37-11.79.36 11.79.36-5.89.36-5.9.36 23.58.37 5.89.36-11.78.36 5.89.36 11.79.36-23.58.37 23.58.36-17.68.36 11.78.36-23.57.37 17.68.36-11.79.36 11.79.36-5.89.36-5.9h.37l.36 11.79.36-17.68h.36l.36 11.79.37 11.78h.36l.36-23.57h.36l.36 11.79.37-11.79.36 17.68.36-11.79.36 17.68h.37l.36-23.57h.36l.36-5.9.36 17.69.37-11.79.36-5.9.36 23.58h.36l.36-5.89.37-5.9.36 5.9.36-11.79.36 17.68.36-23.58.37 17.69.36-11.79.36 23.57.36-23.57h.73l.36-5.9.36-5.89.36 47.15.37-5.89.36-5.9.36 11.79.36-17.68.36-5.89.37-5.9.36 5.9.36 11.78.36-11.78.36 5.89.37-11.79.36-11.79.36 23.58.36-11.79h.36l.37 11.79h.72l.36-11.79.37 17.68.36-29.47.36 11.79.36-5.89.36 11.79.37-17.69.36 35.37.36-17.68.36 11.78.36-29.47.37 5.9h.36l.36 11.79.36 11.78.36-17.68.37 5.9.36 5.89.36-5.89.36-17.69.36-11.79.37 35.37.36-5.89.36-11.79h.36l.37 11.79.36-5.9.36-5.89.36-5.9.36 17.69.37 5.89.36-5.89.36-11.79h.36l.36 29.47h.37l.36-29.47.36 23.57.36-17.68.36 11.79.37-5.89.36 5.89.36-11.79.36 17.68.37-29.47.36 17.69.36-5.9.36 11.79.36 5.89.37-11.78.36 5.89.36-11.79.36 5.9.36 5.89.37-11.79h.36l.36-11.79.36 11.79.36-5.89.37-5.9.36 17.69.36 29.47.36-29.47.36 5.89.37-11.79.36 5.9.36 5.89.36-5.89.37-5.9.36 5.9.36-17.69.36 11.79.36-17.68.37 29.47.36-23.58.36 11.79.36-5.89.36 17.68.37-5.89.36-17.69.36 17.69h.36l.36-5.9.37-5.89.36 5.89h.36l.36 29.47.37-23.57.36-5.9.36 17.68.36-11.78.36-5.9.37-11.79.36 41.26.36-11.79h.36l.36-17.68h.73l.36 17.68.36-17.68.36 11.79.37 5.89.36-5.89.36-23.58.36 5.9h.37l.36 11.79.36-23.58.36 29.47.36-11.79.37 5.9.36 17.68.36-17.68h.36l.36-11.79.37 11.79h.36l.36-5.9.36 5.9.36 5.89.37-17.68h.36l.36-5.9.36-5.89.36 47.15.37-23.57.36 5.89.36-17.68.36 23.57.37-23.57h.36l.36 5.89.36 5.9.36-5.9.37 5.9.36-11.79.36 5.89"/><use xlink:href="#0cdf4__b" transform="matrix(3.75 0 0 3.75 125.4 85.51)"/><use xlink:href="#0cdf4__b" transform="matrix(3.75 0 0 3.75 220.55 7.51)"/></g><text stroke-linecap="round" stroke-linejoin="round" color="#000" font-family="KaTeX_Main" font-size="8" transform="translate(241.1 25.11)"><tspan>WBSTTopDown</tspan></text><g fill="none" stroke="currentColor" stroke-linecap="round" stroke-linejoin="round" color="#000"><path stroke="#29C3F6" stroke-dasharray="4.0,2.0,1.0,2.0" d="M205.6 22.51h29.9M28 119.3l.36-5.98.36-18.33.37 24.96.36-12.13.36 6.39.36 6.36.36-5.95.37-5.93.36 18.59.36-18.19.36-5.91.37-5.91.36.21.36 30.66.36-24.18.36 24.5.37-18.06.36 18.37.36-18.02.36-5.88.36-5.88.37 6.22.36 6.2.36.15.36-11.88.36 12.19.37-29.89.36 12.19.36 12.15.36 18.13.36-5.86.37 6.12.36-11.83.36 6.11.36-11.8.37-5.82.36 6.09.36.14.36 6.08.36-17.7.37 6.08.36 17.92.36-5.81.36-17.64.36-11.7.37 35.61.36-11.71.36.12.36-5.78.36 17.8.37-23.57.36 5.89.36-11.79.36 29.47.37-23.57.36-5.9h.36l.36 11.79.36 5.9.37 17.68.36-5.9h.36l.36 11.79.36-23.57.37-5.9.36 5.9.36 5.89h.36l.36-11.79.37 11.79.36-11.79.36-17.68.36 23.58.37 11.78.36-5.89.36-5.89h.36l.36 5.89.37-11.79.36 11.79.36-29.47.36 23.58.36-5.9h.37l.36-17.68.36 41.26.36-17.68.36 5.89.37-29.47.36 23.58.36 5.89.36-11.79.36 11.79.37-11.79.36 5.9h.36l.36-5.9.37-5.89.36-11.79.36 23.58.36-5.9.36-5.89h.37l.36 5.89.36-5.89.36 35.36.36-29.47h.37l.36 5.9h.36l.36-11.79.36-5.9.37 29.47.36 11.79.36-29.47.36 11.79.37-17.68.36 17.68.36-5.89h.36l.36-11.79.37 35.36.36-11.79.36-17.68.36-5.89.36 17.68.37 5.89.36-17.68.36 5.9h.36l.36 5.89.37-5.89.36-11.79.36 5.89.36-11.79.36 5.9.37-5.9.36 17.69.36 11.78.36 11.79.37-29.47.36 11.79.36-11.79h.36l.36 5.9.37 5.89.36-5.89.36-5.9.36-17.68.36 17.68.37-17.68.36 23.58.36-23.58.36 29.47h.36l.37-5.89.36-5.9.36-11.79.36 17.69.37-5.9.36-5.89.36 5.89.36 5.9.36-11.79.37 29.47.36-17.68.36-5.9.36 11.79.36-11.79.37 23.58.36-23.58.36 23.58.36-11.79.36 5.89.37-17.68.36-5.89h.36l.36 29.47.36-17.68h.37l.36 5.89h.36l.36-23.58h.73l.36 29.47.36-11.78h.36l.37-11.79.36 11.79.36 17.68.36-23.58h.73l.36 11.79.36-11.79.36-5.89.36 11.79.37 5.89.36-23.58h.36l.36 17.69.37-11.79.36 29.47.36-23.58.36 11.79.36-17.68.37 17.68.36-23.58.36 11.79.36 5.9.36-5.9.37-5.89.36 11.79.36-11.79h.36l.36-29.48.37 58.95.36-5.9.36-5.89h.36l.37 5.89.36-11.78.36 11.78.36-11.78.36-5.9.37 11.79.36-11.79h.36l.36-11.79.36 23.58.37-5.89.36-5.9.36 23.58.36-29.47.36 11.79h.37l.36 5.89.36-17.68.36 17.68.36-17.68.37 17.68.36-29.47.36 23.58h.73l.36-5.9.36-5.89h.36l.36 29.47.37-5.9.36-17.68.36-11.79.36 17.69.36-5.9.37-11.79.36 11.79.36 17.68.36-11.78.36-11.79.37-5.9h.36l.36 23.58.36-17.68h.37l.36 11.79.36 5.89h.36l.36-29.47.37 41.26.36-17.68.36 11.78.36-11.78.36 11.78.37-11.78.36 23.57.36-29.47.36 5.9.36-11.79.37 5.89.36-5.89.36 11.79.36 17.68.36-11.79.37 5.89.36-5.89.36-11.79h.36l.37-11.79.36 23.58.36-5.89.36-5.9h.36l.37-17.68.36 5.89.36 17.69.36-5.9.36 17.68h.37l.36-5.89.36-5.89h.36l.36-11.79.37 11.79.36-17.69.36 23.58.36-23.58.37 11.79.36 5.9.36 5.89.36-23.58.36-5.89.37 5.89.36 17.69h.72l.36 5.89.37-5.89.36 5.89.36-23.58.36-5.89.36 47.15.37-11.79.36-5.89.36-11.79.36 17.68.36-5.89.37-23.58.36 11.79.36 11.79h.36l.37 5.89.36-17.68.36 5.9.36 17.68.36-5.9.37-23.57.36 11.79.36-5.9.36 11.79.36-23.58.37 23.58.36-17.68.36 11.79.36-17.69.36 11.79h.37l.36-11.79.36 29.47.36-5.89.37-5.89h.36l.36 5.89.36-11.79.36 5.9.37-5.9.36-5.89.36 11.79.36-11.79h.36l.37-11.79.36 47.15.36-23.57.36-5.9h.73l.36-5.89.36 17.68.36-11.79.37 11.79.36-29.47.36 17.68.36-11.79.36 5.9.37 11.79.36 11.78.36-17.68.36 29.47.36-11.79.37-17.68.36 17.68.36-5.89h.36l.36-17.68.37 11.79.36 5.89.36-5.89h.36l.36-11.79.37 11.79h.36l.36-11.79.36-5.9.37 41.26.36-17.68.36 5.89.36-29.47.36 11.79h.37l.36-5.89.36 11.79.36 5.89h.36l.37 5.89.36-29.47.36 11.79.36-17.68.36 23.58.37-17.69.36 17.69h.36l.36 5.89.37-11.79.36 5.9.36-5.9.36-5.89.36 11.79.37-5.9h.36l.36-5.89.36 17.68.36-11.79.37-11.79.36 5.9.36-11.79.36 29.47.36 11.79h.37l.36-11.79.36 23.58.36-29.47h.36l.37-11.79.36 23.57.36-5.89.36-5.89h.73l.36-23.58.36 29.47.36-17.68.37 23.57.36-11.78.36 5.89.36-5.89h.36l.37 5.89.36-23.58.36 5.9.36 11.79.36-5.9.37-11.79.36 29.47.36-5.89h.36l.37-23.58h.36l.36 29.47.36-17.68.36 17.68.37-23.57.36 17.68.36-5.89h.36l.36-23.58.37 5.89.36 17.69h.36l.36-17.69.36 11.79h.73l.36-11.79.36 17.69.37-5.9.36 11.79.36-11.79h.36l.36-11.79.37 35.37.36-5.9.36-11.78.36 5.89.36-11.79.37 5.9.36 5.89.36-5.89.36-5.9.36 11.79.37 11.79.36-23.58h.36l.36 5.9.36 17.68.37-23.58.36 11.79.36-17.68.36 23.57.37-11.78.36-5.9.36-5.89h1.09l.36-11.79.36 41.26.36 5.89.36-23.57h.73l.36-5.9.36 11.79.36-11.79.37 11.79.36-11.79.36-11.79.36 5.9.37-5.9.36 17.69.36-17.69.36 5.9.36 23.57.37-11.78h.36l.36-23.58.36 29.47.36-11.79h.37l.36-11.79.36 23.58.36-17.68.36 35.36.37-29.47.36 5.9.36 5.89.36-5.89.36-11.79.37 11.79.36 17.68.36-5.9.36-5.89.37-5.89.36-11.79.36 5.89.36 11.79h.36l.37-5.89.36 11.78.36-11.78.36-11.79.36-5.9.37 5.9.36 5.89.36 11.79.36-5.89.36-5.9h.37l.36 29.47.36-29.47.36 5.9.37-17.69.36 29.47.36-17.68h.72l.37 17.68.36-29.47.36 5.9.36-11.79.36 17.68.37 23.58.36-17.68h.36l.36-5.9.36 11.79.37-17.68.36-5.9.36 23.58.36-11.79h1.09l.36-5.89.36-23.58.37 35.37.36 17.68.36-11.79.36 5.89.36-5.89h.37l.36 5.89.36-5.89.36-23.58.36 29.47.37-17.68.36 5.9.36-23.58.36 35.36.36-11.78h.37l.36-17.69.36 11.79.36 5.9.37 5.89.36-5.89.36-5.9.36 11.79.36-11.79h.37l.36-11.79.36 17.69.36 5.89.36-11.79.37 5.9.36-11.79.36 5.89.36 5.9.36 17.68.37-23.58.36-5.89.36 5.89.36 5.9.37-17.69.36 17.69h.36l.36 5.89.36-17.68h.37l.36-11.79.36 35.36.36-23.57.36 5.89.37-17.68.36 35.36.36-5.89.36-23.58.36 29.47.37-5.89.36 5.89.36-5.89.36-5.89.36 5.89.37 17.68.36-23.57.36-5.9h1.09L263 91.4l.36 41.26.36-17.68.37 11.79.36-17.68h.36l.36-5.9.36-5.89.37 5.89.36 11.79.36-11.79.36 5.9.36-29.48.37 17.69.36 11.79h.36l.36-17.69.37 35.37.36-11.79h.36l.36-11.79h.36l.37 5.9.36-11.79.36 5.89.36-5.89.36 5.89.37 11.79.36-5.89.36-11.79.36-11.79.36 11.79.37-5.9.36 23.58.36-5.89.36 11.78.36-17.68.37 17.68.36-29.47h.36l.36 29.47.37 5.9.36-11.79.36-5.89.36 5.89.36 5.89.37-29.47.36 17.69.36-17.69.36 29.47h.36l.37-11.78.36-5.9.36 29.47.36-11.79.36-17.68.37-5.89.36 11.79.36 5.89.36-17.68.37 11.79.36-5.9.36 5.9.36-11.79.36-11.79.37 23.58.36-17.69.36 35.37.36-17.68.36 5.89.37-5.89.36 11.78.36-29.47.36 23.58.36-11.79h1.09l.36-5.89.36-5.9.37-5.89.36 29.47.36-11.79.36 5.9.37-11.79.36 5.89.36 11.79.36-5.89.36-5.9.37-11.79.36 11.79.36-5.89.36-5.9.36 23.58.37 5.89.36-11.78.36 5.89.36 11.79.36-23.58.37 23.58.36-17.68.36 11.78.36-23.57.37 17.68.36-11.79.36 11.79.36-5.89.36-5.9h.37l.36 11.79.36-17.68h.36l.36 11.79.37 11.78h.36l.36-23.57h.36l.36 11.79.37-11.79.36 17.68.36-11.79.36 17.68h.37l.36-23.57h.36l.36-5.9.36 17.69.37-11.79.36-5.9.36 23.58h.36l.36-5.89.37-5.9.36 5.9.36-11.79.36 17.68.36-23.58.37 17.69.36-11.79.36 23.57.36-23.57h.73l.36-5.9.36-5.89.36 47.15.37-5.89.36-5.9.36 11.79.36-17.68.36-5.89.37-5.9.36 5.9.36 11.78.36-11.78.36 5.89.37-11.79.36-11.79.36 23.58.36-11.79h.36l.37 11.79h.72l.36-11.79.37 17.68.36-29.47.36 11.79.36-5.89.36 11.79.37-17.69.36 35.37.36-17.68.36 11.78.36-29.47.37 5.9h.36l.36 11.79.36 11.78.36-17.68.37 5.9.36 5.89.36-5.89.36-17.69.36-11.79.37 35.37.36-5.89.36-11.79h.36l.37 11.79.36-5.9.36-5.89.36-5.9.36 17.69.37 5.89.36-5.89.36-11.79h.36l.36 29.47h.37l.36-29.47.36 23.57.36-17.68.36 11.79.37-5.89.36 5.89.36-11.79.36 17.68.37-29.47.36 17.69.36-5.9.36 11.79.36 5.89.37-11.78.36 5.89.36-11.79.36 5.9.36 5.89.37-11.79h.36l.36-11.79.36 11.79.36-5.89.37-5.9.36 17.69.36 29.47.36-29.47.36 5.89.37-11.79.36 5.9.36 5.89.36-5.89.37-5.9.36 5.9.36-17.69.36 11.79.36-17.68.37 29.47.36-23.58.36 11.79.36-5.89.36 17.68.37-5.89.36-17.69.36 17.69h.36l.36-5.9.37-5.89.36 5.89h.36l.36 29.47.37-23.57.36-5.9.36 17.68.36-11.78.36-5.9.37-11.79.36 41.26.36-11.79h.36l.36-17.68h.73l.36 17.68.36-17.68.36 11.79.37 5.89.36-5.89.36-23.58.36 5.9h.37l.36 11.79.36-23.58.36 29.47.36-11.79.37 5.9.36 17.68.36-17.68h.36l.36-11.79.37 11.79h.36l.36-5.9.36 5.9.36 5.89.37-17.68h.36l.36-5.9.36-5.89.36 47.15.37-23.57.36 5.89.36-17.68.36 23.57.37-23.57h.36l.36 5.89.36 5.9.36-5.9.37 5.9.36-11.79.36 5.89"/><use xlink:href="#0cdf4__d" color="#29C3F6" transform="matrix(3.75 0 0 3.75 182.98 126.77)"/><use xlink:href="#0cdf4__d" color="#29C3F6" transform="matrix(3.75 0 0 3.75 220.55 22.51)"/></g><path fill="none" d="M28 45.01V162.5M371.99 45.01H28" color="#000"/></svg>