<svg xmlns="http://www.w3.org/2000/svg" xmlns:xlink="http://www.w3.org/1999/xlink" viewBox="0 0 400 200"><path fill="none" d="M0 0h400v200H0z"/><defs><use xlink:href="#218c9__a" id="218c9__c" fill="currentColor" stroke="none"/><use xlink:href="#218c9__a" id="218c9__b" stroke="currentColor" transform="rotate(180)"/><use xlink:href="#218c9__b" id="218c9__d" fill="currentColor" stroke="none"/><path id="218c9__a" stroke="currentColor" stroke-width=".267" d="m0-1.33-1.33 2h2.66z"/></defs><path fill="none" stroke="#CCC" stroke-linecap="round" stroke-linejoin="round" stroke-width=".1" d="M46.1 162.5V45.01" class="218c9__gridline" color="#000"/><g fill="none" stroke-linecap="round" stroke-linejoin="round" stroke-width="0" color="#000"><path d="M46.1 162.5V155m0-109.99v7.5"/><text fill="#000" font-family="KaTeX_Main" font-size="8" text-anchor="middle" transform="translate(46.1 172.6)"><tspan> 1</tspan></text></g><path fill="none" stroke="#CCC" stroke-linecap="round" stroke-linejoin="round" stroke-width=".1" d="M82.31 162.5V45.01" class="218c9__gridline" color="#000"/><g fill="none" stroke-linecap="round" stroke-linejoin="round" stroke-width="0" color="#000"><path d="M82.31 162.5V155m0-109.99v7.5"/><text fill="#000" font-family="KaTeX_Main" font-size="8" text-anchor="middle" transform="translate(82.31 172.6)"><tspan> 2</tspan></text></g><path fill="none" stroke="#CCC" stroke-linecap="round" stroke-linejoin="round" stroke-width=".1" d="M118.52 162.5V45.01" class="218c9__gridline" color="#000"/><g fill="none" stroke-linecap="round" stroke-linejoin="round" stroke-width="0" color="#000"><path d="M118.52 162.5V155m0-109.99v7.5"/><text fill="#000" font-family="KaTeX_Main" font-size="8" text-anchor="middle" transform="translate(118.52 172.6)"><tspan> 3</tspan></text></g><path fill="none" stroke="#CCC" stroke-linecap="round" stroke-linejoin="round" stroke-width=".1" d="M154.73 162.5V45.01" class="218c9__gridline" color="#000"/><g fill="none" stroke-linecap="round" stroke-linejoin="round" stroke-width="0" color="#000"><path d="M154.73 162.5V155m0-109.99v7.5"/><text fill="#000" font-family="KaTeX_Main" font-size="8" text-anchor="middle" transform="translate(154.73 172.6)"><tspan> 4</tspan></text></g><path fill="none" stroke="#CCC" stroke-linecap="round" stroke-linejoin="round" stroke-width=".1" d="M190.94 162.5V45.01" class="218c9__gridline" color="#000"/><g fill="none" stroke-linecap="round" stroke-linejoin="round" stroke-width="0" color="#000"><path d="M190.94 162.5V155m0-109.99v7.5"/><text fill="#000" font-family="KaTeX_Main" font-size="8" text-anchor="middle" transform="translate(190.94 172.6)"><tspan> 5</tspan></text></g><path fill="none" stroke="#CCC" stroke-linecap="round" stroke-linejoin="round" stroke-width=".1" d="M227.15 162.5V45.01" class="218c9__gridline" color="#000"/><g fill="none" stroke-linecap="round" stroke-linejoin="round" stroke-width="0" color="#000"><path d="M227.15 162.5V155m0-109.99v7.5"/><text fill="#000" font-family="KaTeX_Main" font-size="8" text-anchor="middle" transform="translate(227.15 172.6)"><tspan> 6</tspan></text></g><path fill="none" stroke="#CCC" stroke-linecap="round" stroke-linejoin="round" stroke-width=".1" d="M263.36 162.5V45.01" class="218c9__gridline" color="#000"/><g fill="none" stroke-linecap="round" stroke-linejoin="round" stroke-width="0" color="#000"><path d="M263.36 162.5V155m0-109.99v7.5"/><text fill="#000" font-family="KaTeX_Main" font-size="8" text-anchor="middle" transform="translate(263.36 172.6)"><tspan> 7</tspan></text></g><path fill="none" stroke="#CCC" stroke-linecap="round" stroke-linejoin="round" stroke-width=".1" d="M299.57 162.5V45.01" class="218c9__gridline" color="#000"/><g fill="none" stroke-linecap="round" stroke-linejoin="round" stroke-width="0" color="#000"><path d="M299.57 162.5V155m0-109.99v7.5"/><text fill="#000" font-family="KaTeX_Main" font-size="8" text-anchor="middle" transform="translate(299.57 172.6)"><tspan> 8</tspan></text></g><path fill="none" stroke="#CCC" stroke-linecap="round" stroke-linejoin="round" stroke-width=".1" d="M335.78 162.5V45.01" class="218c9__gridline" color="#000"/><g fill="none" stroke-linecap="round" stroke-linejoin="round" stroke-width="0" color="#000"><path d="M335.78 162.5V155m0-109.99v7.5"/><text fill="#000" font-family="KaTeX_Main" font-size="8" text-anchor="middle" transform="translate(335.78 172.6)"><tspan> 9</tspan></text></g><path fill="none" stroke="#CCC" stroke-linecap="round" stroke-linejoin="round" stroke-width=".1" d="M371.99 162.5V45.01" class="218c9__gridline" color="#000"/><g fill="none" stroke-linecap="round" stroke-linejoin="round" stroke-width="0" color="#000"><path d="M371.99 162.5V155m0-109.99v7.5"/><text fill="#000" font-family="KaTeX_Main" font-size="8" text-anchor="middle" transform="translate(371.99 172.6)"><tspan> 10</tspan></text></g><g fill="none" stroke-linecap="round" stroke-linejoin="round" stroke-width="0" color="#000"><path d="M371.99 162.5h-7.5"/><text fill="#000" font-family="KaTeX_Main" font-size="8" transform="translate(378.99 165.1)"><tspan>1.10</tspan></text></g><g fill="none" stroke-linecap="round" stroke-linejoin="round" stroke-width="0" color="#000"><path d="M371.99 149.45h-7.5"/><text fill="#000" font-family="KaTeX_Main" font-size="8" transform="translate(378.99 152.05)"><tspan>1.15</tspan></text></g><g fill="none" stroke-linecap="round" stroke-linejoin="round" stroke-width="0" color="#000"><path d="M371.99 136.39h-7.5"/><text fill="#000" font-family="KaTeX_Main" font-size="8" transform="translate(378.99 138.99)"><tspan>1.20</tspan></text></g><g fill="none" stroke-linecap="round" stroke-linejoin="round" stroke-width="0" color="#000"><path d="M371.99 123.34h-7.5"/><text fill="#000" font-family="KaTeX_Main" font-size="8" transform="translate(378.99 125.94)"><tspan>1.25</tspan></text></g><g fill="none" stroke-linecap="round" stroke-linejoin="round" stroke-width="0" color="#000"><path d="M371.99 110.28h-7.5"/><text fill="#000" font-family="KaTeX_Main" font-size="8" transform="translate(378.99 112.88)"><tspan>1.30</tspan></text></g><g fill="none" stroke-linecap="round" stroke-linejoin="round" stroke-width="0" color="#000"><path d="M371.99 97.23h-7.5"/><text fill="#000" font-family="KaTeX_Main" font-size="8" transform="translate(378.99 99.83)"><tspan>1.35</tspan></text></g><g fill="none" stroke-linecap="round" stroke-linejoin="round" stroke-width="0" color="#000"><path d="M371.99 84.17h-7.5"/><text fill="#000" font-family="KaTeX_Main" font-size="8" transform="translate(378.99 86.77)"><tspan>1.40</tspan></text></g><g fill="none" stroke-linecap="round" stroke-linejoin="round" stroke-width="0" color="#000"><path d="M371.99 71.12h-7.5"/><text fill="#000" font-family="KaTeX_Main" font-size="8" transform="translate(378.99 73.72)"><tspan>1.45</tspan></text></g><g fill="none" stroke-linecap="round" stroke-linejoin="round" stroke-width="0" color="#000"><path d="M371.99 58.06h-7.5"/><text fill="#000" font-family="KaTeX_Main" font-size="8" transform="translate(378.99 60.66)"><tspan>1.50</tspan></text></g><g fill="none" stroke-linecap="round" stroke-linejoin="round" stroke-width="0" color="#000"><path d="M371.99 45.01h-7.5"/><text fill="#000" font-family="KaTeX_Main" font-size="8" transform="translate(378.99 47.61)"><tspan>1.55</tspan></text></g><path fill="none" d="M28 45.01V162.5M371.99 45.01H28" color="#000"/><text stroke-linecap="round" stroke-linejoin="round" stroke-width="0" color="#000" font-family="KaTeX_Main" font-size="10" text-anchor="middle" transform="rotate(-90 57.63 46.13)"><tspan font-weight="bold">Maximum Path Length </tspan><tspan> / log</tspan><tspan dy="3" font-size="8">2</tspan><tspan dy="-3">(Size)</tspan></text><text stroke-linecap="round" stroke-linejoin="round" stroke-width="0" color="#000" font-family="KaTeX_Main" font-size="10" text-anchor="middle" transform="translate(199.99 195.75)"><tspan>Operations / 10</tspan><tspan dy="-5" font-size="8">6</tspan></text><text stroke-linecap="round" stroke-linejoin="round" stroke-width=".5" color="#000" font-family="KaTeX_Main" font-size="8" transform="translate(116 10.11)"><tspan>AVLBottomUp</tspan></text><g fill="none" stroke="currentColor" stroke-linecap="round" stroke-linejoin="round" stroke-width=".5" color="#000"><path stroke="#000" d="M80.5 7.51h29.9M28 146.29l.36.46.36.44.37.44.36.43.36.42.36.41.36.4.37.4.36.38.36.38.36.37.37.36.36.36.36.35.36.35.36.34.37.33.36.33.36.32.36-13.13.36.33.37.32.36.31.36.31.36.31.36.3.37.3.36.29.36.28.36.29.36.28.37.27.36.28.36.26.36.27.37.26.36.26.36.25.36.25.36.25.37.24.36.24.36.24.36.24.36.23.37.23.36.23.36.22.36.22.36.22.37.22.36.22.36.21.36.21.37.2.36.21.36.2.36.2.36.2.37.2.36.19.36.2.36.19.36.18.37.19.36.19.36.18.36.18.36.18.37.18.36.18.36.17.36.17.37.17.36.17.36.17.36.17.36.16.37-12.7.36.17.36.17.36.17.36.16.37.17.36.16.36.16.36.16.36.16.37.15.36.16.36.15.36.16.36.15.37.15.36.15.36.15.36.15.37.14.36.15.36.14.36.14.36.14.37.14.36.14.36.14.36.14.36.14.37.13.36.14.36.13.36.13.36.13.37.13.36.13.36.13.36.13.37.13.36.12.36.13.36.12.36.13.37.12.36.12.36.12.36.13.36.11.37.12.36.12.36.12.36.12.36.11.37.12.36.11.36.11.36.12.36.11.37.11.36.11.36.11.36.11.37.11.36.11.36.11.36.1.36.11.37.11.36.1.36.11.36.1.36.11.37.1.36.1.36.1.36.1.36.1.37.1.36.1.36.1.36.1.37.1.36.1.36.09.36.1.36.09.37.1.36.1.36.09.36.09.36.09.37.1.36.09.36.09.36.1.36.08.37.1.36-12.28.36.09.36.09.36.1.37.09.36.09.36.09.36.09.37.09.36.09.36.09.36.09.36.09.37.08.36.09.36.09.36.09.36.08.37.09.36.08.36.09.36.08.36.09.37.08.36.08.36.09.36.08.37.08.36.09.36.08.36.08.36.08.37.08.36.08.36.08.36.08.36.08.37.08.36.08.36.08.36.07.36.08.37.08.36.07.36.08.36.08.37.07.36.08.36.07.36.08.36.07.37.08.36.07.36.08.36.07.36.07.37.07.36.08.36.07.36.07.36.07.37.08.36.07.36.07.36.07.36.07.37.07.36.07.36.07.36.07.37.07.36.06.36.07.36.07.36.07.37.07.36.06.36.07.36.07.36.07.37.06.36.07.36.06.36.07.36.06.37.07.36.06.36.07.36.07.37.06.36.06.36.07.36.06.36.06.37.07.36.06.36.06.36.06.36.07.37.06.36.06.36.06.36.06.36.07.37.06.36.06.36.06.36.06.36.06.37.06.36.06.36.06.36.06.37.06.36.05.36.06.36.06.36.06.37.06.36.06.36.05.36.06.36.06.37.06.36.05.36.06.36.06.36.05.37.06.36.05.36.06.36.06.37.05.36.06.36.05.36.06.36.05.37.06.36.05.36.06.36.05.36.06.37.05.36.05.36.05.36.06.36.05.37.06.36.05.36.05.36.05.36.06.37.05.36.05.36.05.36.05.37.06.36.05.36.05.36.05.36.05.37.05.36.05.36.05.36.05.36.05.37.05.36.06.36.04.36.05.36.05.37.05.36.05.36.05.36.05.37.05.36.05.36.05.36.05.36.04.37.05.36.05.36-11.84.36.05.36.05.37.05.36.04.36.05.36.05.36.05.37.05.36.05.36.05.36.05.37.05.36.04.36.05.36.05.36.05.37.04.36.05.36.05.36.05.36.04.37.05.36.05.36.05.36.04.36.05.37.04.36.05.36.05.36.04.36.05.37.04.36.05.36.05.36.04.37.05.36.04.36.05.36.04.36.05.37.04.36.05.36.04.36.04.36.05.37.04.36.05.36.04.36.04.36.05.37.04.36.04.36.05.36.04.37.04.36.05.36.04.36.05.36.04.37.04.36.04.36.04.36.05.36.04.37.04.36.04.36.05.36.04.36.04.37.04.36.04.36.04.36.04.36.05.37.04.36.04.36.04.36.04.37.04.36.04.36.04.36.04.36.04.37.04.36.05.36.03.36.04.36.05.37.03.36.04.36.04.36.04.36.04.37.04.36.04.36.04.36.04.37.04.36.04.36.04.36.03.36.04.37.04.36.04.36.04.36.04.36.04.37.04.36.03.36.04.36.04.36.04.37.03.36.04.36.04.36.04.37.04.36.03.36.04.36.04.36.03.37.04.36.04.36.03.36.04.36.04.37.04.36.03.36.04.36.04.36.03.37.04.36.03.36.04.36.04.36.03.37.04.36.03.36.04.36.04.37.03.36.04.36.03.36.04.36.03.37.04.36.03.36.04.36.03.36.04.37.03.36.04.36.03.36.04.36.03.37.04.36.03.36.04.36.03.37.03.36.04.36.03.36.04.36.03.37.04.36.03.36.03.36.03.36.04.37.03.36.04.36.03.36.03.36.04.37.03.36.03.36.04.36.03.36.03.37.04.36.03.36.03.36.03.37.04.36.03.36.03.36.03.36.04.37.03.36.03.36.03.36.04.36.03.37.03.36.03.36.03.36.04.36.03.37.03.36.03.36.03.36.03.37.04.36.03.36.03.36.03.36.03.37.03.36.04.36.03.36.03.36.03.37.03.36.03.36.03.36.03.36.03.37.03.36.03.36.04.36.02.36.04.37.03.36.03.36.03.36.03.37.03.36.03.36.03.36.03.36.03.37.03.36.03.36.03.36.03.36.03.37.03.36.03.36.03.36.03.36.02.37.03.36.03.36.03.36.03.37.03.36.03.36.03.36.03.36.03.37.03.36.03.36.02.36.03.36.03.37.03.36.03.36.03.36.03.36.03.37.02.36.03.36.03.36.03.37.03.36.03.36.02.36.03.36.03.37.03.36.03.36.03.36.02.36.03.37.03.36.03.36.02.36.03.36.03.37.03.36.03.36.02.36.03.36.03.37.03.36.02.36.03.36.03.37.02.36.03.36.03.36.03.36.02.37.03.36.03.36.02.36.03.36.03.37.02.36.03.36.03.36.02.36.03.37.03.36.02.36.03.36.03.37.02.36.03.36.03.36.02.36.03.37.02.36.03.36.03.36.02.36.03.37.03.36.02.36.03.36.02.36.03.37.02.36.03.36.03.36.02.36.03.37.02.36.03.36.02.36.03.37.02.36.03.36.03.36.02.36.02.37.03.36.02.36.03.36.03.36.02.37.03.36.02.36.03.36.02.36.03.37.02.36.03.36.02.36.02.37.03.36.02.36.03.36.02.36.03.37.02.36.03.36.02.36.03.36.02.37.03.36.02.36.02.36.03.36.02.37.03.36.02.36.02.36.03.36.02.37.03.36.02.36.02.36.03.37.02.36.03.36.02.36.02.36.03.37.02.36.02.36.03.36.02.36.02.37.03.36.02.36.03.36.02.36.02.37.03.36.02.36.02.36.03.37.02.36.02.36.03.36.02.36.02.37.02.36.03.36.02.36.02.36.03.37.02.36.02.36.03.36.02.36.02.37.02.36.03.36.02.36.02.37.03.36.02.36.02.36.02.36.02.37.03.36.02.36.02.36.03.36.02.37.02.36.02.36.02.36.03.36.02.37.02.36.02.36.02.36.03.36.02.37.02.36.02.36.02.36.03.37.02.36.02.36.02.36.02.36.03.37.02.36.02.36.02.36.02.36.02.37.02.36.03.36-11.32.36.03.36.02.37.02.36.02.36.03.36.02.37.02.36.02.36.02.36.02.36.03.37.02.36.02.36.02.36.02.36.03.37.02.36.02.36.02.36.02.36.03.37.02.36.02.36.02.36.02.36.02.37.03.36.02.36.02.36.02.37.02.36.03.36.02.36.02.36.02.37.02.36.02.36.02.36.02.36.02.37.03.36.02.36.02.36.02.36.02.37.02.36.02.36.02.36.03.37.02.36.02.36.02.36.02.36.02.37.02.36.02.36.02.36.02.36.02.37.03.36.02.36.02.36.02.36.02.37.02.36.02.36.02.36.02.36.02.37.02.36.02.36.02.36.02.37.02.36.02.36.02.36.02.36.02.37.02.36.03.36.02.36.01.36.03.37.02.36.01.36.03.36.02.36.01.37.03.36.02.36.01.36.03.37.02.36.01.36.03.36.02.36.01.37.03.36.01.36.02.36.03.36.01.37.02.36.02.36.02.36.02.36.02.37.02.36.02.36.02.36.02.37.02.36.02.36.02.36.02.36.02.37.02.36.02.36.02.36.02.36.01.37.02.36.02.36.02.36.02.36.02.37.02.36.02.36.02.36.02.36.02.37.02.36.01.36.02.36.02.37.02.36.02.36.02.36.02.36.02.37.02.36.01.36.02"/><use xlink:href="#218c9__c" transform="matrix(3.75 0 0 3.75 354.25 145.59)"/><use xlink:href="#218c9__c" transform="matrix(3.75 0 0 3.75 95.45 7.51)"/></g><text stroke-linecap="round" stroke-linejoin="round" color="#000" font-family="KaTeX_Main" font-size="8" transform="translate(116 25.11)"><tspan>AVLTopDown</tspan></text><g fill="none" stroke="currentColor" stroke-linecap="round" stroke-linejoin="round" color="#000"><path stroke="#29C3F6" stroke-dasharray="2.5,4.0" d="M80.5 22.51h29.9M28 146.29l.36.46.36.44.37.44.36.43.36.42.36.41.36.4.37.4.36.38.36.38.36.37.37.36.36.36.36.35.36.35.36.34.37.33.36.33.36.32.36-13.13.36.33.37.32.36.31.36.31.36.31.36.3.37.3.36.29.36.28.36.29.36.28.37.27.36.28.36.26.36.27.37.26.36.26.36.25.36.25.36.25.37.24.36.24.36.24.36.24.36.23.37.23.36.23.36.22.36.22.36.22.37.22.36.22.36.21.36.21.37.2.36.21.36.2.36.2.36.2.37.2.36.19.36.2.36.19.36.18.37.19.36.19.36.18.36.18.36.18.37.18.36.18.36.17.36.17.37.17.36.17.36.17.36.17.36.16.37-12.7.36.17.36.17.36.17.36.16.37.17.36.16.36.16.36.16.36.16.37.15.36.16.36.15.36.16.36.15.37.15.36.15.36.15.36.15.37.14.36.15.36.14.36.14.36.14.37.14.36.14.36.14.36.14.36.14.37.13.36.14.36.13.36.13.36.13.37.13.36.13.36.13.36.13.37.13.36.12.36.13.36.12.36.13.37.12.36.12.36.12.36.13.36.11.37.12.36.12.36.12.36.12.36.11.37.12.36.11.36.11.36.12.36.11.37.11.36.11.36.11.36.11.37.11.36.11.36.11.36.1.36.11.37.11.36.1.36.11.36.1.36.11.37.1.36.1.36.1.36.1.36.1.37.1.36.1.36.1.36.1.37.1.36.1.36.09.36.1.36.09.37.1.36.1.36.09.36.09.36.09.37.1.36.09.36.09.36.1.36.08.37.1.36-12.28.36.09.36.09.36.1.37.09.36.09.36.09.36.09.37.09.36.09.36.09.36.09.36.09.37.08.36.09.36.09.36.09.36.08.37.09.36.08.36.09.36.08.36.09.37.08.36.08.36.09.36.08.37.08.36.09.36.08.36.08.36.08.37.08.36.08.36.08.36.08.36.08.37.08.36.08.36.08.36.07.36.08.37.08.36.07.36.08.36.08.37.07.36.08.36.07.36.08.36.07.37.08.36.07.36.08.36.07.36.07.37.07.36.08.36.07.36.07.36.07.37.08.36.07.36.07.36.07.36.07.37.07.36.07.36.07.36.07.37.07.36.06.36.07.36.07.36.07.37.07.36.06.36.07.36.07.36.07.37.06.36.07.36.06.36.07.36.06.37.07.36.06.36.07.36.07.37.06.36.06.36.07.36.06.36.06.37.07.36.06.36.06.36.06.36.07.37.06.36.06.36.06.36.06.36.07.37.06.36.06.36.06.36.06.36.06.37.06.36.06.36.06.36.06.37.06.36.05.36.06.36.06.36.06.37.06.36.06.36.05.36.06.36.06.37.06.36.05.36.06.36.06.36.05.37.06.36.05.36.06.36.06.37.05.36.06.36.05.36.06.36.05.37.06.36.05.36.06.36.05.36.06.37.05.36.05.36.05.36.06.36.05.37.06.36.05.36.05.36.05.36.06.37.05.36.05.36.05.36.05.37.06.36.05.36.05.36.05.36.05.37.05.36.05.36.05.36.05.36.05.37.05.36.06.36.04.36.05.36.05.37.05.36.05.36.05.36.05.37.05.36.05.36.05.36.05.36.04.37.05.36.05.36-11.84.36.05.36.05.37.05.36.04.36.05.36.05.36.05.37.05.36.05.36.05.36.05.37.05.36.04.36.05.36.05.36.05.37.04.36.05.36.05.36.05.36.04.37.05.36.05.36.05.36.04.36.05.37.04.36.05.36.05.36.04.36.05.37.04.36.05.36.05.36.04.37.05.36.04.36.05.36.04.36.05.37.04.36.05.36.04.36.04.36.05.37.04.36.05.36.04.36.04.36.05.37.04.36.04.36.05.36.04.37.04.36.05.36.04.36.05.36.04.37.04.36.04.36.04.36.05.36.04.37.04.36.04.36.05.36.04.36.04.37.04.36.04.36.04.36.04.36.05.37.04.36.04.36.04.36.04.37.04.36.04.36.04.36.04.36.04.37.04.36.05.36.03.36.04.36.05.37.03.36.04.36.04.36.04.36.04.37.04.36.04.36.04.36.04.37.04.36.04.36.04.36.03.36.04.37.04.36.04.36.04.36.04.36.04.37.04.36.03.36.04.36.04.36.04.37.03.36.04.36.04.36.04.37.04.36.03.36.04.36.04.36.03.37.04.36.04.36.03.36.04.36.04.37.04.36.03.36.04.36.04.36.03.37.04.36.03.36.04.36.04.36.03.37.04.36.03.36.04.36.04.37.03.36.04.36.03.36.04.36.03.37.04.36.03.36.04.36.03.36.04.37.03.36.04.36.03.36.04.36.03.37.04.36.03.36.04.36.03.37.03.36.04.36.03.36.04.36.03.37.04.36.03.36.03.36.03.36.04.37.03.36.04.36.03.36.03.36.04.37.03.36.03.36.04.36.03.36.03.37.04.36.03.36.03.36.03.37.04.36.03.36.03.36.03.36.04.37.03.36.03.36.03.36.04.36.03.37.03.36.03.36.03.36.04.36.03.37.03.36.03.36.03.36.03.37.04.36.03.36.03.36.03.36.03.37.03.36.04.36.03.36.03.36.03.37.03.36.03.36.03.36.03.36.03.37.03.36.03.36.04.36.02.36.04.37.03.36.03.36.03.36.03.37.03.36.03.36.03.36.03.36.03.37.03.36.03.36.03.36.03.36.03.37.03.36.03.36.03.36.03.36.02.37.03.36.03.36.03.36.03.37.03.36.03.36.03.36.03.36.03.37.03.36.03.36.02.36.03.36.03.37.03.36.03.36.03.36.03.36.03.37.02.36.03.36.03.36.03.37.03.36.03.36.02.36.03.36.03.37.03.36.03.36.03.36.02.36.03.37.03.36.03.36.02.36.03.36.03.37.03.36.03.36.02.36.03.36.03.37.03.36.02.36.03.36.03.37.02.36.03.36.03.36.03.36.02.37.03.36.03.36.02.36.03.36.03.37.02.36.03.36.03.36.02.36.03.37.03.36.02.36.03.36.03.37.02.36.03.36.03.36.02.36.03.37.02.36.03.36.03.36.02.36.03.37.03.36.02.36.03.36.02.36.03.37.02.36.03.36.03.36.02.36.03.37.02.36.03.36.02.36.03.37.02.36.03.36.03.36.02.36.02.37.03.36.02.36.03.36.03.36.02.37.03.36.02.36.03.36.02.36.03.37.02.36.03.36.02.36.02.37.03.36.02.36.03.36.02.36.03.37.02.36.03.36.02.36.03.36.02.37.03.36.02.36.02.36.03.36.02.37.03.36.02.36.02.36.03.36.02.37.03.36.02.36.02.36.03.37.02.36.03.36.02.36.02.36.03.37.02.36.02.36.03.36.02.36.02.37.03.36.02.36.03.36.02.36.02.37.03.36.02.36.02.36.03.37.02.36.02.36.03.36.02.36.02.37.02.36.03.36.02.36.02.36.03.37.02.36.02.36.03.36.02.36.02.37.02.36.03.36.02.36.02.37.03.36.02.36.02.36.02.36.02.37.03.36.02.36.02.36.03.36.02.37.02.36.02.36.02.36.03.36.02.37.02.36.02.36.02.36.03.36.02.37.02.36.02.36.02.36.03.37.02.36.02.36.02.36.02.36.03.37.02.36.02.36.02.36.02.36.02.37.02.36.03.36-11.32.36.03.36.02.37.02.36.02.36.03.36.02.37.02.36.02.36.02.36.02.36.03.37.02.36.02.36.02.36.02.36.03.37.02.36.02.36.02.36.02.36.03.37.02.36.02.36.02.36.02.36.02.37.03.36.02.36.02.36.02.37.02.36.03.36.02.36.02.36.02.37.02.36.02.36.02.36.02.36.02.37.03.36.02.36.02.36.02.36.02.37.02.36.02.36.02.36.03.37.02.36.02.36.02.36.02.36.02.37.02.36.02.36.02.36.02.36.02.37.03.36.02.36.02.36.02.36.02.37.02.36.02.36.02.36.02.36.02.37.02.36.02.36.02.36.02.37.02.36.02.36.02.36.02.36.02.37.02.36.03.36.02.36.01.36.03.37.02.36.01.36.03.36.02.36.01.37.03.36.02.36.01.36.03.37.02.36.01.36.03.36.02.36.01.37.03.36.01.36.02.36.03.36.01.37.02.36.02.36.02.36.02.36.02.37.02.36.02.36.02.36.02.37.02.36.02.36.02.36.02.36.02.37.02.36.02.36.02.36.02.36.01.37.02.36.02.36.02.36.02.36.02.37.02.36.02.36.02.36.02.36.02.37.02.36.01.36.02.36.02.37.02.36.02.36.02.36.02.36.02.37.02.36.01.36.02"/><use xlink:href="#218c9__d" color="#29C3F6" transform="matrix(3.75 0 0 3.75 67.83 145.66)"/><use xlink:href="#218c9__d" color="#29C3F6" transform="matrix(3.75 0 0 3.75 95.45 22.51)"/></g><text stroke-linecap="round" stroke-linejoin="round" color="#000" font-family="KaTeX_Main" font-size="8" transform="translate(241.1 10.11)"><tspan>AVLWeakBottomUp</tspan></text><g fill="none" stroke="currentColor" stroke-linecap="round" stroke-linejoin="round" color="#000"><path stroke="#00C853" d="M205.6 7.51h29.9M28 146.29l.36.46.36.44.37.44.36.43.36.42.36.41.36.4.37.4.36.38.36.38.36.37.37.36.36.36.36.35.36.35.36.34.37.33.36.33.36.32.36-13.13.36.33.37.32.36.31.36.31.36.31.36.3.37.3.36.29.36.28.36.29.36.28.37.27.36.28.36.26.36.27.37.26.36.26.36.25.36.25.36.25.37.24.36.24.36.24.36.24.36.23.37.23.36.23.36.22.36.22.36.22.37.22.36.22.36.21.36.21.37.2.36.21.36.2.36.2.36.2.37.2.36.19.36.2.36.19.36.18.37.19.36.19.36.18.36.18.36.18.37.18.36.18.36.17.36.17.37.17.36.17.36.17.36.17.36.16.37-12.7.36.17.36.17.36.17.36.16.37.17.36.16.36.16.36.16.36.16.37.15.36.16.36.15.36.16.36.15.37.15.36.15.36.15.36.15.37.14.36.15.36.14.36.14.36.14.37.14.36.14.36.14.36.14.36.14.37.13.36.14.36.13.36.13.36.13.37.13.36.13.36.13.36.13.37.13.36.12.36.13.36.12.36.13.37.12.36.12.36.12.36.13.36.11.37.12.36.12.36.12.36.12.36.11.37.12.36.11.36.11.36.12.36.11.37.11.36.11.36.11.36.11.37.11.36.11.36.11.36.1.36.11.37.11.36.1.36.11.36.1.36.11.37.1.36.1.36.1.36.1.36.1.37.1.36.1.36.1.36.1.37.1.36.1.36.09.36.1.36.09.37.1.36.1.36.09.36.09.36.09.37.1.36.09.36.09.36.1.36.08.37.1.36-12.28.36.09.36.09.36.1.37.09.36.09.36.09.36.09.37.09.36.09.36.09.36.09.36.09.37.08.36.09.36.09.36.09.36.08.37.09.36.08.36.09.36.08.36.09.37.08.36.08.36.09.36.08.37.08.36.09.36.08.36.08.36.08.37.08.36.08.36.08.36.08.36.08.37.08.36.08.36.08.36.07.36.08.37.08.36.07.36.08.36.08.37.07.36.08.36.07.36.08.36.07.37.08.36.07.36.08.36.07.36.07.37.07.36.08.36.07.36.07.36.07.37.08.36.07.36.07.36.07.36.07.37.07.36.07.36.07.36.07.37.07.36.06.36.07.36.07.36.07.37.07.36.06.36.07.36.07.36.07.37.06.36.07.36.06.36.07.36.06.37.07.36.06.36.07.36.07.37.06.36.06.36.07.36.06.36.06.37.07.36.06.36.06.36.06.36.07.37.06.36.06.36.06.36.06.36.07.37.06.36.06.36.06.36.06.36.06.37.06.36.06.36.06.36.06.37.06.36.05.36.06.36.06.36.06.37.06.36.06.36.05.36.06.36.06.37.06.36.05.36.06.36.06.36.05.37.06.36.05.36.06.36.06.37.05.36.06.36.05.36.06.36.05.37.06.36.05.36.06.36.05.36.06.37.05.36.05.36.05.36.06.36.05.37.06.36.05.36.05.36.05.36.06.37.05.36.05.36.05.36.05.37.06.36.05.36.05.36.05.36.05.37.05.36.05.36.05.36.05.36.05.37.05.36.06.36.04.36.05.36.05.37.05.36.05.36.05.36.05.37.05.36.05.36.05.36.05.36.04.37.05.36.05.36-11.84.36.05.36.05.37.05.36.04.36.05.36.05.36.05.37.05.36.05.36.05.36.05.37.05.36.04.36.05.36.05.36.05.37.04.36.05.36.05.36.05.36.04.37.05.36.05.36.05.36.04.36.05.37.04.36.05.36.05.36.04.36.05.37.04.36.05.36.05.36.04.37.05.36.04.36.05.36.04.36.05.37.04.36.05.36.04.36.04.36.05.37.04.36.05.36.04.36.04.36.05.37.04.36.04.36.05.36.04.37.04.36.05.36.04.36.05.36.04.37.04.36.04.36.04.36.05.36.04.37.04.36.04.36.05.36.04.36.04.37.04.36.04.36.04.36.04.36.05.37.04.36.04.36.04.36.04.37.04.36.04.36.04.36.04.36.04.37.04.36.05.36.03.36.04.36.05.37.03.36.04.36.04.36.04.36.04.37.04.36.04.36.04.36.04.37.04.36.04.36.04.36.03.36.04.37.04.36.04.36.04.36.04.36.04.37.04.36.03.36.04.36.04.36.04.37.03.36.04.36.04.36.04.37.04.36.03.36.04.36.04.36.03.37.04.36.04.36.03.36.04.36.04.37.04.36.03.36.04.36.04.36.03.37.04.36.03.36.04.36.04.36.03.37.04.36.03.36.04.36.04.37.03.36.04.36.03.36.04.36.03.37.04.36.03.36.04.36.03.36.04.37.03.36.04.36.03.36.04.36.03.37.04.36.03.36.04.36.03.37.03.36.04.36.03.36.04.36.03.37.04.36.03.36.03.36.03.36.04.37.03.36.04.36.03.36.03.36.04.37.03.36.03.36.04.36.03.36.03.37.04.36.03.36.03.36.03.37.04.36.03.36.03.36.03.36.04.37.03.36.03.36.03.36.04.36.03.37.03.36.03.36.03.36.04.36.03.37.03.36.03.36.03.36.03.37.04.36.03.36.03.36.03.36.03.37.03.36.04.36.03.36.03.36.03.37.03.36.03.36.03.36.03.36.03.37.03.36.03.36.04.36.02.36.04.37.03.36.03.36.03.36.03.37.03.36.03.36.03.36.03.36.03.37.03.36.03.36.03.36.03.36.03.37.03.36.03.36.03.36.03.36.02.37.03.36.03.36.03.36.03.37.03.36.03.36.03.36.03.36.03.37.03.36.03.36.02.36.03.36.03.37.03.36.03.36.03.36.03.36.03.37.02.36.03.36.03.36.03.37.03.36.03.36.02.36.03.36.03.37.03.36.03.36.03.36.02.36.03.37.03.36.03.36.02.36.03.36.03.37.03.36.03.36.02.36.03.36.03.37.03.36.02.36.03.36.03.37.02.36.03.36.03.36.03.36.02.37.03.36.03.36.02.36.03.36.03.37.02.36.03.36.03.36.02.36.03.37.03.36.02.36.03.36.03.37.02.36.03.36.03.36.02.36.03.37.02.36.03.36.03.36.02.36.03.37.03.36.02.36.03.36.02.36.03.37.02.36.03.36.03.36.02.36.03.37.02.36.03.36.02.36.03.37.02.36.03.36.03.36.02.36.02.37.03.36.02.36.03.36.03.36.02.37.03.36.02.36.03.36.02.36.03.37.02.36.03.36.02.36.02.37.03.36.02.36.03.36.02.36.03.37.02.36.03.36.02.36.03.36.02.37.03.36.02.36.02.36.03.36.02.37.03.36.02.36.02.36.03.36.02.37.03.36.02.36.02.36.03.37.02.36.03.36.02.36.02.36.03.37.02.36.02.36.03.36.02.36.02.37.03.36.02.36.03.36.02.36.02.37.03.36.02.36.02.36.03.37.02.36.02.36.03.36.02.36.02.37.02.36.03.36.02.36.02.36.03.37.02.36.02.36.03.36.02.36.02.37.02.36.03.36.02.36.02.37.03.36.02.36.02.36.02.36.02.37.03.36.02.36.02.36.03.36.02.37.02.36.02.36.02.36.03.36.02.37.02.36.02.36.02.36.03.36.02.37.02.36.02.36.02.36.03.37.02.36.02.36.02.36.02.36.03.37.02.36.02.36.02.36.02.36.02.37.02.36.03.36-11.32.36.03.36.02.37.02.36.02.36.03.36.02.37.02.36.02.36.02.36.02.36.03.37.02.36.02.36.02.36.02.36.03.37.02.36.02.36.02.36.02.36.03.37.02.36.02.36.02.36.02.36.02.37.03.36.02.36.02.36.02.37.02.36.03.36.02.36.02.36.02.37.02.36.02.36.02.36.02.36.02.37.03.36.02.36.02.36.02.36.02.37.02.36.02.36.02.36.03.37.02.36.02.36.02.36.02.36.02.37.02.36.02.36.02.36.02.36.02.37.03.36.02.36.02.36.02.36.02.37.02.36.02.36.02.36.02.36.02.37.02.36.02.36.02.36.02.37.02.36.02.36.02.36.02.36.02.37.02.36.03.36.02.36.01.36.03.37.02.36.01.36.03.36.02.36.01.37.03.36.02.36.01.36.03.37.02.36.01.36.03.36.02.36.01.37.03.36.01.36.02.36.03.36.01.37.02.36.02.36.02.36.02.36.02.37.02.36.02.36.02.36.02.37.02.36.02.36.02.36.02.36.02.37.02.36.02.36.02.36.02.36.01.37.02.36.02.36.02.36.02.36.02.37.02.36.02.36.02.36.02.36.02.37.02.36.01.36.02.36.02.37.02.36.02.36.02.36.02.36.02.37.02.36.01.36.02"/><use xlink:href="#218c9__a" color="#00C853" transform="matrix(3.75 0 0 3.75 125.4 147.58)"/><use xlink:href="#218c9__a" color="#00C853" transform="matrix(3.75 0 0 3.75 220.55 7.51)"/></g><text stroke-linecap="round" stroke-linejoin="round" color="#000" font-family="KaTeX_Main" font-size="8" transform="translate(241.1 25.11)"><tspan>AVLWeakTopDown</tspan></text><g fill="none" stroke="currentColor" stroke-linecap="round" stroke-linejoin="round" color="#000"><path stroke="#FFAB00" stroke-dasharray="4.5,2.0,0.5,2.0,0.5,2.0" d="M205.6 22.51h29.9M28 132.5l.36.48.36.47.37-13.28.36-13.24.36 14.17.36-13.23.36-13.2.37-13.17.36 27.71.36 14.04.36-26.77.37 27.57.36 13.94.36-13.17.36.38.36-13.14.37.38.36-13.1.36 13.84.36.36.36.35.37-13.07.36 13.76.36-26.44.36.36.36 13.71.37 27.04.36.31.36.3.36-26.33.36.31.37 26.89.36.29.36-26.26.36.3.37.3.36-12.94.36 39.96.36-26.16.36 26.68.37.25.36-12.92.36 13.42.36-26.06.36.26.37.26.36 13.38.36.25.36.24.36.24.37.23.36-12.85.36 13.32.36-12.84.37.24.36-12.82.36.24.36-12.79.36-12.78.37 39.28.36-12.78.36 13.22.36-12.77.36 13.2.37 26.14.36-12.76.36.2.36 13.14.36-12.75.37 13.12.36.18.36-12.73.36.19.37-25.61.36 13.09.36.19.36 13.07.36.18.37.17.36.18.36-12.68.36.19.36-12.66.37 13.01.36.18.36.17.36.18.36-12.63.37 25.76.36.16.36-25.4.36 12.95.36 12.93.37-50.89.36 51.2.36-12.59.36.16.37 12.89.36-38.04.36 12.89.36 12.88.36-12.56.37 12.87.36.15.36.15.36-25.23.36 25.53.37-12.54.36.15.36-25.18.36 25.48.36.15.37-12.5.36.15.36 12.79L70 95.9l.37-12.48.36 50.65.36.13.36.13.36-25.09.37.14.36.13.36.14.36 25.32.36.12.37-25.03.36 25.28.36-37.59.36 12.7.36 12.69.37.13.36-12.43.36 12.67.36.13.36.12.37-12.41.36-24.93.36 25.18.36.12.37-12.39.36 12.63.36-12.38.36-12.37.36 12.62.37-12.37.36 37.59.36.11.36.12.36.11.37-24.83.36.12.36 25.04.36-24.8.36 12.57.37.11.36-24.78.36.12.36 24.99.37.11.36-24.74.36 24.96.36-12.31.36-24.72.37 37.35.36-12.29.36-24.7.36 12.51.36 12.51.37 37.29.36.09.36.1.36-24.67.36 12.48.37 12.47.36.1.36-12.28.36.1.36-12.26.37 12.45.36 12.45.36.09.36.09.37-36.93.36 24.77.36-36.9.36 37.09.36-36.89.37 37.07.36.09.36.09.36-12.22.36-24.52.37 37.01.36.09.36.09.36-36.8.36 12.39.37 24.67.36-12.19.36-12.19.36 24.64.37-24.46.36.09.36 24.63.36.08.36-36.7.37 24.61.36-24.42.36 12.35.36.08.36-36.65.37 49.07.36-24.39.36.09.36 36.79.36.08.37.08.36.08.36.08.36-12.14.37 12.3.36.08.36-12.13.36.08.36-24.33.37 12.29.36-24.31.36 24.47.36.09.36 12.27.37.07.36-24.28.36-12.1.36 24.44.36.08.37.08.36.08.36.08.36-24.24.36 36.56.37.08.36.07.36.08.36-24.22.37 12.22.36.08.36.07.36 12.22.36-12.07.37-24.18.36 36.47.36-12.06.36-12.04.36.07.37.08.36 24.31.36-24.16.36.08.36.07.37.08.36-36.23.36 72.68.36.07.37.06.36-12.02.36-12.02.36.07.36 12.15.37 12.15.36.07.36-12.01.36-12.01.36.07.37 24.21.36-12 .36.06.36.07.36-24.05.37 24.18.36-11.99.36-11.98.36.07.36 12.12.37-24.03.36 12.11.36 36.2.36.06.37.06.36-24 .36.06.36-11.96.36 24.12.37-11.96.36-11.96.36 12.08.36-11.95.36-11.95.37 36.11.36-11.95.36 12.07.36-35.95.36 24.07.37-11.94.36-11.93.36-11.93.36 12.07.37.06.36.07.36.06.36.07.36-11.92.37 59.98.36-23.91.36 12.04.36.06.36.06.37-35.85.36 35.97.36.05.36.06.36.06.37.06.36-11.9.36 12.01.36-11.9.36.06.37-11.89.36-11.88.36 23.95.36.06.37-23.83.36 12 .36.06.36.06.36.06.37-11.87.36 11.99.36-11.87.36 23.91.36-23.79.37 11.98.36.06.36.06.36.06.36-11.86.37 23.88.36-11.85.36.06.36-11.85.37 11.96.36-11.85.36-11.84.36 23.86.36.05.37.06.36.05.36-11.83.36 11.95.36.05.37-11.83.36.06.36 11.94.36.05.36-11.82.37 11.93.36.06.36-11.82.36 11.92.37.06.36 35.64.36.05.36.05.36-11.81.37 11.9.36.05.36.05.36.05.36.04.37.05.36-11.8.36-23.64.36 23.74.36-11.79.37-35.47.36 47.4.36-23.62.36 11.88.36 11.89.37-11.79.36 11.88.36-11.78.36-35.43.37 23.7.36 11.88.36.05.36-11.77.36.05.37 23.68.36.04.36-11.76.36 11.86.36-23.58.37 23.67.36.04.36.05.36.04.36-11.75.37-11.75.36 11.84.36 11.85.36-23.55.37 11.84.36-11.74.36 11.83.36.05.36.05.37.04.36-11.73.36.05.36 11.82.36-11.73.37 23.6.36.04.36.04.36.05.36.04.37-23.49.36 11.81.36.05.36-11.72.36 11.8.37 11.81.36-35.23.36 11.8.36 23.56.37.04.36.04.36.04.36-35.2.36 11.8.37 23.53.36-11.7.36.04.36.04.36.05.37-23.43.36-11.69.36 35.25.36-11.7.36.05.37.04.36 11.78.36.04.36.04.37.04.36.04.36-23.4.36.05.36 23.48.37.04.36.04.36-35.1.36 23.47.36-11.66.37 11.75.36-23.37.36 11.75.36 11.75.36.04.37-23.36.36 23.44.36-11.65.36-35.05.37 46.83.36-11.65.36-11.65.36 11.73.36-11.65.37-11.64.36 58.48.36.04.36-11.65.36 11.73.37.04.36-23.33.36 23.4.36-11.64.36.04.37-11.64.36.05.36.03.36.05.36.04.37 23.37.36.04.36-23.29.36 11.7.37.04.36.04.36.03.36-11.62.36 11.7.37-23.27.36 11.69.36-34.92.36 58.3.36.04.37-34.91.36 23.33.36-23.25.36.04.36.04.37 23.32.36.04.36-23.24.36 11.68.37-11.6.36-11.6.36 34.95.36-11.6.36-11.59.37 11.67.36.03.36-11.59.36.04.36 11.67.37.03.36-23.2.36 11.66.36-11.58.36.04.37 34.89.36.03.36-23.19.36.04.36 23.26.37.04.36-11.58.36.04.36 11.64.37-11.57.36-23.17.36 23.24.36.04.36-11.57.37 23.24.36-11.56.36 11.63.36.04.36-34.75.37 23.22.36-23.15.36 23.22.36-11.55.36-11.55.37 11.62.36.04.36.04.36-11.55.37.04.36.04.36 23.19.36.04.36.03.37.04.36.03.36.04.36-11.54.36.03.37.04.36.03.36.04.36 11.6.36-34.66.37 23.17.36.03.36.04.36.03.36.04.37.03.36.04.36-23.08.36.04.37 23.14.36.04.36-11.52.36 11.59.36-34.61.37 23.13.36.04.36.03.36 46.21.36-23.05.37.03.36 23.12.36.03.36.03.36.03.37.03.36.03.36-11.5.36.03.37.03.36-11.5.36 23.09.36-23.03.36.04.37 11.56.36 11.55.36-11.49.36.03.36-23.02.37 11.56.36.03.36-23 .36 34.58.36-23 .37 11.55.36.03.36-34.51.36 11.55.37-11.48.36 23.06.36 11.54.36-11.48.36-22.98.37 46.06.36.03.36.03.36-22.98.36 11.54.37.03.36.03.36 11.53.36.03.36-34.46.37 23.02.36-22.95.36 11.52.36 23.02.36-11.46.37.03.36.03.36.03.36-34.43.37 34.49.36-11.45.36.03.36 11.51.36-22.93.37.03.36-11.45.36 45.95.36-11.45.36.03.37.03.36.03.36-11.45.36 22.98.36.03.37.03.36-11.44.36-11.44.36 11.5.37 11.49.36-11.44.36.03.36-22.89.36 11.49.37 11.49.36.03.36-11.43.36.03.36 22.95.37.02.36-22.88.36 11.49.36.02.36-11.42.37.03.36.03.36.03.36 11.48.36.03.37.03.36-11.42.36.03.36.03.37 11.47.36.03.36.03.36.02.36-22.84.37 11.46.36.03.36.03.36.03.36-11.4.37 11.46.36 22.89.36-11.4.36-11.4.36 22.88.37-11.4.36-22.83.36 34.31.36-11.4.37-11.39.36 11.45.36 11.45.36-11.4.36.03.37.03.36-11.39.36 11.44.36.03.36-11.39.37 11.44.36.03.36-11.39.36.03.36 11.44.37.03.36.03.36.02.36-11.38.36 11.44.37-22.79.36.03.36 11.43.36.03.37.03.36.02.36-11.37.36-11.37.36 11.43.37.03.36 22.82.36.03.36.02.36.03.37.02.36-22.75.36 11.42.36.02.36-11.36.37 22.8.36-11.36.36-11.36.36 22.8.37.03.36.03.36.02.36-11.36.36.03.37-11.35.36 11.4.36 11.41.36-11.35.36-22.73.37 34.16.36.02.36-22.72.36 22.77.36-22.72.37 22.77.36-22.71.36-11.34.36 22.76.37.03.36-22.71.36.03.36 22.76.36-22.71.37.03.36 22.75.36.03.36.02.36-22.69.37 11.39.36-11.33.36 11.38.36.03.36 11.38.37.02.36.03.36.03.36.02.36.03.37.02.36-11.32.36 11.37.36.03.37-11.32.36 11.37.36-11.32.36 11.37.36.02.37-22.65.36 22.7.36.03.36-11.31.36 11.36.37.02.36-22.65.36 22.7.36-11.31.36.03.37.02.36.03.36.02.36 11.36.37.03.36.02.36.03.36.02.36-11.3.37 11.35.36-11.3.36-11.3.36 11.35.36-22.62.37.02.36 33.99.36-11.29.36 11.34.36-22.61.37.02.36 11.35.36-45.24.36 11.34.36 33.97.37-33.92.36.03.36 22.65.36-22.59.37.02.36 11.34.36 56.58.36.02.36.02.37.02.36-11.28.36 11.33.36.02.36.02.37.02.36.02.36.03.36-11.28.36 11.32.37-11.28.36 11.32.36.03.36.02.37.02.36.02.36.02.36.02.36-11.27.37-22.56.36 22.61.36-33.85.36 22.6.36 22.6.37.03.36.02.36.02.36.02.36-11.26.37 11.3.36-11.26.36-11.26.36 22.59.36-22.54.37.02.36 22.58.36.02.36-22.53.37 11.3.36.02.36.02.36-11.25.36 11.29.37.03.36-22.53.36.02.36-11.24.36 11.29.37 33.83.36.03.36-11.25.36-11.25.36 11.29.37.02.36-22.51.36 33.82.36-11.24.37-22.51.36.02.36 22.55.36-33.76.36 45.06.37-11.24.36-11.23.36 11.28.36.02.36-11.24.37.03.36 11.27.36-11.23.36 11.27.36-33.73.37 11.27.36 33.78.36-11.23.36-11.23.37 11.27.36.02.36-11.23.36-11.22.36 22.51.37-11.22.36 11.26.36-22.47.36-22.46.36 45 .37-22.47.36.02.36 22.51.36-11.22.36-11.22.37 11.26.36.02.36-11.21.36.02.36.02.37-22.45.36 56.2.36.02.36.02.37.02.36.02.36-22.45.36.03.36 22.48.37-11.21.36.02.36.02"/><use xlink:href="#218c9__b" color="#FFAB00" transform="matrix(3.75 0 0 3.75 182.98 108.46)"/><use xlink:href="#218c9__b" color="#FFAB00" transform="matrix(3.75 0 0 3.75 220.55 22.51)"/></g><path fill="none" d="M28 45.01V162.5M371.99 45.01H28" color="#000"/></svg>