<svg xmlns="http://www.w3.org/2000/svg" xmlns:xlink="http://www.w3.org/1999/xlink" viewBox="0 0 400 200"><path fill="none" d="M0 0h400v200H0z"/><defs><use xlink:href="#c941c__a" id="c941c__e" fill="currentColor" stroke="none"/><use xlink:href="#c941c__b" id="c941c__c" stroke="currentColor" transform="rotate(180)"/><use xlink:href="#c941c__c" id="c941c__d" fill="currentColor" stroke="none"/><path id="c941c__f" stroke="currentColor" stroke-width=".267" d="M-1 0h2M0-1v2"/><path id="c941c__b" stroke="currentColor" stroke-width=".267" d="m0-1.33-1.33 2h2.66z"/><circle id="c941c__a" cx="0" cy="0" r="1" stroke="currentColor" stroke-width=".267"/></defs><path fill="none" stroke="#999" stroke-linecap="round" stroke-linejoin="round" stroke-width=".1" d="M46.1 162.5V45.01" class="c941c__c4748__c941c__gridline" color="#000"/><g fill="none" stroke-linecap="round" stroke-linejoin="round" stroke-width="0" color="#000"><path d="M46.1 162.5V155m0-109.99v7.5"/><text fill="#000" font-family="KaTeX_Main" font-size="8" text-anchor="middle" transform="translate(46.1 172.6)"><tspan> 1</tspan></text></g><path fill="none" stroke="#999" stroke-linecap="round" stroke-linejoin="round" stroke-width=".1" d="M82.31 162.5V45.01" class="c941c__c4748__c941c__gridline" color="#000"/><g fill="none" stroke-linecap="round" stroke-linejoin="round" stroke-width="0" color="#000"><path d="M82.31 162.5V155m0-109.99v7.5"/><text fill="#000" font-family="KaTeX_Main" font-size="8" text-anchor="middle" transform="translate(82.31 172.6)"><tspan> 2</tspan></text></g><path fill="none" stroke="#999" stroke-linecap="round" stroke-linejoin="round" stroke-width=".1" d="M118.52 162.5V45.01" class="c941c__c4748__c941c__gridline" color="#000"/><g fill="none" stroke-linecap="round" stroke-linejoin="round" stroke-width="0" color="#000"><path d="M118.52 162.5V155m0-109.99v7.5"/><text fill="#000" font-family="KaTeX_Main" font-size="8" text-anchor="middle" transform="translate(118.52 172.6)"><tspan> 3</tspan></text></g><path fill="none" stroke="#999" stroke-linecap="round" stroke-linejoin="round" stroke-width=".1" d="M154.73 162.5V45.01" class="c941c__c4748__c941c__gridline" color="#000"/><g fill="none" stroke-linecap="round" stroke-linejoin="round" stroke-width="0" color="#000"><path d="M154.73 162.5V155m0-109.99v7.5"/><text fill="#000" font-family="KaTeX_Main" font-size="8" text-anchor="middle" transform="translate(154.73 172.6)"><tspan> 4</tspan></text></g><path fill="none" stroke="#999" stroke-linecap="round" stroke-linejoin="round" stroke-width=".1" d="M190.94 162.5V45.01" class="c941c__c4748__c941c__gridline" color="#000"/><g fill="none" stroke-linecap="round" stroke-linejoin="round" stroke-width="0" color="#000"><path d="M190.94 162.5V155m0-109.99v7.5"/><text fill="#000" font-family="KaTeX_Main" font-size="8" text-anchor="middle" transform="translate(190.94 172.6)"><tspan> 5</tspan></text></g><path fill="none" stroke="#999" stroke-linecap="round" stroke-linejoin="round" stroke-width=".1" d="M227.15 162.5V45.01" class="c941c__c4748__c941c__gridline" color="#000"/><g fill="none" stroke-linecap="round" stroke-linejoin="round" stroke-width="0" color="#000"><path d="M227.15 162.5V155m0-109.99v7.5"/><text fill="#000" font-family="KaTeX_Main" font-size="8" text-anchor="middle" transform="translate(227.15 172.6)"><tspan> 6</tspan></text></g><path fill="none" stroke="#999" stroke-linecap="round" stroke-linejoin="round" stroke-width=".1" d="M263.36 162.5V45.01" class="c941c__c4748__c941c__gridline" color="#000"/><g fill="none" stroke-linecap="round" stroke-linejoin="round" stroke-width="0" color="#000"><path d="M263.36 162.5V155m0-109.99v7.5"/><text fill="#000" font-family="KaTeX_Main" font-size="8" text-anchor="middle" transform="translate(263.36 172.6)"><tspan> 7</tspan></text></g><path fill="none" stroke="#999" stroke-linecap="round" stroke-linejoin="round" stroke-width=".1" d="M299.57 162.5V45.01" class="c941c__c4748__c941c__gridline" color="#000"/><g fill="none" stroke-linecap="round" stroke-linejoin="round" stroke-width="0" color="#000"><path d="M299.57 162.5V155m0-109.99v7.5"/><text fill="#000" font-family="KaTeX_Main" font-size="8" text-anchor="middle" transform="translate(299.57 172.6)"><tspan> 8</tspan></text></g><path fill="none" stroke="#999" stroke-linecap="round" stroke-linejoin="round" stroke-width=".1" d="M335.78 162.5V45.01" class="c941c__c4748__c941c__gridline" color="#000"/><g fill="none" stroke-linecap="round" stroke-linejoin="round" stroke-width="0" color="#000"><path d="M335.78 162.5V155m0-109.99v7.5"/><text fill="#000" font-family="KaTeX_Main" font-size="8" text-anchor="middle" transform="translate(335.78 172.6)"><tspan> 9</tspan></text></g><path fill="none" stroke="#999" stroke-linecap="round" stroke-linejoin="round" stroke-width=".1" d="M371.99 162.5V45.01" class="c941c__c4748__c941c__gridline" color="#000"/><g fill="none" stroke-linecap="round" stroke-linejoin="round" stroke-width="0" color="#000"><path d="M371.99 162.5V155m0-109.99v7.5"/><text fill="#000" font-family="KaTeX_Main" font-size="8" text-anchor="middle" transform="translate(371.99 172.6)"><tspan> 10</tspan></text></g><g fill="none" stroke-linecap="round" stroke-linejoin="round" stroke-width="0" color="#000"><path d="M371.99 162.5h-7.5"/><text fill="#000" font-family="KaTeX_Main" font-size="8" transform="translate(378.99 165.1)"><tspan>-1</tspan></text></g><g fill="none" stroke-linecap="round" stroke-linejoin="round" stroke-width="0" color="#000"><path d="M371.99 123.34h-7.5"/><text fill="#000" font-family="KaTeX_Main" font-size="8" transform="translate(378.99 125.94)"><tspan>0</tspan></text></g><g fill="none" stroke-linecap="round" stroke-linejoin="round" stroke-width="0" color="#000"><path d="M371.99 84.17h-7.5"/><text fill="#000" font-family="KaTeX_Main" font-size="8" transform="translate(378.99 86.77)"><tspan>1</tspan></text></g><g fill="none" stroke-linecap="round" stroke-linejoin="round" stroke-width="0" color="#000"><path d="M371.99 45.01h-7.5"/><text fill="#000" font-family="KaTeX_Main" font-size="8" transform="translate(378.99 47.61)"><tspan>2</tspan></text></g><path fill="none" d="M28 45.01V162.5M371.99 45.01H28" color="#000"/><text stroke-linecap="round" stroke-linejoin="round" stroke-width="0" color="#000" font-family="KaTeX_Main" font-size="10" text-anchor="middle" transform="rotate(-90 57.63 46.13)"><tspan>log</tspan><tspan dy="3" font-size="8">2</tspan><tspan dy="-3">(</tspan><tspan font-weight="bold">Average Path Length </tspan><tspan> / log</tspan><tspan dy="3" font-size="8">2</tspan><tspan dy="-3">(Size))</tspan></text><text stroke-linecap="round" stroke-linejoin="round" stroke-width="0" color="#000" font-family="KaTeX_Main" font-size="10" text-anchor="middle" transform="translate(199.99 195.75)"><tspan>Operations / 10</tspan><tspan dy="-5" font-size="8">6</tspan></text><text stroke-linecap="round" stroke-linejoin="round" color="#000" font-family="KaTeX_Main" font-size="8" transform="translate(104.8 10.11)"><tspan>AVLTopDown</tspan></text><g fill="none" stroke="currentColor" stroke-linecap="round" stroke-linejoin="round" color="#000"><path stroke="#29C3F6" stroke-dasharray="1.0,2.0" d="M69.3 7.51h29.9M28 129.58l.36.02.36.01.37-.01.36-.05.36-.03.36-.04.36-.03.37-.03.36-.03.36-.03.36-.02.37-.02.36-.02.36-.02.36-.02.36-.01.37-.01.36-.02.36-.01.36-.01.36-.01h.37l.36-.01h.36l.36-.01h.36l.37-.01h2.53l.36.01h.73l.36.01h.72l.37.01h.36l.36.01.36.01h.36l.37.01.36.01h.36l.36.01.36.01h.37l.36-.01.36.01.36-.01.37.01.36-.01h.36l.36-.01.36-.03.37.04.36-.04h.72l.36-.03.37-.04.36-.03.36-.04.36-.04.36-.01.37.07.36-.03.36-.04.36.03.37-.04h.36l.36-.01.36-.03.36-.03.37-.03.36-.04.36-.05h.36l.36-.04.37-.04.36-.06.36-.04h.36l.36-.01.37-.03.36.17.36-.03.36-.03.36-.04.37-.05.36-.02.36.09.36-.04.37-.03.36-.03.36.02h.36l.36-.02.37.67h.72l.36-.01.36-.01.37.01.36.01.36-.02.36-.02.36-.01.37.02h.36l.36-.02.36-.02.37-.03.36-.03.36-.04.36-.05.36-.02.37-.02.36.07.36-.03.36-.03.36.02.37-.03.36.01.36-.02.36-.04.36-.04.37-.02.36-.05.36-.02.36-.02.36-.04.37-.05.36-.05.36.01.36-.05.37-.01.36.18.36-.03.36-.05.36-.02.37-.05.36-.01.36-.03.36.07.36-.03.37-.04.36.03.36-.04h.36l.36.67.37-.01h.36l.36.01.36-.02.37.01h.72l.36-.02.36-.01.37.03.36-.04h.36l.36-.01.36-.03.37-.03.36-.03.36-.04.36-.03.36-.03.37.08.36-.03.36-.04.36.02.36-.03.37-.01h.36l.36-.03.36-.04.37-.02.36-.04.36-.02.36-.04.36-.03.37-.05.36-.06.36.02.36-.05.36-.02.37-.02.36.17.36-.04.36-.03.36-.04.37-.04.36-.01.36.07.36-.03.37-.04.36-.02.36.02.36-.01.36-.01.37.67h.36l.36-.01h.36l.36-.01.37.01.36.01.36-.03.36-.02h.36l.37.02.36-.01.36-.01.36-.03.37-.03.36-.03.36-.03.36-.05.36-.02.37.08.36-.03.36-.04.36-.03.36.03.37-.01.36-.02.36-.02.36-.03.36-.03.37-.03.36-.06.36-.01.36-.02.36-.05.37-.05.36-.04h.36l.36-.02.37-.03.36.17.36-.03.36-.04.36-.02.37-.06.36-.01.36-.03.36.08.36-.04.37-.03.36.02.36-.03.36.01.36.66h.37l.36-.01.36.01.36-.02.37.01.36.01.36-.01.36-.02.36-.02.37.03.36-.03h.36l.36-.01.36-.04.37-.03.36-.02.36-.05.36-.02.36-.03.37.07.36-.03.36-.03.36.02.36-.03.37-.01h.36l.36-.04.36-.03.37-.03.36-.04.36-.02.36-.04.36-.03.37-.05.36-.04h.36l.36-.05.36-.02.37-.02.36.17.36-.03.36-.03.36-.04.37-.02.36-.04.36.08.36-.03.37-.04.36.03.36-.04h.36l.36-.01.37.67.36-.01h.72l.36-.02.37.03.36-.01.36-.01.36-.03.36.05.37-.04h.36l.36-.01.36-.03.36-.03.37-.04.36-.03.36-.05.36-.01.37.08.36-.04.36-.04.36-.02.36.02.37-.01.36-.01.36-.02.36-.03.36-.04.37-.03.36-.05.36-.02.36-.02.36-.05.37-.05.36-.04h.36l.36-.02.37-.03.36.18.36-.03.36-.04.36-.03.37-.05.36-.02.36-.02.36.07.36-.04.37-.02.36.02.36-.01.36-.02.36.67h.37l.36-.01.36.01.36-.03.37.02.36.01.36-.02.36-.02.36-.01.37.02.36-.02h.36l.36-.02.36-.03.37-.04.36-.02.36-.05.36-.02.36-.03.37.08.36-.04.36-.03.36.02.36-.03.37.01.36-.02.36-.03.36-.04.37-.02.36-.05.36-.02.36-.03.36-.04.37-.04.36-.05h.36l.36-.04.36-.02.37.18.36-.04.36-.03.36-.02.36-.05.37-.02.36-.03.36.07.36-.03.37-.03.36.02.36-.03h.36l.36-.01.37.67.36-.01.36.01.36-.01.36.01.37-.01h.36l.36-.01.36-.03.36.04.37-.04h.72l.36-.03.36-.04.37-.03.36-.04.36-.04.36-.01.37.07.36-.03.36-.04.36.03.36-.04h.37l.36-.01.36-.03.36-.03.36-.03.37-.04.36-.05h.36l.36-.04.36-.04.37-.06.36-.04.36.01.36-.02.37-.03.36.17.36-.03.36-.03.36-.04.37-.05.36-.01.36.08.36-.04.36-.03.37-.03.36.02h.36l.36-.02.36.67h.73l.36-.01.36-.01.37.01.36.01.36-.02.36-.02.36-.01.37.02h.36l.36-.02.36-.02.36-.03.37-.03.36-.04.36-.05.36-.02.36-.02.37.07.36-.03.36-.03.36.02.36-.03.37.01.36-.02.36-.04.36-.04.37-.02.36-.05.36-.02.36-.02.36-.04.37-.05.36-.05.36.01.36-.05.36-.01.37.18.36-.03.36-.05.36-.02.36-.05.37-.01.36-.03.36.07.36-.03.37-.04.36.03.36-.04h.36l.36.67.37-.01h.36l.36.01.36-.02.36.01h.73l.36-.02.36-.01.36.03.37-.04h.36l.36-.01.36-.03.36-.04.37-.02.36-.04.36-.03.36-.03.37.08.36-.03.36-.04.36.02.36-.03h.37l.36-.01.36-.03.36-.04.36-.02.37-.04.36-.02.36-.04.36-.03.36-.05.37-.06.36.02.36-.05.36-.02.37-.02.36.17.36-.04.36-.03.36-.04.37-.04.36-.01.36.07.36-.03.36-.04.37-.02.36.02.36-.01.36-.01.36.67h.37l.36-.01h.36l.36-.01.36.01.37.01.36-.03.36-.02h.36l.37.02.36-.01.36-.01.36-.03.36-.03.37-.03.36-.03.36-.05.36-.02.36.08.37-.03.36-.04.36-.03.36.03.36-.01.37-.02.36-.02.36-.03.36-.03.37-.03.36-.06.36-.01.36-.02.36-.05.37-.05.36-.04h.36l.36-.02.36-.03.37.17.36-.03.36-.04.36-.02.36-.06.37-.01.36-.03.36.08.36-.04.37-.03.36.02.36-.03.36.01.36.66h.37l.36-.01.36.01.36-.02.36.01.37.01.36-.01.36-.02.36-.02.36.03.37-.03h.36l.36-.01.36-.04.36-.03.37-.02.36-.05.36-.02.36-.03.37.07.36-.03.36-.03.36.02.36-.03.37-.01h.36l.36-.04.36-.03.36-.03.37-.04.36-.02.36-.04.36-.03.36-.05.37-.04h.36l.36-.05.36-.02.37-.02.36.17.36-.03.36-.03.36-.04.37-.02.36-.04.36.08.36-.03.36-.04.37.03.36-.04h.36l.36-.01.36.67.37-.01h.72l.36-.02.36.03.37-.01.36-.01.36-.03.36.05.37-.04h.36l.36-.01.36-.03.36-.03.37-.04.36-.03.36-.05.36-.01.36.08.37-.04.36-.04.36-.02.36.02.36-.01.37-.01.36-.02.36-.03.36-.04.37-.03.36-.05.36-.02.36-.02.36-.05.37-.05.36-.04h.36l.36-.02.36-.03.37.18.36-.03.36-.04.36-.03.36-.05.37-.02.36-.02.36.07.36-.04.36-.02.37.02.36-.01.36-.02.36.67h.37l.36-.01.36.01.36-.03.36.02.37.01.36-.02.36-.02.36-.01.36.02.37-.02h.36l.36-.01.36-.04.36-.04.37-.02.36-.05.36-.02.36-.03.37.08.36-.04.36-.03.36.02.36-.03.37.01.36-.02.36-.03.36-.04.36-.02.37-.05.36-.02.36-.03.36-.04.36-.04.37-.05h.36l.36-.05.36-.01.37.18.36-.04.36-.03.36-.02.36-.05.37-.02.36-.03.36.07.36-.03.36-.03.37.02.36-.03h.36l.36-.01.36.67.37-.01.36.01.36-.01.36.01.36-.01h.37l.36-.01.36-.03.36.04.37-.04h.72l.36-.03.36-.04.37-.03.36-.04.36-.04.36-.01.36.07.37-.03.36-.04.36.03.36-.04h.36l.37-.01.36-.03.36-.03.36-.03.37-.04.36-.05h.36l.36-.04.36-.04.37-.06.36-.04.36.01.36-.02.36-.03.37.17.36-.03.36-.03.36-.04.36-.05.37-.01.36.08.36-.04.36-.03.36-.03.37.02h.36l.36-.02.36.67h.73l.36-.01.36-.01.36.01.37.01.36-.02.36-.02.36-.01.36.02h.37l.36-.02.36-.02.36-.03.36-.03.37-.04.36-.05.36-.02.36-.02.37.07.36-.03.36-.03.36.02.36-.03.37.01.36-.02.36-.04.36-.04.36-.02.37-.05.36-.02.36-.02.36-.04.36-.05.37-.05.36.01.36-.05.36-.01.36.18.37-.03.36-.05.36-.02.36-.05.37-.01.36-.03.36.07.36-.03.36-.04.37.03.36-.04h.36l.36.67.36-.01h.37l.36.01.36-.02.36.01h.73l.36-.02.36-.01.36.03.37-.04h.36l.36-.01.36-.03.36-.03.37-.03.36-.04.36-.02.36-.04.36.08.37-.03.36-.04.36.02.36-.03h.36l.37-.01.36-.03.36-.04.36-.02.37-.04.36-.02.36-.04.36-.03.36-.05.37-.06.36.02.36-.05.36-.02.36-.02.37.17.36-.03.36-.04.36-.04.36-.04.37-.01.36.07.36-.03.36-.04.36-.02.37.02.36-.01.36-.01.36.67h.37l.36-.01h.36l.36-.01.36.01.37.01.36-.03.36-.02"/><use xlink:href="#c941c__d" color="#29C3F6" transform="matrix(3.75 0 0 3.75 354.25 129.2)"/><use xlink:href="#c941c__d" color="#29C3F6" transform="matrix(3.75 0 0 3.75 84.25 7.51)"/></g><text stroke-linecap="round" stroke-linejoin="round" color="#000" font-family="KaTeX_Main" font-size="8" transform="translate(104.8 25.11)"><tspan>AVLRelaxedTopDown</tspan></text><g fill="none" stroke="currentColor" stroke-linecap="round" stroke-linejoin="round" color="#000"><path stroke="#9F650D" stroke-dasharray="4.5,2.0,0.5,2.0,0.5,2.0" d="M69.3 22.51h29.9M28 129.58l.36.02.36.01.37-.03.36-.03.36-.08h.36l.36-.16.37.04.36.04.36-.03.36-.02.37-.22.36.04.36.04.36.03.36.02.37-.02.36-.04.36.02.36-.52.36.09.37.11.36.04.36.04.36.03.36.05.37.05.36.03.36.03.36-.01.36-.03.37.04h.36l.36-.04.36.04.37.01h.36l.36-.15.36.06.36.04.37.04.36.03h.36l.36-.03.36.05.37.01.36-.04.36.04.36.02.36.01.37-.05.36.02.36-.01.36.02.37-.01.36-.04.36.06.36-.03.36-.02.37-.01.36-.05.36-.07.36-.06.36.17.37-.06.36-.04.36-.01.36-.07.36-.11.37.05.36-.04.36-.04.36-.02.37-.07.36-.06.36-.09.36.34.36-.17.37-.02h.36l.36-.04.36-.04.36.05.37-.04.36-.04.36-.06.36-.02.36-.07.37-.09.36.13.36-.06.36-.05.36-.03.37-.07.36-.41.36.05.36-.04.37-.03.36-.06.36-.02.36-.06.36-.1.37.75.36-.05h.36l.36.01.36-.04.37-.05.36.05.36-.05.36-.02.36-.06.37-.03.36-.05.36-.09.36.12.37-.09.36-.02.36-.03.36-.08.36-.14.37-.06.36.05.36-.05.36-.07.36-.04.37-.1.36-.08.36.31.36.49.36.01.37.03.36-.03.36-.03.36-.03.36.07.37-.02.36-.03.36-.01.36-.06.37-.06.36.14.36-.07.36-.02.36-.05h.37l.36-.05.36-.13.36.05.36-.03.37-.05.36-.02.36-.08.36-.08.36 1.56.37-.05.36.02.36-.01.36.02.37-.02.36-.04.36.06.36-.03.36-.01.37-.01.36-.06.36-.06.36.13.36-.07.37-.02.36-.04.36-.01.36-.04.36-.14.37.05.36-.04.36-.03.36-.03.36-.08.37-.07.36-.08.36.37.36-.18.37-.02h.36l.36-.03.36-.06.36.05.37-.04.36-.04.36-.02.36-.07.36-.08.37-.07.36.14.36-.07.36-.05.36-.03.37-.08.36-.39.36.05.36-.05.37-.03.36-.07.36-.02.36-.06.36-.08.37.75.36-.03.36-.02h.36l.36-.04.37-.05.36.05.36-.04.36-.03.36-.06.37-.02.36-.07.36-.08.36.12.37-.09.36-.02.36-.03.36-.07.36-.14.37.03.36-.06.36-.04.36-.07.36-.05.37-.07.36-.1.36.31.36-.21.36-.01.37-.01.36-.06.36-.06.36-.06.36.05.37-.05.36-.07.36-.05.36-.07.37-.1.36.1.36-.09.36-.05.36-.04.37-.08.36-.16.36-.07.36.03.36-.07.37-.08.36-.06.36-.1.36-.1.36 2.98.37-.04.36.01.36.03.36-.03.37-.01.36-.04.36.06.36-.01.36-.04.37-.01.36-.06.36-.07.36.15.36-.08.37-.01.36-.05h.36l.36-.05.36-.13.37.05.36-.05.36-.03.36-.03.36-.07.37-.08.36.33.36-.21h.36l.37-.03h.36l.36-.02.36-.06.36.04.37-.04.36-.03.36-.03.36-.07.36-.08.37-.08.36.15.36-.07.36-.05.36-.03.37-.06.36-.41.36.05.36-.04.37-.04.36-.02.36-.07.36-.08.36-.07.37.77.36-.03.36-.03h.36l.36-.04.37-.04.36.05.36-.05.36-.03.36-.02.37-.07.36-.06.36-.09.36.13.36-.06.37-.05.36-.03.36-.07.36-.13.37.02.36-.06.36-.04.36-.08.36-.03.37-.08.36-.1.36.32.36.52.36-.01.37.02.36-.03.36-.03.36.07.36-.03.37-.02.36-.03.36-.02.36-.04.37-.08.36.14.36-.06.36-.02.36-.01.37-.06.36-.12.36-.05.36.05.36-.02.37-.06.36-.03.36-.05.36-.09.36 1.57.37-.05.36.01.36.03.36-.02.37-.03.36-.03.36.07.36-.02.36-.03.37-.02.36-.06.36-.05.36.13.36-.07.37-.02h.36l.36-.06.36-.05.36-.12.37.05.36-.03.36-.05.36-.03.36-.07.37-.07.36.32.36-.21h.36l.37-.03.36.02.36-.04.36-.06.36.05.37-.03.36-.05.36-.03.36-.07.36-.08.37.13.36-.1.36-.03.36-.05.36-.02.37-.07.36-.4.36.04.36-.04.37-.03.36-.03.36-.07.36-.08.36-.08.37.75h.36l.36-.02h.36l.36-.03.37-.05.36.04.36-.04.36-.04.36-.02.37-.07.36-.08.36-.07.36.14.36-.07.37-.05.36-.03.36-.08.36-.12.37.02.36-.05.36-.05.36-.03.36-.09.37-.07.36-.11.36.32.36-.18.36-.03.37-.02.36-.05.36-.06.36.03.36-.05.37-.06.36-.07.36-.03.36-.08.37-.11.36.11.36-.07.36-.07.36-.04.37-.09.36-.15.36.02.36-.07.36-.06.37-.09.36-.05.36-.09.36-.12.36 3 .37-.04.36.02.36.02.36-.02.37-.04.36.07.36-.03.36-.01.36-.04.37-.02.36-.04.36-.07.36.14.36-.07.37-.02.36-.01.36-.06.36-.13.36-.04.37.06.36-.04.36-.05.36-.03.36-.08.37-.07.36.33.36-.2h.36l.37.01.36-.04.36-.05.36-.04.36.05.37-.03.36-.05.36-.03.36-.07.36-.07.37.12.36-.09.36-.04.36-.06.36-.02.37-.06.36-.4.36.05.36-.03.37-.05.36-.02.36-.08.36-.08.36.74.37-.06h.36l.36-.03.36.01.36-.03.37-.07.36.05.36-.04.36-.03.36-.03.37-.07.36-.08.36.12.36-.09.36-.03.37-.05.36-.03.36-.06.36-.14.37.03.36-.06.36-.05.36-.04.36-.09.37-.09.36-.09.36.35.36.52h.36l.37.01.36-.01.36-.04.36.06.36-.03.37-.02h.36l.36-.06.36-.06.37-.05.36.15.36-.06.36-.03.36-.02.37-.05.36-.12.36.05.36-.05.36-.03.37-.07.36-.02.36-.06.36-.08.36 1.58.37-.02h.36l.36.02.36-.03.36-.03.37.07.36-.03.36-.02.36-.04.37-.01.36-.05.36-.07.36.14.36-.07.37-.01.36-.02.36-.05.36-.13.36.05.37-.05.36-.02.36-.06.36-.03.36-.06.37-.09.36.34.36-.2h.36l.37.01.36-.05.36-.04.36-.05.36.06.37-.03.36-.06.36-.03.36-.05.36-.09.37.12.36-.09.36-.03.36-.02.36-.07.37-.42.36-.04.36.06.36-.04.37-.05.36-.03.36-.07.36-.07.36.73.37-.05h.36l.36.01.36-.05.36-.02.37-.06.36.05.36-.03.36-.05.36-.03.37-.07.36-.08.36.12.36-.09.36-.03.37-.05.36-.02.36-.07.36-.14.37.03.36-.07.36-.04.36-.04.36-.09.37-.09.36.31.36-.23h.36l.36-.05.37-.01.36-.04.36-.08.36.03.36-.05.37-.05.36-.04.36-.08.36-.1.37-.09.36.13.36-.08.36-.07.36-.04.37-.08.36-.15.36.01.36-.07.36-.07.37-.04.36-.11.36-.1.36-.1.36 3.04.37-.03.36-.01.36.02.36-.03.36-.02.37.06.36-.02.36-.02.36-.01.37-.06.36-.04.36-.07.36.14.36-.04.37-.04.36-.02.36-.05.36-.12.36.04.37-.04.36-.03.36-.06.36-.02.36-.07.37-.09.36.34.36-.17.36-.02h.37l.36-.04.36-.05.36.05.36-.04.37-.03.36-.06.36-.03.36-.06.36-.09.37.13.36-.09.36-.02.36-.03.36-.07.37-.41.36-.05.36.05.36-.02.36-.06.37-.03.36-.05.36-.09.36.74.37-.06h.36l.36.01.36-.04.36-.05.37-.04.36.06.36-.04.36-.05.36-.03.37-.08.36-.06.36.12.36-.09.36-.03.37-.02.36-.07.36-.06.36-.14.37.03.36-.04.36-.07.36-.04.36-.09.37-.08.36.3.36.47.36.02.36-.02.37.03.36-.02.36-.04.36.06.36-.01.37-.04.36-.01.36-.05.36-.06.37.13.36-.07.36-.02.36-.04h.36l.37-.06.36-.12.36.04.36-.04.36-.03.37-.03.36-.07.36-.07.36-.09.36 1.58.37.02.36-.01.36.02.36-.01.36-.04.37.06.36-.03.36-.02.36-.01.37-.05.36-.07.36-.06.36.17.36-.06.37-.04.36-.01.36-.07.36-.11.36.05.37-.04.36-.04.36-.02.36-.07.36-.06.37-.09.36.34.36-.16.36-.03h.37l.36-.04.36-.04.36.05.36-.04.37-.04.36-.06.36-.02.36-.07.36-.09.37.13.36-.06.36-.05.36-.03.36-.07.37-.41.36.05.36-.04.36-.03.36-.06.37-.02.36-.06.36-.1.36.76.37-.06h.36l.36.01.36-.04.36-.05.37.05.36-.05.36-.02.36-.06.36-.03.37-.06.36-.08.36.12.36-.08.36-.03.37-.03.36-.08.36-.14.36-.05.37.04.36-.05.36-.07.36-.04.36-.1.37-.08.36.31.36-.21.36-.02h.36l.37-.06.36-.06.36-.05.36.02.36-.04.37-.06.36-.04.36-.09.36-.09.36.1.37-.09.36-.05.36-.08.36-.03.37-.08.36-.16.36.02.36-.06.36-.08.37-.05.36-.1.36-.11.36 2.97.36-.05.37.02.36-.01.36.02.36-.02.36-.04.37.06.36-.03.36-.01.36-.01.37-.06.36-.06.36.13.36-.07.36-.02.37-.04.36-.01.36-.04.36-.14.36.05.37-.04.36-.03.36-.03.36-.08.36-.07.37-.08.36.37.36-.18.36-.02h.37l.36-.03.36-.06.36.05.36-.04.37-.04.36-.02.36-.07.36-.08.36-.07.37.13.36-.06.36-.05.36-.03.36-.08.37-.39.36.05.36-.05.36-.03.36-.06.37-.03.36-.06.36-.08.36.75.37-.03.36-.02h.36l.36-.04.36-.05.37.05.36-.04.36-.03"/><use xlink:href="#c941c__c" color="#9F650D" transform="matrix(3.75 0 0 3.75 67.83 128.28)"/><use xlink:href="#c941c__c" color="#9F650D" transform="matrix(3.75 0 0 3.75 84.25 22.51)"/></g><text stroke-linecap="round" stroke-linejoin="round" color="#000" font-family="KaTeX_Main" font-size="8" transform="translate(241.1 10.11)"><tspan>LBSTTopDown</tspan></text><g fill="none" stroke="currentColor" stroke-linecap="round" stroke-linejoin="round" color="#000"><path stroke="#F44336" stroke-dasharray="4.5,2.0,0.5,2.0,0.5,2.0" d="M205.6 7.51h29.9M28 128.32l.36-.06.36-.19.37-.26.36-.2.36-.02.36.08.36-.16.37-.08.36.51.36-.19.36-.08.37-.15.36.1.36-.01.36-.16.36 1.06.37-.16.36-.02.36.06.36-.14.36-.06.37-.13.36.41.36-.07.36-.12.36.08.37-.14.36-.01.36-.2.36-.13.36-.09.37.08.36-.14.36-.06.36-.14.37.27.36-.03.36-.13.36.05.36-.13.37-.02.36.7.36-.11.36-.08.36-.12.37.08.36-.07.36-.1.36.24.36-.02.37.59.36-.03.36-.07.36.13.37-.05.36-.06.36.01.36-.06.36-.03.37-.09.36-.08.36-.06.36.02.36-.09.37-.06.36-.07.36.09.36-.04.36-.08h.37l.36-.08.36-.06.36.31.37-.08.36-.05.36-.08.36.01.36-.06.37-.07.36.09.36-.08.36-.04.36-.01.37-.07.36-.06.36.72.36-.08.36-.05.37-.09.36-.01.36-.03.36-.09.36.1.37-.08.36-.04h.36l.36-.08.37-.06.36-.08.36.31.36-.05.36-.08.37.66.36-.02.36-.07.36.12.36-.07.37-.04.36.03.36-.07.36-.04.36-.06.37-.09.36-.06.36-.08H70l.37-.09.36-.03.36.09.36-.08.36-.05.37.01.36-.08.36-.06.36-.08.36.3.37-.04.36-.08h.36l.36-.08.36-.04.37.09.36-.08.36-.05.36-.09.36.02.37-.06.36-.07.36.69.36-.03.37-.09.36-.01.36-.07.36-.06.36.11.37-.08.36-.05.36-.08.36-.01.36-.04.37-.08.36.3.36-.08.36-.04.36.66.37-.06.36-.04.36-.08.36.14.37-.05.36-.06.36.01.36-.02.36-.07.37-.09.36-.09.36-.06.36.02.36-.09.37-.04.36-.09.36.12.36-.06.36-.08.37-.01.36-.08.36-.04.36.3.36-.08.37-.05.36.01.36-.08.36-.07.37-.07.36.09.36-.03.36-.08.36-.01.37-.08.36-.04.36.71.36-.09.36-.05.37-.08.36.01.36-.06.36-.08.36.1.37-.04.36-.09h.36l.36-.08.37-.05.36.31.36-.08.36-.05.36-.08.37.68.36-.04.36-.07.36.12.36-.07.37-.03.36.01.36-.06.36-.04.36-.07.37-.09.36-.05.36-.08.36-.01.37-.04.36-.08.36.1.36-.08.36-.06.37.01.36-.08.36-.05.36-.08.36.31.37-.05.36-.08.36-.01.36-.08.36-.04.37.09.36-.07.36-.06.36.01.36-.08.37-.05.36-.08.36.7.36-.04.37-.08.36-.01.36-.08.36-.04.36.1.37-.08.36-.06.36-.08.36.01.36-.05.37-.08.36.3.36-.04.36-.08.36.65.37-.06.36-.04.36.13.36-.07.37-.03.36-.07.36.03.36-.04.36-.08.37-.09.36-.08.36-.04.36-.01.36-.07.37-.06.36.11.36-.08.36-.06.36-.08h.37l.36-.04.36-.08.36.3.36-.08.37-.04.36-.01.36-.08.36-.05.37-.08.36.11.36-.06.36-.07.36-.01.37-.09.36-.03.36.7.36-.08.36-.06.37.02.36-.09.36-.05.36-.08.36.09.37-.04.36-.08h.36l.36-.08.37-.04.36.3.36-.08.36-.06.36-.08.37.69.36-.05.36-.06.36.11.36-.02.37-.07.36.02.36-.07.36-.04.36-.08.37-.08.36-.05.36-.09.36.02.36-.06.37-.09.36.1.36-.08.36-.03.37-.01.36-.08.36-.05.36.31.36-.08.37-.06.36-.08h.36l.36-.04.36-.09.37.11.36-.09.36-.03.36-.01.36-.09.37-.05.36-.08.36.72.36-.06.37-.07.36-.01.36-.04.36-.08.36.09.37-.07.36-.06.36.01.36-.08.36-.05.37-.08.36.31.36-.06.36-.08.36.67.37-.07.36-.02.36.11.36-.06.37-.04.36-.08.36.03.36-.04.36-.06.37-.11.36-.03.36-.09.36.01.36-.09.37-.06.36.12.36-.09.36-.05.36-.08.37.01.36-.05.36-.08.36.29.36-.08.37-.04h.36l.36-.08.36-.06.37.12.36-.09.36-.04.36-.09.36-.01.37-.04.36-.08.36.71.36-.08.36-.04.37-.01.36-.09.36-.05.36-.08.36.12.37-.06.36-.08h.36l.36-.04.37-.08.36.29.36-.08.36-.05.36.01.37.59.36-.03.36-.07.36.13.36-.05.37-.06.36.01.36-.06.36-.03.36-.09.37-.08.36-.06.36.02.36-.09.36-.06.37-.07.36.09.36-.04.36-.08h.37l.36-.08.36-.06.36.31.36-.08.37-.05.36-.08.36.01.36-.06.36-.07.37.09.36-.08.36-.04.36-.01.36-.07.37-.06.36.72.36-.08.36-.05.37-.09.36-.01.36-.03.36-.09.36.11.37-.09.36-.04h.36l.36-.08.36-.06.37-.08.36.31.36-.05.36-.08.36.66.37-.02.36-.07.36.11.36-.06.37-.04.36.03.36-.07.36-.04.36-.06.37-.09.36-.06.36-.08h.36l.36-.09.37-.03.36.09.36-.08.36-.05.36.01.37-.08.36-.06.36-.08.36.3.36-.04.37-.08h.36l.36-.08.36-.04.37.09.36-.08.36-.05.36-.09.36.02.37-.06.36-.08.36.71.36-.04.36-.09.37-.01.36-.07.36-.06.36.11.36-.08.37-.05.36-.08.36-.01.36-.04.37-.08.36.3.36-.08.36-.04.36.66.37-.06.36-.04.36-.08.36.14.36-.05.37-.06.36.01.36-.02.36-.07.36-.09.37-.09.36-.06.36.02.36-.09.36-.05.37-.08.36.12.36-.06.36-.08.37-.01.36-.08.36-.04.36.3.36-.08.37-.05.36.01.36-.08.36-.07.36-.07.37.09.36-.03.36-.08.36-.01.36-.08.37-.04.36.71.36-.09.36-.05.37-.08.36.01.36-.06.36-.08.36.1.37-.04.36-.09h.36l.36-.08.36-.05.37.31.36-.08.36-.05.36-.08.36.68.37-.04.36-.07.36.12.36-.07.36-.02h.37l.36-.06.36-.04.36-.07.37-.09.36-.05.36-.08.36-.01.36-.04.37-.08.36.1.36-.08.36-.06.36.01.37-.08.36-.05.36-.08.36.31.36-.05.37-.08.36-.01.36-.08.36-.04.37.09.36-.07.36-.06.36.01.36-.08.37-.05.36-.08.36.7.36-.04.36-.08.37-.01.36-.08.36-.04.36.1.36-.07.37-.07.36-.08.36.01.36-.05.37-.08.36.3.36-.04.36-.08.36.65.37-.06.36-.04.36.13.36-.07.36-.03.37-.07.36.03.36-.04.36-.08.36-.09.37-.08.36-.04.36-.01.36-.07.36-.06.37.11.36-.08.36-.06.36-.08h.37l.36-.04.36-.08.36.3.36-.08.37-.04.36-.01.36-.08.36-.05.36-.08.37.11.36-.06.36-.07.36-.01.36-.09.37-.03.36.7.36-.08.36-.06.37.02.36-.09.36-.05.36-.08.36.09.37-.04.36-.08h.36l.36-.08.36-.04.37.3.36-.08.36-.06.36-.08.36.69.37-.05.36-.06.36.11.36-.02.36-.07.37.02.36-.07.36-.04.36-.08.37-.08.36-.05.36-.09.36.02.36-.06.37-.09.36.1.36-.08.36-.03.36-.01.37-.08.36-.05.36.31.36-.08.36-.06.37-.08h.36l.36-.04.36-.09.37.11.36-.09.36-.03.36-.01.36-.09.37-.04.36-.09.36.72.36-.06.36-.07.37-.01.36-.04.36-.08.36.09.36-.07.37-.06.36.01.36-.08.36-.05.36-.08.37.29.36-.04.36-.08.36.67.37-.07.36-.02.36.11.36-.06.36-.04.37-.08.36.03.36-.04.36-.06.36-.11.37-.03.36-.09h.36l.36-.08.36-.06.37.12.36-.09.36-.05.36-.08.37.01.36-.05.36-.08.36.29.36-.08.37-.04h.36l.36-.08.36-.06.36.12.37-.08.36-.05.36-.09.36-.01.36-.04.37-.08.36.71.36-.08.36-.04.37-.01.36-.08.36-.05.36-.09.36.12.37-.06.36-.08h.36l.36-.04.36-.08.37.29.36-.08.36-.05.36.01.36.59.37-.03.36-.07.36.13.36-.05.36-.06.37.01.36-.06.36-.03.36-.09.37-.08.36-.06.36.02.36-.09.36-.06.37-.07.36.09.36-.04.36-.08h.36l.37-.08.36-.06.36.31.36-.08.36-.05.37-.08.36.01.36-.06.36-.07.37.09.36-.08.36-.04.36-.01.36-.07.37-.06.36.72.36-.08.36-.05.36-.09.37-.01.36-.04.36-.08.36.11.36-.09.37-.04h.36l.36-.08.36-.06.36-.08.37.31.36-.05.36-.08.36.66.37-.02.36-.06.36.1.36-.06.36-.04.37.03.36-.07.36-.04.36-.06.36-.09.37-.06.36-.08h.36l.36-.09.36-.03.37.09.36-.08.36-.05.36.01.37-.09.36-.05.36-.08.36.3.36-.04.37-.08h.36l.36-.08.36-.04.36.09.37-.08.36-.05.36-.08.36.01.36-.06.37-.08.36.7.36-.03.36-.09.36-.01.37-.07.36-.06.36.11.36-.08.37-.05.36-.08.36-.01.36-.04.36-.08.37.3.36-.08.36-.04.36.66.36-.06.37-.04.36-.08.36.14.36-.05.36-.06.37.01.36-.02.36-.07.36-.09.37-.09.36-.06.36.02.36-.08.36-.06.37-.08.36.12.36-.06.36-.08.36-.01.37-.08.36-.04.36.3.36-.08.36-.05.37.01.36-.08.36-.06.36-.08.37.09.36-.03.36-.09h.36l.36-.08.37-.03.36.7.36-.09.36-.05.36-.08.37.01.36-.06.36-.07.36.09.36-.04.37-.08.36-.01.36-.08.36-.05.36.31.37-.08.36-.05.36-.08.36.68.37-.04.36-.07.36.12.36-.07.36-.02h.37l.36-.06.36-.04"/><use xlink:href="#c941c__e" color="#F44336" transform="matrix(3.75 0 0 3.75 125.4 128.46)"/><use xlink:href="#c941c__e" color="#F44336" transform="matrix(3.75 0 0 3.75 220.55 7.51)"/></g><text stroke-linecap="round" stroke-linejoin="round" color="#000" font-family="KaTeX_Main" font-size="8" transform="translate(241.1 25.11)"><tspan>TreapFingerTree</tspan></text><g fill="none" stroke="currentColor" stroke-linecap="round" stroke-linejoin="round" color="#000"><path stroke="#3B75EA" d="M205.6 22.51h29.9M28 94.21l.36 2.56.36 1.54.37-1.61.36 2.97.36-7.18.36 2.66.36 1.38.37-5.73.36 3.5.36-4.41.36 10.18.37-9.92.36-.55.36 6.41.36-4.79.36 1.43.37.07.36 1.53.36 1.54.36 2.9.36-2.86.37-4.9.36 1.6.36 8.22.36-8.03.36-.96.37 1.51.36-1.4.36 1.39.36-5.64.36 6.63.37 3.02.36-5.67.36-3.53.36 5.28.37 4.3.36-5.3.36-3.62.36 2.85.36-.54.37-3.56.36 10.83.36-11.88.36 5.28.36 2.84.37 1.56.36-.48.36-9.09.36 2.61.36-3.58.37 9.14.36-2.98.36 6.95.36-3.65.37-5.55.36-2.94.36 10.35.36 1.07.36-11.52.37 2.98.36 4.15.36 2.47.36-4.64.36 5.93.37-.76.36 1.95.36.09.36-4.39.36-1.63.37-.84.36.65.36-5.72.36 5.69.37-4.28.36-4.2.36 5.51.36 6.04.36-1.44.37-8.84.36 10.45.36-6.28.36 1.38.36 1.75.37-6.18.36 1.89.36-1.53.36 4.4.36 6.27.37-12.6.36 1.4.36 4.56.36 1.18.36 2.82.37-8.06.36-1.42.36 6.64.36 6.09.37-18.95.36 5.17.36 4.76.36 3.89.36-6.65.37 2.51.36-6.23.36 12.2.36 2.19.36-9.23.37 9.75.36-2.11.36-5.19.36 8.83.36 2.05.37-9.09.36-3.15.36 5.19.36-7.95.37 2.98.36-.49.36 8.94.36-.15.36-3.01.37-4.31.36 3.68.36-2.22.36.94.36-1.4.37 2.9.36 1.53.36-1.01.36-3.74.36-5.21.37 3.51.36 2.66.36 5.05.36 1.07.36-7.14.37 4.42.36-6.14.36-.87.36 2.61.37 3.68.36-3.1.36 6.11.36-6.72.36 3.37.37-6.11.36 2.14.36 10.95.36-11.46.36 3.34.37 2.39.36-10 .36 7.59.36 1.12.36 1.14.37-4.51.36-.16.36.1.36-7.3.37 9.35.36-1.22.36 2.44.36-.88.36-6.05.37 1.42.36 3.86.36 2.86.36.31.36-7 .37 7.97.36-4.22.36-2.08.36.66.36 2.48.37 6.54.36-10.08.36 1.46.36 6.75.36-6.77.37 4.16.36-5.19.36 11.02.36-5.11.37-4.31.36-8.97.36 3.91.36 2.91.36-2.29.37 3.22.36 4.73.36-2.31.36-3.38.36-1.54.37-.36.36 4.16.36 3.85.36.48.36-5.65.37 2.19.36-2.08.36-2 .36 4.86.37-3.41.36.85.36-2.52.36-3.41.36 3.43.37 3.37.36-.36.36-1.26.36.22.36 2.79.37 6.67.36-3.12.36-6.54.36 6.85.36-5.99.37 8.4.36-7.08.36-5.73.36 4.05.37-.92.36-1.41.36 9.1.36-6.28.36 1.07.37 4.08.36-6.04.36-2 .36 4.13.36-6.77.37 4.28.36 2.08.36-2.74.36 2.35.36-.56.37.91.36-2.76.36 3.88.36-.99.36-1.97.37 2.22.36 1.08.36-11.56.36 7.66.37-1.65.36 1.43.36 2.56.36-6.79.36 3.41.37 16.47.36-5.08.36-9.98.36-3.96.36 5.57.37-5.54.36 4.16.36-1.62.36.27.36-2.89.37 2.72.36-4.12.36 12.03.36-9.51.37 2.91.36 3.22.36.1.36-1.66.36 5.01.37-2.05.36-4.89.36 2.03.36-.99.36 1.45.37-2.02.36 4.56.36-3.71.36-1.48.36.75.37-.07.36 4.94.36-6.41.36 14.36.36-12.08.37 2.59.36 2.15.36-4.61.36 2.11.37 4.02.36-7.07.36.32.36 1.12.36-2.89.37 5.54.36-2.83.36.99.36-.03.36-5.02.37 3.14.36 2.2.36-1.6.36 1.81.36-2.93.37-1.64.36-2.41.36 8.25.36-4.02.37 1.6.36 1.14.36 2.23.36-5.91.36 4.37.37 1.68.36-1.15.36-2.78.36-.77.36 4.81.37-6.28.36 5.05.36-5.87.36 2.29.36-3.51.37 10.19.36-9.87.36 3.33.36-3.02.36 7.34.37-2.77.36 2.45.36.82.36-6.07.37 9.02.36-3.08.36-11.92.36 10.58.36 3.31.37-7.27.36-.75.36-8.68.36 12.18.36-1.38.37.12.36-2.05.36 3.48.36.05.36 8.19.37-10.48.36 2.52.36 7.22.36-3.07.37-2.46.36-4.53.36-1.89.36-2.61.36 4.2.37 6.78.36-5.11.36-1.32.36 3.06.36 2.39.37-1.44.36 1.75.36 3.21.36-7.12.36-5.27.37-3.49.36 8.25.36-8.1.36.59.37 9.45.36-1.55.36 1.48.36-1.65.36-1.28.37 8.01.36-8.32.36 6.54.36-9.7.36 3.02.37 5.82.36 2.94.36-9.73.36 5.56.36-4.33.37 1.61.36 3.37.36 5.8.36-8.43.36 3.3.37-6.66.36-3.61.36 9.52.36 1.68.37-4.36.36 1.95.36-.85.36-1.41.36 4.22.37-.95.36 2.71.36-1.65.36.73.36 1.81.37-11.69.36 5.56.36 1.71.36-2.54.36-2.13.37 1.29.36.36.36 7.13.36-8.61.37-5.29.36 11.23.36-2.67.36-2.59.36 2.56.37-4.5.36 4.3.36-7.45.36 5.67.36-3.62.37 1.25.36 4.74.36 3.6.36-1.2.36-5.63.37-5.86.36 11.52.36 2.95.36-2.1.36-6.31.37 5.47.36-2.1.36-4.23.36 2.81.37-1.76.36-.41.36 7.93.36-5.54.36 5.69.37-12.27.36-.61.36 11.8.36-2.22.36-8.31.37 5.53.36-1.31.36-8.79.36 8.81.36-1.48.37.24.36 5.36.36-7.4.36 8.9.37-7.21.36 6.88.36-4.4.36-1.3.36.95.37 1.48.36-3.66.36 6.04.36-6.32.36.51.37 2.85.36-.39.36-.78.36-3.79.36 3.11.37 4.46.36-11.49.36 5.04.36-1.2.37.68.36 2.18.36 5.92.36-2.61.36-4.11.37 2.5.36.25.36-2.32.36-5.74.36 12.42.37-3.38.36-10.27.36 7.31.36-2.74.36 2.92.37-1.65.36 2.72.36-10.66.36 9.54.36-5.77.37 10.15.36-1.92.36-4.54.36-4.41.37 6.89.36 6.29.36 3.63.36-8.75.36.14.37-1.52.36 1.56.36-1.35.36 1.87.36-8.55.37 8.8.36 2.37.36-12.34.36 2.41.36.6.37 2.55.36 5.41.36-5.03.36 1.29.37.28.36-4.38.36 3.5.36-.35.36 1.23.37 2.83.36-5 .36 9.96.36 2.88.36-13.05.37 5.26.36.67.36 3.52.36-4.75.36-7.48.37 1.74.36 2.79.36 2.8.36-3.53.36.17.37 3.96.36-3.91.36 1.07.36-.08.37 1.07.36-.71.36.01.36 4.31.36-4.31.37 4.46.36 7.18.36-17.54.36 1.89.36 8.67.37-7.39.36 10.72.36-2.35.36-2.76.36-5.22.37 2.21.36 3.41.36-1.57.36 4.02.37-8.11.36 2.17.36-.46.36 7.72.36-8.21.37 2.6.36-2.87.36 3.09.36 2.77.36-2.93.37-6.02.36 4.01.36 2.84.36-2.38.36-4.12.37.81.36-.69.36 3.82.36-3.74.36 3.34.37-2.31.36-2.25.36 4.89.36 4.74.37-5.32.36-3.53.36 3.01.36 2.83.36-1.1.37 2.62.36 5.06.36-7.26.36 1.97.36-3.13.37 2.28.36 5.16.36-9.38.36.25.36 2.46.37 3.86.36-3.35.36-5.46.36 1.37.37-.84.36 7.96.36-7.03.36 4.29.36 2.41.37-1.23.36 1.03.36-8.38.36 9.64.36-6.42.37-7.2.36 5.69.36-9.28.36 11.91.36-6.72.37 2.69.36 2.82.36-4.8.36 7.95.37 2.93.36-7.07.36-4.48.36 3.99.36 6.51.37-7.34.36 9.42.36-6.56.36 6.43.36-3.03.37-9.62.36 3.85.36-3.34.36 4.71.36 4.56.37-9.8.36 9.46.36-2.57.36.46.36-2.55.37-1.45.36.67.36-5.81.36 4.88.37-.98.36 5.4.36 6.42.36-7.02.36 6.99.37-7.71.36-3.68.36-1.12.36-.45.36 3 .37.68.36-4.94.36 6.6.36-1.6.36-1.45.37 2.31.36-1.16.36 8.35.36-3.88.37-.89.36-3.36.36 5.37.36-6.5.36.77.37-1.24.36 5.82.36-2.62.36 6.15.36-1.29.37-4.81.36.65.36 3.56.36-2.04.36 4.17.37-4.52.36-2.58.36-.54.36-.73.36 3.09.37 2.97.36-8.99.36 4 .36.57.37 10.45.36-4.72.36-6.54.36.63.36 3.9.37 1.17.36-4.65.36 4.76.36-4.07.36 1.39.37.4.36-1.39.36.68.36 2.48.36-1.64.37 1.04.36-2.36.36 6.38.36-5.82.37 7.6.36-6.89.36-1.51.36 6.15.36 2.72.37-3.54.36-7.72.36.54.36 2.01.36 1.02.37 3.16.36-3.99.36 6.11.36-11.87.36 3.6.37 6.02.36-9.51.36 4.19.36 2.38.36-4.01.37 3.47.36 2.25.36-.44.36-.63.37-3.87.36 3.26.36.31.36-2.24.36 4.22.37.69.36-1.6.36 3.93.36-.69.36-9.52.37 4.63.36-.4.36-3.21.36 6.31.36-2.38.37 2.13.36-9.87.36 12.99.36-3.55.37-2.51.36-4.17.36 7.65.36-2.23.36-5.77.37 6.72.36-.62.36-8.65.36 7.02.36 2.49.37-2.41.36 4.18.36.9.36-4.61.36.69.37-4.16.36 8.27.36-7.39.36 1.71.37 8.65.36-4.54.36-1.69.36 5.06.36 1.16.37-11.3.36 4.45.36 2.07.36-6.01.36 3.74.37 1.66.36 5.99.36-8.67.36 5.72.36-8.73.37 6.94.36-7.57.36 7.1.36-5.63.36.63.37 7 .36-4.34.36-3.04.36-4.16.37 5.71.36 4.46.36 3.06.36-3.52.36 3.22.37-3.11.36-11.52.36 13.35.36-7.9.36 11.53.37-5.37.36-4.83.36-5.89.36 4.38.36-.04.37 1.52.36-.92.36 2.31.36-2.78.37 5.58.36-9.16.36 6.93.36-.02.36-3.71.37 5.26.36-2.77.36 4.92.36-9.53.36 7.15.37-.18.36-9.7.36 8.72.36 4.88.36-7.17.37-1.76.36 3.46.36-4.21.36 1.79.36-3.64.37 6.77.36-7.81.36-1.33.36 6.21.37 2.61.36-1.46.36-.89.36 2.71.36-2.26.37 2.1.36-3.45.36-7.7.36 11.92.36-4.05.37-5.83.36 3.69.36.99.36.17.36.65.37 2.88.36-2.34.36 1.06.36 1.42.37.67.36-.17.36-14.68.36 10.25.36-2.9.37 12.72.36-6.43.36-4.45.36 1.75.36 9.59.37-9.68.36 3.15.36-7.38.36 10.75.36-3.63.37 4.84.36-8.91.36 5.08.36-.03.36-2.47.37-.47.36-.26.36 7.08.36-6.58.37-.02.36 6.04.36-5.92.36-.92.36 7.91.37-8.86.36 4.18.36 2.76.36-5.84.36 6.23.37-4.95.36 1.14.36-2.86.36 6.16.36-3.06.37-.19.36-3.23.36 4.27.36 3.25.37 2.22.36-3.71.36-8.34.36 8.9.36-1.88.37-3.01.36 2.44.36 3.89.36-2.56.36-1.68.37 5.95.36-4.35.36.15.36-9.23.36 4.4.37-4.42.36 1.34.36.01.36 1.59.37-2.86.36 6.96.36-8.48.36 4.19.36 6.09.37-8.65.36 7.62.36.54.36-1.98.36-5.78.37 14.24.36-14.77.36 7.13.36 1.76.36-2.37.37 3.98.36-1.07.36-1.08.36-1.31.36-1.58.37-1.33.36 4.63.36 4.86.36-9.88.37 2.63.36-6.24.36 3.02.36 1.77.36 2.03.37.07.36-3.84.36-5.12"/><use xlink:href="#c941c__f" color="#3B75EA" transform="matrix(3.75 0 0 3.75 182.98 84.71)"/><use xlink:href="#c941c__f" color="#3B75EA" transform="matrix(3.75 0 0 3.75 220.55 22.51)"/></g><path fill="none" d="M28 45.01V162.5M371.99 45.01H28" color="#000"/></svg>