<svg xmlns="http://www.w3.org/2000/svg" xmlns:xlink="http://www.w3.org/1999/xlink" viewBox="0 0 400 200"><path fill="none" d="M0 0h400v200H0z"/><defs><use xlink:href="#d0764__a" id="d0764__e" fill="currentColor" stroke="none"/><use xlink:href="#d0764__b" id="d0764__c" stroke="currentColor" transform="rotate(180)"/><use xlink:href="#d0764__c" id="d0764__d" fill="currentColor" stroke="none"/><path id="d0764__f" stroke="currentColor" stroke-width=".267" d="M-1 0h2M0-1v2"/><path id="d0764__b" stroke="currentColor" stroke-width=".267" d="m0-1.33-1.33 2h2.66z"/><circle id="d0764__a" cx="0" cy="0" r="1" stroke="currentColor" stroke-width=".267"/></defs><path fill="none" stroke="#999" stroke-linecap="round" stroke-linejoin="round" stroke-width=".1" d="M46.1 162.5V45.01" class="d0764__84f49__d0764__gridline" color="#000"/><g fill="none" stroke-linecap="round" stroke-linejoin="round" stroke-width="0" color="#000"><path d="M46.1 162.5V155m0-109.99v7.5"/><text fill="#000" font-family="KaTeX_Main" font-size="8" text-anchor="middle" transform="translate(46.1 172.6)"><tspan> 1</tspan></text></g><path fill="none" stroke="#999" stroke-linecap="round" stroke-linejoin="round" stroke-width=".1" d="M82.31 162.5V45.01" class="d0764__84f49__d0764__gridline" color="#000"/><g fill="none" stroke-linecap="round" stroke-linejoin="round" stroke-width="0" color="#000"><path d="M82.31 162.5V155m0-109.99v7.5"/><text fill="#000" font-family="KaTeX_Main" font-size="8" text-anchor="middle" transform="translate(82.31 172.6)"><tspan> 2</tspan></text></g><path fill="none" stroke="#999" stroke-linecap="round" stroke-linejoin="round" stroke-width=".1" d="M118.52 162.5V45.01" class="d0764__84f49__d0764__gridline" color="#000"/><g fill="none" stroke-linecap="round" stroke-linejoin="round" stroke-width="0" color="#000"><path d="M118.52 162.5V155m0-109.99v7.5"/><text fill="#000" font-family="KaTeX_Main" font-size="8" text-anchor="middle" transform="translate(118.52 172.6)"><tspan> 3</tspan></text></g><path fill="none" stroke="#999" stroke-linecap="round" stroke-linejoin="round" stroke-width=".1" d="M154.73 162.5V45.01" class="d0764__84f49__d0764__gridline" color="#000"/><g fill="none" stroke-linecap="round" stroke-linejoin="round" stroke-width="0" color="#000"><path d="M154.73 162.5V155m0-109.99v7.5"/><text fill="#000" font-family="KaTeX_Main" font-size="8" text-anchor="middle" transform="translate(154.73 172.6)"><tspan> 4</tspan></text></g><path fill="none" stroke="#999" stroke-linecap="round" stroke-linejoin="round" stroke-width=".1" d="M190.94 162.5V45.01" class="d0764__84f49__d0764__gridline" color="#000"/><g fill="none" stroke-linecap="round" stroke-linejoin="round" stroke-width="0" color="#000"><path d="M190.94 162.5V155m0-109.99v7.5"/><text fill="#000" font-family="KaTeX_Main" font-size="8" text-anchor="middle" transform="translate(190.94 172.6)"><tspan> 5</tspan></text></g><path fill="none" stroke="#999" stroke-linecap="round" stroke-linejoin="round" stroke-width=".1" d="M227.15 162.5V45.01" class="d0764__84f49__d0764__gridline" color="#000"/><g fill="none" stroke-linecap="round" stroke-linejoin="round" stroke-width="0" color="#000"><path d="M227.15 162.5V155m0-109.99v7.5"/><text fill="#000" font-family="KaTeX_Main" font-size="8" text-anchor="middle" transform="translate(227.15 172.6)"><tspan> 6</tspan></text></g><path fill="none" stroke="#999" stroke-linecap="round" stroke-linejoin="round" stroke-width=".1" d="M263.36 162.5V45.01" class="d0764__84f49__d0764__gridline" color="#000"/><g fill="none" stroke-linecap="round" stroke-linejoin="round" stroke-width="0" color="#000"><path d="M263.36 162.5V155m0-109.99v7.5"/><text fill="#000" font-family="KaTeX_Main" font-size="8" text-anchor="middle" transform="translate(263.36 172.6)"><tspan> 7</tspan></text></g><path fill="none" stroke="#999" stroke-linecap="round" stroke-linejoin="round" stroke-width=".1" d="M299.57 162.5V45.01" class="d0764__84f49__d0764__gridline" color="#000"/><g fill="none" stroke-linecap="round" stroke-linejoin="round" stroke-width="0" color="#000"><path d="M299.57 162.5V155m0-109.99v7.5"/><text fill="#000" font-family="KaTeX_Main" font-size="8" text-anchor="middle" transform="translate(299.57 172.6)"><tspan> 8</tspan></text></g><path fill="none" stroke="#999" stroke-linecap="round" stroke-linejoin="round" stroke-width=".1" d="M335.78 162.5V45.01" class="d0764__84f49__d0764__gridline" color="#000"/><g fill="none" stroke-linecap="round" stroke-linejoin="round" stroke-width="0" color="#000"><path d="M335.78 162.5V155m0-109.99v7.5"/><text fill="#000" font-family="KaTeX_Main" font-size="8" text-anchor="middle" transform="translate(335.78 172.6)"><tspan> 9</tspan></text></g><path fill="none" stroke="#999" stroke-linecap="round" stroke-linejoin="round" stroke-width=".1" d="M371.99 162.5V45.01" class="d0764__84f49__d0764__gridline" color="#000"/><g fill="none" stroke-linecap="round" stroke-linejoin="round" stroke-width="0" color="#000"><path d="M371.99 162.5V155m0-109.99v7.5"/><text fill="#000" font-family="KaTeX_Main" font-size="8" text-anchor="middle" transform="translate(371.99 172.6)"><tspan> 10</tspan></text></g><g fill="none" stroke-linecap="round" stroke-linejoin="round" stroke-width="0" color="#000"><path d="M371.99 162.5h-7.5"/><text fill="#000" font-family="KaTeX_Main" font-size="8" transform="translate(378.99 165.1)"><tspan>-1</tspan></text></g><g fill="none" stroke-linecap="round" stroke-linejoin="round" stroke-width="0" color="#000"><path d="M371.99 123.34h-7.5"/><text fill="#000" font-family="KaTeX_Main" font-size="8" transform="translate(378.99 125.94)"><tspan>0</tspan></text></g><g fill="none" stroke-linecap="round" stroke-linejoin="round" stroke-width="0" color="#000"><path d="M371.99 84.17h-7.5"/><text fill="#000" font-family="KaTeX_Main" font-size="8" transform="translate(378.99 86.77)"><tspan>1</tspan></text></g><g fill="none" stroke-linecap="round" stroke-linejoin="round" stroke-width="0" color="#000"><path d="M371.99 45.01h-7.5"/><text fill="#000" font-family="KaTeX_Main" font-size="8" transform="translate(378.99 47.61)"><tspan>2</tspan></text></g><path fill="none" d="M28 45.01V162.5M371.99 45.01H28" color="#000"/><text stroke-linecap="round" stroke-linejoin="round" stroke-width="0" color="#000" font-family="KaTeX_Main" font-size="10" text-anchor="middle" transform="rotate(-90 57.63 46.13)"><tspan>log</tspan><tspan dy="3" font-size="8">2</tspan><tspan dy="-3">(</tspan><tspan font-weight="bold">Maximum Path Length </tspan><tspan> / log</tspan><tspan dy="3" font-size="8">2</tspan><tspan dy="-3">(Size))</tspan></text><text stroke-linecap="round" stroke-linejoin="round" stroke-width="0" color="#000" font-family="KaTeX_Main" font-size="10" text-anchor="middle" transform="translate(199.99 195.75)"><tspan>Operations / 10</tspan><tspan dy="-5" font-size="8">6</tspan></text><text stroke-linecap="round" stroke-linejoin="round" color="#000" font-family="KaTeX_Main" font-size="8" transform="translate(104.8 10.11)"><tspan>AVLTopDown</tspan></text><g fill="none" stroke="currentColor" stroke-linecap="round" stroke-linejoin="round" color="#000"><path stroke="#29C3F6" stroke-dasharray="1.0,2.0" d="M69.3 7.51h29.9M28 126.19l.36.08.36.09.37-2.98.36.08.36.08.36.08.36.07.37.08.36.07.36.07.36.07.37.07.36.07.36.07.36.06.36.07.37.06.36.06.36.06.36.06.36.06.37.06.36.06.36.06.36.05.36.06.37.05.36.06.36.05.36.05.36.05.37.05.36.05.36.05.36.05.37.05.36.05.36.05.36.04.36.05.37.04.36.05.36.04.36.05.36.04.37.04.36.05.36.04.36.04.36.04h3.26l.37-2.9h15.2l.37 2.9h3.25l.37-2.9h14.84l.36 2.9h3.26l.37-2.9h15.2l.37 2.9h3.25l.37-2.9h14.84l.36 2.9h3.26l.37-2.9h15.2l.37 2.9h2.89l.36-2.9h15.21l.36 2.9h3.26l.37-2.9h15.2l.37 2.9h2.89l.36-2.9h15.21l.36 2.9h3.26l.37-2.9h14.84l.36 2.9h3.26l.36-2.9h15.21l.36 2.9h3.26l.37-2.9h14.84l.36 2.9h3.26l.36-2.9h15.21l.36 2.9h2.9l.36-2.9h15.21l.36 2.9h3.26l.36-2.9h15.21l.36 2.9h2.9l.36-2.9h15.21l.36 2.9h3.26l.36-2.9h14.85l.36 2.9h3.26l.36-2.9h15.21l.36 2.9h2.9"/><use xlink:href="#d0764__d" color="#29C3F6" transform="matrix(3.75 0 0 3.75 354.25 123.14)"/><use xlink:href="#d0764__d" color="#29C3F6" transform="matrix(3.75 0 0 3.75 84.25 7.51)"/></g><text stroke-linecap="round" stroke-linejoin="round" color="#000" font-family="KaTeX_Main" font-size="8" transform="translate(104.8 25.11)"><tspan>AVLRelaxedTopDown</tspan></text><g fill="none" stroke="currentColor" stroke-linecap="round" stroke-linejoin="round" color="#000"><path stroke="#9F650D" stroke-dasharray="4.5,2.0,0.5,2.0,0.5,2.0" d="M69.3 22.51h29.9M28 126.19l.36.08.36.09.37-2.98.36.08.36.08.36.08.36.07.37.08.36.07.36.07.36.07.37.07.36.07.36.07.36.06.36.07.37.06.36.06.36.06.36.06.36.06.37.06.36.06.36.06.36.05.36.06.37.05.36.06.36.05.36.05.36.05.37.05.36.05.36.05.36.05.37.05.36.05.36.05.36.04.36.05.37.04.36.05.36.04.36.05.36.04.37.04.36.05.36.04.36.04.36.04h3.26l.37-2.9h34.03l.36 2.9h3.26l.37-2.9h34.03l.36 2.9h3.26l.37-2.9h34.03l.36 2.9h3.26l.37-2.9h34.03l.36 2.9h3.26l.37-2.9h34.03l.36 2.9h3.26l.37-2.9h34.03l.36 2.9h2.9l.36-2.9h34.4l.36 2.9h2.9l.36-2.9h34.04l.36 2.9h3.26l.36-2.9h18.47"/><use xlink:href="#d0764__c" color="#9F650D" transform="matrix(3.75 0 0 3.75 67.83 123.14)"/><use xlink:href="#d0764__c" color="#9F650D" transform="matrix(3.75 0 0 3.75 84.25 22.51)"/></g><text stroke-linecap="round" stroke-linejoin="round" color="#000" font-family="KaTeX_Main" font-size="8" transform="translate(241.1 10.11)"><tspan>LBSTTopDown</tspan></text><g fill="none" stroke="currentColor" stroke-linecap="round" stroke-linejoin="round" color="#000"><path stroke="#F44336" stroke-dasharray="4.5,2.0,0.5,2.0,0.5,2.0" d="M205.6 7.51h29.9M28 88.62l.36.08.36.08.37-1.51.36.08.36.08.36.08.36.08.37.07.36.07.36.07.36.07.37.07.36.07.36.07.36.06.36.07.37.06.36.06.36.06.36.06.36.06.37.06.36.06.36.06.36.05.36.06.37.05.36.06.36-1.5.36.05.36.06.37.05.36.05.36.05.36.05.37.04.36.05.36.05.36.05.36.04.37.05.36.04.36.05.36.04.36.04.37.05.36.04.36.04.36.04.36.04.37 1.55h2.89l.37-1.55h15.2l.37 1.55h3.25l.37-1.55h14.84l.36 1.55h3.26l.37-1.55h15.2l.37 1.55h3.25l.37-1.55h14.84l.36 1.55h3.26l.37-1.55h15.2l.37 1.55h2.89l.36-1.55h15.21l.36 1.55h3.26l.37-1.55h15.2l.37 1.55h2.89l.36-1.55h15.21l.36 1.55h3.26l.37-1.55h14.84l.36 1.55h3.26l.36-1.55h15.21l.36 1.55h3.26l.37-1.55h14.84l.36 1.55h3.26l.36-1.55h15.21l.36 1.55h2.9l.36-1.55h15.21l.36 1.55h3.26l.36-1.55h15.21l.36 1.55h2.9l.36-1.55h15.21l.36 1.55h3.26l.36-1.55h14.85l.36 1.55h3.26l.36-1.55h15.21l.36 1.55h2.9"/><use xlink:href="#d0764__e" color="#F44336" transform="matrix(3.75 0 0 3.75 125.4 89.93)"/><use xlink:href="#d0764__e" color="#F44336" transform="matrix(3.75 0 0 3.75 220.55 7.51)"/></g><text stroke-linecap="round" stroke-linejoin="round" color="#000" font-family="KaTeX_Main" font-size="8" transform="translate(241.1 25.11)"><tspan>TreapFingerTree</tspan></text><g fill="none" stroke="currentColor" stroke-linecap="round" stroke-linejoin="round" color="#000"><path stroke="#3B75EA" d="M205.6 22.51h29.9M28 64.12l.36 2.21.36 1.18.37.09.36 2.34.36-6.45.36 2.17.36 1.15.37-5.11.36 3.12.36-3.96.36 8.45.37-8.31.36-.9.36 5.07.36-3.97.36 1.04.37.07.36 1.06.36 1.08.36 2.15.36-2.03.37-3.91.36 1.02.36 6.23.36-6.11.36-.91.37 1.02.36-.92.36 1.02.36-3.71.36 4.8.37 3.11.36-3.99.36-2.8.36 3.88.37 3.1.36-3.99.36-2.8.36 1.93.36.05.37-2.76.36 7.85.36-8.66.36 3.75.36 1.99.37 1.04.36.04.36-6.61.36 1.87.36-2.68.37 6.55.36-1.95.36 5 .36-3.05.37-3.83.36-.92.36 6.77H49l.36-7.68.37 1.83.36 2.85.36 1.98.36-2.95.36 2.95h.37l.36 3.11h.36l.36-3.11.36-1h.73l.36-3.83.36 3.83.37-2.9.36-2.76.36 3.71.36 3.97.36-1.02.37-5.75.36 6.77.36-3.97.36.97.36.98.37-3.83.36.93.36-.93.36 2.85.36 4.03.37-7.8.36.92.36 2.85h.36l.36.98.37-4.75.36-.91.36 3.71.36 5 .37-12.18.36 2.58.36 3.65.36 1.92.36-3.77.37.92.36-2.72.36 3.65.36 4.92.36-6.77.37 6.77.36-1.02.36-3.9.36 2.9.36 4.11.37-5.09.36-1.92.36.95.36-5.47.37 1.76.36-.89.36 3.65.36-2.76.36-.89.37-5.86.36 6.75.36 2.76.36-2.76.36 1.83.37-.92.36 2.8.36-3.71.36-.89h.36l.37-.87.36-4.19.36 5.95h.36l.36.91.37 1.85.36-2.76.36-.89h.36l.37.89h.36l.36 4.68.36-3.77.36-.91.37-3.47.36 1.71.36 3.59.36-1.83.36-1.76.37 4.52.36-6.23.36 4.38.36-.91.36-.89.37-4.25.36 5.14.36-1.76.36-4.99.37 7.66.36-2.67.36.87.36 1.8.36-5.22.37 1.69h.36l.36 4.45.36-1.83h.36l.37 3.71.36-2.8h.36l.36-.91.36 1.83.37.93.36-5.38.36.86.36 3.59.36-3.59.37 1.76.36-3.47.36 8.15.36-4.68.37-1.76.36-1.71.36.85.36 2.62.36-4.31.37 3.42.36.89.36-.89.36-2.58.36-.84.37-.83.36 4.25.36 2.72.36.93.36-2.76.37-.89.36-2.58.36.85.36 3.53.37-3.53.36-.85.36-.84.36-1.64h.36l.37 3.33h.72l.36-.85.36 4.38.37 2.8.36-1.88.36-5.3.36 5.3.36-2.72.37 3.65.36-2.76.36-5.14.36 1.67h.37l.36.85.36 3.53.36-3.53.36 1.73.37 1.8.36-3.53.36-1.69.36 2.55.36-3.38.37 2.52.36.86.36-1.71.36 1.71h.36l.37.87.36-2.58.36 2.58.36-.87.36-.86.37 1.73h.36l.36-6.65.36 4.92.37-1.69.36.84.36 1.71.36-4.19.36 2.48.37 9.13.36-2.9.36-5.38.36-2.52.36 3.38.37-3.38.36 2.52.36-.85h.36l.36-1.67.37 1.67.36-2.48.36 6.86.36-5.22.37 1.69.36 1.73h.36l.36-.87.36 5.47.37-2.8.36-2.67.36 3.59.36-.92.36-1.8.37 1.8.36 1.85.36-3.65.36.89.36-1.76.37.87.36 4.6.36-3.71.36 7.68.36-8.57h.37l.36 4.6.36-1.88.36 2.85.37 1.98.36-5.75.36.92.36.93.36-1.85.37 2.8h.36l.36-.95.36-1.85.36-9.23.37 6.56.36 1.76.36 1.83h.72l.37-2.72.36-.87.36 6.44.36-3.77.37.92.36 1.88.36-1.88.36.93.36 2.9h.73l.36-1.95.36-.95.36 3.9.37-5.75.36 4.75.36-3.83.36 1.88.36-1.88.37 4.83.36-5.75.36 2.8.36-1.88.36 4.83.37-3.9.36 2.9.36 1 .36-4.83.37 6.88.36-2.05.36-9.28.36 8.28.36 3.05.37-5 .36-1.88.36-6.14.36 9.97.36-1.95.37.97.36-2.85.36 3.83h.36l.36 5.19.37-6.17.36.98.36 5.19.36-2.14.37-2.05.36-3.9.36-.93.36-1.83.36 2.76.37 4.92.36-3 .36-.97.36 1.95.36 1h.37l.36 1.02.36 2.09.36-5.09.36-2.85.37-2.72.36 5.57.36-5.57.36.89.37 5.66.36-.98.36.98.36-.98.36-.97.37 5 .36-5 .36 3.97.36-5.85.36 1.88.37 2.95.36 3.11.36-7.94.36 4.83.36-5.75.37 4.75.36 2.02.36 2.09.36-5.09.36.98.37-3.83.36-.92.36 6.77.36 1.03.37-5 .36 3.97.36-2.02h1.09l.36 1h.36l.36 2.05.36-1.03.37-10.3.36 9.28h.36l.36-1 .36-2.9.37 2.9h.36l.36 5.19.36-9.94.37-.91.36 7.68.36-2.02.36-1.95.36 1.95.37-1.95.36 2.95.36-5.75.36 3.77.36-2.85.37 3.83.36 3.05.36 1.06.36-3.11.36-3.9.37-.93.36 6.88.36-3.05.36 4.11.36-3.11.37 3.11.36-2.09.36-2.02h.36l.37 1 .36-1.98.36 5.09.36-4.11.36 5.19.37-8.09.36-1.85.36 8.86.36-2.09.36-4.92.37 3.9.36-1 .36-5.66.36 5.66.36-2.9.37 1.92.36 4.03.36-5 .36 6.06.37-6.06.36 6.06.36-3.11.36-1.98.36.98.37 2.02.36-3 .36 4.03.36-4.03h.36l.37 1.98.36-1h.36l.36-1.95.36 1.95.37 1 .36-6.66.36 3.71.36-.95.37.95.36.97.36 1.98.36 1.02.36-3 .37 1.98h.36l.36-1.98.36-3.77.36 7.8.37-2.05.36-6.66.36 4.68.36-1.92.36 1.92.37-.97.36 1.95.36-7.42.36 6.44.36-3.77.37 6.77.36-1.02.36-3.9.36-2.76.37 4.68.36 4.03.36 2.14.36-5.19h.36l.37-.98.36.98.36-.98.36.98.36-5.66.37 5.66.36 1 .36-7.55.36 1.8h.36l.37 1.85.36 2.9.36-2.9.36.95h.37l.36-2.8.36 2.8h.36l.36.97.37.98.36-2.9.36 5.95.36 2.14.36-8.09.37 3.9h.36l.36 2.05.36-2.05.36-6.66.37 1.83.36 2.85.36.98.36-2.9.36.95h.73l.36-.95.36 1.92h.73l.36-2.85.36.93.36-.93.37 5.85.36 1.03.36-8.71.36.91.36 4.75.37-3.83.36 7.94.36-2.09.36-1.02.36-5.75h.37l.36 4.75.36-2.9.36.95.37-1.88.36 1.88h.36l.36 3.97.36-6.77.37 3.77.36-2.85h.36l.36 2.85.36-1.92.37-1.85.36 1.85.36 2.9.36-1.95.36-3.71h.37l.36 1.83.36 1.88.36-2.8.36 2.8.37-3.71.36-1.76.36 5.47h.36l.37-1.88.36-2.72.36 1.8.36 3.77.36-3.77.37 1.85.36 2.9.36-.98.36-.97.36-3.71h.37l.36 4.68.36-3.77.36-4.38.36 3.47.37 4.68.36-.97.36-5.47.36-1.71.37-.84.36 4.31.36-4.31.36 5.22.36 3.77.37-2.85.36.93.36-3.65.36 5.57.36-3.77.37-4.38.36 3.47.36-5.95.36 7.78.36-4.45.37 1.73.36 1.8.36-2.67.36 4.52.37 1.92.36-4.68.36-2.62.36 2.62.36 3.71.37-4.6.36 6.55.36-4.75.36 4.75.36-1.95.37-6.33.36 2.62.36-2.62.36 3.53.36 2.8.37-6.33.36 6.33.36-1.88h.36l.36-2.72h.37l.36.89.36-5.14.36 4.25.37-.87.36 4.52.36 2.9.36-4.75.36 5.75.37-3.9.36-3.65.36-1.73.36-1.69.36 3.42h.37l.36-1.73.36 4.45.36-1.83.36-.89.37.89.36-.89.36 7.55.36-1.98.37-.97.36-2.8.36 1.85.36-3.65.36 1.8.37-2.67.36 5.47.36-.95.36 4.92.36-2.02.37-2.9.36.95.36 2.95.36-2.95.36 2.95.37-1.98.36-1.92h.36l.36-5.38.36 7.3.37-.97.36-6.33.36 4.45h.36l.37 7.94.36-3.11.36-3.9h.36l.36 1.92.37 1.98.36-2.95.36 1.95.36-2.9.36 1.92.37-.97.36.97.36-.97.36 1.95.36-1.95.37 1.95.36-2.9.36 3.9.36-1 .37 4.11.36-5.09.36-.97.36 2.95.36 1.02.37-1.02.36-7.55.36 3.65.36-3.65.36 5.57.37 1.98.36-1.98.36 4.03.36-7.8.36-.91.37 5.66.36-5.66.36.91.36 1.85.36-1.85.37 2.8.36-.95.36 1.92h.36l.37-1.92.36 1.92.36.98.36-3.83.36 2.85.37.98.36 1 .36 2.05.36-3.05.36-3.83.37-.92.36 2.8.36-1.88.36 2.85.36-.97.37 1.95.36-6.55.36 3.65h.36l.37 1.92.36-3.77.36 5.75.36-2.95.36-3.71.37 5.66.36-.98.36-5.57.36 5.57.36-.97.37.97.36 3h.36l.36-3 .36.98.37-3.83.36 3.83.36-1.95h.36l.37 6.06.36-2.09.36-2.02.36 3.05.36-1.03.37-5.85.36 3.83.36 1 .36-4.83.36 3.83.37 1 .36 2.05.36-4.03.36 3 .36-5.85.37 4.83.36-4.83.36 4.83.36-3.9h.36l.37 4.92.36-3 .36-1.92.36-2.76.37 3.71.36 2.95.36 2.05.36-2.05.36 2.05.37-2.05.36-7.55.36 8.57.36-4.92.36 7.01.37-3.11.36-2.95.36-3.71.36 2.76h.36l.37.95.36-1.88h.72l.37 3.83.36-6.55.36 3.65h.36l.36-2.76.37 4.68.36-2.85.36 3.83.36-5.66.36 3.71.37.97.36-6.44.36 5.47.36 3.97.36-5.85.37-1.83.36 2.76.36-1.85h.36l.36-2.67.37 4.52.36-5.38.36.86.36 2.67.37 1.85h.36l.36-1.85.36 2.8.36-.95h.37l.36-2.76.36-5.14.36 8.85.36-2.8.37-4.38.36 2.58.36.89h.36l.36.91.37 1.85.36-1.85.36.92.36.93h.73l.36-9.51.36 6.75.36-1.76.37 7.42.36-3.83.36-1.83.36.91.36 5.75.37-5.75.36 1.85.36-4.52.36 6.44.36-1.92.37 2.9.36-8.28.36 5.38.36-.93h.36l.37.93h.36l.36 4.92.36-5.85.37.93.36 2.9.36-2.9.36-3.65.36 8.57.37-7.68.36 3.71h.36l.36-3.71.36 3.71.37-4.6.36 1.8.36-1.8.36 4.6.36-2.8.37 2.8.36-2.8.36 3.77.36-.97.37 3.97.36-3.97.36-3.71.36 5.66.36-.98.37-1.92.36-3.65.36 6.55.36-.98.36-.97.37 2.95.36-1.98h.36l.36-5.57.36 2.72.37-2.72.36.89h.36l.36.91.37-1.8.36 4.6.36-5.47.36 2.67.36 3.77.37-5.57.36 4.6.36.97.36-1.92.36-3.65.37 9.6.36-9.6.36 4.6.36.97.36-.97.37 1.95h.36l.36-.98.36-.97.36-.95.37-.93.36-.92.36 6.77.36-6.77.37 1.85.36-4.52.36 1.76.36 1.83.36 1.88h.37l.36-1.88.36-5.3"/><use xlink:href="#d0764__f" color="#3B75EA" transform="matrix(3.75 0 0 3.75 182.98 60.14)"/><use xlink:href="#d0764__f" color="#3B75EA" transform="matrix(3.75 0 0 3.75 220.55 22.51)"/></g><path fill="none" d="M28 45.01V162.5M371.99 45.01H28" color="#000"/></svg>