<svg xmlns="http://www.w3.org/2000/svg" xmlns:xlink="http://www.w3.org/1999/xlink" viewBox="0 0 400 200"><path fill="none" d="M0 0h400v200H0z"/><defs><use xlink:href="#bd415__a" id="bd415__g" fill="currentColor" stroke="none"/><use xlink:href="#bd415__b" id="bd415__c" stroke="currentColor" transform="rotate(180)"/><use xlink:href="#bd415__c" id="bd415__f" fill="currentColor" stroke="none"/><use xlink:href="#bd415__d" id="bd415__e" stroke="currentColor" transform="rotate(45)"/><use xlink:href="#bd415__e" id="bd415__h" fill="currentColor" stroke="none"/><path id="bd415__d" stroke="currentColor" stroke-width=".267" d="M-1-1h2v2h-2z"/><path id="bd415__b" stroke="currentColor" stroke-width=".267" d="m0-1.33-1.33 2h2.66z"/><path id="bd415__i" stroke="currentColor" stroke-width=".267" d="M0 1.33 1.265.411.782-1.067l-1.564-.009-.483 1.487z"/><circle id="bd415__a" cx="0" cy="0" r="1" stroke="currentColor" stroke-width=".267"/></defs><path fill="none" stroke="#CCC" stroke-linecap="round" stroke-linejoin="round" stroke-width=".1" d="M46.1 162.5V75.01" class="bd415__gridline" color="#000"/><g fill="none" stroke-linecap="round" stroke-linejoin="round" stroke-width="0" color="#000"><path d="M46.1 162.5V155m0-79.99v7.5"/><text fill="#000" font-family="KaTeX_Main" font-size="8" text-anchor="middle" transform="translate(46.1 172.6)"><tspan> 1</tspan></text></g><path fill="none" stroke="#CCC" stroke-linecap="round" stroke-linejoin="round" stroke-width=".1" d="M82.31 162.5V75.01" class="bd415__gridline" color="#000"/><g fill="none" stroke-linecap="round" stroke-linejoin="round" stroke-width="0" color="#000"><path d="M82.31 162.5V155m0-79.99v7.5"/><text fill="#000" font-family="KaTeX_Main" font-size="8" text-anchor="middle" transform="translate(82.31 172.6)"><tspan> 2</tspan></text></g><path fill="none" stroke="#CCC" stroke-linecap="round" stroke-linejoin="round" stroke-width=".1" d="M118.52 162.5V75.01" class="bd415__gridline" color="#000"/><g fill="none" stroke-linecap="round" stroke-linejoin="round" stroke-width="0" color="#000"><path d="M118.52 162.5V155m0-79.99v7.5"/><text fill="#000" font-family="KaTeX_Main" font-size="8" text-anchor="middle" transform="translate(118.52 172.6)"><tspan> 3</tspan></text></g><path fill="none" stroke="#CCC" stroke-linecap="round" stroke-linejoin="round" stroke-width=".1" d="M154.73 162.5V75.01" class="bd415__gridline" color="#000"/><g fill="none" stroke-linecap="round" stroke-linejoin="round" stroke-width="0" color="#000"><path d="M154.73 162.5V155m0-79.99v7.5"/><text fill="#000" font-family="KaTeX_Main" font-size="8" text-anchor="middle" transform="translate(154.73 172.6)"><tspan> 4</tspan></text></g><path fill="none" stroke="#CCC" stroke-linecap="round" stroke-linejoin="round" stroke-width=".1" d="M190.94 162.5V75.01" class="bd415__gridline" color="#000"/><g fill="none" stroke-linecap="round" stroke-linejoin="round" stroke-width="0" color="#000"><path d="M190.94 162.5V155m0-79.99v7.5"/><text fill="#000" font-family="KaTeX_Main" font-size="8" text-anchor="middle" transform="translate(190.94 172.6)"><tspan> 5</tspan></text></g><path fill="none" stroke="#CCC" stroke-linecap="round" stroke-linejoin="round" stroke-width=".1" d="M227.15 162.5V75.01" class="bd415__gridline" color="#000"/><g fill="none" stroke-linecap="round" stroke-linejoin="round" stroke-width="0" color="#000"><path d="M227.15 162.5V155m0-79.99v7.5"/><text fill="#000" font-family="KaTeX_Main" font-size="8" text-anchor="middle" transform="translate(227.15 172.6)"><tspan> 6</tspan></text></g><path fill="none" stroke="#CCC" stroke-linecap="round" stroke-linejoin="round" stroke-width=".1" d="M263.36 162.5V75.01" class="bd415__gridline" color="#000"/><g fill="none" stroke-linecap="round" stroke-linejoin="round" stroke-width="0" color="#000"><path d="M263.36 162.5V155m0-79.99v7.5"/><text fill="#000" font-family="KaTeX_Main" font-size="8" text-anchor="middle" transform="translate(263.36 172.6)"><tspan> 7</tspan></text></g><path fill="none" stroke="#CCC" stroke-linecap="round" stroke-linejoin="round" stroke-width=".1" d="M299.57 162.5V75.01" class="bd415__gridline" color="#000"/><g fill="none" stroke-linecap="round" stroke-linejoin="round" stroke-width="0" color="#000"><path d="M299.57 162.5V155m0-79.99v7.5"/><text fill="#000" font-family="KaTeX_Main" font-size="8" text-anchor="middle" transform="translate(299.57 172.6)"><tspan> 8</tspan></text></g><path fill="none" stroke="#CCC" stroke-linecap="round" stroke-linejoin="round" stroke-width=".1" d="M335.78 162.5V75.01" class="bd415__gridline" color="#000"/><g fill="none" stroke-linecap="round" stroke-linejoin="round" stroke-width="0" color="#000"><path d="M335.78 162.5V155m0-79.99v7.5"/><text fill="#000" font-family="KaTeX_Main" font-size="8" text-anchor="middle" transform="translate(335.78 172.6)"><tspan> 9</tspan></text></g><path fill="none" stroke="#CCC" stroke-linecap="round" stroke-linejoin="round" stroke-width=".1" d="M371.99 162.5V75.01" class="bd415__gridline" color="#000"/><g fill="none" stroke-linecap="round" stroke-linejoin="round" stroke-width="0" color="#000"><path d="M371.99 162.5V155m0-79.99v7.5"/><text fill="#000" font-family="KaTeX_Main" font-size="8" text-anchor="middle" transform="translate(371.99 172.6)"><tspan> 10</tspan></text></g><g fill="none" stroke-linecap="round" stroke-linejoin="round" stroke-width="0" color="#000"><path d="M371.99 162.5h-7.5"/><text fill="#000" font-family="KaTeX_Main" font-size="8" transform="translate(378.99 165.1)"><tspan>8.00</tspan></text></g><g fill="none" stroke-linecap="round" stroke-linejoin="round" stroke-width="0" color="#000"><path d="M371.99 154.55h-7.5"/><text fill="#000" font-family="KaTeX_Main" font-size="8" transform="translate(378.99 157.15)"><tspan>10.00</tspan></text></g><g fill="none" stroke-linecap="round" stroke-linejoin="round" stroke-width="0" color="#000"><path d="M371.99 146.59h-7.5"/><text fill="#000" font-family="KaTeX_Main" font-size="8" transform="translate(378.99 149.19)"><tspan>12.00</tspan></text></g><g fill="none" stroke-linecap="round" stroke-linejoin="round" stroke-width="0" color="#000"><path d="M371.99 138.64h-7.5"/><text fill="#000" font-family="KaTeX_Main" font-size="8" transform="translate(378.99 141.24)"><tspan>14.00</tspan></text></g><g fill="none" stroke-linecap="round" stroke-linejoin="round" stroke-width="0" color="#000"><path d="M371.99 130.69h-7.5"/><text fill="#000" font-family="KaTeX_Main" font-size="8" transform="translate(378.99 133.29)"><tspan>16.00</tspan></text></g><g fill="none" stroke-linecap="round" stroke-linejoin="round" stroke-width="0" color="#000"><path d="M371.99 122.73h-7.5"/><text fill="#000" font-family="KaTeX_Main" font-size="8" transform="translate(378.99 125.33)"><tspan>18.00</tspan></text></g><g fill="none" stroke-linecap="round" stroke-linejoin="round" stroke-width="0" color="#000"><path d="M371.99 114.78h-7.5"/><text fill="#000" font-family="KaTeX_Main" font-size="8" transform="translate(378.99 117.38)"><tspan>20.00</tspan></text></g><g fill="none" stroke-linecap="round" stroke-linejoin="round" stroke-width="0" color="#000"><path d="M371.99 106.82h-7.5"/><text fill="#000" font-family="KaTeX_Main" font-size="8" transform="translate(378.99 109.42)"><tspan>22.00</tspan></text></g><g fill="none" stroke-linecap="round" stroke-linejoin="round" stroke-width="0" color="#000"><path d="M371.99 98.87h-7.5"/><text fill="#000" font-family="KaTeX_Main" font-size="8" transform="translate(378.99 101.47)"><tspan>24.00</tspan></text></g><g fill="none" stroke-linecap="round" stroke-linejoin="round" stroke-width="0" color="#000"><path d="M371.99 90.92h-7.5"/><text fill="#000" font-family="KaTeX_Main" font-size="8" transform="translate(378.99 93.52)"><tspan>26.00</tspan></text></g><g fill="none" stroke-linecap="round" stroke-linejoin="round" stroke-width="0" color="#000"><path d="M371.99 82.96h-7.5"/><text fill="#000" font-family="KaTeX_Main" font-size="8" transform="translate(378.99 85.56)"><tspan>28.00</tspan></text></g><g fill="none" stroke-linecap="round" stroke-linejoin="round" stroke-width="0" color="#000"><path d="M371.99 75.01h-7.5"/><text fill="#000" font-family="KaTeX_Main" font-size="8" transform="translate(378.99 77.61)"><tspan>30.00</tspan></text></g><path fill="none" d="M28 75.01v87.49m343.99-87.49H28" color="#000"/><text stroke-linecap="round" stroke-linejoin="round" stroke-width="0" color="#000" font-family="KaTeX_Main" font-size="10" text-anchor="middle" transform="rotate(-90 65.13 53.63)"><tspan font-weight="bold">Duration </tspan><tspan> in milliseconds</tspan></text><text stroke-linecap="round" stroke-linejoin="round" stroke-width="0" color="#000" font-family="KaTeX_Main" font-size="10" text-anchor="middle" transform="translate(199.99 195.75)"><tspan>Operations / 10</tspan><tspan dy="-5" font-size="8">6</tspan></text><text stroke-linecap="round" stroke-linejoin="round" color="#000" font-family="KaTeX_Main" font-size="8" transform="translate(76.8 10.11)"><tspan>AVLTopDown</tspan></text><g fill="none" stroke="currentColor" stroke-linecap="round" stroke-linejoin="round" color="#000"><path stroke="#29C3F6" stroke-dasharray="2.5,4.0" d="M41.3 7.51h29.9M28 159.29l.36-.55.36.54.37-.48.36-.48.36.46.36.54.36-1.25.37-.46.36.95.36-.56.36.68.37-.66.36-.4.36-.18.36.34.36.83.37-1.22.36-.27.36.11.36-.03.36.95.37-.74.36-1.41.36.94.36.41.36.32.37-1.25.36.2.36-.25.36.18.36.16.37.1.36-.75.36.19.36-.08.37.18.36-.13.36-.41.36.26.36-.44.37.93.36-.77.36-1.11.36 1.79.36-.94.37.65.36-.88.36-.21.36 1.17.36-1.12.37-.49.36-.13.36-.16.36.56.37-.32.36.56.36-.4.36-.21.36.11.37-.04.36-.28.36.05.36.14.36.13.37-.37.36.53.36-.96.36.69.36.17.37-.24.36.02.36-.28.36-.37.37 1.11.36-.54.36-.07.36-1.03.36.75.37.3.36.5.36-.49.36-.3.36-.75.37 1.16.36.32h.36l.36-.73.36-.46.37.5.36.37.36-.39.36.29.36-.12.37-.31.36-.29.36.64.36.37.37-.56.36-.02.36-.38.36-.27.36.82.37.25.36-.51.36-.1.36-.31.36.47.37.26.36.54.36-.7.36-.36.36-.14.37.63.36-.17.36.14.36-.39.37-.07.36.07.36.04.36.51.36-.48.37.1.36-.62.36.46.36.13.36-.17.37.29.36-.41.36.05.36.2.36-.1.37-.03.36.64.36-1.03.36.16.36.55.37-.11.36.43.36-.59.36-.27.37.15.36.51.36-.29.36.14.36-.53.37-.15.36.58.36.4.36-.64.36-.11.37-.25.36.93.36-.87.36.56.36-.46.37.23.36.12.36-.07.36.12.37-.07.36.52.36-.58.36.18.36-.15.37-.73.36 1.03h.36l.36-.66.36-.14.37-.16.36.55.36.71.36.07.36-.97.37.09.36-.1.36.25.36.59.36-.45.37-.13.36-.61.36.38.36.52.37.34.36-.32.36-.41.36-.14.36-.08.37.63.36.32.36-.4.36-.57.36.44.37-.32.36.91.36-.65.36.33.36-.31.37-.11.36-.03.36.24.36.11.37.15.36-.63.36.04.36.18.36-.07.37.55.36-.49.36-.38.36.5.36-.53.37.74.36-.08.36.08.36-.4.36.15.37-.28.36.4.36-.28.36-.09.37.25.36-.42.36.28.36.46.36.22.37-1.24.36.55.36-.39.36.55.36.57.37-.76.36-.4.36-.16.36.9.36.01.37.13.36-.39.36.07.36-.34.36.26.37.51.36-.4.36-.03.36.1.37.04.36-.08.36.02.36-.19.36-.3.37 1.01.36-1 .36.54.36-.6.36-.09.37.82.36.12.36-1.2.36.32.36.5.37-.07.36.61.36-1.23.36.43.37-.08.36.84.36-.34.36-.24.36.07.37-.52.36 1.07.36-.61.36-.19.36.2.37-.96.36 1.09.36.39.36-.85.36.29.37-.06.36-.02.36.5.36-.31h.36l.37-.57.36.36.36.31.36-.39.37.7.36-.55.36-.01.36.01.36-.31.37.61.36-.26.36.42.36-.89.36.57.37-.23.36-.02.36-.1.36.29.36-.19.37.32.36-.23.36.11.36-.39.37.24.36.42.36-.61.36.54.36-.82.37.64.36-.28.36.6.36-.44.36-.14.37-.08.36.16.36.54.36-.14.36-.63.37.2.36-.26.36.36.36.4.36-.64.37.17.36-.16.36.04.36.46.37-.27.36.35.36-.49.36.56.36-1.31.37.96.36.23.36-.68.36.63.36.05.37-1.17.36 1.02.36.43.36-.8.36.97.37-.55.36-.94.36 1 .36.29.37-.69.36.2.36-.68.36.45.36.55.37.38.36-.7.36.1.36-1.13.36 1.48.37-.34.36.29.36-.52.36-.26.36-.52.37 1.25.36.11.36-.26.36-.35.37-.14.36.22.36.02.36.63.36-.22.37-.92.36.37.36.06.36.53.36.07.37-.91.36.06.36.5.36-.02.36-.2.37.34.36-.75.36.31.36.06.36-.12.37.87.36-.42.36-1.2.36 1.14.37-.49.36.28.36.77.36-.59.36-.61.37.91.36-.54.36.15.36.3.36-.34.37.06.36-.16.36-.24.36.39.36-.1.37.18.36-.52.36.41.36.24.37-.45.36.68.36-.22.36-.86.36.6.37.1.36-.47.36 1.08.36-.52.36-.43.37.21.36-.51.36 1.13.36-.38.36-.04.37-.32.36.36.36-.91.36.78.36.22.37-.56.36.98.36-.79.36-.06.37.27.36-.01.36-.15.36.02.36-.18.37.35.36.22.36-.39.36-.22.36-.38.37.76.36-.16.36.56.36-.73.36.09.37.13.36.3.36-.48.36.61.37-.49.36-.28.36.67.36-.35h.36l.37.03.36.09.36-.06.36-.24.36.5.37-.25.36-.87.36 1.51.36-1.4.36.81.37-.15.36-.47.36.53.36.26.37-.33.36.53.36-.77.36.13.36.48.37.05.36-.69.36-.04.36.19.36-.07.37.85.36-.25.36-.65.36.15.36-.09.37.11.36 1.07.36-1.27.36-.36.36.48.37.29.36-.12.36.82.36-1.38.37.53.36.08.36-.18.36.51.36.33.37-1.52.36 1.17.36-.03.36-.45.36.83.37-.3.36-1.28.36 1.29.36-.26.36-.61.37 1.01.36-.45.36-.74.36.43.37.53.36-.69.36.74.36-.46.36.06.37-.01.36-.4.36.43.36.81.36-1.2.37.66.36-.7.36.73.36.1.36.21.37-1.34.36.66.36-.26.36.43.36.03.37-.12.36-.45.36.74.36-.01.37.14.36-.88.36.92.36-.86.36.52.37.37.36-.86.36.43.36.02.36.05.37-.26.36.56.36-.88.36.21.36.53.37-.01.36-.55.36.52.36-.43.37.11.36-.17.36.41.36-.34.36.78.37-1.06.36.58.36-.52.36.16.36.58.37.19.36-.91.36.52.36-.59.36-.1.37 1.12.36-.62.36-.48.36.2.36.3.37.2.36.13.36-.28.36.05.37-.46.36.43.36.27.36-.01.36-.79.37.25.36.35.36-.32.36.71.36-.13.37-.63.36.22.36-.37.36.6.36-.11.37-.48.36.31.36-.11.36.16.37.38.36.05.36-.41.36-.07.36-.24.37.6.36.02.36-.57.36.46.36-.63.37.54.36.15.36.18.36-.48.36.31.37-.84.36.78.36-.17.36.14.37-.34.36-.06.36-.26.36.84.36-.58.37.65.36-.46.36.04.36-.13.36.51.37-.67.36 1.01.36-.85.36.37.36-.24.37.38.36-.7.36-.05.36.6.36-.06.37-.23.36-.25.36.29.36.05.37.05.36-.14.36.18.36-.16.36-.19.37.59.36-.35.36-.33.36.69.36-1.35.37 1.6.36-.23.36-.47.36.32.36-.5.37.02.36.78.36-.71.36.45.37-.3.36-.15.36-.14.36.43.36-.27.37.69.36-.87.36.1.36.42.36.18.37-.48.36.03.36-.28.36.24.36-.13.37.9.36-.32.36-.63.36-.22.36.63.37.12.36.49.36-.7.36-.23.37-.3.36.42.36.26.36.47.36-1.13.37.36.36-.11.36.28.36.52.36-.1.37-.94.36.03.36.99.36-.78.36.86.37-.83.36-.18.36-.07.36.57.37.1.36.1.36-.68.36.45.36.15.37-.02.36-.13.36.25.36-.43.36.69.37-.86.36.09.36.52.36-.45.36.24.37.07.36-.09.36.16.36-.38.36.01.37.35.36.18.36-.83.36.08.37-.09.36.86.36-.02.36.05.36-.69.37-.03.36.18.36.78.36-.34.36-.89.37.62.36-.63.36.86.36.32.36-1.03.37.24.36.17.36-.17.36 1.15.37-1.3.36-.34.36.77.36-.34.36.44.37.13.36-.59.36.13.36-.08.36-.01.37.54.36-.51.36-.05.36.88.36-.68.37-.07.36-.04.36.36.36.06.37-.19.36-.14.36-.41.36.44.36.15.37.35.36-.47.36.07.36-.67.36.61.37.32.36-.24.36.24.36-1.08.36.96.37-.11.36-.09.36.2.36.34.36-1.02.37.6.36-.06.36-.17.36.83.37-.67.36-.83.36.35.36.23.36.52.37.06.36-.45.36-.11.36-.33.36.87.37-.01.36-.69.36.49.36-.82.36.68.37.14.36.13.36-.55.36.38.37-.36.36.35.36-.28.36-.04.36.39.37.3.36-.38.36-.21.36.25.36.16.37-.43.36.33.36-.68.36.39.36.33.37-.02.36-.19.36-.31.36-.09.36.29.37.38.36-.31.36.35.36-.89.37-.23.36 1.15.36-.11.36-.22.36.25.37-1.09.36.62.36.84.36-.65.36.42.37-.4.36-1.16.36.99.36.46.36.06.37-.47.36.24.36-.47.36.17.37.37.36.31.36-.44.36-.59.36-.03.37.01.36 1.25.36-.7.36.09.36-.35.37.14.36.22h.36l.36.15.36-.41.37.05.36.02.36.5.36-.08.36-.44.37-.31.36.54.36-.25.36.03.37.33.36-.6.36.5.36-.52.36.18.37.19.36-.09.36-.22.36.55.36-.47.37.12.36.07.36.31.36-.56.36.53.37-.25.36.17.36.21.36-.57.37.58.36-.46.36-.04.36-.23.36-.21.37.6.36.17.36.48.36-1.29.36.54h.37l.36.29.36.22.36-.79.36.11.37-.29.36.58.36.35.36.03.37-.07.36-1.05.36.51.36.26.36.17.37.21.36-.03.36-1.28.36.82.36-.18.37.67.36-.52.36-.11.36-.25.36.41.37.46.36-.02.36-.57.36-.9.36 1.06.37-.03.36.24.36.29.36-.95.37-.26.36.19.36 1.06.36-.14.36-.43.37-.64.36.86.36-.67"/><use xlink:href="#bd415__f" color="#29C3F6" transform="matrix(3.75 0 0 3.75 354.25 153.83)"/><use xlink:href="#bd415__f" color="#29C3F6" transform="matrix(3.75 0 0 3.75 56.25 7.51)"/></g><text stroke-linecap="round" stroke-linejoin="round" color="#000" font-family="KaTeX_Main" font-size="8" transform="translate(76.8 25.11)"><tspan>AVLRelaxedBottomUp</tspan></text><g fill="none" stroke="currentColor" stroke-linecap="round" stroke-linejoin="round" color="#000"><path stroke="#D336C8" d="M41.3 22.51h29.9M28 160.61l.36-1.25.36.5.37-.9.36.61.36.12.36-.19.36-.18.37-1.1.36 1.14.36-.16.36-.47.37.61.36-1.61.36.77.36.96.36-1.08h.37l.36-.31.36.25.36.14.36-.38.37.5.36-1.12.36.37.36-.08.36-.23.37.58.36-.57.36-.48.36-.06.36.3.37.79.36-1.59.36.22.36.53.37-.21.36.4.36-1.1.36.25.36.08.37.68.36-1.19.36.2.36.36.36-.02.37-.14.36-.32.36-.57.36 1.44.36-1.07.37 1.05.36 1.59.36-.07.36-.09.37-.14.36-.01.36-.21.36.62.36-.55.37.15.36-.42.36.19.36.74.36-1.01.37.46.36-.74.36.97.36-.42.36.17.37-.49.36.28.36-.14.36.3.37-.45.36.2.36.17h.36l.36-.2.37-.26.36.37h.36l.36.15.36-.34.37.04.36-.1.36.18.36.52.36-.72.37.07.36-.41.36.61.36-.12.36-.18.37-.11.36.57.36.33.36-.5.37-.58.36.79.36-.23.36-.25.36.59.37-1.41.36 1.18.36-.43.36-.14.36.3.37-.82.36 1.46.36-1.15.36.47.36.2.37-.48.36.23.36.15.36-.3.37-.42.36.3.36.76.36-.43.36-.25.37-.36.36.58.36.31h.36l.36-.59.37.05.36.14.36-.06.36.16.36-.27.37.15.36-1.15.36 1.01.36.91.36-1.21.37.12.36-.12.36.29.36.25.37.3.36-.32.36-.2.36-.73.36 1.11.37.05.36-.25.36-.67.36-.07.36 1.12.37-.53.36.13.36-.67.36.81.36.43.37-.67.36-.54.36.02.36.32.37-.04.36.1.36-.07.36-.4.36-.13.37.69.36-.13.36.26.36-.63.36.28.37.17.36-.02.36-.57.36.28.36.63.37-.46.36.3.36-.84.36.86.36-.7.37.43.36-.07.36-.04.36-.15.37.09.36-.05.36.28.36-.07.36-.08.37-.32.36.22.36.42.36-.32.36.2.37-.67.36.59.36-.17.36-.03.36-.03.37.21.36.2.36.05.36-.41.37-.27.36.87.36-.72.36.69.36-.16.37-1.22.36.69.36-.07.36.99.36-.4.37-1.11.36.11.36 1.38.36-.53.36.39.37-1.43.36 1.08.36.23.36.03.37-.39.36-.91.36.58.36.59.36-.27.37.18.36-.83.36.43.36.49.36-.09.37.31.36-.54.36-.36.36.76.36-.24.37-.26.36-.14.36-.18.36.66.36-.08.37.03.36-.65.36.66.36-.24.37.76.36-.48.36-.32.36-.02.36.08.37.31.36.08.36-.27.36-.07.36-.28.37.77.36-.49.36.17.36-.94.36.88.37-.21.36-.02.36-.46.36-.22.37 1.15.36.07.36-.75.36-.25.36-.26.37.94.36-.01.36-.07.36-1.12.36.85.37.34h.36l.36-.86.36.16.36.37.37.72.36-1.09.36.32.36-.41.36 1.15.37-.12.36-.54.36.11.36-.85.37.26.36.46.36.41.36-.2.36-1.42.37 1.5.36-.11.36.49.36-1.13.36.16.37.06.36.77.36-.18.36-.33.36-.36.37-.01.36 1.03.36.09.36-1.23.37-.2.36.65.36.4.36-.16.36.07.37-1.08.36.61.36.5.36-.05.36.12.37-1.2.36.69.36-.06.36.57.36-.54.37-.52.36.12.36.86.36.54.36-1.43.37-.26.36 1.08.36-.01.36.11.37-.48.36-.21.36-.24.36 1.38.36-.77.37-.1.36-.23.36.15.36-.02.36.31.37-.32.36.44.36-.83.36 1.08.36-.47.37.01.36-.12.36-.28.36 1.14.37-1.11.36-.1.36.5.36-.22.36.13.37-.14.36-.01.36.38.36-.2.36-.3.37.8.36-.45.36-.23.36.3.36-.01.37-.17.36-.89.36.71.36.01.37.26.36.18.36-.82.36.23.36.25.37.3.36-.55.36.29.36-.3.36-.04.37.4.36.2.36-.97.36.49.36-.27.37.72.36-.57.36.22.36.13.36-.57.37 1.14.36-.55.36-.54.36.26.37-.06.36.23.36-.15.36-.35.36.33.37.61.36-.62.36-.15.36.52.36-.46.37.75.36-.62.36-.07.36.43.36-.83.37 1.11.36-.62.36.47.36-.98.37.98.36-.08.36-.2.36-.19.36-.07.37.1.36.04.36.35.36-.26.36-1.27.37.85.36.83.36-.02.36-.95.36.29.37.38.36-.25.36-.22.36.74.36-1.36.37 1.21.36-.53.36.58.36-.3.37-.79.36.74.36.48.36-.23.36.01.37-.64.36.27.36.43.36-.47.36.04.37-.25.36-.43.36 1 .36.12.36-.44.37.23.36-.12.36.1.36.36.37-.22.36-.51.36-.37.36 1.17.36-.79.37.63.36.09.36-.54.36-.22.36.56.37.06.36-.3.36-.7.36 1.23.36-.25.37-.49.36.09.36-.18.36-.15.37.34.36.32.36-.5.36.28.36-.47.37.5.36-.16.36-.67.36 1.24.36-1.03.37 1.03.36-.84.36-.03.36.73.36-.53.37.2.36.1.36-.43.36.89.36-1.01.37.63.36-.5.36-.1.36.81.37-.62.36.11.36-.1.36.46.36-.75.37.96.36-.78.36.02.36.23.36.5.37.01.36-.57.36-.39.36.4.36.38.37-.43.36.59.36-.83.36.38.37.04.36.75.36-1.19.36.65.36-.14.37-.16.36.18.36-.77.36.41.36.26.37.1.36.23.36-1.15.36-.06.36 1.03.37.48.36-.49.36-.57.36-.03.36.62.37.61.36-1.43.36-.39.36 1.27.37.11.36-.4.36-.07.36-.32.36.75.37.15.36.2.36-.3.36-.95.36.41.37.22.36.25.36.03.36-1.09.36.84.37.36.36-.55.36.14.36.01.37.14.36-.03.36.15.36-.1.36-.43.37.12.36.14.36.58.36-.33.36-.07.37-.46.36.27.36.13.36-.31.36.32.37-1.14.36 1.43.36-.15.36-.55.36-.25.37.57.36-.25.36.83.36-.82.37-.19.36.31.36-.1.36-.08.36.24.37-.16.36-.08.36.28.36.03.36.33.37-1.59.36 1.29.36.59.36-.69.36-.62.37.6.36.38.36-.35.36-.53.37.82.36-.02.36-1.04.36.45.36.3.37-.21.36.3.36-.12.36.59.36-.68.37-.62.36 1.3.36-.8.36-.22.36.64.37-.26.36.15.36-.71.36 1.25.37-.58.36-.7.36 1.38.36-.38.36-.47.37-.3.36.05.36.88.36-.98.36.54.37.04.36-.31.36.16.36.08.36.2.37-.96.36 1.32.36-.57.36.5.36-1.27.37.37.36.69.36-.08.36-.11.37-.3.36.14.36.01.36-.29.36.76.37-1.04.36.44.36.79.36-.21.36-1.26.37.95.36.27.36.05.36-.46.36.29.37-.53.36-.17.36.72.36.37.37-1.23.36.27.36.66.36-.09.36.28.37-.82.36-.18.36.67.36-.22.36.66.37-.98.36.02.36.68.36.34.36-.66.37-.63.36.35.36.21.36.53.36-.67.37.01.36-.5.36.87.36.43.37-1.28.36.13.36.3.36.09.36.39.37-.82.36.41.36.21.36.11.36-.18.37-.29.36.26.36-.45.36.47.36-.1.37-.27.36.24.36-.77.36 1.09.37-.03.36-1.15.36 1.18.36-.01.36-.31.37-.3.36 1.17.36-.81.36-.96.36 1.51.37-.58.36-.29.36.02h.36l.36.8.37-.63.36.32.36-.79.36 1.33.36-.38.37-.26.36.17.36-.97.36 1.43.37-.29.36-1.13.36-.39.36 1.06.36.28.37-.67.36.59.36-.23.36-.3.36.76.37-.22.36-.03.36-.72.36.93.36-.08.37-.97.36.51.36.16.36.2.37-.22.36.03.36.24.36-.62.36 1.09.37-.53.36-.53.36-.36.36 1.21.36-.09.37-1.35.36.47.36.78.36-.06.36-.25.37.01.36.14.36-.4.36.66.37.41.36-1.55.36.16.36 1.14.36-.28.37-.66.36.68.36-.11.36-.24.36.24.37.42.36-1.38.36.78.36.7.36-1.06.37.52.36-.7.36-.02.36.83.36.06.37-.81.36.22.36-.13.36.05.37.61.36-.44.36-.17.36-.03.36.29.37.2.36-.73.36.14.36.19.36.44.37-.23.36-.49.36.72.36-.76.36.64.37.08.36-.78.36.25.36.31.37.18.36-.69.36.01.36.29.36.1.37.16.36.1.36-.67.36.48.36.31.37-.33.36-.33.36.72.36-.94.36.43.37.48.36-1.25.36 1.15.36-.21.36.2.37.11.36-.82.36.97.36-.22.37-.59.36.2.36.02.36-.27.36.09.37.91.36-1.08.36-.26.36 1 .36-.4.37-.01.36.01.36-.14.36.6.36-.34.37.14.36-.02.36-.58.36.39.37.65.36-.82.36.27.36-.24.36.43.37.06.36-.11.36-.11.36-.53.36.73.37-.48.36.04.36-.26.36.29.36.1.37.27.36.01.36-.73.36.71.36.16.37-.49.36.02.36.14.36-.05.37.03.36.1.36.11.36-.3.36.44.37.33.36-.96.36.57.36-.57.36.24.37-.2.36.01.36-.28.36.14.36.58.37.26.36-1.5.36 1.13.36.1.37-.55.36.9.36-.94.36-.37.36.63.37.49.36-.9.36-.05.36.72.36-.53.37.58.36-.37.36-.45.36.83.36-.65.37.74.36-.76.36.04.36.35.37.18.36.23.36-.82.36.12.36.82.37-.81.36.04.36.26.36-.23.36.59.37-.56.36-.54.36.61.36.46.36-.16.37-.41.36.73.36-.82.36.45.36-.04.37-.27.36-.21.36.47.36.15.37-.47.36-.44.36.49.36.41.36-.46.37.37.36-.22.36-.24"/><use xlink:href="#bd415__b" color="#D336C8" transform="matrix(3.75 0 0 3.75 67.83 157.39)"/><use xlink:href="#bd415__b" color="#D336C8" transform="matrix(3.75 0 0 3.75 56.25 22.51)"/></g><text stroke-linecap="round" stroke-linejoin="round" color="#000" font-family="KaTeX_Main" font-size="8" transform="translate(76.8 40.11)"><tspan>RedBlackBottomUp</tspan></text><g fill="none" stroke="currentColor" stroke-linecap="round" stroke-linejoin="round" color="#000"><path stroke="#F44336" d="M41.3 37.51h29.9M28 151.63l.36-1.25.36.67.37-.23.36-.45.36.61.36.19.36-1.11.37-.38.36.5.36.26.36-.41.37-.8.36.18.36 1.25.36-.87.36-.1.37.14.36-1.02.36.49.36.15.36-.55.37 1.13.36-1.08.36-.5.36.97.36-.77.37.18.36-.56.36.04.36.13.36-.23.37.37.36-.9.36.8.36-.78.37.24.36.36.36-.4.36-.84.36.59.37.99.36-1.35.36.02.36.09.36.51.37-.59.36-.33.36.55.36-.09.36-.06.37 2.45.36.44.36.43.36-.16.37 1.38.36-1.52.36-.23.36.05.36.15.37 1.17.36-.78.36-.52.36-.21.36.19.37.66.36-1.02.36.64.36-.41.36-.12.37.65.36-.42.36-.23.36 1.23.37-2.17.36 1.51.36-.22.36-.78.36 1.41.37-1.11.36.24.36-.16.36-.05.36.71.37-.03.36-1.55.36 1.03.36-.31.36.79.37-.24.36-.9.36.72.36-.46.36.33.37.76.36-.34.36-.69.36-1.03.37 1.78.36.29.36-1.16.36.44.36-.85.37 1.26.36-.24.36-.53.36.66.36-.84.37.52.36.46.36-1.02.36.85.36-1.01.37.16.36 1.59.36-2.29.36 1.28.37.03.36-.91.36 1.43.36-2.03.36 1.54.37.45.36-1.81.36 1.04.36-.26.36.43.37.13.36-.94.36.53.36-.32.36.56.37.29.36-1.08.36.3.36.11.36.68.37-.32.36-.78.36.4.36.41.37.22.36-1.02.36.71.36-.2.36-.21.37.4.36-.13.36.49.36-.92.36.45.37.44.36-1.01.36.78.36.52.36-.56.37-.74.36.91.36.01.36-.36.37-.23.36.85.36-.72.36-.04.36.44.37-.26.36.22.36-1.15.36 1.53.36-.35.37-1.03.36 1.39.36-1.25.36 1.13.36-.69.37-.25.36 1.24.36-1.51.36.95.36.31.37-1.61.36 1.55.36-.51.36.38.37-.67.36-.48.36 1.52.36-1.19.36.36.37.39.36-.55.36.11.36-.09h.36l.37.68.36-1.11.36.88.36-.49.36.2.37.72.36-1.5.36 1.03.36.16.37-.43.36-.1.36-.08.36.07.36.62.37-.39.36-.13.36.76.36-1.13.36.99.37-.34.36.02.36-.57.36.86.36.27.37-1.65.36.93.36.22.36-.56.37.64.36-.67.36.39.36-.28.36-.27.37 1.39.36-1.55.36.71.36-.15.36.12.37-.52.36.71.36-.17.36-.53.36.54.37.17.36-.32.36-.12.36.22.36-.23.37-.03.36.59.36-.87.36.55.37.05.36-.73.36 1.55.36-1.25.36-.03.37.46.36-.3.36.67.36-1.13.36.55.37.31.36-.31.36.15.36.22.36-1.41.37 2.01.36-.56.36-.13.36-.62.37.19.36 1.28.36-1.71.36.98.36-.08.37-.52.36.55.36-.33.36-.16.36.25.37-.43.36.86.36-.71.36.04.36.26.37-.71.36 1 .36-.27.36-.52.36.54.37-.32.36.78.36-.75.36-.53.37 1.49.36-1.13.36.27.36-.07.36-.02.37.46.36-.19.36-.15.36-.56.36.98.37-.81.36 1.1.36-.83.36-.28.36.55.37-.23.36.26.36.13.36-.56.37.65.36-.67.36.27.36.12.36-.4.37.73.36-.27.36-.16.36-.67.36 1.4.37-.38.36-.89.36.6.36.08.36.31.37-.58.36-.18.36.39.36-.38.36.56.37.07.36-1 .36.94.36.01.37-.58.36.43.36-.15.36.01.36-.12.37-.02.36.86.36-1.58.36 1.55.36-.98.37-.13.36 1.25.36-1.4.36.97.36-.94.37.54.36.82.36-1.66.36.8.37.9.36-1.28.36-.05.36.77.36-.27.37-.02.36-.12.36.24.36-.11.36-.21.37 1.05.36-1.56.36.11.36 1.42.36-.95.37.33.36.03.36-.6.36.88.37-.84.36 1.07.36-1.09.36.65.36-.07.37-.88.36 1.06.36-.06.36-.88.36.7.37.27.36-.92.36 1.04.36-1.3.36 1.4.37-.96.36-.06.36.51.36-.41.36.78.37-.78.36.24.36-.14.36.02.37.82.36-1.07.36.01.36 1.29.36-1.62.37.98.36.13.36-.95.36.96.36-.39.37-.12.36.43.36-.87.36.76.36-.02.37-.72.36 1.53.36-1.38.36-.28.37 1.4.36-.72.36.34.36-.76.36.26.37.42.36.09.36-.23.36-.12.36.51.37-.83.36.92.36-.51.36-.15.36.09.37-.23.36.55.36-.24.36-.27.36.3.37-.29.36.09.36.16.36-.24.37-.39.36.95.36.02.36-.99.36.97.37-.72.36.67.36-.36.36-1.05.36 2.11.37-1.1.36-.14.36.04.36-.76.36 1.79.37-1.31.36.81.36-.7.36-.03.37.84.36-.18.36-.62.36.28.36-.44.37.56.36.46.36-.71.36-.72.36.92.37.32.36-.27.36-.13.36-.12.36-.28.37.5.36.98.36-1.39.36.52.37-.96.36 1.82.36-.83.36-.69.36 1.07.37-1.29.36.79.36.31.36-.59.36.38.37-.53.36-.3.36 1.42.36-1.01.36.15.37-.12.36-.57.36 1.56.36-.98.36.44.37-.64.36-.16.36.99.36-.2.37-.37.36.41.36-.7.36.29.36.27.37.03.36.14.36-.83.36.55.36.29.37-.33.36.39.36-.22.36-1.26.36 1.79.37-.72.36.59.36-1.18.36.06.37 1.41.36-.97.36.31.36.02.36-.6.37.36.36.25.36.72.36-.99.36-.28.37.4.36.28.36.37.36-1.25.36.11.37.93.36-.92.36 1.05.36-.81.36-.63.37 1.01.36-.24.36.44.36-.38.37-.6.36.69.36.17.36-.27.36.22.37-.8.36.58.36.45.36-.58.36.26.37-.21.36-.08.36.7.36-.68.36-.04.37.06.36.07.36.03.36-.13.37.4.36-.31.36-.27.36.66.36-.39.37-.13.36.58.36-.87.36.02.36.7.37-.34.36.66.36-1.19.36.15.36 1.04.37-.22.36-.25.36-.33.36.25.36.16.37-.16.36.74.36-1.27.36.27.37.42.36-.32.36.44.36-.3.36.18.37-.61.36.22.36 1 .36-.91.36-.75.37 1.71.36-.87.36.11.36-.53.36-.14.37 1.08.36-1.06.36 1.03.36-.19.37-.57.36.12.36.02.36.55.36-.12.37-.68.36.65.36-.7.36.6.36.55.37-1.4.36.42.36.86.36-.45.36.17.37-1 .36.21.36 1.35.36-1.21.37.62.36-.69.36.27.36.59.36-.55.37.5.36-.3.36-.55.36.92.36-.09.37.02.36-.59.36.15.36.55.36-.89.37.67.36.04.36-1.2.36 1.72.36-.7.37-1.04.36 1.7.36-1.54.36.59.37.89.36-1.59.36 2.08.36-2 .36.83.37-.17.36-.4.36 1.62.36-1.72.36-.11.37 1.43.36-1.05.36.7.36-.71.36-.08.37.43.36.21.36.46.36-1.49.37.54.36.69.36-.16.36-.41.36.05.37.22.36-.68.36.95.36-.1.36-.34.37-.22.36.18.36.54.36-.43.36.06.37.21.36-.43.36.59.36-.32.36.29.37-.45.36.13h.36l.36-.15.37 1.09.36-1.7.36.65.36-.11.36.23.37.32.36-1.16.36.84.36-.11.36.02.37.46.36-.72.36-.5.36 1.28.36-.4.37.18.36-.81.36.34.36.61.37-.78.36.7.36-.82.36.39.36.21.37-.2.36.07.36-.06.36.01.36.15.37-.4.36.14.36.84.36-1.15.36-.2.37 1.46.36-1.4.36.87.36-.29.36-.31.37.71.36-1.45.36 1.94.36-.71.37-.95.36 1.98.36-2.02.36 1.4.36-.51.37-.85.36 1.92.36-1.95.36 1.55.36-.46.37-1.82.36 3.04.36-2.35.36 1.06.36.2.37-1.41.36 1.79.36-1.12.36.15.37.58.36-1.12.36 1.09.36.04.36-1.56.37 1.83.36-.69.36-.41.36.98.36-.96.37.47.36.06.36-.46.36.57.36-.7.37.6.36.3.36-1.48.36 2.05.37-1.56.36.12.36 1.56.36-1.56.36.56.37-.21.36-.3.36 1.38.36-1.42.36.14.37.59.36-.31.36-.05.36.19.36-.85.37 1.29.36-.68.36.4.36-.01.36-.54.37.45.36-.55.36.69.36-.33.37.48.36-.81.36-.19.36 1.18.36-1.51.37 1.66.36-1.08.36-.29.36 1.65.36-2.23.37 1.54.36.28.36-1.27.36.7.36-.3.37.16.36.29.36-.91.36 1.04.37-.69h.36l.36 1.13.36-1.2.36-.64.37 1.87.36-.56.36-.54.36.2.36-.11.37.15.36.1.36.33.36-.59.36-.44.37.75.36.58.36-1.32.36 1.16.36-1 .37.16.36 1.05.36-1.08.36.38.37-.12.36-.01.36.67.36-.67.36.21.37-.35.36.54.36.06.36-.75.36.81.37-.72.36.28.36-.02.36.15.36.32.37-.84.36.25.36.7.36-.81.37.85.36-.71.36-.33.36.63.36-.08.37.03.36-.58.36.34.36.33.36-.4.37.25.36-.09.36-.2.36.21.36.37.37-1.24.36 1.38.36-.27.36-.47.36-.05.37.08.36 1.02.36-.72.36-.8.37.95.36-.74.36.59.36.24.36-.16.37-.89.36.51.36 1.03.36-1.12.36.09.37.36.36.01.36-.11.36.25.36.28.37-1.52.36 1.08.36.72.36-1.29.37.28.36.1.36-.29.36.89.36-.44.37-.71.36.73.36-.28.36.04.36 1.1.37-1.97.36 1.34.36-.85.36.58.36.5.37-.76.36.5.36-.92.36.13.37 1.56.36-1.43.36.32.36-.47.36.43.37.43.36-.63.36.21.36-.08.36-.43.37.79.36.01.36-.3.36-.07.36.08.37-.37.36 1.09.36-.75.36.06.36-.18.37-.65.36 1.65.36-.74.36-.14.37.23.36-.83.36 1.12.36-.07.36-.37.37.09.36-.79.36 1.3"/><use xlink:href="#bd415__b" color="#F44336" transform="matrix(3.75 0 0 3.75 125.4 149.88)"/><use xlink:href="#bd415__b" color="#F44336" transform="matrix(3.75 0 0 3.75 56.25 37.51)"/></g><text stroke-linecap="round" stroke-linejoin="round" color="#000" font-family="KaTeX_Main" font-size="8" transform="translate(76.8 55.11)"><tspan>RedBlackRelaxedTopDown</tspan></text><g fill="none" stroke="currentColor" stroke-linecap="round" stroke-linejoin="round" color="#000"><path stroke="violet" stroke-dasharray="4.0,2.0,1.0,2.0" d="M41.3 52.51h29.9M28 155.43l.36-.49.36-.02.37.34.36-.64.36.65.36.04h.36l.37-1.39.36-.03.36.63.36.93.37-.95.36-1.13.36.78.36-.49.36.67.37-1.45.36 1.46.36-1.14.36.24.36-.47.37-.21.36.62.36-1.11.36.67.36.18.37-.29.36-.27.36.24.36.33.36-.54.37-.05.36.26.36.29.36-2.25.37 1.45.36.09.36-.3.36-.5.36-.88.37 1.99.36-.9.36.41.36-.86.36.02.37.59.36-.63.36-.65.36.95.36-.81.37 4.11.36 1.36.36-1.06.36.76.37-.49.36.36.36-.41.36-.12.36.62.37-1.03.36 1.25.36-.31.36.63.36-1.57.37 1.58.36-.81.36.18.36.33.36-1.02.37.9.36-.64.36.23.36-.54.37.94.36-.5.36.1.36-.56.36.75.37-.53.36-.05.36.77.36-.76.36.26.37-.66.36.4.36-.3.36 1.38.36-.39.37-.02.36-1.5.36.92.36.49.36-.86.37.48.36-.89.36 1.35.36-.31.37-.04.36-1.21.36.83.36.41.36.18.37-.02.36-1.95.36.84.36 1.04.36-.25.37-1.34.36.66.36-.15.36 1.49.36-1.28.37.37.36-.51.36 1.28.36-.12.37-.41.36-.79.36.01.36.36.36.33.37.39.36-1.55.36.62.36-.27.36 1.6.37-.46.36-.77.36.45.36-.16.36.07.37.05.36-.28.36-.21.36-.12.36.87.37.15.36-1.34.36.3.36.76h.37l.36.05.36-.32.36-.07.36-.04.37-.14.36.53.36-1.04.36.84.36-.2.37-.27.36.4.36-.2.36-.04.36.05.37.08.36-.82.36.84.36-.06.37-.34.36.37.36.03.36-.11.36-.79.37 1.06.36-.15.36.81.36-.88.36-.02.37-.11.36-.12.36.72.36-.64.36.06.37-.55.36.41.36 1.07.36-.97.36-.12.37.09.36.05.36.15.36.21.37-1.5.36 1.08.36.14.36.4.36-1.01.37-.33.36.68.36.48.36.47.36-.07.37-.43.36-.81.36.78h.36l.36.1.37-.2.36.18.36-.25.36-.44.37.44.36-.27.36.34.36-.72.36 1.04.37-.78.36.05.36.04.36-.58.36.57.37-.1.36.13.36.27.36-1 .36.98.37-.03.36.31.36-.58.36.4.37-1.06.36 1.46.36-.24.36-.3.36-.22.37.18.36-.03.36-.08.36.52.36-.21.37-.23.36.05.36.42.36-.64.36-.44.37.4.36.35.36-.36.36-.01.36-.16.37.07.36.04.36.04.36 1.03.37-.95.36-.23.36.28.36.07.36.37.37-1.23.36.58.36.66.36-.38.36.4.37-.19.36-.12.36.37.36-1.15.36 1.31.37.02.36-1.06.36.14.36-.01.37.87.36-1.29.36.25.36.32.36-.36.37.37.36.75.36-.43.36-.52.36.55.37.14.36-1.04.36.96.36-.67.36.57.37-.2.36.17.36-.55.36-.43.36 1.02.37.44.36-.15.36-1.22.36.97.37-.12.36-.69.36.77.36-.27.36-.49.37.55.36-.07.36-.01.36.03.36.2.37-.06.36-.39.36.56.36-.77.36.22.37.32.36.51.36-.73.36.17.37-1.19.36 1.24.36.4.36.16.36-.72.37-.99.36.47.36.66.36-.54.36.59.37-.24.36-.17.36.07.36.53.36-.18.37-.46.36.45.36.36.36.06.36-.74.37.26.36-.89.36 1.29.36-.02.37-1.24.36.78.36-.91.36.93.36 1.05.37-1.13.36-.27.36-.24.36-.21.36 1.32.37-.72.36-.55.36.01.36.69.36-.19.37-.71.36.55.36.4.36.16.37-.4.36.35.36-.12.36-.65.36.58.37-.16.36.08.36.21.36-.66.36.61.37-.48.36.49.36-.54.36-.2.36 1.07.37-1.24.36.68.36-.59.36.47.37.19.36-.35.36.3.36-.85.36.63.37.67.36-.17.36.19.36-1.29.36.57.37.99.36-1.18.36 1.17.36-.95.36 1.09.37-1.49.36 1.41.36-.57.36-.72.36 1.54.37-.96.36.33.36-.68.36 1 .37-1.58.36.21.36 1.06.36-.39.36.2.37-.49.36-.52.36 1.46.36-.54.36.15.37-.46.36.31.36-.34.36.04.36.69.37-.48.36-.63.36-.06.36 1.32.37-.26.36-.81.36.51.36.25.36-.25.37-.39.36.3.36-.57.36-.31.36 1.53.37-.77.36-.05.36-.57.36-.45.36 1.27.37-.17.36.32.36.17.36-.89.36.5.37-.17.36.65.36-.2.36-1.1.37 1.16.36-.62.36.35.36.46.36-1.06.37.24h.36l.36.92.36-.25.36-.87.37.61.36-.08.36.37.36-.43.36-.38.37.39.36.13.36.49.36.38.37-1.05.36-.59.36.48.36.54.36-.37.37-.04.36-.13.36.55.36-1.12.36 1.14.37-.14.36-.67.36.2.36 1.33.36-1.82.37.58.36-.08.36-.14.36-.31.37-.05.36 1.07.36-.57.36.14.36-.12.37.49.36-.99.36 1.24.36.16.36-.86.37.38.36-.91.36.47.36.73.36-.96.37.21.36-.6.36.83.36.39.36-.09.37-.15.36-.67.36.25.36-.06.37.53.36-1.02.36.48.36.7.36-.78.37.43.36-1.17.36.91.36.38.36.56.37.13.36-1.4.36.35.36.89.36-1.3.37 1.12.36-.33.36-.42.36.52.37-.47.36.6.36.08.36-1 .36.82.37-.71.36.07.36-.04.36-.02.36.37.37-.07.36-.09.36-.76.36 1.04.36-.95.37 1.21.36.15.36-.53.36-.2.36-.56.37.28.36.56.36.5.36-.46.37-.77.36.5.36-.31.36 1 .36-.18.37-.9.36.34.36.18.36-.04.36.14.37-.31.36-.87.36.86.36.72.36-1.33.37.43.36.17.36.36.36.04.37.22.36-1.58.36.86.36.51.36-.24.37.27.36-1.52.36.81.36.8.36-1.14.37 1.29.36-.29.36-.75.36 1.04.36-.87.37.4.36-.63.36.24.36.56.36-.1.37-.66.36.08.36.3.36.09.37.35.36-1.47.36 1.68.36-.36.36-.12.37-.01.36.24.36-.88.36.6.36-.64.37.84.36.07.36-.86.36.89.36-.51.37-.42.36.97.36-.47.36-.28.37.29.36-.56.36.97.36.06.36-.63.37-.66.36.22.36 1.74.36-.99.36-.09.37-.43.36.2.36.35.36.25.36-1.85.37 1.31.36-.01.36.01.36.67.37-1.49.36.47.36.9.36-.02.36-.01.37-1.38.36.35.36.42.36.07.36.55.37-2.12.36 1.25.36.75.36.1.36-.52.37.19.36.47.36-.04.36-.47.36.08.37-.62.36.35.36 1.07.36-.5.37-.43.36-.74.36.75.36-.61.36 1.11.37-.75.36.4.36-.19.36-.25.36-.62.37 1.05.36-.22.36.02.36-.24.36-.1.37-.05.36.75.36-.38.36-.69.37 1.28.36-.36.36-.13.36.18.36-.45.37-.04.36.31.36.45.36-1.16.36.68.37-.3.36 1.51.36-1.26.36-.27.36-.58.37.65.36.3.36-.33.36-.43.36-.04.37.71.36.62.36-1.46.36-.12.37.97.36.36.36.29.36-.71.36-1.16.37.98.36.2.36.43.36-.95.36.52.37.17.36.57.36-.78.36-.18.36.4.37.01.36.67.36-.72.36-.23.37-.8.36 1.63.36-.59.36-.37.36-.37.37.26.36.59.36-.22.36.74.36-.98.37.17.36.55.36-.76.36.23.36-.32.37.55.36.23.36-.83.36.26.36-.47.37.79.36.75.36-.85.36-.3.37.27.36-.65.36.87.36-.65.36-.2.37 1.28.36-1.22.36.14.36.41.36-.12.37.55.36-.33.36-1.21.36 1.26.36.18.37-.38.36.61.36-1.08.36.01.37.53.36.13.36-.36.36-.07.36.46.37-.13.36.24.36-1.08.36.47.36-.22.37 1.17.36-.71.36-.01.36.13.36-.45.37.61.36.32.36-.48.36.6.37-.86.36.41.36-.04.36-.15.36.06.37-.72.36 1.17.36-1.66.36 1.35.36-.03.37-.33.36.37.36-.59.36.22.36.02.37-.39.36-.17.36.91.36-.52.36-.05.37-.39.36.12.36.4.36.38.37.17.36-.58.36.1.36.62.36-.74.37.38.36-.36.36-.13.36.63.36-.42.37.4.36-.2.36-.7.36.15.36.66.37-.39.36.86.36-1.37.36-.14.37 1.04.36-.62.36.61.36-.08.36-.73.37.63.36-.1.36-.05.36.31.36-.57.37-.09.36.97.36-.24.36-.22.36-.17.37.04.36 1.02.36-.74.36-.52.36-.44.37.76.36 1.41.36-1.37.36.34.37-1.42.36.06.36 1.12.36.06.36-.5.37-.42.36.39.36.08.36.03.36-.15.37.11.36.37.36.6.36-.78.36-.43.37.05.36.45.36-.32.36.62.37-.66.36.21.36-.5.36.88.36.15.37.36.36-1.19.36-.39.36.89.36-.27.37.25.36-.28.36.01.36-.13.36-.16.37-.02.36.52.36.15.36-.68.36.67.37-.16.36-.43.36.05.36.11.37.1.36.07.36-.13.36-.23.36.27.37.28.36-.7.36.6.36-.28.36.17.37.19.36-.05.36.17.36-.98.36.69.37.15.36-.71.36.38.36.28.37.19.36.78.36-1.72.36-.13.36.44.37.77.36.22.36-1.29.36.53.36-.29.37.4.36.16.36-.76.36.72.36-.42.37.39.36-.23.36-.27.36.02.37-.02.36.69.36-.62.36.33.36-.07.37-.02.36.01.36-.23.36.25.36.31.37.13.36-.38.36-.08.36.31.36.03.37-.99.36 1.16.36-.87.36.5.36.31.37-.73.36.7.36-.17.36-.25.37-.51.36.64.36-.76.36.33.36 1.3.37-1.6.36.3.36-.25"/><use xlink:href="#bd415__g" color="violet" transform="matrix(3.75 0 0 3.75 182.98 154.47)"/><use xlink:href="#bd415__g" color="violet" transform="matrix(3.75 0 0 3.75 56.25 52.51)"/></g><text stroke-linecap="round" stroke-linejoin="round" color="#000" font-family="KaTeX_Main" font-size="8" transform="translate(241.1 10.11)"><tspan>LBSTBottomUp</tspan></text><g fill="none" stroke="currentColor" stroke-linecap="round" stroke-linejoin="round" color="#000"><path stroke="#3B75EA" d="M205.6 7.51h29.9M28 159.37l.36-.13.36.41.37-.12.36-.96.36.81.36-.35.36-.36.37.87.36-.89.36-.49.36-.01.37.37.36.35.36-.78.36-.54.36.77.37.23.36-1.17.36 1.09.36-.87.36-.21.37.25.36.96.36-.5.36-.98.36-.31.37.66.36.6.36.16.36-1.48.36-.41.37 1.11.36.27.36-.62.36-.76.37.57.36-.09.36.19.36.2.36-.83.37-1.01.36 1.89.36-.39.36.14.36-2.88.37 3.12.36-.27.36-1.61.36.28.36.33.37-.69.36.8.36-1 .36.59.37.85.36-.66.36.02.36-.18.36.58.37-1.06.36.68.36.03.36-.42.36.14.37-.84.36 1.3.36-.03.36-.62.36-.19.37.15.36.09.36-.37.36.33.37.28.36-.9.36.45.36-.13.36.35.37.49.36-.25.36-.81.36.71.36.01.37-.01.36-.23.36.39.36-.89.36.22.37.99.36-.94.36.67.36-1.31.36.56.37.57.36-.15.36.02.36-1.26.37.34.36.95.36.19.36-.97.36-.22.37.57.36.44.36-.27.36-.28.36.21.37-.47.36.53.36.15.36-.3.36.03.37-.19.36.06.36.12.36-.3.37.27.36.1.36-1.08.36 1.36.36-.23.37-.28.36.17.36-.62.36.48.36.44.37-.53.36-.16.36.6.36-.29.36.17.37-.5.36.47.36.2.36-.22.36-.65.37.51.36.37.36-.33.36.18.37-.83.36.61.36.54.36-.56.36-.49.37.43.36.38.36-.33.36.09.36-.44.37.47.36-.48.36.34.36.27.36-.48.37.21.36-.43.36.51.36-.06.37.02.36-.55.36.48.36.2.36-.19.37.09.36-.36.36.64.36-.74.36.94.37-.51.36-.38.36.35.36.1.36-.35.37.84.36-.6.36-.4.36.47.36.03.37-.04.36-.92.36 1.07.36.39.37-.12.36-1.03.36.83.36-.52.36.7.37.12.36-.74.36.05.36 1.02.36-.6.37-.22.36-1.04.36 1.65.36-.27.36-.04.37-.54.36-.2.36-.1.36 1.61.37-1.63.36.39.36.28.36-.83.36 1.12.37-.68.36.59.36-.42.36.17.36.15.37-.23.36-.26.36.55.36.18.36-.29.37.13.36-.31.36-.44.36.6.37-.1.36.17.36-.46.36-.21.36.81.37-.8.36.42.36.23.36-.72.36 1.17.37-.5.36-.42.36.42.36-.35.36.45.37.21.36-.47.36.16.36-.45.36.21.37.5.36.14.36-.69.36-.53.37.7.36.09.36.42.36-1.56.36 1.02.37-.55.36.86.36-.1.36-1.31.36 1.3.37-.33.36.57.36-.66h.36l.36-.16.37.14.36.58.36-.47.36.32.37-1.05.36 1.42.36-1.59.36 1.23.36.43.37-.55.36-.76.36.3.36.66.36-.64.37.39.36-.51.36.6.36-.18.36-.14.37-.01.36.14.36.32.36-.3.36-.36.37.77.36-.39.36-.28.36-.36.37.41.36.56.36-.07.36-.83h.36l.37.84.36.03.36-.04.36.02.36-.97.37.52.36.49.36-.32.36-.09.36-.83.37 1.13.36.09.36-.23.36-.31.37-.08.36-.18.36.69.36-.11.36-.32.37-.77.36.71.36.48.36.07.36-.08.37-.75.36.71.36-.15.36.61.36-1.47.37 1.24.36-.02.36-1.07.36.67.36-.51.37 1.17.36-.73.36-.24.36.08.37.22.36.18.36-.04.36-.19.36-.59.37 1.38.36-1.04.36.51.36-.34.36-.11.37.16.36.21.36.68.36-.76.36-.37.37.14.36.53.36.13.36-.12.37-.45.36-.65.36.73h.36l.36.03.37.21.36-.87.36.51.36.26.36.17.37-.11.36-1.06.36.92.36.01.36.45.37-1.09.36.68.36-.47.36 1.22.37-.33.36-.64.36-.04.36-.08.36.7.37-.53.36-.06.36.36.36-.85.36.09.37.81.36.4.36-.67.36.31.36-.57.37.49.36.34.36-.11.36-.38.36-.84.37 1.17.36.02.36-.49.36.07.37-.31.36.22.36.77.36-.66.36.1.37-.13.36-.26.36.6.36-.11.36-.16.37-.07.36-.28.36.03.36.46.36-.01.37.2.36-.1.36-.68.36.27.37.51.36-.29.36.03.36-.69.36.92.37-1.46.36 1.58.36.02.36-1.01.36.33.37.55.36-.31.36.2.36-.47.36-.09.37.38.36.14.36-.26.36-.24.36.35.37.29.36-.28.36-.21.36 1.25.37-1.35.36.15.36-.71.36 1.05.36-.13.37-.57.36.42.36-.14.36.47.36-.6.37.61.36-.25.36-.63.36.97.36-.55.37.76.36-1.31.36.37.36.31.37.28.36.39.36-1.14.36.14.36.11.37.16.36.78.36-1.17.36.16.36-.07.37.45.36-.11.36-.26.36.3.36-.16.37.33.36-.44.36.55.36-.1.37-.49.36.71.36-.96.36.54.36.49.37-.52.36-.38.36-.01.36.84.36-.22.37-.37.36-.32.36.92.36-.45.36.84.37-1.59.36.94.36-.54.36.65.36-.09.37-.14.36-.04.36.05.36-.15.37-.16.36.86.36-.79.36.2.36-.46.37.56.36-.1h.36l.36.07.36-.33.37.06.36-.07.36.18.36.55.36-1.09.37.96.36-.34.36.65.36-.79.37-.38.36.11.36 1.03.36-.14.36-.65.37.19.36-.93.36 1.48.36-.66.36-.11.37.19.36.42.36-.95.36.45.36-.15.37.73.36.12.36-1.59.36 1.31.36-.25.37.49.36-.55.36-.61.36 1.19.37-.36.36-.08.36-.44.36.22.36-.35.37.99.36-.88.36.44.36-.4.36-.12.37.3.36-.03.36.18.36.31.36-.85.37.36.36.34.36-.05.36-.14.37.41.36-1.15.36 1.05.36-.17.36-.41.37.28.36-.02.36.2.36-.29.36.17.37-.01.36-.67.36.91.36-.56.36.37.37.2.36-.69.36-.33.36 1.3.36-.35.37.21.36-.69.36-.06.36.62.37-.31.36.48.36-.46.36-.11.36.02.37.16.36.23.36-.78.36.81.36-.85.37.66.36.23.36-.1.36-.58.36-.53.37 1.06.36.11.36.27.36-1 .37-.09.36.21.36.72.36-.09.36.06.37-1.31.36.68.36.93.36-.51.36-.15.37-.79.36.6.36.16.36.48.36-1.01.37.27.36.6.36-.23.36-.22.37-.11.36.51.36-.3.36-.3.36.37.37.02.36-.11.36-.37.36.65.36-.45.37.49.36-.54.36.65.36-.12.36-.95.37.86.36-.46.36.21.36.6.36-1.31.37.41.36.53.36.11.36-.45.37-.02.36-.02.36.43.36.01.36-.44.37-.28.36.07.36.69.36-.25.36-.77.37.67.36-.22.36.4.36-.04.36-.34.37-.09.36.68.36-.27.36.25.37-.2.36-.96.36.88.36.23.36-.25.37.1.36.06.36-.45.36.69.36-.67.37.39.36-.58.36.38.36-.33.36.22.37.41.36-1.24.36 1.16.36.22.36-.01.37-.47.36.2.36-.34.36.79.37.06.36-.99.36.33.36.11.36.07.37-.02.36-.93.36 1.34.36-.33.36.1.37-.81.36.13.36.5.36-.36.36-.24.37.53.36-.17.36-.09.36.33.37-.57.36.9.36-.43.36-.04.36.06.37-.11.36-.03.36.19.36.2.36-.37.37.02.36-.28.36-.17.36.8.36-.35.37.24.36-.32.36.01.36.12.36-.69.37 1.19.36-.7.36.19.36.02.37-.18.36-.08.36-.14.36.9.36-.27.37.13.36.14.36-.79.36.34.36-.56.37 1.07.36-.45.36-.6.36.54.36-.39.37.6.36-.45.36.35.36-.09.37.33.36-.12.36-.63.36-.28.36.72.37.07.36.32.36-.96.36.34.36-.41.37.51.36.61.36-.56h.36l.36-.37.37.15.36.06.36.62.36-.72.37.55.36-.54.36.32.36-.74.36.96.37.35.36-.59.36.16.36-.65.36-.13.37.62.36.06.36.42.36-.86.36.17.37-.21.36.33.36.11.36.21.36-.4.37.47.36.63.36-1.41.36-.07.37.26.36.85.36-.45.36.05.36-.4.37.13.36.14.36-.11.36.37.36-.51.37.55.36-.83.36.08.36.27.36-.52.37.82.36-.26h.36l.36-.38.37-.11.36.45.36.91.36-.56.36-.5.37.36.36-.47.36.41.36.11.36.06.37.22.36-.4.36-.35.36.22.36.33.37-.04.36-.18.36.07.36-.4.36-.34.37.49.36.64.36-.49.36.18.37-.53.36.44.36-.02.36.1.36-.49.37.78.36-.23.36.42.36-.74.36-.44.37.35.36.59.36-.44.36.6.36-1.55.37.71.36.03.36.72.36-.47.37-.36.36-.11.36.7.36-.57.36.66.37-1.12.36.99.36.04.36-.13.36-.95.37.97h.36l.36.28.36-.06.36-.88.37.28.36.31.36.06.36-.14.36.05.37.23.36-.34.36-.33.36.21.37.07.36.39.36.14.36-.42.36-.61.37.57.36.1.36.39.36-.75.36.37.37.46.36-.38.36-.45.36.52.36-.17.37-.3.36.23.36.15.36.78.37-2.12.36.96.36-.02.36 1.14.36-.67.37-.03.36-1.12.36 1.16.36.35.36-.75.37.02.36-.12.36.49.36-.3.36-.08.37.2.36-.59.36 1.05.36-.59.37-.57.36 1 .36-.04.36-.52.36.21.37.14.36.16.36-.77.36.94.36-.09.37-.08.36-.63.36.14.36.26.36.41.37-.56.36.27.36-.16.36.24.36-1.16.37 1.09.36-.39.36.95.36-1.36.37 1.11.36-.64.36-.12.36.62.36-.87.37 1.22.36-.6.36.1"/><use xlink:href="#bd415__a" color="#3B75EA" transform="matrix(3.75 0 0 3.75 240.55 155.14)"/><use xlink:href="#bd415__a" color="#3B75EA" transform="matrix(3.75 0 0 3.75 220.55 7.51)"/></g><text stroke-linecap="round" stroke-linejoin="round" color="#000" font-family="KaTeX_Main" font-size="8" transform="translate(241.1 25.11)"><tspan>LBSTRelaxed</tspan></text><g fill="none" stroke="currentColor" stroke-linecap="round" stroke-linejoin="round" color="#000"><path stroke="#FFAB00" stroke-dasharray="4.0,2.0,1.0,2.0" d="M205.6 22.51h29.9M28 153.86l.36-.09.36-.15.37-6.64.36 5.98.36-.04.36.85.36-3.12.37 1.57.36.33.36-.75.36-1.35.37-2.02.36 4.38.36-1.55.36-.21.36.74.37-.23.36-2.32.36 3.47.36-9.22.36 1.79.37 7.21.36-2.39.36-.02.36-.38.36 2.42.37-2.8.36.51.36-2.34.36 3.99.36-.11.37-.37.36.46.36-2.63.36 1.91.37-5.25.36 5.49.36-5.44.36 3.47.36.33.37-.36.36.71.36.04.36 1.05.36-.7.37-.24.36-3.74.36 3.46.36-.8.36 1.85.37 2.66.36 1.53.36-1.71.36 1.87.37.49.36-1.43.36-.45.36 1.32.36-3.42.37-1.07.36-1.69.36 6.01.36.22.36-.03.37-.35h.36l.36.15.36-5.97.36-4.01.37 9.36.36.82.36-.53.36-.51.37-.1.36.91.36-1.34.36.29.36-.5.37.96.36.23.36.68.36-.8.36-3.26.37 4.86.36-1.67.36-.65.36.79.36-.39.37.13.36-1.06.36-.6.36 2.28.36-.13.37-.89.36-3.49.36 1.64.36 1.97.37.26.36.32.36.19.36-.71.36.58.37-.13.36-1.96.36.81.36 1.18.36-.65.37.55.36.01.36-.58.36.92.36-1.49.37-.72.36 1.99.36.07.36-6.73.37-2.97.36 9.08.36.37.36-.78.36-2.01.37 3.18.36-.85.36-1.26.36 1.2.36.13.37.11.36-.6.36-.36.36-.9.36.64.37 1.84.36-1.5.36.91.36.19.36-2.36.37 1.82.36.29.36-.31.36-.26.37.79.36-.38.36-2.26.36-1.31.36.59.37 3.46.36-.68.36-.28.36 1.41.36-2.37.37-1.43.36 4.26.36-2.06.36 1.2.36-.97.37.99.36-.8.36.95.36-1.5.37-.6.36 2.92.36-3.3.36-4.5.36 5.14.37-8.68.36 9.44.36.67.36-.57.36-.15.37.46.36-1.42.36.31.36 1.47.36-.14.37.11.36-.15.36-2.5.36 3.16.36-2.17.37 1.31.36-.1.36.81.36-1.17.37.38.36.94.36-1.34.36.38.36.18.37.06.36-.01.36-1.86.36 1.25.36-4.38.37 5.71.36-1.08.36-.02.36-.64.36.62.37-.03.36 1.08.36-1.86.36 1.66.37-.82.36.53.36-.55.36.74.36-2.46.37.36.36 2.12.36-1.66.36-4.97.36 5.99.37-8.91.36 9.72.36-1.38.36.02.36.86.37-.54.36-.21.36-.33.36 1.47.37-1.68.36 1.51.36-4.04.36 1.56.36 2.49.37-1.37.36 1.27.36-.39.36-.16.36.53.37-.27.36-.69.36 1.2.36-.61.36-1.05.37-.3.36-.09.36 1.24.36.15.36-3.19.37 3.79.36-.73.36.48.36-.66.37.27.36-.12.36-4.05.36 4.26.36.25.37.35.36-.63.36.73.36-1.39.36-3.66.37 4.94.36-.08.36-7.69.36 7.31.36.44.37-9.55.36 9.11.36-.68.36 1.59.37-1.47.36.43.36.67.36-1.44.36.48.37.27.36 1.1.36-3.44.36 3.05.36-1.81.37-.34.36 1.09.36 1.35.36-.74.36-.26.37-.33.36.97.36-.84.36.87.36-.9.37.47.36-2.59.36 3.32.36-1.29.37-2.6.36 3.25.36-.22.36.18.36-.81.37.12.36-1.3.36 2.48.36-2.27.36.85.37 1.42.36-.51.36-.1.36-1.44.36 1.46.37-.12.36.9.36-8.61.36 7.58.37-.06.36-8.76.36 8.7.36-3.04.36 3.62.37-.37.36.04.36-.24.36-.11.36-.01.37.53.36.88.36-3.3.36 2.53.36.12.37-1.57.36.84.36-.88.36 1.94.36-.68.37-.84.36 1.21.36-.15.36-.33.37-.85.36-.58.36 1.57.36.38.36-1.01.37-2.92.36 4.28.36-1.16.36.46.36-1.06.37-.03.36.9.36-1.36.36 1.7.36-.62.37-.2.36.79.36.82.36-4.09.37 3.75.36-2.02.36-4.88.36 4.39.36 2.17.37.1.36-11.63.36 11.49.36-.25.36-.2.37-.17.36.56.36-.41.36-.85.36-.37.37 1.37.36-1.72.36 2.15.36-1.95.37.86.36-.67.36.83.36 1.11.36.2.37-1.83.36 1.47.36-1.96.36 1.64.36 1.15.37-2.13.36-1.91.36 3.81.36-.06.36-1.98.37-1.95.36 3.19.36-.15.36-.79.36 1.09.37-.36.36.79.36-.87.36-.28.37.12.36.41.36-.44.36-2.93.36 3.88.37-.79.36.11.36-6.25.36 5.08.36.88.37-.62.36 1.78.36-11.05.36 9.51.36 1.23.37-.31.36-1.7.36 2.04.36.14.37-2.36.36 1.52.36-1.29.36 1.16.36-1.54.37 2.34.36-1.08.36-.51.36.85.36.54.37-1.09.36.81.36-.06.36-.21h.36l.37-3.67.36 2.11.36 1.45.36.87.36-.39.37-3.88.36 2.27.36 1.65.36-.68.37-1.19.36 2.19.36-.16.36-.54.36.67.37-1.77.36 1.55.36.05.36-1.74.36 1.75.37-.41.36-.23.36-5.9.36 5.57.36-.1.37.77.36-.87.36-9.64.36 10.72.37-2.49.36 2.64.36-1.21.36 1.11.36-.28.37-2.39.36.58.36 1.92.36.27.36-.22.37-.63.36 1.3.36-2.08.36 1.01.36.49.37-.55.36.26.36.38.36-.67.37.73.36-3.36.36 3.08.36.34.36-2.69.37 2.56.36-1 .36-1.61.36 1.49.36.91.37.35.36-.96.36.87.36-.52.36-2.11.37 1.92.36.71.36-1.41.36-1.33.36 3.26.37-1.36.36-5.29.36 5.91.36-.93.37-.23.36-.26.36.78.36-9.07.36 9.53.37.26.36-.81.36-.43.36 1.02.36-.09.37-.54.36-.86.36 1.31.36.31.36-.02.37-.01.36-.54.36-1.37.36.98.37-.01.36.85.36.38.36.28.36-1.68.37 1.53.36-2.92.36 2.38.36.12.36.02.37.07.36-.84.36-2.32.36 2.89.36-.7.37.88.36.2.36-.2.36-.46.36.01.37-.31.36.76.36-3 .36 2.95.37-2.08.36 2.54.36-7.94.36 6.5.36 1.3.37-1.47.36.94.36-.4.36-8.63.36 9.21.37-.73.36.6.36.39.36-.82.36.18.37-2.15.36 1.13.36.97.36.99.37-.72.36-.1.36.11.36-3.43.36 4.12.37-1.41.36 1.22.36-.15.36-.34.36.06.37-2.31.36 2.36.36-.25.36-.59.36.15.37-.99.36 1.68.36-2.95.36 2.28.36.68.37.64.36-.79.36-.55.36.88.37.09.36-1.34.36.77.36-.69.36.99.37.38.36-6.31.36 5.38.36.25.36.32.37-1.6.36 1.07.36.37.36-9.22.36 9.12.37.18.36-.72.36.96.36-.54.37-.08.36-2.14.36 2.64.36-1.88.36 1.97.37-.45.36-.05.36-2.55.36 1 .36 1.59.37.63.36-2.35.36 2.49.36-.61.36-.08.37-1.96.36 2.24.36-2.02.36 1.92.37-.06.36-1.51.36 1.94.36-4.51.36 4.63.37-.5.36.94.36-1.64.36.9.36-.07.37-.24.36-.23.36-1.72.36 2.06.36.88.37-.62.36-8.94.36 7.75.36 1.45.36-.97.37-.56.36.44.36.74.36-11.44.37 11.07.36.29.36-.47.36.19.36.97.37-2.5.36-1.41.36 3.64.36-.21.36-.36.37.19.36-.54.36.86.36-2.17.36 1.42.37.51.36.51.36-1.12.36.22.37-1.96.36 2.04.36.57.36-1.05.36.33.37.26.36-.1.36.21.36-4.2.36 4.73.37-.91.36.16.36-1.62.36 1 .36-1.14.37.73.36 1.17.36-4.34.36 4.88.36.02.37-6.47.36 5.04.36-.41.36 1.32.37-.74.36-.68.36 1.9.36-1.27.36-8.23.37 9.43.36-1.09.36.36.36.55.36.14.37-3.13.36 2.43.36.21.36-.66.36.69.37-.42.36.59.36.44.36-2.87.37 1.82.36.19.36.83.36.02.36-.62.37-2.57.36 2.52.36.98.36-2.08.36.81.37.6.36.21.36-1.57.36-2.02.36 3.77.37-1.05.36 1 .36-2.88.36 2.02.36.71.37-.39.36-1.45.36.05.36 1.81.37-.18.36-8.06.36 7.23.36 1.05.36-.44.37-.12.36-2.59.36 3.48.36-.79.36-8.18.37 5.9.36 2.5.36.16.36-1.07.36 1.11.37-1.92.36 1.11.36-.66.36 1.61.37-1.28.36-.55.36-.28.36 1.9.36-1.79.37.91.36.8.36-.07.36.13.36-4.52.37 4.03.36-.75.36.88.36-2.93.36 3.38.37.34.36-1.39.36.5.36-3.21.37 2.13.36 1.64.36-.27.36-.1.36-.22.37.29.36-.04.36-1.88.36 1.6.36.25.37.35.36-7.05.36 6.39.36.94.36-1.57.37-.41.36-.84.36 2.78.36-.93.36.22.37-9.64.36 9.69.36-.4.36.78.37-2.32.36.01.36.62.36 1.02.36.07.37.44.36.47.36-2.82.36 2.14.36.16.37-1.51.36 1.11.36.71.36-.31.36-2.5.37 2.04.36.65.36-.53.36-2.01.37 1.32.36 1.2.36-.1.36-.93.36-.97.37.29.36 1.66.36-.22.36-.11.36-.1.37-1.23.36 1.34.36-.81.36.2.36.8.37-6.1.36 5.92.36-.18.36-.11.36-2.48.37 1.81.36.08.36 1 .36.15.37-.54.36-9.18.36 9.81.36-.15.36-.85.37-.79.36-.22.36 1.73.36-.47.36.53.37.07.36-.63.36.33.36-.23.36.98.37-2.51.36 2.44.36.01.36-1.02.37-1.9.36 2.91.36-1.26.36.63.36-.01.37-.24.36.04.36-.12.36.54.36-.69.37-1.98.36 2.17.36.62.36-.82.36-.21.37 1.54.36-3.25.36 1.05.36.61.36.91.37-8.16.36 7.32.36.39.36-.81.37 1.47.36-1.08.36-1.38.36 1.3.36.87.37-.28.36-9.19.36 9.6.36.34.36-3.04.37.74.36 2.69.36-.98.36-.39.36.72.37-1.72.36.99.36.18.36.47.37-1.51.36.48.36.63.36.98.36-2.4.37 1.58.36.7.36-1.02.36.84.36-.84.37.7.36.33.36-1.66.36-.3.36 1.73.37-3.52.36 3.78.36-.63.36.14.37.02.36-.02.36-1.34.36 1.38.36-.56.37-5.69.36 6.54.36-2.1.36 1.75.36-.13.37.04.36-.35.36.6.36-1.38.36-.19.37 1.26.36-8.98.36 9.5.36-.51.36-1.65.37 2.09.36.18.36-1.88.36.54.37.74.36.42.36-.71.36-.09.36 1.04.37-.44.36-1.93.36 2.66"/><use xlink:href="#bd415__h" color="#FFAB00" transform="matrix(3.75 0 0 3.75 298.12 152.99)"/><use xlink:href="#bd415__h" color="#FFAB00" transform="matrix(3.75 0 0 3.75 220.55 22.51)"/></g><text stroke-linecap="round" stroke-linejoin="round" color="#000" font-family="KaTeX_Main" font-size="8" transform="translate(241.1 40.11)"><tspan>TreapTopDown</tspan></text><g fill="none" stroke="currentColor" stroke-linecap="round" stroke-linejoin="round" color="#000"><path stroke="#00C853" stroke-dasharray="4.5,2.0,0.5,2.0,0.5,2.0" d="M205.6 37.51h29.9M28 157.59l.36 1.91.36-1.69.37 1.16.36-1.19.36.67.36-.46.36.22.37-.91.36.75.36-.67.36.6.37-.81.36.59.36-.47.36.06.36-.15.37.05.36-.24.36.59.36-1.37.36.91.37-.31.36.02.36-.21.36.47.36-1.19.37 1.02.36-.8.36-.1.36-.79.36.95.37-.81.36.43.36-.42.36.49.37-1.01.36.92.36-.48.36.31.36-.34.37-.05.36-1.03.36 1.78.36-.87.36-1.05.37.91.36-.46.36.32.36-.81.36 1.35.37-4.07.36 2.55.36-2.09.36 1.26.37-1.24.36.78.36-.46.36-.12.36.34.37-.09.36-.26.36.33.36-.1.36-.12h.37l.36-.39.36.24.36.69.36-.72.37-.59.36.76.36-.4.36.84.37-.52.36.42.36-.46.36-.25.36-.16.37.7.36-.15.36-.7.36.6.36.18.37-.99.36.89.36-.13.36.28.36-.5.37.58.36-1.18.36 1.05.36-.47.36.68.37-.66.36.97.36-1.62.36 1.36.37-1.41.36 1.84.36-1.8.36 1.72.36-1.36.37 1.18.36-1.05.36.76.36-.4.36-.19.37.11.36-.23.36.39.36.36.36-1.01.37 1.1.36-1.57.36 1.98L70 151l.37 1.4.36-.99.36 1.23.36-2 .36 1.43.37-.79.36-.01.36-.14.36-.52.36.5.37.17.36-.1.36.19.36.32.36-1.36.37.85.36-.3.36.77.36-.24.36.16.37-.99.36.83.36-.26.36.59.37-.35.36-.44.36.79.36-.65.36.26.37-.38.36.79.36-1.24.36 1.02.36-.24.37-.26.36.39.36.01.36-.59.36.05.37 1.48.36-1.54.36.46.36-.15.37.31.36-.2.36.46.36.01.36.03.37-1.03.36.96.36-.4.36.1.36.66.37-1.31.36.64.36-.03.36.32.36-.65.37.5.36-.2.36-.59.36.12.36.92.37-.93.36.85.36-.41.36-.62.37 1.08.36-.56.36.56.36-.79.36.85.37-.67.36.84.36-1.03.36.75.36-.46.37-.17.36.69.36-.95.36.69.36-.23.37-.23.36.56.36-.43.36-.43.37.56.36-.29.36.69.36-.95.36.74.37-1.04.36.77.36.2.36-.43.36.33.37-.1.36-.29.36.38.36.18.36-.47.37.38.36.2.36-.3.36-.38.37.13.36.23.36-.01.36-.03.36-.28.37.82.36-.94.36 1.09.36-1.06.36.82.37-.52.36.28.36.15.36-.3.36.38.37.09.36-.62.36.58.36-.15.36-.36.37-.44.36 1.09.36-.79.36 1.15.37-1.77.36 1.72.36-.96.36.31.36.17.37-.73.36.22.36.79.36-1.1.36.4.37.24.36-.5.36.91.36-1.02.36.78.37-.79.36.86.36-.77.36.98.37-.76.36.2.36-.08.36.24.36-.77.37 1.16.36-1.15.36 1.69.36-2.16.36 2.05.37-2.28.36 2.61.36-2.17.36 1.04.36-.44.37.34.36-.3.36.31.36.17.36-.87.37.74.36-.75.36.66.36-.63.37.41.36.3.36-.73.36.65.36-.02.37-.57.36.2.36.57.36-.3.36.71.37-.54.36-.31.36-.12.36 1.19.36-1.46.37.82.36-.12.36-.09.36-.26.37.19.36-.05.36.39.36-1.3.36 2.56.37-2.71.36 2.27.36-1.73.36 1.38.36-1.62.37 1.22.36-.89.36.91.36-1.14.36 1.48.37-1.19.36.74.36-1.53.36 1.81.36-.41.37-.33.36.12.36.38.36-.88.37 1.02.36-.66.36.48.36-.46.36.54.37-.18.36-.64.36.07.36.21.36.51.37-.51.36.45.36-.74.36.64.36-.46.37.59.36.03.36-.58.36-.21.37.36.36.16.36.3.36-.19.36-.54.37.5.36.06.36-.38.36.32h.36l.37-.25.36.45.36.1.36-.58.36.82.37-1.15.36.93.36.08.36-1.62.37 1.99.36-1.2.36.78.36-.47.36-.15.37.56.36-.46.36-.03.36.45.36-.17.37-.48.36.83.36-.25.36.28.36-.31.37-.27.36.07.36.42.36-.06.36-.43.37.25.36.69.36-.94.36.07.37.3.36-.33.36-.1.36.69.36-.71.37.97.36-.5.36-.38.36.62.36-.69.37.91.36-.91.36.16.36.67.36-.3.37-.34.36.39.36-.8.36.59.37.09.36.5.36-.77.36.8.36-.55.37.02.36-.25.36.21.36.29.36-.13.37-1 .36 1.44.36-.86.36.33.36.12.37-.43.36.46.36-.73.36.92.36-.71.37.44.36-.12.36.28.36-.74.37.51.36-.8.36 1.18.36-.34.36-.64.37 1.14.36-1.36.36.94.36-.63.36.1.37.66.36-.64.36.71.36-.37.36-.04.37.32.36-.63.36.41.36-.57.37.6.36-.09.36-.77.36.88.36-.63.37 1.18.36-1.48.36 1.24.36-1.09.36.78.37-.87.36.45.36.6.36-.75.36.52.37-.93.36 1.45.36-1.16.36.82.37-.59.36.26.36-.2.36.38.36-.78.37.95.36-1.1.36 1.03.36-1.11.36.28.37.36.36-.12.36-.49.36.89.36-1.28.37 1.51.36-1.06.36.85.36-.83.36.68.37-.65.36.57.36-.12.36.03.37-.54.36.79.36-.24.36-.75.36 1.13.37-.91.36-.02.36.45.36.07.36-.56.37.42.36-.01.36.32.36-.66.36.52.37-.34.36.42.36-.41.36.41.37-.41.36.03.36.61.36-.73.36.59.37-.59.36.68.36-.66.36.56.36-.69.37 1.12.36-1.13.36.81.36-1.05.36.79.37-.03.36.27.36-.9.36.71.36-.89.37.85.36-.64.36.04.36.58.37-.79.36.23.36-.45.36.77.36-.11.37.67.36-.05.36-.81.36.48.36-.48.37-.09.36.28.36.29.36.31.36-.96.37 1.12.36-.97.36-.07.36.63.37-.08.36-.48.36.5.36-.49.36 1.08.37-1.5.36 1.53.36-1.4.36.95.36-.76.37.94.36-.53.36.62.36-1.2.36.81.37.47.36-.65.36.18.36.01.36-.35.37.94.36-1.41.36 1.65.36-1.58.37 1.04.36-.67.36.07.36.66.36-.94.37.63.36-.59.36 1.16.36-1.37.36.94.37-.82.36 1.39.36-1.63.36.62.36.25.37-.12.36.41.36-.3.36-.13.37.16.36.51.36-1.04.36.51.36-.19.37.1.36.26.36-.54.36.45.36-.28.37.77.36-.33.36.54.36-1.24.36 1.39.37-1.26.36 1.23.36-1.55.36 1.23.37-.38.36.09.36-.23.36-.08.36.67.37-.74.36.32.36-.38.36.5.36-.4.37-.02.36 1.04.36-1.12.36.22.36-.6.37.84.36-.2.36.2.36-.14.36.12.37-.04.36-.62.36 1.38.36-1.16.37.04.36.16.36-.29.36.21.36.47.37-.02.36-.92.36.97.36-.7.36.95.37-.84.36.93.36-1.71.36 1.62.36-1.17.37 1.08.36-1.06.36.4.36.3.37.01.36-.66.36.07.36.24.36.72.37-1.57.36.86.36-.24.36.57.36-.21.37-.67.36 1.36.36-1.22.36.95.36-.4.37-.12.36-.03.36.32.36.26.36-.72.37.84.36-.59.36.45.36-.4.37.26.36-.12.36-.2.36-.23.36.27.37-.31.36.94.36-.98.36.81.36-.41.37.18.36-.35.36.04.36-.47.36.65.37-.3.36 1.01.36-.97.36-.08.37.12.36.48.36-.34.36.19.36.18.37-.95.36 1.27.36-1.83.36 2.14.36-1.94.37 2.18.36-2.15.36.67.36.24.36-.26.37.53.36-.99.36 1.02.36-1.28.36.88.37-.01.36-.82.36 1.05.36-.25.37.14.36-.15.36-.13.36.39.36-1.19.37 2.2.36-2.1.36.67.36-.19.36.42.37-.06.36-.55.36.46.36-.08.36.5.37-1.04.36.94.36-.04.36.03.37-.92.36.59.36-.4.36.86.36-.47.37-.04.36-.17.36.09.36-.13.36-.21.37 1.03.36-1.29.36.4.36.03.36.75.37-.34.36.17.36-.18.36-.14.37.75.36-.75.36.4.36-.66.36.82.37-1.08.36.36.36.83.36-.9.36.78.37-1.11.36 1.3.36-.9.36.36.36-.75.37 1.55.36-1.69.36 1.02.36-.49.36.58.37-.38.36.78.36-1.04.36.82.37-.28.36-.1.36 1.07.36-1.67.36 1.02.37-.55.36-.05.36.44.36.25.36-.32.37.15.36-.33.36.17.36-.23.36.8.37-1.62.36 1.5.36-.73.36.57.37.29.36-1.04.36.86.36-.75.36.4.37-.56.36 1.54.36-1.53.36.75.36-.56.37.55h.36l.36-.69.36 1.07.36-1.18.37.89.36-.82.36.63.36.27.36-.51.37-.3.36 1.12.36-1.1.36.3.37-.14.36.69.36-1.07.36.46.36-.08.37.49.36-.78.36.66.36-.68.36-.24.37.43.36-.08.36.13.36.09.36-.73.37 1.17.36-.61.36.06.36.53.37-.59.36-.24.36 1.11.36-.95.36.3.37-.07.36.21.36.09.36-.21.36-.33.37.54.36-.86.36 1.27.36-1.42.36 1.53.37-1.22.36 1.03.36-.69.36.09.36-.14.37.2.36-.25.36.96.36-1.09.37.57.36-.19.36-.18.36-.54.36 1.14.37-.29.36-.57.36 1.04.36-.32.36-.22.37-.75.36 1.1.36-.49.36.23.36-.11.37-.24.36.49.36-1.14.36 1.12.37-.45.36.07.36.17.36-.64.36 1.12.37-1.33.36.65.36-.77.36.73.36-.19.37.56.36-.63.36.45.36.13.36-.31.37-.77.36 1.2.36-.74.36.6.37-.46.36-.02.36.58.36-.81.36.5.37-.59.36-.07.36.97.36-1.43.36 1.82.37-2.13.36 1.92.36-1.67.36.89.36-1.14.37 1.58.36-.43.36.14.36-.04.36.33.37-.83.36 1.15.36-1.5.36 1.8.37-1.92.36 1.9.36-1.56.36 1.46.36-.73.37-.31.36.77.36-.46"/><use xlink:href="#bd415__i" color="#00C853" transform="matrix(3.75 0 0 3.75 355.7 150.75)"/><use xlink:href="#bd415__i" color="#00C853" transform="matrix(3.75 0 0 3.75 220.55 37.51)"/></g><text stroke-linecap="round" stroke-linejoin="round" color="#000" font-family="KaTeX_Main" font-size="8" transform="translate(241.1 55.11)"><tspan>Splay</tspan></text><g fill="none" stroke="currentColor" stroke-linecap="round" stroke-linejoin="round" color="#000"><path stroke="#29C3F6" d="M205.6 52.51h29.9M28 156.92l.36.2.36.89.37-1.32.36.04.36.57.36-1.25.36.16.37.18.36-.68.36.33.36.63.37-1.46.36.4.36.93.36-1.22.36-.16.37.17.36-.8.36.43.36.03.36-.37.37.17.36.08.36-.71.36-.03.36.46.37-.57.36-.12.36.31.36.13.36-.87.37.32.36.32.36-.5.36-.64.37.76.36.12.36-.63.36-.56.36.79.37-.18.36-.79.36-.01.36.54.36-.19.37-.09.36-.01.36-.44.36.1.36.26.37-52.34.36 45.14.36.43.36-.04.37.36.36-.5.36-.06.36.39.36.13.37-.34.36-.93.36 1.52.36-.39.36-.66.37.74.36-.32h.36l.36-.33.36.63.37-.33.36-.47.36.3.36.88.37-.89.36.03.36-.33.36.98.36-.48.37-.61.36.06.36.41.36-.08.36-.01.37.01.36.53.36-.25.36-.48.36.44h.37l.36-.51.36-.28.36.65.36.25.37-.59.36.38.36.34.36-.72.37.43.36-.08.36-.5.36.58.36-.88.37.56.36.24.36.04.36-.03.36.2.37-.54.36.36.36-.6.36.61.36-.15.37-.41.36.08.36.67.36.24.37-.63.36-.31.36.51.36-.12.36-.69.37.93.36-.59.36-.44.36.99h.36l.37.28.36-.7.36-.15.36.99.36-.85.37-.35.36.35.36-.02.36.06.36-.04.37.86.36-.49.36-.81.36.45.37.38.36-.41.36.08.36-.8.36 1.31.37-.21.36-.27.36.21.36.17.36-.2.37-.88.36 1.47.36-.76.36-.62.36.48.37.17.36.56.36-.7.36.34.37-.34.36-.08.36.1.36.45.36-.53.37.61.36-1.08.36 1.12.36-.25.36-.33.37.29.36-.31.36.35.36-.01.36-.3.37.02.36.34.36-.64.36.85.36-.31.37-.11.36-1.03.36 1.44.36-.25.37-.44.36.4.36-.14.36-.04.36.08.37.3.36-.06.36-.47.36-.2.36.7.37.23.36-.68.36-.39.36.65.36.28.37-.66.36.23.36.17.36-.37.37.08.36.2.36.27.36.13.36-.77.37.32.36.29.36-.25.36-.41.36.42.37-.03.36.12.36-.2.36.43.36-.21.37-.54.36.24.36.37.36-.22.37-.51.36.22.36.29.36.41.36-.77.37 1.08.36-.69.36-.43.36.49.36.09.37-.32.36-.16.36.02.36.69.36-.15.37-.64.36.67.36-.37.36.23.36-.5.37.23.36.14.36-.74.36.38.37 1.33.36-1.03.36.11.36.05.36-59.35.37 53.88.36 5.16.36.31.36-.63.36.03.37.76.36.32.36-1.09.36.92.36-.57h.37l.36-.17.36-.08.36.67.37-.68.36.26.36.53.36.21.36-.92.37.59.36-.24.36-.16.36-.33.36.72.37-.03.36-.94.36.73.36.81.36-.81.37-.17.36-.1.36-.04.36.45.36-.73.37.77.36-.3.36.12.36.3.37.03.36.04.36-.42.36-.46.36.51.37.25.36-.54.36-.29.36.54.36.68.37-.64.36-.18.36.51.36-.51.36-.36.37.67h.36l.36-.38.36-.62.37 1.41.36.22.36-1.04.36.67.36-.48.37.19.36-.61.36.36.36.5.36-.54.37-.2.36.97.36-.54.36-.02.36-.19.37-.01.36.14.36.05.36-.43.36.53.37-.24.36.04.36.66.36-.39.37.55.36-1.46.36.83.36.05.36-.43.37-.3.36 1.04.36-.44.36-.24.36.35.37.01.36-.13.36-.72.36 1.29.36-.38.37-.61.36.15.36.4.36-.18.37.6.36-1.02.36 1.2.36-1.3.36.6.37-.08.36-.23.36.71.36-1 .36.36.37.2.36.58.36-.88.36.05.36.34.37.27.36-.78.36.35.36.68.37-1.33.36.54.36.67.36-.06.36-.83.37.22.36.16.36.56.36-1.24.36 1.1.37-.66.36-.01.36.01.36.7.36-.01.37-.98.36.29.36.69.36-.1.36-.75.37.62.36-.38.36.3.36-.22.37.24.36-.08.36-.2.36-.14.36.52.37-.09.36-.25.36-.44.36.4.36.54.37-.69.36.31.36.16.36-.32.36-.08.37 1.12.36-1.01.36-.07.36-.41.37.77.36.28.36-1.25.36 1.19.36-.69.37.81.36-.75.36.36.36.03.36-.57.37.05.36.85.36-.54.36-.07.36-.33.37.54.36.33.36-.48.36.01.36-.11.37.23.36-.35.36.28.36-.19.37.5.36-.58.36.38.36.17.36-.25.37-.16.36-.13.36.47.36-.41.36.08.37.24.36-.04.36-.27.36-63.19.36 62.8.37 1.14.36-.67.36-.02.36-.27.37.53.36-.06.36.09.36-.73.36 1.11.37-.24.36-.64.36.6.36-.5.36.64.37-.89.36.4.36.23.36-.28.36-.42.37 1.34.36-.51.36-.22.36-.23.37.22.36.14.36-.57.36.38.36-.44.37.9.36-.52.36.28.36-.17.36.61.37-1.06.36.26.36.06.36.21.36-.49.37.21.36.51.36-.27.36.39.36-.26.37.16.36-.76.36.16.36.52.37-.43.36-.67.36 1.27.36-.28.36.29.37-1.18.36 1.6.36-.9.36-.81.36.84.37.02.36.1.36-.65.36.5.36.58.37.02.36-.83.36.44.36-.36.37.01.36-.07.36-.04.36.43.36-.6.37.52.36.27.36.45.36-.71.36-.45.37.21.36.38.36-.71.36.6.36-.1.37.16.36-.25.36.61.36-.16.36-.91.37.44.36.08.36-.13.36-.12.37.03.36.24.36.22.36-.2.36.42.37-.39.36-.21.36-.21.36.41.36.3.37-.58.36.02.36.28.36.66.36-.63.37.13.36-.47.36.41.36-.56.37.4h.36l.36-.02.36-.48.36 1 .37.24.36-1.24.36.37.36.36.36.08.37-.71.36.46.36.26.36-.6.36.04.37.91.36-.2.36-.77.36-.32.36 1.23.37-.72.36-.05.36.08.36.02.37.22.36.06.36-.16.36-.04.36.02.37-.27.36.42.36.21.36-.26.36-.78.37.74.36.43.36-.67.36.52.36-.55.37.32.36-.72.36 1.01.36-.19.37-.28.36-.34.36.66.36-.08.36-.01.37-.55.36.26.36.24.36-.06.36.35.37-.11.36-.49.36-.23.36.49.36.19.37.08.36-1.02.36.31.36.7.37.02.36-.42.36.01.36.28.36-.62.37.34.36.54.36-.27.36-.71.36.53.37.2.36.57.36-1.28.36.86.36-.36.37-.2.36-.04.36.42.36-.12.36-.74.37.71.36.33.36-.14.36-.11.37-.32.36.38.36-.43.36-62.5.36 62.75.37-.31.36.65.36-.12.36.18.36-.6.37.71.36-.72.36-.04.36.19.36.16.37-.25.36-.09.36.2.36.54.37.28.36-1.14.36.32.36.09.36-.09.37-.16.36.35.36-.03.36.36.36-.98.37 1.15.36-.2.36-.5.36-.43.36.38.37.12.36-.08.36-.14.36.34.36.03.37-.81.36 1.93.36-1.22.36-.48.37.37.36-.13.36.61.36-.65.36.38.37.05.36-.29.36.51.36-.24.36.02.37-.5.36-.75.36 1.45.36-.4.36-.11.37-.25.36.53.36.58.36-.63.37-.17.36.26.36-.42.36-.06.36.31.37.55.36-.66.36-.3.36.73.36.21.37-.45.36-.38.36.05.36.3.36-.61.37.38.36.35.36.02.36-.32.36.45.37-.16.36.01.36-.84.36.99.37-.04.36-.28.36-.28.36.31.36.54.37-1.13.36.71.36.13.36.04.36-1.14.37.59.36.24.36.31.36-.99.36 1.4.37-.79.36.17.36-.2.36.38.37-.55.36.26.36.06.36.01.36.16.37-.67.36.56h.36l.36.17.36-.98.37.78.36.05.36-.44.36-.08.36.68.37.33.36-1.36.36.8.36.21h.37l.36-.84.36.9.36-.47.36.29.37-.42.36.71.36-.81.36.57.36-.47.37.78.36-.56.36-.52.36.46.36.11.37.29.36-.27.36-.09.36-.02.36.17.37-.18.36.55.36-.54.36.25.37-.54.36.84.36.04.36-1.34.36.61.37.37.36.15.36-.53.36.26.36-.56.37.97.36-.98.36 1.4.36-.65.36-.46.37-.16.36.61.36.1.36-.43.37-.19.36.18.36.94.36-.92.36.41.37-.58.36.4.36-.57.36.93.36-.3.37-.5.36-.18.36.77.36.51.36-.84.37-.01.36-.11.36.47.36-.65.36.77.37-.13.36-.58.36-.32.36 1.61.37-.68.36-.5.36-.19.36.44.36.26.37-.8.36.43.36-.04.36.17.36-.15.37.87.36-.76.36-62.9.36 62.81.36-.03.37.06.36.28.36-.06.36-.34.37-.08.36.84.36-.12.36-.86.36.29h.37l.36-.11.36.07.36-.1.36.2.37.39.36-.25.36.5.36-.35.36-.25.37-.48.36.49.36.59.36-1.05.36.36.37.08.36.43.36-.52.36.48.37-.15.36-.25.36-.48.36.34.36.4.37-.44.36-.45.36 1.5.36-.5.36-.68.37.81.36-.22.36-.01.36-.75.36.66.37.08.36-.23.36-.5.36.94.37-.49.36.55.36-.82.36.4h.36l.37-.53.36.49.36-.09.36.49.36-.65.37.14.36.59.36.08.36-.97.36.67.37-.51.36-.06.36.33.36.45.37-.61.36-.29.36.38.36.35.36.04.37-.71.36-.05.36.35.36.04.36.2.37-.01.36.08.36-.32.36-.01.36.71.37-.22.36-.91.36.14.36.36.36.56.37-.61.36-.18.36-.02.36.6.37-.74.36 1.15.36-1.04.36.01.36-.25.37 1.15.36-.28.36-.72"/><use xlink:href="#bd415__d" color="#29C3F6" transform="matrix(3.75 0 0 3.75 69.28 145.21)"/><use xlink:href="#bd415__d" color="#29C3F6" transform="matrix(3.75 0 0 3.75 220.55 52.51)"/></g><path fill="none" d="M28 75.01v87.49m343.99-87.49H28" color="#000"/></svg>