<svg xmlns="http://www.w3.org/2000/svg" xmlns:xlink="http://www.w3.org/1999/xlink" viewBox="0 0 400 200"><path fill="none" d="M0 0h400v200H0z"/><defs><use xlink:href="#b6947__a" id="b6947__b" fill="currentColor" stroke="none"/><use xlink:href="#b6947__a" id="b6947__c" stroke="currentColor" transform="rotate(180)"/><path id="b6947__a" stroke="currentColor" stroke-width=".267" d="m0-1.33-1.33 2h2.66z"/></defs><path fill="none" stroke="#CCC" stroke-linecap="round" stroke-linejoin="round" stroke-width=".1" d="M46.1 162.5V45.01" class="b6947__gridline" color="#000"/><g fill="none" stroke-linecap="round" stroke-linejoin="round" stroke-width="0" color="#000"><path d="M46.1 162.5V155m0-109.99v7.5"/><text fill="#000" font-family="KaTeX_Main" font-size="8" text-anchor="middle" transform="translate(46.1 172.6)"><tspan> 1</tspan></text></g><path fill="none" stroke="#CCC" stroke-linecap="round" stroke-linejoin="round" stroke-width=".1" d="M82.31 162.5V45.01" class="b6947__gridline" color="#000"/><g fill="none" stroke-linecap="round" stroke-linejoin="round" stroke-width="0" color="#000"><path d="M82.31 162.5V155m0-109.99v7.5"/><text fill="#000" font-family="KaTeX_Main" font-size="8" text-anchor="middle" transform="translate(82.31 172.6)"><tspan> 2</tspan></text></g><path fill="none" stroke="#CCC" stroke-linecap="round" stroke-linejoin="round" stroke-width=".1" d="M118.52 162.5V45.01" class="b6947__gridline" color="#000"/><g fill="none" stroke-linecap="round" stroke-linejoin="round" stroke-width="0" color="#000"><path d="M118.52 162.5V155m0-109.99v7.5"/><text fill="#000" font-family="KaTeX_Main" font-size="8" text-anchor="middle" transform="translate(118.52 172.6)"><tspan> 3</tspan></text></g><path fill="none" stroke="#CCC" stroke-linecap="round" stroke-linejoin="round" stroke-width=".1" d="M154.73 162.5V45.01" class="b6947__gridline" color="#000"/><g fill="none" stroke-linecap="round" stroke-linejoin="round" stroke-width="0" color="#000"><path d="M154.73 162.5V155m0-109.99v7.5"/><text fill="#000" font-family="KaTeX_Main" font-size="8" text-anchor="middle" transform="translate(154.73 172.6)"><tspan> 4</tspan></text></g><path fill="none" stroke="#CCC" stroke-linecap="round" stroke-linejoin="round" stroke-width=".1" d="M190.94 162.5V45.01" class="b6947__gridline" color="#000"/><g fill="none" stroke-linecap="round" stroke-linejoin="round" stroke-width="0" color="#000"><path d="M190.94 162.5V155m0-109.99v7.5"/><text fill="#000" font-family="KaTeX_Main" font-size="8" text-anchor="middle" transform="translate(190.94 172.6)"><tspan> 5</tspan></text></g><path fill="none" stroke="#CCC" stroke-linecap="round" stroke-linejoin="round" stroke-width=".1" d="M227.15 162.5V45.01" class="b6947__gridline" color="#000"/><g fill="none" stroke-linecap="round" stroke-linejoin="round" stroke-width="0" color="#000"><path d="M227.15 162.5V155m0-109.99v7.5"/><text fill="#000" font-family="KaTeX_Main" font-size="8" text-anchor="middle" transform="translate(227.15 172.6)"><tspan> 6</tspan></text></g><path fill="none" stroke="#CCC" stroke-linecap="round" stroke-linejoin="round" stroke-width=".1" d="M263.36 162.5V45.01" class="b6947__gridline" color="#000"/><g fill="none" stroke-linecap="round" stroke-linejoin="round" stroke-width="0" color="#000"><path d="M263.36 162.5V155m0-109.99v7.5"/><text fill="#000" font-family="KaTeX_Main" font-size="8" text-anchor="middle" transform="translate(263.36 172.6)"><tspan> 7</tspan></text></g><path fill="none" stroke="#CCC" stroke-linecap="round" stroke-linejoin="round" stroke-width=".1" d="M299.57 162.5V45.01" class="b6947__gridline" color="#000"/><g fill="none" stroke-linecap="round" stroke-linejoin="round" stroke-width="0" color="#000"><path d="M299.57 162.5V155m0-109.99v7.5"/><text fill="#000" font-family="KaTeX_Main" font-size="8" text-anchor="middle" transform="translate(299.57 172.6)"><tspan> 8</tspan></text></g><path fill="none" stroke="#CCC" stroke-linecap="round" stroke-linejoin="round" stroke-width=".1" d="M335.78 162.5V45.01" class="b6947__gridline" color="#000"/><g fill="none" stroke-linecap="round" stroke-linejoin="round" stroke-width="0" color="#000"><path d="M335.78 162.5V155m0-109.99v7.5"/><text fill="#000" font-family="KaTeX_Main" font-size="8" text-anchor="middle" transform="translate(335.78 172.6)"><tspan> 9</tspan></text></g><path fill="none" stroke="#CCC" stroke-linecap="round" stroke-linejoin="round" stroke-width=".1" d="M371.99 162.5V45.01" class="b6947__gridline" color="#000"/><g fill="none" stroke-linecap="round" stroke-linejoin="round" stroke-width="0" color="#000"><path d="M371.99 162.5V155m0-109.99v7.5"/><text fill="#000" font-family="KaTeX_Main" font-size="8" text-anchor="middle" transform="translate(371.99 172.6)"><tspan> 10</tspan></text></g><g fill="none" stroke-linecap="round" stroke-linejoin="round" stroke-width="0" color="#000"><path d="M371.99 162.5h-7.5"/><text fill="#000" font-family="KaTeX_Main" font-size="8" transform="translate(378.99 165.1)"><tspan>0.890</tspan></text></g><g fill="none" stroke-linecap="round" stroke-linejoin="round" stroke-width="0" color="#000"><path d="M371.99 145.72h-7.5"/><text fill="#000" font-family="KaTeX_Main" font-size="8" transform="translate(378.99 148.32)"><tspan>0.900</tspan></text></g><g fill="none" stroke-linecap="round" stroke-linejoin="round" stroke-width="0" color="#000"><path d="M371.99 128.93h-7.5"/><text fill="#000" font-family="KaTeX_Main" font-size="8" transform="translate(378.99 131.53)"><tspan>0.910</tspan></text></g><g fill="none" stroke-linecap="round" stroke-linejoin="round" stroke-width="0" color="#000"><path d="M371.99 112.15h-7.5"/><text fill="#000" font-family="KaTeX_Main" font-size="8" transform="translate(378.99 114.75)"><tspan>0.920</tspan></text></g><g fill="none" stroke-linecap="round" stroke-linejoin="round" stroke-width="0" color="#000"><path d="M371.99 95.36h-7.5"/><text fill="#000" font-family="KaTeX_Main" font-size="8" transform="translate(378.99 97.96)"><tspan>0.930</tspan></text></g><g fill="none" stroke-linecap="round" stroke-linejoin="round" stroke-width="0" color="#000"><path d="M371.99 78.58h-7.5"/><text fill="#000" font-family="KaTeX_Main" font-size="8" transform="translate(378.99 81.18)"><tspan>0.940</tspan></text></g><g fill="none" stroke-linecap="round" stroke-linejoin="round" stroke-width="0" color="#000"><path d="M371.99 61.79h-7.5"/><text fill="#000" font-family="KaTeX_Main" font-size="8" transform="translate(378.99 64.39)"><tspan>0.950</tspan></text></g><g fill="none" stroke-linecap="round" stroke-linejoin="round" stroke-width="0" color="#000"><path d="M371.99 45.01h-7.5"/><text fill="#000" font-family="KaTeX_Main" font-size="8" transform="translate(378.99 47.61)"><tspan>0.960</tspan></text></g><path fill="none" d="M28 45.01V162.5M371.99 45.01H28" color="#000"/><text stroke-linecap="round" stroke-linejoin="round" stroke-width="0" color="#000" font-family="KaTeX_Main" font-size="10" text-anchor="middle" transform="rotate(-90 57.63 46.13)"><tspan font-weight="bold">Average Path Length </tspan><tspan> / log</tspan><tspan dy="3" font-size="8">2</tspan><tspan dy="-3">(Size)</tspan></text><text stroke-linecap="round" stroke-linejoin="round" stroke-width="0" color="#000" font-family="KaTeX_Main" font-size="10" text-anchor="middle" transform="translate(199.99 195.75)"><tspan>Operations / 10</tspan><tspan dy="-5" font-size="8">6</tspan></text><text stroke-linecap="round" stroke-linejoin="round" stroke-width=".5" color="#000" font-family="KaTeX_Main" font-size="8" transform="translate(110.4 10.11)"><tspan>AVLBottomUp</tspan></text><g fill="none" stroke="currentColor" stroke-linecap="round" stroke-linejoin="round" stroke-width=".5" color="#000"><path stroke="#000" d="M74.9 7.51h29.9M28 118.65l.36-.21.36-.25.37-.27.36-.3.36-.32.36-.35.36-.37.37-.4.36-.41.36-.44.36-.45.37-.48.36-.49.36-.51.36-.53.36-.55.37-.56.36-.58.36-.59.36-.59.36-.59.37-.59.36-.58.36-.56.36-.54.36-.51.37-.48.36-.43.36-.38.36-.32.36-.26.37-.19.36-.13.36-.06h.36l.37.07.36.12.36.17.36.21.36.24.37.27.36.28.36.27.36.27.36.25.37.23.36.2.36.16.36.12.36.08.37.04h.36l.36-.04.36-.07.37-.1.36-.12.36-.15.36-.16.36-.17.37-.19.36-.18.36-.19.36-.19.36-.19.37-.19.36-.18.36-.19.36-.18.36-.19.37-.19.36-.19.36-.2.36-.2.37-.22.36-.23.36-.23.36-.25.36-.26.37-.27.36-.28.36-.28.36-.29.36-.29.37-.28.36-.27.36-.26.36-.24.36-.22.37-.19.36-.15.36-.13.36-.08.36-.04.37.01.36.05.36.09.36.15.37.18.36.22.36.27.36.29.36.32.37.35.36.37.36.38.36.38.36.39.37.38.36.37.36.36.36.34.36.33.37.29.36.28.36.24.36.22.37.19.36.16.36.12.36.11.36.07.37.05.36.02h.36l.36-.03.36-.04.37-.07.36-.08.36-.1.36-.11.36-.13.37-.14.36-.16.36-.17.36-.17.36-.19.37-.19.36-.21.36-.21.36-.21.37-.22.36-.22.36-.22.36-.22.36-.22.37-.22.36-.2.36-.2.36-.18.36-.17.37-.16.36-.13.36-.12.36-.09.36-.06.37-.04.36-.02.36.02.36.03.37.07.36.09.36.12.36.13.36.16.37.16.36.19.36.19.36.2.36.19.37.2.36.19.36.18.36.16.36.15.37.13.36.11.36.09.36.06.36.03.37.01.36-.01.36-.04.36-.06.37-.09.36-.1.36-.12.36-.13.36-.14.37-.15.36-.16.36-.16.36-.15.36-.15.37-.15.36-.13.36-.11.36-.11.36-.08.37-.07.36-.05.36-.02.36-.01.37.02.36.03.36.06.36.07.36.1.37.11.36.13.36.14.36.15.36.16.37.17.36.18.36.18.36.18.36.18.37.19.36.17.36.17.36.17.37.16.36.15.36.14.36.13.36.12.37.1.36.1.36.09.36.07.36.07.37.06.36.05.36.04.36.04.36.03.37.04.36.03.36.03.36.03.36.03.37.04.36.04.36.05.36.06.37.06.36.07.36.08.36.09.36.1.37.1.36.11.36.11.36.13.36.12.37.13.36.12.36.13.36.12.36.12.37.12.36.11.36.1.36.08.37.08.36.06.36.06.36.03.36.02.37.01.36-.01.36-.03.36-.04.36-.06.37-.07.36-.09.36-.09.36-.12.36-.12.37-.13.36-.14.36-.14.36-.16.36-.15.37-.16.36-.15.36-.16.36-.15.37-.15.36-.14.36-.14.36-.13.36-.11.37-.11.36-.09.36-.09.36-.06.36-.06.37-.04.36-.03.36-.01h.36l.36.01.37.03.36.04.36.05.36.07.37.07.36.08.36.08.36.1.36.1.37.1.36.1.36.1.36.1.36.09.37.09.36.08.36.08.36.06.36.05.37.05.36.02.36.02h.36l.36-.02.37-.03.36-.05.36-.07.36-.08.37-.1.36-.12.36-.13.36-.15.36-.17.37-.18.36-.19.36-.21.36-.22.36-.23.37-.25.36-.25.36-.26.36-.27.36-.28.37-.28.36-.29.36-.28.36-.29.37-.29.36-.29.36-.29.36-.28.36-.27.37-.27.36-.26.36-.25.36-.24.36-.22.37-.21.36-.2.36-.17.36-.16.36-.15.37-.12.36-.1.36-.08.36-.05.37-.04.36-.02.36.01.36.03.36.05.37.07.36.09.36.1.36.12.36.14.37.15.36.16.36.17.36.18.36.18.37.19.36.19.36.19.36.19.36.18.37.17.36.17.36.16.36.14.37.14.36.12.36.1.36.09.36.07.37.06.36.04.36.01h.36l.36-.02.37-.03.36-.06.36-.08.36-.09.36-.11.37-.13.36-.14.36-.16.36-.17.37-.19.36-.2.36-.22.36-.22.36-.23.37-.25.36-.25.36-.26.36-.26.36-.27.37-.27.36-.27.36-.27.36-.27.36-.26.37-.26.36-.26.36-.25.36-.24.36-.24.37-.22.36-.21.36-.19.36-.19.37-.17.36-.15.36-.13.36-.12.36-.1.37-.09.36-.06.36-.05.36-.03.36-.01.37.01.36.02.36.04.36.06.36.07.37.09.36.1.36.1.36.12.37.13.36.13.36.14.36.14.36.15.37.14.36.15.36.14.36.14.36.13.37.13.36.12.36.11.36.1.36.09.37.08.36.08.36.06.36.05.37.04.36.03.36.02.36.01h.36l.37-.01.36-.02.36-.03.36-.03.36-.04.37-.04.36-.05.36-.05.36-.06.36-.05.37-.06.36-.06.36-.06.36-.05.36-.05.37-.05.36-.05.36-.04.36-.04.37-.03.36-.03.36-.01.36-.02h.73l.36.02.36.02.36.03.36.03.37.05.36.05.36.06.36.07.36.08.37.09.36.09.36.1.36.11.37.12.36.12.36.13.36.13.36.14.37.15.36.15.36.15.36.16.36.16.37.16.36.17.36.17.36.17.36.17.37.16.36.17.36.17.36.16.36.16.37.15.36.14.36.14.36.14.37.12.36.11.36.1.36.09.36.08.37.07.36.05.36.03.36.02.36.01.37-.01.36-.03.36-.04.36-.06.36-.08.37-.09.36-.1.36-.12.36-.14.37-.15.36-.16.36-.17.36-.18.36-.19.37-.2.36-.2.36-.21.36-.21.36-.22.37-.21.36-.21.36-.21.36-.2.36-.2.37-.19.36-.18.36-.16.36-.15.36-.14.37-.12.36-.11.36-.08.36-.07.37-.05.36-.03h.36l.36.01.36.04.37.05.36.08.36.09.36.11.36.12.37.15.36.15.36.16.36.18.36.18.37.18.36.19.36.19.36.18.37.19.36.18.36.17.36.16.36.15.37.14.36.13.36.12.36.1.36.08.37.08.36.05.36.05.36.03.36.02h.73l.36-.01.36-.02.37-.03.36-.04.36-.03.36-.04.36-.05.37-.04.36-.04.36-.04.36-.03.36-.03.37-.02.36-.01.36-.01.36.01.36.01.37.02.36.04.36.05.36.06.36.07.37.08.36.09.36.11.36.11.37.12.36.14.36.14.36.15.36.16.37.16.36.17.36.17.36.17.36.18.37.17.36.17.36.17.36.17.36.16.37.16.36.15.36.14.36.14.37.13.36.13.36.11.36.11.36.1.37.09.36.09.36.08.36.07.36.06.37.06.36.05.36.04.36.04.36.03.37.03.36.02.36.01.36.01h.73l.36-.01.36-.01.36-.02.37-.02.36-.03.36-.03.36-.04.36-.04.37-.04.36-.05.36-.05.36-.06.36-.05.37-.06.36-.05.36-.06.36-.05.36-.05.37-.05.36-.05.36-.04.36-.05.37-.03.36-.03.36-.03.36-.03.36-.02.37-.01.36-.02.36-.01.36-.01.36-.01h.37l.36-.01.36-.01h.36l.36-.01.37-.01.36-.02.36-.01.36-.03.36-.02.37-.03.36-.03.36-.04.36-.05.37-.04.36-.06.36-.06.36-.06.36-.07.37-.07.36-.08.36-.09.36-.08.36-.1.37-.09.36-.1.36-.11.36-.1.36-.11.37-.11.36-.11.36-.11.36-.12.37-.11.36-.11.36-.1.36-.1.36-.1.37-.09.36-.08.36-.08.36-.06.36-.06.37-.04.36-.04.36-.02.36-.02h.36l.37.01.36.01.36.03.36.03.37.03.36.04.36.05.36.04.36.04.37.03.36.03.36.03.36.01h.36l.37-.01.36-.02.36-.04.36-.06.36-.07.37-.08.36-.1.36-.12.36-.12.36-.14.37-.15.36-.15.36-.15.36-.16.37-.15.36-.14.36-.13.36-.12.36-.1.37-.08.36-.05.36-.03.36.01.36.03.37.07.36.11.36.13.36.18.36.2.37.24.36.27.36.29.36.31.37.34.36.35.36.36.36.37.36.37.37.37.36.37.36.35.36.35.36.33.37.31.36.29.36.27.36.25.36.22.37.19.36.16.36.13.36.1.36.07.37.03h.36l.36-.04.36-.08.37-.11.36-.15.36-.19.36-.22.36-.26.37-.29.36-.33.36-.36.36-.38.36-.41.37-.44.36-.45.36-.47.36-.48.36-.49.37-.49.36-.48.36-.48.36-.47.37-.45.36-.43.36-.4.36-.36.36-.33.37-.29.36-.24.36-.18.36-.14.36-.08.37-.02.36.04.36.1.36.16.36.21.37.26.36.31.36.35.36.39.36.41.37.42.36.43.36.42.36.41.37.38.36.34.36.3.36.25.36.19.37.14.36.08.36.02.36-.03.36-.07.37-.12.36-.16.36-.18.36-.2.36-.21.37-.21.36-.22.36-.2.36-.19.37-.18.36-.16.36-.14.36-.12.36-.1.37-.09.36-.07.36-.06.36-.05.36-.04.37-.03.36-.01h.36l.36.02.36.03.37.06.36.08.36.11.36.12.37.15.36.15.36.17.36.15.36.14.37.11.36.06h.36l.36-.06.36-.14.37-.22.36-.28.36-.34.36-.37.36-.37.37-.34.36-.29.36-.2.36-.1.36.01.37.09.36.14.36.12.36.05.37-.07.36-.21.36-.32.36-.41.36-.53.37-.65.36-.68.36-.46"/><use xlink:href="#b6947__b" transform="matrix(3.75 0 0 3.75 353.89 100.43)"/><use xlink:href="#b6947__b" transform="matrix(3.75 0 0 3.75 89.85 7.51)"/></g><text stroke-linecap="round" stroke-linejoin="round" color="#000" font-family="KaTeX_Main" font-size="8" transform="translate(110.4 25.11)"><tspan>RedBlackBottomUp</tspan></text><g fill="none" stroke="currentColor" stroke-linecap="round" stroke-linejoin="round" color="#000"><path stroke="#F44336" d="M74.9 22.51h29.9M28 141.3l.36-.09.36-.11.37-.16.36-.19.36-.22.36-.26.36-.27.37-.3.36-.31.36-.31.36-.3.37-.3.36-.29.36-.27.36-.25.36-.23.37-.21.36-.19.36-.17.36-.15.36-.12.37-.09.36-.07.36-.04.36-.01.36.03.37.05.36.09.36.12.36.14.36.18.37.19.36.21.36.21.36.23.37.22.36.22.36.21.36.19.36.17.37.15.36.12.36.1.36.08.36.05.37.03.36.01.36-.01.36-.02.36-.03.37-.04.36-.05.36-.04.36-.05.37-.05.36-.04.36-.04.36-.03.36-.02.37-.02.36-.01.36-.01h.36l.36.01h.73l.36.01h.36l.36-.01.37-.02.36-.02.36-.03.36-.05.37-.05.36-.07.36-.08.36-.09.36-.11.37-.11.36-.13.36-.13.36-.15.36-.15.37-.15.36-.16.36-.16.36-.16.36-.16.37-.16.36-.16.36-.16.36-.14.36-.15.37-.13.36-.12.36-.11.36-.1.37-.08.36-.07.36-.05.36-.03.36-.02.37.01.36.03.36.05.36.07.36.08.37.11.36.12.36.13.36.15.36.16.37.16.36.18.36.17.36.18.37.18.36.17.36.18.36.16.36.16.37.16.36.14.36.14.36.13.36.12.37.11.36.1.36.1.36.09.36.07.37.08.36.06.36.06.36.05.36.05.37.04.36.04.36.03.36.03.37.02.36.02.36.02.36.01.36.02.37.01.36.01.36.01.36.01.36.01.37.02.36.02.36.02.36.03.36.03.37.04.36.04.36.05.36.05.37.06.36.07.36.07.36.07.36.07.37.08.36.08.36.07.36.08.36.07.37.07.36.06.36.06.36.05.36.04.37.04.36.02.36.01.36.01.36-.01.37-.01.36-.03.36-.03.36-.05.37-.05.36-.05.36-.07.36-.07.36-.08.37-.08.36-.08.36-.09.36-.08.36-.09.37-.08.36-.09.36-.08.36-.08.36-.08.37-.08.36-.06.36-.07.36-.06.37-.05.36-.05.36-.04.36-.04.36-.03.37-.02.36-.02.36-.02.36-.01h.36l.37-.01h.36l.36.01h.36l.36.01h.37l.36.01h1.09l.36-.01.36-.01.36-.01.36-.03.37-.02.36-.04.36-.03.36-.05.36-.05.37-.05.36-.06.36-.06.36-.06.36-.07.37-.06.36-.06.36-.07.36-.06.36-.06.37-.05.36-.05.36-.04.36-.04.37-.03.36-.03.36-.01.36-.02.36-.01h.73l.36.01h.36l.36.01.37.01.36.01.36.01h.36l.36.01.37-.01h.36l.36-.01.36-.02.37-.02.36-.03.36-.04.36-.04.36-.04.37-.05.36-.06.36-.06.36-.06.36-.06.37-.06.36-.06.36-.06.36-.05.36-.05.37-.04.36-.04.36-.03.36-.02.36-.02h.73l.36.02.36.02.37.04.36.04.36.05.36.05.36.07.37.07.36.07.36.08.36.08.36.08.37.08.36.08.36.08.36.07.36.07.37.06.36.06.36.05.36.04.37.03.36.03.36.02.36.01h.36l.37-.01.36-.02.36-.02.36-.03.36-.04.37-.04.36-.05.36-.05.36-.05.36-.06.37-.06.36-.06.36-.07.36-.06.36-.06.37-.06.36-.06.36-.06.36-.06.37-.05.36-.05.36-.05.36-.05.36-.04.37-.04.36-.04.36-.03.36-.03.36-.03.37-.03.36-.02.36-.02.36-.02.36-.01.37-.01.36-.01h.72l.37.01.36.01.36.01.36.02.36.03.37.03.36.04.36.05.36.05.36.06.37.06.36.07.36.08.36.08.36.09.37.09.36.1.36.1.36.11.37.11.36.11.36.11.36.12.36.12.37.12.36.11.36.12.36.11.36.11.37.11.36.11.36.1.36.09.36.09.37.09.36.08.36.07.36.07.36.06.37.06.36.05.36.04.36.04.37.04.36.02.36.03.36.01.36.02.37.01h1.08l.36-.01.37-.01.36-.01.36-.01.36-.02.36-.02.37-.03.36-.02.36-.03.36-.04.37-.03.36-.04.36-.04.36-.04.36-.05.37-.05.36-.05.36-.06.36-.06.36-.06.37-.06.36-.06.36-.07.36-.07.36-.07.37-.06.36-.07.36-.07.36-.06.36-.07.37-.06.36-.06.36-.05.36-.05.37-.05.36-.04.36-.04.36-.03.36-.03.37-.02.36-.01.36-.01.36-.01h.73l.36.01.36.01.36.02.36.02.37.02.36.02.36.02.36.03.37.02.36.03.36.02.36.03.36.02.37.02.36.02.36.03.36.01.36.02.37.02.36.01.36.02.36.01.36.01.37.01.36.01h1.45l.36-.01.36-.01.36-.01.37-.02.36-.03.36-.03.36-.04.36-.04.37-.05.36-.05.36-.07.36-.07.36-.08.37-.08.36-.1.36-.1.36-.1.36-.12.37-.11.36-.13.36-.13.36-.13.37-.13.36-.13.36-.14.36-.13.36-.13.37-.13.36-.12.36-.12.36-.12.36-.1.37-.1.36-.09.36-.09.36-.07.36-.07.37-.06.36-.05.36-.04.36-.03.37-.03.36-.02.36-.02.36-.01h.36l.37-.01h.72l.36.01h2.17l.37-.01h.36l.36-.01.36-.01.36-.01.37-.01.36-.01.36-.01.36-.01.37-.01h1.44l.37.01.36.02.36.01.36.03.36.03.37.03.36.04.36.04.36.05.36.06.37.05.36.06.36.06.36.07.37.06.36.06.36.07.36.06.36.06.37.06.36.06.36.05.36.05.36.05.37.04.36.04.36.03.36.03.36.02.37.02.36.01.36.01h1.09l.36-.01h.36l.36-.02.37-.01.36-.02.36-.02.36-.02.36-.02.37-.02.36-.02.36-.02.36-.02.36-.03.37-.02.36-.02.36-.02.36-.02.36-.02.37-.02.36-.01.36-.01.36-.02h.37l.36-.01h1.08l.37.01.36.02.36.02.36.02.36.04.37.03.36.05.36.05.36.05.36.07.37.07.36.08.36.08.36.1.37.1.36.1.36.12.36.11.36.13.37.13.36.13.36.14.36.14.36.15.37.14.36.15.36.15.36.14.36.15.37.14.36.14.36.14.36.13.36.12.37.12.36.11.36.11.36.09.37.09.36.07.36.07.36.06.36.04.37.04.36.02.36.01.36.01.36-.01.37-.01.36-.03.36-.03.36-.04.36-.05.37-.06.36-.06.36-.07.36-.07.37-.08.36-.08.36-.08.36-.09.36-.1.37-.09.36-.1.36-.11.36-.1.36-.11.37-.12.36-.12.36-.13.36-.13.36-.13.37-.14.36-.15.36-.16.36-.16.36-.16.37-.18.36-.17.36-.18.36-.19.37-.18.36-.19.36-.19.36-.19.36-.18.37-.18.36-.18.36-.16.36-.16.36-.15.37-.13.36-.12.36-.1.36-.09.36-.07.37-.05.36-.03.36-.01.36.01.37.03.36.05.36.07.36.09.36.1.37.13.36.14.36.16.36.17.36.19.37.19.36.21.36.22.36.22.36.23.37.23.36.24.36.23.36.23.36.23.37.22.36.22.36.2.36.19.37.18.36.17.36.15.36.13.36.11.37.09.36.07.36.05.36.03.36.01.37-.02.36-.04.36-.05.36-.08.36-.09.37-.11.36-.12.36-.14.36-.14.37-.15.36-.16.36-.15.36-.16.36-.15.37-.15.36-.14.36-.13.36-.11.36-.11.37-.08.36-.07.36-.06.36-.03.36-.01h.37l.36.02.36.04.36.05.37.06.36.08.36.09.36.09.36.09.37.1.36.09.36.09.36.08.36.07.37.06.36.05.36.03.36.02h.36l.37-.01.36-.02.36-.04.36-.05.36-.06.37-.07.36-.07.36-.08.36-.08.37-.08.36-.07.36-.08.36-.07.36-.07.37-.06.36-.05.36-.05.36-.05.36-.04.37-.04.36-.03.36-.03.36-.02.36-.03.37-.02.36-.02.36-.01.36-.02h.37l.36-.01.36.01.36.01.36.02.37.03.36.04.36.06.36.06.36.08.37.08.36.1.36.1.36.12.36.11.37.13.36.12.36.13.36.13.36.12.37.12.36.12.36.11.36.1.37.1.36.09.36.08.36.08.36.07.37.06.36.06.36.06.36.05.36.05.37.05.36.05.36.05.36.05.36.05.37.04.36.03.36.03.36.02.37.01.36-.01.36-.02.36-.05.36-.07.37-.09.36-.12.36-.14.36-.17.36-.19.37-.21.36-.22.36-.23.36-.23.36-.22.37-.22.36-.19.36-.17.36-.15.36-.1.37-.07.36-.03.36.01.36.05.37.09.36.13.36.16.36.19.36.21.37.24.36.24.36.25.36.26.36.25.37.25.36.24.36.22.36.2.36.18.37.16.36.12.36.08.36.05h.37l.36-.04.36-.1.36-.14.36-.2.37-.24.36-.3.36-.33.36-.37.36-.39.37-.4.36-.4.36-.4.36-.37.36-.35.37-.33.36-.3.36-.28.36-.28.37-.3.36-.33.36-.37.36-.42.36-.46.37-.47.36-.46.36-.38.36-.27.36-.08.37.13.36.37.36.61.36.84.36 1 .37 1.11.36 1.14.36 1.09.36.98.36.78.37.52.36.21.36-.09.36-.32.37-.39.36-.29.36-.04.36.27.36.69.37 1.32.36 2.13.36 1.77"/><use xlink:href="#b6947__a" color="#F44336" transform="matrix(3.75 0 0 3.75 67.83 136.08)"/><use xlink:href="#b6947__a" color="#F44336" transform="matrix(3.75 0 0 3.75 89.85 22.51)"/></g><text stroke-linecap="round" stroke-linejoin="round" color="#000" font-family="KaTeX_Main" font-size="8" transform="translate(241.1 10.11)"><tspan>AVLWeakBottomUp</tspan></text><g fill="none" stroke="currentColor" stroke-linecap="round" stroke-linejoin="round" color="#000"><path stroke="#00C853" d="M205.6 7.51h29.9M28 127.53l.36.26.36.25.37.25.36.22.36.18.36.13.36.08.37.01.36-.05.36-.11.36-.16.37-.2.36-.23.36-.23.36-.23.36-.21.37-.17.36-.13.36-.08.36-.02.36.04.37.09.36.15.36.19.36.24.36.27.37.3.36.32.36.32.36.33.36.32.37.31.36.29.36.27.36.24.37.21.36.18.36.13.36.1.36.06.37.01.36-.02.36-.07.36-.1.36-.14.37-.17.36-.19.36-.21.36-.22.36-.23.37-.23.36-.23.36-.21.36-.19.37-.17.36-.15.36-.11.36-.09.36-.05.37-.03h.36l.36.03.36.04.36.05.37.06.36.06.36.05.36.05.36.03h.37l.36-.02.36-.04.36-.08.37-.1.36-.14.36-.17.36-.19.36-.22.37-.24.36-.26.36-.28.36-.28.36-.29.37-.3.36-.29.36-.29.36-.27.36-.27.37-.25.36-.24.36-.22.36-.2.36-.18.37-.16.36-.14.36-.12.36-.09.37-.08.36-.05.36-.04.36-.01h.36l.37.03.36.04.36.06.36.08.36.1.37.11.36.13.36.14.36.16.36.17.37.19.36.2.36.2.36.22.37.23.36.23.36.23.36.25.36.24.37.24.36.25.36.24.36.24.36.24.37.24.36.23.36.23.36.22.36.22.37.21.36.21.36.2.36.19.36.19.37.18.36.17.36.16.36.15.37.14.36.13.36.12.36.1.36.09.37.08.36.06.36.04.36.03.36.01h.37l.36-.02.36-.03.36-.04.36-.06.37-.06.36-.07.36-.08.36-.08.37-.08.36-.09.36-.08.36-.09.36-.08.37-.07.36-.08.36-.07.36-.06.36-.06.37-.06.36-.06.36-.05.36-.06.36-.05.37-.06.36-.06.36-.07.36-.07.36-.08.37-.09.36-.09.36-.11.36-.1.37-.12.36-.12.36-.13.36-.13.36-.13.37-.13.36-.14.36-.13.36-.12.36-.12.37-.11.36-.1.36-.09.36-.08.36-.07.37-.06.36-.04.36-.03.36-.02.37-.01.36.01.36.01.36.02.36.04.37.03.36.05.36.05.36.04.36.05.37.05.36.05.36.04.36.05.36.03.37.03.36.03.36.01.36.02h1.09l.36-.02.36-.01.37-.02.36-.02.36-.03.36-.02.36-.03.37-.03.36-.03.36-.03.36-.03.36-.02.37-.03.36-.02.36-.02.36-.03.36-.02.37-.02.36-.02.36-.02.36-.03.37-.02.36-.03.36-.02.36-.03.36-.04.37-.03.36-.04.36-.05.36-.04.36-.05.37-.05.36-.05.36-.05.36-.05.36-.05.37-.05.36-.05.36-.05.36-.04.37-.04.36-.03.36-.03.36-.02.36-.02.37-.01h.72l.36.01.36.02.37.03.36.03.36.04.36.04.36.06.37.05.36.06.36.06.36.07.36.07.37.07.36.06.36.07.36.07.37.07.36.06.36.06.36.05.36.05.37.05.36.03.36.04.36.02.36.02.37.01.36.01.36-.01h.36l.36-.02.37-.02.36-.03.36-.03.36-.04.37-.04.36-.05.36-.05.36-.05.36-.05.37-.05.36-.05.36-.05.36-.05.36-.05.37-.04.36-.04.36-.04.36-.03.36-.03.37-.02.36-.01.36-.01.36-.01h.36l.37.01.36.01.36.02.36.02.37.02.36.03.36.04.36.04.36.04.37.04.36.05.36.04.36.05.36.05.37.05.36.05.36.05.36.05.36.04.37.05.36.04.36.04.36.04.37.03.36.03.36.03.36.02.36.01.37.02.36.01h.72l.36-.01h.37l.36-.02.36-.01.36-.02.36-.03.37-.02.36-.03.36-.03.36-.04.37-.03.36-.04.36-.03.36-.04.36-.03.37-.04.36-.03.36-.03.36-.04.36-.02.37-.03.36-.03.36-.02.36-.03.36-.02.37-.02.36-.01.36-.02.36-.01.36-.02.37-.01.36-.01.36-.01.36-.01.37-.01.36-.01.36-.01.36-.02.36-.01.37-.02.36-.01.36-.02.36-.03.36-.02.37-.03.36-.02.36-.03.36-.04.36-.03.37-.04.36-.04.36-.04.36-.04.37-.04.36-.03.36-.04.36-.04.36-.03.37-.04.36-.03.36-.02.36-.02.36-.01.37-.01h.72l.36.02.36.02.37.03.36.03.36.05.36.05.36.07.37.07.36.08.36.08.36.1.37.1.36.1.36.11.36.12.36.11.37.12.36.12.36.12.36.12.36.11.37.11.36.11.36.1.36.09.36.08.37.08.36.07.36.05.36.05.37.03.36.03.36.01h.36l.36-.01.37-.03.36-.03.36-.04.36-.05.36-.06.37-.07.36-.08.36-.08.36-.09.36-.09.37-.1.36-.1.36-.1.36-.1.37-.1.36-.1.36-.09.36-.1.36-.08.37-.09.36-.08.36-.07.36-.06.36-.06.37-.05.36-.04.36-.03.36-.01.36-.01h.37l.36.02.36.02.36.04.36.05.37.07.36.07.36.09.36.1.37.11.36.11.36.13.36.14.36.14.37.15.36.15.36.16.36.16.36.16.37.16.36.15.36.16.36.14.36.14.37.13.36.12.36.11.36.1.37.09.36.07.36.05.36.04.36.03.37.01.36-.01.36-.02.36-.04.36-.05.37-.07.36-.08.36-.09.36-.11.36-.11.37-.13.36-.14.36-.14.36-.15.36-.16.37-.16.36-.16.36-.16.36-.17.37-.16.36-.16.36-.16.36-.16.36-.15.37-.14.36-.13.36-.13.36-.12.36-.11.37-.09.36-.09.36-.07.36-.07.36-.05.37-.03.36-.03.36-.01h.36l.37.01.36.02.36.04.36.04.36.06.37.06.36.07.36.09.36.08.36.1.37.09.36.1.36.11.36.1.36.1.37.11.36.1.36.09.36.1.36.08.37.08.36.08.36.06.36.06.37.05.36.04.36.02.36.02.36.01h.37l.36-.01.36-.02.36-.03.36-.04.37-.04.36-.06.36-.06.36-.07.36-.07.37-.07.36-.08.36-.08.36-.08.37-.09.36-.08.36-.08.36-.08.36-.08.37-.07.36-.07.36-.07.36-.06.36-.06.37-.06.36-.04.36-.05.36-.04.36-.03.37-.04.36-.02.36-.03.36-.02.37-.02.36-.01.36-.01.36-.01.36-.01h1.09l.36.01.36.01.37.01.36.02.36.02.36.02.36.03.37.04.36.04.36.05.36.05.36.05.37.06.36.06.36.07.36.07.37.08.36.07.36.08.36.08.36.07.37.08.36.07.36.06.36.07.36.05.37.05.36.04.36.03.36.02.36.01h.37l.36-.02.36-.02.36-.03.37-.04.36-.06.36-.06.36-.07.36-.08.37-.09.36-.09.36-.09.36-.1.36-.1.37-.1.36-.1.36-.1.36-.09.36-.09.37-.08.36-.07.36-.07.36-.05.36-.05.37-.04.36-.02.36-.01.36-.01.37.01.36.02.36.03.36.04.36.05.37.05.36.06.36.07.36.08.36.07.37.08.36.09.36.08.36.08.36.08.37.09.36.07.36.08.36.07.37.06.36.06.36.06.36.05.36.04.37.03.36.03.36.03.36.01.36.01h.37l.36-.01.36-.02.36-.02.36-.03.37-.04.36-.04.36-.05.36-.06.36-.06.37-.07.36-.07.36-.07.36-.08.37-.08.36-.07.36-.08.36-.07.36-.07.37-.06.36-.06.36-.05.36-.04.36-.03.37-.02.36-.01.36.01.36.02.36.04.37.05.36.06.36.08.36.09.37.1.36.11.36.13.36.13.36.14.37.14.36.14.36.14.36.14.36.14.37.12.36.12.36.11.36.09.36.07.37.06.36.05.36.02h.36l.37-.01.36-.03.36-.06.36-.07.36-.08.37-.1.36-.12.36-.12.36-.14.36-.14.37-.15.36-.16.36-.15.36-.15.36-.15.37-.15.36-.13.36-.13.36-.12.36-.1.37-.09.36-.08.36-.06.36-.04.37-.03.36-.01.36.01.36.02.36.03.37.05.36.06.36.07.36.08.36.09.37.09.36.09.36.09.36.1.36.09.37.08.36.08.36.08.36.06.37.06.36.04.36.04.36.04.36.02.37.02.36.02.36.02.36.02.36.02.37.03.36.03.36.04.36.06.36.07.37.07.36.09.36.11.36.11.36.12.37.13.36.14.36.14.36.14.37.14.36.14.36.14.36.13.36.13.37.13.36.12.36.12.36.11.36.12.37.11.36.12.36.11.36.12.36.12.37.11.36.11.36.11.36.09.37.09.36.07.36.06.36.03.36.01.37-.01.36-.05.36-.07.36-.1.36-.13.37-.15.36-.18.36-.2.36-.23.36-.24.37-.25.36-.26.36-.28.36-.27.36-.28.37-.28.36-.29.36-.28.36-.29.37-.29.36-.29.36-.29.36-.31.36-.3.37-.31.36-.31.36-.3.36-.3.36-.27.37-.25.36-.22.36-.17.36-.12.36-.06.37.01.36.08.36.16.36.23.37.3.36.36.36.42.36.46.36.48.37.49.36.48.36.46.36.42.36.37.37.31.36.24.36.16.36.07h.36l.37-.09.36-.16.36-.23.36-.28.37-.32.36-.35.36-.36.36-.34.36-.32.37-.27.36-.21.36-.13.36-.03.36.09.37.2.36.33.36.43.36.49.36.49.37.44.36.33.36.2.36.05.36-.12.37-.28.36-.45.36-.6.36-.64.37-.47.36-.06.36.47.36.88.36.93.37 1.11.36 2.46.36 2.99"/><use xlink:href="#b6947__a" color="#00C853" transform="matrix(3.75 0 0 3.75 125.4 126.42)"/><use xlink:href="#b6947__a" color="#00C853" transform="matrix(3.75 0 0 3.75 220.55 7.51)"/></g><text stroke-linecap="round" stroke-linejoin="round" color="#000" font-family="KaTeX_Main" font-size="8" transform="translate(241.1 25.11)"><tspan>AVLWeakTopDown</tspan></text><g fill="none" stroke="currentColor" stroke-linecap="round" stroke-linejoin="round" color="#000"><path stroke="#FFAB00" stroke-dasharray="4.5,2.0,0.5,2.0,0.5,2.0" d="M205.6 22.51h29.9M28 109.33l.36-.48.36-.49.37-.5.36-.49.36-.47.36-.44.36-.4.37-.33.36-.28.36-.19.36-.12.37-.05.36.03.36.1.36.17.36.22.37.26.36.3.36.31.36.32.36.32.37.31.36.29.36.25.36.22.36.18.37.14.36.09.36.05.36.02.36-.03.37-.05.36-.08.36-.1.36-.11.37-.11.36-.12.36-.1.36-.1.36-.07.37-.06.36-.03h.36l.36.02.36.04.37.06.36.08.36.1.36.1.36.1.37.11.36.1.36.08.36.08.37.06.36.04.36.03.36.01h.36l.37-.02.36-.03.36-.04.36-.05.36-.05.37-.06.36-.07.36-.07.36-.09.36-.08.37-.1.36-.1.36-.12.36-.12.37-.13.36-.14.36-.14.36-.15.36-.15.37-.14.36-.13.36-.12.36-.1.36-.07.37-.05.36-.01.36.01.36.06.36.09.37.13.36.16.36.2.36.23.36.25.37.28.36.29.36.29.36.3.37.3.36.29.36.27.36.25.36.22.37.19.36.16.36.12.36.07.36.04.37-.01.36-.06.36-.09.36-.14.36-.18.37-.22.36-.25.36-.29.36-.32.37-.34.36-.35.36-.38.36-.38.36-.39.37-.4.36-.38.36-.38.36-.36.36-.35.37-.32.36-.3.36-.28.36-.24.36-.21.37-.17.36-.14.36-.11.36-.07.36-.04.37-.01.36.02.36.06.36.07.37.1.36.12.36.14.36.15.36.16.37.18.36.17.36.18.36.19.36.18.37.18.36.17.36.16.36.16.36.14.37.14.36.12.36.12.36.09.37.09.36.08.36.06.36.05.36.04.37.04.36.02.36.02.36.02.36.02.37.03.36.02.36.03.36.04.36.05.37.07.36.07.36.1.36.1.36.12.37.13.36.15.36.16.36.16.37.18.36.17.36.18.36.18.36.16.37.16.36.15.36.14.36.11.36.1.37.08.36.05.36.04.36.01.36-.01.37-.03.36-.05.36-.07.36-.07.37-.1.36-.09.36-.11.36-.1.36-.11.37-.1.36-.1.36-.08.36-.08.36-.07.37-.05.36-.04.36-.03.36-.01h.36l.37.01.36.02.36.03.36.03.37.04.36.04.36.04.36.04.36.03.37.02.36.01.36.01.36-.01.36-.03.37-.04.36-.06.36-.07.36-.09.36-.11.37-.12.36-.14.36-.15.36-.16.36-.17.37-.17.36-.19.36-.18.36-.19.37-.19.36-.18.36-.18.36-.17.36-.16.37-.15.36-.13.36-.12.36-.11.36-.09.37-.07.36-.05.36-.03.36-.02h.36l.37.02.36.03.36.05.36.06.37.08.36.08.36.09.36.11.36.1.37.11.36.11.36.12.36.11.36.11.37.1.36.11.36.09.36.09.36.08.37.08.36.06.36.07.36.05.36.05.37.04.36.04.36.03.36.03.37.02.36.03.36.02.36.02.36.02.37.02.36.02.36.02.36.03.36.02.37.03.36.03.36.03.36.03.36.03.37.03.36.04.36.03.36.03.37.04.36.03.36.03.36.03.36.03.37.03.36.03.36.02.36.03.36.02.37.03.36.02.36.03.36.02.36.03.37.02.36.03.36.03.36.03.36.04.37.04.36.04.36.05.36.05.37.06.36.06.36.06.36.07.36.07.37.08.36.07.36.08.36.08.36.09.37.08.36.08.36.07.36.08.36.07.37.06.36.06.36.05.36.04.37.04.36.02.36.01.36.01.36-.01.37-.02.36-.03.36-.04.36-.06.36-.06.37-.07.36-.08.36-.09.36-.09.36-.09.37-.1.36-.1.36-.09.36-.1.37-.09.36-.08.36-.08.36-.07.36-.06.37-.05.36-.03.36-.03.36-.01h.36l.37.02.36.03.36.04.36.05.36.06.37.07.36.08.36.08.36.1.36.09.37.1.36.09.36.1.36.09.37.09.36.08.36.08.36.07.36.06.37.05.36.04.36.04.36.02.36.02h.73l.36-.01.36-.01.36-.03.37-.02.36-.03.36-.03.36-.03.37-.03.36-.04.36-.02.36-.03.36-.03.37-.02.36-.02.36-.01.36-.01.36-.01.37-.01.36-.01h.36l.36-.01.36-.01.37-.01.36-.01.36-.02.36-.02.36-.03.37-.04.36-.04.36-.06.36-.06.37-.07.36-.09.36-.09.36-.1.36-.12.37-.12.36-.13.36-.14.36-.15.36-.15.37-.16.36-.16.36-.17.36-.17.36-.17.37-.16.36-.17.36-.17.36-.16.37-.16.36-.16.36-.15.36-.14.36-.14.37-.13.36-.13.36-.11.36-.11.36-.1.37-.09.36-.08.36-.07.36-.06.36-.05.37-.03.36-.03.36-.02.36-.01.37.01.36.02.36.02.36.04.36.05.37.06.36.07.36.08.36.09.36.1.37.1.36.11.36.11.36.12.36.12.37.12.36.12.36.12.36.12.36.11.37.11.36.1.36.09.36.08.37.07.36.06.36.05.36.04.36.02.37.02h.72l.36-.02.36-.03.37-.04.36-.04.36-.05.36-.06.36-.06.37-.06.36-.06.36-.06.36-.06.37-.06.36-.05.36-.05.36-.04.36-.03.37-.02.36-.02h.72l.36.02.37.02.36.03.36.05.36.05.36.06.37.06.36.07.36.08.36.08.36.08.37.08.36.09.36.08.36.09.37.08.36.08.36.08.36.07.36.07.37.06.36.06.36.06.36.05.36.05.37.05.36.04.36.05.36.04.36.04.37.04.36.04.36.04.36.05.37.05.36.05.36.06.36.05.36.07.37.06.36.08.36.07.36.08.36.08.37.08.36.09.36.08.36.09.36.08.37.08.36.08.36.07.36.07.36.06.37.05.36.04.36.04.36.02.37.01h.36l.36-.01.36-.02.36-.03.37-.04.36-.04.36-.06.36-.06.36-.07.37-.07.36-.08.36-.07.36-.08.36-.08.37-.07.36-.07.36-.06.36-.06.37-.05.36-.05.36-.05.36-.03.36-.03.37-.03.36-.03.36-.02.36-.02.36-.02.37-.02.36-.03.36-.03.36-.04.36-.05.37-.06.36-.07.36-.08.36-.1.37-.11.36-.13.36-.15.36-.16.36-.18.37-.19.36-.21.36-.23.36-.24.36-.26.37-.26.36-.28.36-.28.36-.29.36-.3.37-.3.36-.29.36-.3.36-.29.36-.29.37-.28.36-.27.36-.26.36-.25.37-.23.36-.22.36-.2.36-.19.36-.17.37-.15.36-.13.36-.12.36-.09.36-.08.37-.05.36-.04.36-.01h.36l.36.03.37.05.36.07.36.09.36.11.37.13.36.16.36.18.36.21.36.23.37.25.36.28.36.3.36.32.36.34.37.37.36.38.36.4.36.42.36.43.37.44.36.45.36.45.36.46.36.46.37.45.36.45.36.45.36.43.37.41.36.4.36.39.36.36.36.34.37.32.36.3.36.27.36.25.36.22.37.2.36.17.36.16.36.13.36.11.37.08.36.08.36.05.36.04.37.02.36.01h.36l.36-.01.36-.02.37-.03.36-.04.36-.04.36-.04.36-.05.37-.05.36-.06.36-.05.36-.05.36-.06.37-.05.36-.05.36-.05.36-.05.36-.05.37-.04.36-.05.36-.04.36-.05.37-.04.36-.05.36-.04.36-.06.36-.06.37-.06.36-.07.36-.08.36-.09.36-.1.37-.11.36-.12.36-.14.36-.14.36-.15.37-.16.36-.16.36-.16.36-.17.37-.16.36-.16.36-.14.36-.14.36-.11.37-.1.36-.08.36-.05.36-.03.36-.01.37.03.36.05.36.07.36.1.36.12.37.13.36.15.36.17.36.17.37.17.36.17.36.16.36.16.36.13.37.12.36.1.36.07.36.05.36.01.37-.01.36-.05.36-.07.36-.1.36-.14.37-.15.36-.18.36-.2.36-.21.36-.23.37-.24.36-.25.36-.25.36-.26.37-.25.36-.24.36-.24.36-.23.36-.22.37-.21.36-.2.36-.18.36-.17.36-.15.37-.13.36-.12.36-.1.36-.09.36-.06.37-.05.36-.03.36-.02h.36l.37.02.36.03.36.05.36.06.36.06.37.08.36.09.36.09.36.1.36.1.37.11.36.11.36.12.36.11.36.13.37.12.36.13.36.13.36.13.36.13.37.13.36.13.36.12.36.11.37.1.36.08.36.07.36.04.36.01.37-.01.36-.05.36-.08.36-.11.36-.14.37-.17.36-.2.36-.21.36-.23.36-.24.37-.24.36-.24.36-.23.36-.22.37-.21.36-.18.36-.17.36-.14.36-.13.37-.1.36-.08.36-.07.36-.04.36-.02h.37l.36.02.36.05.36.08.36.12.37.16.36.21.36.25.36.31.36.35.37.39.36.43.36.44.36.46.37.45.36.43.36.38.36.32.36.25.37.17.36.06.36-.04.36-.14.36-.25.37-.35.36-.43.36-.52.36-.59.36-.63.37-.68.36-.7.36-.72.36-.72.37-.73.36-.71.36-.7.36-.68.36-.66.37-.63.36-.6.36-.54.36-.48.36-.4.37-.29.36-.17.36-.02.36.11.36.27.37.41.36.52.36.6.36.64.37.62.36.57.36.47.36.33.36.19.37.04.36-.07.36-.13.36-.13.36-.07.37.07.36.26.36.47.36.69.36.88.37.98.36.98.36.85.36.53.36.03.37-.67.36-1.46.36-2.17.36-2.55.37-2.26.36-1.17.36.71.36 2.95.36 4.57.37 3.75.36-.77.36-3.35"/><use xlink:href="#b6947__c" color="#FFAB00" transform="matrix(3.75 0 0 3.75 182.98 109.63)"/><use xlink:href="#b6947__c" color="#FFAB00" transform="matrix(3.75 0 0 3.75 220.55 22.51)"/></g><path fill="none" d="M28 45.01V162.5M371.99 45.01H28" color="#000"/></svg>