<svg xmlns="http://www.w3.org/2000/svg" xmlns:xlink="http://www.w3.org/1999/xlink" viewBox="0 0 400 200"><path fill="none" d="M0 0h400v200H0z"/><defs><use xlink:href="#0137d__a" id="0137d__g" fill="currentColor" stroke="none"/><use xlink:href="#0137d__b" id="0137d__c" stroke="currentColor" transform="rotate(180)"/><use xlink:href="#0137d__c" id="0137d__f" fill="currentColor" stroke="none"/><use xlink:href="#0137d__d" id="0137d__e" stroke="currentColor" transform="rotate(45)"/><use xlink:href="#0137d__e" id="0137d__h" fill="currentColor" stroke="none"/><path id="0137d__d" stroke="currentColor" stroke-width=".267" d="M-1-1h2v2h-2z"/><path id="0137d__b" stroke="currentColor" stroke-width=".267" d="m0-1.33-1.33 2h2.66z"/><path id="0137d__i" stroke="currentColor" stroke-width=".267" d="M0 1.33 1.265.411.782-1.067l-1.564-.009-.483 1.487z"/><circle id="0137d__a" cx="0" cy="0" r="1" stroke="currentColor" stroke-width=".267"/></defs><path fill="none" stroke="#CCC" stroke-linecap="round" stroke-linejoin="round" stroke-width=".1" d="M46.1 162.5V75.01" class="0137d__gridline" color="#000"/><g fill="none" stroke-linecap="round" stroke-linejoin="round" stroke-width="0" color="#000"><path d="M46.1 162.5V155m0-79.99v7.5"/><text fill="#000" font-family="KaTeX_Main" font-size="8" text-anchor="middle" transform="translate(46.1 172.6)"><tspan> 1</tspan></text></g><path fill="none" stroke="#CCC" stroke-linecap="round" stroke-linejoin="round" stroke-width=".1" d="M82.31 162.5V75.01" class="0137d__gridline" color="#000"/><g fill="none" stroke-linecap="round" stroke-linejoin="round" stroke-width="0" color="#000"><path d="M82.31 162.5V155m0-79.99v7.5"/><text fill="#000" font-family="KaTeX_Main" font-size="8" text-anchor="middle" transform="translate(82.31 172.6)"><tspan> 2</tspan></text></g><path fill="none" stroke="#CCC" stroke-linecap="round" stroke-linejoin="round" stroke-width=".1" d="M118.52 162.5V75.01" class="0137d__gridline" color="#000"/><g fill="none" stroke-linecap="round" stroke-linejoin="round" stroke-width="0" color="#000"><path d="M118.52 162.5V155m0-79.99v7.5"/><text fill="#000" font-family="KaTeX_Main" font-size="8" text-anchor="middle" transform="translate(118.52 172.6)"><tspan> 3</tspan></text></g><path fill="none" stroke="#CCC" stroke-linecap="round" stroke-linejoin="round" stroke-width=".1" d="M154.73 162.5V75.01" class="0137d__gridline" color="#000"/><g fill="none" stroke-linecap="round" stroke-linejoin="round" stroke-width="0" color="#000"><path d="M154.73 162.5V155m0-79.99v7.5"/><text fill="#000" font-family="KaTeX_Main" font-size="8" text-anchor="middle" transform="translate(154.73 172.6)"><tspan> 4</tspan></text></g><path fill="none" stroke="#CCC" stroke-linecap="round" stroke-linejoin="round" stroke-width=".1" d="M190.94 162.5V75.01" class="0137d__gridline" color="#000"/><g fill="none" stroke-linecap="round" stroke-linejoin="round" stroke-width="0" color="#000"><path d="M190.94 162.5V155m0-79.99v7.5"/><text fill="#000" font-family="KaTeX_Main" font-size="8" text-anchor="middle" transform="translate(190.94 172.6)"><tspan> 5</tspan></text></g><path fill="none" stroke="#CCC" stroke-linecap="round" stroke-linejoin="round" stroke-width=".1" d="M227.15 162.5V75.01" class="0137d__gridline" color="#000"/><g fill="none" stroke-linecap="round" stroke-linejoin="round" stroke-width="0" color="#000"><path d="M227.15 162.5V155m0-79.99v7.5"/><text fill="#000" font-family="KaTeX_Main" font-size="8" text-anchor="middle" transform="translate(227.15 172.6)"><tspan> 6</tspan></text></g><path fill="none" stroke="#CCC" stroke-linecap="round" stroke-linejoin="round" stroke-width=".1" d="M263.36 162.5V75.01" class="0137d__gridline" color="#000"/><g fill="none" stroke-linecap="round" stroke-linejoin="round" stroke-width="0" color="#000"><path d="M263.36 162.5V155m0-79.99v7.5"/><text fill="#000" font-family="KaTeX_Main" font-size="8" text-anchor="middle" transform="translate(263.36 172.6)"><tspan> 7</tspan></text></g><path fill="none" stroke="#CCC" stroke-linecap="round" stroke-linejoin="round" stroke-width=".1" d="M299.57 162.5V75.01" class="0137d__gridline" color="#000"/><g fill="none" stroke-linecap="round" stroke-linejoin="round" stroke-width="0" color="#000"><path d="M299.57 162.5V155m0-79.99v7.5"/><text fill="#000" font-family="KaTeX_Main" font-size="8" text-anchor="middle" transform="translate(299.57 172.6)"><tspan> 8</tspan></text></g><path fill="none" stroke="#CCC" stroke-linecap="round" stroke-linejoin="round" stroke-width=".1" d="M335.78 162.5V75.01" class="0137d__gridline" color="#000"/><g fill="none" stroke-linecap="round" stroke-linejoin="round" stroke-width="0" color="#000"><path d="M335.78 162.5V155m0-79.99v7.5"/><text fill="#000" font-family="KaTeX_Main" font-size="8" text-anchor="middle" transform="translate(335.78 172.6)"><tspan> 9</tspan></text></g><path fill="none" stroke="#CCC" stroke-linecap="round" stroke-linejoin="round" stroke-width=".1" d="M371.99 162.5V75.01" class="0137d__gridline" color="#000"/><g fill="none" stroke-linecap="round" stroke-linejoin="round" stroke-width="0" color="#000"><path d="M371.99 162.5V155m0-79.99v7.5"/><text fill="#000" font-family="KaTeX_Main" font-size="8" text-anchor="middle" transform="translate(371.99 172.6)"><tspan> 10</tspan></text></g><g fill="none" stroke-linecap="round" stroke-linejoin="round" stroke-width="0" color="#000"><path d="M371.99 162.5h-7.5"/><text fill="#000" font-family="KaTeX_Main" font-size="8" transform="translate(378.99 165.1)"><tspan>2.00</tspan></text></g><g fill="none" stroke-linecap="round" stroke-linejoin="round" stroke-width="0" color="#000"><path d="M371.99 150h-7.5"/><text fill="#000" font-family="KaTeX_Main" font-size="8" transform="translate(378.99 152.6)"><tspan>4.00</tspan></text></g><g fill="none" stroke-linecap="round" stroke-linejoin="round" stroke-width="0" color="#000"><path d="M371.99 137.5h-7.5"/><text fill="#000" font-family="KaTeX_Main" font-size="8" transform="translate(378.99 140.1)"><tspan>6.00</tspan></text></g><g fill="none" stroke-linecap="round" stroke-linejoin="round" stroke-width="0" color="#000"><path d="M371.99 125h-7.5"/><text fill="#000" font-family="KaTeX_Main" font-size="8" transform="translate(378.99 127.6)"><tspan>8.00</tspan></text></g><g fill="none" stroke-linecap="round" stroke-linejoin="round" stroke-width="0" color="#000"><path d="M371.99 112.51h-7.5"/><text fill="#000" font-family="KaTeX_Main" font-size="8" transform="translate(378.99 115.11)"><tspan>10.00</tspan></text></g><g fill="none" stroke-linecap="round" stroke-linejoin="round" stroke-width="0" color="#000"><path d="M371.99 100.01h-7.5"/><text fill="#000" font-family="KaTeX_Main" font-size="8" transform="translate(378.99 102.61)"><tspan>12.00</tspan></text></g><g fill="none" stroke-linecap="round" stroke-linejoin="round" stroke-width="0" color="#000"><path d="M371.99 87.51h-7.5"/><text fill="#000" font-family="KaTeX_Main" font-size="8" transform="translate(378.99 90.11)"><tspan>14.00</tspan></text></g><g fill="none" stroke-linecap="round" stroke-linejoin="round" stroke-width="0" color="#000"><path d="M371.99 75.01h-7.5"/><text fill="#000" font-family="KaTeX_Main" font-size="8" transform="translate(378.99 77.61)"><tspan>16.00</tspan></text></g><path fill="none" d="M28 75.01v87.49m343.99-87.49H28" color="#000"/><text stroke-linecap="round" stroke-linejoin="round" stroke-width="0" color="#000" font-family="KaTeX_Main" font-size="10" text-anchor="middle" transform="rotate(-90 65.13 53.63)"><tspan font-weight="bold">Duration </tspan><tspan> in milliseconds</tspan></text><text stroke-linecap="round" stroke-linejoin="round" stroke-width="0" color="#000" font-family="KaTeX_Main" font-size="10" text-anchor="middle" transform="translate(199.99 195.75)"><tspan>Operations / 10</tspan><tspan dy="-5" font-size="8">6</tspan></text><text stroke-linecap="round" stroke-linejoin="round" color="#000" font-family="KaTeX_Main" font-size="8" transform="translate(76.8 10.11)"><tspan>AVLTopDown</tspan></text><g fill="none" stroke="currentColor" stroke-linecap="round" stroke-linejoin="round" color="#000"><path stroke="#29C3F6" stroke-dasharray="2.5,4.0" d="M41.3 7.51h29.9M28 155.63l.36-1.57.36-.07.37 1 .36-1.53.36.03.36.99.36-1.28.37.88.36-1.35.36 1.07.36-1.36.37 1.13.36-1.47.36-.1.36 1.05.36-1.43.37 1.11.36-1.34.36.99.36-1.5.36-.14.37 1.13.36-1.46.36 1.18.36-1.42.36-.07.37.88.36-1.28.36 1.06.36-1.4.36 1.19.37-1.45.36 1.23.36-1.51.36-.11.37 1.03.36-1.25.36 1.03.36-1.49.36-.04.37.92.36-1.36.36 1.17.36-1.29.36 1.16.37-1.38.36 1.31.36-1.57.36-.07.36 1.11.37-1.33.36 1.12.36-1.29.36 1.09.37-1.57.36-.17.36 1.21.36-1.23.36 1.03.37-1.42.36.1.36 1.01.36-1.32.36 1.02.37-1.27.36 1.16.36-1.52.36 1.23.36-1.43.37-.01.36.9.36-1.29.36-.17.37 1.06.36-1.16.36 1.08.36-1.41.36 1.23.37-1.42.36 1.18.36-1.24.36-.03.36.98.37-1.19.36.89.36-1.18.36 1.11.36-1.15.37 1.06.36-1.33.36-.16.36 1.3.36-1.39.37 1.26.36-1.34.36-.01.36 1.05.37-1.26.36.94.36-1.28.36 1.29.36-1.32.37 1.11.36-1.28.36-.01.36 1.01.36-1.25.37-.07.36 1.04.36-1.2.36 1.12.36-1.28.37 1.22.36-1.33.36 1.17.36-1.31.37-.01.36.83.36-1.18.36 1.05.36-1.26.37 1.3.36-1.33.36 1.24.36-1.32.36-.07.37 1.15.36-1.25.36-.05.36 1.05.36-1.17.37.95.36-1.21.36 1.19.36-1.31.36 1.17.37-1.24.36 1.14.36-1.38.36.15.37 1.04.36-1.26.36-.08.36 1.06.36-1.15.37 1.16.36-1.31.36 1.18.36-1.23.36 1.14.37-1.29.36.03.36 1.08.36-1.25.36 1.12.37-1.28.36 1.01.36-1.14.36 1.23.37-1.33h.36l.36 1.21.36-1.33.36.04.37 1.07.36-1.22.36.98.36-1.15.36 1.11.37-1.19.36 1.25.36-1.34.36-.01.36 1.09.37-1.24.36 1.11.36-1.21.36-.07.36 1.13.37-1.34.36 1.21.36-1.2.36 1.16.37-1.35.36 1.07.36-1.21.36.17.36 1.1.37-1.26.36.99.36-1.15.36 1.19.36-1.33.37 1.2.36-1.23.36-.1.36 1.22.36-1.27.37.03.36 1.04.36-1.2.36 1.08.37-1.27.36 1.15.36-1.21.36 1.17.36-1.17.37-.02.36 1.01.36-1.05.36.93.36-1.29.37.07.36 1.19.36-1.17.36 1.14.36-1.22.37 1.1.36-1.24.36-.01.36.95.37-1.07.36 1.13.36-1.17.36 1.06.36-1.17.37 1.11.36-1.27.36 1.19.36-1.29.36-.09.37 1.36.36-1.47.36.08.36 1.08.36-1.12.37 1.13.36-1.19.36 1.16.36-1.29.36 1.22.37-1.27.36-.03.36 1.23.36-1.18.37 1.13.36-1.25.36-.12.36 1.29.36-1.19.37 1.11.36-1.4.36 1.16.36-1.08.36.04.37.99.36-1.21.36 1.1.36-1.11.36 1.04.37-1.24.36 1.13.36-1.21.36.01.37 1.04.36-1.15.36 1.18.36-1.26.36.04.37 1.03.36-1.15.36 1.22.36-1.34.36 1.07.37-1.16.36 1.12.36-1.4.36-.03.36 1.22.37-1.21.36 1.21.36-1.27.36-.12.36 1.32.37-1.29.36 1.31.36-1.31.36 1.15.37-1.23.36-.01.36 1.1.36-1.19.36 1.18.37-1.36.36 1.11.36-1.17.36 1.15.36-1.16.37.02.36 1.01.36-1.39.36.11.36 1.09.37-1.13.36 1.27.36-1.27.36 1.16.37-1.23.36 1.19.36-1.3.36-.09.36 1.05.37-1 .36 1.09.36-1.23.36 1.28.36-1.31.37.01.36 1.2.36-1.31.36 1.25.36-1.27.37 1.04.36-1.16.36.16.36 1.08.36-1.21.37 1.22.36-1.32.36 1.21.36-1.26.37 1 .36-1.04.36.04.36 1.1.36-1.19.37-.01.36 1.11.36-1.11.36.96.36-1.1.37 1.21.36-1.24.36 1.18.36-1.26.36.01.37 1.07.36-1.23.36 1.13.36-1.17.37 1.2.36-1.21.36-.03.36 1.19.36-1.28.37 1.16.36-1.26.36.12.36 1.08.36-1.17.37.98.36-1.2.36.97.36-1.11.36 1.26.37-1.32.36 1.25.36-1.25.36.02.37 1.14.36-1.18.36.04.36 1.14.36-1.23.37 1.18.36-1.19.36 1.17.36-1.22.36 1.25.37-1.45.36.06.36 1.1.36-1.12.36 1.1.37-1.18.36.99.36-1.09.36-.07.36 1.31.37-1.24.36 1.15.36-1.15.36-.04.37 1.04.36-1.18.36 1.18.36-1.15.36 1.16.37-1.27.36 1.19.36-1.22.36.02.36.99.37-1.03.36 1.21.36-1.31.36-.04.36 1.19.37-1.16.36 1.13.36-1.17.36 1.24.37-1.26.36 1.17.36-1.28.36.09.36 1.05.37-1.21.36 1.16.36-1.25.36 1.19.36-1.24.37-.32.36 1.38.36-1.21.36 1.23.36-1.26.37.03.36.98.36-1.2.36 1.26.36-1.23.37 1.19.36-1.29.36 1.28.36-1.2.37-.08.36 1.12.36-1.17.36.01.36 1.04.37-1.07.36 1.07.36-1.26.36 1.13.36-1.19.37 1.2.36-1.15.36-.05.36 1.06.36-1.09.37 1.16.36-1.13.36 1.1.36-1.28.37 1.26.36-1.2.36-.08.36 1.2.36-1.19.37 1.13.36-1.26.36.09.36 1.12.36-1.19.37 1.12.36-1.32.36 1.24.36-1.14.36 1.2.37-1.25.36.06.36 1.09.36-1.23.37-.05.36 1.13.36-1.12.36 1.19.36-1.19.37 1.15.36-1.19.36 1.15.36-1.23.36.07.37 1.1.36-1.33.36 1.1.36-1.09.36 1.17.37-1.15.36 1.23.36-1.36.36.05.36 1.16.37-1.23.36.09.36 1.05.36-1.14.37 1.12.36-1.2.36 1.26.36-1.41.36 1.26.37-1.25.36 1.28.36-1.21.36-.08.36 1.02.37-1.07.36-.03.36 1.18.36-1.16.36 1.13.37-1.19.36 1.16.36-1.24.36 1.19.37-1.2.36-.01.36 1.13.36-1.22.36 1.06.37-1.18.36 1.16.36-1.15.36 1.15.36-1.23.37-.02.36 1.28.36-1.18.36.02.36 1.16.37-1.2.36 1.11.36-1.12.36 1.14.36-1.17.37 1.14.36-1.3.36.09.36 1.03.37-1.03.36 1.17.36-1.25.36-.15.36 1.21.37-1.12.36 1.27.36-1.27.36 1.21.36-1.23.37 1.18.36-1.31h.36l.36 1.22.36-1.23.37 1.19.36-1.22.36 1.16.36-1.15.37 1.16.36-1.23.36.03.36 1.04.36-1.19.37.15.36.84.36-1.01.36 1.22.36-1.1.37 1.07.36-1.16.36 1.19.36-1.23.36.01.37 1.04.36-1.05.36 1.08.36-1.27.36-.05.37 1.19.36-1.16.36 1.17.36-1.17.37 1.16.36-1.34.36.12.36 1.1.36-1.13.37 1.1.36-1.13.36 1 .36-1 .36 1.1.37-1.2.36 1.1.36-1.15.36-.28.36 1.39.37-1.26.36.07.36 1.13.36-1.12.37 1.05.36-1.14.36 1.2.36-1.13.36 1.12.37-1.29.36.06.36 1.06.36-1.09.36 1.13.37-1.12.36-.13.36 1.19.36-1.19.36 1.25.37-1.24.36 1.06.36-1.2.36.05.37 1.22.36-1.17.36 1.07.36-1.16.36 1 .37-1.1.36 1.15.36-1.16.36.05.36 1.07.37-1.07.36 1.14.36-1.18.36.02.36 1.11.37-1.15.36.92.36-1.33.36 1.03.36-1.06.37 1.28.36-1.17.36.1.36 1.07.37-1.27.36 1.38.36-1.23h.36l.36 1.14.37-1.08.36 1.04.36-1.25.36 1.15.36-1.1.37.03.36 1.05.36-1.17.36 1.21.36-1.28.37 1.15.36-1.11.36 1.16.36-1.24.37.1.36 1.09.36-1.12.36-.08.36 1.13.37-1.19.36 1.03.36-1.08.36 1.1.36-1.15.37.96.36-1.05.36.12.36 1.04.36-1.09.37 1.17.36-1.16.36 1.09.36-1.1.36-.08.37 1.13.36-1.14.36 1.08.36-1.23.37 1.21.36-1.11.36-.08.36 1.08.36-1.17.37 1.16.36-1.13.36 1.16.36-1.17.36 1.17.37-1.12.36.03.36.94.36-1.23.36.05.37 1.2.36-1.16.36 1.22.36-1.08.37 1.11.36-1.15.36 1.18.36-1.23h.36l.37 1.07.36-1.03.36 1.06.36-1.16.36 1.25.37-1.31.36-.01.36 1.17.36-1.11.36 1.1.37-1.1.36.04.36.94.36-1.17.36 1.17.37-1.16.36 1.1.36-1.15.36 1.12.37-1.25.36 1.1.36-1.14.36.11.36 1.13.37-1.15.36-.06.36 1.15.36-1.11.36 1.11.37-1.36.36 1.17.36-1.13.36 1.2.36-1.26.37-.01.36 1.09.36-1.03.36 1.06.37-1.07.36 1.13.36-1.2.36-.02.36 1.1.37-1.09.36 1.12.36-1.15.36.04.36 1.02.37-1.09.36 1.06.36-1.17.36 1.11.36-1.31.37 1.21.36-1.18.36.15.36 1.08.37-1.1.36 1.07.36-1.13.36.01.36 1.03.37-1.16.36 1.13.36-1.14.36 1.2.36-1.16.37 1.09.36-1.17.36.05.36 1.11.36-1.15.37 1.11.36-1.26.36 1.22.36-1.1.36-.04.37 1.11.36-1.13.36 1.11.36-1.1.37-.05.36 1.03.36-1.14.36.99.36-1.14.37 1.22.36-1.18.36 1.16.36-1.14.36-.01.37.94.36-1.02h.36l.36 1.12.36-1.09.37 1.08.36-1.06.36.98.36-1.31.37 1.24.36-1.2.36.16.36.98.36-1.1.37 1.1.36-1.14.36 1.12.36-1.34.36 1.31.37-1.1.36.02.36 1.16.36-1.12.36 1.11.37-1.19.36.05.36 1 .36-1.15.36 1.18.37-1.18.36 1.17.36-1.17.36.95.37-1.04.36-.01.36 1.15.36-1.09.36-.04.37 1.1.36-1.04.36 1.05.36-1.23.36 1.26.37-1.29.36 1.27.36-1.22.36.16.36 1 .37-1.19.36 1.17.36-1.19.36 1.25.37-1.38.36 1.21.36-1.12.36.03.36 1.07.37-1.13h.36l.36 1.05.36-1.04.36 1.06.37-1.15.36 1.06.36-1.12.36 1.16.36-1.18.37 1.2.36-1.18.36-.03.36.94.36-1.07.37.11.36 1.08.36-1.16.36 1.13.37-1.06.36 1.19.36-1.55.36 1.31.36-1.11.37.08.36.96.36-1.16.36 1.14.36-1.16.37 1.24.36-1.13.36 1.09.36-1.13.36-.04.37 1.16.36-1.17.36.06.36 1.04.37-1.12.36 1.07.36-1.18.36 1.16.36-1.13.37 1.21.36-1.26h.36l.36 1.14.36-1.09.37 1.15.36-1.27.36.05.36 1.14.36-1.28.37 1.13.36-1.06.36 1.27.36-1.24.37 1.26.36-1.28.36.06.36 1.07.36-1.12.37 1.05.36-1.12.36 1.16.36-1.32.36 1.21.37-1.13.36-.03.36 1.19.36-1.18h.36l.37 1.08.36-1.04.36 1.01.36-1.14.36 1.14.37-1.17.36 1.22.36-1.14.36.01.37.98.36-1.13.36 1.06.36-1.03.36-.01.37 1.1.36-1.14.36 1.09"/><use xlink:href="#0137d__f" color="#29C3F6" transform="matrix(3.75 0 0 3.75 354.25 121.21)"/><use xlink:href="#0137d__f" color="#29C3F6" transform="matrix(3.75 0 0 3.75 56.25 7.51)"/></g><text stroke-linecap="round" stroke-linejoin="round" color="#000" font-family="KaTeX_Main" font-size="8" transform="translate(76.8 25.11)"><tspan>AVLRelaxedBottomUp</tspan></text><g fill="none" stroke="currentColor" stroke-linecap="round" stroke-linejoin="round" color="#000"><path stroke="#D336C8" d="M41.3 22.51h29.9m-43.2 129 .36-.31.36 1.07.37-1.38.36.96.36-1.65.36 1.06.36-1.72.37-.05.36.89.36-1.39.36 1.01.37-1.36.36 1 .36-1.45.36 1.07.36-1.51.37-.05.36.88.36-1.56.36-.02.36.91.37-1.39.36 1.05.36-1.43.36 1.12.36-1.46.37 1.09.36-1.59.36 1.22.36-1.61.36-.04.37 1.01.36-1.35.36 1.02.36-1.4.37-.3.36 1.07.36-1.31.36 1 .36-1.48.37 1.26.36-1.5.36-.06.36 1 .36-1.35.37 1.08.36-1.4.36 1.09.36-1.46.36 1.19.37-1.51.36-.08.36 1.06.36-1.49.37.06.36.89.36-1.19.36 1.02.36-1.41.37 1.17.36-1.39.36 1.07.36-1.3.36-.01.37 1.07.36-1.33.36 1.02.36-1.36.36 1.15.37-1.31.36-.26.36 1.16.36-1.3.37 1.06.36-1.49.36.95.36-1.2.36-.03.37 1.23.36-1.33.36 1.19.36-1.37.36 1.2.37-1.31.36 1.09.36-1.21.36-.09.36 1.2.37-1.55.36-.07.36 1.21.36-1.3.36 1.2.37-1.39.36 1.12.36-1.32.36 1.21.37-1.42.36.01.36 1.1.36-1.42.36 1.21.37-1.29.36 1.24.36-1.37.36-.03.36 1.24.37-1.13.36.99.36-1.16.36-.17.36 1.26.37-1.4.36 1.19.36-1.22.36 1.33.37-1.3.36 1.17.36-1.2h.36l.36 1 .37-1.09.36 1.26.36-1.5.36.09.36 1.12.37-1.34.36 1.22.36-1.43.36 1.18.36-1.18.37 1.1.36-1.3.36-.22.36 1.23.36-1.12.37 1 .36-1.24.36 1.33.36-1.5.37-.05.36 1.2.36-1.24.36 1.13.36-1.27.37.06.36 1.02.36-1.13.36.95.36-1.2.37 1.14.36-1.26.36 1.25.36-1.42.36.12.37 1.01.36-1.18.36-.08.36.95.37-.98.36.97.36-1.23.36 1.07.36-1.13.37 1.12.36-1.23.36 1.16.36-1.35.36.04.37.99.36-1.13.36 1.14.36-1.28.36 1.12.37-1.32.36-.03.36 1.3.36-1.31.36 1.13.37-1.28.36.05.36.99.36-1.24.37 1.2.36-1.26.36 1.19.36-1.28.36 1.23.37-1.32.36-.05.36 1.03.36-1.11.36-.04.37 1.02.36-1.18.36 1.18.36-1.32.36 1.22.37-1.29.36 1.25.36-1.31.36-.01.37 1.05.36-1.22.36 1.13.36-1.09.36 1.09.37-1.24.36 1.15.36-1.18.36-.23.36 1.21.37-1.3.36 1.17.36-1.4.36.14.36 1.01.37-1 .36 1.05.36-1.29.36 1.22.37-1.23.36 1.07.36-1.13.36-.06.36 1.12.37-1.22.36-.09.36 1.09.36-1.06.36 1.03.37-1.14.36 1.17.36-1.34.36 1.2.36-1.3.37.03.36 1.08.36-1.23.36 1.11.36-1.15.37 1.11.36-1.24.36 1.22.36-1.35.37-.06.36 1.2.36-1.3.36.1.36.95.37-1.07.36 1.12.36-1.28.36 1.16.36-1.16.37 1.12.36-1.2.36-.04.36 1.13.36-1.17.37 1.13.36-1.23.36-.14.36 1.12.37-1.24.36 1.28.36-1.28.36 1.17.36-1.29.37 1.33.36-1.4.36.03.36 1.14.36-1.15.37 1.09.36-1.21.36 1.05.36-1.11.36 1.2.37-1.33.36-.05.36 1.21.36-1.25.36.12.37.93.36-1.09.36 1.11.36-1.33.37 1.26.36-1.22.36 1.16.36-1.22.36-.05.37 1.15.36-1.2.36 1.15.36-1.29.36-.02.37 1.09.36-1.15.36 1.11.36-1.24.36 1.26.37-1.28.36 1.28.36-1.3.36-.03.37 1.19.36-1.24.36 1.19.36-1.24.36 1.12.37-1.2.36 1.24.36-1.4.36.1.36 1.12.37-1.23.36.1.36 1 .36-1.19.36 1.11.37-1.25.36 1.19.36-1.2.36 1.17.36-1.36.37.22.36 1.03.36-1.25.36 1.2.37-1.22.36-.1.36 1.11.36-1.15.36 1.13.37-1.23.36 1.24.36-1.24.36.08.36 1.07.37-1.14.36 1.01.36-1.12.36 1.06.36-1.46.37 1.13.36-1.18.36.13.36 1.16.37-1.15.36 1.27.36-1.25.36.04.36 1.05.37-1.17.36 1.14.36-1.22.36 1.24.36-1.33.37 1.25.36-1.36h.36l.36 1.28.36-1.24.37 1.11.36-1.17.36-.12.36 1.26.37-1.22.36 1.11.36-1.28.36 1.27.36-1.25.37.01.36.89.36-1.05.36 1.06.36-1.19.37 1.27.36-1.28.36 1.29.36-1.31.36.12.37 1.02.36-1.22.36.04.36 1.01.36-1.01.37 1.05.36-1.19.36 1.18.36-1.25.37 1.18.36-1.18.36 1.15.36-1.29.36.03.37 1.17.36-1.26.36 1.11.36-1.05.36-.21.37 1.3.36-1.24.36 1.13.36-1.2.36 1.11.37-1.16.36-.06.36 1.18.36-1.19.37 1.09.36-1.05.36 1.07.36-1.17.36 1.13.37-1.23.36.01.36 1.16.36-1.24.36.04.37 1.04.36-1.04.36 1.03.36-1.09.36 1.18.37-1.27.36 1.2.36-1.32.36.05.36 1.13.37-1.14.36 1.06.36-1.22.36 1.22.37-1.3.36.06.36 1.1.36-1.17.36 1.14.37-1.23.36 1.2.36-1.3.36.09.36 1.09.37-1.25.36 1.22.36-1.18.36 1.28.36-1.36.37 1.18.36-1.2h.36l.36 1.1.37-1.16.36.02.36 1.13.36-1.18.36 1.18.37-1.26.36 1.17.36-1.22.36 1.2.36-1.28.37.14.36 1.05.36-1.21.36 1.09.36-1.17.37 1.22.36-1.25.36-.07.36 1.22.37-1.16.36 1.14.36-1.27.36.04.36 1.14.37-1.18.36 1.08.36-1.21.36 1.18.36-1.18.37 1.26.36-1.33.36.05.36 1.08.36-1.14.37 1.13.36-1.22.36-.02.36 1.16.36-1.25.37 1.18.36-1.15.36 1.16.36-1.28.37 1.18.36-1.3.36.12.36 1.13.36-1.07.37 1.01.36-1.13.36 1.13.36-1.24.36-.01.37 1.16.36-1.21.36 1.15.36-1.16.36.06.37 1.03.36-1.13.36 1.16.36-1.23.37 1.2.36-1.28.36 1.24.36-1.3.36.12.37 1.09.36-1.27.36-.03.36 1.11.36-1.13.37 1.18.36-1.18.36 1.17.36-1.19.36 1.16.37-1.24.36 1.26.36-1.24.36.03.36 1.14.37-1.21.36 1.12.36-1.29.36.97.37-1.18.36-.08.36 1.25.36-1.12.36 1.24.37-1.28.36.05.36 1.18.36-1.23.36 1.25.37-1.23.36 1.19.36-1.31.36 1.27.36-1.34.37.1.36 1.09.36-1.14.36-.08.37 1.23.36-1.23.36 1.21.36-1.13.36 1.04.37-1.15.36 1.15.36-1.22.36.07.36 1.12.37-1.07.36 1.04.36-1.13.36 1.15.36-1.39.37 1.14.36-1.28.36.02.36 1.3.36-1.24.37 1.26.36-1.26h.36l.36 1.17.37-1.16.36 1.11.36-1.16.36 1.17.36-1.23.37 1.23.36-1.27.36-.06.36 1.22.36-1.19.37-.02.36 1.04.36-1.06.36 1.13.36-1.1.37 1.09.36-1.2.36 1.15.36-1.19.37-.01.36 1.09.36-1.15.36 1.18.36-1.19.37 1.14.36-1.2.36 1.1.36-1.15.36-.1.37 1.17.36-1.2.36.17.36 1.04.36-1.16.37 1.15.36-1.19.36 1.2.36-1.29.37 1.25.36-1.2.36.01.36 1 .36-1.01.37 1.05.36-1.16.36.01.36 1.07.36-1.11.37 1.07.36-1.07.36 1.1.36-1.17.36 1.23.37-1.45.36.21.36 1.02.36-1.09.36 1.05.37-1.16.36 1.23.36-1.16.36 1.14.37-1.23.36.06.36 1.09.36-1.22.36.04.37 1.1.36-1.2.36 1.21.36-1.22.36 1.14.37-1.11.36 1.2.36-1.26.36.07.36 1.09.37-1.21.36 1.11.36-1.03.36-.08.37 1.01.36-1.23.36 1.31.36-1.22.36 1.19.37-1.2.36 1.23.36-1.22.36-.04.36 1.1.37-1.13.36 1.12.36-1.18.36 1.16.36-1.22.37 1.17.36-1.17.36-.03.36 1.27.36-1.26.37.08.36 1.06.36-1.18.36 1.06.37-1.12.36 1.2.36-1.32.36 1.22.36-1.16.37.06.36.98.36-1.06.36 1.07.36-1.12h.37l.36 1.15.36-1.16.36 1.09.36-1.19.37 1.17.36-1.16.36.03.36 1.13.37-1.18.36 1.1.36-1.1.36.99.36-1.17.37 1.31.36-1.18.36-.04.36 1.05.36-1.15.37 1.23.36-1.32h.36l.36 1.11.36-1.1.37 1.12.36-1.23.36 1.24.36-1.27.36 1.31.37-1.27.36.05.36 1.11.36-1.16.37 1.11.36-1.13.36-.06.36 1.14.36-1.11.37 1.21.36-1.29.36 1.14.36-1.2.36.16.37.97.36-1.08.36 1 .36-1.02.36 1.08.37-1.13.36 1.04.36-1.14.36.09.37 1.07.36-1.19.36-.03.36 1.06.36-1.1.37 1.17.36-1.14.36 1.13.36-1.17.36 1.21.37-1.28.36 1.21.36-1.3.36.03.36 1.09.37-1.14.36 1.16.36-1.08.36-.05.37 1.26.36-1.34.36 1.2.36-1.18.36 1.2.37-1.27.36.01.36 1.08.36-1.14.36 1.11.37-1.11.36 1.15.36-1.13.36 1.19.36-1.31.37.16.36 1.02.36-1.12.36.02.36 1.07.37-1.15.36 1.17.36-1.24.36 1.23.37-1.2.36 1.18.36-1.2.36-.02.36 1.12.37-1.13.36 1.07.36-1.14.36 1.11.36-1.16.37-.06.36 1.11.36-1.1.36 1.27.36-1.17.37 1.07.36-1.16.36-.12.36 1.24.37-1.12.36 1.05.36-1.13.36 1.14.36-1.12.37 1.12.36-1.15h.36l.36 1.06.36-1.12.37-.04.36 1.14.36-1.17.36 1.13.36-1.19.37 1.27.36-1.26.36 1.18.36-1.23h.36l.37 1.09.36-1.17.36 1.3.36-1.28.37 1.25.36-1.32.36.1.36 1.06.36-1.17.37 1.16.36-1.19.36.1.36.99.36-1.12.37 1.11.36-1.11.36 1.14.36-1.1.36 1.09.37-1.12.36-.05.36 1.1.36-1.04.37.99.36-1.19.36.08.36 1.03.36-1.1.37 1.15.36-1.29.36 1.32.36-1.25.36 1.16.37-1.2.36.1.36 1.07.36-1.12.36 1.15.37-1.2.36 1.16.36-1.15.36-.15.36 1.25.37-1.12.36 1.06.36-1.18.36.01.37 1.13.36-1.17.36 1.2.36-1.33.36 1.33.37-1.28.36 1.17.36-1.19.36.07.36 1.12.37-1.08.36-.15.36 1.1.36-1 .36 1.07.37-1.16.36 1.1.36-1.1.36 1.08.37-1.13.36 1.04.36-1.04.36-.06.36 1.09.37-1.09.36 1.11.36-1.15.36 1.13.36-1.15.37-.06.36 1.12.36-1.21.36 1.22.36-1.1.37-.07.36 1.22.36-1.17.36 1.13.37-1.12.36 1.05.36-1.14.36 1.11.36-1.17.37.02.36 1.04.36-1.06.36-.05.36 1.14.37-1.11.36 1.05.36-1.19.36 1.22.36-1.21.37 1.35.36-1.29.36.11.36.93.36-1 .37.95.36-.91.36.87.36-.97.37 1.05.36-1.13.36-.15.36 1.2.36-1.08.37 1.13.36-1.18.36-.02"/><use xlink:href="#0137d__b" color="#D336C8" transform="matrix(3.75 0 0 3.75 67.83 135.68)"/><use xlink:href="#0137d__b" color="#D336C8" transform="matrix(3.75 0 0 3.75 56.25 22.51)"/></g><text stroke-linecap="round" stroke-linejoin="round" color="#000" font-family="KaTeX_Main" font-size="8" transform="translate(76.8 40.11)"><tspan>RedBlackBottomUp</tspan></text><g fill="none" stroke="currentColor" stroke-linecap="round" stroke-linejoin="round" color="#000"><path stroke="#F44336" d="M41.3 37.51h29.9M28 148.99l.36-1.72h.36l.37.76.36-1.17.36.95.36-1.51.36.97.37-1.5.36 1.1.36-1.55.36-.06.37.82.36-1.49.36.6.36-1.36.36 1.11.37-1.39.36-.29.36 1 .36-1.46.36 1.17.37-1.46.36-.08.36.75.36-1.14.36.8.37-1.41.36 1.09.36-1.46.36 1.11.36-1.59.37 1.17.36-1.56.36-.03.36.84.37-1.48.36.09.36.92.36-1.33.36 1.09.37-1.39.36 1.13.36-1.54.36 1.23.36-1.54.37-.09.36.92.36-1.29.36 1.05.36-1.39.37 1.08.36-1.55.36-.1.36 1.05.37-1.36.36 1.09.36-1.36.36.08.36.78.37-1.32.36 1.15.36-1.47.36 1.12.36-1.38.37 1.14.36-1.48.36.08.36 1.01.36-1.44.37.03.36.86.36-1.25.36 1.12.37-1.29.36.99.36-1.39.36 1.26.36-1.46.37 1.32.36-1.42.36-.09.36.97.36-1.27.37 1.03.36-1.26.36 1.1.36-1.4.36-.15.37 1.06.36-1.28.36 1.18.36-1.22.36-.17.37 1.12.36-1.36.36 1.15.36-1.34.37 1.15.36-1.39.36 1.13.36-1.38.36-.02.37 1.07.36-1.33.36-.12.36 1.12.36-1.35.37 1.09.36-1.28.36 1.19.36-1.42.36 1.14.37-1.22.36-.29.36 1.23.36-1.19.37.96.36-1.23.36 1.26.36-1.3.36 1.21.37-1.36.36.12.36 1.04.36-1.37.36 1.35.37-1.37.36-.08.36 1.36.36-1.37.36 1.08.37-1.24.36 1.23.36-1.51.36 1.38.36-1.48.37-.04.36 1.23.36-1.31.36-.01.37.98.36-1.27.36 1.25.36-1.4.36 1.15.37-1.32.36 1.18.36-1.2.36-.09.36.93.37-1.08.36.88.36-1.1.36 1.19.36-1.28.37 1.2.36-1.36.36-.16.36 1.37.37-1.36.36.05.36 1.02.36-1.21.36 1.04.37-1.23.36 1.11.36-1.18.36 1.04.36-1.34.37 1.17.36-1.23.36.01.36.89.36-1.15.37.01.36 1.09.36-1.11.36 1.04.36-1.26.37 1.1.36-1.28.36 1.12.36-1.29.37-.03.36 1.11.36-1.23.36 1.06.36-1.09.37 1.16.36-1.29.36 1.11.36-1.3.36-.03.37 1.26.36-1.29h.36l.36 1.05.36-1.34.37 1.17.36-1.51.36 1.17.36-1.12.37 1.28.36-1.24.36-.01.36 1.01.36-1.11.37 1.07.36-1.15.36-.17.36 1.1.36-1.13.37.93.36-1.12.36 1.09.36-1.32.36 1.28.37-1.23.36-.11.36 1.15.36-1.23.37 1.05.36-1.24.36 1.26.36-1.29.36 1.23.37-1.38.36-.04.36 1.26.36-1.42.36.14.37 1.07.36-1.27.36 1.17.36-1.24.36 1.2.37-1.37.36 1.26.36-1.32.36-.07.36 1.1.37-1.22.36 1.17.36-1.22.36-.14.37 1.22.36-1.24.36 1.16.36-1.3.36 1.28.37-1.31.36-.01.36 1 .36-1.08.36.77.37-1.12.36 1.19.36-1.17.36 1.21.36-1.2.37 1.19.36-1.36h.36l.36 1.15.37-1.2.36.04.36 1.16.36-1.29.36 1.16.37-1.32.36 1.16.36-1.13.36 1.16.36-1.29.37-.21.36 1.21.36-1.15.36 1.06.36-1.18.37-.08.36 1.18.36-1.28.36 1.31.36-1.3.37 1.1.36-1.22h.36l.36 1.15.37-1.23.36 1.17.36-1.29.36 1.21.36-1.32.37 1.23.36-1.24.36-.04.36 1.04.36-1.3.37.09.36 1.06.36-1.11.36 1.02.36-1.23.37 1.31.36-1.2.36 1.09.36-1.29.37 1.12.36-1.14.36-.03.36 1.12.36-1.2.37 1.2.36-1.36.36-.06.36 1.25.36-1.31.37 1.22.36-1.3.36 1.28.36-1.39.36.13.37 1.01.36-1.07.36.99.36-1.19.36 1.19.37-1.3.36 1.32.36-1.36.36-.02.37 1.05.36-1.26.36.06.36 1.17.36-1.29.37 1.2.36-1.19.36 1.14.36-1.19.36 1.12.37-1.26.36.04.36 1.04.36-1.2.36 1.17.37-1.18.36 1.21.36-1.31.36-.17.37 1.3.36-1.26.36 1.18.36-1.14.36 1.16.37-1.4.36.06.36 1.2.36-1.23.36 1.2.37-1.31.36 1.11.36-1.24.36 1.18.36-1.24.37.08.36.88.36-1.1.36.01.37 1.14.36-1.17.36 1.14.36-1.25.36 1.25.37-1.37.36 1.32.36-1.25.36-.04.36 1.11.37-1.12.36 1.11.36-1.28.36 1.2.36-1.23.37-.14.36 1.26.36-1.23.36 1.2.36-1.22.37-.07.36 1.03.36-1.15.36 1.22.37-1.31.36 1.25.36-1.29.36 1.18.36-1.24.37 1.23.36-1.35.36.17.36 1 .36-1.21.37-.03.36 1.11.36-1.18.36 1.19.36-1.2.37 1.08.36-1.22.36 1.2.36-1.24.37.03.36 1.14.36-1.18.36 1.14.36-1.24.37 1.23.36-1.32h.36l.36 1.12.36-1.19.37 1.15.36-1.33.36.09.36 1.1.36-1.16.37 1.23.36-1.2.36 1.09.36-1.22.36 1.26.37-1.29.36.05.36 1.04.36-1.15.37-.08.36 1.2.36-1.27.36 1.19.36-1.26.37 1.23.36-1.39.36 1.33.36-1.26.36 1.15.37-1.28.36.08.36 1.11.36-1.24.36 1.16.37-1.22.36 1.16.36-1.2.36-.04.37 1.24.36-1.24.36 1.17.36-1.26.36-.1.37 1.27.36-1.2.36 1.02.36-1.17.36 1.24.37-1.34.36 1.27.36-1.31.36.08.36 1.08.37-1.09.36-.13.36 1.11.36-1.19.37 1.18.36-1.19.36 1.17.36-1.21.36 1.23.37-1.24.36.04.36 1.06.36-1.2.36 1.11.37-1.19.36 1.2.36-1.31.36 1.28.36-1.31.37-.13.36 1.28.36-1.39.36 1.33.36-1.22.37.05.36 1.11.36-1.16.36 1.17.37-1.27.36 1.16.36-1.34.36 1.34.36-1.36.37.09.36 1.12.36-1.19.36-.03.36 1.06.37-1.21.36 1.26.36-1.32.36 1.24.36-1.24.37 1.24.36-1.28.36.14.36 1.07.37-1.15.36 1.04.36-1.13.36 1.14.36-1.19.37 1.21.36-1.27.36-.12.36 1.17.36-1.2.37-.02.36 1.22.36-1.25.36 1.19.36-1.17.37 1.09.36-1.26.36 1.33.36-1.39.36 1.2.37-1.23.36.03.36 1.09.36-1.07.37-.15.36 1.21.36-1.2.36 1.21.36-1.2.37 1.11.36-1.21.36 1.27.36-1.42.36.05.37 1.09.36-1.15.36 1.15.36-1.14.36 1.1.37-1.16.36 1.17.36-1.18.36-.16.37 1.25.36-1.23.36.1.36 1.04.36-1.17.37 1.12.36-1.18.36 1.02.36-1.19.36 1.17.37-1.16h.36l.36 1.06.36-1.1.36 1.16.37-1.2.36.09.36 1.02.36-1.15.36.9.37-.98.36 1.3.36-1.29.36 1.25.37-1.24.36.11.36.98.36-1.15.36 1.13.37-1.15.36 1.13.36-1.3.36 1.17.36-1.22.37-.08.36 1.24.36-1.19.36.11.36 1.01.37-1.1.36 1.04.36-1.05.36 1.12.37-1.46.36.97.36-1.08.36.2.36 1.15.37-1.21.36 1.16.36-1.14.36.04.36 1.04.37-1.2.36 1.15.36-1.14.36 1.19.36-1.23.37.08.36.98.36-1 .36.99.37-1.12.36 1.07.36-1.26.36 1.1.36-1.11.37 1.15.36-1.2.36.04.36 1.02.36-1.09.37-.09.36 1.25.36-1.22.36 1.08.36-1.15.37 1.13.36-1.12.36 1.23.36-1.3.36.15.37.96.36-1.13.36 1.15.36-1.18.37-.1.36 1.14.36-1.07.36 1.07.36-1.16.37 1.15.36-1.22.36-.04.36 1.18.36-1.13.37 1.1.36-1.25.36.81.36-1.17.36 1.23.37-1.21.36.02.36 1.16.36-1.19.37.23.36 1.02.36-1.08.36.96.36-1.02.37 1.18.36-1.23.36 1.21.36-1.26.36 1.29.37-1.3.36.06.36.98.36-1.1.36 1.14.37-1.18.36-.04.36 1.17.36-1.29.36 1.26.37-1.53.36 1.5.36-1.37.36.27.37.99.36-1.14.36 1.2.36-1.21.36 1.12.37-1.19.36 1.17.36-1.16.36.01.36 1 .37-1.18.36.06.36 1.08.36-1.1.36.95.37-1.02.36 1.16.36-1.28.36 1.33.37-1.31.36.05.36 1.1.36-1.06.36.93.37-.97.36 1.11.36-1.17.36-.12.36 1.16.37-1.16.36 1.24.36-1.31.36 1.25.36-1.67.37-.03.36 1.14.36-1.06.36 1.25.36-1.2.37 1.25.36-1.2.36 1.22.36-1.23.37.06.36 1.1.36-1.13.36-.05.36 1.1.37-1.04.36 1.09.36-1.29.36 1.18.36-1.08.37 1.07.36-1.19.36-.04.36 1.29.36-1.22.37 1.09.36-1.16.36 1.17.36-1.24.37.03.36.98.36-1.09.36 1.27.36-1.26.37.16.36.95.36-1.08.36.95.36-1.05.37 1.13.36-1.08.36 1.07.36-1.21.36 1.16.37-1.25h.36l.36 1.14.36-1.27.37.17.36.8.36-.86.36 1.06.36-1.11.37 1.22.36-1.26.36 1.18.36-1.32.36.14.37.97.36-.96.36 1.01.36-1.07.36 1.06.37-1.25.36-.06.36 1.28.36-1.21.36 1.19.37-1.23.36.02.36 1.15.36-1.14.37 1.12.36-1.17.36 1.11.36-1.2.36 1.18.37-1.08.36-.05.36 1 .36-1.11.36.02.37.95.36-1.03.36 1.14.36-1.17.36 1.11.37-1.18.36 1.18.36-1.23.36 1.21.37-1.27.36.08.36 1.06.36-1.04.36 1.09.37-1.15.36 1.14.36-1.14.36-.17.36 1.19.37-1.27.36 1.28.36-1.28.36.06.36 1.06.37-1.11.36 1.05.36-1.2.36 1.27.36-1.29.37 1.29.36-1.29.36.11.36 1.06.37-1.11.36-.07.36 1.08.36-.94.36.94.37-.99.36.99.36-1.05.36 1.09.36-1.18.37.04.36 1.12.36-1.21.36 1.17.36-1.2.37.99.36-1.21.36 1.09.36-1.15.37.02.36 1.07.36-1.07.36 1.23.36-1.32.37.14.36 1.16.36-1.18.36 1.17.36-1.38.37 1.32.36-1.2.36 1.31.36-1.39.36.16.37.98.36-1.27.36.1.36 1.05.36-.98.37 1.1.36-1.16.36 1.14.36-1.23.37 1.23.36-1.24.36.08.36.95.36-.97.37 1.04.36-1.19.36 1.02.36-1.13.36 1.15.37-1.13.36.02.36 1.15.36-1.16.36.08.37 1 .36-1.15.36 1.18.36-1.18.37 1.19.36-1.33.36 1.27.36-1.18.36 1.12.37-1.23.36-.04.36 1.21.36-1.18.36.04.37 1.06.36-1.12.36 1.1.36-1.14.36 1.27.37-1.3.36 1.18.36-1.25.36.21.37.97.36-1.19.36 1.18.36-1.13.36 1.14.37-1.28.36 1.17.36-1.14.36-.05.36 1.07.37-1.15.36.08.36.96.36-1.08.36 1.21.37-1.28.36 1.26.36-1.14.36 1.11.36-1.15.37.13.36 1.05.36-1.25.36 1.14.37-1.14.36-.07.36 1.17.36-1.11.36 1.05.37-1.06.36 1.12.36-1.26"/><use xlink:href="#0137d__b" color="#F44336" transform="matrix(3.75 0 0 3.75 125.4 121.83)"/><use xlink:href="#0137d__b" color="#F44336" transform="matrix(3.75 0 0 3.75 56.25 37.51)"/></g><text stroke-linecap="round" stroke-linejoin="round" color="#000" font-family="KaTeX_Main" font-size="8" transform="translate(76.8 55.11)"><tspan>RedBlackRelaxedTopDown</tspan></text><g fill="none" stroke="currentColor" stroke-linecap="round" stroke-linejoin="round" color="#000"><path stroke="violet" stroke-dasharray="4.0,2.0,1.0,2.0" d="M41.3 52.51h29.9M28 155.68l.36-1.71.36.21.37 1.04.36-1.53.36 1.03.36-1.43.36 1.08.37-1.31.36.83.36-1.34.36.03.37.84.36-1.32.36 1.01.36-1.43.36-.33.37 1.11.36-1.19.36 1 .36-1.38.36 1.11.37-1.48.36 1.17.36-1.52.36-.05.36.91.37-1.19.36.95.36-1.33.36 1.09.36-1.45.37 1.14.36-1.62.36-.29.36 1.33.37-1.33.36-.1.36 1.04.36-1.39.36.97.37-1.23.36 1.17.36-1.47.36 1.14.36-1.45.37-.04.36 1 .36-1.33.36 1 .36-1.34.37-.11.36.97.36-1.35.36.94.37-1.24.36.96.36-1.29.36-.11.36.99.37-1.06.36.79.36-1.24.36 1.06.36-1.26.37 1.18.36-1.44.36 1.04.36-1.4.36-.1.37 1.19.36-1.72.36.16.36 1.16.37-1.06.36 1.11.36-1.52.36 1.15.36-1.27.37 1.03.36-1.15.36-.1.36.9.36-1.33.37 1.13.36-1.27.36-.17.36 1.11.36-1.14.37 1.24.36-1.43.36 1.23.36-1.4.36.06.37 1.09.36-1.36.36 1.31.36-1.48.37 1.18.36-1.29.36 1.23.36-1.56.36.22.37.93.36-1.36.36.08.36 1.03.36-1.04.37.88.36-1.09.36.77.36-.99.36 1.06.37-1.43.36 1.12.36-1.14.36.06.37.91.36-1.04.36.85.36-1.21.36-.09.37 1.3.36-1.26.36 1.05.36-1.52.36 1.45.37-1.33.36-.18.36 1.24.36-1.18.36.99.37-1.27.36 1.22.36-1.33.36 1.21.36-1.33.37-.1.36 1.1.36-1.34.36.22.37.93.36-1.34.36 1.35.36-1.39.36 1.11.37-1.16.36 1.1.36-1.22.36-.12.36 1.01.37-1.15.36 1.02.36-1.16.36 1.06.36-1.3.37.02.36 1.18.36-1.3.36 1.23.37-1.27.36.94.36-1.19.36-.01.36 1.2.37-1.35.36 1.26.36-1.31.36 1.1.36-1.22.37 1.06.36-1.01.36-.19.36 1.23.36-1.24.37-.16.36 1.18.36-1.21.36 1.05.36-1.32.37 1.34.36-1.28.36 1.03.36-1.17.37.19.36.83.36-1.08.36.9.36-1.11.37 1.35.36-1.39.36-.24.36 1.11.36-1.08.37 1.26.36-1.34.36.06.36.89.36-1 .37 1.09.36-1.22.36.97.36-.98.37.99.36-1.26.36 1.23.36-1.38.36-.08.37 1.16.36-1.12.36-.02.36.95.36-1.13.37 1.11.36-1.17.36 1.27.36-1.42.36 1.2.37-1.17.36-.11.36 1 .36-1.36.37 1.39.36-1.27.36 1.25.36-1.52.36.17.37 1.18.36-1.34.36 1.2.36-1.13.36.02.37.97.36-1.12.36 1.1.36-1.29.36 1.23.37-1.25.36 1.26.36-1.49.36.17.36 1.13.37-1.14.36-.16.36.9.36-.95.37 1.05.36-1.32.36 1.37.36-1.21.36 1.07.37-1.19.36 1.03.36-1.21.36.17.36.97.37-1.18.36 1.07.36-1.25.36 1.12.36-1.16.37-.17.36 1.36.36-1.31.36 1.23.37-1.09.36-.23.36 1.13.36-1.14.36 1.14.37-1.38.36 1.29.36-1.19.36 1.02.36-1.04.37-.06.36.98.36-1.14.36-.01.36 1.01.37-1.1.36 1.05.36-1.13.36 1.03.36-1.17.37 1.28.36-1.36.36.06.36 1.01.37-1.08.36 1.25.36-1.29.36 1.19.36-1.28.37 1.11.36-1.24.36.01.36 1.34.36-1.46.37 1.25.36-1.11.36-.02.36 1.05.36-1.15.37 1.03.36-1.3.36 1.34.36-1.28.37 1.17.36-1.07.36.03.36.98.36-1.4.37.15.36 1.08.36-1.18.36 1.21.36-1.27.37 1.19.36-1.06.36.87.36-1.09.36.02.37.92.36-1.01.36 1.04.36-1.15.36 1.12.37-1.14.36 1.15.36-1.18.36-.09.37 1.09.36-1.2.36.2.36 1.02.36-1.25.37.93.36-1.03.36 1.23.36-1.22.36 1.08.37-1.23.36 1.15.36-1.32.36.12.36.98.37-1.09.36.03.36.92.36-1.14.37 1.17.36-1.13.36 1.16.36-1.28.36 1.17.37-1.28.36.05.36 1.29.36-1.34.36 1.22.37-1.23.36.99.36-1.14.36 1.21.36-1.17.37-.18.36 1.23.36-1.37.36.08.37 1.16.36-1.15.36 1.03.36-1.09.36 1.17.37-1.22.36 1.12.36-.97.36-.12.36.78.37-.82.36.91.36-1.12.36.14.36 1.03.37-1.24.36 1.22.36-1.24.36 1.18.36-1.25.37 1.07.36-1.05.36-.09.36 1.06.37-1.25.36 1.29.36-1.21.36 1.04.36-.92.37 1.01.36-1.24.36.06.36 1.28.36-1.38.37-.04.36 1.25.36-1.25.36 1.1.36-1.16.37 1.02.36-1.1.36 1.1.36-1.12.37.02.36 1.14.36-1.2.36 1.01.36-1.17.37-.1.36 1.38.36-1.45.36 1.27.36-1.43.37 1.42.36-1.25h.36l.36 1.28.36-1.3.37 1.05.36-1.05.36 1.04.36-1.11.36 1.18.37-1.28.36 1.11.36-1.18.36-.04.37 1.21.36-1.31.36.06.36 1.03.36-1.29.37 1.37.36-1.34.36 1.28.36-1.23.36 1.1.37-1.18.36-.08.36 1.21.36-1.16.36 1.1.37-1.12.36-.06.36 1.24.36-1.43.37 1.33.36-1.27.36 1.23.36-1.3.36.03.37 1.15.36-1.16.36 1.1.36-1.3.36 1.39.37-1.35.36 1.23.36-1.29.36.07.36 1.13.37-1.01.36-.2.36 1.13.36-1.25.37 1.27.36-1.28.36 1.27.36-1.23.36 1.17.37-1.21.36 1.14.36-1.28h.36l.36 1.22.37-1.14.36 1.09.36-1.24.36.14.36 1.1.37-1.38.36 1.25.36-1.13.36 1.11.36-1.45.37.15.36 1.12.36-1.29.36 1.15.37-.91.36 1.01.36-1.26.36 1.26.36-1.21.37-.06.36 1.08.36-1.18.36-.06.36 1.04.37-1.21.36 1.31.36-1.23.36 1.24.36-1.27.37 1.25.36-1.21.36-.02.36 1.1.37-1.07.36 1.03.36-1.13.36.98.36-.96.37.02.36 1.04.36-1.35.36 1.42.36-1.26.37 1.03.36-1.2.36.23.36.98.36-1.25.37 1.3.36-1.29.36 1.22.36-1.35.36 1.35.37-1.33.36.06.36 1.06.36-1.19.37-.01.36 1.16.36-1.13.36 1.1.36-1.08.37 1.24.36-1.35.36 1.19.36-1.19.36-.05.37 1.1.36-1.34.36 1.28.36-1.12.36 1.06.37-1.16.36-.01.36 1.21.36-1.23.37 1.23.36-1.2.36-.04.36 1.09.36-1.13.37 1.12.36-1.23.36 1.12.36-1.19.36 1.19.37-1.18.36 1.14.36-1.22.36.16.36 1.1.37-1.37.36.08.36 1.19.36-1.24.36 1.24.37-1.29.36 1.24.36-1.16.36 1.03.37-1.05.36-.04.36 1.26.36-1.3.36 1.13.37-1.28.36 1.22.36-1.07.36-.09.36.87.37-1.01.36 1.14.36-1.13.36.1.36 1.14.37-1.27.36 1.1.36-1.36.36 1.4.37-1.35.36 1.25.36-1.18.36.23.36.79.37-1.08h.36l.36 1.11.36-1.06.36 1.06.37-1.12.36 1.04.36-1.01.36 1.06.36-1.37.37 1.54.36-1.26.36-.08.36 1.06.37-1.17.36 1.21.36-1.24.36 1.19.36-1.19.37.03.36 1.16.36-1.16.36 1.15.36-1.23.37-.17.36 1.27.36-1.34.36 1.26.36-1.13.37 1.11.36-1.19.36 1.19.36-1.21.36.04.37.97.36-1.05.36-.09.36 1.11.37-.99.36 1.02.36-1.06.36.88.36-1.06.37 1.25.36-1.3.36.2.36.99.36-1.12.37 1.13.36-1.21.36 1.09.36-1.1.36 1.02.37-1.03.36-.12.36 1.19.36-1.19.37 1.27.36-1.32.36-.01.36 1.22.36-1.22.37 1.14.36-1.25.36 1.29.36-1.27.36 1.25.37-1.3.36.07.36 1.05.36-1.09.36-.15.37 1.24.36-1.05.36 1.19.36-1.29.36 1.14.37-1.2.36 1.24.36-1.34.36.17.37.96.36-1.06.36 1.13.36-1.15.36 1.08.37-1.14.36 1.18.36-1.32.36.04.36 1.08.37-1.1.36.18.36.95.36-1.03.36 1.02.37-1.11.36 1.17.36-1.3.36 1.27.37-1.23.36 1.14.36-1.18.36.01.36 1.18.37-1.2h.36l.36 1.16.36-1.19.36 1.05.37-1.02.36 1.21.36-1.36.36 1.15.36-1.22.37.01.36 1.14.36-1.04.36 1.13.36-1.21.37 1.24.36-1.38.36 1.35.36-1.26.37-.11.36 1.15.36-1.1.36.08.36.98.37-1.04.36 1.17.36-1.44.36 1.29.36-1.06.37 1.12.36-1.25.36-.07.36 1.11.36-1.12.37 1.15.36-1.16.36-.06.36 1.2.37-1.25.36 1.2.36-1.17.36 1.28.36-1.29.37 1.13.36-1.11.36.06.36 1.01.36-1.12.37 1.17.36-1.02.36.9.36-1.11.36 1.06.37-1.12.36.05.36 1.02.36-1.02.37.04.36 1.03.36-1.13.36 1.13.36-1.13.37 1.16.36-1.23.36 1.18.36-1.21.36-.04.37 1.08.36-1.25.36 1.4.36-1.28.36-.06.37 1.22.36-1.17.36 1.03.36-1.04.36 1.2.37-1.31.36-.1.36 1.26.36-1.22.37 1.21.36-1.23.36 1.16.36-1.09.36 1.17.37-1.18.36 1.04.36-1.14.36-.09.36 1.16.37-1.13.36-.03.36 1.09.36-1.12.36 1.16.37-1.14.36 1.25.36-1.27.36.98.37-.97.36-.12.36 1.22.36-1.29.36 1.2.37-.99.36-.18.36 1.18.36-1.25.36 1.19.37-1.25.36 1.31.36-1.23.36-.05.36 1.08.37-1.01.36 1.12.36-1.26.36 1.01.36-.93.37 1.18.36-1.26.36.1.36 1.15.37-1.21.36-.05.36 1.12.36-1.13.36 1.07.37-1.2.36.95.36-.96.36 1.12.36-.98.37.98.36-1.11.36-.1.36 1.15.36-1.19.37 1.3.36-1.26.36.03.36 1.16.37-1.23.36 1.19.36-1.28.36 1.25.36-1.25.37.12.36.95.36-1.1.36 1.21.36-1.32.37.99.36-.94.36 1.2.36-1.23.36-.02.37 1.17.36-1.23.36.12.36.95.36-.91.37 1.05.36-1.19.36 1.11.36-1.26.37 1.17.36-1.11.36.09.36 1 .36-.98.37 1.13.36-1.37.36 1.25.36-1.28.36.14.37.96.36-.93.36 1.14.36-1.17.36 1.19.37-1.46.36.03.36 1.12.36-.92.37 1.07.36-1.21.36 1.13.36-1.14.36 1.09.37-1.13.36.03.36 1.13.36-1.19.36.01.37 1.14.36-1.19.36 1.11.36-1.01.36 1.09.37-1.22.36 1.04.36-1.03.36.02.37 1.08.36-1.1.36 1.09.36-1.26.36.96.37-1.03.36-.05.36 1.33.36-1.32.36 1.25.37-1.22.36.13.36 1.06.36-1.24.36 1.21.37-1.21.36 1.19.36-1.07.36 1.01.36-1.19.37 1.26.36-1.1.36-.08.36 1.04.37-1.11h.36l.36 1.14.36-1.31.36 1.24.37-1.19.36 1.17.36-1.18"/><use xlink:href="#0137d__g" color="violet" transform="matrix(3.75 0 0 3.75 182.98 128.09)"/><use xlink:href="#0137d__g" color="violet" transform="matrix(3.75 0 0 3.75 56.25 52.51)"/></g><text stroke-linecap="round" stroke-linejoin="round" color="#000" font-family="KaTeX_Main" font-size="8" transform="translate(241.1 10.11)"><tspan>LBSTBottomUp</tspan></text><g fill="none" stroke="currentColor" stroke-linecap="round" stroke-linejoin="round" color="#000"><path stroke="#3B75EA" d="M205.6 7.51h29.9M28 153.56l.36.98.36-1.33.37 1.09.36-1.57.36-.08.36.88.36-1.28.37 1 .36-1.32.36 1 .36-1.39.37 1.15.36-1.49.36-.24.36 1.19.36-1.38.37 1.16.36-1.57h.36l.36 1.03.36-1.28.37.99.36-1.44.36 1.18.36-1.43.36 1.13.37-1.49.36-.04.36.98.36-1.28.36-.24.37 1.03.36-1.32.36 1.07.36-1.29.37 1.09.36-1.38.36 1.07.36-1.41.36-.04.37 1.02.36-1.49.36 1.28.36-1.28.36 1.03.37-1.41.36 1.11.36-1.48.36-.11.36 1.15.37-1.42.36.06.36.96.36-1.23.37 1.08.36-1.41.36 1.25.36-1.37.36 1.12.37-1.41.36 1.15.36-1.38.36.1.36.95.37-1.29.36-.14.36 1.14.36-1.4.36 1.06.37-1.36.36 1.2.36-1.38.36 1.16.37-1.33.36-.08.36 1.02.36-1.21.36 1.11.37-1.33.36 1.08.36-1.25.36 1.24.36-1.46.37-.15.36 1.21.36-1.36h.36l.36 1.13.37-1.29.36 1.24.36-1.36.36 1.13.36-1.43.37 1.22.36-1.29.36-.04.36 1.12.37-1.29.36 1.06.36-1.38.36-.05.36 1.14.37-1.34.36 1.08.36-1.17.36 1.11.36-1.53.37 1.35.36-1.31.36-.05.36 1.17.36-1.25.37 1.23.36-1.35.36 1.13.36-1.04.37 1.09.36-1.33.36-.04.36 1.24.36-1.38.37-.28.36 1.43.36-1.41.36 1.29.36-1.32.37 1.19.36-1.29.36 1.12.36-1.32h.36l.37 1.09.36-1.36.36 1.27.36-1.42.36-.15.37 1.28.36-1.37.36 1.21.36-1.27.37 1.28.36-1.31.36-.07.36 1.09.36-1.16.37 1.13.36-1.3.36 1.28.36-1.28.36 1.11.37-1.27.36 1.23.36-1.35.36-.13.36 1.26.37-1.34.36.01.36 1.31.36-1.31.37 1.14.36-1.31.36.91.36-1.25.36 1.19.37-1.27.36.1.36.98.36-1.03.36 1.08.37-1.25.36-.12.36 1.12.36-1.18.36 1.19.37-1.22.36 1.18.36-1.32.36.07.36 1.04.37-1.2.36 1.16.36-1.28.36 1.21.37-1.37.36 1.26.36-1.36.36.09.36 1.11.37-1.3.36.04.36.96.36-1.07.36 1.11.37-1.28.36 1.14.36-1.3.36 1.17.36-1.2.37 1.19.36-1.3.36.05.36 1.07.37-1.15.36 1.11.36-1.31.36-.04.36 1.15.37-1.25.36 1.14.36-1.26.36 1.26.36-1.31.37.03.36 1.14.36-1.3.36 1.22.36-1.24.37 1.14.36-1.26.36 1.2.36-1.29.37.07.36 1 .36-1.2.36.07.36 1.02.37-1.15.36 1.1.36-1.19.36 1.18.36-1.27.37 1.21.36-1.35.36.07.36.98.36-1.13.37 1.09.36-1.16.36 1.22.36-1.21.36-.08.37 1.17.36-1.25.36 1.2.36-1.26.37 1.21.36-1.39.36.14.36 1.06.36-1.16.37 1.14.36-1.33.36 1.24.36-1.27.36 1.24.37-1.29.36.02.36 1.05.36-1.33.36.13.37 1.1.36-1.37.36 1.31.36-1.22.37 1.15.36-1.22.36 1.2.36-1.35.36.12.37 1 .36-1.18.36 1.14.36-1.13.36 1.1.37-1.26.36-.08.36 1.15.36-1.16.36 1.24.37-1.32.36.08.36 1.09.36-1.2.36 1.16.37-1.25.36 1.17.36-1.26.36 1.22.37-1.27.36 1.22.36-1.29.36-.01.36 1.13.37-1.32.36.06.36 1.22.36-1.24.36 1.09.37-1.16.36 1.16.36-1.31.36 1.21.36-1.3.37.08.36 1.15.36-1.18.36 1.11.37-1.17.36 1.14.36-1.27.36-.07.36 1.22.37-1.25.36 1.33.36-1.46.36.16.36 1.07.37-1.24.36 1.17.36-1.19.36 1.17.36-1.33.37 1.24.36-1.28.36.08.36.98.36-1.1.37-.03.36 1.05.36-1.21.36 1.21.37-1.18.36 1.18.36-1.19.36 1.11.36-1.4.37 1.17.36-1.31.36.16.36 1.18.36-1.25.37 1.26.36-1.2.36 1.08.36-1.23.36.03.37 1.13.36-1.17.36 1.2.36-1.28.37.01.36 1.09.36-1.15.36 1.16.36-1.23.37 1.21.36-1.22.36 1.2.36-1.28.36-.01.37 1.08.36-1.15.36-.08.36 1.14.36-1.17.37 1.19.36-1.21.36 1.09.36-1.2.37 1.27.36-1.26.36-.06.36 1.06.36-1.09.37 1.11.36-1.23.36 1.18.36-1.26.36 1.23.37-1.2.36-.11.36 1.25.36-1.29.36 1.27.37-1.27.36.04.36 1.08.36-1.16.36 1.11.37-1.17.36 1.23.36-1.33.36 1.23.37-1.25.36.03.36 1.05.36-1.19.36.02.37 1.17.36-1.24.36 1.16.36-1.19.36 1.15.37-1.15.36 1.14.36-1.29.36.11.36 1.02.37-1.3.36 1.3.36-1.26.36 1.23.37-1.27.36 1.25.36-1.3.36.02.36 1.22.37-1.24.36.03.36.77.36-.87.36 1.08.37-1.13.36 1.2.36-1.29.36 1.28.36-1.33.37 1.24.36-1.27.36.05.36 1.15.36-1.17.37-.12.36 1.09.36-1.08.36 1.14.37-1.28.36 1.23.36-1.29.36 1.3.36-1.41.37.1.36 1.13.36-1.15.36 1.17.36-1.19.37 1.14.36-1.29.36 1.25.36-1.28.36.05.37 1.18.36-1.27.36.02.36 1.11.37-1.12.36 1.15.36-1.3.36 1.19.36-1.2.37 1.2.36-1.23.36.03.36 1.13.36-1.17.37 1.07.36-1.12.36-.07.36 1.08.36-1.18.37 1.29.36-1.24.36 1.05.36-1.21.37 1.26.36-1.32h.36l.36 1.23.36-1.19.37 1.14.36-1.27.36 1.19.36-1.17.36 1.22.37-1.29.36-.02.36 1.2.36-1.25.36.06.37 1.12.36-1.13.36 1.12.36-1.24.36 1.16.37-1.16.36 1.21.36-1.3.36.04.37 1.15.36-1.28.36 1.19.36-1.2.36-.07.37 1.14.36-1.14.36 1.15.36-1.26.36 1.23.37-1.25.36.04.36 1.06.36-1.04.36 1.07.37-1.24.36 1.19.36-1.16.36 1.19.37-1.23.36 1.15.36-1.19.36-.13.36 1.34.37-1.29.36.06.36 1.12.36-1.17.36 1.14.37-1.23.36 1.22.36-1.21.36 1.21.36-1.28.37.1.36 1 .36-1.16.36 1.2.36-1.26.37-.02.36 1.19.36-1.21.36 1.15.37-1.21.36 1.22.36-1.3.36.11.36 1.11.37-1.22.36 1.16.36-1.27.36 1.16.36-1.12.37 1.2.36-1.28.36.02.36 1.13.36-1.22.37.06.36 1.05.36-1.11.36 1.18.37-1.17.36 1.17.36-1.26.36 1.14.36-1.26.37 1.24.36-1.28.36.05.36 1.15.36-1.15.37 1.07.36-1.19.36.02.36 1.21.36-1.33.37 1.25.36-1.21.36 1.2.36-1.18h.36l.37 1.09.36-1.14.36 1.16.36-1.23.37 1.2.36-1.29.36 1.29.36-1.26h.36l.37 1.12.36-1.31.36.14.36 1.12.36-1.25.37 1.23.36-1.27.36 1.26.36-1.17.36 1.13.37-1.14.36.07.36 1.08.36-1.16.37 1.03.36-1.14.36 1.21.36-1.17.36-.07.37 1.07.36-1.11.36 1.16.36-1.22.36 1.14.37-1.28.36.07.36 1.19.36-1.19.36 1.14.37-1.23.36 1.15.36-1.13.36 1.2.37-1.26h.36l.36 1.18.36-1.25.36.05.37 1.08.36-1.18.36 1.15.36-1.13.36 1.18.37-1.34.36 1.25.36-1.21.36.06.36 1.09.37-1.15.36 1.09.36-1.15.36 1.18.36-1.25.37-.02.36 1.14.36-1.15.36 1.17.37-1.25.36.06.36 1.05.36-1.06.36 1.11.37-1.18.36 1.15.36-1.23.36 1.22.36-1.17.37 1.22.36-1.27.36-.03.36 1.14.36-1.18.37.03.36 1.11.36-1.18.36 1.13.37-1.15.36 1.17.36-1.42.36 1.37.36-1.23.37.05.36 1.08.36-1.12.36 1.13.36-1.18.37 1.16.36-1.33h.36l.36 1.2.36-1.19.37 1.08.36-1.01.36-.01.36 1.06.36-1.09.37 1.11.36-1.15.36 1.14.36-1.1.37 1.09.36-1.18.36.09.36 1.05.36-1.14.37-.05.36 1.02.36-1.03.36 1.1.36-1.16.37 1.18.36-1.24.36 1.24.36-1.2.36 1.16.37-1.29.36.05.36 1.13.36-1.17.37 1.19.36-1.2.36 1.18.36-1.22.36-.04.37 1.17.36-1.08.36 1.08.36-1.24.36.01.37 1.12.36-1.08.36 1.1.36-1.18.36 1.14.37-1.12.36 1.18.36-1.22h.36l.36 1.05.37-1.14.36.02.36 1.05.36-1.07.37 1.07.36-1.2.36 1.14.36-1.17.36 1.29.37-1.31.36.1.36.97.36-1.06.36 1.14.37-1.2.36 1.15.36-1.21.36 1.26.36-1.26.37-.06.36 1.23.36-1.25.36 1.27.37-1.24.36-.04.36 1.13.36-1.18.36 1.15.37-1.19.36 1.25.36-1.25.36 1.21.36-1.25h.37l.36 1.21.36-1.23.36-.03.36 1.18.37-1.15.36 1.11.36-1.16.36 1.2.37-1.19.36 1.17.36-1.2.36.06.36 1.13.37-1.21.36 1.18.36-1.19.36 1.15.36-1.19.37 1.16.36-1.22.36-.11.36 1.26.36-1.22.37.07.36 1.02.36-1.07.36 1.07.36-1.17.37 1.15.36-1.19.36 1.03.36-1.05.37 1.26.36-1.3.36.07.36 1.02.36-1.04.37-.13.36 1.15.36-1.05.36 1.08.36-1.17.37 1.12.36-1.21.36 1.33.36-1.24.36-.05.37 1.14.36-1.11.36.99.36-1.01.37 1.1.36-1.24.36 1.19.36-1.17.36-.07.37 1.25.36-1.22.36.07.36 1.05.36-1.15.37 1.1.36-1.13.36 1.17.36-1.16.36 1.16.37-1.2.36.03.36 1 .36-1.02.36 1.04.37-1.27.36-.01.36 1.05.36-1.37.37 1.17.36-1.13.36 1.27.36-1.25.36 1.3.37-1.22.36.06.36 1.16.36-1.11.36 1.12.37-1.09.36 1.18.36-1.26.36 1.23.36-1.23.37-.03.36 1.24.36-1.26.36.08.37 1.08.36-1.14.36 1.15.36-1.22.36 1.2.37-1.22.36 1.23.36-1.27.36.05.36 1.05.37-1.07.36 1.21.36-1.22.36-.1.36 1.12.37-1.11.36 1.11.36-1.07.36 1.08.36-1.12.37.02.36 1.07.36-1.15.36 1.13.37-1.16.36 1.15.36-1.2.36 1.18.36-1.12.37 1.16.36-1.24.36-.07.36 1.2.36-1.28.37.04.36 1.16.36-1.19.36 1.14.36-1.17.37 1.15.36-1.11.36 1.22.36-1.21.37-.02.36 1.07.36-1.1.36.98.36-1.05.37-.07.36 1.17.36-1.15.36 1.15.36-1.11.37 1.1.36-1.13.36-.19.36 1.31.36-1.1.37 1.08.36-1.17.36 1.16.36-1.08.37 1.14.36-1.22.36-.02.36 1.14.36-1.25.37.15.36.96.36-1.02.36 1.08.36-1.2.37 1.17.36-1.18.36 1.17.36-1.11.36 1.14.37-1.22.36.06.36 1.09.36-1.13.36 1.14.37-1.32.36-.05.36 1.17.36-1.22.37 1.19.36-1.19.36 1.2.36-1.13.36.04.37 1.14.36-1.15.36 1.07"/><use xlink:href="#0137d__a" color="#3B75EA" transform="matrix(3.75 0 0 3.75 240.55 126.07)"/><use xlink:href="#0137d__a" color="#3B75EA" transform="matrix(3.75 0 0 3.75 220.55 7.51)"/></g><text stroke-linecap="round" stroke-linejoin="round" color="#000" font-family="KaTeX_Main" font-size="8" transform="translate(241.1 25.11)"><tspan>LBSTRelaxed</tspan></text><g fill="none" stroke="currentColor" stroke-linecap="round" stroke-linejoin="round" color="#000"><path stroke="#FFAB00" stroke-dasharray="4.0,2.0,1.0,2.0" d="M205.6 22.51h29.9M28 155.95l.36-1.22.36-.03.37.77.36-1.25.36 1.06.36-1.32.36 1.07.37-1.46.36 1.15.36-1.73.36 1.43.37-1.51.36-.38.36 1.44.36-1.57.36-.12.37 1.1.36-1.38.36 1 .36-1.4.36 1.04.37-1.48.36 1 .36-1.45.36-.04.36.79.37-1.53.36.8.36-.8.36-.24.36 1.09.37-1.29.36.75.36-2.34.36 2.3.37-1.64.36-.44.36 1.66.36-1.54.36 1.23.37-1.61.36 1.4.36-1.45.36 1.17.36-2.23.37.31.36 1.2.36-1.38.36 1.51.36-1.79.37-.78.36 2.03.36-1.34.36.79.37-1.05.36 1.11.36-1.38.36 1.22.36-1.46.37-.04.36 1 .36-1.26.36 1.13.36-1.4.37-.16.36 1.22.36-1.38.36 1.07.36-1.46.37 1.17.36-1.46.36.05.36 1.03.37-1.19.36 1.07.36-1.22.36 1.1.36-1.47.37 1.4.36-1.48.36-.1.36 1.2.36-1.33.37-.07.36.94.36-1.84.36 1.22.36-.99.37 1.23.36-1.14.36 1.2.36-1.34.36.01.37 1.02.36-1.11.36.98.36-1.41.37.33.36-.41.36-.1.36 1.15.36-1.76.37 1.21.36-.99.36 1.21.36-1.57.36.11.37.79.36-.94.36.03.36-.23.36.63.37-.83.36 1.17.36-2.03.36.01.37 1.41.36-.99.36-.01.36 1.09.36-1.32.37.63.36-.77.36 1.14.36-1.32.36 1.3.37-1.46.36-.12.36 1.2.36-1.39.36 1.09.37-1.27.36.95.36-1.87.36.43.36 1.61.37-1.3.36.02.36-.22.36-.22.37 1.27.36-1.27.36 1.21.36-8.82.36 8.31.37-1.09.36 1.2.36-1.31.36.65.36-1.38.37.09.36 1.54.36-1.31.36-.73.36 1.67.37-1.61.36-.1.36.52.36 1.14.37-1.28.36 1.24.36-1.33.36.04.36 1.07.37-1.28.36 1.18.36-1.34.36 1.27.36-1.42.37-.08.36 1.21.36-1.24.36 1.25.36-1.41h.37l.36 1.1.36-1.34.36 1.07.36-1.09.37 1.04.36-1.37.36 1.23.36-1.21.37-.04.36 1.05.36-1.09.36.93.36-1.1.37-.05.36.88.36-1.04.36 1.2.36-1.3.37 1.2.36-1.29.36 1.26.36-1.25.36-.12.37 1.1.36-1.22.36 1.16.36-1.3.37 1.21.36-1.25.36-.14.36 1.19.36-1.32.37 1.13.36-1.38.36.08.36 1.11.36-1.25.37 1.21.36-1.27.36 1.23.36-1.37.36 1.23.37-1.21.36-.01.36-.08.36-.19.37-.09.36 1.16.36-1.07.36.98.36-1.17.37.99.36-1.35.36 1.19.36-1.23.36-.72.37 1.84.36-1.14.36 1.15.36-1.15.36 1.16.37-1.34.36 1.08.36-1.14.36-.17.36 1.25.37-1.24.36 1.17.36-1.25.36-.05.37.97.36-1.03.36 1.19.36-1.39.36 1.38.37-1.33.36 1.19.36-1.38.36.02.36 1.11.37-1.23.36-.04.36.98.36-1.22.36 1.23.37-1.23.36 1.27.36-1.25.36.45.37-.63.36.18.36.85.36-1.24.36 1.19.37-2.06.36 1.94.36-1.27.36 1.2.36-1.17.37-.14.36 1.19.36-1.27.36.21.36.33.37-.97.36 1.14.36-.9.36 1.03.36-4.91.37 4.1.36-.39.36 1.19.36-1.29.37.09.36 1.11.36-1.14.36-3.07.36 3.9.37-1.17.36 1.19.36-1.16.36 1.2.36-1.28.37 1.14.36-1.25.36.07.36 1.07.36-1.13.37 1.1.36-1.18.36 1.18.36-1.84.37 1.19.36-.85.36-.1.36 1.25.36-1.39.37-1.07.36 2.12.36-1.44.36 1.42.36-1.18.37.72.36-.7.36 1.25.36-2.73.36.92.37 1.56.36-1.13.36 1.15.36-1.67.36.35.37 1.06.36-1.73.36 1.56.36-1.21.37 1.14.36-1.19.36 1.34.36-2.01.36-.07.37 1.97.36-1.15.36 1.04.36-1.78.36 1.76.37-1.21.36 1.16.36-1.24.36-.08.36 1.23.37-2.2.36.95.36.29.36-.39.37.99.36-1.35.36 1.47.36-1.24.36 1.19.37-1.22.36.01.36 1.08.36-1.45.36 1.45.37-2.19.36.74.36-.37.36-.93.36-.71.37 1.78.36 1.23.36-1.21.36.18.37 1.07.36-1.1.36 1.01.36-1.11.36 1.14.37-1.24.36 1.2.36-1.31.36 1.29.36-1.21.37-.18.36 1.25.36-1.38.36.02.36 1.24.37-1.27.36 1.23.36-1.26.36 1.12.36-1.21.37 1.11.36-1.35.36.12.36 1 .37-1.15.36 1.01.36-1.22.36.07.36 1.15.37-1.19.36 1.19.36-1.29.36 1.37.36-1.33.37.02.36 1.14.36-1.27.36 1.27.36-1.24.37 1.1.36-1.32.36 1.25.36-1.26.37.14.36 1.03.36-1.17.36 1.31.36-1.49.37.15.36 1.03.36-1.09.36 1.07.36-1.22.37 1.29.36-1.3.36 1.18.36-1.13.36-.22.37 1.17.36-1.22.36 1.21.36-1.13.36-.2.37 1.19.36-1.1.36 1.15.36-1.18.37 1.06.36-1.12.36-.11.36 1.09.36-1.2.37 1.13.36-1.33.36 1.46.36-1.31.36 1.13.37-1.15.36-.02.36 1.21.36-1.31.36.05.37 1.14.36-1.18.36 1.13.36-1.39.37 1.26.36-1.18.36 1.04.36-1.1.36.09.37.96.36-1.13.36 1.15.36-1.27.36 1.2.37-1.26.36.01.36 1.22.36-1.31.36 1.25.37-1.36.36 1.08.36-1.22.36.08.37 1.24.36-1.18.36 1.18.36-1.3.36 1.28.37-1.22.36 1.12.36-1.18.36-.21.36.85.37-.84.36-.04.36 1.04.36-1.15.36 1.19.37-1.22.36.4.36-.32.36.9.36-.99.37-.62.36 1.77.36-1.17.36 1.19.37-1.17.36 1 .36-1.1.36-.74.36 1.64.37-1.24.36 1.14.36-1.03.36.16.36.98.37-1.02.36 1.04.36-1.2.36 1.22.36-1.24.37 1.16.36-1.28.36 1.19.36-1.28.37.16.36.94.36-1.19.36.02.36 1.11.37-1.09.36 1.18.36-1.22.36 1.17.36-1.23.37 1.12.36-2.22.36 1.06.36 1.06.36-1.16.37-3.75.36 3.57.36 1.24.36-1.25.36-.09.37 1.3.36-1.27.36 1.1.36-1.18.37.06.36 1.07.36-1.29.36 1.01.36-1.09.37 1.2.36-1.09.36 1.18.36-1.12.36-.01.37 1.03.36-1.07.36 1.05.36-1.19.36.06.37 1.14.36-1.39.36 1.25.36-1.11.37 1.18.36-1.49.36 1.22.36-1.29.36.17.37 1.2.36-1.19.36 1.1.36-1.19.36 1.26.37-1.23.36-.06.36 1.18.36-1.21.36 1.11.37-2.07.36.89.36 1.04.36-1.05.36 1.09.37-1.15.36 1.07.36-1.22.36 1.12.37-1.22.36.03.36.98.36-1.23.36.07.37 1.23.36-1.11.36 1.08.36-1.1.36 1.18.37-1.24.36.54.36-.57.36.01.36 1.16.37-1.35.36 1.24.36-1.16.36 1.16.37-1.19.36.95.36-3.16.36 2.09.36 1.25.37-1.44.36 1.25.36-1.27.36-2.4.36 3.23.37-.8.36 1.14.36-6.18.36 3.32.36 1.42.37 1.31.36-1.16.36-.86.36.19.37.7.36-.12.36 1 .36-1.09.36 1.21.37-1.21.36 1.09.36-2.38.36 2.46.36-1.22.37.1.36-1.31.36 1.16.36 1.13.36-1.12.37 1.06.36-1.17.36-.12.36.09.36-.07.37 1.16.36-1.25.36.18.36.56.37-1.02.36 1.2.36-.9.36.86.36-.86.37 1.13.36-1.91.36 1.8.36-1.08.36.09.37.99.36-12.91.36 11.44.36 1.18.36-.92.37 1.06.36-5.34.36 4.05.36.02.37 1.22.36-1.12.36-.18.36 1.25.36-2.48.37 2.49.36-1.31.36 1.25.36-1.72.36 1.58.37-1.29.36-.05.36 1.11.36-1.06.36.18.37.87.36-1.08.36 1.13.36-1.34.36.34.37-.38.36 1.33.36-1.14.36-.71.37 1.57.36-1.02.36 1.39.36-1.33.36.1.37 1.1.36-1.16.36 1.04.36-1.21.36-.45.37.45.36-.14.36.08.36-1.24.36.55.37.71.36 1.26.36-1.27.36 1.25.37-1.44.36.02.36.04.36-.01.36 1.2.37-1.23.36.02.36 1.06.36-1.11.36 1.16.37-1.11.36 1.09.36-2.13.36.49.36.33.37.1.36.45.36-6.32.36 6.7.36-1.4.37.15.36 1.37.36-1.18.36 1.22.37-1.19.36-.7.36-2.65.36 3.34.36 1.1.37-1.4.36 1.34.36-1.17.36.91.36-.88.37 1.05.36-1.06.36.94.36-1.08.36-.15.37 1.35.36-1.33.36.11.36.92.37-1.19.36 1.18.36-11.59.36 11.52.36-1.61.37 1.69.36-1.22.36.11.36 1.19.36-1.25.37-1.36.36 1.23.36-.04.36 1.22.36-1.12.37 1.24.36-7.52.36 7.33.36-1.02.37.04.36-.09.36.04.36 1.07.36-11.9.37 10.68.36-1.68.36 1.92.36-.82.36.31.37 1.08.36-.98.36.42.36-.45.36-.09.37 1.32.36-1.26.36 1.16.36-1.19.36 1.22.37-1.31.36 1.15.36-1.1.36.06.37 1 .36-1.16.36 1.22.36-1.21.36.08.37 1.08.36-1.1.36 1.13.36-1.18.36 1.12.37-1.24.36.1.36 1.08.36-1.02.36 1.02.37-1.24.36 1.17.36-1.23.36 1.17.37-1.24.36.14.36 1 .36-1.26.36-.04.37 1.1.36-1.01.36 1.08.36-1.09.36 1.36.37-1.37.36 1.16.36-1.77.36-.09.36 1.16.37-.83.36 1.19.36-1.03.36 1.21.36-1.23.37-.31.36 1.14.36-1 .36 1.35.37-1.27.36 1.29.36-1.18.36.07.36 1.01.37-1.06.36.91.36-1.23.36 1.31.36-1.28.37 1.36.36-1.25.36.05.36 1.05.36-1.09.37-.04.36 1.17.36-1.24.36 1.05.37-1.19.36 1.15.36-1.12.36 1.21.36-1.2.37.06.36 1.04.36-1.09.36 1.22.36-1.31.37 1.15.36-1.19.36.07.36 1.2.36-1.29.37 1.22.36-1.28.36.17.36.92.36-1.04.37 1.01.36-.96.36 1 .36-1.13.37 1.1.36-1.43.36 1.09.36-1.21.36.24.37 1 .36-1.05.36-1.06.36 2.16.36-1.72.37 1.32.36-.93.36 1.19.36-1.17.36 1.22.37-1.2.36.13.36 1.14.36-1.14.37 1.15.36-1.2.36 1.25.36-1.3.36.07.37 1.08.36-1.04.36 1.11.36-1.43.36.17.37.98.36-1.01.36 1.11.36-1.17.36 1.18.37-1.15.36 1.13.36-1.15.36.06.37 1.04.36-1.16.36 1.05.36-1.3.36.09.37 1.19.36-1.09.36 1.13.36-1.18.36 1.24.37-1.28.36 1.3.36-1.3.36.02.36 1.11.37-1.02.36 1.07.36-1.16.36 1.14.36-1.31.37-.1.36 1.21.36-1.18.36 1.21.37-1.09.36-.08.36 1.01.36-1.17.36 1.1.37-1.18.36 1.31.36-1.14"/><use xlink:href="#0137d__h" color="#FFAB00" transform="matrix(3.75 0 0 3.75 298.12 118.5)"/><use xlink:href="#0137d__h" color="#FFAB00" transform="matrix(3.75 0 0 3.75 220.55 22.51)"/></g><text stroke-linecap="round" stroke-linejoin="round" color="#000" font-family="KaTeX_Main" font-size="8" transform="translate(241.1 40.11)"><tspan>TreapTopDown</tspan></text><g fill="none" stroke="currentColor" stroke-linecap="round" stroke-linejoin="round" color="#000"><path stroke="#00C853" stroke-dasharray="4.5,2.0,0.5,2.0,0.5,2.0" d="M205.6 37.51h29.9M28 151.99l.36-.06.36 1.08.37-1.46.36 1.11.36-1.52.36 1.1.36-1.57.37 1.17.36-1.71.36-.1.36 1 .37-1.69.36-.05.36 1 .36-1.51.36 1.09.37-1.56.36 1.07.36-1.56.36 1.08.36-1.72.37-.06.36.88.36-1.39.36.92.36-1.62.37 1.12.36-1.54.36-.37.36 1.05.36-1.56.37 1.1.36-1.68.36-.12.36.59.37-1.28.36.92.36-1.45.36 1.03.36-1.49.37 1.06.36-1.65.36.01.36.68.36-1.26.37.72.36-1.62.36.18.36 1 .36-1.3.37 1.13.36-1.57.36.92.36-1.36.37 1.23.36-1.75.36-.04.36 1.16.36-1.26.37 1.07.36-1.53.36 1.28.36-1.52.36-.26.37 1.21.36-1.52.36 1.17.36-1.52.36.03.37.98.36-1.39.36 1.11.36-1.39.37 1.19.36-1.54.36 1.27.36-1.49.36-.08.37 1.03.36-1.35.36-.25.36 1.16.36-1.27.37.97.36-1.34.36 1.18.36-1.52.36 1.34.37-1.57.36.13.36.79.36-1.19.36 1.02.37-1.3.36 1.07.36-1.43.36 1.17.37-1.53.36-.1.36 1.17.36-1.41.36 1.23.37-1.55.36.21.36.89.36-1.7.36 1.07.37-1.37.36 1.44.36-1.37.36 1.34.36-1.33.37-.06.36 1.06.36-1.37.36-.14.37 1.13.36-1.4.36 1.27.36-1.33.36 1.13.37-1.34.36 1.19.36-1.52.36.07.36 1.06.37-1.25.36 1.18.36-1.43.36 1.22.36-1.39.37 1.25.36-1.61.36-.07.36 1.24.36-1.38.37 1.33.36-1.74.36.16.36 1.17.37-1.29.36 1.24.36-1.48.36 1.07.36-1.56.37 1.28.36-1.26.36.06.36 1.13.36-1.31.37-.1.36 1.06.36-1.15.36 1.21.36-1.47.37 1.28.36-1.42.36 1.26.36-1.5.37.01.36 1.28.36-1.4.36 1.19.36-1.41.37 1.16.36-1.3.36 1.14.36-1.34.36-.1.37 1.21.36-1.46.36.07.36 1.11.36-1.2.37.99.36-1.49.36 1.29.36-1.18.36 1.13.37-1.34.36.14.36.83.36-1.19.37 1.17.36-1.31.36-.39.36 1.13.36-1.28.37 1.13.36-1.22.36 1.43.36-1.28.36 1.2.37-1.42.36-.02.36 1.12.36-1.22.36 1.1.37-1.23.36 1.19.36-1.46.36 1.25.37-1.4.36-.11.36 1.45.36-1.48.36.04.37.94.36-1.23.36 1.1.36-1.23.36 1.25.37-1.38.36 1.07.36-1.38.36.16.36 1.06.37-1.14.36 1.1.36-1.46.36-.12.37 1.17.36-1.11.36 1.25.36-1.39.36 1.33.37-1.42.36 1.33.36-1.52.36.07.36 1.12.37-1.25.36 1.2.36-1.35.36 1.2.36-1.26.37 1.28.36-1.37.36-.1.36 1.34.36-1.41.37-.05.36 1.08.36-1.27.36 1.06.37-1.17.36 1.17.36-1.33.36 1.13.36-1.17h.37l.36 1.11.36-1.3.36 1.22.36-1.28.37-.09.36 1.02.36-1.6.36 1.37.36-1.4.37 1.34.36-1.27.36.18.36.98.37-1.14.36 1.12.36-1.34.36 1.34.36-1.39.37 1.26.36-1.34.36.09.36.99.36-1.28.37 1.22.36-1.31.36.01.36 1.2.36-1.24.37 1.15.36-1.41.36 1.3.36-1.5.36 1.15.37-1.26.36.06.36 1.2.36-1.33.37.93.36-1.33.36.01.36 1.3.36-1.23.37 1.19.36-1.11.36 1.23.36-1.42.36.03.37.89.36-1.01.36.86.36-1.25.36 1.37.37-1.28.36 1.15.36-1.31.36.16.37 1.01.36-1.3.36.19.36 1 .36-1.33.37 1.17.36-1.26.36 1.16.36-1.2.36 1.23.37-1.37.36.03.36.98.36-.97.36.94.37-1.21.36.98.36-1.34.36-.06.36 1.16.37-1.32.36 1.43.36-1.26.36 1.22.37-1.21.36-.01.36 1.16.36-1.09.36.95.37-1.21.36 1.17.36-1.26.36 1.23.36-1.27.37-.07.36 1.12.36-1.38.36.08.36 1.19.37-1.05.36.8.36-1.27.36 1.26.37-1.3.36 1.31.36-1.35.36-.24.36.91.37-.84.36 1.19.36-1.22.36 1.22.36-1.25.37-.05.36 1.08.36-1.08.36 1.37.36-1.49.37 1.26.36-1.35.36.03.36 1.17.37-1.28.36 1.31.36-1.4.36 1.23.36-1.37.37 1.33.36-1.45.36.1.36 1.09.36-1.43.37.03.36 1.23.36-1.24.36 1.14.36-1.16.37 1.19.36-1.22.36.92.36-1.59.36.22.37 1.01.36-1.11.36 1.35.36-1.21.37 1.32.36-1.36.36.06.36 1.14.36-1.27.37 1.29.36-1.47.36.06.36 1.16.36-1.16.37 1.16.36-1.18.36 1.14.36-1.46.36 1.36.37-1.3.36-.03.36.78.36-.92.37 1.21.36-1.38.36.08.36.88.36-1.32.37 1.26.36-1.14.36 1.22.36-1.1.36 1.2.37-1.33.36.09.36 1.08.36-1.19.36 1.09.37-1.35.36 1.37.36-1.38.36-.16.36 1.29.37-1.32.36 1.3.36-1.28.36.09.37 1 .36-1.17.36 1.24.36-1.29.36 1.13.37-1.33.36 1.3.36-1.35.36-.48.36 1.26.37-1.01.36-.47.36 1.28.36-1.12.36 1.33.37-1.29.36 1.22.36-1.19.36 1.28.37-1.21.36.14.36 1.1.36-1.3.36 1.33.37-1.51.36 1.25.36-1.2.36 1.12.36-1.21.37-.03.36 1.32.36-1.56.36 1.37.36-1.59.37.18.36 1.18.36-1.05.36 1.05.37-1.39.36 1.12.36-1.27.36 1.13.36-1.42.37.22.36 1.23.36-1.18.36-.07.36 1.22.37-1.17.36 1.16.36-1.33.36 1.31.36-1.24.37 1.39.36-1.48.36.17.36.96.36-.9.37.82.36-1.1.36 1.05.36-1.43.37 1.39.36-1.29.36-.11.36 1.3.36-1.31.37 1.33.36-1.34.36-.25.36 1.07.36-1.19.37 1.11.36-1.05.36 1.29.36-1.19.36 1.18.37-1.12.36-.03.36 1.06.36-1.12.37-.1.36 1.13.36-1.11.36 1.01.36-1.08.37 1.17.36-1.38.36 1.24.36-1.24.36.15.37.61.36-1 .36 1.15.36-1.06.36 1.11.37-1.39.36 1.16.36-1.29.36-.05.36 1.42.37-1.25.36.09.36.94.36-.99.37 1.05.36-1.11.36 1.07.36-1.11.36 1.32.37-1.28.36.06.36.91.36-1.19.36 1.05.37-1.23.36-.01.36 1.14.36-1.07.36 1.01.37-1.26.36 1.39.36-1.52.36 1.36.37-1.39.36.19.36.86.36-1.28.36 1.18.37-1.2.36 1.34.36-1.17.36 1.22.36-1.12.37-.19.36 1.36.36-1.42.36.13.36 1.13.37-1.22.36 1.24.36-1.39.36 1.27.36-1.29.37 1.23.36-1.28.36.05.36.84.37-1.22.36 1.31.36-1.23.36-.03.36 1.19.37-1.54.36 1.26.36-1.22.36 1.34.36-1.14.37 1.19.36-1.07.36-.04.36 1.12.36-1.1.37.92.36-1.22.36 1.23.36-1.21.37 1.16.36-1.26.36-.11.36 1.38.36-1.65.37-.11.36 1.1.36-1.1.36.97.36-1.06.37 1.38.36-1.23.36 1.24.36-1.23.36.03.37.8.36-1.08.36 1.06.36-1.12.37.03.36 1.29.36-1.2.36 1.12.36-1.24.37 1.37.36-1.3.36.15.36 1 .36-1.1.37 1.12.36-1.28.36 1.12.36-1.25.36 1.27.37-1.32.36.02.36.91.36-1.05.36 1.31.37-1.33.36-.6.36.78.36-1.05.37 1.48.36-1.26.36 1.39.36-1.07.36 1.24.37-1.21.36-.1.36.98.36-1.11.36 1.07.37-1.27.36-.02.36 1.25.36-1.12.36 1.23.37-1.35.36 1.16.36-1.15.36-.05.37.95.36-.98.36 1.18.36-1.18.36 1.1.37-1.11.36.96.36-1.49.36.24.36 1.11.37-1.23.36.08.36.9.36-.98.36 1.28.37-1.3.36 1.17.36-1.1.36 1.06.36-1.22.37.23.36.94.36-.89.36.98.37-1.06.36.89.36-1.08.36-.24.36 1.39.37-1.24.36 1.27.36-1.31.36 1.24.36-1.51.37.13.36 1.29.36-1.15.36 1.17.36-1.24.37 1.24.36-1.24.36 1.07.36-1.18.37.14.36.89.36-1.26.36.16.36.93.37-.98.36 1.17.36-1.24.36 1.23.36-1.37.37 1.35.36-1.47.36.19.36.97.36-1.12.37 1.19.36-1.23.36 1.01.36-1.45.36-.03.37 1.14.36-1.14.36 1.25.36-1.02.37 1.27.36-1.28.36.1.36 1 .36-1.26.37 1.4.36-1.32.36 1.26.36-1.49.36 1.26.37-1.32.36.14.36 1.06.36-1.31.36.12.37 1.01.36-1.11.36 1.25.36-1.12.37 1.08.36-1.44.36 1.35.36-1.07h.36l.37 1.04.36-1.1.36 1.1.36-1.15.36 1.22.37-1.38.36-.02.36 1.29.36-1.24.36 1.33.37-1.35.36-.04.36 1.01.36-1.12.37 1.17.36-1.26.36 1.23.36-1.22.36 1.24.37-1.24.36.18.36.75.36-1.3.36 1.21.37-1.35.36.17.36 1.22.36-1.2.36 1.39.37-1.31.36 1.21.36-1.26.36.95.36-1.23.37.19.36 1 .36-1.11.36 1.11.37-1.13.36 1.17.36-1.24.36-.19.36 1.31.37-1.39.36 1.28.36-1.12.36.21.36.96.37-1.08.36 1.13.36-1.3.36 1.28.36-1.3.37 1.18.36-1.37.36.06.36 1.18.37-1.13.36-.02.36 1 .36-.96.36 1.18.37-1.26.36 1.17.36-1.25.36 1.16.36-1.33.37.06.36.98.36-1 .36 1.3.36-1.41.37 1.15.36-1.37.36.97.36-1.01.36-.19.37 1.38.36-1.25.36 1.34.36-1.15.37.08.36 1.05.36-1.01.36 1.16.36-1.21.37 1.1.36-1.28.36 1.22.36-1.3.36.14.37 1.02.36-1.26.36-.06.36 1.14.36-1.12.37 1.18.36-1.12.36.87.36-1.06.37 1.22.36-1.33.36.28.36 1.08.36-1.15.37 1.12.36-1.28.36 1.2.36-1.16.36 1.04.37-1.24.36.24.36 1.1.36-1.21.36 1.24.37-1.41.36.25.36 1.01.36-1.33.36 1.12.37-1.05.36 1.19.36-1.24.36 1.2.37-1.47.36-.1.36 1.13.36-1.11.36.08.37 1.28.36-1.24.36 1.22.36-1.19.36 1.31.37-1.34.36 1.25.36-1.24.36-.04.36 1.05.37-1.09.36 1.12.36-1.19.36 1.22.37-1.35.36 1.22.36-1.28.36.04.36 1.31.37-1.5.36-.03.36 1.27.36-1.04.36 1.09.37-1.18.36 1.19.36-1.18.36 1.25.36-1.2.37-.03.36.99.36-.96.36 1.02.37-1.12.36-.08.36 1.01.36-1.18.36 1.27.37-1.22.36 1.27.36-1.3.36 1.22.36-1.39.37.06.36.98.36-1.17.36.97.36-1.12.37 1.14.36-1.01.36 1.22.36-1.34.36.15.37 1.21.36-1.06.36-.11.36 1.06.37-1.21.36 1.18.36-1.15.36 1.31.36-1.33.37 1.28.36-1.27.36-.28"/><use xlink:href="#0137d__i" color="#00C853" transform="matrix(3.75 0 0 3.75 355.7 99.55)"/><use xlink:href="#0137d__i" color="#00C853" transform="matrix(3.75 0 0 3.75 220.55 37.51)"/></g><text stroke-linecap="round" stroke-linejoin="round" color="#000" font-family="KaTeX_Main" font-size="8" transform="translate(241.1 55.11)"><tspan>Splay</tspan></text><g fill="none" stroke="currentColor" stroke-linecap="round" stroke-linejoin="round" color="#000"><path stroke="#29C3F6" d="M205.6 52.51h29.9M28 149.54l.36-1.24.36 1.33.37-1.5.36.12.36.85.36-1.22.36 1.17.37-1.42.36-.31.36 1.11.36-1.51.37.97.36-1.74.36 1.26.36-1.61.36-.01.37 1.02.36-1.34.36.98.36-1.5.36 1.17.37-1.63.36 1.23.36-1.65.36.04.36.65.37-1.46h.36l.36.7.36-1.12.36.93.37-1.49.36 1.09.36-1.62.36 1 .37-1.69.36 1.38.36-1.81.36-.04.36.83.37-1.75.36 1.38.36-1.59.36-.59.36 1.29.37-1.45.36.91.36-1.87.36 1.36.36-1.67.37.11.36.93.36-1.07.36 1.07.37-1.63.36 1.05.36-1.5.36 1.16.36-1.74.37.03.36.83.36-1.64.36.02.36.98.37-1.34.36 1.09.36-1.38.36 1.06.36-1.66.37 1.25.36-1.66.36.15.36.88.37-1.43.36 1.13.36-1.75.36 1.21.36-1.51.37-.08.36 1.32.36-1.6.36 1.4.36-1.48.37 1.17.36-1.62.36.02.36 1.07.36-1.85.37 1.05.36-1.3.36 1.55.36-1.51.36 1.23.37-1.53.36-.13.36 1.24.36-1.7.37.08.36.96.36-1.46.36 1.27.36-1.73.37 1.35.36-1.42.36 1.37.36-1.45.36-.08.37.74.36-1.09.36 1.06.36-1.71.36 1.34.37-1.21.36-.12.36 1.34.36-1.62.37 1.28.36-1.53.36.04.36 1.02.36-1.3.37 1.02.36-1.52.36 1.19.36-1.38.36 1.48.37-1.79.36 1.31.36-1.92.36-.1.36 1.32.37-1.75.36.06.36 1.41.36-1.51.36 1.5.37-1.37.36 1.21.36-1.48.36 1.4.37-1.48.36-.01.36 1.04.36-1.19.36 1.19.37-1.53.36 1.23.36-1.67.36.27.36 1.19.37-1.56.36 1.31.36-1.66.36.05.36 1.06.37-1.24.36 1.23.36-1.36.36 1.08.37-1.46.36 1.31.36-1.48.36-.08.36 1.12.37-1.25.36-.16.36.92.36-1.1.36 1.07.37-1.2.36 1.08.36-1.33.36 1.38.36-1.86.37 1.5.36-1.48.36-.22.36 1.08.36-1.49.37 1.21.36-1.31.36 1.39.36-1.41.37-.28.36 1.36.36-1.37.36 1.36.36-1.49.37.2.36.88.36-1.18.36 1.24.36-1.57.37 1.17.36-1.71.36 1.63.36-1.65.36.39.37.93.36-1.77.36-.07.36 1.27.37-1.13.36.78.36-.96.36 1.06.36-1.09.37 1.24.36-1.14.36-.27.36 1.06.36-1.1.37 1.14.36-1.22.36 1.03.36-1.23.36 1.23.37-1.41.36-.37.36 1.41.36-1.5.37 1.43.36-1.37.36.01.36 1.08.36-1.43.37 1.25.36-1.36.36 1.44.36-1.63.36 1.36.37-1.41.36.07.36.93.36-1.19.36-.19.37.97.36-1.06.36 1.33.36-1.44.36.69.37-1 .36 1.01.36-1.28.36.04.37 1.34.36-1.62.36 1.41.36-1.52.36 1.32.37-1.39.36 1.4.36-1.35.36-.09.36 1.12.37-1.22.36-.03.36.99.36-1.2.36 1.12.37-1.13.36 1.11.36-1.37.36.82.37-1.31.36 1.56.36-1.92.36.4.36.79.37-1.29.36.16.36 1.18.36-1.05.36 1.11.37-1.42.36 1.37.36-1.56.36 1.35.36-1.44.37.16.36 1.09.36-1.26.36 1.27.36-1.47.37 1.42.36-1.56.36 1.31.36-1.38.37-.13.36 1.41.36-1.44.36.02.36 1.01.37-1.06.36 1.02.36-1.19.36 1.03.36-1.34.37 1.45.36-1.48.36-.11.36.46.36-1.03.37.98.36-1.13h.36l.36 1.44.37-1.3.36 1.31.36-1.6.36 1.33.36-1.47.37 1.51.36-1.32.36-.08.36 1.3.36-1.31.37 1.03.36-1.34.36 1.23.36-1.41.36 1.49.37-1.58.36-.59.36 1.6.36-1.61.36.41.37 1.09.36-1.3.36 1.14.36-1.37.37 1.34.36-1.3.36 1.52.36-1.56.36.03.37 1.24.36-1.29.36 1 .36-1.1.36-.2.37 1.17.36-1.27.36 1.29.36-1.32.36 1.02.37-1.16.36.16.36 1.07.36-1.48.37 1.16.36-1.29.36 1.34.36-1.27.36 1.27.37-1.62.36 1.42.36-1.46.36-.28.36 1.39.37-1.55.36-.04.36 1.37.36-1.18.36 1.29.37-1.32.36 1.01.36-1.51.36 1.6.37-1.54.36.36.36.99.36-1.03.36 1.19.37-1.64.36-.01.36 1.17.36-1.44.36 1.48.37-2.06.36 1.35.36-1.33.36.21.36 1.3.37-1.6.36 1.28.36-1.12.36 1.28.36-1.67.37 1.48.36-1.37.36.04.36 1.13.37-1.35.36.32.36 1.07.36-1.14.36 1.04.37-1.08.36.88.36-1.11.36.95.36-1.26.37 1.3.36-1.58.36.11.36 1.07.36-1.02.37 1.12.36-1.16.36-.33.36 1.44.37-1.31.36 1.01.36-1.51.36 1.27.36-1.33.37.16.36 1 .36-1.15.36 1.4.36-1.71.37 1.4.36-1.38.36 1.45.36-1.29.36.12.37 1.08.36-1.53.36.05.36 1.2.36-1.04.37.96.36-1.41.36.84.36-1.38.37 1.68.36-1.49.36.21.36 1.1.36-1.14.37 1.05.36-1.3.36 1.11.36-1.09.36-.18.37 1.22.36-1.21.36 1.16.36-1.33.36 1.23.37-1.49.36.16.36 1.25.36-1.34.37 1.13.36-1.3.36 1.4.36-1.38.36 1.28.37-1.52.36-.06.36 1.22.36-1.3.36.31.37 1 .36-1.38.36 1.14.36-1.33.36.53.37-1.14.36 1.66.36-1.11.36.29.37.67.36-.83.36 1.19.36-1.5.36 1.19.37-1.22.36.09.36.97.36-1.17.36 1.42.37-1.42.36-.11.36.57.36-1.11.36 1.41.37-1.07.36.97.36-1.15.36 1.31.36-1.31.37 1.07.36-1.28.36.06.36 1.17.37-1.26.36.06.36 1.13.36-1.22.36 1.22.37-1.39.36 1.32.36-1.32.36 1.13.36-1.14.37.16.36 1 .36-1.28.36 1.08.36-1.22.37 1.44.36-1.47.36-.02.36 1.19.37-1.42.36 1.19.36-1.32.36-.07.36 1.02.37-1.01.36 1.25.36-1.28.36 1.19.36-1.54.37 1.42.36-1.33.36.02.36 1.31.36-1.5.37.05.36.44.36-.87.36 1.29.36-1.3.37.94.36-1.22.36 1.54.36-1.43.37 1.34.36-1.29.36.06.36 1.25.36-1.47.37 1.21.36-.94.36 1.08.36-1.34.36-.16.37 1.42.36-1.31.36 1.12.36-1.33.36.09.37 1.18.36-1.23.36 1.12.36-1.26.37 1.09.36-1.45.36 1.47.36-1.09.36-.08.37.93.36-1.03.36-.2.36 1 .36-1.07.37.93.36-1.04.36 1.21.36-1.38.36 1.48.37-1.6.36.13.36 1.18.36-1.16.36 1.06.37-1.32.36 1.3.36-1.42.36 1.38.37-1.43.36.15.36.93.36-1.65.36 1.76.37-1.31.36-.05.36 1.16.36-1.12.36 1.21.37-1.73.36 1.43.36-1.25.36 1.36.36-1.24.37-.13.36 1.36.36-1.26.36-.4.37 1.18.36-1.27.36 1.16.36-.95.36 1.3.37-1.4.36 1.41.36-1.29.36.03.36 1.16.37-1.14.36.63.36-1.08.36 1.14.36-1.21.37 1.41.36-1.63.36.18.36 1.35.37-1.32.36.09.36.81.36-.86.36 1.33.37-1.4.36 1.33.36-1.49.36 1.42.36-1.63.37 1.25.36-1.24.36-.02.36.71.36-.87.37.22.36 1.08.36-1.29.36 1.21.36-1.14.37 1.14.36-1.3.36 1.55.36-1.68.37.43.36.97.36-1.34.36 1.12.36-1.15.37 1.21.36-1.25.36 1.43.36-1.49.36-.18.37 1.23.36-1.31.36.14.36 1.2.36-1.25.37 1.19.36-1.33.36 1.35.36-1.81.37 1.52.36-1.68.36.14.36 1.35.36-1.11.37 1.13.36-1.45.36-.07.36 1.21.36-.9.37 1.11.36-1.14.36 1.02.36-1.19.36 1.17.37-1.48.36.23.36.67.36-1.27.36 1.57.37-1.31.36 1.22.36-1.07.36 1.24.37-1.13.36-.29.36 1.18.36-1.39.36.4.37.93.36-.93.36 1.02.36-1.34.36 1.57.37-1.55.36 1.26.36-1.24.36-.24.36 1.39.37-1.26.36.99.36-1.21.36.06.37 1.18.36-1.5.36 1.44.36-1.66.36 1.51.37-1.63.36.32.36 1.06.36-1.09.36 1.12.37-1.41.36 1.39.36-1.1.36 1.33.36-1.39.37 1.32.36-1.67.36-.1.36 1.49.36-1.28.37.09.36.6.36-1.05.36 1.42.37-1.57.36 1.58.36-1.24.36 1.2.36-1.49.37.09.36 1.17.36-1.08.36.99.36-1.22.37.04.36 1.29.36-1.46.36 1.21.36-1.16.37 1.23.36-1.57.36.14.36 1.14.37-1.19.36 1.21.36-1.15.36 1.31.36-1.41.37 1.25.36-1.5.36.2.36.72.36-1.04.37.35.36.98.36-1 .36.84.36-1.2.37 1.39.36-1.17.36 1.23.36-1.42.37 1.29.36-1.4.36-.15.36 1.32.36-1.37.37.78.36-.85.36-.07.36 1.13.36-1.17.37 1.55.36-1.33.36 1.08.36-1.25.36.04.37 1.21.36-1.17.36 1.03.36-1.03.36 1.13.37-1.1.36 1.29.36-1.4.36-.12.37 1.14.36-1.32.36.39.36.8.36-1.08.37 1 .36-.94.36 1.09.36-1.65.36 1.28.37-1.55.36.26.36 1.23.36-1.14.36 1.13.37-1.28.36 1.1.36-1.14.36.05.37 1.13.36-1.26.36 1.17.36-2.08.36 1.54.37-.82.36.19.36.57.36-1.02.36 1.11.37-.95.36 1.13.36-1.22.36 1.5.36-1.6.37-.03.36 1.28.36-1.22.36.24.36.98.37-.94.36.82.36-1.52.36 1.25.37-1.6.36 1.49.36-1.05.36.27.36.89.37-1.11.36 1.15.36-1.28.36.71.36-1.73.37.28.36 1.57.36-1.38.36 1.45.36-1.1.37.1.36 1.01.36-1.42.36 1.11.37-1.33.36.11.36-1.96.36 2.54.36-.71.37 1.53.36-1.38.36.4.36.67.36-1.39.37.61.36.98.36-1.16.36 1.34.36-1.36.37 1.42.36-1.85.36 1.71.36-1.52.36-.01.37 1.23.36-.94.36.7.36-.74.37 1.08.36-1.31.36.08.36 1.18.36-1.4.37 1.35.36-1.13.36-.21.36.46.36-1.27.37 1.25.36-.86.36 1.37.36-1.73.36 1.25.37-.99.36.28.36 1.16.36-1.34.37.14.36 1.05.36-1.03.36 1.02.36-1.19.37 1.06.36-1.04.36 1.07.36-1.18.36.88.37-1.31.36.25.36 1.09.36-1.01.36 1.14.37-1.31.36 1.35.36-1.55.36.05.37 1.49.36-1.24.36 1.34.36-1.31.36-.16.37 1.29.36-1.1.36.99.36-1.17.36 1.23.37-1.67.36 1.02.36-.82.36.06.36 1.18.37-1.9h.36l.36 1.5.36-1.1.36 1.04.37-1.38.36 1.39.36-.97.36 1.23.37-1.38.36.02.36 1.31.36-1.29.36 1.11.37-1.28.36 1.18.36-1.21"/><use xlink:href="#0137d__d" color="#29C3F6" transform="matrix(3.75 0 0 3.75 69.28 127.27)"/><use xlink:href="#0137d__d" color="#29C3F6" transform="matrix(3.75 0 0 3.75 220.55 52.51)"/></g><path fill="none" d="M28 75.01v87.49m343.99-87.49H28" color="#000"/></svg>