<svg xmlns="http://www.w3.org/2000/svg" xmlns:xlink="http://www.w3.org/1999/xlink" viewBox="0 0 400 200"><path fill="none" d="M0 0h400v200H0z"/><defs><use xlink:href="#7a3c1__a" id="7a3c1__b" fill="currentColor" stroke="none"/><use xlink:href="#7a3c1__a" id="7a3c1__c" stroke="currentColor" transform="rotate(180)"/><path id="7a3c1__a" stroke="currentColor" stroke-width=".267" d="m0-1.33-1.33 2h2.66z"/></defs><path fill="none" stroke="#CCC" stroke-linecap="round" stroke-linejoin="round" stroke-width=".1" d="M46.1 162.5V45.01" class="7a3c1__gridline" color="#000"/><g fill="none" stroke-linecap="round" stroke-linejoin="round" stroke-width="0" color="#000"><path d="M46.1 162.5V155m0-109.99v7.5"/><text fill="#000" font-family="KaTeX_Main" font-size="8" text-anchor="middle" transform="translate(46.1 172.6)"><tspan> 1</tspan></text></g><path fill="none" stroke="#CCC" stroke-linecap="round" stroke-linejoin="round" stroke-width=".1" d="M82.31 162.5V45.01" class="7a3c1__gridline" color="#000"/><g fill="none" stroke-linecap="round" stroke-linejoin="round" stroke-width="0" color="#000"><path d="M82.31 162.5V155m0-109.99v7.5"/><text fill="#000" font-family="KaTeX_Main" font-size="8" text-anchor="middle" transform="translate(82.31 172.6)"><tspan> 2</tspan></text></g><path fill="none" stroke="#CCC" stroke-linecap="round" stroke-linejoin="round" stroke-width=".1" d="M118.52 162.5V45.01" class="7a3c1__gridline" color="#000"/><g fill="none" stroke-linecap="round" stroke-linejoin="round" stroke-width="0" color="#000"><path d="M118.52 162.5V155m0-109.99v7.5"/><text fill="#000" font-family="KaTeX_Main" font-size="8" text-anchor="middle" transform="translate(118.52 172.6)"><tspan> 3</tspan></text></g><path fill="none" stroke="#CCC" stroke-linecap="round" stroke-linejoin="round" stroke-width=".1" d="M154.73 162.5V45.01" class="7a3c1__gridline" color="#000"/><g fill="none" stroke-linecap="round" stroke-linejoin="round" stroke-width="0" color="#000"><path d="M154.73 162.5V155m0-109.99v7.5"/><text fill="#000" font-family="KaTeX_Main" font-size="8" text-anchor="middle" transform="translate(154.73 172.6)"><tspan> 4</tspan></text></g><path fill="none" stroke="#CCC" stroke-linecap="round" stroke-linejoin="round" stroke-width=".1" d="M190.94 162.5V45.01" class="7a3c1__gridline" color="#000"/><g fill="none" stroke-linecap="round" stroke-linejoin="round" stroke-width="0" color="#000"><path d="M190.94 162.5V155m0-109.99v7.5"/><text fill="#000" font-family="KaTeX_Main" font-size="8" text-anchor="middle" transform="translate(190.94 172.6)"><tspan> 5</tspan></text></g><path fill="none" stroke="#CCC" stroke-linecap="round" stroke-linejoin="round" stroke-width=".1" d="M227.15 162.5V45.01" class="7a3c1__gridline" color="#000"/><g fill="none" stroke-linecap="round" stroke-linejoin="round" stroke-width="0" color="#000"><path d="M227.15 162.5V155m0-109.99v7.5"/><text fill="#000" font-family="KaTeX_Main" font-size="8" text-anchor="middle" transform="translate(227.15 172.6)"><tspan> 6</tspan></text></g><path fill="none" stroke="#CCC" stroke-linecap="round" stroke-linejoin="round" stroke-width=".1" d="M263.36 162.5V45.01" class="7a3c1__gridline" color="#000"/><g fill="none" stroke-linecap="round" stroke-linejoin="round" stroke-width="0" color="#000"><path d="M263.36 162.5V155m0-109.99v7.5"/><text fill="#000" font-family="KaTeX_Main" font-size="8" text-anchor="middle" transform="translate(263.36 172.6)"><tspan> 7</tspan></text></g><path fill="none" stroke="#CCC" stroke-linecap="round" stroke-linejoin="round" stroke-width=".1" d="M299.57 162.5V45.01" class="7a3c1__gridline" color="#000"/><g fill="none" stroke-linecap="round" stroke-linejoin="round" stroke-width="0" color="#000"><path d="M299.57 162.5V155m0-109.99v7.5"/><text fill="#000" font-family="KaTeX_Main" font-size="8" text-anchor="middle" transform="translate(299.57 172.6)"><tspan> 8</tspan></text></g><path fill="none" stroke="#CCC" stroke-linecap="round" stroke-linejoin="round" stroke-width=".1" d="M335.78 162.5V45.01" class="7a3c1__gridline" color="#000"/><g fill="none" stroke-linecap="round" stroke-linejoin="round" stroke-width="0" color="#000"><path d="M335.78 162.5V155m0-109.99v7.5"/><text fill="#000" font-family="KaTeX_Main" font-size="8" text-anchor="middle" transform="translate(335.78 172.6)"><tspan> 9</tspan></text></g><path fill="none" stroke="#CCC" stroke-linecap="round" stroke-linejoin="round" stroke-width=".1" d="M371.99 162.5V45.01" class="7a3c1__gridline" color="#000"/><g fill="none" stroke-linecap="round" stroke-linejoin="round" stroke-width="0" color="#000"><path d="M371.99 162.5V155m0-109.99v7.5"/><text fill="#000" font-family="KaTeX_Main" font-size="8" text-anchor="middle" transform="translate(371.99 172.6)"><tspan> 10</tspan></text></g><g fill="none" stroke-linecap="round" stroke-linejoin="round" stroke-width="0" color="#000"><path d="M371.99 162.5h-7.5"/><text fill="#000" font-family="KaTeX_Main" font-size="8" transform="translate(378.99 165.1)"><tspan>0.94</tspan></text></g><g fill="none" stroke-linecap="round" stroke-linejoin="round" stroke-width="0" color="#000"><path d="M371.99 142.92h-7.5"/><text fill="#000" font-family="KaTeX_Main" font-size="8" transform="translate(378.99 145.52)"><tspan>0.95</tspan></text></g><g fill="none" stroke-linecap="round" stroke-linejoin="round" stroke-width="0" color="#000"><path d="M371.99 123.34h-7.5"/><text fill="#000" font-family="KaTeX_Main" font-size="8" transform="translate(378.99 125.94)"><tspan>0.96</tspan></text></g><g fill="none" stroke-linecap="round" stroke-linejoin="round" stroke-width="0" color="#000"><path d="M371.99 103.75h-7.5"/><text fill="#000" font-family="KaTeX_Main" font-size="8" transform="translate(378.99 106.35)"><tspan>0.97</tspan></text></g><g fill="none" stroke-linecap="round" stroke-linejoin="round" stroke-width="0" color="#000"><path d="M371.99 84.17h-7.5"/><text fill="#000" font-family="KaTeX_Main" font-size="8" transform="translate(378.99 86.77)"><tspan>0.98</tspan></text></g><g fill="none" stroke-linecap="round" stroke-linejoin="round" stroke-width="0" color="#000"><path d="M371.99 64.59h-7.5"/><text fill="#000" font-family="KaTeX_Main" font-size="8" transform="translate(378.99 67.19)"><tspan>0.99</tspan></text></g><g fill="none" stroke-linecap="round" stroke-linejoin="round" stroke-width="0" color="#000"><path d="M371.99 45.01h-7.5"/><text fill="#000" font-family="KaTeX_Main" font-size="8" transform="translate(378.99 47.61)"><tspan>1.00</tspan></text></g><path fill="none" d="M28 45.01V162.5M371.99 45.01H28" color="#000"/><text stroke-linecap="round" stroke-linejoin="round" stroke-width="0" color="#000" font-family="KaTeX_Main" font-size="10" text-anchor="middle" transform="rotate(-90 57.63 46.13)"><tspan font-weight="bold">Maximum Path Length </tspan><tspan> / log</tspan><tspan dy="3" font-size="8">2</tspan><tspan dy="-3">(Size)</tspan></text><text stroke-linecap="round" stroke-linejoin="round" stroke-width="0" color="#000" font-family="KaTeX_Main" font-size="10" text-anchor="middle" transform="translate(199.99 195.75)"><tspan>Operations / 10</tspan><tspan dy="-5" font-size="8">6</tspan></text><text stroke-linecap="round" stroke-linejoin="round" stroke-width=".5" color="#000" font-family="KaTeX_Main" font-size="8" transform="translate(99.2 10.11)"><tspan>AVLBottomUp</tspan></text><g fill="none" stroke="currentColor" stroke-linecap="round" stroke-linejoin="round" stroke-width=".5" color="#000"><path stroke="#000" d="M63.7 7.51h29.9M28 141.37l.36 2.8.36 2.74.37-100.29.36 2.77.36 2.71.36 2.66.36 2.6.37 2.55.36 2.5.36 2.45.36 2.41.37 2.36.36 2.31.36 2.28.36 2.23.36 2.2.37 2.16.36 2.12.36 2.08.36 2.05.36 2.02.37 1.99.36 1.95.36 1.92.36 1.89.36 1.87.37 1.84.36 1.81.36 1.78.36 1.76.36 1.73.37 1.71.36 1.68.36 1.66.36 1.64.37 1.62.36 1.59.36 1.58.36 1.55.36 1.54.37 1.51.36 1.5.36 1.48.36 1.45.36 1.45.37 1.42.36 1.41.36 1.39.36 1.37.36 1.36.37 1.34.36 1.33.36 1.32.36 1.3.37-96.62.36 1.34.36 1.32.36 1.31.36 1.3.37 1.28.36 1.27.36 1.25.36 1.25.36 1.23.37 1.22.36 1.2.36 1.2.36 1.18.36 1.17.37 1.16.36 1.15.36 1.14.36 1.12.37 1.12.36 1.11.36 1.09.36 1.09.36 1.08.37 1.07.36 1.06.36 1.04.36 1.04.36 1.04.37 1.02.36 1.01.36 1.01.36.99.36.99.37.98.36.97.36.97.36.95.36.95.37.94.36.94.36.92.36.92.37.92.36.9.36.9.36.89.36.88.37.88.36.88.36.86.36.86.36.85.37.85.36.84.36.83.36.83.36.82.37.82.36.81.36.81.36.8.37.79.36.79.36.79.36.77.36.78.37.76.36.77.36.76.36.75.36.75.37.74.36.74.36.73.36.73.36.73.37.72.36.71.36.71.36.71.36.7.37.7.36.7.36.68.36.69.37.68.36.68.36.67.36.67.36.67.37.66.36.66.36.65.36.65.36.65.37.64.36.64.36.64.36.63.36.63.37.62.36.63.36.61.36.62.37-92.63.36.64.36.64.36.63.36.63.37.62.36.62.36.62.36.62.36.61.37.61.36.61.36.6.36.6.36.6.37.59.36.59.36.59.36.58.36.58.37.58.36.58.36.57.36.57.37.57.36.57.36.56.36.56.36.55.37.56.36.55.36.55.36.54.36.55.37.54.36.54.36.53.36.54.36.53.37.53.36.53.36.52.36.52.37.52.36.52.36.51.36.51.36.52.37.5.36.51.36.5.36.5.36.5.37.5.36.49.36.5.36.49.36.49.37.48.36.49.36.48.36.48.37.48.36.48.36.47.36.47.36.47.37.47.36.47.36.46.36.47.36.46.37.46.36.45.36.46.36.45.36.45.37.46.36.44.36.45.36.44.36.45.37.44.36.44.36.44.36.43.37.44.36.43.36.43.36.43.36.43.37.42.36.43.36.42.36.42.36.42.37.42.36.42.36.41.36.42.36.41.37.41.36.41.36.41.36.41.37.4.36.4.36.41.36.4.36.39.37.4.36.4.36.39.36.4.36.39.37.39.36.39.36.39.36.38.36.39.37.38.36.39.36.38.36.38.36.38.37.37.36.38.36.38.36.37.37.37.36.37.36.37.36.37.36.37.37.37.36.36.36.36.36.37.36.36.37.36.36.36.36.36.36.35.36.36.37.36.36.35.36.35.36.35.37.35.36.35.36.35.36.35.36.34.37.35.36.34.36.34.36.34.36.35.37.33.36.34.36.34.36.34.36.33.37.34.36.33.36.33.36.33.36.33.37.33.36.33.36.33.36.32.37.33.36.32.36.33.36.32.36.32.37.32.36.32.36.32.36.32.36.32.37.31.36.32.36.31.36.31.36.32.37.31.36.31.36.31.36.31.37.3.36.31.36.31.36.3.36.31.37.3.36.3.36.3.36.31.36.3.37.3.36.29.36.3.36.3.36.29.37.3.36.3.36.29.36.29.37-88.71.36.31.36.3.36.31.36.3.37.3.36.3.36.3.36.3.36.3.37.3.36.3.36.3.36.29.36.29.37.3.36.29.36.3.36.29.36.29.37.29.36.29.36.29.36.28.37.29.36.29.36.29.36.28.36.29.37.28.36.28.36.28.36.29.36.28.37.28.36.28.36.28.36.27.36.28.37.28.36.27.36.28.36.27.37.28.36.27.36.27.36.28.36.27.37.27.36.27.36.27.36.27.36.27.37.26.36.27.36.27.36.26.36.27.37.26.36.27.36.26.36.26.36.26.37.26.36.26.36.27.36.26.37.25.36.26.36.26.36.26.36.25.37.26.36.26.36.25.36.25.36.26.37.25.36.25.36.25.36.26.36.25.37.25.36.25.36.25.36.24.37.25.36.25.36.25.36.24.36.25.37.24.36.25.36.24.36.25.36.24.37.24.36.24.36.24.36.25.36.24.37.24.36.23.36.24.36.24.37.24.36.24.36.23.36.24.36.24.37.23.36.24.36.23.36.23.36.24.37.23.36.23.36.23.36.24.36.23.37.23.36.23.36.23.36.23.36.22.37.23.36.23.36.23.36.22.37.23.36.22.36.23.36.22.36.23.37.22.36.23.36.22.36.22.36.22.37.22.36.23.36.22.36.22.36.22.37.22.36.21.36.22.36.22.37.22.36.22.36.21.36.22.36.21.37.22.36.21.36.22.36.21.36.22.37.21.36.21.36.22.36.21.36.21.37.21.36.21.36.21.36.21.36.21.37.21.36.21.36.21.36.21.37.2.36.21.36.21.36.2.36.21.37.21.36.2.36.21.36.2.36.2.37.21.36.2.36.2.36.21.36.2.37.2.36.2.36.2.36.21.37.19.36.2.36.2.36.2.36.2.37.2.36.2.36.2.36.19.36.2.37.2.36.19.36.2.36.2.36.19.37.2.36.19.36.2.36.19.36.19.37.2.36.19.36.19.36.19.37.2.36.19.36.19.36.19.36.19.37.19.36.19.36.19.36.19.36.19.37.19.36.18.36.19.36.19.36.19.37.18.36.19.36.19.36.18.37.19.36.18.36.19.36.18.36.19.37.18.36.18.36.19.36.18.36.18.37.18.36.19.36.18.36.18.36.18.37.18.36.18.36.18.36.18.37.18.36.18.36.18.36.18.36.18.37.18.36.17.36.18.36.18.36.18.37.17.36.18.36.17.36.18.36.18.37.17.36.18.36.17.36.18.36.17.37.17.36.18.36.17.36.17.37.18.36.17.36.17.36.17.36.17.37.18.36.17.36.17.36.17.36.17.37.17.36.17.36.17.36.17.36.16.37.17.36.17.36.17.36.17.37.16.36.17.36.17.36.17.36.16.37.17.36.17.36.16.36.17.36.16.37.17.36.16.36.17.36.16.36.16.37.17.36.16.36.16.36.17.36.16.37.16.36.16.36.17.36.16.37.16.36.16.36.16.36.16.36.16.37.16.36.16.36.16.36.16.36.16.37.16.36.16.36.16.36.15.36.16.37.16.36.16.36.16.36.15.37.16.36.16.36.15.36.16.36.15.37.16.36.16.36.15.36.16.36.15.37.16.36.15.36.15.36.16.36.15.37.15.36.16.36.15.36.15.36.16.37.15.36.15.36.15.36.15.37.16.36.15.36.15.36.15.36.15.37.15.36.15.36.15.36.15.36.15.37.15.36.15.36.15.36.15.36.14.37.15.36.15.36.15.36.15.37.14.36.15.36.15.36.14.36.15.37.15.36.14.36.15.36.15.36.14.37.15.36.14.36.15.36.14.36.15.37.14.36.14.36.15.36.14.37.15.36.14.36.14.36.15.36.14.37.14.36.14.36.15.36.14.36.14.37.14.36.14.36.14.36.14.36.14.37.15.36.14.36.14.36-85 .36.15.37.14.36.15.36.15.36.14.37.14.36.15.36.14.36.15.36.14.37.15.36.14.36.15.36.14.36.15.37.14.36.14.36.14.36.15.36.14.37.14.36.14.36.15.36.14.37.14.36.14.36.14.36.14.36.14.37.15.36.14.36.14.36.14.36.14.37.14.36.14.36.14.36.14.36.13.37.14.36.14.36.14.36.14.36.14.37.14.36.13.36.14.36.14.37.14.36.13.36.14.36.14.36.14.37.13.36.14.36.13.36.14.36.14.37.13.36.14.36.13.36.14.36.13.37.14.36.13.36.14.36.13.37.14.36.13.36.13.36.14.36.13.37.13.36.14.36.13.36.13.36.14.37.13.36.13.36.13.36.14.36.13.37.13.36.13.36.13.36.13.36.13.37.14.36.13.36.13.36.13.37.13.36.13.36.13.36.13.36.13.37.13.36.13.36.12.36.13.36.13.37.13.36.13.36.13.36.13.36.13.37.12.36.13.36.13.36.13.37.12.36.13.36.13.36.12.36.13.37.13.36.12.36.13.36.13.36.12.37.13.36.12.36.13.36.12.36.13.37.13.36.12.36.13.36.12.37.12.36.13.36.12.36.13.36.12.37.13.36.12.36.12.36.13.36.12.37.12.36.13.36.12.36.12.36.12.37.13.36.12.36.12.36.12.36.12.37.13.36.12.36.12.36.12.37.12.36.12.36.12.36.12.36.13.37.12.36.12.36.12"/><use xlink:href="#7a3c1__b" transform="matrix(3.75 0 0 3.75 354.25 60.3)"/><use xlink:href="#7a3c1__b" transform="matrix(3.75 0 0 3.75 78.65 7.51)"/></g><text stroke-linecap="round" stroke-linejoin="round" color="#000" font-family="KaTeX_Main" font-size="8" transform="translate(99.2 25.11)"><tspan>AVLWeakTopDown</tspan></text><g fill="none" stroke="currentColor" stroke-linecap="round" stroke-linejoin="round" color="#000"><path stroke="#FFAB00" stroke-dasharray="4.5,2.0,0.5,2.0,0.5,2.0" d="M63.7 22.51h29.9M28 141.37l.36 2.8.36 2.74.37-100.29.36 2.77.36 2.71.36 2.66.36 2.6.37 2.55.36 2.5.36 2.45.36 2.41.37 2.36.36 2.31.36 2.28.36 2.23.36 2.2.37 2.16.36 2.12.36 2.08.36 2.05.36 2.02.37 1.99.36 1.95.36 1.92.36 1.89.36 1.87.37 1.84.36 1.81.36 1.78.36 1.76.36 1.73.37 1.71.36 1.68.36 1.66.36 1.64.37 1.62.36 1.59.36 1.58.36 1.55.36 1.54.37 1.51.36 1.5.36 1.48.36 1.45.36 1.45.37 1.42.36 1.41.36 1.39.36 1.37.36 1.36.37 1.34.36 1.33.36 1.32.36 1.3.37-96.62.36 1.34.36 1.32.36 1.31.36 1.3.37 1.28.36 1.27.36 1.25.36 1.25.36 1.23.37 1.22.36 1.2.36 1.2.36 1.18.36 1.17.37 1.16.36 1.15.36 1.14.36 1.12.37 1.12.36 1.11.36 1.09.36 1.09.36 1.08.37 1.07.36 1.06.36 1.04.36 1.04.36 1.04.37 1.02.36 1.01.36 1.01.36.99.36.99.37.98.36.97.36.97.36.95.36.95.37.94.36.94.36.92.36.92.37.92.36.9.36.9.36.89.36.88.37.88.36.88.36.86.36.86.36.85.37.85.36.84.36.83.36.83.36.82.37.82.36.81.36.81.36.8.37.79.36.79.36.79.36.77.36.78.37.76.36.77.36.76.36.75.36.75.37.74.36.74.36.73.36.73.36.73.37.72.36.71.36.71.36.71.36.7.37.7.36.7.36.68.36.69.37.68.36.68.36.67.36.67.36.67.37.66.36.66.36.65.36.65.36.65.37.64.36.64.36.64.36.63.36.63.37.62.36.63.36.61.36.62.37-92.63.36.64.36.64.36.63.36.63.37.62.36.62.36.62.36.62.36.61.37.61.36.61.36.6.36.6.36.6.37.59.36.59.36.59.36.58.36.58.37.58.36.58.36.57.36.57.37.57.36.57.36.56.36.56.36.55.37.56.36.55.36.55.36.54.36.55.37.54.36.54.36.53.36.54.36.53.37.53.36.53.36.52.36.52.37.52.36.52.36.51.36.51.36.52.37.5.36.51.36.5.36.5.36.5.37.5.36.49.36.5.36.49.36.49.37.48.36.49.36.48.36.48.37.48.36.48.36.47.36.47.36.47.37.47.36.47.36.46.36.47.36.46.37.46.36.45.36.46.36.45.36.45.37.46.36.44.36.45.36.44.36.45.37.44.36.44.36.44.36.43.37.44.36.43.36.43.36.43.36.43.37.42.36.43.36.42.36.42.36.42.37.42.36.42.36.41.36.42.36.41.37.41.36.41.36.41.36.41.37.4.36.4.36.41.36.4.36.39.37.4.36.4.36.39.36.4.36.39.37.39.36.39.36.39.36.38.36.39.37.38.36.39.36.38.36.38.36.38.37.37.36.38.36.38.36.37.37.37.36.37.36.37.36.37.36.37.37.37.36.36.36.36.36.37.36.36.37.36.36.36.36.36.36.35.36.36.37.36.36.35.36.35.36.35.37.35.36.35.36.35.36.35.36.34.37.35.36.34.36.34.36.34.36.35.37.33.36.34.36.34.36.34.36.33.37.34.36.33.36.33.36.33.36.33.37.33.36.33.36.33.36.32.37.33.36.32.36.33.36.32.36.32.37.32.36.32.36.32.36.32.36.32.37.31.36.32.36.31.36.31.36.32.37.31.36.31.36.31.36.31.37.3.36.31.36.31.36.3.36.31.37.3.36.3.36.3.36.31.36.3.37.3.36.29.36.3.36.3.36.29.37.3.36.3.36.29.36.29.37-88.71.36.31.36.3.36.31.36.3.37.3.36.3.36.3.36.3.36.3.37.3.36.3.36.3.36.29.36.29.37.3.36.29.36.3.36.29.36.29.37.29.36.29.36.29.36.28.37.29.36.29.36.29.36.28.36.29.37.28.36.28.36.28.36.29.36.28.37.28.36.28.36.28.36.27.36.28.37.28.36.27.36.28.36.27.37.28.36.27.36.27.36.28.36.27.37.27.36.27.36.27.36.27.36.27.37.26.36.27.36.27.36.26.36.27.37.26.36.27.36.26.36.26.36.26.37.26.36.26.36.27.36.26.37.25.36.26.36.26.36.26.36.25.37.26.36.26.36.25.36.25.36.26.37.25.36.25.36.25.36.26.36.25.37.25.36.25.36.25.36.24.37.25.36.25.36.25.36.24.36.25.37.24.36.25.36.24.36.25.36.24.37.24.36.24.36.24.36.25.36.24.37.24.36.23.36.24.36.24.37.24.36.24.36.23.36.24.36.24.37.23.36.24.36.23.36.23.36.24.37.23.36.23.36.23.36.24.36.23.37.23.36.23.36.23.36.23.36.22.37.23.36.23.36.23.36.22.37.23.36.22.36.23.36.22.36.23.37.22.36.23.36.22.36.22.36.22.37.22.36.23.36.22.36.22.36.22.37.22.36.21.36.22.36.22.37.22.36.22.36.21.36.22.36.21.37.22.36.21.36.22.36.21.36.22.37.21.36.21.36.22.36.21.36.21.37.21.36.21.36.21.36.21.36.21.37.21.36.21.36.21.36.21.37.2.36.21.36.21.36.2.36.21.37.21.36.2.36.21.36.2.36.2.37.21.36.2.36.2.36.21.36.2.37.2.36.2.36.2.36.21.37.19.36.2.36.2.36.2.36.2.37.2.36.2.36.2.36.19.36.2.37.2.36.19.36.2.36.2.36.19.37.2.36.19.36.2.36.19.36.19.37.2.36.19.36.19.36.19.37.2.36.19.36.19.36.19.36.19.37.19.36.19.36.19.36.19.36.19.37.19.36.18.36.19.36.19.36.19.37.18.36.19.36.19.36.18.37.19.36.18.36.19.36.18.36.19.37.18.36.18.36.19.36.18.36.18.37.18.36.19.36.18.36.18.36.18.37.18.36.18.36.18.36.18.37.18.36.18.36.18.36.18.36.18.37.18.36.17.36.18.36.18.36.18.37.17.36.18.36.17.36.18.36.18.37.17.36.18.36.17.36.18.36.17.37.17.36.18.36.17.36.17.37.18.36.17.36.17.36.17.36.17.37.18.36.17.36.17.36.17.36.17.37.17.36.17.36.17.36.17.36.16.37.17.36.17.36.17.36.17.37.16.36.17.36.17.36.17.36.16.37.17.36.17.36.16.36.17.36.16.37.17.36.16.36.17.36.16.36.16.37.17.36.16.36.16.36.17.36.16.37.16.36.16.36.17.36.16.37.16.36.16.36.16.36.16.36.16.37.16.36.16.36.16.36.16.36.16.37.16.36.16.36.16.36.15.36.16.37.16.36.16.36.16.36.15.37.16.36.16.36.15.36.16.36.15.37.16.36.16.36.15.36.16.36.15.37.16.36.15.36.15.36.16.36.15.37.15.36.16.36.15.36.15.36.16.37.15.36.15.36.15.36.15.37.16.36.15.36.15.36.15.36.15.37.15.36.15.36.15.36.15.36.15.37.15.36.15.36.15.36.15.36.14.37.15.36.15.36.15.36.15.37.14.36.15.36.15.36.14.36.15.37.15.36.14.36.15.36.15.36.14.37.15.36.14.36.15.36.14.36.15.37.14.36.14.36.15.36.14.37.15.36.14.36.14.36.15.36.14.37.14.36.14.36.15.36.14.36.14.37.14.36.14.36.14.36.14.36.14.37.15.36.14.36.14.36-85 .36.15.37.14.36.15.36.15.36.14.37.14.36.15.36.14.36.15.36.14.37.15.36.14.36.15.36.14.36.15.37.14.36.14.36.14.36.15.36.14.37.14.36.14.36.15.36.14.37.14.36.14.36.14.36.14.36.14.37.15.36.14.36.14.36.14.36.14.37.14.36.14.36.14.36.14.36.13.37.14.36.14.36.14.36.14.36.14.37.14.36.13.36.14.36.14.37.14.36.13.36.14.36.14.36.14.37.13.36.14.36.13.36.14.36.14.37.13.36.14.36.13.36.14.36.13.37.14.36.13.36.14.36.13.37.14.36.13.36.13.36.14.36.13.37.13.36.14.36.13.36.13.36.14.37.13.36.13.36.13.36.14.36.13.37.13.36.13.36.13.36.13.36.13.37.14.36.13.36.13.36.13.37.13.36.13.36.13.36.13.36.13.37.13.36.13.36.12.36.13.36.13.37.13.36.13.36.13.36.13.36.13.37.12.36.13.36.13.36.13.37.12.36.13.36.13.36.12.36.13.37.13.36.12.36.13.36.13.36.12.37.13.36.12.36.13.36.12.36.13.37.13.36.12.36.13.36.12.37.12.36.13.36.12.36.13.36.12.37.13.36.12.36.12.36.13.36.12.37.12.36.13.36.12.36.12.36.12.37.13.36.12.36.12.36.12.36.12.37.13.36.12.36.12.36.12.37.12.36.12.36.12.36.12.36.13.37.12.36.12.36.12"/><use xlink:href="#7a3c1__c" color="#FFAB00" transform="matrix(3.75 0 0 3.75 67.83 102.93)"/><use xlink:href="#7a3c1__c" color="#FFAB00" transform="matrix(3.75 0 0 3.75 78.65 22.51)"/></g><text stroke-linecap="round" stroke-linejoin="round" color="#000" font-family="KaTeX_Main" font-size="8" transform="translate(241.1 10.11)"><tspan>AVLRelaxedBottomUp</tspan></text><g fill="none" stroke="currentColor" stroke-linecap="round" stroke-linejoin="round" color="#000"><path stroke="#D336C8" d="M205.6 7.51h29.9M28 141.37l.36 2.8.36 2.74.37-100.29.36 2.77.36 2.71.36 2.66.36 2.6.37 2.55.36 2.5.36 2.45.36 2.41.37 2.36.36 2.31.36 2.28.36 2.23.36 2.2.37 2.16.36 2.12.36 2.08.36 2.05.36 2.02.37 1.99.36 1.95.36 1.92.36 1.89.36 1.87.37 1.84.36 1.81.36 1.78.36 1.76.36 1.73.37 1.71.36 1.68.36 1.66.36 1.64.37 1.62.36 1.59.36 1.58.36 1.55.36 1.54.37 1.51.36 1.5.36 1.48.36 1.45.36 1.45.37 1.42.36 1.41.36 1.39.36 1.37.36 1.36.37 1.34.36 1.33.36 1.32.36 1.3.37-96.62.36 1.34.36 1.32.36 1.31.36 1.3.37 1.28.36 1.27.36 1.25.36 1.25.36 1.23.37 1.22.36 1.2.36 1.2.36 1.18.36 1.17.37 1.16.36 1.15.36 1.14.36 1.12.37 1.12.36 1.11.36 1.09.36 1.09.36 1.08.37 1.07.36 1.06.36 1.04.36 1.04.36 1.04.37 1.02.36 1.01.36 1.01.36.99.36.99.37.98.36.97.36.97.36.95.36.95.37.94.36.94.36.92.36.92.37.92.36.9.36.9.36.89.36.88.37.88.36.88.36.86.36.86.36.85.37.85.36.84.36.83.36.83.36.82.37.82.36.81.36.81.36.8.37.79.36.79.36.79.36.77.36.78.37.76.36.77.36.76.36.75.36.75.37.74.36.74.36.73.36.73.36.73.37.72.36.71.36.71.36.71.36.7.37.7.36.7.36.68.36.69.37.68.36.68.36.67.36.67.36.67.37.66.36.66.36.65.36.65.36.65.37.64.36.64.36.64.36.63.36.63.37.62.36.63.36.61.36.62.37-92.63.36.64.36.64.36.63.36.63.37.62.36.62.36.62.36.62.36.61.37.61.36.61.36.6.36.6.36.6.37.59.36.59.36.59.36.58.36.58.37.58.36.58.36.57.36.57.37.57.36.57.36.56.36.56.36.55.37.56.36.55.36.55.36.54.36.55.37.54.36.54.36.53.36.54.36.53.37.53.36.53.36.52.36.52.37.52.36.52.36.51.36.51.36.52.37.5.36.51.36.5.36.5.36.5.37.5.36.49.36.5.36.49.36.49.37.48.36.49.36.48.36.48.37.48.36.48.36.47.36.47.36.47.37.47.36.47.36.46.36.47.36.46.37.46.36.45.36.46.36.45.36.45.37.46.36.44.36.45.36.44.36.45.37.44.36.44.36.44.36.43.37.44.36.43.36.43.36.43.36.43.37.42.36.43.36.42.36.42.36.42.37.42.36.42.36.41.36.42.36.41.37.41.36.41.36.41.36.41.37.4.36.4.36.41.36.4.36.39.37.4.36.4.36.39.36.4.36.39.37.39.36.39.36.39.36.38.36.39.37.38.36.39.36.38.36.38.36.38.37.37.36.38.36.38.36.37.37.37.36.37.36.37.36.37.36.37.37.37.36.36.36.36.36.37.36.36.37.36.36.36.36.36.36.35.36.36.37.36.36.35.36.35.36.35.37.35.36.35.36.35.36.35.36.34.37.35.36.34.36.34.36.34.36.35.37.33.36.34.36.34.36.34.36.33.37.34.36.33.36.33.36.33.36.33.37.33.36.33.36.33.36.32.37.33.36.32.36.33.36.32.36.32.37.32.36.32.36.32.36.32.36.32.37.31.36.32.36.31.36.31.36.32.37.31.36.31.36.31.36.31.37.3.36.31.36.31.36.3.36.31.37.3.36.3.36.3.36.31.36.3.37.3.36.29.36.3.36.3.36.29.37.3.36.3.36.29.36.29.37-88.71.36.31.36.3.36.31.36.3.37.3.36.3.36.3.36.3.36.3.37.3.36.3.36.3.36.29.36.29.37.3.36.29.36.3.36.29.36.29.37.29.36.29.36.29.36.28.37.29.36.29.36.29.36.28.36.29.37.28.36.28.36.28.36.29.36.28.37.28.36.28.36.28.36.27.36.28.37.28.36.27.36.28.36.27.37.28.36.27.36.27.36.28.36.27.37.27.36.27.36.27.36.27.36.27.37.26.36.27.36.27.36.26.36.27.37.26.36.27.36.26.36.26.36.26.37.26.36.26.36.27.36.26.37.25.36.26.36.26.36.26.36.25.37.26.36.26.36.25.36.25.36.26.37.25.36.25.36.25.36.26.36.25.37.25.36.25.36.25.36.24.37.25.36.25.36.25.36.24.36.25.37.24.36.25.36.24.36.25.36.24.37.24.36.24.36.24.36.25.36.24.37.24.36.23.36.24.36.24.37.24.36.24.36.23.36.24.36.24.37.23.36.24.36.23.36.23.36.24.37.23.36.23.36.23.36.24.36.23.37.23.36.23.36.23.36.23.36.22.37.23.36.23.36.23.36.22.37.23.36.22.36.23.36.22.36.23.37.22.36.23.36.22.36.22.36.22.37.22.36.23.36.22.36.22.36.22.37.22.36.21.36.22.36.22.37.22.36.22.36.21.36.22.36.21.37.22.36.21.36.22.36.21.36.22.37.21.36.21.36.22.36.21.36.21.37.21.36.21.36.21.36.21.36.21.37.21.36.21.36.21.36.21.37.2.36.21.36.21.36.2.36.21.37.21.36.2.36.21.36.2.36.2.37.21.36.2.36.2.36.21.36.2.37.2.36.2.36.2.36.21.37.19.36.2.36.2.36.2.36.2.37.2.36.2.36.2.36.19.36.2.37.2.36.19.36.2.36.2.36.19.37.2.36.19.36.2.36.19.36.19.37.2.36.19.36.19.36.19.37.2.36.19.36.19.36.19.36.19.37.19.36.19.36.19.36.19.36.19.37.19.36.18.36.19.36.19.36.19.37.18.36.19.36.19.36.18.37.19.36.18.36.19.36.18.36.19.37.18.36.18.36.19.36.18.36.18.37.18.36.19.36.18.36.18.36.18.37.18.36.18.36.18.36.18.37.18.36.18.36.18.36.18.36.18.37.18.36.17.36.18.36.18.36.18.37.17.36.18.36.17.36.18.36.18.37.17.36.18.36.17.36.18.36.17.37.17.36.18.36.17.36.17.37.18.36.17.36.17.36.17.36.17.37.18.36.17.36.17.36.17.36.17.37.17.36.17.36.17.36.17.36.16.37.17.36.17.36.17.36.17.37.16.36.17.36.17.36.17.36.16.37.17.36.17.36.16.36.17.36.16.37.17.36.16.36.17.36.16.36.16.37.17.36.16.36.16.36.17.36.16.37.16.36.16.36.17.36.16.37.16.36.16.36.16.36.16.36.16.37.16.36.16.36.16.36.16.36.16.37.16.36.16.36.16.36.15.36.16.37.16.36.16.36.16.36.15.37.16.36.16.36.15.36.16.36.15.37.16.36.16.36.15.36.16.36.15.37.16.36.15.36.15.36.16.36.15.37.15.36.16.36.15.36.15.36.16.37.15.36.15.36.15.36.15.37.16.36.15.36.15.36.15.36.15.37.15.36.15.36.15.36.15.36.15.37.15.36.15.36.15.36.15.36.14.37.15.36.15.36.15.36.15.37.14.36.15.36.15.36.14.36.15.37.15.36.14.36.15.36.15.36.14.37.15.36.14.36.15.36.14.36.15.37.14.36.14.36.15.36.14.37.15.36.14.36.14.36.15.36.14.37.14.36.14.36.15.36.14.36.14.37.14.36.14.36.14.36.14.36.14.37.15.36.14.36.14.36-85 .36.15.37.14.36.15.36.15.36.14.37.14.36.15.36.14.36.15.36.14.37.15.36.14.36.15.36.14.36.15.37.14.36.14.36.14.36.15.36.14.37.14.36.14.36.15.36.14.37.14.36.14.36.14.36.14.36.14.37.15.36.14.36.14.36.14.36.14.37.14.36.14.36.14.36.14.36.13.37.14.36.14.36.14.36.14.36.14.37.14.36.13.36.14.36.14.37.14.36.13.36.14.36.14.36.14.37.13.36.14.36.13.36.14.36.14.37.13.36.14.36.13.36.14.36.13.37.14.36.13.36.14.36.13.37.14.36.13.36.13.36.14.36.13.37.13.36.14.36.13.36.13.36.14.37.13.36.13.36.13.36.14.36.13.37.13.36.13.36.13.36.13.36.13.37.14.36.13.36.13.36.13.37.13.36.13.36.13.36.13.36.13.37.13.36.13.36.12.36.13.36.13.37.13.36.13.36.13.36.13.36.13.37.12.36.13.36.13.36.13.37.12.36.13.36.13.36.12.36.13.37.13.36.12.36.13.36.13.36.12.37.13.36.12.36.13.36.12.36.13.37.13.36.12.36.13.36.12.37.12.36.13.36.12.36.13.36.12.37.13.36.12.36.12.36.13.36.12.37.12.36.13.36.12.36.12.36.12.37.13.36.12.36.12.36.12.36.12.37.13.36.12.36.12.36.12.37.12.36.12.36.12.36.12.36.13.37.12.36.12.36.12"/><use xlink:href="#7a3c1__a" color="#D336C8" transform="matrix(3.75 0 0 3.75 125.4 99.85)"/><use xlink:href="#7a3c1__a" color="#D336C8" transform="matrix(3.75 0 0 3.75 220.55 7.51)"/></g><path fill="none" d="M28 45.01V162.5M371.99 45.01H28" color="#000"/></svg>