<svg xmlns="http://www.w3.org/2000/svg" xmlns:xlink="http://www.w3.org/1999/xlink" viewBox="0 0 400 200"><path fill="none" d="M0 0h400v200H0z"/><defs><use xlink:href="#bad9b__a" id="bad9b__b" fill="currentColor" stroke="none"/><use xlink:href="#bad9b__a" id="bad9b__c" stroke="currentColor" transform="rotate(180)"/><path id="bad9b__a" stroke="currentColor" stroke-width=".267" d="m0-1.33-1.33 2h2.66z"/></defs><path fill="none" stroke="#CCC" stroke-linecap="round" stroke-linejoin="round" stroke-width=".1" d="M46.1 162.5V45.01" class="bad9b__gridline" color="#000"/><g fill="none" stroke-linecap="round" stroke-linejoin="round" stroke-width="0" color="#000"><path d="M46.1 162.5V155m0-109.99v7.5"/><text fill="#000" font-family="KaTeX_Main" font-size="8" text-anchor="middle" transform="translate(46.1 172.6)"><tspan> 1</tspan></text></g><path fill="none" stroke="#CCC" stroke-linecap="round" stroke-linejoin="round" stroke-width=".1" d="M82.31 162.5V45.01" class="bad9b__gridline" color="#000"/><g fill="none" stroke-linecap="round" stroke-linejoin="round" stroke-width="0" color="#000"><path d="M82.31 162.5V155m0-109.99v7.5"/><text fill="#000" font-family="KaTeX_Main" font-size="8" text-anchor="middle" transform="translate(82.31 172.6)"><tspan> 2</tspan></text></g><path fill="none" stroke="#CCC" stroke-linecap="round" stroke-linejoin="round" stroke-width=".1" d="M118.52 162.5V45.01" class="bad9b__gridline" color="#000"/><g fill="none" stroke-linecap="round" stroke-linejoin="round" stroke-width="0" color="#000"><path d="M118.52 162.5V155m0-109.99v7.5"/><text fill="#000" font-family="KaTeX_Main" font-size="8" text-anchor="middle" transform="translate(118.52 172.6)"><tspan> 3</tspan></text></g><path fill="none" stroke="#CCC" stroke-linecap="round" stroke-linejoin="round" stroke-width=".1" d="M154.73 162.5V45.01" class="bad9b__gridline" color="#000"/><g fill="none" stroke-linecap="round" stroke-linejoin="round" stroke-width="0" color="#000"><path d="M154.73 162.5V155m0-109.99v7.5"/><text fill="#000" font-family="KaTeX_Main" font-size="8" text-anchor="middle" transform="translate(154.73 172.6)"><tspan> 4</tspan></text></g><path fill="none" stroke="#CCC" stroke-linecap="round" stroke-linejoin="round" stroke-width=".1" d="M190.94 162.5V45.01" class="bad9b__gridline" color="#000"/><g fill="none" stroke-linecap="round" stroke-linejoin="round" stroke-width="0" color="#000"><path d="M190.94 162.5V155m0-109.99v7.5"/><text fill="#000" font-family="KaTeX_Main" font-size="8" text-anchor="middle" transform="translate(190.94 172.6)"><tspan> 5</tspan></text></g><path fill="none" stroke="#CCC" stroke-linecap="round" stroke-linejoin="round" stroke-width=".1" d="M227.15 162.5V45.01" class="bad9b__gridline" color="#000"/><g fill="none" stroke-linecap="round" stroke-linejoin="round" stroke-width="0" color="#000"><path d="M227.15 162.5V155m0-109.99v7.5"/><text fill="#000" font-family="KaTeX_Main" font-size="8" text-anchor="middle" transform="translate(227.15 172.6)"><tspan> 6</tspan></text></g><path fill="none" stroke="#CCC" stroke-linecap="round" stroke-linejoin="round" stroke-width=".1" d="M263.36 162.5V45.01" class="bad9b__gridline" color="#000"/><g fill="none" stroke-linecap="round" stroke-linejoin="round" stroke-width="0" color="#000"><path d="M263.36 162.5V155m0-109.99v7.5"/><text fill="#000" font-family="KaTeX_Main" font-size="8" text-anchor="middle" transform="translate(263.36 172.6)"><tspan> 7</tspan></text></g><path fill="none" stroke="#CCC" stroke-linecap="round" stroke-linejoin="round" stroke-width=".1" d="M299.57 162.5V45.01" class="bad9b__gridline" color="#000"/><g fill="none" stroke-linecap="round" stroke-linejoin="round" stroke-width="0" color="#000"><path d="M299.57 162.5V155m0-109.99v7.5"/><text fill="#000" font-family="KaTeX_Main" font-size="8" text-anchor="middle" transform="translate(299.57 172.6)"><tspan> 8</tspan></text></g><path fill="none" stroke="#CCC" stroke-linecap="round" stroke-linejoin="round" stroke-width=".1" d="M335.78 162.5V45.01" class="bad9b__gridline" color="#000"/><g fill="none" stroke-linecap="round" stroke-linejoin="round" stroke-width="0" color="#000"><path d="M335.78 162.5V155m0-109.99v7.5"/><text fill="#000" font-family="KaTeX_Main" font-size="8" text-anchor="middle" transform="translate(335.78 172.6)"><tspan> 9</tspan></text></g><path fill="none" stroke="#CCC" stroke-linecap="round" stroke-linejoin="round" stroke-width=".1" d="M371.99 162.5V45.01" class="bad9b__gridline" color="#000"/><g fill="none" stroke-linecap="round" stroke-linejoin="round" stroke-width="0" color="#000"><path d="M371.99 162.5V155m0-109.99v7.5"/><text fill="#000" font-family="KaTeX_Main" font-size="8" text-anchor="middle" transform="translate(371.99 172.6)"><tspan> 10</tspan></text></g><g fill="none" stroke-linecap="round" stroke-linejoin="round" stroke-width="0" color="#000"><path d="M371.99 162.5h-7.5"/><text fill="#000" font-family="KaTeX_Main" font-size="8" transform="translate(378.99 165.1)"><tspan>3.00</tspan></text></g><g fill="none" stroke-linecap="round" stroke-linejoin="round" stroke-width="0" color="#000"><path d="M371.99 145.72h-7.5"/><text fill="#000" font-family="KaTeX_Main" font-size="8" transform="translate(378.99 148.32)"><tspan>4.00</tspan></text></g><g fill="none" stroke-linecap="round" stroke-linejoin="round" stroke-width="0" color="#000"><path d="M371.99 128.93h-7.5"/><text fill="#000" font-family="KaTeX_Main" font-size="8" transform="translate(378.99 131.53)"><tspan>5.00</tspan></text></g><g fill="none" stroke-linecap="round" stroke-linejoin="round" stroke-width="0" color="#000"><path d="M371.99 112.15h-7.5"/><text fill="#000" font-family="KaTeX_Main" font-size="8" transform="translate(378.99 114.75)"><tspan>6.00</tspan></text></g><g fill="none" stroke-linecap="round" stroke-linejoin="round" stroke-width="0" color="#000"><path d="M371.99 95.36h-7.5"/><text fill="#000" font-family="KaTeX_Main" font-size="8" transform="translate(378.99 97.96)"><tspan>7.00</tspan></text></g><g fill="none" stroke-linecap="round" stroke-linejoin="round" stroke-width="0" color="#000"><path d="M371.99 78.58h-7.5"/><text fill="#000" font-family="KaTeX_Main" font-size="8" transform="translate(378.99 81.18)"><tspan>8.00</tspan></text></g><g fill="none" stroke-linecap="round" stroke-linejoin="round" stroke-width="0" color="#000"><path d="M371.99 61.79h-7.5"/><text fill="#000" font-family="KaTeX_Main" font-size="8" transform="translate(378.99 64.39)"><tspan>9.00</tspan></text></g><g fill="none" stroke-linecap="round" stroke-linejoin="round" stroke-width="0" color="#000"><path d="M371.99 45.01h-7.5"/><text fill="#000" font-family="KaTeX_Main" font-size="8" transform="translate(378.99 47.61)"><tspan>10.00</tspan></text></g><path fill="none" d="M28 45.01V162.5M371.99 45.01H28" color="#000"/><text stroke-linecap="round" stroke-linejoin="round" stroke-width="0" color="#000" font-family="KaTeX_Main" font-size="10" text-anchor="middle" transform="rotate(-90 57.63 46.13)"><tspan font-weight="bold">Duration </tspan><tspan> in milliseconds</tspan></text><text stroke-linecap="round" stroke-linejoin="round" stroke-width="0" color="#000" font-family="KaTeX_Main" font-size="10" text-anchor="middle" transform="translate(199.99 195.75)"><tspan>Operations / 10</tspan><tspan dy="-5" font-size="8">6</tspan></text><text stroke-linecap="round" stroke-linejoin="round" stroke-width=".5" color="#000" font-family="KaTeX_Main" font-size="8" transform="translate(99.2 10.11)"><tspan>AVLBottomUp</tspan></text><g fill="none" stroke="currentColor" stroke-linecap="round" stroke-linejoin="round" stroke-width=".5" color="#000"><path stroke="#000" d="M63.7 7.51h29.9M28 151.76l.36-3.46.36 2.59.37-3.9.36-.86.36 2.55.36-3.83.36 2.7.37-4.13.36 3.14.36-4.37.36-.06.37 2.32.36-3.92.36 2.99.36-4.23.36 2.96.37-3.93.36 2.84.36-4.05.36-.3.36 2.67.37-4.42.36.07.36 2.26.36-3.18.36 2.41.37-3.8.36 2.95.36-4.04.36 2.86.36-4.18.37.35.36 2.38.36-3.6.36 1.94.37-3.37.36 2.87.36-4.03.36-.46.36 3.2.37-3.78.36 3.13.36-4.36.36 3.12.36-4.13.37-.01.36 2.75.36-3.08.36 2.7.36-3.86.37 3.06.36-3.77.36 3.22.36-4.01.37.04.36 2.89.36-3.77.36-.19.36 2.59.37-3.78.36 3.09.36-3.68.36 3.22.36-3.47.37 2.9.36-3.74.36-.08.36 2.81.36-3.45.37 3.13.36-3.61.36 2.84.36-3.58.37-.26.36 2.97.36-3.68.36 3.33.36-3.64.37-.29.36 3.03.36-3.31.36 3.06.36-3.64.37 2.83.36-3.15.36 2.52.36-3.08.36 3.14.37-4.07.36-.06.36 3.15.36-3.45.36-.65.37 3.31.36-3.26.36 2.88.36-3.36.37 3.03.36-3.99.36 3.39.36-3.35.36-.03.37 2.12.36-3.03.36 3.73.36-3.66.36 3.57.37-3.12.36-.5.36 3.84.36-3.69.36 3.26.37-3.5.36-.33.36 3.15.36-3.15.37 2.9.36-2.9.36 2.77.36-3.21.36 3.41.37-4.28.36.38.36 2.59.36-3.08.36-.06.37 2.41.36-3.15.36 3.16.36-3.61.36 3.54.37-3.8.36 3.25.36-3.4.36 2.94.36-4.16.37.36.36 2.49.36-2.97.36 3.39.37-3.63.36 3.01.36-3.43.36-.71.36 3.39.37-2.97.36 2.72.36-3.17.36.2.36 2.43.37-2.87.36 3.01.36-3.36.36 3.15.36-3.43.37 3.25.36-4.13.36.07.36 3.02.37-3.19.36-.13.36 2.92.36-3.12.36 2.98.37-3.51.36 3.36.36-3.48.36 3.05.36-3.3.37.2.36 2.66.36-3.02.36 2.88.36-3.36.37 3.13.36-3.59.36 3.21.36-3.49.36-.24.37 3.18.36-3.51.36 3.27.36-3.44.37-.02.36 2.77.36-3.18.36 3.15.36-3.12.37 3.16.36-3.79.36 2.93.36-3.54.36.36.37 2.55.36-4.05.36.15.36 3.24.36-2.86.37 2.52.36-3.28.36 3.23.36-3 .37 3.23.36-3.36.36.19.36 2.9.36-3.23.37 2.79.36-3.09.36 3.17.36-3.39.36 3.13.37-3.55.36-.32.36 3.48.36-3.45h.36l.37 2.75.36-3.26.36 2.91.36-3.15.37 3.07.36-3.19.36 3.31.36-3.82.36 3.17.37-3.74.36.04.36 3.19.36-3.38.36-.29.37 3.39.36-3.17.36 3.03.36-3.2.36 3.23.37-3.48.36 3.18.36-3.39.36.1.36 2.99.37-3.34.36 2.71.36-3.27.36 3.1.37-3.18.36 3.27.36-3.46.36-.03.36 3.19.37-3.38.36-.19.36 2.74.36-3.1.36 3.16.37-3.16.36 3.1.36-3.48.36 3.54.36-3.6.37.05.36 3.09.36-3.28.36 2.8.37-3.24.36-.04.36 2.85.36-3.32.36 3.25.37-3.08.36 3.19.36-3.78.36 3.21.36-3.41.37-.18.36 2.94.36-3.89.36 2.99.36-3.14.37 3.55.36-3.03.36 3.49.36-3.68.36.02.37 3.33.36-3.08.36-.22.36 2.71.37-2.84.36 3.12.36-3.54.36 3.26.36-3.42.37 3.55.36-3.51.36.14.36 2.99.36-3.3.37 3.08.36-3.35.36-.2.36 3.22.36-3.46.37 2.63.36-2.81.36 2.54.36-3.02.37-.09.36 2.54.36-2.96.36 3.32.36-3.12.37 3.02.36-3.24.36 3.4.36-3.49.36 2.93.37-3.22.36-.03.36 3.21.36-3.35.36-.3.37 3.02.36-3.08.36 3.39.36-3.52.36 3.21.37-3.14.36 3.05.36-3.38.36.19.37 2.92.36-3.11.36 2.85.36-3.5.36.06.37 3.14.36-3.03.36 3.2.36-3.51.36 3.39.37-3.52.36.01.36 3.03.36-3.19.36 3.14.37-3.32.36 3.1.36-3.54.36 3.08.37-3.25.36.09.36 3.04.36-3.5.36-.82.37 3.02.36-2.71.36 3.41.36-3.18.36 3.31.37-3.14.36 3.18.36-3.47.36 3.43.36-3.65.37.49.36 2.85.36-3.47.36 3.43.37-3.64h.36l.36 2.88.36-3.08.36 3.31.37-3.53.36 3.24.36-3.32.36.05.36 3.25.37-3.53.36 3.24.36-3.72.36 3.15.36-3.27.37 2.81.36-3.06.36.22.36 2.82.36-2.94.37-.09.36 3.1.36-3.16.36 3.04.37-3.08.36 3.19.36-3.18.36 2.88.36-3.55.37.3.36 2.63.36-2.9.36 3.12.36-3.27.37 3.26.36-3.28.36-.06.36 3.23.36-3.43.37 3.27.36-3.22.36 3.15.36-3.3.37.05.36 2.98.36-3.19.36 3.08.36-3.41.37 3.39.36-3.47.36 3.19.36-3.62.36.2.37 3.2.36-3.7.36.17.36 3.17.36-3.46.37 3.1.36-4.04.36 3.12.36-3.34.36 3.64.37-3.11.36.29.36 3.03.36-2.88.37 2.85.36-3.08.36 3.1.36-3.23.36-.06.37 3.19.36-3.43.36 3.32.36-3.22.36-.13.37 2.86.36-3.11.36 3.21.36-3.21.36 2.94.37-3.26.36 2.99.36-3.11.36 2.98.37-3.51.36.01.36 2.77.36-3.2.36.14.37 3.24.36-2.94.36 3.36.36-3.51.36 3.11.37-3.19.36 3.39.36-3.52.36.21.36 2.64.37-3.11.36 3.31.36-3.33.36 3.3.37-3.24.36-.22.36 3.37.36-3.28.36 3.05.37-3.34.36.15.36 2.98.36-3.31.36 3.15.37-2.85.36 2.77.36-3.22.36 3.28.36-3.37h.37l.36 2.99.36-3.29.36-.07.36 2.7.37-2.95.36 2.86.36-2.87.36 2.94.37-3.26.36 2.8.36-3.67.36 3.25.36-3.25.37.3.36 3.5.36-3.34.36 3.31.36-3.3.37 3.5.36-3.35.36-.28.36 3.38.36-3.37.37 3.18.36-3.34.36.03.36 2.79.37-3.11.36 3.17.36-2.93.36 3.08.36-3.33.37 3.21.36-3.69.36.13.36 2.51.36-3.4.37-.39.36 3.16.36-2.89.36 3.38.36-3.06.37 3.24.36-3.34.36 3.55.36-3.24.36-.01.37 2.84.36-2.78.36 2.64.36-3.3.37 3.24.36-3.32.36 3.42.36-3.2.36.12.37 3.09.36-3.41.36 3.31.36-3.47.36.25.37 2.75.36-3.24.36 3.22.36-3 .36 3.07.37-3.25.36 3.23.36-3.3.36.17.37 2.8.36-2.99.36-.41.36 2.96.36-3 .37 2.97.36-3.1.36 3.13.36-3.57.36 2.89.37-3.69.36.4.36 3.06.36-2.84.36 2.97.37-2.88.36 3.32.36-3.37.36 3.12.36-3.15.37.05.36 3.06.36-3.26.36.31.37 2.7.36-3.03.36 3.05.36-3.2.36 3.28.37-3.27.36 3.08.36-3.18.36 2.91.36-3.09.37-.39.36 2.54.36-2.93.36.21.36 3.07.37-2.97.36 3.23.36-3.23.36 3.36.37-3.42.36 2.93.36-3.28.36.19.36 2.76.37-3.16.36 3.33.36-3.36.36 3.26.36-3.29.37 3.36.36-3.31.36.08.36 3 .36-3.75.37.24.36 3.05.36-2.88.36 3.12.37-3.02.36 2.91.36-3.71.36 2.89.36-2.96.37.08.36 2.86.36-2.66.36 2.95.36-3.43.37-.02.36 3.13.36-2.98.36 3.16.36-3.4.37 2.71.36-3.23.36 3.25.36-3.09.36.12.37 2.94.36-2.87.36 3.11.36-3.12.37 2.96.36-2.76.36 2.93.36-3.02.36-.22.37 3.22.36-3.3.36.13.36 2.96.36-3.12.37 3.26.36-3.26.36 2.93.36-3.37.36 3.15.37-3.46.36-.34.36 3.04.36-2.86.37 2.94.36-3.18.36.23.36 3.23.36-3.27.37 3.25.36-3.4.36 3.53.36-3.22.36-.31.37 2.55.36-2.65.36 2.81.36-2.84.36 3.07.37-3.14.36 3.36.36-3.31.36 3.29.36-3.33.37-.18.36 3.36.36-3.46.36.24.37 2.91.36-3 .36 2.93.36-3.07.36 3.11.37-3.08.36 2.88.36-3.28.36-.18.36 2.88.37-2.77.36 2.79.36-3.05.36-.18.36 2.85.37-3.5.36 3.19.36-3 .36 3.38.37-3.1.36.25.36 2.99.36-3.03.36 3.12.37-2.97.36 2.77.36-3.17.36 3.2.36-3.04.37.2.36 2.68.36-3.19.36.27.36 2.7.37-2.74.36 2.74.36-2.97.36 2.85.36-3.45.37 2.8.36-3.31.36 3.65.36-3.27.37.12.36 3.03.36-2.98.36 2.87.36-2.93.37.19.36 2.82.36-3.17.36 2.93.36-3 .37 2.92.36-3.15.36.08.36 3.07.36-2.98.37 2.94.36-3.2.36 3.25.36-3.19.37 3.08.36-3.18.36-.12.36 3 .36-3.09.37.01.36 2.94.36-2.7.36 2.88.36-2.97.37 3.18.36-3.59.36 2.98.36-3.04.36.1.37 2.76.36-3.11.36 2.86.36-3.41.37 2.84.36-3.05.36.28.36 3.14.36-3.11.37 3.18.36-3.01.36 3.07.36-3.13.36.31.37 2.86.36-3.05.36 3.09.36-3.22.36 3.12.37-3.2.36 3.26.36-3.47.36-.03.36 3.6.37-3.49.36.04.36 2.13.36-2.87.37 2.95.36-3.06.36 3.47.36-3.55.36 3.75.37-3.36.36.03.36 2.74.36-2.94.36 3.02.37-3.09.36 2.8.36-3.12.36-.02.36 3.28.37-3.19.36 3.12.36-3.14.36.26.37 2.92.36-3.29.36 3.03.36-3.11.36 3.14.37-3.1.36 3 .36-3.37.36 3.31.36-3.02.37-.06.36 3.09.36-3.31.36.09.36 2.57.37-2.55.36 2.58.36-2.85.36 2.95.36-3.24.37 2.81.36-3.7.36.39.36 3.15.37-2.65.36 2.92.36-2.72.36 2.97.36-3.13.37-.35.36 3.27.36-3.22.36 3.37.36-3.32.37.25.36 2.9.36-2.99.36 3.05.36-3.04.37 2.98.36-3.17.36 3.31.36-3.57.37-.51.36 2.65.36-2.52.36-.05.36 3.13.37-2.96.36 3.07.36-2.92.36 3.06.36-3.4.37 3.12.36-2.98.36 3.19.36-3.34.36-.11.37 2.88.36-2.82.36 3 .36-3.27.36 3.52.37-3.42.36-.14.36 3.13.36-2.94.37 2.93.36-3.35.36.3.36 2.86.36-2.93.37 2.84.36-2.9.36 2.85.36-3.08.36 2.87.37-3.18h.36l.36 3.12.36-3.12.36.06.37 2.51.36-2.85.36 2.58.36-2.77.37 3.12.36-3.22.36 3.29.36-3.05.36.37.37 2.82.36-2.78.36 2.77.36-3.13.36 3.11.37-3.08.36 3.09.36-3.07.36-.08.36 2.97.37-3.41.36 3.62.36-3.43.36.25.37 2.35.36-3.87.36 1.24.36-2.17.36 4.19.37-3.23.36 3.54.36-3.25.36.63.36 2.57.37-2.69.36-.1.36 3.11.36-3.15.36 2.54.37-2.76.36 3.01.36-2.95.36 3.4.36-3.27.37.09.36 3.09.36-3.17.36 3 .37-3.24.36 3.24.36-3.56.36 3.56.36-3.71.37.31.36 2.96.36-2.93"/><use xlink:href="#bad9b__b" transform="matrix(3.75 0 0 3.75 354.25 50.6)"/><use xlink:href="#bad9b__b" transform="matrix(3.75 0 0 3.75 78.65 7.51)"/></g><text stroke-linecap="round" stroke-linejoin="round" color="#000" font-family="KaTeX_Main" font-size="8" transform="translate(99.2 25.11)"><tspan>AVLWeakTopDown</tspan></text><g fill="none" stroke="currentColor" stroke-linecap="round" stroke-linejoin="round" color="#000"><path stroke="#FFAB00" stroke-dasharray="4.5,2.0,0.5,2.0,0.5,2.0" d="M63.7 22.51h29.9M28 153.93l.36 3.45.36-4.84.37-.88.36 2.62.36-3.73.36 3.88.36-4.02.37-.96.36 3.1.36-3.39.36 2.67.37-3.5.36 3 .36-4.3.36 3.28.36-4.35.37.08.36 2.74.36-3.71.36-1.09.36 3.36.37-4.04.36 2.95.36-3.87.36 3.47.36-4.33.37 3.83.36-4.69.36-.08.36 3 .36-3.34.37 2.15.36-3.8.36 3.38.36-4.02.37 3.2.36-3.96.36.16.36 2.4.36-3.75.37 3.09.36-3.48.36.16.36 2.74.36-3.74.37 2.43.36-3.62.36 3.39.36-5.05.36 3.72.37-3.77.36-.01.36 3.29.36-3.47.37-1.14.36 2.81.36-2.81.36 2.99.36-3.75.37 3.52.36-4.11.36 3.19.36-4.01.36-.07.37 2.7.36-3.13.36 2.51.36-3.85.36 2.95.37-3.76.36 2.85.36-4.03.36-.37.37 3.65.36-3.66.36.27.36 2.35.36-3.39.37 2.43.36-2.98.36 2.75.36-3.32.36 2.86.37-3.12.36 2.2.36-3.67.36.56.36 2.75.37-3.41.36-.11.36 2.24.36-2.83.36 3 .37-3.74.36 3.24.36-4.15.36 3.99.37-4.01.36-.04.36 3.23.36-3.97.36 3.56.37-3.4.36 2.69.36-3.43.36 2.99.36-3.57.37-.21.36 2.85.36-3.49.36.8.36 2.46.37-3.04.36 2.56.36-3.73.36 3.5.37-3.63.36 3.65.36-3.96.36.1.36 3.13.37-3.7.36 2.9.36-3 .36-.13.36 2.19.37-3.67.36 3.87.36-3.2.36 3.05.36-3.75.37 3.23.36-3.53.36.38.36 2.64.36-3.49.37 3.04.36-3.48.36 3.06.36-3.45.37 3.25.36-3.98.36.37.36 2.73.36-3.24.37-.12.36 2.91.36-3.36.36 3.28.36-3.54.37 3.09.36-3.21.36 2.83.36-3.83.36.3.37 2.91.36-2.96.36 2.9.36-3.59.37.14.36 2.62.36-3.38.36 3.03.36-2.54.37 2.87.36-3.58.36.39.36 2.62.36-3.52.37 3 .36-3.2.36 3.06.36-3.23.36 2.73.37-3.26.36 3.02.36-3.06.36-.27.36 3.48.37-3.23.36-.81.36 2.95.36-3.06.37 2.8.36-3.34.36 2.77.36-3.27.36 3.71.37-3.79.36.38.36 2.87.36-3.18.36 2.7.37-3.25.36.03.36 2.62.36-2.74.36 2.96.37-3.78.36 3.22.36-3.03.36-.01.37 2.44.36-2.64.36 3.31.36-3.78.36 3.22.37-3.62.36 3.15.36-3.54.36.16.36 2.98.37-3.1.36-.01.36 2.8.36-3.66.36 3.62.37-3.57.36 3.15.36-3.17.36 2.93.37-3.31.36 2.93.36-3.46.36.54.36 2.72.37-3.11.36 2.99.36-3.75.36-.3.36 3.34.37-3.31.36 3.37.36-3.52.36 3.49.36-3.39.37-.11.36 2.66.36-3.13.36 3.17.36-3.68.37 3.68.36-3.43.36 3.24.36-4.13.37.32.36 2.52.36-2.85.36.77.36 2.76.37-3.39.36 3.08.36-3.74.36 3.51.36-3.29.37 2.86.36-3.57.36.3.36 2.78.36-2.71.37 2.53.36-3.13.36 2.73.36-3.45.37.2.36 3.41.36-3.28.36 2.7.36-3.11.37 3.29.36-3.31.36.1.36 2.8.36-3.44.37 3.07.36-3.2.36 3.37.36-3.15.36 3 .37-3.58.36-.02.36 3.03.36-3.26.36-.11.37 3.14.36-3.16.36 2.93.36-3.39.37 3.08.36-2.69.36 2.36.36-2.93.36.19.37 2.42.36-2.46.36 2.26.36-2.49.36 3.04.37-3.02.36-.76.36 3.24.36-3.11.36 2.86.37-3.22.36.16.36 2.93.36-3.45.37 2.94.36-2.51.36 2.46.36-3.11.36 3.2.37-3.44.36 3.41.36-3.67.36.14.36 3.61.37-3.51.36-.01.36 2.62.36-3.07.36 2.82.37-2.71.36 2.71.36-2.96.36 2.92.36-3.55.37-.09.36 3.19.36-3.52.36 3.39.37-3.17.36 2.84.36-2.38.36-1.48.36 3.73.37-2.67.36 2.6.36-2.98.36-.13.36 2.67.37-3 .36 2.59.36-2.56.36 2.94.36-3.1.37 2.47.36-3.17.36.49.36 2.77.37-2.75.36-.73.36 3.05.36-2.86.36 2.89.37-3.31.36 2.78.36-2.37.36 2.58.36-2.96.37 2.95.36-3.26.36.22.36 2.51.36-2.8.37 3.25.36-3.84.36 3.12.36-3.38.37.15.36 3.19.36-3.43.36 3.36.36-3.06.37.07.36 2.1.36-2.52.36 3.24.36-3.49.37 3.72.36-4.03.36 3.51.36-3.64.36.44.37 3.13.36-4.06.36.51.36 2.39.36-3.32.37 4.02.36-3.81.36 3.29.36-3.12.37 2.88.36-3.27.36.14.36 3.39.36-3.18.37 2.31.36-2.86.36 3.3.36-3.11.36 2.66.37-2.76.36-.62.36 3.57.36-3.2.36 3.19.37-3.71.36.54.36 3.07.36-3.8.37 3.85.36-4.27.36 3.22.36-2.99.36 3.28.37-3.25.36-.09.36 2.73.36-2.9.36-.04.37 2.9.36-3.2.36 3.04.36-2.77.36 2.11.37-2.74.36 2.63.36-2.37.36-.22.36 2.8.37-3.22.36 2.9.36-3.16.36 2.87.37-3.24.36 3.86.36-3.56.36-.19.36 3.38.37-3.58.36-.4.36 3.47.36-2.85.36 3.27.37-3.2.36 2.82.36-3.34.36 3.12.36-3.3.37 3.21.36-3.18.36-.09.36 3.18.37-3.17.36-.08.36 3.11.36-3.12.36 2.55.37-2.76.36 3.12.36-3.1.36 3.05.36-3.27.37.2.36 2.85.36-3.09.36 2.98.36-3.29.37 3.19.36-3.17.36 3.16.36-3.14.37-.16.36 2.96.36-3.34.36-.48.36 3.67.37-3.37.36 2.89.36-3.21.36 3.28.36-3.33.37 3.44.36-3.34.36-.07.36 2.94.36-2.98.37 2.88.36-3.41.36-.15.36 3.28.36-3.13.37 3.48.36-3.47.36 3.29.36-3.14.37 2.95.36-3.18.36-.25.36 3 .36-3.49.37 3.32.36-3.02.36 2.89.36-3.62.36 3.74.37-3.17.36-.67.36 3.7.36-3.17.36-.22.37 2.69.36-2.52.36 2.58.36-3.09.37 3.36.36-3.03.36 2.84.36-3.3.36.18.37 2.67.36-3.12.36 3.59.36-3.09.36-.63.37 2.86.36-2.54.36 2.93.36-3.74.36 3.97.37-3.74.36.65.36 2.47.36-3.13.36 3.6.37-3.78.36 3.25.36-3 .36 2.59.37-2.84.36 2.98.36-3.39.36.1.36 3.41.37-3.43.36-.28.36 3.19.36-2.88.36 2.97.37-3.98.36 3.83.36-3.13.36 3.05.36-3.67.37.43.36 3.23.36-3.14.36 3.21.37-3.35.36.28.36 2.76.36-3.67.36 3.54.37-2.96.36 3.23.36-3.54.36.44.36 2.58.37-3.4.36 3.55.36-2.99.36 2.49.36-2.94.37 2.63.36-3.33.36.41.36 2.9.36-3 .37.19.36 2.63.36-3.29.36 2.81.37-3.03.36 3.39.36-3.35.36 3.31.36-3.04.37 2.96.36-3.7.36.45.36 2.94.36-2.85.37 2.97.36-3.54.36.25.36 2.58.36-2.55.37 2.3.36-2.77.36 3.08.36-3.27.37.36.36 3.1.36-3.53.36 3.13.36-3.22.37 3.23.36-3.31.36 2.75.36-3.3.36.79.37 2.36.36-2.78.36.39.36 2.59.36-2.8.37 2.35.36-2.73.36 3.17.36-2.95.37 2.76.36-2.82.36-.02.36 2.01.36-2.3.37 2.59.36-2.75.36 2.95.36-3.5.36.64.37 2.28.36-2.65.36 2.89.36-3.39.36 3.76.37-3.57.36.65.36 2.6.36-3.46.36 3.02.37-2.7.36 3.27.36-3.21.36 2.83.37-3.05.36-.05.36 2.72.36-2.87.36.27.37 2.8.36-3.02.36 2.34.36-2.95.36 3.44.37-2.94.36 2.96.36-3.68.36.19.36 2.75.37-2.76.36 3.34.36-3.33.36 2.59.37-2.35.36-.48.36 3.24.36-3.07.36 3.13.37-3.2.36-.42.36 3 .36-2.73.36 2.69.37-3.07.36 3.32.36-3.48.36 3.52.36-3.4.37 3.36.36-3.11.36-.25.36 2.67.36-3.15.37.46.36 2.38.36-2.69.36 2.92.37-3.12.36 3.11.36-2.95.36 2.57.36-3.04.37-.22.36 3.2.36-2.85.36 3.22.36-3.69.37 2.53.36-3.24.36.49.36 2.74.36-2.51.37 2.65.36-3.35.36.36.36 2.83.37-2.98.36 3.17.36-2.51.36 2.53.36-2.96.37 2.98.36-3.45.36.35.36 2.74.36-3.26.37-.23.36 3.36.36-2.92.36 2.52.36-2.59.37 2.66.36-2.72.36 2.88.36-2.97.36 3.19.37-3.43.36-.04.36 3.36.36-3.09.37 2.92.36-3.24.36 3.12.36-2.73.36-.63.37 3.38.36-2.88.36 2.65.36-3.39.36.03.37 2.91.36-2.8.36 2.56.36-2.58.36 2.9.37-2.75.36 2.95.36-3.51.36.12.37 3.16.36-3.01.36-.44.36 2.66.36-2.52.37 3.05.36-2.95.36 2.66.36-2.72.36 2.99.37-3.33.36-.02.36 2.95.36-2.82.36 2.89.37-2.72.36 2.6.36-2.86.36 2.18.37-2.45.36-.22.36 3.05.36-3.48.36 2.92.37-2.86.36.51.36 2.46.36-2.36.36 2.53.37-3.14.36 3.42.36-3.18.36 3.29.36-2.97.37-.77.36 3.46.36-3.21.36-.17.36 2.55.37-2.49.36 3 .36-3.51.36 2.96.37-2.74.36 3.21.36-3.27.36.21.36 2.27.37-2.94.36 3.42.36-3.35.36 3.23.36-2.78.37 2.94.36-3.45.36-.21.36 3.17.36-3.12.37.1.36 2.72.36-2.77.36 3.05.37-2.85.36 2.9.36-3.31.36 3.07.36-3.19.37 3.18.36-3.13.36.06.36 2.98.36-2.98.37-.05.36 2.82.36-3.47.36 2.95.36-2.17.37 3.01.36-3.21.36 3.16.36-3.57.36-.03.37 2.48.36-2.42.36 3.03.36-3.14.37 2.8.36-2.95.36 3 .36-3.05.36-.04.37 3.16.36-3.05.36.15.36 3.01.36-3.33.37 3.54.36-3.24.36 1.93.36-2.21.36 3 .37-3.57.36-.14.36 2.79.36-3.13.37 3.43.36-3.09.36-.27.36 3.25.36-3.22.37 3.18.36-3.32.36 2.64.36-2.41.36 3.27.37-3.25.36-.08.36 2.82.36-2.5.36 3.13.37-3.81.36 3.56.36-3.18.36 2.61.36-2.9.37-.14.36 3.1.36-3.21.36.2.37 3.37.36-3.82.36 3.22.36-3.4.36 3.69.37-3.3.36 3.14.36-3.09.36.33.36 2.45.37-2.88.36 3.11.36-3.23.36.09.36 3.42.37-4.01.36 3.67.36-3.19.36 2.66.37-4.22.36.51.36 3.66.36-3.35.36 3.26.37-2.85.36 3.12.36-2.95.36 2.59.36-2.8.37 2.97.36-3.31.36.4.36 2.42.36-2.41.37-.49.36 2.98.36-3.18.36 3.65.37-3.25.36 2.83.36-3.14.36 3.1.36-3.03.37-.29.36 3.27.36-4.09.36 3.6.36-2.78.37.27.36 3.01.36-3.16.36 2.25.36-2.51.37 3.2.36-3.27.36.02.36 2.94.36-3.01.37 2.52.36-2.45.36 2.52.36-2.55.37 2.52.36-2.77.36.46.36 2.28.36-2.79.37-.14.36 3.22.36-2.95"/><use xlink:href="#bad9b__c" color="#FFAB00" transform="matrix(3.75 0 0 3.75 67.83 115.28)"/><use xlink:href="#bad9b__c" color="#FFAB00" transform="matrix(3.75 0 0 3.75 78.65 22.51)"/></g><text stroke-linecap="round" stroke-linejoin="round" color="#000" font-family="KaTeX_Main" font-size="8" transform="translate(241.1 10.11)"><tspan>AVLRelaxedBottomUp</tspan></text><g fill="none" stroke="currentColor" stroke-linecap="round" stroke-linejoin="round" color="#000"><path stroke="#D336C8" d="M205.6 7.51h29.9M28 149.77l.36-.84.36 2.87.37-3.7.36 2.59.36-4.45.36 2.86.36-4.61.37-.14.36 2.39.36-3.75.36 2.74.37-3.68.36 2.69.36-3.9.36 2.88.36-4.04.37-.15.36 2.35.36-4.17.36-.07.36 2.45.37-3.72.36 2.81.36-3.83.36 3.01.36-3.92.37 2.92.36-4.28.36 3.29.36-4.32.36-.11.37 2.71.36-3.63.36 2.75.36-3.77.37-.8.36 2.87.36-3.53.36 2.69.36-3.97.37 3.37.36-4.01.36-.17.36 2.68.36-3.62.37 2.9.36-3.75.36 2.92.36-3.93.36 3.21.37-4.05.36-.23.36 2.86.36-4.01.37.17.36 2.39.36-3.19.36 2.73.36-3.78.37 3.14.36-3.75.36 2.87.36-3.49.36-.03.37 2.9.36-3.59.36 2.75.36-3.65.36 3.07.37-3.52.36-.68.36 3.11.36-3.49.37 2.86.36-4.01.36 2.54.36-3.21.36-.09.37 3.3.36-3.57.36 3.19.36-3.67.36 3.21.37-3.51.36 2.95.36-3.27.36-.24.36 3.22.37-4.17.36-.18.36 3.25.36-3.48.36 3.21.37-3.74.36 3.03.36-3.55.36 3.25.37-3.81.36.02.36 2.95.36-3.82.36 3.27.37-3.48.36 3.32.36-3.68.36-.06.36 3.33.37-3.04.36 2.66.36-3.11.36-.46.36 3.38.37-3.75.36 3.2.36-3.29.36 3.57.37-3.49.36 3.14.36-3.23.36.01.36 2.69.37-2.92.36 3.37.36-4.03.36.25.36 3.01.37-3.59.36 3.26.36-3.83.36 3.15.36-3.16.37 2.95.36-3.48.36-.6.36 3.31.36-3.03.37 2.69.36-3.33.36 3.59.36-4.04.37-.14.36 3.23.36-3.32.36 3.02.36-3.4.37.15.36 2.75.36-3.04.36 2.55.36-3.22.37 3.06.36-3.39.36 3.37.36-3.81.36.31.37 2.71.36-3.16.36-.22.36 2.55.37-2.62.36 2.61.36-3.32.36 2.89.36-3.05.37 3.02.36-3.31.36 3.12.36-3.62.36.09.37 2.68.36-3.05.36 3.06.36-3.43.36 3 .37-3.53.36-.1.36 3.51.36-3.53.36 3.04.37-3.45.36.15.36 2.66.36-3.33.37 3.21.36-3.39.36 3.2.36-3.43.36 3.31.37-3.57.36-.11.36 2.76.36-2.99.36-.11.37 2.75.36-3.17.36 3.18.36-3.55.36 3.27.37-3.46.36 3.35.36-3.51.36-.04.37 2.83.36-3.28.36 3.02.36-2.9.36 2.92.37-3.34.36 3.09.36-3.16.36-.63.36 3.26.37-3.48.36 3.13.36-3.77.36.38.36 2.71.37-2.67.36 2.82.36-3.47.36 3.26.37-3.29.36 2.87.36-3.04.36-.17.36 3.02.37-3.28.36-.24.36 2.93.36-2.83.36 2.75.37-3.06.36 3.14.36-3.61.36 3.24.36-3.49.37.08.36 2.9.36-3.31.36 2.98.36-3.09.37 2.98.36-3.32.36 3.27.36-3.62.37-.16.36 3.23.36-3.5.36.28.36 2.54.37-2.88.36 3.02.36-3.45.36 3.12.36-3.12.37 3 .36-3.22.36-.11.36 3.04.36-3.14.37 3.04.36-3.29.36-.38.36 3 .37-3.34.36 3.44.36-3.44.36 3.15.36-3.48.37 3.58.36-3.75.36.09.36 3.05.36-3.09.37 2.93.36-3.25.36 2.81.36-2.96.36 3.21.37-3.56.36-.16.36 3.27.36-3.38.36.34.37 2.49.36-2.91.36 2.97.36-3.57.37 3.38.36-3.26.36 3.1.36-3.29.36-.13.37 3.1.36-3.24.36 3.11.36-3.47.36-.06.37 2.92.36-3.07.36 2.97.36-3.31.36 3.38.37-3.46.36 3.45.36-3.48.36-.09.37 3.2.36-3.33.36 3.18.36-3.31.36 3 .37-3.23.36 3.33.36-3.77.36.28.36 3.01.37-3.31.36.27.36 2.7.36-3.2.36 2.97.37-3.34.36 3.2.36-3.23.36 3.13.36-3.66.37.61.36 2.75.36-3.34.36 3.23.37-3.28.36-.27.36 2.97.36-3.09.36 3.05.37-3.3.36 3.31.36-3.34.36.24.36 2.86.37-3.07.36 2.73.36-3.02.36 2.85.36-3.92.37 3.02.36-3.16.36.36.36 3.11.37-3.08.36 3.39.36-3.34.36.11.36 2.81.37-3.15.36 3.07.36-3.27.36 3.32.36-3.55.37 3.34.36-3.64.36-.02.36 3.45.36-3.33.37 2.98.36-3.15.36-.3.36 3.36.37-3.27.36 2.98.36-3.44.36 3.43.36-3.36.37.02.36 2.39.36-2.81.36 2.83.36-3.19.37 3.4.36-3.42.36 3.44.36-3.49.36.31.37 2.73.36-3.27.36.11.36 2.7.36-2.71.37 2.82.36-3.18.36 3.15.36-3.35.37 3.19.36-3.19.36 3.1.36-3.48.36.08.37 3.14.36-3.37.36 2.97.36-2.81.36-.58.37 3.52.36-3.33.36 3.02.36-3.21.36 2.98.37-3.13.36-.16.36 3.18.36-3.21.37 2.92.36-2.81.36 2.86.36-3.13.36 3.04.37-3.3.36.03.36 3.1.36-3.33.36.12.37 2.78.36-2.78.36 2.76.36-2.93.36 3.16.37-3.41.36 3.24.36-3.55.36.14.36 3.02.37-3.06.36 2.85.36-3.26.36 3.26.37-3.48.36.16.36 2.95.36-3.15.36 3.08.37-3.32.36 3.24.36-3.51.36.25.36 2.93.37-3.36.36 3.28.36-3.18.36 3.45.36-3.67.37 3.19.36-3.24.36-.01.36 2.96.37-3.11.36.05.36 3.03.36-3.17.36 3.19.37-3.39.36 3.15.36-3.29.36 3.23.36-3.43.37.37.36 2.82.36-3.24.36 2.92.36-3.16.37 3.28.36-3.35.36-.18.36 3.27.37-3.12.36 3.05.36-3.39.36.09.36 3.07.37-3.17.36 2.89.36-3.23.36 3.16.36-3.15.37 3.38.36-3.57.36.12.36 2.9.36-3.05.37 3.01.36-3.27.36-.03.36 3.11.36-3.37.37 3.17.36-3.08.36 3.11.36-3.45.37 3.19.36-3.49.36.31.36 3.05.36-2.89.37 2.73.36-3.04.36 3.04.36-3.35.36-.01.37 3.11.36-3.25.36 3.07.36-3.09.36.15.37 2.77.36-3.04.36 3.11.36-3.29.37 3.22.36-3.43.36 3.32.36-3.49.36.31.37 2.93.36-3.41.36-.08.36 2.99.36-3.04.37 3.18.36-3.17.36 3.12.36-3.19.36 3.11.37-3.3.36 3.37.36-3.32.36.05.36 3.07.37-3.23.36 3 .36-3.47.36 2.6.37-3.17.36-.21.36 3.36.36-3.01.36 3.33.37-3.43.36.12.36 3.19.36-3.32.36 3.37.37-3.31.36 3.18.36-3.5.36 3.42.36-3.6.37.24.36 2.96.36-3.07.36-.23.37 3.32.36-3.32.36 3.27.36-3.04.36 2.8.37-3.1.36 3.08.36-3.28.36.21.36 2.99.37-2.87.36 2.8.36-3.05.36 3.1.36-3.72.37 3.04.36-3.44.36.07.36 3.48.36-3.33.37 3.38.36-3.38.36.01.36 3.14.37-3.11.36 2.98.36-3.11.36 3.12.36-3.3.37 3.31.36-3.41.36-.17.36 3.3.36-3.21.37-.05.36 2.78.36-2.84.36 3.02.36-2.93.37 2.92.36-3.22.36 3.1.36-3.22.37-.01.36 2.91.36-3.07.36 3.16.36-3.19.37 3.06.36-3.24.36 2.97.36-3.09.36-.28.37 3.15.36-3.21.36.44.36 2.8.36-3.13.37 3.09.36-3.18.36 3.23.36-3.47.37 3.34.36-3.22.36.03.36 2.7.36-2.73.37 2.84.36-3.13.36.04.36 2.87.36-2.99.37 2.86.36-2.87.36 2.97.36-3.15.36 3.31.37-3.9.36.57.36 2.74.36-2.93.36 2.81.37-3.12.36 3.32.36-3.11.36 3.05.37-3.31.36.17.36 2.92.36-3.26.36.11.37 2.94.36-3.23.36 3.26.36-3.29.36 3.08.37-2.99.36 3.22.36-3.37.36.18.36 2.93.37-3.25.36 2.98.36-2.77.36-.2.37 2.71.36-3.31.36 3.52.36-3.29.36 3.2.37-3.21.36 3.3.36-3.29.36-.09.36 2.94.37-3.03.36 3.02.36-3.19.36 3.14.36-3.3.37 3.16.36-3.14.36-.09.36 3.42.36-3.4.37.23.36 2.84.36-3.17.36 2.85.37-3.01.36 3.23.36-3.55.36 3.27.36-3.12.37.18.36 2.62.36-2.84.36 2.87.36-3 .37-.01.36 3.1.36-3.13.36 2.92.36-3.2.37 3.15.36-3.11.36.08.36 3.04.37-3.18.36 2.97.36-2.96.36 2.66.36-3.14.37 3.51.36-3.16.36-.12.36 2.82.36-3.09.37 3.31.36-3.55.36.01.36 2.96.36-2.95.37 3.02.36-3.31.36 3.35.36-3.41.36 3.5.37-3.42.36.15.36 2.98.36-3.11.37 2.98.36-3.04.36-.17.36 3.08.36-2.98.37 3.23.36-3.47.36 3.08.36-3.24.36.45.37 2.6.36-2.92.36 2.7.36-2.74.36 2.9.37-3.05.36 2.82.36-3.06.36.23.37 2.89.36-3.22.36-.07.36 2.86.36-2.97.37 3.15.36-3.06.36 3.03.36-3.14.36 3.23.37-3.44.36 3.25.36-3.49.36.11.36 2.9.37-3.04.36 3.1.36-2.89.36-.13.37 3.38.36-3.6.36 3.22.36-3.17.36 3.21.37-3.41.36.04.36 2.89.36-3.06.36 2.99.37-2.99.36 3.09.36-3.04.36 3.21.36-3.53.37.44.36 2.73.36-3 .36.06.36 2.87.37-3.1.36 3.15.36-3.34.36 3.3.37-3.21.36 3.17.36-3.22.36-.04.36 2.99.37-3.02.36 2.86.36-3.06.36 2.99.36-3.13.37-.17.36 3 .36-2.97.36 3.43.36-3.16.37 2.9.36-3.12.36-.33.36 3.34.37-3.03.36 2.83.36-3.05.36 3.07.36-2.99.37 3 .36-3.09h.36l.36 2.85.36-3 .37-.12.36 3.06.36-3.14.36 3.02.36-3.17.37 3.38.36-3.38.36 3.17.36-3.3.36.01.37 2.92.36-3.13.36 3.48.36-3.42.37 3.33.36-3.53.36.27.36 2.83.36-3.12.37 3.1.36-3.18.36.25.36 2.68.36-3.01.37 2.96.36-2.98.36 3.08.36-2.97.36 2.93.37-3.01.36-.14.36 2.96.36-2.79.37 2.67.36-3.21.36.22.36 2.77.36-2.97.37 3.09.36-3.44.36 3.53.36-3.35.36 3.12.37-3.22.36.27.36 2.86.36-3 .36 3.09.37-3.24.36 3.13.36-3.1.36-.41.36 3.37.37-3 .36 2.85.36-3.18.36.03.37 3.03.36-3.14.36 3.23.36-3.59.36 3.57.37-3.43.36 3.15.36-3.21.36.2.36 3.02.37-2.92.36-.41.36 2.95.36-2.68.36 2.89.37-3.11.36 2.95.36-2.96.36 2.91.37-3.05.36 2.79.36-2.79.36-.16.36 2.94.37-2.93.36 2.98.36-3.1.36 3.03.36-3.09.37-.16.36 3.01.36-3.23.36 3.27.36-2.96.37-.19.36 3.27.36-3.14.36 3.03.37-2.99.36 2.82.36-3.06.36 2.96.36-3.14.37.07.36 2.78.36-2.82.36-.15.36 3.07.37-2.98.36 2.81.36-3.21.36 3.3.36-3.26.37 3.62.36-3.45.36.29.36 2.5.36-2.7.37 2.56.36-2.46.36 2.34.36-2.58.37 2.81.36-3.03.36-.41.36 3.23.36-2.91.37 3.04.36-3.19.36-.02"/><use xlink:href="#bad9b__a" color="#D336C8" transform="matrix(3.75 0 0 3.75 125.4 85.67)"/><use xlink:href="#bad9b__a" color="#D336C8" transform="matrix(3.75 0 0 3.75 220.55 7.51)"/></g><text stroke-linecap="round" stroke-linejoin="round" color="#000" font-family="KaTeX_Main" font-size="8" transform="translate(241.1 25.11)"><tspan>AVLRelaxedTopDown</tspan></text><g fill="none" stroke="currentColor" stroke-linecap="round" stroke-linejoin="round" color="#000"><path stroke="#9F650D" stroke-dasharray="4.0,2.0,1.0,2.0" d="M205.6 22.51h29.9M28 157.51l.36-3.83.36-.6.37 3.17.36-3.84.36-.35.36 2.93.36-4.61.37 3.66.36-4.2.36 3.3.36-4.21.37 2.79.36-3.87.36.43.36 1.92.36-3.28.37 2.56.36-4.1.36-.37.36 2.84.36-4.07.37 3.4.36-3.83.36 3.14.36-3.96.36-1.01.37 2.76.36-3.25.36 2.52.36-3.32.36 2.74.37-3.71.36 2.87.36-2.8.36 2.61.37-4.22.36-.36.36 3.31.36-4.16.36-.23.37 2.82.36-3.43.36 2.74.36-3.51.36 3.65.37-4.87.36 3 .36-3.36.36-.03.36 2.48.37-3.36.36 3.34.36-4.22.36-.02.37 2.58.36-3.85.36 3.22.36-2.58.36 2.45.37-3.85.36-.24.36 2.96.36-3.15.36 2.49.37-3.69.36 2.93.36-3.82.36 2.85.36-3.55.37-.32.36 2.79.36-3.61.36.51.37 2.23.36-3.26.36 2.73.36-3.87.36 3.3.37-3.71.36 3.09.36-3.59.36 2.82.36-4.29.37.25.36 3.16.36-3.07.36 2.5.36-3.38.37-.47.36 3.41.36-3.59.36 3.22.36-3.51.37 3.07.36-3.93.36.16.36 2.48.37-2.86.36 3 .36-3.55.36 2.41.36-3.37.37 3.52.36-3.81.36.46.36 2.46.36-3.55.37.01.36 2.77.36-3.14.36 2.95.36-3.57.37 3.28.36-3.43.36 3.31.36-4.18.37.49.36 2.58.36-3.09.36 2.73.36-3.24.37 2.83.36-3.2.36-.24.36 3.01.36-3.65.37 3.38.36-3.5.36 3.28.36-3.61.36-.21.37 2.93.36-2.92.36 3.03.36-3.89.36 2.92.37-3.4.36 3.91.36-4.16.36.26.37 3.45.36-4.07.36-.04.36 2.73.36-3.1.37 2.63.36-2.64.36 2.88.36-3.72.36 3.48.37-3.96.36.25.36 3.33.36-3.4.36 2.76.37-3.5.36 3.63.36-3.62.36-.13.37 3.23.36-3.5.36 2.76.36-3.63.36.19.37 3.06.36-3.85.36 3.57.36-3.75.36 3.25.37-3.01.36 2.72.36-2.96.36 2.67.36-3.7.37.55.36 2.41.36-2.84.36.4.36 2.51.37-3.54.36 3.22.36-3.55.36 3.37.37-3.89.36 3.45.36-3.5.36-.18.36 3.25.37-3.1.36 3.24.36-3.62.36 3.01.36-3.07.37-.13.36 2.73.36-2.94.36 2.77.36-3.36.37-.01.36 3.24.36-3.36.36 2.62.37-3.04.36 3.21.36-3.31.36 2.82.36-3.43.37.24.36 2.84.36-3.47.36.36.36 2.72.37-3.47.36 3.55.36-3.49.36 2.94.36-3.33.37 3.02.36-3.55.36 3.94.36-3.97.37.22.36 2.56.36-2.73.36 2.74.36-3.36.37 3.28.36-3.75.36.07.36 2.83.36-3.05.37 3.38.36-3.83.36.62.36 3.1.36-3.51.37 2.61.36-3.23.36 3.13.36-2.68.36 2.73.37-3.69.36.03.36 3.59.36-3.42h.37l.36 2.48.36-2.75.36 3.4.36-3.36.37 2.97.36-4.35.36 4.16.36-3.72.36.51.37 2.5.36-3.51.36 3.24.36-2.41.36 2.34.37-3.06.36 2.57.36-2.92.36-.08.37 3.22.36-3.13.36 2.92.36-3.29.36-.04.37 2.72.36-3.37.36 3 .36-2.68.36 3.06.37-3.16.36 2.54.36-3.1.36-.28.36 3.3.37-3.7.36.4.36 3 .36-3.57.36 3.13.37-3.06.36 3.18.36-3.21.36 2.61.37-2.5.36-.29.36 2.69.36-3 .36 2.57.37-3.8.36 4.03.36-3.76.36 3.51.36-3.34.37.08.36 3.23.36-4.24.36 1.04.36 2.62.37-2.94.36 2.74.36-3.15.36 3.29.37-3.9.36 3.88.36-4.03.36 3.39.36-3.13.37-.08.36 3.21.36-3.55.36.12.36 3.34.37-3.54.36 3.24.36-3.37.36 3.25.36-3.73.37 3.28.36-2.96.36-.24.36 2.97.36-3.02.37 3.2.36-3.73.36 3.08.36-3.52.37 3.46.36-3.52.36.12.36 3.25.36-3.58.37.12.36 2.63.36-2.86.36 3.08.36-3.19.37 2.49.36-2.35.36 2.92.36-3.73.36.26.37 2.64.36-2.93.36 3.1.36-3.33.37.29.36 2.44.36-2.92.36 3.05.36-3.25.37 3.36.36-3.81.36 3.67.36-3.44.36-.09.37 3.16.36-3.67.36 3.48.36-3.25.36 2.81.37-3.04.36 3.51.36-3.82.36.11.37 3.45.36-3.58.36.3.36 2.43.36-2.55.37 2.95.36-3.49.36 3.04.36-3.5.36 3.38.37-3.37.36.12.36 3.24.36-3.54.36 3.66.37-3.35.36.33.36 2.86.36-3.21.36 3.11.37-4.02.36 3.4.36-2.93.36.13.37 2.33.36-2.79.36 3.48.36-3.28.36 3.2.37-3.97.36 3.68.36-3.31.36 2.53.36-3.13.37.09.36 3.19.36-3.08.36-.25.36 2.44.37-2.58.36 2.99.36-2.98.36 3 .37-3.1.36 3.17.36-3.42.36.28.36 2.38.37-2.83.36 3.07.36-3.1.36-.76.36 3.84.37-3.7.36 3.43.36-3.61.36 3.25.36-3.15.37-.29.36 3.64.36-3.28.36 3.02.36-3.91.37 3.31.36-2.75.36 3.34.36-3.37.37-.21.36 3.06.36-3.43.36.48.36 2.25.37-2.59.36 2.63.36-3.01.36 3.53.36-3.6.37 3.1.36-3.47.36 3.18.36-3.24.36-.01.37 3.33.36-2.85.36 1.97.36-2.5.37.05.36 2.92.36-3.03.36 2.38.36-2.3.37 2.53.36-3.48.36.33.36 2.7.36-2.9.37 2.79.36-2.91.36 2.94.36-2.77.36 3.47.37-3.54.36.06.36 3.03.36-3.51.37-.26.36 3.03.36-2.94.36 2.69.36-2.87.37 3.16.36-3.18.36 2.92.36-3.12.36-.24.37 3.64.36-3.56.36 3.19.36-2.78.36 2.52.37-2.99.36-.09.36 3.45.36-3.77.36 3.35.37-3.33.36 2.83.36-2.94.36-.77.37 3.98.36-3.52.36 2.81.36-2.47.36 2.96.37-3.6.36 3.33.36-3.05.36-.08.36 3.08.37-3.41.36-.13.36 3.16.36-2.8.36 2.7.37-3.17.36 3.46.36-3.61.36 3.43.37-3.44.36.24.36 2.72.36-3.22.36 3.5.37-3.12.36 2.78.36-3 .36-.58.36 3.16.37-3.05.36 2.83.36-3.33.36.91.36 2.21.37-2.86.36 3.28.36-3.51.36 3.24.36-3.2.37 2.68.36-3.03.36 3.49.36-3.99.37.44.36 2.93.36-3.09.36.03.36 2.75.37-3.24.36 3.47.36-3.66.36 3.45.36-3.17.37 3.64.36-3.5.36-.42.36 3.65.36-3.62.37 3.26.36-3.31.36 2.84.36-2.97.37-.42.36 3.23.36-2.81.36 3.1.36-3.33.37.21.36 2.32.36-2.67.36 2.94.36-2.96.37 2.76.36-3.32.36 3.23.36-2.91.36-.16.37 2.7.36-2.72.36-.18.36 2.37.36-2.61.37 3.14.36-3.32.36 2.68.36-3.02.37 3.37.36-3.32.36 3.44.36-2.72.36-.52.37 3.28.36-3.12.36 2.96.36-3.34.36 3.17.37-2.83.36-.3.36 2.81.36-3.38.36 3.34.37-2.94.36-.02.36 3.08.36-2.96.37 2.86.36-3.17.36 3.02.36-3.09.36 3.14.37-3.51.36.56.36 2.41.36-3.05.36-.14.37 3.06.36-2.94.36 2.96.36-3.13.36 3.32.37-3 .36 3.08.36-3.67.36.55.37 2.42.36-2.89.36 2.8.36-3.25.36 3.44.37-2.83.36 2.85.36-3.41.36-.1.36 3.98.37-4.14.36 3.1.36-3.08.36.24.36 3 .37-3.01.36 2.8.36-3.39.36 2.89.36-2.52.37 2.72.36-3.47.36.14.36 3.2.37-3.16.36-.14.36 3.05.36-3.69.36 3.68.37-3.05.36 2.74.36-2.47.36 2.94.36-3.19.37.02.36 3.11.36-3.26.36 2.94.36-2.85.37 3.04.36-2.96.36 2.5.36-2.84.37-.02.36 3.04.36-3.91h.36l.36 3.42.37-3.32.36 2.94.36-3.04.36 2.59.36-2.51.37 3.1.36-2.69.36 2.89.36-3.27.36.04.37 2.56.36-2.98.36.23.36 3 .36-3.62.37 3.38.36-3.42.36 3.57.36-3.24.37 2.96.36-3.12h.36l.36 3.14.36-3.25.37 2.64.36-2.76.36 3.17.36-3.06.36 2.67.37-3.61.36.43.36 3.13.36-3.08.36-.04.37 2.93.36-3.06.36 3.03.36-3.41.37 3.07.36-2.95.36 3.73.36-3.66.36.33.37 2.44.36-2.6.36 2.93.36-3.29.36-.27.37 2.95.36-3.25.36 3.26.36-2.85.36 2.88.37-2.97.36 2.79.36-2.94.36.2.36 2.71.37-2.71.36 2.08.36-2.31.36 2.74.37-2.59.36 2.9.36-3.3.36-.06.36 2.81.37-2.87.36-.01.36 2.92.36-2.9.36 2.95.37-3 .36 3.09.36-3.37.36 2.85.36-2.97.37.38.36 2.57.36-3.39.36 3.02.37-2.42.36-.49.36 3.24.36-3.05.36 3.2.37-3.54.36 3.09.36-2.97.36.03.36 2.7.37-3.2.36 3.55.36-3.22.36 3.07.36-3.3.37 3.5.36-3.22.36 3.05.36-3.3.37-.12.36 2.59.36-2.68.36.22.36 2.9.37-3.16.36 3.26.36-3.42.36 3.17.36-3.26.37 2.52.36-2.43.36-.12.36 3.22.36-3.68.37 3.18.36-3.32.36.12.36 3.14.36-2.76.37 3.08.36-2.95.36 2.86.36-3.48.37.12.36 3.18.36-2.98.36 2.42.36-2.96.37 2.72.36-3.15.36 3.48.36-2.82.36-.37.37 3.04.36-3.1.36.47.36 2.58.36-2.92.37 2.84.36-3.1.36 3.25.36-3.41.37 3.06.36-3.09.36 3.28.36-3.15.36-.23.37 3.31.36-3.28.36 3.21.36-3.91.36.68.37 2.5.36-3.03.36 3.07.36-3.77.36 3.39.37-2.66.36.05.36 3.03.36-2.89.36 2.67.37-2.87.36 3.12.36-3.06.36 3.2.37-3.4.36.06.36 3.07.36-3.94.36.2.37 3.07.36-2.72.36 3.29.36-3.34.36 3.62.37-3.17.36 3.02.36-3.33.36.05.36 3.01.37-3.28.36 2.79.36-2.49.36 2.14.37-2.68.36-.4.36 3.54.36-3.4.36 2.71.37-2.22.36 2.4.36-2.64.36-.1.36 2.84.37-3.09.36 2.66.36-2.83.36 3.5.36-3.25.37 2.8.36-2.67.36-.16.36 2.73.36-3.16.37.17.36 3.18.36-3.26.36 3.37.37-3.3.36 3.22.36-3.7.36 3.52.36-3.3.37-.11.36 2.89.36-2.61.36 2.91.36-3.08.37 2.95.36-3.24.36-.26.36 2.75.36-2.95.37 3.11.36-3.1.36.55.36 2.43.37-2.89.36 3.11.36-3.03.36 3.07.36-3.05.37 3.43.36-3.51.36 3.01.36-3.33.36-.02.37 3.07.36-3.17.36.25.36 2.93.36-2.96.37 2.58.36-2.7.36 3.02.36-3.07.37 2.84.36-2.9.36-.37.36 3.15.36-3.14.37 2.85.36-3.22.36 3.11.36-2.51.36-.45.37 3.19.36-3.1.36 3.07.36-3.02.36-.37.37 3.01.36-3 .36 3.16.36-2.9.36 2.79.37-3.36.36 3.51.36-3.34.36.14.37 2.92.36-3.3.36-.31.36 3.28.36-2.74.37 2.75.36-2.96.36 2.6"/><use xlink:href="#bad9b__c" color="#9F650D" transform="matrix(3.75 0 0 3.75 182.98 80.73)"/><use xlink:href="#bad9b__c" color="#9F650D" transform="matrix(3.75 0 0 3.75 220.55 22.51)"/></g><path fill="none" d="M28 45.01V162.5M371.99 45.01H28" color="#000"/></svg>