<svg xmlns="http://www.w3.org/2000/svg" xmlns:xlink="http://www.w3.org/1999/xlink" viewBox="0 0 400 200"><path fill="none" d="M0 0h400v200H0z"/><defs><path id="5714e__b" stroke="currentColor" stroke-width=".267" d="M-1-1h2v2h-2z"/><path id="5714e__a" stroke="currentColor" stroke-width=".267" d="m0-1.33-1.33 2h2.66z"/><path id="5714e__f" stroke="currentColor" stroke-width=".267" d="M0 1.33 1.265.411.782-1.067l-1.564-.009-.483 1.487z"/><use xlink:href="#5714e__a" id="5714e__d" fill="currentColor" stroke="none"/><use xlink:href="#5714e__b" id="5714e__c" stroke="currentColor" transform="rotate(45)"/><use xlink:href="#5714e__c" id="5714e__e" fill="currentColor" stroke="none"/></defs><path fill="none" stroke="#CCC" stroke-linecap="round" stroke-linejoin="round" stroke-width=".1" d="M46.1 162.5V45.01" class="5714e__gridline" color="#000"/><g fill="none" stroke-linecap="round" stroke-linejoin="round" stroke-width="0" color="#000"><path d="M46.1 162.5V155m0-109.99v7.5"/><text fill="#000" font-family="KaTeX_Main" font-size="8" text-anchor="middle" transform="translate(46.1 172.6)"><tspan> 1</tspan></text></g><path fill="none" stroke="#CCC" stroke-linecap="round" stroke-linejoin="round" stroke-width=".1" d="M82.31 162.5V45.01" class="5714e__gridline" color="#000"/><g fill="none" stroke-linecap="round" stroke-linejoin="round" stroke-width="0" color="#000"><path d="M82.31 162.5V155m0-109.99v7.5"/><text fill="#000" font-family="KaTeX_Main" font-size="8" text-anchor="middle" transform="translate(82.31 172.6)"><tspan> 2</tspan></text></g><path fill="none" stroke="#CCC" stroke-linecap="round" stroke-linejoin="round" stroke-width=".1" d="M118.52 162.5V45.01" class="5714e__gridline" color="#000"/><g fill="none" stroke-linecap="round" stroke-linejoin="round" stroke-width="0" color="#000"><path d="M118.52 162.5V155m0-109.99v7.5"/><text fill="#000" font-family="KaTeX_Main" font-size="8" text-anchor="middle" transform="translate(118.52 172.6)"><tspan> 3</tspan></text></g><path fill="none" stroke="#CCC" stroke-linecap="round" stroke-linejoin="round" stroke-width=".1" d="M154.73 162.5V45.01" class="5714e__gridline" color="#000"/><g fill="none" stroke-linecap="round" stroke-linejoin="round" stroke-width="0" color="#000"><path d="M154.73 162.5V155m0-109.99v7.5"/><text fill="#000" font-family="KaTeX_Main" font-size="8" text-anchor="middle" transform="translate(154.73 172.6)"><tspan> 4</tspan></text></g><path fill="none" stroke="#CCC" stroke-linecap="round" stroke-linejoin="round" stroke-width=".1" d="M190.94 162.5V45.01" class="5714e__gridline" color="#000"/><g fill="none" stroke-linecap="round" stroke-linejoin="round" stroke-width="0" color="#000"><path d="M190.94 162.5V155m0-109.99v7.5"/><text fill="#000" font-family="KaTeX_Main" font-size="8" text-anchor="middle" transform="translate(190.94 172.6)"><tspan> 5</tspan></text></g><path fill="none" stroke="#CCC" stroke-linecap="round" stroke-linejoin="round" stroke-width=".1" d="M227.15 162.5V45.01" class="5714e__gridline" color="#000"/><g fill="none" stroke-linecap="round" stroke-linejoin="round" stroke-width="0" color="#000"><path d="M227.15 162.5V155m0-109.99v7.5"/><text fill="#000" font-family="KaTeX_Main" font-size="8" text-anchor="middle" transform="translate(227.15 172.6)"><tspan> 6</tspan></text></g><path fill="none" stroke="#CCC" stroke-linecap="round" stroke-linejoin="round" stroke-width=".1" d="M263.36 162.5V45.01" class="5714e__gridline" color="#000"/><g fill="none" stroke-linecap="round" stroke-linejoin="round" stroke-width="0" color="#000"><path d="M263.36 162.5V155m0-109.99v7.5"/><text fill="#000" font-family="KaTeX_Main" font-size="8" text-anchor="middle" transform="translate(263.36 172.6)"><tspan> 7</tspan></text></g><path fill="none" stroke="#CCC" stroke-linecap="round" stroke-linejoin="round" stroke-width=".1" d="M299.57 162.5V45.01" class="5714e__gridline" color="#000"/><g fill="none" stroke-linecap="round" stroke-linejoin="round" stroke-width="0" color="#000"><path d="M299.57 162.5V155m0-109.99v7.5"/><text fill="#000" font-family="KaTeX_Main" font-size="8" text-anchor="middle" transform="translate(299.57 172.6)"><tspan> 8</tspan></text></g><path fill="none" stroke="#CCC" stroke-linecap="round" stroke-linejoin="round" stroke-width=".1" d="M335.78 162.5V45.01" class="5714e__gridline" color="#000"/><g fill="none" stroke-linecap="round" stroke-linejoin="round" stroke-width="0" color="#000"><path d="M335.78 162.5V155m0-109.99v7.5"/><text fill="#000" font-family="KaTeX_Main" font-size="8" text-anchor="middle" transform="translate(335.78 172.6)"><tspan> 9</tspan></text></g><path fill="none" stroke="#CCC" stroke-linecap="round" stroke-linejoin="round" stroke-width=".1" d="M371.99 162.5V45.01" class="5714e__gridline" color="#000"/><g fill="none" stroke-linecap="round" stroke-linejoin="round" stroke-width="0" color="#000"><path d="M371.99 162.5V155m0-109.99v7.5"/><text fill="#000" font-family="KaTeX_Main" font-size="8" text-anchor="middle" transform="translate(371.99 172.6)"><tspan> 10</tspan></text></g><g fill="none" stroke-linecap="round" stroke-linejoin="round" stroke-width="0" color="#000"><path d="M371.99 153.46h-7.5"/><text fill="#000" font-family="KaTeX_Main" font-size="8" transform="translate(378.99 156.06)"><tspan>0</tspan></text></g><g fill="none" stroke-linecap="round" stroke-linejoin="round" stroke-width="0" color="#000"><path d="M371.99 135.39h-7.5"/><text fill="#000" font-family="KaTeX_Main" font-size="8" transform="translate(378.99 137.99)"><tspan>2</tspan></text></g><g fill="none" stroke-linecap="round" stroke-linejoin="round" stroke-width="0" color="#000"><path d="M371.99 117.31h-7.5"/><text fill="#000" font-family="KaTeX_Main" font-size="8" transform="translate(378.99 119.91)"><tspan>4</tspan></text></g><g fill="none" stroke-linecap="round" stroke-linejoin="round" stroke-width="0" color="#000"><path d="M371.99 99.24h-7.5"/><text fill="#000" font-family="KaTeX_Main" font-size="8" transform="translate(378.99 101.84)"><tspan>6</tspan></text></g><g fill="none" stroke-linecap="round" stroke-linejoin="round" stroke-width="0" color="#000"><path d="M371.99 81.16h-7.5"/><text fill="#000" font-family="KaTeX_Main" font-size="8" transform="translate(378.99 83.76)"><tspan>8</tspan></text></g><g fill="none" stroke-linecap="round" stroke-linejoin="round" stroke-width="0" color="#000"><path d="M371.99 63.09h-7.5"/><text fill="#000" font-family="KaTeX_Main" font-size="8" transform="translate(378.99 65.69)"><tspan>10</tspan></text></g><g fill="none" stroke-linecap="round" stroke-linejoin="round" stroke-width="0" color="#000"><path d="M371.99 45.01h-7.5"/><text fill="#000" font-family="KaTeX_Main" font-size="8" transform="translate(378.99 47.61)"><tspan>12</tspan></text></g><path fill="none" d="M28 45.01V162.5M371.99 45.01H28" color="#000"/><text stroke-linecap="round" stroke-linejoin="round" stroke-width="0" color="#000" font-family="KaTeX_Main" font-size="10" text-anchor="middle" transform="rotate(-90 57.63 46.13)"><tspan>log</tspan><tspan dy="3" font-size="8">2</tspan><tspan dy="-3">(</tspan><tspan font-weight="bold">Average Path Length </tspan><tspan> / log</tspan><tspan dy="3" font-size="8">2</tspan><tspan dy="-3">(Size))</tspan></text><text stroke-linecap="round" stroke-linejoin="round" stroke-width="0" color="#000" font-family="KaTeX_Main" font-size="10" text-anchor="middle" transform="translate(199.99 195.75)"><tspan>Operations / 10</tspan><tspan dy="-5" font-size="8">6</tspan></text><text stroke-linecap="round" stroke-linejoin="round" color="#000" font-family="KaTeX_Main" font-size="8" transform="translate(132.8 10.11)"><tspan>Splay</tspan></text><g fill="none" stroke="currentColor" stroke-linecap="round" stroke-linejoin="round" color="#000"><path stroke="#29C3F6" d="M97.3 7.51h29.9M28 103.11l.36 21.88.36-16.5.37-10.22.36-7.41.36-5.77.36-4.72.36-4.01.37-3.47.36-3.06.36-2.75.36-2.48.37-2.26.36-2.09.36-1.93.36-1.8.36-1.68.37-1.58.36-1.49.36-1.41.36 78.56.36-3.94.37-16.47.36-10.26.36-7.39.36-5.77.36-4.72.37-4.01.36-3.47.36-3.07.36-2.74.36-2.48.37-2.27.36-2.08.36-1.93.36-1.8.37-1.68.36-1.58.36-1.49.36-1.41.36 96.91.37-22.3.36-16.47.36-10.26.36-7.38.36-5.77.37-4.73.36-4 .36-3.47.36-3.07.36-2.74.37-2.48.36-2.27.36-2.08.36-1.93.37-1.8.36-1.68.36-1.58.36-1.49.36-1.41.37 101.36.36-26.77.36-16.48.36-10.24.36-7.38.37-5.77.36-4.72.36-4 .36-3.47.36-3.07.37-2.74.36-2.48.36-2.27.36-2.08.37-1.93.36-1.8.36-1.68.36-1.58.36-1.49.37-1.41.36 100.08.36-25.5.36-16.5.36-10.22.37-7.37.36-5.77.36-4.72.36-4.01.36-3.47.37-3.06.36-2.74.36-2.48.36-2.27.36-2.08.37-1.93.36-1.8.36-1.68.36-1.58.37-1.49.36-1.41.36 101.39.36-26.66.36-16.63.37-10.23.36-7.38.36-5.77.36-4.73.36-4 .37-3.47.36-3.06.36-2.74.36-2.48.36-2.27.37-2.08.36-1.94.36-1.79.36-1.68.37-1.58.36-1.49.36-1.41.36 100.31.36-25.84.37-16.4.36-10.23.36-7.36.36-5.77.36-4.72.37-4 .36-3.47.36-3.06.36-2.75.36-2.48.37-2.26.36-2.09.36-1.93.36-1.79.36-1.69.37-1.58.36-1.49.36-1.4.36 100.32.37-25.86.36-16.38.36-10.23.36-7.37.36-5.77.37-4.72.36-4 .36-3.47.36-3.07.36-2.74.37-2.48.36-2.26.36-2.09.36-1.93.36-1.8.37-1.68.36-1.58.36-1.49.36-1.41.37 100.34.36-25.89.36-16.37.36-10.23.36-7.36.37-5.77.36-4.72.36-4 .36-3.47.36-3.07.37-2.74.36-2.48.36-2.26.36-2.09.36-1.93.37-1.8.36-1.68.36-1.58.36-1.49.36-1.41.37 99.72.36-25.28.36-16.36.36-10.22.37-7.38.36-5.76.36-4.73.36-4 .36-3.47.37-3.06.36-2.74.36-2.48.36-2.27.36-2.08.37-1.93.36-1.8.36-1.68.36-1.58.36-1.49.37-1.41.36 98.56.36-24.13.36-16.38.37-10.2.36-7.38.36-5.76.36-4.72.36-4 .37-3.47.36-3.06.36-2.74.36-2.48.36-2.27.37-2.08.36-1.93.36-1.8.36-1.68.36-1.58.37-1.49.36-1.41.36 98.56.36-24.15.37-16.37.36-10.2.36-7.37.36-5.76.36-4.72.37-4 .36-3.47.36-3.06.36-2.74.36-2.48.37-2.27.36-2.08.36-1.93.36-1.8.36-1.68.37-1.58.36-1.49.36-1.41.36 98.56.36-24.24.37-16.29.36-10.21.36-7.35.36-5.77.37-4.71.36-4 .36-3.47.36-3.06.36-2.74.37-2.49.36-2.26.36-2.08.36-1.93.36-1.8.37-1.68.36-1.58.36-1.49.36-1.41.36 99.72.37-25.25.36-16.4.36-10.23.36-7.37.37-5.76.36-4.72.36-4.01.36-3.46.36-3.07.37-2.74.36-2.48.36-2.26.36-2.08.36-1.93.37-1.8.36-1.68.36-1.58.36-1.49.36-1.41.37 98.56.36-24.19.36-16.35.36-10.21.36-7.35.37-5.76.36-4.72.36-4 .36-3.47.37-3.06.36-2.74.36-2.48.36-2.26.36-2.09.37-1.93.36-1.79.36-1.68.36-1.58.36-1.49.37-1.41.36 98.56.36-24.12.36-16.43.36-10.19.37-7.36.36-5.76.36-4.72.36-4 .37-3.47.36-3.06.36-2.74.36-2.48.36-2.26.37-2.09.36-1.93.36-1.79.36-1.68.36-1.58.37-1.49.36-1.41.36 98.56.36-24.13.36-16.43.37-10.19.36-7.35.36-5.76.36-4.72.36-4 .37-3.47.36-3.06.36-2.74.36-2.48.37-2.26.36-2.09.36-1.93.36-1.79.36-1.69.37-1.58.36-1.48.36-1.41.36 99.12.36-24.78.37-16.32.36-10.21.36-7.35.36-5.77.36-4.72.37-3.99.36-3.47.36-3.06.36-2.74.37-2.48.36-2.27.36-2.08.36-1.93.36-1.8.37-1.68.36-1.58.36-1.49.36-1.4.36 99.12.37-24.8.36-16.31.36-10.21.36-7.35.36-5.76.37-4.72.36-4 .36-3.46.36-3.07.37-2.73.36-2.48.36-2.27.36-2.08.36-1.93.37-1.8.36-1.68.36-1.58.36-1.49.36-1.4.37 98.56.36-24.25.36-16.31.36-10.2.36-7.36.37-5.76.36-4.71.36-4 .36-3.47.36-3.06.37-2.73.36-2.48.36-2.27.36-2.08.37-1.93.36-1.8.36-1.68.36-1.58.36-1.49.37-1.41.36 98.57.36-24.35.36-16.24.36-10.18.37-7.36.36-5.75.36-4.72.36-3.99.36-3.47.37-3.06.36-2.74.36-2.48.36-2.26.37-2.08.36-1.93.36-1.8.36-1.68.36-1.58.37-1.49.36-1.41.36 99.13.36-24.76.36-16.35.37-10.2.36-7.37.36-5.76.36-4.71.36-4 .37-3.47.36-3.06.36-2.74.36-2.48.36-2.26.37-2.08.36-1.93.36-1.8.36-1.68.37-1.58.36-1.49.36-1.41.36 98.56.36-24.36.37-16.21.36-10.21.36-7.34.36-5.76.36-4.71.37-4 .36-3.46.36-3.06.36-2.74.36-2.48.37-2.26.36-2.09.36-1.93.36-1.79.37-1.68.36-1.58.36-1.49.36-1.41.36 99.13.37-24.86.36-16.27.36-10.21.36-7.35.36-5.76.37-4.71.36-4 .36-3.46.36-3.06.36-2.74.37-2.48.36-2.26.36-2.09.36-1.93.37-1.79.36-1.68.36-1.58.36-1.49.36-1.41.37 99.13.36-24.88.36-16.25.36-10.22.36-7.35.37-5.75.36-4.71.36-4 .36-3.46.36-3.07.37-2.73.36-2.48.36-2.27.36-2.08.36-1.93.37-1.79.36-1.68.36-1.58.36-1.49.37-1.41.36 99.13.36-24.81.36-16.35.36-10.19.37-7.35.36-5.75.36-4.72.36-3.99.36-3.47.37-3.06.36-2.73.36-2.48.36-2.27.36-2.08.37-1.93.36-1.79.36-1.68.36-1.58.37-1.49.36-1.41.36 99.12.36-24.81.36-16.35.37-10.19.36-7.34.36-5.75.36-4.72.36-3.99.37-3.47.36-3.06.36-2.74.36-2.47.36-2.27.37-2.08.36-1.93.36-1.8.36-1.68.36-1.57.37-1.49.36-1.41.36 99.12.36-24.91.37-16.26.36-10.18.36-7.35.36-5.75.36-4.71.37-4 .36-3.46.36-3.06.36-2.74.36-2.48.37-2.26.36-2.08.36-1.93.36-1.8.36-1.68.37-1.58.36-1.48.36-1.41.36 99.12.37-25 .36-16.2.36-10.17.36-7.33.36-5.75.37-4.71.36-4 .36-3.46.36-3.06.36-2.74.37-2.48.36-2.26.36-2.08.36-1.93.36-1.8.37-1.68.36-1.58.36-1.48.36-1.41.36 100.33.37-26.06.36-16.31.36-10.19.36-7.34.37-5.76.36-4.71.36-4 .36-3.46.36-3.06.37-2.74.36-2.48.36-2.26.36-2.08.36-1.93.37-1.8.36-1.68.36-1.58.36-1.49.36-1.4.37 98.56.36-24.47.36-16.18.36-10.16.37-7.34.36-5.75.36-4.71.36-3.99.36-3.47.37-3.06.36-2.73.36-2.48.36-2.26.36-2.09.37-1.92.36-1.8.36-1.68.36-1.58.36-1.49.37-1.4.36 98.56.36-24.4.36-16.24.37-10.17.36-7.34.36-5.75.36-4.71.36-3.99.37-3.47.36-3.06.36-2.73.36-2.48.36-2.26.37-2.09.36-1.93.36-1.79.36-1.68.36-1.58.37-1.49.36-1.41.36 98.56.36-24.4.36-16.23.37-10.17.36-7.35.36-5.74.36-4.71.37-4 .36-3.46.36-3.06.36-2.74.36-2.47.37-2.27.36-2.08.36-1.93.36-1.79.36-1.68.37-1.58.36-1.49.36-1.41.36 99.13.36-24.98.37-16.21.36-10.19.36-7.34.36-5.75.37-4.7.36-4 .36-3.46.36-3.06.36-2.74.37-2.47.36-2.27.36-2.08.36-1.93.36-1.79.37-1.68.36-1.58.36-1.49.36-1.41.36 99.13.37-25 .36-16.2.36-10.19.36-7.33.36-5.75.37-4.71.36-3.99.36-3.47.36-3.05.37-2.74.36-2.48.36-2.26.36-2.08.36-1.93.37-1.79.36-1.68.36-1.58.36-1.49.36-1.41.37 98.56.36-24.44.36-16.22.36-10.17.36-7.32.37-5.75.36-4.71.36-4 .36-3.46.37-3.05.36-2.74.36-2.48.36-2.26.36-2.08.37-1.93.36-1.79.36-1.68.36-1.58.36-1.49.37-1.41.36 98.56.36-24.45.36-16.21.36-10.17.37-7.33.36-5.75.36-4.71.36-3.99.36-3.46.37-3.06.36-2.73.36-2.48.36-2.26.37-2.08.36-1.93.36-1.8.36-1.68.36-1.57.37-1.49.36-1.41.36 99.12.36-24.86.36-16.35.37-10.17.36-7.34.36-5.74.36-4.72.36-3.99.37-3.46.36-3.06.36-2.73.36-2.48.37-2.26.36-2.08.36-1.93.36-1.8.36-1.68.37-1.57.36-1.49.36-1.41.36 98.55.36-24.47.37-16.2.36-10.16.36-7.32.36-5.75.36-4.71.37-3.99.36-3.46.36-3.06.36-2.74.37-2.47.36-2.26.36-2.09.36-1.92.36-1.8.37-1.68.36-1.58.36-1.48.36-1.41.36 99.12.37-25.05.36-16.17.36-10.18.36-7.32.36-5.76.37-4.7.36-3.99.36-3.46.36-3.06.36-2.74.37-2.47.36-2.26.36-2.09.36-1.92.37-1.8.36-1.68.36-1.58.36-1.48.36-1.41.37 99.11.36-25.05.36-16.17.36-10.17.36-7.33.37-5.75.36-4.71.36-3.99.36-3.46.36-3.05.37-2.74.36-2.47.36-2.27.36-2.08.37-1.93.36-1.79.36-1.68.36-1.58.36-1.49.37-1.4.36 99.11.36-24.99.36-16.24.36-10.16.37-7.34.36-5.74.36-4.71.36-3.99.36-3.46.37-3.05.36-2.74.36-2.48.36-2.26.36-2.08.37-1.93.36-1.79.36-1.68.36-1.58.37-1.49.36-1.4.36 98.55.36-24.44.36-16.24.37-10.15.36-7.35.36-5.73.36-4.71.36-3.99.37-3.46.36-3.06.36-2.73.36-2.48.36-2.26.37-2.08.36-1.93.36-1.79.36-1.68.37-1.58.36-1.49.36-1.4.36 98.54.36-24.44.37-16.23.36-10.17.36-7.33.36-5.74.36-4.7.37-3.99.36-3.46.36-3.06.36-2.73.36-2.48.37-2.26.36-2.08.36-1.93.36-1.79.36-1.68.37-1.58.36-1.49.36-1.41.36 98.55.37-24.54.36-16.14.36-10.18.36-7.32.36-5.73.37-4.71.36-3.99.36-3.46.36-3.05.36-2.73.37-2.48.36-2.26.36-2.08.36-1.93.36-1.79.37-1.68.36-1.58.36-1.49.36-1.41.37 99.7.36-25.54.36-16.26.36-10.2.36-7.33.37-5.73.36-4.7.36-4 .36-3.46.36-3.05.37-2.73.36-2.48.36-2.26.36-2.08.36-1.93.37-1.79.36-1.68.36-1.58.36-1.49.37-1.41.36 98.55.36-24.48.36-16.24.36-10.15.37-7.32.36-5.73.36-4.7.36-3.99.36-3.46.37-3.05.36-2.74.36-2.47.36-2.26.36-2.08.37-1.93.36-1.8.36-1.68.36-1.57.36-1.49.37-1.41.36 99.11.36-24.98.36-16.31.37-10.14.36-7.32.36-5.73.36-4.7.36-3.99.37-3.46.36-3.05.36-2.74"/><use xlink:href="#5714e__b" color="#29C3F6" transform="matrix(3.75 0 0 3.75 354.25 124.48)"/><use xlink:href="#5714e__b" color="#29C3F6" transform="matrix(3.75 0 0 3.75 112.25 7.51)"/></g><text stroke-linecap="round" stroke-linejoin="round" stroke-width=".5" color="#000" font-family="KaTeX_Main" font-size="8" transform="translate(132.8 25.11)"><tspan>AVLBottomUp</tspan></text><g fill="none" stroke="currentColor" stroke-linecap="round" stroke-linejoin="round" stroke-width=".5" color="#000"><path stroke="#000" d="M97.3 22.51h29.9M28 154.9l.36.01h.73l.36-.01.36-.01.36-.01.36-.01h.37l.36-.01.36-.01h.36l.37-.01h.36l.36-.01h.72l.37-.01h1.08l.36-.01h7.61l.36.01h2.17l.36.01h1.09l.36-.01.37.01h.36l.36-.01H49l.36-.01.37.01h.72l.36-.01h.36l.37-.01.36-.01.36-.01.36-.01h.36l.37.02.36-.01.36-.01.36.01.37-.01h.72l.36-.01.36-.01h.37l.36-.01.36-.01.36-.01h.36l.37-.01.36-.02.36-.01h.72l.37-.01.36.04h.36l.36-.01.36-.01.37-.01h.36l.36.01h.36l.37-.01.36-.01.36.01h.36l.36-.01.37.16h1.08l.36-.01h.37l.36.01.36-.01h.36l.36-.01.37.01h.36l.36-.01H70l.37-.01h.36l.36-.01.36-.01.36-.01h.37l.36.01h.36l.36-.01h1.09l.36-.01h.36l.36-.01.37-.01.36-.01h.36l.36-.01.36-.01.37-.01.36-.01h.36l.36-.01h.37l.36.04.36-.01.36-.01h.36l.37-.02h.36l.36-.01.36.02.36-.01h.73l.36-.01h.36l.36.16h.37l.36-.01.36.01.36-.01.37.01h.36l.36-.01h1.81l.36-.01h.36l.37-.01.36-.01.36-.01h.36l.36-.01.37.02.36-.01.36-.01.36.01.36-.01h.73l.36-.01.36-.01h.37l.36-.01.36-.01.36-.01h.36l.37-.02.36-.01h.36l.36-.01h.36l.37-.01.36.04h.36l.36-.01.36-.01.37-.01h.36l.36.01h.36l.37-.01.36-.01.36.01h.36l.36-.01.37.16h.72l.36-.01h.73l.36.01.36-.01h.36l.36-.01.37.01h.72l.36-.01.37-.01.36-.01h.36l.36-.01.36-.01.37.02.36-.01.36-.01h1.45l.36-.01h.36l.36-.01.37-.01.36-.01.36-.01h.36l.36-.01.37-.01.36-.01h.36l.36-.01h.37l.36.04.36-.01.36-.01.36-.01.37-.01h.36l.36-.01.36.02.36-.01.37-.01.36.01.36-.01h.36l.36.16h.37l.36-.01.36.01.36-.01.37.01h.36l.36-.01h1.45l.36-.01h.36l.36-.01h.37l.36-.01.36-.01h.36l.36-.01.37.02.36-.01.36-.01.36.01.36-.01h.73l.36-.01.36-.01.37-.01.36-.01h.36l.36-.01.36-.01.37-.01.36-.01h.36l.36-.01h.36l.37-.01.36.04.36-.01h.36l.36-.01.37-.01h.36l.36.01h.36l.37-.01h.36l.36-.01h.72l.37.16h.72l.36-.01h.36l.37.01h.36l.36-.01h.36l.36.01.37-.01h.36l.36-.01h.36l.36-.01.37-.01h.36l.36-.02h.36l.37.02.36-.01.36-.01h1.45l.36-.01.36-.01h.36l.37-.01.36-.01.36-.01h.36l.36-.01.37-.01.36-.01h.36l.36-.01.37-.01.36.05.36-.01.36-.01.36-.01.37-.01h.36l.36-.01.36.02.36-.01.37-.01.36.01h.36l.36-.01.36.16h.37l.36-.01.36.01.36-.01h.37l.36.01.36-.01h1.09l.36-.01.36.01.36-.01.36-.01.37-.01h.36l.36-.01.36-.01h.36l.37.01h.36l.36-.01h1.45l.36-.01.36-.01.37-.01.36-.01h.36l.36-.01.36-.01.37-.01.36-.01h.36l.36-.01h.36l.37.04.36-.01.36-.01h.36l.36-.01.37-.01.36-.01.36.02.36-.01h.73l.36-.01h.72l.37.16h.72l.36-.01.36.01h.37l.36-.01h.36l.36-.01.36.01h.73l.36-.01h.36l.36-.01.37-.01.36-.01.36-.01h.36l.37.02.36-.01.36-.01.36.01.36-.01h.73l.36-.01.36-.01h.36l.37-.01.36-.01.36-.01h.36l.36-.01.37-.02.36-.01.36.01.36-.01.37-.01.36.04h.36l.36-.01.36-.01.37-.01h.36l.36.01h.36l.36-.01.37-.01.36.01h.36l.36-.01.36.16h1.09l.36-.01h.37l.36.01.36-.01h.36l.36-.01.37.01h.36l.36-.01h.36l.36-.01h.37l.36-.01.36-.01.36-.01h.36l.37.01h.36l.36-.01h1.09l.36-.01h.36l.36-.01.37-.01.36-.01h.36l.36-.01.36-.01.37-.01.36-.01h.36l.36-.01h.36l.37.04.36-.01.36-.01h.36l.36-.02h.37l.36-.01.36.02.36-.01h.73l.36-.01h.36l.36.16h.37l.36-.01.36.01.36-.01.36.01h.37l.36-.01h1.81l.36-.01h.36l.36-.01.37-.01.36-.01h.36l.36-.01.37.02.36-.01.36-.01.36.01.36-.01h.73l.36-.01.36-.01h.36l.37-.01.36-.01.36-.01h.36l.36-.02.37-.01h.36l.36-.01h.36l.37-.01.36.04h.36l.36-.01.36-.01.37-.01h.36l.36.01h.36l.36-.01.37-.01.36.01h.36l.36-.01.36.16h.73l.36-.01h.72l.37.01.36-.01h.36l.36-.01.37.01h.72l.36-.01.36-.01.37-.01h.36l.36-.01.36-.01.36.02.37-.01.36-.01h1.45l.36-.01h.36l.36-.01.37-.01.36-.01.36-.01h.36l.36-.01.37-.01.36-.01h.36l.36-.01h.36l.37.04.36-.01.36-.01.36-.01.36-.01h.37l.36-.01.36.02.36-.01.37-.01.36.01.36-.01h.36l.36.16h.37l.36-.01.36.01.36-.01.36.01h.37l.36-.01h1.45l.36-.01h.36l.36-.01h.36l.37-.01.36-.01h.36l.36-.01.37.02.36-.01.36-.01.36.01.36-.01h.73l.36-.01.36-.01.36-.01.37-.01h.36l.36-.01.36-.01.36-.01.37-.01h.36l.36-.01h.36l.37-.01.36.04.36-.01h.36l.36-.01.37-.01h.36l.36.01h.36l.36-.01h.37l.36-.01h.72l.36.16h.73l.36-.01h.36l.36.01h.37l.36-.01h.36l.36.01.37-.01h.36l.36-.01h.36l.36-.01.37-.01h.36l.36-.02h.36l.36.02.37-.01.36-.01h1.45l.36-.01.36-.01h.36l.37-.01.36-.01.36-.01h.36l.36-.01.37-.01.36-.01h.36l.36-.01.36-.01.37.05.36-.01.36-.01.36-.01.36-.01h.37l.36-.01.36.02.36-.01.36-.01.37.01h.36l.36-.01.36.16h.37l.36-.01.36.01.36-.01h.36l.37.01.36-.01h1.08l.37-.01.36.01.36-.01.36-.01.36-.01h.37l.36-.01.36-.01h.36l.37.01h.36l.36-.01h1.45l.36-.01.36-.01.36-.01.37-.01h.36l.36-.01.36-.01.36-.01.37-.01h.36l.36-.01h.36l.37.04.36-.01.36-.01h.36l.36-.01.37-.01.36-.01.36.02.36-.01h.73l.36-.01h.72l.36.16h.73l.36-.01.36.01h.36l.37-.01h.36l.36-.01.36.01h.73l.36-.01h.36l.36-.01.37-.01.36-.01.36-.01h.36l.36.02.37-.01.36-.01.36.01.36-.01h.73l.36-.01.36-.01h.36l.37-.01.36-.01.36-.01h.36l.36-.01.37-.02.36-.01.36.01.36-.01.36-.01.37.04h.36l.36-.01.36-.01.36-.01h.37l.36.01h.36l.36-.01.36-.01.37.01h.36l.36-.01.36.16h1.09l.36-.01h.36l.37.01.36-.01h.36l.36-.01.36.01h.37l.36-.01h.36l.36-.01h.36l.37-.01.36-.01.36-.01h.36l.37.01h.36l.36-.01h1.09l.36-.01h.36l.36-.01.36-.01.37-.01h.36l.36-.01.36-.01.36-.01.37-.01h.36l.36-.01h.36l.36.04.37-.01.36-.01h.36l.36-.02h.37l.36-.01.36.02.36-.01h.73l.36-.01h.36l.36.16h.36l.37-.01.36.01.36-.01.36.01h.36l.37-.01h1.81l.36-.01h.36l.36-.01.37-.01.36-.01h.36l.36-.01.36.02.37-.01.36-.01.36.01.36-.01h.73l.36-.01.36-.01h.36l.37-.01.36-.01.36-.01h.36l.36-.02.37-.01h.36l.36-.01h.36l.36-.01.37.04h.36l.36-.01.36-.01.36-.01h.37l.36.01h.36l.36-.01.36-.01.37.01h.36l.36-.01.36.16h.73l.36-.01h.72l.37.01.36-.01h.36"/><use xlink:href="#5714e__d" transform="matrix(3.75 0 0 3.75 67.83 154.82)"/><use xlink:href="#5714e__d" transform="matrix(3.75 0 0 3.75 112.25 22.51)"/></g><text stroke-linecap="round" stroke-linejoin="round" color="#000" font-family="KaTeX_Main" font-size="8" transform="translate(241.1 10.11)"><tspan>LBSTRelaxed</tspan></text><g fill="none" stroke="currentColor" stroke-linecap="round" stroke-linejoin="round" color="#000"><path stroke="#FFAB00" stroke-dasharray="4.0,2.0,1.0,2.0" d="M205.6 7.51h29.9M28 154.58l.36.07.36-.06.37-.09.36.18.36-.04.36-.04.36-.03.37.09.36-.03.36-.14.36.19.37-.02.36-.11.36.14.36-.03.36-.05.37-.13.36.21.36-.1.36-.04.36.13.37-.04.36-.03.36-.03.36.12.36-.1.37-.06.36.13.36-.02.36-.04.36-.05.37.1.36-.06.36-.09.36.17.37-.03.36-.04.36-.04.36.09.36-.02.37-.14.36.18.36-.04.36-.09.36.14.37-.02.36-.05.36-.14.36.22.36-.1.37-.06.36.15.36-.04.36-.03.37-.03.36.07.36-.06.36-.05.36.13.37-.02.36-.04.36-.05.36.09.36-.05.37-.1.36.18.36-.03.36-.07.36-.01.37.09.36-.04.36-.12.36.17.37-.04.36-.07.36.12.36-.02.36-.04.37-.13.36.18.36-.07.36-.06.36.13.37-.03.36-.07.36.01.36.08.36-.07.37-.04.36.11.36-.01.36-.04.36-.04.37.09.36-.07.36-.08.36.17.37-.03.36-.06.36-.01.36.07.36-.02.37-.12.36.16.36-.04.36-.07.36.12.37-.02.36-.03.36-.13.36.13.36-.02.37-.06.36.13.36-.03.36-.06h.37l.36.07.36-.06.36-.04.36.11.37-.02.36-.05.36-.02.36.08.36-.07.37-.08.36.17.36-.02.36-.06.36-.03.37.09.36-.02.36-.12.36.14.36-.01.37-.09h.36l.36.1.36-.03.37-.12.36.13.36-.03.36-.05.36.11.37-.02.36-.06.36-.17.36.25.36-.06.37-.05.36.11.36-.05.36-.02.36-.02.37.09.36-.06.36-.09.36.17.37-.05.36-.03.36-.03.36.08.36-.02.37-.12.36.14.36-.02.36-.07.36-.01.37.11.36-.03.36-.12.36.12.36-.03.37-.05.36.12.36-.02.36-.06.36-.16.37.2.36-.03.36-.06.36.12.37-.04.36-.06.36.01.36.08.36-.05.37-.08.36.14.36-.02.36-.04.36-.03.37.09.36-.03.36-.11.36.14.36-.02.37-.07.36-.02.36.11.36-.02.37-.17.36.17.36-.03.36-.05.36.1.37-.01.36-.11.36-.11.36.21.36-.03.37-.06.36.11.36-.05.36-.04.36.01.37.08.36-.05.36-.08.36.14.37-.03.36-.03.36-.03.36.08.36-.02.37-.15.36.17.36-.01.36-.07.36-.03.37.11.36-.02.36-.16.36.16.36-.02.37-.06.36-.02.36.1.36-.09.36-.1.37.2.36-.04.36-.05.36.11.37-.05.36-.04.36-.14.36.22.36-.05.37-.08.36.15.36-.07h.36l.36-.03.37.09.36-.03.36-.14.36.17.36-.02.37-.06.36-.04.36.11.36-.02.37-.15.36.16.36-.03.36-.05.36-.02.37.07.36-.07.36-.1.36.2.36-.03.37-.06.36.1.36-.03.36-.04.36-.13.37.21.36-.05.36-.09.36.13.36-.04h.37l.36-.03.36.08.36-.02.37-.14.36.15.36-.01.36-.07.36-.03.37.12.36-.11.36-.06.36.15.36-.03.37-.04.36-.03.36.09.36-.08.36-.1.37.2.36-.03.36-.06.36.1.37-.04.36-.03.36-.14.36.19.36-.03.37-.09.36.14.36-.04.36-.04h.36l.37.08.36-.02.36-.13.36.14.36-.01.37-.06.36-.02.36.1.36-.1.36-.07.37.16.36-.04.36-.04.36-.02.37.06.36-.05.36-.1.36.19.36-.04.37-.04.36.07.36-.01.36-.04.36-.13.37.19.36-.03.36-.1.36.14.36-.03.37-.05.36.01.36.07.36-.1.37-.05.36.14.36-.01.36-.06.36-.03.37.12.36-.11.36-.05.36.14.36-.03.37-.04.36-.06.36.11.36-.06.36-.09.37.17.36-.03.36-.04.36-.04.37.09.36-.03.36-.13.36.18.36-.05.37-.08.36.14.36-.03.36-.04.36-.13.37.2.36-.09.36-.07.36.16.36-.04.37-.03.36-.03.36.06.36-.06.36-.04.37.13.36-.02.36-.04.36-.06.37.1.36-.06.36-.1.36.19.36-.04.37-.05.36-.02.36.09.36-.04.36-.12.37.18.36-.05.36-.08.36.13.36-.03.37-.03.36-.14.36.18.36-.07.37-.06.36.13.36-.02.36-.07.36.01.37.07.36-.06.36-.05.36.12.36-.01.37-.04.36-.05.36.1.36-.08.36-.08.37.18.36-.03.36-.06.36-.02.36.09.37-.03.36-.13.36.17.36-.04.37-.07.36.12.36-.02.36-.04.36-.13.37.14.36-.02.36-.07.36.14.36-.03.37-.07.36.01.36.07.36-.06.36-.05.37.11.36-.01.36-.06.36-.02.37.09.36-.07.36-.08.36.17.36-.02.37-.06.36-.02.36.08.36-.02.36-.13.37.17.36-.04.36-.07.36-.02.36.11.37-.03.36-.13.36.14.36-.03.37-.06.36.12.36-.02.36-.06.36-.18.37.25.36-.05.36-.06.36.12.36-.05.37-.02.36-.02.36.09.36-.06.36-.08.37.15.36-.02.36-.05.36-.04.36.09.37-.03.36-.11.36.14.36-.02.37-.07.36-.02.36.12.36-.03.36-.13.37.13.36-.04.36-.04.36.11.36-.01.37-.06.36-.17.36.24.36-.06.36-.07.37.13.36-.04.36-.02.36-.03.37.09.36-.06.36-.09.36.17.36-.04.37-.04.36-.03.36.08.36-.02.36-.11.37.14.36-.02.36-.07.36-.03.36.12.37-.03.36-.17.36.18.36-.04.36-.05.37.11.36-.01.36-.06.36-.16.37.21.36-.03.36-.07.36.12.36-.03.37-.06.36.01.36.08.36-.05.36-.09.37.15.36-.03.36-.03.36-.03.36.08.37-.02.36-.14.36.16.36-.02.37-.07.36-.02.36.11.36-.03.36-.15.37.17.36-.04.36-.05.36.11.36-.03.37-.09.36-.1.36.2.36-.04.36-.05.37.11.36-.06.36-.03h.36l.36.08.37-.06.36-.07.36.14.36-.02.37-.04.36-.03.36.09.36-.03.36-.15.37.18.36-.02.36-.06.36-.04.36.11.37-.02.36-.15.36.16.36-.03.36-.05.37-.02.36.07.36-.07.36-.1.37.2.36-.04.36-.04.36.1.36-.05.37-.03.36-.14.36.22.36-.05.36-.1.37.14.36-.04h.36l.36-.04.36.08.37-.01.36-.15.36.16.36-.01.37-.07.36-.03.36.12.36-.04.36-.13.37.16.36-.04.36-.04.36-.03.36.08.37-.07.36-.09.36.19.36-.04.36-.05.37.1.36-.04.36-.03.36-.15.36.2.37-.03.36-.09.36.14.36-.05.37-.04.36.01.36.08.36-.02.36-.14.37.15.36-.01.36-.06.36-.03.36.11.37-.11.36-.05.36.15.36-.04.36-.04.37-.02.36.07.36-.07.36-.09.37.18.36-.02.36-.05.36.07.36-.02.37-.03.36-.14.36.19.36-.02.36-.09.37.13.36-.04.36-.03h.36l.36.07.37-.11.36-.04.36.14.36-.01.36-.06.37-.03.36.11.36-.1.36-.06.37.15.36-.03.36-.04.36-.04.36.09.37-.06.36-.1.36.18.36-.03.36-.05.37-.03.36.09.36-.03.36-.13.36.18.37-.03.36-.1.36.14.36-.03.37-.04.36-.14.36.21.36-.09.36-.06.37.15.36-.05.36-.02.36-.03.36.11.37-.11.36-.05.36.13.36-.02.36-.04.37-.05.36.1.36-.06.36-.09.36.17.37-.03.36-.04.36-.03.36.08.37-.03.36-.12.36.17.36-.05.36-.07.37.13.36-.02.36-.04.36-.14.36.21.37-.09.36-.07.36.14.36-.03.36-.03.37-.03.36.07.36-.06.36-.05.37.13.36-.02.36-.04.36-.05.36.1.37-.06.36-.1.36.18.36-.03.36-.07.37-.01.36.09.36-.04.36-.12.36.17.37-.04.36-.07.36.12.36-.02.37-.04.36-.13.36.18.36-.07.36-.06.37.13.36-.02.36-.07.36.01.36.07.37-.07.36-.04.36.11.36-.01.36-.03.37-.05.36.09.36-.07.36-.08.36.17.37-.03.36-.06.36-.01.36.08.37-.03.36-.12.36.17.36-.04.36-.07.37-.02.36.11.36-.03.36-.13.36.14.37-.03.36-.06.36.12.36-.02.36-.06.37-.15.36.22.36-.06.36-.05.37.12.36-.05.36-.02.36-.03.36.1.37-.07.36-.08.36.16.36-.02.36-.06.37-.03.36.09.36-.03.36-.11.36.14.37-.02.36-.08.36-.01.36.11.36-.03.37-.12.36.13.36-.02.36-.06.37.12.36-.02.36-.06.36-.17.36.24.37-.06.36-.07.36.13.36-.04.36-.02.37-.03.36.09.36-.07.36-.08.36.17.37-.05.36-.03.36-.03.36.08.37-.02.36-.11.36.14.36-.02.36-.07.37-.02.36.11.36-.03.36-.12.36.13.37-.04.36-.05.36.11.36-.02.36-.05.37-.17.36.22.36-.04.36-.06.36.12.37-.03.36-.06.36.01.36.08.37-.05.36-.09.36.15.36-.03.36-.04.37-.02.36.08.36-.03.36-.11.36.14.37-.02.36-.07.36-.02.36.12.36-.03.37-.17.36.17.36-.03.36-.05.37.11.36-.04.36-.09.36-.1.36.2.37-.04.36-.05.36.12.36-.06.36-.03h.37l.36.08.36-.05.36-.09.36.15.37-.02.36-.04.36-.03.36.08.37-.02.36-.15.36.18.36-.02.36-.07.37-.02.36.1.36-.02.36-.16.36.17.37-.03.36-.05.36-.03.36.07.36-.07.37-.09.36.2.36-.04.36-.05.36.11.37-.05.36-.04.36-.13.36.22.37-.05.36-.08.36.12.36-.04h.36l.37-.04.36.09.36-.03"/><use xlink:href="#5714e__e" color="#FFAB00" transform="matrix(3.75 0 0 3.75 125.4 154.57)"/><use xlink:href="#5714e__e" color="#FFAB00" transform="matrix(3.75 0 0 3.75 220.55 7.51)"/></g><text stroke-linecap="round" stroke-linejoin="round" color="#000" font-family="KaTeX_Main" font-size="8" transform="translate(241.1 25.11)"><tspan>TreapTopDown</tspan></text><g fill="none" stroke="currentColor" stroke-linecap="round" stroke-linejoin="round" color="#000"><path stroke="#00C853" stroke-dasharray="4.5,2.0,0.5,2.0,0.5,2.0" d="M205.6 22.51h29.9M28 150.72l.36-.03h.36l.37-.25.36-.17.36-.02h.36l.36.1.37.2.36.41.36.18.36.03.37.05.36-.31.36-.03.36-.19.36-.12.37-.08.36.13.36.02.36.07.36-.23.37.03.36-.12.36-.21.36-.17.36.3.37-.56.36.72.36.24.36.12.36.19.37.12.36-.02.36-.09.36-.2.37.49.36-.05.36.17.36-.47.36.08.37.23.36.1.36.13.36-.22.36.01.37.01.36.32.36-.06.36.2.36-.2.37-.28.36.04.36-.03.36-.49.37.13h.36l.36-.08.36-.19.36.55.37.05.36-.05.36-.07.36-.12.36-.05.37-.09.36.05.36-.13.36-.01.36-.33.37-.12.36.09.36-.11.36-.21.37.45.36.39.36.44h.36l.36-.17.37.44.36-.4.36.08.36.09.36-.02.37-.37.36.2.36.04.36.04.36-.05.37.35.36.02.36.04h.36l.36-.32h.37l.36.06.36.08.36-.55.37.03.36.05.36.16.36.03.36.04.37-.09.36.23.36-.17.36.21.36.09.37.02.36-.03.36.06.36-.1.36-.17.37-.07.36-.38.36-.3.36-.06.37.52.36.08.36-.1.36-.45.36.06.37.07.36-.06.36-.03.36.61.36-.22.37-.51.36.29.36.48.36.28.36-.16.37.1.36.11.36-.04.36.18.36.02.37-.54h.36l.36-.06.36.3.37.02.36.01.36-.02.36-.11h.36l.37-.03.36.26.36-.19h.36l.36-.05.37-.04.36-.08.36-.13.36-.28.36-.25.37-.37.36.54.36-.12.36-.66.37-.02.36.7.36.06.36-.51.36.02.37.45.36.19.36.12.36-.05.36.27.37.29.36.03.36-.36.36-.22.36.01.37.08.36-.08.36.06.36-.09.36-.45.37.03.36.07.36-.06.36.46.37.15.36-.3.36.04.36.13.36.16.37.05.36.16.36-.09.36-.11.36-.11.37-.1.36-.14.36.02.36-.24.36-.29.37.53.36.09.36-.38.36.14.37.02.36-.12.36-.19.36.6.36-.32.37.44.36.2.36.09.36.09.36-.01.37.09.36-.13.36.01.36-.09.36-.17.37-.03.36-.2.36-.2.36.47.37-.34.36.09h.36l.36-.14.36-.09.37.46.36-.07.36-.75.36.05.36.57.37.05.36.39.36.05.36.01.36.14.37-.46.36.07.36.15.36.04.36-.08.37.2.36-.1.36.01.36.07.37.02.36-.22.36-.2.36-.07.36.18.37-.14.36-.06.36-.04.36-.21.36-.17.37-.2.36.38.36-.68.36.09.36.66.37-.05.36.06.36.2h.36l.37.17.36-.11.36-.03.36-.16.36.18h.37l.36-.19.36.14.36-.13.36-.14.37-.1.36-.1.36-.29.36.43.36-.37.37.06.36-.08.36.55.36.04.36.44.37-.08.36-.23.36.55.36.05.37.02.36-.06.36-.14.36-.76.36.4.37.06.36.05.36-.03.36-.03.36-.07.37.42.36.07.36-.01.36-.08.36-.11.37-.07.36-.16.36.1.36-.21.37-.49.36-.14.36-.03.36.01.36.45.37-.03.36-.12.36.02.36-.24.36.21.37-.2.36.28.36-.14.36.17h.36l.37-.54.36.15.36-.01.36.01.36.02.37-.11.36-.11.36-.14.36.05.37.44.36-.05.36.07.36-.19.36.22.37.02.36.15.36.2h.36l.36.15.37.05.36.12.36-.01.36.02.36.1.37-.08.36-.2h.36l.36.02.37-.03.36-.02.36-.25.36-.14.36.36.37.06.36-.15.36-.24.36.66.36-.09.37-.61.36.2.36-.11.36-.05.36.11.37-.01.36-.08.36.6.36-.1.37-.16.36.03.36-.18.36.09.36-.04.37.04.36.04.36-.1.36-.03.36-.08.37-.32.36.51.36.04.36-.07.36-.16.37.07.36-.07.36-.23.36-.03.36-.57.37.36.36-.56.36.63.36.03.37.03.36-.55.36.5.36-.02.36.26.37.06.36.13.36.01.36.03.36.02.37.32.36-.01.36.01.36-.34.36-.1.37-.34.36.05.36-.06.36-.17.37-.13.36-.6.36.73.36-.48.36.02.37-.09.36.61.36.03.36.38.36-.43.37.26.36.19.36.15.36.18.36.02.37-.21.36.18.36.19.36-.05.36.03.37.04.36-.12.36-.03.36-.12.37.03.36-.3.36-.21.36-.03.36-.51.37.52.36.09.36-.43.36.12.36-.08.37.02.36.52.36.13.36-.02.36-.14.37.09.36.19.36.02.36.13.37-.15.36-.2.36-.33.36-.34.36.13.37-.11.36.11.36-.12.36.48.36-.04.37.31.36-.13.36-.43.36.2.36.06.37-.04.36.32.36-.39.36.26.37.12.36.13.36-.03.36-.09.36.2.37.13.36-.1.36.07.36.12.36-.19.37-.18.36.17.36-.03.36-.69.36.03.37-.03.36-.04.36-.03.36-.17.36.47.37.2.36.06.36.1.36.07.37.28.36.16.36.15.36.01.36.1.37-.01.36.04.36-.03.36-.16.36-.12.37.02.36-.42.36-.04.36-.18h.36l.37.02.36.02.36-.02.36-.12.37.37.36-.14.36.04.36-.07.36.16.37-.09.36-.08.36-.03.36-.09.36-.03.37-.02.36-.15.36-.09.36-.71.36.04.37.8.36.11.36-.09.36.08.36.04.37-.16.36.52.36.03.36.08.37.07.36-.35.36.02.36-.1.36-.44.37.24.36.02h.36l.36-.13.36.44.37-.12.36.4.36-.5.36.14h.36l.37-.23.36.16.36-.01.36-.15.37.12.36-.05.36-.17.36.03.36-.12.37.46.36.2.36-.08.36-.54.36.12.37-.01.36.16.36-.03.36.43.36.11.37.15.36-.1.36-.03.36-.2.36.25.37-.16.36-.03h.36l.36-.54.37.15.36.01.36-.08.36-.12.36.57.37.08.36-.15.36-.21.36.13.36-.02.37.16.36.03.36.1.36-.77.36.14.37.02.36.06.36.1.36.06.37.38h.36l.36-.03.36-.02.36-.11.37.19.36.01.36-.06.36-.17.36.07.37-.33.36-.02.36.07.36-.03.36.55.37.12.36-.12.36.32.36-.17.37.02.36-.05.36-.01.36-.12.36-.13.37-.02.36-.19.36-.34.36.02.36-.18.37-.17.36.48.36-.38.36-.14.36.57.37-.33.36-.72.36.68.36.12.36.05.37-.03.36.54.36-.7.36.45.37.27.36.08.36-.04.36.22.36.14.37.07.36-.06.36-.29.36-.1.36.05.37-.05.36-.24.36.02.36-1.17.36.1.37-.15.36-.08.36-.44.36.55.37-.05.36-.11.36-.13.36.67.36.21.37.14.36-.44.36.19.36.12.36.11h.37l.36-.04.36.19.36-.07.36-.53.37.12.36-.02.36-.02.36.38.36.38.37-.46.36.18.36.12.36.14.37.12.36-.04.36.16.36.04h.36l.37-.42.36.15.36-.05.36.01.36-.17.37.07.36.01.36-.34.36.06.36-.11.37-.12.36.41.36-.38.36.59.37.19.36.02.36-.15.36-.22.36-.04.37-.1.36-.11.36.54.36-.03.36-.53.37.14.36.05.36-.65.36.53.36.07.37-.04.36.87.36.03.36-.06.36-.13.37-.06.36-.02.36-.08.36-.1.37.01.36.01.36.01.36-.04.36-.09.37-.04.36.06.36-.08.36.41.36-.11.37-.31.36.04.36.13.36-.12.36-.39.37-.64.36.29.36.03.36-.11.37.48.36-.18.36.41.36.03.36-.06.37-.26.36.26.36.11.36-.05.36.12.37-.04.36-.02.36-.46.36.14.36-.46.37.02.36.5.36.38.36.14.37.04.36-.19.36.17.36.1.36-.04.37-.69.36.2.36.13.36.02.36.15.37.01.36-.07.36-.2.36-.31.36-.06.37.34.36-.04.36.19h.36l.36-.22.37-.09.36.1.36-.01.36-.53.37.06.36 1.02.36.2.36.08h.36l.37.12.36-.2.36-.04.36-.01.36.23.37.03.36-.22.36.09.36-.01.36-.11.37-.06.36-.21.36-.07.36-.09.37-.01.36.1.36-.03.36.04.36-.07.37.05.36.02.36.5.36-.02.36.04.37-.43.36.07.36.23.36.07.36.06.37-.04.36-.62.36.08.36-.05.36-.12.37.47.36.16.36.04.36-.21.37.02.36.11.36-.09.36-.23h.36l.37-.09.36-.27.36-.03.36-.05.36-.06.37-.18.36-.23.36.32.36.57.36-.09.37-.43.36.67.36.04.36-.04.37-.08.36-.08.36-.07.36-.71.36.14.37.03.36.05.36.43.36-.09.36.42.37-.08.36.01.36-.19.36-.18.36.05.37-.05.36.08.36-.12.36-.25.36-.08.37.07.36-.47.36-.01.36.45.37.01.36.31.36-.3.36.51.36.11.37.05.36.03.36.01.36-.05.36.09.37-.27.36.04.36-.02.36-.14.36-.52.37.02.36-.17.36.79.36.03.37-.01.36.07.36.06.36.24.36-.26.37.36.36.03.36-.16.36-.64.36.05.37-.03.36.16.36-.02.36-.21.36.04.37.47.36.15.36-.1.36-.02.37-.45.36.3.36-.01.36.1.36-.83.37.21.36.01.36.03.36-.05.36.3.37.14.36.01.36.12h.36l.36.11.37-.12.36-.02.36-.13.36-.45.36.02.37-.47.36.11.36.07.36.07.37.43h.36l.36-.08.36.04.36.05.37.29.36-.15.36.3"/><use xlink:href="#5714e__f" color="#00C853" transform="matrix(3.75 0 0 3.75 182.98 150.97)"/><use xlink:href="#5714e__f" color="#00C853" transform="matrix(3.75 0 0 3.75 220.55 22.51)"/></g><path fill="none" d="M28 45.01V162.5M371.99 45.01H28" color="#000"/></svg>