<svg xmlns="http://www.w3.org/2000/svg" xmlns:xlink="http://www.w3.org/1999/xlink" viewBox="0 0 400 200"><path fill="none" d="M0 0h400v200H0z"/><defs><path id="ccafd__b" stroke="currentColor" stroke-width=".267" d="M-1-1h2v2h-2z"/><path id="ccafd__a" stroke="currentColor" stroke-width=".267" d="m0-1.33-1.33 2h2.66z"/><path id="ccafd__f" stroke="currentColor" stroke-width=".267" d="M0 1.33 1.265.411.782-1.067l-1.564-.009-.483 1.487z"/><use xlink:href="#ccafd__a" id="ccafd__d" fill="currentColor" stroke="none"/><use xlink:href="#ccafd__b" id="ccafd__c" stroke="currentColor" transform="rotate(45)"/><use xlink:href="#ccafd__c" id="ccafd__e" fill="currentColor" stroke="none"/></defs><path fill="none" stroke="#CCC" stroke-linecap="round" stroke-linejoin="round" stroke-width=".1" d="M46.1 162.5V45.01" class="ccafd__gridline" color="#000"/><g fill="none" stroke-linecap="round" stroke-linejoin="round" stroke-width="0" color="#000"><path d="M46.1 162.5V155m0-109.99v7.5"/><text fill="#000" font-family="KaTeX_Main" font-size="8" text-anchor="middle" transform="translate(46.1 172.6)"><tspan> 1</tspan></text></g><path fill="none" stroke="#CCC" stroke-linecap="round" stroke-linejoin="round" stroke-width=".1" d="M82.31 162.5V45.01" class="ccafd__gridline" color="#000"/><g fill="none" stroke-linecap="round" stroke-linejoin="round" stroke-width="0" color="#000"><path d="M82.31 162.5V155m0-109.99v7.5"/><text fill="#000" font-family="KaTeX_Main" font-size="8" text-anchor="middle" transform="translate(82.31 172.6)"><tspan> 2</tspan></text></g><path fill="none" stroke="#CCC" stroke-linecap="round" stroke-linejoin="round" stroke-width=".1" d="M118.52 162.5V45.01" class="ccafd__gridline" color="#000"/><g fill="none" stroke-linecap="round" stroke-linejoin="round" stroke-width="0" color="#000"><path d="M118.52 162.5V155m0-109.99v7.5"/><text fill="#000" font-family="KaTeX_Main" font-size="8" text-anchor="middle" transform="translate(118.52 172.6)"><tspan> 3</tspan></text></g><path fill="none" stroke="#CCC" stroke-linecap="round" stroke-linejoin="round" stroke-width=".1" d="M154.73 162.5V45.01" class="ccafd__gridline" color="#000"/><g fill="none" stroke-linecap="round" stroke-linejoin="round" stroke-width="0" color="#000"><path d="M154.73 162.5V155m0-109.99v7.5"/><text fill="#000" font-family="KaTeX_Main" font-size="8" text-anchor="middle" transform="translate(154.73 172.6)"><tspan> 4</tspan></text></g><path fill="none" stroke="#CCC" stroke-linecap="round" stroke-linejoin="round" stroke-width=".1" d="M190.94 162.5V45.01" class="ccafd__gridline" color="#000"/><g fill="none" stroke-linecap="round" stroke-linejoin="round" stroke-width="0" color="#000"><path d="M190.94 162.5V155m0-109.99v7.5"/><text fill="#000" font-family="KaTeX_Main" font-size="8" text-anchor="middle" transform="translate(190.94 172.6)"><tspan> 5</tspan></text></g><path fill="none" stroke="#CCC" stroke-linecap="round" stroke-linejoin="round" stroke-width=".1" d="M227.15 162.5V45.01" class="ccafd__gridline" color="#000"/><g fill="none" stroke-linecap="round" stroke-linejoin="round" stroke-width="0" color="#000"><path d="M227.15 162.5V155m0-109.99v7.5"/><text fill="#000" font-family="KaTeX_Main" font-size="8" text-anchor="middle" transform="translate(227.15 172.6)"><tspan> 6</tspan></text></g><path fill="none" stroke="#CCC" stroke-linecap="round" stroke-linejoin="round" stroke-width=".1" d="M263.36 162.5V45.01" class="ccafd__gridline" color="#000"/><g fill="none" stroke-linecap="round" stroke-linejoin="round" stroke-width="0" color="#000"><path d="M263.36 162.5V155m0-109.99v7.5"/><text fill="#000" font-family="KaTeX_Main" font-size="8" text-anchor="middle" transform="translate(263.36 172.6)"><tspan> 7</tspan></text></g><path fill="none" stroke="#CCC" stroke-linecap="round" stroke-linejoin="round" stroke-width=".1" d="M299.57 162.5V45.01" class="ccafd__gridline" color="#000"/><g fill="none" stroke-linecap="round" stroke-linejoin="round" stroke-width="0" color="#000"><path d="M299.57 162.5V155m0-109.99v7.5"/><text fill="#000" font-family="KaTeX_Main" font-size="8" text-anchor="middle" transform="translate(299.57 172.6)"><tspan> 8</tspan></text></g><path fill="none" stroke="#CCC" stroke-linecap="round" stroke-linejoin="round" stroke-width=".1" d="M335.78 162.5V45.01" class="ccafd__gridline" color="#000"/><g fill="none" stroke-linecap="round" stroke-linejoin="round" stroke-width="0" color="#000"><path d="M335.78 162.5V155m0-109.99v7.5"/><text fill="#000" font-family="KaTeX_Main" font-size="8" text-anchor="middle" transform="translate(335.78 172.6)"><tspan> 9</tspan></text></g><path fill="none" stroke="#CCC" stroke-linecap="round" stroke-linejoin="round" stroke-width=".1" d="M371.99 162.5V45.01" class="ccafd__gridline" color="#000"/><g fill="none" stroke-linecap="round" stroke-linejoin="round" stroke-width="0" color="#000"><path d="M371.99 162.5V155m0-109.99v7.5"/><text fill="#000" font-family="KaTeX_Main" font-size="8" text-anchor="middle" transform="translate(371.99 172.6)"><tspan> 10</tspan></text></g><g fill="none" stroke-linecap="round" stroke-linejoin="round" stroke-width="0" color="#000"><path d="M371.99 154.11h-7.5"/><text fill="#000" font-family="KaTeX_Main" font-size="8" transform="translate(378.99 156.71)"><tspan>0</tspan></text></g><g fill="none" stroke-linecap="round" stroke-linejoin="round" stroke-width="0" color="#000"><path d="M371.99 137.32h-7.5"/><text fill="#000" font-family="KaTeX_Main" font-size="8" transform="translate(378.99 139.92)"><tspan>2</tspan></text></g><g fill="none" stroke-linecap="round" stroke-linejoin="round" stroke-width="0" color="#000"><path d="M371.99 120.54h-7.5"/><text fill="#000" font-family="KaTeX_Main" font-size="8" transform="translate(378.99 123.14)"><tspan>4</tspan></text></g><g fill="none" stroke-linecap="round" stroke-linejoin="round" stroke-width="0" color="#000"><path d="M371.99 103.75h-7.5"/><text fill="#000" font-family="KaTeX_Main" font-size="8" transform="translate(378.99 106.35)"><tspan>6</tspan></text></g><g fill="none" stroke-linecap="round" stroke-linejoin="round" stroke-width="0" color="#000"><path d="M371.99 86.97h-7.5"/><text fill="#000" font-family="KaTeX_Main" font-size="8" transform="translate(378.99 89.57)"><tspan>8</tspan></text></g><g fill="none" stroke-linecap="round" stroke-linejoin="round" stroke-width="0" color="#000"><path d="M371.99 70.19h-7.5"/><text fill="#000" font-family="KaTeX_Main" font-size="8" transform="translate(378.99 72.79)"><tspan>10</tspan></text></g><g fill="none" stroke-linecap="round" stroke-linejoin="round" stroke-width="0" color="#000"><path d="M371.99 53.4h-7.5"/><text fill="#000" font-family="KaTeX_Main" font-size="8" transform="translate(378.99 56)"><tspan>12</tspan></text></g><path fill="none" d="M28 45.01V162.5M371.99 45.01H28" color="#000"/><text stroke-linecap="round" stroke-linejoin="round" stroke-width="0" color="#000" font-family="KaTeX_Main" font-size="10" text-anchor="middle" transform="rotate(-90 57.63 46.13)"><tspan>log</tspan><tspan dy="3" font-size="8">2</tspan><tspan dy="-3">(</tspan><tspan font-weight="bold">Maximum Path Length </tspan><tspan> / log</tspan><tspan dy="3" font-size="8">2</tspan><tspan dy="-3">(Size))</tspan></text><text stroke-linecap="round" stroke-linejoin="round" stroke-width="0" color="#000" font-family="KaTeX_Main" font-size="10" text-anchor="middle" transform="translate(199.99 195.75)"><tspan>Operations / 10</tspan><tspan dy="-5" font-size="8">6</tspan></text><text stroke-linecap="round" stroke-linejoin="round" color="#000" font-family="KaTeX_Main" font-size="8" transform="translate(132.8 10.11)"><tspan>Splay</tspan></text><g fill="none" stroke="currentColor" stroke-linecap="round" stroke-linejoin="round" color="#000"><path stroke="#29C3F6" d="M97.3 7.51h29.9M28 99.03l.36-14.04.36-8.38.37-4.91.36-3.48.36-2.7.36-2.21.36-1.86.37-1.62.36-1.43.36-1.27.36-1.16.37-1.05.36-.97.36-.89.36-.84.36-.78.37-.73.36-.7.36-.65.36 74.2.36-38.58.37-8.38.36-4.9.36-3.48.36-2.7.36-2.21.37-1.86.36-1.62.36-1.43.36-1.27.36-1.16.37-1.05.36-.97.36-.89.36-.84.37-.78.36-.74.36-.69.36-.65.36 94.11.37-58.5.36-8.37.36-4.9.36-3.48.36-2.7.37-2.21.36-1.87.36-1.61.36-1.43.36-1.27.37-1.16.36-1.05.36-.97.36-.9.37-.83.36-.78.36-.74.36-.69.36-.65.37 101.91.36-66.3.36-8.37.36-4.91.36-3.48.37-2.7.36-2.2.36-1.87.36-1.61.36-1.43.37-1.27.36-1.16.36-1.05.36-.97.37-.9.36-.83.36-.78.36-.74.36-.69.37-.65.36 101.35.36-65.75.36-8.37.36-4.9.37-3.48.36-2.7.36-2.2.36-1.87.36-1.61.37-1.43.36-1.27.36-1.16.36-1.05.36-.97.37-.9.36-.83.36-.78.36-.74.37-.69.36-.65.36 100.29.36-64.7.36-8.36.37-4.9.36-3.48.36-2.7.36-2.2.36-1.87.37-1.61.36-1.43.36-1.27.36-1.16.36-1.05.37-.97.36-.9.36-.83.36-.78.37-.74.36-.69.36-.65.36 98.87.36-63.29.37-8.36.36-4.89.36-3.48.36-2.7.36-2.21.37-1.86.36-1.62.36-1.42.36-1.28.36-1.15.37-1.05.36-.97.36-.9.36-.83.36-.78.37-.74.36-.69.36-.65.36 97.59.37-62.01.36-8.36.36-4.9.36-3.47.36-2.7.37-2.21.36-1.86.36-1.62.36-1.42.36-1.28.37-1.15.36-1.05.36-.97.36-.9.36-.83.37-.78.36-.74.36-.69.36-.65.37 96.44.36-60.87.36-8.35.36-4.9.36-3.48.37-2.69.36-2.21.36-1.86.36-1.62.36-1.42.37-1.28.36-1.15.36-1.05.36-.97.36-.9.37-.83.36-.78.36-.74.36-.69.36-.65.37 95.38.36-59.82.36-8.35.36-4.89.37-3.48.36-2.69.36-2.21.36-1.86.36-1.62.37-1.42.36-1.28.36-1.15.36-1.05.36-.97.37-.9.36-.83.36-.79.36-.73.36-.69.37-.65.36 94.41.36-58.86.36-8.34.37-4.89.36-3.48.36-2.7.36-2.2.36-1.86.37-1.62.36-1.42.36-1.28.36-1.15.36-1.05.37-.97.36-.9.36-.83.36-.79.36-.73.37-.69.36-.66.36 93.53.36-57.97.37-8.34.36-4.9.36-3.47.36-2.7.36-2.2.37-1.87.36-1.61.36-1.42.36-1.28.36-1.15.37-1.06.36-.96.36-.9.36-.84.36-.78.37-.73.36-.69.36-.66.36 92.69.36-57.14.37-8.34.36-4.89.36-3.47.36-2.7.37-2.2.36-1.87.36-1.61.36-1.43.36-1.27.37-1.15.36-1.06.36-.96.36-.9.36-.84.37-.78.36-.73.36-.69.36-.66.36 91.91.37-56.37.36-8.33.36-4.89.36-3.47.37-2.7.36-2.2.36-1.87.36-1.61.36-1.43.37-1.27.36-1.15.36-1.06.36-.96.36-.9.37-.84.36-.78.36-.73.36-.69.36-.66.37 91.18.36-55.64.36-8.33.36-4.89.36-3.48.37-2.69.36-2.2.36-1.87.36-1.61.37-1.43.36-1.27.36-1.15.36-1.06.36-.97.37-.89.36-.84.36-.78.36-.73.36-.69.37-.66.36 90.48.36-54.95.36-8.33.36-4.89.37-3.47.36-2.69.36-2.21.36-1.86.37-1.61.36-1.43.36-1.27.36-1.15.36-1.06.37-.97.36-.89.36-.84.36-.78.36-.73.37-.69.36-.66.36 89.83.36-54.31.36-8.32.37-4.89.36-3.47.36-2.69.36-2.21.36-1.86.37-1.61.36-1.43.36-1.27.36-1.16.37-1.05.36-.97.36-.89.36-.84.36-.78.37-.73.36-.69.36-.66.36 89.21.36-53.7.37-8.32.36-4.88.36-3.47.36-2.7.36-2.2.37-1.86.36-1.62.36-1.42.36-1.27.37-1.16.36-1.05.36-.97.36-.89.36-.84.37-.78.36-.73.36-.69.36-.66.36 88.62.37-53.11.36-8.32.36-4.88.36-3.47.36-2.7.37-2.2.36-1.86.36-1.62.36-1.42.37-1.27.36-1.16.36-1.05.36-.97.36-.89.37-.84.36-.78.36-.73.36-.69.36-.66.37 88.05.36-52.55.36-8.31.36-4.89.36-3.47.37-2.69.36-2.2.36-1.86.36-1.62.36-1.42.37-1.28.36-1.15.36-1.05.36-.97.37-.89.36-.84.36-.78.36-.73.36-.69.37-.66.36 87.52.36-52.03.36-8.31.36-4.88.37-3.47.36-2.69.36-2.2.36-1.86.36-1.62.37-1.42.36-1.28.36-1.15.36-1.05.37-.97.36-.89.36-.84.36-.78.36-.73.37-.69.36-.66.36 87 .36-51.51.36-8.31.37-4.88.36-3.47.36-2.69.36-2.2.36-1.87.37-1.61.36-1.42.36-1.28.36-1.15.36-1.05.37-.97.36-.9.36-.83.36-.78.37-.73.36-.7.36-.65.36 86.51.36-51.03.37-8.3.36-4.88.36-3.47.36-2.69.36-2.2.37-1.87.36-1.61.36-1.42.36-1.28.36-1.15.37-1.05.36-.97.36-.9.36-.83.37-.78.36-.73.36-.7.36-.65.36 86.03.37-50.56.36-8.3.36-4.88.36-3.46.36-2.69.37-2.21.36-1.86.36-1.61.36-1.42.36-1.28.37-1.15.36-1.05.36-.97.36-.9.37-.83.36-.78.36-.73.36-.7.36-.65.37 85.57.36-50.11.36-8.29.36-4.88.36-3.46.37-2.7.36-2.2.36-1.86.36-1.61.36-1.43.37-1.27.36-1.15.36-1.05.36-.97.36-.9.37-.83.36-.78.36-.74.36-.69.37-.65.36 85.13.36-49.67.36-8.29.36-4.88.37-3.47.36-2.69.36-2.2.36-1.86.36-1.61.37-1.43.36-1.27.36-1.15.36-1.05.36-.97.37-.9.36-.83.36-.78.36-.74.37-.69.36-.65.36 84.71.36-49.26.36-8.29.37-4.87.36-3.47.36-2.69.36-2.2.36-1.86.37-1.61.36-1.43.36-1.27.36-1.15.36-1.05.37-.97.36-.9.36-.83.36-.78.36-.74.37-.69.36-.65.36 84.3.36-48.86.37-8.28.36-4.87.36-3.47.36-2.69.36-2.2.37-1.86.36-1.61.36-1.43.36-1.27.36-1.15.37-1.05.36-.97.36-.9.36-.83.36-.78.37-.74.36-.69.36-.65.36 83.9.37-48.46.36-8.29.36-4.87.36-3.46.36-2.69.37-2.2.36-1.86.36-1.62.36-1.42.36-1.27.37-1.15.36-1.06.36-.96.36-.9.36-.83.37-.78.36-.74.36-.69.36-.65.36 83.52.37-48.09.36-8.28.36-4.87.36-3.46.37-2.69.36-2.2.36-1.86.36-1.62.36-1.42.37-1.27.36-1.15.36-1.06.36-.96.36-.9.37-.83.36-.78.36-.74.36-.69.36-.65.37 83.14.36-47.72.36-8.27.36-4.87.37-3.47.36-2.68.36-2.2.36-1.86.36-1.62.37-1.42.36-1.27.36-1.15.36-1.06.36-.96.37-.9.36-.83.36-.78.36-.74.36-.69.37-.65.36 82.78.36-47.37.36-8.27.37-4.86.36-3.47.36-2.69.36-2.2.36-1.86.37-1.61.36-1.42.36-1.27.36-1.16.36-1.05.37-.96.36-.9.36-.83.36-.79.36-.73.37-.69.36-.65.36 82.43.36-47.02.36-8.27.37-4.87.36-3.46.36-2.69.36-2.2.37-1.86.36-1.61.36-1.42.36-1.27.36-1.16.37-1.05.36-.97.36-.89.36-.84.36-.78.37-.73.36-.69.36-.65.36 82.09.36-46.69.37-8.26.36-4.87.36-3.46.36-2.69.37-2.2.36-1.86.36-1.61.36-1.42.36-1.28.37-1.15.36-1.05.36-.97.36-.89.36-.84.37-.78.36-.73.36-.69.36-.65.36 81.76.37-46.37.36-8.26.36-4.86.36-3.46.36-2.69.37-2.2.36-1.86.36-1.61.36-1.42.37-1.28.36-1.15.36-1.05.36-.97.36-.89.37-.84.36-.78.36-.73.36-.69.36-.65.37 81.44.36-46.05.36-8.26.36-4.86.36-3.46.37-2.69.36-2.2.36-1.86.36-1.61.37-1.42.36-1.28.36-1.15.36-1.05.36-.97.37-.89.36-.84.36-.78.36-.73.36-.69.37-.65.36 81.12.36-45.74.36-8.25.36-4.87.37-3.46.36-2.68.36-2.2.36-1.86.36-1.61.37-1.42.36-1.28.36-1.15.36-1.05.37-.97.36-.89.36-.84.36-.78.36-.73.37-.69.36-.66.36 80.83.36-45.45.36-8.25.37-4.86.36-3.46.36-2.68.36-2.2.36-1.86.37-1.61.36-1.43.36-1.27.36-1.15.37-1.05.36-.97.36-.89.36-.84.36-.78.37-.73.36-.69.36-.66.36 80.53.36-45.16.37-8.24.36-4.86.36-3.46.36-2.69.36-2.19.37-1.86.36-1.61.36-1.43.36-1.27.37-1.15.36-1.05.36-.97.36-.89.36-.84.37-.78.36-.73.36-.69.36-.66.36 80.23.37-44.86.36-8.24.36-4.86.36-3.46.36-2.69.37-2.2.36-1.85.36-1.62.36-1.42.36-1.27.37-1.15.36-1.05.36-.97.36-.89.37-.84.36-.78.36-.73.36-.69.36-.66.37 79.95.36-44.59.36-8.24.36-4.86.36-3.45.37-2.69.36-2.2.36-1.86.36-1.61.36-1.42.37-1.27.36-1.15.36-1.05.36-.97.37-.9.36-.83.36-.78.36-.73.36-.69.37-.66.36 79.67.36-44.32.36-8.23.36-4.86.37-3.46.36-2.68.36-2.2.36-1.86.36-1.61.37-1.42.36-1.27.36-1.15.36-1.05.36-.97.37-.9.36-.83.36-.78.36-.73.37-.69.36-.66.36 79.4.36-44.05.36-8.24.37-4.85.36-3.46.36-2.68.36-2.2.36-1.86.37-1.61.36-1.42.36-1.27.36-1.15.36-1.05.37-.97.36-.9.36-.83.36-.78.37-.73.36-.69.36-.66.36 79.13.36-43.79.37-8.23.36-4.85.36-3.46.36-2.68.36-2.2.37-1.86.36-1.61.36-1.42.36-1.27.36-1.15.37-1.05.36-.97.36-.9.36-.83.36-.78.37-.73.36-.69.36-.66.36 78.87.37-43.54.36-8.22.36-4.86.36-3.45.36-2.69.37-2.19.36-1.86.36-1.61.36-1.42.36-1.27.37-1.15.36-1.06.36-.96.36-.9.36-.83.37-.78.36-.73.36-.69.36-.66.37 78.62.36-43.29.36-8.23.36-4.85.36-3.45.37-2.69.36-2.19.36-1.86.36-1.61.36-1.42.37-1.27.36-1.15.36-1.06.36-.96.36-.9.37-.83.36-.78.36-.73.36-.7.37-.65.36 78.37.36-43.05.36-8.22.36-4.85.37-3.45.36-2.69.36-2.19.36-1.86.36-1.61.37-1.42.36-1.27.36-1.16.36-1.05.36-.96.37-.9.36-.83.36-.78.36-.73.36-.7.37-.65.36 78.12.36-42.81.36-8.21.37-4.85.36-3.46.36-2.68.36-2.19.36-1.86.37-1.61.36-1.42.36-1.28"/><use xlink:href="#ccafd__b" color="#29C3F6" transform="matrix(3.75 0 0 3.75 354.25 84.67)"/><use xlink:href="#ccafd__b" color="#29C3F6" transform="matrix(3.75 0 0 3.75 112.25 7.51)"/></g><text stroke-linecap="round" stroke-linejoin="round" stroke-width=".5" color="#000" font-family="KaTeX_Main" font-size="8" transform="translate(132.8 25.11)"><tspan>AVLBottomUp</tspan></text><g fill="none" stroke="currentColor" stroke-linecap="round" stroke-linejoin="round" stroke-width=".5" color="#000"><path stroke="#000" d="M97.3 22.51h29.9M28 154.72l.36.02.36.01.37-.63.36.01.36.02.36.02.36.01.37.02.36.02.36.01.36.02.37.01.36.02.36.01.36.01.36.02.37.01.36.01.36.02.36.01.36.01.37.02.36.01.36.01.36.01.36.01.37.02.36.01.36.01.36.01.36.01.37.01.36.01.36.01.36.01.37.01.36.01.36.01.36.01.36.01.37.01.36.01.36.01.36.01.36.01.37.01.36.01.36.01.36.01.36.01h3.26l.37-.62h15.2l.37.62h3.25l.37-.62h14.84l.36.62h3.26l.37-.62h15.2l.37.62h3.25l.37-.62h14.84l.36.62h3.26l.37-.62h15.2l.37.62h2.89l.36-.62h15.21l.36.62h3.26l.37-.62h15.2l.37.62h2.89l.36-.62h15.21l.36.62h3.26l.37-.62h14.84l.36.62h3.26l.36-.62h15.21l.36.62h3.26l.37-.62h14.84l.36.62h3.26l.36-.62h15.21l.36.62h2.9l.36-.62h15.21l.36.62h3.26l.36-.62h15.21l.36.62h2.9l.36-.62h15.21l.36.62h3.26l.36-.62h14.85l.36.62h3.26l.36-.62h15.21l.36.62h2.9"/><use xlink:href="#ccafd__d" transform="matrix(3.75 0 0 3.75 67.83 154.69)"/><use xlink:href="#ccafd__d" transform="matrix(3.75 0 0 3.75 112.25 22.51)"/></g><text stroke-linecap="round" stroke-linejoin="round" color="#000" font-family="KaTeX_Main" font-size="8" transform="translate(241.1 10.11)"><tspan>LBSTRelaxed</tspan></text><g fill="none" stroke="currentColor" stroke-linecap="round" stroke-linejoin="round" color="#000"><path stroke="#FFAB00" stroke-dasharray="4.0,2.0,1.0,2.0" d="M205.6 7.51h29.9M28 149.65l.36-3.85.36 3.36.37-2.61.36 2.13.36-.89h.36l.36.44h.37l.36-.87.36-.41.36-.78.37 5.1.36-3.91.36-1.19.36 5.1.36-1.62h.37l.36-3.1.36 1.24.36.89.36 2.59.37-3.48.36 1.37.36-2.61.36-.75.36 3.85.37-1.86.36 1.86.36 1.06.36-2.03.36-2.88.37 1.99.36-1.99.36 4.37.36-4.37.37.37.36 2.06h.36l.36-1.68.36 2.13.37-2.88.36 4.37.36-4 .36 3.48h.36l.37-3.1.36 1.24.36-1.99.36.37.36 4 .37-.52.36-1.42.36 1.42.36-1.42.37-.87.36-1.19.36 3.48.36-.49h.36l.37 2.11.36-3.04.36 1.94.36-1.94h.36l.37.93.36-1.8.36 3.35.36-3.76.36.84.37 3.48.36-1.62.36 1.06.36-2.92.37 1.37.36 1.01.36 1.1.36-5.47.36 3.85.37-3.85.36 5.47.36-1.62.36.52h.36l.37-1.49.36-1.73.36 3.22.36-1.94.36-2.43.37 1.99.36-1.62.36.38.36 3.1.36-2.7.37 4.32.36-3.48.36.89.36-2.13.37-.75.36.75.36 4.16h.36l.36.56.37-3.91h.36l.36 2.81.36-1.01.36-.93.37-1.28.36 3.22.36-2.38.36-1.24.36 3.62.37-1.94.36 3.04.36-4.72.36.81.37 1.8.36 1.01h.36l.36.54.36-2.92h.37l.36-.84.36 3.22.36-2.81.36-.41.37 1.73.36-2.88.36 1.15.36-.78.36 4 .37-4 .36 2.06h.36l.36-2.06.36 2.99.37-2.21.36 1.28.36-2.43.36.75.37 3.62.36-1.49.36.97.36.52.36-3.62.37.81.36 2.81.36-.52.36-1.86.36 2.92.37-2.03.36-1.73.36-.78.36 1.19.36.43.37-.43.36-.41.36 2.21.36-2.99.37 2.99.36-.93.36-1.28.36 3.76.36.56.37-4.32.36 3.76.36-.54.36.54h.36l.37-3.76.36 1.28.36.45.36 2.03.36-.54.37-1.01.36 2.11.36-1.62.36-3.1.36-.38.37 3.48.36-3.1.36-.75.36.75.37 3.62.36-3.62.36 3.62.36-4 .36.78.37 4.32.36-2.59.36-.45.36 3.04.36-3.91.37-1.19h.36l.36 4 .36-4 .36-.37.37 1.15.36 3.22.36-2.38.36-1.62.37 2.99.36-.93.36 1.42.36-3.1.36 2.13.37-2.13.36 3.1.36-3.1.36 3.62.36-.52.37-3.48.36.38.36 3.1.36-1.86.36-.84.37 3.22.36-1.01.36-2.99.36-.37.37 4.91h.36l.36.56.36-.56.36.56.37-5.47.36 1.99.36-.43.36 1.32.36.48.37 2.11.36-1.62.36.52.36-4.37.36 1.15.37 1.28.36-1.68.36 2.61.36 1.01.36-.52.37 1.62.36-5.1.36 4.54.36-1.06.37-1.86.36-1.24.36.4.36-.78.36 4 .37-1.01.36 2.11.36-5.47.36 1.99.36 1.86.37-1.42.36 3.04.36-1.62.36-2.7.36 2.21.37-2.61.36 3.62.36-2.81.36 3.91.37-4.72.36 3.62.36-3.62.36 1.68.36-2.06.37 2.06.36-.87.36-.81.36 1.24.36.89.37-.89.36-1.99.36 4.91h.36l.36-4.91.37 3.85.36-3.48.36 4.54.36-1.06h.36l.37.52.36-1.94.36 1.42.36 1.62.37-1.1.36-3.22.36 1.28.36 2.48.36-1.06.37 1.62.36-2.11.36.49.36-3.85.36.75.37.4.36 2.7.36.52.36-4 .36-.37.37.37.36 4 .36-2.81.36 3.91.37-.56.36.56.36-4.32h.36l.36 1.73h.37l.36-2.88.36 1.56.36 2.81.36-1.49.37-.89.36.89.36-2.13h.36l.36 3.62.37-1.01.36-2.61.36 2.61.36-1.37.36-1.24.37 1.68.36-.87.36 3.35h.36l.37-4.91.36 3.36.36-3.36.36 4.37.36-1.49.37-.89.36 3.48.36-1.1.36-1.01.36-2.61.37.81.36-.41.36 2.7.36-1.42.36-1.68.37 1.68.36 1.94.36.54.36-1.06.37-1.42h.36l.36 1.42.36 1.62.36-4.72.37 4.72.36-3.91.36 3.35.36-4.16.36 4.16.37-.54.36-2.81.36 2.29.36.52.36.54.37-3.35.36 2.29.36 1.62.36-5.1.37.38.36 4.72.36-.56.36-4.54.36 2.99.37-.48.36-2.13.36.81.36.43.36-1.62.37 3.48.36-1.42.36-.87.36-1.19.36 4.54.37.56.36-.56.36-1.55.36-1.8.36.87.37 2.48.36-4.16.36 3.62.36-1.94.37-.87.36 2.29.36-3.85.36 3.36.36 1.01.37-2.81.36-.81.36.4.36 2.7.36-3.48.37 4.54.36-2.48.36 1.42.36-3.48.36 2.51.37 2.03.36-4.54.36 2.51.36-1.73.37 3.22.36.54.36.56.36-3.04.36 2.48.37-3.35.36 2.29.36-.49.36-1.37.36-1.99h.37l.36 3.85.36-3.1.36 3.1.36-3.85.37 3.36.36 2.11.36-1.1h.36l.36-4 .37-.37.36.37.36 5.1.36-3.04.37.93.36 2.11h.36l.36-5.47.36 3.85h.37l.36-1.86.36-1.24h.36l.36 1.24.37 1.37.36 2.11.36-3.04.36.93.36-2.61.37 3.1.36-.49h.36l.36-1.37.37-.43.36 3.35.36-2.92.36-.84.36 2.21.37-1.8.36-.41.36 2.21.36.49.36-1.86.37-1.99.36 2.88.36 2.59.36-3.91.36 3.91h.73l.36-3.48.36-1.24.37 3.62.36-1.01.36 1.01.36-3.62.36.4.37.41.36-1.19h.36l.36 3.48.36-3.85.37 3.85.36-3.85.36 4.37.36-4 .36 4.54.37-2.92.36-1.62.36 2.06.36-2.06.36 3.48.37-1.86.36.44.36 2.48.36-4.91h.73l.36 1.99.36 2.38.36 1.1.37-2.59.36.97.36-.97.36-.89.36-1.62.37 5.1.36-2.11.36 2.11.36-4.72.36-.75.37 1.99.36-1.62.36 4.54.36-1.06.37-2.7.36 1.28.36-1.28.36 4.32.36-4.32.37-.4.36-.38.36-.37.36 1.99.36-1.99.37 3.36.36-3.36.36 2.88.36-1.32.36 3.91.37-2.11.36-2.99.36 1.62.36 1.86.36.52.37-3.22.36 4.32h.36l.36-1.62.37 1.06.36.56.36-1.62.36-1.42.36-1.68.37 1.24.36.44.36-2.43.36 4.91.36-4.91.37 3.36.36 1.01h.36l.36-4h.36l.37.38.36 2.13.36.97.36-.49.37 1.55.36-4.16.36 2.13.36-2.51.36 1.19.37 3.91.36-4.32.36 2.7.36 1.62.36-5.1.37 1.62.36.89.36-.45.36.93.36-3.36h.37l.36.75.36 1.68.36-1.28.36 2.21.37 1.01h.72l.36-4.37.37 3.36.36-1.8.36 3.91.36-3.48.36-1.24.37 4.16h.36l.36-1.06.36-.49h.36l.37-.48.36-.89.36 2.92.36-2.92.36.44.37-2.43h.36l.36.75.36 2.13.37.48.36-1.8.36 3.91.36-1.62.36.52h.37l.36-2.81.36 3.91.36-3.48.36 2.92h.73l.36-.54.36-3.22.36-.4.37 1.68.36-1.28.36.84.36 3.48.37-1.1.36.54.36-2.48.36-.44.36.89h.37l.36.97.36-.97h.36l.36.48.37-.48.36.48.36.49.36-1.42.36-.44.37 3.48.36-.56.36-4.91.36 3.85.36 1.06.37-.54.36 1.1.36-3.91.36-1.19h.37l.36 2.51.36.97.36-3.1.36 2.61.37.49.36.52h.36l.36-1.94.36 3.04.37-2.11.36-2.99.36 3.48.36-3.1.36 3.62.37-4.37.36 3.85.36-2.29.36 2.81.37-1.01h.36l.36.49.36-3.1.36 4.16.37-.54.36-.52.36-.97.36 1.49.36-1.49.37 1.49.36-3.62.36 3.1.36.52.36-3.22.37-.78.36.78.36 4.32.36-1.62.36.52.37-4 .36 1.62.36 2.38.36-.52.37.52.36-1.49.36 2.03.36-2.03.36.97.37-1.86.36-1.99.36 2.43.36 3.04.36-4.72.37 2.13.36-2.88.36 1.99.36 1.86.36-.49.37-1.37.36-1.24.36 2.61.36-.93h.37l.36-.87.36-1.56.36 3.85.36-.97.37 1.49h.36l.36-4 .36 4.54.36-2.48.37-2.06.36 1.62.36 1.86.36-3.1.36 3.62.37-.52.36 1.62.36-1.62.36-1.86.36 1.37.37 1.55h.36l.36-1.06.36-2.7.37.41.36-1.56.36 1.15.36-1.15.36 2.43.37-1.28.36 4.32.36-5.1h.72l.37 3.48.36-2.29.36.87.36-.87.36 3.35.37-4.54.36 4.54.36-1.55.36-.93.37.45.36 2.59.36-3.04.36-.87.36-.81.37-.38.36 4 .36 1.1.36-3.04h.36l.37.45.36-2.88h.36l.36.37.36 3.48.37-1.42.36 1.42.36-2.29.36 1.32.37-1.73.36 3.76.36-2.03.36-2.13.36-.75.37 3.85.36 1.62h.36l.36-4.32.36.41.37-.81.36.81.36 2.29.36-.49.36.49.37-3.1.36 2.61.36-.48.36-1.32.36 1.32.37 2.59.36-4.72.36 3.1.36 1.62.37-.56.36-1.55.36 2.11.36-1.1.36-2.81.37 3.91.36-4.72.36.81.36-1.19.36 4.54.37-2.92.36 2.92.36-4.54.36-.37.36 4.37.37 1.1.36-2.59.36 1.49.36-1.94.37 3.04.36-2.59.36.48.36-3.36.36 4.91.37-4.54.36 3.48.36 1.62.36-1.62.36-2.29.37 1.8.36-2.61.36 3.62h.72l.37-3.22.36-1.15.36.75.36 2.61.36 1.55.37-4.16.36 1.24.36-.84.36 3.22.37 1.1.36-1.62.36-2.7.36-.4.36-.38.37-.37.36 3.36h.36l.36-1.37.36 2.38.37-3.22.36 3.22.36-2.81.36.43.36.89.37.97.36-3.1.36 4.16.36-3.76.37 4.32.36-4.32.36 3.22.36.54h.36l.37-1.06.36-3.85.36 5.47h.36l.36-2.11.37.49.36-1.42.36 3.04.36-3.48.36.44.37-2.06.36 4.54.36-.54.36-.52.36 1.62.37-1.1.36-2.81h.36l.36-1.56h.37l.36 4.37.36-4.37.36 3.36.36-1.8.37-.81.36 1.24h.36l.36 3.48.36-.56.37-.54.36.54.36-.54.36 1.1.36-3.48.37 1.86.36-3.1.36-.38.36 2.51.37-1.73.36 1.73.36.97.36-3.48.36 2.99.37-3.36h.36l.36 3.85h.36l.36.52.37-4 .36 4 .36-2.38.36 1.86.36-2.29.37 1.8h.36l.36.49.36-3.48.37 4.54.36-2.48.36-2.06.36 4.54.36-4.91.37 2.88.36.48.36 2.11.36-4.72.36 4.16.37-2.03.36-1.32.36 2.81.36-2.38.36 1.86.37-1.86.36 2.92.36-4.54.36 2.06.36-2.06.37 3.48.36-.97.36-1.32.36-1.56.37 1.99.36-1.24.36 3.62.36.54.36.56.37-1.62h.36l.36 1.62"/><use xlink:href="#ccafd__e" color="#FFAB00" transform="matrix(3.75 0 0 3.75 125.4 146.17)"/><use xlink:href="#ccafd__e" color="#FFAB00" transform="matrix(3.75 0 0 3.75 220.55 7.51)"/></g><text stroke-linecap="round" stroke-linejoin="round" color="#000" font-family="KaTeX_Main" font-size="8" transform="translate(241.1 25.11)"><tspan>TreapTopDown</tspan></text><g fill="none" stroke="currentColor" stroke-linecap="round" stroke-linejoin="round" color="#000"><path stroke="#00C853" stroke-dasharray="4.5,2.0,0.5,2.0,0.5,2.0" d="M205.6 22.51h29.9M28 143.17h1.81l.36.3h2.9l.36-.3.36-.29h3.26l.36.29.37-.29.36.59.36.3h2.17l.37.64h.36l.36.33.36-.33h.36l.37.67h.72l.36-.34h2.17l.37-.33h.72l.36-.32H49l.36.32.37.33.36-.33.36-.32h.36l.36-.62h1.45l.36-.3h1.45l.37.3.36.3.36.32h1.09l.36-.32h1.08l.37-.3h1.44l.37.3h1.81l.36.32.36.32h2.54l.36.33h2.89l.37-.33.36-1.53.36-.29H70l.37.29h.72l.36-.29h1.45l.36.29h.36l.37-.29.36.29.36.59h2.53l.37-.3h.72l.36.3h.73l.36.3.36.32.36.32h1.09l.36-.32h1.81l.36-.32.37-.3.36.3h.36l.36-.3h.37l.36.3h.36l.36-.3h.36l.37.3h1.08l.36.32.37.32h.72l.36-.32h1.81l.36-.32h1.09l.36.32h.37l.36-.62.36-.3h4.34l.37.3h.36l.36-.3h1.45l.36.3h.36l.37.3.36.32h.36l.36.99h1.09l.36-.34.36-.33.36-.32.37-.62.36-.3h.36l.36.3.37-.3h1.44l.37.3h.36l.36-.3h.36l.36.3.37.3.36.32h.72l.36.65.37-.33h3.26l.36-.32.36-.32.36-.3h2.54l.36.3.36-.3h.36l.36.3h2.9l.36-.6.37-.29h.72l.36-.29h1.45l.36.29.36-.29h.73l.36.29h.36l.36.29h.73l.36.6.36.32h1.09l.36-.32.36.32h1.09l.36-.32h3.62l.37-.6.36-.29h.72l.36.29h1.45l.36.3.37-.3h1.44l.37-.29h2.89l.37.29h.36l.36.3.36.62h2.54l.36.32h.36l.36.33h.73l.36-.33h.72l.37-1.53h.36l.36-.29h1.81l.36.29h.36l.37-.29h2.17l.36.58h4.35l.36.3.36.3h.36l.36-.3h1.45l.36-.3h.37l.36-.29.36.29h.73l.36-.29.36.29h.36l.36.6h1.81l.37.64.36-.94h.36l.36-.59.36-.29.37-.28h1.45l.36-.27.36.27.36-.27h.73l.36.27h.36l.36.28.36.29.37.29h1.81l.36.3.36.3h2.54l.36-.3.36-.3h.36l.36-.29.37.29h.36l.36-.29h1.09l.36.29.36.92.36.32h2.54l.36-.64.36-.3h1.45l.36.3h.36l.37.32.36-.32.36-.3h1.45l.36-.3h1.81l.36.3h1.09l.36.62h1.45l.36-.62h1.81l.36.3h1.45l.37.32h.36l.36.32h.36l.36.33h1.45l.36.34h.37l.36-.34h1.45l.36-.33h.36l.36-.32.37-.32.36-.3h1.81l.36-.3.36-.29h1.45l.36-.29h.36l.37.29h1.81l.36.59h.36l.36.62h1.45l.36.32h1.45l.36.33h.73l.36-.65h3.98l.37.32h.36l.36-.32.36-.32h1.45l.36.32h1.81l.36.32.37-.32h.72l.36-.32h1.45l.36.32h2.9l.36-.32h1.81l.37.32h2.89l.36.32.37-.32h1.08l.36.32h.73l.36.33.36-.65.37-.32.36-.3h1.45l.36-.3.36-.29h1.09l.36.29h.72l.36.3h.37l.36-.3.36.3h1.09l.36.3.36-.3.36.3H263l.36.32h.36l.37.32.36.33.36.34.36-.34h.73l.36-.33h.36l.36-1.53h1.09l.36-.29.36.29h1.09l.36.29h2.9l.36 1.24h.36l.36-.32h1.09l.36.32.36.33.37-.33h1.08l.37-1.53.36-.84.36-.27h.72l.37-.26.36-.25h3.26l.36.25h.36l.36.26.37.54.36 1.16h1.81l.36.3h.36l.36-.3.37.3h.36l.36-.3.36.3h.73l.36.64h.72l.36-.32.37-.32h.72l.36-.3h2.9l.36.3h1.45l.36-.3.36-.3.37-.29h1.08l.37.29h.36l.36.3h1.81l.36-.3h1.09l.36-.29h.36l.36-.29h.37l.36.29.36.59.36.62h1.81l.37-.32h3.25l.37.32h2.53l.36-.32h.37l.36.64.36.33h1.45l.36-.65.36-.62h.73l.36-.3h5.07l.36 1.24.36.33h1.09l.36.34h.72l.37-.34.36-.33h1.08l.37.33h2.17l.36-.33h.36l.37-.32.36-.32h1.81l.36.32.36.32h.36l.37-.32.36.32h1.81l.36-.32h1.09l.36.32.36-.32.36-.32.37-.3h.36l.36-.3.36-.29h1.45l.36-.29h.73l.36-.28h.36l.36.28h.37l.36.29h.36l.36.89.36.64h.37l.36.33h1.08l.37-.33h.72l.36-.32.36-.32h.73l.36.32h3.26l.36-.32h2.17l.37.32h2.53l.36-.32h1.45l.36.32h1.45l.36.32h.73l.36-1.53.36-.57h.36l.37-.27h1.08l.37.27h1.44l.37.28h.36l.36.29"/><use xlink:href="#ccafd__f" color="#00C853" transform="matrix(3.75 0 0 3.75 182.98 143.17)"/><use xlink:href="#ccafd__f" color="#00C853" transform="matrix(3.75 0 0 3.75 220.55 22.51)"/></g><path fill="none" d="M28 45.01V162.5M371.99 45.01H28" color="#000"/></svg>