<svg xmlns="http://www.w3.org/2000/svg" xmlns:xlink="http://www.w3.org/1999/xlink" viewBox="0 0 400 250"><path fill="none" d="M0 0h400v250H0z"/><defs><path id="38d2f__c" stroke="currentColor" stroke-width=".267" d="M-1 0h2M0-1v2"/><path id="38d2f__d" stroke="currentColor" stroke-width=".267" d="m-1-1 2 2m0-2-2 2"/><path id="38d2f__e" stroke="currentColor" stroke-width=".267" d="M-1 0h2M0-1v2m-1-2 2 2m-2 0 2-2"/><path id="38d2f__b" stroke="currentColor" stroke-width=".267" d="M-1-1h2v2h-2z"/><path id="38d2f__a" stroke="currentColor" stroke-width=".267" d="m0-1.33-1.33 2h2.66z"/><use xlink:href="#38d2f__a" id="38d2f__g" stroke="currentColor" transform="rotate(180)"/><use xlink:href="#38d2f__b" id="38d2f__f" stroke="currentColor" transform="rotate(45)"/></defs><path fill="none" stroke="#CCC" stroke-linecap="round" stroke-linejoin="round" stroke-width=".1" d="M52.37 205V37.51" class="38d2f__gridline" color="#000"/><g fill="none" stroke-linecap="round" stroke-linejoin="round" stroke-width="0" color="gray"><path d="M52.37 205v-7.5m0-159.99v7.5"/><text fill="#000" font-family="KaTeX_Main" font-size="8" text-anchor="middle" transform="translate(52.37 215.1)"><tspan> 1</tspan></text></g><path fill="none" stroke="#CCC" stroke-linecap="round" stroke-linejoin="round" stroke-width=".1" d="M87.1 205V37.51" class="38d2f__gridline" color="#000"/><g fill="none" stroke-linecap="round" stroke-linejoin="round" stroke-width="0" color="gray"><path d="M87.1 205v-7.5m0-159.99v7.5"/><text fill="#000" font-family="KaTeX_Main" font-size="8" text-anchor="middle" transform="translate(87.1 215.1)"><tspan> 2</tspan></text></g><path fill="none" stroke="#CCC" stroke-linecap="round" stroke-linejoin="round" stroke-width=".1" d="M121.84 205V37.51" class="38d2f__gridline" color="#000"/><g fill="none" stroke-linecap="round" stroke-linejoin="round" stroke-width="0" color="gray"><path d="M121.84 205v-7.5m0-159.99v7.5"/><text fill="#000" font-family="KaTeX_Main" font-size="8" text-anchor="middle" transform="translate(121.84 215.1)"><tspan> 3</tspan></text></g><path fill="none" stroke="#CCC" stroke-linecap="round" stroke-linejoin="round" stroke-width=".1" d="M156.58 205V37.51" class="38d2f__gridline" color="#000"/><g fill="none" stroke-linecap="round" stroke-linejoin="round" stroke-width="0" color="gray"><path d="M156.58 205v-7.5m0-159.99v7.5"/><text fill="#000" font-family="KaTeX_Main" font-size="8" text-anchor="middle" transform="translate(156.58 215.1)"><tspan> 4</tspan></text></g><path fill="none" stroke="#CCC" stroke-linecap="round" stroke-linejoin="round" stroke-width=".1" d="M191.31 205V37.51" class="38d2f__gridline" color="#000"/><g fill="none" stroke-linecap="round" stroke-linejoin="round" stroke-width="0" color="gray"><path d="M191.31 205v-7.5m0-159.99v7.5"/><text fill="#000" font-family="KaTeX_Main" font-size="8" text-anchor="middle" transform="translate(191.31 215.1)"><tspan> 5</tspan></text></g><path fill="none" stroke="#CCC" stroke-linecap="round" stroke-linejoin="round" stroke-width=".1" d="M226.05 205V37.51" class="38d2f__gridline" color="#000"/><g fill="none" stroke-linecap="round" stroke-linejoin="round" stroke-width="0" color="gray"><path d="M226.05 205v-7.5m0-159.99v7.5"/><text fill="#000" font-family="KaTeX_Main" font-size="8" text-anchor="middle" transform="translate(226.05 215.1)"><tspan> 6</tspan></text></g><path fill="none" stroke="#CCC" stroke-linecap="round" stroke-linejoin="round" stroke-width=".1" d="M260.78 205V37.51" class="38d2f__gridline" color="#000"/><g fill="none" stroke-linecap="round" stroke-linejoin="round" stroke-width="0" color="gray"><path d="M260.78 205v-7.5m0-159.99v7.5"/><text fill="#000" font-family="KaTeX_Main" font-size="8" text-anchor="middle" transform="translate(260.78 215.1)"><tspan> 7</tspan></text></g><path fill="none" stroke="#CCC" stroke-linecap="round" stroke-linejoin="round" stroke-width=".1" d="M295.52 205V37.51" class="38d2f__gridline" color="#000"/><g fill="none" stroke-linecap="round" stroke-linejoin="round" stroke-width="0" color="gray"><path d="M295.52 205v-7.5m0-159.99v7.5"/><text fill="#000" font-family="KaTeX_Main" font-size="8" text-anchor="middle" transform="translate(295.52 215.1)"><tspan> 8</tspan></text></g><path fill="none" stroke="#CCC" stroke-linecap="round" stroke-linejoin="round" stroke-width=".1" d="M330.25 205V37.51" class="38d2f__gridline" color="#000"/><g fill="none" stroke-linecap="round" stroke-linejoin="round" stroke-width="0" color="gray"><path d="M330.25 205v-7.5m0-159.99v7.5"/><text fill="#000" font-family="KaTeX_Main" font-size="8" text-anchor="middle" transform="translate(330.25 215.1)"><tspan> 9</tspan></text></g><path fill="none" stroke="#CCC" stroke-linecap="round" stroke-linejoin="round" stroke-width=".1" d="M364.99 205V37.51" class="38d2f__gridline" color="#000"/><g fill="none" stroke-linecap="round" stroke-linejoin="round" stroke-width="0" color="gray"><path d="M364.99 205v-7.5m0-159.99v7.5"/><text fill="#000" font-family="KaTeX_Main" font-size="8" text-anchor="middle" transform="translate(364.99 215.1)"><tspan> 10</tspan></text></g><g fill="none" stroke-linecap="round" stroke-linejoin="round" stroke-width="0" color="gray"><path d="M364.99 205h-7.5"/><text fill="#000" font-family="KaTeX_Main" font-size="8" transform="translate(371.99 207.6)"><tspan>1.00</tspan></text></g><g fill="none" stroke-linecap="round" stroke-linejoin="round" stroke-width="0" color="gray"><path d="M364.99 196.63h-7.5"/><text fill="#000" font-family="KaTeX_Main" font-size="8" transform="translate(371.99 199.23)"><tspan>1.01</tspan></text></g><g fill="none" stroke-linecap="round" stroke-linejoin="round" stroke-width="0" color="gray"><path d="M364.99 188.25h-7.5"/><text fill="#000" font-family="KaTeX_Main" font-size="8" transform="translate(371.99 190.85)"><tspan>1.02</tspan></text></g><g fill="none" stroke-linecap="round" stroke-linejoin="round" stroke-width="0" color="gray"><path d="M364.99 179.88h-7.5"/><text fill="#000" font-family="KaTeX_Main" font-size="8" transform="translate(371.99 182.48)"><tspan>1.03</tspan></text></g><g fill="none" stroke-linecap="round" stroke-linejoin="round" stroke-width="0" color="gray"><path d="M364.99 171.5h-7.5"/><text fill="#000" font-family="KaTeX_Main" font-size="8" transform="translate(371.99 174.1)"><tspan>1.04</tspan></text></g><g fill="none" stroke-linecap="round" stroke-linejoin="round" stroke-width="0" color="gray"><path d="M364.99 163.13h-7.5"/><text fill="#000" font-family="KaTeX_Main" font-size="8" transform="translate(371.99 165.73)"><tspan>1.05</tspan></text></g><g fill="none" stroke-linecap="round" stroke-linejoin="round" stroke-width="0" color="gray"><path d="M364.99 154.75h-7.5"/><text fill="#000" font-family="KaTeX_Main" font-size="8" transform="translate(371.99 157.35)"><tspan>1.06</tspan></text></g><g fill="none" stroke-linecap="round" stroke-linejoin="round" stroke-width="0" color="gray"><path d="M364.99 146.38h-7.5"/><text fill="#000" font-family="KaTeX_Main" font-size="8" transform="translate(371.99 148.98)"><tspan>1.07</tspan></text></g><g fill="none" stroke-linecap="round" stroke-linejoin="round" stroke-width="0" color="gray"><path d="M364.99 138h-7.5"/><text fill="#000" font-family="KaTeX_Main" font-size="8" transform="translate(371.99 140.6)"><tspan>1.08</tspan></text></g><g fill="none" stroke-linecap="round" stroke-linejoin="round" stroke-width="0" color="gray"><path d="M364.99 129.63h-7.5"/><text fill="#000" font-family="KaTeX_Main" font-size="8" transform="translate(371.99 132.23)"><tspan>1.09</tspan></text></g><g fill="none" stroke-linecap="round" stroke-linejoin="round" stroke-width="0" color="gray"><path d="M364.99 121.25h-7.5"/><text fill="#000" font-family="KaTeX_Main" font-size="8" transform="translate(371.99 123.85)"><tspan>1.10</tspan></text></g><g fill="none" stroke-linecap="round" stroke-linejoin="round" stroke-width="0" color="gray"><path d="M364.99 112.88h-7.5"/><text fill="#000" font-family="KaTeX_Main" font-size="8" transform="translate(371.99 115.48)"><tspan>1.11</tspan></text></g><g fill="none" stroke-linecap="round" stroke-linejoin="round" stroke-width="0" color="gray"><path d="M364.99 104.51h-7.5"/><text fill="#000" font-family="KaTeX_Main" font-size="8" transform="translate(371.99 107.11)"><tspan>1.12</tspan></text></g><g fill="none" stroke-linecap="round" stroke-linejoin="round" stroke-width="0" color="gray"><path d="M364.99 96.13h-7.5"/><text fill="#000" font-family="KaTeX_Main" font-size="8" transform="translate(371.99 98.73)"><tspan>1.13</tspan></text></g><g fill="none" stroke-linecap="round" stroke-linejoin="round" stroke-width="0" color="gray"><path d="M364.99 87.76h-7.5"/><text fill="#000" font-family="KaTeX_Main" font-size="8" transform="translate(371.99 90.36)"><tspan>1.14</tspan></text></g><g fill="none" stroke-linecap="round" stroke-linejoin="round" stroke-width="0" color="gray"><path d="M364.99 79.38h-7.5"/><text fill="#000" font-family="KaTeX_Main" font-size="8" transform="translate(371.99 81.98)"><tspan>1.15</tspan></text></g><g fill="none" stroke-linecap="round" stroke-linejoin="round" stroke-width="0" color="gray"><path d="M364.99 71.01h-7.5"/><text fill="#000" font-family="KaTeX_Main" font-size="8" transform="translate(371.99 73.61)"><tspan>1.16</tspan></text></g><g fill="none" stroke-linecap="round" stroke-linejoin="round" stroke-width="0" color="gray"><path d="M364.99 62.63h-7.5"/><text fill="#000" font-family="KaTeX_Main" font-size="8" transform="translate(371.99 65.23)"><tspan>1.17</tspan></text></g><g fill="none" stroke-linecap="round" stroke-linejoin="round" stroke-width="0" color="gray"><path d="M364.99 54.26h-7.5"/><text fill="#000" font-family="KaTeX_Main" font-size="8" transform="translate(371.99 56.86)"><tspan>1.18</tspan></text></g><g fill="none" stroke-linecap="round" stroke-linejoin="round" stroke-width="0" color="gray"><path d="M364.99 45.88h-7.5"/><text fill="#000" font-family="KaTeX_Main" font-size="8" transform="translate(371.99 48.48)"><tspan>1.19</tspan></text></g><g fill="none" stroke-linecap="round" stroke-linejoin="round" stroke-width="0" color="gray"><path d="M364.99 37.51h-7.5"/><text fill="#000" font-family="KaTeX_Main" font-size="8" transform="translate(371.99 40.11)"><tspan>1.20</tspan></text></g><path fill="none" d="M35 37.51V205M364.99 37.51H35" color="gray"/><text stroke-linecap="round" stroke-linejoin="round" stroke-width="0" color="gray" font-family="KaTeX_Main" font-size="10" text-anchor="middle" transform="rotate(-90 69.88 51.38)"><tspan font-weight="bold">Average Path Length</tspan><tspan> / log</tspan><tspan dy="3" font-size="8">2</tspan><tspan dy="-3">(Size = 1000)</tspan></text><text stroke-linecap="round" stroke-linejoin="round" stroke-width="0" color="#000" font-family="KaTeX_Main" font-size="10" text-anchor="middle" transform="translate(199.99 238.25)"><tspan>Random insertions and deletions / 10</tspan><tspan dy="-5" font-size="8">8</tspan></text><text stroke-linecap="round" stroke-linejoin="round" color="#000" font-family="KaTeX_Main" font-size="8" transform="translate(95.45 10.11)"><tspan>Hibbard</tspan></text><g fill="none" stroke="currentColor" stroke-linecap="round" stroke-linejoin="round" color="#000"><path stroke="#000" d="M59.95 7.51h29.9M35 119.26h5.58l.03-.01h6.8l.03-.01h6.8l.03-.01h6.77l.03-.01h6.8l.03-.01h6.8l.03-.01h6.77l.03-.01h6.8l.03-.01h6.8l.04-.01h6.79l.04-.01h6.76l.04-.01h6.79l.04-.01h6.8l.03-.01h6.76l.04-.01h6.8l.03-.01h6.8l.03-.01h6.8l.03-.01h6.77l.03-.01h6.8l.03-.01h6.8l.03-.01h6.8l.03-.01h6.77l.03-.01h6.8l.03-.01h6.8l.04-.01h6.76l.03-.01h6.8l.04-.01h6.79l.04-.01h6.8l.03-.01h6.76l.04-.01h6.8l.03-.01h6.8l.03-.01h6.77l.03-.01h6.8l.03-.01h6.8l.03-.01h6.8l.03-.01h6.77l.03-.01h6.8l.03-.01h6.8l.03-.01h6.77l.03-.01h6.8l.03-.01h6.8l.04-.01h6.79l.04-.01h6.76l.04-.01h6.79l.04-.01h6.8l.03-.01h6.76l.04-.01h6.8l.03-.01h6.8l.03-.01h3.73"/><use xlink:href="#38d2f__c" transform="matrix(3.75 0 0 3.75 35 119.26)"/><use xlink:href="#38d2f__c" transform="matrix(3.75 0 0 3.75 364.99 118.78)"/><use xlink:href="#38d2f__c" transform="matrix(3.75 0 0 3.75 74.9 7.51)"/></g><text stroke-linecap="round" stroke-linejoin="round" color="#000" font-family="KaTeX_Main" font-size="8" transform="translate(95.45 25.11)"><tspan>Knuth</tspan></text><g fill="none" stroke="currentColor" stroke-linecap="round" stroke-linejoin="round" color="#000"><path stroke="#9F650D" stroke-dasharray="1.0,2.0" d="M59.95 22.51h29.9M35 133.31h.33l.03-.01h3.57l.03-.01h3.53l.03-.01h3.54l.03-.01h3.53l.03-.01h3.57l.03-.01h3.53l.03-.01h3.54l.03-.01h3.56l.04-.01h3.53l.03-.01h3.53l.03-.01h3.54l.03-.01h3.56l.04-.01h3.53l.03-.01h3.53l.03-.01h3.54l.03-.01h3.56l.04-.01h3.53l.03-.01h3.53l.03-.01h3.54l.03-.01h3.56l.04-.01h3.53l.03-.01h3.53l.03-.01h3.54l.03-.01h3.56l.04-.01h3.53l.03-.01h3.53l.03-.01h3.57l.03-.01h3.53l.04-.01h3.53l.03-.01h3.53l.03-.01h3.57l.03-.01h3.53l.04-.01h3.53l.03-.01h3.53l.03-.01h3.57l.03-.01h3.53l.04-.01h3.53l.03-.01h3.53l.03-.01h3.57l.03-.01h3.53l.04-.01h3.53l.03-.01h3.53l.03-.01h3.57l.03-.01h3.53l.04-.01h3.53l.03-.01h3.53l.03-.01h3.57l.03-.01h3.53l.04-.01h3.53l.03-.01H214l.04-.01h3.53l.03-.01h3.53l.04-.01h3.53l.03-.01h3.56l.04-.01h3.53l.03-.01h3.53l.04-.01h3.53l.03-.01h3.56l.04-.01h3.53l.03-.01h3.53l.04-.01h3.53l.03-.01h3.56l.04-.01h3.53l.03-.01H264l.04-.01h3.53l.03-.01h3.56l.04-.01h3.53l.03-.01h3.53l.04-.01h3.56l.03-.01h3.53l.04-.01h3.53l.03-.01h3.53l.04-.01h3.56l.03-.01h3.53l.04-.01h3.53l.03-.01h3.53l.04-.01h3.56l.03-.01h3.53l.04-.01h3.53l.03-.01h3.53l.04-.01h3.56l.03-.01h3.53l.04-.01h3.53l.03-.01h3.53l.04-.01h3.56l.03-.01h3.53l.04-.01h3.53l.03-.01h3.57l.03-.01h3.53l.03-.01h3.53l.04-.01h3.53l.03-.01h3.57l.03-.01h.89"/><use xlink:href="#38d2f__d" color="#9F650D" transform="matrix(3.75 0 0 3.75 90.01 133.15)"/><use xlink:href="#38d2f__d" color="#9F650D" transform="matrix(3.75 0 0 3.75 74.9 22.51)"/></g><text stroke-linecap="round" stroke-linejoin="round" color="#000" font-family="KaTeX_Main" font-size="8" transform="translate(192.55 10.11)"><tspan>Randomized</tspan></text><g fill="none" stroke="currentColor" stroke-linecap="round" stroke-linejoin="round" color="#000"><path stroke="#2962FF" d="M157.05 7.51h29.9M35 155.37h2.64l.03-.01h2.64l.04-.01h2.64l.03-.01h2.64l.03-.01h2.64l.04-.01h2.64l.03-.01h2.67l.04-.01h2.64l.03-.01h2.64l.03-.01h2.64l.03-.01h2.65l.03-.01h2.64l.03-.01h2.64l.03-.01h2.64l.04-.01h2.67l.03-.01h2.64l.04-.01h2.64l.03-.01h2.64l.03-.01h2.64l.04-.01h2.64l.03-.01h2.64l.03-.01h2.64l.04-.01h2.67l.03-.01h2.64l.04-.01h2.64l.03-.01h2.64l.03-.01h2.64l.04-.01h2.64l.03-.01h2.64l.03-.01h2.64l.03-.01h2.68l.03-.01h2.64l.03-.01h2.64l.04-.01h2.64l.03-.01h2.64l.03-.01h2.64l.04-.01h2.64l.03-.01h2.64l.03-.01h2.64l.04-.01h2.67l.03-.01h2.64l.04-.01h2.64l.03-.01h2.64l.03-.01h2.64l.04-.01h2.64l.03-.01h2.64l.03-.01h2.64l.03-.01h2.68l.03-.01h2.64l.03-.01h2.64l.04-.01h2.64l.03-.01h2.64l.03-.01h2.64l.04-.01h2.64l.03-.01h2.64l.03-.01h2.68l.03-.01h2.64l.03-.01h2.64l.04-.01h2.64l.03-.01h2.64l.03-.01h2.64l.04-.01h2.64l.03-.01h2.64l.03-.01h2.67l.04-.01h2.64l.03-.01h2.64l.03-.01h2.64l.04-.01h2.64l.03-.01h2.64l.03-.01h2.64l.04-.01h2.64l.03-.01h2.67l.04-.01h2.64l.03-.01h2.64l.03-.01h2.64l.04-.01h2.64l.03-.01h2.64l.03-.01h2.64l.04-.01h2.64l.03-.01h2.64l.03-.01h2.68l.03-.01h2.64l.03-.01h2.64l.03-.01h2.64l.04-.01h2.64l.03-.01h2.64l.03-.01h2.64l.04-.01h2.64l.03-.01h2.67l.04-.01h2.64l.03-.01h2.64l.03-.01h2.64l.04-.01h2.64l.03-.01h2.64l.03-.01h2.64l.04-.01h2.64l.03-.01h2.67l.04-.01h2.64l.03-.01h2.64l.03-.01h2.64l.03-.01h2.64l.04-.01h2.64l.03-.01h2.64l.03-.01h2.64l.04-.01h2.67l.03-.01h2.64l.04-.01h2.64l.03-.01h2.64l.03-.01h2.64l.04-.01h2.64l.03-.01h2.64l.03-.01h2.64l.04-.01h2.67l.03-.01h2.64l.04-.01h2.64l.03-.01h2.64l.03-.01h2.64l.03-.01h2.65l.03-.01h2.64l.03-.01h2.64l.03-.01h2.64l.04-.01h2.67l.03-.01h2.64l.04-.01h.69"/><use xlink:href="#38d2f__e" color="#2962FF" transform="matrix(3.75 0 0 3.75 145.03 154.96)"/><use xlink:href="#38d2f__e" color="#2962FF" transform="matrix(3.75 0 0 3.75 172 7.51)"/></g><text stroke-linecap="round" stroke-linejoin="round" color="#000" font-family="KaTeX_Main" font-size="8" transform="translate(192.55 25.11)"><tspan>Symmetric</tspan></text><g fill="none" stroke="currentColor" stroke-linecap="round" stroke-linejoin="round" color="#000"><path stroke="#29C3F6" stroke-dasharray="4.5,2.0,0.5,2.0,0.5,2.0" d="M157.05 22.51h29.9M35 135.7h.83l.03-.01h3.17l.03-.01h3.2l.03-.01h3.17l.03-.01h3.17l.04-.01h3.2l.03-.01h3.17l.03-.01h3.2l.04-.01h3.16l.04-.01h3.2l.03-.01h3.17l.03-.01h3.2l.04-.01h3.16l.04-.01h3.2l.03-.01h3.17l.03-.01h3.17l.03-.01h3.21l.03-.01h3.17l.03-.01h3.2l.03-.01h3.17l.04-.01h3.2l.03-.01h3.17l.03-.01h3.2l.03-.01h3.17l.04-.01h3.2l.03-.01h3.17l.03-.01h3.2l.04-.01h3.16l.04-.01h3.17l.03-.01h3.2l.03-.01h3.17l.03-.01h3.21l.03-.01h3.17l.03-.01h3.2l.03-.01h3.17l.03-.01h3.21l.03-.01h3.17l.03-.01h3.2l.03-.01h3.17l.04-.01h3.16l.04-.01h3.2l.03-.01h3.17l.03-.01h3.2l.04-.01h3.16l.04-.01h3.2l.03-.01h3.17l.03-.01h3.2l.04-.01h3.17l.03-.01h3.2l.03-.01h3.17l.03-.01h3.17l.04-.01h3.2l.03-.01h3.17l.03-.01h3.2l.03-.01h3.17l.04-.01h3.2l.03-.01h3.17l.03-.01h3.2l.04-.01h3.16l.04-.01h3.2l.03-.01h3.17l.03-.01h3.2l.04-.01h3.16l.04-.01h3.17l.03-.01h3.2l.03-.01h3.17l.03-.01h3.21l.03-.01h3.17l.03-.01h3.2l.03-.01h3.17l.04-.01h3.2l.03-.01h3.17l.03-.01h3.2l.04-.01h3.16l.04-.01h3.16l.04-.01h3.2l.03-.01h3.17l.03-.01h3.2l.04-.01h3.17l.03-.01h3.2l.03-.01h3.17l.03-.01h3.21l.03-.01h3.17l.03-.01h3.2l.03-.01h3.17l.03-.01h3.17l.04-.01h3.2l.03-.01h3.17l.03-.01h3.2l.04-.01h3.16l.04-.01h3.2l.03-.01h3.17l.03-.01h3.2l.04-.01h3.16l.04-.01h3.2l.03-.01h3.17l.03-.01h3.2l.04-.01h3.17l.03-.01H351l.03-.01h3.2l.03-.01h3.17l.04-.01h3.2l.03-.01h3.17l.03-.01h1.09"/><use xlink:href="#38d2f__f" color="#29C3F6" transform="matrix(3.75 0 0 3.75 200.04 135.18)"/><use xlink:href="#38d2f__f" color="#29C3F6" transform="matrix(3.75 0 0 3.75 172 22.51)"/></g><text stroke-linecap="round" stroke-linejoin="round" color="#000" font-family="KaTeX_Main" font-size="8" transform="translate(289.65 10.11)"><tspan>Smaller</tspan></text><g fill="none" stroke="currentColor" stroke-linecap="round" stroke-linejoin="round" color="#000"><path stroke="#FFAB00" d="M254.15 7.51h29.9M35 74.23h5.25l.03-.01h8.48l.03-.01h8.52l.03-.01h8.52l.03-.01h8.51l.04-.01h8.48l.03-.01h8.52l.03-.01h8.51l.04-.01h8.48l.03-.01h8.52l.03-.01h8.51l.04-.01h8.48l.03-.01h8.52l.03-.01h8.51l.04-.01h8.48l.03-.01h8.52l.03-.01h8.51l.04-.01h8.48l.03-.01h8.52l.03-.01h8.51l.04-.01H211l.03-.01h8.49l.03-.01h8.51l.04-.01h8.51l.03-.01h8.49l.03-.01h8.51l.04-.01h8.51l.03-.01h8.49l.03-.01h8.51l.04-.01h8.51l.03-.01h8.49l.03-.01h8.51l.04-.01h8.51l.03-.01h8.49l.03-.01h8.51l.04-.01h8.51l.03-.01h8.48l.04-.01h8.51l.04-.01h8.51l.03-.01h.3"/><use xlink:href="#38d2f__a" color="#FFAB00" transform="matrix(3.75 0 0 3.75 255.06 73.97)"/><use xlink:href="#38d2f__a" color="#FFAB00" transform="matrix(3.75 0 0 3.75 269.1 7.51)"/></g><text stroke-linecap="round" stroke-linejoin="round" color="#000" font-family="KaTeX_Main" font-size="8" transform="translate(289.65 25.11)"><tspan>Larger</tspan></text><g fill="none" stroke="currentColor" stroke-linecap="round" stroke-linejoin="round" color="#000"><path stroke="#EC6F1A" stroke-dasharray="4.0,2.0,1.0,2.0" d="M254.15 22.51h29.9M35 190.87h1.22l.03-.01h2.84l.04-.01H42l.03-.01h2.87l.03-.01h2.84l.03-.01h2.88l.03-.01h2.87l.03-.01h2.84l.03-.01h2.88l.03-.01h2.84l.03-.01h2.87l.03-.01h2.88l.03-.01h2.84l.03-.01h2.87l.03-.01h2.87l.04-.01h2.84l.03-.01h2.87l.03-.01h2.87l.04-.01h2.84l.03-.01h2.87l.03-.01h2.87l.04-.01h2.84l.03-.01h2.87l.03-.01h2.87l.04-.01h2.83l.04-.01h2.87l.03-.01h2.87l.04-.01h2.83l.04-.01h2.87l.03-.01h2.87l.04-.01h2.83l.04-.01h2.87l.03-.01h2.87l.04-.01h2.83l.04-.01h2.87l.03-.01h2.87l.04-.01h2.83l.04-.01h2.87l.03-.01h2.87l.03-.01h2.84l.04-.01h2.87l.03-.01h2.87l.03-.01h2.84l.04-.01h2.87l.03-.01h2.84l.03-.01h2.87l.04-.01h2.87l.03-.01h2.84l.03-.01h2.87l.03-.01h2.88l.03-.01h2.84l.03-.01h2.87l.03-.01h2.88l.03-.01h2.84l.03-.01h2.87l.03-.01h2.88l.03-.01h2.84l.03-.01h2.87l.03-.01H204l.04-.01h2.84l.03-.01h2.87l.03-.01h2.87l.04-.01h2.84l.03-.01h2.87l.03-.01h2.87l.04-.01h2.84l.03-.01h2.87l.03-.01h2.87l.04-.01h2.83l.04-.01h2.87l.03-.01h2.87l.04-.01h2.83l.04-.01h2.87l.03-.01h2.87l.04-.01h2.83l.04-.01h2.87l.03-.01h2.84l.03-.01h2.87l.04-.01h2.87l.03-.01h2.84l.03-.01h2.87l.04-.01h2.87l.03-.01h2.84l.03-.01h2.87l.04-.01h2.87l.03-.01h2.84l.03-.01h2.87l.04-.01h2.87l.03-.01h2.84l.03-.01h2.87l.04-.01h2.87l.03-.01h2.84l.03-.01h2.87l.03-.01h2.88l.03-.01h2.84l.03-.01h2.87l.03-.01h2.88l.03-.01h2.84l.03-.01h2.87l.03-.01h2.88l.03-.01h2.84l.03-.01h2.87l.03-.01h2.87l.04-.01h2.84l.03-.01h2.87l.03-.01h2.87l.04-.01h2.84l.03-.01h2.87l.03-.01h2.87l.04-.01h2.84l.03-.01h2.87l.03-.01h2.84l.03-.01h2.87l.04-.01h2.87l.03-.01h1.85"/><use xlink:href="#38d2f__g" color="#EC6F1A" transform="matrix(3.75 0 0 3.75 310.07 189.92)"/><use xlink:href="#38d2f__g" color="#EC6F1A" transform="matrix(3.75 0 0 3.75 269.1 22.51)"/></g><path fill="none" d="M35 37.51V205M364.99 37.51H35" color="gray"/></svg>