<svg xmlns="http://www.w3.org/2000/svg" xmlns:xlink="http://www.w3.org/1999/xlink" viewBox="0 0 400 200"><path fill="none" d="M0 0h400v200H0z"/><defs><use xlink:href="#2c545__a" id="2c545__d" fill="currentColor" stroke="none"/><use xlink:href="#2c545__b" id="2c545__c" stroke="currentColor" transform="rotate(180)"/><circle id="2c545__a" cx="0" cy="0" r="1" stroke="currentColor" stroke-width=".267"/><path id="2c545__b" stroke="currentColor" stroke-width=".267" d="m0-1.33-1.33 2h2.66z"/></defs><path fill="none" stroke="#CCC" stroke-linecap="round" stroke-linejoin="round" stroke-width=".1" d="M46.1 162.5V45.01" class="2c545__gridline" color="#000"/><g fill="none" stroke-linecap="round" stroke-linejoin="round" stroke-width="0" color="#000"><path d="M46.1 162.5V155m0-109.99v7.5"/><text fill="#000" font-family="KaTeX_Main" font-size="8" text-anchor="middle" transform="translate(46.1 172.6)"><tspan> 1</tspan></text></g><path fill="none" stroke="#CCC" stroke-linecap="round" stroke-linejoin="round" stroke-width=".1" d="M82.31 162.5V45.01" class="2c545__gridline" color="#000"/><g fill="none" stroke-linecap="round" stroke-linejoin="round" stroke-width="0" color="#000"><path d="M82.31 162.5V155m0-109.99v7.5"/><text fill="#000" font-family="KaTeX_Main" font-size="8" text-anchor="middle" transform="translate(82.31 172.6)"><tspan> 2</tspan></text></g><path fill="none" stroke="#CCC" stroke-linecap="round" stroke-linejoin="round" stroke-width=".1" d="M118.52 162.5V45.01" class="2c545__gridline" color="#000"/><g fill="none" stroke-linecap="round" stroke-linejoin="round" stroke-width="0" color="#000"><path d="M118.52 162.5V155m0-109.99v7.5"/><text fill="#000" font-family="KaTeX_Main" font-size="8" text-anchor="middle" transform="translate(118.52 172.6)"><tspan> 3</tspan></text></g><path fill="none" stroke="#CCC" stroke-linecap="round" stroke-linejoin="round" stroke-width=".1" d="M154.73 162.5V45.01" class="2c545__gridline" color="#000"/><g fill="none" stroke-linecap="round" stroke-linejoin="round" stroke-width="0" color="#000"><path d="M154.73 162.5V155m0-109.99v7.5"/><text fill="#000" font-family="KaTeX_Main" font-size="8" text-anchor="middle" transform="translate(154.73 172.6)"><tspan> 4</tspan></text></g><path fill="none" stroke="#CCC" stroke-linecap="round" stroke-linejoin="round" stroke-width=".1" d="M190.94 162.5V45.01" class="2c545__gridline" color="#000"/><g fill="none" stroke-linecap="round" stroke-linejoin="round" stroke-width="0" color="#000"><path d="M190.94 162.5V155m0-109.99v7.5"/><text fill="#000" font-family="KaTeX_Main" font-size="8" text-anchor="middle" transform="translate(190.94 172.6)"><tspan> 5</tspan></text></g><path fill="none" stroke="#CCC" stroke-linecap="round" stroke-linejoin="round" stroke-width=".1" d="M227.15 162.5V45.01" class="2c545__gridline" color="#000"/><g fill="none" stroke-linecap="round" stroke-linejoin="round" stroke-width="0" color="#000"><path d="M227.15 162.5V155m0-109.99v7.5"/><text fill="#000" font-family="KaTeX_Main" font-size="8" text-anchor="middle" transform="translate(227.15 172.6)"><tspan> 6</tspan></text></g><path fill="none" stroke="#CCC" stroke-linecap="round" stroke-linejoin="round" stroke-width=".1" d="M263.36 162.5V45.01" class="2c545__gridline" color="#000"/><g fill="none" stroke-linecap="round" stroke-linejoin="round" stroke-width="0" color="#000"><path d="M263.36 162.5V155m0-109.99v7.5"/><text fill="#000" font-family="KaTeX_Main" font-size="8" text-anchor="middle" transform="translate(263.36 172.6)"><tspan> 7</tspan></text></g><path fill="none" stroke="#CCC" stroke-linecap="round" stroke-linejoin="round" stroke-width=".1" d="M299.57 162.5V45.01" class="2c545__gridline" color="#000"/><g fill="none" stroke-linecap="round" stroke-linejoin="round" stroke-width="0" color="#000"><path d="M299.57 162.5V155m0-109.99v7.5"/><text fill="#000" font-family="KaTeX_Main" font-size="8" text-anchor="middle" transform="translate(299.57 172.6)"><tspan> 8</tspan></text></g><path fill="none" stroke="#CCC" stroke-linecap="round" stroke-linejoin="round" stroke-width=".1" d="M335.78 162.5V45.01" class="2c545__gridline" color="#000"/><g fill="none" stroke-linecap="round" stroke-linejoin="round" stroke-width="0" color="#000"><path d="M335.78 162.5V155m0-109.99v7.5"/><text fill="#000" font-family="KaTeX_Main" font-size="8" text-anchor="middle" transform="translate(335.78 172.6)"><tspan> 9</tspan></text></g><path fill="none" stroke="#CCC" stroke-linecap="round" stroke-linejoin="round" stroke-width=".1" d="M371.99 162.5V45.01" class="2c545__gridline" color="#000"/><g fill="none" stroke-linecap="round" stroke-linejoin="round" stroke-width="0" color="#000"><path d="M371.99 162.5V155m0-109.99v7.5"/><text fill="#000" font-family="KaTeX_Main" font-size="8" text-anchor="middle" transform="translate(371.99 172.6)"><tspan> 10</tspan></text></g><g fill="none" stroke-linecap="round" stroke-linejoin="round" stroke-width="0" color="#000"><path d="M371.99 162.5h-7.5"/><text fill="#000" font-family="KaTeX_Main" font-size="8" transform="translate(378.99 165.1)"><tspan>1.00</tspan></text></g><g fill="none" stroke-linecap="round" stroke-linejoin="round" stroke-width="0" color="#000"><path d="M371.99 147.81h-7.5"/><text fill="#000" font-family="KaTeX_Main" font-size="8" transform="translate(378.99 150.41)"><tspan>1.10</tspan></text></g><g fill="none" stroke-linecap="round" stroke-linejoin="round" stroke-width="0" color="#000"><path d="M371.99 133.13h-7.5"/><text fill="#000" font-family="KaTeX_Main" font-size="8" transform="translate(378.99 135.73)"><tspan>1.20</tspan></text></g><g fill="none" stroke-linecap="round" stroke-linejoin="round" stroke-width="0" color="#000"><path d="M371.99 118.44h-7.5"/><text fill="#000" font-family="KaTeX_Main" font-size="8" transform="translate(378.99 121.04)"><tspan>1.30</tspan></text></g><g fill="none" stroke-linecap="round" stroke-linejoin="round" stroke-width="0" color="#000"><path d="M371.99 103.75h-7.5"/><text fill="#000" font-family="KaTeX_Main" font-size="8" transform="translate(378.99 106.35)"><tspan>1.40</tspan></text></g><g fill="none" stroke-linecap="round" stroke-linejoin="round" stroke-width="0" color="#000"><path d="M371.99 89.07h-7.5"/><text fill="#000" font-family="KaTeX_Main" font-size="8" transform="translate(378.99 91.67)"><tspan>1.50</tspan></text></g><g fill="none" stroke-linecap="round" stroke-linejoin="round" stroke-width="0" color="#000"><path d="M371.99 74.38h-7.5"/><text fill="#000" font-family="KaTeX_Main" font-size="8" transform="translate(378.99 76.98)"><tspan>1.60</tspan></text></g><g fill="none" stroke-linecap="round" stroke-linejoin="round" stroke-width="0" color="#000"><path d="M371.99 59.7h-7.5"/><text fill="#000" font-family="KaTeX_Main" font-size="8" transform="translate(378.99 62.3)"><tspan>1.70</tspan></text></g><g fill="none" stroke-linecap="round" stroke-linejoin="round" stroke-width="0" color="#000"><path d="M371.99 45.01h-7.5"/><text fill="#000" font-family="KaTeX_Main" font-size="8" transform="translate(378.99 47.61)"><tspan>1.80</tspan></text></g><path fill="none" d="M28 45.01V162.5M371.99 45.01H28" color="#000"/><text stroke-linecap="round" stroke-linejoin="round" stroke-width="0" color="#000" font-family="KaTeX_Main" font-size="10" text-anchor="middle" transform="rotate(-90 57.63 46.13)"><tspan font-weight="bold">Allocations </tspan><tspan> / log</tspan><tspan dy="3" font-size="8">2</tspan><tspan dy="-3">(Size)</tspan></text><text stroke-linecap="round" stroke-linejoin="round" stroke-width="0" color="#000" font-family="KaTeX_Main" font-size="10" text-anchor="middle" transform="translate(199.99 195.75)"><tspan>Operations / 10</tspan><tspan dy="-5" font-size="8">6</tspan></text><text stroke-linecap="round" stroke-linejoin="round" color="#000" font-family="KaTeX_Main" font-size="8" transform="translate(71.2 10.11)"><tspan>RedBlackBottomUp</tspan></text><g fill="none" stroke="currentColor" stroke-linecap="round" stroke-linejoin="round" color="#000"><path stroke="#F44336" d="M35.7 7.51h29.9M28 138.42l.36-.05.36-.07.37-.08.36-.09.36-.09.36-.1.36-.1.37-.09.36-.08.36-.07.36-.07.37-.05.36-.05.36-.04.36-.02.36-.02.37-.01.36-.01h.72l.36.01.37.01.36.01h.36l.36.01.36.01.37.01h1.08l.36-.01.37-.01.36-.02.36-.02.36-.02.37-.03.36-.03.36-.04.36-.04.36-.04.37-.04.36-.05.36-.04.36-.04.36-.04.37-.05.36-.04.36-.04.36-.05.36-.04.37-.05.36-.04.36-.05.36-.06.37-.05.36-.05.36-.06.36-.06.36-.06.37-.05.36-.06.36-.05.36-.05.36-.04.37-.03.36-.03.36-.03.36-.01.36-.01h.37l.36.01.36.01.36.02.37.03.36.03.36.03.36.04.36.03.37.04.36.04.36.03.36.03.36.03.37.02.36.02.36.02.36.01h.73l.36-.01.36-.01.36-.02.36-.02.37-.02.36-.03.36-.03.36-.04.37-.03.36-.04.36-.04.36-.04.36-.04.37-.05.36-.04.36-.05.36-.05.36-.05.37-.05.36-.05.36-.06.36-.05.36-.06.37-.06.36-.06.36-.06.36-.06.37-.06.36-.06.36-.06.36-.05.36-.05.37-.05.36-.03.36-.04.36-.02.36-.02.37-.01h.72l.36.02.36.02.37.03.36.03.36.04.36.05.36.05.37.05.36.06.36.06.36.06.37.06.36.06.36.05.36.06.36.05.37.05.36.04.36.04.36.04.36.03.37.03.36.02.36.02.36.01.36.01.37.01h.72l.36-.01.37-.01.36-.02.36-.01.36-.02.36-.02.37-.02.36-.03.36-.02.36-.03.36-.02.37-.03.36-.02.36-.03.36-.02.36-.02.37-.02.36-.01.36-.02.36-.01h.36l.37-.01h.72l.36.01.37.01.36.01.36.02.36.02.36.02.37.03.36.03.36.03.36.04.36.04.37.05.36.04.36.06.36.05.36.06.37.06.36.07.36.06.36.08.37.07.36.08.36.08.36.09.36.09.37.09.36.1.36.09.36.1.36.1.37.11.36.1.36.1.36.11.36.11.37.1.36.11.36.1.36.1.37.11.36.1.36.1.36.09.36.1.37.09.36.08.36.09.36.08.36.08.37.07.36.06.36.07.36.05.36.05.37.05.36.04.36.03.36.03.36.02.37.01h.72l.36-.01.37-.02.36-.02.36-.04.36-.04.36-.04.37-.06.36-.05.36-.07.36-.07.36-.07.37-.08.36-.09.36-.08.36-.09.36-.1.37-.09.36-.1.36-.09.36-.1.37-.09.36-.1.36-.09.36-.09.36-.1.37-.08.36-.09.36-.08.36-.09.36-.07.37-.08.36-.07.36-.07.36-.07.36-.07.37-.06.36-.06.36-.05.36-.06.36-.05.37-.05.36-.04.36-.05.36-.04.37-.04.36-.03.36-.04.36-.03.36-.03.37-.02.36-.03.36-.02.36-.01.36-.02.37-.01.36-.01h1.45l.36.01.36.01.36.01.37.02.36.01.36.02.36.03.36.02.37.03.36.02.36.03.36.03.36.03.37.03.36.03.36.03.36.03.36.02.37.03.36.03.36.02.36.02.36.02.37.02.36.02.36.01.36.01.37.01h1.44l.37-.01.36-.01.36-.01.36-.01.36-.02.37-.01.36-.02.36-.02.36-.02.36-.03.37-.02.36-.03.36-.02.36-.03.37-.02.36-.03.36-.03.36-.03.36-.03.37-.03.36-.03.36-.03.36-.03.36-.03.37-.04.36-.03.36-.03.36-.04.36-.03.37-.04.36-.03.36-.03.36-.04.37-.03.36-.04.36-.03.36-.03.36-.03.37-.03.36-.03.36-.02.36-.02.36-.02.37-.01.36-.01.36-.01.36-.01h.73l.36.01.36.01.36.01.36.02.37.02.36.02.36.02.36.03.37.03.36.02.36.03.36.03.36.03.37.03.36.02.36.03.36.02.36.02.37.02.36.01.36.02.36.01h1.45l.36-.01.37-.01.36-.02.36-.02.36-.02.36-.02.37-.03.36-.03.36-.03.36-.03.36-.03.37-.04.36-.03.36-.04.36-.04.36-.03.37-.04.36-.03.36-.04.36-.03.36-.03.37-.03.36-.02.36-.03.36-.02.37-.02.36-.02.36-.01.36-.01.36-.01.37-.01h.72l.36.01h.36l.37.01.36.01.36.01.36.02.36.02.37.02.36.02.36.02.36.03.37.02.36.03.36.03.36.02.36.03.37.02.36.03.36.02.36.02.36.03.37.01.36.02.36.02.36.01.36.01h.37l.36.01h.72l.37-.01.36-.01.36-.01.36-.01.36-.02.37-.02.36-.02.36-.03.36-.02.36-.03.37-.03.36-.03.36-.04.36-.03.36-.03.37-.03.36-.04.36-.03.36-.03.36-.03.37-.03.36-.03.36-.02.36-.03.37-.02.36-.02.36-.02.36-.02.36-.02.37-.01.36-.01.36-.01.36-.01.36-.01h.37l.36-.01h1.81l.36.01h.73l.36.01h.36l.36.01.36.01h.37l.36.01.36.01.36.01h.36l.37.01.36.01.36.01.36.01h.36l.37.01.36.01h.36l.36.01h1.81l.37-.01h.36l.36-.01.36-.01.36-.02.37-.01.36-.02.36-.03.36-.02.36-.03.37-.03.36-.03.36-.03.36-.03.36-.04.37-.04.36-.03.36-.04.36-.04.37-.04.36-.03.36-.03.36-.03.36-.03.37-.03.36-.02.36-.01.36-.02h.36l.37-.01.36.01h.36l.36.02.36.01.37.03.36.03.36.03.36.04.36.04.37.05.36.05.36.05.36.05.37.06.36.06.36.06.36.05.36.06.37.06.36.05.36.05.36.05.36.05.37.04.36.04.36.03.36.03.36.02.37.02.36.01.36.01h.36l.37-.01.36-.01.36-.02.36-.02.36-.02.37-.04.36-.03.36-.04.36-.04.36-.05.37-.04.36-.05.36-.05.36-.05.36-.05.37-.05.36-.05.36-.05.36-.04.37-.04.36-.04.36-.03.36-.03.36-.02.37-.02.36-.01.36-.01h.72l.37.01.36.02.36.02.36.02.36.03.37.03.36.04.36.04.36.04.36.05.37.05.36.05.36.06.36.05.37.06.36.05.36.06.36.06.36.05.37.06.36.05.36.05.36.05.36.05.37.04.36.05.36.03.36.04.36.03.37.03.36.02.36.02.36.02.37.01.36.01h.72l.36-.01.37-.01.36-.01.36-.02.36-.02.36-.03.37-.03.36-.03.36-.04.36-.04.36-.04.37-.05.36-.04.36-.05.36-.06.36-.05.37-.06.36-.05.36-.06.36-.06.37-.07.36-.06.36-.07.36-.06.36-.07.37-.07.36-.07.36-.07.36-.08.36-.07.37-.08.36-.07.36-.08.36-.08.36-.08.37-.08.36-.08.36-.08.36-.08.37-.08.36-.08.36-.08.36-.08.36-.07.37-.08.36-.07.36-.07.36-.07.36-.07.37-.06.36-.06.36-.06.36-.06.36-.06.37-.05.36-.06.36-.05.36-.06.36-.05.37-.06.36-.05.36-.06.36-.06.37-.06.36-.06.36-.06.36-.06.36-.05.37-.06.36-.06.36-.05.36-.05.36-.05.37-.03.36-.04.36-.02.36-.01.36-.01.37.01.36.02.36.03.36.04.37.06.36.06.36.08.36.09.36.09.37.11.36.11.36.12.36.12.36.12.37.12.36.12.36.12.36.11.36.1.37.09.36.08.36.07.36.06.37.04.36.03.36.02h.36l.36-.01.37-.02.36-.03.36-.04.36-.05.36-.06.37-.06.36-.06.36-.07.36-.06.36-.06.37-.06.36-.05.36-.05.36-.04.36-.04.37-.03.36-.02.36-.02.36-.01.37-.01h1.08l.36.01h.73l.36-.01.36-.01.36-.01.37-.02.36-.03.36-.03.36-.04.36-.05.37-.05.36-.06.36-.05.36-.06.37-.06.36-.06.36-.05.36-.05.36-.04.37-.03.36-.02h.72l.36.03.37.04.36.05.36.07.36.09.36.1.37.12.36.12.36.14.36.14.36.15.37.16.36.15.36.16.36.16.37.15.36.14.36.14.36.13.36.13.37.11.36.1.36.09.36.09.36.07.37.06.36.05.36.04.36.03.36.02.37.02h.36l.36-.01.36-.01.37-.02.36-.02.36-.04.36-.04.36-.04.37-.05.36-.05.36-.05.36-.05.36-.05.37-.05.36-.04.36-.04.36-.02.36-.02.37-.01.36.01.36.02.36.04.36.05.37.07.36.08.36.09.36.1.37.11.36.1.36.1.36.1.36.08.37.06.36.04.36.02.36-.01.36-.03.37-.05.36-.08.36-.1.36-.11.36-.12.37-.13.36-.12.36-.11.36-.1.37-.07.36-.05.36-.02.36.01.36.03.37.07.36.08.36.1.36.11.36.11.37.11.36.1.36.07.36.05.36.01.37-.02.36-.05.36-.1.36-.14.37-.17.36-.2.36-.21.36-.21.36-.2.37-.16.36-.11.36-.04.36.03.36.09.37.16.36.18.36.17.36.12.36.03.37-.07.36-.18.36-.27.36-.3.36-.28.37-.19.36-.05.36.11.36.29.37.4.36.43.36.34.36.22.36.21.37.53.36 1.33.36 2.98"/><use xlink:href="#2c545__b" color="#F44336" transform="matrix(3.75 0 0 3.75 353.89 134.5)"/><use xlink:href="#2c545__b" color="#F44336" transform="matrix(3.75 0 0 3.75 50.65 7.51)"/></g><text stroke-linecap="round" stroke-linejoin="round" color="#000" font-family="KaTeX_Main" font-size="8" transform="translate(71.2 25.11)"><tspan>RedBlackTopDown</tspan></text><g fill="none" stroke="currentColor" stroke-linecap="round" stroke-linejoin="round" color="#000"><path stroke="#3B75EA" d="M35.7 22.51h29.9M28 147.37l.36.01.36-.01.37-.02.36-.03.36-.05.36-.05.36-.06.37-.06.36-.07.36-.07.36-.08.37-.08.36-.07.36-.07.36-.06.36-.05.37-.05.36-.02.36-.02h.36l.36.02.37.03.36.04.36.06.36.06.36.07.37.07.36.08.36.07.36.08.36.07.37.08.36.06.36.07.36.06.37.07.36.05.36.06.36.06.36.05.37.05.36.04.36.04.36.03.36.03.37.01.36.01.36-.01.36-.02.36-.04.37-.04.36-.06.36-.06.36-.08.37-.08.36-.08.36-.09.36-.08.36-.08.37-.08.36-.07.36-.06.36-.06.36-.04.37-.04.36-.03.36-.02.36-.01.36-.01h.73l.36.01h.36l.37.01.36.01h1.08l.37-.01.36-.01.36-.01.36-.02.36-.02.37-.03.36-.03.36-.04.36-.04.36-.05.37-.05.36-.05.36-.05.36-.06.36-.06.37-.06.36-.06.36-.06.36-.06.37-.06.36-.05.36-.04.36-.04.36-.03.37-.03.36-.02.36-.01h.72l.37.01.36.02.36.02.36.03.36.03.37.03.36.04.36.03.36.04.37.04.36.03.36.04.36.03.36.03.37.03.36.03.36.02.36.03.36.02.37.01.36.02.36.02.36.01.36.02.37.02.36.01.36.02.36.02.36.03.37.02.36.03.36.03.36.03.37.03.36.03.36.04.36.04.36.03.37.04.36.04.36.03.36.04.36.03.37.03.36.03.36.03.36.02.36.01.37.02.36.01h1.09l.36-.01.36-.02.36-.01.36-.02.37-.03.36-.02.36-.03.36-.03.36-.03.37-.04.36-.03.36-.04.36-.03.36-.04.37-.03.36-.04.36-.03.36-.03.36-.04.37-.03.36-.03.36-.03.36-.02.37-.03.36-.02.36-.02.36-.02.36-.02.37-.01.36-.02h.36l.36-.01h.73l.36.01.36.01.36.01.36.02.37.03.36.02.36.03.36.04.37.03.36.04.36.05.36.04.36.05.37.04.36.05.36.05.36.04.36.05.37.04.36.05.36.04.36.03.36.04.37.03.36.03.36.03.36.03.37.02.36.02.36.02.36.02.36.02.37.01.36.02.36.01.36.01.36.01.37.02.36.01.36.01.36.01.36.01.37.01.36.02.36.01h.36l.36.01.37.01.36.01h.36l.36.01h1.81l.37-.01.36-.01h.36l.36-.01.36-.01.37-.01.36-.01.36-.02.36-.01.36-.01.37-.01.36-.01.36-.01.36-.01.37-.01h.36l.36-.01h.36l.36-.01h.73l.36.01h.72l.37.01.36.01.36.01h.36l.36.01.37.01.36.02.36.01.36.01.36.01.37.01.36.01.36.01h.36l.37.01.36.01h.36l.36.01h.73l.36-.01h.36l.36-.01.36-.01.37-.02.36-.01.36-.02.36-.03.36-.02.37-.03.36-.04.36-.03.36-.05.37-.04.36-.05.36-.05.36-.06.36-.06.37-.06.36-.06.36-.07.36-.06.36-.07.37-.07.36-.08.36-.07.36-.07.36-.07.37-.06.36-.07.36-.07.36-.06.36-.05.37-.06.36-.05.36-.04.36-.05.37-.03.36-.03.36-.03.36-.02.36-.01.37-.01.36-.01.36.01h.36l.36.02.37.01.36.03.36.02.36.03.36.04.37.04.36.04.36.05.36.04.37.05.36.06.36.05.36.05.36.06.37.05.36.05.36.05.36.05.36.05.37.05.36.05.36.04.36.04.36.04.37.03.36.03.36.03.36.03.37.02.36.02.36.01.36.02.36.01h.37l.36.01h.72l.36-.01h.37l.36-.01.36-.01.36-.01.36-.01.37-.01.36-.02.36-.01.36-.02.36-.01.37-.02.36-.01.36-.01.36-.02.37-.01.36-.01.36-.01h.36l.36-.01h1.09l.36.01h.36l.37.01.36.01.36.02.36.01.36.02.37.01.36.02.36.02.36.02.37.02.36.02.36.02.36.02.36.02.37.01.36.02.36.01.36.01.36.01.37.01h1.08l.36-.01.37-.01.36-.01.36-.01.36-.02.36-.02.37-.02.36-.03.36-.03.36-.02.37-.03.36-.04.36-.03.36-.03.36-.04.37-.03.36-.04.36-.03.36-.04.36-.03.37-.03.36-.03.36-.03.36-.03.36-.02.37-.03.36-.02.36-.01.36-.02.37-.01h.36l.36-.01h.36l.36.01h.37l.36.01.36.01.36.02.36.02.37.02.36.02.36.02.36.03.36.03.37.03.36.02.36.03.36.03.37.03.36.03.36.02.36.03.36.02.37.02.36.01.36.02.36.01h.36l.37.01h.72l.36-.01.36-.01.37-.02.36-.01.36-.03.36-.02.36-.03.37-.03.36-.03.36-.03.36-.04.37-.03.36-.04.36-.04.36-.03.36-.04.37-.03.36-.03.36-.03.36-.03.36-.02.37-.02.36-.02.36-.01h1.09l.36.01.36.02.36.02.37.02.36.03.36.03.36.04.36.04.37.04.36.05.36.05.36.04.36.05.37.05.36.06.36.05.36.04.36.05.37.05.36.04.36.04.36.03.36.04.37.03.36.02.36.02.36.02.37.01.36.01h.36l.36-.01h.36l.37-.01.36-.02.36-.02.36-.03.36-.03.37-.03.36-.04.36-.04.36-.04.36-.05.37-.05.36-.05.36-.05.36-.06.37-.06.36-.05.36-.06.36-.06.36-.06.37-.06.36-.05.36-.06.36-.05.36-.05.37-.05.36-.05.36-.05.36-.04.36-.04.37-.04.36-.03.36-.03.36-.03.36-.02.37-.02.36-.02.36-.01.36-.01.37-.01h1.08l.36.01.37.01.36.02.36.01.36.02.36.02.37.03.36.02.36.03.36.03.36.03.37.04.36.03.36.03.36.04.37.04.36.03.36.04.36.03.36.04.37.03.36.03.36.03.36.03.36.03.37.02.36.03.36.02.36.02.36.02.37.02.36.01.36.01.36.02h.37l.36.01.36.01h2.17l.36-.01.37-.01h.36l.36-.01.36-.01.36-.01.37-.01.36-.01.36-.01.36-.02.36-.01.37-.01.36-.01.36-.01.36-.01h.37l.36-.01h.36l.36-.01h2.54l.36.01h.36l.36.01h.36l.37.01h.36l.36.01h.36l.37.01.36.01h.36l.36.01.36.01h.37l.36.01.36.01.36.01.36.01.37.01.36.01.36.01.36.02.36.01.37.02.36.01.36.02.36.02.36.02.37.02.36.02.36.02.36.02.37.02.36.02.36.02.36.02.36.02.37.02.36.02.36.02.36.02.36.02.37.02.36.02.36.02.36.03.36.02.37.03.36.02.36.03.36.03.37.02.36.03.36.03.36.02.36.03.37.02.36.02.36.02.36.01.36.01h1.09l.36-.01.36-.02.37-.02.36-.02.36-.04.36-.03.36-.04.37-.04.36-.04.36-.05.36-.05.37-.05.36-.05.36-.05.36-.05.36-.04.37-.05.36-.04.36-.04.36-.04.36-.03.37-.03.36-.03.36-.02.36-.02.36-.01.37-.01.36-.01.36-.01h.73l.36.01h.36l.36.01.36.01.37.01.36.02.36.01.36.02.36.02.37.02.36.02.36.03.36.02.36.03.37.03.36.03.36.04.36.03.37.04.36.04.36.04.36.05.36.04.37.05.36.04.36.05.36.05.36.04.37.04.36.04.36.03.36.03.36.03.37.02.36.01h.72l.36-.02.37-.02.36-.03.36-.05.36-.05.37-.06.36-.06.36-.08.36-.08.36-.08.37-.09.36-.1.36-.09.36-.09.36-.09.37-.09.36-.08.36-.07.36-.06.36-.06.37-.04.36-.03.36-.02h.36l.37.01.36.02.36.04.36.04.36.06.37.07.36.08.36.09.36.09.36.1.37.09.36.1.36.1.36.09.36.08.37.08.36.07.36.06.36.06.36.03.37.03.36.01h.36l.36-.01.37-.03.36-.05.36-.06.36-.07.36-.08.37-.09.36-.11.36-.11.36-.11.36-.12.37-.13.36-.12.36-.11.36-.11.36-.1.37-.09.36-.08.36-.06.36-.05.37-.02.36-.01.36.01.36.02.36.05.37.06.36.07.36.09.36.1.36.1.37.11.36.11.36.1.36.1.36.09.37.07.36.06.36.04.36.02.36-.01.37-.03.36-.05.36-.08.36-.09.37-.1.36-.11.36-.11.36-.11.36-.1.37-.08.36-.06.36-.04.36-.01.36.02.37.04.36.05.36.07.36.08.36.08.37.06.36.05.36.03h.36l.37-.03.36-.06.36-.08.36-.11.36-.12.37-.12.36-.13.36-.11.36-.09.36-.07.37-.03.36.01.36.04.36.08.36.11.37.13.36.14.36.14.36.12.37.09.36.05h.36l.36-.05.36-.1.37-.14.36-.17.36-.17.36-.15.36-.12.37-.06.36-.01.36.04.36.06.36.08.37.05.36.01.36-.03.36-.06.36-.04.37.01.36.13.36.26.36.4.37.51.36.47.36.25.36-.25.36-.85.37-1.09.36-.57.36-.32"/><use xlink:href="#2c545__c" color="#3B75EA" transform="matrix(3.75 0 0 3.75 67.83 145.77)"/><use xlink:href="#2c545__c" color="#3B75EA" transform="matrix(3.75 0 0 3.75 50.65 22.51)"/></g><text stroke-linecap="round" stroke-linejoin="round" color="#000" font-family="KaTeX_Main" font-size="8" transform="translate(241.1 10.11)"><tspan>RedBlackRelaxedBottomUp</tspan></text><g fill="none" stroke="currentColor" stroke-linecap="round" stroke-linejoin="round" color="#000"><path stroke="#EC6F1A" stroke-dasharray="1.0,2.0" d="M205.6 7.51h29.9M28 126.63l.36-.6.36-.6.37-.59.36-.56.36-.53.36-.5.36-.44.37-.4.36-.35.36-.31.36-.27.37-.24.36-.21.36-.2.36-.2.36-.19.37-.21.36-.22.36-.24.36-.27.36-.29.37-.32.36-.34.36-.36.36-.39.36-.4.37-.4.36-.42.36-.41.36-.4.36-.4.37-.38.36-.37.36-.34.36-.32.37-.29.36-.27.36-.24.36-.22.36-.19.37-.16.36-.14.36-.11.36-.09.36-.07.37-.05.36-.03.36-.01h.36l.36.02.37.02.36.04.36.05.36.05.37.05.36.06.36.05.36.05.36.04.37.04.36.02h.36l.36-.01.36-.04.37-.06.36-.08.36-.11.36-.14.36-.16.37-.2.36-.22.36-.25.36-.27.37-.29.36-.31.36-.33.36-.34.36-.34.37-.36.36-.36.36-.35.36-.35.36-.34.37-.33.36-.32.36-.3.36-.29.36-.26.37-.25.36-.23.36-.21.36-.19.36-.18.37-.15.36-.14.36-.12.36-.11.37-.1.36-.09.36-.09.36-.08.36-.08.37-.07.36-.09.36-.08.36-.1.36-.1.37-.12.36-.13.36-.15.36-.16.36-.18.37-.2.36-.21.36-.24.36-.25.37-.26.36-.28.36-.29.36-.3.36-.31.37-.31.36-.32.36-.31.36-.31.36-.31.37-.29.36-.29.36-.28.36-.26.36-.24.37-.23.36-.22.36-.2.36-.18.36-.16.37-.15.36-.14.36-.11.36-.11.37-.1.36-.08.36-.07.36-.07.36-.06.37-.05.36-.05.36-.04.36-.04.36-.03.37-.03.36-.03.36-.03.36-.02.36-.02.37-.02.36-.01.36-.01.36-.01.37-.01h1.08l.36.01.37.01.36.01.36.02.36.02.36.02.37.02.36.02.36.03.36.02.36.02.37.03.36.02.36.02.36.02.36.01.37.02.36.01h1.45l.36-.01.36-.02.36-.01.37-.02.36-.03.36-.03.36-.03.36-.03.37-.04.36-.04.36-.04.36-.04.36-.05.37-.04.36-.05.36-.05.36-.05.37-.05.36-.05.36-.06.36-.05.36-.06.37-.07.36-.06.36-.07.36-.08.36-.08.37-.08.36-.09.36-.11.36-.11.36-.11.37-.13.36-.14.36-.15.36-.16.37-.17.36-.18.36-.2.36-.2.36-.21.37-.23.36-.23.36-.25.36-.25.36-.25.37-.26.36-.27.36-.27.36-.27.36-.27.37-.26.36-.27.36-.26.36-.25.36-.25.37-.23.36-.23.36-.22.36-.21.37-.2.36-.18.36-.17.36-.16.36-.14.37-.14.36-.11.36-.11.36-.09.36-.08.37-.07.36-.06.36-.05.36-.04.36-.02.37-.02.36-.01.36-.01h.36l.37.01.36.01.36.02.36.02.36.02.37.03.36.02.36.03.36.02.36.03.37.02.36.02.36.02.36.02.36.01.37.01h.72l.36-.01.36-.01.37-.02.36-.02.36-.03.36-.04.37-.04.36-.05.36-.06.36-.07.36-.07.37-.08.36-.09.36-.1.36-.11.36-.12.37-.12.36-.14.36-.14.36-.16.36-.16.37-.17.36-.18.36-.19.36-.2.37-.2.36-.22.36-.21.36-.23.36-.23.37-.23.36-.23.36-.24.36-.24.36-.24.37-.24.36-.24.36-.24.36-.23.36-.23.37-.23.36-.22.36-.21.36-.21.36-.2.37-.19.36-.18.36-.17.36-.17.37-.15.36-.15.36-.13.36-.13.36-.11.37-.11.36-.1.36-.08.36-.08.36-.07.37-.06.36-.05.36-.05.36-.04.36-.03.37-.02.36-.02.36-.02h.36l.37-.01h.72l.36.01.36.01.37.01.36.02.36.02.36.02.36.02.37.02.36.03.36.02.36.03.36.03.37.03.36.03.36.03.36.03.37.04.36.03.36.03.36.04.36.03.37.04.36.03.36.04.36.03.36.04.37.03.36.04.36.03.36.03.36.03.37.03.36.03.36.02.36.03.36.02.37.02.36.01.36.02.36.01.37.01.36.01h1.81l.36-.01.36-.01.36-.01.37-.02.36-.02.36-.01.36-.02.36-.02.37-.03.36-.02.36-.02.36-.03.37-.02.36-.03.36-.02.36-.03.36-.02.37-.03.36-.02.36-.03.36-.02.36-.02.37-.03.36-.02.36-.01.36-.02.36-.02.37-.01.36-.01.36-.01.36-.01h.73l.36.01h.36l.36.01.37.02.36.02.36.03.36.03.36.03.37.04.36.05.36.06.36.06.36.06.37.07.36.08.36.09.36.09.36.1.37.1.36.11.36.12.36.12.37.12.36.13.36.13.36.13.36.14.37.14.36.13.36.14.36.13.36.13.37.13.36.12.36.12.36.11.36.1.37.09.36.08.36.07.36.06.37.05.36.03.36.03h.72l.37-.02.36-.03.36-.05.36-.06.36-.07.37-.09.36-.1.36-.11.36-.11.36-.13.37-.14.36-.14.36-.15.36-.15.36-.16.37-.16.36-.17.36-.16.36-.17.37-.16.36-.16.36-.16.36-.16.36-.15.37-.15.36-.15.36-.14.36-.13.36-.13.37-.13.36-.12.36-.12.36-.12.36-.11.37-.11.36-.1.36-.11.36-.1.37-.11.36-.1.36-.11.36-.11.36-.11.37-.12.36-.12.36-.12.36-.13.36-.14.37-.14.36-.15.36-.16.36-.16.36-.17.37-.17.36-.19.36-.18.36-.2.36-.2.37-.2.36-.21.36-.21.36-.21.37-.21.36-.22.36-.21.36-.21.36-.21.37-.21.36-.2.36-.2.36-.19.36-.18.37-.18.36-.17.36-.16.36-.15.36-.14.37-.13.36-.11.36-.11.36-.1.37-.09.36-.08.36-.06.36-.06.36-.05.37-.04.36-.03.36-.02.36-.02h.36l.37-.01h.36l.36.01.36.01.36.01.37.01.36.02.36.02.36.01.36.02.37.02.36.01.36.02.36.01.37.02.36.01.36.01.36.01h.36l.37.01h.36l.36.01h1.81l.36.01h1.45l.36.01h.37l.36.01h.72l.36.01h.37l.36.01h.36l.36.01h.36l.37.01h1.44l.37-.01h.36l.36-.01.36-.01.37-.01.36-.02.36-.01.36-.02.36-.02.37-.02.36-.03.36-.02.36-.03.36-.03.37-.03.36-.04.36-.03.36-.03.36-.04.37-.04.36-.03.36-.04.36-.03.36-.03.37-.03.36-.03.36-.03.36-.02.37-.02.36-.02.36-.01.36-.01h.36l.37.01.36.01.36.01.36.03.36.03.37.04.36.04.36.06.36.06.36.08.37.08.36.09.36.1.36.1.37.12.36.12.36.13.36.14.36.14.37.15.36.15.36.15.36.16.36.15.37.15.36.15.36.15.36.13.36.14.37.12.36.11.36.1.36.09.36.07.37.06.36.04.36.03.36.01h.37l.36-.02.36-.04.36-.05.36-.06.37-.08.36-.09.36-.1.36-.11.36-.12.37-.12.36-.14.36-.13.36-.14.36-.15.37-.14.36-.15.36-.14.36-.14.37-.14.36-.14.36-.14.36-.13.36-.12.37-.12.36-.12.36-.11.36-.11.36-.1.37-.1.36-.09.36-.09.36-.08.36-.08.37-.08.36-.07.36-.07.36-.06.36-.07.37-.06.36-.06.36-.07.36-.06.37-.06.36-.07.36-.08.36-.08.36-.08.37-.09.36-.11.36-.11.36-.13.36-.13.37-.15.36-.17.36-.18.36-.19.36-.21.37-.23.36-.24.36-.25.36-.27.37-.29.36-.29.36-.3.36-.32.36-.32.37-.32.36-.33.36-.33.36-.33.36-.33.37-.32.36-.32.36-.31.36-.3.36-.29.37-.27.36-.26.36-.25.36-.23.37-.21.36-.19.36-.18.36-.15.36-.14.37-.11.36-.09.36-.08.36-.05.36-.04.37-.02h.36l.36.01.36.03.36.04.37.06.36.06.36.07.36.08.36.08.37.09.36.09.36.08.36.09.37.08.36.08.36.08.36.07.36.07.37.06.36.05.36.05.36.05.36.04.37.04.36.03.36.03.36.03.36.03.37.03.36.02.36.03.36.03.37.03.36.03.36.03.36.03.36.02.37.03.36.03.36.03.36.03.36.03.37.02.36.03.36.02.36.02.36.01.37.02.36.01.36.01.36.01.36.01h1.82l.36-.01h.36l.36-.01h1.09l.36.01h.36l.36.01.37.02.36.02.36.02.36.02.36.03.37.03.36.03.36.02.36.03.37.02.36.01.36.01h.72l.37-.02.36-.02.36-.02.36-.04.36-.04.37-.04.36-.05.36-.04.36-.05.36-.05.37-.04.36-.04.36-.04.36-.03.36-.04.37-.03.36-.03.36-.02.36-.04.37-.03.36-.04.36-.04.36-.05.36-.05.37-.06.36-.06.36-.06.36-.07.36-.06.37-.06.36-.05.36-.05.36-.03.36-.03.37-.02.36-.01h.36l.36.02.37.03.36.04.36.05.36.07.36.08.37.08.36.1.36.1.36.1.36.1.37.09.36.09.36.06.36.05.36.04.37.01.36-.01.36-.04.36-.05.37-.07.36-.08.36-.09.36-.09.36-.09.37-.07.36-.05.36-.04.36-.02.36-.01h.37l.36.01.36.01.36.02.36.04.37.08.36.13.36.19.36.26.36.31.37.31.36.28.36.2.36.12.37.05h.36l.36-.02.36-.03.36.06.37.43.36 1.13.36 1.35"/><use xlink:href="#2c545__a" color="#EC6F1A" transform="matrix(3.75 0 0 3.75 125.4 86.2)"/><use xlink:href="#2c545__a" color="#EC6F1A" transform="matrix(3.75 0 0 3.75 220.55 7.51)"/></g><text stroke-linecap="round" stroke-linejoin="round" color="#000" font-family="KaTeX_Main" font-size="8" transform="translate(241.1 25.11)"><tspan>RedBlackRelaxedTopDown</tspan></text><g fill="none" stroke="currentColor" stroke-linecap="round" stroke-linejoin="round" color="#000"><path stroke="violet" stroke-dasharray="4.0,2.0,1.0,2.0" d="M205.6 22.51h29.9M28 137.81l.36-.47.36-.48.37-.46.36-.45.36-.43.36-.41.36-.39.37-.37.36-.36.36-.35.36-.34.37-.33.36-.33.36-.32.36-.32.36-.3.37-.3.36-.27.36-.24.36-.22.36-.18.37-.15.36-.11.36-.08.36-.05.36-.01h.37l.36.01.36.03.36.02.36.01h.37l.36-.02.36-.05.36-.08.37-.1.36-.13.36-.16.36-.18.36-.21.37-.23.36-.25.36-.26.36-.27.36-.28.37-.3.36-.3.36-.3.36-.32.36-.32.37-.33.36-.33.36-.33.36-.34.37-.33.36-.33.36-.33.36-.32.36-.31.37-.29.36-.27.36-.25.36-.23.36-.2.37-.17.36-.16.36-.12.36-.11.36-.08.37-.07.36-.05.36-.05.36-.05.37-.04.36-.06.36-.06.36-.08.36-.1.37-.13.36-.14.36-.17.36-.2.36-.22.37-.24.36-.27.36-.29.36-.32.36-.32.37-.35.36-.35.36-.37.36-.37.36-.37.37-.37.36-.36.36-.36.36-.34.37-.34.36-.31.36-.29.36-.27.36-.24.37-.21.36-.18.36-.14.36-.1.36-.07.37-.03.36.01.36.04.36.09.36.12.37.15.36.18.36.2.36.23.37.24.36.25.36.25.36.26.36.25.37.24.36.23.36.21.36.19.36.16.37.13.36.11.36.07.36.05.36.01.37-.02.36-.05.36-.07.36-.1.36-.13.37-.14.36-.17.36-.18.36-.19.37-.21.36-.21.36-.22.36-.22.36-.23.37-.22.36-.22.36-.22.36-.21.36-.2.37-.2.36-.19.36-.18.36-.18.36-.17.37-.16.36-.15.36-.16.36-.14.37-.15.36-.15.36-.14.36-.15.36-.15.37-.16.36-.16.36-.17.36-.18.36-.19.37-.19.36-.2.36-.22.36-.22.36-.22.37-.24.36-.23.36-.25.36-.24.36-.25.37-.25.36-.24.36-.24.36-.24.37-.22.36-.22.36-.21.36-.19.36-.17.37-.16.36-.14.36-.13.36-.1.36-.08.37-.06.36-.03.36-.02.36.01.36.02.37.05.36.06.36.08.36.1.37.1.36.12.36.13.36.13.36.13.37.13.36.13.36.12.36.12.36.11.37.09.36.08.36.07.36.05.36.03.37.02h.36l.36-.02.36-.04.37-.05.36-.07.36-.09.36-.1.36-.11.37-.12.36-.14.36-.14.36-.15.36-.15.37-.16.36-.16.36-.17.36-.17.36-.16.37-.17.36-.17.36-.17.36-.17.36-.16.37-.17.36-.17.36-.17.36-.17.37-.17.36-.18.36-.18.36-.18.36-.19.37-.2.36-.19.36-.21.36-.21.36-.22.37-.22.36-.22.36-.24.36-.23.36-.24.37-.23.36-.24.36-.24.36-.23.37-.22.36-.22.36-.21.36-.19.36-.18.37-.17.36-.14.36-.13.36-.1.36-.08.37-.05.36-.02h.36l.36.03.36.07.37.09.36.12.36.15.36.18.36.2.37.23.36.26.36.27.36.3.37.31.36.32.36.33.36.34.36.35.37.34.36.34.36.34.36.33.36.31.37.3.36.29.36.26.36.25.36.22.37.2.36.17.36.15.36.12.37.1.36.07.36.05.36.02h.36l.37-.02.36-.04.36-.06.36-.07.36-.1.37-.1.36-.12.36-.12.36-.14.36-.14.37-.14.36-.16.36-.15.36-.15.36-.16.37-.15.36-.16.36-.15.36-.16.37-.15.36-.15.36-.15.36-.15.36-.14.37-.15.36-.15.36-.15.36-.15.36-.15.37-.16.36-.15.36-.16.36-.17.36-.16.37-.17.36-.18.36-.18.36-.18.37-.18.36-.19.36-.18.36-.19.36-.19.37-.19.36-.18.36-.19.36-.17.36-.18.37-.16.36-.16.36-.15.36-.14.36-.13.37-.12.36-.1.36-.1.36-.07.37-.07.36-.05.36-.03.36-.03.36-.01.37.01.36.02.36.02.36.04.36.05.37.05.36.06.36.06.36.07.36.07.37.07.36.06.36.07.36.06.36.05.37.04.36.04.36.03.36.01.37.01.36-.01.36-.01.36-.03.36-.04.37-.05.36-.06.36-.07.36-.09.36-.09.37-.1.36-.11.36-.11.36-.12.36-.13.37-.13.36-.14.36-.14.36-.14.37-.14.36-.15.36-.15.36-.15.36-.15.37-.15.36-.15.36-.15.36-.15.36-.15.37-.16.36-.15.36-.16.36-.16.36-.16.37-.16.36-.17.36-.17.36-.17.36-.18.37-.17.36-.18.36-.19.36-.18.37-.19.36-.18.36-.19.36-.19.36-.18.37-.19.36-.17.36-.18.36-.16.36-.16.37-.15.36-.14.36-.12.36-.11.36-.1.37-.08.36-.06.36-.03.36-.02h.37l.36.03.36.05.36.08.36.1.37.13.36.14.36.18.36.19.36.22.37.23.36.26.36.27.36.29.36.3.37.3.36.32.36.32.36.32.37.33.36.32.36.31.36.3.36.3.37.28.36.27.36.25.36.23.36.21.37.19.36.16.36.15.36.12.36.09.37.08.36.05.36.02.36.01.36-.01.37-.04.36-.05.36-.07.36-.09.37-.1.36-.11.36-.12.36-.13.36-.14.37-.15.36-.15.36-.15.36-.16.36-.15.37-.16.36-.16.36-.16.36-.15.36-.15.37-.15.36-.15.36-.15.36-.14.37-.15.36-.14.36-.15.36-.14.36-.14.37-.15.36-.15.36-.15.36-.15.36-.16.37-.16.36-.16.36-.17.36-.17.36-.17.37-.18.36-.18.36-.18.36-.18.36-.19.37-.18.36-.18.36-.18.36-.18.37-.17.36-.16.36-.16.36-.15.36-.14.37-.13.36-.12.36-.11.36-.09.36-.08.37-.07.36-.06.36-.04.36-.03.36-.02h.73l.36.02.36.03.37.03.36.04.36.05.36.05.36.06.37.05.36.06.36.05.36.05.36.04.37.04.36.02.36.02.36.01h.36l.37-.02.36-.03.36-.04.36-.06.36-.07.37-.08.36-.1.36-.11.36-.12.37-.13.36-.14.36-.16.36-.16.36-.17.37-.18.36-.18.36-.19.36-.18.36-.19.37-.2.36-.19.36-.18.36-.19.36-.18.37-.18.36-.17.36-.16.36-.16.37-.15.36-.14.36-.13.36-.13.36-.12.37-.12.36-.11.36-.1.36-.1.36-.09.37-.09.36-.09.36-.09.36-.09.36-.09.37-.09.36-.1.36-.1.36-.11.37-.11.36-.12.36-.13.36-.14.36-.14.37-.16.36-.16.36-.16.36-.18.36-.18.37-.19.36-.19.36-.19.36-.19.36-.19.37-.19.36-.18.36-.17.36-.17.36-.15.37-.13.36-.12.36-.1.36-.07.37-.04.36-.02.36.02.36.05.36.09.37.12.36.17.36.21.36.24.36.3.37.33.36.38.36.42.36.46.36.5.37.53.36.57.36.59.36.63.37.64.36.66.36.67.36.67.36.68.37.68.36.66.36.65.36.63.36.6.37.58.36.54.36.51.36.46.36.43.37.38.36.34.36.29.36.25.36.2.37.15.36.11.36.08.36.03h.37l.36-.04.36-.07.36-.09.36-.12.37-.14.36-.16.36-.17.36-.18.36-.19.37-.2.36-.19.36-.2.36-.2.36-.2.37-.2.36-.19.36-.19.36-.18.37-.18.36-.18.36-.17.36-.18.36-.17.37-.17.36-.18.36-.18.36-.19.36-.18.37-.2.36-.2.36-.21.36-.22.36-.23.37-.23.36-.24.36-.25.36-.25.36-.25.37-.25.36-.26.36-.25.36-.25.37-.24.36-.24.36-.22.36-.21.36-.2.37-.18.36-.16.36-.13.36-.12.36-.1.37-.06.36-.05.36-.01.36.01.36.04.37.07.36.1.36.12.36.15.37.17.36.19.36.21.36.23.36.24.37.25.36.26.36.26.36.26.36.26.37.24.36.24.36.21.36.2.36.17.37.15.36.11.36.09.36.06.37.02h.36l.36-.04.36-.08.36-.1.37-.13.36-.16.36-.19.36-.22.36-.24.37-.26.36-.28.36-.29.36-.32.36-.32.37-.34.36-.35.36-.35.36-.36.36-.36.37-.36.36-.35.36-.35.36-.34.37-.32.36-.31.36-.29.36-.27.36-.24.37-.22.36-.2.36-.16.36-.14.36-.11.37-.08.36-.06.36-.03.36-.02h.36l.37.01.36.02.36.03.36.02.37.02h.72l.36-.03.36-.04.37-.07.36-.09.36-.12.36-.13.36-.17.37-.18.36-.21.36-.22.36-.24.36-.25.37-.26.36-.27.36-.27.36-.27.36-.27.37-.27.36-.26.36-.25.36-.24.37-.23.36-.22.36-.21.36-.18.36-.17.37-.14.36-.12.36-.07.36-.04.36.01.37.06.36.12.36.19.36.27.36.34.37.42.36.5.36.58.36.65.37.72.36.77.36.82.36.85.36.86.37.86.36.84.36.8.36.75.36.69.37.61.36.52.36.43.36.34.36.25.37.16.36.09h.36l.36-.06.36-.11.37-.16.36-.2.36-.24.36-.26.37-.28.36-.3.36-.31.36-.33.36-.35.37-.35.36-.37.36-.37.36-.39.36-.38.37-.38.36-.37.36-.36.36-.33.36-.29.37-.25.36-.2.36-.13.36-.06.37.01.36.09.36.17.36.23.36.28.37.33.36.34.36.33.36.29.36.25.37.16.36.08.36-.02.36-.13.36-.23.37-.32.36-.4.36-.48.36-.54.37-.6.36-.63.36-.67.36-.67.36-.65.37-.61.36-.52.36-.42.36-.28.36-.13.37-.01.36.09.36.13.36.09h.36l.37-.17.36-.34.36-.5.36-.62.36-.65.37-.61.36-.53.36-.44.36-.43.37-.54.36-.79.36-1.12.36-1.46.36-1.66.37-1.55.36-1.14.36-1.17"/><use xlink:href="#2c545__d" color="violet" transform="matrix(3.75 0 0 3.75 182.98 94.13)"/><use xlink:href="#2c545__d" color="violet" transform="matrix(3.75 0 0 3.75 220.55 22.51)"/></g><path fill="none" d="M28 45.01V162.5M371.99 45.01H28" color="#000"/></svg>