<svg xmlns="http://www.w3.org/2000/svg" xmlns:xlink="http://www.w3.org/1999/xlink" viewBox="0 0 400 200"><path fill="none" d="M0 0h400v200H0z"/><defs><path id="1d2c3__b" stroke="currentColor" stroke-width=".267" d="M-1-1h2v2h-2z"/><path id="1d2c3__d" fill="currentColor" stroke="currentColor" stroke-width=".267" d="M-1-1h2v2h-2z"/><path id="1d2c3__a" stroke="currentColor" stroke-width=".267" d="m0-1.33-1.33 2h2.66z"/><path id="1d2c3__h" stroke="currentColor" stroke-width=".267" d="M0 1.33 1.265.411.782-1.067l-1.564-.009-.483 1.487z"/><use xlink:href="#1d2c3__a" id="1d2c3__e" fill="currentColor" stroke="none"/><use xlink:href="#1d2c3__b" id="1d2c3__c" stroke="currentColor" transform="rotate(45)"/><use xlink:href="#1d2c3__c" id="1d2c3__g" fill="currentColor" stroke="none"/><circle id="1d2c3__f" cx="0" cy="0" r="1" stroke="currentColor" stroke-width=".267"/></defs><path fill="none" stroke="#CCC" stroke-linecap="round" stroke-linejoin="round" stroke-width=".1" d="M46.1 162.5V75.01" class="1d2c3__gridline" color="#000"/><g fill="none" stroke-linecap="round" stroke-linejoin="round" stroke-width="0" color="#000"><path d="M46.1 162.5V155m0-79.99v7.5"/><text fill="#000" font-family="KaTeX_Main" font-size="8" text-anchor="middle" transform="translate(46.1 172.6)"><tspan> 1</tspan></text></g><path fill="none" stroke="#CCC" stroke-linecap="round" stroke-linejoin="round" stroke-width=".1" d="M82.31 162.5V75.01" class="1d2c3__gridline" color="#000"/><g fill="none" stroke-linecap="round" stroke-linejoin="round" stroke-width="0" color="#000"><path d="M82.31 162.5V155m0-79.99v7.5"/><text fill="#000" font-family="KaTeX_Main" font-size="8" text-anchor="middle" transform="translate(82.31 172.6)"><tspan> 2</tspan></text></g><path fill="none" stroke="#CCC" stroke-linecap="round" stroke-linejoin="round" stroke-width=".1" d="M118.52 162.5V75.01" class="1d2c3__gridline" color="#000"/><g fill="none" stroke-linecap="round" stroke-linejoin="round" stroke-width="0" color="#000"><path d="M118.52 162.5V155m0-79.99v7.5"/><text fill="#000" font-family="KaTeX_Main" font-size="8" text-anchor="middle" transform="translate(118.52 172.6)"><tspan> 3</tspan></text></g><path fill="none" stroke="#CCC" stroke-linecap="round" stroke-linejoin="round" stroke-width=".1" d="M154.73 162.5V75.01" class="1d2c3__gridline" color="#000"/><g fill="none" stroke-linecap="round" stroke-linejoin="round" stroke-width="0" color="#000"><path d="M154.73 162.5V155m0-79.99v7.5"/><text fill="#000" font-family="KaTeX_Main" font-size="8" text-anchor="middle" transform="translate(154.73 172.6)"><tspan> 4</tspan></text></g><path fill="none" stroke="#CCC" stroke-linecap="round" stroke-linejoin="round" stroke-width=".1" d="M190.94 162.5V75.01" class="1d2c3__gridline" color="#000"/><g fill="none" stroke-linecap="round" stroke-linejoin="round" stroke-width="0" color="#000"><path d="M190.94 162.5V155m0-79.99v7.5"/><text fill="#000" font-family="KaTeX_Main" font-size="8" text-anchor="middle" transform="translate(190.94 172.6)"><tspan> 5</tspan></text></g><path fill="none" stroke="#CCC" stroke-linecap="round" stroke-linejoin="round" stroke-width=".1" d="M227.15 162.5V75.01" class="1d2c3__gridline" color="#000"/><g fill="none" stroke-linecap="round" stroke-linejoin="round" stroke-width="0" color="#000"><path d="M227.15 162.5V155m0-79.99v7.5"/><text fill="#000" font-family="KaTeX_Main" font-size="8" text-anchor="middle" transform="translate(227.15 172.6)"><tspan> 6</tspan></text></g><path fill="none" stroke="#CCC" stroke-linecap="round" stroke-linejoin="round" stroke-width=".1" d="M263.36 162.5V75.01" class="1d2c3__gridline" color="#000"/><g fill="none" stroke-linecap="round" stroke-linejoin="round" stroke-width="0" color="#000"><path d="M263.36 162.5V155m0-79.99v7.5"/><text fill="#000" font-family="KaTeX_Main" font-size="8" text-anchor="middle" transform="translate(263.36 172.6)"><tspan> 7</tspan></text></g><path fill="none" stroke="#CCC" stroke-linecap="round" stroke-linejoin="round" stroke-width=".1" d="M299.57 162.5V75.01" class="1d2c3__gridline" color="#000"/><g fill="none" stroke-linecap="round" stroke-linejoin="round" stroke-width="0" color="#000"><path d="M299.57 162.5V155m0-79.99v7.5"/><text fill="#000" font-family="KaTeX_Main" font-size="8" text-anchor="middle" transform="translate(299.57 172.6)"><tspan> 8</tspan></text></g><path fill="none" stroke="#CCC" stroke-linecap="round" stroke-linejoin="round" stroke-width=".1" d="M335.78 162.5V75.01" class="1d2c3__gridline" color="#000"/><g fill="none" stroke-linecap="round" stroke-linejoin="round" stroke-width="0" color="#000"><path d="M335.78 162.5V155m0-79.99v7.5"/><text fill="#000" font-family="KaTeX_Main" font-size="8" text-anchor="middle" transform="translate(335.78 172.6)"><tspan> 9</tspan></text></g><path fill="none" stroke="#CCC" stroke-linecap="round" stroke-linejoin="round" stroke-width=".1" d="M371.99 162.5V75.01" class="1d2c3__gridline" color="#000"/><g fill="none" stroke-linecap="round" stroke-linejoin="round" stroke-width="0" color="#000"><path d="M371.99 162.5V155m0-79.99v7.5"/><text fill="#000" font-family="KaTeX_Main" font-size="8" text-anchor="middle" transform="translate(371.99 172.6)"><tspan> 10</tspan></text></g><g fill="none" stroke-linecap="round" stroke-linejoin="round" stroke-width="0" color="#000"><path d="M371.99 162.5h-7.5"/><text fill="#000" font-family="KaTeX_Main" font-size="8" transform="translate(378.99 165.1)"><tspan>-1</tspan></text></g><g fill="none" stroke-linecap="round" stroke-linejoin="round" stroke-width="0" color="#000"><path d="M371.99 133.34h-7.5"/><text fill="#000" font-family="KaTeX_Main" font-size="8" transform="translate(378.99 135.94)"><tspan>0</tspan></text></g><g fill="none" stroke-linecap="round" stroke-linejoin="round" stroke-width="0" color="#000"><path d="M371.99 104.17h-7.5"/><text fill="#000" font-family="KaTeX_Main" font-size="8" transform="translate(378.99 106.77)"><tspan>1</tspan></text></g><g fill="none" stroke-linecap="round" stroke-linejoin="round" stroke-width="0" color="#000"><path d="M371.99 75.01h-7.5"/><text fill="#000" font-family="KaTeX_Main" font-size="8" transform="translate(378.99 77.61)"><tspan>2</tspan></text></g><path fill="none" d="M28 75.01v87.49m343.99-87.49H28" color="#000"/><text stroke-linecap="round" stroke-linejoin="round" stroke-width="0" color="#000" font-family="KaTeX_Main" font-size="10" text-anchor="middle" transform="rotate(-90 65.13 53.63)"><tspan>log</tspan><tspan dy="3" font-size="8">2</tspan><tspan dy="-3">(</tspan><tspan font-weight="bold">Average Path Length </tspan><tspan> / log</tspan><tspan dy="3" font-size="8">2</tspan><tspan dy="-3">(Size))</tspan></text><text stroke-linecap="round" stroke-linejoin="round" stroke-width="0" color="#000" font-family="KaTeX_Main" font-size="10" text-anchor="middle" transform="translate(199.99 195.75)"><tspan>Operations / 10</tspan><tspan dy="-5" font-size="8">6</tspan></text><text stroke-linecap="round" stroke-linejoin="round" color="#000" font-family="KaTeX_Main" font-size="8" transform="translate(99.2 10.11)"><tspan>Conc</tspan></text><g fill="none" stroke="currentColor" stroke-linecap="round" stroke-linejoin="round" color="#000"><path stroke="#9F650D" stroke-dasharray="1.0,2.0" d="M63.7 7.51h29.9M28 134.49l.36-.01.36-.01.37.11h.36l.36-.01.36-.01.36-.01.37-.02.36-.01.36-.01.36-.02.37-.01.36.07.36-.01.36-.01.36-.02.37-.01.36-.02.36-.01.36-.01.36-.02.37-.01.36-.02.36-.01.36-.02.36-.01.37-.02.36-.02.36-.02.36-.01.36-.02.37-.02.36-.02.36-.01.36-.02.37-.02.36-.01.36-.02.36-.02.36-.02.37.16h.36l.36-.01.36-.01h.36l.37-.01.36-.01h.36l.36-.01.36-.01h6.88l.37.37h9.05l.36.01h80.39l.36-.01.36.01h6.52l.36-.01h6.52l.36.01h6.52l.36-.01h2.17l.36.01.37-.01h4.7l.37.01h.36l.36-.01h31.86l.37.01.36-.01h.72l.36.01h.37l.36-.01h26.79l.37.01.36-.01h3.98l.36.01.37-.01h2.53l.36.01h1.09l.36-.01.36.01h.36l.37-.01h2.89l.37.01.36-.01h.36l.36.01.36-.01.37.01h3.98l.36-.01h.73l.36.01h30.05l.36.01h45.63l.36-.01h.36l.36.01h1.09l.36-.01h3.26l.36.01h3.26l.36-.01h30.42"/><use xlink:href="#1d2c3__d" color="#9F650D" transform="matrix(3.75 0 0 3.75 354.25 134.6)"/><use xlink:href="#1d2c3__d" color="#9F650D" transform="matrix(3.75 0 0 3.75 78.65 7.51)"/></g><text stroke-linecap="round" stroke-linejoin="round" color="#000" font-family="KaTeX_Main" font-size="8" transform="translate(99.2 25.11)"><tspan>Splay</tspan></text><g fill="none" stroke="currentColor" stroke-linecap="round" stroke-linejoin="round" color="#000"><path stroke="#29C3F6" d="M63.7 22.51h29.9M28 107.57l.36.7.36 1.77.37-4.61.36 4.66.36 2.25.36-1.2.36-1.1.37-.31.36-.03.36-2.37.36 5.4.37-4.1.36 1.59.36-2.4.36 2.58.36-3.56.37.29.36 2.25.36 1.32.36.21.36-.81.37-2.5.36 1.88.36 2.68.36-5.89.36.93.37-.43.36 3.67.36-4.38.36 4.96.36-1.83.37-.49.36.95.36.26.36.02h.37l.36-1.22.36 1.94.36-5.25.36 6.72.37-2.74.36.54.36 1.53.36-.07.36-1.67.37-1.5.36 1.71.36-2.67.36 1.42.36 1.93.37-3.71.36-.15.36 4.5.36-2.83.37-.14.36-2.86.36-.72.36 3.89.36-1.94.37.95.36 1.41.36-3.31.36-1.94.36 1.48.37-.43.36 3.63.36-2.58.36.26.36.33.37-.09.36.91.36-.14.36-4.45.37-1.01.36 1.43.36 1.8.36-.65h.36l.37-3.21.36 6.56.36 1.92.36 1.54.36-3.25.37-8.42.36 3.11.36 7.1.36-.25.36-3.42.37 3.57.36-1.89.36 2.07.36-5.95.36 2.48.37.07.36-.08.36-4.03.36-1.03.37 3.41.36 5.37.36-5.28.36 4.94.36-5.05.37.59.36 2.8.36-4.79.36.8.36 8.27.37-2.26.36-8.92.36-3.67.36-1.32.36 7.21.37 5.92.36-4.6.36 1.15.36 1.5.37-3.01.36 2.3.36 2.51.36-4.45.36 4.49.37-12.43.36 14.12.36-4.41.36-.75.36 1.84.37.14.36-4.37.36 1.79.36 1.15.36-.33.37.44.36-.2.36 2.1.36-1.73.36.55.37-2.67.36-.53.36-2.3.36 2.93.37 1.64.36-7.4.36 9.19.36-2.53.36-.22.37-5.02.36 3.91.36-1.3.36 3.17.36-4.45.37 4.18.36 2.76.36-1.72.36-3.29.36 3.02.37-5.38.36 4.85.36.37.36 3.26.37-5.46.36.82.36-.46.36-1.02.36 3.35.37 1.55.36-4.98.36 5.84.36.62.36-5.12.37 1.94.36-4.57.36 3.23.36 3.13.36-.75.37-6.69.36 3.34.36 5.51.36-2.91.36-.54.37.8.36-1.36.36.44.36-.83.37.51.36-3.59.36 2.93.36-1.55.36.02.37 7.68.36-3.3.36-4.33.36-.95.36-2.22.37 5.94.36.69.36 1.37.36-2.48.36-.79.37 1.11.36.85.36 1.24.36.26.37-1.19.36-4.98.36 7.15.36-7.65.36-.57.37 6.16.36-.27.36 2.47.36.56.36-1.21.37-4.54.36 1.39.36-4.75.36 3.32.36 1.14.37-2.07.36 4.04.36 3.43.36-2.85.37-3.72.36 3.8.36-4.85.36 1.64.36 2.16.37 1.98.36-1.01.36-.08.36-5.1.36 2.97.37.46.36 2.64.36-.75.36-1.89.36 2.12.37-3.99.36 2.13.36-1.26.36 2.39.36-5.18.37 2.91.36 2.95.36-1.72.36-5.72.37-2.91.36 5.44.36 2.52.36 2.02.36-1.75.37-3.28.36 2.19.36.4.36 3.5.36-1.98.37-4.21.36-4.82.36 7.1.36 1.44.36.94.37-1.27.36.84.36-2.53.36 2.29.37-5.03.36 6.37.36-4 .36.14.36.34.37 2.39.36 2.57.36-.54.36-3.43.36.07.37 2.11.36-3.9.36.76.36 3.14.36-3.8.37 3.08.36-7.68.36 5.09.36.45.36 4.13.37-8.38.36 8.86.36-2.11.36-1.85.37.14.36-1.68.36 2.46.36-.71.36-1.07.37 2.98.36-1.43.36.96.36.97.36-3.18.37 2.49.36-2.99.36 1.34.36.77.36 2.74.37-4 .36-1.02.36 1.52.36-4.21.37 5.85.36 1.26.36-7.53.36 5 .36-3.59.37-3.63.36 8.27.36 2.64.36-7.13.36-.06.37.65.36-.62.36 1.66.36 1.93.36-.15.37-.21.36.89.36-.49.36-4.44.36 8.14.37-6.09.36 2.77.36-1.97.36-.48.37 3.72.36-1.53.36-7.71.36 7.92.36-.43.37-4.8.36 3.04.36 1.11.36 1.08.36-1.7.37 1.21.36-2.8.36 2.85.36-.26.36-.54.37-1.79.36.94.36.98.36 1.04.37-4.7.36-.27.36-.06.36 7.04.36-2.62.37.2.36-1.35.36.15.36 3.96.36-3.08.37 2.53.36-1.58.36.69.36.06.36-2.48.37 5.48.36-5.95.36.61.36.17.37 1.14.36-2.29.36.48.36-1.36.36 1.15.37 1.62.36 3.62.36-4.06.36-.86.36 1.91.37-.8.36-2.93.36 1.36.36 3.3.36-.69.37 2.23.36-5.38.36 4.74.36-3.15.36 2.81.37-3.08.36 3.28.36-.33.36-1.26.37 1.56.36-4.97.36 1.79.36 1.49.36 1.8.37-1.08.36-3.93.36 3.34.36-1.41.36-5.56.37 6.29.36-2.69.36-.23.36 4.33.36-3.42.37.27.36 3.29.36-10.69.36 8.16.37-1.13.36 4.84.36-5.24.36 5.81.36-7.37.37 5.3.36-8 .36 8.02.36 3.29.36-3.37.37-.42.36-.3.36-3.46.36 3.56.36.31.37 2.59.36-1.44.36-1.68.36 3.29.36-2.54.37-.79.36 1.59.36-1.06.36-.92.37 1.35.36-2.2.36.91.36-3.34.36 7.95.37-4.84.36 4.35.36-4.87.36-1.48.36.36.37 1.71.36-.2.36 2.8.36-2.82.36 2.45.37-3.9.36-.07.36 5.16.36-1.79.37-3.49.36-.94.36 4.34.36-1.65.36-3.14.37-1.73.36 4.68.36-3.48.36 2.5.36-3.41.37 7.13.36-5.5.36 2.55.36 2.16.36-1.79.37-1.87.36.04.36-2.57.36 7.14.37-1.66.36 1.03.36 1.15.36-2.13.36-.28.37.49.36-1.67.36.2.36-2.75.36 2.01.37.73.36-8.93.36 5.88.36-.08.36-1.71.37 1.42.36 4.08.36-.53.36-7.03.36 4.79.37 5.04.36-2.72.36 2.18.36-4.42.37 1.67.36-.01.36 4.04.36-.4.36-11.01.37 7.13.36-1.02.36 3.82.36-2.57.36 1.85.37-2.22.36-4.47.36 4.77.36.06.36 2.85.37-2.88.36-4.01.36 6.21.36-10.74.37 7.37.36 4.36.36-1.76.36-2.66.36 1 .37 2.13.36-4.2.36-2.24.36 4.52.36-2.91.37 3.73.36-.15.36 2.84.36-6.54.36.84.37 4.12.36-4.88.36 5.47.36-2.54.36 2.29.37 1.61.36-2.7.36.64.36.13.37-3.71.36.8.36 1.02.36-4.46.36 6.64.37-5.25.36.61.36 2.47.36-8.57.36 11.33.37.24.36-.26.36-3.62.36-1.33.36 4.09.37-5.45.36 2.32.36.54.36 4.2.37-3.02.36 2.31.36-1.95.36-2.17.36 4.92.37-8.83.36 7.15.36-4.02.36 4.79.36-.95.37-2.88.36 4.88.36-1.6.36-2.54.36-.55.37-.88.36 2.01.36 1.63.36-2.32.36 3.68.37-4.73.36 1.06.36-.75.36.53.37-2.59.36 5.94.36-8.62.36 4.9.36.59.37 3.48.36-3.39.36-6.1.36 4.84.36 3.5.37-2.46.36 5.11.36-10.55.36 9.27.36-.58.37.6.36-3.82.36 2.66.36-9.14.37 7.81.36-2.37.36-1.24.36 4.15.36-.83.37 2.46.36-1.64.36-1.49.36.5.36-.6.37 1.24.36-.64.36-1.9.36 8.11.36-4.89.37-3.82.36 4.73.36-4.14.36-.37.37 7.4.36-4.01.36.81.36 1.49.36-8.33.37.2.36 3.02.36 1.94.36 1.88.36-6.84.37 3.33.36-2.94.36 6.34.36-1.04.36 1.64.37.38.36-4.68.36 2.52.36-3.54.36-.01.37 4.07.36-4.1.36 3.83.36-1.33.37 3.55.36-3.6.36.23.36-2.77.36 3.71.37-1.03.36-.02.36 2 .36 3.24.36-4.81.37.15.36.02.36-1.3.36 1.09.36-6.13.37 6.97.36 2.54.36.07.36-6.47.37-.25.36 2.47h.36l.36-1.71.36-2.12.37 2 .36 4.51.36-6.95.36 3.81.36 2.57.37-2.97.36-5.41.36 3.55.36 2.78.36-1.03.37 3.11.36-2.88.36 4.82.36-5.15.36 7.37.37-8.39.36 3.69.36 1.21.36.08.37-1.75.36-.65.36 2.19.36 2.11.36-1.52.37 2.23.36-6.09.36-1.34.36 6.15.36.79.37-1.31.36-5.56.36 4.1.36-5.43.36 4.93.37-2.32.36 1.1.36-1.16.36 2.3.37 1.44.36-8.35.36 3.37.36 1.84.36-.42.37 5.86.36-3.11.36-5.8.36 4.65.36.13.37-.99.36 5.6.36-10.05.36 2.04.36 3.49.37.52.36-.53.36-.23.36.93.36-3.85.37 6.73.36-12.29.36 8.09.36-3.06.37 4.23.36-.17.36.51.36 1.51.36-3.69.37.79.36.61h.36l.36-1.23.36.85.37-9.12.36 8.88.36 3.43.36-2.71.36-3.35.37 1.53.36.34.36 2.61.36 1.08.37.25.36-.33.36-.67.36-.11.36-1.46.37 1.14.36.13.36-.05.36-1.34.36-3.99.37 4.83.36-1.96.36.46.36-1.38.36 4.31.37-6.54.36-1.53.36 6.06.36 3.13.37-4.37.36.18.36.29.36-1.08.36 2.13.37-1.55.36 3.07.36-3.3.36-1.43.36 3.96.37-7.17.36 6.3.36-.44.36-2.25.36 4.23.37-.9.36-3.76.36 1.55.36-1.22.36 1.78.37.27.36.23.36 3.44.36-5.75.37 4.81.36-1.85.36 1.66.36-4.39.36-4.11.37 7.9.36-1.85.36 1.82.36-1.91.36-3.69.37 5.26.36-.07.36-7.5.36 6.53.36 1.62.37-1.73.36-2.34.36-.83.36 2.66.37.69.36-3.08.36 3.63.36-.74.36-1.25.37 2.16.36-.18.36-2.76.36-.38.36 4.08.37.79.36 1 .36-3.52.36 2.51.36-.65.37-2.14.36 2.11.36-.67.36-7.64.36 2.68.37 3.96.36 3.49.36.45.36-3.98.37 3.45.36-6.62.36 4.3.36-1.6.36 3.39.37-.55.36-8.15.36 9.1.36-2.13.36-1.41.37 1.38.36-1.94.36 3.43.36-4.77.36-3.98.37 7.27.36.37.36-.66.36.34.37-1.98.36 1.35.36-3.03.36-1.78.36 3.91.37 2.15.36-4.17.36 2.18.36-4.45.36 1 .37 4.25.36-1.68.36-1.77.36 6.58.36-2.26.37-3.68.36-2.09.36 7.28.36-2.81.36 2.61.37-10.19.36 1.32.36 2.29.36 4.46.37-2.38.36-.71.36 1.47.36 1.1.36-.98.37 2.03.36-5.67.36 2.81.36.28.36 2.13.37-5.22.36 5.41.36-1.37.36.07.36-1.81.37 1.82.36-5.98.36 4.01.36.94.37 2.07.36-2.08.36-.96.36 2.54.36 1.14.37-5.03.36 3.9.36-3.83.36 4.06.36-1.12.37 3.18.36-1.83.36-.96.36-4.09.36 4.83.37.32.36 1.26.36 1.69.36-5.29.37-2.03.36-3.84.36 4.88.36 3.57.36-4.8.37 3.09.36-.32.36.93.36 1.12.36-3.44.37.59.36-1.62.36 5.84.36.73.36-3.22.37.29.36.84.36 3.43.36-6.91.36.39.37 1.76.36-.23.36 4.24.36-4.56.37.62.36-1.53.36-1.74.36 2.17.36 2.34.37-5.41.36-.16.36-2.36"/><use xlink:href="#1d2c3__b" color="#29C3F6" transform="matrix(3.75 0 0 3.75 67.83 97.34)"/><use xlink:href="#1d2c3__b" color="#29C3F6" transform="matrix(3.75 0 0 3.75 78.65 22.51)"/></g><text stroke-linecap="round" stroke-linejoin="round" stroke-width=".5" color="#000" font-family="KaTeX_Main" font-size="8" transform="translate(99.2 40.11)"><tspan>AVLBottomUp</tspan></text><g fill="none" stroke="currentColor" stroke-linecap="round" stroke-linejoin="round" stroke-width=".5" color="#000"><path stroke="#000" d="M63.7 37.51h29.9M28 136.84l.36-.01.36-.02.37.12.36-.01.36-.02.36-.01.36-.02.37-.01.36-.02.36-.01.36-.02.37-.02.36.07.36-.01.36-.02.36-.02.37-.02.36-.01.36-.02.36-.02.36-.01.37-.02.36-.02.36-.02.36-.02.36-.02.37-.02.36-.02.36-.02.36-.02.36-.02.37-.02.36-.02.36-.02.36-.02.37-.02.36-.02.36-.02.36-.02.36-.02.37.17.36-.01.36-.01.36-.01.36-.01.37-.01.36-.01.36-.01.36-.01h5.43l.37-.01h1.44l.37.4H65.3l.36.01h5.07l.36-.01h1.45l.36.01h1.45l.36-.01h.36l.36.01h10.51l.36-.01h3.26l.36.01.36-.01.36.01h9.42l.36-.01h.72l.37.01h3.62l.36-.01h7.24l.36.01h73.87l.36-.01.36.01.37-.01.36.01h5.79l.36-.01h1.45l.36.01h5.44l.36-.01h1.08l.37.01h93.05l.37.01h3.26l.36-.01h14.48l.36.01.37-.01h1.81l.36.01.36-.01h1.45l.36.01h7.97l.36-.01h43.45"/><use xlink:href="#1d2c3__e" transform="matrix(3.75 0 0 3.75 125.4 136.84)"/><use xlink:href="#1d2c3__e" transform="matrix(3.75 0 0 3.75 78.65 37.51)"/></g><text stroke-linecap="round" stroke-linejoin="round" color="#000" font-family="KaTeX_Main" font-size="8" transform="translate(99.2 55.11)"><tspan>AVLRelaxedBottomUp</tspan></text><g fill="none" stroke="currentColor" stroke-linecap="round" stroke-linejoin="round" color="#000"><path stroke="#D336C8" d="M63.7 52.51h29.9M28 136.84l.36-.01.36-.02.37.12.36-.01.36-.02.36-.01.36-.02.37-.01.36-.02.36-.01.36-.02.37-.02.36.07.36-.01.36-.02.36-.02.37-.02.36-.01.36-.02.36-.02.36-.01.37-.02.36-.02.36-.02.36-.02.36-.02.37-.02.36-.02.36-.02.36-.02.36-.02.37-.02.36-.02.36-.02.36-.02.37-.02.36-.02.36-.02.36-.02.36-.02.37.17.36-.01.36-.01.36-.01.36-.01.37-.01.36-.01.36-.01.36-.01h.36l.37-.01h.72l.36-.01H49l.36-.01h.73l.36-.01h.36l.36.39h1.09l.36-.01h1.45l.36-.01h1.09l.36-.01h1.45l.36-.01h1.45l.36-.01h1.81l.36-.01h1.09l.36-.01h1.81l.37-.01h1.81l.36-.01h2.17l.36-.01h1.81l.37-.01h1.81l.36-.01h1.81l.36-.01h1.81l.36-.01h2.9l.36-.01h2.17l.37-.01h2.17l.36-.01h2.9l.36-.01h2.53l.37-.01h3.62l.36-.01h2.9l.36-.01h3.62l.36-.01h2.54l.36-.01h3.62l.36-.01h3.98l.37-.01h3.62l.36-.01h3.62l.36-.01h3.62l.37-.01h3.98l.36-.01h4.71l.36-.01h4.35l.36-.01h4.34l.36-.01h3.99l.36-.01h3.98l.37-.01h5.06l.37-.01h5.07l.36-.01h8.33l.36-.01h4.71l.36-.01h1.81l.36-.01h5.07l.36-.01h5.07l.36-.01h5.07l.36-.01h3.99l.36-.02h5.79l.37-.01h6.51l.37-.01h6.51l.36-.01h7.97l.36-.01h5.8l.36-.01h7.6l.36-.01h5.44l.36-.01h2.9l.36-.02h6.15l.36-.02h9.06l.36-.01h7.97l.36-.01h8.69l.36-.13h.72l.37-.01h9.05l.36-.01h9.42l.36-.01h6.15l.36-.22h9.06l.36-.02h6.15l.37-.01h7.96l.37-.01h10.86l.36-.01h8.33l.36-.01h12.67l.37-.01h.72"/><use xlink:href="#1d2c3__a" color="#D336C8" transform="matrix(3.75 0 0 3.75 182.98 136.4)"/><use xlink:href="#1d2c3__a" color="#D336C8" transform="matrix(3.75 0 0 3.75 78.65 52.51)"/></g><text stroke-linecap="round" stroke-linejoin="round" color="#000" font-family="KaTeX_Main" font-size="8" transform="translate(241.1 10.11)"><tspan>RedBlackBottomUp</tspan></text><g fill="none" stroke="currentColor" stroke-linecap="round" stroke-linejoin="round" color="#000"><path stroke="#F44336" d="M205.6 7.51h29.9M28 136.24l.36-.04.36-.03.37-.04.36-.03.36.74.36-.01.36-.01.37-.01.36-.02.36-.01.36-.01.37-.02.36-.01.36-.02.36-.02.36-.01.37-.02.36-.02.36-.02.36-.02.36-.02.37-.02.36-.01h.36l.36.01.36-.01.37-.02.36-.02.36-.01.36-.02.36-.02.37-.02.36-.01.36-.02.36-.02.37-.05.36-.01.36-.02.36-.01.36-.02.37-.01.36-.02.36-.01.36-.02.36-.01.37-.02.36-.02.36-.01.36-.01.36-.01.37-.01.36.33.36-.02h.73l.36-.06h.36l.36-.01h1.45l.36-.01h1.09l.36-.01h1.09l.36-.01h.72l.37-.01.36.01.36-.01h.72l.37.01.36-.01h1.45l.36-.01.36.01h.36l.36-.01h.37l.36.05h1.81l.36-.01h3.62l.36-.01h3.99l.36-.01h.36l.36-.02h.37l.36.01.36-.03h1.45l.36-.01h2.17l.36-.01h3.26l.37-.01h.36l.36-.06.36.01.36.01h.73l.36-.01h1.09l.36.01h3.26l.36.05h.72l.37-.01.36.01h1.81l.36.01h2.54l.36-.02h.72l.36-.01h1.81l.37.03.36-.01h1.08l.37.01.36-.01.36.01h.73l.36-.05h1.08l.37-.01.36-.01h1.81l.36-.01h6.88l.36-.01h.36l.37.01.36-.01h1.08l.37-.02.36.01h1.45l.36-.01h.36l.36.01h.37l.36-.04h10.5l.36-.01h3.62l.36-.01h1.45l.36.01h.73l.36-.01h1.81l.36.01h2.18l.36.02.36-.01h.72l.37-.01h4.34l.36.01h.37l.36-.01h.36l.36.01h1.09l.36.01h1.81l.36-.01h.36l.37.01.36-.01h.72l.37.01.36-.01h1.08l.37-.01h3.98l.36.05h5.07l.36-.01h6.52l.36.01h.36l.37.03.36.02h2.53l.37-.01.36-.01h.36l.36.01h.73l.36-.01h5.07l.36.01h1.81l.36-.07h4.35l.36.01h.36l.36-.01h1.45l.36-.01h1.45l.36-.01.37.01h.72l.36-.01h9.78l.36.02h1.09l.36-.01.36.01h6.16l.36.06h2.17l.36.01h.37l.36-.01.36.01.36-.01h2.54l.36.01h.36l.36.01h.37l.36-.01.36.01h1.09l.36-.01h2.53l.36-.01h.37l.36.01.36-.01h3.26l.36.01h.73l.36-.01h4.71l.36.01h5.43l.36-.01.36.01h1.09l.36.01h1.45l.36-.01h2.17l.37-.01h4.34l.36.01h.73l.36-.06h2.9l.36.01h4.71l.36-.01.36.01h2.9l.36.05.36.01.36-.01h3.99l.36-.01h.72l.36.01.37-.01h.72l.36-.01h.73l.36-.01h5.07l.36.01.36-.01h2.54l.36-.01h1.45l.36.01.36-.01h.36l.37.01h1.08l.36-.06h4.71l.36.01h1.81l.37-.01h1.08l.37.01h1.08l.36-.01H305l.36-.01h3.63l.36-.01h7.96l.37.01h1.44l.37.01.36.01h6.52l.36-.01.36-.01.36.01h7.61l.36-.01h4.71l.36.01.36-.02h.72l.37.01h2.53l.36-.01h10.5l.37.01h1.08l.36-.01h2.54l.36.01h.36l.37-.01h.36l.36.01.36-.01h.36l.37.01.36-.01h3.98l.36-.05h1.45l.36-.01h.73l.36.06h1.81"/><use xlink:href="#1d2c3__a" color="#F44336" transform="matrix(3.75 0 0 3.75 240.55 136.24)"/><use xlink:href="#1d2c3__a" color="#F44336" transform="matrix(3.75 0 0 3.75 220.55 7.51)"/></g><text stroke-linecap="round" stroke-linejoin="round" color="#000" font-family="KaTeX_Main" font-size="8" transform="translate(241.1 25.11)"><tspan>LBSTBottomUp</tspan></text><g fill="none" stroke="currentColor" stroke-linecap="round" stroke-linejoin="round" color="#000"><path stroke="#3B75EA" d="M205.6 22.51h29.9M28 136.51l.36-.04.36.27.37-.01.36-.02.36-.02.36-.01.36-.02.37-.02.36-.02.36-.02.36-.02.37-.02.36-.02.36-.02.36-.02.36-.02.37-.02.36-.03.36-.02.36-.02h.36l.37.34h.72l.36-.01h.36l.37-.01h.36l.36-.01.36-.01h.36l.37-.01.36-.01.36-.01h.36l.37-.01.36-.01.36-.01.36.05.36-.01.37-.01.36-.01.36-.01.36-.01h.36l.37-.01.36-.01.36-.01.36-.01.36-.01h9.42l.36-.01h25.71l.36-.01.36.01.37-.01h4.34l.36.01h12.68l.36-.01h2.17l.36.01h1.09l.36-.01.36.01h4.35l.36-.01h70.97l.36-.01h36.58l.36-.01H221l.36.01h2.9l.36-.01h3.26l.36.01h.72l.36-.01h142.67"/><use xlink:href="#1d2c3__f" color="#3B75EA" transform="matrix(3.75 0 0 3.75 298.12 136.54)"/><use xlink:href="#1d2c3__f" color="#3B75EA" transform="matrix(3.75 0 0 3.75 220.55 22.51)"/></g><text stroke-linecap="round" stroke-linejoin="round" color="#000" font-family="KaTeX_Main" font-size="8" transform="translate(241.1 40.11)"><tspan>LBSTRelaxed</tspan></text><g fill="none" stroke="currentColor" stroke-linecap="round" stroke-linejoin="round" color="#000"><path stroke="#FFAB00" stroke-dasharray="4.0,2.0,1.0,2.0" d="M205.6 37.51h29.9M28 131.47l.36-.1.36-.1.37-.11.36-.1.36-.09.36-.1.36-.09.37-.1.36-.09.36-.09.36-.09.37-.08.36-.09.36-.08.36-.09.36-.08.37-.08.36-.08.36-.08.36-.07.36-.08.37 3.31.36-.05.36 3.81.36-.03.36-.02.37-.02.36-.02.36-.03.36-.02.36-.03.37-.02.36-.02.36-.03.36-.02.37-.03.36-.02.36-.03.36-.02.36-.03.37-.03.36-.02.36-.03.36-.03.36-.02.37-.03.36-.03.36-.02.36-.03.36-.02.37-.01h1.45l.36-.01h1.45l.36-.01h1.81l.36-.01h1.45l.36-.01h1.81l.36-.01h1.81l.37-.01h1.44l.37-.01h1.44l.37-.01h1.45l.36-.01h2.17l.36-.01h1.45l.36-.01H70l.37-.01h1.81l.36-.01h1.81l.36-.01h2.17l.36-.01h1.82l.36-.01h1.45l.36-.01h1.81l.36-.01h1.81l.36-.01h1.45l.36-.01h2.18l.36-.01h2.17l.36-.01h2.18l.36-.01h2.17l.36-.01h2.17l.37-.01h1.81l.36-.01h2.17l.36-.01h2.18l.36-.01h2.53l.37-.01h2.53l.36-.01h2.17l.37-.01h1.81l.36-.01h2.9l.36-.01h2.17l.36-.01h2.18l.36-.01h2.53l.36-.01h1.81l.37-.01h2.89l.37-.01h3.25l.37-.01h3.26l.36-.01h2.89l.37-.01h2.89l.37-.01h2.89l.36-.01h3.63l.36-.01h2.89l.37-.01h2.89l.37-.01h2.89l.36-.01h3.26l.36-.01h4.71l.36-.01h3.99l.36-.01h3.98l.36-.01h2.9l.36-.01h2.54l.36-.01h3.62l.36-.01h3.62l.37-.01h2.89l.37-.01h4.34l.36-.01h3.26l.36-.01h3.26l.36-.01h4.71l.36-.01h2.9l.36-.01h3.62l.37-.01h3.62l.36-.01h3.26l.36-.01h3.62l.36-.01h3.26l.36-.01h5.07l.36-.01h4.71l.36-.01h4.71l.36-.01h5.8l.36-.01h4.34l.37-.01h4.34l.36-.01h4.71l.36-.01h5.07l.36-.01h6.88l.37-.01h4.7l.37-.01h7.6l.36-.01h5.43l.37-.01h5.43l.36-.01h6.88l.36-.01h3.98l.37-.01h6.51l.37-.01h4.34l.36-.01h7.61l.36-.01.36.01.36-.01h7.24l.37-.01h6.51l.37-.01h6.15l.36-.01h5.8l.36-.01"/><use xlink:href="#1d2c3__g" color="#FFAB00" transform="matrix(3.75 0 0 3.75 355.7 135.16)"/><use xlink:href="#1d2c3__g" color="#FFAB00" transform="matrix(3.75 0 0 3.75 220.55 37.51)"/></g><text stroke-linecap="round" stroke-linejoin="round" color="#000" font-family="KaTeX_Main" font-size="8" transform="translate(241.1 55.11)"><tspan>TreapTopDown</tspan></text><g fill="none" stroke="currentColor" stroke-linecap="round" stroke-linejoin="round" color="#000"><path stroke="#00C853" stroke-dasharray="4.5,2.0,0.5,2.0,0.5,2.0" d="M205.6 52.51h29.9M28 124.85l.36.04.36-.02.37-.05.36.2.36-.02.36-.02.36-.15.37.16.36-.03.36-.01.36.01.37-.16.36-.05.36.03.36-.02.36-.03.37-.29h.36l.36-.03.36.1.36.05.37-.51.36.18.36.1.36-.01.36.65.37.04.36-.07.36-.01.36-.02.36-.05.37-.05.36-.01.36-.01.36-.04.37-.29h.36l.36-.06.36-.02.36-.03.37-.1.36-.02.36-.09.36-.02.36-.04.37-.01.36-.05.36-.04.36.1.36-.03.37-.01.36-.03.36.03.36.06.37.03.36-.23h.36l.36-.01.36-.01.37.49.36-.01.36-.01.36.01.36-.06h.37l.36-.08h.36l.36.01h.73l.36-.02.36.04.36.05.37-.1.36-.01h.36l.36-.01h.36l.37-.04.36.01.36-.04.36-.01.36.01.37.04.36.04.36.01.36-.01h.36l.37.03.36.01.36.3.36-.04.36.06h.37l.36.11.36.03.36.02.37-.04.36.01h.36l.36-.01.36-.05.37.12.36-.04.36-.01.36-.03.36-.13h.37l.36.03.36.04.36.08.36.02.37.03.36-.08.36-.12.36-.01.37.01.36-.15h1.08l.37.06.36-.01.36-.06.36-.01.36.01.37-.01.36-.01.36.4.36.02.36-.1.37.05.36.02.36.01h1.09l.36-.02.36-.07.36-.8.37-.11.36.03.36-.05h.36l.36.04.37.06.36-.05.36-.18.36-.01.36-.03.37.14.36-.09.36.03h.36l.36-.01.37-.11.36.01.36.02.36.41.37.02h.36l.36-.01.36-.03h.36l.37.01.36-.29.36.09.36-.02.36.23.37.47.36.05.36-.14.36.03.36-.05.37.03.36-.03.36-.07.36-.03.36.02.37-.01.36-.55h.36l.36-.02.37-.05.36-.01.36.02h.36l.36-.03.37-.02.36.23.36-.02.36-.09.36.7.37.01.36-.03.36.56.36-.05.36.09h.37l.36.01.36.01.36-.02h.37l.36-.14.36-.05.36-.02.36.03.37-.02.36.01.36.04.36-.02.36-.17.37.03.36.01.36.03.36.01.36-.06h.73l.36-.15.36-.02.37.03.36-.18.36-.03.36-.03.36.05.37-.02.36.01.36.05.36-.02h.36l.37-.12.36-.04.36-.13.36-.01.36.06.37.02h.72l.36-.16.36.3.37.02.36.09.36.02.36-.04.37-.02.36-.05.36.01.36-.06.36.04.37.06.36-.01.36.09.36-.08.36-.03.37-.01.36.01.36.06h.36l.36.06.37-.06.36.25.36.01.36-.01.37.03.36-.27.36-.01.36.03h.36l.37.04.36-.02.36.69.36.01.36.22.37-.02.36.01.36-.02.36.01.36.01.37-.35.36-.02.36-.01.36.03.36.03.37-.04.36-.31.36-.03.36-.01.37.12.36-.07h.36l.36.01.36-.06.37.01.36-.07.36.04.36.01.36.03.37.04.36.03.36.11.36-.02.36.03.37.05.36-.02.36.28.36.02.37.02.36.01.36-.02.36-.03h.36l.37-.01.36.01h.36l.36.01.36-.03.37-.01.36.18.36.03.36.3.36-.02.37.03.36.04h.72l.36-.15.37-.02.36.01.36.01.36.03.37-.03.36.02.36.01.36-.01.36.01.37-.02h.36l.36.01.36.01.36.01.37.02.36-.13.36.03.36-.03.36.04.37-.04h.36l.36.04.36-.01h.37l.36.03h.36l.36-.04.36-1.14h.37l.36-.03.36.03.36-.02h.36l.37.06.36.01.36-.01.36-.04h.36l.37-.11h.36l.36.04.36.06.37-.07.36-.01.36-.01.36.39h.36l.37.01.36.02.36-.03.36-.09h.36l.37.01.36-.06.36.06.36-.05.36.58.37.03.36-.03.36.02.36-.13.36-.08.37-.03.36.02.36.11.36-.49.37-.07.36-.01.36.01.36.08.36.04.37.01.36-.02.36.03.36.01.36.02.37-.08.36.02.36.08.36-.02.36-.42.37-.04.36-.03.36-.01h.36l.37.01.36-.01.36-.1.36-.01.36.02.37-.01.36.03.36-.11.36-.09.36.01h.37l.36.11.36.05.36-.63.36.02h.37l.36-.02.36-.01.36-.02.36-.16.37.12.36-.03h.36l.36-.03.37.03.36-.01.36.01.36-.02.36.22.37.04h.36l.36.01.36.48.36-.05.37.3.36-.03.36.02.36.01.36-.01.37.03.36-.05.36.3.36-.03.37-.03.36.05.36.01.36.47.36.01h.37l.36.01h.36l.36-.01.36-.05.37.03.36-.01.36.02.36.05.36-.02.37-.02.36-.03.36-.04.36-.01h.37l.36.01.36-.03.36.02.36.02.37.02h.36l.36.01.36.05.36-.01.37.03.36.02.36-.03.36-.14.36-.19.37.16.36-.01.36-.02.36-.01.36.01.37-.02h.36l.36.01.36.02.37-.01h.36l.36.01.36-.09.36.01.37.03.36-.01h.36l.36-.19.36.11.37.02.36-.03.36-.09.36-.01.36.05.37-.02.36.05.36.02.36-.08.37.05.36.03h.36l.36-.01.36-.07.37.02.36.02.36.07.36.01.36.17.37-.03.36.08.36-.01.36-.04.36-.01.37-.08h.36l.36.02.36-.02.36.01.37-.02.36-.02.36-.01.36-.18.37.05.36-.07.36.03.36-.06.36.01.37.02.36.16.36.01h.36l.36.01.37-.18.36-.61.36.06.36.01.36.28.37-.02h.36l.36-.05.36.01.37.01h.36l.36-.04.36.02.36-.05.37-.02.36.01.36-.22.36-.24.36.28.37.03.36-.01h.36l.36-.01.36.04.37-.01.36-.13.36-.01h.36l.36.03.37.04.36.03.36.01.36-.03.37.03.36.01.36.01.36.01.36.06.37-.02.36.03.36.02.36.05.36.03.37.11.36-.01h.36l.36-.49.36.02.37.06h.36l.36.06.36-.03h.37l.36.08h.36l.36.03.36.01.37.12.36-.03.36.01.36.03.36-.62.37.06.36-.01.36-.04h.36l.36.06h.37l.36-.01.36.22.36.01.37-.03.36-.01.36-.01h.36l.36.02.37-.04.36-.09.36-.02.36-.04.36-.02h.73l.36-.34.36-.02.36.05.37.16.36.15h.36l.36-.02h.36l.37.04.36-.02.36-.05.36.07.37-.01.36.04.36.18.36.02h1.45l.36.41.36-.01.37-.02.36-.55.36.1.36-.06.36.07.37.14.36.11.36.01.36.12.37-.01.36.01.36.07.36-.04.36-.1.37.04h.36l.36.05.36.01.36.03.37.03h.72l.36.02.36.09.37-.02.36.03.36.01.36.01.36-.02.37-.1.36-.03.36-1.27.36.03.37-.04.36.05.36-.05.36.01.36-.05.37.02h.36l.36.18.36-.02.36-.04.37-.05.36-.15.36-.12.36-.06.36.05.37-.04h.36l.36-.03.36-.02.37.01.36-.05.36.64.36-.01.36.02.37-1.2.36.01.36.03.36-.22h.36l.37-.05.36.14.36.77.36.07.36-.02.37-.03h.36l.36.01.36-.03.36.05h.37l.36.04.36-.01.36-.39h.37l.36.36h.36l.36-.02.36.1.37.01.36.02.36.02.36.02.36.09.37-.04h.36l.36-.01.36.08h.36l.37-.01.36-.04.36-.01.36.02.37-.04.36.07.36-.01.36-.02.36.04.37-.05h.36l.36-.05.36-.06.36-.01.37-.01.36.06.36-.43.36-.01.36-.02.37.03h.36l.36-.01.36.02h.37l.36-.4.36-.04.36.01.36-.02.37.04.36.02.36-.02h.36l.36-.14.37-.01.36.01.36.01.36-.09.36-.02.37.02.36-.09.36.5.36.18.36.02.37-.01.36-.04h.36l.36.16.37.05.36-.02.36-.05.36.09.36-.02.37-.05.36.02.36.01.36.01.36.04.37-.03.36.04.36-.04h.36l.36-.02.37-.04.36.02.36.02.36-.47.37.01.36-.25.36.01.36.03.36-.14.37.01.36-.01h.36l.36.16h.36l.37-.02.36-.02.36.03.36-.02h.36l.37.04.36.03.36.03.36-.21.36.01.37-.02h.36l.36-.11.36-.53.37-.01.36-.04.36.06h.36l.36-.04.37-.03.36.01.36-.01.36-.05.36-.03.37-.01.36.01.36.03.36.21.36-.01.37.02h.36l.36.01.36-.03.37-.01.36.08.36.06.36.3.36.02.37.03.36-.01.36.03.36.03h.36l.37.01.36-.01.36.07.36-.01.36.02.37-.02.36-.01.36.02.36-.02.36-.03.37-.01.36-.03.36-.02.36.05h.37l.36.03.36-.02.36.01.36.02.37.17.36.01.36-.04.36.01h.36l.37.16.36.02.36.48.36.02.36.01.37-.41.36.01.36-.03h.36l.37.04.36-.02.36.46.36-.37.36-.02h.37l.36.03.36-.07.36.03.36.01h.37l.36.07.36-.02.36 1.12h.36l.37-.01.36-.11.36-.01.36-.01h.37l.36-.08h.36l.36.04.36-.05.37-.11.36.01.36-.19.36.03.36.27.37.02.36.01.36.01.36-.09.36.24.37.04.36.11.36.03.36-.05.36.03.37.02.36-.08.36-.01.36.05h.37l.36.01.36-.04.36-.01.36-.08.37.03h.36l.36.02"/><use xlink:href="#1d2c3__h" color="#00C853" transform="matrix(3.75 0 0 3.75 69.28 124.65)"/><use xlink:href="#1d2c3__h" color="#00C853" transform="matrix(3.75 0 0 3.75 220.55 52.51)"/></g><path fill="none" d="M28 75.01v87.49m343.99-87.49H28" color="#000"/></svg>