<svg xmlns="http://www.w3.org/2000/svg" xmlns:xlink="http://www.w3.org/1999/xlink" viewBox="0 0 400 200"><path fill="none" d="M0 0h400v200H0z"/><defs><use xlink:href="#83aa6__a" id="83aa6__d" fill="currentColor" stroke="none"/><use xlink:href="#83aa6__b" id="83aa6__c" stroke="currentColor" transform="rotate(180)"/><circle id="83aa6__a" cx="0" cy="0" r="1" stroke="currentColor" stroke-width=".267"/><path id="83aa6__b" stroke="currentColor" stroke-width=".267" d="m0-1.33-1.33 2h2.66z"/></defs><path fill="none" stroke="#CCC" stroke-linecap="round" stroke-linejoin="round" stroke-width=".1" d="M46.1 162.5V45.01" class="83aa6__gridline" color="#000"/><g fill="none" stroke-linecap="round" stroke-linejoin="round" stroke-width="0" color="#000"><path d="M46.1 162.5V155m0-109.99v7.5"/><text fill="#000" font-family="KaTeX_Main" font-size="8" text-anchor="middle" transform="translate(46.1 172.6)"><tspan> 1</tspan></text></g><path fill="none" stroke="#CCC" stroke-linecap="round" stroke-linejoin="round" stroke-width=".1" d="M82.31 162.5V45.01" class="83aa6__gridline" color="#000"/><g fill="none" stroke-linecap="round" stroke-linejoin="round" stroke-width="0" color="#000"><path d="M82.31 162.5V155m0-109.99v7.5"/><text fill="#000" font-family="KaTeX_Main" font-size="8" text-anchor="middle" transform="translate(82.31 172.6)"><tspan> 2</tspan></text></g><path fill="none" stroke="#CCC" stroke-linecap="round" stroke-linejoin="round" stroke-width=".1" d="M118.52 162.5V45.01" class="83aa6__gridline" color="#000"/><g fill="none" stroke-linecap="round" stroke-linejoin="round" stroke-width="0" color="#000"><path d="M118.52 162.5V155m0-109.99v7.5"/><text fill="#000" font-family="KaTeX_Main" font-size="8" text-anchor="middle" transform="translate(118.52 172.6)"><tspan> 3</tspan></text></g><path fill="none" stroke="#CCC" stroke-linecap="round" stroke-linejoin="round" stroke-width=".1" d="M154.73 162.5V45.01" class="83aa6__gridline" color="#000"/><g fill="none" stroke-linecap="round" stroke-linejoin="round" stroke-width="0" color="#000"><path d="M154.73 162.5V155m0-109.99v7.5"/><text fill="#000" font-family="KaTeX_Main" font-size="8" text-anchor="middle" transform="translate(154.73 172.6)"><tspan> 4</tspan></text></g><path fill="none" stroke="#CCC" stroke-linecap="round" stroke-linejoin="round" stroke-width=".1" d="M190.94 162.5V45.01" class="83aa6__gridline" color="#000"/><g fill="none" stroke-linecap="round" stroke-linejoin="round" stroke-width="0" color="#000"><path d="M190.94 162.5V155m0-109.99v7.5"/><text fill="#000" font-family="KaTeX_Main" font-size="8" text-anchor="middle" transform="translate(190.94 172.6)"><tspan> 5</tspan></text></g><path fill="none" stroke="#CCC" stroke-linecap="round" stroke-linejoin="round" stroke-width=".1" d="M227.15 162.5V45.01" class="83aa6__gridline" color="#000"/><g fill="none" stroke-linecap="round" stroke-linejoin="round" stroke-width="0" color="#000"><path d="M227.15 162.5V155m0-109.99v7.5"/><text fill="#000" font-family="KaTeX_Main" font-size="8" text-anchor="middle" transform="translate(227.15 172.6)"><tspan> 6</tspan></text></g><path fill="none" stroke="#CCC" stroke-linecap="round" stroke-linejoin="round" stroke-width=".1" d="M263.36 162.5V45.01" class="83aa6__gridline" color="#000"/><g fill="none" stroke-linecap="round" stroke-linejoin="round" stroke-width="0" color="#000"><path d="M263.36 162.5V155m0-109.99v7.5"/><text fill="#000" font-family="KaTeX_Main" font-size="8" text-anchor="middle" transform="translate(263.36 172.6)"><tspan> 7</tspan></text></g><path fill="none" stroke="#CCC" stroke-linecap="round" stroke-linejoin="round" stroke-width=".1" d="M299.57 162.5V45.01" class="83aa6__gridline" color="#000"/><g fill="none" stroke-linecap="round" stroke-linejoin="round" stroke-width="0" color="#000"><path d="M299.57 162.5V155m0-109.99v7.5"/><text fill="#000" font-family="KaTeX_Main" font-size="8" text-anchor="middle" transform="translate(299.57 172.6)"><tspan> 8</tspan></text></g><path fill="none" stroke="#CCC" stroke-linecap="round" stroke-linejoin="round" stroke-width=".1" d="M335.78 162.5V45.01" class="83aa6__gridline" color="#000"/><g fill="none" stroke-linecap="round" stroke-linejoin="round" stroke-width="0" color="#000"><path d="M335.78 162.5V155m0-109.99v7.5"/><text fill="#000" font-family="KaTeX_Main" font-size="8" text-anchor="middle" transform="translate(335.78 172.6)"><tspan> 9</tspan></text></g><path fill="none" stroke="#CCC" stroke-linecap="round" stroke-linejoin="round" stroke-width=".1" d="M371.99 162.5V45.01" class="83aa6__gridline" color="#000"/><g fill="none" stroke-linecap="round" stroke-linejoin="round" stroke-width="0" color="#000"><path d="M371.99 162.5V155m0-109.99v7.5"/><text fill="#000" font-family="KaTeX_Main" font-size="8" text-anchor="middle" transform="translate(371.99 172.6)"><tspan> 10</tspan></text></g><g fill="none" stroke-linecap="round" stroke-linejoin="round" stroke-width="0" color="#000"><path d="M371.99 162.5h-7.5"/><text fill="#000" font-family="KaTeX_Main" font-size="8" transform="translate(378.99 165.1)"><tspan>0.66</tspan></text></g><g fill="none" stroke-linecap="round" stroke-linejoin="round" stroke-width="0" color="#000"><path d="M371.99 145.72h-7.5"/><text fill="#000" font-family="KaTeX_Main" font-size="8" transform="translate(378.99 148.32)"><tspan>0.67</tspan></text></g><g fill="none" stroke-linecap="round" stroke-linejoin="round" stroke-width="0" color="#000"><path d="M371.99 128.93h-7.5"/><text fill="#000" font-family="KaTeX_Main" font-size="8" transform="translate(378.99 131.53)"><tspan>0.67</tspan></text></g><g fill="none" stroke-linecap="round" stroke-linejoin="round" stroke-width="0" color="#000"><path d="M371.99 112.15h-7.5"/><text fill="#000" font-family="KaTeX_Main" font-size="8" transform="translate(378.99 114.75)"><tspan>0.68</tspan></text></g><g fill="none" stroke-linecap="round" stroke-linejoin="round" stroke-width="0" color="#000"><path d="M371.99 95.36h-7.5"/><text fill="#000" font-family="KaTeX_Main" font-size="8" transform="translate(378.99 97.96)"><tspan>0.68</tspan></text></g><g fill="none" stroke-linecap="round" stroke-linejoin="round" stroke-width="0" color="#000"><path d="M371.99 78.58h-7.5"/><text fill="#000" font-family="KaTeX_Main" font-size="8" transform="translate(378.99 81.18)"><tspan>0.69</tspan></text></g><g fill="none" stroke-linecap="round" stroke-linejoin="round" stroke-width="0" color="#000"><path d="M371.99 61.79h-7.5"/><text fill="#000" font-family="KaTeX_Main" font-size="8" transform="translate(378.99 64.39)"><tspan>0.69</tspan></text></g><g fill="none" stroke-linecap="round" stroke-linejoin="round" stroke-width="0" color="#000"><path d="M371.99 45.01h-7.5"/><text fill="#000" font-family="KaTeX_Main" font-size="8" transform="translate(378.99 47.61)"><tspan>0.70</tspan></text></g><path fill="none" d="M28 45.01V162.5M371.99 45.01H28" color="#000"/><text stroke-linecap="round" stroke-linejoin="round" stroke-width="0" color="#000" font-family="KaTeX_Main" font-size="10" text-anchor="middle" transform="rotate(-90 57.63 46.13)"><tspan font-weight="bold">Rotations</tspan><tspan> / Operations</tspan></text><text stroke-linecap="round" stroke-linejoin="round" stroke-width="0" color="#000" font-family="KaTeX_Main" font-size="10" text-anchor="middle" transform="translate(199.99 195.75)"><tspan>Operations / 10</tspan><tspan dy="-5" font-size="8">6</tspan></text><text stroke-linecap="round" stroke-linejoin="round" color="#000" font-family="KaTeX_Main" font-size="8" transform="translate(71.2 10.11)"><tspan>RedBlackBottomUp</tspan></text><g fill="none" stroke="currentColor" stroke-linecap="round" stroke-linejoin="round" color="#000"><path stroke="#F44336" d="M35.7 7.51h29.9M28 75.69l.36 8.53.36-1.75.37-3.82.36-1.68.36-5.24.36-1.61.36 10.34.37 7.05.36-10.74.36 14.43.36-14.64.37 1.01.36-13.96.36 19.13.36-22.22.36 32.69.37-16.98.36 39.07.36-22.96.36-1.74.36 10.6.37-4.29.36-16.45.36 23.63.36 22.02.36-32.9.37 9.61.36-9.67.36 16.04.36-23.96.36.94.37 10.2.36 11.28.36-25.71.36 13.96.37 5.57.36-6.64.36 4.43.36 7.45.36-11.08.37-10.4.36 11.74.36-9.06.36 7.12.36 10.81.37-21.55.36 4.69.36 5.31.36-16.05.36 9.54.37 12.69.36-12.22.36-3.9.36 16.92.37-2.75.36-2.42.36 9.27.36-21.29.36 10.48.37 1.54.36 9.06.36-1.61.36-25.24.36 9 .37 5.7.36 9.2.36 3.02.36-21.35.36 26.92.37-13.89.36-19.2.36 20.54.36-9.2.37 12.29.36-13.36.36 19.74.36-6.11.36-4.3.37 28.6.36-34.11.36 26.52.36-9.13.36-20.54.37-12.62.36 21.95.36 10.68.36-8.6.36-5.44.37 2.02.36 10.54.36-6.45.36-13.83.36 8.13.37 3.82.36 15.65.36 1 .36-15.84.37-2.15.36 7.05.36-11.41.36-25.04.36 27.05.37 19.94.36-49.95.36 26.25.36-3.42.36-6.72.37 22.76.36-20.47.36 14.03.36-3.02.36-10.81.37 4.43.36-5.98.36 19.81.36-16.52.37-11.95.36-1.68.36 8.8.36 5.84.36-14.43.37 8.99.36 1.41.36 25.11.36-12.89.36-20.81.37 16.51.36-13.02.36 4.83.36-2.21.36 17.05.37-7.38.36-12.42.36 7.18.36 2.95.36 19.41.37-14.71.36-.2.36-8.32.36-2.62.37 9.06.36-9.46.36-.41.36 8.26.36-7.32.37 22.63.36-20.95.36 4.36.36 9.54.36-10.61.37 60.56.36 2.82.36-13.76.36 7.04.36 5.64.37-26.45.36-6.98.36 27.73.36-8.86.37 6.57.36-14.9.36-1.75.36-2.82.36 10.95.37-7.66.36 22.5.36-9.47.36 1.14.36-8.73.37 3.16.36 4.63.36-5.3.36-5.44.36 1.88.37-.67.36-16.38.36 14.36.36 16.72.36-15.04.37 9.07.36 6.17.36 1.81.36-10.67.37 11.88.36-8.59.36-3.76.36-18.33.36 2.69.37 8.32.36 6.18.36-3.83.36 15.44.36-2.41.37-22.83.36 14.64.36 6.04.36-20.14.36 29.6.37-19.8.36 11.55.36 1.67.36-22.35.37 6.24.36-7.72.36 9.67.36-7.25.36 1.07.37 24.57.36-21.55.36 29.27.36-20.74.36 3.22.37-20.21.36 28.2.36-20.68.36-13.29.36 13.43.37 13.49.36-4.03.36-.73.36-8.33.37 5.91.36 23.03.36-19.81.36 12.62.36-14.23.37-17.19.36 17.19.36 4.83.36-.47.36-34.03.37 25.98.36 11.54.36-17.59.36 3.56.36 8.53.37 4.77.36-.74.36-6.25.36 14.44.36-28 .37 35.32.36-26.32.36 15.1.36-27.72.37 30.34.36-10.54.36-7.38.36 9.26.36 1.75.37-30.48.36 2.95.36-4.97.36 4.43.36 2.35.37 8.19.36-11.95.36 3.09.36-2.35.36 3.23.37-.27.36 4.43.36-12.96.36 13.7.37-11.62.36 5.57.36-11.01.36 15.04.36-5.91.37 7.12.36-10.61.36 15.31.36-20.07.36 29.07.37-33.37.36 4.9.36-2.55.36 7.92.36-1.54.37 1.41.36 3.89.36-.94.36-7.25.36 9.6.37-17.25.36 10.6.36 2.96.36 6.58.37-.81.36-18.06.36 9.67.36 8.33.36-8.93.37 1.74.36 1.21.36 8.46.36-16.52.36 8.06.37-12.35.36 27.99.36 3.56.36-18.39.36 7.45.37-.27.36-12.96.36-.67.36 17.52.37-21.21.36 9.46.36-5.3.36-4.43.36 18.73.37-6.91.36 3.49.36-4.23.36-15.98.36 22.22.37-16.45.36-5.17.36-1.68.36 7.79.36 9.67.37-7.65.36 7.45.36-10.21.36 11.62.36-7.79.37 2.08.36 7.05.36 16.05.36-20.68.37 6.04.36-16.65.36-1.34.36 7.58.36 7.05.37-.33.36 3.15.36-12.82.36 2.08.36-.2.37-1.01.36 8.06.36.87.36 8.33.36-22.09.37 2.48.36-5.9.36 11.07.36-.74.37 21.56.36-23.43.36 8.39.36-18.73.36 28.13.37-24.37.36 18.32.36-8.79.36-3.96.36-5.91.37 12.15.36-1.61.36 4.03.36-12.15.36-1.14.37 1.14.36 9.87.36-5.17.36 11.41.37-2.89.36-8.12.36 14.5.36-18.19.36-2.82.37 17.25h.36l.36-6.24.36 16.11.36 3.29.37-14.9.36-20.08.36 11.01.36 5.31.36-2.42.37 17.45.36-12.01.36-4.57.36 7.92.36-.73.37 20.41.36-41.36.36 19.2.36-1.14.37 9.13.36-11.62.36 6.05.36-13.56.36 4.22.37-10.33.36.6.36 16.85.36 3.02.36-23.36.37 16.65.36 10.88.36-5.64.36-8.26.36 14.57.37-4.3.36-8.66.36-5.77.36 14.43.37 7.72.36 1.81.36-7.25.36-9.46.36-5.24.37 9.06.36 2.29.36-13.97.36 15.31.36-4.3.37 15.58.36-28.13.36 14.23.36 2.69.36-14.17.37-1.61.36 12.15.36 2.75.36-28.66.36 33.56.37-15.17.36.6.36-6.24.36 7.25.37 12.89.36-31.35.36 31.49.36-3.96.36-12.49.37 18.33.36-22.23.36 22.23.36-14.37.36-.74.37.13.36 3.23.36-.94.36-.14.36 12.62.37-8.25.36-2.49.36 4.57.36-5.78.37 16.25.36-39.21.36 20.14.36 10.28.36-4.64.37-12.35.36 3.29.36 6.04.36 1.88.36-5.84.37 7.39.36-2.96.36-5.3.36 5.84.36 23.7.37-16.78.36 6.24.36-22.29.36 25.65.37-29.41.36-2.89.36 13.97.36 8.26.36.6.37-4.43.36 10.34.36.13.36-13.02.36-10.68.37-4.09.36 22.35.36-6.24.36-12.22.36 28.2.37-12.22.36-20.01.36 8.46.36 10.88.36 5.24.37-11.89.36 1.68.36 8.19.36 3.42.37-1.67.36-9.2.36 7.38.36-7.65.36 17.19.37-22.76.36-1.81.36 7.45.36-3.96.36 9.73.37-16.78.36 6.44.36 20.75.36-26.19.36-.4.37 22.36.36-11.01.36.47.36 6.85.37-13.1.36 11.35.36-8.33.36-3.08.36 4.83.37 6.31.36-.2.36-23.16.36 17.72.36 13.03.37-1.75.36-18.6.36-14.43.36 23.77.36-3.5.37.34.36-2.69.36-.73.36 19.67.36-18.47.37-5.84.36 11.62.36 5.84.36-7.79.37-3.76.36-1.34.36.47.36-5.64.36 28.67.37-27.6.36-.94.36-2.82.36 25.85.36.81.37-22.49.36 20.14.36-14.5.36 5.1.36-.47.37-9.6.36 5.17.36 5.03.36-13.89.37 28.6.36-10.88.36-9.27.36 19.47.36-3.42.37-18.33.36 21.82.36-23.23.36 15.31.36-.13.37-6.79.36-1.47.36-4.03.36-1.28.36 1.95.37 22.89.36-8.52.36-8.06.36-.33.36-2.35.37 2.28.36 33.7.36-44.11.36 19.74.37-9.67.36-1.74.36 1.27.36-9.33.36 15.71.37-9.13.36 10.14.36 4.09.36-9.6.36 9.8.37-28.19.36 23.09.36-10.2.36 14.57.36-7.66.37 8.86.36-4.16.36-11.41.36 13.56.37-24.24.36 12.76.36 16.05.36-39.88.36 17.12.37 14.23.36-17.59.36 17.59.36 13.36.36-37.53.37 35.18.36-11.14.36 9.06.36-15.38.36 8.66.37-24.7.36 15.51.36 5.64.36-17.26.37 20.81.36 1.08.36 7.72.36-32.43.36 21.55.37-2.14.36-13.97.36-4.5.36 19.27.36-11.82.37 8.67.36-20.68.36 26.78.36-15.24.36 12.29.37-10.94.36 9.53.36-6.98.36-7.65.36 20.14.37-6.65.36 10.54.36-6.18.36-1.54.37 21.08.36-19.27.36-.2.36 3.69.36-12.28.37-5.58.36 14.24.36-1.61.36-3.43.36-11.81.37-2.69.36 22.49.36-12.55.36-6.65.36 9.4.37-13.23.36 16.59.36-4.84.36-8.46.37 6.05.36-5.71.36-4.03.36 15.64.36-14.43.37 22.83.36-20.82.36-5.7.36 6.24.36 10 .37 7.66.36-15.18.36 13.97.36 1.95.36-32.16.37 23.09.36-14.36.36 20.14.36 12.55.36-6.04.37-11.55.36-.33.36 13.76.36-24.98.37 19.94.36-14.16.36-9 .36 9.53.36 15.04.37-11.21.36 15.31.36-25.31.36 10.2.36 2.55.37-16.91.36 2.41.36 16.05.36-2.15.36 6.24.37-21.75.36 16.99.36-13.3.36-5.1.37 20.48.36-11.21.36-4.9.36 10.87.36-7.92.37 6.98.36 14.64.36-26.05.36 18.39.36-14.1.37 28.54.36-23.16.36-9.54.36 20.75.36-19.34.37 10.74.36-7.99.36 5.78.36.6.36-7.45.37 7.32.36-6.85.36 11.75.36-9.27.37-2.01.36 7.45.36-6.91.36 15.1.36-4.02.37-4.97.36 12.28.36-17.39.36-4.43.36 10.61.37 1.08.36-10.34.36-.07.36 9 .36 6.17.37-4.83.36-2.42.36 1.01.36-12.56.37 8.53.36-15.78.36 30.55.36-8.12.36-21.35.37 33.23.36-15.64.36 15.84.36-27.39.36 9.94.37 21.35.36-19 .36 13.89.36-30.95.36 23.43.37-20.94.36 31.69.36-32.5.36 10.74.37 10.68.36-12.49.36 8.26.36 4.5.36-9.27.37 5.57.36-.53.36 16.92.36-38.27.36 15.44.37 3.36.36-8.93.36 3.49.36 17.86.36-27.46.37 14.97.36 1.41.36 15.24.36-24.17.36-5.84.37 4.97.36 3.76.36 1.07.36-4.9.37-1.34.36 9.33.36-.87.36 16.31.36-15.91.37.67.36 17.59.36-13.16.36-6.71.36 3.02.37-4.43.36-9.33.36 29.6.36-24.37.36-1.81.37-4.97.36 17.99.36-14.43.36 10.27.37 14.84.36-27.86.36 23.63.36 5.24.36 23.49.37-46.45.36 17.32.36-3.49.36-1.55.36-10.27.37 18.46.36-4.16.36-12.89.36-.81.36-10.74.37 21.69.36 4.23.36 1.61.36-23.5.36 5.1.37 12.02.36-8.46.36-4.77.36 3.23.37-15.65.36 21.02.36-22.9.36 22.96.36-1.81.37-13.76.36 5.37.36 14.3.36-16.05.36-9.13.37 25.85.36-14.03.36-7.45.36 2.48.36 11.62.37-17.86.36 25.64.36-1.07.36 6.44.37-25.1.36 13.49.36-23.03.36 23.43.36-5.57.37 5.84.36-4.83.36-.2.36 7.31.36-3.08.37-18.67.36 5.78.36 21.55.36-20.41.36 12.55.37-3.49.36 2.82.36-6.18.36-6.44.36 18.06.37 3.02.36 4.16.36-17.05.36 17.86.37-10.34.36-18.8.36 20.41.36-10.94.36 9.93.37-8.12.36 11.61.36-30.27.36 38.13.36-19.67.37 6.98.36-18.53.36 28.06.36 3.63.36-24.51.37 10.95.36 3.89.36-4.23.36-2.21.37-5.44.36-2.75.36 5.43.36 13.03.36-22.36.37 14.91.36 3.22.36-22.09.36-4.97.36 8.93.37 15.44.36-20.74.36 15.24.36 12.96.36-12.83.37-5.17.36 15.44.36 11.89.36-16.32.37 16.59.36-13.03.36-12.02.36-10.34.36 15.11.37-6.98.36-2.28.36 17.72.36-2.62.36-25.98.37 5.71.36 29.87.36-32.96.36 3.35.36 18.06.37-22.29.36 14.91.36 1.54.36 15.04.36-2.41.37-23.5.36 11.01.36 14.83.36-24.5.37 24.57.36-11.48.36-6.04.36-4.9.36 5.84.37-11.15.36 18.94.36 19.67"/><use xlink:href="#83aa6__b" color="#F44336" transform="matrix(3.75 0 0 3.75 354.25 100.94)"/><use xlink:href="#83aa6__b" color="#F44336" transform="matrix(3.75 0 0 3.75 50.65 7.51)"/></g><text stroke-linecap="round" stroke-linejoin="round" color="#000" font-family="KaTeX_Main" font-size="8" transform="translate(71.2 25.11)"><tspan>RedBlackTopDown</tspan></text><g fill="none" stroke="currentColor" stroke-linecap="round" stroke-linejoin="round" color="#000"><path stroke="#3B75EA" d="M35.7 22.51h29.9M28 59.44l.36 6.18.36 3.16.37-5.58.36-2.68.36-.81.36-13.76.36 18.93.37-2.21.36-5.91.36 18.66.36-17.52.37 4.3.36-9.13.36 14.57.36-22.03.36 30.95.37-10.47.36 30.88.36-18.06.36-2.35.36 10.54.37-7.04.36-16.45.36 22.89.36 14.91.36-15.65.37 7.86.36-12.42.36 5.84.36-22.09.36 7.38.37 5.78.36 21.21.36-37.86.36 22.69.37-3.42.36-4.3.36 3.29.36 5.1.36-4.97.37-19.6.36 23.3.36-9 .36 5.84.36 11.88.37-27.92.36 10.8.36 5.11.36-21.55.36 17.52.37 11.95.36-15.17.36-6.25.36 17.12.37-3.56.36.07.36 10.34.36-19.54.36 13.7.37-.47h.36l.36 1.28.36-21.35.36 2.48.37 2.42.36 12.95.36 11.28.36-31.22.36 27.73.37-14.3.36-12.55.36 19.67.36-19.67.37 14.1.36-4.1.36 14.9.36-6.57.36-4.57.37 34.71.36-27.26.36 17.93.36-16.45.36-13.7.37-20.2.36 25.04.36 6.38.36 6.24.36-14.97.37 2.35.36 16.58.36-8.59.36-12.42.36-8.73.37 8.39.36 15.91.36 15.85.36-19.34.37-6.71.36 7.52.36-13.23.36-12.76.36 14.24.37 21.35.36-46.46.36 29.2.36.07.36-8.53.37 16.12.36-18.73.36 15.17.36-5.78.36-14.3.37 6.85.36-.47.36 18.67.36-17.66.37-13.7.36-3.55.36 15.71.36-.61.36-9.47.37 5.44.36.07.36 24.3.36-9.33.36-19.67.37 11.41.36-7.78.36 8.12.36-6.65.36 12.76.37-3.16.36-11.14.36 1.21.36 8.39.36 18.39.37-13.62.36-5.85.36 2.02.36-9.74.37 6.72.36-10.68.36 8.19.36.41.36-6.45.37 34.38.36-31.22.36.6.36 12.42.36-5.77.37 52.43.36 5.51.36-12.89.36 10.94.36-2.48.37-23.3.36-4.7.36 28.06.36-14.43.37 11.41.36-14.23.36-6.24.36.33.36 13.63.37-1.95.36 9.94.36-2.49.36 1.62.36-10.14.37 11.48.36 1.01.36-11.28.36-3.36.36 1.41.37-2.01.36-13.36.36 8.99.36 24.51.36-23.23.37 16.58.36 1.75.36-.27.36-6.65.37 4.77.36-.74.36-7.59.36-16.11.36 6.38.37.2.36 7.79.36-3.23.36 16.25.36-.47.37-27.52.36 17.32.36 8.05.36-21.01.36 30.75.37-17.26.36 13.16.36 2.82.36-20.41.37 2.96.36-2.35.36-4.7.36-.61.36-1.21.37 27.13.36-27.26.36 31.62.36-21.41.36 1.2.37-18.12.36 24.77.36-19.87.36-16.18.36 25.98.37 4.9.36.34.36 1.34.36-9.47.37-6.24.36 32.56.36-20.88.36 9.2.36-9.67.37-13.43.36 19.61.36-4.84.36 1.95.36-44.58.37 43.84.36 10.01.36-13.5.36-8.26.36 9.13.37 6.25.36 7.18.36-12.15.36 19.4.36-33.97.37 36.12.36-26.52.36 16.79.36-34.78.37 35.58.36-11.21.36-16.52.36 20.55.36.06.37-35.51.36 2.95.36-.33.36 6.64.36-1.34.37 19.27.36-20.81.36 7.25.36-13.43.36 3.22.37-2.41.36 16.91.36-14.09.36 10.34.37-12.63.36 9.67.36-12.89.36 10.07.36-.33.37 4.76.36-12.75.36 21.68.36-29.87.36 37.73.37-37.47.36-.33.36 4.9.36 6.44.36-7.38.37 8.53.36 4.7.36-.47.36-5.78.36 9.13.37-23.36.36 10.2.36 2.76.36 15.84.37-3.76.36-18.19.36 1.61.36 14.9.36-17.59.37 11.35.36-4.63.36 12.08.36-18.53.36 7.86.37-8.73.36 31.28.36-6.44.36-5.24.36-2.68.37-.61.36-13.09.36-8.53.36 30.42.37-20.34.36 6.78.36-9.34.36-5.5.36 20.95.37-9.61.36 13.57.36-7.46.36-21.88.36 26.85.37-12.08.36-16.05.36-4.09.36 13.76.36 12.02.37-10.41.36 14.84.36-18.87.36 10.14.36 4.3.37.94.36.53.36 18.67.36-18.8.37 1.61.36-13.76.36-5.78.36 15.98.36 4.23.37-4.03.36 1.15.36-9.07.36.88.36.8.37-5.03.36 13.22.36-5.77.36 15.77.36-25.57.37 2.88.36-4.83.36 11.48.36.74.37 11.95.36-14.44.36.54.36-4.83.36 27.46.37-30.28.36 19.47.36-16.18.36 3.22.36-2.35.37 4.23.36 2.01.36 3.09.36-4.7.36-12.82.37 5.24.36 10.67.36-5.1.36 8.46.37-7.92.36-8.33.36 21.22.36-24.44.36-2.42.37 21.01.36 6.52.36-8.87.36 6.11.36 12.89.37-16.91.36-10.21.36 2.89.36 9.2.36-3.56.37 11.75.36-8.46.36-5.44.36 10.81.36-8.33.37 28.94.36-41.69.36 8.79.36 2.08.37 7.05.36-9.93.36 1 .36-5.5.36-.2.37-7.66.36 2.15.36 14.03.36-1.74.36-14.1.37 19.4.36 12.89.36-15.51.36-4.97.36 18.67.37-2.42.36-14.5.36-11.14.36 17.99.37 8.46.36-.34.36-2.82.36-16.58.36-.87.37 20.81.36-4.7.36-15.51.36 11.62.36-1.82.37 18.26.36-35.38.36 16.92.36-2.68.36-9.87.37 1.27.36 9.07.36 10.67.36-28.73.36 32.42.37-19.73.36 4.22.36-14.09.36 11.21.37 8.73.36-26.59.36 35.25.36-1.82.36-19.13.37 20.34.36-27.59.36 32.83.36-16.38.36-10.07.37 3.22.36 11.68.36-9.47.36 6.38.36 4.84.37-9 .36 1.75.36 8.25.36-12.62.37 21.89.36-40.08.36 21.82.36 10.14.36-11.15.37-11.55.36 2.62.36 8.06.36 2.08.36-7.92.37 8.25.36-.06.36-7.92.36 6.98.36 25.58.37-19.81.36 10.07.36-21.82.36 15.85.37-20.95.36 1.88.36 14.84.36 3.56.36-3.03.37-6.98.36 12.76.36.94.36-16.79.36-5.57.37-1.41.36 27.93.36-17.12.36-3.56.36 14.57.37-10.61.36-17.18.36 9.6.36 9.46.36 2.82.37-7.65.36-2.69.36 16.25.36 1.88.37 1.95.36-10.07.36 7.65.36-6.98.36 8.19.37-23.16.36 7.18.36-.87.36-2.62.36 16.45.37-10.01.36-2.82.36 15.78.36-20.94.36.94.37 18.93.36-14.84.36 5.37.36 1.21.37-1.95.36 2.02.36-7.59.36-.4.36 6.71.37 10.14.36-6.11.36-29.54.36 29.88.36 2.35.37 3.89.36-16.45.36-17.32.36 24.24.36-4.77.37-1.48.36 1.75.36-.14.36 12.63.36-17.66.37-3.36.36 11.48.36 5.57.36-3.76.37-4.36.36-8.79.36 9.06.36-5.04.36 19.47.37-15.51.36-9.86.36-3.63.36 22.89.36 13.57.37-30.82.36 16.78.36-10.07.36 4.7.36 1.41.37-8.93.36 3.09.36 10.34.36-17.45.37 25.98.36-12.83.36-15.17.36 28.8.36.07.37-17.72.36 22.69.36-32.9.36 32.9.36-10.07.37-16.12.36 2.42.36-2.15.36 4.64.36-3.7.37 19.88.36-9.6.36-5.04.36-5.04.36.81.37.13.36 38.61.36-51.43.36 29.81.37-16.99.36 10.08.36-7.39.36-5.71.36 18.6.37-13.96.36 9.19.36 6.18.36-14.03.36 7.59.37-15.98.36 10.81.36-2.62.36 6.11.36-4.37.37 17.79.36-6.64.36-13.56.36 15.3.37-28.73.36 19.33.36 7.99.36-35.71.36 16.18.37 15.57.36-16.24.36 17.32.36 10 .36-41.42.37 46.59.36-20.07.36 9.39.36-11.01.36-3.15.37-16.92.36 22.63.36-.34.36-24.71.37 26.86.36 5.91.36 4.83.36-38.34.36 21.49.37 1.68.36-16.32.36 5.58.36 5.7.36-.27.37 7.39.36-17.66.36 17.46.36-11.62.36 12.36.37-10.28.36 9.34.36-7.99.36-11.89.36 21.42.37-3.36.36 18.2.36-10.48.36-3.76.37 17.66.36-20.88.36 2.02.36 6.44.36-7.85.37-10.08.36 15.98.36-.67.36-11.68.36-4.36.37-8.19.36 19.87.36-10.54.36-4.84.36 7.05.37-4.56.36 14.77.36-6.18.36-14.16.37 7.25.36-2.42.36-8.26.36 17.39.36-13.83.37 20.07.36-16.31.36-4.77.36 3.49.36 12.69.37 4.9.36-13.29.36 19.34.36-.14.36-36.72.37 18.73.36-7.25.36 22.02.36 10.67.36-7.25.37-15.51.36 7.86.36 7.72.36-29.14.37 28.54.36-23.64.36 7.52.36 1.35.36 7.45.37-7.45.36 15.91.36-20.75.36 6.58.36-3.49.37-9.47.36.41.36 18.86.36-4.43.36 6.72.37-22.63.36 17.32.36-9.53.36-5.17.37 11.21.36-14.23.36 5.44.36 8.99.36-5.84.37 3.09.36 18.33.36-25.18.36 18.46.36-21.41.37 32.76.36-20.01.36-13.76.36 19.4.36-23.03.37 15.24.36-9.86.36 12.35.36 1.95.36-10.68.37 3.76.36-1.95.36 9.54.36-4.23.37-5.71.36 10.14.36-10.34.36 3.15.36 4.64.37 4.5.36 5.5.36-20.07.36-9.07.36 13.43.37-3.56.36-1.27.36-10.68.36 24.17.36 3.56.37-7.59.36-2.88.36 3.42.36-15.37.37 6.51.36-9.13.36 33.1.36-17.8.36-17.45.37 28.4.36-9.94.36 15.85.36-28.4.36 15.37.37 13.36.36-20.41.36 22.76.36-36.25.36 19.33.37-19.6.36 34.04.36-37.67.36 21.22.37 12.02.36-11.42.36 6.38.36-1.74.36-9 .37 8.53.36-1.55.36 20.81.36-33.36.36 7.72.37 1.47.36-4.63.36-3.15.36 20.34.36-26.39.37 16.99.36.6.36 6.85.36-10.4.36-13.16.37 7.65.36 1.81.36 3.02.36-17.18.37 3.15.36 16.25.36-6.91.36 19.06.36-16.65.37 7.79.36 17.25.36-18.12.36-10.61.36 2.42.37-3.43.36 2.82.36 20.41.36-27.66.36 3.76.37-5.44.36 16.99.36-15.98.36 14.77.37 11.48.36-28.87.36 30.21.36 6.05.36 13.15.37-50.35.36 25.18.36-2.35.36-4.7.36-10.47.37 19.13.36-10.94.36-10.07.36-5.44.36.8.37 21.35.36 2.76.36 1.54.36-22.36.36 4.57.37 10.2.36-10 .36-4.57.36 7.05.37-17.38.36 16.31.36-12.82.36 20.41.36.13.37-10.74.36-1.01.36 11.62.36-11.15.36-17.25.37 31.22.36-11.28.36-6.38.36-1.34.36 7.72.37-19.07.36 31.76.36-6.18.36 11.68.37-21.89.36 10.21.36-23.1.36 18.13.36-7.12.37 8.93.36-2.68.36 2.28.36.54h.36l.37-20.55.36 9.94.36 24.37.36-29.14.36 15.51.37-7.32.36 2.09.36-9.07.36 5.51.36 15.1.37-.13.36 1.01.36-6.05.36 16.12.37-12.49.36-20.28.36 30.22.36-17.66.36 6.17.37-.94.36 6.11.36-30.41.36 40.35.36-24.24.37 10.28.36-17.19.36 25.11.36 5.23.36-25.24.37 13.9.36 3.62.36-2.88.36-2.29.37-9.6.36.07.36 4.3.36 3.82.36-15.03.37 11.34.36 4.5.36-13.96.36-3.56.36 7.65.37 9 .36-22.9.36 21.96.36 15.24.36-23.16.37.67.36 18.26.36 7.92.36-12.22.37 14.37.36-17.93.36-4.97.36-11.74.36 10.6.37-5.57.36-10.54.36 28.06.36 2.35.36-37.46.37 14.17.36 27.39.36-37.33.36 7.99.36 19.34.37-22.76.36 17.25.36 5.71.36 3.22.36-8.19.37-6.04.36 1.94.36 13.5.36-15.78.37 25.78.36-18.6.36-3.96.36-14.43.36 9.4.37-6.31.36 12.69.36 16.18"/><use xlink:href="#83aa6__c" color="#3B75EA" transform="matrix(3.75 0 0 3.75 67.83 81.87)"/><use xlink:href="#83aa6__c" color="#3B75EA" transform="matrix(3.75 0 0 3.75 50.65 22.51)"/></g><text stroke-linecap="round" stroke-linejoin="round" color="#000" font-family="KaTeX_Main" font-size="8" transform="translate(241.1 10.11)"><tspan>RedBlackRelaxedBottomUp</tspan></text><g fill="none" stroke="currentColor" stroke-linecap="round" stroke-linejoin="round" color="#000"><path stroke="#EC6F1A" stroke-dasharray="1.0,2.0" d="M205.6 7.51h29.9M28 75.69l.36 8.53.36-1.75.37-3.82.36-1.68.36-5.24.36-1.61.36 10.34.37 7.05.36-10.74.36 14.43.36-14.64.37 1.01.36-13.96.36 19.13.36-22.22.36 32.69.37-16.98.36 39.07.36-22.96.36-1.74.36 10.6.37-4.29.36-16.45.36 23.63.36 22.02.36-32.9.37 9.61.36-9.67.36 16.04.36-23.96.36.94.37 10.2.36 11.28.36-25.71.36 13.96.37 5.57.36-6.64.36 4.43.36 7.45.36-11.08.37-10.4.36 11.74.36-9.06.36 7.12.36 10.81.37-21.55.36 4.69.36 5.31.36-16.05.36 9.54.37 12.69.36-12.22.36-3.9.36 16.92.37-2.75.36-2.42.36 9.27.36-21.29.36 10.48.37 1.54.36 9.06.36-1.61.36-25.24.36 9 .37 5.7.36 9.2.36 3.02.36-21.35.36 26.92.37-13.89.36-19.2.36 20.54.36-9.2.37 12.29.36-13.36.36 19.74.36-6.11.36-4.3.37 28.6.36-34.11.36 26.52.36-9.13.36-20.54.37-12.62.36 21.95.36 10.68.36-8.6.36-5.44.37 2.02.36 10.54.36-6.45.36-13.83.36 8.13.37 3.82.36 15.65.36 1 .36-15.84.37-2.15.36 7.05.36-11.41.36-25.04.36 27.05.37 19.94.36-49.95.36 26.25.36-3.42.36-6.72.37 22.76.36-20.47.36 14.03.36-3.02.36-10.81.37 4.43.36-5.98.36 19.81.36-16.52.37-11.95.36-1.68.36 8.8.36 5.84.36-14.43.37 8.99.36 1.41.36 25.11.36-12.89.36-20.81.37 16.51.36-13.02.36 4.83.36-2.21.36 17.05.37-7.38.36-12.42.36 7.18.36 2.95.36 19.41.37-14.71.36-.2.36-8.32.36-2.62.37 9.06.36-9.46.36-.41.36 8.26.36-7.32.37 22.63.36-20.95.36 4.36.36 9.54.36-10.61.37 60.56.36 2.82.36-13.76.36 7.04.36 5.64.37-26.45.36-6.98.36 27.73.36-8.86.37 6.57.36-14.9.36-1.75.36-2.82.36 10.95.37-7.66.36 22.5.36-9.47.36 1.14.36-8.73.37 3.16.36 4.63.36-5.3.36-5.44.36 1.88.37-.67.36-16.38.36 14.36.36 16.72.36-15.04.37 9.07.36 6.17.36 1.81.36-10.67.37 11.88.36-8.59.36-3.76.36-18.33.36 2.69.37 8.32.36 6.18.36-3.83.36 15.44.36-2.41.37-22.83.36 14.64.36 6.04.36-20.14.36 29.6.37-19.8.36 11.55.36 1.67.36-22.35.37 6.24.36-7.72.36 9.67.36-7.25.36 1.07.37 24.57.36-21.55.36 29.27.36-20.74.36 3.22.37-20.21.36 28.2.36-20.68.36-13.29.36 13.43.37 13.49.36-4.03.36-.73.36-8.33.37 5.91.36 23.03.36-19.81.36 12.62.36-14.23.37-17.19.36 17.19.36 4.83.36-.47.36-34.03.37 25.98.36 11.54.36-17.59.36 3.56.36 8.53.37 4.77.36-.74.36-6.25.36 14.44.36-28 .37 35.32.36-26.32.36 15.1.36-27.72.37 30.34.36-10.54.36-7.38.36 9.26.36 1.75.37-30.48.36 2.95.36-4.97.36 4.43.36 2.35.37 8.19.36-11.95.36 3.09.36-2.35.36 3.23.37-.27.36 4.43.36-12.96.36 13.7.37-11.62.36 5.57.36-11.01.36 15.04.36-5.91.37 7.12.36-10.61.36 15.31.36-20.07.36 29.07.37-33.37.36 4.9.36-2.55.36 7.92.36-1.54.37 1.41.36 3.89.36-.94.36-7.25.36 9.6.37-17.25.36 10.6.36 2.96.36 6.58.37-.81.36-18.06.36 9.67.36 8.33.36-8.93.37 1.74.36 1.21.36 8.46.36-16.52.36 8.06.37-12.35.36 27.99.36 3.56.36-18.39.36 7.45.37-.27.36-12.96.36-.67.36 17.52.37-21.21.36 9.46.36-5.3.36-4.43.36 18.73.37-6.91.36 3.49.36-4.23.36-15.98.36 22.22.37-16.45.36-5.17.36-1.68.36 7.79.36 9.67.37-7.65.36 7.45.36-10.21.36 11.62.36-7.79.37 2.08.36 7.05.36 16.05.36-20.68.37 6.04.36-16.65.36-1.34.36 7.58.36 7.05.37-.33.36 3.15.36-12.82.36 2.08.36-.2.37-1.01.36 8.06.36.87.36 8.33.36-22.09.37 2.48.36-5.9.36 11.07.36-.74.37 21.56.36-23.43.36 8.39.36-18.73.36 28.13.37-24.37.36 18.32.36-8.79.36-3.96.36-5.91.37 12.15.36-1.61.36 4.03.36-12.15.36-1.14.37 1.14.36 9.87.36-5.17.36 11.41.37-2.89.36-8.12.36 14.5.36-18.19.36-2.82.37 17.25h.36l.36-6.24.36 16.11.36 3.29.37-14.9.36-20.08.36 11.01.36 5.31.36-2.42.37 17.45.36-12.01.36-4.57.36 7.92.36-.73.37 20.41.36-41.36.36 19.2.36-1.14.37 9.13.36-11.62.36 6.05.36-13.56.36 4.22.37-10.33.36.6.36 16.85.36 3.02.36-23.36.37 16.65.36 10.88.36-5.64.36-8.26.36 14.57.37-4.3.36-8.66.36-5.77.36 14.43.37 7.72.36 1.81.36-7.25.36-9.46.36-5.24.37 9.06.36 2.29.36-13.97.36 15.31.36-4.3.37 15.58.36-28.13.36 14.23.36 2.69.36-14.17.37-1.61.36 12.15.36 2.75.36-28.66.36 33.56.37-15.17.36.6.36-6.24.36 7.25.37 12.89.36-31.35.36 31.49.36-3.96.36-12.49.37 18.33.36-22.23.36 22.23.36-14.37.36-.74.37.13.36 3.23.36-.94.36-.14.36 12.62.37-8.25.36-2.49.36 4.57.36-5.78.37 16.25.36-39.21.36 20.14.36 10.28.36-4.64.37-12.35.36 3.29.36 6.04.36 1.88.36-5.84.37 7.39.36-2.96.36-5.3.36 5.84.36 23.7.37-16.78.36 6.24.36-22.29.36 25.65.37-29.41.36-2.89.36 13.97.36 8.26.36.6.37-4.43.36 10.34.36.13.36-13.02.36-10.68.37-4.09.36 22.35.36-6.24.36-12.22.36 28.2.37-12.22.36-20.01.36 8.46.36 10.88.36 5.24.37-11.89.36 1.68.36 8.19.36 3.42.37-1.67.36-9.2.36 7.38.36-7.65.36 17.19.37-22.76.36-1.81.36 7.45.36-3.96.36 9.73.37-16.78.36 6.44.36 20.75.36-26.19.36-.4.37 22.36.36-11.01.36.47.36 6.85.37-13.1.36 11.35.36-8.33.36-3.08.36 4.83.37 6.31.36-.2.36-23.16.36 17.72.36 13.03.37-1.75.36-18.6.36-14.43.36 23.77.36-3.5.37.34.36-2.69.36-.73.36 19.67.36-18.47.37-5.84.36 11.62.36 5.84.36-7.79.37-3.76.36-1.34.36.47.36-5.64.36 28.67.37-27.6.36-.94.36-2.82.36 25.85.36.81.37-22.49.36 20.14.36-14.5.36 5.1.36-.47.37-9.6.36 5.17.36 5.03.36-13.89.37 28.6.36-10.88.36-9.27.36 19.47.36-3.42.37-18.33.36 21.82.36-23.23.36 15.31.36-.13.37-6.79.36-1.47.36-4.03.36-1.28.36 1.95.37 22.89.36-8.52.36-8.06.36-.33.36-2.35.37 2.28.36 33.7.36-44.11.36 19.74.37-9.67.36-1.74.36 1.27.36-9.33.36 15.71.37-9.13.36 10.14.36 4.09.36-9.6.36 9.8.37-28.19.36 23.09.36-10.2.36 14.57.36-7.66.37 8.86.36-4.16.36-11.41.36 13.56.37-24.24.36 12.76.36 16.05.36-39.88.36 17.12.37 14.23.36-17.59.36 17.59.36 13.36.36-37.53.37 35.18.36-11.14.36 9.06.36-15.38.36 8.66.37-24.7.36 15.51.36 5.64.36-17.26.37 20.81.36 1.08.36 7.72.36-32.43.36 21.55.37-2.14.36-13.97.36-4.5.36 19.27.36-11.82.37 8.67.36-20.68.36 26.78.36-15.24.36 12.29.37-10.94.36 9.53.36-6.98.36-7.65.36 20.14.37-6.65.36 10.54.36-6.18.36-1.54.37 21.08.36-19.27.36-.2.36 3.69.36-12.28.37-5.58.36 14.24.36-1.61.36-3.43.36-11.81.37-2.69.36 22.49.36-12.55.36-6.65.36 9.4.37-13.23.36 16.59.36-4.84.36-8.46.37 6.05.36-5.71.36-4.03.36 15.64.36-14.43.37 22.83.36-20.82.36-5.7.36 6.24.36 10 .37 7.66.36-15.18.36 13.97.36 1.95.36-32.16.37 23.09.36-14.36.36 20.14.36 12.55.36-6.04.37-11.55.36-.33.36 13.76.36-24.98.37 19.94.36-14.16.36-9 .36 9.53.36 15.04.37-11.21.36 15.31.36-25.31.36 10.2.36 2.55.37-16.91.36 2.41.36 16.05.36-2.15.36 6.24.37-21.75.36 16.99.36-13.3.36-5.1.37 20.48.36-11.21.36-4.9.36 10.87.36-7.92.37 6.98.36 14.64.36-26.05.36 18.39.36-14.1.37 28.54.36-23.16.36-9.54.36 20.75.36-19.34.37 10.74.36-7.99.36 5.78.36.6.36-7.45.37 7.32.36-6.85.36 11.75.36-9.27.37-2.01.36 7.45.36-6.91.36 15.1.36-4.02.37-4.97.36 12.28.36-17.39.36-4.43.36 10.61.37 1.08.36-10.34.36-.07.36 9 .36 6.17.37-4.83.36-2.42.36 1.01.36-12.56.37 8.53.36-15.78.36 30.55.36-8.12.36-21.35.37 33.23.36-15.64.36 15.84.36-27.39.36 9.94.37 21.35.36-19 .36 13.89.36-30.95.36 23.43.37-20.94.36 31.69.36-32.5.36 10.74.37 10.68.36-12.49.36 8.26.36 4.5.36-9.27.37 5.57.36-.53.36 16.92.36-38.27.36 15.44.37 3.36.36-8.93.36 3.49.36 17.86.36-27.46.37 14.97.36 1.41.36 15.24.36-24.17.36-5.84.37 4.97.36 3.76.36 1.07.36-4.9.37-1.34.36 9.33.36-.87.36 16.31.36-15.91.37.67.36 17.59.36-13.16.36-6.71.36 3.02.37-4.43.36-9.33.36 29.6.36-24.37.36-1.81.37-4.97.36 17.99.36-14.43.36 10.27.37 14.84.36-27.86.36 23.63.36 5.24.36 23.49.37-46.45.36 17.32.36-3.49.36-1.55.36-10.27.37 18.46.36-4.16.36-12.89.36-.81.36-10.74.37 21.69.36 4.23.36 1.61.36-23.5.36 5.1.37 12.02.36-8.46.36-4.77.36 3.23.37-15.65.36 21.02.36-22.9.36 22.96.36-1.81.37-13.76.36 5.37.36 14.3.36-16.05.36-9.13.37 25.85.36-14.03.36-7.45.36 2.48.36 11.62.37-17.86.36 25.64.36-1.07.36 6.44.37-25.1.36 13.49.36-23.03.36 23.43.36-5.57.37 5.84.36-4.83.36-.2.36 7.31.36-3.08.37-18.67.36 5.78.36 21.55.36-20.41.36 12.55.37-3.49.36 2.82.36-6.18.36-6.44.36 18.06.37 3.02.36 4.16.36-17.05.36 17.86.37-10.34.36-18.8.36 20.41.36-10.94.36 9.93.37-8.12.36 11.61.36-30.27.36 38.13.36-19.67.37 6.98.36-18.53.36 28.06.36 3.63.36-24.51.37 10.95.36 3.89.36-4.23.36-2.21.37-5.44.36-2.75.36 5.43.36 13.03.36-22.36.37 14.91.36 3.22.36-22.09.36-4.97.36 8.93.37 15.44.36-20.74.36 15.24.36 12.96.36-12.83.37-5.17.36 15.44.36 11.89.36-16.32.37 16.59.36-13.03.36-12.02.36-10.34.36 15.11.37-6.98.36-2.28.36 17.72.36-2.62.36-25.98.37 5.71.36 29.87.36-32.96.36 3.35.36 18.06.37-22.29.36 14.91.36 1.54.36 15.04.36-2.41.37-23.5.36 11.01.36 14.83.36-24.5.37 24.57.36-11.48.36-6.04.36-4.9.36 5.84.37-11.15.36 18.94.36 19.67"/><use xlink:href="#83aa6__a" color="#EC6F1A" transform="matrix(3.75 0 0 3.75 125.4 109.86)"/><use xlink:href="#83aa6__a" color="#EC6F1A" transform="matrix(3.75 0 0 3.75 220.55 7.51)"/></g><text stroke-linecap="round" stroke-linejoin="round" color="#000" font-family="KaTeX_Main" font-size="8" transform="translate(241.1 25.11)"><tspan>RedBlackRelaxedTopDown</tspan></text><g fill="none" stroke="currentColor" stroke-linecap="round" stroke-linejoin="round" color="#000"><path stroke="violet" stroke-dasharray="4.0,2.0,1.0,2.0" d="M205.6 22.51h29.9M28 59.44l.36 6.18.36 3.16.37-5.58.36-2.68.36-.81.36-13.76.36 18.93.37-2.21.36-5.91.36 18.66.36-17.52.37 4.3.36-9.13.36 14.57.36-22.03.36 30.95.37-10.47.36 30.88.36-18.06.36-2.35.36 10.54.37-7.04.36-16.45.36 22.89.36 14.91.36-15.65.37 7.86.36-12.42.36 5.84.36-22.09.36 7.38.37 5.78.36 21.21.36-37.86.36 22.69.37-3.42.36-4.3.36 3.29.36 5.1.36-4.97.37-19.6.36 23.3.36-9 .36 5.84.36 11.88.37-27.92.36 10.8.36 5.11.36-21.55.36 17.52.37 11.95.36-15.17.36-6.25.36 17.12.37-3.56.36.07.36 10.34.36-19.54.36 13.7.37-.47h.36l.36 1.28.36-21.35.36 2.48.37 2.42.36 12.95.36 11.28.36-31.22.36 27.73.37-14.3.36-12.55.36 19.67.36-19.67.37 14.1.36-4.1.36 14.9.36-6.57.36-4.57.37 34.71.36-27.26.36 17.93.36-16.45.36-13.7.37-20.2.36 25.04.36 6.38.36 6.24.36-14.97.37 2.35.36 16.58.36-8.59.36-12.42.36-8.73.37 8.39.36 15.91.36 15.85.36-19.34.37-6.71.36 7.52.36-13.23.36-12.76.36 14.24.37 21.35.36-46.46.36 29.2.36.07.36-8.53.37 16.12.36-18.73.36 15.17.36-5.78.36-14.3.37 6.85.36-.47.36 18.67.36-17.66.37-13.7.36-3.55.36 15.71.36-.61.36-9.47.37 5.44.36.07.36 24.3.36-9.33.36-19.67.37 11.41.36-7.78.36 8.12.36-6.65.36 12.76.37-3.16.36-11.14.36 1.21.36 8.39.36 18.39.37-13.62.36-5.85.36 2.02.36-9.74.37 6.72.36-10.68.36 8.19.36.41.36-6.45.37 34.38.36-31.22.36.6.36 12.42.36-5.77.37 52.43.36 5.51.36-12.89.36 10.94.36-2.48.37-23.3.36-4.7.36 28.06.36-14.43.37 11.41.36-14.23.36-6.24.36.33.36 13.63.37-1.95.36 9.94.36-2.49.36 1.62.36-10.14.37 11.48.36 1.01.36-11.28.36-3.36.36 1.41.37-2.01.36-13.36.36 8.99.36 24.51.36-23.23.37 16.58.36 1.75.36-.27.36-6.65.37 4.77.36-.74.36-7.59.36-16.11.36 6.38.37.2.36 7.79.36-3.23.36 16.25.36-.47.37-27.52.36 17.32.36 8.05.36-21.01.36 30.75.37-17.26.36 13.16.36 2.82.36-20.41.37 2.96.36-2.35.36-4.7.36-.61.36-1.21.37 27.13.36-27.26.36 31.62.36-21.41.36 1.2.37-18.12.36 24.77.36-19.87.36-16.18.36 25.98.37 4.9.36.34.36 1.34.36-9.47.37-6.24.36 32.56.36-20.88.36 9.2.36-9.67.37-13.43.36 19.61.36-4.84.36 1.95.36-44.58.37 43.84.36 10.01.36-13.5.36-8.26.36 9.13.37 6.25.36 7.18.36-12.15.36 19.4.36-33.97.37 36.12.36-26.52.36 16.79.36-34.78.37 35.58.36-11.21.36-16.52.36 20.55.36.06.37-35.51.36 2.95.36-.33.36 6.64.36-1.34.37 19.27.36-20.81.36 7.25.36-13.43.36 3.22.37-2.41.36 16.91.36-14.09.36 10.34.37-12.63.36 9.67.36-12.89.36 10.07.36-.33.37 4.76.36-12.75.36 21.68.36-29.87.36 37.73.37-37.47.36-.33.36 4.9.36 6.44.36-7.38.37 8.53.36 4.7.36-.47.36-5.78.36 9.13.37-23.36.36 10.2.36 2.76.36 15.84.37-3.76.36-18.19.36 1.61.36 14.9.36-17.59.37 11.35.36-4.63.36 12.08.36-18.53.36 7.86.37-8.73.36 31.28.36-6.44.36-5.24.36-2.68.37-.61.36-13.09.36-8.53.36 30.42.37-20.34.36 6.78.36-9.34.36-5.5.36 20.95.37-9.61.36 13.57.36-7.46.36-21.88.36 26.85.37-12.08.36-16.05.36-4.09.36 13.76.36 12.02.37-10.41.36 14.84.36-18.87.36 10.14.36 4.3.37.94.36.53.36 18.67.36-18.8.37 1.61.36-13.76.36-5.78.36 15.98.36 4.23.37-4.03.36 1.15.36-9.07.36.88.36.8.37-5.03.36 13.22.36-5.77.36 15.77.36-25.57.37 2.88.36-4.83.36 11.48.36.74.37 11.95.36-14.44.36.54.36-4.83.36 27.46.37-30.28.36 19.47.36-16.18.36 3.22.36-2.35.37 4.23.36 2.01.36 3.09.36-4.7.36-12.82.37 5.24.36 10.67.36-5.1.36 8.46.37-7.92.36-8.33.36 21.22.36-24.44.36-2.42.37 21.01.36 6.52.36-8.87.36 6.11.36 12.89.37-16.91.36-10.21.36 2.89.36 9.2.36-3.56.37 11.75.36-8.46.36-5.44.36 10.81.36-8.33.37 28.94.36-41.69.36 8.79.36 2.08.37 7.05.36-9.93.36 1 .36-5.5.36-.2.37-7.66.36 2.15.36 14.03.36-1.74.36-14.1.37 19.4.36 12.89.36-15.51.36-4.97.36 18.67.37-2.42.36-14.5.36-11.14.36 17.99.37 8.46.36-.34.36-2.82.36-16.58.36-.87.37 20.81.36-4.7.36-15.51.36 11.62.36-1.82.37 18.26.36-35.38.36 16.92.36-2.68.36-9.87.37 1.27.36 9.07.36 10.67.36-28.73.36 32.42.37-19.73.36 4.22.36-14.09.36 11.21.37 8.73.36-26.59.36 35.25.36-1.82.36-19.13.37 20.34.36-27.59.36 32.83.36-16.38.36-10.07.37 3.22.36 11.68.36-9.47.36 6.38.36 4.84.37-9 .36 1.75.36 8.25.36-12.62.37 21.89.36-40.08.36 21.82.36 10.14.36-11.15.37-11.55.36 2.62.36 8.06.36 2.08.36-7.92.37 8.25.36-.06.36-7.92.36 6.98.36 25.58.37-19.81.36 10.07.36-21.82.36 15.85.37-20.95.36 1.88.36 14.84.36 3.56.36-3.03.37-6.98.36 12.76.36.94.36-16.79.36-5.57.37-1.41.36 27.93.36-17.12.36-3.56.36 14.57.37-10.61.36-17.18.36 9.6.36 9.46.36 2.82.37-7.65.36-2.69.36 16.25.36 1.88.37 1.95.36-10.07.36 7.65.36-6.98.36 8.19.37-23.16.36 7.18.36-.87.36-2.62.36 16.45.37-10.01.36-2.82.36 15.78.36-20.94.36.94.37 18.93.36-14.84.36 5.37.36 1.21.37-1.95.36 2.02.36-7.59.36-.4.36 6.71.37 10.14.36-6.11.36-29.54.36 29.88.36 2.35.37 3.89.36-16.45.36-17.32.36 24.24.36-4.77.37-1.48.36 1.75.36-.14.36 12.63.36-17.66.37-3.36.36 11.48.36 5.57.36-3.76.37-4.36.36-8.79.36 9.06.36-5.04.36 19.47.37-15.51.36-9.86.36-3.63.36 22.89.36 13.57.37-30.82.36 16.78.36-10.07.36 4.7.36 1.41.37-8.93.36 3.09.36 10.34.36-17.45.37 25.98.36-12.83.36-15.17.36 28.8.36.07.37-17.72.36 22.69.36-32.9.36 32.9.36-10.07.37-16.12.36 2.42.36-2.15.36 4.64.36-3.7.37 19.88.36-9.6.36-5.04.36-5.04.36.81.37.13.36 38.61.36-51.43.36 29.81.37-16.99.36 10.08.36-7.39.36-5.71.36 18.6.37-13.96.36 9.19.36 6.18.36-14.03.36 7.59.37-15.98.36 10.81.36-2.62.36 6.11.36-4.37.37 17.79.36-6.64.36-13.56.36 15.3.37-28.73.36 19.33.36 7.99.36-35.71.36 16.18.37 15.57.36-16.24.36 17.32.36 10 .36-41.42.37 46.59.36-20.07.36 9.39.36-11.01.36-3.15.37-16.92.36 22.63.36-.34.36-24.71.37 26.86.36 5.91.36 4.83.36-38.34.36 21.49.37 1.68.36-16.32.36 5.58.36 5.7.36-.27.37 7.39.36-17.66.36 17.46.36-11.62.36 12.36.37-10.28.36 9.34.36-7.99.36-11.89.36 21.42.37-3.36.36 18.2.36-10.48.36-3.76.37 17.66.36-20.88.36 2.02.36 6.44.36-7.85.37-10.08.36 15.98.36-.67.36-11.68.36-4.36.37-8.19.36 19.87.36-10.54.36-4.84.36 7.05.37-4.56.36 14.77.36-6.18.36-14.16.37 7.25.36-2.42.36-8.26.36 17.39.36-13.83.37 20.07.36-16.31.36-4.77.36 3.49.36 12.69.37 4.9.36-13.29.36 19.34.36-.14.36-36.72.37 18.73.36-7.25.36 22.02.36 10.67.36-7.25.37-15.51.36 7.86.36 7.72.36-29.14.37 28.54.36-23.64.36 7.52.36 1.35.36 7.45.37-7.45.36 15.91.36-20.75.36 6.58.36-3.49.37-9.47.36.41.36 18.86.36-4.43.36 6.72.37-22.63.36 17.32.36-9.53.36-5.17.37 11.21.36-14.23.36 5.44.36 8.99.36-5.84.37 3.09.36 18.33.36-25.18.36 18.46.36-21.41.37 32.76.36-20.01.36-13.76.36 19.4.36-23.03.37 15.24.36-9.86.36 12.35.36 1.95.36-10.68.37 3.76.36-1.95.36 9.54.36-4.23.37-5.71.36 10.14.36-10.34.36 3.15.36 4.64.37 4.5.36 5.5.36-20.07.36-9.07.36 13.43.37-3.56.36-1.27.36-10.68.36 24.17.36 3.56.37-7.59.36-2.88.36 3.42.36-15.37.37 6.51.36-9.13.36 33.1.36-17.8.36-17.45.37 28.4.36-9.94.36 15.85.36-28.4.36 15.37.37 13.36.36-20.41.36 22.76.36-36.25.36 19.33.37-19.6.36 34.04.36-37.67.36 21.22.37 12.02.36-11.42.36 6.38.36-1.74.36-9 .37 8.53.36-1.55.36 20.81.36-33.36.36 7.72.37 1.47.36-4.63.36-3.15.36 20.34.36-26.39.37 16.99.36.6.36 6.85.36-10.4.36-13.16.37 7.65.36 1.81.36 3.02.36-17.18.37 3.15.36 16.25.36-6.91.36 19.06.36-16.65.37 7.79.36 17.25.36-18.12.36-10.61.36 2.42.37-3.43.36 2.82.36 20.41.36-27.66.36 3.76.37-5.44.36 16.99.36-15.98.36 14.77.37 11.48.36-28.87.36 30.21.36 6.05.36 13.15.37-50.35.36 25.18.36-2.35.36-4.7.36-10.47.37 19.13.36-10.94.36-10.07.36-5.44.36.8.37 21.35.36 2.76.36 1.54.36-22.36.36 4.57.37 10.2.36-10 .36-4.57.36 7.05.37-17.38.36 16.31.36-12.82.36 20.41.36.13.37-10.74.36-1.01.36 11.62.36-11.15.36-17.25.37 31.22.36-11.28.36-6.38.36-1.34.36 7.72.37-19.07.36 31.76.36-6.18.36 11.68.37-21.89.36 10.21.36-23.1.36 18.13.36-7.12.37 8.93.36-2.68.36 2.28.36.54h.36l.37-20.55.36 9.94.36 24.37.36-29.14.36 15.51.37-7.32.36 2.09.36-9.07.36 5.51.36 15.1.37-.13.36 1.01.36-6.05.36 16.12.37-12.49.36-20.28.36 30.22.36-17.66.36 6.17.37-.94.36 6.11.36-30.41.36 40.35.36-24.24.37 10.28.36-17.19.36 25.11.36 5.23.36-25.24.37 13.9.36 3.62.36-2.88.36-2.29.37-9.6.36.07.36 4.3.36 3.82.36-15.03.37 11.34.36 4.5.36-13.96.36-3.56.36 7.65.37 9 .36-22.9.36 21.96.36 15.24.36-23.16.37.67.36 18.26.36 7.92.36-12.22.37 14.37.36-17.93.36-4.97.36-11.74.36 10.6.37-5.57.36-10.54.36 28.06.36 2.35.36-37.46.37 14.17.36 27.39.36-37.33.36 7.99.36 19.34.37-22.76.36 17.25.36 5.71.36 3.22.36-8.19.37-6.04.36 1.94.36 13.5.36-15.78.37 25.78.36-18.6.36-3.96.36-14.43.36 9.4.37-6.31.36 12.69.36 16.18"/><use xlink:href="#83aa6__d" color="violet" transform="matrix(3.75 0 0 3.75 182.98 82.47)"/><use xlink:href="#83aa6__d" color="violet" transform="matrix(3.75 0 0 3.75 220.55 22.51)"/></g><path fill="none" d="M28 45.01V162.5M371.99 45.01H28" color="#000"/></svg>