<svg xmlns="http://www.w3.org/2000/svg" xmlns:xlink="http://www.w3.org/1999/xlink" viewBox="0 0 400 200"><path fill="none" d="M0 0h400v200H0z"/><defs><use xlink:href="#5af48__a" id="5af48__b" fill="currentColor" stroke="none"/><use xlink:href="#5af48__a" id="5af48__c" stroke="currentColor" transform="rotate(180)"/><path id="5af48__a" stroke="currentColor" stroke-width=".267" d="m0-1.33-1.33 2h2.66z"/></defs><path fill="none" stroke="#CCC" stroke-linecap="round" stroke-linejoin="round" stroke-width=".1" d="M46.1 162.5V45.01" class="5af48__gridline" color="#000"/><g fill="none" stroke-linecap="round" stroke-linejoin="round" stroke-width="0" color="#000"><path d="M46.1 162.5V155m0-109.99v7.5"/><text fill="#000" font-family="KaTeX_Main" font-size="8" text-anchor="middle" transform="translate(46.1 172.6)"><tspan> 1</tspan></text></g><path fill="none" stroke="#CCC" stroke-linecap="round" stroke-linejoin="round" stroke-width=".1" d="M82.31 162.5V45.01" class="5af48__gridline" color="#000"/><g fill="none" stroke-linecap="round" stroke-linejoin="round" stroke-width="0" color="#000"><path d="M82.31 162.5V155m0-109.99v7.5"/><text fill="#000" font-family="KaTeX_Main" font-size="8" text-anchor="middle" transform="translate(82.31 172.6)"><tspan> 2</tspan></text></g><path fill="none" stroke="#CCC" stroke-linecap="round" stroke-linejoin="round" stroke-width=".1" d="M118.52 162.5V45.01" class="5af48__gridline" color="#000"/><g fill="none" stroke-linecap="round" stroke-linejoin="round" stroke-width="0" color="#000"><path d="M118.52 162.5V155m0-109.99v7.5"/><text fill="#000" font-family="KaTeX_Main" font-size="8" text-anchor="middle" transform="translate(118.52 172.6)"><tspan> 3</tspan></text></g><path fill="none" stroke="#CCC" stroke-linecap="round" stroke-linejoin="round" stroke-width=".1" d="M154.73 162.5V45.01" class="5af48__gridline" color="#000"/><g fill="none" stroke-linecap="round" stroke-linejoin="round" stroke-width="0" color="#000"><path d="M154.73 162.5V155m0-109.99v7.5"/><text fill="#000" font-family="KaTeX_Main" font-size="8" text-anchor="middle" transform="translate(154.73 172.6)"><tspan> 4</tspan></text></g><path fill="none" stroke="#CCC" stroke-linecap="round" stroke-linejoin="round" stroke-width=".1" d="M190.94 162.5V45.01" class="5af48__gridline" color="#000"/><g fill="none" stroke-linecap="round" stroke-linejoin="round" stroke-width="0" color="#000"><path d="M190.94 162.5V155m0-109.99v7.5"/><text fill="#000" font-family="KaTeX_Main" font-size="8" text-anchor="middle" transform="translate(190.94 172.6)"><tspan> 5</tspan></text></g><path fill="none" stroke="#CCC" stroke-linecap="round" stroke-linejoin="round" stroke-width=".1" d="M227.15 162.5V45.01" class="5af48__gridline" color="#000"/><g fill="none" stroke-linecap="round" stroke-linejoin="round" stroke-width="0" color="#000"><path d="M227.15 162.5V155m0-109.99v7.5"/><text fill="#000" font-family="KaTeX_Main" font-size="8" text-anchor="middle" transform="translate(227.15 172.6)"><tspan> 6</tspan></text></g><path fill="none" stroke="#CCC" stroke-linecap="round" stroke-linejoin="round" stroke-width=".1" d="M263.36 162.5V45.01" class="5af48__gridline" color="#000"/><g fill="none" stroke-linecap="round" stroke-linejoin="round" stroke-width="0" color="#000"><path d="M263.36 162.5V155m0-109.99v7.5"/><text fill="#000" font-family="KaTeX_Main" font-size="8" text-anchor="middle" transform="translate(263.36 172.6)"><tspan> 7</tspan></text></g><path fill="none" stroke="#CCC" stroke-linecap="round" stroke-linejoin="round" stroke-width=".1" d="M299.57 162.5V45.01" class="5af48__gridline" color="#000"/><g fill="none" stroke-linecap="round" stroke-linejoin="round" stroke-width="0" color="#000"><path d="M299.57 162.5V155m0-109.99v7.5"/><text fill="#000" font-family="KaTeX_Main" font-size="8" text-anchor="middle" transform="translate(299.57 172.6)"><tspan> 8</tspan></text></g><path fill="none" stroke="#CCC" stroke-linecap="round" stroke-linejoin="round" stroke-width=".1" d="M335.78 162.5V45.01" class="5af48__gridline" color="#000"/><g fill="none" stroke-linecap="round" stroke-linejoin="round" stroke-width="0" color="#000"><path d="M335.78 162.5V155m0-109.99v7.5"/><text fill="#000" font-family="KaTeX_Main" font-size="8" text-anchor="middle" transform="translate(335.78 172.6)"><tspan> 9</tspan></text></g><path fill="none" stroke="#CCC" stroke-linecap="round" stroke-linejoin="round" stroke-width=".1" d="M371.99 162.5V45.01" class="5af48__gridline" color="#000"/><g fill="none" stroke-linecap="round" stroke-linejoin="round" stroke-width="0" color="#000"><path d="M371.99 162.5V155m0-109.99v7.5"/><text fill="#000" font-family="KaTeX_Main" font-size="8" text-anchor="middle" transform="translate(371.99 172.6)"><tspan> 10</tspan></text></g><g fill="none" stroke-linecap="round" stroke-linejoin="round" stroke-width="0" color="#000"><path d="M371.99 162.5h-7.5"/><text fill="#000" font-family="KaTeX_Main" font-size="8" transform="translate(378.99 165.1)"><tspan>0.67</tspan></text></g><g fill="none" stroke-linecap="round" stroke-linejoin="round" stroke-width="0" color="#000"><path d="M371.99 145.72h-7.5"/><text fill="#000" font-family="KaTeX_Main" font-size="8" transform="translate(378.99 148.32)"><tspan>0.68</tspan></text></g><g fill="none" stroke-linecap="round" stroke-linejoin="round" stroke-width="0" color="#000"><path d="M371.99 128.93h-7.5"/><text fill="#000" font-family="KaTeX_Main" font-size="8" transform="translate(378.99 131.53)"><tspan>0.69</tspan></text></g><g fill="none" stroke-linecap="round" stroke-linejoin="round" stroke-width="0" color="#000"><path d="M371.99 112.15h-7.5"/><text fill="#000" font-family="KaTeX_Main" font-size="8" transform="translate(378.99 114.75)"><tspan>0.70</tspan></text></g><g fill="none" stroke-linecap="round" stroke-linejoin="round" stroke-width="0" color="#000"><path d="M371.99 95.36h-7.5"/><text fill="#000" font-family="KaTeX_Main" font-size="8" transform="translate(378.99 97.96)"><tspan>0.71</tspan></text></g><g fill="none" stroke-linecap="round" stroke-linejoin="round" stroke-width="0" color="#000"><path d="M371.99 78.58h-7.5"/><text fill="#000" font-family="KaTeX_Main" font-size="8" transform="translate(378.99 81.18)"><tspan>0.72</tspan></text></g><g fill="none" stroke-linecap="round" stroke-linejoin="round" stroke-width="0" color="#000"><path d="M371.99 61.79h-7.5"/><text fill="#000" font-family="KaTeX_Main" font-size="8" transform="translate(378.99 64.39)"><tspan>0.73</tspan></text></g><g fill="none" stroke-linecap="round" stroke-linejoin="round" stroke-width="0" color="#000"><path d="M371.99 45.01h-7.5"/><text fill="#000" font-family="KaTeX_Main" font-size="8" transform="translate(378.99 47.61)"><tspan>0.74</tspan></text></g><path fill="none" d="M28 45.01V162.5M371.99 45.01H28" color="#000"/><text stroke-linecap="round" stroke-linejoin="round" stroke-width="0" color="#000" font-family="KaTeX_Main" font-size="10" text-anchor="middle" transform="rotate(-90 57.63 46.13)"><tspan font-weight="bold">Rotations</tspan><tspan> / Operations</tspan></text><text stroke-linecap="round" stroke-linejoin="round" stroke-width="0" color="#000" font-family="KaTeX_Main" font-size="10" text-anchor="middle" transform="translate(199.99 195.75)"><tspan>Operations / 10</tspan><tspan dy="-5" font-size="8">6</tspan></text><text stroke-linecap="round" stroke-linejoin="round" stroke-width=".5" color="#000" font-family="KaTeX_Main" font-size="8" transform="translate(99.2 10.11)"><tspan>AVLBottomUp</tspan></text><g fill="none" stroke="currentColor" stroke-linecap="round" stroke-linejoin="round" stroke-width=".5" color="#000"><path stroke="#000" d="M63.7 7.51h29.9M28 96.88l.36.18.36.19.37.16.36.14.36.11.36.06.36.02.37-.04.36-.07.36-.13.36-.16.37-.18.36-.21.36-.21.36-.21.36-.21.37-.19.36-.17.36-.16.36-.13.36-.12.37-.1.36-.08.36-.08.36-.08.36-.07.37-.07.36-.07.36-.07.36-.07.36-.07.37-.06.36-.05.36-.05.36-.03.37-.03.36-.01.36-.01h1.45l.36-.01.36-.02.36-.04.37-.04.36-.06.36-.07.36-.08.36-.09.37-.09.36-.09.36-.08.36-.07.37-.05.36-.04.36-.01.36.01.36.03.37.05.36.08.36.1.36.12.36.14.37.16.36.17.36.17.36.19.36.18.37.18.36.19.36.17.36.17.37.16.36.14.36.14.36.12.36.11.37.1.36.09.36.08.36.07.36.07.37.06.36.06.36.06.36.05.36.06.37.07.36.07.36.07.36.08.36.09.37.1.36.1.36.11.36.11.37.12.36.13.36.12.36.13.36.13.37.12.36.12.36.12.36.11.36.11.37.1.36.09.36.08.36.07.36.07.37.05.36.05.36.04.36.04.37.03.36.03.36.02.36.02.36.02.37.02.36.02.36.02.36.02.36.02.37.03.36.02.36.02.36.02.36.02.37.01.36.02.36.01h1.09l.36-.02.36-.01.36-.03.37-.03.36-.04.36-.04.36-.05.36-.06.37-.07.36-.07.36-.08.36-.09.36-.09.37-.09.36-.1.36-.11.36-.11.36-.11.37-.12.36-.12.36-.12.36-.13.37-.13.36-.13.36-.13.36-.14.36-.14.37-.14.36-.14.36-.14.36-.14.36-.15.37-.14.36-.14.36-.14.36-.14.36-.13.37-.13.36-.12.36-.11.36-.1.36-.09.37-.08.36-.06.36-.04.36-.02.37-.01.36.02.36.03.36.06.36.07.37.1.36.12.36.13.36.16.36.16.37.18.36.19.36.19.36.2.36.21.37.2.36.2.36.19.36.19.37.17.36.17.36.16.36.14.36.13.37.11.36.1.36.09.36.07.36.07.37.05.36.04.36.03.36.02.36.01.37.01.36.01h2.53l.37.01h.36l.36.01.36.01.36.01.37.02.36.01.36.02.36.02.36.01.37.02.36.02.36.01.36.01.36.01.37.01h.72l.36-.01.37-.01.36-.01.36-.01.36-.02.36-.02.37-.03.36-.02.36-.03.36-.03.36-.02.37-.03.36-.02.36-.03.36-.02.36-.02.37-.01.36-.02h.36l.36-.01h1.09l.36.01h.36l.37.01.36.01.36.01h.36l.36.01h1.09l.36-.01.36-.02.37-.02.36-.02.36-.03.36-.04.36-.04.37-.05.36-.05.36-.06.36-.06.37-.07.36-.08.36-.07.36-.08.36-.09.37-.08.36-.09.36-.09.36-.08.36-.09.37-.09.36-.09.36-.08.36-.09.36-.08.37-.08.36-.07.36-.08.36-.07.37-.07.36-.06.36-.06.36-.06.36-.05.37-.05.36-.04.36-.04.36-.04.36-.03.37-.03.36-.03.36-.01.36-.02.36-.01.37-.01h.72l.36.01.36.01.37.01.36.02.36.03.36.02.37.03.36.04.36.03.36.04.36.05.37.04.36.05.36.05.36.05.36.05.37.05.36.05.36.05.36.05.36.05.37.04.36.05.36.04.36.03.37.03.36.03.36.02.36.02.36.01.37.01h.36l.36-.01.36-.01.36-.02.37-.02.36-.02.36-.04.36-.03.36-.04.37-.04.36-.04.36-.05.36-.04.37-.05.36-.04.36-.05.36-.04.36-.04.37-.03.36-.04.36-.02.36-.03.36-.02.37-.01.36-.01.36-.01h.36l.36.01.37.01.36.01.36.02.36.02.36.02.37.03.36.03.36.03.36.04.37.04.36.04.36.04.36.04.36.04.37.05.36.04.36.05.36.05.36.04.37.05.36.05.36.04.36.05.36.04.37.04.36.04.36.04.36.04.37.03.36.03.36.03.36.02.36.02.37.02.36.01.36.01h.72l.37-.01.36-.01.36-.01.36-.02.36-.03.37-.02.36-.04.36-.03.36-.03.36-.04.37-.04.36-.04.36-.04.36-.04.37-.04.36-.04.36-.04.36-.04.36-.04.37-.03.36-.04.36-.03.36-.03.36-.03.37-.03.36-.03.36-.03.36-.02.36-.03.37-.03.36-.03.36-.03.36-.03.37-.03.36-.03.36-.04.36-.04.36-.04.37-.05.36-.04.36-.05.36-.06.36-.05.37-.06.36-.06.36-.07.36-.07.36-.06.37-.07.36-.08.36-.07.36-.07.37-.08.36-.07.36-.07.36-.08.36-.07.37-.08.36-.07.36-.07.36-.07.36-.07.37-.06.36-.07.36-.06.36-.06.36-.06.37-.05.36-.05.36-.05.36-.04.36-.05.37-.03.36-.03.36-.03.36-.02.37-.02h.36l.36-.01.36.01.36.01.37.02.36.03.36.04.36.05.36.06.37.06.36.08.36.09.36.09.36.11.37.11.36.12.36.14.36.14.37.14.36.15.36.16.36.16.36.17.37.16.36.17.36.17.36.16.36.17.37.16.36.15.36.15.36.14.36.13.37.12.36.11.36.11.36.09.36.08.37.07.36.06.36.04.36.04.37.03.36.01.36.01h.72l.37-.02.36-.01.36-.03.36-.02.36-.02.37-.03.36-.02.36-.03.36-.02.36-.01.37-.01.36-.01h.36l.36.01.37.01.36.02.36.02.36.04.36.03.37.05.36.04.36.06.36.05.36.06.37.06.36.06.36.06.36.06.36.06.37.05.36.05.36.05.36.04.36.03.37.02.36.02.36.01.36-.01.37-.01.36-.01.36-.03.36-.04.36-.04.37-.05.36-.06.36-.07.36-.07.36-.07.37-.08.36-.08.36-.08.36-.08.36-.08.37-.08.36-.07.36-.07.36-.06.37-.06.36-.06.36-.04.36-.04.36-.04.37-.03.36-.02.36-.01.36-.01.36-.01h.73l.36.01.36.01.36.01.37.01.36.01.36.02.36.01.37.01.36.01.36.02.36.01.36.01.37.01h.36l.36.01.36.01h.36l.37.01h1.08l.36-.01.37-.01.36-.01.36-.02.36-.02.36-.04.37-.03.36-.05.36-.05.36-.06.37-.07.36-.08.36-.09.36-.09.36-.1.37-.11.36-.12.36-.12.36-.12.36-.12.37-.12.36-.13.36-.11.36-.12.36-.11.37-.1.36-.09.36-.08.36-.07.37-.06.36-.04.36-.04.36-.02.36-.01.37.01.36.01.36.02.36.04.36.04.37.06.36.06.36.07.36.07.36.08.37.09.36.09.36.09.36.1.36.1.37.1.36.1.36.11.36.11.37.11.36.11.36.11.36.12.36.11.37.11.36.11.36.11.36.11.36.1.37.1.36.1.36.09.36.08.36.08.37.07.36.06.36.06.36.05.37.03.36.03.36.02.36.02h.73l.36-.02.36-.02.36-.02.36-.04.37-.04.36-.05.36-.06.36-.06.36-.07.37-.08.36-.09.36-.09.36-.1.36-.11.37-.11.36-.13.36-.13.36-.14.37-.14.36-.15.36-.16.36-.16.36-.16.37-.16.36-.16.36-.15.36-.15.36-.14.37-.13.36-.12.36-.1.36-.08.36-.06.37-.03.36-.02.36.01.36.04.37.06.36.09.36.1.36.14.36.15.37.17.36.19.36.2.36.21.36.23.37.23.36.23.36.24.36.23.36.23.37.23.36.22.36.21.36.21.37.19.36.18.36.17.36.16.36.15.37.13.36.12.36.1.36.09.36.08.37.05.36.05.36.02.36.01h.36l.37-.02.36-.04.36-.05.36-.07.36-.07.37-.09.36-.1.36-.11.36-.12.37-.13.36-.13.36-.13.36-.13.36-.14.37-.14.36-.13.36-.14.36-.13.36-.12.37-.12.36-.12.36-.12.36-.1.36-.11.37-.1.36-.1.36-.09.36-.09.37-.09.36-.09.36-.09.36-.09.36-.09.37-.09.36-.09.36-.09.36-.1.36-.09.37-.09.36-.09.36-.08.36-.08.36-.07.37-.06.36-.06.36-.04.36-.04.36-.02.37-.02.36-.02.36-.01.36-.01.37-.01.36-.01.36-.02.36-.02.36-.04.37-.04.36-.05.36-.06.36-.07.36-.06.37-.06.36-.05.36-.03.36-.01.36.02.37.05.36.09.36.13.36.18.37.22.36.27.36.31.36.34.36.37.37.39.36.39.36.38.36.37.36.33.37.29.36.23.36.17.36.11.36.04.37-.03.36-.1.36-.16.36-.2.36-.24.37-.27.36-.27.36-.27.36-.25.37-.21.36-.17.36-.11.36-.04.36.02.37.1.36.16.36.22.36.28.36.32.37.35.36.36.36.35.36.33.36.29.37.23.36.18.36.1.36.02.37-.04.36-.1.36-.14.36-.18.36-.18.37-.16.36-.13.36-.06.36.01.36.09.37.18.36.27.36.33.36.38.36.4.37.41.36.37.36.33.36.26.37.17.36.07.36-.02.36-.13.36-.23.37-.33.36-.42.36-.52.36-.61.36-.71.37-.8.36-.91.36-1.01.36-1.11.36-1.19.37-1.26.36-1.32.36-1.37.36-1.4.36-1.4.37-1.33.36-1.12.36-.74.36-.24.37.19.36.31.36-.12.36-.85.36-.7.37 2.4.36 10.31.36 24.59"/><use xlink:href="#5af48__b" transform="matrix(3.75 0 0 3.75 353.89 101.77)"/><use xlink:href="#5af48__b" transform="matrix(3.75 0 0 3.75 78.65 7.51)"/></g><text stroke-linecap="round" stroke-linejoin="round" color="#000" font-family="KaTeX_Main" font-size="8" transform="translate(99.2 25.11)"><tspan>AVLWeakTopDown</tspan></text><g fill="none" stroke="currentColor" stroke-linecap="round" stroke-linejoin="round" color="#000"><path stroke="#FFAB00" stroke-dasharray="4.5,2.0,0.5,2.0,0.5,2.0" d="M63.7 22.51h29.9M28 113.65l.36.24.36.23.37.2.36.16.36.12.36.04.36-.02.37-.08.36-.15.36-.21.36-.26.37-.29.36-.32.36-.32.36-.33.36-.32.37-.29.36-.27.36-.24.36-.21.36-.18.37-.14.36-.11.36-.08.36-.06.36-.04.37-.03.36-.01h.36l.36.01.36.02.37.03.36.03.36.05.36.06.37.07.36.08.36.09.36.1.36.12.37.11.36.13.36.12.36.11.36.12.37.1.36.08.36.08.36.06.36.04.37.04.36.02.36.01.36.01h.37l.36.01.36.01.36.02.36.04.37.05.36.07.36.09.36.12.36.14.37.16.36.18.36.21.36.21.36.24.37.24.36.25.36.25.36.24.37.25.36.23.36.23.36.21.36.19.37.18.36.16.36.15.36.13.36.12.37.1.36.08.36.08.36.06.36.05.37.05.36.03.36.02.36.02.36.01.37-.01.36-.01.36-.02.36-.03.37-.04.36-.05.36-.06.36-.07.36-.09.37-.09.36-.11.36-.12.36-.13.36-.14.37-.15.36-.15.36-.16.36-.17.36-.17.37-.17.36-.16.36-.17.36-.15.37-.15.36-.14.36-.12.36-.11.36-.1.37-.08.36-.07.36-.05.36-.03.36-.02h.37l.36.01.36.02.36.03.36.04.37.04.36.05.36.05.36.06.36.05.37.05.36.04.36.05.36.04.37.03.36.03.36.03.36.02.36.02.37.01h1.08l.36-.01.37-.02.36-.02.36-.03.36-.03.36-.04.37-.04.36-.05.36-.06.36-.06.37-.07.36-.08.36-.08.36-.09.36-.1.37-.1.36-.11.36-.11.36-.12.36-.11.37-.12.36-.12.36-.11.36-.11.36-.11.37-.1.36-.09.36-.08.36-.06.36-.06.37-.04.36-.02.36-.01.36.01.37.03.36.04.36.06.36.08.36.09.37.11.36.12.36.13.36.14.36.15.37.16.36.16.36.16.36.16.36.17.37.16.36.16.36.15.36.15.37.14.36.14.36.13.36.12.36.11.37.11.36.1.36.09.36.09.36.09.37.08.36.07.36.07.36.07.36.07.37.07.36.07.36.06.36.07.37.07.36.06.36.07.36.07.36.07.37.07.36.07.36.08.36.07.36.07.37.07.36.07.36.07.36.06.36.07.37.06.36.05.36.06.36.04.36.05.37.03.36.04.36.02.36.02.37.02.36.01.36.01h1.09l.36-.01h.72l.36-.01h1.09l.36.01.36.01.37.01.36.02.36.02.36.02.37.03.36.03.36.04.36.03.36.03.37.04.36.03.36.02.36.02.36.02.37.01h.36l.36-.01.36-.01.36-.03.37-.04.36-.05.36-.06.36-.08.36-.08.37-.1.36-.11.36-.11.36-.13.37-.14.36-.14.36-.16.36-.15.36-.17.37-.16.36-.17.36-.18.36-.17.36-.17.37-.17.36-.17.36-.16.36-.16.36-.16.37-.15.36-.14.36-.14.36-.12.37-.13.36-.11.36-.1.36-.1.36-.08.37-.08.36-.06.36-.06.36-.05.36-.04.37-.02.36-.02.36-.01h.36l.36.01.37.02.36.03.36.03.36.04.36.05.37.05.36.06.36.06.36.07.37.07.36.07.36.08.36.07.36.08.37.08.36.07.36.08.36.07.36.08.37.07.36.06.36.07.36.06.36.05.37.06.36.05.36.04.36.04.37.03.36.03.36.03.36.02.36.01.37.01h.72l.36-.01.36-.01.37-.02.36-.03.36-.03.36-.03.36-.04.37-.04.36-.04.36-.05.36-.04.37-.05.36-.05.36-.05.36-.05.36-.05.37-.04.36-.04.36-.04.36-.04.36-.03.37-.03.36-.02.36-.02.36-.01.36-.01h.73l.36.01.36.02.36.02.37.02.36.03.36.04.36.04.37.05.36.05.36.05.36.06.36.06.37.07.36.07.36.07.36.07.36.07.37.07.36.07.36.08.36.07.36.06.37.07.36.06.36.06.36.05.37.05.36.04.36.04.36.02.36.02.37.01h.72l.36-.02.36-.03.37-.03.36-.05.36-.05.36-.07.36-.07.37-.09.36-.09.36-.1.36-.1.36-.12.37-.12.36-.12.36-.13.36-.13.37-.14.36-.13.36-.14.36-.14.36-.14.37-.13.36-.14.36-.13.36-.13.36-.13.37-.12.36-.12.36-.11.36-.11.36-.1.37-.1.36-.1.36-.09.36-.09.37-.08.36-.08.36-.08.36-.07.36-.07.37-.07.36-.06.36-.06.36-.06.36-.06.37-.05.36-.05.36-.05.36-.04.36-.05.37-.03.36-.04.36-.03.36-.02.37-.02.36-.01.36-.01h.72l.37.02.36.02.36.03.36.03.36.05.37.06.36.06.36.07.36.08.36.09.37.1.36.1.36.12.36.12.36.12.37.13.36.14.36.14.36.15.37.15.36.15.36.15.36.16.36.15.37.16.36.16.36.16.36.15.36.16.37.16.36.15.36.15.36.16.36.15.37.14.36.15.36.14.36.15.37.14.36.14.36.14.36.13.36.13.37.13.36.13.36.13.36.12.36.12.37.11.36.11.36.11.36.1.36.09.37.09.36.08.36.08.36.06.36.06.37.06.36.04.36.04.36.02.37.02.36.02h.72l.36-.01.37-.02.36-.02.36-.03.36-.03.36-.04.37-.03.36-.04.36-.04.36-.04.36-.04.37-.04.36-.03.36-.03.36-.03.37-.02.36-.02.36-.02h.36l.36-.01.37.01h.36l.36.02.36.01.36.02.37.03.36.03.36.02.36.03.36.03.37.03.36.03.36.02.36.02.36.01.37.01.36.01h.36l.36-.01.37-.02.36-.03.36-.03.36-.05.36-.05.37-.06.36-.07.36-.08.36-.08.36-.09.37-.1.36-.11.36-.11.36-.12.36-.12.37-.12.36-.13.36-.13.36-.13.37-.13.36-.13.36-.13.36-.13.36-.13.37-.12.36-.12.36-.12.36-.12.36-.11.37-.11.36-.11.36-.1.36-.09.36-.1.37-.08.36-.09.36-.07.36-.07.37-.07.36-.06.36-.05.36-.05.36-.03.37-.03.36-.03.36-.01.36-.01.36.01.37.01.36.02.36.02.36.03.36.04.37.05.36.04.36.06.36.05.36.05.37.06.36.05.36.06.36.05.37.04.36.04.36.04.36.03.36.02.37.02.36.01h.36l.36-.01.36-.01.37-.02.36-.02.36-.02.36-.04.36-.03.37-.03.36-.04.36-.04.36-.04.37-.04.36-.04.36-.03.36-.04.36-.03.37-.03.36-.02.36-.03.36-.02.36-.01.37-.02.36-.01h.36l.36-.01h.36l.37.01.36.01.36.01.36.01.36.03.37.02.36.03.36.04.36.04.37.05.36.06.36.06.36.06.36.07.37.07.36.08.36.08.36.08.36.09.37.09.36.09.36.08.36.09.36.08.37.08.36.08.36.07.36.06.37.06.36.06.36.04.36.04.36.04.37.02.36.02.36.02.36.01h.73l.36-.01h.36l.36-.01.36-.02.37-.01.36-.02.36-.02.36-.01.36-.02.37-.02.36-.02.36-.03.36-.02.37-.03.36-.02.36-.03.36-.04.36-.03.37-.04.36-.03.36-.04.36-.04.36-.04.37-.04.36-.04.36-.03.36-.03.36-.03.37-.02.36-.01h.36l.36.01.37.02.36.03.36.04.36.05.36.06.37.08.36.08.36.1.36.1.36.11.37.13.36.13.36.13.36.15.36.14.37.16.36.15.36.16.36.16.37.16.36.17.36.16.36.16.36.16.37.15.36.14.36.14.36.13.36.12.37.1.36.09.36.06.36.05.36.02h.37l.36-.02.36-.06.36-.08.36-.11.37-.13.36-.16.36-.19.36-.21.37-.22.36-.24.36-.26.36-.26.36-.27.37-.27.36-.26.36-.26.36-.25.36-.24.37-.22.36-.21.36-.19.36-.17.36-.15.37-.13.36-.12.36-.1.36-.08.37-.07.36-.05.36-.05.36-.04.36-.03.37-.03.36-.02.36-.02.36-.02.36-.02.37-.01.36-.02.36-.01.36-.01h.36l.37-.01.36.01h.72l.36.01.37.01h.36l.36.01h.73l.36-.01.36-.01.36-.01.36-.02.37-.02.36-.01.36-.02.36-.01h.36l.37.01.36.04.36.05.36.08.36.11.37.14.36.18.36.21.36.25.37.28.36.31.36.32.36.35.36.35.37.35.36.34.36.32.36.29.36.25.37.2.36.16.36.1.36.04.36-.01.37-.06.36-.11.36-.13.36-.17.36-.18.37-.18.36-.19.36-.16.36-.15.37-.12.36-.09.36-.06.36-.02h.36l.37.04.36.06.36.08.36.1.36.1.37.1.36.1.36.08.36.06.36.03h.37l.36-.04.36-.09.36-.12.37-.17.36-.2.36-.21.36-.23.36-.21.37-.18.36-.14.36-.06.36.02.36.11.37.19.36.28.36.35.36.4.36.41.37.41.36.38.36.32.36.25.37.15.36.06.36-.05.36-.14.36-.24.37-.31.36-.36.36-.41.36-.43.36-.45.37-.49.36-.54.36-.63.36-.76.36-.92.37-1.09.36-1.28.36-1.46.36-1.61.36-1.71.37-1.72.36-1.53.36-1.11.36-.45.37.29.36.74.36.51.36-.32.36-.67.37 1.9.36 8.62.36 14.31"/><use xlink:href="#5af48__c" color="#FFAB00" transform="matrix(3.75 0 0 3.75 67.83 115.82)"/><use xlink:href="#5af48__c" color="#FFAB00" transform="matrix(3.75 0 0 3.75 78.65 22.51)"/></g><text stroke-linecap="round" stroke-linejoin="round" color="#000" font-family="KaTeX_Main" font-size="8" transform="translate(241.1 10.11)"><tspan>AVLRelaxedBottomUp</tspan></text><g fill="none" stroke="currentColor" stroke-linecap="round" stroke-linejoin="round" color="#000"><path stroke="#D336C8" d="M205.6 7.51h29.9M28 96.88l.36.18.36.19.37.16.36.14.36.11.36.06.36.02.37-.04.36-.07.36-.13.36-.16.37-.18.36-.21.36-.21.36-.21.36-.21.37-.19.36-.17.36-.16.36-.13.36-.12.37-.1.36-.08.36-.08.36-.08.36-.07.37-.07.36-.07.36-.07.36-.07.36-.07.37-.06.36-.05.36-.05.36-.03.37-.03.36-.01.36-.01h1.45l.36-.01.36-.02.36-.04.37-.04.36-.06.36-.07.36-.08.36-.09.37-.09.36-.09.36-.08.36-.07.37-.05.36-.04.36-.01.36.01.36.03.37.05.36.08.36.1.36.12.36.14.37.16.36.17.36.17.36.19.36.18.37.18.36.19.36.17.36.17.37.16.36.14.36.14.36.12.36.11.37.1.36.09.36.08.36.07.36.07.37.06.36.06.36.06.36.05.36.06.37.07.36.07.36.07.36.08.36.09.37.1.36.1.36.11.36.11.37.12.36.13.36.12.36.13.36.13.37.12.36.12.36.12.36.11.36.11.37.1.36.09.36.08.36.07.36.07.37.05.36.05.36.04.36.04.37.03.36.03.36.02.36.02.36.02.37.02.36.02.36.02.36.02.36.02.37.03.36.02.36.02.36.02.36.02.37.01.36.02.36.01h1.09l.36-.02.36-.01.36-.03.37-.03.36-.04.36-.04.36-.05.36-.06.37-.07.36-.07.36-.08.36-.09.36-.09.37-.09.36-.1.36-.11.36-.11.36-.11.37-.12.36-.12.36-.12.36-.13.37-.13.36-.13.36-.13.36-.14.36-.14.37-.14.36-.14.36-.14.36-.14.36-.15.37-.14.36-.14.36-.14.36-.14.36-.13.37-.13.36-.12.36-.11.36-.1.36-.09.37-.08.36-.06.36-.04.36-.02.37-.01.36.02.36.03.36.06.36.07.37.1.36.12.36.13.36.16.36.16.37.18.36.19.36.19.36.2.36.21.37.2.36.2.36.19.36.19.37.17.36.17.36.16.36.14.36.13.37.11.36.1.36.09.36.07.36.07.37.05.36.04.36.03.36.02.36.01.37.01.36.01h2.53l.37.01h.36l.36.01.36.01.36.01.37.02.36.01.36.02.36.02.36.01.37.02.36.02.36.01.36.01.36.01.37.01h.72l.36-.01.37-.01.36-.01.36-.01.36-.02.36-.02.37-.03.36-.02.36-.03.36-.03.36-.02.37-.03.36-.02.36-.03.36-.02.36-.02.37-.01.36-.02h.36l.36-.01h1.09l.36.01h.36l.37.01.36.01.36.01h.36l.36.01h1.09l.36-.01.36-.02.37-.02.36-.02.36-.03.36-.04.36-.04.37-.05.36-.05.36-.06.36-.06.37-.07.36-.08.36-.07.36-.08.36-.09.37-.08.36-.09.36-.09.36-.08.36-.09.37-.09.36-.09.36-.08.36-.09.36-.08.37-.08.36-.07.36-.08.36-.07.37-.07.36-.06.36-.06.36-.06.36-.05.37-.05.36-.04.36-.04.36-.04.36-.03.37-.03.36-.03.36-.01.36-.02.36-.01.37-.01h.72l.36.01.36.01.37.01.36.02.36.03.36.02.37.03.36.04.36.03.36.04.36.05.37.04.36.05.36.05.36.05.36.05.37.05.36.05.36.05.36.05.36.05.37.04.36.05.36.04.36.03.37.03.36.03.36.02.36.02.36.01.37.01h.36l.36-.01.36-.01.36-.02.37-.02.36-.02.36-.04.36-.03.36-.04.37-.04.36-.04.36-.05.36-.04.37-.05.36-.04.36-.05.36-.04.36-.04.37-.03.36-.04.36-.02.36-.03.36-.02.37-.01.36-.01.36-.01h.36l.36.01.37.01.36.01.36.02.36.02.36.02.37.03.36.03.36.03.36.04.37.04.36.04.36.04.36.04.36.04.37.05.36.04.36.05.36.05.36.04.37.05.36.05.36.04.36.05.36.04.37.04.36.04.36.04.36.04.37.03.36.03.36.03.36.02.36.02.37.02.36.01.36.01h.72l.37-.01.36-.01.36-.01.36-.02.36-.03.37-.02.36-.04.36-.03.36-.03.36-.04.37-.04.36-.04.36-.04.36-.04.37-.04.36-.04.36-.04.36-.04.36-.04.37-.03.36-.04.36-.03.36-.03.36-.03.37-.03.36-.03.36-.03.36-.02.36-.03.37-.03.36-.03.36-.03.36-.03.37-.03.36-.03.36-.04.36-.04.36-.04.37-.05.36-.04.36-.05.36-.06.36-.05.37-.06.36-.06.36-.07.36-.07.36-.06.37-.07.36-.08.36-.07.36-.07.37-.08.36-.07.36-.07.36-.08.36-.07.37-.08.36-.07.36-.07.36-.07.36-.07.37-.06.36-.07.36-.06.36-.06.36-.06.37-.05.36-.05.36-.05.36-.04.36-.05.37-.03.36-.03.36-.03.36-.02.37-.02h.36l.36-.01.36.01.36.01.37.02.36.03.36.04.36.05.36.06.37.06.36.08.36.09.36.09.36.11.37.11.36.12.36.14.36.14.37.14.36.15.36.16.36.16.36.17.37.16.36.17.36.17.36.16.36.17.37.16.36.15.36.15.36.14.36.13.37.12.36.11.36.11.36.09.36.08.37.07.36.06.36.04.36.04.37.03.36.01.36.01h.72l.37-.02.36-.01.36-.03.36-.02.36-.02.37-.03.36-.02.36-.03.36-.02.36-.01.37-.01.36-.01h.36l.36.01.37.01.36.02.36.02.36.04.36.03.37.05.36.04.36.06.36.05.36.06.37.06.36.06.36.06.36.06.36.06.37.05.36.05.36.05.36.04.36.03.37.02.36.02.36.01.36-.01.37-.01.36-.01.36-.03.36-.04.36-.04.37-.05.36-.06.36-.07.36-.07.36-.07.37-.08.36-.08.36-.08.36-.08.36-.08.37-.08.36-.07.36-.07.36-.06.37-.06.36-.06.36-.04.36-.04.36-.04.37-.03.36-.02.36-.01.36-.01.36-.01h.73l.36.01.36.01.36.01.37.01.36.01.36.02.36.01.37.01.36.01.36.02.36.01.36.01.37.01h.36l.36.01.36.01h.36l.37.01h1.08l.36-.01.37-.01.36-.01.36-.02.36-.02.36-.04.37-.03.36-.05.36-.05.36-.06.37-.07.36-.08.36-.09.36-.09.36-.1.37-.11.36-.12.36-.12.36-.12.36-.12.37-.12.36-.13.36-.11.36-.12.36-.11.37-.1.36-.09.36-.08.36-.07.37-.06.36-.04.36-.04.36-.02.36-.01.37.01.36.01.36.02.36.04.36.04.37.06.36.06.36.07.36.07.36.08.37.09.36.09.36.09.36.1.36.1.37.1.36.1.36.11.36.11.37.11.36.11.36.11.36.12.36.11.37.11.36.11.36.11.36.11.36.1.37.1.36.1.36.09.36.08.36.08.37.07.36.06.36.06.36.05.37.03.36.03.36.02.36.02h.73l.36-.02.36-.02.36-.02.36-.04.37-.04.36-.05.36-.06.36-.06.36-.07.37-.08.36-.09.36-.09.36-.1.36-.11.37-.11.36-.13.36-.13.36-.14.37-.14.36-.15.36-.16.36-.16.36-.16.37-.16.36-.16.36-.15.36-.15.36-.14.37-.13.36-.12.36-.1.36-.08.36-.06.37-.03.36-.02.36.01.36.04.37.06.36.09.36.1.36.14.36.15.37.17.36.19.36.2.36.21.36.23.37.23.36.23.36.24.36.23.36.23.37.23.36.22.36.21.36.21.37.19.36.18.36.17.36.16.36.15.37.13.36.12.36.1.36.09.36.08.37.05.36.05.36.02.36.01h.36l.37-.02.36-.04.36-.05.36-.07.36-.07.37-.09.36-.1.36-.11.36-.12.37-.13.36-.13.36-.13.36-.13.36-.14.37-.14.36-.13.36-.14.36-.13.36-.12.37-.12.36-.12.36-.12.36-.1.36-.11.37-.1.36-.1.36-.09.36-.09.37-.09.36-.09.36-.09.36-.09.36-.09.37-.09.36-.09.36-.09.36-.1.36-.09.37-.09.36-.09.36-.08.36-.08.36-.07.37-.06.36-.06.36-.04.36-.04.36-.02.37-.02.36-.02.36-.01.36-.01.37-.01.36-.01.36-.02.36-.02.36-.04.37-.04.36-.05.36-.06.36-.07.36-.06.37-.06.36-.05.36-.03.36-.01.36.02.37.05.36.09.36.13.36.18.37.22.36.27.36.31.36.34.36.37.37.39.36.39.36.38.36.37.36.33.37.29.36.23.36.17.36.11.36.04.37-.03.36-.1.36-.16.36-.2.36-.24.37-.27.36-.27.36-.27.36-.25.37-.21.36-.17.36-.11.36-.04.36.02.37.1.36.16.36.22.36.28.36.32.37.35.36.36.36.35.36.33.36.29.37.23.36.18.36.1.36.02.37-.04.36-.1.36-.14.36-.18.36-.18.37-.16.36-.13.36-.06.36.01.36.09.37.18.36.27.36.33.36.38.36.4.37.41.36.37.36.33.36.26.37.17.36.07.36-.02.36-.13.36-.23.37-.33.36-.42.36-.52.36-.61.36-.71.37-.8.36-.91.36-1.01.36-1.11.36-1.19.37-1.26.36-1.32.36-1.37.36-1.4.36-1.4.37-1.33.36-1.12.36-.74.36-.24.37.19.36.31.36-.12.36-.85.36-.7.37 2.4.36 10.31.36 24.59"/><use xlink:href="#5af48__a" color="#D336C8" transform="matrix(3.75 0 0 3.75 125.4 99.46)"/><use xlink:href="#5af48__a" color="#D336C8" transform="matrix(3.75 0 0 3.75 220.55 7.51)"/></g><path fill="none" d="M28 45.01V162.5M371.99 45.01H28" color="#000"/></svg>