<svg xmlns="http://www.w3.org/2000/svg" xmlns:xlink="http://www.w3.org/1999/xlink" viewBox="0 0 400 200"><path fill="none" d="M0 0h400v200H0z"/><defs><use xlink:href="#aa727__a" id="aa727__c" fill="currentColor" stroke="none"/><use xlink:href="#aa727__a" id="aa727__b" stroke="currentColor" transform="rotate(180)"/><use xlink:href="#aa727__b" id="aa727__d" fill="currentColor" stroke="none"/><path id="aa727__a" stroke="currentColor" stroke-width=".267" d="m0-1.33-1.33 2h2.66z"/></defs><path fill="none" stroke="#CCC" stroke-linecap="round" stroke-linejoin="round" stroke-width=".1" d="M46.1 162.5V45.01" class="aa727__gridline" color="#000"/><g fill="none" stroke-linecap="round" stroke-linejoin="round" stroke-width="0" color="#000"><path d="M46.1 162.5V155m0-109.99v7.5"/><text fill="#000" font-family="KaTeX_Main" font-size="8" text-anchor="middle" transform="translate(46.1 172.6)"><tspan> 1</tspan></text></g><path fill="none" stroke="#CCC" stroke-linecap="round" stroke-linejoin="round" stroke-width=".1" d="M82.31 162.5V45.01" class="aa727__gridline" color="#000"/><g fill="none" stroke-linecap="round" stroke-linejoin="round" stroke-width="0" color="#000"><path d="M82.31 162.5V155m0-109.99v7.5"/><text fill="#000" font-family="KaTeX_Main" font-size="8" text-anchor="middle" transform="translate(82.31 172.6)"><tspan> 2</tspan></text></g><path fill="none" stroke="#CCC" stroke-linecap="round" stroke-linejoin="round" stroke-width=".1" d="M118.52 162.5V45.01" class="aa727__gridline" color="#000"/><g fill="none" stroke-linecap="round" stroke-linejoin="round" stroke-width="0" color="#000"><path d="M118.52 162.5V155m0-109.99v7.5"/><text fill="#000" font-family="KaTeX_Main" font-size="8" text-anchor="middle" transform="translate(118.52 172.6)"><tspan> 3</tspan></text></g><path fill="none" stroke="#CCC" stroke-linecap="round" stroke-linejoin="round" stroke-width=".1" d="M154.73 162.5V45.01" class="aa727__gridline" color="#000"/><g fill="none" stroke-linecap="round" stroke-linejoin="round" stroke-width="0" color="#000"><path d="M154.73 162.5V155m0-109.99v7.5"/><text fill="#000" font-family="KaTeX_Main" font-size="8" text-anchor="middle" transform="translate(154.73 172.6)"><tspan> 4</tspan></text></g><path fill="none" stroke="#CCC" stroke-linecap="round" stroke-linejoin="round" stroke-width=".1" d="M190.94 162.5V45.01" class="aa727__gridline" color="#000"/><g fill="none" stroke-linecap="round" stroke-linejoin="round" stroke-width="0" color="#000"><path d="M190.94 162.5V155m0-109.99v7.5"/><text fill="#000" font-family="KaTeX_Main" font-size="8" text-anchor="middle" transform="translate(190.94 172.6)"><tspan> 5</tspan></text></g><path fill="none" stroke="#CCC" stroke-linecap="round" stroke-linejoin="round" stroke-width=".1" d="M227.15 162.5V45.01" class="aa727__gridline" color="#000"/><g fill="none" stroke-linecap="round" stroke-linejoin="round" stroke-width="0" color="#000"><path d="M227.15 162.5V155m0-109.99v7.5"/><text fill="#000" font-family="KaTeX_Main" font-size="8" text-anchor="middle" transform="translate(227.15 172.6)"><tspan> 6</tspan></text></g><path fill="none" stroke="#CCC" stroke-linecap="round" stroke-linejoin="round" stroke-width=".1" d="M263.36 162.5V45.01" class="aa727__gridline" color="#000"/><g fill="none" stroke-linecap="round" stroke-linejoin="round" stroke-width="0" color="#000"><path d="M263.36 162.5V155m0-109.99v7.5"/><text fill="#000" font-family="KaTeX_Main" font-size="8" text-anchor="middle" transform="translate(263.36 172.6)"><tspan> 7</tspan></text></g><path fill="none" stroke="#CCC" stroke-linecap="round" stroke-linejoin="round" stroke-width=".1" d="M299.57 162.5V45.01" class="aa727__gridline" color="#000"/><g fill="none" stroke-linecap="round" stroke-linejoin="round" stroke-width="0" color="#000"><path d="M299.57 162.5V155m0-109.99v7.5"/><text fill="#000" font-family="KaTeX_Main" font-size="8" text-anchor="middle" transform="translate(299.57 172.6)"><tspan> 8</tspan></text></g><path fill="none" stroke="#CCC" stroke-linecap="round" stroke-linejoin="round" stroke-width=".1" d="M335.78 162.5V45.01" class="aa727__gridline" color="#000"/><g fill="none" stroke-linecap="round" stroke-linejoin="round" stroke-width="0" color="#000"><path d="M335.78 162.5V155m0-109.99v7.5"/><text fill="#000" font-family="KaTeX_Main" font-size="8" text-anchor="middle" transform="translate(335.78 172.6)"><tspan> 9</tspan></text></g><path fill="none" stroke="#CCC" stroke-linecap="round" stroke-linejoin="round" stroke-width=".1" d="M371.99 162.5V45.01" class="aa727__gridline" color="#000"/><g fill="none" stroke-linecap="round" stroke-linejoin="round" stroke-width="0" color="#000"><path d="M371.99 162.5V155m0-109.99v7.5"/><text fill="#000" font-family="KaTeX_Main" font-size="8" text-anchor="middle" transform="translate(371.99 172.6)"><tspan> 10</tspan></text></g><g fill="none" stroke-linecap="round" stroke-linejoin="round" stroke-width="0" color="#000"><path d="M371.99 162.5h-7.5"/><text fill="#000" font-family="KaTeX_Main" font-size="8" transform="translate(378.99 165.1)"><tspan>0.95</tspan></text></g><g fill="none" stroke-linecap="round" stroke-linejoin="round" stroke-width="0" color="#000"><path d="M371.99 142.92h-7.5"/><text fill="#000" font-family="KaTeX_Main" font-size="8" transform="translate(378.99 145.52)"><tspan>1.00</tspan></text></g><g fill="none" stroke-linecap="round" stroke-linejoin="round" stroke-width="0" color="#000"><path d="M371.99 123.34h-7.5"/><text fill="#000" font-family="KaTeX_Main" font-size="8" transform="translate(378.99 125.94)"><tspan>1.05</tspan></text></g><g fill="none" stroke-linecap="round" stroke-linejoin="round" stroke-width="0" color="#000"><path d="M371.99 103.75h-7.5"/><text fill="#000" font-family="KaTeX_Main" font-size="8" transform="translate(378.99 106.35)"><tspan>1.10</tspan></text></g><g fill="none" stroke-linecap="round" stroke-linejoin="round" stroke-width="0" color="#000"><path d="M371.99 84.17h-7.5"/><text fill="#000" font-family="KaTeX_Main" font-size="8" transform="translate(378.99 86.77)"><tspan>1.15</tspan></text></g><g fill="none" stroke-linecap="round" stroke-linejoin="round" stroke-width="0" color="#000"><path d="M371.99 64.59h-7.5"/><text fill="#000" font-family="KaTeX_Main" font-size="8" transform="translate(378.99 67.19)"><tspan>1.20</tspan></text></g><g fill="none" stroke-linecap="round" stroke-linejoin="round" stroke-width="0" color="#000"><path d="M371.99 45.01h-7.5"/><text fill="#000" font-family="KaTeX_Main" font-size="8" transform="translate(378.99 47.61)"><tspan>1.25</tspan></text></g><path fill="none" d="M28 45.01V162.5M371.99 45.01H28" color="#000"/><text stroke-linecap="round" stroke-linejoin="round" stroke-width="0" color="#000" font-family="KaTeX_Main" font-size="10" text-anchor="middle" transform="rotate(-90 57.63 46.13)"><tspan font-weight="bold">Allocations </tspan><tspan> / log</tspan><tspan dy="3" font-size="8">2</tspan><tspan dy="-3">(Size)</tspan></text><text stroke-linecap="round" stroke-linejoin="round" stroke-width="0" color="#000" font-family="KaTeX_Main" font-size="10" text-anchor="middle" transform="translate(199.99 195.75)"><tspan>Operations / 10</tspan><tspan dy="-5" font-size="8">6</tspan></text><text stroke-linecap="round" stroke-linejoin="round" stroke-width=".5" color="#000" font-family="KaTeX_Main" font-size="8" transform="translate(116 10.11)"><tspan>AVLBottomUp</tspan></text><g fill="none" stroke="currentColor" stroke-linecap="round" stroke-linejoin="round" stroke-width=".5" color="#000"><path stroke="#000" d="M80.5 7.51h29.9M28 62.78l.36-2.34.36-1.26.37 1.77.36 1.23.36-.95.36-.62.36 3.87.37-1.4.36 1.23.36.56.36-.43.37 9.95.36-2.33.36-2.35.36-1.45.36.24.37 2.02.36-2.19.36 1.36.36 1.39.36-12.42.37-4.68.36-2.83.36 9.19.36 4.37.36-10.42.37 3.24.36-1.77.36 1.19.36 1.59.36-.87.37 2.93.36-2.23.36-.46.36 1.81.37-2.39.36 3.67.36 2.79.36-2.35.36-.51.37-.61.36 11.06.36 10.37.36.59.36 9.79.37-10.54.36-15.53.36-3.21.36 1.78.36-.66.37 49.33.36 2.29.36-2.75.36 2.55.37 1.68.36 2.06.36 2.63.36-10.98.36 9.24.37-6.21.36-1.76.36-3.63.36-5.39.36 10.63.37 5.95.36-3.67.36.56.36-2.01.36-4.16.37 5.29.36 4.27.36 2.6.36-6.34.37 4.46.36 2.47.36-3.23.36-1.4.36 5.95.37 3.06.36-19.72.36 8.64.36 7.03.36-3.21.37 3.75.36 2.11.36-3.37.36-1.01.36-10.12.37 6.54.36 4.87.36-1.33.36 5.92.36-3.15.37 2.21.36-6.13.36-3.37.36-2.56.37.95.36 3.06.36 7.64.36.2.36-5.31.37-8.22.36 4.88.36 8.13.36-4.07.36-1.95.37 12.78.36-1.75.36-9.19.36 2.17.36 1.87.37 1.54.36 4.51.36-5.74.36.17.37 5.91.36 2.95.36-6.26.36-1.82.36-.71.37-18.45.36-.3.36 2.36.36 9.56.36-5.28.37.91.36 3.89.36-7.03.36-5.56.36 5.31.37-1.03.36-2.59.36-8.47.36 9.75.36.58.37-2.59.36 4.85.36-6.74.36-2.7.37 6.41.36-7.83.36 2.04.36 5.25.36 2.13.37-.87.36.55.36 10.78.36-4.46.36-5.35.37 4.98.36 1.17.36.17.36 2.8.36-8.23.37 7.14.36 8.44.36-3.79.36-9.22.37 5.09.36 1.84.36-.61.36 6.28.36-2.91.37-5.13.36 9.69.36.3.36-13.59.36-10.98.37 7.29.36.71.36 1.91.36-.46.36-11.93.37 6.45.36 3.41.36-3.39.36 8.96.36-3.55.37 3.64.36 1.02.36 2.04.36-5.59.37 4.9.36 7.48.36 1.76.36-6.5.36.58.37 2.21.36-8.75.36 2.91.36 9.68.36.77.37.4.36-.9.36-5.73.36-.87.36 4.91.37-3.26.36 8.01.36-4.24.36-14.65.37 1.6.36 3.78.36 4.98.36.15.36-3.62.37-15.71.36 2.51.36 5.21.36-8.99.36.89.37-4.45.36.27.36 8.22.36.07.36 5.93.37-4.25.36 8.07.36-7.79.36-.92.37-4.79.36 5.36.36 10.07.36-.97.36-5.99.37 2.79.36-2.96.36 1.4.36 6.59.36-1.09.37.46.36 1.41.36 1.96.36-9.41.36 1.07.37-3.42.36-.22.36 6.14.36-15.69.36 2.07.37 1.19.36 1.62.36 6.53.36-4.43.37 6.03.36.04.36-5.41.36 5.67.36 7.85.37 2.57.36 1.97.36-13.19.36.7.36 3.13.37 2.41.36 7.58.36-4.78.36 8.79.36-13.13.37 4.78.36 1.23.36-.46.36-13.1.37 8 .36.87.36-9.99.36.17.36 6.18.37-7.62.36-5.67.36 6.52.36 8.17.36-4.1.37 1.92.36 4.56.36-4.48.36-4.38.36 10.43.37 4.26.36-4.45.36-.7.36-2.22.36 4.81.37-5.26.36-3.83.36 2.4.36 4.28.37 3.28.36-3.51.36 5.62.36-5.68.36 1.68.37-10.08.36-13.54.36 7.55.36 3.96.36-3.02.37 1.87.36 4.83.36-1.53.36 18.55.36-18.88.37 4.27.36-2.22.36-6.27.36 6.17.37 2.99.36-12.23.36 7.82.36-5.57.36 7.66.37-1.99.36-5.8.36-4.05.36 7.5.36 10.03.37-5.43.36-11.7.36-1.9.36 1.08.36 16.84.37-8.51.36.9.36-1.74.36-4.59.36 4.78.37 5.65.36 1.62.36-2.75.36 2.62.37-6.44.36-6.44.36-.58.36-.77.36 7.48.37-.59.36-1.6.36 8.94.36-2.39.36 4.96.37.34.36 6.28.36 5.58.36-4.24.36-7.23.37-.03.36-13.32.36-2.72.36 3.59.37 3.67.36-3.05.36 2.69.36-3.89.36 5.63.37 8.29.36-3.57.36 3.07.36 5.13.36-5.7.37 1.59.36-9.38.36 4.19.36 1.21.36 2.12.37-7.46.36 6.3.36-3.59.36-3.92.37-.14.36-6.31.36 11.73.36 4.68.36-3.94.37 3.33.36 4.31.36 4.08.36.06.36-4.71.37 3.21.36-7.42.36-4.96.36-2.38.36 3.69.37 3.84.36 3.17.36-2.93.36 2.72.36 3.67.37 3.04.36-2.88.36.95.36 5.37.37-.73.36-27.45.36 2.84.36 3.56.36-5.98.37 16.19.36.79.36-12.17.36 1.56.36 6.05.37.68.36.8.36-13.82.36 2.69.36-3.29.37 3.33.36 2.03.36-5.12.36 6.97.37.95.36.12.36 1.91.36-.79.36 10 .37-7.29.36-1.86.36-8.03.36-2.37.36 10.24.37 3.73.36 2.04.36-2.84.36 9.66.36-5.85.37-.82.36-5.81.36 2.07.36.3.36 4.03.37-4.21.36-6.51.36 1.94.36-2.91.37-.72.36 2.7.36 4.65.36 4.59.36 3.06.37 2.66.36 3.69.36-8.88.36-3.29.36-.45.37 6.78.36-.03.36 2.92.36-4.21.36 2.54.37-6.74.36 1.26.36-7.97.36 6.19.37 1.75.36.11.36 5.99.36-12.75.36 4.46.37-3.79.36 5.44.36 2.66.36-2.37.36-8.51.37 5.23.36 4.86.36-5.64.36 2.19.36 2.79.37.32.36-2.69.36-5.11.36 5.71.37-9.22.36 5.46.36-13.26.36 17.94.36-4.09.37-5.99.36-4.95.36 3.38.36 11.62.36-8.45.37 6.19.36-9.38.36-.95.36 7.93.36-.05.37 9.47.36-5.75.36-2.37.36-5.32.36-3.8.37 3.71.36 11.16.36-.63.36-2.32.37 5.35.36-2.75.36 1.42.36-6.2.36 3.81.37 6.35.36 2.31.36-1.52.36-15.32.36 3.74.37-1 .36 8.03.36.59.36-8.07.36-1.13.37.87.36 4.48.36-7.66.36 8.37.37 3.53.36-1.15.36-.87.36 1.65.36 4.09.37-3.67.36-1.96.36.01.36 2.87.36 5.33.37-.7.36 1.69.36-2.86.36-3.36.36-8.08.37 6.04.36 1.7.36.67.36.65.36-6.4.37 6.9.36-7.87.36-1.07.36-.86.37-5.79.36 2.74.36 7.19.36-5.31.36 3.75.37 6.94.36-12.29.36-6.11.36 6.79.36 4.67.37-2.49.36-1.2.36-13.4.36 4.15.36-1.89.37 2.79.36 6.97.36-.05.36-3.55.37 2.94.36-1.97.36 2.94.36 1.06.36-4.36.37-4.67.36 1.59.36 5.61.36 7.18.36-3.32.37-4.15.36 6.15.36 14.54.36-24 .36 1.57.37 2.82.36 6.33.36-11.9.36-.96.36 3.77.37 3.21.36-5.94.36 1.31.36 1.92.37 14.97.36-8.58.36-4.32.36-4.27.36 7.67.37-4.16.36-5.93.36 7.51.36 5.07.36 3.94.37-2.98.36-.59.36-3.94.36-2.12.36 8.73.37 3.26.36.77.36-12.58.36 2.33.37-8.53.36.62.36 3.03.36-8.24.36 2.29.37.56.36 4.38.36-2.18.36 5.81.36-6.76.37 1.91.36-.47.36-2.95.36 5.27.36-4.65.37-4.65.36-.55.36 3.57.36-2.61.37 9.73.36-5.83.36-1.97.36 6.35.36 5.63.37-15.74.36 5.45.36 2.74.36 4.67.36.84.37-4.75.36-4.38.36 4.94.36 6.16.36.24.37 3.39.36-14.85.36 3.23.36 3.44.36-2.94.37-7.79.36 9.81.36-5.55.36-1.97.37 5.01.36-7.98.36 3.56.36-2.96.36 4.95.37.66.36.68.36 5.21.36.25.36 4.8.37-11.11.36 5.44.36 6.35.36-2.34.36-1.57.37 1.71.36-6.66.36 4.3.36 10.17.37 8.17.36-8.47.36-13.34.36 5.79.36-8.09.37.76.36 2.56.36 1.09.36-.1.36-2.81.37 7.35.36 6.48.36-23.93.36-2.6.36 2.87.37 2.19.36 5.91.36-8.87.36 4.16.36 10.42.37 3 .36.67.36-14.72.36 1.67.37-.73.36 5.37.36-1.61.36 3.27.36-.4.37 5.73.36-5.11.36-5.59.36-.77.36 6.28.37-4.84.36-1.42.36 8.38.36.28.36 1.11.37 4.06.36-3.78.36 1.72.36-14.18.37 8.45.36.28.36-1.62.36 4.79.36.45.37 5.65.36-5.28.36-7.97.36 5.67.36-.55.37 2.48.36 2.76.36 3.99.36-4.48.36 6.15.37-.23.36-20.63.36 11.46.36-5.42.36 7.9.37-6.57.36-3.63.36-7.47.36 8.1.37.68.36-2.88.36 1.56.36 2.06.36-6.5.37 2.74.36 1.57.36 1.99.36 2.89.36 2.21.37-7.88.36.51.36-1.83.36-1.21.36 3.94.37-6.07.36-.53.36-1.63.36 7.51.37 6.65.36-3.94.36 4.94.36-2.99.36-7 .37.56.36 3.74.36 7.39.36-6.23.36 7.95.37-6.17.36-9.77.36 7.38.36 2.52.36 15.67.37-15.74.36-1.82.36 5.65.36-3.06.37 1.81.36-5.5.36 6.59.36 3.78.36.31.37-5.87.36 3.37.36 4.99.36-.74.36.8.37-18.71.36 6.36.36 1.65.36 5.25.36-6.3.37 9.23.36-1.03.36-5.69.36-10.2.36 5.48.37.21.36 1.17.36 8.89.36-4.13.37 11.33.36-12 .36 2.05.36-1.1.36-5.08.37-1.59.36 6.19.36 6.33.36 1.2.36.41.37-.03.36-7.67.36 2.47.36 3.58.36-1.44.37 2.55.36.72.36 5.41.36-2.46.37-10.88.36 1.94.36 3.79.36 1.42.36-4.66.37 6.38.36 5.93.36-14.01.36 7.32.36-5.45.37-5.84.36 5.18.36.54.36 13.93.36.49.37-21.76.36.07.36 3.77.36-4.04.36 1.36.37 1.02.36-.42.36 7.36.36 2.07.37-10.77.36 8.32.36-8.13.36.47.36-6.15.37 4.61.36 3.63.36-.64.36-.92.36 4.41.37-.84.36 2.72.36-.15.36-1.84.36-2.32.37 2.4.36 3.57.36 5.03.36-.04.37-3.79.36 13.1.36-4.52.36-6.19.36-.28.37-1.55.36-3.34.36 1.5.36-3.4.36 10.31.37-9.17.36 3.9.36-.85.36-8.38.36 2.12.37 2.56.36.34.36 4.58.36-2.32.36 1.68.37-9.14.36 7 .36 2.52.36-.45.37 2.13.36 6.22.36-8.8.36 7.64.36.57.37-6.8.36 5.58.36-2.53.36-3.24.36 7.14.37-5.62.36-1.04.36 3.92.36-25.35.36 6.41.37 1.59.36 1.36.36 5.8.36-4.83.37 8.34.36 8.08.36-10.4.36-.78.36-3.28.37-.47.36-4.31.36-1.71.36 5.52.36-2.74.37-3.52.36 7.35.36 2.47.36-5.34.36-.85.37-8.58.36 7.97.36-2.84.36 8.64.37-3.18.36-5.81.36-1.81.36 3.03.36-6.99.37 4.56.36-3.05.36 8.08.36 2.56.36-2.47.37 3.98.36.28.36-4.24.36 9.34.36-1.98.37 4.07.36-7.34.36 1.25.36-1.3.36 2.79.37-.6.36 3.94.36 4.37.36 3.15.37-6.01.36-2.13.36-7.25.36 3.62.36 3.17.37 3.56.36-10.62.36 6.38"/><use xlink:href="#aa727__c" transform="matrix(3.75 0 0 3.75 354.25 128.05)"/><use xlink:href="#aa727__c" transform="matrix(3.75 0 0 3.75 95.45 7.51)"/></g><text stroke-linecap="round" stroke-linejoin="round" color="#000" font-family="KaTeX_Main" font-size="8" transform="translate(116 25.11)"><tspan>AVLTopDown</tspan></text><g fill="none" stroke="currentColor" stroke-linecap="round" stroke-linejoin="round" color="#000"><path stroke="#29C3F6" stroke-dasharray="2.5,4.0" d="M80.5 22.51h29.9M28 137.32l.36-2.03.36 6.15.37 2.52.36-5.81.36-23.49.36 15.99.36 8.41.37-1.96.36-6.88.36 10.3.36-8.76.37 1.32.36.25.36-10.29.36 8.6.36 1.17.37 4.81.36-2.57.36.34.36 6.49.36-9.12.37 3.33.36-9.56.36-6.17.36 7.81.36-1.56.37 14.09.36-2.82.36.04.36 2.84.36-9.12.37-2.03.36-3.07.36 7.14.36 6.74.37-6.57.36 8.37.36 5.32.36-3.18.36-13.27.37-.79.36 8.45.36-4.62.36-5.45.36 4.8.37 6.18.36-15.11.36-.81.36 7.73.36-3.07.37 6.35.36-11.59.36 7 .36-4 .37 7.03.36.54.36-3.23.36 3.87.36 4.26.37 2.02.36-5.5.36-5.94.36-.27.36 5.51.37 1.3.36.54.36-7.1.36 5.78.36-1.62.37-.31.36 2.6.36 1.14.36-6.01.37.05.36-3.82.36 3.79.36 3.47.36-7.62.37 2.52.36 3.02.36 4.12.36-3.56.36-5.17.37 5.25.36 6.7.36 2.16.36 5.61.36-17.83.37-.84.36 8.07.36 5.83.36-9.12.36-.54.37 2.95.36-3 .36-1.95.36 6.09.37 6.22.36-9.74.36-2.26.36-11.52.36 5.49.37 1.13.36 9.33.36 3.57.36-12.94.36 4.48.37-9.73.36 1.19.36 6.18.36 2.71.36 3.83.37-1.03.36 1.87.36 4.33.36 3.63.37 1.99.36-6.93.36-11.5.36 7.62.36 12.13.37-8.82.36-4.85.36 9.34.36-1.34.36-3.96.37 3.53.36-11.12.36 3.37.36 1.96.36.36.37 3.08.36 2.76.36-1.63.36-.68.36 1.19.37-12.74.36-.77.36 8.35.36-7.03.37 10.69.36-2.11.36 7.1.36 3.45.36-6.19.37-6.23.36 4.46.36-7.06.36-6.85.36-2.31.37 3.06.36.8.36 5.51.36.6.36-1.1.37 8.8.36-3.61.36 2.31.36-9.2.37 3.59.36-1.79.36 2.42.36 2.7.36-8.64.37 3.63.36 2.83.36-3.04.36 1.23.36 5.97.37-3.51.36-2.54.36 13.76.36-8.46.36-5.51.37-2.82.36 4.62.36 7.31.36-10.11.36-1.44.37 4.96.36-3.62.36.45.36-4.44.37 6.01.36-2.54.36.82.36-8.33.36 9.55.37.53.36-5.16.36 7.73.36 2.95.36-1.55.37 1.93.36-5.9.36-8.45.36 16.91.36-12.11.37 10.31.36-5.75.36 2.53.36 8.74.37.29.36-22.22.36 1.8.36 2.79.36 2.68.37 4.47.36 3.88.36-1.25.36 7.41.36-3.34.37-14.89.36-3.22.36 10.17.36 2.44.36 5.87.37-7.46.36 3.14.36 7.19.36-8.83.37-8.1.36-6.98.36 4.57.36 8.65.36 4.61.37-9.03.36 1.65.36-.44.36 4.58.36-5.51.37 3.03.36 3.09.36 1.89.36-4.78.36 3.54.37-9.69.36 8.63.36 2.32.36 1.91.36 10.97.37-13.52.36-5.95.36-2.82.36 6.27.37-3.13.36-.45.36.62.36 5 .36-.63.37-6.31.36 5.42.36-5.63.36-9.75.36 13.83.37-3.33.36 7.67.36-12.19.36-3.44.36 12.57.37-4.74.36-.75.36 4.5.36 4.86.37-8.79.36 9.73.36 5.83.36-5 .36-21.75.37 3.35.36 12.21.36.19.36 3.6.36-.67.37 4.76.36-5.9.36-7.7.36-10.78.36 10.62.37 4.3.36 4.64.36 1.74.36-2.66.36-8.53.37 3.7.36-3.7.36 1.42.36 2.58.37 6.04.36-3.76.36-10.21.36 7.66.36-1.5.37 1.8.36-12.12.36 21.56.36-8.52.36 1.09.37-11.64.36 2.52.36 2.76.36.69.36 5.14.37.9.36-3.82.36 6.9.36-2.07.37-4.05.36.88.36-1.89.36-3.64.36 10.64.37.49.36-13.42.36 4.22.36 4.86.36-1.18.37-7.91.36 2 .36-3.02.36 4.41.36 3.99.37-.23.36 12.34.36-7.03.36 6.39.36-.17.37-19.59.36-.64.36 9.24.36 3.49.37-12.23.36 3.65.36-5.49.36 10.02.36 3.16.37-1.54.36 8.65.36-4.25.36 6.72.36.58.37-15.45.36 1.13.36.13.36 2.15.36 7.24.37-10.22.36.26.36 3.61.36-3.26.37 8.21.36 2.09.36-2.19.36 6.48.36-7.7.37-7.55.36-11.97.36 10.94.36 3.6.36-.27.37-7.18.36 2.27.36 2.54.36 3.53.36-5.15.37-3.87.36 2.61.36 5.64.36 3.2.37-9.26.36-5 .36 6.19.36 8.53.36-3.83.37.25.36 1.52.36-2.2.36-5.91.36 4.31.37-8.52.36 8.75.36-1.89.36 6.32.36-8.7.37-3.51.36 8.96.36-3.32.36-6.65.36 11.63.37-5.03.36 4.96.36-.09.36 8.2.37-6.22.36-10.02.36 11.53.36-9.54.36-9.47.37 16.92.36 4.64.36-7.85.36 2.84.36 8.4.37.61.36-8.2.36-11.04.36 4.48.36 4.04.37 8.06.36-6.16.36-1.97.36 1.29.37-8.83.36-2.54.36 8.69.36 1.3.36 5.1.37 2.57.36 4.58.36-.17.36-18.69.36-6.39.37 13.28.36 4.85.36.47.36-3.52.36 4.37.37-3.86.36 3.92.36-13.7.36-1.07.36 8.59.37-.53.36 4.11.36.31.36 1.85.37 2.19.36-10.42.36-1.44.36-2.88.36 8.37.37 2.86.36-2.18.36 2.51.36 11.95.36-9.87.37-20.92.36 11.97.36 5.47.36-5.8.36 3.47.37 2.07.36 2.62.36 5.58.36-.69.37-4.39.36-16.08.36 4.97.36 2.2.36-2.15.37-3.16.36 2.78.36 5.05.36-.33.36 1.39.37 6.56.36-.21.36 5.75.36-5.01.36-14.79.37 7.73.36 4.9.36-4.28.36-2.9.37 8.27.36 5.61.36-5.22.36-23.11.36 8.42.37 4.33.36 7.24.36.15.36-.39.36-.2.37-9.61.36 4.21.36-4.23.36-.7.36 6.04.37-2.69.36-2.65.36 4.88.36.92.36 3.93.37-1.61.36 5.73.36 3.82.36-14.47.37-8.16.36 5.7.36 1.07.36 11.63.36 1.1.37 3.16.36 2.12.36-14.09.36-13.02.36 5.65.37 1.61.36 5.29.36 7.25.36-3.92.36 3.31.37 2.62.36 4.03.36-4.94.36-22.36.37 10.61.36 4.58.36-4.89.36 11.8.36-12.58.37 5.5.36 6.85.36-14.37.36 1.16.36-3.17.37 6.55.36 2.73.36-2.26.36 1.5.36-5.18.37 5.46.36-4.24.36 16.84.36-9.27.36-.8.37-1.67.36-7.15.36-3.13.36 9.32.37 2.68.36-1.23.36 3.76.36-.96.36-13.09.37 6.08.36 3.81.36-.95.36-6.42.36 12.77.37-.75.36-2.71.36-4.02.36-15.82.36 15.25.37 4.6.36-.87.36 4.42.36-.73.37 6.43.36-2.92.36-8.92.36-5.8.36 11.19.37 2 .36-10.09.36 7.11.36 4.44.36-.06.37-9.1.36-15.49.36 8.47.36 8.39.36 5.81.37.18.36 1.6.36-8.32.36 4.71.36-12.33.37 5.19.36-2.99.36 9.84.36-6.92.37-7.77.36 10.6.36 5.5.36-9.42.36-1.55.37 2.73.36 5.37.36.34.36-5.72.36 3.37.37-.98.36-9.24.36 9.29.36 9.56.36-8.47.37-.57.36 1.09.36-3.92.36-2.53.37-2.71.36 3.07.36-1.52.36 3.38.36 4.45.37.4.36 4.27.36.13.36-15.96.36 1.58.37 8.36.36-.23.36-3.29.36-6.45.36 14.76.37.98.36-5.88.36-4.42.36 3.05.37-.92.36-3.28.36 4.76.36 7.49.36-.38.37 3.83.36.81.36-8.47.36-12.71.36 7.46.37.59.36 7.97.36-1.59.36-7.08.36 10.2.37-9.45.36.76.36-10.07.36 5.27.36 3.27.37-5.09.36 2.52.36 5.54.36.45.37-5.18.36 5.66.36 2.82.36-5.85.36 3.26.37-3.54.36 3.05.36-5.94.36-1.37.36 11.44.37-2.01.36-3.45.36 6.67.36 2.82.36-3.08.37-14.17.36-2.31.36 8.13.36.6.37 1.5.36-.93.36-1.06.36 2.98.36-5.1.37-5.08.36 3.43.36 4.7.36 4.6.36 4.34.37-1.88.36 9.01.36-19.14.36-6.44.36 3.2.37-3.18.36 10.77.36-5.63.36 9.12.36-5.93.37 4.81.36 1.43.36-.5.36.32.37 1.24.36-9.71.36 3.91.36 1.79.36 5.76.37-9.29.36 9 .36 3.54.36-.65.36-12.25.37-8.64.36 1.99.36 9.32.36-1.57.36 5.99.37-8.66.36 2.91.36-3.9.36 7.73.37 4 .36 4.12.36 1.6.36-15.21.36-8.71.37 2.02.36 10.03.36-6.62.36 9.55.36-.04.37-7.87.36 9.73.36 6 .36-1.26.36-13.93.37-1.43.36 8.6.36 3.46.36-17.94.36 10 .37.97.36-2.49.36 3.69.36-4.31.37 13.07.36-4.41.36 6.28.36-14.22.36-12.51.37 10.9.36 2.77.36.13.36 6.67.36-16.01.37 3.56.36 3.49.36-8.14.36-9.86.36 12.42.37-5.02.36 10.49.36 5.35.36-4.61.37 2 .36 8.97.36-8.5.36.5.36 2.66.37-8.21.36 4.27.36 8.49.36-.84.36 5.62.37-.18.36-15.55.36-11.19.36 12.06.36 3.77.37 3.63.36-.68.36-3.36.36 10.68.37-13.21.36 3.74.36-12.54.36 10.56.36-.15.37-1.41.36-1.54.36 4.58.36-2.33.36-1.18.37 7.07.36-1.04.36-1.68.36 5.78.36-12.48.37-1.12.36-3.32.36-6.77.36 11.43.36-2 .37-1.19.36 7.89.36.29.36.03.37.3.36-6.63.36 4.11.36-7.51.36 4.7.37 10.64.36 1.81.36-12.61.36 10.14.36 4.61.37 1.02.36-13.63.36-1.17.36 5.6.36-4.93.37 9.25.36-1.96.36-1.82.36.03.37 4.66.36-5.84.36-6.25.36 4.54.36 2.19.37 3.83.36-7.82.36 8.48.36-.04.36-6.06.37-3.57.36-4.21.36 8.4.36 2.47.36 10.39.37-9.23.36-6.25.36 1.31.36-6.81.36 2.18.37-1.1.36 8.68.36.27.36-2.55.37 3.25.36-2.04.36-4.98.36-.36.36 4.53.37-9.84.36 4.68.36-.11.36 5.63.36-.45.37-11.15.36 13.07.36.32.36 1.38.36-8.91.37 9.43.36-8.78.36 3.21.36-1.55.37-.34.36-4.83.36 10.83.36-5.85.36-1.74.37 6.61.36-.85.36-6.39.36 3.45.36 5.46.37 3.07.36-11.88.36 8.47.36-6.87.36-6.52.37 18.84.36-2.99.36.08.36-5.82.36-2.3.37 1.45.36 1.44.36-7.24.36-.19.37 13.92.36-9.03.36-13.83.36 9.09.36-4.07.37 5.92.36-3.53.36 7.05.36-.89.36.12.37 5.88.36 2.34.36 5.19.36-12.68.36-7.82.37-1.33.36 3.86.36 8.32.36 3.11.37-3.84.36-.34.36-6.45.36 2.8.36 4.43.37-6.71.36 2.24.36-5.39.36 14.11.36-5.97.37-2.35.36 9.86.36-8.24.36 1.74.36-5.55.37-2.19.36-4.38.36 7.98.36 5.51.37 3.28.36-2.63.36 1.86.36-.29.36-4.68.37-1.98.36-12.04.36 10.59.36 3.54.36 6.11.37-2.48.36 2.37.36 5.05.36-5.19.36-13.88.37 2.93.36 3.54.36 2.77.36 2.15.36 2.18.37-2.34.36 1.07.36-4.32.36-11.24.37 10.93.36-2.29.36 5.7.36-7.3.36 5.63.37-5.55.36-2.44.36 4.93"/><use xlink:href="#aa727__d" color="#29C3F6" transform="matrix(3.75 0 0 3.75 67.83 128.35)"/><use xlink:href="#aa727__d" color="#29C3F6" transform="matrix(3.75 0 0 3.75 95.45 22.51)"/></g><text stroke-linecap="round" stroke-linejoin="round" color="#000" font-family="KaTeX_Main" font-size="8" transform="translate(241.1 10.11)"><tspan>AVLWeakBottomUp</tspan></text><g fill="none" stroke="currentColor" stroke-linecap="round" stroke-linejoin="round" color="#000"><path stroke="#00C853" d="M205.6 7.51h29.9M28 95.16l.36 5.94.36-9.94.37 2.24.36-2.91.36 4.07.36 1.16.36 2.01.37-.06.36 4.84.36-6.29.36 10.31.37-5.37.36-1.68.36-.93.36-9.18.36-3.55.37 7.82.36-9.81.36 15.48.36-15.85.36 8.31.37 2.1.36 2.49.36.45.36 1.99.36-5.34.37 3.5.36-.5.36-26.53.36 16.29.36 12.1.37-2.84.36-4.52.36 5.28.36-9.42.37 4.48.36 7.4.36-3.73.36 5.5.36-10.85.37 3.61.36.28.36 2.54.36-2.96.36-5.9.37-3.73.36 7.97.36-1.32.36-3.41.36 5.51.37-1.06.36 2.16.36-2.19.36 7.39.37 4.86.36-12.88.36 5.1.36 2.08.36-2.22.37 5.9.36 1.99.36-3.09.36-6.69.36 5.6.37-3.75.36 1.22.36-5.74.36-1.15.36 4.72.37 4.04.36-6.27.36-2.54.36-4.94.37 10.8.36-1.92.36 2.22.36 3.5.36-3.13.37-11.81.36 10.51.36 3.61.36 1.23.36-7.71.37-3.94.36 1.74.36.83.36 4.49.36-.9.37 5.08.36.66.36-7.08.36-.05.36-2.42.37 9.73.36-14.24.36 9.78.36.43.37-1.53.36 7.06.36-3.8.36-2.57.36.13.37-9.8.36-6.65.36 7.09.36 20.61.36-6 .37-1.18.36-8.85.36 3.26.36 3.62.36.31.37 2.1.36-8.53.36-9.76.36 16.71.37-10.76.36 9.88.36.68.36-3.45.36 4.35.37-2.36.36-4.2.36 10.56.36-4.94.36.22.37-7.89.36-5.59.36 4.04.36 6.28.36-.22.37 3.88.36-17.04.36 9.92.36.93.36-4.23.37-1.04.36-9.91.36 6.28.36 7.06.37 3.61.36-5.57.36 4.86.36 9.27.36-7.52.37-10 .36 2.97.36 5.8.36-6.07.36 12.67.37-16.13.36 9.95.36-7.79.36 13.08.36-3.53.37 1.71.36-6.02.36-6.72.36 8.89.37 4.11.36-3.06.36-3.31.36-.87.36 2.29.37 1.48.36 5.25.36-1.52.36-.83.36-7.13.37 4 .36 4 .36-1.44.36-4.18.36-3.24.37-3.59.36 8.29.36-2.77.36 1.53.36-10.38.37 8.22.36-4.73.36 2.89.36-2.44.37 1.85.36 11.31.36-6.72.36 13.14.36-12.78.37 5.36.36 3.98.36-13.22.36-1.18.36 17.12.37-2.49.36-4.6.36 3.61.36-10.07.36 13.34.37-7.73.36-3.87.36-.62.36 4.05.37-5.91.36.65.36 11.65.36-8.65.36-6.29.37 11.74.36-9.89.36 6.42.36-13.23.36 15.4.37-9.18.36-.37.36-7.89.36-7.72.36 13.43.37.82.36 4.02.36-5.31.36 7.91.37-1.85.36-12.78.36 2.51.36-3.37.36 4.9.37 4.34.36-1.92.36 8.4.36 2.75.36-8.9.37 7.49.36-6.1h.36l.36-9.3.36 9.42.37-4.5.36-6.29.36 8.39.36 1.17.36 4.81.37 8 .36-5.87.36-5.65.36.46.37 14.11.36-4.56.36.23.36-5.41.36-6.33.37-.94.36 16.4.36-11.79.36-1.38.36 1.32.37 3.24.36-3.88.36-6.19.36 5.99.36-.8.37-6.39.36 3.39.36-.71.36 2.94.37-.94.36-3.31.36 7.05.36-2.5.36 7.92.37-5.4.36-2 .36 2.72.36 6.75.36-20.45.37 21.95.36-10.43.36 6.39.36 10.66.36-5.69.37-14.58.36 5.98.36 5.38.36 2.75.36-8.99.37 1.33.36-7.23.36 10.18.36.22.37-2.99.36-.74.36 2.21.36-1.81.36-6.76.37-5.49.36 6.47.36-11.3.36 16.23.36-11.22.37 1.49.36 1.67.36 3.4.36-6.49.36 11.14.37 12.52.36-2.55.36-4.75.36-1.55.37 4.09.36 4.38.36-6.76.36-5.79.36-1.55.37 6.86.36 3.01.36-.27.36 2.51.36-7.75.37-4.39.36 8.13.36-10.1.36-4.89.36 10.96.37-.04.36-4.43.36.6.36 2.4.36-1.01.37 2.46.36-5.44.36 4.98.36-9.35.37 11.98.36 4.81.36-9.81.36-2.09.36-2.43.37 10.37.36-17.6.36 10.97.36 3.98.36-4.42.37 3.5.36 3.24.36-15.28.36 17.58.36-10.04.37 5.56.36-6.76.36 7.56.36-2.83.37 6 .36-5.33.36-4.57.36-5.8.36 14.1.37.58.36-14.2.36 3.17.36-1.6.36 13.01.37-11.63.36-.16.36-5.19.36 17.64.36-10.24.37 6.9.36-4.29.36 1.14.36 1.32.37.43.36 3.89.36-2.48.36-5.1.36-8.67.37 12.68.36 1.35.36 3.36.36-6.18.36-2.58.37-3.88.36 3.33.36 6.23.36-.31.36 2.69.37-10.36.36-1.26.36 17.79.36-28.11.36 13.43.37 4.5.36 10.13.36 3.04.36-21.66.37 6.2.36-.78.36 1.01.36 6.79.36-15.64.37 1.82.36 5.16.36 17.96.36-6.51.36-2.47.37-6.37.36 2.5.36-9.59.36 13.72.36-8.61.37-6.27.36 11.24.36-5.31.36 1.55.37-.7.36 5.3.36-4.25.36 6.52.36-7.43.37-6.43.36 10.01.36-1.89.36 1.16.36 5.03.37-16.91.36 5.46.36 2.26.36 1.24.36-8.08.37 15.09.36 2.39.36-5.98.36-7.2.36 6.14.37 2.45.36-13.43.36 8.57.36-1.74.37-5.5.36.87.36 8.95.36.01.36-10.74.37-3.88.36 19.21.36-2.93.36 2.95.36-18.17.37 16.93.36-4.5.36-.48.36-1.7.36-6.79.37 9.73.36-2.91.36-4.21.36 11.42.37-2.62.36-6.49.36 1.72.36 2.4.36-5.26.37 5.32.36 9.41.36-14.69.36 3.13.36 4.84.37-9.67.36 2.22.36-4.93.36 9.59.36 1.64.37-12.31.36 3.17.36-8.03.36 8.71.37 16.21.36-13.82.36 12.67.36-13.07.36-2.07.37 3.77.36 6.59.36-5.39.36-1.26.36-.96.37-4.39.36 4.63.36-.22.36 2.85.36-9.86.37 15.81.36-21.79.36 8.87.36 11.02.36-2.13.37.96.36 3.96.36-7.1.36 13.68.37-9.72.36-5.11.36 8.67.36-11.27.36 11.18.37-11.37.36 11.63.36-13.3.36 2.79.36 6.08.37 3 .36-7.06.36-7.95.36 17.98.36-3.9.37-5.7.36-2.91.36-2.1.36 8.85.37 1.41.36-17.95.36 5.27.36 4.42.36 11.27.37-7.93.36.25.36 6.48.36-6.19.36-7.79.37 3.24.36 4.17.36-2.02.36 4.32.36-1.92.37-5.85.36 4.89.36-5.39.36 16.62.36-18.15.37 11.39.36 1.82.36-5.91.36-8.02.37 20.4.36-8.37.36-8.05.36 7.63.36 2.3.37-9.27.36 10.1.36-.56.36-6.86.36-2.7.37 14.82.36-8.19.36-5.25.36 1.08.36 8.3.37-8.55.36-1.18.36-9.7.36 11.85.37 7.38.36-14.64.36 9.49.36-3.29.36 1.26.37-1.71.36 7.19.36 1.79.36-4.38.36-16.94.37 19.08.36.59.36-4.54.36.4.36-7.03.37 6.06.36-3.6.36 5.08.36 6.74.36-9.96.37 4.87.36-1.7.36-9.43.36 13.9.37 3.43.36 1.1.36-3.15.36.28.36-8.92.37-5.14.36 6.15.36 5.27.36-2.01.36 1.59.37-3.43.36 5.11.36 3.39.36-2.74.36-2.99.37-6.12.36-1.11.36 12.57.36-5.02.37-2.01.36-2.97.36 2.68.36-6.34.36 6.74.37 3.68.36-.78.36-2.44.36-6.96.36-.96.37 3.92.36.46.36 1.96.36.95.36-8.52.37-6.17.36 16.16.36-.82.36 1.83.37-4.36.36-1.51.36-2.51.36-.83.36 6.94.37-4.91.36 1.62.36 4.11.36-4.23.36-.08.37 11 .36-1.35.36-5.01.36-9.47.36-3.58.37 11.08.36 5.23.36-9.67.36 9.17.36-9.95.37-4.34.36.15.36 5.58.36 1.83.37 8.6.36-11.42.36 10.93.36-9.53.36 7.06.37-7.56.36-1.78.36 4.62.36-2.44.36 1.38.37-5.15.36 4.52.36 6.34.36-.34.36 1.65.37-1.67.36 4.03.36-9.74.36 6.69.37-1.74.36-9.26.36.47.36-3.26.36 8.28.37-4.9.36 4.68.36 3.87.36-5.26.36-1.42.37-2.32.36 14.18.36-16.59.36 2.71.36-.44.37 6.76.36 4.08.36-4.53.36-9.7.36 7.24.37 7.1.36.12.36-5.64.36 2.01.37 2.31.36-14.21.36 7.57.36 3.62.36-5.31.37 7.25.36.66.36.9.36.81.36-6.74.37.81.36 10.08.36-8.52.36 2.65.36-7.67.37 4.02.36-5.63.36 13.79.36-3.13.37-5.5.36 9.47.36-10.35.36 1.59.36 6.96.37 4.62.36-9.58.36-3.54.36 1.49.36 4.15.37 2.43.36 15.59.36-26.32.36 5.61.36-7.46.37 14.93.36.71.36-18.11.36 19.03.36-4.14.37-10.58.36-8.11.36 9.64.36 3.75.37 7.99.36-2.19.36-4.01.36-2.86.36 9.05.37-11.12.36 7.58.36-2.6.36 5.74.36-8.61.37-.93.36-5.75.36 13.91.36 6.51.36-17.31.37 12.45.36-14.2.36 2.52.36-.41.37-1.85.36-1.28.36 2.49.36 9.67.36-5.54.37-5.57.36 2.63.36.25.36 10.35.36-7.72.37-6.21.36 6.36.36-4.82.36 4.31.36-.32.37-4.38.36.49.36-.52.36 6.37.37-2.99.36.86.36-2.05.36-3.94.36 3.36.37-7.56.36 9.89.36-3.25.36-1.64.36 5.63.37.71.36-2.34.36-2.83.36 7.7.36-1.47.37.39.36-8.18.36 3.58.36 4.56.36-9.35.37 16.82.36-5.2.36-6.79.36-1.56.37 11.24.36-16.6.36 6.23.36-5.96.36 1.73.37 11.3.36-7.59.36 4.28.36.86.36.68.37-1.46.36 1.23.36-5.18.36.77.36 7.69.37 3.79.36 1.34.36-9.58.36 1.08.37-5.79.36 4.73.36-3.3.36 9.98.36 4.04.37-9.88.36 2.76.36-20 .36 14.5.36 6.98.37-3.74.36-3.09.36 5.28.36 2.96.36-23.22.37 15.9.36-2.03.36 2.52.36.36.36 5.35.37 3.8.36-14.81.36-2.91.36 12.07.37-1.63.36 2.95.36-3.85.36-6.26.36 13.22.37-8.29.36 3.92.36.28.36-4.99.36 5.14.37 4.88.36-3.9.36-12.73.36 1.02.36 8.58.37 1.26.36-.97.36-11.67.36 9.19.37-1.2.36-3.23.36 3.14.36-.45.36 3.18.37-6.67.36-.85.36 3.14.36.47.36-3.05.37 4.15.36-6.17.36 11.93.36-12.9.36 6.3.37 2.01.36-5.47.36-12.79.36 22.39.36-10.95.37-1.16.36 16.81.36-4.97.36-2.77.37 1.36.36-3.49.36 1.55.36 6.19.36-10.08.37-.9.36 4.2.36-8 .36-7.38.36 17.52.37-.09.36-1.83.36.05.36 1.29.36-2.33.37 4.94.36-4.65.36-1.55.36-3.65.37 3.56.36-.28.36 19.33.36-12.25.36-7.37.37 8.69.36-3.84.36.33.36 3.72.36-20.03.37 20.81.36-11.54.36-4.78.36 14.99.36-4.46.37.97.36-2.28.36-1.01.36.58.37 20.19.36-23.37.36-2.2.36 4.7.36-5.21.37 8.26.36-2.62.36-5.54.36-.93.36 11.13.37.19.36-3.01.36-1.73.36 2.25.36-5.67.37-1.64.36-.55.36 14.5.36-12.3.36-3.19.37 12.44.36-7.71.36.38.36 4.28.37 6.92.36-12.23.36-1.75.36 9.52.36-1.93.37-2.46.36-1.66.36 5"/><use xlink:href="#aa727__a" color="#00C853" transform="matrix(3.75 0 0 3.75 125.4 98.51)"/><use xlink:href="#aa727__a" color="#00C853" transform="matrix(3.75 0 0 3.75 220.55 7.51)"/></g><path fill="none" d="M28 45.01V162.5M371.99 45.01H28" color="#000"/></svg>