<svg xmlns="http://www.w3.org/2000/svg" xmlns:xlink="http://www.w3.org/1999/xlink" viewBox="0 0 400 200"><path fill="none" d="M0 0h400v200H0z"/><defs><use xlink:href="#0f020__a" id="0f020__g" fill="currentColor" stroke="none"/><use xlink:href="#0f020__b" id="0f020__c" stroke="currentColor" transform="rotate(180)"/><use xlink:href="#0f020__c" id="0f020__f" fill="currentColor" stroke="none"/><use xlink:href="#0f020__d" id="0f020__e" stroke="currentColor" transform="rotate(45)"/><use xlink:href="#0f020__e" id="0f020__h" fill="currentColor" stroke="none"/><path id="0f020__d" stroke="currentColor" stroke-width=".267" d="M-1-1h2v2h-2z"/><path id="0f020__b" stroke="currentColor" stroke-width=".267" d="m0-1.33-1.33 2h2.66z"/><path id="0f020__i" stroke="currentColor" stroke-width=".267" d="M0 1.33 1.265.411.782-1.067l-1.564-.009-.483 1.487z"/><circle id="0f020__a" cx="0" cy="0" r="1" stroke="currentColor" stroke-width=".267"/></defs><path fill="none" stroke="#CCC" stroke-linecap="round" stroke-linejoin="round" stroke-width=".1" d="M46.1 162.5V75.01" class="0f020__gridline" color="#000"/><g fill="none" stroke-linecap="round" stroke-linejoin="round" stroke-width="0" color="#000"><path d="M46.1 162.5V155m0-79.99v7.5"/><text fill="#000" font-family="KaTeX_Main" font-size="8" text-anchor="middle" transform="translate(46.1 172.6)"><tspan> 1</tspan></text></g><path fill="none" stroke="#CCC" stroke-linecap="round" stroke-linejoin="round" stroke-width=".1" d="M82.31 162.5V75.01" class="0f020__gridline" color="#000"/><g fill="none" stroke-linecap="round" stroke-linejoin="round" stroke-width="0" color="#000"><path d="M82.31 162.5V155m0-79.99v7.5"/><text fill="#000" font-family="KaTeX_Main" font-size="8" text-anchor="middle" transform="translate(82.31 172.6)"><tspan> 2</tspan></text></g><path fill="none" stroke="#CCC" stroke-linecap="round" stroke-linejoin="round" stroke-width=".1" d="M118.52 162.5V75.01" class="0f020__gridline" color="#000"/><g fill="none" stroke-linecap="round" stroke-linejoin="round" stroke-width="0" color="#000"><path d="M118.52 162.5V155m0-79.99v7.5"/><text fill="#000" font-family="KaTeX_Main" font-size="8" text-anchor="middle" transform="translate(118.52 172.6)"><tspan> 3</tspan></text></g><path fill="none" stroke="#CCC" stroke-linecap="round" stroke-linejoin="round" stroke-width=".1" d="M154.73 162.5V75.01" class="0f020__gridline" color="#000"/><g fill="none" stroke-linecap="round" stroke-linejoin="round" stroke-width="0" color="#000"><path d="M154.73 162.5V155m0-79.99v7.5"/><text fill="#000" font-family="KaTeX_Main" font-size="8" text-anchor="middle" transform="translate(154.73 172.6)"><tspan> 4</tspan></text></g><path fill="none" stroke="#CCC" stroke-linecap="round" stroke-linejoin="round" stroke-width=".1" d="M190.94 162.5V75.01" class="0f020__gridline" color="#000"/><g fill="none" stroke-linecap="round" stroke-linejoin="round" stroke-width="0" color="#000"><path d="M190.94 162.5V155m0-79.99v7.5"/><text fill="#000" font-family="KaTeX_Main" font-size="8" text-anchor="middle" transform="translate(190.94 172.6)"><tspan> 5</tspan></text></g><path fill="none" stroke="#CCC" stroke-linecap="round" stroke-linejoin="round" stroke-width=".1" d="M227.15 162.5V75.01" class="0f020__gridline" color="#000"/><g fill="none" stroke-linecap="round" stroke-linejoin="round" stroke-width="0" color="#000"><path d="M227.15 162.5V155m0-79.99v7.5"/><text fill="#000" font-family="KaTeX_Main" font-size="8" text-anchor="middle" transform="translate(227.15 172.6)"><tspan> 6</tspan></text></g><path fill="none" stroke="#CCC" stroke-linecap="round" stroke-linejoin="round" stroke-width=".1" d="M263.36 162.5V75.01" class="0f020__gridline" color="#000"/><g fill="none" stroke-linecap="round" stroke-linejoin="round" stroke-width="0" color="#000"><path d="M263.36 162.5V155m0-79.99v7.5"/><text fill="#000" font-family="KaTeX_Main" font-size="8" text-anchor="middle" transform="translate(263.36 172.6)"><tspan> 7</tspan></text></g><path fill="none" stroke="#CCC" stroke-linecap="round" stroke-linejoin="round" stroke-width=".1" d="M299.57 162.5V75.01" class="0f020__gridline" color="#000"/><g fill="none" stroke-linecap="round" stroke-linejoin="round" stroke-width="0" color="#000"><path d="M299.57 162.5V155m0-79.99v7.5"/><text fill="#000" font-family="KaTeX_Main" font-size="8" text-anchor="middle" transform="translate(299.57 172.6)"><tspan> 8</tspan></text></g><path fill="none" stroke="#CCC" stroke-linecap="round" stroke-linejoin="round" stroke-width=".1" d="M335.78 162.5V75.01" class="0f020__gridline" color="#000"/><g fill="none" stroke-linecap="round" stroke-linejoin="round" stroke-width="0" color="#000"><path d="M335.78 162.5V155m0-79.99v7.5"/><text fill="#000" font-family="KaTeX_Main" font-size="8" text-anchor="middle" transform="translate(335.78 172.6)"><tspan> 9</tspan></text></g><path fill="none" stroke="#CCC" stroke-linecap="round" stroke-linejoin="round" stroke-width=".1" d="M371.99 162.5V75.01" class="0f020__gridline" color="#000"/><g fill="none" stroke-linecap="round" stroke-linejoin="round" stroke-width="0" color="#000"><path d="M371.99 162.5V155m0-79.99v7.5"/><text fill="#000" font-family="KaTeX_Main" font-size="8" text-anchor="middle" transform="translate(371.99 172.6)"><tspan> 10</tspan></text></g><g fill="none" stroke-linecap="round" stroke-linejoin="round" stroke-width="0" color="#000"><path d="M371.99 162.5h-7.5"/><text fill="#000" font-family="KaTeX_Main" font-size="8" transform="translate(378.99 165.1)"><tspan>1.00</tspan></text></g><g fill="none" stroke-linecap="round" stroke-linejoin="round" stroke-width="0" color="#000"><path d="M371.99 151.56h-7.5"/><text fill="#000" font-family="KaTeX_Main" font-size="8" transform="translate(378.99 154.16)"><tspan>1.10</tspan></text></g><g fill="none" stroke-linecap="round" stroke-linejoin="round" stroke-width="0" color="#000"><path d="M371.99 140.63h-7.5"/><text fill="#000" font-family="KaTeX_Main" font-size="8" transform="translate(378.99 143.23)"><tspan>1.20</tspan></text></g><g fill="none" stroke-linecap="round" stroke-linejoin="round" stroke-width="0" color="#000"><path d="M371.99 129.69h-7.5"/><text fill="#000" font-family="KaTeX_Main" font-size="8" transform="translate(378.99 132.29)"><tspan>1.30</tspan></text></g><g fill="none" stroke-linecap="round" stroke-linejoin="round" stroke-width="0" color="#000"><path d="M371.99 118.75h-7.5"/><text fill="#000" font-family="KaTeX_Main" font-size="8" transform="translate(378.99 121.35)"><tspan>1.40</tspan></text></g><g fill="none" stroke-linecap="round" stroke-linejoin="round" stroke-width="0" color="#000"><path d="M371.99 107.82h-7.5"/><text fill="#000" font-family="KaTeX_Main" font-size="8" transform="translate(378.99 110.42)"><tspan>1.50</tspan></text></g><g fill="none" stroke-linecap="round" stroke-linejoin="round" stroke-width="0" color="#000"><path d="M371.99 96.88h-7.5"/><text fill="#000" font-family="KaTeX_Main" font-size="8" transform="translate(378.99 99.48)"><tspan>1.60</tspan></text></g><g fill="none" stroke-linecap="round" stroke-linejoin="round" stroke-width="0" color="#000"><path d="M371.99 85.95h-7.5"/><text fill="#000" font-family="KaTeX_Main" font-size="8" transform="translate(378.99 88.55)"><tspan>1.70</tspan></text></g><g fill="none" stroke-linecap="round" stroke-linejoin="round" stroke-width="0" color="#000"><path d="M371.99 75.01h-7.5"/><text fill="#000" font-family="KaTeX_Main" font-size="8" transform="translate(378.99 77.61)"><tspan>1.80</tspan></text></g><path fill="none" d="M28 75.01v87.49m343.99-87.49H28" color="#000"/><text stroke-linecap="round" stroke-linejoin="round" stroke-width="0" color="#000" font-family="KaTeX_Main" font-size="10" text-anchor="middle" transform="rotate(-90 65.13 53.63)"><tspan font-weight="bold">Allocations </tspan><tspan> / log</tspan><tspan dy="3" font-size="8">2</tspan><tspan dy="-3">(Size)</tspan></text><text stroke-linecap="round" stroke-linejoin="round" stroke-width="0" color="#000" font-family="KaTeX_Main" font-size="10" text-anchor="middle" transform="translate(199.99 195.75)"><tspan>Operations / 10</tspan><tspan dy="-5" font-size="8">6</tspan></text><text stroke-linecap="round" stroke-linejoin="round" color="#000" font-family="KaTeX_Main" font-size="8" transform="translate(76.8 10.11)"><tspan>AVLTopDown</tspan></text><g fill="none" stroke="currentColor" stroke-linecap="round" stroke-linejoin="round" color="#000"><path stroke="#29C3F6" stroke-dasharray="2.5,4.0" d="M41.3 7.51h29.9M28 144.31l.36-.3.36-.31.37.52.36.84.36-2.06.36.08.36.98.37 3.47.36.17.36.24.36-.99.37-.55.36-.59.36-.38.36.51.36.46.37-1.67.36-1.74.36.25.36.43.36-.24.37 2.82.36 2.56.36-.67.36-.77.36.52.37-1.26.36-1.15.36.16.36-.47.36-.01.37-.26.36.08.36-1.76.36-.06.37-1.04.36.64.36-2.04.36-1.96.36 1.23.37-1.37.36.16.36.59.36-.84.36-.18.37-.77.36-.95.36 1.01.36 4.34.36-1.26.37-.66.36-.36.36-.5.36-.19.37-2.08.36.86.36.92.36.32.36-1.86.37-.13.36 1.07.36-1.5.36-.44.36 1.52.37 4.12.36-.59.36-.19.36 1.47.36-1.12.37-1.28.36.92.36-1.19.36.87.37 2.72.36-1.58.36-.22.36.73.36-1.92.37-1.4.36.03.36.16.36.75.36 4.11.37-.87.36-.76.36.31.36-1.52.36-1.81.37-1.02.36-.4.36 1.09.36 2.66.36-.67.37-2.04.36-1.66.36-.43.36.87.37 3.35.36.48.36.44.36-.37.36-.89.37-.29.36-.62.36-.98.36.35.36-2.03.37 1.15.36-.41.36-.13.36 3.33.36 1.77.37-2.2.36-.11.36-.19.36-2.52.37.72.36-.8.36 2.32.36-1.49.36-.61.37.46.36 2.8.36.87.36.86.36-.9.37-1.64.36.09.36.79.36.12.36-3.63.37-1.7.36-1.88.36.94.36.03.36.61.37-1.07.36-.52.36-.83.36 2.61.37-.83.36 1 .36-.2.36-.8.36.83.37-1.65.36-1.1.36-.75.36-.76.36-.26.37 3.43.36-.3.36 1.12.36-.89.36-1.62.37.74.36.22.36-.18.36 2.45h.37l.36-1.18.36.15.36-2.5.36.61.37-.33.36 1.02.36.05.36 1.56.36.43.37-1.25.36-.36.36-1.02.36-.29.36-.27.37.05.36.28.36-1.22.36-.49.36-.09.37-.5.36-.5.36 2.41.36 2.63.37.01.36-1.12.36-.44.36-1.28.36-1.27.37-.95.36 1.35.36 1.72.36-2.29.36-.33.37 3.92.36 1.2.36-.92.36-.98.36-.95.37-.76.36-.39.36-.27.36 3.06.37.54.36-.93.36-.12.36-1.08.36-1.81.37.14.36-1.82.36 3.08.36 1.56.36-.95.37-.37.36.39.36 3.48.36.57.36-.84.37-1.92.36-.91.36-1.66.36.94.37-1.68.36.25.36 3.31.36.59.36.97.37-.98.36-1.41.36-1.01.36-1.11.36-1.64.37 2.31.36 2.58.36-.8.36 2.12.36-1h.37l.36-2.29.36-1.5.36-.33.36 3.2.37 2.05.36-.49.36-.94.36-.64.37.15.36-2.06.36-1.21.36 1.54.36 1.9.37 2.18.36-.69.36-.68.36.09.36-2.46.37-.63.36 1.79.36-2.1.36-2.5.36.3.37 1.29.36-.17.36 3.69.36-.92.37-.71.36-1.26.36.38.36.42.36-.71.37.11.36 2.44.36-1.12.36-2.58.36-.56.37 1.48.36-1.9.36.82.36-.07.36 4.42.37-.15.36-.17.36-1.03.36-1.8.36.28.37-1.02.36 1.85.36-.08.36 3.2.37.23.36-2.09.36-.47.36.21.36 1.07.37-1.69.36-.28.36-.75.36-1.46.36-.75.37-.46.36-.52.36-1.4.36-.19.36-.33.37-.39.36-.29.36-1.49.36-.38.37 1.99.36 2.81.36-2.71.36-1.28.36.04.37-.05.36-.79.36-.37.36.14.36-.37.37.48.36 1.24.36-2.26.36.62.36.08.37-.24.36 4.7.36-1.74.36-.04.36-1.51.37-.37.36 1.8.36-.11.36 2.56.37-.36.36-1.11.36-1.05.36-1.3.36 1.35.37-2.2.36 1.66.36.46.36-1.22.36 1.21.37 1.1.36 1.83.36-1.93.36-1.4.36.13.37-2.26.36-.67.36-1.2.36.07.37 2.48.36 1.73.36.21.36-.47.36-1.82.37 2.9.36-1.17.36 1.01.36-1.45.36-.39.37-.46.36.23.36-.11.36-.12.36.89.37 4.56.36-.47.36-.04.36 1.42.37-1.88.36-1.59.36.74.36-.35.36-.15.37-1.71.36-1.02.36 2.12.36-.5.36-1.33.37-1.03.36 1.51.36-.23.36 1.73.36-.51.37-.06.36-2.33.36 2.41.36.81.36.26.37-1.5.36-.79.36-.84.36.65.37-.11.36 1.99.36-.94.36.21.36 2.48.37-.97.36.21.36-1.57.36-.99.36.1.37.76.36-1.6.36.17.36-1.07.36 1.77.37 1.69.36-.17.36 1.74.36-1.1.37-.6.36-1.49.36-.5.36 1.76.36.98.37-1.89.36-2.33.36 4.04.36-1 .36.92.37.1.36.44.36-1.98.36-.41.36.49.37-1.73.36-.43.36-.67.36 4.33.36-1.68.37.31.36-1.62.36.15.36-.49.37.36.36-.4.36-.02.36 1.88.36-.07.37-.55.36.73.36 2.59.36-1.99.36-.18.37-1.41.36.92.36-.13.36-1.56.36-.1.37.39.36-.22.36 3.77.36-1.17.37.84.36-2.17.36-.66.36-.13.36-.42.37.72.36.38.36-1.15.36-1.41.36-.47.37 1.91.36-.34.36.51.36 2.27.36.17.37 1.18.36-.09.36-.46.36-1.6.37-.21.36.88.36.14.36-2.01.36-.5.37 3.88.36-.75.36-1.53.36-.99.36-1.21.37.88.36.02.36-1.37.36-.6.36.14.37.25.36-1.31.36.54.36-.4.36-.6.37 4.72.36-.9.36-.6.36-1.31.37.85.36.95.36.3.36.01.36.13.37-1.51.36-1.05.36-.18.36 2.05.36 1.76.37-1.26.36.51.36-.03.36 1.81.36-.14.37-.17.36-.77.36-.95.36 2.31.37-1.85.36-.81.36-.86.36-.83.36 1.06.37-1.07.36.78.36 1.17.36-.37.36-1.67.37 3.84.36-.41.36-.92.36-.62.36-.98.37-1.69.36.33h.36l.36-.42.36.93.37 2.05.36 1.16.36 1.35.36-.69.37-1.63.36-1.55.36-.05.36 1.05.36-.11.37.41.36.33.36.32.36-.9.36 2.26.37.1.36-.97.36-2.38.36-.58.36.19.37-.54.36.27.36-.06.36 2.33.37-.51.36.17.36-1.16.36 4.71.36-1.38.37-1.23.36.71.36.41.36-2.36.36-1.45.37-.67.36-.35.36.86.36 5.17.36.5.37-.21.36-1.76.36-.31.36-1.79.36-.93.37 1.77.36.04.36-.93.36-1.45.37 2.25.36.54.36-.9.36.67.36-.23.37.26.36.72.36.4.36-1.32.36 2.52.37-1.22.36.25.36.07.36-2.23.36-.45.37-.76.36-.23.36 2.55.36-.51.37-.1.36-1.62.36 2.97.36 1.75.36.18.37-1.29.36-1.85.36-.44.36-.74.36-.43.37-.06.36-.83.36 3.87.36.01.36.64.37-.33.36-.32.36-1.9.36-.59.37-2.13.36-.54.36.17.36 1.63.36 1.99.37-.01.36.52.36-.94.36.26.36.01.37-.57.36-1.27.36.15.36-.6.36-1.15.37 1.03.36 2.05.36.67.36-.28.36-.15.37-1.99.36 1.1.36.19.36-1.2.37 1.09.36 1.53.36-.27.36-1.13.36-1.47.37 1.2.36 2.5h.36l.36-1.51.36.16.37-1.54.36 1.09.36-.36.36-1.38.36-1.94.37-.72.36-2.2.36-.74.36 1.36.37-.36.36-1.19.36 2.1.36-1.14.36.56.37-1.85.36 1.68.36 1.66.36-.61.36-1.2.37-.33h.36l.36-.31.36-1.77.36-.7.37 2.07.36-.06.36-2.01.36-.25.36.57.37 1.03.36 4.59.36.07.36-.87.37-.13.36-.48.36-.76.36-1.54.36-1.26.37-.62.36-.02.36 1.46.36-.72.36.14.37-1.04.36 2.94.36.55.36-1.25.36.17.37-.65.36 1.45.36.75.36-.36.37.5.36-2.25.36.71.36.68.36.06.37-1.41.36-1.08.36 1.13.36 2.47.36-.55.37-2.15.36-1 .36-.52.36.76.36-.64.37 2.82.36.21.36.64.36-2.26.36.1.37 1.7.36-1.24.36-.9.36.47.37.66.36.16.36-2.96.36-.59.36.08.37 1.93.36-1.07.36-.71.36.78h.36l.37 4.63.36-1.39.36-1.23.36.87.36-.41.37-.14.36-.12.36.4.36-.26.37-.29.36-.03.36.11.36 1.15h.36l.37-1.03.36-.41.36-1.62.36 1.89.36.22.37.56.36-.33.36-.84.36-.05.36-.73.37-.31.36-.46.36 2.6.36.68.37-.08.36.59.36-.89.36-2.12.36.47.37 1.42.36-1.98.36-.59.36.41.36 3.32.37.91.36-1.38.36-1.07.36-.44.36-.67.37-.76.36-.46.36.7.36 3.35.36-1.46.37.18.36-2.3.36-.66.36-.03.37-.86.36.58.36 2.22.36 1.56.36-.3.37 1.37.36 1.13.36-1.59.36.08.36-1.84.37-.71.36.14.36-1.69.36.35.36 3.26.37-.54.36-1.06.36-1.44.36-.24.37-.97.36 4.33.36-.24.36-.95.36.31.37-.44.36.71.36-.08.36.73.36-1.79.37 1.67.36-.4.36-.16.36-.55.36.29.37-1.4.36.26.36 1.5.36-.23.36-.16.37.21.36-.69.36 2.94.36-1.36.37-.49.36-.62.36-.02.36-1.44.36-1.57.37.63.36-1.02.36-.54.36.04.36.22.37 1.05.36 2.01.36-.61.36 1.34.36.64.37.15.36-2.12.36-1.6.36.31.37 1.44.36.8.36.19.36-.66.36-.32.37 2.97.36-1.13.36-1.72.36-1.37.36 1.22.37.1.36.57.36 1.31.36-.1.36-1.46.37-.81.36.93.36 1.91.36-1.13.36-1.57.37-.05.36-1.29.36.13.36 1.64.37-.39.36-1.15.36.51.36 3.77.36.08.37-.63.36-1.49.36-1.61.36.55.36 1.1.37 1.8.36-1.28.36-1.85.36-1.07.36.71.37.19.36 3.16.36.89.36-.86.37-.13.36-1.79.36-.49.36-.51.36 3.6.37-1.88.36-.93.36 2.63.36 1.38.36-1.63.37.74.36-.91.36-1.32.36-1.87.36 2.41.37.27.36-.72.36-1.34.36.75.37-1.32.36-.23.36 1.84.36.74.36-1.12.37.12.36-2.23.36 2.21.36 1.9.36-.88.37-1.93.36.08.36-1.57.36-.36.36.71.37 2.42.36-.2.36-1.27.36 2.22.36-.12.37.25.36-.55.36-1.3.36-.53.37.91.36-1.02.36 2.84.36-.97.36.26.37-.47.36 3.8.36-2.21"/><use xlink:href="#0f020__f" color="#29C3F6" transform="matrix(3.75 0 0 3.75 354.25 120.21)"/><use xlink:href="#0f020__f" color="#29C3F6" transform="matrix(3.75 0 0 3.75 56.25 7.51)"/></g><text stroke-linecap="round" stroke-linejoin="round" color="#000" font-family="KaTeX_Main" font-size="8" transform="translate(76.8 25.11)"><tspan>AVLRelaxedBottomUp</tspan></text><g fill="none" stroke="currentColor" stroke-linecap="round" stroke-linejoin="round" color="#000"><path stroke="#D336C8" d="M41.3 22.51h29.9M28 144.25l.36 3.45.36-1.22.37-2.24.36-1.39.36.59.36-.94.36-.23.37 3.17.36-.16.36-.8.36-1.5.37.08.36-.2.36-.34.36 2.12.36-.21.37-.98.36-1.83.36 2.48.36-.26.36 1.04.37-.37.36-.56.36.6.36-.84.36.13.37-1.38.36-.4.36 2.06.36.55.36-.81.37-.62.36 1.12.36-1.04.36.13.37 3.05.36-.53.36-1.3.36-.15.36-1.14.37-1.4.36-.01.36.18.36-1.57.36 3.37.37.33.36.13.36-.38.36-.59.36-.6.37-.53.36.77.36.97.36-.3.37.76.36-2.04.36-1.16.36 3.02.36 1.01.37-.9.36-.9.36-.94.36-.74h.36l.37-1.19.36 1.34.36-1.57.36-1.01.36 5.03.37-.2.36-1.72.36-.96.36-.76.37.89.36-.12.36 2.55.36-.07.36-1.15.37-.68.36-1.15.36 4.09.36-.5.36-1.28.37-1.56.36 1.05.36 1.6.36-.48.36-.27.37-.76.36.52.36-.21.36-.34.36-1.24.37.25.36 2.92.36-.16.36-.84.37-.96.36-1.1.36-.44.36-1.02.36 1.63.37 2.68.36-1.01.36-.48.36-.15.36-.77.37-.86.36.57.36-1.41.36-1.22.36.42.37 4.91.36 1.18.36-.52.36-.17.37-1.18.36-1.26.36.34.36-.62.36-.78.37-.47.36-.41.36.18.36-1.5.36.88.37-.49.36.18.36-2.26.36-.01.36 1.51.37-.26.36 4.76.36-.16h.36l.36.9.37-.21.36-1.48.36-1.19.36-1.36.37.74.36 2.04.36 1.14.36.8.36-1.37.37-.61.36-1.19.36-.21.36-.14.36-.02.37-.74.36 3.91.36.07.36-.99.36-1.18.37-.73.36-.96.36 1.23.36 2.51.37 1.97.36-1.47.36-1.64.36-1.85.36.33.37.33.36.08.36-.43.36-.9.36-1.11.37 1.09.36 1.83.36-.79.36 3.7.36-.49.37-1.59.36-2.36.36.25.36.17.36-.57.37-.4.36.28.36-.29.36 3.51.37-1.5.36-.87.36-.71.36-1.5.36 1.68.37 1.18.36.1.36-.28.36-1.35.36 1.63.37 1.62.36-.24.36.66.36-.78.36.2.37-.26.36-2.29.36-.21.36-.46.37 2.64.36-.33.36-1.61.36-1.42.36.75.37-.55.36 1.46.36 3.36.36-.2.36-1.68.37-.44.36-.03.36-.54.36 2.65.36 1.03.37-.79.36.08.36.17.36-.2.37 2.28.36-.65.36-1.19.36-2.02.36.62.37-1.11.36-1 .36-.56.36.45.36 3.6.37 1.01.36-.64.36-.68h.36l.36.91h.37l.36.02.36.45.36-.83.36.9.37-.43.36.68.36-1.33.36.13.37 1.28.36-1.16.36-.2.36.4.36-.61.37-1.16.36 1.1.36 1.44.36-.98.36-.53.37 1.1.36-1.41.36 1.31.36-1.33.36.76.37-.8.36-.63.36-.31.36-1.29.37-.73.36-.02.36 2.47.36-.71.36-.16.37-1.17.36-.76.36.65.36 2.09.36.91.37-.75.36-.7.36-1.37.36-.5.36-.47.37.05.36.17.36.02.36 2.84.36 1.77.37.01.36-1.43.36-1.59.36-.62.37-.91.36.77.36-.89.36-.37.36-.07.37 2.87.36-1.23.36.53.36-.57.36.38.37-1.62.36-.51.36-1.55.36-.75.36 5.38.37 1.4.36-1.76.36-1.46.36-.9.37 1.15.36.21.36 2.67.36-2.4.36-.43.37-1.72.36-.92.36-1.4.36 4.18.36 1.9.37-.1.36.61.36-.65.36-1.49.36.43.37.03.36-.71.36-.58.36 2.03.36-1.15.37-.14.36-1.32.36.7.36-.46.37.44.36 1.74.36 1.76.36.67.36-1.05.37-.18.36-2.47.36-.27.36.09.36 3.17.37-.06.36-1.49.36-.5.36.17.36-.91.37-2.12.36 1.07.36-1.73.36-.98.37 1.24.36 3.03.36.37.36-.75.36-.42.37-.27.36.09.36-.34.36.25.36 2.1.37-.75.36-.37.36-.95.36-.7.36-.58.37 2.8.36.62.36.88.36.35.37-.63.36-1.96.36-.02.36-.26.36-.91.37.39.36-.39.36-.36.36-1.12.36-1.45.37 1.19.36-.97.36-.41.36.44.36 4.1.37-.92.36.71.36-.79.36-.95.36-.51.37.69.36 1.19.36-1.12.36-1.08.37 1.83.36 1.77.36-2.06.36-1.57.36.07.37.38.36.23.36 1.85.36 2.14.36 1.04.37.18.36-1.37.36.24.36-1 .36-.83.37-1.03.36-.15.36-1.4.36.68.37.09.36-.05.36 2.45.36-1.44.36 1.9.37-1.98.36-.89.36 1.45.36-.08.36-1.01.37.12.36.29.36.88.36-2.23.36-.64.37 2.83.36-.76.36-1.33.36-.94.36 3.17.37 1.02.36-1.46.36-1.32.36-1.16.37.38.36.29.36.64.36-.21.36-.43.37-1.68.36 1.93.36.71.36 1.01.36-1.32.37-1.29.36.52.36.25.36-.97.36.76.37.02.36 3.68.36-.8.36-.88.37-.96.36.24.36 1.22.36-.75.36-1.76.37-.73.36 1.1.36-.01.36.1.36-.17.37-.04.36-.43.36 1.43.36-.8.36 3.15.37-.51.36.63.36-1.03.36-.97.37 3.09.36-.6.36-1.24.36-1.73.36.41.37-.04.36.07.36-.71.36.13.36-1.07.37-.42.36-.92.36.86.36 1.01.36-.39.37-1.57.36 4.59.36-.56.36-.09.36.79.37-1.45.36-1.76.36-.64.36 1.37.37-.62.36.32.36.19.36-.83.36.13.37-1.73.36 1.97.36-1.17.36-1.02.36-.2.37-1.62.36 5.31.36 1.32.36 1.07.36-.38.37-1.54.36.1.36-2.2.36 1.1.37 2.17.36-1.89.36-.3.36.07.36-1.1.37-.6.36 1.49.36.47.36-.13.36-1.09.37-2.44.36.9.36 1.32.36-.33.36-1.55.37 2.82.36 2.96.36-2.12.36.19.36-2.36.37-.09.36.47.36.55.36.89.37 1.87.36.96.36-.71.36-1.82.36-1.6.37.58.36-1.15.36 2.12.36 1.56.36-1.61.37-1.98.36.5.36-1.47.36-.44.36.06.37 2.44.36 2.94.36.42.36-.87.37-1.28.36 1.09.36-2.04.36.52.36-.84.37-1.13.36-.34.36-1.59.36.97.36.54.37-.04.36-.39.36-.59.36-1.45.36.01.37.19.36.56.36.58.36 4.28.36-.05.37-.84.36-.59.36-.81.36.57.37-.28.36 1.25.36.04.36 2.6.36-.06.37-1.05.36-.82.36-1.57.36-.46.36.35.37-.86.36-1.85.36 1.41.36 1.4.36.11.37 3.59.36 1.08.36.12.36-3.01.37-1.38.36.27.36-1.87.36.95.36 2.51.37-.21.36-1.07.36-.84.36 1.58.36-.15.37-.35.36-2.67.36 2.18.36 2.81.36-2.19.37-1.49.36-.56.36-.5.36.24.37-1.16.36-.58.36-.87.36 1.28.36 1.9.37-1.71.36-1.63.36 4.07.36-.26.36.06.37-.52.36.13.36.34.36.89.36-.78.37-.99.36-2.19.36 1.39.36-.29.36.41.37 1.26.36 3.61.36.32.36-2.41.37-.62.36-.62.36-.2.36-.53.36.49.37-1.14.36.04.36-.4.36.35.36 2.25.37 2.96.36.09.36.02.36-1.77.36-1.39.37.53.36-.64.36-1.32.36.84.37-.81.36-.32.36.73.36.35.36 1.06.37.79.36 1.46.36 1.12.36-2.61.36-.46.37-.52.36 1.87.36-1.15.36-1.92.36-.77.37.79.36.42.36-2.88.36.36.36 1.99.37 1.07.36-.81.36-.52.36-1.09.37 2.2.36 2.38.36 1.56.36-1.17.36-1.3.37-1.62.36-.73.36-1.01.36-1.27.36-.59.37-.18.36 1.91.36.14.36-1.3.36-.73.37 5.49.36-.03.36.44.36-1.06.37.82.36-1.94.36-1.21.36-.14.36.82.37-.79.36-1.47.36-1.2.36.94.36-1.42.37.08.36 1.13.36-2 .36.62.36.37.37 1.73.36-.78.36-.43.36 5.69.36-.34.37-1.8.36 1.58.36-2.43.36-.2.37-.97.36-1.44.36.36.36 2.64.36.18.37-1.53.36.12.36-.67.36-2.55.36 1.87.37-.71.36-.3.36.21.36.47.36.18.37-.52.36.21.36-.86.36-1.43.37 2.38.36-1.05.36-.64.36 1.72.36-.02.37-.82.36-1.44.36.12.36.93.36 3.83.37 2.62.36-2.09.36 1.2.36-.58.36-.71.37-.14.36.29.36.24.36.04.37 2.45.36-.85.36 1.1.36-2.34.36-1.11.37 1.29.36-1.11.36-.19.36-.9.36-.26.37-1.27.36-.44.36.55.36.76.36 1.31.37-.71.36-.33.36-1.44.36-.61.36-.41.37.52.36.26.36 3.18.36-.34.37-1.37.36 1.16.36-.03.36-1.73.36.11.37 1.82.36-1.44.36.83.36-.98.36-1.12.37 4.74.36.31.36-1.27.36-1.32.36-.76.37.88.36-.49.36.31.36-.8.37.48.36.22.36-.23.36-2.72.36-.14.37.38.36-1.09.36-.28.36-.09.36 2.5.37 1.33.36.51.36-.94.36-1.79.36.39.37-1.8.36.79.36.7.36.36.36 4.2.37.6.36-1.11.36-.81.36.83.37-.69.36.08.36-.54.36-1 .36.85.37 1.67.36.79.36-.93.36-.61.36-.01.37-1.28.36-.01.36-.25.36 2.14.36.12.37 1.49.36.53.36-1.93.36-.85.37-.08.36-1.25.36-1.3.36 1.76.36 1.44.37 1.71.36-1.37.36-2.05.36 1.16.36.1.37-.8.36.21.36-.45.36.31.36-.7.37 1.56.36-.19.36-.81.36-.8.36-2.08.37 1.92.36-.52.36-1.37.36 4.37.37 1.03.36-.05.36-.17.36-1.16.36-.62.37-.12.36 1.8.36.24.36 1.21.36-.48.37-1.52.36.39.36-.95.36-.44.36-1.31.37 1.1.36-.23.36-.44.36.31.37 1.16.36-2.35.36-.27.36-1.68.36-.36.37 4.14.36 1 .36.54.36.05.36-1.02.37-1.88.36.07.36 1.78.36.11.36.56.37.02.36-.39.36.71.36-1.34.37-.25.36.3.36-.36.36-1.58.36.75.37 1.4.36-1.72.36-1.73.36-3.37.36 2.77.37 1.3.36 4.35.36-.03.36-.29.36-.8.37-.63.36-.52.36-.71.36-1.21.36.74.37-1.14.36-.44.36 1.32.36-1.02.37 1.36.36 2.82.36-.47.36-2.07.36-.02.37 1.41.36-.17.36 3.42"/><use xlink:href="#0f020__b" color="#D336C8" transform="matrix(3.75 0 0 3.75 67.83 140.56)"/><use xlink:href="#0f020__b" color="#D336C8" transform="matrix(3.75 0 0 3.75 56.25 22.51)"/></g><text stroke-linecap="round" stroke-linejoin="round" color="#000" font-family="KaTeX_Main" font-size="8" transform="translate(76.8 40.11)"><tspan>RedBlackBottomUp</tspan></text><g fill="none" stroke="currentColor" stroke-linecap="round" stroke-linejoin="round" color="#000"><path stroke="#F44336" d="M41.3 37.51h29.9M28 145.15l.36-.13.36-1.85.37-1.1.36.08.36-1.67.36-2.19.36-.82.37-.16.36.17.36 10.35.36-2.22.37-2.89.36-1.66.36-1.43.36 2.62.36-1.89.37-1.48.36-2.8.36-1.14.36 5.26.36.1.37-1.68.36-2.34.36-.48.36-.51.36-1.93.37-2.28.36-1.78.36 3.77.36 14.97.36-1.45.37-1.69.36-2.21.36-1.98.36 2.22.37-2.53.36-1.73.36 1.67.36-2.71.36-1.42.37-1.16.36-1.15.36 2.56.36 2.05.36-.33.37-1.5.36-.74.36-1.19.36-1.82.36-.52.37-1.34.36 10.63.36-2.4.36-1.38.37.22.36-.4.36-1.92.36-2.4.36-1.01.37-1.45.36-1.29.36 1.5.36-1.85.36-2.05.37 6.09.36-1.35.36-2.34.36-.64.36-1.09.37-.11.36-2.04.36-1.19.36-.5.37 15.02.36 1.56.36-1.63.36-1.15.36-.82.37-1.39.36-2.75.36-.65.36-1.31.36.26.37 3.02.36-2.09.36-.13.36.09.36-1.03.37-2.16.36-2.27.36.24.36.89.36-1.86.37-3.42.36 6.31.36 2.26.36-1.12.37-.43.36-1.98.36-2.45.36 2.27.36-1.25.37-2.1.36-.56.36-1.77.36 4.54.36-.06.37-2.15.36.51.36-2.4.36-1.67.36.27.37.43.36-1.41.36-2.46.36-.35.37-.38.36-2.35.36 16.63.36 8.32.36-2.98.37.14.36.34.36-1.01.36-2.48.36-2.59.37 1 .36-.78.36 3.99.36-1.65.36-1.93.37-.11.36-.78.36-.98.36-1.96.36-.56.37.06.36-1.58.36-1.13.36-1.78.37 8.28.36.94.36-.74.36-.48.36-1.29.37-1.91.36-.26.36.41.36-1.88.36-1.16.37-2.48.36 4.37.36-1.5.36-1.1.36-.52.37.22.36-.27.36-1.24.36-2.59.37-1.17.36-2.3.36 8.33.36 9.69.36-1.5.37-.91.36-2.56.36-1.34.36.2.36-1.89.37.17.36-2.09.36-2.97.36 5.53.36.07.37-1.5.36-1.1.36-1.49.36-.07.36-.67.37-.98.36-1.41.36-1.28.36-1.01.37-2.36.36 5.25.36 5.41.36-2.93.36.98.37-1.84.36.72.36-.94.36-1.75.36-1.81.37-2.22.36.19.36 5.55.36-1.12.36-1.39.37-2.16.36-1.42.36.16.36-2.8.37-1.76.36.92.36-1.55.36-1.67.36 8.58.37 16.29.36-.79.36-1.3.36-2.59.36-2.15.37 2 .36-.39.36-1.25.36-1.12.36.79.37-2.07.36-2.43.36 1.38.36-1.31.37-.54.36.83.36.67.36-2.13.36-1.8.37-1.54.36-1.72.36 1.75.36 8.7.36-2.85.37 1.45.36-2.04.36-1.29.36-2.12.36-.95.37-2.18.36 2.39.36 2.72.36-1.39.36-1.85.37-1.53.36.02.36-2.41.36-1.57.37-.48.36-.88.36 5.28.36 11.41.36-2.55.37-.85.36-1.15.36-.65.36-2.15.36-.8.37-1.26.36-1.15.36.18.36 3.44.36-1.12.37-.64.36-1.3.36-2.13.36-.38.37-1.15.36-1.55.36-.15.36-1.69.36-2.19.37-.72.36 9.65.36-2.08.36.21.36-.7.37-1.02.36 1.9.36-1.61.36-1.63.36-2.91.37-2.56.36-2.09.36 6.57.36-.56.36.02.37-2.61.36-1.92.36.69.36-1.35.37.05.36-1.93.36-2.44.36 2.08.36 28.52.37-.97.36-2.24.36.32.36-1.24.36-1.51.37-.21.36-.68.36-2.11.36-2.31.36-2.27.37 7.21.36-1.13.36-.38.36-.82.37-1.62.36.43.36-1.8.36-1.87.36-1.47.37-1.52.36 6.67.36 3.86.36.04.36-.55.37-1.64.36-2.01.36-2.08.36-2.21.36-1.6.37.69.36-1.16.36-1.08.36 6.09.36-2.3.37-1 .36-1.63.36-2.14.36-.19.37-2.36.36-.93.36.25.36-1.26.36 9.69.37 7.92.36-2.42.36-1.93.36.58.36-1.03.37-1.73.36-1.76.36-1.51.36-.91.36-.65.37-1.53.36 4.33.36 2.42.36-1.78.37-.49.36-2.37.36-.33.36-2.16.36-1.92.37-.48.36-1.23.36-2.2.36 12.36.36.48.37-.9.36-1.61.36-2.1.36-1.52.36-1.78.37-.82.36.83.36-1.23.36-2.48.37-2.49.36 7.61.36-1.51.36-1.82.36-1.49.37-.29.36-.02.36-3.05.36-1.7.36-.05.37 2.76.36-1.73.36-1.68.36 6.35.36 16.51.37-.69.36-.92.36-2.7.36-2.38.36-.07.37-1.39.36-.31.36-1.07.36-1.77.37 2.11.36 3.79.36-1.14.36-1.61.36-2.8.37-2 .36-.02.36.19.36-1.53.36-1.53.37.05.36-2.96.36-.07.36 12.71.36-1.98.37-1.93.36 1.08.36-2.13.36-2.04.37-2.27.36-1.91.36 1.84.36-.37.36 2.56.37.75.36-2.08.36-.84.36-.4.36-1.56.37-1.2.36-.2.36.6.36-1.88.36 6.69.37 6.13.36-2.86.36-1.63.36-.92.36.34.37-1.84.36.03.36-.7.36-1.24.37.84.36 1.63.36-1.67.36.61.36-.85.37-1.34.36-1 .36-3.44.36.07.36-1.22.37-1.17.36 7.25.36 3.22.36-1.55.36-.05.37-1.42.36-2.49.36-2.52.36 3.06.37-2.5.36-2.39.36-.89.36-1.63.36 1.12.37 4.64.36-1.59.36-.12.36-.76.36-2.03.37.22.36-1.65.36-1.87.36-.17.36.04.37-.03.36.21.36 8.53.36 17.43.37-1.35.36-1.22.36-.52.36.07.36-.94.37-.58.36-.45.36-1.38.36-1.09.36-.28.37-1.68.36-2.01.36.8.36 4.68.36-.87.37-1.48.36-2.15.36.41.36-.73.36-1.23.37-.45.36-1.58.36 6.4.36 3.94.37-.94.36-1.48.36-.88.36-1.94.36-1.8.37-.15.36-1.76.36-2.09.36.83.36-1.67.37-2.92.36.57.36 5.21.36-1.77.36-.85.37-1.32.36-1.19.36 1.23.36-2.03.37-1.8.36-.22.36-2.83.36 15.37.36 3.26.37-.84.36-1.84.36 1.19.36-1.67.36-2.4.37-.73.36 1.22.36-2.71.36-1.27.36-1.02.37-2.09.36-1.65.36 5.18.36-.2.36-.4.37-1.16.36-1.18.36-2.97.36 3.14.37-2.55.36-.8.36-2.24.36-.65.36 1.31.37 5.77.36.01.36 2.21.36-1.92.36-.94.37-1.23.36-2.47.36-1.32.36 3.02.36.33.37-2.72.36-.39.36-1.85.36-1.4.37-.34.36-1.7.36-.91.36.1.36-2.28.37 17.09.36 7.3.36-2.01.36-2 .36.69.37-1.97.36-2.71.36-1.93.36 2.47.36-1.27.37-1.27.36-.93.36-1.42.36-.55.36 6.17.37-1.51.36-.9.36-.56.36-2 .37-2.12.36-1.36.36-.23.36-.11.36-1.58.37-2.96.36 9.64.36 1.64.36-1.92.36.19.37-.37.36-.32.36-1.89.36-1.6.36-.61.37-.4.36-1.8.36-2.91.36 7.68.37-2.54.36-.63.36-1.17.36-1.09h.36l.37.06.36-1.39.36-1.1.36.51.36-2.43.37-.65.36-.87.36 1.03.36 16.01.36-.66.37.19.36-1.08.36-2.56.36-2.54.37-1.91.36 2.38.36-1.45.36.77.36-2.18.37-2.44.36 2.73.36 1.75.36-1.53.36-1.52.37-1.61.36 2.4.36.13.36-2.18.36-1.87.37-1.21.36-1.62.36-1.82.36-2.19.36 13.08.37-1.04.36-1.1.36-.79.36-.7.37-1.71.36-1.88.36-.43.36.25.36-1.44.37-2.37.36.96.36-.39.36 3.55.36.35.37-1.9.36-.55.36-.91.36-.82.36-.56.37-2.07.36-.78.36-.49.36-.14.37-1.94.36-2.96.36-1.22.36 36.56.36 4.04.37-1.6.36-.96.36-.91.36-2.45.36-.79.37.45.36-1.72.36-1.53.36-1.66.36 5.51.37-.24.36-2.05.36-.69.36-.7.36-2.68.37-.71.36-1.37.36-2.41.36 11.2.37-1.02.36-1.75.36-1.62.36.34.36-.16.37-2.66.36-.79.36-1.4.36-2.74.36 6.57.37-1.78.36-2.34.36-.32.36.3.36-1.11.37-2.08.36-.09.36-3.13.36-1.27.37.58.36-.47.36-2.25.36 7.21.36 10.03.37-2.39.36-.43.36-1.48.36.93.36-1.52.37-1.17.36-.7.36-2.09.36 3.28.36 1.47.37-1.06.36-2.42.36-1.99.36-1.59.36.54.37.38.36-1.99.36-1.23.36-1.72.37-1.19.36-1.35.36-1.58.36-1.54.36 13.69.37-1.86.36-1.23.36-2.12.36 1.53.36-.66.37-.98.36-1.31.36.23.36-3.08.36-1.38.37 6.03.36-1.82.36-.24.36.07.37-1.81.36-1.98.36-.23.36-2.04.36-.79.37.45.36-1.67.36 4.24.36 18.02.36-.25.37-1.08.36.33.36-1.76.36-1.66.36-.95.37-2.05.36.33.36-1.21.36-1.47.37 4.64.36.45.36-1.59.36-1.75.36-.32.37-1.22.36-1.52.36-2 .36-.48.36-.86.37-1.44.36 1.66.36 9.41.36-1.67.36.62.37-1.33.36-2.55.36-1.97.36-.1.36-.25.37-1.28.36-2.2.36-.66.36-1.66.37 3.9.36.67.36-.55.36-.41.36-.48.37-2.21.36-2.18.36.18.36-1.54.36-1.39.37-.39.36.76.36-1.59.36-3.86.36 5.02.37 15.61.36-1.88.36-1.35.36-1.68.37-1.18.36-.35.36-1.96.36.05.36-.32.37-1.27.36-.4.36.2.36 4.61.36 1.01.37-1.86.36-1.69.36-.46.36-1.12.36-1.12.37.11.36-1.21.36-2.31.36-1.61.36-.06.37-.31.36-1.17.36-2.21.36 10.05.37 2.39.36-1.43.36-1.73.36-1.49.36-1.04.37.55.36-2.07.36-2.01.36 3.06.36 1.84.37-2.05.36-.85.36-1.02.36-1.88.36.8.37-1.62.36-2.24.36-1.57.36.13.37-1.56.36-2.82.36-2.03.36 34.01.36-2.57.37-1.32.36.13.36-.25.36-1.29.36 1.57.37-1.57.36-2.81.36-2.21.36.2.36 4.29.37.59.36-2.09.36.46.36-.68.36-.36.37-2.54.36-1.94.36-1.52.36.33.37-1.56.36 2.98.36 7.31.36-1.44.36-1.52.37-1.29.36-1.58.36-1.59.36.85.36-1.51.37-2.35.36-2.47.36-1.65.36 6.96.36 1.27.37-.22.36-.96.36-1.89.36-2.44.37-2.28.36.85.36-1.15.36-1.49.36-1.5.37-1.09.36 19.43.36-.74.36-1.56.36-1.17.37-1.26.36-1.84.36-2.71.36 1.12.36-1.66.37-.86.36-1.95.36 4.12.36 1.14.37-.68.36-1.38.36-1.27.36-1.47.36-.48.37.09.36-2.09.36-2.76.36-1.5.36-.06.37-1.37.36 9.55.36.81.36-.82.36-.54.37-.88.36.51.36-2.86.36-1.75.36-.94.37.15.36-1.66.36 2.55.36 1.28.37-1.96.36-.32.36-.26.36-2.42.36-1.81.37-1.78.36.77.36-1.4"/><use xlink:href="#0f020__b" color="#F44336" transform="matrix(3.75 0 0 3.75 125.4 108.76)"/><use xlink:href="#0f020__b" color="#F44336" transform="matrix(3.75 0 0 3.75 56.25 37.51)"/></g><text stroke-linecap="round" stroke-linejoin="round" color="#000" font-family="KaTeX_Main" font-size="8" transform="translate(76.8 55.11)"><tspan>RedBlackRelaxedTopDown</tspan></text><g fill="none" stroke="currentColor" stroke-linecap="round" stroke-linejoin="round" color="#000"><path stroke="violet" stroke-dasharray="4.0,2.0,1.0,2.0" d="M41.3 52.51h29.9M28 156.68l.36-1.63.36-1.07.37 1.99.36-1.67.36-1.53.36 1.19.36.58.37.96.36-.74.36-2.19.36 1.72.37.1.36.77.36-2.09.36 1.14.36.6.37-.14.36.42.36-.75.36-2.6.36 3.51.37.75.36-.99.36-1.32.36 1.12.36.54.37-.37.36-1.61.36 2.1.36.11.36-1.23.37.09.36.33.36-.09.36.31.37-.85.36 1.97.36-.57.36-.62.36.47.37.96.36-.5.36-1.03.36.84.36-.43.37 2.07.36-1.2.36-1.15.36-.66.36 2.09.37-.4.36.01.36-2.39.36.88.37 2.14.36.26.36-1.07.36-1.31.36 1.48.37-3 .36 3.55.36.44.36-1.45.36-.65.37.09.36-2.81.36 4.24.36.08.36-2.85.37 1.38.36-.44.36-.44.36.4.37 2.63.36-1.1.36-.12.36-1.37.36-2.67.37 3.34.36-.43.36.44.36-1.04.36-.43.37-.63.36 3.25.36-1.49.36-.65.36-2.73.37 2.03.36 1.85.36-.24.36-1.95.36 1.89.37 1.69.36-1.46.36-1.32.36 1.01.37-1.96.36 3.11.36.4.36-1.38.36.09.37-.21.36-.51.36-1.84.36 2.93.36 1.09.37-1.39.36-1.39.36-.93.36 1.03.36-.85.37 2.32.36.52.36-.89.36-1.87.37.48.36 1.98.36.16.36-2.06.36.27.37.46.36-.44.36-.63.36-.27.36 2.63.37.55.36-1.62.36-1.68.36 3.17.36.8.37-1.13.36.06.36.63.36-2.53.36 1.41.37.5.36.17.36-.03.36-.55.37.05.36 1.11.36-.46.36-.74.36-.79.37.14.36-.2.36.21.36 1.12.36-.38.37-1.06.36-.77.36 2.39.36.35.36-.7.37-.6.36.05.36-2.27.36 3.45.37.64.36-.66.36-.26.36-1.81.36.77.37 2.26.36-.55.36-1.18.36-2.46.36-.56.37 2.47.36-.38.36.02.36.43.36-1.52.37 2.44.36.19.36-1.71.36-3.11.36 2.23.37.83.36-.76.36-.84.36-1.41.37 2.79.36 1.09.36.01.36-.45.36-1.82.37 1.62.36.61.36 1.11.36-3.48.36.11.37 2.88.36-.73.36-1.75.36 2.21.36.17.37-.97.36-.04.36-.19.36-.49.37 1.24.36 1.28.36-2.56.36.08.36 1.59.37-.41.36-1.63.36-1.14.36 1.46.36.2.37-.78.36.13.36-.17.36 2.78.36-.86.37-.17.36-3.01.36 1.69.36 1.83.37.25.36-1 .36-1.98.36 2.82.36-.5.37-.06.36-1.75.36.29.36 1.87.36-1.01.37-1.55.36.63.36-1.82.36 2.77.36.69.37-1.39.36-.03.36 3.29.36-1.15.36-1.17.37-.68.36 2.23.36-.79.36-1.79.37-1.85.36 2.74.36 1.6.36-.79.36-2.04.37 1.82.36-.15.36-2.19.36.35.36.2.37 2.21.36-.12.36-.81.36-2.8.36 2.13.37.3.36.72.36-1.44.36-3.39.37 5.4.36.63.36-.87.36-1.38.36-.27.37-1.06.36 2.83.36-.64.36-1.09.36.23.37.68.36-1.81.36-2.08.36 3.01.36.67.37-.75.36-.92.36 2.44.36-.45.36-1.61.37-.93.36-.51.36 2.97.36.5.37.75.36-3.33.36.31.36 1.17h.36l.37-1.35.36-1.52.36 2.96.36 1.35.36-2.37.37-1.31.36 2.35.36 1.89.36-.36.36-.38.37-2.28.36 1.7.36-.06.36-.11.37-.21.36-.69.36 2.38.36-.56.36-1.14.37-2.55.36 3.74.36-.23.36-.78.36-.95.37-.38.36-.1.36 2.28.36-.56.36.65.37-1.51.36-1.71.36 1.32.36.93.36.84.37-2.42.36.37.36 1.6.36.32.37.01.36-1.4.36 2.63.36-.29.36-1.04.37-1.18.36.03.36 2.2.36-.06.36-.78.37-.41.36-1.68.36 1.92.36.02.36-.31.37-.76.36 1.42.36-1.77.36 2.35.37-.91.36-.46.36-2.14.36 3.59.36.36.37-1.81.36-1.62.36.36.36-.21.36.73.37.29.36.72.36-.13.36-1.76.36 1.72.37-.22.36.93.36-2.77.36-.3.37 1.66.36 1.16.36-.27.36-1.46.36 1.1.37.23.36-1.22.36 1.63.36 1.98.36-.56.37-.66.36-1.74.36-.74.36.84.36-.16.37.43.36-.88.36 2.11.36.39.36-1.32.37-1.54.36 2.78.36 1.1.36-1.63.37-2.23.36 2.21.36-.34.36-.93.36-.49.37-1.16.36 2.89.36 1.01.36-1.96.36-.98.37-.49.36.01.36 1.67.36.94.36-.46.37.19.36-1.23.36-2.52.36 3.31.37-1.13.36-.92.36.03.36 2.11.36.11.37.3.36-1.62.36 1.21.36.78.36-.39.37-.89.36.8.36-.33.36.45.36-2.77.37 1.1.36 3.17.36-.9.36-2.17.36 1.36.37-.23.36-.36.36 2.27.36-1.38.37-1.97.36-.86.36-.54.36-.26.36 2.07.37 1.03.36.08.36-3.45.36 1.72.36 1.85.37-.22.36-1.71.36-1.85.36 3.26.36.95.37-1.08.36-.28.36 1.92.36-.42.37-1.22.36-1.94.36.49.36-1.11.36 1.75.37 1.63.36-1.18.36-2.49.36 3.99.36-2.11.37-.41.36.72h.36l.36-1.54.36 1.16.37 1.54.36-.42.36.02.36 1.68.37-.43.36-.29.36-1.18.36-1.58.36 2.41.37.08.36-.09.36-.91.36-.21.36-.47.37 1.32.36.02.36.17.36-2.41.36 2.27.37.19.36.16.36-1.44.36.33.36-1.09.37 1.48.36-2.45.36-1.22.36 3.65.37 1.77.36-.68.36-2.24.36 2.32.36.89.37-1.71.36-.09.36-.82.36-1.53.36 2.4.37.02.36-.31.36-2.47.36 2.13.36.33.37.28.36-.2.36-2.69.36 2.87.37.47.36-2.04.36.38.36 2.72.36-1.15.37-.84.36-.68.36-1.69.36 2.86.36 1.64.37-.72.36-1 .36.38.36-2.13.36 1.79.37 1.35.36-.16.36-.76.36-2.03.36 2.05.37.47.36-.71.36-.96.36.29.37-2.12.36 1.74.36 3.06.36-.86.36-3.02.37 1.19.36-.85.36 1.02.36.74.36-.65.37-2.52.36 2.55.36 1.32.36-2.02.36-2.36.37 2.95.36.51.36-1.14.36-1.04.37 2.87.36-1.02.36-.37.36.66.36-.17.37-2.15.36 1.93.36-.12.36.47.36-2.9.37-.26.36 4.01.36 1.46.36-1.22.36-1.63.37.23.36-.97.36-.01.36.78.36-1.04.37-.08.36-.44.36 1.91.36.25.37-.01.36.1.36-1.45.36 2.58.36-2.07.37 2.32.36-3 .36 1.34.36.35.36-.42.37-2.01.36 1.77.36.04.36.66.36-1.97.37-.14.36 2.2.36.9.36-3.66.37.03.36 3.56.36-.86.36-.85.36.98.37-1.91.36-.54.36 1.92.36.03.36-1.6.37-.87.36.4.36 3.44.36-.33.36-1 .37.52.36-3.34.36 4.16.36-.72.37-.54.36-.97.36-1.22.36-.68.36 4.23.37-.74.36-1.93.36-.33.36-.81.36-1.78.37 3.36.36.68.36-2.25.36 1.53.36 3.21.37-1.36.36-1.74.36.89.36-2.12.36 2.39.37.95.36-.73.36-1.82.36-.64.37.05.36-.61.36 1.54.36.04.36-1.6.37-.69.36 2.35.36-.3.36.97.36-3.25.37 2.54.36 1.65.36-1.54.36-.64.36-.53.37-.63.36-.64.36 2.19.36 1.26.37-3.32.36.77.36 1.81.36 1.05.36-1.22.37-2.98.36 3.82.36-.13.36-3.41.36.59.37 1.3.36 1.51.36-.14.36-1.22.36-2.48.37 2.57.36 1.45.36-.02.36-2.3.36 1.58.37-.58.36.68.36.37.36-3.3.37 2.7.36 2.09.36-.22.36-1.13.36-.19.37-1.14.36 2.07.36-.76.36.81.36-1.23.37-1.69.36.46.36 1.05.36-2.39.36 1.11.37 2.65.36-1.88.36-1.16.36.09.37.32.36.7.36.07.36-1.33.36.31.37-1.3.36 2.64.36-.32.36.84.36.1.37-1.8.36 1.33.36 1.02.36 1.06.36-4.28.37 3.05.36.77.36-1.85.36 1.07.36-3.03.37-.35.36 2 .36 1.65.36-1.49.37-1.62.36 1.65.36-.96.36-.22.36-.15.37 1.11.36.82.36-.5.36 1.18.36-3 .37 1.47.36 2.71.36-1.23.36-1.06.36-.26.37-1.51.36.66.36 2.4.36-.85.37-.25.36-1.29.36-.16.36-1.05.36 3.37.37-1.15.36 1.7.36-.56.36-1.84.36-.4.37 4.2.36-1.58.36-1.31.36-.24.36-2.22.37-.91.36 2.79.36-.36.36-.93.37.65.36 2.88.36-2.32.36.48.36-.38.37-.72.36.17.36.71.36 1.37.36-2.8.37 1.23.36 2.34.36-1.54.36-.21.36-.06.37.19.36-.57.36.85.36-.05.36.23.37-.94.36.03.36.62.36-.15.37-1.4.36.66.36 1.71.36 1.21.36-1.95.37.32.36-1.18.36 1.19.36 1.79.36-.91.37-3.71.36.8.36.95.36-.91.36-.87.37-2.65.36 5.64.36-.3.36-2.14.37.76.36 2.68.36-.43.36-1.42.36.4.37.65.36-2.62.36-.91.36 2.31.36-.23.37-.73.36-1.97.36 3.01.36 1.02.36-2.64.37.43.36 2.96.36-.49.36-1.7.36.31.37-.86.36-2.52.36 2.25.36 1.97.37.25.36-2.95.36.38.36 1.86.36-.97.37-2.73.36 1.94.36 2.16.36-.77.36-3.74.37 5.6.36-.6.36-.78.36-.58.36.46.37-2.15.36 1.48.36 1.57.36-1.43.37-2.42.36 2.23.36-.91.36.97.36-1.36.37 2.1.36-1.27.36.31.36-.85.36 1.74.37.31.36-.66.36-.99.36-.22.36 1.38.37-.81.36-.57.36-1.11.36 2.37.36 1.29.37-1.14.36-1.81.36 2.75.36-.15.37.59.36-.23.36-3.09.36 2.97.36-.59.37-.69.36 1.15.36-3 .36 1.02.36 1.66.37.01.36.42.36-2.72.36 2.18.36 1.42.37-1.54.36-1.33.36 2.76.36-.8.37-1.57.36-1.93.36 2 .36.22.36 1.29.37-1.31.36-.44.36-1.19.36-.06.36 3.48.37-1.24.36-.31.36.01.36-.59.36-2.26.37 3.39.36 1.27.36-1.56.36.94.37-1.08.36-2.5.36 2.32.36-.77.36-.65.37.06.36 3.49.36-.27.36-1.41.36.86.37-2.6.36 1.15.36.89.36.02.36-.69.37 2.48.36-.22.36-.31.36-1.84.36.33.37 1.86.36-1.46.36-.71.36-2.66.37 1.06.36 2.67.36.2.36-.18.36-1.63.37-.66.36 2.62.36-.05"/><use xlink:href="#0f020__g" color="violet" transform="matrix(3.75 0 0 3.75 182.98 154.3)"/><use xlink:href="#0f020__g" color="violet" transform="matrix(3.75 0 0 3.75 56.25 52.51)"/></g><text stroke-linecap="round" stroke-linejoin="round" color="#000" font-family="KaTeX_Main" font-size="8" transform="translate(241.1 10.11)"><tspan>LBSTBottomUp</tspan></text><g fill="none" stroke="currentColor" stroke-linecap="round" stroke-linejoin="round" color="#000"><path stroke="#3B75EA" d="M205.6 7.51h29.9M28 148.49l.36-2.33.36-2.95.37-3.08.36-1.65.36-2.14.36-2.37.36-2.94.37-2.43.36-2.63.36 29.76.36-1.01.37-.83.36-.87.36-1.15.36-1.51.36-2.23.37-3.21.36-2.57.36-2.39.36-2.73.36-2.57.37-12.72.36 33.9.36-1.76.36-1.77.36-.61.37-1.49.36-2.5.36-2.79.36-2.93.36-2.61.37-2.92.36.8.36 18.1.36-1.87.37-2.26.36-1.16.36-1.01.36-.51.36-1.69.37-3.38.36-3.34.36-3.19.36-1.23.36-.4.37-.65.36.17.36-.56.36-1.97.36-1.04.37-2.34.36 4.83.36 20.48.36-1.77.37-1.68.36-1.95.36-3.03.36-2.63.36-9.97.37 22.91.36-1.44.36-1.31.36-1.84.36-1.69.37-2.07.36-2.34.36-2.71.36-3.12.36-2.88.37-2.69.36-6.48.36 29.54.36-.45.37-.76.36-1.29.36-2.08.36-4.15.36-4.54.37-15.47.36 26.79.36-1.08.36-.87.36-.94.37-2.69.36-2.47.36-2.86.36-3.55.36-2.58.37-9.06.36 26.11.36-2.33.36-1.62.36-.83.37-.84.36-1.88.36-2.71.36-14.46.37 26.37.36-1.68.36-1.11.36-1.43.36-1.83.37-1.9.36-1.96.36-2.95.36-2.3.36-2.85.37-3.2.36-2.73.36-10.45.36 33.68.36-2.26.37-1.99.36-1.56.36-1.02.36-.87.37-2.23.36-2.86.36-2.77.36-2.7.36-1.94.37-14.97.36 34.95.36-.41.36-1.03.36-1.96.37-1.75.36-1.77.36-2.23.36-1.21.36-1.72.37-2.23.36-3.02.36-9.53.36 28.02.36-2.13.37-2.75.36-2.57.36-1.98.36-.54.37-6.48.36 14.45.36-1.07.36-.99.36-1.4.37-1.5.36-2.37.36-2.92.36-3.46.36-15 .37 29.51.36-1.82.36-1.99.36-1.81.36-.58.37-.92.36-2.22.36-2.33.36-3.79.37-3.07.36-2.73.36-.67.36-.75.36-.65.37-.74.36-.49.36.1.36-14.75.36 38.57.37-2.34.36-2.08.36-1.31.36-1.8.36-2.35.37-11.81.36 23.78.36-1.82.36-2.4.36-2.75.37-1.7.36-1.81.36-1.73.36-1.99.37-2.15.36-2.53.36-5.14.36 22.11.36-1.34.37-1.51.36-1.95.36-1.41.36-2.08.36-3.12.37-2.8.36-2.43.36-2.42.36-1.78.36-1.79.37-1.38.36-.7.36-13.79.36 38.93.37-2.22.36-2.44.36-1.33.36-1.8.36-2.31.37-1.8.36-3.42.36-4.42.36-3.02.36-2.79.37 7.4.36 17.9.36-1.59.36-1.69.36-1.36.37-1.72.36-1.95.36-3.73.36-3.4.37-2.54.36-2.07.36-14.2.36 35.36.36-1.82.37-1.88.36-1.67.36-1.97.36-1.91.36-3.16.37-3.02.36-13.3.36 29.58.36-2.05.36-1.34.37-1.18.36-1.81.36-1.63.36-3.61.36-4.2.37-10.75.36 25.35.36-1.57.36-1.74.37-1.6.36-2.37.36-1.86.36-5.47.36 13.87.37-1.52.36-1.21.36-.92.36-1.82.36-2.24.37-1.35.36-2.68.36-9.61.36 21.45.36-1.07.37-1.88.36-1.8.36-.96.36-1.4.37-1.8.36-2.35.36-1.53.36-2.23.36-3.47.37-3.36.36-3.12.36-.87.36 11.18.36 13.88.37-1.41.36-.92.36-1.24.36-1.81.36-2.72.37-2.97.36-3.27.36-2.89.36-1.56.36-2.08.37-2.32.36-6.04.36 30.28.36-1.89.37-1.83.36-1.76.36-1.85.36-2.96.36 7.47.37-.51.36.06.36-1.16.36-2.01.36-3.24.37-4.21.36-3.99.36-3.5.36-2.14.36-1.31.37 3.52.36 20.62.36-1.5.36-.8.37-.84.36-1.46.36-2.68.36-3.27.36-3.75.37-3.17.36-1.5.36-1.71.36-2.41.36-2.08.37-1.97.36 13.31.36 13.29.36-1.51.36-.96.37-1.27.36-1.34.36-2.17.36-2.67.36-3.13.37-8.78.36 22.45.36-2.23.36-1.99.37-2.53.36-2.21.36-2.51.36-2.91.36-3.11.37-10.25.36 28.94.36-1.69.36-1.99.36-2.16.37-2.3.36-2.12.36-1.39.36-1.96.36-2.66.37-15.61.36 31.66.36-1.07.36-.99.37-.69.36-1.41.36-2.32.36-3.05.36-3.27.37-2.52.36-2.84.36-.78.36-1.05.36-2.18.37-1.25.36-2.47.36-2.95.36-2.22.36 6.59.37 23.38.36-1.08.36-1.5.36-1.48.37-1.75.36-2.3.36-2.26.36-1.94.36-3.55.37-3.11.36-2.74.36 9.77.36 12.35.36-1.9.37-1.84.36-1.65.36-1.85.36-1.01.36-1.18.37-2.17.36-2.36.36-2.69.36-2.25.36-2.48.37-15.65.36 36.1.36-2.78.36-2.96.37-1.55.36-.55.36-.44.36-2.73.36-3.99.37-4.99.36-4.1.36 8.98.36 14.67.36-1.8.37-1.37.36-1.58.36-1.98.36-2.81.36-2.75.37-2.81.36-2.9.36-7.1.36 26.07.37-1.36.36-1.14.36-1.92.36-7.64.36 11.98.37-1.66.36-.74.36-.74.36-1.61.36-2.55.37-2.34.36-2.98.36-2.15.36-1.85.36-1.94.37-7.32.36 27.08.36-1.53.36-1.63.36-1.45.37-1.27.36-1.36.36-2.76.36-3.75.37-9.52.36 22.31.36-1.49.36-1.5.36-1.27.37-.29.36-1.59.36-2.37.36-3.39.36-3.31.37-2.55.36-1.1.36-.73.36-1.22.36-1.57.37-5.53.36 28.6.36-1.9.36-2.11.37-3.86.36-2.92.36-4.22.36 14.58.36-2.41.37-1.38.36-1.04.36-1.38.36-1.14.36-2.09.37-3.26.36-3.49.36-2.3.36-1.51.36-1.53.37-1.78.36-1.74.36-2.28.36-1.87.37 12.93.36 15.49.36-1.73.36-1.07.36-1.03.37-.94.36-1.32.36-3.17.36-3.69.36-11.64.37 24.55.36-2.82.36-1.3.36-1.34.36-1.4.37-1.95.36-3.16.36-3.85.36-3.61.36 2.4.37 16.68.36-1.1.36-.99.36-1.14.37-.87.36-1.47.36-2.9.36-2.92.36-3.3.37-3.78.36-1.94.36-.38.36-.43.36-1.86.37-8.16.36 32.73.36-1.23.36-1.31.36-1.41.37-1.73.36-2.28.36-2.4.36-3.01.37-2.34.36-2.58.36-3.36.36-12.23.36 33.68.37-2.1.36-1.44.36-.81.36-1.33.36-3.05.37-3.32.36-2.49.36-2.15.36-1.22.36-1.82.37-3.83.36-3.9.36 10.81.36 16.18.36-1.99.37-1.95.36-1.51.36-1.43.36-1.64.37-1.95.36-2.27.36-2.67.36-2.87.36 3.74.37 14.38.36-1.47.36-2.82.36-2.53.36-1.96.37-2.83.36-2.33.36-2.43.36-2.53.36-5.22.37 24.33.36-1.53.36-.66.36-.97.37-1.53.36-2.22.36-3.14.36-3.83.36-3.13.37-2.4.36-2.19.36-2.67.36-1.49.36 26.78.37-1.69.36-2.14.36-1.93.36-1.62.36-1.35.37-1.56.36-2.74.36-3.07.36-3.56.36-2.99.37 3.12.36 18.18.36-2.08.36-3.52.37-2.9.36-1.39.36-2.29.36-1.66.36-1.74.37-3.82.36-3.42.36-2.91.36 7.11.36 20.71.37-.75.36-1.86.36-2.76.36-2.22.36-1.74.37-1.94.36-1.7.36-1.95.36-2.64.37-2.63.36-2.3.36-1.63.36-2.55.36-15.56.37 40.21.36-1.77.36-1.74.36-1.27.36-1.3.37-1.72.36-1.07.36-2.42.36-3.26.36-3.97.37-9.01.36 29.16.36-.56.36-1.41.37-2.45.36-2.57.36-1.37.36-1.21.36-1.81.37-3.39.36-3.32.36-2.97.36-1.92.36-1.24.37-1.24.36 26.29.36-1.39.36-2.47.36-2.49.37-1.49.36-.8.36-.3.36-1.72.36-4.97.37 13.33.36-1.98.36-1.45.36-2.9.37-2.88.36-2.43.36-4.01.36-2.84.36-1.87.37 7.21.36 12.58.36-2.08.36-1.18.36-.62.37-1.37.36-2.62.36-3.57.36-3.5.36-2.37.37-.37.36-6.29.36 25.27.36-1.38.37-1.55.36-1.09.36-1.6.36-2.33.36-2.39.37-2.87.36-2.82.36-2.52.36 17.81.36-1.04.37-1.35.36-1.64.36-2.99.36-3.74.36-11.41.37 23.09.36-1.39.36-1.06.36-1.95.36-1.9.37-1.25.36-2.65.36-2.99.36-3.03.37-4.09.36-6.46.36 26.79.36-1.86.36-2.06.37-2.21.36-2.82.36-1.52.36-1.85.36-1.53.37-2.35.36-2.15.36-3.5.36-3.85.36-4.67.37 29.19.36-1.3.36-.79.36-3 .37-3.01.36-1.98.36-3.13.36-9.52.36 22.35.37-.53.36.05.36-.76.36-1.97.36-2.27.37-2.57.36-3.35.36-2.22.36-2.58.36-2.5.37-1.65.36-3.85.36 23.96.36-1.3.36-.28.37-.75.36-1.46.36-1.94.36-3.2.37-2.88.36-2.09.36-1.37.36-1.34.36-7.1.37 24.43.36-1.52.36-1.74.36-2.31.36-2.66.37-2.14.36-2 .36-2.08.36-3.64.36-9.2.37 28.06.36-1.43.36-1.21.36-1.79.37-1.82.36-2.12.36-2.49.36-2.65.36-2.27.37-3.02.36-3.05.36-3.24.36 3.81.36 20.15.37-1.81.36-.91.36-.67.36-.77.36-2.27.37-3.15.36-3.26.36-2.68.36-1.52.37-1.5.36-.54.36.42.36 18.48.36-2.68.37-1.74.36-1.38.36-2.18.36-1.98.36-3.06.37-3.14.36-2.45.36-2.67.36-3.69.36 4.44.37 21.24.36-1.68.36-1.56.36-1.5.36-1.8.37-2.09.36-3.2.36-2.92.36-2.32.37-2.5.36-2.58.36 2.19.36 19.3.36-.77.37-1.2.36-2.87.36-2.34.36-2.27.36-2.73.37-2.57.36-3.89.36-2.28.36 21.14.36-2.03.37-1.36.36-1.62.36-2.3.36-3.68.37-4.31.36 2.1.36 14.27.36-2.06.36-1.7.37-1.28.36-2.18.36-2.93.36-2.24.36 1.19.37 10.62.36-1.65.36-1.88.36-2.19.36-1.66.37-2.21.36-2.6.36-14.43.36 28.38.36-1.24.37-1.61.36-1.9.36-1.43.36-1.77.37-1.58.36-1.83.36-1.85.36-2.63.36-3.7.37-7.83.36 25.91.36-1.55.36-1.45.36-1.53.37-1.64.36-2.5.36-14.98.36 24.46.36-1.74.37-1.83.36-1.46.36-.63.36-1.25.37-2.46.36-2.83.36-3.69.36 3.75.36 10.99.37-1.22.36-1.74.36-1.4.36-2.4.36-2.58.37-2.92.36-1.67.36-2.03.36-2.21.36-2.71.37-3.25.36-2.73.36-12.13.36 40.16.36-1.44.37-1.61.36-1.55.36-1.32.36-1.75.37-2.37.36-2.52.36-3.11.36-2.69.36-2.45.37-1.95.36-9.35.36 30.58.36-2.3.36-1.53.37-1.13.36-.64.36-1.77.36-2.77.36-2.69.37-3.05.36-2.28.36-2.68.36-10.22.37 32.61.36-2.12.36-2.73.36-2.6.36-1.41.37-2.04.36-3.03.36-2.62.36-4.06.36-4.15.37 10.6.36 13.58.36-1.62.36-2.01.36-2.07.37-1.82.36-1.88.36-2.31.36-1.95.37 10.6.36-2.14.36-1.35.36-1.17.36-1.46.37-1.79.36-2.57.36-2.92.36-3.46.36-2.66.37-8.04.36 30.44.36-.87.36-.69.36-.71.37-.89.36-1.57.36-3.02.36-4.69.36-4.56.37 1.46.36 16.06.36-2.68.36-1.93.37-1.18.36-.73.36-2.35.36-2.42.36-3.91.37-3.51.36-2.29.36 7.46"/><use xlink:href="#0f020__a" color="#3B75EA" transform="matrix(3.75 0 0 3.75 240.55 142.87)"/><use xlink:href="#0f020__a" color="#3B75EA" transform="matrix(3.75 0 0 3.75 220.55 7.51)"/></g><text stroke-linecap="round" stroke-linejoin="round" color="#000" font-family="KaTeX_Main" font-size="8" transform="translate(241.1 25.11)"><tspan>LBSTRelaxed</tspan></text><g fill="none" stroke="currentColor" stroke-linecap="round" stroke-linejoin="round" color="#000"><path stroke="#FFAB00" stroke-dasharray="4.0,2.0,1.0,2.0" d="M205.6 22.51h29.9M28 108.07l.36 6.32.36 5.46.37 3.32.36-2.01.36-4.08.36-11.51.36 5.89.37 2.36.36 6.17.36 2.65.36-2.61.37-2.98.36 2.86.36 5.21.36-3.61.36-1.48.37-7.47.36-1.94.36 2.8.36 1.76.36-2.05.37-2.9.36-4.44.36 10.7.36 1.36.36 11.54.37 4.36.36-2.86.36-10.76.36.89.36-.87.37 3.86.36 4.42.36-5.23.36-5.4.37-1.3.36.95.36.77.36-7.88.36 4 .37 5.07.36 1.78.36 5.08.36-1.02.36-.97.37-.55.36-2.04.36 8.12.36-1.55.36-2.35.37 3.04.36-2.46.36 2.75.36-.02.37.06.36-2.01.36-6.04.36-3.8.36-8.25.37-4.57.36 10.37.36 1.62.36 3.31.36-7.41.37-5.95.36 2.83.36 2.69.36-1.26.36 6 .37-1.24.36.67.36-1.08.36-.92.37 2.03.36 2.06.36-1.31.36 4.47.36 9.44.37-7.32.36-.95.36 4.68.36-2.8.36 4.32.37-1.38.36-3.9.36-.22.36-2.02.36-1.09.37-.13.36 2.01.36-4.01.36-5.76.36-.94.37 5.36.36 1.43.36 2.74.36 2.39.37-5.1.36 9.99.36.01.36-14.56.36-3.54.37 5.51.36 2.25.36-3.02.36 3.46.36 14.54.37-1.76.36-1.66.36-5.68.36-7.11.36 5.38.37 6.7.36 4.11.36 1.74.36-.29.37-8.28.36.24.36-1.46.36-1.96.36 3.47.37-.77.36-.44.36-1.71.36-2.64.36-3.36.37-6.13.36-1.45.36 1.04.36 5.96.36 6.08.37 4.32.36.75.36-.9.36-5.29.36-1.61.37 2.36.36-1.97.36-4.47.36-5.62.37-4.33.36 10.26.36.99.36-2.44.36-1.18.37.29.36-.89.36-2.13.36-2.47.36 13.54.37-.35.36-2.21.36-2.5.36.16.36 2.38.37-1.02.36 3.91.36 2.61.36-2.32.37-1.2.36 2.37.36-3.03.36-4.04.36 2.43.37-2.9.36 3.65.36-5.81.36 2.77.36-4.53.37-2.02.36 4.1.36.44.36 3.3.36 3.88.37 6.97.36 2.98.36-.17.36.98.36.78.37.79.36-9.48.36.15.36 1.04.37 2.78.36 1.55.36.94.36-3.55.36 5.58.37-3.14.36-.42.36 1.85.36 2.14.36.39.37-1.08.36-5.55.36-4.45.36-5.77.36-5.21.37 8.68.36.23.36-.73.36-2.33.37-18.62.36 7.87.36 5.09.36.02.36-3.72.37 13.06.36 4.36.36 1.38.36-2.17.36-9.42.37-5.93.36-1.85.36.42.36 2.02.36 3.21.37 1.47.36-1.85.36-5.25.36 4.6.37 4.7.36-4.81.36-2.68.36.34.36 6.45.37 4.13.36 5.85.36-3.44.36-1.71.36-10.12.37 1.63.36 2.83.36-2.63.36-4.6.36 6.29.37 11.42.36-.78.36-.38.36-.73.36-1.66.37-2.75.36 5.73.36 3.08.36-1.4.37.09.36-5.54.36-2.67.36-2.68.36 7.58.37 5.8.36-11.13.36 2.64.36-1.8.36 1.93.37 1.16.36-7.46.36-2.81.36 7.37.36.89.37-3.42.36 8.72.36.63.36-3.67.37-1.59.36.62.36 1.56h.36l.36.76.37 3.61.36.21.36.08.36 1.03.36-3.5.37-4.09.36-6.33.36 7.85.36 6.11.36-3.96.37-4.9.36-2.32.36 3.21.36 4.09.36.86.37.53.36-2.17.36-3.82.36-5.59.37 7.06.36 3.95.36-2.51.36-3.41.36-5.91.37-.69.36-1.54.36 8.42.36-2.55.36-7.94.37-2.79.36-4.8.36 3.7.36 1.03.36 1.35.37-1.94.36-.72.36-5.29.36.45.37 10.01.36 8.93.36 1.82.36 2.37.36-16.34.37-.97.36 8.04.36-.65.36-2.79.36-2.3.37-.32.36 5.22.36 3.62.36 3.91.36-2.58.37-4.41.36-1.39.36 7.48.36 3.35.36-1.42.37-4.15.36-1.68.36-2.08.36 2.18.37-1.23.36-.54.36 3.16.36 2.21.36-1.5.37.65.36-.67.36-.23.36 3.66.36 3.27.37 1.56.36.26.36.39.36 5.39.36-3.19.37-3.45.36.88.36-4.14.36-.99.37 3.42.36 2.72.36.88.36-6.16.36-3.15.37.17.36-2.16.36 3.22.36 4.36.36-8 .37-5.34.36 4.08.36 6.75.36 1.86.36 5 .37-3.76.36-5.96.36 3.1.36 1.24.37 3.59.36-10.67.36-2.89.36 2.81.36 6.21.37 5.72.36-7.17.36-6.09.36-4.31.36 2.73.37-4.22.36-.27.36 6.33.36 1.43.36-2.5.37 4.23.36 1.26.36 1.78.36 1.28.36.16.37-1.56.36-1.98.36-.17.36-4.42.37 10.18.36 4.72.36-1 .36-2.38.36-1.7.37-.92.36-3.2.36-3.75.36.8.36 5.87.37 5.92.36.03.36-2.76.36 1.83.36-1.61.37-4.39.36 3.32.36.12.36-4.64.37 4.82.36-2.45.36 1.56.36.88.36-9.32.37-4.88.36 3.63.36 10.19.36 1.52.36.33.37-4.7.36-3.53.36-3.58.36 8.94.36 1.26.37-1.93.36 2.31.36-4.22.36-4.89.36-7.01.37.42.36-.43.36-.67.36 1.56.37 2.63.36-1.84.36 8.27.36 6.1.36-6.47.37 2.45.36-1.87.36-9.69.36-8 .36 2.06.37 11.84.36-2.7.36-1.17.36 3.81.36.37.37.47.36 5.56.36-4.36.36-9.33.37 2.2.36 10.22.36-3.04.36-1.82.36 3.93.37-2.68.36 1.03.36 4.73.36-1.19.36.59.37 2.37.36-1.34.36-1.61.36.5.36 6.76.37-.67.36 1.39.36-.01.36 1.04.37-.13.36 1 .36-3.28.36-4.51.36-5.34.37 7.26.36-3.89.36-3.08.36-2.06.36-3.52.37 4.32.36 2.18.36-.68.36-3.72.36 3.11.37 2.16.36-.16.36 4.99.36 4.36.36 4.08.37-1.73.36-6.56.36-2.22.36 3.86.37 3.55.36-.51.36-19.46.36.86.36 3.97.37 10.5.36 8.01.36-3.41.36-9.72.36-.56.37-9.24.36 6.72.36-1.12.36 7.28.36 9.06.37-3.9.36-3.97.36-3.19.36-1.47.37-3.1.36-5.18.36 2.79.36 3.47.36-2.15.37-4.58.36 5.59.36-2.49.36 10.88.36-.18.37-6.41.36-6.05.36-6.58.36-2.29.36 8.16.37.83.36-.03.36 2.57.36-2.08.36-.91.37 3.93.36 8.13.36-5.19.36-4.07.37 2.45.36.51.36 1.46.36-5.98.36-3.27.37 5.01.36 3.89.36 3.64.36 1.14.36 2.06.37-1.15.36-6.7.36.67.36 1.03.36 2.53.37-2.7.36-8.3.36 5.65.36-.48.37-5.1.36 4.39.36 6.93.36-6.95.36-4.49.37-1.8.36-2.5.36 3.15.36 3.28.36 5.49.37-.32.36-2.43.36 7.86.36 2.29.36-6.8.37-1.56.36 5.56.36-2.76.36-3.2.36-11.42.37-4.03.36 14.94.36 4.88.36-3.88.37 3.32.36-5.97.36-3.1.36 5.05.36 2.94.37-4.39.36 1.61.36 7.11.36-1.13.36-8.49.37-7.14.36-6.46.36 6.47.36 6.01.36 3.98.37 2.01.36 4.33.36 1.29.36-3.31.37-11.92.36-6.48.36-2.18.36 2.7.36 10.53.37 9.73.36 1.15.36-1.23.36-2.31.36-6.25.37-3.56.36-.49.36-2.19.36-5.5.36 3.09.37 2.84.36-1.9.36 1.07.36-1.56.37-6.35.36 11.07.36 3.3.36-.08.36 5.09.37-10.81.36-4.52.36 6.9.36-1.97.36 4.39.37 5.1.36-.24.36-1.05.36-7.44.36 2.06.37-6 .36 3.16.36 7.7.36 5.69.36 4.17.37-6.74.36-12.04.36.61.36 1.29.37.73.36 4.05.36 9.85.36-2.58.36-.16.37.11.36-1.61.36 1.97.36-2.41.36 1.2.37 8.44.36 1.24.36-.04.36-1.27.36-12.45.37-5.58.36 1.83.36-8.58.36-4.11.37-2.63.36-.5.36 6.69.36 3.87.36 5.53.37-.53.36-1.67.36-3.75.36 1.29.36 2.8.37 3.59.36 2.7.36-.24.36-.78.36 1 .37-1.36.36-3.04.36-.36.36-2.52.36-.12.37 1.44.36.37.36-2.61.36-8.58.37-.07.36-.1.36.21.36-.4.36 12.42.37 6 .36-.55.36-7.19.36-1.1.36-1.66.37 10.55.36.56.36 3.95.36-1.49.36-4.64.37-2.76.36-3.66.36 1.81.36 3.34.37-4.1.36-6.12.36 2.67.36.55.36 9.19.37 6.2.36 2.4.36-.78.36-6.74.36.31.37 1.67.36 6.94.36 3.51.36-14 .36-6.2.37 1.62.36 5.97.36-4.49.36.61.36 1.22.37.34.36-4.58.36-1.34.36 4.3.37 4.55.36-6.57.36 2.7.36-2.85.36 8.25.37 1.43.36-2.06.36.02.36 2.33.36-1.55.37 4.6.36-6.18.36-1.84.36 1.02.36.17.37 3.14.36-4.37.36 5.28.36 4.12.37-3.54.36-.74.36 2.16.36-6.1.36 3.26.37 4.65.36 1.84.36-1.67.36-5.53.36.36.37 2.22.36-7.32.36-8.28.36 3.1.36 5.05.37 5.59.36-5.98.36-4.43.36-.5.37 1.22.36-3.07.36 1.58.36-2.15.36.36.37-.61.36 6.33.36 9.66.36-1.11.36-7.1.37.83.36.05.36 4.73.36-1.03.36-12.13.37-3.61.36-1.41.36-.14.36 9.65.36 4.39.37-1.77.36-4.05.36-.19.36 1.1.37-5.08.36-5.08.36-6.46.36 8.03.36 10.57.37 2.73.36-2.39.36-6.66.36-7.2.36-1.72.37 11.04.36 13.53.36-6.17.36-5.09.36-4.73.37-1.99.36 11.2.36 2.71.36 1.24.37.7.36-14.56.36-1.71.36 1.79.36 2.45.37 4 .36 1.06.36-6.72.36-.72.36-12.11.37 2.14.36 9.95.36 8.04.36-9.88.36-11.05.37-2.68.36.44.36 2.43.36 22.25.36 4.91.37.4.36-1.67.36-4.42.36-.86.37-.55.36 2.42.36 4.08.36 1.71.36-.71.37-2.75.36-.53.36 3.76.36-6.99.36.31.37-.43.36-3.28.36-2.8.36 5.15.36 2.61.37.39.36-14.83.36-5.87.36 9.49.37.39.36 4.04.36 4.78.36 3.21.36.02.37-.95.36-4.21.36 3.75.36-2.9.36-1.95.37-.41.36-5.3.36 6.18.36-2.42.36 11.66.37 5.24.36 1.27.36-7.89.36-9.87.36 1.64.37 1.17.36 1.71.36 5.95.36-2.56.37-4.57.36 2.35.36-.67.36-5.97.36-2.3.37.78.36.19.36 6.45.36 5.54.36 1.02.37-8.41.36-5.07.36-.57.36 1.01.36 7.73.37 6.22.36-3.34.36 1.95.36 1.91.37 3.08.36-6.08.36-2.45.36 3.45.36-6.95.37-.33.36 5.52.36-1.08.36-3.48.36 10.95.37 3.84.36-5.54.36-3.66.36-8.43.36-3.16.37 2.55.36 15.33.36 1.69.36.33.37-.14.36-5.34.36-6.28.36 2.43.36 3.58.37-7.97.36-1.25.36 6.09.36.08.36-2.55.37-3.2.36.77.36.19.36.47.36-.94.37-1.29.36-4.49.36 9.69.36-7.27.36-4.41.37.49.36-3.47.36-6.52.36 13.79.37 9.44.36-4.25.36-7.38.36 2.86.36 1.58.37-2.62.36 8.32.36-.83"/><use xlink:href="#0f020__h" color="#FFAB00" transform="matrix(3.75 0 0 3.75 298.12 123.29)"/><use xlink:href="#0f020__h" color="#FFAB00" transform="matrix(3.75 0 0 3.75 220.55 22.51)"/></g><text stroke-linecap="round" stroke-linejoin="round" color="#000" font-family="KaTeX_Main" font-size="8" transform="translate(241.1 40.11)"><tspan>TreapTopDown</tspan></text><g fill="none" stroke="currentColor" stroke-linecap="round" stroke-linejoin="round" color="#000"><path stroke="#00C853" stroke-dasharray="4.5,2.0,0.5,2.0,0.5,2.0" d="M205.6 37.51h29.9M28 96.54l.36-.61.36.55.37.7.36-1.04.36.37.36-.39.36.45.37.09.36-.68.36.5.36.46.37-.89.36-.41.36 1.44.36-.58.36-.52.37.5.36.21.36-.6.36.33.36-.34.37.13.36.8.36-.15.36-.92.36.24.37.89.36-.76.36.07.36.16.36.18.37.16h.36l.36-1.1.36.22.37.79.36-.97.36 1.07.36-.39.36.28.37-.39.36-.31.36 1.05.36-.61.36-.63.37.87.36-.47.36.14.36.05.36.22.37-.84.36.4.36.35.36-.31.37.36.36-.18.36-.5.36.71.36-.13.37.32.36-.63.36-.48.36.89.36.07.37-.74.36-.16.36.71.36-.3.36.04.37.4.36-.21.36-.98.36.64.37.73h.36l.36.12.36.02.36-.7.37.5.36.1.36-.4.36.08.36-.02.37-.57.36-.1.36.25.36.48.36-.59.37.49.36-.56.36-.09.36.29.36.56.37-.52.36.11.36.23.36-.7.37.74.36.25.36-.74.36.29.36-.17.37.22.36-.31.36.13.36-.18.36.11.37.31.36-.01.36.45.36-1.11.36.54.37.11.36.31.36-.72.36.13.37.33.36-.42.36.53.36.14.36-.21.37-.84.36.84.36-.09.36.53.36-.42.37-.1.36-.08.36.07.36.33.36-.46.37.18.36.22.36-.51.36.18.36.32.37-.77.36.81.36.25.36-1.04.37 1.19.36-.67.36.02.36-.23.36.22.37.26.36-.24.36-.23.36-.26.36.36.37.74.36-.96.36.51.36-.46.36-.03.37.47.36-.08.36-.37.36-.09.37.09.36.68.36-.88.36-.01.36.59.37-.24.36.01.36-.19.36.48.36-.36.37.39.36-.38.36.05.36.42.36-.76.37.08.36-.43.36.95.36-.33.36.36.37-.57.36.85.36-.86.36-.03.37-.06.36.78.36-.47.36-.05.36-.25.37.4.36.17.36.09.36.46.36-.89.37-.19.36.62.36-.67.36.7.36-.15.37.18.36.01.36-.21.36-.24.37.18.36-.54.36 1.32.36-.87.36.72.37-.84.36-.08.36.23.36-.63.36.54.37.48.36-.05.36-.78.36.78.36-.68.37 1.41.36-.82.36-.01.36.03.37-.32.36-.12.36-.16.36.92.36-.8.37.62.36-.45.36-.11.36.75.36-1.49.37.9.36-.02.36-.06.36-.32.36.36.37-.19.36.48.36-.14.36.16.36.09.37-.74.36.64.36-.12.36-.22.37.37.36-.02.36-.89.36.61.36.38.37-.73.36.35.36.21.36-.68.36.26.37.16.36.03.36-.28.36.77.36-.78.37.44.36-.68.36-.3.36 1.23.37.01.36.24.36-.13.36-.68.36.39.37-.17.36-.55.36.56.36.03.36.1.37-.31.36-.02.36.42.36-.47.36.06.37.25.36-.5.36.02.36.63.36-.07.37.86.36-.95.36-.25.36-.18.37.48.36.34.36-1.01.36.41.36.44.37-.57.36.11.36.34.36-.63.36.45.37.14.36-.4.36.06.36.4.36-.18.37-.24.36 1.14.36-1.35.36.45.37-.18.36.4.36.1.36-.25.36.37.37-.56.36-.01.36.01.36-.16.36.16.37.49.36-.21.36-.24.36-.13.36-.2.37.45.36-.01.36.22.36-.47.36.13.37-.16.36.39.36.08.36.25.37-.16.36-.44.36.49.36-.64.36.25.37-.26.36.38.36.16.36-.18.36-.05.37-.3.36.6.36-.33.36.24.36-.89.37.04.36.52.36-.17.36.21.37.03.36.16.36-.69.36.58.36-.38.37.54.36-.02.36-.31.36-.41.36.82.37-.22.36.08.36.31.36-.06.36-.64.37.59.36-.45.36.66.36-.84.37.26.36.59.36-.17.36.01.36-.6.37.37.36-.04.36.75.36-.67.36-.57.37.06.36.69.36-.5.36.09.36.75.37-.64.36-.15.36.51.36-.23.36-.44.37.44.36-.64.36.79.36-.09.37-.18.36.24.36.18.36-.39.36-.4.37.89.36-.86.36.71.36-.55.36-.21.37.42.36-.04.36-.42.36.87.36-1.29.37 1.15.36.08.36-.4.36-.41.37-.25.36.71.36-.28.36.18.36-.86.37.28.36.3.36-.3.36.73h.36l.37-.4.36.74.36-.04.36-.65.36-.04.37-.53.36.74.36.01.36-.47.36.93.37-.84.36-.12.36.49.36.07.37-.97.36 1.23.36.09.36-.93.36.24.37.71.36.13.36-.72.36.42.36-.41.37.31.36-.38.36.73.36-.11.36-.17.37.02.36-.55.36-.21.36.01.37.33.36.26.36.1.36-.21.36.39.37.12.36-.33.36-.38.36-.45.36.2.37.71.36-.07.36-.05.36-.24.36.2.37-.66.36.58.36-.22.36.38.37-.28.36-.69.36.58.36-.03.36.45.37-.44.36.85.36-.83.36.24.36.15.37.32.36.16.36-.76.36.79.36-.99.37.59.36.58.36-.6.36-.48.36-.38.37.35.36.43.36-.5.36.15.37.1.36-.46.36.45.36.34.36-.8.37 1.17.36-.56.36-.76.36.76.36-.02.37-.65.36.4.36-.03.36-.37.36.29.37 1.08.36-.74.36.28.36-.3.37.64.36-.27.36-.9.36 1.07.36-.23.37-.36.36.12.36-.29.36.09.36-.47.37.38.36 1.18.36-.92.36-.26.36.53.37.1.36-.79.36.07.36.25.36.19.37-.4.36.09.36-.07.36-.18.37 1.13.36-.24.36.36.36-.54.36-.28.37.16.36-.54.36-.13.36 1.05.36-.33.37-.43.36-.09.36.25.36.18.36-.27.37-.27.36.43.36-.44.36.34.37.99.36-.54.36-.1.36-.13.36-.14.37.06.36.13.36-.24.36-.68.36.94.37-.83.36.62.36.57.36-.79.36-.03.37.04.36.4.36-.8.36-.17.36.95.37-.01.36.28.36-.09.36.1.37-.31.36.05.36.12.36-.64.36.64.37.01.36-.48.36-.1.36.18.36.31.37-.41.36.11.36.58.36-.45.36.2.37-.16.36.07.36-.27.36.34.37.51.36-1.18.36.52.36-.24.36-.1.37.55.36-.82.36.88.36-.67.36.32.37-.2.36.84.36-.42.36-.03.36.04.37.16.36-.79.36.16.36.22.37.08.36-.16.36.19.36.01.36-1.14.37 1.05.36-.34.36.74.36-.45.36.21.37-.58.36-.37.36 1.04.36-.65.36.58.37.12.36-.29.36.43.36-.5.36.51.37-.86.36.42.36-.52.36.98.37-.71.36.44.36-.41.36.25.36.07.37-.18.36-.11.36.4.36.01.36.24.37-.67.36.62.36.03.36-.56.36.24.37-.15.36.6.36-.67.36.08.37.44.36-.09.36.21.36.05.36-.25.37-.15.36-.35.36.18.36-.15.36.29.37-.33.36-.22.36.28.36.08.36-.7.37 1.21.36-.49.36-.76.36 1.02.36.13.37.09.36-.84.36.19.36.39.37.18.36-.93.36.91.36-.73.36-.42.37 1.36.36-.49.36-.23.36.28.36.07.37.06.36.08.36.06.36-.16.36-.29.37.27.36-.49.36.48.36-.76.37.61.36-.22.36.72.36-.66.36.37.37-.14.36-.73.36.39.36.64.36-.54.37.41.36-.39.36-.06.36.29.36.25.37-.42.36.23.36-.45.36.53.36-.14.37-.5.36-.05.36-.16.36.91.37-.7.36.03.36.59.36-.22.36-.16.37.14.36.05.36.45.36-.71.36-.31.37.54.36.49.36.46.36-1.45.36.45.37-.55.36.52.36-.08.36.13.37-.34.36.31.36-.6.36.16.36-.01.37.49.36.34.36-.98.36.69.36-.16.37.06.36-.52.36.59.36-.47.36-.58.37.83.36.37.36-.21.36-.03.37-.5.36.88.36-.51.36.14.36.07.37.23.36-.27.36-.05.36.03.36.8.37-.61.36.01.36-.17.36-.47.36.22.37.24.36-1.02.36.88.36-.41.36.55.37-.04.36-.32.36.7.36.03.37-.6.36.36.36.01.36-.16.36.24.37-.12.36.25.36-.49.36.34.36-1.1.37 1.5.36-1.18.36.62.36.32.36-.72.37.58.36.41.36-.68.36.51.37-.79.36.33.36-.42.36.55.36.08.37-.19.36.24.36.58.36-.39.36-.34.37-.45.36.44.36-.04.36-.45.36.67.37.25.36-.35.36-.72.36.63.36-.97.37.98.36-.09.36-.16.36-.25.37.37.36.36.36-.99.36.66.36.58.37-.61.36-.11.36.17.36-.14.36.01.37-.06.36.55.36-.26.36-.45.36.55.37-.26.36.29.36.09.36-.8.37.55.36-.42.36.23.36-.03.36-.89.37 1.77.36-.24.36-.01.36-.61.36-.07.37-.06.36.77.36-.69.36.66.36-.35.37-.3.36.18.36-.23.36.36.36-.21.37.12.36-.46.36.72.36-1.01.37.56.36.2.36-.17.36.36.36-.18.37.43.36-.15.36.44.36-1.1.36.64.37-.56.36.33.36.3.36-.36.36-.03.37.1.36.47.36-1.1.36.72.37.13.36-.19.36-.62.36.2.36.08.37-.38.36.68.36-.05.36-.33.36.64.37-.1.36-.53.36.83.36-.98.36.8.37-.83.36.68.36-.62.36.07.37-.06.36.38.36-.08.36.71.36-.67.37.43.36-.02.36-.01.36-.24.36-.19.37.42.36-.59.36.32.36.25.36-.34.37.17.36.56.36-.57.36-.66.36.39.37-.02.36-.19.36.2.36-.22.37-.07.36.09.36.72.36-.7.36.3.37.33.36-.51.36.24"/><use xlink:href="#0f020__i" color="#00C853" transform="matrix(3.75 0 0 3.75 355.7 95.9)"/><use xlink:href="#0f020__i" color="#00C853" transform="matrix(3.75 0 0 3.75 220.55 37.51)"/></g><path fill="none" d="M28 75.01v87.49m343.99-87.49H28" color="#000"/></svg>