<svg xmlns="http://www.w3.org/2000/svg" xmlns:xlink="http://www.w3.org/1999/xlink" viewBox="0 0 400 200"><path fill="none" d="M0 0h400v200H0z"/><defs><path id="f7abb__b" stroke="currentColor" stroke-width=".267" d="M-1-1h2v2h-2z"/><path id="f7abb__a" stroke="currentColor" stroke-width=".267" d="m0-1.33-1.33 2h2.66z"/><path id="f7abb__f" stroke="currentColor" stroke-width=".267" d="M0 1.33 1.265.411.782-1.067l-1.564-.009-.483 1.487z"/><use xlink:href="#f7abb__a" id="f7abb__d" fill="currentColor" stroke="none"/><use xlink:href="#f7abb__b" id="f7abb__c" stroke="currentColor" transform="rotate(45)"/><use xlink:href="#f7abb__c" id="f7abb__e" fill="currentColor" stroke="none"/></defs><path fill="none" stroke="#CCC" stroke-linecap="round" stroke-linejoin="round" stroke-width=".1" d="M46.1 162.5V45.01" class="f7abb__gridline" color="#000"/><g fill="none" stroke-linecap="round" stroke-linejoin="round" stroke-width="0" color="#000"><path d="M46.1 162.5V155m0-109.99v7.5"/><text fill="#000" font-family="KaTeX_Main" font-size="8" text-anchor="middle" transform="translate(46.1 172.6)"><tspan> 1</tspan></text></g><path fill="none" stroke="#CCC" stroke-linecap="round" stroke-linejoin="round" stroke-width=".1" d="M82.31 162.5V45.01" class="f7abb__gridline" color="#000"/><g fill="none" stroke-linecap="round" stroke-linejoin="round" stroke-width="0" color="#000"><path d="M82.31 162.5V155m0-109.99v7.5"/><text fill="#000" font-family="KaTeX_Main" font-size="8" text-anchor="middle" transform="translate(82.31 172.6)"><tspan> 2</tspan></text></g><path fill="none" stroke="#CCC" stroke-linecap="round" stroke-linejoin="round" stroke-width=".1" d="M118.52 162.5V45.01" class="f7abb__gridline" color="#000"/><g fill="none" stroke-linecap="round" stroke-linejoin="round" stroke-width="0" color="#000"><path d="M118.52 162.5V155m0-109.99v7.5"/><text fill="#000" font-family="KaTeX_Main" font-size="8" text-anchor="middle" transform="translate(118.52 172.6)"><tspan> 3</tspan></text></g><path fill="none" stroke="#CCC" stroke-linecap="round" stroke-linejoin="round" stroke-width=".1" d="M154.73 162.5V45.01" class="f7abb__gridline" color="#000"/><g fill="none" stroke-linecap="round" stroke-linejoin="round" stroke-width="0" color="#000"><path d="M154.73 162.5V155m0-109.99v7.5"/><text fill="#000" font-family="KaTeX_Main" font-size="8" text-anchor="middle" transform="translate(154.73 172.6)"><tspan> 4</tspan></text></g><path fill="none" stroke="#CCC" stroke-linecap="round" stroke-linejoin="round" stroke-width=".1" d="M190.94 162.5V45.01" class="f7abb__gridline" color="#000"/><g fill="none" stroke-linecap="round" stroke-linejoin="round" stroke-width="0" color="#000"><path d="M190.94 162.5V155m0-109.99v7.5"/><text fill="#000" font-family="KaTeX_Main" font-size="8" text-anchor="middle" transform="translate(190.94 172.6)"><tspan> 5</tspan></text></g><path fill="none" stroke="#CCC" stroke-linecap="round" stroke-linejoin="round" stroke-width=".1" d="M227.15 162.5V45.01" class="f7abb__gridline" color="#000"/><g fill="none" stroke-linecap="round" stroke-linejoin="round" stroke-width="0" color="#000"><path d="M227.15 162.5V155m0-109.99v7.5"/><text fill="#000" font-family="KaTeX_Main" font-size="8" text-anchor="middle" transform="translate(227.15 172.6)"><tspan> 6</tspan></text></g><path fill="none" stroke="#CCC" stroke-linecap="round" stroke-linejoin="round" stroke-width=".1" d="M263.36 162.5V45.01" class="f7abb__gridline" color="#000"/><g fill="none" stroke-linecap="round" stroke-linejoin="round" stroke-width="0" color="#000"><path d="M263.36 162.5V155m0-109.99v7.5"/><text fill="#000" font-family="KaTeX_Main" font-size="8" text-anchor="middle" transform="translate(263.36 172.6)"><tspan> 7</tspan></text></g><path fill="none" stroke="#CCC" stroke-linecap="round" stroke-linejoin="round" stroke-width=".1" d="M299.57 162.5V45.01" class="f7abb__gridline" color="#000"/><g fill="none" stroke-linecap="round" stroke-linejoin="round" stroke-width="0" color="#000"><path d="M299.57 162.5V155m0-109.99v7.5"/><text fill="#000" font-family="KaTeX_Main" font-size="8" text-anchor="middle" transform="translate(299.57 172.6)"><tspan> 8</tspan></text></g><path fill="none" stroke="#CCC" stroke-linecap="round" stroke-linejoin="round" stroke-width=".1" d="M335.78 162.5V45.01" class="f7abb__gridline" color="#000"/><g fill="none" stroke-linecap="round" stroke-linejoin="round" stroke-width="0" color="#000"><path d="M335.78 162.5V155m0-109.99v7.5"/><text fill="#000" font-family="KaTeX_Main" font-size="8" text-anchor="middle" transform="translate(335.78 172.6)"><tspan> 9</tspan></text></g><path fill="none" stroke="#CCC" stroke-linecap="round" stroke-linejoin="round" stroke-width=".1" d="M371.99 162.5V45.01" class="f7abb__gridline" color="#000"/><g fill="none" stroke-linecap="round" stroke-linejoin="round" stroke-width="0" color="#000"><path d="M371.99 162.5V155m0-109.99v7.5"/><text fill="#000" font-family="KaTeX_Main" font-size="8" text-anchor="middle" transform="translate(371.99 172.6)"><tspan> 10</tspan></text></g><g fill="none" stroke-linecap="round" stroke-linejoin="round" stroke-width="0" color="#000"><path d="M371.99 162.5h-7.5"/><text fill="#000" font-family="KaTeX_Main" font-size="8" transform="translate(378.99 165.1)"><tspan>0.500</tspan></text></g><g fill="none" stroke-linecap="round" stroke-linejoin="round" stroke-width="0" color="#000"><path d="M371.99 139h-7.5"/><text fill="#000" font-family="KaTeX_Main" font-size="8" transform="translate(378.99 141.6)"><tspan>1.000</tspan></text></g><g fill="none" stroke-linecap="round" stroke-linejoin="round" stroke-width="0" color="#000"><path d="M371.99 115.5h-7.5"/><text fill="#000" font-family="KaTeX_Main" font-size="8" transform="translate(378.99 118.1)"><tspan>1.500</tspan></text></g><g fill="none" stroke-linecap="round" stroke-linejoin="round" stroke-width="0" color="#000"><path d="M371.99 92.01h-7.5"/><text fill="#000" font-family="KaTeX_Main" font-size="8" transform="translate(378.99 94.61)"><tspan>2.000</tspan></text></g><g fill="none" stroke-linecap="round" stroke-linejoin="round" stroke-width="0" color="#000"><path d="M371.99 68.51h-7.5"/><text fill="#000" font-family="KaTeX_Main" font-size="8" transform="translate(378.99 71.11)"><tspan>2.500</tspan></text></g><g fill="none" stroke-linecap="round" stroke-linejoin="round" stroke-width="0" color="#000"><path d="M371.99 45.01h-7.5"/><text fill="#000" font-family="KaTeX_Main" font-size="8" transform="translate(378.99 47.61)"><tspan>3.000</tspan></text></g><path fill="none" d="M28 45.01V162.5M371.99 45.01H28" color="#000"/><text stroke-linecap="round" stroke-linejoin="round" stroke-width="0" color="#000" font-family="KaTeX_Main" font-size="10" text-anchor="middle" transform="rotate(-90 57.63 46.13)"><tspan font-weight="bold">Average Path Length </tspan><tspan> / log</tspan><tspan dy="3" font-size="8">2</tspan><tspan dy="-3">(Size)</tspan></text><text stroke-linecap="round" stroke-linejoin="round" stroke-width="0" color="#000" font-family="KaTeX_Main" font-size="10" text-anchor="middle" transform="translate(199.99 195.75)"><tspan>Operations / 10</tspan><tspan dy="-5" font-size="8">6</tspan></text><text stroke-linecap="round" stroke-linejoin="round" color="#000" font-family="KaTeX_Main" font-size="8" transform="translate(132.8 10.11)"><tspan>Splay</tspan></text><g fill="none" stroke="currentColor" stroke-linecap="round" stroke-linejoin="round" color="#000"><path stroke="#29C3F6" d="M97.3 7.51h29.9M28 84.54l.36 1.74.36-14.43.37 14.21.36-9.1.36 18.64.36-16.63.36 14.52.37-14.01.36-9.09.36-3.76.36 11.44.37 9.45.36-4.25.36 4.42.36 4.02.36-13.79.37 10.77.36-12.99.36 3.66.36 11.6.36-1.82.37-13.49.36-.15.36 8.6.36-15.38.36 5.79.37 8.65.36-18.22.36 15.81.36 6.15.36 5.85.37-31.93.36 33.92.36-17.96.36-10.54.37 5.96.36 11.77.36-8.14.36-3.88.36 22.47.37-8.91.36-5.07.36 13.85.36-.17.36 6.41.37-29.85.36-17.9.36 17.23.36 21.39.36-15.18.37 9.88.36-4.41.36 8.39.36-19.8.37-6.82.36 13.18.36-7.14.36 20.13.36-6.63.37-8.75.36-3.19.36-4.95.36.98.36 28.58.37-14.86.36.6.36-10.39.36 4.39.36 24.19.37-20.75.36 22.44.36-30.13.36-1.53.37 22.42.36-9.32.36-18.53.36 9.42.36-11.77.37 21.41.36 1 .36-6.47.36-21.75.36 38.57.37-42.6.36 13.3.36 19.2.36-1.67.36-1.69.37 4.47.36 5.77.36-.51.36-.29.36-16.78.37 13.79.36-.72.36 4.35.36-3.5.37-7.25.36-14.5.36 11.53.36 3.38.36-1.6.37 9.41.36-7.7.36-1.13.36-14.07.36 9.15.37 23.66.36-47.8.36 30.24.36-20.4.36 34.64.37-26.69.36 13.9.36-1.45.36 5.1.37 11.44.36-18.15.36-4.88.36-6.8.36 16.27.37-4.7.36-.13.36 16.92.36-9.38.36 7.98.37-21.58.36 16.73.36 5.46.36-4.12.36 1.54.37 6.03.36-.98.36-13 .36-12.75.36 14.83.37-9.96.36 8.75.36-19.44.36 11.84.37 5.04.36-1.58.36 8.88.36-30.76.36 22.11.37-9.83.36 7.17.36 2.79.36 1.23.36.67.37 3.77.36 9.19.36-1.74.36-6.02.36 1.42.37-7.16.36 5.4.36 6.3.36-6.62.37-9.37.36 8.57.36 2.36.36-5.02.36 3.07.37-27.05.36 27.49.36-.99.36 4.59.36-6.74.37 16.74.36-20.46.36 16.54.36-13.3.36-7.24.37 6.36.36-5.14.36 2.34.36 7.41.36-15.43.37 13.96.36-11.21.36.3.36 5.93.37-12.61.36 28.32.36-22.34.36 1.64.36 6.34.37-4.96.36-4.3.36 8.1.36 14.38.36-5.97.37-11.14.36 3.28.36-4.05.36 16.77.36-15.93.37-12.22.36 13.28.36-4.88.36 9.46.37-1.33.36-3.44.36 8.75.36-3.73.36 7.07.37.19.36-9.19.36-10.51.36-4.57.36 31.68.37-38.67.36 10.63.36 6.81.36 1.08.36 11.09.37.93.36-10.59.36 10.1.36-29.26.37 1.42.36 26.36.36 2.44.36-13.17.36-10.85.37-5.04.36 10.19.36 7.76.36 13.14.36-31.88.37 20.39.36-14.96.36 31.51.36-14.61.36 1.68.37 2.31.36-12.74.36-.05.36 19.08.36-13.04.37-11.51.36-1.41.36-.68.36 21.1.37-7.03.36 3.37.36-6 .36 13.18.36-10.24.37-7.78.36 6.36.36 11.88.36-1.19.36-7.44.37 5.01.36-11 .36 2.34.36-8.71.36 24.49.37-21.42.36-3.47.36 18.45.36-20.82.37 16.14.36-21.07.36 6.32.36 8.56.36-4.01.37 7.66.36-16.99.36 10.45.36 23.81.36-13.93.37-2.72.36 3.64.36 7.19.36-10.64.36 5.29.37 7.04.36-17.2.36-3.7.36-15.05.36 13.34.37 28.72.36-26.66.36 9.01.36-2.48.37 11.01.36 4.03.36-21.14.36-10.68.36 5.18.37 10.94.36-12.17.36 16.86.36-.8.36 8.59.37 2.26.36-13.87.36 9.8.36-10.86.36 8.88.37 4.9.36-26.04.36 12.48.36-8.63.37 16.93.36-2.05.36-19.63.36 1.14.36 7.16.37 9.65.36-15.1.36 31.92.36-28.61.36 1.89.37 6.22.36-7.76.36-5.47.36 25.21.36-28.94.37.67.36 2.47.36 20.15.36-7.45.36 1.26.37 6.97.36-2.12.36 1.03.36-12.14.37 18.81.36-25.77.36-22.48.36 46.43.36.66.37-38.63.36 22.01.36-3.96.36 8.07.36-1.51.37 1.6.36-17.83.36 19.01.36 13.45.36-3.69.37-6.82.36 2.27.36-8.94.36-6.35.37 1.17.36 28.82.36-24.04.36 20.57.36-9.58.37-33.09.36 13.07.36 10.92.36 20.6.36-10.23.37 2.62.36-16.61.36 14.63.36-28.21.36 31.9.37-16.21.36 1.16.36-23.61.36 12.38.37 11.76.36-4.67.36 15.35.36-4.7.36-28.6.37 19.1.36 7.27.36 11.08.36 3.32.36-34.58.37 36.08.36-14.02.36-2.07.36 11.3.36-5.07.37-27.19.36 25.67.36-27.61.36 33.38.36 1.4.37-22.02.36 3.92.36-2.1.36 16.5.37-13.28.36-17.04.36 36.43.36-9.06.36-7.79.37 6.81.36-23.89.36 20.37.36-23.37.36 25.6.37-3.05.36-1.59.36 10.48.36-17 .36 19.51.37-24.71.36 15.5.36 1.85.36 5.2.37-11.29.36 8.02.36-29.14.36 4.97.36 27.02.37 2.46.36-11.96.36 11.06.36-4.11.36 10.2.37-33.69.36 14.89.36 19.88.36-19.14.36 12.51.37-17.6.36 13.77.36 5.15.36-21.74.36 15.06.37-13.23.36 18.02.36 3.26.36 1.25.37-12.84.36-1.46.36-12.08.36 13.42.36.67.37-22.77.36 26.28.36 8.99.36-10.9.36-11.12.37 10.21.36-9.17.36 6.3.36 9.9.36-4.65.37-2.5.36 4.24.36-19.5.36 20.5.37-18.61.36-1.38.36-1.8.36 3.56.36 4.16.37 6.46.36-.22.36-1.48.36 2.04.36-20.67.37 23.43.36-19.47.36 8.74.36 5.86.36 6.14.37-7.41.36 12.61.36 2.01.36-18.65.37 1.9.36 9.29.36 3.7.36-8.36.36-6.59.37 3.14.36 13.9.36-4.11.36-23.12.36 28.13.37-12.35.36 10.63.36-16.06.36-10.14.36 7.77.37 6.08.36-7.13.36 3.05.36-3.83.36 21.45.37-5.07.36-19.59.36 10.96.36 1.97.37-9.32.36-2.53.36 7.55.36 9.22.36-12.7.37 4.04.36 6.4.36-.46h.36l.36-3.57.37-4.29.36 18.36.36-10.49.36-2.41.36 4.5.37-9.51.36 3.04.36 12.94.36-3.17.37-8.61.36 17.49.36-12.69.36-7.53.36 4.13.37 6.1.36-25.35.36 14.03.36 10.77.36-6.81.37 10.08.36-.13.36-20.41.36 27.6.36-18.29.37 4.78.36-11.79.36.6.36 11.83.36-22.43.37 11.38.36.41.36 6.67.36-6.73.37 19.34.36-8.34.36-.67.36-3.2.36-2.7.37-.4.36 11.92.36-9.42.36-10.43.36 9.2.37-.97.36-1.2.36 3.75.36 2.87.36-11.57.37 13.76.36-6.66.36-7.33.36-2.14.37 8.03.36 5.76.36.38.36 4.37.36-4.84.37-17.06.36 28.45.36-28.66.36 4.8.36-4.97.37 3.5.36 26.27.36-22.52.36 18.29.36-16.15.37-18.82.36 23.02.36-5.96.36 17.79.36 1.54.37-8.16.36-.61.36-8.52.36 2.95.37 2.66.36 17.34.36-12.57.36 11.06.36-17.71.37-5.87.36 26.34.36-17.25.36-8.63.36 11.98.37-16.7.36 13.27.36-7 .36 10.39.36-6.32.37-1.47.36-2.37.36-2.48.36-4.9.37 26.38.36-8.79.36-8.27.36 10.14.36-18.57.37 8.93.36 17.65.36-25.74.36 15.99.36-13.53.37 17.88.36-21.04.36-3.49.36 12.31.36-7.48.37 20.23.36-15.29.36 9.28.36-14.43.37 6.25.36 12.07.36-2.38.36-19.43.36 11.16.37 6.09.36.02.36.51.36-.01.36-7.8.37.14.36-18.13.36 30.03.36-9.34.36 8.58.37-1.6.36-5.77.36 4.22.36-.98.36-.95.37 6.28.36-20.74.36 22.62.36-9.61.37 7.24.36-11.91.36 10.81.36-9.22.36 1.01.37 5.68.36-6.95.36 11.51.36-10 .36-.32.37 6.86.36-21.28.36 14.21.36 5.58.36-1.77.37 6.35.36-14.7.36-12.29.36 28.06.37-5.68.36 1.94.36 8.49.36-31.87.36 11.88.37 19.54.36-7.53.36-3.19.36 13.67.36-12.93.37-12.47.36 13.75.36 4.31.36-2.87.36 1.38.37-17.58.36 11.16.36-3.78.36-12.79.36 23.87.37.66.36-4.99.36-16.73.36 15.71.37 3.02.36.33.36-8.01.36-21.28.36 30.77.37 1.61.36-13.74.36-6.49.36 14.66.36-16.45.37 6.14.36-7.8.36 5.71.36 13.62.36-28.74.37 27.54.36-14.41.36 13.71.36-1.75.37 3.72.36-3.21.36 6.57.36-22.15.36 18.52.37-12.4.36 16.08.36-21.68.36 10.54.36-1.21.37 12.9.36-22.2.36 20.57.36-14.25.36.13.37-9.34.36 30.63.36-20.46.36-6.29.36 16.56.37-4.83.36 12.27.36-14.6.36 17.36.37-20.87.36 24.35.36-9.75.36-6.07.36-6.49.37-1.62.36 3.57.36-11.98.36 15.84.36 10.27.37-8.89.36-8.09.36 7.75.36-25.2.36 14.19.37 25.31.36-12.67.36 7 .36-1.98.37-4.03.36-24.26.36 14.73.36 2.87.36-18.9.37 20.84.36-9.68.36-4.37.36 8.36.36-3.39.37-12.4.36 9.22.36 9.7.36-1.4.36 2.12.37 7.11.36-5.86.36 15.12.36-12.17.37-3.14.36-7.75.36 16.15.36 5.63.36-9.77.37-7.54.36 4.61.36 1.25.36.87.36-1.22.37-14.18.36 6.19.36 11.22.36-18.16.36 10.86.37-1.89.36 12.45.36-2.5.36-10.67.36-1.37.37 16.14.36-24.38.36 10.3.36 7.32.37 4.84.36 2.96.36-15.12.36-1.32.36-6.98.37 22.44.36 1.36.36 1.78.36-6.69.36-1.16.37-16.42.36-5.4.36 16.31.36 11.97.36-18.75.37 7.96.36-4.8.36-24.92.36 28.66.37.15.36 5 .36-5.36.36-14.26.36 7.51.37 5.71.36 6.01.36 4.42.36 1.09.36-.52.37-18.69.36 8.13.36 1.94.36-10.87.36 6.76.37 2.5.36 10.05.36-13.44.36-12.28.36 7.1.37-9.85.36 22.83.36-6.71.36-9.23.37 3.68.36 16.3.36 1.9.36-16.18.36-3.21.37 25.02.36-8.06.36-9.47.36 15.44.36-7.34.37 3.86.36-11.43.36 1.33.36-2.18.36-8.97.37 20.21.36-19.35.36 22.13.36-15.53.37 3.01.36 13.39.36-8.52.36-2.34.36-4.76.37 2.07.36 3.07.36 12.73.36-8.8.36-1.79.37 2.23.36-31.79.36 29.22.36-9.36.36-2.56.37-.52.36 5.37.36 14.8.36-11.02.36-4.09.37 2.58.36-2.69.36 13.82.36-11.17.37-2.16.36-8.36.36 11.79.36.63.36 7.32.37-3.58.36 2.34.36-17.6.36 21.92.36-34.55.37 22.82.36 6.95.36 4.6.36-5.4.36-12.16.37-14.94.36 16.23.36 19.04.36-16.23.37-11.81.36 14.7.36-7.29.36-.13.36 13.13.37-10.93.36 8.62.36-2.21.36-.2.36 3.14.37-15.61.36 3.94.36 10.62.36 1.98.36-.8.37-8.14.36 1.28.36-23.05.36 29.85.37-4.27.36-14.02.36 13.06.36 13.24.36-1.86.37-4.51.36-20.32.36 13.86.36-6.78.36 15.79.37-11.38.36 11.58.36-12.29.36 12.08.36-21.51.37 4.12.36 12.1.36 15.47.36-24.34.36-4.2.37 17.12.36-7.99.36 6.54.36 1.71.37-15.86.36 8.67.36-25.42.36 34.24.36-7.17.37-8.77.36-15.35.36 21.13"/><use xlink:href="#f7abb__b" color="#29C3F6" transform="matrix(3.75 0 0 3.75 354.25 84.7)"/><use xlink:href="#f7abb__b" color="#29C3F6" transform="matrix(3.75 0 0 3.75 112.25 7.51)"/></g><text stroke-linecap="round" stroke-linejoin="round" stroke-width=".5" color="#000" font-family="KaTeX_Main" font-size="8" transform="translate(132.8 25.11)"><tspan>AVLBottomUp</tspan></text><g fill="none" stroke="currentColor" stroke-linecap="round" stroke-linejoin="round" stroke-width=".5" color="#000"><path stroke="#000" d="M97.3 22.51h29.9M28 142.97l.36-.05.36.01.37-.05.36.12.36-.05.36-.05.36-.02.37-.01.36-.01.36-.03.36-.05.37.13.36-.04.36-.04.36-.02.36-.03.37-.03.36.01.36.01.36-.03.36-.05.37-.08.36-.03.36.1.36-.03.36-.03.37-.05.36-.03.36-.05.36-.01.36-.05.37.1.36-.05.36-.02.36-.04.37-.03.36-.02.36-.03.36-.03.36.01.37-.03.36.51.36-.01.36.03.36-.01.37-.02.36-.02.36-.01.36-.03.36-.02.37-.01.36-.01.36-.03.36-.02.37-.02.36-.01.36.12.36-.02.36-.02.37-.02.36-.02.36.09.36-.03.36-.01.37-.02.36-.01.36-.02.36-.02.36-.02.37.03.36-.01.36-.02.36-.02.37.04.36-.03.36-.02h.36l.36-.03.37-.01.36.01.36-.03.36-.03.36-.01.37-.02.36-.02.36-.02h.36l.36-.04.37.01.36-.03.36-.01.36-.01.36-.02.37-.02.36-.03.36-.01.36.01.37-.02.36-.02.36-.02.36-.02.36-.01.37-.01.36.21.36-.01h.36l.36-.02.37-.02.36-.03.36-.01.36-.01h.73l.36-.01.36-.02.36-.02.37-.01.36-.03.36-.02h.36l.36.02h.37l.36-.03h.36l.36.03.36-.01.37-.02h.36l.36.01.36-.02.36-.01.37.04.36-.02.36-.01.36-.01.36-.01h.37l.36.46.36-.01h.36l.37-.01.36-.02.36-.01h.36l.36-.02h.37l.36.03.36-.02.36-.02h.36l.37-.02.36.03.36-.02.36-.01.36.04.37-.01.36-.01.36-.01.36.05h.73l.36.01.36-.01.36-.01h.37l.36-.02h.72l.36-.01.37-.01.36-.08.36-.01h.36l.36-.01.37-.01.36.01.36-.01h.36l.36-.01.37-.01h.36l.36-.01.36-.01h.37l.36.07h.36l.36-.02.36.01h.37l.36-.01h.36l.36-.01h.36l.37-.01.36-.01.36.11h.72l.37-.01h.36l.36-.01h.36l.37-.01h.72l.36-.01h.36l.37-.01h.36l.36.02.36-.01.36.01.37-.01.36-.01h.72l.36-.01.37-.01.36-.02.36-.01.36-.01h.37l.36-.01.36-.02.36.02.36-.01.37-.01.36-.01.36-.01.36-.01.36-.01.37-.01.36.02.36-.01.36-.01.36-.01.37-.01.36-.01.36-.01.36-.01.36-.01.37-.01h.36l.36-.01.36-.01.37-.01.36-.01.36-.01.36-.01.36.12.37-.01.36-.01.36-.01.36-.02h.36l.37-.01.36-.01.36-.01h.36l.36-.01h.37l.36.04h.36l.36-.01.37-.01.36-.01h.36l.36-.01h.36l.37-.01.36.21.36-.01h.72l.37-.01.36-.01.36-.01.36-.01.36-.01.37.01.36-.01.36.05.36-.01.36-.01.37-.01h.36l.36.03h.36l.37-.02h.36l.36-.01h.36l.36-.01h.37l.36-.02h.36l.36.05.36-.01.37-.01.36-.01h.36l.36-.01.36-.02.37-.01h.36l.36-.01.36-.01.37.01.36-.01h.36l.36-.01.36.05.37-.01h.36l.36-.01h.36l.36-.01h.37l.36-.01h1.08l.37-.01.36-.01h.36l.36-.02.36-.01.37-.01h.72l.36-.01h.37l.36-.01h.36l.36-.01h.36l.37-.01.36.01.36-.01.36.07h.36l.37-.01h.36l.36-.01h.36l.36-.01h.37l.36-.01.36-.01h.36l.37-.01.36.01.36-.01h.36l.36-.01h.37l.36.16h.72l.36-.01h.73l.36-.01.36.03.36-.01h.37l.36.01.36-.01.36-.01.37.01h.36l.36-.01h1.09l.36-.01h.36l.36.03.36-.01.37-.01.36.01.36-.01h.72l.37-.01h1.08l.36-.01h.37l.36-.01.36.01.36-.01h.37l.36-.01h1.08l.37-.01h.72l.36-.01h.36l.37.01h.36l.36-.01h.72l.37-.01h.36l.36.04.36-.01h.73l.36-.01h.36l.36-.01h.73l.36.01.36-.01h.73l.36-.01.36-.01h.36l.36-.01.37-.01h.36l.36-.01.36-.01.36-.01.37.02.36-.02.36-.01.36-.01h.37l.36-.01.36.03.36-.01h.73l.36-.01.36-.01.36-.01h.36l.37-.01h.36l.36-.01h.36l.36-.01h.37l.36-.01.36-.01h.36l.37-.01.36-.01.36.04.36-.01.36.01.37-.01h.36l.36-.01.36-.01h.73l.36-.01.36-.01h.36l.36-.01.37-.01h.36l.36.03h.36l.37-.01h.36l.36-.01h.36l.36-.01.37-.01.36-.01h.72l.36-.02h1.09l.36-.01h.36l.37-.01h.36l.36-.01h.36l.36-.01.37-.01h.36l.36-.01.36.01h.37l.36-.01h.36l.36-.01h.36l.37-.01h.36l.36.01h.72l.37.07.36-.01h.72l.36-.01h.37l.36-.01.36.24.36-.01h.73l.36-.01h.36l.36-.01h.37l.36-.01.36-.01.36.01.36-.01h.37l.36.02h.36l.36-.01h.73l.36-.01h.36l.36-.01h.36l.37-.01h.72l.36-.01.37-.01h.72l.36.02.36-.01h.73l.36-.01h.36l.36-.01h1.09l.36-.01h.73l.36-.01h.36l.36-.01h.37l.36-.01h1.08l.37.06h.36l.36-.01h.72l.37-.01h.72l.36-.01.36.01.37-.01h.36l.36-.02h.72l.37-.01h.72l.36.01.37-.01h.36l.36.04h1.09l.36-.01h.72l.36-.01h.73l.36.01h.72l.37-.01h.72l.36-.01h.37l.36-.01.36.01.36-.01h.73l.36-.01h.36l.36-.01h1.45l.36-.01h.73l.36-.01h.72l.37-.01h1.08l.36-.01h1.09l.36-.01h1.45l.36-.01h.36l.37.09h.72l.36-.01h.36l.37-.01.36.01.36-.01h.36l.37-.01.36.01h.36l.36-.01h1.81l.36-.01h.73l.36-.01h2.17l.37-.01h.72l.36-.01h1.09l.36-.01h.72l.37-.01h.36l.36.01.36-.01h1.09l.36-.01h1.09l.36-.01h.72l.37.14h1.44l.37-.01.36.01.36-.01h1.09l.36-.01h1.08l.37.01h.72l.36-.01h.73l.36-.01.36.01.36-.01h2.54l.36-.01h2.53l.37-.03h3.26l.36-.01.36.01.36-.01h.73l.36-.01h1.81l.36-.01h.36l.37.01.36-.01h.72l.36.02h.37l.36-.01h2.17l.36-.01h.36l.37.01.36-.01h1.45l.36-.01.36.01h.73l.36-.01h1.45l.36-.01.36.01h.36l.36-.01h1.45l.36-.01h1.45l.37-.01.36.01h2.17l.36-.01h.73l.36.06h.72l.36-.01h.73l.36.01h2.17l.37-.01h1.08l.36-.01h1.45l.36-.01h2.18l.36.01h.36l.36-.01h.37l.36.01.36-.01h.36l.36.01.37-.01h1.44l.37-.01h.36l.36-.01h.72l.37-.01h.72l.36-.01h1.81l.37-.01h1.08l.36-.01h.73l.36-.01h.36l.36-.01.37.01h.36l.36-.01h.36l.36.01.37-.01h.36l.36-.01h1.09l.36-.01h1.45l.36-.01h.72l.37-.09.36-.01h1.45l.36.01h1.09l.36-.01.36.01.36-.01h.73l.36.01h.36l.36-.01h1.81l.36.02h1.82l.36-.01h1.45l.36-.01.36.01.36-.01h2.17l.37-.01h.72l.36-.01h.73l.36.01h.36l.36-.01h1.81l.37-.01h.72"/><use xlink:href="#f7abb__d" transform="matrix(3.75 0 0 3.75 67.83 142.29)"/><use xlink:href="#f7abb__d" transform="matrix(3.75 0 0 3.75 112.25 22.51)"/></g><text stroke-linecap="round" stroke-linejoin="round" color="#000" font-family="KaTeX_Main" font-size="8" transform="translate(241.1 10.11)"><tspan>LBSTRelaxed</tspan></text><g fill="none" stroke="currentColor" stroke-linecap="round" stroke-linejoin="round" color="#000"><path stroke="#FFAB00" stroke-dasharray="4.0,2.0,1.0,2.0" d="M205.6 7.51h29.9M28 142.23l.36-.08.36-.13.37.61.36-.05.36-.04.36-.11.36-.1.37.06.36-.1.36-.05.36-.13.37.16.36-.07.36-.05.36-.09.36-.02.37-.1.36-.1.36-.07.36-.13.36 1.03.37-.03.36-.01.36-.06.36.03.36-.06.37-.03.36-.07.36.1.36-.05.36-.07.37-.02.36-.09.36.01.36-.06.37-.06.36-.08.36.32.36-.04.36-.07.37-.02.36-.07.36.04.36-.07.36-.04.37-.08.36.09.36-.05.36-.04.36-.08.37-.08.36.01.36-.08.36-.06.37-.08.36.67.36-.03.36-.01.36-.05.37.01.36-.04.36-.06.36-.03.36-.07.37.09.36-.04.36-.03.36-.06h.36l.37-.05.36-.08.36-.04.36-.08.37.24.36-.04.36-.03.36-.05h.36l.37-.04.36-.04.36-.08.36.07.36-.05.37-.05.36-.03.36-.07.36-.01.36-.06.37-.05.36-.07.36.98.36-.02h.36l.37-.03.36.02.36-.03.36-.02.37-.04.36-.05.36.08.36-.03.36-.02.37-.04.36.01.36-.04.36-.03.36-.05.37.14.36-.02.36-.03.36-.01.36-.04.37.01.36-.04.36-.02.36-.05.37.04.36-.03.36-.04.36-.02.36-.05.37-.01.36-.04.36-.04.36-.06.36.39.37-.02.36-.01.36-.04.36-.03.36.01.37-.03.36-.02.36-.04.36.05.36-.03.37-.02.36-.04.36-.04h.36l.37-.04.36-.04.36-.04.36.12.36-.02.37-.02.36-.04h.36l.36-.04.36-.04.37-.02.36-.05.36.04.36-.03.36-.03.37-.04.36-.02.36-.04.36-.04.37-.04.36.64.36-.01.36-.01.36-.03.37-.02.36.01.36-.02.36-.02.36-.03.37.04.36-.02.36-.01.36-.04.36-.03h.37l.36-.03.36-.02.36-.04.36.11.37-.02.36-.02.36-.02.36-.01.37-.02.36-.03.36-.03.36-.03.36.03.37-.02.36-.03.36-.03.36-.04h.36l.37-.04.36-.03.36-.04.36.24.36-.02.37-.02.36-.02h.36l.36-.02.37-.02.36-.04.36-.03.36.04.36-.02.37-.03.36-.02.36-.01.36-.03.36-.04.37-.02.36.07.36-.02.36-.02.36-.02.37-.03h.36l.36-.03.36-.03.37-.03.36-.04.36.03.36-.03.36-.03.37-.03.36-.01.36-.03.36-.05.36.96.37-.01h.36l.36-.02.36.02.36-.01.37-.03h.36l.36-.03.36.04.36-.01.37-.01.36-.02h.36l.36-.02.37-.02.36-.02.36-.03.36.09.36-.01.37-.01.36-.02h.36l.36-.02.36-.02.37-.01.36-.03.36.03.36-.02.36-.02.37-.02.36-.01.36-.02.36-.03.37-.02.36.17.36-.01.36-.01.36-.01.37-.02h.36l.36-.02.36-.01.36-.02.37-.03.36.03.36-.01.36-.02.36-.02h.37l.36-.02.36-.03.36-.02.36.06.37-.01.36-.02.36-.01.36-.02.37-.01.36-.02.36-.02.36-.02.36-.03.37.02.36-.02.36-.02.36-.02.36-.01.37-.03.36-.02.36-.03.36.37.36-.01.37-.01.36-.01h.36l.36-.01.37-.03h.36l.36-.03.36.03.36-.01.37-.01.36-.02.36-.01.36-.01.36-.03.37-.02.36-.02.36.08.36-.01.36-.01.37-.02h.36l.36-.02.36-.02.36-.02.37-.02.36.02.36-.02.36-.02.37-.02.36-.01.36-.02.36-.03.36-.02.37.14.36-.01.36-.02h.36l.36-.02h.37l.36-.02.36-.02.36-.02.36.02.37-.02.36-.02.36-.01.36-.02.37-.01.36-.02.36-.02.36-.03.36.06.37-.02.36-.02.36-.01.36-.02.36-.01.37-.02.36-.02.36-.02.36.01.36-.02.37-.02.36-.02.36-.02.36-.01.37-.03.36.63h.36l.36-.01.36-.01.37-.01.36.01.36-.01.36-.01.36-.02.37-.01.36.02.36-.01.36-.01.36-.01h.37l.36-.01.36-.02.36-.02.36-.02.37.06.36-.01.36-.01.36-.01h.37l.36-.01.36-.02.36-.02.36-.01.37.01.36-.01.36-.01.36-.02.36-.01.37-.02.36-.02.36-.01.36.11h.36l.37-.02h.36l.36-.02h.36l.37-.01.36-.01.36-.02.36.02.36-.02.37-.01.36-.01.36-.02.36-.01.36-.01.37-.02.36-.02.36.05.36-.02.36-.01.37-.01.36-.02h.36l.36-.02.36-.01.37-.02.36-.02.36.01.36-.02.37-.01.36-.02.36-.01.36-.02.36-.02.37-.02.36.24.36-.01.36-.01.36-.01h.37l.36-.01.36-.01.36-.01.36-.02.37.02.36-.02.36-.01.36-.01.37-.01.36-.01.36-.02.36-.01.36-.02.37.05.36-.01.36-.01.36-.02h.36l.37-.02.36-.01.36-.01.36-.02.36.01.37-.02.36-.01.36-.01.36-.03h.37l.36-.02.36-.02.36.1.36-.01.37-.01.36-.01.36-.01.36-.01.36-.01.37-.01.36-.02.36-.02.36.02.36-.02.37-.01.36-.02h.36l.36-.02.36-.02.37-.01.36-.02.36.04.36-.01.37-.01.36-.02.36-.01.36-.01.36-.02.37-.02.36-.02.36.01.36-.01.36-.02.37-.02.36-.01.36.89h.72l.37-.01.36.01.36-.01.36-.01h.37l.36-.01.36.02.36-.01h.36l.37-.01.36-.01h.36l.36-.01.36-.01.37-.01.36.04h.36l.36-.01.36-.01.37-.01h.36l.36-.01h.36l.36-.02.37.02.36-.02.36-.01h.36l.37-.02h.36l.36-.01.36-.01.36-.02.37.09h.36l.36-.01.36-.01.36-.01h.37l.36-.01h.36l.36-.01.36.01.37-.01.36-.01.36-.01.36-.01.37-.01.36-.01.36-.01.36-.01.36.04.37-.01.36-.02h.36l.36-.01.36-.01.37-.01.36-.01.36-.01.36.01.36-.02.37-.01.36-.01.36-.01.36-.01.36-.01.37-.02.36.18h.36l.36-.01h.37l.36-.01h.36l.36-.01.36-.01.37-.01.36-.01.36.01.36-.01h.36l.37-.01.36-.01.36-.01.36-.01.36-.01.37.03h.36l.36-.01.36-.01.37-.01h.36l.36-.01.36-.02h.36l.37-.02.36.01.36-.01.36-.01.36-.01.37-.01.36-.01.36-.01.36-.02.36.08.37-.01h.36l.36-.01.36-.01h.37l.36-.01.36-.01.36-.02.36-.01.37.01.36-.01.36-.01.36-.01h.36l.37-.02.36-.01.36-.01.36-.02.36.03.37-.01h.36l.36-.02h.36l.36-.01.37-.02.36-.01.36-.01h.36l.37-.01.36-.01.36-.01.36-.01.36-.02.37-.01.36.37.36-.01h.36l.36-.01h.73l.36-.01.36-.01.36-.01.37.01h.36l.36-.01.36-.01.37-.01h.36l.36-.01.36-.01.36-.01.37.04.36-.01h.36l.36-.01h.36l.37-.01.36-.01.36-.01.36-.01.36.01.37-.01.36-.01.36-.01.36-.01.36-.01.37-.01.36-.01.36-.01.36.07.37-.01h.36l.36-.01h.36l.36-.01.37-.01.36-.01.36-.01.36.01.36-.01.37-.01.36-.01.36-.01h.36l.36-.01.37-.01.36-.02.36.03.36-.01h.37l.36-.02.36-.01h.36l.36-.01.37-.01.36-.01h.36l.36-.01.36-.01.37-.01.36-.01.36-.01.36-.01.36-.02.37.15.36-.01.36-.01h.36l.36-.01h.37l.36-.01h.36l.36-.02.37.01.36-.01.36-.01h.36l.36-.01.37-.01.36-.01.36-.01.36-.01.36.03.37-.01.36-.01h.36l.36-.01.36-.01.37-.01.36-.01.36-.01.36-.01h.37l.36-.01h.36l.36-.02h.36l.37-.02.36-.01.36-.01.36.06.36-.01h.37l.36-.01.36-.01h.36l.36-.01.37-.01.36-.01h.36l.36-.01.37-.01.36-.01.36-.01.36-.01.36-.01.37-.01.36-.01.36.02.36-.01.36-.01.37-.01.36-.01.36-.01.36-.01.36-.01.37-.01.36-.01h.36l.36-.01.36-.01.37-.01.36.61h1.09l.36-.01h.72l.36-.01h.37l.36-.01.36.01.36-.01h.73l.36-.01h.36l.36-.01.36-.01.37-.01.36.03h.36l.36-.01h.37l.36-.01h.36l.36-.01.36-.01h1.09l.36-.01.36-.01.37-.01h.36l.36-.01.36-.01.36-.01.37.06h.36l.36-.01h.72l.37-.01.36-.01h.36l.36-.01h.73l.36-.01.36-.01.36-.01h.37l.36-.01h.36l.36-.01.36.02.37-.01h.36l.36-.01.36-.01h.36l.37-.01.36-.01.36-.01h.36l.37-.01h.36l.36-.01.36-.01.36-.01.37-.01.36-.01.36.12h.36l.36-.01h.37l.36-.01h.72l.36-.01.37-.01.36.01.36-.01.36-.01h.36l.37-.01h.36l.36-.01.36-.01.37-.01.36.03.36-.01.36-.01h.36l.37-.01h.36l.36-.01.36-.01.36-.01.37-.01.36.01.36-.01.36-.01.36-.01.37-.01h.36l.36-.01.36-.01.37.05h.36l.36-.01.36-.01h.36l.37-.01h.36l.36-.01.36-.01.36-.01.37.01.36-.01.36-.01.36-.01h.36l.37-.01.36-.01.36-.01.36-.01.37.02.36-.01.36-.01h.36l.36-.01.37-.01.36-.01.36-.01.36-.01h.36l.37-.01h.36l.36-.02.36-.01h.36l.37-.01.36.24.36-.01h.36l.36-.01h.73l.36-.01h.36l.37-.01h.72l.36-.01h.36l.37-.01h.36l.36-.01"/><use xlink:href="#f7abb__e" color="#FFAB00" transform="matrix(3.75 0 0 3.75 125.4 142.06)"/><use xlink:href="#f7abb__e" color="#FFAB00" transform="matrix(3.75 0 0 3.75 220.55 7.51)"/></g><text stroke-linecap="round" stroke-linejoin="round" color="#000" font-family="KaTeX_Main" font-size="8" transform="translate(241.1 25.11)"><tspan>TreapTopDown</tspan></text><g fill="none" stroke="currentColor" stroke-linecap="round" stroke-linejoin="round" color="#000"><path stroke="#00C853" stroke-dasharray="4.5,2.0,0.5,2.0,0.5,2.0" d="M205.6 22.51h29.9M28 130.29l.36.02.36.01.37.06.36-.04h.36l.36-.02.36-.1.37-.16.36-1.22.36.21.36.11.37-1.64.36.32.36.12.36.18.36.14.37-.01.36.2.36.13.36-.05.36.21.37.1.36-.24.36.14.36-.01.36-.06.37-.07.36-.26.36-.3.36.14.36.09.37.07.36.06.36.01.36.15.37.05.36.03.36-.02.36.08.36.03.37-.26.36.17.36.12.36-.05.36.07.37.13h.36l.36-.07.36.09.36.08.37-.01.36.05.36.05.36-.09.37.07.36.01.36.02.36.01.36.08h.37l.36-.06h.36l.36-.02.36.02.37-.45.36.08.36.03.36.05.36.05.37-.04.36.03h.36l.36-.78.37.06.36.06.36.03.36.1.36-.06.37.12.36.08.36.02.36-.06.36.09.37.08.36.05.36.03.36-1.11.36.09.37.08.36.07.36.09.36.04.36.05h.37l.36.03.36.04.36-.01.37.04.36-.25.36.06.36.07.36.07.37.07.36.01h.36l.36-.02.36-.14.37.06.36.05h.36l.36.01h.36l.37.02.36.01.36.01H70l.37-1.94.36.11.36.04.36.09.36.04.37.11.36.09.36.07.36.06.36.08.37.06.36.03.36.01.36.01.36-.04.37-.21.36.05.36.03.36.04.36.04.37-.03.36-.02.36.06.36.09.37-.07.36.05.36.03.36.01.36.03.37.02.36-.03.36-.07.36-.13.36-.23.37-.26.36.09.36.06.36.07.36.06.37.03.36.07.36.06.36.06.37.06.36.04.36.04.36.03.36-.04.37.06.36.07.36.01.36.04.36.02.37-.01.36-.12.36.07.36.05.36.03.37.04.36.03.36.01.36.06.36.05.37.04.36-.01.36.04h.36l.37.02.36.02.36-.18.36-.09.36.04.37-.11.36.05.36.03.36.03.36-.39.37.07.36.04.36.06.36.05.36.02.37-.03.36.06.36.05.36.03.37.01.36.04.36.05.36.02.36.01.37-.02.36.05.36.03.36-.01.36-.01.37-.03.36.03.36.03h.36l.36.03.37.01.36.01.36-.03.36.01.37-.14.36.04.36.04.36.01.36-.02.37.02.36.02h.36l.36-.03.36-.01.37-2 .36.08.36.03.36.08.36.05.37.06.36.05.36.03.36.06.36.04.37.04.36.04.36.04.36.05.37.04.36.03.36-.07.36.04.36.03.37.05.36.04.36.05.36.01.36.05.37.05.36.02.36.04.36.05.36.03.37.04.36.05.36-.07.36.05.37.03.36.04.36.03.36.04.36-.08.37.02.36.04.36-.01.36.04.36.02.37.03.36-.02.36.01.36.02.36.02.37-.02.36.05.36.01.36.02.36-.01.37.03.36-.09.36.04.36.02.37.04.36-.29.36.06.36.04.36.05.37.02.36.02h.36l.36-2.09.36.06.37.06.36.06.36.06.36.06.36.05.37.05.36.04.36.03.36.03.37.03.36.01.36.05.36.04.36.03.37.03.36.03.36.04.36-.05.36.05.37-.04.36.05.36.05.36.04.36.04.37.03.36-.01.36.05.36.04.36.02.37-.01.36.03.36.05.36.02.37.03.36.02.36.01.36-.15.36.05.37.04.36.05.36.05.36.03.36.04.37-.01.36.04.36.04.36.04.36.02.37.05.36.04.36.13.36.03.37.01.36.02.36.03.36-.03.36.03.37-.06.36.04.36.05.36.03.36.03h.37l.36.03.36.03.36.02.36-.28.37.04.36.05.36.05.36.04.37.02.36.03.36.03h.36l.36.03.37.04.36.04.36.04.36.04.36-.02.37.02.36.03h.36l.36-.03.36.04.37.02.36.03.36.02.36.05.36.03.37.01.36-.07.36.04.36.03.37.04.36.03.36-.01.36.03.36.03.37-.01.36.04.36.03.36.03.36-2.07.37.06.36.04.36.04.36.04.36.05.37.04.36.04.36.04.36.04.37.03.36.04.36.04.36.03.36.03.37.04.36.02.36.02.36.02.36-.03.37-.04.36.06.36.04.36.03.36.04.37.04.36.02.36.04.36.02.36.05.37.01.36.04.36.03.36.03.37.02.36.02.36.03.36.02.36.03.37.02.36.01.36-.02.36.03.36.02.37.03.36-.06.36.03.36.03.36.03.37.01.36.02.36.02.36.01.37.02h.36l.36.02.36.02h.36l.37.01.36.02.36.02.36.01h.36l.37.01.36-.01.36-.01.36.02.36.01.37.02.36.01H200l.36-.02.36.01.36-.01h.36l.37-.07.36.02.36.01.36-.06.36.01h.73l.36.02.36.01.36-.01.37.01h.36l.36-.14.36.02.36.02.37.01.36.02.36.01h.36l.37-.17.36.16.36.01.36.02.36.01.37.01.36.01h.36l.36.02.36-.01.37.02h.36l.36.02.36-.01.36.01h.37l.36-.28.36.03.36-.03.37.03.36.03h.36l.36.03.36.02.37.02.36.02.36.01.36.01.36.02.37-.01.36-.02.36.02.36.01.36.01.37.01h.36l.36-.38.36.03.36.04.37.02h.72l.36.03.37.01.36.03.36.02.36-.02.36.01.37.03.36.02.36.02.36.01.36.01.37.02.36.01.36.01.36-.01.36.02h.37l.36.02.36.01.36.02.37.01.36.01.36-.02.36.01.36.02.37-.05.36.02.36.01.36.02.36.02.37.01.36.01.36.01.36.01h.36l.37-.06.36-.01.36-.01.36.02.36.01.37.01.36.01.36.01h.36l.37.02.36.01.36-.51.36.02.36.03.37.03.36.02.36.03.36.02.36.01.37.03.36-.01.36.04.36.02.36.03.37-.03.36.02.36-.02.36.04.37.04.36.02.36.03.36.02.36.02.37.03.36.01h.36l.36.03.36-.01.37.04.36.03.36.01.36.02.36.04.37.02.36.02.36.01h.36l.37-.09.36.02.36.02.36.03.36.01.37.02.36.03.36.02.36.02.36.01.37.02.36-.11.36.03.36.01.36.03.37.03.36.02.36.01.36-.02.36.02.37.02.36.01.36.02.36.02.37.02.36.01.36.01.36.02.36.01.37.01.36.01.36-.03.36.02.36.02.37.02.36.01.36.01.36-.05.36.03.37.02.36.02h.36l.36.01.37.02h.36l.36.01.36.02.36.01h.37l.36-.03.36.01.36.02.36.01.37.01.36.01.36.01.36-.01h.36l.37.01.36.01.36.01h.36l.36.02h.37l.36.06.36.01.36-.03.37.01.36.01.36.02h.36l.36.01.37.01.36-.17.36.02.36.02.36.02.37.01.36.02.36.01.36.02.36-.02.37.02.36.02.36.01.36.01.37.01.36.02h.36l.36.01.36.02.37-.01.36.01.36.01.36.01h.36l.37-.02.36.01.36-.02.36.02.36-.05.37.02.36.01.36.01.36.02.36.01h.37l.36.01.36.01.36.02.37.01h.72l.36.01.36-2.05.37.03.36.04.36.02.36.03.36.03.37.02.36.02.36.01.36.01.36.02.37.01.36.02.36.01.36-.01.37.03.36.03.36.03.36.02.36.01.37.03.36.01.36.03.36.02h.36l.37.02h.36l.36.02.36.02.36-.02.37.03.36.02.36.02.36.02h.37l.36.03.36.02.36.02.36.02.37-.06.36.02.36.03.36.02.36.02.37.02.36.01.36.02.36.03.36.02h.37l.36.02.36.03.36.02.36.04.37.01.36.02.36.02.36.02h.37l.36.02.36.02h.36l.36.02.37.02h.36l.36.02.36.02.36.02.37.02.36.02.36.01.36.02.36.02.37.01.36.01.36.01h.36l.37.05.36.02.36-.05.36.02.36.01.37.01.36.02.36.01.36.02.36-.04.37.02.36.02.36.02.36.02.36.01.37.02.36.01.36.01.36.02.36.01.37.01.36-.01.36.03h.73l.36-.06.36.02.36.01.36.02.37.01.36.02.36.01.36.01.36.01.37.01.36.02h.36l.36.01h.73l.36.01.36-.01.36.02.37.01.36.02h.36l.36.02.36.02.37.01.36.02.36.01.36.01h.36l.37.01h.36l.36.01h.36l.36.01.37.01.36.01h.36l.36.01.36-.01.37-.05.36-.03.36.02.36.01h.37l.36.02h.36l.36.01h.73l.36.02.36.01.36-.09.36.02.37.01.36.02.36.02.36.01h1.09l.36.01.36-.01.37.01.36.02h.72l.36.01.37.01.36.01.36-.12.36.02.36.01.37.02h.36l.36.02h.36l.36.01.37.02.36.01.36.01.36.01.37.01.36.01h.36l.36.01.36-.01.37.01.36.01h.36l.36.01h.73l.36-.02.36.01.36-.01.36.01.37.01h.36l.36.02h.72l.37-.02.36.01.36.01h1.81l.36-.01.37.01h.72"/><use xlink:href="#f7abb__f" color="#00C853" transform="matrix(3.75 0 0 3.75 182.98 125.95)"/><use xlink:href="#f7abb__f" color="#00C853" transform="matrix(3.75 0 0 3.75 220.55 22.51)"/></g><path fill="none" d="M28 45.01V162.5M371.99 45.01H28" color="#000"/></svg>