<svg xmlns="http://www.w3.org/2000/svg" xmlns:xlink="http://www.w3.org/1999/xlink" viewBox="0 0 400 200"><path fill="none" d="M0 0h400v200H0z"/><defs><path id="4805d__c" fill="currentColor" stroke="currentColor" stroke-width=".267" d="M-1-1h2v2h-2z"/><path id="4805d__a" stroke="currentColor" stroke-width=".267" d="m0-1.33-1.33 2h2.66z"/><path id="4805d__e" stroke="currentColor" stroke-width=".267" d="M0 1.33 1.265.411.782-1.067l-1.564-.009-.483 1.487z"/><use xlink:href="#4805d__a" id="4805d__g" fill="currentColor" stroke="none"/><use xlink:href="#4805d__a" id="4805d__b" stroke="currentColor" transform="rotate(180)"/><use xlink:href="#4805d__b" id="4805d__f" fill="currentColor" stroke="none"/><circle id="4805d__d" cx="0" cy="0" r="1" stroke="currentColor" stroke-width=".267"/></defs><path fill="none" stroke="#CCC" stroke-linecap="round" stroke-linejoin="round" stroke-width=".1" d="M46.1 162.5V60.01" class="4805d__gridline" color="#000"/><g fill="none" stroke-linecap="round" stroke-linejoin="round" stroke-width="0" color="#000"><path d="M46.1 162.5V155m0-94.99v7.5"/><text fill="#000" font-family="KaTeX_Main" font-size="8" text-anchor="middle" transform="translate(46.1 172.6)"><tspan> 1</tspan></text></g><path fill="none" stroke="#CCC" stroke-linecap="round" stroke-linejoin="round" stroke-width=".1" d="M82.31 162.5V60.01" class="4805d__gridline" color="#000"/><g fill="none" stroke-linecap="round" stroke-linejoin="round" stroke-width="0" color="#000"><path d="M82.31 162.5V155m0-94.99v7.5"/><text fill="#000" font-family="KaTeX_Main" font-size="8" text-anchor="middle" transform="translate(82.31 172.6)"><tspan> 2</tspan></text></g><path fill="none" stroke="#CCC" stroke-linecap="round" stroke-linejoin="round" stroke-width=".1" d="M118.52 162.5V60.01" class="4805d__gridline" color="#000"/><g fill="none" stroke-linecap="round" stroke-linejoin="round" stroke-width="0" color="#000"><path d="M118.52 162.5V155m0-94.99v7.5"/><text fill="#000" font-family="KaTeX_Main" font-size="8" text-anchor="middle" transform="translate(118.52 172.6)"><tspan> 3</tspan></text></g><path fill="none" stroke="#CCC" stroke-linecap="round" stroke-linejoin="round" stroke-width=".1" d="M154.73 162.5V60.01" class="4805d__gridline" color="#000"/><g fill="none" stroke-linecap="round" stroke-linejoin="round" stroke-width="0" color="#000"><path d="M154.73 162.5V155m0-94.99v7.5"/><text fill="#000" font-family="KaTeX_Main" font-size="8" text-anchor="middle" transform="translate(154.73 172.6)"><tspan> 4</tspan></text></g><path fill="none" stroke="#CCC" stroke-linecap="round" stroke-linejoin="round" stroke-width=".1" d="M190.94 162.5V60.01" class="4805d__gridline" color="#000"/><g fill="none" stroke-linecap="round" stroke-linejoin="round" stroke-width="0" color="#000"><path d="M190.94 162.5V155m0-94.99v7.5"/><text fill="#000" font-family="KaTeX_Main" font-size="8" text-anchor="middle" transform="translate(190.94 172.6)"><tspan> 5</tspan></text></g><path fill="none" stroke="#CCC" stroke-linecap="round" stroke-linejoin="round" stroke-width=".1" d="M227.15 162.5V60.01" class="4805d__gridline" color="#000"/><g fill="none" stroke-linecap="round" stroke-linejoin="round" stroke-width="0" color="#000"><path d="M227.15 162.5V155m0-94.99v7.5"/><text fill="#000" font-family="KaTeX_Main" font-size="8" text-anchor="middle" transform="translate(227.15 172.6)"><tspan> 6</tspan></text></g><path fill="none" stroke="#CCC" stroke-linecap="round" stroke-linejoin="round" stroke-width=".1" d="M263.36 162.5V60.01" class="4805d__gridline" color="#000"/><g fill="none" stroke-linecap="round" stroke-linejoin="round" stroke-width="0" color="#000"><path d="M263.36 162.5V155m0-94.99v7.5"/><text fill="#000" font-family="KaTeX_Main" font-size="8" text-anchor="middle" transform="translate(263.36 172.6)"><tspan> 7</tspan></text></g><path fill="none" stroke="#CCC" stroke-linecap="round" stroke-linejoin="round" stroke-width=".1" d="M299.57 162.5V60.01" class="4805d__gridline" color="#000"/><g fill="none" stroke-linecap="round" stroke-linejoin="round" stroke-width="0" color="#000"><path d="M299.57 162.5V155m0-94.99v7.5"/><text fill="#000" font-family="KaTeX_Main" font-size="8" text-anchor="middle" transform="translate(299.57 172.6)"><tspan> 8</tspan></text></g><path fill="none" stroke="#CCC" stroke-linecap="round" stroke-linejoin="round" stroke-width=".1" d="M335.78 162.5V60.01" class="4805d__gridline" color="#000"/><g fill="none" stroke-linecap="round" stroke-linejoin="round" stroke-width="0" color="#000"><path d="M335.78 162.5V155m0-94.99v7.5"/><text fill="#000" font-family="KaTeX_Main" font-size="8" text-anchor="middle" transform="translate(335.78 172.6)"><tspan> 9</tspan></text></g><path fill="none" stroke="#CCC" stroke-linecap="round" stroke-linejoin="round" stroke-width=".1" d="M371.99 162.5V60.01" class="4805d__gridline" color="#000"/><g fill="none" stroke-linecap="round" stroke-linejoin="round" stroke-width="0" color="#000"><path d="M371.99 162.5V155m0-94.99v7.5"/><text fill="#000" font-family="KaTeX_Main" font-size="8" text-anchor="middle" transform="translate(371.99 172.6)"><tspan> 10</tspan></text></g><g fill="none" stroke-linecap="round" stroke-linejoin="round" stroke-width="0" color="#000"><path d="M371.99 162.5h-7.5"/><text fill="#000" font-family="KaTeX_Main" font-size="8" transform="translate(378.99 165.1)"><tspan>1.00</tspan></text></g><g fill="none" stroke-linecap="round" stroke-linejoin="round" stroke-width="0" color="#000"><path d="M371.99 151.11h-7.5"/><text fill="#000" font-family="KaTeX_Main" font-size="8" transform="translate(378.99 153.71)"><tspan>2.00</tspan></text></g><g fill="none" stroke-linecap="round" stroke-linejoin="round" stroke-width="0" color="#000"><path d="M371.99 139.72h-7.5"/><text fill="#000" font-family="KaTeX_Main" font-size="8" transform="translate(378.99 142.32)"><tspan>3.00</tspan></text></g><g fill="none" stroke-linecap="round" stroke-linejoin="round" stroke-width="0" color="#000"><path d="M371.99 128.34h-7.5"/><text fill="#000" font-family="KaTeX_Main" font-size="8" transform="translate(378.99 130.94)"><tspan>4.00</tspan></text></g><g fill="none" stroke-linecap="round" stroke-linejoin="round" stroke-width="0" color="#000"><path d="M371.99 116.95h-7.5"/><text fill="#000" font-family="KaTeX_Main" font-size="8" transform="translate(378.99 119.55)"><tspan>5.00</tspan></text></g><g fill="none" stroke-linecap="round" stroke-linejoin="round" stroke-width="0" color="#000"><path d="M371.99 105.56h-7.5"/><text fill="#000" font-family="KaTeX_Main" font-size="8" transform="translate(378.99 108.16)"><tspan>6.00</tspan></text></g><g fill="none" stroke-linecap="round" stroke-linejoin="round" stroke-width="0" color="#000"><path d="M371.99 94.17h-7.5"/><text fill="#000" font-family="KaTeX_Main" font-size="8" transform="translate(378.99 96.77)"><tspan>7.00</tspan></text></g><g fill="none" stroke-linecap="round" stroke-linejoin="round" stroke-width="0" color="#000"><path d="M371.99 82.79h-7.5"/><text fill="#000" font-family="KaTeX_Main" font-size="8" transform="translate(378.99 85.39)"><tspan>8.00</tspan></text></g><g fill="none" stroke-linecap="round" stroke-linejoin="round" stroke-width="0" color="#000"><path d="M371.99 71.4h-7.5"/><text fill="#000" font-family="KaTeX_Main" font-size="8" transform="translate(378.99 74)"><tspan>9.00</tspan></text></g><g fill="none" stroke-linecap="round" stroke-linejoin="round" stroke-width="0" color="#000"><path d="M371.99 60.01h-7.5"/><text fill="#000" font-family="KaTeX_Main" font-size="8" transform="translate(378.99 62.61)"><tspan>10.00</tspan></text></g><path fill="none" d="M28 60.01V162.5M371.99 60.01H28" color="#000"/><text stroke-linecap="round" stroke-linejoin="round" stroke-width="0" color="#000" font-family="KaTeX_Main" font-size="10" text-anchor="middle" transform="rotate(-90 61.38 49.88)"><tspan font-weight="bold">Duration </tspan><tspan> in milliseconds</tspan></text><text stroke-linecap="round" stroke-linejoin="round" stroke-width="0" color="#000" font-family="KaTeX_Main" font-size="10" text-anchor="middle" transform="translate(199.99 195.75)"><tspan>Operations / 10</tspan><tspan dy="-5" font-size="8">6</tspan></text><text stroke-linecap="round" stroke-linejoin="round" color="#000" font-family="KaTeX_Main" font-size="8" transform="translate(110.4 10.11)"><tspan>Conc</tspan></text><g fill="none" stroke="currentColor" stroke-linecap="round" stroke-linejoin="round" color="#000"><path stroke="#D336C8" stroke-dasharray="1.0,2.0" d="M74.9 7.51h29.9M28 70.05l.36 7.24.36-10.19.37 9.8.36-6.06.36 2.38.36 3.59.36-10.26.37 10.16.36-7.96.36 3.86.36 5.96.37-14.02.36 12.17.36-10.53.36 10.13.36-3.82.37-3.67.36 9.85.36-11.8.36 9.24.36-5.5.37-.34.36 7.87.36-13.92.36 11.8.36-7.97.37 3.94.36 4.15.36-8.88.36 7.9.36-9.93.37 8.53.36-5.96.36 3.52.36.02.37-2.34.36 5.82.36-10.59.36 9.39.36-7.7.37 3.9.36-4.32.36 5.79.36-7.76.36 8.12.37-3.89.36 1.84.36-1.87.36-.09.36-.28.37 5.79.36 2.65.36 3.68.36-8.11.37-.01.36 4.3.36 3.84.36-3.66.36-6.14.37 6.05.36-.06.36 1.79.36-5.98.36 4.36.37.23.36-.36.36-.26.36-4.06.36 6.08.37-2.08.36-1.61.36-.29.36 2.01.37-2.1.36 2.13.36 1.62.36-8.09.36 6.04.37 2.4.36-.1.36-10.28.36 8.35.36 3.9.37-2.18.36-7.75.36 1.54.36 8.12.36-3.88.37-.06.36-7.71.36 11.88.36-.18.36-7.85.37-.41.36 3.97.36 1.91.36-3.79.37.18.36 2.06.36.33.36 1.87.36-6.38.37 2.16.36 2.09.36 2.17.36-4.21.36-1.94.37 7.85.36-5.95.36 3.8.36-5.63.36 4.22.37-1.85.36 3.8.36-4.01.36 1.53.37-3.86.36 6.06.36-2.45.36-1.89.36-.45.37 2.33.36.7.36-2.26.36 1.62.36.53h.37l.36-.14.36-4.23.36 4.06.36-.31.37-.03.36-3.76.36 3.91.36 2.44.36-6.08.37 3.37.36 1.83.36-3.36.36-2.2.37 4.41.36 2.02.36-2.14.36-3.95.36 6.16.37-3.75.36 1.35.36.41.36-2.1h.36l.37 4.03.36-2.25.36-4.11.36 4.1.36-.02.37-1.69.36 3.88.36-3.78.36.2.37 1.72.36 1.9.36-3.73.36 3.87.36-8.06.37 7.78.36-2.05.36 1.89.36-10.29.36 9.98.37-1.95.36 2.14.36-8.2.36 8.01.36-3.49.37 5.77.36-9.94.36 5.71.36.55.36-.4.37.2.36-2.16.36.15.36 4.2.37-3.77.36-2.14.36 7.3.36-3.4.36-.5.37-5.73.36 7.89.36-1.92.36.1.36-3.56.37 3.57.36 1.68.36-1.66.36-3.76.36 3.89.37.26.36-.12.36-.38.36-4.19.37 4.08.36.32.36 1.73.36-5.61.36 3.5.37 2.38.36-2.15.36-5.91.36 6.18.36 3.49.37-5.92.36-4.01.36 7.63.36.41.36-2.33.37-5.84.36 6.19.36 1.94.36-2.13.37-3.95.36 4.1.36 2.1.36-6.38.36 3.77.37.45.36-.36.36-1.57.36-.29.36 2.42.37 1.83.36-2.03.36-5.69.36 5.86.36 1.81.37-2.07.36-6.17.36 8.36.36-.13.36-4.26.37-1.79.36 5.82.36-4.03.36 1.88.37-1.66.36 1.6.36.19.36 1.61.36-5.6.37 1.94.36 1.97.36 2.01.36-3.78.36.25.37-.46.36 4.13.36-4.32.36 2.05.36-4.15.37 5.87.36-3.83.36 2.54.36-.02.37-2.33.36 2.36.36-1.76.36 5.61.36-5.82.37-1.76.36 3.91.36 1.64.36-1.98.36-2.11.37-1.62.36 8.05.36-1.67.36-8.35.36 3.88.37 4.43.36-.41.36-3.69.36-4.6.36 9.97.37-3.83.36-1.79.36-.58.36 2.1.37 2.16.36-6.12.36-.54.36 6.65.36.21.37-4.33.36-2.21.36 6.25.36-2.47.36.25.37-6.16.36 6.04.36 1.58.36-2.1.36-3.8.37 3.95.36.41.36-1.85.36 2.29.37-2.3.36 3.92.36-4.01.36-.42.36 2.14.37-1.78.36 2.17.36-1.81.36-.29.36 2 .37.5.36-.55.36-.11.36-1.73.36-.47.37 4.57.36-2.26.36-4.01.36 2.08.36 3.96.37-1.67.36-4.23.36 1.87.36 6.12.37-4.09.36-3.87.36.49.36 8.04.36-2.41.37-7.48.36 5.94.36.32.36 3.8.36-5.77.37-4.45.36 7.92.36.09.36-4.3.36-2.02.37 6.34.36.04.36-4.09.36-2.46.37 4.36.36 1.85.36-2.08.36-1.88.36-2.08.37 8.33.36-1.69.36-6.11.36.18.36 5.94.37 2.23.36-5.97.36-2.55.36 1.82.36 6.25.37-2.02.36-8.74.36 4.15.36 4.47.37 1.94.36-12.15.36 7.88.36.17.36 4.08.37-9.71.36 5.63.36 1.34.36-3.68.36-.28.37.14.36 3.73.36-3.57.36 2.22.36-2.46.37.34.36 1.59.36-1.6.36 1.46.36-.17.37-3.3.36 3.47.36 2.02.36-5.84.37 3.97.36.22.36.11.36-1.7.36-.31.37 3.79.36-3.58.36 1.62.36-3.8.36 7.93.37-9.98.36 7.86.36-3.86.36 3.47.36-7.54.37 8.08.36-1.94.36.15.36-3.73.37 5.88.36-2.25.36-1.73.36-2.07.36 5.71.37-1.73.36-.23.36-4.12.36 4.32.36 4.49.37-4.24.36-5.66.36 5.7.36 1.61.36-1.61.37-4.21.36 3.79.36.26.36 2.17.36-4.33.37.08.36.24.36 3.78.36-3.89.37-.38.36 4.26.36-1.45.36-2.4.36 2.28.37-.49.36-2.03.36 1.44.36-1.83.36 2.34.37.29.36-.35.36.17.36-4.04.36 8.45.37-7.81.36 3.48.36-2.17.36 3.96.37.13.36-7.96.36 3.88.36 6.26.36-3.57.37-2.51.36-4.66.36 10.25.36-4.17.36-2.45.37-3.86.36 10.29.36-4.18.36-1.6.36-.32.37 2.55.36-.16.36-1.99.36 2.45.37-2.64.36 5.8.36-9.45.36 3.49.36 4.01.37.23.36-3.65.36-4.15.36 10.14.36-4 .37-1.99.36.35.36 1.51.36.08.36 2.26.37-6.14.36 2.1.36 1.5.36 4.08.36-9.77.37 8.41.36-4.33.36 3.89.36-5.67.37 5.35.36-3.36.36 1.73.36-3.66.36 5.77.37-.15.36-3.84.36.24.36-.23.36 5.73.37-5.81.36-.46.36 2.41.36.18.36-2.25.37 1.63.36.19.36-1.76.36 3.86.37-6.31.36 4.48.36-2.37.36 5.74.36-9.88.37 5.65.36.51.36 1.91.36-5.67.36-.36.37 8.32.36-3.96.36-2.04.36-4.17.36 10.12.37-2.22.36-5.9.36 1.79.36 2.31.36 2.18.37-1.86.36-4.11.36 1.86.36 4.06.37-.03.36-7.98.36 8.27.36-1.51.36-.27.37-4.42.36 3.67.36 4.01.36-5.88.36-2.19.37 1.99.36 6.21.36-6.28.36-2.06.36 2.03.37 6.04.36-1.96.36-8.09.36 1.69.37 8.5.36.03.36-9.62.36-.3.36 10.15.37-1.97.36-1.91.36-10.25.36 13.86.36.36.37-5.86.36-1.86.36 1.66.36 3.58.36-.44.37-7.82.36 4.3.36 3.72.36-1.97.36-3.72.37 4.05.36.09.36.59.36-4 .37 5.86.36-2.56.36.1.36-2.27.36.33.37 1.64.36 2.57.36-6.18.36 3.95.36.14.37-.31.36-3.91.36 3.99.36.13.36 4.12.37-8.15.36.42.36 4.08.36 3.56.37-6.13.36-3.71.36 8.07.36-.05.36-4.57.37-2 .36 3.89.36 2.09.36-3.72.36 2.28.37-4.08.36 7.85.36-8.05.36 6.26.36-4.19.37-.07.36.02.36 6.06.36-7.66.37 3.56.36-2.12.36 2.28.36.49.36-2.06.37 1.86.36.21h.36l.36-.32.36-3.74.37 3.8.36 2.37.36-2.16.36-4.03.36 6.02.37-1.92.36-1.88.36-2.03.36 6.26.36-2.07.37-.15.36 1.53.36-5.89.36 1.79.37 3.9.36-1.99.36-1.59.36.08.36 2.04.37-.03.36-.17.36-1.96.36-.57.36 6.33.37-6.12.36.16.36-.16.36 3.9.36-1.72.37-4.37.36 1.72.36 4.39.36-.07.37-3.77.36-3.9.36 7.76.36-.02.36-1.87.37-5.72.36 5.49.36 2.41.36-.22.36-8.5.37 4.08.36 4.21.36-2.09.36.17.36-5.68.37 9.87.36-3.82.36-2.24.36.16.36 1.97.37 2.12.36-6.16.36 5.77.36-3.71.37 1.9.36-3.82.36 5.96.36-3.87.36 1.72.37.4.36-.9.36-1.4.36.29.36 3.91.37-4.41.36-1.64.36 8.08.36-6.43.36-.1.37.5.36 3.28.36-5.93.36 5.65.37-5.9.36 6.12.36-5.44.36 7.88.36-7.86.37 5.79.36-5.66.36 5.78.36-5.88.36 5.68.37-5.84.36 6 .36-1.55.36-2.28.36 1.85.37-.3.36-1.96.36.2.36 4.45.36-4.1.37 2.1.36.1.36-2.21.36 1.92.37.18.36-.2.36-2.01.36-.07.36 1.83.37 1.85.36-6.58.36.28.36 6.1h.36l.37-3.75.36-3.93.36 7.81.36.29.36.13.37-8.15.36 3.64.36 4.12.36-.23.37-5.97.36-.21.36 6.62.36-1.95.36-1.7.37 1.72.36-2.13.36 5.76.36-9.85.36 7.65.37-6.21.36 6.39.36-5.82.36 6.31.36-1.87.37-2.18.36-.04.36 1.52.36.27.37-2.08.36.12.36 2.23.36 2.41.36.04.37-8.05.36 3.75.36 4.14.36 1.88.36-5.61.37-6.27.36 11.9.36-2.21.36-1.77.36-8.11.37 9.95.36.21.36-.38.36-10.04.36 7.91.37 4.35.36-1.6.36-6.36.36-1.5.37 9.29.36-1.93.36-2.01.36-8.29.36 10.35.37 2.24.36-6.38.36-2.37.36 2.1.36 6.04.37-5.98.36.16.36-1.93.36 7.95.36-1.93.37-5.95.36-.35.36 6.11.36.19.37-4.26.36-.06.36.71.36 3.58.36-3.89.37 2.34.36-1.79.36 1.79.36-1.96.36 3.84.37-5.98.36 8.03.36-8.23.36 3.88.36.28.37-.52.36-3.79.36 5.77.36-3.67.36 4.05.37-5.6.36 3.38.36.6.36.05.37 1.82.36-5.88.36 4.01.36-2.1.36 3.52.37-3.82.36 2.24.36-2.51.36 1.81.36.06.37-1.67.36 2.08.36-1.91.36 2.33.36 1.9.37-8.57.36 6.05.36.18.36 2.03.37-1.98.36-3.85.36 3.53.36.11.36-.39.37-1.44.36 2.06.36-2.6.36 6.7.36-8.24.37 4.27.36-3.98.36 7.81.36-5.96.36 1.93.37-5.39.36 9.63.36-3.89.36 2.07.36-6.14.37 1.44.36 4.02.36-3.78.36.03.37.13.36 3.63.36-1.9.36-2 .36-2.27.37 5.81.36.14.36-4 .36-1.43.36 3.56.37 1.88.36-3.88.36.12.36-.26.36 4.2.37-1.94.36-4.05.36 2.3.36 3.87.37-.03.36-7.91.36 3.9.36 4.33.36-.62.37-3.98.36-.17.36 2.48.36-.08.36.11.37-2.01.36-.28.36 2.19.36-.38.36-2.12.37 2.89.36-2.19.36 3.97.36-6.22.37 5.58.36-3.46.36 1.78.36-2.08.36 2.16.37 2.38.36-10.19.36 9.76.36-1.87.36 1.75.37-5.58.36 3.92.36-.09.36-2.25.36 1.99.37-4.07.36 6.05.36-3.99.36 2.19.36-2.08.37 4 .36-4.16.36 2.31.36-1.81.37 1.6.36-2 .36 1.95.36-1.92.36.38.37 1.95.36 1.78.36-5.95"/><use xlink:href="#4805d__c" color="#D336C8" transform="matrix(3.75 0 0 3.75 354.25 68.72)"/><use xlink:href="#4805d__c" color="#D336C8" transform="matrix(3.75 0 0 3.75 89.85 7.51)"/></g><text stroke-linecap="round" stroke-linejoin="round" color="#000" font-family="KaTeX_Main" font-size="8" transform="translate(110.4 25.11)"><tspan>LBSTBottomUp</tspan></text><g fill="none" stroke="currentColor" stroke-linecap="round" stroke-linejoin="round" color="#000"><path stroke="#3B75EA" d="M74.9 22.51h29.9M28 153.47l.36 2.08.36-.19.37-1.99.36-.08.36-.08.36-.02.36 2.17h.37l.36-2.13.36-.04.36-.07.37 1.92.36.17.36.13.36-2.36.36.08.37 2.15.36-2.46.36 2.43.36-2.17.36-.13.37 2.12.36-2.07.36-.19.36 2.07.36-2.22.37 2.33.36-2.11.36-.05.36 2.18.36-.11.37.17.36-2.31.36.02.36-.03.37 2.17.36-.23.36-2.12.36.2.36-.11.37.04.36 2.1.36-.19.36-2.02.36.03.37-.09.36 2.26h.36l.36-.14.36-2.44.37 1.63.36-1.47.36 2.19.36.15.37-2.24.36 2.15.36.2.36.23.36-.21.37-2.06.36 1.95.36-2.11.36 2.35.36.1.37-2.16.36 2.22.36-2.23.36 1.88.36.21.37.08.36-.05.36-2.24.36 2.07.37-.15.36-2.07.36 2.34.36-2.1.36 2.18.37.07.36-.13.36.02.36.18.36.06.37-.23.36-2.09.36 1.76.36-2.07.36 2.27.37-2.03.36 2.04.36.16.36-.09.36-.2.37.28.36-2.19.36 1.9.36-2.09.37 2.04.36-2.21.36 2.07.36.25.36-2.28.37 2.3.36-.07.36.03.36.04.36-2.09.37 2.14.36-2.19.36 2.01.36.03.36-2.23.37 2.38.36.11.36-.04.36.19.37-.19.36-.25.36-1.84.36 2.09.36-.12.37-2.1.36 2.03.36-2.25.36 2.09.36.24.37.08.36.17.36-2.06.36 1.82.36.03.37-1.93.36 2.18.36-2.28.36 2.21.36-.16.37-2.5.36 2.4.36.14.36-.01.37.17.36-2.3.36 1.98.36-2.12.36 2.18.37.17.36-2.54.36 2.22.36-.11.36-.1.37.16.36.09.36-.01.36-1.93.36 1.86.37.09.36-2.05.36 2.22.36-2.23.37 2.04.36-.01.36-.04.36.11.36-1.96.37 2.06.36.11.36-2.15.36 1.93.36-2.25.37 2.26.36.04.36-2.3.36 2.24.36-.08.37-.13.36.2.36-2.1.36 2.29.36-2.04.37 1.94.36.02.36-2.03.36 2.2h.37l.36-.08.36.01.36-.19.36-.09.37-1.95.36 2.18h.36l.36-2.12.36 2.16.37-2.37.36 2.21.36.12.36-.11.36-.03.37-2.18.36 1.97.36-.03.36-1.99.37 2.12.36-2.05.36 2.08.36.01.36-2.18.37 2.27.36.04.36-.1.36.08.36-2.29.37 2.11.36-1.99.36 2.13.36.08.36-2.13.37 2.09.36-.12.36.06.36.12.37-.05h.36l.36-2.2.36 1.89.36.05.37-1.86.36 2.03.36-1.95.36 2.08h.36l.37-.05.36.15.36-2.02.36 2.01h.36l.37-2.25.36 1.92.36-2.04.36 2.14.36.18.37-2.13.36 2.19.36-.14.36-.15.37.18.36-2.23.36 2.13.36-2.2.36 1.98.37-.08.36-2.05.36 2.23.36.15h.36l.37-.14.36.1.36.05.36-2.05.36 2.07.37-.02.36-2.22.36 2.02.36-2.1.37 2.29.36.11.36.03.36-.01.36-2.2.37 2.06.36-.04.36-2.01.36 2.06.36-2.17.37 2.03.36-.01.36-2.05.36 2.21.36.1.37.08.36-.01.36-2.11.36 2.08.36-2.01.37 2.07.36.09.36-2.25.36 1.87.37-.02.36.1.36.08.36.11.36.02.37-2.15.36 1.92.36.06.36-2.09.36 2.09.37-2.24.36 2.02.36-.09h.36l.36.19.37-2.07.36 2.06.36.02.36-2.2.37 2.2.36-2.07.36 2.09.36-.04.36-2.09.37 2.05.36-.33.36.4.36.12.36-2.06.37 2.15.36-2.17.36 1.9.36.09.36-2.16.37 2.21.36-.08.36-.01.36-.04.36-.03.37.06.36-1.99.36 2.1.36.15.37-2.16.36 2.03.36-1.84.36 1.93.36.01.37.06.36-.16.36-2.21.36 2.12.36.06.37-2.06.36 2.21.36-2.16.36 1.97.36-.03.37-2.01.36 2.12.36-.13.36-.07.37-.06.36-2.18.36 2.1.36-2.04.36 2.2.37.06.36-2.1.36 2.09.36-.01.36.05.37.07.36.01.36-.15.36-2.13.36 2.12.37.17.36-2.1.36 2.12.36-1.98.37 1.93.36-.05.36.09.36-.05.36-2.07.37 2.12.36-.18.36-2.19.36 2.23.36-2.1.37 2.18.36.05.36-2.05.36 2.1.36.06.37.01.36.03.36-2.09.36 2.04.36-2.28.37 2.14.36-.07.36-2.08.36 2.21.37.08.36-.15.36.05.36.07.36-.03.37-2.18.36 2.16.36-.25.36-2.18.36 2.05.37-2 .36 2.18.36.1.36-.08.36.04.37-1.98.36 2.11.36-.16.36-1.98.37 2.14.36-2.27.36 2.13.36.13.36-2.2.37 2.21.36.11.36-.11.36-.04.36-2.05.37 2.06.36-2.1.36 2.07.36-.11.36-2.2.37 2.11.36.01.36.17.36.11.36.03.37-.02.36-2.05.36 2.17.36.04.37-2.18.36 2.06.36-2.11.36 1.88.36.02.37.06.36.05.36-2 .36 2.04.36-.1.37-2.02.36 2.12.36-2.12.36 1.99.36-2.08.37 1.89h.36l.36.03.36.05.37.07.36-2.05.36 1.98.36-2.07.36 2.27.37-2.1.36 2.02.36.06.36-.02.36-.19.37.17h.36l.36.09.36-1.95.36 1.98.37-1.98.36 1.79.36.09.36-2 .37 1.98.36.04.36-.06.36-.05.36-2.06.37 2.11.36-1.96.36 2.04.36.09.36-2.08.37 2.12.36-2 .36 1.97.36.08.36-.03.37-.18.36-2 .36 1.95.36.07.36-2.03.37 2.17.36-2.13.36 1.87.36.11.37.03.36.03.36-.01.36-.1.36-.13.37-2.15.36 2.08.36-1.95.36 2.07.36.03.37-2.12.36 2.14.36.05.36.05.36.03.37-2.14.36 1.96.36-2.03.36 2.06.37.1.36-2.03.36 2.13.36-2.07.36 1.93.37-.02.36.14.36-.05.36-2 .36 1.95.37-.07.36-2.16.36 2.16.36-2.01.36 2.08.37.08.36.06.36-.06.36.14.36.02.37-.04.36-2.01.36 1.91.36-2.18.37 1.95.36.16.36-2.09.36 2.16.36-.05.37-.02.36.02.36-2.08.36 2.09.36-2.19.37 1.95.36-.05.36-2.16.36 2.18.36-2.05.37 2.07.36.21.36-.1.36-.04.37-1.96.36 2.03.36.03.36-2 .36 1.97.37-2.16.36 2.07.36.07.36.1.36.09.37.06.36-.05.36-.04.36-2.04.36 2.01.37-2.07.36 2.02.36-.08.36-2.23.36 2.15.37.05.36.14.36.12.36-2.09.37 2.06.36-2 .36 2.1.36-.02.36-2.06.37 1.99.36-2.22.36 1.91.36.22.36.02.37.02.36-1.95.36 1.94.36.01.36-2.12.37 2.05.36-2.11.36 2.04.36-.07.37-.06.36-.02.36-.02.36.12.36.11.37-2.12.36 2.05.36-2.06.36 2.09.36.01.37-2.12.36 2.07.36.03.36-.04.36.09.37-2.03.36 2.13.36-2.02.36 1.93.37-.03.36-2.04.36 2.16.36-2.2.36 2.07.37.01.36-.01.36-.13.36-1.99.36 2.15.37.13.36-2.09.36 2.08.36-2.04.36 2.02.37.03.36.02.36-.06.36.06.36-.21.37.07.36-2.12.36 2.22.36-2.11.37 2.13.36-.09.36-2.14.36 2.09.36.05.37-.02.36-.08.36-2.14.36 2 .36-2 .37 2.05.36.05.36-2.08.36 2.06.36-2.03.37 2.1.36.05.36.06.36-.05.37-2.11.36 1.94.36.04.36-2.08.36 2.26.37-1.95.36 1.95.36.07.36-.1.36.06.37-.02.36-.07.36-.02.36-2.19.36 2 .37-1.94.36 2.05.36.13.36-1.93.36 2.03.37-.04.36.04.36.11.36-2.06.37 2.06.36-2.15.36 1.92.36-.03.36-2.12.37 2.12.36-2.02.36 2.09.36.12.36-.1.37.02.36-1.98.36 1.86.36-.04.36-2.17.37 2.06.36-2.14.36 2.11.36.03.37.15h.36l.36.03h.36l.36.14.37-2.14.36 2.01.36-2.02.36 1.99.36-.14.37-2.04.36 2.17.36.14h.36l.36.03.37-2.16.36 1.97.36-1.95.36 1.96.36-.02.37-2.16.36 2.13.36-2.13.36 2.12.37.04.36.13.36.11.36-2.05.36 2.02.37.11.36-2.09.36 2.03.36-2.15.36 2 .37-.04.36.02.36-.04.36.09.36.1.37.02.36-2.19.36 2 .36-1.94.37 1.96.36-.02.36-2.19.36 1.97.36-.02.37.06.36.07.36-2.03.36 2.05.36-2.06.37 2.01.36.08.36-2.03.36 2.17.36-2.22.37 2.08.36-.08.36.12.36.07.37-2.04.36 2.12.36-.04.36-2.12.36 2.05.37-2.03.36 2 .36-.04.36-.02h.73l.36.14.36-.07.36-1.94.36 2.04.37-2.03.36 2.08.36-.02.36-2.04.36 2.12.37.01h.36l.36-.21.36-2.1.37 2.07.36-1.98.36 2.04.36.04.36-2.19.37 2.1.36-2.14.36 2.19.36-.09.36.02.37-.12.36-2.07.36 1.97.36.07.36-2.05.37 2.16.36-2.05.36 1.84.36.13.37.17h.36l.36.02.36-.1.36.02.37-2.11.36 2.15.36-2.02.36 2.09.36-2.04.37 1.95.36.1.36-.09.36.09h.36l.37-2.13.36 2.05.36-2.22.36 2.07.36-1.99.37 2.05.36.08.36-1.99.36 2.06.37.07.36.06.36-.05.36-2.1.36 2.08.37-2.03.36 1.8.36.05.36-2.02.36 2.15h.37l.36.03.36-.04.36-.01.36-.06.37-1.93.36 1.83.36.05.36-2.25.37 2.09.36-2.1.36 1.99.36.3.36-.08.37.11.36-2.01.36 1.83.36.21.36-2.04.37 1.9.36-1.98.36 1.97.36-.19.36-1.88.37 2.33.36-.1h.36l.36.12.36-2.1.37 1.97.36-2 .36 1.92.36.03.37-2.14.36 2.01.36.05.36.02.36.22.37-.06.36.06.36-2.05.36 2.06.36.07.37-2.04.36 2.06.36-2.09.36 1.85h.36l.37.02.36.09.36-1.99.36 1.91.37.15.36-2.09.36 1.98.36-2.06.36 1.85.37.09.36-2.25.36 2.17.36-.06.36.01.37.13.36-2.14.36 2.01.36-1.88.36 1.92.37.14.36-2.04.36 2.04.36.02.37-.12.36.08.36.02.36.03.36-1.88.37 1.91.36.03.36-2.08.36 2.07.36-2.14.37 2.08.36-.04.36.02.36-.11.36-2.03.37 2.08.36.1.36-1.98.36 2.02.36-2.02.37 2.05h.36l.36-1.98.36 2.03.37.08.36-.11.36-.12.36-2.06.36 2.07.37-1.92.36 1.97.36-.06"/><use xlink:href="#4805d__d" color="#3B75EA" transform="matrix(3.75 0 0 3.75 67.83 154.64)"/><use xlink:href="#4805d__d" color="#3B75EA" transform="matrix(3.75 0 0 3.75 89.85 22.51)"/></g><text stroke-linecap="round" stroke-linejoin="round" color="#000" font-family="KaTeX_Main" font-size="8" transform="translate(110.4 40.11)"><tspan>TreapTopDown</tspan></text><g fill="none" stroke="currentColor" stroke-linecap="round" stroke-linejoin="round" color="#000"><path stroke="#F44336" stroke-dasharray="4.5,2.0,0.5,2.0,0.5,2.0" d="M74.9 37.51h29.9M28 158.66l.36 1.93.36-2.15.37 2.26.36-2.29.36-.02.36 2.18.36-2.26.37 2.16.36.05.36-2.22.36 2.19.37-2.26.36-.03.36 2.12.36-2.21.36 2.12.37-2.22.36-.1.36.02.36 2.17.36-.04.37-2.21.36.04.36-.06.36 2.23.36.04.37-.03.36-2.28.36-.02.36-.01.36 2.04.37.08.36-2.22h.36l.36-.08.37-.09.36 2.19.36.06.36-2.28.36.02.37.02.36 2.06.36.1.36-.04.36-2.22.37-.01.36 2.22.36-2.2.36 2.13.36-2.15.37.39.36-1.46.36 2.17.36.11.37-2.22.36 2.22.36-2.16.36 2.21.36-.03.37.05.36-.04.36-2.01.36 1.94.36.1.37-2.1.36 2.06.36-2.07.36 2.02.36.18.37-.09.36.03.36.03.36.03.37-.06.36-2.1.36 2.09.36-2.16.36 2.07.37.15.36-2.27.36 2.05.36.13.36-.03.37-.01.36-2.18.36 2.07.36-1.94.36 1.95.37.02.36-2.05.36 2.07.36-2.08.36 2.12.37.06.36-.02h.36l.36-2.19.37 2.11.36.06.36-2.24.36 2.26.36-2.17.37 2.05.36.05.36.1.36-.07.36-.02h.37l.36.01.36-2.18.36 2.21.36-2.16.37 2.05.36.11.36-2.19.36 2.16.37-.07.36.09.36-.07.36-2.1.36 2.12.37-2.14.36 2.07.36.02.36-2.15.36 2.18.37-2.13.36 2.12.36.02.36-.06h.36l.37-2.05.36 2.1.36.02.36-2.08.36 2.13.37-2.27.36 2.11.36.14.36-.04.37.03.36-.01.36.02.36-.07.36-2.13.37 2.26.36-2.21.36 2.03.36.07.36-2.24.37 2.2h.36l.36.03.36.03.36-2.23.37 2.24.36-2.17.36 2.06.36.03.37-2.2.36 2.22.36-2.09.36 2.04.36.03.37-.05.36.03.36-2.04.36 2 .36.03.37-2.1.36 2.06.36-2.17.36 2.04.36.17.37-.06.36.07.36-.05.36.13.36-.03.37-2.23.36 2.11.36-2.02.36 2.13.37-.04.36-2.18.36 2.13.36.12.36-.09.37.05.36-2.12.36 2.08.36-2.15.36 2.2.37-.04.36-2.14.36 2.1.36-2.1.36 2.11.37.11.36.01.36-.09.36-2.07.37 2 .36.05.36-2.17.36 2.21.36-2.17.37 2.06.36.02.36.02h.36l.36.14.37-.06.36.01.36-2.19.36 2.17.36-2.18.37 2.1.36.02.36-2.12.36 2.16.37-.07.36.17.36-.03.36-2.22.36 2.17.37-1.98.36 1.93.36.04.36-2.28.36 2.26.37-2.2.36 2.16.36.04h.36l.36.04.37-2.13.36 2.09.36.05.36-2.16.36 2.12.37-2.15.36 2.14.36.04.36-.1.37.07.36-.07.36.09.36-.01.36-2.07.37 2.08.36-2.16.36 2.1.36.12.36-2.2.37 2.04.36.04.36.01.36.06.36-2.2.37 2.16.36-2.16.36 2.12h.36l.37-2.13.36 2.19.36-2.17.36 2.05.36.04.37.12.36-.15.36-2.07.36 2.07.36.05.37-2.06.36 2.08.36-2.07.36 2.04.36.09.37.03.36-.05.36.04.36-.05.36.02.37-2.2.36 2.19.36-2.24.36 2.23h.37l.36-2.16.36 2.15.36.03.36.01.37.01.36-2.19.36 2.16.36-2.14.36 2.12.37.02.36-2.16.36 2.17.36-2.25.36 2.21.37-.02.36.01.36.03.36-2.18.37 2.15.36-.03.36-2.11.36 2.08.36-2.01.37 2.11.36-.06.36.07.36.01.36-.03.37.05.36-.05.36-2.2.36 2.18.36-2.22.37 2.24.36-.11.36-2.01.36 2.19.36-.08.37.03.36-.07.36-2.17.36 2.2.37-2.06.36 2.02.36.19.36-2.28.36 2.1.37-2.02.36 2.05.36.05.36-.03h.36l.37-2.18.36 2.18.36-.03.36-2.13.36 2.16.37-2.1.36 2.07.36-.04.36.02.37.04.36.02.36-.03.36-.01.36-2.02.37 2.02.36-1.96.36 2.05.36-2.08.36 1.85.37.15.36.04.36-.01.36.02.36-2.1.37 2.12.36-2.18.36 2.04.36-1.89.37 1.86.36.12.36-2.1.36 2.02.36.09.37.02.36-.01.36-2.14.36 2.13.36-.01.37-2.16.36 2.13.36-2.06.36 2.07.36.01.37.04.36-.02.36.08.36-.01.36.01.37-2.09.36 2.07.36-2.17.36 2.08.37-2.04.36 1.92.36.17.36.02.36.02.37-.05.36-2 .36 1.93.36-2.07.36 2.1.37-1.98.36 1.92.36.1.36-2.22.36 2.16.37.1.36-.06.36-.09.36-1.97.37 2.13.36-2 .36 1.92h.36l.36-2.14.37 2.14.36.02.36-.05.36.09.36.08.37-.14.36-1.96.36 1.88.36.14.36-2.15.37 2.07.36-2.11.36 2.1.36.05.36.05.37-.07.36-2.03.36 2 .36.08.37-2.17.36 2.05.36-1.9.36 1.93.36.03.37-2.19.36 2.16.36-.03.36-.01.36.03.37-1.98.36 2.01.36-2.01.36 1.94.36.07.37-2.06.36 2.09.36.01.36-.01.37.05.36-.05.36-.09.36-1.95.36 2.03.37-.04.36-2 .36 2.03.36-2.06.36 1.96.37.1.36-.07.36.05.36-2 .36 1.88.37.21.36-2.17.36 2.03.36-1.96.37 1.97.36-.02.36-2.03.36 2.1h.73l.36.04.36-2.16.36 2.11.36-2.09.37 1.96.36.07.36-2.14.36 2.17h.36l.37.01.36.06.36-.02.36.06.36-1.99.37 1.93.36.01.36-2.09.36 2.07.37-2.02.36 2.09.36-.07h.36l.36.05.37-2.11.36 1.92.36.09.36-2.04.36 2.03.37-2 .36 1.93.36.09.36-2.11.36 2.13.37-.05.36.09h.36l.36-2.12.37 2.09.36-1.97.36 1.88.36.1.36-2.12.37 2.07.36.13.36.02.36.06.36-.06.37.01.36-2.08.36 2 .36.02.36-2.1.37 2.07.36-2.07.36 1.94.36.13.36-.02h.37l.36-2.06.36 1.95.36.08.37-2.17.36 2.16.36-2.05.36 2.03.36.01.37-2.12.36 2.16.36.07.36-.07.36-.03.37-2.16.36 2.16.36-2.04.36 2.08.36.04.37-2.11.36 2.17.36-.07.36-.01h.37l.36.01.36.02.36-2.01.36 2.01.37.03.36-2.11.36 2.04.36-2.04.36 2.08.37-.03.36.01.36.04.36-2.03.36 1.97.37.09.36-2.19.36 2.08.36-2.06.36 2.02.37.08.36-2.2.36 2.11.36.1.37-.04.36-.04.36-2 .36 2.04.36-2.04.37 2.01h.36l.36-2.16.36 2.2.36-.04h.37l.36.04.36.01.36.05.36-2.14.37 2.01.36.11.36-2.13.36 2.12.37-2.07.36 1.97.36.08.36.04.36.04.37-2.11.36 1.95.36.07.36-2.15.36 2.13.37-2.05.36 2.02.36.08.36-2.17.36 2.2.37.07.36-.07.36-.01.36-2.05.37 2.05.36-2.14.36 2.12.36-.03.36-2.11.37 2.15.36.06.36-.15.36.04.36.04.37.06.36-2.13.36 1.97.36.1.36-2.18.37 2.17.36-2.06.36 1.97.36.2.36-.13.37.02.36-2.12.36 2.13.36-.1.37-2.02.36 2.09.36-2.11.36 2.04.36.09.37-2.17.36 2.1.36.08.36-.02.36.05.37-2.09.36 2.04.36-2.1.36 1.93.36.19.37-2.22.36 2.06.36.11.36.02.37-.03.36.02.36-.01.36-2.15.36 2.15.37.08.36-2.29.36 2.24.36-2.13.36 2.11.37-.02.36-.01.36.01.36-2.14.36 2.08.37.02.36-2.07.36 2.14.36-2 .36 1.76.37.14.36-2 .36 2.05.36.07.37.02.36.01.36-2.18.36 2.13.36-2.11.37 2.04.36.02.36-2.07.36 2.23.36-.01h.37l.36.01.36-.08.36-.01.36-2.09.37 2.12.36-.05.36-2.09.36 2.09.37-1.96.36 1.97.36.08.36.03.36-.02.37-2.12.36 2.07.36.08.36-2.18.36 1.99.37-2.07.36 2.11.36-1.94.36 1.81.36.09.37-.06.36.12.36.03.36-2.11.36 2.04.37-2.07.36 2.13.36-1.93.36 1.81.37.1.36.03.36.05.36-.04.36.04.37.04.36-2.08.36 1.98.36-.03.36-2.06.37 2.14.36-2.03.36 1.95.36.06.36.01.37.03.36-2.1.36 2 .36.12.37-2.21.36 2.11.36-2 .36 2.02.36-2.02.37 1.91.36.12.36.07.36-.04.36-.04.37-2.14.36 2.13.36-2.03.36 2.12.36-2.07.37 1.95.36.04.36.07.36.02.37-.03.36.04.36-.08.36-2.04.36 2.06.37-1.95.36 1.84.36.06.36-2.04.36 2.06h.37l.36.16.36-.14.36-2.31.36 2.23.37-1.97.36 1.93.36.09.36-2.08.36 2.01.37-1.89.36 1.99.36-.08.36.11.37-.08.36-1.91.36 1.89.36.05.36-2.09.37 2.08.36-2.07.36 2.05.36.06.36.02.37-.05.36.08.36-.03.36-.04.36-2.1.37 2.2.36-2.1.36 1.82.36.11.37-1.97.36 2 .36.09.36-.08.36.03.37-2.07.36 2.1.36-2.03.36 1.96.36.01.37-2.09.36 2.16.36-2.15.36 2.1.36.05.37-.01.36.07.36-2.14.36 2.03.36-.05.37-1.97.36 1.96.36-1.96.36 1.95.37.07.36.05.36-.05.36.01.36-.03.37.13.36-2.18.36 2.08.36-1.96.36 1.96h.37l.36-2.07.36 2.01.36.05.36-.02.37.1.36-2.18.36 2.11.36-2.11.37 2.08.36-.04.36-2.09.36 2.24.36-2.16.37 2.08.36-.05.36-.06.36.15.36-2.05.37 1.86.36.16.36-2.05.36 2.06.36-2.17.37 2.19.36-.08.36-.08.36.15.36.02.37-.02.36-.01.36-2.1.36 2.07.37-2.04.36 2.04h.36l.36-2.11.36 2.16.37-.06.36-.03h.36l.36-2.01.36 2.05.37-2.03.36 1.98.36.12.36-2.2.36 2.12.37-2 .36 1.93.36.08.36-.06.37.08.36-1.98.36 1.92.36.06.36-2.13.37 2.03.36-2.03.36 2.09.36-.02.36.03.37-.02.36.01.36-.05.36.06.36-2.07.37 2.1.36-2.03.36 2.04.36.04.37-2.16.36 2.02.36.03.36-.02.36.11.37-2.13.36 2.03.36-2.08.36 2.1.36.04.37-2.06.36 2.05.36-2.09.36 1.98.36-.01.37.12.36-.05.36-1.96.36 1.9.36.06.37-2.01.36 1.93.36-1.87.36 2.02.37.09.36-.07.36-.06.36.02.36.06.37.02.36-2.17.36 2.05"/><use xlink:href="#4805d__e" color="#F44336" transform="matrix(3.75 0 0 3.75 125.4 158.39)"/><use xlink:href="#4805d__e" color="#F44336" transform="matrix(3.75 0 0 3.75 89.85 37.51)"/></g><text stroke-linecap="round" stroke-linejoin="round" color="#000" font-family="KaTeX_Main" font-size="8" transform="translate(241.1 10.11)"><tspan>AVLTopDown</tspan></text><g fill="none" stroke="currentColor" stroke-linecap="round" stroke-linejoin="round" color="#000"><path stroke="#29C3F6" stroke-dasharray="2.5,4.0" d="M205.6 7.51h29.9M28 151.59l.36-.11.36.09.37-.04.36 1.9.36.15.36-2.12.36-.04.37-.32.36 2.36.36-.12.36.11.37-2.1.36-.01.36-.11.36 2.04.36.08.37-2.09.36-.05.36-.06.36 2.04.36-2.02.37 2 .36-1.95.36-.04.36 2.04.36-2.14.37 1.92.36.2.36-2.14.36 1.91.36-1.96.37.09.36 1.93.36-2 .36 1.93.37-2.03.36-.16.36-.19.36 2.21.36-.02.37-2.06.36-.17.36.06.36 1.96.36.21.37-.12.36-2h.36l.36-.2.36 1.97.37-1.94.36.71.36-1.95.36 2.15.37.11.36-2.05.36 2.18.36-2.09.36 1.93.37.25.36-2.08.36 2.12.36-.08.36-.04.37.09.36-2.26.36 2.08.36-2.09.36 2.14.37-.06.36-2.02.36 1.97.36-.08.37-.09.36.2.36.05.36.06.36-2.16.37 2.05h.36l.36-2.31.36 2.26.36-1.98.37 1.93.36.02.36-.14.36.29.36-2.12.37 1.96.36.1.36-2.06.36 2.13.36-2.15.37 2.01.36-.02.36-2 .36 1.98.37.03.36.17.36-.2.36-1.92.36 1.92.37-1.99.36 1.97.36.11.36-2.14.36 2.06.37.14.36-.13h.36l.36.12.36-.18.37-1.88.36 2.03.36.05.36-2.12.37 1.98.36-1.96.36 1.86.36.11h.36l.37-.04.36-1.96.36 2.01.36-.05.36-1.9.37 2.03.36-2.14.36 2.03.36.04.36-2.08.37 2.05h.36l.36-.1.36.15.36-2.11.37 1.88.36-1.9.36 2.08.36.1.37-2.01.36 2.03.36.01.36.09.36-.11.37.09.36-.34.36-1.86.36 2.03.36.04.37-1.99.36 1.83.36-1.97.36 2.09.36-.06.37.11.36-.11.36-1.87.36 2.01.37-.13.36-2.12.36 2.24.36-2.19.36 1.99.37-.06.36-2.19.36 2.18.36.1.36.08.37.06.36-2.2.36 1.88.36-1.88.36 2.14.37-.2.36-2 .36 1.97.36.11.36.09.37.05.36.02.36.09.36-2.16.37 2.05.36.05.36-2.23.36 2.17.36-2.14.37 1.93.36.09.36.11.36-.12.36-2.05.37 1.96.36.06.36-1.9.36 2.15.36-2.25.37 2.06.36.14.36-2.22.36 2.08.37-.1.36.08h.36l.36-2 .36 2.07.37-2.17.36 2.15.36-.09.36-1.99.36 1.98.37-.04.36.09.36-.1.36.21.36-.05.37-2.09.36 1.84.36.13.36-1.99.37 1.94.36-1.92.36 1.99.36-.11h.36l.37.31.36-2.1.36 2.08.36-.11.36-1.94.37 1.85.36-1.94.36 2 .36.01.36-2.09.37 2.01.36.1.36.12.36-.01.36-2.14.37 2.08.36-2.06.36 1.98.36-.07.37-2.05.36 2.15.36.02.36.06.36.04.37-.02.36-.06.36-1.97.36 2.02.36.04.37-2.3.36 2.03.36-2.17.36 2.03.36.04.37.2.36.03.36-1.99.36 2 .37.03.36-2.01.36 2.06.36-2.12.36 2.02.37.04.36-2.09.36 2.01.36.04h.36l.37.01.36-2.07.36 2.13.36-2.17.36 2.11.37.07.36-2.02.36 2.12.36-.23.36.09.37-.05.36-.02.36-.11.36-1.93.37 1.99.36.04.36-2.03.36 2.19.36-2.14.37 1.9.36.01.36.05.36-.02.36-1.89.37 1.84.36.15.36-2.09.36 1.97.36-2.04.37 2.14.36-1.91.36 1.9.36.09.37-.1.36.05.36-.09.36-2.08.36 2.1.37-1.95.36 2.08.36-1.92.36 1.88.36.03.37.07.36-.08.36.04.36.11.36-.29.37-1.93.36 1.98.36-2.01.36 1.87.36.07.37-1.97.36 1.95.36.17.36.03.37-.01.36-1.92.36 2.02.36.01.36-2.17.37 1.94.36-2.09.36 2.25.36-2.09.36 2.09.37-.09.36.01.36.09.36-.11.36-2.07.37 2.09.36-1.88.36 1.75.36-1.92.37 1.92.36.01.36.07.36-.03.36.1.37.02.36.26.36-2.15.36 2.02.36-2.27.37 2.03.36.2.36-2.15.36 2.03.36-.06.37.15.36-.12.36-1.97.36 2.06.37-2.09.36 1.95.36.11.36-2.26.36 2.21.37-1.94.36 1.95.36-.07.36-.01.36.07.37-2.11.36 1.95.36.14.36-2.26.36 2.13.37-1.94.36 1.95.36.08.36-.03h.36l.37.26.36-.17.36-.11.36-1.94.37 2.15.36-2.11.36 1.91.36.08.36-2.05.37 2.07.36.18.36-.23.36.04.36-2.11.37 2.06.36-1.9.36 2.06.36-.28.36-1.85.37 2.05.36-2.1.36 1.88.36.18.37.18.36-.04.36-1.94.36 1.86.36-.08.37-2.09.36 1.94.36-1.88.36 2.16.36.14.37-.1.36.08.36-.13.36.01.36.04.37-2.34.36 2.23.36-1.99.36 1.91.36.05.37-2.17.36 2 .36.23.36-.03.37.01.36-2.02.36 2.04.36-1.99.36 1.96.37.03.36-2.09.36 1.94.36-2.04.36 1.95.37.32.36-.02h.36l.36-2.14.36 1.94.37.15.36-2.11.36 2.01.36-2.02.37 2.09.36.03.36-.06.36.15.36-.13.37-.03.36-.23.36-1.94.36 2.19.36-2.21.37 2.19.36.11.36-2.16.36 2.17.36-.19.37-.02.36.09.36-2.1.36 2.14.37-2.12.36 1.82.36.27.36-2.02.36 2.03.37-2.07.36 2.03.36.1.36.11.36-.15.37-2.16.36 2.11.36-.05.36-1.78.36 1.98.37-2.1.36 2.03.36.04.36.01.36.07.37-.02.36-.1.36-.18.36-1.86.37 1.93.36-1.85.36 1.87.36.09.36-1.99.37 2 .36-.11.36.14.36.02.36-2.12.37 2.08.36-2.1.36 1.95.36-.06.36-1.93.37 2.01.36-1.89.36 1.82.36.16.37-.01.36.04.36-2.04.36 1.95.36-.01.37-2.09.36 2.16.36-2.02.36 1.99.36.03.37.14.36-.05.36-.01.36-.13.36-.05.37-2.14.36 2.2.36-1.92.36 2.04.36-.1.37-2.21.36 2.22.36-.07.36.16.37-.01.36-2.09.36 2.18.36-2.02.36 1.81.37.04.36-1.95.36 1.96.36-2.03.36 1.86.37.05.36.14.36-.05.36-2.01.36 2 .37-.03.36-1.99.36 2.11.36-2.18.37 2 .36-.07.36.15.36.11h.36l.37-.04.36.06.36-2.06.36 1.97.36-2.11.37 2.08.36-.05.36-1.98.36 1.93h.36l.37.12h.36l.36-2.23.36 2.15.36-1.99.37 1.99.36.03.36-1.85.36 2.04.37-2.05.36 1.8.36.04h.36l.36.17.37-2.15.36 1.91h.36l.36-1.88.36 2.06.37-2.13.36 2.12h.36l.36.09.36-.03.37.06.36.12.36-.19.36-2.1.37 2.03.36-2.02.36 2.06.36-.05.36-1.99.37 1.93.36-.04.36.08.36-.01.36-1.96.37 2.14.36-2.03.36 1.99.36-.11.36-2.18.37 2.11.36-2.05.36 1.94.36.07.37-.02.36.01.36-2 .36 2.12.36.06.37-2.01.36 2.08.36-2.18.36 1.97.36.2.37-.16.36.18.36-.13.36-.15.36.12.37-2.08.36 2.27.36-2.28.36 2.1h.36l.37-2.22.36 2.15.36.13.36-.21.37.15.36-2.03.36 2.08.36-2.11.36 1.89.37.16.36-2.03.36 1.98.36-2.01.36 1.94h.37l.36.02.36.05.36-2.08.36 2.07.37-.11.36-2.11.36 2.16.36-1.86.37 2.09.36-.14h.36l.36-.04.36.19.37.04.36-.17.36-2.12.36 2.11.36-2.11.37 2.12.36-2.18.36 2.06.36.09h.36l.37.1.36-.03.36-2.03.36 2.07.36-2.18.37 2.08.36-1.93.36 1.99.36.1.37-2.03.36 2.06.36-.1.36.09.36-.22.37-1.91.36 1.8.36-1.78.36 2.1.36-.02.37-2.13.36 2.15.36-.12.36-.21.36.14.37.25.36-.17.36.1.36-2.19.37 2.1.36-2.15.36 2.17.36-1.96.36 1.85.37.05.36.08.36-.07.36.03.36-2.09.37 1.96.36-1.95.36 2.05.36-1.91.36 1.8.37-.07.36-2.08.36 2.17.36.11.36.08.37.04.36-2.07.36 1.85.36-2.07.37 1.93.36.05.36-1.97.36 2.18.36.02.37.05.36-.07.36-.08.36.09.36-2.11.37 1.98.36.16.36-2.1.36 2.12.36-2.02.37 1.9.36.07.36-.03.36-.15.37-1.97.36 1.94.36.12.36-1.98.36 2.06.37-2.06.36 1.93.36-.02.36-2.02.36 2.04.37-.08.36.14.36.01.36-2 .36 1.95.37-2.05.36 2.09.36.05.36-2.02.37 1.9.36.12.36.05.36.14.36-.03.37.13.36-2.26.36 2.05.36.08.36-2.07.37 2 .36-2 .36 1.9.36.14.36-.1.37.04.36-1.97.36 1.76.36-.02.36-1.85.37 2.02.36-1.88.36 1.86.36.17.37-2.14.36 2.04.36-.04.36-.04.36.03.37-1.89.36 1.79.36-1.89.36 1.93.36.07.37-2.06.36 1.97.36.03.36.05.36-.03.37.06.36.03.36-2.09.36 2.02.37.06.36-2.18.36 2.08.36-2.07.36 1.92.37.11.36.21.36.1.36-2.01.36 1.84.37-.14.36-1.96.36 2.03.36-2.03.36 2.03.37-.1.36-1.98.36 1.94.36.08.36-.02.37.19.36-2.26.36 2.34.36-2.11.37 1.96.36.12.36-2.1.36 1.84.36-.06.37.23.36-.15.36.02.36.04.36-2.1.37 2.04.36.16.36-2.17.36 1.94.36-1.96.37 2.08.36.05.36.07.36-.2.37-1.94.36 1.94.36.12.36-2.08.36 2.01.37-1.99.36 2.06.36-.21.36-1.85.36 1.93.37.06.36.06.36.01.36-1.97.36 1.86.37-1.86.36 2.03.36-.04.36-2.16.36 2.13.37-.09h.36l.36.09.36.11.37.02.36-2.27.36 1.87.36.12.36-1.82.37 1.98.36-2.14.36 1.78.36.27.36.02.37.01.36-1.89.36 2.02.36-.12.36-2.06.37 2.24.36-2.11.36 2 .36-.07.37-1.95.36 2.09.36-.12.36.2.36-.14.37-2.19.36 2.03.36-1.9.36 2.01.36-.14.37-2.03.36 2.08.36.06.36-.02.36-.01.37.05.36.13.36-2.01.36 1.92.37-.15.36-1.97.36 1.98.36-2.01.36 2.07.37.02.36.03.36-.08.36-2.05.36 1.97.37.26.36-2.23.36 2.15.36-2.17.36 2.03.37.08.36-2.12.36 2.1.36-.09.36.13.37.04.36-2.19.36 1.76.36-1.74.37 2.17.36-.01.36-2.15.36 2.22.36-.07.37.04.36-.05.36.03"/><use xlink:href="#4805d__f" color="#29C3F6" transform="matrix(3.75 0 0 3.75 182.98 149.17)"/><use xlink:href="#4805d__f" color="#29C3F6" transform="matrix(3.75 0 0 3.75 220.55 7.51)"/></g><text stroke-linecap="round" stroke-linejoin="round" stroke-width=".5" color="#000" font-family="KaTeX_Main" font-size="8" transform="translate(241.1 25.11)"><tspan>AVLBottomUp</tspan></text><g fill="none" stroke="currentColor" stroke-linecap="round" stroke-linejoin="round" stroke-width=".5" color="#000"><path stroke="#000" d="M205.6 22.51h29.9M28 154.8l.36-2.1.36 2.05.37-.01.36-2.01.36 2.04.36-2.19.36.07.37 1.99.36-1.91.36 1.88.36-2.04.37-.05.36.05.36 1.97.36-.07.36-1.98.37-.1.36.02.36 2.1.36-.18.36.04.37-2.15.36.05.36.04.36 1.9.36.07.37-2.14.36-.02.36-.15.36 1.97.36-1.95.37 2.15.36-2.13.36.01.36 1.89.37-2.09.36 2.07.36-.11.36-2.05.36 2.02.37-2.11.36-.03.36 2.04.36-2.06.36 2 .37-1.98.36-.01.36-.05.36 2.02.36-.04.37-4.74.36 2.78.36-2 .36 2.19.37.03.36-1.96.36 2.07.36.12.36.03.37.06.36.02.36-.05.36-2.02.36 1.99.37.03.36-2.16.36 2.04.36-2.11.36 2.13.37-.06.36-.01.36-.03.36-2.09.37 2.06.36.11.36-2.14.36 2.06.36-2.07.37 2.07.36-.04.36-2.16.36 2.15.36.07.37-.09.36.08.36-2.19.36 2.19.36-2.11.37 1.95.36.13.36-2.06.36 2 .36.15.37-.06.36-.02.36-.05h.36l.37-1.95.36 2.04.36-.12.36-2.01.36 2.07.37-2.11.36 1.98.36.19.36-.08.36-.08.37-2 .36 1.97.36-.02.36-1.96.36 2.12.37-2.06.36 1.98.36.05.36-2.09.37 2.02.36.1.36-.05.36.06.36-2.1.37 1.98.36-1.89.36 1.92.36-.01.36-1.95.37 2.11.36-.05.36.07.36-.1.36-.06.37.12.36-2.08.36 1.92.36.13.36-2.03.37 1.87.36-1.97.36 2.11.36-.03.37.09.36-.03.36-2.03.36 2.05.36-.08.37-1.88.36 1.83.36-2 .36 2.13.36-.06.37-1.99.36 1.85.36.05.36.12.36-.12.37-1.99.36 1.95.36-1.89.36 2.03.37-.02.36-2.05.36 2.14.36-.04h.36l.37-.09.36-.05.36.13.36-2.07.36 1.94.37.05.36-2.13.36 2.03.36-1.99.36 2.14.37-.1.36.12.36-.11.36-1.86.36 1.96.37-.09.36-2.13.36 2.12.36-2.03.37 2.12.36.02.36-2.19.36 2.18.36-.12.37.04.36.02.36-2.16.36 2.07.36-1.86.37 1.88.36.08.36-2.03.36 2.09.36-.06.37.11.36-.01.36-.18.36.03.37-2.05.36 2 .36-.01.36-1.99.36 2.02.37-2.01.36 2.05.36-.07.36.09.36.01.37-2.11.36 1.96.36.09.36-2.14.36 2.08.37-2.02.36 2.01.36.04.36-2.11.37 2.1.36.12.36.05.36-.15.36-2.15.37 2.22.36-2.08.36 2.05.36-.1.36-1.97.37 2.07.36.01.36.01.36.08.36-.03.37-.05.36-2.02.36 2.1.36.01.36-2.09.37 2.01.36-1.96.36 2.01.36-.14.37.12.36-.06.36-2 .36 2.01.36.14.37-2.16.36 1.99.36-1.98.36 2.06.36-1.96.37 1.76.36.11.36-.1.36.16.36-.11.37-2.04.36 2 .36-1.85.36 1.96.37-1.9.36 1.94.36.08.36-.15.36.1.37.09.36-.01.36-.09.36-2.13.36 2 .37-1.94.36 1.99.36.12.36-2.12.36 2.06.37.06.36-.07.36.03.36-2.16.36 1.68.37-1.58.36 1.95h.36l.36-2.08.37 2.12.36-2.03.36 1.86.36.2.36-.02.37-.02.36-1.96.36 1.97.36-.05.36-2.03.37 2.05.36-2.01.36 1.97.36-.06.36.12.37.02.36-.02.36.03.36.05.37-2.04.36 2.02.36-2.01.36 1.83.36.11.37-1.99.36 2.05.36.09.36-.07.36.07.37-2.02.36 1.93.36-2.04.36 2 .36-.09.37-1.98.36 2.01.36-1.97.36 2.01.36-.02.37.06.36-.01.36-1.99.36 1.99.37-.05.36-1.97.36 2.13.36-2.02.36 1.91.37.07h.36l.36.17.36-.06.36-.05.37-.03.36-2.06.36 2.07.36-2.08.36 1.97.37.04.36-1.97.36 1.87.36.11.37.03.36-.07.36-2.09.36 2.03.36-1.98.37 2.08.36.17.36-2.15.36 2.02.36-2.13.37 2.02.36.14.36-.13.36.02.36-2.01.37 2 .36-.13.36-2.03.36 2.25.37-2.11.36 1.94.36.02.36-.11.36.11.37.07.36-.01h.36l.36-2.04.36 2.02.37-2.11.36 1.92.36.14.36-2.01.36 1.96.37.11.36-.06.36.09.36-2.11.36 2.06.37-1.87.36 1.83.36.05.36-2.08.37 2.07.36-2.1.36 2.09.36.13.36-.04.37-.04.36-1.9.36 1.89.36.01.36-2.04.37 2.09.36-2.09.36 1.96.36-.13.36.17.37.07h.36l.36-.04.36.17.37-2.04.36 1.95.36-1.92.36 1.9.36-.05.37-2.03.36 2.06.36.01.36.07.36.08.37-2.15.36 2.19.36-2.13.36 1.94.36.11.37-2.12.36 1.96.36-1.99.36 1.99.36.04.37-.03.36.07.36-2.02.36 1.97.37-.05.36-1.94.36 2.17.36-2.07.36 1.88.37-.05.36.02.36-.05.36.01.36-.02.37.2.36-2.13.36 2.06.36-2.07.36 2.06.37.02.36-2.03.36 1.97.36.03.37-.02.36.05.36-2.12.36 2.1.36-1.91.37 1.85.36-.01.36-2.12.36 2.19.36-2.18.37 2.04.36.03.36-.01.36.16.36-2.18.37 2.14.36.03.36-2.17.36 2.17.37-2.1.36 1.95.36.18.36-.04.36-.06.37.08.36.02.36-.03.36-2 .36 2.07.37-2.19.36 2.13.36-.07.36-2.21.36 2.31.37-.1.36.15.36-.05.36-2.02.36 2.03.37-1.96.36 1.85.36.02.36-2.06.37 2.05.36-1.94.36 1.97.36.1.36.01.37-.11.36-2.17.36 2.09.36.08.36-2.19.37 2.21.36-2.22.36 2.13.36.01.36.07.37-.11.36.14.36-.05.36.03.37-2.16.36 2.16.36-2.12.36 1.95.36-.02.37-2.08.36 2.28.36-.02.36.06.36-.04.37-2.02.36 2.04.36-2.04.36 1.9.36.01.37-2.05.36 2.12.36-2.13.36 2.12.36-.01.37.06h.36l.36-2.14.36 2.14.37-.02.36-2.06.36 2.15.36-2.01.36 1.9.37-.04.36.08.36.09.36-.05.36-.1.37.03.36-2.04.36 2.05.36-2.04.36 2.01.37-.09.36-1.98.36 2.1.36-.13.37.06.36-.04.36-1.96.36 2.12.36-2.07.37 1.93.36.19.36-2.16.36 2.1.36-2.08.37 2.02.36.05.36.02.36-.01.36-2.14.37 2.15.36-.11.36-2.14.36 2.07.36-1.96.37 2.04.36-.06.36.23.36-.02.37-.12.36-.02.36.02.36-2.16.36 2.1.37-2.13.36 2.07.36.03.36-2.01.36 2.06.37-.09.36.16.36-.06.36-2.04.36 2.03.37-1.96.36 2.06.36-.05.36-2.04.37 2.04.36-2.03.36 2.06.36-.04.36-.07.37.05.36-2.13.36 2.07.36.01.36-2.02.37 2.13.36-2.02.36 1.98.36-.04.36.02.37.09.36-.01.36-.07.36-.03.37-2.09.36 2.02.36-1.97.36 2.13.36-2 .37 1.94.36.01.36.07.36-.07.36.07.37-2.11.36 2.04.36-2.09.36 2.02.36-2.02.37 2.04.36.13.36-2.15.36 2.11.36-.02.37-.03.36-.06.36-1.92.36 1.89.37-1.91.36 1.93.36.02.36-1.98.36 2.02.37-.06.36-.03.36.11.36-.03.36.08.37-2.1.36 1.87.36.05.36-2.03.36 2.15.37-2.06.36 1.86.36.05.36.09.37.05.36-1.93.36 1.78.36.02.36-1.88.37 1.98.36-2.12.36 2.16.36-.07.36-2.13.37 2.11.36-.01.36-.02.36.11.36-2.11.37 2.01.36-1.86.36 1.93.36.15.36-2.24.37 2.04.36.13.36-.02.36.16.37-.05.36-.03.36-2.05.36 1.97.36-.05.37-1.99.36 1.89.36-1.96.36 2.16.36-.01.37.04.36-.03.36-1.99.36 1.77.36.14.37-1.93.36 1.73.36-1.87.36 1.84.37.18.36-2.1.36 2.17.36.01.36.09.37-.12.36-2.03.36 2.02.36-1.95.36 1.92.37-.03.36-2.01.36 2.1.36.11.36-.09.37-.21.36.04.36.14.36-1.96.36 1.98.37-.03.36-2.01.36 1.94.36-1.98.37 1.91.36.09.36.09.36.09.36-2.12.37 1.94.36.06.36-2.09.36 2 .36-2.04.37 2.05.36.08.36-2.02.36 2.07.36.01.37-.05.36-.07.36-1.99.36 2 .37-2.12.36 2.02.36.12.36-2.01.36 2.02.37-.01h.36l.36.01.36-.02.36-.03.37-2.07.36 1.98.36.04.36-1.98.36 2.06.37-1.98.36 1.94.36.07.36.02.37-.04.36-1.99.36 1.91.36.15.36-2 .37 2.14.36-2.09.36 1.95.36.07.36-2.04.37 1.97.36.12.36-.18.36.04.36-2.07.37 2.07.36-2.06.36 1.87.36.07.36-2.03.37 2.11.36.09.36-.09.36.14.37-.09.36.08.36-2.03.36 1.87.36.05.37-1.95.36 1.93.36-1.93.36 1.84.36.08h.37l.36.03.36-2.04.36 2.01.36.05.37-2.07.36 2 .36-2.22.36 2.25h.37l.36-2.08.36 2.06.36-.06.36.1.37.01.36-1.9.36 2.09.36-2.08.36 1.87.37.07.36-2.03.36 2.01.36.04.36-.07.37.04.36-.07.36-.01.36-1.98.36 1.88.37.19.36-2.15.36 2.18.36-2.01.37 1.92.36.06.36-.07.36-.02.36-2.08.37 2.16.36-.07.36-2.11.36 2.1.36-2.02.37 1.97.36.04.36-2.07.36 2.08.36.03h.37l.36-.15.36-1.9.36 1.77.37-1.63.36 1.85.36.01.36-1.98.36 1.97.37.13h.36l.36-.19.36.22.36-.08.37-2.04.36 2.05.36.05.36-2.02.36 1.99.37-1.94.36 1.89.36-.03.36.03.36.03.37-2.07.36 1.96.36.03.36-2.05.37 2.1.36-2.1.36 1.96.36.01.36-1.97.37 1.96.36-.1.36.15.36.05.36-2.05.37 2.02.36-1.95.36 2.04.36-.06.36-2.06.37 2.19.36-.07.36.04.36-.11.37.15h.36l.36-2.11.36 2.13.36-.25.37-2.02.36 1.96.36-1.89.36 1.97.36.09.37.1.36-.14.36-2.07.36 1.99.36.06.37-1.94.36 2.05.36-2.03.36 1.95.37-.13.36-1.95.36 2.04.36-.03.36.14.37-.01.36-2.12.36 2.01.36-2.05.36 2.02.37.13.36-2.06.36 2.02.36-.02.36-.11.37.07.36-.01.36.05.36-2.06.36 2.05.37.07.36-2.17.36 2.1.36-2.02.37 2.11.36-.07.36-.02.36.08.36-1.98.37 1.96.36.03.36-2.15"/><use xlink:href="#4805d__g" transform="matrix(3.75 0 0 3.75 240.55 151.8)"/><use xlink:href="#4805d__g" transform="matrix(3.75 0 0 3.75 220.55 22.51)"/></g><text stroke-linecap="round" stroke-linejoin="round" color="#000" font-family="KaTeX_Main" font-size="8" transform="translate(241.1 40.11)"><tspan>RedBlackBottomUp</tspan></text><g fill="none" stroke="currentColor" stroke-linecap="round" stroke-linejoin="round" color="#000"><path stroke="#F44336" d="M205.6 37.51h29.9M28 142.7l.36 2.07.36-2.18.37 2.24.36-2.21.36.01.36-.04.36 2.05.37.02.36-2.12.36.18.36-.24.37 2.07.36-.02.36-.02.36-2.13h.36l.37.12.36 1.86.36.1.36-2.17.36.05.37-.12.36.15.36 2.06.36.02.36-2.58.37-.05.36-.02.36 2.14.36-.11.36.07.37-2.09.36.05.36 1.93.36-2.04.37 2.07.36-2.09.36-.01.36 2.04.36-2.08.37.06.36 2.03.36-2.19.36 2.07.36-2.1h.37l.36 2.17.36.14.36-.09.36-2.32.37 3.45.36 3.12.36.33.36-1.97.37 2.08.36.12.36.05.36.14.36-2.26.37 2.3.36-2.09.36 2.07.36-.01.36-2.11.37 2.21.36-2.17.36 1.98.36.11.36.12.37-.09.36-2.14.36 2.07.36.07.37-2.25.36 2.2.36-2.19.36 2.04.36.01.37.11.36-.08.36-.06.36.07.36.03.37-2.24.36 2.17.36-2.24.36 2.2.36-.05.37-2.16.36 2.12.36-.03.36.15.36.14.37-2.13.36 2.14.36-2.14.36 2.06.37.09.36-2.23.36 2.04.36-1.96.36 1.93.37.06.36.05.36.03.36-2.24.36 2.06.37.11.36-2.09.36 1.99.36-2.03.36 1.96.37.06.36.06.36-.01.36.07.37-.09h.36l.36-2.16.36 2.11.36-2.11.37 2.11.36-.01.36-2.1.36 2.07.36.15.37.08.36-.07.36-2.23.36 2.01.36-2.03.37 2.13.36.05.36-2.13.36 2.16.36-2.1.37 1.84.36.11.36.13.36-.03.37-2.01.36 2.05.36-.02.36-2.17.36 2.22.37-2.01.36 1.96.36.11.36.02.36-.06.37.08h.36l.36.18.36-2.19.36 1.96.37-1.97.36 1.97.36.08.36-2.12.37 1.73.36.34.36-.02.36-.06.36-2.23.37 2.15.36-1.99.36 2 .36.03.36-2.09.37 2.1.36-2.06.36 1.99.36.07.36.11.37.01.36-2.01.36 1.89.36.14.36-2.12.37 2.01.36-2.14.36 2.09.36.06.37-.06.36.07.36-.09.36.15.36-.1.37-2.17.36 1.97.36-2.02.36 2.01.36.25.37-2.23.36 2.13.36.06h.36l.36-.01.37-1.98.36 1.99.36-2.16.36 2.07.37-.01.36-2.08.36 2.14.36-2.03.36 1.99.37.02.36.01.36.04.36-2.09.36 2.12.37-.05.36-2.15.36 2.06.36-1.85.36 1.93.37.02.36-.07.36.11.36.02.37-.05.36.14.36-2.21.36 2.05.36-2.1.37 2.1.36-.07.36-1.95.36 1.96.36.11.37-.03.36.03.36-2.12.36 2.07.36-2.09.37 1.96.36.01.36-2.15.36 2.11.36-1.97.37 2.06.36.02.36.03.36-.17.37-1.9.36 1.9.36.12.36-2.09.36 2.09.37-2.02.36 2.01.36.05.36.2.36-.08.37-.04.36.02.36.01.36-2.12.36 2.06.37-2.11.36 2.03.36.05.36-2.14.37 2.21.36-.01.36.02.36-.1.36-2.13.37 2.15.36-2.28.36 2.16.36.04.36-2.25.37 2.3.36-2.05.36 2.05h.36l.36.04.37-.06.36-2.11.36 2.08.36.04.36-2.09.37 2.1.36-1.98.36 1.96.36.05.37-.01h.36l.36.04.36.03.36-.02.37-2.16.36 2.12.36-2.1.36 2 .36-1.99.37 1.95.36.11.36-.03.36.01.36.04.37-2.21.36 2.15.36-1.99.36 2.04.37-.03.36-2.11.36 2.12.36-2.12.36 2.06h.73l.36.03.36-2.05.36 2 .37.12.36-2.2.36 2.02.36-2.02.36 2 .37.24.36-.09.36.08.36.08.36-.05.37.11.36-2.18.36 2.02.36-2.02.37 2.02.36-2.03.36 2.13.36-.03.36-.01.37.09h.36l.36-2.08.36 2.01.36-2.12.37 2.07.36-1.93.36 1.81.36.18.36-2.08.37 2.07.36-.06.36-.11.36.13.37-2.16.36 2 .36-2.03.36 2.08.36.1.37-2.19.36 2.21.36-.03.36-.12.36.01.37.01.36.03.36-2.14.36 1.98.36.18.37-2.07.36 1.99.36-2.12.36 2.1.37-.01.36-.02.36.12.36-2.18.36 2.02.37.16.36-2.13.36 2.08.36-2.09.36 2 .37.11.36-2.19.36 2.15.36-.1.36.1.37.06.36-2.14.36 2.18.36-2.01.36 1.9.37.07.36-2.12.36 2 .36.05.37.11.36-.08.36.11.36.04.36-2.11.37 1.9.36.13.36-2.18.36 2.05.36-1.95.37 2.06.36.03h.36l.36-.12.36-1.85.37 1.93.36.01.36-2.07.36 2.06.37-1.91.36 1.88.36.14.36-2.1.36 1.99.37.13.36.01.36-.06.36-2.03.36 2.09.37-2.24.36 2.06.36.09.36-2.05.36 2.05h.37l.36-.02h.36l.36.02.36-.07.37-2 .36 1.92.36.07.36-2.04.37 2.12.36-2.13.36 2.15.36.04.36-.07.37-.03.36-2.04.36 1.99.36.02.36-2.13.37 2.09.36-2.03.36 2.03.36.02.36-2.09.37 2.11.36.02h.36l.36.02.37-2.06.36 2.01.36-2.12.36 2.04.36.15.37-2.08.36 2.12.36-.11.36-.01.36.02.37.09h.36l.36-2.1.36 2.05.36-.04.37-1.93.36 1.95.36-2.06.36 2.12.37-.06.36.04.36.07.36-2.12.36 1.96.37-.01.36-2.07.36 2.1.36-2.04.36 2.01.37-.07.36-1.96.36 1.96.36.14.36-.01.37-.06.36-2.08.36 2.06.36-2.03.36 2.03.37.07.36-2.13.36 2.09h.36l.37.02.36.06.36-.07.36.05.36-2.01.37 2.03.36-.1.36-1.96.36 2.08.36-2.06.37 1.93.36-.03.36.04.36.09.36-2.08.37 1.94.36.15.36-2.03.36 2.04.37-2.11.36 2.07.36.06.36-2.07.36 2.08.37-.04.36.07.36.06.36-2.06.36 2.09.37-2.04.36 1.97.36-.11.36-2.17.36 2.1.37-.11.36.12.36.01.36.09.36-.07.37-1.9.36 1.98h.36l.36-2.07.37 2.03.36-1.93.36 1.96.36.07.36-.13.37.04.36-2.01.36 2.03.36.02.36-2.06.37 2.05.36-2.02.36 2.03.36-.03.36-2.05.37 2.06.36-.04.36.13.36-.1.37-2.14.36 1.98.36-2.03.36 2.07.36.15.37-2.2.36 2.03.36-.02.36.13.36-.04.37-.05.36.05.36-2.08.36 2.18.36-.02.37-2 .36 1.94.36-2.17.36 2.04.36.1.37.09.36-.07.36-1.96.36 1.98.37.08.36-2.11.36 2.13.36-2.16.36 2.09.37-.06.36-2.08.36 2.09.36.11h.36l.37.01.36-2.14.36 1.99.36-1.94.36 1.93.37.05.36-2.02.36 2.01.36.12.37-.02.36-.11.36.03.36.06.36-2.05.37 2.04.36.01.36-2.24.36 2.15.36-2.12.37 2.11.36.03.36-.05.36.07.36-2.06.37 2.12.36-.13.36-2.13.36 2.13.37-2.1.36 2.06.36.1.36-2.14.36 2.19.37.02.36.01.36-.06.36-2.09.36 2.15.37-2.06.36 2.13.36-.11.36-2.04.36 1.98.37.11.36.06.36-.06.36.11.36-.09.37-2.09.36 1.85.36.28.36-2.16.37 2.14.36-2.05.36 1.95.36-.02.36-.08.37.2.36-2.18.36 2.13.36.03.36-2.09.37 2.11.36-2.21.36 1.99.36-1.97.36 1.98.37.1.36.01.36.05.36.1.37-2.15.36 2.02.36-2.04.36 2.05.36-1.91.37 1.75.36.04.36.16.36-.03.36.07.37-.11.36-.01.36-2.02.36 2.12.36-.1.37-2 .36 2.08.36-2.05.36 2h.36l.37-.09.36.1.36-2.19.36 2.18.37.05.36-2.1.36 2.06.36-2.1.36 1.93.37-1.95.36 1.92h.36l.36.02.36.19.37-.12.36-2.06.36 2.03.36-2.03.36 1.97.37-1.92.36 1.87.36.15.36-.08.37.14.36.02.36-.02.36.06.36-2.08.37 2.01.36-2 .36 1.91.36.13.36-2.14.37 2.04.36-.04.36.19.36-.1.36-2.04.37 1.98.36-1.97.36 1.95.36.19.36-2.11.37 1.97.36-2 .36 1.97.36.08.37-.12.36.04.36-1.98.36 1.95.36.15.37-2 .36 1.91.36-1.94.36 1.91.36.06.37.05.36.03.36-.03.36-.06.36-.02.37-1.95.36 2.1.36-2.05.36 1.98.37-.02.36-2.1.36 2.05.36.06.36.04.37-.06.36-1.97.36 2.1.36-2.09.36 1.92.37-.07.36-2.07.36 2.14.36-2.02.36 2.05.37.05.36-.01.36-.05.36-1.9.37 1.82.36.13.36-2.06.36 2.13.36-2.02.37 2.01.36-.1.36.03.36-.04.36.14.37.02.36.07.36-2.3.36 2.11.36-2.1.37 2.02.36.07.36-2.12.36 2.03.36.03h.37l.36.08.36-2.12.36 2.09.37-2.1.36 2.11.36-.07.36-2.07.36 2.14.37-1.99.36 2.03.36.13.36-.16.36.1.37-2.14.36 2.05.36-.06.36-2.03.36 2.05.37-2.03.36 2.01.36-.11.36.09.37.1.36-.07.36-.01.36-.05.36-2.06.37 2.16.36-2.07.36 2.05.36-.01.36-2.16.37 2.03.36.09.36-.03.36.02.36-2.06.37 2.06.36-2.03.36 1.91.36.13.36-2 .37 2.12.36-2.15.36 2.02.36.07.37.01.36.02.36-2.09.36 2 .36.02.37-1.93.36 1.98.36-1.99.36 2.03.36-.03.37.01.36.02.36-.01.36.02.36-.1.37-2.01.36 2.07.36-1.98.36 1.94.37.11.36-2.16.36 1.92.36.19.36-.05.37.06.36-2.15.36 1.9.36-1.91.36 2.07.37-.1.36-1.98.36 2.03.36-2.04.36 2.01.37.24.36-.19.36.01.36-1.83.36 1.94.37.03.36-2.13.36 1.97.36-1.99.37 1.93.36.06.36.09.36-.05.36.16.37-.09.36-.1.36-2.17.36 2.17.36-2.03.37 2 .36.06.36-2.02.36 1.99.36.09.37.06.36-.11.36-2.04.36 2 .37-1.86.36 1.93.36.02.36-2.08.36 2.08.37-2.13.36 2.03.36.12.36.02.36-.05.37-2.06.36 1.98.36-.02.36-1.89.36 1.98.37-2.09.36 2.04.36.12.36-.01.37-.12.36.04.36.13.36-.06.36-2 .37 1.99.36-2.05.36 1.98.36.09.36-2.03.37 2.03.36.03.36-.07.36.04.36-2.12.37 2.11.36-2.05.36 2.02.36-.02.36-2.11.37 2.15.36-2.14.36 2.11.36.11h.37l.36-.05.36-2.12.36 2.04.36-.04.37-1.91.36 2.05.36-2.22"/><use xlink:href="#4805d__a" color="#F44336" transform="matrix(3.75 0 0 3.75 298.12 148.5)"/><use xlink:href="#4805d__a" color="#F44336" transform="matrix(3.75 0 0 3.75 220.55 37.51)"/></g><path fill="none" d="M28 60.01V162.5M371.99 60.01H28" color="#000"/></svg>