<svg xmlns="http://www.w3.org/2000/svg" xmlns:xlink="http://www.w3.org/1999/xlink" viewBox="0 0 400 200"><path fill="none" d="M0 0h400v200H0z"/><defs><path id="f38a3__c" fill="currentColor" stroke="currentColor" stroke-width=".267" d="M-1-1h2v2h-2z"/><path id="f38a3__a" stroke="currentColor" stroke-width=".267" d="m0-1.33-1.33 2h2.66z"/><path id="f38a3__e" stroke="currentColor" stroke-width=".267" d="M0 1.33 1.265.411.782-1.067l-1.564-.009-.483 1.487z"/><use xlink:href="#f38a3__a" id="f38a3__g" fill="currentColor" stroke="none"/><use xlink:href="#f38a3__a" id="f38a3__b" stroke="currentColor" transform="rotate(180)"/><use xlink:href="#f38a3__b" id="f38a3__f" fill="currentColor" stroke="none"/><circle id="f38a3__d" cx="0" cy="0" r="1" stroke="currentColor" stroke-width=".267"/></defs><path fill="none" stroke="#CCC" stroke-linecap="round" stroke-linejoin="round" stroke-width=".1" d="M62.4 162.5V60.01" class="f38a3__gridline" color="#000"/><g fill="none" stroke-linecap="round" stroke-linejoin="round" stroke-width="0" color="#000"><path d="M62.4 162.5V155m0-94.99v7.5"/><text fill="#000" font-family="KaTeX_Main" font-size="8" text-anchor="middle" transform="translate(62.4 172.6)"><tspan> 1</tspan></text></g><path fill="none" stroke="#CCC" stroke-linecap="round" stroke-linejoin="round" stroke-width=".1" d="M96.8 162.5V60.01" class="f38a3__gridline" color="#000"/><g fill="none" stroke-linecap="round" stroke-linejoin="round" stroke-width="0" color="#000"><path d="M96.8 162.5V155m0-94.99v7.5"/><text fill="#000" font-family="KaTeX_Main" font-size="8" text-anchor="middle" transform="translate(96.8 172.6)"><tspan> 2</tspan></text></g><path fill="none" stroke="#CCC" stroke-linecap="round" stroke-linejoin="round" stroke-width=".1" d="M131.2 162.5V60.01" class="f38a3__gridline" color="#000"/><g fill="none" stroke-linecap="round" stroke-linejoin="round" stroke-width="0" color="#000"><path d="M131.2 162.5V155m0-94.99v7.5"/><text fill="#000" font-family="KaTeX_Main" font-size="8" text-anchor="middle" transform="translate(131.2 172.6)"><tspan> 3</tspan></text></g><path fill="none" stroke="#CCC" stroke-linecap="round" stroke-linejoin="round" stroke-width=".1" d="M165.6 162.5V60.01" class="f38a3__gridline" color="#000"/><g fill="none" stroke-linecap="round" stroke-linejoin="round" stroke-width="0" color="#000"><path d="M165.6 162.5V155m0-94.99v7.5"/><text fill="#000" font-family="KaTeX_Main" font-size="8" text-anchor="middle" transform="translate(165.6 172.6)"><tspan> 4</tspan></text></g><path fill="none" stroke="#CCC" stroke-linecap="round" stroke-linejoin="round" stroke-width=".1" d="M200 162.5V60.01" class="f38a3__gridline" color="#000"/><g fill="none" stroke-linecap="round" stroke-linejoin="round" stroke-width="0" color="#000"><path d="M200 162.5V155m0-94.99v7.5"/><text fill="#000" font-family="KaTeX_Main" font-size="8" text-anchor="middle" transform="translate(200 172.6)"><tspan> 5</tspan></text></g><path fill="none" stroke="#CCC" stroke-linecap="round" stroke-linejoin="round" stroke-width=".1" d="M234.39 162.5V60.01" class="f38a3__gridline" color="#000"/><g fill="none" stroke-linecap="round" stroke-linejoin="round" stroke-width="0" color="#000"><path d="M234.39 162.5V155m0-94.99v7.5"/><text fill="#000" font-family="KaTeX_Main" font-size="8" text-anchor="middle" transform="translate(234.39 172.6)"><tspan> 6</tspan></text></g><path fill="none" stroke="#CCC" stroke-linecap="round" stroke-linejoin="round" stroke-width=".1" d="M268.79 162.5V60.01" class="f38a3__gridline" color="#000"/><g fill="none" stroke-linecap="round" stroke-linejoin="round" stroke-width="0" color="#000"><path d="M268.79 162.5V155m0-94.99v7.5"/><text fill="#000" font-family="KaTeX_Main" font-size="8" text-anchor="middle" transform="translate(268.79 172.6)"><tspan> 7</tspan></text></g><path fill="none" stroke="#CCC" stroke-linecap="round" stroke-linejoin="round" stroke-width=".1" d="M303.19 162.5V60.01" class="f38a3__gridline" color="#000"/><g fill="none" stroke-linecap="round" stroke-linejoin="round" stroke-width="0" color="#000"><path d="M303.19 162.5V155m0-94.99v7.5"/><text fill="#000" font-family="KaTeX_Main" font-size="8" text-anchor="middle" transform="translate(303.19 172.6)"><tspan> 8</tspan></text></g><path fill="none" stroke="#CCC" stroke-linecap="round" stroke-linejoin="round" stroke-width=".1" d="M337.59 162.5V60.01" class="f38a3__gridline" color="#000"/><g fill="none" stroke-linecap="round" stroke-linejoin="round" stroke-width="0" color="#000"><path d="M337.59 162.5V155m0-94.99v7.5"/><text fill="#000" font-family="KaTeX_Main" font-size="8" text-anchor="middle" transform="translate(337.59 172.6)"><tspan> 9</tspan></text></g><path fill="none" stroke="#CCC" stroke-linecap="round" stroke-linejoin="round" stroke-width=".1" d="M371.99 162.5V60.01" class="f38a3__gridline" color="#000"/><g fill="none" stroke-linecap="round" stroke-linejoin="round" stroke-width="0" color="#000"><path d="M371.99 162.5V155m0-94.99v7.5"/><text fill="#000" font-family="KaTeX_Main" font-size="8" text-anchor="middle" transform="translate(371.99 172.6)"><tspan> 10</tspan></text></g><g fill="none" stroke-linecap="round" stroke-linejoin="round" stroke-width="0" color="#000"><path d="M371.99 162.5h-7.5"/><text fill="#000" font-family="KaTeX_Main" font-size="8" transform="translate(378.99 165.1)"><tspan>0.00</tspan></text></g><g fill="none" stroke-linecap="round" stroke-linejoin="round" stroke-width="0" color="#000"><path d="M371.99 151.11h-7.5"/><text fill="#000" font-family="KaTeX_Main" font-size="8" transform="translate(378.99 153.71)"><tspan>1.00</tspan></text></g><g fill="none" stroke-linecap="round" stroke-linejoin="round" stroke-width="0" color="#000"><path d="M371.99 139.72h-7.5"/><text fill="#000" font-family="KaTeX_Main" font-size="8" transform="translate(378.99 142.32)"><tspan>2.00</tspan></text></g><g fill="none" stroke-linecap="round" stroke-linejoin="round" stroke-width="0" color="#000"><path d="M371.99 128.34h-7.5"/><text fill="#000" font-family="KaTeX_Main" font-size="8" transform="translate(378.99 130.94)"><tspan>3.00</tspan></text></g><g fill="none" stroke-linecap="round" stroke-linejoin="round" stroke-width="0" color="#000"><path d="M371.99 116.95h-7.5"/><text fill="#000" font-family="KaTeX_Main" font-size="8" transform="translate(378.99 119.55)"><tspan>4.00</tspan></text></g><g fill="none" stroke-linecap="round" stroke-linejoin="round" stroke-width="0" color="#000"><path d="M371.99 105.56h-7.5"/><text fill="#000" font-family="KaTeX_Main" font-size="8" transform="translate(378.99 108.16)"><tspan>5.00</tspan></text></g><g fill="none" stroke-linecap="round" stroke-linejoin="round" stroke-width="0" color="#000"><path d="M371.99 94.17h-7.5"/><text fill="#000" font-family="KaTeX_Main" font-size="8" transform="translate(378.99 96.77)"><tspan>6.00</tspan></text></g><g fill="none" stroke-linecap="round" stroke-linejoin="round" stroke-width="0" color="#000"><path d="M371.99 82.79h-7.5"/><text fill="#000" font-family="KaTeX_Main" font-size="8" transform="translate(378.99 85.39)"><tspan>7.00</tspan></text></g><g fill="none" stroke-linecap="round" stroke-linejoin="round" stroke-width="0" color="#000"><path d="M371.99 71.4h-7.5"/><text fill="#000" font-family="KaTeX_Main" font-size="8" transform="translate(378.99 74)"><tspan>8.00</tspan></text></g><g fill="none" stroke-linecap="round" stroke-linejoin="round" stroke-width="0" color="#000"><path d="M371.99 60.01h-7.5"/><text fill="#000" font-family="KaTeX_Main" font-size="8" transform="translate(378.99 62.61)"><tspan>9.00</tspan></text></g><path fill="none" d="M28 60.01V162.5M371.99 60.01H28" color="#000"/><text stroke-linecap="round" stroke-linejoin="round" stroke-width="0" color="#000" font-family="KaTeX_Main" font-size="10" text-anchor="middle" transform="rotate(-90 61.38 49.88)"><tspan font-weight="bold">Total Duration </tspan><tspan> in seconds</tspan></text><text stroke-linecap="round" stroke-linejoin="round" stroke-width="0" color="#000" font-family="KaTeX_Main" font-size="10" text-anchor="middle" transform="translate(199.99 195.75)"><tspan>Operations / 10</tspan><tspan dy="-5" font-size="8">6</tspan></text><text stroke-linecap="round" stroke-linejoin="round" color="#000" font-family="KaTeX_Main" font-size="8" transform="translate(110.4 10.11)"><tspan>Conc</tspan></text><g fill="none" stroke="currentColor" stroke-linecap="round" stroke-linejoin="round" color="#000"><path stroke="#D336C8" stroke-dasharray="1.0,2.0" d="M74.9 7.51h29.9M28.34 162.43l.35-.07.34-.08.35-.08.34-.08.34-.09.35-.09.34-.08.35-.09.34-.09.34-.09.35-.09.34-.08.35-.09.34-.09.34-.1.35-.09.34-.09.35-.09.34-.1.34-.09.35-.09.34-.09.35-.1.34-.09.34-.1.35-.09.34-.1.35-.09.34-.1.34-.09.35-.1.34-.1.35-.1.34-.1.34-.09.35-.1.34-.1.35-.09.34-.1.34-.1.35-.1.34-.1.35-.1.34-.1.34-.1.35-.1.34-.1.35-.09.34-.11.34-.09.35-.11.34-.1.35-.1.34-.1.34-.1.35-.11.34-.09.35-.11.34-.1.34-.09.35-.11.34-.1.35-.11.34-.1.34-.1.35-.1.34-.1.35-.11.34-.09.34-.11.35-.1.34-.1.35-.11.34-.09.34-.11.35-.1.34-.1.35-.1.34-.1.34-.11.35-.1.34-.11.35-.1.34-.1.34-.11.35-.1.34-.11.35-.1.34-.11.34-.1.35-.11.34-.1.35-.11.34-.1.34-.11.35-.1.34-.11.35-.11.34-.1.34-.1.35-.1.34-.1.34-.1.35-.1.34-.1.35-.09.34-.1.34-.11.35-.09.34-.1.35-.1.34-.1.34-.1.35-.1.34-.09.35-.1.34-.11.34-.09.35-.1.34-.1.35-.1.34-.1.34-.1.35-.1.34-.09.35-.11.34-.1.34-.09.35-.1.34-.11.35-.1.34-.09.34-.1.35-.1.34-.1.35-.1.34-.1.34-.1.35-.1.34-.1.35-.09.34-.1.34-.11.35-.1.34-.09.35-.1.34-.11.34-.09.35-.1.34-.1.35-.1.34-.1.34-.1.35-.1.34-.1.35-.1.34-.09.34-.11.35-.09.34-.1.35-.1.34-.1.34-.1.35-.1.34-.1.35-.1.34-.1.34-.1.35-.1.34-.1.35-.1.34-.1.34-.1.35-.1.34-.09.35-.1.34-.1.34-.1.35-.1.34-.1.35-.1.34-.1.34-.1.35-.1.34-.1.35-.1.34-.1.34-.1.35-.1.34-.1.35-.1.34-.1.34-.1.35-.1.34-.1.35-.09.34-.1.34-.1.35-.1.34-.1.35-.1.34-.1.34-.1.35-.1.34-.1.35-.1.34-.1.34-.1.35-.1.34-.09.35-.1.34-.1.34-.1.35-.1.34-.1.35-.1.34-.1.34-.1.35-.1.34-.1.35-.1.34-.1.34-.1.35-.09.34-.11.35-.1.34-.1.34-.1.35-.1.34-.1.35-.1.34-.09.34-.1.35-.11.34-.09.35-.1.34-.1.34-.1.35-.1.34-.1.35-.1.34-.1.34-.1.35-.1.34-.1.35-.1.34-.1.34-.09.35-.1.34-.1.35-.11.34-.09.34-.1.35-.1.34-.1.35-.1.34-.1.34-.1.35-.1.34-.1.35-.09.34-.11.34-.1.35-.1.34-.09.35-.1.34-.11.34-.1.35-.09.34-.1.35-.11.34-.1.34-.09.35-.11.34-.1.35-.09.34-.1.34-.1.35-.11.34-.09.35-.1.34-.1.34-.11.35-.09.34-.1.35-.1.34-.11.34-.09.35-.1.34-.1.35-.1.34-.1.34-.1.35-.1.34-.1.35-.1.34-.1.34-.1.35-.1.34-.1.34-.1.35-.1.34-.1.35-.1.34-.1.34-.1.35-.1.34-.1.35-.11.34-.09.34-.1.35-.1.34-.1.35-.1.34-.1.34-.1.35-.1.34-.1.35-.1.34-.1.34-.1.35-.1.34-.1.35-.1.34-.1.34-.09.35-.11.34-.1.35-.1.34-.09.34-.1.35-.11.34-.09.35-.1.34-.1.34-.11.35-.1.34-.09.35-.11.34-.1.34-.1.35-.09.34-.11.35-.1.34-.1.34-.1.35-.1.34-.1.35-.1.34-.1.34-.1.35-.1.34-.1.35-.1.34-.1.34-.1.35-.11.34-.09.35-.1.34-.11.34-.1.35-.1.34-.1.35-.1.34-.1.34-.1.35-.1.34-.1.35-.1.34-.1.34-.1.35-.1.34-.1.35-.1.34-.1.34-.1.35-.1.34-.1.35-.11.34-.09.34-.1.35-.1.34-.11.35-.09.34-.1.34-.1.35-.1.34-.1.35-.1.34-.1.34-.1.35-.1.34-.1.35-.1.34-.1.34-.1.35-.1.34-.1.35-.1.34-.1.34-.1.35-.1.34-.1.35-.1.34-.09.34-.1.35-.1.34-.11.35-.09.34-.1.34-.1.35-.1.34-.1.35-.1.34-.09.34-.11.35-.1.34-.1.35-.09.34-.11.34-.1.35-.1.34-.09.35-.11.34-.1.34-.1.35-.1.34-.1.35-.1.34-.1.34-.1.35-.1.34-.1.35-.1.34-.1.34-.1.35-.1.34-.1.35-.11.34-.1.34-.1.35-.1.34-.1.35-.1.34-.1.34-.1.35-.1.34-.1.35-.1.34-.1.34-.1.35-.1.34-.1.35-.1.34-.1.34-.1.35-.11.34-.09.35-.1.34-.1.34-.11.35-.09.34-.1.35-.1.34-.11.34-.09.35-.1.34-.1.35-.11.34-.09.34-.1.35-.1.34-.1.35-.1.34-.1.34-.1.35-.1.34-.1.35-.1.34-.1.34-.1.35-.1.34-.1.35-.1.34-.1.34-.1.35-.1.34-.1.35-.1.34-.1.34-.09.35-.11.34-.1.35-.1.34-.1.34-.1.35-.09.34-.1.35-.11.34-.09.34-.1.35-.1.34-.1.34-.1.35-.1.34-.1.35-.11.34-.09.34-.1.35-.1.34-.11.35-.09.34-.1.34-.1.35-.11.34-.1.35-.1.34-.1.34-.1.35-.1.34-.1.35-.1.34-.1.34-.1.35-.09.34-.11.35-.1.34-.1.34-.1.35-.1.34-.1.35-.1.34-.1.34-.1.35-.1.34-.1.35-.1.34-.09.34-.11.35-.1.34-.1.35-.09.34-.11.34-.1.35-.1.34-.09.35-.11.34-.09.34-.11.35-.09.34-.11.35-.09.34-.1.34-.1.35-.1.34-.1.35-.1.34-.1.34-.1.35-.1.34-.1.35-.1.34-.1.34-.1.35-.1.34-.1.35-.1.34-.1.34-.1.35-.1.34-.11.35-.1.34-.09.34-.1.35-.11.34-.1.35-.09.34-.1.34-.1.35-.11.34-.1.35-.09.34-.11.34-.1.35-.1.34-.09.35-.1.34-.11.34-.1.35-.1.34-.09.35-.11.34-.09.34-.1.35-.1.34-.11.35-.09.34-.1.34-.1.35-.11.34-.1.35-.09.34-.1.34-.11.35-.1.34-.09.35-.1.34-.11.34-.1.35-.1.34-.09.35-.11.34-.1.34-.1.35-.1.34-.1.35-.1.34-.1.34-.1.35-.1.34-.1.35-.1.34-.1.34-.1.35-.1.34-.1.35-.1.34-.1.34-.1.35-.1.34-.1.35-.1.34-.1.34-.1.35-.1.34-.1.35-.1.34-.1.34-.1.35-.1.34-.1.35-.1.34-.1.34-.1.35-.11.34-.1.35-.09.34-.1.34-.1.35-.11.34-.09.35-.1.34-.1.34-.11.35-.09.34-.1.35-.1.34-.11.34-.1.35-.09.34-.11.35-.09.34-.11.34-.09.35-.11.34-.09.35-.11.34-.1.34-.1.35-.09.34-.11.35-.1.34-.1.34-.1.35-.1.34-.1.35-.1.34-.09.34-.1.35-.1.34-.11.35-.09.34-.1.34-.1.35-.1.34-.1.35-.1.34-.1.34-.1.35-.1.34-.1.35-.1.34-.09.34-.11.35-.1.34-.09.35-.1.34-.1.34-.1.35-.1.34-.1.34-.1.35-.1.34-.1.35-.1.34-.1.34-.1.35-.1.34-.1.35-.1.34-.1.34-.1.35-.1.34-.1.35-.1.34-.11.34-.09.35-.1.34-.1.35-.1.34-.1.34-.1.35-.1.34-.1.35-.11.34-.09.34-.1.35-.1.34-.11.35-.09.34-.1.34-.1.35-.1.34-.1.35-.1.34-.1.34-.1.35-.1.34-.1.35-.1.34-.1.34-.1.35-.1.34-.1.35-.1.34-.1.34-.1.35-.1.34-.1.35-.1.34-.1.34-.1.35-.1.34-.1.35-.1.34-.1.34-.1.35-.11.34-.09.35-.11.34-.09.34-.1.35-.1.34-.11.35-.09.34-.11.34-.09.35-.11.34-.09.35-.1.34-.1.34-.1.35-.1.34-.1.35-.1.34-.1.34-.1.35-.1.34-.1.35-.1.34-.1.34-.1.35-.1.34-.1.35-.1.34-.1.34-.1.35-.1.34-.11.35-.09.34-.1.34-.1.35-.11.34-.1.35-.09.34-.1.34-.1.35-.11.34-.09.35-.1.34-.11.34-.1.35-.1.34-.1.35-.1.34-.1.34-.1.35-.09.34-.11.35-.1.34-.1.34-.1.35-.1.34-.1.35-.1.34-.1.34-.1.35-.1.34-.1.35-.1.34-.1.34-.1.35-.1.34-.09.35-.11.34-.1.34-.1.35-.09.34-.1.35-.11.34-.09.34-.1.35-.1.34-.11.35-.1.34-.09.34-.1.35-.11.34-.1.35-.09.34-.1.34-.1.35-.11.34-.09.35-.1.34-.1.34-.1.35-.1.34-.1.35-.1.34-.1.34-.1.35-.1.34-.1.35-.1.34-.1.34-.1.35-.1.34-.1.35-.1.34-.1.34-.1.35-.1.34-.1.35-.1.34-.1.34-.1.35-.1.34-.1.35-.1.34-.1.34-.1.35-.1.34-.09.35-.11.34-.1.34-.1.35-.09.34-.11.35-.1.34-.1.34-.09.35-.11.34-.1.35-.09.34-.1.34-.1.35-.1.34-.1.35-.1.34-.1.34-.1.35-.1.34-.1.35-.1.34-.1.34-.1.35-.1.34-.1.34-.1.35-.1.34-.1.35-.1.34-.1.34-.1.35-.1.34-.1.35-.1.34-.1.34-.1.35-.1.34-.1.35-.1.34-.09.34-.11.35-.1.34-.1.35-.09.34-.11.34-.1.35-.1.34-.09.35-.1.34-.1.34-.1.35-.1.34-.1.35-.1.34-.1.34-.1.35-.1.34-.1.35-.1.34-.11.34-.09.35-.1.34-.1.35-.11.34-.1.34-.09.35-.1.34-.11.35-.1.34-.1.34-.09.35-.11.34-.1.35-.1.34-.09.34-.11.35-.1.34-.1.35-.09.34-.11.34-.1.35-.1.34-.1.35-.1.34-.1.34-.1.35-.1.34-.1.35-.1.34-.1.34-.1.35-.1.34-.1.35-.1.34-.1.34-.1.35-.1.34-.1.35-.1.34-.1.34-.1.35-.1.34-.1.35-.1.34-.1.34-.1.35-.1.34-.1.35-.1.34-.1.34-.1.35-.1.34-.1.35-.1.34-.1.34-.1.35-.1.34-.1.35-.1.34-.1.34-.1.35-.11.34-.1.35-.09.34-.11"/><use xlink:href="#f38a3__c" color="#D336C8" transform="matrix(3.75 0 0 3.75 28.34 162.43)"/><use xlink:href="#f38a3__c" color="#D336C8" transform="matrix(3.75 0 0 3.75 371.99 62.83)"/><use xlink:href="#f38a3__c" color="#D336C8" transform="matrix(3.75 0 0 3.75 89.85 7.51)"/></g><text stroke-linecap="round" stroke-linejoin="round" color="#000" font-family="KaTeX_Main" font-size="8" transform="translate(110.4 25.11)"><tspan>LBSTBottomUp</tspan></text><g fill="none" stroke="currentColor" stroke-linecap="round" stroke-linejoin="round" color="#000"><path stroke="#3B75EA" d="M74.9 22.51h29.9M28.34 162.48l.35-.01.34-.02.35-.01.34-.02.34-.02.35-.01.34-.02.35-.02.34-.02.34-.01.35-.02.34-.02.35-.02.34-.02.34-.01.35-.02.34-.02.35-.02.34-.02.34-.02.35-.01.34-.02.35-.02.34-.02.34-.02.35-.02.34-.01.35-.02.34-.02.34-.02.35-.02.34-.02.35-.01.34-.02.34-.02.35-.02.34-.02.35-.02.34-.02.34-.02.35-.02.34-.02.35-.02.34-.02.34-.01.35-.02.34-.02.35-.02.34-.02.34-.02.35-.02.34-.02.35-.02.34-.02.34-.02.35-.02.34-.02.35-.02.34-.02.34-.02.35-.02.34-.02.35-.02.34-.02.34-.02.35-.02.34-.02.35-.02.34-.02.34-.02.35-.02.34-.02.35-.02.34-.02.34-.02.35-.02.34-.02.35-.02.34-.02.34-.02.35-.02.34-.02.35-.02.34-.02.34-.02.35-.02.34-.02.35-.02.34-.02.34-.03.35-.01.34-.02.35-.03.34-.02.34-.02.35-.02.34-.02.35-.02.34-.02.34-.02.35-.02.34-.02.34-.02.35-.02.34-.02.35-.02.34-.02.34-.02.35-.02.34-.02.35-.02.34-.02.34-.02.35-.02.34-.02.35-.02.34-.02.34-.01.35-.02.34-.02.35-.02.34-.02.34-.02.35-.02.34-.02.35-.02.34-.02.34-.02.35-.02.34-.02.35-.02.34-.02.34-.02.35-.02.34-.02.35-.02.34-.02.34-.02.35-.02.34-.02.35-.01.34-.02.34-.02.35-.02.34-.02.35-.02.34-.02.34-.02.35-.02.34-.02.35-.02.34-.02.34-.02.35-.02.34-.02.35-.02.34-.02.34-.02.35-.02.34-.02.35-.02.34-.02.34-.02.35-.02.34-.02.35-.02.34-.02.34-.02.35-.02.34-.02.35-.02.34-.02.34-.02.35-.02.34-.02.35-.01.34-.02.34-.02.35-.02.34-.02.35-.02.34-.02.34-.02.35-.02.34-.02.35-.02.34-.02.34-.02.35-.02.34-.02.35-.02.34-.02.34-.02.35-.02.34-.02.35-.02.34-.02.34-.02.35-.02.34-.02.35-.02.34-.02.34-.02.35-.02.34-.02.35-.02.34-.02.34-.02.35-.02.34-.02.35-.02.34-.01.34-.03.35-.01.34-.02.35-.02.34-.02.34-.03.35-.01.34-.02.35-.03.34-.01.34-.02.35-.02.34-.02.35-.02.34-.02.34-.02.35-.02.34-.02.35-.02.34-.02.34-.02.35-.02.34-.02.35-.02.34-.02.34-.02.35-.02.34-.02.35-.02.34-.02.34-.02.35-.02.34-.02.35-.02.34-.01.34-.03.35-.02.34-.01.35-.03.34-.02.34-.02.35-.02.34-.02.35-.02.34-.02.34-.01.35-.02.34-.02.35-.02.34-.02.34-.03.35-.01.34-.02.35-.02.34-.02.34-.02.35-.02.34-.02.35-.02.34-.02.34-.02.35-.02.34-.02.35-.02.34-.02.34-.02.35-.02.34-.02.35-.02.34-.02.34-.02.35-.02.34-.02.35-.02.34-.02.34-.02.35-.02.34-.02.35-.02.34-.02.34-.02.35-.02.34-.01.35-.03.34-.02.34-.02.35-.02.34-.02.34-.02.35-.02.34-.02.35-.01.34-.02.34-.02.35-.02.34-.02.35-.02.34-.02.34-.02.35-.02.34-.02.35-.02.34-.02.34-.02.35-.02.34-.02.35-.02.34-.02.34-.02.35-.02.34-.02.35-.02.34-.02.34-.02.35-.02.34-.02.35-.02.34-.02.34-.02.35-.02.34-.02.35-.02.34-.02.34-.02.35-.02.34-.02.35-.02.34-.01.34-.02.35-.02.34-.02.35-.02.34-.02.34-.02.35-.02.34-.02.35-.02.34-.02.34-.02.35-.02.34-.02.35-.02.34-.02.34-.02.35-.02.34-.02.35-.02.34-.02.34-.02.35-.02.34-.02.35-.02.34-.02.34-.02.35-.02.34-.02.35-.02.34-.02.34-.02.35-.02.34-.02.35-.02.34-.02.34-.02.35-.02.34-.02.35-.02.34-.02.34-.02.35-.02.34-.02.35-.02.34-.02.34-.01.35-.02.34-.02.35-.02.34-.02.34-.02.35-.02.34-.02.35-.02.34-.02.34-.02.35-.02.34-.02.35-.02.34-.02.34-.02.35-.02.34-.02.35-.02.34-.02.34-.02.35-.02.34-.02.35-.02.34-.02.34-.02.35-.02.34-.02.35-.02.34-.02.34-.02.35-.02.34-.02.35-.02.34-.02.34-.02.35-.02.34-.02.35-.02.34-.02.34-.02.35-.02.34-.02.35-.02.34-.02.34-.02.35-.02.34-.02.35-.01.34-.02.34-.02.35-.02.34-.02.35-.02.34-.02.34-.02.35-.02.34-.02.35-.02.34-.02.34-.02.35-.02.34-.02.35-.02.34-.02.34-.02.35-.02.34-.02.35-.02.34-.02.34-.02.35-.02.34-.02.35-.02.34-.02.34-.02.35-.02.34-.02.35-.02.34-.02.34-.02.35-.02.34-.02.35-.02.34-.02.34-.02.35-.02.34-.02.35-.02.34-.02.34-.02.35-.02.34-.02.35-.01.34-.02.34-.02.35-.02.34-.02.35-.02.34-.02.34-.02.35-.02.34-.02.35-.02.34-.02.34-.02.35-.02.34-.02.35-.02.34-.02.34-.02.35-.02.34-.02.35-.02.34-.02.34-.02.35-.02.34-.02.34-.02.35-.02.34-.02.35-.02.34-.02.34-.02.35-.02.34-.02.35-.02.34-.02.34-.02.35-.02.34-.01.35-.02.34-.02.34-.02.35-.02.34-.02.35-.02.34-.02.34-.02.35-.02.34-.02.35-.02.34-.02.34-.02.35-.02.34-.02.35-.02.34-.02.34-.02.35-.02.34-.02.35-.02.34-.02.34-.02.35-.02.34-.02.35-.02.34-.02.34-.02.35-.02.34-.02.35-.02.34-.02.34-.02.35-.01.34-.02.35-.02.34-.02.34-.02.35-.02.34-.02.35-.02.34-.02.34-.02.35-.02.34-.02.35-.02.34-.02.34-.02.35-.02.34-.02.35-.02.34-.02.34-.02.35-.02.34-.02.35-.02.34-.02.34-.02.35-.02.34-.02.35-.02.34-.02.34-.02.35-.02.34-.02.35-.02.34-.02.34-.02.35-.02.34-.01.35-.02.34-.02.34-.02.35-.03.34-.01.35-.02.34-.02.34-.02.35-.02.34-.02.35-.02.34-.02.34-.02.35-.02.34-.02.35-.02.34-.02.34-.02.35-.02.34-.02.35-.02.34-.02.34-.02.35-.02.34-.02.35-.02.34-.02.34-.02.35-.02.34-.02.35-.02.34-.02.34-.02.35-.02.34-.02.35-.02.34-.02.34-.02.35-.02.34-.02.35-.02.34-.02.34-.02.35-.02.34-.01.35-.02.34-.02.34-.02.35-.02.34-.02.35-.02.34-.02.34-.02.35-.02.34-.02.35-.02.34-.02.34-.02.35-.02.34-.02.35-.02.34-.02.34-.02.35-.02.34-.02.35-.02.34-.02.34-.02.35-.02.34-.02.35-.02.34-.02.34-.02.35-.02.34-.02.35-.02.34-.02.34-.02.35-.02.34-.02.35-.01.34-.03.34-.01.35-.03.34-.01.35-.02.34-.03.34-.01.35-.03.34-.01.35-.02.34-.02.34-.02.35-.02.34-.02.35-.02.34-.02.34-.02.35-.02.34-.02.35-.02.34-.02.34-.02.35-.02.34-.02.35-.02.34-.02.34-.02.35-.02.34-.02.35-.02.34-.02.34-.02.35-.02.34-.01.34-.02.35-.03.34-.01.35-.03.34-.02.34-.01.35-.03.34-.02.35-.02.34-.02.34-.01.35-.02.34-.02.35-.02.34-.02.34-.02.35-.02.34-.02.35-.02.34-.02.34-.02.35-.02.34-.02.35-.02.34-.02.34-.02.35-.02.34-.02.35-.02.34-.02.34-.02.35-.02.34-.02.35-.02.34-.02.34-.02.35-.02.34-.02.35-.02.34-.02.34-.01.35-.03.34-.02.35-.02.34-.02.34-.01.35-.02.34-.02.35-.02.34-.02.34-.02.35-.02.34-.02.35-.02.34-.02.34-.02.35-.02.34-.02.35-.02.34-.02.34-.02.35-.02.34-.02.35-.02.34-.02.34-.02.35-.02.34-.02.35-.02.34-.02.34-.02.35-.02.34-.02.35-.02.34-.02.34-.02.35-.02.34-.02.35-.02.34-.02.34-.02.35-.02.34-.01.35-.03.34-.01.34-.02.35-.02.34-.02.35-.02.34-.02.34-.02.35-.02.34-.02.35-.02.34-.02.34-.02.35-.02.34-.02.35-.02.34-.02.34-.02.35-.02.34-.02.35-.02.34-.02.34-.02.35-.02.34-.02.35-.02.34-.02.34-.02.35-.02.34-.02.35-.02.34-.02.34-.02.35-.02.34-.01.35-.03.34-.01.34-.02.35-.02.34-.02.35-.03.34-.01.34-.02.35-.02.34-.02.35-.02.34-.02.34-.02.35-.02.34-.02.35-.02.34-.02.34-.02.35-.02.34-.02.35-.02.34-.02.34-.02.35-.02.34-.02.35-.02.34-.02.34-.02.35-.02.34-.02.35-.02.34-.02.34-.02.35-.01.34-.02.35-.02.34-.02.34-.02.35-.03.34-.01.35-.03.34-.01.34-.02.35-.02.34-.02.35-.02.34-.02.34-.02.35-.02.34-.02.35-.02.34-.02.34-.02.35-.02.34-.02.35-.02.34-.02.34-.02.35-.02.34-.02.35-.02.34-.02.34-.02.35-.02.34-.02.35-.02.34-.02.34-.02.35-.02.34-.01.35-.03.34-.02.34-.02.35-.02.34-.01.35-.03.34-.01.34-.02.35-.02.34-.02.34-.02.35-.02.34-.02.35-.02.34-.02.34-.02.35-.02.34-.02.35-.02.34-.02.34-.02.35-.02.34-.02.35-.02.34-.02.34-.02.35-.02.34-.02.35-.02.34-.02.34-.02.35-.02.34-.02.35-.02.34-.02.34-.02.35-.02.34-.02.35-.02.34-.02.34-.02.35-.02.34-.02.35-.02.34-.01.34-.02.35-.02.34-.02.35-.02.34-.02.34-.02.35-.02.34-.02.35-.02.34-.02.34-.02.35-.02.34-.02.35-.02.34-.02.34-.02.35-.02.34-.02.35-.02.34-.02.34-.02.35-.02.34-.02.35-.02.34-.02.34-.02.35-.02.34-.02.35-.02.34-.02.34-.02.35-.02.34-.02.35-.01.34-.02.34-.02.35-.02.34-.02.35-.02.34-.02.34-.02.35-.02.34-.02.35-.02.34-.02.34-.02.35-.02.34-.02.35-.02.34-.02.34-.02.35-.02.34-.02.35-.02.34-.02.34-.02.35-.02.34-.02.35-.02.34-.02.34-.02.35-.02.34-.02.35-.02.34-.01"/><use xlink:href="#f38a3__d" color="#3B75EA" transform="matrix(3.75 0 0 3.75 85.79 159.24)"/><use xlink:href="#f38a3__d" color="#3B75EA" transform="matrix(3.75 0 0 3.75 89.85 22.51)"/></g><text stroke-linecap="round" stroke-linejoin="round" color="#000" font-family="KaTeX_Main" font-size="8" transform="translate(110.4 40.11)"><tspan>TreapTopDown</tspan></text><g fill="none" stroke="currentColor" stroke-linecap="round" stroke-linejoin="round" color="#000"><path stroke="#F44336" stroke-dasharray="4.5,2.0,0.5,2.0,0.5,2.0" d="M74.9 37.51h29.9M28.34 162.49l.35-.01.34-.01.35-.02.34-.01.34-.01.35-.01.34-.01.35-.01.34-.02.34-.01.35-.01.34-.01.35-.02.34-.01.34-.01.35-.01.34-.02.35-.01.34-.01.34-.02.35-.01.34-.01.35-.01.34-.02.34-.01.35-.01.34-.02.35-.01.34-.01.34-.02.35-.01.34-.02.35-.01.34-.01.34-.02.35-.01.34-.02.35-.01.34-.01.34-.02.35-.01.34-.01.35-.02.34-.01.34-.02.35-.01.34-.01.35-.02.34-.01.34-.02.35-.01.34-.02.35-.01.34-.02.34-.01.35-.02.34-.01.35-.01.34-.02.34-.01.35-.02.34-.01.35-.02.34-.01.34-.02.35-.01.34-.02.35-.01.34-.02.34-.01.35-.02.34-.01.35-.02.34-.01.34-.02.35-.01.34-.02.35-.01.34-.02.34-.01.35-.02.34-.01.35-.02.34-.02.34-.01.35-.02.34-.01.35-.02.34-.01.34-.02.35-.01.34-.02.35-.01.34-.02.34-.02.35-.01.34-.02.35-.01.34-.02.34-.01.35-.02.34-.02.34-.01.35-.02.34-.02.35-.01.34-.02.34-.01.35-.02.34-.01.35-.02.34-.02.34-.01.35-.02.34-.01.35-.02.34-.02.34-.01.35-.02.34-.01.35-.02.34-.01.34-.02.35-.02.34-.01.35-.02.34-.01.34-.02.35-.02.34-.01.35-.02.34-.01.34-.02.35-.01.34-.02.35-.02.34-.01.34-.02.35-.01.34-.02.35-.02.34-.01.34-.02.35-.01.34-.02.35-.02.34-.01.34-.02.35-.01.34-.02.35-.02.34-.01.34-.02.35-.01.34-.02.35-.01.34-.02.34-.01.35-.02.34-.02.35-.01.34-.02.34-.02.35-.01.34-.02.35-.01.34-.02.34-.01.35-.02.34-.02.35-.01.34-.02.34-.01.35-.02.34-.02.35-.02.34-.01.34-.02.35-.01.34-.02.35-.01.34-.02.34-.02.35-.01.34-.02.35-.02.34-.01.34-.02.35-.01.34-.02.35-.01.34-.02.34-.01.35-.02.34-.02.35-.01.34-.02.34-.01.35-.02.34-.02.35-.01.34-.02.34-.01.35-.02.34-.02.35-.01.34-.02.34-.01.35-.02.34-.02.35-.01.34-.02.34-.02.35-.01.34-.02.35-.01.34-.02.34-.01.35-.02.34-.02.35-.02.34-.01.34-.02.35-.01.34-.02.35-.01.34-.02.34-.01.35-.02.34-.02.35-.01.34-.02.34-.01.35-.02.34-.02.35-.01.34-.02.34-.01.35-.02.34-.02.35-.01.34-.02.34-.02.35-.01.34-.02.35-.02.34-.01.34-.02.35-.01.34-.02.35-.02.34-.01.34-.02.35-.01.34-.02.35-.02.34-.01.34-.02.35-.01.34-.02.35-.01.34-.02.34-.01.35-.02.34-.02.35-.02.34-.01.34-.02.35-.01.34-.02.35-.01.34-.02.34-.02.35-.01.34-.02.35-.02.34-.01.34-.02.35-.01.34-.02.35-.02.34-.01.34-.02.35-.01.34-.02.35-.02.34-.01.34-.02.35-.02.34-.01.35-.02.34-.01.34-.02.35-.01.34-.02.35-.02.34-.01.34-.02.35-.01.34-.02.34-.02.35-.01.34-.02.35-.02.34-.01.34-.02.35-.01.34-.02.35-.01.34-.02.34-.02.35-.01.34-.02.35-.02.34-.01.34-.02.35-.01.34-.02.35-.02.34-.01.34-.02.35-.01.34-.02.35-.02.34-.01.34-.02.35-.02.34-.01.35-.02.34-.01.34-.02.35-.01.34-.02.35-.02.34-.01.34-.02.35-.01.34-.02.35-.02.34-.01.34-.02.35-.01.34-.02.35-.02.34-.01.34-.02.35-.01.34-.02.35-.02.34-.01.34-.02.35-.02.34-.01.35-.02.34-.01.34-.02.35-.02.34-.01.35-.02.34-.01.34-.02.35-.02.34-.01.35-.02.34-.01.34-.02.35-.01.34-.02.35-.02.34-.01.34-.02.35-.02.34-.01.35-.02.34-.01.34-.02.35-.02.34-.01.35-.02.34-.01.34-.02.35-.02.34-.01.35-.02.34-.02.34-.01.35-.02.34-.01.35-.02.34-.01.34-.02.35-.02.34-.01.35-.02.34-.02.34-.01.35-.02.34-.01.35-.02.34-.02.34-.01.35-.02.34-.01.35-.02.34-.01.34-.02.35-.02.34-.01.35-.02.34-.02.34-.01.35-.02.34-.01.35-.02.34-.01.34-.02.35-.02.34-.02.35-.01.34-.02.34-.01.35-.02.34-.01.35-.02.34-.02.34-.01.35-.02.34-.01.35-.02.34-.02.34-.01.35-.02.34-.02.35-.01.34-.02.34-.01.35-.02.34-.01.35-.02.34-.02.34-.01.35-.02.34-.02.35-.01.34-.02.34-.01.35-.02.34-.01.35-.02.34-.02.34-.01.35-.02.34-.02.35-.01.34-.02.34-.01.35-.02.34-.02.35-.01.34-.02.34-.01.35-.02.34-.02.35-.01.34-.02.34-.02.35-.01.34-.02.35-.01.34-.02.34-.01.35-.02.34-.01.35-.02.34-.02.34-.01.35-.02.34-.02.35-.01.34-.02.34-.01.35-.02.34-.02.35-.01.34-.02.34-.01.35-.02.34-.02.35-.01.34-.02.34-.02.35-.01.34-.02.35-.01.34-.02.34-.01.35-.02.34-.02.35-.01.34-.02.34-.02.35-.01.34-.02.34-.01.35-.02.34-.01.35-.02.34-.02.34-.01.35-.02.34-.01.35-.02.34-.02.34-.01.35-.02.34-.01.35-.02.34-.02.34-.01.35-.02.34-.02.35-.01.34-.02.34-.01.35-.02.34-.02.35-.01.34-.02.34-.01.35-.02.34-.02.35-.01.34-.02.34-.02.35-.01.34-.02.35-.01.34-.02.34-.01.35-.02.34-.02.35-.01.34-.02.34-.01.35-.02.34-.02.35-.01.34-.02.34-.02.35-.01.34-.02.35-.01.34-.02.34-.01.35-.02.34-.02.35-.01.34-.02.34-.02.35-.01.34-.02.35-.01.34-.02.34-.02.35-.01.34-.02.35-.01.34-.02.34-.02.35-.01.34-.02.35-.02.34-.01.34-.02.35-.01.34-.02.35-.01.34-.02.34-.02.35-.01.34-.02.35-.01.34-.02.34-.02.35-.01.34-.02.35-.01.34-.02.34-.02.35-.01.34-.02.35-.02.34-.01.34-.02.35-.01.34-.02.35-.02.34-.01.34-.02.35-.01.34-.02.35-.02.34-.01.34-.02.35-.01.34-.02.35-.02.34-.01.34-.02.35-.01.34-.02.35-.01.34-.02.34-.02.35-.01.34-.02.35-.02.34-.01.34-.02.35-.01.34-.02.35-.01.34-.02.34-.02.35-.01.34-.02.35-.02.34-.01.34-.02.35-.01.34-.02.35-.02.34-.01.34-.02.35-.01.34-.02.35-.02.34-.01.34-.02.35-.02.34-.01.35-.02.34-.01.34-.02.35-.02.34-.01.35-.02.34-.01.34-.02.35-.01.34-.02.35-.02.34-.01.34-.02.35-.02.34-.01.35-.02.34-.01.34-.02.35-.02.34-.01.35-.02.34-.02.34-.01.35-.02.34-.01.35-.02.34-.01.34-.02.35-.02.34-.01.35-.02.34-.02.34-.01.35-.02.34-.01.35-.02.34-.02.34-.01.35-.02.34-.01.35-.02.34-.01.34-.02.35-.02.34-.01.35-.02.34-.02.34-.01.35-.02.34-.01.35-.02.34-.02.34-.01.35-.02.34-.01.35-.02.34-.02.34-.01.35-.02.34-.02.34-.01.35-.02.34-.01.35-.02.34-.01.34-.02.35-.02.34-.01.35-.02.34-.02.34-.01.35-.02.34-.01.35-.02.34-.01.34-.02.35-.02.34-.01.35-.02.34-.02.34-.01.35-.02.34-.01.35-.02.34-.01.34-.02.35-.02.34-.01.35-.02.34-.02.34-.01.35-.02.34-.01.35-.02.34-.02.34-.01.35-.02.34-.01.35-.02.34-.02.34-.01.35-.02.34-.02.35-.01.34-.02.34-.01.35-.02.34-.01.35-.02.34-.02.34-.01.35-.02.34-.01.35-.02.34-.02.34-.01.35-.02.34-.02.35-.01.34-.02.34-.01.35-.02.34-.01.35-.02.34-.02.34-.01.35-.02.34-.02.35-.01.34-.02.34-.01.35-.02.34-.01.35-.02.34-.02.34-.01.35-.02.34-.02.35-.01.34-.02.34-.01.35-.02.34-.02.35-.01.34-.02.34-.01.35-.02.34-.01.35-.02.34-.02.34-.01.35-.02.34-.02.35-.01.34-.02.34-.01.35-.02.34-.01.35-.02.34-.02.34-.01.35-.02.34-.02.35-.01.34-.02.34-.01.35-.02.34-.01.35-.02.34-.02.34-.01.35-.02.34-.02.35-.01.34-.02.34-.01.35-.02.34-.02.35-.01.34-.02.34-.01.35-.02.34-.01.35-.02.34-.02.34-.01.35-.02.34-.02.35-.01.34-.02.34-.01.35-.02.34-.01.35-.02.34-.02.34-.01.35-.02.34-.02.35-.01.34-.02.34-.01.35-.02.34-.01.35-.02.34-.02.34-.01.35-.02.34-.02.35-.01.34-.02.34-.01.35-.02.34-.01.35-.02.34-.02.34-.01.35-.02.34-.01.35-.02.34-.02.34-.01.35-.02.34-.02.35-.01.34-.02.34-.01.35-.02.34-.01.35-.02.34-.02.34-.01.35-.02.34-.02.35-.01.34-.02.34-.01.35-.02.34-.01.35-.02.34-.02.34-.01.35-.02.34-.02.35-.01.34-.02.34-.01.35-.02.34-.01.35-.02.34-.02.34-.01.35-.02.34-.01.35-.02.34-.02.34-.01.35-.02.34-.01.34-.02.35-.02.34-.01.35-.02.34-.01.34-.02.35-.02.34-.01.35-.02.34-.01.34-.02.35-.02.34-.01.35-.02.34-.01.34-.02.35-.02.34-.01.35-.02.34-.02.34-.01.35-.02.34-.01.35-.02.34-.01.34-.02.35-.02.34-.01.35-.02.34-.01.34-.02.35-.02.34-.01.35-.02.34-.01.34-.02.35-.02.34-.01.35-.02.34-.01.34-.02.35-.02.34-.01.35-.02.34-.01.34-.02.35-.02.34-.01.35-.02.34-.01.34-.02.35-.02.34-.01.35-.02.34-.02.34-.01.35-.02.34-.01.35-.02.34-.01.34-.02.35-.02.34-.01.35-.02.34-.01.34-.02.35-.02.34-.01.35-.02.34-.01.34-.02.35-.02.34-.01.35-.02.34-.01.34-.02.35-.02.34-.01.35-.02.34-.02.34-.01.35-.02.34-.01.35-.02.34-.01.34-.02.35-.02.34-.01.35-.02.34-.02.34-.01.35-.02.34-.01.35-.02.34-.02.34-.01.35-.02.34-.01.35-.02.34-.01"/><use xlink:href="#f38a3__e" color="#F44336" transform="matrix(3.75 0 0 3.75 143.24 157.33)"/><use xlink:href="#f38a3__e" color="#F44336" transform="matrix(3.75 0 0 3.75 89.85 37.51)"/></g><text stroke-linecap="round" stroke-linejoin="round" color="#000" font-family="KaTeX_Main" font-size="8" transform="translate(241.1 10.11)"><tspan>AVLTopDown</tspan></text><g fill="none" stroke="currentColor" stroke-linecap="round" stroke-linejoin="round" color="#000"><path stroke="#29C3F6" stroke-dasharray="2.5,4.0" d="M205.6 7.51h29.9M28.34 162.48l.35-.02.34-.02.35-.01.34-.02.34-.02.35-.02.34-.02.35-.02.34-.02.34-.02.35-.02.34-.02.35-.02.34-.02.34-.02.35-.02.34-.02.35-.02.34-.02.34-.02.35-.02.34-.02.35-.02.34-.02.34-.02.35-.02.34-.02.35-.02.34-.02.34-.02.35-.03.34-.02.35-.02.34-.02.34-.02.35-.02.34-.02.35-.02.34-.02.34-.03.35-.02.34-.02.35-.02.34-.02.34-.02.35-.02.34-.02.35-.02.34-.03.34-.02.35-.02.34-.02.35-.02.34-.02.34-.03.35-.02.34-.02.35-.02.34-.02.34-.02.35-.03.34-.02.35-.02.34-.02.34-.02.35-.02.34-.03.35-.02.34-.02.34-.02.35-.02.34-.03.35-.02.34-.02.34-.02.35-.02.34-.02.35-.03.34-.02.34-.02.35-.02.34-.02.35-.03.34-.02.34-.02.35-.02.34-.03.35-.02.34-.02.34-.02.35-.03.34-.02.35-.02.34-.02.34-.02.35-.03.34-.02.35-.02.34-.02.34-.03.35-.02.34-.03.34-.02.35-.02.34-.02.35-.03.34-.02.34-.02.35-.03.34-.02.35-.02.34-.02.34-.03.35-.02.34-.02.35-.03.34-.02.34-.02.35-.02.34-.03.35-.02.34-.02.34-.03.35-.02.34-.02.35-.02.34-.03.34-.02.35-.02.34-.03.35-.02.34-.02.34-.03.35-.02.34-.02.35-.02.34-.03.34-.02.35-.02.34-.03.35-.02.34-.02.34-.03.35-.02.34-.02.35-.03.34-.02.34-.02.35-.02.34-.03.35-.02.34-.02.34-.03.35-.02.34-.02.35-.03.34-.02.34-.02.35-.02.34-.03.35-.02.34-.02.34-.03.35-.02.34-.02.35-.02.34-.03.34-.02.35-.02.34-.03.35-.02.34-.02.34-.03.35-.02.34-.02.35-.02.34-.03.34-.02.35-.02.34-.03.35-.02.34-.02.34-.03.35-.02.34-.02.35-.03.34-.02.34-.02.35-.03.34-.02.35-.02.34-.02.34-.03.35-.02.34-.02.35-.02.34-.03.34-.02.35-.02.34-.03.35-.02.34-.02.34-.03.35-.02.34-.02.35-.02.34-.03.34-.02.35-.02.34-.03.35-.02.34-.02.34-.03.35-.02.34-.02.35-.03.34-.02.34-.02.35-.02.34-.03.35-.02.34-.03.34-.02.35-.02.34-.03.35-.02.34-.02.34-.02.35-.03.34-.02.35-.02.34-.03.34-.02.35-.02.34-.02.35-.03.34-.02.34-.02.35-.03.34-.02.35-.02.34-.03.34-.02.35-.02.34-.03.35-.02.34-.02.34-.03.35-.02.34-.02.35-.03.34-.02.34-.02.35-.02.34-.03.35-.02.34-.02.34-.03.35-.02.34-.02.35-.03.34-.02.34-.02.35-.02.34-.03.35-.02.34-.02.34-.03.35-.02.34-.02.35-.03.34-.02.34-.02.35-.03.34-.02.35-.02.34-.03.34-.02.35-.02.34-.03.35-.02.34-.02.34-.03.35-.02.34-.02.35-.02.34-.03.34-.02.35-.02.34-.03.35-.02.34-.02.34-.03.35-.02.34-.02.35-.03.34-.02.34-.02.35-.02.34-.03.34-.02.35-.02.34-.03.35-.02.34-.02.34-.03.35-.02.34-.02.35-.03.34-.02.34-.02.35-.03.34-.02.35-.02.34-.02.34-.03.35-.02.34-.02.35-.03.34-.02.34-.02.35-.03.34-.02.35-.02.34-.03.34-.02.35-.02.34-.03.35-.02.34-.02.34-.02.35-.03.34-.02.35-.02.34-.03.34-.02.35-.02.34-.02.35-.03.34-.02.34-.02.35-.03.34-.02.35-.02.34-.03.34-.02.35-.02.34-.03.35-.02.34-.02.34-.03.35-.02.34-.02.35-.03.34-.02.34-.02.35-.03.34-.02.35-.02.34-.03.34-.02.35-.02.34-.03.35-.02.34-.02.34-.02.35-.03.34-.02.35-.02.34-.02.34-.03.35-.02.34-.02.35-.03.34-.02.34-.02.35-.03.34-.02.35-.02.34-.03.34-.02.35-.02.34-.03.35-.02.34-.02.34-.02.35-.03.34-.02.35-.03.34-.02.34-.02.35-.02.34-.03.35-.02.34-.02.34-.03.35-.02.34-.02.35-.03.34-.02.34-.02.35-.02.34-.03.35-.02.34-.02.34-.02.35-.03.34-.02.35-.03.34-.02.34-.02.35-.03.34-.02.35-.02.34-.02.34-.03.35-.02.34-.02.35-.03.34-.02.34-.02.35-.03.34-.02.35-.02.34-.03.34-.02.35-.02.34-.02.35-.03.34-.02.34-.02.35-.03.34-.02.35-.03.34-.02.34-.02.35-.02.34-.03.35-.02.34-.02.34-.02.35-.03.34-.02.35-.02.34-.03.34-.02.35-.02.34-.03.35-.02.34-.02.34-.02.35-.03.34-.02.35-.03.34-.02.34-.02.35-.03.34-.02.35-.02.34-.03.34-.02.35-.02.34-.02.35-.03.34-.02.34-.02.35-.03.34-.02.35-.02.34-.03.34-.02.35-.02.34-.02.35-.03.34-.02.34-.02.35-.03.34-.02.35-.02.34-.02.34-.03.35-.02.34-.02.35-.03.34-.02.34-.02.35-.03.34-.02.35-.02.34-.03.34-.02.35-.02.34-.03.35-.02.34-.02.34-.03.35-.02.34-.02.35-.02.34-.03.34-.02.35-.02.34-.03.34-.02.35-.02.34-.03.35-.02.34-.02.34-.02.35-.03.34-.02.35-.02.34-.03.34-.02.35-.02.34-.03.35-.02.34-.02.34-.03.35-.02.34-.02.35-.03.34-.02.34-.02.35-.02.34-.03.35-.02.34-.02.34-.03.35-.02.34-.02.35-.03.34-.02.34-.02.35-.03.34-.02.35-.02.34-.03.34-.02.35-.02.34-.02.35-.03.34-.02.34-.02.35-.02.34-.03.35-.02.34-.02.34-.03.35-.02.34-.02.35-.03.34-.02.34-.02.35-.02.34-.03.35-.02.34-.02.34-.03.35-.02.34-.02.35-.03.34-.02.34-.03.35-.02.34-.02.35-.02.34-.03.34-.02.35-.02.34-.03.35-.02.34-.02.34-.03.35-.02.34-.02.35-.02.34-.03.34-.02.35-.02.34-.02.35-.03.34-.02.34-.03.35-.02.34-.02.35-.03.34-.02.34-.02.35-.02.34-.02.35-.03.34-.02.34-.03.35-.02.34-.02.35-.03.34-.02.34-.02.35-.03.34-.02.35-.02.34-.02.34-.03.35-.02.34-.02.35-.03.34-.02.34-.02.35-.03.34-.02.35-.02.34-.02.34-.03.35-.02.34-.02.35-.03.34-.02.34-.02.35-.03.34-.02.35-.02.34-.02.34-.03.35-.02.34-.02.35-.03.34-.02.34-.02.35-.03.34-.02.35-.02.34-.03.34-.02.35-.02.34-.03.35-.02.34-.02.34-.03.35-.02.34-.02.35-.02.34-.03.34-.02.35-.02.34-.03.35-.02.34-.02.34-.02.35-.03.34-.02.35-.02.34-.03.34-.02.35-.02.34-.03.35-.02.34-.02.34-.02.35-.03.34-.02.35-.02.34-.03.34-.02.35-.02.34-.03.35-.02.34-.02.34-.03.35-.02.34-.02.35-.03.34-.02.34-.02.35-.03.34-.02.35-.02.34-.02.34-.03.35-.02.34-.02.35-.03.34-.02.34-.02.35-.02.34-.03.35-.02.34-.02.34-.03.35-.02.34-.02.35-.03.34-.02.34-.02.35-.03.34-.02.35-.02.34-.02.34-.03.35-.02.34-.02.34-.03.35-.02.34-.03.35-.02.34-.02.34-.02.35-.03.34-.02.35-.02.34-.03.34-.02.35-.02.34-.03.35-.02.34-.02.34-.03.35-.02.34-.02.35-.02.34-.03.34-.02.35-.02.34-.03.35-.02.34-.02.34-.03.35-.02.34-.02.35-.02.34-.03.34-.02.35-.02.34-.03.35-.02.34-.03.34-.02.35-.02.34-.03.35-.02.34-.02.34-.02.35-.02.34-.03.35-.02.34-.03.34-.02.35-.02.34-.03.35-.02.34-.02.34-.02.35-.03.34-.02.35-.02.34-.02.34-.03.35-.02.34-.02.35-.03.34-.02.34-.02.35-.03.34-.02.35-.02.34-.02.34-.03.35-.02.34-.03.35-.02.34-.02.34-.03.35-.02.34-.02.35-.03.34-.02.34-.02.35-.02.34-.03.35-.02.34-.02.34-.03.35-.02.34-.02.35-.03.34-.02.34-.02.35-.02.34-.03.35-.02.34-.02.34-.03.35-.02.34-.02.35-.03.34-.02.34-.02.35-.02.34-.03.35-.02.34-.02.34-.03.35-.02.34-.02.35-.03.34-.02.34-.02.35-.03.34-.02.35-.02.34-.03.34-.02.35-.02.34-.03.35-.02.34-.02.34-.03.35-.02.34-.02.35-.03.34-.02.34-.02.35-.02.34-.02.35-.03.34-.02.34-.02.35-.03.34-.02.35-.02.34-.03.34-.02.35-.02.34-.02.35-.03.34-.02.34-.02.35-.03.34-.02.35-.02.34-.03.34-.02.35-.02.34-.03.35-.02.34-.02.34-.02.35-.03.34-.02.35-.02.34-.03.34-.02.35-.02.34-.03.35-.02.34-.02.34-.03.35-.02.34-.02.35-.02.34-.03.34-.02.35-.02.34-.03.35-.02.34-.02.34-.03.35-.02.34-.02.35-.02.34-.03.34-.02.35-.02.34-.03.35-.02.34-.02.34-.03.35-.02.34-.02.35-.03.34-.02.34-.02.35-.02.34-.03.35-.02.34-.03.34-.02.35-.02.34-.02.35-.03.34-.02.34-.02.35-.02.34-.03.35-.02.34-.02.34-.03.35-.02.34-.02.34-.03.35-.02.34-.02.35-.03.34-.02.34-.02.35-.03.34-.02.35-.02.34-.03.34-.02.35-.02.34-.02.35-.03.34-.02.34-.02.35-.03.34-.02.35-.02.34-.03.34-.02.35-.02.34-.03.35-.02.34-.02.34-.03.35-.02.34-.02.35-.02.34-.03.34-.02.35-.02.34-.03.35-.02.34-.02.34-.03.35-.02.34-.02.35-.03.34-.02.34-.02.35-.02.34-.03.35-.02.34-.02.34-.03.35-.02.34-.02.35-.03.34-.02.34-.02.35-.03.34-.02.35-.02.34-.02.34-.03.35-.02.34-.02.35-.03.34-.02.34-.02.35-.03.34-.02.35-.02.34-.02.34-.03.35-.02.34-.02.35-.03.34-.02.34-.02.35-.03.34-.02.35-.02.34-.03.34-.02.35-.02.34-.03.35-.02.34-.02.34-.02.35-.03.34-.02.35-.02.34-.03.34-.02.35-.02.34-.03.35-.02.34-.02.34-.03.35-.02.34-.02.35-.03.34-.02.34-.02.35-.03.34-.02.35-.02.34-.02"/><use xlink:href="#f38a3__f" color="#29C3F6" transform="matrix(3.75 0 0 3.75 200.68 151.11)"/><use xlink:href="#f38a3__f" color="#29C3F6" transform="matrix(3.75 0 0 3.75 220.55 7.51)"/></g><text stroke-linecap="round" stroke-linejoin="round" stroke-width=".5" color="#000" font-family="KaTeX_Main" font-size="8" transform="translate(241.1 25.11)"><tspan>AVLBottomUp</tspan></text><g fill="none" stroke="currentColor" stroke-linecap="round" stroke-linejoin="round" stroke-width=".5" color="#000"><path stroke="#000" d="M205.6 22.51h29.9M28.34 162.49l.35-.02.34-.02.35-.01.34-.02.34-.02.35-.02.34-.02.35-.01.34-.02.34-.02.35-.02.34-.02.35-.01.34-.02.34-.02.35-.02.34-.02.35-.02.34-.02.34-.02.35-.02.34-.01.35-.02.34-.02.34-.02.35-.02.34-.02.35-.02.34-.02.34-.02.35-.02.34-.02.35-.02.34-.02.34-.01.35-.02.34-.02.35-.03.34-.01.34-.02.35-.02.34-.02.35-.03.34-.01.34-.03.35-.01.34-.03.35-.02.34-.02.34-.02.35-.02.34-.01.35-.03.34-.02.34-.02.35-.02.34-.02.35-.02.34-.02.34-.02.35-.02.34-.02.35-.02.34-.02.34-.02.35-.02.34-.02.35-.02.34-.02.34-.02.35-.02.34-.03.35-.02.34-.02.34-.02.35-.02.34-.02.35-.02.34-.02.34-.02.35-.02.34-.03.35-.02.34-.02.34-.02.35-.02.34-.02.35-.02.34-.02.34-.02.35-.03.34-.02.35-.02.34-.02.34-.02.35-.02.34-.03.35-.02.34-.02.34-.02.35-.02.34-.03.34-.02.35-.02.34-.03.35-.02.34-.02.34-.02.35-.02.34-.03.35-.02.34-.02.34-.02.35-.03.34-.02.35-.02.34-.03.34-.02.35-.02.34-.02.35-.02.34-.03.34-.02.35-.02.34-.03.35-.02.34-.02.34-.02.35-.03.34-.02.35-.02.34-.02.34-.03.35-.02.34-.02.35-.02.34-.03.34-.02.35-.02.34-.03.35-.02.34-.02.34-.02.35-.02.34-.03.35-.02.34-.02.34-.03.35-.02.34-.02.35-.02.34-.03.34-.02.35-.02.34-.02.35-.03.34-.02.34-.02.35-.02.34-.03.35-.02.34-.02.34-.03.35-.02.34-.02.35-.02.34-.03.34-.02.35-.02.34-.03.35-.02.34-.02.34-.02.35-.03.34-.02.35-.02.34-.02.34-.03.35-.02.34-.02.35-.02.34-.03.34-.02.35-.02.34-.02.35-.03.34-.02.34-.02.35-.02.34-.03.35-.02.34-.02.34-.02.35-.03.34-.02.35-.02.34-.03.34-.02.35-.02.34-.02.35-.03.34-.02.34-.02.35-.02.34-.03.35-.02.34-.02.34-.03.35-.02.34-.02.35-.02.34-.03.34-.02.35-.02.34-.02.35-.02.34-.03.34-.02.35-.02.34-.03.35-.02.34-.02.34-.02.35-.03.34-.02.35-.02.34-.02.34-.03.35-.02.34-.02.35-.03.34-.02.34-.02.35-.02.34-.03.35-.02.34-.02.34-.02.35-.03.34-.02.35-.02.34-.03.34-.02.35-.02.34-.02.35-.03.34-.02.34-.02.35-.02.34-.03.35-.02.34-.02.34-.02.35-.03.34-.02.35-.02.34-.03.34-.02.35-.02.34-.02.35-.02.34-.03.34-.02.35-.02.34-.03.35-.02.34-.02.34-.03.35-.02.34-.02.35-.03.34-.02.34-.02.35-.02.34-.03.35-.02.34-.02.34-.02.35-.03.34-.02.35-.02.34-.02.34-.03.35-.02.34-.02.35-.02.34-.03.34-.02.35-.02.34-.03.35-.02.34-.02.34-.02.35-.03.34-.02.35-.02.34-.02.34-.03.35-.02.34-.02.34-.02.35-.03.34-.02.35-.02.34-.03.34-.02.35-.02.34-.02.35-.03.34-.02.34-.02.35-.03.34-.02.35-.02.34-.02.34-.03.35-.02.34-.02.35-.02.34-.02.34-.03.35-.02.34-.02.35-.03.34-.02.34-.02.35-.03.34-.02.35-.02.34-.02.34-.02.35-.03.34-.02.35-.02.34-.03.34-.02.35-.02.34-.03.35-.02.34-.02.34-.02.35-.03.34-.02.35-.02.34-.02.34-.03.35-.02.34-.02.35-.03.34-.02.34-.02.35-.02.34-.03.35-.02.34-.02.34-.02.35-.03.34-.02.35-.02.34-.03.34-.02.35-.02.34-.02.35-.03.34-.02.34-.02.35-.02.34-.03.35-.02.34-.02.34-.02.35-.03.34-.02.35-.03.34-.02.34-.02.35-.02.34-.02.35-.03.34-.02.34-.02.35-.03.34-.02.35-.02.34-.02.34-.03.35-.02.34-.02.35-.02.34-.02.34-.03.35-.02.34-.02.35-.03.34-.02.34-.02.35-.03.34-.02.35-.02.34-.02.34-.02.35-.03.34-.02.35-.02.34-.03.34-.02.35-.02.34-.02.35-.03.34-.02.34-.02.35-.02.34-.03.35-.02.34-.02.34-.03.35-.02.34-.02.35-.03.34-.02.34-.02.35-.02.34-.02.35-.03.34-.02.34-.02.35-.03.34-.02.35-.02.34-.02.34-.03.35-.02.34-.02.35-.03.34-.02.34-.02.35-.02.34-.03.35-.02.34-.02.34-.02.35-.03.34-.02.35-.02.34-.03.34-.02.35-.02.34-.02.35-.03.34-.02.34-.02.35-.03.34-.02.35-.02.34-.02.34-.03.35-.02.34-.02.35-.02.34-.03.34-.02.35-.02.34-.02.35-.03.34-.02.34-.02.35-.03.34-.02.35-.02.34-.02.34-.02.35-.03.34-.02.35-.02.34-.03.34-.02.35-.02.34-.02.35-.03.34-.02.34-.02.35-.02.34-.03.35-.02.34-.02.34-.02.35-.03.34-.02.35-.02.34-.03.34-.02.35-.02.34-.02.35-.03.34-.02.34-.02.35-.02.34-.03.35-.02.34-.02.34-.02.35-.03.34-.02.34-.02.35-.02.34-.03.35-.02.34-.02.34-.03.35-.02.34-.02.35-.03.34-.02.34-.02.35-.02.34-.03.35-.02.34-.02.34-.03.35-.02.34-.02.35-.02.34-.03.34-.02.35-.02.34-.02.35-.03.34-.02.34-.02.35-.02.34-.02.35-.03.34-.02.34-.02.35-.03.34-.02.35-.02.34-.02.34-.03.35-.02.34-.02.35-.03.34-.02.34-.02.35-.02.34-.03.35-.02.34-.02.34-.03.35-.02.34-.02.35-.02.34-.02.34-.03.35-.02.34-.02.35-.03.34-.02.34-.02.35-.02.34-.03.35-.02.34-.02.34-.02.35-.03.34-.02.35-.02.34-.02.34-.03.35-.02.34-.02.35-.03.34-.02.34-.02.35-.02.34-.02.35-.03.34-.02.34-.03.35-.02.34-.02.35-.02.34-.03.34-.02.35-.02.34-.02.35-.03.34-.02.34-.02.35-.02.34-.03.35-.02.34-.02.34-.03.35-.02.34-.02.35-.02.34-.02.34-.03.35-.02.34-.02.35-.03.34-.02.34-.02.35-.02.34-.03.35-.02.34-.02.34-.02.35-.03.34-.02.35-.02.34-.02.34-.03.35-.02.34-.02.35-.03.34-.02.34-.02.35-.02.34-.03.35-.02.34-.02.34-.03.35-.02.34-.02.35-.02.34-.03.34-.02.35-.02.34-.02.35-.03.34-.02.34-.02.35-.02.34-.02.35-.03.34-.02.34-.03.35-.02.34-.02.35-.02.34-.03.34-.02.35-.02.34-.02.35-.03.34-.02.34-.02.35-.02.34-.03.35-.02.34-.02.34-.03.35-.02.34-.02.35-.02.34-.03.34-.02.35-.02.34-.02.35-.03.34-.02.34-.02.35-.03.34-.02.35-.02.34-.02.34-.02.35-.03.34-.02.35-.02.34-.03.34-.02.35-.02.34-.03.35-.02.34-.02.34-.02.35-.02.34-.03.35-.02.34-.02.34-.03.35-.02.34-.02.35-.02.34-.03.34-.02.35-.02.34-.03.35-.02.34-.02.34-.02.35-.03.34-.02.35-.02.34-.02.34-.03.35-.02.34-.02.34-.02.35-.03.34-.02.35-.02.34-.02.34-.03.35-.02.34-.02.35-.03.34-.02.34-.02.35-.02.34-.03.35-.02.34-.02.34-.03.35-.02.34-.02.35-.02.34-.03.34-.02.35-.02.34-.03.35-.02.34-.02.34-.02.35-.03.34-.02.35-.02.34-.03.34-.02.35-.02.34-.02.35-.03.34-.02.34-.02.35-.02.34-.02.35-.03.34-.02.34-.02.35-.02.34-.03.35-.02.34-.02.34-.03.35-.02.34-.02.35-.02.34-.03.34-.02.35-.02.34-.03.35-.02.34-.02.34-.02.35-.03.34-.02.35-.02.34-.02.34-.03.35-.02.34-.02.35-.03.34-.02.34-.02.35-.02.34-.03.35-.02.34-.02.34-.02.35-.03.34-.02.35-.02.34-.02.34-.03.35-.02.34-.02.35-.03.34-.02.34-.02.35-.02.34-.03.35-.02.34-.02.34-.02.35-.03.34-.02.35-.02.34-.03.34-.02.35-.02.34-.02.35-.03.34-.02.34-.02.35-.02.34-.03.35-.02.34-.02.34-.03.35-.02.34-.02.35-.02.34-.03.34-.02.35-.02.34-.02.35-.03.34-.02.34-.02.35-.02.34-.03.35-.02.34-.02.34-.03.35-.02.34-.02.35-.02.34-.03.34-.02.35-.02.34-.03.35-.02.34-.02.34-.02.35-.03.34-.02.35-.02.34-.02.34-.03.35-.02.34-.02.35-.02.34-.03.34-.02.35-.02.34-.03.35-.02.34-.02.34-.02.35-.02.34-.03.35-.02.34-.02.34-.02.35-.03.34-.02.35-.02.34-.03.34-.02.35-.02.34-.02.35-.03.34-.02.34-.02.35-.02.34-.03.35-.02.34-.02.34-.03.35-.02.34-.02.35-.03.34-.02.34-.02.35-.02.34-.03.35-.02.34-.02.34-.02.35-.03.34-.02.35-.02.34-.02.34-.03.35-.02.34-.02.35-.02.34-.03.34-.02.35-.02.34-.02.35-.03.34-.02.34-.02.35-.03.34-.02.35-.02.34-.02.34-.03.35-.02.34-.02.35-.02.34-.03.34-.02.35-.02.34-.03.34-.02.35-.02.34-.02.35-.03.34-.02.34-.02.35-.03.34-.02.35-.02.34-.02.34-.03.35-.02.34-.02.35-.02.34-.02.34-.03.35-.02.34-.02.35-.02.34-.03.34-.02.35-.03.34-.02.35-.02.34-.02.34-.02.35-.03.34-.02.35-.02.34-.03.34-.02.35-.02.34-.02.35-.03.34-.02.34-.02.35-.03.34-.02.35-.02.34-.02.34-.03.35-.02.34-.02.35-.02.34-.03.34-.02.35-.02.34-.02.35-.03.34-.02.34-.02.35-.03.34-.02.35-.02.34-.02.34-.03.35-.02.34-.02.35-.02.34-.03.34-.02.35-.02.34-.03.35-.02.34-.02.34-.02.35-.03.34-.02.35-.02.34-.03.34-.02.35-.02.34-.02.35-.02.34-.03.34-.02.35-.03.34-.02.35-.02.34-.02.34-.03.35-.02.34-.02.35-.02.34-.02.34-.03.35-.02.34-.02.35-.03.34-.02.34-.02.35-.03.34-.02.35-.02.34-.02.34-.02.35-.03.34-.02.35-.02.34-.03"/><use xlink:href="#f38a3__g" transform="matrix(3.75 0 0 3.75 258.13 147.61)"/><use xlink:href="#f38a3__g" transform="matrix(3.75 0 0 3.75 220.55 22.51)"/></g><text stroke-linecap="round" stroke-linejoin="round" color="#000" font-family="KaTeX_Main" font-size="8" transform="translate(241.1 40.11)"><tspan>RedBlackBottomUp</tspan></text><g fill="none" stroke="currentColor" stroke-linecap="round" stroke-linejoin="round" color="#000"><path stroke="#F44336" d="M205.6 37.51h29.9M28.34 162.48l.35-.03.34-.02.35-.03.34-.02.34-.03.35-.03.34-.02.35-.03.34-.03.34-.02.35-.03.34-.03.35-.03.34-.02.34-.03.35-.03.34-.03.35-.03.34-.02.34-.03.35-.03.34-.03.35-.03.34-.03.34-.03.35-.03.34-.02.35-.03.34-.03.34-.03.35-.03.34-.03.35-.03.34-.03.34-.03.35-.03.34-.03.35-.03.34-.02.34-.03.35-.03.34-.03.35-.03.34-.03.34-.03.35-.03.34-.03.35-.03.34-.03.34-.03.35-.03.34-.03.35-.03.34-.03.34-.04.35-.02.34-.03.35-.03.34-.04.34-.03.35-.03.34-.03.35-.03.34-.03.34-.03.35-.03.34-.03.35-.03.34-.03.34-.03.35-.03.34-.04.35-.02.34-.03.34-.04.35-.03.34-.03.35-.03.34-.03.34-.03.35-.03.34-.03.35-.03.34-.04.34-.03.35-.03.34-.03.35-.03.34-.03.34-.04.35-.03.34-.03.35-.03.34-.03.34-.03.35-.03.34-.03.35-.03.34-.04.34-.02.35-.03.34-.03.34-.02.35-.03.34-.02.35-.03.34-.02.34-.03.35-.03.34-.02.35-.03.34-.02.34-.03.35-.03.34-.02.35-.03.34-.02.34-.03.35-.02.34-.03.35-.03.34-.02.34-.03.35-.02.34-.03.35-.03.34-.02.34-.03.35-.02.34-.03.35-.02.34-.03.34-.03.35-.02.34-.03.35-.02.34-.03.34-.03.35-.02.34-.03.35-.02.34-.03.34-.02.35-.03.34-.03.35-.02.34-.03.34-.02.35-.03.34-.03.35-.02.34-.03.34-.02.35-.03.34-.03.35-.02.34-.03.34-.02.35-.03.34-.03.35-.02.34-.03.34-.02.35-.03.34-.02.35-.03.34-.02.34-.03.35-.03.34-.02.35-.03.34-.02.34-.03.35-.03.34-.02.35-.03.34-.02.34-.03.35-.03.34-.02.35-.03.34-.02.34-.03.35-.03.34-.02.35-.03.34-.03.34-.02.35-.03.34-.02.35-.03.34-.02.34-.03.35-.03.34-.02.35-.03.34-.02.34-.03.35-.03.34-.02.35-.03.34-.02.34-.03.35-.02.34-.03.35-.03.34-.02.34-.03.35-.02.34-.03.35-.02.34-.03.34-.03.35-.02.34-.03.35-.02.34-.03.34-.03.35-.02.34-.03.35-.03.34-.02.34-.03.35-.02.34-.03.35-.02.34-.03.34-.03.35-.02.34-.03.35-.02.34-.03.34-.02.35-.03.34-.03.35-.02.34-.03.34-.02.35-.03.34-.03.35-.02.34-.03.34-.02.35-.03.34-.02.35-.03.34-.03.34-.02.35-.03.34-.03.35-.02.34-.03.34-.02.35-.03.34-.03.35-.02.34-.03.34-.02.35-.03.34-.03.35-.02.34-.03.34-.02.35-.03.34-.03.35-.02.34-.03.34-.02.35-.03.34-.02.35-.03.34-.02.34-.03.35-.03.34-.02.35-.03.34-.02.34-.03.35-.03.34-.02.35-.03.34-.02.34-.03.35-.03.34-.02.35-.03.34-.02.34-.03.35-.03.34-.02.35-.03.34-.02.34-.03.35-.03.34-.02.35-.03.34-.02.34-.03.35-.03.34-.02.34-.03.35-.03.34-.02.35-.03.34-.02.34-.03.35-.02.34-.03.35-.02.34-.03.34-.03.35-.02.34-.03.35-.03.34-.02.34-.03.35-.02.34-.03.35-.02.34-.03.34-.03.35-.02.34-.03.35-.03.34-.02.34-.03.35-.02.34-.03.35-.02.34-.03.34-.03.35-.02.34-.03.35-.03.34-.02.34-.03.35-.02.34-.03.35-.02.34-.03.34-.02.35-.03.34-.03.35-.02.34-.03.34-.03.35-.02.34-.03.35-.02.34-.03.34-.02.35-.03.34-.03.35-.02.34-.03.34-.03.35-.02.34-.03.35-.02.34-.03.34-.03.35-.02.34-.03.35-.02.34-.03.34-.03.35-.02.34-.03.35-.02.34-.03.34-.03.35-.02.34-.03.35-.02.34-.03.34-.02.35-.03.34-.03.35-.02.34-.03.34-.02.35-.03.34-.03.35-.02.34-.03.34-.02.35-.03.34-.03.35-.02.34-.03.34-.02.35-.03.34-.03.35-.02.34-.03.34-.02.35-.03.34-.02.35-.03.34-.03.34-.02.35-.03.34-.03.35-.02.34-.03.34-.02.35-.03.34-.02.35-.03.34-.03.34-.02.35-.03.34-.02.35-.03.34-.03.34-.02.35-.03.34-.02.35-.03.34-.03.34-.02.35-.03.34-.02.35-.03.34-.03.34-.02.35-.03.34-.03.35-.02.34-.03.34-.02.35-.03.34-.02.35-.03.34-.03.34-.02.35-.03.34-.03.35-.02.34-.03.34-.02.35-.03.34-.03.35-.02.34-.03.34-.02.35-.03.34-.02.35-.03.34-.03.34-.02.35-.03.34-.03.35-.02.34-.03.34-.02.35-.03.34-.02.35-.03.34-.03.34-.02.35-.03.34-.02.35-.03.34-.03.34-.02.35-.03.34-.02.35-.03.34-.03.34-.02.35-.03.34-.02.35-.03.34-.03.34-.02.35-.03.34-.02.35-.03.34-.02.34-.03.35-.03.34-.02.35-.03.34-.02.34-.03.35-.03.34-.02.35-.03.34-.02.34-.03.35-.03.34-.02.35-.03.34-.02.34-.03.35-.03.34-.02.35-.03.34-.03.34-.02.35-.03.34-.02.34-.03.35-.02.34-.03.35-.03.34-.02.34-.03.35-.03.34-.02.35-.03.34-.02.34-.03.35-.02.34-.03.35-.03.34-.02.34-.03.35-.02.34-.03.35-.03.34-.02.34-.03.35-.02.34-.03.35-.02.34-.03.34-.03.35-.02.34-.03.35-.03.34-.02.34-.03.35-.02.34-.03.35-.03.34-.02.34-.03.35-.02.34-.03.35-.03.34-.02.34-.03.35-.02.34-.03.35-.03.34-.02.34-.03.35-.02.34-.03.35-.02.34-.03.34-.03.35-.02.34-.03.35-.03.34-.02.34-.03.35-.02.34-.03.35-.02.34-.03.34-.03.35-.02.34-.03.35-.03.34-.02.34-.03.35-.02.34-.03.35-.02.34-.03.34-.03.35-.02.34-.03.35-.02.34-.03.34-.03.35-.02.34-.03.35-.02.34-.03.34-.02.35-.03.34-.03.35-.02.34-.03.34-.02.35-.03.34-.03.35-.02.34-.03.34-.02.35-.03.34-.02.35-.03.34-.03.34-.02.35-.03.34-.03.35-.02.34-.03.34-.02.35-.03.34-.03.35-.02.34-.03.34-.02.35-.03.34-.03.35-.02.34-.03.34-.02.35-.03.34-.03.35-.02.34-.03.34-.02.35-.03.34-.02.35-.03.34-.03.34-.02.35-.03.34-.02.35-.03.34-.03.34-.02.35-.03.34-.02.35-.03.34-.03.34-.02.35-.03.34-.02.35-.03.34-.03.34-.02.35-.03.34-.03.35-.02.34-.03.34-.02.35-.03.34-.02.35-.03.34-.03.34-.02.35-.03.34-.03.35-.02.34-.03.34-.02.35-.03.34-.02.35-.03.34-.02.34-.03.35-.03.34-.02.35-.03.34-.03.34-.02.35-.03.34-.02.35-.03.34-.02.34-.03.35-.03.34-.02.35-.03.34-.03.34-.02.35-.03.34-.02.35-.03.34-.02.34-.03.35-.03.34-.02.35-.03.34-.03.34-.02.35-.03.34-.02.35-.03.34-.02.34-.03.35-.02.34-.03.35-.03.34-.02.34-.03.35-.03.34-.02.35-.03.34-.02.34-.03.35-.02.34-.03.34-.03.35-.02.34-.03.35-.02.34-.03.34-.03.35-.02.34-.03.35-.03.34-.02.34-.03.35-.02.34-.03.35-.02.34-.03.34-.03.35-.02.34-.03.35-.03.34-.02.34-.03.35-.02.34-.03.35-.02.34-.03.34-.02.35-.03.34-.03.35-.02.34-.03.34-.03.35-.02.34-.03.35-.02.34-.03.34-.02.35-.03.34-.02.35-.03.34-.03.34-.02.35-.03.34-.03.35-.02.34-.03.34-.02.35-.03.34-.02.35-.03.34-.03.34-.03.35-.02.34-.03.35-.02.34-.03.34-.02.35-.03.34-.03.35-.02.34-.03.34-.02.35-.03.34-.03.35-.02.34-.03.34-.02.35-.03.34-.03.35-.02.34-.03.34-.02.35-.03.34-.03.35-.02.34-.03.34-.02.35-.03.34-.03.35-.02.34-.03.34-.02.35-.03.34-.03.35-.02.34-.03.34-.02.35-.03.34-.03.35-.02.34-.03.34-.02.35-.03.34-.02.35-.03.34-.02.34-.03.35-.03.34-.02.35-.03.34-.03.34-.02.35-.03.34-.02.35-.03.34-.02.34-.03.35-.03.34-.02.35-.03.34-.02.34-.03.35-.03.34-.03.35-.02.34-.03.34-.02.35-.03.34-.02.35-.03.34-.02.34-.03.35-.03.34-.02.35-.03.34-.03.34-.02.35-.03.34-.02.35-.03.34-.02.34-.03.35-.02.34-.03.35-.03.34-.02.34-.03.35-.03.34-.02.35-.03.34-.02.34-.03.35-.02.34-.03.35-.03.34-.02.34-.03.35-.03.34-.02.35-.03.34-.02.34-.03.35-.02.34-.03.35-.03.34-.02.34-.03.35-.02.34-.03.35-.03.34-.02.34-.03.35-.02.34-.03.35-.02.34-.03.34-.03.35-.02.34-.03.35-.03.34-.02.34-.03.35-.02.34-.03.35-.02.34-.03.34-.03.35-.02.34-.03.35-.03.34-.02.34-.03.35-.02.34-.03.35-.03.34-.02.34-.03.35-.02.34-.03.35-.03.34-.02.34-.03.35-.02.34-.03.35-.03.34-.02.34-.03.35-.02.34-.03.34-.02.35-.03.34-.03.35-.02.34-.03.34-.02.35-.03.34-.03.35-.02.34-.03.34-.02.35-.03.34-.03.35-.02.34-.03.34-.02.35-.03.34-.03.35-.02.34-.03.34-.03.35-.02.34-.03.35-.02.34-.03.34-.02.35-.03.34-.03.35-.02.34-.03.34-.02.35-.03.34-.03.35-.02.34-.03.34-.02.35-.03.34-.02.35-.03.34-.03.34-.02.35-.03.34-.03.35-.02.34-.03.34-.02.35-.03.34-.02.35-.03.34-.03.34-.02.35-.03.34-.03.35-.02.34-.03.34-.02.35-.03.34-.02.35-.03.34-.03.34-.02.35-.03.34-.02.35-.03.34-.03.34-.02.35-.03.34-.02.35-.03.34-.02.34-.03.35-.02.34-.03.35-.03.34-.02.34-.03.35-.03.34-.02.35-.03.34-.02.34-.03.35-.02.34-.03.35-.03.34-.02.34-.03.35-.02.34-.03.35-.03.34-.02.34-.03.35-.03.34-.02.35-.03.34-.02.34-.03.35-.02.34-.03.35-.03.34-.02"/><use xlink:href="#f38a3__a" color="#F44336" transform="matrix(3.75 0 0 3.75 315.58 140.45)"/><use xlink:href="#f38a3__a" color="#F44336" transform="matrix(3.75 0 0 3.75 220.55 37.51)"/></g><path fill="none" d="M28 60.01V162.5M371.99 60.01H28" color="#000"/></svg>