<svg xmlns="http://www.w3.org/2000/svg" xmlns:xlink="http://www.w3.org/1999/xlink" viewBox="0 0 400 200"><path fill="none" d="M0 0h400v200H0z"/><defs><path id="0ae68__c" fill="currentColor" stroke="currentColor" stroke-width=".267" d="M-1-1h2v2h-2z"/><path id="0ae68__a" stroke="currentColor" stroke-width=".267" d="m0-1.33-1.33 2h2.66z"/><path id="0ae68__e" stroke="currentColor" stroke-width=".267" d="M0 1.33 1.265.411.782-1.067l-1.564-.009-.483 1.487z"/><use xlink:href="#0ae68__a" id="0ae68__g" fill="currentColor" stroke="none"/><use xlink:href="#0ae68__a" id="0ae68__b" stroke="currentColor" transform="rotate(180)"/><use xlink:href="#0ae68__b" id="0ae68__f" fill="currentColor" stroke="none"/><circle id="0ae68__d" cx="0" cy="0" r="1" stroke="currentColor" stroke-width=".267"/></defs><path fill="none" stroke="#CCC" stroke-linecap="round" stroke-linejoin="round" stroke-width=".1" d="M46.1 162.5V60.01" class="0ae68__gridline" color="#000"/><g fill="none" stroke-linecap="round" stroke-linejoin="round" stroke-width="0" color="#000"><path d="M46.1 162.5V155m0-94.99v7.5"/><text fill="#000" font-family="KaTeX_Main" font-size="8" text-anchor="middle" transform="translate(46.1 172.6)"><tspan> 1</tspan></text></g><path fill="none" stroke="#CCC" stroke-linecap="round" stroke-linejoin="round" stroke-width=".1" d="M82.31 162.5V60.01" class="0ae68__gridline" color="#000"/><g fill="none" stroke-linecap="round" stroke-linejoin="round" stroke-width="0" color="#000"><path d="M82.31 162.5V155m0-94.99v7.5"/><text fill="#000" font-family="KaTeX_Main" font-size="8" text-anchor="middle" transform="translate(82.31 172.6)"><tspan> 2</tspan></text></g><path fill="none" stroke="#CCC" stroke-linecap="round" stroke-linejoin="round" stroke-width=".1" d="M118.52 162.5V60.01" class="0ae68__gridline" color="#000"/><g fill="none" stroke-linecap="round" stroke-linejoin="round" stroke-width="0" color="#000"><path d="M118.52 162.5V155m0-94.99v7.5"/><text fill="#000" font-family="KaTeX_Main" font-size="8" text-anchor="middle" transform="translate(118.52 172.6)"><tspan> 3</tspan></text></g><path fill="none" stroke="#CCC" stroke-linecap="round" stroke-linejoin="round" stroke-width=".1" d="M154.73 162.5V60.01" class="0ae68__gridline" color="#000"/><g fill="none" stroke-linecap="round" stroke-linejoin="round" stroke-width="0" color="#000"><path d="M154.73 162.5V155m0-94.99v7.5"/><text fill="#000" font-family="KaTeX_Main" font-size="8" text-anchor="middle" transform="translate(154.73 172.6)"><tspan> 4</tspan></text></g><path fill="none" stroke="#CCC" stroke-linecap="round" stroke-linejoin="round" stroke-width=".1" d="M190.94 162.5V60.01" class="0ae68__gridline" color="#000"/><g fill="none" stroke-linecap="round" stroke-linejoin="round" stroke-width="0" color="#000"><path d="M190.94 162.5V155m0-94.99v7.5"/><text fill="#000" font-family="KaTeX_Main" font-size="8" text-anchor="middle" transform="translate(190.94 172.6)"><tspan> 5</tspan></text></g><path fill="none" stroke="#CCC" stroke-linecap="round" stroke-linejoin="round" stroke-width=".1" d="M227.15 162.5V60.01" class="0ae68__gridline" color="#000"/><g fill="none" stroke-linecap="round" stroke-linejoin="round" stroke-width="0" color="#000"><path d="M227.15 162.5V155m0-94.99v7.5"/><text fill="#000" font-family="KaTeX_Main" font-size="8" text-anchor="middle" transform="translate(227.15 172.6)"><tspan> 6</tspan></text></g><path fill="none" stroke="#CCC" stroke-linecap="round" stroke-linejoin="round" stroke-width=".1" d="M263.36 162.5V60.01" class="0ae68__gridline" color="#000"/><g fill="none" stroke-linecap="round" stroke-linejoin="round" stroke-width="0" color="#000"><path d="M263.36 162.5V155m0-94.99v7.5"/><text fill="#000" font-family="KaTeX_Main" font-size="8" text-anchor="middle" transform="translate(263.36 172.6)"><tspan> 7</tspan></text></g><path fill="none" stroke="#CCC" stroke-linecap="round" stroke-linejoin="round" stroke-width=".1" d="M299.57 162.5V60.01" class="0ae68__gridline" color="#000"/><g fill="none" stroke-linecap="round" stroke-linejoin="round" stroke-width="0" color="#000"><path d="M299.57 162.5V155m0-94.99v7.5"/><text fill="#000" font-family="KaTeX_Main" font-size="8" text-anchor="middle" transform="translate(299.57 172.6)"><tspan> 8</tspan></text></g><path fill="none" stroke="#CCC" stroke-linecap="round" stroke-linejoin="round" stroke-width=".1" d="M335.78 162.5V60.01" class="0ae68__gridline" color="#000"/><g fill="none" stroke-linecap="round" stroke-linejoin="round" stroke-width="0" color="#000"><path d="M335.78 162.5V155m0-94.99v7.5"/><text fill="#000" font-family="KaTeX_Main" font-size="8" text-anchor="middle" transform="translate(335.78 172.6)"><tspan> 9</tspan></text></g><path fill="none" stroke="#CCC" stroke-linecap="round" stroke-linejoin="round" stroke-width=".1" d="M371.99 162.5V60.01" class="0ae68__gridline" color="#000"/><g fill="none" stroke-linecap="round" stroke-linejoin="round" stroke-width="0" color="#000"><path d="M371.99 162.5V155m0-94.99v7.5"/><text fill="#000" font-family="KaTeX_Main" font-size="8" text-anchor="middle" transform="translate(371.99 172.6)"><tspan> 10</tspan></text></g><g fill="none" stroke-linecap="round" stroke-linejoin="round" stroke-width="0" color="#000"><path d="M371.99 162.5h-7.5"/><text fill="#000" font-family="KaTeX_Main" font-size="8" transform="translate(378.99 165.1)"><tspan>1.00</tspan></text></g><g fill="none" stroke-linecap="round" stroke-linejoin="round" stroke-width="0" color="#000"><path d="M371.99 151.11h-7.5"/><text fill="#000" font-family="KaTeX_Main" font-size="8" transform="translate(378.99 153.71)"><tspan>1.20</tspan></text></g><g fill="none" stroke-linecap="round" stroke-linejoin="round" stroke-width="0" color="#000"><path d="M371.99 139.72h-7.5"/><text fill="#000" font-family="KaTeX_Main" font-size="8" transform="translate(378.99 142.32)"><tspan>1.40</tspan></text></g><g fill="none" stroke-linecap="round" stroke-linejoin="round" stroke-width="0" color="#000"><path d="M371.99 128.34h-7.5"/><text fill="#000" font-family="KaTeX_Main" font-size="8" transform="translate(378.99 130.94)"><tspan>1.60</tspan></text></g><g fill="none" stroke-linecap="round" stroke-linejoin="round" stroke-width="0" color="#000"><path d="M371.99 116.95h-7.5"/><text fill="#000" font-family="KaTeX_Main" font-size="8" transform="translate(378.99 119.55)"><tspan>1.80</tspan></text></g><g fill="none" stroke-linecap="round" stroke-linejoin="round" stroke-width="0" color="#000"><path d="M371.99 105.56h-7.5"/><text fill="#000" font-family="KaTeX_Main" font-size="8" transform="translate(378.99 108.16)"><tspan>2.00</tspan></text></g><g fill="none" stroke-linecap="round" stroke-linejoin="round" stroke-width="0" color="#000"><path d="M371.99 94.17h-7.5"/><text fill="#000" font-family="KaTeX_Main" font-size="8" transform="translate(378.99 96.77)"><tspan>2.20</tspan></text></g><g fill="none" stroke-linecap="round" stroke-linejoin="round" stroke-width="0" color="#000"><path d="M371.99 82.79h-7.5"/><text fill="#000" font-family="KaTeX_Main" font-size="8" transform="translate(378.99 85.39)"><tspan>2.40</tspan></text></g><g fill="none" stroke-linecap="round" stroke-linejoin="round" stroke-width="0" color="#000"><path d="M371.99 71.4h-7.5"/><text fill="#000" font-family="KaTeX_Main" font-size="8" transform="translate(378.99 74)"><tspan>2.60</tspan></text></g><g fill="none" stroke-linecap="round" stroke-linejoin="round" stroke-width="0" color="#000"><path d="M371.99 60.01h-7.5"/><text fill="#000" font-family="KaTeX_Main" font-size="8" transform="translate(378.99 62.61)"><tspan>2.80</tspan></text></g><path fill="none" d="M28 60.01V162.5M371.99 60.01H28" color="#000"/><text stroke-linecap="round" stroke-linejoin="round" stroke-width="0" color="#000" font-family="KaTeX_Main" font-size="10" text-anchor="middle" transform="rotate(-90 61.38 49.88)"><tspan font-weight="bold">Maximum Path Length </tspan><tspan> / log</tspan><tspan dy="3" font-size="8">2</tspan><tspan dy="-3">(Size)</tspan></text><text stroke-linecap="round" stroke-linejoin="round" stroke-width="0" color="#000" font-family="KaTeX_Main" font-size="10" text-anchor="middle" transform="translate(199.99 195.75)"><tspan>Operations / 10</tspan><tspan dy="-5" font-size="8">6</tspan></text><text stroke-linecap="round" stroke-linejoin="round" color="#000" font-family="KaTeX_Main" font-size="8" transform="translate(110.4 10.11)"><tspan>Conc</tspan></text><g fill="none" stroke="currentColor" stroke-linecap="round" stroke-linejoin="round" color="#000"><path stroke="#D336C8" stroke-dasharray="1.0,2.0" d="M74.9 7.51h29.9M28 150.26l.36.11.36.1.37.1.36.1.36.09.36.1.36.09.37.09.36.09.36.08.36.09.37.08.36.08.36.08.36.08.36.08.37.07.36.08.36.07.36-2.86.36.07.37.08.36.07.36.07.36.07.36.07.37.07.36.06.36.07.36.06.36.07.37.06.36.06.36.06.36.06.37.06.36.06.36.06.36.05.36.06.37.06.36.05.36.06.36.05.36.05.37.05.36.06.36.05.36.05.36.05h226.31l.37-2.86h.36l.36 2.86h98.49"/><use xlink:href="#0ae68__c" color="#D336C8" transform="matrix(3.75 0 0 3.75 354.25 150.88)"/><use xlink:href="#0ae68__c" color="#D336C8" transform="matrix(3.75 0 0 3.75 89.85 7.51)"/></g><text stroke-linecap="round" stroke-linejoin="round" color="#000" font-family="KaTeX_Main" font-size="8" transform="translate(110.4 25.11)"><tspan>LBSTBottomUp</tspan></text><g fill="none" stroke="currentColor" stroke-linecap="round" stroke-linejoin="round" color="#000"><path stroke="#3B75EA" d="M74.9 22.51h29.9M28 156.28l.36-2.91.36 3.1.37-5.9.36 3.09.36-2.9.36 3.08.36 3.06.37-8.84.36 6.04.36.08.36-2.88.37-2.88.36 6 .36.07.36.08.36.07.37.07.36-2.86.36 3.01.36.07.36.06.37.07.36.07.36.06.36.06.36-2.85.37 2.98.36.06.36.06.36-2.84.36 2.96.37.06.36.05.36-2.84.36 2.95.37.06.36-2.83.36-2.83.36 5.82.36-2.83.37-2.82.36 5.8.36-2.82.36 2.92.36.05.37-8.55.36 8.64.36.05.36-2.81.36 2.9.37-8.57.36 8.57.36-5.71.36 5.71.37-8.57.36 5.71H49l.36-2.85.37 2.85.36-2.85.36 2.85h.36l.36-2.85.37 2.85h1.81l.36-2.85.36 2.85h.36l.37-2.85h.36l.36-2.86.36 5.71h2.9l.36-2.85h.36l.36 2.85h1.45l.36-5.71.37 5.71h.72l.36 2.86h.37l.36-2.86.36 2.86.36-2.86h1.45l.36-5.71.36 2.86.37 2.85.36-2.85h.36l.36 2.85.36-2.85.37 2.85h2.53l.36-2.85.37 2.85h.36l.36-2.85h1.09l.36 2.85h.72l.36-2.85.37-5.72.36 8.57.36-2.85.36 2.85h.36l.37-2.85.36 2.85h1.45l.36-5.71.36 5.71h.73l.36 2.86h.72l.36-2.86h1.09l.36-2.85.36 2.85h1.09l.36-2.85.37 2.85h.36l.36-5.71.36 2.86.36 2.85h1.45l.36-2.85h.37l.36 2.85H91l.37-2.85h.36l.36 2.85.36-2.85.36 2.85.37-2.85h.36l.36 2.85h1.09l.36-2.85h.36l.36 2.85h.37l.36-2.85.36 2.85h.36l.36-2.85.37 2.85.36-5.71.36 5.71.36-2.85.36 2.85h3.63l.36-2.85h.36l.36 2.85h.36l.37-5.71.36 5.71h1.45l.36-2.85h.36l.36 2.85.37-2.85h.36l.36 2.85.36-2.85h.36l.37 2.85.36-11.42.36 11.42h.36l.36-2.85.37 2.85h1.81l.36-2.85.36 2.85h.36l.36-2.85.37 2.85h1.45l.36-2.85.36 2.85h.72l.37-2.85.36 2.85.36-2.85.36 2.85h1.09l.36-2.85.36 2.85h.36l.37-2.85.36 2.85h.36l.36-2.85.37 2.85h3.62l.36-2.85h.36l.36-2.86.36 5.71h1.09l.36-2.85h.36l.37 2.85h.36l.36-5.71.36 5.71h.37l.36-2.85.36 2.85h.72l.37-2.85.36 2.85.36-2.85.36 2.85h2.9l.36-5.71.36 5.71h1.45l.36-2.85h.37l.36 2.85.36-8.57.36 8.57.36-2.85.37 2.85h.36l.36-2.85.36 2.85h.36l.37-2.85h.36l.36 2.85.36-2.85h.36l.37 2.85h.72l.36-2.85.37 2.85h1.44l.37-2.85h.36l.36 2.85.36-2.85.36 2.85h.37l.36-2.85.36 2.85.36-2.85.36 2.85h.37l.36-2.85.36 2.85h1.45l.36-5.71.36 5.71.37-2.85.36 2.85h.36l.36-2.85.36 2.85h.73l.36-2.85h.36l.36 2.85h1.45l.37-2.85.36 2.85h.36l.36-2.85.36 2.85.37-2.85h.36l.36 2.85.36-5.71.36 5.71.37-2.85h.36l.36 2.85h.36l.36-2.85.37 2.85h.36l.36-2.85h.36l.36 2.85h1.45l.37-2.85h.36l.36 2.85h.36l.36-2.85.37 2.85.36-2.85h.36l.36 2.85h1.45l.36-2.85.36 2.85h.73l.36-2.85.36 2.85h1.09l.36-2.85.36 2.85h2.18l.36-2.85.36 2.85.36-2.85.36-2.86.37 5.71.36-2.85h.36l.36 2.85.36-5.71.37 2.86.36 2.85.36-2.85h.36l.37 2.85.36-2.85h.36l.36 2.85.36-2.85.37 2.85h1.08l.36-2.85h.37l.36 2.85h.36l.36 2.86.36-2.86.37 2.86.36-2.86h1.09l.36-2.85.36-2.86.36 5.71h1.09l.36-5.71.36 2.86.36 2.85H200l.36-2.85.36-5.72.36 5.72.36-5.72.37 8.57h.36l.36-5.71.36 5.71h.36l.37-2.85.36 2.85.36-2.85.36 2.85h.73l.36-2.85.36 2.85.36-2.85.36 2.85h1.45l.37-2.85.36 2.85h1.45l.36-2.85.36 2.85h.36l.36-2.85.37 2.85h1.44l.37-2.85h.36l.36 2.85h2.17l.37-5.71.36 5.71.36-5.71.36 5.71h.73l.36-5.71.36 5.71h.72l.37-5.71.36 5.71h1.81l.36-2.85.36 2.85.37-5.71.36 5.71h.36l.36-2.85.36 2.85h1.81l.37-2.85h.36l.36 2.85.36-2.85.36 2.85h.37l.36-5.71.36 5.71h3.26l.36-5.71.36 5.71h2.54l.36-5.71.36 2.86.36 2.85h3.26l.37-2.85.36 2.85h.36l.36-5.71.36 5.71h.37l.36-2.85.36 2.85.36-2.85.36 2.85h.37l.36 2.86h.72l.37-2.86h.72l.36-2.85.36 2.85h1.09l.36-2.85.36 2.85.37-2.85.36 2.85.36-5.71.36 5.71.36-2.85.37 2.85h.36l.36-2.85h.36l.37 2.85h.36l.36-5.71.36 5.71h.73l.36-2.85.36 2.85.36-2.85h.36l.37 2.85.36-2.85.36 2.85h.72l.37-2.85.36 2.85.36-2.85h.36l.36 2.85h.73l.36-2.85.36 2.85.37-2.85h.36l.36 2.85.36-2.85h.36l.37 5.71h.36l.36-2.86h1.81l.36-5.71.36 5.71h1.82l.36-2.85.36 2.85h3.26l.36-2.85h1.09l.36 2.85h.72l.36-5.71.37 5.71h1.81l.36-2.85.36 2.85h.73l.36-2.85h.72l.36 2.85h.37l.36-2.85.36 2.85h.36l.36 2.86.37-5.71.36 5.71.36-5.71.36 2.85h2.9l.36-5.71.36 2.86.37 2.85h.36l.36-2.85h.36l.36 2.85h.37l.36-2.85h.36l.36 2.85.36-2.85h1.45l.37 2.85h.36l.36-5.71h.36l.36 5.71h.73l.36-2.85h.36l.36 2.85.37-2.85.36 2.85.36-2.85.36 2.85.36-2.85.37 2.85h.72l.36-2.85.37 2.85h.36l.36 2.86.36-2.86h.36l.37 2.86.36-2.86h.72l.36-5.71.37 2.86.36 2.85.36-2.85.36 2.85h2.9l.36-2.85.36 2.85.37-2.85.36 2.85.36-2.85.36 2.85h.36l.37-2.85h.36l.36 2.85.36-5.71.36 5.71.37-2.85h.36l.36 2.85.36-2.85.36 2.85h.37l.36-2.85h.36l.36 2.85.37-2.85h.36l.36 2.85h.36l.36-5.71.37 5.71h2.17l.36 2.86.36-2.86h1.45l.36-2.85.37 2.85h1.08l.36-2.85.37 2.85h.36l.36-2.85.36 2.85h.36l.37-2.85.36 2.85h2.17l.36-2.85.36 2.85.37-2.85.36 2.85h.36l.36-2.85h.37l.36 2.85h.36l.36-2.85.36 2.85.37-8.57.36 5.72.36 2.85h1.81l.36-2.85h.73l.36 5.71h.36l.36-2.86.37 2.86.36-5.71.36 2.85h.72l.37-2.85.36 2.85h3.62l.36-2.85h.36l.36 2.85.37-2.85.36 2.85h.72l.37-5.71h.36l.36 5.71.36-2.85.36 2.85h.73l.36-2.85.36 2.85h1.09l.36-2.85.36-2.86.36 2.86.37 2.85h1.08l.37-2.85.36 2.85h3.62l.36-2.85h.72l.37-2.86.36 2.86.36 2.85h2.54l.36-2.85.36 2.85h1.81l.36-2.85.36 2.85.37-2.85.36 2.85.36-5.71.36 5.71h2.18l.36-2.85.36 2.85h1.81"/><use xlink:href="#0ae68__d" color="#3B75EA" transform="matrix(3.75 0 0 3.75 67.83 150.88)"/><use xlink:href="#0ae68__d" color="#3B75EA" transform="matrix(3.75 0 0 3.75 89.85 22.51)"/></g><text stroke-linecap="round" stroke-linejoin="round" color="#000" font-family="KaTeX_Main" font-size="8" transform="translate(110.4 40.11)"><tspan>TreapTopDown</tspan></text><g fill="none" stroke="currentColor" stroke-linecap="round" stroke-linejoin="round" color="#000"><path stroke="#F44336" stroke-dasharray="4.5,2.0,0.5,2.0,0.5,2.0" d="M74.9 37.51h29.9M28 90.11l.36.2.36.19.37.18.36.19.36.17.36.18.36.17.37.17.36-2.81.36.17.36.16.37-2.8.36.16.36.16.36.15.36.15.37.15.36.14.36.15.36.14.36.14.37.14.36.13.36.13.36.13.36.13.37.13.36.12.36.12.36.13.36.12.37.11.36.12.36.11.36.12.37.11.36.11.36.11.36.1.36.11.37.1.36.11.36.1.36.1.36.1.37.1.36.09.36.1.36.09.36.1h10.51l.36-2.86h2.89l.37 2.86h1.81l.36-2.86h9.78l.36-2.86h19.55l.36 2.86h1.45l.36-2.86h9.78l.36 2.86h8.69l.36 2.86h4.71l.36-2.86.37-2.86h11.58l.36-2.85h2.54l.36 2.85.36-5.71h12.31l.37-2.86h2.53l.36-2.85h18.11l.36 2.85h9.42l.36-2.85h14.48l.36 2.85h5.8l.36 2.86h24.26l.36 2.86h.73l.36-2.86h5.79l.36 2.86h.37l.36 2.85.36 2.86h7.97l.36-2.86h11.58l.37-2.85h8.32l.37 8.57h10.5l.36-2.86h1.81l.36-2.86h18.83l.36-2.85h4.71l.36 2.85h2.9l.36-2.85h29.69l.37-2.86h14.84l.36 2.86.37 2.85h6.88l.36-2.85.36-5.72h2.53l.37-2.85h1.44l.37-2.86h6.51l.37-2.86h4.7l.37-2.85h.72"/><use xlink:href="#0ae68__e" color="#F44336" transform="matrix(3.75 0 0 3.75 125.4 85.17)"/><use xlink:href="#0ae68__e" color="#F44336" transform="matrix(3.75 0 0 3.75 89.85 37.51)"/></g><text stroke-linecap="round" stroke-linejoin="round" color="#000" font-family="KaTeX_Main" font-size="8" transform="translate(241.1 10.11)"><tspan>AVLTopDown</tspan></text><g fill="none" stroke="currentColor" stroke-linecap="round" stroke-linejoin="round" color="#000"><path stroke="#29C3F6" stroke-dasharray="2.5,4.0" d="M205.6 7.51h29.9M28 153.27l.36.1.36.1.37.09.36.1.36.09.36.09.36.09.37.08.36.09.36.08.36.08.37.08.36.08.36.07.36.08.36.07.37.07.36.08.36.07.36-2.87.36.07.37.07.36.07.36.07.36.07.36.06.37.07.36.06.36.06.36.07.36.06.37.06.36.06.36.05.36.06.37.06.36.06.36.05.36.06.36.05.37.05.36.06.36.05.36.05.36.05.37.05.36.05.36.05.36.05.36.04h226.31l.37-2.85h.36l.36 2.85h98.49"/><use xlink:href="#0ae68__f" color="#29C3F6" transform="matrix(3.75 0 0 3.75 182.98 153.73)"/><use xlink:href="#0ae68__f" color="#29C3F6" transform="matrix(3.75 0 0 3.75 220.55 7.51)"/></g><text stroke-linecap="round" stroke-linejoin="round" stroke-width=".5" color="#000" font-family="KaTeX_Main" font-size="8" transform="translate(241.1 25.11)"><tspan>AVLBottomUp</tspan></text><g fill="none" stroke="currentColor" stroke-linecap="round" stroke-linejoin="round" stroke-width=".5" color="#000"><path stroke="#000" d="M205.6 22.51h29.9M28 153.27l.36.1.36.1.37.09.36.1.36.09.36.09.36.09.37.08.36.09.36.08.36.08.37.08.36.08.36.07.36.08.36.07.37.07.36.08.36.07.36-2.87.36.07.37.07.36.07.36.07.36.07.36.06.37.07.36.06.36.06.36.07.36.06.37.06.36.06.36.05.36.06.37.06.36.06.36.05.36.06.36.05.37.05.36.06.36.05.36.05.36.05.37.05.36.05.36.05.36.05.36.04h226.31l.37-2.85h.36l.36 2.85h98.49"/><use xlink:href="#0ae68__g" transform="matrix(3.75 0 0 3.75 240.55 153.73)"/><use xlink:href="#0ae68__g" transform="matrix(3.75 0 0 3.75 220.55 22.51)"/></g><text stroke-linecap="round" stroke-linejoin="round" color="#000" font-family="KaTeX_Main" font-size="8" transform="translate(241.1 40.11)"><tspan>RedBlackBottomUp</tspan></text><g fill="none" stroke="currentColor" stroke-linecap="round" stroke-linejoin="round" color="#000"><path stroke="#F44336" d="M205.6 37.51h29.9M28 120.19l.36.15.36.14.37.15.36.14.36.13.36.14.36.13.37.13.36.12.36.13.36.12.37.12.36.12.36.11.36.11.36.11.37.11.36.11.36.11.36.1.36.1.37.1.36.1.36.1.36-2.82.36.09.37.1.36.09.36.09.36.1.36.09.37.08.36.09.36.09.36.08.37.09.36.08.36.08.36.08.36.08.37.08.36.08.36.08.36.07.36.08.37.07.36.08.36.07.36.07.36.07.37 8.57h1.08l.37-2.86h.72l.36 2.86h2.9l.36-2.86h6.16l.36 2.86h1.08l.37-2.86h1.08l.36 2.86h.37l.36 2.86h.36l.36-2.86h3.62l.37 2.86.36-2.86H70l.37-2.86.36 2.86.36-2.86h3.26l.36 2.86h.36l.36-2.86h4.71l.36 2.86h1.09l.36 2.86.36-2.86h4.71l.36 2.86h1.09l.36-2.86h2.54l.36-2.86h6.88l.36 2.86h3.98l.37 2.86h.72l.36-2.86h2.17l.37 2.86.36-2.86h6.15l.37-2.86h1.08l.36 5.72h.37l.36-2.86.36 2.86h.73l.36-2.86h.36l.36 2.86h1.81l.36-2.86h3.99l.36 2.86h.72l.37-2.86h.36l.36 2.86h.36l.36-2.86h.37l.36 2.86.36-2.86h2.9l.36 2.86h.72l.37-2.86h2.53l.36 2.86.36-2.86h2.9l.36 2.86h.73l.36-2.86h1.09l.36 2.86h1.45l.36-2.86h1.45l.36 2.86.36-2.86h3.98l.37 2.86h1.08l.36 2.85h.37l.36-2.85h1.08l.37-2.86h1.08l.37 2.86h1.08l.36-2.86h3.26l.36 5.71.37-2.85h.36l.36-2.86h4.35l.36 2.86.36-2.86h9.78l.36 2.86h.36l.36-2.86h6.16l.36 2.86h.72l.37-2.86h3.26l.36 2.86h.72l.36-2.86h1.81l.37 2.86.36-2.86h1.09l.36-2.86h.72l.36 2.86.37-2.86h.36l.36 2.86.36 2.86h.73l.36-2.86h2.53l.37-2.86h.36l.36 2.86.36-2.86h.73l.36 2.86h2.17l.36 2.86.36-2.86h3.63l.36 2.86.36-2.86h2.9l.36-2.86h.36l.36 2.86.36-2.86h.37l.36 2.86.36 2.86h.36l.37 2.85.36-2.85h.36l.36 2.85.36-2.85h1.45l.36 2.85.37-2.85h1.08l.36-2.86h5.8l.36 2.86h.72l.37-2.86h6.51l.37 2.86h.72l.36-2.86h5.43l.37 5.71h1.08l.36-2.85h2.54l.36-2.86h1.09l.36 2.86h.36l.36-2.86h1.45l.36 2.86.37 2.85.36-2.85h.36l.36-2.86h3.99l.36 2.86h.36l.36-2.86h3.26l.36 2.86h.36l.37-2.86.36 2.86.36-2.86h4.35l.36 2.86h5.43l.36-2.86h15.93l.37 2.86h.72l.36-2.86h2.54l.36 2.86h1.09l.36-2.86h7.24l.36 2.86.36-2.86h1.81l.37 2.86h.36l.36-2.86h2.54l.36 2.86h.72l.36-2.86h1.81l.37 2.86h.36l.36-2.86h5.43l.36-2.86.37 2.86h2.17l.36 2.86h1.09l.36-2.86.36 2.86.36-2.86h1.45l.36 2.86.37-2.86h8.32l.37 2.86.36-2.86h6.88l.36 2.86.36-2.86h1.81l.36 2.86.37 2.85.36-2.85h1.08l.37-2.86h1.45l.36 2.86.36-2.86h5.43l.36 2.86h.37l.36-2.86h2.17l.36 2.86h.36l.37-2.86h.72l.36 2.86.36-2.86h7.25l.36 2.86h.72l.36-2.86.37 2.86h.72l.36-2.86h2.18l.36 2.86.36-2.86"/><use xlink:href="#0ae68__a" color="#F44336" transform="matrix(3.75 0 0 3.75 298.12 130.88)"/><use xlink:href="#0ae68__a" color="#F44336" transform="matrix(3.75 0 0 3.75 220.55 37.51)"/></g><path fill="none" d="M28 60.01V162.5M371.99 60.01H28" color="#000"/></svg>