<svg xmlns="http://www.w3.org/2000/svg" xmlns:xlink="http://www.w3.org/1999/xlink" viewBox="0 0 400 200"><path fill="none" d="M0 0h400v200H0z"/><defs><use xlink:href="#90967__a" id="90967__f" stroke="currentColor" transform="rotate(180)"/><use xlink:href="#90967__b" id="90967__c" stroke="currentColor" transform="rotate(45)"/><use xlink:href="#90967__c" id="90967__e" fill="currentColor" stroke="none"/><path id="90967__b" stroke="currentColor" stroke-width=".267" d="M-1-1h2v2h-2z"/><path id="90967__a" stroke="currentColor" stroke-width=".267" d="m0-1.33-1.33 2h2.66z"/><circle id="90967__d" cx="0" cy="0" r="1" stroke="currentColor" stroke-width=".267"/></defs><path fill="none" stroke="#CCC" stroke-linecap="round" stroke-linejoin="round" stroke-width=".1" d="M46.1 162.5V45.01" class="90967__gridline" color="#000"/><g fill="none" stroke-linecap="round" stroke-linejoin="round" stroke-width="0" color="#000"><path d="M46.1 162.5V155m0-109.99v7.5"/><text fill="#000" font-family="KaTeX_Main" font-size="8" text-anchor="middle" transform="translate(46.1 172.6)"><tspan> 1</tspan></text></g><path fill="none" stroke="#CCC" stroke-linecap="round" stroke-linejoin="round" stroke-width=".1" d="M82.31 162.5V45.01" class="90967__gridline" color="#000"/><g fill="none" stroke-linecap="round" stroke-linejoin="round" stroke-width="0" color="#000"><path d="M82.31 162.5V155m0-109.99v7.5"/><text fill="#000" font-family="KaTeX_Main" font-size="8" text-anchor="middle" transform="translate(82.31 172.6)"><tspan> 2</tspan></text></g><path fill="none" stroke="#CCC" stroke-linecap="round" stroke-linejoin="round" stroke-width=".1" d="M118.52 162.5V45.01" class="90967__gridline" color="#000"/><g fill="none" stroke-linecap="round" stroke-linejoin="round" stroke-width="0" color="#000"><path d="M118.52 162.5V155m0-109.99v7.5"/><text fill="#000" font-family="KaTeX_Main" font-size="8" text-anchor="middle" transform="translate(118.52 172.6)"><tspan> 3</tspan></text></g><path fill="none" stroke="#CCC" stroke-linecap="round" stroke-linejoin="round" stroke-width=".1" d="M154.73 162.5V45.01" class="90967__gridline" color="#000"/><g fill="none" stroke-linecap="round" stroke-linejoin="round" stroke-width="0" color="#000"><path d="M154.73 162.5V155m0-109.99v7.5"/><text fill="#000" font-family="KaTeX_Main" font-size="8" text-anchor="middle" transform="translate(154.73 172.6)"><tspan> 4</tspan></text></g><path fill="none" stroke="#CCC" stroke-linecap="round" stroke-linejoin="round" stroke-width=".1" d="M190.94 162.5V45.01" class="90967__gridline" color="#000"/><g fill="none" stroke-linecap="round" stroke-linejoin="round" stroke-width="0" color="#000"><path d="M190.94 162.5V155m0-109.99v7.5"/><text fill="#000" font-family="KaTeX_Main" font-size="8" text-anchor="middle" transform="translate(190.94 172.6)"><tspan> 5</tspan></text></g><path fill="none" stroke="#CCC" stroke-linecap="round" stroke-linejoin="round" stroke-width=".1" d="M227.15 162.5V45.01" class="90967__gridline" color="#000"/><g fill="none" stroke-linecap="round" stroke-linejoin="round" stroke-width="0" color="#000"><path d="M227.15 162.5V155m0-109.99v7.5"/><text fill="#000" font-family="KaTeX_Main" font-size="8" text-anchor="middle" transform="translate(227.15 172.6)"><tspan> 6</tspan></text></g><path fill="none" stroke="#CCC" stroke-linecap="round" stroke-linejoin="round" stroke-width=".1" d="M263.36 162.5V45.01" class="90967__gridline" color="#000"/><g fill="none" stroke-linecap="round" stroke-linejoin="round" stroke-width="0" color="#000"><path d="M263.36 162.5V155m0-109.99v7.5"/><text fill="#000" font-family="KaTeX_Main" font-size="8" text-anchor="middle" transform="translate(263.36 172.6)"><tspan> 7</tspan></text></g><path fill="none" stroke="#CCC" stroke-linecap="round" stroke-linejoin="round" stroke-width=".1" d="M299.57 162.5V45.01" class="90967__gridline" color="#000"/><g fill="none" stroke-linecap="round" stroke-linejoin="round" stroke-width="0" color="#000"><path d="M299.57 162.5V155m0-109.99v7.5"/><text fill="#000" font-family="KaTeX_Main" font-size="8" text-anchor="middle" transform="translate(299.57 172.6)"><tspan> 8</tspan></text></g><path fill="none" stroke="#CCC" stroke-linecap="round" stroke-linejoin="round" stroke-width=".1" d="M335.78 162.5V45.01" class="90967__gridline" color="#000"/><g fill="none" stroke-linecap="round" stroke-linejoin="round" stroke-width="0" color="#000"><path d="M335.78 162.5V155m0-109.99v7.5"/><text fill="#000" font-family="KaTeX_Main" font-size="8" text-anchor="middle" transform="translate(335.78 172.6)"><tspan> 9</tspan></text></g><path fill="none" stroke="#CCC" stroke-linecap="round" stroke-linejoin="round" stroke-width=".1" d="M371.99 162.5V45.01" class="90967__gridline" color="#000"/><g fill="none" stroke-linecap="round" stroke-linejoin="round" stroke-width="0" color="#000"><path d="M371.99 162.5V155m0-109.99v7.5"/><text fill="#000" font-family="KaTeX_Main" font-size="8" text-anchor="middle" transform="translate(371.99 172.6)"><tspan> 10</tspan></text></g><g fill="none" stroke-linecap="round" stroke-linejoin="round" stroke-width="0" color="#000"><path d="M371.99 162.5h-7.5"/><text fill="#000" font-family="KaTeX_Main" font-size="8" transform="translate(378.99 165.1)"><tspan>0.80</tspan></text></g><g fill="none" stroke-linecap="round" stroke-linejoin="round" stroke-width="0" color="#000"><path d="M371.99 149.45h-7.5"/><text fill="#000" font-family="KaTeX_Main" font-size="8" transform="translate(378.99 152.05)"><tspan>1.00</tspan></text></g><g fill="none" stroke-linecap="round" stroke-linejoin="round" stroke-width="0" color="#000"><path d="M371.99 136.39h-7.5"/><text fill="#000" font-family="KaTeX_Main" font-size="8" transform="translate(378.99 138.99)"><tspan>1.20</tspan></text></g><g fill="none" stroke-linecap="round" stroke-linejoin="round" stroke-width="0" color="#000"><path d="M371.99 123.34h-7.5"/><text fill="#000" font-family="KaTeX_Main" font-size="8" transform="translate(378.99 125.94)"><tspan>1.40</tspan></text></g><g fill="none" stroke-linecap="round" stroke-linejoin="round" stroke-width="0" color="#000"><path d="M371.99 110.28h-7.5"/><text fill="#000" font-family="KaTeX_Main" font-size="8" transform="translate(378.99 112.88)"><tspan>1.60</tspan></text></g><g fill="none" stroke-linecap="round" stroke-linejoin="round" stroke-width="0" color="#000"><path d="M371.99 97.23h-7.5"/><text fill="#000" font-family="KaTeX_Main" font-size="8" transform="translate(378.99 99.83)"><tspan>1.80</tspan></text></g><g fill="none" stroke-linecap="round" stroke-linejoin="round" stroke-width="0" color="#000"><path d="M371.99 84.17h-7.5"/><text fill="#000" font-family="KaTeX_Main" font-size="8" transform="translate(378.99 86.77)"><tspan>2.00</tspan></text></g><g fill="none" stroke-linecap="round" stroke-linejoin="round" stroke-width="0" color="#000"><path d="M371.99 71.12h-7.5"/><text fill="#000" font-family="KaTeX_Main" font-size="8" transform="translate(378.99 73.72)"><tspan>2.20</tspan></text></g><g fill="none" stroke-linecap="round" stroke-linejoin="round" stroke-width="0" color="#000"><path d="M371.99 58.06h-7.5"/><text fill="#000" font-family="KaTeX_Main" font-size="8" transform="translate(378.99 60.66)"><tspan>2.40</tspan></text></g><g fill="none" stroke-linecap="round" stroke-linejoin="round" stroke-width="0" color="#000"><path d="M371.99 45.01h-7.5"/><text fill="#000" font-family="KaTeX_Main" font-size="8" transform="translate(378.99 47.61)"><tspan>2.60</tspan></text></g><path fill="none" d="M28 45.01V162.5M371.99 45.01H28" color="#000"/><text stroke-linecap="round" stroke-linejoin="round" stroke-width="0" color="#000" font-family="KaTeX_Main" font-size="10" text-anchor="middle" transform="rotate(-90 57.63 46.13)"><tspan font-weight="bold">Maximum Path Length </tspan><tspan> / log</tspan><tspan dy="3" font-size="8">2</tspan><tspan dy="-3">(Size)</tspan></text><text stroke-linecap="round" stroke-linejoin="round" stroke-width="0" color="#000" font-family="KaTeX_Main" font-size="10" text-anchor="middle" transform="translate(199.99 195.75)"><tspan>Operations / 10</tspan><tspan dy="-5" font-size="8">6</tspan></text><text stroke-linecap="round" stroke-linejoin="round" color="#000" font-family="KaTeX_Main" font-size="8" transform="translate(132.8 10.11)"><tspan>LBSTBottomUp</tspan></text><g fill="none" stroke="currentColor" stroke-linecap="round" stroke-linejoin="round" color="#000"><path stroke="#3B75EA" d="M97.3 7.51h29.9M28 152.66l.36.09.36.09.37-3.34.36.09.36.09.36.09.36.09.37.08.36.09.36.08.36.08.37.08.36.07.36.08.36.07.36.08.37.07.36.07.36.07.36.07.36.06.37.07.36.07.36.06.36.06.36.07.37.06.36.06.36.06.36.05.36.06.37.06.36.06.36.05.36.06.37.05.36.05.36.06.36.05.36.05.37.05.36.05.36.05.36.05.36.04.37.05.36.05.36.05.36.04.36.05.37.04.36.05.36.04.36.04.37-3.22.36.05.36.04.36.04.36.05.37.04.36.04.36.04.36.05.36.04.37.04.36.04.36.04.36.04.36.04.37.03.36.04.36.04.36.04.37.04.36.03.36.04.36.04.36.03.37.04.36.03.36.04.36.03.36.04.37.03.36.03.36.04.36.03.36.03.37.04.36.03.36.03.36.03.36.03.37.04.36.03.36.03.36.03.37.03.36.03.36.03.36.03.36.03.37.03.36.03.36.03.36.02.36.03.37.03.36.03.36.03.36.02.36.03.37.03.36.03.36.02.36.03.37.03.36.02.36.03.36.02.36.03.37.03.36.02.36.03.36.02.36.03.37.02.36.03.36.02.36.02.36.03.37.02.36.03.36.02.36.02.36.03.37.02.36.02.36.03.36.02.37.02.36.02.36.03.36.02.36.02.37.02.36.03.36.02.36.02.36.02.37.02.36.02.36.02.36.03.36.02.37.02.36.02.36.02.36.02.37-3.09.36.02.36.02.36.03.36.02.37.02.36.02.36.02.36.02.36.02.37.02.36.02.36.02.36.02.36.02.37.02.36.02.36.02.36.02.36.02.37.02.36.02.36.02.36.01.37.02.36.02.36.02.36.02.36.02.37.02.36.01.36.02.36.02.36.02.37.02.36.02.36.01.36.02.36.02.37.02.36.01.36.02.36.02.37.02.36.01.36.02.36.02.36.01.37.02.36.02.36.02.36.01.36.02.37.02.36.01.36.02.36.01.36.02.37.02.36.01.36.02.36.02.37.01.36.02.36.01.36.02.36.01.37.02.36.02.36.01.36.02.36.01.37.02.36.01.36.02.36.01.36.02.37.01.36.02.36.01.36.02.36.01.37.02.36.01.36.02.36.01.37.02.36.01.36.01.36.02.36.01.37.02.36.01.36.01.36.02.36.01.37.02.36.01.36.01.36.02.36.01.37.02.36.01.36.01.36.02.37.01.36.01.36.02.36.01.36.01.37.02.36.01.36.01.36.02.36.01.37.01.36.02.36.01.36.01.36.01.37.02.36.01.36.01.36.02.36.01.37.01.36.01.36.02.36.01.37.01.36.01.36.02.36.01.36.01.37.01.36.01.36.02.36.01.36.01.37.01.36.01.36.02.36.01.36.01.37.01.36.01.36.02.36.01.37.01.36.01.36.01.36.01.36.01.37.02.36.01.36.01.36.01.36.01.37.01.36.01.36.02.36.01.36.01.37.01.36.01.36.01.36.01.36.01.37.01.36.02.36.01.36.01.37.01.36.01.36.01.36.01.36.01.37.01.36.01.36.01.36.01.36.01.37.01.36.02.36.01.36.01.36.01.37.01.36.01.36.01.36.01.37.01.36.01.36.01.36.01.36.01.37.01.36.01.36.01.36.01.36.01.37.01.36.01.36.01.36.01.36.01.37.01.36.01.36.01.36.01.37-2.96.36.01.36.01.36.01.36.01.37.01.36.01.36.01.36.01.36.01.37.01.36.01.36.01.36.01.36.01.37.01.36.01.36.01.36.01.36.01.37.01.36.01.36.01.36.01.37.01.36.01.36.01.36.01.36.01.37.01.36.01h.36l.36.01.36.01.37.01.36.01.36.01.36.01.36.01.37.01.36.01.36.01.36.01.37.01h.36l.36.01.36.01.36.01.37.01.36.01.36.01.36.01.36.01.37.01h.36l.36.01.36.01.36.01.37.01.36.01.36.01.36.01.36.01h.37l.36.01.36.01.36.01.37.01.36.01.36.01h.36l.36.01.37.01.36.01.36.01.36.01.36.01h.37l.36.01.36.01.36.01.36.01.37.01h.36l.36.01.36.01.37.01.36.01.36.01h.36l.36.01.37.01.36.01.36.01h.36l.36.01.37.01.36.01.36.01h.36l.36.01.37.01.36.01.36.01h.36l.37.01.36.01.36.01.36.01h.36l.37.01.36.01.36.01.36.01h.36l.37.01.36.01.36.01h.36l.36.01.37.01.36.01h.36l.36.01.36.01.37.01.36.01h.36l.36.01.37.01.36.01h.36l.36.01.36.01.37.01h.36l.36.01.36.01h.36l.37.01.36.01.36.01h.36l.36.01.37.01.36.01h.36l.36.01.37.01.36.01h.36l.36.01.36.01h.37l.36.01.36.01.36.01h.36l.37.01.36.01h.36l.36.01.36.01.37.01h.36l.36.01.36.01h.36l.37.01.36.01h.36l.36.01.37.01h.36l.36.01.36.01.36.01h.37l.36.01.36.01h.36l.36.01.37.01h.36l.36.01.36.01h.36l.37.01.36.01h.36l.36.01.37.01h.36l.36.01.36.01h.36l.37.01.36.01h.36l.36.01.36.01h.37l.36.01.36.01h.36l.36.01.37.01h.36l.36.01.36.01h.36l.37.01h.36l.36.01.36.01h.37l.36.01.36.01h.36l.36.01.37.01h.36l.36.01h.36l.36.01.37.01h.36l.36.01.36.01h.36l.37.01h.36l.36.01.36.01h.37l.36.01.36.01h.36l.36.01h.37l.36.01.36.01h.36l.36.01h.37l.36.01.36.01h.36l.36.01h.37l.36.01.36.01h.36l.37.01h.36l.36.01.36.01h.36l.37.01h.36l.36.01.36.01h.36l.37.01h.36l.36.01.36.01h.36l.37.01h.36l.36.01h.36l.36.01.37.01h.36l.36.01h.36l.37.01.36.01h.36l.36.01h.36l.37.01h.36l.36.01.36.01h.36l.37.01h.36l.36.01h.36l.36.01h.37l.36.01.36.01h.36l.37.01h.36l.36.01h.36l.36.01h.37l.36.01.36.01h.36l.36.01h.37l.36.01h.36l.36.01h.36l.37.01.36.01h.36l.36.01h.36l.37.01h.36l.36.01h.36l.37.01h.36l.36.01h.36l.36.01.37.01h.36l.36.01h.36l.36.01h.37l.36.01h.36l.36.01h.36l.37.01h.36l.36.01h.36l.37.01h.36l.36.01h.36l.36.01.37.01h.36l.36.01h.36l.36.01h.37l.36.01h.36l.36.01h.36l.37.01h.36l.36.01h.36l.36.01h.37l.36.01h.36l.36.01h.37l.36.01h.36l.36.01h.36l.37.01h.36l.36.01h.36l.36.01h.37l.36.01h.36l.36.01h.36l.37.01h.36l.36.01h.36l.37.01h.36l.36.01h.36l.36.01h.37l.36.01h.36l.36.01h.36l.37.01h.36l.36.01h.36l.36.01h.73l.36.01h.36l.37.01h.36l.36.01h.36l.36.01h.37l.36.01h.36l.36.01h.36l.37.01h.36l.36.01h.36l.36.01h.73l.36.01.36-2.83h.36l.37.01h.36l.36.01h.36l.37.01h.36l.36.01h.72l.37.01h.36l.36.01h.36l.36.01h.37l.36.01h.36l.36.01h.36l.37.01h.36l.36.01h.36l.37.01h.36l.36.01h.36l.36.01h.73l.36.01h.36l.36.01h.37l.36.01h.36l.36.01h.36l.37.01h.36l.36.01h.72l.37.01h.36l.36.01h.36l.37.01h.36l.36.01h.36l.36.01h.37l.36.01h.72l.36.01h.37l.36.01h.36l.36.01h.36l.37.01h.72l.36.01h.37l.36.01h.36l.36.01h.36l.37.01h.72l.36.01h.36l.37.01h.36l.36.01h.36l.36.01h.73l.36.01h.36l.36.01h.37l.36.01h.36l.36.01h.73l.36.01h.36l.36.01h.37l.36.01h.72l.36.01h.37l.36.01h.36l.36.01h.73l.36.01h.36l.36.01h.37l.36.01h.72l.36.01h.37l.36.01h.72l.36.01h.37l.36.01h.36l.36.01h.73l.36.01h.36l.36.01h.73l.36.01h.36l.36.01h.37l.36.01h.72l.36.01h.37l.36.01h.72l.36.01h.37l.36.01h.72l.36.01h.37l.36.01h.72l.37.01h.36l.36.01h.36l.36.01h.73l.36.01"/><use xlink:href="#90967__d" color="#3B75EA" transform="matrix(3.75 0 0 3.75 354.25 149.96)"/><use xlink:href="#90967__d" color="#3B75EA" transform="matrix(3.75 0 0 3.75 112.25 7.51)"/></g><text stroke-linecap="round" stroke-linejoin="round" color="#000" font-family="KaTeX_Main" font-size="8" transform="translate(132.8 25.11)"><tspan>LBSTRelaxed</tspan></text><g fill="none" stroke="currentColor" stroke-linecap="round" stroke-linejoin="round" color="#000"><path stroke="#FFAB00" stroke-dasharray="4.0,2.0,1.0,2.0" d="M97.3 22.51h29.9M28 111.28l.36-10.17.36 17.36.37 13.87.36-17.03.36-6.7.36 6.98.36 6.96.37 3.53.36.11.36-27.09.36-3.25.37 34.06.36-16.84.36-3.26.36 17.02.36-16.78.37 10.24.36-33.59.36 27.06.36-20.06.36 30.35.37-20.03.36-16.65.36 30.26.36-30 .36 13.49.37 16.8.36-16.59.36.11.36 10.09.36 10.07.37-6.56.36-3.23.36-16.49.36 29.93.37-29.73.36 16.64.36 23.23.36-29.66.36 6.69.37-19.7.36-3.2.36 19.85.36.08.36-3.2.37.08.36 3.36.36-6.48.36-13.03.36 32.84.37-3.2.36 3.33.36-22.81.36-9.71.37 42.51.36-26.04.36 9.85.36-32.5.36 3.34.37 39.11.36-6.44.36-19.43.36-3.17.36 29.27.37.05.36-6.42.36-29.09.36 19.49.36-16.1.37.07.36 29.14.36-6.4.36 6.51.37 3.27.36-19.28.36 9.72.36-32.14.36 9.73.37-6.37.36 25.78.36.05.36-19.2.36-9.57.37 32.14.36-3.15.36-12.77.36 9.67.36.05.37-9.54.36 19.24.36-35.11.36 51.17.36-44.65.37 12.82.36 6.43.36 12.8.36 3.23.37-31.81.36 6.43.36 9.59.36-25.39.36 31.84.37 9.58.36-9.49.36-3.13.36-28.51.36 28.6.37-6.3.36 15.89.36-28.46.36 12.71.36-12.61.37 22.19.36-31.58.36 6.38.36 22.16.37 6.36.36-12.59.36.04.36 6.35.36-6.26.37 3.19.36-22.01.36 31.54.36-31.44.36 18.93.37 15.76.36-6.25.36-18.82.36 12.61.36-9.38.37 3.18.36-15.65.36 9.46.36-3.09.36 31.38.37-6.24.36.04.36-3.1.36.03.37-28.12.36 3.18.36 18.79.36-21.83.36 31.28.37-34.32.36.04.36 21.89.36-21.8.36 31.23.37-12.44.36 6.27.36.03.36-18.65.36 21.83.37.03.36-24.85.36 21.81.36.03.37 21.79.36-49.68.36 27.99.36-24.81.36-6.17.37 6.25.36 18.65.36-15.47.36 12.44.36-18.56.37 18.63.36 9.32.36.03.36-3.06.36 15.5.37-12.35.36.03.36 3.13.36-3.07.36-15.41.37 12.38.36-3.05.36 15.46.36-37 .37 15.46.36 18.54.36-36.98.36 33.95.36 3.11.37-3.06.36-18.45.36-6.13.36.04.36.03.37 27.72.36-24.58.36-6.11.36 18.47.36 6.18.37-12.26.36 15.38.36-9.18.36-15.32.37.03.36-9.17.36.03.36 24.57.36.03.37 12.28.36-33.68.36 18.41.36-21.4.36 9.21.37 9.22.36 18.38.36-36.68.36 15.32.36 3.09.37-9.14.36 27.53.36-21.36.36-12.19.37 6.14.36-6.08.36 27.5.36.02.36-24.38.37 3.08.36 27.47.36-9.12.36 21.36.36-3.03.37-42.63.36 21.35.36.03.36-12.16.36-3.01.37 9.15.36-15.18.36 3.07.36 24.35.36-27.33.37 3.06.36 6.11.36 6.1.36 21.28.37-39.45.36 33.42.36 9.13.36-27.29.36 27.33.37-15.15.36-21.2.36 12.15.36-15.13.36-3 .37 42.44.36-27.24.36 6.08.36 3.05.36 3.05.37 6.07.36 3.05.36-3.01.36-12.07.37 24.21.36-45.33.36 39.32.36-24.16.36 6.07.37-6.02.36-15.08.36 9.09.36 24.17.36-3 .37-27.14.36 30.2.36-33.16.36 12.09.36-6.01.37 27.15.36-30.11.36-2.99.36 6.05.36 24.12.37 6.04.36-36.11.36 30.12.36-18.03.37 18.07.36-12.01.36 21.07.36-9 .36-24.04.37.03.36 15.05.36 6.03.36-24.02.36 27.06.37-27.01.36 36.05.36-24 .36 30.04.36-42 .37-2.97.36 3.02.36.02.36 30.01.37-17.97.36 15.01.36 6.01.36-32.94.36 20.99.37-14.96.36-8.96.36 14.99.36-11.95.36 3.01.37 20.97.36 9 .36-14.95.36 14.98.36-35.87.37 23.94.36 3.01.36-20.91.36.02.36 26.92.37-11.94.36-5.95.36-11.93.36 3.01.37-2.97.36 29.87.36-14.9.36 5.98.36-2.96.37-17.88.36 32.82.36-11.91.36.02.36-23.83.37 23.86.36 5.98.36-23.82.36 20.87.36 5.98.37-23.81.36-2.96.36 14.9.36 11.93.37-8.92.36 20.85.36-44.61.36 2.99.36 32.74.37-29.72.36 2.99.36-8.9.36 29.74.36-2.96.37 2.99.36.02.36-8.9.36-5.92.36-14.83.37 5.96.36.02.36 14.85.36 2.99.37 14.85.36-32.62.36 17.81.36-2.95.36-20.73.37 20.77.36-20.74.36.02.36 29.65.36-2.95.37-17.75.36 20.75.36-14.8.36 8.9.36-29.58.37 47.37.36-47.34.36 35.53.36 14.81.36-35.49.37.02.36.02.36 11.84.36 14.8.37-26.59.36 17.75.36-5.9.36-5.89.36 20.69.37-26.57.36.02.36 17.73.36-23.6.36 14.78.37 5.91.36 20.68.36-44.25.36 35.42.36-8.84.37 2.96.36-17.68.36 8.87.36 5.91.37.01.36-5.88.36-11.77.36 26.53.36-2.93.37-35.34.36 32.42.36-2.94.36-20.59.36 20.62.37 11.79.36-29.42.36 14.73.36 2.95.36-14.69.37 8.84.36 14.72.36-41.16.36 17.66.36-2.93.37-5.86.36 26.47.36-32.32.36 32.34.37-5.86.36-8.8.36-2.92.36.01.36 20.57.37-2.92.36-29.35.36 41.12.36-23.47.36-8.79.37.01.36 5.88.36 20.55.36-8.79.36 5.88.37-2.92.36-2.92.36-20.51.36 11.74.37-5.84.36 26.38.36-32.22.36 35.17.36-23.42.37 11.73.36-32.2.36 2.94.36.02.36-5.84.37 26.36.36 11.72.36-17.55.36 14.64.36 5.87.37-26.32.36.01.36.02.36 2.94.37 5.86.36 20.48.36-20.46.36 5.86.36-8.75.37 14.62.36-35.05.36 38 .36-11.68.36-8.75.37 5.86.36 2.93.36.01.36-14.58.36.01.37-8.74.36 26.28.36-8.74.36 2.93.36-11.66.37 17.52.36-26.24.36.01.36 2.93.37 11.68.36 17.5.36-20.39.36.02.36 23.32.37-5.82.36 2.93.36-8.73.36.01.36-20.37.37 8.75.36-5.81.36-5.81.36 34.95.36 5.83.37-23.28.36 23.3.36-5.81.36-32 .37 46.56.36-14.53.36-23.26.36 20.37.36 2.92.37-37.79.36 8.74.36 23.26.36-8.7.36 29.07.37-37.77.36.01.36-8.7.36 11.63.36 20.35.37 5.82.36-5.8.36-31.93.36 29.04.36-34.82.37 14.53.36.01.36-8.7.36 20.33.37-2.89.36.01.36 2.91.36-26.09.36 8.71.37 34.81.36-8.69.36-17.38.36 26.1.36-5.79.37-17.38.36 17.4.36.01.36-2.89.36-20.27.37-11.57.36-2.88.36.01.36.01.37 31.87.36-26.05.36-2.88.36 14.48.36 5.8.37-2.88.36 8.69.36-2.88.36-17.35.36 8.69.37 23.15.36-2.88.36-8.67.36-5.77.36 14.47.37-28.9.36 5.79.36-11.55.36 14.46.36 20.24.37-37.55.36 26.01.36-25.99.36 11.57.37 8.68.36 5.79.36 8.67.36-25.98.36 11.56.37 5.79.36-17.31.36 8.67.36 14.44.36 5.78.37-5.76.36.01.36 5.78.36-37.5.36 40.4.37-40.37.36 34.62.36-20.18.36 8.66.37-14.4.36-2.87.36 20.18.36-14.4.36 2.9.37 11.53.36 5.78.36-2.88.36 2.89.36-14.39.37-11.51.36-2.87.36 20.17.36-14.38.36 25.92.37-23.02.36 11.52.36-14.38.36 5.77.37 28.78.36-28.76.36 14.39.36 5.77.36-23.01.37-5.74.36-2.86.36 2.88.36 23.02.36 8.63.37-20.11.36 17.26.36-31.61.36.01.36 25.87.37-11.48.36 14.38.36-25.85.36-5.74.36 34.48.37-28.71.36 2.88.36 17.24.36-22.96.37 17.24.36-14.35.36 8.63.36 22.97.36-5.73.37-2.86.36-20.08.36-8.6.36 5.75.36-5.73.37 37.31.36 8.61.36-37.28.36.01.36 20.09.37-25.8.36 25.81.36 2.88.36-2.86.37 2.88.36-31.52.36 14.34.36 28.66.36-37.24.37.01.36 40.12.36-37.23.36.01.36 11.47.37 14.32.36-31.49.36.01.36 31.51.36-20.03.37 2.87.36 5.73.36-17.16.36 17.18.36.01.37 8.59.36-31.46.36 28.62.36-25.74.37 14.31.36-2.85.36 22.89.36-14.29.36-17.15.37 17.17.36-11.43.36 20.02.36-17.14.36 14.3.37 5.72.36-28.57.36 28.59.36-5.71.36-5.71.37-17.13.36 31.43.36.01.36-11.42.37-19.98.36 8.58.36-14.27.36 14.29.36 17.14.37-22.83.36 28.55.36-22.83.36 14.28.36-2.84.37 19.98.36-22.82.36-2.84.36 8.56.36 5.72.37 2.86.36 2.86.36-19.96.36 14.27.36-19.96.37 5.71.36 5.71.36 5.71.36-2.84.37-28.49.36 34.21.36-8.54.36-22.79.36 8.55.37 2.86.36-5.69.36 8.56.36 2.86h.36l.37-2.83.36 2.85.36.01.36.01.36-2.84.37 2.85.36 2.86.36-2.84.36 8.55.37 2.85.36-2.84.36-28.44.36 28.46.36-5.68.37-8.53.36 5.7.36-8.53.36 14.23.36 2.85.37-28.43.36 17.07.36 17.07.36-34.11.36 34.13.37-11.37.36 5.7.36-8.52.36-11.36.37 8.53.36-14.2.36-2.83.36 34.1.36-5.67.37-14.2.36 17.05.36.01.36-25.55.36 11.36.37-17.02.36 14.2.36 8.53.36-2.83.36 5.68.37-8.51.36-14.18.36-2.83.36 39.74.36 8.52.37-51.07.36 34.06.36-19.85.36-17.02.37 25.54.36 8.52.36-17.01.36 11.35.36-17.01.37 31.21.36-17.01.36 8.51.36-17 .36 19.85.37-5.66.36 8.51.36-5.66.36 11.34.36-5.66.37.01.36-39.66.36 39.67.36-11.33.37.01.36 2.84.36-14.15.36 17 .36-25.48.37 5.67.36.01.36 16.99.36-28.3.36 22.66.37-25.47.36 22.65.36 22.65.36-33.95.36 28.3.37-33.95.36 19.82.36 5.66.36-28.28.36 42.44.37-42.42.36 5.67.36-2.82.36 2.83.37 25.46.36-28.27.36 25.46.36-2.82.36 8.49.37-25.44.36 14.14.36-11.3.36 14.14.36-14.12.37-14.12.36 36.74.36-36.72.36 5.66.36 31.08.37-36.72.36 5.66.36 11.31.36 14.13.37-2.82.36-8.46.36 28.24.36-14.11.36-19.76.37 25.42.36-25.4.36 2.83.36-11.28.36 25.41.37-19.75.36-5.64.36 16.94.36 22.58.36-5.64.37-25.38.36 11.29.36-2.81.36-16.92.36 19.75.37-5.63.36 5.65.36-2.82.36-22.55.37 39.48.36-36.64.36 16.92.36 5.65.36 5.64.37-22.54.36 28.19.36-5.63.36.01.36-22.54.37-8.44.36 19.73.36 5.64.36 25.36.36-33.8.37 2.83.36-16.89.36 28.17.36 8.45.37-22.52.36-16.89.36 11.27.36-11.25.36 8.45.37 14.09.36 8.45.36-25.33.36 28.16.36-33.77.37 30.96.36 2.82.36-11.24.36-16.88.36 5.64.37 16.88.36 5.64h.36l.36-19.68.37 16.88.36 8.44.36-5.61h.36l.36-2.8.37-14.06.36-16.86.36 11.26.36 11.25.36-19.67.37.01.36 36.54.36-16.85.36 5.62.36.01.37-19.66.36 5.62.36-14.04.36 2.82.36 28.1.37.01.36-22.47.36 30.9.36-19.65.37-14.03.36 33.7.36-25.26.36 19.66.36-14.04.37 14.05.36-19.65.36 19.66"/><use xlink:href="#90967__e" color="#FFAB00" transform="matrix(3.75 0 0 3.75 67.83 97.54)"/><use xlink:href="#90967__e" color="#FFAB00" transform="matrix(3.75 0 0 3.75 112.25 22.51)"/></g><text stroke-linecap="round" stroke-linejoin="round" color="#000" font-family="KaTeX_Main" font-size="8" transform="translate(241.1 10.11)"><tspan>WBSTBottomUp</tspan></text><g fill="none" stroke="currentColor" stroke-linecap="round" stroke-linejoin="round" color="#000"><path stroke="#000" d="M205.6 7.51h29.9M28 131.97l.36-3.32.36-10.18.37 13.87.36-6.74.36 3.54.36 3.54.36-3.31.37-3.29.36 10.33.36-10.11.36-3.28.37-3.28.36.11.36 17.03.36-13.43.36 13.61.37-10.03.36 10.2.36-10.01.36-3.27.36-3.26.37 3.45.36 3.45.36.09.36-6.61.36 6.78.37-16.61.36 6.77.36 6.75.36 10.07.36-3.25.37 3.4.36-6.57.36 3.39.36-6.55.37-3.24.36 3.39.36.07.36 3.38.36-9.83.37 3.37.36 9.96.36-3.23.36-9.8.36-6.5.37 19.78.36-6.5.36.07.36-3.21.36 9.89.37-9.76.36 6.6.36-16.27.36 6.6.37 16.38.36-3.21.36-6.46.36.06.36 3.31.37.06.36-16.2.36 19.55.36-6.44.36 3.3.37.06.36-3.19.36-3.19.36 13 .36-6.42.37-3.18.36-3.18.36.05.36 3.28.37-6.4.36 6.5.36-6.39.36 3.27.36 12.92.37-16.03.36 3.26.36-9.59.36 22.53.36-9.58.37.04.36-3.16.36 12.86.36-15.97.36 6.45.37-6.35.36 3.24.36.05.36-3.15.36-3.15.37 6.43.36 12.8.36-9.52.36-6.34.37 6.42.36-6.33.36.05.36 3.22.36 3.22.37-3.14.36-12.66.36 6.39.36.05.36-3.13.37 9.55.36 3.21.36 6.37.36.04.36-3.13.37-12.62.36 15.85.36-9.45.36 3.2.37-12.6.36 15.82.36-6.27.36.03.36-3.11.37.04.36.03.36 3.19.36-9.41.36 9.48.37 9.47.36-6.26.36.03.36-9.39.36.04.37 3.17.36-6.24.36 15.72.36-6.24.36 3.17.37.03.36-9.36.36.03.36-6.22.37 9.42.36 9.41.36-9.35.36 3.16.36.03.37.03.36-3.09.36.03.36-6.2.36 15.62.37-12.44.36 3.15.36-9.32.36 15.61.36-12.43.37-3.08.36.04.36 6.25.36 3.14.37 12.46.36-3.08.36.02.36 6.24.36-12.39.37-3.08.36 3.13.36 3.13.36.03.36-6.17.37 6.22.36-6.17.36-9.26.36 12.41.36 6.22.37-3.07.36-3.07.36.03.36 3.12.36-6.16.37 6.21.36-15.42.36 12.38.36-3.06.37.02.36-9.22.36 21.61.36-9.23.36 3.11.37-15.38.36 12.35.36 3.1.36-6.13.36 6.18.37-6.13.36 3.1.36.02.36-3.05.36-3.05.37-6.11.36 12.31.36-3.05.36-3.05.37.03.36 3.09.36-6.11.36 18.42.36-15.3.37.02.36 3.09.36.02.36-6.1.36-3.04.37 15.33.36 6.14.36-15.27.36 6.14.36-9.15.37 9.19.36-3.03.36.02.36-6.09.37 18.35.36-6.09.36-9.14.36-3.03.36 9.18.37 3.07.36-9.13.36 3.07.36.03.36 3.06.37-3.02.36-6.07.36 3.06.36-6.06.36 3.06.37-3.02.36 9.15.36 6.11.36 6.1.36-15.19.37 6.1.36-6.05.36.02.36 3.05.37 3.06.36-3.02.36-3.01.36-9.08.36 9.12.37-9.08.36 12.15.36-12.1.36 15.17.36.02.37-3.01.36-3.01.36-9.06.36 9.1.36-3.01.37-3 .36 3.04.36 3.05.36-6.03.37 18.16.36-9.05.36-3 .36 6.06.36-6.03.37 12.1.36-12.06.36 12.1.36-6.02.36 3.03.37-9.03.36-3 .36.02.36 15.09.36-9.03.37.02.36 3.03.36.02.36-12.03.36.02.37.02.36 15.07.36-6.01.36.02.37-6 .36 6.04.36 9.04.36-12.02.36.02.37.02.36 6.03.36-6 .36-2.98.36 6.02.37 3.02.36-11.99.36.01.36 9.03.36-5.99.37 15.02.36-11.98.36 6.01.36-8.98.37 9.01.36-11.97.36 3.01.36 3.02.36-2.98.37-2.98.36 6.01.36-5.98.36.02.36-14.95.37 29.95.36-2.98.36-2.98.36.02.36 3.01.37-5.97.36 5.99.36-5.96.36-2.97.36 5.99.37-5.96.36.02.36-5.96.36 11.96.37-2.97.36-2.97.36 11.95.36-14.9.36 5.98.37.02.36 3 .36-8.94.36 8.96.36-8.92.37 8.95.36-14.88.36 11.93.36.02.36.01.37-2.96.36-2.96.36.01.36 14.9.37-2.96.36-8.91.36-5.94.36 8.94.36-2.96.37-5.93.36 5.96.36 8.93.36-5.93.36-5.93.37-2.95.36.01.36 8.93.36-8.89.36.01.37 5.95.36 2.99.36.01.36-14.82.37 26.71.36-8.88.36 5.94.36-5.92.36 5.95.37-5.92.36 11.87.36-14.81.36 2.98.36-5.91.37 2.98.36-2.95.36 5.93.36 8.9.36-5.91.37 2.97.36-2.95.36-5.9.36.01.36-5.9.37 11.84.36-2.94.36-2.95.36.02.37-8.86.36 2.97.36 8.88.36-2.94.36 8.88.37.01.36-2.94.36-2.95.36.02.36-5.89.37 5.91.36-8.84.36 11.82.36-11.79.36 5.91.37 2.96.36 2.96.36-11.78.36-2.93.37 2.96.36 8.85.36-2.93.36.01.36 2.96.37-2.93.36 2.95.36-11.77.36-2.93.36 23.57.37-5.88.36-2.93.36-5.87.36 8.84.36-2.93.37-11.76.36 5.9.36 5.89.36.01.36 2.95.37-8.8.36 2.95.36 8.83.36-2.93.37-11.74.36 5.89.36-2.93.36 5.89.36-11.74.37 11.76.36-8.8.36 5.89.36-8.8.36 5.88.37.02.36-5.86.36 14.68.36-2.92.36-2.92.37.01.36 2.94.36-5.85.36 2.94.37-2.92.36-2.92.36 5.87.36-5.84.36.01.37-5.85.36 23.44.36-11.7.36-2.92.36.01.37.02.36-2.92.36 5.87.36-5.85.36 5.87.37-14.62.36 8.79.36-5.84.36 2.94.37 8.78.36 5.86.36-8.76.36 14.63.36-5.84.37-8.76.36 8.78.36-2.91.36.01.36-8.75.37 5.85.36 2.93.36-2.91.36.01.36-5.83.37 5.85.36.01.36-5.82.36-2.91.36 20.43.37-8.74.36 2.93.36-14.58.36 5.85.37.01.36-2.91.36 5.84.36 2.93.36.01.37 2.92.36-14.55.36 5.83.36-8.73.36 11.67.37-8.73.36 8.75.36.01.36 2.92.36-5.81.37 2.92.36-2.9.36-2.9.36 5.83.37-2.9.36.01.36-5.81.36 8.73.36-5.8.37-5.81.36 2.92.36-5.8.36 14.54.36 5.83.37.01.36-5.81.36 11.63.36-14.51.36.01.37-5.8.36 11.62.36-2.89.36-2.89.36.01.37.01.36-11.6.36 14.52.36-8.7.37 11.62.36-5.79.36 2.91.36-2.89h.36l.37 2.91.36-11.58.36 2.91.36 5.8.36-2.89.37-5.78.36 14.5.36-2.89.36.01.36-11.58.37.01.36 14.49.36-8.68.36 8.7.37-11.57.36 8.69.36-2.88.36.01.36-11.57.37 2.9.36 8.69.36.01.36-8.67.36 5.8.37.01.36-2.88.36-5.78.36 8.69.36-2.89.37 5.8.36-5.78.36.01.36-5.77.36 23.13.37-2.88.36-5.77.36 2.9.36-5.77.37 2.9.36 2.89.36-2.88.36-2.87.36 5.78.37 5.78.36-11.54.36.01.36 2.9.36 8.66.37-11.53.36 5.78.36-8.65.36 11.55.36-5.76.37-2.88.36-2.87.36.01h.36l.37.01.36-5.75.36 20.18.36 2.89.36-11.52.37.01.36.01.36-2.87.36 5.77.36-5.76.37 5.77.36-5.75.36-5.75.36 2.89.36-2.87.37 8.64.36-8.62.36 2.88.36 11.52.37-5.74.36.01.36-14.38.36 14.39.36-5.74h.37l.36-5.74.36 11.51.36-8.61.36 17.26.37-14.37.36 2.88.36 2.88.36-2.86.36-5.74.37 5.75.36 8.63.36-2.86.36-2.87.36-2.86.37-5.74.36 2.88.36 5.75.36.01.37-2.86.36 5.75.36-5.74.36-5.73.36-2.86.37 2.88.36 2.88.36 5.74.36-2.86.36-2.86.37.01.36 14.35.36-14.33.36 2.87.36-8.59.37 14.34.36-8.59.36.01h.36l.37 8.61.36-14.32.36 2.87.36-5.72.36 8.61.37 11.46.36-8.58h.36l.36-2.85.36 5.73.37-8.58.36-5.72.36 11.46.36-5.72.36.01.37.01.36.01.36-2.86.36-11.43.36 20.04.37 8.59.36-5.72.36 2.87.36-2.85.37.01.36 2.86.36-2.85.36-11.43.36 14.3.37-8.57.36 2.87.36-11.43.36 17.16.36-5.71.37.01.36-8.57.36 5.73.36 2.86.36 2.87.37-2.85.36-2.85.36 5.72.36-5.71.37.01.36-5.7.36 8.57.36 2.86.36-5.7.37 2.86.36-5.7.36 2.86.36 2.87.36 8.56.37-11.4.36-2.85.36 2.86.36 2.86.36-8.55.37 8.57h.36l.36 2.86.36-8.55.36.01.37-5.69.36 14.26.36-11.4.36 2.86.37-8.54.36 17.11.36-2.85.36-11.39.36 14.26.37-2.84.36 2.85.36-2.84.36-2.84.36 2.85.37 8.55.36-11.38.36-2.84.36.01h.36l.37.01.36-5.68.36 19.93.36-8.53.37 5.7.36-8.54.36.01.36-2.84.36-2.83.37 2.85.36 5.7.36-5.69.36 2.85.36-14.21.37 8.54.36 5.7h.36l.36-8.52.36 17.07.37-5.68h.36l.36-5.67h.36l.37 2.85.36-5.67.36 2.84.36-2.83.36 2.85.37 5.69.36-2.84.36-5.67.36-5.67.36 5.68.37-2.83.36 8.53.36-2.83.36 5.68.36-8.51.37 8.52.36-14.18.36.01.36 22.71.36 2.84.37-5.67.36-2.83.36 2.84.36 2.85.37-14.18.36 8.52.36-8.51.36 14.19.36.01.37-5.67.36-2.83.36 14.18.36-5.66.36-8.5.37-2.83.36 5.68.36 2.84.36-8.5.36 5.68.37-2.83.36 2.84.36-5.66.36-5.66.37 11.34.36-8.49.36 17 .36-8.49.36 2.83.37-2.82.36 5.67.36-14.15.36 11.33.36-5.66.37.01h.36l.36.01.36-2.82.36-2.83.37-2.82.36 14.15.36-5.65.36 2.84.36-5.65.37 2.83.36 2.84.36-2.83.36-2.82.37-5.65.36 5.66.36-2.82.36-2.82.36 11.32.37 2.83.36-5.65.36 2.83.36 5.66.36-11.3.37 11.31.36-8.47.36 5.66.36-11.3.36 8.49.37-5.65.36 5.66.36-2.82.36-2.82.37.01.36 5.65.36-8.46h.36l.36 5.65.37 5.66h.36l.36-11.28h.36l.36 5.65.37-5.63.36 8.47.36-5.64.36 8.47.36.01.37-11.28h.36l.36-2.81.36 8.47.36-5.64.37-2.81.36 11.29h.36l.36-2.81.37-2.82.36 2.83.36-5.63.36 8.46.36-11.27.37 8.46.36-8.45.36 11.28.36-11.26h.36l.37.01.36-2.81.36-2.81.36 25.36.36-2.81.37-2.82.36 5.64.36-8.44.36-2.81.37-2.81.36 2.82.36 5.64.36-5.63.36 2.82.37-5.62.36-5.63.36 11.27.36-5.63.36.01.37 5.63.36.01.36.01.36-5.63.36 8.45.37-14.06.36 5.63.36-2.81.36 5.64.37-8.44.36 16.88.36-8.43.36 5.63.36-14.05.37 2.82h.36l.36 5.63.36 5.63.36-8.43.37 2.82.36 2.81.36-2.8.36-8.43.36-5.61.37 16.86.36-2.8.36-5.61h.36l.36 5.63.37-5.62.36-2.8.36-2.8.36 8.43.37 2.81.36-2.8.36-5.61.36.01.36 14.04.37.01.36-14.04.36 11.24"/><use xlink:href="#90967__a" transform="matrix(3.75 0 0 3.75 125.4 124.08)"/><use xlink:href="#90967__a" transform="matrix(3.75 0 0 3.75 220.55 7.51)"/></g><text stroke-linecap="round" stroke-linejoin="round" color="#000" font-family="KaTeX_Main" font-size="8" transform="translate(241.1 25.11)"><tspan>WBSTRelaxed</tspan></text><g fill="none" stroke="currentColor" stroke-linecap="round" stroke-linejoin="round" color="#000"><path stroke="violet" stroke-dasharray="4.5,2.0,0.5,2.0,0.5,2.0" d="M205.6 22.51h29.9M28 111.28l.36-48.04.36 34.6.37-27.29.36.2.36 37.86.36-16.95.36-10.08.37 3.59.36.16.36-23.64.36 64.72.37 13.68.36-43.96.36 13.68.36-40.44.36 23.8.37 20.37.36 6.85.36-57.11.36 30.42.36 33.71.37-16.68.36 6.8.36-23.33.36 26.87.36-9.93.37 3.44.36-33.25.36-16.54.36-3.19.36 56.68.37 6.73.36-39.76.36 43.23.36-16.49.37-26.4.36 36.5.36-6.53.36.08.36-23.02.37.1.36-6.5.36 36.32.36-29.54.36-19.62.37 9.96.36-3.19.36-13.01.36 29.6.36-19.56.37-6.45.36 52.42.36.07.36-65.25.37 6.64.36 49.01.36-32.52.36-16.19.36 26.14.37 19.59.36-38.93.36 22.83.36-9.67.36 13.06.37 9.8.36 6.55.36 6.54.36-3.18.36-25.82.37 16.24.36-25.78.36 42.04.36-28.98.37-25.73.36 48.42.36-41.81.36-3.14.36 16.16.37-28.87.36 57.93.36 9.69.36-57.74.36 45 .37-15.98.36-35.2.36 54.54.36-60.78.36 19.28.37 41.65.36-57.5.36 63.99.36-57.44.36 41.57.37-28.67.36 6.45.36-28.63.36 54.24.37-34.98.36 12.79.36-19.03.36 28.69.36-28.55.37 28.66.36-28.53.36 3.24.36 41.3.36-50.69.37 50.78.36 12.72.36-6.3.36-63.27.36 63.35.37-15.77.36 15.85.36-25.24.36-22.07.37 37.95.36-25.2.36-28.35.36 15.84.36 18.97.37-25.16.36.05.36 44.14.36-25.14.36-3.09.37.05.36-18.81.36 53.48.36.03.36-15.66.37 9.46.36-18.79.36-15.64.36 40.81.36-6.23.37-25.03.36-18.74.36 43.88.36-25 .37 18.82.36-15.6.36-18.71.36 6.3.36 46.9.37-18.7.36-37.43.36 34.38.36-18.68.36-9.31.37 34.34.36-40.48.36 34.32.36-43.56.36 9.39.37-12.4.36 43.6.36-34.17.36 31.14.37-24.83.36 40.44.36-40.35.36 21.78.36-18.58.37-9.27.36 52.78.36-12.37.36-15.47.36.04.37-24.75.36 52.7.36 3.12.36-3.07.36.03.37-58.74.36 58.8.36-30.89.36 3.13.36-24.68.37 34.02.36 18.56.36-46.28.36 24.73.37-30.82.36.05.36 15.45.36-3.04.36-21.53.37 27.77.36 3.11.36 6.19.36 6.19.36-33.81.37 6.19.36 46.17.36-9.2.36-43 .36 30.76.37-33.76.36 61.47.36-55.25.36 58.36.37-6.11.36 6.16.36-18.38.36-6.11.36-21.43.37 33.75.36-6.11.36-42.85.36 52.09.36-6.1.37-27.52.36-30.56.36 21.45.36-18.31.36 18.38.37 48.94.36-9.15.36-3.03.36-33.57.37 33.62.36 6.13.36-33.55.36 21.39.36-39.63.37 15.28.36-24.36.36 67.1.36-21.31.36.02.37-3.02.36 18.3.36-12.15.36-27.38.36.03.37 3.08.36.03.36 9.15.36-33.42.36 24.36.37 33.46.36-15.17.36 12.17.36-51.61.37 54.69.36-21.23.36 6.1.36-42.46.36 57.68.37-12.11.36.02.36-42.42.36 33.37.36.03.37 6.08.36-39.35.36 15.17.36 27.28.36 18.19.37 6.07.36-72.6.36 42.38.36-36.26.37 54.45.36.02.36-3 .36-21.13.36-15.08.37 45.33.36-30.18.36 6.07.36 6.06.36-39.22.37 48.31.36 6.05.36-33.15.36 24.15.36 3.03.37 6.05.36-24.09.36-21.07.36-18.05.36 69.3.37-39.13.36-18.04.36 21.1.36 6.05.37-42.11.36 6.05.36 12.06.36 18.07.36-33.05.37 9.05.36 48.11.36-30.03.36-18 .36 33.07.37-45.02.36 66.08.36-2.98.36.01.36-56.99.37 12.02.36 27.03.36 15.01.36-47.96.37 27.01.36 21.01.36-23.96.36-17.96.36 24 .37 3.01.36-17.95.36-14.94.36 29.96.36-23.93.37 3.02.36-8.95.36-2.97.36 14.98.36-8.94.37-5.96.36 50.85.36-44.82.36 47.84.36 3 .37-20.89.36-20.89.36 32.87.36-29.84.37 20.92.36-2.97.36 5.99.36-20.87.36 14.94.37-32.79.36 17.92.36-23.83.36 35.79.36 20.89.37-2.97.36-23.82.36 14.92.36-26.79.36 8.95.37 32.78.36-62.51.36 11.93.36 41.69.37-53.54.36 11.92.36 29.77.36-5.93.36 29.76.37-29.72.36 26.77.36-59.43.36 59.46.36-56.44.37-2.95.36 59.44.36-38.6.36 14.87.36-29.67.37 20.8.36-5.92.36-2.95.36 23.76.37-35.58.36-2.95.36 11.89.36 38.57.36-41.49.37 20.77.36 32.62.36-11.84.36-11.84.36-14.8.37-11.83.36-5.9.36-5.9.36-5.9.36 65.15.37-47.35.36 5.94.36 29.61.36-11.82.36 17.77.37-50.27.36 47.34.36 5.92.36-20.68.37-23.63.36 20.71.36-23.62.36 23.65.36-38.38.37 38.42.36-29.52.36 2.97.36 17.74.36-23.6.37 2.97.36-14.73.36 50.18.36-38.34.36 38.37.37-32.43.36.02.36 17.71.36-11.77.37 29.49.36-17.67.36 29.49.36 2.96.36.01.37-50.06.36-2.93.36 44.19.36-23.54.36 2.96.37-29.42.36-2.92.36 11.79.36 17.68.36.01.37-23.52.36 8.85.36-17.63.36 14.72.36 44.12.37-8.8.36-38.2.36 41.16.36-47 .37 52.91.36-55.81.36-5.85.36 64.63.36-26.42.37-23.47.36 23.51.36-35.21.36 52.85.36 11.75.37-29.33.36 26.42.36-64.53.36 11.75.36 8.82.37 26.41.36.01.36-46.89.36 35.2.37 11.74.36 5.87.36 14.66.36-35.14.36 20.52.37-35.13.36 14.66.36.01.36 17.58.36 8.8.37 11.72.36-70.23.36 26.36.36-17.54.36 5.87.37 49.74.36-46.79.36-14.6.36 11.71.37 11.72.36-11.68.36 58.48.36-17.53.36-43.82.37 38 .36 20.47.36-29.21.36-8.75.36-8.74.37 43.82.36-67.15.36 52.57.36-52.53.36 43.8.37.01.36 11.69.36-55.43.36 2.94.36 8.77.37-5.82.36 11.68.36 5.85.36-23.31.37 37.92.36 8.76.36-29.14.36 40.82.36-17.47.37 20.41.36-37.87.36 34.98.36-26.21.36-14.55.37-2.89.36-2.9.36 43.69.36-5.81.36 17.48.37-34.92.36 26.21.36-14.54.36-34.9.37 23.29.36-5.81.36-2.89.36-8.71.36.02.37 17.46.36 2.92.36-2.9.36 11.64.36-2.89.37 14.54.36.01.36-14.51.36.01.36-2.89.37-29.03.36 29.05.36-14.5.36-5.8.36 31.95.37 2.92.36 8.71.36-31.91.36-14.49.37.01.36 34.83.36-23.19.36 23.21.36 8.71.37-49.28.36-8.68.36 43.5.36 14.51.36-26.08.37-23.17.36-8.68.36 43.48.36-34.76.36 57.96.37-8.68.36-40.54.36 28.97.36-37.63.37 20.28.36-14.46.36.01.36 23.17.36-5.77.37-2.88.36 2.9.36-17.34.36 37.62.36-43.38.37 63.65.36-23.13.36-37.58.36 14.47.36 31.81.37-5.77.36-17.33.36 28.92.36-43.35.36 14.46.37.02.36 26.01.36.01.36-40.43.37 31.78.36 20.23.36-25.98.36-25.98.36 46.21.37.01.36-20.2.36 8.67.36-37.51.36-20.18.37 17.32.36.02.36 49.06.36-40.38.36 5.78.37 17.32.36 25.96.36-69.19.36 31.73.37-37.47.36 8.66.36 2.9.36 40.36.36-28.81.37 11.54.36 17.3.36-48.96.36 40.34.36-28.79.37 46.09.36-57.59.36 63.37.36-48.94.36 43.2.37-48.93.36-2.87.36 5.77.36 31.68.37-43.16.36 2.89.36 25.91.36 31.66.36-43.14.37 5.76.36 28.78.36-25.88.36 5.77.36-11.49.37-11.49.36-11.49.36 25.89.36 25.88.36-48.85.37 8.63.36 5.76.36 5.76.36-8.6.36 28.74.37-17.23.36-25.83.36 17.24.36 28.73.37-2.86.36-8.61.36.02.36-22.96.36-11.47.37 20.11.36 5.75.36-5.73.36 11.49.36-22.94.37 37.31.36 5.74.36-11.46.36 20.09.36-34.41.37 8.62.36 11.48.36-20.06.36-14.32.37 2.87.36 22.95.36-20.05.36-8.59.36 31.53.37-11.45.36 8.61.36-31.5.36 42.98.36-28.64.37 8.61.36 14.33.36 11.46.36-11.44.36-14.31.37 14.32.36-42.92.36.01.36 14.32.36-11.43.37 57.24.36-20.02.36-2.85.36 2.87.37 17.17.36-8.57.36-14.29.36-20.01.36 37.19.37 14.3.36-68.6.36 51.47.36 20.01.36-51.44.37 20.02.36-17.14.36 34.31.36-14.28.36.01.37-39.99.36 54.29.36-39.98.36 39.99.37-48.54.36-5.7.36 2.87.36 31.42.36 25.71.37-62.8.36 68.52.36-8.55.36 8.57.36-28.53.37-2.85.36-14.26.36-22.81.36 39.95.36-39.92.37 62.76.36.01.36-62.73.36 45.63.36 22.82.37-54.16.36-2.84.36 39.92.36 11.41.37-14.24.36-42.74.36 34.21.36 22.8.36 5.71.37-48.43.36 22.8.36 11.41.36 14.25.36-22.78.37 19.94.36.01.36-39.86.36.01.36-14.22.37 8.55.36 45.56.36-8.54.36-45.53.37 22.78.36-28.45.36 56.93.36-36.98.36 17.08.37-8.53.36-5.68.36-14.21.36 28.45.36-42.65.37 65.42.36-19.9.36 5.7.36-19.9.36 28.44.37-2.83.36-42.63.36 31.27.36-28.41.37 45.48.36-39.77.36 5.69.36-8.52.36 8.54.37-22.72.36 28.42.36 25.57.36-42.59.36 48.28.37-42.58.36-8.51.36 8.53.36 25.56.36-36.9.37 48.27.36-36.89.36 39.74.36-19.86.36 17.04.37-45.4.36 48.25.36-31.2.36-14.18.37-17.01.36 42.56.36-42.53.36 51.06.36-28.35.37 39.7.36-17 .36 19.85.36-5.66.36-19.84.37 22.69.36-11.33.36-5.66.36 8.51.36-22.67.37 8.51.36 5.68.36 11.34.36-8.49.37 11.34.36-53.81.36 25.5.36-16.99.36 45.32.37-48.13.36 45.32.36-39.63.36.01.36 45.3.37-42.45.36-2.82.36 48.12.36-36.78.36 14.15.37 14.16.36.01.36 2.83.36 8.5.36-11.31.37 5.66.36 2.84.36-22.62.36 25.46.37-50.9.36 28.29.36-8.47.36-16.96.36 39.59.37-31.09.36-14.12.36 50.88.36-62.17.36 25.45.37-5.65.36 11.31.36-5.64.36.01.36 28.26.37-22.59.36.01.36-16.94.36 11.3.37 11.31.36 28.25h.36l.36-2.81.36-28.23.37 22.59.36-45.16.36 50.82.36-56.44.36 39.52.37-33.86.36 5.65.36 36.7.36 5.65.36-39.5.37 14.12.36-2.82.36 31.04.36-36.66.36-22.56.37 19.76.36 31.03.36-47.94.36 39.49.37-31.01.36-5.63.36 22.57.36-22.55.36 16.92.37-19.72.36-5.62.36 33.82.36-30.99.36 28.19.37 16.92h.36l.36.01.36 8.46.36-59.15.37 5.64.36 14.1.36 25.35.36-25.34.37-16.88.36.01.36 53.5.36-14.07.36-28.14.37-14.07.36 45.05.36-19.7.36-8.43.36 5.64.37 30.96.36 14.08.36-53.46.36-8.43.36 30.96.37-28.13.36 36.58.36 5.63.36-8.43.37 22.51.36-11.25.36 8.45.36-44.99.36 8.45.37-8.43.36.01.36 44.99.36-2.81.36-56.21.37 16.87.36 16.88.36 25.3.36-53.39.36 19.68.37 8.44.36 5.62.36-16.85.36 30.91.36-56.17.37 39.33.36.01.36 8.43.36.01.37 19.66.36-30.88.36-19.65.36.01.36 30.89.37-44.91.36 70.19.36-14.03"/><use xlink:href="#90967__f" color="violet" transform="matrix(3.75 0 0 3.75 182.98 70.57)"/><use xlink:href="#90967__f" color="violet" transform="matrix(3.75 0 0 3.75 220.55 22.51)"/></g><path fill="none" d="M28 45.01V162.5M371.99 45.01H28" color="#000"/></svg>