<svg xmlns="http://www.w3.org/2000/svg" xmlns:xlink="http://www.w3.org/1999/xlink" viewBox="0 0 400 200"><path fill="none" d="M0 0h400v200H0z"/><defs><use xlink:href="#3b791__a" id="3b791__e" fill="currentColor" stroke="none"/><use xlink:href="#3b791__b" id="3b791__g" stroke="currentColor" transform="rotate(180)"/><use xlink:href="#3b791__c" id="3b791__d" stroke="currentColor" transform="rotate(45)"/><use xlink:href="#3b791__d" id="3b791__f" fill="currentColor" stroke="none"/><path id="3b791__c" stroke="currentColor" stroke-width=".267" d="M-1-1h2v2h-2z"/><path id="3b791__b" stroke="currentColor" stroke-width=".267" d="m0-1.33-1.33 2h2.66z"/><circle id="3b791__a" cx="0" cy="0" r="1" stroke="currentColor" stroke-width=".267"/></defs><path fill="none" stroke="#CCC" stroke-linecap="round" stroke-linejoin="round" stroke-width=".1" d="M46.1 162.5V45.01" class="3b791__gridline" color="#000"/><g fill="none" stroke-linecap="round" stroke-linejoin="round" stroke-width="0" color="#000"><path d="M46.1 162.5V155m0-109.99v7.5"/><text fill="#000" font-family="KaTeX_Main" font-size="8" text-anchor="middle" transform="translate(46.1 172.6)"><tspan> 1</tspan></text></g><path fill="none" stroke="#CCC" stroke-linecap="round" stroke-linejoin="round" stroke-width=".1" d="M82.31 162.5V45.01" class="3b791__gridline" color="#000"/><g fill="none" stroke-linecap="round" stroke-linejoin="round" stroke-width="0" color="#000"><path d="M82.31 162.5V155m0-109.99v7.5"/><text fill="#000" font-family="KaTeX_Main" font-size="8" text-anchor="middle" transform="translate(82.31 172.6)"><tspan> 2</tspan></text></g><path fill="none" stroke="#CCC" stroke-linecap="round" stroke-linejoin="round" stroke-width=".1" d="M118.52 162.5V45.01" class="3b791__gridline" color="#000"/><g fill="none" stroke-linecap="round" stroke-linejoin="round" stroke-width="0" color="#000"><path d="M118.52 162.5V155m0-109.99v7.5"/><text fill="#000" font-family="KaTeX_Main" font-size="8" text-anchor="middle" transform="translate(118.52 172.6)"><tspan> 3</tspan></text></g><path fill="none" stroke="#CCC" stroke-linecap="round" stroke-linejoin="round" stroke-width=".1" d="M154.73 162.5V45.01" class="3b791__gridline" color="#000"/><g fill="none" stroke-linecap="round" stroke-linejoin="round" stroke-width="0" color="#000"><path d="M154.73 162.5V155m0-109.99v7.5"/><text fill="#000" font-family="KaTeX_Main" font-size="8" text-anchor="middle" transform="translate(154.73 172.6)"><tspan> 4</tspan></text></g><path fill="none" stroke="#CCC" stroke-linecap="round" stroke-linejoin="round" stroke-width=".1" d="M190.94 162.5V45.01" class="3b791__gridline" color="#000"/><g fill="none" stroke-linecap="round" stroke-linejoin="round" stroke-width="0" color="#000"><path d="M190.94 162.5V155m0-109.99v7.5"/><text fill="#000" font-family="KaTeX_Main" font-size="8" text-anchor="middle" transform="translate(190.94 172.6)"><tspan> 5</tspan></text></g><path fill="none" stroke="#CCC" stroke-linecap="round" stroke-linejoin="round" stroke-width=".1" d="M227.15 162.5V45.01" class="3b791__gridline" color="#000"/><g fill="none" stroke-linecap="round" stroke-linejoin="round" stroke-width="0" color="#000"><path d="M227.15 162.5V155m0-109.99v7.5"/><text fill="#000" font-family="KaTeX_Main" font-size="8" text-anchor="middle" transform="translate(227.15 172.6)"><tspan> 6</tspan></text></g><path fill="none" stroke="#CCC" stroke-linecap="round" stroke-linejoin="round" stroke-width=".1" d="M263.36 162.5V45.01" class="3b791__gridline" color="#000"/><g fill="none" stroke-linecap="round" stroke-linejoin="round" stroke-width="0" color="#000"><path d="M263.36 162.5V155m0-109.99v7.5"/><text fill="#000" font-family="KaTeX_Main" font-size="8" text-anchor="middle" transform="translate(263.36 172.6)"><tspan> 7</tspan></text></g><path fill="none" stroke="#CCC" stroke-linecap="round" stroke-linejoin="round" stroke-width=".1" d="M299.57 162.5V45.01" class="3b791__gridline" color="#000"/><g fill="none" stroke-linecap="round" stroke-linejoin="round" stroke-width="0" color="#000"><path d="M299.57 162.5V155m0-109.99v7.5"/><text fill="#000" font-family="KaTeX_Main" font-size="8" text-anchor="middle" transform="translate(299.57 172.6)"><tspan> 8</tspan></text></g><path fill="none" stroke="#CCC" stroke-linecap="round" stroke-linejoin="round" stroke-width=".1" d="M335.78 162.5V45.01" class="3b791__gridline" color="#000"/><g fill="none" stroke-linecap="round" stroke-linejoin="round" stroke-width="0" color="#000"><path d="M335.78 162.5V155m0-109.99v7.5"/><text fill="#000" font-family="KaTeX_Main" font-size="8" text-anchor="middle" transform="translate(335.78 172.6)"><tspan> 9</tspan></text></g><path fill="none" stroke="#CCC" stroke-linecap="round" stroke-linejoin="round" stroke-width=".1" d="M371.99 162.5V45.01" class="3b791__gridline" color="#000"/><g fill="none" stroke-linecap="round" stroke-linejoin="round" stroke-width="0" color="#000"><path d="M371.99 162.5V155m0-109.99v7.5"/><text fill="#000" font-family="KaTeX_Main" font-size="8" text-anchor="middle" transform="translate(371.99 172.6)"><tspan> 10</tspan></text></g><g fill="none" stroke-linecap="round" stroke-linejoin="round" stroke-width="0" color="#000"><path d="M371.99 162.5h-7.5"/><text fill="#000" font-family="KaTeX_Main" font-size="8" transform="translate(378.99 165.1)"><tspan>0.905</tspan></text></g><g fill="none" stroke-linecap="round" stroke-linejoin="round" stroke-width="0" color="#000"><path d="M371.99 151.82h-7.5"/><text fill="#000" font-family="KaTeX_Main" font-size="8" transform="translate(378.99 154.42)"><tspan>0.910</tspan></text></g><g fill="none" stroke-linecap="round" stroke-linejoin="round" stroke-width="0" color="#000"><path d="M371.99 141.14h-7.5"/><text fill="#000" font-family="KaTeX_Main" font-size="8" transform="translate(378.99 143.74)"><tspan>0.915</tspan></text></g><g fill="none" stroke-linecap="round" stroke-linejoin="round" stroke-width="0" color="#000"><path d="M371.99 130.46h-7.5"/><text fill="#000" font-family="KaTeX_Main" font-size="8" transform="translate(378.99 133.06)"><tspan>0.920</tspan></text></g><g fill="none" stroke-linecap="round" stroke-linejoin="round" stroke-width="0" color="#000"><path d="M371.99 119.78h-7.5"/><text fill="#000" font-family="KaTeX_Main" font-size="8" transform="translate(378.99 122.38)"><tspan>0.925</tspan></text></g><g fill="none" stroke-linecap="round" stroke-linejoin="round" stroke-width="0" color="#000"><path d="M371.99 109.1h-7.5"/><text fill="#000" font-family="KaTeX_Main" font-size="8" transform="translate(378.99 111.7)"><tspan>0.930</tspan></text></g><g fill="none" stroke-linecap="round" stroke-linejoin="round" stroke-width="0" color="#000"><path d="M371.99 98.41h-7.5"/><text fill="#000" font-family="KaTeX_Main" font-size="8" transform="translate(378.99 101.01)"><tspan>0.935</tspan></text></g><g fill="none" stroke-linecap="round" stroke-linejoin="round" stroke-width="0" color="#000"><path d="M371.99 87.73h-7.5"/><text fill="#000" font-family="KaTeX_Main" font-size="8" transform="translate(378.99 90.33)"><tspan>0.940</tspan></text></g><g fill="none" stroke-linecap="round" stroke-linejoin="round" stroke-width="0" color="#000"><path d="M371.99 77.05h-7.5"/><text fill="#000" font-family="KaTeX_Main" font-size="8" transform="translate(378.99 79.65)"><tspan>0.945</tspan></text></g><g fill="none" stroke-linecap="round" stroke-linejoin="round" stroke-width="0" color="#000"><path d="M371.99 66.37h-7.5"/><text fill="#000" font-family="KaTeX_Main" font-size="8" transform="translate(378.99 68.97)"><tspan>0.950</tspan></text></g><g fill="none" stroke-linecap="round" stroke-linejoin="round" stroke-width="0" color="#000"><path d="M371.99 55.69h-7.5"/><text fill="#000" font-family="KaTeX_Main" font-size="8" transform="translate(378.99 58.29)"><tspan>0.955</tspan></text></g><g fill="none" stroke-linecap="round" stroke-linejoin="round" stroke-width="0" color="#000"><path d="M371.99 45.01h-7.5"/><text fill="#000" font-family="KaTeX_Main" font-size="8" transform="translate(378.99 47.61)"><tspan>0.960</tspan></text></g><path fill="none" d="M28 45.01V162.5M371.99 45.01H28" color="#000"/><text stroke-linecap="round" stroke-linejoin="round" stroke-width="0" color="#000" font-family="KaTeX_Main" font-size="10" text-anchor="middle" transform="rotate(-90 57.63 46.13)"><tspan font-weight="bold">Average Path Length </tspan><tspan> / log</tspan><tspan dy="3" font-size="8">2</tspan><tspan dy="-3">(Size)</tspan></text><text stroke-linecap="round" stroke-linejoin="round" stroke-width="0" color="#000" font-family="KaTeX_Main" font-size="10" text-anchor="middle" transform="translate(199.99 195.75)"><tspan>Operations / 10</tspan><tspan dy="-5" font-size="8">6</tspan></text><text stroke-linecap="round" stroke-linejoin="round" color="#000" font-family="KaTeX_Main" font-size="8" transform="translate(76.8 10.11)"><tspan>AVLRelaxedBottomUp</tspan></text><g fill="none" stroke="currentColor" stroke-linecap="round" stroke-linejoin="round" color="#000"><path stroke="#D336C8" d="M41.3 7.51h29.9M28 139.81l.36-1.96.36.28.37-2.25.36 5.54.36-2.58.36-2.31.36-.61.37-.35.36-.69.36-1.1.36-2.59.37 6.17.36-1.88.36-1.78.36-1.25.36-1.34.37-.99.36.16.36.54.36-1.47.36-2.19.37-3.37.36-1.68.36 4.75.36-1.33.36-1.57.37-2.08.36-1.66.36-2.21.36-.41.36-2.37.37 4.65.36-2.14.36-1.07.36-1.9.37-1.05.36-1.05.36-1.22.36-1.4.36.33.37-1.31.36 23.17.36-.53.36 1.28.36-.18.37-.95.36-.83.36-.84.36-1.35.36-.76.37-.25.36-.67.36-1.32.36-.93.37-.72.36-.82.36 5.81.36-1.3.36-.66.37-1.08.36-.8.36 4.01.36-1.12.36-.7.37-.57.36-.53.36-.97.36-.79.36-1.09.37 1.39.36-.64.36-.98.36-.87.37 1.77.36-1.09.36-.78.36-.22.36-1.1.37-.56.36.19.36-1.12.36-1.25.36-.85.37-.86.36-.82.36-.85.36-.17.36-1.5.37.36.36-1.6.36-.23.36-.38.36-1.03.37-.86.36-1.29.36-.67.36.55.37-.93.36-.79.36-.92.36-1.08.36-.39.37-.66.36 9.89.36-.39.36-.38.36-.58.37-.85.36-1.36.36-.46.36-.46.36-.16.37-.12.36-.48.36-.77.36-.74.37-.84.36-1.23.36-1.04.36.18.36.86.37-.14.36-.96.36-.03.36 1.37.36-.52.37-.95.36-.11.36.41.36-.75.36-.39.37 1.49.36-.78.36-.39.36-.34.36-.54.37.08.36 20.58.36-.17.36-.13.37-.43.36-.92.36-.21.36-.31.36-.81.37.01.36 1.23.36-.69.36-.86.36.05.37-.88.36 1.01.36-.59.36-.55.36 1.61.37-.33.36-.4.36-.45.36 2.35.37.01.36-.04.36.17.36-.35.36-.59.37.08.36-.6.36-.35.36.14.36-.61.37-.47.36-3.51.36-.57.36.27.36-.59.37-.29.36.2.36-.36.36.05.36-.52.37-.27.36-.07.36-.42.36-.43.37-.15.36 3.25.36-.23.36-.63.36.18.37.15.36-.39.36-.03.36-.44.36-.1.37-.26.36-.33.36 4.76.36.08.36-.07.37-.33.36-.34.36-.23.36-.23.37-.06.36-.1.36-.27.36-.11.36-.25.37-.43.36-.12.36 1.14.36-.37.36.12.37-.27.36-.34.36-.14.36-.03.36-.53.37-.45.36-.63.36-.5.36-.62.37.04.36-.45.36-.72.36.87.36-.74.37-.44.36-.39.36-.17.36-.43.36-.63.37-.42.36.69.36-.34.36-.45.36-.55.37-.29.36-.69.36-.43.36-.43.36-.29.37-.63.36.18.36-.54.36-.42.37-.43.36-.41.36-.53.36-.59.36 5.83.37-.68.36-.51.36-.32.36-.74.36-.42.37-.39.36-.4.36-.33.36-.08.36-.46.37.18.36 1.48.36.02.36-.38.37-.46.36-.14.36-.07.36-.47.36-.34.37-.26.36 9.73.36-.46.36-.34.36-.03.37-.46.36-.26.36-.34.36-.45.36-.35.37.06.36-.06.36 1.99.36-.49.36-.46.37-.2.36-.21.36 1.56.36-.3.37-.5.36-.15.36-.46.36-.11.36-.34.37-.25.36-.54.36-.32.36 2.34.36-.32.37-.42.36-.43.36-.22.36-.38.36-.9.37-.4.36-.25.36-.47.36-.02.37.2.36-.21.36-.31.36-.3.36 2.19.37-.27.36-.33.36-.08.36-.37.36-.12.37-.31.36-.37.36-.13.36.05.36-.07.37-.36.36-.15.36-.35.36-.89.36-.35.37-.21.36-.29.36-.11.36-.2.37-.15.36-.3.36-.24.36-.05.36-.31.37-.34.36.26.36-.21.36 2.94.36-.06.37-.05.36-.14.36-.32.36-.16.36-.36.37-.26.36-.27.36-.29.36-.19.37-.3.36.22.36-.3.36-.03.36-.32.37-.26.36 7.32.36.05.36-.2.36-.13.37-.01.36-.32.36-.11.36 1.27.36-.33.37-.26.36.36.36-.26.36-.29.37.45.36-.4.36-.17.36-.27.36.35.37-.29.36-.29.36-.17.36 1.35.36-.27.37-.35.36.11.36-.13.36-.33.36.07.37-.28.36-.15.36.24.36-.19.36-.23.37-.29.36-.22.36.13.36-.3.37-.05.36-.28.36-.11.36-.04.36-.08.37-.1.36-.24.36-.13.36-.18.36-.09.37.43.36-.12.36-.2.36-.09.36-.19.37-.08.36-.21.36 1.65.36-.17.37-.18.36-.04.36-.34.36-.21.36-.22.37.04.36-.13.36.32.36-.22.36-.22.37.01.36-.44.36-.27.36-.19.36-.31.37-.29.36-.27.36-.26.36-.36.36-.42.37.66.36-1.06.36-.32.36-.21.37-.26.36-.55.36 1.67.36-.37.36-.23.37-.1.36-.34.36-.54.36-.23.36-.24.37-.33.36-.1.36-.3.36-.2.36-.37.37-.15.36-.3.36-.28.36-.35.37-.31.36-.33.36 1.64.36-.37.36.57.37-.33.36-.33.36-.36.36-.24.36-.36.37.12.36-.47.36-.28.36-.23.36-.41.37-.34.36-.23.36 1.59.36-.1.37-.16.36-.31.36-.34.36-.25.36-.29.37-.36.36-.31.36-.19.36-.2.36-.54.37-.37.36.06.36-.07.36-.26.36-.19.37-.21.36-.19.36-.33.36-.05.36-.31.37-.31.36-.15.36-.34.36.31.37-.25.36-.26.36-.2.36-.28.36-.17.37-.22.36.01.36.35.36.05.36-.14.37 3.4.36-.28.36-.27.36-.12.36-.11.37-.2.36-.32.36 10.63.36-.16.37-.05.36-.25.36-.27.36-.15.36-.27.37-.2.36-.24.36-.33.36.05.36-.18.37-.18.36.99.36-.17.36-.24.36-.2h.37l.36-.28.36-.17.36-.25.36-.15.37-.18.36-.07.36-.25.36-.33.37-.3.36-.25.36.01.36.99.36-.2.37-.21.36-.13.36-.26.36-.23.36-.04.37-.2.36.05.36-.2.36-.27.36-.03.37-.15.36-.22.36-.11.36-.39.37-.22.36-.28.36.04.36.04.36-.18.37 2.8.36-.19.36-.11.36-.22.36.01.37-.24.36-.06.36-.2.36-.17.36.23.37-.26.36-.15.36-.74.36-.08.36-.13.37-.25.36-.19.36-.17.36.44.37-.19.36-.15.36 1.94.36.03.36-.11.37-.17.36-.14.36-.09.36-.16.36-.14.37-.09.36-.23.36.75.36-.19.36-.16.37-.19.36-.16.36-.1.36-.21.37-.09.36-.2.36.08.36-.19.36-.13.37-.13.36-.16.36-.23.36-.14.36-.16.37-.16.36.02.36-.11.36-.21.36-.08.37-.11.36-.12.36-.22.36-.14.37-.23.36-.19.36.25.36-.21.36-.19.37-.2.36.07.36-.14.36-.2.36-.23.37-.14.36.16.36-.16.36-.1.36-.18.37 4.22.36-.16.36-.11.36-.08.36-.21.37-.22.36.04.36-.17.36-.18.37-.22.36.31.36-.07.36-.15.36-.04.37-.16.36.06.36-.09.36-.16.36-.09.37-.18.36-.12.36-.17.36.02.36-.22.37.21.36-.13.36-.2.36-.02.37-.11.36-.19.36-.09.36-.22.36.01.37-.11.36-.2.36-.11.36-.23.36-.05.37-.15.36-.15.36.26.36-.12.36-.13.37-.14.36-.04.36-.18.36-.01.36-.16.37-.19.36-.27.36-.16.36.11.37 6.56.36.04.36-.08.36-.07.36-.13.37-.13.36.09.36-.19.36-.13.36-.06.37-.15.36-.18.36.16.36-.15.36-.2.37.55.36-.02.36-.1.36-.15.37-.13.36-.19.36-.07.36.07.36-.19.37-.15.36-.07.36-.07.36.31.36-.14.37-.02.36-.06.36-.13.36-.13.36-.07.37-.13.36.03.36.08.36-.12.36-.09.37-.94.36-.11.36-.06.36-.05.37.11.36-.13.36-.03.36-.14.36.22.37-.1.36-.15.36.06.36-.14.36-.07.37-.17.36-.16.36-.07.36-.12.36-.14.37.08.36-.06.36-.15.36-.09.37.14.36-.1.36-.06.36-.14.36.88.37-.12.36-.16.36.01.36-.16.36-.14.37.26.36-.06.36-.19.36-.11.36-.13.37.22.36-.03.36-.07.36-.08.37-.1.36-.08.36-.12.36.25.36-.08.37-.14.36-.07.36-.13.36-.01.36-.14.37-.12.36-.06.36.2.36-.1.36-.13.37-.07.36-.05.36-.11.36-.07.36-.08.37-.13.36-.14.36.01.36-.1.37-.1.36.41.36-.14.36-.1.36-.07.37-.08.36.09.36-.09.36-.08.36-.08.37-.15.36 2.83.36-.09.36-.06.36-.2.37-.12.36-.02.36.54.36-.05.37-.12.36-.01.36-.1.36.09.36-.07.37-.09.36-.09.36-.13.36-.11.36-.14.37-.04.36-.17.36-.1.36-.06.36-.09.37-.1.36-.12.36.21.36-.19.36-.1.37-.02.36.46.36-.02.36-.07.37-.11.36.24.36-.13.36-.01.36.03.37-.11.36-.1.36-.02.36-.06.36-.14.37-.24.36-.1.36-.24.36-.21.36-.13.37-.15.36-.2.36.02.36-.18.37-.19.36-.2.36.41.36-.09.36-.24.37-.17.36-.17.36-.11.36-.06.36-.11.37-.17.36-.17.36-.2.36-.18.36-.17.37.36.36-.17.36-.16.36-.16.36.32.37-.16.36-.43.36-.07.36-.16.37-.2.36.09.36-.19.36-.17.36-.19.37.29.36-.15.36-.2h.36l.36-.13.37-4.37.36-.11.36-.03.36.07.36.01.37-.02.36.23.36-.03.36-.09.37-.02.36-.04.36.02.36-.05.36-.05.37-.03.36.23.36-.07.36-.11.36.01.37-.05.36-.08.36.04.36-.02.36.78.37.02.36.03.36-.02.36-.09.37-.07.36-.04.36-.06.36-.06.36-.15.37-.15.36-.02.36.13.36-.13.36-.1.37-.11.36-.13.36.07.36-.14.36.02.37-.17.36-.18.36-.04.36-.18.36.04.37-.05.36.22.36-.07.36-.12.37-.09.36-.05.36-.15.36-.11.36.08.37-.14.36-.07.36-.15"/><use xlink:href="#3b791__b" color="#D336C8" transform="matrix(3.75 0 0 3.75 354.25 87.41)"/><use xlink:href="#3b791__b" color="#D336C8" transform="matrix(3.75 0 0 3.75 56.25 7.51)"/></g><text stroke-linecap="round" stroke-linejoin="round" color="#000" font-family="KaTeX_Main" font-size="8" transform="translate(76.8 25.11)"><tspan>RedBlackRelaxedTopDown</tspan></text><g fill="none" stroke="currentColor" stroke-linecap="round" stroke-linejoin="round" color="#000"><path stroke="violet" stroke-dasharray="4.0,2.0,1.0,2.0" d="M41.3 22.51h29.9M28 154.84l.36-3.69.36-7.12.37 8.05.36-5.44.36-2.26.36-1.43.36-5.17.37-4.97.36-6.73.36 20.05.36-3.8.37-2.92.36-5.7.36 1.52.36-3.88.36-5.7.37 4.48.36-3.99.36-3.42.36-5.44.36-1.33.37-4.64.36-4.49.36-6.56.36 41.02.36-2.49.37-1.69.36-3.99.36.7.36-3.77.36-2.77.37-4.95.36 5.73.36-3.69.36-1.44.37-1.23.36-3.39.36-3.41.36-4.41.36 12.06.37-2.05.36-2.05.36-3.09.36-.84.36-3.01.37-2.88.36-3.91.36 2.51.36-2.69.36-2.61.37-3.64.36-1.4.36-4.15.36-4.11.37-3.1.36-4.97.36 70.61.36-1.37.36-.81.37-2.5.36.71.36-1.94.36-1.52.36-2.78.37 3.56.36-1.62.36-3.1.36-1.23.36-2.91.37.17.36-2.63.36-2.11.36-3.35.37 10.81.36-1.5.36-1.36.36-2.06.36-.33.37-2.57.36-2.52.36-1.75.36-3.16.36 3.32.37-2.16.36-1.92.36-2.66.36-.79.36-2.43.37-2.41.36-3.55.36-3.49.36 23.77.36-1.28.37-.86.36-2.09.36.21.36-1.78.37-1.51.36-2.16.36-3.23.36 3.53.36-1.9.37-1.29.36-2.47.36-.28.36-2.18.36-3.19.37-1.67.36-2.98.36 8.85.36-1.76.36-1.13.37-1.99.36-.45.36-2.17.36-2.2.37-1.58.36-2.73.36 2.19.36-1.81.36-2.84.37-1.35.36-2.55.36-.4.36-2.51.36-2.07.37-2.66.36-3.5.36 43.71.36-.81.36-.61.37-1.18.36.17.36-1.49.36-1.38.36-.91.37-1.98.36 2.57.36-1.12.36-2 .37-.72.36-1.78.36-.08.36-1.53.36-1.4.37-2.36.36-2.16.36 7.5.36-1.3.36-.74.37-1.44.36-2.18.36.46.36-1.69.36-1.22.37-2.24.36-1.96.36 2.63.36-1.51.37-1.23.36-2 .36-1.93.36-.27.36-1.77.37-2.46.36-1.41.36-2.46.36 16.45.36-.82.37-1.43.36-.55.36-1.4.36.09.36-1.47.37-1.37.36-1.09.36-1.59.36-2.35.36 2.74.37-1.4.36-.83.36-1.52.36-2.04.37.03.36-1.64.36-1.36.36-2.05.36-2 .37 6.14.36-1.04.36-1.62.36-.76.36-1.55.37-.2.36-1.58.36-1.5.36-1.26.36-1.74.37-2.32.36 2.13.36-1.5.36-1.11.37-1.9.36-1.78.36-.37.36-1.67.36-2.19.37-1.33.36-2.1.36 71.83.36-.51.36-.44.37-.23.36-.7.36-1.12.36.49.36-.65.37-1.3.36-.35.36-1.2.36 2.06.37-.87.36-.75.36-.55.36-.97.36-1.48.37.41.36-1.08.36-.85.36-1.37.36-1.39.37 5.4.36-.84.36-.68.36-.48.36-.91.37-1.41.36.43.36-1.02.36-.76.36-1.34.37-1.29.36 1.65.36-1.18.36-.95.37-.75.36-1.16.36-1.66.36.18.36-1.29.37-.99.36-1.56.36-1.64.36 12.09.36-.67.37-.59.36-.46.36-1 .36-.87.36.31.37-1.08.36-.85.36-.67.36-1.07.37-1.5.36 1.99.36-.77.36-1.16.36-.67.37-.99.36-1.5.36.27.36-1.12.36-1.57.37-.72.36-1.41.36 4.66.36-.83.36-.83.37-.56.36-1.08.36-1.16.36.06.36-1.12.37-1.01.36-.89.36-1.38.36-1.29.37 1.43.36-1.2.36-.95.36-.8.36-1.48.37-1.19.36-.18.36-1.14.36-1.52.36-1 .37-1.42.36-1.77.36 25.17.36-.38.36-.7.37-.28.36-.61.36-.97.36.36.37-.6.36-.96.36-.52.36-.83.36-1.23.37 1.79.36-.57.36-.97.36-.49.36-.81.37-1.2.36.14.36-.79.36-1.18.36-.75.37-1.01.36-1.43.36 4.75.36-.65.36-.93.37-.32.36-.89.36-1.15.36.18.37-.73.36-1.13.36-.65.36-.99.36-1.32.37 1.49.36-.75.36-1.06.36-.67.36-.96.37-1.28.36-.08.36-.96.36-1.26.36-.86.37-1.16.36-1.48.36 9.95.36-.47.37-.79.36-.39.36-.68.36-1.03.36.22.37-.69.36-.98.36-.59.36-.89.36-1.19.37 1.38.36-.92.36-.69.36-.53.36-1.09.37-.91.36-.12.36-1 .36-.91.37-.79.36-1.21.36-1.11.36 3.65.36-.74.37-.77.36-.49.36-.91.36-.95.36-.07.37-.93.36-.9.36-.72.36-1.09.36-1.1.37-1.47.36 1.51.36-.88.36-1.2.36-.56.37-1.06.36-1.38h.36l.36-1.08.37-1.28.36-.77.36-1.24.36-1.48.36 44.24.37-.2.36-.48.36-.11.36-.41.36-.67.37.38.36-.61.36-.42.36-.35.36-.71.37-.63.36 1.34.36-.51.36-.52.37-.27.36-.68.36-.65.36.07.36-.63.37-.64.36-.95.36-.36.36-.85.36-1.06.37 3.85.36-.32.36-.65.36-.28.36-.53.37-.83.36.21.36-.74.36-.57.36-.49.37-.85.36-.75.36 1.08.36-.62.37-.65.36-.43.36-.78.36-.78.36-1.07.37.22.36-.78.36-.98.36-.61.36-.86.37-1.17.36 8.23.36-.33.36-.55.36-.23.37-.65.36-.54.36.13.36-.59.37-.61.36-.4.36-.72.36-.75.36-.94.37 1.34.36-.47.36-.73.36-.38.36-.82.37-.68.36-.02.36-.74.36-.74.36-.56.37-.85.36-.91.36-1.08.36 3.52.37-.44.36-.71.36-.36.36-.79.36-.65.37-.01.36-.71.36-.71.36-.52.36-.84.37-.84.36-1.09.36 1.22.36-.68.36-.85.37-.51.36-.75.36-.98.36-.1.36-.9.37-.78.36-.69.36-.99.36-1 .37 15.95.36-.31.36-.32.36-.56.36-.08.37-.47.36-.65.36.24.36-.4.36-.62.37-.35.36-.66.36-.66.36 1.05.36-.46.37-.46.36-.69.36-.25.36-.61.37-.79.36.11.36-.7.36-.58.36-.5.37-.78.36-.77.36-1.04.36 3.44.36-.46.37-.62.36-.29.36-.53.36-.73.36.08.37-.66.36-.64.36-.4.36-.75.36-.73.37-.97.36 1.19.36-.58.36-.73.37-.42.36-.67.36-.85.36-.1.36-.74.37-.74.36-.55.36-.85.36-.85.36-1.06.37 6.92.36-.32.36-.56.36-.25.36-.61.37-.59.36.1.36-.56.36-.52.37-.78.36-.31.36-.67.36-.86.36 1.01.37-.62.36-.5.36-.43.36-.68.36-.69.37-.11.36-.64.36-.67.36-.82.36-.52.37-.74.36-.91.36 2.63.36-.53.36-.53.37-.73.36-.27.36-.64.36-.79h.37l.36-.75.36-.59.36-.52.36-.79.37-.79.36-1.01.36 1.07.36-.64.36-.77.37-.49.36-.86.36-.7.36-.18.36-.77.37-.76.36-.99.36-.5.36-.87.37-1.03.36 70.82.36-.25.36-.1.36-.03.37-.28.36-.31.36-.5.36.5.36-.27.37-.44.36-.12.36-.48.36-.37.36.99.37-.27.36-.26.36-.46.36-.13.37-.34.36-.52.36.15.36-.42.36-.41.37-.62.36-.14.36-.53.36-.66.36 2.8.37-.35.36-.22.36-.16.36-.39.36-.4.37-.6.36.33.36-.37.36-.55.36-.23.37-.58.36-.47.36.82.36-.39.37-.37.36-.57.36-.18.36-.49.36-.63.37.08.36-.56.36-.51.36-.35.36-.61.37-.61.36-.75.36 6.04.36-.31.36-.21.37-.15.36-.37.36-.35.36-.53.37.25.36-.31.36-.46.36-.27.36-.5.37-.48.36-.7.36 1.16.36-.35.36-.5.37-.21.36-.53.36-.49.36.06.36-.45.37-.49.36-.6.36-.34.36-.67.36-.53.37 2.36.36-.37.36-.32.36-.51.37-.22.36-.39.36-.56.36.06.36-.47.37-.46.36-.66.36-.23.36-.57.36-.69.37.81.36-.5.36-.45.36-.66.36-.21.37-.56.36-.7.36.01.36-.61.37-.57.36-.42.36-.66.36-.66.36-.79.37 12.23.36-.29.36-.16.36-.13.36-.32.37-.3.36-.49.36.26.36-.26.36-.41.37-.22.36-.44.36-.44.36-.6.36 1.05.37-.31.36-.43.36-.19.36-.46.37-.45.36.06.36-.4.36-.42.36-.54.37-.29.36-.59.36-.49.36 2.13.36-.3.37-.29.36-.44.36-.18.36-.49.36-.35.37.05.36-.42.36-.4.36-.56.37-.29.36-.45.36-.6.36.72.36-.43.37-.38.36-.56.36-.28.36-.44.36-.6.37-.03.36-.51.36-.51.36-.67.36-.37.37-.54.36-.69.36 5.08.36-.29.37-.29.36-.45.36-.16.36-.31.36-.48.37.09.36-.39.36-.39.36-.53.36-.27.37-.42.36-.58.36.71.36-.38.36-.38.37-.53.36-.26.36-.41.36-.56.36-.03.37-.48.36-.49.36-.62.36-.36.37-.5.36-.67.36 2.02.36-.38.36-.36.37-.53.36-.18.36-.45.36-.56.36-.01.37-.47.36-.46.36-.61.36-.29.36-.55.37-.65.36.62.36-.49.36-.46.37-.62.36-.26.36-.55.36-.64.36-.09.37-.56.36-.55.36-.7.36-.37.36-.64.37-.73.36 22.5.36-.16.36-.16.36-.32.37.03.36-.25.36-.34.36.19.36-.26.37-.26.36-.39.36-.14.36-.29.37-.43.36.77.36-.26.36-.25.36-.4.37-.13.36-.28.36-.42.36.08.36-.36.37-.32.36-.48.36-.21.36-.51.36-.39.37 1.98.36-.23.36-.24.36-.35.37-.13.36-.38.36-.36.36.09.36-.32.37-.33.36-.42.36-.23.36-.46.36-.44.37.61.36-.32.36-.32.36-.43.36-.21.37-.45.36-.42.36-.58.36.15.36-.41.37-.5.36-.33.36-.52.36-.51.37-.65.36 4.79.36-.22.36-.31.36-.13.37-.34.36-.3.36-.44.36.16.36-.27.37-.39.36-.22.36-.42.36-.38.36-.53.37.73.36-.37.36-.27.36-.24.37-.4.36-.41.36-.49.36.05.36-.45.37-.36.36-.33.36-.47.36-.49.36-.57.37 1.88.36-.34.36-.31.36-.2.36-.38.37-.38.36-.49.36.06.36-.42.37-.39.36-.53.36-.22.36-.46.36-.55.37.54.36-.39.36-.38.36-.5.36-.27.37-.42.36-.54.36-.08.36-.48.36-.44.37-.58.36-.36.36-.6.36-.52.36 9.17.37-.2.36-.19.36-.29.36-.11.37-.32.36-.28.36-.42.36.24.36-.27.37-.37.36-.2.36-.37"/><use xlink:href="#3b791__e" color="violet" transform="matrix(3.75 0 0 3.75 67.83 114.69)"/><use xlink:href="#3b791__e" color="violet" transform="matrix(3.75 0 0 3.75 56.25 22.51)"/></g><text stroke-linecap="round" stroke-linejoin="round" color="#000" font-family="KaTeX_Main" font-size="8" transform="translate(241.1 10.11)"><tspan>LBSTRelaxed</tspan></text><g fill="none" stroke="currentColor" stroke-linecap="round" stroke-linejoin="round" color="#000"><path stroke="#FFAB00" stroke-dasharray="4.0,2.0,1.0,2.0" d="M205.6 7.51h29.9M28 106.43l.36-3.43.36-6.44.37 28.05.36-2.25.36-1.51.36-5.15.36-4.49.37 2.4.36-4.19.36-2.47.36-5.71.37 7.46.36-3.21.36-2.14.36-4.16.36-.54.37-4.64.36-4.75.36-3.18.36-6 .36 46.97.37-1.74.36-.47.36-3.06.36 1.66.36-2.51.37-1.56.36-3.3.36 4.56.36-2.39.36-2.79.37-1.26.36-3.85.36.75.36-2.86.37-2.61.36-3.91.36 14.46.36-1.59.36-3.25.37-1.07.36-3.03.36 1.75.36-3.1.36-1.92.37-3.53.36 4.05.36-2.22.36-1.76.36-3.56.37-3.63.36.16.36-3.26.36-2.81.37-3.88.36 30.57.36-1.26.36-.86.36-2.16.37.57.36-1.69.36-3.12.36-1.3.36-2.99.37 4.02.36-1.9.36-1.53.36-2.43.36-.16.37-2.3.36-3.53.36-1.84.36-3.44.37 10.94.36-1.89.36-1.18.36-2.54.36.5.37-2.16.36-1.75.36-3.26.36 2.73.36-2.2.37-2.27.36-1.54.36-3.05.36-.26.36-2.59.37-2.25.36-3.6.36 44.41.36-.92.36.12.37-1.51.36.91.36-1.21.36-.99.37-2.03.36-2.09.36 3.53.36-1.25.36-1.05.37-1.62.36.16.36-1.71.36-1.41.36-2.47.37 6.89.36-.96.36-1.32.36-.72.36-1.83.37.4.36-1.5.36-1.3.36-1.92.37 1.81.36-1.62.36-1.68.36-1.07.36-2.26.37-.16.36-2.01.36-1.72.36-2.69.36 16.86.37-.81.36-.56.36-1.62.36-1.42.36.27.37-1.41.36-1.09.36-1.68.36 2.83.36-1.18.37-1.02.36-1.93.36-1.87h.36l.37-1.77.36-1.6.36-2.02.36 5.66.36-1.12.37-1.05.36-1.44.36-.23.36-1.69.36-1.71.37-1.2.36-2.21.36 1.86.36-1.47.36-1.4.37-1.71.36-.69.36-1.95.36-2.03.37-1.56.36 29.36.36-.56.36-.32.36-1.23.37-1.06.36.62.36-1.07.36-.92.36-1.31.37 1.73.36-.87.36-.72.36-1.53.36-1.4.37.16.36-1.4.36-1.26.36-1.58.36 4.85.37-.86.36-.73.36-1.13.36-1.76.37.37.36-1.32.36-1.04.36-1.68.36 1.52.37-1.08.36-1.07.36-1.41.36-1.99.36-.07.37-1.64.36-1.48.36-1.78.36 10.66.36-.77.37-.72.36-1.03.36-.16.36-1 .37-.94.36-1.5.36-1.49.36 1.78.36-1.04.37-1.02.36-1.33.36-.3.36-1.25.36-1.83.37-1.12.36 3.43.36-1.12.36-.97.36-.69.37-1.43.36-.2.36-1.25.36-1.08.37-1.75.36-1.67.36 1.4.36-1.32.36-1.17.37-1.5.36-.54.36-1.5.36-1.98.36 43.24.37-.39.36-.12.36-.69.36.55.36-.5.37-1.01.36-.37.36-1 .36 1.84.36-.73.37-.47.36-.76.36-.01.36-.98.37-.98.36-.77.36-1.26.36 3.9.36-.48.37-.49.36-.79h.36l.36-.99.36-.91.37-.72.36-1.26.36 1.56.36-.92.36-.67.37-1.01.36-.33.36-1.18.36-1.13.37-.89.36 7.51.36-.35.36-.58.36-.35.37-.85.36-.02.36-.7.36-.61.36-1.17.37-1.08.36 1.45.36-.78.36-.61.36-1.09.37-.13.36-.98.36-.91.36-1.32.36 3.03.37-.68.36-.87.36-.58.36-1.06.37-.08.36-.94.36-.82.36-1.3.36-1.3.37 1.13.36-1 .36-.79.36-1.26.36-.34.37-1.16.36-1.53.36-1 .36 17.1.36-.42.37-.35.36-.65.36.04.36-.59.37-.97.36-.46.36-.95.36 1.19.36-.64.37-.51.36-.86.36-.13.36-.74.36-1.15.37-.76.36-1.1.36 3.78.36-.58.36-.55.37-.78.36-.16.36-.7.36-1.15.36-.65.37-1.12.36.98.36-.93.36-.66.37-1.01.36-.44.36-1.13.36-1.07.36-.86.37 6.14.36-.6.36-.63.36-.43.36-.86.37-.03.36-.79.36-.68.36-.89.36.69.37-.81.36-.82.36-.62.36-1.04.37-.3.36-.94.36-.83.36-1.26.36 2.38.37-.59.36-.97.36-.57.36-.93.36-.27.37-.89.36-.84.36-1.27.36.62.36-.94.37-.95.36-.81.36-1.18.36-.42.37-1.04.36 28.71.36-.31.36-.32.36-.13.37-.54.36.18.36-.42.36-.4.36-.69.37-.71.36 1.11.36-.47.36-.43.36-.65.37-.07.36-.57.36-.9.36-.56.36-.85.37 2.61.36-.45.36-.38.36-.58.37-.09.36-.55.36-.87.36-.57.36-.83.37.83.36-.7.36-.53.36-.79.36-.33.37-.88.36-.86.36-.66.36 5.09.36-.37.37-.49.36-.28.36-.67.36-.04.37-.6.36-.5.36-.87.36.7.36-.6.37-.62.36-.53.36-.78.36-.24.36-.72.37-1.01.36-.59.36 1.97.36-.63.36-.59.37-.42.36-.81.36-.19.36-.7.36-.66.37-.94.36-.96.36.63.36-.73.37-.74.36-.88.36-.41.36-.85.36-1.09.37-.73.36 10.72.36-.4.36-.28.36-.5.37-.09.36-.6.36-.57.36-.41.36-.77.37.74.36-.6.36-.4.36-.67.37-.23.36-.74.36-.74.36-.51.36-.9.37 2.22.36-.47.36-.45.36-.63.36-.26.37-.73.36-.71.36-.53.36-.87.36.57.37-.61.36-.61.36-.74.36-1.01.37-.26.36-.82.36-.79.36 4.51.36-.44.37-.69.36-.24.36-.64.36-.1.36-.62.37-.55.36-.83.36-.82.36.68.36-.6.37-.58.36-.76.36-.32.36-.87.36-.8.37-.65.36-1 .36 2.04.36-.6.37-.53.36-.75.36-.32.36-.69.36-.93.37-.62.36-.9.36.42.36-.77.36-.65.37-.87.36-.49.36 40.77.36-.17.36.01.37-.34.36.18.36-.29.36-.49.37-.15.36-.47.36 1.07.36-.32.36-.21.37-.38.36-.62.36.13.36-.42.36-.41.37-.54.36 1.95.36-.24.36-.23.36-.44.37-.47.36.06.36-.47.36-.3.36-.55.37.52.36-.49.36-.45.36-.34.37-.63.36-.13.36-.56.36-.47.36-.75.37 4.15.36-.24.36-.26.36-.42.36-.43.37.05.36-.48.36-.32.36-.52.36.58.37-.35.36-.57.36-.32.36-.55.37-.15.36-.51.36-.47.36-.61.36 1.61.37-.36.36-.57.36-.29.36-.53.36-.13.37-.51.36-.46.36-.6.36.34.36-.56.37-.55.36-.43.36-.69.36-.26.36-.64.37-.55.36 7.81.36-.07.36-.26.37-.19.36-.36h.36l.36-.34.36-.55.37-.28.36-.51.36.49.36-.34.36-.33.37-.46.36-.16.36-.42.36-.65.36-.39.37-.63.36 1.76.36-.38.36-.33.37-.44.36-.14.36-.42.36-.65.36-.36.37-.62.36.45.36-.52.36-.4.36-.57.37-.29.36-.64.36-.64.36-.52.36 3.52.37-.3.36-.35.36-.36.36-.47.37-.06.36-.46.36-.39.36-.63.36-.62.37.53.36-.46.36-.42.36-.58.36-.22.37-.54.36-.72.36-.5.36-.75.36 1.57.37-.45.36-.43.36-.53.36-.23.36-.54.37-.71.36-.46.36-.69.36.36.37-.6.36-.48.36-.65.36-.39.36-.68.37-.73.36 16.46.36-.22.36-.1.36-.28.37-.03.36-.32.36-.32.36-.24.36-.44.37.42.36-.29.36-.25.36-.47.37-.47.36.02.36-.43.36-.37.36-.52.37 1.83.36-.31.36-.25.36-.38.36-.55.37-.01.36-.42.36-.4.36-.5.36.35.37-.39.36-.31.36-.54.36-.55.36-.16.37-.56.36-.44.36-.61.36 3.58.37-.3.36-.21.36-.36.36-.08.36-.44.37-.44.36-.31.36-.55.36.41.36-.37.37-.35.36-.55.36-.55.36-.14.36-.51.37-.44.36-.6.36 1.29.36-.35.37-.36.36-.53.36-.53.36-.12.36-.5.37-.46.36-.58.36.23.36-.46.36-.62.37-.38.36-.61.36-.31.36-.58.36-.54.37 6.58.36-.28.36-.29.36-.2.36-.4.37-.04.36-.36.36-.31.36-.5.37.26.36-.31.36-.47.36-.29.36-.5.37-.16.36-.46.36-.41.36-.59.36 1.28.37-.4.36-.38.36-.29.36-.48.36-.17.37-.45.36-.39.36-.59.36-.59.37.36.36-.46.36-.41.36-.53.36-.29.37-.6.36-.61.36-.47.36 2.76.36-.33.37-.24.36-.46.36-.46.36-.09.36-.45.37-.4.36-.5.36.22.36-.46.37-.47.36-.37.36-.56.36-.25.36-.5.37-.68.36-.45.36 1.02.36-.44.36-.45.37-.36.36-.55.36-.26.36-.51.36-.64.37-.48.36-.63.36.22.36-.55.36-.44.37-.61.36 28.02.36-.15.36-.14.37-.07.36-.24.36.06.36-.18.36-.35.37-.16.36-.33.36.51.36-.25.36-.14.37-.3.36-.09.36-.33.36-.34.36-.31.37-.38.36 1.32.36-.25.36-.15.37-.28.36-.44h.36l.36-.33.36-.27.37-.41.36.33.36-.31.36-.23.36-.42.37-.43.36-.1.36-.44.36-.37.36-.47.37 2.78.36-.23.36-.14.36-.29.36-.04.37-.33.36-.32.36-.26.36-.42.37.32.36-.29.36-.22.36-.43.36-.42.37-.09.36-.42.36-.34.36-.47.36 1.08.37-.28.36-.26.36-.41.36-.41.36-.1.37-.42.36-.32.36-.47.36.18.37-.42.36-.43.36-.29.36-.5.36-.22.37-.44.36-.43.36 5.26.36-.12.36-.22.37-.17.36-.27.36-.03.36-.28.36-.24.37-.38.36.24.36-.32.36-.29.36-.23.37-.38.36-.13.36-.34.36-.48.37-.32.36 1.07.36-.29.36-.29.36-.26.37-.34.36-.14.36-.33.36-.47.36-.31.37-.48.36.27.36-.38.36-.29.36-.42.37-.55.36-.16.36-.46.36-.42.37 2.41.36-.24.36-.36.36-.18.36-.38.37-.07.36-.33.36-.48.36-.3.36-.44.37.24.36-.39.36-.3.36-.43.36-.18.37-.47.36-.45.36-.37.36-.55.37 1.06.36-.37.36-.29.36-.42.36-.22.37-.45.36-.44.36-.38.36-.52.36.1.37-.42.36-.39.36-.52.36-.53.36-.19.37-.53.36 10.74.36-.15.36-.13.36-.26.37-.28.36.03.36-.28.36-.19.37-.31.36.16.36-.22.36-.35.36-.18.37-.33.36-.08.36-.35"/><use xlink:href="#3b791__f" color="#FFAB00" transform="matrix(3.75 0 0 3.75 125.4 98.5)"/><use xlink:href="#3b791__f" color="#FFAB00" transform="matrix(3.75 0 0 3.75 220.55 7.51)"/></g><text stroke-linecap="round" stroke-linejoin="round" color="#000" font-family="KaTeX_Main" font-size="8" transform="translate(241.1 25.11)"><tspan>WBSTRelaxed</tspan></text><g fill="none" stroke="currentColor" stroke-linecap="round" stroke-linejoin="round" color="#000"><path stroke="violet" stroke-dasharray="4.5,2.0,0.5,2.0,0.5,2.0" d="M205.6 22.51h29.9M28 106.59l.36 13.52.36-4.19.37-2.11.36-2.46.36-5.07.36 2.36.36-4.76.37-4.57.36-3.01.36-5.07.36 25.94.37-1.63.36-3.26.36-2.23.36-1.89.36.63.37-2.38.36-3.46.36-3.2.36-3.76.36-4.82.37 9.72.36-2.12.36-2.3.36-3.98.36-4.19.37 1.41.36-4.07.36-4.02.36-2.43.36 42.05.37-.74.36-1.32.36-.48.36-3.24.37-2.07.36 2.55.36-1.91.36-1.18.36-3.11.37-3.25.36 7.15.36-2.79.36-1.74.36-1.19.37-2.94.36 1.1.36-2.97.36-2.73.36-1.87.37-4.16.36 15.05.36-1.95.36-1.38.37-.98.36-1.98.36-3.62.36 1.77.36-2.25.37-1.53.36-3.06.36-3.52.36 5.84.36-1.66.37-3.03.36-1.37.36-2.84.36.04.36-2.94.37-2.59.36-2.23.36-3.95.36 29.63.37-.99.36-1.13.36-1.68.36-1.37.36.33.37-1.17.36-2.47.36-.08.36-2.4.36 3.62.37-1.83.36-1.73.36-.69.36-2.54.36-2.34.37.58.36-1.82.36-2.99.36-1.31.36-2.72.37 11.59.36-1.29.36-.88.36-1.94.37-1.98.36.29.36-2.18.36-1.77.36-1.49.37-2.23.36 2.9.36-1.47.36-1.94.36-1.37.37-2.46.36-2.56.36.42.36-2.38.36-2.69.37 42.21.36-.36.36-1.3.36.85.37-1.03.36-.76.36-1.4.36.3.36-1.68.37-1.17.36-1.93.36 3.68.36-1.25.36-1 .37-.62.36-1.46.36-2.15.36.87.36-1.29.37-1.1.36-2.01.36-2 .36 8.95.36-.9.37-1.65.36-.05.36-1.83.36.43.37-1.39.36-1.94.36-.69.36-1.61.36 2.49.37-1.05.36-1.92.36-.6.36-1.71.36-2.14.37.47.36-1.47.36-2.24.36-1.27.36 17.07.37-.79.36-.9.36-.35.36-1.3.37-1.27.36.84.36-1.13.36-1.48.36-.8.37-1.65.36 2.62.36-1.21.36-1.3.36-.81.37-1.43.36-1.98.36.61.36-1.33.36-1.91.37-1.11.36-1.82.36 6.48.36-.96.36-1.46.37-.44.36-1.45.36.09.36-1.43.37-1.31.36-1.1.36-1.83.36-1.84.36 2.52.37-1.61.36-1.66.36-.53.36-1.83.36-.51.37-1.26.36-1.57.36 26.82.36-.29.36-.54.37-.24.36-.89.36-.96.36.55.37-.82.36-1 .36-.67.36-1.07.36 2.02.37-.92.36-.88.36-.47.36-1.26.36-1.09.37.29.36-1.13.36-1.39.36-.88.36-1.37.37 5.58.36-.82.36-.95.36-.38.37-1.21.36-.03.36-1.08.36-1.05.36-.81.37-1.43.36-1.38.36 2.13.36-1.08.36-1.15.37-.92.36-1.39.36-1.42.36.09.36-1.37.37-1.68.36-.86.36 11.17.36-.59.36-1.08.37-.22.36-.89.36.19.36-1.02.37-.87.36-.67.36-1.25.36-1.17.36 1.54.37-.84.36-1.19.36-.65.36-1.25.36-1.39.37.42.36-1.21.36-1.59.36-.71.36-1.45.37 4.77.36-.97.36-.86.36-.52.37-1.12.36-.42.36-1.13.36-1.15.36-.8.37-1.45.36-1.46.36 1.68.36-1.21.36-1.46.37-.62.36-1.29.36-.32.36-1.31.36 41.39.37-.06.36-.57.36-.5.36.49.36.17.37-.22.36-.53.36-.67.36.01.37-.61.36-.65.36-.58.36.59.36-.58.37-.96.36-.57.36-.99.36-.05.36-.88.37-.91.36 2.35.36 1.9.36-.54.36-.56.37-.23.36-.81.36-.76.36.35.37-.82.36-.78.36-.46.36-1.04.36-.99.37 1.41.36-.61.36-.95.36-.5.36-1.01.37-.98.36.11.36-1.11.36 7.41.36.63.37-.61.36-.39.36-.34.36-.67.36-.97.37.49.36-.69.36-.96.36-.34.37-.9.36 1.2.36-.55.36-.75.36-.65.37-.65.36-1.05.36.19.36-.92.36-.84.37-.66.36 2.27.36-.63.36-.9.36-.04.37-.71.36-.67.36-.96.36-.32.37-.89.36-1.07.36-.96.36.47.36-.25.37-.34.36-.71.36-1.02.36-.56.36-1.13.37-1.05.36-.11.36 16.28.36-.38.36-.66.37-.1.36-.72.36.53.36-.12.37-.61.36-.05.36-.46.36-.79.36-.35.37-.66.36-.99.36.33.36-.77.36-1.01.37-.49.36-.92.36.9.36-.62.36.49.37 1.1.36-.58.36-.38.36-.72.36-.67.37.07.36-.74.36-.74.36-.52.37-.95.36-.94.36 1.08.36-.66.36-.85.37-.5.36-.83.36-1 .36-.22.36-.63.37-1.07.36-.88.36 7.06.36-.6.36-.38.37-.32.36-.78.36.02.36-.65.37-.63.36-.45.36-.88.36-.76.36 1.08.37-.8.36-.61.36-.44.36-.94.36-.74.37-.13.36-.7.36-1.01.36-.62.36-.93.37 2.55.36-.51.36-.61.36-.8.36-1.03.37-.29.36-.33.36-.68.36-.69.37-1.06.36-.56.36.66.36-.78.36-.78.37-.58.36-.96.36-.94.36-.23.36 26.81.37-.29.36-.05.36-.45.36-.39.36.21.37-.39.36-.35.36.19.36-.34.37-.28.36-.56.36-.65.36.18.36-.52.37-.46.36-.73.36.65.36-.55.36-.55.37-.41.36 1.34.36-.03.36-.55.36-.56.37-.39.36-.76.36.66.36-.46.37-.7.36-.36.36-.75.36-.2.36.89.37-.52.36-.41.36-.69.36.05.36-.38.37-.36.36-.57.36-.6.36-.86.36 4.16.37-.1.36-.04.36-.41.36-.44.36-.23.37-.63.36-.47.36.21.36-.57.37-.63.36-.53.36-.32.36-.72.36-.67.37 1.11.36-.6.36-.5.36-.81.36-.29.37-.55.36-.81.36 1.59.36-.6.36-.54.37-.36.36-.69.36-.65.36.1.37-.35.36-.23.36-.56.36-.78.36-.45.37-.76.36-.22.36-.77.36-.78.36-.62.37-.93.36-.94.36.41.36 11.83.36-.44.37-.13.36-.35.36-.02.36-.44.36-.47.37-.27.36-.61.36-.59.36.76.37-.43.36-.53.36-.4.36-.54.36-.48.37-.07.36-.58.36 1.36.36-.21.36-.48.37-.42.36-.37.36-.58.36-.6.36.02.37-.58.36-.58.36.23.36-.59.37-.56.36-.47.36-.63.36-.86.36-.03.37-.72.36-.58.36-.84.36 1.74.36-.41.37-.57.36-.67.36-.54.36-.28.36 2.81.37-.61.36-.39.36-.72.36-.63.36.77.37-.6.36-.39.36-.64.36-.7.37-.09.36-.69.36-.65.36-.55.36-.88.37 1.83.36-.34.36-.55.36-.58.36-.72.37-.08.36-.66.36-.68.36-.49.36-.8.37.38.36-.65.36-.6.36-.53.37 2.51.36-.5.36-.48.36-.38.36-.55.37-.22.36-.62.36 37.96.36-.12.36-.41.37.62.36-.15.36-.28.36-.28.36-.43.37-.08.36-.04.36-.41.36-.4.37 1.69.36-.19.36-.39.36-.14.36-.34.37.11.36-.31.36-.52.36-.22.36-.48.37.52.36-.3.36-.28.36-.5.36-.48h.37l.36 2.76.36-.25.36-.21.36.1.37-.14.36-.14.36-.24.36-.31.37-.26.36-.27.36-.44.36-.48.36-.39.37-.57.36.45.36-.42.36.16.36-.18.37.41.36-.25.36-.21.36-.3.36-.46.37-.24.36-.51.36-.5.36.05.37-.5.36.02.36-.26.36-.49.36-.47.37-.43.36-.67.36-.55.36-.07.36 3.51.37-.35.36-.31.36-.21.36-.43.36-.06.37-.38.36-.52.36-.37.36-.5.36.39.37-.47.36-.36.36-.55.36-.54.37-.11.36-.55.36-.44.36-.63.36 1.26.37-.27.36 4.84.36-.44.36-.3.36-.14.37-.17.36-.46.36-.43.36-.33.36.1.37-.2.36-.5.36-.45.36-.29.37-.58.36-.53.36-.04.36 2.98.36-.25.37-.39.36-.28.36-.23.36-.16.36-.33.37-.42.36-.51.36-.4.36.37.36-.29.37-.49.36-.49.36 2.4.36-.13.36-.23.37-.22.36-.39.36-.29.36-.13.37-.29.36.02.36-.37.36-.29.36-.45.37-.14.36-.51.36-.41.36 1.07.36-.39.37-.3.36-.35.36-.26.36-.39.36-.35.37-.56.36.11.36-.39.36-.46.37-.43.36-.35.36-.46.36-.65.36 2.21.37-.34.36-.28.36-.41.36-.14.36-.43.37-.41.36-.5.36.14.36-.46.36-.38.37-.51.36-.28.36-.53.36-.47.37.63.36-.44.36-.38.36-.52.36-.49.37-.2.36-.61.36-.34.36-.13.36 13.63.37-.19.36-.17.36-.03.36-.3.36-.25.37.13.36-.27.36-.33.36-.13.36-.39.37-.36.36.62.36-.24.36-.35.37-.2.36-.31.36-.48.36.13.36-.35.37-.49.36-.26.36-.41.36 1.59.36-.17.37-.31.36-.25.36-.45.36-.4.36.2.37-.37.36-.37.36-.48.36-.23.37.4.36-.35.36-.38.36-.24.36-.46.37-.45.36-.05.36-.48.36-.46.36-.32.37 3.24.36-.26.36-.11.36-.29.36-.19.37-.31.36-.24.36-.43.36-.43.36.08.37-.35.36-.41.36.11.36-.13.37-.37.36-.5.36-.17.36-.42.36-.44.37-.52.36.06.36-.5.36-.42.36 1.19.37-.27.36-.42.36-.24.36-.36.36-.5.37-.04.36-.38.36-.51.36-.35.37-.55.36.33.36-.39.36-.37.36-.49.37-.37.36-.54.36-.49.36-.11.36-.49.37 6.88.36-.2.36-.26.36-.14.36-.26.37-.36.36-.02.36-.22.36-.35.36-.33.37-.22.36-.41.36.42.36-.31.37-.31.36-.21.36-.39.36-.39.36-.09.37-.39.36-.38.36-.51.36-.28.36 1.08.37-.12.36-.3.36-.26.36-.42.36-.38.37-.29.36-.47.36-.49.36.01.37-.32.36.03.36-.39.36-.46.36-.26.37-.47.36-.46.36-.13.36-.46.36-.48.37-.57.36 3.13.36-.24.36-.17.36-.28.37-.25.36-.34.36-.45.36-.28.37-.44.36-.56.36.16.36-.44.36.04.37-.27.36-.35.36-.45.36-.38.36-.28.37-.5.36-.47.36-.52.36-.02.36-.5.37 1.05.36-.25.36-.4.36-.4.36-.26.37-.48.36-.43.36-.06.36-.46.37-.43.36-.55.36-.37.36.16.36 26.37.37-.12.36-.2.36-.04"/><use xlink:href="#3b791__g" color="violet" transform="matrix(3.75 0 0 3.75 182.98 70.26)"/><use xlink:href="#3b791__g" color="violet" transform="matrix(3.75 0 0 3.75 220.55 22.51)"/></g><path fill="none" d="M28 45.01V162.5M371.99 45.01H28" color="#000"/></svg>