<svg xmlns="http://www.w3.org/2000/svg" xmlns:xlink="http://www.w3.org/1999/xlink" viewBox="0 0 400 200"><path fill="none" d="M0 0h400v200H0z"/><defs><use xlink:href="#39c9c__a" id="39c9c__e" fill="currentColor" stroke="none"/><use xlink:href="#39c9c__b" id="39c9c__g" stroke="currentColor" transform="rotate(180)"/><use xlink:href="#39c9c__c" id="39c9c__d" stroke="currentColor" transform="rotate(45)"/><use xlink:href="#39c9c__d" id="39c9c__f" fill="currentColor" stroke="none"/><path id="39c9c__c" stroke="currentColor" stroke-width=".267" d="M-1-1h2v2h-2z"/><path id="39c9c__b" stroke="currentColor" stroke-width=".267" d="m0-1.33-1.33 2h2.66z"/><circle id="39c9c__a" cx="0" cy="0" r="1" stroke="currentColor" stroke-width=".267"/></defs><path fill="none" stroke="#CCC" stroke-linecap="round" stroke-linejoin="round" stroke-width=".1" d="M46.1 162.5V45.01" class="39c9c__gridline" color="#000"/><g fill="none" stroke-linecap="round" stroke-linejoin="round" stroke-width="0" color="#000"><path d="M46.1 162.5V155m0-109.99v7.5"/><text fill="#000" font-family="KaTeX_Main" font-size="8" text-anchor="middle" transform="translate(46.1 172.6)"><tspan> 1</tspan></text></g><path fill="none" stroke="#CCC" stroke-linecap="round" stroke-linejoin="round" stroke-width=".1" d="M82.31 162.5V45.01" class="39c9c__gridline" color="#000"/><g fill="none" stroke-linecap="round" stroke-linejoin="round" stroke-width="0" color="#000"><path d="M82.31 162.5V155m0-109.99v7.5"/><text fill="#000" font-family="KaTeX_Main" font-size="8" text-anchor="middle" transform="translate(82.31 172.6)"><tspan> 2</tspan></text></g><path fill="none" stroke="#CCC" stroke-linecap="round" stroke-linejoin="round" stroke-width=".1" d="M118.52 162.5V45.01" class="39c9c__gridline" color="#000"/><g fill="none" stroke-linecap="round" stroke-linejoin="round" stroke-width="0" color="#000"><path d="M118.52 162.5V155m0-109.99v7.5"/><text fill="#000" font-family="KaTeX_Main" font-size="8" text-anchor="middle" transform="translate(118.52 172.6)"><tspan> 3</tspan></text></g><path fill="none" stroke="#CCC" stroke-linecap="round" stroke-linejoin="round" stroke-width=".1" d="M154.73 162.5V45.01" class="39c9c__gridline" color="#000"/><g fill="none" stroke-linecap="round" stroke-linejoin="round" stroke-width="0" color="#000"><path d="M154.73 162.5V155m0-109.99v7.5"/><text fill="#000" font-family="KaTeX_Main" font-size="8" text-anchor="middle" transform="translate(154.73 172.6)"><tspan> 4</tspan></text></g><path fill="none" stroke="#CCC" stroke-linecap="round" stroke-linejoin="round" stroke-width=".1" d="M190.94 162.5V45.01" class="39c9c__gridline" color="#000"/><g fill="none" stroke-linecap="round" stroke-linejoin="round" stroke-width="0" color="#000"><path d="M190.94 162.5V155m0-109.99v7.5"/><text fill="#000" font-family="KaTeX_Main" font-size="8" text-anchor="middle" transform="translate(190.94 172.6)"><tspan> 5</tspan></text></g><path fill="none" stroke="#CCC" stroke-linecap="round" stroke-linejoin="round" stroke-width=".1" d="M227.15 162.5V45.01" class="39c9c__gridline" color="#000"/><g fill="none" stroke-linecap="round" stroke-linejoin="round" stroke-width="0" color="#000"><path d="M227.15 162.5V155m0-109.99v7.5"/><text fill="#000" font-family="KaTeX_Main" font-size="8" text-anchor="middle" transform="translate(227.15 172.6)"><tspan> 6</tspan></text></g><path fill="none" stroke="#CCC" stroke-linecap="round" stroke-linejoin="round" stroke-width=".1" d="M263.36 162.5V45.01" class="39c9c__gridline" color="#000"/><g fill="none" stroke-linecap="round" stroke-linejoin="round" stroke-width="0" color="#000"><path d="M263.36 162.5V155m0-109.99v7.5"/><text fill="#000" font-family="KaTeX_Main" font-size="8" text-anchor="middle" transform="translate(263.36 172.6)"><tspan> 7</tspan></text></g><path fill="none" stroke="#CCC" stroke-linecap="round" stroke-linejoin="round" stroke-width=".1" d="M299.57 162.5V45.01" class="39c9c__gridline" color="#000"/><g fill="none" stroke-linecap="round" stroke-linejoin="round" stroke-width="0" color="#000"><path d="M299.57 162.5V155m0-109.99v7.5"/><text fill="#000" font-family="KaTeX_Main" font-size="8" text-anchor="middle" transform="translate(299.57 172.6)"><tspan> 8</tspan></text></g><path fill="none" stroke="#CCC" stroke-linecap="round" stroke-linejoin="round" stroke-width=".1" d="M335.78 162.5V45.01" class="39c9c__gridline" color="#000"/><g fill="none" stroke-linecap="round" stroke-linejoin="round" stroke-width="0" color="#000"><path d="M335.78 162.5V155m0-109.99v7.5"/><text fill="#000" font-family="KaTeX_Main" font-size="8" text-anchor="middle" transform="translate(335.78 172.6)"><tspan> 9</tspan></text></g><path fill="none" stroke="#CCC" stroke-linecap="round" stroke-linejoin="round" stroke-width=".1" d="M371.99 162.5V45.01" class="39c9c__gridline" color="#000"/><g fill="none" stroke-linecap="round" stroke-linejoin="round" stroke-width="0" color="#000"><path d="M371.99 162.5V155m0-109.99v7.5"/><text fill="#000" font-family="KaTeX_Main" font-size="8" text-anchor="middle" transform="translate(371.99 172.6)"><tspan> 10</tspan></text></g><g fill="none" stroke-linecap="round" stroke-linejoin="round" stroke-width="0" color="#000"><path d="M371.99 162.5h-7.5"/><text fill="#000" font-family="KaTeX_Main" font-size="8" transform="translate(378.99 165.1)"><tspan>0.00</tspan></text></g><g fill="none" stroke-linecap="round" stroke-linejoin="round" stroke-width="0" color="#000"><path d="M371.99 149.45h-7.5"/><text fill="#000" font-family="KaTeX_Main" font-size="8" transform="translate(378.99 152.05)"><tspan>5.00</tspan></text></g><g fill="none" stroke-linecap="round" stroke-linejoin="round" stroke-width="0" color="#000"><path d="M371.99 136.39h-7.5"/><text fill="#000" font-family="KaTeX_Main" font-size="8" transform="translate(378.99 138.99)"><tspan>10.00</tspan></text></g><g fill="none" stroke-linecap="round" stroke-linejoin="round" stroke-width="0" color="#000"><path d="M371.99 123.34h-7.5"/><text fill="#000" font-family="KaTeX_Main" font-size="8" transform="translate(378.99 125.94)"><tspan>15.00</tspan></text></g><g fill="none" stroke-linecap="round" stroke-linejoin="round" stroke-width="0" color="#000"><path d="M371.99 110.28h-7.5"/><text fill="#000" font-family="KaTeX_Main" font-size="8" transform="translate(378.99 112.88)"><tspan>20.00</tspan></text></g><g fill="none" stroke-linecap="round" stroke-linejoin="round" stroke-width="0" color="#000"><path d="M371.99 97.23h-7.5"/><text fill="#000" font-family="KaTeX_Main" font-size="8" transform="translate(378.99 99.83)"><tspan>25.00</tspan></text></g><g fill="none" stroke-linecap="round" stroke-linejoin="round" stroke-width="0" color="#000"><path d="M371.99 84.17h-7.5"/><text fill="#000" font-family="KaTeX_Main" font-size="8" transform="translate(378.99 86.77)"><tspan>30.00</tspan></text></g><g fill="none" stroke-linecap="round" stroke-linejoin="round" stroke-width="0" color="#000"><path d="M371.99 71.12h-7.5"/><text fill="#000" font-family="KaTeX_Main" font-size="8" transform="translate(378.99 73.72)"><tspan>35.00</tspan></text></g><g fill="none" stroke-linecap="round" stroke-linejoin="round" stroke-width="0" color="#000"><path d="M371.99 58.06h-7.5"/><text fill="#000" font-family="KaTeX_Main" font-size="8" transform="translate(378.99 60.66)"><tspan>40.00</tspan></text></g><g fill="none" stroke-linecap="round" stroke-linejoin="round" stroke-width="0" color="#000"><path d="M371.99 45.01h-7.5"/><text fill="#000" font-family="KaTeX_Main" font-size="8" transform="translate(378.99 47.61)"><tspan>45.00</tspan></text></g><path fill="none" d="M28 45.01V162.5M371.99 45.01H28" color="#000"/><text stroke-linecap="round" stroke-linejoin="round" stroke-width="0" color="#000" font-family="KaTeX_Main" font-size="10" text-anchor="middle" transform="rotate(-90 57.63 46.13)"><tspan font-weight="bold">Duration </tspan><tspan> in milliseconds</tspan></text><text stroke-linecap="round" stroke-linejoin="round" stroke-width="0" color="#000" font-family="KaTeX_Main" font-size="10" text-anchor="middle" transform="translate(199.99 195.75)"><tspan>Operations / 10</tspan><tspan dy="-5" font-size="8">6</tspan></text><text stroke-linecap="round" stroke-linejoin="round" color="#000" font-family="KaTeX_Main" font-size="8" transform="translate(76.8 10.11)"><tspan>AVLRelaxedBottomUp</tspan></text><g fill="none" stroke="currentColor" stroke-linecap="round" stroke-linejoin="round" color="#000"><path stroke="#D336C8" d="M41.3 7.51h29.9M28 157.7l.36.45.36-.49.37.49.36-.48.36.49.36-.52.36-.01.37.51.36-.5.36.48.36-.49.37.48.36-.52h.36l.36.49.36-.49.37.47.36-.52.36.54.36-.52.36.51.37-.53.36.02.36.47.36-.48.36-.02.37.48.36-.49.36.46.36-.49.36.5.37-.51.36.51.36-.54.36.02.37.47.36-.5.36.5.36-.54.36.52.37-.52.36-.01.36.48.36-.5.36.52.37-.51.36.02.36.48.36-.5.36.47.37-.5.36.49.36-.5.36.5.37-.51.36-.01.36.49.36-.49.36.49.37-.5h.36l.36.47.36-.48.36.48.37-.47.36.47.36-.5.36.49.36-.49.37-.01.36.47.36-.5.36.51.37-.5.36.51.36-.51.36-.02.36.51.37-.49.36.49.36-.55.36.03.36.49.37-.52.36.5.36-.51.36.53.36-.52.37.5.36-.53.36.03.36.45.36-.47.37.02.36.45.36-.5.36.49.37-.49.36.49.36-.52.36.5.36-.52.37.52.36-.52h.36l.36.49.36-.51.37.48.36-.49.36.49.36-.48.36-.04.37.53.36-.51.36.49.36-.5.37-.01.36.48.36-.5.36.5.36-.48.37.5.36-.52.36.5.36-.51.36.03.37.47.36-.5h.36l.36.44.36-.48.37.49.36-.46.36.48.36-.49.36.51.37-.55.36.02.36.5.36-.49.37.48.36-.51.36.49.36-.48.36.5.37-.46.36-.05.36.5.36-.51.36.5.37-.5.36-.02.36.5.36-.47.36.47.37-.49.36.51.36-.52.36.5.37-.52.36.03.36.47.36-.47.36-.01.37.47.36-.47.36.48.36-.5.36.5.37-.51.36.5.36-.52.36.01.36.5.37-.5.36.5.36-.49.36.49.36-.5.37.46.36-.48.36.01.36.5.37-.52.36.03.36.47.36-.47.36.47.37-.5.36.51.36-.52.36.48.36-.46.37.44.36-.47.36.02.36.47.36-.48.37.01.36.48.36-.51.36.48.37-.48.36.48.36-.5.36.51.36-.5.37-.02.36.5.36-.49.36.47.36-.47.37.48.36-.5.36.49.36-.5h.36l.37.5.36-.51.36.05.36.44.37-.49.36.5.36-.48.36.46.36-.47.37.51.36-.52.36.01.36.45.36-.46.37.46.36-.47.36.01.36.46.36-.49.37.5.36-.49.36.5.36-.52.36.51.37-.51.36.02.36.45.36-.52.37.49.36-.47.36.51.36-.51.36.52.37-.55.36-.01.36.51.36-.49h.36l.37.44.36-.47.36.47.36-.48.36.49.37-.48.36.49.36-.49h.36l.37.47.36-.46.36.46.36-.51.36.03.37.5.36-.54.36.5.36-.5.36.52.37-.49.36.01.36.46.36-.49.36.49.37-.47.36.49.36-.51.36.48.36-.48.37.02.36.47.36-.53.36.51.37-.49h.36l.36.48.36-.48.36.47.37-.47.36.48.36-.49.36.48.36-.47h.37l.36.47.36-.47.36.46.36-.46.37-.04.36.5.36-.5.36.47.37-.47.36.48.36-.49.36-.01.36.5.37-.46.36.46.36-.47.36.48.36-.52.37.51.36-.52.36.01.36.46.36-.5.37.07.36.42.36-.43.36.44.36-.49.37.49.36-.48.36.49.36-.5.37.51.36-.51.36.05.36.45.36-.52.37.51.36-.49.36.01.36.46.36-.48.37.47.36-.49.36.5.36-.5.36.03.37.47.36-.47.36.46.36-.49.37.49.36-.49.36.48.36-.51.36.05.37.42.36-.44.36.02.36.43.36-.47.37.49.36-.49.36.47.36-.49.36.52.37-.5h.36l.36.45.36-.44.37.47.36-.49.36.49.36-.51.36.03.37.48.36-.52.36.5.36-.5.36.51.37-.51.36-.01.36.51.36-.48.36.48.37-.5.36.5.36-.49.36.48.36-.5.37.04.36.44.36-.5.36.01.37.47.36-.49.36.5.36-.49.36.52.37-.53.36.54.36-.55.36.02.36.47.37-.45.36.47.36-.49.36.45.36-.47.37.02.36.46.36-.52.36.51.37-.47h.36l.36.48.36-.49.36.48.37-.47.36.49.36-.52.36.51.36-.49.37-.01.36.47.36-.47.36.45.36-.48.37-.01.36.45.36-.42.36.48.36-.48.37.46.36-.5.36.52.36-.52.37.02.36.45.36-.44.36.46.36-.47.37.47.36-.48.36-.02.36.5.36-.49.37.51.36-.52.36.03.36.45.36-.52.37.52.36-.48.36.48.36-.51.37.51.36-.51.36-.01.36.47.36-.47.37-.01.36.5.36-.51.36.49.36-.5.37.51.36-.52.36.49.36-.45.36.47.37-.46.36-.04.36.47.36-.46.37.48.36-.49.36.51.36-.5.36.01.37.45.36-.47.36.48.36-.48.36.01.37.46.36-.49.36.49.36-.47.36.48.37-.51.36.5.36-.51.36.03.36.49.37-.49.36-.02.36.47.36-.5.37.49.36-.45.36.45.36-.5.36.5.37-.5.36-.01.36.42.36-.38.36.45.37-.47.36.48.36-.48.36.48.36-.48.37-.05.36.5.36-.48.36.47.37-.47.36.01.36.47.36-.49.36.49.37-.5.36.51.36-.5.36.52.36-.52.37.01.36.47.36-.48.36-.01.36.48.37-.5.36.51.36-.53.36.51.36-.48.37.5.36-.51h.36l.36.48.37-.51.36.5.36-.49.36.46.36-.52.37.51.36-.5.36.02.36.52.36-.51.37.01.36.46.36-.47.36.49.36-.49.37.51.36-.48.36.47.36-.52.37.51.36-.5.36.01.36.49.36-.48.37-.01.36.5.36-.5.36.51.36-.49.37.45.36-.45.36.46.36-.46.36-.01.37.47.36-.48.36.48.36-.5.36.48.37-.47.36.48.36-.49.36.01.37.47.36-.49.36.02.36.44.36-.43.37.45.36-.48.36.49.36-.47.36.48.37-.48.36.02.36.45.36-.46.36.46.37-.48.36.02.36.46.36-.48.37.49.36-.49.36.5.36-.5.36.46.37-.46h.36l.36.45.36-.47.36.46.37-.45.36.46.36-.48.36.47.36-.48.37.03.36.46.36-.5.36.02.37.45.36-.45.36.49.36-.52.36.52.37-.49.36.49.36-.51.36-.01.36.48.37-.48.36.49.36-.48h.36l.36.46.37-.45.36.49.36-.56.36.55.36-.52.37.04.36.41.36-.42.36.44.37-.44.36.47.36-.52.36.51.36-.49.37.02.36.42.36-.44.36.5.36-.5.37.01.36.48.36-.47.36.45.36-.42.37.47.36-.54.36.5.36-.49.37.01.36.46.36-.49.36.49.36-.46.37.01.36.46.36-.45.36.45.36-.47.37.47.36-.49.36.01.36.44.36-.47.37.48.36-.45.36.48.36-.47.36.46.37-.48h.36l.36.47.36-.47.37.02.36.44.36-.47.36.47.36-.49.37.48.36-.51.36.51.36-.46.36.51.37-.49h.36l.36.43.36-.49.36.49.37-.46.36-.01.36.48.36-.52.37.53.36-.52.36.52.36-.48.36-.01.37.46.36-.47.36.49.36-.49.36.45.37-.49.36.51.36-.47.36-.03.36.48.37-.51.36.02.36.45.36-.43.36.46.37-.46.36.48.36-.49.36.48.37-.51.36.03.36.46.36-.46.36.49.37-.49.36.48.36-.49.36-.01.36.51.37-.51.36.52.36-.52.36.49.36-.44.37-.03.36.48.36-.5.36.5.37-.5.36.5.36-.49.36.46.36-.49.37.04.36.46.36-.46.36-.01.36.46.37-.51.36.5.36-.48.36.52.36-.5.37.48.36-.52.36.03.36.48.37-.51.36.48.36-.5.36.52.36-.47.37.02.36.45.36-.5.36.5.36-.49.37.02.36.49.36-.52.36.5.36-.51.37.5.36-.46.36.47.36-.51.36.02.37.46.36-.44.36.42.36-.45.37-.02.36.49.36-.46.36.45.36-.48.37.52.36-.51.36.49.36-.51.36.02.37.45.36-.45.36.48.36-.48.36.49.37-.5.36-.01.36.46.36-.47.37.51.36-.5.36.03.36.44.36-.45.37.45.36-.43.36.46.36-.51.36.49.37-.49.36.04.36.42.36-.43h.36l.37.48.36-.47.36.44.36-.47.36.48.37-.47.36.45.36-.44.36.48.37-.54.36.06.36.46.36-.48.36.47.37-.46.36.46.36-.49.36.02.36.5.37-.51.36.5.36-.51.36-.01.36.49.37-.47.36.45.36-.44.36.44.37-.46.36.46.36-.52.36.07.36.41.37-.45h.36l.36.44.36-.42.36.43.37-.52.36.54.36-.47.36.52.36-.54.37.05.36.4.36-.45.36.5.36-.48.37.5.36-.49.36.49.36-.51h.37l.36.47.36-.48.36.49.36-.48.37.01.36.42.36-.49.36.55.36-.49.37.47.36-.48.36.52.36-.53.36.02.37.49.36-.49.36.01.36.43.37-.44.36.49.36-.49.36.48.36-.53.37.49.36-.47.36.01.36.48.36-.47.37.45.36-.49.36.47.36-.48.36.51.37-.46.36.01.36.48.36-.5h.37l.36.45.36-.45.36.44.36-.45.37.49.36-.49.36.48.36-.48.36.49.37-.49h.36l.36.48.36-.48.36-.03.37.48.36-.49.36.52.36-.52.36.48.37-.47.36.47.36-.45.36.01.37.49.36-.49.36.44.36-.47.36.49.37-.48.36.5.36-.53"/><use xlink:href="#39c9c__b" color="#D336C8" transform="matrix(3.75 0 0 3.75 354.25 156.16)"/><use xlink:href="#39c9c__b" color="#D336C8" transform="matrix(3.75 0 0 3.75 56.25 7.51)"/></g><text stroke-linecap="round" stroke-linejoin="round" color="#000" font-family="KaTeX_Main" font-size="8" transform="translate(76.8 25.11)"><tspan>RedBlackRelaxedTopDown</tspan></text><g fill="none" stroke="currentColor" stroke-linecap="round" stroke-linejoin="round" color="#000"><path stroke="violet" stroke-dasharray="4.0,2.0,1.0,2.0" d="M41.3 22.51h29.9M28 157.57l.36.45.36-.52.37.48.36-.48.36.01.36.43.36-.49.37.03.36.29.36-.39.36.62.37-.54.36.42.36-.41.36.49.36-.56.37-.05.36.51.36-.45.36.46.36-.49.37-.14.36.34.36-.57.36.8.36-.32.37.42.36-.55.36.04.36.44.36-.49.37.44.36-.41.36.47.36-.46.37.44.36-.57.36.02.36.44.36-.58.37.24.36.41.36-.5.36.42.36-.34.37.41.36-.54.36.38.36-.34.36.42.37-.5.36-.06.36.65.36-.67.37.27.36-.58.36.39.36.69.36-.57.37.48.36-.53.36.52.36-.53h.36l.37.41.36-.41.36.5.36-.45.36.44.37-.5.36.44.36-.55.36.03.37.4.36-.36.36.02.36.41.36-.51.37.62.36-.58.36.48.36-.57.36.56.37-.5.36-.02.36.44.36-.48.36.56.37-.56.36.22.36-.56.36.4.36.57.37-.54.36.46.36-.54.36.54.37-.58.36-.02.36.42.36-.28.36.41.37-.49.36.53.36-.51.36.46.36-.57.37.01.36.42.36-.51.36.22.36.41.37-.48.36.4.36-.45.36.47.37-.51.36.49.36-.65.36.25.36.45.37-.69.36.39.36-.55.36.46.36-.58.37.05.36.51.36-.26.36.69.36-.43.37.03.36.43.36-.47.36.43.36-.53.37.5.36-.65.36.72.36-.58.37.52.36-.54.36-.03.36.53.36-.55.37.03.36.38.36-.39.36.55.36-.51.37.49.36-.52.36.54.36-.5.36-.12.37.58.36-.51.36.48.36-.5.37.46.36-.48.36-.03.36.45.36-.41.37.41.36-.45.36-.14.36.34.36-.05.37.44.36-.49.36.45.36-.55.36.51.37-.47.36-.03.36.44.36-.54.36.16.37.52.36-.55.36.46.36-.47.37.41.36-.48.36.44.36-.38.36.23.37-.5.36.39.36.39.36-.56.36.47.37-.57.36.61.36-.58.36-.02.36.47.37-.48.36.58.36-.45.36-.07.37.43.36-.48.36.34.36-.64.36.39.37-.46.36.49.36-.46.36.43.36.63.37-.44.36-.01.36.41.36-.47.36.43.37-.48.36.48.36-.48.36.33.37-.29.36-.02.36.42.36-.52.36.45.37-.45.36.49.36-.55.36.49.36-.5.37-.11.36.77.36-.54.36.47.36-.51.37-.02.36.56.36-.5.36.43.36-.48.37.43.36-.47.36.53.36-.57.37-.01.36.49.36-.54.36.09.36.45.37-.56.36.57.36-.75.36.5.36-.06.37.39.36-.51.36.01.36.46.36-.52.37.51.36-.52.36.45.36-.52.37.44.36-.4.36.12.36.41.36-.48.37-.09.36.47.36-.41.36.4.36-.5.37.58.36-.68.36.34.36-.09.36.51.37-.58.36.02.36.42.36-.56.36.1.37.41.36-.45.36.43.36-.52.37.51.36-.31.36.41.36-.52.36-.02.37.48.36-.67.36.31.36-.53.36.49.37-.52.36.58.36-.22.36.21.36.49.37-.54.36.03.36.4.36-.44.37.53.36-.56.36.45.36-.5.36.39.37-.37.36.07.36.33.36-.43.36.5.37-.53.36.04.36.45.36-.51.36.49.37-.5.36.2.36-.14.36.63.36-.63.37-.01.36.43.36-.49.36.6.37-.49.36.39.36-.37.36.41.36-.54.37.05.36.53.36-.58.36.05.36.38.37-.49.36.47.36-.44.36.44.36-.47.37.43.36-.7.36.26.36.72.37-.54.36.4.36-.49.36-.02.36.48.37-.46.36.41.36-.43.36.43.36-.55.37-.02.36.61.36-.5.36.44.36-.47.37.47.36-.59.36.58.36-.52.37.47.36-.44.36-.19.36.39.36-.06.37-.02.36.41.36-.49.36.48.36-.56.37.39.36-.58.36.48.36-.53.36-.04.37.41.36-.42.36.48.36-.54.36-.01.37.44.36-.54.36.52.36-.39.37.4.36-.53.36.1.36.46.36-.31.37.64.36-.39.36.51.36-.32.36.47.37-.53.36.09.36.44.36-.56.36.04.37.43.36-.55.36.53.36-.44.37.43.36-.48.36.47.36-.53.36.46.37-.42.36-.05.36.47.36-.44.36.23.37-.45.36.34.36.43.36-.57.36.46.37-.48.36.37.36-.3.36-.04.36.42.37-.49.36.44.36-.52.36.6.37-.49.36.47.36-.49h.36l.36.4.37-.48.36.08.36.39.36-.47.36.5.37-.71.36.53.36-.08.36.49.36-.6.37.01.36.46.36-.51.36.5.37-.48.36.44.36-.49.36-.05.36.48.37-.51.36.69.36-.56.36.46.36-.65.37.01.36.57.36-.38.36.4.36-.54.37.51.36-.51.36.43.36-.44.37.12.36.41.36-.48.36-.02.36.45.37-.6.36.64.36-.55.36.51.36-.44.37.36.36-.49.36.03.36.52.36-.44.37.43.36-.46.36.41.36-.53.36.17.37.4.36-.52.36.32.36-.67.37.08.36.78.36-.22.36.37.36-.5.37.5.36-.51.36.43.36-.4.36.48.37-.53h.36l.36.38.36-.45h.36l.37.56.36-.52.36.48.36-.55.37.5.36-.58.36.59.36-.5.36-.04.37.46.36-.49.36.26.36-.24.36.69.37-.49.36-.07.36.49.36-.56.36.45.37-.36.36-.12.36.4.36-.37.36.47.37-.54.36.46.36-.45.36.49.37-.56.36.13.36.35.36-.52.36.11.37.43.36-.41.36.31.36-.71.36.49.37-.39.36.85.36-.41.36.42.36-.5.37-.04.36.49.36-.57.36.53.37-.51.36.44.36-.49.36-.01.36.41.37-.38.36.55.36-.57.36.05.36.33.37-.43.36.49.36-.41.36.45.36-.55.37.52.36-.53.36-.08.36.6.36-.34h.37l.36.44.36-.48.36.4.37-.54.36.6.36-.51.36.44.36-.47h.37l.36.37.36-.55.36.42.36-.59.37.42.36-.47.36.45.36-.46.36-.01.37.57.36-.53.36.47.36-.38.37-.06.36.46.36-.14.36.55.36-.37.37.5.36-.34.36.37.36-.49.36.05.37.47.36-.57.36.02.36.46.36-.46.37.51.36-.46.36.44.36-.52.37.49.36-.5.36.02.36.4.36-.42.37.47.36-.45.36.5.36-.69.36.4.37-.12.36.01.36.36.36-.46.36-.02.37.48.36-.51.36.47.36-.45.36.42.37-.45.36.41.36-.46.36.46.37-.39h.36l.36.43.36-.48.36-.01.37.4.36-.44.36.52.36-.51.36.47.37-.46.36.33.36-.61.36.37.36.59.37-.54.36.39.36-.49.36.47.37-.51.36.56.36-.49.36-.09.36.58.37-.59.36.01.36.45.36-.3.36.47.37-.5.36.46.36-.71.36.66.36-.5.37.04.36.41.36-.48.36.48.36-.52.37-.07.36.52.36-.35.36.43.37-.48.36.51.36-.55.36.42.36-.51.37.09.36.41.36-.42.36.5.36-.54.37.44.36-.38.36.47.36-.5.36-.06.37.51.36-.52.36-.06.36.62.37-.45.36.43.36-.63.36.31.36-.48.37.56.36-.09.36.11.36.35.36-.54.37.47.36-.44.36-.04.36.5.36-.5.37.34.36-.32.36.44.36-.47.36-.08.37.59.36-.52.36.46.36-.47.37.4.36-.49.36.48.36-.41.36.47.37-.53.36.04.36.44.36-.76.36.26.37.65.36-.45.36.38.36-.42.36.47.37-.6.36.59.36-.48.36-.21.37.53.36-.39.36.43.36-.55.36.04.37.48.36-.45.36.44.36-.46.36.4.37-.5.36.05.36.54.36-.46.36.38.37-.67.36.31.36-.36.36.72.37-.2.36-.01.36.34.36-.44.36-.05.37.48.36-.55.36.5.36-.47.36.44.37-.47.36.47.36-.57.36.51.36-.39.37-.01.36.45.36-.47.36.37.36-.44.37.07.36.47.36-.55.36.48.37-.47.36.47.36-.56.36.09.36.7.37-.52.36.4.36-.48.36.44.36-.53.37.55.36-.51.36.01.36.4.36-.44.37.01.36.42.36-.62.36.36.37-.54.36.45.36-.44.36.41.36-.52h.37l.36.63.36-.52.36.38.36-.43.37.5.36-.41.36.18.36.8.36-.47.37.45.36-.45.36.39.36-.47.36.03.37.46.36-.52.36.49.36-.45.37.42.36-.49.36.47.36-.42.36-.02.37.46.36-.47.36-.06.36.53.36-.51.37.51.36-.5.36.45.36-.47.36.41.37-.68.36.13.36.72.36-.58.37.5.36-.49.36.47.36-.47.36-.14.37.63.36-.57.36.46.36-.45h.36l.37.38.36-.46.36.6.36-.42.36.41.37-.5.36.45.36-.53.36.48.36-.39.37-.01.36.44.36-.62.36-.16.37.46.36-.32.36.74.36-.38.36.39.37-.53.36.53.36-.59.36.04.36.44.37-.44.36.47.36-.51.36.45.36-.47.37-.04.36.63.36-.46.36.42.37-.48.36-.02.36.38.36-.38.36.54.37-.54.36.44.36-.42.36.46.36-.51.37-.09.36.54.36-.41.36.02.36.39.37-.46.36.42.36-.44.36.47.37-.45.36.28.36-.43.36.54.36-.49.37-.06.36.51.36-.33.36.41.36-.53.37.54.36-.54.36-.04.36.51.36-.44.37.42.36-.53.36-.14.36.36.36-.43.37.68.36-.19.36.54.36-.53.37.47.36-.53.36-.04.36.4.36-.38.37-.02.36.41.36-.46"/><use xlink:href="#39c9c__e" color="violet" transform="matrix(3.75 0 0 3.75 67.83 156.92)"/><use xlink:href="#39c9c__e" color="violet" transform="matrix(3.75 0 0 3.75 56.25 22.51)"/></g><text stroke-linecap="round" stroke-linejoin="round" color="#000" font-family="KaTeX_Main" font-size="8" transform="translate(241.1 10.11)"><tspan>LBSTRelaxed</tspan></text><g fill="none" stroke="currentColor" stroke-linecap="round" stroke-linejoin="round" color="#000"><path stroke="#FFAB00" stroke-dasharray="4.0,2.0,1.0,2.0" d="M205.6 7.51h29.9M28 157.16l.36-.3.36.67.37-4.42.36 4.53.36-.75.36.86.36-.71.37-.67.36 1.21.36-.75.36.76.37-2.18.36 2.12.36-.73.36.69.36-.62.37-.32.36.92.36-.73.36.24.36-9.78.37 9.74.36.22.36-.09.36-.29.36.22.37.25.36-.28.36-1.57.36 2.21.36-.64.37.28.36-.29.36-.16.36.09.37-.19.36.69.36-4.55.36 4.62.36-.36.37.11.36-.33.36-.69.36 1.25.36-.78.37.72.36-2.13.36 2.14.36-.77.36.92.37-.71.36-.65.36 1.14.36-.65.37.12.36-9.9.36 10.04.36.17.36-.24.37-.22.36.17.36.69.36-.89.36.2.37-1.14.36 1.18.36.31.36-.35.36-.1.37.06.36.15.36.13.36-.32.37-3.39.36 3.5.36-.28.36.77.36-1.23.37 1.2.36-.77.36.87.36-2.06.36 1.71.37-.37.36.36.36-.28.36-.71.36 1.19.37-.77.36.31.36-23.23.36 23.12.36.12.37-.01.36-.48.36.46.36.23.37-.1.36-.17.36-1.24.36 1.22.36.29.37-.29.36-.16.36.18.36-.29.36.92.37-4.86.36 4.76.36-.5.36-.28.36.78.37-1.23.36 1.16.36-.73.36.73.37-2.16.36 2.29.36-.68.36-.21.36.76.37-1.2.36 1.15.36-.74.36.27.36-10.11.37 10.11.36.27.36-.13.36.3.36-1.14.37 1.18.36-.75.36.26.36-1.2.36 1.17.37.26.36-.11.36.29.36-1.07.37.54.36.38.36-.41.36-3.57.36 3.66.37-.22.36.7.36-1.22.36 1.4.36-.69.37.24.36-.25.36-1.21.36 1.26.36-.26.37.68.36-.94.36.37.36.54.37-.74.36-22.47.36 22.63.36.33.36-.18.37.48.36-1.26.36.77.36.24.36-.27.37-1.23.36 1.22.36.28.36-.13.36.35.37-1.12.36.61.36.32.36-.36.36-3.6.37 3.66.36-.21.36.68.36-.67.37.33.36-.12.36.21.36-.19.36-1.16.37 1.08.36-.17.36.68.36-.43.36-.75.37 1.15.36-.7.36.66.36-10.94.36 10.99.37-.66.36.65.36-1.29.36.81.37.19.36-.05.36.31.36-2.11.36 2.12.37-.64.36.61.36-1.15.36.67.36.64.37-.9.36-2.69.36 2.16.36.73.36.17.37-.07.36-.31.36.26.36.24.37-.12.36.34.36-2.12.36 1.65.36.28.37-.29.36-.73.36 1.18.36-.53.36-47.87.37 47.68.36.28.36-.07.36-.76.36.78.37.16.36.05.36-.22.36-2.12.36 2.28.37.14.36-.22.36-.23.36.34.37-.16.36.22.36-.18.36-4.28.36 4.73.37-.73.36.75.36-1.22.36 1.38.36-.68.37.27.36-.32.36-1.57.36 2.19.36-.78.37.68.36-1.23.36.93.36.29.37-.74.36-9.79.36 9.93.36.64.36-.77.37.85.36-1.33.36.69.36.25.36-.08.37-.37.36-.69.36 1.46.36-.8.36.84.37-1.31.36.73.36.23.36-.1.36-4.39.37 4.68.36-.3.36-.01.36-.07.37-.29.36.22.36.24.36-.15.36-.28.37-.8.36.95.36.24.36-.22.36-.75.37 1.19.36-.59.36-1.72.36-19.83.36 22.11.37-.69.36.22.36-.31.36.27.37.7.36-.97.36.76.36-2.37.36 2.45.37-.76.36.73.36-1.28.36.76.36.64.37-.91.36.2.36-3.78.36 3.81.36.23.37-.2.36-.24.36.24.36.68.36-.92.37.2.36-1.21.36 1.34.36.11.37-.22.36-.75.36 1.36.36-.71.36.23.37-11.11.36 11.54.36-.56.36-.24.36.78.37-1.4.36 1.36.36-.82.36.73.36-2.19.37 2.41.36-.61.36-.29.36.75.37-1.3.36 1.27.36-.77.36.38.36-3.92.37 3.71.36.8.36-.97.36.82.36-1.32.37 1.3.36-.8.36.37.36-1.3.36 1.11.37.55.36-.76.36.31.36-.31.37.23.36-47.97.36 47.55.36.74.36-.71.37.42.36-.4.36.38.36.47.36-.55.37.58.36-2.36.36 2.37.36-.66.36.23.37-.33.36.41.36-.08.36.19.36-.23.37-3.8.36 3.8.36.31.36-.29.37-.25.36.23.36.21.36.03.36-.25.37-1.2.36 1.33.36.11.36-.23.36-.79.37 1.46.36-.71.36.24.36-10.76.36 10.97.37-.39.36-.26.36.81.36-1.34.37 1.26.36-.76.36.91.36-1.97.36 1.37.37-.01.36-.28.36.77.36-1.31.36.77.37.47.36-.64.36-3.6.36 3.84.36.4.37-.77.36.82.36-1.33.36.79.36.18.37-.08.36.33.36-2.16.36 2.18.37-.71.36.2.36-.23.36.2.36.64.37-.95.36-23.17.36 23.98.36-.76.36.81.37-1.24.36 1.36.36-.61.36.22.36-.21.37-1.37.36 1.48.36-.34.36.71.37-1.26.36.95.36.27.36-.78.36.86.37-4.82.36 4.8.36-.77.36.79.36-1.33.37.97.36.28.36-.79.36.87.36-2.27.37 2.24.36-.77.36.26.36.54.37-1.32.36 1.16.36-.66.36-10.42.36 11.03.37-.29.36.09.36-.19.36-.49.36.52.37.27.36-.19.36-.09.36-1.28.36 1.28.37.22.36-.22.36-.78.36 1.42.36-.68.37.23.36-.21.36-3.72.36 3.69.37.34.36-.29.36-.79.36 1.34.36-.58.37.21.36-.23.36-1.31.36 1.39.36-.38.37.79.36-.88.36-96.86.36 96.6h.36l.37.9.36-1.38.36 1.51.36-.37.37.21.36-.28.36-2.23.36 2.32.36-.25.37.71.36-.46.36-.53.36 1.02.36-.67.37.66.36-6.51.36 6.6.36-.63.36.61.37-.52.36-.72.36 1.25.36-.82.36.74.37-2.23.36 2.47.36-.68.36.22.37-.25.36-.79.36 1.28.36-.81.36.94.37-11.72.36 11.11.36.19.36-.06.36.37.37-1.38.36 1.36.36-.72.36.7.36-2.29.37 1.85.36.67.36-.94.36.17.37-.19.36.21.36.24.36-.25.36-3.74.37 3.78.36.65.36-.87.36.25.36-.34.37.36.36.15.36-.3.36-1.15.36 1.42.37.32.36-.81.36.32.36-.35.36.3.37.18.36-23.18.36 22.4.36.96.37-.56.36.65.36-1.28.36 1.3.36-.42.37.26.36-.9.36-.6.36 1.63.36-.79.37.33.36-.26.36.23.36.71.36-.93.37-1.8.36.42.36 2.19.36-.73.37.23.36-.33.36.25.36.68.36-.91.37.69.36-2.12.36 2.25.36-.83.36.26.37-.25.36.37.36-.14.36.15.36-10.69.37 11 .36-.71.36.73.36-.51.37-.52.36.56.36-.23.36.84.36-.66.37-1.2.36 1.26.36-.2.36.65.36-1.25.37 1.29.36-.44.36.11.36-.6.36-2.91.37 3.32.36-.17.36.59.36-1.2.36 1.22.37-.41.36.12.36-.23.36-1.23.37 1.35.36-.37.36.77.36-.97.36.3.37-4.15.36-40.9.36 45.46.36-.72.36.86.37-1.15.36 1.23.36-.52.36-.22.36.79.37-2.24.36 2.25.36-.76.36.43.37.31.36-1.23.36 1.22.36-.72.36.75.37-4.86.36 4.51.36.16.36-.25.36.37.37-.91.36.95.36-.69.36.67.36-2.17.37 2.24.36-.79.36.45.36.32.36-1.32.37.86.36.07.36-.16.36-10.07.37 10.1.36.16.36-.18.36-.57.36.75.37-.1.36.12.36-.16.36-1.33.36 1.34.37-.26.36.91.36-.68.36-.27.36.24.37.27.36-.26.36-4.1.36 4.59.37-.7.36.86.36-.62.36-.31.36.29.37.25.36-.27.36-1.72.36 2.19.36-.33.37.08.36-.34.36-.57.36 1.08.36-.75.37-23.31.36 23.6.36.41.36-.76.36.87.37-1.33.36.86.36.17.36-.1.37-1.54.36 1.36.36.26.36.08.36-.17.37-.35.36.26.36.22.36-.07.36-4.44.37 4.94.36-.56.36.14.36-.14.36-.34.37.27.36.22.36-.08.36-.15.37-1.26.36 1.29.36-.24.36.65.36-1.25.37 1.43.36-.66.36.21.36-10.94.36 11.17.37-.91.36.66.36.26.36-1.49.36 1.53.37-.72.36.81.36-2.55.36 2.17.37.31.36-.73.36.69.36-1.24.36 1.2.37-.26.36-.43.36-3.5.36 3.83.36.43.37-.71.36.73.36-1.29.36 1.23.36-.34.37-.4.36.7.36-2.18.36 1.81.36.11.37-.18.36-99.02.36 98.23.36.84.37-.63.36.91.36-1.36.36.88.36.73.37-.86.36.72.36-2.29.36 2.45.36-.84.37.25.36.14.36-.34.36.69.36-.69.37.26.36-3.88.36 3.95.36.12.37-.2.36.49.36-1.12.36 1.07.36-.68.37.73.36-2.22.36 1.78.36.42.36-.57.37.07.36-.29.36.33.36.16.36-.18.37-10.25.36 10.19.36.17.36-.13.36-.9.37 1.55.36-.69.36.27.36-.24.37-1.36.36 1.38.36-.32.36.97.36-.71.37-.25.36.29.36-.31.36.77.36-4.65.37 4.68.36-.78.36.93.36-.67.36-.26.37.33.36-.34.36.72.36-2.21.37 2.44.36-.73.36-.26.36.84.36-1.35.37 1.28.36-.76.36-23.04.36 22.62.36 1.02.37-.64.36.25.36-.27.36.32.36.41.37-.43.36-1.44.36 1.57.36-.05.36.21.37-.26.36-.28.36.25.36.21.37.04.36-4.21.36 4.09.36-.08.36.31.37-.31.36-.31.36.26.36.21.36.03.37-.16.36-1.77.36 2.26.36-.82.36.71.37-.58.36.1.36-.03.36.27.37-11.06.36 10.71.36.73.36-1 .36.91.37-1.34.36 1.3.36-.36.36.15.36-.32.37-1.74.36 2.34.36-.87.36.81.36-1.28.37.92.36.32.36-.72.36.78.37-4.83.36 4.87.36-.83.36.75.36-1.23.37.86.36.35.36-.71.36.22.36-1.31.37 1.35.36.23.36-.12.36.3.36-1.29.37 1.32.36-50.88.36 50 .36.36.36-.01.37.4.36-1.33.36 1.48.36-.81.37.81.36-2.27.36 1.73.36.69.36-.87.37.72.36-1.27.36.81"/><use xlink:href="#39c9c__f" color="#FFAB00" transform="matrix(3.75 0 0 3.75 125.4 156.09)"/><use xlink:href="#39c9c__f" color="#FFAB00" transform="matrix(3.75 0 0 3.75 220.55 7.51)"/></g><text stroke-linecap="round" stroke-linejoin="round" color="#000" font-family="KaTeX_Main" font-size="8" transform="translate(241.1 25.11)"><tspan>WBSTRelaxed</tspan></text><g fill="none" stroke="currentColor" stroke-linecap="round" stroke-linejoin="round" color="#000"><path stroke="violet" stroke-dasharray="4.5,2.0,0.5,2.0,0.5,2.0" d="M205.6 22.51h29.9M28 156.73l.36.01.36-.87.37.93.36.38.36-.7.36.64.36-.3.37-3.14.36 2.63.36.4.36.59.37-2.34.36 1.48.36.36.36.17.36-.93.37.71.36.56.36-1.79.36.99.36.68.37-.76.36-.28.36.26.36.82.36-.56.37.18.36-.6.36-.5.36 1.22.36-.61.37.71.36-.43.36.44.36-.66.37.14.36-1.53.36-.86.36 2.91.36-.46.37.3.36-.64.36-1.38.36 1.27.36.28.37.33.36-.31.36.58.36-.59.36.49.37-.66.36-.38.36-.41.36.88.37-1.48.36 2.02.36-.44.36.22.36-.63.37.56.36-.39.36.54.36-.3.36.11.37-1.55.36-.4.36-1.62.36 1.32.36 2.57.37-.34.36-.03.36-.09.36-2.12.37.49.36-.76.36 2.14.36.75.36-.46.37.43.36-.95.36.62.36-1.47.36 1.5.37-.27.36.56.36-.45.36.02.36-2.09.37 1.59.36-.14.36 1.13.36-.9.36.89.37-.61.36-.42.36-.32.36-.62.37.56.36.94.36.31.36-.37.36.44.37-.85.36.9.36-1.67.36.26.36.9.37-2.56.36 2.98.36-.87.36.18.36.06.37-.19.36.78.36-.71.36.62.37-.42.36.39.36-.4.36-.15.36.29.37-.76.36.21.36-1.87.36.4.36-1.45.37 3.46.36-1.65.36 1.32.36.73.36-.64.37.2.36-.01.36-.34.36-.18.36-1.5.37.21.36 1.65.36-1.95.36 1.69.37.46.36-.82.36.35.36.71.36-.41.37.03.36.29.36-.43.36.32.36-.58.37.78.36-.77.36.61.36-1.2.36.14.37.95.36-1.65.36-1.28.36 2.83.37-.39.36-2.66.36 2.75.36.68.36-.7.37.5.36-.32.36-.07.36-.18.36-.96.37 1.45.36-.17.36-1.01.36 1.01.36.1.37-.39.36-.64.36 1.5.36-.65.36.67.37-.99.36.37.36-3.76.36-.02.37 3.47.36-7.73.36 7.89.36-3.95.36 3.29.37.54.36.17.36.72.36-1.03.36-.21.37.75.36-.38.36.62.36-.92.36-3.9.37.09.36 4.45.36-.91.36-4.13.37 5.21.36-.32.36.41.36-.6.36.85.37-.97.36.97.36-1.08.36.71.36-.99.37-.18.36.53.36-1.77.36.85.36.79.37.57.36.16.36-.69.36.82.37-.33.36.38.36-.71.36.18.36.61.37-5.7.36 5.45.36-.39.36-.93.36.83.37-.74.36.88.36.05.36-.63.36.7.37-.03.36.33.36-.76.36.93.36-2.49.37 1.68.36-1.79.36 2.54.36-4.85.37 3.7.36-.63.36.98.36.07.36.72.37-.96.36 1.04.36-.86.36.85.36-.72.37.57.36-1.08.36.51.36.42.36-.12.37-2.59.36 2.59.36-2.97.36 2.75.37-.17.36.32.36-2.27.36-.93.36 2.72.37.83.36-.48.36-1.07.36.74.36.26.37.5.36-2.12.36 2.33.36-1.75.36 1.26.37-.74.36-.03.36 1.25.36-.74.36-.3.37 1.04.36-.75.36-.58.36.69.37.27.36-.16.36.06.36-.62.36.34.37-1.06.36.93.36-.27.36.5.36-1.89.37 1.69.36-4.82.36 1.23.36 3.66.36.55.37-.62.36-8.07.36 8.76.36-5.02.37 5.01.36-1.17.36.92.36-1.11.36 1.13.37-.77.36.44.36.28.36-.84.36-.03.37.59.36-.12.36-.1.36-.33.36 1.24.37-2.95.36-1.62.36 3.82.36-3.99.36 3.98.37-.04.36.48.36-5.77.36 5.74.37-1.34.36 1.62.36-1.79.36.35.36.61.37.14.36-.73.36.62.36-.42.36 1.15.37-.7.36.4.36-.69.36.87.36-.83.37-.71.36.82.36.34.36-.06.37-.38.36.07.36.4.36-.36.36.27.37-1.25.36 1.97.36-.9.36-.38.36-1.56.37 2.5.36-3.2.36 1.85.36 1.27.36-.18.37-3.4.36 2.93.36-4.11.36 2.35.37 2 .36.63.36-1 .36.69.36-8.45.37 7.93.36-.02.36.17.36.3.36-.13.37-.16.36-1.16.36 1.47.36-.35.36.01.37.09.36-.45.36.55.36-1.82.36 1.58.37.31.36-3.24.36 3.52.36-1.27.37 1.04.36-.23.36-2.14.36.91.36 1.09.37.68.36-2.16.36 1.85.36-.09.36.31.37-1.85.36.8.36 1 .36-.65.36-.02.37-.08.36.4.36.39.36-.48.37-.85.36.98.36.15.36-8.47.36 7.97.37-7.65.36 7.69.36.62.36-1.62.36.94.37-16.13.36 15.09.36 1.48.36-9.66.36 9.9.37-.47.36-.4.36-.35.36.5.36.4.37-.4.36.7.36-.52.36.42.37-.65.36.26.36.17.36-3 .36 3.09.37-2.15.36 1.57.36.92.36-.61h.36l.37-.71.36-7.85.36 7.46.36 1.46.36-.68.37-7.97.36 7.78.36-1.06.36 1.01.37.14.36-9.87.36 9.74.36.38.36.23.37.17.36-.99.36.78.36-.2.36.4.37-.52.36.85.36-1.18.36 1.02.36-.18.37.34.36-1.54.36 1.29.36-.01.37-.43.36-.74.36-1.05.36 2.11.36-2.04.37 1.85.36-.49.36-3.77.36 4.17.36-4.46.37 3.23.36 1.24.36.23.36-1.55.36 1.21.37-.06.36.11.36-.64.36.92h.36l.37.07.36-.31.36.71.36-1.06.37 1.15.36-1.99.36 1.21.36.1.36.1.37.05.36-.47.36.8.36-10.15.36 9.16.37.28.36-.97.36 1.42.36-.29.36-1.96.37 1.44.36-.38.36-.01.36-1.2.37 2.63.36-1.44.36 1.47.36-.85.36.5.37-2.46.36 2.3.36.54.36-1.06.36.67.37-.37.36.39.36-.27.36-.22.36.49.37-.39.36-.21.36.9.36-4.96.36 4.53.37-.05.36-3.72.36 2.91.36 1.18.37-2.25.36.91.36-7.43.36 7.81.36.14.37.31.36-3.95.36 3.76.36-.63.36.66.37-.05.36.86.36-.78.36.23.36-1.15.37.97.36.86.36-.7.36-.32.37.19.36.34.36-.19.36-.81.36 1.09.37-.09.36-1 .36.74.36-.12.36-.05.37.35.36-.58.36.15.36.45.36-1.05.37-3.97.36 4.89.36-.16.36-1.8.36-3.37.37 5.29.36.52.36-.85.36.46.37-.19.36.24.36-5.26.36 5.39.36-7.99.37 8.06.36-.55.36-.47.36.82.36-.31.37.36.36-.71.36-1.89.36 2.32.36.23.37-2.09.36 1.97.36.2.36-.65.37-.36.36 1.12.36-4.53.36 4.48.36-.28.37-.65.36.66.36-1.73.36 1.76.36-.49.37.01.36.38.36-1.68.36 2.18.36-.6.37.61.36-.77.36-.21.36.23.37.14.36.05.36-.05.36-.19.36.05.37-.24.36.55.36.24.36-.93.36-.53.37 1.72.36-.41.36-.51.36.41.36.42.37-2.99.36 2.66.36.07.36-.21.36-1.73.37.86.36 1.26.36-2.54.36.36.37 1.45.36.06.36.26.36-5.34.36 4.47.37 1.31.36-2.71.36-6.16.36 7.88.36.83.37-8.69.36 8.94.36-1.52.36.97.36.38.37-.25.36-8.62.36-.54.36 9.21.37-.07.36-.66.36-7.97.36 8.18.36.81.37-.99.36.09.36 1.12.36-.97.36-.5.37.56.36.77.36-.98.36 1.02.36-1.95.37 1.51.36.01.36-1.16.36 1.41.36-1.33.37 1.03.36-.85.36-1.43.36 2.29.37-.07.36.3.36-.85.36 1.01.36-.82.37-1.43.36 1.91.36-.73.36.18.36-.01.37-3.41.36 3.45.36-9.09.36 9.35.36-.15.37.37.36-.69.36-8.51.36 9.12.37-1.09.36 1 .36-.03.36.4.36-.43.37.26.36-12.16.36 11.37.36.75.36-1.99.37.89.36 1.21.36-.81.36 1.05.36-2.8.37 2.32.36-2.12.36.75.36.59.36.68.37-.15.36.36.36-1.93.36 1.74.37.13.36-.42.36-.36.36.63.36-.08.37.71.36-1.31.36 1.29.36-1.53.36.34.37-.02.36.47.36.81.36-1.61.36.99.37.04.36-1.12.36-.3.36 1.19.37.29.36.09.36-.43.36.37.36-1.64.37.77.36-.71.36 1.6.36-1.93.36 2.22.37-.73.36-1.08.36 1.77.36-.99.36.62.37-.8.36-.91.36 1.52.36.47.37-.57.36.13.36-1.66.36 1.26.36-3.93.37 4.42.36-.04.36-.85.36-3.59.36 4.22.37-.05.36-1.55.36 1.37.36.77.36-.32.37-4.03.36-.05.36 3.85.36.1.36-9.41.37 8.82.36-3.35.36 3.92.36.48.37-1.6.36 1.55.36-.2.36-.47.36.23.37.02.36-.25.36-14.63.36 14.81.36-.31.37.8.36-1.7.36.27.36 1.09.36.1.37-1.17.36 1.56.36-.67.36.2.37-.03.36.76.36-2 .36 1.61.36-1.11.37.32.36.18.36.19.36.33.36-.2.37-.83.36.9.36-1.15.36 1.13.36-.96.37 1.16.36-.09.36-.67.36-4.16.36 4.12.37.64.36-.59.36 1.01.36-3 .37-1.68.36 4.2.36.11.36-2.54.36 2.24.37.35.36-.33.36-.5.36.76.36-5.09.37 5.3.36-2.93.36.96.36 1.49.36.58.37-1.17.36.82.36-1.92.36 1.72.37.13.36-1.96.36 1.56.36.56.36-.47.37.69.36-.43.36-2.64.36 1.73.36.75.37.07.36.12.36-.5.36.47h.36l.37-1.26.36.19.36.85.36.51.36-.39.37.01.36.67.36-.93.36.14.37-1.41.36.54.36.85.36.17.36.12.37-.06.36-.29.36-17.33.36 17.07.36.34.37.17.36.4.36-17.29.36 16.04.36 1.12.37-.46.36.49.36-3.31.36 2.82.37.35.36-17.74.36.37.36 16.88.36-1.96.37 1.87.36.49.36-.43.36-16.29.36 16.27.37.46.36.05.36.01.36-3.53.36 1.02.37 1.47.36.43.36-.04.36.52.37-.44.36.66.36-.55.36.12.36.22.37-.72.36 1.08.36-1.47.36.82.36-.2.37.02.36.68.36-.53.36-.4.36.75.37.37.36-5.59.36 4.61.36 1.01.36-.46.37-.5.36.17.36-.07.36-.8.37 1.57.36-.72.36.45.36.02.36-.05.37-.93.36-.18.36-1.2"/><use xlink:href="#39c9c__g" color="violet" transform="matrix(3.75 0 0 3.75 182.98 155.7)"/><use xlink:href="#39c9c__g" color="violet" transform="matrix(3.75 0 0 3.75 220.55 22.51)"/></g><path fill="none" d="M28 45.01V162.5M371.99 45.01H28" color="#000"/></svg>