<svg xmlns="http://www.w3.org/2000/svg" xmlns:xlink="http://www.w3.org/1999/xlink" viewBox="0 0 400 200"><path fill="none" d="M0 0h400v200H0z"/><defs><use xlink:href="#f2527__a" id="f2527__e" fill="currentColor" stroke="none"/><use xlink:href="#f2527__b" id="f2527__g" stroke="currentColor" transform="rotate(180)"/><use xlink:href="#f2527__c" id="f2527__d" stroke="currentColor" transform="rotate(45)"/><use xlink:href="#f2527__d" id="f2527__f" fill="currentColor" stroke="none"/><path id="f2527__c" stroke="currentColor" stroke-width=".267" d="M-1-1h2v2h-2z"/><path id="f2527__b" stroke="currentColor" stroke-width=".267" d="m0-1.33-1.33 2h2.66z"/><circle id="f2527__a" cx="0" cy="0" r="1" stroke="currentColor" stroke-width=".267"/></defs><path fill="none" stroke="#CCC" stroke-linecap="round" stroke-linejoin="round" stroke-width=".1" d="M46.1 162.5V45.01" class="f2527__gridline" color="#000"/><g fill="none" stroke-linecap="round" stroke-linejoin="round" stroke-width="0" color="#000"><path d="M46.1 162.5V155m0-109.99v7.5"/><text fill="#000" font-family="KaTeX_Main" font-size="8" text-anchor="middle" transform="translate(46.1 172.6)"><tspan> 1</tspan></text></g><path fill="none" stroke="#CCC" stroke-linecap="round" stroke-linejoin="round" stroke-width=".1" d="M82.31 162.5V45.01" class="f2527__gridline" color="#000"/><g fill="none" stroke-linecap="round" stroke-linejoin="round" stroke-width="0" color="#000"><path d="M82.31 162.5V155m0-109.99v7.5"/><text fill="#000" font-family="KaTeX_Main" font-size="8" text-anchor="middle" transform="translate(82.31 172.6)"><tspan> 2</tspan></text></g><path fill="none" stroke="#CCC" stroke-linecap="round" stroke-linejoin="round" stroke-width=".1" d="M118.52 162.5V45.01" class="f2527__gridline" color="#000"/><g fill="none" stroke-linecap="round" stroke-linejoin="round" stroke-width="0" color="#000"><path d="M118.52 162.5V155m0-109.99v7.5"/><text fill="#000" font-family="KaTeX_Main" font-size="8" text-anchor="middle" transform="translate(118.52 172.6)"><tspan> 3</tspan></text></g><path fill="none" stroke="#CCC" stroke-linecap="round" stroke-linejoin="round" stroke-width=".1" d="M154.73 162.5V45.01" class="f2527__gridline" color="#000"/><g fill="none" stroke-linecap="round" stroke-linejoin="round" stroke-width="0" color="#000"><path d="M154.73 162.5V155m0-109.99v7.5"/><text fill="#000" font-family="KaTeX_Main" font-size="8" text-anchor="middle" transform="translate(154.73 172.6)"><tspan> 4</tspan></text></g><path fill="none" stroke="#CCC" stroke-linecap="round" stroke-linejoin="round" stroke-width=".1" d="M190.94 162.5V45.01" class="f2527__gridline" color="#000"/><g fill="none" stroke-linecap="round" stroke-linejoin="round" stroke-width="0" color="#000"><path d="M190.94 162.5V155m0-109.99v7.5"/><text fill="#000" font-family="KaTeX_Main" font-size="8" text-anchor="middle" transform="translate(190.94 172.6)"><tspan> 5</tspan></text></g><path fill="none" stroke="#CCC" stroke-linecap="round" stroke-linejoin="round" stroke-width=".1" d="M227.15 162.5V45.01" class="f2527__gridline" color="#000"/><g fill="none" stroke-linecap="round" stroke-linejoin="round" stroke-width="0" color="#000"><path d="M227.15 162.5V155m0-109.99v7.5"/><text fill="#000" font-family="KaTeX_Main" font-size="8" text-anchor="middle" transform="translate(227.15 172.6)"><tspan> 6</tspan></text></g><path fill="none" stroke="#CCC" stroke-linecap="round" stroke-linejoin="round" stroke-width=".1" d="M263.36 162.5V45.01" class="f2527__gridline" color="#000"/><g fill="none" stroke-linecap="round" stroke-linejoin="round" stroke-width="0" color="#000"><path d="M263.36 162.5V155m0-109.99v7.5"/><text fill="#000" font-family="KaTeX_Main" font-size="8" text-anchor="middle" transform="translate(263.36 172.6)"><tspan> 7</tspan></text></g><path fill="none" stroke="#CCC" stroke-linecap="round" stroke-linejoin="round" stroke-width=".1" d="M299.57 162.5V45.01" class="f2527__gridline" color="#000"/><g fill="none" stroke-linecap="round" stroke-linejoin="round" stroke-width="0" color="#000"><path d="M299.57 162.5V155m0-109.99v7.5"/><text fill="#000" font-family="KaTeX_Main" font-size="8" text-anchor="middle" transform="translate(299.57 172.6)"><tspan> 8</tspan></text></g><path fill="none" stroke="#CCC" stroke-linecap="round" stroke-linejoin="round" stroke-width=".1" d="M335.78 162.5V45.01" class="f2527__gridline" color="#000"/><g fill="none" stroke-linecap="round" stroke-linejoin="round" stroke-width="0" color="#000"><path d="M335.78 162.5V155m0-109.99v7.5"/><text fill="#000" font-family="KaTeX_Main" font-size="8" text-anchor="middle" transform="translate(335.78 172.6)"><tspan> 9</tspan></text></g><path fill="none" stroke="#CCC" stroke-linecap="round" stroke-linejoin="round" stroke-width=".1" d="M371.99 162.5V45.01" class="f2527__gridline" color="#000"/><g fill="none" stroke-linecap="round" stroke-linejoin="round" stroke-width="0" color="#000"><path d="M371.99 162.5V155m0-109.99v7.5"/><text fill="#000" font-family="KaTeX_Main" font-size="8" text-anchor="middle" transform="translate(371.99 172.6)"><tspan> 10</tspan></text></g><g fill="none" stroke-linecap="round" stroke-linejoin="round" stroke-width="0" color="#000"><path d="M371.99 162.5h-7.5"/><text fill="#000" font-family="KaTeX_Main" font-size="8" transform="translate(378.99 165.1)"><tspan>-1</tspan></text></g><g fill="none" stroke-linecap="round" stroke-linejoin="round" stroke-width="0" color="#000"><path d="M371.99 45.01h-7.5"/><text fill="#000" font-family="KaTeX_Main" font-size="8" transform="translate(378.99 47.61)"><tspan>0</tspan></text></g><path fill="none" d="M28 45.01V162.5M371.99 45.01H28" color="#000"/><text stroke-linecap="round" stroke-linejoin="round" stroke-width="0" color="#000" font-family="KaTeX_Main" font-size="10" text-anchor="middle" transform="rotate(-90 57.63 46.13)"><tspan>log</tspan><tspan dy="3" font-size="8">2</tspan><tspan dy="-3">(</tspan><tspan font-weight="bold">Average Path Length </tspan><tspan> / log</tspan><tspan dy="3" font-size="8">2</tspan><tspan dy="-3">(Size))</tspan></text><text stroke-linecap="round" stroke-linejoin="round" stroke-width="0" color="#000" font-family="KaTeX_Main" font-size="10" text-anchor="middle" transform="translate(199.99 195.75)"><tspan>Operations / 10</tspan><tspan dy="-5" font-size="8">6</tspan></text><text stroke-linecap="round" stroke-linejoin="round" color="#000" font-family="KaTeX_Main" font-size="8" transform="translate(76.8 10.11)"><tspan>AVLRelaxedBottomUp</tspan></text><g fill="none" stroke="currentColor" stroke-linecap="round" stroke-linejoin="round" color="#000"><path stroke="#D336C8" d="M41.3 7.51h29.9M28 59.95l.36-.17.36.03.37-.2.36.48.36-.22.36-.2.36-.06.37-.02.36-.06.36-.1.36-.22.37.53.36-.16.36-.16.36-.1.36-.12.37-.09.36.02.36.05.36-.13.36-.19.37-.29.36-.15.36.41.36-.11.36-.14.37-.17.36-.15.36-.19.36-.03.36-.2.37.39.36-.18.36-.09.36-.16.37-.09.36-.09.36-.11.36-.12.36.03.37-.11.36 1.99.36-.05.36.11.36-.01.37-.09.36-.07.36-.07.36-.12.36-.06.37-.02.36-.06.36-.11.36-.08.37-.07.36-.07.36.5.36-.11.36-.06.37-.09.36-.07.36.35.36-.1.36-.06.37-.05.36-.04.36-.09.36-.06.36-.1.37.12.36-.05.36-.09.36-.07.37.15.36-.09.36-.07.36-.02.36-.1.37-.04.36.01.36-.09.36-.11.36-.07.37-.08.36-.07.36-.07.36-.01.36-.13.37.03.36-.14.36-.02.36-.03.36-.09.37-.07.36-.11.36-.06.36.05.37-.08.36-.07.36-.08.36-.09.36-.03.37-.06.36.85.36-.04.36-.03.36-.05.37-.07.36-.12.36-.04.36-.04.36-.01.37-.01.36-.04.36-.07.36-.06.37-.07.36-.11.36-.09.36.02.36.07.37-.01.36-.08h.36l.36.11.36-.04.37-.08.36-.01.36.03.36-.06.36-.03.37.12.36-.06.36-.04.36-.03.36-.04.37.01.36 1.75.36-.01.36-.01.37-.04.36-.08.36-.02.36-.02.36-.07h.37l.36.1.36-.05.36-.08.36.01.37-.08.36.09.36-.05.36-.05.36.14.37-.03.36-.03.36-.04.36.2h.73l.36.01.36-.03.36-.05.37.01.36-.06.36-.03.36.02.36-.06.37-.04.36-.3.36-.05.36.03.36-.05.37-.03.36.02.36-.03h.36l.36-.04.37-.02.36-.01.36-.04.36-.03.37-.02.36.28.36-.02.36-.05.36.01.37.02.36-.04h.36l.36-.04.36-.01.37-.02.36-.03.36.41.36.01.36-.01.37-.03.36-.02.36-.02.36-.02.37-.01.36-.01.36-.02.36-.01.36-.02.37-.04.36-.01.36.1.36-.03.36.01.37-.03.36-.03.36-.01h.36l.36-.04.37-.04.36-.06.36-.04.36-.05h.37l.36-.04.36-.06.36.07.36-.06.37-.04.36-.03.36-.01.36-.04.36-.05.37-.04.36.06.36-.03.36-.04.36-.05.37-.02.36-.06.36-.04.36-.03.36-.03.37-.05.36.01.36-.04.36-.04.37-.03.36-.04.36-.04.36-.05.36.49.37-.06.36-.04.36-.03.36-.06.36-.04.37-.03.36-.03.36-.03.36-.01.36-.04.37.02.36.12.36.01.36-.04.37-.04.36-.01h.36l.36-.04.36-.03.37-.02.36.83.36-.04.36-.03h.36l.37-.04.36-.03.36-.03.36-.03.36-.03h.73l.36.17.36-.05.36-.04.37-.01.36-.02.36.13.36-.02.37-.04.36-.02.36-.04.36-.01.36-.03.37-.02.36-.04.36-.03.36.2.36-.03.37-.03.36-.04.36-.02.36-.03.36-.08.37-.03.36-.02.36-.04.36-.01.37.02.36-.02.36-.02.36-.03.36.19.37-.03.36-.02.36-.01.36-.03.36-.01.37-.03.36-.03.36-.01h.72l.37-.03.36-.02.36-.03.36-.07.36-.03.37-.02.36-.02.36-.01.36-.02.37-.01.36-.03.36-.02h.36l.36-.03.37-.03.36.02.36-.01.36.25.36-.01h.37l.36-.02.36-.02.36-.02.36-.03.37-.02.36-.02.36-.03.36-.01.37-.03.36.02.36-.03h.36l.36-.03.37-.02.36.63h.36l.36-.02.36-.01h.37l.36-.03.36-.01.36.11.36-.03.37-.02.36.03.36-.02.36-.02.37.04.36-.04.36-.01.36-.03.36.03.37-.02.36-.03.36-.01.36.12.36-.03.37-.03.36.01.36-.01.36-.03.36.01.37-.03.36-.01.36.02.36-.02.36-.01.37-.03.36-.02.36.01.36-.02.37-.01.36-.02.36-.01h.36l.36-.01.37-.01.36-.02.36-.01.36-.02h.36l.37.03.36-.01.36-.01.36-.01.36-.02h.37l.36-.02.36.14.36-.02.37-.01.36-.01.36-.02.36-.02.36-.02h.37l.36-.01.36.03.36-.02.36-.02h.37l.36-.03.36-.03.36-.01.36-.03.37-.03.36-.02.36-.02.36-.03.36-.04.37.06.36-.09.36-.03.36-.02.37-.02.36-.05.36.15.36-.03.36-.02.37-.01.36-.03.36-.05.36-.02.36-.02.37-.03h.36l.36-.03.36-.02.36-.03.37-.01.36-.03.36-.02.36-.03.37-.03.36-.02.36.13.36-.03.36.05.37-.03.36-.02.36-.03.36-.02.36-.04.37.01.36-.04.36-.02.36-.02.36-.03.37-.03.36-.02.36.13.36-.01.37-.01.36-.03.36-.02.36-.03.36-.02.37-.03.36-.03.36-.01.36-.02.36-.05.37-.03.36.01.36-.01.36-.02.36-.02.37-.01.36-.02.36-.03h.36l.36-.03.37-.02.36-.02.36-.03.36.03.37-.02.36-.02.36-.02.36-.02.36-.02.37-.02h.36l.36.03.36.01.36-.01.37.28.36-.02.36-.02.36-.01.36-.01.37-.02.36-.03.36.91.36-.02h.37l.36-.02.36-.03.36-.01.36-.02.37-.02.36-.02.36-.03.36.01.36-.02.37-.01.36.08.36-.01.36-.02.36-.02h.37l.36-.02.36-.02.36-.02.36-.01.37-.02h.36l.36-.03.36-.02.37-.03.36-.02h.36l.36.08.36-.01.37-.02.36-.01.36-.02.36-.02.36-.01.37-.01h.36l.36-.02.36-.02h.36l.37-.01.36-.02.36-.01.36-.04.37-.01.36-.03.36.01h.36l.36-.02.37.24.36-.01.36-.01.36-.02h.36l.37-.02.36-.01.36-.01.36-.02.36.02.37-.02.36-.01.36-.07h.36l.36-.01.37-.03.36-.01.36-.02.36.04.37-.01.36-.02.36.17h.36l.36-.01.37-.01.36-.02h.36l.36-.02.36-.01.37-.01.36-.02.36.07.36-.02.36-.01.37-.02.36-.01.36-.01.36-.02.37-.01.36-.01h.36l.36-.01.36-.01.37-.01.36-.02.36-.02.36-.01.36-.01.37-.02.36.01.36-.01.36-.02.36-.01.37-.01.36-.01.36-.02.36-.01.37-.02.36-.01.36.02.36-.02.36-.02.37-.01h.36l.36-.01.36-.02.36-.02.37-.01.36.01.36-.01.36-.01.36-.01.37.36.36-.02.36-.01h.36l.36-.02.37-.02h.36l.36-.01.36-.02.37-.02.36.03.36-.01.36-.01h.36l.37-.02.36.01.36-.01.36-.01.36-.01.37-.01.36-.01.36-.02h.36l.36-.02.37.02.36-.01.36-.02h.36l.37-.01.36-.01.36-.01.36-.02h.36l.37-.01.36-.01.36-.01.36-.02.36-.01.37-.01.36-.01.36.02.36-.01.36-.01.37-.01.36-.01.36-.01h.36l.36-.02.37-.01.36-.03.36-.01.36.01.37.56h.36l.36-.01h.36l.36-.01.37-.01h.36l.36-.01.36-.01.36-.01.37-.01.36-.02.36.02.36-.02.36-.01.37.04h.36l.36-.01.36-.01.37-.01.36-.02h.72l.36-.01.37-.02h.36l.36-.01.36.03.36-.01.37-.01h.36l.36-.01.36-.01.36-.01.37-.01h.36l.36.01.36-.01.36-.01.37-.08.36-.01h.36l.36-.01.37.01.36-.01h.36l.36-.01.36.02.37-.01.36-.02.36.01.36-.01.36-.01.37-.01.36-.02h.36l.36-.01.36-.01h.73l.36-.02h.36l.37.01.36-.01h.36l.36-.02.36.08.37-.01.36-.02.36.01.36-.02.36-.01.37.02h.36l.36-.02.36-.01.36-.01.37.02h.36l.36-.01.36-.01h.37l.36-.01.36-.01.36.02.36-.01.37-.01h.36l.36-.02h.36l.36-.01.37-.01h.36l.36.01.36-.01.36-.01h.37l.36-.01.36-.01h.36l.36-.01.37-.01.36-.01h.36l.36-.01.37-.01.36.04.36-.01.36-.01.36-.01.37-.01.36.01.36-.01h.36l.36-.01.37-.01.36.24.36-.01h.36l.36-.02.37-.01h.36l.36.04h.36l.37-.01h.36l.36-.01.36.01.36-.01.37-.01.36-.01.36-.01.36-.01.36-.01h.37l.36-.02h.36l.36-.01.36-.01.37-.01.36-.01.36.02.36-.01.36-.01h.37l.36.04.36-.01h.36l.37-.01.36.02.36-.01h.72l.37-.01.36-.01h.36l.36-.01.36-.01.37-.02.36-.01.36-.02.36-.01.36-.01.37-.02.36-.01h.36l.36-.02.37-.01.36-.02.36.03h.36l.36-.02.37-.02.36-.01.36-.01.36-.01.36-.01.37-.01.36-.02.36-.01.36-.02.36-.01.37.03.36-.02.36-.01.36-.01.36.02.37-.01.36-.04h.36l.36-.02.37-.01h.36l.36-.01.36-.02.36-.01.37.02.36-.01.36-.02h.36l.36-.01.37-.37.36-.01h.36l.36.01h.73l.36.02.36-.01h.36l.37-.01h1.08l.36-.01h.37l.36.02h.36l.36-.01h.36l.37-.01h1.08l.36.06h.37l.36.01h.36l.36-.01.37-.01h.36l.36-.01h.36l.36-.01.37-.02h.36l.36.01.36-.01.36-.01.37-.01.36-.01.36.01.36-.01h.36l.37-.02.36-.01h.36l.36-.02h.73l.36.02.36-.01.36-.01.37-.01h.36l.36-.01.36-.01.36.01.37-.02h.36l.36-.01"/><use xlink:href="#f2527__b" color="#D336C8" transform="matrix(3.75 0 0 3.75 354.25 55.47)"/><use xlink:href="#f2527__b" color="#D336C8" transform="matrix(3.75 0 0 3.75 56.25 7.51)"/></g><text stroke-linecap="round" stroke-linejoin="round" color="#000" font-family="KaTeX_Main" font-size="8" transform="translate(76.8 25.11)"><tspan>RedBlackRelaxedTopDown</tspan></text><g fill="none" stroke="currentColor" stroke-linecap="round" stroke-linejoin="round" color="#000"><path stroke="violet" stroke-dasharray="4.0,2.0,1.0,2.0" d="M41.3 22.51h29.9M28 61.26l.36-.32.36-.62.37.7.36-.48.36-.19.36-.13.36-.44.37-.43.36-.58.36 1.73.36-.33.37-.25.36-.5.36.14.36-.34.36-.49.37.39.36-.35.36-.29.36-.47.36-.11.37-.4.36-.38.36-.56.36 3.52.36-.22.37-.14.36-.35.36.06.36-.32.36-.24.37-.43.36.5.36-.32.36-.13.37-.1.36-.29.36-.29.36-.38.36 1.03.37-.17.36-.18.36-.26.36-.08.36-.25.37-.25.36-.33.36.21.36-.23.36-.22.37-.31.36-.12.36-.35.36-.35.37-.26.36-.42.36 6.05.36-.12.36-.07.37-.22.36.06.36-.17.36-.13.36-.24.37.31.36-.14.36-.27.36-.11.36-.25.37.02.36-.23.36-.18.36-.29.37.93.36-.13.36-.12.36-.17.36-.03.37-.22.36-.22.36-.15.36-.27.36.28.37-.18.36-.17.36-.23.36-.06.36-.21.37-.21.36-.3.36-.3.36 2.04.36-.11.37-.08.36-.18.36.02.36-.15.37-.13.36-.19.36-.27.36.3.36-.16.37-.12.36-.21.36-.02.36-.19.36-.27.37-.14.36-.26.36.76.36-.15.36-.1.37-.17.36-.04.36-.18.36-.19.37-.13.36-.24.36.19.36-.15.36-.24.37-.12.36-.22.36-.03.36-.21.36-.18.37-.22.36-.3.36 3.73.36-.07.36-.06.37-.1.36.02.36-.13.36-.12.36-.08.37-.17.36.22.36-.09.36-.18.37-.06.36-.15.36-.01.36-.13.36-.12.37-.2.36-.18.36.64.36-.11.36-.07.37-.12.36-.19.36.04.36-.14.36-.1.37-.2.36-.16.36.22.36-.13.37-.1.36-.17.36-.17.36-.02.36-.15.37-.21.36-.12.36-.2.36 1.39.36-.07.37-.12.36-.05.36-.12.36.01.36-.12.37-.12.36-.09.36-.14.36-.2.36.24.37-.12.36-.07.36-.13.36-.17h.37l.36-.14.36-.12.36-.17.36-.17.37.52.36-.09.36-.13.36-.07.36-.13.37-.02.36-.13.36-.13.36-.1.36-.15.37-.19.36.18.36-.13.36-.09.37-.16.36-.15.36-.03.36-.14.36-.19.37-.11.36-.17.36 6.1.36-.04.36-.04.37-.02.36-.06.36-.09.36.04.36-.06.37-.11.36-.03.36-.11.36.18.37-.07.36-.07.36-.04.36-.09.36-.13.37.04.36-.09.36-.08.36-.11.36-.12.37.46.36-.07.36-.06.36-.04.36-.08.37-.12.36.04.36-.09.36-.07.36-.11.37-.11.36.14.36-.1.36-.08.37-.07.36-.1.36-.14.36.01.36-.11.37-.08.36-.13.36-.14.36 1.03.36-.06.37-.05.36-.04.36-.08.36-.08.36.03.37-.09.36-.08.36-.05.36-.09.37-.13.36.17.36-.07.36-.1.36-.06.37-.08.36-.13.36.02.36-.09.36-.14.37-.06.36-.12.36.4.36-.07.36-.07.37-.05.36-.09.36-.1.36.01.36-.1.37-.09.36-.07.36-.12.36-.11.37.12.36-.1.36-.08.36-.07.36-.12.37-.11.36-.01.36-.1.36-.13.36-.08.37-.12.36-.15.36 2.14.36-.03.36-.06.37-.02.36-.06.36-.08.36.03.37-.05.36-.08.36-.05.36-.07.36-.1.37.15.36-.05.36-.08.36-.04.36-.07.37-.11.36.02.36-.07.36-.1.36-.07.37-.08.36-.12.36.4.36-.05.36-.08.37-.03.36-.08.36-.09.36.01.37-.06.36-.1.36-.05.36-.09.36-.11.37.13.36-.07.36-.09.36-.05.36-.08.37-.11.36-.01.36-.08.36-.11.36-.07.37-.1.36-.12.36.84.36-.04.37-.07.36-.03.36-.06.36-.09.36.02.37-.06.36-.08.36-.05.36-.07.36-.1.37.11.36-.08.36-.05.36-.05.36-.09.37-.08.36-.01.36-.08.36-.08.37-.07.36-.1.36-.09.36.31.36-.07.37-.06.36-.04.36-.08.36-.08.36-.01.37-.07.36-.08.36-.06.36-.09.36-.09.37-.13.36.13.36-.08.36-.1.36-.04.37-.09.36-.12h.36l.36-.09.37-.11.36-.06.36-.1.36-.13.36 3.74.37-.01.36-.04.36-.01.36-.04.36-.06.37.04.36-.06.36-.03.36-.03.36-.06.37-.06.36.12.36-.05.36-.04.37-.02.36-.06.36-.06.36.01.36-.05.37-.06.36-.08.36-.03.36-.07.36-.09.37.33.36-.03.36-.06.36-.02.36-.05.37-.07.36.02.36-.06.36-.05.36-.04.37-.07.36-.07.36.09.36-.05.37-.05.36-.04.36-.07.36-.06.36-.09.37.01.36-.06.36-.09.36-.05.36-.07.37-.1.36.7.36-.03.36-.05.36-.01.37-.06.36-.05.36.01.36-.04.37-.06.36-.03.36-.06.36-.07.36-.08.37.12.36-.04.36-.06.36-.04.36-.06.37-.06h.36l.36-.07.36-.06.36-.05.37-.07.36-.08.36-.09.36.3.37-.04.36-.06.36-.03.36-.06.36-.06h.37l.36-.06.36-.06.36-.04.36-.07.37-.08.36-.09.36.11.36-.06.36-.07.37-.05.36-.06.36-.08.36-.01.36-.08.37-.06.36-.06.36-.08.36-.09.37 1.35.36-.03.36-.02.36-.05.36-.01.37-.04.36-.05.36.02.36-.04.36-.05.37-.03.36-.06.36-.05.36.09.36-.04.37-.04.36-.06.36-.02.36-.05.37-.07.36.01.36-.06.36-.05.36-.04.37-.06.36-.07.36-.09.36.29.36-.04.37-.05.36-.02.36-.05.36-.06.36.01.37-.06.36-.05.36-.04.36-.06.36-.06.37-.08.36.1.36-.05.36-.06.37-.04.36-.05.36-.07.36-.01.36-.06.37-.07.36-.04.36-.07.36-.08.36-.08.37.58.36-.03.36-.05.36-.02.36-.05.37-.05.36.01.36-.05.36-.04.37-.07.36-.02.36-.06.36-.07.36.08.37-.05.36-.04.36-.04.36-.05.36-.06.37-.01.36-.05.36-.06.36-.07.36-.04.37-.06.36-.08.36.22.36-.04.36-.05.37-.06.36-.02.36-.06.36-.06h.37l.36-.07.36-.04.36-.05.36-.06.37-.07.36-.08.36.09.36-.06.36-.06.37-.04.36-.07.36-.06.36-.02.36-.06.37-.06.36-.09.36-.04.36-.07.37-.09.36 5.99.36-.02.36-.01h.36l.37-.03.36-.02.36-.05.36.04.36-.02.37-.04.36-.01.36-.04.36-.03.36.09.37-.03.36-.02.36-.04.36-.01.37-.03.36-.04.36.01.36-.04.36-.03.37-.06.36-.01.36-.04.36-.06.36.24.37-.03.36-.02.36-.01.36-.04.36-.03.37-.05.36.03.36-.04.36-.04.36-.02.37-.05.36-.04.36.07.36-.04.37-.03.36-.05.36-.01.36-.04.36-.06.37.01.36-.05.36-.04.36-.03.36-.05.37-.06.36-.06.36.52.36-.03.36-.02.37-.01.36-.03.36-.03.36-.05.37.02.36-.02.36-.04.36-.03.36-.04.37-.04.36-.06.36.1.36-.03.36-.04.37-.02.36-.05.36-.04.36.01.36-.04.37-.04.36-.05.36-.03.36-.06.36-.05.37.21.36-.04.36-.02.36-.05.37-.02.36-.03.36-.05.36.01.36-.04.37-.04.36-.06.36-.02.36-.05.36-.05.37.06.36-.04.36-.04.36-.05.36-.02.37-.05.36-.06h.36l.36-.05.37-.05.36-.03.36-.06.36-.06.36-.06.37 1.04.36-.02.36-.02.36-.01.36-.03.37-.02.36-.04.36.02.36-.02.36-.04.37-.02.36-.04.36-.03.36-.05.36.09.37-.03.36-.04.36-.01.36-.04.37-.04h.36l.36-.03.36-.04.36-.04.37-.03.36-.05.36-.04.36.18.36-.02.37-.03.36-.04.36-.01.36-.04.36-.03h.37l.36-.03.36-.04.36-.05.37-.02.36-.04.36-.05.36.06.36-.04.37-.03.36-.05.36-.02.36-.04.36-.05h.37l.36-.04.36-.05.36-.05.36-.04.37-.04.36-.06.36.43.36-.02.37-.03.36-.04.36-.01.36-.03.36-.04.37.01.36-.03.36-.03.36-.05.36-.02.37-.04.36-.05.36.06.36-.03.36-.03.37-.05.36-.02.36-.03.36-.05h.36l.37-.05.36-.04.36-.05.36-.03.37-.04.36-.06.36.17.36-.03.36-.03.37-.05.36-.01.36-.04.36-.05h.36l.37-.04.36-.04.36-.05.36-.02.36-.05.37-.05.36.05.36-.04.36-.04.37-.05.36-.03.36-.04.36-.06h.36l.37-.05.36-.05.36-.06.36-.03.36-.05.37-.06.36 1.9.36-.01.36-.01.36-.03h.37l.36-.02.36-.03.36.02.36-.02.37-.03.36-.03.36-.01.36-.03.37-.03.36.06.36-.02.36-.02.36-.03.37-.02.36-.02.36-.04.36.01.36-.03.37-.03.36-.04.36-.01.36-.05.36-.03.37.17.36-.02.36-.02.36-.03.37-.01.36-.04.36-.03.36.01.36-.03.37-.02.36-.04.36-.02.36-.04.36-.04.37.06.36-.03.36-.03.36-.03.36-.02.37-.04.36-.04.36-.05.36.02.36-.04.37-.04.36-.03.36-.04.36-.05.37-.05.36.41.36-.02.36-.03.36-.01.37-.03.36-.02.36-.04.36.01.36-.02.37-.03.36-.02.36-.04.36-.03.36-.05.37.07.36-.04.36-.02.36-.02.37-.03.36-.04.36-.04.36.01.36-.04.37-.03.36-.03.36-.04.36-.04.36-.05.37.16.36-.03.36-.03.36-.01.36-.04.37-.03.36-.04.36.01.36-.04.37-.03.36-.05.36-.02.36-.03.36-.05.37.04.36-.03.36-.03.36-.04.36-.03.37-.03.36-.05h.36l.36-.04.36-.04.37-.05.36-.03.36-.05.36-.04.36.77.37-.02.36-.01.36-.03.36-.01.37-.02.36-.03.36-.03.36.02.36-.03.37-.03.36-.01.36-.04"/><use xlink:href="#f2527__e" color="violet" transform="matrix(3.75 0 0 3.75 67.83 57.79)"/><use xlink:href="#f2527__e" color="violet" transform="matrix(3.75 0 0 3.75 56.25 22.51)"/></g><text stroke-linecap="round" stroke-linejoin="round" color="#000" font-family="KaTeX_Main" font-size="8" transform="translate(241.1 10.11)"><tspan>LBSTRelaxed</tspan></text><g fill="none" stroke="currentColor" stroke-linecap="round" stroke-linejoin="round" color="#000"><path stroke="#FFAB00" stroke-dasharray="4.0,2.0,1.0,2.0" d="M205.6 7.51h29.9M28 57.08l.36-.29.36-.55.37 2.4.36-.19.36-.13.36-.44.36-.39.37.21.36-.36.36-.21.36-.49.37.64.36-.28.36-.18.36-.35.36-.05.37-.39.36-.4.36-.27.36-.51.36 4 .37-.15.36-.04.36-.26.36.14.36-.22.37-.13.36-.28.36.39.36-.21.36-.24.37-.1.36-.33.36.06.36-.24.37-.23.36-.33.36 1.24.36-.14.36-.28.37-.09.36-.26.36.15.36-.26.36-.17.37-.3.36.35.36-.19.36-.15.36-.3.37-.31.36.01.36-.27.36-.24.37-.33.36 2.6.36-.11.36-.07.36-.19.37.05.36-.14.36-.27.36-.11.36-.25.37.34.36-.16.36-.13.36-.21.36-.01.37-.2.36-.3.36-.15.36-.3.37.93.36-.16.36-.1.36-.21.36.04.37-.19.36-.14.36-.28.36.23.36-.18.37-.19.36-.14.36-.25.36-.02.36-.22.37-.19.36-.3.36 3.76.36-.08.36.01.37-.13.36.08.36-.1.36-.09.37-.17.36-.18.36.3.36-.11.36-.09.37-.13.36.01.36-.15.36-.12.36-.21.37.59.36-.08.36-.11.36-.07.36-.15.37.03.36-.12.36-.12.36-.16.37.16.36-.14.36-.14.36-.1.36-.19.37-.01.36-.17.36-.15.36-.22.36 1.43.37-.07.36-.05.36-.14.36-.12.36.02.37-.12.36-.09.36-.14.36.24.36-.1.37-.09.36-.16.36-.16h.36l.37-.15.36-.13.36-.18.36.48.36-.09.37-.09.36-.12.36-.02.36-.14.36-.15.37-.1.36-.19.36.16.36-.12.36-.12.37-.15.36-.05.36-.17.36-.17.37-.13.36 2.48.36-.05.36-.02.36-.11.37-.09.36.05.36-.09.36-.07.36-.12.37.15.36-.07.36-.06.36-.13.36-.12.37.01.36-.12.36-.1.36-.14.36.41.37-.07.36-.06.36-.1.36-.15.37.04.36-.12.36-.08.36-.15.36.13.37-.09.36-.09.36-.12.36-.17h.36l.37-.14.36-.12.36-.15.36.89.36-.06.37-.06.36-.09.36-.01.36-.09.37-.08.36-.12.36-.13.36.15.36-.09.37-.08.36-.11.36-.03.36-.1.36-.16.37-.09.36.29.36-.1.36-.08.36-.06.37-.12.36-.01.36-.11.36-.09.37-.15.36-.14.36.12.36-.11.36-.1.37-.12.36-.05.36-.12.36-.17.36 3.65.37-.04.36-.01.36-.06.36.05.36-.04.37-.09.36-.03.36-.08.36.15.36-.06.37-.04.36-.06.36-.01.36-.08.37-.08.36-.07.36-.1.36.33.36-.04.37-.04.36-.07h.36l.36-.09.36-.07.37-.06.36-.11.36.13.36-.08.36-.05.37-.09.36-.03.36-.1.36-.09.37-.08.36.64.36-.03.36-.05.36-.03.37-.07h.36l.36-.06.36-.06.36-.09.37-.1.36.13.36-.07.36-.05.36-.09.37-.01.36-.09.36-.07.36-.12.36.26.37-.06.36-.07.36-.05.36-.09.37-.01.36-.08.36-.06.36-.11.36-.11.37.09.36-.08.36-.07.36-.11.36-.02.37-.1.36-.13.36-.09.36 1.45.36-.04.37-.03.36-.05h.36l.36-.05.37-.08.36-.04.36-.08.36.1.36-.05.37-.05.36-.07.36-.01.36-.06.36-.1.37-.06.36-.1.36.32.36-.05.36-.04.37-.07.36-.01.36-.06.36-.1.36-.05.37-.1.36.08.36-.07.36-.06.37-.08.36-.04.36-.1.36-.09.36-.07.37.52.36-.05.36-.06.36-.03.36-.07.37-.01.36-.06.36-.06.36-.08.36.06.37-.07.36-.06.36-.06.36-.08.37-.03.36-.08.36-.07.36-.1.36.2.37-.05.36-.08.36-.05.36-.08.36-.02.37-.08.36-.07.36-.1.36.05.36-.08.37-.08.36-.07.36-.1.36-.03.37-.09.36 2.42.36-.03.36-.03.36-.01.37-.04.36.01.36-.03.36-.04.36-.06.37-.06.36.1.36-.04.36-.04.36-.05.37-.01.36-.05.36-.07.36-.05.36-.07.37.22.36-.04.36-.03.36-.05.37-.01.36-.05.36-.07.36-.05.36-.07.37.07.36-.06.36-.04.36-.07.36-.03.37-.07.36-.07.36-.06.36.43.36-.03.37-.04.36-.03.36-.05.36-.01.37-.05.36-.04.36-.07.36.06.36-.05.37-.06.36-.04.36-.07.36-.02.36-.06.37-.08.36-.05.36.16.36-.05.36-.05.37-.03.36-.07.36-.02.36-.06.36-.05.37-.08.36-.08.36.05.36-.06.37-.06.36-.08.36-.03.36-.07.36-.09.37-.06.36.9.36-.04.36-.02.36-.04.37-.01.36-.05.36-.05.36-.03.36-.07.37.06.36-.05.36-.03.36-.06.37-.02.36-.06.36-.06.36-.04.36-.08.37.19.36-.04.36-.04.36-.05.36-.02.37-.06.36-.06.36-.05.36-.07.36.05.37-.06.36-.05.36-.06.36-.08.37-.02.36-.07.36-.07.36.38.36-.04.37-.06.36-.02.36-.05.36-.01.36-.05.37-.05.36-.07.36-.06.36.05.36-.05.37-.05.36-.06.36-.03.36-.07.36-.07.37-.05.36-.08.36.17.36-.05.37-.05.36-.06.36-.03.36-.05.36-.08.37-.05.36-.08.36.04.36-.07.36-.05.37-.07.36-.04.36 3.42.36-.02.36.01.37-.03.36.01.36-.02.36-.04.37-.02.36-.04.36.09.36-.02.36-.02.37-.03.36-.06.36.02.36-.04.36-.03.37-.05.36.16.36-.02.36-.02.36-.03.37-.04h.36l.36-.04.36-.02.36-.05.37.05.36-.05.36-.03.36-.03.37-.06.36-.01.36-.05.36-.03.36-.07.37.35.36-.02.36-.02.36-.04.36-.03h.37l.36-.04.36-.02.36-.05.36.05.37-.03.36-.05.36-.02.36-.05.37-.01.36-.05.36-.04.36-.05.36.14.37-.03.36-.05.36-.02.36-.05.36-.01.37-.04.36-.04.36-.05.36.03.36-.05.37-.05.36-.03.36-.06.36-.02.36-.06.37-.05.36.66h.36l.36-.02.37-.02.36-.03h.36l.36-.03.36-.05.37-.02.36-.04.36.04.36-.03.36-.03.37-.04.36-.01.36-.04.36-.05.36-.03.37-.06.36.15.36-.03.36-.03.37-.03.36-.02.36-.03.36-.06.36-.03.37-.05.36.04.36-.04.36-.04.36-.05.37-.02.36-.06.36-.05.36-.04.36.29.37-.02.36-.03.36-.03.36-.04.37-.01.36-.03.36-.04.36-.05.36-.05.37.04.36-.04.36-.03.36-.05.36-.02.37-.05.36-.06.36-.04.36-.06.36.13.37-.04.36-.03.36-.05.36-.02.36-.04.37-.06.36-.04.36-.06.36.03.37-.05.36-.04.36-.05.36-.04.36-.05.37-.06.36 1.38.36-.02.36-.01.36-.02h.37l.36-.03.36-.03.36-.02.36-.03.37.03.36-.02.36-.02.36-.04.37-.04h.36l.36-.04.36-.03.36-.04.37.15.36-.02.36-.03.36-.03.36-.04h.37l.36-.04.36-.03.36-.05.36.03.37-.03.36-.03.36-.04.36-.05.36-.01.37-.05.36-.03.36-.06.36.3.37-.02.36-.02.36-.03.36-.01.36-.03.37-.04.36-.03.36-.04.36.03.36-.03.37-.03.36-.04.36-.05.36-.01.36-.04.37-.04.36-.05.36.11.36-.03.37-.03.36-.05.36-.04.36-.01.36-.04.37-.04.36-.05.36.02.36-.04.36-.05.37-.03.36-.06.36-.02.36-.05.36-.05.37.56.36-.03.36-.02.36-.02.36-.03.37-.01.36-.03.36-.02.36-.04.37.02.36-.03.36-.04.36-.02.36-.04.37-.02.36-.04.36-.03.36-.05.36.11.37-.04.36-.03.36-.02.36-.04.36-.02.37-.03.36-.04.36-.05.36-.05.37.03.36-.03.36-.04.36-.04.36-.03.37-.05.36-.05.36-.04.36.23.36-.02.37-.02.36-.04.36-.04.36-.01.36-.04.37-.03.36-.04.36.02.36-.04.37-.04.36-.03.36-.05.36-.02.36-.04.37-.06.36-.04.36.09.36-.04.36-.03.37-.03.36-.05.36-.02.36-.04.36-.06.37-.04.36-.05.36.02.36-.05.36-.03.37-.06.36 2.35.36-.01.36-.01.37-.01.36-.02.36.01.36-.02.36-.03.37-.01.36-.03.36.04.36-.02.36-.01.37-.02.36-.01.36-.03.36-.03.36-.02.37-.04.36.12.36-.03.36-.01.37-.02.36-.04h.36l.36-.03.36-.02.37-.03.36.02.36-.02.36-.02.36-.04.37-.03.36-.01.36-.04.36-.03.36-.04.37.23.36-.02.36-.01.36-.02h.36l.37-.03.36-.03.36-.02.36-.04.37.03.36-.02.36-.02.36-.04.36-.03.37-.01.36-.04.36-.03.36-.04.36.1.37-.03.36-.02.36-.03.36-.04.36-.01.37-.03.36-.03.36-.04.36.02.37-.04.36-.03.36-.03.36-.04.36-.02.37-.04.36-.03.36.44.36-.01.36-.02.37-.01.36-.03h.36l.36-.02.36-.02.37-.03.36.02.36-.03.36-.03.36-.02.37-.03.36-.01.36-.03.36-.04.37-.02.36.09.36-.03.36-.02.36-.02.37-.03.36-.01.36-.03.36-.04.36-.03.37-.04.36.03.36-.04.36-.02.36-.04.37-.04.36-.02.36-.03.36-.04.37.2.36-.02.36-.03.36-.01.36-.04h.37l.36-.03.36-.04.36-.02.36-.04.37.02.36-.03.36-.03.36-.03.36-.02.37-.04.36-.04.36-.03.36-.04.37.09.36-.04.36-.02.36-.03.36-.02.37-.04.36-.04.36-.03.36-.04.36.01.37-.04.36-.03.36-.05.36-.04.36-.02.37-.04.36.9.36-.01.36-.01.36-.03.37-.02h.36l.36-.02.36-.02.37-.02.36.01.36-.02.36-.03.36-.01.37-.03.36-.01.36-.03"/><use xlink:href="#f2527__f" color="#FFAB00" transform="matrix(3.75 0 0 3.75 125.4 56.41)"/><use xlink:href="#f2527__f" color="#FFAB00" transform="matrix(3.75 0 0 3.75 220.55 7.51)"/></g><text stroke-linecap="round" stroke-linejoin="round" color="#000" font-family="KaTeX_Main" font-size="8" transform="translate(241.1 25.11)"><tspan>WBSTRelaxed</tspan></text><g fill="none" stroke="currentColor" stroke-linecap="round" stroke-linejoin="round" color="#000"><path stroke="violet" stroke-dasharray="4.5,2.0,0.5,2.0,0.5,2.0" d="M205.6 22.51h29.9M28 57.1l.36 1.15.36-.36.37-.18.36-.21.36-.43.36.2.36-.4.37-.39.36-.26.36-.43.36 2.21.37-.14.36-.28.36-.19.36-.16.36.06.37-.21.36-.29.36-.27.36-.32.36-.41.37.82.36-.18.36-.19.36-.34.36-.35.37.12.36-.35.36-.34.36-.2.36 3.57.37-.06.36-.12.36-.04.36-.27.37-.18.36.22.36-.17.36-.1.36-.26.37-.28.36.61.36-.24.36-.15.36-.1.37-.25.36.09.36-.25.36-.23.36-.16.37-.35.36 1.28.36-.17.36-.12.37-.08.36-.17.36-.31.36.15.36-.19.37-.13.36-.26.36-.29.36.49.36-.14.37-.26.36-.11.36-.24h.36l.36-.25.37-.22.36-.18.36-.34.36 2.51.37-.08.36-.1.36-.14.36-.12.36.03.37-.1.36-.21.36-.01.36-.2.36.31.37-.16.36-.15.36-.05.36-.22.36-.2.37.05.36-.15.36-.25.36-.11.36-.23.37.97.36-.1.36-.08.36-.16.37-.17.36.02.36-.18.36-.15.36-.12.37-.19.36.24.36-.12.36-.16.36-.12.37-.21.36-.21.36.03.36-.19.36-.23.37 3.57.36-.04.36-.11.36.08.37-.09.36-.07.36-.12.36.03.36-.14.37-.1.36-.17.36.32.36-.11.36-.09.37-.05.36-.12.36-.18.36.07.36-.11.37-.09.36-.17.36-.17.36.76.36-.08.37-.14.36-.01.36-.15.36.04.37-.12.36-.17.36-.05.36-.14.36.21.37-.09.36-.16.36-.05.36-.15.36-.18.37.04.36-.12.36-.19.36-.11.36 1.45.37-.07.36-.08.36-.03.36-.11.37-.11.36.08.36-.1.36-.13.36-.06.37-.14.36.22.36-.1.36-.11.36-.07.37-.12.36-.17.36.05.36-.11.36-.16.37-.09.36-.16.36.55.36-.08.36-.13.37-.03.36-.13.36.01.36-.12.37-.11.36-.09.36-.15.36-.16.36.21.37-.13.36-.14.36-.05.36-.15.36-.04.37-.11.36-.13.36 2.26.36-.03.36-.04.37-.02.36-.08.36-.08.36.05.37-.07.36-.09.36-.05.36-.09.36.17.37-.08.36-.07.36-.04.36-.11.36-.09.37.02.36-.09.36-.12.36-.08.36-.11.37.47.36-.07.36-.08.36-.03.37-.1.36-.01.36-.09.36-.09.36-.06.37-.12.36-.12.36.18.36-.09.36-.1.37-.08.36-.11.36-.12.36.01.36-.12.37-.14.36-.07.36.94.36-.05.36-.09.37-.02.36-.08.36.02.36-.09.37-.07.36-.06.36-.1.36-.1.36.13.37-.07.36-.1.36-.06.36-.1.36-.12.37.04.36-.1.36-.14.36-.06.36-.12.37.4.36-.08.36-.07.36-.05.37-.09.36-.03.36-.1.36-.09.36-.07.37-.12.36-.12.36.14.36-.1.36-.13.37-.05.36-.11.36-.02.36-.11.36 3.48.37-.01.36-.05.36-.04.36.04.36.02.37-.02.36-.05.36-.05h.36l.37-.05.36-.06.36-.05.36.05.36-.05.37-.08.36-.05.36-.08.36-.01.36-.07.37-.08.36.2.36.16.36-.04.36-.05.37-.02.36-.07.36-.06.36.03.37-.07.36-.07.36-.04.36-.09.36-.08.37.12.36-.05.36-.08.36-.04.36-.09.37-.08.36.01.36-.1.36.63.36.05.37-.05.36-.03.36-.03.36-.06.36-.08.37.04.36-.06.36-.08.36-.03.37-.07.36.1.36-.05.36-.06.36-.05.37-.06.36-.09.36.02.36-.08.36-.07.37-.06.36.2.36-.06.36-.07.36-.01.37-.06.36-.05.36-.08.36-.03.37-.08.36-.09.36-.08.36.04.36-.02.37-.03.36-.06.36-.08.36-.05.36-.09.37-.09.36-.01.36 1.37.36-.03.36-.06.37-.01.36-.06.36.05.36-.01.37-.05.36-.01.36-.04.36-.06.36-.03.37-.06.36-.08.36.03.36-.07.36-.08.37-.05.36-.07.36.07.36-.05.36.04.37.09.36-.05.36-.03.36-.06.36-.05h.37l.36-.06.36-.06.36-.05.37-.08.36-.07.36.09.36-.06.36-.07.37-.04.36-.07.36-.09.36-.02.36-.05.37-.09.36-.07.36.59.36-.05.36-.03.37-.03.36-.06h.36l.36-.06.37-.05.36-.04.36-.07.36-.07.36.1.37-.07.36-.05.36-.04.36-.08.36-.06.37-.01.36-.06.36-.08.36-.06.36-.07.37.21.36-.04.36-.05.36-.07.36-.09.37-.02.36-.03.36-.06.36-.05.37-.09.36-.05.36.06.36-.07.36-.06.37-.05.36-.08.36-.08.36-.02.36 2.25.37-.03h.36l.36-.04.36-.03.36.02.37-.04.36-.03.36.02.36-.03.37-.02.36-.05.36-.05.36.01.36-.04.37-.04.36-.06.36.05.36-.04.36-.05.37-.04.36.12.36-.01.36-.04.36-.05.37-.03.36-.07.36.06.36-.04.37-.06.36-.03.36-.06.36-.02.36.08.37-.05.36-.03.36-.06h.36l.36-.03.37-.03.36-.05.36-.05.36-.07.36.35.37-.01h.36l.36-.03.36-.04.36-.02.37-.05.36-.04.36.01.36-.04.37-.06.36-.04.36-.03.36-.06.36-.05.37.09.36-.05.36-.04.36-.07.36-.03.37-.04.36-.07.36.13.36-.05.36-.04.37-.03.36-.06.36-.05h.36l.37-.02.36-.02.36-.05.36-.07.36-.03.37-.07.36-.02.36-.06.36-.07.36-.05.37-.07.36-.08.36.03.36.99.36-.04.37-.01.36-.03h.36l.36-.04.36-.03.37-.03.36-.05.36-.05.36.07.37-.04.36-.04.36-.04.36-.04.36-.04.37-.01.36-.05.36.12.36-.02.36-.04.37-.04.36-.03.36-.05.36-.05.36.01.37-.05.36-.05.36.02.36-.05.37-.05.36-.04.36-.05.36-.07h.36l.37-.06.36-.05.36-.07.36.14.36-.03.37-.05.36-.06.36-.04.36-.02.36.23.37-.05.36-.03.36-.06.36-.06.36.07.37-.05.36-.03.36-.06.36-.06h.37l.36-.06.36-.05.36-.05.36-.07.37.15.36-.03.36-.04.36-.05.36-.06.37-.01.36-.05.36-.06.36-.04.36-.07.37.03.36-.05.36-.05.36-.04.37.2.36-.04.36-.04.36-.03.36-.04.37-.02.36-.05.36 3.17.36-.01.36-.03.37.05.36-.01.36-.02.36-.03.36-.04h.37l.36-.01.36-.03.36-.03.37.14.36-.02.36-.03.36-.01.36-.03.37.01.36-.03.36-.04.36-.02.36-.04.37.04.36-.02.36-.02.36-.05.36-.04h.37l.36.24.36-.03.36-.01.36.01.37-.02.36-.01.36-.02.36-.03.37-.02.36-.02.36-.04.36-.04.36-.03.37-.05.36.04.36-.04.36.02.36-.02.37.04.36-.02.36-.02.36-.03.36-.04.37-.02.36-.04.36-.04h.36l.37-.04h.36l.36-.02.36-.04.36-.04.37-.04.36-.05.36-.05.36-.01.36.3.37-.03.36-.02.36-.02.36-.04h.36l.37-.04.36-.04.36-.03.36-.04.36.03.37-.04.36-.03.36-.05.36-.04.37-.01.36-.05.36-.03.36-.06.36.11.37-.02.36.4.36-.03.36-.03.36-.01.37-.02.36-.03.36-.04.36-.03.36.01.37-.02.36-.04.36-.04.36-.02.37-.05.36-.04.36-.01.36.25.36-.02.37-.03.36-.02.36-.02.36-.02.36-.02.37-.04.36-.04.36-.04.36.03.36-.02.37-.04.36-.04.36.2.36-.01.36-.02.37-.02.36-.03.36-.03.36-.01.37-.02h.36l.36-.03.36-.03.36-.03.37-.02.36-.04.36-.03.36.09.36-.04.37-.02.36-.03.36-.02.36-.03.36-.03.37-.05.36.01.36-.03.36-.04.37-.04.36-.03.36-.04.36-.05.36.18.37-.02.36-.03.36-.03.36-.01.36-.04.37-.03.36-.05.36.02.36-.04.36-.03.37-.05.36-.02.36-.05.36-.03.37.05.36-.04.36-.03.36-.04.36-.04.37-.02.36-.05.36-.03.36-.01.36 1.14.37-.02.36-.01h.36l.36-.03.36-.02.37.01.36-.02.36-.03.36-.01.36-.03.37-.03.36.05.36-.02.36-.03.37-.02.36-.02.36-.04.36.01.36-.03.37-.04.36-.02.36-.04.36.14.36-.02.37-.03.36-.02.36-.03.36-.04.36.02.37-.03.36-.03.36-.04.36-.02.37.03.36-.03.36-.03.36-.02.36-.04.37-.04h.36l.36-.04.36-.04.36-.03.37.28.36-.03.36-.01.36-.02.36-.02.37-.02.36-.02.36-.04.36-.03h.36l.37-.03.36-.03.36.01.36-.01.37-.03.36-.05.36-.01.36-.04.36-.03.37-.05.36.01.36-.04.36-.04.36.1.37-.02.36-.03.36-.02.36-.04.36-.04h.37l.36-.03.36-.04.36-.03.37-.05.36.03.36-.03.36-.04.36-.04.37-.03.36-.04.36-.04.36-.01.36-.04.37.57.36-.02.36-.02.36-.01.36-.02.37-.03h.36l.36-.02.36-.03.36-.03.37-.02.36-.03.36.03.36-.02.37-.03.36-.01.36-.04.36-.03.36-.01.37-.03.36-.03.36-.04.36-.03.36.09.37-.01.36-.02.36-.02.36-.04.36-.03.37-.03.36-.03.36-.05.36.01.37-.03h.36l.36-.03.36-.04.36-.02.37-.04.36-.04.36-.01.36-.04.36-.04.37-.05.36.27.36-.02.36-.02.36-.02.37-.02.36-.03.36-.04.36-.02.37-.04.36-.05.36.02.36-.04h.36l.37-.02.36-.03.36-.03.36-.04.36-.02.37-.04.36-.04.36-.04h.36l.36-.05.37.09.36-.02.36-.03.36-.04.36-.02.37-.04.36-.03.36-.01.36-.04.37-.03.36-.05.36-.03.36.02.36 2.2.37-.01.36-.02h.36"/><use xlink:href="#f2527__g" color="violet" transform="matrix(3.75 0 0 3.75 182.98 54.03)"/><use xlink:href="#f2527__g" color="violet" transform="matrix(3.75 0 0 3.75 220.55 22.51)"/></g><path fill="none" d="M28 45.01V162.5M371.99 45.01H28" color="#000"/></svg>