<svg xmlns="http://www.w3.org/2000/svg" xmlns:xlink="http://www.w3.org/1999/xlink" viewBox="0 0 400 200"><path fill="none" d="M0 0h400v200H0z"/><defs><use xlink:href="#34fca__a" id="34fca__c" fill="currentColor" stroke="none"/><use xlink:href="#34fca__a" id="34fca__b" stroke="currentColor" transform="rotate(180)"/><use xlink:href="#34fca__b" id="34fca__d" fill="currentColor" stroke="none"/><path id="34fca__a" stroke="currentColor" stroke-width=".267" d="m0-1.33-1.33 2h2.66z"/></defs><path fill="none" stroke="#CCC" stroke-linecap="round" stroke-linejoin="round" stroke-width=".1" d="M46.1 162.5V45.01" class="34fca__gridline" color="#000"/><g fill="none" stroke-linecap="round" stroke-linejoin="round" stroke-width="0" color="#000"><path d="M46.1 162.5V155m0-109.99v7.5"/><text fill="#000" font-family="KaTeX_Main" font-size="8" text-anchor="middle" transform="translate(46.1 172.6)"><tspan> 1</tspan></text></g><path fill="none" stroke="#CCC" stroke-linecap="round" stroke-linejoin="round" stroke-width=".1" d="M82.31 162.5V45.01" class="34fca__gridline" color="#000"/><g fill="none" stroke-linecap="round" stroke-linejoin="round" stroke-width="0" color="#000"><path d="M82.31 162.5V155m0-109.99v7.5"/><text fill="#000" font-family="KaTeX_Main" font-size="8" text-anchor="middle" transform="translate(82.31 172.6)"><tspan> 2</tspan></text></g><path fill="none" stroke="#CCC" stroke-linecap="round" stroke-linejoin="round" stroke-width=".1" d="M118.52 162.5V45.01" class="34fca__gridline" color="#000"/><g fill="none" stroke-linecap="round" stroke-linejoin="round" stroke-width="0" color="#000"><path d="M118.52 162.5V155m0-109.99v7.5"/><text fill="#000" font-family="KaTeX_Main" font-size="8" text-anchor="middle" transform="translate(118.52 172.6)"><tspan> 3</tspan></text></g><path fill="none" stroke="#CCC" stroke-linecap="round" stroke-linejoin="round" stroke-width=".1" d="M154.73 162.5V45.01" class="34fca__gridline" color="#000"/><g fill="none" stroke-linecap="round" stroke-linejoin="round" stroke-width="0" color="#000"><path d="M154.73 162.5V155m0-109.99v7.5"/><text fill="#000" font-family="KaTeX_Main" font-size="8" text-anchor="middle" transform="translate(154.73 172.6)"><tspan> 4</tspan></text></g><path fill="none" stroke="#CCC" stroke-linecap="round" stroke-linejoin="round" stroke-width=".1" d="M190.94 162.5V45.01" class="34fca__gridline" color="#000"/><g fill="none" stroke-linecap="round" stroke-linejoin="round" stroke-width="0" color="#000"><path d="M190.94 162.5V155m0-109.99v7.5"/><text fill="#000" font-family="KaTeX_Main" font-size="8" text-anchor="middle" transform="translate(190.94 172.6)"><tspan> 5</tspan></text></g><path fill="none" stroke="#CCC" stroke-linecap="round" stroke-linejoin="round" stroke-width=".1" d="M227.15 162.5V45.01" class="34fca__gridline" color="#000"/><g fill="none" stroke-linecap="round" stroke-linejoin="round" stroke-width="0" color="#000"><path d="M227.15 162.5V155m0-109.99v7.5"/><text fill="#000" font-family="KaTeX_Main" font-size="8" text-anchor="middle" transform="translate(227.15 172.6)"><tspan> 6</tspan></text></g><path fill="none" stroke="#CCC" stroke-linecap="round" stroke-linejoin="round" stroke-width=".1" d="M263.36 162.5V45.01" class="34fca__gridline" color="#000"/><g fill="none" stroke-linecap="round" stroke-linejoin="round" stroke-width="0" color="#000"><path d="M263.36 162.5V155m0-109.99v7.5"/><text fill="#000" font-family="KaTeX_Main" font-size="8" text-anchor="middle" transform="translate(263.36 172.6)"><tspan> 7</tspan></text></g><path fill="none" stroke="#CCC" stroke-linecap="round" stroke-linejoin="round" stroke-width=".1" d="M299.57 162.5V45.01" class="34fca__gridline" color="#000"/><g fill="none" stroke-linecap="round" stroke-linejoin="round" stroke-width="0" color="#000"><path d="M299.57 162.5V155m0-109.99v7.5"/><text fill="#000" font-family="KaTeX_Main" font-size="8" text-anchor="middle" transform="translate(299.57 172.6)"><tspan> 8</tspan></text></g><path fill="none" stroke="#CCC" stroke-linecap="round" stroke-linejoin="round" stroke-width=".1" d="M335.78 162.5V45.01" class="34fca__gridline" color="#000"/><g fill="none" stroke-linecap="round" stroke-linejoin="round" stroke-width="0" color="#000"><path d="M335.78 162.5V155m0-109.99v7.5"/><text fill="#000" font-family="KaTeX_Main" font-size="8" text-anchor="middle" transform="translate(335.78 172.6)"><tspan> 9</tspan></text></g><path fill="none" stroke="#CCC" stroke-linecap="round" stroke-linejoin="round" stroke-width=".1" d="M371.99 162.5V45.01" class="34fca__gridline" color="#000"/><g fill="none" stroke-linecap="round" stroke-linejoin="round" stroke-width="0" color="#000"><path d="M371.99 162.5V155m0-109.99v7.5"/><text fill="#000" font-family="KaTeX_Main" font-size="8" text-anchor="middle" transform="translate(371.99 172.6)"><tspan> 10</tspan></text></g><g fill="none" stroke-linecap="round" stroke-linejoin="round" stroke-width="0" color="#000"><path d="M371.99 162.5h-7.5"/><text fill="#000" font-family="KaTeX_Main" font-size="8" transform="translate(378.99 165.1)"><tspan>0.40</tspan></text></g><g fill="none" stroke-linecap="round" stroke-linejoin="round" stroke-width="0" color="#000"><path d="M371.99 145.72h-7.5"/><text fill="#000" font-family="KaTeX_Main" font-size="8" transform="translate(378.99 148.32)"><tspan>0.45</tspan></text></g><g fill="none" stroke-linecap="round" stroke-linejoin="round" stroke-width="0" color="#000"><path d="M371.99 128.93h-7.5"/><text fill="#000" font-family="KaTeX_Main" font-size="8" transform="translate(378.99 131.53)"><tspan>0.50</tspan></text></g><g fill="none" stroke-linecap="round" stroke-linejoin="round" stroke-width="0" color="#000"><path d="M371.99 112.15h-7.5"/><text fill="#000" font-family="KaTeX_Main" font-size="8" transform="translate(378.99 114.75)"><tspan>0.55</tspan></text></g><g fill="none" stroke-linecap="round" stroke-linejoin="round" stroke-width="0" color="#000"><path d="M371.99 95.36h-7.5"/><text fill="#000" font-family="KaTeX_Main" font-size="8" transform="translate(378.99 97.96)"><tspan>0.60</tspan></text></g><g fill="none" stroke-linecap="round" stroke-linejoin="round" stroke-width="0" color="#000"><path d="M371.99 78.58h-7.5"/><text fill="#000" font-family="KaTeX_Main" font-size="8" transform="translate(378.99 81.18)"><tspan>0.65</tspan></text></g><g fill="none" stroke-linecap="round" stroke-linejoin="round" stroke-width="0" color="#000"><path d="M371.99 61.79h-7.5"/><text fill="#000" font-family="KaTeX_Main" font-size="8" transform="translate(378.99 64.39)"><tspan>0.70</tspan></text></g><g fill="none" stroke-linecap="round" stroke-linejoin="round" stroke-width="0" color="#000"><path d="M371.99 45.01h-7.5"/><text fill="#000" font-family="KaTeX_Main" font-size="8" transform="translate(378.99 47.61)"><tspan>0.75</tspan></text></g><path fill="none" d="M28 45.01V162.5M371.99 45.01H28" color="#000"/><text stroke-linecap="round" stroke-linejoin="round" stroke-width="0" color="#000" font-family="KaTeX_Main" font-size="10" text-anchor="middle" transform="rotate(-90 57.63 46.13)"><tspan font-weight="bold">Rotations</tspan><tspan> / Operations</tspan></text><text stroke-linecap="round" stroke-linejoin="round" stroke-width="0" color="#000" font-family="KaTeX_Main" font-size="10" text-anchor="middle" transform="translate(199.99 195.75)"><tspan>Operations / 10</tspan><tspan dy="-5" font-size="8">6</tspan></text><text stroke-linecap="round" stroke-linejoin="round" stroke-width=".5" color="#000" font-family="KaTeX_Main" font-size="8" transform="translate(110.4 10.11)"><tspan>AVLBottomUp</tspan></text><g fill="none" stroke="currentColor" stroke-linecap="round" stroke-linejoin="round" stroke-width=".5" color="#000"><path stroke="#000" d="M74.9 7.51h29.9M28 55.75l.36 6.38.36.4.37-4.76.36 8.69.36-4.3.36 4.27.36-4 .37-1.07.36 5.47.36-1.81.36-1.85.37 1.88.36.07.36-1.75.36.07.36.23.37-2.68.36 1.54.36-1.1.36-.47.36 4.39.37-7.38h.36l.36 7.08.36 2.18.36-3.89.37 1.78.36-1.95.36.94.36-3.42.36 1.91.37-1.17.36.8.36-1.85.36 2.69.37 2.62.36-1.08.36-1.2.36 3.79.36-1.98.37-3.93.36.81.36-.31.36 3.93.36-.7.37-6.65.36 1.54.36 6.72.36-6.88.36 6.74.37 62.14.36-1.61.36 2.55.36-2.35.37-2.28.36 1.34.36 4.4.36-3.16.36.07.37 3.59.36-1.68.36-1.98.36 2.08.36-1.37.37 1.47.36.27.36-3.69.36 5.77.36 1.78.37-5.13.36 3.39.36-3.76.36 2.25.37-4.94.36 3.02.36 2.42.36-2.52.36-.1.37-4.33.36 2.69.36 8.76.36-6.45.36 1.31.37-3.46.36 4.23.36-1.47.36-.04.36.54.37-7.72.36 5.94.36-1.31.36 2.39.36 2.65.37-.84h.36l.36-.87.36-3.29.37 3.89.36-2.75.36-.84.36-4.63.36 7.68.37-.9.36-5.37.36 2.88.36 2.08.36 3.83.37-7.28.36 6.44.36-3.26.36 2.82.36-.9.37 1.84.36-4.02.36 4.29.36-6.24.37 3.46.36-1.75.36 2.05.36 3.15.36-6.61.37-.74.36 2.96.36-4.5.36 7.25.36-2.01.37 3.49.36-2.52.36-4.8.36 3.62.36.47.37-3.15.36 1.71.36-6.51.36 4.19.36 3.06.37 1.11.36.3.36 1.98.36-.64.37-.9.36 2.65.36-4.97.36 1.11.36 3.49.37-1.08.36-3.76.36 1.65.36-2.32.36 1.28.37.1.36 1.51.36-4.77.36 5.47.36-2.85.37 2.85.36-.94.36-3.49.36-1.14.37 6.38.36-2.82.36 3.89.36-4.19.36 1.88.37-3.06.36 2.15.36-1.48.36.71.36-6.45.37 6.82.36-1.81.36.73.36.27.36 3.36.37-3.56.36 2.25.36-1.27.36-.54.36.13.37-1.1.36 4.66.36-1.48.36-2.85.37 2.52.36-2.62.36-2.52.36 5.14.36-3.96.37 5 .36-.03.36-1.55.36-.44.36-.77.37-3.49.36 9.74.36-2.76.36-4.09.36 1.95.37-6.32.36 3.7.36 1.24.36-.84.37-.94.36-.2.36 2.99.36 3.25.36-10.37.37 4.8.36 5.37.36-11.55.36 8.66.36.1.37 1.72.36-1.18.36 1.45.36 1.51.36-4.94.37-2.35.36.3.36.31.36 1 .37 4.64.36-2.32.36-4.77.36 2.69.36-5.17.37 4.13.36 2.21.36 2.55.36-8.19.36 4.47.37-.61.36-.9.36 7.15.36-3.29.36 1 .37-4.73.36.71.36-1.88.36-.78.36 1.01.37-1.31.36 7.52.36.91.36-5.27.37.47.36 5.54.36-1.92.36-3.29.36-3.96.37 7.62.36-6.24.36-.84.36 5.87.36-2.35.37.71.36 4.87.36-1.88.36-.37.36-4.57.37-1 .36 3.39.36-.54.36.13.37 1.18.36-2.96.36 3.36.36.17.36-3.19.37-1.01.36 3.33.36-6.08.36 3.22.36-1.14.37 2.62.36 1.21.36-1.31.36.84.36-1.28.37 1.48.36-3.46.36-2.18.36 3.89.36 2.92.37-2.28.36-2.48.36 4.36.36-.44.37-2.04.36 1 .36.27.36 1.35.36.9.37-2.15.36 1.95.36-3.93.36-1.27.36.8.37 3.26.36 3.22.36-3.86.36.54.36-3.96.37 2.58.36 3.73.36.03.36-2.31.37-1.38.36 1.27.36 3.26.36-7.15.36 2.69.37-1.68.36.5.36 6.82.36-4.74.36 2.99.37-2.25.36-3.56.36.98.36-.81.36 3.39.37-.57.36-1.68.36 4.8.36-4.06.36-8.06.37 11.35.36-2.05.36-1.41.36-4.86.37 2.92.36 5.27.36-3.97.36-2.55.36.21.37 5.13.36-2.85.36 1.17.36 1.41.36-6.81.37 4.4.36.77.36.64.36 1.37.36-3.62.37 2.98.36-1.1.36-7.36.36 5.41.37-.74.36-.74.36 1.65.36 4.36.36-4.5.37 1.88.36-4.66.36 1.17.36 1.41.36.2.37 3.59.36-4.29.36-4.27.36 9 .36-2.01.37 2.45.36-2.65.36-.47.36-1.28.37 4.33.36-1.61.36-1.68.36-1.74.36 2.75.37.77.36-.57.36 1.31.36.23.36-5.5.37 7.11.36-6.1.36 2.11.36 1.44.36-.5.37-2.08.36 2.52.36-3.02.36 2.92.36.94.37-6.85.36 1.44.36-.27.36 3.29.37 2.02.36-1.51.36 4.49.36-2.68.36.4.37-1.64.36 3.82.36-7.99.36 4.6.36-1.71.37-4.03.36 2.86.36 4.06.36-1.65.36.44.37.23.36 4.87.36-7.99.36.04.37 4.63.36-.34.36-2.11.36-6.85.36 4.57.37 5.43.36-5.13.36 2.78.36-1.14.36-.33.37-2.15.36 2.15.36-.98.36 5.04.36-3.8.37-5.33.36 3.96.36 3.05.36-3.25.36 3.09.37-.98h.36l.36 3.53.36-2.12.37-3.72.36-2.59.36 3.42.36-5.6.36 6.68.37.1.36.94.36.54.36-2.86.36 4.33.37-5.87.36 1.04.36-3.12.36 4.6.36 4.53.37-6.08.36 2.89.36-3.86.36 8.9.37-2.76.36-5.13.36.84.36-1.92.36-1.41.37 3.26.36 2.95.36-3.89.36-1.21.36 4.77.37 1.84.36-3.45.36 2.35.36-4.4.36 3.52.37-7.58.36 3.35.36-.1.36 3.36.37-5.47.36 1.88.36.47.36 2.72.36 2.11.37-4.56.36 3.96.36-3.73.36 4.63.36-3.29.37-2.85.36 6.68.36-3.49.36.7.36 2.66.37-2.42.36-.84.36-1.68.36 4.8.36-1.37.37-6.55.36 4.83.36.57.36-2.31.37 4.66.36-2.51.36 2.58.36-5.03.36 5.7.37-6.14.36.3.36-.07.36 5.85.36-2.05.37-3.69.36 5.97.36-6.41.36 4.33.36-2.35.37-3.46.36 3.59.36.61.36-.84.37 3.02.36.44.36-4.77.36 5.1.36-5.57.37 3.42.36-4.8.36 6.45.36-4.03.36 2.48.37-.2.36-2.98.36.67.36 2.11.36-.57.37.91.36-4.27.36 5.41.36-.91.36-.97.37 1.17.36-3.25.36.17.36 3.15.37-3.09.36 2.72.36-4.56.36 2.31.36-1.54.37 4.53.36-6.41.36 5.74.36.4.36.61.37-6.75.36 8.83.36-5.61.36 2.95.36-3.49.37-2.14.36 2.85h.36l.36 4.63.37-1.54.36-2.32.36-1.98.36 1.91.36.41.37.8.36 5.54.36-10.2.36 4.46.36.3.37-2.35.36 1.85.36.47.36 2.58.36-5.43.37.77.36.17.36.9.36-3.15.36 5.43.37 1.01.36-5.47.36 2.08.36-1.48.37.81.36.54.36-.51.36 5.17.36-2.95.37-1.51.36 4.53.36-8.59.36.03.36 1.24.37 3.56.36-1.24.36-2.02.36 6.35.36-7.42.37.24.36 2.18.36 1.61.36-2.08.37-2.02.36 4.23.36-4.93.36 1.44.36 4.13.37-4.56.36 1.34.36 5.7.36-6.31.36 4.9.37-3.42.36-1.14.36-.84.36 5.17.36.87.37-.37.36-3.55.36.93.36.74.37-.47.36 2.59.36-.4.36-2.79.36 2.11.37-5.1.36 5.51.36-.61.36-.87.36 2.92.37-4.77.36.81.36 3.05.36.64.36-2.38.37.57.36.3.36-4.66.36 1.44.36 3.93.37-1.28.36-.64.36 2.39.36-5.41.37 3.02.36-.06.36 1.74.36-3.99.36.23.37 2.42.36 1.74.36-4.66.36 1.74.36 2.02.37-3.73.36-.03.36 2.18.36 3.59.36-2.38.37-4.63.36-1.72.36 5.95.36-1.65.37 1.48.36 2.78.36-3.62.36-3.63.36 5.61.37-.47.36 2.28.36.17.36-9.16.36 5.4.37-3.29.36.24.36 3.92.36-.27.36-2.35.37 1.72.36 1.24.36-2.59.36 4.84.36-7.89.37 6.75.36-3.66.36.23.36-.84.37 1.92.36.47.36.9.36-2.92.36 2.82.37-3.15.36 4.56.36-2.58.36 4.23.36-6.52.37 1.98.36 1.85.36-.27.36-.7.36-2.49.37 4.07.36-.14.36-6.21.36 3.39.37 6.04.36-3.19.36-1 .36-1.55.36 1.41.37-2.78.36 1.64.36-1.27.36.87.36 1.78.37-4.6.36-.03.36-1.04.36 3.99.36 4.93.37-2.28.36-3.49.36-.67.36-2.05.36 2.08.37 1.58.36 5 .36-4.87.36-.13.37.17.36-.04.36.11.36 1.51.36-2.62.37.37.36-2.55.36 3.02.36-2.32.36 2.12.37 1.94.36-.8.36-3.86.36 2.61.36-.57.37.84.36 4.03.36 1.95.36-7.49.37 3.83.36-3.83.36 3.59.36-3.82.36 2.85.37-2.85.36-2.22.36 4.23.36-2.05.36 2.19.37 2.45.36.3.36-1.75.36-2.14.36.43.37-3.09.36 5.04.36-6.68.36.67.37 4.6.36 1.04.36 1.21.36 1.24.36.3.37-2.95.36-1.61.36 2.92.36-.78.36-.06.37-3.83.36-.87.36 2.31.36.81.36.77.37-.67.36-.6.36-1.14.36-1.82.36 5.71.37.91.36-2.76.36.77.36.91.37-2.48.36 2.98.36-.2.36-2.51.36-1.11.37-3.09.36 7.02.36-2.52.36-1.08.36 1.01.37 4.1.36-3.66.36-2.12.36 2.45.36 3.96.37-6.14.36 1.07.36-.7.36.1.37-.8.36 4.76.36-3.09.36-3.69.36 3.69.37 1.45.36-2.55.36 1.61.36 2.04.36.78.37-7.29.36 5.91.36.77.36-1.24.36-3.09.37 5.24.36-2.42.36-4.03.36 6.89.36-3.26.37 2.38.36-6.61.36 4.7.36-1.18.37 4.37.36-7.05.36 2.42.36 6.07.36-5.97.37 3.25.36-3.46.36 2.69.36-3.42.36.53.37 2.02.36 4.06.36-4.8.36.4.36.98.37-5.04.36 1.88.36 2.11.36 2.25.37-2.11.36-2.48.36-2.52.36 4.36.36-2.62.37.37.36 4.43.36-1.98.36.44.36 2.08.37-.13.36-.81.36 1.88.36-5.34.36 1.08.37 1.21.36.9.36.64.36 1.64.36-1.67.37-7.56.36 4.64.36 2.41h.36l.37-6.04.36 8.06.36-.98.36-2.88.36 2.28.37-4.13.36-1.61.36 6.14.36-2.15.36 1.61.37-5.13.36 7.05.36-5.57.36-1.15.36 8.46.37-4.96.36-4.33.36 3.42.36-1.54.37 4.56.36-5.71.36 5.21.36-.71.36-2.15.37 1.61.36 1.95.36 1.04.36-2.25.36-2.15.37-5.67.36 6.51.36-3.82.36.9.36 4.87.37-.97.36 2.92.36-3.96.36.43.37-.43.36-3.33.36 4.5.36-5.97.36 2.45.37 5 .36-.2.36 1.71.36-4 .36-.1.37-1.67.36.83.36-4.96.36 4.49.36-.16.37-1.48.36 5.3.36-.23.36-2.99.36 1.28.37.47.36-3.96.36 4.63.36-1.14.37-.24.36 2.02.36-5.91.36 6.58.36-1.78.37-3.73.36 5.68.36-2.76"/><use xlink:href="#34fca__c" transform="matrix(3.75 0 0 3.75 354.25 126.88)"/><use xlink:href="#34fca__c" transform="matrix(3.75 0 0 3.75 89.85 7.51)"/></g><text stroke-linecap="round" stroke-linejoin="round" color="#000" font-family="KaTeX_Main" font-size="8" transform="translate(110.4 25.11)"><tspan>AVLTopDown</tspan></text><g fill="none" stroke="currentColor" stroke-linecap="round" stroke-linejoin="round" color="#000"><path stroke="#29C3F6" stroke-dasharray="2.5,4.0" d="M74.9 22.51h29.9M28 55.75l.36 6.38.36.4.37-4.76.36 8.69.36-4.3.36 4.27.36-4 .37-1.07.36 5.47.36-1.81.36-1.85.37 1.88.36.07.36-1.75.36.07.36.23.37-2.68.36 1.54.36-1.1.36-.47.36 4.39.37-7.38h.36l.36 7.08.36 2.18.36-3.89.37 1.78.36-1.95.36.94.36-3.42.36 1.91.37-1.17.36.8.36-1.85.36 2.69.37 2.62.36-1.08.36-1.2.36 3.79.36-1.98.37-3.93.36.81.36-.31.36 3.93.36-.7.37-6.65.36 1.54.36 6.72.36-6.88.36 6.74.37 62.14.36-1.61.36 2.55.36-2.35.37-2.28.36 1.34.36 4.4.36-3.16.36.07.37 3.59.36-1.68.36-1.98.36 2.08.36-1.37.37 1.47.36.27.36-3.69.36 5.77.36 1.78.37-5.13.36 3.39.36-3.76.36 2.25.37-4.94.36 3.02.36 2.42.36-2.52.36-.1.37-4.33.36 2.69.36 8.76.36-6.45.36 1.31.37-3.46.36 4.23.36-1.47.36-.04.36.54.37-7.72.36 5.94.36-1.31.36 2.39.36 2.65.37-.84h.36l.36-.87.36-3.29.37 3.89.36-2.75.36-.84.36-4.63.36 7.68.37-.9.36-5.37.36 2.88.36 2.08.36 3.83.37-7.28.36 6.44.36-3.26.36 2.82.36-.9.37 1.84.36-4.02.36 4.29.36-6.24.37 3.46.36-1.75.36 2.05.36 3.15.36-6.61.37-.74.36 2.96.36-4.5.36 7.25.36-2.01.37 3.49.36-2.52.36-4.8.36 3.62.36.47.37-3.15.36 1.71.36-6.51.36 4.19.36 3.06.37 1.11.36.3.36 1.98.36-.64.37-.9.36 2.65.36-4.97.36 1.11.36 3.49.37-1.08.36-3.76.36 1.65.36-2.32.36 1.28.37.1.36 1.51.36-4.77.36 5.47.36-2.85.37 2.85.36-.94.36-3.49.36-1.14.37 6.38.36-2.82.36 3.89.36-4.19.36 1.88.37-3.06.36 2.15.36-1.48.36.71.36-6.45.37 6.82.36-1.81.36.73.36.27.36 3.36.37-3.56.36 2.25.36-1.27.36-.54.36.13.37-1.1.36 4.66.36-1.48.36-2.85.37 2.52.36-2.62.36-2.52.36 5.14.36-3.96.37 5 .36-.03.36-1.55.36-.44.36-.77.37-3.49.36 9.74.36-2.76.36-4.09.36 1.95.37-6.32.36 3.7.36 1.24.36-.84.37-.94.36-.2.36 2.99.36 3.25.36-10.37.37 4.8.36 5.37.36-11.55.36 8.66.36.1.37 1.72.36-1.18.36 1.45.36 1.51.36-4.94.37-2.35.36.3.36.31.36 1 .37 4.64.36-2.32.36-4.77.36 2.69.36-5.17.37 4.13.36 2.21.36 2.55.36-8.19.36 4.47.37-.61.36-.9.36 7.15.36-3.29.36 1 .37-4.73.36.71.36-1.88.36-.78.36 1.01.37-1.31.36 7.52.36.91.36-5.27.37.47.36 5.54.36-1.92.36-3.29.36-3.96.37 7.62.36-6.24.36-.84.36 5.87.36-2.35.37.71.36 4.87.36-1.88.36-.37.36-4.57.37-1 .36 3.39.36-.54.36.13.37 1.18.36-2.96.36 3.36.36.17.36-3.19.37-1.01.36 3.33.36-6.08.36 3.22.36-1.14.37 2.62.36 1.21.36-1.31.36.84.36-1.28.37 1.48.36-3.46.36-2.18.36 3.89.36 2.92.37-2.28.36-2.48.36 4.36.36-.44.37-2.04.36 1 .36.27.36 1.35.36.9.37-2.15.36 1.95.36-3.93.36-1.27.36.8.37 3.26.36 3.22.36-3.86.36.54.36-3.96.37 2.58.36 3.73.36.03.36-2.31.37-1.38.36 1.27.36 3.26.36-7.15.36 2.69.37-1.68.36.5.36 6.82.36-4.74.36 2.99.37-2.25.36-3.56.36.98.36-.81.36 3.39.37-.57.36-1.68.36 4.8.36-4.06.36-8.06.37 11.35.36-2.05.36-1.41.36-4.86.37 2.92.36 5.27.36-3.97.36-2.55.36.21.37 5.13.36-2.85.36 1.17.36 1.41.36-6.81.37 4.4.36.77.36.64.36 1.37.36-3.62.37 2.98.36-1.1.36-7.36.36 5.41.37-.74.36-.74.36 1.65.36 4.36.36-4.5.37 1.88.36-4.66.36 1.17.36 1.41.36.2.37 3.59.36-4.29.36-4.27.36 9 .36-2.01.37 2.45.36-2.65.36-.47.36-1.28.37 4.33.36-1.61.36-1.68.36-1.74.36 2.75.37.77.36-.57.36 1.31.36.23.36-5.5.37 7.11.36-6.1.36 2.11.36 1.44.36-.5.37-2.08.36 2.52.36-3.02.36 2.92.36.94.37-6.85.36 1.44.36-.27.36 3.29.37 2.02.36-1.51.36 4.49.36-2.68.36.4.37-1.64.36 3.82.36-7.99.36 4.6.36-1.71.37-4.03.36 2.86.36 4.06.36-1.65.36.44.37.23.36 4.87.36-7.99.36.04.37 4.63.36-.34.36-2.11.36-6.85.36 4.57.37 5.43.36-5.13.36 2.78.36-1.14.36-.33.37-2.15.36 2.15.36-.98.36 5.04.36-3.8.37-5.33.36 3.96.36 3.05.36-3.25.36 3.09.37-.98h.36l.36 3.53.36-2.12.37-3.72.36-2.59.36 3.42.36-5.6.36 6.68.37.1.36.94.36.54.36-2.86.36 4.33.37-5.87.36 1.04.36-3.12.36 4.6.36 4.53.37-6.08.36 2.89.36-3.86.36 8.9.37-2.76.36-5.13.36.84.36-1.92.36-1.41.37 3.26.36 2.95.36-3.89.36-1.21.36 4.77.37 1.84.36-3.45.36 2.35.36-4.4.36 3.52.37-7.58.36 3.35.36-.1.36 3.36.37-5.47.36 1.88.36.47.36 2.72.36 2.11.37-4.56.36 3.96.36-3.73.36 4.63.36-3.29.37-2.85.36 6.68.36-3.49.36.7.36 2.66.37-2.42.36-.84.36-1.68.36 4.8.36-1.37.37-6.55.36 4.83.36.57.36-2.31.37 4.66.36-2.51.36 2.58.36-5.03.36 5.7.37-6.14.36.3.36-.07.36 5.85.36-2.05.37-3.69.36 5.97.36-6.41.36 4.33.36-2.35.37-3.46.36 3.59.36.61.36-.84.37 3.02.36.44.36-4.77.36 5.1.36-5.57.37 3.42.36-4.8.36 6.45.36-4.03.36 2.48.37-.2.36-2.98.36.67.36 2.11.36-.57.37.91.36-4.27.36 5.41.36-.91.36-.97.37 1.17.36-3.25.36.17.36 3.15.37-3.09.36 2.72.36-4.56.36 2.31.36-1.54.37 4.53.36-6.41.36 5.74.36.4.36.61.37-6.75.36 8.83.36-5.61.36 2.95.36-3.49.37-2.14.36 2.85h.36l.36 4.63.37-1.54.36-2.32.36-1.98.36 1.91.36.41.37.8.36 5.54.36-10.2.36 4.46.36.3.37-2.35.36 1.85.36.47.36 2.58.36-5.43.37.77.36.17.36.9.36-3.15.36 5.43.37 1.01.36-5.47.36 2.08.36-1.48.37.81.36.54.36-.51.36 5.17.36-2.95.37-1.51.36 4.53.36-8.59.36.03.36 1.24.37 3.56.36-1.24.36-2.02.36 6.35.36-7.42.37.24.36 2.18.36 1.61.36-2.08.37-2.02.36 4.23.36-4.93.36 1.44.36 4.13.37-4.56.36 1.34.36 5.7.36-6.31.36 4.9.37-3.42.36-1.14.36-.84.36 5.17.36.87.37-.37.36-3.55.36.93.36.74.37-.47.36 2.59.36-.4.36-2.79.36 2.11.37-5.1.36 5.51.36-.61.36-.87.36 2.92.37-4.77.36.81.36 3.05.36.64.36-2.38.37.57.36.3.36-4.66.36 1.44.36 3.93.37-1.28.36-.64.36 2.39.36-5.41.37 3.02.36-.06.36 1.74.36-3.99.36.23.37 2.42.36 1.74.36-4.66.36 1.74.36 2.02.37-3.73.36-.03.36 2.18.36 3.59.36-2.38.37-4.63.36-1.72.36 5.95.36-1.65.37 1.48.36 2.78.36-3.62.36-3.63.36 5.61.37-.47.36 2.28.36.17.36-9.16.36 5.4.37-3.29.36.24.36 3.92.36-.27.36-2.35.37 1.72.36 1.24.36-2.59.36 4.84.36-7.89.37 6.75.36-3.66.36.23.36-.84.37 1.92.36.47.36.9.36-2.92.36 2.82.37-3.15.36 4.56.36-2.58.36 4.23.36-6.52.37 1.98.36 1.85.36-.27.36-.7.36-2.49.37 4.07.36-.14.36-6.21.36 3.39.37 6.04.36-3.19.36-1 .36-1.55.36 1.41.37-2.78.36 1.64.36-1.27.36.87.36 1.78.37-4.6.36-.03.36-1.04.36 3.99.36 4.93.37-2.28.36-3.49.36-.67.36-2.05.36 2.08.37 1.58.36 5 .36-4.87.36-.13.37.17.36-.04.36.11.36 1.51.36-2.62.37.37.36-2.55.36 3.02.36-2.32.36 2.12.37 1.94.36-.8.36-3.86.36 2.61.36-.57.37.84.36 4.03.36 1.95.36-7.49.37 3.83.36-3.83.36 3.59.36-3.82.36 2.85.37-2.85.36-2.22.36 4.23.36-2.05.36 2.19.37 2.45.36.3.36-1.75.36-2.14.36.43.37-3.09.36 5.04.36-6.68.36.67.37 4.6.36 1.04.36 1.21.36 1.24.36.3.37-2.95.36-1.61.36 2.92.36-.78.36-.06.37-3.83.36-.87.36 2.31.36.81.36.77.37-.67.36-.6.36-1.14.36-1.82.36 5.71.37.91.36-2.76.36.77.36.91.37-2.48.36 2.98.36-.2.36-2.51.36-1.11.37-3.09.36 7.02.36-2.52.36-1.08.36 1.01.37 4.1.36-3.66.36-2.12.36 2.45.36 3.96.37-6.14.36 1.07.36-.7.36.1.37-.8.36 4.76.36-3.09.36-3.69.36 3.69.37 1.45.36-2.55.36 1.61.36 2.04.36.78.37-7.29.36 5.91.36.77.36-1.24.36-3.09.37 5.24.36-2.42.36-4.03.36 6.89.36-3.26.37 2.38.36-6.61.36 4.7.36-1.18.37 4.37.36-7.05.36 2.42.36 6.07.36-5.97.37 3.25.36-3.46.36 2.69.36-3.42.36.53.37 2.02.36 4.06.36-4.8.36.4.36.98.37-5.04.36 1.88.36 2.11.36 2.25.37-2.11.36-2.48.36-2.52.36 4.36.36-2.62.37.37.36 4.43.36-1.98.36.44.36 2.08.37-.13.36-.81.36 1.88.36-5.34.36 1.08.37 1.21.36.9.36.64.36 1.64.36-1.67.37-7.56.36 4.64.36 2.41h.36l.37-6.04.36 8.06.36-.98.36-2.88.36 2.28.37-4.13.36-1.61.36 6.14.36-2.15.36 1.61.37-5.13.36 7.05.36-5.57.36-1.15.36 8.46.37-4.96.36-4.33.36 3.42.36-1.54.37 4.56.36-5.71.36 5.21.36-.71.36-2.15.37 1.61.36 1.95.36 1.04.36-2.25.36-2.15.37-5.67.36 6.51.36-3.82.36.9.36 4.87.37-.97.36 2.92.36-3.96.36.43.37-.43.36-3.33.36 4.5.36-5.97.36 2.45.37 5 .36-.2.36 1.71.36-4 .36-.1.37-1.67.36.83.36-4.96.36 4.49.36-.16.37-1.48.36 5.3.36-.23.36-2.99.36 1.28.37.47.36-3.96.36 4.63.36-1.14.37-.24.36 2.02.36-5.91.36 6.58.36-1.78.37-3.73.36 5.68.36-2.76"/><use xlink:href="#34fca__d" color="#29C3F6" transform="matrix(3.75 0 0 3.75 67.83 128.96)"/><use xlink:href="#34fca__d" color="#29C3F6" transform="matrix(3.75 0 0 3.75 89.85 22.51)"/></g><text stroke-linecap="round" stroke-linejoin="round" color="#000" font-family="KaTeX_Main" font-size="8" transform="translate(241.1 10.11)"><tspan>RedBlackBottomUp</tspan></text><g fill="none" stroke="currentColor" stroke-linecap="round" stroke-linejoin="round" color="#000"><path stroke="#F44336" d="M205.6 7.51h29.9M28 97.21l.36 2.95.36 1.75.37.94.36 1.24.36-5.91.36 2.69.36-.14.37-1.91.36.74.36 3.59.36.2.37-1.37.36 3.59.36-4.8.36-2.08.36 6.14.37-5.67.36 5.1.36-6.85.36 3.66.36-.94.37 1.75.36-3.4.36 10.31.36-3.93.36-4.09.37 2.28.36-1.31.36 3.32.36-5.47.36-2.62.37 7.12.36-1.27.36-3.83.36 2.38.37 4.43.36-1.47.36-3.56.36 2.52.36.47.37-2.86.36 2.89.36-3.73.36 3.19.36 1.14.37-2.75.36-1.14.36 2.35.36-4.67.36 5.17.37 50.99.36-5.03.36.37.36 1.04.37-2.79.36-1.17.36-.07.36.27.36.5.37-3.56.36 2.69.36-4.9.36 1.71.36-1.14.37-.04.36-1.74.36.27.36 1.34.36-2.65.37 2.25.36 1.68.36.87.36-2.69.37-7.65.36 5.1.36 1.75.36.87.36-4.67.37-3.05.36 2.38.36 5.51.36.33.36-2.78.37-3.9.36 4.64.36-4.74.36 6.68.36-3.25.37-2.86.36 2.82.36-3.39.36 1.31.36 6.82.37-2.52.36-.17.36 1.78.36-2.75.37 1.41.36 1.31.36-4.57.36.84.36 2.99.37.77.36-1.78.36-3.19.36 5.31.36-5.04.37-3.19.36 2.96.36 5.9.36-3.89.36 5.71.37-3.09.36.27.36-1.41.36-4.03.37 4.7.36-3.46.36 2.15.36 3.12.36-7.48.37.43.36 5.37.36-5.13.36 1.2.36 1.45.37.33.36 2.19.36-6.45.36 2.75.36 1.58.37 1.91.36 1.25.36-1.72.36-1 .36.17.37-2.39.36 1.08.36 3.59.36-1.28.37-.84.36 2.42.36-5.24.36.54.36 2.28.37-2.01.36 1.14.36.74.36 1.88.36-5.51.37 2.42.36.03.36.44.36 4.4.36-1.75.37-7.65.36-.3.36 7.31.36-1.3.37 1.81.36-6.21.36 8.12.36-5.87.36 2.68.37-.6.36-.07.36-4.56.36 3.55.36-3.22.37 1.14.36 3.73.36-.91.36-1.58.36 5.24.37-5.64.36 5.37.36-4.36.36-.17.36 1.91.37 1.45.36-2.32.36.54.36.23.37-3.96.36 8.83.36-4.3.36-.1.36-3.96.37 4.37.36-1.31.36-3.22.36 2.28.36.87.37-3.26.36 1.35.36 3.49.36-5.64.36 2.82.37.17.36-1.08.36 2.79.36-.54.37.17.36 1.31.36-1.04.36 5.47.36-10.71.37 6.55.36 1.04.36-4.74.36 4.3.36-5.3.37 3.62.36-.5.36 3.76.36-3.56.36-3.16.37 2.05.36-2.88.36 3.15.36 1.71.37-3.52.36 1.84.36-4.66.36 1.07.36 4.17.37-4.57.36 5.94.36 1.38.36-4.87.36.37.37 2.92.36-1.64.36 7.45.36-9.67.36 1.11.37-1.28.36 1.55.36.1.36-3.59.36-1.08.37 5.37.36 1.51.36-1.14.36-1.71.37 4.97.36-.2.36-1.62.36-.83.36-3.06.37 3.02.36-4.76.36 5.67.36-1.61.36-.88.37 1.88.36-1.44.36 1.34.36 1.25.36-3.4.37-1.44.36 4.06.36 2.99.36-1.14.37-6.38.36 2.75.36 1.72.36 2.25.36-4.34.37.27.36 1.18.36-.64.36.03.36-1.34.37 1.34.36-3.08.36 3.76.36-.44.36 1.54.37.81.36-4.16.36 2.01.36-2.62.36 2.69.37-.91.36-1.78.36 2.52.36-4.03.37 6.01.36-4.26.36 3.79.36-2.18.36 1.01.37-2.29.36 7.69.36-7.79.36-.54.36 1.31.37 2.19.36.4.36 4.66.36-7.68.36.06.37.81.36-.13.36 2.88.36-4.06h.37l.36 5.27.36-2.52.36-1.84.36.03.37.97.36.24.36 5.5.36-3.52.36-2.62.37-1.54.36 1.68.36 1.24.36.47.36-3.96.37 6.21.36-5.47.36.94.36-3.03.36 1.11.37 6.21.36 4.06.36-7.15.36-3.15.37 3.25.36 3.16.36-3.46.36-3.32.36 5.14.37-1.18.36.24.36-1.95.36.23.36-6.68.37 6.45.36 2.08.36.1.36 2.15.36-9.6.37 6.88.36-2.48.36-4.3.36 6.31.37-2.08.36-1.61.36.1.36.9.36 4.91.37 2.11.36-5.54.36 4.53.36-4.93.36 1.11.37-.04.36-6.17.36 3.79.36.47.36 2.32.37 3.35.36-5 .36 2.38.36-6.11.37-.5.36 5.54.36 4.16.36-5.37.36 2.82.37-.87.36.17.36.06.36-.94.36-1.27.37.1.36-2.18.36 4.86.36-4.39.36.97.37 1.11.36 1.31.36.43.36-1.17.36-.94.37-3.12.36 4.66.36-2.01.36 1.04.37-1.95.36 3.06.36-.88.36 3.03.36 2.08.37-7.82.36 3.55.36-1.51.36 2.22.36-2.92.37 1.04.36 2.42.36.87.36-.47.36-1.81.37-3.29.36.7.36 2.92.36-1.01.37-.63.36 3.45.36-1.44.36-1.34.36-.81.37 3.83.36-1.51.36 1.48.36-3.09.36 2.92.37-3.56.36 2.11.36-3.82.36 2.08.36-4.63.37 2.28.36.87.36-1.84.36 5.63.36-4.49.37 3.49.36-1.41.36 2.85.36-2.75.37-2.52.36 2.92.36-1.54.36 1.17.36 2.15.37-2.38.36 2.62.36-2.79.36-.37.36-2.01.37-.37.36 6.48.36-.17.36-1.71.36 2.08.37-3.13.36.14.36-.17.36 2.12.37-2.12.36-2.21.36.83.36-.43.36-2.15.37 7.55.36-3.15.36 1.11.36 4.69.36-7.04.37.8.36 1.11.36 2.92.36.37.36-1.24.37-5.64.36 1.1.36-4.83.36 7.12.37-2.02.36-.16.36-.41.36-.27.36 4.07.37.23.36 2.02.36-5.78.36 5.34.36-7.29.37-.57.36 6.52.36-2.56.36-2.41.36 5.17.37-4.97.36 4.09.36-1.74.36-.54.36 5.04.37-4.47.36-2.98.36 3.72.36-4.73.37 5.07.36-1.31.36.13.36-4.09.36.74.37.57.36.36.36 7.63.36-3.76.36-2.19.37.47.36 2.39.36-2.49.36-.67.36.34.37-.88.36 2.22.36-4.67.36 1.82.37 7.08.36-6.04.36 4.39.36-2.65.36-1.17.37 2.01.36-2.65.36 6.11.36-6.58.36.97.37.74.36 3.96.36-6.38.36 6.11.36-6.88.37 2.42.36-.13.36-.71.36 1.07.36-4.22.37 6.81.36-.84.36-1.28.36 2.15.37-4.36.36 1.27.36 1.35.36 3.46.36-4 .37 1.04.36-2.65.36 2.35.36-1.44.36 1.77.37.78.36-.57.36-2.56.36.78.36 1.24.37-4 .36 2.05.36-2.65.36 3.89.37 2.25.36-3.66.36 2.32.36-5.3.36 2.75.37 2.52.36 5.67.36-8.02.36 3.72.36-2.51.37-1.28.36 1.24.36-.43.36 1.77.36-1.67.37-2.76.36 7.39.36-7.79.36-1.04.36 4.43.37 5.57.36-8.82.36.53.36-.9.37 5.47.36-3.12.36 4.7.36 2.92.36-8.33.37 2.48.36 1.95.36-7.55.36 5.74.36-.74.37.91.36-1.08.36-4.83.36 6.41.36-5.03.37.8.36.74.36 6.91.36-5.37.37 7.29.36-5.78.36-2.41.36-.98.36 2.55.37-7.15.36 6.82.36 5.4.36-1.98.36.37.37-3.89.36.13.36-1.41.36-.13.36 2.42.37.33.36.81.36 1.81.36-4.16.37-6.31.36 7.68.36 4.57.36-7.22.36 4.6.37-3.39.36 2.01.36.51.36.33.36-.87.37-3.52.36 2.92.36 3.08.36-3.02.36 1.75.37-5.44.36 5.64.36-5.1.36 2.78.36 4.17.37-.67.36-5.78.36 3.12.36-2.15.37-1.84.36 5.84.36.94.36-5.88.36.44.37.81.36 3.92.36-5.84.36 3.9.36 2.92.37-5.31.36 1.48.36 4.03.36.27.36-6.15.37 1.92.36-1.78.36 4.03.36-2.15.37-1.81.36 6.98.36-8.86.36.9.36 3.8.37-2.82.36 4.93.36-1.07.36-1.88.36-.31.37-2.14.36 3.42.36-1.07.36-.21.36 1.11.37-3.15h.36l.36.87.36.7.36-.5.37 1.44.36-1.91.36 3.66.36-2.79.37 2.79.36 1.41.36-.47.36-3.96.36-3.12.37 1.78.36 6.61.36.23.36-2.35.36-4.09.37 6.98.36-2.31.36-.64.36-3.96.36-.94.37 1.54.36 3.66.36-6.04.36-.94.37 6.85.36-2.42.36-5.57.36 1.71.36 3.09.37 2.58.36-4.56.36 3.55.36 3.29.36 1.62.37-8.13.36-.37.36-.33.36 4.36.36.4.37-2.41.36-3.9.36 3.29.36-.74.36.47.37 4.54.36-1.78.36-2.62.36 1.58.37 1.14.36-3.9.36 2.96.36 1.47.36-1.94.37.1.36-1.61.36 1.94.36.37.36-1.17.37-2.55.36 3.45.36-4.53.36 2.72.36 2.32.37-1.45.36 3.97.36-.24.36-2.62.37 3.29.36-4.83.36 2.95.36-3.76.36 2.69.37-1.48.36.34.36 1.71.36-3.8.36 4.27.37-6.75.36 4.6.36-2.28.36 6.14.36-2.58.37-4.77.36.5.36-.43.36 4.12.37-1.91.36 3.39.36.71.36-2.12.36-2.38.37-1.71.36 4.83.36-1.28.36.78.36-5.31.37 3.59.36-.1.36 2.22.36-1.31.36-1.78.37 3.36.36-3.76.36-1.75.36 5.34.36 1.28.37-.64.36 1.01.36-2.39.36-2.21.37-.1.36-.14.36 4.06.36 1.51.36-1.2.37-3.83.36-3.29.36 4.16.36-3.93.36 9.07.37-5.21.36 2.52.36-.57.36-1.24.36-2.18.37.33.36.37.36 2.08.36-.87.37-2.52.36 4.2.36-5.14.36 2.65.36 1.08.37.27.36.17.36-1.68.36 3.79.36-4.2.37-.9.36 6.31.36-5.57.36-2.82.36 2.21.37 4.03.36 4.23.36-6.58.36-.47.36 5.44.37-7.02h.36l.36-.9.36 4.06.37 2.11.36-3.69.36 2.89.36 2.28.36-2.65.37-1.21.36-2.52.36 4.63.36-4.59.36 2.95.37.67.36-.64.36 3.63.36-4.84.36-1.54.37.47.36.37.36-.74.36 1.71.37 3.26.36-3.32.36-3.9.36 4.63.36-3.35.37 2.68.36-.2.36.71.36-2.45.36 1.94.37.94.36-1.91.36-.34.36-.84h.36l.37 2.66.36 3.56.36-3.46.36 1.11.36 1.61.37-2.25.36.7.36 2.42.36-1.21.37.07.36-3.36.36 2.35.36 1.78.36-4.26.37-1.25.36 2.35.36.51.36-2.79.36 1.88.37 1.41.36-1.17.36.47.36-2.12.36 5.1.37-6.31.36.81.36 5.37.36-8.53.37 1.18.36 3.22.36 2.52.36-3.43.36.68.37-.37.36 3.49.36.8.36-.67.36-6.95.37 2.59.36 6.14.36-8.36.36 5.54.36-5.27.37 1.98.36 3.36.36-3.06.36 3.29.37.74.36-7.11.36 1.74.36-.03.36 2.38.37 3.86.36-3.12.36 1.14.36-3.42.36 4.13.37-5.37.36.97.36.23.36 1.88.36-.47.37 1.25.36 3.45.36-5.77.36 1.01.36 3.55.37 1.11.36-1.78.36-5.67.36 3.09.37 3.19.36-.24.36-8.76.36 4.26.36 5.14.37-5.2.36 8.29.36-4.87"/><use xlink:href="#34fca__a" color="#F44336" transform="matrix(3.75 0 0 3.75 125.4 139.4)"/><use xlink:href="#34fca__a" color="#F44336" transform="matrix(3.75 0 0 3.75 220.55 7.51)"/></g><text stroke-linecap="round" stroke-linejoin="round" color="#000" font-family="KaTeX_Main" font-size="8" transform="translate(241.1 25.11)"><tspan>RedBlackTopDown</tspan></text><g fill="none" stroke="currentColor" stroke-linecap="round" stroke-linejoin="round" color="#000"><path stroke="#3B75EA" d="M205.6 22.51h29.9M28 94.99l.36 3.56.36.44.37 1.01.36 2.24.36-5.06.36-.27.36 2.55.37-3.43.36-.77.36 5.37.36-.16.37 1.71.36.64.36-4.91.36-.1.36 3.8.37-5.27.36 5.37.36-7.35.36 1.81.36 2.05.37 1.14.36-3.8.36 9.47.36-4.46.36-1.98.37 3.12.36-2.02.36-.3.36-2.05.36-2.61.37 7.41.36-1 .36-5.48.36 3.73.37 3.76.36-1.58.36-3.09.36.31.36 2.25.37-4.13.36 3.35.36-3.32.36 3.63.36 1.78.37-4.87.36.7.36 1.41.36-3.86.36 6.51.37 49.18.36-5 .36-.84.36.5.37-3.02.36-.57.36.07.36-2.62.36 3.06.37-2.12.36.74.36-4.87.36 3.39.36-1.04.37-2.72.36-.1.36.78.36 1.04.36.13.37.2.36 2.45.36.71.36-.41.37-7.38.36 1.44.36 4.33.36 1.11.36-5.37.37-2.89.36 1.35.36 6.14.36-2.65.36-.07.37-6.01.36 3.83.36-1.88.36 7.95.36-5.7.37-2.32.36 1.11.36-.84.36 2.55.36 5.81.37-2.18.36.13.36-1.88.36-1.01.37 1.75.36.8.36-4.26.36-.8.36 5.03.37 1.44.36-3.32.36-2.62.36 5.94.36-3.02.37-5.1.36 2.92.36 5.47.36-4.56.36 4.13.37-3.06.36 1.21.36.47.36-2.45.37 1.74.36-2.21.36-.27.36 5 .36-10.67.37 1.64.36 7.96.36-5.07.36 2.45.36 1.34.37-1.54.36.77.36-2.99.36-.03.36 3.62.37 1.31.36.91.36-2.95.36-.84.36.27.37-2.49.36.91.36 3.69.36-1.81.37.77.36.4.36-3.12.36-2.28.36 4.4.37.43.36 1.01.36.8.36-.3.36-2.55.37-.6.36-.04.36-2.65.36 4.84.36 2.11.37-4.56.36-1.88.36 5.6.36-3.39.37 3.42.36-7.58.36 7.22.36-5.17.36 3.02.37.37.36.67.36-5.31.36 2.59.36-2.96.37 3.33.36 1.44.36-2.25.36.88.36 4.86.37-3.82.36 2.21.36-3.72.36-.21.36 1.45.37 1.41.36.57.36-.41.36.78.37-3.59.36 5.37.36-2.56.36.84.36-6.31.37 3.86.36.07.36-3.09.36 4.94.36-1.78.37-4.16.36 3.69.36 2.48.36-5.34.36 2.82.37-1.17.36 2.11.36-.9.36 2.35.37-1.11.36 3.09.36-4.6.36 5.87.36-11.61.37 7.99.36 3.76.36-6.04.36 3.92.36-5.3.37 3.52.36 3.03.36.06.36-7.21.36-1.41.37 4.59.36.17.36-2.21.36 2.95.37-3.29.36 2.85.36-4.76.36 1.58.36 3.08.37-6.11.36 7.83.36.87.36-6.38.36.87.37 1.85.36 1.71.36 3.53.36-8.06.36.3.37 2.96.36-1.38.36.74.36-3.59.36 1 .37 5.41.36 1.64.36-3.09.36-2.65.37 7.22.36-5 .36.27.36 2.38.36-6.04.37 4.66.36-3.76.36 1.15.36.7.36.4.37-2.08.36 1.01.36 3.52.36-.67.36-3.46.37.54.36 4.9.36 1.14.36-3.35.37-3.7.36.88.36 3.72.36.41.36-4.64.37 2.02.36-.61.36-.2.36 1.08.36-.91.37.87.36-.8.36 4.63.36-2.28.36-2.72.37 3.46.36-5.44.36 2.52.36-2.66.36 5.37.37-6 .36 2.82.36 1.4.36-.67.37 4.57.36-6.58.36 4.7.36-2.52.36 1.51.37-4.93.36 10.24.36-7.32.36-2.39.36.78.37 3.76.36-1.18.36 2.25.36-3.73.36-.77.37 3.16.36-2.55.36 3.52.36-4.77.37 2.45.36 1.45.36-2.85.36-.21.36-.84.37 3.93.36-2.35.36 6.01.36-4.06.36-.3.37-2.35.36 1.68.36 4.96.36-7.31.36-.54.37 7.15.36-6.88.36-1.28.36-.94.36 2.65.37 6.48.36 2.35.36-6.48.36-1.24.37-1.11.36 5.74.36-2.55.36-5.1.36 4.3.37-.14.36 1.61.36-4.33.36 3.13.36-4.97.37 1.37.36 3.43.36-.44.36 1.68.36-6.61.37 6.07.36-5.37.36-4.6.36 8.73.37-2.92.36.47.36-.7.36 3.22.36 2.88.37-.06.36-.88.36 3.03.36-8.23.36 4 .37-.78.36-4.19.36 3.09.36-2.96.36 5.41.37 2.88.36-4.53.36.14.36-1.55.37-1.88.36 2.32.36 5.34.36-6.89.36 5.54.37-2.75.36-2.08.36 3.26.36-1.28.36-1.75.37.58.36-4.3.36 6.41.36-2.48.36-3.29.37 5.6.36.54.36-1.88.36 1.07.36-1.1.37-2.82.36 1.94.36-2.98.36 5.3.37-3.49.36 5.2.36-3.15.36 1.98.36 2.72.37-5.68.36 2.39.36-3.16.36 1.78.36-1.68.37 4.13.36-4.93.36 4.66.36.07.36-3.02.37-1.18.36.57.36 4.03.36-4.5.37.57.36 4.64.36 1.34.36-4.13.36-1.17.37 2.65.36-.64.36-.24.36-1.47.36 4.03.37-5.68.36 2.82.36-.13.36-1.51.36-1.24.37.53.36-.64.36-.3.36 4.94.36-4.74.37-.2.36 3.33.36 1.04.36-.71.37-3.39.36 2.08.36.71.36 2.01.36.17.37-2.95.36 1.27.36.27.36-2.99.36-1.48.37.47.36 3.53.36 1.88.36-.97.36-.27.37-1.65.36-2.01.36 4.76.36-1.1.37-3.36.36.03.36 1.11.36-1.17.36.1.37 3.72.36 2.29.36-2.02.36-1.41.36-1.27.37-.14.36 2.72.36 2.02.36-.07.36.6.37-6.27.36 1.14.36-3.76.36 6.74.37-3.89.36.17.36 1.54.36-.67.36.07.37 3.76.36 2.92.36-5.44.36 1.38.36-3.19.37-2.52.36 5.5.36-2.88.36.1.36 3.96.37-8.63.36 6.68.36-.9.36-1.14.36 3.99.37-1.04.36-3.16.36-.67.36-.8.37 3.19.36.53.36 1.58.36-6.48.36 2.65.37.81.36-1.41.36 5.03.36-2.18.36-.5.37-.5.36 2.98.36-3.49.36-1.37.36 1.41.37-3.26.36 1.48.36.43.36-2.82.37 8.9.36-6.61.36 5.84.36-.47.36-6.05.37 5.14.36-5.03.36 10.2.36-10.37.36.23.37 1.75.36 5.94.36-7.69.36 6.85.36-6.98.37 5.2.36-4.66.36 1.51.36.43.36-1.07.37 2.72.36-2.72.36 2.08.36 2.99.37-3.7.36-.4.36 1.01.36 5.74.36-6.92.37 3.8.36-4.33.36 3.69.36-2.55.36 1.27.37-2.41.36 3.49.36-3.56.36 2.79.36 1.98.37-6.92.36 2.59.36-4.33.36 6 .37 3.06.36-3.63.36 1.72.36-5.54.36 1.98.37 2.38.36 2.55.36-5.44.36 3.26.36-.91.37-3.66.36 1.35.36 2.08.36.33.36.94.37-2.35.36 6.05.36-7.52.36-2.25.36 3.56.37 6.21.36-9.27.36 2.62.36-4.53.37 8.83.36-3.9.36 3.19.36 1.75.36-5.51.37 3.09.36.4.36-5.54.36 5.74.36-2.08.37.84.36-1.24.36-3.59.36 2.52.36-1.41.37.84.36.5.36 5.24.36-3.76.37 3.79.36-2.35.36-3.05.36-1.28.36 1.85.37-6.08.36 7.22.36 5.87.36-3.12.36 1.01.37-4.1.36-.03.36-3.29.36 3.36.36.23.37-.54.36 1.68.36 4.84.36-3.03.37-11.95.36 10.07.36 2.35.36-3.92.36 1.04.37.74.36 1.24.36-3.46.36.44.36 1 .37-1.51.36.17.36 1.68.36.67.36 1.14.37-6.54.36 5.6.36-2.58.36-.84.36 7.75.37-2.95.36-6.95.36 5.07.36-1.21.37-3.26.36 4.1.36 1.41.36-5.14.36.41.37 3.25.36 3.83.36-6.04.36 4.66.36 2.39.37-9.2.36 5.64.36.53.36 3.26.36-7.35h.37l.36 1.21.36 1.07.36-2.41.37 4.53.36 2.58.36-5.03.36-2.15.36 4.03.37-5.24.36 7.92.36-1.58.36-1.44.36.74.37-2.42.36-.2.36.03.36-.83.36 1.91.37-3.49.36 1.31.36-.61.36 2.32.36-.81.37.47.36-2.48.36 4.93.36-3.69.37 3.29.36 1.68.36-.44.36-3.76.36-2.25.37 2.42.36 4.06.36.88.36-1.82.36-6.51.37 6.71.36.84.36-3.52.36-2.25.36.47.37 3.32.36 2.52.36-8.9.36-.26.37 8.19.36-.31.36-7.98.36 2.21.36.67.37.2.36.44.36-.74.36 8.36.36-3.99.37-6.01.36.9.36-1.04.36 4.87.36-.3.37-2.18.36-1.45.36.67.36.1.36.47.37 6.01.36-3.66.36-4.12.36 4.16.37 1.21.36-2.76.36 2.89.36-.44.36-2.95.37.57.36-.8.36 3.96.36-1.95.36-.87.37-3.46.36 3.66.36-4.16.36 2.28.36 4.63.37-2.79.36 4.64.36-.94.36-1.25.37 1.62.36-2.99.36 1.21.36-4.27.36 5.21.37-4.13.36-2.02.36 2.86.36-2.15.36 4.66.37-7.95.36 6.75.36-3.6.36 5.41.36-.4.37-4.97.36 2.25.36-1.38.36 1.21.37-3.02.36 7.69.36 1.04.36-5.74.36-.47.37-1.58.36 1.91.36.27.36-.2.36-1.85.37 2.12.36-.74.36 1.04.36 4.09.36-4.8.37 4.37.36-2.92.36-4.1.36 1.58.36 2.65.37 1.65.36.37.36-6.05.36.1.37 1.62.36.23.36 2.82.36-2.72.36 3.53.37-2.82.36-3.83.36 3.19.36-3.12.36 9.7.37-1.98.36-.61.36-1.24.36-.27.36-1.74.37-2.25.36 3.05.36-1.78.36-.33.37 1.34.36-.33.36-3.13.36.2.36 2.09.37.4.36.1.36.67.36 1.14.36-.43.37-2.22.36 6.34.36-2.38.36-9.9.36 6.01.37 1.58.36 6.84.36-8.89.36-.44.36 7.12.37-6.11.36 1.91.36-1.91.36 1.21.37 2.85.36-4.33.36 1.07.36 3.29.36-2.45.37 2.32.36-2.52.36 2.59.36-4.27.36 3.39.37-2.61.36 1.61.36 1.57.36-3.29.36-1.07.37-1.07.36.97.36 2.15.36 2.31.37.37.36-.94.36-6.11.36 5.01.36-4.4.37 2.48.36.94.36 2.39.36-3.29.36.77.37-3.49.36 3.35.36-.63.36-1.98.36.06.37 4.27.36 1.98.36-1.82.36.17.36 2.25.37-3.89.36-.44.36 1.85h.36l.37 1.17.36-2.68.36 3.02.36.53.36-2.51.37-2.19.36 1.68.36 1.18.36-4.87.36 6.92.37-.58.36-2.55.36 2.55.36-4.53.36 4.6.37-5.1.36.3.36 4.37.36-6.05.37 2.32.36 1.11.36 2.31.36-3.89.36.7.37-1.94.36 4.93.36-.03.36-2.22.36-6.27.37 3.99.36 8.12.36-8.56.36 4.64.36-1.55.37-.6.36 1.14.36-1.24.36-.47.37.9.36-2.78.36 2.85.36-2.79.36 4.64.37 1.27.36-2.95.36 2.08.36-3.96.36 5.44.37-8.03.36 4.74.36-3.59.36 5.94.36-3.8.37 3.76.36 1.58.36-5.57.36.54.36 4.33.37.57.36-4 .36-.9.36-.1.37-.74.36 4.39.36-8.29.36 6.88.36-.7.37-3.46.36 9.03.36-4.66"/><use xlink:href="#34fca__b" color="#3B75EA" transform="matrix(3.75 0 0 3.75 182.98 135.24)"/><use xlink:href="#34fca__b" color="#3B75EA" transform="matrix(3.75 0 0 3.75 220.55 22.51)"/></g><path fill="none" d="M28 45.01V162.5M371.99 45.01H28" color="#000"/></svg>