<svg xmlns="http://www.w3.org/2000/svg" xmlns:xlink="http://www.w3.org/1999/xlink" viewBox="0 0 400 200"><path fill="none" d="M0 0h400v200H0z"/><defs><path id="a8b9a__b" stroke="currentColor" stroke-width=".267" d="M-1 0h2M0-1v2"/><path id="a8b9a__c" stroke="currentColor" stroke-width=".267" d="m-1-1 2 2m0-2-2 2"/><path id="a8b9a__d" stroke="currentColor" stroke-width=".267" d="M-1 0h2M0-1v2m-1-2 2 2m-2 0 2-2"/><path id="a8b9a__a" stroke="currentColor" stroke-width=".267" d="M0 1.33 1.265.411.782-1.067l-1.564-.009-.483 1.487z"/></defs><path fill="none" stroke="#CCC" stroke-linecap="round" stroke-linejoin="round" stroke-width=".1" d="M46.1 162.5V45.01" class="a8b9a__gridline" color="#000"/><g fill="none" stroke-linecap="round" stroke-linejoin="round" stroke-width="0" color="#000"><path d="M46.1 162.5V155m0-109.99v7.5"/><text fill="#000" font-family="KaTeX_Main" font-size="8" text-anchor="middle" transform="translate(46.1 172.6)"><tspan> 1</tspan></text></g><path fill="none" stroke="#CCC" stroke-linecap="round" stroke-linejoin="round" stroke-width=".1" d="M82.31 162.5V45.01" class="a8b9a__gridline" color="#000"/><g fill="none" stroke-linecap="round" stroke-linejoin="round" stroke-width="0" color="#000"><path d="M82.31 162.5V155m0-109.99v7.5"/><text fill="#000" font-family="KaTeX_Main" font-size="8" text-anchor="middle" transform="translate(82.31 172.6)"><tspan> 2</tspan></text></g><path fill="none" stroke="#CCC" stroke-linecap="round" stroke-linejoin="round" stroke-width=".1" d="M118.52 162.5V45.01" class="a8b9a__gridline" color="#000"/><g fill="none" stroke-linecap="round" stroke-linejoin="round" stroke-width="0" color="#000"><path d="M118.52 162.5V155m0-109.99v7.5"/><text fill="#000" font-family="KaTeX_Main" font-size="8" text-anchor="middle" transform="translate(118.52 172.6)"><tspan> 3</tspan></text></g><path fill="none" stroke="#CCC" stroke-linecap="round" stroke-linejoin="round" stroke-width=".1" d="M154.73 162.5V45.01" class="a8b9a__gridline" color="#000"/><g fill="none" stroke-linecap="round" stroke-linejoin="round" stroke-width="0" color="#000"><path d="M154.73 162.5V155m0-109.99v7.5"/><text fill="#000" font-family="KaTeX_Main" font-size="8" text-anchor="middle" transform="translate(154.73 172.6)"><tspan> 4</tspan></text></g><path fill="none" stroke="#CCC" stroke-linecap="round" stroke-linejoin="round" stroke-width=".1" d="M190.94 162.5V45.01" class="a8b9a__gridline" color="#000"/><g fill="none" stroke-linecap="round" stroke-linejoin="round" stroke-width="0" color="#000"><path d="M190.94 162.5V155m0-109.99v7.5"/><text fill="#000" font-family="KaTeX_Main" font-size="8" text-anchor="middle" transform="translate(190.94 172.6)"><tspan> 5</tspan></text></g><path fill="none" stroke="#CCC" stroke-linecap="round" stroke-linejoin="round" stroke-width=".1" d="M227.15 162.5V45.01" class="a8b9a__gridline" color="#000"/><g fill="none" stroke-linecap="round" stroke-linejoin="round" stroke-width="0" color="#000"><path d="M227.15 162.5V155m0-109.99v7.5"/><text fill="#000" font-family="KaTeX_Main" font-size="8" text-anchor="middle" transform="translate(227.15 172.6)"><tspan> 6</tspan></text></g><path fill="none" stroke="#CCC" stroke-linecap="round" stroke-linejoin="round" stroke-width=".1" d="M263.36 162.5V45.01" class="a8b9a__gridline" color="#000"/><g fill="none" stroke-linecap="round" stroke-linejoin="round" stroke-width="0" color="#000"><path d="M263.36 162.5V155m0-109.99v7.5"/><text fill="#000" font-family="KaTeX_Main" font-size="8" text-anchor="middle" transform="translate(263.36 172.6)"><tspan> 7</tspan></text></g><path fill="none" stroke="#CCC" stroke-linecap="round" stroke-linejoin="round" stroke-width=".1" d="M299.57 162.5V45.01" class="a8b9a__gridline" color="#000"/><g fill="none" stroke-linecap="round" stroke-linejoin="round" stroke-width="0" color="#000"><path d="M299.57 162.5V155m0-109.99v7.5"/><text fill="#000" font-family="KaTeX_Main" font-size="8" text-anchor="middle" transform="translate(299.57 172.6)"><tspan> 8</tspan></text></g><path fill="none" stroke="#CCC" stroke-linecap="round" stroke-linejoin="round" stroke-width=".1" d="M335.78 162.5V45.01" class="a8b9a__gridline" color="#000"/><g fill="none" stroke-linecap="round" stroke-linejoin="round" stroke-width="0" color="#000"><path d="M335.78 162.5V155m0-109.99v7.5"/><text fill="#000" font-family="KaTeX_Main" font-size="8" text-anchor="middle" transform="translate(335.78 172.6)"><tspan> 9</tspan></text></g><path fill="none" stroke="#CCC" stroke-linecap="round" stroke-linejoin="round" stroke-width=".1" d="M371.99 162.5V45.01" class="a8b9a__gridline" color="#000"/><g fill="none" stroke-linecap="round" stroke-linejoin="round" stroke-width="0" color="#000"><path d="M371.99 162.5V155m0-109.99v7.5"/><text fill="#000" font-family="KaTeX_Main" font-size="8" text-anchor="middle" transform="translate(371.99 172.6)"><tspan> 10</tspan></text></g><g fill="none" stroke-linecap="round" stroke-linejoin="round" stroke-width="0" color="#000"><path d="M371.99 162.5h-7.5"/><text fill="#000" font-family="KaTeX_Main" font-size="8" transform="translate(378.99 165.1)"><tspan>2.00</tspan></text></g><g fill="none" stroke-linecap="round" stroke-linejoin="round" stroke-width="0" color="#000"><path d="M371.99 142.92h-7.5"/><text fill="#000" font-family="KaTeX_Main" font-size="8" transform="translate(378.99 145.52)"><tspan>2.50</tspan></text></g><g fill="none" stroke-linecap="round" stroke-linejoin="round" stroke-width="0" color="#000"><path d="M371.99 123.34h-7.5"/><text fill="#000" font-family="KaTeX_Main" font-size="8" transform="translate(378.99 125.94)"><tspan>3.00</tspan></text></g><g fill="none" stroke-linecap="round" stroke-linejoin="round" stroke-width="0" color="#000"><path d="M371.99 103.75h-7.5"/><text fill="#000" font-family="KaTeX_Main" font-size="8" transform="translate(378.99 106.35)"><tspan>3.50</tspan></text></g><g fill="none" stroke-linecap="round" stroke-linejoin="round" stroke-width="0" color="#000"><path d="M371.99 84.17h-7.5"/><text fill="#000" font-family="KaTeX_Main" font-size="8" transform="translate(378.99 86.77)"><tspan>4.00</tspan></text></g><g fill="none" stroke-linecap="round" stroke-linejoin="round" stroke-width="0" color="#000"><path d="M371.99 64.59h-7.5"/><text fill="#000" font-family="KaTeX_Main" font-size="8" transform="translate(378.99 67.19)"><tspan>4.50</tspan></text></g><g fill="none" stroke-linecap="round" stroke-linejoin="round" stroke-width="0" color="#000"><path d="M371.99 45.01h-7.5"/><text fill="#000" font-family="KaTeX_Main" font-size="8" transform="translate(378.99 47.61)"><tspan>5.00</tspan></text></g><path fill="none" d="M28 45.01V162.5M371.99 45.01H28" color="#000"/><text stroke-linecap="round" stroke-linejoin="round" stroke-width="0" color="#000" font-family="KaTeX_Main" font-size="10" text-anchor="middle" transform="rotate(-90 57.63 46.13)"><tspan font-weight="bold">Duration </tspan><tspan> in milliseconds</tspan></text><text stroke-linecap="round" stroke-linejoin="round" stroke-width="0" color="#000" font-family="KaTeX_Main" font-size="10" text-anchor="middle" transform="translate(199.99 195.75)"><tspan>Operations / 10</tspan><tspan dy="-5" font-size="8">6</tspan></text><text stroke-linecap="round" stroke-linejoin="round" color="#000" font-family="KaTeX_Main" font-size="8" transform="translate(116 10.11)"><tspan>TreapTopDown</tspan></text><g fill="none" stroke="currentColor" stroke-linecap="round" stroke-linejoin="round" color="#000"><path stroke="#00C853" stroke-dasharray="4.5,2.0,0.5,2.0,0.5,2.0" d="M80.5 7.51h29.9M28 153.65l.36-8.09.36-.69.37 7.15.36-8.33.36 7.54.36-8.35.36-.74.37 7.47.36-8.75.36-.41.36 7.54.37-8.29.36 7.53.36-8.65.36-.55.36 7.76.37-.59.36-.11.36-8.46.36-.18.36-.69.37 7.38.36-.02.36-8.56.36-.49.36-.26.37-.58.36 7.44.36-.05.36-8.62.36-.07.37-.82.36 7.34h.36l.36-.19.37-8.54.36-.43.36-.36.36 6.66.36.59.37-8.64.36-.09.36-.76.36 6.54.36-7.59.37 7.73.36-7.89.36-.43.36 6.26.36-8.32.37-58.24.36 20.64.36 5.86.36 2.94.37 1.74.36-6.67.36 6.7.36.9.36-8.35.37 7.95.36-7.21.36 6.84.36.79.36-.02.37.33.36-7.62.36 5.62.36.34.36-8.21.37 7.19.36-7.91.36 6.74.36.62.37-7.97.36 7.49.36.43.36-.12.36.44.37-8.75.36 8.33.36-7.41.36 6.8.36 1.05.37-8.81.36 7.72.36.78.36.4.36.38.37.09.36-.3.36-6.94.36 6.15.36.15.37-8.3.36 7.98.36-7.31.36 7.03.37.74.36.67h.36l.36-7.27.36 6.29.37.97.36-8.61.36 7.9.36-7.6.36 6.8.37.77.36-8.51.36 8.27.36.67.36.63.37.22.36-8.6.36 7.45.36-7.49.37 6.49.36.44.36-8.01.36 7.54.36.35.37.29.36.15.36.59.36-.39.36-7.68.37 6.29.36.61.36-8.76.36 7.72.36-7.44.37 6.66.36.98.36.41.36.29.36-7.72.37 5.74.36 1.06.36-8.71.36 8.2.37-7.54.36 6.67.36 1.09.36-8.91.36 8.22.37.57.36.34.36.47.36-8.25.36 7.3.37-7.95.36 6.97.36.88.36-8.42.36 7.61.37.33.36-1.32.36-.22.36.61.37.73.36-7.84.36 6.78.36.64.36-8.3.37 7.68.36-7.54.36 6.86.36.97.36.67.37.49.36-7.51.36 6.34.36.63.36-8.71.37 8.49.36-7.37.36 6.43.36-.81.36-8.53.37 8.08.36 1.48.36.19.36.39.37-7.79.36 7.23.36-7.22.36 7.28.36-.1.37-8.65.36 7.91.36.65.36.29.36.17.37.01.36.1.36-8.19.36 7.22.36.56.37-8.75.36 7.67.36-7.28.36 7.11.37.17.36.39.36.35.36-7.61.36 6.79.37.93.36-8.51.36 8.11.36-8.1.36 7.13.37.7.36-8.14.36 8.43.36.63.36.25.37.02.36-8.31.36 7.69.36-7.65.37 7.09.36.61.36-8.65.36 8.17.36.21.37 1.26.36-.05.36.14.36.19.36-8.54.37 7.09.36.77.36-8.96.36 8.55.36-7.52.37 7.04.36.73.36.21.36.29.36-7.65.37 6.57.36.59.36-8.9.36 8.1.37-7.67.36 7.48.36.66.36-8.82.36 8.45.37.77.36.15.36-.27.36-8.88.36 7.65.37-7.07.36 7.28.36.55.36-8.53.36 8.22.37.25.36.13.36.37.36-.13.37.22.36-8.28.36 6.73.36.25.36-8.35.37 8.1.36-8.15.36 8.06.36.37.36.32.37.55.36-7.68.36 6.97.36-.1.36-8.35.37 8.14.36-7.8.36 7.01.36.77.36-8.74.37 8.24.36.33.36.22.36.36.37-9.28.36 8.03.36-7.25.36 6.95.36.21.37-8.44.36 8.44.36.33.36.11.36.65.37-.13.36.44.36-8.34.36 6.86.36.12.37-8.25.36 8.22.36-7.42.36 7.64.37.21.36.94.36.1.36-8.13.36 6.92.37.11.36-8.22.36 8.06.36-7.19.36 6.74.37.55.36-8.88.36 8.45.36.21.36.42.37.29.36-8.75.36 7.37.36-7.67.36 7.28.37.55.36-8.91.36 8.5.36.34.37.38.36.3.36.41.36.24.36-8.32.37 6.8.36.88.36-8.65.36 7.98.36-7.5.37 7.04.36.7.36.31.36-.09.36-7.18.37 6.23.36.64.36-8.32.36 8.09.37-7.6.36 7.51.36-6.79.36 5.88.36.17.37.23.36.72.36.31.36-8.15.36 7.37.37-7.43.36 7.4.36-6.5.36 5.52.36 1.06.37.14.36.08.36.06.36.37.37-.07.36-8.13.36 6.86.36-6.15.36 4.46.37.91.36-7.13.36 7.75.36 1.32.36.5.37.63.36-8.49.36 7.37.36.24.36-8.55.37 7.64.36-7.14.36 7.2.36-6.92.36 6.56.37.66.36.57.36.26.36.28.37-9 .36 8.03.36-8.02.36 8.07.36-6.82.37 5.76.36.79.36.72.36.24.36.02.37.31.36.17.36-8.53.36 7.06.36-6.39.37 5.99.36.86.36-7.81.36 7.26.37.25.36.39.36.51.36-8.27.36 7.1.37-6.74.36 5.45.36 1.49.36-7.8.36 7.16.37-6.65.36 6.44.36.66.36.11.36.54.37-6.72.36 5.5.36.81.36-7.95.36 7.83.37-7.33.36 6.41.36 1.05.36.13.37 1.16.36-.02.36-.16.36.12.36-8.19.37 7.07.36-7.07.36 6.08.36.61.36-8 .37 7.34.36.58.36.36.36.14.36-8.27.37 7.56.36-6.83.36 5.54.36.75.37-7.25.36 7.46.36-7.15.36 6.33.36 1.33.37.74.36.11.36-7.27.36 6.04.36.12.37-7.67.36 7.85.36-7.57.36 6.22.36.79.37.49.36.24.36.36.36.46.37-.43.36-7.98.36 7.26.36-7.24.36 6.41.37.34.36-7.73.36 7.64.36.73.36.31.37.07.36-8.24.36 7.41.36-7.25.36 6.21.37.98.36-7.95.36 7.53.36-6.87.36 6.97.37.64.36.28.36.3.36-7.28.37 5.79.36.93.36-7.98.36 8.1.36-7.87.37 6.48.36.71.36.44.36-.05.36.57.37.33.36-.17.36-7.88.36 7.05.36-7.58.37 6.51.36.7.36-8.2.36 7.49.37.27.36.61.36.29.36-8.28.36 7.59.37-6.64.36 5.9.36.85.36-8.51.36 8.08.37-7.07.36 6.71.36.61.36.64.36.45.37-7.48.36 6.45.36.55.36-8.09.36 7.63.37-6.76.36 6.81.36.99.36.73.37.48.36.13.36-.07.36.15.36-8.42.37 7.77.36-7.8.36 6.59.36.51.36-8.14.37 7.89.36.33.36.63.36.5.36-8.47.37 7.24.36-7.3.36 6.99.36.47.37-8.31.36 8.19.36-7.78.36 7.17.36.98.37.67.36-.08.36-7.31.36 6.69.36.31.37-8.74.36 7.97.36-7.56.36 6.95.36.18.37-.01.36-.12.36.35.36.81.36-.27.37-8.45.36 8 .36-7.34.36 6.23.37 1.23.36-8.5.36 8.17.36.71.36.48.37.61.36-8.48.36 7.8.36-7.77.36 7.01.37.76.36-8.25.36 8.01.36-7.62.36 7.08.37.48.36.3.36.78.36-8.64.37 7.5.36-.11.36-8.68.36 7.61.36-7.48.37 7.21.36.47.36.5.36.24.36-.05.37.65.36.07.36-8.76.36 7.72.36-8.35.37 7.34.36 1.03.36-7.97.36 7.52.37.54.36.46.36.53.36-8.33.36 7.79.37-7.07.36 6.08.36 1.07.36-8.41.36 7.67.37-7.71.36 7.43.36-.07.36 1.21.36-.07.37-7.79.36 6.98.36.24.36-8.48.36 8.03.37-7.58.36 7.16.36 1.05.36.06.37.53.36.36.36-.01.36-.01.36-8.59.37 7.92.36-8.01.36 7.72.36.04.36-8.34.37 8.02.36.37.36.04.36.14.36-9.32.37 7.63.36-7.33.36 7.08.36 1.12.37-9.06.36 8.6.36-7.75.36 6.95.36.95.37.47.36-.17.36-8.06.36 7.21.36.69.37-8.63.36 8.07.36-7.75.36 6.77.36 1.41.37.14.36.69.36-.24.36.08.36-.02.37-8.51.36 7.98.36-7.54.36 6.79.37.69.36-8.42.36 7.67.36.81.36.46.37-.49.36-8.34.36 7.78.36-7.12.36 6.48.37.41.36-8.52.36 8.31.36-7.93.36 7.05.37.7.36.35.36.95.36-7.87.37 6.93.36.44.36-8.75.36 8.43.36-7.96.37 7.43.36.76.36.29.36.44.36.2.37.06.36.53.36-9.26.36 7.89.36-8.21.37 6.99.36-5.93.36 5.59.36 1.31.36.5.37.25.36.11.36-8.61.36 7.96.37-7.47.36 7.15.36-6.32.36 5.44.36 1.11.37-7.54.36 7.03.36.95.36.55.36.61.37-8.25.36 6.82.36.41.36-8.31.36 7.62.37-7.47.36 7.03.36.47.36.56.37 1.04.36.02.36.04.36-.47.36-8.25.37 7.48.36-8.59.36 7.9.36-6.82.36 6.3.37.48.36.96.36.75.36-.37.36-8.44.37 8.09.36-8.11.36 7.44.36-6.41.37 5.63.36.97.36-7.51.36 7.18.36.73.37.44.36.44.36-8.05.36 7.05.36-7.13.37 5.99.36.95.36-7.78.36 8.18.36.17.37.64.36.5.36-.3.36-.07.36-7.26.37 5.36.36 1.01.36-7.96.36 7.52.37-6.69.36 5.86.36.96.36.11.36.34.37-7.02.36 6.05.36.35.36-8 .36 7.93.37-6.93.36 6.13.36.69.36-7.8.36 7.75.37.41.36.58.36.32.36-8.11.37 6.79.36-6.69.36 6.08.36.91.36-7.95.37 7.82.36.7.36.34.36-.06.36.43.37-.31.36-7.4.36 5.52.36 1.42.36-8.14.37 7.29.36-7.24.36 6.96.36.26.36 1.01.37.06.36-7.65.36 6.29.36.43.37-8.42.36 7.66.36-7.31.36 6.78.36 1.02.37-8.07.36 8.18.36.35.36.56.36.39.37-8.18.36 7.09.36-7.11.36 6.29.36.28.37-8.86.36 8.28.36.74.36.78.37.39.36.08.36.28.36-7.77.36 5.84.37 1.52.36-8.05.36 7.7.36-7.41.36 6.43.37.82.36.68.36.42.36-7.28.36 5.8.37 1.02.36-8.39.36 7.49.36-7.42.36 7.3.37-.11.36-7.35.36 7.31.36.66.37.46.36.21.36-8.56.36 7.28.36-7.22.37 7.29.36.33.36-7.9.36 7.55.36.69.37.77.36.36.36-.01.36.32.36-7.79.37 6.43.36.55.36-8.4.36 7.66.37-6.76.36 6.22.36.87.36.48.36.3.37-7.54.36 6.16.36.72.36-8.17.36 8.22.37-7.81.36 7.04.36.37.36-7.73.36 7.69.37.14.36.49.36.45.36-8.44.37 7.37.36-7.34.36 6.42.36.74.36-7.76.37 8.03.36.2.36.27.36.31.36.05.37.37.36-7.62.36 6.78.36.66.36-8.43.37 7.68.36-7.43.36 7.24.36.68.36.16.37-.03.36-7.28.36 6.45.36 1.03.37-8.34.36 7.51.36-6.93.36 6.56.36.96.37-8.09.36 7.99.36.54"/><use xlink:href="#a8b9a__a" color="#00C853" transform="matrix(3.75 0 0 3.75 354.25 85.39)"/><use xlink:href="#a8b9a__a" color="#00C853" transform="matrix(3.75 0 0 3.75 95.45 7.51)"/></g><text stroke-linecap="round" stroke-linejoin="round" color="#000" font-family="KaTeX_Main" font-size="8" transform="translate(116 25.11)"><tspan>TreapFingerTree</tspan></text><g fill="none" stroke="currentColor" stroke-linecap="round" stroke-linejoin="round" color="#000"><path stroke="#3B75EA" d="M80.5 22.51h29.9M28 139.31l.36 7.34.36-8.55.37 7.61.36-8.26.36.25.36 6.88.36-.64.37-.16.36-8.52.36-.58.36-.75.37 7.09.36-.34.36-8.6.36-.17.36-.61.37.03.36 7.07.36-.2.36-8.55.36-.87.37-.43.36 7.14.36.91.36-.2.36-8.37.37-.67.36 7.56.36-8.44.36 7.88.36-9.36.37.17.36 7.44.36-8.09.36-.04.37 7.42.36-8.35.36 7.31.36-8.28.36-.86.37 7.89.36-.22.36-.14.36-8.91.36-.5.37-.63.36 7.85.36.38.36-8.67.36-.53.37-57.9.36 10.1.36 14.16.36-5.28.37 9.52.36 2.21.36.91.36.82.36-8.55.37 8 .36.56.36-8.93.36 8.14.36-8.31.37 7.48.36.3.36.84.36.08.36-.12.37-.29.36-.45.36-9.74.36 8.45.37-8.22.36 7.3.36-6.96.36 6.15.36.54.37.52.36.55.36.3.36-9.1.36 8.22.37-7.72.36 7.39.36-7.02.36 6.57.36.54.37-7.82.36 7.69.36.21.36.93.36.15.37-8.17.36 7.36.36-6.64.36 5.61.37.98.36-7.82.36 7.39.36.66.36.21.37.66.36.18.36.5.36-7.67.36 5.31.37.75.36-7.82.36 7.2.36-7.22.36 6.81.37.6.36.48.36.34.36-6.68.37 5.03.36.68.36-7.85.36 7.7.36-7.46.37 6.5.36.49.36-8.5.36 7.83.36.78.37.45.36.35.36-9 .36 7.77.36-7.59.37 6.58.36.63.36-8.24.36 7.84.36 1.04.37.38.36-.21.36-.01.36.34.37-7.14.36 5.97.36.31.36-8.61.36 8.22.37-7.75.36 6.39.36 1.08.36-1.09.36 1.01.37-7.66.36 6.45.36.18.36-8.53.36 8.64.37-8.08.36 6.31.36 1.11.36-7.86.37 7.94.36.4.36.28.36.48.36-8.39.37 7.96.36-7.65.36 6.85.36.34.36-8.47.37 8.17.36.21.36.45.36.26H91l.37.64.36-7.78.36 6.44.36.11.36-8.06.37 7.27.36-7.19.36 6.98.36.24.37 1.03.36.12.36-7.44.36 6.65.36.03.37-8.36.36 8.35.36-7.44.36 6.33.36.97.37-8.12.36 7.83.36.35.36.37.36.48.37-9.05.36 7.51.36-7.22.36 6.73.37.81.36-8.61.36 8.1.36.11.36.56.37.16.36.1.36.6.36-8.34.36 6.76.37.49.36-8.43.36 7.47.36-7.88.36 7.47.37.77.36.54.36.21.36-7.59.37 6.59.36.63.36-8.67.36 8.11.36-7.69.37 7.29.36.43.36-7.86.36 7.73.36.33.37.17.36.86.36-8.71.36 7.86.36-7.44.37 6.83.36.66.36-8.81.36 7.86.36.92.37.51.36.02.36.42.36-.09.37-7.3.36 6.23.36.49.36-8.55.36 7.47.37-6.79.36 7.15.36.31.36.57.36.08.37-7.22.36 7.04.36.22.36-8.89.36 8.16.37-7.59.36 6.9.36.76.36-8.84.37 8.66.36.41.36-.17.36.64.36-8.99.37 7.99.36-7.77.36 6.71.36.92.36-8.34.37 7.96.36.38.36.7.36-.08.36.39.37.06.36-7.93.36 6.12.36.52.36-8.98.37 8.26.36-7.17.36 6.84.36.57.37.28.36.24.36-7.93.36 7.11.36.35.37-8.32.36 8.62.36-8.11.36 7.03.36.71.37-8.58.36 8.17.36.7.36.51.36.53.37-9 .36 8.11.36-7.54.36 6.68.37 1.04.36-8.15.36 8.06.36.44.36.28.37.01.36.38.36-.36.36-7.67.36 7.06.37.03.36-9.03.36 8.99.36-8.29.36 7.63.37.29.36.68.36.41.36-8.06.36 6.77.37.6.36-8.54.36 7.67.36-7.03.37 6.73.36 1.03.36-8.9.36 8.49.36.4.37.35.36.72.36-8.72.36 7.33.36-7.38.37 6.99.36.8.36-8.11.36 6.88.36 1.2.37.07.36.13.36.88.36-.31.37-7.97.36 7.37.36.26.36-8.5.36 7.97.37-7.42.36 6.87.36.35.36.73.36-.3.37-7.36.36 6.95.36.31.36-8.71.36 8.06.37-7.49.36 7.07.36.35.36-8.09.37 7.97.36.36.36.16.36.36.36-8.71.37 7.56.36-6.74.36 7.54.36.05.36-8.15.37 8.16.36.22.36.53.36.19.36.33.37-.29.36-8.55.36 7.35.36.23.36-8.41.37 7.81.36-10 .36 7.77.36.74.37.92.36.36.36-7.61.36 7.85.36.26.37-8 .36 8.15.36-7.36.36 7.38.36.06.37-8.44.36 8.5.36.25.36.38.36.25.37-8.85.36 8.33.36-7.52.36 6.59.37.56.36-8.45.36 8.2.36.59.36.05.37.71.36.17.36.53.36-8.21.36 6.81.37.1.36-8.06.36 7.91.36-7.93.36 6.53.37.83.36.52.36.68.36-8.09.36 7.55h.37l.36-8.82.36 8.16.36-7.69.37 8.05.36-6.85.36 6.13.36.55.36.71.37.23.36.43.36-9.22.36 7.82.36-7.61.37 7.3.36-6.66.36 5.96.36.74.36-.07.37 1.33.36.44.36-.6.36-1.16.37-6.89.36 7.22.36-6.86.36 5.8.36 1.07.37-7.93.36 7.59.36.41.36.94.36-.23.37-7.89.36 7.4.36-6.78.36 5.12.36 1.29.37-7.75.36 7.09.36-7.09.36 6.79.37.46.36.56.36.48.36-7.18.36 5.49.37.37.36-8.28.36 7.87.36-6.68.36 6.05.37.69.36.8.36.13.36.32.36-.01.37.37.36-8.17.36 6.96.36-7.02.36 6.24.37.94.36-8.98.36 8.07.36.64.37.25.36.28.36-7.51.36 7.25.36-6.86.37 6.39.36.54.36-8.01.36 7.1.36-7.1.37 6.58.36.66.36 1.05.36-.09.36-7.08.37 6.08.36.9.36-7.97.36 7.44.37-6.93.36 6.3.36.62.36.17.36.48.37.25.36-.21.36.29.36-8.72.36 7.56.37-7.51.36 5.67.36.82.36-8.25.36 7.54.37 1.09.36.37.36-1.39.36-6.93.36 6.92.37-6.76.36 6.25.36.96.36-7.9.37 7.62.36-7.36.36 7.17.36.8.36.2.37.5.36-7.46.36 6.1.36.53.36-7.85.37 7.4.36-7.18.36 6.48.36.79.36.61.37.15.36.35.36.22.36-.04.37-8.43.36 7.82.36-7.61.36 6.41.36.86.37-7.74.36 7.88.36.38.36.99.36-.52.37-7.82.36 7 .36-7.13.36 6.06.36 1.19.37-7.91.36 7.49.36-6.87.36 6.81.36.63.37.34.36.87.36-7.54.36 6.12.37.81.36-8.56.36 8.08.36-7.38.36 7.21.37.14.36.67.36.47.36-.05.36-.21.37.39.36-8.59.36 7.7.36-7.26.36 6.53.37.37.36-7.89.36 7.88.36.1.37.71.36-.01.36-8.36.36 7.67.36-7.98.37 7.36.36.39.36-8.34.36 8.08.36-7.75.37 7.68.36.57.36.45.36.63.36-8.27.37 6.91.36.84.36-8.43.36 7.87.37-7.26.36 6.79.36.56.36.52.36.06.37.9.36-.3.36.57.36-8.78.36 7.56.37-7.72.36 6.66.36.36.36-7.77.36 7.42.37.88.36.11.36.54.36-8.59.36 7.76.37-7.49.36 6.7.36.7.36-8.26.37 8.06.36-7.37.36 6.52.36-.16.36 1.05.37.56.36-7.8.36 7.77.36.06.36-8.64.37 8.14.36-7.79.36 6.86.36 1.46.36-.12.37.14.36.41.36.05.36.38.37-8.77.36 7.35.36-7.52.36 6.65.36.88.37-7.8.36 7.67.36.16.36.25.36.58.37-8.78.36 7.86.36-7.05.36 6.33.36.78.37-8.4.36 8.16.36-7.64.36 6.86.36.95.37.56.36.58.36-7.44.36 6 .37.76.36-8.42.36 7.82.36-8.1.36 7.8.37.27.36.29.36.94.36.45.36-.24.37-.15.36-8.64.36 7.65.36-8.25.36 7.17.37.47.36-7.84.36 8.46.36.59.37.36.36-.19.36-8.32.36 7.4.36-7.95.37 7.27.36.52.36-8.4.36 8.06.36-7.55.37 7.04.36.87.36.26.36.29.36-8.49.37 7.51.36 1.13.36-8.67.36 7.95.36-7.6.37 6.37.36 1.25.36.6.36-.01.37.55.36-.38.36.07.36-8.36.36 7.87.37-7.35.36 6.81.36.24.36-8.13.36 8.17.37.32.36.58.36.19.36-8.1.36 7.58.37-7.7.36 6.84.36.64.36-9.13.37 8.34.36-6.81.36 6.2.36.73.36.47.37-.11.36-8.23.36 7.46.36.86.36-8.35.37 7.74.36-7.15.36 7.38.36.61.36.27.37.63.36-.4.36.14.36.65.37-9.3.36 7.47.36-7.75.36 7.22.36.56.37-8.36.36 8.22.36.67.36.33.36.37.37-8.78.36 7.76.36-7.82.36 7.59.36.66.37-8.67.36 7.92.36-8.15.36 7.38.36.3.37.89.36.41.36-7.85.36 7.11.37.93.36-8.55.36 7.99.36-7.99.36 7.29.37.62.36.35.36.27.36.18.36.27.37.2.36-8.9.36 8.29.36-7.95.36 7.32.37-6.73.36 6.4.36.69.36.08.37.74.36.13.36-8.78.36 8.21.36-8.56.37 7.95.36-6.71.36 5.95.36.4.36-7.86.37 7.56.36.73.36.53.36.29.36-7.84.37 7 .36-6.74.36 5.88.36.66.36-7.97.37 6.95.36.79.36.34.36.28.37.33.36.12.36-6.41.36 5.34.36.7.37-8.34.36 7.39.36-6.77.36 5.89.36.52.37 1.01.36.08.36-7.47.36 4.95.36 1.27.37-8.18.36 7.58.36-6.32.36 6.17.37.51.36-7.72.36 7.87.36.58.36.52.37.59.36-8.09.36 6.86.36-6.72.36 4.61.37 1.47.36-7.94.36 7.39.36.37.36.56.37-.17.36-.12.36.5.36-7.57.36 6.08.37.34.36-6.97.36 7.2.36-6.8.37 6.15.36 1.09.36.24.36.45.36-6.79.37 5.76.36.97.36-7.95.36 7.38.36-6.5.37 6.56.36.56.36-7.73.36 7.68.36-.03.37.59.36.58.36-8.62.36 7.62.37-6.77.36 5.65.36 1.09.36-8.17.36 6.98.37 1.17.36.42.36.22.36.17.36.4.37-7.53.36 5.79.36.24.36-7.54.36 7.26.37-7.15.36 6.13.36 1.06.36.71.37.43.36-7.56.36 6.55.36.52.36-7.79.37 7.18.36-7.21.36 6.98.36.53.36-7.82.37 7.89.36.83.36.22.36.52.36-8.42.37 7.09.36-7.28.36 6.69.36.4.36-7.68.37 7.28.36-.68.36 1.48.36.71.37-.21.36.18.36-7.64.36 5.62.36.81.37-7.69.36 7.39.36-7.12"/><use xlink:href="#a8b9a__b" color="#3B75EA" transform="matrix(3.75 0 0 3.75 67.83 88.95)"/><use xlink:href="#a8b9a__b" color="#3B75EA" transform="matrix(3.75 0 0 3.75 95.45 22.51)"/></g><text stroke-linecap="round" stroke-linejoin="round" color="#000" font-family="KaTeX_Main" font-size="8" transform="translate(241.1 10.11)"><tspan>Randomized</tspan></text><g fill="none" stroke="currentColor" stroke-linecap="round" stroke-linejoin="round" color="#000"><path stroke="#FFAB00" d="M205.6 7.51h29.9M28 125.69l.36.41.36 6.13.37-1.03.36-9.09.36.65.36-1.16.36-.15.37 7.27.36-.27.36-8.73.36.1.37-1.23.36 8.66.36-1.45.36-.23.36-8.5.37-.74.36 6.92.36-7.71.36 7.72.36-9.41.37.09.36 7.04.36-8.83.36.08.36 7.15.37-7.57.36 6.86.36-8.1.36-.75.36 8.68.37-.05.36-1.45.36-8.64.36-.43.37-.66.36 7.33.36.42.36-8.64.36-1.51.37-.15.36-1.19.36 7.08.36 1.01.36-9.13.37.95.36-1.25.36 6.86.36.02.36.66.37-51.1.36 9.77.36 13.71.36-4.81.37 9.41.36 1.51.36-9.49.36 9.14.36.59.37-1.22.36.45.36-9.27.36 8.22.36-8.38.37 7.04.36.77.36-8.97.36 7.57.36-7.11.37 7.15.36-.36.36 1.48.36-.17.37-8.57.36 7.21.36.65.36-9.23.36 8.16.37-7.52.36 7.44.36 1.1.36.21.36.41.37-.34.36.12.36-.07.36-8.85.36 8.42.37-8.26.36 6.92.36.03.36-7.21.36 7.56.37.36.36-.42.36.89.36-8.59.37 8 .36-7.63.36 6.86.36 1.05.36-9 .37 8.42.36-8.23.36 7.92.36.35.36.53.37.74.36-7.89.36 5.97.36 1.37.36-8.64.37 8.4.36-8.66.36 7.97.36.52.37.86.36-.38.36.45.36.67.36-.47.37-8.55.36 7.96.36-8.66.36 7.28.36.43.37-8.65.36 8.75.36 1.32.36-1.13.36.58.37-9.55.36 8.45.36-8.2.36 8.1.36-.56.37-8.22.36 7.55.36-7.37.36 7.81.37-.07.36.3.36.7.36-8.84.36 7.93.37.31.36-9.54.36 8.17.36-7.53.36 8 .37.13.36 1.55.36-1.03.36 1.17.36.09.37-.45.36-8.84.36 8.31.36-8.44.37 7.55.36-7.49.36 6.88.36.25.36.58.37-.28.36-.08.36-9.28.36 8.19.36-7.81.37 7.94.36-7.13.36 6.29.36.95.36-8.38.37 8.71.36.88.36.21.36-.29.36-8.04.37 6.84.36-6.48.36 6.4.36.56.37-8.07.36 7.8.36.97.36-.39.36-.33h.37l.36 1.18.36-7.39.36 5.94.36.44.37-7.87.36 7.08.36-6.86.36 6.51.36 1.01.37.63h.36l.36-7.4.36 5.44.37.95.36-8.8.36 8.52.36-7.63.36 6.7.37.76.36-7.73.36 7.64.36-.09.36.96.37.4.36-7.71.36 7.31.36-7.53.36 6.54.37.83.36-8.58.36 8.48.36-.23.37.58.36-.01.36.93.36-.22.36-7.53.37 6.01.36.57.36-8.35.36 8.2.36-7.55.37 5.94.36 1.18.36.48.36.22.36-7.41.37 6.43.36 1.53.36-9.43.36 8.41.36-8.04.37 6.75.36 1.33.36-8.62.36 8.92.37.45.36.57.36-.11.36-8.6.36 7.66.37-7.08.36 6.27.36.93.36-7.52.36 6.64.37.58.36.75.36-.45.36.96.36-.18.37-8.1.36 6.1.36.82.36-8.12.37 8.08.36-7.95.36 6.9.36 1.05.36-.1.37.55.36-7.6.36 6.27.36.62.36-8.05.37 7.25.36-6.45.36 6.09.36 1.04.36-8.23.37 7.26.36 1.81.36-.5.36.79.36-9.15.37 8.76.36-8.53.36 6.81.36 1 .37-8.45.36 7.53.36.84.36.09.36.55.37.69.36-.05.36-8.68.36 6.59.36 1.35.37-9.75.36 9 .36-8.01.36 6.79.36.49.37 1.17.36.5.36-8.69.36 7.63.37.16.36-7.73.36 7.69.36-7.3.36 6.36.37.8.36-8.32.36 7.18.36 1 .36.49.37-.11.36-8.65.36 8.19.36-8.07.36 7.62.37.41.36-8.47.36 8.48.36.2.36.77.37-.54.36.97.36-1.14.36-7.48.37 6.91.36.28.36-8.17.36 7.94.36-8.23.37 8.02.36 1.15.36-.61.36.67.36-7.68.37 7.12.36-.1.36-7.46.36 5.97.36-6.86.37 6.43.36 1.42.36-7.58.36 7.87.37-.12.36.09.36.29.36-8.04.36 7.03.37-6.85.36 6.96.36.22.36-7.77.36 7.46.37.92.36.02.36-.38.36 1.22.36-.25.37-8.28.36 6.33.36.77.36-7.97.37 7.57.36-7.82.36 7.95.36-.25.36.62.37-.13.36-7.47.36 7.47.36-.39.36-7.63.37 7.33.36-7.83.36 6.99.36 1.11.36-7.84.37 7.14.36.39.36.66.36-.11.36-8.21.37 8.16.36-7.77.36 6.54.36 1.07.37-8.6.36 8.24.36.45.36.46.36.02.37.62.36-.51.36-7.43.36 6.13.36.53.37-7.75.36 8.08.36-8.16.36 7.11.36.8.37.04.36 1.27.36-7.87.36 6.07.37.03.36-7.66.36 7.56.36-7.83.36 7.69.37.46.36-7.81.36 7.77.36.76.36.12.37-.11.36-8.86.36 8.46.36-8.55.36 7.24.37 1.07.36-9.09.36 9.2.36-.07.36.94.37.02.36.37.36-.49.36-7.8.37 6.85.36.64.36-9.23.36 7.96.36-6.91.37 7.13.36.41.36-.21.36 1.03.36-8.13.37 7.04.36.52.36-8.47.36 7.64.36-7.86.37 7.95.36.94.36-8.91.36 8.1.37.37.36.82.36-.66.36-7.92.36 7.66.37-7.88.36 7.54.36.28.36-8.61.36 7.88.37.97.36-.12.36.3.36-.49.36.6.37-7.63.36 6.15.36.94.36-9.55.37 8.79.36-8.15.36 7.89.36.85.36.59.37-.25.36-7.8.36 7.4.36.24.36-8.54.37 8.08.36-8.05.36 7.72.36-6.14.36 5.64.37.37.36 2.13.36-.4.36.38.36-9.35.37 8.42.36-8.06.36 7.79.36.24.37-9.84.36 9.6.36-.32.36 1.29.36-.13.37.36.36-.05.36-7.92.36 6.39.36.99.37-9.5.36 9.07.36-7.88.36 7.84.36.55.37.34.36-.19.36-7.38.36 6.48.37.47.36-9.06.36 8.74.36-7.77.36 7.7.37-6.88.36 5.6.36 1.02.36.9.36.64.37-.55.36-8.82.36 7.86.36-7.84.36 7.92.37-6.91.36 5.44.36.94.36.46.36-.1.37 1.45.36-.03.36-.1.36-8.68.37 7.38.36-7.23.36 6.56.36.67.36-7.6.37 7.05.36.99.36.23.36.68.36-8.73.37 7.18.36-7 .36 5.57.36 1.4.36-7.73.37 7.33.36-6.72.36 5.81.36 1.29.37 1.07.36.68.36-8.27.36 5.8.36.99.37-9.04.36 8.06.36-6.38.36 5.84.36.9.37.68.36.28.36.23.36.33.36-.2.37-8.14.36 7.37.36-7.15.36 6.43.36 1.5.37-8.83.36 8.2.36.59.36.13.37-.18.36-7.79.36 6.62.36-5.79.36 6.09.37.65.36-7.9.36 7.62.36-6.84.36 5.63.37 1.08.36.35.36.55.36-6.98.36 5.93.37 1.51.36-9.44.36 8.99.36-8.4.37 6.98.36.51.36.6.36-.14.36.1.37.27.36.15.36-8.15.36 7.26.36-7.93.37 7.88.36.55.36-8.63.36 8.38.36-.12.37.69.36-.03.36-8.61.36 7.48.37-6.81.36 5.76.36 1.4.36-8.52.36 8.31.37-7.2.36 6.43.36 1 .36.61.36.72.37-7.07.36 5.59.36.52.36-7.68.36 7.3.37-6.8.36 6.66.36.41.36.71.36-.15.37.42.36.58.36.04.36-7.78.37 6.37.36-6.45.36 6.26.36.97.36-8.5.37 8.08.36.77.36-.11.36.36.36-8.68.37 7.38.36-7.79.36 6.67.36.86.36-8.14.37 7 .36-6.83.36 6.51.36 1.19.37.4.36 1.17.36-8.22.36 5.93.36 1.48.37-7.7.36 6.51.36-7.28.36 7.38.36.67.37.43.36.44.36-.01.36-.05.36.35.37-8.63.36 8.06.36-7.48.36 6.79.36.26.37-7.91.36 8.1.36.62.36-.38.37.5.36-7.85.36 7.19.36-7.88.36 7.41.37.22.36-8.29.36 7.8.36-7.07.36 6.56.37.83.36.39.36.53.36-7.85.36 6.31.37.99.36-8.31.36 7.66.36-7.43.37 6.48.36.96.36.82.36.2.36.16.37-.14.36.38.36-9.03.36 7.3.36-7.23.37 6.57.36.9.36-8.6.36 8.57.36-.43.37.9.36 1.15.36-9.38.36 7.7.36-7.5.37 6.9.36.31.36-8.24.36 8.07.37-7.12.36 6.79.36.34.36 1.13.36-.29.37-7.55.36 6.94.36.56.36-8.63.36 8.34.37-8.38.36 7.47.36.06.36 1.04.36-.11.37-.44.36.59.36.72.36-9.37.37 8.47.36-7.75.36 6.62.36 1.08.36-8.26.37 7.2.36-.24.36 1.57.36-.4.36-8.01.37 7.17.36-7.66.36 7.8.36-.47.36-7.77.37 7.8.36-7.96.36 7.06.36 1.15.37-.3.36.72.36-7.74.36 7.11.36.1.37-8.09.36 7.92.36-7.46.36 6.72.36.95.37 1.06.36.05.36-.58.36.62.36-.04.37-8.68.36 7.34.36-6.96.36 6.56.36.24.37-8.84.36 8.73.36.18.36.27.37.87.36-8.55.36 7.28.36-6.74.36 7.14.37.41.36-8.21.36 7.33.36-7.39.36 7.37.37-.06.36.55.36.67.36-7.53.36 7.62.37.69.36-9.48.36 8.32.36-7.29.37 7.12.36.26.36.1.36 1.23.36.42.37-1.4.36.68.36-7.99.36 7.04.36-7.27.37 6.31.36 1.03.36-8.57.36 8.82.36-.35.37 1.04.36.45.36-7.57.36 6.1.36-6.78.37 6.54.36.76.36-8.15.36 7.67.37-8.01.36 7.28.36.54.36-.11.36 1.76.37-8.63.36 6.23.36.72.36-8.58.36 8.06.37-7.3.36 7.19.36.83.36.14.36.5.37.62.36-.09.36.03.36-7.82.37 6.53.36-7.49.36 7.41.36.66.36-8.75.37 8.57.36-.04.36.65.36-.24.36-8.39.37 7.38.36-6.79.36 6.8.36.05.36-8.26.37 7.98.36-7.53.36 7.15.36.75.36 1.75.37-1.36.36-7.13.36 6.24.36.89.37-9.08.36 9.13.36-8.35.36 6.56.36.56.37 1.08.36.18.36.95.36-.03.36.2.37-8.52.36 7.24.36-7.9.36 7.4.36-6.71.37 5.69.36.92.36.95.36-.03.37.12.36-8.43.36 7.36.36-7.25.36 7.41.37-6.68.36 6.07.36 1.03.36-8.33.36 7.63.37.81.36-.12.36.65.36-8.06.36 7.03.37-6.62.36 6.29.36.81.36-8.35.37 7.97.36.5.36.28.36.54.36.44.37-.36.36-7.46.36 6.31.36.65.36-7.6.37 7.25.36-6.25.36 5.62.36 1.65.36.34.37-.37.36-6.81.36 5.08.36.55.36-8.24.37 7.78.36-7.03.36 5.64.36 1.66.37-8.85.36 8.25.36.4.36-.19.36.74.37-7.7.36 7.38.36-6.49"/><use xlink:href="#a8b9a__c" color="#FFAB00" transform="matrix(3.75 0 0 3.75 125.4 80.84)"/><use xlink:href="#a8b9a__c" color="#FFAB00" transform="matrix(3.75 0 0 3.75 220.55 7.51)"/></g><text stroke-linecap="round" stroke-linejoin="round" color="#000" font-family="KaTeX_Main" font-size="8" transform="translate(241.1 25.11)"><tspan>Zip</tspan></text><g fill="none" stroke="currentColor" stroke-linecap="round" stroke-linejoin="round" color="#000"><path stroke="#F44336" d="M205.6 22.51h29.9M28 141.91l.36-.12.36-.48.37 6.98.36-1.15.36.48.36-8.24.36-.84.37 7.39.36-7.92.36 7.17.36-8.3.37-.7.36 7.23.36-8.44.36-.76.36 7.77.37-8.01.36 6.94.36-8.21.36-.58.36 7.28.37-.21.36-.04.36-8.85.36-.36.36-.32.37 7.19.36-.17.36-8.45.36-.56.36-.16.37-.51.36 7.38.36.37.36-8.48.37-.68.36-.49.36 6.91.36.36.36-.05.37-8.73.36-.59.36 6.72.36-7.96.36 7.54.37-7.78.36-.38.36 7.05.36-8.18.36-.38.37-62.89.36 21.99.36 5.97.36-4.77.37 9.49.36 2.03.36-7.33.36 9.01.36-7.54.37 7.53.36.71.36.25.36.75.36-.24.37.66.36-.57.36-9.12.36 8.09.36-8.04.37 7.01.36-.39.36-8.86.36 8.17.37 1.15.36-.04.36.27.36-9.02.36 8.23.37-7.92.36 7.17.36.9.36-8.64.36 8.58.37-7.93.36 7.34.36.39.36.6.36.31.37-8.03.36 6.95.36.9.36-8.51.36 8.27.37-8.1.36 7.63.36.84.36.15.37.5.36.31.36-.14.36.14.36-9.05.37 8.25.36-8.84.36 8.01.36.38.36-9.06.37 8.12.36.67.36.48.36.09.36-8.57.37 7.54.36-7.7.36 7.29.36.45.37-9.16.36 8.19.36-7.65.36 7.62.36.28.37.53.36.17.36-8.15.36 6.47.36.8.37-8.77.36 8.26.36-8.14.36 7.35.36.94.37.08.36.51.36.37.36.21.36.18.37-8.96.36 7.8.36-8.52.36 7.85.37.58.36-8.77.36 8.32.36.45.36.26.37.11.36-8.84.36 8.52.36-7.88.36 6.07.37.92.36-8.51.36 8.71.36-8.31.36 8.11h.37l.36.35.36.33.36-7.82.37 6.86.36.64.36-8.96.36 8.44.36-8.05.37 7.53.36.5.36.64.36.17.36.46.37-.01.36-.28.36-8.92.36 8.08.36-8.13.37 7.59.36.48.36-8.48.36 8.14.36.61.37.13.36-.15.36-8.86.36 8.41.37-7.55.36 6.68.36 1.43.36-9.11.36 8.39.37-7.98.36 8.23.36.17.36.59.36.1.37-8.2.36 6.74.36.75.36-8.4.36 8.2.37-8.54.36 7.48.36.32.36-.19.37.16.36.11.36.22.36.45.36-9.76.37 8.76.36-8.27.36 7.45.36-7.43.36 5.5.37 1.06.36.14.36.38.36.06.36-8.9.37 8.15.36-7.37.36 7.16.36-6.84.37 6.16.36.88.36-8.54.36 8.1.36.57.37.6.36-.2.36-8.06.36 7.19.36-6.73.37 5.67.36 1.69.36-8.54.36 6.77.36 1.12.37.48.36.17.36.59.36.32.36.02.37-8.94.36 8.24.36-7.9.36 6.9.37-6.56.36 6.16.36.91.36.03.36.47.37.31.36-9.35.36 8.07.36-8.05.36 7.07.37-6.31.36 6.01.36.9.36-7.76.36 7.64.37.22.36.38.36.36.36-8.4.37 7.91.36-7.36.36 6.18.36 1.54.36-8.84.37 7.78.36.94.36.11.36.43h.36l.37.19.36-7.32.36 6.03.36.62.36-8.26.37 7.51.36-6.84.36 6.48.36.96.36.39.37.86.36-7.98.36 6.61.36.34.37-8.33.36 7.58.36-6.63.36 6.34.36.91.37-8.43.36 8.36.36.52.36-.01.36.11.37-8.23.36 7.42.36-7.25.36 6.36.36 1.1.37-8.74.36 7.85.36.84.36.44.37-.17.36.89.36.26.36-8.07.36 5.86.37.91.36-8.07.36 7.56.36-7.48.36 6.24.37 1.64.36-.28.36 1.04.36-7.96.36 6.07.37.77.36-8.26.36 7.93.36-7.63.36 7.05.37.35.36-8.69.36 7.8.36.85.37-.08.36.64.36-8.42.36 7.54.36-7.56.37 6.46.36.69.36-8.4.36 8.07.36.78.37.19.36.38.36.71.36-.16.36-7.62.37 5.8.36 1.38.36-8.43.36 7.69.37-7.93.36 7.21.36.59.36.53.36-.07.37-7.34.36 6.07.36.84.36-8.28.36 7.57.37-7.31.36 6.96.36.45.36-8.34.36 8.06.37.49.36.83.36-.23.36-8.02.37 7.21.36-7.3.36 6.92.36.74.36-8.26.37 7.45.36.99.36.27.36-.2.36.05.37.61.36-8.19.36 6.45.36.27.36-8.31.37 7.55.36-7.27.36 7.46.36.42.36.65.37.02.36-7.19.36 6.51.36.44.37-8.68.36 8.15.36-7.56.36 6.94.36.89.37-8.12.36 7.86.36 1.12.36.23.36.41.37-8.47.36 7.88.36-7.94.36 7.05.36.93.37-9 .36 8.07.36.47.36.28.37.03.36.68.36.02.36-7.72.36 6.17.37.86.36-8.45.36 7.74.36-7.36.36 6.78.37.46.36.87.36.01.36-7.8.36 5.98.37.86.36-7.77.36 7.8.36-7.52.36 7.11.37.71.36-7.71.36 8.12.36.09.37 1.1.36.15.36-8.8.36 7.65.36-7.36.37 6.94.36 1.06.36-8.94.36 7.85.36.47.37.01.36.65.36.37.36-.25.36-8.04.37 6.73.36.36.36-8.91.36 8.06.37-7.59.36 7.05.36.58.36.63.36.22.37-7.69.36 6.14.36 1.04.36-8.11.36 7.67.37-7.38.36 6.98.36.84.36-8.78.36 8.21.37.7.36.39.36.32.36-9.72.37 7.62.36-7.7.36 7.16.36 1.14.36-8.52.37 7.84.36.96.36.81.36-.11.36.37.37-.16.36-7.62.36 6.63.36.51.36-8.58.37 7.72.36-7.26.36 6.5.36.16.36 1.58.37.18.36-8.31.36 7.03.36.06.37-8.09.36 8.09.36-7.9.36 7.51.36.56.37-8.75.36 8.14.36.46.36.52.36.59.37-8.59.36 7.49.36-7.16.36 6.76.36.54.37-8.32.36 8.25.36 1.05.36-.32.37.82.36-.45.36.43.36-8.17.36 6.15.37 1.32.36-9.25.36 7.97.36-7.93.36 7.95.37.35.36.46.36-1.45.36-6.31.36 7.32.37.57.36-8.5.36 7.93.36-7.54.36 7.22.37 1.18.36-9.31.36 6.52.36-.49.37.89.36.59.36-8.04.36 8.3.36-7.84.37 7.09.36.66.36-8.41.36 8.45.36.29.37 1.19.36.52.36-.12.36.27.36-8.25.37 6.88.36.33.36-8.31.36 7.72.37-7.41.36 7.11.36 1 .36.39.36-.04.37-7.93.36 6.99.36 1.22.36-8.77.36 7.47.37-7.41.36 7.38.36-6.48.36 5.29.36 1.4.37.75.36-.09.36.18.36-8.32.36 8 .37-7.85.36 7.26.36-6.99.36 5.8.37 1.5.36.69.36.51.36.31.36-.01.37.01.36-8.27.36 7.27.36-6.57.36 5.31.37 1.09.36-8.18.36 7.38.36.49.36.33.37.24.36-8.22.36 7.61.36-.22.37-8.07.36 7.93.36-8.2.36 7.9.36-7.16.37 5.97.36.94.36.49.36.74.36-.2.37-8.57.36 8.45.36-8.34.36 7.29.36-7.19.37 6.56.36 1.45.36.25.36.4.37.09.36.45.36-.15.36-8.35.36 7.14.37-6.98.36 6.14.36 1.03.36-7.77.36 7.32.37.25.36.8.36.12.36-7.46.36 6.61.37-6.85.36 6.19.36.59.36-7.29.36 6.51.37-6.41.36 5.94.36 1.32.36.68.37.33.36-6.97.36 5.18.36 1.42.36-8.66.37 7.59.36-7.08.36 6.61.36.4.36 1.02.37.77.36.23.36-.25.36.39.36-7.96.37 6.84.36-6.79.36 5.75.36 1.34.37-8.4.36 8.26.36.92.36-.24.36.24.37-8.48.36 6.98.36-7.15.36 6.42.36 1.45.37-8.28.36 8.15.36-7.1.36 5.94.36 1.63.37.56.36.13.36-7.22.36 6.01.36.8.37-8.15.36 8.11.36-6.36.36 5.68.37.35.36.63.36.62.36-.31.36.48.37-.16.36-8.41.36 6.97.36-7.04.36 6.18.37.25.36-7.68.36 7.77.36.45.36-.02.37.81.36-8.47.36 7.85.36-7.39.37 6.25.36.37.36-7.26.36 7.5.36-7.76.37 7.17.36.88.36.24.36.9.36-7.82.37 6.64.36.27.36-8.47.36 7.71.36-7.5.37 6.91.36 1.35.36.27.36.59.36-.24.37.25.36.28.36-8.39.36 6.81.37-7.2.36 6.61.36.44.36-8.33.36 7.72.37.98.36.36.36.42.36-8.01.36 7.01.37-7.16.36 6.1.36.57.36-7.9.36 7.96.37-7.38.36 6.73.36 1.02.36-.05.37 1.07.36-7.81.36 6.3.36.49.36-7.9.37 7.29.36-7.8.36 7.05.36.56.36.53.37-.21.36.15.36.57.36-.11.36-8.05.37 7.8.36-8.15.36 7.06.36.73.37-8.32.36 7.93.36.55.36.45.36-.17.37-8.14.36 7.53.36-7.19.36 6.53.36 1.01.37-8.53.36 7.8.36-7.1.36 7.03.36.86.37.22.36.41.36-7.66.36 6.75.36.82.37-7.98.36 7.78.36-7.6.36 6.57.37 1.17.36.31.36.09.36.14.36.18.37.38.36-8.66.36 7.55.36-7.85.36 6.72.37 1 .36-8.35.36 8.52.36.41.36-.11.37.82.36-8.68.36 7.74.36-7.89.37 5.67.36 1.2.36-8.4.36 8.05.36-7.17.37 6.57.36.7.36.81.36.41.36-7.69.37 6.83.36.91.36-8.95.36 8.24.36-7.32.37 6.85.36.4.36.56.36.3.36.36.37.1.36.13.36-8.66.36 7.87.37-7.58.36 6.63.36.88.36-8.81.36 8.64.37.01.36.5.36.45.36-9.44.36 7.83.37-8.53.36 7.22.36 1.06.36-8.19.36 8.43.37-7.51.36 7.68.36.12.36 1.26.37.09.36-7.74.36 6.49.36.41.36-8.44.37 8.37.36-7.47.36 6.6.36.92.36.28.37.41.36.5.36.07.36-.08.36-8.44.37 7.11.36-8.14.36 7.37.36.57.36-8.77.37 7.7.36 1.02.36-2.1.36.25.37-8.61.36 8.81.36-8.08.36 6.95.36 1.04.37-7.78.36 8.54.36-7.5.36 7.3.36 1 .37.89.36.14.36-7.79.36 6.87.36.23.37-8.28.36 8.14.36-8.02.36 7.24.37.86.36.26.36.41.36-.02.36 1.18.37-.14.36-8.93.36 7.73.36-7.72.36 7.16.37.33.36-8.41.36 8.16.36.41.36.39.37.21.36-8.92.36 8.08.36-7.61.37 7.3.36.12.36-8.61.36 8.29.36-7.84.37 7.63.36.11.36.5.36.24.36-7.93.37 7.33.36.71.36-8.12.36 7.85.36-7.79.37 6.42.36 1.06.36.54.36-.07.36.4.37.16.36-.05.36-9.06.36 7.72.37-8.27.36 7.33.36-6.25.36 5.03.36 1.36.37.13.36.68.36.31"/><use xlink:href="#a8b9a__d" color="#F44336" transform="matrix(3.75 0 0 3.75 182.98 84.13)"/><use xlink:href="#a8b9a__d" color="#F44336" transform="matrix(3.75 0 0 3.75 220.55 22.51)"/></g><path fill="none" d="M28 45.01V162.5M371.99 45.01H28" color="#000"/></svg>