<svg xmlns="http://www.w3.org/2000/svg" xmlns:xlink="http://www.w3.org/1999/xlink" viewBox="0 0 400 200"><path fill="none" d="M0 0h400v200H0z"/><defs><path id="3af78__c" fill="currentColor" stroke="currentColor" stroke-width=".267" d="M-1-1h2v2h-2z"/><path id="3af78__a" stroke="currentColor" stroke-width=".267" d="m0-1.33-1.33 2h2.66z"/><path id="3af78__e" stroke="currentColor" stroke-width=".267" d="M0 1.33 1.265.411.782-1.067l-1.564-.009-.483 1.487z"/><use xlink:href="#3af78__a" id="3af78__g" fill="currentColor" stroke="none"/><use xlink:href="#3af78__a" id="3af78__b" stroke="currentColor" transform="rotate(180)"/><use xlink:href="#3af78__b" id="3af78__f" fill="currentColor" stroke="none"/><circle id="3af78__d" cx="0" cy="0" r="1" stroke="currentColor" stroke-width=".267"/></defs><path fill="none" stroke="#CCC" stroke-linecap="round" stroke-linejoin="round" stroke-width=".1" d="M46.1 162.5V60.01" class="3af78__gridline" color="#000"/><g fill="none" stroke-linecap="round" stroke-linejoin="round" stroke-width="0" color="#000"><path d="M46.1 162.5V155m0-94.99v7.5"/><text fill="#000" font-family="KaTeX_Main" font-size="8" text-anchor="middle" transform="translate(46.1 172.6)"><tspan> 1</tspan></text></g><path fill="none" stroke="#CCC" stroke-linecap="round" stroke-linejoin="round" stroke-width=".1" d="M82.31 162.5V60.01" class="3af78__gridline" color="#000"/><g fill="none" stroke-linecap="round" stroke-linejoin="round" stroke-width="0" color="#000"><path d="M82.31 162.5V155m0-94.99v7.5"/><text fill="#000" font-family="KaTeX_Main" font-size="8" text-anchor="middle" transform="translate(82.31 172.6)"><tspan> 2</tspan></text></g><path fill="none" stroke="#CCC" stroke-linecap="round" stroke-linejoin="round" stroke-width=".1" d="M118.52 162.5V60.01" class="3af78__gridline" color="#000"/><g fill="none" stroke-linecap="round" stroke-linejoin="round" stroke-width="0" color="#000"><path d="M118.52 162.5V155m0-94.99v7.5"/><text fill="#000" font-family="KaTeX_Main" font-size="8" text-anchor="middle" transform="translate(118.52 172.6)"><tspan> 3</tspan></text></g><path fill="none" stroke="#CCC" stroke-linecap="round" stroke-linejoin="round" stroke-width=".1" d="M154.73 162.5V60.01" class="3af78__gridline" color="#000"/><g fill="none" stroke-linecap="round" stroke-linejoin="round" stroke-width="0" color="#000"><path d="M154.73 162.5V155m0-94.99v7.5"/><text fill="#000" font-family="KaTeX_Main" font-size="8" text-anchor="middle" transform="translate(154.73 172.6)"><tspan> 4</tspan></text></g><path fill="none" stroke="#CCC" stroke-linecap="round" stroke-linejoin="round" stroke-width=".1" d="M190.94 162.5V60.01" class="3af78__gridline" color="#000"/><g fill="none" stroke-linecap="round" stroke-linejoin="round" stroke-width="0" color="#000"><path d="M190.94 162.5V155m0-94.99v7.5"/><text fill="#000" font-family="KaTeX_Main" font-size="8" text-anchor="middle" transform="translate(190.94 172.6)"><tspan> 5</tspan></text></g><path fill="none" stroke="#CCC" stroke-linecap="round" stroke-linejoin="round" stroke-width=".1" d="M227.15 162.5V60.01" class="3af78__gridline" color="#000"/><g fill="none" stroke-linecap="round" stroke-linejoin="round" stroke-width="0" color="#000"><path d="M227.15 162.5V155m0-94.99v7.5"/><text fill="#000" font-family="KaTeX_Main" font-size="8" text-anchor="middle" transform="translate(227.15 172.6)"><tspan> 6</tspan></text></g><path fill="none" stroke="#CCC" stroke-linecap="round" stroke-linejoin="round" stroke-width=".1" d="M263.36 162.5V60.01" class="3af78__gridline" color="#000"/><g fill="none" stroke-linecap="round" stroke-linejoin="round" stroke-width="0" color="#000"><path d="M263.36 162.5V155m0-94.99v7.5"/><text fill="#000" font-family="KaTeX_Main" font-size="8" text-anchor="middle" transform="translate(263.36 172.6)"><tspan> 7</tspan></text></g><path fill="none" stroke="#CCC" stroke-linecap="round" stroke-linejoin="round" stroke-width=".1" d="M299.57 162.5V60.01" class="3af78__gridline" color="#000"/><g fill="none" stroke-linecap="round" stroke-linejoin="round" stroke-width="0" color="#000"><path d="M299.57 162.5V155m0-94.99v7.5"/><text fill="#000" font-family="KaTeX_Main" font-size="8" text-anchor="middle" transform="translate(299.57 172.6)"><tspan> 8</tspan></text></g><path fill="none" stroke="#CCC" stroke-linecap="round" stroke-linejoin="round" stroke-width=".1" d="M335.78 162.5V60.01" class="3af78__gridline" color="#000"/><g fill="none" stroke-linecap="round" stroke-linejoin="round" stroke-width="0" color="#000"><path d="M335.78 162.5V155m0-94.99v7.5"/><text fill="#000" font-family="KaTeX_Main" font-size="8" text-anchor="middle" transform="translate(335.78 172.6)"><tspan> 9</tspan></text></g><path fill="none" stroke="#CCC" stroke-linecap="round" stroke-linejoin="round" stroke-width=".1" d="M371.99 162.5V60.01" class="3af78__gridline" color="#000"/><g fill="none" stroke-linecap="round" stroke-linejoin="round" stroke-width="0" color="#000"><path d="M371.99 162.5V155m0-94.99v7.5"/><text fill="#000" font-family="KaTeX_Main" font-size="8" text-anchor="middle" transform="translate(371.99 172.6)"><tspan> 10</tspan></text></g><g fill="none" stroke-linecap="round" stroke-linejoin="round" stroke-width="0" color="#000"><path d="M371.99 162.5h-7.5"/><text fill="#000" font-family="KaTeX_Main" font-size="8" transform="translate(378.99 165.1)"><tspan>0</tspan></text></g><g fill="none" stroke-linecap="round" stroke-linejoin="round" stroke-width="0" color="#000"><path d="M371.99 111.25h-7.5"/><text fill="#000" font-family="KaTeX_Main" font-size="8" transform="translate(378.99 113.85)"><tspan>1</tspan></text></g><g fill="none" stroke-linecap="round" stroke-linejoin="round" stroke-width="0" color="#000"><path d="M371.99 60.01h-7.5"/><text fill="#000" font-family="KaTeX_Main" font-size="8" transform="translate(378.99 62.61)"><tspan>2</tspan></text></g><path fill="none" d="M28 60.01V162.5M371.99 60.01H28" color="#000"/><text stroke-linecap="round" stroke-linejoin="round" stroke-width="0" color="#000" font-family="KaTeX_Main" font-size="10" text-anchor="middle" transform="rotate(-90 61.38 49.88)"><tspan>log</tspan><tspan dy="3" font-size="8">2</tspan><tspan dy="-3">(</tspan><tspan font-weight="bold">Maximum Path Length </tspan><tspan> / log</tspan><tspan dy="3" font-size="8">2</tspan><tspan dy="-3">(Size))</tspan></text><text stroke-linecap="round" stroke-linejoin="round" stroke-width="0" color="#000" font-family="KaTeX_Main" font-size="10" text-anchor="middle" transform="translate(199.99 195.75)"><tspan>Operations / 10</tspan><tspan dy="-5" font-size="8">6</tspan></text><text stroke-linecap="round" stroke-linejoin="round" color="#000" font-family="KaTeX_Main" font-size="8" transform="translate(110.4 10.11)"><tspan>Conc</tspan></text><g fill="none" stroke="currentColor" stroke-linecap="round" stroke-linejoin="round" color="#000"><path stroke="#D336C8" stroke-dasharray="1.0,2.0" d="M74.9 7.51h29.9M28 148.11l.36.11.36.11.37.11.36.1.36.1.36.1.36.1.37.1.36.09.36.1.36.09.37.09.36.09.36.09.36.08.36.09.37.08.36.08.36.08.36-3.07.36.08.37.08.36.07.36.08.36.07.36.07.37.08.36.07.36.07.36.06.36.07.37.07.36.06.36.07.36.06.37.07.36.06.36.06.36.06.36.06.37.06.36.06.36.06.36.06.36.05.37.06.36.05.36.06.36.05.36.06h325.89"/><use xlink:href="#3af78__c" color="#D336C8" transform="matrix(3.75 0 0 3.75 354.25 148.77)"/><use xlink:href="#3af78__c" color="#D336C8" transform="matrix(3.75 0 0 3.75 89.85 7.51)"/></g><text stroke-linecap="round" stroke-linejoin="round" color="#000" font-family="KaTeX_Main" font-size="8" transform="translate(110.4 25.11)"><tspan>LBSTBottomUp</tspan></text><g fill="none" stroke="currentColor" stroke-linecap="round" stroke-linejoin="round" color="#000"><path stroke="#3B75EA" d="M74.9 22.51h29.9M28 144.96l.36.11.36.11.37.11.36.1.36-2.91.36.1.36.1.37.1.36 3.11.36-2.93.36.1.37.09.36.08.36.09.36.09.36-2.82.37.08.36 2.99.36.08.36 3.09.36.08.37-2.94.36.08.36 3.09.36.07.36.07.37.08.36-2.95.36.07.36.07.36-2.84.37 2.97.36.07.36.06.36.06.37.07.36.06.36-2.84.36.06.36 2.96.37.06.36.06.36.06.36.06.36.05.37-2.84.36.06.36.05.36.06.36 2.95h22.45l.37-2.9h2.17l.36 2.9h31.87l.36-2.9h.36l.36 2.9h7.97l.36-2.9.36 2.9h3.99l.36-2.9h3.98l.36 2.9h7.24l.37-2.9h.36l.36 2.9h3.26l.36-2.9h.73l.36 2.9h1.08l.37-2.9h2.53l.36 2.9h.73l.36-2.9h1.81l.36 2.9h1.81l.36-2.9h.73l.36 2.9h3.62l.36-2.9h2.18l.36 2.9h17.74l.36-2.9.37 2.9h.72l.36-2.9h.73l.36 2.9.36-2.9h2.9l.36 2.9h.72l.37-2.9h.72l.36 2.9h4.71l.36-2.9h.72l.37 2.9h.36l.36-2.9h3.26l.36 2.9h9.42l.36-2.9h2.53l.37 2.9h14.84l.36-2.9h.37l.36 2.9h1.08l.37-2.9h1.44l.37 2.9h12.67l.36-2.9.36 2.9h4.35l.36-2.9h2.54l.36 2.9h1.08l.37-2.9h.36l.36 2.9h3.26l.36-2.9h.36l.37 2.9h48.88l.36-2.9h.36l.36 2.9h.37l.36-2.9.36 2.9h6.88l.36-2.9h1.45l.36 2.9h3.62l.37-2.9h2.17l.36 2.9h21l.36-2.9.37 2.9h1.81l.36-2.9h.72l.37 2.9h24.98l.36-2.9h2.17l.37 2.9h2.53l.36-2.9h1.09"/><use xlink:href="#3af78__d" color="#3B75EA" transform="matrix(3.75 0 0 3.75 67.83 145.75)"/><use xlink:href="#3af78__d" color="#3B75EA" transform="matrix(3.75 0 0 3.75 89.85 22.51)"/></g><text stroke-linecap="round" stroke-linejoin="round" color="#000" font-family="KaTeX_Main" font-size="8" transform="translate(110.4 40.11)"><tspan>TreapTopDown</tspan></text><g fill="none" stroke="currentColor" stroke-linecap="round" stroke-linejoin="round" color="#000"><path stroke="#F44336" stroke-dasharray="4.5,2.0,0.5,2.0,0.5,2.0" d="M74.9 37.51h29.9M28 98.49l.36 1.77.36-1.55.37.11.36-1.52.36 1.72.36.1.36.1.37.1.36.1.36.09.36.09.37-1.53.36-1.51.36.09.36 3.3.36.09.37-3.14.36-1.47.36 4.85.36.08.36-6.22.37 6.37.36.08.36.07.36.08.36.07.37-1.55.36.07.36.07.36.07.36.06.37.07.36-1.53.36.07.36 1.65.37-1.52.36.06.36.06.36.06.36.06.37.06.36.06.36.06.36.06.36 1.64.37.06.36.06.36.05.36.05.36.06h.37l.36-3.15h.36l.36 1.56h1.09L49 94.5h11.23l.36 1.5h.36l.36 1.52h3.99l.36-1.52.36 1.52h1.81l.36-1.52h.36l.37 1.52h.36l.36-1.52h.73l.36 1.52h.72l.36 1.56h.37l.36-1.56h.36l.36-1.52.36-1.5h.37l.36-1.46h.36l.36-1.44.36 1.44.37 6.04h1.81l.36-4.58h1.81l.36 1.5h.36l.37 1.52.36 1.56h.36l.36 1.59h.73l.36-3.15h.36l.36 1.56.36 1.59.37-3.15h.72l.36 1.56h2.9l.36 1.59.36-1.59.37 1.59h1.08l.36 1.62h4.35l.36-1.62h.36l.37-6.17.36 3.02h2.89l.37 1.56h.72l.36-1.56.37 3.15.36-1.59h.36l.36 1.59.36-1.59.37 1.59h.36l.36-3.15h2.53l.37 1.56h1.45l.36 1.59h1.45l.36 1.62h2.17l.36 1.67.36-1.67h.73l.36-1.62.36 1.62h2.18l.36-3.21h.36l.36 1.59h.73l.36-3.15h.36l.36 3.15h.36l.37-1.59.36-1.56.36 1.56.36 1.59.36-6.17.37-2.9.36 2.9.36 1.5.36 6.29.37-1.62h.72l.36-1.59h.73l.36 1.59h1.45l.36-1.59.36-11.62.36 1.35.36 1.39h.37l.36 4.3h.36l.36 1.5h1.09l.36-1.5.36 3.02.37 1.56h1.08l.36 1.59h1.09l.36 1.62h.36l.37-1.62.36 1.62h.72l.36-3.21.37 3.21.36-1.62h.72l.37 1.62h.36l.36 1.67h.72l.37-1.67h8.32l.37-1.62h1.44l.37-1.59.36 1.59.36 1.62h.36l.36-1.62h1.09l.36 1.62h2.18l.36-3.21h.36l.36 1.59.36-4.67.37 1.52.36 1.56.36 3.21h2.17l.37-4.77h.36l.36 3.15h.36l.36 1.62h.73l.36-1.62h.72l.37 1.62h1.81l.36-1.62h1.45l.36 1.62.36-1.62.36 1.62h.73l.36-4.77.36 1.56.36 3.21h2.18l.36-1.62.36-3.15h.36l.36-4.48.37 1.46.36 1.5h.72l.37 1.52h1.08l.36 1.56.37-4.58h.72l.36 1.5.36-1.5h1.09l.36 1.5h1.45l.36 1.52h1.45l.36-4.48h.73l.36 1.46h1.81l.36 1.5.36 1.52h.37l.36 1.56h4.34l.37 1.59h.36l.36-3.15h1.09l.36 1.56h.36l.36 1.59h.36l.37-3.15.36 3.15.36 1.62h.36l.37 1.67.36-3.29h.72l.36 1.62.37 1.67h.72l.36-3.29.36 1.62h.37l.36 1.67.36-3.29h.72l.37-1.59h1.08l.36-3.08h.37l.36-1.5.36-4.3.36 5.8.37 1.52h.36l.36-3.02.36 1.5h1.09l.36-1.5h.72l.37 1.5.36-1.5h3.26l.36-1.46.36 1.46h.36l.37-2.9h.72l.36-1.4h3.26l.36-1.39h7.24l.37 1.39h3.26l.36 2.84h.36l.36 4.48h2.54l.36-1.52h.36l.36-1.5h.73l.36-2.9h7.6l.37-1.4.36 1.4h.36l.36 2.9.36 1.5.37-1.5h.36l.36-1.46.36 4.48.36-1.52h1.09l.36-1.5h.36l.37-1.46h1.08l.37 4.48h1.81l.36-1.52.36-1.5.36 1.5h1.81l.36-1.5h1.45l.36 1.5h4.71l.36-4.4h3.26l.37 1.44.36-2.84.36 1.4h.72l.37-4.14.36 1.35h.36l.36 1.39h.36l.37 1.4.36 1.44h.36l.36-1.44h.36l.37-1.4h.36l.36 1.4h1.45l.36 1.44h1.45l.36 1.46.36 3.02.37-1.52.36 3.08h.72l.36-1.56h.37l.36-3.02h.36l.36 1.5h.36l.37 6.29.36-1.62h1.45l.36-3.15.36 1.56h.73l.36-3.08.36 4.67.36-1.59h1.09l.36-1.56h.36l.36 1.56h.37l.36-1.56.36 3.15h.72l.37 1.62.36-1.62.36 1.62.36-1.62h.37l.36-1.59h2.17l.36 3.21h.36l.37-1.62.36 1.62h.36l.36-1.62h.73l.36-1.59h.36l.36 1.59h.37l.36-1.59.36-3.08.36 3.08h.36l.37-3.08.36-1.5.36-1.46.36 1.46h.36l.37 1.5.36-1.5h.36L305 96l.36 3.08.37-1.56.36 1.56h.36l.36-3.08.37 3.08.36-1.56h.72l.36-1.52h.73l.36-1.5.36 1.5.36 1.52h1.45l.36-1.52h1.45l.36 1.52h.37l.36-3.02h.36l.36 4.58h1.81l.37 1.59h1.08l.36-1.59h.37l.36-3.08.36-1.5.36-1.46.36 4.48.37-1.52.36 1.52.36 1.56h1.45l.36-3.08.36-1.5.37 1.5.36-2.96.36 4.48h.36L326 96h.73l.36 3.08h.36l.36-1.56h.37l.36 1.56h3.26l.36-1.56.36 1.56.36-1.56.37 3.15.36-6.17.36 1.5.36 1.52h1.45l.36-5.92.36 1.44h.37l.36 1.46h4.34l.37-1.46h1.81l.36-1.44h.72l.36 1.44h.37l.36 2.96.36-1.5h1.09l.36 1.5h.72l.37 1.52h1.81l.36-3.02h.36l.36-1.46h.36l.37 2.96h.72l.36-1.5.37-1.46h2.17l.36-1.44h4.71l.36-1.4h6.88l.36-1.39.36-2.68.37 1.33h.36l.36 4.14h.36l.36 1.44h1.09"/><use xlink:href="#3af78__e" color="#F44336" transform="matrix(3.75 0 0 3.75 125.4 99.08)"/><use xlink:href="#3af78__e" color="#F44336" transform="matrix(3.75 0 0 3.75 89.85 37.51)"/></g><text stroke-linecap="round" stroke-linejoin="round" color="#000" font-family="KaTeX_Main" font-size="8" transform="translate(241.1 10.11)"><tspan>AVLTopDown</tspan></text><g fill="none" stroke="currentColor" stroke-linecap="round" stroke-linejoin="round" color="#000"><path stroke="#29C3F6" stroke-dasharray="2.5,4.0" d="M205.6 7.51h29.9M28 151.39l.36.12.36.11.37.1.36.11.36.1.36.1.36.1.37.1.36.09.36.09.36.1.37.09.36.09.36.08.36.09.36.08.37.09.36.08.36.08.36-3.21.36.08.37.07.36.08.36.07.36.08.36.07.37.07.36.07.36.07.36.07.36.07.37.06.36.07.36.06.36.07.37.06.36.06.36.07.36.06.36.06.37.06.36.06.36.05.36.06.36.06.37.05.36.06.36.06.36.05.36.05h325.89"/><use xlink:href="#3af78__f" color="#29C3F6" transform="matrix(3.75 0 0 3.75 182.98 151.91)"/><use xlink:href="#3af78__f" color="#29C3F6" transform="matrix(3.75 0 0 3.75 220.55 7.51)"/></g><text stroke-linecap="round" stroke-linejoin="round" stroke-width=".5" color="#000" font-family="KaTeX_Main" font-size="8" transform="translate(241.1 25.11)"><tspan>AVLBottomUp</tspan></text><g fill="none" stroke="currentColor" stroke-linecap="round" stroke-linejoin="round" stroke-width=".5" color="#000"><path stroke="#000" d="M205.6 22.51h29.9M28 151.39l.36.12.36.11.37.1.36.11.36.1.36.1.36.1.37.1.36.09.36.09.36.1.37.09.36.09.36.08.36.09.36.08.37.09.36.08.36.08.36-3.21.36.08.37.07.36.08.36.07.36.08.36.07.37.07.36.07.36.07.36.07.36.07.37.06.36.07.36.06.36.07.37.06.36.06.36.07.36.06.36.06.37.06.36.06.36.05.36.06.36.06.37.05.36.06.36.06.36.05.36.05h325.89"/><use xlink:href="#3af78__g" transform="matrix(3.75 0 0 3.75 240.55 151.91)"/><use xlink:href="#3af78__g" transform="matrix(3.75 0 0 3.75 220.55 22.51)"/></g><text stroke-linecap="round" stroke-linejoin="round" color="#000" font-family="KaTeX_Main" font-size="8" transform="translate(241.1 40.11)"><tspan>RedBlackBottomUp</tspan></text><g fill="none" stroke="currentColor" stroke-linecap="round" stroke-linejoin="round" color="#000"><path stroke="#F44336" d="M205.6 37.51h29.9M28 144.96l.36-2.9.36.1.37.11.36.11.36.1.36.1.36.1.37.1.36.09.36.09.36.1.37.09.36.08.36.09.36.09.36.08.37.08.36.09.36.08.36.08.36.07.37.08.36.08.36.07.36.07.36.08.37.07.36.07.36.07.36.07.36.06.37.07.36.07.36.06.36.06.37.07.36.06.36.06.36.06.36.06.37.06.36.06.36.06.36.06.36.05.37.06.36.06.36.05.36.06.36-2.85h72.79l.36 2.9h6.88l.36-2.9h243.69l.36-2.79h1.45"/><use xlink:href="#3af78__a" color="#F44336" transform="matrix(3.75 0 0 3.75 298.12 142.85)"/><use xlink:href="#3af78__a" color="#F44336" transform="matrix(3.75 0 0 3.75 220.55 37.51)"/></g><path fill="none" d="M28 60.01V162.5M371.99 60.01H28" color="#000"/></svg>