<svg xmlns="http://www.w3.org/2000/svg" xmlns:xlink="http://www.w3.org/1999/xlink" viewBox="0 0 400 200"><path fill="none" d="M0 0h400v200H0z"/><defs><use xlink:href="#fbbec__a" id="fbbec__b" fill="currentColor" stroke="none"/><use xlink:href="#fbbec__a" id="fbbec__c" stroke="currentColor" transform="rotate(180)"/><path id="fbbec__a" stroke="currentColor" stroke-width=".267" d="m0-1.33-1.33 2h2.66z"/></defs><path fill="none" stroke="#CCC" stroke-linecap="round" stroke-linejoin="round" stroke-width=".1" d="M46.1 162.5V45.01" class="fbbec__gridline" color="#000"/><g fill="none" stroke-linecap="round" stroke-linejoin="round" stroke-width="0" color="#000"><path d="M46.1 162.5V155m0-109.99v7.5"/><text fill="#000" font-family="KaTeX_Main" font-size="8" text-anchor="middle" transform="translate(46.1 172.6)"><tspan> 1</tspan></text></g><path fill="none" stroke="#CCC" stroke-linecap="round" stroke-linejoin="round" stroke-width=".1" d="M82.31 162.5V45.01" class="fbbec__gridline" color="#000"/><g fill="none" stroke-linecap="round" stroke-linejoin="round" stroke-width="0" color="#000"><path d="M82.31 162.5V155m0-109.99v7.5"/><text fill="#000" font-family="KaTeX_Main" font-size="8" text-anchor="middle" transform="translate(82.31 172.6)"><tspan> 2</tspan></text></g><path fill="none" stroke="#CCC" stroke-linecap="round" stroke-linejoin="round" stroke-width=".1" d="M118.52 162.5V45.01" class="fbbec__gridline" color="#000"/><g fill="none" stroke-linecap="round" stroke-linejoin="round" stroke-width="0" color="#000"><path d="M118.52 162.5V155m0-109.99v7.5"/><text fill="#000" font-family="KaTeX_Main" font-size="8" text-anchor="middle" transform="translate(118.52 172.6)"><tspan> 3</tspan></text></g><path fill="none" stroke="#CCC" stroke-linecap="round" stroke-linejoin="round" stroke-width=".1" d="M154.73 162.5V45.01" class="fbbec__gridline" color="#000"/><g fill="none" stroke-linecap="round" stroke-linejoin="round" stroke-width="0" color="#000"><path d="M154.73 162.5V155m0-109.99v7.5"/><text fill="#000" font-family="KaTeX_Main" font-size="8" text-anchor="middle" transform="translate(154.73 172.6)"><tspan> 4</tspan></text></g><path fill="none" stroke="#CCC" stroke-linecap="round" stroke-linejoin="round" stroke-width=".1" d="M190.94 162.5V45.01" class="fbbec__gridline" color="#000"/><g fill="none" stroke-linecap="round" stroke-linejoin="round" stroke-width="0" color="#000"><path d="M190.94 162.5V155m0-109.99v7.5"/><text fill="#000" font-family="KaTeX_Main" font-size="8" text-anchor="middle" transform="translate(190.94 172.6)"><tspan> 5</tspan></text></g><path fill="none" stroke="#CCC" stroke-linecap="round" stroke-linejoin="round" stroke-width=".1" d="M227.15 162.5V45.01" class="fbbec__gridline" color="#000"/><g fill="none" stroke-linecap="round" stroke-linejoin="round" stroke-width="0" color="#000"><path d="M227.15 162.5V155m0-109.99v7.5"/><text fill="#000" font-family="KaTeX_Main" font-size="8" text-anchor="middle" transform="translate(227.15 172.6)"><tspan> 6</tspan></text></g><path fill="none" stroke="#CCC" stroke-linecap="round" stroke-linejoin="round" stroke-width=".1" d="M263.36 162.5V45.01" class="fbbec__gridline" color="#000"/><g fill="none" stroke-linecap="round" stroke-linejoin="round" stroke-width="0" color="#000"><path d="M263.36 162.5V155m0-109.99v7.5"/><text fill="#000" font-family="KaTeX_Main" font-size="8" text-anchor="middle" transform="translate(263.36 172.6)"><tspan> 7</tspan></text></g><path fill="none" stroke="#CCC" stroke-linecap="round" stroke-linejoin="round" stroke-width=".1" d="M299.57 162.5V45.01" class="fbbec__gridline" color="#000"/><g fill="none" stroke-linecap="round" stroke-linejoin="round" stroke-width="0" color="#000"><path d="M299.57 162.5V155m0-109.99v7.5"/><text fill="#000" font-family="KaTeX_Main" font-size="8" text-anchor="middle" transform="translate(299.57 172.6)"><tspan> 8</tspan></text></g><path fill="none" stroke="#CCC" stroke-linecap="round" stroke-linejoin="round" stroke-width=".1" d="M335.78 162.5V45.01" class="fbbec__gridline" color="#000"/><g fill="none" stroke-linecap="round" stroke-linejoin="round" stroke-width="0" color="#000"><path d="M335.78 162.5V155m0-109.99v7.5"/><text fill="#000" font-family="KaTeX_Main" font-size="8" text-anchor="middle" transform="translate(335.78 172.6)"><tspan> 9</tspan></text></g><path fill="none" stroke="#CCC" stroke-linecap="round" stroke-linejoin="round" stroke-width=".1" d="M371.99 162.5V45.01" class="fbbec__gridline" color="#000"/><g fill="none" stroke-linecap="round" stroke-linejoin="round" stroke-width="0" color="#000"><path d="M371.99 162.5V155m0-109.99v7.5"/><text fill="#000" font-family="KaTeX_Main" font-size="8" text-anchor="middle" transform="translate(371.99 172.6)"><tspan> 10</tspan></text></g><g fill="none" stroke-linecap="round" stroke-linejoin="round" stroke-width="0" color="#000"><path d="M371.99 162.5h-7.5"/><text fill="#000" font-family="KaTeX_Main" font-size="8" transform="translate(378.99 165.1)"><tspan>0.890</tspan></text></g><g fill="none" stroke-linecap="round" stroke-linejoin="round" stroke-width="0" color="#000"><path d="M371.99 145.72h-7.5"/><text fill="#000" font-family="KaTeX_Main" font-size="8" transform="translate(378.99 148.32)"><tspan>0.900</tspan></text></g><g fill="none" stroke-linecap="round" stroke-linejoin="round" stroke-width="0" color="#000"><path d="M371.99 128.93h-7.5"/><text fill="#000" font-family="KaTeX_Main" font-size="8" transform="translate(378.99 131.53)"><tspan>0.910</tspan></text></g><g fill="none" stroke-linecap="round" stroke-linejoin="round" stroke-width="0" color="#000"><path d="M371.99 112.15h-7.5"/><text fill="#000" font-family="KaTeX_Main" font-size="8" transform="translate(378.99 114.75)"><tspan>0.920</tspan></text></g><g fill="none" stroke-linecap="round" stroke-linejoin="round" stroke-width="0" color="#000"><path d="M371.99 95.36h-7.5"/><text fill="#000" font-family="KaTeX_Main" font-size="8" transform="translate(378.99 97.96)"><tspan>0.930</tspan></text></g><g fill="none" stroke-linecap="round" stroke-linejoin="round" stroke-width="0" color="#000"><path d="M371.99 78.58h-7.5"/><text fill="#000" font-family="KaTeX_Main" font-size="8" transform="translate(378.99 81.18)"><tspan>0.940</tspan></text></g><g fill="none" stroke-linecap="round" stroke-linejoin="round" stroke-width="0" color="#000"><path d="M371.99 61.79h-7.5"/><text fill="#000" font-family="KaTeX_Main" font-size="8" transform="translate(378.99 64.39)"><tspan>0.950</tspan></text></g><g fill="none" stroke-linecap="round" stroke-linejoin="round" stroke-width="0" color="#000"><path d="M371.99 45.01h-7.5"/><text fill="#000" font-family="KaTeX_Main" font-size="8" transform="translate(378.99 47.61)"><tspan>0.960</tspan></text></g><path fill="none" d="M28 45.01V162.5M371.99 45.01H28" color="#000"/><text stroke-linecap="round" stroke-linejoin="round" stroke-width="0" color="#000" font-family="KaTeX_Main" font-size="10" text-anchor="middle" transform="rotate(-90 57.63 46.13)"><tspan font-weight="bold">Average Path Length </tspan><tspan> / log</tspan><tspan dy="3" font-size="8">2</tspan><tspan dy="-3">(Size)</tspan></text><text stroke-linecap="round" stroke-linejoin="round" stroke-width="0" color="#000" font-family="KaTeX_Main" font-size="10" text-anchor="middle" transform="translate(199.99 195.75)"><tspan>Operations / 10</tspan><tspan dy="-5" font-size="8">6</tspan></text><text stroke-linecap="round" stroke-linejoin="round" stroke-width=".5" color="#000" font-family="KaTeX_Main" font-size="8" transform="translate(99.2 10.11)"><tspan>AVLBottomUp</tspan></text><g fill="none" stroke="currentColor" stroke-linecap="round" stroke-linejoin="round" stroke-width=".5" color="#000"><path stroke="#000" d="M63.7 7.51h29.9M28 153.42l.36.45.36.47.37-.46.36-1.1.36-1.02.36-.95.36-.87.37-.81.36-.74.36-.69.36-.63.37-.58.36-.52.36-.49.36-.44.36-.4.37-.36.36-.33.36-.29.36-.26.36-.23.37-.2.36-.17.36-.15.36-.12.36-.1.37-.08.36-.05.36-.04.36-.02h.36l.37.01.36.03.36.05.36.06.37.08.36.08.36.1.36.12.36.12.37.13.36.14.36.16.36.16.36.17.37.18.36.19.36.19.36.2.36.21.37-.08.36-.07.36.08.36-.24.37.27.36-.1.36-.07.36-.41.36-.75.37 1.17.36-1 .36-.05.36-.18.36-.79.37-.93.36-.73.36-1.09.36-1.26.36-.23.37 1.97.36-.88.36-1.12.36.86.37-.95.36-.04.36-.32.36-.68.36-.91.37-.91.36-.95.36-1.27.36-.18.36-.93.37-1.26.36-1.59.36-.93.36.04.36-.5.37-.75.36 4.69.36-.83.36-.92.36-.92.37-1.34.36-.51.36 2.25.36-1 .37-.91.36-.63.36.55.36-.14.36-.5.37 17.9.36.05.36-.03.36-.11.36-.42.37.28.36.29.36-.5.36-.51.36-.34.37.67.36-.14.36-.53.36-.48.37-.84.36-.83.36-.92.36-1.42.36-.49.37-.54.36 1.88.36-.95.36-.71.36.55.37-.84.36.19.36-.51.36-.89.36-1.08.37-.57.36-1.4.36-.45.36-.65.36-1.18.37-1.33.36-1.35.36.22.36-1.25.37-.19.36 4.69.36-.83.36-1.18.36-.5.37-1.31.36-.52.36-.74.36 1.93.36-.83.37-.94.36.66.36-.93.36-.07.36 17.94.37-.13.36-.11.36.22.36-.35.37.28.36-.06.36-.16.36-.34.36-.49.37.84.36-.87.36-.15.36-.12.36-.94.37-.91.36-.75.36-1.11.36-.56.36-.95.37 2.05.36-.83.36-.83.36.55.36-1.01.37-.05.36-.13.36-.85.36-.95.37-.71.36-1.11.36-.55.36-.92.36-.93.37-1.34.36-1.49.36.43.36-1.42.36-.44.37-.64.36 4.69.36-.92.36-.92.36-.99.37-1.19.36-.23.36 1.93.36-.83.37-1.1.36-.57.36.46.36-.09.36-.32.37 17.89h.36l.36-.09.36-.07.36-.41.37.27.36.27.36-.58.36-.53.36-.19.37.54.36-.13.36-.31.36-.76.37-.76.36-.92.36-.91.36-1.29.36-.56.37 2.24.36-.96.36-.9.36-.75.36.61.37-.16.36-.49.36-.53.36-.84.36-.82.37-.93.36-1.42.36-.49.36-.53.36-1.28.37-1.33.36-1.17.36.12.36-.55.37-.92.36 4.77.36-.91.36-1.11.36-.56.37-1.42.36-.45.36-.62.36 1.93.36-.92.37-.93.36.63.36-.77.36.2.36 17.69.37.01.36-.26.36.28.36-.5.37.35.36.08.36-.24.36-.45.36-.54.37.86.36-.83.36-.15.36-.16.36-.98.37-.99.36-.55.36-1.25.36-.57.36-.72.37 1.93.36-.84.36-.91.36.59.36-.88.37-.14.36-.12.36-.96.36-.9.37-.74.36-1.09.36-.57.36-.94.36-.95.37-1.25.36-1.26.36.13.36-1.25.36-.65.37-.51.36 4.6.36-.91.36-.73.36-1.13.37-.54.36-.93.36 2.03.36-.92.37-1.09.36.85.36-.97.36-.05.36-.21.37 17.94.36-.08.36-.07.36-.16.36-.36.37.63.36-.11.36-.42.36-.68.36 1.2.37-.93.36-.07.36-.32.36-.69.36-.87.37-.96.36-.91.36-1.24.36-.22.37 1.92.36-1 .36-.99.36-.54.36.5.37-.15.36-.28.36-.68.36-.83.36-.92.37-.92.36-1.34.36-.5.36-.57.36-1.41.37-1.32.36-1.07.36.13.36-.58.37-.93.36 4.78.36-.82.36-.83.36-.94.37-1.26.36-.56.36-.58.36 1.85.36-.94.37-.73.36.55.36-.12.36-.51.36 17.86.37-.08.36-.25.36.25.36-.55.37.38.36.22.36-.35.36-.51.36-.31.37.57.36-.76.36.18.36-.49.36-.87.37-1.13.36-.54.36-1.36.36-.47.36-.75.37 1.97.36-.88.36-.91.36.63.36-.83.37.22.36-.5.36-1.01.36-.99.37-.54.36-1.28.36-.55.36-.72.36-1.1.37-1.25.36-1.34.36.19.36-1.32.36-.52.37 5 .36-1 .36-.9.36-.64.36-1.18.37-.57.36-.92.36 2 .36-.77.37-.88.36.54.36-.82.36-.14.36-.15.37 17.91.36-.07.36.08.36-.24.36.27.37-.1.36-.07.36-.4.36-.76.36 1.17.37-1 .36-.05.36-.18.36-.79.36-.93.37-.72.36-1.1.36-1.26.36-.23.37 1.97.36-.87.36-1.13.36.87.36-.96.37-.04.36-.32.36-.68.36-.91.36-.91.37-.95.36-1.26.36-.19.36-.93.36-1.25.37-1.59.36-.94.36.05.36-.51.37-.74.36 4.68.36-.83.36-.92.36-.91.37-1.35.36-.51.36 2.25.36-1 .36-.92.37-.62.36.55.36-.14.36-.5.36 17.9.37.05.36-.03.36-.12.36-.41.37.29.36.28.36-.5.36-.51.36-.33.37.67.36-.14.36-.53.36-.49.36-.84.37-.82.36-.93.36-1.41.36-.5.36-.54.37 1.89.36-.96.36-.71.36.55.36-.83.37.18.36-.51.36-.88.36-1.08.37-.58.36-1.39.36-.46.36-.64.36-1.18.37-1.34.36-1.35.36.23.36-1.25.36-.2.37 4.69.36-.83.36-1.17.36-.51.36-1.33.37-.5.36-.73.36 1.92.36-.83.37-.93.36.65.36-.92.36-.08.36 17.94.37-.12.36-.11.36.21.36-.34.36.27.37-.06.36-.16.36-.34.36-.49.36.85.37-.88.36-.14.36-.13.36-.94.36-.91.37-.75.36-1.1.36-.57.36-.95.37 2.05.36-.83.36-.83.36.55.36-1 .37-.06.36-.13.36-.85.36-.95.36-.71.37-1.11.36-.55.36-.92.36-.93.36-1.33.37-1.5.36.43.36-1.42.36-.43.37-.64.36 4.68.36-.92.36-.92.36-.98.37-1.2.36-.23.36 1.93.36-.83.36-1.09.37-.58.36.46.36-.09.36-.31.36 17.88h.37l.36-.09.36-.06.36-.42.36.27.37.27.36-.58.36-.53.36-.19.37.55.36-.14.36-.31.36-.75.36-.77.37-.91.36-.91.36-1.3.36-.57.36 2.25.37-.95.36-.91.36-.75.36.62.36-.17.37-.49.36-.53.36-.83.36-.83.37-.93.36-1.42.36-.48.36-.54.36-1.28.37-1.37.36-1.13.36.13.36-.55.36-.92.37 4.76.36-.91.36-1.11.36-.55.36-1.42.37-.45.36-.63.36 1.93.36-.92.37-.92.36.62.36-.77.36.2.36 17.69.37.01.36-.26.36.28.36-.5.36.35.37.08.36-.23.36-.46.36-.53.36.85.37-.83.36-.15.36-.16.36-1 .36-.96.37-.56.36-1.25.36-.56.36-.73.37 1.93.36-.84.36-.91.36.59.36-.88.37-.14.36-.12.36-.95.36-.91.36-.74.37-1.1.36-.56.36-.93.36-.95.36-1.26.37-1.25.36.12.36-1.24.36-.66.37-.51.36 4.6.36-.9.36-.74.36-1.13.37-.54.36-.92.36 2.02.36-.92.36-1.09.37.85.36-.96.36-.06.36-.2.36 17.93.37-.08.36-.07.36-.15.36-.37.36.63.37-.11.36-.42.36-.68.36 1.2.37-.93.36-.07.36-.32.36-.68.36-.88.37-.96.36-.9.36-1.26.36-.21.36 1.93.37-1.01.36-.99.36-.54.36.51.36-.15.37-.29.36-.68.36-.83.36-.92.37-.92.36-1.33.36-.51.36-.57.36-1.4.37-1.33.36-1.06.36.12.36-.58.36-.93.37 4.78.36-.82.36-.84.36-.93.36-1.25.37-.57.36-.58.36 1.85.36-.93.36-.74.37.55.36-.12.36-.51.36 17.86.37-.08.36-.25.36.26.36-.55.36.37.37.23.36-.36.36-.51.36-.31.36.58.37-.77.36.18.36-.48.36-.88.36-1.12.37-.54.36-1.37.36-.47.36-.75.37 1.98.36-.89.36-.91.36.64.36-.84.37.22.36-.5.36-1.01.36-.98.36-.55.37-1.27.36-.56.36-.72.36-1.1.36-1.25.37-1.34.36.19.36-1.34.36-.49.37 4.99.36-.99.36-.91.36-.64.36-1.18.37-.57.36-.92.36 2 .36-.77.36-.88.37.54.36-.82.36-.14.36-.14.36 17.89.37-.06.36.08.36-.24.36.27.36-.1.37-.07.36-.4.36-.76.36 1.17.37-1 .36-.04.36-.19.36-.79.36-.93.37-.72.36-1.18.36-1.18.36-.23.36 1.97.37-.87.36-1.13.36.87.36-.96.36-.04.37-.32.36-.67.36-.92.36-.91.37-.95.36-1.26.36-.19.36-.93.36-1.25.37-1.59.36-.94.36.05.36-.51.36-.74.37 4.68.36-.83.36-.92.36-.91.36-1.34.37-.52.36 2.25.36-1 .36-.92.36-.62.37.55.36-.14.36-.5.36 17.9.37.05.36-.03.36-.11.36-.42.36.29.37.28.36-.5.36-.51.36-.33.36.67.37-.14.36-.54.36-.48.36-.83.36-.83.37-.92.36-1.42.36-.49.36-.55.37 1.88.36-.94.36-.72.36.55.36-.83.37.18.36-.51.36-.88.36-1.12.36-.54.37-1.39.36-.46.36-.64.36-1.18.36-1.33.37-1.36.36.23.36-1.25.36-.2.36 4.7.37-.84.36-1.17.36-.51.36-1.32.37-.5.36-.74.36 1.93.36-.84.36-.93.37.65.36-.92.36-.08.36 17.94.36-.12.37-.11.36.21.36-.34.36.28.36-.07.37-.16.36-.36.36-.47.36.85.37-.88.36-.14.36-.13.36-.93.36-.92.37-.75.36-1.1.36-.56.36-.96.36 2.05.37-.82.36-.84.36.55.36-1.01.36-.05.37-.13.36-.84.36-.96.36-.71.37-1.1.36-.56.36-.92.36-.92.36-1.34.37-1.5.36.43.36-1.41.36-.44.36-.64.37 4.68.36-.91.36-.92.36-.99.36-1.2.37-.22.36 1.92.36-.83.36-1.09.36-.58.37.47.36-.1.36-.31.36 17.88h.37l.36-.09.36-.06.36-.42.36.27.37.27.36-.58.36-.53"/><use xlink:href="#fbbec__b" transform="matrix(3.75 0 0 3.75 354.25 143.29)"/><use xlink:href="#fbbec__b" transform="matrix(3.75 0 0 3.75 78.65 7.51)"/></g><text stroke-linecap="round" stroke-linejoin="round" color="#000" font-family="KaTeX_Main" font-size="8" transform="translate(99.2 25.11)"><tspan>AVLWeakTopDown</tspan></text><g fill="none" stroke="currentColor" stroke-linecap="round" stroke-linejoin="round" color="#000"><path stroke="#FFAB00" stroke-dasharray="4.5,2.0,0.5,2.0,0.5,2.0" d="M63.7 22.51h29.9M28 153.42l.36.45.36.44.37-.92.36-.75.36-2.01.36-.02.36-4.25.37 1.03.36.98.36-.68.36-.67.37-5.95.36 1.28.36 1.04.36.73.36.52.37-.59.36-1.13.36.72.36-14.1.36 2.58.37 2.79.36 1.22.36 1.12.36.67.36 1.31.37 1.28.36 1.04.36.65.36-.26.36-.78.37 1.07.36.05.36-1.16.36 1.07.37.26.36.06.36-4.01.36 1.64.36.98.37 1.16.36.88.36-.2.36-.6.36 1.26.37.16.36-.96.36 1.13.36.34.36.33.37-1.26.36.62.36.5.36-.17.37.27.36-.3h.36l.36-.31.36-.72.37 1.11.36-1.09.36-.39.36.31.36-.8.37-1.47.36-.32.36-.99.36-1.23.36-2.06.37 2.62.36-.53.36-.63.36 1.2.37-1.16.36.18.36-.36.36-.65.36-4.82.37-.07.36-.45.36-.77.36-.05.36-.25.37-.92.36-1.1.36-.51.36.06.36-.5.37-.84.36 4.77.36-1.46.36-.52.36-.68.37-1.4.36-9.69.36 3.4.36-.32h.37l.36.32.36.95.36.28.36-.18.37-3.69.36-.13.36.81.36.56.36-.1.37.43.36 1.09.36-.34.36.17.36.09.37 1.08.36.29.36-.29H70l.37-1.04.36.04.36-.25.36-1.11.36-2.18.37.78.36 2.72.36-.12.36.12.36 1.07.37-.38.36.32.36 11.38.36-4.4.36.68.37 1.02.36-.33.36.42.36 1.18.36.11.37-.13.36-.03.36 1.15.36-.33.37.37.36 5.79.36-.89.36.16.36.75.37-.48.36.34.36-1.43.36 3.27.36.42.37.32.36 1.71.36-.12.36.49.36 1 .37-1.14.36.39.36.72.36-.35.37.26.36-.16.36-.09.36-.28.36-.5.37.85.36-.96.36-.43.36.22.36-2.04.37-.26.36-.34.36-1.04.36-.56.36-2.67.37 2.54.36-.33.36-.42.36.83.36-1.11.37-.37.36.32.36-.84.36-4.75.37.12.36-.6.36-.11.36-.75.36-.26.37-.97.36-1.02.36.77.36-1.61.36-.82.37-.1.36 4.72.36-1.53.36-.45.36-.92.37-1.12.36-9.29.36 3.02.36-.11.37-.15.36.26.36.59.36.61.36.04.37-3.7.36-.19.36.74.36.42.36.11.37.42.36.93.36-.24.36-.04.36.31.37.96.36.27.36.02.36-.26.37-.97.36-.06.36-.26.36-.95.36-2.16.37 3.44.36-.33.36.16.36.1.36 1.07.37.26.36-.22.36 11.21.36-4.07.36.85.37.6.36-.26.36.45.36 1.18.36-.02.37-.1.36.13.36 1.05.36.28.37-.3.36 5.85.36-.88.36.23.36.61.37-.76.36-1.79.36 1.16.36 3.21.36.31.37.36.36 1.55.36.13.36.8.36.56.37-.89.36.24.36.68.36-.76.37.6.36.02.36-.17.36-.45.36-.54.37.73.36-.73.36-.42.36.08.36-1.93.37-.47.36-.06.36-1.26.36-.57.36-2.33.37 2.45.36-.39.36-.56.36.89.36-.95.37-.41.36.21.36-5.67.36.1.37.14.36-.64.36-.14.36-.67.36-.45.37-.76.36-.84.36.39.36-1.35.36-.96.37-.09.36 4.61.36-1.41.36-.32.36-1.05.37-.55.36-9.82.36 3.1.36-.13.37-.19.36 1.58.36-.71.36.01.36.73.37-3.73.36-.21.36.8.36.33.36.12.37.8.36.56.36-.1.36-.18.36 1.61.37-.72.36.6.36.04.36-.21.36-1.05.37-.11.36-.43.36-.74.36-1.72.37 3.01.36-.27.36-.07.36.36.36.92.37.27.36.02.36 11.14.36-4 .36.71.37.6.36-.12.36.49.36 1.02.36-.33.37.01.36.32.36 1 .36.2.37-.18.36 5.7.36-.59.36.42.36.16.37-.54.36-1.75.36 1.09.36 2.82.36.63.37.53.36 1.46.36.72.36.13.36.57.37-.85.36.2.36.57.36-.71.37.03.36.73.36-.37.36-.52.36-.29.37.54.36-.73.36-.05.36-.25.36-1.73.37-.63.36-.2.36-1.57.36-.24.36-2.24.37 2.46.36-.47.36-.49.36.71.36-.76.37-.07.36-.23.36-5.5.36-.08.37.34.36-.85.36-.14.36-.4.36-.59.37-.82.36-.96.36.44.36-1.39.36-.77.37 5.33.36-2.04.36-.42.36-.11.36-1.15.37-.62.36-9.58.36 2.93.36.13.37-.03.36 1.21.36-.52h.36l.36.68.37-4.94.36 1.05.36.92.36.26.36.69.37.12.36.42.36.11.36-.3.36 1.53.37-.66.36.03.36.73.36-.38.36-1.06.37.11.36-.65.36-.72.36-1.65.37 3.04.36-.11.36-.2.36 1.62.36-.74.37.6.36.06.36 11.14.36-3.98.36.77.37.4.36.07.36.79.36.6.36-.08.37-.26.36.35.36.88.36.34.37.01.36 5.61.36-.63.36.34.36.16.37-.56.36-1.63.36 3.83.36.09.36.42.37.74.36 1.37.36.7.36.24.36.35.37-.55.36.39.36.13.36-.52.37.01.36.67.36-.76.36-.26.36-.32.37.66.36-.14.36-.72.36-.41.36-1.46.37-.38.36-.67.36-1.53.36-2.61.36.36.37 2.3.36-.53.36-.3.36.64.36-.81.37-.09.36-.23.36-5.24.36-.21.37.23.36-1.17.36-.43.36.33.36-.72.37-.98.36-.86.36.3.36-1.17.36-.48.37 4.95.36-1.73.36-.68.36-.09.36-1.32.37-.5.36-9.25.36 2.84h.36l.37-.1.36 1.29.36-.54.36.07.36-3.4.37-.71.36.81.36 1.14.36.06.36.69.37.26.36.33.36.12.36-.05.36 1.27.37-.55h.36l.36.64.36-1.63.36.17.37.09.36-.62.36-.14.36-2.26.37 2.96.36.1h.36l.36 1.25.36-.7.37.06.36.75.36 11 .36-3.91.36.96.37.25.36.73.36.08.36.59.36-.12.37-.18.36 1.61.36-.76.36.02.37.74.36 5.56.36-.7.36.4.36-.07.37-.29.36-1.28.36 3.43.36.32.36.27.37.68.36 1.01.36 1.04.36.45.36.22.37-.62.36.32h.36l.36-.3.36-.01.37.58.36-.73.36-.46.36-.11.37.53.36-.15.36-.4.36-.67.36-1.4.37-.48.36-.67.36-1.38.36-2.58.36 3.01.37-.74.36-.26.36-.33.36.65.36-.15.37-.65.36-.46.36-4.91h.36l.37-.23.36-1.11.36-.39.36.34.36-.86.37-.95.36-.72.36.22.36-.56.36-1.14.37 5.01.36-1.73.36-.61.36-.24.36-1.59.37-9.98.36.74.36 2.79.36-.12.37-.04.36 1.12.36-.29.36.38.36-3.72.37-.47.36.67.36 1.1.36-.34.36 1.01.37.45.36.26.36-.04.36-.12.36 1.16.37-.32.36.01.36.5.36-1.51.36-.04.37.36.36-.84.36-.16.36-1.91.37 2.87.36.04.36-.14.36 1.31.36-.53.37.01.36 11.7.36-4.84.36.99.36.95.37.19.36.69.36.19.36.39.36.09h.37l.36 1.23.36-.51.36-.12.37.75.36 5.46.36-.57.36.52.36-.21.37.3.36-1.88.36 3.52.36.28.36.24.37 2 .36-.28.36.43.36 1.14.36.06.37-.63.36.38.36-.09.36-.3.36.38.37.14.36-.52.36-.6.36 1.18.37-1.14.36.18.36-.38.36-.63.36-1.47.37-.53.36-.85.36-1.16.36-2.15.36 2.6.37-.7.36-.48.36-.07.36.51.36-.16.37-.4.36-.59.36-4.84.36-.13.37-.23.36-.98.36-.35.36.18.36-1.17.37-.85.36-.51.36.16.36-.64.36-1.02.37 4.86.36-1.44.36-.42.36-.68.36-1.38.37-9.88.36.68.36 2.39.36.21.36.11.37 1.04.36.3.36-.29.36-3.59.37-.43.36.62.36 1 .36-.29.36.45.37 1.14.36.06.36-.1.36.14.36.95.37-.31.36.38.36.17.36-1.32.36-.2.37.23.36-1.16.36.18.36-1.82.37 2.88.36-.05.36-.1.36 1.17.36-.33.37.34.36 11.32.36-4.66.36.76.36 1.18h.37l.36.7.36.44.36.25.36.03.37-.11.36 1.27.36-.55.36.07.37 6.18.36-1.2.36.42.36.74.36-.31.37.22.36-1.71.36 3.35.36.56.36.39.37 1.63.36-.1.36.43.36 1.09.36-1.27.37.62.36.52.36-.17.36.27.36-.3h.37l.36-.31.36-.72.36 1.11.37-1.09.36-.39.36.31.36-.8.36-1.47.37-.33.36-1.06.36-1.15.36-2.06.36 2.62.37-.53.36-.63.36 1.2.36-1.16.36.18.37-.37.36-.63.36-4.83.36-.07.37-.45.36-.76.36-.06.36-.25.36-1.09.37-.92.36-.5.36.05.36-.51.36-.83.37 4.76.36-1.47.36-.5.36-.68.36-1.41.37-9.69.36 3.41.36-.33h.36l.36.32.37.95.36.28.36-.18.36-3.67.37-.15.36.81.36.56.36-.1.36.42.37 1.1.36-.34.36.16.36.1.36 1.09.37.28.36-.3.36.01.36-1.04.36.04.37-.25.36-1.11.36-2.18.36.78.37 2.72.36-.11.36.11.36 1.07.36-.39.37.33.36 11.38.36-4.4.36.64.36 1.05.37-.31.36.41.36 1.18.36.11.36-.13.37-.03.36 1.15.36-.33.36.37.36 5.79.37-.89.36.16.36.75.36-.48.37.34.36-1.43.36 3.27.36.42.36.32.37 1.71.36-.12.36.49.36 1 .36-1.14.37.39.36.72.36-.36.36.27.36-.16.37-.09.36-.3.36-.47.36.85.37-.97.36-.42.36.21.36-2.04.36-.26.37-.33.36-1.04.36-.56.36-2.68.36 2.54.37-.32.36-.39.36.79.36-1.12.36-.38.37.35.36-.84.36-4.76.36.12.37-.6.36-.11.36-.76.36-.25.36-.96.37-1.02.36.76.36-1.6.36-.82.36-.11.37 4.72.36-1.54.36-.44.36-.91.36-1.13.37-9.29.36 3.02.36-.11.36-.15.36.25.37.6.36.62.36.03.36-3.7.37-.19.36.74.36.41.36.04.36.5.37 1 .36-.31.36-.04"/><use xlink:href="#fbbec__c" color="#FFAB00" transform="matrix(3.75 0 0 3.75 67.83 120.87)"/><use xlink:href="#fbbec__c" color="#FFAB00" transform="matrix(3.75 0 0 3.75 78.65 22.51)"/></g><text stroke-linecap="round" stroke-linejoin="round" color="#000" font-family="KaTeX_Main" font-size="8" transform="translate(241.1 10.11)"><tspan>AVLRelaxedBottomUp</tspan></text><g fill="none" stroke="currentColor" stroke-linecap="round" stroke-linejoin="round" color="#000"><path stroke="#D336C8" d="M205.6 7.51h29.9M28 153.42l.36.45.36.47.37-.46.36-1.1.36-1.02.36-.95.36-.87.37-.81.36-.74.36-.69.36-.63.37-.58.36-.52.36-.49.36-.44.36-.4.37-.36.36-.33.36-.29.36-.26.36-.23.37-.2.36-.17.36-.15.36-.12.36-.1.37-.08.36-.05.36-.04.36-.02h.36l.37.01.36.03.36.05.36.06.37.08.36.08.36.1.36.12.36.12.37.13.36.14.36.16.36.16.36.17.37.18.36.19.36.19.36.2.36.21.37-.12.36-.12.36-.63.36.38.37-.29.36-.97.36 1.54.36-.76.36-.71h.37l.36-1.46.36-1.32.36-2.12.36 4.35.37-.94.36-1.42.36-.47.36-1.79.36-1.15.37.55.36-1.46.36-1.47.36-.82.37-1.8.36-1.75.36-2.5.36 9.37.36-.66.37-1.44.36-.45.36-1.64.36-1.19.36.49.37-1.43.36-1.46.36-2.13.36-.5.36-1.8.37-2.32.36 3.42.36-1.14.36-1.78.36-1.04.37-1.89.36-1.9.36.25.36-1.88.37-1.72.36-2.48.36-1.01.36-2.18.36-2.82.37 20.02.36-1.29.36-.75.36-.58.36-1.44.37-1.43.36.52.36-1.41.36-1.39.36-1.9.37-.87.36-1.52.36-2.27.36 3.26.37-1.63.36-1.23.36-1.04.36-1.89.36-1.74.37-2.52.36.78.36-1.77.36-2.29.36-1.3.37-2.67.36-1.97.36 8.29.36-1.46.36-1.45.37-.83.36-1.81.36-1.75.36-2.44.36.36.37-1.49.36-2.3.36-1.24.36-2.54.37-2.03.36 2.52.36-1.85.36-1.9.36-2.57.37-.88.36-2.23.36-2.72.36-.07.36-1.96.37-2.64.36-1.73.36-2.91.36-2.72.36 81.22.37-.16.36-.09.36-.8.36.68.37-.5.36-1.16.36 1.69.36-.86.36-.33.37-.31.36-1.48.36-1.42.36 3.3.36-.93.37-1.05.36-1.47.36-.46.36-1.09.36-1.87.37.74.36-1.64.36-1.22.36-.97.36-1.97.37-1.73.36-2.54.36 9.89.36-.97.37-1.44.36-.46.36-1.15.36-1.83.36.58.37-1.48.36-1.45.36-.82.36-1.82.36-1.75.37-2.45.36 3.8.36-1.39.36-1.88.36-.82.37-2.1.36-1.64.36.1.36-1.86.37-1.84.36-2.66.36-.87.36-2.23.36-2.73.37 20.15.36-.69.36-1.37.36-.46.36-1.6.37-1.54.36.72.36-1.46.36-1.32.36-2.11.37-.54.36-1.78.36-2.27.36 3.27.37-1.72.36-1.16.36-.97.36-1.91.36-1.84.37.15.36-1.8.36-1.75.36-2.48.36-1.29.37-1.93.36-2.69.36 8.58.36-1.64.36-1.22.37-.97.36-2 .36-1.73.36-2.56.36.87.37-1.79.36-2.31.36-1.3.36-1.99.37-2.61.36 2.59.36-1.89.36-1.89.36-1.19.37-2.29.36-2.16.36-2.9.36.3.36-2.25.37-2.74.36-1.66.36-2.94.36-2.44.36 81.41.37-.17.36-.17.36.38.36-.55.37-.55.36-1.05.36 1.66.36-.3.36-.97.37-.26.36-1.61.36-1.57.36 3.58.36-1.03.37-.9.36-1.67.36-.15.36-1.35.36-1.86.37.76.36-1.82.36-1.13.36-.98.36-1.88.37-1.89.36 8.51.36-.97.36-.9.37-1.67.36-.43.36-1.07.36-1.87.36.76.37-1.68.36-1.2.36-.98.36-1.85.36-1.89.37-2.56.36 4.04.36-1.37.36-1.91.36-.87.37-1.56.36-2.2.36.25.36-2.06.37-1.88.36-1.19.36-2.27.36-2.18.36-2.9.37 20.7.36-.92.36-1.57.36-.36.36-1.72.37-1.16.36.5.36-1.44.36-1.44.36-.85.37-1.77.36-1.88.36-2.32.36 3.47.36-1.09.37-1.86.36-.85.36-2.05.36-1.64.37-.02.36-1.88.36-1.74.36-2.53.36-.98.37-2.2.36-2.69.36 8.74.36-1.16.36-1.81.37-.96.36-1.89.36-1.87.36.16.36-1.81.37-1.75.36-2.45.36-1.37.36-1.9.37-2.72.36 2.92.36-2.12.36-1.6.36-1.39.37-2.28.36-2.26.36-3.07.36.49.36-2.23.37-2.72.36-1.74.36-2.38.36-3.07.36 81.95.37-.4.36-.2.36.51.36-.6.37-.47.36-1.25.36 2.03.36-.51.36-1.01.37-.41.36-1.71.36-1.17.36 3.45.36-1.07.37-1 .36-.43.36-1.36.36-1.49.36-1.89.37.82.36-1.08.36-1.84.36-.87.36-2.06.37-1.64.36 8.53.36-1.14.36-.89.37-1.7.36-.09.36-1.39.36-1.86.36.77.37-1.15.36-1.84.36-.96.36-1.88.36-1.88.37 3.02.36-1.43.36-1.32.36-2.05.36-.61.37-1.82.36-2.3.36.37.36-2.1.37-1.64.36-1.38.36-2.29.36-2.26.36-3.1.37 21.1.36-.96.36-1.47.36-.46.36-1.13.37-1.81.36.69.36-1.6.36-1.55.36-.72.37-1.88.36-1.74.36-2.54.36 3.93.36-1.36.37-1.85.36-.88.36-2.22.36-1.57.37.13.36-1.88.36-1.89.36-1.24.36-2.23.37-2.16.36-2.92.36 8.94.36-1.08.36-1.86.37-.87.36-2.06.36-1.64.36.09.36-1.84.37-1.89.36-2.55.36-.92.36-2.21.37-2.75.36 3 .36-1.56.36-2.2.36-1.47.37-2.31.36-2.31.36-.18.36-2.29.36-2.16.37-2.88.36-1.44.36-2.61.36-3.23.36 82.44.37-.44.36.09.36.27.36-.6.37-.59.36 1.36.36-.57.36-.54.36-1.06.37-.39.36-1.14.36-1.81.36 3.68.36-1.2.37-.81.36-.62.36-1.47.36-1.32.36-2.1.37 1.2.36-1.35.36-1.86.36-.89.36-2.24.37-1.56.36 8.71.36-1.04.36-1.02.37-.41.36-1.38.36-1.33.36-2.03.36.78.37-1.06.36-1.88.36-.82.36-2.12.36-1.61.37 2.94.36-1.42.36-1.49.36-2.14.36-.48.37-1.79.36-2.3.36.35.36-1.54.37-2.22.36-1.31.36-2.48.36-2.31.36 19.33.37-1.01.36-.93.36-1.64.36-.16.36-1.34.37-2 .36.84.36-1.7.36-1.17.36-.97.37-1.9.36-1.85.36 2.89.36-1.36.36-1.47.37-1.89.36-.88.36-1.51.36-2.29.37.32.36-2.06.36-1.64.36-1.48.36-2.3.37-2.16.36-2.96.36 9.47.36-1.39.36-1.86.37-.89.36-1.57.36-2.24.36.16.36-1.9.37-1.87.36-1.25.36-2.24.36-2.17.37-2.87.36 3.37.36-1.8.36-2.31.36-1.24.37-2.52.36-2.05.36-.33.36-2.28.36-2.26.37-3.08.36-1.29.36-2.65.36-3.15.36 82.76.37.15.36-.55.36.41.36-.76.36-.7.37 1.56.36-.62.36-.47.36-1.27.37-.13.36-1.35.36-1.85.36 3.69.36-1.29.37-.74.36-.55.36-1.49.36-1.43.36.58.37-1.38.36-1.33.36-2.05.36-.87.36-1.51.37-2.28.36 9 .36-1.21.36-.8.37-.56.36-1.57.36-1.3.36-2.14.36 1.28.37-1.4.36-1.85.36-.88.36-1.57.36-2.19.37 3.01.36-1.47.36-1.46.36-.78.36-1.86.37-1.74.36-2.48.36.72.36-1.83.37-2.31.36-1.24.36-2.53.36-2.01.36 19.33.37-1.02.36-1.01.36-.45.36-1.4.36-1.39.37-1.89.36.81.36-1.13.36-1.81.36-.87.37-2.03.36-1.99.36 3.16.36-1.47.36-1.3.37-2.1.36-.57.36-1.77.36-2.28.37.34.36-2.23.36-1.57.36-1.39.36-2.3.37-2.32.36 8.09.36-1.39.36-1.32.36-2.09.37-.86.36-1.49.36-2.29.36.35.36-2.11.37-1.61.36-1.41.36-2.27.36-2.31.37-2.98.36 3.62.36-1.79.36-2.33.36-1.29.37-1.99.36-2.62.36-.34.36-2.31.36-2.3.37-1.61.36-2.69.36-2.61.36-3.32.36 83.5.37-.08.36-.72.36.47.36-.87.36-.32.37 1.34.36-.6.36-.59.36-.08.37-1.34.36-1.46.36-1.89.36 3.89.36-.68.37-1.44.36-.42.36-1.64.36-1.22.36.41.37-1.46.36-1.32.36-2.11.36-.56.36-1.77.37-2.29.36 9.17.36-.73.36-1.39.37-.54.36-1.47.36-1.45.36.58.36-1.39.37-1.32.36-2.03.36-.95.36-1.48.36-2.3.37 3.35.36-1.71.36-1.18.36-.97.36-1.86.37-1.83.36-2.65.36.91.36-1.81.36-2.3.37-1.32.36-1.96.36-2.65.36 19.7.37-1.24.36-1.04.36-.34.36-1.43.36-1.36.37-2.05.36 1.18.36-1.35.36-1.85.36-.95.37-2.13.36-1.59.36 3.02.36-1.48.36-1.43.37-.85.36-1.78.36-1.9.36-2.32.37.4.36-1.5.36-2.27.36-1.28.36-2.48.37-2.06.36 8.1.36-1.56.36-1.3.36-2.13.37-.51.36-1.81.36-2.29.36.35.36-1.56.37-2.26.36-1.38.36-2.32.36-2.29.37 2.6.36-1.85.36-1.74.36-2.47.36-1.03.37-2.24.36-2.73.36-.04.36-2.53.36-2.05.37-1.81.36-2.71.36-2.68.36-3.52.36 84.06.37-.11.36-.63.36.39.36-.3.36-.96.37 1.53.36-.76.36-.71.36.01.37-1.46.36-1.32.36-2.12.36 4.35.36-.94.37-1.43.36-.54.36-1.71.36-1.15.36.55.37-1.46.36-1.47.36-.82.36-1.8.36-1.75.37-2.49.36 9.36.36-.67.36-1.43.37-.45.36-1.64.36-1.21.36.5.36-1.42.37-1.46.36-2.13.36-.5.36-1.79.36-2.32.37 3.41.36-1.14.36-1.78.36-1.04.36-1.89.37-1.89.36.24.36-1.87.36-1.74.36-2.48.37-1 .36-2.18.36-2.82.36 20.01.37-1.28.36-.75.36-.58.36-1.44.36-1.43.37.52.36-1.41.36-1.39.36-1.9.36-.87.37-1.56.36-2.23.36 3.25.36-1.62.36-1.23.37-1.04.36-1.89.36-1.74.36-2.52.37.78.36-1.77.36-2.28.36-1.31.36-2.66.37-1.98.36 8.29.36-1.46.36-1.49.36-.79.37-1.81.36-1.75.36-2.44.36.36.36-1.49.37-2.3.36-1.24.36-2.54.36-2.03.36 2.52.37-1.85.36-1.9.36-2.56.36-.91.37-2.21.36-2.72.36-.07.36-1.96.36-2.64.37-1.73.36-2.91.36-2.72.36 81.21.36-.16.37-.08.36-.8.36.68.36-.5.36-1.16.37 1.68.36-.87.36-.31.36-.32.37-1.47.36-1.43.36 3.31.36-.93.36-1.05.37-1.47.36-.46.36-1.09.36-1.87.36.74.37-1.64.36-1.22.36-1.05.36-1.9.36-1.72.37-2.54.36 9.89.36-.97.36-1.44.37-.46.36-1.15.36-1.83.36.58.36-1.48.37-1.45.36-.82.36-1.82.36-1.75.36-2.45.37 3.45.36-1.04.36-1.88.36-.83.36-2.09.37-1.64.36.1.36-1.86.36-1.84.36-2.65.37-.88.36-2.23.36-2.72.36 20.14.37-.69.36-1.39.36-.45.36-1.59.36-1.54.37.71.36-1.45.36-1.32"/><use xlink:href="#fbbec__a" color="#D336C8" transform="matrix(3.75 0 0 3.75 125.4 142.85)"/><use xlink:href="#fbbec__a" color="#D336C8" transform="matrix(3.75 0 0 3.75 220.55 7.51)"/></g><text stroke-linecap="round" stroke-linejoin="round" color="#000" font-family="KaTeX_Main" font-size="8" transform="translate(241.1 25.11)"><tspan>AVLRelaxedTopDown</tspan></text><g fill="none" stroke="currentColor" stroke-linecap="round" stroke-linejoin="round" color="#000"><path stroke="#9F650D" stroke-dasharray="4.0,2.0,1.0,2.0" d="M205.6 22.51h29.9M28 153.42l.36.45.36.44.37-.92.36-.75.36-2.01.36-.02.36-4.25.37 1.03.36.98.36-.68.36-.67.37-5.95.36 1.28.36 1.04.36.73.36.52.37-.59.36-1.13.36.72.36-14.1.36 2.58.37 2.79.36 1.22.36 1.12.36.67.36 1.31.37 1.28.36 1.04.36.65.36-.26.36-.78.37 1.07.36.05.36-1.16.36 1.07.37.26.36.06.36-4.01.36 1.64.36.98.37 1.16.36.88.36-.2.36-.6.36 1.26.37.16.36-.96.36 1.13.36.34.36.33.37-1.31.36.58.36-.22.36.46.37-.29.36-1.17.36 1.61.36-.66.36-.68.37-.06.36-1.55.36-1.66.36-1.63.36 4.34.37-1.48.36-1.01.36-.36.36-1.77.36-2.98.37 1.2.36-1.12.36-.97.36-.48.37-2.01.36-1.53.36-2.54.36 9.4.36-4.57.37-.6.36.05.36-1.14.36-1.06.36 1.17.37-1.09.36-.98.36-1.7.36-.48.36-1.8.37-2.4.36 3.49.36-1.78.36-1.36.36-.81.37-1.95.36-11.07.36 1.4.36-1.2.37-.81.36-1.54.36-.61.36-1.76.36-2.5.37 20.51.36-1.47.36.09.36.1.36-1.13.37-1.29.36 1.33.36-1.25.36-.72.36-1.47.37-.82.36-1.51.36-2.45.36 3.32.37-2.25.36-.78.36-.8.36-1.99.36-3.85.37-1.63.36 1.21.36-1.37.36-1.87.36-1.21.37-2.64.36-2.25.36 8.57.36 13.32.36.31.37.76.36-.74.36-.88.36-.62.36 1.65.37-.29.36-.96.36-.33.36-1.62.37-1.47.36 3.63.36-1.91.36-.57.36-1.31.37-.03.36-1.39.36-3.41.36 1.26.36-.71.37-1.39.36-.66.36-2.11.36-2.16.36 42.21.37-1.18.36.41.36-.29.36.67.37-.51.36-1.26.36 1.77.36-.81.36-.33.37-.31.36-1.57.36-1.71.36 3.66.36-2.05.37-.39.36-1.06.36-.39.36-1.09.36-3.59.37 1.23.36-1.14.36-.81.36-.69.36-2.07.37-2.05.36-2.09.36 9.9.36-4.77.37-.61.36.04.36-.7.36-1.66.36 1.25.37-1.11.36-.97.36-.49.36-2.01.36-2.13.37-1.91.36 3.83.36-2.01.36-1.41.36-.74.37-2.04.36-10.69.36 1.19.36-1.13.37-.9.36-1.83.36-.74.36-1.52.36-2.38.37 20.64.36-.88.36-.55.36.03.36-1.07.37-1.39.36 1.37.36-1.12.36-.81.36-1.62.37-.55.36-1.79.36-2.37.36 3.35.37-2.34.36-.73.36-.74.36-1.99.36-3.84.37.9.36-1.58.36-1.1.36-2.07.36-1.25.37-1.92.36-2.86.36 8.66.36-5.72.36-.38.37-.29.36-1.67.36-1.63.36-1.69.36 1.28.37-1.36.36-1.9.36-1.21.36-2.01.37-2.83.36 2.84.36-2.71.36-1.39.36-.87.37-2.46.36-4.35.36-1.96.36.74.36-1.87.37-2.28.36-1.58.36-2.88.36-2.69.36 81.66.37-1.08.36.34.36.78.36-.81.37-.3.36-1.1.36 1.72.36-.3.36-.98.37-.38.36-1.51.36-1.84.36 3.83.36-1.96.37-.41.36-1.18.36-.15.36-1.36.36-3.48.37 1.28.36-1.35.36-.78.36-.69.36-1.95.37-2.17.36 8.85.36-5.69.36.12.37-.8.36.03.36-.65.36-1.61.36 1.27.37-1.18.36-.79.36-.72.36-1.95.36-2.2.37-2.14.36 4.05.36-1.88.36-1.48.36-.8.37-1.57.36-11.1.36 1.33.36-1.26.37-.99.36-.46.36-2.01.36-2.12.36-1.97.37 21.12.36-1.06.36-.69.36.12.36-1.23.37-.99.36 1.17.36-1.12.36-.94.36-.5.37-1.99.36-1.64.36-2.36.36 3.52.36-1.69.37-1.44.36-.78.36-1.96.36-3.58.37.65.36-1.57.36-1.23.36-2.06.36-.98.37-2.2.36-2.81.36 8.83.36 14.2.36-.18.37.56.36-.69.36-.87.36 1.76.36-.73.37-.43.36-1.05.36-.5.36-1.12.37-1.97.36 3.84.36-1.89.36-.34.36-.3.37-1.56.36-3.46.36-1.38.36 1.45.36-.67.37-1.46.36-.82.36-1.55.36-2.43.36 42.59.37-1.17.36.25.36.83.36-.76.37-.81.36-.76.36 2.02.36-.52.36-.98.37-.45.36-1.68.36-1.39.36 3.68.36-1.93.37-.5.36-.09.36-1.57.36-1.26.36-3.38.37 1.3.36-.66.36-1.42.36-.79.36-1.98.37-1.94.36 8.8.36-5.63.36.02.37-.82.36.34.36-.98.36-1.54.36 1.27.37-.7.36-1.46.36-.71.36-1.94.36-2.15.37 3.35.36-2.48.36-.83.36-1.51.36-.59.37-1.86.36-10.97.36 1.3.36-1.19.37-.8.36-.71.36-1.99.36-2.12.36-2.27.37 20.34.36.15.36-.63.36.04.36-.72.37-1.58.36 1.18.36-1.09.36-1.09.36-.49.37-1.96.36-2.08.36-2.05.36 3.92.36-1.91.37-1.44.36-.77.36-2.18.36-3.41.37.78.36-1.54.36-1.39.36-.91.36-2.43.37-1.94.36-2.96.36 8.97.36-4.99.36-1.02.37-.37.36-1.57.36-1.49.36.77.36-1.52.37-1.39.36-2.11.36-.92.36-2.22.37-2.82.36 3.06.36-2.19.36-1.79.36-1.23.37-2.37.36-4.27.36.56.36-2.04.36-1.66.37-2.37.36-1.45.36-2.61.36-3.34.36 82.51.37-1.04.36.51.36.52.36-.7.37-.88.36 1.75.36-.83.36-.29.36-1.05.37-.4.36-1.13.36-1.99.36 3.74.36-1.83.37-.36.36-.37.36-1.57.36-3.44.36-1.2.37 1.63.36-.95.36-1.45.36-.79.36-2.21.37-1.84.36 8.99.36-5.39.36-.11.37.35.36-1.16.36-1.31.36-1.04.36 1.24.37-.71.36-1.4.36-.74.36-2.04.36-1.89.37 3.2.36-2.33.36-.98.36-1.73.36-.47.37-1.8.36-10.81.36 1.27.36-.71.37-1.39.36-.66.36-2.11.36-2.17.36 20.08.37-1.6.36-.01.36-.71.36.25.36-.93.37-1.68.36 1.33.36-1.22.36-.76.36-.72.37-1.99.36-2.13.36 3.23.36-2.46.36-.81.37-1.48.36-.82.36-1.51.36-4.01.37.81.36-1.56.36-1.23.36-1.2.36-2.4.37-2.48.36-2.5.36 9.47.36 14.42.36-.19.37.46.36-.28.36-1.24.36 1.67.36-.69.37-.54.36-.08.36-1.58.36-1.71.37-1.5.36 4.25.36-1.58.36-.98.36-.33.37-1.61.36-3.11.36 1.19.36-1.14.36-.9.37-1.83.36-.73.36-1.53.36-2.37.36 43.01.37-.47.36-.14.36.47.36-.65.36-.97.37 1.86.36-.76.36-.4.36-1.19.37-.14.36-1.36.36-1.95.36 3.77.36-1.92.37-.31.36-.31.36-1.57.36-3.43.36 1.33.37-1.17.36-.67.36-1.64.36-.84.36-1.49.37-2.44.36 9.08.36-5.3.36.03.37.14.36-1.25.36-1.21.36-1.26.36 1.69.37-.98.36-1.43.36-.8.36-1.58.36-2.41.37 3.26.36-2.29.36-.97.36-.46.36-2.03.37-11.27.36-1.1.36 1.57.36-1.03.37-1.43.36-.74.36-2.05.36-1.84.36 20 .37-1.49.36-.08.36.36.36-1.24.36-.71.37-1.53.36 1.3.36-.71.36-1.4.36-.81.37-1.93.36-2.25.36 3.39.36-2.39.36-.81.37-1.61.36-.57.36-1.78.36-3.9.37.86.36-1.77.36-1.21.36-1.1.36-2.38.37-2.58.36 8.42.36-6.11.36-.27.36-1.25.37-.4.36-1.06.36-2.03.36.84.36-1.6.37-1.21.36-1.14.36-2.37.36-2.63.37-2.55.36 3.63.36-2.3.36-1.91.36-1.21.37-1.99.36-4.43.36.32.36-1.94.36-1.83.37-1.29.36-2.86.36-2.96.36-2.81.36 83.48.37-.63.36-.27.36.54.36-.81.36-.57.37 1.59.36-.7.36-.51.36-.09.37-1.56.36-1.22.36-1.94.36 3.94.36-1.27.37-1.01.36-.37.36-1.54.36-3.16.36 1.08.37-1.15.36-.81.36-1.64.36-.56.36-1.78.37-2.4.36 9.26.36-4.74.36-.6.37.15.36-1.12.36-1.3.36 1.35.36-1.17.37-.84.36-1.47.36-.92.36-1.54.36-2.39.37 3.42.36-2.31.36-.77.36-.71.36-1.99.37-11.15.36-1.39.36 1.45.36-.66.36-1.46.37-.83.36-1.54.36-2.43.36 20.33.37-1.6.36-.16.36.41.36-1.19.36-1.27.37-1.13.36 1.59.36-.94.36-1.4.36-.87.37-2.1.36-1.82.36 3.26.36-2.34.36-.93.37-.51.36-1.99.36-1.67.36-3.81.37.88.36-1.09.36-1.83.36-1.22.36-2.39.37-2.36.36 8.37.36 12.95.36.44.36-.39.37.75.36-.55.36-1.12.36 1.69.36-.28.37-1.03.36-.29.36-1.54.36-1.71.37 3.77.36-2.06.36-.41.36-1.09.36-.17.37-1.44.36-3.51.36 1.31.36-1.2.36-.79.37-.72.36-1.98.36-2.12.36-2.27.36 42.82.37.58.36-.21.36.46.36-.3.36-1.16.37 1.6.36-.66.36-.68.36-.06.37-1.54.36-1.66.36-1.63.36 4.34.36-1.48.37-1.03.36-.43.36-1.68.36-2.98.36 1.19.37-1.11.36-.97.36-.49.36-2 .36-1.53.37-2.53.36 9.39.36-4.58.36-.59.37.05.36-1.14.36-1.08.36 1.18.36-1.09.37-.97.36-1.68.36-.51.36-1.79.36-2.4.37 3.48.36-1.77.36-1.37.36-.8.36-1.95.37-11.07.36 1.4.36-1.2.36-.82.36-1.54.37-.6.36-1.77.36-2.49.36 20.51.37-1.47.36.09.36.09.36-1.13.36-1.28.37 1.32.36-1.24.36-.72.36-1.47.36-.81.37-1.56.36-2.42.36 3.32.36-2.25.36-.77.37-.8.36-1.99.36-3.86.36-1.62.37 1.2.36-1.36.36-1.87.36-1.21.36-2.64.37-2.25.36 8.57.36-5.82.36-.56.36-.04.37-1.59.36-1.72.36-1.46.36.81.36-1.13.37-1.81.36-1.17.36-2.46.36-2.31.36 2.78.37-2.75.36-1.41.36-2.14.36-.9.37-2.22.36-4.25.36.43.36-1.56.36-2.23.37-1.5.36-2.95.36-3.01.36 81.54.36-1.17.37.41.36-.29.36.67.36-.51.36-1.26.37 1.75.36-.82.36-.31.36-.31.37-1.56.36-1.71.36 3.65.36-2.04.36-.39.37-1.06.36-.39.36-1.09.36-3.59.36 1.22.37-1.13.36-.77.36-.81.36-2 .36-2.04.37-2.08.36 9.89.36-4.77.36-.61.37.04.36-.7.36-1.66.36 1.25.36-1.11.37-.97.36-.49.36-2.01.36-2.13.36-1.92.37 3.49.36-1.66.36-1.41.36-.75.36-2.02.37-10.7.36 1.19.36-1.14.36-.9.36-1.82.37-.74.36-1.52.36-2.38.36 20.64.37-.89.36-.56.36.03.36-1.06.36-1.39.37 1.45.36-1.19.36-.82"/><use xlink:href="#fbbec__c" color="#9F650D" transform="matrix(3.75 0 0 3.75 182.98 114.63)"/><use xlink:href="#fbbec__c" color="#9F650D" transform="matrix(3.75 0 0 3.75 220.55 22.51)"/></g><path fill="none" d="M28 45.01V162.5M371.99 45.01H28" color="#000"/></svg>