<svg xmlns="http://www.w3.org/2000/svg" xmlns:xlink="http://www.w3.org/1999/xlink" viewBox="0 0 400 200"><path fill="none" d="M0 0h400v200H0z"/><defs><use xlink:href="#db761__a" id="db761__b" fill="currentColor" stroke="none"/><use xlink:href="#db761__a" id="db761__c" stroke="currentColor" transform="rotate(180)"/><path id="db761__a" stroke="currentColor" stroke-width=".267" d="m0-1.33-1.33 2h2.66z"/></defs><path fill="none" stroke="#CCC" stroke-linecap="round" stroke-linejoin="round" stroke-width=".1" d="M46.1 162.5V45.01" class="db761__gridline" color="#000"/><g fill="none" stroke-linecap="round" stroke-linejoin="round" stroke-width="0" color="#000"><path d="M46.1 162.5V155m0-109.99v7.5"/><text fill="#000" font-family="KaTeX_Main" font-size="8" text-anchor="middle" transform="translate(46.1 172.6)"><tspan> 1</tspan></text></g><path fill="none" stroke="#CCC" stroke-linecap="round" stroke-linejoin="round" stroke-width=".1" d="M82.31 162.5V45.01" class="db761__gridline" color="#000"/><g fill="none" stroke-linecap="round" stroke-linejoin="round" stroke-width="0" color="#000"><path d="M82.31 162.5V155m0-109.99v7.5"/><text fill="#000" font-family="KaTeX_Main" font-size="8" text-anchor="middle" transform="translate(82.31 172.6)"><tspan> 2</tspan></text></g><path fill="none" stroke="#CCC" stroke-linecap="round" stroke-linejoin="round" stroke-width=".1" d="M118.52 162.5V45.01" class="db761__gridline" color="#000"/><g fill="none" stroke-linecap="round" stroke-linejoin="round" stroke-width="0" color="#000"><path d="M118.52 162.5V155m0-109.99v7.5"/><text fill="#000" font-family="KaTeX_Main" font-size="8" text-anchor="middle" transform="translate(118.52 172.6)"><tspan> 3</tspan></text></g><path fill="none" stroke="#CCC" stroke-linecap="round" stroke-linejoin="round" stroke-width=".1" d="M154.73 162.5V45.01" class="db761__gridline" color="#000"/><g fill="none" stroke-linecap="round" stroke-linejoin="round" stroke-width="0" color="#000"><path d="M154.73 162.5V155m0-109.99v7.5"/><text fill="#000" font-family="KaTeX_Main" font-size="8" text-anchor="middle" transform="translate(154.73 172.6)"><tspan> 4</tspan></text></g><path fill="none" stroke="#CCC" stroke-linecap="round" stroke-linejoin="round" stroke-width=".1" d="M190.94 162.5V45.01" class="db761__gridline" color="#000"/><g fill="none" stroke-linecap="round" stroke-linejoin="round" stroke-width="0" color="#000"><path d="M190.94 162.5V155m0-109.99v7.5"/><text fill="#000" font-family="KaTeX_Main" font-size="8" text-anchor="middle" transform="translate(190.94 172.6)"><tspan> 5</tspan></text></g><path fill="none" stroke="#CCC" stroke-linecap="round" stroke-linejoin="round" stroke-width=".1" d="M227.15 162.5V45.01" class="db761__gridline" color="#000"/><g fill="none" stroke-linecap="round" stroke-linejoin="round" stroke-width="0" color="#000"><path d="M227.15 162.5V155m0-109.99v7.5"/><text fill="#000" font-family="KaTeX_Main" font-size="8" text-anchor="middle" transform="translate(227.15 172.6)"><tspan> 6</tspan></text></g><path fill="none" stroke="#CCC" stroke-linecap="round" stroke-linejoin="round" stroke-width=".1" d="M263.36 162.5V45.01" class="db761__gridline" color="#000"/><g fill="none" stroke-linecap="round" stroke-linejoin="round" stroke-width="0" color="#000"><path d="M263.36 162.5V155m0-109.99v7.5"/><text fill="#000" font-family="KaTeX_Main" font-size="8" text-anchor="middle" transform="translate(263.36 172.6)"><tspan> 7</tspan></text></g><path fill="none" stroke="#CCC" stroke-linecap="round" stroke-linejoin="round" stroke-width=".1" d="M299.57 162.5V45.01" class="db761__gridline" color="#000"/><g fill="none" stroke-linecap="round" stroke-linejoin="round" stroke-width="0" color="#000"><path d="M299.57 162.5V155m0-109.99v7.5"/><text fill="#000" font-family="KaTeX_Main" font-size="8" text-anchor="middle" transform="translate(299.57 172.6)"><tspan> 8</tspan></text></g><path fill="none" stroke="#CCC" stroke-linecap="round" stroke-linejoin="round" stroke-width=".1" d="M335.78 162.5V45.01" class="db761__gridline" color="#000"/><g fill="none" stroke-linecap="round" stroke-linejoin="round" stroke-width="0" color="#000"><path d="M335.78 162.5V155m0-109.99v7.5"/><text fill="#000" font-family="KaTeX_Main" font-size="8" text-anchor="middle" transform="translate(335.78 172.6)"><tspan> 9</tspan></text></g><path fill="none" stroke="#CCC" stroke-linecap="round" stroke-linejoin="round" stroke-width=".1" d="M371.99 162.5V45.01" class="db761__gridline" color="#000"/><g fill="none" stroke-linecap="round" stroke-linejoin="round" stroke-width="0" color="#000"><path d="M371.99 162.5V155m0-109.99v7.5"/><text fill="#000" font-family="KaTeX_Main" font-size="8" text-anchor="middle" transform="translate(371.99 172.6)"><tspan> 10</tspan></text></g><g fill="none" stroke-linecap="round" stroke-linejoin="round" stroke-width="0" color="#000"><path d="M371.99 162.5h-7.5"/><text fill="#000" font-family="KaTeX_Main" font-size="8" transform="translate(378.99 165.1)"><tspan>0.910</tspan></text></g><g fill="none" stroke-linecap="round" stroke-linejoin="round" stroke-width="0" color="#000"><path d="M371.99 142.92h-7.5"/><text fill="#000" font-family="KaTeX_Main" font-size="8" transform="translate(378.99 145.52)"><tspan>0.920</tspan></text></g><g fill="none" stroke-linecap="round" stroke-linejoin="round" stroke-width="0" color="#000"><path d="M371.99 123.34h-7.5"/><text fill="#000" font-family="KaTeX_Main" font-size="8" transform="translate(378.99 125.94)"><tspan>0.930</tspan></text></g><g fill="none" stroke-linecap="round" stroke-linejoin="round" stroke-width="0" color="#000"><path d="M371.99 103.75h-7.5"/><text fill="#000" font-family="KaTeX_Main" font-size="8" transform="translate(378.99 106.35)"><tspan>0.940</tspan></text></g><g fill="none" stroke-linecap="round" stroke-linejoin="round" stroke-width="0" color="#000"><path d="M371.99 84.17h-7.5"/><text fill="#000" font-family="KaTeX_Main" font-size="8" transform="translate(378.99 86.77)"><tspan>0.950</tspan></text></g><g fill="none" stroke-linecap="round" stroke-linejoin="round" stroke-width="0" color="#000"><path d="M371.99 64.59h-7.5"/><text fill="#000" font-family="KaTeX_Main" font-size="8" transform="translate(378.99 67.19)"><tspan>0.960</tspan></text></g><g fill="none" stroke-linecap="round" stroke-linejoin="round" stroke-width="0" color="#000"><path d="M371.99 45.01h-7.5"/><text fill="#000" font-family="KaTeX_Main" font-size="8" transform="translate(378.99 47.61)"><tspan>0.970</tspan></text></g><path fill="none" d="M28 45.01V162.5M371.99 45.01H28" color="#000"/><text stroke-linecap="round" stroke-linejoin="round" stroke-width="0" color="#000" font-family="KaTeX_Main" font-size="10" text-anchor="middle" transform="rotate(-90 57.63 46.13)"><tspan font-weight="bold">Average Path Length </tspan><tspan> / log</tspan><tspan dy="3" font-size="8">2</tspan><tspan dy="-3">(Size)</tspan></text><text stroke-linecap="round" stroke-linejoin="round" stroke-width="0" color="#000" font-family="KaTeX_Main" font-size="10" text-anchor="middle" transform="translate(199.99 195.75)"><tspan>Operations / 10</tspan><tspan dy="-5" font-size="8">6</tspan></text><text stroke-linecap="round" stroke-linejoin="round" stroke-width=".5" color="#000" font-family="KaTeX_Main" font-size="8" transform="translate(99.2 10.11)"><tspan>AVLBottomUp</tspan></text><g fill="none" stroke="currentColor" stroke-linecap="round" stroke-linejoin="round" stroke-width=".5" color="#000"><path stroke="#000" d="M63.7 7.51h29.9M28 156.06l.36-.72.36 2.27.37.31.36.45.36-1.16.36-1.12.36-.81.37-.84.36-.6.36-.59.36-1.07.37.53.36 1.61.36-.73.36-.57.36-.69.37-.64.36-.35.36-.34.36-.73.36-.97.37-1.17.36-.86.36.49.36-.76.36-.49.37-.69.36-.62.36-.74.36-.45.36-.79.37.48.36-.8.36-.62.36-.76.37-.63.36-.68.36-.69.36 1.77.36-.27.37 1.02.36 4 .36-.36.36-.05.36.36.37-.36.36-.37.36-.4.36-.5.36-.4.37 2.4.36-.21.36.04.36-.33.37-.26.36-.41.36.05.36.06.36-.47.37.11.36-.43.36-.25.36-.3.36-.05.37-.55.36-.45.36-.58.36-.5.36.34.37 5.38.36-.55.36-.49.36.01.37-.57.36.11.36-.24.36-.44.36-.64.37-.67.36-.22.36-.28.36-.31.36-.45.37-.59.36-.1.36-.61.36.63.36-.38.37-.6.36.86.36-.58.36-.55.36-.52.37.83.36-.13.36.26.36-.37.37-.37.36-.41.36-.25.36-.37.36-.53.37 8.83.36.41.36.1.36-.1.36.27.37 1.16h.36l.36-.22.36-.31.36-.04.37-.06.36-.3.36-.08.36-.39.37-.5.36-.42.36-.2.36-.65.36-.46.37.42.36.33.36-.5.36-.42.36-.02.37-.62.36.69.36.1.36-.43.36-.48.37-.41.36-.61.36.82.36-.14.36-.44.37-.07.36-.47.36.19.36-.28.37-.18.36 1.11.36-.6.36-.39.36-.37.37-.35.36-.38.36-.42.36.58.36-.39.37-.36.36-.34.36-.47.36-.43.36 4.13.37-.45.36-.42.36-.17.36 1.74.37-.23.36-.28.36-.31.36-.46.36-.4.37-.16.36-.74.36-.29.36 6.61.36-.43.37-.25.36-.09.36-.26.36-.24.36-.5.37.32.36-.45.36-.3.36.24.36-.53.37-.21.36-.46.36-.62.36.16.37.12.36-.41.36-.37.36-.22.36-.6.37-.46.36-.65.36-.46.36-.51.36-.26.37-.31.36.69.36-.37.36-.42.36-.66.37-.6.36-.27.36.16.36.92.37 1.73.36-.38.36.05.36-.31.36 1.92.37 3.98.36-.14.36.25.36.17.36-.11.37.12.36-.07.36.1.36-.32.36-.18.37.21.36-.31.36-.3.36-.32.37-.42.36.05.36 2.6.36-.57.36-.2.37.32.36-.41.36-.17.36-.48.36-.27.37-.25.36-.45.36-.54.36-.14.36-.42.37.14.36-.57.36-.27.36-.2.36-.35.37-.47.36.23.36-.24.36-.25.37-.38.36.83.36-.15.36.24.36-.19.37-.56.36-.1.36-.46.36.4.36-.47.37-.55.36 2.73.36-.29.36-.01.36 3.98.37-.01.36-.25.36.99.36.02.37-.02.36-.07.36-.31.36-.15.36-.31.37.58.36-.03.36-.21.36-.11.36-.15.37-.55.36-.53.36-.37.36-.33.36-.38.37.2.36-.56.36 1.36.36-.09.36-.65.37.02.36-.37.36-.53.36-.62.37.57.36-.34h.36l.36-.32.36-.42.37-.62.36-.66.36-.3.36-.56.36-.42.37-.09.36 1.43.36-.53.36-.41.36-.33.37.42.36-.35.36.38.36-.36.37 2.1.36.06.36-.44.36-.27.36-.34.37 4.03.36-.26.36-.13.36-.11.36-.29.37.72h.36l.36-.22.36-.23.36 1.93.37-.32.36-.36.36.02.36-.36.36-.42.37-.56.36 1.99.36-.55.36-.3.37.29.36-.43.36-.44.36-.27.36-.17.37-.28.36-.23.36-.41.36-.59.36-.15.37.02.36-.5.36-.48.36-.52.36-.58.37.35.36.06.36-.15.36-.41.37.31.36.93.36-.33.36-.46.36-.53.37-.59.36-.4.36.3.36.25.36-.54.37-.35.36.11.36.94.36-.29.36 4.05.37-.02.36-.3.36-.11.36-.31.37-.07.36-.26.36-.3.36-.46.36-.5.37.38.36-.67.36-.38.36-.54.36-.62.37-.64.36-.53.36 4.64.36-.31.36.28.37.62.36-.49.36.69h.36l.36-.41.37-.16.36-.4.36-.52.36-.46.37-.44.36-.15.36-.49.36.87.36-.15.37-.44.36-.14.36-.19.36-.56.36-.49.37.98.36-.33.36.85.36-.18.36-.34.37-.4.36-.42.36.29.36.05.37-.58.36-.1.36-.5.36 1.78.36.71.37 3.99.36-.15.36-.74.36-.29.36.5.37-.4.36-.33.36-.35.36-.63.36.27.37-.26.36.09.36-.27.36-.35.36-.38.37-.4.36-.18.36-.56.36-.18.37.2.36-.52.36-.66.36-.15.36 1.63.37.55.36-.42.36-.5.36-.57.36-.56.37-.67.36-.64.36-.39.36-.59.36-.67.37-.74.36-.28.36 1.16.36-.39.37-.05.36.81.36 4.99.36-.07.36-.3.37-.31.36-.22.36.39.36-.55.36-.52.37-.46.36-.13.36-.32.36-.31.36 3.66.37-.4.36-.3.36-.38.36.01.37-.27.36.85.36.05.36.8.36-.25.37.12.36-.22.36-.31.36-.18.36-.4.37-.39.36-.31.36.57.36-.19.36-.26.37 1.12.36-.33.36-.34.36.12.36-.34.37-.04.36-.27.36-.02.36-.31.37-.38.36-.43.36-.12.36-.41.36-.64.37.78.36-.6.36-.27.36.58.36-.37.37 1.27.36-.49.36-.34.36.63.36-.01.37-.22.36-.26.36.48.36-.36.37-.43.36.62.36-.32.36-.33.36 4 .37.39.36-.26.36-.59.36-.33.36-.12.37.42h.36l.36-.08.36-.16.36.2.37-.38.36.06.36-.25.36-.23.36-.39.37.06.36-.19.36-.23.36-.22.37 2.5.36-.24.36-.25.36.08.36-.38.37-.03.36-.35.36-.52.36-.64.36.05.37-.53.36 2.89.36-.4.36-.39.36-.44.37-.52.36.02.36-.54.36-.21.37-.38.36.7.36-.08.36-.43.36-.19.37-.42.36-.16.36.13.36-.39.36-.59.37-.67.36.29.36-.38.36.07.36 3.81.37-.31.36.44.36-.03.36-.18.36-.16.37-.01.36.05.36-.36.36-.13.37-.12.36-.21.36-.03.36-.43.36-.2.37-.44.36-.48.36-.55.36-.3.36.16.37-.4.36.38.36-.59.36 1.78.36-.33.37-.62.36 4.83.36.24.36-.44.37-.39.36-.4.36-.06.36-.31.36-.27.37-.49.36-.43.36-.18.36-.15.36-.4.37.85.36-1.28.36-.43.36-.37.36-.57.37-.68.36-.35.36.66.36-.4.37-.48.36.03.36-.4.36 1.1.36 4.82.37.12.36-.26.36-.14.36-.33.36-.07.37-.18.36.1.36-.4.36-.24.36.16.37-.58.36.53.36.04.36-.42.36-.2.37-.23.36-.49.36.24.36-.48.37.54.36-.12.36-.31.36-.08.36-.31.37 2.02.36-.02.36-.44.36-.49.36 3.22.37-.49.36-.46.36-.27.36-.61.36-.57.37-.61.36.09.36-.47.36-.53.37-.24.36 1.32.36.17.36-.17.36-.46.37-.22.36-.49.36.32.36-.5.36-.53.37-.2.36-.51.36.92.36-.22.36 5.93.37.06.36-.17.36-.2.36.02.36.04.37-.13.36-.02.36-.34.36.03.37.49.36-.16.36-.36.36-.35.36-.41.37-.28.36-.33.36-.3.36-.35.36.39.37-.58.36-.45.36-.55.36-.23.36-.43.37-.51.36.13.36-.39.36.14.37-.4.36.8.36-.32.36-.42.36-.28.37-.67.36-.4.36 2.58.36.01.36-.41.37.82.36.52.36-.62.36-.44.36-.06.37-.13.36-.35.36.25.36-.46.36-.36.37-.16.36.5.36-.31.36 3.99.37-.34.36-.32.36.13.36-.18.36-.28h.37l.36-.12.36-.49.36-.42.36.5.37-.25.36-.2.36-.14.36.11.36-.53.37.17.36.05.36-.19.36.06.37 1.4.36-.43.36-.24.36.06.36-.58.37-.21.36-.05.36-.52.36-.48.36-.1.37-.59.36-.41.36-.36.36-.04.36-.21.37-.39.36-.2.36-.56.36-.32.37 1.15.36 2.03.36-.6.36-.49.36-.4.37 1.66.36-.48.36.48.36-.54.36.4.37.14.36-.5.36.05.36-.33.36 3.89.37.36.36-.55h.36l.36-.05.36-.08.37-.38.36.47.36-.37.36.13.37-.59.36.53.36-.31.36-.4.36-.3.37-.34.36-.52.36-.06.36-.44.36.43.37-.33.36-.47.36-.09.36-.57.36-.32.37-.47.36-.44.36-.51.36 3.87.37-.03.36-.26.36-.15.36-.27.36-.45.37-.59.36-.48.36-.28.36 1.44.36-.38.37.78.36-.51.36-.68.36-.39.36 2 .37-.18.36.3.36-.48.36.96.36-.3.37.1.36-.06.36-.1.36 3.99.37-.04.36-.25.36-.15.36-.3.36-.01.37.36.36-.35.36-.42.36-.36.36-.19.37-.27.36-.5.36-.44.36-.53.36-.13.37-.46.36-.6.36-.53.36-.54.37.06.36-.46.36-.23.36-.29.36-.49.37.73.36.44.36-.5.36-.44.36-.42.37-.7.36-.48.36-.42.36-.23.36.5.37-.65.36-.22.36-.73.36-.06.36 3.38.37 2.32.36-.23.36-.23.36-.53.37-.28.36.26.36.24.36-.47.36-.47.37 1.15.36-.32.36-.18.36 3.93.36.02.37-.4.36.18.36.08.36-.05.36-.14.37-.14.36-.29.36-.18.36.19.37-.28.36-.21.36.3.36-.51.36-.29.37-.47.36.38.36-.31.36-.48.36.29.37-.41.36-.6.36.01.36-.26.36-.14.37-.03.36-.04.36 1.4.36-.27.37-.29.36-.26.36-.05.36-.33.36-.44.37-.59.36 1.82.36-.6.36-.23.36-.36.37.78.36-.41.36-.4.36-.51.36-.67.37-.31.36.34.36-.4.36-.32.36-.54.37.9.36 1.27.36-.48.36 3.97.37-.19.36-.31.36.02.36-.06.36-.3.37-.29.36-.21.36-.34"/><use xlink:href="#db761__b" transform="matrix(3.75 0 0 3.75 354.25 146.65)"/><use xlink:href="#db761__b" transform="matrix(3.75 0 0 3.75 78.65 7.51)"/></g><text stroke-linecap="round" stroke-linejoin="round" color="#000" font-family="KaTeX_Main" font-size="8" transform="translate(99.2 25.11)"><tspan>AVLWeakTopDown</tspan></text><g fill="none" stroke="currentColor" stroke-linecap="round" stroke-linejoin="round" color="#000"><path stroke="#FFAB00" stroke-dasharray="4.5,2.0,0.5,2.0,0.5,2.0" d="M63.7 22.51h29.9M28 158.64l.36-.91.36-1.17.37-1.99.36 2.88.36-.86.36-.97.36-1.72.37.14.36-.78.36-.73.36-1.56.37 1.01.36.47.36-.3.36-.53.36-.66.37-.69.36-1.05.36-.79.36-4.42.36-.7.37 3.87.36.3.36-.28.36-.82.36-.3.37 6.57.36-.17.36-.14.36-.72.36-1.04.37.58.36-.12.36-1.83.36-.27.37-.62.36-1.06.36 2.07.36-.23.36.17.37-.08.36-.15.36-.44.36-.85.36-.03.37-.69.36-.17.36-.23.36-.29.36-.21.37-25.71.36 1.23.36 1.92.36.31.37 2.67.36-2.23.36 2.44.36.14.36-2.56.37 2.65.36-4.51.36-2.03.36 1.03.36-4.51.37.85.36 2.72.36 1.46.36-.12.36-4.3.37-.39.36.18.36.25.36 3.86.37 4.82.36-11.72.36-11.26.36 8.77.36-2.53.37 3.59.36 1.19.36-4.21.36-.61.36 4.99.37-2.05.36 3.03.36-.83.36-8.91.36 6.97.37 1.89.36 1.35.36-1.21.36-1.54.36 2.49.37-4.43.36-.06.36-1.88.36.4.37 4.61.36.54.36-1.52.36 1.53.36.01.37.52.36 3.79.36-15.65.36 4.72.36.05.37 5.01.36 2.51.36-6.69.36-.55.36.15.37 2.43.36-5.58.36.55.36 3.19.37.74.36-8.97.36 12.78.36-8.82.36 4.81.37 2.08.36-5.34.36 2.97.36 9.81.36-15.77.37-.68.36 1.06.36 12.01.36-4.58.36 1.57.37 1.4.36-2.86.36-1.35.36.68.36.57.37 1.15.36 4.06.36-7.08.36 1.73.37-1.89.36 5.53.36-.4.36-1.87.36 1.26.37.01.36.41.36 5.86.36-6.19.36-9.38.37 3.49.36 6.3.36 5.59.36-1.67.36-4.32.37 5.36.36 3.32.36 1.35.36-1.13.37 1.26.36-2.16.36 2.27.36-.98.36-3.3.37 3.53.36-.96.36 2.82.36-5.8.36-4.5.37-3.75.36 11.91.36-18.28.36 2.52.36-.02.37 5.04.36-3.7.36 10.41.36-12.88.36 10.05.37-.4.36 2.29.36.78.36-5.93.37-4.85.36 2.55.36 1.02.36 1.15.36-2.67.37-2.18.36 12.28.36-7.66.36-11.78.36.84.37 3.28.36 1.27.36 4.1.36 1.95.36-.06.37-2.57.36-1.21.36 3.63.36-8.19.37-.34.36 10.26.36-1.43.36 1.65.36 1.78.37.52.36-.81.36 2.42.36-.11.36-2.48.37-2.82.36 1.05.36-4.12.36 5.68.36 1.37.37-.38.36-4.42.36 2.07.36 1.98.37-1.11.36-3.11.36-2.69.36-4.82.36-.34.37-3.33.36 5.15.36 4.84.36-.66.36-.72.37 4.19.36-10.19.36 1.26.36 6.1.36-4.37.37 9.28.36 1.86.36-13.82.36 1 .36 1.66.37 2.46.36-8.38.36 9.14.36.38.37 2.76.36 2.31.36-.76.36 1.73.36-3.1.37 4.09.36.72.36 4.11.36-13.92.36 5.81.37-1.76.36 3.96.36 4 .36-.83.36-3.56.37-2.31.36 3.83.36-.77.36 2.89.37-6.91.36.8.36 2.75.36-1.88.36 1.16.37-1.53.36 1.37.36.01.36 3.03.36-11.18.37 5.05.36 1.03.36-.57.36 1.69.36-9.78.37 9.38.36-3.32.36-3.1.36 4.21.36 3.53.37.46.36-5.55.36-1.56.36-10.4.37 10.67.36-9.5.36 17.79.36-3.91.36-3.5.37 4.06.36-1.43.36-3.04.36-.78.36 2.75.37 1.91.36-.32.36 1.63.36-.17.36.91.37 1.43.36-1.75.36-.61.36-3.65.37 3.85.36 1.34.36-9.91.36 6.94.36-2.81.37 2.7.36-10.09.36 6.88.36-.18.36.93.37.86.36 1.16.36-2.06.36-3.82.36 5.41.37-1.27.36-1.59.36 3.62.36-1.14.36-.03.37 1.15.36 1.33.36-.43.36-.3.37 2.32.36-2.14.36 2.04.36-5.66.36-6.93.37 8.82.36-1.82.36-4.41.36 3.39.36 5.67.37-5.56.36 6.32.36-2.12.36-.25.36 3.06.37-.07.36.6.36-2.5.36 8.42.37-1.28.36 1.3.36-12.91.36 3.04.36 3.22.37-16.1.36 11.53.36 1.94.36-1.25.36 2.67.37-4.75.36 6.45.36.88.36-3.09.36 2.62.37 1.04.36-.34.36.72.36.32.37 2.98.36-.92.36.41.36-3 .36 1.51.37-8.17.36-.46.36.4.36 1.56.36.92.37-6.8.36-.65.36 2.25.36.43.36.57.37-.87.36 2 .36 1.94.36-1.23.36 1.33.37.34.36-1.84.36-.7.36.35.37 1.31.36-2.34.36.71.36 1.75.36-5.42.37.4.36.03.36.65.36 2.28.36.7.37-1.37.36-4.84.36 1.78.36 5.59.36-4.87.37 4.65.36-5.4.36-.94.36 3.44.37 1.18.36-.11.36.53.36 1.54.36-11.89.37 12.53.36 1.61.36-3.08.36-4.26.36.68.37 1.29.36.8.36-1.4.36 2.63.36-5.94.37-1.74.36 7.79.36 1.33.36 2.14.36-1.39.37.2.36 3.06.36-4.87.36-1.16.37 5.15.36-4.73.36-.66.36 6.6.36-1.85.37-.92.36-3.51.36 2.06.36-5.41.36 5.14.37.01.36 3.31.36 1.4.36.68.36 1.64.37.47.36.18.36-1.45.36 2.47.37-3.2.36-5.96.36-12.71.36.18.36 2.29.37 9.95.36-10.35.36 12.94.36 3h.36l.37-3.01.36 2.16.36 1.62.36-.99.36 1.28.37 3.04.36-4.32.36-2.67.36-2.33.37.34.36-10.19.36 9.05.36-.63.36.57.37 1.91.36 4.71.36.25.36-.6.36 1.07.37-12.55.36 7.42.36-2.85.36 1.06.36 1.09.37-8.18.36 10.88.36.28.36 6.83.36-.56.37-2.06.36-3.66.36 1.98.36-9.04.37 11.61.36-3.34.36-2.31.36.05.36-2.67.37-1.59.36-3.79.36 1.97.36-2.52.36 5.12.37 4.03.36-.08.36-12.29.36 2.46.36.08.37-1.15.36 2.98.36 1.32.36 2.83.37 1.09.36 1.63.36 1.06.36.6.36-1.18.37-12.63.36 17.74.36-4.07.36 4.2.36-.64.37.59.36-5.25.36 6.62.36-10.26.36 4.99.37 4.41.36-1.11.36.82.36-1.31.36 3.57.37-1.69.36.42.36-6.99.36-7.27.37 2.93.36-8.84.36 12.08.36 5.19.36-10.32.37 13.01.36-10.64.36 8.92.36-1.33.36-12.95.37 8.92.36-1.82.36 3.37.36 2.99.36-1.87.37-1 .36-.47.36-.99.36 2.87.37-1.23.36.82.36-4.84.36.51.36 1.06.37 1.1.36.13.36.17.36 2.69.36 1 .37-11.8.36 2.47.36 11.26.36-.2.36.35.37-9.71.36 8.22.36 2.84.36.97.36-1.59.37-10.17.36 1.15.36-1.69.36-.41.37 1.02.36 4.77.36-2.6.36.47.36 1.47.37-1.99.36 3.2.36 1.31.36-3.88.36.92.37.37.36-3.57.36 3.9.36 2.57.36-.49.37.66.36-3.72.36-5.07.36 4.76.37-9.37.36.7.36.58.36 1.85.36 1.01.37-1.36.36.78.36 1.69.36 1.86.36-9.59.37 11.32.36.65.36.44.36-3.55.36-10.63.37 3.97.36 3.08.36-8.04.36 1.29.37 2.47.36 4.5.36-.18.36-4.19.36 4.27.37.77.36.45.36 4.31.36-3.12.36-8.13.37.87.36.88.36 2.33.36 1.15.36 6.49.37 1.48.36.47.36-5.65.36-.03.36-.1.37-1.31.36.34.36 3.95.36.07.37-.7.36 1.19.36-14.1.36 8.69.36 7.83.37-6.59.36 3.4.36 3.71.36-14.6.36 3.24.37 1.78.36.51.36-1.68.36 3.8.36 1.84.37-2.66.36-.24.36.9.36 7.9.37-2.82.36 3.85.36-.35.36 4.21.36-8.51.37-1.79.36 3.5.36-4.17.36.65.36.12.37.99.36-1.12.36 2.36.36 2.56.36-2.79.37.31.36-12.25.36 3.65.36 12.09.36-18.84.37 15.41.36-7.83.36 1.18.36 4.1.37-5.46.36 1.93.36 3.66.36.41.36-4.71.37-.19.36.27.36.16.36-.94.36 7.56.37-3.49.36 1.05.36.75.36-.38.36-2.5.37-.18.36 4.46.36 5.88.36-7.8.37 7.6.36-4.68.36 7.58.36-14.42.36 4.57.37-6.87.36-4.1.36 4.26.36 9.08.36-1.5.37 5.68.36-5.07.36 4.33.36 2.38.36 3.18.37-3.02.36-1.95.36-2.79.36 6.6.36-3.45.37-6.66.36-1.19.36-.28.36 7.35.37-7.79.36-2.85.36-1.67.36 4.67.36 1.56.37-.45.36 2.27.36 5.66.36 2.43.36.41.37-6.56.36.21.36 1.42.36-11.26.36 2.56.37 2.94.36-1.61.36-11.83.36 12.71.37-1.2.36.34.36 1.29.36-1.85.36 5.78.37-1.06.36 2.63.36 2.09.36-14.34.36 1.61.37 9.56.36-3.26.36-3.94.36 2.17.36-.16.37 1.2.36 1.46.36-1.16.36-5.46.37-2.04.36 2.44.36 2.97.36-6.82.36 5.46.37 1.59.36-11.29.36 8.06.36-5.99.36 6.18.37-3.85.36 5.78.36-2.04.36 4.35.36.84.37 4.67.36-1.04.36.36.36 1.15.36.79.37-4.96.36 1.61.36.86.36 2.38.37-4.04.36 1.57.36-8.22.36 7.67.36-4.37.37 1.34h.36l.36.99.36.12.36 4.29.37-1.56.36 2.58h.36l.36-1.45.36 1.81.37 1.94.36-.62.36-10.16.36-.97.37 1.31.36 2.52.36-9.33.36-1.54.36 3.2.37 11.79.36-8.39.36-1.2.36 2.24.36 1.2.37 2.12.36-1.47.36.56.36-.26.36 1.15.37-1.53.36 2.01.36 1.01.36.75.36-1.9.37 3.07.36 1.67.36-1.36.36-1.65.37-5.26.36-4.31.36-5.55.36 12.75.36-2.6.37-6.39.36-8.21.36 10.99.36-1.58.36 1.39.37.29.36 1.8.36-3.24.36 7.15.36-5.74.37 3.36.36-.19.36-1.11.36 3.01.37.4.36.95.36-2.55.36-7.19.36 2.71.37 1.02.36 5.72.36-.99.36-3.14.36 3.5.37.7.36-1.98.36-.39.36 2.83.36-.64.37 1.37.36 1.55.36-2.27.36-13.33.36 9.16.37-1.96.36-.43.36.59.36 2.19.37 2.33.36 4.5.36-10.02.36 9.17.36-11.62.37 3.36.36 2.81.36 3.08.36-1.61.36 2.02.37 1.35.36 2.14.36-2.02.36-.01.36.78.37-8.45.36 3.79.36 1.84.36 2.71.37.06.36-.02.36-6.16.36-.71.36-2.5.37 3.84.36-1.85.36 3.31.36-1.92.36 2.27.37-7.26.36.73.36-.03.36 1.13.36-1.25.37 3.31.36-.06.36-2.06.36 2.55.37.78.36-1.02.36.78.36-9.3.36 7.54.37-5.42.36 2.1.36 2.09.36 1.3.36-1.37.37 2.78.36.72.36.26.36-.54.36.47.37-3.66.36.67.36 7.54.36-.02.36-1.19.37.23.36 1.93.36 1.55.36.11.37 1.24.36-7.29.36-8.62.36 6.07.36-.72.37-.21.36-.47.36 1.28"/><use xlink:href="#db761__c" color="#FFAB00" transform="matrix(3.75 0 0 3.75 67.83 109.16)"/><use xlink:href="#db761__c" color="#FFAB00" transform="matrix(3.75 0 0 3.75 78.65 22.51)"/></g><text stroke-linecap="round" stroke-linejoin="round" color="#000" font-family="KaTeX_Main" font-size="8" transform="translate(241.1 10.11)"><tspan>AVLRelaxedBottomUp</tspan></text><g fill="none" stroke="currentColor" stroke-linecap="round" stroke-linejoin="round" color="#000"><path stroke="#D336C8" d="M205.6 7.51h29.9M28 156.06l.36-.72.36 2.27.37.31.36.45.36-1.16.36-1.12.36-.81.37-.84.36-.6.36-.59.36-1.07.37.53.36 1.61.36-.73.36-.57.36-.69.37-.64.36-.35.36-.34.36-.73.36-.97.37-1.17.36-.86.36.49.36-.76.36-.49.37-.69.36-.62.36-.74.36-.45.36-.79.37.48.36-.8.36-.62.36-.76.37-.63.36-.68.36-.69.36 1.77.36-.27.37 1.02.36 4 .36-.36.36-.05.36.36.37-.36.36-.37.36-.4.36-.5.36-.4.37 2.27.36-.29.36-.39.36-.37.37-.65.36-.23.36-.09.36-.3.36-.73.37-.42.36-.94.36-1.02.36.23.36 4.28.37-.77.36-.94.36-.51.36-1.15.36-.29.37 1.94.36-1.06.36-.81.36-.86.37-.92.36-.52.36-1.33.36 3.77.36-.77.37-.9.36-.51.36-.74.36-.93.36-.15.37-.89.36-.34.36-1.14.36-.82.36-.08.37-1.33.36.33.36-1.05.36-.94.36-1.11.37-1.19.36-.68.36-.74.36-1.17.37-1.3.36-1.12.36-1.07.36-1.65.36 2.49.37 4.12.36-.84.36-.59.36-.94.36-.24.37.21.36-.54.36-.98.36-1.14.36.37.37-.95.36-.87.36-1.1.36.25.37-1.19.36-.89.36-.56.36-1.26.36 7.15.37-1.1.36-.34.36-1.13.36-1.12.36-1.1.37.36.36.03.36 1.88.36-.98.36-.92.37-.79.36-1.14.36-.33.36-1.02.36-.65.37-.46.36-1.31.36-.99.36-.69.37-1.18.36-.03.36-1.44.36-1.24.36 5.48.37-.51.36-.7.36-.95.36-.14.36-1.01.37-.51.36-.96.36-1.12.36-1.13.36 18.64.37-.44.36-.55.36-.98.36 7.91.37-.51.36-.86.36-.22.36-.5.36-.73.37-.47.36-1.12.36-1.02.36 7.41.36-.69.37-.39.36-.89.36-.72.36-.5.36-1.13.37.24.36-.99.36-1 .36-.11.36-1.14.37-1.03.36-1.24.36 1.51.36-.6.37 2.74.36-.37.36-.7.36-.85.36-.48.37-.59.36-.77.36-1.23.36-.41.36-.7.37-1.05.36.46.36-1 .36-.98.36.54.37-.94.36-.88.36-.49.36-.69.37 7.14.36-1.17.36-.62.36-1.23.36-.54.37 4.15.36-.77.36-.39.36-.79.36-.94.37-1.2.36-.67.36 4.26.36-.72.36-1 .37-.09.36-.95.36-.99.36.15.37-1.12.36-.17.36-.87.36-.97.36-1.21.37-.53.36-1.34.36-.92.36-.21.36-1.12.37-1.07.36-1.12.36 1.2.36-1.19.36-1.06.37 2.53.36-1.17.36-1.2.36-1.15.36-.54.37-1.2.36.96.36-1.04.36-1.22.37-.97.36-.04.36-.86.36-.6.36-.35.37-1.25.36-1.2.36-1.6.36-.43.36-1.34.37-.63.36 1.7.36-1.51.36-1.14.36 18.23.37-.83.36-.39.36-.71.36-.77.37-.86.36-1.25.36 11.41.36 6.8.36-.55.37-.43.36-.85.36-.93.36.75.36-.88.37-.7.36-1.14.36-.64.36.62.36-.83.37-.24.36-.85.36 2.74.36-.79.36-.86.37-1.11.36 1.31.36-.94.36-.24.37-.06.36-.65.36-.87.36-.93.36-.56.37-1.2.36-1.23.36 1.51.36-.95.36-1.17.37-.69.36.24.36-1.04.36-1.14.36-.44.37-.23.36-1.29.36-.46.36-1.11.37.44.36.05.36-1.15.36-1.3.36-1.29.37 4.1.36-1.01.36-.6.36-.7.36-1.1.37-.6.36-.49.36-1.22.36-1.32.36 3 .37-1.12.36-.88.36-1 .36-.02.36-.46.37-1.27.36-.46.36-1.34.36-1.08.37-.48.36-1.3.36-1.31.36-1.59.36-.91.37-1.51.36-.97.36 1.25.36-1.17.36-.99.37 1.48.36-1.01.36-1.32.36-1.04.36 18.29.37-.95.36-.74.36-.59.36-1.02.37-.35.36.1.36-.68.36-.88.36-1 .37-1.05.36.11.36-.41.36-.47.36-.98.37-1.35.36-1.18.36 2.52.36-1.01.36 18.63.37-.16.36-.61.36-.43.36-.53.37-.72.36-1.05.36 2.47.36-.6.36-.67.37-.18.36-.88.36-.73.36.52.36-.87.37-.57.36-.76.36-.73.36-1.09.36.6.37-.38.36-.9.36-.85.36-.87.36-1.1.37-.59.36 1.39.36-.86.36-1 .37-1.11.36 1.8.36 5.73.36.41.36-.07.37-.32.36-.77.36-.71.36-1.04.36-.22.37.33.36-.81.36-.75.36-.87.36-.75.37-.92.36-1.25.36.22.36-.6.37-1.06.36-.79.36-1.25.36 2.58.36-1.42.37 4.31.36-.87.36-1.09.36 3.35.36-.29.37-1.03.36-.51.36-.51.36-1.08.36-.58.37-1.03.36-1.11.36-.64.36.36.36-.71.37-1.13.36-.62.36-1.18.36-1.25.37-.69.36-1.29.36 1.39.36-.78.36-1.27.37-.1.36-1.37.36 1.4.36-1.11.36-1.29.37-.37.36-1.15.36-1.31.36-.58.36-1.16.37-1.24.36-1.59.36 12.74.36-1.33.37-.96.36-.24.36-.96.36-1.18.36-1.28.37-.86.36-1.37.36-1.01.36-.76.36-1.49.37-.26.36-1.23.36 18.67.36-.76.36 18.85.37-.5.36-.33.36-.33.36-.18.37-.61.36-.2.36-.63.36.37.36.66.37-.51.36-.47.36-1.01.36.46.36-.75.37-.61.36-.84.36 2.23.36-.76.36-1.13.37.2.36-.94.36-.78.36-.77.36-1.28.37-1.09.36 5.97.36-.62.36-.57.37-.68.36-.64.36-.58.36-1.11.36.3.37.22.36-.82.36-.83.36-.63.36-.97.37.07.36 1.71.36-1.02.36-.35.36-.39.37-.84.36-1.22.36-.28.36-1.07.37-1.16.36-.57.36-1.15.36-1.54.36 5.88.37-.94.36-.59.36-1.18.36-.78.36-1.12.37-.07.36-.49.36-1 .36-1 .36.14.37-1.06.36-.96.36.13.36-.88.36-.82.37-.8.36-.83.36-1.05.36-1.26.37 3.01.36-.88.36-.8.36-.79.36-1.11.37-.7.36 5 .36 1.89.36-.91.36-.26.37-.63.36 8.59.36-1.04.36-.69.36-.07.37-.97.36-.72.36-.92.36-1.12.37-.86.36.28.36-.67.36-1.15.36-.98.37-1.29.36.26.36-.7.36-.92.36-1.29.37-1.48.36.04.36-1.25.36-1.58.36 18.56.37-.69.36-.15.36-.3.36-.67.36-.91.37-.34.36 6.01.36-.49.36-.45.37-.39.36-.81.36-1.03.36.89.36-.53.37-.75.36-.52.36-.85.36-.84.36.69.37-.6.36 4.26.36-.99.36 3.96.36-.56.37-.97.36 1.7.36-.59.36-.38.37-.6.36-.71.36-.94.36.83.36-.03.37-.43.36-.78.36-.68.36-.63.36-1.14.37.14.36-1.09.36-.18.36-.73.36-1.19.37-.57.36-1.35.36.06.36-.94.37-1.25.36-.92.36 2.01.36-1.12.36 3.94.37-.78.36-.9.36-.53.36-.76.36-.87.37-1.22.36-.44.36 2.01.36-.79.36-.23.37-1.08.36-.5.36.38.36-.9.36-1.07.37-.36.36-.52.36-1.07.36-.67.37-.54.36-.96.36-.96.36-1.13.36 1.87.37 2.35.36 1.59.36-.8.36-.9.36-.81.37-.87.36-.46.36-1.04.36-.4.36-.9.37-.98.36-1.05.36-1.15.36-.08.37-1.33.36.24.36-.61.36-1.24.36-.46.37-1.23.36-1.3.36-.5.36-1.41.36-1.17.37.71.36-.13.36-1.38.36-1.45.36 20.74.37-.79.36-.81.36-.68.36-.86.36-1.02.37.08.36-1.04.36-.99.36-.91.37-.79.36-1.33.36 18.7.36.66.36-.5.37-.38.36-.68.36-.88.36-.23.36-.18.37-.92.36-.55.36-1.1.36-.69.36 1.56.37-1.31.36 3.56.36-.46.36-.93.37-.66.36 13.15.36-.89.36-.4.36-.39.37-1.01.36-.97.36-1.63.36-.66.36-1.16.37.03.36-1.23.36 1.66.36-.7.36-.34.37-1.08.36-1.31.36-.48.36-.86.36-1.3.37-.98.36-1.24.36-1.6.36 5.6.37-1.18.36-.99.36-.63.36-.66.36-1.14.37-1.19.36-.46.36-1.32.36-.41.36-.36.37-1.25.36-1.12.36.17.36-1.24.36-1.17.37-.5.36-1.42.36 3.29.36-.75.37.53.36-.62.36-.96.36-.87.36-1.19.37-.67.36 1.43.36-.96.36-1.1.36-.99.37-.89.36-1.02.36-.67.36-.1.36-.81.37-1.29.36-.84.36-1.26.36-1.5.37.21.36.99.36 1.1.36-1.19.36-.86.37 6.51.36-1.27.36-.37.36-1.41.36-.64.37-.91.36-1.53.36-.86.36-1.64.36 18.83.37-.3.36-1.31.36.54.36-.83.36-2.69.37-.45.36-1.03.36-.47.36-.85.37-1.35.36-.27.36-1.49.36.33.36-1.17.37 18.28.36-.62.36-.52.36-.53.36-.43.37-.94.36-.7.36-.93.36-.9.36-1.02.37.12.36 1.5.36-.64.36-.85.37-.48.36-.89.36-.3.36-.49.36-1.09.37-.94.36-1.2.36 5.96.36-1.04.36-1.11.37.19.36-1 .36-1.26.36 1.87.36-1.03.37-.75.36-.64.36-.44.36-.27.36-1.1.37-.83.36-1.32.36-.79.36 4.1.37-.99.36.36.36-.74.36-.98.36-1.12.37.24.36-1.02.36-1.09.36-1.31.36-.34.37-1.2.36-1.17.36.11.36-1.22.36-.51.37-1.07.36 5.84.36-.89.36-1.21.37-.29.36-.82.36-.85.36-.91.36-1.35.37-.13.36 1.24.36.43.36-.8.36-.62.37-1.1.36-.82.36-1.22.36-.68.36.71.37-1.19.36-.76.36-1.33.36-.96.36 4.6.37-1.18.36-1.12.36 3.18.36-.63.37-1.01.36-.26.36-.52.36-1.03.36-.84.37-.84.36-1.39.36-1.15.36 18.19.36.73.37 4.79.36-.22.36-.03.36-.63.36-.72.37.37.36-.77.36-.58.36-.35.37-.77.36-.75.36 2.39.36-.59.36-.66.37-.74.36.21.36-.87.36-.41.36-.32.37-1.03.36-.56.36-.9.36-.91.36-1.12.37-.26.36 2.13.36 1.83.36-.65.37-.66.36-1.05.36-.41.36-.55.36-.91.37-1.15.36-.01.36 6.26.36-.81.36-1.08.37.53.36-.82.36-.8.36-.87.36-.51.37-.77.36-.64.36-.82.36-.91.36-1.29.37.05.36 1.86.36-1.11.36 4.15.37-.41.36-.9.36-.8.36-.12.36-1 .37-.4.36-.94.36-.68"/><use xlink:href="#db761__a" color="#D336C8" transform="matrix(3.75 0 0 3.75 125.4 125.08)"/><use xlink:href="#db761__a" color="#D336C8" transform="matrix(3.75 0 0 3.75 220.55 7.51)"/></g><text stroke-linecap="round" stroke-linejoin="round" color="#000" font-family="KaTeX_Main" font-size="8" transform="translate(241.1 25.11)"><tspan>AVLRelaxedTopDown</tspan></text><g fill="none" stroke="currentColor" stroke-linecap="round" stroke-linejoin="round" color="#000"><path stroke="#9F650D" stroke-dasharray="4.0,2.0,1.0,2.0" d="M205.6 22.51h29.9M28 158.64l.36-.91.36-1.17.37-1.99.36 2.88.36-.86.36-.97.36-1.72.37.14.36-.78.36-.73.36-1.56.37 1.01.36.47.36-.3.36-.53.36-.66.37-.69.36-1.05.36-.79.36-4.42.36-.7.37 3.87.36.3.36-.28.36-.82.36-.3.37 6.57.36-.17.36-.14.36-.72.36-1.04.37.58.36-.12.36-1.83.36-.27.37-.62.36-1.06.36 2.07.36-.23.36.17.37-.08.36-.15.36-.44.36-.85.36-.03.37-.69.36-.17.36-.23.36-.29.36-.21.37-.7.36-.22.36-1.17.36-.5.37.21.36-.86.36-.17.36-.91.36.35.37-.51.36-.93.36-1.07.36-.96.36.29.37 1.58.36-.75.36-.08.36-1.06.36-1.27.37-.45.36-1.18.36-.34.36-.87.37-1.3.36-1.06.36-1.51.36 2.94.36-1.87.37-.14.36-.72.36-1.11.36-1.25.36-.56.37 9.25.36 4.65.36-.97.36.39.36-.52.37-.89.36.31.36-.48.36-.52.36-.69.37-.89.36-3.33.36 2.45.36-.24.37-.69.36-.63.36-.48.36-.99.36-1.23.37 3.93.36.09.36-.4.36-.59.36-.97.37-1 .36.81.36-1.02.36.51.36-.9.37-.89.36-.93.36-1.09.36.28.37-1.3.36-.87.36.23.36-1.22.36-.54.37-.96.36-.44.36-1.16.36-1.5.36 4.33.37-1.14.36-1.12.36 1.2.36 2.6.36-.78.37 2.29.36-.73.36-.88.36.66.36-.3.37-.65.36-.58.36-.89.36-.57.37-.72.36.18.36-.73.36-.85.36-1.09.37-.26.36-1.15.36-1.53.36-.68.36-.46.37-1.27.36-1.17.36 1.47.36-1.43.36 9.03.37.46.36-.7.36-1.1.36-.23.37-1.12.36-.78.36-.34.36-1.26.36-1 .37-1.37.36 1.04.36-1.27.36-.09.36-1.34.37-1.34.36-.07.36-1.04.36-1.18.36-2 .37-.83.36-.92.36 3.57.36-1.31.36-1.04.37-1.51.36-1.73.36 20.83.36.12.37-.76.36-.51.36-.71.36-1.1.36-.24.37-.33.36-1.05.36-.61.36-1.18.36-1.26.37-1.15.36-.08.36-.69.36-.4.36-1.1.37-1.02.36-3.32.36-.81.36 11.48.37-.75.36-.96.36-.72.36-1.15.36 3.33.37 4.43.36-.7.36-.37.36-.52.36-1.05.37.1.36-.14.36-.76.36-.87.36-.59.37-.79.36-.98.36-1.41.36.29.37-1.42.36-1.12.36-1.27.36-.39.36-1.76.37-.65.36.77.36-.89.36-1.35.36-1.37.37-.59.36-1.51.36.96.36-2.26.36-1.16.37 4.42.36.18.36-1.16.36-1.04.36-.52.37-1.35.36-.69.36-1.26.36 8.1.37-1.43.36 1.79.36.34.36-.44.36-.7.37-1.05.36-1.63.36-1.19.36-.19.36-.57.37-1.5.36-.95.36-1.6.36.05.36 18.22.37-.71.36-.39.36-.48.36-1.19.37-.91.36 1.59.36-.28.36-.68.36-.8.37-.04.36-.99.36-.65.36.24.36-1.23.37-1.09.36-.69.36-.94.36.65.36-1.45.37-.37.36-1.04.36-1.02.36-.7.36-1.25.37-1.37.36 1.08.36-2 .36-.89.37-1.2.36 3.01.36-.89.36-1.32.36 19.08.37-.62.36-.51.36-.62.36-.79.36-1.07.37-.66.36.46.36-.97.36-.99.36.11.37-.94.36-3.08.36-.36.36-.92.37-.6.36-.49.36-1.38.36-.78.36-1.25.37 4.11.36 2.47.36-.7.36 2.91.36-.57.37.92.36-.12.36-.34.36-.58.36-.67.37-.65.36-1 .36-1.21.36 1.05.36-1.06.37-.85.36-.25.36-1.11.36-1.18.37-.57.36-.95.36-1.01.36-1.49.36.72.37-1.19.36-1.51.36 1.26.36 2.91.36 3.56.37-.41.36-.92.36-.73.36-.31.36-.52.37-.82.36-.86.36-1.02.36-1.42.37-.93.36-.18.36 3.47.36.04.36-.74.37-1.13.36-1.53.36-.77.36-.27.36-.96.37-1.33h.36l.36-1.44.36-1.71.36 14.54.37-.85.36-.49.36-.64.36-1.02.37-.14.36-.87.36.11.36-.96.36-.58.37-1.01.36-.66.36-1 .36.11.36-1.35.37-.9.36-.83.36-1.36.36-1.32.36.19.37-.41.36-1.16.36-1.1.36.23.36-1.48.37-.74.36 1.02.36-1.86.36-1 .37-1.28.36.27.36-1.17.36-1.54.36-.47.37-1.07.36-1.69.36-.56.36 1.7.36-1.5.37-.09.36-1.2.36 18.58.36-.81.36-.39.37-.67.36-3.18.36 15.45.36-.05.37-.38.36-.6.36-1.13.36-.89.36-.52.37 4.34.36-.58.36-.95.36.23.36-.83.37-1.12.36-.46.36 9.15.36-.31.36-.31.37-.98.36-.65.36.58.36.57.36-.8.37-.72.36-.79.36-.2.36-1.35.37-.22.36-.97.36-.07.36-.8.36-.55.37-.91.36-1.33.36 1.69.36-1.76.36-.73.37-.99.36 2.71.36-.81.36-.21.36-.75.37-.7.36-1.15.36-.72.36-1.33.37-.79.36.06.36-1.06.36-1.18.36-1.22.37-.26.36-1.71.36-.69.36-1.12.36-1.47.37-.81.36-1.27.36-1.6.36-1.96.36 18.56.37-1.32.36-.16.36 3.92.36 2.45.37-.78.36 2.26.36-.87.36-.06.36-.76.37-.7.36-.77.36-1.33.36-.04.36.49.37-.64.36-.76.36-1.08.36-1.6.36-1.02.37.4.36-1.07.36-1.35.36-.65.36-1.28.37-1.29.36 1.07.36-2.25.36 1.05.37-.86.36-1.26.36-.02.36-.9.36-.71.37-.87.36-1.43.36-.73.36-1.55.36-1.43.37-.17.36-1.85.36.16.36-1.45.36-1.15.37-1.41.36-3.51.36-.25.36-.21.37-.75.36-.67.36-1.49.36-1.7.36 23.15.37-1.14.36-.89.36 5.66.36-.62.36-1.03.37-.67.36-.15.36-1.06.36 9.05.36-.4.37-.97.36-.85.36 1.24.36-.89.36-.83.37-.78.36-.87.36-.41.36-1.1.37-.38.36-.43.36-1.02.36-.61.36-1.2.37-1.39.36.9.36 1.63.36 2.83.36-.72.37-.74.36-.5.36-.47.36-.25.36.49.37-.76.36.11.36-.96.36-1.23.37-.59.36.16.36-.84.36-1.2.36-.88.37-.57.36-1.6.36.99.36 4.73.36-.71.37-1.14.36-.27.36-1.07.36-1.13.36 9.29.37-.91.36-.66.36-.73.36-.76.36 2.31.37-.4.36-.17.36-.74.36-.97.37-.75.36-1.04.36-1.14.36.07.36.17.37-.76.36-.78.36-.98.36-1.61.36-.38.37-.16.36-.87.36-1.21.36-1.11.36-.4.37-1.43.36 1.34.36-2.38.36-1.03.37 3.88.36 1.19.36-1.1.36-.71.36-.27.37-.96.36-1.26.36-1.29.36-.91.36-.76.37.08.36-1.44.36-1.09.36-.17.36-1.36.37-3.44.36-1.35.36-.37.36-1.18.37-1.04.36-.97.36-1.52.36-1.4.36 3.57.37-1.62.36 18.7.36-.67.36-.74.36-1 .37-1.26.36-.82.36-.42.36.29.36 8.57.37-.78.36-1.18.36.3.36.33.36-.63.37-.57.36-.69.36-.86.36-1.63.37.28.36-1.11.36-.66.36-1.06.36-.76.37-1.35.36 1.17.36-2.16.36-1.06.36-1.19.37 2.27.36-.82.36-1.16.36-.46.36-.74.37-1.15.36-.76.36-1.38.36-1.53.37-.89.36-.13.36-1.48.36.39.36-1.16.37-1.46.36-.86.36-.4.36-1.18.36-1.4.37-.73.36 22.06.36-1.14.36-1.53.36 18.76.37-.76.36-1 .36 4.7.36-.74.36-.93.37 3.15.36-.63.36-.67.36.07.37-.87.36-.91.36-.7.36.25.36-.15.37-.74.36-.82.36-1.19.36-1.4.36-.57.37-.82.36.06.36-1.2.36-.83.36-1.18.37-1.3.36 1.9.36-2 .36-1.06.37-.76.36-1.05.36-1.33.36.31.36 1.26.37-1.15.36.02.36-1.07.36.17.36-.63.37.07.36-1.28.36-.79.36-.91.36-1.36.37-3.64.36-.3.36-.67.36-1.11.36-1.35.37-.84.36-1.07.36-.91.36 3.78.37-1.47.36-1.07.36-.79.36-1.5.36 18.38.37-.89h.36l.36-.93.36-1.1.36 7.61.37-.44.36-.8.36.32.36-.91.36-.76.37-.6.36-.63.36.2.36-1.45.37-.26.36-.66.36-1.09.36-.64.36-1.2.37-.71.36 1.18.36 2.15.36 2.79.36-.62.37-.17.36-.73.36 13.79.36.25.36-.47.37-.64.36-.58.36-.97.36 1.24.37.58.36-.81.36-.6.36-.61.36-.62.37-.57.36-1.46.36-.38.36-.82.36-.73.37.29.36-1.06.36-1.05.36-1.29.36 9.09.37.07.36-.8.36-.73.36-1.15.36-.51.37-.65.36-1.14.36 3.31.36-.73.37-1.31.36 2.68.36-1.01.36.49.36-.21.37-.99.36-.48.36-1.3.36-1.35.36-.54.37-.18.36-.75.36-.95.36-1.45.36-1.02.37-.98.36 1.42.36-2.2.36-.43.37-.89.36-1.33.36-1.21.36-.8.36.76.37-1.03.36-.33.36-.75.36-1.24.36-1.21h.37l.36-1.5.36-1.11.36-.76.36-1.28.37-3.62.36-.73.36.44.36-1.17.36-1.2.37-1.27.36-1.74.36-.94.36 3.53.37.66.36-1.08.36-.19.36-1.47.36 18.42.37-.44.36-1.14.36-.86.36 7.6.36-.23.37-.82.36-.9.36.29.36-.69.36-.27.37-.63.36-1.12.36-1.36.36-.98.37 1.2.36-.88.36-.93.36-.79.36-1.35.37-1.21.36 1.91.36-2.15.36-.78.36-.74.37-1.35.36 3.11.36-.9.36 1.1.36-.81.37-.77.36-.96.36-1.37.36-.64.36-.03.37-1.39.36-1.22.36-.74.36.37.37-1.08.36-1.86.36-.67.36-.84.36-1.04.37-1.06.36-1.37.36-1.79.36 18.67.36-1.23.37-.82.36-1.27.36 2.72.36-1.04.36-.66.37 5.13.36-.87.36-.68.36-.76.37-.95.36-.03.36.24.36-1.12.36-.94.37-.57.36-.87.36-1.14.36-1.73.36-.32.37-1.34.36.07.36-.97.36-1.39.36-1.29.37-1.5.36 1.78.36-1.8.36-.99.37-1 .36-1.29.36.95.36-.62.36-1.45.37 1.45.36-.67.36-1.36.36-1.28.36-1.49.37-.37.36 2.92.36-1.09.36-1 .36-1.5.37-3.13.36-.69.36 18.09.36.5.36-1.12.37-.84.36-.87.36-1.44.36 4.02.37-1.15.36-1.05.36-.4.36-1.15.36-1.21.37-.74.36-1.32.36-.79"/><use xlink:href="#db761__c" color="#9F650D" transform="matrix(3.75 0 0 3.75 182.98 114.64)"/><use xlink:href="#db761__c" color="#9F650D" transform="matrix(3.75 0 0 3.75 220.55 22.51)"/></g><path fill="none" d="M28 45.01V162.5M371.99 45.01H28" color="#000"/></svg>