<svg xmlns="http://www.w3.org/2000/svg" xmlns:xlink="http://www.w3.org/1999/xlink" viewBox="0 0 400 200"><path fill="none" d="M0 0h400v200H0z"/><defs><use xlink:href="#f246c__a" id="f246c__d" fill="currentColor" stroke="none"/><use xlink:href="#f246c__b" id="f246c__c" stroke="currentColor" transform="rotate(180)"/><circle id="f246c__a" cx="0" cy="0" r="1" stroke="currentColor" stroke-width=".267"/><path id="f246c__b" stroke="currentColor" stroke-width=".267" d="m0-1.33-1.33 2h2.66z"/></defs><path fill="none" stroke="#CCC" stroke-linecap="round" stroke-linejoin="round" stroke-width=".1" d="M46.1 162.5V45.01" class="f246c__gridline" color="#000"/><g fill="none" stroke-linecap="round" stroke-linejoin="round" stroke-width="0" color="#000"><path d="M46.1 162.5V155m0-109.99v7.5"/><text fill="#000" font-family="KaTeX_Main" font-size="8" text-anchor="middle" transform="translate(46.1 172.6)"><tspan> 1</tspan></text></g><path fill="none" stroke="#CCC" stroke-linecap="round" stroke-linejoin="round" stroke-width=".1" d="M82.31 162.5V45.01" class="f246c__gridline" color="#000"/><g fill="none" stroke-linecap="round" stroke-linejoin="round" stroke-width="0" color="#000"><path d="M82.31 162.5V155m0-109.99v7.5"/><text fill="#000" font-family="KaTeX_Main" font-size="8" text-anchor="middle" transform="translate(82.31 172.6)"><tspan> 2</tspan></text></g><path fill="none" stroke="#CCC" stroke-linecap="round" stroke-linejoin="round" stroke-width=".1" d="M118.52 162.5V45.01" class="f246c__gridline" color="#000"/><g fill="none" stroke-linecap="round" stroke-linejoin="round" stroke-width="0" color="#000"><path d="M118.52 162.5V155m0-109.99v7.5"/><text fill="#000" font-family="KaTeX_Main" font-size="8" text-anchor="middle" transform="translate(118.52 172.6)"><tspan> 3</tspan></text></g><path fill="none" stroke="#CCC" stroke-linecap="round" stroke-linejoin="round" stroke-width=".1" d="M154.73 162.5V45.01" class="f246c__gridline" color="#000"/><g fill="none" stroke-linecap="round" stroke-linejoin="round" stroke-width="0" color="#000"><path d="M154.73 162.5V155m0-109.99v7.5"/><text fill="#000" font-family="KaTeX_Main" font-size="8" text-anchor="middle" transform="translate(154.73 172.6)"><tspan> 4</tspan></text></g><path fill="none" stroke="#CCC" stroke-linecap="round" stroke-linejoin="round" stroke-width=".1" d="M190.94 162.5V45.01" class="f246c__gridline" color="#000"/><g fill="none" stroke-linecap="round" stroke-linejoin="round" stroke-width="0" color="#000"><path d="M190.94 162.5V155m0-109.99v7.5"/><text fill="#000" font-family="KaTeX_Main" font-size="8" text-anchor="middle" transform="translate(190.94 172.6)"><tspan> 5</tspan></text></g><path fill="none" stroke="#CCC" stroke-linecap="round" stroke-linejoin="round" stroke-width=".1" d="M227.15 162.5V45.01" class="f246c__gridline" color="#000"/><g fill="none" stroke-linecap="round" stroke-linejoin="round" stroke-width="0" color="#000"><path d="M227.15 162.5V155m0-109.99v7.5"/><text fill="#000" font-family="KaTeX_Main" font-size="8" text-anchor="middle" transform="translate(227.15 172.6)"><tspan> 6</tspan></text></g><path fill="none" stroke="#CCC" stroke-linecap="round" stroke-linejoin="round" stroke-width=".1" d="M263.36 162.5V45.01" class="f246c__gridline" color="#000"/><g fill="none" stroke-linecap="round" stroke-linejoin="round" stroke-width="0" color="#000"><path d="M263.36 162.5V155m0-109.99v7.5"/><text fill="#000" font-family="KaTeX_Main" font-size="8" text-anchor="middle" transform="translate(263.36 172.6)"><tspan> 7</tspan></text></g><path fill="none" stroke="#CCC" stroke-linecap="round" stroke-linejoin="round" stroke-width=".1" d="M299.57 162.5V45.01" class="f246c__gridline" color="#000"/><g fill="none" stroke-linecap="round" stroke-linejoin="round" stroke-width="0" color="#000"><path d="M299.57 162.5V155m0-109.99v7.5"/><text fill="#000" font-family="KaTeX_Main" font-size="8" text-anchor="middle" transform="translate(299.57 172.6)"><tspan> 8</tspan></text></g><path fill="none" stroke="#CCC" stroke-linecap="round" stroke-linejoin="round" stroke-width=".1" d="M335.78 162.5V45.01" class="f246c__gridline" color="#000"/><g fill="none" stroke-linecap="round" stroke-linejoin="round" stroke-width="0" color="#000"><path d="M335.78 162.5V155m0-109.99v7.5"/><text fill="#000" font-family="KaTeX_Main" font-size="8" text-anchor="middle" transform="translate(335.78 172.6)"><tspan> 9</tspan></text></g><path fill="none" stroke="#CCC" stroke-linecap="round" stroke-linejoin="round" stroke-width=".1" d="M371.99 162.5V45.01" class="f246c__gridline" color="#000"/><g fill="none" stroke-linecap="round" stroke-linejoin="round" stroke-width="0" color="#000"><path d="M371.99 162.5V155m0-109.99v7.5"/><text fill="#000" font-family="KaTeX_Main" font-size="8" text-anchor="middle" transform="translate(371.99 172.6)"><tspan> 10</tspan></text></g><g fill="none" stroke-linecap="round" stroke-linejoin="round" stroke-width="0" color="#000"><path d="M371.99 162.5h-7.5"/><text fill="#000" font-family="KaTeX_Main" font-size="8" transform="translate(378.99 165.1)"><tspan>0</tspan></text></g><g fill="none" stroke-linecap="round" stroke-linejoin="round" stroke-width="0" color="#000"><path d="M371.99 45.01h-7.5"/><text fill="#000" font-family="KaTeX_Main" font-size="8" transform="translate(378.99 47.61)"><tspan>1</tspan></text></g><path fill="none" d="M28 45.01V162.5M371.99 45.01H28" color="#000"/><text stroke-linecap="round" stroke-linejoin="round" stroke-width="0" color="#000" font-family="KaTeX_Main" font-size="10" text-anchor="middle" transform="rotate(-90 57.63 46.13)"><tspan>log</tspan><tspan dy="3" font-size="8">2</tspan><tspan dy="-3">(</tspan><tspan font-weight="bold">Maximum Path Length </tspan><tspan> / log</tspan><tspan dy="3" font-size="8">2</tspan><tspan dy="-3">(Size))</tspan></text><text stroke-linecap="round" stroke-linejoin="round" stroke-width="0" color="#000" font-family="KaTeX_Main" font-size="10" text-anchor="middle" transform="translate(199.99 195.75)"><tspan>Operations / 10</tspan><tspan dy="-5" font-size="8">6</tspan></text><text stroke-linecap="round" stroke-linejoin="round" color="#000" font-family="KaTeX_Main" font-size="8" transform="translate(71.2 10.11)"><tspan>RedBlackBottomUp</tspan></text><g fill="none" stroke="currentColor" stroke-linecap="round" stroke-linejoin="round" color="#000"><path stroke="#F44336" d="M35.7 7.51h29.9M28 122.29l.36-6.66.36.25.37.24.36.24.36.24.36.23.36.22.37.23.36.21.36.22.36.21.37.21.36.2.36.2.36.2.36.19.37.19.36.19.36.18.36.18.36.18.37.18.36.17.36.17.36.17.36.17.37.16.36.16.36.16.36.16.36.15.37.15.36.15.36.15.36.15.37.14.36.15.36.14.36.14.36.14.37.14.36.13.36.13.36.14.36.12.37.13.36.13.36.13.36.12.36-6.52h72.79l.36 6.65h6.88l.36-6.65h243.69l.36-6.4h1.45"/><use xlink:href="#f246c__b" color="#F44336" transform="matrix(3.75 0 0 3.75 354.25 117.45)"/><use xlink:href="#f246c__b" color="#F44336" transform="matrix(3.75 0 0 3.75 50.65 7.51)"/></g><text stroke-linecap="round" stroke-linejoin="round" color="#000" font-family="KaTeX_Main" font-size="8" transform="translate(71.2 25.11)"><tspan>RedBlackTopDown</tspan></text><g fill="none" stroke="currentColor" stroke-linecap="round" stroke-linejoin="round" color="#000"><path stroke="#3B75EA" d="M35.7 22.51h29.9M28 129.5l.36-6.95.36.25.37.24.36-6.68.36.24.36-6.42.36 13.79.37.23.36.22.36.21.36.21.37.21.36.2.36.2.36.2.36.19.37.19.36.19.36.18.36.18.36-6.74.37-6.47.36 6.82.36.17.36-6.48.36-6.23.37 6.56.36.16.36 6.81.36.16.36.15.37.15.36.15.36.15.36-6.5.37 13.71.36.15.36.14.36.14.36.14.37.13.36.14.36.13.36.13.36.13.37.13.36.13.36-6.79.36.12.36.13h2.54l.36 6.92.36-6.92h1.81l.37-6.65h.36l.36 6.65h1.81l.36-6.65.37 6.65h1.08l.36-6.65h5.07l.36-6.4h1.82l.36 6.4h2.53l.36 6.65h2.18l.36-6.65h.36l.36 6.65h1.09l.36-6.65.36 6.65.37-6.65h1.08l.36 6.65H91l.37-6.65h2.53l.36 6.65h2.9l.36 6.92.36-6.92h1.09l.36-6.65h.36l.37 6.65h10.14l.36-6.65h2.17l.36 6.65.36-6.65h.73l.36 6.65h1.45l.36-6.65h.36l.37 6.65h.36l.36-6.65h1.81l.36 6.65h4.35l.36-6.65h9.41l.37 6.65h9.77l.36-6.65h.73l.36 6.65h4.35l.36-6.65.36-6.4.36 6.4h1.45l.36 6.65h3.62l.37-6.65h15.93l.36-6.4h1.45l.36 6.4h2.9l.36 6.65h1.45l.36-6.65h1.45l.36 6.65h.36l.36-6.65h.37l.36 6.65h2.9l.36-6.65.36 6.65h10.86l.36-6.65h2.18l.36 6.65.36-6.65h.36l.37 6.65h.36l.36-6.65h5.07l.36 6.65h5.79l.37-6.65.36 6.65h3.62l.36-13.05h.73l.36 6.4h.72l.36 6.65h1.09l.36-6.65.36 6.65h15.57l.37 6.92h.72l.36-6.92h.73l.36 6.92H242l.36-6.92h11.23l.36-6.65h1.08l.37 6.65.36-6.65.36 6.65h3.62l.36-6.65h1.45l.36 6.65.37-6.65.36 6.65h14.84l.37-6.65h2.17l.36 6.65h5.43l.36-6.65h.37l.36 6.65h5.07l.36-6.65h1.09l.36 6.65h.72l.36-6.65h.37l.36 6.65h6.88l.36-6.65.36 6.65h1.09l.36-6.65h.36l.36 6.65h9.78l.36-6.65h1.45l.36-6.4h.73l.36 6.4h1.09l.36 6.65h2.53l.37-6.65h.72l.36 6.65h1.09l.36-6.65h1.09l.36 6.65.36-6.65h2.53l.37 6.65h.72l.36-6.65h1.09l.36 6.65h2.54l.36-6.65h.72l.36 6.65h13.04l.36-6.65.36 6.65h14.13l.36-6.65.36 6.65.36-6.65h6.52"/><use xlink:href="#f246c__c" color="#3B75EA" transform="matrix(3.75 0 0 3.75 67.83 124.1)"/><use xlink:href="#f246c__c" color="#3B75EA" transform="matrix(3.75 0 0 3.75 50.65 22.51)"/></g><text stroke-linecap="round" stroke-linejoin="round" color="#000" font-family="KaTeX_Main" font-size="8" transform="translate(241.1 10.11)"><tspan>RedBlackRelaxedBottomUp</tspan></text><g fill="none" stroke="currentColor" stroke-linecap="round" stroke-linejoin="round" color="#000"><path stroke="#EC6F1A" stroke-dasharray="1.0,2.0" d="M205.6 7.51h29.9M28 122.29l.36-6.66.36.25.37.24.36.24.36.24.36.23.36.22.37.23.36.21.36.22.36.21.37.21.36.2.36.2.36.2.36.19.37.19.36.19.36.18.36.18.36.18.37.18.36.17.36.17.36.17.36.17.37.16.36.16.36.16.36.16.36.15.37.15.36.15.36.15.36.15.37.14.36.15.36.14.36.14.36.14.37.14.36.13.36.13.36.14.36.12.37.13.36.13.36.13.36.12.36-6.52h43.82l.36-6.4h110.44l.36-6.16h116.96l.36-5.95h53.59"/><use xlink:href="#f246c__a" color="#EC6F1A" transform="matrix(3.75 0 0 3.75 125.4 111.05)"/><use xlink:href="#f246c__a" color="#EC6F1A" transform="matrix(3.75 0 0 3.75 220.55 7.51)"/></g><text stroke-linecap="round" stroke-linejoin="round" color="#000" font-family="KaTeX_Main" font-size="8" transform="translate(241.1 25.11)"><tspan>RedBlackRelaxedTopDown</tspan></text><g fill="none" stroke="currentColor" stroke-linecap="round" stroke-linejoin="round" color="#000"><path stroke="violet" stroke-dasharray="4.0,2.0,1.0,2.0" d="M205.6 22.51h29.9M28 129.5l.36-6.95.36.25.37.24.36-6.68.36.24.36-6.42.36 13.79.37.23.36.22.36.21.36.21.37.21.36.2.36.2.36.2.36.19.37.19.36.19.36.18.36.18.36-6.74.37-6.47.36 6.82.36.17.36-6.48.36-6.23.37 6.56.36.16.36 6.81.36.16.36.15.37.15.36.15.36.15.36-6.5.37 13.71.36.15.36.14.36.14.36.14.37.13.36.14.36.13.36.13.36.13.37.13.36.13.36-6.79.36.12.36.13h3.26l.37-6.65h1.81l.36 6.65h2.17l.36-6.65h6.88l.36-6.4h1.82l.36 6.4h8.33l.36-6.4h.72l.36 6.4h9.06l.36 6.65H91l.37-6.65h2.53l.36 6.65h3.62l.37-6.65h2.53l.36 6.65.37-6.65.36 6.65h.72l.36-6.65h3.26l.36-6.4h.73l.36 6.4h1.45l.36-6.4h.73l.36 6.4h3.26l.36-6.4h.36l.36 6.4h1.81l.37-6.4h.36l.36-6.16h1.81l.36 12.56h3.99l.36-6.4.36-6.16h9.41l.37 12.56h13.76l.36-6.4h.72l.36 6.4h2.54l.36-6.4.36 6.4h2.18l.36-6.4h3.26l.36-6.16h1.45l.36 6.16h19.91l.37-6.16h.36l.36 6.16h3.62l.36-6.16h1.45l.36 6.16h.73l.36-6.16h.72l.37 6.16h.36l.36-6.16h7.24l.36-5.95h2.18l.36 5.95.36-5.95h.36l.37 5.95h.36l.36-5.95h5.07l.36 18.51h21l.36-6.4h6.52l.36 6.4h5.8l.36-6.4h5.43l.36-6.16h29.33l.37-5.95h2.17l.36 12.11h5.43l.36-6.16h.37l.36 6.16h11.95l.36-6.16h3.26l.36-5.95.36 5.95h11.95l.36-5.95h1.45l.36-5.75h.73l.36 5.75h6.88l.36-5.75h.73l.36 5.75.36-5.75h2.53l.37 17.86h19.19l.36-6.16h2.17l.36 6.16h2.54l.36-6.16h12.31l.36-5.95h1.82l.36 5.95h1.81l.36-5.95"/><use xlink:href="#f246c__d" color="violet" transform="matrix(3.75 0 0 3.75 182.98 111.05)"/><use xlink:href="#f246c__d" color="violet" transform="matrix(3.75 0 0 3.75 220.55 22.51)"/></g><path fill="none" d="M28 45.01V162.5M371.99 45.01H28" color="#000"/></svg>