<svg xmlns="http://www.w3.org/2000/svg" xmlns:xlink="http://www.w3.org/1999/xlink" viewBox="0 0 400 200"><path fill="none" d="M0 0h400v200H0z"/><defs><use xlink:href="#bfc89__a" id="bfc89__c" fill="currentColor" stroke="none"/><use xlink:href="#bfc89__a" id="bfc89__b" stroke="currentColor" transform="rotate(180)"/><use xlink:href="#bfc89__b" id="bfc89__d" fill="currentColor" stroke="none"/><path id="bfc89__a" stroke="currentColor" stroke-width=".267" d="m0-1.33-1.33 2h2.66z"/></defs><path fill="none" stroke="#CCC" stroke-linecap="round" stroke-linejoin="round" stroke-width=".1" d="M46.1 162.5V45.01" class="bfc89__gridline" color="#000"/><g fill="none" stroke-linecap="round" stroke-linejoin="round" stroke-width="0" color="#000"><path d="M46.1 162.5V155m0-109.99v7.5"/><text fill="#000" font-family="KaTeX_Main" font-size="8" text-anchor="middle" transform="translate(46.1 172.6)"><tspan> 1</tspan></text></g><path fill="none" stroke="#CCC" stroke-linecap="round" stroke-linejoin="round" stroke-width=".1" d="M82.31 162.5V45.01" class="bfc89__gridline" color="#000"/><g fill="none" stroke-linecap="round" stroke-linejoin="round" stroke-width="0" color="#000"><path d="M82.31 162.5V155m0-109.99v7.5"/><text fill="#000" font-family="KaTeX_Main" font-size="8" text-anchor="middle" transform="translate(82.31 172.6)"><tspan> 2</tspan></text></g><path fill="none" stroke="#CCC" stroke-linecap="round" stroke-linejoin="round" stroke-width=".1" d="M118.52 162.5V45.01" class="bfc89__gridline" color="#000"/><g fill="none" stroke-linecap="round" stroke-linejoin="round" stroke-width="0" color="#000"><path d="M118.52 162.5V155m0-109.99v7.5"/><text fill="#000" font-family="KaTeX_Main" font-size="8" text-anchor="middle" transform="translate(118.52 172.6)"><tspan> 3</tspan></text></g><path fill="none" stroke="#CCC" stroke-linecap="round" stroke-linejoin="round" stroke-width=".1" d="M154.73 162.5V45.01" class="bfc89__gridline" color="#000"/><g fill="none" stroke-linecap="round" stroke-linejoin="round" stroke-width="0" color="#000"><path d="M154.73 162.5V155m0-109.99v7.5"/><text fill="#000" font-family="KaTeX_Main" font-size="8" text-anchor="middle" transform="translate(154.73 172.6)"><tspan> 4</tspan></text></g><path fill="none" stroke="#CCC" stroke-linecap="round" stroke-linejoin="round" stroke-width=".1" d="M190.94 162.5V45.01" class="bfc89__gridline" color="#000"/><g fill="none" stroke-linecap="round" stroke-linejoin="round" stroke-width="0" color="#000"><path d="M190.94 162.5V155m0-109.99v7.5"/><text fill="#000" font-family="KaTeX_Main" font-size="8" text-anchor="middle" transform="translate(190.94 172.6)"><tspan> 5</tspan></text></g><path fill="none" stroke="#CCC" stroke-linecap="round" stroke-linejoin="round" stroke-width=".1" d="M227.15 162.5V45.01" class="bfc89__gridline" color="#000"/><g fill="none" stroke-linecap="round" stroke-linejoin="round" stroke-width="0" color="#000"><path d="M227.15 162.5V155m0-109.99v7.5"/><text fill="#000" font-family="KaTeX_Main" font-size="8" text-anchor="middle" transform="translate(227.15 172.6)"><tspan> 6</tspan></text></g><path fill="none" stroke="#CCC" stroke-linecap="round" stroke-linejoin="round" stroke-width=".1" d="M263.36 162.5V45.01" class="bfc89__gridline" color="#000"/><g fill="none" stroke-linecap="round" stroke-linejoin="round" stroke-width="0" color="#000"><path d="M263.36 162.5V155m0-109.99v7.5"/><text fill="#000" font-family="KaTeX_Main" font-size="8" text-anchor="middle" transform="translate(263.36 172.6)"><tspan> 7</tspan></text></g><path fill="none" stroke="#CCC" stroke-linecap="round" stroke-linejoin="round" stroke-width=".1" d="M299.57 162.5V45.01" class="bfc89__gridline" color="#000"/><g fill="none" stroke-linecap="round" stroke-linejoin="round" stroke-width="0" color="#000"><path d="M299.57 162.5V155m0-109.99v7.5"/><text fill="#000" font-family="KaTeX_Main" font-size="8" text-anchor="middle" transform="translate(299.57 172.6)"><tspan> 8</tspan></text></g><path fill="none" stroke="#CCC" stroke-linecap="round" stroke-linejoin="round" stroke-width=".1" d="M335.78 162.5V45.01" class="bfc89__gridline" color="#000"/><g fill="none" stroke-linecap="round" stroke-linejoin="round" stroke-width="0" color="#000"><path d="M335.78 162.5V155m0-109.99v7.5"/><text fill="#000" font-family="KaTeX_Main" font-size="8" text-anchor="middle" transform="translate(335.78 172.6)"><tspan> 9</tspan></text></g><path fill="none" stroke="#CCC" stroke-linecap="round" stroke-linejoin="round" stroke-width=".1" d="M371.99 162.5V45.01" class="bfc89__gridline" color="#000"/><g fill="none" stroke-linecap="round" stroke-linejoin="round" stroke-width="0" color="#000"><path d="M371.99 162.5V155m0-109.99v7.5"/><text fill="#000" font-family="KaTeX_Main" font-size="8" text-anchor="middle" transform="translate(371.99 172.6)"><tspan> 10</tspan></text></g><g fill="none" stroke-linecap="round" stroke-linejoin="round" stroke-width="0" color="#000"><path d="M371.99 162.5h-7.5"/><text fill="#000" font-family="KaTeX_Main" font-size="8" transform="translate(378.99 165.1)"><tspan>0.03</tspan></text></g><g fill="none" stroke-linecap="round" stroke-linejoin="round" stroke-width="0" color="#000"><path d="M371.99 142.92h-7.5"/><text fill="#000" font-family="KaTeX_Main" font-size="8" transform="translate(378.99 145.52)"><tspan>0.03</tspan></text></g><g fill="none" stroke-linecap="round" stroke-linejoin="round" stroke-width="0" color="#000"><path d="M371.99 123.34h-7.5"/><text fill="#000" font-family="KaTeX_Main" font-size="8" transform="translate(378.99 125.94)"><tspan>0.04</tspan></text></g><g fill="none" stroke-linecap="round" stroke-linejoin="round" stroke-width="0" color="#000"><path d="M371.99 103.75h-7.5"/><text fill="#000" font-family="KaTeX_Main" font-size="8" transform="translate(378.99 106.35)"><tspan>0.04</tspan></text></g><g fill="none" stroke-linecap="round" stroke-linejoin="round" stroke-width="0" color="#000"><path d="M371.99 84.17h-7.5"/><text fill="#000" font-family="KaTeX_Main" font-size="8" transform="translate(378.99 86.77)"><tspan>0.04</tspan></text></g><g fill="none" stroke-linecap="round" stroke-linejoin="round" stroke-width="0" color="#000"><path d="M371.99 64.59h-7.5"/><text fill="#000" font-family="KaTeX_Main" font-size="8" transform="translate(378.99 67.19)"><tspan>0.05</tspan></text></g><g fill="none" stroke-linecap="round" stroke-linejoin="round" stroke-width="0" color="#000"><path d="M371.99 45.01h-7.5"/><text fill="#000" font-family="KaTeX_Main" font-size="8" transform="translate(378.99 47.61)"><tspan>0.05</tspan></text></g><path fill="none" d="M28 45.01V162.5M371.99 45.01H28" color="#000"/><text stroke-linecap="round" stroke-linejoin="round" stroke-width="0" color="#000" font-family="KaTeX_Main" font-size="10" text-anchor="middle" transform="rotate(-90 57.63 46.13)"><tspan font-weight="bold">Allocations </tspan><tspan> / log</tspan><tspan dy="3" font-size="8">2</tspan><tspan dy="-3">(Size)</tspan></text><text stroke-linecap="round" stroke-linejoin="round" stroke-width="0" color="#000" font-family="KaTeX_Main" font-size="10" text-anchor="middle" transform="translate(199.99 195.75)"><tspan>Operations / 10</tspan><tspan dy="-5" font-size="8">6</tspan></text><text stroke-linecap="round" stroke-linejoin="round" stroke-width=".5" color="#000" font-family="KaTeX_Main" font-size="8" transform="translate(110.4 10.11)"><tspan>AVLBottomUp</tspan></text><g fill="none" stroke="currentColor" stroke-linecap="round" stroke-linejoin="round" stroke-width=".5" color="#000"><path stroke="#000" d="M74.9 7.51h29.9M28 53.37l.36.31.36.31.37.3.36.3.36.29.36.28.36.28.37.27.36.27.36.26.36.25.37.25.36.25.36.24.36.24.36.24.37.23.36.22.36.23.36.22.36.23.37.22.36.24.36.24.36.25.36.27.37.3.36.35.36.39.36.46.36.54.37.64.36.77.36.92.36 1.09.37 1.28.36 1.5.36 1.74.36 2 .36 2.26.37 2.54.36 2.81.36 3.08.36 3.34.36 3.57.37 3.78.36 3.95.36 4.08.36 4.17.36 4.22.37 4.21.36 4.17.36 4.08.36 3.94.37 3.78.36 3.58.36 3.36.36 3.12.36 2.88.37 2.61.36 2.37.36 2.11.36 1.88.36 1.64.37 1.44.36 1.23.36 1.06.36.9.36.75.37.63.36.52.36.43.36.34.37.28.36.23.36.18.36.14.36.11.37.09.36.06.36.05.36.04.36.03.37.02.36.02.36.01.36.01.36.01h.37l.36.01h311.4"/><use xlink:href="#bfc89__c" transform="matrix(3.75 0 0 3.75 353.89 162.16)"/><use xlink:href="#bfc89__c" transform="matrix(3.75 0 0 3.75 89.85 7.51)"/></g><text stroke-linecap="round" stroke-linejoin="round" color="#000" font-family="KaTeX_Main" font-size="8" transform="translate(110.4 25.11)"><tspan>AVLTopDown</tspan></text><g fill="none" stroke="currentColor" stroke-linecap="round" stroke-linejoin="round" color="#000"><path stroke="#29C3F6" stroke-dasharray="2.5,4.0" d="M74.9 22.51h29.9M28 53.37l.36.31.36.31.37.3.36.3.36.29.36.28.36.28.37.27.36.27.36.26.36.25.37.25.36.25.36.24.36.24.36.24.37.23.36.22.36.23.36.22.36.23.37.22.36.24.36.24.36.25.36.27.37.3.36.35.36.39.36.46.36.54.37.64.36.77.36.92.36 1.09.37 1.28.36 1.5.36 1.74.36 2 .36 2.26.37 2.54.36 2.81.36 3.08.36 3.34.36 3.57.37 3.78.36 3.95.36 4.08.36 4.17.36 4.22.37 4.21.36 4.17.36 4.08.36 3.94.37 3.78.36 3.58.36 3.36.36 3.12.36 2.88.37 2.61.36 2.37.36 2.11.36 1.88.36 1.64.37 1.44.36 1.23.36 1.06.36.9.36.75.37.63.36.52.36.43.36.34.37.28.36.23.36.18.36.14.36.11.37.09.36.06.36.05.36.04.36.03.37.02.36.02.36.01.36.01.36.01h.37l.36.01h311.4"/><use xlink:href="#bfc89__d" color="#29C3F6" transform="matrix(3.75 0 0 3.75 67.83 162.16)"/><use xlink:href="#bfc89__d" color="#29C3F6" transform="matrix(3.75 0 0 3.75 89.85 22.51)"/></g><text stroke-linecap="round" stroke-linejoin="round" color="#000" font-family="KaTeX_Main" font-size="8" transform="translate(241.1 10.11)"><tspan>RedBlackBottomUp</tspan></text><g fill="none" stroke="currentColor" stroke-linecap="round" stroke-linejoin="round" color="#000"><path stroke="#F44336" d="M205.6 7.51h29.9M28 53.37l.36.31.36.31.37.3.36.3.36.29.36.28.36.28.37.27.36.27.36.26.36.25.37.25.36.25.36.24.36.24.36.24.37.23.36.22.36.23.36.22.36.23.37.22.36.24.36.24.36.25.36.27.37.3.36.35.36.39.36.46.36.54.37.64.36.77.36.92.36 1.09.37 1.28.36 1.5.36 1.74.36 2 .36 2.26.37 2.54.36 2.81.36 3.08.36 3.34.36 3.57.37 3.78.36 3.95.36 4.08.36 4.17.36 4.22.37 4.21.36 4.17.36 4.08.36 3.94.37 3.78.36 3.58.36 3.36.36 3.12.36 2.88.37 2.61.36 2.37.36 2.11.36 1.88.36 1.64.37 1.44.36 1.23.36 1.06.36.9.36.75.37.63.36.52.36.43.36.34.37.28.36.23.36.18.36.14.36.11.37.09.36.06.36.05.36.04.36.03.37.02.36.02.36.01.36.01.36.01h.37l.36.01h311.4"/><use xlink:href="#bfc89__a" color="#F44336" transform="matrix(3.75 0 0 3.75 125.4 162.16)"/><use xlink:href="#bfc89__a" color="#F44336" transform="matrix(3.75 0 0 3.75 220.55 7.51)"/></g><text stroke-linecap="round" stroke-linejoin="round" color="#000" font-family="KaTeX_Main" font-size="8" transform="translate(241.1 25.11)"><tspan>RedBlackTopDown</tspan></text><g fill="none" stroke="currentColor" stroke-linecap="round" stroke-linejoin="round" color="#000"><path stroke="#3B75EA" d="M205.6 22.51h29.9M28 53.37l.36.31.36.31.37.3.36.3.36.29.36.28.36.28.37.27.36.27.36.26.36.25.37.25.36.25.36.24.36.24.36.24.37.23.36.22.36.23.36.22.36.23.37.22.36.24.36.24.36.25.36.27.37.3.36.35.36.39.36.46.36.54.37.64.36.77.36.92.36 1.09.37 1.28.36 1.5.36 1.74.36 2 .36 2.26.37 2.54.36 2.81.36 3.08.36 3.34.36 3.57.37 3.78.36 3.95.36 4.08.36 4.17.36 4.22.37 4.21.36 4.17.36 4.08.36 3.94.37 3.78.36 3.58.36 3.36.36 3.12.36 2.88.37 2.61.36 2.37.36 2.11.36 1.88.36 1.64.37 1.44.36 1.23.36 1.06.36.9.36.75.37.63.36.52.36.43.36.34.37.28.36.23.36.18.36.14.36.11.37.09.36.06.36.05.36.04.36.03.37.02.36.02.36.01.36.01.36.01h.37l.36.01h311.4"/><use xlink:href="#bfc89__b" color="#3B75EA" transform="matrix(3.75 0 0 3.75 182.98 162.16)"/><use xlink:href="#bfc89__b" color="#3B75EA" transform="matrix(3.75 0 0 3.75 220.55 22.51)"/></g><path fill="none" d="M28 45.01V162.5M371.99 45.01H28" color="#000"/></svg>