<svg xmlns="http://www.w3.org/2000/svg" xmlns:xlink="http://www.w3.org/1999/xlink" viewBox="0 0 400 200"><path fill="none" d="M0 0h400v200H0z"/><defs><path id="be074__b" stroke="currentColor" stroke-width=".267" d="M-1-1h2v2h-2z"/><path id="be074__a" stroke="currentColor" stroke-width=".267" d="m0-1.33-1.33 2h2.66z"/><path id="be074__f" stroke="currentColor" stroke-width=".267" d="M0 1.33 1.265.411.782-1.067l-1.564-.009-.483 1.487z"/><use xlink:href="#be074__a" id="be074__d" fill="currentColor" stroke="none"/><use xlink:href="#be074__b" id="be074__c" stroke="currentColor" transform="rotate(45)"/><use xlink:href="#be074__c" id="be074__e" fill="currentColor" stroke="none"/></defs><path fill="none" stroke="#CCC" stroke-linecap="round" stroke-linejoin="round" stroke-width=".1" d="M46.1 162.5V45.01" class="be074__gridline" color="#000"/><g fill="none" stroke-linecap="round" stroke-linejoin="round" stroke-width="0" color="#000"><path d="M46.1 162.5V155m0-109.99v7.5"/><text fill="#000" font-family="KaTeX_Main" font-size="8" text-anchor="middle" transform="translate(46.1 172.6)"><tspan> 1</tspan></text></g><path fill="none" stroke="#CCC" stroke-linecap="round" stroke-linejoin="round" stroke-width=".1" d="M82.31 162.5V45.01" class="be074__gridline" color="#000"/><g fill="none" stroke-linecap="round" stroke-linejoin="round" stroke-width="0" color="#000"><path d="M82.31 162.5V155m0-109.99v7.5"/><text fill="#000" font-family="KaTeX_Main" font-size="8" text-anchor="middle" transform="translate(82.31 172.6)"><tspan> 2</tspan></text></g><path fill="none" stroke="#CCC" stroke-linecap="round" stroke-linejoin="round" stroke-width=".1" d="M118.52 162.5V45.01" class="be074__gridline" color="#000"/><g fill="none" stroke-linecap="round" stroke-linejoin="round" stroke-width="0" color="#000"><path d="M118.52 162.5V155m0-109.99v7.5"/><text fill="#000" font-family="KaTeX_Main" font-size="8" text-anchor="middle" transform="translate(118.52 172.6)"><tspan> 3</tspan></text></g><path fill="none" stroke="#CCC" stroke-linecap="round" stroke-linejoin="round" stroke-width=".1" d="M154.73 162.5V45.01" class="be074__gridline" color="#000"/><g fill="none" stroke-linecap="round" stroke-linejoin="round" stroke-width="0" color="#000"><path d="M154.73 162.5V155m0-109.99v7.5"/><text fill="#000" font-family="KaTeX_Main" font-size="8" text-anchor="middle" transform="translate(154.73 172.6)"><tspan> 4</tspan></text></g><path fill="none" stroke="#CCC" stroke-linecap="round" stroke-linejoin="round" stroke-width=".1" d="M190.94 162.5V45.01" class="be074__gridline" color="#000"/><g fill="none" stroke-linecap="round" stroke-linejoin="round" stroke-width="0" color="#000"><path d="M190.94 162.5V155m0-109.99v7.5"/><text fill="#000" font-family="KaTeX_Main" font-size="8" text-anchor="middle" transform="translate(190.94 172.6)"><tspan> 5</tspan></text></g><path fill="none" stroke="#CCC" stroke-linecap="round" stroke-linejoin="round" stroke-width=".1" d="M227.15 162.5V45.01" class="be074__gridline" color="#000"/><g fill="none" stroke-linecap="round" stroke-linejoin="round" stroke-width="0" color="#000"><path d="M227.15 162.5V155m0-109.99v7.5"/><text fill="#000" font-family="KaTeX_Main" font-size="8" text-anchor="middle" transform="translate(227.15 172.6)"><tspan> 6</tspan></text></g><path fill="none" stroke="#CCC" stroke-linecap="round" stroke-linejoin="round" stroke-width=".1" d="M263.36 162.5V45.01" class="be074__gridline" color="#000"/><g fill="none" stroke-linecap="round" stroke-linejoin="round" stroke-width="0" color="#000"><path d="M263.36 162.5V155m0-109.99v7.5"/><text fill="#000" font-family="KaTeX_Main" font-size="8" text-anchor="middle" transform="translate(263.36 172.6)"><tspan> 7</tspan></text></g><path fill="none" stroke="#CCC" stroke-linecap="round" stroke-linejoin="round" stroke-width=".1" d="M299.57 162.5V45.01" class="be074__gridline" color="#000"/><g fill="none" stroke-linecap="round" stroke-linejoin="round" stroke-width="0" color="#000"><path d="M299.57 162.5V155m0-109.99v7.5"/><text fill="#000" font-family="KaTeX_Main" font-size="8" text-anchor="middle" transform="translate(299.57 172.6)"><tspan> 8</tspan></text></g><path fill="none" stroke="#CCC" stroke-linecap="round" stroke-linejoin="round" stroke-width=".1" d="M335.78 162.5V45.01" class="be074__gridline" color="#000"/><g fill="none" stroke-linecap="round" stroke-linejoin="round" stroke-width="0" color="#000"><path d="M335.78 162.5V155m0-109.99v7.5"/><text fill="#000" font-family="KaTeX_Main" font-size="8" text-anchor="middle" transform="translate(335.78 172.6)"><tspan> 9</tspan></text></g><path fill="none" stroke="#CCC" stroke-linecap="round" stroke-linejoin="round" stroke-width=".1" d="M371.99 162.5V45.01" class="be074__gridline" color="#000"/><g fill="none" stroke-linecap="round" stroke-linejoin="round" stroke-width="0" color="#000"><path d="M371.99 162.5V155m0-109.99v7.5"/><text fill="#000" font-family="KaTeX_Main" font-size="8" text-anchor="middle" transform="translate(371.99 172.6)"><tspan> 10</tspan></text></g><g fill="none" stroke-linecap="round" stroke-linejoin="round" stroke-width="0" color="#000"><path d="M371.99 162.5h-7.5"/><text fill="#000" font-family="KaTeX_Main" font-size="8" transform="translate(378.99 165.1)"><tspan>10.00</tspan></text></g><g fill="none" stroke-linecap="round" stroke-linejoin="round" stroke-width="0" color="#000"><path d="M371.99 149.45h-7.5"/><text fill="#000" font-family="KaTeX_Main" font-size="8" transform="translate(378.99 152.05)"><tspan>12.00</tspan></text></g><g fill="none" stroke-linecap="round" stroke-linejoin="round" stroke-width="0" color="#000"><path d="M371.99 136.39h-7.5"/><text fill="#000" font-family="KaTeX_Main" font-size="8" transform="translate(378.99 138.99)"><tspan>14.00</tspan></text></g><g fill="none" stroke-linecap="round" stroke-linejoin="round" stroke-width="0" color="#000"><path d="M371.99 123.34h-7.5"/><text fill="#000" font-family="KaTeX_Main" font-size="8" transform="translate(378.99 125.94)"><tspan>16.00</tspan></text></g><g fill="none" stroke-linecap="round" stroke-linejoin="round" stroke-width="0" color="#000"><path d="M371.99 110.28h-7.5"/><text fill="#000" font-family="KaTeX_Main" font-size="8" transform="translate(378.99 112.88)"><tspan>18.00</tspan></text></g><g fill="none" stroke-linecap="round" stroke-linejoin="round" stroke-width="0" color="#000"><path d="M371.99 97.23h-7.5"/><text fill="#000" font-family="KaTeX_Main" font-size="8" transform="translate(378.99 99.83)"><tspan>20.00</tspan></text></g><g fill="none" stroke-linecap="round" stroke-linejoin="round" stroke-width="0" color="#000"><path d="M371.99 84.17h-7.5"/><text fill="#000" font-family="KaTeX_Main" font-size="8" transform="translate(378.99 86.77)"><tspan>22.00</tspan></text></g><g fill="none" stroke-linecap="round" stroke-linejoin="round" stroke-width="0" color="#000"><path d="M371.99 71.12h-7.5"/><text fill="#000" font-family="KaTeX_Main" font-size="8" transform="translate(378.99 73.72)"><tspan>24.00</tspan></text></g><g fill="none" stroke-linecap="round" stroke-linejoin="round" stroke-width="0" color="#000"><path d="M371.99 58.06h-7.5"/><text fill="#000" font-family="KaTeX_Main" font-size="8" transform="translate(378.99 60.66)"><tspan>26.00</tspan></text></g><g fill="none" stroke-linecap="round" stroke-linejoin="round" stroke-width="0" color="#000"><path d="M371.99 45.01h-7.5"/><text fill="#000" font-family="KaTeX_Main" font-size="8" transform="translate(378.99 47.61)"><tspan>28.00</tspan></text></g><path fill="none" d="M28 45.01V162.5M371.99 45.01H28" color="#000"/><text stroke-linecap="round" stroke-linejoin="round" stroke-width="0" color="#000" font-family="KaTeX_Main" font-size="10" text-anchor="middle" transform="rotate(-90 57.63 46.13)"><tspan font-weight="bold">Duration </tspan><tspan> in milliseconds</tspan></text><text stroke-linecap="round" stroke-linejoin="round" stroke-width="0" color="#000" font-family="KaTeX_Main" font-size="10" text-anchor="middle" transform="translate(199.99 195.75)"><tspan>Operations / 10</tspan><tspan dy="-5" font-size="8">6</tspan></text><text stroke-linecap="round" stroke-linejoin="round" color="#000" font-family="KaTeX_Main" font-size="8" transform="translate(132.8 10.11)"><tspan>Splay</tspan></text><g fill="none" stroke="currentColor" stroke-linecap="round" stroke-linejoin="round" color="#000"><path stroke="#29C3F6" d="M97.3 7.51h29.9M28 124.87l.36.09.36-.12.37-.7.36 1.01.36-1.61.36-.29.36-.31.37-.33.36-.35.36-.36.36-.23.37-.33.36-.4.36-.17.36-.15.36-.51.37-.04.36-.55.36-1.62.36 1.22.36-.51.37-.5.36.24.36-.28.36-.35.36-.17.37-.32.36-1.29.36-.55.36 1.48.36-3 .37 2.41.36-.52.36-.17.36-2.7.37 1.05.36-.45.36.77.36-.93.36.98.37-1.4.36.82.36-.15.36-.37.36-1.38.37-.11.36-.03.36-.35.36.93.36-2.4.37-.5.36.43.36 1.56.36-1.2.37 1.1.36-.27.36-1.37.36-.31.36-1.38.37 1.99.36-3.41.36 2 .36-.15.36-.12.37.88.36.22.36-1.45.36-.26.36-1.43.37.87.36-1.45.36.3.36.8.37 1.18.36-.43.36-2.65.36-.2.36 2.33.37-3.81.36 1.3.36 1.86.36-1.12.36 1.12.37-2.88.36.2.36 1.03.36-1.41.36-.02.37 1.04.36.8.36-.73.36-.31.36-1.53.37-1.23.36.88.36 1.2.36.66.37-1.1.36-.07.36-1.33.36-1.25.36.76.37.97.36.92.36-2.39.36-.09.36 1.04.37-2.51.36 2.37.36-.32.36-.09.36-2.34.37 2.11.36-2.1.36 2.14.36-.28.37 1.02.36-3.78.36 1.15.36-1.25.36 1.98.37.21.36-.29.36-2.39.36 2.02.36-2.26.37.89.36 1.9.36-2.26.36-.03.36-1.27.37 1.09.36.99.36 1.27.36-2.7.36-1.32.37-.13.36.64.36 2.35.36-2.24.37-.01.36-2.61.36 3.34.36.11.36.13.37-2.9.36-.01.36 1.19.36 1.12.36 1 .37-4.7.36 1.08.36.84.36 1.32.36.99.37-4.86.36 1.34.36.97.36.92.37 1.07.36-4.49.36.87.36 1.02.36 1.05.37.23.36-2.92.36-1.09.36 3.2.36-.13.37-1.12.36-.41.36-1.84.36 1.84.36 2.08.37-4.87.36 2.37.36-1.24.36 2.3.36-.42.37-2.43.36-.97.36 2.04.36 2.59.37-4.9.36 2.38.36-1.24.36 2.13.36-1.28.37.47.36-2.89.36 1.99.36 2.59.36-4.89.37 1.27.36.89.36 1.46.36-1.7.36-.93.37-.28.36 1.27.36-.23.36-.61.37-1.89.36 2.08.36 2.23.36-4.62.36-.11.37 2.25.36 2.59.36-5.06.36 2.28.36-1.09.37 2.03.36-1.21.36-2.22.36.97.36 2.19.37-1.23.36-1.42.36-1.27.36 3.42.37-1.1.36-1.31.36-1.68.36 3.72.36-1.36.37-1.18.36-.98.36 3.59.36-1.8.36-1.51.37-.74.36 3.35.36-1.41.36-2.01.36.96.37 2.27.36-1.18.36-2.16.36 1.03.36 1.8.37-3.31.36.66.36.26.36 3.32.37-4.51.36-.39.36 2.46.36 2.15.36-4.49.37-.07.36 2.15.36-.04.36-1.34.36-1.3.37 3.38.36-1.41.36-2.21.36.98.36 2.34.37-3.62.36.02.36 2.22.36 2.28.37-5.84.36 2.32.36.86.36.22.36-2.83.37 1.22.36 2.36.36-2.51.36-2.29.36 3.08.37 1.35.36-3.37.36.85.36.66.36-.72.37-.13.36-1.03.36 4.3.36-5.85.36 2.2.37 1.47.36-.2.36-2.38.36.93.37 2.19.36-3.19.36-.12.36 2.24.36-.23.37-2.06.36.96.36 2.32.36-3.8.36.11.37 2.46.36-.24.36-3.26.36 2.89.36 1.01.37-4.54.36 2.03.36 1.39.36-1.28.37-2.63.36 3.59.36.97.36-3.53.36 1.45.37.84.36-2.12.36-.62.36 2.88.36-.25.37-2.61.36.86.36 2.69.36-5.05.36 2.7.37 1.17.36-1.49.36-2.4.36 3.42.36.04.37-2.67.36 1.16.36 2.15.36-4.38.37 2.27.36.95.36-2.08.36-.24.36 2.05.37.22.36-4.79.36 4.36.36.6.36-1.67.37-.93.36 2.83.36-4.37.36 2.22.36.91.37-2.26.36.07.36 2.25.36-1 .37-2.8.36 3.52.36.12.36-1.13.36-2.31.37 4.65.36-3.85.36 1.2.36 1.07.36-3.63.37 2.21.36 1.59.36-2.5.36.03.36 2.24.37-1.25.36-2.5.36 3.69.36-1.46.37-2.48.36 3.48.36.02.36-2.17.36-.28.37 2.26.36-1.29.36-1.27.36 3.31.36-4.22.37.7.36 3.66.36-4.62.36 1.89.36 1.57.37-3.53.36 2.18.36 1.24.36-2.54.36-.25.37 2.44.36-2.53.36-.04.36 2.45.37-1.27.36-2.45.36 3.32.36-1.33.36-2.25.37 3.66.36-1.51.36-1.63.36 2.64.36-.92.37-2.47.36 3.46.36-1.14.36-2.54.36 3.42.37-1.16.36-2.67.36 3.14.36-.5.37-2.51.36 3.23.36-1.22.36-2.22.36 3.57.37-1.24.36-2.63.36 3.68.36-1.03.36-2.49.37 3.39.36-2.56.36.05.36 2.46.36-2.37.37-.23.36 2.11.36-3.22.36 2.14.36 1.1.37-3.37.36 1.94.36 1.14.36-3.59.37 1.38.36 3.17.36-4.59.36 1.08.36 1.15.37-.05.36-2.13.36 1.91.36-2.02.36 3.32.37-1.07.36-2.48.36 3.56.36-1.45.36-2.25.37 3.28.36-1.02.36-2.53.36 3.56.37-2.37.36.17.36 2.09.36-3.43.36 1.31.37.8.36-.31.36-2.2.36 2.06.36-1 .37.8.36.57.36-2.35.36 3.26.36-1.53.37-2.19.36 3.49.36-2.13.36-.18.37 2.19.36-3.33.36 1 .36.96.36-.06.37-2.24.36 2.41.36-2.57.36 3.52.36-1.17.37-2.6.36 3.6.36-3.34.36 2.21.36.72.37-3.26.36 1.3.36.96.36-2.02.36 2.09.37.12.36-2.34.36 3.13.36-2.13.37-.26.36 2.27.36-3.57.36 1.03.36 1.22.37-2.17.36 2.02.36-.14.36-2.48.36 3.97.37-2.6.36-.21.36 1.33.36-1.31.36-1.49.37 3.7.36-4.98.36 4.63.36-.98.37-2.33.36 3.3.36-3.58.36 1.2.36 1.08.37-1.98.36 1.97.36.1.36-2.43.36 3.39.37-3.63.36 1.56.36.93.36-.91.36-.45.37 1.34.36-2.45.36 3.36.36-2.43.36.04.37-.18.36.85.36-2.02.36 2.42.37-2.45.36 3.61.36-4.04.36 1.44.36 1.24.37-2.26.36 2.05.36-.01.36-2.1.36 3.16.37-3.39.36.78.36 1.17.36-2.21.36 2.16h.37l.36-2.34.36 3.68.36-3.62.37-.14.36 3.3.36-4.45.36 4.66.36-2.53.37.22.36 1.23.36-2.51.36 1.26.36 1.12.37-2.63.36 3.63.36-3.86.36.13.36 3.44.37-3.7.36 2.37.36-.11.36-2.4.36 2.49.37-3.57.36 3.41.36.08.36-2.15.37 3.58.36-3.52.36-.23.36 3.16.36-4.52.37 4.98.36-3.62.36 1.96.36-.02.36-3.36.37 3.21.36-1.05.36.35.36.67.36-1.98.37.53.36 1.8.36-2.4.36 1.88.37-1.26.36-1.26.36 2.46.36-2.3.36 3.47.37-3.51.36.08.36 3.47.36-4.91.36 4.68.37-3.26.36-.2.36 3.24.36-4.34.36 4.43.37-3.34.36.67.36.81.36-3.44.37 4.71.36-1.75.36-1.38.36 3.5.36-4.9.37 3.31.36-.82.36.06.36.98.36-3.5.37 3.52.36-1.13.36-1.17.36 3.23.36-4.93.37 3.64.36-.94.36-1.34.36 3.47.36-4.96.37 3.66.36-1.05.36-1.3.36 3.14.37-5.7.36 5.89.36-2.38.36-1.48.36 2.73.37-3.65.36 4.7.36-2.07.36-2.63.36 4.5.37-4.64.36 4.21.36-3.04.36.04.36 3.22.37-4.43.36 3.15.36-.95.36-1.2.37 3.07.36-4.24.36 3.37.36-2.57.36 1.16.37.69.36-1.97.36 2.38.36-3.65.36 3.33.37-1.31.36-.85.36 3.36.36-5.75.36 5.69.37-3.95.36.23.36 3.13.36-4.32.36 3.72.37-1.3.36-1.42.36 2.45.36-2.35.37 1.96.36-3.05.36 3.04.36.35.36-3.28.37 2.71.36-3.41.36 5.09.36-3.8.36.41.37 2.9.36-4.46.36 3.39.36-2.37.36 1.63.37.75.36-3.79.36 4.74.36-5.93.37 6.06.36-2.8.36-2.02.36 4.7.36-4.61.37 3.4.36-3.32.36 3.17.36.02.36-3.56.37 3.4.36-3.45.36 4.78.36-3.65.36.11.37 3.4.36-4.71.36 3.33.36-4.4.36 5.46.37-2.16.36-2.63.36 4.74.36-4.71.37 4.24.36-3.1.36.01.36 2.37.36-3.54.37 3.4.36-3.83.36 4.91.36-3.62.36-.28.37 2.24.36-3.05.36 4.28.36-5.87.36 5.98.37-2.27.36-2.58.36 4.69.36-5.93.37 5.93.36-5.74.36 5.63.36-2.56.36-1.8.37 4.27.36-4.35.36 3.28.36-4.79.36 5.76.37-1.2.36-4.52.36 5.77.36-5.95.36 5.67.37-5.58.36 5.76.36-1.45.36-4.44.37 5.99.36-5.79.36 5.5.36-5.52.36 5.63.37-3.45.36-.15.36 3.8.36-6.26.36 5.74.37-5.53.36 5.8.36-3.4.36-.03.36 2.19.37-3.47.36 3.47.36-3.58.36 5.17.36-4.15.37.39.36 2.59.36-3.87.36 3.29.37-3.44.36 4.59.36-4.86.36 2.42.36 1.16.37-4.82.36 6.17.36-4.71.36 3.44.36-4.62.37 5.44.36-3.66.36.21.36 3.53.36-5.8.37 4.53.36-3.42.36 4.8.36-3.7.37-.3.36 2.6.36-4.68.36 5.61.36-5.94.37 5.92.36-5.85.36 5.71.36-3.58.36.04.37 2.6.36-4.81.36 5.49.36-4.61.36 3.67.37-4.71.36 5.85.36-3.6.36.12.36 3.23.37-5.82.36 4.7.36-3.41.36 4.58.37-6.33.36 5.04.36-2.27.36.35.36 2.59.37-5.36.36 4.4.36-3.5.36 4.79.36-4.74.37 2.41.36-1.13.36-.25.36 3.6.36-5.7.37 4.19.36-3.19.36 4.45.36-5.94.37 4.7.36-1.98.36-.11.36 3.26.36-6.79.37 6.64.36-4.78.36 3.67.36-4.47.36 5.26.37-3.1.36-.2.36 2.36.36-4.37.36 5.22.37-4.23.36 3.19.36-4.35.36 5.53.36-3.44.37-.05.36 1.19.36-2.86.36 5.4.37-6.01.36 4.43.36-3.49.36 3.35.36-4.49.37 5.64.36-3.27.36-.22.36 2.15.36-4.61.37 5.82.36-4.49.36 1.82.36-1.92.36 4.69.37-7.14.36 7.11.36-3.51.36-.23.37 2.59.36-5.1.36 5.79.36-4.65.36 3.42.37-4.73.36 6.11.36-7.35.36 7.21.36-3.49.37-.24.36 2.59.36-4.78.36 6.02.36-4.97.37 3.56.36-4.71.36 5.8.36-7.18.37 6.91.36-3.33.36.13.36 2.39.36-4.87.37 5.55.36-6.53.36 6.69.36-4.53.36 3.33.37-4.56.36 5.48.36-4.29.36 1.9.36-1.17.37-.27.36 2.82.36-4.83.36 5.34.36-5.1.37 5.35.36-5.89.36 5.11.36-4.91.37 5.68.36-3.78.36.49.36-.33.36-.32.37 2.59.36-4.73.36 5.85"/><use xlink:href="#be074__b" color="#29C3F6" transform="matrix(3.75 0 0 3.75 354.25 53.25)"/><use xlink:href="#be074__b" color="#29C3F6" transform="matrix(3.75 0 0 3.75 112.25 7.51)"/></g><text stroke-linecap="round" stroke-linejoin="round" stroke-width=".5" color="#000" font-family="KaTeX_Main" font-size="8" transform="translate(132.8 25.11)"><tspan>AVLBottomUp</tspan></text><g fill="none" stroke="currentColor" stroke-linecap="round" stroke-linejoin="round" stroke-width=".5" color="#000"><path stroke="#000" d="M97.3 22.51h29.9M28 159.21l.36 1.95.36-2.38.37-.36.36.95.36-2.71.36.95.36 2.21.37-2.58.36-.41.36 1.09.36-2.53.37.66.36.95.36-.18.36-1.64.36-.97.37-.2.36 3.18.36-2.42.36-.17.36-.21.37-.24.36-.21.36 1.05.36-2.45.36 1.97.37-2.48.36 1.03.36.92.36-2.34.36 2.05.37-2.7.36 1.14.36 1 .36-2.49.37 2.18.36-4.66.36 4.27.36 1.19.36-3.7.37-.24.36-.18.36 2.15.36-.21.36-2.25.37-.11.36.82.36 1.16.36-1.44.36-.28.37-3.44.36 4.52.36-.16.36-1.27.37-2.53.36 2.15.36 1.16.36-1.5.36-.04.37-3.72.36 4.58.36-.03.36-1.22.36-3.96.37 3.39.36 2.11.36-3.37.36.1.36-2.01.37 4.74.36-2.1.36.02.36-5 .37 6.82.36-1.16.36-2.92.36-2.08.36 4.57.37-.13.36-1.33.36-4.69.36 5.73.36.95.37-3.72.36-3.51.36 5.79.36 1.01.36-3.79.37-3.53.36 5.53.36 1.3.36-3.84.36-3.65.37 5.72.36 1.31.36-3.36.36-4.69.37 7.82.36-.13.36-3.44.36-4.82.36 7.74.37-.01.36-3.41.36-4.83.36 7.83.36-.03.37-3.63.36-4.62.36 8.08.36-1.45.36-2.39.37-3.76.36 7.06.36-1.2.36-3.33.37-1.34.36 5.53.36-2.7.36-3.2.36 2.08.37 3.46.36-3.57.36-4.76.36 7.97.36.14.37-3.67.36-5.13.36 8.4.36-1.57.36-4.46.37.98.36 4.58.36-2.37.36-4.72.36 4.37.37 2.06.36-3.39.36-4.52.36 8.17.37-1.55.36-4.45.36 1.01.36 4.51.36-2.45.37-5.77.36 6.78.36 1.12.36-4.65.36-2.52.37 6.83.36-.92.36-7.1.36 5.27.36 2.15.37-3.28.36-4.75.36 7.95.36-1.07.37-4.53.36.92.36 4.58.36-2.5.36-7.23.37 9.32.36.03.36-5.64.36-.18.36 5.56.37-2.3.36-6.99.36 8.92.36.19.36-6.3.37.18.36 5.78.36-2.39.36-7.14.36 9.05.37-1.03.36-4.78.36 1.13.36 4.5.37-4.58.36-2.35.36 6.59.36-1.06.36-6.89.37 5.32.36 2.41.36-5.63.36-.56.36 5.41.37-.39.36-8.31.36 7.91.36 1.3.36-7.01.37 2.02.36 4.81.36-4.63.36-2.33.37 6.84.36-1.07.36-7.26.36 5.78.36 1.91.37-6.92.36 2.49.36 4.56.36-4.7.36-2.27.37 6.68.36-.99.36-7.23.36 5.42.36 2.73.37-6.82.36 2 .36 4.71.36-4.93.37-2.39.36 6.58.36-3.26.36-3.34.36 5.71.37 1.1.36-8.08.36 4.23.36 3.48.36-5.73.37-.03.36 5.33.36-3.33.36-3.57.36 5.68.37-1.9.36-3.79.36 5.68.36 1.1.36-8.49.37 4.92.36 3.55.36-5.83.36-.09.37 5.79.36-3.62.36-3.77.36 5.99.36-2.37.37-3.53.36 5.5.36-.9.36-3.84.36 2.5.37 3.24.36-8.32.36 4.68.36 3.58.36-5.96.37.14.36 5.65.36-4.85.36-.96.37 4.32.36-2.18.36-3.69.36 5.83.36-2.26.37-2.45.36 3.54.36-.21.36-3.59.36 2.56.37 3.11.36-8.07.36 4.41.36 3.53.36-6.93.37 2.12.36 4.41.36-4.1.36-1.3.36 4.53.37-3.67.36-1.23.36 4.63.36-3.49.37-1.23.36 4.59.36-3.66.36-.88.36 4.32.37-2.33.36-2.31.36 3.13.36.3.36-3.48.37 2 .36.99.36-3.29.36 2 .36 1.14.37-3.31.36 2.31.36 1.03.36-2.61.37.18.36 3.62.36-4.75.36.82.36 3.78.37-3.5.36-.41.36 2.3.36-2.62.36.11.37 3.67.36-4.78.36 1.01.36 3.5.36-4.52.37 1.06.36 3.34.36-3.53.36-1.07.36 4.31.37-3.36.36-1.22.36 4.55.36-3.37.37-1.06.36 3.34.36-1.37.36-2.49.36 3.76.37-1.54.36-2.2.36 3.25.36-.85.36-2.64.37 3.57.36-1.33.36-2.07.36 3.26.36-2.34.37.03.36 2.41.36-2.4.36-.09.37 1.99.36-2.12.36-.33.36 1.16.36-.1.37-1 .36 1.08.36-.13.36-1.4.36 1.1.37.05.36-1.24.36 1.21.36.27.36-1.53.37 1.23.36-.16.36-1.23.36-.2.37 1.64.36-2.27.36.1.36 2.34.36-2.25.37-.12.36 1.93.36-2.15.36-.11.36 3 .37-3.4.36 2.01.36.15.36-2.18.36 3.21.37-3.45.36 2.41.36.03.36-1.24.36 1.04.37-.32.36-1.1.36 1.32.36-1.27.37.11.36 1.01.36-.26.36-1.13.36.9.37.3.36-1.25.36.05.36 2.32.36-2.48.37.07.36 2.2.36-3.46.36 1.71.36 1.68.37-3.46.36 2.01.36 1.07.36-4.38.37 4.57.36-2.58.36-1.01.36 2.2.36-.16.37-1.06.36 1.02.36-1.04.36.02.36 2.39.37-2.6.36-.22.36 2.47.36-3.32.36 2.38.37.5.36-3.01.36 2.22.36 1.02.36-3.5.37 2.17.36-1.25.36-1.27.36 2.45.37.18.36-2.34.36 3.07.36-3.07.36 1.87.37 1.16.36-3.2.36 2.12.36 1.18.36-3.54.37 2.06.36 1.44.36-4.83.36 4.59.36-1.31.37-4.5.36 5.78.36-1.2.36-2.71.37 3.67.36-3.47.36 2.38.36 1 .36-3.52.37 2.4.36 1 .36-4.56.36 4.49.36-.02.37-6.7.36 7.93.36-3.69.36-1.08.36 3.35.37-3.59.36 2.42.36 1.04.36-3.28.37 2.34.36.91.36-4.49.36 3.36.36.76.37-5.82.36 7.19.36-3.24.36-1.4.36 3.6.37-3.69.36 2.23.36.98.36-4.27.36 4.29.37.13.36-7.16.36 8.23.36-2.26.36-3.78.37 4.73.36-3.48.36 2.23.36 1.1.37-4.67.36 4.52.36-1.12.36-4.55.36 6.82.37-2.39.36-3.33.36 4.58.36-3.8.36 2.24.37 1.61.36-4.71.36 4.25.36-1.27.36-4.41.37 6.72.36-2.35.36-3.35.36 4.76.37-3.47.36 2.01.36 1.12.36-5.47.36 6.73.37-2.4.36-4.63.36 7 .36-2.31.36-3.72.37 4.47.36-4.67.36 4.67.36-1.25.36-3.28.37 4.58.36-.11.36-5.74.36 6.74.36-3.31.37-1.47.36 3.65.36-5.68.36 6.72.37-2.3.36-4.85.36 6.9.36-2.13.36-3.52.37 4.4.36-3.26.36 2.22.36.1.36-3.44.37 4.54.36-1.19.36-3.89.36 5.95.36-4.55.37 1.32.36.76.36-3.42.36 4.73.37-.04.36-5.74.36 6.86.36-3.45.36-1.33.37 2.43.36-3.55.36 4.66.36-.2.36-5.73.37 6.86.36-2.53.36-3.59.36 3.79.36-2.2.37 2.11.36 1.12.36-5.97.36 7.08.36-3.35.37-1.46.36 2.55.36-2.08.36 1.79.37 1.44.36-5.98.36 6.94.36-3.3.36-1.32.37 2.13.36-2.14.36 2.03.36 1.25.36-5.63.37 6.6.36-3.83.36-.83.36 2.19.36-2.23.37 2.33.36.99.36-5.68.36 6.95.37-3.49.36-1.38.36 2.33.36-2.6.36 2.53.37 1.27.36-5.87.36 7 .36-4.69.36 1.12.37.88.36-1.97.36 2.02.36 1.35.36-5.9.37 5.93.36-2.57.36.12.36.95.37-3.28.36 4.39.36-1.31.36-3.32.36 4.52.37-2.22.36-1.12.36 3.43.36-5.96.36 6.97.37-4.61.36.99.36 1.17.36-2.38.36 2.27.37.18.36-3.57.36 4.44.36-2.1.36-.4.37 1.43.36-2.42.36 2.37.36-1.25.37-1.05.36 3.32.36-2.36.36-1.41.36 2.06.37-3.04.36 4.39.36-2.35.36-.13.36 1.42.37-2.56.36 2.24.36-.82.36-1.31.36 3.66.37-2.37.36-1.29.36 2.31.36-2.61.37 1.96.36-.69.36.12.36 1 .36-2.37.37 1.29.36.87.36-2.03.36 3.39.36-2.15.37-1.44.36.96.36.26.36 1.14.36-1.23.37-1.18.36 2.32.36-1.42.36.26.36 1.06.37-2.38.36 3.51.36-2.25.36-1.17.37 1.1.36-.13.36 1.29.36-1.23.36-1.56.37 2.32.36-2.16.36 2.25.36-.84.36-1.33.37 3.41.36-1.25.36-3.4.36 3.19.36-2.11.37 3.43.36-2.33.36-2.58.36 3.36.37-.78.36.71.36-.92.36-1.6.36 1.21.37.48.36.95.36-1.05.36-1.4.36 2.22.37 1.33.36-4.9.36 3.45.36-3.24.36 4.47.37-.97.36-3.61.36 3.47.36-1.02.36.97.37-1.3.36-2.57.36 3.57.36-.88.37 1.18.36-1.38.36-2.2.36 3.28.36-1.17.37 1.02.36-1.18.36-1.07.36 1.03.36 3.56.37-5.7.36 2.95.36-3.02.36 3.33.36 1.18.37-4.45.36 3.28.36-2.28.36.68.37 2.55.36-4.39.36 3.33.36-2.36.36 2.14.37.09.36-3.23.36 3.12.36-1.16.36-.49.37 1.59.36-3.55.36 3.37.36-1.09.36-.05.37 1.24.36-3.41.36 3.27.36.22.37-2.87.36 2.75.36-4.45.36 3.57.36 1.69.37-3.34.36.8.36-2.13.36 3.4.36 2.55.37-5.84.36 3.23.36-4.48.36 5.81.36-.07.37-4.75.36 3.57.36-3.54.36 3.5.36 1.39.37-4.89.36 3.37.36-3.64.36 3.25.37 1.52.36-4.66.36 3.6.36-3.61.36 3.53.37 1.11.36-4.63.36 3.22.36-3.64.36 3.59.37 1.35.36-4.8.36 3.58.36-3.8.36 3.74.37.94.36-5.67.36 5.87.36-4.81.37 3.56.36 1.16.36-5.93.36 5.71.36-4.64.37 3.52.36 1.27.36-5.92.36 5.9.36-4.89.37 3.46.36 1.18.36-5.99.36 5.95.36-4.47.37 3.32.36 1.13.36-6.98.36 8.19.36-5.93.37 3.24.36.44.36-4.71.36 6.88.37-5.67.36 3.29.36-.01.36-4.73.36 6.89.37-6.03.36 2.22.36.39.36-1.46.36 4.76.37-5.62.36 1.99.36.16.36-1.43.36 4.58.37-5.42.36 2.13.36-.1.36-1.24.37 3.8.36-5.23.36 3.58.36-1.17.36-1.04.37 3.48.36-5.56.36 5.59.36-3.34.36.91.37 2.47.36-7.18.36 8.22.36-4.65.36 1.02.37 1.38.36-4.86.36 6.76.36-5.46.36 3.48.37-1.41.36-2.69.36 6.02.36-5.51.37 2.91.36-1.3.36-1.63.36 5.4.36-6.7.37 4.49.36-1.21.36-1.19.36 4.64.36-8.21.37 6.94.36-2.43.36-.97.36 2.39.36-3.99.37 5.16.36-3.61.36 1.27.36-.31.37-2.13.36 5.66.36-4.72.36 1.28.36-.46.37-2 .36 5.79.36-7.05.36 5.9.36-2.56.37-2.42.36 6.1.36-8.33.36 6.88.36-2.04.37-1.28.36 1.2.36-1.46.36 3.53.37-2.11.36-1.32.36 1.17.36-1.02.36 3.25.37-4.73.36 3.66.36-1.06.36-2.44.36 5.64.37-8.28.36 6.65.36-.85.36-3.3.36 3.44.37-3.41.36 4.52.36-3.58.36 1.18.36.07.37-1.39.36 3.5.36-5.92.36 5.98.37-2.46.36-2.12.36 5.26.36-7.96.36 6.81.37-.94.36-3.4.36 3.45"/><use xlink:href="#be074__d" transform="matrix(3.75 0 0 3.75 67.83 144.64)"/><use xlink:href="#be074__d" transform="matrix(3.75 0 0 3.75 112.25 22.51)"/></g><text stroke-linecap="round" stroke-linejoin="round" color="#000" font-family="KaTeX_Main" font-size="8" transform="translate(241.1 10.11)"><tspan>LBSTRelaxed</tspan></text><g fill="none" stroke="currentColor" stroke-linecap="round" stroke-linejoin="round" color="#000"><path stroke="#FFAB00" stroke-dasharray="4.0,2.0,1.0,2.0" d="M205.6 7.51h29.9M28 156.53l.36-2.29.36 2.14.37-.18.36-5.19.36 6.88.36-3.8.36-1.54.37 1.25.36 2.41.36-6.49.36 4.87.37-.38.36.97.36-4.81.36 1.83.36 1.03.37-3.94.36 2.27.36 2.19.36-3.93.36 1.03.37-.24.36-.51.36-.1.36-2.25.36 2.72.37-1.69.36-3.96.36 6.37.36-1.16.36-6.2.37 6.76.36-1.54.36-6.1.36 6.01.37-.14.36-4.51.36 3.19.36.72.36-3.48.37 2.73.36-.67.36-1.5.36 1.2.36-2.52.37 1.28.36-.71.36-.22.36 2.25.36-2.63.37-1.42.36 2.57.36-1.14.36.12.37.46.36-1.62.36 1.05.36 1.35.36-6.35.37 6.84.36-2.28.36-5.2.36 8.07.36-3.72.37-5.11.36 8.63.36-4.89.36-2.79.36 5.96.37-4.74.36.71.36 1.18.36-3.84.37 5.83.36-3.41.36-1.61.36 3.32.36-2.28.37-.26.36-.09.36.9.36-1.19.36.98.37-1.28.36-.16.36.15.36.57.36-1.48.37-.08.36-.1.36 1.21.36-2.74.36 1.16.37 2.16.36-3.64.36 1.17.36 1.99.37-4.7.36 2.18.36-.22.36-.08.36-.61.37.64.36-1.4.36 3.19.36-2.65.36-2.56.37 3.1.36-.88.36-.45.36.32.36-3.23.37 5.51.36-2.48.36-1.2.36-2.3.37 5.02.36-.65.36-3.87.36 4.53.36-6.1.37 5.92.36-2.65.36-2.64.36 5.99.36-7.24.37 5.64.36-4.76.36 2.08.36 3.68.36-7.7.37 5.89.36-3.77.36.35.36 2.98.36-5.64.37 5.63.36-6.41.36 6.2.36-6.08.37 4.77.36 1 .36-6.02.36-3.96.36 4.18.37 5.36.36-2.13.36-2.7.36 4.99.36-7.04.37 6.03.36-4.14.36 2.07.36.47.36-1.99.37 2.99.36-6.64.36 4.95.36-1.11.37.97.36 2.09.36-3.47.36 1.3.36-1.4.37.9.36-1.3.36 1.07.36 1.16.36-1.36.37-1.23.36.92.36.97.36-3.28.36 3.32.37-3.7.36 4.55.36-2.24.36-1.42.36 1.07.37-2.31.36 4.55.36-3.52.36 2.15.37-3.65.36 1.93.36.22.36-.56.36 1.67.37-4.91.36 5.63.36-4.74.36 3.68.36-2.44.37.9.36-1.05.36.86.36 2.43.36-4.69.37 3.32.36-4.59.36 5.44.36-4.69.37 3.66.36-3.56.36 2.11.36 2.38.36-5.09.37 4.54.36-6.95.36 6.65.36-4.58.36 3.38.37-1.3.36-2.21.36 3.53.36-3.67.36 4.57.37-3.48.36 1.05.36-3.95.36 3.61.37-.11.36-2.55.36 3.64.36-1.25.36-1.15.37.54.36-1.74.36 3.14.36-2.27.36.03.37 2.19.36-4.9.36 4.68.36-2.41.36 1.02.37-1.38.36 1.16.36.15.36-2.51.36 3.5.37-2.49.36-.08.36.13.36 2.09.37-3.46.36 2.08.36 1.15.36-2.72.36 1.23.37-2.07.36 2.22.36-.29.36-2.31.36 4.89.37-5.92.36 4.21.36-4.71.36 4.29.36-3.28.37 2.91.36-1.8.36.9.36.39.37-3.76.36 4.64.36-2.42.36 1.02.36-1.07.37-.01.36-1.31.36 2.08.36-.98.36-.18.37-.35.36 3.51.36-5.94.36 4.61.36-5.3.37 5.02.36-3.67.36 2.57.36-.16.36-7.2.37 7.18.36-2.5.36 3.61.36-3.58.37 2.32.36-1.29.36-.03.36-2.74.36 2.73.37-.1.36.84.36-2.31.36 3.47.36-4.64.37 5.67.36-5.68.36 5.66.36-4.74.36 2.36.37-1.08.36-.34.36 1.3.36-2 .37 2.25.36-3.93.36 4.6.36-3.52.36 3.24.37-6.23.36 6.07.36-5.18.36 5.27.36-3.71.37 1.7.36-.65.36.98.36-3.41.36 2.64.37-1.58.36 2.38.36-2.57.36 1.95.36-.86.37 1.18.36-3.13.36 2.65.36-1.12.37 1.2.36-2.35.36 3.28.36-5.52.36 4.48.37-2.21.36 3.14.36-3.48.36 1.63.36-1.66.37 2.97.36-1.88.36-.32.36.1.36-.18.37-1.15.36 1.19.36-1.16.36 2.19.37-1.2.36.91.36.31.36-2.4.36 2.06.37-1.2.36.01.36-.17.36-.29.36.44.37-1.48.36 1.06.36-1.78.36.23.36-3.89.37 8.85.36-6.99.36 6.67.36-5.77.37 4.63.36-3.43.36 2.3.36-2.2.36 2.01.37-2.09.36 3.11.36-3.41.36 2.5.36-1.21.37-.12.36-.03.36.86.36-2.29.36 2.27.37-2.34.36 2.47.36-1.32.36-.28.36 1.13.37-2.48.36 2.21.36-2.25.36 3.41.37-3.41.36 2.44.36-2.56.36 2.28.36-2.73.37 3.6.36-4.47.36 4.53.36-4.73.36 4.6.37-4.58.36 4.49.36-3.57.36 2.46.36-2.44.37 2.37.36-2.54.36 2.29.36-2.15.37 3.3.36-4.53.36 4.37.36-3.41.36 2.04.37-1 .36-.26.36.2.36-.19.36.13.37.99.36-2.37.36 2.14.36-2.29.36 2.14.37-4.58.36 6.86.36-6.79.36 6.63.36-7.05.37 6.9.36-5.74.36 4.53.36-4.39.37 4.45.36-4.83.36 4.65.36-4.5.36 3.42.37-2.28.36 3.09.36-3.24.36 1.05.36-.16.37.06.36-.22.36.1.36-.04.36.06.37-.18.36.09.36-.12.36-.02.37-.41.36.62.36-.55.36-1.07.36 2.34.37-3.44.36 4.66.36-5.94.36 6.65.36-5.66.37 4.64.36-4.64.36 4.49.36-4.7.36 4.45.37-3.14.36 1.83.36-2.13.36 2.24.37-2.36.36 2.19.36-2.23.36 2.41.36-2.43.37 1.23.36-.33.36.32.36-.41.36-1.65.37 1.44h.36l.36.11.36-1 .36 1.93.37-2.21.36.54.36-.85.36 2.13.36-2.11.37 1.45.36-2.5.36 4.36.36-4.52.37 3.59.36-2.79.36 2.5.36-3.22.36 2 .37-.22.36-.04.36.3.36.03.36-.29.37-1.12.36 2.27.36-2.39.36 2.39.36-3.4.37 4.23.36-4.42.36 2.37.36-1.4.37 2.42.36-2.7.36 1.1.36-.16.36 1.39.37-2.34.36 2.26.36-2.24.36 2.3.36-2.54.37.99.36-1.6.36 1.63.36-1.06.36 2.17.37-8.8.36 4.13.36 5.87.36-4.84.36 4.72.37-4.75.36 3.52.36-2.26.36 1.93.37-2.16.36 2.25.36-2.27.36 2.21.36-2.29.37 1.22.36-1.17.36 2.07.36-2.31.36.96.37.13.36-2.41.36 4.49.36-4.43.36 4.5.37-4.77.36 3.49.36-2.54.36 2.57.37-3.53.36 3.25.36-2.09.36 1.88.36-2.33.37.3.36 2.34.36-4.67.36 5.47.36-4.62.37 4.7.36-5.67.36 6.62.36-8.05.36 8.01.37-7.7.36 6.69.36-4.82.36 3.61.36-2.56.37 2.37.36-2.47.36 1.13.36-.09.37-1.25.36 2.67.36-2.72.36 2.06.36-3.15.37 2.17.36-.77.36-.71.36 2.21.36-1.98.37 1.84.36-5.21.36 7.79.36-7.91.36 8.19.37-7.26.36 6.96.36-7.21.36 6.08.37-5.84.36 4.15.36-4.84.36 1.78.36 4.51.37-4.69.36 4.5.36-5.71.36 2.52.36-1.95.37 5.1.36-4.32.36-4.33.36 1.67.36 1.99.37 3.51.36-2.13.36 1.12.36-4.79.37 4.59.36.04.36-.07.36-.14.36-1.12.37 2.37.36-2.33.36-.32.36.32.36 1.18.37-1.43.36-2.97.36 5.45.36-3.6.36 4.79.37-6.2.36 7.13.36-9.1.36 7.81.36-4.86.37 3.54.36-3.58.36 2.44.36-1.84.37 1.18.36.32.36-3.03.36 6.12.36-6.43.37 5.84.36-5.94.36 4.3.36-3.17.36 3.48.37-2.65.36-14.41.36 15.95.36-1.04.36 2.2.37-2.28.36-4.39.36 1.48.36 4.77.37-2.11.36 2.45.36-2.63.36-1.27.36 3.22.37-2.83.36 1.16.36-.44.36 1.99.36-3.07.37 2.05.36.13.36-1.43.36 1.28.36-1.04.37 1.05.36-.25.36.18.36-2.66.36 2.33.37-1.03.36 1.07.36-1.21.36.21.37.99.36-.05.36.2.36-1.5.36.01.37 1.14.36-2.31.36 2.56.36-.19.36-3.35.37 3.04.36-1.7.36 1.91.36-3.17.36-.62.37 3.49.36.32.36-.25.36-.17.37-2.25.36.76.36.32.36 1.24.36-1.21.37.64.36.43.36-.09.36-1.2.36 1.13.37.24.36-2.49.36 2.32.36-4.56.36 3.3.37 1.1.36-.57.36-6.99.36 5.26.36 4.11.37-4.24.36 2.55.36-.36.36-.75.37.88.36-3.23.36-2.18.36 4.27.36 1.14.37-.66.36-2.02.36 4.46.36-4.87.36 4.23.37-3.02.36.03.36 1.24.36-2.96.36 5.05.37-4.1.36 4.57.36-5.04.36 4.73.37-4.72.36 1.36.36-13.29.36 13.36.36 1.56.37-4.26.36 4.74.36-3.49.36 3.71.36-2.77.37-4.42.36 6.79.36-2.47.36 2.19.36-2.35.37 2.52.36-11.6.36 10.12.36.29.37-4.65.36 4.83.36-3 .36 4.78.36-18.96.37 17.9.36-3.47.36.07.36 4.86.36-6.08.37 6.79.36-7.97.36 7.11.36-6.14.36 3.56.37.22.36-1.99.36 2.24.36-3.65.36 4.21.37-2.55.36-.06.36.02.36 1.01.37-1.05.36.82.36.07.36-2.21.36 3.37.37-2.31.36-.12.36 1.93.36-3.78.36 5.25.37-6.15.36 6.3.36-6.39.36 4.44.36-.86.37-.77.36 1.05.36-1.3.36 1.48.37-3.1.36 3.46.36-3.34.36 4.43.36-4.47.37 3.51.36-3.69.36 3.75.36-3.87.36 2.76.37-1.59.36-.84.36 4.04.36-5.22.36 5.04.37-5.26.36 4.75.36-4.9.36 5.59.36-6.45.37 4.12.36-1.74.36.57.36 1.55.37-2.95.36 3.07.36-2.91.36 3.05.36-2.99.37 3.22.36-3.88.36 1.8.36 2.05.36-2.75.37-.15.36 1.75.36-.28.36-1.37.36-.3.37 1.36.36-.4.36-2.89.36 4.76.37-2.87.36 1.43.36-1.68.36.56.36.47.37-.14.36-.04.36-1.1.36.36.36-1.31.37 1.92.36.55.36-.19.36-1.2.36.07.37.97.36-1.92.36 1.64.36.05.36-1.57.37 1.26.36-3.68.36 1.89.36 2.55.37-2.43.36 1.39.36-.28.36-.05.36-2.4.37 1.09.36 1.64.36-2.93.36 2.22.36.9.37-3.36.36 2.64.36-.62.36-.15.36 1.39.37-.11.36-1.95.36.75.36.62.37-.8.36 1.07.36-1.59.36-.8.36 2.05h.37l.36-1.28.36 1.01.36-1.09.36 1.74.37-1.43.36-.28.36 1.39.36-1.7.36.55.37-1.53.36 5.08.36-5.01.36 2.07.37.14.36-1.49h.36l.36.05.36.92.37-2.42.36 3.66.36-4.05.36 1.68.36 2.58.37-4.04.36 2.83.36-.05.36.05.36-3.2.37 5.71.36-5.12.36.8.36 1.18.36-.52.37-.75.36 1.79.36-1.35.36-.27.37.96.36-2.52.36 4.89.36-5.86.36 3.47.37-1.34.36 1.56.36-1.18"/><use xlink:href="#be074__e" color="#FFAB00" transform="matrix(3.75 0 0 3.75 125.4 119.36)"/><use xlink:href="#be074__e" color="#FFAB00" transform="matrix(3.75 0 0 3.75 220.55 7.51)"/></g><text stroke-linecap="round" stroke-linejoin="round" color="#000" font-family="KaTeX_Main" font-size="8" transform="translate(241.1 25.11)"><tspan>TreapTopDown</tspan></text><g fill="none" stroke="currentColor" stroke-linecap="round" stroke-linejoin="round" color="#000"><path stroke="#00C853" stroke-dasharray="4.5,2.0,0.5,2.0,0.5,2.0" d="M205.6 22.51h29.9M28 150.59l.36-7.46.36 6.96.37-7.14.36 6.98.36-6.05.36 4.4.36-4.88.37 2.82.36-2.33.36 1.82.36-3.6.37 4.23.36-4.69.36 4.2.36-4.82.36 2.88.37-3.55.36 3.27.36-2.61.36 1.96.36-2.52.37 2.16.36-2.56.36 2.01.36-3.68.36 3.19.37-3.79.36 3.44.36-2.75.36-.27.36 2.28.37-3.6.36 4.36.36-6.06.36 3.39.37-.47.36.09.36-1.52.36-.41.36 1.16.37-1.23.36.8.36-.2.36-.54.36-2.1.37.6.36.98.36-.25.36-1.28.36-.14.37-.38.36-1.34.36 3.25.36-2.25.37-.08.36-.15.36.55.36-3.48.36 5.78.37-4.82.36 1.02.36.68.36-2.36.36 2.26.37-2.46.36-.3.36 2.21.36-.04.36-1.37.37-.07.36-.2.36-.29.36-1.29.37 2.26.36-1.58.36 1.25.36-2.62.36 2.31.37-1.47.36-3.91.36 5.85.36-2.41.36.04.37-.15.36-.21.36-.09.36-1.35.36 1.21.37-.2.36.85.36-1.16.36-1.46.36 2.08.37-2.34.36.89.36-.14.36.05.37-1.42.36 2.07.36-.04.36-3.52.36 2 .37-.08.36-1.19.36 2.39.36-1.43.36-1.62.37 1.35.36-1.12.36 2.11.36-2.54.36 1.19.37-1.4.36 3.47.36-2.45.36-4.84.37 8.06.36-5.19.36-.92.36 5.6.36-7.13.37 4.61.36-1.45.36-2.49.36 4.52.36-3.57.37 1.12.36-1.23.36-.17.36 3.16.36-5.85.37 4.7.36-1.47.36-2.23.36 3.22.36-1.18.37-1.12.36-.46.36.17.36 1.01.37-.2.36-1.23.36 2.22.36-1.41.36-2.34.37 1.06.36 3.34.36-4.77.36.9.36 2.28.37-1.23.36-2.49.36 1.22.36.89.36-1.31.37-1.26.36 4.62.36-4.76.36 2.27.37 1.03.36-4.99.36 2.38.36 2.35.36-2.52.37 1.05.36-1.16.36-.3.36 1.13.36-1.12.37-1.47.36 3.33.36-2.31.36 1.03.36-1.2.37-.22.36 1.15.36-1.29.36-.18.36 1.14.37-1.25.36.03.36.7.36-2.55.37.98.36 2.32.36-3.41.36 1.02.36-.24.37 2.53.36-2.91.36-1.98.36 4.47.36-.32.37-5.83.36 5.65.36-1.24.36-3.38.36 3.28.37-.12.36-1.04.36-1.32.36 3.24.37-2.23.36-.34.36.09.36-1.38.36 2.27.37-2.12.36 3.11.36-3.42.36 1.32.36 2.06.37-3.66h.36l.36 3.33.36-2.28.36-1.32.37 3.28.36-3.26.36.97.36 2.28.37-4.75.36 3.38.36.04.36-2.48.36.95.37.98.36-2.31.36 1.01.36-.07.36 1.12.37-1.4.36-1.03.36 3.31.36-2.42.36.03.37-1.28.36 2.28.36.03.36-1.14.36-.29.37-.22.36-1.23.36 2.38.36-2.41.37 2.38.36-1.33.36-1.2.36 3.42.36-2.35.37-2.34.36 1.8.36 2.11.36-3.32.36 1.23.37 1.06.36-2.44.36-.28.36 3.91.36-2.53.37-1.28.36-1.36.36 4.61.36-1.56.37-3.14.36 2.06.36 2.3.36-4.61.36 2.12.37.96.36-1.15.36-2.41.36 4.7.36-3.62.37 1.01.36-.03.36-.22.36-.97.36 2.02.37-1.17.36-2.51.36 4.72.36-2.45.36-2.37.37-.1.36 5.57.36-3.36.36-2.22.37 3.41.36-1.5.36.09.36.09.36-1.48.37 2.22.36-4.37.36 5.63.36-2.54.36-1.27.37 2.41.36-3.72.36 2.16.36 1.07.36-1.16.37-1.14.36-1.24.36 4.43.36-3.32.37-.33.36 3.63.36-3.56.36-.24.36 2.25.37-3.48.36 2.42.36-.25.36 1.19.36-2.51.37.01.36 2.24.36-3.44.36 3.51.36-1.57.37.07.36-2.41.36 3.6.36-2.28.36 1.02.37-1.27.36 2.33.36-2.52.36.07.37 1.02.36.83.36-2.2.36-.29.36 1.24.37-1.09.36 2.39.36-1.13.36-1.27.36 1.22.37-1.53.36 2.63.36-3.77.36 3.34.36-2.27.37 1.03.36-2.46.36 2.36.36 2.38.37-3.71.36-1.04.36 2.21.36 1.22.36-2.7.37.13.36 2.33.36-2.35.36-1.2.36 3.6.37-.28.36-4.67.36 3.79.36 1.11.36-1.58.37-2.42.36 3.48.36-2.4.36-.03.37 2.07.36-.99.36-2.57.36 1.42.36 2.08.37-1.23.36-2.27.36 2.33.36-.19.36-.26.37.06.36-2.36.36 2.21.36-1.23.36 2.26.37-3.47.36 3.45.36-2.44.36 1.05.36-1.26.37 2.15.36-3.35.36 2.2.36-.93.37 2.23.36-2.38.36-1.29.36 2.12.36.33.37.99.36-2.32.36-.16.36-1.04.36 4.46.37-3.5.36.05.36-.26.36 2.31.36-2.64.37.19.36 1.19.36-.09.36-1.19.37-2.28.36 5.47.36-.13.36-5.6.36 2.2.37-1.36.36 5.87.36-5.93.36 1.39.36-1.32.37 3.49.36-.28.36-3.31.36-.05.36 3.43.37-1.44.36-1.06.36-.17.36.06.36 3.38.37-4.58.36.85.36.16.36 3.41.37-4.81.36 1 .36-.97.36 2.27.36.97.37-2.29.36-2.33.36 3.42.36 1.1.36-1.24.37-3.49.36 3.17.36 1.27.36-1.12.36-1.14.37-1.52.36 2.68.36-1.49.36 2.32.37-3.54.36 2.32.36-2.23.36 2.01.36-1.96.37 3.08.36-1.21.36-1.08.36-.16.36-.04.37 1.02.36-.94.36.86.36-3.33.36 4.31.37-1.23.36-1.28.36-.9.36 1.04.37.87.36.23.36-1.23.36-1.28.36 2.13.37-.24.36-2.03.36 2.15.36-1.18.36.99.37-1.05.36-1.21.36 2.23.36-.23.36-1.04.37-.86.36 3.15.36-4.5.36 5.59.36-5.55.37 4.35.36-2.19.36-.18.36-1.33.37 2.5.36.13.36-1.43.36-1.18.36 2.17.37-2.64.36 4.88.36-5.84.36 3.42.36-1.36.37-1.11.36 2.37.36 2.28.36-4.65.36.01.37 1.12.36 2.13.36-2.32.36-.04.37-1.12.36 2.16.36-.05.36-2.4.36 2.57.37-1.48.36 1.28.36-1.33.36.07.36-.07.37-1.38.36 2.59.36 1.02.36-3.55.36 1.32.37-1.32.36 2.28.36 1.01.36-3.57.36.84.37.1.36 1.25.36-1 .36-.15.37-.16.36.15.36.93.36-1.13.36-1.21.37 1.29.36 2.21.36-2.51.36-.27.36-2.24.37 3.52.36 1.96.36-4.54.36.28.36.94.37 1.06.36-.07.36-2.47.36 2.61.37-3.72.36 3.63.36-.02.36-1.46.36.25.37-1.28.36 2.25.36 1.07.36-4.57.36 1.37.37 3.36.36-.02.36-3.64.36-1.18.36 2.28.37.92.36 1.04.36-3.48.36-.83.36 3.25.37-.14.36-1.1.36-1.2.36 2.2.37-1.4.36.12.36.13.36-.25.36 2.45.37-5.14.36 3.76.36-2.27.36 2.18.36-1.13.37-.25.36-.87.36 3.12.36-3.18.36.99.37-1.56.36 3.64.36-2.24.36.06.37-1.44.36 1.38.36-.25.36 1.27.36-1.6.37.27.36-1.09.36 2.15.36-2.32.36 1.11.37 1.06.36-2.4.36 2.27.36-2.5.36 1.36.37 1.07.36-1.17.36-2.5.36 4.57.37-3.15.36 1.84.36-2.28.36 1.16.36 1.27.37-1.17.36.1.36-.04.36-2.48.36 4.63.37-2.49.36.04.36-1.43.36 1.31.36.18.37.74.36-.91.36.05.36-2.32.36 2.05.37 1.29.36-1.22.36 1.05.36-3.69.37 1.46.36 3.08.36-2.06.36-1.21.36 2.41.37-1.31.36-2.47.36.98.36 3.56.36-1.11.37-1.35.36-2.17.36-.22.36 3.52.36 1.98.37-4.27.36-.17.36.15.36 1.91.37.04.36-3.48.36 2.27.36-1.08.36 1.02.37 1.28.36-1.44.36-.1.36.39.36-1.15.37-.37.36 1.17.36-.1.36 1.46.36-2.58.37 1.08.36-1.49.36 1.23.36.17.36.91.37-3.26.36 1.24.36 1.21.36 2 .37-3.37.36 1.14.36-1.41.36 2.38.36-1.05.37-1.23.36-.03.36 1.05.36.01.36 1.17.37-2.56.36 1.24.36.08.36-1.5.36-1.05.37 5.92.36-4.61.36-.25.36 1 .37-.91.36-.14.36 4.57.36-6 .36 3.57.37-2.06.36-1.51.36 3.39.36-2.31.36 2.14.37-.89.36-.15.36-2.39.36 2.4.36 1.19.37-3.67.36 3.6.36-1.37.36-1.15.36.98.37.01.36.19.36-1.15.36 1.36.37-1.49.36.04.36 4.13.36-5.54.36 2.1.37.18.36-1.11.36.04.36 1.94.36-1.98.37 2.41.36-1.42.36-2.39.36 2.26.36 1.19.37-2.58.36 2.53.36-2.45.36-1.4.37 2.44h.36l.36 1.24.36.06.36-3.73.37-.15.36 2.47.36-.29.36 2.49.36-3.46.37-.29.36 1.54.36-.04.36-2.61.36 2.6.37-.01.36-1.35.36 4.55.36-5.85.37.28.36 2.11.36-.17.36 1.02.36-2.25.37.15.36 1.04.36-.96.36 1.99.36-2.37.37 2.12.36-3.51.36 2.26.36.91.36-2.8.37 1 .36 2.25.36-1.18.36-.3.36-1.08.37-1.2.36.95.36 4.34.36-5.72.37 3.73.36-2.42.36-.01.36-.07.36-.01.37 1.54.36-.55.36.12.36-1.38.36-.78.37 2.11.36 1.36.36-.03.36-2.52h.36l.37.1.36-.57.36.99.36-.35.37.86.36.31.36-2.95.36 2.44.36-1.1.37 3.36.36-3.99.36-.57.36.03.36 2.22.37 3.36.36-4.66.36-.06.36.47.36.24.37-.81.36-.21.36 1.03.36.55.36 1.05.37-1.21.36-2.82.36.54.36 2.12.37-1.24.36 3.04.36-2.13.36-1.99.36 1.05.37 1.19.36-.32.36-2.56.36 3.69.36-.09.37-3.66.36 1.07.36 1.23.36-1.18.36 1.26.37-.76.36-.22.36 2.11.36-.26.37-3.02.36.68.36.17.36 1.15.36-1.13.37 1.36.36.94.36-3.89.36 3.66.36-2.55.37-.92.36 1.37.36 1.77.36-2.04.36 2.24.37-2.6.36-.03.36.04.36.64.36-.88.37.11.36.23.36 3.08.36-3.24.37 2.3.36-3.87.36 2.74.36-2.7.36.41.37 3.28.36-2.65.36 4.3.36-4.23.36-1.14.37-.2.36 1.66.36.58.36-1.47.36 2.7.37-2.22.36 1.19.36-1.28.36.03.37-1.41.36-.04.36 4.7.36-1.09.36-2.44.37-.06.36-1.44.36 1.43.36 1.18.36 1.1.37-3.97.36 3.92.36-1.32.36-.56.36-1.65.37.71.36 4.14.36-4.05.36-1.07.37 2.64.36-1.4.36.63.36.32.36-1.31.37 2.2.36-3.82.36 1.31.36.39.36-.49.37.49.36 3.13.36-.94.36-3.95.36-.2.37 1.5.36-.17.36 1.13.36.01.36-.77.37 3.05.36-4.69.36 1.86.36-1.86.37.72.36-.16.36 2.05.36 1.43.36-3.61.37.5.36-1.25.36-.29"/><use xlink:href="#be074__f" color="#00C853" transform="matrix(3.75 0 0 3.75 182.98 98.43)"/><use xlink:href="#be074__f" color="#00C853" transform="matrix(3.75 0 0 3.75 220.55 22.51)"/></g><path fill="none" d="M28 45.01V162.5M371.99 45.01H28" color="#000"/></svg>