<svg xmlns="http://www.w3.org/2000/svg" xmlns:xlink="http://www.w3.org/1999/xlink" viewBox="0 0 400 200"><path fill="none" d="M0 0h400v200H0z"/><defs><use xlink:href="#f5454__a" id="f5454__b" fill="currentColor" stroke="none"/><use xlink:href="#f5454__a" id="f5454__c" stroke="currentColor" transform="rotate(180)"/><path id="f5454__a" stroke="currentColor" stroke-width=".267" d="m0-1.33-1.33 2h2.66z"/></defs><path fill="none" stroke="#CCC" stroke-linecap="round" stroke-linejoin="round" stroke-width=".1" d="M46.1 162.5V45.01" class="f5454__gridline" color="#000"/><g fill="none" stroke-linecap="round" stroke-linejoin="round" stroke-width="0" color="#000"><path d="M46.1 162.5V155m0-109.99v7.5"/><text fill="#000" font-family="KaTeX_Main" font-size="8" text-anchor="middle" transform="translate(46.1 172.6)"><tspan> 1</tspan></text></g><path fill="none" stroke="#CCC" stroke-linecap="round" stroke-linejoin="round" stroke-width=".1" d="M82.31 162.5V45.01" class="f5454__gridline" color="#000"/><g fill="none" stroke-linecap="round" stroke-linejoin="round" stroke-width="0" color="#000"><path d="M82.31 162.5V155m0-109.99v7.5"/><text fill="#000" font-family="KaTeX_Main" font-size="8" text-anchor="middle" transform="translate(82.31 172.6)"><tspan> 2</tspan></text></g><path fill="none" stroke="#CCC" stroke-linecap="round" stroke-linejoin="round" stroke-width=".1" d="M118.52 162.5V45.01" class="f5454__gridline" color="#000"/><g fill="none" stroke-linecap="round" stroke-linejoin="round" stroke-width="0" color="#000"><path d="M118.52 162.5V155m0-109.99v7.5"/><text fill="#000" font-family="KaTeX_Main" font-size="8" text-anchor="middle" transform="translate(118.52 172.6)"><tspan> 3</tspan></text></g><path fill="none" stroke="#CCC" stroke-linecap="round" stroke-linejoin="round" stroke-width=".1" d="M154.73 162.5V45.01" class="f5454__gridline" color="#000"/><g fill="none" stroke-linecap="round" stroke-linejoin="round" stroke-width="0" color="#000"><path d="M154.73 162.5V155m0-109.99v7.5"/><text fill="#000" font-family="KaTeX_Main" font-size="8" text-anchor="middle" transform="translate(154.73 172.6)"><tspan> 4</tspan></text></g><path fill="none" stroke="#CCC" stroke-linecap="round" stroke-linejoin="round" stroke-width=".1" d="M190.94 162.5V45.01" class="f5454__gridline" color="#000"/><g fill="none" stroke-linecap="round" stroke-linejoin="round" stroke-width="0" color="#000"><path d="M190.94 162.5V155m0-109.99v7.5"/><text fill="#000" font-family="KaTeX_Main" font-size="8" text-anchor="middle" transform="translate(190.94 172.6)"><tspan> 5</tspan></text></g><path fill="none" stroke="#CCC" stroke-linecap="round" stroke-linejoin="round" stroke-width=".1" d="M227.15 162.5V45.01" class="f5454__gridline" color="#000"/><g fill="none" stroke-linecap="round" stroke-linejoin="round" stroke-width="0" color="#000"><path d="M227.15 162.5V155m0-109.99v7.5"/><text fill="#000" font-family="KaTeX_Main" font-size="8" text-anchor="middle" transform="translate(227.15 172.6)"><tspan> 6</tspan></text></g><path fill="none" stroke="#CCC" stroke-linecap="round" stroke-linejoin="round" stroke-width=".1" d="M263.36 162.5V45.01" class="f5454__gridline" color="#000"/><g fill="none" stroke-linecap="round" stroke-linejoin="round" stroke-width="0" color="#000"><path d="M263.36 162.5V155m0-109.99v7.5"/><text fill="#000" font-family="KaTeX_Main" font-size="8" text-anchor="middle" transform="translate(263.36 172.6)"><tspan> 7</tspan></text></g><path fill="none" stroke="#CCC" stroke-linecap="round" stroke-linejoin="round" stroke-width=".1" d="M299.57 162.5V45.01" class="f5454__gridline" color="#000"/><g fill="none" stroke-linecap="round" stroke-linejoin="round" stroke-width="0" color="#000"><path d="M299.57 162.5V155m0-109.99v7.5"/><text fill="#000" font-family="KaTeX_Main" font-size="8" text-anchor="middle" transform="translate(299.57 172.6)"><tspan> 8</tspan></text></g><path fill="none" stroke="#CCC" stroke-linecap="round" stroke-linejoin="round" stroke-width=".1" d="M335.78 162.5V45.01" class="f5454__gridline" color="#000"/><g fill="none" stroke-linecap="round" stroke-linejoin="round" stroke-width="0" color="#000"><path d="M335.78 162.5V155m0-109.99v7.5"/><text fill="#000" font-family="KaTeX_Main" font-size="8" text-anchor="middle" transform="translate(335.78 172.6)"><tspan> 9</tspan></text></g><path fill="none" stroke="#CCC" stroke-linecap="round" stroke-linejoin="round" stroke-width=".1" d="M371.99 162.5V45.01" class="f5454__gridline" color="#000"/><g fill="none" stroke-linecap="round" stroke-linejoin="round" stroke-width="0" color="#000"><path d="M371.99 162.5V155m0-109.99v7.5"/><text fill="#000" font-family="KaTeX_Main" font-size="8" text-anchor="middle" transform="translate(371.99 172.6)"><tspan> 10</tspan></text></g><g fill="none" stroke-linecap="round" stroke-linejoin="round" stroke-width="0" color="#000"><path d="M371.99 162.5h-7.5"/><text fill="#000" font-family="KaTeX_Main" font-size="8" transform="translate(378.99 165.1)"><tspan>1.10</tspan></text></g><g fill="none" stroke-linecap="round" stroke-linejoin="round" stroke-width="0" color="#000"><path d="M371.99 145.72h-7.5"/><text fill="#000" font-family="KaTeX_Main" font-size="8" transform="translate(378.99 148.32)"><tspan>1.20</tspan></text></g><g fill="none" stroke-linecap="round" stroke-linejoin="round" stroke-width="0" color="#000"><path d="M371.99 128.93h-7.5"/><text fill="#000" font-family="KaTeX_Main" font-size="8" transform="translate(378.99 131.53)"><tspan>1.30</tspan></text></g><g fill="none" stroke-linecap="round" stroke-linejoin="round" stroke-width="0" color="#000"><path d="M371.99 112.15h-7.5"/><text fill="#000" font-family="KaTeX_Main" font-size="8" transform="translate(378.99 114.75)"><tspan>1.40</tspan></text></g><g fill="none" stroke-linecap="round" stroke-linejoin="round" stroke-width="0" color="#000"><path d="M371.99 95.36h-7.5"/><text fill="#000" font-family="KaTeX_Main" font-size="8" transform="translate(378.99 97.96)"><tspan>1.50</tspan></text></g><g fill="none" stroke-linecap="round" stroke-linejoin="round" stroke-width="0" color="#000"><path d="M371.99 78.58h-7.5"/><text fill="#000" font-family="KaTeX_Main" font-size="8" transform="translate(378.99 81.18)"><tspan>1.60</tspan></text></g><g fill="none" stroke-linecap="round" stroke-linejoin="round" stroke-width="0" color="#000"><path d="M371.99 61.79h-7.5"/><text fill="#000" font-family="KaTeX_Main" font-size="8" transform="translate(378.99 64.39)"><tspan>1.70</tspan></text></g><g fill="none" stroke-linecap="round" stroke-linejoin="round" stroke-width="0" color="#000"><path d="M371.99 45.01h-7.5"/><text fill="#000" font-family="KaTeX_Main" font-size="8" transform="translate(378.99 47.61)"><tspan>1.80</tspan></text></g><path fill="none" d="M28 45.01V162.5M371.99 45.01H28" color="#000"/><text stroke-linecap="round" stroke-linejoin="round" stroke-width="0" color="#000" font-family="KaTeX_Main" font-size="10" text-anchor="middle" transform="rotate(-90 57.63 46.13)"><tspan font-weight="bold">Maximum Path Length </tspan><tspan> / log</tspan><tspan dy="3" font-size="8">2</tspan><tspan dy="-3">(Size)</tspan></text><text stroke-linecap="round" stroke-linejoin="round" stroke-width="0" color="#000" font-family="KaTeX_Main" font-size="10" text-anchor="middle" transform="translate(199.99 195.75)"><tspan>Operations / 10</tspan><tspan dy="-5" font-size="8">6</tspan></text><text stroke-linecap="round" stroke-linejoin="round" stroke-width=".5" color="#000" font-family="KaTeX_Main" font-size="8" transform="translate(110.4 10.11)"><tspan>AVLBottomUp</tspan></text><g fill="none" stroke="currentColor" stroke-linecap="round" stroke-linejoin="round" stroke-width=".5" color="#000"><path stroke="#000" d="M74.9 7.51h29.9M28 152.08l.36.29.36.29.37.28.36.28.36.27.36.26.36.26.37.25.36.25.36.24.36.24.37.24.36.23.36.22.36.22.36.22.37.22.36.21.36.2.36-8.44.36.21.37.21.36.2.36.2.36.2.36.19.37.19.36.19.36.18.36.19.36.18.37.17.36.18.36.17.36.17.37.17.36.16.36.17.36.16.36.16.37.15.36.16.36.15.36.15.36.15.37.15.36.15.36.14.36.14.36.14h226.31l.37-8.42h.36l.36 8.42h98.49"/><use xlink:href="#f5454__b" transform="matrix(3.75 0 0 3.75 354.25 153.44)"/><use xlink:href="#f5454__b" transform="matrix(3.75 0 0 3.75 89.85 7.51)"/></g><text stroke-linecap="round" stroke-linejoin="round" color="#000" font-family="KaTeX_Main" font-size="8" transform="translate(110.4 25.11)"><tspan>RedBlackBottomUp</tspan></text><g fill="none" stroke="currentColor" stroke-linecap="round" stroke-linejoin="round" color="#000"><path stroke="#F44336" d="M74.9 22.51h29.9M28 54.56l.36.44.36.43.37.42.36.41.36.41.36.39.36.39.37.38.36.37.36.37.36.35.37.35.36.35.36.34.36.33.36.33.37.32.36.32.36.31.36.3.36.3.37.3.36.29.36.28.36-8.31.36.28.37.28.36.28.36.27.36.27.36.27.37.26.36.26.36.26.36.25.37.25.36.24.36.24.36.24.36.23.37.24.36.23.36.22.36.23.36.22.37.22.36.21.36.22.36.21.36.2.37 25.27h1.08l.37-8.42h.72l.36 8.42h2.9l.36-8.42h6.16l.36 8.42h1.08l.37-8.42h1.08l.36 8.42h.37l.36 8.42h.36l.36-8.42h3.62l.37 8.42.36-8.42H70l.37-8.42.36 8.42.36-8.42h3.26l.36 8.42h.36l.36-8.42h4.71l.36 8.42h1.09l.36 8.42.36-8.42h4.71l.36 8.42h1.09l.36-8.42h2.54l.36-8.42h6.88l.36 8.42h3.98l.37 8.42h.72l.36-8.42h2.17l.37 8.42.36-8.42h6.15l.37-8.42h1.08l.36 16.84h.37l.36-8.42.36 8.42h.73l.36-8.42h.36l.36 8.42h1.81l.36-8.42h3.99l.36 8.42h.72l.37-8.42h.36l.36 8.42h.36l.36-8.42h.37l.36 8.42.36-8.42h2.9l.36 8.42h.72l.37-8.42h2.53l.36 8.42.36-8.42h2.9l.36 8.42h.73l.36-8.42h1.09l.36 8.42h1.45l.36-8.42h1.45l.36 8.42.36-8.42h3.98l.37 8.42h1.08l.36 8.42h.37l.36-8.42h1.08l.37-8.42h1.08l.37 8.42h1.08l.36-8.42h3.26l.36 16.84.37-8.42h.36l.36-8.42h4.35l.36 8.42.36-8.42h9.78l.36 8.42h.36l.36-8.42h6.16l.36 8.42h.72l.37-8.42h3.26l.36 8.42h.72l.36-8.42h1.81l.37 8.42.36-8.42h1.09l.36-8.42h.72l.36 8.42.37-8.42h.36l.36 8.42.36 8.42h.73l.36-8.42h2.53l.37-8.42h.36l.36 8.42.36-8.42h.73l.36 8.42h2.17l.36 8.42.36-8.42h3.63l.36 8.42.36-8.42h2.9l.36-8.42h.36l.36 8.42.36-8.42h.37l.36 8.42.36 8.42h.36l.37 8.42.36-8.42h.36l.36 8.42.36-8.42h1.45l.36 8.42.37-8.42h1.08l.36-8.42h5.8l.36 8.42h.72l.37-8.42h6.51l.37 8.42h.72l.36-8.42h5.43l.37 16.84h1.08l.36-8.42h2.54l.36-8.42h1.09l.36 8.42h.36l.36-8.42h1.45l.36 8.42.37 8.42.36-8.42h.36l.36-8.42h3.99l.36 8.42h.36l.36-8.42h3.26l.36 8.42h.36l.37-8.42.36 8.42.36-8.42h4.35l.36 8.42h5.43l.36-8.42h15.93l.37 8.42h.72l.36-8.42h2.54l.36 8.42h1.09l.36-8.42h7.24l.36 8.42.36-8.42h1.81l.37 8.42h.36l.36-8.42h2.54l.36 8.42h.72l.36-8.42h1.81l.37 8.42h.36l.36-8.42h5.43l.36-8.42.37 8.42h2.17l.36 8.42h1.09l.36-8.42.36 8.42.36-8.42h1.45l.36 8.42.37-8.42h8.32l.37 8.42.36-8.42h6.88l.36 8.42.36-8.42h1.81l.36 8.42.37 8.42.36-8.42h1.08l.37-8.42h1.45l.36 8.42.36-8.42h5.43l.36 8.42h.37l.36-8.42h2.17l.36 8.42h.36l.37-8.42h.72l.36 8.42.36-8.42h7.25l.36 8.42h.72l.36-8.42.37 8.42h.72l.36-8.42h2.18l.36 8.42.36-8.42"/><use xlink:href="#f5454__a" color="#F44336" transform="matrix(3.75 0 0 3.75 67.83 86.08)"/><use xlink:href="#f5454__a" color="#F44336" transform="matrix(3.75 0 0 3.75 89.85 22.51)"/></g><text stroke-linecap="round" stroke-linejoin="round" color="#000" font-family="KaTeX_Main" font-size="8" transform="translate(241.1 10.11)"><tspan>AVLWeakBottomUp</tspan></text><g fill="none" stroke="currentColor" stroke-linecap="round" stroke-linejoin="round" color="#000"><path stroke="#00C853" d="M205.6 7.51h29.9M28 152.08l.36.29.36.29.37.28.36.28.36.27.36.26.36.26.37.25.36.25.36.24.36.24.37.24.36.23.36.22.36.22.36.22.37.22.36.21.36.2.36-8.44.36.21.37.21.36.2.36.2.36.2.36.19.37.19.36.19.36.18.36.19.36.18.37.17.36.18.36.17.36.17.37.17.36.16.36.17.36.16.36.16.37.15.36.16.36.15.36.15.36.15.37.15.36.15.36.14.36.14.36.14h42.37l.36-8.42h.73l.36 8.42h12.67l.36-8.42h12.68l.36 8.42h8.33l.36-8.42h13.03l.37 8.42h13.39l.37-8.42.36 8.42h84.73l.36-8.42h3.26l.36 8.42h7.97l.36-8.42h9.41l.37 8.42h4.34l.36-8.42h9.06l.36 8.42h9.41l.36-8.42h10.51l.36 8.42h13.4l.36-8.42h5.43l.36 8.42h58.66"/><use xlink:href="#f5454__a" color="#00C853" transform="matrix(3.75 0 0 3.75 125.4 145.02)"/><use xlink:href="#f5454__a" color="#00C853" transform="matrix(3.75 0 0 3.75 220.55 7.51)"/></g><text stroke-linecap="round" stroke-linejoin="round" color="#000" font-family="KaTeX_Main" font-size="8" transform="translate(241.1 25.11)"><tspan>AVLWeakTopDown</tspan></text><g fill="none" stroke="currentColor" stroke-linecap="round" stroke-linejoin="round" color="#000"><path stroke="#FFAB00" stroke-dasharray="4.5,2.0,0.5,2.0,0.5,2.0" d="M205.6 22.51h29.9M28 143.21l.36.31.36.3.37-8.53.36-8.52.36 9.11.36-8.5.36-8.48.37-8.47.36 17.81.36 9.02.36-17.2.37 17.72.36 8.96.36-8.46.36.24.36-8.45.37.25.36-8.42.36 8.89.36.23.36.23.37-8.4.36 8.85.36-17.01.36.24.36 8.82.37 17.38.36.19.36.2.36-16.93.36.2.37 17.29.36.18.36-16.88.36.2.37.19.36-8.32.36 25.69.36-16.82.36 17.15.37.16.36-8.31.36 8.64.36-16.76.36.17.37.16.36 8.61.36.15.36.16.36.15.37-8.42h.72l.36-8.42.37 8.42h.72l.36 8.42h.73l.36-8.42.36 8.42h.36l.36-8.42h3.26l.37 8.42.36-16.84h.36l.36 8.42h1.09l.36-8.42.36 8.42.36 8.42.37-8.42.36 8.42.36-8.42h2.53l.37-8.42.36 8.42h1.09l.36 8.42.36-8.42.36 8.42h1.09l.36-16.84h.36l.36 8.42.37 8.42h.36l.36-8.42h1.81l.36 8.42h.37l.36-8.42.36 8.42.36-8.42h1.45l.36 16.84.36-16.84h.37l.36-8.42.36 8.42h.36l.36 8.42h.73l.36-8.42h.72l.37-8.42.36 8.42h1.45l.36 8.42.36-8.42h.73l.36 8.42h.36l.36-8.42.36-8.42.37 8.42h.36l.36 8.42.36-8.42h.36l.37 8.42.36-8.42.36 8.42h.36l.37-8.42.36 8.42h.72l.36-8.42h.73l.36 8.42h.36l.36-8.42h.37l.36 8.42.36-8.42h1.45l.36 8.42.36-8.42.36 8.42h1.09l.36-8.42h2.18l.36 8.42h.36l.36-8.42h2.54l.36 8.42.36-8.42.36-8.42.37 8.42.36 8.42h2.53l.36-8.42.37 8.42.36-8.42h.36l.36 8.42h.36l.37-8.42h1.45l.36-8.42.36 16.84.36-8.42.36 8.42.37-8.42.36 8.42h.36l.36-8.42h.36l.37 8.42.36-8.42h1.08l.37 8.42h.36l.36-8.42h1.09l.36-8.42.36 8.42h2.9l.36 8.42.36-8.42h1.09l.36 8.42h.72l.37-8.42.36 8.42h3.26l.36-8.42.36 8.42.36-8.42h1.45l.36-8.42.37 8.42h1.08l.36 8.42h.37l.36-8.42h.36l.36-8.42.37 8.42.36-8.42.36 16.84h.36l.36-8.42h1.81l.37 8.42.36-8.42h.36l.36 8.42.36-8.42h.73l.36 8.42.36-8.42.37 8.42h.36l.36-8.42.36 8.42.36-8.42h.73l.36 8.42h1.09l.36-8.42h2.89l.37 8.42h2.17l.36-8.42h2.9l.36-8.42.36 8.42h3.62l.37-8.42.36 16.84h1.08l.37-16.84.36 8.42.36 8.42h.36l.36-8.42h.37l.36 8.42.36-8.42h.36l.37 8.42.36-8.42h.72l.36 8.42h.37l.36-8.42h.72l.36 8.42.37-16.84.36 8.42h9.05l.36 8.42.36-8.42.37 8.42.36-8.42h.72l.37 8.42.36-8.42h.36l.36 8.42.36-8.42.37 8.42.36-8.42h.36l.36-8.42h.73l.36 8.42h1.08l.37-8.42.36 16.84h1.81l.36-8.42h1.45l.36 8.42h.73l.36-8.42h3.26l.36 8.42h.72l.37-8.42h1.44l.37 8.42.36-8.42.36 8.42.36-8.42.36 8.42.37-8.42.36 8.42h.36l.36-8.42.36 8.42h1.09l.36-8.42h.37l.36-8.42.36 8.42h1.09l.36 8.42h1.08l.37-8.42.36 8.42.36-8.42h1.45l.36 8.42.36-8.42h1.45l.36-8.42.37 8.42h3.25l.37 8.42h.36l.36-8.42h1.81l.36 8.42.37-8.42h1.44l.37-8.42.36 25.26.36-16.84.36 8.42h1.45l.36-8.42h.36l.37 8.42.36-8.42.36 8.42.36-8.42h1.09l.36 8.42.36-8.42h.73l.36 8.42h.36l.36-8.42.37 8.42h.72l.36-8.42.36-8.42.37 8.42h2.53l.36 8.42h.73l.36-8.42h2.17l.36 8.42.37-8.42.36-8.42.36 8.42h1.09l.36-8.42.36 8.42.36 8.42.36-8.42H242l.36 8.42h.72l.37-8.42h.72l.36 8.42h1.09l.36-8.42h2.54l.36 8.42h.72l.36-8.42.37 8.42h.72l.36-8.42h.73l.36 8.42.36-16.84h.73l.36 16.84.36-8.42h.72l.37 8.42h1.08l.36-8.42h1.45l.36 8.42h.73l.36-8.42.36 8.42.36-8.42h2.18l.36-8.42.36 8.42h.36l.37-8.42.36 8.42.36 8.42.36-8.42h3.26l.36 8.42h1.45l.36-8.42.37-8.42.36 8.42h2.89l.37 8.42.36-16.84h.36l.36 8.42.36-8.42.37 8.42h.36l.36-8.42.36 8.42h3.26l.36 8.42h.37l.36-8.42h1.45l.36 8.42h.36l.36-16.84.37 16.84h.72l.36-8.42.36 8.42.37-16.84h.72l.36 16.84.36-8.42.37 8.42h2.89l.36-8.42h1.09l.36 8.42.37-8.42.36 8.42.36-8.42h.36l.36 8.42.37-8.42.36 8.42.36-8.42.36 8.42h.36l.37-8.42h1.08l.36 8.42h.73l.36-8.42.36 8.42.37-8.42h1.08l.36 8.42.37-8.42h.72l.36-8.42h.36l.37 16.84.36-8.42.36 8.42.36-8.42h.73l.36 8.42h.36l.36-8.42.37 8.42.36-8.42h1.45l.36-8.42.36 8.42.36-8.42.36 8.42.37-8.42.36 8.42.36-8.42.36 8.42h.36l.37 8.42h.36l.36-8.42.36 8.42h.36l.37-8.42h.36l.36 8.42h1.09l.36-8.42.36 8.42.36-8.42h3.99l.36 8.42.36-8.42.36 8.42.37-8.42h.36l.36-8.42h.36l.36 8.42.37 8.42.36-8.42h6.88l.36-8.42.36 16.84.36-8.42h.73l.36 8.42h1.45l.36-8.42h1.09l.36 8.42h1.45l.36-8.42.36-8.42.36 8.42.37 8.42.36-8.42h3.98l.36-8.42.36 8.42h1.82l.36 8.42.36-8.42.36 8.42.36-8.42h2.18l.36 8.42h.36l.36-8.42h.36l.37-8.42.36 8.42h1.81l.36 8.42h.73l.36-8.42h1.08l.37-8.42.36 8.42h3.62l.36-8.42.36 16.84.37-8.42h3.98l.36 8.42h2.54l.36-8.42.36-8.42.36 8.42h1.45"/><use xlink:href="#f5454__c" color="#FFAB00" transform="matrix(3.75 0 0 3.75 182.98 119.76)"/><use xlink:href="#f5454__c" color="#FFAB00" transform="matrix(3.75 0 0 3.75 220.55 22.51)"/></g><path fill="none" d="M28 45.01V162.5M371.99 45.01H28" color="#000"/></svg>