<svg xmlns="http://www.w3.org/2000/svg" xmlns:xlink="http://www.w3.org/1999/xlink" viewBox="0 0 400 200"><path fill="none" d="M0 0h400v200H0z"/><defs><use xlink:href="#62186__a" id="62186__c" fill="currentColor" stroke="none"/><use xlink:href="#62186__b" id="62186__d" fill="currentColor" stroke="none"/><circle id="62186__a" cx="0" cy="0" r="1" stroke="currentColor" stroke-width=".267"/><path id="62186__b" stroke="currentColor" stroke-width=".267" d="m0-1.33-1.33 2h2.66z"/></defs><path fill="none" stroke="#CCC" stroke-linecap="round" stroke-linejoin="round" stroke-width=".1" d="M46.1 162.5V45.01" class="62186__gridline" color="#000"/><g fill="none" stroke-linecap="round" stroke-linejoin="round" stroke-width="0" color="#000"><path d="M46.1 162.5V155m0-109.99v7.5"/><text fill="#000" font-family="KaTeX_Main" font-size="8" text-anchor="middle" transform="translate(46.1 172.6)"><tspan> 1</tspan></text></g><path fill="none" stroke="#CCC" stroke-linecap="round" stroke-linejoin="round" stroke-width=".1" d="M82.31 162.5V45.01" class="62186__gridline" color="#000"/><g fill="none" stroke-linecap="round" stroke-linejoin="round" stroke-width="0" color="#000"><path d="M82.31 162.5V155m0-109.99v7.5"/><text fill="#000" font-family="KaTeX_Main" font-size="8" text-anchor="middle" transform="translate(82.31 172.6)"><tspan> 2</tspan></text></g><path fill="none" stroke="#CCC" stroke-linecap="round" stroke-linejoin="round" stroke-width=".1" d="M118.52 162.5V45.01" class="62186__gridline" color="#000"/><g fill="none" stroke-linecap="round" stroke-linejoin="round" stroke-width="0" color="#000"><path d="M118.52 162.5V155m0-109.99v7.5"/><text fill="#000" font-family="KaTeX_Main" font-size="8" text-anchor="middle" transform="translate(118.52 172.6)"><tspan> 3</tspan></text></g><path fill="none" stroke="#CCC" stroke-linecap="round" stroke-linejoin="round" stroke-width=".1" d="M154.73 162.5V45.01" class="62186__gridline" color="#000"/><g fill="none" stroke-linecap="round" stroke-linejoin="round" stroke-width="0" color="#000"><path d="M154.73 162.5V155m0-109.99v7.5"/><text fill="#000" font-family="KaTeX_Main" font-size="8" text-anchor="middle" transform="translate(154.73 172.6)"><tspan> 4</tspan></text></g><path fill="none" stroke="#CCC" stroke-linecap="round" stroke-linejoin="round" stroke-width=".1" d="M190.94 162.5V45.01" class="62186__gridline" color="#000"/><g fill="none" stroke-linecap="round" stroke-linejoin="round" stroke-width="0" color="#000"><path d="M190.94 162.5V155m0-109.99v7.5"/><text fill="#000" font-family="KaTeX_Main" font-size="8" text-anchor="middle" transform="translate(190.94 172.6)"><tspan> 5</tspan></text></g><path fill="none" stroke="#CCC" stroke-linecap="round" stroke-linejoin="round" stroke-width=".1" d="M227.15 162.5V45.01" class="62186__gridline" color="#000"/><g fill="none" stroke-linecap="round" stroke-linejoin="round" stroke-width="0" color="#000"><path d="M227.15 162.5V155m0-109.99v7.5"/><text fill="#000" font-family="KaTeX_Main" font-size="8" text-anchor="middle" transform="translate(227.15 172.6)"><tspan> 6</tspan></text></g><path fill="none" stroke="#CCC" stroke-linecap="round" stroke-linejoin="round" stroke-width=".1" d="M263.36 162.5V45.01" class="62186__gridline" color="#000"/><g fill="none" stroke-linecap="round" stroke-linejoin="round" stroke-width="0" color="#000"><path d="M263.36 162.5V155m0-109.99v7.5"/><text fill="#000" font-family="KaTeX_Main" font-size="8" text-anchor="middle" transform="translate(263.36 172.6)"><tspan> 7</tspan></text></g><path fill="none" stroke="#CCC" stroke-linecap="round" stroke-linejoin="round" stroke-width=".1" d="M299.57 162.5V45.01" class="62186__gridline" color="#000"/><g fill="none" stroke-linecap="round" stroke-linejoin="round" stroke-width="0" color="#000"><path d="M299.57 162.5V155m0-109.99v7.5"/><text fill="#000" font-family="KaTeX_Main" font-size="8" text-anchor="middle" transform="translate(299.57 172.6)"><tspan> 8</tspan></text></g><path fill="none" stroke="#CCC" stroke-linecap="round" stroke-linejoin="round" stroke-width=".1" d="M335.78 162.5V45.01" class="62186__gridline" color="#000"/><g fill="none" stroke-linecap="round" stroke-linejoin="round" stroke-width="0" color="#000"><path d="M335.78 162.5V155m0-109.99v7.5"/><text fill="#000" font-family="KaTeX_Main" font-size="8" text-anchor="middle" transform="translate(335.78 172.6)"><tspan> 9</tspan></text></g><path fill="none" stroke="#CCC" stroke-linecap="round" stroke-linejoin="round" stroke-width=".1" d="M371.99 162.5V45.01" class="62186__gridline" color="#000"/><g fill="none" stroke-linecap="round" stroke-linejoin="round" stroke-width="0" color="#000"><path d="M371.99 162.5V155m0-109.99v7.5"/><text fill="#000" font-family="KaTeX_Main" font-size="8" text-anchor="middle" transform="translate(371.99 172.6)"><tspan> 10</tspan></text></g><g fill="none" stroke-linecap="round" stroke-linejoin="round" stroke-width="0" color="#000"><path d="M371.99 162.5h-7.5"/><text fill="#000" font-family="KaTeX_Main" font-size="8" transform="translate(378.99 165.1)"><tspan>2.50</tspan></text></g><g fill="none" stroke-linecap="round" stroke-linejoin="round" stroke-width="0" color="#000"><path d="M371.99 142.92h-7.5"/><text fill="#000" font-family="KaTeX_Main" font-size="8" transform="translate(378.99 145.52)"><tspan>3.00</tspan></text></g><g fill="none" stroke-linecap="round" stroke-linejoin="round" stroke-width="0" color="#000"><path d="M371.99 123.34h-7.5"/><text fill="#000" font-family="KaTeX_Main" font-size="8" transform="translate(378.99 125.94)"><tspan>3.50</tspan></text></g><g fill="none" stroke-linecap="round" stroke-linejoin="round" stroke-width="0" color="#000"><path d="M371.99 103.75h-7.5"/><text fill="#000" font-family="KaTeX_Main" font-size="8" transform="translate(378.99 106.35)"><tspan>4.00</tspan></text></g><g fill="none" stroke-linecap="round" stroke-linejoin="round" stroke-width="0" color="#000"><path d="M371.99 84.17h-7.5"/><text fill="#000" font-family="KaTeX_Main" font-size="8" transform="translate(378.99 86.77)"><tspan>4.50</tspan></text></g><g fill="none" stroke-linecap="round" stroke-linejoin="round" stroke-width="0" color="#000"><path d="M371.99 64.59h-7.5"/><text fill="#000" font-family="KaTeX_Main" font-size="8" transform="translate(378.99 67.19)"><tspan>5.00</tspan></text></g><g fill="none" stroke-linecap="round" stroke-linejoin="round" stroke-width="0" color="#000"><path d="M371.99 45.01h-7.5"/><text fill="#000" font-family="KaTeX_Main" font-size="8" transform="translate(378.99 47.61)"><tspan>5.50</tspan></text></g><path fill="none" d="M28 45.01V162.5M371.99 45.01H28" color="#000"/><text stroke-linecap="round" stroke-linejoin="round" stroke-width="0" color="#000" font-family="KaTeX_Main" font-size="10" text-anchor="middle" transform="rotate(-90 57.63 46.13)"><tspan font-weight="bold">Duration </tspan><tspan> in milliseconds</tspan></text><text stroke-linecap="round" stroke-linejoin="round" stroke-width="0" color="#000" font-family="KaTeX_Main" font-size="10" text-anchor="middle" transform="translate(199.99 195.75)"><tspan>Operations / 10</tspan><tspan dy="-5" font-size="8">6</tspan></text><text stroke-linecap="round" stroke-linejoin="round" color="#000" font-family="KaTeX_Main" font-size="8" transform="translate(132.8 10.11)"><tspan>LBSTBottomUp</tspan></text><g fill="none" stroke="currentColor" stroke-linecap="round" stroke-linejoin="round" color="#000"><path stroke="#3B75EA" d="M97.3 7.51h29.9M28 129.18l.36-.29.36-9.41.37-1.52.36-1.36.36-1.29.36 6.8.36.51.37-9.03.36-1.43.36-.75.36 5.91.37.46.36-.08.36-9.08.36-1.88.36 6.63.37-9.05.36 8.33.36-8.33.36-.64.36 6.98.37-9.05.36-.38.36 8.35.36-7.94.36 6.65.37-9.22.36-.67.36 8.28.36.59.36-.23.37-10.09.36-.96.36-.34.36 7.51.37.48.36-9.2.36-1.04.36-.76.36-.32.37 6.67.36.52.36-8.67.36-.96.36-1.01.37 6.83.36.25.36.57.36-8.89.36-1.15.37 12.33.36.6.36-8.72.36 7.5.37.52.36.02.36.14.36-9.22.36 6.63.37-7.08.36 6.8.36.51.36-9.37.36 8.12.37-7.92.36 7.17.36.85.36.51.36-.07.37-8.16.36 7.12.36.18.36-8.73.37 7.98.36-7.87.36 7.39.36.45.36.27.37.32.36.14.36.04.36.03.36-9.18.37 7.99.36-8.1.36 7.23.36-6.97.36 6.07.37.9.36.09.36.52.36-.04.36-8.8.37 8.09.36-8.33.36 7.41.36-7.34.37 6.37.36.59.36-8.12.36 7.6.36.85.37.25.36.22.36-8.33.36 7.35.36-7.01.37 6.18.36.86.36-8.64.36 7.95.36.48.37.32.36.44.36.27.36-.07.37-7.51.36 5.81.36.71.36-8.43.36 7.4.37-7.21.36 6.25.36.39.36.96.36.29.37-7.1.36 5.65.36.99.36-8.07.36 7.02.37-7.24.36 6.74.36.63.36-8.51.36 7.65.37.37.36.7.36.31.36-8.06.37 7.26.36-7.13.36 6.15.36.67.36-8.27.37 7.56.36.78.36.64.36.33.36.09.37.16.36-7.1.36 5.98.36.25.36-8.07.37 7.33.36-7.41.36 6.7.36.84.37.15.36.38.36-7.39.36 6.33.36.84.37-8.32.36 7.35.36-7.43.36 6.86.36.75.37-8.84.36 8.04.36.36.36-.2.36.49.37-7.97.36 7.33.36-7.45.36 6.52.36 1.25.37-8.32.36 7.61.36.74.36.25.37.77.36-.16.36-.07.36-7.26.36 6.18.37.43.36-8.37.36 7.29.36-7.16.36 7.42.37.21.36.45.36.54.36-7.49.36 6.08.37.5.36-7.94.36 7.49.36-7.65.37 6.98.36.38.36-8.22.36 7.62.36.9.37.44.36-.38.36-8.82.36 7.79.36-7.1.37 6.55.36.41.36-8.29.36 8.24.36.74.37.11.36.27.36.51.36.11.37-7.88.36 6.54.36-.34.36-7.84.36 7.82.37-7.67.36 6.73.36.89.36.48.36.39.37-7.59.36 6.79.36.29.36-8.13.36 7.79.37-7.45.36 6.72.36.66.36-8.21.36 8.08.37.55.36.01.36.49.36-9.59.37 7.89.36-7.76.36 6.58.36.56.36-10.39.37 7.92.36 1.27.36.5.36.69.36.78.37.42.36-7.54.36 6.53.36.73.36-8.61.37 7.89.36-7.29.36 6.9.36.95.37.49.36-.03.36-7.54.36 6.98.36.26.37-8.33.36 7.78.36-7.38.36 6.96.36.86.37-8.28.36 7.69.36.68.36.72.36.18.37-8.01.36 7.22.36-7.49.36 6.53.36.75.37-8.35.36 7.83.36.47.36.01.37.35.36.09.36.22.36-7.4.36 6.44.37.3.36-8.27.36 7.77.36-7.58.36 7.35.37.42.36.43.36.31.36-7.78.36 6.88.37.68.36-8.54.36 7.93.36-7.95.37 7.14.36.63.36-8.8.36 8.11.36.56.37.56.36-.03.36-8.32.36 7.44.36-7.61.37 7.13.36.77.36-8.78.36 7.89.36.69.37.57.36.19.36.19.36.4.36-8.23.37 7.04.36.6.36-8.66.36 7.97.37-7.79.36 7.23.36.8.36.26.36.36.37-8.11.36 6.79.36.57.36-8.96.36 7.95.37-7.32.36 6.77.36.89.36-8.36.36 8.19.37.87.36.12.36.22.36-8.26.37 7.5.36-7.93.36 6.95.36.77.36-8.6.37 8.48.36.31.36.39.36.49.36-.34.37.42.36-8.48.36 6.11.36 1.25.36-8.83.37 8.11.36-7.69.36 7.11.36.9.37.22.36.32.36-7.49.36 6.59.36 1.07.37-8.87.36 7.73.36-7.74.36 7.58.36.53.37-8.5.36 8.09.36.5.36.58.36-.03.37-8.47.36 7.81.36-7.91.36 7.17.36.34.37-8.39.36 8.33.36.72.36.31.37.2.36.21.36.02.36-7.89.36 6.53.37.48.36-8.48.36 7.9.36-7.86.36 7.26.37.54.36.47.36.5.36-7.84.36 6.75.37.58.36-8.6.36 8.07.36-8.97.37 8.18.36.52.36-8.15.36 7.98.36.29.37.61.36.06.36-8.44.36 7.46.36-7.63.37 7.28.36.47.36-8.72.36 8.02.36.4.37.52.36-.36.36-2.09.36.72.36-7.86.37 7.32.36.79.36-8.31.36 8.12.37-7.16.36 7.34.36.65.36.84.36.18.37-7.76.36 6.89.36.62.36-8.88.36 8.43.37-8.02.36 7.3.36-6.55.36 5.56.36.96.37.89h.36l.36.53.36-8.49.37 8.22.36-7.84.36 7.3.36-7.29.36 6.17.37.64.36.64.36.69.36-.07.36.23.37.36.36-8.14.36 7.24.36-7.29.36 6 .37.32.36-7.85.36 7.49.36.67.37.35.36.68.36-8.18.36 7.36.36-6.59.37 5.83.36.34.36-7.71.36 7.14.36-7.01.37 6.39.36.81.36.58.36.35.36-6.97.37 5.34.36.89.36-7.7.36 7.44.36-7 .37 6.83.36.62.36.19.36.61.37.49.36.15.36.08.36-8.36.36 6.9.37-7.05.36 6.29.36.69.36-7.86.36 7.58.37.8.36.31.36-.05.36-8.14.36 7.2.37-6.85.36 5.91.36.96.36-8.17.37 7.61.36-7 .36 6.4.36.94.36.46.37.49.36-7.29.36 5.81.36.61.36-7.88.37 7.08.36-6.76.36 6.62.36.67.36.46.37.69.36.2.36-.31.36.28.36-8.35.37 7.05.36-6.92.36 6.47.36.52.37-8.13.36 7.78.36.54.36-.19.36.8.37-8.6.36 7.71.36-7.2.36 6.39.36.44.37-7.72.36 7.66.36-7.25.36 6.77.36.7.37.08.36.47.36-7.68.36 6.4.37.32.36-7.99.36 7.73.36-7.54.36 6.88.37 1.14.36.49.36.29.36-.07.36.12.37.07.36-8.37.36 7.33.36-7.19.36 6.4.37 1.01.36-8.37.36 7.81.36.58.36.41.37.76.36-8.57.36 7.19.36-6.94.37 6.16.36.64.36-7.69.36 7.56.36-7.26.37 6.81.36.27.36 1.07.36.05.36-7.21.37 6.28.36.49.36-8.14.36 7.25.36-7.41.37 7.14.36.57.36.64.36.54.37-.19.36.38.36.09.36-8.57.36 7.65.37-7.49.36 6.39.36.53.36-8.03.36 7.79.37.42.36.75.36.13.36-8.66.36 7.56.37-7.48.36 6.73.36.59.36-8.14.37 7.98.36-7.47.36 6.64.36.8.36.54.37.59.36-8 .36 6.47.36.71.36-8.04.37 7.68.36-7.61.36 7.01.36.73.36.38.37.26.36.52.36.21.36.23.36-8.52.37 7.55.36-7.61.36 6.96.36.63.37-8.44.36 7.78.36.62.36.11.36.21.37-8.03.36 7.66.36-7.61.36 6.68.36.74.37-8.36.36 7.8.36-7.46.36 6.63.36 1.05.37.36.36.17.36-7.58.36 6.4.37 1.07.36-8.63.36 8.07.36-7.41.36 6.93.37.43.36.65.36.22.36.29.36.45.37-.2.36-8.58.36 7.25.36-7.1.36 6.46.37.51.36-8.48.36 8.22.36.54.36.3.37.27.36-8.17.36 7.63.36-7.59.37 7.05.36.5.36-8.67.36 7.83.36-7.61.37 7.25.36.61.36.43.36.28.36-7.71.37 6.47.36 1.05.36-8.96.36 7.86.36-7.36.37 6.82.36.68.36.6.36.2.37.7.36-.01.36.03.36-8.32.36 7.41.37-7.53.36 6.71.36.63.36-7.77.36 7.56.37.57.36.21.36.27.36-8.32.36 7.48.37-7.84.36 6.78.36.98.36-9.26.36 8.37.37-7.43.36 6.97.36 1.09.36.52.37.22.36-7.57.36 7.1.36.13.36-8.38.37 7.49.36-7.58.36 7.36.36.64.36.47.37.53.36.13.36.38.36-.16.36-8.39.37 7.74.36-7.86.36 6.69.36.74.37-8.86.36 8.42.36.37.36.57.36-.06.37-7.98.36 7.58.36-7.74.36 6.81.36.83.37-8.41.36 7.85.36-7.3.36 6.96.36.58.37.22.36.61.36-8.34.36 6.95.37.75.36-8.34.36 7.8.36-7.66.36 7.45.37.2.36.61.36.38.36.31.36-.18.37-.02.36-8.44.36 7.31.36-7.51.36 6.99.37.57.36-8.38.36 8.23.36.25.36.58.37.25.36-8.38.36 7.86.36-8.13.37 7.59.36.34.36-8.51.36 8.05.36-7.65.37 7.18.36-.41.36 1.2.36.47.36-7.77.37 7.27.36-.04.36-8.12.36 7.78.36-7.75.37 7.16.36.39.36.35.36.37.37.48.36-.02.36.5.36-8.8.36 7.79.37-7.89.36 7.09.36-6.57.36 5.87.36.6.37.92.36.02.36 1.04.36-9.43.36 8.24.37-7.75.36 6.91.36-6.55.36 5.6.36 1.32.37-8.08.36 7.19.36.42.36 1.12.37.14.36-8.21.36 7.06.36-6.62.36 5.87.37.92.36-7.84.36 6.42.36 1.43.36.33.37.25.36.15.36.08.36-6.4.36 5.75.37.91.36-8.63.36 7.1.36-6.6.37 5.76.36.86.36.55.36.5.36-6.46.37 4.83.36-.3.36-9.13.36 6.64.36-6.39.37 6.19.36 1.02.36-7.5.36 8.04.36.56.37 1.42.36.05.36-7.74.36 7.36.36-6.71.37 6.05.36.95.36-7.65.36 7.19.37.72.36.78.36.24.36-.05.36.04.37-7.05.36 6.07.36.72.36-8.21.36 6.99.37-6.96.36 6.57.36.71.36.4.36.38.37-6.48.36 5.52.36.8.36-7.93.37 7.57.36-7.28.36 6.48.36.68.36-7.86.37 7.43.36.52.36.68.36.12.36-8.37.37 7.51.36-6.97.36 5.94.36.71.36-8.82.37 8.04.36.32.36.39.36.51.37.36.36.05.36-7.19.36 5.84.36.86.37-8.64.36 7.83.36-7.06.36 6.42.36.93.37.46.36.6.36-7.53.36 5.87.36.89.37-7.84.36 7.33.36-7.35.36 6.86.36.6.37-7.7.36 7.2.36.93.36.31.37.16.36-8.23.36 7.16.36-6.72.36 5.88.37.67.36-8.04.36 7.13"/><use xlink:href="#62186__a" color="#3B75EA" transform="matrix(3.75 0 0 3.75 354.25 70.06)"/><use xlink:href="#62186__a" color="#3B75EA" transform="matrix(3.75 0 0 3.75 112.25 7.51)"/></g><text stroke-linecap="round" stroke-linejoin="round" color="#000" font-family="KaTeX_Main" font-size="8" transform="translate(132.8 25.11)"><tspan>LBSTTopDown</tspan></text><g fill="none" stroke="currentColor" stroke-linecap="round" stroke-linejoin="round" color="#000"><path stroke="#00C853" stroke-dasharray="1.0,2.0" d="M97.3 22.51h29.9M28 136.2l.36 7.65.36.5.37-.87.36-8.5.36-1.82.36 6.49.36-9.89.37 8.76.36-7.31.36-2.84.36 5.83.37-8.41.36-.86.36 7.3.36-6.88.36 5.42.37-8.16.36-.36.36 7.29.36.81.36-.72.37-7.97.36-2.03.36-2.03.36 7.82.36 2.21.37-10.67.36.22.36-1.3.36-.91.36 6.88.37 1.27.36-8.88.36-1.45.36-.73.37 6.02.36 1.4.36.43.36-8.14.36-2.17.37 7.33.36-10.53.36 8.33.36-8.22.36-2.17.37 6.07.36-8.11.36-1.12.36 8.46.36-9.16.37 8.72.36-.05.36-9.07.36 8.02.37-8.46.36 6.82.36-.28.36.9.36-.45.37 1.17.36-1.16.36-.17.36-9.08.36 8.64.37-8.14.36 7.22.36.76.36-9.33.36 7.92.37.01.36.52.36.2.36-8.17.37 7.64.36-8.7.36 6.83.36 1.73.36-9.5.37 8.48.36-7.74.36 6.26.36 1.57.36.4.37-.57.36-8.12.36 6.64.36.63.36-8.71.37 8.9.36-8.49.36 6.84.36.16.36.05.37.24.36-.18.36.31.36-.15.37-8.79.36 7.08.36-8.57.36 8.1.36-.23.37-8.68.36 8.82.36.09.36-.32.36.89.37-9.56.36 8.35.36-7.6.36 5.93.36 1.95.37-8.83.36 8.19.36-8.26.36 7.01.37 1.39.36-.11.36.46.36-8.72.36 7.39.37.52.36-8.63.36 6.82.36-6.83.36 6.85h.37l.36 1.44.36-1.21.36.23.36.28h.37l.36-9.21.36 7.24.36-7.85.36 7.01.37-7.94.36 7.04.36 1.06.36.05.37.58.36-.29.36-8.75.36 7.93.36-7.8.37 6.73.36 1.27.36-8.78.36 8.71.36-8.75.37 7.88.36.69.36.06.36-.1.36-8.51.37 7.31.36.77.36-7.7.36 7.92.37-9.02.36 7.75.36.67.36.38.36-1.03.37 1.15.36-.45.36-.57.36-8.71.36 9.69.37-9.18.36 7.79.36-6.19.36 5.31.36.76.37.81.36.1.36-.1.36-8.64.36 7.96.37-8.4.36 7.72.36-7.23.36 7.51.37.43.36-9.08.36 7.15.36 1.25.36.15.37.3.36-7.79.36 7.31.36-8.16.36 6.39.37.5.36-7.54.36 6.79.36.52.36-.42.37 1.69.36-.9.36.08.36-7.65.37 5.96.36.65.36-9.35.36 7.25.36-7.21.37 7.18.36.09.36 1.3.36.51.36-7.16.37 6.19.36.05.36-7.89.36 8.71.36-7.65.37 5.53.36.98.36-7.66.36 7.39.37.08.36 1.33.36.13.36-7.8.36 6.86.37-7.76.36 6.23.36 1 .36-7.66.36 7.52.37.13.36 1.22.36.43.36.2.36.61.37-8.4.36 5.37.36-.76.36-6.49.36 6.89.37-8.14.36 6.89.36 1.28.36-.57.37 1.7.36-8.69.36 6.47.36.76.36-9.36.37 7.36.36-7.56.36 6.08.36 1.07.36-7.59.37 7.03.36.83.36-.23.36.59.36-8.8.37 8.66.36-8.82.36 7.13.36.78.37-8.05.36 6.94.36.4.36 1.44.36-1.06.37.92.36 1.06.36-8.05.36 6.18.36.71.37-8.31.36 7.84.36-7.19.36 5.73.36 1.69.37-.26.36-.09.36-7.23.36 6.26.36.81.37-8.63.36 6.55.36-7.37.36 6 .37.89.36-8.02.36 7.37.36.71.36.94.37.08.36-8.66.36 7.38.36-7.49.36 8.14.37-.95.36-8.39.36 8.56.36-.01.36 1.28.37-.33.36.34.36-.25.36-7.85.37 6.82.36.17.36-8.18.36 7.61.36-6.84.37 6.94.36.06.36 1.02.36-.16.36-7.47.37 6.71.36.49.36-8.43.36 8 .36-7.85.37 7.15.36.23.36-7.89.36 8.28.36-.36.37 1.69.36-.61.36-8.67.36 7.46.37-7.16.36 6.09.36 1.38.36-8.01.36 6.87.37.65.36.24.36-.12.36.9.36.3.37-7.42.36 5.12.36 1.27.36-8.29.36 7.4.37-7.71.36 7.15.36.26.36 1.71.37-.21.36-7.29.36 6.28.36.89.36-8.14.37 9.02.36-8.3.36 6.71.36 1.58.36-8.72.37 7.63.36.97.36.65.36.67.36-9.18.37 8.84.36-8.14.36 6.45.36 1.97.37-9.34.36 7.8.36.26.36.32.36 1.01.37-.14.36.26.36-8.27.36 6.85.36 1.29.37-9.01.36 7.78.36-6.54.36 5.49.36 1.36.37-.95.36 2.03.36-8.15.36 6.27.36.24.37-8.59.36 8.26.36-7.52.36 7.34.37 1.64.36-9.34.36 8.08.36.08.36-.08.37 1.22.36-9.34.36 8.19.36-8.51.36 6.3.37 1.53.36-8.11.36 6.99.36.3.36-.19.37 1.69.36-.03.36-.4.36-9.01.37 7.38.36-.22.36-7.42.36 7.88.36-7.81.37 7.22.36.39.36.02.36-1.34.36-4.89.37 5.41.36-.07.36-7.56.36 7.11.36-7.64.37 7.78.36.84.36-9.27.36 8.46.36.88.37.68.36-.19.36-9.58.36 7.03.37-7.39.36 7.93.36-1.63.36-6.55.36 7.15.37-.19.36.85.36.45.36.7.36.07.37-7.94.36 5.59.36 1.21.36-7.85.36 7.73.37-6.95.36 6.13.36 1.79.36-.01.37 1.24.36-8.18.36 6.93.36.87.36-9.35.37 9.03.36-7.61.36 6.94.36-.66.36-7.93.37 9.39.36-1.4.36 1.47.36-.15.36-8.33.37 8.03.36-8.21.36 7.88.36-1.45.37-7.8.36 8 .36.8.36.05.36-.53.37.1.36.08.36-7.77.36 5.89.36.46.37-7.61.36 6.96.36-6.89.36 6.3.36 1.38.37 1 .36-.03.36-8.57.36 6.88.36.58.37-7.18.36 7.46.36-7.26.36 6.38.37-6.19.36 4.72.36 2.07.36.11.36.02.37 1.15.36-9.46.36 7.86.36-7.7.36 7.67.37-6.27.36 6.17.36.47.36.82.36.05.37.26.36.05.36-.31.36-7.61.37 6.71.36.31.36-7.8.36 7.5.36-8.15.37 6.63.36-.17.36.95.36.19.36-6.67.37 6.51.36.77.36-7.72.36 7.05.36-7.56.37 7.65.36-8.41.36 6.53.36 1.8.36 1.3.37-.23.36-.49.36-8.18.36 8.36.37-8.82.36 8.21.36-6.65.36 4.61.36 1.4.37 1.53.36 1.16.36-.83.36.23.36-.45.37-6.73.36 6.21.36-7.59.36 6.43.36.78.37-7.94.36 7.27.36.07.36.48.37.4.36-8.08.36 7.03.36-7.86.36 6.23.37 1.85.36-7.57.36 6.79.36-7.35.36 6.92.37.64.36 1.85.36-.25.36-6.51.36 4.84.37 1.85.36-7.95.36 7.98.36-8.06.36 7.48.37-.27.36 1.59.36-.09.36.62.37-.48.36 1.03.36-7.83.36 7.04.36-7.23.37 5.92.36-.25.36-6.27.36 6.49.36 1.62.37.16.36.01.36-8.38.36 7.49.36-6.64.37 5.73.36.14.36-7.15.36 7.47.37-6.94.36 5.95.36 1.12.36-.16.36.35.37-6.56.36 4.94.36.4.36-7.13.36 7.68.37-5.75.36 5.14.36 1.58.36-.01.36-.96.37.71.36-.63.36.33.36-8.76.37 8.16.36-7.02.36 6.01.36 1.34.36-6.89.37 6.78.36.39.36.95.36-.4.36-8.03.37 7.47.36-7.27.36 6.32.36 1.54.36-8.68.37 6.87.36-6.6.36 7.72.36-.6.36.67.37-.2.36-7.01.36 5.56.36 1.62.37-7.28.36 7.73.36-7.47.36 6.83.36 1.71.37-.24.36 1.11.36-.06.36.17.36.53.37-8.45.36 7.56.36-6.56.36 4.8.36 1.84.37-8.8.36 5.44.36 1.03.36.71.37.15.36-8.11.36 7.44.36-7.11.36 6.17.37.2.36-8.25.36 8.14.36-7.23.36 7.26.37 1.07.36.36.36-.49.36-6.8.36 3.67.37-.62.36-7.86.36 7.99.36-6.57.36 5.72.37 2.25.36 1.03.36 1.38.36-.49.37 1.4.36.28.36-8.82.36 7.46.36-7.58.37 7.46.36.29.36-8.02.36 7.28.36.89.37-.02.36 1 .36-8.6.36 7.19.36-8.14.37 7.62.36.22.36-8.43.36 8.16.37-7.08.36 7.29.36.03.36-.33.36 1.21.37-7.91.36 5.76.36.29.36-7.65.36 8.4.37-7.64.36 7.02.36.82.36.5.36-.9.37.6.36.57.36.93.36-7.88.36 6.51.37-7.56.36 6.26.36.96.36-8.63.37 7.52.36.75.36 1.62.36-.55.36-8.14.37 7.07.36-7.91.36 6.23.36 2.36.36-8.85.37 7.79.36-6.64.36 7.19.36-.27.36.27.37.35.36-7.07.36 6.89.36-.71.37-8.1.36 8.18.36-6.68.36 7.55.36.58.37.4.36.95.36.63.36-.51.36 1.04.37-8.8.36 6.49.36-6.29.36 6.46.36.04.37-7.81.36 7.76.36.62.36-.3.37 1.08.36-8.96.36 7.67.36-8.05.36 7.26.37-.21.36-7.13.36 6.9.36-6.53.36 7.11.37.46.36 1.17.36-.14.36-6.68.36 5.03.37-.24.36-6.58.36 6.58.36-6.65.36 6.81.37-.08.36.99.36.14.36.89.37.17.36.21.36-8.82.36 7.19.36-7.55.37 6.69.36 1.4.36-8.11.36 7.07.36 1.55.37-.25.36.93.36-9.04.36 7.04.36-7.41.37 8.02.36-.5.36-8.04.36 7.25.37-7.46.36 6.94.36 1.18.36-.2.36.83.37-6.83.36 5.53.36 1.8.36-8.47.36 6.29.37-6.54.36 6.57.36 1.42.36.14h.36l.37.64.36.54.36-.52.36-8.18.36 7.86.37-7.96.36 6.93.36.06.36-8.36.37 8.59.36-.27.36.33.36 1.77.36-8.92.37 5.59.36-6.01.36 6.73.36.72.36-8.57.37 6.54.36-7.76.36 7.22.36 1.36.36.11.37.73.36-8.78.36 6.44.36 1.41.37-9.18.36 8.7.36-9.09.36 5.91.36.9.37.53.36.49.36-.08.36-.04.36.49.37-7.65.36 6.07.36-7.82.36 7.81.36-6.85.37 5.84.36.23.36 1.4.36.03.36.84.37-9.04.36 8.17.36-7.92.36 6.17.37 1.09.36-7.8.36 7.05.36-7.4.36 7.84.37.59.36-.26.36.05.36-6.65.36 5.71.37.64.36-8.28.36 7.29.36-6.77.36 6.97.37 2.06.36.17.36-1.14.36.53.37.24.36.68.36-8.39.36 7.16.36-7.93.37 7.94.36-7.75.36 6.47.36.75.36.39.37 1.72.36-.69.36-8.16.36 7.88.36-8.37.37 7.79.36-6.93.36 6.1.36 1.7.37-8.76.36 6.84.36 1.72.36.63.36-.26.37-6.92.36 7.71.36-7.95.36 5.88.36 1.15.37-8.32.36 8.05.36-.16.36.53.36-.25.37.42.36.03.36-6.74.36 5.31.36.65.37-7.45.36 5.64.36-6.76.36 6.96.37.03.36.76.36.74.36-6.1.36 3.77.37 1.87.36-7.65.36 6.42"/><use xlink:href="#62186__c" color="#00C853" transform="matrix(3.75 0 0 3.75 67.83 91.12)"/><use xlink:href="#62186__c" color="#00C853" transform="matrix(3.75 0 0 3.75 112.25 22.51)"/></g><text stroke-linecap="round" stroke-linejoin="round" color="#000" font-family="KaTeX_Main" font-size="8" transform="translate(241.1 10.11)"><tspan>WBSTBottomUp</tspan></text><g fill="none" stroke="currentColor" stroke-linecap="round" stroke-linejoin="round" color="#000"><path stroke="#000" d="M205.6 7.51h29.9M28 118.96l.36 6.63.36-.02.37-9.64.36-1.23.36-1.09.36 7.01.36.39.37-.26.36-9.12.36-1.57.36-1.49.37 6.18.36.08.36-8.62.36-1.74.36-.86.37 6.4.36-8.75.36 8.45.36-7.68.36-1.37.37 6.64.36-8.8.36 8.33.36.35.36-8.31.37 5.91.36-8.98.36-.75.36 7.21.36-7.27.37 5.95.36-9.12.36-.28.36-.85.37 7.68.36.61.36-8.92.36-.7.36-.7.37 6.91.36.69.36.22.36-8.72.36-1.42.37-.93.36 5.96.36.92.36-8.66.36-1.24.37 13.62.36-7.23.36 7 .36-.06.37-8.47.36 7.66.36.42.36.82.36-.25.37-8.34.36 7.28.36-7.7.36 6.38.36.57.37-9.06.36 7.59.36.88.36.18.36.13.37.36.36.34.36-8.11.36 6.95.37.01.36-8.56.36 8.01.36-7.98.36 6.79.37.74.36.44.36.14.36-8.13.36 7.2.37.49.36-8.52.36 7.67.36-7.58.36 6.68.37.92.36-9.06.36 8.25.36.26.36.81.37.34.36-8.95.36 8 .36-7.88.37 7.11.36.34.36-9.14.36 8.56.36.44.37.27.36.13.36-.04.36-.17.36-7.84.37 7.13.36.27.36-9 .36 8.07.36-7.42.37 7.05.36.92.36.59.36-.03.37-8.07.36 7.1.36.48.36-8.6.36 7.67.37-7.63.36 6.92.36.69.36-8.41.36 8.21.37.54.36.52.36.29.36-8.97.36 8.07.37-7.96.36 7.39.36.21.36-8.48.36 7.89.37.39.36.4.36.34.36.53.37.1.36-8.11.36 6.71.36.46.36-8.74.37 7.83.36-7.76.36 7.15.36.66.36.59h.37l.36-7.63.36 7.04.36.41.36-8.63.37 7.84.36-8.11.36 6.85.36 1.01.37-8.58.36 7.98.36.79.36.08.36.42.37-9.01.36 7.95.36-7.8.36 7.49.36.85.37-9.29.36 8.64.36.56.36.38.36.36.37.58.36.07.36-8.84.36 7.04.36.71.37-9.08.36 7.73.36-7.46.36 7.14.37.9.36.16.36-.08.36-8.32.36 7.65.37.3.36-8.53.36 7.71.36-7.63.36 7.79.37.07.36-8.57.36 8.24.36.71.36.02.37.27.36-8.69.36 7.69.36-7.96.37 6.89.36.61.36-8.33.36 8.23.36.64.37.4.36.09.36-.19.36.84.36-7.96.37 7 .36.02.36-8.6.36 8.41.36-7.82.37 6.89.36.62.36.08.36.39.37-7.64.36 7.2.36.07.36-8.46.36 8.28.37-7.98.36 7.41.36-6.6.36 5.97.36.61.37.44.36.47.36.07.36-8.62.36 8.07.37-7.71.36 6.82.36-6.61.36 6.19.36.86.37.36.36.15.36.68.36.21.37-.09.36-8.19.36 7.28.36-6.95.36 5.53.37.53.36-7.58.36 7.13.36.78.36.29.37.23.36-7.83.36 7.17.36-7.05.36 5.84.37 1.17.36-7.95.36 7.34.36-6.86.37 6.47.36.55.36.45.36.54.36-7.17.37 5.56.36.67.36-8.03.36 7.64.36-7.11.37 6.4.36.45.36.63.36.65.36.39.37.4.36.12.36-8.11.36 7.05.36-6.91.37 5.82.36.31.36-7.94.36 7.11.37.31.36-.03.36.53.36-7.9.36 7.24.37-6.93.36 5.97.36.88.36-7.66.36 7.88.37-7.32.36 6.82.36.42.36.58.36.03.37-6.92.36 6.02.36.66.36-8.1.37 7.24.36-7.71.36 7.3.36 1.26.36.04.37.49.36.06.36.43.36.45.36-8.34.37 7.34.36-7.37.36 6.14.36.67.36-8.03.37 7.7.36.08.36.23.36.59.36-8.54.37 7.3.36-6.59.36 6.14.36.64.37-8.06.36 7.73.36-7.19.36 6.45.36.7.37.28.36.52.36-7.03.36 5.8.36.66.37-7.97.36 7.28.36-7.1.36 6.63.36.92.37.7.36.1.36.23.36.45.37.45.36-9.07.36 7.61.36-7.15.36 6.25.37.89.36-8.34.36 7.49.36.83.36-.03.37.59.36-8.3.36 7.31.36-7.27.36 6.28.37.72.36-8.06.36 7.82.36-7.11.37 6.49.36.71.36.91.36.12.36-6.88.37 5.95.36.44.36-8.19.36 7.67.36-6.83.37 6.41.36.31.36.37.36.31.36.25.37.17.36.08.36-8.2.36 7.42.36-7.7.37 6.51.36.71.36-8.15.36 7.58.37.56.36.34.36.53.36-8.43.36 7.14.37-7.17.36 6.87.36.47.36-8.01.36 7.45.37-7.1.36 6.83.36.81.36.27.36.55.37-7.44.36 6.61.36.42.36-8.06.37 7.33.36-7.27.36 6.93.36.51.36.69.37.29.36.46.36.29.36-.45.36-8.58.37 7.56.36-7.59.36 6.72.36.62.36-8.74.37 8.13.36.62.36.4.36.27.36-8.8.37 7.77.36-7.4.36 6.83.36.24.37-8.01.36 8.23.36-7.6.36 7.32.36.2.37.66.36.4.36-8.67.36 7.05.36.97.37-8.43.36 7.78.36-7.36.36 6.49.36.72.37.8.36-.03.36.3.36.58.37.18.36-8.62.36 7.49.36-7.79.36 7.24.37.22.36-8.14.36 7.8.36.64.36.15.37.46.36-8.63.36 7.62.36-7.66.36 6.85.37.36.36-8.28.36 8.28.36-8.35.37 7.66.36.37.36.7.36.53.36-7.89.37 6.79.36.5.36-8.21.36 7.8.36-7.42.37 7.34.36.36.36.55.36.25.36.09.37-.19.36.47.36-8.61.36 7.75.36-7.87.37 7.24.36.41.36-8.62.36 8.27.37.57.36-.37.36.59.36-8.15.36 7.17.37-7.53.36 7.07.36.29.36-8.41.36 8.1.37-7.45.36 6.49.36.52.36 1.04.36-.04.37-7.52.36 6.59.36.87.36-8.65.37 8.11.36-7.4.36 7.11.36.58.36.57.37.47.36.02.36.2.36.36.36-8.72.37 7.45.36-7.4.36 7.13.36.08.36-8.3.37 8.16.36.47.36.13.36.27.36-8.6.37 7.78.36-7.52.36 7.18.36.32.37-8.77.36 7.8.36-7.48.36 7.33.36.55.37.41.36.65.36-7.66.36 6.96.36.77.37-7.92.36 7.3.36-7.53.36 7 .36.39.37.34.36.11.36.2.36.48.37-.29.36-8.88.36 8.4.36-8.2.36 7.18.37.77.36-8.19.36 8.08.36.38.36.13.37.28.36-8.43.36 7.91.36-8.18.36 6.86.37.87.36-8.3.36 8.14.36-7.68.36 6.91.37.89.36.31.36.16.36-7.54.37 6.51.36.27.36-8.05.36 7.91.36-7.29.37 7.15.36.41.36.87.36-.03.36.58.37-.29.36.23.36-8.92.36 8.05.36-7.9.37 7.38.36-6.95.36 6.01.36.7.37.39.36.76.36.32.36-8.53.36 7.77.37-8.14.36 7.06.36-6.55.36 6.02.36.82.37-7.94.36 7.7.36.26.36.59.36.14.37-7.95.36 7.02.36-6.71.36 5.78.37 1.11.36-7.76.36 7.12.36.79.36.65.37.22.36.34.36.29.36-7.13.36 5.26.37.55.36-7.99.36 7.09.36-6.78.36 6 .37.81.36.55.36.29.36-6.78.36 5.32.37.81.36-7.83.36 7.27.36-6.38.37 6.1.36.71.36-8.07.36 7.34.36.31.37.67.36.46.36-8.05.36 6.88.36-6.76.37 6.19.36.65.36-7.61.36 6.85.36 1.08.37.48.36-.17.36.3.36.01.37-6.75.36 5.61.36 1.23.36-8.45.36 7.5.37-7.08.36 6.29.36.81.36.75.36.19.37-7.2.36 6.01.36.36.36-7.61.36 6.84.37-6.87.36 5.91.36 1.35.36-8.16.36 7.65.37.44.36.83.36.32.36-8.12.37 6.88.36-6.85.36 6 .36.52.36-8.09.37 7.65.36.72.36.57.36.43.36.1.37.06.36-6.69.36 5.88.36.56.36-8.36.37 7.84.36-7.15.36 6.39.36.31.37.57.36.45.36-7.09.36 5.8.36.92.37-8.23.36 7.5.36-7.3.36 6.43.36.65.37-8.25.36 7.81.36.59.36.78.36-.34.37-8.06.36 7.32.36-6.71.36 6.35.36.41.37-8.24.36 7.57.36 1.3.36-.11.37.43.36.41.36.35.36-7.52.36 5.36.37 1.14.36-8.52.36 7.67.36-7.33.36 6.74.37.05.36.99.36.27.36-7.29.36 6.43.37.84.36-7.94.36 7.7.36-7.83.37 4.96.36.97.36-7.88.36 7.57.36.67.37.53.36.48.36-8.24.36 7.58.36-6.77.37 6.7.36.51.36-8.11.36 7.57.36.75.37.21.36.56.36.08.36.34.37-7.42.36 5.83.36.57.36-8.54.36 7.36.37-7.15.36 7.2.36.37.36.96.36.27.37-7.65.36 6.67.36.4.36-7.93.36 7.34.37-7.27.36 6.6.36.85.36-8.6.36 5.83.37-.76.36.62.36.71.36-7.5.37 7.63.36-7.48.36 6.96.36 1.04.36-7.78.37 7.68.36.8.36.7.36.63.36.51.37.55.36-7.88.36 6.57.36.09.36-8.12.37 7.4.36-7.44.36 7.06.36.58.37.7.36-.03.36-7.28.36 6.73.36.17.37-7.84.36 7.39.36-7.02.36 6.79.36.06.37-7.87.36 7.73.36.99.36-.18.36.58.37-8.22.36 7.42.36-7.16.36 6.46.36 1.05.37-8.53.36 7.8.36.67.36.75.37.08.36.14.36.17.36-7.62.36 6.64.37.07.36-8.32.36 7.65.36-7.19.36 6.69.37.49.36.46.36-.01.36-6.6.36 6.49.37.49.36-8.34.36 7.3.36-6.91.37 6.33.36.53.36-7.97.36 7.97.36.24.37.85.36.09.36-8.32.36 7.19.36-7.03.37 7.05.36.32.36-10.44.36 7.29.36.6.37.86.36.39.36.63.36.32.36-7 .37 6.38.36.95.36-8.12.36 7.35.37-7.24.36 6.94.36.5.36.56.36.1.37-7.55.36 6.72.36.9.36-8.31.36 7.5.37-7.42.36 7.22.36.2.36-8.12.36 7.57.37 1.5.36-.38.36.42.36-8.81.37 7.88.36-7.71.36 7.24.36.31.36-8.1.37 7.79.36.7.36.2.36.82.36-.24.37.69.36-7.63.36 6.41.36.34.36-9.01.37 7.72.36-7.63.36 6.73.36.9.37.8.36.06.36-7.48.36 6.59.36.66.37-8.55.36 8.01.36-7.55.36 6.94.36.89.37-8.58.36 8.37.36.24.36.64.36.27.37-8.87.36 7.89.36-7.94.36 7.26.36.65.37-8.39.36 8.01.36.73.36.02.37.31.36.04.36.54.36-7.95.36 6.72.37.26.36-7.96.36 7.64"/><use xlink:href="#62186__b" transform="matrix(3.75 0 0 3.75 125.4 78.39)"/><use xlink:href="#62186__b" transform="matrix(3.75 0 0 3.75 220.55 7.51)"/></g><text stroke-linecap="round" stroke-linejoin="round" color="#000" font-family="KaTeX_Main" font-size="8" transform="translate(241.1 25.11)"><tspan>WBSTTopDown</tspan></text><g fill="none" stroke="currentColor" stroke-linecap="round" stroke-linejoin="round" color="#000"><path stroke="#29C3F6" stroke-dasharray="4.0,2.0,1.0,2.0" d="M205.6 22.51h29.9M28 134.66l.36-.89.36 5.12.37.88.36-7.91.36-3.76.36 1.06.36 5 .37-6.36.36 6.46.36-8.28.36-.39.37 5.33.36-7.69.36 7.45.36 1.19.36-8.22.37 5.13.36-10.25.36-.16.36 8.68.36-8.57.37 5.71.36-7.79.36-.24.36-2.04.36 7.78.37-.27.36-8.93.36.62.36-1.16.36 6.15.37 1.59.36-1.08.36-7.89.36-1.39.37-1.62.36 6.68.36-1.54.36-7.25.36-1.15.37-1.31.36 6.2.36-8.65.36 8.31.36-7.56.37-1.73.36 5.92.36-8.26.36 6.88.36.74.37 2.09.36-7.78.36 5.14.36-.57.37-8.68.36 7.35.36-7.84.36 5.84.36.35.37 1.69.36-.56.36-6.87.36 5.34.36.27.37-7.86.36 7 .36-6.86.36 5.75.36.03.37-8.3.36 8.06.36-.21.36-.15.37-.35.36-8.97.36 8.05.36-7.86.36 5.89.37 1.08.36-8.52.36 8.2.36.81.36.47.37.1.36-.24.36.11.36-7.2.36 6.11.37-.58.36-9.8.36 8.37.36-7.13.36 6.8.37.79.36.95.36-.07.36-7.64.37 6.34.36.18.36-8.98.36 8.04.36-7.39.37 7.55.36-.25.36-8.11.36 7.61.36.33.37-.66.36.27.36-8.23.36 7.21.36-6.98.37 6.85.36.24.36-8.03.36 6.75.37.86.36.39.36 1.01.36.36.36.05.37-8.19.36 6.68.36-1.02.36-7.8.36 8.42.37-8.53.36 7.86.36-.31.36.08.36.95.37-8.42.36 6.75.36.91.36-9.47.36 7.79.37-8.44.36 7.33.36 1.9.36-9.48.37 7.44.36 1.44.36.28.36.25.36-8.83.37 7.76.36-6.79.36 6.34.36.61.36-9.45.37 8.66.36-.28.36 1.73.36-.47.36.71.37-.62.36-8.36.36 7.04.36.63.37-8.02.36 6.8.36-7.39.36 7.85.36-.07.37.13.36 1.26.36-9.09.36 7.01.36.49.37-9.13.36 8.88.36-8.41.36 7.45.36 1.5.37-9.88.36 7.84.36.04.36 1.29.36-.11.37-8.43.36 8.01.36-7.23.36 6.77.37 1.25.36-9.58.36 8.07.36-.01.36.56.37.73.36-.13.36-.83.36-7.02.36 6.76.37-.13.36-8.76.36 8.36.36-8.14.36 6.86.37.68.36.09.36-.5.36-7.07.37 6.01.36.46.36-7.79.36 7.6.36-7.57.37 7.39.36-.65.36-7.96.36 8.92.36.09.37-.58.36.35.36-8.08.36 7.55.36-6.98.37 7.27.36-.6.36-8.35.36 8.25.37-.67.36 1.01.36.19.36 1.33.36-1.08.37-7.85.36 6.25.36 1.06.36-8.67.36 7.9.37-8.11.36 7.55.36 1.89.36.02.36-.36.37-7.93.36 6.47.36.41.36-8.21.36 7.69.37-7.15.36 6.56.36.55.36-8.88.37 9.26.36.26.36.02.36.05.36-9.31.37 7.44.36-6.16.36 5.48.36 1.89.36-8.34.37 7.36.36.57.36-.31.36.9.36-.57.37 1.29.36-8.21.36 7.14.36 1.46.37-10.41.36 8.41.36-7.57.36 7.3.36.28.37-.54.36-.48.36-6.67.36 7.22.36.18.37-7.49.36 6.64.36-7.14.36 7.78.36-6.93.37 5.6.36 1.82.36.22.36 1.47.36-1.55.37-9.36.36 8 .36-6.4.36 6.63.37-.24.36-7.93.36 7.5.36 1.95.36-.45.37-.29.36.86.36.71.36-8.97.36 7.39.37.79.36-8.91.36 8.28.36-8.12.36 7.08.37.43.36.61.36.9.36-8.79.37 7.04.36.73.36-8.6.36 8.79.36-8.82.37 7.88.36-7.45.36 6.7.36.87.36.99.37.3.36.71.36-10.36.36 9.22.36-7.5.37 8.31.36-7.67.36 6.21.36.45.36-.38.37 1.25.36.27.36-.8.36.36.37-9.22.36 6.64.36-5.67.36 4.91.36 1.43.37-7.43.36 5.76.36 1.99.36-.06.36.74.37-7.78.36 5.74.36-6.37.36 4.92.36-1 .37-6.71.36 6.8.36-6.33.36 5.55.37 1.64.36.08.36.92.36-7.84.36 7.07.37.1.36-8.24.36 7.19.36-6.29.36 6.02.37.39.36.41.36.47.36.89.36-.22.37-.26.36-8.18.36 7.37.36-6.17.37 5.85.36.66.36-8.8.36 7.26.36 1.35.37.49.36.49.36-9.17.36 7.14.36-5.85.37 5.43.36.43.36-7.63.36 6.86.36-7.08.37 6.41.36.83.36 1.35.36-.33.36-6.42.37 5.73.36-.13.36-7.51.36 7.27.37-7.54.36 7.38.36 1.03.36.24.36-.25.37.67.36-.2.36.57.36-8.49.36 7.11.37-7.26.36 6.72.36.7.36-8.37.36 7.99.37-.26.36.53.36 1.87.36-9.44.37 7.09.36-6.77.36 6.02.36 1.21.36-8.43.37 7.67.36-5.91.36 5.59.36.79.36.16.37.92.36-7.22.36 4.89.36.55.36-7.9.37 9.09.36-7.8.36 5.31.36 1.89.36-.12.37.62.36.1.36.71.36-.46.37-8.34.36 8.57.36-7.93.36 6.15.36.98.37-8.19.36 7.59.36.18.36.21.36 1.62.37-9.62.36 6.96.36-6.32.36 6.05.36.07.37-7.88.36 7.1.36-6.56.36 6.68.37 1.55.36.95.36-.43.36-7.01.36 5.39.37 1.39.36-7.39.36 7 .36-8.18.36 6.38.37.75.36 1.33.36.07.36.04.36.69.37.31.36-9.1.36 8.99.36-8.99.37 7.3.36.65.36-8.91.36 7.96.36 1.06.37.6.36-.55.36-7.82.36 7.01.36-7.01.37 6.27.36.76.36-7.78.36 5.95.36-6.03.37 6.38.36 2.11.36-1.05.36 1.38.36-7.56.37 6.32.36.25.36-8.85.36 8.54.37-6.42.36 5.9.36.7.36.63.36.05.37.23.36.32.36-.43.36-7.79.36 7.31.37-7.49.36 7.12.36.47.36-7.93.36 6.45.37.74.36.62.36 2.6.36-9.55.37 7.16.36-6.04.36 6.04.36 1.18.36-8.69.37 8.12.36-7.04.36 7.5.36-.25.36.98.37-.92.36-6.82.36 6.83.36 1.42.36-8.72.37 7.11.36-6.64.36 6.07.36.64.36.96.37-.53.36.87.36.74.36 1.01.37-9.75.36 9.03.36-7.51.36 7.21.36.64.37-8.92.36 8.38.36-.56.36 1.52.36.02.37-7.99.36 7.63.36-6.61.36 5.77.36 1 .37-8.81.36 7.55.36-7.19.36 7.41.37.18.36.07.36-.26.36-7.53.36 7.08.37 1.24.36-8.1.36 7.02.36-7.28.36 6.41.37.35.36 1.34.36.7.36-.03.36-.15.37.19.36-8.31.36 7.2.36-6.6.36 5.28.37 1.7.36-8.69.36 7.89.36.83.37.17.36.87.36-8.77.36 7.14.36-8.08.37 6.64.36.2.36-6.9.36 7.79.36-7.43.37 6.43.36 1.55.36.4.36.36.36-7.62.37 6.29.36 1.69.36-9.95.36 8.05.37-9.19.36 7.87.36 1.2.36.04.36-.82.37-.23.36.07.36 1.33.36-9 .36 7.18.37-7.59.36 6.76.36.98.36-8.26.36 7.88.37 1.11.36-.9.36.76.36-8.48.37 7.82.36-7.07.36 6.16.36-2.74.36-7.5.37 8.32.36-7.46.36 6.71.36 2.08.36.4.37.67.36-7.61.36 6 .36.6.36-8.69.37 8.64.36-6.74.36 5.78.36 1.26.36-.2.37 1.41.36 1 .36-.21.36-.26.37-7.83.36 7.08.36-8.24.36 7.95.36-1.1.37-7.45.36 8.43.36-.06.36 1.22.36-.23.37-8.93.36 7.93.36-8.45.36 7 .36 1.11.37-7.62.36 7.35.36-8.2.36 8 .37.32.36.89.36 1.58.36-8.43.36 7.26.37-.19.36-8.54.36 8.16.36-7.68.36 7.63.37.09.36 1.39.36-.96.36 1.38.36-1.24.37.02.36-9.05.36 7.88.36-7.08.36 6.42.37-7.8.36 6.85.36.85.36 1.64.37.39.36.58.36-9.23.36 8.14.36-7.56.37 6.28.36-5.52.36 5.38.36.4.36-6.52.37 5.53.36 1.63.36 1.16.36.43.36-8.23.37 5.81.36-5.91.36 5.84.36.64.37-6.88.36 6.51.36-.14.36.88.36.34.37.9.36-.73.36-7.12.36 6.2.36-.55.37-6.92.36 6.3.36-5.49.36 4.82.36.54.37 1.42.36-.75.36-5.5.36 5.43.36.6.37-7.98.36 5.93.36-4.79.36 5.37.37.65.36-7.79.36 9.2.36-.25.36-.39.37.63.36-7.7.36 6.87.36-6.71.36 6.68.37.16.36-8.09.36 7.82.36 1.13.36.31.37-.87.36 1.6.36-1.06.36-6.73.37 5.15.36 1.19.36-7.67.36 6.95.36-7.71.37 7.16.36-.76.36 1.56.36-.43.36-6.45.37 6.07.36.01.36-7.43.36 7.18.36-6.76.37 6.03.36 1 .36-7.61.36 6.14.37 1.92.36.27.36.37.36-7.75.36 7.01.37-6.65.36 6.58.36.09.36-7.5.36 6.58.37 1.06.36 1.5.36-1.37.36 1.24.36.35.37-8.76.36 6.72.36 1.17.36-7.69.36 7.32.37-7.06.36 7.73.36.09.36 1.47.37-.62.36-8.52.36 7.44.36-.03.36-8.81.37 7.57.36-6.65.36 6.48.36 1.16.36-6.95.37 7.73.36.46.36.06.36.55.36-7.87.37 6.56.36-6.78.36 7.35.36-.75.37-7.33.36 6.52.36 2.15.36-.23.36.17.37.72.36-.41.36-5.85.36 4.44.36 1 .37-7.87.36 7.27.36-7.38.36 6.72.36 1.42.37.03.36.07.36-8.15.36 7.18.36.71.37-8.09.36 7.66.36-6.7.36 7.66.37-.58.36-6.08.36 6.97.36.9.36-.1.37.33.36-9.45.36 7.44.36-7.84.36 7.3.37-.37.36-6.8.36 7.06.36.37.36-.79.37 1.98.36-.66.36.61.36-7.12.37 5.11.36.21.36-7.93.36 7.31.36-7.25.37 6.59.36-.01.36.78.36.03.36-5.71.37 5.68.36.23.36-8.21.36 8.12.36-7.07.37 6.96.36-.48.36-8.06.36 8.68.36.55.37.4.36.27.36-7.67.36 7.02.37-7.49.36 7.35.36-.24.36-7.03.36 5.97.37 1.37.36.61.36 1.05.36-.68.36.72.37-7.63.36 5.53.36.8.36-9.18.36 9.04.37-7.31.36 6.69.36-.15.36.79.37.43.36-7.48.36 6.51.36 1.39.36-8.65.37 7.87.36-8.5.36 8.06.36-.07.36-9.06.37 8.33.36 1 .36.69.36.09.36-8.11.37 6.62.36-9.7.36 7.85.36.13.37-6.69.36 7.44.36 1.25.36-.7.36.27.37 1.72.36.25.36-8.54.36 6.61.36 1.62.37-8.99.36 8.32.36-7.33.36 7.1.36.4.37.31.36.52.36-8.05.36 7.3.36-.11.37-8.72.36 7.68.36-7.13.36 7.62.37-.55.36-7.56.36 6.96.36-.34.36.67h.37l.36-8.26.36 7.9"/><use xlink:href="#62186__d" color="#29C3F6" transform="matrix(3.75 0 0 3.75 182.98 75.53)"/><use xlink:href="#62186__d" color="#29C3F6" transform="matrix(3.75 0 0 3.75 220.55 22.51)"/></g><path fill="none" d="M28 45.01V162.5M371.99 45.01H28" color="#000"/></svg>