<svg xmlns="http://www.w3.org/2000/svg" xmlns:xlink="http://www.w3.org/1999/xlink" viewBox="0 0 400 200"><path fill="none" d="M0 0h400v200H0z"/><defs><path id="c9d73__b" stroke="currentColor" stroke-width=".267" d="M-1-1h2v2h-2z"/><path id="c9d73__a" stroke="currentColor" stroke-width=".267" d="m0-1.33-1.33 2h2.66z"/><path id="c9d73__f" stroke="currentColor" stroke-width=".267" d="M0 1.33 1.265.411.782-1.067l-1.564-.009-.483 1.487z"/><use xlink:href="#c9d73__a" id="c9d73__d" fill="currentColor" stroke="none"/><use xlink:href="#c9d73__b" id="c9d73__c" stroke="currentColor" transform="rotate(45)"/><use xlink:href="#c9d73__c" id="c9d73__e" fill="currentColor" stroke="none"/></defs><path fill="none" stroke="#CCC" stroke-linecap="round" stroke-linejoin="round" stroke-width=".1" d="M46.1 162.5V45.01" class="c9d73__gridline" color="#000"/><g fill="none" stroke-linecap="round" stroke-linejoin="round" stroke-width="0" color="#000"><path d="M46.1 162.5V155m0-109.99v7.5"/><text fill="#000" font-family="KaTeX_Main" font-size="8" text-anchor="middle" transform="translate(46.1 172.6)"><tspan> 1</tspan></text></g><path fill="none" stroke="#CCC" stroke-linecap="round" stroke-linejoin="round" stroke-width=".1" d="M82.31 162.5V45.01" class="c9d73__gridline" color="#000"/><g fill="none" stroke-linecap="round" stroke-linejoin="round" stroke-width="0" color="#000"><path d="M82.31 162.5V155m0-109.99v7.5"/><text fill="#000" font-family="KaTeX_Main" font-size="8" text-anchor="middle" transform="translate(82.31 172.6)"><tspan> 2</tspan></text></g><path fill="none" stroke="#CCC" stroke-linecap="round" stroke-linejoin="round" stroke-width=".1" d="M118.52 162.5V45.01" class="c9d73__gridline" color="#000"/><g fill="none" stroke-linecap="round" stroke-linejoin="round" stroke-width="0" color="#000"><path d="M118.52 162.5V155m0-109.99v7.5"/><text fill="#000" font-family="KaTeX_Main" font-size="8" text-anchor="middle" transform="translate(118.52 172.6)"><tspan> 3</tspan></text></g><path fill="none" stroke="#CCC" stroke-linecap="round" stroke-linejoin="round" stroke-width=".1" d="M154.73 162.5V45.01" class="c9d73__gridline" color="#000"/><g fill="none" stroke-linecap="round" stroke-linejoin="round" stroke-width="0" color="#000"><path d="M154.73 162.5V155m0-109.99v7.5"/><text fill="#000" font-family="KaTeX_Main" font-size="8" text-anchor="middle" transform="translate(154.73 172.6)"><tspan> 4</tspan></text></g><path fill="none" stroke="#CCC" stroke-linecap="round" stroke-linejoin="round" stroke-width=".1" d="M190.94 162.5V45.01" class="c9d73__gridline" color="#000"/><g fill="none" stroke-linecap="round" stroke-linejoin="round" stroke-width="0" color="#000"><path d="M190.94 162.5V155m0-109.99v7.5"/><text fill="#000" font-family="KaTeX_Main" font-size="8" text-anchor="middle" transform="translate(190.94 172.6)"><tspan> 5</tspan></text></g><path fill="none" stroke="#CCC" stroke-linecap="round" stroke-linejoin="round" stroke-width=".1" d="M227.15 162.5V45.01" class="c9d73__gridline" color="#000"/><g fill="none" stroke-linecap="round" stroke-linejoin="round" stroke-width="0" color="#000"><path d="M227.15 162.5V155m0-109.99v7.5"/><text fill="#000" font-family="KaTeX_Main" font-size="8" text-anchor="middle" transform="translate(227.15 172.6)"><tspan> 6</tspan></text></g><path fill="none" stroke="#CCC" stroke-linecap="round" stroke-linejoin="round" stroke-width=".1" d="M263.36 162.5V45.01" class="c9d73__gridline" color="#000"/><g fill="none" stroke-linecap="round" stroke-linejoin="round" stroke-width="0" color="#000"><path d="M263.36 162.5V155m0-109.99v7.5"/><text fill="#000" font-family="KaTeX_Main" font-size="8" text-anchor="middle" transform="translate(263.36 172.6)"><tspan> 7</tspan></text></g><path fill="none" stroke="#CCC" stroke-linecap="round" stroke-linejoin="round" stroke-width=".1" d="M299.57 162.5V45.01" class="c9d73__gridline" color="#000"/><g fill="none" stroke-linecap="round" stroke-linejoin="round" stroke-width="0" color="#000"><path d="M299.57 162.5V155m0-109.99v7.5"/><text fill="#000" font-family="KaTeX_Main" font-size="8" text-anchor="middle" transform="translate(299.57 172.6)"><tspan> 8</tspan></text></g><path fill="none" stroke="#CCC" stroke-linecap="round" stroke-linejoin="round" stroke-width=".1" d="M335.78 162.5V45.01" class="c9d73__gridline" color="#000"/><g fill="none" stroke-linecap="round" stroke-linejoin="round" stroke-width="0" color="#000"><path d="M335.78 162.5V155m0-109.99v7.5"/><text fill="#000" font-family="KaTeX_Main" font-size="8" text-anchor="middle" transform="translate(335.78 172.6)"><tspan> 9</tspan></text></g><path fill="none" stroke="#CCC" stroke-linecap="round" stroke-linejoin="round" stroke-width=".1" d="M371.99 162.5V45.01" class="c9d73__gridline" color="#000"/><g fill="none" stroke-linecap="round" stroke-linejoin="round" stroke-width="0" color="#000"><path d="M371.99 162.5V155m0-109.99v7.5"/><text fill="#000" font-family="KaTeX_Main" font-size="8" text-anchor="middle" transform="translate(371.99 172.6)"><tspan> 10</tspan></text></g><g fill="none" stroke-linecap="round" stroke-linejoin="round" stroke-width="0" color="#000"><path d="M371.99 162.5h-7.5"/><text fill="#000" font-family="KaTeX_Main" font-size="8" transform="translate(378.99 165.1)"><tspan>-1</tspan></text></g><g fill="none" stroke-linecap="round" stroke-linejoin="round" stroke-width="0" color="#000"><path d="M371.99 123.34h-7.5"/><text fill="#000" font-family="KaTeX_Main" font-size="8" transform="translate(378.99 125.94)"><tspan>0</tspan></text></g><g fill="none" stroke-linecap="round" stroke-linejoin="round" stroke-width="0" color="#000"><path d="M371.99 84.17h-7.5"/><text fill="#000" font-family="KaTeX_Main" font-size="8" transform="translate(378.99 86.77)"><tspan>1</tspan></text></g><g fill="none" stroke-linecap="round" stroke-linejoin="round" stroke-width="0" color="#000"><path d="M371.99 45.01h-7.5"/><text fill="#000" font-family="KaTeX_Main" font-size="8" transform="translate(378.99 47.61)"><tspan>2</tspan></text></g><path fill="none" d="M28 45.01V162.5M371.99 45.01H28" color="#000"/><text stroke-linecap="round" stroke-linejoin="round" stroke-width="0" color="#000" font-family="KaTeX_Main" font-size="10" text-anchor="middle" transform="rotate(-90 57.63 46.13)"><tspan>log</tspan><tspan dy="3" font-size="8">2</tspan><tspan dy="-3">(</tspan><tspan font-weight="bold">Average Path Length </tspan><tspan> / log</tspan><tspan dy="3" font-size="8">2</tspan><tspan dy="-3">(Size))</tspan></text><text stroke-linecap="round" stroke-linejoin="round" stroke-width="0" color="#000" font-family="KaTeX_Main" font-size="10" text-anchor="middle" transform="translate(199.99 195.75)"><tspan>Operations / 10</tspan><tspan dy="-5" font-size="8">6</tspan></text><text stroke-linecap="round" stroke-linejoin="round" color="#000" font-family="KaTeX_Main" font-size="8" transform="translate(132.8 10.11)"><tspan>Splay</tspan></text><g fill="none" stroke="currentColor" stroke-linecap="round" stroke-linejoin="round" color="#000"><path stroke="#29C3F6" d="M97.3 7.51h29.9M28 88.73l.36.95.36 2.38.37-6.2.36 6.26.36 3.03.36-1.62.36-1.48.37-.42.36-.04.36-3.18.36 7.25.37-5.5.36 2.13.36-3.22.36 3.47.36-4.79.37.4.36 3.02.36 1.76.36.29.36-1.09.37-3.36.36 2.53.36 3.59.36-7.9.36 1.25.37-.58.36 4.92.36-5.88.36 6.67.36-2.46.37-.66.36 1.27.36.36.36.03.37-.01.36-1.63.36 2.61.36-7.06.36 9.02.37-3.68.36.74.36 2.04.36-.09.36-2.24.37-2.01.36 2.3.36-3.59.36 1.9.36 2.59.37-4.98.36-.19.36 6.04.36-3.81.37-.19.36-3.84.36-.97.36 5.22.36-2.6.37 1.29.36 1.89.36-4.45.36-2.61.36 1.99.37-.57.36 4.88.36-3.47.36.34.36.44.37-.11.36 1.22.36-.2.36-5.96.37-1.36.36 1.92.36 2.41.36-.86.36-.01.37-4.3.36 8.81.36 2.57.36 2.07.36-4.37.37-11.3.36 4.17.36 9.54.36-.34.36-4.6.37 4.8.36-2.53.36 2.77.36-7.99.36 3.34.37.09.36-.11.36-5.41.36-1.39.37 4.59.36 7.21.36-7.1.36 6.64.36-6.78.37.79.36 3.76.36-6.43.36 1.08.36 11.09.37-3.03.36-11.98.36-4.92.36-1.78.36 9.68.37 7.96.36-6.19.36 1.55.36 2.01.37-4.03.36 3.08.36 3.38.36-5.98.36 6.03.37-16.69.36 18.96.36-5.92.36-1.01.36 2.47.37.19.36-5.87.36 2.41.36 1.54.36-.44.37.58.36-.26.36 2.81.36-2.31.36.73.37-3.59.36-.7.36-3.09.36 3.93.37 2.2.36-9.93.36 12.34.36-3.41.36-.28.37-6.74.36 5.24.36-1.74.36 4.26.36-5.99.37 5.63.36 3.7.36-2.32.36-4.41.36 4.05.37-7.22.36 6.51.36.5.36 4.38.37-7.33.36 1.1.36-.62.36-1.37.36 4.5.37 2.08.36-6.69.36 7.85.36.83.36-6.88.37 2.61.36-6.14.36 4.34.36 4.2.36-1.01.37-8.97.36 4.47.36 7.4.36-3.91.36-.72.37 1.08.36-1.83.36.59.36-1.11.37.68.36-4.82.36 3.93.36-2.07.36.02.37 10.32.36-4.43.36-5.82.36-1.28.36-2.98.37 7.98.36.93.36 1.84.36-3.34.36-1.06.37 1.5.36 1.13.36 1.66.36.36.37-1.59.36-6.7.36 9.61.36-10.28.36-.77.37 8.28.36-.37.36 3.33.36.74.36-1.62.37-6.1.36 1.87.36-6.39.36 4.46.36 1.54.37-2.78.36 5.43.36 4.6.36-3.83.37-4.99.36 5.11.36-6.52.36 2.2.36 2.9.37 2.66.36-1.35.36-.11.36-6.86.36 3.99.37.62.36 3.55.36-1.01.36-2.54.36 2.85.37-5.36.36 2.86.36-1.69.36 3.21.36-6.95.37 3.91.36 3.95.36-2.3.36-7.68.37-3.91.36 7.3.36 3.38.36 2.72.36-2.35.37-4.41.36 2.95.36.53.36 4.71.36-2.67.37-5.65.36-6.47.36 9.53.36 1.94.36 1.25.37-1.7.36 1.12.36-3.38.36 3.07.37-6.76.36 8.55.36-5.36.36.18.36.46.37 3.2.36 3.47.36-.73.36-4.6.36.09.37 2.83.36-5.24.36 1.03.36 4.21.36-5.1.37 4.12.36-10.31.36 6.84.36.61.36 5.54.37-11.26.36 11.91.36-2.83.36-2.49.37.19.36-2.26.36 3.3.36-.95.36-1.43.37 4 .36-1.93.36 1.29.36 1.31.36-4.28.37 3.35.36-4.01.36 1.8.36 1.03.36 3.68.37-5.37.36-1.37.36 2.03.36-5.65.37 7.86.36 1.7.36-10.13.36 6.73.36-4.83.37-4.88.36 11.12.36 3.54.36-9.57.36-.08.37.87.36-.84.36 2.24.36 2.59.36-.21.37-.27.36 1.19.36-.67.36-5.96.36 10.93.37-8.18.36 3.72.36-2.64.36-.64.37 4.99.36-2.05.36-10.35.36 10.64.36-.58.37-6.45.36 4.09.36 1.49.36 1.44.36-2.28.37 1.63.36-3.76.36 3.82.36-.34.36-.73.37-2.4.36 1.26.36 1.32.36 1.39.37-6.32.36-.36.36-.07.36 9.45.36-3.52.37.27.36-1.82.36.2.36 5.33.36-4.14.37 3.39.36-2.11.36.92.36.08.36-3.32.37 7.35.36-7.98.36.81.36.23.37 1.53.36-3.08.36.64.36-1.82.36 1.55.37 2.17.36 4.87.36-5.46.36-1.15.36 2.56.37-1.07.36-3.94.36 1.83.36 4.43.36-.92.37 2.99.36-7.23.36 6.37.36-4.23.36 3.78.37-4.14.36 4.4.36-.44.36-1.7.37 2.09.36-6.67.36 2.41.36 2 .36 2.42.37-1.45.36-5.28.36 4.48.36-1.89.36-7.47.37 8.45.36-3.61.36-.31.36 5.82.36-4.6.37.36.36 4.42.36-14.36.36 10.96.37-1.52.36 6.5.36-7.03.36 7.8.36-9.89.37 7.11.36-10.74.36 10.77.36 4.42.36-4.53.37-.56.36-.41.36-4.64.36 4.78.36.42.37 3.47.36-1.93.36-2.25.36 4.41.36-3.41.37-1.06.36 2.14.36-1.43.36-1.24.37 1.82.36-2.95.36 1.22.36-4.49.36 10.68.37-6.5.36 5.84.36-6.54.36-1.99.36.49.37 2.29.36-.26.36 3.76.36-3.8.36 3.3.37-5.24.36-.1.36 6.94.36-2.41.37-4.68.36-1.26.36 5.82.36-2.21.36-4.22.37-2.32.36 6.27.36-4.66.36 3.35.36-4.58.37 9.58.36-7.39.36 3.43.36 2.9.36-2.41.37-2.51.36.06.36-3.45.36 9.59.37-2.24.36 1.39.36 1.54.36-2.86.36-.38.37.66.36-2.24.36.28.36-3.71.36 2.7.37.99.36-11.99.36 7.88.36-.1.36-2.29.37 1.91.36 5.47.36-.71.36-9.44.36 6.44.37 6.76.36-3.65.36 2.92.36-5.94.37 2.25.36-.01.36 5.42.36-.54.36-14.78.37 9.58.36-1.37.36 5.13.36-3.46.36 2.49.37-2.98.36-6 .36 6.4.36.08.36 3.82.37-3.85.36-5.39.36 8.34.36-14.43.37 9.9.36 5.86.36-2.36.36-3.58.36 1.34.37 2.86.36-5.63.36-3.02.36 6.08.36-3.91.37 5.01.36-.2.36 3.81.36-8.78.36 1.12.37 5.53.36-6.55.36 7.34.36-3.41.36 3.08.37 2.16.36-3.62.36.86.36.18.37-4.99.36 1.07.36 1.37.36-5.98.36 8.92.37-7.05.36.81.36 3.32.36-11.51.36 15.22.37.31.36-.35.36-4.85.36-1.79.36 5.5.37-7.33.36 3.12.36.72.36 5.65.37-4.06.36 3.1.36-2.62.36-2.9.36 6.6.37-11.86.36 9.6.36-5.4.36 6.43.36-1.27.37-3.87.36 6.55.36-2.15.36-3.41.36-.74.37-1.17.36 2.69.36 2.2.36-3.12.36 4.95.37-6.37.36 1.44.36-1.02.36.72.37-3.48.36 7.98.36-11.58.36 6.58.36.8.37 4.67.36-4.56.36-8.18.36 6.5.36 4.7.37-3.31.36 6.86.36-14.16.36 12.44.36-.77.37.79.36-5.13.36 3.57.36-12.27.37 10.49.36-3.18.36-1.67.36 5.58.36-1.12.37 3.3.36-2.19.36-2.01.36.68.36-.81.37 1.67.36-.86.36-2.56.36 10.89.36-6.57.37-5.12.36 6.35.36-5.56.36-.5.37 9.94.36-5.38.36 1.08.36 2.01.36-11.19.37.27.36 4.05.36 2.61.36 2.53.36-9.19.37 4.47.36-3.95.36 8.51.36-1.39.36 2.2.37.52.36-6.3.36 3.39.36-4.76.36-.01.37 5.46.36-5.5.36 5.15.36-1.8.37 4.77.36-4.83.36.31.36-3.72.36 4.98.37-1.38.36-.03.36 2.69.36 4.36.36-6.48.37.22.36.02.36-1.74.36 1.46.36-8.23.37 9.36.36 3.41.36.09.36-8.68.37-.34.36 3.32h.36l.36-2.3.36-2.85.37 2.68.36 6.06.36-9.33.36 5.12.36 3.45.37-4 .36-7.26.36 4.77.36 3.73.36-1.38.37 4.17.36-3.86.36 6.48.36-6.92.36 9.9.37-11.27.36 4.95.36 1.63.36.11.37-2.35.36-.88.36 2.94.36 2.83.36-2.04.37 3 .36-8.17.36-1.81.36 8.26.36 1.07.37-1.77.36-7.47.36 5.51.36-7.28.36 6.61.37-3.12.36 1.48.36-1.55.36 3.08.37 1.94.36-11.22.36 4.53.36 2.47.36-.56.37 7.87.36-4.18.36-7.79.36 6.24.36.18.37-1.32.36 7.52.36-13.51.36 2.74.36 4.69.37.69.36-.71.36-.3.36 1.25.36-5.17.37 9.04.36-16.51.36 10.86.36-4.11.37 5.68.36-.22.36.68.36 2.03.36-4.96.37 1.06.36.83h.36l.36-1.66.36 1.14.37-12.25.36 11.94.36 4.59.36-3.63.36-4.5.37 2.05.36.46.36 3.5.36 1.45.37.34.36-.44.36-.9.36-.15.36-1.96.37 1.53.36.18.36-.08.36-1.79.36-5.36.37 6.49.36-2.64.36.62.36-1.85.36 5.78.37-8.78.36-2.06.36 8.15.36 4.2.37-5.87.36.25.36.39.36-1.45.36 2.86.37-2.09.36 4.13.36-4.44.36-1.91.36 5.31.37-9.63.36 8.47.36-.6.36-3.02.36 5.68.37-1.21.36-5.04.36 2.08.36-1.64.36 2.39.37.36.36.3.36 4.62.36-7.71.37 6.46.36-2.49.36 2.23.36-5.89.36-5.52.37 10.6.36-2.47.36 2.43.36-2.56.36-4.95.37 7.06.36-.1.36-10.07.36 8.77.36 2.17.37-2.31.36-3.15.36-1.11.36 3.57.37.92.36-4.13.36 4.88.36-1 .36-1.68.37 2.9.36-.24.36-3.7.36-.51.36 5.48.37 1.06.36 1.33.36-4.72.36 3.37.36-.87.37-2.87.36 2.83.36-.91.36-10.26.36 3.61.37 5.32.36 4.68.36.6.36-5.34.37 4.64.36-8.89.36 5.77.36-2.15.36 4.55.37-.73.36-10.96.36 12.22.36-2.86.36-1.89.37 1.86.36-2.6.36 4.6.36-6.4.36-5.35.37 9.77.36.49.36-.89.36.46.37-2.66.36 1.81.36-4.07.36-2.39.36 5.25.37 2.9.36-5.61.36 2.93.36-5.97.36 1.33.37 5.72.36-2.27.36-2.37.36 8.83.36-3.02.37-4.95.36-2.81.36 9.78.36-3.77.36 3.49.37-13.68.36 1.79.36 3.06.36 5.99.37-3.19.36-.95.36 1.97.36 1.48.36-1.32.37 2.73.36-7.61.36 3.76.36.38.36 2.87.37-7.01.36 7.26.36-1.85.36.1.36-2.44.37 2.46.36-8.04.36 5.39.36 1.26.37 2.78.36-2.79.36-1.29.36 3.41.36 1.52.37-6.74.36 5.23.36-5.13.36 5.45.36-1.51.37 4.26.36-2.46.36-1.28.36-5.49.36 6.49.37.43.36 1.69.36 2.27.36-7.11.37-2.72.36-5.16.36 6.55.36 4.79.36-6.43.37 4.14.36-.43.36 1.25.36 1.5.36-4.62.37.79.36-2.17.36 7.84.36.98.36-4.32.37.39.36 1.13.36 4.61.36-9.28.36.52.37 2.37.36-.32.36 5.7.36-6.12.37.83.36-2.06.36-2.33.36 2.91.36 3.15.37-7.28.36-.21.36-3.17"/><use xlink:href="#c9d73__b" color="#29C3F6" transform="matrix(3.75 0 0 3.75 354.25 85.89)"/><use xlink:href="#c9d73__b" color="#29C3F6" transform="matrix(3.75 0 0 3.75 112.25 7.51)"/></g><text stroke-linecap="round" stroke-linejoin="round" stroke-width=".5" color="#000" font-family="KaTeX_Main" font-size="8" transform="translate(132.8 25.11)"><tspan>AVLBottomUp</tspan></text><g fill="none" stroke="currentColor" stroke-linecap="round" stroke-linejoin="round" stroke-width=".5" color="#000"><path stroke="#000" d="M97.3 22.51h29.9M28 128.04l.36-.02.36-.01.37.15.36-.01.36-.02.36-.02.36-.02.37-.03.36-.02.36-.02.36-.02.37-.03.36.1.36-.02.36-.02.36-.03.37-.02.36-.02.36-.03.36-.02.36-.02.37-.03.36-.02.36-.03.36-.02.36-.03.37-.02.36-.03.36-.03.36-.03.36-.02.37-.03.36-.03.36-.03.36-.02.37-.03.36-.03.36-.02.36-.03.36-.03.37.23.36-.01.36-.02.36-.01.36-.01.37-.01.36-.01.36-.02.36-.01.36-.01h6.88l.37.53H65.3l.36.01h3.26l.36-.01h.36l.36.01h.73l.36-.01h1.45l.36.01h1.45l.36-.01h.36l.36.01h9.06l.36-.01.36.01h.36l.37-.01h4.34l.36.01h8.69l.36-.01h1.45l.37.01h3.62l.36-.01h7.24l.36.01h73.87l.36-.01h.73l.36.01h5.79l.36-.01h1.45l.36.01h.37l.36-.01.36.01h1.45l.36-.01.36.01h2.18l.36-.01h1.45l.36.01h5.07l.36-.01h.36l.36.01h32.59l.36.01h.73l.36-.01h17.74l.37.01h.72l.36-.01h7.97l.36.01h6.16l.36-.01h3.26l.36.01.36-.01.36.01h3.26l.36-.01.37.01h2.53l.36-.01h3.99l.36.01h6.52l.36-.01h5.07l.36.01h1.09l.36-.01h7.6l.36.01h14.85l.36-.01h1.09l.36.01.36-.01.36.01.37-.01h.36l.36.01h5.07l.36-.01h1.81l.36.01h5.07l.37-.01h24.98"/><use xlink:href="#c9d73__d" transform="matrix(3.75 0 0 3.75 67.83 128.04)"/><use xlink:href="#c9d73__d" transform="matrix(3.75 0 0 3.75 112.25 22.51)"/></g><text stroke-linecap="round" stroke-linejoin="round" color="#000" font-family="KaTeX_Main" font-size="8" transform="translate(241.1 10.11)"><tspan>LBSTRelaxed</tspan></text><g fill="none" stroke="currentColor" stroke-linecap="round" stroke-linejoin="round" color="#000"><path stroke="#FFAB00" stroke-dasharray="4.0,2.0,1.0,2.0" d="M205.6 7.51h29.9M28 120.84l.36-.15.36-.13.37-.14.36-.13.36-.13.36-.14.36-.12.37-.13.36-.12.36-.12.36-.12.37-.12.36-.11.36-.11.36-.11.36-.12.37-.1.36-.11.36-.1.36-.11.36-.1.37 4.44.36-.07.36 5.12.36-.03.36-.03.37-.03.36-.03.36-.03.36-.04.36-.03.37-.03.36-.03.36-.04.36-.03.37-.03.36-.04.36-.03.36-.04.36-.03.37-.04.36-.03.36-.04.36-.03.36-.04.37-.03.36-.04.36-.03.36-.04.36-.04h1.09l.36-.01h1.09l.36-.01h1.09l.36-.01h1.09l.36-.01h1.08l.37-.01h1.45l.36-.01h.72l.36-.01h1.45l.36-.01h1.09l.36-.01h1.09l.36-.01h.72l.37-.01h1.08l.37-.01h1.08l.36-.01h1.45l.36-.01h1.09l.36-.01h1.45l.36-.01h1.09l.36-.01h1.45l.36-.01h1.45l.36-.01h1.45l.36-.01h1.09l.36-.01h1.09l.36-.01h1.09l.36-.01h1.08l.37-.01h1.08l.36-.01h1.45l.37-.01h1.08l.36-.01h1.45l.36-.01h1.45l.36-.01h1.45l.36-.01h1.82l.36-.01h1.45l.36-.01h1.45l.36-.01h1.45l.36-.01h1.45l.36-.01h1.45l.36-.01h1.09l.36-.01h1.81l.36-.01h2.17l.37-.01h1.81l.36-.01h1.08l.37-.01h1.44l.37-.01h1.81l.36-.01h1.81l.36-.01h1.81l.36-.01h1.45l.37-.01h1.44l.37-.01h2.17l.36-.01h1.45l.36-.01h1.09l.36-.01h1.81l.36-.01h2.9l.36-.01h2.17l.37-.01h2.17l.36-.01h2.53l.37-.01h1.81l.36-.01h1.81l.36-.01h2.17l.37-.01h2.53l.36-.01h2.54l.36-.01h1.45l.36-.01h2.17l.37-.01h2.17l.36-.01h2.53l.37-.01h2.17l.36-.01h3.62l.36-.01h2.54l.36-.01h2.54l.36-.01h3.26l.36-.01h2.17l.36-.01h1.81l.37-.01h2.17l.36-.01h2.9l.36-.01h2.53l.37-.01h2.17l.36-.01h2.17l.37-.01h3.25l.37-.01h2.53l.36-.01h2.18l.36-.01h3.98l.36-.01h1.81l.37-.01h2.17l.36-.01h2.53l.37-.01h2.89l.37-.01h2.17l.36-.01h2.54l.36-.01h2.17l.36-.01h2.9l.36-.01h2.17l.37-.01.36.01.36-.01h3.26l.36-.01h3.26l.36-.01h4.35l.36-.01h2.53l.37-.01h5.06l.37-.01H263l.36-.01h3.98l.37-.01h2.89l.37-.01h3.25l.37-.01h3.62l.36-.01h4.71l.36-.01h4.71l.36-.01h3.62l.36-.01h4.71l.36-.01h4.71l.36-.01.36.01.36-.01h3.63l.36-.01h2.89l.37-.01h5.79l.36-.01h4.35l.36-.01h2.9l.36-.01h4.34l.36-.01h3.63l.36-.01h4.34l.37-.01h5.43l.36-.01.36.01.36-.01h6.52l.36-.01h3.62l.37-.01h6.51l.37-.01h3.25l.37-.01h3.98l.36-.01h1.45"/><use xlink:href="#c9d73__e" color="#FFAB00" transform="matrix(3.75 0 0 3.75 125.4 126.47)"/><use xlink:href="#c9d73__e" color="#FFAB00" transform="matrix(3.75 0 0 3.75 220.55 7.51)"/></g><text stroke-linecap="round" stroke-linejoin="round" color="#000" font-family="KaTeX_Main" font-size="8" transform="translate(241.1 25.11)"><tspan>TreapTopDown</tspan></text><g fill="none" stroke="currentColor" stroke-linecap="round" stroke-linejoin="round" color="#000"><path stroke="#00C853" stroke-dasharray="4.5,2.0,0.5,2.0,0.5,2.0" d="M205.6 22.51h29.9M28 111.94l.36.05.36-.02.37-.07.36.27.36-.02.36-.04.36-.2.37.21.36-.03.36-.01h.36l.37-.21.36-.06.36.03.36-.02.36-.04.37-.39h.36l.36-.04.36.13.36.07.37-.68.36.24.36.13.36-.01.36.87.37.05.36-.09.36-.01.36-.03.36-.07.37-.06.36-.02.36-.02.36-.05.37-.38h.36l.36-.09.36-.02.36-.04.37-.14.36-.02.36-.13.36-.02.36-.06.37-.01.36-.07.36-.04.36.12.36-.04.37-.01.36-.03.36.03.36.09.37.04.36-.32h.36l.36-.01.36-.01.37.66.36-.01.36-.02.36.02.36-.09h.37l.36-.11.36.01.36.01h.73l.36-.03.36.06.36.06.37-.14.36-.01h.36l.36-.01h.36l.37-.05.36.01.36-.05.36-.02.36.01.37.06.36.06h1.08l.37.03.36.02.36.4.36-.05.36.07.37.01.36.15.36.04.36.02.37-.05.36.01h.36l.36-.01.36-.06.37.15.36-.05.36-.02.36-.03.36-.18h.37l.36.05.36.04.36.11.36.04.37.03.36-.11.36-.16.36-.01.37.01.36-.2h.72l.36-.01.37.09.36-.02.36-.07.36-.01h.73l.36-.03.36.55.36.02.36-.14.37.08.36.03h.72l.36.01.37-.01.36-.03.36-.08.36-1.08.37-.15.36.04.36-.06h.36l.36.05.37.07.36-.06.36-.24.36-.02.36-.04.37.19.36-.11.36.03h.36l.36-.01.37-.15.36.01.36.04.36.54.37.03h.36l.36-.01.36-.04h.36l.37.01.36-.39.36.12.36-.02.36.3.37.63.36.07.36-.19.36.05.36-.08.37.05.36-.04.36-.09.36-.05.36.03.37-.01.36-.74h.36l.36-.03.37-.06.36-.02.36.02h.36l.36-.03.37-.02.36.3.36-.03.36-.12.36.94.37.02.36-.05.36.76.36-.07.36.12.37.01h.36l.36.02.36-.03h.37l.36-.18.36-.08.36-.02.36.04.37-.03.36.01.36.06.36-.03.36-.22.37.03.36.02.36.04.36.01.36-.08h.37l.36.01.36-.21.36-.02.37.03.36-.23.36-.05.36-.04.36.07.37-.03.36.02.36.06.36-.03h.36l.37-.16.36-.05.36-.17.36-.01.36.07.37.02.36.01h.36l.36-.21.36.4.37.02.36.12.36.03.36-.05.37-.03.36-.07.36.02.36-.08.36.04.37.09.36-.01.36.13.36-.12.36-.03.37-.02.36.01.36.08.36.01.36.08.37-.09.36.34.36.01.36-.01.37.04.36-.36.36-.02.36.04h.36l.37.06.36-.03.36.93h.36l.36.31.37-.03.36.01.36-.03.36.02h.36l.37-.46.36-.03h.36l.36.03.36.04.37-.05.36-.42.36-.04.36-.01.37.16.36-.1h.36l.36.02.36-.08.37.02.36-.11.36.06.36.01.36.04.37.06.36.04.36.14.36-.01.36.03.37.07.36-.04.36.39.36.02.37.03.36.01.36-.02.36-.04h.36l.37-.01h.72l.36.02.36-.04.37-.01.36.24.36.03.36.41.36-.03.37.05.36.05h.36l.36-.01.36-.19.37-.04.36.02.36.01.36.04.37-.04.36.04.36.01.36-.02.36.02.37-.04.36.01.36.01.36.01.36.02.37.02.36-.17.36.04.36-.03.36.04.37-.05.36.01.36.04.36-.01h.37l.36.04h.36l.36-.06.36-1.52h.37l.36-.05.36.04.36-.02h.36l.37.08.36.02.36-.01.36-.07.36.01.37-.15.36-.01.36.06.36.08.37-.09.36-.02h.36l.36.51.36.01.37.01.36.02.36-.03.36-.12h.36l.37.01.36-.08.36.08.36-.07.36.78.37.04.36-.04.36.03.36-.18.36-.11.37-.03.36.02.36.15.36-.66.37-.09.36-.01.36.01.36.1.36.06.37.02.36-.03.36.03.36.03.36.02.37-.1.36.02.36.1.36-.02.36-.56.37-.06.36-.04.36-.01.36-.01.37.01h.36l.36-.14.36-.01.36.02.37-.01.36.04.36-.15.36-.11h.36l.37.01.36.15.36.06.36-.85.36.03h.37l.36-.03.36-.01.36-.03.36-.2.37.15.36-.03.36-.01.36-.04.37.04.36-.02.36.02.36-.03.36.3.37.06h.36l.36.01.36.64.36-.06.37.4.36-.04.36.02.36.01h.36l.37.03.36-.06.36.4.36-.04.37-.04.36.07.36.02.36.62.36.01.37.01h.36l.36.01.36-.02.36-.07.37.05.36-.01.36.02.36.07.36-.03.37-.03.36-.03.36-.05.36-.02h.37l.36.01.36-.03.36.02.36.02.37.03h.36l.36.01.36.07.36-.01.37.03.36.04.36-.04.36-.2.36-.25.37.22.36-.01.36-.04h.36l.36.01.37-.03h.36l.36.02.36.02.37-.01h.36l.36.01.36-.13.36.02.37.04.36-.01h.36l.36-.25.36.15.37.02.36-.04.36-.12.36-.02.36.08.37-.03.36.06.36.03.36-.1.37.05.36.05h.36l.36-.01.36-.1.37.02.36.04.36.09.36.01.36.23.37-.04.36.1h.36l.36-.06.36-.01.37-.12h.36l.36.04.36-.03.36.02.37-.03.36-.03.36-.01.36-.24.37.06.36-.09.36.04.36-.08.36.01.37.03.36.22.36.01h.36l.36.01.37-.24.36-.82.36.08.36.01.36.37.37-.02h.36l.36-.06h.36l.37.02h.36l.36-.05.36.03.36-.08.37-.02.36.01.36-.29.36-.32.36.37.37.04.36-.01h.36l.36-.01.36.05.37-.02.36-.17.36-.01h.36l.36.04.37.05.36.04.36.01.36-.03.37.03.36.02.36.01.36.02.36.08.37-.04.36.05.36.03.36.06.36.05.37.14.36-.01.36-.01.36-.64.36.01.37.09.36-.01.36.09.36-.04h.37l.36.11.36-.01.36.05.36.01.37.15.36-.04.36.02.36.04.36-.82.37.07.36-.01.36-.06h.36l.36.08.37.01.36-.01.36.29.36.01.37-.04.36-.02.36-.01h.36l.36.03.37-.05.36-.12.36-.03.36-.05.36-.03h.73l.36-.46.36-.02.36.06.37.22.36.2h.36l.36-.02.36-.01.37.05.36-.02.36-.06.36.09.37-.02.36.06.36.24.36.02.36.01.37-.01h.36l.36.01.36.55.36-.02.37-.02.36-.75.36.14.36-.08.36.09.37.19.36.15.36.01.36.16.37-.01.36.01.36.09.36-.05.36-.13.37.05.36.01.36.07h.36l.36.04.37.04h.72l.36.03.36.12.37-.02.36.03.36.02.36.02.36-.03.37-.14.36-.04.36-1.71.36.04.37-.05.36.07.36-.07.36.02.36-.08.37.04h.36l.36.24.36-.03.36-.06.37-.06.36-.21.36-.15.36-.08.36.07.37-.06h.36l.36-.04.36-.02.37.01.36-.07.36.86.36-.01.36.02.37-1.6.36.01.36.03.36-.29h.36l.37-.07.36.19.36 1.03.36.09.36-.02.37-.04h.36l.36.01.36-.03.36.06h.37l.36.06.36-.02.36-.52.37-.01.36.49h.36l.36-.03.36.14.37.01.36.02.36.03.36.03.36.12.37-.05h.36l.36-.01.36.11h.36l.37-.02.36-.05.36-.01.36.01.37-.05.36.11.36-.02.36-.04.36.07.37-.08h.36l.36-.06.36-.09.36-.01.37-.01.36.08.36-.57.36-.02.36-.03.37.04.36.01.36-.01.36.02h.37l.36-.54.36-.05.36.01.36-.03.37.06.36.02.36-.02h.36l.36-.19.37-.01.36.01.36.01.36-.12.36-.02.37.02.36-.12.36.67.36.24.36.03.37-.01.36-.05h.36l.36.21.37.06.36-.02.36-.07.36.12.36-.02.37-.07.36.02.36.02.36.01.36.05.37-.03.36.05.36-.06.36.01.36-.04.37-.04.36.03.36.02.36-.64.37.02.36-.33.36.01.36.04.36-.18h.37l.36-.01h.36l.36.22.36-.01.37-.02.36-.02.36.03.36-.03h.36l.37.05.36.05.36.04.36-.29.36.02.37-.03.36.01.36-.15.36-.71.37-.02.36-.05.36.08h.36l.36-.05.37-.04.36.01.36-.02.36-.07.36-.03.37-.01.36.01.36.04.36.28.36-.01.37.02h.36l.36.01.36-.03.37-.02.36.11.36.08.36.4.36.03.37.04.36-.01.36.04.36.04h1.09l.36.09.36-.01.36.03.37-.03.36-.02.36.03.36-.02.36-.04.37-.02.36-.04.36-.03.36.07h.37l.36.05.36-.03.36.01.36.03.37.23h.36l.36-.05.36.02.36-.01.37.22.36.03.36.64.36.03.36.01.37-.55.36.01.36-.04h.36l.37.05.36-.02.36.62.36-.5.36-.02h.37l.36.04.36-.09.36.03.36.02.37-.01.36.1.36-.03.36 1.5h.36l.37-.01.36-.14.36-.02.36-.01.37-.01.36-.1h.36l.36.06.36-.08.37-.13h.36l.36-.25.36.04.36.36.37.02.36.02.36.01.36-.11.36.31.37.06.36.15.36.03.36-.06.36.05.37.01.36-.1.36-.01.36.07.37-.01.36.02.36-.06.36-.01.36-.1.37.03.36.01.36.02"/><use xlink:href="#c9d73__f" color="#00C853" transform="matrix(3.75 0 0 3.75 182.98 109.95)"/><use xlink:href="#c9d73__f" color="#00C853" transform="matrix(3.75 0 0 3.75 220.55 22.51)"/></g><path fill="none" d="M28 45.01V162.5M371.99 45.01H28" color="#000"/></svg>