<svg xmlns="http://www.w3.org/2000/svg" xmlns:xlink="http://www.w3.org/1999/xlink" viewBox="0 0 400 200"><path fill="none" d="M0 0h400v200H0z"/><defs><path id="c3af7__b" stroke="currentColor" stroke-width=".267" d="M-1-1h2v2h-2z"/><path id="c3af7__a" stroke="currentColor" stroke-width=".267" d="m0-1.33-1.33 2h2.66z"/><path id="c3af7__f" stroke="currentColor" stroke-width=".267" d="M0 1.33 1.265.411.782-1.067l-1.564-.009-.483 1.487z"/><use xlink:href="#c3af7__a" id="c3af7__d" fill="currentColor" stroke="none"/><use xlink:href="#c3af7__b" id="c3af7__c" stroke="currentColor" transform="rotate(45)"/><use xlink:href="#c3af7__c" id="c3af7__e" fill="currentColor" stroke="none"/></defs><path fill="none" stroke="#CCC" stroke-linecap="round" stroke-linejoin="round" stroke-width=".1" d="M46.1 162.5V45.01" class="c3af7__gridline" color="#000"/><g fill="none" stroke-linecap="round" stroke-linejoin="round" stroke-width="0" color="#000"><path d="M46.1 162.5V155m0-109.99v7.5"/><text fill="#000" font-family="KaTeX_Main" font-size="8" text-anchor="middle" transform="translate(46.1 172.6)"><tspan> 1</tspan></text></g><path fill="none" stroke="#CCC" stroke-linecap="round" stroke-linejoin="round" stroke-width=".1" d="M82.31 162.5V45.01" class="c3af7__gridline" color="#000"/><g fill="none" stroke-linecap="round" stroke-linejoin="round" stroke-width="0" color="#000"><path d="M82.31 162.5V155m0-109.99v7.5"/><text fill="#000" font-family="KaTeX_Main" font-size="8" text-anchor="middle" transform="translate(82.31 172.6)"><tspan> 2</tspan></text></g><path fill="none" stroke="#CCC" stroke-linecap="round" stroke-linejoin="round" stroke-width=".1" d="M118.52 162.5V45.01" class="c3af7__gridline" color="#000"/><g fill="none" stroke-linecap="round" stroke-linejoin="round" stroke-width="0" color="#000"><path d="M118.52 162.5V155m0-109.99v7.5"/><text fill="#000" font-family="KaTeX_Main" font-size="8" text-anchor="middle" transform="translate(118.52 172.6)"><tspan> 3</tspan></text></g><path fill="none" stroke="#CCC" stroke-linecap="round" stroke-linejoin="round" stroke-width=".1" d="M154.73 162.5V45.01" class="c3af7__gridline" color="#000"/><g fill="none" stroke-linecap="round" stroke-linejoin="round" stroke-width="0" color="#000"><path d="M154.73 162.5V155m0-109.99v7.5"/><text fill="#000" font-family="KaTeX_Main" font-size="8" text-anchor="middle" transform="translate(154.73 172.6)"><tspan> 4</tspan></text></g><path fill="none" stroke="#CCC" stroke-linecap="round" stroke-linejoin="round" stroke-width=".1" d="M190.94 162.5V45.01" class="c3af7__gridline" color="#000"/><g fill="none" stroke-linecap="round" stroke-linejoin="round" stroke-width="0" color="#000"><path d="M190.94 162.5V155m0-109.99v7.5"/><text fill="#000" font-family="KaTeX_Main" font-size="8" text-anchor="middle" transform="translate(190.94 172.6)"><tspan> 5</tspan></text></g><path fill="none" stroke="#CCC" stroke-linecap="round" stroke-linejoin="round" stroke-width=".1" d="M227.15 162.5V45.01" class="c3af7__gridline" color="#000"/><g fill="none" stroke-linecap="round" stroke-linejoin="round" stroke-width="0" color="#000"><path d="M227.15 162.5V155m0-109.99v7.5"/><text fill="#000" font-family="KaTeX_Main" font-size="8" text-anchor="middle" transform="translate(227.15 172.6)"><tspan> 6</tspan></text></g><path fill="none" stroke="#CCC" stroke-linecap="round" stroke-linejoin="round" stroke-width=".1" d="M263.36 162.5V45.01" class="c3af7__gridline" color="#000"/><g fill="none" stroke-linecap="round" stroke-linejoin="round" stroke-width="0" color="#000"><path d="M263.36 162.5V155m0-109.99v7.5"/><text fill="#000" font-family="KaTeX_Main" font-size="8" text-anchor="middle" transform="translate(263.36 172.6)"><tspan> 7</tspan></text></g><path fill="none" stroke="#CCC" stroke-linecap="round" stroke-linejoin="round" stroke-width=".1" d="M299.57 162.5V45.01" class="c3af7__gridline" color="#000"/><g fill="none" stroke-linecap="round" stroke-linejoin="round" stroke-width="0" color="#000"><path d="M299.57 162.5V155m0-109.99v7.5"/><text fill="#000" font-family="KaTeX_Main" font-size="8" text-anchor="middle" transform="translate(299.57 172.6)"><tspan> 8</tspan></text></g><path fill="none" stroke="#CCC" stroke-linecap="round" stroke-linejoin="round" stroke-width=".1" d="M335.78 162.5V45.01" class="c3af7__gridline" color="#000"/><g fill="none" stroke-linecap="round" stroke-linejoin="round" stroke-width="0" color="#000"><path d="M335.78 162.5V155m0-109.99v7.5"/><text fill="#000" font-family="KaTeX_Main" font-size="8" text-anchor="middle" transform="translate(335.78 172.6)"><tspan> 9</tspan></text></g><path fill="none" stroke="#CCC" stroke-linecap="round" stroke-linejoin="round" stroke-width=".1" d="M371.99 162.5V45.01" class="c3af7__gridline" color="#000"/><g fill="none" stroke-linecap="round" stroke-linejoin="round" stroke-width="0" color="#000"><path d="M371.99 162.5V155m0-109.99v7.5"/><text fill="#000" font-family="KaTeX_Main" font-size="8" text-anchor="middle" transform="translate(371.99 172.6)"><tspan> 10</tspan></text></g><g fill="none" stroke-linecap="round" stroke-linejoin="round" stroke-width="0" color="#000"><path d="M371.99 162.5h-7.5"/><text fill="#000" font-family="KaTeX_Main" font-size="8" transform="translate(378.99 165.1)"><tspan>2.00</tspan></text></g><g fill="none" stroke-linecap="round" stroke-linejoin="round" stroke-width="0" color="#000"><path d="M371.99 151.82h-7.5"/><text fill="#000" font-family="KaTeX_Main" font-size="8" transform="translate(378.99 154.42)"><tspan>2.50</tspan></text></g><g fill="none" stroke-linecap="round" stroke-linejoin="round" stroke-width="0" color="#000"><path d="M371.99 141.14h-7.5"/><text fill="#000" font-family="KaTeX_Main" font-size="8" transform="translate(378.99 143.74)"><tspan>3.00</tspan></text></g><g fill="none" stroke-linecap="round" stroke-linejoin="round" stroke-width="0" color="#000"><path d="M371.99 130.46h-7.5"/><text fill="#000" font-family="KaTeX_Main" font-size="8" transform="translate(378.99 133.06)"><tspan>3.50</tspan></text></g><g fill="none" stroke-linecap="round" stroke-linejoin="round" stroke-width="0" color="#000"><path d="M371.99 119.78h-7.5"/><text fill="#000" font-family="KaTeX_Main" font-size="8" transform="translate(378.99 122.38)"><tspan>4.00</tspan></text></g><g fill="none" stroke-linecap="round" stroke-linejoin="round" stroke-width="0" color="#000"><path d="M371.99 109.1h-7.5"/><text fill="#000" font-family="KaTeX_Main" font-size="8" transform="translate(378.99 111.7)"><tspan>4.50</tspan></text></g><g fill="none" stroke-linecap="round" stroke-linejoin="round" stroke-width="0" color="#000"><path d="M371.99 98.41h-7.5"/><text fill="#000" font-family="KaTeX_Main" font-size="8" transform="translate(378.99 101.01)"><tspan>5.00</tspan></text></g><g fill="none" stroke-linecap="round" stroke-linejoin="round" stroke-width="0" color="#000"><path d="M371.99 87.73h-7.5"/><text fill="#000" font-family="KaTeX_Main" font-size="8" transform="translate(378.99 90.33)"><tspan>5.50</tspan></text></g><g fill="none" stroke-linecap="round" stroke-linejoin="round" stroke-width="0" color="#000"><path d="M371.99 77.05h-7.5"/><text fill="#000" font-family="KaTeX_Main" font-size="8" transform="translate(378.99 79.65)"><tspan>6.00</tspan></text></g><g fill="none" stroke-linecap="round" stroke-linejoin="round" stroke-width="0" color="#000"><path d="M371.99 66.37h-7.5"/><text fill="#000" font-family="KaTeX_Main" font-size="8" transform="translate(378.99 68.97)"><tspan>6.50</tspan></text></g><g fill="none" stroke-linecap="round" stroke-linejoin="round" stroke-width="0" color="#000"><path d="M371.99 55.69h-7.5"/><text fill="#000" font-family="KaTeX_Main" font-size="8" transform="translate(378.99 58.29)"><tspan>7.00</tspan></text></g><g fill="none" stroke-linecap="round" stroke-linejoin="round" stroke-width="0" color="#000"><path d="M371.99 45.01h-7.5"/><text fill="#000" font-family="KaTeX_Main" font-size="8" transform="translate(378.99 47.61)"><tspan>7.50</tspan></text></g><path fill="none" d="M28 45.01V162.5M371.99 45.01H28" color="#000"/><text stroke-linecap="round" stroke-linejoin="round" stroke-width="0" color="#000" font-family="KaTeX_Main" font-size="10" text-anchor="middle" transform="rotate(-90 57.63 46.13)"><tspan font-weight="bold">Duration </tspan><tspan> in milliseconds</tspan></text><text stroke-linecap="round" stroke-linejoin="round" stroke-width="0" color="#000" font-family="KaTeX_Main" font-size="10" text-anchor="middle" transform="translate(199.99 195.75)"><tspan>Operations / 10</tspan><tspan dy="-5" font-size="8">6</tspan></text><text stroke-linecap="round" stroke-linejoin="round" color="#000" font-family="KaTeX_Main" font-size="8" transform="translate(132.8 10.11)"><tspan>Splay</tspan></text><g fill="none" stroke="currentColor" stroke-linecap="round" stroke-linejoin="round" color="#000"><path stroke="#29C3F6" d="M97.3 7.51h29.9M28 150.02l.36-4.56.36-.18.37 3.49.36-4.28.36-.19.36 3.77.36-4.31.37 3.76.36-4.43.36-.24.36 3.91.37-.29.36-.12.36-4.56.36-.37.36-.31.37 3.99.36-.19.36-4.48.36-.2.36-.42.37-.18.36 3.69.36.08.36-4.55.36-.25.37-.24.36 3.87.36-.01.36-.29.36-4.37.37-.42.36 3.85.36-4.4.36 4.17.37-4.4.36-.31.36 3.72.36-4.41.36-.28.37 4.19.36-4.13.36 3.58.36-4.36.36-.36.37 4.35.36.03.36-.32.36-4.72.36-.11.37-43.64.36 9.53.36 8.55.36 2.39.37 1.29.36.77.36-4.33.36 4.56.36-4.37.37 3.83.36.35.36-4.79.36 4.42.36-4.6.37 3.92.36.12.36.41.36.2.36-4.45.37 3.37.36.19.36-4.71.36 4.19.37-4.12.36 3.69.36.33.36.17.36.14.37.02.36.34.36.07.36-5.04.36 4.58.37-4.43.36 3.84.36.1.36-4.54.36 4.4.37.6.36-.09.36.11.36-4.88.36 4.4.37-4.41.36 3.91.36.53.36-4.58.37 4.35.36-4.18.36 3.82.36.52.36.2.37.64.36-4.97.36 4.33.36-.14.36-4.64.37 4.56.36-4.26.36 4.21.36.41.36.44.37-.05.36.24.36-.11.36.19.37-5.08.36 4.49.36-4.29.36 3.99.36-.13.37-4.6.36 4.3.36.75.36-.35.36.19.37-4.77.36 4.24.36-4.51.36 4.03.36.41.37-4.94.36 4.7.36-4.25.36 3.94.36.33.37.26.36.09.36-4.8.36 4.1.37.26.36-4.89.36 4.48.36-4.34.36 4.02.37.37.36.18.36.24.36.18.36-.2.37-.05.36-4.61.36 4.2.36-4.42.36 4.34.37-.09.36-4.62.36 4.46.36.2.37.24.36-.1.36-4.74.36 4.12.36-4.15.37 4.06.36.23.36-4.66.36 4.4.36-4.31.37 4.47.36.03.36.33.36.24.36-4.69.37 4.15.36.36.36-4.8.36 4.36.36-4.29.37 3.78.36.49.36-.09.36.26.37.43.36-.05.36.27.36-5.19.36 4.21.37-4.28.36 4.02.36.46.36-4.91.36 4.84.37.29.36-.23.36.22.36-4.78.36 4.62.37-4.62.36 4.24.36.31.36-4.8.37 4.08.36-3.89.36 4.21.36.46.36-.31.37.42.36-4.45.36 3.87.36.01.36-4.58.37 4.37.36-4.09.36 4.15.36.1.36.42.37.16.36.12.36.11.36-.04.37-4.93.36 4.36.36-4.93.36 4.3.36.43.37-4.75.36 4.43.36.41.36.09.36.09.37-4.89.36 4.46.36-4.38.36 4.08.36.53.37-4.73.36 4.46.36-4.5.36 4 .36.61.37.27.36.13.36-4.61.36 3.9.37.43.36-4.98.36 4.76.36-4.66.36 4.14.37.75.36.1.36-.06.36.19.36-.2.37.42.36-5.16.36 4.39.36-4.14.36 4.17.37.26.36-5.07.36 4.54.36.34.37.3.36.17.36-5.29.36 5 .36-4.72.37 4.3.36.02.36-4.71.36 4.55.36-4.54.37 4.69.36.23.36.26.36-.04.36-4.48.37 4.12.36.17.36-4.96.36 4.58.36-4.38.37 4.31.36.58.36-.25.36.24.37-.16.36.68.36-.18.36-5.2.36 4.48.37-4.59.36 4.33.36-4.14.36 3.33.36.72.37.35.36.43.36.01.36-4.91.36 4.44.37-4.56.36 4.13.36-3.65.36 3.44.37.44.36-4.14.36 4.17.36.36.36.13.37.08.36-4.61.36 4.15.36-3.59.36 2.26.37 1.04.36-4.54.36 4.48.36.16.36.13.37.3.36.02.36.25.36-4.21.36 3.46.37.22.36-4.49.36 4.08.36-3.53.37 3.24.36.56.36.34.36.3.36-4.11.37 2.68.36.77.36-4.61.36 4.08.36-3.36.37 3.13.36.63.36-4.45.36 4.12.36.52.37-.04.36.26.36-4.51.36 4.18.37-4.13.36 3.58.36.41.36-4.35.36 4.13.37.49.36-.08.36.49.36.08.36-.27.37-4.03.36 3.39.36.46.36-4.51.36 4.18.37-3.91.36 3.8.36.05.36.69.37.13.36-4.15.36 3.52.36.63.36-4.74.37 4.09.36-3.73.36 3.73.36.37.36-4.48.37 4.29.36-.07.36.57.36.09.36-4.57.37 3.98.36-3.93.36 3.94.36.4.36-4.51.37 4.08.36.03.36.52.36.04.37-.1.36.06.36-4.44.36 3.87.36.19.37-4.29.36 4.49.36-4.3.36 3.83.36.11.37.24.36.39.36-4.22.36 3.16.36.84.37-4.72.36 4.4.36-4.01.36 3.51.37.46.36-4.7.36 4.6.36.43.36.15.37.01.36-4.74.36 4.42.36-3.94.36 3.4.37.32.36-4.33.36 4.18.36.44.36.12.37-.13.36.54.36.03.36-4.6.36 4.04.37.15.36-4.68.36 4.54.36-4.38.37 4.04.36.21.36.1.36.19.36-3.9.37 3.44.36.75.36-5.05.36 4.28.36-4.08.37 3.88.36.34.36-4.6.36 4.21.36.38.37.36.36.29.36-4.9.36 4.61.37-4.42.36 3.79.36-.36.36-4.34.36 4.72.37.14.36.08.36.33.36.42.36-.26.37-4.27.36 3.89.36.09.36-5.22.36 4.62.37-3.9.36 3.81.36.63.36.1.37-.88.36-4.12.36 3.97.36.49.36-4.65.37 4.49.36-3.92.36 4.21.36.09.36-4.74.37 4.42.36.21.36.26.36-.02.36-4.78.37 4.55.36-4.14.36 3.95.36.35.36-4.47.37 4.51.36-.02.36-.02.36.23.37.25.36-.01.36-4.24.36 3.75.36.26.37-4.66.36 4.4.36-4.17.36 3.97.36.57.37.16.36.15.36-4.33.36 3.73.36.21.37-4.49.36 4.45.36-4 .36 3.62.37.5.36-5.21.36 4.99.36.18.36.1.37.4.36-5 .36 4.4.36-4.31.36 3.91.37.24.36-4.78.36 4.55.36.22.36.18.37.13.36.23.36-.02.36-4.41.36 3.47.37.72.36-4.98.36 4.3.36-4.07.37 4.27.36.1.36.32.36.23.36-4.52.37 3.61.36.36.36-4.62.36 4.62.36-4.43.37 4.2.36.35.36-5.15.36 4.96.36.14.37.06.36.14.36-4.68.36 4.16.37-4.25.36 4.24.36.42.36-4.81.36 4.29.37.32.36.4.36-.23.36-.16.36-.02.37-4.41.36 3.73.36.32.36-5.09.36 4.48.37-4 .36 3.69.36.32.36.7.36-.05.37-4.51.36 4.08.36.21.36-5 .37 4.74.36-4.38.36 4.16.36.44.36-5.07.37 5.03.36.17.36.32.36.03.36-4.76.37 4.11.36-4.06.36 3.95.36.36.36-4.69.37 4.32.36.61.36.17.36-.27.37.54.36-.04.36-4.75.36 4.05.36-.09.37-4.66.36 4.46.36-4.4.36 4.48.36.27.37.35.36.08.36-4.66.36 4.02.36-.15.37-4.59.36 4.85.36-4.5.36 3.95.37.2.36-4.48.36 4.52.36.32.36-.86.37.36.36-4.86.36 4.76.36-4.14.36 4.02.37.16.36-4.34.36 4.32.36.38.36.33.37-.21.36.47.36.14.36-4.55.36 3.88.37.26.36-5.03.36 4.67.36-4.51.37 4.5.36.23.36.34.36.13.36-4.53.37 3.92.36.09.36-4.36.36 4.43.36-4.21.37 4.08.36-3.79.36 3.2.36.72.36.16.37-.04.36.21.36-4.77.36 4.55.37-4.53.36 4.1.36-3.48.36 2.89.36.84.37.43.36-.15.36.07.36.18.36.2.37-4.8.36 4.05.36-3.51.36 2.63.36.89.37-4.56.36 4.16.36.52.36.13.36-.1.37-4.29.36 4.1.36-3.42.36 2.8.37.74.36-4.36.36 4.04.36-3.82.36 3.7.37.27.36.32.36.11.36-3.52.36 2.89.37.54.36-4.36.36 4 .36-3.99.36 3.76.37.35.36.74.36.36.36-.26.37.17.36.02.36-4.3.36 3.87.36-3.93.37 3.24.36.54.36-4.5.36 4.27.36.42.37.28.36.15.36-4.65.36 4.05.36-4.1.37 3.51.36.65.36-4.46.36 4.16.36-3.88.37 3.6.36.64.36.06.36-.29.37-3.29.36 2.98.36.09.36-4.11.36 4.42.37-4.15.36 3.51.36.48.36.64.36-.11.37-.11.36-.02.36.2.36-4.63.36 4.1.37-3.83.36 3.11.36.91.36-4.91.37 4.74.36.53.36-.07.36-.14.36-4.44.37 3.98.36-4.07.36 3.68.36.31.36-4.24.37 3.94.36-3.57.36 3.99.36.05.36.29.37.18.36-4.63.36 3.8.36.6.37-4.91.36 4.5.36-4.03.36 3.68.36.31.37.62.36.27.36.07.36-.04.36-.12.37-4.78.36 4.19.36-4.2.36 3.82.36.22.37-4.52.36 4.35.36.18.36.28.36.17.37-4.65.36 4.6.36-4.17.36 3.36.37.79.36-4.68.36 4.26.36-4.15.36 3.94.37.17.36.5.36.08.36-4.2.36 3.65.37.34.36-4.63.36 4.58.36-4.35.36 3.75.37.55.36.26.36.26.36-.09.37.26.36-.01.36-4.49.36 4.02.36-4.14.37 3.84.36.3.36-4.53.36 3.99.36.43.37.18.36.01.36-4.42.36 4.18.36-4.19.37 4.21.36.01.36-4.52.36 3.99.36-3.8.37 3.75.36.56.36.35.36-.09.37-4.2.36 3.86.36.27.36-4.81.36 4.74.37-4.42.36 4.06.36.39.36.02.36.23.37.03.36.13.36-.12.36-4.67.36 4.08.37-4.31.36 4.05.36.44.36-4.61.37 4.08.36.68.36.15.36-.08.36-4.68.37 4.48.36-4.19.36 3.71.36.29.36-4.7.37 4.41.36-3.77.36 3.72.36.31.36.27.37.05.36-4.29.36 3.96.36.39.36-4.48.37 4.16.36-3.89.36 3.61.36.51.37-.02.36.58.36-.33.36.03.36.17.37-4.84.36 4.2.36-4.34.36 4 .36.53.37-4.37.36 3.6.36.65.36.36.36-.51.37-4.7.36 4.29.36-4.27.36 3.73.37.65.36-4.76.36 4.45.36-4.05.36 3.97.37.41.36.25.36.17.36-4.28.36 3.97.37.04.36-4.48.36 4.43.36-4.36.36 3.96.37.18.36.16.36.59.36-.23.37.22.36-.2.36-4.67.36 3.85.36-4.12.37 4.07.36.07.36-4.61.36 4.47.36.36.37.37.36.45.36-4.74.36 4.36.36-4.47.37 3.66.36.69.36-4.81.36 4.3.36-4.19.37 4.22.36.28.36.16.36.29.37-4.75.36 3.91.36.53.36-5.11.36 4.74.37-4.26.36 4.06.36.27"/><use xlink:href="#c3af7__b" color="#29C3F6" transform="matrix(3.75 0 0 3.75 354.25 101.94)"/><use xlink:href="#c3af7__b" color="#29C3F6" transform="matrix(3.75 0 0 3.75 112.25 7.51)"/></g><text stroke-linecap="round" stroke-linejoin="round" stroke-width=".5" color="#000" font-family="KaTeX_Main" font-size="8" transform="translate(132.8 25.11)"><tspan>AVLBottomUp</tspan></text><g fill="none" stroke="currentColor" stroke-linecap="round" stroke-linejoin="round" stroke-width=".5" color="#000"><path stroke="#000" d="M97.3 22.51h29.9M28 138.37l.36-.33.36 3.54.37-4.17.36-.14.36 3.69.36-4.14.36 3.21.37-3.98.36-.23.36 3.63.36-.04.37-.27.36-4.24.36-.25.36-.5.36 3.78.37-.06.36-4.35.36-.14.36-.3.36-.1.37 3.3.36.13.36-4.21.36-.2.36-.25.37 3.42.36.24.36-.08.36-4.31.36-.14.37 3.32.36-4.17.36 4.13.36-4.23.37-.29.36 3.72.36-4.38.36-.26.36 3.95.37-3.85.36 3.33.36-4.21.36-.42.36 4.04.37.21.36-.14.36-4.55.36-.5.36-.23.37-32.91.36 11.46.36 2.68.36 1.9.37-4.04.36 4.49.36-4.12.36 3.69.36.4.37-4.48.36 4.12.36-3.66.36 3.14.36.42.37.1.36-.24.36-3.72.36 3.24.36.6.37-4.33.36 4.19.36-3.5.36 3.91.37.7.36.36.36-.37.36-.03.36.32.37-.2.36-4.78.36 4.26.36-4.03.36 3.5.37.58.36-4.48.36 4.62.36.24.36.35.37-.07.36-4.59.36 3.99.36-3.84.36 3.4.37.31.36-4.67.36 4.15.36-3.93.37 3.83.36.42.36-.02.36.56.36-4.02.37 3.31.36.14.36-4.06.36 3.8.36-4.43.37 3.92.36.45.36.22.36-.56.36.56.37.25.36.01.36-4.3.36 4.08.37-4.37.36 3.99.36.66.36-5.08.36 3.07.37.77.36.21.36.32.36-4.81.36 4.46.37-3.76.36 3.65.36.48.36-4.29.36 4.12.37-3.99.36 3.78.36.25.36.25.36.2.37-4.09.36 3.26.36.08.36-5.15.37 4.37.36-3.6.36 3.53.36.4.36.45.37-.12.36.24.36.12.36.4.36-4.92.37 4.07.36-4.26.36 3.44.36.17.36-4.14.37 4.32.36.2.36.3.36.02.37-4.51.36 3.43.36-3.96.36 3.65.36.7.37-4.04.36 4.17.36-4.17.36 3.99.36.56.37.24.36.06.36-4.27.36 3.88.36.19.37-4.52.36 4.24.36-3.93.36 3.71.36.32.37.17.36.21.36-.03.36-.02.37.24.36-4.93.36 4.19.36-4.31.36 3.36.37.56.36-4.42.36 4.41.36.31.36.13.37.21.36-4.62.36 3.6.36-4.26.36 3.44.37.28.36-4.11.36 4.56.36-3.92.37 3.78.36.49.36.33.36.25.36-4.4.37 3.69.36.49.36-4.69.36 4.11.36-4.01.37 3.55.36.57.36.22.36.04.36.13.37.05.36.1.36-4.85.36 4 .37-4.05.36 3.79.36.08.36-4.53.36 4.39.37.61.36.06.36.18.36-4.69.36 4.32.37-4.3.36 4.19.36.23.36-4.64.36 4.18.37-4.08.36 3.21.36.24.36.03.36-.08.37-3.89.36 3.85.36.28.36-4.48.37 4.66.36-3.96.36 3.98.36.01.36.25.37-.47.36-.15.36.26.36.15.36-4.82.37 4.51.36-4.08.36 4.1.36-3.37.36 3.18.37.41.36.32.36.09.36.16.37-4.47.36 4.15.36-4.24.36 3.72.36-4.18.37 3.18.36.74.36-4.01.36 4 .36.65.37.22.36.34.36-4.39.36 3.56.36-3.59.37 3.29.36.74.36-4.25.36 2.98.36.78.37-.14.36.26.36.18.36.31.37-3.98.36 2.77.36.25.36-4.09.36 4.1.37-3.47.36 3.69.36.6.36-.14.36.21.37-3.92.36 2.73.36.39.36-4.13.36 3.99.37-3.46.36 3.36.36.57.36-4.08.37 3.79.36.6.36.17h.36l.36-4.12.37 3.48.36-3.52.36 2.86.36.61.36-4.48.37 4 .36.33.36.76.36-.21.36.24.37.06.36-3.92.36 2.71.36.35.36-4.83.37 3.99.36-3.71.36 3.5.36.2.37.88.36.41.36-4.17.36 3.45.36.33.37-4.11.36 4.29.36-3.78.36 3.44.36.71.37-4.24.36 3.71.36.39.36.05.36.38.37-4.46.36 3.85.36-3.66.36 3.25.37.52.36-4.25.36 3.87.36.26.36.42.37.2.36-.14.36.19.36-4.01.36 3.07.37.4.36-4.24.36 3.8.36-4.37.36 4.19.37-.13.36.08.36-.82.36-3.58.37 3.46.36.52.36-3.98.36 3.99.36-3.53.37 3.5.36.69.36-4.28.36 4.08.36.16.37-.68.36.02.36-4.38.36 3.89.36-3.16.37 3.21.36.72.36-4.05.36 4.36.36.32.37.38.36-.04.36.17.36.22.37-4.13.36 3.2.36.14.36-5.23.36 3.84.37-3.5.36 3.55.36.66.36.18.36.48.37-4.22.36 3.44.36.29.36-4.19.36 4.2.37-4.09.36 3.71.36-.44.36-4.3.37 4.29.36.58.36.08.36.55.36-4.44.37 3.97.36-4.47.36 3.64.36.68.36-4.34.37 4.31.36.61.36.17.36.09.36.08.37.16.36-4.26.36 3.5.36.29.36-4.24.37 3.74.36-3.85.36 3.59.36.29.37.57.36.32.36-4.23.36 3.29.36.42.37-4.42.36 4.21.36-4.1.36 3.04.36.84.37-4.47.36 4.39.36.02.36.38.36.01.37-4.56.36 3.73.36-3.84.36 2.95.37.41.36-3.98.36 4.19.36.64.36.49.37.29.36-.98.36.6.36-3.89.36 3.2.37.3.36-4.06.36 4.1.36-4.24.36 4.28.37.36.36.07.36.2.36-4.15.37 3.47.36.5.36-4.4.36 4.28.36-4.09.37 3.43.36.36.36-4.29.36 4.25.36.1.37.6.36-.2.36-4.54.36 3.88.36-3.97.37 3.81.36.5.36-4.32.36 3.83.36-.28.37.11.36-.01.36.09.36.45.37-4.07.36 3.9.36.27.36-4.39.36 4.59.37-4.17.36 3.66.36.17.36-.56.36.05.37-4.02.36 3.68.36.7.36-4.37.36 4.29.37-3.91.36 3.99.36.7.36-4.88.37 4.15.36.02.36.56.36.17.36-4.81.37 4.84.36-4.46.36 3.2.36.26.36-4.28.37 4.31.36.42.36.21.36.03.36.44.37.2.36-4.28.36 3.4.36.41.36-4.65.37 4.02.36-4.51.36 4.05.36.27.37.35.36.19.36-3.99.36 3.53.36.12.37-4.95.36 3.95.36-3.74.36 3.57.36.8.37-4.33.36 4.4.36.35.36.36h.36l.37-4.71.36 4.16.36-4.06.36 3.53.37.45.36-4.5.36 4.19.36.61.36.15.37.07.36.07.36.28.36-4.41.36 3.84.37.02.36-4.86.36 3.89.36-4.2.36 3.96.37.61.36.14h.36l.36-3.95.36 3.68.37-.25.36-4.82.36 4.09.36-3.93.37 3.94.36.7.36-4.52.36 4.57.36.51.37.11.36.39.36-4.71.36 4.15.36-4.22.37 3.64.36.62.36-4.55.36 4.36.36.31.37.23.36.45.36.3.36-.43.37-4.16.36 3.42.36.36.36-4.79.36 4.46.37-3.98.36 3.78.36.41.36.25.36.1.37-4.43.36 3.89.36.24.36-4.52.36 4.13.37-4.09.36 3.31.36-4.09.36 3.16.37.88.36.48.36.25.36.23.36-4.45.37 4.83.36-4.28.36 3.97.36-3.31.36 2.77.37.27.36.05.36.27.36.43.36-.09.37.09.36-4.2.36 3.82.36-3.59.36 3.01.37.42.36-4.19.36 3.83.36.39.37.26.36.24.36-4.52.36 3.92.36-4.03.37 2.58.36.81.36-3.93.36 4.01.36-3.52.37 3.45.36.26.36.46.36.42.36-3.67.37 2.79.36.71.36-4.56.36 3.93.37-4.21.36 3.3.36.68.36.05.36.59.37.35.36-.21.36-.1.36-4.52.36 3.4.37-3.99.36 3.59.36.94.36-4.55.36 4.4.37.24.36.47.36.38.36-4.74.36 3.82.37-3.71.36 3.34.36.89.36-4.43.37 3.83.36-3.67.36 3.57.36.26.36.7.37-.03.36-3.9.36 3.06.36.24.36-4.37.37 3.93.36-3.6.36 3.46.36.22.36.46.37.22.36.45.36-.67.36.13.37-5.13.36 3.89.36-3.29.36 3.33.36.54.37-4.22.36 4.1.36.58.36.52.36.12.37-4.39.36 3.83.36-3.72.36 3.45.36.34.37-4.29.36 4.36.36-4.01.36 3.31.36.22.37.14.36.26.36-3.93.36 3.12.37.55.36-4.38.36 3.89.36-3.55.36 3.45.37.77.36.22.36.13.36.25.36.09.37-.4.36-4.92.36 4.11.36-4.06.36 1.72.37-.11.36-4.41.36 4.83.36.66.37.81.36.61.36-4.43.36 3.89.36-4.23.37 3.95.36.39.36-5.33.36 4.02.36-3.25.37 3.48.36.99.36.54.36-.05.36-3.66.37 3.46.36.19.36-4.14.36 4.05.37-3.96.36 3.4.36.29.36.4.36-.03.37-1.83h.36l.36.37.36-3.9.36 4.48.37-3.57.36 3.74.36.64.36-4.92.36 4.82.37.51.36.08.36.17.36-4.56.36 3.9.37-4.52.36 3.85.36.44.36-4.44.37 4.04.36-3.89.36 3.63.36.42.36.5.37.11.36-4.11.36 2.84.36.27.36-3.84.37 4.32.36-3.73.36 3.82.36.1.36.32.37.23.36.26.36.13.36.1.37-4.59.36 4.13.36-4.1.36 3.61.36.42.37-4.35.36 4.42.36.48.36-.02.36.05.37-5.01.36 4.04.36-3.8.36 3.7.36.52.37-4.68.36 4.37.36-4.06.36 3.05.36.55.37.13.36-.35.36-4 .36 3.77.37.13.36-4.1.36 4.2.36-3.73.36 4.02.37.26.36.29.36.23.36.08.36-.07.37.32.36-4.53.36 3.81.36-3.94.36 3.6.37.27.36-4.37.36 4.11.36.4.37-.17.36.31.36-4.58.36 4.02.36-4.37.37 4.34.36.57.36-4.34.36 4.31.36-4.19.37 3.73.36.51.36.13.36.26.36-4.83.37 3.32.36.08.36-4.73.36 4.39.36-3.45.37 3.75.36.84.36.18.36.32.37.12.36.39.36-.29.36-5.33.36 3.49.37-4.04.36 4.02.36.58.36-4.43.36 4.47.37.42.36.11.36.5.36-4.5.36 3.98.37-4.01.36 4 .36.24.36-4.76.37 4.43.36-4.05.36 3.62.36.04.36.39.37.24.36-4.17.36 3.88.36.25.36-4.14.37 4.24.36-4.14.36 3.87.36.38.36.28.37.25.36.14.36-.47.36-.13.37-4.51.36 4.08.36-4 .36 3.6.36.57.37-4.41.36 4.09.36.5.36-.14.36-.26.37-4.46.36 4.33.36-3.87.36 3.83.36.36.37-4.7.36 4.54.36-3.89.36 3.77.36.17.37.19.36.14.36-4.18.36 3.58.37.15.36-4.79.36 4.46.36-4.1.36 4.06.37.61.36.12.36-.07"/><use xlink:href="#c3af7__d" transform="matrix(3.75 0 0 3.75 67.83 109.6)"/><use xlink:href="#c3af7__d" transform="matrix(3.75 0 0 3.75 112.25 22.51)"/></g><text stroke-linecap="round" stroke-linejoin="round" color="#000" font-family="KaTeX_Main" font-size="8" transform="translate(241.1 10.11)"><tspan>LBSTRelaxed</tspan></text><g fill="none" stroke="currentColor" stroke-linecap="round" stroke-linejoin="round" color="#000"><path stroke="#FFAB00" stroke-dasharray="4.0,2.0,1.0,2.0" d="M205.6 7.51h29.9M28 151.72l.36 4.09.36-.22.37-13.23.36 12.92.36-4.6.36-.39.36 4.32.37-4.43.36-2.08.36-6.82.36 7.58.37-9.61.36 13.25.36-10.6.36-3.93.36 9.01.37-.19.36-18.52.36 22.2.36.59.36-15.63.37 10.31.36-.06.36-26.1.36 30.93.36-3.78.37-.11.36-19.16.36 22.43.36-4.43.36 4.27.37-4.62.36-.55.36 3.74.36-4.59.37-41.42.36 45.2.36-4.34.36 3.45.36-27.88.37-.78.36 2.41.36 21.16.36 3.92.36-4.86.37.19.36-28.45.36 4.38.36 27.8.36-4.53.37-25.32.36 12.74.36 3.25.36-2.83.37 5.41.36.75.36.64.36.44.36-46.97.37 47.1.36-4.04.36 4.03.36.44.36-4.62.37 4.05.36-4.54.36 3.92.36.38.36.2.37-.02.36-4.13.36 3.76.36.2.37-4.87.36 4.43.36-4.3.36-14.48.36 18.74.37-4.55.36 4.52.36.37.36.15.36-16.88.37 12.07.36 4.17.36-4.08.36 4 .36.09.37-4.48.36-14.42.36 18.9.36.09.36-.05.37.15.36-.06.36-4.2.36 3.63.37.16.36-4.6.36 4.27.36-4.09.36 3.61.37.47.36-17.55.36 17.74.36-4.39.36 3.6.37.36.36-4.72.36 4.43.36-4.39.36 4.1.37.19.36-4.65.36 4.42.36.15.37.09.36.23.36-4.83.36 4.22.36-24.52.37 23.83.36.21.36-4.44.36 4.07.36.61.37.11.36-.02.36.12.36-18.97.36 14.53.37 3.69.36.34.36-4.71.36 4.3.36-22.32.37 21.7.36.31.36.17.36.09.37-4.38.36 3.9.36.13.36-50.66.36 48.88.37-3.45.36 4.08.36.54.36-4.67.36-22.09.37 5.63.36 21.27.36.37.36-4.41.36 4.78.37-4.42.36 4.1.36.19.36-4.53.37 4.35.36.13.36-.14.36.14.36-19.64.37.99.36 13.82.36 4.08.36.22.36-4.5.37 4.21.36-26.76.36 26.21.36.52.36.37.37.34.36-4.53.36 3.8.36.28.36-4.75.37 4.27.36-4.2.36 3.76.36-.41.37-3.91.36 4.37.36.19.36.14.36.08.37-4.83.36 4.45.36-3.97.36 3.88.36-20.06.37 15.55.36 4.38.36.69.36-19.04.36 19.42.37.09.36.4.36-4.48.36 3.84.37-.03.36-5.69.36 4.06.36-4.05.36 3.93.37-18.39.36 19.13.36.53.36-4.22.36 4.06.37.24.36-4.53.36 4.43.36-4.31.36 4.1.37-3.83.36 3.42.36.52.36.1.37.16.36.23.36-38.29.36 1.81.36 30.36.37 4.57.36-3.67.36 3.64.36.48.36.24.37.23.36.4.36.18.36.17.36-4.76.37-33.13.36 32.63.36 3.57.36.68.36-4.24.37 4.01.36.39.36.19.36-.05.37-4.24.36 3.86.36-77.64.36 75 .36 1.69.37-3.64.36 4.13.36-3.69.36 3.68.36-72.2.37 72.09.36.49.36-3.42.36 3.24.36.44.37-4.03.36 4.1.36-3.89.36 3.33.37.38.36.43.36.06.36.17.36.05.37.1.36-4.64.36 4.05.36-3.99.36-32.61.37 35.63.36-3.88.36 4.13.36.28.36.13.37.17.36-4.41.36 4.07.36-3.96.36 3.32.37.47.36-4.43.36 4.12.36-3.91.37 3.37.36.43.36.34.36.35.36-4.08.37 3.31.36-36.92.36 31.98.36-33.09.36 33.05.37 4.23.36.56.36.59.36.53.36-.05.37.25.36.09.36-4.46.36 4.06.37-4.16.36 3.83.36.18.36-52.34.36 51.07.37.69.36.55.36.23.36-4.28.36 4.08.37-3.89.36 3.21.36.5.36-4.71.36 4.21.37-4.01.36 3.66.36-19.82.36 20.12.36.56.37-3.82.36 3.31.36.13.36-4.4.37 3.21.36-3.62.36 3.82.36.52.36.27.37.01.36.32.36-.05.36.12.36-4.44.37-15.58.36 15.68.36-16.01.36 19.73.36-4.23.37 4.04.36.38.36.35.36-.06.37-4.36.36-18.58.36 18.63.36 3.74.36.3.37-4.37.36-16.42.36 16.53.36 4.02.36.31.37.4.36.26.36-3.89.36 3.22.36-29.03.37 24.61.36 4.4.36-3.99.36-14.11.37-.55.36 18.71.36.37.36.18.36.04.37-.01.36-4.31.36-23.28.36 22.99.36 3.8.37.6.36-4.43.36 4.14.36.61.36.31h.37l.36-4.38.36 4.33.36-4.09.36 3.69.37.46.36-4.67.36 4.15.36-3.85.37 3.42.36.39.36-.03.36-28.18.36 23.54.37 3.95.36.19.36-4.2.36 4.02.36-4.02.37-15.82.36 19.71.36.22.36.13.36.46.37-.05.36.03.36-4.46.36 3.89.37-3.94.36 3.89.36.2.36-4.66.36-18.37.37 22.57.36.37.36.38.36-4.79.36 4.21.37-3.78.36 3.67.36.29.36-4.37.36 3.93.37-25.03.36-13.33.36 37.36.36.75.36.66.37-4.18.36-33.19.36 37.01.36-4.33.37-14.07.36 14.56.36 4.08.36.34.36.43.37.17.36.13.36-.08.36-.23.36-4.45.37 4.06.36-4.41.36 3.77.36.17.36-4.82.37 4.54.36-27.61.36 27.33.36.51.37-41.92.36 41.25.36-3.71.36 3.79.36.69.37-38.72.36 37.27.36-3.43.36 4.15.36.5.37.2.36.26.36-4.16.36 3.53.36.27.37-4.72.36 4.2.36-4.31.36 3.93.37.34.36.32.36-.09.36.42.36-35.72.37 35.38.36-4.66.36 4.19.36-3.97.36 3.67.37.47.36-4.63.36 4.32.36.37.36-36.16.37 35.38.36-3.97.36 4.2.36-40.44.36 39.33.37 1.11.36-4.24.36 4.48.36-4.02.37 3.91.36-36.49.36 36.8.36.74.36-4.1.37 3.89.36.06.36-31.35.36 30.97.36-3.81.37 3.95.36.29.36.44.36.28.36-.02.37.22.36-.08.36-4.65.36-34.11.37 33.13.36 4.24.36.47.36-4.66.36 4.31.37.58.36.11.36.07.36-4.74.36 4.3.37-4.25.36 3.31.36.58.36-4.52.36 4.59.37-4.16.36 3.9.36.13.36.32.36.07.37-4.12.36 3.74.36-19.91.36 15.26.37-32.96.36 33.08.36-14.16.36 18.91.36.17.37.4.36-.04.36.04.36-.19.36-4.66.37 4.35.36-4.25.36 3.98.36.43.36-4.36.37 3.76.36-22.45.36 22.46.36.45.37-4.49.36 4.43.36-4.44.36-24.18.36 28.41.37-4.55.36 4.43.36-4 .36 3.91.36.38.37.14.36.27.36-4.51.36 3.71.36-28.25.37-4.54.36 32.11.36-3.8.36 4.4.36.45.37.28.36.43.36.2.36-.01.37.06.36-4.86.36 4.17.36-4.1.36 3.9.37-3.76.36 3.36.36.36.36.18.36.01.37-.17.36-4.63.36 4.12.36-4.25.36 3.98.37-3.69.36 3.28.36.71.36-4.68.37 4.24.36.15.36.17.36-22.52.36 17.87.37 4.42.36-3.46.36-48.33.36 51.59.36-4.08.37 4.74.36-34.02.36 33.61.36.75.36.23.37.3.36-3.71.36-16.94.36 20 .37-3.92.36-17.14.36 16.9.36 3.86.36.79.37.23.36.16.36.12.36-4.68.36 4.45.37-4.19.36 3.85.36-3.9.36 3.45.36.1.37-4.19.36-23.26.36 6.54.36 21.24.36.32.37-3.98.36 3.92.36-3.68.36-32.18.37 35.57.36-4.05.36 4 .36.33.36.29.37-35.01.36 34.09.36.76.36-3.91.36 3.38.37.45.36-4.41.36 3.96.36-3.81.36 3.54.37.37.36.52h.36l.36-3.79.37 3.11.36.31.36-4.32.36 3.83.36-3.6.37 3.43.36.17.36-4.42.36 4.06.36.41.37.16.36.31.36-39.85.36 37.97.36-36.58.37 1.84.36 34.96.36-31.41.36 31.12.36.97.37.43.36.58.36-36.56.36 36.32.37-3.71.36 3.62.36.46.36-4.35.36 4.32.37-4.13.36 3.54.36.24.36.36.36-.05.37-4.05.36 3.03.36.48.36-25.76.36 25.08.37-3.61.36 3.75.36.42.36-3.99.37-16.25.36 19.94.36.67.36.17.36-4.52.37 3.93.36-3.82.36 3.32.36.36.36-4.53.37 4.53.36.12.36.33.36.14.36-.13.37.19.36-3.81.36-33.99.36 37.07.36-4.13.37 4.32.36-4.68.36 4.16.36.28.37.22.36-36.87.36 32.42.36 3.58.36.3.37-4.21.36 3.98.36-4.12.36 3.95.36.47.37-4.6.36 4.28.36.4.36-.1.36.21.37-4.39.36 3.77.36-3.73.36 3.25.37.64.36-20.71.36-7.36.36 27.99.36.44.37.12.36.09.36.28.36-4.08.36-17.12.37 20.03.36-26.09.36 26.14.36-40.47.36 40.19.37.6.36.27.36.45.36-3.66.37-17.55.36 20.64.36-4.21.36 4.26.36-3.91.37 3.69.36.3.36-4.33.36 4.04.36.43.37.25.36.01.36-4.56.36 4.27.36-4.44.37 3.95.36.25.36-4.45.36 4.32.36.17.37.3.36.15.36.09.36.04.37-4.21.36-20.09.36-4.75.36 24.13.36 4.42.37-4.08.36 3.86.36-20.71.36 20.96.36.46.37-4.05.36 3.8.36.43.36-4.44.36 4.1.37-4.09.36 3.58.36.54.36-20.63.37-.43.36 20.31.36.62.36.39.36-9 .37 8.64.36-3.73.36 3.8.36.11.36-4.45.37-15.74.36 20.15.36.61.36.26.36-.07.37.01.36-4.22.36 3.48.36.15.36-61.97.37 61.02.36-3.58.36 3.95.36.33.37.12.36.08.36-4.09.36 3.54.36.52.37-4.75.36-32 .36 31.74.36 3.83.36.53.37-4.3.36 4.52.36.18.36.35h.36l.37-4.78.36 4.31.36-4.18.36 3.69.37.23.36-4.42.36 4.19.36.17.36.11.37.25.36.12.36-.13.36-4.34.36 3.5.37.06.36-4.64.36 4.33.36-4.03.36 3.77.37.02.36.19.36-35.64.36 30.86.36 4.09.37-26.35.36.86.36 25.36.36-19.66.37 20.18.36.91.36-42.06.36 41.28.36.51.37.23.36.34.36-4.75.36 4.12.36-3.91.37-34.2.36 37.61.36-4.26.36 4.42.36.27.37-35.67.36 35.57.36.18.36-.06.37-41.33.36 40.54.36.66.36-4.1.36 4.27.37-4.11.36 3.86.36.46.36.14.36.15.37-4.31.36 3.48.36.2.36-43.2.36 42.46.37-4.27.36 4.19.36.68.36-4.73.37 4.4.36.21.36.25.36.31.36-4.41.37 4.12.36-4.25.36-30.13.36 33.5.36-4.11.37 4.51.36.62.36.11.36.36.36-22.49.37 22.06.36-3.87.36 3.92.36.09.36-4.6.37 4.21.36-4.15.36-14.66.36 18.52.37.3.36.19.36-4.2.36 3.6.36.28.37-4.47.36 4.34.36-4.2"/><use xlink:href="#c3af7__e" color="#FFAB00" transform="matrix(3.75 0 0 3.75 125.4 130.33)"/><use xlink:href="#c3af7__e" color="#FFAB00" transform="matrix(3.75 0 0 3.75 220.55 7.51)"/></g><text stroke-linecap="round" stroke-linejoin="round" color="#000" font-family="KaTeX_Main" font-size="8" transform="translate(241.1 25.11)"><tspan>TreapTopDown</tspan></text><g fill="none" stroke="currentColor" stroke-linecap="round" stroke-linejoin="round" color="#000"><path stroke="#00C853" stroke-dasharray="4.5,2.0,0.5,2.0,0.5,2.0" d="M205.6 22.51h29.9M28 157.67l.36-4.41.36-.37.37 3.89.36-4.54.36 4.12.36-4.56.36-.4.37 4.07.36-4.77.36-.23.36 4.12.37-4.53.36 4.11.36-4.72.36-.3.36 4.24.37-.33.36-.06.36-4.61.36-.1.36-.37.37 4.02.36-.01.36-4.67.36-.27.36-.14.37-.31.36 4.05.36-.02.36-4.71.36-.03.37-.45.36 4h.36l.36-.1.37-4.66.36-.24.36-.19.36 3.63.36.32.37-4.71.36-.05.36-.41.36 3.56.36-4.14.37 4.22.36-4.3.36-.24.36 3.42.36-4.54.37-31.77.36 11.26.36 3.2.36 1.6.37.95.36-3.64.36 3.65.36.5.36-4.56.37 4.34.36-3.93.36 3.73.36.43.36-.01.37.17.36-4.15.36 3.07.36.18.36-4.48.37 3.92.36-4.31.36 3.67.36.34.37-4.34.36 4.08.36.24.36-.07.36.24.37-4.77.36 4.54.36-4.04.36 3.71.36.57.37-4.8.36 4.21.36.42.36.22.36.21.37.05.36-.16.36-3.79.36 3.35.36.09.37-4.53.36 4.35.36-3.99.36 3.84.37.4.36.37h.36l.36-3.97.36 3.43.37.53.36-4.7.36 4.32.36-4.15.36 3.71.37.42.36-4.64.36 4.51.36.36.36.35.37.11.36-4.68.36 4.06.36-4.09.37 3.54.36.24.36-4.37.36 4.11.36.2.37.16.36.08.36.32.36-.21.36-4.19.37 3.43.36.33.36-4.78.36 4.21.36-4.06.37 3.64.36.53.36.23.36.16.36-4.21.37 3.13.36.57.36-4.75.36 4.47.37-4.11.36 3.64.36.6.36-4.87.36 4.49.37.31.36.19.36.25.36-4.5.36 3.98.37-4.33.36 3.8.36.48.36-4.59.36 4.15.37.18.36-.73.36-.11.36.33.37.4.36-4.28.36 3.7.36.35.36-4.53.37 4.19.36-4.11.36 3.74.36.53.36.36.37.27.36-4.09.36 3.46.36.34.36-4.75.37 4.63.36-4.02.36 3.51.36-.45.36-4.65.37 4.41.36.8.36.11.36.21.37-4.25.36 3.95.36-3.94.36 3.97.36-.05.37-4.73.36 4.32.36.35.36.16.36.09.37.01.36.06.36-4.47.36 3.94.36.3.37-4.77.36 4.18.36-3.97.36 3.88.37.09.36.21.36.2.36-4.15.36 3.7.37.5.36-4.64.36 4.43.36-4.42.36 3.89.37.38.36-4.44.36 4.6.36.35.36.13.37.01.36-4.54.36 4.2.36-4.17.37 3.87.36.33.36-4.72.36 4.46.36.11.37.69.36-.03.36.08.36.1.36-4.66.37 3.87.36.42.36-4.89.36 4.67.36-4.11.37 3.85.36.39.36.12.36.15.36-4.17.37 3.59.36.32.36-4.85.36 4.41.37-4.18.36 4.08.36.36.36-4.81.36 4.61.37.42.36.08.36-.15.36-4.84.36 4.17.37-3.86.36 3.98.36.3.36-4.66.36 4.49.37.13.36.07.36.2.36-.07.37.12.36-4.51.36 3.67.36.13.36-4.55.37 4.42.36-4.45.36 4.4.36.2.36.17.37.31.36-4.19.36 3.8.36-.06.36-4.55.37 4.44.36-4.25.36 3.82.36.42.36-4.77.37 4.49.36.19.36.12.36.19.37-5.06.36 4.38.36-3.95.36 3.79.36.11.37-4.6.36 4.6.36.18.36.06.36.36.37-.08.36.25.36-4.56.36 3.75.36.07.37-4.51.36 4.48.36-4.04.36 4.17.37.11.36.52.36.05.36-4.43.36 3.77.37.06.36-4.48.36 4.39.36-3.92.36 3.68.37.3.36-4.84.36 4.6.36.12.36.22.37.17.36-4.78.36 4.02.36-4.18.36 3.97.37.3.36-4.86.36 4.63.36.19.37.21.36.16.36.23.36.13.36-4.54.37 3.71.36.48.36-4.72.36 4.35.36-4.09.37 3.84.36.38.36.17.36-.05.36-3.91.37 3.39.36.35.36-4.54.36 4.42.37-4.15.36 4.1.36-3.7.36 3.2.36.1.37.12.36.39.36.17.36-4.45.36 4.02.37-4.05.36 4.04.36-3.55.36 3.01.36.58.37.08.36.05.36.03.36.2.37-.04.36-4.43.36 3.74.36-3.36.36 2.43.37.5.36-3.89.36 4.23.36.72.36.27.37.35.36-4.63.36 4.02.36.12.36-4.66.37 4.17.36-3.89.36 3.92.36-3.77.36 3.57.37.37.36.3.36.15.36.15.37-4.91.36 4.38.36-4.37.36 4.4.36-3.72.37 3.14.36.43.36.39.36.14.36.01.37.16.36.1.36-4.65.36 3.85.36-3.49.37 3.27.36.47.36-4.26.36 3.96.37.13.36.21.36.28.36-4.5.36 3.87.37-3.68.36 2.97.36.82.36-4.26.36 3.91.37-3.63.36 3.51.36.36.36.07.36.29.37-3.67.36 3 .36.44.36-4.33.36 4.27.37-4 .36 3.5.36.57.36.07.37.63.36-.01.36-.08.36.06.36-4.47.37 3.86.36-3.86.36 3.32.36.33.36-4.36.37 4 .36.32.36.2.36.07.36-4.51.37 4.12.36-3.72.36 3.02.36.41.37-3.95.36 4.06.36-3.9.36 3.46.36.72.37.41.36.05.36-3.96.36 3.3.36.06.37-4.18.36 4.28.36-4.13.36 3.39.36.43.37.27.36.13.36.2.36.25.37-.23.36-4.36.36 3.96.36-3.95.36 3.5.37.18.36-4.21.36 4.16.36.4.36.17.37.04.36-4.5.36 4.05.36-3.96.36 3.39.37.54.36-4.34.36 4.11.36-3.75.36 3.8.37.35.36.15.36.17.36-3.97.37 3.15.36.51.36-4.35.36 4.42.36-4.3.37 3.54.36.38.36.24.36-.02.36.31.37.18.36-.09.36-4.3.36 3.84.36-4.13.37 3.55.36.38.36-4.47.36 4.08.37.15.36.33.36.16.36-4.51.36 4.14.37-3.63.36 3.22.36.47.36-4.65.36 4.41.37-3.85.36 3.66.36.33.36.34.36.25.37-4.08.36 3.52.36.3.36-4.41.36 4.16.37-3.69.36 3.72.36.54.36.4.37.25.36.08.36-.04.36.08.36-4.59.37 4.24.36-4.26.36 3.6.36.27.36-4.44.37 4.31.36.18.36.34.36.28.36-4.62.37 3.94.36-3.98.36 3.81.36.26.37-4.53.36 4.46.36-4.24.36 3.91.36.54.37.36.36-.04.36-3.99.36 3.65.36.17.37-4.77.36 4.35.36-4.12.36 3.79.36.1.37-.01.36-.06.36.19.36.44.36-.15.37-4.61.36 4.37.36-4.01.36 3.4.37.67.36-4.64.36 4.46.36.39.36.26.37.33.36-4.63.36 4.26.36-4.24.36 3.83.37.41.36-4.5.36 4.37.36-4.16.36 3.86.37.27.36.16.36.42.36-4.71.37 4.09.36-.06.36-4.73.36 4.15.36-4.08.37 3.93.36.26.36.27.36.14.36-.03.37.35.36.04.36-4.78.36 4.21.36-4.55.37 4 .36.56.36-4.34.36 4.1.37.29.36.25.36.29.36-4.54.36 4.25.37-3.86.36 3.32.36.58.36-4.59.36 4.19.37-4.21.36 4.05.36-.03.36.65.36-.03.37-4.25.36 3.81.36.13.36-4.63.36 4.38.37-4.13.36 3.9.36.57.36.04.37.29.36.19h.36l.36-.01.36-4.68.37 4.32.36-4.37.36 4.21.36.02.36-4.55.37 4.37.36.21.36.02.36.07.36-5.08.37 4.16.36-3.99.36 3.86.36.61.37-4.94.36 4.69.36-4.23.36 3.79.36.52.37.26.36-.1.36-4.39.36 3.93.36.38.37-4.71.36 4.4.36-4.23.36 3.7.36.77.37.07.36.38.36-.13.36.04.36-.01.37-4.64.36 4.35.36-4.11.36 3.7.37.38.36-4.59.36 4.18.36.44.36.25.37-.27.36-4.55.36 4.25.36-3.88.36 3.53.37.22.36-4.64.36 4.53.36-4.33.36 3.85.37.38.36.19.36.52.36-4.29.37 3.78.36.24.36-4.78.36 4.6.36-4.34.37 4.05.36.42.36.16.36.24.36.11.37.03.36.29.36-5.05.36 4.3.36-4.48.37 3.82.36-3.24.36 3.05.36.71.36.28.37.13.36.06.36-4.7.36 4.35.37-4.08.36 3.9.36-3.44.36 2.96.36.61.37-4.11.36 3.83.36.52.36.3.36.33.37-4.5.36 3.72.36.23.36-4.54.36 4.16.37-4.08.36 3.84.36.26.36.3.37.57.36.01.36.02.36-.25.36-4.51.37 4.08.36-4.68.36 4.31.36-3.72.36 3.43.37.27.36.52.36.41.36-.2.36-4.6.37 4.4.36-4.42.36 4.06.36-3.5.37 3.07.36.53.36-4.09.36 3.92.36.39.37.24.36.24.36-4.39.36 3.85.36-3.89.37 3.27.36.51.36-4.24.36 4.46.36.09.37.36.36.27.36-.17.36-.04.36-3.96.37 2.93.36.55.36-4.34.36 4.1.37-3.65.36 3.2.36.52.36.06.36.19.37-3.83.36 3.3.36.19.36-4.36.36 4.32.37-3.78.36 3.34.36.38.36-4.25.36 4.22.37.22.36.32.36.18.36-4.43.37 3.7.36-3.64.36 3.31.36.5.36-4.33.37 4.26.36.38.36.19.36-.04.36.24.37-.17.36-4.04.36 3.01.36.78.36-4.44.37 3.97.36-3.95.36 3.8.36.14.36.56.37.03.36-4.18.36 3.44.36.23.37-4.59.36 4.18.36-3.99.36 3.7.36.55.37-4.4.36 4.47.36.18.36.31.36.21.37-4.46.36 3.87.36-3.88.36 3.43.36.15.37-4.83.36 4.52.36.4.36.43.37.21.36.04.36.15.36-4.23.36 3.18.37.83.36-4.39.36 4.2.36-4.04.36 3.51.37.45.36.36.36.23.36-3.97.36 3.17.37.55.36-4.57.36 4.08.36-4.05.36 3.99.37-.07.36-4.01.36 3.99.36.36.37.25.36.12.36-4.67.36 3.97.36-3.94.37 3.98.36.18.36-4.31.36 4.12.36.37.37.43.36.19h.36l.36.17.36-4.25.37 3.51.36.3.36-4.58.36 4.18.37-3.69.36 3.39.36.47.36.27.36.16.37-4.11.36 3.36.36.39.36-4.46.36 4.49.37-4.26.36 3.83.36.21.36-4.22.36 4.2.37.07.36.27.36.24.36-4.6.37 4.02.36-4 .36 3.5.36.41.36-4.24.37 4.38.36.11.36.15.36.17.36.03.37.2.36-4.16.36 3.7.36.36.36-4.6.37 4.19.36-4.05.36 3.94.36.38.36.08.37-.01.36-3.98.36 3.53.36.56.37-4.55.36 4.09.36-3.78.36 3.58.36.53.37-4.42.36 4.36.36.29"/><use xlink:href="#c3af7__f" color="#00C853" transform="matrix(3.75 0 0 3.75 182.98 117.88)"/><use xlink:href="#c3af7__f" color="#00C853" transform="matrix(3.75 0 0 3.75 220.55 22.51)"/></g><path fill="none" d="M28 45.01V162.5M371.99 45.01H28" color="#000"/></svg>