<svg xmlns="http://www.w3.org/2000/svg" xmlns:xlink="http://www.w3.org/1999/xlink" viewBox="0 0 400 200"><path fill="none" d="M0 0h400v200H0z"/><defs><use xlink:href="#04528__a" id="04528__f" stroke="currentColor" transform="rotate(180)"/><use xlink:href="#04528__b" id="04528__c" stroke="currentColor" transform="rotate(45)"/><use xlink:href="#04528__c" id="04528__e" fill="currentColor" stroke="none"/><path id="04528__b" stroke="currentColor" stroke-width=".267" d="M-1-1h2v2h-2z"/><path id="04528__a" stroke="currentColor" stroke-width=".267" d="m0-1.33-1.33 2h2.66z"/><circle id="04528__d" cx="0" cy="0" r="1" stroke="currentColor" stroke-width=".267"/></defs><path fill="none" stroke="#CCC" stroke-linecap="round" stroke-linejoin="round" stroke-width=".1" d="M46.1 162.5V45.01" class="04528__gridline" color="#000"/><g fill="none" stroke-linecap="round" stroke-linejoin="round" stroke-width="0" color="#000"><path d="M46.1 162.5V155m0-109.99v7.5"/><text fill="#000" font-family="KaTeX_Main" font-size="8" text-anchor="middle" transform="translate(46.1 172.6)"><tspan> 1</tspan></text></g><path fill="none" stroke="#CCC" stroke-linecap="round" stroke-linejoin="round" stroke-width=".1" d="M82.31 162.5V45.01" class="04528__gridline" color="#000"/><g fill="none" stroke-linecap="round" stroke-linejoin="round" stroke-width="0" color="#000"><path d="M82.31 162.5V155m0-109.99v7.5"/><text fill="#000" font-family="KaTeX_Main" font-size="8" text-anchor="middle" transform="translate(82.31 172.6)"><tspan> 2</tspan></text></g><path fill="none" stroke="#CCC" stroke-linecap="round" stroke-linejoin="round" stroke-width=".1" d="M118.52 162.5V45.01" class="04528__gridline" color="#000"/><g fill="none" stroke-linecap="round" stroke-linejoin="round" stroke-width="0" color="#000"><path d="M118.52 162.5V155m0-109.99v7.5"/><text fill="#000" font-family="KaTeX_Main" font-size="8" text-anchor="middle" transform="translate(118.52 172.6)"><tspan> 3</tspan></text></g><path fill="none" stroke="#CCC" stroke-linecap="round" stroke-linejoin="round" stroke-width=".1" d="M154.73 162.5V45.01" class="04528__gridline" color="#000"/><g fill="none" stroke-linecap="round" stroke-linejoin="round" stroke-width="0" color="#000"><path d="M154.73 162.5V155m0-109.99v7.5"/><text fill="#000" font-family="KaTeX_Main" font-size="8" text-anchor="middle" transform="translate(154.73 172.6)"><tspan> 4</tspan></text></g><path fill="none" stroke="#CCC" stroke-linecap="round" stroke-linejoin="round" stroke-width=".1" d="M190.94 162.5V45.01" class="04528__gridline" color="#000"/><g fill="none" stroke-linecap="round" stroke-linejoin="round" stroke-width="0" color="#000"><path d="M190.94 162.5V155m0-109.99v7.5"/><text fill="#000" font-family="KaTeX_Main" font-size="8" text-anchor="middle" transform="translate(190.94 172.6)"><tspan> 5</tspan></text></g><path fill="none" stroke="#CCC" stroke-linecap="round" stroke-linejoin="round" stroke-width=".1" d="M227.15 162.5V45.01" class="04528__gridline" color="#000"/><g fill="none" stroke-linecap="round" stroke-linejoin="round" stroke-width="0" color="#000"><path d="M227.15 162.5V155m0-109.99v7.5"/><text fill="#000" font-family="KaTeX_Main" font-size="8" text-anchor="middle" transform="translate(227.15 172.6)"><tspan> 6</tspan></text></g><path fill="none" stroke="#CCC" stroke-linecap="round" stroke-linejoin="round" stroke-width=".1" d="M263.36 162.5V45.01" class="04528__gridline" color="#000"/><g fill="none" stroke-linecap="round" stroke-linejoin="round" stroke-width="0" color="#000"><path d="M263.36 162.5V155m0-109.99v7.5"/><text fill="#000" font-family="KaTeX_Main" font-size="8" text-anchor="middle" transform="translate(263.36 172.6)"><tspan> 7</tspan></text></g><path fill="none" stroke="#CCC" stroke-linecap="round" stroke-linejoin="round" stroke-width=".1" d="M299.57 162.5V45.01" class="04528__gridline" color="#000"/><g fill="none" stroke-linecap="round" stroke-linejoin="round" stroke-width="0" color="#000"><path d="M299.57 162.5V155m0-109.99v7.5"/><text fill="#000" font-family="KaTeX_Main" font-size="8" text-anchor="middle" transform="translate(299.57 172.6)"><tspan> 8</tspan></text></g><path fill="none" stroke="#CCC" stroke-linecap="round" stroke-linejoin="round" stroke-width=".1" d="M335.78 162.5V45.01" class="04528__gridline" color="#000"/><g fill="none" stroke-linecap="round" stroke-linejoin="round" stroke-width="0" color="#000"><path d="M335.78 162.5V155m0-109.99v7.5"/><text fill="#000" font-family="KaTeX_Main" font-size="8" text-anchor="middle" transform="translate(335.78 172.6)"><tspan> 9</tspan></text></g><path fill="none" stroke="#CCC" stroke-linecap="round" stroke-linejoin="round" stroke-width=".1" d="M371.99 162.5V45.01" class="04528__gridline" color="#000"/><g fill="none" stroke-linecap="round" stroke-linejoin="round" stroke-width="0" color="#000"><path d="M371.99 162.5V155m0-109.99v7.5"/><text fill="#000" font-family="KaTeX_Main" font-size="8" text-anchor="middle" transform="translate(371.99 172.6)"><tspan> 10</tspan></text></g><g fill="none" stroke-linecap="round" stroke-linejoin="round" stroke-width="0" color="#000"><path d="M371.99 162.5h-7.5"/><text fill="#000" font-family="KaTeX_Main" font-size="8" transform="translate(378.99 165.1)"><tspan>1.10</tspan></text></g><g fill="none" stroke-linecap="round" stroke-linejoin="round" stroke-width="0" color="#000"><path d="M371.99 149.45h-7.5"/><text fill="#000" font-family="KaTeX_Main" font-size="8" transform="translate(378.99 152.05)"><tspan>1.20</tspan></text></g><g fill="none" stroke-linecap="round" stroke-linejoin="round" stroke-width="0" color="#000"><path d="M371.99 136.39h-7.5"/><text fill="#000" font-family="KaTeX_Main" font-size="8" transform="translate(378.99 138.99)"><tspan>1.30</tspan></text></g><g fill="none" stroke-linecap="round" stroke-linejoin="round" stroke-width="0" color="#000"><path d="M371.99 123.34h-7.5"/><text fill="#000" font-family="KaTeX_Main" font-size="8" transform="translate(378.99 125.94)"><tspan>1.40</tspan></text></g><g fill="none" stroke-linecap="round" stroke-linejoin="round" stroke-width="0" color="#000"><path d="M371.99 110.28h-7.5"/><text fill="#000" font-family="KaTeX_Main" font-size="8" transform="translate(378.99 112.88)"><tspan>1.50</tspan></text></g><g fill="none" stroke-linecap="round" stroke-linejoin="round" stroke-width="0" color="#000"><path d="M371.99 97.23h-7.5"/><text fill="#000" font-family="KaTeX_Main" font-size="8" transform="translate(378.99 99.83)"><tspan>1.60</tspan></text></g><g fill="none" stroke-linecap="round" stroke-linejoin="round" stroke-width="0" color="#000"><path d="M371.99 84.17h-7.5"/><text fill="#000" font-family="KaTeX_Main" font-size="8" transform="translate(378.99 86.77)"><tspan>1.70</tspan></text></g><g fill="none" stroke-linecap="round" stroke-linejoin="round" stroke-width="0" color="#000"><path d="M371.99 71.12h-7.5"/><text fill="#000" font-family="KaTeX_Main" font-size="8" transform="translate(378.99 73.72)"><tspan>1.80</tspan></text></g><g fill="none" stroke-linecap="round" stroke-linejoin="round" stroke-width="0" color="#000"><path d="M371.99 58.06h-7.5"/><text fill="#000" font-family="KaTeX_Main" font-size="8" transform="translate(378.99 60.66)"><tspan>1.90</tspan></text></g><g fill="none" stroke-linecap="round" stroke-linejoin="round" stroke-width="0" color="#000"><path d="M371.99 45.01h-7.5"/><text fill="#000" font-family="KaTeX_Main" font-size="8" transform="translate(378.99 47.61)"><tspan>2.00</tspan></text></g><path fill="none" d="M28 45.01V162.5M371.99 45.01H28" color="#000"/><text stroke-linecap="round" stroke-linejoin="round" stroke-width="0" color="#000" font-family="KaTeX_Main" font-size="10" text-anchor="middle" transform="rotate(-90 57.63 46.13)"><tspan font-weight="bold">Maximum Path Length </tspan><tspan> / log</tspan><tspan dy="3" font-size="8">2</tspan><tspan dy="-3">(Size)</tspan></text><text stroke-linecap="round" stroke-linejoin="round" stroke-width="0" color="#000" font-family="KaTeX_Main" font-size="10" text-anchor="middle" transform="translate(199.99 195.75)"><tspan>Operations / 10</tspan><tspan dy="-5" font-size="8">6</tspan></text><text stroke-linecap="round" stroke-linejoin="round" color="#000" font-family="KaTeX_Main" font-size="8" transform="translate(132.8 10.11)"><tspan>LBSTBottomUp</tspan></text><g fill="none" stroke="currentColor" stroke-linecap="round" stroke-linejoin="round" color="#000"><path stroke="#3B75EA" d="M97.3 7.51h29.9M28 156.77h.36l.36-1.58h.37l.36-3.14.36 3.14.36-1.57h.36l.37 1.57.36-1.57h.36l.36 1.57h.37l.36-1.57h.72l.36 3.15.37-3.15.36-1.57.36 1.57h.36l.36 1.57h.37l.36-1.57.36 4.72.36-3.15h1.09l.36 1.58.36-1.58.36 1.58.37-1.58h.36l.36-3.14.36 3.14.37-1.57.36 3.15.36-1.58.36-1.57.36-1.57.37 3.14.36-3.14h.36l.36 3.14.36-1.57.37 1.57h1.08l.36 1.58h.37l.36-1.58h.72l.37 1.58.36-1.58.36-1.57H49l.36 3.15.37 1.57h.72l.36-1.57.36-1.58.37-3.14.36 3.14.36 1.58.36-3.15h.36l.37 1.57.36-1.57.36 3.15.36-1.58h.73l.36-1.57.36-1.57.36 4.72.37-1.58.36-1.57.36-1.57.36 3.14.36-3.14.37 1.57.36 1.57h.36l.36-1.57h.36l.37 3.15.36-3.15h.36l.36 1.57.36-3.14.37 6.29.36-4.72.36 3.15.36-3.15.37 1.57.36 1.58h1.08l.37-3.15h.36l.36 1.57h.72l.37-1.57h1.08l.36 1.57.37 1.58.36-1.58h.36l.36-4.71.37 4.71.36-1.57.36 1.57h.36l.36 1.58.37-3.15.36 1.57h.36l.36-1.57.36 1.57h.37l.36-3.14.36 3.14.36 3.15h.36l.37-7.86.36 4.71h.72l.36 3.15.37-1.57h1.45l.36 1.57.36-4.72.36 1.57.36 1.58.37-3.15.36 1.57.36-1.57h.36l.36-1.57.37-1.57.36 4.71h.36l.36-1.57.36 1.57.37-1.57.36-1.57.36 1.57.36 4.72.37-3.15h.72l.36-1.57h.36l.37 3.15.36-1.58.36-1.57.36-4.71.36 6.28.37-1.57.36 1.57.36-3.14.36 1.57H91l.37 3.15.36-4.72.36 4.72h.36l.36-4.72.37 3.14h.36l.36-1.57.36-3.14.37 4.71.36-1.57h.36l.36 1.57.36-3.14.37 4.72.36-1.58.36-1.57.36-1.57.36 3.14.37 1.58.36 1.57.36-1.57.36-1.58.36-1.57.37-3.14.36 3.14.36 1.57h.36l.37-1.57.36 1.57h.36l.36 1.58.36-1.58.37-1.57.36-3.14.36 6.29.36-3.15.36 3.15.37-6.29.36 3.14h.72l.36 3.15.37-1.58h.36l.36-3.14h.73l.36 1.57.36-1.57.36 4.72.36-4.72h.37l.36 4.72.36-1.58.36-1.57h.36l.37-1.57.36 3.14.36-1.57.36-3.14.36 3.14h.37l.36 3.15.36-1.58.36 1.58h.73l.36-1.58.36-4.71.36 3.14.37-3.14.36 6.29h.36l.36-3.15.36-1.57.37 1.57.36-1.57.36 3.14.36 1.58.36-1.58h.73l.36-3.14h.36l.36 6.29.37-7.86h.36l.36 4.71h.36l.37 1.58.36-3.15.36 3.15.36-3.15h.36l.37 1.57.36 1.58.36-1.58.36-1.57.36 3.15h.37l.36-1.58h1.08l.37-4.71.36 1.57.36 3.14.36 1.58.36-3.15.37-3.14.36 1.57.36 1.57.36 3.15.37-1.58.36-1.57.36-1.57.36 4.72.36-4.72.37-1.57.36 4.71.36-1.57.36-1.57.36 3.14.37 1.58h.72l.36-1.58.36 1.58.37-6.29.36 6.29.36-4.72.36 1.57h1.45l.36 3.15.37-1.58h.36l.36 1.58.36-3.15.36 1.57.37-4.71.36 4.71h1.08l.37-1.57.36 1.57.36-1.57.36 1.57.36-3.14.37 3.14.36-1.57.36 3.15.36-3.15.37-3.14.36 1.57.36 1.57h.36l.36 3.15.37-4.72.36 4.72.36-1.58h.72l.37 1.58h.72l.36-1.58h.73l.36 1.58.36-1.58h.73l.36-1.57.36-1.57.36-1.57.36 4.71.37-1.57.36 1.57.36-1.57.36-3.14.36 3.14h.73l.36-1.57.36 4.72h.36l.37-3.15.36-3.14.36 3.14.36 3.15.37-1.58.36 3.15.36-6.29h.36l.36 1.57h.37l.36-1.57.36 3.14h.72l.37 1.58h.36l.36-1.58.36 1.58.36-6.29.37 4.71.36-1.57.36 3.15h.36l.36-4.72.37 3.14.36 1.58.36-3.15.36 3.15.37-1.58h.72l.36-1.57.36-1.57.37 1.57.36 4.72.36-6.29.36 1.57h.73l.36 3.15.36 1.57.36-1.57h.36l.37 1.57.36-1.57.36-1.58.36-3.14h.73l.36-1.57.36 4.71.36-3.14h.37l.36 1.57.36 1.57h.72l.37-1.57.36 1.57.36-4.71.36 3.14.36-3.14.37 4.71.36 1.58.36-1.58.36-3.14h.73l.36 3.14.36-1.57.36 3.15.37-6.29.36 3.14.36-1.57.36 3.14.36 1.58.37-3.15h1.08l.36 1.57h.37l.36-3.14.36 3.14.36-1.57h.36l.37 1.57h.36l.36-1.57h.73l.36 4.72.36-3.15.36-4.71.36 3.14.37-1.57h.72l.36 3.14.36-3.14.37 1.57.36-1.57.36 1.57.36-3.14.36 4.71.37-4.71h.36l.36 4.71h1.09l.36-1.57.36-3.14.36 4.71.37-3.14.36-1.57.36 3.14.36-1.57h.36l.37 3.14h.36l.36 1.58.36-6.29h.36l.37 3.14h.72l.36-1.57h.73l.36 1.57.36-1.57.36 4.72.37-3.15.36 1.57.36-4.71.36 3.14.36 1.57.37 1.58h.36l.36-3.15.36-1.57.36 3.14.37-1.57.36-3.14.36 4.71.36 1.58.36-3.15h.73l.36-1.57.36-3.14.37 4.71.36-6.28.36 9.43.36-3.15.36-1.57.37 3.14.36-3.14.36 1.57.36 1.57.36 1.58h.37l.36-1.58.36-3.14.36 3.14h.36l.37-1.57h.72l.36-1.57.36 3.14.37 1.58.36-1.58.36-3.14h.36l.37-1.57.36 1.57.36 1.57.36-1.57.36 1.57h.37l.36-1.57.36 3.14.36-1.57.36-3.14.37 4.71.36-1.57h1.08l.37 1.57h.36l.36-4.71.36 3.14.37 1.57h.36l.36-1.57.36 1.57.36-4.71.37 3.14.36 3.15h.36l.36-1.58.36-1.57.37 3.15.36-3.15.36 3.15h.36l.36-3.15.37-3.14.36 1.57.36 1.57.36-1.57h.36l.37 4.72.36-1.58h.36l.36-1.57h.37l.36 1.57.36-1.57.36 3.15.36-7.86.37 7.86.36-4.72.36 1.57.36 1.57.36-1.57.37-3.14.36 6.29.36-1.58h.72l.37-1.57.36 1.57h.36l.36-3.14.37 3.14h.36l.36-3.14h.36l.36-1.57.37 4.71.36-1.57h.36l.36 1.57.36-1.57.37-1.57.36 4.72.36-1.58.36-1.57h.36l.37 3.15.36-3.15.36 1.57.36 1.58.37-3.15.36-4.71.36 1.57.36 3.14h.36l.37 1.57.36-3.14.36-1.57.36 4.71.36-1.57h.73l.36-4.71.36 3.14.36 1.57h.37l.36-1.57.36 1.57.36-4.71.36 6.28h.73l.36 3.15.36-6.29h.37l.36 1.57.36 1.57.36-1.57h1.45l.36-1.57h.36l.37 1.57.36 1.57.36-1.57h.36l.36-3.14.37 4.71.36-1.57h1.09l.36 1.57.36-1.57.36-1.57h.73l.36 1.57.36-4.71.36 4.71.36 4.72.37-6.29.36-1.57.36 3.14.36 1.57.36-1.57.37 1.57.36 1.58.36-3.15.36 1.57.36 1.58.37-1.58.36-1.57h.36l.36-1.57.37 3.14h1.08l.36-1.57.37-1.57h.36l.36 6.29.36-3.15.36-3.14.37 3.14h.36l.36-1.57.36 1.57.36 3.15.37-6.29h.72l.36 3.14.37-1.57.36 3.15.36-9.43.36 3.14.36 1.57.37 3.14.36 3.15.36-6.29.36 3.14.36-1.57h.73l.36 3.15h.36l.36-1.58h.37l.36-3.14h.72l.36-3.14.37 4.71h.36l.36-1.57.36 3.14h.37l.36-1.57.36-3.14.36 4.71.36-1.57.37 1.57.36-1.57.36 1.57.36-1.57.36 1.57.37-1.57.36 1.57.36 1.58.36-3.15.36-1.57.37 4.72h1.08l.37-3.15h1.08l.36 1.57.37-1.57.36-1.57.36 1.57h.36l.36 1.57h.37l.36-3.14.36 3.14.36-3.14.36-3.14.37 7.86h.36l.36-1.58.36-1.57h.37l.36 3.15.36-4.72.36 1.57.36-1.57.37 1.57.36 1.57.36-1.57.36-3.14.36 4.71.37-3.14.36 3.14.36-1.57.36 1.57.36-1.57h.37l.36-1.57.36 4.72.36-3.15h.36l.37 1.57.36-3.14h.36l.36-1.57.37 3.14.36 1.57.36-1.57.36-1.57.36 3.14.37-1.57.36 1.57h.36l.36-1.57.36-1.57.37-3.14.36 4.71h.36l.36-1.57h.36l.37 3.14.36-3.14.36 3.14h.73l.36 1.58.36-6.29.36-1.57.36 6.28.37-3.14.36-1.57.36 6.29.36-4.72.36 1.57.37-1.57.36-1.57h.72l.36 1.57.37 1.57h.72l.36 1.57h.36l.37-3.14h.72l.36 1.57.37-1.57.36-4.71.36 4.71.36 1.57.36-1.57h.37l.36 1.57.36-1.57.36-1.57.36 3.14h.37l.36-1.57h.36l.36-1.57h.36l.37 3.14.36-1.57.36 1.57.36-1.57h.37l.36-1.57.36 4.71.36-1.57h.73l.36-3.14.36 4.71h.36l.36-3.14h.37l.36 3.14.36-4.71.36 4.71.36-3.14.37 1.57.36 1.57.36-3.14.36 1.57.36 1.57.37-3.14.36 4.72.36-3.15.36-1.57h.73l.36 1.57.36 1.57.36-1.57.37-3.14.36 1.57.36 1.57.36-1.57.36 1.57.37 3.15.36-3.15.36-3.14.36 3.14.36-1.57.37 1.57h.36l.36 1.57.36-3.14.37 3.14.36-1.57.36 1.57h.36l.36-4.71h.37l.36 1.57.36-3.14.36 4.71h.36l.37-1.57.36 1.57.36 1.57.36-4.71.36 1.57.37 1.57h.72l.36-1.57h1.09l.36-1.57.36 3.14.37-1.57.36 4.72.36-1.58.36-3.14.36-1.57.37 1.57.36 1.57h.36l.36 3.15.36-3.15.37-3.14.36 4.71.36 1.58.36-3.15.36 1.57.37-3.14.36 4.72.36-3.15.36 3.15.37-4.72.36 4.72.36-1.58.36-1.57.36-1.57.37 3.14h.36l.36 1.58"/><use xlink:href="#04528__d" color="#3B75EA" transform="matrix(3.75 0 0 3.75 354.25 153.62)"/><use xlink:href="#04528__d" color="#3B75EA" transform="matrix(3.75 0 0 3.75 112.25 7.51)"/></g><text stroke-linecap="round" stroke-linejoin="round" color="#000" font-family="KaTeX_Main" font-size="8" transform="translate(132.8 25.11)"><tspan>LBSTRelaxed</tspan></text><g fill="none" stroke="currentColor" stroke-linecap="round" stroke-linejoin="round" color="#000"><path stroke="#FFAB00" stroke-dasharray="4.0,2.0,1.0,2.0" d="M97.3 22.51h29.9M28 76.6l.36-12.57.36 17.29.37-9.44.36 9.44.36-11.01.36 4.72.36 6.29.37 6.28.36 12.58.36-11.01.36-3.14.37 12.58.36-20.44.36-7.86.36 28.3.36-17.29.37 3.14.36-18.86.36 14.14.36 3.15.36-6.29.37 20.43.36 4.72.36-18.86.36-22.01.36 33.01.37-9.43.36 6.29.36-3.15.36-14.14.36-3.15.37 1.57.36 14.15.36 7.86.36-17.29.37-11 .36 18.86.36-12.58.36 3.15.36-1.57.37-4.72.36 12.58.36-15.72.36 20.43.36 3.14.37-20.43.36 9.43.36-17.29.36 1.57.36 20.44.37-6.29.36 15.72.36 11 .36-25.15.37 4.72.36-18.86.36 22L49 70.31l.36 15.72.37 7.86.36-1.57.36 9.43.36-17.29h.36l.37 1.57.36-7.86.36 3.15.36-6.29.36 9.43.37 3.14.36 1.57.36 4.72.36-15.72.37 11 .36 1.58.36-9.43.36-9.44.36 17.29.37-9.43.36 20.44.36-9.43.36 4.71h.36l.37-23.58.36 11.01.36 3.14.36 3.14.36-12.57.37 15.72.36-15.72.36 6.29.36 7.86.36-14.15.37 7.86.36-6.29.36 6.29.36-3.14.37-3.15.36-6.29.36 15.72.36 7.86h.36l.37-33.01.36 4.72.36 9.43.36-14.15.36 1.58.37 6.28.36 4.72.36 12.57.36-4.71.36 7.86.37-3.15.36 3.15.36-29.87.36 20.44h.37l.36 1.57.36 3.14.36 3.14.36-14.14.37 6.29.36-1.58.36-4.71.36-9.43.36 3.14.37 14.15.36-11.01.36 1.58.36 4.71.36 3.15.37-1.58h.36l.36 12.58.36-18.86.36 25.15.37-12.58h.36l.36-25.15.36 15.72.37 22.01.36-3.15.36-17.29.36 12.58.36-6.29.37-3.14.36 7.85.36 4.72.36-23.58.36 25.15.37-3.14.36-1.57.36-12.58.36-7.86.36 6.29.37-4.72.36 7.86.36-6.28.36-9.43.37 12.57.36 4.72.36-23.58.36 18.86.36 3.14.37-15.71.36 9.43.36-3.15.36 20.44.36 3.14.37-6.29h.36l.36-14.14.36 18.86.36-9.43.37 17.29.36 7.86.36-11.01.36-20.43.36-12.57.37 22 .36-25.15.36 7.86h.36l.37 14.15.36-12.58.36 17.29.36-17.29.36 9.43.37 9.43.36-9.43.36 3.15.36 18.86.36-26.72.37 3.14.36-14.14.36 15.71.36-4.71.36-1.57.37 1.57.36 14.14.36 4.72.36-22.01.37 17.29.36-1.57.36-7.86.36-15.71h.36l.37-4.72.36 20.43.36-12.57.36 15.72.36 1.57.37 3.14.36 7.86.36-3.14.36-6.29.36-15.72.37 14.15.36 6.29.36-18.87.36-1.57.37 6.29.36 4.72.36 20.43.36-4.72h.36l.37-22 .36 9.43.36-3.14.36 3.14.36-3.14.37 6.28.36 11.01.36-4.72.36-29.86.36 22 .37-9.43.36 3.14.36 4.72.36 11 .36-14.14.37 22 .36-31.44.36 25.15.36-17.29.37-1.57.36-20.43.36 7.86.36 18.86.36 6.29.37 1.57.36-7.86.36-1.57.36-3.15.36 12.58.37-14.15.36 4.72.36 17.29.36-18.86.36-3.15.37-3.14h.36l.36 1.57h.36l.37-17.29.36 22.01.36-11.01.36 3.15.36-9.43.37 1.57.36 1.57.36-4.72.36 20.44.36 12.57.37-15.72.36-7.86.36 18.87.36-6.29.36-7.86.37 12.57.36-17.29.36 17.29.36-9.43.36 1.58.37-4.72.36 23.58.36-4.72.36 3.15.37-4.72.36-25.15.36 12.58.36 37.72.36-11 .37 1.57.36-11 .36 1.57.36-22.01.36 15.72.37-20.43.36 9.43.36 14.14.36-15.71.36-1.58.37 7.86.36 11.01.36-23.58.36 18.86h.37l.36-4.72.36-11 .36 7.86.36-3.14.37-4.72.36-6.29.36 20.44.36-3.15.36-4.71.37 3.14.36 17.29.36-9.43.36-11 .36 17.29.37-14.15.36-11 .36 7.86.36-9.43.36-6.29.37 36.15.36-4.71.36 1.57.36-3.14.37-11.01.36-3.14.36-1.57.36 12.57.36-23.58.37 26.73.36 17.29.36-7.86.36-14.15.36-11 .37-6.29.36 6.29.36-4.72.36-3.14.36-3.15.37 34.59.36-11.01.36 4.72.36-15.72.37-1.57.36-3.15.36 22.01.36-9.43.36-22.01.37 15.72.36-1.57.36-4.72.36-7.86.36 25.15.37-18.86.36-9.43.36 12.58.36 4.71.36 18.86.37-17.29.36 12.58.36-4.72.36-12.57.37-7.86.36 17.29.36 4.71.36-17.29.36 11.01.37-18.87.36 7.86.36 15.72.36-9.43.36-7.86.37 6.29.36-4.72.36-3.14.36-11 .36 18.86.37 11h.36l.36-14.14.36 4.71.36-12.57.37 29.86.36-25.15.36 18.86.36-15.71.37 1.57.36 6.28.36-7.85.36-4.72.36 17.29.37-11 .36-14.15.36 28.29.36 1.58.36-20.44.37 23.58.36-15.72.36-1.57.36-9.43.36-1.57.37 17.29.36-20.44.36 31.44.36-7.86.37 7.86.36-11 .36-3.15.36 3.15.36 1.57.37-15.72.36 6.29.36 11 .36-6.29.36-7.86.37 3.15.36-3.15.36-6.28.36 15.71.36-23.57.37 40.87.36-6.29.36-11.01.36 3.15.36-4.72.37-7.86h.36l.36 1.58.36 4.71.37 14.15.36 7.86.36-9.43.36-20.44.36 20.44.37-17.29.36 3.14.36-3.14.36-6.29.36 12.57.37 4.72.36 4.71.36-23.57.36 3.14.36 3.14.37 14.15.36-3.14.36-7.86.36-3.15.37 9.43.36-9.43.36 18.87.36-6.29.36 3.14.37-9.43.36-14.15.36 12.58.36 11 .36-18.86.37-12.57.36 7.85.36 17.29.36-17.29.36 4.72.37 14.15.36-9.43.36-7.86.36-4.72.37 37.73.36-20.44.36 11 .36-18.86.36 9.43.37-18.86.36-3.14.36 4.71.36 17.29.36-11 .37 6.29.36-7.86.36 20.43.36-17.29.36 12.58.37-6.29.36-7.86.36-4.72h.36l.36 23.58h.37l.36-6.29.36 3.15.36-15.72.37-6.29.36 4.72.36 9.43h.36l.36-1.57.37 7.86h.36l.36-4.72.36-1.57.36-7.86.37 28.29.36-9.43.36-3.14.36-12.58.36-17.29.37 11.01.36-11.01.36 20.44.36 9.43.37-25.15.36 15.72.36-12.58.36 34.58.36-18.86.37 1.57h.36l.36-18.86.36 7.86h.36l.37 12.57.36-22 .36 18.86.36-18.86.36 31.44.37-7.86.36-20.44.36 23.58.36-3.14.36 1.57.37-3.15.36-7.85.36 4.71.36-9.43.37 11 .36 6.29.36-17.29.36 7.86.36 11 .37-7.86.36-9.43.36-11 .36 29.86.36-31.43.37 28.29.36-20.43.36 6.28.36-6.28.36 18.86.37-6.29h.36l.36 11 .36-7.86.37 4.72.36-14.15h.36l.36-7.86.36-6.28.37 31.43.36-22 .36-1.57.36 29.86.36-26.72.37 4.72.36 12.57.36-14.15.36 1.58.36-14.15.37-6.29.36 14.15.36 9.43.36-11 .36 6.28.37 14.15.36 4.72.36-6.29.36-23.58.37 11 .36 3.15.36 6.28.36-11 .36-12.57.37 23.57.36-1.57.36-18.86.36 26.72.36-1.57.37-3.14.36-12.58.36 11 .36-20.43.36 1.57.37 6.29.36-6.29.36-9.43.36 7.86.37 11 .36-15.71.36 25.14.36-12.57.36 22.01.37-7.86.36-3.15.36 14.15.36-17.29.36 7.86.37-9.43.36 9.43.36-17.29.36-6.29h.36l.37 17.29.36-3.14.36 7.86.36 11 .37-12.58.36 1.58.36-18.87.36 6.29.36 3.15.37-1.58.36 9.43.36-11 .36-4.71.36 11 .37 7.86.36 11 .36-4.71.36-17.29.36-1.58.37 14.15.36 1.57.36-22h.36l.36 23.57.37-3.14.36-7.86.36-4.71.36-18.87.37 9.43.36-7.85.36 1.57.36 4.71h.36l.37 25.15.36 3.15h.36l.36-17.29.36 17.29.37-11.01.36-26.72.36 17.29.36-1.57.36 9.43.37-18.86.36 34.58.36-25.15.36 22.01.37-14.15.36-11 .36 12.57.36-25.15.36 18.86.37 3.15.36-12.58.36 14.15.36-3.14.36-3.15.37-1.57.36-7.86.36 14.15.36-14.15.36 9.43.37-1.57.36 12.57.36 1.58.36-14.15.36 12.57.37-28.29.36 6.29.36 11 .36-4.71.37 6.28.36 6.29.36 22.01.36-23.58.36-1.57.37-4.72.36-4.71.36-1.58.36 20.44.36-15.72.37 7.86.36-17.29h.36l.36 23.58.36-7.86.37-1.57.36 3.14.36 12.57.36-12.57.37-3.14.36-1.58.36-18.86.36 40.87.36-9.43.37 1.57.36-6.29.36-20.43.36 31.44.36-6.29.37-14.15.36-7.86.36 14.15.36-1.57h.36l.37-6.29.36 22.01h.36l.36-17.29.36 12.57h.37l.36-6.29.36-7.86.36-12.57.37 6.29.36-1.58.36 7.86.36-4.71.36 14.14.37-3.14.36 3.14.36-17.29.36-1.57.36 4.72.37 4.71.36-15.71.36 9.43.36 9.43.36 25.15.37-23.58.36 18.86.36-23.58.36-9.43.37 1.57.36 11.01.36-11.01.36 3.15.36-3.15.37-4.71.36 7.86.36 11h.72l.37-9.43.36 3.14.36-7.86.36 9.44.36 1.57h.37l.36 6.28.36-4.71.36 1.57.37-17.29.36 7.86.36 20.43.36-26.72.36 4.72.37 6.29.36 6.28.36-1.57.36-17.29.36 1.57h.37l.36 9.43.36-1.57.36 7.86.36 4.72h.37l.36-3.15h.36l.36 3.15.36 3.14.37-3.14.36-17.29.36 3.14.36 14.15.37-1.58.36-14.14.36 28.29.36-18.86.36-6.29.37 22.01.36-31.44.36 12.58.36-20.44.36 31.44.37-7.86.36-6.29.36 1.57.36 11.01.36 1.57.37-1.57.36-9.43.36 1.57.36-7.86.37 4.71.36 18.87.36-9.44.36-7.85.36 20.43.37-36.15.36 15.72.36 7.85.36-6.28.36-1.57h.37l.36-17.29.36 20.43.36-6.29.36 4.72h.37l.36-7.86.36 18.86.36 7.86h.36l.37-29.87.36-1.57.36 3.15.36 18.86.37 1.57.36-6.29.36-9.43.36-14.14.36 3.14.37 23.58.36-4.72.36 6.29.36-14.15.36 7.86.37-11 .36 6.29.36 9.43.36 4.71.36-14.14.37 7.85.36-12.57.36 7.86.36-12.58.37 6.29.36-7.86.36 15.72.36 15.72.36-9.43.37-3.15.36-18.86.36 31.44.36-14.15.36-14.14.37 11 .36-12.58.36 12.58.36-3.14.36 1.57.37-14.15.36 20.43.36 17.3.36-11.01.36 3.15.37-14.15h.36l.36-6.29.36-18.86h.37l.36 14.15h.36l.36 12.57.36-18.86.37 7.86.36 18.86.36-12.57.36 17.29.36 1.57.37-9.43.36 1.57.36-3.15.36 1.58.36-9.43.37-4.72.36 1.57.36-7.86.36 26.72.37-6.28.36-9.43.36-3.15.36-9.43.36 6.29.37-9.43.36-6.29.36 22.01.36 3.14.36-4.72.37 9.43.36 6.29.36-12.57h.36l.36-9.43.37 17.29.36-6.29.36-3.14.36 11 .37 4.71.36-23.57.36-3.15.36 15.72.36-17.29.37 9.43h.72l.36-3.14.36 4.71.37 9.43.36-3.14.36 4.72.36-20.44.36 12.58.37 3.14.36-1.57.36-15.72.36 9.43.36-12.57.37 22 .36 4.72.36-9.43.36-14.15.37 12.58.36-14.15.36 12.57.36 14.15.36-14.15.37 7.86.36-3.14.36 20.43"/><use xlink:href="#04528__e" color="#FFAB00" transform="matrix(3.75 0 0 3.75 67.83 87.6)"/><use xlink:href="#04528__e" color="#FFAB00" transform="matrix(3.75 0 0 3.75 112.25 22.51)"/></g><text stroke-linecap="round" stroke-linejoin="round" color="#000" font-family="KaTeX_Main" font-size="8" transform="translate(241.1 10.11)"><tspan>WBSTBottomUp</tspan></text><g fill="none" stroke="currentColor" stroke-linecap="round" stroke-linejoin="round" color="#000"><path stroke="#000" d="M205.6 7.51h29.9M28 128.47l.36 3.15.36-4.72.37 3.15.36 9.43.36-9.43.36 1.57.36-3.15.37 6.29.36-7.86.36-3.14.36 3.14h.37l.36 3.15.36 3.14.36-3.14.36 3.14.37-15.72.36 11 .36-3.14.36 3.14.36 3.15h.37l.36-3.15.36 1.58h.72l.37-1.58.36 3.15.36 1.57.36-4.72h.36l.37 1.58.36 1.57.36-7.86.36-4.72.37 14.15.36-1.57h.36l.36-6.29.36 7.86.37-6.29.36 7.86.36-9.43.36 3.14.36 6.29.37-6.29h1.08l.36 1.58.37-6.29.36 7.86.36-6.29.36 3.14h.37l.36-1.57h.36l.36 6.29.36-1.57.37 1.57.36-7.86h.36l.36 3.14.36-3.14.37-1.57.36 3.14h.36l.36 9.43.36-11 .37 4.72.36-9.44.36 12.58.36-3.14h.37l.36-6.29.36 9.43.36-6.29.36-1.57.37-1.57.36 6.29.36 1.57.36-4.72.36-6.29.37 4.72.36 9.43.36-4.71.36-1.58.36 3.15.37-4.72.36-1.57.36 1.57.36 1.57.36 1.58.37-4.72.36 1.57.36-1.57.36 3.14.37-4.71.36 4.71.36 1.58h.36l.36 1.57.37-14.15.36 14.15.36-6.29.36-3.14.36 3.14.37 1.57.36 1.57.36-3.14.36-3.14.36 3.14.37 3.14.36 1.58.36-3.15.36 4.72.37 3.14.36-4.71h.36l.36-3.15h.36l.37 3.15.36-3.15h.72l.36 3.15.37 1.57.36-4.72.36-1.57h.36l.36 3.14.37 1.58.36-4.72.36-1.57.36 1.57.36 4.72.37-4.72.36 1.57.36-4.71.36 9.43h.37l.36-1.57.36-1.58.36 3.15.36-3.15.37-1.57.36 4.72.36-3.15.36 1.58.36 1.57.37-4.72.36 4.72.36 4.71.36-7.86.36-3.14.37 4.72h.36l.36 1.57.36-4.72.37-1.57.36 1.57.36-6.29.36 7.86.36 1.58.37-3.15.36 1.57.36 3.15.36 1.57.36-7.86.37 3.14.36-7.86.36 9.44.36-3.15.36 4.72.37-11.01.36 12.58.36-7.86.36-1.57.36-1.57.37 6.28.36 4.72.36-7.86.36 4.72.37-6.29.36 7.86.36 1.57.36-3.14.36-3.15.37-7.86.36 9.43h.36l.36 1.58.36-1.58.37 3.15.36-4.72.36 4.72.36-3.15.36 1.58.37 3.14.36-3.14h.36l.36-3.15.37-1.57.36 1.57.36-3.14.36 6.29.36-1.58h.37l.36-3.14.36 3.14.36-1.57.36 4.72h.37l.36-3.15.36-1.57.36 3.15.36 1.57.37-4.72h.72l.36 3.15.37-4.72h.36l.36 3.14.36-3.14.36 6.29.37-7.86.36 4.71.36 3.15.36 4.71.36-4.71h.37l.36-4.72.36 3.15.36-4.72.36-1.57.37 3.14.36 1.57.36-4.71.36 4.71.36-4.71.37 4.71.36-4.71.36 7.86h.73l.36 1.57.36-6.29h.36l.36 3.15.37-4.72.36 6.29.36-3.15h1.09l.36-1.57.36-1.57h.36l.36 7.86.37-6.29.36 7.86.36-7.86.36 6.29.37-7.86h.36l.36 1.57.36 6.29.36-4.72h.37l.36-1.57.36 1.57.36-11 .36 1.57.37 6.29.36 6.29.36-3.15.36 3.15.36-4.72.37 1.57h.36l.36-3.14.36 4.72.36-4.72.37 3.14h.36l.36-3.14.36 6.29.37-3.15h.36l.36-3.14.36 7.86.36-9.43.37 7.86h.36l.36 4.71.36-7.86.36 3.15.37-4.72.36 1.57.36-1.57.36 3.15.36-6.29.37 3.14.36 1.57.36-3.14.36-3.14.37 9.43.36-1.57.36-3.15.36 3.15.36 1.57.37-3.15.36 4.72.36-4.72.36 1.58h.73l.36-4.72.36 1.57.36 1.57.36 1.58.37-3.15.36 4.72.36-6.29.36 4.72.36 3.14.37-4.72.36-1.57.36 1.57.36-6.28.37 9.43.36-6.29.36 3.14.36 1.58.36 1.57.37-3.15h.36l.36-1.57.36 9.43.36-3.14.37-6.29h.36l.36 3.15h.72l.37-1.58.36 3.15h.36l.36-4.72.37-3.14.36 1.57.36 4.72.36-3.15h.36l.37-1.57.36 4.72.36-1.58.36-1.57.36 6.29.37-6.29.36 1.57.36 1.58.36 3.14.36-1.57.37 4.71.36-7.86.36 3.15.36-4.72.37 1.57.36 1.58.36 1.57.36-3.15.36 3.15.37 3.14.36-1.57.36-4.72.36-1.57.36-3.14.37 3.14.36 1.57.36-1.57.36 1.57.36-3.14.37 1.57h.36l.36 1.57.36 3.15.36 4.71.37-3.14.36-3.14.36-1.58.36-1.57.37 4.72.36-3.15.36 4.72.36-6.29.36 3.15h.37l.36-1.58.36-3.14.36-4.72.36 3.15.37 6.29.36-3.15.36 3.15.36 1.57.36-4.72.37 4.72.36-4.72h.36l.36 6.29.37-3.14.36-1.58.36-6.28.36 11 .36-7.86.37-1.57.36 1.57.36 1.57.36 3.15.36 1.57.37-3.15.36 1.58.36 1.57.36-1.57.36-3.15.37 1.57.36 1.58h.36l.36-4.72.36 6.29.37-3.15h.36l.36-3.14.36 7.86h.37l.36-4.72.36 4.72.36-1.57.36-3.15.37 3.15.36 3.14.36-6.29.36 1.58h.36l.37 1.57h.36l.36 1.57.36-4.72.36-7.86.37 15.72.36-4.71.36-3.15.36-3.14.37 1.57.36 4.72.36 1.57.36-4.72.36 6.29.37-7.86.36 4.72.36-7.86.36-1.57.36 6.28h.37l.36-3.14.36 7.86.36-1.57.36-1.57.37-3.15.36 1.57.36 1.58.36-6.29.37 6.29h.36l.36 1.57.36-3.15.36-1.57.37 3.15.36-4.72h.72l.36 9.43.37-4.71h.36l.36-7.86.36 4.71.36-1.57.37 1.57h.36l.36 3.15.36 1.57.36 3.14.37-12.57.36 7.86.36-4.72.36 6.29.37-6.29.36 4.72.36 3.14.36-1.57.36-3.15h.37l.36-3.14.36 3.14h1.09l.36-7.86.36 7.86.36-3.14h.73l.36-3.14.36 11 .36-3.14h.37l.36-3.15.36 7.86.36-9.43.36 6.29.37-6.29.36 6.29.36-4.72.36 3.15.36-1.58.37-4.71.36-1.57.36 3.14h.36l.36 9.43.37-4.71h.36l.36 1.57.36-1.57.36-1.58.37-7.86.36 6.29h.36l.36 6.29.37-4.72.36-3.14.36 4.72h.36l.36-3.15h.37l.36 3.15.36-3.15.36 9.43.36-11 .37 3.14.36 3.15h.36l.36-4.72.36 3.15.37 1.57h.36l.36-7.86.36 3.14.37 4.72.36-3.15.36-6.28.36 4.71.36 4.72.37 1.57.36-3.14h.36l.36-3.15h.36l.37 3.15.36-4.72.36 4.72.36-4.72.36 3.14h.37l.36-1.57h.36l.36 4.72.36 4.71.37-9.43.36 1.57.36-1.57.36 3.15.37-6.29.36 3.14.36 1.57.36 6.29.36-9.43.37 6.29.36-3.15.36 3.15.36-4.72h.73l.36 4.72.36-3.15h.36l.36 1.58.37-1.58h.36l.36 1.58.36-4.72.37 9.43.36-7.86.36-6.29.36 7.86.36-3.14.37 6.29.36-9.43.36 3.14.36 7.86.36-4.72.37 3.15.36-9.43.36 7.86.36-3.15.36 3.15.37-1.58.36 3.15.36-1.57.36 1.57.37-9.43.36 4.71.36 1.57.36 3.15.36-4.72.37 1.57.36 1.58h.36l.36-1.58h.36l.37-1.57.36-4.71.36 4.71h.72l.37 9.43.36-3.14.36-7.86.36-6.29.36 7.86h.37l.36 6.29h.36l.36-6.29.37 1.57.36 1.58.36-3.15h.36l.36-7.86.37 14.15.36-3.14h.36l.36 1.57.36 1.57.37-9.43.36 3.14.36-3.14h.36l.36 7.86.37-6.29.36 3.14.36 3.15.36 3.14.37-4.71.36-4.72.36 6.29.36-4.72.36 1.57.37-1.57.36 3.15.36 1.57.36-9.43.36 1.57.37 7.86h.72l.36-4.72.36 1.57.37 1.58h.36l.36-4.72.36 11 .36-7.86.37 3.15.36-9.43.36 9.43.36-3.15.37-1.57.36-4.71.36 4.71.36 3.15.36 1.57.37-1.57.36 1.57.36 3.14.36-6.29.36 6.29.37-6.29.36 1.58.36-3.15.36 3.15h1.09l.36-4.72.36 4.72.37-3.15h1.08l.36-4.71.37 6.28h.36l.36 1.58.36-6.29.36 4.71.37-1.57.36 6.29.36-7.86h.72l.37 9.43.36-1.57.36-11 .36 3.14.36 3.14.37 6.29.36-7.86.36 3.15.36 1.57.37 4.71.36-4.71.36-7.86.36 6.29.36-1.58.37-3.14h.36l.36 7.86.36-3.14.36 1.57.37-3.15h.72l.36-1.57.36 1.57.37 6.29.36-6.29.36-1.57.36-3.14.37 1.57.36 1.57h.36l.36-4.71.36 11 .37-3.14h.36l.36-1.58.36 1.58.36-3.15h.37l.36 1.57h.36l.36 1.58h.73l.36-6.29.36-1.57.36 9.43.37-4.72.36 1.57.36 3.15.36 1.57.36-3.14.37 4.71.36-12.57.36 4.71.36 3.15.36-3.15.37 1.57.36-3.14.36 3.14.36 1.58.36-12.58.37 11 .36-6.28.36 9.43.36-3.15.36 3.15.37-1.57.36 3.14.36-4.72.36-6.28.37 4.71h.36l.36 3.15.36-3.15.36 3.15.37-4.72.36 1.57.36 4.72.36-6.29.36 4.72h.37l.36 1.57.36-4.72.36 6.29.36-4.72.37 7.86.36-11 .36 6.29.36-4.72.37 1.57.36-1.57.36-1.57.36 1.57.36-1.57.37-3.14.36 9.43.36-3.15h.36l.36 3.15.37-3.15h.36l.36 6.29.36-3.14.36-6.29.37 1.57.36-1.57.36 3.14h.72l.37-1.57h.36l.36 3.15.36-9.44.37 7.86.36-3.14.36 7.86.36-9.43.36 9.43.37-3.14.36 3.14.36-3.14.36-4.72.36 1.57.37 4.72.36-6.29.36 1.57.36 3.15.36-3.15.37 3.15.36-4.72h.36l.36 3.14h.37l.36 1.58.36-3.15.36 6.29.36-1.57.37-7.86.36-1.57h.36l.36 6.28h.36l.37-3.14.36 6.29.36 3.14.36-6.29.36-4.71.37 3.14.36-3.14.36 11 .36-7.86h.36l.37 1.57.36 4.72.36-4.72.36-6.28.37 6.28.36-3.14.36-3.14.36 11 .36 1.57.37-1.57h.36l.36-6.29.36 4.72.36-3.15h.37l.36 6.29.36-4.71.36 3.14.36-6.29h.37l.36 4.72.36-6.29.36 3.14h.73l.36 3.15.36-3.15.36 1.58.37-4.72.36 4.72.36-1.58.36 1.58.36-4.72.37 6.29.36-3.15h.36l.36-6.28.36 1.57.37-1.57.36 7.86.36 4.71.36-4.71.37 3.14.36 1.57.36-1.57.36-9.43.36-3.15.37 9.44.36 1.57.36-6.29h.36l.36 7.86.37-3.14.36-4.72h.36l.36 6.29.36 4.71.37-6.28.36-1.58.36 3.15h.36l.36-1.57.37-6.29.36 4.71h.72l.37-1.57.36 3.15.36-4.72.36 4.72.36-4.72.37 1.57.36 3.15.36 1.57"/><use xlink:href="#04528__a" transform="matrix(3.75 0 0 3.75 125.4 128.47)"/><use xlink:href="#04528__a" transform="matrix(3.75 0 0 3.75 220.55 7.51)"/></g><text stroke-linecap="round" stroke-linejoin="round" color="#000" font-family="KaTeX_Main" font-size="8" transform="translate(241.1 25.11)"><tspan>WBSTRelaxed</tspan></text><g fill="none" stroke="currentColor" stroke-linecap="round" stroke-linejoin="round" color="#000"><path stroke="violet" stroke-dasharray="4.5,2.0,0.5,2.0,0.5,2.0" d="M205.6 22.51h29.9M28 78.54l.36.35.36.33.37.33.36.32.36.32.36-6.53.36.31.37.3.36.3.36-3.11.36.29.37.29.36-3.11.36.28.36.27.36.27.37-3.1.36.26.36.26.36.25.36.26.37.24.36.25.36-3.11.36.24.36.23.37.24.36.22.36.23.36.22.36-3.11.37.22.36.22.36-3.11.36.22.37.21.36.21.36.2.36.2.36.2.37.2.36.19.36.19.36.19.36.19.37.18.36.19.36-3.1.36.18.36.18h.37l.36-9.83h6.15l.37 6.55h3.98l.36-6.55h9.42l.36 6.55h1.81l.36-6.55h.73l.36 6.55h1.81l.36-6.55h1.45l.36 6.55h4.71l.36-6.55h3.26l.36 6.55h17.74l.37-6.55h11.22l.36 6.55h.36l.37-6.55h.72l.36 6.55.36-6.55.37 6.55h5.43l.36-6.55h22.45l.36 6.55h4.35l.36-6.55h3.62l.36 6.55h29.33l.36-6.55h2.54l.36 6.55h7.97l.36-6.55h2.17l.36 6.55h22.82l.36-6.55h1.81l.36 6.55h11.23l.36 6.55h2.17l.36-6.55h7.61l.36-6.55h10.5l.36 6.55h7.97l.36-6.55h3.26l.36 6.55h4.35l.36-6.55h3.98l.36 6.55h13.76l.36-6.55h13.76l.37 6.55h4.34l.36-6.55h27.16l.36 6.55h9.05l.37-6.55h3.98l.36 6.55h2.54l.36-6.55h2.17l.36 6.55h1.45l.36 6.55h5.8l.36-6.55h8.33l.36-6.55"/><use xlink:href="#04528__f" color="violet" transform="matrix(3.75 0 0 3.75 182.98 50.66)"/><use xlink:href="#04528__f" color="violet" transform="matrix(3.75 0 0 3.75 220.55 22.51)"/></g><path fill="none" d="M28 45.01V162.5M371.99 45.01H28" color="#000"/></svg>