<svg xmlns="http://www.w3.org/2000/svg" xmlns:xlink="http://www.w3.org/1999/xlink" viewBox="0 0 400 200"><path fill="none" d="M0 0h400v200H0z"/><defs><use xlink:href="#6698e__a" id="6698e__f" stroke="currentColor" transform="rotate(180)"/><use xlink:href="#6698e__b" id="6698e__c" stroke="currentColor" transform="rotate(45)"/><use xlink:href="#6698e__c" id="6698e__e" fill="currentColor" stroke="none"/><path id="6698e__b" stroke="currentColor" stroke-width=".267" d="M-1-1h2v2h-2z"/><path id="6698e__a" stroke="currentColor" stroke-width=".267" d="m0-1.33-1.33 2h2.66z"/><circle id="6698e__d" cx="0" cy="0" r="1" stroke="currentColor" stroke-width=".267"/></defs><path fill="none" stroke="#CCC" stroke-linecap="round" stroke-linejoin="round" stroke-width=".1" d="M46.1 162.5V45.01" class="6698e__gridline" color="#000"/><g fill="none" stroke-linecap="round" stroke-linejoin="round" stroke-width="0" color="#000"><path d="M46.1 162.5V155m0-109.99v7.5"/><text fill="#000" font-family="KaTeX_Main" font-size="8" text-anchor="middle" transform="translate(46.1 172.6)"><tspan> 1</tspan></text></g><path fill="none" stroke="#CCC" stroke-linecap="round" stroke-linejoin="round" stroke-width=".1" d="M82.31 162.5V45.01" class="6698e__gridline" color="#000"/><g fill="none" stroke-linecap="round" stroke-linejoin="round" stroke-width="0" color="#000"><path d="M82.31 162.5V155m0-109.99v7.5"/><text fill="#000" font-family="KaTeX_Main" font-size="8" text-anchor="middle" transform="translate(82.31 172.6)"><tspan> 2</tspan></text></g><path fill="none" stroke="#CCC" stroke-linecap="round" stroke-linejoin="round" stroke-width=".1" d="M118.52 162.5V45.01" class="6698e__gridline" color="#000"/><g fill="none" stroke-linecap="round" stroke-linejoin="round" stroke-width="0" color="#000"><path d="M118.52 162.5V155m0-109.99v7.5"/><text fill="#000" font-family="KaTeX_Main" font-size="8" text-anchor="middle" transform="translate(118.52 172.6)"><tspan> 3</tspan></text></g><path fill="none" stroke="#CCC" stroke-linecap="round" stroke-linejoin="round" stroke-width=".1" d="M154.73 162.5V45.01" class="6698e__gridline" color="#000"/><g fill="none" stroke-linecap="round" stroke-linejoin="round" stroke-width="0" color="#000"><path d="M154.73 162.5V155m0-109.99v7.5"/><text fill="#000" font-family="KaTeX_Main" font-size="8" text-anchor="middle" transform="translate(154.73 172.6)"><tspan> 4</tspan></text></g><path fill="none" stroke="#CCC" stroke-linecap="round" stroke-linejoin="round" stroke-width=".1" d="M190.94 162.5V45.01" class="6698e__gridline" color="#000"/><g fill="none" stroke-linecap="round" stroke-linejoin="round" stroke-width="0" color="#000"><path d="M190.94 162.5V155m0-109.99v7.5"/><text fill="#000" font-family="KaTeX_Main" font-size="8" text-anchor="middle" transform="translate(190.94 172.6)"><tspan> 5</tspan></text></g><path fill="none" stroke="#CCC" stroke-linecap="round" stroke-linejoin="round" stroke-width=".1" d="M227.15 162.5V45.01" class="6698e__gridline" color="#000"/><g fill="none" stroke-linecap="round" stroke-linejoin="round" stroke-width="0" color="#000"><path d="M227.15 162.5V155m0-109.99v7.5"/><text fill="#000" font-family="KaTeX_Main" font-size="8" text-anchor="middle" transform="translate(227.15 172.6)"><tspan> 6</tspan></text></g><path fill="none" stroke="#CCC" stroke-linecap="round" stroke-linejoin="round" stroke-width=".1" d="M263.36 162.5V45.01" class="6698e__gridline" color="#000"/><g fill="none" stroke-linecap="round" stroke-linejoin="round" stroke-width="0" color="#000"><path d="M263.36 162.5V155m0-109.99v7.5"/><text fill="#000" font-family="KaTeX_Main" font-size="8" text-anchor="middle" transform="translate(263.36 172.6)"><tspan> 7</tspan></text></g><path fill="none" stroke="#CCC" stroke-linecap="round" stroke-linejoin="round" stroke-width=".1" d="M299.57 162.5V45.01" class="6698e__gridline" color="#000"/><g fill="none" stroke-linecap="round" stroke-linejoin="round" stroke-width="0" color="#000"><path d="M299.57 162.5V155m0-109.99v7.5"/><text fill="#000" font-family="KaTeX_Main" font-size="8" text-anchor="middle" transform="translate(299.57 172.6)"><tspan> 8</tspan></text></g><path fill="none" stroke="#CCC" stroke-linecap="round" stroke-linejoin="round" stroke-width=".1" d="M335.78 162.5V45.01" class="6698e__gridline" color="#000"/><g fill="none" stroke-linecap="round" stroke-linejoin="round" stroke-width="0" color="#000"><path d="M335.78 162.5V155m0-109.99v7.5"/><text fill="#000" font-family="KaTeX_Main" font-size="8" text-anchor="middle" transform="translate(335.78 172.6)"><tspan> 9</tspan></text></g><path fill="none" stroke="#CCC" stroke-linecap="round" stroke-linejoin="round" stroke-width=".1" d="M371.99 162.5V45.01" class="6698e__gridline" color="#000"/><g fill="none" stroke-linecap="round" stroke-linejoin="round" stroke-width="0" color="#000"><path d="M371.99 162.5V155m0-109.99v7.5"/><text fill="#000" font-family="KaTeX_Main" font-size="8" text-anchor="middle" transform="translate(371.99 172.6)"><tspan> 10</tspan></text></g><g fill="none" stroke-linecap="round" stroke-linejoin="round" stroke-width="0" color="#000"><path d="M371.99 162.5h-7.5"/><text fill="#000" font-family="KaTeX_Main" font-size="8" transform="translate(378.99 165.1)"><tspan>1.20</tspan></text></g><g fill="none" stroke-linecap="round" stroke-linejoin="round" stroke-width="0" color="#000"><path d="M371.99 145.72h-7.5"/><text fill="#000" font-family="KaTeX_Main" font-size="8" transform="translate(378.99 148.32)"><tspan>1.40</tspan></text></g><g fill="none" stroke-linecap="round" stroke-linejoin="round" stroke-width="0" color="#000"><path d="M371.99 128.93h-7.5"/><text fill="#000" font-family="KaTeX_Main" font-size="8" transform="translate(378.99 131.53)"><tspan>1.60</tspan></text></g><g fill="none" stroke-linecap="round" stroke-linejoin="round" stroke-width="0" color="#000"><path d="M371.99 112.15h-7.5"/><text fill="#000" font-family="KaTeX_Main" font-size="8" transform="translate(378.99 114.75)"><tspan>1.80</tspan></text></g><g fill="none" stroke-linecap="round" stroke-linejoin="round" stroke-width="0" color="#000"><path d="M371.99 95.36h-7.5"/><text fill="#000" font-family="KaTeX_Main" font-size="8" transform="translate(378.99 97.96)"><tspan>2.00</tspan></text></g><g fill="none" stroke-linecap="round" stroke-linejoin="round" stroke-width="0" color="#000"><path d="M371.99 78.58h-7.5"/><text fill="#000" font-family="KaTeX_Main" font-size="8" transform="translate(378.99 81.18)"><tspan>2.20</tspan></text></g><g fill="none" stroke-linecap="round" stroke-linejoin="round" stroke-width="0" color="#000"><path d="M371.99 61.79h-7.5"/><text fill="#000" font-family="KaTeX_Main" font-size="8" transform="translate(378.99 64.39)"><tspan>2.40</tspan></text></g><g fill="none" stroke-linecap="round" stroke-linejoin="round" stroke-width="0" color="#000"><path d="M371.99 45.01h-7.5"/><text fill="#000" font-family="KaTeX_Main" font-size="8" transform="translate(378.99 47.61)"><tspan>2.60</tspan></text></g><path fill="none" d="M28 45.01V162.5M371.99 45.01H28" color="#000"/><text stroke-linecap="round" stroke-linejoin="round" stroke-width="0" color="#000" font-family="KaTeX_Main" font-size="10" text-anchor="middle" transform="rotate(-90 57.63 46.13)"><tspan font-weight="bold">Maximum Path Length </tspan><tspan> / log</tspan><tspan dy="3" font-size="8">2</tspan><tspan dy="-3">(Size)</tspan></text><text stroke-linecap="round" stroke-linejoin="round" stroke-width="0" color="#000" font-family="KaTeX_Main" font-size="10" text-anchor="middle" transform="translate(199.99 195.75)"><tspan>Operations / 10</tspan><tspan dy="-5" font-size="8">6</tspan></text><text stroke-linecap="round" stroke-linejoin="round" color="#000" font-family="KaTeX_Main" font-size="8" transform="translate(132.8 10.11)"><tspan>LBSTBottomUp</tspan></text><g fill="none" stroke="currentColor" stroke-linecap="round" stroke-linejoin="round" color="#000"><path stroke="#3B75EA" d="M97.3 7.51h29.9M28 156.82l.36.16.36.15.37.16.36.15.36-4.26.36.15.36.15.37.14.36 4.52.36-4.24.36.14.37.13.36.13.36.13.36.13.36-4.22.37.12.36 4.46.36.12.36 4.44.36.11.37-4.21.36.11.36 4.41.36.11.36.1.37.1.36-4.19.36.1.36.1.36-4.18.37 4.37.36.09.36.1.36.09.37.09.36.09.36-4.16.36.09.36 4.33.37.09.36.08.36.09.36.08.36.08.37-4.14.36.08.36.08.36.08.36 4.29.37.08.36.07.36.08.36.07.37.07.36.08.36.07.36.07.36.07.37-4.12.36.07.36.07.36.07.36.07.37.07.36-4.1.36.07.36 4.23.36-4.09.37.06.36.07.36.07.36.06.37.07.36.06.36.06.36.07.36.06.37.06.36.06.36.06.36.06.36.06.37.06.36.06.36.06.36.06.36 4.17.37.05.36.06.36.05.36.05.36.06.37.05.36.05.36.05.36.05.37.05.36.05.36.05.36.05.36.05.37.05.36.05.36.05.36.05.36.04.37.05.36.05.36.04.36.05.36.05.37.04.36-4.02.36 4.11.36.05.37.04.36.05.36.04.36.04.36.05.37.04.36.04.36.04.36.05.36-4.01.37.04.36.05.36.04.36.04.36.04.37.05.36.04.36.04.36.04.36.04.37.04.36.04.36.04.36.04.37.04.36.04.36 4.06.36.03.36.04.37.04.36-3.98.36.04.36.04.36.03.37.04.36.04.36.03.36.04.36.04.37.03.36.04.36 4.03.36-3.96.37.04.36.03.36.04.36.03.36.04.37.03.36 4.02.36.04.36.03.36-3.95.37 4.01.36-3.95.36.04.36.03.36.03.37.04.36.03.36.03.36.03.36.03.37.04.36.03.36.03.36.03.37.03.36.03.36.03.36.04.36.03.37.03.36.03.36.03.36.03.36.03.37.03.36.03.36.03.36.03.36.03.37.03.36.02.36.03.36.03.37.03.36.03.36.03.36.02.36.03.37.03.36.03.36.03.36.02.36.03.37.03.36.03.36.02.36.03.36.03.37.02.36.03.36.03.36-3.9.37.02.36.03.36.03.36.03.36.02.37.03.36.03.36.02.36.03.36.03.37 3.94.36.02.36.03.36.02.36.03.37.02.36.03.36.02.36.03.36.02.37.03.36.02.36.02.36.03.37.02.36.03.36.02.36.02.36.03.37.02.36.02.36.03.36.02.36.02.37.03.36.02.36.02.36.03.36.02.37.02.36.02.36.03.36.02.37.02.36.02.36.02.36.03.36.02.37.02.36.02.36.02.36.03.36.02.37.02.36.02.36.02.36.02.36.02.37.03.36.02.36.02.36.02.36.02.37.02.36.02.36.02.36.02.37.02.36.02.36.02.36.02.36.02.37.02.36.02.36.02.36.02.36.03.37.01.36.02.36.02.36.02.36.02.37.02.36.02.36.02.36.02.37.02.36.02.36.02.36.02.36.02.37.02.36.01.36.02.36.02.36.02.37.02.36.02.36.02.36.02.36.01.37.02.36.02.36.02.36.02.36.02.37.01.36.02.36.02.36.02.37.02.36.01.36-3.82.36.02.36.02.37.02.36.02.36.02.36.01.36.02.37.02.36.02.36.02.36.01.36.02.37.02.36.02.36.02.36.01.37.02.36.02.36.02.36.01.36.02.37.02.36.02.36.01.36.02.36.02.37.01.36.02.36.02.36.01.36.02.37.02.36.02.36.01.36.02.37.02.36.01.36.02.36.02.36.01.37.02.36.02.36.01.36.02.36.01.37.02.36.02.36.01.36.02.36.02.37.01.36.02.36.01.36.02.36.02.37.01.36.02.36.01.36.02.37.01.36.02.36.02.36.01.36.02.37.01.36.02.36.01.36.02.36.01.37.02.36.01.36.02.36.01.36.02.37.01.36.02.36.01.36.02.37.01.36.02.36.01.36.02.36.01.37.02.36.01.36.02.36.01.36.02.37.01.36-3.77.36.02.36.01.36.02.37.01.36 3.8.36.01.36.02.36.01.37.02.36.01.36.01.36.02.37.01.36.02.36-3.77.36.02.36.01.37.02.36.01.36.02.36.01.36.02.37.01.36.01.36.02.36.01.36.02.37.01.36.01.36.02.36 3.78.37.01.36-3.75.36.01.36.02.36 3.78.37-3.75.36.01.36.01.36.02.36.01.37.02.36.01.36.01.36.02.36.01.37.01.36.02.36.01.36.01.37.02.36.01.36.01.36.02.36.01.37.01.36.02.36.01.36.01.36.02.37.01.36.01.36.02.36.01.36.01.37.01.36.02.36-3.74.36.01.36.02.37.01.36.01.36.02.36.01.37 3.76.36.01.36.02.36.01.36.01.37 3.76.36.01.36.01.36.02.36.01.37.01.36.01.36.02.36.01.36.01.37.01.36.01.36.01.36.02.37.01.36.01.36.01.36.01.36.02.37.01.36.01.36.01.36.01.36.02.37.01.36.01.36.01.36.01.36.01.37.01.36.02.36.01.36.01.36.01.37.01.36.01.36.01.36.02.37.01.36.01.36.01.36.01.36.01.37.01.36.01.36.02.36.01.36.01.37.01.36.01.36.01.36.01.36.01.37.01.36.02.36.01.36.01.37.01.36.01.36.01.36.01.36.01.37.01.36.01.36.01.36.02.36.01.37.01.36.01.36.01.36.01.36.01.37.01.36.01.36.01.36.01.36.01.37.01.36.01.36.01.36.01.37.01.36.01.36.02.36.01.36.01.37.01.36.01.36.01.36.01.36.01.37.01.36.01.36.01.36.01.36.01.37.01.36.01.36.01.36.01.37.01.36.01.36.01.36.01.36.01.37.01.36.01.36.01.36.01.36.01.37.01.36.01.36.01.36.01.36.01.37.01.36.01.36.01.36.01.37.01.36.01.36.01.36.01.36.01.37.01.36.01.36.01.36.01.36.01.37.01.36.01.36.01h.36l.36.01.37-3.68.36.01.36.01.36.01.36.01.37.01.36.01.36.01.36.01.37.01.36.01.36.01.36.01.36.01.37.01.36.01.36.01.36.01h.36l.37.01.36.01.36.01.36.01.36.01.37.01.36.01.36.01.36.01.37.01.36.01.36.01.36.01.36.01.37.01.36.01.36.01.36.01h.36l.37.01.36.01.36.01.36.01.36.01.37.01.36.01.36.01.36.01.36.01.37.01.36.01h.36l.36.01.37.01.36.01.36.01.36.01.36.01.37.01.36.01.36.01.36.01h.36l.37.01.36.01.36.01.36.01.36.01.37.01.36.01.36.01h.36l.37.01.36.01.36.01.36.01.36.01.37.01.36.01h.36l.36.01.36.01.37.01.36.01.36.01.36.01.36.01h.37l.36.01.36.01.36.01.36.01.37.01.36.01.36.01h.36l.37.01.36.01.36.01.36.01.36.01h.37l.36.01.36.01.36.01.36.01.37.01.36.01h.36l.36.01.36.01.37.01.36.01.36.01h.36l.37.01.36.01.36.01.36.01.36.01h.37l.36.01.36.01.36.01.36.01.37.01h.36l.36.01.36.01.36.01.37.01h.36l.36.01.36.01.37.01.36.01h.36l.36.01.36.01.37.01.36.01.36.01h.36l.36.01.37.01.36.01.36.01h.36l.36.01.37.01.36.01h.36l.36.01.36-3.64.37.01.36.01.36 3.65.36.01.37.01.36.01.36.01h.36l.36.01.37.01.36.01h.36l.36.01.36.01.37.01.36.01h.36l.36.01.36.01.37.01h.36l.36.01.36.01.37.01h.36l.36.01.36.01.36.01.37.01h.36l.36.01.36.01.36.01h.37l.36.01.36.01.36.01h.36l.37.01.36.01.36.01h.36l.36.01.37.01.36.01h.36l.36.01.37.01.36.01h.36l.36.01.36.01.37.01h.36l.36.01.36.01h.36l.37.01.36.01.36.01h.36l.36.01.37.01.36.01h.36l.36.01.37.01h.36l.36.01.36.01.36.01h.37l.36.01.36.01h.36l.36.01.37.01.36.01h.36l.36.01.36.01.37.01h.36l.36.01.36.01h.36l.37.01.36.01h.36l.36.01.37.01.36.01h.36l.36.01.36.01h.37l.36.01.36.01.36.01h.36l.37.01.36.01h.36l.36.01.36.01h.37l.36.01.36.01h.36l.37.01.36.01.36.01h.36l.36.01.37.01h.36l.36.01.36.01.36-3.62.37.01.36.01.36.01h.36l.36.01.37.01h.36l.36.01.36.01h.37l.36.01.36.01h.36l.36.01.37.01.36.01h.36l.36.01.36.01h.37l.36.01.36.01.36 3.62h.36l.37.01.36.01h.36l.36.01.36.01h.37l.36.01.36.01h.36l.37.01.36.01h.36l.36.01.36.01h.37l.36.01.36.01"/><use xlink:href="#6698e__d" color="#3B75EA" transform="matrix(3.75 0 0 3.75 354.25 158.22)"/><use xlink:href="#6698e__d" color="#3B75EA" transform="matrix(3.75 0 0 3.75 112.25 7.51)"/></g><text stroke-linecap="round" stroke-linejoin="round" color="#000" font-family="KaTeX_Main" font-size="8" transform="translate(132.8 25.11)"><tspan>LBSTRelaxed</tspan></text><g fill="none" stroke="currentColor" stroke-linecap="round" stroke-linejoin="round" color="#000"><path stroke="#FFAB00" stroke-dasharray="4.0,2.0,1.0,2.0" d="M97.3 22.51h29.9M28 125.79l.36-4.22.36.21.37-8.63.36-4.19.36-8.59.36.22.36.22.37.21.36.21.36.21.36.2.37.19.36-4.16.36 56.76.36.13.36-8.56.37-4.21.36-4.19.36.13.36.14.36-4.19.37.13.36-8.48.36-4.17.36.15.36-8.46.37.15.36-4.15.36.15.36.14.36.14.37.14.36-4.13.36.14.36.13.37-4.12.36 55.43.36-8.41.36.1.36.09.37-4.15.36.1.36-4.14.36.09.36-4.13.37.1.36.09.36.1.36-8.34.36.1.37-4.11.36.1.36-4.1.36-4.1.37.1.36.1.36-4.09.36.1.36.1.37-4.08.36-8.26.36.1.36-4.07.36.11.37.1.36 54.26.36-4.09.36.07.36-4.09.37.07.36.07.36-8.23.36.08.37-4.07.36.07.36.08.36.07.36.08.37.07.36-4.06.36.07.36.08.36-4.06.37.08.36-4.05.36.08.36.07.36.08.37-8.15.36.07.36.08.36.07.36.08.37.07.36-4.02.36.07.36.08.37.07.36.08.36.07.36.07.36-4.01.37.07.36.07.36-4 .36.07.36.07.37 57.13.36-8.1.36.05.36-4.02.36.05.37-4.01.36.05.36.05.36.05.37.05.36.05.36-4 .36.05.36.05.37.05.36.05.36-4 .36.06.36.05.37-4 .36.06.36.05.36.05.36-3.99.37-3.98.36.05.36.06.36-3.98.36.05.37.06.36.05.36.06.36.05.37.05.36.05.36.06.36.05.36-3.97.37.05.36.06.36.05.36.05.36.05.37.05.36-3.95.36.05.36.05.36.05.37.05.36.05.36.05.36.05.37-3.94.36.05.36.05.36.05.36.05.37.05.36.05.36-7.93.36.05.36.06.37.05.36.05.36.05.36.05.36.05.37.05.36.05.36.05.36.04.36.05.37.05.36.05.36-3.92.36.05.37.05.36.05.36.04.36.05.36.05.37.05.36.04.36.05.36.05.36.04.37 59.38.36.03.36-3.93.36.03.36.03.37-3.91.36.03.36.03.36-3.92.37.03.36.04.36.03.36-3.91.36.03.37.03.36.03.36.03.36.04.36.03.37-3.91.36.04.36.03.36.03.36.03.37-3.9.36-3.89.36.03.36.03.37.04.36.03.36.03.36.04.36-3.89.37.03.36.03.36.04.36-3.89.36.04.37.03.36.03.36.04.36.03.36.03.37-3.88.36.04.36.03.36.03.36.04.37.03.36.04.36.03.36.03.37.03.36.04.36.03.36.03.36.03.37.04.36-3.87.36.03.36.03.36.04.37.03.36.03.36.03.36.04.36-3.86.37.03.36.03.36.03.36.04.37.03.36.03.36.03.36.03.36.04.37.03.36.03.36.03.36.03.36.03.37.04.36.03.36.03.36.03.36.03.37.03.36.03.36.03.36-3.84.36.03.37.03.36.03.36.03.36.03.37.03.36.03.36.03.36.03.36.03.37.03.36.03.36.03.36.03.36.03.37.03.36.03.36.03.36-3.83.36-3.83.37.03.36.03.36.03.36.03.37.03.36.03.36.03.36.03.36 53.95.37.03.36-3.84.36.02.36.02.36.02.37.02.36.02.36.02.36.03.36.01.37.02.36-3.82.36.02.36.02.36.02.37-3.82.36.02.36-3.82.36.02.37.03.36.02.36.02.36.02.36.02.37-3.81.36.02.36.02.36.02.36.02.37-3.81.36.02.36-3.81.36.03.36.02.37.02.36.02.36.03.36-3.81.37.02.36.03.36.02.36.02.36-3.8.37.02.36.03.36.02.36.02.36.02.37.03.36.02.36.02.36.02.36.03.37.02.36.02.36.02.36.03.37.02.36-3.79.36.02.36.02.36.02.37.03.36.02.36.02.36.02.36.02.37.03.36.02.36.02.36.02.36.02.37.03.36.02.36.02.36.02.36.02.37.02.36.03.36.02.36.02.37.02.36-3.78.36.02.36.02.36.03.37.02.36.02.36.02.36.02.36.02.37.02.36.03.36.02.36.02.36.02.37.02.36.02.36.02.36.02.37.02.36.03.36.02.36-3.77.36.02.37.02.36-3.77.36.03.36.02.36.02.37.02.36.02.36.02.36.02.36.02.37.03.36.02.36.02.36.02.36.02.37.02.36.02.36.02.36.02.37-3.75.36.02.36.02.36.02.36.02.37.02.36.02.36.02.36.02.36.02.37.03.36.02.36.02.36.02.36.02.37.02.36.02.36.02.36.02.37.02.36.02.36.02.36-3.75.36.02.37.02.36.03.36.02.36.02.36.02.37.02.36.02.36.02.36.02.36.02.37.02.36.02.36.02.36.02.37.02.36.02.36.02.36.02.36.02.37.02.36.02.36.02.36.01.36.03.37.01.36-3.73.36.02.36.02.36.02.37.02.36.02.36.02.36.02.36.02.37.02.36.02.36.02.36 52.5.37.01.36.02.36.01.36-3.73.36.01.37.01.36.02.36.01.36.01.36.02.37.01.36.01.36.02.36.01.36.01.37.02.36.01.36.01.36.02.37.01.36.01.36.01.36.02.36-3.73.37.02.36.01.36.01.36.02.36.01.37.01.36.02.36.01.36.01.36.01.37.02.36.01.36.01.36.02.36-3.72.37.01.36.02.36.01.36.01.37.02.36.01.36.01.36.02.36-3.72.37.01.36.02.36.01.36.01.36.02.37.01.36-3.71.36.01.36-3.71.36.02.37-3.71.36.01.36.01.36.02.37.01.36-3.7.36.01.36.01.36.02.37.01.36.02.36.01.36.02.36.01.37.02.36.01.36.02.36.01.36.01.37.02.36.01.36.02.36.01.36.02.37.01.36.02.36.01.36.01.37.02.36.01.36.02.36.01.36.01.37.02.36.01.36.02.36.01.36.02.37.01.36.01.36.02.36.01.36.01.37.02.36.01.36-3.69.36.01.37.02.36.01.36.02.36.01.36.01.37.02.36.01.36.02.36.01.36.01.37.02.36.01.36.01.36.02.36.01.37.02.36.01.36.01.36.02.37-3.69.36.01.36.02.36.01.36.02.37-3.69.36.02.36.01.36.01.36-3.68.37.02.36.01.36.01.36.02.36.01.37.02.36.01.36.02.36.01.36.02.37.01.36.01.36.02.36.01.37.02.36.01.36.01.36.02.36.01.37.02.36.01.36.01.36.02.36.01.37.02.36-3.68.36.02.36.01.36.01.37.02.36.01.36.02.36.01.37.02.36.01.36.01.36.02.36.01.37.01.36.02.36.01.36.02.36.01.37.01.36.02.36.01.36.02.36.01.37-3.67.36.02.36.01.36.01.36.02.37.01.36.02.36.01.36.01.37.02.36.01.36.02.36.01.36.01.37.02.36.01.36.01.36.02.36.01.37 55.13.36.01.36-3.66.36.01.36.01.37.01h.36l.36.01.36.01.37.01.36.01.36.01.36.01.36-3.66.37.01.36.01.36.01.36.01h.36l.37.01.36.01.36.01.36.01.36.01.37.01.36.01.36.01.36-3.66.36.01.37.01.36.01.36.01.36.01.37.01.36.01.36.01.36-3.66.36.01.37.01.36.01.36.01.36.01.36.01.37.01.36.01.36.01.36.01.36.01.37.01.36.01.36.01.36.01.37.01.36.01.36.01h.36l.36.01.37.01.36.01.36.01.36.01.36.01.37-3.65.36.01.36.01.36.01.36.01.37.01.36.01.36.01.36.01.37.01.36.01.36.01.36.01.36.01.37.01.36.01.36.01.36.01h.36l.37.02h.36l.36.01.36-3.64.36.01.37.01.36.01.36.01.36-3.64.36.01.37.01.36.01.36.01.36.01.37-3.64.36.01.36.01.36.01.36.01.37.01.36.01.36.01.36.01.36.01.37.01.36.01.36.01.36.01.36.01.37.01.36.01.36.01.36.01.37-3.63.36.01.36.01.36.01.36.01.37.01.36.01.36.01.36.01.36.01.37.01.36.01.36.01.36.01.36.01.37.01.36.01.36.01.36.01.36.01.37.01.36.01.36.01.36.01.37.01.36.01.36.01.36-3.63.36.01.37.01.36.01.36.01.36.01.36.01.37.01.36.01.36.01.36.01.36.01.37.01.36.01.36.01.36.01.37.01.36.01.36.01.36.01.36.01.37.01.36.01.36.01.36.01h.36l.37.01.36.01.36.01.36.01.36.01.37-3.61h.36l.36.01.36.02h.36l.37.01.36.01.36.01.36.01.37.01.36.01.36.01.36.01.36.01.37.01.36.01.36.01.36.01.36.01.37.01.36.01.36.01.36.01.36.01.37.01.36.01.36.01.36.01.37.01.36.01h.36l.36.01.36.01.37.01.36.01.36.01.36-3.61.36.01.37.01.36.01.36.01.36.01.36.01.37.01.36.01.36.01.36.01.37.01.36.01.36.01.36.01.36.01.37.01h.36l.36.01.36.01.36.01.37.01.36.01.36.01.36.01.36.01.37.01.36-3.6.36.01.36.01.36.01h.37l.36.01.36.01.36.01.37.01.36.01.36.01.36.01.36.01.37.01.36.01.36.01"/><use xlink:href="#6698e__e" color="#FFAB00" transform="matrix(3.75 0 0 3.75 67.83 149.19)"/><use xlink:href="#6698e__e" color="#FFAB00" transform="matrix(3.75 0 0 3.75 112.25 22.51)"/></g><text stroke-linecap="round" stroke-linejoin="round" color="#000" font-family="KaTeX_Main" font-size="8" transform="translate(241.1 10.11)"><tspan>WBSTBottomUp</tspan></text><g fill="none" stroke="currentColor" stroke-linecap="round" stroke-linejoin="round" color="#000"><path stroke="#000" d="M205.6 7.51h29.9M28 143.52l.36.18.36 4.59.37.17.36.16.36.16.36.16.36-4.24.37.16.36.15.36.15.36.14.37.15.36.14.36.14.36.13.36-4.2.37 4.47.36 4.46.36.12.36.12.36.12.37.12.36.11.36.11.36.12.36.1.37-4.18.36.11.36.11.36.11.36.1.37.11.36-4.17.36.11.36.1.37 4.36.36.1.36.09.36.1.36.09.37-4.15.36.1.36.09.36.09.36.09.37.09.36.09.36.09.36.09.36.08.37.09.36.08.36.08.36.09.37.08.36.08.36.08.36-4.11.36 4.26.37.08.36-4.1.36 4.25.36.08.36.07.37 4.24.36.07.36.07.36-4.09.36.07.37.07.36.07.36.07.36.06.37-4.08.36 4.22.36-4.08.36-4.07.36.07.37 8.34.36.06.36.06.36.06.36.07.37.06.36.06.36.06.36.06.36.06.37-4.06.36.06.36-4.04.36.06.36.06.37 4.16.36.06.36.06.36.05.37.06.36.06.36.05.36 4.15.36.05.37.05.36.06.36.05.36.05.36.05.37.05.36.05.36.05.36 4.12.36-4.02.37.05.36.05.36.05.36.04.37.05.36.05.36.05.36-4.01.36.05.37.04.36.05.36 4.1.36.04.36.05.37.04.36.05.36-4 .36.04.36.05.37.04.36.05.36.04.36.05.36.04.37.04.36.05.36.04.36.04.37.04.36.05.36.04.36-3.98.36.05.37.04.36.04.36 4.05.36.04.36.05.37.04.36.03.36.04.36.04.36.04.37.04.36.04.36.04.36.04.37-3.96.36 4.03.36.04.36.04.36.03.37.04.36.04.36-3.95.36.04.36.03.37.04.36.04.36.03.36.04.36 4.02.37.03.36.04.36.03.36-3.94.36.04.37.03.36.04.36.03.36.04.37.03.36.04.36.03.36.04.36.03.37.03.36.04.36.03.36.04.36.03.37.03.36.04.36.03.36.03.36.03.37.04.36.03.36.03.36.03.37.03.36.04.36.03.36.03.36.03.37.03.36.03.36.03.36.03.36.03.37.03.36.03.36.03.36.03.36.03.37.03.36.03.36.03.36.03.37.03.36.03.36.03.36.03.36.03.37.03.36.03.36.02.36.03.36.03.37.03.36.03.36.02.36.03.36.03.37.03.36.03.36.02.36.03.36.03.37.02.36.03.36.03.36.02.37.03.36.03.36.02.36.03.36.03.37.02.36.03.36.02.36.03.36.03.37.02.36.03.36.02.36.03.36.02.37.03.36.02.36.03.36.02.37.03.36.02.36.03.36.02.36.03.37.02.36.02.36.03.36.02.36.03.37.02.36.02.36.03.36.02.36.03.37.02.36.02.36.03.36-3.85.36.02.37.02.36.03.36.02.36.03.37.02.36.02.36.03.36.02.36.02.37.03.36 3.88.36-3.84.36 3.89.36.02.37.02.36.02.36.03.36.02.36.02.37.02.36-3.83.36.02.36 3.88.37.02.36.02.36.02.36.02.36.02.37.02.36.02.36.02.36.03.36.02.37.02.36.02.36.02.36.02.36.02.37.02.36.02.36.02.36.02.36.02.37.02.36.02.36.02.36.02.37.02.36.02.36.02.36.02.36.02.37.02.36.02.36.02.36.02.36.02.37.02.36.02.36.02.36.02.36.01.37.02.36.02.36.02.36.02.37.02.36.02.36-3.81.36.02.36.02.37.02.36.02.36.02.36.02.36.02.37.02.36.01.36.02.36.02.36.02.37.02.36.02.36.02.36.01.37.02.36.02.36.02.36.02.36.02.37.02.36.01.36.02.36.02.36.02.37.02.36.01.36.02.36.02.36.02.37.01.36.02.36.02.36.02.36.02.37.01.36.02.36.02.36.01.37.02.36.02.36.02.36.01.36.02.37.02.36.02.36.01.36.02.36.02.37.01.36.02.36.02.36.01.36.02.37.02.36.01.36.02.36.02.37.01.36.02.36.02.36.01.36.02.37.02.36-3.77.36.01.36.02.36.02.37.01.36.02.36.02.36.01.36.02.37.02.36.01.36.02.36.01.36.02.37.02.36.01.36.02.36.02.37.01.36.02.36.01.36.02.36.02.37.01.36.02.36.01.36.02.36.02.37.01.36.02.36.01.36.02.36.01.37.02.36 3.79.36.01.36.02.37.01.36.01.36.02.36.01.36.02.37.01.36.02.36.01.36-3.75.36.02.37.01.36.02.36 3.78.36.01.36.02.37.01.36.02.36.01.36.01.37.02.36.01.36.02.36.01.36.02.37.01.36.01.36.02.36.01.36.02.37.01.36.01.36-3.74.36.02.36.01.37 3.77.36.01.36.02.36-3.74.36.01.37.02.36.01.36.02.36.01.37.02.36.01.36.01.36.02.36.01.37.02.36.01.36.01.36.02.36.01.37 3.76.36.01.36.02.36.01.36.01.37.02.36.01.36.01.36.02.37.01.36.01.36.01.36.02.36.01.37.01.36.02.36.01.36.01.36.02.37.01.36.01.36.01.36.02.36.01.37.01.36.02.36.01.36.01.36.01.37.02.36.01.36.01.36.01.37.02.36.01.36.01.36.01.36.02.37.01.36.01.36.01.36.02.36.01.37.01.36.01.36.01.36.02.36.01.37.01.36.01.36.02.36.01.37-3.71.36.01.36.01.36.01.36.02.37.01.36 3.73.36.01.36.02.36.01.37.01.36.01.36.01.36.01.36.02.37.01.36.01.36.01.36.01.36.02.37.01.36.01.36.01.36.01.37.01.36.01.36.02.36.01.36.01.37.01.36.01.36.01.36.02.36.01.37-3.7.36.01.36.01.36.01.36 3.72.37-3.69.36.01.36.01.36.01.37.01.36.01.36.02.36.01.36.01.37.01.36.01.36.01.36.02.36.01.37.01.36.01.36.01.36.01.36.01.37.01.36.02.36.01.36.01.37.01.36.01.36.01.36.01.36.01.37.01.36.02.36.01.36.01.36.01.37.01.36.01.36.01.36.01.36.01.37.02.36.01.36.01.36.01.36.01.37.01.36.01.36.01.36.01.37.01.36.01.36.01.36.01.36 3.71.37.01.36.01.36.01.36.01.36.01.37.01.36.01.36.01.36.01.36.01.37.01.36.01.36.01.36.01.37.01.36.01.36.01.36.01.36.01.37.01.36.01.36.01.36.01.36.01.37.01.36.01.36.01.36.01.36.01.37.01.36.01.36.01.36.01.36.01.37.01.36.01.36.01.36.01.37.01.36-3.67.36.01.36.01.36.01.37.01.36.01.36.01.36.01.36.01.37.01.36.01.36.01.36.01.36.01.37.01.36-3.66.36.01.36.01.37.01.36 7.35.36.01.36.01.36.01.37.01.36.01.36.01.36.01h.36l.37.01.36.01.36.01.36.01.36.01.37-3.66.36.01.36.01.36.01.36.01.37.01.36.01.36.01.36.01.37.01.36.01.36.01.36 3.67.36.01.37.01.36.01.36.01.36.01.36-3.66.37.01.36.01.36.01.36 3.67.36.01.37.01.36.01.36.01.36.01h.37l.36.01.36.01.36.01.36.01.37.01.36-3.65.36.01.36.01.36 3.66.37.01.36-3.64.36.01h.36l.36.01.37.01.36.01.36.01.36.01.37.01.36.01.36.01h.36l.36.01.37.01.36.01.36.01.36.01.36.01.37.01.36.01h.36l.36.01.36.01.37.01.36.01.36.01.36.01.36.01h.37l.36.01.36.01.36.01.37.01.36.01.36.01h.36l.36.01.37.01.36.01.36.01.36.01.36.01.37.01h.36l.36.01.36.01.36.01.37.01.36.01.36-3.64.36.01.37.01.36.01.36.01.36.01h.36l.37.01.36.01.36.01.36.01.36.01.37.01h.36l.36.01.36.01.36.01.37.01.36.01.36.01h.36l.36.01.37.01.36.01.36.01.36.01h.37l.36.01.36.01.36.01.36.01.37.01.36.01h.36l.36.01.36.01.37.01.36.01.36.01.36 3.64h.36l.37.01.36.01.36.01.36.01h.37l.36.01.36.01.36.01.36.01h.37l.36.01.36.01.36.01.36.01.37-3.62h.36l.36.01.36.01.36.01.37.01h.36l.36.01.36.01.36.01.37.01h.36l.36.01.36.01.37.01.36.01.36.01h.36l.36.01.37.01.36.01h.36l.36.01.36.01.37.01.36.01h.36l.36.01.36.01.37.01.36.01h.36l.36.01.37.01.36.01.36-3.62.36.01.36.01.37.01.36.01.36 3.62.36.01.36.01.37.01h.36l.36.01.36.01.36.01.37.01h.36l.36.01.36.01.37.01h.36l.36.01.36.01.36.01h.37l.36.01.36.01.36.01h.36l.37.01.36.01.36.01.36.01h.36l.37.01.36.01.36.01h.36l.36.01.37.01h.36l.36.01.36.01.37.01h.36l.36-3.6.36.01.36.01h.37l.36.01.36.01"/><use xlink:href="#6698e__a" transform="matrix(3.75 0 0 3.75 125.4 146.68)"/><use xlink:href="#6698e__a" transform="matrix(3.75 0 0 3.75 220.55 7.51)"/></g><text stroke-linecap="round" stroke-linejoin="round" color="#000" font-family="KaTeX_Main" font-size="8" transform="translate(241.1 25.11)"><tspan>WBSTRelaxed</tspan></text><g fill="none" stroke="currentColor" stroke-linecap="round" stroke-linejoin="round" color="#000"><path stroke="violet" stroke-dasharray="4.5,2.0,0.5,2.0,0.5,2.0" d="M205.6 22.51h29.9M28 99.19l.36.25.36-4.18.37.24.36-4.17.36-4.16.36.24.36-4.16.37.24.36-4.15.36-4.14.36.24.37.23.36-4.14.36-4.12.36.23.36-4.12.37.22.36 86.85.36-4.2.36-8.52.36.13.37-4.19.36-4.17.36.13.36.13.36-12.75.37.14.36-4.15.36.14.36-4.14.36.14.37.14.36-4.13.36.14.36.13.37.14.36.13.36.13.36-4.11.36.13.37-4.11.36-4.11.36.14.36.13.36-4.1.37.13.36.13.36-4.08.36.13.36.13.37-4.08.36-4.08.36-4.07.36.13.37-4.06.36-4.07.36-4.05.36.13.36.14.37.13.36 83.71.36-4.1.36.07.36.08.37-4.09.36.07.36.08.36.08.36-4.09.37.08.36.08.36-4.08.36.08.37-4.07.36.08.36.08.36-4.07.36.08.37.08.36.08.36-8.19.36.08.36.08.37.08.36.08.36.08.36.08.36.07.37-8.15.36.08.36.08.36.08.36-4.03.37.08.36.08.36.07.36.08.37.08.36-4.02.36.08.36-8.1.36.08.37.08.36.07.36.08.36.08.36.08.37.07.36.08.36-4 .36.08.36.07.37.08.36.07.36.08.36-3.99.37-3.98.36.07.36-3.98.36.08.36.07.37.08.36.07.36.08.36.07.36-3.97.37.08.36.07.36.08.36.07.36-3.96.37.07.36.07.36-3.96.36.08.36.07.37.07.36.08.36.07.36.07.37.07.36.07.36.08.36.07.36-3.95.37.07.36.07.36.07.36.07.36.07.37.07.36.07.36.06.36.07.36.07.37.07.36.06.36.07.36.07.37 83.98.36.03.36.04.36.04.36.03.37.04.36.04.36.04.36.03.36.04.37-3.95.36.04.36.03.36-3.94.36.04.37.04.36.03.36.04.36-3.93.36.03.37.04.36.04.36.04.36.03.37.04.36.04.36.03.36.04.36-3.92.37.03.36.04.36.04.36.03.36-3.92.37-3.91.36.04.36.03.36.04.36-3.91.37.04.36.04.36.03.36.04.37.04.36.04.36.04.36-7.85.36.04.37.04.36-7.84.36.04.36.04.36.04.37.04.36.04.36.04.36.04.36.04.37.04.36.04.36.04.36.04.37.04.36.04.36.04.36.04.36.04.37.03.36.04.36.04.36.04.36.04.37.03.36.04.36.04.36.03.36.04.37.04.36.03.36.04.36.04.36.03.37.04.36.04.36-3.87.36.03.37.04.36.03.36.04.36.04.36.03.37.04.36.03.36.04.36.03.36.04.37.03.36-3.85.36.03.36.04.36-7.75.37.04.36.03.36.04.36.04.37.03.36.04.36.03.36.04.36.04.37.03.36.04.36.03.36.04.36.03.37.04.36.03.36.04.36.03.36-3.84.37.04.36.03.36.04.36.03.36.04.37.03.36.04.36.03.36-3.84.37.04.36.03.36.04.36.03.36.04.37.03.36.04.36-3.83.36.03.36.04.37.03.36.04.36.03.36.03.36.04.37.03.36.04.36.03.36.03.37.04.36.03.36.03.36.04.36.03.37.03.36.04.36.03.36.03.36-3.81.37.03.36.03.36.04.36.03.36.03.37.04.36.03.36.03.36.03.36-3.81.37.04.36.03.36.03.36.03.37.04.36.03.36.03.36.03.36.04.37.03.36.03.36.03.36.03.36.04.37.03.36.03.36.03.36.03.36-3.8.37.04.36.03.36.03.36.03.37.03.36-3.79.36.03.36.03.36.03.37.03.36.04.36-3.79.36.03.36.03.37.03.36.03.36.04.36.03.36.03.37.03.36.03.36.03.36.03.37.03.36.03.36.04.36.03.36.03.37.03.36.03.36.03.36.03.36.03.37.03.36.03.36.03.36.03.36.03.37.03.36.03.36.03.36.03.36.03.37.03.36.03.36-3.78.36.03.37.03.36 87.43.36.02.36.01.36.02.37.02.36.01.36.02.36.02.36.01.37.02.36.01.36.02.36.02.36.01.37.02.36.02.36.01.36-3.77.37.01.36.02.36.02.36.01.36.02.37-3.77.36.02.36-3.77.36-7.56.36.02.37.02.36.02.36.02.36.01.36-3.76.37.02.36.02.36.01.36.02.36.02.37.02.36.02.36.02.36.01.37.02.36.02.36.02.36.02.36.01.37.02.36-3.75.36.01.36.02.36.02.37.02.36-3.76.36.02.36-3.75.36.02.37.02.36.02.36.02.36.02.37.01.36.02.36.02.36.02.36.02.37.02.36.02.36.02.36.01.36.02.37.02.36.02.36.02.36.02.36.01.37.02.36.02.36.02.36.02.37.01.36.02.36.02.36.02.36.02.37.01.36.02.36.02.36.02.36.02.37.01.36-3.73.36.01.36.02.36.02.37.02.36.02.36.01.36.02.36.02.37.02.36.02.36.01.36.02.37.02.36.02.36.01.36.02.36.02.37.02.36.01.36.02.36.02.36.02.37-3.73.36.02.36.01.36.02.36.02.37.02.36.01.36.02.36.02.37.02.36.01.36-3.72.36.02.36.02.37.01.36.02.36.02.36.02.36.01.37.02.36.02.36.02.36.01.36.02.37.02.36.02.36.01.36.02.36.02.37.01.36.02.36.02.36.02.37.01.36.02.36.02.36.01.36.02.37.02.36-3.71.36.01.36.02.36.02.37-3.71.36.02.36.01.36.02.36.02.37.01.36.02.36-3.7.36.01.37.02.36.02.36.02.36.01.36.02.37.02.36.02.36.01.36.02.36.02.37.01.36.02.36.02.36.02.36.01.37.02.36.02.36.01.36.02.36.02.37.02.36.01.36.02.36.02.37.01.36.02.36.02.36.01.36.02.37.02.36.01.36.02.36.02.36-3.7.37.02.36.02.36.01.36.02.36.02.37.01.36.02.36.02.36.01.37.02.36.02.36.01.36.02.36.02.37.01.36.02.36.02.36.01.36.02.37.02.36.01.36.02.36.01.36.02.37.02.36.01.36.02.36.01.37-3.68.36.02.36.01.36.02.36.02.37.01.36.02.36.02.36.01.36.02.37.01.36.02.36.02.36.01.36.02.37.01.36.02.36.02.36.01.36.02.37.01.36.02.36.02.36.01.37.02.36.01.36.02.36.02.36-3.68.37.02.36.01.36.02.36.01.36.02.37.02.36.01.36.02.36.01.36.02.37.02.36.01.36.02.36.01.37.02.36.01.36.02.36.01.36.02.37.02.36.01.36.02.36.01.36.02.37.01.36.02.36.01.36.02.36.02.37.01.36.02.36.01.36.02.36.01.37.02.36.01.36.02.36.01.37.02.36.01.36.02.36.01.36.02.37.01.36.02.36.01.36.02.36.01.37.02.36.01.36.02.36-3.66.36.01.37.02.36.01.36.02.36.01.37.02.36.01.36.02.36.01.36.02.37.01.36.02.36.01.36.02.36.01.37.02.36.01.36.02.36.01.36.01.37.02.36.01.36.02.36.01.36-3.65.37.02.36.01.36.02.36.01.37-3.65.36.02.36.01.36.02.36.01.37.02.36.01.36.02.36.01.36.02.37.01.36.02.36.01.36.01.36.02.37.01.36.02.36.01.36.02.37.01.36.02.36.01.36.02.36.01.37.02.36.01.36-3.64.36.01.36.02.37.01.36.02.36.01.36.02.36.01.37.02.36.01.36.01.36.02.37.01.36.02.36.01.36.02.36.01.37.02.36.01.36.02.36.01.36.01.37.02.36.01.36.02.36.01.36.02.37.01.36.01.36-3.63.36.01.36.02.37.01.36.02.36.01.36.02.37.01.36.01.36.02.36.01.36.02.37.01.36.02.36.01.36.01.36.02.37.01.36.02.36.01.36.01.36.02.37.01.36.02.36-3.63.36.01.37.02.36.01.36.02.36.01.36.01.37.02.36.01.36.02.36.01.36.01.37.02.36.01.36.02.36.01.36.01.37.02.36.01.36.02.36.01.36.01.37.02.36.01.36.02.36.01.37.01.36.02.36.01.36-3.62.36.01.37.02.36.01.36.02.36.01.36.01.37.02.36.01.36.02.36.01.36 87.19h.37l.36.01.36.01.36.01.37.01h.36l.36.01.36.01.36.01h.37l.36.01.36.01.36.01h.36l.37.01.36.01.36.01.36.01h.36l.37.01.36.01.36.01h.36l.36.01.37.01.36.01h.36l.36.01.37.01.36-3.62.36.01.36.01h.36l.37.01.36.01.36.01.36.01h.36l.37.01.36.01.36.01h.36l.36.01.37.01.36-3.61h.36l.36.01.37.01.36.01h.36l.36.01.36.01.37.01.36.01h.36l.36.01.36.01.37.01h.36l.36.01.36.01.36.01.37.01h.36l.36-3.61.36.01.37.01.36.01.36.01h.36l.36.01.37.01.36.01.36.01h.36l.36.01.37.01.36.01h.36l.36.01.36.01.37.01.36.01h.36l.36.01.36.01.37.01h.36l.36.01.36.01.37.01h.36l.36.01.36.01.36.01.37-3.6h.36l.36.01"/><use xlink:href="#6698e__f" color="violet" transform="matrix(3.75 0 0 3.75 182.98 127.05)"/><use xlink:href="#6698e__f" color="violet" transform="matrix(3.75 0 0 3.75 220.55 22.51)"/></g><path fill="none" d="M28 45.01V162.5M371.99 45.01H28" color="#000"/></svg>