<svg xmlns="http://www.w3.org/2000/svg" xmlns:xlink="http://www.w3.org/1999/xlink" viewBox="0 0 400 200"><path fill="none" d="M0 0h400v200H0z"/><defs><use xlink:href="#babcb__a" id="babcb__b" fill="currentColor" stroke="none"/><use xlink:href="#babcb__a" id="babcb__c" stroke="currentColor" transform="rotate(180)"/><path id="babcb__a" stroke="currentColor" stroke-width=".267" d="m0-1.33-1.33 2h2.66z"/></defs><path fill="none" stroke="#CCC" stroke-linecap="round" stroke-linejoin="round" stroke-width=".1" d="M46.1 162.5V45.01" class="babcb__gridline" color="#000"/><g fill="none" stroke-linecap="round" stroke-linejoin="round" stroke-width="0" color="#000"><path d="M46.1 162.5V155m0-109.99v7.5"/><text fill="#000" font-family="KaTeX_Main" font-size="8" text-anchor="middle" transform="translate(46.1 172.6)"><tspan> 1</tspan></text></g><path fill="none" stroke="#CCC" stroke-linecap="round" stroke-linejoin="round" stroke-width=".1" d="M82.31 162.5V45.01" class="babcb__gridline" color="#000"/><g fill="none" stroke-linecap="round" stroke-linejoin="round" stroke-width="0" color="#000"><path d="M82.31 162.5V155m0-109.99v7.5"/><text fill="#000" font-family="KaTeX_Main" font-size="8" text-anchor="middle" transform="translate(82.31 172.6)"><tspan> 2</tspan></text></g><path fill="none" stroke="#CCC" stroke-linecap="round" stroke-linejoin="round" stroke-width=".1" d="M118.52 162.5V45.01" class="babcb__gridline" color="#000"/><g fill="none" stroke-linecap="round" stroke-linejoin="round" stroke-width="0" color="#000"><path d="M118.52 162.5V155m0-109.99v7.5"/><text fill="#000" font-family="KaTeX_Main" font-size="8" text-anchor="middle" transform="translate(118.52 172.6)"><tspan> 3</tspan></text></g><path fill="none" stroke="#CCC" stroke-linecap="round" stroke-linejoin="round" stroke-width=".1" d="M154.73 162.5V45.01" class="babcb__gridline" color="#000"/><g fill="none" stroke-linecap="round" stroke-linejoin="round" stroke-width="0" color="#000"><path d="M154.73 162.5V155m0-109.99v7.5"/><text fill="#000" font-family="KaTeX_Main" font-size="8" text-anchor="middle" transform="translate(154.73 172.6)"><tspan> 4</tspan></text></g><path fill="none" stroke="#CCC" stroke-linecap="round" stroke-linejoin="round" stroke-width=".1" d="M190.94 162.5V45.01" class="babcb__gridline" color="#000"/><g fill="none" stroke-linecap="round" stroke-linejoin="round" stroke-width="0" color="#000"><path d="M190.94 162.5V155m0-109.99v7.5"/><text fill="#000" font-family="KaTeX_Main" font-size="8" text-anchor="middle" transform="translate(190.94 172.6)"><tspan> 5</tspan></text></g><path fill="none" stroke="#CCC" stroke-linecap="round" stroke-linejoin="round" stroke-width=".1" d="M227.15 162.5V45.01" class="babcb__gridline" color="#000"/><g fill="none" stroke-linecap="round" stroke-linejoin="round" stroke-width="0" color="#000"><path d="M227.15 162.5V155m0-109.99v7.5"/><text fill="#000" font-family="KaTeX_Main" font-size="8" text-anchor="middle" transform="translate(227.15 172.6)"><tspan> 6</tspan></text></g><path fill="none" stroke="#CCC" stroke-linecap="round" stroke-linejoin="round" stroke-width=".1" d="M263.36 162.5V45.01" class="babcb__gridline" color="#000"/><g fill="none" stroke-linecap="round" stroke-linejoin="round" stroke-width="0" color="#000"><path d="M263.36 162.5V155m0-109.99v7.5"/><text fill="#000" font-family="KaTeX_Main" font-size="8" text-anchor="middle" transform="translate(263.36 172.6)"><tspan> 7</tspan></text></g><path fill="none" stroke="#CCC" stroke-linecap="round" stroke-linejoin="round" stroke-width=".1" d="M299.57 162.5V45.01" class="babcb__gridline" color="#000"/><g fill="none" stroke-linecap="round" stroke-linejoin="round" stroke-width="0" color="#000"><path d="M299.57 162.5V155m0-109.99v7.5"/><text fill="#000" font-family="KaTeX_Main" font-size="8" text-anchor="middle" transform="translate(299.57 172.6)"><tspan> 8</tspan></text></g><path fill="none" stroke="#CCC" stroke-linecap="round" stroke-linejoin="round" stroke-width=".1" d="M335.78 162.5V45.01" class="babcb__gridline" color="#000"/><g fill="none" stroke-linecap="round" stroke-linejoin="round" stroke-width="0" color="#000"><path d="M335.78 162.5V155m0-109.99v7.5"/><text fill="#000" font-family="KaTeX_Main" font-size="8" text-anchor="middle" transform="translate(335.78 172.6)"><tspan> 9</tspan></text></g><path fill="none" stroke="#CCC" stroke-linecap="round" stroke-linejoin="round" stroke-width=".1" d="M371.99 162.5V45.01" class="babcb__gridline" color="#000"/><g fill="none" stroke-linecap="round" stroke-linejoin="round" stroke-width="0" color="#000"><path d="M371.99 162.5V155m0-109.99v7.5"/><text fill="#000" font-family="KaTeX_Main" font-size="8" text-anchor="middle" transform="translate(371.99 172.6)"><tspan> 10</tspan></text></g><g fill="none" stroke-linecap="round" stroke-linejoin="round" stroke-width="0" color="#000"><path d="M371.99 162.5h-7.5"/><text fill="#000" font-family="KaTeX_Main" font-size="8" transform="translate(378.99 165.1)"><tspan>8.50</tspan></text></g><g fill="none" stroke-linecap="round" stroke-linejoin="round" stroke-width="0" color="#000"><path d="M371.99 147.81h-7.5"/><text fill="#000" font-family="KaTeX_Main" font-size="8" transform="translate(378.99 150.41)"><tspan>9.00</tspan></text></g><g fill="none" stroke-linecap="round" stroke-linejoin="round" stroke-width="0" color="#000"><path d="M371.99 133.13h-7.5"/><text fill="#000" font-family="KaTeX_Main" font-size="8" transform="translate(378.99 135.73)"><tspan>9.50</tspan></text></g><g fill="none" stroke-linecap="round" stroke-linejoin="round" stroke-width="0" color="#000"><path d="M371.99 118.44h-7.5"/><text fill="#000" font-family="KaTeX_Main" font-size="8" transform="translate(378.99 121.04)"><tspan>10.00</tspan></text></g><g fill="none" stroke-linecap="round" stroke-linejoin="round" stroke-width="0" color="#000"><path d="M371.99 103.75h-7.5"/><text fill="#000" font-family="KaTeX_Main" font-size="8" transform="translate(378.99 106.35)"><tspan>10.50</tspan></text></g><g fill="none" stroke-linecap="round" stroke-linejoin="round" stroke-width="0" color="#000"><path d="M371.99 89.07h-7.5"/><text fill="#000" font-family="KaTeX_Main" font-size="8" transform="translate(378.99 91.67)"><tspan>11.00</tspan></text></g><g fill="none" stroke-linecap="round" stroke-linejoin="round" stroke-width="0" color="#000"><path d="M371.99 74.38h-7.5"/><text fill="#000" font-family="KaTeX_Main" font-size="8" transform="translate(378.99 76.98)"><tspan>11.50</tspan></text></g><g fill="none" stroke-linecap="round" stroke-linejoin="round" stroke-width="0" color="#000"><path d="M371.99 59.7h-7.5"/><text fill="#000" font-family="KaTeX_Main" font-size="8" transform="translate(378.99 62.3)"><tspan>12.00</tspan></text></g><g fill="none" stroke-linecap="round" stroke-linejoin="round" stroke-width="0" color="#000"><path d="M371.99 45.01h-7.5"/><text fill="#000" font-family="KaTeX_Main" font-size="8" transform="translate(378.99 47.61)"><tspan>12.50</tspan></text></g><path fill="none" d="M28 45.01V162.5M371.99 45.01H28" color="#000"/><text stroke-linecap="round" stroke-linejoin="round" stroke-width="0" color="#000" font-family="KaTeX_Main" font-size="10" text-anchor="middle" transform="rotate(-90 57.63 46.13)"><tspan font-weight="bold">Duration </tspan><tspan> in milliseconds</tspan></text><text stroke-linecap="round" stroke-linejoin="round" stroke-width="0" color="#000" font-family="KaTeX_Main" font-size="10" text-anchor="middle" transform="translate(199.99 195.75)"><tspan>Operations / 10</tspan><tspan dy="-5" font-size="8">6</tspan></text><text stroke-linecap="round" stroke-linejoin="round" stroke-width=".5" color="#000" font-family="KaTeX_Main" font-size="8" transform="translate(110.4 10.11)"><tspan>AVLBottomUp</tspan></text><g fill="none" stroke="currentColor" stroke-linecap="round" stroke-linejoin="round" stroke-width=".5" color="#000"><path stroke="#000" d="M74.9 7.51h29.9M28 158.73l.17-.36.17-.36.02-.04.16-.32.17-.35.03-.07.14-.28.17-.35.06-.11.11-.24.18-.34.07-.15.1-.2.17-.34.09-.18.08-.16.17-.35.11-.21.07-.13.17-.35.12-.25.05-.1.17-.34.15-.29.03-.06.17-.35.16-.33.01-.03.17-.35.17-.36.01-.01.17-.34.17-.36.02-.06.15-.31.17-.36.05-.09.12-.27.18-.37.06-.13.11-.24.17-.37.08-.17.09-.2.17-.37.1-.21.08-.16.17-.38.11-.25.06-.12.17-.37.14-.29.03-.09.18-.37.15-.33.02-.05.17-.37.17-.37v-.01l.18-.37.17-.38.01-.03.16-.34.17-.38.03-.07.14-.3.18-.37.05-.11.12-.26.17-.37.07-.14.1-.22.17-.37.09-.18.09-.18.17-.36.1-.22.07-.15.17-.36.12-.25.05-.11.18-.35.14-.3.03-.06.17-.36.16-.33.01-.03.17-.35.18-.36v-.01l.17-.35.17-.36.02-.05.15-.32.18-.37.03-.08.14-.29.17-.38.06-.12.11-.26.17-.39.08-.17.1-.23.17-.4.09-.23.08-.19.17-.42.11-.29.06-.15.18-.46.13-.34.04-.12.17-.48.15-.43.02-.07.17-.51.17-.51.01-.02.17-.55.17-.57.01-.04.16-.55.17-.6.03-.11.15-.52.17-.65.05-.18.12-.49.17-.69.07-.26.11-.44.17-.73.08-.36.09-.39.17-.76.1-.46.07-.32.18-.8.11-.56.06-.26.17-.82.14-.67.03-.17.17-.86.16-.77.02-.09.17-.87.17-.87.17-.88.17-.88.02-.1.16-.78.17-.89.03-.18.14-.69.17-.88.06-.27.11-.6.18-.85.07-.36.1-.49.17-.84.09-.43.08-.39.18-.81.1-.5.07-.29.17-.78.13-.55.04-.2.17-.74.15-.6.03-.12.17-.69.16-.63.01-.04.17-.65.17-.63.01-.03.17-.57.17-.58.02-.09.15-.47.17-.53.05-.13.12-.38.18-.48.06-.17.11-.29.17-.44.08-.19.09-.22.17-.4.1-.21.08-.16.17-.34.11-.23.06-.1.17-.31.14-.23.04-.06.17-.28.15-.22.02-.03.17-.23.17-.22.18-.21.17-.19.01-.01.16-.16.17-.16.03-.03.14-.12.18-.14.05-.04.12-.09.17-.11.07-.04.1-.07.17-.09.09-.05.09-.04.17-.08.1-.04.07-.03.17-.06.13-.05.04-.01.18-.05.14-.04.03-.01.17-.04.16-.03.01-.01.18-.03.17-.03.17-.02.17-.02.02-.01.15-.01.18-.02h.04l.13-.01.17-.01h.06l.11-.01h.17l.08-.01h.27l.09-.01h.77l.17.01h.52l.17.01h.51l.03.01h.49l.17.01h.52l.17.01h2.28l.13-.01h.34l.18-.01h.17l.17-.01h.17l.18-.01H65l.17-.01h.13l.04-.01h.17l.15-.01h.03l.17-.01.16-.01h.01l.17-.01.17-.01h.01l.17-.01.17-.01.02-.01.15-.01.17-.01h.05l.12-.01.18-.01.06-.01.11-.01.17-.01.08-.01.09-.01.17-.01.1-.01.08-.01.17-.02.11-.01h.06l.17-.02.14-.02h.04l.17-.02.15-.02h.02l.17-.02.17-.02.18-.02.17-.02H70l.16-.02.17-.03h.04l.13-.02.18-.02.05-.01.12-.01.17-.03h.07l.1-.02.17-.02.09-.01.09-.02.17-.02.1-.01.07-.01.17-.03.13-.02h.04l.18-.03.14-.02h.03l.17-.03.16-.02h.01l.18-.03.17-.02.17-.02.17-.03h.02l.15-.02.18-.03.04-.01.13-.02.17-.02.06-.01.11-.01.17-.03.08-.01.1-.01.17-.03.09-.01.08-.01.17-.03.11-.01.06-.01.18-.02.13-.02.04-.01.17-.02.15-.02h.02l.17-.03.17-.02h.01l.17-.02.17-.03h.01l.16-.02.18-.02.02-.01.15-.01.17-.02.05-.01.12-.01.17-.03h.07l.11-.02.17-.02.08-.01.09-.01.17-.02.1-.01.07-.01.18-.01.12-.02h.05l.17-.02.14-.01.03-.01.17-.01.16-.02h.02l.17-.01.17-.02.17-.01.17-.01.02-.01.16-.01.17-.01h.04l.13-.01.17-.01.06-.01h.12l.17-.01.07-.01h.1l.17-.01.09-.01h.08l.18-.01h.17l.17-.01h.17l.17-.01h.18l.17-.01h1.61l.11.01h.25l.09.01h.35l.17.01h.12l.05.01h.17l.14.01h.04l.17.01h.17l.17.01.17.01.18.01.17.01h.01l.16.01.17.01h.04l.13.01.18.01h.05l.12.01.17.01.07.01h.1l.17.01.09.01.09.01.17.01h.1l.07.01.17.01.13.01h.05l.17.01.14.01.03.01.17.01.16.01h.01l.18.01.17.02.17.01.17.01H91l.15.01.18.01.04.01.13.01.17.01h.06l.11.01.17.01.08.01h.1l.17.01.09.01h.08l.17.01.11.01h.06l.18.01.13.01h.04l.17.01.15.01h.02l.17.01.17.01h.18l.17.01h.01l.16.01h.21l.14.01h.22l.12.01h.24l.11.01H97l.16-.01h.36l.17-.01h.19l.16-.01h.17l.04-.01h.13l.17-.01h.06l.12-.01.17-.01h.07l.1-.01.17-.01h.09l.08-.01.18-.01.1-.01h.07l.17-.01.13-.01.04-.01.17-.01.15-.01h.03l.17-.01.16-.02h.01l.17-.01.17-.02h.01l.17-.01.17-.01.03-.01.14-.01.17-.01.05-.01.12-.01.18-.02h.06l.11-.01.17-.02h.08l.09-.01.18-.01.09-.01.08-.01.17-.02.12-.01h.05l.17-.01.14-.01.04-.01.17-.01.15-.01.02-.01.17-.01.17-.01.18-.01.17-.02h.01l.16-.01.17-.01h.04l.13-.01.18-.01h.05l.12-.01.17-.01h.07l.1-.01.17-.01h.18l.17-.01h.1l.07-.01h.17l.13-.01h.39l.17-.01h1.55l.06.01h.46l.17.01h.17l.17.01h.17l.18.01h.13l.04.01h.17l.15.01h.02l.18.01h.17l.17.01.17.01h.17l.18.01h.03l.14.01.17.01h.17l.17.01h.07l.11.01h.25l.09.01h.17l.1.01h.25l.12.01h.39l.17.01h1.97l.1-.01h.26l.08-.01h.29l.06-.01h.17l.13-.01h.04l.17-.01h.15l.03-.01h.17l.16-.01h.01l.17-.01.17-.01h.01l.17-.01.17-.01h.03l.14-.01.17-.01h.05l.13-.01.17-.01h.06l.11-.01.17-.01h.08l.09-.01.18-.01.09-.01h.08l.17-.01.12-.01h.05l.17-.01.14-.01h.04l.17-.01.15-.01h.02l.17-.01h.17l.18-.01.17-.01h.17l.17-.01h.04l.13-.01h.35l.17-.01h1.89l.18.01h.17l.17.01h.17l.03.01h.14l.18.01h.04l.13.01h.23l.11.01.17.01h.08l.1.01h.17l.09.01h.08l.17.01.12.01h.05l.18.01.13.01h.04l.17.01.15.01h.02l.18.01.16.01h.01l.17.01.17.01h.01l.16.01.18.01h.03l.14.01.17.01h.05l.12.01.17.01h.18l.17.01.08.01h.26l.1.01h.07l.18.01h.17l.17.01h.17l.17.01h.18l.17.01h2.06l.18-.01h.51l.17-.01h.15l.03-.01h.17l.16-.01h.18l.17-.01h.18l.17-.01h.03l.14-.01.17-.01h.18l.17-.01.06-.01h.11l.17-.01h.17l.18-.01.09-.01h.08l.17-.01.12-.01h.05l.17-.01.14-.01h.04l.17-.01.15-.01h.02l.17-.01.17-.01.18-.01.17-.01h.02l.15-.01.17-.01h.04l.13-.01.18-.01h.05l.12-.01.17-.01h.07l.1-.01.18-.01h.08l.09-.01h.17l.11-.01h.06l.17-.01.13-.01h.05l.17-.01.14-.01h.03l.17-.01h.17l.18-.01.17-.01.17-.01h.17l.03-.01h.14l.18-.01h.17l.17-.01h.17l.17-.01h.18l.17-.01h.17l.17-.01h.69l.15-.01h1.57l.17.01h.43l.09.01h.52l.12.01h.22l.14.01h.21l.15.01h.19l.17.01h.17l.18.01h.02l.15.01h.21l.13.01h.23l.12.01.17.01h.17l.17.01h.17l.18.01.11.01h.23l.13.01h.04l.17.01h.18l.17.01.16.01h.18l.17.01h.01l.17.01h.2l.14.01.17.01h.18l.17.01h.06l.11.01h.17l.08.01h.09l.18.01h.17l.17.01h.12l.05.01h.17l.14.01h.04l.17.01h.17l.17.01h.17l.18.01.17.01h.02l.15.01h.21l.13.01.18.01h.17l.17.01h.07l.1.01h.18l.08.01h.09l.17.01h.17l.17.01h.13l.05.01h.17l.14.01h.03l.17.01h.17l.18.01.17.01.17.01h.2l.14.01.18.01h.17l.17.01h.06l.11.01h.17l.08.01h.1l.17.01h.17l.17.01h.12l.06.01h.17l.13.01h.21l.15.01h.2l.16.01h.18l.17.01h.02l.15.01h.21l.14.01h.34l.17.01h.18l.17.01h.17l.17.01h.35l.12.01h.22l.14.01h.55l.17.01h.37l.15.01h.57l.12.01h.68l.18.01h.34l.13.01h.9l.18.01h.51l.17.01h.77l.09.01h.69l.17.01h.52l.17.01h.69l.17.01h.4l.12.01h.34l.18.01h.34l.11.01h.41l.17.01h.17l.17.01h.17l.18.01h.18l.16.01h.2l.14.01h.22l.13.01h.17l.06.01h.11l.18.01h.17l.17.01h.1l.07.01h.17l.12.01h.06l.17.01.13.01h.21l.15.01h.02l.18.01.16.01h.01l.17.01h.17l.02.01h.15l.18.01h.03l.14.01.17.01h.05l.12.01.17.01h.07l.11.01.17.01h.08l.09.01.17.01h.11l.07.01.17.01h.12l.05.01h.17l.14.01h.03l.18.01.15.01h.02l.17.01.17.01.17.01.18.01h.17l.17.01h.04l.13.01.17.01h.06l.12.01h.17l.07.01h.1l.17.01h.17l.18.01.11.01h.23l.13.01h.21l.15.01h.36l.01.01h.52l.17.01h1.89l.17-.01h.35l.15-.01h.19l.17-.01h.18l.17-.01h.17l.17-.01h.18l.17-.01h.05l.12-.01h.17l.07-.01h.1l.18-.01h.09l.08-.01h.17l.11-.01h.06l.17-.01.13-.01h.05l.17-.01.14-.01h.03l.17-.01h.16l.01-.01.18-.01.17-.01h.17l.17-.01.03-.01h.14l.18-.01.04-.01h.13l.17-.01.06-.01h.11l.18-.01.07-.01h.1l.17-.01.1-.01h.07l.17-.01.12-.01h.06l.17-.01.13-.01h.04l.17-.01.15-.01h.02l.18-.01h.17l.17-.01.17-.01h.02l.15-.01.18-.01h.03l.14-.01h.22l.12-.01h.17l.07-.01h.11l.17-.01h.17l.17-.01h.18l.17-.01h.17l.17-.01h.35l.15-.01h.71l.02-.01h1.81l.06.01h.69l.17.01h.53l.16.01h.56l.13.01h.51l.08.01h.44l.17.01h.69l.15.01h2.26l.17-.01h.34l.13-.01h.39l.17-.01h.17l.18-.01h.18l.16-.01.17-.01h.18l.17-.01h.17l.17-.01h.06l.11-.01.18-.01h.17l.17-.01.1-.01h.07l.17-.01.12-.01h.06l.17-.01h.13l.04-.01.17-.01h.17l.18-.01.17-.01.17-.02.17-.01h.02l.15-.01.18-.01h.03l.14-.01.17-.01h.05l.12-.01.17-.01.07-.01h.11l.17-.01.09-.01h.08l.17-.02h.11l.07-.01.17-.01.12-.01h.05l.17-.01.14-.01h.03l.18-.01.15-.02h.02l.17-.01.17-.01h.01l.16-.01.18-.01h.02l.15-.01.17-.02h.04l.13-.01.17-.01.06-.01h.12l.17-.01.07-.01.1-.01.17-.01.1-.01h.07l.18-.01.11-.01.06-.01.17-.01.13-.01h.04l.18-.02.14-.01h.03l.17-.02.16-.01h.01l.17-.01.18-.02h.01l.16-.01.17-.02h.03l.14-.01.17-.02h.05l.13-.02.17-.01.06-.01.11-.01.17-.02h.09l.08-.01.18-.02.1-.01.07-.01.17-.02.12-.01h.05l.17-.02.14-.02h.04l.17-.02.15-.02h.02l.17-.02.18-.02.17-.03.17-.02h.02l.15-.02.17-.02h.04l.14-.02.17-.02.05-.01.12-.01.17-.02.07-.01.1-.02.18-.02.09-.01.08-.01.17-.03.11-.01.06-.01.17-.02.13-.02h.05l.17-.03.14-.01.03-.01.17-.02.16-.02h.01l.18-.02.17-.02h.01l.16-.02.17-.02.03-.01.15-.01.17-.02.04-.01.13-.01.17-.02.06-.01.11-.01.18-.01.08-.01.09-.01.17-.02h.1l.07-.01.17-.01.12-.01h.06l.17-.02.13-.01h.04l.17-.01h.17l.18-.01.17-.01.17-.01h1.27l.11.01h.26l.08.01h.17l.11.01h.07l.17.01.12.01.05.01.17.01.14.01h.03l.18.02.15.01h.02l.17.02.17.02h.01l.16.01.18.02.02.01.15.02.17.02h.04l.13.02.17.02.06.01.12.02.17.02.07.01.1.02.17.02.1.01.08.02.17.02.11.02.06.01.17.03.13.02h.04l.18.03.14.02.03.01.17.02.17.03.17.03.18.03h.01l.16.02.17.03.03.01.14.02.17.02.05.01.13.02.17.03.06.01.11.01.17.03.09.01.08.01.18.03.1.01.07.01.17.02.12.02h.05l.18.03.13.01.04.01.17.02.15.01.02.01.17.02.18.02.17.01.17.02h.02l.15.02.17.01.04.01.14.01.17.01.05.01.12.01.17.01.07.01h.1l.18.02h.09l.08.01.17.01h.11l.06.01.17.01.13.01h.05l.17.01.14.01h.2l.17.01h.01l.17.01.17.01h.17l.17.01h.18l.17.01h.17l.17.01h.17l.18.01h.17l.17.01h.34l.12.01h.4l.17.01h.35l.17.01h.17l.17.01h.38l.14.01h.34l.18.01h.34l.09.01h.43l.17.01h.17l.17.01h.35l.16.01h.36l.16.01h.2l.15.01h.34l.17.01h.18l.17.01h.52l.17.01h.17l.17.01h.69l.17.01h2.93l.17-.01h.34l.18-.01h.36l.15-.01h.35l.17-.01h.17l.17-.01h.17l.18-.01h.17l.17-.01h.17l.17-.01h.13l.05-.01h.17l.14-.01h.2l.17-.01h.01l.17-.01h.18l.16-.01.17-.01h.03l.15-.01h.21l.13-.01.17-.01h.17l.18-.01.08-.01h.09l.17-.01h.1l.07-.01.17-.01h.18l.17-.01.13-.01h.04l.17-.01.15-.01h.02l.18-.01.17-.01.17-.01.17-.01h.02l.16-.01.17-.01h.03l.14-.01.17-.01h.05l.12-.01.18-.01.07-.01h.1l.17-.01.09-.01.08-.01.17-.01.11-.01h.07l.17-.01.12-.01.05-.01.17-.01.14-.01h.03l.18-.01.16-.02h.01l.17-.01.17-.02h.01l.16-.01.18-.02h.02l.15-.01.17-.02h.04l.13-.01.18-.02h.05l.12-.02.17-.01.08-.01.09-.01.17-.02.1-.01.08-.01.17-.01.11-.02h.06l.17-.02.13-.02h.04l.18-.02.14-.02h.03l.17-.02.17-.02.17-.02.18-.02h.01l.16-.02.17-.02h.03l.14-.02.17-.02.05-.01.13-.01.17-.02.06-.01.11-.02.17-.02.09-.01.09-.01.17-.02.1-.01.07-.01.17-.02.12-.01h.05l.18-.02.13-.02h.04l.17-.02.16-.02h.01l.17-.02.18-.01.17-.02.17-.01h.02l.15-.02.17-.01h.04l.14-.01.17-.01.05-.01h.12l.17-.01.08-.01h.09l.18-.01h.17l.17-.01h.34l.13-.01h.39l.17.01h.18l.17.01h.17l.01.01h.16l.17.01.03.01.15.01.17.01h.04l.13.01.17.02h.06l.11.01.18.02.08.01.09.01.17.02.1.01.07.01.17.02.12.01.06.01.17.03.13.02h.04l.17.03.16.02h.01l.18.03.17.03.17.03.17.03h.02l.16.02.17.03.03.01.14.02.17.03.05.01.12.02.18.03.07.01.1.02.17.03.09.02.08.01.17.03.11.02.07.01.17.03.12.02.05.01.17.02.14.03h.03l.18.03.16.02h.01l.17.03.17.03h.01l.16.02.18.03h.02l.15.02.17.02.04.01.13.01.18.02.05.01.12.01.17.02.08.01.09.01.17.02.1.01h.08l.17.02.11.01h.06l.17.02h.13l.04.01.18.01.14.01h.03l.17.01.17.01.17.01.18.01h.01l.16.01h.2l.14.01h.22l.13.01h.34l.17.01h1.72l.18-.01h.72l.14-.01h.22l.12-.01h.34l.18-.01h.34l.11-.01h.24l.12-.01h.39l.17-.01h.18l.17-.01h.18l.16-.01h.35l.17-.01h.34l.07-.01h.36l.09-.01h.34l.17-.01h.48l.04-.01h.69l.17-.01h1.72l.17.01h.52l.17.01h.35l.16.01h.18l.17.01h.37l.15.01.17.01h.35l.06.01h.28l.08.01h.09l.17.01h.18l.17.01h.11l.06.01h.17l.13.01h.39l.17.01.17.01h.36l.16.01h.34l.17.01h1.55l.18-.01h.34l.16-.01h.18l.18-.01.17-.01h.19l.15-.01h.17l.04-.01h.14l.17-.01h.05l.12-.01.17-.01h.17l.18-.01.09-.01h.08l.17-.01.11-.01h.06l.18-.01h.12l.05-.01.17-.01h.17l.17-.01.17-.01h.01l.17-.01h.18l.16-.01.17-.01h.03l.15-.01h.21l.13-.01h.24l.1-.01h.35l.17-.01h1.72l.17.01h.18l.17.01h.39l.12.01h.25l.1.01h.26l.08.01h.35l.17.01h.17l.17.01h.35l.16.01h1.21l.18-.01h.42l.09-.01h.27l.08-.01h.17l.11-.01h.06l.17-.01.13-.01h.04l.18-.01.15-.01h.02l.17-.01.17-.01.17-.01.18-.01h.01l.16-.01.17-.02h.03l.14-.01.18-.01h.04l.13-.01.17-.01.07-.01.1-.01.17-.01h.09l.09-.01.17-.01h.1l.07-.01.17-.01.12-.01h.05l.18-.01.13-.01h.21l.16-.01h.01l.17-.01h.18l.17-.01h1.38l.17.01h.17l.17.01h.17l.18.01.12.01h.05l.17.01.15.01h.02l.17.01.17.01h.01l.17.01.17.02h.01l.16.01.17.01h.03l.15.02.17.01.04.01.13.01.17.01.07.01.1.01.18.01.08.01.09.01.17.02.1.01h.07l.18.02.11.01.06.01.17.01.13.02h.04l.17.02.16.01h.02l.17.02.17.01.17.02.17.01h.02l.16.01.17.02h.03l.14.01.17.01h.06l.11.01.18.01h.07l.1.01h.17l.09.01h.36l.07.01h.34l.17-.01h.35l.16-.01h.01l.17-.01h.18l.17-.01.17-.02h.02l.15-.01.17-.02h.04l.13-.01.18-.02.06-.01.11-.01.17-.02.08-.01.09-.01.17-.03.1-.01.08-.01.17-.03.11-.01.06-.01.17-.03.13-.02.04-.01.18-.03.15-.02h.02l.17-.03.17-.03v-.01l.17-.02.18-.03.01-.01.16-.02.17-.04h.03l.14-.03.18-.02.04-.01.13-.02.17-.03.07-.01.1-.02.17-.02.09-.02.09-.01.17-.02.1-.02.07-.01.17-.02.12-.01.05-.01.18-.02.14-.01.03-.01.17-.01.16-.01.01-.01.17-.01.18-.01.17-.01.17-.01h.02l.15-.01h.21l.14-.01h.51l.08-.01h.72l.06.01h1.21l.17.01h.69l.04.01h.65l.08.01h.09l.17.01h.17l.18.01.11.01h.06l.17.01.14.01.03.01.17.01.16.02h.02l.17.02.17.02.17.02.17.03h.02l.16.03.17.03.03.01.14.02.17.04.06.01.11.02.18.04.07.02.1.02.17.04.09.02.08.02.17.04.11.02.07.02.17.04.12.02.05.01.17.04.15.03.03.01.17.03.16.03h.01l.17.03.17.03h.01l.17.03.17.02h.02l.15.02.17.02.04.01.13.01.18.01.06.01.11.01h.17l.08.01h.09l.17.01h.18l.17.01h.17l.17-.01h.35l.15-.01h.02l.17-.01.17-.01.18-.01.17-.01.01-.01.16-.01.17-.02h.03l.14-.02.18-.03h.05l.12-.02.17-.03.07-.01.1-.02.17-.02.09-.02.09-.01.17-.03.1-.02.07-.01.17-.03.12-.02h.05l.18-.03.14-.02h.03l.17-.02.16-.02h.01l.17-.02.18-.01.17-.02.17-.02h.02l.15-.02.18-.02h.03l.14-.02.17-.03.06-.01.11-.02.17-.03.08-.01.1-.02.17-.04.09-.02.08-.02.17-.04.11-.02.06-.01.18-.04.12-.03h.05l.17-.04.15-.02h.02l.17-.02.17-.02h.01l.17-.01h.69l.17-.02h.05l.12-.02.17-.06.07-.03.11-.06.17-.14.08-.07.09-.1.17-.21.1-.11.07-.08.18-.19.11-.06.06.01.17.11.14.15.03.06.17.64.16.37h.02l.17-.29.08-.23.09-.21"/><use xlink:href="#babcb__b" transform="matrix(3.75 0 0 3.75 366.2 84.61)"/><use xlink:href="#babcb__b" transform="matrix(3.75 0 0 3.75 89.85 7.51)"/></g><text stroke-linecap="round" stroke-linejoin="round" color="#000" font-family="KaTeX_Main" font-size="8" transform="translate(110.4 25.11)"><tspan>RedBlackBottomUp</tspan></text><g fill="none" stroke="currentColor" stroke-linecap="round" stroke-linejoin="round" color="#000"><path stroke="#F44336" d="M74.9 22.51h29.9M28 126.81l.17-.46.17-.47.02-.05.16-.43.17-.49.03-.1.14-.39.17-.49.06-.16.11-.34.18-.51.07-.21.1-.3.17-.5.09-.27.08-.24.17-.52.11-.31.07-.19.17-.51.12-.37.05-.14.17-.5.15-.42.03-.08.17-.49.16-.46.01-.03.17-.49.17-.47.01-.02.17-.45.17-.47.02-.06.15-.39.17-.45.05-.11.12-.32.18-.43.06-.15.11-.27.17-.41.08-.18.09-.22.17-.39.1-.21.08-.17.17-.36.11-.24.06-.12.17-.35.14-.27.03-.07.18-.33.15-.28.02-.04.17-.31.17-.29v-.01l.18-.29.17-.28.01-.03.16-.25.17-.26.03-.05.14-.21.18-.25.05-.07.12-.18.17-.23.07-.1.1-.14.17-.22.09-.11.09-.12.17-.21.1-.13.07-.09.17-.21.12-.15.05-.06.18-.21.14-.17.03-.04.17-.21.16-.19.01-.02.17-.21.18-.22.17-.21.17-.23.02-.03.15-.2.18-.24.03-.05.14-.19.17-.25.06-.09.11-.17.17-.27.08-.12.1-.16.17-.3.09-.16.08-.14.17-.32.11-.22.06-.12.18-.35.13-.27.04-.09.17-.38.15-.34.02-.06.17-.42.17-.41.01-.02.17-.45.17-.47.01-.03.16-.46.17-.51.03-.08.15-.44.17-.55.05-.15.12-.41.17-.58.07-.23.11-.37.17-.62.08-.3.09-.33.17-.65.1-.38.07-.28.18-.68.11-.47.06-.22.17-.7.14-.57.03-.14.17-.73.16-.65.02-.08.17-.73.17-.74v-.01l.17-.74.17-.75.02-.08.16-.67.17-.75.03-.15.14-.59.17-.75.06-.23.11-.51.18-.73.07-.3.1-.42.17-.72.09-.37.08-.33.18-.7.1-.43.07-.25.17-.67.13-.48.04-.17.17-.64.15-.53.03-.1.17-.6.16-.56.01-.03.17-.58.17-.55.01-.03.17-.51.17-.52.02-.07.15-.42.17-.48.05-.12.12-.35.18-.44.06-.15.11-.27.17-.41.08-.18.09-.2.17-.37.1-.2.08-.15.17-.34.11-.21.06-.1.17-.3.14-.22.04-.06.17-.27.15-.22.02-.03.17-.24.17-.22v-.01l.18-.21.17-.19.01-.02.16-.17.17-.17.03-.04.14-.13.18-.15.05-.04.12-.1.17-.13.07-.05.1-.07.17-.12.09-.06.09-.05.17-.09.1-.06.07-.04.17-.08.13-.06.04-.02.18-.08.14-.06.03-.01.17-.06.16-.06h.01l.18-.06.17-.05.17-.05.17-.05h.02l.15-.04.18-.04.04-.01.13-.03.17-.04.06-.02.11-.02.17-.03.08-.02.1-.02.17-.03.09-.02.08-.02.17-.03.11-.02.06-.01.18-.04.13-.02.04-.01.17-.03.15-.03.02-.01.17-.03.17-.03.01-.01.17-.03.17-.04h.01l.16-.04.17-.03.03-.01.15-.03.17-.04.05-.01.12-.03.17-.04.07-.02.11-.02.17-.05.08-.02.09-.02.17-.05.1-.03.07-.01.18-.05.11-.04.06-.01.17-.05.14-.04.03-.01.17-.05.16-.04.02-.01.17-.05.17-.06.17-.05.17-.05.02-.01.16-.05.17-.06.04-.01.13-.04.17-.06.06-.02.11-.04.18-.05.07-.03.1-.03.17-.06.09-.03.08-.03.18-.06.1-.04.07-.02.17-.06.13-.04.04-.02.17-.06.15-.05.03-.01.17-.06.16-.06h.01l.17-.06.17-.06h.01l.17-.06.17-.06.02-.01.15-.05.17-.06.05-.02.12-.04.18-.06.06-.03.11-.03.17-.06.08-.03.09-.03.17-.06.1-.04.08-.02.17-.06.11-.04.06-.02.17-.06.14-.04.04-.02.17-.05.15-.06h.02l.17-.06.17-.05.18-.06.17-.06H70l.16-.05.17-.05.04-.01.13-.05.18-.05.05-.02.12-.03.17-.05.07-.02.1-.03.17-.05.09-.03.09-.02.17-.05.1-.03.07-.02.17-.04.13-.04.04-.01.18-.05.14-.03.03-.01.17-.04.16-.04h.01l.18-.04.17-.04.17-.04.17-.04h.02l.15-.04.18-.03.04-.01.13-.02.17-.04.06-.01.11-.02.17-.03.08-.01.1-.02.17-.03.09-.01.08-.01.17-.03.11-.01.06-.01.18-.03.13-.01.04-.01.17-.02.15-.02h.02l.17-.02.17-.02h.01l.17-.02.17-.01h.01l.16-.02.18-.01.02-.01.15-.01.17-.01h.05l.12-.01.17-.01.07-.01h.11l.17-.02h.17l.17-.01.1-.01h.07l.18-.01h.17l.17-.01.14-.01h.2l.16-.01h.02l.17-.01h.34l.17-.01h.18l.17-.01H81l.17-.01h.18l.17-.01h.17l.17-.01h.17l.18-.01h.17l.17-.01h.13l.04-.01h.17l.15-.01h.2l.16-.01h.01l.17-.01h.17l.01-.01h.17l.17-.01h.02l.15-.01.17-.01h.17l.18-.01.06-.01h.11l.17-.01.08-.01h.09l.18-.01.09-.01h.08l.17-.01.12-.01h.05l.17-.01.14-.01h.04l.17-.01.15-.01h.02l.17-.01.17-.01.18-.01.17-.01h.01l.16-.01.17-.01h.04l.13-.01.18-.01h.05l.12-.01.17-.01h.07l.1-.01.17-.01h.09l.09-.01h.17l.1-.01h.07l.17-.01.13-.01h.05l.17-.01h.17l.17-.01.16-.01h.19l.17-.01.17-.01H91l.15-.01h.22l.13-.01h.23l.11-.01h.61l.08-.01h1.55l.17.01h.38l.14.01h.34l.17.01h.18l.17.01h.17l.17.01h.17l.18.01.12.01h.05l.17.01h.17l.17.01.16.01h.02l.17.01h.17l.17.01.17.01h.02l.16.01h.17l.04.01h.13l.17.01h.06l.12.01.17.01h.17l.17.01h.09l.08.01h.18l.1.01h.07l.17.01h.17l.17.01h.35l.16.01h.53l.17.01h.75l.11-.01h.34l.18-.01h.34l.12-.01h.05l.17-.01h.18l.17-.01.15-.01h.02l.17-.01.17-.01.18-.01.17-.01h.01l.16-.01.17-.02h.04l.13-.01.18-.02h.05l.12-.01.17-.01.07-.01.1-.01.17-.01.09-.01.09-.01.17-.02.1-.01h.07l.17-.02.13-.01.05-.01.17-.02.14-.01h.03l.17-.02.16-.02h.01l.18-.01.17-.02.17-.02.17-.02h.03l.14-.02.18-.02h.04l.13-.02.17-.01.06-.01.11-.01.17-.02.08-.01.1-.01.17-.02h.09l.08-.01.17-.02.12-.01.05-.01.18-.01.13-.01.04-.01.17-.02.15-.01h.02l.18-.02.16-.01h.01l.17-.02.17-.01h.01l.16-.01.18-.02h.03l.14-.01.17-.01.05-.01.12-.01.17-.01h.07l.11-.01.17-.01.08-.01h.09l.17-.01.1-.01h.07l.18-.01.12-.01h.05l.17-.01.14-.01h.03l.17-.01h.18l.17-.01.17-.01h.17l.18-.01h.01l.16-.01h.21l.13-.01h.23l.12-.01h.34l.17-.01h.46l.06-.01h.51l.15-.01h2.53l.08-.01h2.92l.17-.01h1.04l.14-.01h1.09l.14-.01h1.04l.17-.01h2.75l.17.01h.69l.1.01h.37l.05.01h.34l.17.01h.35l.17.01h.17l.18.01h.17l.17.01h.17l.17.01h.18l.17.01h.07l.1.01h.26l.08.01h.18l.11.01h.23l.13.01h.21l.15.01h.03l.17.01h.17l.17.01h.18l.17.01h.34l.17.01h.18l.17.01h.42l.09.01h1.55l.17-.01h.37l.15-.01h.21l.13-.01h.23l.12-.01.17-.01h.17l.18-.01.08-.01h.09l.17-.01.11-.01h.06l.17-.01.13-.01h.05l.17-.01.14-.01.03-.01.17-.01.16-.01h.01l.18-.02.17-.01.17-.02.17-.01.03-.01.14-.01.18-.01.04-.01.13-.01.17-.02h.06l.11-.01.17-.02.08-.01.1-.01.17-.02.09-.01h.08l.17-.02.12-.01.06-.01.17-.02.13-.01.04-.01.17-.02.15-.01h.02l.18-.02.16-.02h.01l.17-.02.17-.02h.01l.16-.01.18-.02.03-.01.14-.01.17-.01.05-.01.12-.01.17-.02h.07l.11-.01.17-.02h.08l.09-.01.17-.01.11-.01.06-.01.18-.01.12-.01h.05l.17-.01.14-.01h.03l.18-.01.15-.01h.02l.17-.01.17-.01.17-.01h.2l.15-.01h.21l.13-.01h1.21l.11.01h.23l.13.01h.21l.15.01h.03l.17.01.16.01h.01l.17.01.17.01h.01l.17.01.17.01h.03l.14.01.17.01.05.01.13.01.17.01.06.01.11.01.17.02h.08l.09.01.18.02.1.01.07.01.17.01.12.02h.05l.17.02.14.02h.04l.17.02.15.02h.02l.17.02.17.02.18.02.17.02.02.01.15.02.17.02h.04l.13.02.18.02.05.01.12.01.17.03h.07l.1.02.18.02.08.01.09.01.17.02.11.02h.06l.17.03.13.01.05.01.17.02.14.02h.03l.17.02.16.02h.01l.18.02.17.02.17.02.17.02.03.01.14.01.18.02.04.01.13.01.17.02.06.01.11.01.17.01.08.01.1.01.17.02.1.01h.07l.17.02.12.01h.06l.17.02.13.01h.04l.17.01.15.02h.02l.18.01.16.01h.01l.17.02.17.01h.02l.15.01.18.01h.03l.14.01.17.01h.17l.17.01.07.01h.11l.17.01h.17l.17.01h.11l.06.01h.18l.12.01h.22l.14.01h.21l.15.01h.36l.17.01h.56l.13.01h.69l.17.01h1.03l.15.01h.89l.17.01h.69l.06.01h.45l.18.01h.51l.17.01h.18l.17.01h.17l.17.01h.17l.18.01h.19l.15.01h.21l.14.01h.17l.05.01h.29l.07.01h.1l.18.01h.17l.17.01h.11l.06.01h.17l.13.01h.22l.14.01h.03l.17.01h.16l.01.01h.18l.17.01h.17l.17.01h.03l.14.01h.22l.13.01.17.01h.17l.18.01h.17l.17.01h.17l.17.01h.18l.17.01h.17l.17.01h.35l.16.01h.35l.02.01h.84l.17.01h1.73l.15-.01h.53l.18-.01h.17l.17-.01h.34l.06-.01h.29l.07-.01h.1l.17-.01h.17l.18-.01h.17l.17-.01.13-.01h.04l.17-.01h.18l.17-.01.16-.01h.01l.17-.01.18-.01h.01l.16-.01.17-.01h.03l.14-.01.17-.01h.05l.13-.01.17-.01h.06l.11-.01.17-.01.08-.01.09-.01.18-.01h.1l.07-.01.17-.01.12-.01h.05l.17-.02.14-.01h.04l.17-.01.15-.02h.02l.17-.01.17-.01.18-.02.17-.01h.02l.15-.01.17-.02h.04l.14-.01.17-.02h.05l.12-.01.17-.02h.07l.1-.01.18-.02h.09l.08-.01.17-.02.11-.01h.06l.17-.02.13-.01h.05l.17-.02.14-.01h.03l.17-.01.16-.02h.01l.18-.01.17-.02h.01l.16-.01.17-.01.03-.01.14-.01.18-.01.04-.01.13-.01.17-.01h.06l.11-.01.18-.01.07-.01h.1l.17-.02h.1l.07-.01.17-.01.12-.01h.06l.17-.01.13-.01h.04l.17-.01.15-.01h.02l.18-.01h.17l.17-.01.17-.01h.17l.18-.01h.03l.14-.01h.22l.12-.01h.35l.17-.01h1.03l.14.01h.38l.17.01h.18l.16.01h.2l.15.01.17.01h.17l.17.01h.06l.12.01.17.01.07.01h.1l.17.01.1.01h.07l.18.02h.11l.06.01.17.01.13.01h.04l.18.02.14.01.03.01.17.01.16.02h.01l.17.01.18.02h.01l.16.02.17.02h.03l.14.01.17.02.05.01.13.01.17.02.06.01.11.01.17.02.08.01.09.01.18.02.1.01.07.01.17.02.12.01.05.01.17.01.14.02h.04l.17.02.15.02h.02l.17.02.18.02.17.02.17.02h.02l.15.02.17.02h.04l.14.01.17.02h.05l.12.02.17.01.07.01.1.01.18.01.09.01.08.01.17.01.11.01h.06l.17.01.13.01h.05l.17.02.14.01h.03l.17.01h.17l.18.01.17.01h.17l.17.01h.35l.04.01h.82l.17-.01h.34l.12-.01h.23l.13-.01h.04l.17-.01h.17l.18-.01.17-.01.17-.01.17-.01h.02l.15-.02.18-.01h.03l.14-.01.17-.01.05-.01.12-.01.17-.01.07-.01.11-.01.17-.01.09-.01.08-.01.17-.01.11-.01.07-.01.17-.01.12-.01.05-.01.17-.02.14-.01h.03l.18-.02.15-.01h.02l.17-.02.17-.02h.01l.16-.01.18-.02h.02l.15-.01.17-.02h.04l.13-.01.17-.02h.06l.12-.01.17-.01.07-.01.1-.01.17-.01.1-.01h.07l.18-.02h.11l.06-.01.17-.01.13-.01h.04l.18-.01.14-.01h.03l.17-.01h.17l.17-.01.18-.01h.01l.16-.01h.2l.14-.01h.17l.05-.01h.36l.11-.01h.86l.12-.01h1.45l.15.01h2.41l.17-.01h.53l.16-.01h.2l.15-.01h.17l.04-.01h.3l.06-.01h.11l.18-.01h.08l.09-.01h.17l.1-.01h.07l.17-.01.12-.01h.06l.17-.01.13-.01h.04l.17-.01.15-.01h.02l.18-.01.17-.02.17-.01.17-.01h.02l.15-.02.18-.01h.03l.14-.01.17-.02h.05l.12-.01.18-.01.06-.01.11-.01.17-.01.09-.01.08-.01.17-.01.11-.01h.07l.17-.02.12-.01h.05l.17-.02.14-.01h.03l.18-.01.15-.02h.02l.17-.01.17-.01.01-.01.16-.01.18-.01h.02l.15-.01.17-.01.04-.01h.13l.17-.02h.06l.12-.01h.17l.07-.01h.1l.17-.01.1-.01h.08l.17-.01h.11l.06-.01h.17l.13-.01h.22l.14-.01h.2l.17-.01h.52l.17-.01h.03l.14.01h.69l.17.01h.17l.18.01h.17l.17.01h.17l.18.01.13.01h.04l.17.01.15.01h.02l.17.01.18.01.17.01.17.01h.02l.15.01.17.02h.04l.14.01.17.01.05.01.12.01.17.01.07.01.1.01.18.01.09.01.08.01.17.01.11.01.06.01.17.01.13.01.05.01.17.02.14.01h.03l.17.02.17.01h.01l.17.02.17.02h.01l.16.01.17.02h.03l.15.01.17.02h.04l.13.02.17.01.06.01.11.01.18.01.08.01h.09l.17.02.1.01h.07l.17.01.12.01.06.01.17.01.13.01h.04l.17.01.15.01h.02l.18.01.17.01.17.01.17.01h.02l.15.01h.21l.14.01h.22l.12.01h.52l.09.01h.72l.05-.01h.34l.18-.01h.17l.17-.01h.18l.16-.01.18-.01h.02l.15-.01.17-.01h.04l.13-.01.17-.01h.06l.12-.01.17-.01.08-.01h.09l.17-.02.1-.01h.08l.17-.02.11-.01h.06l.17-.02.13-.01h.04l.18-.02.14-.01.03-.01.17-.01.17-.02.17-.02.18-.01.01-.01.16-.01.17-.02h.03l.14-.02.17-.02.05-.01.13-.01.17-.02h.06l.11-.01.17-.02.09-.01.08-.01.18-.02.1-.01.07-.01.17-.02.12-.01h.05l.18-.02.13-.01.04-.01.17-.01.15-.02h.02l.17-.01.18-.02.17-.01.17-.02h.02l.15-.01.17-.01h.04l.14-.01.17-.01.05-.01h.12l.17-.01h.08l.09-.01.18-.01h.17l.17-.01h.17l.17-.01h.69l.17.01h.36l.16.01.17.01h.18l.17.01h.04l.13.01.17.01h.06l.11.01.18.02h.08l.09.01.17.02.1.01h.07l.17.02.12.01.06.01.17.02.13.01.04.01.17.02.15.02h.02l.18.02.17.03.17.02.17.03h.02l.16.02.17.03h.03l.14.02.17.03.05.01.12.02.18.03.07.01.1.02.17.03.09.01.08.02.17.03.11.02.07.01.17.03.12.02.05.01.17.03.14.03h.03l.18.03.16.03h.01l.17.03.17.03h.01l.16.03.18.03h.02l.15.03.17.03h.04l.13.03.18.03.05.01.12.01.17.03.08.01.09.02.17.02.1.02.08.01.17.02.11.02.06.01.17.02.13.02h.04l.18.02.14.02h.03l.17.02.17.02.17.02.18.02h.01l.16.02.17.01h.03l.14.02.17.01.05.01h.13l.17.02h.06l.11.01.17.01h.09l.09.01.17.01h.17l.17.01h.17l.18.01h.17l.17.01h1.55l.05-.01h.37l.09-.01h.18l.09-.01h.08l.17-.01h.17l.17-.01.13-.01h.05l.17-.01.14-.01h.03l.17-.01.17-.01h.01l.17-.01.17-.01h.01l.16-.01.17-.01h.03l.15-.01.17-.02h.04l.13-.01.17-.01.06-.01.11-.01.18-.01.08-.01.09-.01.17-.01.1-.01.07-.01.17-.01.12-.01.06-.01.17-.02.13-.01h.04l.17-.02.16-.02h.01l.18-.02.17-.02.17-.01.17-.02.02-.01.16-.01.17-.02.03-.01.14-.01.17-.03h.05l.12-.02.18-.02.07-.01.1-.01.17-.02.09-.01.08-.01.17-.03.11-.01.07-.01.17-.02.12-.02.05-.01.17-.02.14-.02h.03l.18-.03.16-.02h.01l.17-.03.17-.02h.01l.16-.03.18-.02.02-.01.15-.02.17-.02.04-.01.13-.01.18-.03.05-.01.12-.01.17-.02.08-.01.09-.02.17-.02.1-.01.08-.02.17-.02.11-.01.06-.01.17-.02.13-.02h.04l.18-.03.14-.02h.03l.17-.02.17-.02.17-.02.18-.02h.01l.16-.02.17-.01.03-.01.14-.01.17-.02h.05l.13-.01.17-.02h.07l.1-.01.17-.02h.09l.09-.01.17-.01.1-.01h.07l.17-.02h.12l.05-.01.18-.01h.13l.04-.01h.17l.16-.01h.01l.17-.01h.18l.17-.01h.19l.15-.01h.35l.17-.01h.86l.17.01h.35l.12.01h.22l.14.01h.03l.17.01h.18l.17.01.17.01h.01l.16.01.17.01h.18l.17.01.04.01.13.01.17.01h.07l.1.01.18.01.08.01h.09l.17.02h.1l.07.01.17.01.12.01.06.01.17.01.13.02h.04l.17.01.16.02h.02l.17.01.17.02.17.02.17.01h.02l.16.02.17.01.03.01.14.01.17.02h.05l.12.01.18.02h.07l.1.01.17.02h.09l.08.01.17.02h.11l.07.01.17.01.12.01h.05l.17.01.14.01.03.01.18.01.16.01h.01l.17.01h.18l.17.01.17.01h.02l.15.01h.34l.18.01h1.03l.11-.01h.23l.13-.01h.22l.15-.01h.02l.17-.01.17-.01.17-.01.18-.01h.01l.16-.01.17-.01h.03l.14-.01.17-.01h.05l.13-.01.17-.01.07-.01.1-.01.17-.01h.09l.09-.01.17-.01.1-.01.07-.01.17-.01.12-.01h.05l.18-.01.13-.01h.04l.17-.01.16-.01.01-.01h.17l.18-.01.17-.01.17-.01.02-.01h.15l.17-.01h.04l.14-.01h.22l.12-.01h.17l.08-.01h.27l.09-.01h2.53l.13.01h.34l.18.01h1.03l.13.01h1.81l.12-.01h.69l.17-.01h1.04l.16-.01h.72l.15.01h.58l.11.01h.34l.17.01h.18l.17.01h.11l.06.01h.17l.13.01h.04l.18.01.15.01h.02l.17.01.17.01.17.02.18.01h.01l.16.01.17.02h.03l.14.01.18.02h.04l.13.02.17.01.07.01.1.01.17.02.09.01.09.01.17.02.1.01.07.01.17.02.12.02h.05l.18.03.13.02h.04l.17.03.16.02h.01l.17.03.18.02.17.03.17.03h.02l.15.02.17.03.04.01.14.02.17.03.06.01.11.02.17.03.08.01.1.01.17.03.09.02.08.01.17.03.11.02.06.01.18.03.12.03h.05l.17.03.15.03.02.01.17.03.17.03h.01l.17.03.17.03h.01l.16.02.17.03.03.01.15.02.17.03h.04l.13.02.17.03.07.01.1.02.18.02.08.01.09.02.17.02.1.01.07.01.18.02.11.01.06.01.17.02.13.01.04.01.17.01.16.02h.02l.17.01.17.01.17.01.17.01h.02l.16.01.17.01h.17l.17.01h1.21l.17-.01h.12l.05-.01h.17l.15-.01h.03l.17-.01h.17l.17-.01.17-.01h.01l.17-.01.17-.01h.02l.15-.01.17-.01h.04l.13-.01.18-.01h.06l.11-.01.17-.01h.08l.09-.01.17-.01h.18l.17-.01.11-.01h.06l.17-.01h.17l.18-.01h.17l.17-.01h1.72l.17.01h.35l.1.01h.24l.12.01h.37l.03.01h.17l.16.01h.36l.17.01h1.03l.17-.01h.18l.17-.01h.17l.17-.01h.11l.06-.01.18-.01h.12l.05-.01.17-.01.15-.01h.02l.17-.01.17-.02h.01l.17-.01.17-.01h.01l.16-.02.17-.01h.03l.15-.01.17-.02h.04l.13-.01.17-.01h.07l.1-.01.18-.01h.17l.17-.01h.17l.18-.01h.17l.17.01h.34l.16.01h.02l.17.01.17.01.17.01.17.01h.02l.16.02.17.01.03.01.14.01.17.02.06.01.11.01.18.02.07.01.1.01.17.02.09.01.08.01.17.03.11.01.07.01.17.02.12.01h.05l.17.02.15.02h.03l.17.02.16.01h.01l.17.01h.17l.01.01h.51l.17-.01h.17l.18-.02h.06l.11-.02.17-.02.08-.01.09-.01.17-.03.1-.01.08-.02.17-.03.11-.03.06-.01.17-.04.14-.03.03-.01.18-.04.15-.04.02-.01.17-.04.17-.04.18-.05.17-.04h.01l.16-.03.17-.04.03-.01.14-.02.18-.03.05-.01.12-.02.17-.02.07-.01.1-.01.17-.02.09-.01.09-.01.17-.01.1-.01h.07l.17-.01h.12l.05-.01h.18l.14-.01h.37l.17-.01h.18l.17-.01h.19l.15-.01.18-.01h.03l.14-.01.17-.02h.06l.11-.02.17-.03.08-.02.1-.02.17-.05.09-.03.08-.02.17-.08.11-.05.06-.03.18-.09.12-.07.05-.03.17-.1.15-.1.02-.01.17-.11.17-.09h.01l.17-.09.17-.06h.01l.16-.02.17-.01.03-.01.15.03.17.05.05.02.12.06.17.11.07.04.11.08.17.13.08.06.09.07.17.13.1.06.07.04.18.09.11.03.06-.01.17-.07.14-.1.03-.05.17-.41.16-.24.02.01.17.61.08.47.09.42"/><use xlink:href="#babcb__a" color="#F44336" transform="matrix(3.75 0 0 3.75 79.62 55.69)"/><use xlink:href="#babcb__a" color="#F44336" transform="matrix(3.75 0 0 3.75 89.85 22.51)"/></g><text stroke-linecap="round" stroke-linejoin="round" color="#000" font-family="KaTeX_Main" font-size="8" transform="translate(241.1 10.11)"><tspan>AVLWeakBottomUp</tspan></text><g fill="none" stroke="currentColor" stroke-linecap="round" stroke-linejoin="round" color="#000"><path stroke="#00C853" d="M205.6 7.51h29.9M28 158.34l.17-.34.17-.34.02-.03.16-.3.17-.33.03-.07.14-.25.17-.33.06-.1.11-.23.18-.32.07-.14.1-.18.17-.33.09-.17.08-.16.17-.32.11-.21.07-.12.17-.33.12-.25.05-.09.17-.33.15-.28.03-.06.17-.34.16-.33.01-.02.17-.35.17-.35.01-.02.17-.34.17-.36.02-.05.15-.31.17-.37.05-.1.12-.28.18-.37.06-.14.11-.24.17-.39.08-.17.09-.21.17-.39.1-.22.08-.18.17-.39.11-.27.06-.13.17-.4.14-.31.03-.09.18-.4.15-.35.02-.05.17-.41.17-.39V144l.18-.4.17-.41.01-.03.16-.37.17-.4.03-.07.14-.33.18-.39.05-.12.12-.28.17-.39.07-.15.1-.24.17-.38.09-.2.09-.19.17-.38.1-.23.07-.14.17-.38.12-.26.05-.11.18-.37.14-.3.03-.07.17-.36.16-.33.01-.03.17-.36.18-.36v-.01l.17-.36.17-.36.02-.04.15-.32.18-.36.03-.09.14-.28.17-.37.06-.13.11-.25.17-.38.08-.17.1-.22.17-.4.09-.22.08-.19.17-.42.11-.28.06-.15.18-.44.13-.34.04-.12.17-.47.15-.42.02-.07.17-.5.17-.5.01-.02.17-.55.17-.56.01-.03.16-.55.17-.6.03-.1.15-.52.17-.64.05-.18.12-.48.17-.69.07-.26.11-.44.17-.72.08-.36.09-.39.17-.76.1-.46.07-.32.18-.8.11-.56.06-.26.17-.82.14-.67.03-.17.17-.86.16-.77.02-.09.17-.87.17-.88.17-.89.17-.89.02-.09.16-.79.17-.89.03-.18.14-.7.17-.88.06-.28.11-.6.18-.86.07-.36.1-.5.17-.84.09-.44.08-.39.18-.82.1-.5.07-.29.17-.79.13-.56.04-.2.17-.74.15-.61.03-.12.17-.7.16-.64.01-.04.17-.65.17-.64.01-.02.17-.59.17-.58.02-.09.15-.47.17-.54.05-.13.12-.38.18-.49.06-.17.11-.3.17-.45.08-.19.09-.23.17-.39.1-.22.08-.16.17-.36.11-.22.06-.11.17-.32.14-.23.04-.06.17-.28.15-.23.02-.03.17-.25.17-.22.18-.21.17-.2.01-.02.16-.17.17-.17.03-.03.14-.13.18-.14.05-.04.12-.1.17-.13.07-.04.1-.07.17-.11.09-.05.09-.05.17-.09.1-.05.07-.04.17-.07.13-.06.04-.02.18-.06.14-.06.03-.01.17-.06.16-.05h.01l.18-.05.17-.05.17-.05.17-.04h.02l.15-.04.18-.04.04-.01.13-.03.17-.03.06-.01.11-.03.17-.03.08-.02.1-.02.17-.03.09-.02.08-.02.17-.03.11-.02.06-.02.18-.03.13-.03.04-.01.17-.03.15-.03.02-.01.17-.04.17-.04h.01l.17-.04.17-.04h.01l.16-.04.17-.05.03-.01.15-.03.17-.05.05-.01.12-.04.17-.05.07-.02.11-.03.17-.05.08-.03.09-.03.17-.05.1-.03.07-.03.18-.05.11-.04.06-.02.17-.06.14-.05.03-.02.17-.06.16-.06.02-.01.17-.06.17-.07.17-.07.17-.07.02-.01.16-.06.17-.07.04-.02.13-.06.17-.07.06-.03.11-.05.18-.07.07-.03.1-.05.17-.08.09-.04.08-.04.18-.08.1-.05.07-.03.17-.08.13-.06.04-.02.17-.08.15-.07.03-.02.17-.08.16-.08h.01l.17-.09.17-.08.01-.01.17-.08.17-.08.02-.02.15-.07.17-.08.05-.03.12-.06.18-.09.06-.03.11-.05.17-.09.08-.04.09-.05.17-.09.1-.05.08-.03.17-.09.11-.06.06-.03.17-.08.14-.07.04-.02.17-.09.15-.07.02-.01.17-.09.17-.08.18-.09.17-.08.01-.01.16-.08.17-.08.04-.02.13-.07.18-.08.05-.02.12-.06.17-.08.07-.04.1-.04.17-.08.09-.04.09-.04.17-.08.1-.05.07-.03.17-.08.13-.05.04-.02.18-.08.14-.06.03-.01.17-.07.16-.07.01-.01.18-.07.17-.07.17-.07.17-.07h.02l.15-.06.18-.06.04-.02.13-.05.17-.06.06-.02.11-.04.17-.06.08-.03.1-.03.17-.06.09-.03.08-.02.17-.06.11-.04.06-.01.18-.06.13-.03.04-.02.17-.05.15-.04h.02l.17-.05.17-.05h.01l.17-.04.17-.05h.01l.16-.04.18-.04.02-.01.15-.03.17-.04.05-.01.12-.03.17-.04.07-.02.11-.02.17-.04.08-.01.09-.02.17-.03.1-.02.07-.02.18-.03.12-.02.05-.01.17-.03.14-.03.03-.01.17-.03.16-.02.02-.01.17-.02.17-.03.17-.03.17-.03h.02l.16-.03.17-.02.04-.01.13-.02.17-.02.06-.01.12-.02.17-.02.07-.01.1-.01.17-.03.09-.01.08-.01.18-.02.1-.01.07-.01.17-.02.13-.02h.04l.17-.02.15-.02h.03l.17-.02.16-.02h.01l.17-.02.17-.01.01-.01.17-.01.17-.02h.02l.15-.01.17-.02h.05l.12-.01.18-.01.06-.01.11-.01.17-.01.08-.01.09-.01.18-.01h.09l.08-.01.17-.01.12-.01h.05l.17-.01.14-.01h.04l.17-.01h.17l.17-.01.17-.01h.18l.17-.01h.01l.16-.01h.21l.13-.01h.35l.17-.01h.34l.09-.01H91l.15.01h.58l.11.01h.52l.09.01h.42l.18.01h.34l.15.01h.19l.17.01h.18l.17.01h.17l.18.01h.17l.17.01h.17l.17.01h.18l.17.01h.17l.17.01h.17l.18.01h.12l.05.01h.17l.14.01h.2l.16.01h.19l.17.01h.17l.17.01h.18l.17.01h.17l.17.01h.18l.17.01h.17l.17.01h.17l.18.01h.34l.13.01h.39l.17.01h.34l.17.01h.38l.14.01h.58l.11.01h.52l.09.01h.42l.17.01h.35l.15.01h.19l.17.01h.36l.16.01.17.01h.17l.18.01h.17l.17.01h.07l.1.01.17.01h.18l.17.01.1.01h.07l.17.01.13.01h.05l.17.02.14.01h.03l.17.01.16.01h.01l.18.02.17.01.17.02.17.01h.03l.14.02.18.01.04.01.13.01.17.02h.06l.11.02.17.02h.08l.1.02.17.02.09.01h.08l.17.02.12.02h.05l.18.02.13.02.04.01.17.02.15.02h.02l.18.02.16.02h.01l.17.03.17.02h.01l.16.02.18.02h.03l.14.02.17.02h.05l.12.02.17.02.07.01.11.01.17.02.08.01.09.01.17.01.1.01.07.01.18.01.12.01.05.01.17.01.14.01.03.01.17.01.16.01h.02l.17.01.17.01h.17l.18.01h.17l.17.01h.52l.17-.01h.17l.17-.01h.17l.18-.01.11-.01h.06l.17-.02.13-.01h.04l.17-.02.15-.01h.03l.17-.02.16-.02h.01l.17-.03.17-.02h.01l.17-.02.17-.03h.03l.14-.03.17-.03h.05l.13-.03.17-.03.06-.01.11-.02.17-.04.08-.01.09-.02.18-.04.09-.02.08-.02.17-.03.12-.03.05-.01.17-.05.14-.03.04-.01.17-.04.15-.04h.02l.17-.05.17-.04.18-.04.17-.05h.01l.16-.04.17-.05.04-.01.13-.03.18-.05.05-.01.12-.03.17-.05.07-.02.1-.02.17-.05.09-.02.09-.02.17-.05.11-.03.06-.01.17-.05.13-.03.05-.01.17-.04.14-.03.03-.01.17-.04.16-.04.01-.01.18-.04.17-.03.17-.04.17-.04h.03l.14-.03.18-.04.04-.01.13-.02.17-.04.06-.01.11-.02.17-.03.08-.01.1-.02.17-.03.09-.01.08-.02.17-.02.12-.02.05-.01.18-.02.13-.02.04-.01.17-.02.15-.02h.02l.18-.02.16-.02h.01l.17-.02.17-.02h.01l.16-.02.18-.01.03-.01.14-.01.17-.02h.05l.12-.01.17-.01.07-.01.11-.01.17-.01h.08l.09-.01.17-.01.1-.01h.07l.18-.01.12-.01h.05l.17-.01h.14l.03-.01h.17l.16-.01h.02l.17-.01.17-.01h.17l.18-.01h.17l.17-.01h.04l.13-.01h.23l.12-.01h.24l.1-.01h.17l.09-.01h.37l.06-.01h.17l.13-.01h.36l.03-.01h.34l.17-.01h.18l.17-.01h.34l.17-.01h.52l.17-.01h.44l.08-.01h1.03l.17-.01h.69l.17.01h.86l.18.01h.45l.06.01h.35l.17.01h.34l.16.01h.19l.17.01h.17l.17.01h.17l.18.01h.17l.17.01h.17l.17.01h.08l.1.01h.17l.09.01h.25l.12.01h.06l.17.01h.17l.17.01h.17l.18.01.16.01h.01l.17.01h.18l.16.01.18.01h.17l.17.01h.17l.17.01h.07l.11.01.17.01h.17l.17.01h.11l.06.01h.18l.12.01h.05l.17.01h.17l.18.01.15.01h.19l.17.01.17.01.18.01h.17l.17.01h.04l.13.01.17.01h.18l.17.01h.07l.1.01.17.01h.09l.08.01h.18l.11.01h.06l.17.01.13.01h.04l.17.01h.15l.03.01h.17l.16.01h.01l.17.01.17.01h.01l.17.01.17.01h.03l.14.01.17.01h.05l.13.01.17.01h.06l.11.01.17.01h.08l.09.01.18.01h.1l.07.01.17.01h.12l.05.01.17.01.14.01h.04l.17.01.15.01h.02l.17.01.17.01.18.01.17.01h.02l.15.02.17.01h.04l.13.01.18.01h.05l.12.01.17.01.07.01h.1l.18.02h.08l.09.01.17.01.11.01h.06l.17.02.13.01h.05l.17.01.14.01.03.01.17.01.16.01h.01l.18.01.17.02.17.01.17.01.03.01.14.01.18.01h.04l.13.01.17.02h.06l.11.01.17.01.08.01h.1l.17.02.1.01h.07l.17.01.12.01.06.01.17.01.13.01.04.01.17.01.15.01h.02l.18.02.16.01h.01l.17.01.17.02h.02l.15.01.18.01h.03l.14.01.17.02h.05l.12.01.17.01.07.01h.11l.17.02h.08l.09.01.17.01.11.01h.06l.18.02h.12l.05.01.17.01.14.01h.03l.18.01.15.01h.02l.17.01.17.01.17.01.18.01h.02l.15.01.17.01.04.01h.13l.17.01.06.01h.12l.17.01h.07l.1.01h.17l.09.01h.08l.18.01h.17l.17.01h.13l.04.01h.17l.15.01h.2l.16.01h.37l.16.01h.34l.17.01h1.14l.07-.01h.69l.17-.01h.17l.17-.01h.17l.18-.01h.17l.02-.01h.15l.17-.01h.04l.14-.01.17-.01h.05l.12-.01.17-.01h.07l.1-.01.18-.01h.08l.09-.01.17-.01.11-.01h.06l.17-.02.13-.01h.05l.17-.02.14-.01h.03l.17-.01.16-.02h.01l.18-.02.17-.01h.01l.16-.02.17-.02h.03l.14-.02.18-.02h.04l.13-.02.17-.02.06-.01.11-.01.18-.02.07-.01.1-.01.17-.03.1-.01.07-.01.17-.02.12-.02.06-.01.17-.02.13-.02.04-.01.17-.02.15-.02.02-.01.18-.03.16-.02h.01l.17-.03.17-.03h.02l.15-.03.18-.03h.03l.14-.02.17-.03.05-.01.12-.02.17-.04.07-.01.11-.02.17-.03.08-.01.09-.02.17-.03.11-.02.07-.01.17-.03.12-.03.05-.01.17-.03.14-.02.03-.01.18-.03.15-.04h.02l.17-.03.17-.03v-.01l.17-.03.18-.03.02-.01.15-.03.17-.03.04-.01.13-.02.17-.04.06-.01.12-.02.17-.04.07-.01.1-.02.17-.03.1-.02.07-.02.18-.03.11-.02.06-.01.17-.04.13-.02.04-.01.17-.04.15-.03h.03l.17-.03.16-.03h.01l.17-.04.18-.03h.01l.16-.03.17-.04h.03l.14-.03.17-.03.05-.01.13-.02.17-.03.06-.02.11-.02.17-.03.08-.01.09-.02.18-.03.1-.02.07-.01.17-.03.12-.02.05-.01.17-.03.14-.02h.04l.17-.03.15-.03h.02l.17-.03.17-.03.18-.03.17-.02.02-.01.15-.02.17-.03h.04l.14-.02.17-.03.05-.01.12-.01.17-.03.07-.01.1-.02.18-.02.09-.01.08-.01.17-.03.11-.02h.06l.17-.03.13-.01.05-.01.17-.02.14-.02.03-.01.17-.02.16-.02h.01l.18-.02.17-.02h.01l.16-.02.17-.02h.03l.14-.02.18-.02.04-.01.13-.01.17-.02.06-.01.11-.01.18-.02h.07l.1-.01.17-.02.1-.01.07-.01.17-.02.12-.01h.06l.17-.02.13-.01.04-.01.17-.01.15-.02h.02l.18-.01.16-.02h.01l.17-.01.17-.01h.02l.15-.02.18-.01h.03l.14-.01.17-.01.05-.01.12-.01.17-.01h.07l.11-.01.17-.01h.09l.08-.01.17-.01h.11l.07-.01.17-.01h.12l.05-.01h.17l.14-.01h.03l.18-.01h.15l.02-.01h.17l.17-.01h.01l.16-.01h.2l.15-.01h.34l.17-.01h.42l.1-.01h2.24l.17.01h.17l.17.01h.35l.06.01h.28l.08.01h.09l.18.01h.17l.17.01h.12l.05.01h.17l.14.01h.04l.17.01.15.01h.02l.17.01.18.01.17.01.17.01h.02l.15.01.17.01h.04l.14.01.17.01h.05l.12.01.17.01h.07l.1.01.18.01.09.01.08.01.17.01h.11l.06.01.17.01.13.01h.05l.17.02.14.01h.03l.17.02.16.01h.01l.18.01.17.01h.01l.16.02.17.01h.03l.15.01.17.02h.04l.13.01.17.01.06.01h.11l.18.02h.07l.1.01.17.01.1.01h.07l.17.01.12.01h.06l.17.01.13.01.04.01.17.01h.17l.18.01.17.01.17.01.17.01h.02l.15.01h.21l.14.01.17.01h.17l.17.01h.35l.09.01h1.46l.17-.01h.34l.18-.01h.17l.17-.01h.04l.13-.01.17-.01h.18l.17-.01.07-.01h.1l.17-.01.1-.01h.07l.18-.02.11-.01h.06l.17-.01.13-.01.04-.01.18-.01.14-.01h.03l.17-.02.16-.01h.01l.17-.02.18-.02h.01l.16-.01.17-.02h.03l.14-.02.17-.02h.05l.13-.02.17-.02h.06l.11-.02.17-.02.09-.01.08-.01.18-.02.1-.01.07-.01.17-.02.12-.01.05-.01.17-.02.14-.02h.04l.17-.02.15-.02h.02l.17-.03.18-.02.17-.02.17-.02.02-.01.15-.01.17-.02.04-.01.14-.02.17-.02.05-.01.12-.01.17-.02.07-.01.1-.01.18-.02.09-.01.08-.01.17-.03.11-.01.06-.01.17-.02.13-.01.05-.01.17-.02.14-.01.03-.01.17-.02.16-.01.01-.01.18-.01.17-.02h.01l.16-.02.17-.02h.03l.15-.01.17-.02.04-.01.13-.01.17-.01.06-.01.11-.01.18-.01.08-.01.09-.01.17-.01.1-.01.07-.01.17-.01.12-.01h.06l.17-.01.13-.01.04-.01.17-.01h.15l.02-.01.18-.01h.17l.17-.01.17-.01h.02l.15-.01.18-.01h.17l.17-.01h.17l.18-.01h.17l.17-.01h1.38l.15.01h.19l.17.01h.37l.15.01.17.01h.04l.13.01h.17l.06.01h.12l.17.01.07.01h.1l.17.01.1.01.08.01.17.01.11.01h.06l.17.01.13.01.04.01.18.01.14.02h.03l.17.01.17.02.17.02.18.02h.01l.16.01.17.02h.03l.14.02.17.02.05.01.13.01.17.02.06.01.11.01.17.02.09.01.08.01.18.03.1.01.07.01.17.02.12.02h.05l.18.03.13.01.04.01.17.02.15.02.02.01.17.02.18.03.17.02.17.02.02.01.15.02.17.03h.04l.14.02.17.03h.05l.12.02.17.03.07.01.1.01.18.03.09.01.08.01.17.03.11.01.06.01.17.03.13.01.05.01.17.03.14.02h.03l.17.03.17.02h.01l.17.03.17.02h.01l.16.02.17.03h.03l.15.02.17.03h.04l.13.02.17.02.06.01.11.02.18.02.08.01.09.02.17.02.1.01.07.01.17.02.12.02h.06l.17.03.13.01.04.01.17.02.15.02h.02l.18.02.17.03.17.02.17.02h.02l.15.02.18.02h.03l.14.02.17.02h.05l.12.02.18.02.06.01.11.01.17.01.09.01.08.01.17.02.11.01.07.01.17.02.12.01h.05l.17.02.14.01h.03l.18.02.16.01h.01l.17.02.17.01h.01l.16.01.18.02h.02l.15.01.17.01h.04l.13.01.17.01h.06l.12.01.17.01h.08l.09.01h.17l.1.01h.08l.17.01h.17l.17.01h1.03l.18-.01h.37l.14-.01h.17l.05-.01h.13l.17-.01h.06l.11-.01.17-.01.09-.01h.08l.18-.02h.1l.07-.01.17-.01.12-.01.05-.01.18-.01.13-.02h.04l.17-.02.15-.02h.02l.17-.02.18-.02.17-.02.17-.02h.02l.15-.03.17-.02h.04l.14-.02.17-.03.05-.01.12-.01.17-.03.08-.01.09-.02.18-.02.09-.02.08-.01.17-.03.11-.01.06-.02.17-.02.13-.03h.05l.17-.03.14-.03h.03l.17-.03.17-.03h.01l.17-.03.17-.03h.01l.16-.03.17-.03.03-.01.15-.02.17-.03.04-.01.13-.02.17-.03.06-.02.11-.02.18-.03.08-.01.09-.02.17-.02.1-.02.07-.01.17-.04.12-.02.06-.01.17-.03.13-.02h.04l.17-.03.15-.03h.02l.18-.03.17-.03.17-.03.17-.03h.02l.16-.03.17-.02.03-.01.14-.02.17-.03.05-.01.12-.02.18-.03.07-.01.1-.01.17-.03.09-.02.08-.01.17-.02.11-.02.07-.01.17-.03.12-.02h.05l.17-.03.14-.02.03-.01.18-.02.16-.03h.01l.17-.03.17-.03h.01l.16-.02.18-.03h.02l.15-.03.17-.02.04-.01.13-.02.18-.03h.05l.12-.02.17-.03.08-.01.09-.02.17-.02.1-.02.08-.01.17-.03.11-.01.06-.01.17-.03.13-.02.04-.01.18-.03.14-.02.03-.01.17-.02.17-.03.17-.03.18-.03h.01l.16-.03.17-.03h.03l.14-.03.17-.02.05-.01.13-.02.17-.03.06-.01.11-.02.17-.03.09-.02.09-.01.17-.03.1-.02.07-.01.17-.03.12-.02.05-.01.18-.03.13-.03h.04l.17-.03.16-.03h.01l.17-.04.18-.03.17-.03.17-.02.02-.01.15-.03.17-.03h.04l.14-.03.17-.03.05-.01.12-.02.17-.03.08-.01.09-.02.18-.03.09-.01.08-.01.17-.03.11-.02.06-.01.17-.03.13-.02.05-.01.17-.03.14-.02.03-.01.17-.03.17-.02h.01l.17-.03.17-.03h.01l.16-.02.17-.03h.03l.15-.02.17-.03h.04l.13-.02.17-.02.06-.01.11-.02.18-.02.08-.01.09-.01.17-.02.1-.01.07-.01.17-.02.12-.02h.06l.17-.02.13-.01.04-.01.17-.01.16-.02h.01l.18-.01.17-.02.17-.01.17-.01h.02l.16-.01.17-.01h.03l.14-.01.17-.01h.35l.07-.01h.96l.12.01h.22l.14.01h.03l.18.01.16.01h.01l.17.01.17.01h.01l.16.02.18.01h.02l.15.02.17.02h.04l.13.01.18.02.05.01.12.02.17.02.08.01.09.02.17.02.1.02.08.01.17.03.11.02.06.01.17.03.13.02.04.01.18.03.14.03.03.01.17.03.17.04.17.04.18.03.01.01.16.03.17.04.03.01.14.03.17.04.05.01.13.03.17.05.07.01.1.03.17.04.09.02.09.02.17.04.1.03.07.02.17.04.12.03.05.01.18.04.13.03.04.01.17.04.16.04h.01l.17.04.18.04.17.03.17.04h.02l.15.03.17.04.04.01.14.02.17.03.05.01.12.02.17.03.08.01.09.02.18.02.09.02.08.01.17.02.11.01.06.01.18.02.12.01h.05l.17.02.14.01h.03l.17.02h.18l.17.01.17.01h.86l.17-.01h.07l.1-.01h.18l.08-.01h.09l.17-.02h.1l.07-.01.17-.01.12-.01.06-.01.17-.02.13-.01.04-.01.17-.02.16-.02h.02l.17-.02.17-.02.17-.02.17-.03h.02l.16-.02.17-.03h.03l.14-.02.17-.03.05-.01.12-.02.18-.02.07-.01.1-.02.17-.03.09-.01.08-.01.17-.03.11-.02.07-.01.17-.02.12-.02.05-.01.17-.02.14-.03h.03l.18-.02.16-.03h.01l.17-.02.17-.02h.01l.17-.03.17-.02h.02l.15-.02.17-.02.04-.01.13-.01.18-.02.06-.01.11-.01.17-.02.08-.01.09-.01.17-.01.1-.01.08-.01.17-.02.11-.01h.06l.17-.02.13-.01h.04l.18-.02.15-.01h.02l.17-.01.17-.01.17-.02.18-.01h.01l.16-.01.17-.01h.03l.14-.01.17-.01h.05l.13-.01.17-.01.07-.01h.1l.17-.01.09-.01h.09l.17-.01.1-.01h.07l.17-.01.12-.01h.05l.18-.01.13-.01h.04l.17-.01.16-.01h.01l.17-.01.18-.01.17-.02.17-.01h.02l.15-.01.17-.01h.04l.14-.01.17-.01.05-.01.12-.01.17-.01h.08l.09-.01.18-.02h.09l.08-.01.17-.01.11-.01.06-.01.18-.01.12-.02h.05l.17-.01.15-.02h.02l.17-.02.17-.01h.01l.17-.02.17-.02h.01l.16-.01.17-.02h.03l.15-.02.17-.02h.04l.13-.01.17-.02.07-.01.1-.01.18-.02.08-.01.09-.01.17-.02.1-.01h.07l.17-.02.12-.01.06-.01.17-.02.13-.01h.04l.17-.02.16-.01.02-.01.17-.01.17-.02.17-.01.17-.02h.02l.16-.01.17-.02h.03l.14-.01.17-.01.05-.01h.12l.18-.01.07-.01h.1l.17-.01.09-.01h.08l.17-.01h.11l.07-.01h.17l.12-.01h.22l.15-.01h.54l.17-.01h.73l.13.01h.52l.08.01h.36l.08.01h.17l.11.01h.06l.17.01h.17l.18.01.15.01h.19l.17.01.17.01.18.01h.01l.16.01.17.01h.03l.14.01.18.01h.04l.13.01.17.01.07.01.1.01.17.01.09.01h.09l.17.02.1.01h.07l.17.02.12.01h.05l.18.02.13.01.04.01.17.01.16.02h.01l.17.02.18.02.17.02.17.02h.02l.15.02.17.02.04.01.14.01.17.03.06.01.11.01.17.03.08.01.1.01.17.03.09.01.08.02.17.03.11.01.06.01.18.03.12.03h.05l.17.03.15.03h.02l.17.04.17.03h.01l.17.03.17.04h.01l.16.03.17.04h.03l.15.03.17.04.04.01.13.03.17.04.07.01.1.02.18.04.08.02.09.02.17.04.1.02.07.01.18.04.11.03.06.01.17.04.13.03.04.01.17.03.16.04h.02l.17.04.17.03.17.03.17.04h.02l.16.03.17.03.03.01.14.02.17.03h.06l.11.02.18.03.07.01.1.01.17.02.09.01.08.01.17.02.11.01h.07l.17.01.12.01.05.01h.17l.15.01h.03l.17.01h.88l.15-.01h.17l.04-.01h.13l.18-.01h.06l.11-.01.17-.01h.08l.09-.01.17-.01.1-.01h.08l.17-.02h.11l.06-.01.17-.01.13-.01h.04l.18-.01.15-.01.02-.01.17-.01.17-.01.17-.01.18-.01h.01l.16-.01.17-.01h.17l.18-.01h.04l.13-.01h.34l.17-.01h.52l.17.01h.17l.18.01h.17l.17.01.16.01h.01l.17.01.18.01.17.02.17.01h.02l.15.02.17.01.04.01.14.01.17.02.06.01.11.01.17.02.08.01.1.01.17.03.09.01.08.01.17.02.11.01.06.01.18.03.12.01.05.01.17.02.15.02.02.01.17.02.17.02.01.01.17.02.17.02h.01l.16.02.17.02.03.01.15.01.17.02.04.01.13.01.17.02h.07l.1.02.18.01.08.01.09.01.17.01.1.01.07.01.18.01.11.01.06.01.17.01.14.01h.03l.17.01.16.01.02.01.17.01.17.01.17.01.17.02h.02l.16.01.17.02h.03l.14.01.17.01.06.01.11.01.18.02h.07l.1.01.17.02.09.01.08.01.17.01.11.01.07.01.17.02.12.01h.05l.17.02.15.02h.03l.17.02.16.01h.01l.17.02.17.01h.01l.17.02.17.01h.02l.15.01.17.01h.04l.13.01.18.01h.06l.11.01.17.01h.08l.09.01h.17l.1.01h.08l.17.01h.17l.17.01h.35l.15.01h1.08l.14-.01.18-.01h.05l.12-.01.17-.01.07-.01.1-.01.17-.01.09-.01.09-.01.17-.03.1-.01.07-.01.17-.03.12-.03.05-.01.18-.03.14-.03.03-.01.17-.03.16-.03.01-.01.17-.03.18-.04.17-.03.17-.03h.02l.15-.02.18-.02.03-.01.14-.01.17-.01h.42l.1.01.17.02.09.01.08.01.17.04.11.02.06.01.18.05.12.03.05.02.17.05.15.04.02.01.17.05.17.05h.01l.17.06.17.04.01.01.16.04.17.04.03.01.15.04.17.04.05.01.12.03.17.05.07.01.11.03.17.04.08.01h.09l.17.01h.1l.07-.01.18-.08.11-.08.06-.04.17-.21.14-.21.03-.06.17-.36.16-.43.02-.06.17-.88.08-.53.09-.51"/><use xlink:href="#babcb__a" color="#00C853" transform="matrix(3.75 0 0 3.75 136.99 74.97)"/><use xlink:href="#babcb__a" color="#00C853" transform="matrix(3.75 0 0 3.75 220.55 7.51)"/></g><text stroke-linecap="round" stroke-linejoin="round" color="#000" font-family="KaTeX_Main" font-size="8" transform="translate(241.1 25.11)"><tspan>AVLWeakTopDown</tspan></text><g fill="none" stroke="currentColor" stroke-linecap="round" stroke-linejoin="round" color="#000"><path stroke="#FFAB00" stroke-dasharray="4.5,2.0,0.5,2.0,0.5,2.0" d="M205.6 22.51h29.9M28 148.33l.17-.39.17-.38.02-.04.16-.35.17-.38.03-.08.14-.31.17-.39.06-.12.11-.27.18-.4.07-.16.1-.23.17-.4.09-.21.08-.2.17-.4.11-.26.07-.15.17-.42.12-.3.05-.11.17-.42.15-.35.03-.07.17-.42.16-.4.01-.03.17-.42.17-.43.01-.01.17-.41.17-.42.02-.07.15-.36.17-.42.05-.1.12-.31.18-.42.06-.14.11-.27.17-.41.08-.18.09-.22.17-.4.1-.22.08-.17.17-.39.11-.25.06-.13.17-.37.14-.29.03-.08.18-.37.15-.31.02-.04.17-.36.17-.33v-.01l.18-.34.17-.33.01-.03.16-.3.17-.33.03-.06.14-.26.18-.31.05-.09.12-.22.17-.31.07-.12.1-.18.17-.31.09-.15.09-.15.17-.3.1-.19.07-.11.17-.31.12-.21.05-.09.18-.31.14-.25.03-.06.17-.32.16-.3.01-.02.17-.33.18-.34v-.01l.17-.34.17-.36.02-.04.15-.33.18-.38.03-.09.14-.31.17-.41.06-.14.11-.29.17-.45.08-.21.1-.26.17-.49.09-.28.08-.24.17-.54.11-.36.06-.2.18-.59.13-.46.04-.16.17-.64.15-.58.02-.1.17-.71.17-.71.01-.03.17-.77.17-.81.01-.05.16-.78.17-.88.03-.15.15-.75.17-.94.05-.26.12-.71.17-1.01.07-.38.11-.65.17-1.07.08-.52.09-.57.17-1.13.1-.67.07-.48.18-1.18.11-.82.06-.37.17-1.22.14-.98.03-.26.17-1.26.16-1.14.02-.13.17-1.28.17-1.29.17-1.29.17-1.3.02-.14.16-1.16.17-1.3.03-.27.14-1.02.17-1.28.06-.41.11-.87.18-1.26.07-.52.1-.72.17-1.23.09-.64.08-.57.18-1.19.1-.73.07-.43.17-1.14.13-.81.04-.3.17-1.08.15-.87.03-.17.17-1.02.16-.93.01-.06.17-.95.17-.92.01-.04.17-.85.17-.85.02-.12.15-.69.17-.79.05-.19.12-.56.18-.71.06-.25.11-.43.17-.65.08-.29.09-.32.17-.59.1-.31.08-.24.17-.53.11-.33.06-.16.17-.47.14-.34.04-.1.17-.41.15-.34.02-.05.17-.37.17-.33v-.01l.18-.32.17-.3.01-.03.16-.26.17-.26.03-.05.14-.2.18-.23.05-.07.12-.15.17-.2.07-.08.1-.11.17-.18.09-.08.09-.08.17-.16.1-.09.07-.06.17-.13.13-.1.04-.03.18-.12.14-.1.03-.02.17-.1.16-.1h.01l.18-.1.17-.09.17-.09.17-.08.02-.01.15-.07.18-.08.04-.01.13-.06.17-.07.06-.02.11-.05.17-.06.08-.03.1-.04.17-.06.09-.04.08-.02.17-.06.11-.04.06-.02.18-.06.13-.05.04-.01.17-.06.15-.05.02-.01.17-.06.17-.05h.01l.17-.06.17-.06h.01l.16-.06.17-.06.03-.01.15-.04.17-.06.05-.02.12-.04.17-.06.07-.02.11-.04.17-.05.08-.03.09-.03.17-.06.1-.04.07-.02.18-.06.11-.04.06-.02.17-.06.14-.05.03-.01.17-.06.16-.05.02-.01.17-.06.17-.06.17-.05.17-.06.02-.01.16-.05.17-.06.04-.01.13-.04.17-.06.06-.01.11-.04.18-.06.07-.02.1-.03.17-.05.09-.03.08-.02.18-.05.1-.03.07-.02.17-.05.13-.03.04-.01.17-.05.15-.03.03-.01.17-.04.16-.04h.01l.17-.04.17-.04h.01l.17-.04.17-.03.02-.01.15-.03.17-.03.05-.01.12-.02.18-.03.06-.01.11-.02.17-.03.08-.01.09-.02.17-.02.1-.01.08-.01.17-.03.11-.01.06-.01.17-.02.14-.02h.04l.17-.02.15-.01.02-.01.17-.01.17-.02.18-.02.17-.01H70l.16-.01.17-.02h.04l.13-.01.18-.01.05-.01.12-.01.17-.01h.07l.1-.01.17-.01.09-.01h.09l.17-.01.1-.01.07-.01.17-.01h.13l.04-.01.18-.01.14-.01h.03l.17-.01.16-.01h.01l.18-.01.17-.01.17-.02.17-.01h.02l.15-.01.18-.01.04-.01.13-.01.17-.01.06-.01.11-.01.17-.01.08-.01.1-.01.17-.01.09-.01.08-.01.17-.02.11-.01.06-.01.18-.02.13-.01.04-.01.17-.01.15-.02.02-.01.17-.02.17-.02h.01l.17-.03.17-.02h.01l.16-.03.18-.02.02-.01.15-.02.17-.03.05-.01.12-.02.17-.03.07-.01.11-.02.17-.03.08-.02.09-.01.17-.04.1-.02.07-.01.18-.03.12-.03.05-.01.17-.03.14-.03.03-.01.17-.04.16-.03.02-.01.17-.03.17-.04.17-.04.17-.04h.02l.16-.04.17-.04.04-.01.13-.03.17-.04.06-.01.12-.03.17-.04.07-.01.1-.03.17-.04.09-.02.08-.01.18-.04.1-.03.07-.01.17-.04.13-.02.04-.01.17-.04.15-.03.03-.01.17-.03.16-.03.01-.01.17-.03.17-.03h.01l.17-.03.17-.03.02-.01.15-.02.17-.03.05-.01.12-.01.18-.03.06-.01.11-.01.17-.03.08-.01.09-.01.18-.01.09-.01.08-.01.17-.02.12-.01h.05l.17-.02.14-.01h.04l.17-.01.15-.01h.19l.17-.01h.86l.18.01h.17l.17.01.07.01h.1l.17.01.09.01h.09l.17.02.1.01h.07l.17.02.13.01.05.01.17.01.14.02h.03l.17.02.16.02h.01l.18.02.17.03.17.02.17.02.02.01.15.02.18.02.04.01.13.02.17.02.06.01.11.02.17.02.08.02.1.01.17.03.09.01.08.01.17.03.11.01.06.01.18.03.13.02h.04l.17.03.15.02h.02l.17.02.17.02.01.01.17.02.17.02h.01l.16.02.18.02h.03l.14.02.17.02h.05l.12.01.17.02.07.01.11.01.17.01.08.01h.09l.17.02h.1l.07.01.18.01h.12l.05.01.17.01h.17l.17.01.16.01h.19l.17.01h.17l.17.01h2.24l.17-.01h.69l.17-.01h.69l.05-.01h.81l.18-.01h1.03l.15-.01h.88l.17-.01h.69l.07-.01h.27l.09-.01h.36l.07-.01h.35l.17-.01h.14l.03-.01h.17l.16-.01h.01l.18-.01h.17l.17-.01.17-.01h.03l.14-.01.18-.01h.04l.13-.01.17-.01h.06l.11-.01.17-.01.08-.01h.1l.17-.02h.09l.08-.01.17-.01.12-.01h.05l.18-.02.13-.01h.04l.17-.01.15-.01h.02l.18-.02.16-.01h.01l.17-.02.17-.01h.01l.16-.01.18-.02h.03l.14-.01.17-.01.05-.01.12-.01.17-.01.07-.01h.11l.17-.01.08-.01.09-.01.17-.01.1-.01h.07l.18-.01.12-.01h.05l.17-.01.14-.01h.03l.17-.01.16-.01h.02l.17-.01h.17l.17-.01h.19l.16-.01h.17l.04-.01h1.81l.04.01h.35l.17.01h.17l.17.01.17.01h.18l.17.01h.03l.14.01.17.01h.05l.13.01.17.01h.06l.11.01.17.01h.08l.09.01.18.01.09.01h.08l.17.01.12.01h.05l.17.02.14.01h.04l.17.01.15.01h.02l.17.01.17.02.18.01.17.01h.01l.16.01.17.02h.04l.13.01.18.01h.05l.12.01.17.01.07.01h.1l.17.01.09.01.09.01.17.01h.11l.06.01.17.01h.13l.05.01.17.01h.14l.03.01h.17l.16.01h.01l.18.01.17.01h.17l.17.01h.03l.14.01h.22l.13.01h.23l.11.01h.69l.17.01h.69l.15-.01h.37l.17-.01h.18l.16-.01h.21l.14-.01.17-.01h.17l.17-.01.07-.01h.11l.17-.01.08-.01h.09l.17-.01.1-.01.07-.01.18-.01.12-.01.05-.01.17-.01.14-.01h.03l.17-.02.16-.01h.02l.17-.02.17-.02.17-.02.18-.02h.02l.15-.02.17-.02h.04l.13-.02.17-.02h.06l.12-.02.17-.02.07-.01.1-.01.17-.02.09-.01.08-.01.18-.03.11-.01.06-.01.17-.02.13-.02h.04l.17-.02.15-.02.03-.01.17-.02.16-.02h.01l.17-.02.17-.03h.01l.17-.02.17-.02h.03l.14-.02.17-.02.05-.01.13-.01.17-.02.06-.01.11-.01.17-.02.08-.01h.09l.18-.02.09-.01.08-.01.17-.01.12-.01.05-.01.17-.01.14-.01h.04l.17-.02.15-.01h.02l.17-.01.17-.01.18-.01h.19l.15-.01h.17l.04-.01h1.51l.17.01h.18l.17.01.14.01h.2l.16.01h.01l.18.01.17.01.17.02.17.01h.03l.14.01.18.01.04.01.13.01.17.01h.06l.11.01.17.02h.08l.1.01.17.02.09.01h.08l.17.02.12.01h.06l.17.02.13.01.04.01.17.01.15.02h.02l.18.01.16.02h.01l.17.02.17.01h.01l.16.01.18.02h.03l.14.01.17.02h.05l.12.01.17.01.07.01.11.01.17.01.08.01h.09l.17.01.11.01h.06l.18.01.12.01h.05l.17.01.14.01h.03l.18.01h.17l.17.01h.17l.17.01h.2l.15.01h.86l.07.01h.36l.08-.01h.69l.17-.01h.18l.17-.01h.17l.17-.01h.35l.17-.01h.17l.17-.01h.05l.13-.01h.23l.11-.01h.34l.18-.01h.1l.07-.01h.34l.17-.01h.18l.17-.01h.34l.17-.01h1.81l.09.01h.34l.17.01h.18l.17.01h.17l.17.01h.17l.18.01.17.01.17.01h.17l.03.01h.14l.18.01.04.01h.13l.17.01.06.01h.11l.17.01.08.01.1.01.17.01.1.01h.07l.17.01.12.01.06.01.17.01.13.01h.04l.17.02.15.01h.02l.18.02.16.01h.01l.17.02.17.01h.02l.15.02.18.01.03.01.14.01.17.02h.05l.12.01.17.02h.07l.11.01.17.02.08.01.09.01.17.01.11.01.06.01.18.02.12.01h.05l.17.02.14.02h.03l.18.02.15.01h.02l.17.02.17.02.17.01.18.02h.02l.15.02.17.01.04.01.13.01.17.02h.06l.12.01.17.02.07.01h.1l.17.02.09.01.08.01.18.01.11.01h.06l.17.02.13.01h.04l.17.02.15.01h.03l.17.01.16.02h.01l.17.01.18.01h.01l.16.01.17.01h.03l.14.01.17.01h.05l.13.01h.17l.06.01h.11l.17.01h.17l.18.01h.17l.17.01h.34l.14.01h.38l.17-.01h.54l.15-.01h.21l.14-.01h.17l.05-.01h.12l.17-.01h.07l.1-.01.18-.01h.08l.09-.01.17-.01h.11l.06-.01.17-.01.13-.01h.05l.17-.01.14-.02h.03l.17-.01.16-.01.01-.01.18-.01.17-.02h.01l.16-.01.17-.02h.03l.14-.02.18-.01h.04l.13-.02.17-.01.06-.01.11-.01.18-.02.07-.01h.1l.17-.02.1-.01.07-.01.17-.02.12-.01h.06l.17-.02.13-.01h.04l.17-.02.15-.02h.02l.18-.01.16-.02h.01l.17-.01.17-.01h.02l.15-.02.18-.01h.03l.14-.01.17-.01.05-.01.12-.01h.17l.07-.01h.11l.17-.01.08-.01h.09l.17-.01h.18l.17-.01h.17l.17-.01h1.23l.15.01h.21l.13.01.17.01h.18l.17.01.07.01h.1l.17.01.1.01h.07l.18.01.11.01.06.01.17.01.13.01.04.01.17.01.15.01.03.01.17.01.16.02h.01l.17.02.18.02h.01l.16.01.17.02.03.01.14.01.17.02.05.01.13.02.17.02h.06l.11.02.17.02.08.01.09.01.18.02.1.02h.07l.17.03.12.01.05.01.17.02.14.02h.04l.17.03.15.02h.02l.17.02.17.02.18.02.17.03h.02l.15.02.17.02h.04l.14.02.17.02h.05l.12.02.17.02h.07l.1.01.18.02.09.01.08.01.17.02.11.01h.06l.17.02.13.01h.05l.17.02.14.01h.03l.17.01.16.02h.01l.18.01.17.01h.01l.16.01.17.01h.17l.18.01h.04l.13.01h.23l.11.01h.35l.17.01h.86l.17-.01h.35l.16-.01h.18l.17-.01h.17l.18-.01h.03l.14-.01h.17l.05-.01h.12l.17-.01h.07l.11-.01.17-.01h.09l.08-.01.17-.01h.11l.07-.01.17-.01.12-.01h.05l.17-.01.14-.01h.03l.18-.01.15-.01.02-.01.17-.01.17-.01h.01l.16-.01.18-.02h.02l.15-.01.17-.01h.04l.13-.01.17-.02h.06l.12-.01.17-.01.07-.01h.1l.17-.02h.1l.07-.01.18-.01.11-.01h.06l.17-.01.13-.01.04-.01.18-.01.14-.01h.03l.17-.01.16-.01h.01l.17-.01.18-.01h.01l.16-.01.17-.01h.03l.14-.01.17-.01h.05l.13-.01.17-.01.06-.01h.11l.17-.01h.08l.09-.01.18-.01h.17l.17-.01.12-.01h.05l.17-.01h.18l.17-.01h.15l.02-.01h.17l.18-.01h.34l.02-.01h.36l.14-.01h.51l.07-.01h1.65l.16.01h.53l.17.01h.39l.13.01h.23l.11.01h.25l.1.01h.27l.07.01h.17l.12.01h.23l.13.01h.21l.15.01h.02l.18.01h.17l.17.01.17.01h.17l.18.01h.03l.14.01h.17l.05.01h.29l.07.01h.11l.17.01h.17l.17.01h.11l.07.01h.17l.12.01h.22l.14.01h.21l.15.01h.19l.17.01h.17l.18.01h.51l.17.01h.42l.1.01h2.58l.17-.01h.69l.09-.01h.6l.12-.01h.22l.14-.01h.38l.17-.01h.18l.17-.01h.19l.15-.01h.35l.17-.01h.17l.17-.01h.17l.18-.01h.17l.17-.01h.17l.17-.01h.18l.17-.01h.17l.17-.01h.17l.18-.01h.18l.16-.01h.2l.15-.01h.21l.13-.01h.17l.06-.01h.37l.09-.01h.17l.1-.01h.36l.06-.01h.17l.13-.01h.21l.15-.01h.37l.17-.01.17-.01h.38l.14-.01h.22l.12-.01h.35l.17-.01h.17l.17-.01h.35l.12-.01h.36l.03-.01h.52l.17-.01h.35l.02-.01h.49l.17-.01h.69l.1-.01h.76l.18-.01h2.58l.1.01h.76l.17.01h.34l.18.01h.17l.17.01h.17l.17.01h.18l.17.01h.17l.17.01h.17l.18.01h.17l.17.01.11.01h.06l.17.01h.18l.17.01.14.01h.03l.17.01.17.01h.01l.17.01h.18l.16.01.17.01h.03l.15.01.17.01h.04l.13.01h.17l.06.01h.11l.18.01h.08l.09.01.17.01h.1l.07.01h.17l.12.01h.06l.17.01.13.01h.04l.17.01.15.01h.2l.17.01.17.01h.19l.15.01.18.01h.39l.12.01h.24l.11.01h.51l.11.01h1.27l.17-.01h.37l.15-.01h.21l.13-.01h.23l.12-.01.17-.01h.17l.17-.01h.1l.08-.01.17-.01h.11l.06-.01h.17l.13-.01h.04l.18-.01.14-.01h.03l.17-.01.17-.02.17-.01.18-.01h.01l.16-.01.17-.01h.03l.14-.01.17-.02h.05l.13-.01.17-.01h.06l.11-.01.17-.01.09-.01.08-.01.18-.01.1-.01h.07l.17-.01.12-.01h.05l.18-.02.13-.01h.04l.17-.01.15-.01h.02l.17-.01.18-.01.17-.01.17-.01h.02l.15-.01.17-.01h.04l.14-.01.17-.01h.05l.12-.01h.17l.08-.01h.09l.18-.01.09-.01h.08l.17-.01h.17l.17-.01.13-.01h.22l.14-.01h.2l.17-.01h.18l.17-.01h.17l.17-.01h.35l.04-.01h.47l.18-.01h.51l.17-.01h.52l.17-.01h1.04l.17-.01h1.37l.11-.01h1.1l.17.01h1.03l.18.01h.68l.1.01h.42l.17.01h.35l.14.01h.03l.17.01h.34l.18.01h.17l.17.01h.03l.14.01h.17l.05.01h.13l.17.01h.17l.17.01h.09l.09.01h.17l.1.01h.07l.17.01h.17l.18.01.13.01h.04l.17.01h.17l.17.01.18.01.17.01.17.01h.02l.15.01h.21l.14.01.17.01h.05l.12.01h.17l.08.01h.09l.18.01h.09l.08.01h.17l.11.01h.06l.17.01.13.01h.22l.14.01h.03l.17.01.17.01h.01l.17.01h.18l.16.01.17.01h.18l.17.01.04.01h.13l.17.01h.06l.11.01h.18l.08.01h.09l.17.01.1.01h.07l.17.01h.12l.06.01h.17l.13.01h.04l.17.01.16.01h.01l.18.01.17.01.17.01.17.01h.02l.16.01.17.01.03.01h.14l.17.02h.05l.12.01.18.01.07.01h.1l.17.02h.09l.08.01.17.01.11.01h.07l.17.02.12.01h.05l.17.02.14.01h.03l.18.02.16.01h.01l.17.01.17.02h.01l.16.01.18.02h.02l.15.01.17.02h.04l.13.01.18.02h.05l.12.01.17.02.08.01h.09l.17.02h.1l.08.01.17.01.11.01.06.01.17.01.13.01.04.01.18.01.14.01h.03l.17.01.17.02.17.01.18.01h.01l.16.01.17.01h.03l.14.01.17.01h.05l.13.01.17.01h.17l.17.01h.09l.09.01h.27l.07.01h.17l.12.01h.23l.13.01h.73l.17.01h1.55l.09-.01h3l.18.01h.34l.1.01h.36l.06.01h.17l.13.01h.21l.16.01h.02l.17.01.17.01.17.01.17.01h.18l.17.01h.03l.14.01.17.01h.05l.12.01.18.01.07.01h.1l.17.01.09.01h.08l.17.01.11.01h.07l.17.01.12.01h.05l.17.01.14.01h.03l.18.01.16.01h.01l.17.01h.18l.17.01.17.01h.17l.17.01h.17l.18.01h1.72l.15-.01h.36l.17-.01h.19l.16-.01h.2l.14-.01h.17l.05-.01h.13l.17-.01h.17l.17-.01h.09l.09-.01h.27l.07-.01h.34l.18-.01h.17l.17-.01H314l.05.01h.37l.09.01h.27l.08.01h.17l.11.01h.06l.18.01h.17l.17.01.15.01h.02l.17.01.17.01h.01l.17.01h.18l.16.01.17.01.03.01h.15l.17.01h.04l.13.01.17.01h.17l.18.01h.08l.09.01h.27l.07.01h.35l.17.01h1.38l.17-.01h.17l.17-.01h.17l.18-.01h.07l.1-.01.17-.01h.09l.08-.01.17-.01h.11l.07-.01h.17l.12-.01.05-.01.17-.01.15-.01h.02l.18-.01.16-.01.01-.01.17-.01.17-.01h.01l.17-.01.17-.02h.02l.15-.01.17-.02h.04l.13-.01.18-.02h.06l.11-.01.17-.02h.08l.09-.01.17-.02h.1l.08-.01.17-.02.11-.01h.06l.17-.02.13-.01h.04l.18-.02.15-.01h.02l.17-.02.17-.01.17-.02.18-.01.01-.01.16-.01.17-.01.03-.01.14-.01.18-.01.04-.01.13-.01.17-.01.07-.01.1-.01.17-.01.09-.01.09-.01.17-.01.1-.01h.07l.17-.02h.12l.05-.01.18-.01.13-.01h.04l.17-.01.16-.01.01-.01.17-.01.18-.01.17-.01h.17l.02-.01h.15l.17-.01h.04l.14-.01h.17l.06-.01h.28l.08-.01h.27l.09-.01h1.46l.17.01h.34l.17.01h.18l.17.01h.17l.17.01h.07l.1.01.18.01h.17l.17.01h.1l.07.01.18.01.11.01h.06l.17.01.13.01h.04l.17.01.16.01h.02l.17.01.17.01.17.01.17.01h.02l.16.01.17.02h.03l.14.01.17.01.06.01.11.01.18.02h.07l.1.01.17.02h.09l.08.01.17.02.11.01.07.01.17.02.12.01.05.01.17.02.15.02h.03l.17.02.16.02.01.01.17.02.17.02h.01l.17.03.17.03h.02l.15.02.17.03.04.01.13.02.18.03.06.01.11.02.17.03.08.01.09.02.17.02.1.02.08.01.17.03.11.02.06.01.17.03.13.02.04.01.18.02.15.02.02.01.17.02.17.02.17.03.18.01.01.01.16.01.17.02h.03l.14.01.18.01h.17l.17.01h.52l.17-.01h.1l.07-.01.17-.01.12-.01h.05l.18-.02.14-.01h.03l.17-.02.16-.02.01-.01.17-.02.18-.02.17-.03.17-.03h.02l.15-.02.17-.03.04-.01.14-.02.17-.03.06-.01.11-.02.17-.03.08-.01.1-.02.17-.02.09-.02.08-.01.17-.02.11-.01.06-.01.18-.02.12-.02h.05l.17-.02.15-.01h.02l.17-.01.17-.01h.01l.17-.01.17-.01h.86l.17.01h.17l.18.01h.08l.09.01.17.01h.1l.07.01.18.01h.11l.06.01.17.01.14.01h.03l.17.01.16.01h.02l.17.01.17.01.17.01.17.01h.35l.03.01h1l.09-.01h.08l.17-.01h.18l.17-.01.12-.01h.05l.17-.01.15-.01h.03l.17-.01.16-.02h.01l.17-.01.17-.02h.01l.17-.01.17-.01.02-.01.15-.01.17-.01h.04l.13-.02.18-.01h.06l.11-.01.17-.01h.08l.09-.01.17-.01h.35l.11-.01.06.01h.17l.14.01h.03l.18.01.15.02h.02l.17.02.17.03.18.03.17.04.01.01.16.03.17.05.03.01.14.05.18.05.05.02.12.04.17.06.07.02.1.04.17.06.09.03.09.03.17.06.1.03.07.02.17.04.12.03.05.01.18.03.14.02.03.01.17.01.16.01h.18l.18-.01.17-.01.17-.03h.02l.15-.03.18-.03.03-.01.14-.02.17-.03.06-.01.11-.02.17-.03.08-.01.1-.01.17-.02h.51l.18.02.12.02h.05l.17.03.15.03.02.01.17.03.17.02h.18l.17.01h.01l.16-.03.17-.05.03-.02.15-.06.17-.12.05-.04.12-.1.17-.17.07-.06.11-.11.17-.18.08-.08.09-.07.17-.13.1-.06.07-.04.18-.07.11-.06.06-.05.17-.23.14-.28.03-.11.17-.94.16-.53.02.01.17.85.08.67.09.6"/><use xlink:href="#babcb__c" color="#FFAB00" transform="matrix(3.75 0 0 3.75 194.4 49.06)"/><use xlink:href="#babcb__c" color="#FFAB00" transform="matrix(3.75 0 0 3.75 220.55 22.51)"/></g><path fill="none" d="M28 45.01V162.5M371.99 45.01H28" color="#000"/></svg>