<svg xmlns="http://www.w3.org/2000/svg" xmlns:xlink="http://www.w3.org/1999/xlink" viewBox="0 0 400 200"><path fill="none" d="M0 0h400v200H0z"/><defs><use xlink:href="#e5aef__a" id="e5aef__c" fill="currentColor" stroke="none"/><use xlink:href="#e5aef__b" id="e5aef__d" fill="currentColor" stroke="none"/><circle id="e5aef__a" cx="0" cy="0" r="1" stroke="currentColor" stroke-width=".267"/><path id="e5aef__b" stroke="currentColor" stroke-width=".267" d="m0-1.33-1.33 2h2.66z"/></defs><path fill="none" stroke="#CCC" stroke-linecap="round" stroke-linejoin="round" stroke-width=".1" d="M46.1 162.5V45.01" class="e5aef__gridline" color="#000"/><g fill="none" stroke-linecap="round" stroke-linejoin="round" stroke-width="0" color="#000"><path d="M46.1 162.5V155m0-109.99v7.5"/><text fill="#000" font-family="KaTeX_Main" font-size="8" text-anchor="middle" transform="translate(46.1 172.6)"><tspan> 1</tspan></text></g><path fill="none" stroke="#CCC" stroke-linecap="round" stroke-linejoin="round" stroke-width=".1" d="M82.31 162.5V45.01" class="e5aef__gridline" color="#000"/><g fill="none" stroke-linecap="round" stroke-linejoin="round" stroke-width="0" color="#000"><path d="M82.31 162.5V155m0-109.99v7.5"/><text fill="#000" font-family="KaTeX_Main" font-size="8" text-anchor="middle" transform="translate(82.31 172.6)"><tspan> 2</tspan></text></g><path fill="none" stroke="#CCC" stroke-linecap="round" stroke-linejoin="round" stroke-width=".1" d="M118.52 162.5V45.01" class="e5aef__gridline" color="#000"/><g fill="none" stroke-linecap="round" stroke-linejoin="round" stroke-width="0" color="#000"><path d="M118.52 162.5V155m0-109.99v7.5"/><text fill="#000" font-family="KaTeX_Main" font-size="8" text-anchor="middle" transform="translate(118.52 172.6)"><tspan> 3</tspan></text></g><path fill="none" stroke="#CCC" stroke-linecap="round" stroke-linejoin="round" stroke-width=".1" d="M154.73 162.5V45.01" class="e5aef__gridline" color="#000"/><g fill="none" stroke-linecap="round" stroke-linejoin="round" stroke-width="0" color="#000"><path d="M154.73 162.5V155m0-109.99v7.5"/><text fill="#000" font-family="KaTeX_Main" font-size="8" text-anchor="middle" transform="translate(154.73 172.6)"><tspan> 4</tspan></text></g><path fill="none" stroke="#CCC" stroke-linecap="round" stroke-linejoin="round" stroke-width=".1" d="M190.94 162.5V45.01" class="e5aef__gridline" color="#000"/><g fill="none" stroke-linecap="round" stroke-linejoin="round" stroke-width="0" color="#000"><path d="M190.94 162.5V155m0-109.99v7.5"/><text fill="#000" font-family="KaTeX_Main" font-size="8" text-anchor="middle" transform="translate(190.94 172.6)"><tspan> 5</tspan></text></g><path fill="none" stroke="#CCC" stroke-linecap="round" stroke-linejoin="round" stroke-width=".1" d="M227.15 162.5V45.01" class="e5aef__gridline" color="#000"/><g fill="none" stroke-linecap="round" stroke-linejoin="round" stroke-width="0" color="#000"><path d="M227.15 162.5V155m0-109.99v7.5"/><text fill="#000" font-family="KaTeX_Main" font-size="8" text-anchor="middle" transform="translate(227.15 172.6)"><tspan> 6</tspan></text></g><path fill="none" stroke="#CCC" stroke-linecap="round" stroke-linejoin="round" stroke-width=".1" d="M263.36 162.5V45.01" class="e5aef__gridline" color="#000"/><g fill="none" stroke-linecap="round" stroke-linejoin="round" stroke-width="0" color="#000"><path d="M263.36 162.5V155m0-109.99v7.5"/><text fill="#000" font-family="KaTeX_Main" font-size="8" text-anchor="middle" transform="translate(263.36 172.6)"><tspan> 7</tspan></text></g><path fill="none" stroke="#CCC" stroke-linecap="round" stroke-linejoin="round" stroke-width=".1" d="M299.57 162.5V45.01" class="e5aef__gridline" color="#000"/><g fill="none" stroke-linecap="round" stroke-linejoin="round" stroke-width="0" color="#000"><path d="M299.57 162.5V155m0-109.99v7.5"/><text fill="#000" font-family="KaTeX_Main" font-size="8" text-anchor="middle" transform="translate(299.57 172.6)"><tspan> 8</tspan></text></g><path fill="none" stroke="#CCC" stroke-linecap="round" stroke-linejoin="round" stroke-width=".1" d="M335.78 162.5V45.01" class="e5aef__gridline" color="#000"/><g fill="none" stroke-linecap="round" stroke-linejoin="round" stroke-width="0" color="#000"><path d="M335.78 162.5V155m0-109.99v7.5"/><text fill="#000" font-family="KaTeX_Main" font-size="8" text-anchor="middle" transform="translate(335.78 172.6)"><tspan> 9</tspan></text></g><path fill="none" stroke="#CCC" stroke-linecap="round" stroke-linejoin="round" stroke-width=".1" d="M371.99 162.5V45.01" class="e5aef__gridline" color="#000"/><g fill="none" stroke-linecap="round" stroke-linejoin="round" stroke-width="0" color="#000"><path d="M371.99 162.5V155m0-109.99v7.5"/><text fill="#000" font-family="KaTeX_Main" font-size="8" text-anchor="middle" transform="translate(371.99 172.6)"><tspan> 10</tspan></text></g><g fill="none" stroke-linecap="round" stroke-linejoin="round" stroke-width="0" color="#000"><path d="M371.99 162.5h-7.5"/><text fill="#000" font-family="KaTeX_Main" font-size="8" transform="translate(378.99 165.1)"><tspan>1.06</tspan></text></g><g fill="none" stroke-linecap="round" stroke-linejoin="round" stroke-width="0" color="#000"><path d="M371.99 150.75h-7.5"/><text fill="#000" font-family="KaTeX_Main" font-size="8" transform="translate(378.99 153.35)"><tspan>1.06</tspan></text></g><g fill="none" stroke-linecap="round" stroke-linejoin="round" stroke-width="0" color="#000"><path d="M371.99 139h-7.5"/><text fill="#000" font-family="KaTeX_Main" font-size="8" transform="translate(378.99 141.6)"><tspan>1.06</tspan></text></g><g fill="none" stroke-linecap="round" stroke-linejoin="round" stroke-width="0" color="#000"><path d="M371.99 127.25h-7.5"/><text fill="#000" font-family="KaTeX_Main" font-size="8" transform="translate(378.99 129.85)"><tspan>1.06</tspan></text></g><g fill="none" stroke-linecap="round" stroke-linejoin="round" stroke-width="0" color="#000"><path d="M371.99 115.5h-7.5"/><text fill="#000" font-family="KaTeX_Main" font-size="8" transform="translate(378.99 118.1)"><tspan>1.06</tspan></text></g><g fill="none" stroke-linecap="round" stroke-linejoin="round" stroke-width="0" color="#000"><path d="M371.99 103.75h-7.5"/><text fill="#000" font-family="KaTeX_Main" font-size="8" transform="translate(378.99 106.35)"><tspan>1.07</tspan></text></g><g fill="none" stroke-linecap="round" stroke-linejoin="round" stroke-width="0" color="#000"><path d="M371.99 92.01h-7.5"/><text fill="#000" font-family="KaTeX_Main" font-size="8" transform="translate(378.99 94.61)"><tspan>1.07</tspan></text></g><g fill="none" stroke-linecap="round" stroke-linejoin="round" stroke-width="0" color="#000"><path d="M371.99 80.26h-7.5"/><text fill="#000" font-family="KaTeX_Main" font-size="8" transform="translate(378.99 82.86)"><tspan>1.07</tspan></text></g><g fill="none" stroke-linecap="round" stroke-linejoin="round" stroke-width="0" color="#000"><path d="M371.99 68.51h-7.5"/><text fill="#000" font-family="KaTeX_Main" font-size="8" transform="translate(378.99 71.11)"><tspan>1.07</tspan></text></g><g fill="none" stroke-linecap="round" stroke-linejoin="round" stroke-width="0" color="#000"><path d="M371.99 56.76h-7.5"/><text fill="#000" font-family="KaTeX_Main" font-size="8" transform="translate(378.99 59.36)"><tspan>1.07</tspan></text></g><g fill="none" stroke-linecap="round" stroke-linejoin="round" stroke-width="0" color="#000"><path d="M371.99 45.01h-7.5"/><text fill="#000" font-family="KaTeX_Main" font-size="8" transform="translate(378.99 47.61)"><tspan>1.08</tspan></text></g><path fill="none" d="M28 45.01V162.5M371.99 45.01H28" color="#000"/><text stroke-linecap="round" stroke-linejoin="round" stroke-width="0" color="#000" font-family="KaTeX_Main" font-size="10" text-anchor="middle" transform="rotate(-90 57.63 46.13)"><tspan font-weight="bold">Allocations </tspan><tspan> / log</tspan><tspan dy="3" font-size="8">2</tspan><tspan dy="-3">(Size)</tspan></text><text stroke-linecap="round" stroke-linejoin="round" stroke-width="0" color="#000" font-family="KaTeX_Main" font-size="10" text-anchor="middle" transform="translate(199.99 195.75)"><tspan>Operations / 10</tspan><tspan dy="-5" font-size="8">6</tspan></text><text stroke-linecap="round" stroke-linejoin="round" color="#000" font-family="KaTeX_Main" font-size="8" transform="translate(132.8 10.11)"><tspan>LBSTBottomUp</tspan></text><g fill="none" stroke="currentColor" stroke-linecap="round" stroke-linejoin="round" color="#000"><path stroke="#3B75EA" d="M97.3 7.51h29.9M28 131.36l.36.18.36.19.37.19.36.19.36.18.36.18.36.16.37.15.36.13.36.11.36.09.37.07.36.05.36.03.36.02.36-.01.37-.01.36-.03.36-.03.36-.05.36-.04.37-.05.36-.04.36-.05.36-.04.36-.05.37-.03.36-.04.36-.03.36-.04.36-.03.37-.04.36-.04.36-.04.36-.04.37-.05.36-.06.36-.06.36-.07.36-.07.37-.08.36-.09.36-.09.36-.11.36-.11.37-.11.36-.13.36-.14.36-.15.36-.15.37-.17.36-.19.36-.19.36-.2.37-.22.36-.22.36-.23.36-.23.36-.23.37-.23.36-.23.36-.23.36-.21.36-.2.37-.19.36-.17.36-.16.36-.14.36-.12.37-.1.36-.08.36-.07.36-.05.37-.03.36-.02h.72l.36.01.37.02.36.03.36.03.36.04.36.04.37.03.36.04.36.04.36.03.36.04.37.02.36.03.36.02.36.01.36.01.37.01h.36l.36-.01.36-.01.37-.02.36-.03.36-.04.36-.04.36-.04.37-.06.36-.06.36-.06.36-.08.36-.08.37-.08.36-.09.36-.09.36-.1.36-.1.37-.11.36-.11.36-.11.36-.12.37-.12.36-.13.36-.12.36-.13.36-.14.37-.13.36-.13.36-.14.36-.13.36-.13.37-.13.36-.13.36-.13.36-.13.36-.12.37-.11.36-.11.36-.1.36-.1.36-.09.37-.08.36-.07.36-.07.36-.05.37-.05.36-.04.36-.03.36-.02.36-.02.37-.01h.72l.36.01h.36l.37.01.36.01.36.01h1.09l.36-.01.36-.02.36-.03.37-.04.36-.05.36-.06.36-.06.36-.08.37-.09.36-.1.36-.11.36-.12.36-.12.37-.13.36-.14.36-.14.36-.15.36-.15.37-.15.36-.15.36-.15.36-.15.36-.15.37-.14.36-.14.36-.14.36-.13.37-.13.36-.12.36-.11.36-.11.36-.1.37-.09.36-.09.36-.08.36-.08.36-.06.37-.07.36-.05.36-.05.36-.05.36-.04.37-.04.36-.04.36-.03.36-.03.37-.03.36-.03.36-.03.36-.02.36-.03.37-.03.36-.03.36-.02.36-.03.36-.03.37-.03.36-.04.36-.03.36-.03.36-.04.37-.04.36-.04.36-.04.36-.04.37-.04.36-.05.36-.04.36-.05.36-.05.37-.04.36-.05.36-.05.36-.04.36-.05.37-.05.36-.04.36-.04.36-.05.36-.03.37-.04.36-.03.36-.03.36-.03.36-.02.37-.02.36-.01.36-.01h.73l.36.01.36.02.36.02.36.03.37.03.36.04.36.04.36.05.36.06.37.06.36.07.36.07.36.07.36.08.37.08.36.08.36.09.36.09.37.08.36.09.36.09.36.1.36.09.37.09.36.08.36.09.36.09.36.08.37.08.36.08.36.08.36.07.36.07.37.07.36.07.36.06.36.06.36.05.37.05.36.05.36.05.36.04.37.03.36.04.36.03.36.02.36.03.37.02.36.02.36.01.36.01.36.01.37.01h.36l.36.01h.72l.37-.01h.36l.36-.01h.36l.37-.01.36-.01h.36l.36-.01.36-.01.37-.01.36-.01.36-.01.36-.01.36-.01.37-.01.36-.01.36-.02.36-.01.36-.01.37-.01.36-.02.36-.01.36-.02.36-.01.37-.02.36-.02.36-.02.36-.02.37-.02.36-.02.36-.03.36-.03.36-.02.37-.03.36-.04.36-.03.36-.04.36-.03.37-.04.36-.04.36-.05.36-.04.36-.05.37-.05.36-.05.36-.05.36-.06.37-.06.36-.06.36-.06.36-.06.36-.06.37-.07.36-.07.36-.07.36-.07.36-.07.37-.08.36-.07.36-.08.36-.08.36-.08.37-.07.36-.08.36-.08.36-.08.37-.08.36-.08.36-.08.36-.08.36-.08.37-.07.36-.08.36-.08.36-.07.36-.08.37-.07.36-.07.36-.07.36-.07.36-.06.37-.07.36-.06.36-.06.36-.06.36-.05.37-.05.36-.05.36-.05.36-.04.37-.04.36-.03.36-.03.36-.03.36-.02.37-.02.36-.02.36-.01h.36l.36-.01h.37l.36.01h.36l.36.02.36.01.37.02.36.01.36.02.36.03.37.02.36.02.36.03.36.02.36.03.37.02.36.02.36.02.36.02.36.01.37.01.36.01.36.01h1.09l.36-.01.36-.01.36-.01.36-.02.37-.02.36-.02.36-.03.36-.02.37-.03.36-.03.36-.03.36-.04.36-.03.37-.04.36-.03.36-.03.36-.04.36-.03.37-.04.36-.03.36-.04.36-.03.36-.04.37-.03.36-.04.36-.03.36-.04.37-.03.36-.04.36-.04.36-.04.36-.04.37-.05.36-.04.36-.05.36-.05.36-.06.37-.06.36-.05.36-.07.36-.06.36-.07.37-.07.36-.07.36-.07.36-.07.37-.08.36-.07.36-.07.36-.08.36-.07.37-.07.36-.07.36-.07.36-.07.36-.06.37-.06.36-.06.36-.05.36-.05.36-.05.37-.04.36-.04.36-.03.36-.03.36-.03.37-.02.36-.02.36-.01.36-.02.37-.01h.36l.36-.01h1.45l.36.01h.36l.36.01.37.01.36.01.36.01.36.01.36.01.37.01.36.01.36.01.36.01.37.01.36.01.36.01.36.01.36.01.37.01.36.01.36.01.36.01.36.01.37.01.36.01h.36l.36.01h.36l.37.01h1.08l.36.01h.73l.36-.01h1.45l.36-.01h.73l.36-.01h.72l.36-.01h.73l.36-.01h.36l.36-.01h.37l.36-.01.36-.01.36-.01.37-.01.36-.01.36-.01.36-.01.36-.02.37-.02.36-.02.36-.02.36-.02.36-.03.37-.03.36-.03.36-.03.36-.03.36-.04.37-.04.36-.04.36-.04.36-.04.36-.05.37-.05.36-.05.36-.05.36-.05.37-.06.36-.05.36-.06.36-.06.36-.06.37-.06.36-.06.36-.07.36-.06.36-.07.37-.07.36-.06.36-.07.36-.07.36-.06.37-.07.36-.06.36-.07.36-.06.37-.06.36-.05.36-.06.36-.05.36-.04.37-.04.36-.04.36-.03.36-.02.36-.02.37-.02h1.08l.36.01.37.02.36.02.36.03.36.03.37.04.36.04.36.05.36.05.36.05.37.05.36.05.36.05.36.04.36.05.37.04.36.04.36.03.36.03.36.02.37.02h1.08l.36-.02.37-.02.36-.03.36-.04.36-.05.37-.05.36-.06.36-.06.36-.07.36-.07.37-.07.36-.08.36-.08.36-.08.36-.07.37-.08.36-.07.36-.07.36-.07.36-.06.37-.06.36-.05.36-.04.36-.04.37-.03.36-.02.36-.02.36-.01h.73l.36.01.36.01.36.02.36.02.37.03.36.03.36.03.36.03.36.03.37.03.36.03.36.03.36.02.36.03.37.02.36.01.36.01.36.01h1.09l.36-.01.36-.01.37-.01.36-.02.36-.02.36-.02.36-.02.37-.02.36-.02.36-.01.36-.02.36-.01.37-.01.36-.01h.36l.36.01h.37l.36.01.36.02.36.02.36.03.37.02.36.04.36.03.36.04.36.04.37.04.36.04.36.04.36.04.36.03.37.04.36.04.36.03.36.03.36.03.37.03.36.02.36.03.36.02.37.02.36.02.36.02.36.02.36.02.37.03.36.02.36.03.36.03.36.04.37.04.36.04.36.04.36.05.36.05.37.05.36.06.36.05.36.05.37.06.36.05.36.04.36.04.36.03.37.03.36.02h.72l.36-.01.37-.03.36-.04.36-.05.36-.07.36-.07.37-.09.36-.1.36-.12.36-.12.37-.13.36-.13.36-.15.36-.14.36-.15.37-.16.36-.15.36-.15.36-.15.36-.15.37-.14.36-.14.36-.13.36-.13.36-.11.37-.12.36-.1.36-.09.36-.09.36-.08.37-.07.36-.06.36-.06.36-.04.37-.04.36-.03.36-.02.36-.01.36.01.37.01.36.02.36.03.36.05.36.05.37.07.36.08.36.09.36.1.36.11.37.12.36.12.36.14.36.14.37.14.36.14.36.15.36.14.36.14.37.13.36.13.36.12.36.12.36.1.37.09.36.08.36.06.36.06.36.04.37.03.36.02h.36l.36-.01.36-.02.37-.04.36-.04.36-.06.36-.07.37-.08.36-.09.36-.09.36-.11.36-.12.37-.12.36-.13.36-.14.36-.14.36-.15.37-.15.36-.16.36-.17.36-.16.36-.17.37-.18.36-.18.36-.17.36-.18.37-.18.36-.18.36-.17.36-.18.36-.16.37-.16.36-.16.36-.14.36-.13.36-.13.37-.11.36-.09.36-.09.36-.07.36-.06.37-.05.36-.03.36-.02.36-.01h.36l.37.01.36.02.36.03.36.05.37.05.36.06.36.07.36.08.36.08.37.09.36.1.36.1.36.1.36.1.37.1.36.09.36.09.36.08.36.08.37.06.36.05.36.04.36.03.37.02.36.01.36-.01.36-.01.36-.02.37-.02.36-.02.36-.02h.36l.36.02.37.04.36.06.36.09.36.12.36.14.37.16.36.18.36.19.36.19.37.19.36.18.36.18.36.17.36.16.37.16.36.15.36.16.36.16.36.14.37.12.36.09.36.05.36-.01.36-.07.37-.11.36-.17.36-.19.36-.2.36-.18.37-.14.36-.08.36-.04.36.01.37.03.36.06.36.06.36-.01.36-.29.37-.72.36-1.1.36-.8"/><use xlink:href="#e5aef__a" color="#3B75EA" transform="matrix(3.75 0 0 3.75 353.89 108.16)"/><use xlink:href="#e5aef__a" color="#3B75EA" transform="matrix(3.75 0 0 3.75 112.25 7.51)"/></g><text stroke-linecap="round" stroke-linejoin="round" color="#000" font-family="KaTeX_Main" font-size="8" transform="translate(132.8 25.11)"><tspan>LBSTTopDown</tspan></text><g fill="none" stroke="currentColor" stroke-linecap="round" stroke-linejoin="round" color="#000"><path stroke="#00C853" stroke-dasharray="1.0,2.0" d="M97.3 22.51h29.9M28 140.57l.36-.16.36-.17.37-.18.36-.17.36-.16.36-.15.36-.13.37-.11.36-.09.36-.06.36-.03.37-.01h.36l.36.03.36.04.36.05.37.06.36.06.36.06.36.06.36.05.37.04.36.04.36.03.36.02.36.01.37.02.36.01.36.01.36.02.36.02.37.03.36.04.36.06.36.06.37.08.36.1.36.1.36.12.36.12.37.14.36.13.36.13.36.13.36.12.37.11.36.09.36.07.36.05.36.02h.37l.36-.04.36-.07.36-.09.37-.13.36-.15.36-.17.36-.2.36-.22.37-.24.36-.24.36-.26.36-.25.36-.26.37-.25.36-.24.36-.23.36-.21.36-.2.37-.17.36-.16.36-.13.36-.11.37-.09.36-.06.36-.05.36-.03.36-.01.37.01.36.02.36.03.36.04.36.05.37.05.36.06.36.07.36.06.36.07.37.06.36.07.36.06.36.05.36.06.37.05.36.04.36.03.36.03.37.03.36.01.36.01h.36l.36-.01.37-.02.36-.03.36-.03.36-.05.36-.05.37-.06.36-.07.36-.07.36-.08.36-.09.37-.1.36-.09.36-.11.36-.1.37-.11.36-.12.36-.11.36-.11.36-.11.37-.12.36-.1.36-.11.36-.1.36-.1.37-.1.36-.09.36-.08.36-.08.36-.07.37-.06.36-.06.36-.05.36-.04.36-.03.37-.03.36-.03.36-.01.36-.01.37-.01h.72l.36.01.36.01.37.01.36.01.36.02.36.01.36.01.37.02.36.01.36.01h.36l.36.01h.37l.36-.01.36-.01.36-.01.37-.02.36-.02.36-.03.36-.03.36-.03.37-.04.36-.04.36-.05.36-.04.36-.05.37-.05.36-.05.36-.05.36-.05.36-.05.37-.04.36-.05.36-.04.36-.04.36-.03.37-.03.36-.03.36-.02.36-.02.37-.02.36-.02.36-.01.36-.01.36-.02.37-.01.36-.02.36-.02.36-.02.36-.03.37-.03.36-.04.36-.04.36-.06.36-.06.37-.06.36-.08.36-.08.36-.09.37-.1.36-.11.36-.11.36-.12.36-.12.37-.13.36-.13.36-.13.36-.13.36-.14.37-.13.36-.13.36-.13.36-.12.36-.12.37-.11.36-.11.36-.1.36-.09.37-.09.36-.08.36-.07.36-.06.36-.05.37-.05.36-.04.36-.03.36-.03.36-.02.37-.02.36-.01h1.08l.37.01h.36l.36.01.36.02.36.01.37.02.36.02.36.02.36.02.37.02.36.02.36.03.36.02.36.03.37.03.36.03.36.03.36.04.36.03.37.04.36.04.36.05.36.04.36.05.37.05.36.05.36.06.36.05.37.06.36.06.36.06.36.07.36.06.37.06.36.07.36.06.36.07.36.06.37.07.36.06.36.06.36.06.36.06.37.05.36.05.36.05.36.05.36.04.37.04.36.03.36.03.36.02.37.02.36.02.36.01h.72l.37-.01.36-.01.36-.02.36-.02.36-.02.37-.03.36-.03.36-.04.36-.04.36-.05.37-.04.36-.05.36-.05.36-.06.37-.05.36-.05.36-.06.36-.05.36-.06.37-.05.36-.06.36-.05.36-.05.36-.05.37-.05.36-.05.36-.04.36-.04.36-.04.37-.04.36-.04.36-.04.36-.03.36-.04.37-.03.36-.04.36-.03.36-.04.37-.03.36-.04.36-.04.36-.04.36-.04.37-.05.36-.05.36-.05.36-.05.36-.06.37-.06.36-.06.36-.07.36-.07.36-.07.37-.07.36-.07.36-.08.36-.07.37-.08.36-.07.36-.07.36-.07.36-.07.37-.07.36-.06.36-.06.36-.05.36-.05.37-.05.36-.04.36-.03.36-.04.36-.03.37-.02.36-.02.36-.02.36-.01.37-.01.36-.01.36-.01h.36l.36-.01h.73l.36-.01h.36l.36-.01h.37l.36-.01.36-.01.36-.01.36-.01.37-.02.36-.02.36-.02.36-.02.36-.03.37-.03.36-.03.36-.03.36-.04.37-.04.36-.04.36-.04.36-.04.36-.04.37-.05.36-.04.36-.05.36-.05.36-.04.37-.05.36-.05.36-.04.36-.05.36-.04.37-.04.36-.04.36-.04.36-.03.37-.03.36-.03.36-.03.36-.02.36-.01.37-.02h1.08l.36.01.37.01.36.02.36.02.36.03.36.03.37.04.36.05.36.04.36.06.36.05.37.07.36.06.36.07.36.07.37.07.36.08.36.08.36.08.36.08.37.08.36.08.36.08.36.08.36.08.37.08.36.07.36.08.36.07.36.07.37.07.36.07.36.07.36.06.37.06.36.06.36.06.36.05.36.05.37.05.36.05.36.05.36.04.36.04.37.04.36.04.36.03.36.04.36.03.37.03.36.02.36.03.36.02.37.01.36.02.36.01.36.01h1.09l.36-.01.36-.01.36-.02.37-.03.36-.02.36-.04.36-.04.36-.05.37-.05.36-.05.36-.07.36-.07.36-.07.37-.08.36-.08.36-.09.36-.1.37-.09.36-.11.36-.1.36-.11.36-.11.37-.11.36-.12.36-.12.36-.11.36-.12.37-.12.36-.12.36-.11.36-.12.36-.12.37-.11.36-.11.36-.11.36-.11.37-.1.36-.1.36-.1.36-.1.36-.09.37-.09.36-.09.36-.08.36-.08.36-.08.37-.07.36-.07.36-.06.36-.07.36-.05.37-.06.36-.05.36-.06.36-.04.36-.05.37-.04.36-.05.36-.04.36-.04.37-.04.36-.03.36-.04.36-.04.36-.04.37-.04.36-.03.36-.05.36-.04.36-.04.37-.05.36-.05.36-.05.36-.05.36-.05.37-.06.36-.06.36-.06.36-.07.37-.07.36-.07.36-.07.36-.07.36-.07.37-.08.36-.07.36-.08.36-.08.36-.07.37-.08.36-.08.36-.07.36-.08.36-.07.37-.08.36-.07.36-.07.36-.06.36-.07.37-.06.36-.07.36-.06.36-.06.37-.05.36-.06.36-.05.36-.05.36-.06.37-.05.36-.05.36-.05.36-.04.36-.05.37-.05.36-.05.36-.05.36-.05.36-.05.37-.05.36-.05.36-.05.36-.05.37-.05.36-.05.36-.05.36-.05.36-.06.37-.05.36-.05.36-.05.36-.05.36-.05.37-.05.36-.04.36-.05.36-.04.36-.04.37-.04.36-.03.36-.03.36-.03.37-.03.36-.02.36-.02.36-.02.36-.01.37-.02h.36l.36-.01h.72l.37.01.36.01.36.01.36.01.36.02.37.01.36.03.36.02.36.03.36.03.37.03.36.04.36.03.36.05.37.04.36.04.36.05.36.05.36.05.37.06.36.05.36.06.36.05.36.06.37.06.36.05.36.06.36.05.36.05.37.04.36.05.36.03.36.04.37.03.36.02.36.03.36.01.36.01.37.01h.36l.36-.01.36-.01.36-.01.37-.02.36-.01.36-.03.36-.02.36-.02.37-.03.36-.02.36-.03.36-.02.36-.02.37-.02.36-.02.36-.02.36-.01.37-.01.36-.01.36-.01.36-.01h.73l.36-.01h4.34l.37-.01h2.53l.36.01h.36l.37.01.36.01.36.01.36.01.36.01.37.02.36.01.36.02.36.02.36.02.37.02.36.01.36.02.36.02.37.02.36.02.36.02.36.01.36.02.37.02.36.01.36.02.36.01.36.01.37.02.36.01.36.01.36.01h.36l.37.01h1.08l.37-.01.36-.01.36-.02.36-.02.36-.02.37-.03.36-.04.36-.04.36-.05.36-.06.37-.06.36-.07.36-.07.36-.07.36-.09.37-.08.36-.09.36-.08.36-.09.37-.09.36-.08.36-.08.36-.07.36-.07.37-.06.36-.06.36-.04.36-.03.36-.02.37-.01.36.01.36.02.36.03.36.05.37.06.36.07.36.09.36.1.36.1.37.12.36.12.36.13.36.14.37.13.36.14.36.14.36.14.36.13.37.13.36.12.36.11.36.11.36.1.37.09.36.08.36.08.36.06.36.05.37.05.36.03.36.03.36.02.37.01.36.01h.36l.36-.01.36-.01.37-.02.36-.02.36-.02.36-.02.36-.03.37-.03.36-.03.36-.03.36-.03.36-.02.37-.03.36-.02.36-.02.36-.02.36-.02.37-.02.36-.01.36-.02.36-.01.37-.02.36-.02.36-.01.36-.02.36-.03.37-.02.36-.03.36-.03.36-.04.36-.03.37-.04.36-.04.36-.03.36-.04.36-.03.37-.02.36-.03.36-.01.36-.01.37-.01.36.01h.36l.36.01.36.01.37.01.36.02.36.01h.72l.37-.01.36-.01.36-.02.36-.03.36-.04.37-.04.36-.06.36-.06.36-.06.36-.07.37-.07.36-.07.36-.07.36-.07.37-.06.36-.06.36-.05.36-.04.36-.02.37-.02h.36l.36.01.36.03.36.04.37.06.36.06.36.08.36.09.36.09.37.1.36.1.36.1.36.1.37.1.36.11.36.1.36.12.36.12.37.14.36.15.36.16.36.16.36.17.37.17.36.16.36.13.36.1.36.07.37.03.36-.01.36-.04.36-.06.37-.06.36-.06.36-.03.36.02.36.08.37.14.36.22.36.29.36.36.36.41.37.45.36.47.36.45.36.43.36.36.37.28.36.2.36.1h.36l.36-.08.37-.18.36-.27.36-.36.36-.41.37-.35.36-.13.36.26.36.71.36.96.37.77.36.44.36 1"/><use xlink:href="#e5aef__c" color="#00C853" transform="matrix(3.75 0 0 3.75 67.83 137.79)"/><use xlink:href="#e5aef__c" color="#00C853" transform="matrix(3.75 0 0 3.75 112.25 22.51)"/></g><text stroke-linecap="round" stroke-linejoin="round" color="#000" font-family="KaTeX_Main" font-size="8" transform="translate(241.1 10.11)"><tspan>WBSTBottomUp</tspan></text><g fill="none" stroke="currentColor" stroke-linecap="round" stroke-linejoin="round" color="#000"><path stroke="#000" d="M205.6 7.51h29.9M28 72.96l.36.01.36.01.37.02.36.03.36.04.36.05.36.07.37.08.36.09.36.09.36.08.37.08.36.06.36.05.36.03h.36l.37-.02.36-.04.36-.06.36-.08.36-.09.37-.12.36-.12.36-.13.36-.13.36-.14.37-.13.36-.12.36-.11.36-.11.36-.09.37-.07.36-.06.36-.03.36-.02h.37l.36.02.36.04.36.06.36.07.37.08.36.09.36.1.36.09.36.1.37.09.36.07.36.07.36.05.36.03.37.01.36-.01.36-.03.36-.05.37-.07.36-.08.36-.1.36-.12.36-.12.37-.12.36-.13.36-.13.36-.12.36-.11.37-.1.36-.09.36-.07.36-.05.36-.03.37-.01.36.01.36.04.36.05.37.08.36.1.36.12.36.14.36.15.37.17.36.19.36.2.36.21.36.22.37.23.36.23.36.24.36.24.36.24.37.25.36.23.36.24.36.22.36.22.37.2.36.19.36.18.36.16.37.14.36.12.36.11.36.09.36.06.37.06.36.03.36.01h.36l.36-.01.37-.03.36-.04.36-.05.36-.06.36-.06.37-.08.36-.08.36-.08.36-.09.37-.09.36-.09.36-.09.36-.1.36-.09.37-.1.36-.09.36-.1.36-.1.36-.09.37-.1.36-.09.36-.09.36-.09.36-.09.37-.09.36-.08.36-.09.36-.08.36-.07.37-.08.36-.07.36-.07.36-.07.37-.07.36-.07.36-.06.36-.07.36-.07.37-.07.36-.07.36-.08.36-.08.36-.08.37-.09.36-.1.36-.1.36-.1.36-.11.37-.11.36-.12.36-.12.36-.12.37-.13.36-.13.36-.13.36-.13.36-.13.37-.14.36-.13.36-.12.36-.13.36-.12.37-.12.36-.12.36-.11.36-.1.36-.11.37-.1.36-.09.36-.09.36-.09.36-.08.37-.08.36-.08.36-.07.36-.08.37-.07.36-.07.36-.07.36-.07.36-.07.37-.07.36-.07.36-.07.36-.07.36-.07.37-.07.36-.06.36-.07.36-.07.36-.06.37-.07.36-.06.36-.05.36-.05.37-.05.36-.04.36-.03.36-.02.36-.01h.73l.36.02.36.03.36.05.37.05.36.07.36.08.36.1.36.1.37.12.36.13.36.14.36.15.37.15.36.17.36.17.36.17.36.18.37.18.36.19.36.18.36.18.36.18.37.17.36.18.36.16.36.16.36.15.37.14.36.14.36.13.36.12.36.1.37.11.36.09.36.08.36.08.37.06.36.06.36.05.36.05.36.04.37.03.36.03.36.02.36.02.36.01.37.02h.36l.36.01.36.01h4.35l.36-.01h.36l.36-.01.37-.01.36-.01.36-.02.36-.01.36-.03.37-.02.36-.03.36-.04.36-.04.36-.05.37-.05.36-.06.36-.06.36-.07.37-.07.36-.08.36-.08.36-.09.36-.09.37-.1.36-.09.36-.1.36-.1.36-.1.37-.1.36-.1.36-.1.36-.09.36-.09.37-.09.36-.08.36-.08.36-.07.37-.07.36-.06.36-.06.36-.05.36-.04.37-.04.36-.03.36-.03.36-.03.36-.02.37-.01.36-.02.36-.01.36-.01.36-.01.37-.01h.36l.36-.01.36-.02.36-.01.37-.01.36-.02.36-.02.36-.03.37-.03.36-.03.36-.03.36-.04.36-.05.37-.04.36-.05.36-.05.36-.06.36-.05.37-.06.36-.06.36-.06.36-.06.36-.06.37-.06.36-.06.36-.06.36-.06.37-.05.36-.06.36-.05.36-.05.36-.05.37-.05.36-.05.36-.04.36-.05.36-.04.37-.04.36-.05.36-.04.36-.04.36-.05.37-.05.36-.05.36-.05.36-.05.37-.06.36-.06.36-.06.36-.07.36-.07.37-.07.36-.08.36-.08.36-.09.36-.08.37-.09.36-.09.36-.09.36-.09.36-.09.37-.09.36-.09.36-.08.36-.09.36-.07.37-.08.36-.07.36-.06.36-.05.37-.05.36-.04.36-.03.36-.02.36-.02h.37l.36.01.36.01.36.02.36.04.37.04.36.05.36.05.36.07.36.07.37.08.36.08.36.09.36.09.37.09.36.1.36.1.36.09.36.1.37.09.36.1.36.09.36.08.36.08.37.08.36.07.36.06.36.05.36.05.37.04.36.04.36.02.36.02.36.01h.37l.36-.01.36-.01.36-.02.37-.04.36-.03.36-.05.36-.05.36-.06.37-.06.36-.08.36-.07.36-.08.36-.08.37-.09.36-.09.36-.09.36-.1.36-.09.37-.1.36-.09.36-.09.36-.09.37-.09.36-.08.36-.08.36-.08.36-.07.37-.06.36-.06.36-.05.36-.04.36-.03.37-.02.36-.02h.72l.36.02.37.02.36.03.36.05.36.05.37.07.36.07.36.08.36.09.36.1.37.11.36.11.36.12.36.12.36.13.37.14.36.14.36.14.36.14.36.15.37.15.36.15.36.14.36.15.36.15.37.14.36.14.36.14.36.14.37.13.36.13.36.12.36.12.36.12.37.1.36.11.36.1.36.09.36.08.37.08.36.08.36.07.36.06.36.06.37.05.36.05.36.04.36.04.37.03.36.03.36.03.36.02.36.02.37.01.36.01.36.01.36.01.36.01h1.81l.37-.01h.36l.36-.01h.72l.37-.01h.36l.36-.01h1.81l.36.01h.37l.36.01.36.01.36.01.36.01.37.02.36.01.36.02.36.02.36.03.37.02.36.03.36.03.36.03.37.03.36.03.36.03.36.03.36.03.37.03.36.03.36.03.36.03.36.02.37.03.36.02.36.03.36.02.36.02.37.02.36.02.36.02.36.02.36.02.37.02.36.03.36.02.36.03.37.03.36.04.36.04.36.04.36.05.37.05.36.06.36.06.36.07.36.08.37.08.36.08.36.09.36.09.36.1.37.1.36.11.36.1.36.11.37.11.36.11.36.1.36.11.36.1.37.11.36.09.36.09.36.09.36.08.37.08.36.07.36.07.36.05.36.05.37.05.36.04.36.03.36.03.37.02.36.01.36.02h.36l.36.01h1.09l.36-.01.36-.01h.37l.36-.01.36-.01.36-.01.36-.01.37-.01.36-.01.36-.01.36-.01.36-.02.37-.01.36-.02.36-.02.36-.03.37-.03.36-.03.36-.03.36-.04.36-.05.37-.05.36-.05.36-.06.36-.07.36-.07.37-.07.36-.08.36-.09.36-.08.36-.09.37-.09.36-.1.36-.09.36-.1.37-.09.36-.09.36-.09.36-.09.36-.08.37-.08.36-.07.36-.07.36-.05.36-.05.37-.04.36-.03.36-.02.36-.01h.36l.37.01.36.02.36.03.36.04.36.04.37.06.36.07.36.07.36.07.37.08.36.09.36.09.36.09.36.09.37.09.36.08.36.09.36.08.36.08.37.07.36.07.36.06.36.05.36.05.37.04.36.03.36.03.36.01.37.01h.72l.36-.02.36-.02.37-.02.36-.04.36-.04.36-.04.36-.05.37-.05.36-.05.36-.06.36-.07.36-.06.37-.07.36-.07.36-.07.36-.07.36-.07.37-.07.36-.07.36-.07.36-.07.37-.06.36-.07.36-.06.36-.06.36-.05.37-.05.36-.05.36-.04.36-.03.36-.04.37-.02.36-.02.36-.01.36-.01h.73l.36.01.36.01.36.02.37.02.36.03.36.02.36.03.36.03.37.03.36.02.36.03.36.02.36.02.37.01.36.01h.72l.36-.01.37-.01.36-.02.36-.03.36-.03.37-.04.36-.05.36-.04.36-.06.36-.05.37-.06.36-.05.36-.06.36-.06.36-.05.37-.04.36-.05.36-.03.36-.03.36-.02.37-.02h.36l.36.01.36.02.36.02.37.04.36.05.36.05.36.06.37.07.36.07.36.08.36.08.36.08.37.08.36.08.36.07.36.08.36.07.37.06.36.07.36.05.36.06.36.05.37.04.36.05.36.04.36.03.37.03.36.03.36.03.36.03.36.02.37.03.36.02.36.02.36.02.36.02.37.02.36.02.36.02.36.03.36.03.37.03.36.04.36.04.36.05.36.05.37.06.36.07.36.07.36.07.37.08.36.08.36.08.36.08.36.08.37.07.36.08.36.07.36.07.36.06.37.06.36.06.36.06.36.05.36.06.37.05.36.06.36.06.36.06.37.07.36.07.36.07.36.07.36.07.37.07.36.07.36.07.36.07.36.06.37.06.36.05.36.05.36.04.36.04.37.04.36.02.36.03.36.02.36.01.37.01h.36l.36-.01.36-.03.37-.04.36-.05.36-.07.36-.09.36-.11.37-.13.36-.14.36-.17.36-.17.36-.19.37-.19.36-.19.36-.19.36-.19.36-.18.37-.17.36-.15.36-.15.36-.13.37-.12.36-.1.36-.08.36-.07.36-.04.37-.02.36.01.36.04.36.08.36.12.37.16.36.19.36.23.36.25.36.26.37.28.36.27.36.25.36.24.37.21.36.18.36.16.36.12.36.1.37.08.36.08.36.08.36.1.36.13.37.15.36.2.36.22.36.24.36.26.37.25.36.23.36.19.36.13.36.06.37-.03.36-.15.36-.3.36-.48.37-.7.36-.87.36-.92.36-.84.36-.66.37-.77.36-1.7.36-3.93"/><use xlink:href="#e5aef__b" transform="matrix(3.75 0 0 3.75 125.4 73.5)"/><use xlink:href="#e5aef__b" transform="matrix(3.75 0 0 3.75 220.55 7.51)"/></g><text stroke-linecap="round" stroke-linejoin="round" color="#000" font-family="KaTeX_Main" font-size="8" transform="translate(241.1 25.11)"><tspan>WBSTTopDown</tspan></text><g fill="none" stroke="currentColor" stroke-linecap="round" stroke-linejoin="round" color="#000"><path stroke="#29C3F6" stroke-dasharray="4.0,2.0,1.0,2.0" d="M205.6 22.51h29.9M28 72.37l.36.07.36.08.37.1.36.11.36.12.36.13.36.14.37.14.36.14.36.12.36.12.37.09.36.08.36.05.36.03.36.01.37-.02.36-.03.36-.06.36-.07.36-.08.37-.09.36-.09.36-.1.36-.1.36-.09.37-.09.36-.09.36-.08.36-.07.36-.06.37-.05.36-.04.36-.02.36-.02h.37l.36.02.36.02.36.03.36.05.37.04.36.06.36.05.36.06.36.05.37.04.36.03.36.02h.36l.36-.02.37-.04.36-.06.36-.08.36-.1.37-.13.36-.13.36-.16.36-.17.36-.17.37-.19.36-.18.36-.19.36-.17.36-.17.37-.16.36-.14.36-.13.36-.1.36-.08.37-.06.36-.03.36-.01.36.02.37.04.36.06.36.09.36.11.36.13.37.15.36.17.36.18.36.19.36.21.37.22.36.22.36.23.36.24.36.23.37.24.36.23.36.22.36.22.36.21.37.19.36.18.36.17.36.15.37.13.36.12.36.09.36.08.36.06.37.04.36.02.36.01.36-.01.36-.02.37-.03.36-.04.36-.05.36-.06.36-.07.37-.07.36-.07.36-.08.36-.07.37-.08.36-.09.36-.08.36-.08.36-.09.37-.08.36-.09.36-.09.36-.09.36-.09.37-.09.36-.09.36-.1.36-.1.36-.09.37-.1.36-.1.36-.1.36-.1.36-.1.37-.1.36-.1.36-.1.36-.1.37-.11.36-.1.36-.1.36-.1.36-.1.37-.1.36-.11.36-.11.36-.11.36-.11.37-.11.36-.12.36-.12.36-.12.36-.13.37-.13.36-.13.36-.13.36-.13.37-.13.36-.13.36-.13.36-.14.36-.12.37-.13.36-.13.36-.12.36-.12.36-.11.37-.11.36-.11.36-.1.36-.1.36-.1.37-.09.36-.08.36-.09.36-.08.36-.08.37-.08.36-.07.36-.08.36-.07.37-.08.36-.07.36-.07.36-.08.36-.07.37-.08.36-.08.36-.08.36-.08.36-.08.37-.08.36-.09.36-.08.36-.08.36-.08.37-.08.36-.08.36-.07.36-.07.37-.07.36-.05.36-.05.36-.04.36-.03.37-.02.36-.01h.36l.36.02.36.03.37.04.36.05.36.07.36.09.36.1.37.11.36.12.36.13.36.15.37.16.36.16.36.18.36.18.36.18.37.19.36.19.36.2.36.19.36.2.37.19.36.18.36.19.36.18.36.17.37.16.36.16.36.15.36.14.36.14.37.12.36.12.36.11.36.1.37.1.36.08.36.08.36.08.36.06.37.06.36.06.36.05.36.04.36.05.37.03.36.04.36.03.36.03.36.03.37.03.36.02.36.02.36.03.37.02.36.02.36.01.36.02.36.02.37.01.36.01.36.01.36.01h1.09l.36-.01.36-.01.36-.02.37-.03.36-.02.36-.04.36-.04.36-.05.37-.05.36-.06.36-.07.36-.07.37-.07.36-.09.36-.08.36-.1.36-.09.37-.1.36-.1.36-.1.36-.1.36-.11.37-.1.36-.1.36-.09.36-.1.36-.09.37-.08.36-.08.36-.08.36-.07.37-.06.36-.06.36-.05.36-.04.36-.04.37-.04.36-.02.36-.03.36-.02.36-.02.37-.01.36-.02.36-.01.36-.01.36-.02.37-.01.36-.02.36-.01.36-.03.36-.02.37-.03.36-.04.36-.03.36-.05.37-.05.36-.05.36-.06.36-.06.36-.07.37-.08.36-.07.36-.08.36-.08.36-.09.37-.08.36-.09.36-.09.36-.09.36-.08.37-.09.36-.08.36-.08.36-.08.37-.07.36-.07.36-.07.36-.06.36-.06.37-.05.36-.05.36-.05.36-.04.36-.04.37-.03.36-.04.36-.03.36-.03.36-.02.37-.03.36-.02.36-.03.36-.03.37-.02.36-.03.36-.03.36-.03.36-.04.37-.04.36-.04.36-.04.36-.05.36-.05.37-.05.36-.05.36-.06.36-.05.36-.06.37-.06.36-.06.36-.06.36-.05.36-.06.37-.05.36-.05.36-.05.36-.04.37-.04.36-.03.36-.03.36-.02.36-.01.37-.01h.36l.36.01.36.01.36.02.37.03.36.04.36.04.36.04.36.06.37.05.36.06.36.07.36.07.37.07.36.07.36.08.36.07.36.07.37.07.36.07.36.07.36.07.36.06.37.05.36.06.36.04.36.04.36.04.37.03.36.02.36.02.36.01h.73l.36-.01.36-.02.36-.02.37-.02.36-.04.36-.04.36-.04.36-.05.37-.06.36-.05.36-.07.36-.06.36-.07.37-.07.36-.08.36-.08.36-.07.36-.08.37-.08.36-.08.36-.08.36-.08.37-.07.36-.08.36-.06.36-.07.36-.06.37-.06.36-.05.36-.05.36-.04.36-.03.37-.03.36-.01.36-.01.36-.01.36.01.37.01.36.03.36.03.36.03.37.05.36.06.36.06.36.07.36.08.37.08.36.09.36.1.36.1.36.11.37.11.36.12.36.12.36.12.36.13.37.13.36.14.36.13.36.14.36.14.37.13.36.14.36.14.36.14.37.13.36.14.36.13.36.14.36.13.37.12.36.13.36.12.36.11.36.12.37.11.36.1.36.11.36.1.36.09.37.09.36.08.36.09.36.07.37.07.36.07.36.07.36.06.36.05.37.06.36.05.36.04.36.05.36.03.37.04.36.03.36.03.36.03.36.03.37.02.36.02.36.02.36.01.36.02.37.01.36.01.36.01.36.01.37.01.36.01h.36l.36.01h.36l.37.01h.36l.36.01.36.01h.36l.37.01.36.01h.36l.36.01.36.01.37.01.36.01.36.01.36.01.37.01.36.01.36.01.36.01.36.01.37.01.36.01.36.01h.36l.36.01.37.01h.36l.36.01.36.01h.36l.37.01.36.01.36.01.36.01.36.01.37.02.36.01.36.02.36.03.37.03.36.03.36.04.36.05.36.05.37.05.36.06.36.07.36.07.36.08.37.08.36.09.36.1.36.09.36.1.37.11.36.1.36.11.36.1.37.11.36.11.36.1.36.1.36.1.37.09.36.09.36.09.36.08.36.07.37.07.36.06.36.06.36.05.36.04.37.04.36.03.36.02.36.02.37.01.36.01.36.01h.72l.37-.01.36-.01h.36l.36-.02.36-.01.37-.01.36-.01.36-.02.36-.01.36-.02.37-.01.36-.02.36-.02.36-.02.36-.01.37-.03.36-.02.36-.03.36-.02.37-.04.36-.03.36-.04.36-.04.36-.05.37-.05.36-.06.36-.06.36-.06.36-.07.37-.07.36-.08.36-.08.36-.08.36-.09.37-.08.36-.09.36-.09.36-.09.37-.09.36-.09.36-.09.36-.08.36-.08.37-.08.36-.07.36-.07.36-.06.36-.06.37-.05.36-.04.36-.03.36-.03.36-.01.37-.01h.36l.36.01.36.02.36.02.37.03.36.04.36.04.36.05.37.06.36.05.36.07.36.06.36.07.37.06.36.07.36.06.36.06.36.06.37.06.36.05.36.05.36.04.36.03.37.03.36.03.36.01.36.01.37.01.36-.01.36-.01.36-.01.36-.03.37-.03.36-.03.36-.05.36-.04.36-.06.37-.06.36-.06.36-.07.36-.07.36-.07.37-.08.36-.08.36-.08.36-.09.36-.08.37-.08.36-.09.36-.08.36-.08.37-.08.36-.08.36-.08.36-.07.36-.06.37-.06.36-.06.36-.05.36-.04.36-.04.37-.03.36-.02.36-.02h.36l.36-.01.37.01.36.01.36.02.36.02.37.03.36.03.36.04.36.03.36.04.37.04.36.03.36.04.36.03.36.03.37.02.36.02.36.01.36.01.36.01.37-.01.36-.01.36-.01.36-.02.37-.02.36-.03.36-.03.36-.03.36-.03.37-.04.36-.03.36-.03.36-.03.36-.03.37-.02.36-.02.36-.01h.72l.37.02.36.02.36.03.36.03.36.05.37.06.36.06.36.07.36.08.37.08.36.09.36.09.36.09.36.1.37.1.36.1.36.1.36.09.36.1.37.09.36.09.36.09.36.08.36.08.37.08.36.07.36.07.36.06.37.06.36.05.36.05.36.05.36.03.37.04.36.03.36.03.36.02.36.02.37.01.36.02.36.01.36.02.36.02.37.02.36.02.36.02.36.03.36.04.37.04.36.04.36.04.36.05.37.05.36.05.36.05.36.04.36.04.37.04.36.03.36.02.36.02.36.01.37.01.36.01h2.17l.36.01.37.02.36.02.36.02.36.02.36.03.37.03.36.04.36.03.36.03.36.03.37.03.36.03.36.03.36.02.36.03.37.02.36.02.36.02.36.02.36.01.37.02.36.01h.36l.36-.01.37-.01.36-.03.36-.03.36-.05.36-.07.37-.07.36-.08.36-.08.36-.09.36-.08.37-.08.36-.07.36-.05.36-.04.36-.02h.37l.36.01.36.02.36.04.37.03.36.05.36.04.36.04.36.04.37.05.36.05.36.06.36.07.36.09.37.11.36.13.36.16.36.17.36.19.37.2.36.22.36.22.36.23.37.22.36.22.36.21.36.18.36.17.37.15.36.14.36.14.36.14.36.16.37.18.36.22.36.25.36.27.36.26.37.23.36.19.36.12.36.06.36-.02.37-.09.36-.17.36-.28.36-.44.37-.65.36-.85.36-1 .36-1.01.36-.89.37-.83.36-1.37.36-3.35"/><use xlink:href="#e5aef__d" color="#29C3F6" transform="matrix(3.75 0 0 3.75 182.98 67.02)"/><use xlink:href="#e5aef__d" color="#29C3F6" transform="matrix(3.75 0 0 3.75 220.55 22.51)"/></g><path fill="none" d="M28 45.01V162.5M371.99 45.01H28" color="#000"/></svg>