<svg xmlns="http://www.w3.org/2000/svg" xmlns:xlink="http://www.w3.org/1999/xlink" viewBox="0 0 400 200"><path fill="none" d="M0 0h400v200H0z"/><defs><use xlink:href="#75f4b__a" id="75f4b__d" fill="currentColor" stroke="none"/><use xlink:href="#75f4b__b" id="75f4b__c" stroke="currentColor" transform="rotate(180)"/><circle id="75f4b__a" cx="0" cy="0" r="1" stroke="currentColor" stroke-width=".267"/><path id="75f4b__b" stroke="currentColor" stroke-width=".267" d="m0-1.33-1.33 2h2.66z"/></defs><path fill="none" stroke="#CCC" stroke-linecap="round" stroke-linejoin="round" stroke-width=".1" d="M46.1 162.5V45.01" class="75f4b__gridline" color="#000"/><g fill="none" stroke-linecap="round" stroke-linejoin="round" stroke-width="0" color="#000"><path d="M46.1 162.5V155m0-109.99v7.5"/><text fill="#000" font-family="KaTeX_Main" font-size="8" text-anchor="middle" transform="translate(46.1 172.6)"><tspan> 1</tspan></text></g><path fill="none" stroke="#CCC" stroke-linecap="round" stroke-linejoin="round" stroke-width=".1" d="M82.31 162.5V45.01" class="75f4b__gridline" color="#000"/><g fill="none" stroke-linecap="round" stroke-linejoin="round" stroke-width="0" color="#000"><path d="M82.31 162.5V155m0-109.99v7.5"/><text fill="#000" font-family="KaTeX_Main" font-size="8" text-anchor="middle" transform="translate(82.31 172.6)"><tspan> 2</tspan></text></g><path fill="none" stroke="#CCC" stroke-linecap="round" stroke-linejoin="round" stroke-width=".1" d="M118.52 162.5V45.01" class="75f4b__gridline" color="#000"/><g fill="none" stroke-linecap="round" stroke-linejoin="round" stroke-width="0" color="#000"><path d="M118.52 162.5V155m0-109.99v7.5"/><text fill="#000" font-family="KaTeX_Main" font-size="8" text-anchor="middle" transform="translate(118.52 172.6)"><tspan> 3</tspan></text></g><path fill="none" stroke="#CCC" stroke-linecap="round" stroke-linejoin="round" stroke-width=".1" d="M154.73 162.5V45.01" class="75f4b__gridline" color="#000"/><g fill="none" stroke-linecap="round" stroke-linejoin="round" stroke-width="0" color="#000"><path d="M154.73 162.5V155m0-109.99v7.5"/><text fill="#000" font-family="KaTeX_Main" font-size="8" text-anchor="middle" transform="translate(154.73 172.6)"><tspan> 4</tspan></text></g><path fill="none" stroke="#CCC" stroke-linecap="round" stroke-linejoin="round" stroke-width=".1" d="M190.94 162.5V45.01" class="75f4b__gridline" color="#000"/><g fill="none" stroke-linecap="round" stroke-linejoin="round" stroke-width="0" color="#000"><path d="M190.94 162.5V155m0-109.99v7.5"/><text fill="#000" font-family="KaTeX_Main" font-size="8" text-anchor="middle" transform="translate(190.94 172.6)"><tspan> 5</tspan></text></g><path fill="none" stroke="#CCC" stroke-linecap="round" stroke-linejoin="round" stroke-width=".1" d="M227.15 162.5V45.01" class="75f4b__gridline" color="#000"/><g fill="none" stroke-linecap="round" stroke-linejoin="round" stroke-width="0" color="#000"><path d="M227.15 162.5V155m0-109.99v7.5"/><text fill="#000" font-family="KaTeX_Main" font-size="8" text-anchor="middle" transform="translate(227.15 172.6)"><tspan> 6</tspan></text></g><path fill="none" stroke="#CCC" stroke-linecap="round" stroke-linejoin="round" stroke-width=".1" d="M263.36 162.5V45.01" class="75f4b__gridline" color="#000"/><g fill="none" stroke-linecap="round" stroke-linejoin="round" stroke-width="0" color="#000"><path d="M263.36 162.5V155m0-109.99v7.5"/><text fill="#000" font-family="KaTeX_Main" font-size="8" text-anchor="middle" transform="translate(263.36 172.6)"><tspan> 7</tspan></text></g><path fill="none" stroke="#CCC" stroke-linecap="round" stroke-linejoin="round" stroke-width=".1" d="M299.57 162.5V45.01" class="75f4b__gridline" color="#000"/><g fill="none" stroke-linecap="round" stroke-linejoin="round" stroke-width="0" color="#000"><path d="M299.57 162.5V155m0-109.99v7.5"/><text fill="#000" font-family="KaTeX_Main" font-size="8" text-anchor="middle" transform="translate(299.57 172.6)"><tspan> 8</tspan></text></g><path fill="none" stroke="#CCC" stroke-linecap="round" stroke-linejoin="round" stroke-width=".1" d="M335.78 162.5V45.01" class="75f4b__gridline" color="#000"/><g fill="none" stroke-linecap="round" stroke-linejoin="round" stroke-width="0" color="#000"><path d="M335.78 162.5V155m0-109.99v7.5"/><text fill="#000" font-family="KaTeX_Main" font-size="8" text-anchor="middle" transform="translate(335.78 172.6)"><tspan> 9</tspan></text></g><path fill="none" stroke="#CCC" stroke-linecap="round" stroke-linejoin="round" stroke-width=".1" d="M371.99 162.5V45.01" class="75f4b__gridline" color="#000"/><g fill="none" stroke-linecap="round" stroke-linejoin="round" stroke-width="0" color="#000"><path d="M371.99 162.5V155m0-109.99v7.5"/><text fill="#000" font-family="KaTeX_Main" font-size="8" text-anchor="middle" transform="translate(371.99 172.6)"><tspan> 10</tspan></text></g><g fill="none" stroke-linecap="round" stroke-linejoin="round" stroke-width="0" color="#000"><path d="M371.99 162.5h-7.5"/><text fill="#000" font-family="KaTeX_Main" font-size="8" transform="translate(378.99 165.1)"><tspan>0.895</tspan></text></g><g fill="none" stroke-linecap="round" stroke-linejoin="round" stroke-width="0" color="#000"><path d="M371.99 150.75h-7.5"/><text fill="#000" font-family="KaTeX_Main" font-size="8" transform="translate(378.99 153.35)"><tspan>0.900</tspan></text></g><g fill="none" stroke-linecap="round" stroke-linejoin="round" stroke-width="0" color="#000"><path d="M371.99 139h-7.5"/><text fill="#000" font-family="KaTeX_Main" font-size="8" transform="translate(378.99 141.6)"><tspan>0.905</tspan></text></g><g fill="none" stroke-linecap="round" stroke-linejoin="round" stroke-width="0" color="#000"><path d="M371.99 127.25h-7.5"/><text fill="#000" font-family="KaTeX_Main" font-size="8" transform="translate(378.99 129.85)"><tspan>0.910</tspan></text></g><g fill="none" stroke-linecap="round" stroke-linejoin="round" stroke-width="0" color="#000"><path d="M371.99 115.5h-7.5"/><text fill="#000" font-family="KaTeX_Main" font-size="8" transform="translate(378.99 118.1)"><tspan>0.915</tspan></text></g><g fill="none" stroke-linecap="round" stroke-linejoin="round" stroke-width="0" color="#000"><path d="M371.99 103.75h-7.5"/><text fill="#000" font-family="KaTeX_Main" font-size="8" transform="translate(378.99 106.35)"><tspan>0.920</tspan></text></g><g fill="none" stroke-linecap="round" stroke-linejoin="round" stroke-width="0" color="#000"><path d="M371.99 92.01h-7.5"/><text fill="#000" font-family="KaTeX_Main" font-size="8" transform="translate(378.99 94.61)"><tspan>0.925</tspan></text></g><g fill="none" stroke-linecap="round" stroke-linejoin="round" stroke-width="0" color="#000"><path d="M371.99 80.26h-7.5"/><text fill="#000" font-family="KaTeX_Main" font-size="8" transform="translate(378.99 82.86)"><tspan>0.930</tspan></text></g><g fill="none" stroke-linecap="round" stroke-linejoin="round" stroke-width="0" color="#000"><path d="M371.99 68.51h-7.5"/><text fill="#000" font-family="KaTeX_Main" font-size="8" transform="translate(378.99 71.11)"><tspan>0.935</tspan></text></g><g fill="none" stroke-linecap="round" stroke-linejoin="round" stroke-width="0" color="#000"><path d="M371.99 56.76h-7.5"/><text fill="#000" font-family="KaTeX_Main" font-size="8" transform="translate(378.99 59.36)"><tspan>0.940</tspan></text></g><g fill="none" stroke-linecap="round" stroke-linejoin="round" stroke-width="0" color="#000"><path d="M371.99 45.01h-7.5"/><text fill="#000" font-family="KaTeX_Main" font-size="8" transform="translate(378.99 47.61)"><tspan>0.945</tspan></text></g><path fill="none" d="M28 45.01V162.5M371.99 45.01H28" color="#000"/><text stroke-linecap="round" stroke-linejoin="round" stroke-width="0" color="#000" font-family="KaTeX_Main" font-size="10" text-anchor="middle" transform="rotate(-90 57.63 46.13)"><tspan font-weight="bold">Average Path Length </tspan><tspan> / log</tspan><tspan dy="3" font-size="8">2</tspan><tspan dy="-3">(Size)</tspan></text><text stroke-linecap="round" stroke-linejoin="round" stroke-width="0" color="#000" font-family="KaTeX_Main" font-size="10" text-anchor="middle" transform="translate(199.99 195.75)"><tspan>Operations / 10</tspan><tspan dy="-5" font-size="8">6</tspan></text><text stroke-linecap="round" stroke-linejoin="round" color="#000" font-family="KaTeX_Main" font-size="8" transform="translate(71.2 10.11)"><tspan>RedBlackBottomUp</tspan></text><g fill="none" stroke="currentColor" stroke-linecap="round" stroke-linejoin="round" color="#000"><path stroke="#F44336" d="M35.7 7.51h29.9M28 102.24l.36-1.03.36-.98.37-.91.36-.81.36-.67.36-.52.36-.34.37-.15.36.04.36.22.36.39.37.53.36.65.36.73.36.78.36.79.37.76.36.69.36.6.36.49.36.36.37.21.36.06.36-.08.36-.21.36-.33.37-.43.36-.51.36-.56.36-.6.36-.61.37-.61.36-.58.36-.54.36-.49.37-.45.36-.39.36-.35.36-.31.36-.29.37-.26.36-.26.36-.27.36-.3.36-.32.37-.38.36-.42.36-.48.36-.54.36-.59.37-.65.36-.7.36-.73.36-.76.37-.78.36-.78.36-.77.36-.75.36-.71.37-.66.36-.61.36-.53.36-.46.36-.37.37-.28.36-.19.36-.09.36.01.36.11.37.21.36.3.36.4.36.47.37.56.36.64.36.69.36.76.36.79.37.84.36.86.36.87.36.88.36.86.37.85.36.82.36.77.36.73.36.67.37.61.36.54.36.45.36.38.36.3.37.2.36.12.36.04.36-.05.37-.13.36-.22.36-.29.36-.35.36-.42.37-.48.36-.53.36-.57.36-.61.36-.63.37-.65.36-.65.36-.66.36-.65.36-.64.37-.61.36-.59.36-.55.36-.51.37-.47.36-.42.36-.37.36-.32.36-.26.37-.21.36-.16.36-.11.36-.06.36-.01.37.03.36.07.36.1.36.13.36.15.37.17.36.17.36.18.36.18.36.18.37.15.36.14.36.12.36.08.37.06.36.01.36-.02.36-.07.36-.12.37-.16.36-.2.36-.26.36-.3.36-.35.37-.4.36-.44.36-.48.36-.51.36-.55.37-.58.36-.6.36-.62.36-.64.37-.65.36-.66.36-.66.36-.66.36-.65.37-.64.36-.62.36-.6.36-.58.36-.55.37-.53.36-.49.36-.46.36-.42.36-.39.37-.36.36-.31.36-.28.36-.25.36-.2.37-.18.36-.14.36-.1.36-.07.37-.04.36-.01.36.02.36.06.36.08.37.11.36.14.36.17.36.19.36.23.37.26.36.29.36.32.36.35.36.38.37.41.36.45.36.47.36.5.37.54.36.56.36.58.36.61.36.64.37.64.36.67.36.68.36.68.36.69.37.7.36.69.36.68.36.68.36.67.37.64.36.64.36.61.36.58.37.56.36.54.36.51.36.48.36.45.37.42.36.39.36.36.36.33.36.3.37.27.36.24.36.21.36.18.36.15.37.13.36.1.36.07.36.04.36.01.37-.01.36-.05.36-.07.36-.1.37-.13.36-.15.36-.19.36-.22.36-.24.37-.27.36-.3.36-.32.36-.35.36-.38.37-.4.36-.42.36-.44.36-.46.36-.48.37-.5.36-.5.36-.52.36-.53.37-.53.36-.54.36-.54.36-.53.36-.54.37-.53.36-.52.36-.52.36-.5.36-.49.37-.48.36-.46.36-.44.36-.43.36-.41.37-.38.36-.37.36-.35.36-.32.36-.31.37-.28.36-.26.36-.24.36-.21.37-.2.36-.17.36-.15.36-.14.36-.11.37-.08.36-.07.36-.05.36-.02.36-.01.37.02.36.03.36.06.36.07.36.1.37.12.36.13.36.15.36.17.37.19.36.21.36.21.36.24.36.24.37.25.36.27.36.27.36.28.36.28.37.28.36.29.36.28.36.28.36.27.37.27.36.25.36.25.36.24.36.22.37.21.36.2.36.18.36.16.37.15.36.13.36.11.36.09.36.08.37.05.36.04.36.02.36-.01.36-.02.37-.04.36-.06.36-.08.36-.1.36-.12.37-.14.36-.16.36-.18.36-.2.37-.22.36-.24.36-.26.36-.28.36-.3.37-.31.36-.34.36-.35.36-.37.36-.39.37-.4.36-.42.36-.43.36-.45.36-.46.37-.47.36-.47.36-.49.36-.49.37-.5.36-.5.36-.5.36-.5.36-.5.37-.5.36-.49.36-.49.36-.48.36-.48.37-.46.36-.46.36-.44.36-.43.36-.42.37-.4.36-.39.36-.37.36-.36.36-.35.37-.32.36-.31.36-.29.36-.28.37-.26.36-.24.36-.22.36-.21.36-.19.37-.17.36-.15.36-.14.36-.12.36-.1.37-.09.36-.07.36-.05.36-.04.36-.02.37-.01h.36l.36.02.36.04.37.04.36.05.36.07.36.07.36.08.37.09.36.09.36.1.36.1.36.1.37.1.36.1.36.1.36.1.36.09.37.09.36.09.36.08.36.07.36.07.37.06.36.06.36.05.36.04.37.04.36.04.36.04.36.03.36.03.37.04.36.04.36.04.36.05.36.06.37.07.36.08.36.1.36.11.36.13.37.15.36.17.36.19.36.22.37.24.36.27.36.3.36.33.36.35.37.39.36.41.36.44.36.47.36.49.37.52.36.54.36.56.36.58.36.59.37.61.36.62.36.63.36.63.37.63.36.63.36.63.36.62.36.6.37.6.36.57.36.56.36.54.36.51.37.49.36.47.36.43.36.41.36.38.37.35.36.33.36.3.36.26.36.25.37.21.36.2.36.17.36.15.37.13.36.12.36.1.36.08.36.08.37.06.36.06.36.05.36.04.36.04.37.04.36.04.36.05.36.04.36.05.37.05.36.05.36.06.36.06.37.07.36.07.36.08.36.09.36.08.37.09.36.09.36.1.36.09.36.1.37.09.36.09.36.09.36.09.36.08.37.08.36.07.36.06.36.05.36.05.37.04.36.02.36.02.36.01.37-.01.36-.01.36-.03.36-.04.36-.05.37-.06.36-.08.36-.09.36-.1.36-.11.37-.12.36-.14.36-.15.36-.16.36-.17.37-.19.36-.2.36-.21.36-.23.37-.23.36-.25.36-.27.36-.27.36-.29.37-.3.36-.31.36-.32.36-.34.36-.35.37-.35.36-.37.36-.37.36-.39.36-.39.37-.39.36-.41.36-.41.36-.41.36-.42.37-.41.36-.42.36-.42.36-.42.37-.42.36-.41.36-.41.36-.41.36-.4.37-.39.36-.39.36-.38.36-.37.36-.36.37-.35.36-.34.36-.34.36-.32.36-.31.37-.31.36-.29.36-.28.36-.26.37-.26.36-.25.36-.23.36-.23.36-.21.37-.2.36-.19.36-.17.36-.17.36-.15.37-.15.36-.13.36-.12.36-.11.36-.09.37-.09.36-.08.36-.06.36-.06.37-.05.36-.03.36-.03.36-.03.36-.01.37-.01.36-.01h1.08l.37.01h1.44l.37-.01.36-.01.36-.02.36-.02.36-.03.37-.03.36-.04.36-.05.36-.05.37-.06.36-.06.36-.06.36-.07.36-.08.37-.07.36-.07.36-.08.36-.07.36-.06.37-.06.36-.06.36-.04.36-.03.36-.03h.37l.36.01.36.02.36.05.37.06.36.09.36.11.36.13.36.16.37.19.36.21.36.23.36.26.36.29.37.31.36.33.36.36.36.37.36.4.37.4.36.42.36.43.36.43.36.43.37.44.36.43.36.42.36.42.37.4.36.39.36.36.36.35.36.33.37.3.36.27.36.25.36.23.36.19.37.17.36.15.36.12.36.09.36.07.37.05.36.03.36.01h.36l.37-.02.36-.04.36-.04.36-.06.36-.06.37-.07.36-.07.36-.07.36-.07.36-.07.37-.07.36-.07.36-.06.36-.05.36-.05.37-.04.36-.03.36-.03.36-.01.36-.01h.37l.36.01.36.02.36.03.37.03.36.03.36.04.36.04.36.04.37.04.36.05.36.03.36.04.36.02.37.03.36.01.36.01.36-.01.36-.01.37-.02.36-.03.36-.05.36-.05.37-.06.36-.07.36-.08.36-.09.36-.1.37-.11.36-.11.36-.13.36-.13.36-.13.37-.15.36-.15.36-.16.36-.17.36-.17.37-.19.36-.19.36-.21.36-.21.37-.22.36-.24.36-.24.36-.26.36-.27.37-.29.36-.29.36-.31.36-.32.36-.33.37-.35.36-.35.36-.37.36-.37.36-.39.37-.39.36-.4.36-.41.36-.41.36-.42.37-.41.36-.42.36-.42.36-.42.37-.41.36-.41.36-.4.36-.4.36-.39.37-.38.36-.38.36-.36.36-.36.36-.34.37-.33.36-.32.36-.32.36-.3.36-.29.37-.28.36-.27.36-.27.36-.25.37-.25.36-.24.36-.24.36-.22.36-.23.37-.21.36-.22.36-.2.36-.2.36-.2.37-.19.36-.18.36-.17.36-.16.36-.15.37-.13.36-.12.36-.11.36-.09.36-.07.37-.05.36-.04.36-.02.36-.01.37.01.36.02.36.03.36.03.36.04.37.04.36.03.36.03.36.02.36.01.37-.01.36-.03.36-.04.36-.06.36-.08.37-.1.36-.12.36-.13.36-.14.37-.16.36-.16.36-.17.36-.18.36-.18.37-.18.36-.18.36-.18.36-.18.36-.17.37-.18.36-.17.36-.17.36-.18.36-.17.37-.17.36-.16.36-.17.36-.15.36-.15.37-.14.36-.11.36-.1.36-.06.37-.02.36.03.36.08.36.15.36.21.37.29.36.37.36.46.36.53.36.6.37.67.36.72.36.75.36.78.36.77.37.74.36.71.36.65.36.57.37.48.36.39.36.29.36.19.36.11.37.03.36-.04.36-.1.36-.14.36-.18.37-.2.36-.2.36-.21.36-.2.36-.19.37-.16.36-.15.36-.13.36-.11.37-.1.36-.09.36-.09.36-.11.36-.13.37-.15.36-.18.36-.22.36-.24.36-.27.37-.27.36-.29.36-.28.36-.27.36-.26.37-.26.36-.25.36-.25.36-.27.36-.28.37-.29.36-.29.36-.27.36-.19.37-.03.36.23.36.67.36 1.19.36 1.65.37 1.6.36.75.36-.17"/><use xlink:href="#75f4b__b" color="#F44336" transform="matrix(3.75 0 0 3.75 353.89 61.49)"/><use xlink:href="#75f4b__b" color="#F44336" transform="matrix(3.75 0 0 3.75 50.65 7.51)"/></g><text stroke-linecap="round" stroke-linejoin="round" color="#000" font-family="KaTeX_Main" font-size="8" transform="translate(71.2 25.11)"><tspan>RedBlackTopDown</tspan></text><g fill="none" stroke="currentColor" stroke-linecap="round" stroke-linejoin="round" color="#000"><path stroke="#3B75EA" d="M35.7 22.51h29.9M28 139.13l.36.41.36.49.37.52.36.53.36.49.36.41.36.31.37.19.36.05.36-.08.36-.23.37-.35.36-.47.36-.57.36-.66.36-.7.37-.75.36-.76.36-.76.36-.75.36-.71.37-.68.36-.62.36-.59.36-.53.36-.49.37-.46.36-.44.36-.41.36-.41.36-.41.37-.43.36-.43.36-.45.36-.47.37-.48.36-.49.36-.49.36-.47.36-.45.37-.41.36-.35.36-.28.36-.21.36-.11.37-.01.36.1.36.19.36.31.36.4.37.49.36.56.36.63.36.68.37.7.36.71.36.7.36.68.36.64.37.58.36.52.36.44.36.35.36.27.37.19.36.09.36.02.36-.07.36-.14.37-.21.36-.27.36-.32.36-.37.37-.41.36-.44.36-.46.36-.48.36-.51.37-.51.36-.53.36-.53.36-.53.36-.55.37-.54.36-.54.36-.54.36-.54.36-.53.37-.52.36-.51.36-.49.36-.47.36-.45.37-.42.36-.39.36-.35.36-.32.37-.28.36-.24.36-.2.36-.15.36-.12.37-.09.36-.05.36-.03h.36l.36.02.37.02.36.04.36.03.36.02.36.02.37-.01.36-.02.36-.06.36-.08.37-.12.36-.14.36-.19.36-.22.36-.25.37-.29.36-.32.36-.35.36-.38.36-.41.37-.42.36-.44.36-.46.36-.46.36-.47.37-.47.36-.47.36-.46.36-.44.36-.43.37-.4.36-.38.36-.34.36-.3.37-.26.36-.21.36-.15.36-.1.36-.04.37.03.36.09.36.16.36.24.36.3.37.37.36.43.36.5.36.55.36.61.37.66.36.7.36.73.36.75.37.77.36.78.36.79.36.77.36.76.37.74.36.71.36.67.36.63.36.58.37.54.36.48.36.43.36.38.36.31.37.26.36.21.36.15.36.1.36.05h.37l.36-.04.36-.08.36-.13.37-.15.36-.19.36-.21.36-.24.36-.26.37-.28.36-.29.36-.31.36-.31.36-.32.37-.33.36-.32.36-.32.36-.32.36-.32.37-.3.36-.3.36-.29.36-.29.37-.27.36-.26.36-.24.36-.24.36-.23.37-.22.36-.21.36-.2.36-.2.36-.19.37-.2.36-.19.36-.19.36-.19.36-.2.37-.2.36-.22.36-.21.36-.23.37-.25.36-.25.36-.26.36-.28.36-.29.37-.3.36-.31.36-.32.36-.34.36-.34.37-.35.36-.35.36-.36.36-.36.36-.37.37-.36.36-.35.36-.35.36-.34.36-.33.37-.31.36-.3.36-.27.36-.26.37-.23.36-.21.36-.18.36-.15.36-.11.37-.09.36-.06.36-.02.36.01.36.04.37.07.36.1.36.13.36.16.36.18.37.21.36.22.36.24.36.25.37.26.36.26.36.27.36.27.36.26.37.25.36.25.36.23.36.21.36.19.37.17.36.15.36.12.36.1.36.07.37.04.36.01.36-.01.36-.04.36-.07.37-.09.36-.12.36-.14.36-.16.37-.19.36-.2.36-.23.36-.23.36-.26.37-.27.36-.27.36-.29.36-.3.36-.3.37-.31.36-.31.36-.31.36-.32.36-.31.37-.31.36-.31.36-.31.36-.31.37-.3.36-.3.36-.3.36-.29.36-.29.37-.28.36-.28.36-.28.36-.28.36-.27.37-.28.36-.27.36-.27.36-.28.36-.27.37-.28.36-.28.36-.28.36-.29.36-.28.37-.29.36-.3.36-.29.36-.3.37-.29.36-.3.36-.29.36-.29.36-.28.37-.28.36-.27.36-.26.36-.24.36-.23.37-.21.36-.19.36-.16.36-.13.36-.11.37-.07.36-.04.36.01.36.04.37.09.36.13.36.18.36.22.36.28.37.32.36.37.36.43.36.47.36.52.37.56.36.61.36.64.36.69.36.71.37.75.36.77.36.79.36.81.37.82.36.83.36.83.36.83.36.82.37.8.36.79.36.77.36.74.36.71.37.68.36.65.36.61.36.57.36.54.37.49.36.45.36.4.36.37.36.32.37.29.36.24.36.21.36.17.37.14.36.1.36.08.36.04.36.02h.37l.36-.03.36-.04.36-.07.36-.07.37-.1.36-.1.36-.11.36-.13.36-.13.37-.13.36-.14.36-.14.36-.15.37-.15.36-.15.36-.16.36-.15.36-.16.37-.15.36-.16.36-.16.36-.16.36-.17.37-.16.36-.17.36-.17.36-.18.36-.17.37-.19.36-.18.36-.19.36-.2.36-.2.37-.21.36-.21.36-.22.36-.22.37-.23.36-.23.36-.24.36-.24.36-.24.37-.25.36-.24.36-.25.36-.25.36-.24.37-.24.36-.24.36-.24.36-.23.36-.22.37-.22.36-.2.36-.2.36-.18.37-.18.36-.16.36-.14.36-.14.36-.12.37-.1.36-.09.36-.07.36-.06.36-.04.37-.03.36-.02h.36l.36.01.36.03.37.03.36.04.36.05.36.06.37.06.36.06.36.06.36.07.36.06.37.05.36.06.36.04.36.04.36.03.37.02.36.01h.36l.36-.02.36-.03.37-.04.36-.06.36-.07.36-.08.36-.1.37-.11.36-.13.36-.14.36-.15.37-.16.36-.18.36-.18.36-.19.36-.2.37-.21.36-.22.36-.22.36-.23.36-.23.37-.23.36-.24.36-.24.36-.24.36-.24.37-.24.36-.24.36-.24.36-.24.37-.24.36-.24.36-.24.36-.24.36-.23.37-.24.36-.24.36-.23.36-.24.36-.23.37-.24.36-.24.36-.23.36-.25.36-.24.37-.24.36-.25.36-.25.36-.25.36-.26.37-.25.36-.26.36-.26.36-.27.37-.26.36-.26.36-.27.36-.26.36-.26.37-.25.36-.25.36-.24.36-.24.36-.22.37-.22.36-.19.36-.19.36-.16.36-.15.37-.13.36-.1.36-.08.36-.05.37-.02h.36l.36.04.36.07.36.1.37.14.36.17.36.2.36.23.36.27.37.3.36.33.36.35.36.39.36.4.37.43.36.45.36.46.36.48.36.48.37.49.36.49.36.49.36.49.37.48.36.46.36.46.36.43.36.42.37.4.36.37.36.35.36.32.36.29.37.26.36.24.36.2.36.18.36.14.37.12.36.1.36.06.36.05.37.01h.36l.36-.02.36-.05.36-.06.37-.08.36-.09.36-.1.36-.12.36-.12.37-.13.36-.14.36-.15.36-.15.36-.16.37-.15.36-.16.36-.16.36-.16.37-.16.36-.17.36-.16.36-.16.36-.16.37-.16.36-.16.36-.16.36-.16.36-.16.37-.16.36-.16.36-.17.36-.17.36-.17.37-.17.36-.18.36-.18.36-.19.36-.19.37-.19.36-.2.36-.21.36-.21.37-.21.36-.22.36-.22.36-.23.36-.23.37-.24.36-.24.36-.24.36-.24.36-.24.37-.24.36-.24.36-.24.36-.24.36-.23.37-.23.36-.22.36-.21.36-.21.37-.2.36-.18.36-.18.36-.17.36-.15.37-.14.36-.13.36-.11.36-.1.36-.08.37-.07.36-.06.36-.04.36-.04.36-.02.37-.01h.36l.36.01.36.01.36.02.37.02.36.02.36.02.36.02.37.02.36.01.36.01.36-.01.36-.01.37-.02.36-.03.36-.05.36-.06.36-.07.37-.08.36-.1.36-.11.36-.12.36-.14.37-.15.36-.16.36-.17.36-.19.37-.19.36-.2.36-.21.36-.22.36-.22.37-.23.36-.23.36-.24.36-.24.36-.24.37-.24.36-.25.36-.24.36-.24.36-.24.37-.24.36-.24.36-.24.36-.23.36-.23.37-.23.36-.22.36-.22.36-.22.37-.21.36-.21.36-.22.36-.21.36-.21.37-.21.36-.21.36-.21.36-.21.36-.22.37-.22.36-.22.36-.23.36-.24.36-.23.37-.24.36-.25.36-.25.36-.26.37-.25.36-.26.36-.26.36-.27.36-.25.37-.26.36-.25.36-.24.36-.23.36-.22.37-.2.36-.18.36-.16.36-.12.36-.1.37-.05.36-.01.36.04.36.1.37.15.36.22.36.29.36.37.36.45.37.52.36.62.36.7.36.79.36.87.37.96.36 1.05.36 1.11.36 1.19.36 1.25.37 1.31.36 1.34.36 1.38.36 1.41.36 1.4.37 1.41.36 1.39.36 1.36.36 1.33.37 1.27.36 1.22.36 1.14.36 1.08.36.99.37.92.36.83.36.74.36.67.36.58.37.5.36.42.36.36.36.29.36.23.37.18.36.13.36.08.36.05.37.02.36-.01.36-.04.36-.05.36-.08.37-.08.36-.1.36-.11.36-.11.36-.12.37-.12.36-.13.36-.13.36-.12.36-.13.37-.12.36-.12.36-.11.36-.11.36-.1.37-.09.36-.09.36-.08.36-.07.37-.06.36-.06.36-.05.36-.05.36-.04.37-.05.36-.04.36-.05.36-.05.36-.06.37-.06.36-.08.36-.08.36-.09.36-.11.37-.11.36-.13.36-.13.36-.15.37-.15.36-.16.36-.17.36-.18.36-.18.37-.18.36-.19.36-.19.36-.19.36-.2.37-.19.36-.2.36-.2.36-.21.36-.2.37-.21.36-.21.36-.21.36-.21.36-.21.37-.21.36-.2.36-.2.36-.18.37-.16.36-.14.36-.12.36-.08.36-.05.37-.01.36.03.36.07.36.12.36.15.37.2.36.24.36.25.36.28.36.29.37.28.36.28.36.25.36.22.37.18.36.15.36.09.36.06.36.01.37-.04.36-.07.36-.1.36-.12.36-.15.37-.16.36-.18.36-.17.36-.18.36-.18.37-.18.36-.16.36-.16.36-.15.37-.15.36-.14.36-.14.36-.15.36-.16.37-.17.36-.19.36-.21.36-.22.36-.24.37-.26.36-.26.36-.27.36-.27.36-.27.37-.27.36-.27.36-.28.36-.3.36-.3.37-.33.36-.33.36-.33.36-.3.37-.23.36-.1.36.12.36.42.36.69.37.73.36.34.36-.11"/><use xlink:href="#75f4b__c" color="#3B75EA" transform="matrix(3.75 0 0 3.75 67.83 120.43)"/><use xlink:href="#75f4b__c" color="#3B75EA" transform="matrix(3.75 0 0 3.75 50.65 22.51)"/></g><text stroke-linecap="round" stroke-linejoin="round" color="#000" font-family="KaTeX_Main" font-size="8" transform="translate(241.1 10.11)"><tspan>RedBlackRelaxedBottomUp</tspan></text><g fill="none" stroke="currentColor" stroke-linecap="round" stroke-linejoin="round" color="#000"><path stroke="#EC6F1A" stroke-dasharray="1.0,2.0" d="M205.6 7.51h29.9M28 102.24l.36-1.03.36-.98.37-.91.36-.81.36-.67.36-.52.36-.34.37-.15.36.04.36.22.36.39.37.53.36.65.36.73.36.78.36.79.37.76.36.69.36.6.36.49.36.36.37.21.36.06.36-.08.36-.21.36-.33.37-.43.36-.51.36-.56.36-.6.36-.61.37-.61.36-.58.36-.54.36-.49.37-.45.36-.39.36-.35.36-.31.36-.29.37-.26.36-.26.36-.27.36-.3.36-.32.37-.38.36-.42.36-.48.36-.54.36-.59.37-.65.36-.7.36-.73.36-.76.37-.78.36-.78.36-.77.36-.75.36-.71.37-.66.36-.61.36-.53.36-.46.36-.37.37-.28.36-.19.36-.09.36.01.36.11.37.21.36.3.36.4.36.47.37.56.36.64.36.69.36.76.36.79.37.84.36.86.36.87.36.88.36.86.37.85.36.82.36.77.36.73.36.67.37.61.36.54.36.45.36.38.36.3.37.2.36.12.36.04.36-.05.37-.13.36-.22.36-.29.36-.35.36-.42.37-.48.36-.53.36-.57.36-.61.36-.63.37-.65.36-.65.36-.66.36-.65.36-.64.37-.61.36-.59.36-.55.36-.51.37-.47.36-.42.36-.37.36-.32.36-.26.37-.21.36-.16.36-.11.36-.06.36-.01.37.03.36.07.36.1.36.13.36.15.37.17.36.17.36.18.36.18.36.18.37.15.36.14.36.12.36.08.37.06.36.01.36-.02.36-.07.36-.12.37-.16.36-.2.36-.26.36-.3.36-.35.37-.4.36-.44.36-.48.36-.51.36-.55.37-.58.36-.6.36-.62.36-.64.37-.65.36-.66.36-.66.36-.66.36-.65.37-.64.36-.62.36-.6.36-.58.36-.55.37-.53.36-.49.36-.46.36-.42.36-.39.37-.36.36-.31.36-.28.36-.25.36-.2.37-.18.36-.14.36-.1.36-.07.37-.04.36-.01.36.02.36.06.36.08.37.11.36.14.36.17.36.19.36.23.37.26.36.29.36.32.36.35.36.38.37.41.36.45.36.47.36.5.37.54.36.56.36.58.36.61.36.64.37.64.36.67.36.68.36.68.36.69.37.7.36.69.36.68.36.68.36.67.37.64.36.64.36.61.36.58.37.56.36.54.36.51.36.48.36.45.37.42.36.39.36.36.36.33.36.3.37.27.36.24.36.21.36.18.36.15.37.13.36.1.36.07.36.04.36.01.37-.01.36-.05.36-.07.36-.1.37-.13.36-.15.36-.19.36-.22.36-.24.37-.27.36-.3.36-.32.36-.35.36-.38.37-.4.36-.42.36-.44.36-.46.36-.48.37-.5.36-.5.36-.52.36-.53.37-.53.36-.54.36-.54.36-.53.36-.54.37-.53.36-.52.36-.52.36-.5.36-.49.37-.48.36-.46.36-.44.36-.43.36-.41.37-.38.36-.37.36-.35.36-.32.36-.31.37-.28.36-.26.36-.24.36-.21.37-.2.36-.17.36-.15.36-.14.36-.11.37-.08.36-.07.36-.05.36-.02.36-.01.37.02.36.03.36.06.36.07.36.1.37.12.36.13.36.15.36.17.37.19.36.21.36.21.36.24.36.24.37.25.36.27.36.27.36.28.36.28.37.28.36.29.36.28.36.28.36.27.37.27.36.25.36.25.36.24.36.22.37.21.36.2.36.18.36.16.37.15.36.13.36.11.36.09.36.08.37.05.36.04.36.02.36-.01.36-.02.37-.04.36-.06.36-.08.36-.1.36-.12.37-.14.36-.16.36-.18.36-.2.37-.22.36-.24.36-.26.36-.28.36-.3.37-.31.36-.34.36-.35.36-.37.36-.39.37-.4.36-.42.36-.43.36-.45.36-.46.37-.47.36-.47.36-.49.36-.49.37-.5.36-.5.36-.5.36-.5.36-.5.37-.5.36-.49.36-.49.36-.48.36-.48.37-.46.36-.46.36-.44.36-.43.36-.42.37-.4.36-.39.36-.37.36-.36.36-.35.37-.32.36-.31.36-.29.36-.28.37-.26.36-.24.36-.22.36-.21.36-.19.37-.17.36-.15.36-.14.36-.12.36-.1.37-.09.36-.07.36-.05.36-.04.36-.02.37-.01h.36l.36.02.36.04.37.04.36.05.36.07.36.07.36.08.37.09.36.09.36.1.36.1.36.1.37.1.36.1.36.1.36.1.36.09.37.09.36.09.36.08.36.07.36.07.37.06.36.06.36.05.36.04.37.04.36.04.36.04.36.03.36.03.37.04.36.04.36.04.36.05.36.06.37.07.36.08.36.1.36.11.36.13.37.15.36.17.36.19.36.22.37.24.36.27.36.3.36.33.36.35.37.39.36.41.36.44.36.47.36.49.37.52.36.54.36.56.36.58.36.59.37.61.36.62.36.63.36.63.37.63.36.63.36.63.36.62.36.6.37.6.36.57.36.56.36.54.36.51.37.49.36.47.36.43.36.41.36.38.37.35.36.33.36.3.36.26.36.25.37.21.36.2.36.17.36.15.37.13.36.12.36.1.36.08.36.08.37.06.36.06.36.05.36.04.36.04.37.04.36.04.36.05.36.04.36.05.37.05.36.05.36.06.36.06.37.07.36.07.36.08.36.09.36.08.37.09.36.09.36.1.36.09.36.1.37.09.36.09.36.09.36.09.36.08.37.08.36.07.36.06.36.05.36.05.37.04.36.02.36.02.36.01.37-.01.36-.01.36-.03.36-.04.36-.05.37-.06.36-.08.36-.09.36-.1.36-.11.37-.12.36-.14.36-.15.36-.16.36-.17.37-.19.36-.2.36-.21.36-.23.37-.23.36-.25.36-.27.36-.27.36-.29.37-.3.36-.31.36-.32.36-.34.36-.35.37-.35.36-.37.36-.37.36-.39.36-.39.37-.39.36-.41.36-.41.36-.41.36-.42.37-.41.36-.42.36-.42.36-.42.37-.42.36-.41.36-.41.36-.41.36-.4.37-.39.36-.39.36-.38.36-.37.36-.36.37-.35.36-.34.36-.34.36-.32.36-.31.37-.31.36-.29.36-.28.36-.26.37-.26.36-.25.36-.23.36-.23.36-.21.37-.2.36-.19.36-.17.36-.17.36-.15.37-.15.36-.13.36-.12.36-.11.36-.09.37-.09.36-.08.36-.06.36-.06.37-.05.36-.03.36-.03.36-.03.36-.01.37-.01.36-.01h1.08l.37.01h1.44l.37-.01.36-.01.36-.02.36-.02.36-.03.37-.03.36-.04.36-.05.36-.05.37-.06.36-.06.36-.06.36-.07.36-.08.37-.07.36-.07.36-.08.36-.07.36-.06.37-.06.36-.06.36-.04.36-.03.36-.03h.37l.36.01.36.02.36.05.37.06.36.09.36.11.36.13.36.16.37.19.36.21.36.23.36.26.36.29.37.31.36.33.36.36.36.37.36.4.37.4.36.42.36.43.36.43.36.43.37.44.36.43.36.42.36.42.37.4.36.39.36.36.36.35.36.33.37.3.36.27.36.25.36.23.36.19.37.17.36.15.36.12.36.09.36.07.37.05.36.03.36.01h.36l.37-.02.36-.04.36-.04.36-.06.36-.06.37-.07.36-.07.36-.07.36-.07.36-.07.37-.07.36-.07.36-.06.36-.05.36-.05.37-.04.36-.03.36-.03.36-.01.36-.01h.37l.36.01.36.02.36.03.37.03.36.03.36.04.36.04.36.04.37.04.36.05.36.03.36.04.36.02.37.03.36.01.36.01.36-.01.36-.01.37-.02.36-.03.36-.05.36-.05.37-.06.36-.07.36-.08.36-.09.36-.1.37-.11.36-.11.36-.13.36-.13.36-.13.37-.15.36-.15.36-.16.36-.17.36-.17.37-.19.36-.19.36-.21.36-.21.37-.22.36-.24.36-.24.36-.26.36-.27.37-.29.36-.29.36-.31.36-.32.36-.33.37-.35.36-.35.36-.37.36-.37.36-.39.37-.39.36-.4.36-.41.36-.41.36-.42.37-.41.36-.42.36-.42.36-.42.37-.41.36-.41.36-.4.36-.4.36-.39.37-.38.36-.38.36-.36.36-.36.36-.34.37-.33.36-.32.36-.32.36-.3.36-.29.37-.28.36-.27.36-.27.36-.25.37-.25.36-.24.36-.24.36-.22.36-.23.37-.21.36-.22.36-.2.36-.2.36-.2.37-.19.36-.18.36-.17.36-.16.36-.15.37-.13.36-.12.36-.11.36-.09.36-.07.37-.05.36-.04.36-.02.36-.01.37.01.36.02.36.03.36.03.36.04.37.04.36.03.36.03.36.02.36.01.37-.01.36-.03.36-.04.36-.06.36-.08.37-.1.36-.12.36-.13.36-.14.37-.16.36-.16.36-.17.36-.18.36-.18.37-.18.36-.18.36-.18.36-.18.36-.17.37-.18.36-.17.36-.17.36-.18.36-.17.37-.17.36-.16.36-.17.36-.15.36-.15.37-.14.36-.11.36-.1.36-.06.37-.02.36.03.36.08.36.15.36.21.37.29.36.37.36.46.36.53.36.6.37.67.36.72.36.75.36.78.36.77.37.74.36.71.36.65.36.57.37.48.36.39.36.29.36.19.36.11.37.03.36-.04.36-.1.36-.14.36-.18.37-.2.36-.2.36-.21.36-.2.36-.19.37-.16.36-.15.36-.13.36-.11.37-.1.36-.09.36-.09.36-.11.36-.13.37-.15.36-.18.36-.22.36-.24.36-.27.37-.27.36-.29.36-.28.36-.27.36-.26.37-.26.36-.25.36-.25.36-.27.36-.28.37-.29.36-.29.36-.27.36-.19.37-.03.36.23.36.67.36 1.19.36 1.65.37 1.6.36.75.36-.17"/><use xlink:href="#75f4b__a" color="#EC6F1A" transform="matrix(3.75 0 0 3.75 125.4 84.46)"/><use xlink:href="#75f4b__a" color="#EC6F1A" transform="matrix(3.75 0 0 3.75 220.55 7.51)"/></g><text stroke-linecap="round" stroke-linejoin="round" color="#000" font-family="KaTeX_Main" font-size="8" transform="translate(241.1 25.11)"><tspan>RedBlackRelaxedTopDown</tspan></text><g fill="none" stroke="currentColor" stroke-linecap="round" stroke-linejoin="round" color="#000"><path stroke="violet" stroke-dasharray="4.0,2.0,1.0,2.0" d="M205.6 22.51h29.9M28 139.13l.36.41.36.49.37.52.36.53.36.49.36.41.36.31.37.19.36.05.36-.08.36-.23.37-.35.36-.47.36-.57.36-.66.36-.7.37-.75.36-.76.36-.76.36-.75.36-.71.37-.68.36-.62.36-.59.36-.53.36-.49.37-.46.36-.44.36-.41.36-.41.36-.41.37-.43.36-.43.36-.45.36-.47.37-.48.36-.49.36-.49.36-.47.36-.45.37-.41.36-.35.36-.28.36-.21.36-.11.37-.01.36.1.36.19.36.31.36.4.37.49.36.56.36.63.36.68.37.7.36.71.36.7.36.68.36.64.37.58.36.52.36.44.36.35.36.27.37.19.36.09.36.02.36-.07.36-.14.37-.21.36-.27.36-.32.36-.37.37-.41.36-.44.36-.46.36-.48.36-.51.37-.51.36-.53.36-.53.36-.53.36-.55.37-.54.36-.54.36-.54.36-.54.36-.53.37-.52.36-.51.36-.49.36-.47.36-.45.37-.42.36-.39.36-.35.36-.32.37-.28.36-.24.36-.2.36-.15.36-.12.37-.09.36-.05.36-.03h.36l.36.02.37.02.36.04.36.03.36.02.36.02.37-.01.36-.02.36-.06.36-.08.37-.12.36-.14.36-.19.36-.22.36-.25.37-.29.36-.32.36-.35.36-.38.36-.41.37-.42.36-.44.36-.46.36-.46.36-.47.37-.47.36-.47.36-.46.36-.44.36-.43.37-.4.36-.38.36-.34.36-.3.37-.26.36-.21.36-.15.36-.1.36-.04.37.03.36.09.36.16.36.24.36.3.37.37.36.43.36.5.36.55.36.61.37.66.36.7.36.73.36.75.37.77.36.78.36.79.36.77.36.76.37.74.36.71.36.67.36.63.36.58.37.54.36.48.36.43.36.38.36.31.37.26.36.21.36.15.36.1.36.05h.37l.36-.04.36-.08.36-.13.37-.15.36-.19.36-.21.36-.24.36-.26.37-.28.36-.29.36-.31.36-.31.36-.32.37-.33.36-.32.36-.32.36-.32.36-.32.37-.3.36-.3.36-.29.36-.29.37-.27.36-.26.36-.24.36-.24.36-.23.37-.22.36-.21.36-.2.36-.2.36-.19.37-.2.36-.19.36-.19.36-.19.36-.2.37-.2.36-.22.36-.21.36-.23.37-.25.36-.25.36-.26.36-.28.36-.29.37-.3.36-.31.36-.32.36-.34.36-.34.37-.35.36-.35.36-.36.36-.36.36-.37.37-.36.36-.35.36-.35.36-.34.36-.33.37-.31.36-.3.36-.27.36-.26.37-.23.36-.21.36-.18.36-.15.36-.11.37-.09.36-.06.36-.02.36.01.36.04.37.07.36.1.36.13.36.16.36.18.37.21.36.22.36.24.36.25.37.26.36.26.36.27.36.27.36.26.37.25.36.25.36.23.36.21.36.19.37.17.36.15.36.12.36.1.36.07.37.04.36.01.36-.01.36-.04.36-.07.37-.09.36-.12.36-.14.36-.16.37-.19.36-.2.36-.23.36-.23.36-.26.37-.27.36-.27.36-.29.36-.3.36-.3.37-.31.36-.31.36-.31.36-.32.36-.31.37-.31.36-.31.36-.31.36-.31.37-.3.36-.3.36-.3.36-.29.36-.29.37-.28.36-.28.36-.28.36-.28.36-.27.37-.28.36-.27.36-.27.36-.28.36-.27.37-.28.36-.28.36-.28.36-.29.36-.28.37-.29.36-.3.36-.29.36-.3.37-.29.36-.3.36-.29.36-.29.36-.28.37-.28.36-.27.36-.26.36-.24.36-.23.37-.21.36-.19.36-.16.36-.13.36-.11.37-.07.36-.04.36.01.36.04.37.09.36.13.36.18.36.22.36.28.37.32.36.37.36.43.36.47.36.52.37.56.36.61.36.64.36.69.36.71.37.75.36.77.36.79.36.81.37.82.36.83.36.83.36.83.36.82.37.8.36.79.36.77.36.74.36.71.37.68.36.65.36.61.36.57.36.54.37.49.36.45.36.4.36.37.36.32.37.29.36.24.36.21.36.17.37.14.36.1.36.08.36.04.36.02h.37l.36-.03.36-.04.36-.07.36-.07.37-.1.36-.1.36-.11.36-.13.36-.13.37-.13.36-.14.36-.14.36-.15.37-.15.36-.15.36-.16.36-.15.36-.16.37-.15.36-.16.36-.16.36-.16.36-.17.37-.16.36-.17.36-.17.36-.18.36-.17.37-.19.36-.18.36-.19.36-.2.36-.2.37-.21.36-.21.36-.22.36-.22.37-.23.36-.23.36-.24.36-.24.36-.24.37-.25.36-.24.36-.25.36-.25.36-.24.37-.24.36-.24.36-.24.36-.23.36-.22.37-.22.36-.2.36-.2.36-.18.37-.18.36-.16.36-.14.36-.14.36-.12.37-.1.36-.09.36-.07.36-.06.36-.04.37-.03.36-.02h.36l.36.01.36.03.37.03.36.04.36.05.36.06.37.06.36.06.36.06.36.07.36.06.37.05.36.06.36.04.36.04.36.03.37.02.36.01h.36l.36-.02.36-.03.37-.04.36-.06.36-.07.36-.08.36-.1.37-.11.36-.13.36-.14.36-.15.37-.16.36-.18.36-.18.36-.19.36-.2.37-.21.36-.22.36-.22.36-.23.36-.23.37-.23.36-.24.36-.24.36-.24.36-.24.37-.24.36-.24.36-.24.36-.24.37-.24.36-.24.36-.24.36-.24.36-.23.37-.24.36-.24.36-.23.36-.24.36-.23.37-.24.36-.24.36-.23.36-.25.36-.24.37-.24.36-.25.36-.25.36-.25.36-.26.37-.25.36-.26.36-.26.36-.27.37-.26.36-.26.36-.27.36-.26.36-.26.37-.25.36-.25.36-.24.36-.24.36-.22.37-.22.36-.19.36-.19.36-.16.36-.15.37-.13.36-.1.36-.08.36-.05.37-.02h.36l.36.04.36.07.36.1.37.14.36.17.36.2.36.23.36.27.37.3.36.33.36.35.36.39.36.4.37.43.36.45.36.46.36.48.36.48.37.49.36.49.36.49.36.49.37.48.36.46.36.46.36.43.36.42.37.4.36.37.36.35.36.32.36.29.37.26.36.24.36.2.36.18.36.14.37.12.36.1.36.06.36.05.37.01h.36l.36-.02.36-.05.36-.06.37-.08.36-.09.36-.1.36-.12.36-.12.37-.13.36-.14.36-.15.36-.15.36-.16.37-.15.36-.16.36-.16.36-.16.37-.16.36-.17.36-.16.36-.16.36-.16.37-.16.36-.16.36-.16.36-.16.36-.16.37-.16.36-.16.36-.17.36-.17.36-.17.37-.17.36-.18.36-.18.36-.19.36-.19.37-.19.36-.2.36-.21.36-.21.37-.21.36-.22.36-.22.36-.23.36-.23.37-.24.36-.24.36-.24.36-.24.36-.24.37-.24.36-.24.36-.24.36-.24.36-.23.37-.23.36-.22.36-.21.36-.21.37-.2.36-.18.36-.18.36-.17.36-.15.37-.14.36-.13.36-.11.36-.1.36-.08.37-.07.36-.06.36-.04.36-.04.36-.02.37-.01h.36l.36.01.36.01.36.02.37.02.36.02.36.02.36.02.37.02.36.01.36.01.36-.01.36-.01.37-.02.36-.03.36-.05.36-.06.36-.07.37-.08.36-.1.36-.11.36-.12.36-.14.37-.15.36-.16.36-.17.36-.19.37-.19.36-.2.36-.21.36-.22.36-.22.37-.23.36-.23.36-.24.36-.24.36-.24.37-.24.36-.25.36-.24.36-.24.36-.24.37-.24.36-.24.36-.24.36-.23.36-.23.37-.23.36-.22.36-.22.36-.22.37-.21.36-.21.36-.22.36-.21.36-.21.37-.21.36-.21.36-.21.36-.21.36-.22.37-.22.36-.22.36-.23.36-.24.36-.23.37-.24.36-.25.36-.25.36-.26.37-.25.36-.26.36-.26.36-.27.36-.25.37-.26.36-.25.36-.24.36-.23.36-.22.37-.2.36-.18.36-.16.36-.12.36-.1.37-.05.36-.01.36.04.36.1.37.15.36.22.36.29.36.37.36.45.37.52.36.62.36.7.36.79.36.87.37.96.36 1.05.36 1.11.36 1.19.36 1.25.37 1.31.36 1.34.36 1.38.36 1.41.36 1.4.37 1.41.36 1.39.36 1.36.36 1.33.37 1.27.36 1.22.36 1.14.36 1.08.36.99.37.92.36.83.36.74.36.67.36.58.37.5.36.42.36.36.36.29.36.23.37.18.36.13.36.08.36.05.37.02.36-.01.36-.04.36-.05.36-.08.37-.08.36-.1.36-.11.36-.11.36-.12.37-.12.36-.13.36-.13.36-.12.36-.13.37-.12.36-.12.36-.11.36-.11.36-.1.37-.09.36-.09.36-.08.36-.07.37-.06.36-.06.36-.05.36-.05.36-.04.37-.05.36-.04.36-.05.36-.05.36-.06.37-.06.36-.08.36-.08.36-.09.36-.11.37-.11.36-.13.36-.13.36-.15.37-.15.36-.16.36-.17.36-.18.36-.18.37-.18.36-.19.36-.19.36-.19.36-.2.37-.19.36-.2.36-.2.36-.21.36-.2.37-.21.36-.21.36-.21.36-.21.36-.21.37-.21.36-.2.36-.2.36-.18.37-.16.36-.14.36-.12.36-.08.36-.05.37-.01.36.03.36.07.36.12.36.15.37.2.36.24.36.25.36.28.36.29.37.28.36.28.36.25.36.22.37.18.36.15.36.09.36.06.36.01.37-.04.36-.07.36-.1.36-.12.36-.15.37-.16.36-.18.36-.17.36-.18.36-.18.37-.18.36-.16.36-.16.36-.15.37-.15.36-.14.36-.14.36-.15.36-.16.37-.17.36-.19.36-.21.36-.22.36-.24.37-.26.36-.26.36-.27.36-.27.36-.27.37-.27.36-.27.36-.28.36-.3.36-.3.37-.33.36-.33.36-.33.36-.3.37-.23.36-.1.36.12.36.42.36.69.37.73.36.34.36-.11"/><use xlink:href="#75f4b__d" color="violet" transform="matrix(3.75 0 0 3.75 182.98 116.85)"/><use xlink:href="#75f4b__d" color="violet" transform="matrix(3.75 0 0 3.75 220.55 22.51)"/></g><path fill="none" d="M28 45.01V162.5M371.99 45.01H28" color="#000"/></svg>