<svg xmlns="http://www.w3.org/2000/svg" xmlns:xlink="http://www.w3.org/1999/xlink" viewBox="0 0 400 200"><path fill="none" d="M0 0h400v200H0z"/><defs><path id="1a423__b" stroke="currentColor" stroke-width=".267" d="M-1 0h2M0-1v2"/><path id="1a423__c" stroke="currentColor" stroke-width=".267" d="m-1-1 2 2m0-2-2 2"/><path id="1a423__d" stroke="currentColor" stroke-width=".267" d="M-1 0h2M0-1v2m-1-2 2 2m-2 0 2-2"/><path id="1a423__a" stroke="currentColor" stroke-width=".267" d="M0 1.33 1.265.411.782-1.067l-1.564-.009-.483 1.487z"/></defs><path fill="none" stroke="#CCC" stroke-linecap="round" stroke-linejoin="round" stroke-width=".1" d="M46.1 162.5V45.01" class="1a423__gridline" color="#000"/><g fill="none" stroke-linecap="round" stroke-linejoin="round" stroke-width="0" color="#000"><path d="M46.1 162.5V155m0-109.99v7.5"/><text fill="#000" font-family="KaTeX_Main" font-size="8" text-anchor="middle" transform="translate(46.1 172.6)"><tspan> 1</tspan></text></g><path fill="none" stroke="#CCC" stroke-linecap="round" stroke-linejoin="round" stroke-width=".1" d="M82.31 162.5V45.01" class="1a423__gridline" color="#000"/><g fill="none" stroke-linecap="round" stroke-linejoin="round" stroke-width="0" color="#000"><path d="M82.31 162.5V155m0-109.99v7.5"/><text fill="#000" font-family="KaTeX_Main" font-size="8" text-anchor="middle" transform="translate(82.31 172.6)"><tspan> 2</tspan></text></g><path fill="none" stroke="#CCC" stroke-linecap="round" stroke-linejoin="round" stroke-width=".1" d="M118.52 162.5V45.01" class="1a423__gridline" color="#000"/><g fill="none" stroke-linecap="round" stroke-linejoin="round" stroke-width="0" color="#000"><path d="M118.52 162.5V155m0-109.99v7.5"/><text fill="#000" font-family="KaTeX_Main" font-size="8" text-anchor="middle" transform="translate(118.52 172.6)"><tspan> 3</tspan></text></g><path fill="none" stroke="#CCC" stroke-linecap="round" stroke-linejoin="round" stroke-width=".1" d="M154.73 162.5V45.01" class="1a423__gridline" color="#000"/><g fill="none" stroke-linecap="round" stroke-linejoin="round" stroke-width="0" color="#000"><path d="M154.73 162.5V155m0-109.99v7.5"/><text fill="#000" font-family="KaTeX_Main" font-size="8" text-anchor="middle" transform="translate(154.73 172.6)"><tspan> 4</tspan></text></g><path fill="none" stroke="#CCC" stroke-linecap="round" stroke-linejoin="round" stroke-width=".1" d="M190.94 162.5V45.01" class="1a423__gridline" color="#000"/><g fill="none" stroke-linecap="round" stroke-linejoin="round" stroke-width="0" color="#000"><path d="M190.94 162.5V155m0-109.99v7.5"/><text fill="#000" font-family="KaTeX_Main" font-size="8" text-anchor="middle" transform="translate(190.94 172.6)"><tspan> 5</tspan></text></g><path fill="none" stroke="#CCC" stroke-linecap="round" stroke-linejoin="round" stroke-width=".1" d="M227.15 162.5V45.01" class="1a423__gridline" color="#000"/><g fill="none" stroke-linecap="round" stroke-linejoin="round" stroke-width="0" color="#000"><path d="M227.15 162.5V155m0-109.99v7.5"/><text fill="#000" font-family="KaTeX_Main" font-size="8" text-anchor="middle" transform="translate(227.15 172.6)"><tspan> 6</tspan></text></g><path fill="none" stroke="#CCC" stroke-linecap="round" stroke-linejoin="round" stroke-width=".1" d="M263.36 162.5V45.01" class="1a423__gridline" color="#000"/><g fill="none" stroke-linecap="round" stroke-linejoin="round" stroke-width="0" color="#000"><path d="M263.36 162.5V155m0-109.99v7.5"/><text fill="#000" font-family="KaTeX_Main" font-size="8" text-anchor="middle" transform="translate(263.36 172.6)"><tspan> 7</tspan></text></g><path fill="none" stroke="#CCC" stroke-linecap="round" stroke-linejoin="round" stroke-width=".1" d="M299.57 162.5V45.01" class="1a423__gridline" color="#000"/><g fill="none" stroke-linecap="round" stroke-linejoin="round" stroke-width="0" color="#000"><path d="M299.57 162.5V155m0-109.99v7.5"/><text fill="#000" font-family="KaTeX_Main" font-size="8" text-anchor="middle" transform="translate(299.57 172.6)"><tspan> 8</tspan></text></g><path fill="none" stroke="#CCC" stroke-linecap="round" stroke-linejoin="round" stroke-width=".1" d="M335.78 162.5V45.01" class="1a423__gridline" color="#000"/><g fill="none" stroke-linecap="round" stroke-linejoin="round" stroke-width="0" color="#000"><path d="M335.78 162.5V155m0-109.99v7.5"/><text fill="#000" font-family="KaTeX_Main" font-size="8" text-anchor="middle" transform="translate(335.78 172.6)"><tspan> 9</tspan></text></g><path fill="none" stroke="#CCC" stroke-linecap="round" stroke-linejoin="round" stroke-width=".1" d="M371.99 162.5V45.01" class="1a423__gridline" color="#000"/><g fill="none" stroke-linecap="round" stroke-linejoin="round" stroke-width="0" color="#000"><path d="M371.99 162.5V155m0-109.99v7.5"/><text fill="#000" font-family="KaTeX_Main" font-size="8" text-anchor="middle" transform="translate(371.99 172.6)"><tspan> 10</tspan></text></g><g fill="none" stroke-linecap="round" stroke-linejoin="round" stroke-width="0" color="#000"><path d="M371.99 162.5h-7.5"/><text fill="#000" font-family="KaTeX_Main" font-size="8" transform="translate(378.99 165.1)"><tspan>0</tspan></text></g><g fill="none" stroke-linecap="round" stroke-linejoin="round" stroke-width="0" color="#000"><path d="M371.99 103.75h-7.5"/><text fill="#000" font-family="KaTeX_Main" font-size="8" transform="translate(378.99 106.35)"><tspan>1</tspan></text></g><g fill="none" stroke-linecap="round" stroke-linejoin="round" stroke-width="0" color="#000"><path d="M371.99 45.01h-7.5"/><text fill="#000" font-family="KaTeX_Main" font-size="8" transform="translate(378.99 47.61)"><tspan>2</tspan></text></g><path fill="none" d="M28 45.01V162.5M371.99 45.01H28" color="#000"/><text stroke-linecap="round" stroke-linejoin="round" stroke-width="0" color="#000" font-family="KaTeX_Main" font-size="10" text-anchor="middle" transform="rotate(-90 57.63 46.13)"><tspan>log</tspan><tspan dy="3" font-size="8">2</tspan><tspan dy="-3">(</tspan><tspan font-weight="bold">Average Path Length </tspan><tspan> / log</tspan><tspan dy="3" font-size="8">2</tspan><tspan dy="-3">(Size))</tspan></text><text stroke-linecap="round" stroke-linejoin="round" stroke-width="0" color="#000" font-family="KaTeX_Main" font-size="10" text-anchor="middle" transform="translate(199.99 195.75)"><tspan>Operations / 10</tspan><tspan dy="-5" font-size="8">6</tspan></text><text stroke-linecap="round" stroke-linejoin="round" color="#000" font-family="KaTeX_Main" font-size="8" transform="translate(116 10.11)"><tspan>TreapTopDown</tspan></text><g fill="none" stroke="currentColor" stroke-linecap="round" stroke-linejoin="round" color="#000"><path stroke="#00C853" stroke-dasharray="4.5,2.0,0.5,2.0,0.5,2.0" d="M80.5 7.51h29.9M28 141.59l.36.54.36.14.37.47.36.34.36.07.36.12.36-.12.37.42.36.26.36.17.36.04.37-.04.36.11.36-.01.36-.05.36.16.37.09.36.1.36.08.36-.39.36.21.37-.89.36.31.36.28.36.16.36.19.37-.05.36.21.36-1.68.36.37.36.26.37.18.36.12.36.25.36.22.37.07.36-.07.36.08.36.19.36-.06.37.2.36.17.36.06.36-1.88.36.3.37.15.36.24.36.23.36-3.03.36.3.37.25.36.16.36.26.36.16.37.21.36.16.36.05.36.03.36.14.37-.08.36.2.36-.12.36.26.36.24.37.15.36-.02.36.05.36.16.36.15.37-.32.36.19.36.17.36.03.37.2.36.2.36.12.36.01.36.11h.37l.36.09h.36l.36.12.36.11.37.04.36.13.36.08.36.08.36.05.37.03.36.01.36-.11.36.1.36.02.37.03.36-.38.36.04.36.16.37.11.36-.9.36.15.36.16.36.11.37.12.36.03.36.08.36.07.36.11.37.07.36-1.21.36.19.36.11.36.14.37.13.36.11.36.09.36.07.37.03.36.05.36.05h.36l.36.11.37.11.36.04.36.1.36.07.36-.28.37.16.36.11.36.11.36.1.36.08.37.05.36.07.36-.08.36.04.36.09.37.06.36.04.36-.08.36.03.37.01.36-.05.36.08.36.04.36-.28.37.08.36.01.36-.48.36.07.36.1.37.1.36.1.36.07.36.01.36.09.37.05.36.04.36.01.36.03.37.05.36-.68.36.06.36.11.36.06.37.01.36.05.36.1.36.06.36.09.37.03.36.04.36.02.36.03.36.02.37-.12.36-.06.36.08.36-3.08.36.11.37.11.36.11.36.11.36.09h.37l.36.07.36.08.36-.01h.36l.37.12.36.11.36-.08.36.11.36.1.37.04.36.12.36.06.36.07.36.03.37.04.36.02h.72l.37.08.36.08.36.02.36-.01.36.05.37.03.36-.03.36-.1.36.06.36.07.37.06.36-.26.36.09.36.08.36-.21.37.07.36.05.36.06.36.06.37.04.36.03.36-.07.36.08.36.07.37-.47.36.08.36.1.36.08.36.08.37.07.36.07.36.04h.36l.36.06.37-.02.36.06.36.04.36.05.36.05.37.01.36.02.36.07.36.03.37-.15.36.08.36.06.36.05.36.06.37.04.36.01.36-.03.36.07.36.05.37.03.36-.04.36.06.36.03.36.02.37.05.36.03.36.03h.36l.37-.12.36.06.36.04.36.06.36.03.37.03.36.02.36-.07.36.07.36.04.37.05.36-.01.36.02.36.04.36-.96.37.08.36.08.36.08.36.05.36.04.37.06.36.05h.36l.36.08.37.06.36.06.36.03.36.04.36.03.37.03.36-.01.36.04.36.02.36.01.37-.01.36-.05.36.05.36.04.36-.15.37.06.36.05.36.07.36-.01.37.04.36.02.36-.11.36.05.36-.02.37.05.36.03.36.04.36-.07.36.04.37.03.36.02.36-.11.36.05.36.02.37-.11.36.05.36.04.36.01.36.04.37-.04.36.03.36.02.36-.02.37.03.36.01.36-.01h.36l.36-.03h.37l.36.01.36-.11.36.03.36-.11.37.04.36.03.36-.01.36.01.36-.01.37.02.36.03h.36l.36.03.37-.01.36-.01.36-.02.36-.13.36.04.37.01h.36l.36.01.36-.01.36-.02.37.02.36-.14.36-.12.36.04.36.01.37-.01.36.01.36-.66.36.06.37.05.36.03h.36l.36.06.36.04.37.02.36.04.36-.02.36.05.36.05.37.04.36.02.36.04.36.02.36.04.37.02.36.02.36-.09.36.05.36.03.37.05.36.03h.36l.36.06.37.02.36-1.45.36.07.36.04.36.06.37.02.36.05.36.04h.36l.36.06.37.03.36.01.36.03.36.01.36.02.37.02.36-.07.36.04.36.05.37.02.36.02.36-.03.36.04.36.02.37-.01.36-.11.36.05.36.03.36.02.37.04.36.03.36.03h.36l.36.04.37-.01.36.02.36.03.36.03.36.02.37.03.36-.22.36.04.36.04.37.02.36.04.36.03.36.01.36.04.37-1.59.36.05.36.03.36.05.36.05.37.04.36.02.36.02.36-1.56.36.06.37.05.36.03.36.06.36.04.37.02.36.04.36.05.36-.01.36.05.37-.01.36.04.36.04.36.03.36.03.37.02.36.03.36.01.36.01h.36l.37.04.36.03.36.04.36-.1.37.06.36.05.36-.09.36.04.36.05.37-1.64.36.07.36.06.36.04.36.05.37.03.36.06.36.03.36-.05.36.06.37.04.36.04.36.01.36.05.36.05.37.03.36.06.36.03.36.04.37.03.36.05.36.04.36.01.36-.01h.37l.36.05.36.05.36.03.36.04.37.03.36-.02.36.01.36.05.36.04.37.04.36.03.36.03.36.03.37.02.36.03.36.02.36.04.36-.06.37.04.36.03.36.04.36.03.36.03.37.01.36-.02.36.04.36-.05.36.04.37.03.36-.11.36.04.36.03.36-.12.37.04.36.04.36.02.36.02.37.03.36.02.36.02.36-.03.36.03.37.02.36.02.36-.07.36-1.77.36.05.37.05.36.06.36.04.36.04.36.04.37.04.36.04.36.02.36.04.37.05.36-.04.36.06.36.04.36.04.37.03.36.02h.36l.36-.04.36.06.37.04.36.04.36-.05.36.05.36.03.37.04.36.04.36.04.36.03.36.04.37.03.36.01.36.03.36.01h.37l.36.04.36.03.36.02.36-.01.37.03.36.04.36.02.36.02.36.01.37.03.36-.02.36.04.36.02.36.02.37-.04.36.03.36-.08.36.05.37.02.36.05.36.03.36.02.36.02.37-.02.36.04.36.04.36.03.36.02.37.04.36.01.36.03.36.02h.36l.37.03.36.03.36-.27.36.05.37.03.36.05.36.04.36.03.36.03.37.03.36.03.36.02.36-.01.36.01.37.03.36.03.36.02.36.02.36-.04.37.04.36.03.36-.35.36.04.36.02.37.03.36.05.36.03.36.03.37.02.36.03.36.04.36.02.36.04.37.03.36.03.36.03.36.02.36.01.37.03.36.01.36.03.36.02.36.02.37.02.36-.06.36-.05.36.03.37.04.36.01.36.04.36.03.36.02.37-.07.36.03.36.04.36.02.36.03.37-.12.36.04.36.02.36.02.36.03.37.03.36.03.36.02.36.01.36.01.37-.01h.36l.36.02.36.02h.37l.36.02.36-.02.36.03.36-.17.37.03.36.03.36.03.36.02.36.02.37.02.36.02.36.03h.36l.36.03.37.01.36.03.36-.02.36.03.37.02.36.03.36-.04.36.03.36.03.37.03.36.01.36.04.36-.01.36.03.37.02.36.01.36-.01.36.02.36-.01.37.02.36.02.36.02.36-.02.36-.04.37-.04.36.03.36.02.36.02.37.02.36-.33.36.04.36.02.36.04.37.02.36.02.36.03.36.02.36.01.37.02.36.01.36.02.36.02.36.03.37.02.36-.01.36.02.36.02.37.02.36.02.36.01.36.02.36.02.37.01.36.02h.36l.36-.06.36.03.37.02.36.02.36.03.36.02.36.01.37.01.36.02.36.02.36.01.37.02.36.02h.36l.36.02h1.09l.36-.01.36.01h.36l.37-.03.36.02.36.02.36.01.36-.05.37-.06.36.02.36.02.36.01h.36l.37.01.36.01.36.01.36-.01.37-.01.36.02.36.02h.36l.36.01.37.01.36.02h.36l.36.01.36-.01.37.01h.36l.36-.01.36.01h.73l.36-.01h.36l.36.01.37-.02.36-.01.36.01.36-.01.36-.01.37-.01.36.01.36-.01.36-.01.36-.1.37.02.36-.2.36.03.36.02.36.02.37.02.36.01h.36l.36-.01h.73l.36.02.36-.03.36.01.37.01.36.01h.36l.36-.02.36.01.37-.04.36.02.36-.01.36-.02.36.02.37.01h1.44l.37-.01.36.01.36.01h.36l.37.01h.36l.36-.3.36-.29.36.02.37.01.36.03.36.01.36.02.36.01h.37l.36.02.36.01.36.01.36-.01.37-.01.36.02.36.02.36.01.36-.02.37.02.36.02.36.01.36-2.15.37.03.36.04.36.02.36.03.36.03.37.03.36.03.36.03.36.03.36.02.37.02.36.03.36.01h.36l.36.04.37.03.36-.02.36.03.36.01.37.02.36.03.36.02.36.03.36.03.37.02.36.01.36.01.36.03.36.01.37.03.36.02.36.02.36.02.36.02.37-.02.36-.03.36.03.36.03.37-.08.36.03.36.03.36.02.36-.09.37.03.36.02.36.03.36.03.36.02.37.03.36.03.36.03.36.02.36.03.37.01.36.02.36.01.36.02.36.01.37.02.36.02.36.01.36.02.37.01.36-.01.36.02.36.03.36.02h.37l.36.01.36.03"/><use xlink:href="#1a423__a" color="#00C853" transform="matrix(3.75 0 0 3.75 354.25 141.38)"/><use xlink:href="#1a423__a" color="#00C853" transform="matrix(3.75 0 0 3.75 95.45 7.51)"/></g><text stroke-linecap="round" stroke-linejoin="round" color="#000" font-family="KaTeX_Main" font-size="8" transform="translate(116 25.11)"><tspan>TreapFingerTree</tspan></text><g fill="none" stroke="currentColor" stroke-linecap="round" stroke-linejoin="round" color="#000"><path stroke="#3B75EA" d="M80.5 22.51h29.9M28 118.81l.36 3.84.36 2.31.37-2.41.36 4.45.36-10.76.36 3.98.36 2.07.37-8.6.36 5.25.36-6.61.36 15.27.37-14.87.36-.83.36 9.61.36-7.18.36 2.14.37.11.36 2.29.36 2.3.36 4.37.36-4.3.37-7.35.36 2.4.36 12.33.36-12.04.36-1.45.37 2.28.36-2.12.36 2.09.36-8.45.36 9.94.37 4.53.36-8.51.36-5.29.36 7.92.37 6.45.36-7.95.36-5.44.36 4.28.36-.8.37-5.35.36 16.25.36-17.82.36 7.92.36 4.25.37 2.36.36-.74.36-13.63.36 3.91.36-5.37.37 9.57.36 4.39.36-9.82.36 14.69.37-12.32.36 10.63.36.26.36 2.26.36-6.35.37-1.86.36-7.71.36 2.19.36 2.28.36 6.07.37 2.55.36-6.37.36-5.72.36.36.36 14.25.37-14.53.36-3.54.36.28.36 14.07.37-27.87.36 13.98.36-3.55.36-8.43.36 20.38.37 2.09.36-4.08.36 8.89.36-16.17.36 21.64.37-17.25.36 2.19.36-14.58.36 21.09.36-2.01.37 4.59.36-10.39.36-1.87.36 4.31.36 1.74.37 4.56.36-8.23.36 2.21.36 8.68.37-16.43.36 12.45.36-8.14.36-4.04.36 8.15.37-11.55.36 7.71.36 13.18.36-10.81.36-7.63.37 3.97.36 5.09.36 9 .36-7.08.36 2.36.37-10.2.36 10.59.36-3.98.36 11.49.37-15.32.36 4.29.36-10 .36 10.28.36-7.97.37-3.63.36 16.4.36-4.29.36-8 .36 10.52.37-10.26.36-5.57.36 7.83.36.25.36 7.62.37 2.43.36.21.36 2.43.36-18.81.36 4.08.37 10.59.36-4.43.36-4.01.36 2.24.37-2.59.36-1.91.36 4.25.36-3.93.36 4.28.37 1.99.36-15.54.36 7.6.36 6.26.36-3.89.37 15.04.36-19.1.36.13.36 4.07.36-3.82.37-1.75.36 3.8.36 8.39.36-2.02.37 2.36.36-12.16.36 10.23.36-2.04.36-7.81.37 4.03.36-5.59.36 10.9.36 2.31.36-6.15.37.15.36.08.36 4.37.36-8.07.36 15.43.37-2.17.36-2.16.36-6.26.36.13.36 4.15.37 6.97.36-8.87.36 2.29.36-4.14.37-7.85.36 2 .36.14.36-1.88.36 2.05.37 2 .36 8.54.36 4.25.36-23.99.36 24.26.37-14.78.36 8.26.36-1.97.36 1.51.36 11.64.37-11.41.36 6.88.36-12.86.36-5.66.37 16.5.36-8.54.36 6.5.36 2.12.36-6.5.37-11.69.36.08.36 14.11.36.15.36-4.2.37-.06.36-3.95.36 8.45.36-6.28.36 6.48.37-4.17.36-5.9.36 3.8.36 2.2.37 2.23.36-6.79.36 15.28.36 2.49.36-6.91.37-2.19.36.07.36-4.17.36-4.02.36 6.36.37 2.33.36-12.2.36 2.07.36-7.43.36 1.95.37 13.03.36 6.8.36-20.43.36 27.95.36-18.18.37 2.17.36 2.26.36-6.69.36 2.1.37-5.82.36 16.94.36-16.77.36 6.02.36.11.37-1.95.36-2.1.36.09.36 6.21.36-1.99.37-1.93.36-.04.36 4.2.36-2 .36.11.37-11.52.36 5.65.36 4.07.36 7.57.37-2.09.36 7.74.36-8.89.36 6.76.36-2.18.37-6.42.36 6.54.36-2.17.36-8.25.36.07.37 14.71.36-13.05.36 2.15.36 8.93.36-.06.37-16.69.36-5.39.36 11.44.36 6.46.36-17.71.37 7.55.36-5.56.36 9.65.36 10.98.37-14.83.36 12.67.36-4.31.36-13.81.36 14.01.37-15.67.36-1.66.36 13.45.36-15.02.36.1.37 18.76.36-2.04.36.11.36 6.64.36-20.21.37 20.32.36-14.58.36 6.07.36 2.16.37.1.36-11.8.36 20.76.36-18.89.36 1.99.37-7.32.36 7.42.36 2.06.36 2.12.36-3.91.37-9.12.36 11.31.36-3.78.36 3.99.36-9.35.37 9.6.36-16.28.36 16.44.36-12.94.36-4.92.37.13.36 17.82.36-3.83.36 2.81.37 6.25.36 2.27.36 4.56.36-8.7.36 4.38h.37l.36-8.3.36 8.47.36 2.31.36-12.54.37-3.72.36 7.69.36-7.75.36 3.91.36 17.39.37-21.09.36 3.86.36-3.75.36 14.33.37-19.67.36 9.38.36 2 .36-11.24.36 9.43.37 4.15.36-4.07.36-5.63.36-5.28.36 3.64.37 13.16.36-4.05.36-9.45.36 7.59.36 8.32.37-12.06.36 16.69.36-2.31.36-10.41.37 6.22.36-9.97.36 8.05.36-9.74.36-1.86.37 1.93.36 7.78.36 2.13.36-11.6.36 5.71.37 2.05.36 8.31.36-4.19.36-9.79.36 3.88.37-1.85.36-5.61.36 13.61.36-4.02.36-3.81.37-3.71.36 3.84.36 3.78.36-9.38.37 13.64.36.05.36-13.67.36 9.56.36-3.82.37 5.96.36 8.69.36-12.61.36 2.07.36-12.95.37 13.1.36-3.86.36-.01.36 6.09.36-3.94.37 8.13.36-12.05.36 9.73.36 4.42.37-16.13.36 9.84.36-2 .36 10.82.36-6.55.37-2.09.36.09.36-7.84.36 3.9.36-9.29.37 13.54.36-.09.36.09.36 2.16.36 4.47.37-12.5.36-1.84.36 2 .36-3.74.36 12.95.37-6.19.36-5.76.36 3.9.36-3.79.37 12.17.36-4.16.36-4 .36 2.09.36-3.96.37 4.02.36-9.5.36 9.62.36-3.88.36 4 .37-5.8.36 8.03.36-15.18.36 7.38.36 1.86.37.07.36 4.03.36.09.36-5.89.37 12.34.36-12.49.36 14.58.36-8.52.36 4.27.37-13.85.36 9.74.36-5.84.36-5.53.36 5.62.37 6.03.36-21.56.36 8.42.36 9.3.36 2.01.37-16.32.36 14.52.36-7.56.36.08.37 7.53.36-12.7.36 7.15.36 15.84.36-10.37.37 6.19.36-7.47.36 8.19.36-6.12.36 6.22.37-11.87.36 7.75.36 4.24.36-10.03.36 14.52.37-10.51.36 8.4.36-2.09.36-6.15.36.05.37-17.85.36 16.01.36 2 .36-1.9.37-1.9.36 2 .36 8.27.36-6.16.36-9.43.37 3.74.36 7.74.36-13.23.36 1.84.36 9.51.37 1.63.36 6.46.36-19.58.36 13.3.36 2.16.37-18.74.36 27.7.36-12.91.36.06.37-3.84.36 3.91.36 4.18.36-2.22.36-13.22.37 19.77.36-12.42.36 6.04.36 6.48.36-24.8.37 10.57.36 3.91.36 10.53.36-12.34.36 7.95.37-6.07.36 2.05.36-3.88.36 3.98.36 6.37.37-12.08.36-10.58.36 20.62.36-8.03.37-10.83.36 19.03.36-11.83.36-1.77.36 17.14.37-10.39.36-5.64.36 7.69.36-5.78.36 18.88.37-14.95.36 10.49.36-6.36.36-18.46.36 16.51.37 2.08.36-1.99.36 8.51.36 4.65.37-6.76.36-10.19.36-5.53.36 22.69.36-29.58.37 12.57.36 4.04.36-3.94.36 12.48.36-10.54.37.06.36 8.2.36-6.26.36 2.12.36-4.01.37-7.54.36 9.64.36-3.89.36-3.77.36 5.38.37 6.21.36-6.1.36 2.07.36-14.8.37 21.25.36-6.37.36 8.57.36-8.48.36-5.83.37-10.63.36 5.22.36 9.45.36-3.99.36 3.94.37 2.07.36-1.95.36 3.93.36.06.36 2.16.37-6.12.36-7.58.36.07.36 1.91.37 7.76.36 8.42.36-12.5.36-10.89.36 23.53.37-14.44.36 5.98.36-7.81.36-8.79.36 12.68.37-14.27.36 12.46.36 5.95.36-18.3.36 8.72.37-8.65.36.06.36 16.38.36-3.85.37-1.84.36-3.6.36-8.48.36 18.05.36-5.81.37 3.91.36-5.8.36 14 .36-6.2.36-5.78.37 1.96.36 7.71.36-7.98.36 9.83.36-4.15.37-3.97.36-9.22.36 7.38.36 12.4.36-19.67.37 9.33.36 4.08.36-1.99.36-1.93.37-16.01.36 20.08.36.05.36 4.3.36-17.52.37 7.44.36-12.51.36 10.67.36-5.43.36 5.5.37 11.52.36-12.01.36 7.89.36.05.36.04.37 4.21.36-8.2.36 4.08.36 2.15.37-6.09.36-5.66.36 1.93.36 7.92.36-3.98.37-9.3.36 7.45.36-7.35.36 3.67.36-13.59.37 15.56.36-8.9.36 1.73.36 9.23.36-5.58.37 1.82.36 5.78.36-3.81.36 5.92.36-13.09.37 11.22.36-14.53.36 3.47.36-3.36.37 12.66.36-5.59.36-3.51.36 5.49.36-3.62.37 9.22.36-17.84.36 10.3.36-1.75.36-3.45.37-1.64.36 8.9.36-3.61.36-3.46.36 10.66.37-3.75.36 3.84.36-9.17.36-3.38.37 16.52.36 4.24.36-12.05.36.04.36-1.8.37 5.72.36-1.88.36 12.32.36-12.26.36-5.48.37.03.36.02.36 7.54.36-10.94.36 3.53.37-1.72.36 3.64.36-1.76.36-5.16.36.02.37-8.02.36 16.98.36-3.63.36-14.78.37 11.37.36 5.41.36-3.57.36 1.77.36-3.51.37 16.61.36-13.54.36 3.71.36-8.84.36 7.09.37 3.81.36-12.43.36 20.48.36-13.58.36.04.37 3.74.36-10.54.36 5.15.36 1.84.37 5.62.36-10.78.36 1.76.36 7.3.36.04.37-8.9.36-1.64.36-4.81.36 10.08.36 3.64.37-5.32.36 3.59.36-3.49.36 12.86.36-3.91.37-1.86.36-1.85.36.04.36-7.07.37 1.77.36-5.01.36 20.31.36-13.42.36-3.43.37 14.94.36-2 .36-11.12.36 6.97.36-1.83.37-3.58.36 1.85.36-5.25.36 5.34.36.02.37 1.89.36 7.64.36-3.94.36-10.88.36 17 .37-7.91.36-1.84.36 5.21.36 4.1.37-5.97.36 1.98.36 6.22.36.02.36-4.11.37-3.93.36-1.87.36-1.83.36-1.84.36 7.63.37.06.36-14.54.36 12.85.36 8.21.36-8.13.37 4.03.36 4.23.36 2.2.36-17.8.37 11.5.36 4.23.36-13.82.36 7.69.36 2.07.37-13.22.36 7.34.36 1.98.36-10.96.36 14.99.37-3.96.36-1.9.36-5.52.36-1.73.36 7.4.37-1.85.36 7.67.36 2.06.36-2.03.36-5.92.37 1.97.36-1.9.36-7.3.36 3.64.37 9.75.36-5.92.36-3.72.36 3.81.36.03.37-10.79.36 8.82.36 3.89.36-5.67.36.04.37 7.72.36-5.79.36-1.86.36 7.78.36-19.7.37 12.06.36-7.05.36 9 .36-7.19.37 1.8.36-3.43.36 22.3.36-8.38.36-1.95.37 6.14.36 8.89.36-4.54.36-4.28.36 8.86.37-8.84.36-2.04.36-11.5.36 5.59.36 3.97.37-3.89.36 10.24.36-19.29.36 9.11.36 6.01.37 2.07.36-4.08.36-3.9.36 6.01.37-3.99.36-5.67.36 5.66.36-1.91.36 12.48.37-4.33.36-8.04.36 1.99.36-5.68.36.04.37 7.73.36 2.1.36-4.01.36-11.06.36 5.4.37 1.91.36 5.9.36 5.91.36-8.24.37-5.67.36 9.77.36.03.36-16.81.36 14.83.37 2.06.36-2.01.36-7.69.36 9.81.36.03.37 6.46.36-6.42.36-9.77.36 3.82.36.05.37 3.93.36-5.83.36 1.92.36 10.32.37-8.29.36 4.03.36-5.98.36.03.36 6.06.37-11.62.36 5.66.36-5.59.36 5.64.36-3.78.37-3.58.36 3.62.36 7.82.36.03.36-1.97.37 2.04.36-1.97.36.04.36 4.05.36-15.23.37 13.25.36-18.27.36 16.28.36-5.74.37 9.87.36-6.02.36-5.62.36 9.59.36 2.1.37-4.04.36-11.17.36 13.28"/><use xlink:href="#1a423__b" color="#3B75EA" transform="matrix(3.75 0 0 3.75 67.83 124.34)"/><use xlink:href="#1a423__b" color="#3B75EA" transform="matrix(3.75 0 0 3.75 95.45 22.51)"/></g><text stroke-linecap="round" stroke-linejoin="round" color="#000" font-family="KaTeX_Main" font-size="8" transform="translate(241.1 10.11)"><tspan>Randomized</tspan></text><g fill="none" stroke="currentColor" stroke-linecap="round" stroke-linejoin="round" color="#000"><path stroke="#FFAB00" d="M205.6 7.51h29.9M28 142.73l.36-.3.36.19.37-.77.36.24.36-.56.36.24.36.07.37-.13.36.23h.36l.36-.34.37-.11.36-.1.36-.2.36-.59.36.05.37-2.86.36.38.36.31.36.35.36.11.37.38.36.34.36-.05.36.39.36.34.37.17.36.26.36.11.36-.18.36-.24.37.36.36.15.36.15.36-.06.37.31.36.1.36.01.36-.21.36.15.37.18.36.26.36.23.36.11.36-1.16.37.34.36.25.36.1.36.19.36.19.37.12.36.01.36.19.36-.04.37.24.36.2.36.15.36.12.36.07.37.09.36.04.36.01.36.11.36.14.37.02.36.01h.36l.36-.16.36-.19.37-.27.36.13.36-.49.36.22.37.12.36.18.36.11.36.05.36.18.37.09.36.06.36-1.49.36.2.36.15.37.12.36.21.36.13.36.03.36.09.37.02.36.17.36.16.36.13.36.04.37.14.36-3.13.36.26.36.16.37.14.36.22.36.18.36.11.36-.03.37.13h.36l.36.06.36.11.36-.09.37-.01.36.17.36.17.36.11.36.03.37.14.36.06.36.13.36.1.37.09.36.05.36.11.36.11.36.05.37-.01.36.1.36.12.36-.17.36.16.37.11.36.07.36.09.36.1.36.05.37.06.36.07.36.03.36-.12.36-3.05.37.2.36.15.36.1.36.11.37.11.36.1.36.11.36.03.36.15.37.14.36.03.36.13.36-2.96.36.18.37.15.36.12.36.07.36.17.36.09.37.11.36.12.36.12.36.12.37.07.36.02.36.11.36.11.36.01.37.09.36.07.36.01.36.05.36.12.37.08.36.08.36.1.36.08.36.05.37.04.36-.02.36.1.36.08.36.1.37.04.36.03.36-.32.36.1.37.07.36.08.36.09.36.09.36.11.37.09.36-2.94.36.14.36.13.36.08.37.11.36.06.36.08.36.11.36-.03.37.15.36.12.36.09.36.09.37.1.36.09.36.09.36.06.36.09.37-.04.36.08.36.07.36-.08.36-.14.37.13.36.09.36.07.36.05.36.11.37.1.36.05.36.11.36.09.37.04.36.1.36.06.36.02.36.03.37.06.36-.23.36.09.36.09.36.06.37.05.36.03.36.09.36.08.36-.02.37.08.36.06.36.08.36.07.36.05.37.03.36-.58.36.08.36.1.37.1.36.07.36.08.36.07.36.03.37.07.36-.01.36.07.36.04.36.07.37-.05.36.07.36.05.36.07.36.05.37-.06.36.08.36.04.36.08.37.04.36.05.36.06h.36l.36.05.37.04.36.05.36.04.36-.02.36.02.37-1.1.36.1.36.1.36.08.36.03.37.07.36.09.36.07.36.06.36.06.37.05.36.05.36.02.36.06.37-.06h.36l.36.07.36.07.36.05.37.05.36-.23.36.09.36-.1.36.07.37.06.36.04.36.01.36.04.36.03.37.05.36-.02h.72l.37.08.36.04.36-.02.36.07.36-.06.37-.05.36.06.36.05.36-.25.36.09.37.05.36.07.36.06.36.03.36.06.37.05.36.03.36.03.36.05.36.03.37.03.36.03.36-1.08.36.09.37.07.36.06.36.08.36.06.36.06.37.04.36.04.36.01.36.06.36.06.37.05.36.03.36.07.36.05.36.04.37.02.36.04.36.02.36.01.37.02h.36l.36-.03.36-.02.36.02.37.01.36.03.36-.01.36.02.36-.01.37.03.36.03.36-.11.36.06.36.04.37.02h.36l.36.01.36.05.37.03.36.03.36.01.36.02h.36l.37.02.36-.01.36.03.36.02.36.02.37-.01h.36l.36-.29.36.06.36.05.37-.24.36.05.36.04h.36l.36.01.37.05.36.02.36.03.36.04h.37l.36-.02.36.04.36.02.36.03.37.04.36.03.36.01.36.04.36-.01.37.02.36.04.36-.1.36.03.36.03.37.03.36.01.36-.03.36.04.37.03h.36l.36.03.36.02.36.02.37.02.36-.01.36.01.36-.05.36-.19.37.02.36.02.36.01h.36l.36.04.37.01.36.01.36.03h.72l.37.02.36.02.36.01.36.02.37.02.36-.01.36.02h.36l.36-.01.37.01h.72l.36-.04.36.01.37-.08.36.02.36.02.36.01h1.09l.36-.16.36.02.37.03.36.01.36-.19.36.03.36.02h.37l.36.04.36.01.36.02.36-.03.37.03.36.01h.36l.36.02h1.09l.36.02.36-.01.37-.29.36.02.36.03h.36l.36.03.37.02.36-.02h.36l.36.03.36.02.37.01h.36l.36.01.36.02.36-.02.37-.06.36.03.36.01.36-.07.36.03.37.01.36.01h.36l.36-.01.37-.02.36-.01.36-.02.36.02.36-.6.37-2.93.36.07.36.06.36.05.36.05.37.06.36.04.36.05.36.02.36.07.37.01.36.05.36.05.36.05.37.02.36.04.36.05.36.03.36.04.37.03.36.02.36.04.36.03.36.03.37.01h.36l.36.03.36.02.36.03.37-.04.36-.04.36.05.36.03.36.04.37-.11.36.06.36.06.36.04.37.04.36.05.36.01.36.05.36-.01.37.02.36.04.36.04.36.04.36.04.37.03.36.05.36.03.36.03.36.03.37.03.36.02.36.03h.36l.37.02.36.02.36-.03.36.04.36.02.37.02h.36l.36-.1.36.05.36.03.37.04.36.02.36.03.36.03h.36l.37-.08.36.04.36.03.36.02.36.02.37.03.36-.1.36.03.36.03.37.03.36.03.36.03.36.02.36-.01.37.03.36.03.36.03.36.02.36.02.37.02.36.01.36-.18.36.04.36.03.37.04.36.02.36.03.36.02.37.03.36-.02.36.03.36.03.36.02.37.02h.36l.36.02.36-.01.36.02.37-.04.36.03.36.02.36.01.36-.28.37.05.36.03.36.03.36.01.37.03.36.01.36.03.36.03.36.02.37.02.36.02.36.02.36.01.36.02.37.01.36.02.36-.04.36.02.36.03.37.01h.72l.36.01.36.02.37-.38.36.04.36.03.36.03.37.04.36.02.36.02.36-.06.36.01.37.03.36.04.36.01.36.03.36.02.37.01h.36l.36.02h.36l.36.02.37-.03.36.03.36-.02.36-.03.37.03.36.02.36.02.36.01.36-.07.37.03.36.03.36.01.36.03.36.02.37.02.36.03.36.01.36-.03.36.02.37.03.36-.55.36.05.36.04.36.03.37.03.36.03.36.01.36.04.37.01.36.04.36.04.36.02.36.02.37.03.36-.03.36.04.36.02.36.04.37.01.36-.01.36.04.36.01.36.02.37.03h.36l.36.03.36.03.37.02.36.01.36.02.36.03.36.02.37.03.36.02.36-.01.36-.05.36.04.37.03.36.02.36.03.36.03.36.02.37.03.36-.07.36.03.36.03.36.01.37.02.36.01h.36l.36-.02.37.03.36.01.36-.01.36.03.36-.12.37.03.36.03.36.02h.36l.36.04.37.02.36.02.36.01.36.03h.36l.37.03h.72l.36.02.37.02h.36l.36.02h.72l.37.01.36-.01.36.02.36.01.36.01.37.02.36-.02.36.01.36.01h.73l.36.01.36.01.36-.08.37.02h.36l.36.02.36.01.36.01.37.01.36.01h.36l.36.01.36-.01.37-.12.36-.28.36.03.36.03.36.02.37.02.36.02.36.02.36.01.36.02.37.01.36.02.36.01h.36l.37.02.36.01.36.01.36-.01.36.02.37-.03.36-.03.36.02.36.02.36.01.37.02.36.02.36-.06.36.03.36.02.37.02.36.01.36.02.36.01.37.01.36-.11.36.01.36.02.36-.01.37.03.36-.1.36.02.36.02.36.02.37.01.36.01.36.02.36.02.36.01h.37l.36.02h.36l.36-.01.36.02h.37l.36.02.36.01.36-.01.37.01h.36l.36-.01.36-.05.36.02h.37l.36.01h.72l.36-.03h.37l.36.01h.36l.36-.01.36.01h.37l.36-.01.36-.01h.36l.37-.01.36.01.36-.01.36-.02.36-.03.37-.02h.72l.36-.12.36.02h.37l.36.01h1.08l.37-.55.36.03.36.01.36.03.36.03.37.02.36.02h.36l.36.02.37.01.36.01.36.01.36.01.36-.01.37.01h.36l.36-.01.36-.03.36.02.37.02h.36l.36-.61.36.03.36.01.37.03.36.01.36.02.36.03.37.02.36.01.36-.01.36.03.36.02.37.02.36-.65.36.03.36.03.36.02.37.02.36.01.36.02.36.03h.36l.37.02.36.02.36.03.36.02.37-.01.36.03.36.02.36.02.36.02.37.02.36.02.36.02.36.02h.36l.37.02.36.02.36.02.36.01.36.02.37-1.23.36.04.36.04.36.03.36.03.37.03.36.02.36.03.36.02.37.03.36-.01.36.03.36.03.36.01.37.01.36.03.36.03"/><use xlink:href="#1a423__c" color="#FFAB00" transform="matrix(3.75 0 0 3.75 125.4 143.09)"/><use xlink:href="#1a423__c" color="#FFAB00" transform="matrix(3.75 0 0 3.75 220.55 7.51)"/></g><text stroke-linecap="round" stroke-linejoin="round" color="#000" font-family="KaTeX_Main" font-size="8" transform="translate(241.1 25.11)"><tspan>Zip</tspan></text><g fill="none" stroke="currentColor" stroke-linecap="round" stroke-linejoin="round" color="#000"><path stroke="#F44336" d="M205.6 22.51h29.9M28 141.06l.36-.66.36.28.37.13.36.24.36-.07.36.23.36.16.37.15.36.05.36-.93.36.33.37.21.36.22.36.05.36.07.36.17.37-.02.36-.39.36.23.36.18.36.22.37.08.36.05.36.17.36-.02.36-.12.37.17.36.06.36-.04.36.05.36.03.37-.06.36-.16.36-.12.36-.46.37-.27.36.14.36.04.36.04.36-.45.37.12.36.07.36-.02.36-.12.36.04.37.05.36.04.36-.09.36.03h.36l.37-.05.36-.25.36.1.36.05.37-.83.36.09.36.05.36.11.36.04.37.03.36-.06.36-.2.36-.07h.36l.37-.15.36-.05.36-.01.36-.15.36.06.37-.07.36-.1.36.05.36-.03.37-.01h.36l.36-.08.36-.1.36-.07.37-.07.36.01.36-.07.36-.12.36-.16.37-.02.36-.12.36-.15.36-.11.36-.05.37-.22.36-.23.36-.16.36-.13.36-.14.37-.25.36-.08.36-.1.36-.19.37-.15.36-.81.36.04.36.01.36.05h.37l.36.06.36-.01.36-.02.36-.03.37-.05.36-.08.36-.05.36-.04.36-.03.37-1.9.36.17.36.17.36.09.37.11.36.13.36.07.36.05.36.05.37.07.36.03.36-.08.36.08.36.07.37.04.36.05.36-.12.36.11.36.08.37.03.36.04.36.05.36.09.36.08.37.08.36.07.36.05.36.01.37-.07.36.07.36.03.36.01.36-.04.37.05.36.02.36-.05.36-.01.36-.06.37.01.36-.05.36-.04.36-.04.36-.17.37-.54.36.14.36.1.36.06.37.1.36.06.36.03.36.01.36.06.37.06.36.01.36.08.36.06.36.04.37.04.36-.01.36-.03.36-.14.36.02.37.03.36.01.36-.29.36.1.36.06.37.05h.36l.36.06.36.01.37.01.36.04.36.03.36-.02.36-.02.37-.07.36-.01.36.05.36-.06.36.02.37.03.36.03h.36l.36-.01.36-.03h.37l.36-.04h.36l.36-.02.37-.11.36.03.36-.01.36.03h.36l.37-.03.36-.03.36-.04.36-.11.36.01.37-.01.36-.01.36-.03h.36l.36-.05.37-.04.36-.09.36-.03.36-.04.37-.03.36-.05.36-.14.36-.02.36-.04.37-.06.36-.14.36-.01.36-.04.36-.02.37-.04.36-.05.36-.07.36-.1.36-.07.37-.09.36-.11.36-.03.36-.07.36-.08.37-.09.36-.09.36-.13.36-.1.37-.11.36-.13.36-.13.36-.16.36-.08.37-.28.36-.04.36-.06.36-.05.36-.4.37.01.36.01.36-.03.36-.02.36-.01.37.01.36-.02.36-.03.36-.03.37-.03.36-.07.36-.04.36-.09.36.01.37-.02.36-.04.36-.1.36-.01.36-.02.37-.03.36-.01.36-.02.36-.02.36-.07h.73l.36-.03.36-.04.36-.03.37-.07.36-.01.36-.03.36-.03.37-.02.36-.03.36-.03.36-.07.36-.06.37-.04.36-.05.36-.06.36-.08.36-.05.37-.06.36-.07.36-.1.36-.09.36-.15.37-.02.36-.06.36-.04.36-.21.37-.01.36-.02.36-.03.36-.01.36-.28.37-2.3.36.1.36.09.36.06.36.1.37.07.36.02.36.11.36.05.36.08.37.06.36.06.36.04.36.04.36.08.37.03.36.08.36.06.36.05.37.05.36.02.36-.02.36.07.36.06.37.04.36.06.36.03.36-.03.36.06.37.05.36.05.36.03.36.05.36.03.37.02.36.02.36-.11.36.05.37.05.36-.17.36.08.36-2.27.36.09.37.09.36.07.36.09.36.07.36.06.37.08.36.06.36.08.36.07.36.06.37.05.36.08.36.06.36.03.37.02.36.05.36-.05.36.09.36.08.37.06.36.08.36.06.36.05.36.02.37.04.36.02.36-.08.36.08.36-.08.37.08.36.08.36.07.36.04.36.08.37.05.36.08.36.06.36.06.37.05.36.05.36.05.36.05.36.03h.37l.36.03.36.01.36-.02.36.07.37.04.36.05.36.04.36.04.36.02.37.05.36.03.36.04.36.05.37.03.36.01.36.04.36.03.36.03.37.03.36.01.36.03.36.04.36.03.37.02h.36l.36-.14.36.06.36.05.37.05.36.06.36.04.36.04.36.03.37.03.36.01h.36l.36-.01.37.06.36.05.36.05.36.04.36.03.37.03.36.02.36.01h.36l.36.02.37-.06.36.05.36.02.36.04.36.03.37.01.36.03.36.02.36.05.37.04.36.04.36.03.36.02.36.01.37.01.36-.01.36.03.36.01.36.01.37-.02.36.02.36.01.36-.02.36.01h.37l.36-.07.36.04.36.03.37.03.36.03.36.03.36.01.36.02.37.02.36.03h.36l.36.01.36-.03.37.03.36.02.36.03.36.02.36.02.37.02.36.01.36-.07.36.04.36.02h.37l.36.04.36-.01.36.03.37.03.36.02.36.02.36.01.36.01.37-.05.36.04.36.02.36.01.36.02.37.02.36.01h.36l.36.02.36.02.37.02.36.01h.36l.36-.09.37.02.36.03.36.01.36.01.36-.01.37-.01.36.02h.36l.36.01h.36l.37-.02.36-.02.36-.04.36-.06.36.02.37.02h.36l.36-.01.36-.03.36.02.37.01h.36l.36.01h.36l.37.01.36-.82.36.06.36.06.36.05.37.06.36.04.36.04.36.05.36.03.37.03.36.02.36.02.36.02.36.01.37.04.36.01.36.03.36-.02.37.05.36.04.36.04.36.01.36.04.37.04.36.04.36.02.36.04.36.01.37.03.36.03.36.04.36.02.36.02.37-.1.36.05.36.03.36.04.36.04.37.03.36.03.36-.01.36.04.37-.13.36.05.36.05.36.04.36.05.37.04.36.04.36.02.36.04.36.03.37.02.36.03.36.04.36.03.36.02.37.02.36.03.36.01.36.02.37.02h.36l.36.03.36.02.36.02h.37l.36.01.36.02h.36l.36.01.37.02.36.01.36.01.36-.01.36-.01.37.01.36-.01.36.01h.73l.36-.02.36.01.36-.01.36.01.37.01.36-.15.36.04.36.04.36.02.37.04.36.03.36.03.36.04.36.03.37.03.36.02.36.04.36.03.36.02.37.03.36.01.36.02.36-.01.37.03.36-.01.36.03.36.02.36.01.37.01.36.01h.36l.36-.01.36.03.37.01h.36l.36.01.36.01h.73l.36-.01.36-.03.36-.06.37.01.36-.08.36.03.36.02.36.02.37.01.36.03.36.02.36.02h.73l.36.02h.36l.36.02.36-.16.37.04.36.03.36.02.36.03.36.02.37.01.36.02.36.01.36.01.37-.03.36.03.36.03.36.01.36.02h.73l.36.02.36.01.36.02.37.02h.36l.36.02.36.01.36.01.37.01.36-.07.36-.06.36.03.37.01.36.02.36.03.36.01.36.02.37.02.36.02h.36l.36.03.36.01.37.02.36.01.36.01.36.02.36.01.37.01h.36l.36-.12.36.01.36.02.37.02.36.02.36.02h.36l.37-.02.36.01.36.01.36.01.36.01h1.81l.37-.02.36-.03.36.01.36.02.36.01.37.02.36-.01.36.01.36.02h.37l.36.01.36-.02.36-.01.36-.01.37-.01.36-.01.36-.02.36-.06.36.01.37-.03.36.02h.72l.36-.03h.37l.36-.13.36.03.36.02.37.01.36.02.36.01h.36l.36.01.37.01h.72l.36-.01.36-.04.37-1.27.36.03.36.04.36.04.36.04.37.04.36.02.36.03.36.03.36.03.37.02.36.01.36.03.36.04h.73l.36.02.36.03.36.02.37.04.36.03.36.03.36.01.36.03.37.02.36.03.36.02.36.02.36-.01.37.02.36.03.36.02.36.03.37.02.36.03.36.02h.36l.36.02.37.02.36.01.36.02.36.01h1.09l.36.01.36.02.36.02.37.02.36.01.36.02.36.01.36.01.37-.01.36.02.36.01h.36l.37.01.36.01h.36l.36.01h.73l.36.01h.36l.36-.02.36.01h.73l.36-.01.36-.01h.36l.37-.17.36.04.36.03.36.02.37-.17.36.03.36.03.36.03.36.03.37.01.36.02.36.01.36.03.36.03.37.02.36.01.36-.01.36.03.36.03.37.02.36.02.36.03.36.02.36.02h.37l.36.03.36.02.36.02.37.02.36.01.36.01.36-.24.36.03.37.03.36.02.36.03.36.02.36.01.37.02.36.01.36.03.36.03.36.03.37.02.36.02.36-.01.36.03.37.01.36.02.36.02.36.03.36.02.37.03.36.02.36.02.36.01.36.01h.37l.36-.01.36.02.36-.01.36.03.37.02.36.02.36.03.36.01.37.02.36.01.36.01.36.01.36.01.37.01.36.01.36.01.36-.01h1.45l.36-.03h.73l.36-.03.36.01.36-.07.36.02.37.03.36.02.36.01.36.01.37.02.36.02h.36l.36.02.36.01.37.01.36.01.36.01"/><use xlink:href="#1a423__d" color="#F44336" transform="matrix(3.75 0 0 3.75 182.98 129.49)"/><use xlink:href="#1a423__d" color="#F44336" transform="matrix(3.75 0 0 3.75 220.55 22.51)"/></g><path fill="none" d="M28 45.01V162.5M371.99 45.01H28" color="#000"/></svg>