<svg xmlns="http://www.w3.org/2000/svg" xmlns:xlink="http://www.w3.org/1999/xlink" viewBox="0 0 400 200"><path fill="none" d="M0 0h400v200H0z"/><defs><path id="431c0__b" stroke="currentColor" stroke-width=".267" d="M-1 0h2M0-1v2"/><path id="431c0__c" stroke="currentColor" stroke-width=".267" d="m-1-1 2 2m0-2-2 2"/><path id="431c0__d" stroke="currentColor" stroke-width=".267" d="M-1 0h2M0-1v2m-1-2 2 2m-2 0 2-2"/><path id="431c0__a" stroke="currentColor" stroke-width=".267" d="M0 1.33 1.265.411.782-1.067l-1.564-.009-.483 1.487z"/></defs><path fill="none" stroke="#CCC" stroke-linecap="round" stroke-linejoin="round" stroke-width=".1" d="M46.1 162.5V45.01" class="431c0__gridline" color="#000"/><g fill="none" stroke-linecap="round" stroke-linejoin="round" stroke-width="0" color="#000"><path d="M46.1 162.5V155m0-109.99v7.5"/><text fill="#000" font-family="KaTeX_Main" font-size="8" text-anchor="middle" transform="translate(46.1 172.6)"><tspan> 1</tspan></text></g><path fill="none" stroke="#CCC" stroke-linecap="round" stroke-linejoin="round" stroke-width=".1" d="M82.31 162.5V45.01" class="431c0__gridline" color="#000"/><g fill="none" stroke-linecap="round" stroke-linejoin="round" stroke-width="0" color="#000"><path d="M82.31 162.5V155m0-109.99v7.5"/><text fill="#000" font-family="KaTeX_Main" font-size="8" text-anchor="middle" transform="translate(82.31 172.6)"><tspan> 2</tspan></text></g><path fill="none" stroke="#CCC" stroke-linecap="round" stroke-linejoin="round" stroke-width=".1" d="M118.52 162.5V45.01" class="431c0__gridline" color="#000"/><g fill="none" stroke-linecap="round" stroke-linejoin="round" stroke-width="0" color="#000"><path d="M118.52 162.5V155m0-109.99v7.5"/><text fill="#000" font-family="KaTeX_Main" font-size="8" text-anchor="middle" transform="translate(118.52 172.6)"><tspan> 3</tspan></text></g><path fill="none" stroke="#CCC" stroke-linecap="round" stroke-linejoin="round" stroke-width=".1" d="M154.73 162.5V45.01" class="431c0__gridline" color="#000"/><g fill="none" stroke-linecap="round" stroke-linejoin="round" stroke-width="0" color="#000"><path d="M154.73 162.5V155m0-109.99v7.5"/><text fill="#000" font-family="KaTeX_Main" font-size="8" text-anchor="middle" transform="translate(154.73 172.6)"><tspan> 4</tspan></text></g><path fill="none" stroke="#CCC" stroke-linecap="round" stroke-linejoin="round" stroke-width=".1" d="M190.94 162.5V45.01" class="431c0__gridline" color="#000"/><g fill="none" stroke-linecap="round" stroke-linejoin="round" stroke-width="0" color="#000"><path d="M190.94 162.5V155m0-109.99v7.5"/><text fill="#000" font-family="KaTeX_Main" font-size="8" text-anchor="middle" transform="translate(190.94 172.6)"><tspan> 5</tspan></text></g><path fill="none" stroke="#CCC" stroke-linecap="round" stroke-linejoin="round" stroke-width=".1" d="M227.15 162.5V45.01" class="431c0__gridline" color="#000"/><g fill="none" stroke-linecap="round" stroke-linejoin="round" stroke-width="0" color="#000"><path d="M227.15 162.5V155m0-109.99v7.5"/><text fill="#000" font-family="KaTeX_Main" font-size="8" text-anchor="middle" transform="translate(227.15 172.6)"><tspan> 6</tspan></text></g><path fill="none" stroke="#CCC" stroke-linecap="round" stroke-linejoin="round" stroke-width=".1" d="M263.36 162.5V45.01" class="431c0__gridline" color="#000"/><g fill="none" stroke-linecap="round" stroke-linejoin="round" stroke-width="0" color="#000"><path d="M263.36 162.5V155m0-109.99v7.5"/><text fill="#000" font-family="KaTeX_Main" font-size="8" text-anchor="middle" transform="translate(263.36 172.6)"><tspan> 7</tspan></text></g><path fill="none" stroke="#CCC" stroke-linecap="round" stroke-linejoin="round" stroke-width=".1" d="M299.57 162.5V45.01" class="431c0__gridline" color="#000"/><g fill="none" stroke-linecap="round" stroke-linejoin="round" stroke-width="0" color="#000"><path d="M299.57 162.5V155m0-109.99v7.5"/><text fill="#000" font-family="KaTeX_Main" font-size="8" text-anchor="middle" transform="translate(299.57 172.6)"><tspan> 8</tspan></text></g><path fill="none" stroke="#CCC" stroke-linecap="round" stroke-linejoin="round" stroke-width=".1" d="M335.78 162.5V45.01" class="431c0__gridline" color="#000"/><g fill="none" stroke-linecap="round" stroke-linejoin="round" stroke-width="0" color="#000"><path d="M335.78 162.5V155m0-109.99v7.5"/><text fill="#000" font-family="KaTeX_Main" font-size="8" text-anchor="middle" transform="translate(335.78 172.6)"><tspan> 9</tspan></text></g><path fill="none" stroke="#CCC" stroke-linecap="round" stroke-linejoin="round" stroke-width=".1" d="M371.99 162.5V45.01" class="431c0__gridline" color="#000"/><g fill="none" stroke-linecap="round" stroke-linejoin="round" stroke-width="0" color="#000"><path d="M371.99 162.5V155m0-109.99v7.5"/><text fill="#000" font-family="KaTeX_Main" font-size="8" text-anchor="middle" transform="translate(371.99 172.6)"><tspan> 10</tspan></text></g><g fill="none" stroke-linecap="round" stroke-linejoin="round" stroke-width="0" color="#000"><path d="M371.99 162.5h-7.5"/><text fill="#000" font-family="KaTeX_Main" font-size="8" transform="translate(378.99 165.1)"><tspan>1</tspan></text></g><g fill="none" stroke-linecap="round" stroke-linejoin="round" stroke-width="0" color="#000"><path d="M371.99 45.01h-7.5"/><text fill="#000" font-family="KaTeX_Main" font-size="8" transform="translate(378.99 47.61)"><tspan>2</tspan></text></g><path fill="none" d="M28 45.01V162.5M371.99 45.01H28" color="#000"/><text stroke-linecap="round" stroke-linejoin="round" stroke-width="0" color="#000" font-family="KaTeX_Main" font-size="10" text-anchor="middle" transform="rotate(-90 57.63 46.13)"><tspan>log</tspan><tspan dy="3" font-size="8">2</tspan><tspan dy="-3">(</tspan><tspan font-weight="bold">Maximum Path Length </tspan><tspan> / log</tspan><tspan dy="3" font-size="8">2</tspan><tspan dy="-3">(Size))</tspan></text><text stroke-linecap="round" stroke-linejoin="round" stroke-width="0" color="#000" font-family="KaTeX_Main" font-size="10" text-anchor="middle" transform="translate(199.99 195.75)"><tspan>Operations / 10</tspan><tspan dy="-5" font-size="8">6</tspan></text><text stroke-linecap="round" stroke-linejoin="round" color="#000" font-family="KaTeX_Main" font-size="8" transform="translate(116 10.11)"><tspan>TreapTopDown</tspan></text><g fill="none" stroke="currentColor" stroke-linecap="round" stroke-linejoin="round" color="#000"><path stroke="#00C853" stroke-dasharray="4.5,2.0,0.5,2.0,0.5,2.0" d="M80.5 7.51h29.9M28 129.5l.36.26.36.25.37.25.36.24.36.23.36.23.36.23.37.22.36.22.36.21.36.21.37.21.36.2.36.2.36.2.36.19.37.19.36.19.36.18.36.19.36.17.37.18.36.17.36.17.36.17.36.17.37.16.36.16.36.16.36.16.36.15.37.16.36.15.36.15.36.14.37.15.36.14.36.14.36.14.36.14.37.14.36.13.36.14.36-3.52.36.13.37.13.36.13.36.13.36-3.45.36.13.37.12.36.12.36.12.36.12.37.11.36.12.36.11.36.12.36.11.37.11.36.11.36.11.36.11.36.11.37.1.36.11.36.1.36.1.36.11.37.1.36.1.36.1.36.1.37.09.36.1.36.1.36.09.36.1.37.09.36.09.36.1.36.09.36.09.37.09.36.09.36.09.36.08.36.09.37.09.36.08.36.09.36.08.36.09.37.08.36.08.36.09.36.08.37.08.36.08.36.08.36.08.36.08.37.07.36.08.36.08.36.08.36.07.37.08.36.07.36.08.36.07.36.07.37.08.36.07.36.07.36.07.37.07.36.07.36.07.36.07.36.07.37.07.36.07.36.07.36.07.36.06.37.07.36.07.36.06.36.07.36.06.37.07.36.06.36.07.36.06.36.06.37.07.36.06.36.06.36.06.37.06.36.07.36.06.36.06.36.06.37.06.36.06.36-3.44.36.06.36.06.37.06.36.05.36.06.36.06.36.06.37.05.36.06.36.06.36.05.37.06.36-3.37.36.05.36.06.36.05.37.06.36.05.36.05.36.06.36.05.37.05.36.06.36.05.36.05.36.05.37.05.36.06.36.05.36-3.31.36.05.37.05.36.05.36.05.36.05.37.05.36.05.36.05.36.05.36.05.37.05.36.04.36.05.36.05.36.05.37.04.36.05.36.05.36.05.36.04.37.05.36.04.36.05.36.05.37.04.36.05.36.04.36.05.36.04.37.05.36.04.36.04.36.05.36.04.37.05.36.04.36.04.36.05.36.04.37.04.36.04.36.05.36.04.37.04.36.04.36.05.36.04.36.04.37.04.36.04.36.04.36.04.36.04.37.04.36.04.36.05.36.03.36.04.37.04.36.04.36.04.36.04.36.04.37.04.36.04.36.04.36.04.37.04.36.03.36.04.36.04.36.04.37.04.36.03.36.04.36.04.36.04.37.03.36.04.36.04.36.03.36.04.37.04.36.03.36.04.36.04.37.03.36.04.36.03.36.04.36.04.37.03.36.04.36.03.36.04.36.03.37.04.36.03.36.04.36.03.36.03.37.04.36.03.36.04.36.03.36.03.37.04.36.03.36.04.36.03.37.03.36.04.36.03.36.03.36.03.37.04.36.03.36.03.36.04.36.03.37.03.36.03.36.03.36.04.36.03.37.03.36.03.36.03.36.03.37.04.36.03.36.03.36.03.36.03.37.03.36.03.36.03.36.03.36.03.37.04.36.03.36.03.36.03.36.03.37.03.36.03.36.03.36.03.36.03.37-6.49.36.02.36.03.36.03.37.03.36.03.36.03.36.03.36.03.37.03.36.03.36-3.14.36.03.36-3.09.37.03.36.03.36.03.36.03.36.03.37.02.36.03.36.03.36.03.37.03.36.02.36.03.36.03.36.03.37.02.36.03.36.03.36.03.36.02.37.03.36.03.36.02.36.03.36.03.37.03.36.02.36-3.03.36.03.37.03.36.02.36.03.36.03.36.02.37.03.36.03.36.02.36.03.36.02.37.03.36.02.36.03.36.03.36.02.37.03.36.02.36.03.36.02.36.03.37.02.36.03.36.02.36.03.37.02.36-2.97.36.02.36.03.36.02.37.03.36.02.36.03.36.02.36.03.37.02.36.02.36.03.36.02.36.03.37.02.36.03.36.02.36.02.37.03.36.02.36.03.36.02.36.02.37.03.36.02.36.02.36.03.36.02.37.02.36.03.36.02.36.02.36.03.37.02.36.02.36.03.36.02.36.02.37.02.36.03.36.02.36.02.37.02.36.03.36.02.36.02.36.02.37-2.92.36.02.36.02.36.03.36.02.37.02.36.02.36.02.36-2.87.36.02.37.02.36.02.36.03.36.02.37.02.36.02.36.02.36.02.36.03.37.02.36.02.36.02.36.02.36.02.37.02.36.03.36.02.36.02.36.02.37.02.36.02.36.02.36.02.37.02.36.03.36.02.36.02.36.02.37-2.83.36.02.36.02.36.02.36.02.37.02.36.02.36.02.36.02.36.02.37.02.36.02.36.02.36.02.36.02.37.02.36.02.36.02.36.02.37.02.36.02.36.02.36.02.36.02.37.02.36.02.36.02.36.02.36.02.37.02.36.02.36.02.36.02.36.02.37.02.36.02.36.02.36.02.37.02.36.01.36.02.36.02.36.02.37.02.36.02.36.02.36.02.36.02.37.02.36.01.36.02.36.02.36.02.37.02.36.02.36.02.36.01.36.02.37.02.36.02.36.02.36.02.37.02.36.01.36.02.36.02.36.02.37.02.36.02.36.01.36-2.78.36.02.37.02.36.01.36.02.36.02.36.02.37.02.36.01.36.02.36.02.37.02.36.01.36.02.36.02.36.02.37.02.36.01.36.02.36.02.36.02.37.01.36.02.36.02.36.02.36.01.37.02.36.02.36.01.36.02.36.02.37.02.36.01.36.02.36.02.37.01.36.02.36.02.36.02.36.01.37.02.36.02.36.01.36.02.36.02.37.01.36.02.36.02.36.01.36.02.37.02.36.01.36.02.36.02.37.01.36.02.36.02.36.01.36.02.37.02.36.01.36.02.36.01.36.02.37.02.36.01.36.02.36.02.36.01.37.02.36.01.36.02.36.02.37.01.36.02.36.01.36.02.36.02.37.01.36.02.36.01.36.02.36.02.37.01.36.02.36.01.36.02.36.01.37.02.36.02.36.01.36.02.36.01.37.02.36.01.36.02.36.01.37.02.36.02.36.01.36.02.36.01.37.02.36.01.36.02.36.01.36.02.37.01.36.02.36.01.36.02.36.01.37.02.36.01.36.02.36.01.37.02.36.01.36.02.36.01.36.02.37.01.36.02.36.01.36.02.36.01.37.02.36.01.36.02.36.01.36.02.37.01.36.02.36.01.36.01.36.02.37.01.36.02.36.01.36.02.37.01.36.02.36.01.36.02.36.01.37.01.36.02.36.01.36.02.36.01.37.02.36.01.36.02.36.01.36.01.37.02.36.01.36.02.36.01.37.01.36.02.36.01.36.02.36.01.37.01.36.02.36.01.36.02.36.01.37.01.36.02.36.01.36.02.36.01.37.01.36.02.36.01.36.01.36.02.37.01.36.02.36.01.36.01.37.02.36.01.36.01.36.02.36.01.37.01.36.02.36.01.36.02.36.01.37.01.36.02.36.01.36.01.36.02.37.01.36.01.36.02.36.01.37.01.36.02.36.01.36.01.36.02.37.01.36.01.36.01.36.02.36.01.37.01.36.02.36.01.36.01.36.02.37.01.36.01.36.02.36.01.37.01.36.01.36.02.36.01.36.01.37.02.36.01.36.01.36.02.36.01.37.01.36.01.36.02.36.01.36.01.37.01.36.02.36.01.36.01.36.02.37.01.36.01.36.01.36.02.37.01.36.01.36.01.36.02.36.01.37.01.36.01.36.02.36.01.36.01.37.01.36.02.36.01.36.01.36.01.37.02.36.01.36.01.36.01.37.01.36.02.36.01.36.01.36.01.37.02.36.01.36.01.36.01.36.01.37.02.36.01.36.01.36.01.36.02.37.01.36.01.36.01.36.01.36.02.37.01.36.01.36.01.36.01.37.01.36.02.36.01.36.01.36.01.37.01.36.02.36.01.36.01.36.01.37.01.36.02.36.01.36.01.36.01.37.01.36.01.36.02.36.01.37.01.36.01.36.01.36.01.36.02.37.01.36.01.36.01.36.01.36.01.37.02.36.01.36.01.36.01.36.01.37.01.36.01.36.02.36.01.36.01.37.01.36.01.36.01.36-2.74.37.01.36.01.36.01.36.01.36.01.37.02.36.01.36.01.36.01.36.01.37.01.36.01.36.01.36.02.36.01.37.01.36.01.36.01.36.01.37.01.36.01.36.01.36.02.36.01.37.01.36.01.36.01.36.01.36.01.37.01.36.01.36.01.36.02.36.01.37.01.36.01.36.01.36.01.37.01.36.01.36.01.36.01.36.01.37.02.36.01.36.01.36.01.36.01.37.01.36.01.36.01.36.01.36.01.37.01.36.01.36.01.36.02.36.01.37.01.36.01.36.01.36.01.37.01.36.01.36.01.36.01.36.01.37.01.36.01.36.01"/><use xlink:href="#431c0__a" color="#00C853" transform="matrix(3.75 0 0 3.75 354.25 113.23)"/><use xlink:href="#431c0__a" color="#00C853" transform="matrix(3.75 0 0 3.75 95.45 7.51)"/></g><text stroke-linecap="round" stroke-linejoin="round" color="#000" font-family="KaTeX_Main" font-size="8" transform="translate(116 25.11)"><tspan>TreapFingerTree</tspan></text><g fill="none" stroke="currentColor" stroke-linecap="round" stroke-linejoin="round" color="#000"><path stroke="#3B75EA" d="M80.5 22.51h29.9M28 102.33l.36 6.65.36 3.54.37.25.36 7.02.36-19.35.36 6.51.36 3.46.37-15.34.36 9.38.36-11.9.36 25.37.37-24.95.36-2.7.36 15.21.36-11.91.36 3.14.37.19.36 3.19.36 3.24.36 6.46.36-6.1.37-11.73.36 3.07.36 18.68.36-18.34.36-2.73.37 3.06.36-2.74.36 3.06.36-11.15.36 14.41.37 9.32.36-11.96.36-8.4.36 11.64.37 9.31.36-11.97.36-8.41.36 5.79.36.14.37-8.27.36 23.55.36-25.99.36 11.25.36 5.98.37 3.12.36.13.36-19.84.36 5.6.36-8.02.37 13.91.36 5.97.36-14.13.36 20.42.37-17.43.36 14.61.36.11.36 9.45.36-9.22.37-2.89.36-11.38.36 2.91.36 2.95.36 8.96.37 3.16.36-8.9.36-8.44.36.1.36 20.76.37-20.56.36-5.37.36.1.36 20.07.37-40.13.36 20.36.36-5.2.36-12.47.36 29.07.37 2.99.36-5.65.36 11.79.36-22.55.36 22.73.37-22.54.36 2.75.36-20.17.36 28.62.36-2.71.37 5.73.36-13.7.36-2.54.36 5.38.36 2.8.37 5.64.36-10.86.36 2.75.36 11.2.37-21.47.36 15.98.36-10.68.36-5.06.36 10.51.37-15.34.36 10.2.36 16.49.36-13.71.36-10.2.37 5.14.36 7.96.36 11.19.36-8.33.36 2.83.37-13.28.36 13.42.36-5.39.36 14.09.37-19.25.36 5.37.36-12.88.36 13.02.36-10.37.37-4.91.36 20.96.36-5.41.36-10.36.36 13.21.37-13.08.36-7.36.36 10.04.36.07.36 10.66.37 2.82.36.07.36 2.86.36-23.62.36 5.05.37 13.2.36-5.31.36-5.16.36 2.65.37-2.52.36-2.49.36 5.2.36-5.08.36 5.2.37 2.68.36-19.9.36 9.75.36 7.7.36-5.07.37 18.76.36-23.63.36.05.36 5.05.36-4.93.37-2.38.36 4.97.36 10.33.36-2.57.37 2.68.36-15.14.36 12.62.36-2.53.36-9.92.37 4.97.36-7.27.36 15.02.36 2.68.36-7.71.37.05.36.06.36 5.19.36-10.07.36 20.94.37-2.71.36-2.66.36-7.83.36.05.36 5.26.37 8.19.36-10.71.36 2.68.36-5.17.37-9.92.36 2.48.36.05.36-2.39.36 2.49.37 2.52.36 10.33.36 5.43.36-29.95.36 30.04.37-18.08.36 10.17.36-2.54.36 2.63.36 13.61.37-13.52.36 8.06.36-15.61.36-7.27.37 20.3.36-10.39.36 7.81.36 2.72.36-7.84.37-14.71.36.05.36 17.38.36.04.36-5.09.37.04.36-4.94.36 10.17.36-7.61.36 7.69.37-5.09.36-7.38.36 4.95.36 2.56.37 2.59.36-7.49.36 18.17.36 2.8.36-8.1.37-2.59.36.05.36-5.1.36-4.94.36 7.57.37 2.63.36-14.93.36 2.45.36-9.38.36 2.35.37 17.12.36 7.93.36-24.94.36 33.29.36-21.18.37 2.55.36 2.59.36-7.5.36 2.51.37-7.27.36 20.3.36-20.23.36 7.36.36.04.37-2.44.36-2.4.36.04.36 7.46.36-2.48.37-2.43.36.03.36 5.03.36-2.48.36.04.37-14.3.36 7.05.36 4.88.36 10.16.37-2.55.36 13.39.36-10.73.36 8.04.36-2.67.37-7.85.36 7.92.36-2.64.36-10.24.36.04.37 18.45.36-15.87.36 2.58.36 10.63.36.04.37-20.54.36-7.08.36 14.58.36 7.79.36-22.26.37 9.58.36-7.18.36 12.23.36 13.18.37-18.09.36 15.45.36-5.27.36-17.3.36 17.37.37-19.64.36-2.28.36 16.88.36-19.09.36.04.37 24.28.36-2.55.36.03.36 7.92.36-24.94.37 25 .36-17.82.36 7.45.36 2.58.37.03.36-14.71.36 25.37.36-22.94.36 2.43.37-9.38.36 9.45.36 2.47.36 2.5.36-4.88.37-11.67.36 14.17.36-4.81.36 4.87.36-11.83.37 11.89.36-20.75.36 20.81.36-16.35.36-6.53.37.03.36 22.97.36-4.82.36 4.88.37 7.56.36 2.62.36 5.32.36-10.4.36 5.16.37.03.36-10.09.36 10.15.36 2.66.36-15.16.37-4.75.36 9.72.36-9.66.36 4.8.36 20.6.37-25.32.36 4.81.36-4.75.36 17.36.37-24.23.36 11.73.36 2.46.36-14.1.36 11.72.37 4.94.36-4.89.36-7.08.36-6.8.36 4.55.37 16.87.36-4.96.36-11.83.36 9.44.36 10 .37-14.72.36 19.99.36-2.6.36-12.53.37 7.45.36-12.17.36 9.71.36-12 .36-2.28.37 2.33.36 9.58.36 2.5.36-14.31.36 7.05.37 2.43.36 9.99.36-5.03.36-12 .36 4.73.37-2.34.36-6.9.36 16.64.36-4.89.36-4.75.37-4.62.36 4.67.36 4.8.36-11.67.37 16.63.36.03.36-16.58.36 11.72.36-4.76.37 7.24.36 10.15.36-14.94.36 2.43.36-16.13.37 16.18.36-4.75.36.02.36 7.24.36-4.82.37 9.85.36-14.51.36 12.05.36 5.08.37-19.37.36 11.89.36-2.42.36 12.59.36-7.63.37-2.45.36.02.36-9.52.36 4.73.36-11.51.37 16.4.36.02.36.03.36 2.49.36 5.09.37-14.73.36-2.31.36 2.36.36-4.62.36 16.86.37-7.4.36-7.09.36 4.73.36-4.68.37 14.56.36-4.97.36-4.82.36 2.43.36-4.75.37 4.79.36-11.67.36 11.72.36-4.75.36 4.79.37-7.09.36 9.58.36-18.58.36 9.07.36 2.36.37.02.36 4.8.36.02.36-7.09.37 14.56.36-14.52.36 17.11.36-9.95.36 4.93.37-16.58.36 11.71.36-7.09.36-6.81.36 6.85.37 7.14.36-26.8.36 10.68.36 11.41.36 2.39.37-20.21.36 17.88.36-9.15.36.03.37 9.18.36-15.7.36 8.82.36 19.14.36-12.18.37 7.24.36-7.19.36 9.7.36-7.29.36 7.34.37-14.32.36 9.44.36 4.94.36-12.01.36 17.11.37-12.36.36 9.85.36-2.49.36-7.3.36.02.37-22.31.36 19.98.36 2.39.36-2.35.37-2.32.36 2.36.36 9.71.36-7.3.36-11.51.37 4.53.36 9.44.36-16.13.36 2.23.36 11.56.37 2.42.36 7.45.36-23.56.36 16.17.36 2.46.37-22.92.36 33.08.36-14.95.36.02.37-4.69.36 4.73.36 4.86.36-2.42.36-16.13.37 23.6.36-14.52.36 7.13.36 7.44.36-30.04.37 13.24.36 4.66.36 12.22.36-14.52.36 9.57.37-7.19.36 2.38.36-4.69.36 4.73.36 7.34.37-14.32.36-13.19.36 25.09.36-9.53.37-13.37.36 22.95.36-14.11.36-2.23.36 23.93.37-12.36.36-6.99.36 9.43.36-7.09.36 22.32.37-17.58.36 12.4.36-7.52.36-22.92.36 20.52.37 2.46.36-2.42.36 9.99.36 5.23.37-7.75.36-12.18.36-6.9.36 26.9.36-35.67.37 15.74.36 4.8.36-4.76.36 14.76.36-12.36.37.02.36 9.85.36-7.41.36 2.46.36-4.83.37-9.27.36 11.71.36-4.76.36-4.62.36 7.03.37 7.33.36-7.3.36 2.42.36-18.32.37 25.78.36-7.41.36 10 .36-9.96.36-7.1.37-13.37.36 6.58.36 11.55.36-4.69.36 4.73.37 2.42.36-2.39.36 4.86.36.02.36 2.49.37-7.3.36-9.28.36.02.36 2.29.37 9.44.36 9.99.36-14.74.36-13.55.36 28.34.37-17.07.36 7.12.36-9.4.36-11.06.36 15.74.37-17.84.36 15.53.36 7.13.36-22.62.36 10.96.37-10.92.36.01.36 20.25.36-4.69.37-2.29.36-4.51.36-10.78.36 22.35.36-7 .37 4.66.36-6.9.36 16.62.36-7.3.36-7 .37 2.32.36 9.57.36-9.54.36 12.04.36-4.89.37-4.76.36-11.37.36 9.06.36 14.55.36-23.56.37 11.4.36 4.79.36-2.39.36-2.36.37-19.95.36 24.76.36.01.36 4.93.36-21.05.37 9.06.36-15.51.36 13.23.36-6.72.36 6.75.37 14.35.36-14.32.36 9.44.36.01.36.02.37 4.92.36-9.67.36 4.79.36 2.46.37-7.2.36-6.91.36 2.29.36 9.44.36-4.76.37-11.37.36 9.06.36-9.03.36 4.48.36-17.17.37 19.47.36-11.07.36 2.18.36 11.24.36-6.81.37 2.26.36 6.93.36-4.63.36 7.03.36-15.92.37 13.58.36-17.84.36 4.3.36-4.27.37 15.53.36-6.81.36-4.39.36 6.66.36-4.44.37 11.39.36-22.03.36 12.9.36-2.2.36-4.34.37-2.11.36 10.95.36-4.45.36-4.33.36 13.4.37-4.56.36 4.59.36-11.21.36-4.28.37 20.24.36 4.86.36-14.12.36.01.36-2.23.37 6.84.36-2.29.36 14.35.36-14.32.36-6.72.37.01.36.02.36 9.05.36-13.37.36 4.36.37-2.18.36 4.42.36-2.2.36-6.47.36.02.37-10.26.36 21.22.36-4.44.36-18.73.37 14.41.36 6.57.36-4.39.36 2.21.36-4.34.37 20.52.36-16.14.36 4.47.36-10.93.36 8.71.37 4.54.36-15.31.36 24.75.36-16.14.36.01.37 4.48.36-13.03.36 6.41.36 2.2.37 6.75.36-13.21.36 2.15.36 8.82.36.01.37-10.92.36-2.09.36-6.16.36 12.58.36 4.41.37-6.54.36 4.36.36-4.34.36 15.74.36-4.63.37-2.26.36-2.23.36.01.36-8.68.37 2.14.36-6.3.36 24.43.36-15.93.36-4.28.37 17.87.36-2.32.36-13.38.36 8.82.36-2.23.37-4.39.36 2.2.36-6.46.36 6.49.36.01.37 2.23.36 9.18.36-4.64.36-13.2.36 20.24.37-9.27.36-2.24.36 6.84.36 4.72.37-7 .36 2.32.36 7.13.36.01.36-4.76.37-4.64.36-2.26.36-2.23.36-2.2.36 9.05.37.01.36-17.61.36 17.64.36 9.56.36-9.54.37 4.72.36 4.86.36 2.49.36-21.06.37 13.76.36 4.86.36-16.37.36 9.18.36 2.38.37-15.92.36 8.93.36 2.32.36-13.38.36 18.11.37-4.69.36-2.3.36-6.72.36-2.18.36 8.94.37-2.26.36 9.3.36 2.41.36-2.39.36-7 .37 2.32.36-2.3.36-8.91.36 4.42.37 11.54.36-7 .36-4.51.36 4.53.36.02.37-13.21.36 10.95.36 4.6.36-6.82.36.02.37 9.17.36-6.91.36-2.23.36 9.18.36-24.09.37 14.95.36-8.69.36 10.95.36-8.79.37 2.17.36-4.28.36 30.07.36-9.82.36-2.36.37 7.23.36 10.13.36-5.12.36-4.98.36 10.14.37-10.11.36-2.43.36-13.93.36 6.84.36 4.72.37-4.7.36 12.04.36-23.24.36 11.24.36 7.12.37 2.45.36-4.83.36-4.7.36 7.13.37-4.77.36-6.91.36 6.94.36-2.33.36 14.55.37-4.98.36-9.54.36 2.35.36-6.91.36.02.37 9.3.36 2.41.36-4.76.36-13.56.36 6.66.37 2.29.36 7.02.36 7.33.36-9.67.37-6.91.36 11.7.36.01.36-20.49.36 18.11.37 2.42.36-2.4.36-9.28.36 11.71.36.01.37 7.44.36-7.42.36-11.68.36 4.59.36.01.37 4.72.36-7 .36 2.32.36 12.03.37-9.67.36 4.78.36-7.1.36.01.36 7.12.37-13.93.36 6.84.36-6.81.36 6.83.36-4.57.37-4.45.36 4.47.36 9.31.36.01.36-2.36.37 2.38.36-2.36.36.01.36 4.78.36-18.33.37 15.95.36-22.32.36 19.97.36-6.91.37 11.71.36-7.1.36-6.82.36 11.55.36 2.41.37-4.76.36-13.56.36 15.95"/><use xlink:href="#431c0__b" color="#3B75EA" transform="matrix(3.75 0 0 3.75 67.83 101.71)"/><use xlink:href="#431c0__b" color="#3B75EA" transform="matrix(3.75 0 0 3.75 95.45 22.51)"/></g><text stroke-linecap="round" stroke-linejoin="round" color="#000" font-family="KaTeX_Main" font-size="8" transform="translate(241.1 10.11)"><tspan>Randomized</tspan></text><g fill="none" stroke="currentColor" stroke-linecap="round" stroke-linejoin="round" color="#000"><path stroke="#FFAB00" d="M205.6 7.51h29.9M28 140.94l.36-3.65.36.25.37-3.56.36.24.36-3.49.36.23.36.23.37.22.36.22.36.21.36-7 .37.21.36.2.36.2.36-6.72.36.19.37-3.17.36.19.36.18.36.19.36.17.37.18.36.17.36.17.36.17.36.17.37.16.36.16.36.16.36.16.36.15.37.16.36.15.36.15.36.14.37.15.36.14.36.14.36.14.36.14.37.14.36.13.36.14.36.13.36.13.37.13.36.12.36.13.36.13.36.12.37.12.36.12.36.12.36.12.37.12.36.11.36.12.36.11.36.11.37.11.36.11.36.11.36.11.36.11.37.11.36.1.36.1.36.11.36.1.37.1.36.1.36.1.36.1.37.1.36.1.36.09.36.1.36.09.37.09.36.1.36.09.36.09.36.09.37.09.36.09.36.09.36.09.36.09.37.08.36.09.36.08.36.09.36.08.37.08.36-3.2.36.08.36.08.37.08.36.08.36.08.36.08.36.08.37.08.36.07.36.08.36.08.36.07.37.08.36.07.36.08.36.07.36.08.37.07.36.07.36.07.36.07.37.08.36.07.36.07.36.07.36.07.37.06.36.07.36.07.36.07.36.07.37.06.36.07.36.06.36.07.36.06.37.07.36.06.36.07.36.06.36-3.16.37.06.36.06.36.06.36.07.37.06.36.06.36.06.36.06.36.06.37.06.36.06.36.06.36-3.11.36.06.37.06.36.05.36.06.36.06.36.06.37.05.36.06.36.06.36.05.37.06.36.05.36.06.36.05.36.06.37.05.36.06.36.05.36.05.36.06.37.05.36.05.36.05.36.06.36.05.37.05.36.05.36.05.36.05.36.05.37.05.36.05.36.05.36.05.37.05.36.05.36.05.36.05.36.05.37.05.36-3.07.36.05.36.05.36.05.37.05.36.04.36.05.36.05.36.04.37.05.36.05.36.04.36.05.37.04.36.05.36.04.36.05.36.04.37.05.36.04.36.05.36.04.36.04.37.05.36.04.36.04.36.05.36.04.37.04.36.05.36.04.36.04.37.04.36.04.36.05.36.04.36.04.37.04.36.04.36.04.36.04.36.04.37.05.36.04.36.04.36.04.36.04.37.04.36.04.36.04.36.03.36.04.37.04.36.04.36.04.36.04.37.04.36.04.36.03.36.04.36.04.37.04.36.04.36.03.36.04.36.04.37.04.36.03.36.04.36.04.36.03.37.04.36.04.36.03.36.04.37.03.36.04.36.04.36.03.36.04.37.03.36.04.36.03.36.04.36.03.37.04.36.03.36.04.36.03.36.04.37.03.36.03.36.04.36.03.36.04.37.03.36.03.36.04.36.03.37.03.36.04.36.03.36.03.36.04.37.03.36.03.36.03.36.04.36.03.37.03.36.03.36.03.36.04.36.03.37.03.36.03.36.03.36.04.37.03.36.03.36.03.36.03.36.03.37.03.36.03.36.03.36.04.36.03.37.03.36.03.36.03.36.03.36.03.37.03.36.03.36.03.36.03.36.03.37.03.36.03.36.03.36.03.37.02.36.03.36.03.36.03.36.03.37.03.36.03.36.03.36.03.36.02.37.03.36.03.36.03.36.03.36.03.37.02.36.03.36.03.36.03.37.03.36.02.36.03.36.03.36.03.37.02.36.03.36.03.36.03.36.02.37.03.36.03.36.02.36.03.36.03.37.03.36.02.36.03.36.03.37.02.36.03.36.02.36.03.36.03.37.02.36.03.36.03.36.02.36.03.37.02.36.03.36.02.36.03.36.03.37.02.36.03.36.02.36.03.36.02.37.03.36.02.36.03.36.02.37.03.36.02.36.03.36.02.36.03.37.02.36.03.36.02.36.03.36.02.37.02.36.03.36.02.36.03.36.02.37.03.36.02.36.02.36.03.37.02.36.03.36.02.36.02.36.03.37.02.36.02.36.03.36.02.36.02.37.03.36.02.36.02.36.03.36.02.37.02.36.03.36.02.36.02.36.03.37.02.36.02.36.02.36.03.37.02.36.02.36.02.36.03.36.02.37.02.36.02.36.03.36.02.36.02.37.02.36.02.36.03.36.02.36.02.37.02.36.02.36.03.36.02.37.02.36.02.36.02.36.02.36.03.37.02.36.02.36.02.36.02.36.02.37.02.36.03.36.02.36.02.36.02.37.02.36.02.36.02.36.02.37.02.36.02.36.03.36.02.36.02.37.02.36.02.36.02.36.02.36.02.37.02.36.02.36.02.36.02.36.02.37.02.36.02.36.02.36.02.36.02.37.02.36.02.36.02.36.02.37.02.36.02.36.02.36.02.36.02.37-3.03.36.02.36.02.36.02.36.02.37.02.36.02.36.01.36.02.36.02.37.02.36.02.36.02.36.02.37.02.36.02.36.02.36.02.36.02.37.02.36.01.36.02.36.02.36.02.37.02.36.02.36.02.36.02.36.02.37.01.36.02.36.02.36.02.36.02.37.02.36.02.36.01.36.02.37.02.36.02.36.02.36.01.36.02.37.02.36.02.36.02.36.02.36.01.37.02.36.02.36.02.36.02.36.01.37.02.36.02.36.02.36.02.37.01.36.02.36.02.36.02.36.01.37.02.36.02.36.02.36.01.36.02.37.02.36.02.36.01.36.02.36.02.37.02.36.01.36.02.36.02.36.02.37.01.36.02.36.02.36.01.37.02.36.02.36.01.36.02.36.02.37.02.36.01.36.02.36.02.36.01.37.02.36.02.36.01.36.02.36.02.37.01.36.02.36.02.36.01.37.02.36.02.36.01.36.02.36.02.37.01.36.02.36.01.36.02.36.02.37.01.36.02.36.02.36.01.36.02.37.01.36.02.36.02.36.01.37.02.36.01.36.02.36.02.36.01.37.02.36.01.36.02.36.02.36.01.37.02.36.01.36.02.36.01.36.02.37.02.36.01.36.02.36.01.36.02.37.01.36.02.36.01.36.02.37.02.36.01.36.02.36.01.36.02.37.01.36.02.36.01.36.02.36.01.37.02.36.01.36.02.36.01.36.02.37.02.36.01.36.01.36.02.37.02.36.01.36.01.36.02.36.02.37.01.36.01.36.02.36.01.36.02.37.01.36.02.36.01.36.02.36.01.37.02.36.01.36.02.36.01.36.02.37.01.36.01.36.02.36.01.37.02.36.01.36.02.36.01.36.02.37.01.36.02.36.01.36.01.36.02.37.01.36.02.36.01.36.01.36.02.37.01.36.02.36.01.36.02.37.01.36.01.36.02.36.01.36.02.37.01.36.01.36.02.36.01.36.02.37.01.36.01.36.02.36.01.36.02.37.01.36.01.36.02.36.01.36.01.37.02.36.01.36.02.36.01.37.01.36.02.36.01.36.01.36.02.37.01.36.01.36.02.36.01.36.02.37.01.36.01.36.02.36.01.36.01.37.02.36.01.36.01.36.02.37.01.36.01.36.02.36.01.36.01.37.02.36.01.36.01.36.01.36.02.37.01.36.01.36.02.36.01.36.01.37.02.36.01.36.01.36.02.37.01.36.01.36.01.36.02.36.01.37.01.36.02.36.01.36.01.36.01.37.02.36.01.36.01.36.02.36.01.37.01.36.01.36.02.36.01.36.01.37.01.36.02.36.01.36.01.37.01.36.02.36.01.36.01.36.01.37.02.36.01.36.01.36.01.36.02.37.01.36.01.36.01.36.02.36.01.37.01.36.01.36.02.36.01.37.01.36.01.36.02.36.01.36.01.37.01.36.01.36.02.36.01.36.01.37.01.36.01.36.02.36.01.36.01.37.01.36.02.36.01.36.01.36.01.37.01.36.02.36.01.36.01.37.01.36.01.36.02.36.01.36.01.37.01.36.01.36.01.36.02.36.01.37.01.36.01.36.01.36.02.36.01.37.01.36.01.36.01.36.01.37.02.36.01.36.01.36.01.36.01.37.01.36.01.36.02.36.01.36.01.37.01.36.01.36.01.36.02.36.01.37-2.99.36.01.36.01.36.01.36.01.37.02.36.01.36.01.36.01.37.01.36.01.36.01.36.02.36.01.37.01.36.01.36.01.36.01.36.01.37.01.36.02.36-2.94.36.01.36.01.37.01.36.01.36.01.36.02.37.01.36.01.36.01.36.01.36.01.37.01.36-2.88.36.01.36.01.36.01.37.01.36.01.36.01.36.01.36.01.37.01.36.02.36.01.36.01.37.01.36.01.36.01.36.01.36.01.37.01.36.01.36.01.36.01.36.02.37.01.36.01.36.01.36.01.36.01.37-2.84.36.01.36.01.36.01.36.01.37.01.36.01.36.02.36.01.37.01.36.01.36.01.36.01.36.01.37.01.36.01.36.01"/><use xlink:href="#431c0__c" color="#FFAB00" transform="matrix(3.75 0 0 3.75 125.4 121.61)"/><use xlink:href="#431c0__c" color="#FFAB00" transform="matrix(3.75 0 0 3.75 220.55 7.51)"/></g><text stroke-linecap="round" stroke-linejoin="round" color="#000" font-family="KaTeX_Main" font-size="8" transform="translate(241.1 25.11)"><tspan>Zip</tspan></text><g fill="none" stroke="currentColor" stroke-linecap="round" stroke-linejoin="round" color="#000"><path stroke="#F44336" d="M205.6 22.51h29.9M28 93.16l.36.26.36.25.37.24.36.24.36.24.36.23.36.23.37.22.36.22.36-2.74.36.21.37.21.36.2.36.2.36.2.36.19.37.19.36.19.36.18.36.18.36.18.37.18.36.17.36.17.36.17.36.17.37.16.36.16.36.16.36.16.36.15.37.16.36.15.36.15.36.14.37.15.36.14.36.14.36.14.36.14.37.14.36.13.36.14.36.13.36.13.37.13.36.12.36.13.36.12.36.13.37.12.36.12.36.12.36.12.37.12.36.11.36.12.36.11.36.11.37.11.36.11.36.11.36.11.36.11.37.1.36.11.36.1.36.11.36.1.37.1.36.1.36.1.36.1.37.1.36.09.36.1.36.1.36.09.37.09.36.1.36.09.36.09.36.09.37.09.36.09.36.09.36.09.36.08.37.09.36-5.66.36-2.72.36.09.36.08.37-2.67.36.08.36.08.36.09.37.08.36-2.63.36.08.36.07.36.08.37.08.36.08.36.08.36.07.36.08.37.07.36.08.36.07.36.08.36.07.37-2.6.36.08.36.07.36.07.37.07.36.07.36.07.36.07.36.07.37.07.36.07.36.07.36.06.36.07.37.07.36.06.36.07.36.06.36.07.37.06.36.07.36.06.36.07.36.06.37.06.36.07.36.06.36.06.37.06.36.06.36.06.36.06.36.06.37.06.36.06.36.06.36.06.36.06.37.06.36.06.36.05.36.06.36.06.37.05.36.06.36.06.36.05.37.06.36.05.36.06.36.05.36.06.37.05.36.06.36.05.36.05.36.06.37.05.36.05.36.05.36.06.36.05.37.05.36.05.36.05.36.05.36.05.37.06.36.05.36.05.36.05.37.04.36.05.36.05.36.05.36.05.37.05.36-2.58.36.05.36-2.54.36.04.37.05.36.05.36.05.36.04.36.05.37.05.36.04.36.05.36.04.37.05.36.04.36.05.36.04.36.05.37.04.36.05.36.04.36.05.36.04.37.04.36.05.36.04.36.04.36.05.37.04.36.04.36.04.36.05.37.04.36.04.36.04.36.04.36.05.37.04.36.04.36.04.36.04.36.04.37.04.36.04.36.04.36.04.36-2.51.37-2.47.36-2.43.36.04.36.04.36.04.37.03.36.04.36.04.36.04.37.04.36.04.36-2.4.36-2.37.36.04.37-4.67.36.04.36.03.36.04.36-2.27.37.04.36.04.36.03.36.04.36.04.37.03.36.04.36.03.36.04.37.04.36.03.36.04.36.03.36.04.37.04.36.03.36.04.36.03.36.04.37.03.36.04.36.03.36.03.36.04.37.03.36.04.36.03.36.04.36.03.37.03.36.04.36.03.36.03.37.04.36.03.36.03.36.04.36.03.37.03.36.03.36.04.36.03.36.03.37.03.36.04.36.03.36.03.36.03.37.03.36.04.36.03.36.03.37.03.36.03.36.03.36.03.36.04.37-2.25.36.03.36.03.36.03.36.03.37.03.36.03.36.03.36.04.36.03.37.03.36.03.36.03.36.03.36.03.37.02.36.03.36.03.36.03.37.03.36.03.36.03.36.03.36.03.37.03.36.03.36.03.36.02.36.03.37.03.36.03.36.03.36.03.36.02.37.03.36.03.36.03.36.03.37.02.36.03.36.03.36-2.22.36.03.37.03.36.03.36.02.36.03.36.03.37.02.36.03.36.03.36.02.36.03.37.03.36.03.36.02.36.03.37.02.36.03.36.03.36.02.36.03.37.03.36.02.36.03.36.02.36.03.37.03.36.02.36.03.36.02.36.03.37.02.36.03.36.03.36.02.36.03.37.02.36.03.36.02.36.03.37.02.36.03.36.02.36.03.36.02.37.03.36.02.36.02.36.03.36.02.37.03.36.02.36.03.36.02.36.02.37.03.36.02.36.03.36.02.37.02.36.03.36.02.36.03.36.02.37.02.36.03.36.02.36.02.36.03.37.02.36.02.36.03.36.02.36.02.37.03.36.02.36.02.36.03.36.02.37.02.36.02.36.03.36.02.37.02.36.02.36.03.36.02.36.02.37.02.36.03.36.02.36.02.36.02.37.03.36.02.36.02.36.02.36.02.37.03.36.02.36.02.36.02.37.02.36.02.36.03.36.02.36.02.37.02.36.02.36.02.36.02.36.03.37.02.36.02.36.02.36.02.36.02.37.02.36.02.36.02.36.03.37.02.36.02.36.02.36.02.36.02.37.02.36.02.36.02.36.02.36.02.37.02.36.02.36.02.36.02.36.03.37.02.36.02.36.02.36.02.36.02.37.02.36.02.36.02.36.02.37.02.36.02.36.02.36.02.36.02.37.01.36.02.36.02.36.02.36.02.37.02.36.02.36.02.36.02.36.02.37.02.36.02.36.02.36.02.37.02.36.02.36.02.36.01.36.02.37.02.36.02.36.02.36.02.36.02.37.02.36.02.36.01.36.02.36.02.37.02.36.02.36.02.36.02.36.02.37.01.36.02.36.02.36.02.37.02.36.02.36.01.36.02.36.02.37.02.36.02.36.02.36.01.36.02.37.02.36.02.36.02.36.01.36.02.37.02.36.02.36.01.36.02.37.02.36.02.36.02.36.01.36.02.37.02.36.02.36.01.36.02.36.02.37.02.36.01.36.02.36.02.36.02.37.01.36.02.36.02.36.02.36.01.37.02.36.02.36.01.36.02.37.02.36.02.36.01.36.02.36.02.37.01.36.02.36.02.36.01.36.02.37.02.36.01.36.02.36.02.36.01.37.02.36.02.36.01.36.02.37.02.36.01.36.02.36.02.36.01.37.02.36.02.36.01.36.02.36.01.37.02.36.02.36.01.36.02.36.02.37.01.36.02.36.01.36.02.37.02.36.01.36.02.36.01.36.02.37.02.36.01.36.02.36.01.36.02.37.01.36.02.36.02.36.01.36.02.37.01.36.02.36.01.36.02.36.02.37.01.36.02.36.01.36.02.37.01.36.02.36.01.36.02.36.01.37.02.36.02.36.01.36.02.36.01.37.02.36.01.36.02.36.01.36.02.37.01.36.02.36.01.36.02.37.01.36.02.36.01.36.02.36.01.37.02.36.01.36.02.36.01.36.02.37.01.36.02.36.01.36.02.36.01.37.01.36.02.36.01.36.02.36.01.37.02.36.01.36.02.36.01.37.02.36.01.36.01.36.02.36.01.37.02.36.01.36.02.36.01.36.02.37.01.36.01.36.02.36.01.36.02.37.01.36.01.36.02.36.01.37.02.36.01.36.02.36.01.36.01.37.02.36.01.36.02.36.01.36.01.37.02.36.01.36.01.36.02.36.01.37.02.36.01.36.01.36.02.36.01.37.02.36.01.36.01.36.02.37.01.36.01.36.02.36.01.36.01.37.02.36.01.36.02.36.01.36.01.37.02.36.01.36.01.36.02.36.01.37.01.36.02.36.01.36.01.37.02.36.01.36.01.36.02.36.01.37.01.36.02.36.01.36.01.36.01.37.02.36.01.36.01.36.02.36.01.37.01.36.02.36.01.36.01.37.02.36.01.36.01.36.01.36.02.37.01.36.01.36.02.36.01.36.01.37.01.36.02.36.01.36.01.36.02.37.01.36.01.36.01.36.02.36.01.37.01.36.01.36.02.36.01.37.01.36.01.36.02.36.01.36.01.37.01.36.02.36.01.36.01.36.01.37.02.36.01.36.01.36.01.36.02.37.01.36.01.36.01.36.02.37.01.36.01.36.01.36.01.36.02.37.01.36.01.36.01.36.02.36.01.37.01.36.01.36.01.36.02.36.01.37.01.36.01.36.01.36.02.36.01.37.01.36.01.36.01.36.02.37.01.36.01.36.01.36.01.36.02.37.01.36.01.36.01.36.01.36.02.37.01.36.01.36.01.36.01.36.01.37.02.36.01.36.01.36.01.37.01.36.01.36.02.36.01.36.01.37.01.36.01.36.01.36.02.36.01.37.01.36.01.36.01.36.01.36.01.37.02.36.01.36.01.36.01.36.01.37.01.36.01.36.02.36.01.37.01.36.01.36.01.36.01.36.01.37.02.36.01.36.01.36.01.36.01.37.01.36.01.36.01.36.02.36.01.37.01.36.01.36.01.36.01.37.01.36.01.36.01.36.02.36.01.37.01.36.01.36.01.36.01.36.01.37.01.36.01.36.01.36.02.36.01.37.01.36.01.36.01.36.01.37.01.36.01.36.01.36.01.36.01.37.01.36.02.36.01.36.01.36.01.37.01.36.01.36.01.36.01.36.01.37.01.36.01.36.01.36.01.36.02.37.01.36.01.36.01.36.01.37.01.36.01.36.01.36.01.36.01.37.01.36.01.36.01"/><use xlink:href="#431c0__d" color="#F44336" transform="matrix(3.75 0 0 3.75 182.98 71.31)"/><use xlink:href="#431c0__d" color="#F44336" transform="matrix(3.75 0 0 3.75 220.55 22.51)"/></g><path fill="none" d="M28 45.01V162.5M371.99 45.01H28" color="#000"/></svg>