<svg xmlns="http://www.w3.org/2000/svg" xmlns:xlink="http://www.w3.org/1999/xlink" viewBox="0 0 400 200"><path fill="none" d="M0 0h400v200H0z"/><defs><path id="e6171__b" stroke="currentColor" stroke-width=".267" d="M-1-1h2v2h-2z"/><path id="e6171__a" stroke="currentColor" stroke-width=".267" d="m0-1.33-1.33 2h2.66z"/><path id="e6171__f" stroke="currentColor" stroke-width=".267" d="M0 1.33 1.265.411.782-1.067l-1.564-.009-.483 1.487z"/><use xlink:href="#e6171__a" id="e6171__d" fill="currentColor" stroke="none"/><use xlink:href="#e6171__b" id="e6171__c" stroke="currentColor" transform="rotate(45)"/><use xlink:href="#e6171__c" id="e6171__e" fill="currentColor" stroke="none"/></defs><path fill="none" stroke="#CCC" stroke-linecap="round" stroke-linejoin="round" stroke-width=".1" d="M46.1 162.5V45.01" class="e6171__gridline" color="#000"/><g fill="none" stroke-linecap="round" stroke-linejoin="round" stroke-width="0" color="#000"><path d="M46.1 162.5V155m0-109.99v7.5"/><text fill="#000" font-family="KaTeX_Main" font-size="8" text-anchor="middle" transform="translate(46.1 172.6)"><tspan> 1</tspan></text></g><path fill="none" stroke="#CCC" stroke-linecap="round" stroke-linejoin="round" stroke-width=".1" d="M82.31 162.5V45.01" class="e6171__gridline" color="#000"/><g fill="none" stroke-linecap="round" stroke-linejoin="round" stroke-width="0" color="#000"><path d="M82.31 162.5V155m0-109.99v7.5"/><text fill="#000" font-family="KaTeX_Main" font-size="8" text-anchor="middle" transform="translate(82.31 172.6)"><tspan> 2</tspan></text></g><path fill="none" stroke="#CCC" stroke-linecap="round" stroke-linejoin="round" stroke-width=".1" d="M118.52 162.5V45.01" class="e6171__gridline" color="#000"/><g fill="none" stroke-linecap="round" stroke-linejoin="round" stroke-width="0" color="#000"><path d="M118.52 162.5V155m0-109.99v7.5"/><text fill="#000" font-family="KaTeX_Main" font-size="8" text-anchor="middle" transform="translate(118.52 172.6)"><tspan> 3</tspan></text></g><path fill="none" stroke="#CCC" stroke-linecap="round" stroke-linejoin="round" stroke-width=".1" d="M154.73 162.5V45.01" class="e6171__gridline" color="#000"/><g fill="none" stroke-linecap="round" stroke-linejoin="round" stroke-width="0" color="#000"><path d="M154.73 162.5V155m0-109.99v7.5"/><text fill="#000" font-family="KaTeX_Main" font-size="8" text-anchor="middle" transform="translate(154.73 172.6)"><tspan> 4</tspan></text></g><path fill="none" stroke="#CCC" stroke-linecap="round" stroke-linejoin="round" stroke-width=".1" d="M190.94 162.5V45.01" class="e6171__gridline" color="#000"/><g fill="none" stroke-linecap="round" stroke-linejoin="round" stroke-width="0" color="#000"><path d="M190.94 162.5V155m0-109.99v7.5"/><text fill="#000" font-family="KaTeX_Main" font-size="8" text-anchor="middle" transform="translate(190.94 172.6)"><tspan> 5</tspan></text></g><path fill="none" stroke="#CCC" stroke-linecap="round" stroke-linejoin="round" stroke-width=".1" d="M227.15 162.5V45.01" class="e6171__gridline" color="#000"/><g fill="none" stroke-linecap="round" stroke-linejoin="round" stroke-width="0" color="#000"><path d="M227.15 162.5V155m0-109.99v7.5"/><text fill="#000" font-family="KaTeX_Main" font-size="8" text-anchor="middle" transform="translate(227.15 172.6)"><tspan> 6</tspan></text></g><path fill="none" stroke="#CCC" stroke-linecap="round" stroke-linejoin="round" stroke-width=".1" d="M263.36 162.5V45.01" class="e6171__gridline" color="#000"/><g fill="none" stroke-linecap="round" stroke-linejoin="round" stroke-width="0" color="#000"><path d="M263.36 162.5V155m0-109.99v7.5"/><text fill="#000" font-family="KaTeX_Main" font-size="8" text-anchor="middle" transform="translate(263.36 172.6)"><tspan> 7</tspan></text></g><path fill="none" stroke="#CCC" stroke-linecap="round" stroke-linejoin="round" stroke-width=".1" d="M299.57 162.5V45.01" class="e6171__gridline" color="#000"/><g fill="none" stroke-linecap="round" stroke-linejoin="round" stroke-width="0" color="#000"><path d="M299.57 162.5V155m0-109.99v7.5"/><text fill="#000" font-family="KaTeX_Main" font-size="8" text-anchor="middle" transform="translate(299.57 172.6)"><tspan> 8</tspan></text></g><path fill="none" stroke="#CCC" stroke-linecap="round" stroke-linejoin="round" stroke-width=".1" d="M335.78 162.5V45.01" class="e6171__gridline" color="#000"/><g fill="none" stroke-linecap="round" stroke-linejoin="round" stroke-width="0" color="#000"><path d="M335.78 162.5V155m0-109.99v7.5"/><text fill="#000" font-family="KaTeX_Main" font-size="8" text-anchor="middle" transform="translate(335.78 172.6)"><tspan> 9</tspan></text></g><path fill="none" stroke="#CCC" stroke-linecap="round" stroke-linejoin="round" stroke-width=".1" d="M371.99 162.5V45.01" class="e6171__gridline" color="#000"/><g fill="none" stroke-linecap="round" stroke-linejoin="round" stroke-width="0" color="#000"><path d="M371.99 162.5V155m0-109.99v7.5"/><text fill="#000" font-family="KaTeX_Main" font-size="8" text-anchor="middle" transform="translate(371.99 172.6)"><tspan> 10</tspan></text></g><g fill="none" stroke-linecap="round" stroke-linejoin="round" stroke-width="0" color="#000"><path d="M371.99 162.5h-7.5"/><text fill="#000" font-family="KaTeX_Main" font-size="8" transform="translate(378.99 165.1)"><tspan>0.00</tspan></text></g><g fill="none" stroke-linecap="round" stroke-linejoin="round" stroke-width="0" color="#000"><path d="M371.99 149.45h-7.5"/><text fill="#000" font-family="KaTeX_Main" font-size="8" transform="translate(378.99 152.05)"><tspan>5.00</tspan></text></g><g fill="none" stroke-linecap="round" stroke-linejoin="round" stroke-width="0" color="#000"><path d="M371.99 136.39h-7.5"/><text fill="#000" font-family="KaTeX_Main" font-size="8" transform="translate(378.99 138.99)"><tspan>10.00</tspan></text></g><g fill="none" stroke-linecap="round" stroke-linejoin="round" stroke-width="0" color="#000"><path d="M371.99 123.34h-7.5"/><text fill="#000" font-family="KaTeX_Main" font-size="8" transform="translate(378.99 125.94)"><tspan>15.00</tspan></text></g><g fill="none" stroke-linecap="round" stroke-linejoin="round" stroke-width="0" color="#000"><path d="M371.99 110.28h-7.5"/><text fill="#000" font-family="KaTeX_Main" font-size="8" transform="translate(378.99 112.88)"><tspan>20.00</tspan></text></g><g fill="none" stroke-linecap="round" stroke-linejoin="round" stroke-width="0" color="#000"><path d="M371.99 97.23h-7.5"/><text fill="#000" font-family="KaTeX_Main" font-size="8" transform="translate(378.99 99.83)"><tspan>25.00</tspan></text></g><g fill="none" stroke-linecap="round" stroke-linejoin="round" stroke-width="0" color="#000"><path d="M371.99 84.17h-7.5"/><text fill="#000" font-family="KaTeX_Main" font-size="8" transform="translate(378.99 86.77)"><tspan>30.00</tspan></text></g><g fill="none" stroke-linecap="round" stroke-linejoin="round" stroke-width="0" color="#000"><path d="M371.99 71.12h-7.5"/><text fill="#000" font-family="KaTeX_Main" font-size="8" transform="translate(378.99 73.72)"><tspan>35.00</tspan></text></g><g fill="none" stroke-linecap="round" stroke-linejoin="round" stroke-width="0" color="#000"><path d="M371.99 58.06h-7.5"/><text fill="#000" font-family="KaTeX_Main" font-size="8" transform="translate(378.99 60.66)"><tspan>40.00</tspan></text></g><g fill="none" stroke-linecap="round" stroke-linejoin="round" stroke-width="0" color="#000"><path d="M371.99 45.01h-7.5"/><text fill="#000" font-family="KaTeX_Main" font-size="8" transform="translate(378.99 47.61)"><tspan>45.00</tspan></text></g><path fill="none" d="M28 45.01V162.5M371.99 45.01H28" color="#000"/><text stroke-linecap="round" stroke-linejoin="round" stroke-width="0" color="#000" font-family="KaTeX_Main" font-size="10" text-anchor="middle" transform="rotate(-90 57.63 46.13)"><tspan font-weight="bold">Duration </tspan><tspan> in milliseconds</tspan></text><text stroke-linecap="round" stroke-linejoin="round" stroke-width="0" color="#000" font-family="KaTeX_Main" font-size="10" text-anchor="middle" transform="translate(199.99 195.75)"><tspan>Operations / 10</tspan><tspan dy="-5" font-size="8">6</tspan></text><text stroke-linecap="round" stroke-linejoin="round" color="#000" font-family="KaTeX_Main" font-size="8" transform="translate(132.8 10.11)"><tspan>Splay</tspan></text><g fill="none" stroke="currentColor" stroke-linecap="round" stroke-linejoin="round" color="#000"><path stroke="#29C3F6" d="M97.3 7.51h29.9M28 159.21l.36-.54.36.49.37-.49.36.48.36-.52.36.5.36-.52h.37l.36.49.36-.51.36.5.37-.5.36.48.36-.5.36-.04.36.52.37-.51.36.48.36-.47.36.49.36-.53.37-.02.36.52.36-.51.36.5.36-.52.37.5.36-.51.36.49.36-.5.36-.01.37.5.36-.52.36.01.36.47.37-.49.36.48.36-.5.36.49.36-.51.37.5.36-.52.36.01.36.47.36-.49.37.5.36-.49.36.49.36-.52.36-.03.37.49.36-.5.36.5.36-.53.37.02.36.47.36-.48.36.49.36-.53.37.53.36-.53.36.51.36-.52.36.5.37-.5h.36l.36.48.36-.51.36.04.37.46.36-.5.36.49.36-.52.37.51.36-.49.36.48.36-.52h.36l.37.51.36-.51.36.47.36-.5.36.52.37-.54.36.02.36.47.36-.49.36.5.37-.53.36.03.36.46.36-.48.36.51.37-.51.36.5.36-.53.36.5.37-.51.36.02.36.45.36-.47.36-.03.37.48.36-.47.36.52.36-.52.36.47.37-.52.36.52.36-.54.36.55.36-.52.37.01.36.5.36-.53.36.52.37-.53.36.52.36-.53.36.02.36.5.37-.52.36.51.36-.51.36-.03.36.53.37-.5.36.5.36-.51.36.46.36-.51.37.52.36-.51.36.01.36.5.36-.49.37-.06.36.51.36-.47.36.47.37-.5.36.5.36-.51.36.51.36-.51.37.05.36.43.36-.49.36.5.36-.52.37.5.36-.5.36.5.36-.5.36-.03.37.54.36-.53.36.5.36-.52.37.01.36.5.36-.5.36.49.36-.51.37.51.36-.54.36.55.36-.54.36.02.37.47.36-.49.36-.03.36.5.36-.46.37.47.36-.48.36.49.36-.5.36.5.37-.52h.36l.36.5.36-.49.37.44.36-.46.36.49.36-.48.36.48.37-.52.36.01.36.49.36-.51.36.04.37.43.36-.44.36.47.36-.49.36.49.37-.47.36.49.36-.56.36.53.37-.55.36.03.36.48.36-.43.36-.05.37.48.36-.48.36.47.36-.49.36.52.37-.53.36.51.36-.52.36.01.36.47.37-.48.36.47.36-.48.36.52.37-.54.36.54.36-.51.36-.04.36.51.37-.44.36-.04.36.48.36-.52.36.5.37-.51.36.53.36-.49.36.51.36-.54.37.03.36.46.36-.46.36.45.36-.47.37-.03.36.52.36-.51.36.44.37-.47.36.48.36-.48.36.5.36-.48.37-.04.36.47.36-.47.36.53.36-.54.37.47.36-.48.36.47.36-.45.36-.03.37.5.36-.5.36.02.36.45.37-.47.36.51.36-.5.36.44.36-.46.37.51.36-.55.36.04.36.44.36-.47.37.52.36-.51.36.02.36.45.36-.46.37.5.36-.52.36.5.36-.51.36.02.37.45.36-.44.36.44.36-.48.37.5.36-.52.36.5.36-.52.36.51.37-.48.36-.01.36.49.36-.5.36.02.37.45.36-.48.36.5.36-.51.36.52.37-.53.36.49.36-.52h.36l.37.51.36-.52.36.51.36-.54.36.03.37.52.36-.53.36.53.36-.52.36.5.37-.49h.36l.36.45.36-.45.36.45.37-.45.36.45.36-.47.36.5.36-.52.37.02.36.43.36-.48.36.02.37.48.36-.48.36.55.36-.55.36.47.37-.46.36.47.36-.5.36.51.36-.5.37-.03.36.53.36-.53.36.52.36-.5.37.01.36.51.36-.54.36.52.37-.52.36.48.36-.55.36.03.36.52.37-.51.36.53.36-.51.36.47.36-.5.37.51.36-.5h.36l.36.48.36-.48.37.03.36.43.36-.47.36.51.37-.51.36.48.36-.48.36.47.36-.48.37.04.36.42.36-.48.36.49.36-.49.37.48.36-.52.36.03.36.5.36-.51.37.5.36-.5.36.53.36-.51.36-.03.37.5.36-.53.36.53.36-.51.37.5.36-.52.36.54.36-.51.36.03.37.42.36-.43.36-.03.36.47.36-.49.37.51.36-.53.36.53.36-.56.36.53.37-.48h.36l.36.44.36-.45.37.47.36-.48.36.52.36-.6.36.04.37.53.36-.53.36.48.36-.49.36.04.37.4.36-.4.36.45.36-.53.36.53.37-.51.36.51.36-.5.36.5.36-.51.37-.02.36.49.36-.43.36-.04.37.5.36-.53.36.57.36-.51.36.5.37-.57.36.53.36-.52.36.03.36.47.37-.43.36.46.36-.53.36.52.36-.54.37.06.36.47.36-.51.36.5.37-.51.36.02.36.42.36-.45.36.46.37-.49.36.55.36-.5.36.48.36-.53.37.03.36.42.36-.46.36.08.36.37.37-.38.36.44.36-.52.36.55.37-.53.36.47.36-.46.36.52.36-.55.37.02.36.53.36-.53.36.51.36-.51.37.49.36-.52.36.01.36.5.36-.49.37.49.36-.46.36-.03.36.5.36-.5.37.51.36-.53.36.5.36-.52.37.51.36-.47.36-.02.36.46.36-.45.37-.03.36.46.36-.45.36.5.36-.51.37.52.36-.54.36.51.36-.52.36.07.37.39.36-.45.36.51.36-.53.37.52.36-.48.36.44.36-.45.36-.04.37.51.36-.47.36.49.36-.45.36-.04.37.49.36-.51.36.51.36-.55.36.54.37-.55.36.56.36-.57.36.04.36.48.37-.49.36-.01.36.49.36-.5.37.45.36-.5.36.55.36-.52.36.5.37-.5.36.03.36.49.36-.5.36.44.37-.52.36.51.36-.46.36.52.36-.52.37.01.36.53.36-.53.36-.04.37.48.36-.47.36.49.36-.49.36.49.37-.52.36.55.36-.56.36.54.36-.53.37.01.36.51.36-.52.36.05.36.44.37-.45.36.45.36-.48.36.49.36-.5.37.5.36-.52.36.04.36.47.37-.47.36.46.36-.47.36.45.36-.44.37.48.36-.53.36-.02.36.57.36-.55.37.04.36.46.36-.48.36.5.36-.53.37.49.36-.47.36.51.36-.51h.37l.36.42.36-.41.36.47.36-.49.37.02.36.45.36-.51.36.51.36-.54.37.57.36-.53.36.51.36-.52.36.02.37.5.36-.51.36.47.36-.51.37.5.36-.47.36.51.36-.52.36.01.37.52.36-.48.36-.05.36.46.36-.43.37.48.36-.5.36.49.36-.5.36.48.37-.46.36.02.36.4.36-.38.36.38.37-.49h.36l.36.57.36-.57.37.57.36-.5.36.43.36-.52.36.09.37.43.36-.5.36.51.36-.46.36.47.37-.48.36.48.36-.52.36.46.36-.42.37.01.36.43.36-.47.36.01.37.45.36-.49.36.48.36-.49.36.56.37-.5.36.45.36-.46.36.01.36.46.37-.5.36.45.36-.5.36.01.36.48.37-.46.36.53.36-.58.36.55.36-.5h.37l.36.44.36-.44.36.52.37-.5.36.49.36-.56.36.49.36-.48.37.03.36.41.36-.47.36.08.36.44.37-.43.36.48.36-.55.36.49.36-.51.37.51.36-.5.36.5.36-.52.37.09.36.4.36-.46.36.52.36-.5.37-.02.36.48.36-.47.36.5.36-.55.37.49.36-.47.36.07.36.42.36-.51.37.48.36-.49.36.5.36-.46.36.47.37-.5.36.04.36.45.36-.48.37-.03.36.48.36-.44.36.48.36-.47.37.5.36-.53.36.51.36-.54.36.07.37.44.36-.43.36.41.36-.47.36.53.37-.54h.36l.36.51.36-.49.37.49.36-.51.36.51.36-.5.36.02.37.47.36-.49.36.52.36-.52.36.5.37-.55.36.52.36-.5.36.04.36.45.37-.45.36-.02.36.47.36-.44.37.45.36-.48.36.45.36-.46.36.49.37-.48h.36l.36.43.36-.45.36.49.37-.5.36.58.36-.58.36.02.36.47.37-.48.36.54.36-.57.36.04.36.43.37-.44.36.49.36-.57.36.55.37-.55.36.57.36-.51.36.47.36-.48.37.01.36.45.36-.47.36.02.36.44.37-.46.36.49.36-.49.36.5.36-.5.37.5.36-.49.36-.06.36.45.37-.4.36.46.36-.48.36.45.36-.45.37-.02.36.54.36-.53.36.48.36-.48h.37l.36.48.36-.53.36.54.36-.47.37.49.36-.51.36.48.36-.49.36.02.37.49.36-.54.36.08.36.42.37-.47.36.53.36-.54.36.49.36-.45.37.51.36-.55.36.49.36-.47.36.01.37.46.36-.48.36.48.36-.48.36.49.37-.47.36-.06.36.53.36-.57.37.56.36-.55h.36l.36.56.36-.54.37.52.36-.51.36.42.36-.41.36.45.37-.54.36.06.36.5.36-.45.36-.09.37.55.36-.58.36.5.36-.38.36.45.37-.48.36.49.36-.51.36.04.37.43.36-.46.36.47.36-.5.36.53.37-.5.36.42.36-.51.36.05.36.5.37-.5.36.55.36-.52.36-.02.36.47.37-.44.36.46.36-.47.36.44.37-.45.36.5.36-.6.36.09.36.43.37-.47.36-.01.36.48.36-.46.36.46.37-.45.36.45.36-.49.36.5.36-.51.37.07.36.46.36-.45.36.47.37-.51.36.49.36-.49.36.44.36-.44.37-.01.36.51.36-.51.36.05.36.43.37-.44.36.44.36-.48.36.5.36-.55.37.54.36-.5.36.52.36-.56.36.02.37.49.36-.52.36.04.36.53.37-.46.36.43.36-.51.36.5.36-.48.37.52.36-.52.36-.02"/><use xlink:href="#e6171__b" color="#29C3F6" transform="matrix(3.75 0 0 3.75 354.25 156.76)"/><use xlink:href="#e6171__b" color="#29C3F6" transform="matrix(3.75 0 0 3.75 112.25 7.51)"/></g><text stroke-linecap="round" stroke-linejoin="round" stroke-width=".5" color="#000" font-family="KaTeX_Main" font-size="8" transform="translate(132.8 25.11)"><tspan>AVLBottomUp</tspan></text><g fill="none" stroke="currentColor" stroke-linecap="round" stroke-linejoin="round" stroke-width=".5" color="#000"><path stroke="#000" d="M97.3 22.51h29.9M28 157.7l.36.48.36-.52.37.01.36.46.36-.47.36.46.36-.51.37.51.36-.5h.36l.36.5.37-.51.36.5.36-.51.36-.05.36.53.37-.49.36.48.36-.49.36.49.36-.51.37.49.36-.5.36.49.36-.53.36.02.37.49.36-.53h.36l.36.5.36-.51.37.51.36-.5.36.49.36-.52.37.46.36-.5h.36l.36.46.36-.48.37.49.36-.51.36.5.36-.51.36-.02.37.52.36-.49.36.5.36-.51.36-.02.37.49.36-.5.36.5.36-.53.37.51.36-.51.36.49.36-.5.36.02.37.48.36-.5.36-.01.36.48.36-.49.37.51.36-.51.36.48.36-.5.36.52.37-.55.36.51.36-.5.36.01.37.48.36-.5.36.52.36-.54.36.52.37-.49.36-.03.36.5.36-.5.36.49.37-.51h.36l.36.47.36-.49.36.48.37-.53.36.54.36-.5.36.49.36-.49.37.02.36.45.36-.48.36-.02.37.49.36-.49.36.48.36-.51.36.49.37-.5.36.48.36-.48.36-.01.36.45.37-.45.36.47.36-.5.36.51.36-.49.37.5.36-.51.36-.02.36.49.37-.52.36.51.36-.52.36.02.36.5.37-.48.36.48.36-.5.36.48.36-.47.37.49.36-.5.36.01.36.44.36-.49.37-.01.36.51.36-.48.36.48.36-.47.37.45.36-.5.36.52.36-.51.37.01.36.45.36-.47.36.47.36-.46.37.49.36-.52.36.49.36-.49.36-.01.37.49.36-.49.36.02.36.45.36-.46.37.49.36-.5.36.48.36-.48.37.48.36-.49.36.47.36-.47.36-.01.37.47.36-.49.36.03.36.46.36-.51.37.49.36-.48.36.47.36-.5.36.53.37-.5.36.02.36.46.36-.49.36.48.37-.5.36.48.36-.46.36.49.37-.52h.36l.36.49.36-.47.36-.01.37.48.36-.47.36.46.36-.49.36.53.37-.55.36.5.36-.49.36.03.36.45.37-.46.36.48.36-.52.36.01.37.46.36-.47.36.48.36-.47.36.45.37-.49.36.52.36-.51.36-.01.36.5.37-.48.36.47.36-.51.36.51.36-.52.37.48.36-.49.36.02.36.48.37-.5.36.04.36.47.36-.51.36.49.37-.44.36.44.36-.46.36.44.36-.51.37.01.36.48.36-.48.36.5.36-.47.37-.02.36.48.36-.49.36.48.36-.46.37.48.36-.5.36.02.36.42.37-.46.36.46.36-.44.36.46.36-.46.37.44.36-.51.36.5.36-.47.36-.02.37.47.36-.49h.36l.36.48.36-.5.37.51.36-.48.36.48.36-.5.37.49.36-.5.36.03.36.44.36-.47.37.51.36-.52.36.01.36.47.36-.48.37.52.36-.52.36.49.36-.5.36.01.37.48.36-.49.36.5.36-.48.36.47.37-.48.36.49.36-.52.36.02.37.46.36-.48.36.04.36.42.36-.45.37.48.36-.51.36.49.36-.49.36.51.37-.52.36.5.36-.48h.36l.36.49.37-.49.36.48.36-.51.36-.01.37.51.36-.49.36.48.36-.51.36.51.37-.48h.36l.36.5.36-.5.36.46.37-.47.36.46.36-.51.36.51.36-.5.37.04.36.41.36-.45h.36l.36.45.37-.48.36.48.36-.48.36.48.37-.48.36.49.36-.46.36-.01.36.46.37-.47.36.46.36-.45.36.47.36-.49.37-.03.36.52.36-.5.36.49.36-.48.37.49.36-.49.36-.02.36.45.37-.44.36.47.36-.49.36.48.36-.48.37.48.36-.47.36.03.36.43.36-.48.37.01.36.45.36-.47.36.49.36-.46.37.48.36-.53.36.49.36-.45.37-.01.36.47.36-.47.36.47.36-.47.37.5.36-.54h.36l.36.49.36-.48.37.47.36-.5.36.04.36.45.36-.47.37.48.36-.48.36.49.36-.48.36.48.37-.47.36.45.36-.48h.36l.37.47.36-.49.36.01.36.48.36-.46.37.44.36-.44.36.45.36-.47.36.47.37-.48.36-.01.36.49.36-.52.36.51.37-.47.36.47.36-.52.36.03.37.5.36-.51.36.5.36-.49.36-.02.37.5.36-.5.36.48.36-.47.36.5.37-.54.36.52.36-.51.36.01.36.46.37-.49h.36l.36.49.36-.48.36.5.37-.51.36.49.36-.47.36.46.37-.49.36.49.36-.47.36-.02.36.48.37-.49.36.5.36-.51.36.5.36-.49.37.01.36.48.36-.49.36.48.36-.53.37.04.36.48.36-.48.36.45.37-.47.36.41.36-.47.36.53.36-.46.37-.03.36.5.36-.49h.36l.36.44.37-.46.36.46.36-.49.36.53.36-.51.37.52.36-.52.36-.04.36.52.37-.49.36.47.36-.45.36.45.36-.46.37.47.36-.48.36-.03.36.53.36-.51.37.49.36-.52.36.03.36.48.36-.48.37.45.36-.45.36.46.36-.48.36.48.37-.46.36-.02.36.46.36-.49.37.03.36.48.36-.5.36.46.36-.46.37.47.36-.5.36.5.36-.48.36-.01.37.5.36-.49.36.47.36-.46.36.5.37-.54.36.5.36-.49.36-.02.37.51.36-.5.36.01.36.47.36-.45.37.44.36-.45.36.48.36-.48.36.48.37-.49.36.47.36-.49h.36l.36.47.37-.49.36.04.36.43.36-.46.36.48.37-.47.36.47.36-.47.36.49.37-.51.36.01.36.48.36-.48.36.47.37-.47.36.5.36-.49.36.47.36-.51.37-.02.36.48.36-.47.36.03.36.44.37-.44.36.48.36-.49.36.45.37-.47.36.49.36-.48.36.02.36.45.37-.47.36.49.36-.47.36-.01.36.48.37-.5.36.5.36-.5.36.5.36-.5.37.5.36-.52.36.02.36.45.36-.46.37.47.36-.47.36.48.36-.49.37.47.36-.49.36.02.36.47.36-.48.37.02.36.46.36-.49.36.52.36-.49.37.48.36-.47.36.48.36-.48.36.01.37.44.36-.46.36.48.36-.48h.37l.36.46.36-.46.36.48.36-.49.37.47.36-.48.36.01.36.45.36-.49.37.5.36-.5.36.47.36-.47.36.49.37-.47.36.47.36-.49.36-.04.37.5.36-.48.36.05.36.43.36-.45.37.47.36-.46.36.44.36-.5.36.53.37-.51.36.01.36.47.36-.45.36.44.37-.46h.36l.36.43.36-.41.36.43.37-.47.36.46.36-.45.36-.05.37.52.36-.46.36.46.36-.47.36.48.37-.5.36.48.36-.46.36.01.36.45.37-.47.36.01.36.44.36-.48.36.52.37-.48.36.45.36-.49.36.48.37-.48.36.48.36-.51.36.02.36.49.37-.46.36.45.36-.44.36-.01.36.47.37-.51.36.5.36-.51.36.51.36-.5h.37l.36.51.36-.48.36.48.36-.51.37.5.36-.49.36.49.36-.47.37.01.36.44.36-.48.36.02.36.45.37-.48.36.45.36-.47.36.51.36-.45.37.48.36-.49.36-.03.36.45.36-.46.37.49.36-.47.36.46.36-.49.37.03.36.47.36-.49.36.5.36-.5.37.48.36-.48h.36l.36.47.36-.49.37.45.36-.46.36.53.36-.53.36.49.37-.52h.36l.36.49.36-.45.36-.01.37.47.36-.46.36.47.36-.46.37.46.36-.5.36.49.36-.47.36.03.37.45.36-.49.36.49.36-.5.36.52.37-.5.36-.01.36.48.36-.5.36.53.37-.51.36.01.36.41.36-.43.37.45.36-.44.36.49.36-.51.36.48.37-.47.36.49.36-.48.36-.02.36.49.37-.52.36.04.36.46.36-.45.36.48.37-.51.36.47.36-.47.36.5.37-.54.36.03.36.45.36-.44.36.51.37-.47.36.45.36-.51h.36l.36.5.37-.48.36.51.36-.54.36.05.36.42.37-.43.36.49.36-.52.36.49.36-.51.37.52.36-.47.36-.02.36.47.37-.5.36.05.36.43.36-.47.36.49.37-.47.36.46.36-.47.36.48.36-.49.37.49.36-.51.36.02.36.47.36-.47.37.49.36-.48.36.45.36-.49.37.02.36.49.36-.5.36.48.36-.47h.37l.36.51.36-.5.36.47.36-.51.37.5.36-.47.36.46.36-.47.36.01.37.48.36-.45.36-.03.36.46.36-.46.37.48.36-.54.36.55.36-.51.37.49.36-.48.36.03.36.45.36-.47.37.49.36-.51.36.49.36-.46.36.49.37-.5.36-.01.36.48.36-.52.36.52.37-.49.36-.01.36.5.36-.51.37.5.36-.52.36.47.36-.44.36.44.37-.45h.36l.36.44.36-.45.36-.02.37.44.36-.43.36.48.36-.47.36.45.37-.44.36.43.36-.46.36.04.36.45.37-.46.36.47.36-.49.36.48.37-.48.36.48.36-.49.36-.01.36.51.37-.51.36.01.36.43.36-.42.36.47.37-.48.36.51.36-.5.36.46.36-.47.37.49.36-.5.36.01.36.46.37-.48.36.03.36.45.36-.47.36.46.37-.49.36.48.36-.45.36.49.36-.49.37-.02.36.48.36-.52.36.52.36-.49.37.52.36-.49.36.5.36-.48.37-.03.36.48.36-.5h.36l.36.49.37-.47.36.48.36-.52.36.51.36-.49.37.52.36-.52.36.04.36.43.36-.5.37.5.36-.5.36.04.36.44.36-.49.37.52.36-.51.36.51.36-.49.37.52.36-.5.36-.02.36.46.36-.44.37.48.36-.48.36.44"/><use xlink:href="#e6171__d" transform="matrix(3.75 0 0 3.75 67.83 157.05)"/><use xlink:href="#e6171__d" transform="matrix(3.75 0 0 3.75 112.25 22.51)"/></g><text stroke-linecap="round" stroke-linejoin="round" color="#000" font-family="KaTeX_Main" font-size="8" transform="translate(241.1 10.11)"><tspan>LBSTRelaxed</tspan></text><g fill="none" stroke="currentColor" stroke-linecap="round" stroke-linejoin="round" color="#000"><path stroke="#FFAB00" stroke-dasharray="4.0,2.0,1.0,2.0" d="M205.6 7.51h29.9M28 157.16l.36-.3.36.67.37-4.42.36 4.53.36-.75.36.86.36-.71.37-.67.36 1.21.36-.75.36.76.37-2.18.36 2.12.36-.73.36.69.36-.62.37-.32.36.92.36-.73.36.24.36-9.78.37 9.74.36.22.36-.09.36-.29.36.22.37.25.36-.28.36-1.57.36 2.21.36-.64.37.28.36-.29.36-.16.36.09.37-.19.36.69.36-4.55.36 4.62.36-.36.37.11.36-.33.36-.69.36 1.25.36-.78.37.72.36-2.13.36 2.14.36-.77.36.92.37-.71.36-.65.36 1.14.36-.65.37.12.36-9.9.36 10.04.36.17.36-.24.37-.22.36.17.36.69.36-.89.36.2.37-1.14.36 1.18.36.31.36-.35.36-.1.37.06.36.15.36.13.36-.32.37-3.39.36 3.5.36-.28.36.77.36-1.23.37 1.2.36-.77.36.87.36-2.06.36 1.71.37-.37.36.36.36-.28.36-.71.36 1.19.37-.77.36.31.36-23.23.36 23.12.36.12.37-.01.36-.48.36.46.36.23.37-.1.36-.17.36-1.24.36 1.22.36.29.37-.29.36-.16.36.18.36-.29.36.92.37-4.86.36 4.76.36-.5.36-.28.36.78.37-1.23.36 1.16.36-.73.36.73.37-2.16.36 2.29.36-.68.36-.21.36.76.37-1.2.36 1.15.36-.74.36.27.36-10.11.37 10.11.36.27.36-.13.36.3.36-1.14.37 1.18.36-.75.36.26.36-1.2.36 1.17.37.26.36-.11.36.29.36-1.07.37.54.36.38.36-.41.36-3.57.36 3.66.37-.22.36.7.36-1.22.36 1.4.36-.69.37.24.36-.25.36-1.21.36 1.26.36-.26.37.68.36-.94.36.37.36.54.37-.74.36-22.47.36 22.63.36.33.36-.18.37.48.36-1.26.36.77.36.24.36-.27.37-1.23.36 1.22.36.28.36-.13.36.35.37-1.12.36.61.36.32.36-.36.36-3.6.37 3.66.36-.21.36.68.36-.67.37.33.36-.12.36.21.36-.19.36-1.16.37 1.08.36-.17.36.68.36-.43.36-.75.37 1.15.36-.7.36.66.36-10.94.36 10.99.37-.66.36.65.36-1.29.36.81.37.19.36-.05.36.31.36-2.11.36 2.12.37-.64.36.61.36-1.15.36.67.36.64.37-.9.36-2.69.36 2.16.36.73.36.17.37-.07.36-.31.36.26.36.24.37-.12.36.34.36-2.12.36 1.65.36.28.37-.29.36-.73.36 1.18.36-.53.36-47.87.37 47.68.36.28.36-.07.36-.76.36.78.37.16.36.05.36-.22.36-2.12.36 2.28.37.14.36-.22.36-.23.36.34.37-.16.36.22.36-.18.36-4.28.36 4.73.37-.73.36.75.36-1.22.36 1.38.36-.68.37.27.36-.32.36-1.57.36 2.19.36-.78.37.68.36-1.23.36.93.36.29.37-.74.36-9.79.36 9.93.36.64.36-.77.37.85.36-1.33.36.69.36.25.36-.08.37-.37.36-.69.36 1.46.36-.8.36.84.37-1.31.36.73.36.23.36-.1.36-4.39.37 4.68.36-.3.36-.01.36-.07.37-.29.36.22.36.24.36-.15.36-.28.37-.8.36.95.36.24.36-.22.36-.75.37 1.19.36-.59.36-1.72.36-19.83.36 22.11.37-.69.36.22.36-.31.36.27.37.7.36-.97.36.76.36-2.37.36 2.45.37-.76.36.73.36-1.28.36.76.36.64.37-.91.36.2.36-3.78.36 3.81.36.23.37-.2.36-.24.36.24.36.68.36-.92.37.2.36-1.21.36 1.34.36.11.37-.22.36-.75.36 1.36.36-.71.36.23.37-11.11.36 11.54.36-.56.36-.24.36.78.37-1.4.36 1.36.36-.82.36.73.36-2.19.37 2.41.36-.61.36-.29.36.75.37-1.3.36 1.27.36-.77.36.38.36-3.92.37 3.71.36.8.36-.97.36.82.36-1.32.37 1.3.36-.8.36.37.36-1.3.36 1.11.37.55.36-.76.36.31.36-.31.37.23.36-47.97.36 47.55.36.74.36-.71.37.42.36-.4.36.38.36.47.36-.55.37.58.36-2.36.36 2.37.36-.66.36.23.37-.33.36.41.36-.08.36.19.36-.23.37-3.8.36 3.8.36.31.36-.29.37-.25.36.23.36.21.36.03.36-.25.37-1.2.36 1.33.36.11.36-.23.36-.79.37 1.46.36-.71.36.24.36-10.76.36 10.97.37-.39.36-.26.36.81.36-1.34.37 1.26.36-.76.36.91.36-1.97.36 1.37.37-.01.36-.28.36.77.36-1.31.36.77.37.47.36-.64.36-3.6.36 3.84.36.4.37-.77.36.82.36-1.33.36.79.36.18.37-.08.36.33.36-2.16.36 2.18.37-.71.36.2.36-.23.36.2.36.64.37-.95.36-23.17.36 23.98.36-.76.36.81.37-1.24.36 1.36.36-.61.36.22.36-.21.37-1.37.36 1.48.36-.34.36.71.37-1.26.36.95.36.27.36-.78.36.86.37-4.82.36 4.8.36-.77.36.79.36-1.33.37.97.36.28.36-.79.36.87.36-2.27.37 2.24.36-.77.36.26.36.54.37-1.32.36 1.16.36-.66.36-10.42.36 11.03.37-.29.36.09.36-.19.36-.49.36.52.37.27.36-.19.36-.09.36-1.28.36 1.28.37.22.36-.22.36-.78.36 1.42.36-.68.37.23.36-.21.36-3.72.36 3.69.37.34.36-.29.36-.79.36 1.34.36-.58.37.21.36-.23.36-1.31.36 1.39.36-.38.37.79.36-.88.36-96.86.36 96.6h.36l.37.9.36-1.38.36 1.51.36-.37.37.21.36-.28.36-2.23.36 2.32.36-.25.37.71.36-.46.36-.53.36 1.02.36-.67.37.66.36-6.51.36 6.6.36-.63.36.61.37-.52.36-.72.36 1.25.36-.82.36.74.37-2.23.36 2.47.36-.68.36.22.37-.25.36-.79.36 1.28.36-.81.36.94.37-11.72.36 11.11.36.19.36-.06.36.37.37-1.38.36 1.36.36-.72.36.7.36-2.29.37 1.85.36.67.36-.94.36.17.37-.19.36.21.36.24.36-.25.36-3.74.37 3.78.36.65.36-.87.36.25.36-.34.37.36.36.15.36-.3.36-1.15.36 1.42.37.32.36-.81.36.32.36-.35.36.3.37.18.36-23.18.36 22.4.36.96.37-.56.36.65.36-1.28.36 1.3.36-.42.37.26.36-.9.36-.6.36 1.63.36-.79.37.33.36-.26.36.23.36.71.36-.93.37-1.8.36.42.36 2.19.36-.73.37.23.36-.33.36.25.36.68.36-.91.37.69.36-2.12.36 2.25.36-.83.36.26.37-.25.36.37.36-.14.36.15.36-10.69.37 11 .36-.71.36.73.36-.51.37-.52.36.56.36-.23.36.84.36-.66.37-1.2.36 1.26.36-.2.36.65.36-1.25.37 1.29.36-.44.36.11.36-.6.36-2.91.37 3.32.36-.17.36.59.36-1.2.36 1.22.37-.41.36.12.36-.23.36-1.23.37 1.35.36-.37.36.77.36-.97.36.3.37-4.15.36-40.9.36 45.46.36-.72.36.86.37-1.15.36 1.23.36-.52.36-.22.36.79.37-2.24.36 2.25.36-.76.36.43.37.31.36-1.23.36 1.22.36-.72.36.75.37-4.86.36 4.51.36.16.36-.25.36.37.37-.91.36.95.36-.69.36.67.36-2.17.37 2.24.36-.79.36.45.36.32.36-1.32.37.86.36.07.36-.16.36-10.07.37 10.1.36.16.36-.18.36-.57.36.75.37-.1.36.12.36-.16.36-1.33.36 1.34.37-.26.36.91.36-.68.36-.27.36.24.37.27.36-.26.36-4.1.36 4.59.37-.7.36.86.36-.62.36-.31.36.29.37.25.36-.27.36-1.72.36 2.19.36-.33.37.08.36-.34.36-.57.36 1.08.36-.75.37-23.31.36 23.6.36.41.36-.76.36.87.37-1.33.36.86.36.17.36-.1.37-1.54.36 1.36.36.26.36.08.36-.17.37-.35.36.26.36.22.36-.07.36-4.44.37 4.94.36-.56.36.14.36-.14.36-.34.37.27.36.22.36-.08.36-.15.37-1.26.36 1.29.36-.24.36.65.36-1.25.37 1.43.36-.66.36.21.36-10.94.36 11.17.37-.91.36.66.36.26.36-1.49.36 1.53.37-.72.36.81.36-2.55.36 2.17.37.31.36-.73.36.69.36-1.24.36 1.2.37-.26.36-.43.36-3.5.36 3.83.36.43.37-.71.36.73.36-1.29.36 1.23.36-.34.37-.4.36.7.36-2.18.36 1.81.36.11.37-.18.36-99.02.36 98.23.36.84.37-.63.36.91.36-1.36.36.88.36.73.37-.86.36.72.36-2.29.36 2.45.36-.84.37.25.36.14.36-.34.36.69.36-.69.37.26.36-3.88.36 3.95.36.12.37-.2.36.49.36-1.12.36 1.07.36-.68.37.73.36-2.22.36 1.78.36.42.36-.57.37.07.36-.29.36.33.36.16.36-.18.37-10.25.36 10.19.36.17.36-.13.36-.9.37 1.55.36-.69.36.27.36-.24.37-1.36.36 1.38.36-.32.36.97.36-.71.37-.25.36.29.36-.31.36.77.36-4.65.37 4.68.36-.78.36.93.36-.67.36-.26.37.33.36-.34.36.72.36-2.21.37 2.44.36-.73.36-.26.36.84.36-1.35.37 1.28.36-.76.36-23.04.36 22.62.36 1.02.37-.64.36.25.36-.27.36.32.36.41.37-.43.36-1.44.36 1.57.36-.05.36.21.37-.26.36-.28.36.25.36.21.37.04.36-4.21.36 4.09.36-.08.36.31.37-.31.36-.31.36.26.36.21.36.03.37-.16.36-1.77.36 2.26.36-.82.36.71.37-.58.36.1.36-.03.36.27.37-11.06.36 10.71.36.73.36-1 .36.91.37-1.34.36 1.3.36-.36.36.15.36-.32.37-1.74.36 2.34.36-.87.36.81.36-1.28.37.92.36.32.36-.72.36.78.37-4.83.36 4.87.36-.83.36.75.36-1.23.37.86.36.35.36-.71.36.22.36-1.31.37 1.35.36.23.36-.12.36.3.36-1.29.37 1.32.36-50.88.36 50 .36.36.36-.01.37.4.36-1.33.36 1.48.36-.81.37.81.36-2.27.36 1.73.36.69.36-.87.37.72.36-1.27.36.81"/><use xlink:href="#e6171__e" color="#FFAB00" transform="matrix(3.75 0 0 3.75 125.4 156.09)"/><use xlink:href="#e6171__e" color="#FFAB00" transform="matrix(3.75 0 0 3.75 220.55 7.51)"/></g><text stroke-linecap="round" stroke-linejoin="round" color="#000" font-family="KaTeX_Main" font-size="8" transform="translate(241.1 25.11)"><tspan>TreapTopDown</tspan></text><g fill="none" stroke="currentColor" stroke-linecap="round" stroke-linejoin="round" color="#000"><path stroke="#00C853" stroke-dasharray="4.5,2.0,0.5,2.0,0.5,2.0" d="M205.6 22.51h29.9M28 159.02l.36.46.36-.5.37.49.36-.51.36-.01.36.51.36-.52.37.49.36-.51.36.51.36-.51.37.5.36-.51h.36l.36.46.36-.48.37-.01.36.47.36-.48.36.47.36-.5.37.5.36-.49.36.49.36-.49.36-.01.37.48.36-.49.36.48.36-.5.36.48.37-.49.36.48.36-.49h.36l.37.48.36-.51.36.51.36-.52h.36l.37.49.36-.49.36.5.36-.51.36.5.37-.51.36.52.36-.51.36-.02.36.49.37-.56.36.01.36.49.36-.52.37.49.36-.52.36.52.36-.5.36.49.37-.51.36.01.36.48.36-.49.36.49.37-.5.36.49.36-.51.36.5.36-.48.37-.02.36.5.36-.51.36.5.37-.51.36.02.36.47.36-.49.36.49.37-.49.36.5.36-.53.36.51.36-.5h.37l.36.48.36-.53.36.03.36.48.37-.51.36.51.36-.5.36.49.36-.48.37.5.36-.51h.36l.36.48.37-.5.36.51.36-.54.36.53.36-.53.37.51.36-.51.36.01.36.49.36-.53.37.02.36.47.36-.5.36.51.36-.51.37.51.36-.51.36.5.36-.52.37.01.36.49.36-.5.36.49.36-.48.37-.01.36.48.36-.53.36.52.36-.49.37.52.36-.5.36.48.36-.53.36.01.37.49.36-.48.36.49.36-.49.36.5.37-.54.36.52.36-.51h.36l.37.52.36-.52.36.01.36.48.36-.49.37.52.36-.54.36.51.36-.5.36.49.37-.54.36.01.36.47.36-.47.36.47.37-.48.36-.02.36.51.36-.51.37.51.36-.51.36.52.36-.53.36.51.37-.52.36-.01.36.51.36-.52.36.5.37-.52.36.52.36-.52.36.49.36-.47.37-.03.36.54.36-.53.36.02.36.49.37-.51.36.48.36-.48.36.51.37-.5.36.5.36-.53.36.03.36.47.37-.48.36.49.36-.5.36-.01.36.51.37-.52.36.5.36-.5.36.5.36-.51.37.04.36.46.36-.52.36.5.37-.5.36.49.36-.49.36.52.36-.54.37.03.36.48.36-.51.36.51.36-.48.37-.02.36.5.36-.49.36.48.36-.5.37.5.36-.52.36.53.36-.51.37-.01.36.5.36-.49.36.46.36-.49.37.05.36.44.36-.47.36.47.36-.49.37.49.36-.48.36.01.36.47.36-.49.37.49.36-.49.36.51.36-.53.36.53.37-.53.36.03.36.47.36-.54.37.02.36.44.36-.44.36.48.36-.47.37.48.36-.51.36.52.36-.49.36.01.37.41.36-.45.36.46.36-.47.36.47.37-.48.36-.01.36.51.36-.52.37.51.36-.5.36.49.36-.53.36.05.37.47.36-.51.36.5.36-.53.36.51.37-.47.36.5.36-.52.36-.02.36.48.37-.48.36-.01.36.47.36-.48.36.48.37-.44.36.53.36-.55.36.5.37-.5.36.01.36.46.36-.48.36.49.37-.48.36.48.36-.51.36.01.36.49.37-.51.36.51.36-.52.36.51.36-.48.37-.01.36.47.36-.49.36.47.37-.46.36.46.36-.48.36.47.36-.46.37.01.36.45.36-.46.36.01.36.45.37-.48.36.48.36-.5.36.51.36-.53.37.54.36-.55.36.05.36.49.36-.5.37.47.36-.49.36.48.36-.49.37.03.36.48.36-.47.36.46.36-.5.37.03.36.44.36-.45.36.45.36-.5.37.45.36-.48.36.5.36-.49.36.03.37.44.36-.46.36.43.36-.47.37.01.36.47.36-.48.36.49.36-.44.37.45.36-.49.36.51.36-.53h.36l.37.48.36-.47.36.48.36-.49.36.51.37-.5h.36l.36.48.36-.48.37.5.36-.51.36.04.36.44.36-.47.37.49.36-.51.36.49.36-.49.36.5.37-.52.36.01.36.49.36-.48.36.01.37.45.36-.46.36.48.36-.5.36.48.37-.47.36.48.36-.5.36.03.37.41.36-.46.36.49.36-.45.36.49.37-.52.36.54.36-.56.36-.01.36.51.37-.5.36.5.36-.47.36-.04.36.5.37-.46.36.46.36-.53.36.52.37-.49.36.51.36-.5.36.01.36.46.37-.47h.36l.36.42.36-.42.36.51.37-.53.36.52.36-.53.36.49.36-.49.37.01.36.44.36-.44.36.48.36-.48.37.47.36-.52.36.54.36-.5.37-.01.36.49.36-.47.36.49.36-.52.37-.01.36.48.36-.49.36.5.36-.52.37.55.36-.53.36.5.36-.5.36-.01.37.51.36-.51.36.01.36.47.37-.47.36.48.36-.54.36.51.36-.47.37.47.36-.46.36.01.36.42.36-.47.37.51.36-.53.36.49.36-.45.36.48.37-.47.36-.04.36.5.36-.47.37.02.36.41.36-.43.36.48.36-.51.37.47.36-.46.36.48.36-.49.36.03.37.43.36-.47.36.49.36-.49.36.01.37.47.36-.46.36.47.36-.48.36.5.37-.51.36.51.36-.52.36.01.37.48.36-.46.36.44.36-.48.36.5.37-.51.36.5.36-.49h.36l.36.49.37-.5.36-.01.36.48.36-.48.36.52.37-.56.36.51.36-.48.36.5.37-.51.36.03.36.42.36-.43.36.47.37-.53.36.05.36.48.36-.46.36.48.37-.5.36.47.36-.48.36.49.36-.5.37-.01.36.52.36-.52.36.52.36-.52.37.53.36-.51.36.5.36-.53.37-.03.36.55.36-.5.36-.01.36.47.37-.47.36.51.36-.5.36.49.36-.52.37.49.36-.51.36.04.36.47.36-.47.37.48.36-.47.36-.03.36.47.37-.48.36.49.36-.51.36.53.36-.51.37.01.36.49.36-.49.36.48.36-.49.37.46.36-.47.36.49.36-.47h.36l.37.43.36-.49.36.52.36-.52.36.02.37.47.36-.47.36.5.36-.48.37.48.36-.52.36.53.36-.56.36.07.37.43.36-.46.36.48.36-.46.36-.01.37.45.36-.46.36.51.36-.5.36.47.37-.5.36.05.36.44.36-.47.37.47.36-.5.36.52.36-.49.36.49.37-.5.36.02.36.41.36-.45h.36l.37.49.36-.48.36.49.36-.5.36.5.37-.48.36.49.36-.54.36.05.37.42.36-.43.36.48.36-.51.36.5.37-.49.36.02.36.43.36-.5.36.53.37-.51.36.5.36-.5.36.05.36.43.37-.46.36.5.36-.53.36.54.36-.56.37.53.36-.52.36.09.36.39.37-.42.36.01.36.41.36-.46.36.49.37-.48.36.46.36-.47.36.52.36-.51.37.04.36.42.36-.48.36.44.36-.41.37.5.36-.53h.36l.36.47.37-.51.36.54.36-.53.36.5.36-.45h.37l.36.43.36-.44.36.47.36-.47.37.46.36-.51.36.48.36-.5.36.03.37.44.36-.46.36.02.36.49.36-.51.37.45.36-.48.36.51.36-.46.37.5.36-.51.36-.01.36.45.36-.45.37.49.36-.51.36.49.36-.47.36-.01.37.53.36-.49.36.45.36-.5.36.01.37.46.36-.45.36.46.36-.5.37.54.36-.52.36.49.36-.47.36.05.37.41.36-.45.36.48.36-.49.36-.05.37.46.36-.45.36.52.36-.52.36.49.37-.53.36.51.36-.5.36.03.36.48.37-.57.36.59.36-.5.36.49.37-.52.36-.04.36.52.36-.45.36.51.37-.5h.36l.36.46.36-.51.36.52.37-.48.36.49.36-.55.36.52.36-.45h.37l.36.44.36-.48.36.03.37.42.36-.44.36.47.36-.47.36.47.37-.47.36.5.36-.5.36.5.36-.52h.37l.36.47.36-.47.36.48.36-.47.37.51.36-.57.36.06.36.51.37-.56.36.53.36-.55.36.07.36.47.37-.46.36.42.36-.47.36.48.36-.47.37.48.36-.46.36-.03.36.51.36-.51h.37l.36.51.36-.52.36.46.36-.5.37.56.36-.48.36.38.36-.45.37-.01.36.5.36-.46.36.44.36-.48.37.51.36-.51.36.5.36-.49.36-.01.37.48.36-.48.36.52.36-.53.36.02.37.49.36-.48.36.44.36-.48.37.52.36-.5.36.52.36-.55.36.03.37.48.36-.44.36-.02.36.45.36-.47.37.45.36-.47.36.48.36-.44.36.46.37-.5h.36l.36.42.36-.45.36.48.37-.44.36.44.36-.44.36.47.37-.51.36.02.36.48.36-.47.36.05.37.43.36-.47.36.44.36-.44.36.5.37-.54.36.5.36-.48.36.03.36.43.37-.44.36.44.36-.44.36-.04.37.5.36-.51.36.44.36-.39.36.44.37-.46.36.46.36-.57.36.13.36.43.37-.52.36.5.36-.45.36.51.36-.53.37.56.36-.58.36-.03.36.58.36-.53.37.02.36.48.36-.46.36.47.37-.51.36.52.36-.53.36.49.36-.5.37.04.36.43.36-.51.36.54.36-.48.37-.01.36.51.36-.46.36.42.36-.47.37.51.36-.53.36.52.36-.54.37.04.36.49.36-.49.36.49.36-.54.37.49.36-.5.36.55.36-.52.36-.01.37.5.36-.5.36-.02.36.5.36-.49.37.51.36-.46.36.51.36-.51.37.46.36-.49.36.02.36.43.36-.44.37.46.36-.46.36-.02.36.48.36-.51.37.52.36-.48.36.5.36-.5.36-.02.37.46.36-.45.36.5.36-.52.36.49.37-.49.36.47.36-.47.36.06.37.47.36-.5.36.44.36-.47.36.04.37.47.36-.51.36.45"/><use xlink:href="#e6171__f" color="#00C853" transform="matrix(3.75 0 0 3.75 182.98 157.63)"/><use xlink:href="#e6171__f" color="#00C853" transform="matrix(3.75 0 0 3.75 220.55 22.51)"/></g><path fill="none" d="M28 45.01V162.5M371.99 45.01H28" color="#000"/></svg>