<svg xmlns="http://www.w3.org/2000/svg" xmlns:xlink="http://www.w3.org/1999/xlink" viewBox="0 0 400 200"><path fill="none" d="M0 0h400v200H0z"/><defs><use xlink:href="#ed54e__a" id="ed54e__d" fill="currentColor" stroke="none"/><use xlink:href="#ed54e__b" id="ed54e__c" stroke="currentColor" transform="rotate(45)"/><use xlink:href="#ed54e__c" id="ed54e__e" fill="currentColor" stroke="none"/><path id="ed54e__b" stroke="currentColor" stroke-width=".267" d="M-1-1h2v2h-2z"/><path id="ed54e__a" stroke="currentColor" stroke-width=".267" d="m0-1.33-1.33 2h2.66z"/></defs><path fill="none" stroke="#CCC" stroke-linecap="round" stroke-linejoin="round" stroke-width=".1" d="M46.1 162.5V45.01" class="ed54e__gridline" color="#000"/><g fill="none" stroke-linecap="round" stroke-linejoin="round" stroke-width="0" color="#000"><path d="M46.1 162.5V155m0-109.99v7.5"/><text fill="#000" font-family="KaTeX_Main" font-size="8" text-anchor="middle" transform="translate(46.1 172.6)"><tspan> 1</tspan></text></g><path fill="none" stroke="#CCC" stroke-linecap="round" stroke-linejoin="round" stroke-width=".1" d="M82.31 162.5V45.01" class="ed54e__gridline" color="#000"/><g fill="none" stroke-linecap="round" stroke-linejoin="round" stroke-width="0" color="#000"><path d="M82.31 162.5V155m0-109.99v7.5"/><text fill="#000" font-family="KaTeX_Main" font-size="8" text-anchor="middle" transform="translate(82.31 172.6)"><tspan> 2</tspan></text></g><path fill="none" stroke="#CCC" stroke-linecap="round" stroke-linejoin="round" stroke-width=".1" d="M118.52 162.5V45.01" class="ed54e__gridline" color="#000"/><g fill="none" stroke-linecap="round" stroke-linejoin="round" stroke-width="0" color="#000"><path d="M118.52 162.5V155m0-109.99v7.5"/><text fill="#000" font-family="KaTeX_Main" font-size="8" text-anchor="middle" transform="translate(118.52 172.6)"><tspan> 3</tspan></text></g><path fill="none" stroke="#CCC" stroke-linecap="round" stroke-linejoin="round" stroke-width=".1" d="M154.73 162.5V45.01" class="ed54e__gridline" color="#000"/><g fill="none" stroke-linecap="round" stroke-linejoin="round" stroke-width="0" color="#000"><path d="M154.73 162.5V155m0-109.99v7.5"/><text fill="#000" font-family="KaTeX_Main" font-size="8" text-anchor="middle" transform="translate(154.73 172.6)"><tspan> 4</tspan></text></g><path fill="none" stroke="#CCC" stroke-linecap="round" stroke-linejoin="round" stroke-width=".1" d="M190.94 162.5V45.01" class="ed54e__gridline" color="#000"/><g fill="none" stroke-linecap="round" stroke-linejoin="round" stroke-width="0" color="#000"><path d="M190.94 162.5V155m0-109.99v7.5"/><text fill="#000" font-family="KaTeX_Main" font-size="8" text-anchor="middle" transform="translate(190.94 172.6)"><tspan> 5</tspan></text></g><path fill="none" stroke="#CCC" stroke-linecap="round" stroke-linejoin="round" stroke-width=".1" d="M227.15 162.5V45.01" class="ed54e__gridline" color="#000"/><g fill="none" stroke-linecap="round" stroke-linejoin="round" stroke-width="0" color="#000"><path d="M227.15 162.5V155m0-109.99v7.5"/><text fill="#000" font-family="KaTeX_Main" font-size="8" text-anchor="middle" transform="translate(227.15 172.6)"><tspan> 6</tspan></text></g><path fill="none" stroke="#CCC" stroke-linecap="round" stroke-linejoin="round" stroke-width=".1" d="M263.36 162.5V45.01" class="ed54e__gridline" color="#000"/><g fill="none" stroke-linecap="round" stroke-linejoin="round" stroke-width="0" color="#000"><path d="M263.36 162.5V155m0-109.99v7.5"/><text fill="#000" font-family="KaTeX_Main" font-size="8" text-anchor="middle" transform="translate(263.36 172.6)"><tspan> 7</tspan></text></g><path fill="none" stroke="#CCC" stroke-linecap="round" stroke-linejoin="round" stroke-width=".1" d="M299.57 162.5V45.01" class="ed54e__gridline" color="#000"/><g fill="none" stroke-linecap="round" stroke-linejoin="round" stroke-width="0" color="#000"><path d="M299.57 162.5V155m0-109.99v7.5"/><text fill="#000" font-family="KaTeX_Main" font-size="8" text-anchor="middle" transform="translate(299.57 172.6)"><tspan> 8</tspan></text></g><path fill="none" stroke="#CCC" stroke-linecap="round" stroke-linejoin="round" stroke-width=".1" d="M335.78 162.5V45.01" class="ed54e__gridline" color="#000"/><g fill="none" stroke-linecap="round" stroke-linejoin="round" stroke-width="0" color="#000"><path d="M335.78 162.5V155m0-109.99v7.5"/><text fill="#000" font-family="KaTeX_Main" font-size="8" text-anchor="middle" transform="translate(335.78 172.6)"><tspan> 9</tspan></text></g><path fill="none" stroke="#CCC" stroke-linecap="round" stroke-linejoin="round" stroke-width=".1" d="M371.99 162.5V45.01" class="ed54e__gridline" color="#000"/><g fill="none" stroke-linecap="round" stroke-linejoin="round" stroke-width="0" color="#000"><path d="M371.99 162.5V155m0-109.99v7.5"/><text fill="#000" font-family="KaTeX_Main" font-size="8" text-anchor="middle" transform="translate(371.99 172.6)"><tspan> 10</tspan></text></g><g fill="none" stroke-linecap="round" stroke-linejoin="round" stroke-width="0" color="#000"><path d="M371.99 162.5h-7.5"/><text fill="#000" font-family="KaTeX_Main" font-size="8" transform="translate(378.99 165.1)"><tspan>-1</tspan></text></g><g fill="none" stroke-linecap="round" stroke-linejoin="round" stroke-width="0" color="#000"><path d="M371.99 123.34h-7.5"/><text fill="#000" font-family="KaTeX_Main" font-size="8" transform="translate(378.99 125.94)"><tspan>0</tspan></text></g><g fill="none" stroke-linecap="round" stroke-linejoin="round" stroke-width="0" color="#000"><path d="M371.99 84.17h-7.5"/><text fill="#000" font-family="KaTeX_Main" font-size="8" transform="translate(378.99 86.77)"><tspan>1</tspan></text></g><g fill="none" stroke-linecap="round" stroke-linejoin="round" stroke-width="0" color="#000"><path d="M371.99 45.01h-7.5"/><text fill="#000" font-family="KaTeX_Main" font-size="8" transform="translate(378.99 47.61)"><tspan>2</tspan></text></g><path fill="none" d="M28 45.01V162.5M371.99 45.01H28" color="#000"/><text stroke-linecap="round" stroke-linejoin="round" stroke-width="0" color="#000" font-family="KaTeX_Main" font-size="10" text-anchor="middle" transform="rotate(-90 57.63 46.13)"><tspan>log</tspan><tspan dy="3" font-size="8">2</tspan><tspan dy="-3">(</tspan><tspan font-weight="bold">Average Path Length </tspan><tspan> / log</tspan><tspan dy="3" font-size="8">2</tspan><tspan dy="-3">(Size))</tspan></text><text stroke-linecap="round" stroke-linejoin="round" stroke-width="0" color="#000" font-family="KaTeX_Main" font-size="10" text-anchor="middle" transform="translate(199.99 195.75)"><tspan>Operations / 10</tspan><tspan dy="-5" font-size="8">6</tspan></text><text stroke-linecap="round" stroke-linejoin="round" color="#000" font-family="KaTeX_Main" font-size="8" transform="translate(132.8 10.11)"><tspan>Splay</tspan></text><g fill="none" stroke="currentColor" stroke-linecap="round" stroke-linejoin="round" color="#000"><path stroke="#29C3F6" d="M97.3 7.51h29.9M28 79.85l.36.98.36-7.63.37 7.51.36-4.92.36 10.59.36-9.54.36 8.23.37-7.97.36-4.62.36-1.81.36 5.69.37 5.18.36-2.39.36 2.49.36 2.36.36-7.72.37 5.94.36-7.09.36 1.91.36 6.51.36-1.07.37-7.37.36-.08.36 4.58.36-7.94.36 2.86.37 4.56.36-9.21.36 7.9.36 3.4.36 3.44.37-16.64.36 17.86.36-10.15.36-5.2.37 2.88.36 6.17.36-4.34.36-1.95.36 12.39.37-5.24.36-2.78.36 7.94.36-.1.36 4.08.37-16.92.36-8.15.36 7.82.36 11.52.36-8.41.37 5.33.36-2.44.36 4.74.36-10.61.37-3.23.36 6.43.36-3.57.36 10.71.36-3.76.37-4.6.36-1.59.36-2.38.36.46.36 15.53.37-8.61.36.33.36-5.35.36 2.2.36 13.95.37-12.17.36 13.28.36-17.2.36-.74.37 12.09.36-5.34.36-9.33.36 4.55.36-5.63.37 10.7.36.55.36-3.49.36-10.34.36 19.89.37-21.62.36 5.91.36 9.79.36-.93.36-.91.37 2.46.36 3.35.36-.31.36-.17.36-9.16.37 7.42.36-.41.36 2.53.36-2.05.37-4.02.36-7.28.36 5.71.36 1.79.36-.85.37 5.21.36-4.3.36-.61.36-7.03.36 4.47.37 13.54.36-24.65.36 14.3.36-10.03.36 18.27.37-14.57.36 7.12.36-.78.36 2.81.37 6.87.36-10.55.36-2.53.36-3.34.36 8.36.37-2.54.36-.07.36 9.74.36-5.61.36 4.74.37-11.99.36 9.06.36 3.31.36-2.52.36.93.37 3.78.36-.63.36-7.77.36-6.71.36 7.88.37-5.41.36 4.73.36-10.01.36 5.88.37 2.7.36-.86.36 5.02.36-15.76.36 10.87.37-5.09.36 3.67.36 1.49.36.67.36.37.37 2.12.36 5.54.36-1.09.36-3.62.36.83.37-4.08.36 3.05.36 3.78.36-3.97.37-5.17.36 4.72.36 1.37.36-2.88.36 1.74.37-13.76.36 14.02.36-.57.36 2.69.36-3.91.37 10.26.36-12.31.36 9.74.36-7.96.36-3.9.37 3.41.36-2.78.36 1.25.36 4.14.36-8.3.37 7.45.36-6.06.36.15.36 3.14.37-6.47.36 15.72.36-12.74.36.84.36 3.39.37-2.67.36-2.21.36 4.24.36 8.43.36-3.65.37-6.24.36 1.77.36-2.18.36 9.61.36-9.17.37-6.14.36 6.71.36-2.56.36 5.07.37-.74.36-1.87.36 4.88.36-2.13.36 4.12.37.11.36-5.31.36-5.51.36-2.24.36 17.74.37-21.01.36 5.04.36 3.49.36.57.36 6.24.37.56.36-6.03.36 5.73.36-15.23.37.64.36 13.72.36 1.45.36-7.44.36-5.47.37-2.38.36 4.91.36 4.04.36 7.58.36-16.89.37 10.21.36-7.67.36 17.56.36-8.82.36.95.37 1.33.36-6.97.36-.02.36 10.78.36-7.59.37-5.94.36-.69.36-.33.36 11.2.37-3.98.36 1.87.36-3.29.36 7.5.36-5.91.37-4.11.36 3.33.36 6.83.36-.73.36-4.31.37 2.87.36-6.12.36 1.25.36-4.51.36 13.73.37-12.18.36-1.75.36 9.98.36-11.14.37 8.43.36-10.78.36 3.03.36 4.37.36-2.09.37 4.06.36-8.64.36 5.15.36 13.89.36-8.53.37-1.53.36 2.06.36 4.28.36-6.23.36 3.01.37 4.27.36-9.92.36-1.92.36-7.22.36 6.35.37 16.7.36-15.65.36 4.82.36-1.37.37 6.34.36 2.52.36-12.09.36-5.25.36 2.48.37 5.64.36-6.23.36 8.83.36-.45.36 5.06.37 1.4.36-8.13.36 5.62.36-6.2.36 5.02.37 2.97.36-14.26.36 6.39.36-4.5.37 9.19.36-1.2.36-10.32.36.55.36 3.59.37 5.22.36-7.97.36 18.41.36-16.75.36.96.37 3.3.36-4.09.36-2.71.36 13.76.36-15.54.37.31.36 1.18.36 10.66.36-4.18.36.69.37 3.95.36-1.23.36.59.36-6.64.37 10.65.36-14.13.36-9.98.36 22.99.36.41.37-19.85.36 10.45.36-2.03.36 4.21.36-.81.37.86.36-8.92.36 9.56.36 7.9.36-2.28.37-3.98.36 1.29.36-4.94.36-3.26.37.58.36 16.82.36-14.35.36 12.04.36-5.93.37-16.7.36 6.02.36 5.58.36 12.3.36-6.45.37 1.59.36-9.35.36 8.15.36-14.79.36 17.04.37-9.3.36.62.36-11.4.36 5.69.37 5.99.36-2.45.36 8.5.36-2.74.36-14.32.37 9.15.36 3.91.36 6.55.36 2.11.36-18.91.37 19.89.36-8.58.36-1.16.36 6.66.36-3.08.37-14.18.36 13.28.36-14.17.36 17.64.36.88.37-12.41.36 2.02.36-1.09.36 9.19.37-7.51.36-8.37.36 19.71.36-5.58.36-4.39.37 3.81.36-12.4.36 10.4.36-11.78.36 13.04.37-1.72.36-.88.36 6.05.36-9.51.36 11.06.37-13.67.36 8.18.36 1.06.36 3.09.37-6.51.36 4.55.36-15.02.36 2.29.36 14.44.37 1.52.36-7.03.36 6.46.36-2.48.36 6.39.37-18.83.36 7.56.36 11.99.36-11.59.36 7.3.37-10.02.36 7.69.36 3.16.36-12.3.36 8.23.37-7.29.36 10.17.36 2.06.36.81.37-7.79.36-.83.36-6.38.36 7.14.36.37.37-11.68.36 13.72.36 5.58.36-6.7.36-6.1.37 5.58.36-5.04.36 3.42.36 5.81.36-2.81.37-1.45.36 2.49.36-10.63.36 11.23.37-10.28.36-.69.36-.89.36 1.78.36 2.14.37 3.51.36-.12.36-.83.36 1.14.36-10.57.37 12.14.36-10.26.36 4.38.36 3.13.36 3.49.37-4.18.36 7.31.36 1.25.36-10.71.37 1.01.36 5.18.36 2.2.36-4.87.36-3.55.37 1.67.36 8.03.36-2.49.36-12.3.36 15.36.37-7.27.36 6.2.36-9.12.36-5.07.36 3.84.37 3.21.36-3.74.36 1.57.36-1.96.36 12 .37-3.07.36-10.53.36 5.65.36 1.07.37-4.92.36-1.27.36 3.87.36 5.11.36-6.93.37 2.11.36 3.52.36-.26h.36l.36-1.98.37-2.29.36 10.53.36-6.25.36-1.35.36 2.54.37-5.23.36 1.62.36 7.47.36-1.93.37-4.91.36 10.47.36-7.78.36-4.17.36 2.25.37 3.48.36-13.26.36 6.95.36 5.99.36-3.85.37 5.8.36-.08.36-11.18.36 15.72.36-10.89.37 2.65.36-6.33.36.31.36 6.38.36-11.54.37 5.56.36.21.36 3.55.36-3.58.37 10.96.36-4.99.36-.38.36-1.79.36-1.47.37-.22.36 6.77.36-5.41.36-5.45.36 4.78.37-.52.36-.64.36 2.02.36 1.6.36-6.19.37 7.45.36-3.73.36-3.84.36-1.07.37 4.13.36 3.17.36.21.36 2.53.36-2.79.37-8.89.36 15.71.36-15.82.36 2.36.36-2.44.37 1.71.36 14.79.36-12.9.36 10.24.36-9.13.37-9.07.36 11.3.36-3.15.36 9.98.36.95.37-4.87.36-.35.36-4.65.36 1.57.37 1.45.36 10.5.36-7.8.36 6.8.36-10.53.37-3.1.36 15.46.36-10.59.36-4.63.36 6.54.37-8.92.36 6.97.36-3.78.36 5.71.36-3.55.37-.79.36-1.25.36-1.29.36-2.46.37 14.7.36-5.33.36-4.6.36 5.69.36-10.02.37 4.6.36 10.36.36-14.54.36 8.58.36-7.34.37 9.92.36-11.51.36-1.7.36 6.24.36-3.87.37 11.17.36-8.64.36 5.08.36-7.72.37 3.22.36 6.78.36-1.4.36-10.32.36 5.69.37 3.37.36.01.36.29.36-.01.36-4.29.37.07.36-8.89.36 15.6.36-5.33.36 4.87.37-.94.36-3.27.36 2.38.36-.57.36-.53.37 3.65.36-11.26.36 12.4.36-5.61.37 4.18.36-6.71.36 6.05.36-5.2.36.55.37 3.18.36-3.87.36 6.56.36-5.74.36-.17.37 3.86.36-11.21.36 7.23.36 3.11.36-1 .37 3.69.36-8.21.36-6.06.36 14.92.37-3.35.36 1.12.36 5.19.36-17.43.36 5.88.37 11.26.36-4.6.36-1.85.36 8.37.36-7.95.37-6.72.36 7.47.36 2.56.36-1.72.36.81.37-9.64.36 5.93.36-2.07.36-6.52.36 12.83.37.41.36-2.96.36-8.91.36 8.32.37 1.76.36.19.36-4.54.36-10.56.36 15.98.37.97.36-7.82.36-3.35.36 7.88.36-8.77.37 3.11.36-3.92.36 2.85.36 7.43.36-14.68.37 13.98.36-7.74.36 7.34.36-.99.37 2.13.36-1.84.36 3.84.36-12.02.36 9.87.37-6.8.36 8.98.36-11.8.36 5.43.36-.65.37 7.35.36-12.11.36 11.13.36-7.94.36.07.37-4.67.36 17 .36-11.9.36-3.21.36 8.87.37-2.73.36 7.21.36-8.49.36 10.25.37-12.11.36 14.41.36-6.22.36-3.55.36-3.57.37-.85.36 1.9.36-6.15.36 8.29.36 6.1.37-5.32.36-4.44.36 4.25.36-12.78.36 6.83.37 14.74.36-7.85.36 4.2.36-1.23.37-2.4.36-12.66.36 7.35.36 1.54.36-9.49.37 10.56.36-5.15.36-2.18.36 4.25.36-1.76.37-6.01.36 4.4.36 5.05.36-.76.36 1.15.37 4.03.36-3.34.36 9.07.36-7.41.37-1.77.36-4.13.36 8.98.36 3.5.36-5.94.37-4.19.36 2.52.36.71.36.49.36-.69.37-7.5.36 3.15.36 6.21.36-9.73.36 5.61.37-1.01.36 7.06.36-1.49.36-5.96.36-.72.37 9.15.36-13.3.36 5.24.36 4.05.37 2.84.36 1.81.36-8.7.36-.7.36-3.56.37 12.36.36.84.36 1.12.36-4.11.36-.68.37-8.88.36-2.64.36 8.38.36 7.05.36-10.68.37 4.29.36-2.63.36-11.97.36 14.01.37.08.36 2.85.36-3.05.36-7.39.36 3.77.37 3.05.36 3.39.36 2.63.36.67.36-.32.37-10.44.36 4.31.36 1.08.36-5.79.36 3.53.37 1.36.36 5.84.36-7.68.36-6.21.36 3.51.37-4.81.36 11.84.36-3.75.36-4.77.37 1.85.36 9.05.36 1.15.36-9.15.36-1.65.37 14.37.36-5.04.36-5.4.36 9.1.36-4.51.37 2.32.36-6.62.36.73.36-1.19.36-4.67.37 11.12.36-10.68.36 12.39.36-8.98.37 1.64.36 7.89.36-5.15.36-1.33.36-2.63.37 1.13.36 1.71.36 7.71.36-5.44.36-1.04.37 1.3.36-16.24.36 14.74.36-5.15.36-1.34.37-.26.36 2.82.36 8.57.36-6.51.36-2.23.37 1.4.36-1.46.36 7.93.36-6.5.37-1.17.36-4.33.36 6.21.36.35.36 4.25.37-2.12.36 1.38.36-9.61.36 12.24.36-18.26.37 11.38.36 3.97.36 2.8.36-3.27.36-6.73.37-7.3.36 7.98.36 11.07.36-9.57.37-6.06.36 7.65.36-3.92.36-.07.36 7.27.37-6.11.36 4.76.36-1.26.36-.11.36 1.8.37-8.42.36 2.01.36 5.8.36 1.15.36-.47.37-4.55.36.69.36-11.32.36 15.15.37-2.43.36-7.32.36 6.78.36 7.83.36-1.17.37-2.73.36-10.9.36 7.2.36-3.64.36 8.87.37-6.53.36 6.65.36-7.03.36 6.9.36-11.76.37 2.07.36 6.56.36 9.69.36-14.57.36-2.17.37 9.43.36-4.6.36 3.74.36 1.02.37-8.82.36 4.65.36-12.67.36 17.83.36-4.23.37-4.77.36-7.5.36 10.6"/><use xlink:href="#ed54e__b" color="#29C3F6" transform="matrix(3.75 0 0 3.75 354.25 79.94)"/><use xlink:href="#ed54e__b" color="#29C3F6" transform="matrix(3.75 0 0 3.75 112.25 7.51)"/></g><text stroke-linecap="round" stroke-linejoin="round" stroke-width=".5" color="#000" font-family="KaTeX_Main" font-size="8" transform="translate(132.8 25.11)"><tspan>AVLBottomUp</tspan></text><g fill="none" stroke="currentColor" stroke-linecap="round" stroke-linejoin="round" stroke-width=".5" color="#000"><path stroke="#000" d="M97.3 22.51h29.9M28 127.36l.36-.1.36-.18.37.8.36-.06.36-.05.36-.14.36-.13.37.07.36-.12.36-.07.36-.17.37.22.36-.1.36-.06.36-.11.36-.02.37-.13.36-.13.36-.09.36-.17.36 1.33.37-.05.36-.01.36-.09.36.05.36-.08.37-.04.36-.09.36.13.36-.07.36-.08.37-.04.36-.11.36.02.36-.08.37-.07.36-.11.36.41.36-.05.36-.09.37-.03.36-.09.36.05.36-.08.36-.06.37-.1.36.12.36-.07.36-.05.36-.1.37-.1h.36l.36-.09.36-.08.37-.11.36.87.36-.04.36-.02.36-.06.37.01.36-.04.36-.09.36-.04.36-.08.37.11.36-.05.36-.05.36-.07h.36l.37-.07.36-.1.36-.05.36-.1.37.31.36-.05.36-.03.36-.07.36.01.37-.06.36-.05.36-.09.36.07.36-.06.37-.06.36-.05.36-.08.36-.01.36-.07.37-.06.36-.1.36 1.25.36-.03.36.01.37-.05.36.03.36-.03.36-.03.37-.06.36-.06.36.1.36-.04.36-.03.37-.04h.36l.36-.05.36-.04.36-.07.37.2.36-.03.36-.03.36-.03.36-.05.37.01.36-.04.36-.04.36-.05.37.05.36-.04.36-.05.36-.03.36-.07h.37l.36-.06.36-.05.36-.07.36.48.37-.03.36-.01.36-.05.36-.04.36.01.37-.04.36-.03.36-.05.36.08.36-.03.37-.03.36-.06.36-.05h.36l.37-.05.36-.04.36-.06.36.16.36-.03.37-.03.36-.04.36-.01.36-.05.36-.05.37-.03.36-.06.36.05.36-.04.36-.04.37-.05.36-.02.36-.05.36-.06.37-.04.36.82.36-.01.36-.01.36-.04.37-.03.36.02.36-.03.36-.02.36-.04.37.05.36-.03.36-.02.36-.04.36-.04h.37l.36-.04.36-.03.36-.05.36.14.37-.02.36-.02.36-.04.36-.05.37.02.36-.04.36-.03.36-.05.36.04.37-.03.36-.03.36-.04.36-.05h.36l.37-.05.36-.04.36-.05.36.3.36-.02.37-.02.36-.03.36-.01.36-.03.37-.02.36-.04.36-.05.36.05.36-.03.37-.02.36-.04.36-.01.36-.03.36-.06.37-.03.36.1.36-.03.36-.03.36-.02.37-.04h.36l.36-.04.36-.03.37-.05.36-.05.36.04.36-.03.36-.04.37-.04.36-.01.36-.04.36-.06.36 1.22.37-.02h.36l.36-.02.36.02.36-.02.37-.03.36-.01.36-.02.36.05.36-.02.37-.02.36-.02h.36l.36-.03.37-.02.36-.03.36-.03.36.11.36-.01.37-.02.36-.02h.36l.36-.03.36-.02.37-.02.36-.04.36.04.36-.02.36-.02.37-.03.36-.01.36-.03.36-.03.37-.03.36.21.36-.01.36-.01.36-.01.37-.03h.36l.36-.02.36-.02.36-.03.37-.03.36.04.36-.02.36-.02.36-.03h.37l.36-.03.36-.02.36-.04.36.08.37-.02.36-.02.36-.02.36-.03h.37l.36-.03.36-.02.36-.03.36-.04.37.03.36-.03.36-.02.36-.04h.36l.37-.04.36-.04.36-.03.36.48.36-.01.37-.01.36-.02h.36l.36-.01.37-.03.36-.01.36-.03.36.03.36-.01.37-.02.36-.02.36-.01.36-.02.36-.03.37-.02.36-.03.36.1.36-.01.36-.02.37-.02h.36l.36-.02.36-.04.36-.01.37-.04.36.03.36-.02.36-.02.37-.03.36-.01.36-.04.36-.03.36-.02.37.17.36-.01.36-.02.36-.01.36-.03h.37l.36-.02.36-.02.36-.03.36.02.37-.02.36-.02.36-.02.36-.03.37-.01.36-.02.36-.03.36-.03.36.07.37-.02.36-.03.36-.01.36-.03.36-.01.37-.02.36-.03.36-.03.36.02.36-.03.37-.03.36-.02.36-.03.36-.01.37-.03.36.8.36-.01.36-.01h.36l.37-.01h.36l.36-.01.36-.01.36-.02.37-.02.36.03.36-.01.36-.02.36-.01.37-.01.36-.01.36-.03.36-.01.36-.03.37.08.36-.02.36-.01.36-.01.37-.01.36-.01.36-.03.36-.01.36-.03.37.03.36-.02.36-.02.36-.02.36-.01.37-.02.36-.03.36-.02.36.15.36-.01.37-.02.36-.01.36-.01.36-.01.37-.01.36-.02.36-.02.36.02.36-.02.37-.02.36-.01.36-.02.36-.01.36-.02.37-.03.36-.01.36.05.36-.02.36-.01.37-.01.36-.03h.36l.36-.02.36-.02.37-.03.36-.02.36.01.36-.02.37-.02.36-.02.36-.01.36-.03.36-.03.37-.02.36.3.36-.01.36-.01.36-.01h.37l.36-.02.36-.02.36-.01.36-.02.37.02.36-.02.36-.01.36-.02h.37l.36-.02.36-.02.36-.02.36-.02.37.06.36-.01.36-.02.36-.01.36-.01.37-.02.36-.02.36-.02.36-.02.36.02.37-.02.36-.02.36-.02.36-.03h.37l.36-.03.36-.02.36.13.36-.02.37-.02h.36l.36-.02h.36l.36-.02.37-.02.36-.02.36-.02.36.02.36-.02.37-.02.36-.02.36-.01.36-.02.36-.02.37-.02.36-.03.36.06.36-.02.37-.01.36-.02.36-.01.36-.02.36-.03.37-.01.36-.03.36.01.36-.02.36-.02.37-.02.36-.01.36 1.14.36-.01h.36l.37-.01.36.01.36-.01.36-.01.37-.01.36-.01.36.03.36-.01.36-.01.37-.01.36-.02.36.01.36-.01.36-.01.37-.02.36.05h.36l.36-.01.36-.01.37-.01h.36l.36-.02h.36l.36-.02.37.02.36-.02.36-.01.36-.01.37-.02h.36l.36-.02.36-.01.36-.02.37.11h.36l.36-.01.36-.01.36-.01h.37l.36-.02h.36l.36-.02.36.02.37-.01.36-.02.36-.01.36-.01.37-.01.36-.01.36-.02.36-.01.36.04.37-.01.36-.01.36-.01.36-.02h.36l.37-.01.36-.02.36-.01.36.01.36-.02.37-.02.36-.01.36-.02h.36l.36-.02.37-.02.36.22h.36l.36-.01h.37l.36-.01h.36l.36-.01.36-.02.37-.01.36-.01.36.01.36-.01.36-.01.37-.01h.36l.36-.02.36-.01.36-.01.37-.02.36.05.36-.01.36-.01.37-.01.36-.01.36-.01.36-.02.36-.01.37-.02.36.02.36-.02.36-.01.36-.02h.37l.36-.02.36-.02.36-.01.36.09h.37l.36-.01.36-.01.36-.02h.37l.36-.01.36-.01.36-.02.36-.02.37.02.36-.02.36-.01.36-.01.36-.01.37-.02.36-.02.36-.01.36-.02.36.04.37-.01.36-.01.36-.02h.36l.36-.02.37-.02.36-.01.36-.02.36.01.37-.02.36-.01.36-.02.36-.01.36-.02.37-.02.36.46h.36l.36-.01h.73l.36-.01.36-.01.36-.01.36-.01.37.01.36-.01h.36l.36-.02.37-.01h.36l.36-.01.36-.01.36-.02.37.05h.36l.36-.01.36-.01.36-.02h.37l.36-.01.36-.01.36-.02.36.01.37-.01.36-.01.36-.01.36-.02h.36l.37-.02.36-.01.36-.02.36.1h.37l.36-.01.36-.01h.36l.36-.01.37-.02.36-.01.36-.01.36.01.36-.01.37-.01.36-.01.36-.02h.36l.36-.02.37-.01.36-.02.36.04.36-.01.37-.01.36-.02.36-.01h.36l.36-.02.37-.01.36-.02.36.01.36-.01.36-.02.37-.01.36-.02.36-.01.36-.01.36-.02.37.19.36-.01.36-.01.36-.01.36-.01h.37l.36-.01.36-.01.36-.01.37.01.36-.01.36-.02h.36l.36-.02h.37l.36-.02.36-.01.36-.01.36.03.37-.01.36-.01.36-.01.36-.01.36-.01.37-.01.36-.01.36-.02.36-.01.37.01.36-.01.36-.02.36-.01.36-.01.37-.02.36-.01.36-.02.36.08.36-.01h.37l.36-.02.36-.01h.36l.36-.02.37-.01.36-.01.36.01.36-.02.37-.01.36-.01.36-.02h.36l.36-.02.37-.02.36-.01.36.03.36-.01.36-.01.37-.01.36-.02.36-.01.36-.01.36-.02.37-.01.36-.02.36.01.36-.02.36-.01.37-.02.36.78h.72l.37-.01h.72l.36-.01.36-.01h.37l.36-.01.36.01h.36l.36-.01h.37l.36-.01.36-.01.36-.01h.36l.37-.02.36.04.36-.01h.36l.37-.01.36-.01h.36l.36-.01.36-.01.37-.01.36.01.36-.01h.36l.36-.02.37-.01h.36l.36-.01.36-.01.36-.02.37.08.36-.01h.36l.36-.01h.36l.37-.01.36-.01h.36l.36-.02.37.01h.36l.36-.01.36-.01.36-.01.37-.01.36-.01.36-.01.36-.01.36.03.37-.01.36-.01.36-.01.36-.01h.36l.37-.01.36-.01.36-.02.36.01.37-.01.36-.01.36-.01.36-.02h.36l.37-.02.36-.01.36.15h.36l.36-.01h.37l.36-.01h.36l.36-.01.36-.01.37-.01.36.01.36-.01.36-.01.36-.01.37-.01h.36l.36-.01.36-.01.37-.01.36.03.36-.01.36-.01h.36l.37-.01.36-.01.36-.01.36-.01.36-.01.37-.01.36.01.36-.02h.36l.36-.02.37-.01.36-.01.36-.01.36-.01.37.07.36-.01.36-.01h.36l.36-.02h.37l.36-.01.36-.01.36-.01.36-.01.37.01.36-.01.36-.01.36-.01.36-.01.37-.01.36-.02.36-.01.36-.01.37.03.36-.01.36-.01.36-.01.36-.01.37-.01.36-.01.36-.01.36-.02.36.01.37-.02.36-.01.36-.01.36-.02h.36l.37-.02.36.3h.72l.36-.01.37-.01h.36l.36-.01h.36l.37-.01h.72l.36-.01.36-.01.37-.01h.36l.36-.01"/><use xlink:href="#ed54e__d" transform="matrix(3.75 0 0 3.75 67.83 127.39)"/><use xlink:href="#ed54e__d" transform="matrix(3.75 0 0 3.75 112.25 22.51)"/></g><text stroke-linecap="round" stroke-linejoin="round" color="#000" font-family="KaTeX_Main" font-size="8" transform="translate(241.1 10.11)"><tspan>LBSTRelaxed</tspan></text><g fill="none" stroke="currentColor" stroke-linecap="round" stroke-linejoin="round" color="#000"><path stroke="#FFAB00" stroke-dasharray="4.0,2.0,1.0,2.0" d="M205.6 7.51h29.9M28 113.73l.36.02.36.01.37.06.36-.04h.36l.36-.02.36-.11.37-.15.36-1.22.36.21.36.1.37-1.6.36.3.36.12.36.18.36.14.37-.02.36.2.36.13.36-.05.36.21.37.1.36-.24.36.13h.36l.36-.06.37-.07.36-.26.36-.29.36.14.36.09.37.06.36.06.36.01.36.15.37.05.36.03.36-.02.36.08.36.02.37-.25.36.17.36.11.36-.04.36.07.37.12h.36l.36-.06.36.08.36.08.37-.01.36.05.36.06.36-.09.37.07.36.01.36.01.36.02.36.07h.37l.36-.06h.36l.36-.02.36.02.37-.44.36.08.36.03.36.05.36.04.37-.03.36.03h.36l.36-.77.37.06.36.06.36.02.36.11.36-.06.37.11.36.08.36.02.36-.06.36.09.37.08.36.04.36.03.36-1.08.36.09.37.07.36.08.36.09.36.03.36.05h.37l.36.03.36.03h.36l.37.04.36-.25.36.06.36.07.36.07.37.07.36.01h.36l.36-.02.36-.14.37.06.36.05h.36l.36.01.36-.01.37.03.36.01.36.01H70l.37-1.86.36.1.36.03.36.09.36.04.37.1.36.09.36.06.36.07.36.07.37.06.36.03h.36l.36.02.36-.04.37-.2.36.04.36.03.36.04.36.04.37-.03.36-.02.36.06.36.08.37-.06.36.04.36.04h.36l.36.03.37.02.36-.02.36-.07.36-.13.36-.22.37-.25.36.09.36.05.36.08.36.05.37.03.36.07.36.06.36.05.37.06.36.04.36.04.36.03.36-.05.37.07.36.06.36.01.36.04.36.01h.37l.36-.12.36.07.36.05.36.03.37.03.36.03.36.02.36.05.36.05.37.03h.36l.36.04.36-.01.37.02.36.02.36-.17.36-.09.36.04.37-.1.36.04.36.04.36.02.36-.37.37.06.36.04.36.06.36.05.36.01.37-.02.36.06.36.04.36.04.37.01.36.04.36.04.36.02.36.01.37-.02.36.05.36.02h.36l.36-.01.37-.03.36.03.36.03h.36l.36.03.37.01h.36l.36-.03.36.02.37-.14.36.04.36.04.36.01.36-.02.37.02.36.02h.36l.36-.03.36-.01.37-1.9.36.08.36.03.36.07.36.05.37.06.36.04.36.03.36.06.36.03.37.04.36.04.36.04.36.04.37.04.36.03.36-.07.36.04.36.03.37.05.36.03.36.05.36.01.36.04.37.06.36.01.36.04.36.05.36.03.37.04.36.04.36-.07.36.05.37.04.36.03.36.03.36.04.36-.08.37.02.36.03h.36l.36.04.36.02.37.02.36-.02.36.01.36.02.36.02.37-.01.36.04.36.01.36.02.36-.01.37.03.36-.09.36.04.36.02.37.04.36-.28.36.06.36.03.36.06.37.01.36.02h.36l.36-1.96.36.06.37.06.36.05.36.05.36.06.36.05.37.05.36.03.36.03.36.02.37.03.36.01.36.05.36.04.36.02.37.03.36.03.36.03.36-.04.36.05.37-.04.36.04.36.05.36.04.36.04.37.03.36-.01.36.04.36.04.36.02.37-.01.36.03.36.04.36.02.37.03.36.02.36.01.36-.14.36.05.37.04.36.04.36.05.36.03.36.03h.37l.36.04.36.03.36.04.36.02.37.04.36.04.36.13.36.02.37.01.36.02.36.03.36-.03.36.04.37-.06.36.04.36.03.36.04.36.03h.37l.36.03.36.03.36.02.36-.28.37.05.36.04.36.05.36.03.37.02.36.03.36.03.36.01.36.02.37.04.36.04.36.04.36.03.36-.02.37.03.36.02.36.01.36-.04.36.04.37.03.36.02.36.02.36.05.36.02.37.02.36-.08.36.05.36.03.37.04.36.02.36-.01.36.03.36.03.37-.01.36.04.36.03.36.03.36-1.96.37.05.36.05.36.03.36.04.36.04.37.05.36.03.36.04.36.04.37.02.36.04.36.04.36.02.36.03.37.04.36.02.36.02.36.02.36-.03.37-.04.36.06.36.04.36.03.36.03.37.04.36.02.36.04.36.02.36.04.37.01.36.03.36.04.36.03.37.02.36.02.36.03.36.01.36.03.37.02h.36l.36-.01.36.02.36.03.37.03.36-.06.36.02.36.03.36.03.37.01.36.02.36.02.36.01.37.02h.36l.36.02.36.02.36-.01.37.02.36.01.36.02.36.01h.36l.37.01h.36l.36-.01.36.01.36.02.37.01.36.01h.36l.36.01h.37l.36-.03.36.01h.36l.36-.01.37-.06.36.02h.36l.36-.05h.36l.37.01h.36l.36.02h.72l.37.01h.36l.36-.14.36.02.36.02.37.01.36.02.36.01h.36l.37-.16.36.15.36.01.36.01.36.01.37.02.36.01h.36l.36.01h.36l.37.01.36.01.36.01h.36l.36.01h.37l.36-.27.36.02.36-.02.37.03.36.02.36.01.36.02.36.02.37.02.36.02.36.01.36.01.36.01.37-.01.36-.01.36.02.36.01.36.01h.37l.36.01.36-.36.36.03.36.03.37.02h.72l.36.03.37.01.36.03.36.01.36-.01.36.01.37.02.36.03.36.01.36.01.36.02.37.01.36.01.36.01.36-.01.36.02h.37l.36.02.36.01.36.02.37.01.36.01.36-.02.36.01.36.02.37-.05.36.01.36.02.36.02.36.01.37.01.36.02.36.01h.72l.37-.06h.36l.36-.01.36.02.36.01.37.01h.36l.36.02.36-.01.37.02.36.01.36-.48.36.02.36.03.37.02.36.02.36.03.36.02.36.01.37.02h.36l.36.03.36.03.36.02.37-.03.36.02.36-.01.36.04.37.03.36.02.36.03.36.02.36.02.37.02.36.02h.36l.36.02h.36l.37.03.36.03.36.02.36.01.36.03.37.03.36.01.36.01.36.01.37-.09.36.02.36.02.36.02.36.01.37.03.36.02.36.03.36.01.36.02.37.01.36-.11.36.03.36.02.36.02.37.03.36.02.36.01.36-.02.36.02.37.02h.36l.36.03.36.02.37.02.36.01.36.01.36.01.36.01.37.01.36.01.36-.03.36.02.36.02.37.02.36.02h.36l.36-.04.36.02.37.02.36.02h.36l.36.01.37.02h.36l.36.01.36.02.36.01h.37l.36-.03.36.01.36.01.36.02h.37l.36.01.36.02.36-.01h.36l.37.01.36.01.36.01h.36l.36.01h.37l.36.07h.36l.36-.03.37.02.36.01.36.01h.36l.36.01.37.01.36-.16.36.02.36.02.36.01.37.02.36.01.36.02.36.01.36-.01.37.02.36.01.36.01.36.02h.37l.36.02h.36l.36.01.36.02.37-.01.36.01.36.01.36.01.36-.01.37-.01.36.01.36-.02.36.02.36-.05.37.02.36.01.36.01.36.02h.36l.37.01.36.01.36.01.36.01.37.01.36.01h.36l.36.01.36-1.95.37.03.36.03.36.03.36.03.36.02.37.02.36.01.36.02.36.01.36.01.37.01.36.02.36.02.36-.01.37.02.36.03.36.02.36.02.36.02.37.02.36.02.36.02.36.02h.36l.37.02h.36l.36.02.36.02.36-.02.37.02.36.02.36.02.36.02.37.01.36.02.36.02.36.02.36.01.37-.05.36.02.36.03.36.02.36.02.37.01.36.01.36.02.36.03.36.02h.37l.36.02.36.02.36.02.36.04.37.02.36.02.36.01.36.02h.37l.36.02.36.02.36-.01.36.03.37.02h.36l.36.02.36.02.36.01.37.02.36.02.36.01.36.02.36.02.37.01.36.01.36.01h.36l.37.05.36.01.36-.05.36.02.36.02.37.01.36.01.36.01.36.02.36-.03.37.02.36.01.36.02.36.02.36.01.37.02.36.01.36.01.36.02.36.01.37.01.36-.01.36.02h.36l.37.01.36-.06.36.02.36.01.36.02h.37l.36.02.36.02.36.01h.36l.37.02.36.01.36.01h.72l.37.01h.36l.36-.01.36.02.37.01.36.02h.36l.36.02.36.02.37.01.36.01.36.01.36.01.36.01.37.01.36-.01.36.01.36.01.36.01h.37l.36.01.36.01h.36l.36-.01.37-.04.36-.03.36.01.36.01.37.01.36.01.36.01h.72l.37.01.36.01.36.01.36-.08.36.01.37.02.36.02.36.01.36.01.36.01.37-.01.36.01h.36l.36-.01.37.02.36.01.36.01.36-.01.36.02h.37l.36.01.36-.11.36.01.36.02.37.01.36.01.36.01h.36l.36.02.37.01.36.01.36.02h.36l.37.01.36.01h.36l.36.01.36-.01.37.01.36.01h.36l.36.01h.73l.36-.02.36.01.36-.01.36.01.37.01h.36l.36.02h.72l.37-.02.36.01.36.01h1.81l.36-.01.37.01h.72"/><use xlink:href="#ed54e__e" color="#FFAB00" transform="matrix(3.75 0 0 3.75 125.4 110.17)"/><use xlink:href="#ed54e__e" color="#FFAB00" transform="matrix(3.75 0 0 3.75 220.55 7.51)"/></g><path fill="none" d="M28 45.01V162.5M371.99 45.01H28" color="#000"/></svg>