<svg xmlns="http://www.w3.org/2000/svg" xmlns:xlink="http://www.w3.org/1999/xlink" viewBox="0 0 400 200"><path fill="none" d="M0 0h400v200H0z"/><defs><use xlink:href="#6b800__a" id="6b800__b" fill="currentColor" stroke="none"/><use xlink:href="#6b800__a" id="6b800__c" stroke="currentColor" transform="rotate(180)"/><path id="6b800__a" stroke="currentColor" stroke-width=".267" d="m0-1.33-1.33 2h2.66z"/></defs><path fill="none" stroke="#CCC" stroke-linecap="round" stroke-linejoin="round" stroke-width=".1" d="M46.1 162.5V45.01" class="6b800__gridline" color="#000"/><g fill="none" stroke-linecap="round" stroke-linejoin="round" stroke-width="0" color="#000"><path d="M46.1 162.5V155m0-109.99v7.5"/><text fill="#000" font-family="KaTeX_Main" font-size="8" text-anchor="middle" transform="translate(46.1 172.6)"><tspan> 1</tspan></text></g><path fill="none" stroke="#CCC" stroke-linecap="round" stroke-linejoin="round" stroke-width=".1" d="M82.31 162.5V45.01" class="6b800__gridline" color="#000"/><g fill="none" stroke-linecap="round" stroke-linejoin="round" stroke-width="0" color="#000"><path d="M82.31 162.5V155m0-109.99v7.5"/><text fill="#000" font-family="KaTeX_Main" font-size="8" text-anchor="middle" transform="translate(82.31 172.6)"><tspan> 2</tspan></text></g><path fill="none" stroke="#CCC" stroke-linecap="round" stroke-linejoin="round" stroke-width=".1" d="M118.52 162.5V45.01" class="6b800__gridline" color="#000"/><g fill="none" stroke-linecap="round" stroke-linejoin="round" stroke-width="0" color="#000"><path d="M118.52 162.5V155m0-109.99v7.5"/><text fill="#000" font-family="KaTeX_Main" font-size="8" text-anchor="middle" transform="translate(118.52 172.6)"><tspan> 3</tspan></text></g><path fill="none" stroke="#CCC" stroke-linecap="round" stroke-linejoin="round" stroke-width=".1" d="M154.73 162.5V45.01" class="6b800__gridline" color="#000"/><g fill="none" stroke-linecap="round" stroke-linejoin="round" stroke-width="0" color="#000"><path d="M154.73 162.5V155m0-109.99v7.5"/><text fill="#000" font-family="KaTeX_Main" font-size="8" text-anchor="middle" transform="translate(154.73 172.6)"><tspan> 4</tspan></text></g><path fill="none" stroke="#CCC" stroke-linecap="round" stroke-linejoin="round" stroke-width=".1" d="M190.94 162.5V45.01" class="6b800__gridline" color="#000"/><g fill="none" stroke-linecap="round" stroke-linejoin="round" stroke-width="0" color="#000"><path d="M190.94 162.5V155m0-109.99v7.5"/><text fill="#000" font-family="KaTeX_Main" font-size="8" text-anchor="middle" transform="translate(190.94 172.6)"><tspan> 5</tspan></text></g><path fill="none" stroke="#CCC" stroke-linecap="round" stroke-linejoin="round" stroke-width=".1" d="M227.15 162.5V45.01" class="6b800__gridline" color="#000"/><g fill="none" stroke-linecap="round" stroke-linejoin="round" stroke-width="0" color="#000"><path d="M227.15 162.5V155m0-109.99v7.5"/><text fill="#000" font-family="KaTeX_Main" font-size="8" text-anchor="middle" transform="translate(227.15 172.6)"><tspan> 6</tspan></text></g><path fill="none" stroke="#CCC" stroke-linecap="round" stroke-linejoin="round" stroke-width=".1" d="M263.36 162.5V45.01" class="6b800__gridline" color="#000"/><g fill="none" stroke-linecap="round" stroke-linejoin="round" stroke-width="0" color="#000"><path d="M263.36 162.5V155m0-109.99v7.5"/><text fill="#000" font-family="KaTeX_Main" font-size="8" text-anchor="middle" transform="translate(263.36 172.6)"><tspan> 7</tspan></text></g><path fill="none" stroke="#CCC" stroke-linecap="round" stroke-linejoin="round" stroke-width=".1" d="M299.57 162.5V45.01" class="6b800__gridline" color="#000"/><g fill="none" stroke-linecap="round" stroke-linejoin="round" stroke-width="0" color="#000"><path d="M299.57 162.5V155m0-109.99v7.5"/><text fill="#000" font-family="KaTeX_Main" font-size="8" text-anchor="middle" transform="translate(299.57 172.6)"><tspan> 8</tspan></text></g><path fill="none" stroke="#CCC" stroke-linecap="round" stroke-linejoin="round" stroke-width=".1" d="M335.78 162.5V45.01" class="6b800__gridline" color="#000"/><g fill="none" stroke-linecap="round" stroke-linejoin="round" stroke-width="0" color="#000"><path d="M335.78 162.5V155m0-109.99v7.5"/><text fill="#000" font-family="KaTeX_Main" font-size="8" text-anchor="middle" transform="translate(335.78 172.6)"><tspan> 9</tspan></text></g><path fill="none" stroke="#CCC" stroke-linecap="round" stroke-linejoin="round" stroke-width=".1" d="M371.99 162.5V45.01" class="6b800__gridline" color="#000"/><g fill="none" stroke-linecap="round" stroke-linejoin="round" stroke-width="0" color="#000"><path d="M371.99 162.5V155m0-109.99v7.5"/><text fill="#000" font-family="KaTeX_Main" font-size="8" text-anchor="middle" transform="translate(371.99 172.6)"><tspan> 10</tspan></text></g><g fill="none" stroke-linecap="round" stroke-linejoin="round" stroke-width="0" color="#000"><path d="M371.99 162.5h-7.5"/><text fill="#000" font-family="KaTeX_Main" font-size="8" transform="translate(378.99 165.1)"><tspan>0.20</tspan></text></g><g fill="none" stroke-linecap="round" stroke-linejoin="round" stroke-width="0" color="#000"><path d="M371.99 145.72h-7.5"/><text fill="#000" font-family="KaTeX_Main" font-size="8" transform="translate(378.99 148.32)"><tspan>0.30</tspan></text></g><g fill="none" stroke-linecap="round" stroke-linejoin="round" stroke-width="0" color="#000"><path d="M371.99 128.93h-7.5"/><text fill="#000" font-family="KaTeX_Main" font-size="8" transform="translate(378.99 131.53)"><tspan>0.40</tspan></text></g><g fill="none" stroke-linecap="round" stroke-linejoin="round" stroke-width="0" color="#000"><path d="M371.99 112.15h-7.5"/><text fill="#000" font-family="KaTeX_Main" font-size="8" transform="translate(378.99 114.75)"><tspan>0.50</tspan></text></g><g fill="none" stroke-linecap="round" stroke-linejoin="round" stroke-width="0" color="#000"><path d="M371.99 95.36h-7.5"/><text fill="#000" font-family="KaTeX_Main" font-size="8" transform="translate(378.99 97.96)"><tspan>0.60</tspan></text></g><g fill="none" stroke-linecap="round" stroke-linejoin="round" stroke-width="0" color="#000"><path d="M371.99 78.58h-7.5"/><text fill="#000" font-family="KaTeX_Main" font-size="8" transform="translate(378.99 81.18)"><tspan>0.70</tspan></text></g><g fill="none" stroke-linecap="round" stroke-linejoin="round" stroke-width="0" color="#000"><path d="M371.99 61.79h-7.5"/><text fill="#000" font-family="KaTeX_Main" font-size="8" transform="translate(378.99 64.39)"><tspan>0.80</tspan></text></g><g fill="none" stroke-linecap="round" stroke-linejoin="round" stroke-width="0" color="#000"><path d="M371.99 45.01h-7.5"/><text fill="#000" font-family="KaTeX_Main" font-size="8" transform="translate(378.99 47.61)"><tspan>0.90</tspan></text></g><path fill="none" d="M28 45.01V162.5M371.99 45.01H28" color="#000"/><text stroke-linecap="round" stroke-linejoin="round" stroke-width="0" color="#000" font-family="KaTeX_Main" font-size="10" text-anchor="middle" transform="rotate(-90 57.63 46.13)"><tspan font-weight="bold">Rotations</tspan><tspan> / Operations</tspan></text><text stroke-linecap="round" stroke-linejoin="round" stroke-width="0" color="#000" font-family="KaTeX_Main" font-size="10" text-anchor="middle" transform="translate(199.99 195.75)"><tspan>Operations / 10</tspan><tspan dy="-5" font-size="8">6</tspan></text><text stroke-linecap="round" stroke-linejoin="round" stroke-width=".5" color="#000" font-family="KaTeX_Main" font-size="8" transform="translate(99.2 10.11)"><tspan>AVLBottomUp</tspan></text><g fill="none" stroke="currentColor" stroke-linecap="round" stroke-linejoin="round" stroke-width=".5" color="#000"><path stroke="#000" d="M63.7 7.51h29.9M28 78.73l.36.02.36.03.37.02.36.01.36.01.36.01h.36l.37-.01.36-.02.36-.02.36-.02.37-.03.36-.03.36-.04.36-.03.36-.03.37-.03.36-.03.36-.02.36-.02.36-.01.37-.01h.72l.36.01.36.02.37.04.36.05.36.07.36.09.36.13.37.16.36.21.36.26.36.33.37.39.36.47.36.56.36.65.36.75.37.85.36.94.36 1.04.36 1.14.36 1.22.37 1.29.36 1.36.36 1.41.36 1.45.36 1.46.37 1.47.36 1.45.36 1.42.36 1.38.37 1.33.36 1.26.36 1.18.36 1.1.36 1.02.37.93.36.84.36.75.36.67.36.59.37.51.36.44.36.38.36.32.36.27.37.22.36.19.36.14.36.12.37.09.36.08.36.05.36.04.36.02.37.02.36.01h1.08l.37-.01.36-.01.36-.01h.36l.36-.01.37-.01h1.81l.36.01h.36l.36.01.37.01.36.02.36.01.36.01.36.01.37.02.36.01.36.01.36.01.36.01h.37l.36.01.36.01h1.81l.36-.01h.73l.36-.01h1.09l.36-.01h.72l.36.01h.73l.36.01.36.01h.36l.37.01.36.01.36.01.36.01.36.02.37.01.36.01.36.01.36.01.37.01.36.01.36.01h.36l.36.01.37.01h.36l.36.01h.72l.37.01h.72l.36.01h.36l.37.01h.36l.36.01.36.01h.37l.36.02.36.01.36.01.36.01.37.02.36.01.36.02.36.02.36.02.37.01.36.02.36.02.36.01.36.02.37.01.36.02.36.01.36.01.36.01h.37l.36.01h1.45l.36-.01h.36l.36-.01.37-.01.36-.01.36-.01.36-.01.36-.01.37-.01.36-.01.36-.02.36-.01.36-.01.37-.02.36-.01.36-.02.36-.01.37-.02.36-.01.36-.02.36-.01.36-.02.37-.01.36-.02.36-.01.36-.02.36-.02.37-.01.36-.02.36-.02.36-.01.36-.02.37-.01.36-.02.36-.01.36-.01.37-.02.36-.01.36-.01h.36l.36-.01h.37l.36-.01h1.08l.37.01h.36l.36.01.36.01.36.01.37.01.36.01.36.01.36.02.36.01.37.02.36.01.36.02.36.01.37.02.36.01.36.02.36.01.36.01.37.02.36.01.36.01.36.01.36.01.37.01.36.01.36.01.36.01.36.01.37.01.36.01h.36l.36.01.37.01h.36l.36.01h.72l.37.01h1.08l.36.01h1.45l.36-.01h1.45l.36-.01h.73l.36-.01h.73l.36-.01h.36l.36-.01h.36l.37-.01h.72l.36-.01h.36l.37-.01h.36l.36-.01h.36l.36-.01h.37l.36-.01h.72l.37-.01h.72l.36-.01h3.62l.36.01h.73l.36.01h.36l.36.01.37.01h.36l.36.01.36.01h.37l.36.01.36.01h.36l.36.01.37.01h.36l.36.01h.72l.37.01h1.44l.37-.01h.72l.36-.01h.37l.36-.01h.36l.36-.01.36-.01h.37l.36-.01.36-.01h.36l.36-.01.37-.01h.36l.36-.01h.36l.36-.01h.37l.36-.01h3.62l.36.01h.73l.36.01h.72l.36.01h.73l.36.01h2.17l.37-.01h.72l.36-.01h.36l.37-.01h.36l.36-.01.36-.01.36-.01.37-.01h.36l.36-.01.36-.01.36-.01.37-.01.36-.01.36-.01.36-.01.37-.01h.36l.36-.01.36-.01h.36l.37-.01.36-.01h.72l.36-.01h2.54l.36.01h1.09l.36.01h.72l.37.01h.72l.36.01h3.62l.36-.01h1.09l.36-.01h.73l.36-.01h.72l.37-.01h.72l.36-.01h5.43l.37.01h2.89l.36.01h2.54l.36-.01h10.86l.37.01h2.89l.36.01h4.35l.36-.01h1.45l.36-.01h.73l.36-.01h.72l.37-.01h.36l.36-.01h.72l.37-.01h.36l.36-.01h.72l.37-.01h1.44l.37-.01.36.01h1.08l.37.01h.36l.36.01h.36l.37.01.36.01h.36l.36.01.36.01.37.01.36.01.36.01.36.01.36.01.37.01.36.01.36.01.36.01.36.01.37.01h.36l.36.01h.36l.37.01h2.89l.36-.01h.73l.36-.01h.36l.36-.01h.37l.36-.01.36-.01h.36l.37-.01h.36l.36-.01.36-.01h.36l.37-.01.36-.01h.36l.36-.01.36-.01h.37l.36-.01.36-.01.36-.01.36-.01.37-.01.36-.01.36-.01.36-.01.36-.01.37-.01.36-.01.36-.02.36-.01.37-.01.36-.01.36-.01.36-.02.36-.01.37-.01.36-.01.36-.01.36-.01.36-.01h.37l.36-.01h.36l.36-.01h1.45l.36.01h.37l.36.01.36.01.36.01.36.01.37.02.36.01.36.02.36.02.36.01.37.02.36.03.36.02.36.02.36.02.37.02.36.03.36.02.36.02.36.02.37.02.36.02.36.02.36.01.37.02.36.01.36.02.36.01h.36l.37.01.36.01h2.89l.37-.01h.36l.36-.01h.73l.36-.01h.36l.36-.01h.73l.36-.01h1.45l.36-.01h1.08l.37-.01h1.08l.36-.01h.37l.36-.01h.36l.36-.01h.37l.36-.01h.36l.36-.01.36-.01h.37l.36-.01h.36l.36-.01.36-.01.37-.01h.36l.36-.01.36-.01.36-.01h.37l.36-.01.36-.01.36-.01.37-.01.36-.01.36-.01.36-.01.36-.01.37-.01.36-.01.36-.01.36-.01.36-.01.37-.02.36-.01.36-.01.36-.01.36-.01.37-.01h.36l.36-.01.36-.01.37-.01.36-.01h.36l.36-.01h.73l.36-.01h1.45l.36.01h.36l.36.01h.36l.37.01.36.01.36.01.36.01.36.02.37.01.36.01.36.02.36.01.37.02.36.01.36.01.36.02.36.01.37.02.36.01.36.01.36.01.36.01.37.01.36.01.36.01.36.01.36.01h.37l.36.01h.36l.36.01h1.45l.36-.01h.37l.36-.01.36-.01.36-.01.36-.01.37-.02.36-.01.36-.02.36-.02.36-.01.37-.02.36-.02.36-.02.36-.01.36-.02.37-.01.36-.01.36-.01.36-.01h1.09l.36.01.36.01.37.01.36.02.36.02.36.02.36.02.37.02.36.03.36.02.36.03.36.02.37.02.36.02.36.02.36.02.37.01.36.02h.36l.36.01h1.09l.36-.01.36-.01.36-.01.37-.02.36-.01.36-.02.36-.02.36-.02.37-.02.36-.02.36-.02.36-.02.36-.01.37-.01.36-.01h1.09l.36.01h.36l.36.01.36.01h.37l.36.01.36.01h.72l.37.01h.36l.36.01h.36l.36.01.37.01h.36l.36.01.36.01.37.01h1.08l.36-.01.37-.01.36-.01.36-.01.36-.01.36-.01.37-.01h.36l.36-.01h.36l.36.01h.37l.36.01.36.01.36.01.37.01.36.01.36.02.36.02.36.03.37.04.36.05.36.06.36.06.36.07.37.06.36.05.36.04.36.02.36-.01.37-.02.36-.05.36-.05.36-.05.36-.04.37-.04.36-.02h.36l.36.03.37.09.36.16.36.2.36.19.36.05.37-.18.36-.4.36-.96"/><use xlink:href="#6b800__b" transform="matrix(3.75 0 0 3.75 353.89 113.4)"/><use xlink:href="#6b800__b" transform="matrix(3.75 0 0 3.75 78.65 7.51)"/></g><text stroke-linecap="round" stroke-linejoin="round" color="#000" font-family="KaTeX_Main" font-size="8" transform="translate(99.2 25.11)"><tspan>AVLWeakTopDown</tspan></text><g fill="none" stroke="currentColor" stroke-linecap="round" stroke-linejoin="round" color="#000"><path stroke="#FFAB00" stroke-dasharray="4.5,2.0,0.5,2.0,0.5,2.0" d="M63.7 22.51h29.9M28 77.05l.36.02.36.02.37.02.36.01.36.01.36.01h.36l.37-.01h.36l.36-.02.36-.01.37-.02.36-.02.36-.02.36-.02.36-.02.37-.02.36-.02.36-.02.36-.01.36-.02.37-.01.36-.01.36-.02.36-.01.36-.02.37-.03.36-.03.36-.04.36-.06.36-.07.37-.08.36-.11.36-.14.36-.16.37-.19.36-.24.36-.27.36-.31.36-.36.37-.41.36-.45.36-.5.36-.54.36-.58.37-.61.36-.64.36-.65.36-.67.36-.67.37-.67.36-.65.36-.62.36-.6.37-.56.36-.52.36-.48.36-.42.36-.38.37-.33.36-.29.36-.24.36-.19.36-.16.37-.13.36-.09.36-.07.36-.04.36-.03.37-.02h1.08l.37.01.36.01h1.45l.36-.01.36-.01.36-.02.36-.02.37-.02.36-.02.36-.02.36-.02.36-.02.37-.01.36-.02h1.08l.37.02.36.02.36.03.36.03.37.05.36.05.36.06.36.06.36.07.37.08.36.07.36.08.36.09.36.08.37.08.36.08.36.08.36.07.36.07.37.07.36.06.36.05.36.05.37.04.36.04.36.03.36.03.36.02.37.02.36.01.36.01.36.01h.73l.36-.01h.36l.36-.01h.36l.37-.01.36-.01.36-.01.36-.02.36-.01.37-.01.36-.02.36-.01.36-.02.37-.02.36-.01.36-.02.36-.02.36-.02.37-.01.36-.02.36-.01.36-.02.36-.01.37-.01.36-.01.36-.01h.36l.36-.01h.37l.36.01h.36l.36.01.37.01.36.02.36.01.36.02.36.02.37.03.36.02.36.02.36.03.36.03.37.02.36.03.36.02.36.03.36.02.37.03.36.02.36.02.36.02.36.02.37.01.36.02.36.01.36.01h.37l.36.01h1.45l.36-.01.36-.01.36-.01.36-.01.37-.01.36-.02.36-.01.36-.02.36-.02.37-.03.36-.02.36-.02.36-.02.37-.03.36-.02.36-.02.36-.03.36-.02.37-.02.36-.02.36-.01.36-.02.36-.01.37-.01.36-.01.36-.01h1.81l.36.01.37.01.36.01.36.01.36.01.36.01.37.01.36.01.36.02.36.01.36.01h.37l.36.01.36.01h1.09l.36-.01h.36l.36-.01.36-.02.37-.01.36-.02.36-.02.36-.02.37-.02.36-.03.36-.03.36-.03.36-.03.37-.03.36-.03.36-.03.36-.04.36-.03.37-.04.36-.03.36-.03.36-.03.36-.04.37-.03.36-.02.36-.03.36-.03.37-.02.36-.03.36-.02.36-.01.36-.02.37-.02.36-.01.36-.01.36-.01.36-.01h.37l.36-.01h1.45l.36.01h.36l.36.01.36.01h.37l.36.01.36.01.36.01.37.01.36.01.36.02.36.01.36.01.37.01.36.01.36.01.36.01.36.01.37.01.36.01h.36l.36.01.36.01h.37l.36.01h.36l.36.01h.73l.36.01h1.09l.36.01h.72l.36.01h.37l.36.01h.36l.36.01.36.01.37.01h.36l.36.01.36.01.36.01.37.01h.36l.36.01.36.01h.37l.36.01h.36l.36.01h.36l.37.01h3.62l.36.01h.72l.37.01h.36l.36.01.36.01.36.01.37.01.36.01.36.02.36.01.36.02.37.02.36.01.36.02.36.02.36.02.37.02.36.01.36.02.36.02.37.02.36.01.36.02.36.01.36.02.37.01.36.01.36.02.36.01.36.01.37.01.36.01.36.01h.36l.36.01.37.01h.36l.36.01h.36l.36.01h.37l.36.01h.72l.37.01h1.08l.36.01h2.54l.36.01h1.45l.36-.01h1.81l.36-.01h.73l.36-.01.36-.01h.36l.37-.01.36-.01.36-.01.36-.01.36-.02.37-.01.36-.02.36-.01.36-.02.36-.02.37-.02.36-.02.36-.03.36-.02.37-.03.36-.03.36-.03.36-.03.36-.03.37-.03.36-.03.36-.04.36-.03.36-.03.37-.04.36-.03.36-.04.36-.03.36-.04.37-.03.36-.04.36-.03.36-.03.37-.03.36-.03.36-.03.36-.03.36-.03.37-.02.36-.02.36-.03.36-.02.36-.01.37-.02.36-.01.36-.02.36-.01.36-.01.37-.01h.36l.36-.01h2.54l.36.01h.36l.36.01h.36l.37.01.36.01.36.01h.36l.36.01.37.01.36.01.36.01.36.01.36.01.37.01.36.01.36.01.36.01.37.01.36.01.36.01.36.01.36.01.37.01.36.01.36.01.36.01.36.01.37.01.36.01.36.01.36.01.36.01.37.01.36.01.36.01.36.01.37.02.36.01.36.01.36.01.36.02.37.01.36.01.36.02.36.01.36.02.37.01.36.02.36.02.36.01.36.02.37.02.36.02.36.02.36.02.36.02.37.03.36.02.36.02.36.02.37.02.36.03.36.02.36.02.36.02.37.02.36.02.36.01.36.02.36.01.37.01.36.01.36.01.36.01h1.81l.37-.01.36-.01.36-.01.36-.01.36-.02.37-.01.36-.02.36-.01.36-.02.36-.01.37-.02.36-.02.36-.01.36-.02.36-.01.37-.01.36-.02.36-.01h.36l.36-.01.37-.01h1.45l.36.01h.36l.36.01.36.01.37.01.36.01.36.01.36.01.36.01.37.02.36.02.36.01.36.02.36.02.37.01.36.02.36.02.36.02.37.02.36.02.36.02.36.03.36.02.37.02.36.02.36.03.36.02.36.03.37.02.36.03.36.02.36.03.36.02.37.03.36.02.36.03.36.02.37.02.36.02.36.02.36.02.36.01.37.02.36.01.36.01.36.01h1.81l.36-.01h.37l.36-.01.36-.01.36-.02.36-.01.37-.02.36-.01.36-.02.36-.02.37-.02.36-.02.36-.02.36-.01.36-.02.37-.02.36-.02.36-.02.36-.01.36-.02.37-.02.36-.01.36-.01.36-.02.36-.01.37-.01.36-.01.36-.02.36-.01.37-.01.36-.01h.36l.36-.01.36-.01.37-.01.36-.01h.36l.36-.01h2.17l.37.01h.36l.36.01.36.01.36.01.37.02.36.02.36.02.36.02.37.02.36.02.36.03.36.03.36.03.37.03.36.03.36.03.36.03.36.03.37.03.36.03.36.03.36.03.36.03.37.02.36.03.36.02.36.02.37.01.36.01.36.01.36.01h.73l.36-.01.36-.01.36-.01.36-.02.37-.02.36-.03.36-.03.36-.03.36-.04.37-.03.36-.05.36-.04.36-.05.36-.04.37-.05.36-.05.36-.05.36-.05.37-.05.36-.05.36-.05.36-.04.36-.04.37-.04.36-.03.36-.03.36-.02.36-.02.37-.01.36-.01h.36l.36.01.36.01.37.01.36.02.36.03.36.03.37.03.36.04.36.03.36.04.36.05.37.04.36.04.36.04.36.04.36.04.37.04.36.04.36.03.36.03.36.02.37.02.36.02.36.01.36.01h.73l.36-.01.36-.01.36-.01.37-.02.36-.02.36-.03.36-.02.36-.03.37-.03.36-.03.36-.03.36-.03.36-.03.37-.03.36-.02.36-.02.36-.02.36-.02.37-.02.36-.02.36-.01.36-.01.37-.01.36-.01.36-.01.36-.01.36-.02.37-.01.36-.01.36-.02.36-.02.36-.02.37-.03.36-.03.36-.03.36-.03.36-.03.37-.04.36-.03.36-.04.36-.04.37-.04.36-.03.36-.04.36-.03.36-.03.37-.03.36-.02.36-.02.36-.02.36-.01.37-.01h.36l.36-.01h.36l.36.01h1.09l.36.01h.36l.37-.01h.36l.36-.01.36-.01.37-.01.36-.01.36-.01.36-.02.36-.02.37-.01.36-.01.36-.02h.36l.36-.01h.73l.36.01.36.02.36.01.37.02.36.03.36.02.36.03.37.03.36.03.36.04.36.03.36.03.37.03.36.03.36.03.36.04.36.03.37.03.36.02.36.03.36.03.36.02.37.02.36.02.36.02.36.01.36.01h.73l.36-.01.36-.01.37-.01.36-.02.36-.02.36-.02.36-.02.37-.02.36-.02.36-.01.36-.02.36-.01.37-.01.36-.01h.36l.36-.01.36-.01h.37l.36-.01.36-.01.36-.01.37-.01.36-.01.36-.01.36-.01h.36l.37.01.36.01.36.02.36.03.36.04.37.05.36.05.36.06.36.06.36.05.37.04.36.03.36.01.36-.01.37-.02.36-.03.36-.03.36-.03.36-.01.37.01.36.03.36.07.36.09.36.11.37.13.36.13.36.12.36.12.36.1.37.09.36.07.36.03.36-.02.36-.08.37-.16.36-.22.36-.21.36-.13.37.03.36.2.36.3.36.17.36-.2.37-.6.36-.43.36 1.7"/><use xlink:href="#6b800__c" color="#FFAB00" transform="matrix(3.75 0 0 3.75 67.83 63.4)"/><use xlink:href="#6b800__c" color="#FFAB00" transform="matrix(3.75 0 0 3.75 78.65 22.51)"/></g><text stroke-linecap="round" stroke-linejoin="round" color="#000" font-family="KaTeX_Main" font-size="8" transform="translate(241.1 10.11)"><tspan>AVLRelaxedBottomUp</tspan></text><g fill="none" stroke="currentColor" stroke-linecap="round" stroke-linejoin="round" color="#000"><path stroke="#D336C8" d="M205.6 7.51h29.9M28 78.73l.36.02.36.03.37.02.36.01.36.01.36.01h.36l.37-.01.36-.02.36-.02.36-.02.37-.03.36-.03.36-.04.36-.03.36-.03.37-.03.36-.03.36-.02.36-.01.36-.02h.73l.36.02.36.02.36.05.37.06.36.09.36.12.36.17.36.22.37.29.36.36.36.46.36.57.37.69.36.84.36.98.36 1.14.36 1.32.37 1.49.36 1.67.36 1.84.36 2.01.36 2.16.37 2.3.36 2.41.36 2.51.36 2.58.36 2.61.37 2.63.36 2.61.36 2.56.36 2.5.37 2.4.36 2.3.36 2.17.36 2.04.36 1.89.37 1.74.36 1.6.36 1.44.36 1.3.36 1.17.37 1.04.36.92.36.81.36.71.36.63.37.55.36.48.36.42.36.37.37.32.36.29.36.26.36.23.36.21.37.19.36.18.36.16.36.16.36.14.37.14.36.14.36.13.36.13.36.12.37.12.36.12.36.11.36.12.36.11.37.11.36.11.36.1.36.1.37.1.36.1.36.09.36.09.36.08.37.09.36.08.36.07.36.07.36.07.37.07.36.07.36.06.36.06.36.06.37.06.36.05.36.06.36.05.37.05.36.05.36.06.36.05.36.04.37.05.36.05.36.05.36.05.36.04.37.05.36.04.36.05.36.04.36.04.37.04.36.04.36.04.36.04.36.03.37.04.36.04.36.03.36.04.37.03.36.03.36.04.36.03.36.03.37.04.36.03.36.04.36.03.36.03.37.04.36.03.36.04.36.04.36.03.37.04.36.03.36.04.36.04.37.04.36.03.36.04.36.04.36.03.37.04.36.03.36.04.36.03.36.04.37.03.36.03.36.03.36.03.36.04.37.02.36.03.36.03.36.03.36.03.37.02.36.03.36.03.36.02.37.03.36.02.36.02.36.03.36.02.37.03.36.02.36.03.36.02.36.03.37.02.36.03.36.02.36.03.36.02.37.03.36.02.36.03.36.02.37.03.36.02.36.03.36.02.36.03.37.02.36.03.36.02.36.03.36.02.37.03.36.02.36.03.36.02.36.02.37.03.36.02.36.03.36.02.37.02.36.03.36.02.36.03.36.02.37.03.36.02.36.03.36.02.36.02.37.03.36.02.36.02.36.02.36.02.37.02.36.02.36.02.36.01.36.02.37.01.36.01.36.01.36.01.37.01h.36l.36.01h2.17l.36-.01h.37l.36-.01h.36l.36-.01h.36l.37-.01.36-.01h.36l.36-.01.37-.01.36-.01h.36l.36-.01h.36l.37-.01h.36l.36-.01h1.09l.36-.01h.36l.36.01h1.09l.36.01.36.01h.36l.37.01.36.01.36.01.36.01.37.02.36.01.36.02.36.01.36.02.37.02.36.01.36.02.36.02.36.02.37.02.36.02.36.02.36.02.36.02.37.02.36.02.36.02.36.02.37.02.36.02.36.02.36.01.36.02.37.02.36.01.36.02.36.01.36.02.37.01.36.02.36.01.36.01.36.01.37.02.36.01.36.01.36.01.36.01.37.01h.36l.36.01.36.01.37.01h.36l.36.01h.72l.37.01h1.44l.37-.01h.72l.36-.01h.36l.37-.01.36-.01.36-.01.36-.01.37-.01.36-.01.36-.01.36-.01.36-.01.37-.01.36-.02.36-.01.36-.01.36-.01.37-.01.36-.01.36-.01.36-.01.36-.01.37-.01h.36l.36-.01h.36l.37-.01h2.17l.36.01h.36l.36.01h.37l.36.01h.36l.36.01.36.01.37.01h.36l.36.01.36.01.36.01.37.01.36.01.36.01h.36l.37.01.36.01.36.01h.36l.36.01.37.01h.36l.36.01h.36l.36.01h1.09l.36.01h6.16l.36-.01h6.88l.36.01h1.45l.36.01h.73l.36.01h.36l.36.01h.37l.36.01h.36l.36.01h.36l.37.01h.36l.36.01.36.01h.36l.37.01.36.01h.36l.36.01.36.01h.37l.36.01.36.01.36.01h.37l.36.01h.36l.36.01.36.01h.37l.36.01h.72l.36.01h.37l.36.01h1.45l.36.01h1.45l.36-.01h1.45l.36-.01h.36l.36-.01h.73l.36-.01h.36l.36-.01h.37l.36-.01h.36l.36-.01h.36l.37-.01h.36l.36-.01h1.09l.36-.01h1.81l.36.01h.73l.36.01h.36l.36.01.36.01h.37l.36.01.36.01.36.01.36.01.37.01.36.01.36.01.36.01.37.01.36.01.36.01h.36l.36.01.37.01.36.01.36.01h.36l.36.01.37.01h.36l.36.01h.36l.36.01h1.09l.36.01h1.09l.36.01h1.45l.36.01h1.09l.36.01h1.09l.36.01h1.08l.37.01h1.08l.37.01h3.62l.36-.01h1.45l.36-.01h1.09l.36-.01h6.15l.37.01h1.44l.37-.01h1.44l.37-.01h.36l.36-.01h.36l.36-.01.37-.01.36-.01h.36l.36-.01.36-.01.37-.01.36-.01.36-.01.36-.01.37-.01.36-.01.36-.01.36-.01.36-.01.37-.01.36-.01.36-.01.36-.01h.36l.37-.01h.36l.36-.01h1.81l.36.01h.37l.36.01.36.01.36.01h.36l.37.02.36.01.36.01.36.01.36.02.37.01.36.02.36.01.36.02.36.01.37.02.36.01.36.02.36.01.36.02.37.01.36.02.36.01.36.01.37.01.36.02.36.01.36.01.36.01.37.01.36.01.36.01h.36l.36.01.37.01.36.01.36.01.36.01h.36l.37.01.36.01.36.01h.36l.37.01h.36l.36.01h2.17l.36-.01h.37l.36-.01.36-.01h.36l.36-.01.37-.02.36-.01.36-.01.36-.01.36-.02.37-.01.36-.02.36-.02.36-.01.37-.02.36-.01.36-.02.36-.02.36-.01.37-.02.36-.01.36-.02.36-.01.36-.02.37-.01.36-.01.36-.02.36-.01.36-.01.37-.01.36-.01h.36l.36-.01.37-.01h.36l.36-.01h1.09l.36.01h.36l.36.01h.36l.37.01.36.01.36.01.36.02.36.01.37.02.36.02.36.02.36.02.37.02.36.03.36.02.36.03.36.02.37.03.36.03.36.03.36.03.36.02.37.03.36.03.36.03.36.02.36.03.37.02.36.03.36.02.36.02.36.01.37.02.36.01.36.01h.36l.37.01h.72l.36-.01.36-.01h.37l.36-.02.36-.01.36-.01.36-.02.37-.01.36-.02.36-.02.36-.01.36-.02.37-.01.36-.01.36-.01h.36l.37-.01h1.81l.36.01.36.01h.36l.36.01h.37l.36.01h.72l.36.01.37-.01h.36l.36-.01.36-.01.36-.01.37-.01.36-.01.36-.02.36-.02.37-.02.36-.02.36-.02.36-.03.36-.02.37-.03.36-.02.36-.02.36-.02.36-.03.37-.02.36-.01.36-.02.36-.02.36-.01.37-.01.36-.01h.36l.36-.01h1.09l.36.01h.36l.37.01.36.01.36.01h.36l.36.01.37.01.36.01h.36l.36.01.36.01h.37l.36.01h.36l.36.01h2.18l.36-.01h.36l.36-.01.36-.01.37-.02.36-.02.36-.02.36-.02.36-.02.37-.02.36-.02.36-.02.36-.02.36-.01h.37l.36-.01.36.01.36.01.37.01.36.02.36.02.36.03.36.03.37.03.36.03.36.03.36.03.36.03.37.02.36.02.36.02.36.01.36.01h1.09l.36-.02.37-.01.36-.02.36-.03.36-.04.36-.04.37-.04.36-.05.36-.04.36-.04.36-.04.37-.02h.36l.36.01.36.03.36.04.37.05.36.05.36.03.36.03.36.01.37.01h.36l.36.02.36.05.37.09.36.15.36.21.36.23.36.2.37.16.36.18.36.1"/><use xlink:href="#6b800__a" color="#D336C8" transform="matrix(3.75 0 0 3.75 125.4 150.75)"/><use xlink:href="#6b800__a" color="#D336C8" transform="matrix(3.75 0 0 3.75 220.55 7.51)"/></g><text stroke-linecap="round" stroke-linejoin="round" color="#000" font-family="KaTeX_Main" font-size="8" transform="translate(241.1 25.11)"><tspan>AVLRelaxedTopDown</tspan></text><g fill="none" stroke="currentColor" stroke-linecap="round" stroke-linejoin="round" color="#000"><path stroke="#9F650D" stroke-dasharray="4.0,2.0,1.0,2.0" d="M205.6 22.51h29.9M28 77.05l.36.02.36.02.37.02.36.01.36.01.36.01h.36l.37-.01h.36l.36-.02.36-.01.37-.02.36-.02.36-.02.36-.02.36-.02.37-.02.36-.02.36-.01.36-.01h.36l.37-.01.36.01.36.02.36.02.36.04.37.06.36.09.36.12.36.16.36.22.37.28.36.37.36.46.36.57.37.7.36.84.36 1 .36 1.16.36 1.33.37 1.51.36 1.69.36 1.86.36 2.04.36 2.18.37 2.33.36 2.44.36 2.54.36 2.6.36 2.65.37 2.65.36 2.64.36 2.6.36 2.53.37 2.44.36 2.34.36 2.2.36 2.08.36 1.93.37 1.79.36 1.63.36 1.49.36 1.35.36 1.22.37 1.08.36.97.36.86.36.76.36.68.37.59.36.53.36.47.36.41.37.37.36.33.36.3.36.27.36.25.37.23.36.21.36.2.36.18.36.18.37.17.36.17.36.16.36.15.36.15.37.15.36.15.36.14.36.14.36.14.37.14.36.14.36.13.36.13.37.13.36.12.36.12.36.12.36.12.37.11.36.11.36.1.36.1.36.1.37.09.36.1.36.08.36.09.36.08.37.08.36.08.36.08.36.07.37.08.36.07.36.07.36.06.36.07.37.06.36.07.36.06.36.06.36.05.37.06.36.05.36.06.36.05.36.05.37.05.36.04.36.05.36.04.36.05.37.04.36.04.36.05.36.04.37.04.36.05.36.04.36.04.36.05.37.05.36.04.36.05.36.05.36.05.37.05.36.05.36.05.36.05.36.06.37.05.36.05.36.06.36.05.37.05.36.05.36.06.36.05.36.05.37.05.36.05.36.05.36.05.36.05.37.05.36.04.36.05.36.04.36.04.37.04.36.05.36.04.36.03.36.04.37.04.36.04.36.03.36.04.37.03.36.04.36.03.36.03.36.03.37.03.36.03.36.03.36.03.36.02.37.03.36.02.36.03.36.02.36.02.37.03.36.02.36.02.36.02.37.02.36.01.36.02.36.02.36.02.37.01.36.02.36.02.36.01.36.02.37.01.36.02.36.02.36.01.36.02.37.01.36.02.36.02.36.01.37.02.36.02.36.02.36.01.36.02.37.02.36.02.36.01.36.02.36.02.37.02.36.01.36.02.36.02.36.01.37.02.36.01.36.02.36.01.36.02.37.01.36.01.36.02.36.01.37.01.36.01.36.01.36.01.36.01h.37l.36.01.36.01.36.01h.36l.37.01h.36l.36.01h.72l.37.01h1.08l.37.01h1.44l.37.01h1.08l.36.01h.73l.36.01h.36l.36.01h.37l.36.01.36.01h.36l.36.01.37.01.36.01.36.01.36.01.37.01.36.01.36.02.36.01.36.01.37.02.36.01.36.01.36.02.36.01.37.02.36.01.36.01.36.02.36.01.37.01.36.02.36.01.36.01.37.01.36.02.36.01.36.01.36.01.37.01.36.01.36.01.36.01.36.01.37.01h.36l.36.01.36.01.36.01.37.01.36.01.36.01h.36l.36.01.37.01.36.01.36.01.36.01h.37l.36.01.36.01.36.01.36.01.37.01h.36l.36.01.36.01.36.01h.37l.36.01.36.01h.36l.36.01.37.01h.36l.36.01.36.01h.37l.36.01h.36l.36.01h.36l.37.01h.36l.36.01h.36l.36.01h.37l.36.01.36.01h.36l.36.01h.37l.36.01.36.01h.36l.37.01.36.01h.36l.36.01.36.01h.37l.36.01.36.01.36.01h.36l.37.01h.36l.36.01.36.01h.73l.36.01h.36l.36.01h1.45l.36.01h4.35l.36-.01h1.09l.36.01h5.07l.36.01h4.71l.36-.01h2.9l.36-.01h2.9l.36.01h.72l.36.01h.37l.36.01h.36l.36.01.36.01h.37l.36.01.36.01.36.01.36.01.37.01.36.01.36.02.36.01.37.01.36.01.36.01.36.02.36.01.37.01.36.01.36.01.36.01.36.01.37.01.36.01h.36l.36.01h.36l.37.01h.72l.36.01h1.45l.36-.01h.73l.36-.01h.36l.36-.01.37-.01h.36l.36-.01.36-.01h.36l.37-.01.36-.01.36-.01.36-.01h.36l.37-.01.36-.01.36-.01.36-.01h.37l.36-.01.36-.01h.36l.36-.01h.37l.36-.01H221l.36.01h.36l.36.01.36.01h.37l.36.01.36.01.36.01.37.01.36.01.36.01.36.02.36.01.37.01.36.01.36.01.36.01.36.01.37.01.36.01.36.01.36.01.36.01h.37l.36.01h.36l.36.01h2.54l.36-.01h.72l.37-.01h.36l.36-.01.36-.01h.36l.37-.01.36-.01h.36l.36-.01.36-.01h.37l.36-.01.36-.01h.36l.37-.01h.36l.36-.01h.36l.36-.01h.73l.36-.01h1.45l.36-.01h1.09l.36.01h1.45l.36.01h.36l.36.01h.37l.36.01h.36l.36.01h.36l.37.01.36.01h.36l.36.01.36.01.37.01h.36l.36.01.36.01.37.01h.36l.36.01.36.01.36.01h.37l.36.01.36.01h.36l.36.01h.37l.36.01h.36l.36.01h.36l.37.01h.72l.36.01h2.9l.36-.01h.73l.36-.01h.36l.36-.01h.36l.37-.01.36-.01.36-.01h.36l.36-.01.37-.01h.36l.36-.01.36-.01h.37l.36-.01h.36l.36-.01h.73l.36-.01h.72l.36.01h1.09l.36.01h.36l.37.01.36.01h.36l.36.01.36.01.37.01h.36l.36.01.36.01.37.01.36.01h.36l.36.01.36.01h.37l.36.01h.36l.36.01h.36l.37.01h.36l.36.01h1.09l.36.01h2.17l.36-.01h1.09l.36-.01h.36l.37-.01h.36l.36-.01h.36l.36-.01h.37l.36-.01h.72l.36-.01h.37l.36-.01h1.09l.36-.01h4.7l.37-.01h1.45l.36-.01h.72l.36-.01h.73l.36-.01h.72l.37-.01h2.53l.36.01h.37l.36.01.36.01.36.01.36.01.37.01.36.02.36.01.36.02.36.02.37.02.36.02.36.02.36.02.36.02.37.02.36.02.36.02.36.01.36.02.37.02.36.01.36.01.36.01.37.01h1.44l.37-.01h.36l.36-.01.36-.01.36-.01.37-.02.36-.01.36-.01.36-.02.36-.01.37-.01.36-.01.36-.01.36-.01.37-.01h.36l.36-.01h.72l.37-.01h3.62l.36-.01h.36l.36-.01h.36l.37-.01h.36l.36-.01h.36l.37-.01h.36l.36-.01h.36l.36-.01h1.09l.36-.01h.36l.37-.01h.72l.36-.01h.73l.36-.01h1.45l.36.01h.72l.37.01.36.01.36.01h.36l.36.01.37.01.36.01.36.01.36.01.36.01h.37l.36.01h.36l.36.01h1.09l.36-.01.36-.01.37-.01.36-.01.36-.02.36-.02.36-.03.37-.03.36-.04.36-.03.36-.04.36-.05.37-.04.36-.05.36-.04.36-.04.36-.03.37-.03.36-.01.36-.01h.36l.37.01.36.03.36.03.36.05.36.06.37.06.36.07.36.08.36.08.36.07.37.07.36.06.36.04.36.04.36.01.37.01.36-.01.36-.03.36-.03.37-.04.36-.04.36-.04.36-.04.36-.04.37-.03.36-.03.36-.02.36-.01.36-.01.37-.01h.36l.36.01.36.02.36.02.37.02.36.03.36.01h.36l.36-.03.37-.04.36-.06.36-.07.36-.04h.37l.36.07.36.14.36.17.36.13.37.02.36-.1.36-.49"/><use xlink:href="#6b800__c" color="#9F650D" transform="matrix(3.75 0 0 3.75 182.98 153.55)"/><use xlink:href="#6b800__c" color="#9F650D" transform="matrix(3.75 0 0 3.75 220.55 22.51)"/></g><path fill="none" d="M28 45.01V162.5M371.99 45.01H28" color="#000"/></svg>