<svg xmlns="http://www.w3.org/2000/svg" xmlns:xlink="http://www.w3.org/1999/xlink" viewBox="0 0 400 200"><path fill="none" d="M0 0h400v200H0z"/><defs><use xlink:href="#527d5__a" id="527d5__c" fill="currentColor" stroke="none"/><use xlink:href="#527d5__a" id="527d5__b" stroke="currentColor" transform="rotate(180)"/><use xlink:href="#527d5__b" id="527d5__d" fill="currentColor" stroke="none"/><path id="527d5__a" stroke="currentColor" stroke-width=".267" d="m0-1.33-1.33 2h2.66z"/></defs><path fill="none" stroke="#CCC" stroke-linecap="round" stroke-linejoin="round" stroke-width=".1" d="M46.1 162.5V45.01" class="527d5__gridline" color="#000"/><g fill="none" stroke-linecap="round" stroke-linejoin="round" stroke-width="0" color="#000"><path d="M46.1 162.5V155m0-109.99v7.5"/><text fill="#000" font-family="KaTeX_Main" font-size="8" text-anchor="middle" transform="translate(46.1 172.6)"><tspan> 1</tspan></text></g><path fill="none" stroke="#CCC" stroke-linecap="round" stroke-linejoin="round" stroke-width=".1" d="M82.31 162.5V45.01" class="527d5__gridline" color="#000"/><g fill="none" stroke-linecap="round" stroke-linejoin="round" stroke-width="0" color="#000"><path d="M82.31 162.5V155m0-109.99v7.5"/><text fill="#000" font-family="KaTeX_Main" font-size="8" text-anchor="middle" transform="translate(82.31 172.6)"><tspan> 2</tspan></text></g><path fill="none" stroke="#CCC" stroke-linecap="round" stroke-linejoin="round" stroke-width=".1" d="M118.52 162.5V45.01" class="527d5__gridline" color="#000"/><g fill="none" stroke-linecap="round" stroke-linejoin="round" stroke-width="0" color="#000"><path d="M118.52 162.5V155m0-109.99v7.5"/><text fill="#000" font-family="KaTeX_Main" font-size="8" text-anchor="middle" transform="translate(118.52 172.6)"><tspan> 3</tspan></text></g><path fill="none" stroke="#CCC" stroke-linecap="round" stroke-linejoin="round" stroke-width=".1" d="M154.73 162.5V45.01" class="527d5__gridline" color="#000"/><g fill="none" stroke-linecap="round" stroke-linejoin="round" stroke-width="0" color="#000"><path d="M154.73 162.5V155m0-109.99v7.5"/><text fill="#000" font-family="KaTeX_Main" font-size="8" text-anchor="middle" transform="translate(154.73 172.6)"><tspan> 4</tspan></text></g><path fill="none" stroke="#CCC" stroke-linecap="round" stroke-linejoin="round" stroke-width=".1" d="M190.94 162.5V45.01" class="527d5__gridline" color="#000"/><g fill="none" stroke-linecap="round" stroke-linejoin="round" stroke-width="0" color="#000"><path d="M190.94 162.5V155m0-109.99v7.5"/><text fill="#000" font-family="KaTeX_Main" font-size="8" text-anchor="middle" transform="translate(190.94 172.6)"><tspan> 5</tspan></text></g><path fill="none" stroke="#CCC" stroke-linecap="round" stroke-linejoin="round" stroke-width=".1" d="M227.15 162.5V45.01" class="527d5__gridline" color="#000"/><g fill="none" stroke-linecap="round" stroke-linejoin="round" stroke-width="0" color="#000"><path d="M227.15 162.5V155m0-109.99v7.5"/><text fill="#000" font-family="KaTeX_Main" font-size="8" text-anchor="middle" transform="translate(227.15 172.6)"><tspan> 6</tspan></text></g><path fill="none" stroke="#CCC" stroke-linecap="round" stroke-linejoin="round" stroke-width=".1" d="M263.36 162.5V45.01" class="527d5__gridline" color="#000"/><g fill="none" stroke-linecap="round" stroke-linejoin="round" stroke-width="0" color="#000"><path d="M263.36 162.5V155m0-109.99v7.5"/><text fill="#000" font-family="KaTeX_Main" font-size="8" text-anchor="middle" transform="translate(263.36 172.6)"><tspan> 7</tspan></text></g><path fill="none" stroke="#CCC" stroke-linecap="round" stroke-linejoin="round" stroke-width=".1" d="M299.57 162.5V45.01" class="527d5__gridline" color="#000"/><g fill="none" stroke-linecap="round" stroke-linejoin="round" stroke-width="0" color="#000"><path d="M299.57 162.5V155m0-109.99v7.5"/><text fill="#000" font-family="KaTeX_Main" font-size="8" text-anchor="middle" transform="translate(299.57 172.6)"><tspan> 8</tspan></text></g><path fill="none" stroke="#CCC" stroke-linecap="round" stroke-linejoin="round" stroke-width=".1" d="M335.78 162.5V45.01" class="527d5__gridline" color="#000"/><g fill="none" stroke-linecap="round" stroke-linejoin="round" stroke-width="0" color="#000"><path d="M335.78 162.5V155m0-109.99v7.5"/><text fill="#000" font-family="KaTeX_Main" font-size="8" text-anchor="middle" transform="translate(335.78 172.6)"><tspan> 9</tspan></text></g><path fill="none" stroke="#CCC" stroke-linecap="round" stroke-linejoin="round" stroke-width=".1" d="M371.99 162.5V45.01" class="527d5__gridline" color="#000"/><g fill="none" stroke-linecap="round" stroke-linejoin="round" stroke-width="0" color="#000"><path d="M371.99 162.5V155m0-109.99v7.5"/><text fill="#000" font-family="KaTeX_Main" font-size="8" text-anchor="middle" transform="translate(371.99 172.6)"><tspan> 10</tspan></text></g><g fill="none" stroke-linecap="round" stroke-linejoin="round" stroke-width="0" color="#000"><path d="M371.99 162.5h-7.5"/><text fill="#000" font-family="KaTeX_Main" font-size="8" transform="translate(378.99 165.1)"><tspan>1.10</tspan></text></g><g fill="none" stroke-linecap="round" stroke-linejoin="round" stroke-width="0" color="#000"><path d="M371.99 147.81h-7.5"/><text fill="#000" font-family="KaTeX_Main" font-size="8" transform="translate(378.99 150.41)"><tspan>1.12</tspan></text></g><g fill="none" stroke-linecap="round" stroke-linejoin="round" stroke-width="0" color="#000"><path d="M371.99 133.13h-7.5"/><text fill="#000" font-family="KaTeX_Main" font-size="8" transform="translate(378.99 135.73)"><tspan>1.14</tspan></text></g><g fill="none" stroke-linecap="round" stroke-linejoin="round" stroke-width="0" color="#000"><path d="M371.99 118.44h-7.5"/><text fill="#000" font-family="KaTeX_Main" font-size="8" transform="translate(378.99 121.04)"><tspan>1.16</tspan></text></g><g fill="none" stroke-linecap="round" stroke-linejoin="round" stroke-width="0" color="#000"><path d="M371.99 103.75h-7.5"/><text fill="#000" font-family="KaTeX_Main" font-size="8" transform="translate(378.99 106.35)"><tspan>1.18</tspan></text></g><g fill="none" stroke-linecap="round" stroke-linejoin="round" stroke-width="0" color="#000"><path d="M371.99 89.07h-7.5"/><text fill="#000" font-family="KaTeX_Main" font-size="8" transform="translate(378.99 91.67)"><tspan>1.20</tspan></text></g><g fill="none" stroke-linecap="round" stroke-linejoin="round" stroke-width="0" color="#000"><path d="M371.99 74.38h-7.5"/><text fill="#000" font-family="KaTeX_Main" font-size="8" transform="translate(378.99 76.98)"><tspan>1.22</tspan></text></g><g fill="none" stroke-linecap="round" stroke-linejoin="round" stroke-width="0" color="#000"><path d="M371.99 59.7h-7.5"/><text fill="#000" font-family="KaTeX_Main" font-size="8" transform="translate(378.99 62.3)"><tspan>1.24</tspan></text></g><g fill="none" stroke-linecap="round" stroke-linejoin="round" stroke-width="0" color="#000"><path d="M371.99 45.01h-7.5"/><text fill="#000" font-family="KaTeX_Main" font-size="8" transform="translate(378.99 47.61)"><tspan>1.26</tspan></text></g><path fill="none" d="M28 45.01V162.5M371.99 45.01H28" color="#000"/><text stroke-linecap="round" stroke-linejoin="round" stroke-width="0" color="#000" font-family="KaTeX_Main" font-size="10" text-anchor="middle" transform="rotate(-90 57.63 46.13)"><tspan font-weight="bold">Maximum Path Length </tspan><tspan> / log</tspan><tspan dy="3" font-size="8">2</tspan><tspan dy="-3">(Size)</tspan></text><text stroke-linecap="round" stroke-linejoin="round" stroke-width="0" color="#000" font-family="KaTeX_Main" font-size="10" text-anchor="middle" transform="translate(199.99 195.75)"><tspan>Operations / 10</tspan><tspan dy="-5" font-size="8">6</tspan></text><text stroke-linecap="round" stroke-linejoin="round" stroke-width=".5" color="#000" font-family="KaTeX_Main" font-size="8" transform="translate(116 10.11)"><tspan>AVLBottomUp</tspan></text><g fill="none" stroke="currentColor" stroke-linecap="round" stroke-linejoin="round" stroke-width=".5" color="#000"><path stroke="#000" d="M80.5 7.51h29.9M28 124.45l.23-.18.23-.1.24-.03.23.05.23.12.24.18.23.25.23.3.24.36.23.39.24.43.23.47.23.49.24.5.23.52.23.53.24.54.23.53.23.52.24.51.23.5.23.47.24.45.23.41.23.39.24.34.23.29.23.25.24.2.23.14.23.09.24.02.23-.04.23-.1.24-.16.23-.22.23-.29.24-.34.23-.4.23-.45.24-.49.23-.54.23-.58.24-.6.23-.63.23-.64.24-.65.23-.66.24-.65.23-.63.23-.63.24-.59.23-.57.23-.54.24-.5.23-.45.23-.42.24-.37.23-.32.23-.27.24-.23.23-.18.23-.13.24-.09.23-.04.23-.01.24.04.23.07.23.11.24.14.23.16.23.2.24.22.23.23.23.26.24.28.23.29.23.3.24.31.23.32.23.33.24.34.23.34.23.34.24.35.23.35.24.35.23.35.23.36.24.35.23.35.23.35.24.35.23.34.23.35.24.34.23.33.23.34.24.33.23.32.23.32.24.31.23.31.23.3.24.29.23.28.23.27.24.26.23.24.23.24.24.21.23.2.23.19.24.16.23.14.23.12.24.09.23.07.23.04.24.01.23-.02.23-.05.24-.08.23-.12.24-.15.23-.19.23-.22.24-.26.23-.29.23-.33.24-.36.23-.4.23-.42.24-.46.23-.48.23-.51.24-.53.23-.55.23-.57.24-.59.23-.59.23-.61.24-.6.23-.61.23-.61.24-.6.23-.6.23-.58.24-.57.23-.55.23-.53.24-.51.23-.48.23-.46.24-.44.23-.4.23-.38.24-.35.23-.31.24-.29.23-.25.23-.23.24-.19.23-.17.23-.13.24-.11.23-.08.23-.06.24-.04.23-.01.23.02.24.03.23.05.23.06.24.09.23.1.23.11.24.12.23.14.23.15.24.15.23.16.23.18.24.17.23.18.23.19.24.19.23.2.23.2.24.2.23.2.23.21.24.2.23.21.23.21.24.21.23.21.24.21.23.21.23.21.24.2.23.21.23.21.24.21.23.21.23.21.24.2.23.21.23.2.24.21.23.2.23.2.24.21.23.2.23.2.24.2.23.2.23.2.24.19.23.2.23.2.24.19.23.2.23.19.24.2.23.19.23.19.24.19.23.19.23.19.24.19.23.19.23.19.24.18.23.19.24.18.23.19.23.18.24.18.23.18.23.18.24.18.23.18.23.17.24.18.23.17.23.17.24.17.23.17.23.16.24.17.23.16.23.15.24.15.23.15.23.15.24.14.23.13.23.13.24.12.23.12.23.1.24.1.23.09.23.08.24.07.23.06.23.04.24.03.23.02h.23l.24-.01.23-.03.24-.05.23-.07.23-.09.24-.11.23-.12.23-.16.24-.17.23-.19.23-.22.24-.24.23-.27.23-.29.24-.31.23-.34.23-.36.24-.38.23-.4.23-.43.24-.44.23-.46.23-.49.24-.49.23-.52.23-.53.24-.53.23-.55.23-.56.24-.56.23-.57.23-.57.24-.57.23-.57.23-.57.24-.56.23-.55.23-.55.24-.53.23-.52.24-.51.23-.49.23-.48.24-.46.23-.44.23-.41.24-.4.23-.38.23-.36.24-.33.23-.31.23-.29.24-.27.23-.24.23-.22.24-.21.23-.18.23-.16.24-.14.23-.12.23-.1.24-.08.23-.07.23-.05.24-.04.23-.02.23-.01.24.01.23.02.23.02.24.04.23.05.23.06.24.06.23.07.24.08.23.08.23.09.24.1.23.1.23.1.24.11.23.11.23.11.24.11.23.12.23.12.24.12.23.12.23.12.24.13.23.12.23.13.24.12.23.13.23.13.24.12.23.13.23.13.24.12.23.13.23.13.24.12.23.13.23.13.24.12.23.13.23.12.24.13.23.12.23.13.24.12.23.13.24.12.23.13.23.12.24.12.23.13.23.12.24.12.23.12.23.12.24.13.23.12.23.12.24.12.23.12.23.12.24.12.23.12.23.12.24.12.23.11.23.12.24.12.23.12.23.12.24.11.23.12.23.12.24.11.23.12.23.12.24.11.23.12.23.11.24.12.23.11.23.12.24.11.23.11.24.12.23.11.23.11.24.12.23.11.23.11.24.11.23.11.23.12.24.11.23.11.23.11.24.11.23.11.23.11.24.11.23.11.23.11.24.11.23.11.23.11.24.1.23.11.23.11.24.11.23.1.23.11.24.11.23.11.23.1.24.11.23.1.23.11.24.11.23.1.23.11.24.1.23.11.24.1.23.1.23.11.24.1.23.11.23.1.24.1.23.1.23.11.24.1.23.1.23.1.24.11.23.1.23.1.24.1.23.1.23.1.24.1.23.1.23.1.24.1.23.1.23.1.24.1.23.1.23.1.24.1.23.1.23.1.24.09.23.1.23.1.24.1.23.1.23.09.24.1.23.1.24.09.23.1.23.1.24.09.23.1.23.09.24.1.23.1.23.09.24.1.23.09.23.09.24.1.23.09.23.1.24.09.23.1.23.09.24.09.23.1.23.09.24.09.23.09.23.1.24.09.23.09.23.09.24.09.23.1.23.09.24.09.23.09.23.09.24.09.23.09.24.09.23.09.23.09.24.09.23.09.23.09.24.09.23.09.23.09.24.09.23.09.23.09.24.08.23.09.23.09.24.09.23.09.23.08.24.09.23.09.23.09.24.08.23.09.23.09.24.08.23.09.23.09.24.08.23.09.23.08.24.09.23.09.23.08.24.09.23.08.23.09.24.08.23.09.24.08.23.08.23.09.24.08.23.09.23.08.24.08.23.09.23.08.24.08.23.09.23.08.24.08.23.08.23.09.24.08.23.08.23.08.24.09.23.08.23.08.24.08.23.08.23.08.24.08.23.08.23.08.24.08.23.08.23.08.24.08.23.08.23.08.24.08.23.08.23.08.24.07.23.08.24.07.23.08.23.07.24.07.23.08.23.07.24.06.23.07.23.07.24.06.23.06.23.05.24.06.23.05.23.04.24.04.23.04.23.02.24.03.23.01.23.01.24-.01.23-.01.23-.02.24-.04.23-.05.23-.06.24-.07.23-.1.23-.1.24-.13.23-.15.23-.16.24-.19.23-.21.23-.23.24-.26.23-.28.24-.31.23-.33.23-.36.24-.38.23-.41.23-.44.24-.46.23-.49.23-.52.24-.54.23-.56.23-.58.24-.61.23-.62.23-.64.24-.65.23-.67.23-.68.24-.68.23-.69.23-.7.24-.7.23-.69.23-.69.24-.68.23-.67.23-.66.24-.65.23-.62.23-.61.24-.59.23-.57.23-.55.24-.51.23-.5.23-.46.24-.44.23-.41.24-.39.23-.35.23-.33.24-.3.23-.27.23-.25.24-.22.23-.2.23-.17.24-.16.23-.13.23-.11.24-.1.23-.07.23-.06.24-.05.23-.03.23-.02.24-.01h.23l.23.01.24.02.23.02.23.03.24.04.23.04.23.05.24.05.23.05.23.06.24.06.23.06.23.06.24.06.23.06.24.07.23.06.23.07.24.07.23.06.23.07.24.07.23.07.23.07.24.06.23.07.23.07.24.07.23.07.23.06.24.07.23.07.23.07.24.07.23.06.23.07.24.07.23.07.23.06.24.07.23.07.23.06.24.07.23.07.23.07.24.06.23.07.23.07.24.06.23.07.23.06.24.07.23.07.24.06.23.07.23.06.24.07.23.07.23.06.24.07.23.06.23.07.24.06.23.07.23.06.24.07.23.06.23.07.24.06.23.07.23.06.24.06.23.07.23.06.24.07.23.06.23.06.24.07.23.06.23.07.24.06.23.06.23.07.24.06.23.06.23.07.24.06.23.06.23.07.24.06.23.06.24.06.23.07.23.06.24.06.23.06.23.07.24.06.23.06.23.06.24.07.23.06.23.06.24.06.23.06.23.06.24.07.23.06.23.06.24.06.23.06.23.06.24.06.23.06.23.06.24.07.23.06.23.06.24.06.23.06.23.06.24.06.23.06.23.06.24.06.23.06.23.06.24.06.23.06.24.06.23.06.23.06.24.06.23.06.23.06.24.06.23.06.23.05.24.06.23.06.23.06.24.06.23.06.23.06.24.06.23.06.23.05.24.06.23.06.23.06.24.06.23.06.23.05.24.06.23.06.23.06.24.06.23.05.23.06.24.06.23.06.23.05.24.06.23.06.23.06.24.05.23.06.24.06.23.06.23.05.24.06.23.06.23.05.24.06.23.06.23.05.24.06.23.06.23.05.24.06.23.05.23.06.24.06.23.05.23.06.24.05.23.06.23.06.24.05.23.06.23.05.24.06.23.05.23.06.24.05.23.06.23.05.24.06.23.05.23.06.24.05.23.06.24.05.23.06.23.05.24.06.23.05.23.06.24.05.23.06.23.05.24.05.23.06.23.05.24.06.23.05.23.06.24.05"/><use xlink:href="#527d5__c" transform="matrix(3.75 0 0 3.75 225.47 121.9)"/><use xlink:href="#527d5__c" transform="matrix(3.75 0 0 3.75 95.45 7.51)"/></g><text stroke-linecap="round" stroke-linejoin="round" color="#000" font-family="KaTeX_Main" font-size="8" transform="translate(116 25.11)"><tspan>AVLTopDown</tspan></text><g fill="none" stroke="currentColor" stroke-linecap="round" stroke-linejoin="round" color="#000"><path stroke="#29C3F6" stroke-dasharray="2.5,4.0" d="M80.5 22.51h29.9M28 150.47l.36-.21.36-.17.37-.14.36-.11.36-.09.36-.07.36-.07.37-.07.36-.09.36-.11.36-.14.37-.18.36-.22.36-.26.36-.3.36-.32.37-.36.36-.37.36-.38.36-.38.36-.36.37-.35.36-.32.36-.28.36-.24.36-.2.37-.15.36-.1.36-.05h.36l.36.04.37.1.36.13.36.18.36.21.37.25.36.27.36.3.36.31.36.31.37.33.36.32.36.31.36.3.36.28.37.26.36.22.36.2.36.16.36.13.37.09.36.05.36.02.36-.02.37-.05.36-.09.36-.11.36-.14.36-.17.37-.19.36-.21.36-.23.36-.24.36-.26.37-.27.36-.28.36-.28.36-.29.36-.3.37-.29.36-.3.36-.3.36-.3.37-.29.36-.29.36-.28.36-.27.36-.27.37-.25.36-.24.36-.23.36-.21.36-.2.37-.18.36-.16.36-.15.36-.13.36-.11.37-.1.36-.07.36-.05.36-.04.36-.01.37.01.36.02.36.05.36.07.37.08.36.11.36.13.36.15.36.16.37.18.36.2.36.21.36.23.36.25.37.25.36.27.36.27.36.29.36.29.37.3.36.31.36.31.36.31.37.32.36.32.36.32.36.32.36.33.37.32.36.32.36.32.36.32.36.32.37.31.36.31.36.31.36.31.36.3.37.29.36.29.36.28.36.28.36.27.37.26.36.25.36.24.36.23.37.22.36.21.36.19.36.18.36.16.37.15.36.13.36.12.36.09.36.08.37.06.36.04.36.02h.36l.36-.02.37-.04.36-.07.36-.08.36-.1.37-.12.36-.14.36-.16.36-.18.36-.19.37-.21.36-.23.36-.25.36-.25.36-.28.37-.28.36-.3.36-.3.36-.32.36-.32.37-.33.36-.33.36-.34.36-.33.36-.34.37-.34.36-.33.36-.34.36-.32.37-.33.36-.31.36-.31.36-.3.36-.3.37-.28.36-.28.36-.26.36-.26.36-.24.37-.24.36-.23.36-.22.36-.2.36-.2.37-.2.36-.18.36-.17.36-.17.37-.16.36-.15.36-.15.36-.13.36-.14.37-.12.36-.12.36-.11.36-.1.36-.1.37-.08.36-.08.36-.08.36-.06.36-.06.37-.04.36-.04.36-.03.36-.02.37-.01h.36l.36.02.36.02.36.03.37.04.36.05.36.06.36.08.36.08.37.09.36.09.36.11.36.11.36.12.37.13.36.14.36.14.36.14.36.15.37.16.36.15.36.16.36.17.37.17.36.16.36.18.36.17.36.17.37.18.36.17.36.18.36.18.36.17.37.18.36.18.36.18.36.17.36.18.37.18.36.17.36.18.36.17.37.18.36.17.36.18.36.17.36.17.37.17.36.17.36.18.36.17.36.17.37.16.36.17.36.17.36.17.36.17.37.16.36.17.36.16.36.17.36.16.37.17.36.16.36.16.36.16.37.16.36.16.36.16.36.16.36.16.37.16.36.16.36.16.36.15.36.16.37.16.36.15.36.16.36.15.36.15.37.16.36.15.36.15.36.15.37.15.36.15.36.15.36.15.36.15.37.15.36.14.36.15.36.14.36.14.37.14.36.14.36.14.36.13.36.14.37.13.36.12.36.13.36.12.36.11.37.12.36.1.36.11.36.09.37.09.36.09.36.07.36.07.36.06.37.06.36.04.36.03.36.03.36.01h.37l.36-.01.36-.02.36-.03.36-.05.37-.05.36-.07.36-.08.36-.09.37-.11.36-.11.36-.13.36-.13.36-.14.37-.16.36-.16.36-.17.36-.17.36-.18.37-.18.36-.19.36-.19.36-.19.36-.19.37-.19.36-.18.36-.19.36-.17.37-.18.36-.17.36-.16.36-.15.36-.15.37-.13.36-.13.36-.12.36-.12.36-.1.37-.09.36-.09.36-.08.36-.07.36-.06.37-.05.36-.05.36-.05.36-.04.36-.03.37-.03.36-.03.36-.03.36-.03.37-.03.36-.04.36-.03.36-.04.36-.04.37-.04.36-.06.36-.05.36-.07.36-.07.37-.08.36-.09.36-.09.36-.11.36-.11.37-.12.36-.13.36-.14.36-.15.37-.16.36-.16.36-.17.36-.18.36-.19.37-.19.36-.2.36-.21.36-.21.36-.21.37-.22.36-.23.36-.22.36-.23.36-.24.37-.23.36-.24.36-.23.36-.24.36-.24.37-.23.36-.24.36-.23.36-.23.37-.23.36-.22.36-.22.36-.22.36-.21.37-.21.36-.2.36-.2.36-.19.36-.18.37-.18.36-.17.36-.16.36-.15.36-.15.37-.13.36-.13.36-.11.36-.11.37-.1.36-.09.36-.07.36-.07.36-.06.37-.05.36-.04.36-.03.36-.02.36-.02h.73l.36.02.36.01.36.03.37.03.36.04.36.05.36.05.37.05.36.06.36.07.36.07.36.07.37.07.36.08.36.08.36.09.36.08.37.09.36.09.36.09.36.09.36.09.37.09.36.1.36.09.36.1.36.09.37.1.36.09.36.1.36.1.37.09.36.1.36.09.36.1.36.1.37.09.36.1.36.09.36.1.36.09.37.1.36.09.36.1.36.09.36.1.37.09.36.1.36.09.36.09.37.1.36.09.36.09.36.1.36.09.37.09.36.1.36.09.36.09.36.09.37.09.36.1.36.09.36.09.36.09.37.09.36.09.36.09.36.09.36.09.37.09.36.09.36.09.36.09.37.09.36.09.36.09.36.09.36.08.37.09.36.09.36.09.36.09.36.09.37.08.36.09.36.09.36.08.36.09.37.09.36.09.36.08.36.09.37.08.36.09.36.09.36.08.36.09.37.08.36.09.36.08.36.09.36.08.37.09.36.08.36.09.36.08.36.08.37.09.36.08.36.08.36.09.36.08.37.08.36.09.36.08.36.08.37.08.36.09.36.08.36.08.36.08.37.08.36.09.36.08.36.08.36.08.37.08.36.08.36.08.36.08.36.08.37.08.36.08.36.08.36.08.37.08.36.08.36.08.36.08.36.08.37.08.36.08.36.08.36.08.36.08.37.07.36.08.36.08.36.08.36.08.37.07.36.08.36.08.36.07.37.08.36.08.36.07.36.08.36.07.37.08.36.07.36.07.36.08.36.07.37.07.36.07.36.06.36.07.36.07.37.06.36.06.36.05.36.06.36.05.37.05.36.04.36.04.36.04.37.03.36.02.36.02.36.01.36.01h.37l.36-.01.36-.02.36-.02.36-.03.37-.04.36-.04.36-.05.36-.06.36-.07.37-.08.36-.08.36-.08.36-.1.37-.09.36-.11.36-.1.36-.11.36-.11.37-.11.36-.11.36-.1.36-.11.36-.1.37-.1.36-.1.36-.09.36-.09.36-.07.37-.08.36-.06.36-.06.36-.05.36-.04.37-.03.36-.03.36-.02.36-.01h.73l.36.01.36.02.36.02.37.03.36.03.36.03.36.05.36.04.37.05.36.05.36.05.36.06.36.05.37.06.36.06.36.06.36.07.37.06.36.06.36.07.36.06.36.07.37.06.36.06.36.07.36.06.36.06.37.06.36.06.36.05.36.06.36.05.37.05.36.05.36.04.36.04.36.04.37.03.36.03.36.02.36.01.37.01h.36l.36-.01.36-.02.36-.03.37-.03.36-.04.36-.06.36-.06.36-.07.37-.08.36-.1.36-.1.36-.1.36-.12.37-.12.36-.13.36-.13.36-.14.37-.14.36-.14.36-.15.36-.14.36-.14.37-.14.36-.13.36-.14.36-.12.36-.13.37-.12.36-.11.36-.11.36-.1.36-.11.37-.1.36-.1.36-.1.36-.1.37-.11.36-.11.36-.12.36-.13.36-.14.37-.16.36-.17.36-.18.36-.21.36-.22.37-.25.36-.27.36-.29.36-.31.36-.34.37-.35.36-.38.36-.39.36-.42.36-.43.37-.45.36-.46.36-.46.36-.48.37-.48.36-.49.36-.48.36-.49.36-.47.37-.48.36-.46.36-.44.36-.44.36-.42.37-.4.36-.38.36-.37.36-.34.36-.32.37-.29.36-.28.36-.25.36-.22.37-.2.36-.18.36-.16.36-.14.36-.11.37-.1.36-.08.36-.06.36-.04.36-.03.37-.02.36-.01.36.01.36.01.36.03.37.02.36.04.36.04.36.04.36.05.37.05.36.05.36.05.36.06.37.06.36.05.36.06.36.06.36.05.37.06.36.06.36.06.36.06.36.05.37.06.36.06.36.06.36.06.36.05.37.06.36.06.36.06.36.05.37.06.36.06.36.06.36.05.36.06.37.06.36.05.36.06.36.06.36.05.37.06.36.06.36.05.36.06.36.06.37.05.36.06.36.06.36.05.36.06.37.05.36.06.36.06.36.05.37.06.36.05.36.06.36.05.36.06.37.05.36.06.36.05.36.06.36.05.37.06.36.05.36.06.36.05.36.06.37.05.36.06.36.05.36.06.37.05.36.06.36.05.36.05.36.06.37.05.36.06.36.05.36.06.36.05.37.05.36.06.36.05.36.05.36.06.37.05.36.05.36.06.36.05.37.05.36.06.36.05.36.05.36.06.37.05.36.05.36.06.36.05.36.05.37.05.36.06.36.05.36.05.36.05.37.06.36.05.36.05.36.05.36.05.37.06.36.05.36.05.36.05.37.06.36.05.36.05.36.05.36.05.37.05.36.06.36.05"/><use xlink:href="#527d5__d" color="#29C3F6" transform="matrix(3.75 0 0 3.75 67.83 143.94)"/><use xlink:href="#527d5__d" color="#29C3F6" transform="matrix(3.75 0 0 3.75 95.45 22.51)"/></g><text stroke-linecap="round" stroke-linejoin="round" color="#000" font-family="KaTeX_Main" font-size="8" transform="translate(241.1 10.11)"><tspan>AVLWeakBottomUp</tspan></text><g fill="none" stroke="currentColor" stroke-linecap="round" stroke-linejoin="round" color="#000"><path stroke="#00C853" d="M205.6 7.51h29.9M28 150.47l.36-.21.36-.17.37-.14.36-.11.36-.09.36-.07.36-.07.37-.07.36-.09.36-.11.36-.14.37-.18.36-.22.36-.26.36-.3.36-.32.37-.36.36-.37.36-.38.36-.38.36-.36.37-.35.36-.32.36-.28.36-.24.36-.2.37-.15.36-.1.36-.05h.36l.36.04.37.1.36.13.36.18.36.21.37.25.36.27.36.3.36.31.36.31.37.33.36.32.36.31.36.3.36.28.37.26.36.22.36.2.36.16.36.13.37.09.36.05.36.02.36-.02.37-.05.36-.09.36-.11.36-.14.36-.17.37-.19.36-.21.36-.23.36-.24.36-.26.37-.27.36-.28.36-.28.36-.29.36-.3.37-.29.36-.3.36-.3.36-.3.37-.29.36-.29.36-.28.36-.27.36-.27.37-.25.36-.24.36-.23.36-.21.36-.2.37-.18.36-.16.36-.15.36-.13.36-.11.37-.1.36-.07.36-.05.36-.04.36-.01.37.01.36.02.36.05.36.07.37.08.36.11.36.13.36.15.36.16.37.18.36.2.36.21.36.23.36.25.37.25.36.27.36.27.36.29.36.29.37.3.36.31.36.31.36.31.37.32.36.32.36.32.36.32.36.33.37.32.36.32.36.32.36.32.36.32.37.31.36.31.36.31.36.31.36.3.37.29.36.29.36.28.36.28.36.27.37.26.36.25.36.24.36.23.37.22.36.21.36.19.36.18.36.16.37.15.36.13.36.12.36.09.36.08.37.06.36.04.36.02h.36l.36-.02.37-.04.36-.07.36-.08.36-.1.37-.12.36-.14.36-.16.36-.18.36-.19.37-.21.36-.23.36-.25.36-.25.36-.28.37-.28.36-.3.36-.3.36-.32.36-.32.37-.33.36-.33.36-.34.36-.33.36-.34.37-.34.36-.33.36-.34.36-.32.37-.33.36-.31.36-.31.36-.3.36-.3.37-.28.36-.28.36-.26.36-.26.36-.24.37-.24.36-.23.36-.22.36-.2.36-.2.37-.2.36-.18.36-.17.36-.17.37-.16.36-.15.36-.15.36-.13.36-.14.37-.12.36-.12.36-.11.36-.1.36-.1.37-.08.36-.08.36-.08.36-.06.36-.06.37-.04.36-.04.36-.03.36-.02.37-.01h.36l.36.02.36.02.36.03.37.04.36.05.36.06.36.08.36.08.37.09.36.09.36.11.36.11.36.12.37.13.36.14.36.14.36.14.36.15.37.16.36.15.36.16.36.17.37.17.36.16.36.18.36.17.36.17.37.18.36.17.36.18.36.18.36.17.37.18.36.18.36.18.36.17.36.18.37.18.36.17.36.18.36.17.37.18.36.17.36.18.36.17.36.17.37.17.36.17.36.18.36.17.36.17.37.16.36.17.36.17.36.17.36.17.37.16.36.17.36.16.36.17.36.16.37.17.36.16.36.16.36.16.37.16.36.16.36.16.36.16.36.16.37.16.36.16.36.16.36.15.36.16.37.16.36.15.36.16.36.15.36.15.37.16.36.15.36.15.36.15.37.15.36.15.36.15.36.15.36.15.37.15.36.14.36.15.36.14.36.14.37.14.36.14.36.14.36.13.36.14.37.13.36.12.36.13.36.12.36.11.37.12.36.1.36.11.36.09.37.09.36.09.36.07.36.07.36.06.37.06.36.04.36.03.36.03.36.01h.37l.36-.01.36-.02.36-.03.36-.05.37-.05.36-.07.36-.08.36-.09.37-.11.36-.11.36-.13.36-.13.36-.14.37-.16.36-.16.36-.17.36-.17.36-.18.37-.18.36-.19.36-.19.36-.19.36-.19.37-.19.36-.18.36-.19.36-.17.37-.18.36-.17.36-.16.36-.15.36-.15.37-.13.36-.13.36-.12.36-.12.36-.1.37-.09.36-.09.36-.08.36-.07.36-.06.37-.05.36-.05.36-.05.36-.04.36-.03.37-.03.36-.03.36-.03.36-.03.37-.03.36-.04.36-.03.36-.04.36-.04.37-.04.36-.06.36-.05.36-.07.36-.07.37-.08.36-.09.36-.09.36-.11.36-.11.37-.12.36-.13.36-.14.36-.15.37-.16.36-.16.36-.17.36-.18.36-.19.37-.19.36-.2.36-.21.36-.21.36-.21.37-.22.36-.23.36-.22.36-.23.36-.24.37-.23.36-.24.36-.23.36-.24.36-.24.37-.23.36-.24.36-.23.36-.23.37-.23.36-.22.36-.22.36-.22.36-.21.37-.21.36-.2.36-.2.36-.19.36-.18.37-.18.36-.17.36-.16.36-.15.36-.15.37-.13.36-.13.36-.11.36-.11.37-.1.36-.09.36-.07.36-.07.36-.06.37-.05.36-.04.36-.03.36-.02.36-.02h.73l.36.02.36.01.36.03.37.03.36.04.36.05.36.05.37.05.36.06.36.07.36.07.36.07.37.07.36.08.36.08.36.09.36.08.37.09.36.09.36.09.36.09.36.09.37.09.36.1.36.09.36.1.36.09.37.1.36.09.36.1.36.1.37.09.36.1.36.09.36.1.36.1.37.09.36.1.36.09.36.1.36.09.37.1.36.09.36.1.36.09.36.1.37.09.36.1.36.09.36.09.37.1.36.09.36.09.36.1.36.09.37.09.36.1.36.09.36.09.36.09.37.09.36.1.36.09.36.09.36.09.37.09.36.09.36.09.36.09.36.09.37.09.36.09.36.09.36.09.37.09.36.09.36.09.36.09.36.08.37.09.36.09.36.09.36.09.36.09.37.08.36.09.36.09.36.08.36.09.37.09.36.09.36.08.36.09.37.08.36.09.36.09.36.08.36.09.37.08.36.09.36.08.36.09.36.08.37.09.36.08.36.09.36.08.36.08.37.09.36.08.36.08.36.09.36.08.37.08.36.09.36.08.36.08.37.08.36.09.36.08.36.08.36.08.37.08.36.09.36.08.36.08.36.08.37.08.36.08.36.08.36.08.36.08.37.08.36.08.36.08.36.08.37.08.36.08.36.08.36.08.36.08.37.08.36.08.36.08.36.08.36.08.37.07.36.08.36.08.36.08.36.08.37.07.36.08.36.08.36.07.37.08.36.08.36.07.36.08.36.07.37.08.36.07.36.07.36.08.36.07.37.07.36.07.36.06.36.07.36.07.37.06.36.06.36.05.36.06.36.05.37.05.36.04.36.04.36.04.37.03.36.02.36.02.36.01.36.01h.37l.36-.01.36-.02.36-.02.36-.03.37-.04.36-.04.36-.05.36-.06.36-.07.37-.08.36-.08.36-.08.36-.1.37-.09.36-.11.36-.1.36-.11.36-.11.37-.11.36-.11.36-.1.36-.11.36-.1.37-.1.36-.1.36-.09.36-.09.36-.07.37-.08.36-.06.36-.06.36-.05.36-.04.37-.03.36-.03.36-.02.36-.01h.73l.36.01.36.02.36.02.37.03.36.03.36.03.36.05.36.04.37.05.36.05.36.05.36.06.36.05.37.06.36.06.36.06.36.07.37.06.36.06.36.07.36.06.36.07.37.06.36.06.36.07.36.06.36.06.37.06.36.06.36.05.36.06.36.05.37.05.36.05.36.04.36.04.36.04.37.03.36.03.36.02.36.01.37.01h.36l.36-.01.36-.02.36-.03.37-.03.36-.04.36-.06.36-.06.36-.07.37-.08.36-.1.36-.1.36-.1.36-.12.37-.12.36-.13.36-.13.36-.14.37-.14.36-.14.36-.15.36-.14.36-.14.37-.14.36-.13.36-.14.36-.12.36-.13.37-.12.36-.11.36-.11.36-.1.36-.11.37-.1.36-.1.36-.1.36-.1.37-.11.36-.11.36-.12.36-.13.36-.14.37-.16.36-.17.36-.18.36-.21.36-.22.37-.25.36-.27.36-.29.36-.31.36-.34.37-.35.36-.38.36-.39.36-.42.36-.43.37-.45.36-.46.36-.46.36-.48.37-.48.36-.49.36-.48.36-.49.36-.47.37-.48.36-.46.36-.44.36-.44.36-.42.37-.4.36-.38.36-.37.36-.34.36-.32.37-.29.36-.28.36-.25.36-.22.37-.2.36-.18.36-.16.36-.14.36-.11.37-.1.36-.08.36-.06.36-.04.36-.03.37-.02.36-.01.36.01.36.01.36.03.37.02.36.04.36.04.36.04.36.05.37.05.36.05.36.05.36.06.37.06.36.05.36.06.36.06.36.05.37.06.36.06.36.06.36.06.36.05.37.06.36.06.36.06.36.06.36.05.37.06.36.06.36.06.36.05.37.06.36.06.36.06.36.05.36.06.37.06.36.05.36.06.36.06.36.05.37.06.36.06.36.05.36.06.36.06.37.05.36.06.36.06.36.05.36.06.37.05.36.06.36.06.36.05.37.06.36.05.36.06.36.05.36.06.37.05.36.06.36.05.36.06.36.05.37.06.36.05.36.06.36.05.36.06.37.05.36.06.36.05.36.06.37.05.36.06.36.05.36.05.36.06.37.05.36.06.36.05.36.06.36.05.37.05.36.06.36.05.36.05.36.06.37.05.36.05.36.06.36.05.37.05.36.06.36.05.36.05.36.06.37.05.36.05.36.06.36.05.36.05.37.05.36.06.36.05.36.05.36.05.37.06.36.05.36.05.36.05.36.05.37.06.36.05.36.05.36.05.37.06.36.05.36.05.36.05.36.05.37.05.36.06.36.05"/><use xlink:href="#527d5__a" color="#00C853" transform="matrix(3.75 0 0 3.75 125.4 147.67)"/><use xlink:href="#527d5__a" color="#00C853" transform="matrix(3.75 0 0 3.75 220.55 7.51)"/></g><text stroke-linecap="round" stroke-linejoin="round" color="#000" font-family="KaTeX_Main" font-size="8" transform="translate(241.1 25.11)"><tspan>AVLWeakTopDown</tspan></text><g fill="none" stroke="currentColor" stroke-linecap="round" stroke-linejoin="round" color="#000"><path stroke="#FFAB00" stroke-dasharray="4.5,2.0,0.5,2.0,0.5,2.0" d="M205.6 22.51h29.9M28 104.64l.36-1.17.36-1.19.37-1.17.36-1.1.36-1.01.36-.88.36-.73.37-.59.36-.43.36-.29.36-.16.37-.04.36.07.36.15.36.22.36.28.37.33.36.35.36.38.36.39.36.39.37.39.36.38.36.35.36.33.36.3.37.25.36.21.36.16.36.11.36.05.37-.01.36-.07.36-.12.36-.18.37-.24.36-.3.36-.35.36-.42.36-.47.37-.52.36-.59.36-.63.36-.69.36-.73.37-.77.36-.81.36-.83.36-.84.36-.85.37-.84.36-.82.36-.79.36-.76.37-.7.36-.65.36-.58.36-.51.36-.44.37-.37.36-.29.36-.22.36-.15.36-.09.37-.02.36.02.36.08.36.12.36.15.37.19.36.21.36.23.36.25.37.25.36.26.36.27.36.26.36.27.37.25.36.24.36.24.36.21.36.2.37.18.36.16.36.14.36.11.36.09.37.07.36.05.36.02h.36l.36-.01.37-.03.36-.04.36-.05.36-.06.37-.05.36-.05.36-.05.36-.03.36-.02.37-.01.36.02.36.05.36.07.36.1.37.12.36.16.36.19.36.21.36.24.37.27.36.29.36.31.36.32.37.34.36.34.36.35.36.35.36.34.37.34.36.33.36.31.36.29.36.27.37.24.36.23.36.19.36.17.36.13.37.11.36.07.36.05.36.01.36-.02.37-.06.36-.09.36-.12.36-.15.37-.19.36-.21.36-.26.36-.28.36-.31.37-.35.36-.37.36-.4.36-.42.36-.44.37-.46.36-.48.36-.48.36-.49.36-.5.37-.49.36-.48.36-.47.36-.45.37-.44.36-.41.36-.38.36-.35.36-.33.37-.28.36-.25.36-.22.36-.18.36-.15.37-.12.36-.08.36-.06.36-.03H91l.37.01.36.03.36.05.36.06.36.07.37.08.36.08.36.09.36.09.37.1.36.1.36.1.36.1.36.11.37.11.36.12.36.12.36.13.36.13.37.15.36.15.36.16.36.18.36.19.37.19.36.21.36.23.36.23.37.24.36.26.36.26.36.27.36.28.37.28.36.28.36.29.36.29.36.28.37.28.36.27.36.26.36.26.36.25.37.23.36.22.36.2.36.19.37.18.36.16.36.14.36.13.36.11.37.1.36.08.36.07.36.05.36.04.37.03.36.02.36.01h.36l.36-.01.37-.01.36-.02.36-.03.36-.03.36-.03.37-.03.36-.04.36-.04.36-.03.37-.04.36-.03.36-.03.36-.03.36-.03.37-.02.36-.01.36-.02.36-.01h1.81l.36.01h.37l.36.01h.72l.37-.01.36-.01.36-.02.36-.02.36-.03.37-.04.36-.05.36-.06.36-.06.36-.08.37-.08.36-.09.36-.11.36-.1.36-.12.37-.12.36-.13.36-.13.36-.13.36-.14.37-.14.36-.13.36-.13.36-.13.37-.13.36-.11.36-.11.36-.1.36-.08.37-.08.36-.06.36-.04.36-.03.36-.02.37.01.36.02.36.04.36.06.36.08.37.1.36.11.36.13.36.15.37.16.36.17.36.19.36.2.36.2.37.22.36.21.36.22.36.21.36.22.37.21.36.2.36.19.36.18.36.17.37.15.36.14.36.12.36.1.36.08.37.06.36.04.36.01h.36l.37-.03.36-.05.36-.06.36-.09.36-.11.37-.12.36-.15.36-.15.36-.18.36-.18.37-.2.36-.21.36-.22.36-.22.36-.23.37-.24.36-.24.36-.24.36-.24.37-.24.36-.25.36-.24.36-.23.36-.24.37-.23.36-.23.36-.22.36-.22.36-.22.37-.21.36-.21.36-.21.36-.2.36-.21.37-.2.36-.21.36-.2.36-.21.37-.2.36-.21.36-.22.36-.21.36-.22.37-.22.36-.22.36-.23.36-.22.36-.23.37-.23.36-.23.36-.23.36-.22.36-.23.37-.21.36-.21.36-.21.36-.2.36-.19.37-.18.36-.16.36-.16.36-.15.37-.13.36-.12.36-.1.36-.1.36-.08.37-.06.36-.06.36-.04.36-.02.36-.02.37-.01.36.01.36.01.36.02.36.03.37.04.36.05.36.05.36.05.37.06.36.06.36.06.36.07.36.06.37.07.36.06.36.06.36.06.36.06.37.06.36.05.36.05.36.04.36.03.37.04.36.02.36.02.36.01.36.01h.37l.36-.01.36-.01.36-.02.37-.03.36-.04.36-.04.36-.05.36-.05.37-.06.36-.06.36-.07.36-.07.36-.07.37-.08.36-.08.36-.08.36-.08.36-.08.37-.07.36-.08.36-.07.36-.06.37-.06.36-.06.36-.04.36-.04.36-.02.37-.02h.36l.36.01.36.02.36.03.37.05.36.06.36.08.36.09.36.11.37.12.36.13.36.14.36.16.37.17.36.18.36.18.36.19.36.2.37.2.36.21.36.2.36.21.36.2.37.2.36.2.36.18.36.18.36.17.37.16.36.15.36.14.36.13.36.11.37.1.36.08.36.07.36.06.37.05.36.03.36.02.36.01.36.01.37-.01.36-.02.36-.02.36-.03.36-.04.37-.04.36-.04.36-.04.36-.04.36-.04.37-.05.36-.03.36-.04.36-.03.37-.03.36-.02.36-.02.36-.02h.36l.37-.01.36.01h.36l.36.01.36.02.37.02.36.02.36.02.36.02.36.03.37.02.36.02.36.01.36.02h.36l.37.01.36-.01.36-.01.36-.03.37-.03.36-.04.36-.05.36-.07.36-.07.37-.08.36-.1.36-.11.36-.11.36-.13.37-.14.36-.14.36-.16.36-.16.36-.16.37-.18.36-.17.36-.18.36-.18.37-.18.36-.17.36-.18.36-.17.36-.16.37-.15.36-.14.36-.13.36-.12.36-.1.37-.08.36-.06.36-.05.36-.02h.36l.37.03.36.04.36.08.36.09.36.13.37.14.36.17.36.2.36.21.37.24.36.25.36.27.36.28.36.3.37.31.36.31.36.31.36.32.36.31.37.31.36.3.36.29.36.27.36.26.37.24.36.22.36.21.36.18.37.15.36.14.36.11.36.09.36.07.37.05.36.02.36.01h.36l.36-.02.37-.04.36-.04.36-.05.36-.06.36-.06.37-.06.36-.06.36-.06.36-.06.37-.06.36-.05.36-.04.36-.04.36-.02.37-.02.36-.02h.72l.36.02.37.02.36.03.36.03.36.04.36.05.37.06.36.06.36.07.36.07.36.08.37.09.36.09.36.09.36.1.37.1.36.11.36.1.36.12.36.11.37.12.36.12.36.12.36.11.36.12.37.12.36.12.36.11.36.12.36.11.37.1.36.1.36.09.36.09.37.09.36.07.36.07.36.07.36.06.37.05.36.05.36.04.36.04.36.04.37.03.36.03.36.03.36.02.36.03.37.02.36.03.36.03.36.03.36.04.37.04.36.04.36.05.36.06.37.06.36.06.36.07.36.08.36.08.37.09.36.09.36.09.36.1.36.1.37.1.36.1.36.09.36.1.36.09.37.09.36.08.36.08.36.06.37.06.36.05.36.03.36.02.36.02.37-.01.36-.01.36-.03.36-.04.36-.05.37-.07.36-.07.36-.09.36-.1.36-.11.37-.12.36-.12.36-.13.36-.14.36-.14.37-.15.36-.15.36-.15.36-.15.37-.16.36-.16.36-.15.36-.16.36-.16.37-.16.36-.16.36-.16.36-.16.36-.17.37-.16.36-.17.36-.17.36-.18.36-.18.37-.18.36-.19.36-.19.36-.19.37-.2.36-.21.36-.21.36-.21.36-.22.37-.21.36-.23.36-.22.36-.22.36-.23.37-.22.36-.23.36-.22.36-.21.36-.22.37-.2.36-.2.36-.2.36-.19.37-.18.36-.17.36-.16.36-.15.36-.15.37-.13.36-.13.36-.13.36-.11.36-.11.37-.11.36-.1.36-.11.36-.1.36-.1.37-.1.36-.1.36-.11.36-.11.36-.11.37-.12.36-.11.36-.13.36-.12.37-.12.36-.13.36-.13.36-.13.36-.12.37-.13.36-.13.36-.13.36-.13.36-.13.37-.14.36-.13.36-.14.36-.15.36-.16.37-.16.36-.17.36-.18.36-.2.37-.2.36-.22.36-.22.36-.23.36-.23.37-.23.36-.23.36-.21.36-.2.36-.17.37-.13.36-.1.36-.04.36.01.36.08.37.15.36.24.36.32.36.41.36.5.37.59.36.68.36.76.36.84.37.9.36.96.36.99.36 1.02.36 1.04.37 1.03.36 1.01.36.97.36.93.36.87.37.8.36.73.36.64.36.56.36.47.37.39.36.31.36.24.36.18.37.11.36.07.36.03.36-.01.36-.02.37-.05.36-.05.36-.06.36-.07.36-.06.37-.07.36-.07.36-.08.36-.08.36-.09.37-.1.36-.12.36-.14.36-.16.36-.17.37-.19.36-.21.36-.22.36-.23.37-.23.36-.23.36-.22.36-.21.36-.18.37-.17.36-.13.36-.11.36-.07.36-.05.37-.02h.36l.36.02.36.03.36.04.37.05.36.04.36.05.36.04.37.04.36.04.36.04.36.04.36.04.37.04.36.04.36.04.36.03.36.03.37.02.36.02.36.01.36.01h.36l.37-.01.36-.03.36-.06.36-.09.37-.14.36-.19.36-.25.36-.3.36-.34.37-.36.36-.37.36-.33.36-.3.36-.23.37-.16.36-.11.36-.06.36-.02.36.02.37.08.36.21.36.42.36.73.36 1.13.37 1.53.36 1.84.36 1.89.36 1.6.37.96.36.21.36-.34.36-.39h.36l.37.26.36-.12.36-.22"/><use xlink:href="#527d5__b" color="#FFAB00" transform="matrix(3.75 0 0 3.75 182.98 82.52)"/><use xlink:href="#527d5__b" color="#FFAB00" transform="matrix(3.75 0 0 3.75 220.55 22.51)"/></g><path fill="none" d="M28 45.01V162.5M371.99 45.01H28" color="#000"/></svg>