<svg xmlns="http://www.w3.org/2000/svg" xmlns:xlink="http://www.w3.org/1999/xlink" viewBox="0 0 400 200"><path fill="none" d="M0 0h400v200H0z"/><defs><use xlink:href="#b770e__a" id="b770e__e" fill="currentColor" stroke="none"/><use xlink:href="#b770e__b" id="b770e__c" fill="currentColor" stroke="none"/><use xlink:href="#b770e__b" id="b770e__d" stroke="currentColor" transform="rotate(180)"/><circle id="b770e__a" cx="0" cy="0" r="1" stroke="currentColor" stroke-width=".267"/><path id="b770e__b" stroke="currentColor" stroke-width=".267" d="m0-1.33-1.33 2h2.66z"/></defs><path fill="none" stroke="#CCC" stroke-linecap="round" stroke-linejoin="round" stroke-width=".1" d="M46.1 162.5V45.01" class="b770e__gridline" color="#000"/><g fill="none" stroke-linecap="round" stroke-linejoin="round" stroke-width="0" color="#000"><path d="M46.1 162.5V155m0-109.99v7.5"/><text fill="#000" font-family="KaTeX_Main" font-size="8" text-anchor="middle" transform="translate(46.1 172.6)"><tspan> 1</tspan></text></g><path fill="none" stroke="#CCC" stroke-linecap="round" stroke-linejoin="round" stroke-width=".1" d="M82.31 162.5V45.01" class="b770e__gridline" color="#000"/><g fill="none" stroke-linecap="round" stroke-linejoin="round" stroke-width="0" color="#000"><path d="M82.31 162.5V155m0-109.99v7.5"/><text fill="#000" font-family="KaTeX_Main" font-size="8" text-anchor="middle" transform="translate(82.31 172.6)"><tspan> 2</tspan></text></g><path fill="none" stroke="#CCC" stroke-linecap="round" stroke-linejoin="round" stroke-width=".1" d="M118.52 162.5V45.01" class="b770e__gridline" color="#000"/><g fill="none" stroke-linecap="round" stroke-linejoin="round" stroke-width="0" color="#000"><path d="M118.52 162.5V155m0-109.99v7.5"/><text fill="#000" font-family="KaTeX_Main" font-size="8" text-anchor="middle" transform="translate(118.52 172.6)"><tspan> 3</tspan></text></g><path fill="none" stroke="#CCC" stroke-linecap="round" stroke-linejoin="round" stroke-width=".1" d="M154.73 162.5V45.01" class="b770e__gridline" color="#000"/><g fill="none" stroke-linecap="round" stroke-linejoin="round" stroke-width="0" color="#000"><path d="M154.73 162.5V155m0-109.99v7.5"/><text fill="#000" font-family="KaTeX_Main" font-size="8" text-anchor="middle" transform="translate(154.73 172.6)"><tspan> 4</tspan></text></g><path fill="none" stroke="#CCC" stroke-linecap="round" stroke-linejoin="round" stroke-width=".1" d="M190.94 162.5V45.01" class="b770e__gridline" color="#000"/><g fill="none" stroke-linecap="round" stroke-linejoin="round" stroke-width="0" color="#000"><path d="M190.94 162.5V155m0-109.99v7.5"/><text fill="#000" font-family="KaTeX_Main" font-size="8" text-anchor="middle" transform="translate(190.94 172.6)"><tspan> 5</tspan></text></g><path fill="none" stroke="#CCC" stroke-linecap="round" stroke-linejoin="round" stroke-width=".1" d="M227.15 162.5V45.01" class="b770e__gridline" color="#000"/><g fill="none" stroke-linecap="round" stroke-linejoin="round" stroke-width="0" color="#000"><path d="M227.15 162.5V155m0-109.99v7.5"/><text fill="#000" font-family="KaTeX_Main" font-size="8" text-anchor="middle" transform="translate(227.15 172.6)"><tspan> 6</tspan></text></g><path fill="none" stroke="#CCC" stroke-linecap="round" stroke-linejoin="round" stroke-width=".1" d="M263.36 162.5V45.01" class="b770e__gridline" color="#000"/><g fill="none" stroke-linecap="round" stroke-linejoin="round" stroke-width="0" color="#000"><path d="M263.36 162.5V155m0-109.99v7.5"/><text fill="#000" font-family="KaTeX_Main" font-size="8" text-anchor="middle" transform="translate(263.36 172.6)"><tspan> 7</tspan></text></g><path fill="none" stroke="#CCC" stroke-linecap="round" stroke-linejoin="round" stroke-width=".1" d="M299.57 162.5V45.01" class="b770e__gridline" color="#000"/><g fill="none" stroke-linecap="round" stroke-linejoin="round" stroke-width="0" color="#000"><path d="M299.57 162.5V155m0-109.99v7.5"/><text fill="#000" font-family="KaTeX_Main" font-size="8" text-anchor="middle" transform="translate(299.57 172.6)"><tspan> 8</tspan></text></g><path fill="none" stroke="#CCC" stroke-linecap="round" stroke-linejoin="round" stroke-width=".1" d="M335.78 162.5V45.01" class="b770e__gridline" color="#000"/><g fill="none" stroke-linecap="round" stroke-linejoin="round" stroke-width="0" color="#000"><path d="M335.78 162.5V155m0-109.99v7.5"/><text fill="#000" font-family="KaTeX_Main" font-size="8" text-anchor="middle" transform="translate(335.78 172.6)"><tspan> 9</tspan></text></g><path fill="none" stroke="#CCC" stroke-linecap="round" stroke-linejoin="round" stroke-width=".1" d="M371.99 162.5V45.01" class="b770e__gridline" color="#000"/><g fill="none" stroke-linecap="round" stroke-linejoin="round" stroke-width="0" color="#000"><path d="M371.99 162.5V155m0-109.99v7.5"/><text fill="#000" font-family="KaTeX_Main" font-size="8" text-anchor="middle" transform="translate(371.99 172.6)"><tspan> 10</tspan></text></g><g fill="none" stroke-linecap="round" stroke-linejoin="round" stroke-width="0" color="#000"><path d="M371.99 162.5h-7.5"/><text fill="#000" font-family="KaTeX_Main" font-size="8" transform="translate(378.99 165.1)"><tspan>1.04</tspan></text></g><g fill="none" stroke-linecap="round" stroke-linejoin="round" stroke-width="0" color="#000"><path d="M371.99 147.81h-7.5"/><text fill="#000" font-family="KaTeX_Main" font-size="8" transform="translate(378.99 150.41)"><tspan>1.05</tspan></text></g><g fill="none" stroke-linecap="round" stroke-linejoin="round" stroke-width="0" color="#000"><path d="M371.99 133.13h-7.5"/><text fill="#000" font-family="KaTeX_Main" font-size="8" transform="translate(378.99 135.73)"><tspan>1.06</tspan></text></g><g fill="none" stroke-linecap="round" stroke-linejoin="round" stroke-width="0" color="#000"><path d="M371.99 118.44h-7.5"/><text fill="#000" font-family="KaTeX_Main" font-size="8" transform="translate(378.99 121.04)"><tspan>1.07</tspan></text></g><g fill="none" stroke-linecap="round" stroke-linejoin="round" stroke-width="0" color="#000"><path d="M371.99 103.75h-7.5"/><text fill="#000" font-family="KaTeX_Main" font-size="8" transform="translate(378.99 106.35)"><tspan>1.08</tspan></text></g><g fill="none" stroke-linecap="round" stroke-linejoin="round" stroke-width="0" color="#000"><path d="M371.99 89.07h-7.5"/><text fill="#000" font-family="KaTeX_Main" font-size="8" transform="translate(378.99 91.67)"><tspan>1.09</tspan></text></g><g fill="none" stroke-linecap="round" stroke-linejoin="round" stroke-width="0" color="#000"><path d="M371.99 74.38h-7.5"/><text fill="#000" font-family="KaTeX_Main" font-size="8" transform="translate(378.99 76.98)"><tspan>1.10</tspan></text></g><g fill="none" stroke-linecap="round" stroke-linejoin="round" stroke-width="0" color="#000"><path d="M371.99 59.7h-7.5"/><text fill="#000" font-family="KaTeX_Main" font-size="8" transform="translate(378.99 62.3)"><tspan>1.11</tspan></text></g><g fill="none" stroke-linecap="round" stroke-linejoin="round" stroke-width="0" color="#000"><path d="M371.99 45.01h-7.5"/><text fill="#000" font-family="KaTeX_Main" font-size="8" transform="translate(378.99 47.61)"><tspan>1.12</tspan></text></g><path fill="none" d="M28 45.01V162.5M371.99 45.01H28" color="#000"/><text stroke-linecap="round" stroke-linejoin="round" stroke-width="0" color="#000" font-family="KaTeX_Main" font-size="10" text-anchor="middle" transform="rotate(-90 57.63 46.13)"><tspan font-weight="bold">Allocations </tspan><tspan> / log</tspan><tspan dy="3" font-size="8">2</tspan><tspan dy="-3">(Size)</tspan></text><text stroke-linecap="round" stroke-linejoin="round" stroke-width="0" color="#000" font-family="KaTeX_Main" font-size="10" text-anchor="middle" transform="translate(199.99 195.75)"><tspan>Operations / 10</tspan><tspan dy="-5" font-size="8">6</tspan></text><text stroke-linecap="round" stroke-linejoin="round" stroke-width=".5" color="#000" font-family="KaTeX_Main" font-size="8" transform="translate(76.8 10.11)"><tspan>AVLBottomUp</tspan></text><g fill="none" stroke="currentColor" stroke-linecap="round" stroke-linejoin="round" stroke-width=".5" color="#000"><path stroke="#000" d="M41.3 7.51h29.9M28 74.56l.36 1.56.36 1.54.37 1.47.36 1.35.36 1.18.36 1 .36.79.37.58.36.38.36.17.36-.02.37-.19.36-.34.36-.5.36-.62.36-.73.37-.84.36-.91.36-.99.36-1.04.36-1.08.37-1.09.36-1.1.36-1.08.36-1.04.36-.98.37-.89.36-.79.36-.66.36-.52.36-.35.37-.18.36.01.36.21.36.4.37.61.36.8.36.98.36 1.16.36 1.31.37 1.46.36 1.58.36 1.67.36 1.75.36 1.81.37 1.84.36 1.86.36 1.85.36 1.83.36 1.8.37 1.76.36 1.7.36 1.65.36 1.59.37 1.52.36 1.46.36 1.4.36 1.34.36 1.29.37 1.23.36 1.2.36 1.15.36 1.12.36 1.08.37 1.05.36 1.02.36.99.36.96.36.93.37.9.36.86.36.83.36.79.37.75.36.71.36.66.36.62.36.57.37.53.36.48.36.43.36.4.36.35.37.31.36.28.36.25.36.21.36.19.37.16.36.14.36.12.36.1.36.09.37.08.36.06.36.05.36.05.37.04.36.03.36.03.36.03.36.02.37.01.36.02.36.01.36.01h.36l.37.01h1.81l.36-.01h1.09l.36-.01h.72l.36-.01h2.9l.36.01h1.45l.36.01h1.81l.37-.01h.72l.36-.01h.36l.37-.01h.36l.36-.01.36-.01.36-.01h.37l.36-.01.36-.01.36-.01h.36l.37-.01.36-.01h.36l.36-.01h.73l.36-.01h2.53l.37.01h.72l.36.01h.73l.36.01h.36l.36.01h.73l.36.01h1.09l.36.01h1.45l.36.01h2.53l.36.01h1.82l.36.01h3.98l.36-.01h.36l.37-.01h.36l.36-.01h.36l.37-.01.36-.01h.36l.36-.01.36-.01.37-.01h.36l.36-.01.36-.01h.36l.37-.01.36-.01h.36l.36-.01h.36l.37-.01h3.26l.36.01h.36l.36.01h.36l.37.01.36.01h.36l.36.01.36.01.37.01h.36l.36.01.36.01.36.01h.37l.36.01.36.01h.36l.37.01h.36l.36.01h.72l.37.01h.72l.36-.01h1.09l.36-.01h.36l.36-.01h.37l.36-.01h.36l.36-.01h.36l.37-.01.36-.01h.72l.37-.01h.72l.36-.01h2.17l.37.01h.36l.36.01h.36l.36.01h.37l.36.01.36.01h.36l.37.01.36.01.36.01.36.01.36.01.37.01.36.01.36.01.36.01.36.01.37.01.36.01.36.01.36.01.36.01.37.02.36.01.36.01.36.01.36.01.37.01.36.01.36.01.36.01.37.01.36.01.36.01h.36l.36.01.37.01h.36l.36.01h.72l.37.01h2.17l.36-.01h1.09l.36-.01h.36l.36-.01h.73l.36-.01h.36l.36-.01h1.09l.36-.01h1.81l.37.01h1.08l.36.01h.73l.36.01h.36l.36.01h.73l.36.01h.72l.37.01h1.81l.36-.01h.72l.37-.01h.36l.36-.01.36-.01.36-.01h.37l.36-.01.36-.02.36-.01.36-.01.37-.01.36-.02.36-.01.36-.01.36-.02.37-.01.36-.02.36-.01.36-.02.37-.02.36-.01.36-.01.36-.02.36-.01.37-.02.36-.01.36-.01.36-.01.36-.01.37-.01.36-.01.36-.01.36-.01.36-.01.37-.01h.36l.36-.01h.36l.36-.01h.73l.36-.01h3.98l.37.01h1.81l.36.01h1.81l.36.01h1.81l.36.01h3.99l.36.01h5.07l.36.01h1.09l.36.01h.72l.37.01h.36l.36.01h.36l.36.01h.37l.36.01.36.01.36.01h.36l.37.01.36.01.36.01.36.01.36.01.37.01h.36l.36.01.36.01.37.01.36.01.36.02.36.01.36.01.37.01h.36l.36.01.36.01.36.01.37.01.36.01.36.01h.36l.36.01h.37l.36.01h.36l.36.01h2.9l.36-.01h.73l.36-.01h.36l.36-.01h.36l.37-.01.36-.01h.36l.36-.01.36-.01h.37l.36-.01.36-.01.36-.01.37-.01.36-.01.36-.01h.36l.36-.01.37-.01.36-.01.36-.01.36-.01.36-.01.37-.01.36-.01.36-.01.36-.01h.36l.37-.01.36-.01.36-.01h.36l.36-.01h.37l.36-.01h.36l.36-.01h2.9l.36.01h.73l.36.01h.36l.36.01h.36l.37.01.36.01h.36l.36.01h.37l.36.01.36.01h.36l.36.01.37.01h.36l.36.01.36.01h.36l.37.01.36.01.36.01h.36l.36.01h.37l.36.01.36.01h.36l.37.01h.36l.36.01h.36l.36.01h.73l.36.01h2.9l.36-.01h1.08l.37-.01h1.08l.37-.01h2.53l.36.01h.73l.36.01h.36l.36.01h.36l.37.01.36.01h.36l.36.01.37.01.36.01h.36l.36.01.36.01.37.01.36.01h.36l.36.01.36.01h.37l.36.01.36.01h.36l.36.01.37.01h.36l.36.01h.36l.36.01h.73l.36.01h1.09l.36.01H284l.36-.01h1.45l.36-.01h2.54l.36.01h.72l.37.01h.36l.36.01h.36l.36.01.37.01h.36l.36.01.36.01.37.01.36.01h.36l.36.01.36.01.37.01h.36l.36.01h1.45l.36-.01h.36l.36-.01h.37l.36-.01.36-.02.36-.01.37-.01.36-.01.36-.02.36-.01.36-.02.37-.01.36-.01.36-.02.36-.01.36-.01.37-.01.36-.01h.36l.36-.01h1.81l.37.01h.36l.36.01.36.01h.36l.37.01.36.01.36.01.36.01.36.01h.37l.36.01.36.01h.36l.36.01h.37l.36.01h2.53l.37-.01h1.08l.36-.01h1.09l.36-.01h1.09l.36.01h1.09l.36.01h.72l.37.01h.36l.36.01h.72l.37.01h1.08l.36-.01h.73l.36-.01h.36l.36-.01h.37l.36-.01.36-.01h.36l.36-.01.37-.01h.72l.36-.01h2.18l.36.01h.72l.36.01h1.09l.36.01h5.07l.36-.01h.73l.36-.01h.36l.36-.01.37-.01h.36l.36-.01.36-.01h.36l.37-.01h.36l.36-.01h.36l.37-.01.36-.01h.36l.36-.01.36-.01.37-.02.36-.01.36-.02.36-.02.36-.02.37-.02.36-.03.36-.02.36-.02.36-.03.37-.02.36-.01.36-.01.36-.01.37-.01h.36l.36.01.36.01.36.01.37.02.36.02.36.02.36.02.36.02.37.02.36.01.36.01h.36l.36-.01.37-.03.36-.03.36-.05.36-.05.37-.06.36-.06.36-.06.36-.06.36-.04.37-.04.36-.02h.72l.36.02.37.02.36.03.36.03.36.03.36.03.37.04.36.03.36.04.36.05.36.05.37.06.36.06.36.07.36.06.37.05.36.05.36.05.36.03.36-.01.37-.07.36-.05.36.19"/><use xlink:href="#b770e__c" transform="matrix(3.75 0 0 3.75 353.89 127.06)"/><use xlink:href="#b770e__c" transform="matrix(3.75 0 0 3.75 56.25 7.51)"/></g><text stroke-linecap="round" stroke-linejoin="round" color="#000" font-family="KaTeX_Main" font-size="8" transform="translate(76.8 25.11)"><tspan>AVLWeakTopDown</tspan></text><g fill="none" stroke="currentColor" stroke-linecap="round" stroke-linejoin="round" color="#000"><path stroke="#FFAB00" stroke-dasharray="4.5,2.0,0.5,2.0,0.5,2.0" d="M41.3 22.51h29.9M28 90.2l.36.11.36.11.37.11.36.12.36.12.36.11.36.11.37.11.36.09.36.09.36.09.37.06.36.06.36.05.36.02.36.02.37-.01.36-.02.36-.03.36-.06.36-.07.37-.08.36-.09.36-.11.36-.12.36-.12.37-.12.36-.13.36-.12.36-.12.36-.11.37-.11.36-.09.36-.07.36-.07.37-.04.36-.03.36-.02.36.01.36.02.37.03.36.04.36.06.36.06.36.06.37.07.36.07.36.06.36.06.36.06.37.04.36.04.36.03.36.01.37.01.36.01h.36l.36-.01.36-.01h1.09l.36.01.36.01.37.03.36.03.36.05.36.05.36.06.37.07.36.08.36.08.36.09.37.08.36.08.36.08.36.08.36.06.37.06.36.04.36.04.36.02.36.01h.37l.36-.02.36-.03.36-.04.36-.05.37-.05.36-.07.36-.06.36-.08.36-.07.37-.07.36-.07.36-.07.36-.06.37-.06.36-.05.36-.05.36-.04.36-.04.37-.03.36-.02.36-.03.36-.01.36-.02.37-.02.36-.01.36-.02.36-.01.36-.02.37-.02.36-.02.36-.02.36-.03.37-.03.36-.03.36-.03.36-.03.36-.03.37-.04.36-.03.36-.03.36-.03.36-.03.37-.03.36-.02.36-.02.36-.02.36-.02.37-.01.36-.01.36-.01h.36l.36-.01h1.09l.36-.01h1.09l.36-.01h.73l.36-.01h.72l.36-.01h.37l.36.01h.36l.36.01.36.01.37.01.36.01.36.02.36.02.37.02.36.02.36.03.36.02.36.02.37.03.36.02.36.02.36.02.36.02.37.01.36.01.36.01h1.09l.36-.01.36-.01.36-.02.36-.02.37-.02.36-.02.36-.02.36-.03.37-.02.36-.03.36-.02.36-.03.36-.02.37-.03.36-.02.36-.02.36-.02.36-.01.37-.02.36-.02.36-.01.36-.01.36-.01.37-.02.36-.01.36-.01.36-.01.37-.01.36-.01.36-.01.36-.01.36-.01.37-.01.36-.01.36-.02.36-.01.36-.01.37-.01.36-.01.36-.01.36-.02.36-.01.37-.01h.36l.36-.01.36-.01h.37l.36-.01h1.08l.37.01h.36l.36.01.36.01.36.01.37.01.36.02.36.01.36.02.36.03.37.02.36.03.36.03.36.03.36.04.37.03.36.04.36.04.36.05.37.04.36.05.36.04.36.05.36.04.37.05.36.04.36.05.36.04.36.04.37.04.36.04.36.03.36.04.36.03.37.02.36.03.36.02.36.01.37.01.36.01.36.01h1.09l.36-.01.36-.01.36-.01.36-.02.37-.02.36-.02.36-.02.36-.02.36-.03.37-.03.36-.03.36-.03.36-.04.36-.03.37-.04.36-.03.36-.04.36-.04.37-.03.36-.04.36-.04.36-.03.36-.04.37-.04.36-.03.36-.04.36-.03.36-.03.37-.03.36-.03.36-.03.36-.03.36-.03.37-.02.36-.03.36-.02.36-.02.37-.02.36-.02.36-.02.36-.02.36-.02.37-.02.36-.02.36-.01.36-.02.36-.02.37-.02.36-.02.36-.02.36-.02.36-.02.37-.02.36-.01.36-.02.36-.02.36-.02.37-.02.36-.02.36-.02.36-.01.37-.02.36-.01.36-.01.36-.01.36-.01h.37l.36-.01h.72l.36.01.37.01.36.01.36.01.36.02.36.02.37.03.36.02.36.03.36.04.37.03.36.04.36.05.36.04.36.05.37.05.36.05.36.05.36.06.36.06.37.05.36.06.36.06.36.06.36.06.37.06.36.05.36.06.36.05.37.05.36.05.36.05.36.04.36.04.37.04.36.03.36.03.36.03.36.02.37.02.36.02.36.01.36.01h.36l.37.01h.36l.36-.01h.36l.36-.01.37-.01.36-.02.36-.01.36-.02.37-.01.36-.02.36-.02.36-.02.36-.02.37-.02.36-.02.36-.02.36-.02.36-.02.37-.02.36-.02.36-.01.36-.02.36-.02.37-.02.36-.01.36-.02.36-.01.37-.02.36-.01.36-.01.36-.02.36-.01.37-.01.36-.01.36-.01.36-.01.36-.01.37-.01.36-.01h.36l.36-.01h.36l.37-.01h1.08l.36.01h.37l.36.01.36.01.36.02.37.01.36.02.36.02.36.02.36.02.37.03.36.03.36.03.36.03.36.03.37.04.36.03.36.04.36.03.36.04.37.03.36.04.36.03.36.03.37.03.36.03.36.03.36.02.36.02.37.01.36.02h.36l.36.01h.36l.37-.01.36-.01.36-.01.36-.02.36-.03.37-.02.36-.04.36-.04.36-.04.37-.05.36-.05.36-.06.36-.06.36-.07.37-.07.36-.07.36-.07.36-.07.36-.08.37-.08.36-.08.36-.08.36-.07.36-.08.37-.08.36-.07.36-.07.36-.07.36-.06.37-.06.36-.05.36-.05.36-.04.37-.03.36-.03.36-.03.36-.01.36-.01.37-.01.36.01.36.01.36.01.36.02.37.03.36.03.36.03.36.04.36.04.37.05.36.04.36.05.36.05.37.05.36.05.36.05.36.04.36.05.37.04.36.04.36.04.36.03.36.03.37.03.36.02.36.02.36.01.36.01.37.01.36.01h.72l.36-.01h.37l.36-.01.36-.01.36-.01.37-.01.36-.01.36-.01.36-.01.36-.01.37-.01.36-.01h1.81l.36.01.36.01.36.01.37.01.36.01.36.02.36.01.37.02.36.02.36.01.36.02.36.02.37.01.36.02.36.01.36.01h.36l.37.01h.36l.36-.01h.36l.36-.01.37-.02.36-.01.36-.03.36-.02.36-.03.37-.02.36-.04.36-.03.36-.04.37-.03.36-.04.36-.04.36-.03.36-.04.37-.04.36-.03.36-.03.36-.03.36-.03.37-.02.36-.02.36-.01.36-.01h.36l.37-.01.36.01.36.01.36.01.37.02.36.02.36.03.36.03.36.03.37.04.36.04.36.04.36.04.36.05.37.04.36.05.36.04.36.05.36.04.37.04.36.04.36.04.36.03.37.03.36.03.36.02.36.02.36.02.37.01.36.01h.72l.36-.01.37-.01.36-.01.36-.02.36-.02.36-.02.37-.03.36-.02.36-.04.36-.03.36-.03.37-.04.36-.04.36-.04.36-.04.37-.04.36-.04.36-.04.36-.03.36-.04.37-.04.36-.03.36-.04.36-.03.36-.03.37-.03.36-.03.36-.02.36-.02.36-.02.37-.02.36-.01.36-.02.36-.01.37-.01h.36l.36-.01h.36l.36-.01h.73l.36-.01h.36l.36-.01h.37l.36-.01.36-.01.36-.01.36-.01.37-.01.36-.02.36-.01.36-.02.36-.02.37-.03.36-.02.36-.03.36-.02.37-.03.36-.03.36-.03.36-.03.36-.03.37-.03.36-.03.36-.03.36-.02.36-.03.37-.03.36-.02.36-.02.36-.02.36-.02.37-.02.36-.01.36-.02.36-.01.37-.01h.36l.36-.01h.72l.37.01h.36l.36.01.36.01.36.02.37.01.36.02.36.02.36.03.36.02.37.03.36.03.36.04.36.03.36.04.37.04.36.04.36.04.36.04.37.05.36.04.36.05.36.05.36.05.37.05.36.06.36.05.36.06.36.06.37.06.36.06.36.06.36.06.36.06.37.06.36.06.36.06.36.06.37.06.36.05.36.05.36.05.36.04.37.03.36.04.36.02.36.02.36.02h1.09l.36-.01.36-.02.37-.03.36-.03.36-.03.36-.04.37-.05.36-.05.36-.05.36-.05.36-.06.37-.06.36-.06.36-.06.36-.06.36-.06.37-.06.36-.06.36-.05.36-.05.36-.05.37-.04.36-.04.36-.03.36-.03.36-.02.37-.02.36-.01h1.09l.36.01.36.01.36.01.36.02.37.02.36.02.36.02.36.02.36.02.37.02.36.01.36.02.36.02.36.01.37.01.36.02.36.01.36.01h.37l.36.01.36.01h.36l.36.01h.37l.36.01h1.81l.36-.01h.36l.36-.01.37-.02.36-.01.36-.03.36-.02.36-.03.37-.03.36-.04.36-.04.36-.04.37-.05.36-.05.36-.06.36-.05.36-.06.37-.06.36-.05.36-.05.36-.06.36-.04.37-.04.36-.04.36-.02.36-.02.36-.01h.37l.36.01.36.02.36.03.37.05.36.05.36.05.36.07.36.06.37.07.36.07.36.07.36.07.36.06.37.05.36.05.36.05.36.04.36.03.37.03.36.02.36.03.36.02.36.02.37.02.36.03.36.02.36.02.37.03.36.02.36.02.36.01h.73l.36-.02.36-.03.36-.05.36-.05.37-.08.36-.08.36-.09.36-.1.36-.1.37-.1.36-.08.36-.08.36-.05.37-.02h.36l.36.04.36.08.36.11.37.14.36.16.36.17.36.19.36.18.37.17.36.16.36.14.36.11.36.1.37.07.36.06.36.04.36.02h.37l.36-.05.36-.1.36-.17.36-.25.37-.34.36-.43.36-.5.36-.53.36-.52.37-.47.36-.39.36-.27.36-.14.36-.04.37.04.36.09.36.14.36.18.36.26.37.36.36.49.36.58.36.56.37.36.36-.01.36-.48.36-.73.36-.46.37.59.36 2.01.36 1.42"/><use xlink:href="#b770e__d" color="#FFAB00" transform="matrix(3.75 0 0 3.75 67.83 90.53)"/><use xlink:href="#b770e__d" color="#FFAB00" transform="matrix(3.75 0 0 3.75 56.25 22.51)"/></g><text stroke-linecap="round" stroke-linejoin="round" color="#000" font-family="KaTeX_Main" font-size="8" transform="translate(241.1 10.11)"><tspan>AVLRelaxedBottomUp</tspan></text><g fill="none" stroke="currentColor" stroke-linecap="round" stroke-linejoin="round" color="#000"><path stroke="#D336C8" d="M205.6 7.51h29.9M28 132.55l.36-.22.36-.21.37-.21.36-.2.36-.19.36-.19.36-.19.37-.19.36-.18.36-.19.36-.19.37-.19.36-.19.36-.2.36-.19.36-.19.37-.19.36-.18.36-.18.36-.18.36-.18.37-.17.36-.17.36-.16.36-.16.36-.16.37-.16.36-.16.36-.16.36-.16.36-.16.37-.16.36-.16.36-.17.36-.17.37-.18.36-.18.36-.17.36-.18.36-.18.37-.19.36-.18.36-.18.36-.17.36-.18.37-.18.36-.17.36-.17.36-.17.36-.17.37-.16.36-.17.36-.16.36-.16.37-.15.36-.16.36-.15.36-.15.36-.15.37-.14.36-.15.36-.14.36-.14.36-.14.37-.13.36-.14.36-.13.36-.14.36-.13.37-.13.36-.13.36-.13.36-.12.37-.13.36-.12.36-.12.36-.12.36-.11.37-.12.36-.1.36-.11.36-.1.36-.1.37-.09.36-.09.36-.08.36-.09.36-.08.37-.07.36-.08.36-.07.36-.07.36-.08.37-.07.36-.07.36-.08.36-.08.37-.08.36-.08.36-.09.36-.08.36-.1.37-.09.36-.1.36-.09.36-.1.36-.1.37-.1.36-.1.36-.1.36-.09.36-.09.37-.09.36-.08.36-.08.36-.07.37-.06.36-.06.36-.05.36-.05.36-.04.37-.04.36-.03.36-.02.36-.03.36-.02.37-.02.36-.02.36-.02.36-.01.36-.02.37-.03.36-.02.36-.03.36-.04.36-.03.37-.05.36-.05.36-.05.36-.06.37-.06.36-.07.36-.08.36-.08.36-.09.37-.08.36-.1.36-.09.36-.1.36-.1.37-.1.36-.11.36-.1.36-.1.36-.11.37-.1.36-.1.36-.1.36-.09.37-.1.36-.09.36-.09.36-.09.36-.09.37-.08.36-.09.36-.08.36-.08.36-.08.37-.08.36-.07.36-.08.36-.08.36-.08.37-.07.36-.08.36-.08.36-.08.36-.08.37-.08.36-.08.36-.09.36-.08.37-.08.36-.09.36-.09.36-.08.36-.09.37-.08.36-.09.36-.08.36-.09.36-.08.37-.08.36-.08.36-.08.36-.08.36-.08.37-.07.36-.07.36-.07.36-.07.37-.07.36-.07.36-.06.36-.07.36-.06.37-.06.36-.06.36-.06.36-.06.36-.06.37-.06.36-.05.36-.06.36-.06.36-.06.37-.05.36-.06.36-.06.36-.06.37-.06.36-.06.36-.06.36-.06.36-.06.37-.06.36-.07.36-.06.36-.07.36-.06.37-.07.36-.07.36-.07.36-.07.36-.07.37-.07.36-.07.36-.08.36-.08.36-.08.37-.08.36-.08.36-.09.36-.09.37-.09.36-.09.36-.09.36-.1.36-.09.37-.1.36-.1.36-.1.36-.11.36-.1.37-.1.36-.11.36-.1.36-.11.36-.1.37-.11.36-.1.36-.1.36-.1.37-.1.36-.1.36-.09.36-.09.36-.09.37-.09.36-.08.36-.08.36-.08.36-.07.37-.07.36-.06.36-.06.36-.06.36-.05.37-.05.36-.04.36-.04.36-.03.36-.04.37-.02.36-.03.36-.02.36-.01.37-.02.36-.01h.36l.36-.01h.36l.37.01.36.01.36.01.36.01.36.02.37.03.36.03.36.03.36.04.36.04.37.06.36.06.36.06.36.08.37.09.36.09.36.11.36.12.36.13.37.15.36.16.36.17.36.19.36.21.37.22.36.24.36.25.36.27.36.29.37.3.36.32.36.33.36.34.36.36.37.36.36.38.36.38.36.39.37.4.36.39.36.4.36.4.36.4.37.39.36.38.36.38.36.37.36.37.37.35.36.33.36.33.36.31.36.3.37.28.36.27.36.25.36.24.37.22.36.21.36.2.36.18.36.17.37.15.36.14.36.14.36.12.36.11.37.11.36.09.36.09.36.08.36.08.37.07.36.07.36.07.36.06.37.06.36.06.36.05.36.06.36.05.37.05.36.05.36.05.36.06.36.05.37.05.36.05.36.05.36.05.36.05.37.05.36.05.36.05.36.04.36.05.37.05.36.04.36.04.36.05.37.03.36.04.36.03.36.04.36.02.37.03.36.02.36.02.36.01.36.01.37.01h.36l.36-.01.36-.01.36-.01.37-.02.36-.03.36-.03.36-.03.37-.04.36-.05.36-.05.36-.05.36-.06.37-.06.36-.07.36-.07.36-.08.36-.07.37-.08.36-.09.36-.08.36-.09.36-.09.37-.09.36-.1.36-.09.36-.09.36-.1.37-.1.36-.1.36-.09.36-.1.37-.1.36-.1.36-.1.36-.11.36-.1.37-.1.36-.1.36-.1.36-.11.36-.1.37-.1.36-.11.36-.1.36-.1.36-.11.37-.1.36-.1.36-.11.36-.1.37-.1.36-.1.36-.1.36-.09.36-.1.37-.09.36-.1.36-.08.36-.09.36-.09.37-.08.36-.08.36-.07.36-.08.36-.07.37-.07.36-.06.36-.07.36-.06.37-.05.36-.06.36-.05.36-.05.36-.05.37-.05.36-.04.36-.04.36-.04.36-.04.37-.04.36-.04.36-.03.36-.04.36-.03.37-.04.36-.03.36-.03.36-.03.36-.03.37-.03.36-.03.36-.03.36-.03.37-.02.36-.03.36-.03.36-.03.36-.02.37-.03.36-.03.36-.02.36-.03.36-.03.37-.02.36-.03.36-.03.36-.03.36-.03.37-.03.36-.03.36-.03.36-.03.37-.04.36-.03.36-.03.36-.04.36-.03.37-.04.36-.03.36-.04.36-.04.36-.03.37-.04.36-.03.36-.04.36-.04.36-.03.37-.04.36-.04.36-.03.36-.04.36-.04.37-.03.36-.04.36-.04.36-.04.37-.03.36-.04.36-.04.36-.04.36-.04.37-.04.36-.04.36-.05.36-.04.36-.05.37-.04.36-.05.36-.05.36-.05.36-.05.37-.05.36-.05.36-.05.36-.05.37-.06.36-.05.36-.06.36-.05.36-.06.37-.06.36-.05.36-.06.36-.06.36-.06.37-.06.36-.06.36-.06.36-.06.36-.06.37-.06.36-.06.36-.06.36-.06.36-.06.37-.06.36-.06.36-.06.36-.06.37-.06.36-.06.36-.06.36-.06.36-.05.37-.06.36-.05.36-.05.36-.05.36-.05.37-.04.36-.04.36-.04.36-.04.36-.03.37-.04.36-.02.36-.03.36-.02.37-.02.36-.02.36-.01.36-.01.36-.01.37-.01h1.44l.37.01.36.01h.36l.36.01.36.01.37.01.36.01.36.02.36.01.37.01.36.01.36.02.36.01.36.01.37.01.36.01.36.02.36.01.36.01.37.01.36.01.36.01.36.01.36.01.37.01.36.01.36.01.36.01.36.02.37.01.36.02.36.01.36.02.37.02.36.02.36.02.36.03.36.02.37.03.36.03.36.03.36.03.36.03.37.03.36.03.36.03.36.03.36.03.37.03.36.02.36.03.36.02.37.01.36.02.36.01h1.09l.36-.01.36-.02.36-.02.36-.03.37-.03.36-.04.36-.04.36-.05.36-.05.37-.06.36-.06.36-.06.36-.07.36-.08.37-.07.36-.08.36-.08.36-.08.37-.08.36-.08.36-.08.36-.08.36-.08.37-.08.36-.08.36-.08.36-.07.36-.07.37-.07.36-.07.36-.06.36-.06.36-.06.37-.05.36-.05.36-.04.36-.05.37-.03.36-.04.36-.02.36-.03.36-.02.37-.02.36-.01.36-.01h1.09l.36.01.36.01.36.02.36.01.37.02.36.03.36.02.36.03.36.03.37.03.36.03.36.03.36.04.37.03.36.03.36.03.36.03.36.03.37.03.36.03.36.02.36.02.36.02.37.02.36.01.36.01.36.01.36.01.37.01h2.17l.36-.01h2.9l.36.01.36.01.36.01h.37l.36.02.36.01.36.01.37.02.36.01.36.02.36.01.36.02.37.02.36.01.36.02.36.02.36.01.37.02.36.01.36.01.36.01.36.01h1.09l.36-.01.36-.01.37-.01.36-.03.36-.02.36-.04.37-.04.36-.05.36-.05.36-.07.36-.08.37-.08.36-.1.36-.11.36-.12.36-.13.37-.14.36-.15.36-.16.36-.17.36-.18.37-.18.36-.19.36-.19.36-.2.37-.19.36-.2.36-.19.36-.19.36-.19.37-.18.36-.17.36-.16.36-.16.36-.15.37-.14.36-.13.36-.13.36-.12.36-.11.37-.1.36-.1.36-.1.36-.08.36-.09.37-.07.36-.07.36-.07.36-.06.37-.05.36-.04.36-.04.36-.03.36-.02.37-.02h.72l.36.02.36.02.37.03.36.04.36.04.36.06.36.06.37.06.36.08.36.08.36.08.37.09.36.1.36.1.36.1.36.11.37.11.36.12.36.12.36.12.36.11.37.12.36.12.36.11.36.11.36.1.37.1.36.08.36.08.36.06.36.06.37.05.36.04.36.03.36.02.37.02.36.01.36.01.36.01h.36l.37.01.36.01h1.45l.36-.02.36-.03.36-.04.36-.06.37-.07.36-.09.36-.11.36-.12.37-.13.36-.14.36-.15.36-.16.36-.16.37-.15.36-.16.36-.16.36-.15.36-.15.37-.15.36-.15.36-.15.36-.16.36-.15.37-.16.36-.15.36-.16.36-.15.37-.15.36-.13.36-.12.36-.1.36-.07.37-.04.36-.01.36.02.36.06.36.08.37.11.36.12.36.13.36.13.36.12.37.11.36.1.36.08.36.07.36.06.37.03.36.03.36.01.36.02.37.04.36.09.36.18.36.29.36.38.37.22.36-.37.36-.8"/><use xlink:href="#b770e__b" color="#D336C8" transform="matrix(3.75 0 0 3.75 125.4 105.02)"/><use xlink:href="#b770e__b" color="#D336C8" transform="matrix(3.75 0 0 3.75 220.55 7.51)"/></g><text stroke-linecap="round" stroke-linejoin="round" color="#000" font-family="KaTeX_Main" font-size="8" transform="translate(241.1 25.11)"><tspan>RedBlackRelaxedTopDown</tspan></text><g fill="none" stroke="currentColor" stroke-linecap="round" stroke-linejoin="round" color="#000"><path stroke="violet" stroke-dasharray="4.0,2.0,1.0,2.0" d="M205.6 22.51h29.9M28 156.6l.36-.07.36-.13.37-.19.36-.22.36-.24.36-.26.36-.26.37-.26.36-.25.36-.25.36-.23.37-.23.36-.23.36-.23.36-.23.36-.25.37-.27.36-.3.36-.33.36-.36.36-.41.37-.45.36-.48.36-.53.36-.57.36-.59.37-.62.36-.64.36-.65.36-.65.36-.65.37-.65.36-.62.36-.61.36-.59.37-.56.36-.53.36-.51.36-.48.36-.45.37-.43.36-.4.36-.38.36-.37.36-.34.37-.34.36-.31.36-.31.36-.3.36-.29.37-.28.36-.28.36-.27.36-.26.37-.26.36-.25.36-.25.36-.24.36-.23.37-.23.36-.22.36-.21.36-.21.36-.2.37-.19.36-.19.36-.18.36-.17.36-.17.37-.16.36-.16.36-.15.36-.15.37-.15.36-.14.36-.14.36-.13.36-.14.37-.13.36-.13.36-.12.36-.13.36-.12.37-.12.36-.11.36-.12.36-.11.36-.11.37-.1.36-.11.36-.1.36-.09.36-.1.37-.09.36-.09.36-.09.36-.08.37-.09.36-.08.36-.09.36-.08.36-.08.37-.08.36-.08.36-.09.36-.08.36-.08.37-.09.36-.08.36-.09.36-.08.36-.09.37-.08.36-.09.36-.09.36-.08.37-.09.36-.09.36-.09.36-.08.36-.09.37-.09.36-.09.36-.09.36-.09.36-.09.37-.09.36-.1.36-.09.36-.1.36-.11.37-.11.36-.11.36-.11.36-.12.36-.13.37-.13.36-.13.36-.14.36-.15.37-.15.36-.15.36-.16.36-.17.36-.17.37-.17.36-.17.36-.18.36-.18.36-.18.37-.18.36-.18.36-.18.36-.18.36-.18.37-.17.36-.17.36-.17.36-.17.37-.16.36-.16.36-.15.36-.15.36-.15.37-.14.36-.14.36-.14.36-.13.36-.13.37-.13.36-.12.36-.12.36-.11.36-.12.37-.11.36-.11.36-.1.36-.11.36-.1.37-.1.36-.09.36-.1.36-.09.37-.09.36-.08.36-.09.36-.08.36-.08.37-.07.36-.07.36-.07.36-.07.36-.06.37-.07.36-.06.36-.05.36-.06.36-.05.37-.05.36-.05.36-.05.36-.05.37-.05.36-.05.36-.04.36-.05.36-.05.37-.06.36-.05.36-.06.36-.06.36-.06.37-.06.36-.07.36-.07.36-.08.36-.08.37-.09.36-.09.36-.09.36-.1.37-.1.36-.11.36-.11.36-.11.36-.12.37-.12.36-.13.36-.13.36-.13.36-.13.37-.14.36-.14.36-.14.36-.14.36-.14.37-.15.36-.14.36-.15.36-.14.36-.15.37-.15.36-.15.36-.15.36-.14.37-.15.36-.15.36-.15.36-.15.36-.15.37-.15.36-.15.36-.15.36-.15.36-.15.37-.15.36-.15.36-.15.36-.15.36-.14.37-.15.36-.15.36-.14.36-.15.37-.14.36-.14.36-.14.36-.14.36-.14.37-.13.36-.14.36-.13.36-.13.36-.13.37-.12.36-.13.36-.12.36-.12.36-.12.37-.12.36-.12.36-.11.36-.12.36-.12.37-.11.36-.11.36-.12.36-.11.37-.12.36-.11.36-.12.36-.11.36-.12.37-.11.36-.12.36-.12.36-.11.36-.12.37-.12.36-.12.36-.12.36-.11.36-.12.37-.12.36-.11.36-.12.36-.11.37-.11.36-.11.36-.11.36-.1.36-.11.37-.1.36-.09.36-.09.36-.09.36-.09.37-.08.36-.08.36-.07.36-.06.36-.07.37-.05.36-.06.36-.04.36-.05.36-.03.37-.03.36-.03.36-.02.36-.02.37-.01h.72l.36.01.36.01.37.01.36.02.36.03.36.03.36.03.37.04.36.04.36.04.36.05.36.05.37.05.36.05.36.06.36.06.37.05.36.06.36.05.36.06.36.05.37.06.36.05.36.05.36.04.36.05.37.04.36.03.36.04.36.03.36.02.37.02.36.02.36.02.36.01h.37l.36.01h.36l.36-.01.36-.01.37-.01.36-.01.36-.01.36-.02.36-.02.37-.02.36-.02.36-.02.36-.03.36-.02.37-.03.36-.03.36-.03.36-.02.36-.03.37-.03.36-.03.36-.03.36-.03.37-.03.36-.03.36-.03.36-.04.36-.03.37-.03.36-.04.36-.04.36-.04.36-.03.37-.05.36-.04.36-.04.36-.05.36-.05.37-.05.36-.06.36-.05.36-.06.37-.06.36-.06.36-.06.36-.07.36-.07.37-.06.36-.07.36-.08.36-.07.36-.07.37-.08.36-.07.36-.08.36-.07.36-.08.37-.07.36-.08.36-.07.36-.08.36-.07.37-.08.36-.07.36-.07.36-.07.37-.08.36-.07.36-.07.36-.07.36-.06.37-.07.36-.07.36-.07.36-.06.36-.07.37-.06.36-.07.36-.06.36-.06.36-.06.37-.06.36-.06.36-.06.36-.06.37-.06.36-.05.36-.05.36-.06.36-.05.37-.05.36-.04.36-.05.36-.04.36-.05.37-.04.36-.04.36-.04.36-.04.36-.03.37-.04.36-.03.36-.04.36-.03.37-.03.36-.03.36-.04.36-.03.36-.03.37-.04.36-.04.36-.03.36-.04.36-.04.37-.04.36-.05.36-.05.36-.04.36-.06.37-.05.36-.06.36-.05.36-.06.36-.07.37-.06.36-.07.36-.07.36-.06.37-.08.36-.07.36-.07.36-.07.36-.08.37-.07.36-.07.36-.08.36-.07.36-.07.37-.08.36-.07.36-.07.36-.07.36-.06.37-.07.36-.07.36-.06.36-.06.37-.07.36-.06.36-.06.36-.06.36-.06.37-.06.36-.06.36-.06.36-.06.36-.07.37-.06.36-.06.36-.07.36-.07.36-.06.37-.07.36-.08.36-.07.36-.08.36-.07.37-.09.36-.08.36-.08.36-.09.37-.09.36-.09.36-.09.36-.1.36-.09.37-.1.36-.1.36-.1.36-.1.36-.1.37-.1.36-.11.36-.1.36-.11.36-.1.37-.11.36-.1.36-.11.36-.11.37-.1.36-.11.36-.1.36-.11.36-.1.37-.11.36-.1.36-.11.36-.1.36-.1.37-.11.36-.1.36-.1.36-.1.36-.09.37-.1.36-.1.36-.09.36-.09.36-.09.37-.09.36-.08.36-.09.36-.08.37-.08.36-.07.36-.08.36-.07.36-.06.37-.07.36-.06.36-.05.36-.06.36-.05.37-.04.36-.04.36-.04.36-.03.36-.03.37-.02.36-.02.36-.02h.36l.37-.01.36.01.36.01.36.02.36.02.37.03.36.04.36.05.36.06.36.06.37.07.36.08.36.09.36.1.36.11.37.12.36.12.36.14.36.14.37.15.36.16.36.16.36.17.36.18.37.19.36.19.36.19.36.2.36.2.37.2.36.2.36.2.36.21.36.2.37.2.36.19.36.19.36.19.36.18.37.17.36.17.36.16.36.16.37.14.36.14.36.12.36.12.36.11.37.1.36.09.36.08.36.07.36.06.37.05.36.04.36.03.36.03.36.02.37.01h.72l.36-.01.37-.02.36-.01.36-.03.36-.03.36-.03.37-.03.36-.04.36-.04.36-.04.36-.05.37-.04.36-.05.36-.05.36-.05.36-.04.37-.05.36-.06.36-.05.36-.05.36-.05.37-.05.36-.06.36-.06.36-.05.37-.06.36-.06.36-.06.36-.07.36-.06.37-.07.36-.06.36-.07.36-.08.36-.07.37-.07.36-.08.36-.08.36-.07.36-.08.37-.08.36-.08.36-.08.36-.08.37-.08.36-.08.36-.08.36-.07.36-.08.37-.07.36-.08.36-.07.36-.07.36-.07.37-.07.36-.07.36-.07.36-.07.36-.07.37-.06.36-.07.36-.06.36-.07.36-.06.37-.07.36-.06.36-.06.36-.06.37-.06.36-.06.36-.06.36-.05.36-.06.37-.05.36-.05.36-.05.36-.04.36-.05.37-.04.36-.04.36-.04.36-.03.36-.03.37-.04.36-.03.36-.02.36-.03.37-.03.36-.02.36-.02.36-.02.36-.02.37-.02.36-.02.36-.02.36-.01.36-.02.37-.01.36-.01.36-.01h.36l.36-.01h.73l.36.01h.36l.37.01.36.01.36.01.36.01.36.02.37.02.36.01.36.02.36.02.36.01.37.02.36.01.36.01.36.01.36.01h1.09l.36-.01.36-.01.37-.02.36-.02.36-.02.36-.03.37-.04.36-.03.36-.05.36-.04.36-.05.37-.05.36-.06.36-.06.36-.06.36-.07.37-.06.36-.07.36-.07.36-.07.36-.08.37-.07.36-.07.36-.07.36-.07.37-.07.36-.07.36-.06.36-.07.36-.05.37-.06.36-.05.36-.05.36-.04.36-.03.37-.03.36-.03.36-.02.36-.02.36-.01.37-.01h.72l.36.01.36.01.37.01.36.02.36.03.36.03.37.03.36.04.36.04.36.05.36.05.37.06.36.06.36.06.36.07.36.07.37.07.36.08.36.07.36.07.36.07.37.06.36.06.36.05.36.05.37.04.36.03.36.02.36.02.36.01.37-.01.36-.01.36-.01.36-.02.36-.03.37-.04.36-.04.36-.04.36-.05.36-.05.37-.05.36-.05.36-.06.36-.06.36-.05.37-.06.36-.06.36-.05.36-.05.37-.05.36-.05.36-.04.36-.04.36-.03.37-.02.36-.03.36-.01.36-.02.36-.01.37-.01.36-.01.36-.02.36-.01.36-.03.37-.02.36-.03.36-.04.36-.04.37-.05.36-.05.36-.05.36-.04.36-.05.37-.05.36-.05.36-.06.36-.05.36-.06.37-.07.36-.08.36-.1.36-.11.36-.12.37-.14.36-.16.36-.16.36-.17.37-.16.36-.15.36-.13.36-.1.36-.06.37-.02.36.03.36.07.36.12.36.15.37.17.36.18.36.17.36.15.36.13.37.09.36.05.36.02.36-.01.36-.02.37-.02.36-.01.36.01.36.04.37.12.36.22.36.36.36.45.36.37.37-.07.36-.83.36-.92"/><use xlink:href="#b770e__e" color="violet" transform="matrix(3.75 0 0 3.75 182.98 102.61)"/><use xlink:href="#b770e__e" color="violet" transform="matrix(3.75 0 0 3.75 220.55 22.51)"/></g><path fill="none" d="M28 45.01V162.5M371.99 45.01H28" color="#000"/></svg>