<svg xmlns="http://www.w3.org/2000/svg" xmlns:xlink="http://www.w3.org/1999/xlink" viewBox="0 0 400 200"><path fill="none" d="M0 0h400v200H0z"/><defs><use xlink:href="#6701c__a" id="6701c__e" fill="currentColor" stroke="none"/><use xlink:href="#6701c__b" id="6701c__c" stroke="currentColor" transform="rotate(180)"/><use xlink:href="#6701c__c" id="6701c__d" fill="currentColor" stroke="none"/><path id="6701c__f" stroke="currentColor" stroke-width=".267" d="M-1 0h2M0-1v2"/><path id="6701c__b" stroke="currentColor" stroke-width=".267" d="m0-1.33-1.33 2h2.66z"/><circle id="6701c__a" cx="0" cy="0" r="1" stroke="currentColor" stroke-width=".267"/></defs><path fill="none" stroke="#999" stroke-linecap="round" stroke-linejoin="round" stroke-width=".1" d="M46.1 162.5V45.01" class="6701c__7d52f__6701c__gridline" color="#000"/><g fill="none" stroke-linecap="round" stroke-linejoin="round" stroke-width="0" color="#000"><path d="M46.1 162.5V155m0-109.99v7.5"/><text fill="#000" font-family="KaTeX_Main" font-size="8" text-anchor="middle" transform="translate(46.1 172.6)"><tspan> 1</tspan></text></g><path fill="none" stroke="#999" stroke-linecap="round" stroke-linejoin="round" stroke-width=".1" d="M82.31 162.5V45.01" class="6701c__7d52f__6701c__gridline" color="#000"/><g fill="none" stroke-linecap="round" stroke-linejoin="round" stroke-width="0" color="#000"><path d="M82.31 162.5V155m0-109.99v7.5"/><text fill="#000" font-family="KaTeX_Main" font-size="8" text-anchor="middle" transform="translate(82.31 172.6)"><tspan> 2</tspan></text></g><path fill="none" stroke="#999" stroke-linecap="round" stroke-linejoin="round" stroke-width=".1" d="M118.52 162.5V45.01" class="6701c__7d52f__6701c__gridline" color="#000"/><g fill="none" stroke-linecap="round" stroke-linejoin="round" stroke-width="0" color="#000"><path d="M118.52 162.5V155m0-109.99v7.5"/><text fill="#000" font-family="KaTeX_Main" font-size="8" text-anchor="middle" transform="translate(118.52 172.6)"><tspan> 3</tspan></text></g><path fill="none" stroke="#999" stroke-linecap="round" stroke-linejoin="round" stroke-width=".1" d="M154.73 162.5V45.01" class="6701c__7d52f__6701c__gridline" color="#000"/><g fill="none" stroke-linecap="round" stroke-linejoin="round" stroke-width="0" color="#000"><path d="M154.73 162.5V155m0-109.99v7.5"/><text fill="#000" font-family="KaTeX_Main" font-size="8" text-anchor="middle" transform="translate(154.73 172.6)"><tspan> 4</tspan></text></g><path fill="none" stroke="#999" stroke-linecap="round" stroke-linejoin="round" stroke-width=".1" d="M190.94 162.5V45.01" class="6701c__7d52f__6701c__gridline" color="#000"/><g fill="none" stroke-linecap="round" stroke-linejoin="round" stroke-width="0" color="#000"><path d="M190.94 162.5V155m0-109.99v7.5"/><text fill="#000" font-family="KaTeX_Main" font-size="8" text-anchor="middle" transform="translate(190.94 172.6)"><tspan> 5</tspan></text></g><path fill="none" stroke="#999" stroke-linecap="round" stroke-linejoin="round" stroke-width=".1" d="M227.15 162.5V45.01" class="6701c__7d52f__6701c__gridline" color="#000"/><g fill="none" stroke-linecap="round" stroke-linejoin="round" stroke-width="0" color="#000"><path d="M227.15 162.5V155m0-109.99v7.5"/><text fill="#000" font-family="KaTeX_Main" font-size="8" text-anchor="middle" transform="translate(227.15 172.6)"><tspan> 6</tspan></text></g><path fill="none" stroke="#999" stroke-linecap="round" stroke-linejoin="round" stroke-width=".1" d="M263.36 162.5V45.01" class="6701c__7d52f__6701c__gridline" color="#000"/><g fill="none" stroke-linecap="round" stroke-linejoin="round" stroke-width="0" color="#000"><path d="M263.36 162.5V155m0-109.99v7.5"/><text fill="#000" font-family="KaTeX_Main" font-size="8" text-anchor="middle" transform="translate(263.36 172.6)"><tspan> 7</tspan></text></g><path fill="none" stroke="#999" stroke-linecap="round" stroke-linejoin="round" stroke-width=".1" d="M299.57 162.5V45.01" class="6701c__7d52f__6701c__gridline" color="#000"/><g fill="none" stroke-linecap="round" stroke-linejoin="round" stroke-width="0" color="#000"><path d="M299.57 162.5V155m0-109.99v7.5"/><text fill="#000" font-family="KaTeX_Main" font-size="8" text-anchor="middle" transform="translate(299.57 172.6)"><tspan> 8</tspan></text></g><path fill="none" stroke="#999" stroke-linecap="round" stroke-linejoin="round" stroke-width=".1" d="M335.78 162.5V45.01" class="6701c__7d52f__6701c__gridline" color="#000"/><g fill="none" stroke-linecap="round" stroke-linejoin="round" stroke-width="0" color="#000"><path d="M335.78 162.5V155m0-109.99v7.5"/><text fill="#000" font-family="KaTeX_Main" font-size="8" text-anchor="middle" transform="translate(335.78 172.6)"><tspan> 9</tspan></text></g><path fill="none" stroke="#999" stroke-linecap="round" stroke-linejoin="round" stroke-width=".1" d="M371.99 162.5V45.01" class="6701c__7d52f__6701c__gridline" color="#000"/><g fill="none" stroke-linecap="round" stroke-linejoin="round" stroke-width="0" color="#000"><path d="M371.99 162.5V155m0-109.99v7.5"/><text fill="#000" font-family="KaTeX_Main" font-size="8" text-anchor="middle" transform="translate(371.99 172.6)"><tspan> 10</tspan></text></g><g fill="none" stroke-linecap="round" stroke-linejoin="round" stroke-width="0" color="#000"><path d="M371.99 162.5h-7.5"/><text fill="#000" font-family="KaTeX_Main" font-size="8" transform="translate(378.99 165.1)"><tspan>0.800</tspan></text></g><g fill="none" stroke-linecap="round" stroke-linejoin="round" stroke-width="0" color="#000"><path d="M371.99 142.92h-7.5"/><text fill="#000" font-family="KaTeX_Main" font-size="8" transform="translate(378.99 145.52)"><tspan>1.000</tspan></text></g><g fill="none" stroke-linecap="round" stroke-linejoin="round" stroke-width="0" color="#000"><path d="M371.99 123.34h-7.5"/><text fill="#000" font-family="KaTeX_Main" font-size="8" transform="translate(378.99 125.94)"><tspan>1.200</tspan></text></g><g fill="none" stroke-linecap="round" stroke-linejoin="round" stroke-width="0" color="#000"><path d="M371.99 103.75h-7.5"/><text fill="#000" font-family="KaTeX_Main" font-size="8" transform="translate(378.99 106.35)"><tspan>1.400</tspan></text></g><g fill="none" stroke-linecap="round" stroke-linejoin="round" stroke-width="0" color="#000"><path d="M371.99 84.17h-7.5"/><text fill="#000" font-family="KaTeX_Main" font-size="8" transform="translate(378.99 86.77)"><tspan>1.600</tspan></text></g><g fill="none" stroke-linecap="round" stroke-linejoin="round" stroke-width="0" color="#000"><path d="M371.99 64.59h-7.5"/><text fill="#000" font-family="KaTeX_Main" font-size="8" transform="translate(378.99 67.19)"><tspan>1.800</tspan></text></g><g fill="none" stroke-linecap="round" stroke-linejoin="round" stroke-width="0" color="#000"><path d="M371.99 45.01h-7.5"/><text fill="#000" font-family="KaTeX_Main" font-size="8" transform="translate(378.99 47.61)"><tspan>2.000</tspan></text></g><path fill="none" d="M28 45.01V162.5M371.99 45.01H28" color="#000"/><text stroke-linecap="round" stroke-linejoin="round" stroke-width="0" color="#000" font-family="KaTeX_Main" font-size="10" text-anchor="middle" transform="rotate(-90 57.63 46.13)"><tspan font-weight="bold">Average Path Length </tspan><tspan> / log</tspan><tspan dy="3" font-size="8">2</tspan><tspan dy="-3">(Size)</tspan></text><text stroke-linecap="round" stroke-linejoin="round" stroke-width="0" color="#000" font-family="KaTeX_Main" font-size="10" text-anchor="middle" transform="translate(199.99 195.75)"><tspan>Operations / 10</tspan><tspan dy="-5" font-size="8">6</tspan></text><text stroke-linecap="round" stroke-linejoin="round" color="#000" font-family="KaTeX_Main" font-size="8" transform="translate(104.8 10.11)"><tspan>AVLTopDown</tspan></text><g fill="none" stroke="currentColor" stroke-linecap="round" stroke-linejoin="round" color="#000"><path stroke="#29C3F6" stroke-dasharray="1.0,2.0" d="M69.3 7.51h29.9M28 151.41l.36-.04.36.12.37.01.36.02.36-.05.36-.06.36-.04.37-.04.36-.03.36-.03.36-.06.37.03.36.08.36-.04.36-.02.36-.04.37-.03.36-.02.36-.01.36-.04.36-.05.37-.06.36-.04.36.02.36-.04.36-.02.37-.03.36-.04.36-.03.36-.02.36-.04.37.02.36-.04.36-.03.36-.04.37-.03.36-.03.36-.04.36.09.36-.01.37.05.36.2.36-.02h.36l.36.01.37-.01.36-.02.36-.02.36-.03.36-.02.37.12.36-.01h.36l.36-.01.37-.02.36-.02.36.01H49l.36-.02h.37l.36-.02.36-.01.36-.02h.36l.37-.03.36-.02.36-.03.36-.02.36.01.37.27.36-.02.36-.03h.36l.37-.03.36.01.36-.01.36-.03.36-.03.37-.03.36-.01.36-.02.36-.01.36-.02.37-.03.36-.01.36-.03.36.03.36-.02.37-.03.36.05.36-.03.36-.03.36-.03.37.05.36-.01.36.01.36-.02.37-.02.36-.02.36-.01.36-.02.36-.02.37.44.36.02h.72l.36.01.37.06h.36l.36-.01.36-.02h.73l.36-.02h.36l.36-.02.37-.02.36-.03.36-.01.36-.03.36-.02.37.02.36.02.36-.03.36-.02h.36l.37-.03.36.03.36.01.36-.02.36-.03.37-.02.36-.03.36.04h.36l.36-.03h.37l.36-.02.36.01.36-.02.37-.01.36.06.36-.03.36-.02.36-.02.37-.02.36-.02.36-.02.36.03.36-.02.37-.02.36-.01.36-.03.36-.02.36.21.37-.02.36-.02.36-.01.36.08.37-.01.36-.01.36-.02.36-.02.36-.02.37-.01.36-.04.36-.01.36.33.36-.02.37-.01.36-.01.36-.01.36-.01.36-.03.37.02.36-.02.36-.02.36.01.36-.02.37-.01.36-.03.36-.03.36.01.37.01.36-.03.36-.01.36-.01.36-.03.37-.03.36-.03.36-.02.36-.03.36-.01.37-.02.36.04.36-.02.36-.02.36-.04.37-.02.36-.02.36.01.36.05.37.08.36-.02.36.01.36-.02.36.1.37.2.36-.01.36.01.36.01.36-.01.37.01h.72l.36-.01.36-.01.37.01.36-.02.36-.01.36-.02.37-.02h.36l.36.13.36-.03.36-.01.37.02.36-.02.36-.01.36-.02.36-.02.37-.01.36-.02.36-.03.36-.01.36-.02.37.01.36-.03.36-.01.36-.01.36-.02.37-.02.36.01.36-.01.36-.02.37-.02.36.05.36-.01.36.01.36-.01.37-.03h.36l.36-.02.36.01.36-.02.37-.03.36.14.36-.01h.36l.36.19h.37l.36-.01.36.05h1.09l.36-.02.36-.01.36-.01.37.03h.36l.36-.01.36-.01.36-.01.37-.02.36-.03.36-.02.36-.02.36-.01.37.01.36-.03.36.07.36-.01.36-.03h.37l.36-.02.36-.03.36-.03.37.03.36-.02h.36l.36-.01.36-.02.37-.03.36-.04.36-.01.36-.03.36-.02h.37l.36.07.36-.03.36-.02.36-.02.37.02.36-.01.36.02.36-.02.37.1.36.01.36-.03.36-.01.36-.02.37.2.36-.01h.36l.36-.01.36-.01.37.03h.36l.36-.01.36-.01.36.1.37-.02.36-.02h.36l.36-.02.36-.02.37-.02.36.09.36-.02.36-.02.37.02.36-.02.36-.03.36-.01.36-.01.37-.01.36-.01.36-.02.36-.03.36-.01h.37l.36-.03.36-.02.36-.03.36-.03.37.02.36.01.36-.01.36-.02.37.01.36.05.36-.02.36-.02.36-.03.37-.03.36-.02.36.02.36.01.36-.03.37-.01h.36l.36.05.36-.01.36.2h.37l.36-.02h.36l.36-.02h.37l.36-.02.36-.01.36-.02.36-.03.37.02.36-.03.36-.02.36-.03.36-.03.37-.03.36-.03.36.23.36-.01.36.01.37.03.36-.02.36.03h.36l.36-.02.37-.01.36-.02.36-.02.36-.02.37-.03h.36l.36-.03.36.04h.36l.37-.02.36-.01.36-.01.36-.03.36-.02.37.05.36-.02.36.04.36-.01.36-.01.37-.03.36-.02.36.02h.36l.37-.03h.36l.36-.03.36.09.36.04.37.2.36-.01.36-.04.36-.01.36.02.37-.02.36-.01.36-.02.36-.03.36.01.37-.01h.36l.36-.01.36-.02.36-.02.37-.02.36-.01.36-.03h.36l.37.01.36-.03.36-.03.36-.01.36.08.37.03.36-.02.36-.03.36-.03.36-.02.37-.04.36-.03.36-.02.36-.03.36-.03.37-.04.36-.01.36.05.36-.01.37-.01.36.04.36.25h.36l.36-.02.37-.01.36-.01.36.02.36-.03.36-.03.37-.02.36-.01.36-.01.36-.02.36.19.37-.02.36-.02.36-.02h.36l.37-.01.36.04h.36l.36.04.36-.01.37.01.36-.01.36-.02.36-.01.36-.02.37-.02.36-.01.36.03.36-.01.36-.02.37.06.36-.02.36-.01h.36l.36-.02h.37l.36-.01h.36l.36-.02.37-.02.36-.02h.36l.36-.03.36-.03.37.04.36-.03.36-.01.36.03.36-.02.37.06.36-.02.36-.02.36.03h.36l.37-.01.36-.01.36.02.36-.02.37-.02.36.03.36-.01.36-.02.36.2.37.02.36-.01.36-.03.36-.02h.36l.37.02h.36l.36-.01.36-.01.36.01.37-.01h.36l.36-.01.36-.02.36-.02.37.01.36-.01.36-.01.36-.01.37.12.36-.01.36-.01h.36l.36-.02h.37l.36-.02.36-.02.36-.04.36.01.37-.03.36.15.36-.03.36-.01.36-.03.37-.02h.36l.36-.03.36-.01.37-.02.36.04.36-.01.36-.02.36-.01.37-.02.36-.01.36.01.36-.02.36-.03.37-.03.36.01.36-.02.36.01.36.19.37-.02.36.02h.36l.36-.01.36-.01h.37l.36.01.36-.02.36-.01h.37l.36-.01.36-.01.36-.02.36-.01.37-.02.36-.02.36-.03.36-.02.36.01.37-.02.36.02.36-.03.36.09.36-.02.37-.03.36.24.36.02.36-.03.37-.02.36-.01.36-.01.36-.01.36-.02.37-.02.36-.02.36-.01.36-.01.36-.02.37.04.36-.06.36-.02.36-.02.36-.03.37-.03.36-.02.36.03.36-.02.37-.02h.36l.36-.02.36.05.36.25h.37l.36-.01.36-.01.36-.01.36-.01.37-.01.36.01.36-.02.36-.01h.36l.37-.03.36.03h.36l.36-.02.36-.01.37-.01.36-.02.36.01.36-.03.37.03h.36l.36-.02h.36l.36-.02.37.1h.36l.36-.02.36-.03.36.16.37-.02.36-.02.36-.02.36-.03.36-.03.37-.03.36.01.36-.02.36-.03.37-.01.36.06.36.01.36-.01.36-.02.37-.01.36-.03.36.02.36-.03.36-.02.37-.01.36-.03.36.05.36-.01.36.29.37.01.36-.01.36-.01h1.09l.36-.01.36-.01h.36l.37.02h.36l.36-.02.36-.02.36-.02.37-.01.36-.02.36-.02.36-.01.36.02.37-.03.36-.03.36-.02.36-.01.36-.03.37-.02.36.01.36-.02h.36l.37-.02.36.04.36-.01.36-.02.36-.02.37-.03.36-.02.36.13h.36l.36-.02.37.04.36.02.36-.03.36-.02h.36l.37-.01.36-.02.36.02.36-.03.36-.01.37-.01.36.02.36-.01.36.2.37-.02.36-.02.36.01.36-.01.36-.01h.37l.36-.01.36-.02.36-.02.36.02.37-.01.36-.01.36-.01.36.01.36-.03.37.01h.36l.36-.01h.36l.37.07.36-.02.36-.01h.36l.36-.02.37-.02h.36l.36-.02.36-.03h.36l.37-.03.36-.02.36-.02h.36l.36-.01.37-.02.36-.01.36-.03.36-.02.37.06.36.1.36-.03.36-.02.36-.02.37.08.36-.02.36.02.36-.03.36.02.37.01.36-.02h.36l.36-.02.36.2.37.01.36-.02h.36l.36-.01h.36l.37-.02.36.02.36-.01h.36l.37-.03.36.03.36-.02.36-.02.36-.01.37-.02.36-.02.36-.01.36-.02.36.02.37-.01.36-.03h.36l.36-.03.36-.02.37-.02.36-.02.36-.03.36.2.37-.01.36-.01.36-.01.36-.01.36-.02.37-.03.36-.03.36-.01.36.07.36-.02.37.04.36-.02.36-.04.36-.02.36.1.37-.01.36.02.36-.02.36.04.36-.01h1.09l.36.19h.37l.36-.01.36-.01.36-.01h.36l.37.02.36-.02.36-.02.36-.02.36-.01.37-.01.36-.03.36-.02.36-.03h.36l.37-.03.36-.03.36-.02.36-.03h.37l.36-.02.36-.01.36-.02.36-.02.37.04.36.02.36-.03.36-.02.36-.02.37-.04.36-.02.36-.02.36-.01.36.02.37-.03.36-.01.36-.04h.36l.36.17.37.12.36-.02.36-.01.36-.02.37-.02.36.01.36.02.36-.03.36-.02.37.06.36-.02.36-.01.36.2h.36l.37-.02.36.01h.72l.36-.01h.37l.36-.02.36-.01.36.01.37-.01.36-.01.36.01.36-.02.36-.02.37-.02.36.02.36-.02.36-.02.36.01.37-.02.36-.03h.36l.36-.01.36-.01h.73l.36.07.36-.01.37-.02.36-.01h.36l.36-.02.36-.02.37-.03.36.09.36-.03.36-.01.36-.02.37.04.36-.02.36-.02.36-.03.36-.03.37-.02.36.02.36-.02.36-.02.36-.02.37.04.36.07.36-.03.36.2.37-.01.36-.01h.36l.36-.01.36-.01.37-.02.36-.01.36-.01"/><use xlink:href="#6701c__d" color="#29C3F6" transform="matrix(3.75 0 0 3.75 354.25 150.94)"/><use xlink:href="#6701c__d" color="#29C3F6" transform="matrix(3.75 0 0 3.75 84.25 7.51)"/></g><text stroke-linecap="round" stroke-linejoin="round" color="#000" font-family="KaTeX_Main" font-size="8" transform="translate(104.8 25.11)"><tspan>AVLRelaxedTopDown</tspan></text><g fill="none" stroke="currentColor" stroke-linecap="round" stroke-linejoin="round" color="#000"><path stroke="#9F650D" stroke-dasharray="4.5,2.0,0.5,2.0,0.5,2.0" d="M69.3 22.51h29.9M28 151.54l.36-.05.36-.06.37-.1.36.15.36-.05.36-.04.36-.09.37.01.36-.04.36-.04.36-.08.37.05.36.03.36-.02.36-.02.36-.04.37-.03.36-.05.36-.04.36-.22.36-.04.37.19.36.02.36-.01.36-.05.36-.01.37.33.36-.01.36-.01.36-.03.36-.06.37.03h.36l.36-.09.36-.02.37-.03.36-.05.36.1.36-.01.36.01.37-.01h.36l.36-.03.36-.04h.36l.37-.03.36-.01.36-.01.36-.02.36-.01.37-.03.36-.01.36-.06.36-.03.37.01.36-.04.36-.01.36-.04.36.01.37-.02.36-.05.36-.05.36-.05.36.01.37.08.36-.03.36-.01.36-.05.36-.06.37-.03.36-.06.36-.01.36-.05.37-.06.36-.05.36-.08.36.15.36-.1h.37l.36-.04.36-.06.36-.06.36-.03.37.47.36.23.36-.05.36.02.36-.03.37-.04.36.02.36-.03.36-.02.36-.04.37-.04.36-.17.36.12.36-.01.37-.03.36-.04.36-.02.36-.05.36-.06.37.2h.36l.36-.02.36-.03.36-.05.37-.05.36.04.36-.05.36.03.36-.05.37-.04.36-.05.36-.05.36.01.37-.06.36-.05.36.01.36-.06.36-.02.37-.05.36-.02.36-.06.36-.08.36.22.37-.06.36-.05.36.06.36.13.36-.04.37.11.36-.04.36-.04.36.03.36-.01.37-.03.36-.03.36-.05.36-.03.37-.03.36.01.36-.04.36-.04.36-.06.37-.01.36-.06.36-.07.36-.04.36-.02.37-.06.36-.06.36.07.36-.07.36.45.37.02.36-.03.36-.06.36-.01.37-.05.36-.04.36-.02.36-.06.36-.05.37-.07.36.05.36-.06.36-.01.36-.06.37-.07h.36l.36-.06.36-.06.36-.09.37-.05.36-.04.36.18.36-.07.36-.05.37-.08.36-.08.36 1.04h.36l.37-.03.36-.03.36-.03.36-.06.36-.01.37-.02.36-.05.36-.03.36-.06.36-.06.37-.06.36-.01.36-.03.36-.02.36-.05.37-.06.36-.16.36-.04.36.57.37-.04.36-.04.36-.04.36-.06.36.17.37.22.36-.03.36-.02.36-.03.36-.05h.73l.36-.04.36-.04.36-.03.37-.04.36-.05.36-.07.36.01.37-.07.36-.06.36-.06.36-.02.36-.09.37-.03.36.04.36-.05.36-.06.36-.07.37-.03.36-.08.36.05.36-.11.36-.06.37.22.36.01.36-.06.36-.05.36-.03.37-.06.36-.04.36-.06.36.4.37-.07.36.09.36.02.36-.02.36-.04.37-.05.36-.08.36-.06.36-.01.36-.03.37-.07.36-.05.36-.08h.36l.36.91.37-.03.36-.02.36-.03.36-.06.37-.04.36.08.36-.02.36-.03.36-.04h.37l.36-.05.36-.03.36.01.36-.06.37-.06.36-.03.36-.05.36.03.36-.07.37-.02.36-.05.36-.05.36-.04.36-.06.37-.07.36.06.36-.1.36-.05.37-.06.36.15.36-.04.36-.07.36.96.37-.03.36-.03.36-.03.36-.04.36-.05.37-.04.36.03.36-.05.36-.05h.36l.37-.04.36-.16.36-.02.36-.04.37-.03.36-.03.36-.06.36-.04.36-.07.37.21.36.12.36-.03.36.14.36-.03.37.05.36-.01.36-.01.36-.03.36-.04.37-.03.36-.05.36-.06.36.05.36-.05.37-.04.36-.01.36-.06.36-.06.37-.03.36-.04.36-.05.36-.08.36.04.37-.06.36-.08.36.07.36.14.36.18.37-.02.36-.05.36-.03.36-.02.36-.03.37-.04.36-.04.36-.05.36-.07.37-.05.36-.01.36.18h.36l.36-.04.37-.06.36-.07.36-.04.36-.01.36-.05.37-.07h.36l.36-.07.36-.09.36.73.37-.04.36-.03.36-.03.36-.05.37-.01.36-.04.36.01.36-.05.36-.03.37-.05.36-.03.36-.05h.36l.36-.07.37-.04.36-.04.36-.07.36-.07.36.01.37-.02.36-.06.36-.05.36.01.36-.07.37-.04.36.05.36-.09.36-.05.37-.07.36.02.36-.06.36-.08.36-.02.37-.06.36-.08.36-.03.36.09.36-.08h.37l.36-.06.36.93.36-.04.36-.02.37-.04.36-.16.36.78.36-.01.37-.01.36-.03.36-.06.36-.05.36-.02.37.21.36-.02.36-.05.36.01.36-.04.37-.06.36-.02.36.46.36-.02.36-.01.37-.05.36-.04.36.03.36.03.36-.04.37-.03.36-.04.36-.01.36-.07.37-.01.36-.05h.36l.36-.04.36-.03.37-.05.36-.06.36.08.36-.09.36-.03.37-.05.36.13.36-.04.36-.01.36-.04.37-.03.36-.06.36-.03.36-.07.37-.04h.36l.36-.05.36-.06.36-.06.37-.01.36-.09.36-.03.36-.06.36-.07.37-.04.36-.07.36-.08.36-.09.36.92.37-.06.36-.01.36.19.36.13.37-.04.36.11.36-.04.36-.01.36-.03.37-.04.36-.04.36-.06.36-.01.36.03.37-.03.36-.04.36-.05.36-.08.36-.06.37.02.36-.05.36-.07.36-.03.36-.06.37-.07.36.06.36-.12.36.06.37-.05.36-.06h.36l.36-.05.36-.03.37-.04.36-.08.36-.03.36-.08.36-.07.37-.01.36-.09.36.01.36-.08.36-.05.37-.08.36-.17.36-.01.36-.01.37-.04.36-.04.36-.07.36-.08.36 1.15.37-.05.36-.05.36.28.36-.03.36-.05.37-.03.36-.01.36-.05.36.45.36-.02.37-.05.36-.04.36.06.36-.04.36-.04.37-.04.36-.05.36-.02.36-.05.37-.02.36-.02.36-.05.36-.03.36-.06.37-.07.36.04.36.08.36.14.36-.03.37-.04.36-.02.36-.03.36-.01.36.02.37-.03h.36l.36-.05.36-.06.37-.03.36.01.36-.04.36-.06.36-.05.37-.02.36-.08.36.05.36.23.36-.03.37-.06.36-.01.36-.06.36-.05.36.46.37-.04.36-.04.36-.03.36-.04.36.11.37-.02.36-.01.36-.03.36-.05.37-.04.36-.05.36-.06.36.01h.36l.37-.03.36-.04.36-.05.36-.08.36-.02.37-.01.36-.04.36-.06.36-.06.36-.02.37-.07.36.07.36-.12.36-.05.37.19.36.06.36-.05.36-.04.36-.01.37-.05.36-.06.36-.07.36-.04.36-.04h.37l.36-.07.36-.05.36-.01.36-.07.37-.17.36-.07.36-.02.36-.06.37-.05.36-.05.36-.07.36-.07.36.17.37-.08.36.94.36-.04.36-.03.36-.05.37-.07.36-.04.36-.02.36.02.36.43.37-.04.36-.06.36.01.36.02.36-.03.37-.03.36-.04.36-.04.36-.08.37.01.36-.05.36-.03.36-.06.36-.04.37-.06.36.05.36-.1.36-.06.36-.06.37.12.36-.04.36-.06.36-.02.36-.04.37-.06.36-.04.36-.07.36-.07.37-.05h.36l.36-.08.36.02.36-.06.37-.07.36-.04.36-.02.36-.06.36-.07.37-.04.36 1.11.36-.06.36-.08.36.94.37-.04.36-.05.36.24.36-.04.36-.05.37.16.36-.03.36-.03h.36l.37-.04.36-.05.36-.03.36.01.36-.01.37-.04.36-.04.36-.06.36-.07.36-.02.37-.05.36.01.36-.06.36-.04.36-.06.37-.07.36.1.36-.1.36-.06.37-.03.36-.06.36-.06.36.01.36.07.37-.06h.36l.36-.05h.36l.36-.03.37.01.36-.07.36-.04.36-.04.36-.07.37-.18.36-.02.36-.03.36-.06.36-.07.37-.04.36-.05.36-.05.36.19.37-.07.36-.05.36-.04.36-.08.36.92.37-.04h.36l.36-.05.36-.06.36.38.37-.02.36-.04.36.02.36-.05.36-.03.37-.03.36-.04.36.01.36-.07.37-.01.36-.03.36-.06.36-.03.36-.06.37-.04.36.06.36.11.36.14.36-.03.37-.01.36-.04.36.69.36.02.36-.03.37-.03.36-.03.36-.05.36.06.37.03.36-.04.36-.03.36-.03.36-.03.37-.03.36-.07.36-.02.36-.04.36-.04.37.02.36-.05.36-.06.36-.06.36.45.37.01.36-.04.36-.04.36-.06.36-.02.37-.04.36-.05.36.16.36-.03.37-.07.36.13.36-.05.36.03.36-.01.37-.05.36-.03.36-.06.36-.07.36-.03h.37l.36-.04.36-.05.36-.07.36-.05.37-.05.36.07.36-.11.36-.02.37-.05.36-.06.36-.06.36-.04.36.03.37-.05.36-.01.36-.04.36-.06.36-.06h.37l.36-.08.36-.05.36-.04.36-.07.37-.18.36-.03.36.02.36-.06.36-.06.37-.06.36-.09.36-.05.36.18.37.03.36-.05.36-.01.36-.07.36.92.37-.03.36-.05.36-.05.36.38.36-.01.37-.04.36-.04.36.01.36-.03.36-.02.37-.03.36-.05.36-.07.36-.05.37.06.36-.05.36-.04.36-.04.36-.07.37-.06.36.1.36-.11.36-.04.36-.04.37-.06.36.15.36-.04.36.05.36-.04.37-.04.36-.05.36-.07.36-.03h.36l.37-.07.36-.06.36-.04.36.02.37-.05.36-.09.36-.04.36-.04.36-.05.37-.06.36-.06.36-.09.36.93.36-.06.37-.04.36-.07.36.14.36-.05.36-.03.37.25.36-.04.36-.04.36-.03.37-.05h.36l.36.01.36-.06.36-.04.37-.03.36-.05.36-.05.36-.09.36-.01.37-.07h.36l.36-.05.36-.07.36-.06.37-.08.36.09.36-.09.36-.05.37-.05.36-.06.36.05.36-.03.36-.08.37.08.36-.04.36-.07.36-.06.36-.07.37-.02.36.14.36-.05.36-.05.36-.08.37-.15.36-.04.36.91.36.02.36-.05.37-.05.36-.04.36-.07.36.2.37-.06.36-.05.36-.02.36-.06.36-.06.37-.04.36-.06.36-.04"/><use xlink:href="#6701c__c" color="#9F650D" transform="matrix(3.75 0 0 3.75 67.83 150.27)"/><use xlink:href="#6701c__c" color="#9F650D" transform="matrix(3.75 0 0 3.75 84.25 22.51)"/></g><text stroke-linecap="round" stroke-linejoin="round" color="#000" font-family="KaTeX_Main" font-size="8" transform="translate(241.1 10.11)"><tspan>LBSTTopDown</tspan></text><g fill="none" stroke="currentColor" stroke-linecap="round" stroke-linejoin="round" color="#000"><path stroke="#F44336" stroke-dasharray="4.5,2.0,0.5,2.0,0.5,2.0" d="M205.6 7.51h29.9M28 150.49l.36-.05.36-.11.37-.14.36.19.36-.06.36-.02.36-.12.37-.05.36.21.36-.09.36-.06.37-.09h.36l.36-.04.36-.09.36.29.37-.09.36.06.36-.01.36-.09.36.25.37-.07.36.23.36-.04.36-.05.36.17.37-.05.36-.02.36-.08.36-.04.36-.04h.37l.36-.06.36-.02.36-.07.37.08.36-.03.36-.07h.36l.36-.06.37.02.36.21.36-.05.36-.04.36-.06h.37l.36-.05.36-.06.36.06.36-.03.37.17.36.01.36-.03.36.03.37-.02.36-.03.36-.01.36-.03.36-.02.37-.05.36-.04.36-.04.36.01.36-.04.37-.04.36-.05.36.03.36-.03.36-.04.37-.02.36-.05.36.08.36.08.37-.03.36-.03.36-.03h.36l.36.02.37-.03.36.02.36-.04.36-.03.36-.01.37-.05h.36l.36.44.36-.04.36-.02.37-.02.36-.01.36.02.36-.02.36.02.37-.03.36-.01h.36l.36-.03.37-.03.36-.04.36.1.36-.03.36-.03.37.2.36-.02.36-.04.36.02.36-.05.37.02.36.03.36-.04.36-.04.36-.02.37-.05.36-.03.36-.04H70l.37-.05.36-.03.36.07.36-.03.36-.04.37-.01.36-.05.36-.03.36-.04.36.14.37-.03.36-.04.36.13.36-.04.36-.03.37.01.36-.02.36-.03.36-.05.36-.01.37.18.36-.03.36.21.36-.02.37-.04.36.09.36-.03.36-.03.36.04.37-.03.36-.03.36-.04h.36l.36-.03.37-.03.36.09.36-.04.36-.03.36.2.37-.04.36-.02.36-.01.36.03.37-.03.36-.03h.36l.36-.02.36-.03.37-.04.36-.05.36-.02.36-.02.36-.05.37-.03.36-.05.36.01.36-.05.36-.03.37.21.36-.04.36.03.36.14.36-.05.37-.03.36-.02.36-.04.36.04.37-.01.36.01.36.03.36-.01.36-.02.37-.01.36-.01.36.22.36-.04.36-.03.37-.03.36-.01.36-.03.36-.03.36.02.37-.02.36-.03.36-.01.36-.04.37-.03.36.09.36-.04.36-.03.36-.03.37.2.36-.03.36-.01.36.02.36-.04.37-.02h.36l.36-.02.36.1.36.08.37-.04.36-.03.36-.03.36-.02.37-.02.36.08.36.02.36-.04.36-.03.37.01.36-.03.36-.03.36-.02.36.09.37-.03.36.01.36-.02.36-.03.36.01.37.02.36-.03.36-.04.36.01.36-.02.37-.02.36-.04.36.21.36-.03.37-.04.36-.02.36-.04.36-.02.36.06.37-.02.36-.01.36-.02.36-.01.36-.01.37-.03.36.08.36-.02.36-.04.36.2.37-.03.36-.01.36.02.36-.03.37-.03.36-.02.36-.02.36.02.36.03.37-.04.36-.04.36-.03.36-.02.36-.03.37-.04.36.06.36-.05.36-.04.36-.02.37.02.36.19.36-.02.36.09.36-.03.37-.02.36-.02.36-.04.36-.03.37-.03.36.01.36-.04.36-.04.36-.01.37.09.36-.02.36.21.36-.04.36.04h.37l.36-.03.36-.01h.36l.36.02.37-.02.36-.03.36-.01.36-.03.37-.02.36.09.36-.03.36-.03.36-.04.37.2.36-.02.36-.03.36.01.36-.02.37-.03h.36l.36-.03.36.03.36-.04.37-.04.36-.03.36-.05.36-.02.36-.03.37-.01.36.01.36-.05.36-.03h.37l.36-.04.36.19.36.21.36-.03.37-.03.36-.03.36-.01.36-.02.36-.03.37.01.36-.04.36.17.36.02.36-.03.37-.03.36-.03.36.21.36-.03.37-.04.36-.02.36-.02.36-.02.36.02.37-.05.36-.04h.36l.36-.04.36-.04.37.05.36.08.36-.04.36-.04.36.19.37-.04.36.04.36.01.36-.04.37-.04.36-.02.36-.02.36-.03.36.03.37-.05.36-.03.36-.05h.36l.36-.04.37-.05.36.05.36-.05.36-.05.36.17.37-.01.36-.03.36-.03.36.08.36-.05.37-.03.36-.02.36-.04.36-.04.37.13.36-.03.36-.04.36-.04.36-.02.37.08.36-.04.36.21.36-.04.36-.04.37-.01.36-.01.36-.04.36-.01.36.03.37-.02.36-.04.36-.02.36-.02.37-.05.36.07.36-.04.36-.04.36-.01.37.17h.36l.36-.02.36.02.36-.02.37.03.36.05.36-.02.36-.02.36-.05.37-.03.36-.03h.36l.36-.01.36-.03.37-.04.36.02.36-.02.36-.03.37.23.36-.03.36-.03.36.11.36-.03.37-.04.36-.03h.36l.36-.03.36-.04.37.02.36-.03.36-.02.36-.01.36-.04.37-.03.36.2.36-.04.36-.04.37-.04.36-.02h.36l.36-.05.36.02.37.02.36.1h.36l.36-.03.36-.04.37-.04.36.1.36-.04.36-.04.36.2.37-.02.36-.04.36.01.36-.02.37.07h.72l.36-.02.36-.01.37-.04.36-.03.36-.04.36.23.36.01.37-.02.36.02.36-.01.36-.03.36.01.37-.04.36-.03.36-.03.36.08.36-.03.37-.03.36-.02.36-.04.36-.02.37.01.36-.02.36-.04.36-.04.36-.01.37-.04.36-.04.36.31.36-.01.36-.04.37-.01.36-.01.36-.03.36.03.36-.04.37-.03.36-.04.36-.01.36-.03.37-.04.36.08.36.17.36-.02.36.2.37.04.36-.02.36-.04.36.03.36-.02.37-.03.36.2.36.03.36-.03.36-.03.37-.03.36-.03h.36l.36-.03.36-.03.37-.04.36.02.36-.02.36-.04.37.01.36-.04.36-.03.36.08.36-.04.37-.04.36-.01.36-.05h.36l.36-.05.37.01.36-.01.36-.05.36-.02.36-.04.37-.03.36.2.36-.05.36-.04.37-.04.36-.02.36-.04.36-.04h.36l.37-.02.36-.05.36-.02.36.01.36-.04.37.2.36-.05.36-.04.36-.06.36.2h.37l.36.05.36.04.36-.04.36-.01.37.06.36.2.36-.01.36-.03.37-.04.36-.02.36-.03.36-.01.36-.01.37-.04.36.01.36-.04.36-.02.36-.02.37-.03.36-.03.36-.04.36.08.36-.02.37-.04.36-.02.36-.04.36.01.37.02.36-.04h.72l.36-.04.37-.02.36-.04.36.2.36-.03.36-.04.37.02.36-.05.36-.04.36.01.36.06.37-.01.36-.05.36-.01.36.03.37-.04.36.08.36-.02.36-.05.36.19h.73l.36.03.36-.04.36-.01.37.19.36.01.36-.01.36-.03.36-.03.37-.03.36-.02.36-.02.36-.03.36-.03.37.02.36-.05.36-.02.36-.04.37.07.36-.02.36-.03.36.09.36-.04.37.08.36-.02.36-.03.36-.01.36-.04.37.02.36-.03.36-.02.36-.02.36-.04.37-.02.36.21.36-.05.36.01.37-.02.36-.04.36-.02.36-.05h.36l.37-.03.36-.04.36.16.36-.03.36-.02.37.08.36-.03.36-.03.36-.04.36.24.37-.02.36-.03.36.04.36-.03.36.19.37.01.36-.03.36-.02.36-.03.37-.03.36-.01.36-.03h.36l.36-.04.37-.04.36.21.36-.04.36-.01.36-.01.37-.03.36-.03.36.08.36-.04.36-.04.37-.04.36.02.36-.03.36-.05.37.03.36-.01.36-.02.36-.02.36-.05.37-.03.36-.05.36.21.36-.05.36-.04.37.04.36-.04.36-.06.36.02.36-.05.37-.03.36.04.36-.05.36.04.36-.05.37.09.36-.04.36-.04.36.23.37-.05.36-.03.36.02.36-.02.36-.03.37.18h.36l.36-.02.36-.04.36-.05.37-.04.36-.04.36-.01.36.03.36-.04.37.02.36-.03.36-.04.36-.03.37-.01.36-.04.36-.05.36.19.36-.05.37-.02.36-.02.36-.01.36-.04.36.02.37-.02.36-.04.36-.04.36-.01.36-.04.37-.05.36.2.36-.05.36.08.37-.02.36-.02.36-.04.36-.05.36.03.37-.05.36-.04.36.03.36-.03.36-.05.37.08.36-.05.36-.04.36-.02.36.35.37-.03.36-.05.36.05.36.1.36-.02.37.02.36-.02.36.01.36-.03.37-.03.36-.03.36.01.36-.03.36-.02.37-.04.36.03.36-.01.36-.02.36-.01.37-.03.36-.03.36.15.36-.02.36-.03.37-.04h.36l.36.01.36-.04.37.02.36-.02.36.03.36-.01.36-.03.37-.02.36.21.36-.04.36-.02.36-.04.37-.03.36-.01.36-.03.36.02.36.04.37-.02.36-.01.36-.04.36-.03.36-.04.37.08.36-.03.36.18.36.2.37-.02.36-.01.36.02.36-.02.36-.02h.37l.36-.04.36-.02.36-.04.36-.05.37-.02.36-.04.36-.02.36-.05.36-.01.37.11.36-.02.36-.02h.36l.37-.04.36-.03.36-.02.36.07.36-.02.37-.03.36-.02.36-.04.36.19.36.03.37-.02.36-.03.36.02h.36l.36-.01.37-.03.36.21.36-.01.36-.04.36-.02.37-.04.36-.03.36.04.36.13.37-.02.36-.04.36.02.36-.02.36-.03.37.07.36-.03.36-.03.36.27.36-.03.37-.03.36-.01.36.02.36-.01.36-.03.37-.01.36-.02.36-.04.36-.05.37-.05.36-.04h.36l.36-.05.36-.03.37.03.36.02.36-.04.36.01.36-.02.37-.04.36-.03.36.12.36-.05.36-.03.37.01.36-.05.36-.02.36.18.37.01.36-.02.36-.04.36-.02.36-.03.37-.03.36.2.36-.05.36-.03.36-.03.37-.02.36-.03.36-.05.36.05.36-.04.37-.05.36-.03.36.07.36-.04.36.12.37-.05.36-.04.36-.05.36.21.37-.03.36-.04.36.01.36.08.36-.03.37-.02.36-.05.36-.03"/><use xlink:href="#6701c__e" color="#F44336" transform="matrix(3.75 0 0 3.75 125.4 150.13)"/><use xlink:href="#6701c__e" color="#F44336" transform="matrix(3.75 0 0 3.75 220.55 7.51)"/></g><text stroke-linecap="round" stroke-linejoin="round" color="#000" font-family="KaTeX_Main" font-size="8" transform="translate(241.1 25.11)"><tspan>TreapFingerTree</tspan></text><g fill="none" stroke="currentColor" stroke-linecap="round" stroke-linejoin="round" color="#000"><path stroke="#3B75EA" d="M205.6 22.51h29.9M28 68.24l.36 5.71.36-.06.37-4.59.36 4.97.36-3.86.36 1 .36-.8.37-4.63.36 4.3.36-6.72.36 8.88.37-5.59.36-4.17.36 6.51.36-2.7.36-4.49.37.08.36 1.02.36.84.36.94.36-1.38.37-3.67.36.32.36 4.76.36-3.75.36-1.47.37 1.9.36-.51.36-.09.36-2.98.36 3.88.37 1.69.36-3.54.36-2.01.36 4.44.37 2.77.36-3.07.36-2.99.36 1.51.36 1.56.37-3.03.36 7.13.36-7.83.36 3.19.36.62.37.97.36 1.57.36-6.76.36 1.1.36-1.66.37 9.72.36-5.89.36 10.43.36-4.83.37-6.18.36-1.61.36 6.43.36 1.88.36-5.93.37 3.39.36-1.42.36 3.69.36-5.67.36 5.03.37-1.33.36 2.33.36-1.35.36-3.81.36 2.78.37-.26.36-.61.36-3.34.36 2.97.37-.74.36-3.2.36 3.1.36 3.89.36-3.17.37-3.57.36 3.89.36.46.36-.59.36 1.57.37-.79.36-.87.36-.05.36-.56.36 3.95.37-8.01.36 3.26.36 3.33.36 1.5.36 3.32.37-7.75.36-.65.36 7.76.36.4.37-15.5.36 7.1.36 4.8.36-3.53.36-5.08.37 1.66.36-6.27.36 10.54.36-10.41.36-1.6.37 11.68.36-3.19.36-7.83.36 6.28.36 7.99.37-8 .36 4.83.36.75.36-8.15.37 4.1.36-.42.36 5.06.36-2.99.36 2.04.37-1.88.36-2.81.36 3.89.36-4.19.36-2.38.37-.26.36 5.12.36 1.34.36-6.13.36 1.02.37-2.97.36 8.33.36 5.96.36-4.61.36-.23.37-5.96.36-.02.36 4.44.36-2.31.37 5.05.36-3.64.36 4.58.36-7.66.36 6.67.37-2.11.36-1.02.36 1.6.36-.31.36-2.34.37-.98.36-1.13.36 2.78.36-.29.36 3.87.37-5.8.36-4.16.36 2.85.36-4.08.37 4.39.36-1.01.36-.29.36 3.74.36-6.14.37 3.9.36 5.62.36.99.36-1.48.36-2.94.37 1.25.36-.16.36-1.31.36-2.61.36.45.37 8.7.36-8.98.36.89.36 4.31.36-6.82.37 5.17.36.56.36 5.93.36-3.56.37-.62.36-5.2.36-1.96.36 3.59.36 4.09.37.27.36-2.15.36 4.34.36-1.5.36-4.7.37-.09.36 1.99.36 3.96.36 2.28.36-3.79.37-2.45.36 4.26.36-1.45.36 2.44.37-1.67.36-1.35.36.97.36-.08.36 2.08.37.17.36 1.07.36-1.17.36-3.15.36 5.33.37 4.6.36-3.35.36-6.23.36 3.51.36-1.71.37 3.81.36-5.49.36-.71.36 1.99.37-1.88.36-3.12.36 10.67.36-5.86.36 2.53.37 2.56.36-4.72.36-2.42.36 1.91.36-7.17.37 4.4.36 3.64.36-4.73.36 5.27.36-6.38.37 4.4.36-1.43.36 1.8.36-.2.36-3.17.37.48.36.49.36-4.03.36 3.75.37.89.36 2.67.36 3.71.36-7.1.36 7.06.37 5.51.36-2.11.36-6.7.36-3.47.36 1.57.37 1.07.36 3.4.36-1.9.36 1.16.36-6.04.37 3.31.36-.08.36 2.39.36-4.13.37 5.39.36-.13.36-.78.36-.55.36.86.37.34.36-3.95.36 2.07.36-1.58.36-.81.37 4.89.36.61.36-5.18.36 6.09.36-1.97.37.99.36 8.23.36-6.43.36 9.57.36-14.31.37 9.39.36-3.69.36-6.12.36.16.37 5.81.36-3.18.36-1.24.36 2.2.36-7.29.37 7.86.36-9.31.36 8.24.36-1.9.36-.17.37-5.45.36 3.26.36-1.89.36 3.15.36-1.2.37-7.81.36 3.31.36 7.1.36-5.83.37 4.66.36-.23.36 1.18.36-2.87.36 5.27.37-1.2.36-.59.36 1.56.36-4.56.36 4.37.37-3.83.36-1.03.36 3.01.36-.59.36-10.48.37 9.18.36-1.19.36 4.09.36-12.13.36 8.22.37 1.14.36.73.36-1.43.36 1 .37 1.4.36-.52.36-6.49.36 11.85.36-8.15.37-.1.36-1.1.36-5.72.36 8.72.36 2.19.37-9.27.36.88.36 6.79.36-.87.36 2.41.37-4.89.36 1.43.36 1.16.36-5.31.37 2.34.36 3.97.36-6.01.36 2.89.36 2.89.37-.3.36 3 .36-4.42.36-.36.36-1.29.37 6.11.36-2.77.36 1.33.36-1.65.36-4.66.37-.63.36 3.45.36-3.64.36 1.25.37 4.86.36.45.36 2.48.36-2.7.36-3.45.37 1.84.36-3.54.36 4.6.36-3 .36-4.75.37 9.1.36 3.1.36-9.61.36 5.49.36-1.59.37-3.22.36 6.28.36-1.89.36-2.79.36 7.88.37-6.36.36-7.05.36 16.86.36-3.9.37-3.19.36.5.36-6.83.36 4.99.36.45.37 1.49.36 5.28.36-3.59.36-7.1.36 9.48.37-13.5.36 7.85.36 1.89.36-3.39.36 2.35.37-1.07.36-.85.36 1.91.36-4.4.37.24.36 6.18.36 3.2.36.28.36-4.23.37-.96.36-1.11.36-3.13.36 5.27.36.32.37-4.18.36 5.52.36 3.16.36-3.5.36-3.58.37-.7.36 5.33.36 1.03.36.48.36-10.35.37 11.26.36-4.59.36-5.2.36 4.28.37-3.96.36-.76.36 9.2.36-1.16.36 4.28.37-13.72.36-1.46.36 11.55.36-4.44.36-3.9.37 3.94.36-1.31.36-6.65.36 7.66.36 2.56.37-7.45.36 10.56.36-6.03.36 5.87.37-5.21.36 1.22.36-1.27.36.7.36-6.11.37 5.61.36-4.96.36 6.49.36-5.02.36.07.37.22.36 1.33.36-3.13.36-3.86.36 5.66.37 3.5.36-11.12.36 3.7.36.66.37-1.46.36 1.26.36 3.51.36.02.36-5.65.37 5.53.36-5.55.36 2.4.36-1.41.36 8.38.37-6.74.36-5.31.36 2.33.36 3.44.36-1.82.37-4.39.36 3.27.36-4.4.36 6.38.36-7.21.37 6.69.36 2.84.36-2.95.36.23.37.18.36 1.73.36 3.31.36-4.95.36-3.4.37 4.03.36-2.3.36 3.29.36-1.22.36-6.27.37 7.97.36 2.06.36-10.81.36 6.35.36-5.49.37 8.5.36-.57.36-1.49.36 4.53.37-1.35.36-1.19.36.3.36-4.89.36 2.52.37 2.99.36.03.36 2.89.36.91.36-9.36.37 1.88.36 3.29.36 6.47.36-6.5.36-1.69.37 2.5.36-5.15.36 5.5.36-2.46.36-5.15.37 4.79.36 3.63.36-2.05.36.97.37-1.35.36-.66.36-1.82.36-2.58.36 4.35.37.7.36 6.38.36-9.03.36-1.11.36 6.94.37-4.54.36 6.95.36.23.36-1.68.36-5.99.37.78.36 5.1.36-3.92.36 5.89.37-9.26.36 3.84.36-3.43.36 6.92.36-.41.37-4.4.36.23.36 1.72.36-3.08.36 1.29.37 1.78.36-2.3.36 2.93.36-2.73.36.46.37-2.75.36 1.11.36 1.27.36-1.41.36 2.31.37-2.63.36-3.16.36 3.74.36.48.37-1.7.36-5.9.36 2.88.36.3.36.98.37.94.36 3.84.36-7.19.36 8.12.36-3.59.37-3.19.36 1.77.36-4.47.36-1.01.36 6.51.37 4.3.36-6.22.36-6.15.36 4.87.37-1.04.36-2.61.36-4.14.36 9.96.36-1.09.37-2.66.36 2.53.36-4.22.36 5.52.36-3.83.37-1.37.36 1.65.36-6.33.36 11.86.36-8.9.37 2.25.36 5.14.36-5.23.36 9.29.37-7.59.36.77.36-7.58.36 7.62.36 7.67.37-13.64.36 11.32.36-8.18.36 6.36.36 3.02.37-14.28.36 4.76.36 2.5.36-.71.36 6.62.37-5.93.36 6.8.36-7.23.36 5.27.36-3.89.37-4.22.36-2.16.36-.08.36 5.61.37-.41.36 3.79L263 69l.36-6.87.36 2.17.37-3.69.36-2.22.36.27.36-3.08.36 2.26.37 2.53.36-4.31.36 5.47.36-4.86.36 3.81.37 2.56.36-7.34.36 2.48.36 4.32.37-3.79.36.09.36 3.93.36-4.37.36 2.82.37-.27.36 1.73.36-5.37.36 6.37.36.2.37-1.74.36.67.36 1.66.36-.27.36 5.28.37-5.64.36 1.89.36-2.09.36-.19.36 1.36.37 4.33.36-7.21.36 2.76.36 3.99.37 1.74.36-.61.36-6.82.36 2.1.36 1.48.37-.25.36-4.78.36 9.67.36-6.05.36 1.07.37 2.79.36-5.57.36 3.98.36.96.36-2.41.37-.52.36-.23.36 4.98.36-.42.37.98.36-6.55.36-3.91.36 2.75.36 6.02.37-.81.36-4.43.36-2.66.36 7.89.36-2.82.37 3.36.36-7.32.36 11.39.36-15.97.36 3.2.37 4.8.36-4.71.36 1.66.36 3.55.36-3.01.37.84.36 3.94.36-3.12.36 2.24.37-6.32.36 6.37.36-1 .36-4.35.36 2.24.37 6.44.36-4.19.36 3.57.36.78.36-12.51.37 6.38.36-1.27.36-3.34.36 6.48.36-1.8.37 2.47.36-6.67.36 6.77.36.94.37 1.53.36-4.87.36 1.07.36-.09.36-2.16.37 6.98.36 3.4.36-9.32.36 2.65.36 3.67.37-5.05.36 2.56.36.65.36 2.21.36-1.6.37-3.31.36 6.23.36-8.99.36 3.85.37 8.5.36-8.09.36-.13.36 2.45.36 1.97.37-11.73.36 2.01.36 5.7.36.25.36-.54.37 1.09.36 2.82.36-9.06.36 2.98.36-3.95.37 3.83.36-7.18.36 9.2.36-5.66.36 1.29.37 3.43.36-.07.36-5.3.36-2.3.37 3.94.36-1.17.36 11.4.36-3.89.36-1.05.37-.83.36-7.11.36 4.52.36 1.07.36 5.51.37-1.33.36-4.8.36-6.85.36 1.64.36 1.27.37 1.41.36 1.94.36-4.52.36 2.27.37 7.32.36-6.9.36 3.1.36-2.17.36-3.45.37 3.92.36.3.36 2.31.36-6.43.36 6.81.37-4.69.36-6.17.36 4.64.36 9.45.36-1.53.37-5.28.36 1.53.36.4.36-.03.36-.51.37 3.33.36-6.01.36 1.68.36 1.93.37 1.48.36-.27.36 1.15.36 1.26.36-1.11.37-2.18.36 1.85.36-3.2.36 9.61.36-4.53.37-5.85.36 1.19.36 5.69.36.47.36-5.53.37 7.83.36-5.35.36 3.52.36 1.31.37 2.01.36-8.18.36-7.48.36 9.28.36-1.96.37 9.95.36-5.61.36-7.37.36 8.37.36.77.37-1.29.36 1.22.36-6.58.36 7.86.36-1.23.37 2.08.36-5.69.36 1.15.36-2.15.36 2.69.37-3.46.36.86.36 5.35.36-2.96.37-3.14.36 6.39.36-7.47.36 3.69.36 1.62.37-6.03.36 2.69.36 2.02.36.94.36-.35.37-1.5.36 2.64.36-4.7.36 2.3.36-.55.37-2.42.36 6.81.36-2.54.36.92.37 3.74.36-.4.36-8.41.36 8.05.36-.34.37-3.68.36 1.29.36-.67.36-.91.36 2.57.37 1.44.36 1.06.36-2.7.36-7.02.36 4.39.37-6.72.36 6.12.36-4.27.36 1.92.37-2.27.36 2.67.36-5.49.36 4.18.36 3.28.37-5.47.36 6.26.36-2.03.36 3.62.36-4.15.37 6.8.36-5.16.36 3.44.36-.91.36 1.38.37-2.17.36 1.87.36-.93.36 1.24.36-2.38.37-8.41.36 12.15.36-.92.36-6.61.37-.49.36-1.04.36 1.87.36 2.2.36-2.5.37-.8.36 4.31.36-7.35"/><use xlink:href="#6701c__f" color="#3B75EA" transform="matrix(3.75 0 0 3.75 182.98 68.15)"/><use xlink:href="#6701c__f" color="#3B75EA" transform="matrix(3.75 0 0 3.75 220.55 22.51)"/></g><path fill="none" d="M28 45.01V162.5M371.99 45.01H28" color="#000"/></svg>